<?xml version="1.0" encoding="UTF-8" standalone="no"?>
<svg
   ffdec:objectType="frame"
   height="75.538712"
   width="88.150002"
   version="1.1"
   id="svg11"
   sodipodi:docname="1.svg"
   xmlns:inkscape="http://www.inkscape.org/namespaces/inkscape"
   xmlns:sodipodi="http://sodipodi.sourceforge.net/DTD/sodipodi-0.dtd"
   xmlns:xlink="http://www.w3.org/1999/xlink"
   xmlns="http://www.w3.org/2000/svg"
   xmlns:svg="http://www.w3.org/2000/svg"
   xmlns:ffdec="https://www.free-decompiler.com/flash">
  <sodipodi:namedview
     id="namedview11"
     pagecolor="#ffffff"
     bordercolor="#000000"
     borderopacity="0.25"
     inkscape:showpageshadow="2"
     inkscape:pageopacity="0.0"
     inkscape:pagecheckerboard="0"
     inkscape:deskcolor="#d1d1d1"
     fit-margin-top="5"
     fit-margin-left="5"
     fit-margin-right="5"
     fit-margin-bottom="5" />
  <g
     transform="translate(44,37.738712)"
     id="g2">
    <use
       ffdec:characterId="1276"
       height="75.699997"
       transform="matrix(0.633,0,0,0.6771,-33.1892,-37.7268)"
       width="103.6"
       xlink:href="#sprite0"
       id="use1" />
    <use
       ffdec:characterId="1277"
       height="47.150002"
       transform="translate(-44,-9.35)"
       width="88.150002"
       xlink:href="#shape1"
       id="use2" />
  </g>
  <defs
     id="defs11">
    <g
       id="sprite0"
       transform="translate(51.8,37.85)">
      <use
         ffdec:characterId="1275"
         height="75.699997"
         transform="translate(-51.8,-37.85)"
         width="103.6"
         xlink:href="#shape0"
         id="use3" />
    </g>
    <g
       id="shape0"
       transform="translate(51.8,37.85)">
      <path
         d="m 21.15,15.55 -0.2,0.2 -1.55,1 0.6,-0.4 0.95,-0.65 0.2,-0.15"
         fill="#a9a9a9"
         fill-rule="evenodd"
         stroke="none"
         id="path3" />
      <path
         d="m 40.3,-26.25 -0.4,-0.85 -0.1,-0.15 q -1.2,-1.8 -3.35,-2.95 l -0.3,-0.15 -7.6,-1.95 Q 20.4,-34 15.4,-34 l -3.7,0.15 -1.55,0.1 h -20.3 l -1.55,-0.1 -2.05,-0.1 -1.65,-0.05 q -5,0 -13.15,1.7 l -7.6,1.95 q -2,1 -3.2,2.5 l -0.55,0.75 -1.8,3.5 -0.35,0.5 -0.45,0.65 q -0.9,1.25 -2.7,8.85 l -0.1,0.55 -1.2,5.75 -0.35,2.5 -0.6,3.65 -0.6,4.2 q 0,2.85 5,7.6 6.55,6.2 7.9,8.3 1,1.6 1.1,4 l 0.1,4 q 0.5,4.65 7.2,6.85 l 8.2,0.15 Q -7.1,33.9 0,34.1 7.1,33.9 18.55,33.95 l 8.2,-0.15 q 6.7,-2.2 7.2,-6.85 l 0.1,-4 q 0.1,-2.4 1.1,-4 1.35,-2.1 7.9,-8.3 5,-4.75 5,-7.6 l -0.6,-4.2 -0.6,-3.65 q 0,-1.6 -1.65,-8.8 -1.8,-7.6 -2.7,-8.85 -1,-1.35 -2.2,-3.8 M 0.7,-37.5 7.55,-37.6 q 9.45,-0.85 18.75,1 17.6,1.9 21.3,16.4 l 2.45,10.9 q 1.75,8.85 1.75,12.55 0,2.3 -0.75,4.1 -0.85,1.95 -2.95,4.4 l -4.75,4 q -3.45,2.6 -5.05,4.85 -1.2,1.6 -1.25,4.3 l -0.1,4.5 q -0.8,5.4 -9.9,7.85 h -12.1 -2.4 l -0.9,0.35 -2.4,0.25 -9.25,-0.3 -9.25,0.3 -2.4,-0.25 -0.9,-0.35 h -2.4 -12.1 q -9.1,-2.45 -9.9,-7.85 l -0.1,-4.5 q -0.05,-2.7 -1.25,-4.3 -1.6,-2.25 -5.05,-4.85 l -4.75,-4 q -2.1,-2.45 -2.95,-4.4 -0.75,-1.8 -0.75,-4.1 0,-3.7 1.75,-12.55 l 2.45,-10.9 q 3.7,-14.5 21.3,-16.4 9.3,-1.85 18.75,-1 l 6.85,0.1 H 0 0.7 m 12.6,18.6 0.15,0.75 0.6,0.2 h 2.1 q -0.15,-0.8 -0.75,-1.2 l -1.95,-0.45 -0.15,0.7 m -2.7,3.05 1.65,-0.7 0.6,-0.2 -0.4,-0.35 -0.25,-0.35 -0.1,-1.05 q 0,-2.45 2.8,-2.8 1.75,-0.2 2.4,1.05 0.4,0.75 0.4,2.05 v 0.05 l 0.25,-0.25 2.2,-1.55 q 2.05,-1.3 3.2,-0.85 l -1.5,1.35 -0.9,0.85 -2.1,2.1 -0.1,0.1 -3.05,3.2 -0.15,0.1 -0.45,0.4 -0.1,-0.1 -0.65,-0.8 q 0,-0.5 0.3,-1.05 l 0.7,-1.1 -1.45,0.45 -0.75,0.15 -4,0.8 -0.2,-0.2 q 0.45,-0.7 1.65,-1.3 m -34.4,0.65 -0.25,-0.2 -0.15,-0.45 q 2,0 5.15,-0.85 l 4.1,-1.05 -0.1,-0.5 q 0,-2.35 1.6,-3 h 2.55 q 1.75,-2.7 3.2,-3.05 l 0.45,0.2 q 0.15,0.1 0.15,0.6 0,0.4 -1.45,1.85 l -0.95,0.9 0.35,0.45 0.1,1.05 q 0,1.2 -1,2.35 l -0.65,0.6 h -2.45 l -0.95,-0.4 -0.1,-0.05 -0.05,0.1 -0.7,0.55 -0.75,0.5 -0.85,0.45 q -0.95,0.45 -1.7,0.6 h -0.45 -0.4 -0.45 -0.55 l -2.9,-0.3 -0.8,-0.35 m 17.85,-1.1 0.05,-0.45 7.65,0.15 0.3,0.45 q 0,0.65 -0.2,0.75 l -1.2,0.1 H -2 l -0.95,-0.05 -1.85,-0.1 -0.95,-0.1 -0.1,-0.15 -0.05,-0.1 -0.05,-0.5 m -29.4,17.2 -1.3,-0.4 -0.15,-0.45 5.35,-1.3 4.65,-0.85 -0.1,-0.25 -0.6,-1.65 v -1.35 q 1.4,-0.45 2,1.05 l 0.8,2 0.05,-0.2 0.05,0.05 1.1,-2 q 1.05,-1.35 2.1,-1.95 l 0.35,0.3 q 0.15,0.15 0.15,0.6 0,0.3 -1.1,2 l -1.25,1.7 1.85,0.75 q 4.1,1.55 12.95,1.55 l 5.8,-0.7 0.15,-0.05 0.1,-0.25 0.15,-0.2 2.15,-0.2 h 0.05 0.1 0.05 l 2.15,0.2 0.15,0.2 0.15,0.25 0.1,0.05 5.8,0.7 q 7.1,0 11.15,-0.95 0.5,-1.95 2.95,-1.65 1.15,0.1 1.9,0.6 L 24.3,-2.55 q 0,-1.75 0.95,-3.4 0.6,-1.05 2,-2.55 l 0.55,0.4 0.05,0.2 -1.25,2.25 h -0.05 q -0.75,1.05 -0.8,1.8 v 0.1 q 0,0.9 0.4,1.8 0.45,1.15 1.6,2.3 l 1.6,1.35 3.55,2.5 0.05,0.05 -0.3,0.7 -0.9,0.3 Q 28.35,5.25 26.2,2 l -1.05,2 -1.6,2.35 H 23.2 L 23.1,5.9 q 0,-0.7 1.1,-2.5 l -2,0.35 q -1.8,0 -2.45,-1.5 L 19.5,1.4 Q 15.25,2.6 8.3,2.6 5.75,2.6 1.45,1.5 L 0,1.1 -1.45,1.5 q -4.3,1.1 -6.85,1.1 l -9.35,-0.75 q -2.5,-0.5 -4.3,-1.35 l -0.2,-0.1 -0.1,-0.05 V 0.4 q -0.15,0.65 -0.8,1.1 -0.3,1.4 -1.9,3.8 -1.5,2.35 -3.05,3.15 l -1.75,0.45 -0.55,-0.1 -0.25,-0.2 3.25,-4 1.65,-2.3 0.25,-0.3 q -1.9,-0.05 -2.55,-0.95 l -0.2,-0.55 q -1.9,0.7 -4.6,0.7 l -2,-0.2 -0.6,-0.1 m 56.8,-1.3 -0.35,1.15 q 0.15,1.2 1.85,1.2 0.5,0 0.8,-0.6 L 23.95,0.5 Q 23.4,-0.25 22.7,-0.3 L 21.45,-0.4 M 25.6,1.2 25.65,1.15 25.6,1.1 v 0.1 m -3.25,11 0.15,-0.15 0.35,0.25 0.2,0.65 q 0,1.1 -1.9,2.6 l -0.2,0.15 -0.95,0.65 -0.6,0.4 -1.15,0.7 q 0.7,0.6 0.8,1.75 v 0.3 0.35 l 5.3,0.6 q 4.6,0 6.75,-1.75 1.75,-1.4 4.2,-0.8 l -2.7,2.35 q -2,1.55 -3.45,1.55 H 21.7 q -1.8,-0.15 -2.95,-0.65 l -0.2,0.4 q -0.8,1.45 -2.4,1.45 -1.2,0 -2.4,-1 l -0.55,-0.5 -0.45,-0.55 -2.3,0.4 q -1.6,0 -2.75,-0.55 L 6.9,20.25 6.6,19.9 6.75,19.35 q 0.2,-0.2 0.45,-0.25 l 0.1,-0.05 0.95,0.35 h 1.85 q 1.8,-0.3 3.3,-1.65 0.25,-0.4 0.65,-0.65 l 1.05,-1.35 0.9,-1.5 0.45,-0.9 0.9,-1.3 0.3,-0.3 0.3,-0.2 -0.05,0.4 -0.4,1.35 -0.2,0.7 -1.05,2.3 -0.1,0.2 0.25,-0.1 0.6,-0.2 2.15,-1 2.1,-1.9 1.1,-1.1 M 7.05,17.7 3.7,18.65 2.35,17.85 2.45,17.8 Q 0.9,17.55 0,17.1 q -1.9,0.95 -6.65,0.95 -1.2,0 -2.65,-0.6 l 0.1,0.85 q 0,0.75 -0.4,1.3 l -1.7,1.6 h -2.15 l -0.4,-0.05 q -3.5,4.4 -10.2,4.85 l -0.75,-0.2 q 0.95,-0.65 5.55,-2.35 3,-1.1 4.45,-2.9 l -0.35,-0.65 -0.1,-1.45 v -0.2 l -1.5,0.4 q -3.65,0 -6.4,-0.85 l -2.55,-1 v -0.45 l 0.9,-0.25 4.75,1 h 0.2 q 3.4,-0.05 5.25,-1.3 l 0.75,-0.3 0.05,0.05 1.15,-1.45 1.45,-1.2 q 0.45,-0.3 0.9,-0.45 l 1.05,-0.35 0.5,-0.1 q 0.15,-0.45 0.15,0.3 0,0.75 -2.1,2.5 l -1,0.8 0.3,0.1 0.05,-0.2 q 0.2,-0.3 0.8,-0.3 0.6,0 2.15,0.65 1.55,0.65 4.9,0.65 l 2.2,-0.35 -1.7,-1.7 0.15,-0.3 2.25,1.2 0.6,0.3 0.6,-0.3 2.25,-1.2 0.15,0.3 -1.65,1.7 2.15,0.35 1.85,-0.05 0.75,-0.3 3.3,-1.25 0.45,0.1 0.2,0.3 v 0.2 q 0,0.7 -1.95,1.7 l -1.05,0.5 m 7.35,1.1 -0.05,0.55 0.15,0.9 q 0.35,0.8 1.2,0.8 0.85,0 1.25,-0.75 l 0.3,-0.9 q 0,-0.55 -0.95,-1.05 l -1.8,0.45 h -0.1 m -40.2,-19.9 -1,0.85 -0.1,0.1 0.1,0.1 q 0.5,0.65 0.95,0.65 l 1.9,-0.45 q 0.4,-0.25 0.65,-0.45 l -1.2,-1.15 q -0.45,0.4 -1.05,0.4 L -25.8,-1.1 m 12.05,-18 q 0,0.6 0.3,0.85 l 1.4,0.3 q 1.1,0 1.3,-0.4 0.1,-0.25 0.05,-0.95 -0.15,-0.3 -2.85,-0.6 -0.2,0.05 -0.2,0.8 m 0.5,36.65 q -0.35,0.45 -0.2,1.35 l 0.3,0.35 q 1.65,0.1 1.95,-0.4 l 0.2,-1 q -1.75,-1.05 -2.25,-0.3 m -3.9,2.45 q -1.2,1.55 -4.55,1.8 h -7.45 q -1.45,0 -3.45,-1.55 l -2.7,-2.35 q 2.45,-0.6 4.2,0.8 2.15,1.75 6.75,1.75 l 6.1,-0.65 1.1,0.2"
         fill="#9a9a9a"
         fill-rule="evenodd"
         stroke="none"
         id="path4" />
      <path
         d="m 13.9,-15.3 1.45,-0.45 -0.7,1.1 -0.75,-0.65 m 2.5,31.7 0.4,-0.65 0.2,0.45 -0.6,0.2"
         fill="#a0a0a0"
         fill-rule="evenodd"
         stroke="none"
         id="path5" />
      <path
         d="m -42.05,-23.1 0.7,1.8 q 1.55,2.9 5.3,2.9 h 0.1 l 2.15,0.4 q 6.1,0 10.85,-3.7 3.05,-2.4 3.6,-3.85 3.15,-1.1 5.3,-2.2 l 3.1,-0.9 q 1.65,-0.5 2.6,-0.95 l 5.9,-0.5 h 7.6 l 5.7,2.05 q 11.15,3.8 16.65,3.8 9.7,0 12.8,-2 1.2,2.45 2.2,3.8 0.9,1.25 2.7,8.85 1.65,7.2 1.65,8.8 l 0.6,3.65 0.6,4.2 q 0,2.85 -5,7.6 -6.55,6.2 -7.9,8.3 -1,1.6 -1.1,4 l -0.1,4 q -0.5,4.65 -7.2,6.85 l -8.2,0.15 Q 7.1,33.9 0,34.1 -7.1,33.9 -18.55,33.95 l -8.2,-0.15 q -6.7,-2.2 -7.2,-6.85 l -0.1,-4 q -0.1,-2.4 -1.1,-4 -1.35,-2.1 -7.9,-8.3 -5,-4.75 -5,-7.6 l 0.6,-4.2 0.6,-3.65 0.35,-2.5 0.4,0.75 q 0.8,1.15 2.35,1.6 l 0.3,0.15 q 1.5,0.8 5,0.8 4.95,0 7.5,-4.35 0.95,-1.55 1.35,-2.95 v -0.05 q 2.1,-2 2.1,-2.7 0,-2.4 -7.25,-2.45 h -0.55 l -1.65,-0.25 q -2.85,-0.2 -4.65,1.05 l -1.25,0.4 -0.85,0.5 -1.15,1.25 -0.45,0.5 0.1,-0.55 q 1.8,-7.6 2.7,-8.85 l 0.45,-0.65 m 63.9,3.65 1.5,-1.35 q -1.15,-0.45 -3.2,0.85 l -2.2,1.55 -0.25,0.25 v -0.05 q 0,-1.3 -0.4,-2.05 -0.65,-1.25 -2.4,-1.05 -2.8,0.35 -2.8,2.8 l 0.1,1.05 0.25,0.35 0.4,0.35 -0.6,0.2 -1.65,0.7 h -6 l -3.35,1.5 -0.6,-0.95 1.2,-0.1 q 0.2,-0.1 0.2,-0.75 l -0.3,-0.45 -7.65,-0.15 -0.05,0.45 -4.1,-0.6 q 1,-1.15 1,-2.35 l -0.1,-1.05 -0.35,-0.45 0.95,-0.9 q 1.45,-1.45 1.45,-1.85 0,-0.5 -0.15,-0.6 l -0.45,-0.2 q -1.45,0.35 -3.2,3.05 h -2.55 q -1.6,0.65 -1.6,3 l 0.1,0.5 -4.1,1.05 q -3.15,0.85 -5.15,0.85 l 0.15,0.45 0.25,0.2 q -1.15,0.5 -1.15,2.35 0,2.6 3.6,5.1 4.75,3.3 13.2,3.3 2.45,0 7.5,-2.6 2.15,-1.1 3.45,-2.1 l 1.95,0.45 1.1,0.4 1.9,0.7 q 0.75,0.3 1.65,0.65 3.65,1.45 4.8,1.45 2.35,0 2.95,-1.45 3.45,-0.5 6.55,-3.25 3.15,-2.8 3.4,-5.1 2.85,-1.45 2.85,-2.65 0,-2.1 -2.4,-2.5 -2.25,-0.4 -5.25,0.8 l -0.45,0.2 M 27.8,-8.1 27.25,-8.5 q -1.4,1.5 -2,2.55 -0.95,1.65 -0.95,3.4 l 0.15,1.05 Q 23.7,-2 22.55,-2.1 20.1,-2.4 19.6,-0.45 15.55,0.5 8.45,0.5 L 2.65,-0.2 2.55,-0.25 2.4,-0.5 2.25,-0.7 0.1,-0.9 H 0.05 -0.05 -0.1 l -2.15,0.2 -0.15,0.2 -0.1,0.25 -0.15,0.05 -5.8,0.7 q -8.85,0 -12.95,-1.55 L -23.25,-1.8 -22,-3.5 q 1.1,-1.7 1.1,-2 0,-0.45 -0.15,-0.6 l -0.35,-0.3 q -1.05,0.6 -2.1,1.95 l -1.1,2 -0.05,-0.05 -0.05,0.2 -0.8,-2 q -0.6,-1.5 -2,-1.05 V -4 l 0.6,1.65 0.1,0.25 -4.65,0.85 -5.35,1.3 0.15,0.45 1.3,0.4 q -1.9,0.7 -1.9,1.95 0,0.85 0.4,1.1 1.25,0.75 6.05,0.75 l 3.5,-0.1 -3.25,4 0.25,0.2 0.55,0.1 1.75,-0.45 0.05,0.25 q 0.4,1.1 1.8,1.1 3.1,0 6.1,-3 2.6,-2.6 2.6,-4.15 l -0.2,-0.8 9.35,0.75 q 2.55,0 6.85,-1.1 L 0,1.1 1.45,1.5 q 4.3,1.1 6.85,1.1 6.95,0 11.2,-1.2 l 0.25,0.85 q 0.65,1.5 2.45,1.5 l 2,-0.35 q -1.1,1.8 -1.1,2.5 l 0.1,0.45 h 0.35 L 25.15,4 26.2,2 q 2.15,3.25 5.55,3.25 l 0.9,-0.3 0.3,-0.7 L 32.9,4.2 33.1,3.9 33.4,2.75 q 0,-0.75 -1.85,-3.25 -1.9,-2.55 -1.9,-3.4 l 0.7,-1.7 0.65,-1.5 q 0,-2.4 -2.45,-0.45 -0.3,-0.8 -0.75,-0.55 m 9.7,-9.1 q -2.6,-0.3 -4.35,1.6 -1.95,2.15 -1.95,6.35 0,2.2 0.85,4.2 1.6,3.9 5.7,3.9 1.45,0 2.15,-1.1 l 0.45,-1.4 q 0,-0.25 1.7,-1.95 1.7,-2 1.7,-3.65 0,-3.3 -1.95,-5.6 -1.8,-2.1 -4.3,-2.35 M 22.35,12.2 22.3,12 21.35,12.15 Q 20.4,12.5 19,13.5 l -1.85,1.55 0.35,-1.15 q 0.65,-0.4 0.65,-1.45 l -0.25,-0.5 0.05,-0.4 -0.3,0.2 Q 16.9,11.2 15,10.5 L 11.85,9.55 Q 5.5,7.85 5.5,9.15 q 0,1 2,2.75 1.75,1.5 4.1,2.1 L 11.2,14.4 10.05,15.3 9.85,15 9.4,14.9 6.1,16.15 5.35,16.45 3.5,16.5 1.35,16.15 3,14.45 2.85,14.15 0.6,15.35 0,15.65 l -0.6,-0.3 -2.25,-1.2 -0.15,0.3 1.7,1.7 -2.2,0.35 q -3.35,0 -4.9,-0.65 -1.55,-0.65 -2.15,-0.65 -0.6,0 -0.8,0.3 l -0.05,0.2 -0.3,-0.1 1,-0.8 q 2.1,-1.75 2.1,-2.5 0,-0.75 -0.15,-0.3 l -0.5,0.1 0.5,-0.6 0.8,-0.5 0.05,0.05 q 0.4,0.35 0.8,0.35 l 4.75,-0.8 Q 2.55,9.65 3.6,8.75 0.7,7.15 -3.5,8.25 L -4.45,8.6 q 1.2,-1.05 1.2,-1.65 0,-2.8 -16.7,6.6 l -1.45,-0.45 -1.75,-0.6 -0.7,0.2 -0.35,0.35 0.65,2.65 q 0.95,1.05 3.7,1.4 h -0.2 l -4.75,-1 -0.9,0.25 v 0.45 l 2.55,1 q 2.75,0.85 6.4,0.85 l 1.5,-0.4 v 0.2 l 0.1,1.45 0.35,0.65 q -1.45,1.8 -4.45,2.9 -4.6,1.7 -5.55,2.35 l 0.75,0.2 q 6.7,-0.45 10.2,-4.85 l 0.4,0.05 h 2.15 l 1.7,-1.6 q 0.4,-0.55 0.4,-1.3 l -0.1,-0.85 q 1.45,0.6 2.65,0.6 4.75,0 6.65,-0.95 0.9,0.45 2.45,0.7 L 2.35,17.85 3.7,18.65 7.05,17.7 7,18.1 q -0.15,0.5 0.15,0.95 L 7.2,19.1 Q 6.95,19.15 6.75,19.35 L 6.6,19.9 6.9,20.25 7.7,20.8 q 1.15,0.55 2.75,0.55 l 2.3,-0.4 0.45,0.55 0.55,0.5 q 1.2,1 2.4,1 1.6,0 2.4,-1.45 l 0.2,-0.4 q 1.15,0.5 2.95,0.65 h 7.45 q 1.45,0 3.45,-1.55 l 2.7,-2.35 q -2.45,-0.6 -4.2,0.8 -2.15,1.75 -6.75,1.75 l -5.3,-0.6 V 19.5 19.2 q -0.1,-1.15 -0.8,-1.75 l 1.15,-0.7 1.55,-1 0.2,-0.2 q 1.9,-1.5 1.9,-2.6 L 22.85,12.3 22.5,12.05 22.35,12.2 m -39.5,7.8 -1.1,-0.2 -6.1,0.65 q -4.6,0 -6.75,-1.75 -1.75,-1.4 -4.2,-0.8 l 2.7,2.35 q 2,1.55 3.45,1.55 h 7.45 q 3.35,-0.25 4.55,-1.8"
         fill="#9c9ea0"
         fill-rule="evenodd"
         stroke="none"
         id="path6" />
      <path
         d="m -42.05,-23.1 0.35,-0.5 1.8,-3.5 0.55,-0.75 q 1.2,-1.5 3.2,-2.5 l 7.6,-1.95 Q -20.4,-34 -15.4,-34 l 1.65,0.05 2.05,0.1 1.55,0.1 h 20.3 l 1.55,-0.1 3.7,-0.15 q 5,0 13.15,1.7 l 7.6,1.95 0.3,0.15 q 2.15,1.15 3.35,2.95 l 0.1,0.15 0.4,0.85 q -3.1,2 -12.8,2 -5.5,0 -16.65,-3.8 l -5.7,-2.05 h -7.6 l -5.9,0.5 q -0.95,0.45 -2.6,0.95 l -3.1,0.9 q -2.15,1.1 -5.3,2.2 -0.55,1.45 -3.6,3.85 -4.75,3.7 -10.85,3.7 l -2.15,-0.4 h -0.1 q -3.75,0 -5.3,-2.9 l -0.7,-1.8 m -4.45,15.8 1.2,-5.75 0.45,-0.5 1.15,-1.25 0.85,-0.5 1.25,-0.4 q 1.8,-1.25 4.65,-1.05 l 1.65,0.25 h 0.55 q 7.25,0.05 7.25,2.45 0,0.7 -2.1,2.7 v 0.05 q -0.4,1.4 -1.35,2.95 -2.55,4.35 -7.5,4.35 -3.5,0 -5,-0.8 l -0.3,-0.15 q -1.55,-0.45 -2.35,-1.6 l -0.4,-0.75 m 59.8,-11.6 0.15,-0.7 1.95,0.45 q 0.6,0.4 0.75,1.2 h -2.1 l -0.6,-0.2 -0.15,-0.75 m 8.55,-0.55 0.45,-0.2 q 3,-1.2 5.25,-0.8 2.4,0.4 2.4,2.5 0,1.2 -2.85,2.65 -0.25,2.3 -3.4,5.1 -3.1,2.75 -6.55,3.25 -0.6,1.45 -2.95,1.45 -1.15,0 -4.8,-1.45 Q 8.5,-7.3 7.75,-7.6 L 5.85,-8.3 4.75,-8.7 2.8,-9.15 q -1.3,1 -3.45,2.1 -5.05,2.6 -7.5,2.6 -8.45,0 -13.2,-3.3 -3.6,-2.5 -3.6,-5.1 0,-1.85 1.15,-2.35 l 0.8,0.35 2.9,0.3 h 0.55 0.45 0.4 0.45 q 0.75,-0.15 1.7,-0.6 l 0.85,-0.45 0.75,-0.5 0.7,-0.55 0.15,-0.05 0.95,0.4 h 2.45 l 0.65,-0.6 4.1,0.6 0.05,0.5 0.05,0.1 0.1,0.15 0.95,0.1 1.85,0.1 0.95,0.05 h 2.65 l 0.6,0.95 3.35,-1.5 h 6 q -1.2,0.6 -1.65,1.3 l 0.2,0.2 4,-0.8 0.75,-0.15 0.75,0.65 q -0.3,0.55 -0.3,1.05 l 0.65,0.8 0.1,0.1 0.45,-0.4 0.15,-0.1 3.05,-3.2 0.1,-0.1 2.1,-2.1 0.9,-0.85 M 27.8,-8.1 q 0.45,-0.25 0.75,0.55 Q 31,-9.5 31,-7.1 l -0.65,1.5 -0.7,1.7 q 0,0.85 1.9,3.4 Q 33.4,2 33.4,2.75 L 33.1,3.9 32.9,4.2 29.35,1.7 27.75,0.35 q -1.15,-1.15 -1.6,-2.3 -0.4,-0.9 -0.4,-1.8 v -0.1 q 0.05,-0.75 0.8,-1.8 H 26.6 L 27.85,-7.9 27.8,-8.1 m -45.45,9.95 0.2,0.8 q 0,1.55 -2.6,4.15 -3,3 -6.1,3 -1.4,0 -1.8,-1.1 L -28,8.45 q 1.55,-0.8 3.05,-3.15 1.6,-2.4 1.9,-3.8 0.65,-0.45 0.8,-1.1 h 0.1 l 0.2,0.1 q 1.8,0.85 4.3,1.35 m -9.65,2.75 -3.5,0.1 q -4.8,0 -6.05,-0.75 -0.4,-0.25 -0.4,-1.1 0,-1.25 1.9,-1.95 l 0.6,0.1 2,0.2 q 2.7,0 4.6,-0.7 l 0.2,0.55 q 0.65,0.9 2.55,0.95 l -0.25,0.3 -1.65,2.3 m 64.8,-21.8 q 2.5,0.25 4.3,2.35 1.95,2.3 1.95,5.6 0,1.65 -1.7,3.65 -1.7,1.7 -1.7,1.95 l -0.45,1.4 q -0.7,1.1 -2.15,1.1 -4.1,0 -5.7,-3.9 -0.85,-2 -0.85,-4.2 0,-4.2 1.95,-6.35 1.75,-1.9 4.35,-1.6 m -16.05,16.8 1.25,0.1 q 0.7,0.05 1.25,0.8 l -0.2,0.85 q -0.3,0.6 -0.8,0.6 -1.7,0 -1.85,-1.2 l 0.35,-1.15 m -3.55,12.35 0.25,0.5 q 0,1.05 -0.65,1.45 L 17.15,15.05 19,13.5 q 1.4,-1 2.35,-1.35 L 22.3,12 l 0.05,0.2 -1.1,1.1 -2.1,1.9 -2.15,1 -0.2,-0.45 -0.4,0.65 -0.25,0.1 0.1,-0.2 1.05,-2.3 0.2,-0.7 0.4,-1.35 M 7.2,19.1 7.15,19.05 Q 6.85,18.6 7,18.1 L 7.05,17.7 8.1,17.2 q 1.95,-1 1.95,-1.7 V 15.3 L 11.2,14.4 11.6,14 q -2.35,-0.6 -4.1,-2.1 -2,-1.75 -2,-2.75 0,-1.3 6.35,0.4 L 15,10.5 q 1.9,0.7 2.65,1.25 l -0.3,0.3 -0.9,1.3 -0.45,0.9 -0.9,1.5 -1.05,1.35 q -0.4,0.25 -0.65,0.65 -1.5,1.35 -3.3,1.65 H 8.25 L 7.3,19.05 7.2,19.1 m -27.05,-2 q -2.75,-0.35 -3.7,-1.4 l -0.65,-2.65 0.35,-0.35 0.7,-0.2 1.75,0.6 1.45,0.45 q 16.7,-9.4 16.7,-6.6 0,0.6 -1.2,1.65 L -3.5,8.25 q 4.2,-1.1 7.1,0.5 -1.05,0.9 -5.95,1.85 l -4.75,0.8 q -0.4,0 -0.8,-0.35 L -7.95,11 l -0.8,0.5 -0.5,0.6 -1.05,0.35 q -0.45,0.15 -0.9,0.45 l -1.45,1.2 -1.15,1.45 -0.05,-0.05 -0.75,0.3 q -1.85,1.25 -5.25,1.3 m 34.25,1.7 h 0.1 l 1.8,-0.45 q 0.95,0.5 0.95,1.05 l -0.3,0.9 q -0.4,0.75 -1.25,0.75 -0.85,0 -1.2,-0.8 l -0.15,-0.9 0.05,-0.55 m -40.2,-19.9 0.25,0.05 q 0.6,0 1.05,-0.4 l 1.2,1.15 q -0.25,0.2 -0.65,0.45 l -1.9,0.45 q -0.45,0 -0.95,-0.65 l -0.1,-0.1 0.1,-0.1 1,-0.85 m 12.05,-18 q 0,-0.75 0.2,-0.8 2.7,0.3 2.85,0.6 0.05,0.7 -0.05,0.95 -0.2,0.4 -1.3,0.4 l -1.4,-0.3 q -0.3,-0.25 -0.3,-0.85 m 0.5,36.65 q 0.5,-0.75 2.25,0.3 l -0.2,1 q -0.3,0.5 -1.95,0.4 l -0.3,-0.35 q -0.15,-0.9 0.2,-1.35"
         fill="#a1a4a7"
         fill-rule="evenodd"
         stroke="none"
         id="path7" />
    </g>
    <g
       id="shape1"
       transform="translate(44,9.35)">
      <path
         d="M 22.5,-3.1 Q 21.4,-1 21.15,1.8 V 1.65 q 0,-2.65 1.35,-4.75"
         fill="#939393"
         fill-rule="evenodd"
         stroke="none"
         id="path8" />
      <path
         d="m 22.5,-3.1 q 0.85,-1.7 2.2,-3 3.3,-3.1 7.95,-3.25 4.7,-0.15 7.9,2.9 3.6,3.35 3.6,9.4 0,1.1 -1.45,2.8 -1.5,1.75 -3,2.4 L 37.15,9.1 q -0.9,0.35 -1,1.1 v 1.3 l -0.1,0.6 q 1.1,1 1.5,2.65 0.35,1.2 0.35,5.15 L 37,22.8 q -0.8,1.5 -2,2.25 2.8,3.2 2.8,8.35 v 2.25 q -0.25,2.15 -1.55,2.15 h -72.4 q -1.3,0 -1.5,-2.15 V 33.4 q 0,-5.15 2.75,-8.35 -1.2,-0.75 -1.95,-2.25 l -0.9,-2.9 q 0,-3.95 0.3,-5.15 0.45,-1.65 1.55,-2.65 l -0.15,-0.6 V 10.2 Q -36.15,9.45 -37,9.1 l -2.5,-0.95 q -1.55,-0.65 -3.1,-2.4 l -1.15,-1.8 -0.25,-1 0.25,-2.85 q 0.6,-4.05 3.3,-6.55 3.25,-3.05 7.95,-2.9 4.65,0.15 7.95,3.25 l 1.3,1.55 q 0.95,1.2 1.45,2.7 0.8,2.1 0.8,4.75 l -0.1,1.65 q 0.3,0.7 0.3,2.05 v 1.7 l 1.1,-0.55 Q -15.15,5.6 -8.2,6.45 H 8.35 q 6.95,-0.85 11.5,1.3 l 1.1,0.55 V 6.6 q 0,-1.35 0.3,-2.05 L 21.15,2.9 V 1.8 Q 21.4,-1 22.5,-3.1 m -55.85,1.5 q -1.2,0.85 -1.6,1.7 l -0.15,1.45 q 0,1.2 0.55,1.75 1.15,1.05 4.8,1.3 l 0.1,0.1 0.1,0.2 0.2,0.15 0.1,0.8 0.05,1.3 0.15,2 -0.1,1.05 -0.05,0.2 h 3.2 0.35 l -0.2,-1.9 V 8.35 L -25.9,7.9 q -0.2,-3.05 -0.7,-6 l -0.05,-0.4 q -0.75,-2.6 -4.3,-3.1 h -2.4 m 9.45,0.75 -0.85,-1.75 q -2.45,-4.35 -9,-4.35 -4.2,0 -6.25,4.15 -1.35,2.55 -1.35,4.6 0,1.1 0.45,1.9 l 0.75,0.95 q 0.65,0.55 2.7,1.25 1.8,0.7 2.6,1.5 h 0.1 l 2.05,-0.35 1.15,-0.7 0.4,-0.45 h -0.05 l -2.7,-0.5 q -1.2,-0.5 -1.85,-1.6 l -0.1,-0.1 q -0.7,-1.05 -0.7,-2.1 0,-4.4 4.4,-4.6 1.8,-0.1 3.65,0.8 1.85,0.85 2.25,2.05 l 0.2,0.5 q 1.15,2.3 1.35,7.8 V 8.5 8.7 8.9 9.65 l -0.05,0.75 1.7,-0.05 q 0.5,-7.15 -0.85,-11.2 m 47.4,2.5 q -0.7,3.5 -0.35,8.7 L 24.9,10.4 24.85,9.65 V 8.9 8.7 8.5 8.15 Q 25,2.65 26.2,0.35 l 0.15,-0.5 q 0.45,-1.2 2.3,-2.05 1.9,-0.9 3.65,-0.8 l 0.8,0.1 0.15,-2.1 v -0.25 h 0.3 V -5 l 0.35,2.2 v 0.1 l 0.75,0.25 1.35,-0.9 0.3,0.05 0.1,0.4 q 0,0.65 -1.05,0.9 1.35,1.15 1.35,3.6 L 36.6,2.3 35.95,3.8 Q 34.5,5.9 31.3,5.9 h -0.05 l 0.4,0.4 0.05,0.05 q 0.55,0.5 1.3,0.7 l 1.95,0.35 0.9,-0.7 1.7,-0.8 2.7,-1.25 Q 41.35,3.8 41.45,2.1 V 1.8 q 0,-2.05 -1.3,-4.6 -2.05,-4.15 -6.3,-4.15 -6.5,0 -8.95,4.35 -1,1.7 -1.4,4.25 m 10,-3.25 h -2.4 q -3.6,0.5 -4.3,3.1 v 0.4 q -0.55,2.95 -0.75,6 L 26,8.35 V 8.5 l -0.25,1.9 h 0.4 3 0.2 Q 29.2,9.85 29.2,9.15 L 29.3,8 29.4,5.85 29.5,5.05 29.7,4.9 29.8,4.7 29.9,4.6 Q 33.55,4.35 34.7,3.3 35.3,2.75 35.3,1.55 L 35.05,0.1 Q 34.75,-0.75 33.5,-1.6 M -34.6,20 q 0.4,1.1 1.35,2.2 l 1.45,1.95 1.95,-0.05 h 6.35 l -0.15,-0.2 -0.7,-1.6 0.05,-0.45 0.1,-0.35 h 0.25 q 0,0.55 1.2,1.75 l 0.75,0.9 6.7,0.05 0.45,-1.55 0.8,-1.6 q 0.4,0.1 0.4,0.6 l -0.65,1.75 -0.35,0.8 h 0.15 l 0.4,-0.45 q 0.55,-0.6 1.4,-0.75 l 0.1,0.05 v 0.3 l -0.45,0.85 h 26.2 L 12.8,23.35 v -0.3 L 12.85,23 q 0.8,0.15 1.45,0.75 l 0.3,0.45 h 0.2 l -0.4,-0.8 -0.6,-1.75 q 0,-0.5 0.4,-0.6 l 0.75,1.6 0.55,1.55 6.6,-0.05 0.85,-0.9 q 1.15,-1.2 1.15,-1.75 h 0.2 l 0.1,0.35 0.05,0.45 -0.7,1.6 -0.1,0.2 H 30 l 1.9,0.05 1.5,-1.95 q 1.9,-2.25 1.9,-4.25 L 35.25,17.1 34.9,15.1 34.4,14 34.3,13.7 34.05,13.4 33.5,12.85 33.25,12.75 H 30.2 7.55 L 7.8,13.2 8.3,14.85 V 15.1 L 8.25,15.15 7.85,15.35 7.75,15.1 7.2,13.65 6.9,12.85 6.5,15.1 H 6.3 L 6.25,15 6.2,14.55 6.25,13.95 6.3,12.75 h -36.4 l -1.5,0.1 h -0.6 -0.2 -0.25 L -33,12.75 h -0.1 l -0.25,0.1 v 0.05 l -0.55,0.5 -0.2,0.3 -0.4,0.75 -0.05,0.35 -0.4,1.1 -0.1,0.5 -0.05,1.55 v 0.9 L -34.6,20 M 31.65,8.45 30.7,7.6 l 0.1,2.15 -0.05,0.6 3.05,0.2 0.05,-0.95 q -1.1,-0.15 -2.2,-1.15 m 2.5,0.4 0.2,-0.65 Q 33,8.05 31.65,7.2 l -0.2,-0.05 0.2,0.25 q 1.1,1.25 2.5,1.45 m -18,1.45 h 4.6 L 19.3,9.25 Q 16.15,7.65 8.1,8.15 H -1.65 -2.55 -8 q -8,-0.5 -11.2,1.1 l -1.4,1.05 h 3.25 l 15.25,0.05 h 2.15 2.2 0.3 l 13.6,-0.05 m -14,19.15 0.1,1.1 q 0,2.35 -2,2.15 l -0.95,-0.25 -0.55,0.7 -0.15,-1.4 -0.4,-1.5 q -0.35,-0.7 -1.1,-1.15 l 0.1,-0.05 1.3,-0.05 0.3,0.4 0.3,-0.15 0.8,-0.25 1,-0.15 0.45,0.1 0.3,-0.5 Q 2.2,27.7 2.85,27.95 L 3,28.25 2.4,29 2.3,29.25 2.15,29.45 m -1,1.25 -0.1,-0.7 -0.7,-0.1 q -1.05,0.25 -1.1,0.55 l 0.05,0.6 0.85,0.4 q 1,0.1 1,-0.75 M 18.2,28.85 q 0.6,0.05 1.05,0.35 1,0.6 1,2.4 0,0.35 -0.95,0.75 l -1.75,0.35 q -1,0 -1.25,-0.6 -0.15,-0.25 -0.15,-1.1 0,-1.35 0.75,-1.85 0.5,-0.4 1.3,-0.3 m 0.05,1.3 Q 17.3,30.05 17.3,30.9 l 0.1,0.65 0.7,0.1 q 1.15,-0.25 1.15,-0.65 0,-0.8 -1,-0.85 M -33.1,27.2 q -1.1,1.8 -1.65,3.9 v 4.1 l 35.7,0.25 h 1.3 L 34.9,35.2 V 31.1 Q 34.3,28.9 33.25,27.05 L 33.15,27 32.3,25.5 V 25.45 L 32.2,25.5 30,25.6 h -3.75 l 0.2,1.2 v 0.5 l -0.05,0.5 h -0.3 l -0.2,-0.5 -0.55,-1.7 -33.15,-0.05 -0.45,0.6 q -0.4,0.6 -0.15,0.9 V 27.2 L -9,27.3 -9.15,26.75 q 0,-0.6 0.4,-1.2 l -21.1,0.05 -2.3,-0.15 -0.85,1.55 -0.1,0.2 m 1.65,-18.75 q -1.2,1 -2.3,1.15 l 0.1,0.95 3,-0.2 -0.05,-0.6 0.1,-2.15 -0.85,0.85 m 0,-1.25 q -1.4,0.85 -2.8,1 L -34,8.85 q 1.35,-0.2 2.55,-1.45 l 0.1,-0.25 -0.1,0.05 m 13.3,22.95 q -1,0.05 -1,0.85 0,0.4 1.2,0.65 l 0.7,-0.1 0.1,-0.65 q 0,-0.85 -1,-0.75 m 2.7,0.2 0.3,-0.15 -0.2,0.5 -0.7,1.4 -0.15,0.3 -0.85,1.3 -0.3,-0.65 V 32.7 h -0.05 l -0.85,-0.1 -0.95,-0.25 q -0.9,-0.4 -0.9,-0.75 0,-1.9 1.1,-2.5 l 0.9,-0.25 q 1.05,-0.1 1.55,0.45 0.4,0.45 0.5,1.4 0.3,-0.25 0.6,-0.35"
         fill="#6b6b6b"
         fill-rule="evenodd"
         stroke="none"
         id="path9" />
      <path
         d="m -33.35,-1.6 h 2.4 q 3.55,0.5 4.3,3.1 l 0.05,0.4 q 0.5,2.95 0.7,6 l 0.05,0.45 V 8.5 l 0.2,1.9 H -26 -29.2 l 0.05,-0.2 0.1,-1.05 -0.15,-2 -0.05,-1.3 -0.1,-0.8 -0.2,-0.15 -0.1,-0.2 -0.1,-0.1 Q -33.4,4.35 -34.55,3.3 -35.1,2.75 -35.1,1.55 l 0.15,-1.45 q 0.4,-0.85 1.6,-1.7 m -7.55,5.3 q 0.65,-0.1 0.95,-1.2 l 0.85,-2.75 q 1.55,-3.95 7.2,-3.95 4.35,0 6.15,1.65 l 1.5,1.5 0.35,0.2 q 1.35,4.05 0.85,11.2 l -1.7,0.05 0.05,-0.75 V 8.9 8.7 8.5 8.15 q -0.2,-5.5 -1.35,-7.8 l -0.2,-0.5 q -0.4,-1.2 -2.25,-2.05 -1.85,-0.9 -3.65,-0.8 -4.4,0.2 -4.4,4.6 0,1.05 0.7,2.1 l -0.25,0.4 q 0,0.55 1.15,1.65 l 0.55,0.5 q 0.8,0.6 1.7,0.8 l -2.05,0.35 h -0.1 q -0.8,-0.8 -2.6,-1.5 -2.05,-0.7 -2.7,-1.25 L -40.9,3.7 M 33.25,-5 33.1,-2.9 32.3,-3 q -1.75,-0.1 -3.65,0.8 -1.85,0.85 -2.3,2.05 L 26.2,0.35 Q 25,2.65 24.85,8.15 V 8.5 8.7 8.9 9.65 L 24.9,10.4 23.15,10.35 Q 22.8,5.15 23.5,1.65 l 0.55,-0.8 2.1,-2.85 q 2.55,-2.9 7.1,-3 m 8.2,7.1 q -0.1,1.7 -1.2,2.55 L 37.55,5.9 35.85,6.7 34.95,7.4 33,7.05 h 0.1 q 1.35,0 2.3,-1 L 36.05,4.95 36.8,2.2 36.6,2.3 36.7,1.6 q 0,-2.45 -1.35,-3.6 1.05,-0.25 1.05,-0.9 L 36.3,-3.3 36,-3.35 34.65,-2.45 33.9,-2.7 V -2.8 L 33.55,-5 h 0.15 q 4.65,0 6,3.55 l 0.7,2.4 q 0.35,1.15 0.95,1.15 h 0.1 M 33.5,-1.6 q 1.25,0.85 1.55,1.7 l 0.25,1.45 q 0,1.2 -0.6,1.75 -1.15,1.05 -4.8,1.3 L 29.8,4.7 29.7,4.9 29.5,5.05 29.4,5.85 29.3,8 29.2,9.15 q 0,0.7 0.15,1.25 h -0.2 -3 -0.4 L 26,8.5 V 8.35 L 26.05,7.9 q 0.2,-3.05 0.75,-6 V 1.5 q 0.7,-2.6 4.3,-3.1 h 2.4 m 0.65,10.45 q -1.4,-0.2 -2.5,-1.45 l -0.2,-0.25 0.2,0.05 q 1.35,0.85 2.7,1 l -0.2,0.65 m -2.5,-0.4 q 1.1,1 2.2,1.15 l -0.05,0.95 -3.05,-0.2 0.05,-0.6 -0.1,-2.15 0.95,0.85 m 3.6,8.65 0.05,0.85 q 0,2 -1.9,4.25 L 31.9,24.15 30,24.1 h -6.35 l 0.1,-0.2 0.7,-1.6 -0.05,-0.45 -0.1,-0.35 h -0.2 q 0,0.55 -1.15,1.75 l -0.85,0.9 -6.6,0.05 -0.55,-1.55 -0.75,-1.6 q -0.4,0.1 -0.4,0.6 l 0.6,1.75 0.4,0.8 H 14.6 L 14.3,23.75 Q 13.65,23.15 12.85,23 l -0.05,0.05 v 0.3 l 0.35,0.85 h -26.2 l 0.45,-0.85 v -0.3 L -12.7,23 q -0.85,0.15 -1.4,0.75 l -0.4,0.45 h -0.15 l 0.35,-0.8 0.65,-1.75 q 0,-0.5 -0.4,-0.6 l -0.8,1.6 -0.45,1.55 -6.7,-0.05 -0.75,-0.9 q -1.2,-1.2 -1.2,-1.75 h -0.25 l -0.1,0.35 -0.05,0.45 0.7,1.6 0.15,0.2 h -6.35 l -1.95,0.05 -1.45,-1.95 Q -34.2,21.1 -34.6,20 l 0.15,-1.3 0.15,-1.1 1.15,-1.65 0.75,-1.1 4.95,0.25 H 6.3 6.5 7.75 l 0.1,0.25 0.4,-0.2 0.05,-0.05 h 25.15 l 0.95,1 0.85,1 m -52.6,-6.8 0.3,-0.05 L -15,9.8 -3.4,9.9 6.25,9.6 7.2,9.5 h 6 l 2.95,0.8 -13.6,0.05 H 2.25 0.05 -2.1 L -17.35,10.3 m 35.6,19.85 q 1,0.05 1,0.85 0,0.4 -1.15,0.65 l -0.7,-0.1 -0.1,-0.65 q 0,-0.85 0.95,-0.75 m -0.05,-1.3 q -0.8,-0.1 -1.3,0.3 -0.75,0.5 -0.75,1.85 0,0.85 0.15,1.1 0.25,0.6 1.25,0.6 l 1.75,-0.35 q 0.95,-0.4 0.95,-0.75 0,-1.8 -1,-2.4 Q 18.8,28.9 18.2,28.85 M 1.15,30.7 q 0,0.85 -1,0.75 l -0.85,-0.4 -0.05,-0.6 q 0.05,-0.3 1.1,-0.55 l 0.7,0.1 0.1,0.7 m 1,-1.25 L 2.3,29.25 2.4,29 3,28.25 2.85,27.95 Q 2.2,27.7 1.65,28.45 l -0.3,0.5 -0.45,-0.1 -1,0.15 -0.8,0.25 -0.3,0.15 -0.3,-0.4 -1.3,0.05 -0.1,0.05 q 0.75,0.45 1.1,1.15 l 0.4,1.5 0.15,1.4 0.55,-0.7 0.95,0.25 q 2,0.2 2,-2.15 l -0.1,-1.1 m 31.1,-2.4 q 1.05,1.85 1.65,4.05 v 4.1 L 2.25,35.45 h -1.3 l -35.7,-0.25 v -4.1 q 0.55,-2.1 1.65,-3.9 l 0.7,0.3 H 14 l 11.9,-0.2 0.2,0.5 h 0.3 l 0.05,-0.5 5.75,-0.15 1.05,-0.1 m -64.7,-19.85 0.1,-0.05 -0.1,0.25 Q -32.65,8.65 -34,8.85 L -34.25,8.2 q 1.4,-0.15 2.8,-1 m 0,1.25 0.85,-0.85 -0.1,2.15 0.05,0.6 -3,0.2 -0.1,-0.95 q 1.1,-0.15 2.3,-1.15 m 16,21.9 q -0.3,0.1 -0.6,0.35 -0.1,-0.95 -0.5,-1.4 -0.5,-0.55 -1.55,-0.45 L -19,29.1 q -1.1,0.6 -1.1,2.5 0,0.35 0.9,0.75 l 0.95,0.25 0.85,0.1 h 0.05 v 0.35 l 0.3,0.65 0.85,-1.3 0.15,-0.3 0.7,-1.4 0.2,-0.5 -0.3,0.15 m -2.7,-0.2 q 1,-0.1 1,0.75 l -0.1,0.65 -0.7,0.1 q -1.2,-0.25 -1.2,-0.65 0,-0.8 1,-0.85"
         fill="#70767b"
         fill-rule="evenodd"
         stroke="none"
         id="path10" />
      <path
         d="m -40.9,3.7 q -0.45,-0.8 -0.45,-1.9 0,-2.05 1.35,-4.6 2.05,-4.15 6.25,-4.15 6.55,0 9,4.35 l 0.85,1.75 -0.35,-0.2 -1.5,-1.5 q -1.8,-1.65 -6.15,-1.65 -5.65,0 -7.2,3.95 l -0.85,2.75 q -0.3,1.1 -0.95,1.2 m 5.05,0 0.1,0.1 q 0.65,1.1 1.85,1.6 l 2.7,0.5 h 0.05 l -0.4,0.45 -1.15,0.7 q -0.9,-0.2 -1.7,-0.8 l -0.55,-0.5 Q -36.1,4.65 -36.1,4.1 l 0.25,-0.4 M 23.5,1.65 q 0.4,-2.55 1.4,-4.25 2.45,-4.35 8.95,-4.35 4.25,0 6.3,4.15 1.3,2.55 1.3,4.6 v 0.3 h -0.1 q -0.6,0 -0.95,-1.15 l -0.7,-2.4 Q 38.35,-5 33.7,-5 h -0.15 v -0.25 h -0.3 V -5 q -4.55,0.1 -7.1,3 l -2.1,2.85 -0.55,0.8 M 33,7.05 Q 32.25,6.85 31.7,6.35 L 31.65,6.3 31.25,5.9 h 0.05 q 3.2,0 4.65,-2.1 L 36.6,2.3 36.8,2.2 36.05,4.95 35.4,6.05 q -0.95,1 -2.3,1 H 33 M -34.6,20 -35.1,18.85 v -0.9 l 0.05,-1.55 0.1,-0.5 0.4,-1.1 0.05,-0.35 0.4,-0.75 0.2,-0.3 0.55,-0.5 v -0.05 l 0.25,-0.1 h 0.1 l 0.35,0.1 h 0.25 0.2 0.6 l 1.5,-0.1 H 6.3 L 6.25,13.95 6.2,14.55 6.25,15 6.3,15.1 h -33.75 l -4.95,-0.25 -0.75,1.1 -1.15,1.65 -0.15,1.1 -0.15,1.3 m 41.1,-4.9 0.4,-2.25 0.3,0.8 0.55,1.45 H 6.5 m 1.8,0 V 14.85 L 7.8,13.2 7.55,12.75 h 22.65 3.05 l 0.25,0.1 0.55,0.55 0.25,0.3 0.1,0.3 0.5,1.1 0.35,2 -0.85,-1 -0.95,-1 H 8.3 M 16.15,10.3 13.2,9.5 h -6 L 6.25,9.6 -3.4,9.9 -15,9.8 l -2.05,0.45 -0.3,0.05 h -3.25 l 1.4,-1.05 Q -16,7.65 -8,8.15 h 5.45 0.9 9.75 q 8.05,-0.5 11.2,1.1 l 1.45,1.05 h -4.6 m 17.1,16.75 -1.05,0.1 -5.75,0.15 v -0.5 l -0.2,-1.2 H 30 l 2.2,-0.1 h 0.1 l 0.85,1.5 0.1,0.05 M 25.9,27.3 14,27.5 h -46.4 l -0.7,-0.3 0.1,-0.2 0.85,-1.55 2.3,0.15 21.1,-0.05 q -0.4,0.6 -0.4,1.2 L -9,27.3 -8.4,27.2 v -0.15 q -0.25,-0.3 0.15,-0.9 l 0.45,-0.6 33.15,0.05 0.55,1.7"
         fill="#7e868c"
         fill-rule="evenodd"
         stroke="none"
         id="path11" />
    </g>
  </defs>
</svg>
