<?xml version="1.0" encoding="UTF-8" standalone="no"?>
<svg
   ffdec:objectType="frame"
   height="74.695145"
   width="57.284084"
   version="1.1"
   id="svg22"
   sodipodi:docname="1.svg"
   xmlns:inkscape="http://www.inkscape.org/namespaces/inkscape"
   xmlns:sodipodi="http://sodipodi.sourceforge.net/DTD/sodipodi-0.dtd"
   xmlns:xlink="http://www.w3.org/1999/xlink"
   xmlns="http://www.w3.org/2000/svg"
   xmlns:svg="http://www.w3.org/2000/svg"
   xmlns:ffdec="https://www.free-decompiler.com/flash">
  <sodipodi:namedview
     id="namedview22"
     pagecolor="#ffffff"
     bordercolor="#000000"
     borderopacity="0.25"
     inkscape:showpageshadow="2"
     inkscape:pageopacity="0.0"
     inkscape:pagecheckerboard="0"
     inkscape:deskcolor="#d1d1d1"
     fit-margin-top="5"
     fit-margin-left="5"
     fit-margin-right="5"
     fit-margin-bottom="5" />
  <g
     transform="translate(28.584083,26.7)"
     id="g7">
    <use
       ffdec:characterId="649"
       height="12.35"
       transform="matrix(-0.5,0.866,-0.866,-0.5,-0.5956,14.9005)"
       width="28.6"
       xlink:href="#sprite0"
       id="use1" />
    <use
       ffdec:characterId="649"
       height="12.35"
       transform="matrix(-0.9659,0.2588,0.2588,0.9659,-1.6085,20.3366)"
       width="28.6"
       xlink:href="#sprite0"
       id="use2" />
    <use
       ffdec:characterId="664"
       height="13.2"
       transform="matrix(1,0,0,-1,6.95,37.8)"
       width="21.75"
       xlink:href="#sprite1"
       id="use3" />
    <use
       ffdec:characterId="664"
       height="13.2"
       transform="matrix(0.7071,-0.7071,0.7071,0.7071,-28.9106,39.8)"
       width="21.75"
       xlink:href="#sprite1"
       id="use4" />
    <use
       ffdec:characterId="658"
       height="28.299999"
       transform="matrix(0.9654,-0.2586,-0.2318,-0.865,-8.7502,51.8427)"
       width="37.799999"
       xlink:href="#sprite2"
       id="use5" />
    <use
       ffdec:characterId="651"
       height="12.45"
       transform="matrix(0.9659,0.2588,-0.2588,0.9659,-16.0804,32.2315)"
       width="19.1"
       xlink:href="#sprite3"
       id="use6" />
    <use
       ffdec:characterId="686"
       height="53.700001"
       transform="translate(-24.25,-26.8)"
       width="48.599998"
       xlink:href="#shape4"
       id="use7" />
  </g>
  <defs
     id="defs22">
    <g
       id="sprite0"
       transform="translate(0.75,0.9)">
      <use
         ffdec:characterId="648"
         height="12.35"
         transform="translate(-0.75,-0.9)"
         width="28.6"
         xlink:href="#shape0"
         id="use8" />
    </g>
    <g
       id="shape0"
       transform="translate(0.75,0.9)">
      <path
         d="m 20.9,4.2 q -2.2,2.4 -5.05,2.7 h -4.2 L 8.6,5.5 Q 6,4.2 4.9,4.2 q -0.95,0 -1.95,0.5 -0.9,0.45 -0.9,0.65 0,0.5 0.4,1.1 Q 2.9,7.2 3.6,7.2 4.1,7.2 4.95,6.55 l 1.2,-0.7 q 0.8,0 3.4,1.35 2.55,1.35 4.95,1.35 3.55,0 6.8,-2.6 3,-2.85 4.05,-3.4 Q 22.8,2.1 20.9,4.2 m 6.2,-2 q 0,1.45 -0.85,1.95 Q 24.3,5.3 22.9,6.75 L 20.4,9.2 q -2.25,1.5 -5.85,1.5 -3.05,0 -5.5,-1.3 L 6.4,8.1 5.55,8.75 q -0.7,0.6 -1.65,0.6 -2.55,0 -3.45,-2 L 0,5.35 Q 0,4.3 0.7,3.55 2,2.1 5.35,2.1 q 1.95,0 3.7,1.1 1.75,1.05 4.75,1.05 3.55,0 5.75,-1.55 L 21.4,1.05 q 0.4,-0.25 1.55,-0.8 l 1.95,-0.35 1.5,0.55 q 0.7,0.4 0.7,1.75"
         fill="#6b6b6b"
         fill-rule="evenodd"
         stroke="none"
         id="path8" />
      <path
         d="M 20.9,4.2 Q 22.8,2.1 25.35,2.55 24.3,3.1 21.3,5.95 18.05,8.55 14.5,8.55 12.1,8.55 9.55,7.2 6.95,5.85 6.15,5.85 l -1.2,0.7 Q 4.1,7.2 3.6,7.2 2.9,7.2 2.45,6.45 q -0.4,-0.6 -0.4,-1.1 0,-0.2 0.9,-0.65 1,-0.5 1.95,-0.5 1.1,0 3.7,1.3 l 3.05,1.4 h 4.2 Q 18.7,6.6 20.9,4.2"
         fill="#dfdfdf"
         fill-rule="evenodd"
         stroke="none"
         id="path9" />
      <path
         d="m 27.1,2.2 q 0,1.45 -0.85,1.95 Q 24.3,5.3 22.9,6.75 L 20.4,9.2 q -2.25,1.5 -5.85,1.5 -3.05,0 -5.5,-1.3 L 6.4,8.1 5.55,8.75 q -0.7,0.6 -1.65,0.6 -2.55,0 -3.45,-2 L 0,5.35 Q 0,4.3 0.7,3.55 2,2.1 5.35,2.1 q 1.95,0 3.7,1.1 1.75,1.05 4.75,1.05 3.55,0 5.75,-1.55 L 21.4,1.05 q 0.4,-0.25 1.55,-0.8 l 1.95,-0.35 1.5,0.55 q 0.7,0.4 0.7,1.75 z"
         fill="none"
         stroke="#6b6b6b"
         stroke-linecap="round"
         stroke-linejoin="round"
         stroke-width="1.5"
         id="path10" />
    </g>
    <g
       id="sprite1"
       transform="translate(0.75,0.75)">
      <use
         ffdec:characterId="663"
         height="13.2"
         transform="translate(-0.75,-0.75)"
         width="21.75"
         xlink:href="#shape1"
         id="use10" />
    </g>
    <g
       id="shape1"
       transform="translate(0.75,0.75)">
      <path
         d="m 16.5,2.25 q 1.35,0 1.6,1.1 L 18.15,3.6 18.1,3.95 q -0.2,0.6 -1.25,0.8 -1.25,0.25 -1.25,0.9 0,0.55 0.3,0.75 l 0.45,0.15 0.25,0.15 q 0.85,0.45 0.85,1.25 0,1.8 -2.15,1.8 -1.7,0 -2,-1.7 Q 13,6.3 12.3,6.3 L 11.85,6.4 10.8,6.2 V 6.15 H 10.2 10.05 9.45 V 6.2 L 8.4,6.4 7.95,6.3 q -0.7,0 -1,1.75 -0.3,1.7 -2,1.7 -2.15,0 -2.15,-1.8 0,-0.8 0.85,-1.25 L 3.9,6.55 4.35,6.4 Q 4.65,6.2 4.65,5.65 4.65,5 3.4,4.75 2.1,4.5 2.1,3.6 2.25,2.25 3.75,2.25 q 1.55,0 2.15,0.9 0.6,0.9 1.15,0.9 l 3.1,-0.2 3.05,0.2 q 0.55,0 1.15,-0.9 0.6,-0.9 2.15,-0.9"
         fill="#ffffff"
         fill-rule="evenodd"
         stroke="none"
         id="path11" />
      <path
         d="m 19.45,1.35 q 0.8,0.9 0.8,1.65 l -0.2,1.8 q -0.35,1.05 -1.3,1.5 0.6,1 0.6,2.75 0,0.65 -0.7,1.4 l -0.55,0.5 Q 17,11.7 15.15,11.7 13.05,11.7 12.05,9.95 11.5,8.95 11.4,7.9 L 10.5,7.95 H 10.1 9.75 9.45 L 8.85,7.9 8.2,9.95 Q 7.2,11.7 5.1,11.7 2.7,11.7 1.6,10.45 0.9,9.7 0.9,9.05 0.9,7.3 1.5,6.3 0.55,5.85 0.2,4.8 L 0,3 Q 0,2.25 0.8,1.35 1.9,0 3.95,0 6,0 7.15,1.05 7.85,1.75 7.95,2.4 L 10.15,2.45 12.3,2.4 Q 12.4,1.75 13.1,1.05 14.25,0 16.3,0 q 1,0 1.8,0.35 0.8,0.3 1.35,1 m -2.95,0.9 q -1.55,0 -2.15,0.9 -0.6,0.9 -1.15,0.9 l -3.05,-0.2 -3.1,0.2 Q 6.5,4.05 5.9,3.15 5.3,2.25 3.75,2.25 2.25,2.25 2.1,3.6 2.1,4.5 3.4,4.75 4.65,5 4.65,5.65 4.65,6.2 4.35,6.4 L 3.9,6.55 3.65,6.7 Q 2.8,7.15 2.8,7.95 q 0,1.8 2.15,1.8 1.7,0 2,-1.7 0.3,-1.75 1,-1.75 L 8.4,6.4 9.45,6.2 V 6.15 h 0.6 0.15 0.6 V 6.2 l 1.05,0.2 0.45,-0.1 q 0.7,0 1,1.75 0.3,1.7 2,1.7 2.15,0 2.15,-1.8 0,-0.8 -0.85,-1.25 L 16.35,6.55 15.9,6.4 Q 15.6,6.2 15.6,5.65 15.6,5 16.85,4.75 17.9,4.55 18.1,3.95 L 18.15,3.6 18.1,3.35 q -0.25,-1.1 -1.6,-1.1"
         fill="#6b6b6b"
         fill-rule="evenodd"
         stroke="none"
         id="path12" />
      <path
         d="m 19.45,1.35 q 0.8,0.9 0.8,1.65 l -0.2,1.8 q -0.35,1.05 -1.3,1.5 0.6,1 0.6,2.75 0,0.65 -0.7,1.4 l -0.55,0.5 Q 17,11.7 15.15,11.7 13.05,11.7 12.05,9.95 11.5,8.95 11.4,7.9 L 10.5,7.95 H 10.1 9.75 9.45 L 8.85,7.9 8.2,9.95 Q 7.2,11.7 5.1,11.7 2.7,11.7 1.6,10.45 0.9,9.7 0.9,9.05 0.9,7.3 1.5,6.3 0.55,5.85 0.2,4.8 L 0,3 Q 0,2.25 0.8,1.35 1.9,0 3.95,0 6,0 7.15,1.05 7.85,1.75 7.95,2.4 L 10.15,2.45 12.3,2.4 Q 12.4,1.75 13.1,1.05 14.25,0 16.3,0 q 1,0 1.8,0.35 0.8,0.3 1.35,1 z"
         fill="none"
         stroke="#6b6b6b"
         stroke-linecap="round"
         stroke-linejoin="round"
         stroke-width="1.5"
         id="path13" />
    </g>
    <g
       id="sprite2"
       transform="translate(0.75,0.75)">
      <use
         ffdec:characterId="657"
         height="28.299999"
         transform="translate(-0.75,-0.75)"
         width="37.799999"
         xlink:href="#shape2"
         id="use13" />
    </g>
    <g
       id="shape2"
       transform="translate(0.75,0.75)">
      <path
         d="M 34.9,9.75 Q 34.4,10.9 33,10.9 l -1.85,-0.3 -0.25,0.25 q -0.75,0.9 -0.75,1.8 0,0.75 0.6,1.3 0.6,0.6 0.6,1 l 0.35,-0.15 1.6,-0.6 0.25,0.05 0.8,-0.2 Q 36,13.85 36,15.5 l -0.45,1.25 0.35,1.15 q 0.4,1.15 0.4,2.05 0,1.35 -0.9,2.35 -1.45,1.55 -4.7,1.55 -1.1,0 -3.85,-1.1 L 24.9,21.9 q 0.45,1.05 0.45,2.15 l -0.4,1.4 q -0.6,1.35 -1.85,1.35 -0.9,0 -2.15,-1.6 l -0.5,-0.65 q -0.5,0.75 -2,0.75 h -0.3 -0.3 q -1.5,0 -2,-0.75 l -0.5,0.65 q -1.25,1.6 -2.15,1.6 -1.25,0 -1.85,-1.35 l -0.4,-1.4 q 0,-1.1 0.45,-2.15 L 9.45,22.75 Q 6.7,23.85 5.6,23.85 2.35,23.85 0.9,22.3 0,21.3 0,19.95 0,19.05 0.4,17.9 L 0.75,16.75 0.3,15.5 q 0,-1.65 1.65,-1.45 l 0.8,0.2 0.25,-0.05 1.6,0.6 0.35,0.15 q 0,-0.4 0.6,-1 0.6,-0.55 0.6,-1.3 0,-0.9 -0.75,-1.8 L 5.15,10.6 3.3,10.9 Q 1.9,10.9 1.4,9.75 1.15,9.2 1.15,8.45 q 0,-4.5 6.9,-6.6 l 0.4,-0.1 3.05,-0.85 2.6,-0.45 2.7,-0.35 4.6,0.25 3.4,0.55 3.05,0.85 0.4,0.1 q 6.9,2.1 6.9,6.6 L 34.9,9.75 M 30.85,7.95 32.7,8.5 Q 31.8,5.7 29.6,4.75 L 24.7,3.25 21.55,2.3 20.2,2.25 18.15,1.95 16.1,2.25 14.75,2.3 11.6,3.25 6.7,4.75 Q 4.5,5.7 3.6,8.5 L 5.45,7.95 q 1.8,-0.65 3.5,-0.65 2.6,0 3.7,2.65 0.55,1.35 0.55,2.65 0,1.4 -1.35,3 -1.9,2.25 -5.1,2.25 -2.25,0 -3.7,-1.15 L 2.9,16.6 2.85,16.8 2.55,18.15 q -0.3,0.85 -0.3,1.45 0,0.65 0.95,1.3 1.05,0.65 2.4,0.65 1.5,0 3,-0.8 1.5,-0.85 2.2,-0.85 l 1,0.15 q 0.35,-0.7 1.65,-0.7 1.65,0 2.3,1.25 l 0.15,0.35 0.7,-0.3 1.55,-0.1 1.55,0.1 0.7,0.3 0.15,-0.35 q 0.65,-1.25 2.3,-1.25 1.3,0 1.65,0.7 l 1,-0.15 q 0.7,0 2.2,0.85 1.5,0.8 3,0.8 1.35,0 2.4,-0.65 0.95,-0.65 0.95,-1.3 l -0.3,-1.45 q -0.3,-0.85 -0.3,-1.35 l -0.05,-0.2 -0.15,0.1 q -1.45,1.15 -3.7,1.15 -3.2,0 -5.1,-2.25 -1.35,-1.6 -1.35,-3 0,-1.3 0.55,-2.65 1.1,-2.65 3.7,-2.65 1.7,0 3.5,0.65 M 22.8,15.7 q -1.15,3.75 -4.05,3.75 l -0.6,-0.15 -0.6,0.15 q -2.9,0 -4.05,-3.75 0,-1.6 1.2,-2.6 1.5,-1.2 3.45,1.2 1.95,-2.4 3.45,-1.2 1.2,1 1.2,2.6 m 0.6,5.4 V 20.55 L 22.7,20.4 q -1.2,0 -1.65,1.15 l 0.25,0.8 -0.15,0.4 0.75,1 0.9,1.55 0.9,-0.75 0.3,-0.6 -0.3,-1.35 -0.3,-1.5 m -10.5,0 -0.3,1.5 -0.3,1.35 0.3,0.6 0.9,0.75 0.9,-1.55 0.75,-1 L 15,22.35 Q 15,21.9 15.25,21.55 14.8,20.4 13.6,20.4 l -0.7,0.15 v 0.55 m 3.4,1.55 0.1,0.1 0.05,0.35 -0.05,0.3 q 0.25,0.7 1.4,0.7 h 0.15 l -0.1,-0.75 0.1,-2.1 q -1.25,0 -1.65,0.75 l -0.1,0.2 v 0.25 l 0.1,0.2 m 3.7,0 0.1,-0.2 V 22.2 L 20,22 q -0.4,-0.75 -1.65,-0.75 l 0.1,1.25 v 1.6 h 0.05 q 1.15,0 1.4,-0.7 l -0.05,-0.3 0.05,-0.35 0.1,-0.1"
         fill="#6b6b6b"
         fill-rule="evenodd"
         stroke="none"
         id="path14" />
      <path
         d="m 30.85,7.95 q -1.8,-0.65 -3.5,-0.65 -2.6,0 -3.7,2.65 -0.55,1.35 -0.55,2.65 0,1.4 1.35,3 1.9,2.25 5.1,2.25 2.25,0 3.7,-1.15 l 0.15,-0.1 0.05,0.2 q 0,0.5 0.3,1.35 l 0.3,1.45 q 0,0.65 -0.95,1.3 -1.05,0.65 -2.4,0.65 -1.5,0 -3,-0.8 -1.5,-0.85 -2.2,-0.85 l -1,0.15 q -0.35,-0.7 -1.65,-0.7 -1.65,0 -2.3,1.25 l -0.15,0.35 -0.7,-0.3 -1.55,-0.1 -1.55,0.1 -0.7,0.3 -0.15,-0.35 q -0.65,-1.25 -2.3,-1.25 -1.3,0 -1.65,0.7 l -1,-0.15 q -0.7,0 -2.2,0.85 -1.5,0.8 -3,0.8 -1.35,0 -2.4,-0.65 -0.95,-0.65 -0.95,-1.3 0,-0.6 0.3,-1.45 l 0.3,-1.35 0.05,-0.2 0.15,0.1 q 1.45,1.15 3.7,1.15 3.2,0 5.1,-2.25 1.35,-1.6 1.35,-3 0,-1.3 -0.55,-2.65 -1.1,-2.65 -3.7,-2.65 -1.7,0 -3.5,0.65 L 3.6,8.5 Q 4.5,5.7 6.7,4.75 l 4.9,-1.5 3.15,-0.95 1.35,-0.05 2.05,-0.3 2.05,0.3 1.35,0.05 3.15,0.95 4.9,1.5 Q 31.8,5.7 32.7,8.5 L 30.85,7.95 M 22.8,15.7 q 0,-1.6 -1.2,-2.6 -1.5,-1.2 -3.45,1.2 -1.95,-2.4 -3.45,-1.2 -1.2,1 -1.2,2.6 1.15,3.75 4.05,3.75 l 0.6,-0.15 0.6,0.15 q 2.9,0 4.05,-3.75 m 0.6,5.4 0.3,1.5 0.3,1.35 -0.3,0.6 -0.9,0.75 -0.9,-1.55 -0.75,-1 0.15,-0.4 -0.25,-0.8 Q 21.5,20.4 22.7,20.4 l 0.7,0.15 v 0.55 m -7.1,1.55 -0.1,-0.2 V 22.2 L 16.3,22 q 0.4,-0.75 1.65,-0.75 l -0.1,2.1 0.1,0.75 H 17.8 q -1.15,0 -1.4,-0.7 l 0.05,-0.3 -0.05,-0.35 -0.1,-0.1 M 12.9,21.1 v -0.55 l 0.7,-0.15 q 1.2,0 1.65,1.15 Q 15,21.9 15,22.35 l 0.15,0.4 -0.75,1 -0.9,1.55 -0.9,-0.75 -0.3,-0.6 0.3,-1.35 0.3,-1.5 m 7.1,1.55 -0.1,0.1 -0.05,0.35 0.05,0.3 q -0.25,0.7 -1.4,0.7 h -0.05 v -1.6 l -0.1,-1.25 q 1.25,0 1.65,0.75 l 0.1,0.2 v 0.25 l -0.1,0.2"
         fill="#ffffff"
         fill-rule="evenodd"
         stroke="none"
         id="path15" />
      <path
         d="m 34.9,9.75 0.25,-1.3 q 0,-4.5 -6.9,-6.6 L 27.85,1.75 24.8,0.9 21.4,0.35 16.8,0.1 14.1,0.45 11.5,0.9 8.45,1.75 8.05,1.85 q -6.9,2.1 -6.9,6.6 0,0.75 0.25,1.3 0.5,1.15 1.9,1.15 l 1.85,-0.3 0.25,0.25 q 0.75,0.9 0.75,1.8 0,0.75 -0.6,1.3 -0.6,0.6 -0.6,1 L 4.6,14.8 3,14.2 2.75,14.25 1.95,14.05 Q 0.3,13.85 0.3,15.5 L 0.75,16.75 0.4,17.9 Q 0,19.05 0,19.95 q 0,1.35 0.9,2.35 1.45,1.55 4.7,1.55 1.1,0 3.85,-1.1 L 11.4,21.9 q -0.45,1.05 -0.45,2.15 l 0.4,1.4 q 0.6,1.35 1.85,1.35 0.9,0 2.15,-1.6 l 0.5,-0.65 q 0.5,0.75 2,0.75 h 0.3 0.3 q 1.5,0 2,-0.75 l 0.5,0.65 q 1.25,1.6 2.15,1.6 1.25,0 1.85,-1.35 l 0.4,-1.4 q 0,-1.1 -0.45,-2.15 l 1.95,0.85 q 2.75,1.1 3.85,1.1 3.25,0 4.7,-1.55 0.9,-1 0.9,-2.35 0,-0.9 -0.4,-2.05 L 35.55,16.75 36,15.5 q 0,-1.65 -1.65,-1.45 l -0.8,0.2 -0.25,-0.05 -1.6,0.6 -0.35,0.15 q 0,-0.4 -0.6,-1 -0.6,-0.55 -0.6,-1.3 0,-0.9 0.75,-1.8 L 31.15,10.6 33,10.9 q 1.4,0 1.9,-1.15 z"
         fill="none"
         stroke="#6b6b6b"
         stroke-linecap="round"
         stroke-linejoin="round"
         stroke-width="1.5"
         id="path16" />
    </g>
    <g
       id="sprite3"
       transform="translate(0.75,0.75)">
      <use
         ffdec:characterId="650"
         height="12.45"
         transform="translate(-0.75,-0.75)"
         width="19.1"
         xlink:href="#shape3"
         id="use16" />
    </g>
    <g
       id="shape3"
       transform="translate(0.75,0.75)">
      <path
         d="M 10.15,8.8 V 8.7 L 8.8,8.8 7.45,8.7 V 8.8 L 6,8.7 Q 5.2,8.55 5.15,7.8 L 5.2,7.35 8.6,7.15 12.4,7.35 12.45,7.8 Q 12.4,8.55 11.6,8.7 l -1.45,0.1 m 0,-7.3 V 1.4 q 2.65,0.1 2.4,1.65 L 12.3,4.2 q 0,0.5 0.75,0.5 0.65,0 1.15,-0.4 l 0.75,-0.4 q 1.3,0 1.15,1.3 l -0.05,1 -0.4,0.45 L 14.45,6.9 13.6,6.7 13.05,6.4 H 13 l -0.35,-0.15 -0.1,0.2 -1.4,-0.1 h -1 -1.1 -2.6 L 5.05,6.45 4.95,6.25 4.6,6.4 H 4.55 L 4,6.7 3.15,6.9 1.95,6.65 1.55,6.2 1.5,5.2 Q 1.35,3.9 2.65,3.9 L 3.4,4.3 Q 3.9,4.7 4.55,4.7 5.3,4.7 5.3,4.2 L 5.05,3.05 Q 4.8,1.5 7.45,1.4 V 1.5 L 8.9,1.4 10.15,1.5"
         fill="#ffffff"
         fill-rule="evenodd"
         stroke="none"
         id="path17" />
      <path
         d="m 14.15,2.55 q 2.45,-0.45 3.2,1.3 L 17.6,6.2 q 0,2.35 -2.65,2.35 L 14.1,8.4 14.3,9.3 q 0,1.65 -4.4,1.65 H 8.7 7.7 Q 3.3,10.95 3.3,9.3 L 3.5,8.4 2.65,8.55 Q 0,8.55 0,6.2 0,4.5 0.25,3.85 1,2.1 3.45,2.55 3.55,1.4 3.95,1 4.7,0.2 7.05,0 L 8.75,0.05 10.55,0 q 2.35,0.2 3.1,1 0.4,0.4 0.5,1.55 M 10.15,1.5 8.9,1.4 7.45,1.5 V 1.4 Q 4.8,1.5 5.05,3.05 L 5.3,4.2 Q 5.3,4.7 4.55,4.7 3.9,4.7 3.4,4.3 L 2.65,3.9 q -1.3,0 -1.15,1.3 l 0.05,1 0.4,0.45 L 3.15,6.9 4,6.7 4.55,6.4 H 4.6 l 0.35,-0.15 0.1,0.2 1.4,-0.1 h 2.6 1.1 1 l 1.4,0.1 0.1,-0.2 L 13,6.4 h 0.05 l 0.55,0.3 0.85,0.2 1.2,-0.25 0.4,-0.45 0.05,-1 Q 16.25,3.9 14.95,3.9 L 14.2,4.3 Q 13.7,4.7 13.05,4.7 12.3,4.7 12.3,4.2 L 12.55,3.05 Q 12.8,1.5 10.15,1.4 v 0.1 m 0,7.3 1.45,-0.1 Q 12.4,8.55 12.45,7.8 L 12.4,7.35 8.6,7.15 5.2,7.35 5.15,7.8 Q 5.2,8.55 6,8.7 L 7.45,8.8 V 8.7 L 8.8,8.8 10.15,8.7 v 0.1"
         fill="#6b6b6b"
         fill-rule="evenodd"
         stroke="none"
         id="path18" />
      <path
         d="m 14.15,2.55 q 2.45,-0.45 3.2,1.3 L 17.6,6.2 q 0,2.35 -2.65,2.35 L 14.1,8.4 14.3,9.3 q 0,1.65 -4.4,1.65 H 8.7 7.7 Q 3.3,10.95 3.3,9.3 L 3.5,8.4 2.65,8.55 Q 0,8.55 0,6.2 0,4.5 0.25,3.85 1,2.1 3.45,2.55 3.55,1.4 3.95,1 4.7,0.2 7.05,0 L 8.75,0.05 10.55,0 q 2.35,0.2 3.1,1 0.4,0.4 0.5,1.55 z"
         fill="none"
         stroke="#6b6b6b"
         stroke-linecap="round"
         stroke-linejoin="round"
         stroke-width="1.5"
         id="path19" />
    </g>
    <g
       id="shape4"
       transform="translate(24.25,26.8)">
      <path
         d="m -14.4,-16.7 -0.1,-0.15 -0.2,-1.2 q 0,-4.25 6.5,-6.25 l 0.4,-0.1 2.85,-0.8 2.45,-0.4 2.55,-0.35 4.35,0.25 3.25,0.5 2.85,0.8 0.4,0.1 q 6.5,2 6.5,6.25 l -0.2,1.2 q -0.5,1.1 -1.8,1.1 l -1.75,-0.3 -0.25,0.25 q -0.7,0.85 -0.7,1.7 0,0.7 0.55,1.25 l 0.55,0.95 0.35,-0.15 1.5,-0.6 0.25,0.05 0.75,-0.15 q 1.55,-0.2 1.55,1.35 l -0.4,1.2 0.3,1.05 q 0.4,1.1 0.4,1.95 0,1.3 -0.85,2.2 l -1.15,0.9 q -1.1,0.5 -2.7,0.6 1.6,-0.1 2.7,-0.6 2.4,2.45 1.95,5.2 l 0.4,0.4 q 2.55,2.55 3.1,5.15 v 3.55 q 0,1.4 0.3,2.9 1.8,1.6 1.2,3.7 -0.45,1.75 -1.65,2.3 l -0.05,0.05 q 1.15,1.2 0.7,2.9 -0.75,2.75 -2.95,3.4 -1.3,0.35 -2.6,0 Q 15.1,25 14.1,24.1 l -0.55,0.45 Q 12.5,25.3 11.2,25.4 8.5,25.55 7.3,24.15 q -1.05,1 -2.95,1.5 l -0.3,0.1 -0.65,0.4 h -9.3 l -0.25,-0.1 -1,-0.7 -3.25,-2.4 q -2.3,0.5 -3.7,0.05 h -0.3 l -0.5,1 q -1,1.55 -2.3,2.15 h -3.5 L -21.05,26 q -2.1,-1 -2.1,-3.2 0,-1.8 0.95,-2.7 v -0.05 q -1.3,-0.8 -1.3,-2.55 0,-2.85 1.85,-4.15 1.05,-0.75 2.35,-0.85 l 2.05,0.15 0.1,-1.4 Q -16.7,9.5 -15.5,9 V 8.95 L -16,8.2 Q -17.65,7.4 -18.35,6.15 -18.95,4.9 -18.6,3.6 l 0.9,-1.85 0.6,-1 -0.05,-1.35 0.3,-0.6 -0.15,-1.9 q 0,-3.05 1.3,-5.5 l 0.3,-0.55 0.3,-1.05 -0.4,-1.2 0.25,-0.95 q 0.35,-0.5 1.3,-0.4 l 0.75,0.15 0.25,-0.05 0.2,0.05 -0.2,-0.05 -0.25,0.05 -0.75,-0.15 q -0.95,-0.1 -1.3,0.4 -0.4,-0.6 -0.4,-1.4 0,-2 1.25,-2.95 0.5,0.95 1.7,0.95 l 1.75,-0.3 0.25,0.25 q 0.7,0.85 0.7,1.7 0,0.65 -0.5,1.2 0.5,-0.55 0.5,-1.2 0,-0.85 -0.7,-1.7 l -0.25,-0.25 -1.75,0.3 q -1.2,0 -1.7,-0.95 m 1.65,4.1 1.3,0.55 0.35,0.15 0.55,-0.95 0.05,-0.05 q -0.05,-0.9 -0.5,-1.8 -0.45,-0.9 -0.65,-0.9 -0.5,0 -1.1,0.4 -0.75,0.45 -0.75,1.15 l 0.65,1.35 0.1,0.1 M -14.7,-4.75 -14.95,-5 q -0.85,-0.9 -0.85,-2.2 0,-0.85 0.4,-1.95 -0.4,1.1 -0.4,1.95 0,1.3 0.85,2.2 l 0.25,0.25 -0.15,1.6 0.2,1.85 -0.55,-0.3 q -1.15,-0.4 -1.65,0.4 0.5,-0.8 1.65,-0.4 l 0.55,0.3 0.15,0.1 0.25,0.05 q 0.15,0 1.4,1 h 0.05 l -0.4,-1.65 v -2.05 q -0.9,-0.35 -1.5,-0.9 M -3.8,-0.8 Q -4.6,-1 -5.1,-2 l -0.35,-1.35 q 0,-1 0.4,-2 l -1.8,0.8 q -2.6,1.05 -3.65,1.05 h -0.45 l -2.25,-0.35 2.25,0.35 h 0.45 q 1.05,0 3.65,-1.05 l 1.8,-0.8 q -0.4,1 -0.4,2 L -5.1,-2 q 0.5,1 1.3,1.2 l -0.15,0.7 q -0.35,1.35 -2.1,2.55 l -1.6,0.85 -0.85,0.25 -3.05,-0.2 q -1,-0.25 -1.75,-0.7 l -1.5,-1.35 -0.15,-0.15 -0.1,0.2 -0.6,1.15 -0.05,0.05 -0.65,1.35 q -0.2,0.55 0.5,1.35 l 0.1,0.15 q 0.75,0.8 2,1.2 h 0.1 l 3.15,0.05 1.55,-0.35 0.8,0.05 0.9,0.4 Q -7,6.5 -6.6,6.45 h 0.25 l 0.9,0.1 q 1.6,0.4 1.85,1.8 l 0.1,0.25 v 0.1 l 0.25,-0.05 0.5,-0.05 q 0.9,-0.1 1.55,0.3 0.7,0.05 1.45,0.5 L 0.6,9.7 0.85,9.9 0.95,9.8 1.05,9.55 q 1,-1 2.55,-0.6 1.3,0.35 1.4,1.1 l 1.05,0.1 1,0.6 0.9,0.8 0.45,0.4 0.35,0.25 q 0.65,0.45 1.4,0.75 l 0.45,0.15 q 1.3,0.35 2.5,0 1.1,-0.4 1.3,-1 l 0.1,-0.35 -0.05,-1.1 Q 14.35,9.7 14.5,9.25 V 9.05 L 14.35,9.1 10.5,9.25 Q 7.4,8.4 6.1,5.75 5.25,3.85 5.6,2.5 L 6.25,1 6.8,0.05 7.5,-0.65 Q 8.3,-1.4 9.25,-1.6 l 1.8,0.1 Q 12.7,-1.1 14.3,0.05 15.75,1 15.95,1 L 15.6,-0.85 q -0.5,-1.6 -1.7,-2.55 l -0.1,-0.1 h -0.6 q -1.05,0 -3.65,-1.05 l -1.8,-0.8 q 0.4,1 0.4,2 L 7.8,-2 Q 7.2,-0.75 6.05,-0.75 5.2,-0.75 4,-2.25 l -0.5,-0.6 q -0.45,0.7 -1.85,0.7 h -0.3 -0.3 q -1.4,0 -1.85,-0.7 l -0.5,0.6 q -1.2,1.5 -2.05,1.5 L -3.8,-0.8 M 13.35,-18.55 15.1,-18 q -0.85,-2.65 -2.95,-3.55 l -4.6,-1.45 -3,-0.9 H 3.3 l -1.95,-0.3 -1.95,0.3 h -1.25 l -3,0.9 -4.6,1.45 q -2.1,0.9 -2.95,3.55 l 1.75,-0.55 3.3,-0.6 q 2.45,0 3.5,2.5 0.5,1.3 0.5,2.5 0,1.1 -0.8,2.3 l -0.45,0.55 q -1.3,1.55 -3.25,1.95 L -8.6,-9.2 h -0.8 q -1.95,0 -3.2,-0.85 l -0.3,-0.2 -0.15,-0.1 -0.05,0.15 -0.1,0.65 -0.2,0.65 -0.25,1.35 q 0,0.65 0.85,1.25 1,0.6 2.3,0.6 1.4,0 2.85,-0.75 h 0.05 q 1.35,-0.8 2,-0.8 l 0.95,0.15 q 0.35,-0.65 1.55,-0.65 1.55,0 2.2,1.15 l 0.1,0.35 0.7,-0.3 1.45,-0.1 1.45,0.1 0.7,0.3 0.1,-0.35 q 0.65,-1.15 2.2,-1.15 1.2,0 1.55,0.65 l 0.4,-0.1 0.55,-0.05 q 0.65,0 2.05,0.8 1.45,0.75 2.85,0.75 l 1.25,-0.15 1.05,-0.45 q 0.85,-0.6 0.85,-1.25 L 16.1,-8.9 q -0.3,-0.8 -0.3,-1.3 l -0.05,-0.15 -0.15,0.1 q -1.35,1.05 -3.5,1.05 -3,0 -4.8,-2.1 -1.25,-1.5 -1.25,-2.85 0,-1.2 0.5,-2.5 1.05,-2.5 3.5,-2.5 l 3.3,0.6 m -8.75,4.9 q 1.15,0.9 1.15,2.45 l -0.2,0.65 Q 5.05,-9.3 4.3,-8.6 3.3,-7.65 1.9,-7.65 L 1.35,-7.8 0.8,-7.65 q -2,0 -3.1,-1.85 l -0.75,-1.7 0.05,-0.6 q 0.2,-1.15 1.1,-1.85 1.4,-1.15 3.25,1.1 1.85,-2.25 3.25,-1.1 m -1.4,8.6 -0.1,-0.2 q -0.4,-0.7 -1.55,-0.7 l 0.1,1.15 v 1.5 H 1.7 q 1.05,0 1.3,-0.65 L 2.95,-4.2 3,-4.55 l 0.1,-0.1 0.1,-0.2 v -0.2 m 3.1,-1.6 -0.65,-0.1 Q 4.5,-6.75 4.1,-5.7 L 4.35,-4.95 4.2,-4.55 4.9,-3.6 5.75,-2.15 6.6,-2.85 6.9,-3.4 6.6,-4.7 6.3,-6.1 V -6.65 M 1.15,-3.3 1.05,-4 1.15,-5.95 q -1.15,0 -1.55,0.7 l -0.1,0.2 v 0.2 l 0.1,0.2 0.1,0.1 0.05,0.35 -0.05,0.25 Q -0.05,-3.3 1,-3.3 h 0.15 m 19.2,15.15 -0.1,-2.25 q -0.45,-4 -2.8,-6.45 -0.7,0.6 -1.8,0.3 L 15.45,3.4 17.1,5.05 q 1.75,2.25 1.65,5.55 l 0.05,0.95 1.15,0.15 0.4,0.15 1.85,1.2 0.05,0.05 -0.05,-0.05 -1.85,-1.2 m -5.1,10 q 0.55,0.95 1.9,1.35 l 1.25,0.1 q 1.15,-0.25 1.7,-2.25 0.5,-2 -1.6,-2.85 v -0.05 q 0.1,-0.25 1.3,-0.5 1.05,-0.15 1.4,-0.85 l 0.1,-0.3 q 0.35,-1.25 -0.65,-2.15 L 20.2,14 l -0.6,-0.25 -1,-0.4 -1,0.05 -0.55,0.45 q -0.25,0.25 -0.35,0.7 v 0.05 l 0.05,0.75 Q 16.55,16.1 15.8,16.2 L 15,15.9 q -0.15,1.2 -0.9,1.9 v 0.05 l 0.65,0.55 h 0.3 l 0.15,0.05 -0.15,0.4 q 0.35,0.65 0.35,1.55 l -0.15,1.45 q -0.3,1.35 -1.15,2.25 0.85,-0.9 1.15,-2.25 M 17.45,3.15 17.75,2.8 18.3,1.6 18.45,1.1 18.3,1.6 17.75,2.8 17.45,3.15 M 14.8,6.7 13.75,5.5 12.4,4.35 Q 12.2,5.1 12.65,5.75 13.1,6.5 13,6.9 L 13.3,6.85 14.8,6.7 15,6.65 15.25,6.8 h 0.85 q 1.6,0.25 1.2,1.8 L 16.55,9.75 V 10 9.75 L 17.3,8.6 Q 17.7,7.05 16.1,6.8 H 15.25 L 15,6.65 14.8,6.7 m 1.95,5.35 -0.05,-1.4 -0.15,-0.65 0.05,0.95 v 1.15 l 0.15,-0.05 q 1,-0.5 2.05,-0.5 -1.05,0 -2.05,0.5 M 12.4,4.35 q 0.2,-0.85 1.2,-1.5 l 0.3,-0.2 1.55,0.75 -1.55,-0.75 -0.3,0.2 q -1,0.65 -1.2,1.5 M 4.5,5.4 Q 2.4,8.75 -0.4,8 L -0.9,7.7 H -1.55 Q -4.35,6.95 -4.45,3 -4.05,1.45 -2.65,0.8 -0.9,0.05 0.4,2.85 2.85,1.05 4,2.6 4.9,3.85 4.5,5.4 M 0,11.45 0.15,11.25 0.2,11 0.15,10.8 Q 0,9.95 -1.25,9.65 l -0.2,1.2 -0.45,1.55 0.05,0.05 q 1.15,0.3 1.55,-0.35 v -0.3 l 0.1,-0.2 0.05,-0.15 H 0 m 1.9,-1.4 -0.6,0.55 v 0.85 l -0.2,0.3 0.1,0.2 0.35,1 L 2,14.7 Q 2.55,14.6 3.1,14.2 L 3.55,13.7 3.6,12.6 V 12.35 L 3.7,10.8 3.8,10.55 3.85,10.25 3.2,9.9 1.9,10.05 m 8.15,5.3 Q 9.3,15.15 7.9,14.2 l -0.2,1.6 -0.3,1.1 q -0.45,1.2 -1.2,1.45 l 0.1,0.4 -0.25,1.1 q -0.4,1.1 -1.3,1.35 H 4.15 4 L 3.85,21.15 3.75,21.9 v 0.05 Q 3.35,22.8 2,23.15 L 1,22.95 Q 0.75,23.5 0.2,23.65 L -1.85,23.4 -2.35,22.8 -2.5,22.95 -2.65,23 -3.15,23.3 Q -4,23.55 -4.95,22.8 L -5.7,21.95 -5.8,21.55 Q -6.75,21.8 -8.15,20.4 L -8.4,20.1 -9.75,18.3 -9.8,17.8 V 17 l -0.7,-0.15 -0.45,0.4 -0.1,0.6 v 0.05 q 0.1,0.9 -0.3,1.05 l -0.55,-0.1 -0.75,-0.2 -1.25,-0.05 -0.45,0.15 -0.1,0.9 -0.05,0.45 0.05,0.2 0.25,0.5 q 0.4,0.4 1.25,0.45 2.6,-1.1 5.2,0.85 l 0.65,0.5 q 0.95,0.85 1.65,1.95 l 4.1,-0.1 2.8,0.1 q 0.4,-0.7 2.3,-1.5 l 2.65,-1.15 1,-0.8 q 0.05,-0.9 0.25,-1.75 l 0.5,-1.55 q 0.7,-1.6 1.9,-2.45 L 14.1,15.5 15,15.05 h 0.05 Q 16.1,14.25 16.45,13 L 16.6,12.1 16.45,13 q -0.35,1.25 -1.4,2.05 H 15 L 14.1,15.5 10.05,15.35 M 6.8,13.9 V 13.85 L 6.45,13.3 6.3,13.05 6.6,13.25 7.9,14.2 6.6,13.25 6.3,13.05 6.45,13.3 5.8,13.15 H 5.7 L 5,13 l -0.15,1.15 -0.5,0.8 2,-0.15 0.45,-0.9 q 0.05,0.35 -0.7,2.05 L 5.75,16.9 6.1,15.95 q 0.75,-1.7 0.7,-2.05 m -1.3,3 0.15,0.2 v 0.05 L 5.75,16.9 H 5.5 Q 4.9,16 4.25,16.15 V 16.2 L 3.35,16.5 2.7,16.95 3.35,16.5 4.25,16.2 V 16.15 Q 4.9,16 5.5,16.9 m -14.05,0.8 v 0.25 l 1.65,1.5 0.95,0.8 V 20.2 q 0.05,-1.3 0.7,-1.5 h 0.1 l 0.9,-0.15 1.35,0.3 q 0.35,-0.55 1.2,-0.95 l 1.3,-0.15 Q 0,17.35 0.8,17.2 l 1.5,0.25 0.4,-0.5 -1.7,0.1 -1.4,0.05 -1.45,0.15 h -0.1 l -6.6,0.45 -0.15,-1.1 -0.4,-0.85 0.4,0.85 0.15,1.1 m -0.9,-2.2 0.35,0.25 4.45,-0.3 2.8,-0.2 V 15.3 L 0.8,15.15 q 0.5,0.95 1.1,1.1 1.2,0.3 2.15,-0.85 l 0.3,-0.45 -0.3,0.45 Q 3.1,16.55 1.9,16.25 1.3,16.1 0.8,15.15 l -2.65,0.15 v -0.05 l -2.8,0.2 -2.1,-0.6 -1.6,-0.45 -0.75,0.8 -0.35,0.3 -1.4,0.05 -0.75,0.4 q -0.55,0.35 -0.65,1 l -0.6,-0.2 -2,0.2 q -0.95,0.25 -1.25,1.1 0.3,-0.85 1.25,-1.1 l 2,-0.2 0.6,0.2 q 0.1,-0.65 0.65,-1 l 0.75,-0.4 1.4,-0.05 M -16.1,21 v -0.05 l -0.2,-1.75 0.2,-1.15 h -0.05 v -0.3 q 0,-2.95 -2.55,-2.75 -2.4,0.15 -2.5,2.5 -0.05,2.25 2.15,2.25 L -19,20 q 0,0.25 -1.05,0.8 -1.05,0.65 -1.05,1.6 0,1.55 1.6,2.05 l 1.6,0.15 0.9,-0.4 q 0.55,-0.45 0.55,-1.35 V 22.8 l -0.25,-0.75 q 0,-0.75 0.6,-1.05 0.3,1.1 1.3,1.7 l 0.7,0.3 -0.7,-0.3 q -1,-0.6 -1.3,-1.7 M 0.5,14.55 0.3,14.1 -0.05,13.35 q -0.7,0.6 -2.15,0.2 L -2.45,13.5 -2.75,13.4 Q -4.2,13.05 -4.5,12.15 l -0.6,0.5 -0.4,0.3 6,1.6 0.3,0.6 -0.3,-0.6 M 2.75,19.7 2.7,19.4 2.45,19.15 2.1,18.75 Q 1.7,18.3 0.85,18.5 l -0.3,0.55 0.1,0.75 -0.05,0.1 0.35,1.1 0.1,0.6 v 0.3 0.1 l 0.15,0.1 0.05,0.05 0.5,0.15 0.55,-0.25 0.4,-0.4 q 0.35,-0.6 0.2,-1.3 L 2.75,19.7 M 4.1,17.1 q -0.85,0.25 -0.85,1.2 l 0.2,0.85 -0.25,0.2 0.05,0.1 0.05,0.2 V 19.7 L 3.4,19.9 4,20.5 4.55,19.7 4.6,19.65 Q 5.35,18.8 5.1,17.9 L 4.45,17.1 H 4.1 m -3.65,4.8 -0.1,-0.1 -0.2,-1.5 -0.5,-0.45 -0.2,-0.5 Q -0.95,19 -1.05,19 q -0.85,0.25 -1,0.85 V 20 l -0.1,0.4 -0.05,0.3 0.3,0.95 0.35,0.65 0.45,0.35 1.15,0.1 0.35,-0.45 0.05,-0.1 v -0.3 m 12.15,-5.3 -1.65,0.65 -1.7,3.7 -0.5,1.1 -0.15,0.2 -0.35,0.5 -0.95,1.4 0.95,-1.4 0.35,-0.5 q 0.8,1 2.3,0.9 l 1.15,-0.3 Q 12.7,22.45 12.9,21.4 L 13,20.2 V 20.1 Q 12.95,18.15 10.9,17.95 V 17.9 q 0,-0.15 0.35,-0.35 0.25,-0.2 0.7,-0.45 l 0.65,-0.5 1.5,-1.1 -1.5,1.1 M 5,13 4.95,11.95 6.3,13.05 4.95,11.95 5,13 m 10.05,5.85 -0.3,-0.45 0.3,0.45 M 15,15.9 15.05,15.1 V 15.05 15.1 L 15,15.9 M -10.95,-3.5 q 0.4,0.9 0.2,1.65 -0.2,0.75 -0.95,1.1 l -0.8,0.85 -0.3,-0.25 0.3,0.25 0.8,-0.85 q 0.75,-0.35 0.95,-1.1 0.2,-0.75 -0.2,-1.65 m 7.35,-3.15 v 0.55 l -0.3,1.4 -0.2,0.75 -0.1,0.55 0.3,0.55 0.05,0.05 0.8,0.65 0.85,-1.45 0.7,-0.95 -0.15,-0.4 0.25,-0.75 q -0.4,-1.05 -1.55,-1.05 l -0.65,0.1 m -2.7,14.2 -0.1,0.5 -0.05,0.05 -0.7,1.35 -0.05,0.15 -0.55,1.1 0.1,0.6 0.7,1 1.25,-1.25 0.85,-0.7 L -4.7,10.2 -4.75,9.85 -4.3,9.1 Q -4.35,8.65 -4.55,8.3 -4.9,7.75 -5.6,7.55 H -6.3 M -8.55,9.15 -8.7,9.1 h -0.15 l 0.05,-0.3 0.1,-0.25 0.6,-0.1 -0.45,0.7 0.45,-0.7 -0.6,0.1 -1.5,0.2 -3.3,0.2 q 0.45,0.5 1.3,0.8 V 10 q -0.1,0.25 -1.3,0.4 -1.25,0.25 -1.5,1.15 -0.4,1.5 1.1,2.55 l 1.6,0.7 1,-0.05 q 0.7,-0.3 0.9,-1.15 v -0.05 l -0.05,-0.85 q 0.25,-0.8 1.1,-0.8 l 0.3,0.1 -0.05,-0.1 0.05,-1.45 0.5,-1.3 m 4.95,1.1 0.05,0.2 0.05,0.1 v 0.15 l -0.05,0.2 -0.1,0.3 q 0.05,0.75 1.15,1.05 l 0.15,0.05 0.1,-0.8 0.65,-1.95 Q -2.8,9.2 -3.4,9.8 L -3.55,10 -3.6,10.25 M -16,8.2 l 1.8,0.65 0.7,0.1 -0.7,-0.1 L -16,8.2 m 2,8.05 -0.45,-0.2 v 0.3 l 0.45,-0.1 1.15,-0.2 V 16 l 1.25,-0.05 -1.25,0.05 v 0.05 l -1.15,0.2 m -0.45,-0.2 -0.15,-0.7 q -0.55,-2.2 -2.65,-2.7 2.1,0.5 2.65,2.7 l 0.15,0.7 M -9.05,12 q 0.25,1.35 1.4,1.65 0.75,0.2 2.15,-0.7 -1.4,0.9 -2.15,0.7 -1.15,-0.3 -1.4,-1.65 m 4.45,7.4 -0.35,0.2 -0.05,0.6 -0.1,0.45 q 0.25,0.95 1.35,1.25 0.65,0.2 0.95,0.4 l 0.2,-0.8 v -0.25 l -0.05,-0.2 -0.05,-0.1 -0.35,-0.05 -0.2,-0.85 Q -3.7,19.2 -4.6,19.4"
         fill="#6b6b6b"
         fill-rule="evenodd"
         stroke="none"
         id="path20" />
      <path
         d="m -10.5,-12.9 -0.05,0.05 -0.55,0.95 -0.35,-0.15 -1.3,-0.55 -0.1,-0.1 -0.65,-1.35 q 0,-0.7 0.75,-1.15 0.6,-0.4 1.1,-0.4 0.2,0 0.65,0.9 0.45,0.9 0.5,1.8 m -4.2,8.15 q 0.6,0.55 1.5,0.9 v 2.05 l 0.4,1.65 h -0.05 q -1.25,-1 -1.4,-1 l -0.25,-0.05 -0.15,-0.1 -0.2,-1.85 0.15,-1.6 m 10.9,3.95 0.45,0.05 q 0.85,0 2.05,-1.5 l 0.5,-0.6 q 0.45,0.7 1.85,0.7 h 0.3 0.3 q 1.4,0 1.85,-0.7 l 0.5,0.6 q 1.2,1.5 2.05,1.5 1.15,0 1.75,-1.25 l 0.35,-1.35 q 0,-1 -0.4,-2 l 1.8,0.8 q 2.6,1.05 3.65,1.05 h 0.6 l 0.1,0.1 q 1.2,0.95 1.7,2.55 L 15.95,1 Q 15.75,1 14.3,0.05 12.7,-1.1 11.05,-1.5 L 9.25,-1.6 Q 8.3,-1.4 7.5,-0.65 L 6.8,0.05 6.25,1 5.6,2.5 Q 5.25,3.85 6.1,5.75 7.4,8.4 10.5,9.25 L 14.35,9.1 14.5,9.05 v 0.2 q -0.15,0.45 -0.05,1.4 l 0.05,1.1 -0.1,0.35 q -0.2,0.6 -1.3,1 -1.2,0.35 -2.5,0 L 10.15,12.95 Q 9.4,12.65 8.75,12.2 L 8.4,11.95 7.95,11.55 7.05,10.75 6.05,10.15 5,10.05 Q 4.9,9.3 3.6,8.95 2.05,8.55 1.05,9.55 L 0.95,9.8 0.85,9.9 0.6,9.7 0.25,9.4 Q -0.5,8.95 -1.2,8.9 -1.85,8.5 -2.75,8.6 L -3.25,8.65 -3.5,8.7 V 8.6 L -3.6,8.35 q -0.25,-1.4 -1.85,-1.8 l -0.9,-0.1 H -6.6 Q -7,6.5 -7.25,6.75 L -8.15,6.35 -8.95,6.3 -10.5,6.65 -13.65,6.6 h -0.1 q -1.25,-0.4 -2,-1.2 l -0.1,-0.15 q -0.7,-0.8 -0.5,-1.35 l 0.65,-1.35 0.05,-0.05 0.6,-1.15 0.1,-0.2 0.15,0.15 1.5,1.35 q 0.75,0.45 1.75,0.7 l 3.05,0.2 0.85,-0.25 1.6,-0.85 q 1.75,-1.2 2.1,-2.55 l 0.15,-0.7 m 17.15,-17.75 -3.3,-0.6 q -2.45,0 -3.5,2.5 -0.5,1.3 -0.5,2.5 0,1.35 1.25,2.85 1.8,2.1 4.8,2.1 2.15,0 3.5,-1.05 l 0.15,-0.1 0.05,0.15 q 0,0.5 0.3,1.3 l 0.25,1.35 q 0,0.65 -0.85,1.25 l -1.05,0.45 -1.25,0.15 q -1.4,0 -2.85,-0.75 -1.4,-0.8 -2.05,-0.8 L 7.75,-7.2 7.35,-7.1 Q 7,-7.75 5.8,-7.75 q -1.55,0 -2.2,1.15 l -0.1,0.35 -0.7,-0.3 -1.45,-0.1 -1.45,0.1 -0.7,0.3 -0.1,-0.35 q -0.65,-1.15 -2.2,-1.15 -1.2,0 -1.55,0.65 L -5.6,-7.25 q -0.65,0 -2,0.8 h -0.05 q -1.45,0.75 -2.85,0.75 -1.3,0 -2.3,-0.6 -0.85,-0.6 -0.85,-1.25 l 0.25,-1.35 0.2,-0.65 0.1,-0.65 0.05,-0.15 0.15,0.1 0.3,0.2 q 1.25,0.85 3.2,0.85 h 0.8 l 0.75,-0.15 q 1.95,-0.4 3.25,-1.95 l 0.45,-0.55 q 0.8,-1.2 0.8,-2.3 0,-1.2 -0.5,-2.5 -1.05,-2.5 -3.5,-2.5 l -3.3,0.6 -1.75,0.55 q 0.85,-2.65 2.95,-3.55 l 4.6,-1.45 3,-0.9 h 1.25 l 1.95,-0.3 1.95,0.3 h 1.25 l 3,0.9 4.6,1.45 q 2.1,0.9 2.95,3.55 l -1.75,-0.55 m -8.75,4.9 q -1.4,-1.15 -3.25,1.1 -1.85,-2.25 -3.25,-1.1 -0.9,0.7 -1.1,1.85 l -0.05,0.6 0.75,1.7 q 1.1,1.85 3.1,1.85 L 1.35,-7.8 1.9,-7.65 q 1.4,0 2.4,-0.95 0.75,-0.7 1.25,-1.95 l 0.2,-0.65 q 0,-1.55 -1.15,-2.45 m 1.7,7 v 0.55 l 0.3,1.4 0.3,1.3 -0.3,0.55 -0.85,0.7 L 4.9,-3.6 4.2,-4.55 4.35,-4.95 4.1,-5.7 q 0.4,-1.05 1.55,-1.05 l 0.65,0.1 m -3.1,1.6 v 0.2 L 3.1,-4.65 3,-4.55 2.95,-4.2 3,-3.95 Q 2.75,-3.3 1.7,-3.3 H 1.65 v -1.5 l -0.1,-1.15 q 1.15,0 1.55,0.7 l 0.1,0.2 m 14.25,8.2 q 2.35,2.45 2.8,6.45 l 0.1,2.25 L 19.95,11.7 18.8,11.55 18.75,10.6 Q 18.85,7.3 17.1,5.05 l -1.65,-1.65 0.2,0.05 q 1.1,0.3 1.8,-0.3 M 1.15,-3.3 H 1 q -1.05,0 -1.3,-0.65 l 0.05,-0.25 -0.05,-0.35 -0.1,-0.1 -0.1,-0.2 v -0.2 l 0.1,-0.2 Q 0,-5.95 1.15,-5.95 L 1.05,-4 1.15,-3.3 M 15,15.9 l 0.8,0.3 q 0.75,-0.1 0.95,-0.85 L 16.7,14.6 v -0.05 q 0.1,-0.45 0.35,-0.7 l 0.55,-0.45 1,-0.05 1,0.4 0.6,0.25 0.45,0.35 q 1,0.9 0.65,2.15 l -0.1,0.3 q -0.35,0.7 -1.4,0.85 -1.2,0.25 -1.3,0.5 v 0.05 q 2.1,0.85 1.6,2.85 -0.55,2 -1.7,2.25 L 17.15,23.2 Q 15.8,22.8 15.25,21.85 L 15.4,20.4 q 0,-0.9 -0.35,-1.55 l 0.15,-0.4 -0.15,-0.05 h -0.3 L 14.1,17.85 V 17.8 Q 14.85,17.1 15,15.9 M 4.5,5.4 Q 4.9,3.85 4,2.6 2.85,1.05 0.4,2.85 -0.9,0.05 -2.65,0.8 q -1.4,0.65 -1.8,2.2 0.1,3.95 2.9,4.7 H -0.9 L -0.4,8 Q 2.4,8.75 4.5,5.4 M 1.9,10.05 3.2,9.9 3.85,10.25 3.8,10.55 3.7,10.8 3.6,12.35 V 12.6 L 3.55,13.7 3.1,14.2 Q 2.55,14.6 2,14.7 l -0.45,-1.75 -0.35,-1 -0.1,-0.2 0.2,-0.3 V 10.6 L 1.9,10.05 M 0,11.45 h -0.15 l -0.05,0.15 -0.1,0.2 v 0.3 q -0.4,0.65 -1.55,0.35 l -0.05,-0.05 0.45,-1.55 0.2,-1.2 Q 0,9.95 0.15,10.8 L 0.2,11 0.15,11.25 0,11.45 m 7.9,2.75 q 1.4,0.95 2.15,1.15 -1.2,0.85 -1.9,2.45 l -0.5,1.55 Q 7.45,20.2 7.4,21.1 l -1,0.8 -2.65,1.15 q -1.9,0.8 -2.3,1.5 l -2.8,-0.1 -4.1,0.1 q -0.7,-1.1 -1.65,-1.95 l -0.65,-0.5 q -2.6,-1.95 -5.2,-0.85 -0.85,-0.05 -1.25,-0.45 l -0.25,-0.5 -0.05,-0.2 0.05,-0.45 0.1,-0.9 0.45,-0.15 1.25,0.05 0.75,0.2 0.55,0.1 q 0.4,-0.15 0.3,-1.05 v -0.05 l 0.1,-0.6 0.45,-0.4 0.7,0.15 v 0.8 l 0.05,0.5 1.35,1.8 0.25,0.3 q 1.4,1.4 2.35,1.15 l 0.1,0.4 0.75,0.85 q 0.95,0.75 1.8,0.5 l 0.5,-0.3 0.15,-0.05 0.15,-0.15 0.5,0.6 2.05,0.25 Q 0.75,23.5 1,22.95 l 1,0.2 Q 3.35,22.8 3.75,21.95 V 21.9 L 3.85,21.15 4,21.2 h 0.15 0.6 q 0.9,-0.25 1.3,-1.35 L 6.3,18.75 6.2,18.35 Q 6.95,18.1 7.4,16.9 L 7.7,15.8 7.9,14.2 M 6.45,13.3 6.8,13.85 v 0.05 l -0.45,0.9 -2,0.15 0.5,-0.8 L 5,13 5.7,13.15 h 0.1 l 0.65,0.15 m -0.7,3.6 -0.1,0.25 V 17.1 L 5.5,16.9 H 5.75 M 2.7,16.95 2.3,17.45 0.8,17.2 Q 0,17.35 -0.4,17.75 l -1.3,0.15 q -0.85,0.4 -1.2,0.95 l -1.35,-0.3 -0.9,0.15 h -0.1 q -0.65,0.2 -0.7,1.5 v 0.05 l -0.95,-0.8 -1.65,-1.5 V 17.7 l 6.6,-0.45 h 0.1 L -0.4,17.1 1,17.05 2.7,16.95 m -18.8,1.1 -0.2,1.15 0.2,1.75 V 21 q -0.6,0.3 -0.6,1.05 l 0.25,0.75 v 0.05 q 0,0.9 -0.55,1.35 l -0.9,0.4 -1.6,-0.15 q -1.6,-0.5 -1.6,-2.05 0,-0.95 1.05,-1.6 Q -19,20.25 -19,20 l -0.05,-0.25 q -2.2,0 -2.15,-2.25 0.1,-2.35 2.5,-2.5 2.55,-0.2 2.55,2.75 v 0.3 h 0.05 m 10.6,-5.1 0.4,-0.3 0.6,-0.5 q 0.3,0.9 1.75,1.25 l 0.3,0.1 0.25,0.05 q 1.45,0.4 2.15,-0.2 l 0.35,0.75 0.2,0.45 -6,-1.6 m 9.6,4.15 h 0.35 l 0.65,0.8 q 0.25,0.9 -0.5,1.75 L 4.55,19.7 4,20.5 3.4,19.9 3.3,19.7 V 19.65 L 3.25,19.45 3.2,19.35 3.45,19.15 3.25,18.3 q 0,-0.95 0.85,-1.2 m -1.35,2.6 0.15,0.65 q 0.15,0.7 -0.2,1.3 L 2.3,22.05 1.75,22.3 1.25,22.15 1.2,22.1 1.05,22 V 21.9 21.6 L 0.95,21 0.6,19.9 0.65,19.8 0.55,19.05 0.85,18.5 Q 1.7,18.3 2.1,18.75 l 0.35,0.4 0.25,0.25 0.05,0.3 m -2.3,2.2 v 0.3 L 0.4,22.3 0.05,22.75 -1.1,22.65 -1.55,22.3 -1.9,21.65 -2.2,20.7 -2.15,20.4 -2.05,20 v -0.15 q 0.15,-0.6 1,-0.85 0.1,0 0.5,0.35 l 0.2,0.5 0.5,0.45 0.2,1.5 0.1,0.1 m 8.15,0.35 0.15,-0.2 0.5,-1.1 1.7,-3.7 1.65,-0.65 -0.65,0.5 q -0.45,0.25 -0.7,0.45 -0.35,0.2 -0.35,0.35 v 0.05 q 2.05,0.2 2.1,2.15 v 0.1 l -0.1,1.2 q -0.2,1.05 -0.85,1.45 l -1.15,0.3 q -1.5,0.1 -2.3,-0.9 M -6.3,7.55 h 0.7 q 0.7,0.2 1.05,0.75 0.2,0.35 0.25,0.8 l -0.45,0.75 0.05,0.35 -0.15,0.15 -0.85,0.7 -1.25,1.25 -0.7,-1 -0.1,-0.6 0.55,-1.1 0.05,-0.15 0.7,-1.35 0.05,-0.05 0.1,-0.5 m 2.7,-14.2 0.65,-0.1 q 1.15,0 1.55,1.05 l -0.25,0.75 0.15,0.4 -0.7,0.95 -0.85,1.45 -0.8,-0.65 -0.05,-0.05 -0.3,-0.55 0.1,-0.55 0.2,-0.75 0.3,-1.4 V -6.65 M -8.7,8.55 -8.8,8.8 -8.85,9.1 h 0.15 l 0.15,0.05 -0.5,1.3 -0.05,1.45 0.05,0.1 -0.3,-0.1 q -0.85,0 -1.1,0.8 l 0.05,0.85 v 0.05 q -0.2,0.85 -0.9,1.15 l -1,0.05 -1.6,-0.7 q -1.5,-1.05 -1.1,-2.55 0.25,-0.9 1.5,-1.15 1.2,-0.15 1.3,-0.4 V 9.75 q -0.85,-0.3 -1.3,-0.8 l 3.3,-0.2 1.5,-0.2 m 5.1,1.7 L -3.55,10 -3.4,9.8 q 0.6,-0.6 1.8,-0.25 l -0.65,1.95 -0.1,0.8 -0.15,-0.05 q -1.1,-0.3 -1.15,-1.05 l 0.1,-0.3 0.05,-0.2 v -0.15 l -0.05,-0.1 -0.05,-0.2 m -1,9.15 q 0.9,-0.2 1.35,0.65 l 0.2,0.85 0.35,0.05 0.05,0.1 0.05,0.2 v 0.25 l -0.2,0.8 Q -3.1,22.1 -3.75,21.9 -4.85,21.6 -5.1,20.65 L -5,20.2 -4.95,19.6 -4.6,19.4"
         fill="#ffffff"
         fill-rule="evenodd"
         stroke="none"
         id="path21" />
      <path
         d="M 16.5,-4.1 17.65,-5 q 0.85,-0.9 0.85,-2.2 0,-0.85 -0.4,-1.95 l -0.3,-1.05 0.4,-1.2 q 0,-1.55 -1.55,-1.35 l -0.75,0.15 -0.25,-0.05 -1.5,0.6 -0.35,0.15 -0.55,-0.95 q -0.55,-0.55 -0.55,-1.25 0,-0.85 0.7,-1.7 l 0.25,-0.25 1.75,0.3 q 1.3,0 1.8,-1.1 l 0.2,-1.2 q 0,-4.25 -6.5,-6.25 l -0.4,-0.1 -2.85,-0.8 -3.25,-0.5 -4.35,-0.25 -2.55,0.35 -2.45,0.4 -2.85,0.8 -0.4,0.1 q -6.5,2 -6.5,6.25 l 0.2,1.2 0.1,0.15 q 0.5,0.95 1.7,0.95 l 1.75,-0.3 0.25,0.25 q 0.7,0.85 0.7,1.7 0,0.65 -0.5,1.2 l -0.05,0.05 -0.55,0.95 -0.35,-0.15 -1.3,-0.55 -0.2,-0.05 -0.25,0.05 -0.75,-0.15 q -0.95,-0.1 -1.3,0.4 l -0.25,0.95 0.4,1.2 -0.3,1.05 q -0.4,1.1 -0.4,1.95 0,1.3 0.85,2.2 l 0.25,0.25 q 0.6,0.55 1.5,0.9 l 2.25,0.35 h 0.45 q 1.05,0 3.65,-1.05 l 1.8,-0.8 q -0.4,1 -0.4,2 L -5.1,-2 q 0.5,1 1.3,1.2 l 0.45,0.05 q 0.85,0 2.05,-1.5 l 0.5,-0.6 q 0.45,0.7 1.85,0.7 h 0.3 0.3 q 1.4,0 1.85,-0.7 l 0.5,0.6 q 1.2,1.5 2.05,1.5 1.15,0 1.75,-1.25 l 0.35,-1.35 q 0,-1 -0.4,-2 l 1.8,0.8 q 2.6,1.05 3.65,1.05 h 0.6 q 1.6,-0.1 2.7,-0.6 2.4,2.45 1.95,5.2 l 0.4,0.4 q 2.55,2.55 3.1,5.15 v 3.55 q 0,1.4 0.3,2.9 1.8,1.6 1.2,3.7 -0.45,1.75 -1.65,2.3 l -0.05,0.05 q 1.15,1.2 0.7,2.9 -0.75,2.75 -2.95,3.4 -1.3,0.35 -2.6,0 Q 15.1,25 14.1,24.1 l -0.55,0.45 Q 12.5,25.3 11.2,25.4 8.5,25.55 7.3,24.15 q -1.05,1 -2.95,1.5 l -0.3,0.1 -0.65,0.4 h -9.3 l -0.25,-0.1 -1,-0.7 -3.25,-2.4 q -2.3,0.5 -3.7,0.05 h -0.3 l -0.5,1 q -1,1.55 -2.3,2.15 h -3.5 L -21.05,26 q -2.1,-1 -2.1,-3.2 0,-1.8 0.95,-2.7 v -0.05 q -1.3,-0.8 -1.3,-2.55 0,-2.85 1.85,-4.15 1.05,-0.75 2.35,-0.85 l 2.05,0.15 0.1,-1.4 Q -16.7,9.5 -15.5,9 V 8.95 L -16,8.2 Q -17.65,7.4 -18.35,6.15 -18.95,4.9 -18.6,3.6 l 0.9,-1.85 0.6,-1 -0.05,-1.35 0.3,-0.6 -0.15,-1.9 q 0,-3.05 1.3,-5.5 l 0.3,-0.55 m 32.85,12.3 q -0.7,0.6 -1.8,0.3 L 15.45,3.4 13.9,2.65 13.6,2.85 q -1,0.65 -1.2,1.5 -0.2,0.75 0.25,1.4 Q 13.1,6.5 13,6.9 L 13.3,6.85 14.8,6.7 15,6.65 15.25,6.8 h 0.85 q 1.6,0.25 1.2,1.8 L 16.55,9.75 V 10 l 0.15,0.65 0.05,1.4 q 1,-0.5 2.05,-0.5 l 1.15,0.15 0.4,0.15 1.85,1.2 0.05,0.05 M 15,15.9 q -0.15,1.2 -0.9,1.9 v 0.05 l 0.65,0.55 0.3,0.45 q 0.35,0.65 0.35,1.55 l -0.15,1.45 q -0.3,1.35 -1.15,2.25 m 4.35,-23 -0.15,0.5 -0.55,1.2 -0.3,0.35 M 14.8,6.7 13.75,5.5 12.4,4.35 m 4.15,5.65 0.05,0.95 v 1.15 l 0.15,-0.05 m -6.7,3.3 Q 9.3,15.15 7.9,14.2 L 6.6,13.25 6.3,13.05 6.45,13.3 6.8,13.85 v 0.05 q 0.05,0.35 -0.7,2.05 L 5.75,16.9 5.65,17.15 V 17.1 L 5.5,16.9 Q 4.9,16 4.25,16.15 V 16.2 L 3.35,16.5 2.7,16.95 2.3,17.45 0.8,17.2 Q 0,17.35 -0.4,17.75 l -1.3,0.15 q -0.85,0.4 -1.2,0.95 l -1.35,-0.3 -0.9,0.15 h -0.1 q -0.65,0.2 -0.7,1.5 v 0.05 l -0.95,-0.8 -1.65,-1.5 V 17.7 l -0.15,-1.1 -0.4,-0.85 -0.35,-0.25 -1.4,0.05 -0.75,0.4 q -0.55,0.35 -0.65,1 l -0.6,-0.2 -2,0.2 q -0.95,0.25 -1.25,1.1 l -0.2,1.15 0.2,1.75 V 21 q 0.3,1.1 1.3,1.7 l 0.7,0.3 M 10.05,15.35 14.1,15.5 15,15.05 h 0.05 Q 16.1,14.25 16.45,13 L 16.6,12.1 M 5,13 l -0.15,1.15 -0.5,0.8 2,-0.15 0.45,-0.9 M 4.35,14.95 4.05,15.4 Q 3.1,16.55 1.9,16.25 1.3,16.1 0.8,15.15 l -2.65,0.15 v -0.05 l -2.8,0.2 -4.45,0.3 M 0.5,14.55 0.3,14.1 -0.05,13.35 q -0.7,0.6 -2.15,0.2 L -2.45,13.5 -2.75,13.4 Q -4.2,13.05 -4.5,12.15 l -0.6,0.5 -0.4,0.3 q -1.4,0.9 -2.15,0.7 -1.15,-0.3 -1.4,-1.65 l -0.05,-0.1 0.05,-1.45 0.5,-1.3 0.45,-0.7 -0.6,0.1 -1.5,0.2 -3.3,0.2 -0.7,-0.1 L -16,8.2 m 16.5,6.35 0.3,0.6 m 7.8,7.1 0.15,-0.2 0.5,-1.1 1.7,-3.7 1.65,-0.65 1.5,-1.1 m -6.8,8.65 0.95,-1.4 0.35,-0.5 m 6.45,-7.2 V 15.1 L 15,15.9 M 6.3,13.05 4.95,11.95 5,13 m -19.4,-29.7 q -1.25,0.95 -1.25,2.95 0,0.8 0.4,1.4 m -1.6,11.15 q 0.5,-0.8 1.65,-0.4 l 0.55,0.3 0.15,0.1 0.25,0.05 q 0.15,0 1.4,1 h 0.05 l 0.3,0.25 0.8,-0.85 q 0.75,-0.35 0.95,-1.1 0.2,-0.75 -0.2,-1.65 m -3.05,19.75 -0.45,-0.2 v 0.3 l 0.45,-0.1 1.15,-0.2 V 16 l 1.25,-0.05 m -5.65,-3.3 q 2.1,0.5 2.65,2.7 l 0.15,0.7 m 9.8,-0.6 -2.1,-0.6 -1.6,-0.45 -0.75,0.8 -0.35,0.3"
         fill="none"
         stroke="#6b6b6b"
         stroke-linecap="round"
         stroke-linejoin="round"
         stroke-width="1.5"
         id="path22" />
    </g>
  </defs>
</svg>
