<?xml version="1.0" encoding="UTF-8" standalone="no"?>
<svg
   ffdec:objectType="frame"
   height="95.24424"
   width="17.122561"
   version="1.1"
   id="svg5"
   sodipodi:docname="1.svg"
   xmlns:inkscape="http://www.inkscape.org/namespaces/inkscape"
   xmlns:sodipodi="http://sodipodi.sourceforge.net/DTD/sodipodi-0.dtd"
   xmlns:xlink="http://www.w3.org/1999/xlink"
   xmlns="http://www.w3.org/2000/svg"
   xmlns:svg="http://www.w3.org/2000/svg"
   xmlns:ffdec="https://www.free-decompiler.com/flash">
  <sodipodi:namedview
     id="namedview5"
     pagecolor="#ffffff"
     bordercolor="#000000"
     borderopacity="0.25"
     inkscape:showpageshadow="2"
     inkscape:pageopacity="0.0"
     inkscape:pagecheckerboard="0"
     inkscape:deskcolor="#d1d1d1"
     fit-margin-top="5"
     fit-margin-left="5"
     fit-margin-right="5"
     fit-margin-bottom="5" />
  <g
     transform="translate(8.56182,46.96602)"
     id="g1">
    <use
       ffdec:characterId="3430"
       height="115.95"
       transform="matrix(0.8232,0,0,0.8232,-9.7143,-47.0895)"
       width="23.6"
       xlink:href="#sprite0"
       id="use1" />
  </g>
  <defs
     id="defs5">
    <g
       id="sprite0"
       transform="translate(11.8,57.2)">
      <use
         ffdec:characterId="3429"
         height="115.7"
         transform="translate(-10.4,-57.05)"
         width="20.799999"
         xlink:href="#sprite1"
         id="use2" />
    </g>
    <g
       id="sprite1"
       transform="translate(10.4,57.05)">
      <use
         ffdec:characterId="3428"
         height="115.7"
         transform="translate(-10.4,-57.05)"
         width="20.799999"
         xlink:href="#shape0"
         id="use3" />
    </g>
    <g
       id="shape0"
       transform="translate(10.4,57.05)">
      <path
         d="m 1.9,-55.8 -0.35,4.95 0.1,68.4 v 3.05 l -0.1,0.95 0.35,0.05 0.4,0.1 0.35,0.05 0.45,0.1 q 7.3,1.65 7.3,8.95 l -0.2,2.25 q -0.55,1.35 -2.05,1.9 1.3,0.75 1.4,2.1 L 9.7,37.9 9.6,38.3 v 0.4 L 9.1,39.4 8.25,40.05 8.15,40.1 7.6,40.4 q 1.05,0.5 1.05,3.55 0,0.65 -1.05,1.45 -0.55,0.45 -1.3,0.7 0.5,0.65 0.5,1.65 0,1.4 -3.55,2.4 l 4.35,2.4 q 2.1,1.1 2.1,2.3 0,0.5 -1.6,1.75 -1.9,1.45 -3.75,1.45 L 2.65,57.8 v 0.7 L 1.1,58.65 H 0 -1.1 L -2.65,58.5 v -0.7 l -1.7,0.25 q -1.85,0 -3.75,-1.45 -1.6,-1.25 -1.6,-1.75 0,-1.2 2.1,-2.3 l 4.35,-2.4 q -3.55,-1 -3.55,-2.4 0,-1 0.5,-1.65 -0.75,-0.25 -1.3,-0.7 -1.05,-0.8 -1.05,-1.45 0,-3.05 1.05,-3.55 L -8.15,40.1 -8.25,40.05 -9.1,39.4 -9.6,38.7 v -0.4 l -0.1,-0.4 0.15,-0.85 q 0.1,-1.35 1.4,-2.1 -1.5,-0.55 -2.05,-1.9 l -0.2,-2.25 q 0,-7.3 7.3,-8.95 l 0.45,-0.1 h 0.15 l 0.6,-0.15 1.35,-0.1 -0.1,-0.95 v -3 l 0.1,-68.4 -0.45,-4.8 v -1.4 h 2.9 v 1.25 M 2,24.4 1.9,24.35 0.7,24.15 0,24.05 -1.9,24.35 Q -4.65,25 -6.15,26.4 -7.5,27.55 -7.8,29.3 l -0.15,1.3 q 0,1.7 0.2,2.1 0.45,0.8 4.7,0.8 l 2.2,0.1 0.7,0.1 0.15,0.05 0.15,-0.05 0.7,-0.1 2.2,-0.1 q 4.25,0 4.7,-0.8 0.2,-0.4 0.2,-2.1 0,-3.15 -2.6,-4.85 L 5.1,26.3 4.7,27.6 q 0,0.55 0.65,1.45 l 0.6,1 -0.05,0.45 v 0.1 L 5.55,30.7 Q 4.1,30.7 3.5,28.6 L 3.2,26.45 q 0,-1 0.45,-1.55 L 2,24.4 m -8.25,6.75 2.35,-1.8 -0.65,-1.4 0.05,-0.45 q 0.55,-0.15 1.8,1 2.3,-1.5 2.3,-0.25 l -1.3,1.3 q 1.3,1.5 1.3,2.2 l -0.1,0.4 -0.85,0.25 -0.5,-0.15 -1.3,-1.55 -1.6,1.2 -0.75,0.4 q -0.95,0 -0.95,-0.8 l 0.2,-0.35 M 6.9,37.9 7,37.4 6.6,37.3 4.45,37.4 1.3,37.3 1.35,38.5 3.1,38.45 Q 6.2,38.5 6.9,37.9 m -1.55,4.3 -4,-0.1 -0.05,1.7 0.35,0.1 q 4.2,0.25 4.2,-0.6 L 5.35,42.2 M 5.75,54.8 5.65,54.65 2.8,53 0.95,52 v 0.55 2.2 h 0.1 l 0.45,0.1 0.8,0.3 1.3,0.4 q 1.3,0 2.15,-0.75 M 1.45,46.25 H 1.25 L 1.2,47.5 1.65,47.9 h 0.3 L 2.7,47.7 q 0.6,-0.1 0.6,-0.6 l -0.05,-0.25 -1.8,-0.6 m -4.8,-2.3 1.7,-0.05 1.05,-0.2 0.05,-1.85 -2.75,0.4 -2.05,-0.05 -0.5,1.1 q 0,0.65 2.5,0.65 m 0.5,-5.5 2.45,0.2 0.1,-1.45 -2.25,0.2 h -1.9 l -2.15,-0.1 -0.4,0.1 0.1,0.5 q 0.7,0.6 3.8,0.55 h 0.25 m 1.4,7.8 -1.8,0.6 -0.05,0.25 q 0,0.5 0.6,0.6 l 0.75,0.2 h 0.3 l 1,-0.7 v -1.05 l -0.8,0.1 m -3.95,8.8 1.8,0.5 1.3,-0.4 1.25,-0.4 0.3,0.05 0.05,-1.35 v -0.9 -0.7 l -0.75,0.4 q -2.85,1.5 -4,2.3 l -0.2,0.1 -0.1,0.15 0.35,0.25"
         fill="#9a9a9a"
         fill-rule="evenodd"
         stroke="none"
         id="path3" />
      <path
         d="m -7.8,29.3 q 0.3,-1.75 1.65,-2.9 1.5,-1.4 4.25,-2.05 l 1.9,-0.3 0.7,0.1 1.2,0.2 0.1,0.05 q 1.05,1.1 1.05,3.5 0,1.3 -0.75,2.45 -0.95,1.4 -2.8,1.8 l 0.1,-0.4 q 0,-0.7 -1.3,-2.2 l 1.3,-1.3 q 0,-1.25 -2.3,0.25 -1.25,-1.15 -1.8,-1 l -0.05,0.45 0.65,1.4 -2.35,1.8 L -7,30.5 -7.8,29.3 m 5.95,2.95 H -1.9 l -2.85,-0.35 1.6,-1.2 1.3,1.55 m -1.45,10 2.75,-0.4 -0.05,1.85 -1.05,0.2 -1.7,0.05 0.05,-1.7 m 0.75,-4.85 2.25,-0.2 -0.1,1.45 -2.45,-0.2 0.3,-1.05 m 1.1,8.85 0.8,-0.1 v 1.05 l -1,0.7 h -0.3 L -2.7,47.7 q -0.6,-0.1 -0.6,-0.6 l 0.05,-0.25 1.8,-0.6"
         fill="#d2d2d2"
         fill-rule="evenodd"
         stroke="none"
         id="path4" />
      <path
         d="m -7.8,29.3 0.8,1.2 0.75,0.65 -0.2,0.35 q 0,0.8 0.95,0.8 l 0.75,-0.4 2.85,0.35 h 0.05 l 0.5,0.15 0.85,-0.25 Q 1.35,31.75 2.3,30.35 3.05,29.2 3.05,27.9 3.05,25.5 2,24.4 l 1.65,0.5 Q 3.2,25.45 3.2,26.45 l 0.3,2.15 q 0.6,2.1 2.05,2.1 L 5.9,30.6 v -0.1 l 0.05,-0.45 -0.6,-1 Q 4.7,28.15 4.7,27.6 l 0.4,-1.3 0.25,-0.55 q 2.6,1.7 2.6,4.85 0,1.7 -0.2,2.1 -0.45,0.8 -4.7,0.8 l -2.2,0.1 -0.7,0.1 -0.15,0.05 -0.15,-0.05 -0.7,-0.1 -2.2,-0.1 q -4.25,0 -4.7,-0.8 -0.2,-0.4 -0.2,-2.1 L -7.8,29.3 M 6.9,37.9 Q 6.2,38.5 3.1,38.45 L 1.35,38.5 1.3,37.3 4.45,37.4 6.6,37.3 7,37.4 6.9,37.9 m -1.55,4.3 0.5,1.1 q 0,0.85 -4.2,0.6 l -0.35,-0.1 0.05,-1.7 4,0.1 m -3.9,4.05 1.8,0.6 0.05,0.25 q 0,0.5 -0.6,0.6 L 1.95,47.9 H 1.65 L 1.2,47.5 1.25,46.25 h 0.2 m 4.3,8.55 Q 4.9,55.55 3.6,55.55 L 2.3,55.15 1.5,54.85 1.05,54.75 H 0.95 V 52.55 52 l 1.85,1 2.85,1.65 0.1,0.15 m -9.05,-12.55 -0.05,1.7 q -2.5,0 -2.5,-0.65 l 0.5,-1.1 2.05,0.05 m 0.75,-4.85 -0.3,1.05 H -3.1 Q -6.2,38.5 -6.9,37.9 l -0.1,-0.5 0.4,-0.1 2.15,0.1 h 1.9 m -2.9,17.15 q 1.15,-0.8 4,-2.3 l 0.75,-0.4 v 0.7 0.9 l -0.05,1.35 -0.3,-0.05 -1.25,0.4 -1.3,0.4 -1.8,-0.5 -0.05,-0.4 v -0.1"
         fill="#c2c2c2"
         fill-rule="evenodd"
         stroke="none"
         id="path5" />
    </g>
  </defs>
</svg>
