<?xml version="1.0" encoding="UTF-8" standalone="no"?>
<svg
   ffdec:objectType="frame"
   height="72.323128"
   width="75.099998"
   version="1.1"
   id="svg49"
   sodipodi:docname="1.svg"
   xmlns:inkscape="http://www.inkscape.org/namespaces/inkscape"
   xmlns:sodipodi="http://sodipodi.sourceforge.net/DTD/sodipodi-0.dtd"
   xmlns:xlink="http://www.w3.org/1999/xlink"
   xmlns="http://www.w3.org/2000/svg"
   xmlns:svg="http://www.w3.org/2000/svg"
   xmlns:ffdec="https://www.free-decompiler.com/flash">
  <sodipodi:namedview
     id="namedview49"
     pagecolor="#ffffff"
     bordercolor="#000000"
     borderopacity="0.25"
     inkscape:showpageshadow="2"
     inkscape:pageopacity="0.0"
     inkscape:pagecheckerboard="0"
     inkscape:deskcolor="#d1d1d1"
     fit-margin-top="5"
     fit-margin-left="5"
     fit-margin-right="5"
     fit-margin-bottom="5" />
  <g
     transform="translate(37.6,40.940909)"
     id="g14">
    <use
       ffdec:characterId="653"
       height="53.900002"
       transform="matrix(0,1,-1.191,0.0076,31.5932,14.9443)"
       width="16.4"
       xlink:href="#sprite0"
       id="use1" />
    <use
       ffdec:characterId="651"
       height="12.45"
       transform="translate(-33.15,-29.7)"
       width="19.1"
       xlink:href="#sprite1"
       id="use2" />
    <use
       ffdec:characterId="750"
       height="18.5"
       transform="matrix(0.6932,-0.1857,0.2095,0.7819,-20.427,2.5529)"
       width="65.949997"
       xlink:href="#sprite2"
       id="use3" />
    <use
       ffdec:characterId="651"
       height="12.45"
       transform="translate(14.85,-29.7)"
       width="19.1"
       xlink:href="#sprite1"
       id="use4" />
    <use
       ffdec:characterId="782"
       height="14.95"
       transform="matrix(1,0.0713,0,1,-22.5,-42.9035)"
       width="45"
       xlink:href="#sprite3"
       id="use5" />
    <use
       ffdec:characterId="653"
       height="53.900002"
       transform="matrix(1,0,0,1.1432,-37.6,-36.1574)"
       width="16.4"
       xlink:href="#sprite0"
       id="use6" />
    <use
       ffdec:characterId="653"
       height="53.900002"
       transform="matrix(1,0,0,-1.1432,21.1,25.3574)"
       width="16.4"
       xlink:href="#sprite0"
       id="use7" />
    <use
       ffdec:characterId="752"
       height="60.849998"
       transform="matrix(0.859,0,0.0353,-0.859,9.7,25.25)"
       width="22.75"
       xlink:href="#sprite4"
       id="use8" />
    <use
       ffdec:characterId="748"
       height="20.049999"
       transform="matrix(0.9214,-0.0598,0.1198,0.9135,-28.5308,-15.1403)"
       width="62.400002"
       xlink:href="#sprite5"
       id="use9" />
    <use
       ffdec:characterId="788"
       height="29.15"
       transform="matrix(0.9941,-0.1084,-0.1084,-0.9941,-18.2,2.55)"
       width="41.200001"
       xlink:href="#sprite6"
       id="use10" />
    <use
       ffdec:characterId="752"
       height="60.849998"
       transform="matrix(-0.859,0,-0.0353,-0.859,-9.3,24.5)"
       width="22.75"
       xlink:href="#sprite4"
       id="use11" />
    <use
       ffdec:characterId="784"
       height="33.650002"
       transform="matrix(1,0.1046,-0.0997,0.9896,-13.5252,-8.0706)"
       width="47.400002"
       xlink:href="#sprite7"
       id="use12" />
    <use
       ffdec:characterId="653"
       height="53.900002"
       transform="matrix(0,1,-1.0095,0,27.0071,-37.95)"
       width="16.4"
       xlink:href="#sprite0"
       id="use13" />
    <use
       ffdec:characterId="754"
       height="52.650002"
       transform="rotate(90,4.65,15.4)"
       width="18.450001"
       xlink:href="#sprite8"
       id="use14" />
  </g>
  <defs
     id="defs49">
    <g
       id="sprite0"
       transform="translate(0.75,0.75)">
      <use
         ffdec:characterId="652"
         height="53.900002"
         transform="translate(-0.75,-0.75)"
         width="16.4"
         xlink:href="#shape0"
         id="use15" />
    </g>
    <g
       id="shape0"
       transform="translate(0.75,0.75)">
      <path
         d="m 10.75,9.05 0.2,1.6 H 11 l -0.1,32.7 q 0.4,0.15 0.85,0.45 2.3,1.55 2.3,3.85 0,1 -0.7,2.3 -1.15,2.1 -3.35,2.1 -1.8,0 -2.6,-0.95 H 7.35 Q 6.45,52.4 4.7,52.4 1.85,52.4 0.65,50.55 0,49.5 0,48.2 0,44.3 3.15,43.5 L 4.1,43.35 v -0.2 L 3.95,41.65 3.9,37.65 4,22.4 H 4.05 L 4.1,10.65 V 9.1 L 3.15,8.6 q -2.3,-1.55 -2.3,-3.85 0,-1 0.7,-2.3 1.15,-2.1 3.35,-2.1 1.8,0 2.6,0.95 H 7.55 Q 8.45,0 10.2,0 q 2.85,0 4.05,1.85 0.65,1.05 0.65,2.35 0,3.9 -3.15,4.7 l -1,0.15 M 7.4,4.5 Q 7.15,4.5 6.65,3.45 6.1,2.4 5.15,2.4 3.6,2.4 3,4 L 2.75,5.6 q 0,0.5 0.3,0.9 Q 3.5,7.05 4.4,7.05 H 4.45 Q 4.75,6.8 5.2,6.8 q 0.85,0 1.1,0.8 v 28.55 l -0.15,6.4 q 0,1.35 0.15,2.25 v 0.15 Q 5.7,44.8 4.9,44.95 2.25,45.5 2.25,47.9 l 0.2,1.15 Q 3,50 5.05,50 7.1,50 7.45,47.9 H 7.5 q 0.25,0 0.75,1.05 Q 8.8,50 9.75,50 11.3,50 11.9,48.4 l 0.25,-1.6 -0.3,-0.9 Q 11.4,45.35 10.5,45.35 H 10.45 L 9.7,45.6 Q 8.95,45.6 8.65,44.95 9.25,41.2 9,26.05 V 10.85 L 9.15,7.5 V 7.35 h 0.3 Q 12.4,7.35 12.4,4.8 12.4,2.4 10.05,2.3 7.8,2.25 7.65,4.45 L 7.4,4.5"
         fill="#6b6b6b"
         fill-rule="evenodd"
         stroke="none"
         id="path15" />
      <path
         d="M 7.4,4.5 7.65,4.45 q 0.15,-2.2 2.4,-2.15 2.35,0.1 2.35,2.5 0,2.55 -2.95,2.55 H 9.15 V 7.5 L 9,10.85 v 15.2 Q 9.25,41.2 8.65,44.95 8.95,45.6 9.7,45.6 l 0.75,-0.25 h 0.05 q 0.9,0 1.35,0.55 l 0.3,0.9 -0.25,1.6 Q 11.3,50 9.75,50 8.8,50 8.25,48.95 7.75,47.9 7.5,47.9 H 7.45 Q 7.1,50 5.05,50 3,50 2.45,49.05 L 2.25,47.9 q 0,-2.4 2.65,-2.95 0.8,-0.15 1.4,0 V 44.8 Q 6.15,43.9 6.15,42.55 L 6.3,36.15 V 7.6 Q 6.05,6.8 5.2,6.8 4.75,6.8 4.45,7.05 H 4.4 Q 3.5,7.05 3.05,6.5 2.75,6.1 2.75,5.6 L 3,4 Q 3.6,2.4 5.15,2.4 6.1,2.4 6.65,3.45 7.15,4.5 7.4,4.5"
         fill="#ffffff"
         fill-rule="evenodd"
         stroke="none"
         id="path16" />
      <path
         d="m 10.75,9.05 0.2,1.6 H 11 l -0.1,32.7 q 0.4,0.15 0.85,0.45 2.3,1.55 2.3,3.85 0,1 -0.7,2.3 -1.15,2.1 -3.35,2.1 -1.8,0 -2.6,-0.95 H 7.35 Q 6.45,52.4 4.7,52.4 1.85,52.4 0.65,50.55 0,49.5 0,48.2 0,44.3 3.15,43.5 L 4.1,43.35 v -0.2 L 3.95,41.65 3.9,37.65 4,22.4 H 4.05 L 4.1,10.65 V 9.1 L 3.15,8.6 q -2.3,-1.55 -2.3,-3.85 0,-1 0.7,-2.3 1.15,-2.1 3.35,-2.1 1.8,0 2.6,0.95 H 7.55 Q 8.45,0 10.2,0 q 2.85,0 4.05,1.85 0.65,1.05 0.65,2.35 0,3.9 -3.15,4.7 z"
         fill="none"
         stroke="#6b6b6b"
         stroke-linecap="round"
         stroke-linejoin="round"
         stroke-width="1.5"
         id="path17" />
    </g>
    <g
       id="sprite1"
       transform="translate(0.75,0.75)">
      <use
         ffdec:characterId="650"
         height="12.45"
         transform="translate(-0.75,-0.75)"
         width="19.1"
         xlink:href="#shape1"
         id="use17" />
    </g>
    <g
       id="shape1"
       transform="translate(0.75,0.75)">
      <path
         d="M 10.15,8.8 V 8.7 L 8.8,8.8 7.45,8.7 V 8.8 L 6,8.7 Q 5.2,8.55 5.15,7.8 L 5.2,7.35 8.6,7.15 12.4,7.35 12.45,7.8 Q 12.4,8.55 11.6,8.7 l -1.45,0.1 m 0,-7.3 V 1.4 q 2.65,0.1 2.4,1.65 L 12.3,4.2 q 0,0.5 0.75,0.5 0.65,0 1.15,-0.4 l 0.75,-0.4 q 1.3,0 1.15,1.3 l -0.05,1 -0.4,0.45 L 14.45,6.9 13.6,6.7 13.05,6.4 H 13 l -0.35,-0.15 -0.1,0.2 -1.4,-0.1 h -1 -1.1 -2.6 L 5.05,6.45 4.95,6.25 4.6,6.4 H 4.55 L 4,6.7 3.15,6.9 1.95,6.65 1.55,6.2 1.5,5.2 Q 1.35,3.9 2.65,3.9 L 3.4,4.3 Q 3.9,4.7 4.55,4.7 5.3,4.7 5.3,4.2 L 5.05,3.05 Q 4.8,1.5 7.45,1.4 V 1.5 L 8.9,1.4 10.15,1.5"
         fill="#d2d2d2"
         fill-rule="evenodd"
         stroke="none"
         id="path18" />
      <path
         d="m 14.15,2.55 q 2.45,-0.45 3.2,1.3 L 17.6,6.2 q 0,2.35 -2.65,2.35 L 14.1,8.4 14.3,9.3 q 0,1.65 -4.4,1.65 H 8.7 7.7 Q 3.3,10.95 3.3,9.3 L 3.5,8.4 2.65,8.55 Q 0,8.55 0,6.2 0,4.5 0.25,3.85 1,2.1 3.45,2.55 3.55,1.4 3.95,1 4.7,0.2 7.05,0 L 8.75,0.05 10.55,0 q 2.35,0.2 3.1,1 0.4,0.4 0.5,1.55 M 10.15,1.5 8.9,1.4 7.45,1.5 V 1.4 Q 4.8,1.5 5.05,3.05 L 5.3,4.2 Q 5.3,4.7 4.55,4.7 3.9,4.7 3.4,4.3 L 2.65,3.9 q -1.3,0 -1.15,1.3 l 0.05,1 0.4,0.45 L 3.15,6.9 4,6.7 4.55,6.4 H 4.6 l 0.35,-0.15 0.1,0.2 1.4,-0.1 h 2.6 1.1 1 l 1.4,0.1 0.1,-0.2 L 13,6.4 h 0.05 l 0.55,0.3 0.85,0.2 1.2,-0.25 0.4,-0.45 0.05,-1 Q 16.25,3.9 14.95,3.9 L 14.2,4.3 Q 13.7,4.7 13.05,4.7 12.3,4.7 12.3,4.2 L 12.55,3.05 Q 12.8,1.5 10.15,1.4 v 0.1 m 0,7.3 1.45,-0.1 Q 12.4,8.55 12.45,7.8 L 12.4,7.35 8.6,7.15 5.2,7.35 5.15,7.8 Q 5.2,8.55 6,8.7 L 7.45,8.8 V 8.7 L 8.8,8.8 10.15,8.7 v 0.1"
         fill="#9a9a9a"
         fill-rule="evenodd"
         stroke="none"
         id="path19" />
      <path
         d="m 14.15,2.55 q 2.45,-0.45 3.2,1.3 L 17.6,6.2 q 0,2.35 -2.65,2.35 L 14.1,8.4 14.3,9.3 q 0,1.65 -4.4,1.65 H 8.7 7.7 Q 3.3,10.95 3.3,9.3 L 3.5,8.4 2.65,8.55 Q 0,8.55 0,6.2 0,4.5 0.25,3.85 1,2.1 3.45,2.55 3.55,1.4 3.95,1 4.7,0.2 7.05,0 L 8.75,0.05 10.55,0 q 2.35,0.2 3.1,1 0.4,0.4 0.5,1.55 z"
         fill="none"
         stroke="#9a9a9a"
         stroke-linecap="round"
         stroke-linejoin="round"
         stroke-width="1.5"
         id="path20" />
    </g>
    <g
       id="sprite2"
       transform="translate(0.75,0.75)">
      <use
         ffdec:characterId="749"
         height="18.5"
         transform="translate(-0.75,-0.75)"
         width="65.949997"
         xlink:href="#shape2"
         id="use20" />
    </g>
    <g
       id="shape2"
       transform="translate(0.75,0.75)">
      <path
         d="m 62.6,8.8 q -2.45,2.75 -8.8,4.45 h -7.6 l -3,-0.9 q -1.6,1.1 -8.3,2.5 Q 24.55,17 12.1,17 4.6,17 1.65,14.1 0,12.5 0,10.35 0,7.2 2.2,3.85 5.7,-1.4 12.55,0.5 L 22,0.6 25.2,0.85 30.1,0.25 48.05,0.15 V 0.1 H 61.2 q 1.75,0.05 2.6,1.35 0.65,0.9 0.65,2.05 0,3.25 -1.85,5.3 M 42.2,5.55 37.7,4.9 25,3.1 19.15,3.35 7.15,3.65 H 6.5 Q 5.35,4.4 4.5,5.75 3.05,8.1 3.05,10.5 q 0,1.1 1.9,2.2 2.5,1.4 7.15,1.4 L 25.45,13.15 32.8,12.1 38.6,11 39.45,10.8 38.75,10.5 Q 34.85,8.8 27,8.35 H 16.7 q -2.35,0.8 -8.6,1 -1.25,0 -1.25,-1.4 0,-0.9 1.4,-1.1 l 8.25,-0.7 h 10.8 q 7.75,0.55 11.6,2.35 4.6,2.1 7.7,2.6 L 53.7,11 q 3.25,-0.35 6,-2.8 2.4,-2.1 2.4,-3.6 0,-1.1 -0.3,-1.5 Q 60.9,2.05 57.75,2.25 L 55.45,2.3 H 53.1 l -5,0.05 -5.05,0.25 -3.75,0.05 2.2,0.5 q 8.45,2.3 13,2.95 L 53.7,6.45 49.85,6.65 48.6,6.5 42.2,5.55"
         fill="#6b6b6b"
         fill-rule="evenodd"
         stroke="none"
         id="path21" />
      <path
         d="m 55.45,2.3 4.5,0.1 0.15,0.1 0.1,0.4 q 0,0.55 -0.35,0.65 L 55.8,3.7 53.7,3.6 51.85,3.35 q -0.1,0.3 -0.1,-0.35 0,-0.6 1.35,-0.7 h 2.35 M 48.6,6.5 47.5,7 46.45,7.25 42.5,6.75 41.35,5.9 42.2,5.55 48.6,6.5 M 27.85,4.25 27.7,4.75 26.25,4.95 h -1.9 L 23.9,4.8 q -0.15,-0.1 -0.15,-0.55 0,-1.15 4.1,0 m -10.15,7 q 0.3,-0.5 1,-0.65 l 0.3,0.6 -0.65,0.65 -0.65,-0.6 M 15.8,11.2 q -1.1,1.3 -3.2,1.25 L 9.9,12.2 8.55,12 q -0.2,0 -0.2,-0.6 0,-0.85 2.15,-0.9 l 5.2,0.5 0.1,0.2 M 17.7,4.65 Q 15.95,5.45 11.75,6.1 L 6.85,6.65 6,6.45 5.55,6.1 q 0.7,-1.35 5.7,-1.95 5,-0.6 6.45,0.5"
         fill="#ffffff"
         fill-rule="evenodd"
         stroke="none"
         id="path22" />
      <path
         d="m 55.45,2.3 2.3,-0.05 q 3.15,-0.2 4.05,0.85 0.3,0.4 0.3,1.5 0,1.5 -2.4,3.6 -2.75,2.45 -6,2.8 l -7.1,0.1 Q 43.5,10.6 38.9,8.5 35.05,6.7 27.3,6.15 H 16.5 l -8.25,0.7 q -1.4,0.2 -1.4,1.1 0,1.4 1.25,1.4 6.25,-0.2 8.6,-1 H 27 q 7.85,0.45 11.75,2.15 l 0.7,0.3 -0.85,0.2 -5.8,1.1 -7.35,1.05 -13.35,0.95 q -4.65,0 -7.15,-1.4 -1.9,-1.1 -1.9,-2.2 0,-2.4 1.45,-4.75 0.85,-1.35 2,-2.1 h 0.65 l 12,-0.3 L 25,3.1 37.7,4.9 42.2,5.55 41.35,5.9 42.5,6.75 46.45,7.25 47.5,7 48.6,6.5 49.85,6.65 53.7,6.45 54.5,6.1 Q 49.95,5.45 41.5,3.15 L 39.3,2.65 43.05,2.6 48.1,2.35 53.1,2.3 q -1.35,0.1 -1.35,0.7 0,0.65 0.1,0.35 L 53.7,3.6 55.8,3.7 59.85,3.55 Q 60.2,3.45 60.2,2.9 L 60.1,2.5 59.95,2.4 55.45,2.3 M 17.7,4.65 q -1.45,-1.1 -6.45,-0.5 -5,0.6 -5.7,1.95 L 6,6.45 6.85,6.65 11.75,6.1 Q 15.95,5.45 17.7,4.65 M 15.8,11.2 15.7,11 10.5,10.5 q -2.15,0.05 -2.15,0.9 0,0.6 0.2,0.6 l 1.35,0.2 2.7,0.25 q 2.1,0.05 3.2,-1.25 m 1.9,0.05 0.65,0.6 L 19,11.2 18.7,10.6 q -0.7,0.15 -1,0.65 m 10.15,-7 q -4.1,-1.15 -4.1,0 0,0.45 0.15,0.55 l 0.45,0.15 h 1.9 l 1.45,-0.2 0.15,-0.5"
         fill="#cebebe"
         fill-rule="evenodd"
         stroke="none"
         id="path23" />
      <path
         d="m 62.6,8.8 q -2.45,2.75 -8.8,4.45 h -7.6 l -3,-0.9 q -1.6,1.1 -8.3,2.5 Q 24.55,17 12.1,17 4.6,17 1.65,14.1 0,12.5 0,10.35 0,7.2 2.2,3.85 5.7,-1.4 12.55,0.5 L 22,0.6 25.2,0.85 30.1,0.25 48.05,0.15 V 0.1 H 61.2 q 1.75,0.05 2.6,1.35 0.65,0.9 0.65,2.05 0,3.25 -1.85,5.3 z"
         fill="none"
         stroke="#6b6b6b"
         stroke-linecap="round"
         stroke-linejoin="round"
         stroke-width="1.5"
         id="path24" />
    </g>
    <g
       id="sprite3"
       transform="translate(0.75,0.75)">
      <use
         ffdec:characterId="781"
         height="14.95"
         transform="translate(-0.75,-0.75)"
         width="45"
         xlink:href="#shape3"
         id="use24" />
    </g>
    <g
       id="shape3"
       transform="translate(0.75,0.75)">
      <path
         d="m 43.35,5.8 0.15,1.7 q 0,0.75 -0.55,1.2 L 42.7,8.85 q -2.05,1.25 -11.85,1.25 -1,0 -1.4,-0.4 H 29 L 28.45,9.65 q -0.65,1.1 -1.95,1.7 h -2.4 v 0.7 l -2.1,0.1 q -3.4,0 -4.5,-0.8 l -0.15,-0.1 Q 16.85,10.85 16,10.6 l -0.65,0.2 -2.25,0.45 -0.1,0.1 q -1.45,1.5 -5.15,2.1 H 5.25 L 4.9,13.2 Q 2.4,13 1.1,11.35 L 0.8,10.95 Q 0,9.6 0,8.35 0,6.05 2.1,3.95 4.5,1.55 7.85,3.6 V 3.55 Q 8.65,2.8 11.5,3.1 L 12.65,4 14.4,3.5 15.15,3.35 18.9,2.85 q 0.7,0.15 1.6,1.4 l 0.05,0.1 0.3,-0.25 Q 21,3.1 21.9,1.9 22.85,0.55 24.1,0.2 l 1.3,-0.1 q 0.75,-0.05 1.5,0.85 L 28.25,0.8 q 0.8,0.1 1.35,0.5 0.85,-0.55 3.65,-1.05 l 1.6,-0.2 h 1.5 q 1.4,0.15 1.8,0.9 l 0.1,0.25 0.7,-0.15 0.2,-0.1 0.2,0.1 h 0.25 q 1.85,0.1 1.85,1.15 l -0.1,2 h 0.25 q 1.05,0 1.5,0.75 l 0.25,0.85 m -2.1,0.8 V 6.4 L 40,6.5 q -3.5,0 -3.55,-2.45 l -0.2,-1.7 Q 35.9,1.6 34.45,1.6 32.8,1.6 31.65,2.1 L 30.6,2.55 30.75,3 q 1,2.65 1,4.25 L 31.6,8.05 40,7.85 q 1.05,0 1.25,-0.4 V 6.6 M 38.35,3 38.1,3.85 40.1,4.2 40,2.75 38.8,2.65 Q 38.6,2.8 38.35,3 M 28.15,2.85 Q 29,4.7 29,6.5 L 28.95,7.95 30.2,7.2 Q 30.15,5.15 29.9,4.15 29.6,3 28.15,2.85 m -5.85,2.2 1.6,0.05 0.2,0.1 0.8,0.65 -0.35,0.5 L 24.1,6.8 23.9,6.85 H 21.25 Q 20.65,6.85 19.5,5.7 18.3,4.5 17.75,4.5 L 15.45,4.85 14.4,5.1 13.6,5.15 13.75,5.5 13.9,7.65 V 8.1 L 14.4,8.05 14.95,8 q 1.5,0 2.6,0.7 l 0.55,0.4 q 1.25,1.1 3.9,1.1 l 2.1,-0.15 Q 25.9,9.7 26.7,8.7 L 26.9,8.4 27.2,6.45 Q 27.2,4.2 26.35,3.35 25.85,2.85 24.1,2.3 24.05,3 22.6,4.25 V 4.3 L 22.45,4.65 22.3,5.05 M 12.2,9.35 12.35,7.8 q 0,-1.55 -0.2,-1.9 -0.55,-1.1 -2.7,-1.15 1.6,3.7 0.8,6.15 1.6,-0.7 1.95,-1.55 m -7.9,1.8 1.35,0.2 0.8,0.2 0.2,-0.2 Q 8.4,9.65 8.8,8.3 L 8.25,6.45 8.15,6.2 5.75,4.5 4.6,4.6 Q 2,7.6 2,8.3 q 0,2.6 2.3,2.85"
         fill="#9a9a9a"
         fill-rule="evenodd"
         stroke="none"
         id="path25" />
      <path
         d="M 34.9,2.6 35,3.1 q 0,0.5 -0.55,0.8 L 33.2,4.25 32.35,4.1 32.25,3.35 q 0.35,-0.5 1,-0.8 L 34.75,2.4 34.9,2.6 M 16.2,5.05 q 0.7,-0.3 2.25,0.3 l 0.2,0.4 Q 17.6,6.6 16.9,6.6 l -1,-0.2 q -0.15,0.05 -0.15,-0.55 0,-0.55 0.45,-0.8 M 5.5,7.4 q -1.1,0 -1.1,-1.1 0,-1.1 1.1,-1.1 1.1,0 1.1,1.1 L 6.4,6.9 Q 6.1,7.4 5.5,7.4"
         fill="#d2d2d2"
         fill-rule="evenodd"
         stroke="none"
         id="path26" />
      <path
         d="M 38.35,3 Q 38.6,2.8 38.8,2.65 L 40,2.75 40.1,4.2 38.1,3.85 38.35,3"
         fill="#c2c2c2"
         fill-rule="evenodd"
         stroke="none"
         id="path27" />
      <path
         d="M 22.3,5.05 22.45,4.65 22.6,4.3 V 4.25 Q 24.05,3 24.1,2.3 25.85,2.85 26.35,3.35 27.2,4.2 27.2,6.45 L 26.9,8.4 26.7,8.7 q -0.8,1 -2.6,1.35 L 22,10.2 q -2.65,0 -3.9,-1.1 L 17.55,8.7 Q 16.45,8 14.95,8 L 14.4,8.05 13.9,8.1 V 7.65 L 13.75,5.5 13.6,5.15 14.4,5.1 15.45,4.85 17.75,4.5 q 0.55,0 1.75,1.2 1.15,1.15 1.75,1.15 H 23.9 L 24.1,6.8 24.55,6.35 24.9,5.85 24.1,5.2 23.9,5.1 22.3,5.05 m 5.85,-2.2 q 1.45,0.15 1.75,1.3 0.25,1 0.3,3.05 L 28.95,7.95 29,6.5 Q 29,4.7 28.15,2.85 M 16.2,5.05 q -0.45,0.25 -0.45,0.8 0,0.6 0.15,0.55 l 1,0.2 q 0.7,0 1.75,-0.85 l -0.2,-0.4 Q 16.9,4.75 16.2,5.05 m -4,4.3 q -0.35,0.85 -1.95,1.55 0.8,-2.45 -0.8,-6.15 2.15,0.05 2.7,1.15 0.2,0.35 0.2,1.9 L 12.2,9.35"
         fill="#b5b0b0"
         fill-rule="evenodd"
         stroke="none"
         id="path28" />
      <path
         d="m 41.25,6.6 v 0.85 q -0.2,0.4 -1.25,0.4 l -8.4,0.2 0.15,-0.8 q 0,-1.6 -1,-4.25 L 30.6,2.55 31.65,2.1 q 1.15,-0.5 2.8,-0.5 1.45,0 1.8,0.75 l 0.2,1.7 Q 36.5,6.5 40,6.5 l 1.25,-0.1 v 0.2 m -6.35,-4 -0.15,-0.2 -1.5,0.15 q -0.65,0.3 -1,0.8 L 32.35,4.1 33.2,4.25 34.45,3.9 Q 35,3.6 35,3.1 L 34.9,2.6 M 4.3,11.15 Q 2,10.9 2,8.3 2,7.6 4.6,4.6 L 5.75,4.5 8.15,6.2 8.25,6.45 8.8,8.3 Q 8.4,9.65 6.65,11.35 l -0.2,0.2 -0.8,-0.2 -1.35,-0.2 M 5.5,7.4 q 0.6,0 0.9,-0.5 L 6.6,6.3 q 0,-1.1 -1.1,-1.1 -1.1,0 -1.1,1.1 0,1.1 1.1,1.1"
         fill="#aba6a6"
         fill-rule="evenodd"
         stroke="none"
         id="path29" />
      <path
         d="m 43.35,5.8 0.15,1.7 q 0,0.75 -0.55,1.2 L 42.7,8.85 q -2.05,1.25 -11.85,1.25 -1,0 -1.4,-0.4 H 29 L 28.45,9.65 q -0.65,1.1 -1.95,1.7 h -2.4 v 0.7 l -2.1,0.1 q -3.4,0 -4.5,-0.8 l -0.15,-0.1 Q 16.85,10.85 16,10.6 l -0.65,0.2 -2.25,0.45 -0.1,0.1 q -1.45,1.5 -5.15,2.1 H 5.25 L 4.9,13.2 Q 2.4,13 1.1,11.35 L 0.8,10.95 Q 0,9.6 0,8.35 0,6.05 2.1,3.95 4.5,1.55 7.85,3.6 V 3.55 Q 8.65,2.8 11.5,3.1 L 12.65,4 14.4,3.5 15.15,3.35 18.9,2.85 q 0.7,0.15 1.6,1.4 l 0.05,0.1 0.3,-0.25 Q 21,3.1 21.9,1.9 22.85,0.55 24.1,0.2 l 1.3,-0.1 q 0.75,-0.05 1.5,0.85 L 28.25,0.8 q 0.8,0.1 1.35,0.5 0.85,-0.55 3.65,-1.05 l 1.6,-0.2 h 1.5 q 1.4,0.15 1.8,0.9 l 0.1,0.25 0.7,-0.15 0.2,-0.1 0.2,0.1 h 0.25 q 1.85,0.1 1.85,1.15 l -0.1,2 h 0.25 q 1.05,0 1.5,0.75 z"
         fill="none"
         stroke="#9a9a9a"
         stroke-linecap="round"
         stroke-linejoin="round"
         stroke-width="1.5"
         id="path30" />
    </g>
    <g
       id="sprite4">
      <use
         ffdec:characterId="751"
         height="60.849998"
         width="22.75"
         xlink:href="#shape4"
         id="use30" />
    </g>
    <g
       id="shape4">
      <path
         d="m 21.85,10.2 q 0,4.1 -0.3,5.25 l -0.95,2.05 1.1,2.15 q 1.05,2.8 1.05,4.7 l -0.1,2.2 -1,2.55 -0.55,0.65 h 0.15 l -0.35,0.2 -0.4,0.5 0.4,0.45 0.35,0.2 H 21.1 l 0.55,0.65 q 0.85,1.55 1,2.55 l 0.1,2.2 q 0,1.9 -1.05,4.7 l -1.1,2.15 0.95,2.05 q 0.3,1.15 0.3,5.25 0,2.25 -2.25,5.65 -3.05,4.55 -7.7,4.55 -7,0 -10.1,-4.65 Q 0,53.5 0,50.65 0,48.7 0.8,46.35 1.55,44.15 2.8,43.2 2.1,42.3 1.6,41 L 0.8,37 q 0,-2.8 2.35,-5.9 H 2.9 L 3.4,30.8 3.65,30.45 3.4,30.1 2.9,29.75 H 3.15 Q 0.8,26.65 0.8,23.85 l 0.8,-4 Q 2.1,18.55 2.8,17.65 1.55,16.7 0.8,14.5 0,12.15 0,10.2 0,7.35 1.8,4.65 4.9,0 11.9,0 q 4.65,0 7.7,4.55 2.25,3.4 2.25,5.65 M 11.65,8.75 q 0.45,0.85 0.45,2.5 0,1 0.5,1.8 L 13.1,14 13,14.45 h -0.15 q -0.9,-0.2 -1.3,-0.85 L 11.5,13.65 Q 10.8,14.8 9.6,14.2 l 1.55,-2.4 v -0.55 q 0,-1.85 0.5,-2.5 M 17.7,7.95 Q 15.8,3.5 12.2,3.5 6.85,3.5 4.6,6.9 3.25,8.95 3.25,11.7 q 0,1.4 1.65,3.4 L 5.65,16 6.5,15.95 q 1.75,0 1.75,1.1 l -2.35,2.4 q -2.35,2.3 -2.35,4.75 0,2.05 1.8,4.6 L 6,29.75 6.15,30 h 0.1 Q 7.1,30 7.7,30.4 L 7.75,30.45 8.3,31.1 H 6 l -0.65,0.95 q -1.8,2.55 -1.8,4.6 0,2.45 2.35,4.75 l 2.35,2.4 q 0,1.1 -1.75,1.1 L 5.65,44.85 4.9,45.75 q -1.65,2 -1.65,3.4 0,2.75 1.35,4.8 2.25,3.4 7.6,3.4 3.6,0 5.5,-4.45 1.15,-2.75 1.15,-4.75 0,-1.25 -0.75,-2.85 l -0.95,0.1 q -0.9,0 -0.9,-1.1 l 0.9,-1.15 Q 17.2,42.45 17.8,42.1 L 18.05,42 18.4,41.5 q 2.1,-2.85 2.1,-5.15 0,-2.15 -0.55,-3.1 L 18.25,31.1 H 16.1 l 0.05,-0.3 q 0.2,-0.25 0.65,-0.35 l 1,-0.2 0.45,-0.5 1.7,-2.15 q 0.55,-0.95 0.55,-3.1 0,-2.3 -2.1,-5.15 l -0.35,-0.5 -0.25,-0.1 Q 17.2,18.4 17.15,17.7 l -0.9,-1.15 q 0,-1.1 0.9,-1.1 l 0.95,0.1 q 0.75,-1.6 0.75,-2.85 0,-2 -1.15,-4.75 m -6.7,8.8 h 0.65 l 0.75,1.95 q 0.5,-2.2 1.6,-2.2 l 0.4,0.1 -0.05,0.1 0.2,0.8 -0.8,2.2 q -0.85,2.25 -0.85,3.65 0,1.6 1,3.85 l -0.1,0.5 q -1.1,-0.45 -1.55,-1.35 l -1,2.5 q -0.7,-0.5 -0.65,-1.05 l 0.5,-1.75 q 0.5,-1.6 0.5,-3.1 L 11.25,19.8 Q 10.9,18.25 10.9,17.55 l 0.1,-0.8 m -0.4,16.3 Q 10.55,32.5 11.25,32 l 1,2.5 q 0.45,-0.9 1.55,-1.35 l 0.1,0.5 q -1,2.25 -1,3.85 0,1.4 0.85,3.65 l 0.8,2.2 q 0,0.6 -0.2,0.8 l 0.05,0.1 -0.4,0.1 q -1.1,0 -1.6,-2.2 L 11.65,44.1 H 11 l -0.1,-0.8 q 0,-0.7 0.35,-2.25 L 11.6,37.9 q 0,-1.5 -0.5,-3.1 l -0.5,-1.75 m 2.4,13.35 0.1,0.45 -0.5,0.95 q -0.5,0.8 -0.5,1.8 0,1.65 -0.45,2.5 -0.5,-0.65 -0.5,-2.5 V 49.05 L 9.6,46.65 q 1.2,-0.6 1.9,0.55 l 0.05,0.05 q 0.4,-0.65 1.3,-0.85 H 13"
         fill="#6b6b6b"
         fill-rule="evenodd"
         stroke="none"
         id="path31" />
      <path
         d="m 6.9,23.45 q 1.25,0 1.25,1.25 0,1.2 -1.25,1.15 -1.25,0 -1.25,-1.2 -0.2,-1.2 1.25,-1.2 M 5.15,12.25 q 0.45,-1.5 1.85,-1.5 1.65,0 1.65,1.95 0,2.35 -1.75,1.5 -1.75,-0.8 -1.75,-1.95 m 3,23.9 q 0,1.25 -1.25,1.25 -1.45,0 -1.25,-1.2 0,-1.2 1.25,-1.2 1.25,-0.05 1.25,1.15 m 0.5,12 q 0,1.95 -1.65,1.95 -1.4,0 -1.85,-1.5 0,-1.15 1.75,-1.95 1.75,-0.85 1.75,1.5"
         fill="#ffffff"
         fill-rule="evenodd"
         stroke="none"
         id="path32" />
      <path
         d="m 17.7,7.95 q 1.15,2.75 1.15,4.75 0,1.25 -0.75,2.85 l -0.95,-0.1 q -0.9,0 -0.9,1.1 l 0.9,1.15 q 0.05,0.7 0.65,1.05 l 0.25,0.1 0.35,0.5 q 2.1,2.85 2.1,5.15 0,2.15 -0.55,3.1 l -1.7,2.15 -0.45,0.5 -1,0.2 q -0.45,0.1 -0.65,0.35 l -0.05,0.3 h 2.15 l 1.7,2.15 q 0.55,0.95 0.55,3.1 0,2.3 -2.1,5.15 L 18.05,42 17.8,42.1 q -0.6,0.35 -0.65,1.05 l -0.9,1.15 q 0,1.1 0.9,1.1 l 0.95,-0.1 q 0.75,1.6 0.75,2.85 0,2 -1.15,4.75 -1.9,4.45 -5.5,4.45 -5.35,0 -7.6,-3.4 -1.35,-2.05 -1.35,-4.8 0,-1.4 1.65,-3.4 l 0.75,-0.9 0.85,0.05 q 1.75,0 1.75,-1.1 L 5.9,41.4 q -2.35,-2.3 -2.35,-4.75 0,-2.05 1.8,-4.6 L 6,31.1 H 8.3 L 7.75,30.45 7.7,30.4 Q 7.1,30 6.25,30 H 6.15 L 6,29.75 5.35,28.8 q -1.8,-2.55 -1.8,-4.6 0,-2.45 2.35,-4.75 l 2.35,-2.4 q 0,-1.1 -1.75,-1.1 L 5.65,16 4.9,15.1 q -1.65,-2 -1.65,-3.4 0,-2.75 1.35,-4.8 2.25,-3.4 7.6,-3.4 3.6,0 5.5,4.45 m -6.05,0.8 q -0.5,0.65 -0.5,2.5 V 11.8 L 9.6,14.2 q 1.2,0.6 1.9,-0.55 l 0.05,-0.05 q 0.4,0.65 1.3,0.85 H 13 L 13.1,14 12.6,13.05 q -0.5,-0.8 -0.5,-1.8 0,-1.65 -0.45,-2.5 m -6.5,3.5 q 0,1.15 1.75,1.95 1.75,0.85 1.75,-1.5 0,-1.95 -1.65,-1.95 -1.4,0 -1.85,1.5 m 1.75,11.2 q -1.45,0 -1.25,1.2 0,1.2 1.25,1.2 1.25,0.05 1.25,-1.15 0,-1.25 -1.25,-1.25 m 4.1,-6.7 -0.1,0.8 q 0,0.7 0.35,2.25 l 0.35,3.15 q 0,1.5 -0.5,3.1 l -0.5,1.75 q -0.05,0.55 0.65,1.05 l 1,-2.5 q 0.45,0.9 1.55,1.35 l 0.1,-0.5 q -1,-2.25 -1,-3.85 0,-1.4 0.85,-3.65 l 0.8,-2.2 -0.2,-0.8 0.05,-0.1 -0.4,-0.1 q -1.1,0 -1.6,2.2 L 11.65,16.75 H 11 m -0.4,16.3 0.5,1.75 q 0.5,1.6 0.5,3.1 l -0.35,3.15 Q 10.9,42.6 10.9,43.3 l 0.1,0.8 h 0.65 l 0.75,-1.95 q 0.5,2.2 1.6,2.2 l 0.4,-0.1 -0.05,-0.1 q 0.2,-0.2 0.2,-0.8 l -0.8,-2.2 Q 12.9,38.9 12.9,37.5 q 0,-1.6 1,-3.85 l -0.1,-0.5 q -1.1,0.45 -1.55,1.35 l -1,-2.5 q -0.7,0.5 -0.65,1.05 m -1.95,15.1 q 0,-2.35 -1.75,-1.5 -1.75,0.8 -1.75,1.95 0.45,1.5 1.85,1.5 1.65,0 1.65,-1.95 m -0.5,-12 q 0,-1.2 -1.25,-1.15 -1.25,0 -1.25,1.2 -0.2,1.2 1.25,1.2 1.25,0 1.25,-1.25 M 13,46.4 h -0.15 q -0.9,0.2 -1.3,0.85 L 11.5,47.2 Q 10.8,46.05 9.6,46.65 l 1.55,2.4 v 0.55 q 0,1.85 0.5,2.5 0.45,-0.85 0.45,-2.5 0,-1 0.5,-1.8 L 13.1,46.85 13,46.4"
         fill="#a79d93"
         fill-rule="evenodd"
         stroke="none"
         id="path33" />
    </g>
    <g
       id="sprite5"
       transform="translate(0.75,0.75)">
      <use
         ffdec:characterId="747"
         height="20.049999"
         transform="translate(-0.75,-0.75)"
         width="62.400002"
         xlink:href="#shape5"
         id="use33" />
    </g>
    <g
       id="shape5"
       transform="translate(0.75,0.75)">
      <path
         d="M 7.55,11.95 H 4.8 q -0.85,0.05 -1.55,0.8 -0.6,0.7 -0.6,1.1 0,0.7 1.05,1.4 1.05,0.75 2.65,0.9 l 1.8,-0.05 9,-0.15 0.5,-0.1 L 24,15.7 26.45,15.5 29,15.3 35.8,15.2 38.15,14.9 Q 51.35,13.15 54.65,12.1 58.6,10.8 58.6,7.55 58.6,5.3 55.05,3.45 50.65,1.2 45,3.8 L 38.15,6 36.85,6.4 Q 31.4,7.9 22.9,8.7 H 16.35 L 15.8,8.55 H 13.75 L 13,8.85 15.85,9.2 h 8.3 l 14,-1.3 14.75,-1.45 0.5,0.3 Q 50.7,8 42.85,9.5 L 38.15,10.35 24.5,12.2 H 20.9 15.6 L 11.4,11.95 H 7.55 M 48.2,16 36.1,17.7 29,17.8 l -4.75,0.4 -6.35,0.15 -0.5,0.1 H 8.15 l -1.8,0.1 q -4.1,0 -5.6,-2.3 Q 0.2,15.4 0.05,14 L 0,12.9 0.05,12.65 Q 0.35,11.35 1.5,10.3 3.3,8.7 6.35,8.65 L 9,8.85 q 0.5,-1.8 0.85,-2.05 1.5,-1.2 6.8,-1 L 24.8,6 Q 28.05,6 35.2,3.85 L 38.15,3 40.3,2.35 47.1,0.55 q 8.2,-1.65 11.55,1.8 2.25,2.35 2.25,7.1 0,3.2 -5.5,4.95 -2.5,0.8 -7.2,1.6"
         fill="#6b6b6b"
         fill-rule="evenodd"
         stroke="none"
         id="path34" />
      <path
         d="m 20.9,12.2 q -0.9,0.6 -3.2,0.95 l -3.7,0.3 -5.5,-0.2 q -1,-0.15 -1,-0.9 l 0.05,-0.4 h 3.85 l 4.2,0.25 h 5.3 M 50.4,3.3 Q 49.35,4.95 43.8,6.2 L 43.1,6.05 43,5.45 Q 43,4.85 46.25,3.8 49.5,2.75 50.3,3 l 0.1,0.3 m -9.35,8 -0.65,-0.1 -0.1,-0.1 -0.05,-0.4 q 0,-0.5 0.9,-0.6 0.95,-0.1 1.65,0.4 l -0.7,0.55 -1.05,0.25 m -3.9,0.2 q 0,0.35 -2.1,0.95 l -2.8,0.5 q -0.95,0 -2,-0.6 0.5,-0.4 3.15,-1 l 3.5,-0.4 0.15,0.1 0.1,0.45"
         fill="#ffffff"
         fill-rule="evenodd"
         stroke="none"
         id="path35" />
      <path
         d="m 20.9,12.2 h 3.6 L 38.15,10.35 42.85,9.5 Q 50.7,8 53.4,6.75 l -0.5,-0.3 -14.75,1.45 -14,1.3 h -8.3 L 13,8.85 13.75,8.55 H 15.8 L 16.35,8.7 H 22.9 Q 31.4,7.9 36.85,6.4 L 38.15,6 45,3.8 q 5.65,-2.6 10.05,-0.35 3.55,1.85 3.55,4.1 0,3.25 -3.95,4.55 -3.3,1.05 -16.5,2.8 l -2.35,0.3 -6.8,0.1 -2.55,0.2 -2.45,0.2 -6.35,0.15 -0.5,0.1 -9,0.15 -1.8,0.05 Q 4.75,16 3.7,15.25 q -1.05,-0.7 -1.05,-1.4 0,-0.4 0.6,-1.1 0.7,-0.75 1.55,-0.8 h 2.75 l -0.05,0.4 q 0,0.75 1,0.9 l 5.5,0.2 3.7,-0.3 Q 20,12.8 20.9,12.2 m 20.15,-0.9 1.05,-0.25 0.7,-0.55 q -0.7,-0.5 -1.65,-0.4 -0.9,0.1 -0.9,0.6 l 0.05,0.4 0.1,0.1 0.65,0.1 M 50.4,3.3 50.3,3 Q 49.5,2.75 46.25,3.8 43,4.85 43,5.45 l 0.1,0.6 0.7,0.15 q 5.55,-1.25 6.6,-2.9 m -13.25,8.2 -0.1,-0.45 -0.15,-0.1 -3.5,0.4 q -2.65,0.6 -3.15,1 1.05,0.6 2,0.6 l 2.8,-0.5 q 2.1,-0.6 2.1,-0.95"
         fill="#d7c5c5"
         fill-rule="evenodd"
         stroke="none"
         id="path36" />
      <path
         d="m 48.2,16 -12.1,1.7 -7.1,0.1 -4.75,0.4 -6.35,0.15 -0.5,0.1 H 8.15 l -1.8,0.1 q -4.1,0 -5.6,-2.3 Q 0.2,15.4 0.05,14 L 0,12.9 0.05,12.65 Q 0.35,11.35 1.5,10.3 3.3,8.7 6.35,8.65 L 9,8.85 q 0.5,-1.8 0.85,-2.05 1.5,-1.2 6.8,-1 L 24.8,6 Q 28.05,6 35.2,3.85 L 38.15,3 40.3,2.35 47.1,0.55 q 8.2,-1.65 11.55,1.8 2.25,2.35 2.25,7.1 0,3.2 -5.5,4.95 -2.5,0.8 -7.2,1.6 z"
         fill="none"
         stroke="#6b6b6b"
         stroke-linecap="round"
         stroke-linejoin="round"
         stroke-width="1.5"
         id="path37" />
    </g>
    <g
       id="sprite6">
      <use
         ffdec:characterId="787"
         height="29.15"
         width="41.200001"
         xlink:href="#shape6"
         id="use37" />
    </g>
    <g
       id="shape6">
      <path
         d="m 28.25,14 q -0.4,0.55 -1.05,0.55 -0.85,0 -1.2,-0.75 l -0.15,-0.65 q 0,-1.25 1.35,-1.25 1.35,0 1.35,1.25 L 28.25,14 m -5.9,2.4 q -2,1.55 -4.35,1.55 -1.7,0 -2.5,-0.8 L 15.1,16.3 q 0,-2.5 4.5,-3.75 4.45,-1.2 4.45,1.75 0,0.8 -1.7,2.1"
         fill="#ffffff"
         fill-rule="evenodd"
         stroke="none"
         id="path38" />
      <path
         d="m 37.95,18.55 q 0,-2.5 -2.7,-5.15 -3.3,-3.25 -8.2,-3.25 -6.8,0 -10.9,2.5 l -3.65,2 -0.9,0.9 q -0.95,0.6 -2.15,0.6 -2.05,0 -3.2,-0.75 -0.8,-0.55 -0.8,-1 -0.2,-2.95 0.9,-3.6 0.55,0.65 0.4,2.45 -0.1,0.8 1.8,0.95 L 8.5,13.75 q 0,-2.6 1.2,-4.7 Q 10.95,6.9 13.25,5.9 L 13.8,5 Q 13.8,4.6 12.7,3.5 11.5,2.25 10.75,2.4 h -2.7 q -3.25,3.95 -4.5,7 -1.2,2.95 -1.2,6.9 0,3.55 2.75,5.95 5.1,3.5 6.35,3.85 L 22.7,26.05 Q 30,25.6 34.35,23 q 3.6,-2.15 3.6,-4.45 M 38.7,11.8 q 2.5,3.45 2.5,6.2 0,3.95 -3,6.45 -4.4,3.6 -15.45,4.7 h -11.3 l -2.1,-0.6 Q 6.95,28.3 5.45,27.3 4.6,26.75 4.25,26.25 2.05,24.95 0.95,22.15 0,19.75 0,16.3 0,14.65 1,11.1 2.05,7.4 3,5.95 L 4.3,3.25 Q 5.15,1.5 6.6,0.8 q 3.7,-1.75 6.6,0.3 2.25,1.6 2.25,3.05 0,1.35 -0.65,2.65 -0.8,1.5 -2.05,1.75 -0.9,0.95 -0.9,1.95 0,0.6 -0.55,1.3 l 0.05,0.3 Q 16.4,8.85 17,8.6 21.15,6.8 28.3,6.8 q 6.7,0 10.4,5 M 11.05,5.9 Q 8.6,5.9 8.6,4.25 8.6,3 10.55,3.35 q 1.9,0.35 1.9,1.45 0,1.1 -1.4,1.1"
         fill="#6b6b6b"
         fill-rule="evenodd"
         stroke="none"
         id="path39" />
      <path
         d="m 22.35,16.4 q 1.7,-1.3 1.7,-2.1 0,-2.95 -4.45,-1.75 -4.5,1.25 -4.5,3.75 l 0.4,0.85 q 0.8,0.8 2.5,0.8 2.35,0 4.35,-1.55 m 5.9,-2.4 0.3,-0.85 q 0,-1.25 -1.35,-1.25 -1.35,0 -1.35,1.25 L 26,13.8 q 0.35,0.75 1.2,0.75 0.65,0 1.05,-0.55 m 9.7,4.55 q 0,2.3 -3.6,4.45 Q 30,25.6 22.7,26.05 L 11.45,26.1 Q 10.2,25.75 5.1,22.25 2.35,19.85 2.35,16.3 q 0,-3.95 1.2,-6.9 1.25,-3.05 4.5,-7 h 2.7 Q 11.5,2.25 12.7,3.5 13.8,4.6 13.8,5 l -0.55,0.9 q -2.3,1 -3.55,3.15 -1.2,2.1 -1.2,4.7 l 0.05,0.45 q -1.9,-0.15 -1.8,-0.95 0.15,-1.8 -0.4,-2.45 -1.1,0.65 -0.9,3.6 0,0.45 0.8,1 1.15,0.75 3.2,0.75 1.2,0 2.15,-0.6 l 0.9,-0.9 3.65,-2 q 4.1,-2.5 10.9,-2.5 4.9,0 8.2,3.25 2.7,2.65 2.7,5.15 M 11.05,5.9 q 1.4,0 1.4,-1.1 0,-1.1 -1.9,-1.45 Q 8.6,3 8.6,4.25 8.6,5.9 11.05,5.9"
         fill="#d0bebe"
         fill-rule="evenodd"
         stroke="none"
         id="path40" />
    </g>
    <g
       id="sprite7"
       transform="translate(0.75,0.75)">
      <use
         ffdec:characterId="783"
         height="33.650002"
         transform="translate(-0.75,-0.75)"
         width="47.400002"
         xlink:href="#shape7"
         id="use40" />
    </g>
    <g
       id="shape7"
       transform="translate(0.75,0.75)">
      <path
         d="M 41.4,11.8 Q 38.1,2.4 30.2,2.4 29.4,2.4 28.45,2.75 27.4,3.1 26.2,3.9 25.15,4.55 24.1,5.35 l -1,1.45 -0.5,0.7 V 7.55 L 22.5,7.65 22,8.25 27.6,6.9 Q 27.4,7.45 25.2,8 22.8,8.55 21,9.4 l -0.2,0.15 -0.6,0.25 -0.3,0.15 -2,1.65 h 0.9 6.6 q 1.85,-0.2 2.95,-0.9 l 0.1,-0.05 q 0.8,-0.45 1.35,-0.6 l 0.85,-1.4 q 0.6,-0.9 0.6,-1.7 l -0.2,-0.7 -0.3,-0.6 0.5,-0.05 q 0.9,0.75 0.9,2.35 0,0.7 -0.6,1.85 l -0.6,0.9 0.1,0.05 q 0,0.8 -1.7,1.7 l -0.9,0.4 -3.05,0.7 -6.4,0.15 q -4.35,-0.5 -10.7,4.35 -5.8,4.45 -5.8,6.4 0,0.95 3.2,3.1 3.45,2.4 5.45,1.75 L 17.4,29.2 28.45,28.45 Q 36,27.7 39.3,26.55 q 3.85,-1.4 3.85,-4.5 0,-5.2 -1.75,-10.25 M 42,28.35 Q 37.75,30.6 28.45,31.5 L 17.5,32.1 9.85,32.15 Q 5.25,31.45 2.4,29 0,26.95 0,24.9 q 0,-2.7 6.4,-7.95 4.5,-3.7 8.35,-4.85 v -0.25 l 0.1,-0.55 Q 15.15,9.95 17.1,8.4 L 17.55,8.05 V 7.6 q 0,-1.7 1.65,-3.4 1.7,-1.7 3.6,-0.3 0.9,-1 2.25,-2 1.7,-1.25 3.4,-1.7 L 31.4,0.05 33,0.1 q 12.9,4.15 12.9,22.1 0,4.1 -3.9,6.15 M 21.4,4.55 q -1.75,0 -1.75,1.7 l 0.1,0.8 1.3,-0.1 q 0.2,-1.1 1.05,-2.2 l -0.7,-0.2"
         fill="#6b6b6b"
         fill-rule="evenodd"
         stroke="none"
         id="path41" />
      <path
         d="m 21.4,4.55 0.7,0.2 q -0.85,1.1 -1.05,2.2 l -1.3,0.1 -0.1,-0.8 q 0,-1.7 1.75,-1.7"
         fill="#9a9a9a"
         fill-rule="evenodd"
         stroke="none"
         id="path42" />
      <path
         d="m 27.4,16.85 0.1,0.5 -0.35,0.4 -0.5,0.35 -1.25,-0.2 -0.1,-0.6 0.1,-0.6 1.9,-0.05 0.1,0.2 m -5.75,0.5 q 0,1.2 -1.85,1.9 -3.95,1.5 -4.95,2.05 h -2.1 l -0.9,-0.6 -0.2,-0.6 q 0,-1.4 1.5,-2.5 2.4,-1.75 7.5,-1.3 1,0.15 1,1.05"
         fill="#ffffff"
         fill-rule="evenodd"
         stroke="none"
         id="path43" />
      <path
         d="m 41.4,11.8 q 1.75,5.05 1.75,10.25 0,3.1 -3.85,4.5 -3.3,1.15 -10.85,1.9 L 17.4,29.2 11.15,29.3 Q 9.15,29.95 5.7,27.55 2.5,25.4 2.5,24.45 2.5,22.5 8.3,18.05 14.65,13.2 19,13.7 l 6.4,-0.15 3.05,-0.7 0.9,-0.4 q 1.7,-0.9 1.7,-1.7 l -0.1,-0.05 0.6,-0.9 q 0.6,-1.15 0.6,-1.85 0,-1.6 -0.9,-2.35 l -0.5,0.05 0.3,0.6 0.2,0.7 q 0,0.8 -0.6,1.7 l -0.85,1.4 q -0.55,0.15 -1.35,0.6 l -0.1,0.05 q -1.1,0.7 -2.95,0.9 H 18.8 17.9 L 19.9,9.95 20.2,9.8 20.8,9.55 21,9.4 Q 22.8,8.55 25.2,8 27.4,7.45 27.6,6.9 L 22,8.25 22.5,7.65 22.6,7.55 V 7.5 l 0.5,-0.7 1,-1.45 Q 25.15,4.55 26.2,3.9 27.4,3.1 28.45,2.75 29.4,2.4 30.2,2.4 q 7.9,0 11.2,9.4 m -19.75,5.55 q 0,-0.9 -1,-1.05 -5.1,-0.45 -7.5,1.3 -1.5,1.1 -1.5,2.5 l 0.2,0.6 0.9,0.6 h 2.1 q 1,-0.55 4.95,-2.05 1.85,-0.7 1.85,-1.9 m 5.75,-0.5 -0.1,-0.2 -1.9,0.05 -0.1,0.6 0.1,0.6 1.25,0.2 0.5,-0.35 0.35,-0.4 -0.1,-0.5"
         fill="#877d77"
         fill-rule="evenodd"
         stroke="none"
         id="path44" />
      <path
         d="M 42,28.35 Q 37.75,30.6 28.45,31.5 L 17.5,32.1 9.85,32.15 Q 5.25,31.45 2.4,29 0,26.95 0,24.9 q 0,-2.7 6.4,-7.95 4.5,-3.7 8.35,-4.85 v -0.25 l 0.1,-0.55 Q 15.15,9.95 17.1,8.4 L 17.55,8.05 V 7.6 q 0,-1.7 1.65,-3.4 1.7,-1.7 3.6,-0.3 0.9,-1 2.25,-2 1.7,-1.25 3.4,-1.7 L 31.4,0.05 33,0.1 q 12.9,4.15 12.9,22.1 0,4.1 -3.9,6.15 z"
         fill="none"
         stroke="#6b6b6b"
         stroke-linecap="round"
         stroke-linejoin="round"
         stroke-width="1.5"
         id="path45" />
    </g>
    <g
       id="sprite8"
       transform="translate(0.75,0.75)">
      <use
         ffdec:characterId="753"
         height="52.650002"
         transform="translate(-0.75,-0.75)"
         width="18.450001"
         xlink:href="#shape8"
         id="use45" />
    </g>
    <g
       id="shape8"
       transform="translate(0.75,0.75)">
      <path
         d="m 14.25,2.75 1.85,3.9 q 0.3,0.7 0.6,4.15 l 0.25,3.95 q 0,3.7 -4.1,7.15 -4.15,3.4 -4.15,6.25 l 3.05,4.45 q 3.05,4.4 3.05,6.4 0,3.4 -0.6,5.7 -0.8,3 -2.4,4.2 l -0.45,0.6 Q 10.1,51.15 7.6,51.15 4.35,51.15 3.1,49.25 2.45,48.3 2.45,47.15 2.45,45.3 3.35,44.3 4.8,42.75 5.6,40.6 L 5.85,39.6 5.7,39.45 4.65,38.6 2.55,36.45 2.05,35.55 0.35,32.15 Q 0,31.2 0,28.85 0,25.45 2.05,21.55 3,19.7 4.4,17.75 L 6.35,15 8.75,11.35 Q 8.75,9.15 7.45,7.6 6.1,6.1 6.1,4.7 q 0,-3.25 3.85,-4.35 3.8,-1.1 3.8,1.15 v 0.05 l 0.5,1.2 m -1.8,1.5 q 0,0.35 -0.6,0.95 -0.65,0.65 -1.25,0.65 -1.5,0 -1.25,-1.2 0,-1.25 1.55,-1.3 1.55,-0.05 1.55,0.9 m -1.5,-1.7 Q 8.1,2.45 8.1,4.7 l 1.3,2.4 q 1.3,2.15 1.3,4.1 0,1.2 -2.85,5.55 L 6.4,18.9 q -4.3,6.15 -4.3,9.95 0,4.2 2.95,7 l 1.6,1.7 0.15,0.15 0.05,0.15 0.95,1.6 0.2,0.95 q 0,2.1 -0.55,3.7 -0.6,-0.3 -0.6,-1.6 V 42.2 L 5.8,44.45 q -1.25,1.95 -1.25,2.4 0,0.45 0.8,1.3 L 6.3,49 8.15,48.95 Q 9.8,47.2 10.9,45.1 q 1.2,-2.35 1.2,-4.35 0,-2.05 -3,-6.4 L 7.85,32.5 Q 6.05,29.55 6.05,28.15 L 6.1,27.35 5.75,26.1 q 0,-2.7 0.3,-3.65 0.35,-1.1 1.8,-2.9 l 0.5,-0.6 0.75,0.25 q -0.35,0.25 -0.8,1.05 l -0.45,0.85 -0.5,1.7 -0.3,1.15 0.35,-0.6 0.45,-0.5 2.6,-2.3 Q 14.8,16.85 14.8,9.1 14.8,7.2 13.4,5.05 12.3,3.45 12.05,2.55 h -1.1"
         fill="#6b6b6b"
         fill-rule="evenodd"
         stroke="none"
         id="path46" />
      <path
         d="m 11.25,10.45 q 0,-1.55 0.7,-1.5 l 0.65,1.45 0.35,1.1 -0.45,1.1 -1.15,1.1 H 11.2 l 0.45,-1.4 0.1,-0.7 -0.25,-0.55 -0.25,-0.6 m -6.3,19.1 0.4,0.9 -0.25,0.8 -0.6,0.5 q -1.55,0 -2.15,-1.8 0,-1.7 0.35,-2.8 L 3.95,24.2 q 1.3,1.3 1.1,2.05 L 4.5,28 q 0,0.8 0.45,1.55 m 0,3.6 1.25,-0.05 0.1,0.2 0.05,0.45 -0.1,0.7 -0.7,0.2 -0.95,-0.9 q 0,-0.3 0.35,-0.6"
         fill="#ffffff"
         fill-rule="evenodd"
         stroke="none"
         id="path47" />
      <path
         d="m 10.95,2.55 h 1.1 q 0.25,0.9 1.35,2.5 1.4,2.15 1.4,4.05 0,7.75 -4.35,11.45 l -2.6,2.3 -0.45,0.5 -0.35,0.6 0.3,-1.15 0.5,-1.7 0.45,-0.85 q 0.45,-0.8 0.8,-1.05 l -0.75,-0.25 -0.5,0.6 q -1.45,1.8 -1.8,2.9 -0.3,0.95 -0.3,3.65 l 0.35,1.25 -0.05,0.8 q 0,1.4 1.8,4.35 l 1.25,1.85 q 3,4.35 3,6.4 0,2 -1.2,4.35 -1.1,2.1 -2.75,3.85 L 6.3,49 5.35,48.15 q -0.8,-0.85 -0.8,-1.3 0,-0.45 1.25,-2.4 L 6.85,42.2 v 0.3 q 0,1.3 0.6,1.6 Q 8,42.5 8,40.4 L 7.8,39.45 6.85,37.85 6.8,37.7 6.65,37.55 5.05,35.85 q -2.95,-2.8 -2.95,-7 0,-3.8 4.3,-9.95 L 7.85,16.75 Q 10.7,12.4 10.7,11.2 10.7,9.25 9.4,7.1 L 8.1,4.7 q 0,-2.25 2.85,-2.15 m 1.5,1.7 q 0,-0.95 -1.55,-0.9 -1.55,0.05 -1.55,1.3 -0.25,1.2 1.25,1.2 0.6,0 1.25,-0.65 0.6,-0.6 0.6,-0.95 m -7.5,28.9 q -0.35,0.3 -0.35,0.6 l 0.95,0.9 0.7,-0.2 0.1,-0.7 L 6.3,33.3 6.2,33.1 4.95,33.15 m 0,-3.6 Q 4.5,28.8 4.5,28 L 5.05,26.25 Q 5.25,25.5 3.95,24.2 L 2.7,27.15 q -0.35,1.1 -0.35,2.8 0.6,1.8 2.15,1.8 l 0.6,-0.5 0.25,-0.8 -0.4,-0.9 m 6.3,-19.1 0.25,0.6 0.25,0.55 -0.1,0.7 -0.45,1.4 h 0.15 L 12.5,12.6 12.95,11.5 12.6,10.4 11.95,8.95 q -0.7,-0.05 -0.7,1.5"
         fill="#cdc0c0"
         fill-rule="evenodd"
         stroke="none"
         id="path48" />
      <path
         d="m 14.25,2.75 1.85,3.9 q 0.3,0.7 0.6,4.15 l 0.25,3.95 q 0,3.7 -4.1,7.15 -4.15,3.4 -4.15,6.25 l 3.05,4.45 q 3.05,4.4 3.05,6.4 0,3.4 -0.6,5.7 -0.8,3 -2.4,4.2 l -0.45,0.6 Q 10.1,51.15 7.6,51.15 4.35,51.15 3.1,49.25 2.45,48.3 2.45,47.15 2.45,45.3 3.35,44.3 4.8,42.75 5.6,40.6 L 5.85,39.6 5.7,39.45 4.65,38.6 2.55,36.45 2.05,35.55 0.35,32.15 Q 0,31.2 0,28.85 0,25.45 2.05,21.55 3,19.7 4.4,17.75 L 6.35,15 8.75,11.35 Q 8.75,9.15 7.45,7.6 6.1,6.1 6.1,4.7 q 0,-3.25 3.85,-4.35 3.8,-1.1 3.8,1.15 v 0.05 z"
         fill="none"
         stroke="#6b6b6b"
         stroke-linecap="round"
         stroke-linejoin="round"
         stroke-width="1.5"
         id="path49" />
    </g>
  </defs>
</svg>
