<?xml version="1.0" encoding="UTF-8" standalone="no"?>
<svg
   ffdec:objectType="frame"
   height="83.650002"
   width="133.95"
   version="1.1"
   id="svg14"
   sodipodi:docname="2.svg"
   xmlns:inkscape="http://www.inkscape.org/namespaces/inkscape"
   xmlns:sodipodi="http://sodipodi.sourceforge.net/DTD/sodipodi-0.dtd"
   xmlns:xlink="http://www.w3.org/1999/xlink"
   xmlns="http://www.w3.org/2000/svg"
   xmlns:svg="http://www.w3.org/2000/svg"
   xmlns:ffdec="https://www.free-decompiler.com/flash">
  <sodipodi:namedview
     id="namedview14"
     pagecolor="#ffffff"
     bordercolor="#000000"
     borderopacity="0.25"
     inkscape:showpageshadow="2"
     inkscape:pageopacity="0.0"
     inkscape:pagecheckerboard="0"
     inkscape:deskcolor="#d1d1d1"
     fit-margin-top="5"
     fit-margin-left="5"
     fit-margin-right="5"
     fit-margin-bottom="5" />
  <g
     transform="translate(66.95,42.2)"
     id="g5">
    <use
       ffdec:characterId="885"
       height="42.25"
       transform="translate(-66.95,-0.8)"
       width="45.75"
       xlink:href="#sprite0"
       id="use1" />
    <use
       ffdec:characterId="885"
       height="42.25"
       transform="translate(-22.85,-0.8)"
       width="45.75"
       xlink:href="#sprite0"
       id="use2" />
    <use
       ffdec:characterId="887"
       height="42.25"
       transform="translate(21.2,-0.8)"
       width="45.799999"
       xlink:href="#sprite1"
       id="use3" />
    <use
       ffdec:characterId="887"
       height="42.25"
       transform="translate(21.2,-42.2)"
       width="45.799999"
       xlink:href="#sprite1"
       id="use4" />
    <use
       ffdec:characterId="44"
       height="8"
       transform="matrix(-1.1274,-0.8795,0.8795,-1.1274,55.82,-17.4914)"
       width="10.8"
       xlink:href="#sprite2"
       id="use5" />
  </g>
  <defs
     id="defs14">
    <g
       id="sprite0"
       transform="translate(22.85,21.1)">
      <use
         ffdec:characterId="884"
         height="42.25"
         transform="translate(-22.85,-21.1)"
         width="45.75"
         xlink:href="#shape0"
         id="use6" />
    </g>
    <g
       id="shape0"
       transform="translate(22.85,21.1)">
      <path
         d="m -17.45,17.25 h 36.5 L 19.1,1.6 19.2,1.4 V -17.15 H 18.7 L -6,-17.2 v -0.1 h -2.3 l -10.75,0.15 V 1.4 l 0.05,0.2 0.05,15.65 h 1.5 m -5.25,-37.85 0.15,-0.35 0.35,-0.15 h 44.55 l 0.35,0.15 0.15,0.35 V 1.25 1.45 L 22.9,16.3 v 2.35 0.05 q -0.05,1 -0.45,1.6 v 0.3 l -0.15,0.35 -0.35,0.15 h -0.7 L 20.8,21.15 20.2,21.1 h -40.4 l -0.45,0.05 -0.6,-0.05 h -0.55 l -0.35,-0.15 -0.15,-0.35 v -0.3 l -0.55,-1.55 V 18.65 16.3 L -22.7,1.45 V 1.25 -20.6"
         fill="#6b6b6b"
         fill-rule="evenodd"
         stroke="none"
         id="path6" />
      <path
         d="m 16.45,-14.15 v 27.9 H 5.05 l -19.6,0.55 -1.1,0.05 -0.55,0.05 0.3,-1.55 0.1,-0.65 0.15,-0.1 -0.05,-0.65 0.3,-8.9 0.05,-15.4 h 1.15 l 26.65,-0.2 q 2.1,0.75 4,-1.1"
         fill="#8a9e8d"
         fill-rule="evenodd"
         stroke="none"
         id="path7" />
      <path
         d="m 18.7,-17.15 h 0.5 V 1.4 l -0.1,0.2 -0.05,15.65 h -36.5 l 0.8,-1.5 0.25,-0.65 0.2,-0.7 0.55,-0.05 1.1,-0.05 19.6,-0.55 h 11.4 v -27.9 l 0.85,-0.9 1.4,-2.1"
         fill="#6f7f72"
         fill-rule="evenodd"
         stroke="none"
         id="path8" />
      <path
         d="m -17.45,17.25 h -1.5 L -19,1.6 -19.05,1.4 V -17.15 L -8.3,-17.3 H -6 v 0.1 l 24.7,0.05 -1.4,2.1 -0.85,0.9 q -1.9,1.85 -4,1.1 l -26.65,0.2 h -1.15 l -0.05,15.4 -0.3,8.9 -0.1,0.75 -0.1,0.65 -0.3,1.55 -0.2,0.7 -0.25,0.65 -0.8,1.5"
         fill="#b0c7b4"
         fill-rule="evenodd"
         stroke="none"
         id="path9" />
    </g>
    <g
       id="sprite1"
       transform="translate(22.9,21.1)">
      <use
         ffdec:characterId="886"
         height="42.25"
         transform="translate(-22.9,-21.1)"
         width="45.799999"
         xlink:href="#shape1"
         id="use9" />
    </g>
    <g
       id="shape1"
       transform="translate(22.9,21.1)">
      <path
         d="m 22.35,-21.1 0.3,0.15 0.15,0.35 V 1.25 l 0.05,0.2 0.05,14.85 v 2.35 0.05 l -0.45,1.6 v 0.3 l -0.15,0.35 -0.35,0.15 h -0.7 L 20.8,21.15 20.2,21.1 h -40.4 l -0.5,0.05 -0.55,-0.05 h -0.6 l -0.3,-0.15 -0.15,-0.35 v -0.3 q -0.4,-0.6 -0.6,-1.55 v -0.1 -2.35 l 0.15,-14.85 0.05,-0.2 V -20.6 l 0.15,-0.35 0.35,-0.15 h 44.55 m -39.8,38.35 h 36.5 L 19.1,1.6 19.2,1.4 V -17.15 H 18.7 L -6,-17.2 v -0.1 h -2.35 l -10.7,0.15 V 1.4 l 0.05,0.2 0.05,15.65 h 1.5"
         fill="#6b6b6b"
         fill-rule="evenodd"
         stroke="none"
         id="path10" />
      <path
         d="m 16.45,-14.15 v 27.9 H 5 l -19.55,0.55 -1.1,0.05 -0.6,0.05 0.35,-1.55 0.1,-0.65 0.05,-0.1 0.1,-2.1 0.05,-2.75 V 6.5 l 0.2,-3.95 0.05,-15.4 h 1.15 l 26.65,-0.2 q 2.1,0.75 4,-1.1"
         fill="#9598a8"
         fill-rule="evenodd"
         stroke="none"
         id="path11" />
      <path
         d="m 16.45,-14.15 0.8,-0.9 1.45,-2.1 h 0.5 V 1.4 l -0.1,0.2 -0.05,15.65 h -36.5 l 0.8,-1.5 0.25,-0.65 0.15,-0.7 0.6,-0.05 1.1,-0.05 L 5,13.75 h 11.45 v -27.9"
         fill="#7d808f"
         fill-rule="evenodd"
         stroke="none"
         id="path12" />
      <path
         d="m 18.7,-17.15 -1.45,2.1 -0.8,0.9 q -1.9,1.85 -4,1.1 l -26.65,0.2 h -1.15 l -0.05,15.4 -0.2,3.95 v 0.75 l -0.05,2.75 -0.1,2.1 -0.05,0.1 -0.1,0.65 -0.35,1.55 -0.15,0.7 -0.25,0.65 -0.8,1.5 h -1.5 L -19,1.6 -19.05,1.4 v -18.55 l 10.7,-0.15 H -6 v 0.1 l 24.7,0.05"
         fill="#b7bacd"
         fill-rule="evenodd"
         stroke="none"
         id="path13" />
    </g>
    <g
       id="sprite2"
       transform="translate(5.4,4)">
      <use
         ffdec:characterId="43"
         height="8"
         transform="translate(-5.4,-4)"
         width="10.8"
         xlink:href="#shape2"
         id="use13" />
    </g>
    <g
       id="shape2"
       transform="translate(5.4,4)">
      <path
         d="m 2.9,-0.35 q 0,-1.25 1.25,-1.25 1.25,0 1.25,1.2 0,1.3 -1.25,1.3 Q 3.6,0.9 3.25,0.5 2.9,0.15 2.9,-0.35 m 0.35,-2.3 q 0,0.55 -0.35,0.9 -0.4,0.45 -1,0.45 -1.35,0 -1.35,-1.4 0,-1.3 1.35,-1.3 1.35,0 1.35,1.35 m -3.1,1.9 h 0.2 q 2.6,0.1 2.6,2.8 l -0.3,1 Q 2.05,4 0.45,4 H 0.35 0.15 0.1 -0.45 q -1.6,0 -2.2,-0.95 l -0.3,-1 q 0,-2.8 2.8,-2.8 h 0.3 M -1.55,-4 q 1.35,0 1.35,1.35 0,0.55 -0.4,0.9 -0.4,0.45 -0.95,0.45 -1.4,0 -1.4,-1.4 0,-1.3 1.4,-1.3 m -2.6,2.4 q 1.25,0 1.25,1.25 0,0.5 -0.35,0.85 -0.35,0.4 -0.9,0.4 -1.25,0 -1.25,-1.3 0,-1.2 1.25,-1.2"
         fill="#6b6b6b"
         fill-rule="evenodd"
         stroke="none"
         id="path14" />
    </g>
  </defs>
</svg>
