<?xml version="1.0" encoding="UTF-8" standalone="no"?>
<svg
   ffdec:objectType="frame"
   height="38.900002"
   width="35.451218"
   version="1.1"
   id="svg7"
   sodipodi:docname="1.svg"
   xmlns:inkscape="http://www.inkscape.org/namespaces/inkscape"
   xmlns:sodipodi="http://sodipodi.sourceforge.net/DTD/sodipodi-0.dtd"
   xmlns:xlink="http://www.w3.org/1999/xlink"
   xmlns="http://www.w3.org/2000/svg"
   xmlns:svg="http://www.w3.org/2000/svg"
   xmlns:ffdec="https://www.free-decompiler.com/flash">
  <sodipodi:namedview
     id="namedview7"
     pagecolor="#ffffff"
     bordercolor="#000000"
     borderopacity="0.25"
     inkscape:showpageshadow="2"
     inkscape:pageopacity="0.0"
     inkscape:pagecheckerboard="0"
     inkscape:deskcolor="#d1d1d1"
     fit-margin-top="5"
     fit-margin-left="5"
     fit-margin-right="5"
     fit-margin-bottom="5" />
  <g
     transform="translate(17.7,19.45)"
     id="g1">
    <use
       ffdec:characterId="3176"
       height="38.900002"
       transform="translate(-17.7,-19.45)"
       width="35.450001"
       xlink:href="#shape0"
       id="use1" />
  </g>
  <defs
     id="defs7">
    <g
       id="shape0"
       transform="translate(17.7,19.45)">
      <path
         d="m 1.55,-19.4 v 0.05 q 10.35,0.55 14.25,7.15 2,3.45 1.95,8.4 l -0.1,2.45 -0.15,1.85 q -0.55,3.75 -2,6.3 -3.4,5.95 -12.2,7.95 l -0.2,0.3 Q 2.45,16 2.45,16.35 L 2.8,18.4 q 0,0.65 -0.45,0.8 l -3.9,0.25 -0.75,-0.15 h -0.15 q -0.7,0 -0.75,-1.05 l 0.2,-0.6 0.2,-0.6 q 0,-1.1 -0.9,-1.95 L -4.25,14.55 -4.65,14.4 Q -12.45,12.2 -15.55,6.65 -17,4.1 -17.45,0.3 L -17.65,-1.55 -17.7,-4 q 0.05,-4.95 2.05,-8.35 4,-6.6 14.35,-7.05 v -0.05 l 1.15,0.05 H 0.4 1.55 m -1.2,2.35 H -0.2 -0.85 l -0.5,-0.05 q -8.55,0.5 -11.9,5.7 -1.95,2.95 -1.95,7.3 l 0.05,2.55 0.2,1.85 q 0.35,3.1 1.35,5.15 2.9,6.3 11.45,7.45 l 4.05,0.2 -3.4,-0.25 2.85,0.05 v 0.05 H 2 Q 10.55,11.9 13.55,5.6 14.55,3.55 15,0.45 l 0.15,-1.85 0.1,-2.55 q 0,-4.35 -1.85,-7.3 -3.5,-5.5 -12.75,-5.8 h -0.3 m -3.55,6.15 0.1,1.4 q 0,2.25 -0.6,2.25 -0.25,0 -0.3,-0.55 L -3.95,-8.7 -5,-8.6 h -0.25 l 0.05,0.95 q 0,0.4 -0.4,0.45 h -0.05 q -0.5,0 -0.6,-3.65 0.05,-0.75 0.45,-0.75 0.25,0 0.4,2.1 l 0.45,-0.05 H -3.9 V -9.6 q 0,-1 0.35,-1.6 l 0.1,-0.15 h 0.1 l 0.15,0.45 m 8.95,0.95 1.05,0.9 q 0.6,-0.9 0.95,-0.9 H 7.8 L 7.95,-9.55 6.3,-7.3 H 6.05 L 5.85,-7.65 6.3,-8.45 5.55,-9.5 q 0,-0.4 0.2,-0.45 M 3.35,-10 H 4.1 q 1.1,0.15 1.1,0.95 V -9 q 0,0.8 -1.3,0.8 L 4,-7.6 Q 3.85,-7.25 3.55,-7.25 H 3.5 q -0.35,0 -0.45,-1.7 L 3.15,-9.5 3.1,-9.6 3.35,-9.95 V -10 m 0.35,0.6 0.1,0.55 h 0.05 l 0.6,-0.1 v -0.3 L 4.3,-9.4 H 3.7 m -3,-0.6 h 0.75 q 1.1,0.15 1.1,0.95 V -9 q 0,0.8 -1.3,0.8 l 0.1,0.6 Q 1.2,-7.25 0.9,-7.25 H 0.85 q -0.35,0 -0.45,-1.7 L 0.5,-9.5 0.45,-9.6 0.7,-9.95 V -10 m 0.35,0.6 0.1,0.55 H 1.2 l 0.6,-0.1 v -0.3 L 1.65,-9.4 h -0.6 m 3.1,4.8 h 0.4 q 1.15,0.2 1.15,1 v 0.15 q 0,0.95 -0.95,1.4 l -0.4,0.1 H 4 q -0.6,0 -0.6,-1.65 0,-1 0.75,-1 M 4,-4 4.05,-3.85 4.1,-2.6 h 0.15 q 0.65,0 0.8,-0.85 Q 4.85,-4 4.4,-4 H 4 M 2.3,-4.55 q 0.4,0 0.4,0.4 L 2.65,-4 2.7,-2.95 v 0.7 l -0.2,0.2 H 2.35 Q 2.05,-2.3 2.05,-2.95 H 1.4 L 1.45,-2.5 Q 1.4,-2 1.05,-2 0.65,-2 0.6,-2.95 v -0.5 Q 0.65,-4.5 0.9,-4.5 l 0.45,0.85 H 2 V -4.1 q 0,-0.45 0.3,-0.45 m -3.65,-0.1 1.5,0.35 v 0.1 q 0,0.15 -0.85,0.3 l 0.15,1.45 -0.3,0.35 h -0.2 q -0.4,0 -0.4,-0.5 l 0.2,-1.3 H -1.6 q -0.5,0 -0.5,-0.35 v -0.1 l 0.75,-0.3 m 6.55,3.8 H 5.45 Q 5.8,-0.6 5.8,-0.05 L 5.65,1.1 5.75,3 5.35,3.35 Q 4.85,3.35 4.8,2.2 V 1.65 L 4.85,0.5 V 0.45 H 4.8 l -0.65,0.9 h -0.1 q -0.35,0 -1,-0.8 V 0.6 2.8 2.95 L 2.9,3.3 H 2.75 Q 2.4,3.3 2.25,-0.05 V -0.4 L 2.5,-0.75 4,0.3 q 0.8,-1.15 1.2,-1.15 m 3.85,-3.8 1.05,0.9 q 0.6,-0.9 0.95,-0.9 h 0.05 l 0.15,0.4 L 9.6,-2 H 9.35 L 9.15,-2.35 9.6,-3.15 8.85,-4.2 9.05,-4.65 m -1.55,0.3 q 0.75,0 0.85,1.9 V -2.4 L 8.1,-2 H 7.95 Q 7.8,-2 7.7,-2.75 L 7.35,-2.7 H 6.8 Q 6.7,-1.95 6.45,-1.95 6.1,-2 6.1,-2.25 6.3,-3.6 6.7,-4.1 l 0.8,-0.25 m -0.55,1.1 h 0.7 L 7.4,-3.8 H 7.3 l -0.35,0.55 m 0,1.9 h 0.1 l 0.4,0.65 v 0.5 L 7.5,0.7 q 0,1.25 -0.55,1.25 H 6.9 q -0.35,-0.1 -0.45,-2.7 0.2,-0.6 0.5,-0.6 M 6.8,2.45 H 7.1 Q 7.5,2.5 7.5,2.8 7.5,3.25 7.1,3.25 H 6.8 L 6.6,2.85 V 2.8 L 6.8,2.45 m -6.75,-3.3 q 1.05,0 1.55,1.35 l 0.05,0.4 v 0.3 q 0,1.7 -1.2,2.1 L 0.15,3.35 H -0.2 q -1.05,0 -1.5,-1.2 L -1.75,1.4 V 1.3 q 0,-1.5 1.1,-2.05 l 0.7,-0.1 M -1,1.25 Q -0.85,2.5 -0.25,2.5 H 0.1 q 0.65,0 0.75,-1.15 V 0.9 q -0.2,-1 -0.8,-1 h -0.2 Q -1,-0.1 -1,1.25 M 1.1,15 -1.55,14.95 q 0.3,0.6 0.3,1.15 L -1.3,17.8 0.95,17.7 0.85,17.1 Q 0.85,15.85 1.1,15 M -1.1,-9.65 q 0.75,0 0.85,1.9 v 0.05 q 0,0.25 -0.25,0.4 H -0.65 L -0.9,-8.05 -1.25,-8 H -1.8 q -0.1,0.75 -0.35,0.75 l -0.35,-0.3 q 0.2,-1.35 0.6,-1.85 l 0.8,-0.25 m -0.55,1.1 h 0.7 Q -1.05,-9.1 -1.2,-9.1 h -0.1 l -0.35,0.55 M -9.4,-6 l 0.35,-0.25 0.3,0.15 0.4,-0.1 h 0.45 0.1 q 1.25,0.15 1.25,1.05 L -6.8,-4.6 v 0.05 q 0.4,0 0.5,0.8 l 0.05,0.45 q -0.4,1.25 -1.8,1.25 h -0.4 Q -9.3,-2.2 -9.3,-2.9 L -9.25,-3.55 -9.5,-5.75 -9.4,-6 m 0.9,2.45 0.25,0.7 q 0.9,0 1.25,-0.55 V -3.6 Q -7,-4 -7.4,-4 h -0.05 l -1.05,0.45 m 3.05,-0.65 h 0.1 q 0.3,0.1 0.3,0.75 v 0.85 q 0,0.5 -0.35,0.5 H -5.5 L -5.75,-2.5 V -2.9 L -5.8,-3.35 -5.45,-4.2 m -3.15,-0.7 0.05,0.5 q 0.1,0 0.6,-0.3 0.6,0 0.6,-0.45 0,-0.35 -0.85,-0.35 -0.4,0.15 -0.4,0.6 m 5.5,4.05 h 0.25 q 0.35,0.25 0.35,0.8 L -2.65,1.1 -2.55,3 q -0.15,0.35 -0.4,0.35 -0.5,0 -0.55,-1.15 V 1.65 L -3.45,0.5 V 0.45 H -3.5 q 0,0.25 -0.65,0.9 h -0.1 l -1,-0.8 V 0.6 2.8 2.95 L -5.4,3.3 h -0.15 q -0.35,0 -0.5,-3.35 V -0.4 l 0.25,-0.35 1.5,1.05 q 0.8,-1.15 1.2,-1.15 m -0.2,-3.8 q 0.9,0.15 0.9,0.7 v 0.35 q 0,0.3 -0.5,0.6 0.6,0.35 0.6,0.7 l -0.2,0.2 h -0.1 l -1.05,-0.85 h -0.1 l 0.15,0.8 -0.2,0.25 h -0.15 q -0.3,-0.1 -0.4,-1.95 0,-0.75 1.05,-0.8 m -0.5,0.75 v 0.4 l 0.75,-0.15 v -0.3 L -3.25,-4 H -3.7 l -0.1,0.1"
         fill="#6b6b6b"
         fill-rule="evenodd"
         stroke="none"
         id="path1" />
      <path
         d="m 9.35,-7.25 q 0.6,0.4 0.75,1.5 L 10,-5.55 9.7,-5.5 8.75,-6.55 q 0,-1.05 0.6,-0.7 M -7.8,-6.2 h -0.1 -0.45 l -0.4,0.1 -0.3,-0.15 -0.35,0.25 -0.05,-0.1 0.35,-0.55 1.35,-0.2 Q -7.6,-7 -7.6,-6.65 l -0.2,0.45"
         fill="#e0e0e0"
         fill-rule="evenodd"
         stroke="none"
         id="path2" />
      <path
         d="m -5.55,-12.95 q 0,0.5 -0.65,0.85 l -1.75,0.65 -0.55,-0.65 q 0,-0.9 1.5,-1.35 1.45,-0.5 1.45,0.5"
         fill="#cccccc"
         fill-rule="evenodd"
         stroke="none"
         id="path3" />
      <path
         d="m 4,-12.55 -0.05,0.3 q -0.05,0.65 -0.6,0.65 -1.6,0 -1.35,-0.95 v -0.05 q 0.05,-0.65 0.55,-1.25 0.6,-0.8 1.4,-0.45 v 1.2 L 4,-12.55 M -11.5,2.3 -11.2,2.2 q 1.05,-0.15 1.05,0.6 l -0.7,0.95 -0.05,0.05 -0.75,0.7 q -0.9,0 -0.65,-1.1 0,-0.85 0.8,-1.1 m 8.7,6.5 0.6,-0.4 Q -1,7.75 -1,8.85 v 0.1 q -0.05,0.4 -0.6,0.95 -0.6,0.6 -1.05,0.6 -0.8,0 -0.75,-0.6 0,-0.6 0.6,-1.1 M 6.05,8.05 Q 6.15,6.55 7.2,6.65 7.85,6.7 8.1,7.15 L 8.3,7.9 Q 8.3,9 7.05,9 6.25,9 6.1,8.65 L 6.05,8.3 V 8.05 m 5.7,-5 Q 11.1,2.9 10.7,2.5 10.25,2.05 10.25,1.65 10.25,0.5 11.6,1 l 0.7,0.3 q 0.65,0.45 0.65,1.1 V 2.95 L 12.45,3.1 11.75,3.05 M 11.6,-7.3 H 11.5 Q 10,-7.3 10,-8 10,-8.35 10.55,-8.55 L 11.2,-8.7 q 1.15,-0.15 1.15,0.8 0,0.55 -0.75,0.6 m -2.1,-4.9 q 0,-0.7 0.7,-0.7 0.65,0 0.65,0.8 0,0.95 -0.55,0.95 -0.45,0 -0.65,-0.5 L 9.5,-12.2 m -9.3,1.85 q 0,0.7 -0.75,0.7 -0.5,0 -0.7,-0.45 l -0.05,-0.3 v -0.15 -0.2 q 0,-1.25 0.85,-0.95 0.8,0.3 0.8,0.85 l -0.15,0.5 M 3.65,11.4 Q 3,11.4 2.6,10.65 L 2.3,9.9 q 0,-1.05 1.05,-0.3 1.05,0.75 1.05,1.1 0,0.7 -0.75,0.7 m -10.4,-26.05 q 0,0.25 -0.5,0.85 -0.6,0.7 -0.95,0.7 -0.65,0 -0.65,-0.7 2.1,-2.5 2.1,-0.85 m 4.4,-0.25 q 0,1.45 -0.75,1.45 -1.05,0 -1.05,-0.9 0,-1.4 0.9,-1.75 0.9,-0.3 0.9,1.2 m -8.7,3.6 0.5,0.15 q 0.1,-0.75 0.55,-0.1 0.55,0.75 0.75,1.75 l -0.05,0.4 -0.4,0.05 -0.3,-0.05 -0.15,0.05 q -0.6,0 -1.65,-1.3 0,-0.8 0.75,-0.95 m -3.5,8.8 v -0.35 q 0,-0.85 1.2,-0.9 1.2,0 1.2,0.9 0,0.55 -0.4,0.7 l -0.9,0.1 q -0.95,0 -1.1,-0.45 M -2.9,5.75 -3.3,6.3 -4.15,6.55 q -1.35,0 -1.05,-0.6 0,-0.75 2.25,-0.6 l 0.05,0.4 M -8.35,9.1 V 9.45 L -8.5,9.6 -8.8,9.7 q -0.75,0 -1.15,-0.6 l -0.2,-0.45 q 0,-0.9 0.9,-0.55 0.9,0.3 0.9,1"
         fill="#9f9f9f"
         fill-rule="evenodd"
         stroke="none"
         id="path4" />
      <path
         d="m 0.35,-17.05 h 0.3 q 9.25,0.3 12.75,5.8 1.85,2.95 1.85,7.3 L 15.15,-1.4 15,0.45 Q 14.55,3.55 13.55,5.6 10.55,11.9 2,12.95 H 1.35 V 12.9 L -1.5,12.85 1.9,13.1 -2.15,12.9 Q -10.7,11.75 -13.6,5.45 -14.6,3.4 -14.95,0.3 l -0.2,-1.85 -0.05,-2.55 q 0,-4.35 1.95,-7.3 3.35,-5.2 11.9,-5.7 l 0.5,0.05 h 0.65 0.55 m 0.4,2.75 q 0.65,0 0.65,-0.65 0,-0.7 -0.95,-1.15 -0.95,-0.5 -0.95,0.65 l 0.25,0.55 q 0.4,0.6 1,0.6 M 2,-12.6 H 0.9 l -3.2,0.35 q 0,0.8 -0.9,1.35 l -0.15,-0.45 h -0.1 l -0.1,0.15 -0.2,-0.35 0.4,-0.6 q -2.35,0.1 -4.05,1.4 0.7,0.55 0.7,1.25 v 0.4 l -0.6,0.05 q -0.5,0 -1.05,-0.85 -1.3,1.4 -2.15,3.6 l -0.25,0.65 q -0.2,-0.65 -0.8,-1 -1,-0.55 -1,1.15 l 0.25,0.7 q 0.3,0.85 0.8,0.85 h 0.25 Q -11.8,-1.8 -11.8,0.5 l 0.3,1.8 q -0.8,0.25 -0.8,1.1 -0.25,1.1 0.65,1.1 l 0.75,-0.7 1.05,1.5 0.05,0.05 q 0.2,-0.5 0.7,-0.85 0.85,-0.65 0.85,0.45 l -0.4,1 -0.25,0.35 q 2.3,2 6.1,2.5 -0.6,0.5 -0.6,1.1 -0.05,0.6 0.75,0.6 0.45,0 1.05,-0.6 0.55,-0.55 0.6,-0.95 h 0.65 l 4,-0.3 L 3.5,8.1 Q 3.5,6.9 4.35,7.05 5.15,7.25 5.2,8.3 L 6.05,8.05 V 8.3 L 6.1,8.65 Q 6.25,9 7.05,9 8.3,9 8.3,7.9 L 8.1,7.15 Q 10,6 11.1,4.25 l 0.65,-1.2 0.7,0.05 0.5,-0.15 V 2.4 q 0,-0.65 -0.65,-1.1 0.35,-1.65 0.35,-3.7 L 12.5,-4.55 q 1.1,-0.15 1.1,-0.9 0,-1 -1.35,-0.7 l -0.1,0.05 -0.55,-1.2 q 0.75,-0.05 0.75,-0.6 0,-0.95 -1.15,-0.8 L 10.55,-8.55 10.3,-8.75 9.2,-9.8 q 0.5,-0.4 0.5,-0.75 0,-0.95 -1.25,-0.45 l -0.4,0.15 -1.4,-1.1 q -1,-0.5 -2.65,-0.6 L 3.95,-13.1 v -1.2 q -0.8,-0.35 -1.4,0.45 -0.5,0.6 -0.55,1.25 m 3.6,-0.65 v 0.7 l 0.5,0.2 1.25,-0.8 0.65,-0.8 q 0,-1.75 -2.4,0.7 m 3.9,1.05 0.15,0.55 q 0.2,0.5 0.65,0.5 0.55,0 0.55,-0.95 0,-0.8 -0.65,-0.8 -0.7,0 -0.7,0.7 m 4.7,11.9 q 0.85,0 0.85,-0.65 l -0.95,-1.6 q -1,-1.15 -1,1 l 0.2,0.6 q 0.3,0.65 0.9,0.65 m -2.75,7.7 q 0,-1 -1.05,-0.55 Q 9.35,7.3 9.35,8 L 9.5,8.4 10.25,8.8 11,8.3 11.45,7.4 M 0.05,7.05 0.65,6.45 Q 1.35,5.9 1.9,5.85 L 2,6.3 1.55,7.05 Q 1.1,7.45 0.75,7.45 L 0.2,7.35 Q 0.05,7.4 0.05,7.05 m 0.9,4.05 0.65,-0.9 q 0,-1.05 -1.1,-0.3 -1.15,0.7 -1.15,1.35 -0.05,0.55 0.6,0.55 l 1,-0.7 m 2.7,0.3 Q 4.4,11.4 4.4,10.7 4.4,10.35 3.35,9.6 2.3,8.85 2.3,9.9 l 0.3,0.75 Q 3,11.4 3.65,11.4 M 1.1,15 q -0.25,0.85 -0.25,2.1 l 0.1,0.6 -2.25,0.1 0.05,-1.7 q 0,-0.55 -0.3,-1.15 L 1.1,15 m -6.65,-27.95 q 0,-1 -1.45,-0.5 -1.5,0.45 -1.5,1.35 l 0.55,0.65 1.75,-0.65 q 0.65,-0.35 0.65,-0.85 m -9,10.45 q 0.15,0.45 1.1,0.45 l 0.9,-0.1 q 0.4,-0.15 0.4,-0.7 0,-0.9 -1.2,-0.9 -1.2,0.05 -1.2,0.9 v 0.35 m 3.5,-8.8 q -0.75,0.15 -0.75,0.95 1.05,1.3 1.65,1.3 l 0.15,-0.05 0.3,0.05 0.4,-0.05 0.05,-0.4 q -0.2,-1 -0.75,-1.75 -0.45,-0.65 -0.55,0.1 l -0.5,-0.15 m 8.7,-3.6 q 0,-1.5 -0.9,-1.2 -0.9,0.35 -0.9,1.75 0,0.9 1.05,0.9 0.75,0 0.75,-1.45 m -4.4,0.25 q 0,-1.65 -2.1,0.85 0,0.7 0.65,0.7 0.35,0 0.95,-0.7 0.5,-0.6 0.5,-0.85 M -6.6,11.1 q 0.25,0.7 0.9,0.7 0.65,-0.15 0.65,-0.75 0,-1 -0.85,-1.35 -0.85,-0.3 -0.85,0.75 l 0.15,0.65 m -1.75,-2 q 0,-0.7 -0.9,-1 -0.9,-0.35 -0.9,0.55 l 0.2,0.45 q 0.4,0.6 1.15,0.6 L -8.5,9.6 -8.35,9.45 V 9.1 M -13.6,2.65 -12.95,2.2 q 0.25,-0.4 0.25,-0.8 0,-1.15 -0.8,-0.95 -0.85,0.2 -0.85,1.4 -0.05,0.8 0.75,0.8"
         fill="#e1bebe"
         fill-rule="evenodd"
         stroke="none"
         id="path5" />
      <path
         d="m 0.75,-14.3 q -0.6,0 -1,-0.6 l -0.25,-0.55 q 0,-1.15 0.95,-0.65 0.95,0.45 0.95,1.15 0,0.65 -0.65,0.65 M 2,-12.6 v 0.05 q -0.25,0.95 1.35,0.95 0.55,0 0.6,-0.65 L 4,-12.55 q 1.65,0.1 2.65,0.6 l 1.4,1.1 0.4,-0.15 q 1.25,-0.5 1.25,0.45 0,0.35 -0.5,0.75 l 1.1,1.05 0.25,0.2 Q 10,-8.35 10,-8 q 0,0.7 1.5,0.7 h 0.1 l 0.55,1.2 0.1,-0.05 q 1.35,-0.3 1.35,0.7 0,0.75 -1.1,0.9 l 0.15,2.15 q 0,2.05 -0.35,3.7 L 11.6,1 q -1.35,-0.5 -1.35,0.65 0,0.4 0.45,0.85 0.4,0.4 1.05,0.55 L 11.1,4.25 Q 10,6 8.1,7.15 7.85,6.7 7.2,6.65 6.15,6.55 6.05,8.05 L 5.2,8.3 Q 5.15,7.25 4.35,7.05 3.5,6.9 3.5,8.1 l 0.15,0.55 -4,0.3 H -1 V 8.85 Q -1,7.75 -2.2,8.4 L -2.8,8.8 Q -6.6,8.3 -8.9,6.3 l 0.25,-0.35 0.4,-1 q 0,-1.1 -0.85,-0.45 -0.5,0.35 -0.7,0.85 L -9.85,5.3 -10.9,3.8 l 0.05,-0.05 0.7,-0.95 q 0,-0.75 -1.05,-0.6 l -0.3,0.1 -0.3,-1.8 q 0,-2.3 0.55,-4.45 h -0.25 q -0.5,0 -0.8,-0.85 l -0.25,-0.7 q 0,-1.7 1,-1.15 0.6,0.35 0.8,1 l 0.25,-0.65 q 0.85,-2.2 2.15,-3.6 0.55,0.85 1.05,0.85 l 0.6,-0.05 v -0.4 q 0,-0.7 -0.7,-1.25 1.7,-1.3 4.05,-1.4 l -0.4,0.6 0.2,0.35 q -0.35,0.6 -0.35,1.6 v 0.05 H -4.95 L -5.4,-9.5 q -0.15,-2.1 -0.4,-2.1 -0.4,0 -0.45,0.75 0.1,3.65 0.6,3.65 h 0.05 q 0.4,-0.05 0.4,-0.45 L -5.25,-8.6 H -5 L -3.95,-8.7 -4,-7.8 q 0.05,0.55 0.3,0.55 0.6,0 0.6,-2.25 l -0.1,-1.4 q 0.9,-0.55 0.9,-1.35 L 0.9,-12.6 H 2 m 3.6,-0.65 Q 8,-15.7 8,-13.95 l -0.65,0.8 -1.25,0.8 -0.5,-0.2 v -0.7 M 3.35,-10 v 0.05 l -0.25,0.35 0.05,0.1 -0.1,0.55 q 0.1,1.7 0.45,1.7 h 0.05 q 0.3,0 0.45,-0.35 L 3.9,-8.2 q 1.3,0 1.3,-0.8 V -9.05 Q 5.2,-9.85 4.1,-10 H 3.35 m 2.4,0.05 q -0.2,0.05 -0.2,0.45 l 0.75,1.05 -0.45,0.8 0.2,0.35 H 6.3 L 7.95,-9.55 7.8,-9.95 H 7.75 q -0.35,0 -0.95,0.9 l -1.05,-0.9 m 3.6,2.7 q -0.6,-0.35 -0.6,0.7 L 9.7,-5.5 10,-5.55 10.1,-5.75 Q 9.95,-6.85 9.35,-7.25 M 0.7,-10 v 0.05 L 0.45,-9.6 0.5,-9.5 0.4,-8.95 q 0.1,1.7 0.45,1.7 H 0.9 q 0.3,0 0.45,-0.35 l -0.1,-0.6 q 1.3,0 1.3,-0.8 v -0.05 q 0,-0.8 -1.1,-0.95 H 0.7 m 3,0.6 h 0.6 l 0.15,0.15 v 0.3 l -0.6,0.1 H 3.8 L 3.7,-9.4 m -3.5,-0.95 0.15,-0.5 q 0,-0.55 -0.8,-0.85 -0.85,-0.3 -0.85,0.95 v 0.2 0.15 l 0.05,0.3 q 0.2,0.45 0.7,0.45 0.75,0 0.75,-0.7 m 6.75,9 q -0.3,0 -0.5,0.6 0.1,2.6 0.45,2.7 H 6.95 Q 7.5,1.95 7.5,0.7 L 7.45,-0.2 v -0.5 l -0.4,-0.65 h -0.1 m 0,-1.9 0.35,-0.55 h 0.1 l 0.25,0.55 H 6.95 M 7.5,-4.35 6.7,-4.1 q -0.4,0.5 -0.6,1.85 0,0.25 0.35,0.3 0.25,0 0.35,-0.75 H 7.35 L 7.7,-2.75 Q 7.8,-2 7.95,-2 H 8.1 l 0.25,-0.4 v -0.05 q -0.1,-1.9 -0.85,-1.9 m 1.55,-0.3 -0.2,0.45 0.75,1.05 -0.45,0.8 0.2,0.35 H 9.6 l 1.65,-2.25 -0.15,-0.4 h -0.05 q -0.35,0 -0.95,0.9 L 9.05,-4.65 M 5.2,-0.85 Q 4.8,-0.85 4,0.3 L 2.5,-0.75 2.25,-0.4 v 0.35 Q 2.4,3.3 2.75,3.3 H 2.9 L 3.05,2.95 V 2.8 0.6 0.55 q 0.65,0.8 1,0.8 h 0.1 L 4.8,0.45 H 4.85 V 0.5 L 4.8,1.65 V 2.2 Q 4.85,3.35 5.35,3.35 L 5.75,3 5.65,1.1 5.8,-0.05 q 0,-0.55 -0.35,-0.8 H 5.2 m -6.55,-3.8 -0.75,0.3 v 0.1 q 0,0.35 0.5,0.35 h 0.35 l -0.2,1.3 q 0,0.5 0.4,0.5 h 0.2 l 0.3,-0.35 -0.15,-1.45 q 0.85,-0.15 0.85,-0.3 v -0.1 l -1.5,-0.35 m 3.65,0.1 Q 2,-4.55 2,-4.1 v 0.45 H 1.35 L 0.9,-4.5 q -0.25,0 -0.3,1.05 v 0.5 Q 0.65,-2 1.05,-2 1.4,-2 1.45,-2.5 L 1.4,-2.95 h 0.65 q 0,0.65 0.3,0.9 H 2.5 l 0.2,-0.2 v -0.7 L 2.65,-4 2.7,-4.15 q 0,-0.4 -0.4,-0.4 M 4,-4 H 4.4 Q 4.85,-4 5.05,-3.45 4.9,-2.6 4.25,-2.6 H 4.1 L 4.05,-3.85 4,-4 m 0.15,-0.6 q -0.75,0 -0.75,1 0,1.65 0.6,1.65 h 0.35 l 0.4,-0.1 Q 5.7,-2.5 5.7,-3.45 V -3.6 q 0,-0.8 -1.15,-1 h -0.4 m -3.1,-4.8 h 0.6 l 0.15,0.15 v 0.3 l -0.6,0.1 H 1.15 L 1.05,-9.4 m 13.15,9.1 q -0.6,0 -0.9,-0.65 l -0.2,-0.6 q 0,-2.15 1,-1 l 0.95,1.6 q 0,0.65 -0.85,0.65 M 11.45,7.4 11,8.3 10.25,8.8 9.5,8.4 9.35,8 Q 9.35,7.3 10.4,6.85 11.45,6.4 11.45,7.4 M -1,1.25 q 0,-1.35 0.85,-1.35 h 0.2 q 0.6,0 0.8,1 V 1.35 Q 0.75,2.5 0.1,2.5 H -0.25 Q -0.85,2.5 -1,1.25 m 1.05,-2.1 -0.7,0.1 q -1.1,0.55 -1.1,2.05 v 0.1 l 0.05,0.75 q 0.45,1.2 1.5,1.2 H 0.15 L 0.45,3.3 Q 1.65,2.9 1.65,1.2 V 0.9 L 1.6,0.5 Q 1.1,-0.85 0.05,-0.85 M 6.8,2.45 6.6,2.8 v 0.05 l 0.2,0.4 H 7.1 Q 7.5,3.25 7.5,2.8 7.5,2.5 7.1,2.45 H 6.8 m -6.75,4.6 q 0,0.35 0.15,0.3 l 0.55,0.1 q 0.35,0 0.8,-0.4 L 2,6.3 1.9,5.85 Q 1.35,5.9 0.65,6.45 l -0.6,0.6 m 0.9,4.05 -1,0.7 q -0.65,0 -0.6,-0.55 0,-0.65 1.15,-1.35 1.1,-0.75 1.1,0.3 L 0.95,11.1 M -1.1,-9.65 -1.9,-9.4 q -0.4,0.5 -0.6,1.85 l 0.35,0.3 q 0.25,0 0.35,-0.75 h 0.55 l 0.35,-0.05 0.25,0.75 h 0.15 q 0.25,-0.15 0.25,-0.4 v -0.05 q -0.1,-1.9 -0.85,-1.9 m -0.55,1.1 0.35,-0.55 h 0.1 q 0.15,0 0.25,0.55 h -0.7 m -6.15,2.35 0.2,-0.45 q 0,-0.35 -0.15,-0.2 l -1.35,0.2 -0.35,0.55 0.05,0.1 -0.1,0.25 0.25,2.2 -0.05,0.65 q 0,0.7 0.85,0.85 h 0.4 q 1.4,0 1.8,-1.25 L -6.3,-3.75 q -0.1,-0.8 -0.5,-0.8 V -4.6 l 0.25,-0.55 q 0,-0.9 -1.25,-1.05 m 4,2.3 0.1,-0.1 h 0.45 l 0.2,0.05 v 0.3 L -3.8,-3.5 v -0.4 m 0.5,-0.75 q -1.05,0.05 -1.05,0.8 0.1,1.85 0.4,1.95 h 0.15 l 0.2,-0.25 -0.15,-0.8 h 0.1 l 1.05,0.85 h 0.1 l 0.2,-0.2 q 0,-0.35 -0.6,-0.7 0.5,-0.3 0.5,-0.6 v -0.35 q 0,-0.55 -0.9,-0.7 m 0.2,3.8 q -0.4,0 -1.2,1.15 l -1.5,-1.05 -0.25,0.35 v 0.35 Q -5.9,3.3 -5.55,3.3 H -5.4 L -5.25,2.95 V 2.8 0.6 0.55 l 1,0.8 h 0.1 Q -3.5,0.7 -3.5,0.45 h 0.05 V 0.5 L -3.5,1.65 V 2.2 q 0.05,1.15 0.55,1.15 0.25,0 0.4,-0.35 l -0.1,-1.9 0.15,-1.15 q 0,-0.55 -0.35,-0.8 H -3.1 M -8.6,-4.9 q 0,-0.45 0.4,-0.6 0.85,0 0.85,0.35 0,0.45 -0.6,0.45 -0.5,0.3 -0.6,0.3 L -8.6,-4.9 m 3.15,0.7 -0.35,0.85 0.05,0.45 v 0.4 l 0.25,0.4 h 0.1 q 0.35,0 0.35,-0.5 v -0.85 q 0,-0.65 -0.3,-0.75 h -0.1 M -8.5,-3.55 -7.45,-4 h 0.05 q 0.4,0 0.4,0.4 v 0.2 q -0.35,0.55 -1.25,0.55 l -0.25,-0.7 m 5.6,9.3 -0.05,-0.4 Q -5.2,5.2 -5.2,5.95 q -0.3,0.6 1.05,0.6 L -3.3,6.3 -2.9,5.75 m -3.7,5.35 -0.15,-0.65 q 0,-1.05 0.85,-0.75 0.85,0.35 0.85,1.35 0,0.6 -0.65,0.75 -0.65,0 -0.9,-0.7 m -7,-8.45 q -0.8,0 -0.75,-0.8 0,-1.2 0.85,-1.4 0.8,-0.2 0.8,0.95 0,0.4 -0.25,0.8 l -0.65,0.45"
         fill="#c5a7a7"
         fill-rule="evenodd"
         stroke="none"
         id="path6" />
      <path
         d="m 2.1,-14.95 v 0.35 q 0,1.1 -0.6,1.25 -0.45,-0.1 -0.45,-0.7 0,-0.8 0.6,-1.25 l 0.45,0.35 M 9.15,9.2 Q 8.4,9.2 8.1,8.65 L 7.95,8 q 0,-1.15 1.2,-1.15 1.2,0 1.2,1.15 0,1.2 -1.2,1.2 M -5,-12.4 q -0.15,0.25 -0.6,0.25 -0.95,0 -1.15,-1.2 0,-1.25 0.85,-0.5 l 1.1,1.2 -0.2,0.25 m 0.75,-0.8 q -0.8,0 -1.15,-0.65 l -0.15,-0.65 q 0,-0.8 0.9,-0.4 0.9,0.45 0.9,1.05 0,0.65 -0.5,0.65 m -8.8,5.8 q -0.25,-0.4 -0.15,-0.9 0,-2.5 3.45,-4.25 3.4,-1.8 3.4,1.75 0,1.25 -0.7,2.4 -1.15,1.9 -3.75,1.9 -1.8,0 -2.25,-0.9 m -0.8,2.4 -0.1,-0.4 q 0,-0.8 1.05,-0.6 1.05,0.15 1.05,0.75 0,0.75 -1.05,0.75 -0.7,0 -0.95,-0.5 m 0.9,0.7 q 1.05,0 1.05,0.8 0,0.3 -0.35,0.55 l -0.65,0.2 q -1.1,0 -1.1,-0.85 0,-0.65 1.05,-0.7"
         fill="#ffffff"
         fill-rule="evenodd"
         stroke="none"
         id="path7" />
    </g>
  </defs>
</svg>
