<?xml version="1.0" encoding="UTF-8" standalone="no"?>
<svg
   ffdec:objectType="frame"
   height="35.349998"
   width="26.75"
   version="1.1"
   id="svg4"
   sodipodi:docname="1.svg"
   xmlns:inkscape="http://www.inkscape.org/namespaces/inkscape"
   xmlns:sodipodi="http://sodipodi.sourceforge.net/DTD/sodipodi-0.dtd"
   xmlns:xlink="http://www.w3.org/1999/xlink"
   xmlns="http://www.w3.org/2000/svg"
   xmlns:svg="http://www.w3.org/2000/svg"
   xmlns:ffdec="https://www.free-decompiler.com/flash">
  <sodipodi:namedview
     id="namedview4"
     pagecolor="#ffffff"
     bordercolor="#000000"
     borderopacity="0.25"
     inkscape:showpageshadow="2"
     inkscape:pageopacity="0.0"
     inkscape:pagecheckerboard="0"
     inkscape:deskcolor="#d1d1d1"
     fit-margin-top="5"
     fit-margin-left="5"
     fit-margin-right="5"
     fit-margin-bottom="5" />
  <g
     transform="translate(13.35,17.65)"
     id="g1">
    <use
       ffdec:characterId="3914"
       height="35.349998"
       transform="translate(-13.35,-17.65)"
       width="26.75"
       xlink:href="#shape0"
       id="use1" />
  </g>
  <defs
     id="defs4">
    <g
       id="shape0"
       transform="translate(13.35,17.65)">
      <path
         d="m 8.85,-13.55 q 0.65,1.4 0.65,3.25 0,1.35 -1.2,2.7 -1.3,1.5 -3.6,1.95 l 0.25,1.9 0.15,5.3 v 2.4 2.2 l -0.15,1 h 0.1 L 5,6.95 h 1.85 q 1.5,0.5 1.9,1.2 0.25,0.4 0.3,1.4 0.1,1 0.4,1.4 0.1,0.15 1.8,0.9 1.35,0.6 1.45,1.5 l 0.2,2.95 q 0,0.65 -0.9,0.9 H -6.95 q -0.9,-0.25 -0.9,-0.9 l 0.15,-1.6 h -0.5 q -2.6,0 -3.9,-2.35 l -0.75,-2.4 0.1,-5.1 0.6,-3.95 H -12 l 0.15,-1.25 q 0.6,-3.9 1.85,-5.45 2.3,-2.85 4.8,-2.6 2.3,0.2 2.3,2.3 v 0.4 l 1,0.15 h 0.15 v 0.05 l 0.45,0.15 q 0.65,0 0.75,0.45 0.25,0.2 0.25,0.65 l -0.25,0.85 -0.2,0.5 0.85,-0.05 0.05,-0.8 0.2,-1.9 q -2.3,-0.45 -3.6,-1.95 -1.2,-1.35 -1.2,-2.7 0,-3.25 2.05,-5.1 1.85,-1.7 4.6,-1.75 h 0.2 0.25 0.2 q 1.8,0.05 3.25,0.8 l 1.35,0.95 1.4,1.85 M 7.3,-13.1 7.15,-13.4 Q 6.2,-15.25 4,-15.25 l -0.85,0.05 -0.5,0.05 H 2.6 2.4 v -0.05 l -1.3,-0.05 q -2.25,0 -3.2,1.85 -0.45,0.85 -0.5,1.75 l -0.05,0.45 0.05,0.35 v 0.3 l 0.35,0.85 0.45,0.65 q 0.35,0.45 0.9,0.75 0.9,0.6 2.4,0.75 L 2.05,-7.5 H 2.4 2.5 2.55 2.65 L 3.4,-7.55 q 2.35,-0.2 3.45,-1.5 0.85,-0.95 0.85,-2.15 0,-1 -0.4,-1.9 m -7.95,0.45 q 0.65,-1.9 3.1,-1.65 h 0.1 0.05 q 1.65,-0.15 2.5,0.6 0.85,0.8 0.85,2.65 0,0.8 -0.55,1.4 -0.85,0.85 -2.75,1 H 2.55 2.4 L 1.6,-8.75 Q 0.3,-9 -0.3,-9.65 q -0.6,-0.6 -0.6,-1.4 v -0.2 l 0.25,-1.4 M 2.4,-13.3 2.3,-13.35 q -2.3,-0.3 -2.3,2.3 0,0.45 0.55,0.8 l 1.8,0.4 H 2.4 2.65 2.7 q 1.15,0 1.8,-0.4 0.55,-0.35 0.55,-0.8 0,-2.6 -2.3,-2.3 l -0.1,0.05 v 0.05 l -0.1,-0.05 -0.15,0.05 v -0.05 m 0.65,7.85 H 2.7 2.4 1.7 l 0.1,0.25 v 1.85 l 0.65,-0.1 0.8,0.1 0.05,0.05 v -1.9 l 0.05,-0.25 h -0.3 m -0.7,3.8 -0.55,-0.1 0.05,5.7 V 6.3 l -0.1,0.8 h 0.1 0.1 L 2.65,7.15 3.2,7.1 H 3.3 L 3.25,6.3 V 3.95 L 3.3,-1.65 H 2.35 M 5.1,9.55 4.4,9.05 H 3.9 L 2.95,8.85 2.85,8.8 2.8,8.75 2.6,8.6 H 2.45 L 2.2,8.8 2.05,8.9 1.15,9.05 h -0.5 l -0.35,0.3 -0.35,0.3 -0.6,0.65 q -0.55,0.65 -0.55,1.15 0,1.75 2.35,2.45 l 0.5,0.15 H 3.4 L 3.9,13.9 Q 5.2,13.5 5.8,12.85 L 6,12.5 6.25,11.45 q 0,-0.5 -0.55,-1.15 L 5.15,9.65 5.1,9.55 m -4.05,0.1 q 0.5,-0.4 1.45,-0.3 l 1,0.25 q 1.1,0.5 1.1,1.9 l -0.25,1 q -0.45,0.65 -1.65,0.65 -1.3,0 -1.9,-0.7 L 0.75,12.4 q -0.4,-0.45 -0.4,-0.9 0,-1.35 0.7,-1.85 m 0.05,1.6 q 0,0.45 0.5,0.75 l 1.15,0.3 q 1.15,0 1,-0.9 0,-0.95 -1.3,-1.2 Q 1.1,9.9 1.1,11.25 M 7.4,9.25 7.35,8.9 Q 7.1,8.3 6.45,8.1 L 6.4,8.25 6,8.4 5.7,8.45 l 0.15,0.1 0.9,0.9 q 0.75,1.1 0.75,2.7 L 7.45,12.55 6.65,13.7 6.6,13.85 6.35,14.1 h 0.6 l 3.65,0.1 H 11 V 13.55 L 9.9,13.45 Q 9.15,13.2 8.55,12.55 L 8.4,12.4 Q 7.6,11.6 7.4,10.7 V 9.8 9.25 M 11.15,15.3 11.1,14.9 4.35,15.05 H 0.7 L -6,14.9 -6.05,15.3 -6.1,15.4 H -5.95 11 11.15 V 15.3 M 0.05,-1.15 -0.4,-1.1 H -0.85 V -1 l -0.3,1.3 0.05,0.6 h 0.05 V 1.2 1.55 L -1.1,2.15 Q -1,3.5 -1.2,4.1 q 0.55,0.7 0.8,1.3 l 0.1,0.35 0.15,0.5 L 0,6.3 -0.05,6.15 V 3.95 L 0,0.9 0.05,-1.15 m -5.1,-5.8 q -3.8,0 -5.35,6.3 l -0.45,2.2 h -0.1 l -0.3,4.85 0.3,4.15 q 0.85,3.45 3.35,2.75 0.15,-0.9 1.4,-1.45 l 1.85,-0.9 0.1,-0.2 -0.55,0.05 q -0.9,0 -1.5,-0.6 L -6.75,9.5 V 9.1 L -7.95,8.9 -8.25,8.45 -8.05,8.1 V 7.6 q 0,-1.45 0.7,-1.6 l 0.8,-1.35 0.6,-0.8 L -6,3.3 V 2.05 0.9 L -5.8,-0.9 -6,-0.95 -6.05,-1 H -6.1 L -6.45,-1.05 -6.5,-1 q -0.5,0.65 -1.25,0.65 -0.95,0 -1.4,-0.55 l -0.3,-0.6 q 0,-1.9 1.75,-2 1.1,-0.05 1.5,0.6 h 0.05 V -3.05 Q -6.4,-3.2 -6.5,-3.7 v -0.65 q 0,-1 0.4,-1.2 L -6.05,-5.7 -5,-5.85 -4.4,-5.8 h 0.5 l -0.15,-0.5 q -0.3,-0.65 -1,-0.65 m -3.2,5.3 v 0.05 l 0.3,0.05 q 0.4,0 0.75,-0.3 l 0.1,-0.3 -1.05,-0.1 -0.1,0.6 m 5,-1.2 h 0.65 l 0.5,-0.3 0.5,-0.3 V -3.8 -4 l -0.15,-0.2 -0.05,-0.1 -0.4,-0.1 -1.15,0.1 -0.8,0.05 -0.9,-0.05 0.45,0.75 0.25,0.3 0.15,0.3 v 0.1 h 0.95 m -1.3,1.75 h -0.2 l -0.1,0.1 0.15,1.9 v 0.4 0.25 1.5 L -4.75,3.65 -5.1,4.45 -5.55,5.4 -5.8,6 l 1,-0.05 h 1.85 l 1.35,0.2 V 5.6 l -0.6,-1.15 -0.25,-1 V 2.2 0.9 h 0.05 l 0.25,-2 h -1 -1.4 M -4.75,7.2 -6.85,7.05 -6.8,7.6 V 7.85 L -6.05,7.8 h 0.7 l 1.8,0.05 H -3.4 L -2.45,7.2 H -3.1 -3.9 -4.1 -4.75 m 3,2.4 0.05,-0.15 q 0.45,-0.65 1.05,-1 L -1.35,8.25 -1.4,8.1 q -0.65,0.2 -0.85,0.8 l -0.1,0.45 v 0.45 0.9 q -0.2,0.9 -1,1.7 -1.1,1.25 -2.6,1.15 v 0.65 l 4.35,-0.1 h 0.35 L -1.6,13.7 q -0.85,-1.05 -0.85,-1.5 v -0.05 q 0,-1.5 0.7,-2.55 M -4.35,9.15 H -6 Q -5.7,9.9 -4.9,9.9 L -4,9.7 V 9.55 l 0.05,-0.4 h -0.4"
         fill="#6b6b6b"
         fill-rule="evenodd"
         stroke="none"
         id="path1" />
      <path
         d="m 6.1,-16.35 0.85,0.25 Q 9,-15.35 9,-14.05 l -0.15,0.5 -1.4,-1.85 -1.35,-0.95 m -8.7,5.8 v -0.3 l -0.05,-0.35 0.05,-0.45 q 0.05,-0.9 0.5,-1.75 0.95,-1.85 3.2,-1.85 l 1.3,0.05 v 0.05 H 2.6 2.65 L 3.15,-15.2 4,-15.25 q 2.2,0 3.15,1.85 l 0.15,0.3 -2.2,-0.6 Q 4.25,-14.45 2.6,-14.3 H 2.55 2.45 q -2.45,-0.25 -3.1,1.65 l -0.4,0.4 -0.45,0.6 -1.1,1.1 m 5.3,5.1 h 0.35 l 0.25,2.15 -0.05,-0.05 -0.8,-0.1 0.25,-2 M 1.95,7.1 V 6.05 l 0.3,-6.45 0.1,-1.25 H 3.3 L 3.25,3.95 V 6.3 L 3.3,7.1 H 3.2 L 2.65,7.15 1.95,7.1 m -2,2.55 0.35,-0.3 0.35,-0.3 h 0.5 L 2.05,8.9 2.2,8.8 2.45,8.6 H 2.6 L 2.8,8.75 2.85,8.8 2.95,8.85 3.9,9.05 H 4.4 L 5.1,9.55 4.25,9.6 H 3.5 L 2.5,9.35 Q 1.55,9.25 1.05,9.65 h -1.1 M 6.75,9.45 5.85,8.55 5.7,8.45 6,8.4 6.4,8.25 6.45,8.1 Q 7.1,8.3 7.35,8.9 L 7.4,9.25 7.05,9.4 6.75,9.45 m -10.1,-13.75 0.1,1.4 v 0.05 H -4.2 v -0.1 l -0.15,-0.3 0.2,-1 0.8,-0.05 m -1.35,5.6 0.1,-1.8 0.05,-0.6 h 1.4 l 0.2,7.05 H -4.8 l 0.05,-2.3 0.05,-0.6 V 1.55 1.3 m 1.6,5.9 -0.55,0.5 h -0.2 l -0.9,-0.5 h 0.65 0.2 0.8 m 0.75,2.15 0.1,-0.45 q 0.2,-0.6 0.85,-0.8 l 0.05,0.15 0.7,0.2 q -0.6,0.35 -1.05,1 L -1.75,9.6 -2.35,9.35"
         fill="#8e8e8e"
         fill-rule="evenodd"
         stroke="none"
         id="path2" />
      <path
         d="m -2.6,-10.55 1.1,-1.1 0.45,-0.6 0.4,-0.4 -0.25,1.4 v 0.2 q 0,0.8 0.6,1.4 0.6,0.65 1.9,0.9 l 0.8,0.1 h 0.15 0.1 q 1.9,-0.15 2.75,-1 0.55,-0.6 0.55,-1.4 0,-1.85 -0.85,-2.65 l 2.2,0.6 q 0.4,0.9 0.4,1.9 0,1.2 -0.85,2.15 -1.1,1.3 -3.45,1.5 L 2.65,-7.5 H 2.55 2.5 2.4 2.05 L 1.5,-7.55 Q 0,-7.7 -0.9,-8.3 -1.45,-8.6 -1.8,-9.05 L -2.25,-9.7 -2.6,-10.55 m 5,-2.75 v 0.05 l 0.15,-0.05 0.1,0.05 v -0.05 l 0.1,-0.05 q 2.3,-0.3 2.3,2.3 0,0.45 -0.55,0.8 -0.65,0.4 -1.8,0.4 H 2.65 2.4 2.35 l -1.8,-0.4 Q 0,-10.6 0,-11.05 q 0,-2.6 2.3,-2.3 l 0.1,0.05 m 0.65,7.85 h 0.3 L 3.3,-5.2 v 1.9 L 3.05,-5.45 m -0.6,2 -0.65,0.1 V -5.2 L 1.7,-5.45 h 0.7 0.3 l -0.25,2 m -0.1,1.8 -0.1,1.25 -0.3,6.45 V 7.1 H 1.85 1.75 L 1.85,6.3 V 3.95 l -0.05,-5.7 0.55,0.1 m -2.4,11.3 h 1.1 q -0.7,0.5 -0.7,1.85 0,0.45 0.4,0.9 l 0.05,0.05 q 0.6,0.7 1.9,0.7 1.2,0 1.65,-0.65 l 0.25,-1 Q 4.6,10.1 3.5,9.6 H 4.25 L 5.1,9.55 5.15,9.65 5.7,10.3 q 0.55,0.65 0.55,1.15 L 6,12.5 5.8,12.85 Q 5.2,13.5 3.9,13.9 L 3.4,14.05 H 1.65 L 1.15,13.9 q -2.35,-0.7 -2.35,-2.45 0,-0.5 0.55,-1.15 l 0.6,-0.65 m 1.15,1.6 q 0,-1.35 1.35,-1.05 1.3,0.25 1.3,1.2 0.15,0.9 -1,0.9 L 1.6,12 Q 1.1,11.7 1.1,11.25 m 6.3,-2 v 0.55 0.9 q 0.2,0.9 1,1.7 l 0.15,0.15 q 0.6,0.65 1.35,0.9 l 1.1,0.1 V 14.2 H 10.6 L 6.95,14.1 H 6.35 L 6.6,13.85 6.65,13.7 7.45,12.55 7.5,12.15 q 0,-1.6 -0.75,-2.7 L 7.05,9.4 7.4,9.25 M -6.05,15.3 -6,14.9 0.7,15.05 H 4.35 L 11.1,14.9 11.15,15.3 11,15.4 H -5.95 l -0.1,-0.1 m 2.7,-19.6 1.15,-0.1 0.4,0.1 0.05,0.1 0.15,0.2 v 0.2 0.35 l -0.5,0.3 -0.5,0.3 H -3.25 V -2.9 l -0.1,-1.4 m -1,1.05 -0.25,-0.3 -0.45,-0.75 0.9,0.05 -0.2,1 m -0.2,2.15 -0.05,0.6 -0.1,1.8 V 0.9 l -0.15,-1.9 0.1,-0.1 h 0.2 m -0.2,4.75 -0.05,2.3 -1,0.05 0.25,-0.6 0.45,-0.95 0.35,-0.8 m 1.8,2.3 -0.2,-7.05 h 1 l -0.25,2 h -0.05 v 1.3 1.25 l 0.25,1 0.6,1.15 V 6.15 L -2.95,5.95 M -3.1,7.2 h 0.65 L -3.4,7.85 H -3.55 L -5.35,7.8 h -0.7 L -6.8,7.85 V 7.6 l -0.05,-0.55 2.1,0.15 0.9,0.5 h 0.2 L -3.1,7.2 m 0.75,2.15 0.6,0.25 q -0.7,1.05 -0.7,2.55 v 0.05 q 0,0.45 0.85,1.5 l 0.35,0.4 H -1.6 l -4.35,0.1 v -0.65 q 1.5,0.1 2.6,-1.15 0.8,-0.8 1,-1.7 V 9.8 9.35 m -2,-0.2 h 0.4 L -4,9.55 V 9.7 L -4.9,9.9 Q -5.7,9.9 -6,9.15 h 1.65"
         fill="#797979"
         fill-rule="evenodd"
         stroke="none"
         id="path3" />
      <path
         d="m 8.85,-13.55 q 0.65,1.4 0.65,3.25 0,1.35 -1.2,2.7 -1.3,1.5 -3.6,1.95 l 0.25,1.9 0.15,5.3 v 2.4 2.2 l -0.15,1 h 0.1 L 5,6.95 h 1.85 q 1.5,0.5 1.9,1.2 0.25,0.4 0.3,1.4 0.1,1 0.4,1.4 0.1,0.15 1.8,0.9 1.35,0.6 1.45,1.5 l 0.2,2.95 q 0,0.65 -0.9,0.9 H -6.95 q -0.9,-0.25 -0.9,-0.9 l 0.15,-1.6 h -0.5 q -2.6,0 -3.9,-2.35 l -0.75,-2.4 0.1,-5.1 0.6,-3.95 H -12 l 0.15,-1.25 q 0.6,-3.9 1.85,-5.45 2.3,-2.85 4.8,-2.6 2.3,0.2 2.3,2.3 v 0.4 l 1,0.15 h 0.15 v 0.05 l 0.45,0.15 q 0.65,0 0.75,0.45 0.25,0.2 0.25,0.65 l -0.25,0.85 -0.2,0.5 0.85,-0.05 0.05,-0.8 0.2,-1.9 q -2.3,-0.45 -3.6,-1.95 -1.2,-1.35 -1.2,-2.7 0,-3.25 2.05,-5.1 1.85,-1.7 4.6,-1.75 h 0.2 0.25 0.2 q 1.8,0.05 3.25,0.8 l 1.35,0.95 z"
         fill="none"
         stroke="#6b6b6b"
         stroke-linecap="round"
         stroke-linejoin="round"
         stroke-width="1"
         id="path4" />
    </g>
  </defs>
</svg>
