<?xml version="1.0" encoding="UTF-8" standalone="no"?>
<svg
   ffdec:objectType="frame"
   height="38.299999"
   width="14.138095"
   version="1.1"
   id="svg4"
   sodipodi:docname="1.svg"
   xmlns:inkscape="http://www.inkscape.org/namespaces/inkscape"
   xmlns:sodipodi="http://sodipodi.sourceforge.net/DTD/sodipodi-0.dtd"
   xmlns:xlink="http://www.w3.org/1999/xlink"
   xmlns="http://www.w3.org/2000/svg"
   xmlns:svg="http://www.w3.org/2000/svg"
   xmlns:ffdec="https://www.free-decompiler.com/flash">
  <sodipodi:namedview
     id="namedview4"
     pagecolor="#ffffff"
     bordercolor="#000000"
     borderopacity="0.25"
     inkscape:showpageshadow="2"
     inkscape:pageopacity="0.0"
     inkscape:pagecheckerboard="0"
     inkscape:deskcolor="#d1d1d1"
     fit-margin-top="5"
     fit-margin-left="5"
     fit-margin-right="5"
     fit-margin-bottom="5" />
  <g
     transform="translate(7.05,19.15)"
     id="g1">
    <use
       ffdec:characterId="3878"
       height="38.299999"
       transform="translate(-7.05,-19.15)"
       width="14.15"
       xlink:href="#shape0"
       id="use1" />
  </g>
  <defs
     id="defs4">
    <g
       id="shape0"
       transform="translate(7.05,19.15)">
      <path
         d="m 2.1,-13.95 v -0.6 l -0.6,-0.75 -0.1,-0.1 -1.5,-0.1 -1,0.1 -0.35,0.15 v -0.15 l -0.05,-0.05 v 0.05 l -0.15,0.3 -0.15,0.15 h -0.25 l -0.05,1 h -0.4 l -0.05,-0.2 h -1.1 v 0.2 H -4.2 l -0.2,-1.45 -0.1,-0.75 v -0.25 h 9.4 l -0.05,0.25 -0.1,0.5 -0.45,1.7 H 2.1 m -1.3,1.65 -0.9,0.1 -1.15,-0.1 v -1.45 h 0.8 l 1.3,-0.05 -0.05,1.5 M -3.15,4.3 V 3.5 H 2.9 L 3.05,3.55 H 3.2 V 4.2 L 2.35,4.45 -0.8,4.55 -3.15,4.3"
         fill="#b1b1b1"
         fill-rule="evenodd"
         stroke="none"
         id="path1" />
      <path
         d="m -2.1,-13.95 0.05,-1 h 0.25 l 0.15,-0.15 0.15,-0.3 v -0.05 l 0.05,0.05 v 0.15 l 0.35,-0.15 1,-0.1 1.5,0.1 0.1,0.1 0.6,0.75 v 0.6 4.2 L 1.85,-1.95 2,-1.6 1.85,-1.1 1.4,-0.8 -1.25,-1 -1.45,-0.7 -1.9,-1.1 -2.25,-1.5 V -1.95 L -2.1,-2.5 v -9.3 -0.2 -1.95 m 6.4,0 0.45,-1.7 0.1,-0.5 0.05,-0.25 h -9.4 v 0.25 l 0.1,0.75 0.2,1.45 0.35,1.95 0.1,0.4 0.05,0.4 0.05,0.25 0.45,4.05 V 3 H 0.6 L 3.2,3.15 Q 3.2,-2.2 3.7,-8.1 l 0.6,-5.85 m -7.95,0 v -0.2 h 1.1 l 0.05,0.2 v 1 l -0.05,1.2 h -0.9 L -3.7,-11.8 v -1.1 l 0.05,-1.05 M 7,-17.95 7.05,-2 Q 7.25,17.9 6.4,17.9 L 6.35,17.8 6.2,18.05 5.75,18.35 v 0.1 l -0.2,0.7 H 2.95 L 2.85,19 v -0.65 h -6.2 l 0.05,0.35 q 0,0.3 -0.15,0.45 h -2.6 L -6.1,18.8 -6.05,18.35 H -6.3 q -0.6,0 -0.75,-6.6 l 0.1,-27.05 0.05,-1.8 0.1,-0.75 -0.05,-0.3 q 0,-0.95 1.9,-1 l 9.9,0.1 Q 7,-19.3 7,-18.25 l -0.05,0.3 H 7 m -8.25,5.65 v 0.45 l 0.05,0.95 0.2,5.1 v 3.5 L 0.05,-2.35 1.2,-2.3 0.85,-6.2 0.8,-11.2 v -1.1 l 0.05,-1.5 -1.3,0.05 h -0.8 v 1.45 m 6.15,2.45 0.05,-3.25 q -1,7.3 -1.2,12.25 V 0 0.8 1.3 Q 3.8,4.25 4.3,9.85 L 4.75,13.6 4.9,8.5 v -9.15 l -0.05,-6.4 0.05,-2.8 m -8.8,1.1 -0.7,-4.15 v 1.65 10.45 9.25 l 0.15,3.85 0.5,-4.8 0.2,-9.25 -0.15,-7 M 3.2,4.2 V 3.55 H 3.05 L 2.9,3.5 h -6.05 v 0.8 l -0.2,2.9 q 0,2.5 -0.55,5.5 l -0.6,2.7 -0.1,0.2 H 4.45 L 3.9,11.4 Q 3.3,6.3 3.2,4.2 m -5.05,6.85 q 0,1.65 1.65,1.9 V 11.2 l -1.05,-0.75 -0.4,-0.4 -0.2,1 M 1.4,9.95 0.5,11.3 0.4,12.15 v 0.8 q 1.25,0 1.45,-1.8 L 1.4,9.95 M 0.9,9.6 0,9.3 -1.2,9.35 0.05,10.65 0.5,10.1 0.9,9.6 m 2.15,1.6 q 0,3.45 -2.95,3.45 -3.3,0 -3.3,-3.45 0,-3.45 3.2,-3.35 3.05,0.05 3.05,3.35"
         fill="#6b6b6b"
         fill-rule="evenodd"
         stroke="none"
         id="path2" />
      <path
         d="M 2.1,-13.95 H 4.3 L 3.7,-8.1 Q 3.2,-2.2 3.2,3.15 L 0.6,3 h -3.8 v -9.9 l -0.45,-4.05 -0.05,-0.25 -0.05,-0.4 -0.1,-0.4 -0.35,-1.95 h 0.55 l -0.05,1.05 v 1.1 l 0.25,0.05 h 0.9 l 0.05,-1.2 v -1 h 0.4 v 1.95 0.2 9.3 l -0.15,0.55 v 0.45 l 0.35,0.4 0.45,0.4 L -1.25,-1 1.4,-0.8 1.85,-1.1 2,-1.6 1.85,-1.95 2.1,-9.75 v -4.2 m -1.3,1.65 v 1.1 l 0.05,5 L 1.2,-2.3 0.05,-2.35 -1,-2.3 v -3.5 l -0.2,-5.1 -0.05,-0.95 v -0.45 l 1.15,0.1 0.9,-0.1 M -3.15,4.3 -0.8,4.55 2.35,4.45 3.2,4.2 q 0.1,2.1 0.7,7.2 l 0.55,4.2 H -4.6 l 0.1,-0.2 0.6,-2.7 q 0.55,-3 0.55,-5.5 l 0.2,-2.9 m 6.2,6.9 Q 3.05,7.9 0,7.85 q -3.2,-0.1 -3.2,3.35 0,3.45 3.3,3.45 2.95,0 2.95,-3.45"
         fill="#9a9a9a"
         fill-rule="evenodd"
         stroke="none"
         id="path3" />
      <path
         d="m 4.9,-9.85 -0.05,2.8 0.05,6.4 V 8.5 L 4.75,13.6 4.3,9.85 Q 3.8,4.25 3.75,1.3 V 0.8 0 -0.85 Q 3.95,-5.8 4.95,-13.1 L 4.9,-9.85 m -8.8,1.1 0.15,7 -0.2,9.25 -0.5,4.8 L -4.6,8.45 V -0.8 -11.25 -12.9 l 0.7,4.15 M 0.9,9.6 0.5,10.1 0.05,10.65 -1.2,9.35 0,9.3 0.9,9.6 m 0.5,0.35 0.45,1.2 q -0.2,1.8 -1.45,1.8 v -0.8 L 0.5,11.3 1.4,9.95 m -3.25,1.1 0.2,-1 0.4,0.4 1.05,0.75 v 1.75 q -1.65,-0.25 -1.65,-1.9"
         fill="#bbbba5"
         fill-rule="evenodd"
         stroke="none"
         id="path4" />
    </g>
  </defs>
</svg>
