<?xml version="1.0" encoding="UTF-8" standalone="no"?>
<svg
   ffdec:objectType="frame"
   height="68.528122"
   width="138.60001"
   version="1.1"
   id="svg8"
   sodipodi:docname="1.svg"
   xmlns:inkscape="http://www.inkscape.org/namespaces/inkscape"
   xmlns:sodipodi="http://sodipodi.sourceforge.net/DTD/sodipodi-0.dtd"
   xmlns:xlink="http://www.w3.org/1999/xlink"
   xmlns="http://www.w3.org/2000/svg"
   xmlns:svg="http://www.w3.org/2000/svg"
   xmlns:ffdec="https://www.free-decompiler.com/flash">
  <sodipodi:namedview
     id="namedview8"
     pagecolor="#ffffff"
     bordercolor="#000000"
     borderopacity="0.25"
     inkscape:showpageshadow="2"
     inkscape:pageopacity="0.0"
     inkscape:pagecheckerboard="0"
     inkscape:deskcolor="#d1d1d1"
     fit-margin-top="5"
     fit-margin-left="5"
     fit-margin-right="5"
     fit-margin-bottom="5" />
  <g
     transform="translate(69.3,31.628125)"
     id="g2">
    <use
       ffdec:characterId="1249"
       height="20.950001"
       transform="translate(-61.5,-12.6)"
       width="96.5"
       xlink:href="#sprite0"
       id="use1" />
    <use
       ffdec:characterId="1250"
       height="68.550003"
       transform="translate(-69.3,-31.65)"
       width="138.60001"
       xlink:href="#shape1"
       id="use2" />
    <use
       ffdec:characterId="69"
       height="1.5"
       id="subplatform1"
       transform="matrix(0.102,0,0.1586,0.86,-68.058,-27.98)"
       width="1320.3"
       xlink:href="#sprite1" />
  </g>
  <defs
     id="defs8">
    <g
       id="sprite0"
       transform="translate(48.25,11.45)">
      <use
         ffdec:characterId="1248"
         height="20.950001"
         transform="translate(-48.25,-11.45)"
         width="96.5"
         xlink:href="#shape0"
         id="use3" />
    </g>
    <g
       id="shape0"
       transform="translate(48.25,11.45)">
      <path
         d="m 42.5,-7.3 -2.1,0.05 -72.15,-0.2 -13.2,-0.6 q 0.45,1.85 0.8,6.05 H 42.5 v -5.3 m 5.75,-2.1 q 0,1 -0.95,1.4 l -0.25,0.1 V 3.8 l 0.15,2.85 v 0.1 l 0.25,0.3 0.45,0.9 -0.45,1 L 47.2,9.2 V 9.25 L 47.15,9.5 H -47.7 l -0.15,-0.35 -0.15,-1.1 0.2,-7.3 q -0.45,-0.3 -0.45,-1.05 0,-0.6 0.6,-1 v -0.25 q 0.35,-4.95 0.95,-6.8 l -0.85,-0.2 q 0.65,-0.45 0.65,-1.05 -0.05,-0.55 0.45,-0.75 l 14.7,-0.9 72.15,-0.2 3.6,0.25 0.95,-0.15 q 0.75,0.05 1.25,0.5 l 1.25,0.35 q 0.8,0.3 0.8,1.1 M 42.5,1.45 H -43.95 L -43.8,6.5 -28.45,5.95 42.4,6.15 42.5,3.5 V 1.45"
         fill="#9a9a9a"
         fill-rule="evenodd"
         stroke="none"
         id="path3" />
      <path
         d="M 42.5,-7.3 V -2 h -86.65 q -0.35,-4.2 -0.8,-6.05 l 13.2,0.6 72.15,0.2 2.1,-0.05 m 0,8.75 V 3.5 L 42.4,6.15 -28.45,5.95 -43.8,6.5 -43.95,1.45 H 42.5"
         fill="#a1a1a1"
         fill-rule="evenodd"
         stroke="none"
         id="path4" />
    </g>
    <g
       id="shape1"
       transform="translate(69.3,31.65)">
      <path
         d="m 36.7,-12.25 -5.45,-0.4 -0.2,-0.05 v -0.35 l -0.05,-1.3 1.35,-0.1 h 4.55 6.05 21.65 l 1.85,0.05 0.35,1.45 v 0.65 l -7.95,0.05 h -1.3 -8.6 -4.65 l -1.55,-0.05 q -3.85,-0.2 -6.05,0.05 m -0.65,4.6 V -7.7 L 36,-9.2 v -0.2 h 8.8 l 0.15,-0.2 0.35,0.2 16.8,-0.1 -0.1,1.05 -0.05,1.35 H 61.9 v 0.05 l -0.25,0.1 H 52.4 V -7.5 l -0.15,-0.1 0.05,-0.25 q -0.55,-0.8 -1.9,-0.8 L 46,-8.25 45.85,-8.2 V -7 l -8.9,-0.05 -0.85,-0.6 h -0.05 m -101.4,-19.05 -0.2,-1.55 H 65.2 l -0.2,2.2 -81.05,-0.15 -49.3,-0.5 M 62,5 62.1,5.1 62,6.2 61.95,6.95 H 61.9 V 7.3 7.6 L 60.55,7.9 H 52.3 Q 51.75,7.1 50.4,7.1 L 46,7.5 45.85,7.55 V 7.9 H 43.8 L 36.05,7.3 V 7.2 6.95 L 36,5.15 62,5 M -65.9,-12.4 v -0.65 -0.65 l -0.05,-0.65 1.35,-0.1 h 4.55 6.05 21.65 l 1.85,0.05 0.05,0.2 0.3,1.2 -0.4,0.05 -11.25,0.55 h -23.6 -0.5"
         fill="#7b7b7b"
         fill-rule="evenodd"
         stroke="none"
         id="path5" />
      <path
         d="m 38.35,-20.2 h 0.1 l 0.1,-0.8 H 0.7 -11.35 -11.8 -38.9 l 0.1,0.8 h 0.1 l 0.05,1.75 v 0.15 h 9.2 q 0.65,0 1.2,0.5 l 0.4,0.55 h 0.15 v 1.65 l 0.4,-0.15 h 54.95 v -1.5 h 0.2 l 0.4,-0.55 0.75,-0.4 0.15,-0.1 h 9.15 l 0.05,-1.9 m -1.65,7.95 q 2.2,-0.25 6.05,-0.05 l 1.55,0.05 h 4.65 8.6 1.3 l 3.85,0.05 0.4,0.15 h 0.05 l 0.55,0.4 q 0.4,0.4 0.4,0.85 l -0.05,0.3 0.3,2.45 0.05,0.95 h 0.05 v 1 1.1 1.55 l -0.25,2.1 0.1,0.45 q 0,0.5 -0.45,0.75 l -0.7,0.6 q -0.3,0.05 -0.5,-0.2 L 55.2,0.45 35.25,0.35 34.9,0.2 h -0.1 l -0.55,-0.4 q -0.4,-0.4 -0.4,-0.85 L 33.9,-1.3 q -0.2,-0.85 -0.25,-2.15 l -0.05,-1 v -0.9 H 33.55 L 33.5,-7.5 q 0,-1.85 0.25,-3 l -0.1,-0.45 q 0,-0.5 0.45,-0.75 0.25,-0.55 0.7,-0.6 l 0.5,0.2 1.4,-0.15 m 30.1,-0.05 v -0.65 L 66.45,-14.4 64.6,-14.45 H 42.95 36.9 32.35 l -1.35,0.1 0.05,1.3 v 0.35 q 0,7.5 -0.35,12.45 V 3.6 h 0.05 L 31,15.3 v 0.65 0.3 l 0.05,7.3 v 0.85 3.1 L 31,28.9 h 1.35 4.45 6.15 21.65 1.85 q 0.05,-0.7 0.35,-1.5 v -39.7 m -4.9,5.25 V -7.1 h 0.05 L 62,-8.45 62.1,-9.5 45.3,-9.4 44.95,-9.6 44.8,-9.4 H 36 v 0.2 l 0.05,1.5 v 0.05 0.15 0.4 0.2 1.55 V -5 H 36 l -0.05,1.55 v 0.05 l -0.1,1.05 26.1,-0.1 -0.05,-1 V -5 -5.35 -5.75 -6.1 -6.9 -7.05 M 45.85,-7 v -1.2 l 0.15,-0.05 4.4,-0.4 q 1.35,0 1.9,0.8 l -0.05,0.25 0.15,0.1 V -6.95 -4 l -0.2,0.05 Q 51.7,-3.2 51.3,-3.2 L 46.45,-3.4 H 46.4 l -0.15,-0.05 q -0.05,0.15 -0.05,0 h -0.15 q -0.35,0 -0.65,-0.6 l 0.45,-0.2 V -7 m -111.2,-19.7 v 1.2 1.25 H 65 v -1.25 -0.55 l 0.2,-2.2 H -65.55 l 0.2,1.55 m 134.25,0.55 -0.25,2.2 v 0.2 l -0.05,0.1 0.2,0.95 q 0,0.65 -1.2,1.4 l -0.15,0.2 -0.05,-0.05 -0.25,0.15 H 55.8 l 0.1,0.8 v 0.6 0.3 0.5 l -0.05,0.5 H 67.5 l 1.2,0.5 0.4,0.55 h 0.2 v 49.2 l -0.45,0.2 h -2.5 V 36.9 H 30.75 V 32.15 H 28.1 l -0.45,-0.2 V -11 H -27.3 l -0.4,-0.1 v 4 h -17.9 -6.05 -4.55 l -1.35,0.1 0.05,1.3 q 0,7.75 -0.35,12.8 v 3.85 h 0.05 l 0.1,4.35 h 0.05 l 0.05,9.1 0.05,4.55 0.05,3.2 h -2.1 v 4.75 h -7.65 v -4.75 h -1.6 l -0.45,-0.2 v -49.2 h 0.2 l 0.4,-0.55 0.75,-0.4 0.15,-0.1 h 11.6 v -0.15 -0.35 h -0.05 v -0.5 -0.3 -0.6 h 0.05 q 0,-0.45 -0.45,-0.8 -0.2,0.15 -5.75,0 h -5.1 l -0.25,-0.15 -0.05,0.05 -0.15,-0.2 q -1.2,-0.75 -1.2,-1.4 l 0.2,-0.95 -0.05,-0.1 v -0.2 l -0.25,-2.2 v -4.25 l 0.45,-0.85 q 0.5,-0.55 1.45,-0.3 H 67 q 0.95,-0.25 1.45,0.3 l 0.45,0.85 v 4.25 M 52.2,-21 H 41.5 l 0.15,0.8 h 0.1 v 1.55 H 52.1 v -0.15 -0.25 -1 -0.15 h 0.05 L 52.2,-21 m -5.05,14.75 0.2,1.4 L 50.7,-5 50.6,-5.4 q -0.2,-0.75 -0.25,-1.45 l -3.2,0.2 v 0.4 m 16,8.45 0.55,0.45 q 0.4,0.45 0.4,0.95 l -0.05,0.3 0.3,2.7 0.05,0.35 h 0.05 v 6.1 2.25 0.55 0.4 5.95 1.35 0.85 h -0.1 l -0.15,0.95 0.1,0.5 q 0,0.55 -0.45,0.8 l -0.7,0.65 q -0.3,0.1 -0.5,-0.2 L 55.2,27.3 35.25,27.2 34.9,27.05 h -0.1 q -0.3,0 -0.55,-0.45 -0.4,-0.45 -0.4,-0.95 l 0.05,-0.25 -0.15,-1 H 33.7 V 23.55 L 33.65,22.2 33.6,17.45 V 9.05 H 33.55 L 33.5,7.2 q 0,-2 0.25,-3.3 L 33.65,3.45 Q 33.65,2.9 34.1,2.6 34.35,2 34.8,1.95 35.1,1.9 35.3,2.15 l 7.45,-0.2 19.95,0.1 0.4,0.15 h 0.05 M 62.1,5.1 V 5 H 62 l -26,0.15 0.05,1.8 V 7.2 7.3 7.9 8.6 9.05 L 36,15.3 v 0.55 0.2 0.2 l -0.05,5.95 v 0.25 1.1 l -0.05,0.7 v 0.15 h 26 V 24.15 23.55 22.2 16.25 15.85 15.3 13.05 9.05 8.6 7.9 7.6 7.3 6.95 h 0.05 L 62,6.2 62.1,5.1 m -9.8,2.8 -0.05,0.25 0.15,0.1 v 3.5 l -0.2,0.05 -0.9,0.75 -4.85,-0.2 H 46.4 L 46.25,12.3 H 46.2 46.05 L 45.6,12 45.85,7.9 V 7.55 L 46,7.5 50.4,7.1 q 1.35,0 1.9,0.8 m -4.95,3 3.35,-0.15 -0.1,-0.4 -0.25,-1.45 -3.2,0.2 v 0.4 l 0.2,1.4 m -77.5,-23.9 -0.3,-1.2 -0.05,-0.2 -1.85,-0.05 H -54 -60.05 -64.6 l -1.35,0.1 0.05,0.65 v 0.65 0.65 q 0,7.3 -0.35,12.15 V 3.6 h 0.05 l 0.25,11.7 v 0.65 0.3 l 0.05,7.3 v 0.85 3.1 l -0.05,1.4 h 1.35 3.7 V -9.9 h 0.2 l 0.4,-0.55 0.75,-0.4 0.15,-0.1 h 11.6 v -0.15 h 17.55 v 0.15 h 0.1 V -13 m -11.9,-7.2 h 0.1 l 0.1,-0.8 h -10.7 l 0.05,0.8 h 0.05 v 0.15 1 0.25 0.25 h 0.05 v -0.1 h 10.3 l 0.05,-1.55"
         fill="#6b6b6b"
         fill-rule="evenodd"
         stroke="none"
         id="path6" />
      <path
         d="m 31.05,-12.7 0.2,0.05 5.45,0.4 -1.4,0.15 -0.5,-0.2 q -0.45,0.05 -0.7,0.6 -0.45,0.25 -0.45,0.75 l 0.1,0.45 q -0.25,1.15 -0.25,3 l 0.05,2.15 h 0.05 v 0.9 l 0.05,1 q 0.05,1.3 0.25,2.15 l -0.05,0.25 q 0,0.45 0.4,0.85 l 0.55,0.4 h 0.1 l 0.35,0.15 19.95,0.1 7.45,-0.2 q 0.2,0.25 0.5,0.2 l 0.7,-0.6 Q 64.3,-0.4 64.3,-0.9 l -0.1,-0.45 0.25,-2.1 V -5 -6.1 -7.1 H 64.4 l -0.05,-0.95 -0.3,-2.45 0.05,-0.3 q 0,-0.45 -0.4,-0.85 l -0.55,-0.4 H 63.1 l -0.4,-0.15 -3.85,-0.05 7.95,-0.05 v 39.7 q -0.3,0.8 -0.35,1.5 H 64.6 42.95 36.8 32.35 31 l 0.05,-1.4 V 24.4 23.55 L 31,16.25 V 15.95 15.3 L 30.75,3.6 H 30.7 v -3.85 q 0.35,-4.95 0.35,-12.45 m 5,5.05 h 0.05 l 0.85,0.6 8.9,0.05 v 2.75 l -0.45,0.2 q 0.3,0.6 0.65,0.6 h 0.15 q 0,0.15 0.05,0 l 0.15,0.05 h 0.05 l 4.85,0.2 q 0.4,0 0.9,-0.75 L 52.4,-4 v -2.95 h 9.25 l 0.25,-0.1 v 0.15 0.8 0.35 0.4 0.35 1.55 l 0.05,1 -26.1,0.1 0.1,-1.05 V -3.45 L 36,-5 h 0.05 V -5.35 -6.9 -7.1 -7.5 -7.65 M 65,-26.05 v 0.55 1.25 H -65.35 v -1.25 -1.2 l 49.3,0.5 81.05,0.15 M 63.15,2.2 H 63.1 L 62.7,2.05 42.75,1.95 35.3,2.15 Q 35.1,1.9 34.8,1.95 34.35,2 34.1,2.6 33.65,2.9 33.65,3.45 l 0.1,0.45 Q 33.5,5.2 33.5,7.2 l 0.05,1.85 h 0.05 v 8.4 l 0.05,4.75 0.05,1.35 v 0.85 h 0.05 l 0.15,1 -0.05,0.25 q 0,0.5 0.4,0.95 0.25,0.45 0.55,0.45 h 0.1 l 0.35,0.15 19.95,0.1 7.45,-0.2 q 0.2,0.3 0.5,0.2 l 0.7,-0.65 q 0.45,-0.25 0.45,-0.8 l -0.1,-0.5 0.15,-0.95 h 0.1 V 23.55 22.2 16.25 15.85 15.3 13.05 6.95 H 64.4 L 64.35,6.6 64.05,3.9 64.1,3.6 q 0,-0.5 -0.4,-0.95 L 63.15,2.2 m -16,-8.45 v -0.4 l 3.2,-0.2 q 0.05,0.7 0.25,1.45 l 0.1,0.4 -3.35,0.15 -0.2,-1.4 M 52.2,-21 52.15,-20.2 H 52.1 v 0.15 1 0.25 0.15 H 41.75 v -1.55 h -0.1 L 41.5,-21 h 10.7 m 9.7,28.6 v 0.3 0.7 0.45 4 2.25 0.55 0.4 5.95 1.35 0.6 0.25 h -26 v -0.15 l 0.05,-0.7 V 22.45 22.2 L 36,16.25 v -0.2 -0.2 -0.55 L 36.05,9.05 V 8.6 7.9 7.3 l 7.75,0.6 h 2.05 l -0.25,4.1 0.45,0.3 h 0.15 0.05 l 0.15,0.05 h 0.05 l 4.85,0.2 0.9,-0.75 0.2,-0.05 V 8.25 L 52.25,8.15 52.3,7.9 h 8.25 L 61.9,7.6 M 47.35,10.9 47.15,9.5 V 9.1 l 3.2,-0.2 0.25,1.45 0.1,0.4 -3.35,0.15 M -65.9,-12.4 h 0.5 23.6 l 11.25,-0.55 0.4,-0.05 v 2.05 h -0.1 V -11.1 H -47.8 v 0.15 h -11.6 l -0.15,0.1 -0.75,0.4 -0.4,0.55 h -0.2 v 38.8 h -3.7 -1.35 l 0.05,-1.4 v -3.1 -0.85 l -0.05,-7.3 V 15.95 15.3 L -66.2,3.6 h -0.05 v -3.85 q 0.35,-4.85 0.35,-12.15 m 23.85,-7.8 -0.05,1.55 h -10.3 v 0.1 h -0.05 v -0.25 -0.25 -1 -0.15 h -0.05 l -0.05,-0.8 h 10.7 l -0.1,0.8 h -0.1"
         fill="#727272"
         fill-rule="evenodd"
         stroke="none"
         id="path7" />
    </g>
    <g
       id="sprite1"
       transform="translate(660.25,0.5)">
      <use
         ffdec:characterId="68"
         height="1.5"
         transform="translate(-660.25,-0.5)"
         width="1320.3"
         xlink:href="#shape2"
         id="use7" />
    </g>
    <g
       id="shape2"
       transform="translate(660.25,0.5)">
      <path
         d="m 659.3,-0.5 0.55,0.25 0.2,0.5 -0.2,0.55 L 659.3,1 H -659.5 l -0.5,-0.2 -0.25,-0.55 0.25,-0.5 0.5,-0.25 H 659.3"
         fill="#ffff00"
         fill-opacity="0"
         fill-rule="evenodd"
         stroke="none"
         id="path8" />
    </g>
  </defs>
</svg>
