<?xml version="1.0" encoding="UTF-8" standalone="no"?>
<svg
   ffdec:objectType="frame"
   height="34.349998"
   width="60.099998"
   version="1.1"
   id="svg6"
   sodipodi:docname="1.svg"
   xmlns:inkscape="http://www.inkscape.org/namespaces/inkscape"
   xmlns:sodipodi="http://sodipodi.sourceforge.net/DTD/sodipodi-0.dtd"
   xmlns:xlink="http://www.w3.org/1999/xlink"
   xmlns="http://www.w3.org/2000/svg"
   xmlns:svg="http://www.w3.org/2000/svg"
   xmlns:ffdec="https://www.free-decompiler.com/flash">
  <sodipodi:namedview
     id="namedview6"
     pagecolor="#ffffff"
     bordercolor="#000000"
     borderopacity="0.25"
     inkscape:showpageshadow="2"
     inkscape:pageopacity="0.0"
     inkscape:pagecheckerboard="0"
     inkscape:deskcolor="#d1d1d1"
     fit-margin-top="5"
     fit-margin-left="5"
     fit-margin-right="5"
     fit-margin-bottom="5" />
  <g
     transform="translate(30.35,15.3)"
     id="g1">
    <use
       ffdec:characterId="2254"
       height="34.349998"
       transform="translate(-30.35,-15.3)"
       width="60.099998"
       xlink:href="#shape0"
       id="use1" />
  </g>
  <defs
     id="defs6">
    <g
       id="shape0"
       transform="translate(30.35,15.3)">
      <path
         d="M 12.9,-7.7 V 11.25 H -23.7 V -7.7 h 36.6"
         fill="#666666"
         fill-rule="evenodd"
         stroke="none"
         id="path1" />
      <path
         d="m 17.1,-8.15 0.45,0.2 q 0.1,-0.2 0.35,-0.25 h 7.6 l 0.05,-0.1 0.1,0.15 0.2,0.15 0.1,0.3 -0.1,0.25 0.15,1.3 v 0.75 0.95 H 25.95 V -3.6 L 26,-3.45 V 6 l 0.1,1.6 -0.1,1.9 -0.1,0.05 0.05,0.1 q 0,0.4 -0.55,0.6 H 18.2 L 17.65,10.15 17.45,10.3 17.4,10.15 17.25,10.1 Q 17.1,10 17.1,9.65 L 17.2,9.4 Q 16.95,8.05 16.95,5.9 V -7.25 l 0.15,-0.9 m -2.2,-2.45 v -1.65 h -42.45 v 1.7 L 14.9,-10.6 m 0.9,-1.65 0.05,0.55 0.05,0.9 v 0.2 l 11.05,-0.05 v -1.6 H 15.8 m 2.2,8.7 h 7.1 v -2.7 l 0.1,-1.1 -7.2,0.1 v 3.7 m 10.95,-11.75 0.3,0.1 h 0.1 v 0.05 l 0.4,0.4 v 1.05 1.7 27.6 1.25 0.55 l -0.4,0.6 -0.55,0.3 -0.35,0.05 H 28.3 28.15 l -0.4,-0.05 h -0.3 Q 27.4,18.9 27,19.05 H 22.1 Q 21.55,18.8 21.5,18.3 h -44.35 l 0.05,0.3 -0.05,0.45 h -5.45 l -0.05,-0.45 0.05,-0.3 h -0.05 l -0.4,0.05 h -0.15 -0.15 L -29.4,18.3 -29.95,18 -30.35,17.4 V 16.85 15.6 -12 v -1.7 -1.05 l 0.4,-0.4 v -0.05 h 0.1 l 0.3,-0.1 0.05,0.05 0.25,0.05 0.2,-0.05 h 0.15 0.15 l 0.4,0.05 h 56.1 l 0.4,-0.05 h 0.15 0.15 l 0.25,0.05 0.2,-0.05 0.05,-0.05 M 15.9,1.6 V 9.55 12.6 H 26.95 V -9.45 H 15.9 V 1.6 M 18,-2.8 V 5.95 L 18.15,8.3 18.1,9.2 h 0.1 6.85 V -2.7 L 18,-2.8 m 1.65,18.4 v 0.05 0.15 h 7.15 v -0.2 h 0.15 V 13.8 H 15.9 v 1.8 h 1.05 l -0.15,0.2 h 1.35 v -0.1 -0.1 h 1.5 M -22.9,-6.5 H 9.9 V 8.75 L 9.85,8.95 9.9,9 V 9.85 L 9.75,10 9.3,10.2 h -31.2 l -1,-0.15 V -5.6 l 0.05,-0.15 -0.05,-0.05 v -0.7 m 37.8,22.1 v -1.8 h -42.45 v 1.8 h 0.15 v 0.2 h 42.3 v -0.2 m 0,-3 V -9.45 l -42.45,-0.1 V 12.6 H 14.9 m -15.8,-18.05 -20.9,0.1 q 0.35,2.6 0.1,7.9 0.15,4.25 -0.1,6.1 H 8.5 L 8.35,-5.6 -0.9,-5.5 v 0.05"
         fill="#6b6b6b"
         fill-rule="evenodd"
         stroke="none"
         id="path2" />
      <path
         d="m 15.8,-12.25 h 11.15 v 1.6 L 15.9,-10.6 v -0.2 l -0.05,-0.9 -0.05,-0.55 m -0.9,1.65 -42.45,0.05 v -1.7 H 14.9 v 1.65 m 4.75,26.2 h -1.5 -1.2 -1.05 v -1.8 h 11.05 v 1.8 H 26.8 19.65 m -47.05,0 h -0.15 V 13.8 H 14.9 v 1.8 h -42.3"
         fill="#cccccc"
         fill-rule="evenodd"
         stroke="none"
         id="path3" />
      <path
         d="m 17.1,-8.15 -0.15,0.9 V 5.9 q 0,2.15 0.25,3.5 l -0.1,0.25 q 0,0.35 0.15,0.45 l 0.15,0.05 0.05,0.15 0.2,-0.15 0.55,0.1 h 7.2 q 0.55,-0.2 0.55,-0.6 L 25.9,9.55 26,9.5 26.1,7.6 26,6 V -3.45 L 25.95,-3.6 V -4.45 H 26 V -5.4 -6.15 l -0.15,-1.3 0.1,-0.25 -0.1,-0.3 -0.2,-0.15 -0.1,-0.15 -0.05,0.1 h -7.6 q -0.25,0.05 -0.35,0.25 l -0.45,-0.2 m 1.35,7.35 0.15,0.45 q 0.2,0.4 0.75,0.4 0.35,0 0.6,-0.35 l 0.2,-0.55 q 0,-0.9 -0.85,-0.85 -0.85,0.1 -0.85,0.9 M 18,-3.55 v -3.7 l 7.2,-0.1 -0.1,1.1 v 2.7 H 18 m 3.6,3.6 q 0.35,0 0.6,-0.35 l 0.2,-0.55 q 0,-0.9 -0.85,-0.85 -0.85,0.1 -0.85,0.9 l 0.15,0.45 q 0.2,0.4 0.75,0.4 m 2.25,0 q 0.35,0 0.6,-0.35 l 0.2,-0.55 q 0,-0.9 -0.85,-0.85 -0.85,0.1 -0.85,0.9 l 0.15,0.45 0.75,0.4 M 18,-2.8 25.05,-2.7 V 9.2 H 18.2 18.1 L 18.15,8.3 18,5.95 V -2.8 M 15.9,1.6 V -9.45 H 26.95 V 12.6 H 15.9 V 9.55 1.6 m 5.65,4 Q 20.7,5.75 20.7,6.5 l 0.15,0.45 q 0.2,0.4 0.75,0.4 0.35,0 0.6,-0.35 l 0.2,-0.55 q 0,-0.9 -0.85,-0.85 m 1.55,-1.25 0.75,0.4 q 0.35,0 0.6,-0.35 l 0.2,-0.55 Q 24.65,3 23.8,3.05 22.95,3.15 22.95,3.9 L 23.1,4.35 M 20.7,3.9 20.85,4.35 q 0.2,0.4 0.75,0.4 0.35,0 0.6,-0.35 L 22.4,3.85 Q 22.4,3 21.55,3.05 20.7,3.15 20.7,3.9 M 22.4,1.55 Q 22.4,0.7 21.55,0.75 20.7,0.85 20.7,1.6 l 0.15,0.45 q 0.2,0.45 0.75,0.45 l 0.6,-0.4 0.2,-0.55 m 1.4,-0.8 q -0.85,0.1 -0.85,0.85 l 0.15,0.45 q 0.2,0.45 0.75,0.45 l 0.6,-0.4 0.2,-0.55 q 0,-0.85 -0.85,-0.8 M 19.95,4.4 20.15,3.85 Q 20.15,3 19.3,3.05 18.45,3.15 18.45,3.9 l 0.15,0.45 q 0.2,0.4 0.75,0.4 L 19.95,4.4 M 19.3,0.75 q -0.85,0.1 -0.85,0.85 l 0.15,0.45 q 0.2,0.45 0.75,0.45 l 0.6,-0.4 0.2,-0.55 q 0,-0.85 -0.85,-0.8 M -22.9,-6.5 v 0.7 l 0.05,0.05 -0.05,0.15 v 15.65 l 1,0.15 H 9.3 L 9.75,10 9.9,9.85 V 9 L 9.85,8.95 9.9,8.75 V -6.5 H -22.9 M 14.9,12.6 H -27.55 V -9.55 l 42.45,0.1 V 12.6"
         fill="#747474"
         fill-rule="evenodd"
         stroke="none"
         id="path4" />
      <path
         d="m 18.45,-0.8 q 0,-0.8 0.85,-0.9 0.85,-0.05 0.85,0.85 l -0.2,0.55 q -0.25,0.35 -0.6,0.35 -0.55,0 -0.75,-0.4 L 18.45,-0.8 m 5.4,0.85 -0.75,-0.4 -0.15,-0.45 q 0,-0.8 0.85,-0.9 0.85,-0.05 0.85,0.85 l -0.2,0.55 q -0.25,0.35 -0.6,0.35 m -2.25,0 q -0.55,0 -0.75,-0.4 L 20.7,-0.8 q 0,-0.8 0.85,-0.9 0.85,-0.05 0.85,0.85 l -0.2,0.55 q -0.25,0.35 -0.6,0.35 m 2.2,0.7 q 0.85,-0.05 0.85,0.8 l -0.2,0.55 -0.6,0.4 Q 23.3,2.5 23.1,2.05 L 22.95,1.6 q 0,-0.75 0.85,-0.85 m -1.4,0.8 -0.2,0.55 -0.6,0.4 q -0.55,0 -0.75,-0.45 L 20.7,1.6 q 0,-0.75 0.85,-0.85 0.85,-0.05 0.85,0.8 M 20.7,3.9 Q 20.7,3.15 21.55,3.05 22.4,3 22.4,3.85 L 22.2,4.4 q -0.25,0.35 -0.6,0.35 -0.55,0 -0.75,-0.4 L 20.7,3.9 M 23.1,4.35 22.95,3.9 q 0,-0.75 0.85,-0.85 0.85,-0.05 0.85,0.8 L 24.45,4.4 Q 24.2,4.75 23.85,4.75 L 23.1,4.35 M 21.55,5.6 Q 22.4,5.55 22.4,6.45 L 22.2,7 q -0.25,0.35 -0.6,0.35 -0.55,0 -0.75,-0.4 L 20.7,6.5 q 0,-0.75 0.85,-0.9 M 19.3,0.75 q 0.85,-0.05 0.85,0.8 l -0.2,0.55 -0.6,0.4 Q 18.8,2.5 18.6,2.05 L 18.45,1.6 q 0,-0.75 0.85,-0.85 m 0.65,3.65 -0.6,0.35 q -0.55,0 -0.75,-0.4 L 18.45,3.9 q 0,-0.75 0.85,-0.85 0.85,-0.05 0.85,0.8 l -0.2,0.55"
         fill="#b4b4b4"
         fill-rule="evenodd"
         stroke="none"
         id="path5" />
      <path
         d="m 26.8,15.6 v 0.2 H 19.65 V 15.65 15.6 h 7.15 m -8.65,0 v 0.1 0.1 H 16.8 l 0.15,-0.2 h 1.2 m -3.25,0 v 0.2 h -42.3 v -0.2 h 42.3"
         fill="#797979"
         fill-rule="evenodd"
         stroke="none"
         id="path6" />
    </g>
  </defs>
</svg>
