<?xml version="1.0" encoding="UTF-8" standalone="no"?>
<svg
   ffdec:objectType="frame"
   height="44.549999"
   width="51.602631"
   version="1.1"
   id="svg10"
   sodipodi:docname="2.svg"
   xmlns:inkscape="http://www.inkscape.org/namespaces/inkscape"
   xmlns:sodipodi="http://sodipodi.sourceforge.net/DTD/sodipodi-0.dtd"
   xmlns:xlink="http://www.w3.org/1999/xlink"
   xmlns="http://www.w3.org/2000/svg"
   xmlns:svg="http://www.w3.org/2000/svg"
   xmlns:ffdec="https://www.free-decompiler.com/flash">
  <sodipodi:namedview
     id="namedview10"
     pagecolor="#ffffff"
     bordercolor="#000000"
     borderopacity="0.25"
     inkscape:showpageshadow="2"
     inkscape:pageopacity="0.0"
     inkscape:pagecheckerboard="0"
     inkscape:deskcolor="#d1d1d1"
     fit-margin-top="5"
     fit-margin-left="5"
     fit-margin-right="5"
     fit-margin-bottom="5" />
  <g
     transform="translate(25.8,22.25)"
     id="g2">
    <use
       ffdec:characterId="1418"
       height="44.549999"
       transform="translate(-25.8,-22.25)"
       width="51.599998"
       xlink:href="#shape0"
       id="use1" />
    <use
       ffdec:characterId="44"
       height="8"
       transform="matrix(-0.9659,0.2588,0.2588,0.9659,7.0809,9.4888)"
       width="10.8"
       xlink:href="#sprite0"
       id="use2" />
  </g>
  <defs
     id="defs10">
    <g
       id="shape0"
       transform="translate(25.8,22.25)">
      <path
         d="M 16,-14.65 Q 12.5,-17 7.95,-18.05 l -6.6,-0.8 -7.55,0.1 -6.35,1.55 q -2.1,0.7 -3.8,1.6 l -1.6,0.95 -1.95,1.6 q -2.55,2.65 -2.55,6.6 l 0.2,1.6 0.05,0.1 q 0.8,1.2 3.85,1.4 h 2.55 l 5.4,-0.05 q 6.7,-0.1 10.5,0.2 l 2,0.2 4.8,0.45 1.9,0.05 q 9.85,0 12.4,-1.25 0.95,-0.5 0.95,-2.2 0,-3.85 -4.65,-7.6 L 17.05,-13.9 16,-14.65 m -34.1,-4.05 q 1.7,-0.9 3.7,-1.65 3.3,-1.2 7.55,-1.85 l 8.2,-0.05 q 11.25,0.1 18.35,5.75 5.85,4.6 5.85,9.4 l 0.25,1.85 q 0.05,1.45 -0.85,2.5 -2.75,3.1 -14.25,3.1 L 6.6,0.3 q 0.25,4.25 2.1,8.7 2.1,5.05 2.1,8.5 0,1.55 -0.5,2.55 Q 9.15,22.3 5.8,22.3 L -6.05,22.15 -6.95,21.9 Q -9,21.65 -9.65,19.55 L -9.9,16.5 q 0,-3.1 1.45,-6 Q -7.2,8.15 -7,4.7 L -7.3,3 Q -7.65,1.1 -8.35,-0.25 l -1.8,0.1 -8.2,0.15 q -5.1,-0.2 -6.7,-2.75 -0.75,-1.2 -0.75,-3.7 0,-4.95 3.05,-8.55 1.8,-2.1 4.65,-3.7 M -2.15,3.95 Q -2.65,6.2 -4,8.55 l -2.35,4.25 q -0.7,2.65 -0.7,3.8 0,1.5 0.55,2 l 0.7,0.7 6.1,-0.05 6.25,-0.4 Q 7.3,18.5 7.3,17.7 7.3,15.9 5.55,9.85 3.8,3.75 3.8,2.8 V 2.3 L 3.9,0.2 1,0 -1.95,-0.2 -1.9,1.6 -2.15,3.95 M -2.95,3.9 Q -2.6,2.9 -2.6,1.5 L -2.75,-0.25 -4.7,-0.4 -5.45,-0.35 v 0.05 l -0.05,0.25 0.45,1.35 0.05,2 0.05,3.15 1.2,-1.3 0.8,-1.25"
         fill="#6b6b6b"
         fill-rule="evenodd"
         stroke="none"
         id="path2" />
      <path
         d="M 3.8,2.3 Q 1.55,3.95 -1.85,3.95 h -0.3 L -1.9,1.6 -1.95,-0.2 1,0 3.9,0.2 3.8,2.3 m -8.8,1 -0.05,-2 -0.45,-1.35 0.05,-0.25 v -0.05 l 0.75,-0.05 1.95,0.15 0.15,1.75 q 0,1.4 -0.35,2.4 L -5,3.3"
         fill="#a2a2a2"
         fill-rule="evenodd"
         stroke="none"
         id="path3" />
      <path
         d="m 3.8,2.3 v 0.5 q 0,0.95 1.75,7.05 1.75,6.05 1.75,7.85 0,0.8 -0.75,1.15 l -6.25,0.4 -6.1,0.05 -0.7,-0.7 q -0.55,-0.5 -0.55,-2 0,-1.15 0.7,-3.8 L -4,8.55 q 1.35,-2.35 1.85,-4.6 h 0.3 q 3.4,0 5.65,-1.65 m -6.75,1.6 -0.8,1.25 -1.2,1.3 L -5,3.3 -2.95,3.9"
         fill="#c4c4c4"
         fill-rule="evenodd"
         stroke="none"
         id="path4" />
      <path
         d="m -16.35,-15.6 v 0.35 q -0.95,0.55 -1.35,1.6 l -0.25,1.55 q 0,1.05 0.85,2.4 1.05,1.65 2.55,1.65 3.35,0 4.6,-1.65 l 0.05,-0.05 0.2,0.05 0.9,0.2 H 1.6 q 6,0.05 11.2,-1.6 3.7,-1.15 4.7,-2.45 4.65,3.75 4.65,7.6 0,1.7 -0.95,2.2 Q 18.65,-2.5 8.8,-2.5 L 6.9,-2.55 7.05,-3.5 q 0,-4.15 -3.65,-4.65 -3.6,-0.5 -3.6,3.4 l 0.3,1.55 q -3.8,-0.3 -10.5,-0.2 l -5.4,0.05 v -0.3 q 0,-3.55 -3.3,-3.3 -2.7,0.15 -3.15,2.1 l -0.2,-1.6 q 0,-3.95 2.55,-6.6 l 1.95,-1.6 1.6,-0.95 m 34.2,7.8 q 0,-2.1 -2.05,-2.2 -2,-0.1 -2,2.1 0,0.75 0.35,1.35 0.55,0.9 1.65,0.9 1.3,0 1.8,-1.05 l 0.25,-1.1"
         fill="#ada88e"
         fill-rule="evenodd"
         stroke="none"
         id="path5" />
      <path
         d="m 7.95,-18.05 q -0.15,0.55 -0.15,1.3 0,4.25 4.35,4.25 2.95,0 3.65,-1.35 l 0.2,-0.8 1.05,0.75 0.45,0.35 q -1,1.3 -4.7,2.45 -5.2,1.65 -11.2,1.6 H -8.8 l -0.9,-0.2 -0.2,-0.05 0.2,-0.3 q 0.5,-0.8 0.5,-2.35 0,-3.6 -4.4,-3.5 -1.7,0.05 -2.75,0.65 v -0.35 q 1.7,-0.9 3.8,-1.6 l 6.35,-1.55 7.55,-0.1 6.6,0.8 m -14.15,2.8 0.1,1.1 0.45,1.2 q 0.6,1 1.65,1.45 l 2.05,0.35 q 2.35,0 3.35,-1.4 0.55,-0.75 0.55,-1.65 0,-4.2 -4.1,-4.4 -4.05,-0.2 -4.05,3.35"
         fill="#cbc4a4"
         fill-rule="evenodd"
         stroke="none"
         id="path6" />
      <path
         d="m 16,-14.65 -0.2,0.8 q -0.7,1.35 -3.65,1.35 -4.35,0 -4.35,-4.25 0,-0.75 0.15,-1.3 4.55,1.05 8.05,3.4 m -32.35,-0.6 q 1.05,-0.6 2.75,-0.65 4.4,-0.1 4.4,3.5 0,1.55 -0.5,2.35 l -0.2,0.3 -0.05,0.05 q -6.2,-0.15 -7.75,-3.95 0.4,-1.05 1.35,-1.6 m 10.15,0 q 0,-3.55 4.05,-3.35 4.1,0.2 4.1,4.4 0,0.9 -0.55,1.65 -1,1.4 -3.35,1.4 L -4,-11.5 q -1.05,-0.45 -1.65,-1.45 l -0.45,-1.2 -0.1,-1.1"
         fill="#cbb0a4"
         fill-rule="evenodd"
         stroke="none"
         id="path7" />
      <path
         d="m 0.1,-3.2 -0.3,-1.55 q 0,-3.9 3.6,-3.4 3.65,0.5 3.65,4.65 L 6.9,-2.55 2.1,-3 0.1,-3.2 m 17.75,-4.6 -0.25,1.1 q -0.5,1.05 -1.8,1.05 -1.1,0 -1.65,-0.9 -0.35,-0.6 -0.35,-1.35 0,-2.2 2,-2.1 2.05,0.1 2.05,2.2 m -40.1,2.95 q 0.45,-1.95 3.15,-2.1 3.3,-0.25 3.3,3.3 v 0.3 h -2.55 q -3.05,-0.2 -3.85,-1.4 l -0.05,-0.1 m 4.55,-8.8 q 1.55,3.8 7.75,3.95 -1.25,1.65 -4.6,1.65 -1.5,0 -2.55,-1.65 -0.85,-1.35 -0.85,-2.4 l 0.25,-1.55"
         fill="#b29a8f"
         fill-rule="evenodd"
         stroke="none"
         id="path8" />
      <path
         d="M -7.25,-10.55 Q -7.2,-10.2 -7.4,-9.8 -7.75,-9 -8.8,-9 -9.55,-9 -10,-9.6 l -0.35,-0.9 q 0,-1.45 1.55,-1.55 1.55,-0.15 1.55,1.5 M 6.3,-10.3 q 0,-1.55 1.55,-1.6 1.55,-0.05 1.55,1.65 L 9.25,-9.4 q -0.35,0.75 -1.4,0.75 -0.8,0 -1.25,-0.65 -0.3,-0.5 -0.3,-1 M -4,-9.7 q 0.3,-2.35 1.1,-2.35 l 0.45,0.35 0.3,0.55 -0.3,1.25 q -0.05,1.2 1.2,1.2 0.5,0 0.8,-0.5 l 0.2,-0.65 -0.2,-2.3 q 1.1,0.1 1.45,1.55 l 0.1,1.55 Q 0.75,-7.1 -0.8,-7.1 -4,-7.1 -4,-9.7"
         fill="#6b6b6b"
         fill-rule="evenodd"
         stroke="none"
         id="path9" />
    </g>
    <g
       id="sprite0"
       transform="translate(5.4,4)">
      <use
         ffdec:characterId="43"
         height="8"
         transform="translate(-5.4,-4)"
         width="10.8"
         xlink:href="#shape1"
         id="use9" />
    </g>
    <g
       id="shape1"
       transform="translate(5.4,4)">
      <path
         d="m 2.9,-0.35 q 0,-1.25 1.25,-1.25 1.25,0 1.25,1.2 0,1.3 -1.25,1.3 Q 3.6,0.9 3.25,0.5 2.9,0.15 2.9,-0.35 m 0.35,-2.3 q 0,0.55 -0.35,0.9 -0.4,0.45 -1,0.45 -1.35,0 -1.35,-1.4 0,-1.3 1.35,-1.3 1.35,0 1.35,1.35 m -3.1,1.9 h 0.2 q 2.6,0.1 2.6,2.8 l -0.3,1 Q 2.05,4 0.45,4 H 0.35 0.15 0.1 -0.45 q -1.6,0 -2.2,-0.95 l -0.3,-1 q 0,-2.8 2.8,-2.8 h 0.3 M -1.55,-4 q 1.35,0 1.35,1.35 0,0.55 -0.4,0.9 -0.4,0.45 -0.95,0.45 -1.4,0 -1.4,-1.4 0,-1.3 1.4,-1.3 m -2.6,2.4 q 1.25,0 1.25,1.25 0,0.5 -0.35,0.85 -0.35,0.4 -0.9,0.4 -1.25,0 -1.25,-1.3 0,-1.2 1.25,-1.2"
         fill="#6b6b6b"
         fill-rule="evenodd"
         stroke="none"
         id="path10" />
    </g>
  </defs>
</svg>
