<?xml version="1.0" encoding="UTF-8" standalone="no"?>
<svg
   ffdec:objectType="frame"
   height="35.25"
   width="107.85"
   version="1.1"
   id="svg4"
   sodipodi:docname="1.svg"
   xmlns:inkscape="http://www.inkscape.org/namespaces/inkscape"
   xmlns:sodipodi="http://sodipodi.sourceforge.net/DTD/sodipodi-0.dtd"
   xmlns:xlink="http://www.w3.org/1999/xlink"
   xmlns="http://www.w3.org/2000/svg"
   xmlns:svg="http://www.w3.org/2000/svg"
   xmlns:ffdec="https://www.free-decompiler.com/flash">
  <sodipodi:namedview
     id="namedview4"
     pagecolor="#ffffff"
     bordercolor="#000000"
     borderopacity="0.25"
     inkscape:showpageshadow="2"
     inkscape:pageopacity="0.0"
     inkscape:pagecheckerboard="0"
     inkscape:deskcolor="#d1d1d1"
     fit-margin-top="5"
     fit-margin-left="5"
     fit-margin-right="5"
     fit-margin-bottom="5" />
  <g
     transform="translate(53.9,16.4)"
     id="g1">
    <use
       ffdec:characterId="1245"
       height="35.25"
       transform="translate(-53.9,-16.4)"
       width="107.85"
       xlink:href="#shape0"
       id="use1" />
  </g>
  <defs
     id="defs4">
    <g
       id="shape0"
       transform="translate(53.9,16.4)">
      <path
         d="m -38.55,-10.85 27.8,0.1 24.3,0.1 12.7,0.05 H 38.6 l -0.05,2.95 -0.25,0.05 -0.85,0.05 H -37.4 l -0.85,-0.05 -0.25,-0.05 -0.05,-3.2 m 89.25,0.3 -0.1,1.45 -0.05,0.35 q -0.2,2.9 -0.25,7 v 0.7 1.3 3.9 0.75 2.5 l 0.15,1.7 v 0.35 l 0.25,1.85 -0.2,0.2 H 50.3 40.2 V 9.45 9.25 l -0.05,-19.85 10.55,0.05 m -101.45,-0.75 2.5,0.2 h 0.05 l 1.05,0.15 v 0.05 l 7.05,0.05 -0.05,20.1 v 0.2 2.05 h -10.1 -0.2 l -0.2,-0.2 0.25,-1.85 h 0.05 l 0.05,-0.35 0.05,-1.7 v -2.5 -0.75 -3.9 -1.3 -0.7 l -0.2,-7 H -50.5 V -9.1 l -0.25,-2.2 m 12.3,19.4 0.75,0.3 26.95,0.1 37,0.1 H 37.7 l 0.8,-0.4 v 1.1 0.15 l 0.05,2.05 H -38.5 l 0.05,-2.05 V 9.3 8.1"
         fill="#727272"
         fill-rule="evenodd"
         stroke="none"
         id="path1" />
      <path
         d="M 38.6,-10.6 H 26.25 l -12.7,-0.05 -24.3,-0.1 -27.8,-0.1 v -0.45 l -0.1,-1.4 H 38.7 l -0.1,1.4 v 0.7 m 1.55,0 v -0.85 L 40.2,-12.7 H 51 l -0.3,2.15 -10.55,-0.05 m -80.25,-0.25 -7.05,-0.05 v -0.05 l -1.05,-0.15 h -0.05 l -2.5,-0.2 -0.2,-1.4 h 10.8 l 0.05,1.25 v 0.6 M 38.5,8.2 37.7,8.6 H 26.25 L -10.75,8.5 -37.7,8.4 -38.45,8.1 V 6.7 l 1.05,0.05 H 37.45 L 38.5,6.7 v 1.5"
         fill="#7b7b7b"
         fill-rule="evenodd"
         stroke="none"
         id="path2" />
      <path
         d="m 38.6,-10.6 v -0.7 l 0.1,-1.4 h -77.35 l 0.1,1.4 v 0.45 l 0.05,3.2 0.25,0.05 0.85,0.05 h 74.85 l 0.85,-0.05 0.25,-0.05 0.05,-2.95 m 12.1,0.05 0.3,-2.15 H 40.2 l -0.05,1.25 v 0.85 L 40.2,9.25 v 0.2 2.05 h 10.1 0.2 L 50.7,11.3 50.45,9.45 V 9.1 L 50.3,7.4 v -2.5 -0.75 -3.9 -1.3 -0.7 q 0.05,-4.1 0.25,-7 l 0.05,-0.35 0.1,-1.45 M 36.8,-4.1 h -73.55 l 0.2,2.35 h 0.05 v 0.5 0.2 1.1 4.05 0.05 L -26,3.8 V 3.75 h 0.35 v -0.1 l 15,0.1 h 10.7 10.65 1.85 1.05 2.3 l 9.8,-0.1 v 0.1 l 1.55,0.05 v 0.05 l 9.3,0.3 V 4.1 0.05 l 0.05,-1.8 h 0.05 L 36.8,-4.1 m 17.15,-9.95 V 14.2 Q 53.45,15 52.2,15 h -0.3 q -0.6,0.45 -1.6,0.5 H 37 v 0.4 0.5 0.3 0.15 0.15 0.05 0.35 0.1 l -0.55,1.35 H -36.4 L -36.95,17.5 V 17.4 17.05 17 16.7 15.9 l 0.05,-0.4 h -13.35 q -1,-0.05 -1.6,-0.5 h -0.3 q -1.2,0 -1.75,-0.8 v -28.25 q 0.55,-1.7 1.35,-1.65 0.5,-0.55 1.55,-0.65 h 25 l 14.1,-0.05 v 0.05 h 62.95 q 1.05,0.1 1.55,0.65 0.8,-0.05 1.35,1.65 m -94.05,3.2 v -0.6 l -0.05,-1.25 h -10.8 l 0.2,1.4 0.25,2.2 v 0.35 h 0.05 l 0.2,7 v 0.7 1.3 3.9 0.75 2.5 l -0.05,1.7 -0.05,0.35 h -0.05 l -0.25,1.85 0.2,0.2 h 0.2 10.1 V 9.45 9.25 l 0.05,-20.1 M -38.45,8.1 V 9.3 9.45 L -38.5,11.5 H 38.55 L 38.5,9.45 V 9.3 8.2 6.7 L 37.45,6.75 H -37.4 L -38.45,6.7 v 1.4 m 70.9,8.3 0.1,-0.9 H -32.5 l 0.1,0.9 h 0.05 v 0.45 H 32.4 l 0.05,-0.45"
         fill="#6b6b6b"
         fill-rule="evenodd"
         stroke="none"
         id="path3" />
      <path
         d="M 32.45,16.4 32.4,16.85 H -32.35 V 16.4 h -0.05 l -0.1,-0.9 h 65.05 l -0.1,0.9"
         fill="#6d6d6d"
         fill-rule="evenodd"
         stroke="none"
         id="path4" />
    </g>
  </defs>
</svg>
