<?xml version="1.0" encoding="UTF-8" standalone="no"?>
<svg
   ffdec:objectType="frame"
   height="151.5"
   width="81.699997"
   version="1.1"
   id="svg63"
   sodipodi:docname="2.svg"
   xmlns:inkscape="http://www.inkscape.org/namespaces/inkscape"
   xmlns:sodipodi="http://sodipodi.sourceforge.net/DTD/sodipodi-0.dtd"
   xmlns:xlink="http://www.w3.org/1999/xlink"
   xmlns="http://www.w3.org/2000/svg"
   xmlns:svg="http://www.w3.org/2000/svg"
   xmlns:ffdec="https://www.free-decompiler.com/flash">
  <sodipodi:namedview
     id="namedview63"
     pagecolor="#ffffff"
     bordercolor="#000000"
     borderopacity="0.25"
     inkscape:showpageshadow="2"
     inkscape:pageopacity="0.0"
     inkscape:pagecheckerboard="0"
     inkscape:deskcolor="#d1d1d1"
     fit-margin-top="5"
     fit-margin-left="5"
     fit-margin-right="5"
     fit-margin-bottom="5" />
  <g
     transform="translate(40.9,71.7)"
     id="g1">
    <use
       ffdec:characterId="2551"
       height="151.60001"
       transform="translate(-43.25,-71.8)"
       width="84.050003"
       xlink:href="#sprite0"
       id="use1" />
    <use
       ffdec:characterId="69"
       height="1.5"
       id="subplatform1"
       transform="matrix(0.06,0,0.317,0.86,-39.4916,-70.98)"
       width="1320.3"
       xlink:href="#sprite16" />
  </g>
  <defs
     id="defs63">
    <g
       id="sprite0"
       transform="translate(43.2,71.8)">
      <use
         ffdec:characterId="2516"
         height="17.35"
         transform="matrix(0.7071,0.7071,-0.7071,0.7071,11.9484,-19.9984)"
         width="22.15"
         xlink:href="#sprite1"
         id="use2" />
      <use
         ffdec:characterId="2518"
         height="22.9"
         transform="matrix(0.9659,0.2588,-0.2588,0.9659,-16.35,-19.2)"
         width="23.85"
         xlink:href="#sprite2"
         id="use3" />
      <use
         ffdec:characterId="2520"
         height="25.700001"
         transform="matrix(0.866,-0.5,0.5,0.866,-39.2,-15.2)"
         width="19.9"
         xlink:href="#sprite3"
         id="use4" />
      <use
         ffdec:characterId="2522"
         height="24.35"
         transform="translate(12.95,-22.65)"
         width="21.450001"
         xlink:href="#sprite4"
         id="use5" />
      <use
         ffdec:characterId="2520"
         height="25.700001"
         transform="matrix(-0.9659,0.2588,-0.2588,-0.9659,15,15.2)"
         width="19.9"
         xlink:href="#sprite3"
         id="use6" />
      <use
         ffdec:characterId="2547"
         height="39.150002"
         transform="matrix(-1,0,0,1,25.45,-44.55)"
         width="27.299999"
         xlink:href="#sprite5"
         id="use7" />
      <use
         ffdec:characterId="2549"
         height="20"
         transform="matrix(-0.866,-0.5,0.5,-0.866,11.5,15.45)"
         width="26.549999"
         xlink:href="#sprite6"
         id="use8" />
      <use
         ffdec:characterId="2524"
         height="26.299999"
         transform="matrix(0.866,-0.5,0.5,0.866,-43.2,0.75)"
         width="29.799999"
         xlink:href="#sprite7"
         id="use9" />
      <use
         ffdec:characterId="2526"
         height="27.5"
         transform="translate(2.2,-8.8)"
         width="25.9"
         xlink:href="#sprite8"
         id="use10" />
      <use
         ffdec:characterId="2528"
         height="15.1"
         transform="translate(-17.45,-3.25)"
         width="21"
         xlink:href="#sprite9"
         id="use11" />
      <use
         ffdec:characterId="2530"
         height="23.9"
         transform="matrix(0.866,0.5,-0.5,0.866,24.55,-13.1)"
         width="17.700001"
         xlink:href="#sprite10"
         id="use12" />
      <use
         ffdec:characterId="2532"
         height="41.700001"
         transform="matrix(0.9323,0.3616,-0.4636,1.1955,-17.2304,-44.8618)"
         width="6"
         xlink:href="#sprite11"
         id="use13" />
      <use
         ffdec:characterId="2534"
         height="11.35"
         transform="translate(-20.45,-22.9)"
         width="6.75"
         xlink:href="#sprite12"
         id="use14" />
      <use
         ffdec:characterId="2536"
         height="15.35"
         transform="matrix(1,0,0,1.1032,-13.65,-42.5946)"
         width="1.65"
         xlink:href="#sprite13"
         id="use15" />
      <use
         ffdec:characterId="2538"
         height="5.5999999"
         transform="translate(-15.6,-27.3)"
         width="5.6500001"
         xlink:href="#sprite14"
         id="use16" />
      <use
         ffdec:characterId="2534"
         height="11.35"
         transform="matrix(-1,0,0,1,-5.5,-22.9)"
         width="6.75"
         xlink:href="#sprite12"
         id="use17" />
      <use
         ffdec:characterId="2550"
         height="151.60001"
         transform="translate(-40.85,-71.8)"
         width="81.699997"
         xlink:href="#shape14"
         id="use18" />
      <use
         ffdec:characterId="44"
         height="8"
         transform="translate(-5.25,49.5)"
         width="10.8"
         xlink:href="#sprite15"
         id="use19" />
    </g>
    <g
       id="sprite1"
       transform="translate(0,-3.75)">
      <use
         ffdec:characterId="2515"
         height="17.35"
         transform="translate(0,3.75)"
         width="22.15"
         xlink:href="#shape0"
         id="use20" />
    </g>
    <g
       id="shape0"
       transform="translate(0,-3.75)">
      <path
         d="M 6.5,8.2 5.85,9.1 5.7,9.35 5.45,9.85 5.25,10.4 5.6,10.5 6.4,11 6.85,11.3 7.7,10.6 Q 8.4,10.15 8.95,10 L 9,10.05 9.1,10.25 8.6,10.9 7.7,11.95 7.75,12 l 0.1,0.1 0.9,1.05 0.15,0.35 q 0.05,0.2 -0.4,0.2 H 8.45 L 7.3,13 7.05,12.85 6.95,12.8 5.5,14.15 q -0.4,0 -0.55,-0.25 l 0.3,0.95 0.6,0.9 v 0.05 l 0.1,0.15 0.55,0.5 0.45,0.4 L 7.1,16.9 7.3,16.6 7.4,16.35 7.55,16.2 8.3,15.05 h 0.05 l 0.2,-0.2 0.1,-0.1 Q 9.3,14.05 9.9,13.9 L 9.75,13.7 9.65,13.5 9.6,13.45 9.35,12.55 V 12.5 l 0.05,-0.25 0.35,-0.4 0.45,0.1 h 0.3 l 0.8,0.05 0.45,0.05 h 0.1 1.15 l 0.25,0.1 1.15,-1 L 14.35,11.1 13.65,10.3 13.5,10.15 13.2,9.7 V 9.65 L 13.25,9.45 13.4,9.3 q 0.45,-0.05 1.05,0.4 l 0.55,0.4 0.3,0.3 0.05,0.05 1.35,-0.8 -0.4,-1 L 15.95,8.2 Q 14.3,6.45 10,6.3 8.6,6.55 7.6,7.25 L 6.5,8.2 M 19.45,6.25 q 2.7,-0.15 2.7,1.1 l -2.55,3 0.15,2.1 q 0,2.35 -1.7,4.95 -2.4,3.7 -6.75,3.7 -5.1,0 -7.45,-3.5 -1.5,-2.2 -1.5,-4.75 L 2.45,11.6 Q 1.4,11.2 0.7,9.9 0,8.55 0,7.8 0,6.4 2.8,6.35 l 1.85,0.2 0.4,-0.4 q 2.5,-2.3 6.05,-2.4 3.5,-0.1 5.95,2 L 17.8,6.5 19.45,6.25 m -3.8,10.15 0.9,-1.35 0.2,-0.65 0.15,-2.55 V 10.6 l -0.8,0.7 0.55,1.1 -0.35,0.35 -0.45,-0.25 -0.25,-0.2 -0.4,-0.35 -1.1,0.8 -0.2,0.15 -0.2,-0.05 -0.1,-0.05 -0.15,0.45 -0.1,0.25 0.5,0.45 0.25,0.2 0.7,0.85 0.35,0.5 0.35,0.7 0.1,0.25 0.05,-0.05 M 3.15,8.85 H 3.1 L 3.15,8.9 V 8.85 M 4.9,11.4 4.8,12.55 v 0.65 l 1.1,-1.15 -1,-0.65 m 4.3,5.2 -0.1,0.2 -0.25,0.4 -0.15,0.4 1.3,0.2 q 0.15,-0.8 1.1,-1.1 1.2,-0.4 2.4,0.85 l 0.35,-0.15 0.8,-0.3 -0.25,-0.35 -0.05,-0.1 -0.75,-1.1 -0.95,-1.2 -0.8,0.3 H 11.6 l -0.45,-0.05 -0.5,-0.1 q -0.6,0.55 -1.3,1.8 L 9.2,16.6 m 2.85,-3.9 H 12 l -1.05,0.05 h -0.2 -0.4 l 0.05,0.15 0.35,0.35 0.4,0.35 0.4,0.1 0.55,-0.1 0.1,-0.25 0.1,-0.15 0.15,-0.25 -0.4,-0.25 m -0.35,5.15 0.75,-0.1 -0.3,-0.1 q -0.3,0 -0.45,0.2"
         fill="#878787"
         fill-rule="evenodd"
         stroke="none"
         id="path20" />
      <path
         d="m 7.6,7.25 q 1,-0.7 2.4,-0.95 4.3,0.15 5.95,1.9 l 0.35,0.45 0.4,1 -1.35,0.8 L 15.3,10.4 15,10.1 14.45,9.7 Q 13.85,9.25 13.4,9.3 L 13.25,9.45 13.2,9.65 V 9.7 l 0.3,0.45 0.15,0.15 0.7,0.8 0.05,0.05 -1.15,1 -0.25,-0.1 h -1.15 -0.1 L 11.3,12 10.5,11.95 H 10.2 L 9.75,11.85 9.4,12.25 9.35,12.5 v 0.05 l 0.25,0.9 0.05,0.05 0.1,0.2 0.15,0.2 q -0.6,0.15 -1.25,0.85 l -0.1,0.1 -0.2,0.2 H 8.3 L 7.55,16.2 7.4,16.35 7.3,16.6 7.1,16.9 6.95,16.85 6.5,16.45 5.95,15.95 5.85,15.8 V 15.75 L 5.25,14.85 4.95,13.9 Q 5.1,14.15 5.5,14.15 L 6.95,12.8 7.05,12.85 7.3,13 8.45,13.7 H 8.5 q 0.45,0 0.4,-0.2 L 8.75,13.15 7.85,12.1 7.75,12 7.7,11.95 8.6,10.9 9.1,10.25 9,10.05 8.95,10 Q 8.4,10.15 7.7,10.6 L 6.85,11.3 6.4,11 5.6,10.5 5.25,10.4 5.45,9.85 5.7,9.35 5.85,9.1 6.5,8.2 H 6.55 L 6.65,8.1 7.6,7.25 m 7.9,8.95 -0.35,-0.7 -0.35,-0.5 -0.7,-0.85 -0.25,-0.2 -0.5,-0.45 0.1,-0.25 0.15,-0.45 0.1,0.05 0.2,0.05 0.2,-0.15 1.1,-0.8 0.4,0.35 0.25,0.2 0.45,0.25 0.35,-0.35 -0.55,-1.1 0.8,-0.7 v 1.25 l -0.15,2.55 -0.2,0.65 -0.9,1.35 -0.05,-0.1 -0.1,-0.1 M 4.9,11.4 5.9,12.05 4.8,13.2 V 12.55 L 4.9,11.4"
         fill="#959595"
         fill-rule="evenodd"
         stroke="none"
         id="path21" />
      <path
         d="m 15.5,16.2 0.1,0.1 v 0.15 L 15.5,16.2 m -6.3,0.4 0.15,-0.3 q 0.7,-1.25 1.3,-1.8 l 0.5,0.1 0.45,0.05 h 0.25 l 0.8,-0.3 0.95,1.2 0.75,1.1 0.05,0.1 0.25,0.35 -0.8,0.3 -0.35,0.15 Q 12.3,16.3 11.1,16.7 10.15,17 10,17.8 L 8.7,17.6 8.85,17.2 9.1,16.8 9.2,16.6 m 2.5,1.25 q 0.15,-0.2 0.45,-0.2 l 0.3,0.1 -0.75,0.1 m 0.35,-5.15 0.4,0.25 -0.15,0.25 -0.1,0.15 -0.1,0.25 -0.55,0.1 -0.4,-0.1 -0.4,-0.35 -0.35,-0.35 -0.05,-0.15 h 0.4 0.2 L 12,12.7 h 0.05"
         fill="#cccccc"
         fill-rule="evenodd"
         stroke="none"
         id="path22" />
    </g>
    <g
       id="sprite2">
      <use
         ffdec:characterId="2517"
         height="22.9"
         width="23.85"
         xlink:href="#shape1"
         id="use22" />
    </g>
    <g
       id="shape1">
      <path
         d="m 20.7,10.2 0.85,-0.25 q 2.3,-0.5 2.3,1.05 0,0.85 -0.7,1.5 -0.85,0.85 -2.5,0.85 H 20.6 l -0.1,1.65 0.6,3.3 q -0.1,1.25 -1.6,1.8 v 0.15 l -0.65,1.6 q -0.65,1.05 -1.25,1.05 -0.9,0 -1.25,-0.85 l -0.2,-0.9 0.05,-0.75 -2.05,-0.25 H 9.3 L 9.15,21.5 q -0.35,1.25 -1.65,1.25 -1.15,0 -1.65,-1.4 L 5.55,19.9 V 19.85 Q 4.05,18.2 3.85,14.75 L 3.9,13.8 3.3,13.85 q -0.95,0 -2.15,-0.7 Q 0,12.5 0,12 0,10.7 2.65,10.95 H 2.7 L 2.4,9.9 2.5,9.6 Q 1.7,9.4 1.2,8.9 0.4,8.6 0.15,8.05 0,7.75 0,6.85 0,5.85 0.3,5.15 0.65,2.75 3.65,2.6 l 1.9,0.25 Q 5.85,2.05 6.65,1.4 7.95,0.25 9.65,0.05 14,-0.6 14,4.4 14,6.3 13.55,6.85 l 6.65,0.5 q 0.55,0.25 0.55,1.7 L 20.7,10.2 M 11.75,2.75 Q 11.5,2.25 10.5,2.25 H 8.75 Q 7.55,2.85 7.45,4.4 L 7.15,5.9 7.75,6.2 8.1,6.5 8.4,7.15 8.65,7 H 8.7 L 9.8,6.4 q 2.1,-1.05 2.1,-2.65 l -0.15,-1 m 0,6.95 L 11.2,9.75 9.6,9.8 H 9.55 L 9.1,10.6 q 0.2,-0.15 0.5,-0.2 l 0.5,-0.15 q 1.65,-0.3 1.8,1 v 0.25 l -0.4,1.25 q -0.55,0.75 -1.45,0.75 -1.35,0 -1.7,-0.65 l -0.1,-0.7 0.1,-0.7 -1.35,0.85 -0.15,1.65 -0.1,0.95 0.1,2.45 7.1,0.05 1.65,-0.2 h 1.8 l 0.3,0.05 0.35,-0.6 L 18,16.5 17.95,16.35 Q 17.65,15.3 17.8,14.75 V 9.8 L 15,9.7 h -3.25 m 1.95,1.6 Q 14,9.95 15.35,9.85 h 0.2 q 0.45,-0.05 0.8,0.25 0.7,0.5 0.7,2.25 v 0.55 l -0.15,0.3 -0.3,0.3 h -0.05 l -0.75,0.1 q -2.2,0 -2.2,-1.45 L 13.7,11.3 M 4.8,5.15 q -0.55,-0.3 -1.3,-0.3 -1.25,0 -1.8,1 L 1.5,6.2 Q 1.55,6.9 2,7.5 L 3.9,7.65 Q 4,6.3 5.35,5.95 L 4.85,5.25 4.8,5.15 M 4,9.6 v 0.05 l 0.2,0.4 0.6,0.5 0.1,0.05 H 5.2 5.35 L 6.55,10.55 6.9,10.15 7.3,9.65 6.4,9.75 4.7,9.5 4.55,9.4 4,9.6 M 7,7.15 6.7,7 H 6.65 L 6.2,6.9 H 6.05 6 Q 5.25,6.95 5.15,7.45 L 5.1,7.65 5.15,8 5.25,8.05 5.5,8.4 5.55,8.45 5.85,8.5 6.9,8.45 7.15,8.4 7.3,7.8 7.05,7.2 7,7.15 m 3.4,9.1 -0.1,-0.75 q 0,-1.7 1.55,-1.85 1.65,-0.2 2.65,2 l -1.05,0.45 -0.6,0.15 -0.05,0.05 -0.85,0.1 -1.55,-0.15"
         fill="#878787"
         fill-rule="evenodd"
         stroke="none"
         id="path23" />
      <path
         d="m 11.75,2.75 0.15,1 q 0,1.6 -2.1,2.65 L 8.7,7 H 8.65 L 8.4,7.15 8.1,6.5 7.75,6.2 7.15,5.9 7.45,4.4 q 0.1,-1.55 1.3,-2.15 h 1.75 q 1,0 1.25,0.5 M 4,9.6 4.55,9.4 4.7,9.5 6.4,9.75 7.3,9.65 6.9,10.15 6.55,10.55 5.35,10.6 H 5.2 4.9 L 4.8,10.55 4.2,10.05 4,9.65 V 9.6 m 0.8,-4.45 0.05,0.1 0.5,0.7 Q 4,6.3 3.9,7.65 L 2,7.5 Q 1.55,6.9 1.5,6.2 L 1.7,5.85 q 0.55,-1 1.8,-1 0.75,0 1.3,0.3 M 6.9,8.45 7.1,7.65 7,7.2 V 7.15 L 7.05,7.2 7.3,7.8 7.15,8.4 6.9,8.45"
         fill="#dedede"
         fill-rule="evenodd"
         stroke="none"
         id="path24" />
      <path
         d="M 7,7.15 V 7.2 L 7.1,7.65 6.9,8.45 5.85,8.5 5.55,8.45 5.5,8.4 5.25,8.05 5.15,8 5.1,7.65 5.15,7.45 Q 5.25,6.95 6,6.9 H 6.05 6.2 L 6.65,7 H 6.7 L 7,7.15"
         fill="#b1b1b1"
         fill-rule="evenodd"
         stroke="none"
         id="path25" />
      <path
         d="m 13.7,11.3 -0.1,0.85 q 0,1.45 2.2,1.45 l 0.75,-0.1 h 0.05 l 0.3,-0.3 0.15,-0.3 v -0.55 q 0,-1.75 -0.7,-2.25 Q 16,9.8 15.55,9.85 h -0.2 Q 14,9.95 13.7,11.3 M 11.75,9.7 H 15 l 2.8,0.1 v 4.95 q -0.15,0.55 0.15,1.6 L 18,16.5 18.05,16.65 17.7,17.25 17.4,17.2 H 15.6 L 13.95,17.4 6.85,17.35 6.75,14.9 6.85,13.95 7,12.3 l 1.35,-0.85 -0.1,0.7 0.1,0.7 q 0.35,0.65 1.7,0.65 0.9,0 1.45,-0.75 l 0.4,-1.25 v -0.25 q -0.15,-1.3 -1.8,-1 L 9.6,10.4 Q 9.3,10.45 9.1,10.6 L 9.55,9.8 H 9.6 L 11.2,9.75 11.75,9.7 m -1.35,6.55 1.55,0.15 0.85,-0.1 0.05,-0.05 0.6,-0.15 1.05,-0.45 q -1,-2.2 -2.65,-2 -1.55,0.15 -1.55,1.85 l 0.1,0.75"
         fill="#c8b6b6"
         fill-rule="evenodd"
         stroke="none"
         id="path26" />
    </g>
    <g
       id="sprite3">
      <use
         ffdec:characterId="2519"
         height="25.700001"
         width="19.9"
         xlink:href="#shape2"
         id="use26" />
    </g>
    <g
       id="shape2">
      <path
         d="m 15.75,10.25 0.15,-0.05 -0.05,0.2 -0.1,-0.15"
         fill="#cccccc"
         fill-rule="evenodd"
         stroke="none"
         id="path27" />
      <path
         d="M 13.95,10.2 Q 13,10.05 12.45,9.5 11.9,8.95 11.9,8.25 q 0,-2.8 2.5,-2.5 L 14.6,5.8 14.35,5.5 Q 12.1,3 8.45,3.05 L 7.2,3.1 6.25,3.65 Q 4.35,4.8 3.6,6.2 2.95,7.45 2.95,9.6 q 0,1.85 0.8,3.05 l 0.95,1 q 0.85,0.7 2.2,1 l 1.9,0.15 q 3.5,0 5.5,-2.05 l 0.6,-0.75 0.95,-1.6 0.05,-0.2 -0.15,0.05 -0.7,0.05 -1.1,-0.1 M 4.9,10.4 3.75,9.7 q -0.4,-0.5 -0.4,-1.05 0,-2.3 2.4,-2.45 2.4,-0.2 2.4,2.2 0,1.75 -1.35,2.1 L 6.1,10.55 4.9,10.4 m 8.6,1.8 q 0,0.65 -0.5,0.85 l -1.85,0.15 q -2.75,0 -3.4,-0.55 L 7.6,12.1 q 0,-3.45 2.95,-2.8 2.95,0.6 2.95,2.9 m 5.6,-3.1 q 0,2.4 -1.75,4.75 l -0.5,0.65 q 3.05,0.7 3.05,2.55 l -0.2,1.45 q -0.5,1.05 -2.15,1.05 h -0.5 l 0.05,0.7 0.05,3.55 q 0,0.8 -0.65,1.35 -0.7,0.55 -1.9,0.55 -1.7,0 -2.45,-1.15 L 11.7,23.2 q -1.9,0.15 -2.1,1.35 -0.2,1.15 -2,1.15 -2.05,0 -2.75,-1.2 L 4.6,23.3 4.8,20.15 3.4,20.3 Q 0,20.3 0,18.15 0,16.65 0.75,15.85 1.25,15.3 2,15.2 L 1.75,14.9 Q 0.15,13 0.15,11.65 0.15,5.45 3.1,2.4 5.65,-0.25 9.65,0.05 13.35,0.3 16.15,2.85 19.1,5.5 19.1,9.1 M 5.1,17.3 4.85,17.1 3.85,16.6 2.2,16.8 2,17.35 2.1,17.7 2.6,17.8 5.2,17.35 5.1,17.3 m 1.75,3.8 q 0,1.35 0.35,2.1 l 1.4,-1.3 q 1.2,-1.05 2.65,-1.15 V 20.7 l 0.2,-0.1 h 0.15 1.6 l 0.65,1.3 0.2,0.7 0.8,0.6 L 15,21.8 14.5,18.6 Q 14,18.15 13.95,17.7 12.15,18.6 9.8,18.6 L 7.7,18.45 7.05,19.2 6.85,21.1 M 16.2,17.15 17,17.3 17.75,16.95 V 16.6 l -2.1,-0.2 -0.35,0.45 0.2,-0.05 q 0.4,0 0.7,0.35"
         fill="#878787"
         fill-rule="evenodd"
         stroke="none"
         id="path28" />
      <path
         d="M 8.45,3.05 Q 12.1,3 14.35,5.5 L 14.6,5.8 14.4,5.75 q -2.5,-0.3 -2.5,2.5 0,0.7 0.55,1.25 0.55,0.55 1.5,0.7 l -0.05,0.7 0.4,1.85 q -2,2.05 -5.5,2.05 L 6.9,14.65 6.95,14.15 6.9,12.2 6.8,10.5 q 1.35,-0.35 1.35,-2.1 0,-2.4 -2.4,-2.2 -2.4,0.15 -2.4,2.45 0,0.55 0.4,1.05 l 1.15,0.7 q -0.25,0.9 -0.25,2.45 l 0.05,0.8 -0.95,-1 Q 2.95,11.45 2.95,9.6 2.95,7.45 3.6,6.2 4.35,4.8 6.25,3.65 l 2.2,-0.6 M 13.5,12.2 Q 13.5,9.9 10.55,9.3 7.6,8.65 7.6,12.1 l 0.15,0.55 q 0.65,0.55 3.4,0.55 L 13,13.05 q 0.5,-0.2 0.5,-0.85 M 5.1,17.3 5.2,17.35 2.6,17.8 2.1,17.7 2,17.35 2.2,16.8 l 1.65,-0.2 1,0.5 0.25,0.2 m 1.75,3.8 0.2,-1.9 0.65,-0.75 2.1,0.15 q 2.35,0 4.15,-0.9 0.05,0.45 0.55,0.9 l 0.5,3.2 -0.15,1.4 -0.8,-0.6 -0.2,-0.7 -0.65,-1.3 h -1.6 -0.15 l -0.2,0.1 v 0.05 Q 9.8,20.85 8.6,21.9 L 7.2,23.2 Q 6.85,22.45 6.85,21.1 M 16.2,17.15 Q 15.9,16.8 15.5,16.8 l -0.2,0.05 0.35,-0.45 2.1,0.2 v 0.35 L 17,17.3 16.2,17.15"
         fill="#d5c7c7"
         fill-rule="evenodd"
         stroke="none"
         id="path29" />
      <path
         d="m 4.7,13.65 -0.05,-0.8 q 0,-1.55 0.25,-2.45 l 1.2,0.15 0.7,-0.05 0.1,1.7 0.05,1.95 -0.05,0.5 q -1.35,-0.3 -2.2,-1 m 9.6,-0.9 -0.4,-1.85 0.05,-0.7 1.1,0.1 0.7,-0.05 0.1,0.15 -0.95,1.6 -0.6,0.75"
         fill="#a5bbba"
         fill-rule="evenodd"
         stroke="none"
         id="path30" />
    </g>
    <g
       id="sprite4"
       transform="translate(0,-4.2)">
      <use
         ffdec:characterId="2521"
         height="24.35"
         transform="translate(0,4.2)"
         width="21.450001"
         xlink:href="#shape3"
         id="use30" />
    </g>
    <g
       id="shape3"
       transform="translate(10.65,12.15)">
      <path
         d="m 0.95,-0.1 2.5,-0.3 q 4.5,-0.35 4.5,2.3 0,0.75 -0.75,1.3 Q 6.05,4.1 3.6,4.1 0.85,4.1 -0.5,3.3 L -0.9,3 -1.15,2.9 -1.35,2.75 -2,1.75 -1.6,0.8 q 0.8,-0.9 2.3,-0.9 h 0.25 m 3.7,-2.4 V -4.85 L 7.6,-4.95 8.25,-3.4 8,-1.95 5.3,-2.2 4.65,-2.5 M 1.95,1.2 0.4,1.5 0,1.65 Q 0.55,2.2 2.4,2.35 H 4.95 Q 5.8,2.35 5.8,1.75 5.8,0.8 4.15,0.8 H 3.8 L 1.95,1.2 m -7,-10.25 q -0.65,0 -0.8,-0.35 L -5.9,-9.75 q 0,-0.9 0.9,-0.8 0.85,0.05 0.85,0.8 0,0.65 -0.9,0.7 M -8.2,-7.2 q -0.75,0 -0.75,-0.75 0,-0.75 0.8,-0.75 0.8,0 0.8,0.75 0,0.3 -0.3,0.55 -0.3,0.2 -0.55,0.2 m 7.1,4.9 q -2.05,-0.4 -2.15,-1.35 0.35,-1.05 0.35,-1.5 2.1,-0.35 2.75,0.45 l 0.25,1.2 -0.2,1.2 h -1"
         fill="#dddddd"
         fill-rule="evenodd"
         stroke="none"
         id="path31" />
      <path
         d="M 4.65,-2.5 5.3,-2.2 8,-1.95 8.25,-3.4 7.6,-4.95 4.65,-4.85 v 2.35 m -3.7,2.4 H 0.7 q -1.5,0 -2.3,0.9 l -0.4,0.95 0.65,1 0.2,0.15 0.25,0.1 0.4,0.3 q 1.35,0.8 4.1,0.8 2.45,0 3.6,-0.9 0.75,-0.55 0.75,-1.3 0,-2.65 -4.5,-2.3 l -2.5,0.3 m 7,-8.4 q 2.85,2.15 2.85,6.55 0,5.5 -4.15,7.2 1.4,0.95 1.4,2.25 L 7.8,8.55 Q 7.6,8.85 7.05,8.85 5.15,8.85 4.2,7.2 L 3.75,6.15 2.95,7.6 2.1,8.65 q 0.4,0.8 0.4,2.3 0,0.55 -0.4,0.9 -0.45,0.35 -1,0.35 -1.5,0 -1.9,-1.3 L -0.9,9.7 V 9.55 Q -2.1,9.4 -2.95,8.6 l -0.7,0.15 -2.6,0.45 Q -7.65,9.2 -8,8.75 L -8.15,8.2 q 0,-2.15 2.3,-1.75 l 1.5,-0.3 H -4 l 0.05,-0.6 h -0.2 Q -7.4,5.55 -8.55,4.8 -9.1,4.4 -9.1,3.9 q 0,-2.4 2.65,-1.8 -0.9,-1.45 -0.9,-3.15 0,-2.2 1.15,-4.05 h -0.45 q -2.45,0 -3.5,-1.4 l -0.5,-1.5 q 0,-3.8 4,-4.1 1.55,-0.15 2.7,0.55 1.25,0.7 1.25,1.9 l -0.05,1.25 q 1.95,-1.2 4.5,-1.5 3.7,-0.45 6.2,1.4 m -6,9.7 1.85,-0.4 h 0.35 q 1.65,0 1.65,0.95 0,0.6 -0.85,0.6 H 2.4 Q 0.55,2.2 0,1.65 L 0.4,1.5 1.95,1.2 M -8.2,-7.2 q 0.25,0 0.55,-0.2 0.3,-0.25 0.3,-0.55 0,-0.75 -0.8,-0.75 -0.8,0 -0.8,0.75 0,0.75 0.75,0.75 m 3.15,-1.85 q 0.9,-0.05 0.9,-0.7 0,-0.75 -0.85,-0.8 -0.9,-0.1 -0.9,0.8 l 0.05,0.35 q 0.15,0.35 0.8,0.35 m 3.95,6.75 h 1 l 0.2,-1.2 -0.25,-1.2 q -0.65,-0.8 -2.75,-0.45 0,0.45 -0.35,1.5 0.1,0.95 2.15,1.35"
         fill="#878787"
         fill-rule="evenodd"
         stroke="none"
         id="path32" />
    </g>
    <g
       id="sprite5"
       transform="translate(13.65,19)">
      <use
         ffdec:characterId="2541"
         height="36.75"
         transform="translate(-13.65,-18.4)"
         width="27.299999"
         xlink:href="#shape4"
         id="use32" />
    </g>
    <g
       id="shape4"
       transform="translate(13.65,18.4)">
      <path
         d="m 4.95,-3.8 -0.3,1.15 q -0.55,0.95 -1.8,0.95 -1.3,0 -1.8,-0.5 -0.2,0.6 -1.4,0.6 -1.95,0 -2.65,-1.15 -0.35,-0.55 -0.3,-1.2 0,-1 0.5,-1.75 0.75,-1.05 2.25,-1.15 l 0.1,0.3 -0.8,0.85 q -0.8,0.85 -0.8,1.5 l 0.3,0.7 q 0.4,0.45 1.15,0.45 0.4,0 0.9,-0.65 0.5,-0.65 0.8,-0.65 0.55,0 0.75,0.55 0.3,0.7 0.55,0.85 L 3.35,-3 Q 3.7,-3.5 3.7,-4.2 L 3.5,-4.95 2.8,-5.75 q 0.3,-0.6 0.8,-0.6 1.05,0 1.3,1.25 l 0.05,1.3 M 8,-4 Q 6.5,-4 6.05,-4.75 L 5.9,-5.55 q 0,-1.75 2.3,-1.75 1.55,0 1.55,1.35 Q 9.75,-4 8,-4 M 0,18.35 Q 2.4,16.1 4,15.5 5.7,14.9 5.7,12.1 5.7,10.35 4.2,9.05 2.65,7.75 2.65,5.35 q 0,-1.85 1.4,-2.85 0.55,-0.4 3,-1.3 4.4,-1.65 4.4,-6.05 0,-3.45 -2.3,-6.8 Q 5.8,-16.6 -0.7,-16 q -5.4,1.1 -8.3,5.2 -2.3,3.15 -2.3,6.5 0,3.6 2.05,5.2 2.8,1.65 4.3,3.35 0.25,0.25 0.75,2.2 0.35,1.25 2.45,2 1.95,0.75 2.7,2.15 0.4,0.8 0.4,2.15 0,1.75 -1,2.85 -1.05,1.1 -1.05,1.75 l 0.3,1 h -2.3 l -0.1,-1 q 0,-1.75 1,-2.75 1,-1 1,-1.8 0,-1 -1.65,-1.95 L -5.65,8.7 -6.45,6.6 q -0.35,-1.4 -2.1,-2.15 -3.2,-1.3 -4.35,-4.2 -0.75,-1.75 -0.75,-4.55 0,-4.4 2.4,-8.05 3.35,-5.05 10.2,-5.9 8.1,-0.95 12.05,4.95 2.65,3.9 2.65,8.4 0,5.55 -4.45,7.65 l -3.05,1.2 q -1.4,0.6 -1.4,1.4 0,1.1 1.55,2.85 1.55,1.75 1.55,3.85 L 7.4,14.5 Q 6.85,16.1 5.65,16.95 L 3.35,17.8 2,18.35 H 0 m -8.5,-23.5 q 0,-2.25 2.05,-2.3 2,-0.1 2,1.75 0,0.6 -0.3,1.15 -0.5,0.95 -1.6,0.95 -1.2,0 -1.8,-0.7 L -8.5,-5.15"
         fill="#878787"
         fill-rule="evenodd"
         stroke="none"
         id="path33" />
      <path
         d="m 8,-4 q 1.75,0 1.75,-1.95 0,-1.35 -1.55,-1.35 -2.3,0 -2.3,1.75 l 0.15,0.8 Q 6.5,-4 8,-4 M 4.95,-3.8 4.9,-5.1 q -0.25,-1.25 -1.3,-1.25 -0.5,0 -0.8,0.6 l 0.7,0.8 0.2,0.75 q 0,0.7 -0.35,1.2 L 2.4,-2.95 Q 2.15,-3.1 1.85,-3.8 1.65,-4.35 1.1,-4.35 q -0.3,0 -0.8,0.65 -0.5,0.65 -0.9,0.65 -0.75,0 -1.15,-0.45 l -0.3,-0.7 q 0,-0.65 0.8,-1.5 l 0.8,-0.85 -0.1,-0.3 q -1.5,0.1 -2.25,1.15 -0.5,0.75 -0.5,1.75 -0.05,0.65 0.3,1.2 0.7,1.15 2.65,1.15 1.2,0 1.4,-0.6 0.5,0.5 1.8,0.5 1.25,0 1.8,-0.95 l 0.3,-1.15 m -5.35,22.15 -0.3,-1 q 0,-0.65 1.05,-1.75 1,-1.1 1,-2.85 0,-1.35 -0.4,-2.15 Q 0.2,9.2 -1.75,8.45 -3.85,7.7 -4.2,6.45 -4.7,4.5 -4.95,4.25 q -1.5,-1.7 -4.3,-3.35 -2.05,-1.6 -2.05,-5.2 0,-3.35 2.3,-6.5 2.9,-4.1 8.3,-5.2 6.5,-0.6 9.85,4.35 2.3,3.35 2.3,6.8 0,4.4 -4.4,6.05 -2.45,0.9 -3,1.3 -1.4,1 -1.4,2.85 0,2.4 1.55,3.7 1.5,1.3 1.5,3.05 0,2.8 -1.7,3.4 -1.6,0.6 -4,2.85 h -0.4 m -8.1,-23.5 0.35,0.85 q 0.6,0.7 1.8,0.7 1.1,0 1.6,-0.95 0.3,-0.55 0.3,-1.15 0,-1.85 -2,-1.75 -2.05,0.05 -2.05,2.3"
         fill="#b6c8c6"
         fill-opacity="0.498039"
         fill-rule="evenodd"
         stroke="none"
         id="path34" />
    </g>
    <g
       id="sprite6">
      <use
         ffdec:characterId="2548"
         height="20"
         width="26.549999"
         xlink:href="#shape5"
         id="use34" />
    </g>
    <g
       id="shape5">
      <path
         d="M 23.35,9.55 23.9,9.6 q 2.65,0.45 2.65,2.5 0,1.15 -1.75,1.15 l -1.25,-0.15 0.05,0.75 q 0,1.1 -0.6,1.6 -0.7,0.6 -2.15,0.85 L 21,17.15 20.7,18.4 20.6,18.7 Q 20.15,20 19.2,20 17.9,20 17.45,18.55 L 17.1,18 17.05,16.9 V 16.5 L 16,16.4 H 10.25 Q 10.15,18.25 9.2,18.85 8.6,19.4 8,19.4 7.05,19.4 6.65,18.45 L 6.35,18 6,16.75 6.05,16.5 Q 3.8,16 3.4,14 L 3.45,13.35 2,13.4 q -1.4,0 -1.85,-0.65 L 0,12.05 q 0,-1.9 2.45,-2.5 L 3.4,9.45 Q 2.8,5.7 2.8,4 2.8,1.05 4.1,1.2 H 4.15 L 4.6,1 8.35,0.95 10.4,0.85 h 1.05 Q 14.65,-0.1 18.4,0 23.35,0.15 23.35,2.5 V 9.55 M 12.3,13.5 Q 10.55,13.05 9.5,12.05 8.25,10.9 8.25,9.6 L 8.2,8.9 V 8.45 Q 8.25,8.2 8.95,8.25 l 1.45,0.1 q 1.8,-0.6 4.1,-0.55 l 4.1,0.45 h 0.1 l 0.15,0.05 0.1,-0.1 0.15,-0.1 q 0.25,-0.15 0.45,0 L 19.8,9 q 0,3.15 -2.85,4.35 l -0.6,0.25 2.9,-0.15 0.8,-0.05 0.7,-0.1 -0.1,-0.15 V 3.4 L 16.85,3.15 13.95,3.5 8.15,3.8 6.75,3.9 6.15,3.95 H 6 v 0.1 l 0.2,1.9 0.1,0.7 0.25,2.05 0.55,4.65 1.15,0.2 3.9,0.05 H 12.8 L 12.3,13.5 M 19.9,5.3 19.85,5.8 Q 19.65,6.75 18.6,7 l -0.75,0.05 q -1.35,0 -1.6,-0.6 V 5.8 q 0,-2.1 1.85,-2.05 1.8,0.1 1.8,1.55 m -8.1,-0.25 0.05,0.7 -0.15,1 Q 11.3,7.4 10,7.4 L 8.8,7.15 8.2,6.6 8.1,5.9 V 5.85 L 8.05,5.7 Q 8.05,5 8.3,4.65 L 8.4,4.55 Q 9.05,3.8 10.75,4.15 l 1.05,0.9 M 10.9,9.6 9.55,9.65 q 0.4,0.8 2.05,1.75 1.55,0.85 2.4,0.85 2.8,0 3.75,-1.25 L 17.8,10.9 18.05,10.1 18.1,9.6 17.4,9.55 H 16.5 L 14.25,9.45 H 13.7 L 13.75,9.9 13.4,10.6 Q 12.95,11 12.05,11 11.25,11 11,10.4 L 10.9,9.75 V 9.6"
         fill="#6b6b6b"
         fill-rule="evenodd"
         stroke="none"
         id="path35" />
      <path
         d="M 10.9,9.6 V 9.75 L 11,10.4 q 0.25,0.6 1.05,0.6 0.9,0 1.35,-0.4 L 13.75,9.9 13.7,9.45 h 0.55 l 2.25,0.1 h 0.9 L 18.1,9.6 18.05,10.1 17.8,10.9 17.75,11 Q 16.8,12.25 14,12.25 13.15,12.25 11.6,11.4 9.95,10.45 9.55,9.65 L 10.9,9.6"
         fill="#e0e0e0"
         fill-rule="evenodd"
         stroke="none"
         id="path36" />
      <path
         d="M 12.15,13.6 8.25,13.55 7.1,13.35 6.55,8.7 6.3,6.65 6.2,5.95 6,4.05 v -0.1 h 0.15 l 0.6,-0.05 1.4,-0.1 5.8,-0.3 2.9,-0.35 3.8,0.25 v 9.75 l 0.1,0.15 -0.7,0.1 -0.8,0.05 -2.9,0.15 0.6,-0.25 Q 19.8,12.15 19.8,9 L 19.55,8.1 q -0.2,-0.15 -0.45,0 L 18.95,8.2 18.85,8.3 18.7,8.25 H 18.6 L 14.5,7.8 Q 12.2,7.75 10.4,8.35 L 8.95,8.25 Q 8.25,8.2 8.2,8.45 V 8.9 l 0.05,0.7 q 0,1.3 1.25,2.45 1.05,1 2.8,1.45 l -0.15,0.1 M 11.8,5.05 10.75,4.15 Q 9.05,3.8 8.4,4.55 L 8.3,4.65 Q 8.05,5 8.05,5.7 L 8.1,5.85 V 5.9 L 8.2,6.6 8.8,7.15 10,7.4 q 1.3,0 1.7,-0.65 l 0.15,-1 -0.05,-0.7 M 19.9,5.3 Q 19.9,3.85 18.1,3.75 16.25,3.7 16.25,5.8 v 0.65 q 0.25,0.6 1.6,0.6 L 18.6,7 Q 19.65,6.75 19.85,5.8 L 19.9,5.3"
         fill="#b69393"
         fill-rule="evenodd"
         stroke="none"
         id="path37" />
    </g>
    <g
       id="sprite7">
      <use
         ffdec:characterId="2523"
         height="26.299999"
         width="29.799999"
         xlink:href="#shape6"
         id="use37" />
    </g>
    <g
       id="shape6">
      <path
         d="m 22.35,8.85 q 1.35,0.9 1.35,1.3 v 0.4 l -0.5,0.4 -1.55,-1.4 -1.35,0.9 -0.55,-0.75 q 0,-0.45 0.7,-0.95 L 19.05,7.8 V 7.25 q 0.75,0 2.3,0.95 1.15,-0.65 1.85,-0.75 l 0.15,0.35 -1,1.05 m 6,2.95 -0.3,3.65 q 1.75,0.35 1.75,2 0,1.45 -1.55,1.45 l -1.35,-0.1 -0.2,0.35 q -0.95,1.7 -2.35,2.95 1.2,0.7 1.2,2.1 0,1.3 -1.4,1.3 -0.8,0 -1.85,-1.35 L 21.95,23.6 Q 19.3,24.75 15.6,24.75 L 12.45,24.6 12.3,24.9 q -0.85,1.4 -2.25,1.4 -0.95,0 -1.35,-0.7 l -0.2,-0.75 0.2,-1 Q 4.8,22.6 3.1,19.7 q -0.95,0.7 -1.6,0.7 -0.55,0 -1.1,-1 L 0,18.3 q 0,-1.65 2.15,-1.75 l -0.2,-3.2 Q 1.95,6.85 6.1,3.2 9.75,-0.05 15.15,0 q 5.3,0 9.1,3.1 4.1,3.3 4.1,8.7 m -21.3,7.65 q 2.6,2.25 8.55,2.25 6.45,0 8.75,-4.6 1.1,-2.1 1.1,-5.2 0,-3.45 -2.1,-5.65 Q 21,3.8 16.2,3.2 v 0.1 q 0,1 -1.2,1 L 14.25,3.9 14.05,3.3 14.1,3.05 12.2,3 l -0.85,0.2 -1,0.3 q -2.8,1.05 -4.2,3.9 -1.2,2.45 -1.2,5.85 0,2.35 0.55,3.9 l 0.6,1.25 0.95,1.05 m 14.45,-6.25 0.55,1.15 0.35,0.8 0.3,0.75 0.05,0.25 q 0,0.8 -2.95,1.85 -3.6,1.3 -8.5,1.3 -2.75,0 -3.35,-1.85 L 7.85,15.4 q 0,-1.6 1.5,-2.65 2.1,-1.5 6.85,-1.1 l 2.8,-0.1 q 1.55,0.15 2.45,1.6 L 21.5,13.2 M 18.45,5.4 18.7,5.75 18.35,6.2 17.75,6.25 q -0.2,0.1 -0.2,-0.55 L 17.6,5.25 18.2,5.2 18.45,5.4 m -7.7,4.65 Q 9.85,10.05 9.2,9.3 L 7.95,10.45 7.55,10.4 7.45,9.9 Q 7.45,9.4 8.5,8.25 L 8.2,7.4 8.3,6.9 8.6,6.75 9.25,7.55 Q 10.2,6.8 11.1,6.7 l 0.2,0.1 0.05,0.4 -1.3,1.3 1.05,1.2 -0.05,0.2 q 0.3,0.15 -0.3,0.15 M 7.2,11.9 7.1,12.25 6.5,12.7 5.85,11.9 6.05,11.4 6.5,11.25 7.2,11.9 m 10.1,4.45 0.05,0.65 1.75,-0.5 0.3,-0.15 -0.05,-0.55 v -0.1 l -1.85,0.05 -0.15,0.35 v 0.1 L 17.3,16.35 M 16,16 15.35,15.75 q -0.5,0 -0.6,0.75 l 0.05,0.75 1.25,-0.1 0.2,-1 L 16,16 m 4.2,-0.3 0.05,-0.05 H 20.2 v 0.05 m -6.55,0.4 q -0.05,-0.2 -0.45,-0.2 -0.4,0 -0.9,0.3 v 1.1 h 1.25 v -0.15 q 0,-0.6 0.15,-1 L 13.65,16.1 m 5.85,4.05 -0.65,-0.7 q 0.65,0.1 0.65,-0.65 l 0.7,0.65 -0.7,0.7"
         fill="#6b6b6b"
         fill-rule="evenodd"
         stroke="none"
         id="path38" />
      <path
         d="m 13.65,16.1 0.05,0.05 q -0.15,0.4 -0.15,1 V 17.3 H 12.3 v -1.1 q 0.5,-0.3 0.9,-0.3 0.4,0 0.45,0.2 m 6.55,-0.4 v -0.05 h 0.05 L 20.2,15.7 M 16,16 l 0.25,0.15 -0.2,1 -1.25,0.1 -0.05,-0.75 q 0.1,-0.75 0.6,-0.75 L 16,16 m 1.3,0.35 0.05,-0.15 v -0.1 l 0.15,-0.35 1.85,-0.05 v 0.1 L 19.4,16.35 19.1,16.5 17.35,17 17.3,16.35"
         fill="#cdcdcd"
         fill-rule="evenodd"
         stroke="none"
         id="path39" />
      <path
         d="M 22.35,8.85 23.35,7.8 23.2,7.45 Q 22.5,7.55 21.35,8.2 19.8,7.25 19.05,7.25 V 7.8 l 1.4,0.95 q -0.7,0.5 -0.7,0.95 l 0.55,0.75 1.35,-0.9 1.55,1.4 0.5,-0.4 v -0.4 q 0,-0.4 -1.35,-1.3 M 5.5,17.15 q -0.55,-1.55 -0.55,-3.9 0,-3.4 1.2,-5.85 1.4,-2.85 4.2,-3.9 l 1,-0.3 L 12.2,3 14.1,3.05 14.05,3.3 14.25,3.9 15,4.3 q 1.2,0 1.2,-1 V 3.2 q 4.8,0.6 7.15,3.05 2.1,2.2 2.1,5.65 0,3.1 -1.1,5.2 -2.3,4.6 -8.75,4.6 -5.95,0 -8.55,-2.25 L 5.8,17.75 5.5,17.15 M 7.2,11.9 6.5,11.25 6.05,11.4 5.85,11.9 6.5,12.7 7.1,12.25 7.2,11.9 m 3.55,-1.85 q 0.6,0 0.3,-0.15 L 11.1,9.7 10.05,8.5 11.35,7.2 11.3,6.8 11.1,6.7 Q 10.2,6.8 9.25,7.55 L 8.6,6.75 8.3,6.9 8.2,7.4 8.5,8.25 Q 7.45,9.4 7.45,9.9 l 0.1,0.5 0.4,0.05 L 9.2,9.3 q 0.65,0.75 1.55,0.75 M 18.45,5.4 18.2,5.2 17.6,5.25 17.55,5.7 q 0,0.65 0.2,0.55 L 18.35,6.2 18.7,5.75 18.45,5.4 m 3.05,7.8 -0.05,-0.05 Q 20.55,11.7 19,11.55 l -2.8,0.1 q -4.75,-0.4 -6.85,1.1 -1.5,1.05 -1.5,2.65 l 0.1,2.05 q 0.6,1.85 3.35,1.85 4.9,0 8.5,-1.3 2.95,-1.05 2.95,-1.85 L 22.7,15.9 22.4,15.15 22.05,14.35 21.5,13.2 m -2,6.95 0.7,-0.7 -0.7,-0.65 q 0,0.75 -0.65,0.65 l 0.65,0.7"
         fill="#a49292"
         fill-rule="evenodd"
         stroke="none"
         id="path40" />
    </g>
    <g
       id="sprite8">
      <use
         ffdec:characterId="2525"
         height="27.5"
         width="25.9"
         xlink:href="#shape7"
         id="use40" />
    </g>
    <g
       id="shape7">
      <path
         d="m 22.8,17.4 0.15,0.05 q 2.95,0.9 2.95,3.05 l -0.35,1.15 q -0.85,1.1 -3.7,1.1 l -1,-0.1 0.3,1.3 -0.65,1.15 q -1,1.15 -2.8,1.15 -1.65,0 -2.65,-0.95 l -0.4,0.65 q -1.05,1.55 -2.7,1.55 -2.25,0 -3,-1.7 -0.3,-0.8 -0.3,-2.25 0,-0.9 0.4,-1.75 Q 3.75,21.3 1.5,17.45 0,14.85 0,11.05 0,8 1.45,5.15 3.9,0 9.85,0 q 7.6,0 10.35,1.3 5.1,2.4 5.1,10.3 0,3 -2.5,5.8 m -5.3,3.95 -0.4,-0.35 -1.05,0.3 0.05,0.3 q 0.1,2.15 2,2.15 l 0.3,-0.1 V 23.5 l 0.1,-0.4 q 0,-0.85 -1,-1.75 m -4.4,0.45 -1.35,0.1 -0.1,0.1 q -0.6,0.8 -0.6,1.65 l 0.05,0.7 q 0.1,0.45 0.6,0.6 0.8,-0.65 1.3,-2.7 L 13.1,21.8 M 8,10.4 q 0.95,-0.15 0.95,0.95 l -0.1,0.5 Q 8.65,12.4 8,12.4 L 7.25,11.95 7,11.45 Q 7,10.5 8,10.4 m 2.35,-2.3 q 2.4,1 2.4,4.05 0,0.8 -1.05,2 -1.4,1.7 -3.5,1.7 -2.35,0 -3.5,-2.15 Q 3.9,12.3 3.9,11.05 3.9,9.3 5.25,8.4 6.55,7.5 8.3,7.65 l 0.45,0.05 1.6,0.4 m 0.5,3.15 V 11.2 q 0,-2.15 -2.5,-1.8 -2.5,0.3 -2.5,1.65 l 0.35,1.2 q 0.6,1.4 1.85,1.4 L 8.6,13.6 q 0.85,-0.15 1.5,-0.85 0.75,-0.75 0.75,-1.5 m 8.5,-0.5 q -0.4,0.6 -1.6,0.6 -1.35,0 -1.35,-1.4 0,-1.65 1.55,-1.45 1.55,0.15 1.55,1.6 l -0.15,0.65 m 0.9,5.1 q 1.8,-2.15 1.8,-4.9 0,-6.65 -5.95,-8.3 Q 8,2 4.7,5.4 2.65,7.55 2.65,10.8 q 0,2.35 1.3,4.45 2.35,3.8 8.15,3.8 5.55,0 8.15,-3.2 m 1,3.1 h -0.1 l -1,0.7 2.8,0.5 0.5,-0.05 0.05,-0.55 -2.25,-0.6"
         fill="#6b6b6b"
         fill-rule="evenodd"
         stroke="none"
         id="path41" />
      <path
         d="m 21.25,18.95 2.25,0.6 -0.05,0.55 -0.5,0.05 -2.8,-0.5 1,-0.7 h 0.1 m -1,-3.1 q -2.6,3.2 -8.15,3.2 -5.8,0 -8.15,-3.8 Q 2.65,13.15 2.65,10.8 2.65,7.55 4.7,5.4 8,2 16.1,2.65 q 5.95,1.65 5.95,8.3 0,2.75 -1.8,4.9 m -0.9,-5.1 0.15,-0.65 q 0,-1.45 -1.55,-1.6 -1.55,-0.2 -1.55,1.45 0,1.4 1.35,1.4 1.2,0 1.6,-0.6 m -8.5,0.5 q 0,0.75 -0.75,1.5 -0.65,0.7 -1.5,0.85 l -0.55,0.05 q -1.25,0 -1.85,-1.4 l -0.35,-1.2 q 0,-1.35 2.5,-1.65 2.5,-0.35 2.5,1.8 v 0.05 M 10.35,8.1 8.75,7.7 8.3,7.65 Q 6.55,7.5 5.25,8.4 3.9,9.3 3.9,11.05 q 0,1.25 0.8,2.65 1.15,2.15 3.5,2.15 2.1,0 3.5,-1.7 1.05,-1.2 1.05,-2 0,-3.05 -2.4,-4.05 M 8,10.4 Q 7,10.5 7,11.45 L 7.25,11.95 8,12.4 q 0.65,0 0.85,-0.55 l 0.1,-0.5 Q 8.95,10.25 8,10.4 m 5.1,11.4 -0.1,0.45 q -0.5,2.05 -1.3,2.7 -0.5,-0.15 -0.6,-0.6 l -0.05,-0.7 q 0,-0.85 0.6,-1.65 l 0.1,-0.1 1.35,-0.1 m 4.4,-0.45 q 1,0.9 1,1.75 l -0.1,0.4 v 0.15 l -0.3,0.1 q -1.9,0 -2,-2.15 l -0.05,-0.3 1.05,-0.3 0.4,0.35"
         fill="#aec1c5"
         fill-rule="evenodd"
         stroke="none"
         id="path42" />
    </g>
    <g
       id="sprite9">
      <use
         ffdec:characterId="2527"
         height="15.1"
         width="21"
         xlink:href="#shape8"
         id="use42" />
    </g>
    <g
       id="shape8">
      <path
         d="m 20.25,13.55 q -1,1.4 -3.1,1.55 H 3.85 Q 0.9,14.65 0.2,13.6 0,13.25 0,11.5 0,10 0.65,8.5 1.1,4.9 3.55,2.6 6.35,0 10.45,0 q 4,0.05 6.85,2.6 2.6,2.3 3.05,5.95 Q 20.9,9.7 21,11 q 0,1.5 -0.75,2.55 m -6,-5.75 0.05,0.5 q 0.2,0.45 1.05,0.45 0.75,0 1.1,-0.65 L 16.7,7.05 Q 16.7,5.8 15.5,6.15 14.25,6.5 14.25,7.8 m -0.35,3.7 -0.05,0.05 V 11.5 h 0.05 m -3.5,0.25 2.2,-0.05 0.25,0.35 0.9,0.6 0.65,-0.45 0.55,-0.9 v -0.05 l 1.7,-0.9 Q 16.35,10.1 16.35,9.9 H 14.8 L 11.75,10 5.85,9.9 q -0.5,0 -0.6,0.3 L 5.2,10.55 q 0.85,0.25 0.85,0.75 l 1.2,0.35 0.15,0.2 q 0.35,0.6 1.05,0.6 0.35,0 0.7,-0.4 l 0.2,-0.3 H 10.4 M 3.85,5.05 3.9,5.5 4.3,5.6 4.75,5.5 4.8,5.1 4.75,4.7 3.9,4.65 3.85,4.75 v 0.3 M 10.05,2.15 9.9,1.7 Q 7.8,1.2 6.6,2.15 5.65,2.8 5.65,3.6 L 5.7,4 h 1.8 q 2,-0.65 2.55,-1.85 M 5.5,8 Q 5.95,8.55 7,8.55 8.2,8.55 8.2,7.25 8.2,5.55 6.7,5.7 5.2,5.8 5.2,7.4 L 5.5,8"
         fill="#6b6b6b"
         fill-rule="evenodd"
         stroke="none"
         id="path43" />
      <path
         d="M 10.4,11.75 H 9.35 l -0.2,0.3 q -0.35,0.4 -0.7,0.4 -0.7,0 -1.05,-0.6 L 7.25,11.65 6.05,11.3 q 0,-0.5 -0.85,-0.75 L 5.25,10.2 q 0.1,-0.3 0.6,-0.3 l 5.9,0.1 3.05,-0.1 h 1.55 q 0,0.2 0.3,0.45 l -1.7,0.9 v 0.05 l -0.55,0.9 -0.65,0.45 -0.9,-0.6 -0.25,-0.35 -2.2,0.05 m 3.5,-0.25 h -0.05 v 0.05 L 13.9,11.5"
         fill="#cdcdcd"
         fill-rule="evenodd"
         stroke="none"
         id="path44" />
      <path
         d="M 10.05,2.15 Q 9.5,3.35 7.5,4 H 5.7 L 5.65,3.6 Q 5.65,2.8 6.6,2.15 7.8,1.2 9.9,1.7 l 0.15,0.45 m -6.2,2.9 V 4.75 L 3.9,4.65 4.75,4.7 4.8,5.1 4.75,5.5 4.3,5.6 3.9,5.5 3.85,5.05"
         fill="#ffffff"
         fill-rule="evenodd"
         stroke="none"
         id="path45" />
      <path
         d="m 14.25,7.8 q 0,-1.3 1.25,-1.65 1.2,-0.35 1.2,0.9 L 16.45,8.1 Q 16.1,8.75 15.35,8.75 14.5,8.75 14.3,8.3 L 14.25,7.8 M 5.5,8 5.2,7.4 Q 5.2,5.8 6.7,5.7 8.2,5.55 8.2,7.25 8.2,8.55 7,8.55 5.95,8.55 5.5,8"
         fill="#d0d7b8"
         fill-rule="evenodd"
         stroke="none"
         id="path46" />
    </g>
    <g
       id="sprite10">
      <use
         ffdec:characterId="2529"
         height="23.9"
         width="17.700001"
         xlink:href="#shape9"
         id="use46" />
    </g>
    <g
       id="shape9">
      <path
         d="m 10.2,4.85 q 0.2,-0.65 1.1,-0.45 1.15,0.25 1.15,1.2 0,0.95 -0.9,0.95 -1,0 -1.3,-0.4 L 10.1,5.6 V 5.35 l 0.1,-0.5 m 3.25,-1.4 V 3.2 L 13.3,3.25 11.75,3.4 9.7,3.6 4.9,4 3.7,4.05 3.65,5.25 3.45,7.45 v 2.85 q 0,0.8 0.75,1.25 l 0.05,0.05 1.9,0.45 1.25,0.05 H 7.65 8.4 l 1,-0.05 2.8,-0.1 0.8,-0.05 q 0.5,-1.5 0.45,-4.05 V 7.65 6.7 3.45 M 7.5,6.75 Q 7.75,6.4 8.6,6.4 9.7,6.4 10,7.25 11.35,7.6 11.35,9.1 l -0.5,1.4 -0.1,0.15 L 10.2,10.9 10.1,10.5 9.9,10.1 Q 9.7,9.65 8.8,9.65 8.45,9.65 7.9,10.1 L 7.65,10.3 7.55,10.45 7.1,10.8 6.75,10.95 Q 6,10.95 5.8,10.55 V 10.4 L 5.75,10.2 V 10.1 Q 5.75,9.05 6.15,8.4 6.5,7.65 7.35,7.35 L 7.4,6.9 7.5,6.75 m 8.8,-5.2 v 11.5 l 0.05,0.4 -0.25,0.95 q -0.45,0.5 -2.4,0.5 h -0.2 l 0.25,1.3 0.1,0.6 0.45,0.05 q 3.4,0.6 3.4,3.3 l -0.2,1 q -0.35,0.8 -0.95,0.8 -0.65,0 -1.1,-0.95 -0.55,-1.1 -1,-1.3 l -0.5,-0.05 v 0.2 q 0,0.6 -0.35,0.95 l 0.15,0.9 -0.2,1.2 q -0.25,0.5 -1.25,1 l -0.85,-0.2 0.1,-1 0.15,-1 -0.15,-0.4 H 9.7 l -2.65,-0.1 -1.8,2.45 q -1.2,0 -1.45,-1.45 l -0.05,-1.5 0.1,-0.5 -0.9,-0.05 -0.65,1.6 q -0.4,1.2 -1.1,1.2 -0.65,0 -1,-1.2 L 0,20.55 Q 0,18.25 3,17.4 L 3.45,17.3 3.35,16.25 3.45,14.3 2.55,14.05 Q 0.7,13.5 0.7,12.3 L 0.8,5.95 1.05,4.5 1.2,2.95 Q 0.5,1.35 0.8,1.05 L 6.95,0.8 14.35,0.05 q 1.8,-0.25 1.95,1.5 M 7.2,6.35 6.8,6.6 5.75,7.05 4.8,6.9 Q 4.7,7 4.7,6.35 q 0,-1.7 1.45,-1.6 1.4,0.15 1.4,1.1 L 7.2,6.35 m -0.9,11.9 v 0.05 l 0.45,0.1 h 4.1 v -0.05 q 0,-0.65 0.35,-1.05 v -0.25 l -0.25,-1 -0.3,-1.15 -1.9,-0.1 -2.5,-0.15 v 1.45 l 0.05,1.3 v 0.85"
         fill="#6b6b6b"
         fill-rule="evenodd"
         stroke="none"
         id="path47" />
      <path
         d="m 10.2,4.85 -0.1,0.5 V 5.6 l 0.15,0.55 q 0.3,0.4 1.3,0.4 0.9,0 0.9,-0.95 0,-0.95 -1.15,-1.2 -0.9,-0.2 -1.1,0.45 m 3.25,-1.4 V 6.7 7.65 7.85 Q 13.5,10.4 13,11.9 l -0.8,0.05 -2.8,0.1 -1,0.05 H 7.65 7.4 L 6.15,12.05 4.25,11.6 4.2,11.55 Q 3.45,11.1 3.45,10.3 V 7.45 L 3.65,5.25 3.7,4.05 4.9,4 9.7,3.6 11.75,3.4 13.3,3.25 13.45,3.45 M 7.5,6.75 7.4,6.9 7.35,7.35 Q 6.5,7.65 6.15,8.4 5.75,9.05 5.75,10.1 v 0.1 l 0.05,0.2 v 0.15 q 0.2,0.4 0.95,0.4 L 7.1,10.8 7.55,10.45 7.65,10.3 7.9,10.1 q 0.55,-0.45 0.9,-0.45 0.9,0 1.1,0.45 l 0.2,0.4 0.1,0.4 0.55,-0.25 0.1,-0.15 0.5,-1.4 Q 11.35,7.6 10,7.25 9.7,6.4 8.6,6.4 7.75,6.4 7.5,6.75 M 7.2,6.35 7.55,5.85 Q 7.55,4.9 6.15,4.75 4.7,4.65 4.7,6.35 4.7,7 4.8,6.9 L 5.75,7.05 6.8,6.6 7.2,6.35 M 6.3,18.25 V 17.4 L 6.25,16.1 v -1.45 l 2.5,0.15 1.9,0.1 0.3,1.15 0.25,1 v 0.25 q -0.35,0.4 -0.35,1.05 V 18.4 H 6.75 L 6.3,18.3 v -0.05"
         fill="#768e7e"
         fill-rule="evenodd"
         stroke="none"
         id="path48" />
    </g>
    <g
       id="sprite11"
       transform="translate(3,20.85)">
      <use
         ffdec:characterId="2531"
         height="41.700001"
         transform="translate(-3,-20.85)"
         width="6"
         xlink:href="#shape10"
         id="use48" />
    </g>
    <g
       id="shape10"
       transform="translate(3,20.85)">
      <path
         d="M 2.9,-19 V 9.3 H 2.8 v 9.8 H 2.75 v 0.1 l -0.05,0.3 0.15,0.35 q 0,0.6 -0.35,0.75 l -4,0.25 q -1.1,0 -1.4,-0.4 L -2.95,20 -2.7,19.6 -2.8,19.2 -2.75,18.95 v -37.5 l -0.1,-0.15 -0.15,-0.55 0.05,-0.25 v -0.15 q 0,-0.85 3,-1.15 Q 3,-21.05 3,-20 l -0.15,0.55 0.05,0.2 V -19 M 1.15,19.1 V -19 H -1 V 9.3 h -0.1 v 9.8 h 2.25"
         fill="#6b6b6b"
         fill-rule="evenodd"
         stroke="none"
         id="path49" />
      <path
         d="M 1.15,19.1 H -1.1 V 9.3 H -1 V -19 h 2.15 v 38.1"
         fill="#8c8c8c"
         fill-rule="evenodd"
         stroke="none"
         id="path50" />
    </g>
    <g
       id="sprite12"
       transform="translate(3.35,5.7)">
      <use
         ffdec:characterId="2533"
         height="11.35"
         transform="translate(-3.35,-5.7)"
         width="6.75"
         xlink:href="#shape11"
         id="use50" />
    </g>
    <g
       id="shape11"
       transform="translate(3.35,5.7)">
      <path
         d="M 1.1,-1.45 -0.15,0.1 q 2.95,3.35 2.95,4.3 0,1.25 -1.15,1.25 -0.4,0 -2.7,-2.75 l -2.3,-2.75 q 0,-1 3.1,-4.2 1.9,-2 2.65,-1.6 1,-0.35 1,1.3 L 3.1,-4.05 2.05,-2.6 1.1,-1.45"
         fill="#6b6b6b"
         fill-rule="evenodd"
         stroke="none"
         id="path51" />
    </g>
    <g
       id="sprite13"
       transform="translate(0.8,7.7)">
      <use
         ffdec:characterId="2535"
         height="15.35"
         transform="translate(-0.8,-7.7)"
         width="1.65"
         xlink:href="#shape12"
         id="use51" />
    </g>
    <g
       id="shape12"
       transform="translate(0.8,7.7)">
      <path
         d="M 0.85,-5.75 0.8,7.05 Q 0.6,7.65 0.05,7.65 L -0.4,7.45 -0.7,7.05 -0.8,-5.75 q 0,-1.95 0.85,-1.95 0.8,-0.05 0.8,1.95"
         fill="#6b6b6b"
         fill-rule="evenodd"
         stroke="none"
         id="path52" />
    </g>
    <g
       id="sprite14"
       transform="translate(2.8,2.8)">
      <use
         ffdec:characterId="2537"
         height="5.5999999"
         transform="translate(-2.8,-2.8)"
         width="5.6500001"
         xlink:href="#shape13"
         id="use52" />
    </g>
    <g
       id="shape13"
       transform="translate(2.8,2.8)">
      <path
         d="m -2.8,1.6 q 0,-4.4 2.85,-4.4 2.8,0 2.8,4.4 L 2.55,2.35 Q 2.15,2.8 1.4,2.8 -1.75,2.8 -2.55,2.25 L -2.8,1.6 m 2.1,-1.65 -0.2,0.4 H 0.35 V -0.2 l -1.05,0.15"
         fill="#6b6b6b"
         fill-rule="evenodd"
         stroke="none"
         id="path53" />
      <path
         d="M -0.7,-0.05 0.35,-0.2 V 0.35 H -0.9 l 0.2,-0.4"
         fill="#8c8c8c"
         fill-rule="evenodd"
         stroke="none"
         id="path54" />
    </g>
    <g
       id="shape14"
       transform="translate(40.85,71.8)">
      <path
         d="m -32.3,-63.35 v 9.7 h 18.85 v 0.05 h 0.5 l -0.1,-0.05 h 9.2 v 0.05 h 0.4 L -3.5,-53.65 H 3.55 L 3.5,-53.6 h 0.35 v -0.05 h 9.2 L 13,-53.6 h 0.45 v -0.05 h 19 v -9.7 -3.7 H -32.3 v 3.7 m 70.5,-8.3 h 0.9 l 1.75,0.1 v 23.05 h -0.2 v 0.15 H 39.7 V 2.2 h 0.25 v 0.05 h 0.9 v 76.7 Q 40.5,79.7 39.3,79.75 H 39.2 39 l -0.2,0.05 h -2.35 v -0.1 q -0.8,-0.15 -1.1,-0.75 v -0.9 H -35.3 v 0.9 q -0.3,0.6 -1.05,0.75 v 0.1 H -38.7 L -39,79.75 h -0.15 -0.1 q -1.15,-0.05 -1.6,-0.8 V 2.7 h 1.2 v -50.8 h -1.2 v -23.45 l 1.75,-0.1 h 0.95 l 1.7,-0.05 h 2.3 v 0.05 h 1.85 v -0.05 h 68.8 l 1.7,0.05 m -1.7,8.3 v -3.7 h -2.25 v 3.7 9.7 h 2.25 v -9.7 m -2.25,13 h 2.25 v -1.05 h -2.25 v 1.05 m -1.8,-1.05 H -32.3 v 1.05 h 64.75 v -1.05 m 0,35.85 v -32.6 H -32.3 v 0.05 h -0.05 v 32.55 h -0.1 V 1.3 h 0.1 V 1.95 L 31.5,2.1 32.45,1.95 V 1.3 h 0.05 v -16.85 h -0.05 m 1.7,-32.6 v 50.1 h 2.3 L 36.5,-9.9 q -0.2,-1.15 0,-2.2 v -36.05 h -2.35 m -68.3,-15.2 v -3.7 h -2.3 v 3.7 9.7 h 2.3 v -9.7 m -2.3,13 h 2.3 v -1.05 h -2.3 v 1.05 m 0,2.2 v 36.05 q 0.2,1.05 0,2.2 l 0.1,11.85 h 2.25 v -50.1 h -2.35 M -34.1,10 V 4.5 h -2.25 v 0.1 0.55 0.2 0.05 h 0.05 v 4.55 l 0.1,0.15 v 0.2 h 0.15 1.65 0.3 V 10 m 1.75,-5.5 v 5.8 H 32.5 V 4.5 h -64.85 m 0,10.45 H 32.5 v -1.8 h -0.1 l -1.15,-0.1 -3.55,0.1 v 0.05 h -1.5 -52.4 l -3.1,-0.05 -1.9,-0.1 -1.15,0.1 v 1.8 m -2.2,-1.8 -1.65,-0.25 v 2.05 h 2.1 v -1.8 h -0.45 m 0.45,5.4 v -1.8 h -2.35 v 0.1 h 0.25 v 1.7 50.15 l 0.15,2.15 0.15,0.15 0.2,-1.1 v 0.65 l -0.05,0.55 v 0.2 l 0.45,-0.1 h 1.2 V 18.55 M -8.4,40.4 q 1.7,-0.15 8.65,0.1 6.9,-0.25 8.65,-0.1 0.95,0.1 0.95,0.65 L 9.8,41.5 9.4,41.75 9.8,45.45 9.9,50.7 Q 10,57.05 9.6,59.5 10,59.65 10,60.1 L 9.6,60.7 9.35,60.75 9,61.1 8.7,60.95 5.3,61.1 H -4.8 L -8.3,60.95 Q -8.4,61.1 -8.55,61.1 L -8.9,60.75 -9.15,60.7 q -0.4,-0.25 -0.4,-0.6 0,-0.45 0.35,-0.6 -0.35,-2.45 -0.2,-8.8 L -9.25,45.45 -9,41.75 -9.3,41.5 v -0.45 q 0,-0.55 0.9,-0.65 m 0.45,1.45 0.15,3.6 0.05,5.25 q 0.25,6.2 -0.1,8.7 l 3.05,0.1 H 5.3 L 8.35,59.4 Q 8,56.9 8.2,50.7 L 8.25,45.45 8.4,41.85 0.9,41.5 0.25,41.45 -0.4,41.15 v 0.35 l -7.55,0.35 M -32.35,71.2 H 32.5 V 16.75 H -32.35 V 71.2 M 36.2,10.1 36.4,9.95 V 5.4 h 0.05 V 5.35 5.15 4.6 4.5 H 34.2 v 5.55 0.25 h 0.2 1.65 0.15 v -0.2 m 0,2.8 -1.6,0.25 h -0.4 v 1.8 h 2 V 12.9 m 0,5.65 v -1.7 h 0.3 v -0.1 h -2.3 v 1.8 52.65 h 1.15 l 0.45,0.1 V 71.1 L 35.75,70.55 V 69.9 l 0.2,1.1 0.1,-0.15 0.15,-2.15 V 18.55"
         fill="#6b6b6b"
         fill-rule="evenodd"
         stroke="none"
         id="path55" />
      <path
         d="m 34.15,-48.15 h 2.35 v 36.05 q -0.2,1.05 0,2.2 L 36.45,1.95 h -2.3 v -50.1 m -70.6,0 h 2.35 v 50.1 h -2.25 l -0.1,-11.85 q 0.2,-1.15 0,-2.2 v -36.05"
         fill="#8c8c8c"
         fill-rule="evenodd"
         stroke="none"
         id="path56" />
      <path
         d="m -36.2,10.1 0.15,0.2 h -0.15 v -0.2 m 1.8,0.2 0.05,-0.05 0.25,-0.25 v 0.3 h -0.3 m 68.6,-0.25 0.15,0.2 0.05,0.05 h -0.2 v -0.25 m 1.85,0.25 0.15,-0.2 v 0.2 h -0.15"
         fill="#b8b8b8"
         fill-rule="evenodd"
         stroke="none"
         id="path57" />
      <path
         d="m -1.1,70.25 v 0.05 h -0.1 l 0.1,-0.05 m 2.25,0 0.1,0.05 h -0.1 v -0.05"
         fill="#cccccc"
         fill-rule="evenodd"
         stroke="none"
         id="path58" />
      <path
         d="m 32.45,-63.35 v 9.7 h -19 v 0.05 H 13 l 0.05,-0.05 h -9.2 v 0.05 H 3.5 l 0.05,-0.05 H -3.5 l 0.05,0.05 h -0.4 v -0.05 h -9.2 l 0.1,0.05 h -0.5 v -0.05 H -32.3 v -9.7 h 64.75 m 1.8,0 h 2.25 v 9.7 h -2.25 v -9.7 m -1.8,11.95 v 1.05 H -32.3 v -1.05 h 64.75 m 1.8,1.05 v -1.05 h 2.25 v 1.05 h -2.25 m -70.7,-13 h 2.3 v 9.7 h -2.3 v -9.7 m 0,13 v -1.05 h 2.3 v 1.05 h -2.3 m 0.25,68.9 v -1.7 h -0.25 v -0.1 h 2.35 v 1.8 h -2.1 m 1.65,-5.4 h 0.45 v 1.8 h -2.1 V 12.9 l 1.65,0.25 m 2.2,1.8 v -1.8 l 1.15,-0.1 1.9,0.1 3.1,0.05 h 52.4 1.5 v -0.05 l 3.55,-0.1 1.15,0.1 h 0.1 v 1.8 h -64.85 m 24.4,26.9 7.55,-0.35 v -0.35 l 0.65,0.3 0.65,0.05 7.5,0.35 -0.15,3.6 L 8.2,50.7 Q 8,56.9 8.35,59.4 L 5.3,59.5 H -4.8 l -3.05,-0.1 q 0.35,-2.5 0.1,-8.7 L -7.8,45.45 -7.95,41.85 M -8.4,40.4 q -0.9,0.1 -0.9,0.65 v 0.45 l 0.3,0.25 -0.25,3.7 -0.15,5.25 q -0.15,6.35 0.2,8.8 -0.35,0.15 -0.35,0.6 0,0.35 0.4,0.6 l 0.25,0.05 0.35,0.35 q 0.15,0 0.25,-0.15 l 3.5,0.15 H 5.3 L 8.7,60.95 9,61.1 9.35,60.75 9.6,60.7 10,60.1 Q 10,59.65 9.6,59.5 10,57.05 9.9,50.7 L 9.8,45.45 9.4,41.75 9.8,41.5 9.85,41.05 Q 9.85,40.5 8.9,40.4 7.15,40.25 0.25,40.5 -6.7,40.25 -8.4,40.4 m 7.3,29.85 -0.1,0.05 h 0.1 V 70.25 M -32.35,71.2 V 16.75 H 32.5 V 71.2 H -32.35 M 36.2,12.9 v 2.05 h -2 v -1.8 h 0.4 l 1.6,-0.25 m -2,5.65 v -1.8 h 2.3 v 0.1 h -0.3 v 1.7 h -2 M 1.15,70.25 v 0.05 h 0.1 l -0.1,-0.05"
         fill="#917e7e"
         fill-rule="evenodd"
         stroke="none"
         id="path59" />
      <path
         d="M 32.45,-63.35 H -32.3 v -3.7 h 64.75 v 3.7 m 1.8,0 v -3.7 h 2.25 v 3.7 h -2.25 m -70.7,0 v -3.7 h 2.3 v 3.7 h -2.3 M -36.2,10.1 -36.3,9.95 V 5.4 h -0.05 V 5.35 5.15 4.6 4.5 h 2.25 V 10 l -0.25,0.25 -0.05,0.05 h -1.65 l -0.15,-0.2 m 3.85,-5.6 H 32.5 v 5.8 H -32.35 V 4.5 m -3.85,14.05 h 2.1 V 71.2 h -1.2 l -0.45,0.1 v -0.2 l 0.05,-0.55 V 69.9 L -35.9,71 -36.05,70.85 -36.2,68.7 V 18.55 m 70.4,-8.5 V 4.5 h 2.25 V 4.6 5.15 5.35 5.4 H 36.4 v 4.55 l -0.2,0.15 -0.15,0.2 H 34.4 l -0.05,-0.05 -0.15,-0.2 m 2,8.5 V 68.7 l -0.15,2.15 -0.1,0.15 -0.2,-1.1 v 0.65 l 0.05,0.55 v 0.2 L 35.35,71.2 H 34.2 V 18.55 h 2"
         fill="#a18d8d"
         fill-rule="evenodd"
         stroke="none"
         id="path60" />
      <path
         d="M 6.05,-65.35 H 6.5 q 2.25,0.5 2.25,1.75 v 0.3 q 0,0.65 -0.55,0.65 Q 7.4,-63.8 6.9,-63.8 H 5.6 q -1.25,0.95 -1.25,2.95 0,2.4 2,2.4 0.8,-0.05 0.8,-0.25 -1.2,0 -1.2,-0.6 v -0.25 q 0,-0.95 1.8,-0.95 1.35,0 1.65,0.65 v 0.2 l -0.45,0.55 q 0.55,0.4 0.55,1.2 v 0.1 q 0,0.75 -0.75,0.75 -0.2,0 -0.65,-0.35 -0.75,0.55 -1.75,0.55 h -0.3 q -3.3,0 -3.3,-4.2 0,-3.05 1.9,-4.05 l 1.4,-0.25 m 10.55,3.55 h 0.1 q 0.85,0 1.7,1.6 l 1.3,-1.45 H 20 q 0.75,0 0.75,3.85 -0.2,0.65 -0.85,0.65 -0.65,0 -0.75,-2.05 h -0.1 q 0,0.3 -0.55,0.65 h -0.2 q -0.75,0 -1.15,-1.2 H 17.1 v 1.5 q 0,1.3 -0.6,1.3 -0.55,-0.15 -0.55,-1.7 v -1.3 q 0,-1.5 0.65,-1.85 m -4.6,2.35 h 1.3 q -0.15,-1.05 -0.45,-1.05 h -0.2 q -0.35,0.15 -0.65,1.05 m 1.05,-2.2 q 1.5,0 1.65,3.75 v 0.1 q 0,0.5 -0.45,0.75 h -0.3 q -0.3,0 -0.55,-1.4 l -0.65,0.1 H 11.7 q -0.2,1.4 -0.7,1.4 -0.7,-0.05 -0.7,-0.55 0.4,-2.65 1.25,-3.55 0.85,-0.6 1.5,-0.6 m 10.2,-0.55 h 1.4 q 0.75,0 1.1,0.55 v 0.1 q -0.15,0.45 -2.7,0.7 l 0.1,0.45 h 0.35 q 1.3,0 1.3,0.75 -0.8,0.55 -1.3,0.55 v 0.3 l 0.2,0.15 1.5,-0.15 q 0.5,0 0.85,0.55 v 0.2 q 0,0.45 -2.9,1 h -0.2 q -0.85,0 -0.85,-2.25 l -0.35,-2.15 q 0,-0.5 1.5,-0.75 m -46.8,-3.45 q 1.75,0.3 1.75,1.6 v 0.25 l -0.45,0.4 -0.95,-0.75 h -0.55 q -1.75,0 -1.75,4 0,1.25 1.1,1.45 h 0.45 q 0.5,0 2,-1.45 h 0.15 q 0.4,0.15 0.4,0.3 v 0.45 q -0.45,2.25 -2.25,2.25 l -0.55,0.1 q -2.55,0 -2.8,-3 v -0.35 q 0,-3.8 1.95,-4.8 l 1.5,-0.45 m 20.05,3.45 h 1.4 q 0.75,0 1.1,0.55 v 0.1 q -0.15,0.45 -2.7,0.7 l 0.1,0.45 h 0.35 q 1.3,0 1.3,0.75 -0.8,0.55 -1.3,0.55 v 0.3 l 0.2,0.15 1.5,-0.15 q 0.5,0 0.85,0.55 v 0.2 q 0,0.45 -2.9,1 h -0.2 q -0.85,0 -0.85,-2.25 L -5,-61.45 q 0,-0.5 1.5,-0.75 m -10.55,2.75 h 1.3 q -0.15,-1.05 -0.45,-1.05 h -0.2 l -0.65,1.05 m 1.05,-2.2 q 1.5,0 1.65,3.75 v 0.1 q 0,0.5 -0.45,0.75 h -0.3 q -0.3,0 -0.55,-1.4 l -0.65,0.1 h -1.05 q -0.2,1.4 -0.7,1.4 -0.7,-0.05 -0.7,-0.55 0.4,-2.65 1.25,-3.55 0.85,-0.6 1.5,-0.6 m -5.4,-0.55 q 1.8,0.3 1.8,1.4 v 0.65 q 0,0.55 -0.95,1.15 1.1,0.7 1.1,1.4 0,0.15 -0.35,0.35 H -17 q -0.5,0 -2.05,-1.55 h -0.2 l 0.3,1.5 -0.4,0.45 h -0.25 q -0.6,-0.15 -0.75,-3.75 0,-1.45 1.95,-1.6 m -0.95,1.5 v 0.75 l 1.5,-0.25 v -0.6 l -0.45,-0.05 h -0.85 q -0.2,0 -0.2,0.15 M -9.5,-62 q 0.85,0 1.95,2.35 0.15,0 0.55,-1.4 l 0.6,-0.75 h 0.25 l 0.2,0.85 q -0.35,3.55 -0.95,3.55 h -0.35 q -0.75,0 -1.6,-1.8 h -0.1 v 1.25 q 0,0.5 -0.45,0.7 -0.65,0 -0.65,-3.05 0.1,-1.7 0.55,-1.7"
         fill="#6b6b6b"
         fill-rule="evenodd"
         stroke="none"
         id="path61" />
    </g>
    <g
       id="sprite15"
       transform="translate(5.4,4)">
      <use
         ffdec:characterId="43"
         height="8"
         transform="translate(-5.4,-4)"
         width="10.8"
         xlink:href="#shape15"
         id="use61" />
    </g>
    <g
       id="shape15"
       transform="translate(5.4,4)">
      <path
         d="m 2.9,-0.35 q 0,-1.25 1.25,-1.25 1.25,0 1.25,1.2 0,1.3 -1.25,1.3 Q 3.6,0.9 3.25,0.5 2.9,0.15 2.9,-0.35 m 0.35,-2.3 q 0,0.55 -0.35,0.9 -0.4,0.45 -1,0.45 -1.35,0 -1.35,-1.4 0,-1.3 1.35,-1.3 1.35,0 1.35,1.35 m -3.1,1.9 h 0.2 q 2.6,0.1 2.6,2.8 l -0.3,1 Q 2.05,4 0.45,4 H 0.35 0.15 0.1 -0.45 q -1.6,0 -2.2,-0.95 l -0.3,-1 q 0,-2.8 2.8,-2.8 h 0.3 M -1.55,-4 q 1.35,0 1.35,1.35 0,0.55 -0.4,0.9 -0.4,0.45 -0.95,0.45 -1.4,0 -1.4,-1.4 0,-1.3 1.4,-1.3 m -2.6,2.4 q 1.25,0 1.25,1.25 0,0.5 -0.35,0.85 -0.35,0.4 -0.9,0.4 -1.25,0 -1.25,-1.3 0,-1.2 1.25,-1.2"
         fill="#6b6b6b"
         fill-rule="evenodd"
         stroke="none"
         id="path62" />
    </g>
    <g
       id="sprite16"
       transform="translate(660.25,0.5)">
      <use
         ffdec:characterId="68"
         height="1.5"
         transform="translate(-660.25,-0.5)"
         width="1320.3"
         xlink:href="#shape16"
         id="use62" />
    </g>
    <g
       id="shape16"
       transform="translate(660.25,0.5)">
      <path
         d="m 659.3,-0.5 0.55,0.25 0.2,0.5 -0.2,0.55 L 659.3,1 H -659.5 l -0.5,-0.2 -0.25,-0.55 0.25,-0.5 0.5,-0.25 H 659.3"
         fill="#ffff00"
         fill-opacity="0"
         fill-rule="evenodd"
         stroke="none"
         id="path63" />
    </g>
  </defs>
</svg>
