<?xml version="1.0" encoding="UTF-8" standalone="no"?>
<svg
   ffdec:objectType="frame"
   height="81.386093"
   width="78.949997"
   version="1.1"
   id="svg10"
   sodipodi:docname="1.svg"
   xmlns:inkscape="http://www.inkscape.org/namespaces/inkscape"
   xmlns:sodipodi="http://sodipodi.sourceforge.net/DTD/sodipodi-0.dtd"
   xmlns:xlink="http://www.w3.org/1999/xlink"
   xmlns="http://www.w3.org/2000/svg"
   xmlns:svg="http://www.w3.org/2000/svg"
   xmlns:ffdec="https://www.free-decompiler.com/flash">
  <sodipodi:namedview
     id="namedview10"
     pagecolor="#ffffff"
     bordercolor="#000000"
     borderopacity="0.25"
     inkscape:showpageshadow="2"
     inkscape:pageopacity="0.0"
     inkscape:pagecheckerboard="0"
     inkscape:deskcolor="#d1d1d1"
     fit-margin-top="5"
     fit-margin-left="5"
     fit-margin-right="5"
     fit-margin-bottom="5" />
  <g
     transform="translate(39.45,40.296023)"
     id="g1">
    <use
       ffdec:characterId="1767"
       height="81.400002"
       transform="translate(-39.45,-40.3)"
       width="78.949997"
       xlink:href="#shape0"
       id="use1" />
  </g>
  <defs
     id="defs10">
    <g
       id="shape0"
       transform="translate(39.45,40.3)">
      <path
         d="m -10.25,11.05 -0.5,-0.7 Q -12.35,7.8 -12.85,7.4 -14.6,5.65 -15.9,5 -17.35,4.2 -20,4 L -21.15,3.85 -21.4,3.8 -21.7,4 q -3.5,1.95 -7.55,6.85 l -1.65,2.05 -5.1,7.25 q -2.2,3.3 -2.75,3.3 -0.6,-0.05 -0.7,-0.95 v -1 q 0,-5.75 2.3,-11.1 l 0.55,-1.25 q 4.6,-9.5 14.55,-8.95 l 0.35,0.05 0.55,0.05 1.15,0.1 q 4.85,0.25 8.05,1.45 l 0.25,0.1 -1.6,-2.3 q -3.4,-4.25 -7.4,-6.45 l -0.8,-0.4 -0.2,-0.1 q -2,-1 -4.75,-1.55 L -33.8,-9.8 q -2.2,-0.15 -2.2,-1.1 0,-1.15 3.6,-2.2 l 5.25,-1.1 5.45,0.65 0.2,0.05 q 9.45,2 14.05,9.25 l 0.3,0.5 -0.85,-3.4 q -1.7,-6.2 -6.9,-13.4 -4.8,-5.95 -4.8,-6.45 0,-2.35 4.7,-0.25 4.3,1.9 8.25,5.25 l 1.9,2.75 -0.2,-1.5 q 0,-7.35 3.65,-14.8 1.35,-2.75 2.45,-3.95 l 0.15,-0.1 q 0.15,-1.75 1.75,0.9 1.85,3.05 2.5,7.2 l 0.6,4.6 0.55,5.15 -0.05,4.15 2.45,-3.15 q 3.6,-4.05 7.1,-5.3 l 2.4,-1.2 q 4.7,-2.1 4.7,0.25 0,0.5 -4.8,6.45 -2.95,4.1 -4.75,7.85 l 3.65,-3.65 q 7.75,-6.85 15.6,-7.6 l 0.85,0.65 0.05,0.7 q 0,0.75 -5.45,4 l -6.4,3.8 q -2.85,2.2 -4.85,4.45 3.4,-2.2 7.9,-3.15 l 5.65,-0.7 3.2,0.55 0.7,0.2 1.35,0.35 q 3.6,1.05 3.6,2.2 0,0.95 -2.2,1.1 l -7.35,0.95 q -2.9,0.6 -4.95,1.65 l -0.8,0.4 q -4,2.2 -7.4,6.45 l -1.6,2.3 0.25,-0.1 q 3.05,-1.15 7.5,-1.4 2,1.8 0,3.6 Q 20.7,4.3 19.4,5 q -1.3,0.65 -3.05,2.4 -0.5,0.4 -2.1,2.95 l -0.45,0.7 h 6.9 q 1.7,0.1 2.15,0.65 l 0.25,0.75 v 0.1 l 0.2,1.4 -0.15,2.6 q -0.35,2.55 -1.1,2.55 h -0.2 L 20.7,19.15 H 20.25 Q 20.15,29.55 10,38.9 H 8.9 q 0,0.65 -0.45,0.95 -0.9,0.6 -3.8,0.45 h -6.1 q -2.9,0.15 -3.8,-0.45 -0.45,-0.3 -0.45,-0.95 h -1.1 q -9.05,-8.35 -10.1,-17.45 l -0.15,-2.3 h -0.25 -0.2 l -1.15,-0.05 h -0.2 q -0.75,0 -1.1,-2.55 v -0.5 l -0.1,-2.1 0.05,-0.65 0.1,-0.75 v -0.1 l 0.25,-0.75 q 0.45,-0.55 2.15,-0.65 h 7.25 M -26.9,-11.2 q 2.75,0.65 5.2,1.7 l 0.2,0.1 q 5.85,2.6 10,7.75 4.95,6.1 5.45,11.9 h 0.45 v 0.2 l -0.2,0.6 h 0.75 L -5.4,7.8 -5.7,4.7 -6,2.4 q -0.5,-2 -1.3,-3.3 l -3.5,-5.2 -1.25,-1.45 q -1.65,-1.55 -3.55,-2.6 -2.65,-1.5 -5.9,-2.05 h -0.2 l -3.7,-0.3 -2.75,0.2 -1.75,0.4 -0.3,0.05 3.3,0.65 m 26.65,-6.35 0.6,-2 0.1,-0.25 0.85,-2.4 0.2,-0.05 0.2,-0.05 0.3,-0.15 0.1,-0.05 0.1,0.3 0.05,0.1 0.55,1.55 0.25,0.65 0.9,3.05 0.6,3.15 0.5,-1.3 0.05,-3.15 -0.3,-7 -0.4,-2.05 -1.55,-5.55 -0.75,-2.5 -0.35,-1.25 -0.2,-0.75 -0.05,-0.2 -0.4,0.9 -0.9,1.95 -0.5,1.1 q -2.45,6.15 -2.45,10.6 0,2.6 0.45,4.6 l 0.35,2.1 0.55,1.95 0.3,1.3 0.65,-3.9 0.2,-0.7 m -1.35,11.4 0.05,-1.95 -0.25,-0.8 -1.5,-3.9 -0.65,-1.35 q -4.1,-8 -11.35,-10.6 2.2,2.2 4.05,5.25 2.7,4.5 4.7,10.85 3,9.5 3,17.45 v 1.45 h 0.35 l -0.2,0.8 h 2.6 Q -1.3,9.25 -1.55,5.5 L -1.7,-1.8 -1.6,-6.15 M 16.25,-21.7 q 1.2,-1.7 2.55,-3.05 Q 9.4,-21.4 5.3,-8.9 L 5.05,-8.1 5.2,-4 v 2.2 L 5.05,5.5 Q 4.8,9.25 4.3,11.05 H 7.05 V 10.95 8.8 q 0,-7.95 3,-17.45 2.55,-8.05 6.2,-13.05 M 0.3,-7.45 l -0.05,1 0.05,1.95 q 0.25,0.05 0,0.1 l 0.15,7 0.45,4.35 0.4,3.3 H 2.25 L 2.6,6.95 3.05,2.6 3.25,-6.45 q 0,-4.65 -1.5,-10.95 -1.35,5.65 -1.45,9.95 m 32.95,-4.45 -0.7,-0.15 -0.35,-0.1 -0.55,-0.15 -2.75,-0.2 -3.9,0.3 -3.7,1.05 q -1.35,0.5 -2.55,1.2 -1.75,1 -3.2,2.4 l -1,1.15 -1.55,2.1 -1,1.55 -1.2,1.85 Q 10.15,0.15 9.7,1.7 L 9.5,2.4 8.9,7.8 8.55,11.05 H 9.5 Q 9.75,4.9 15,-1.65 19.15,-6.8 25,-9.4 q 2.5,-1.1 5.25,-1.8 l 3.2,-0.6 0.35,-0.05 -0.4,-0.05 h -0.15 m -22.3,7.65 2.2,-2.85 q 0.55,-1.35 3.3,-4.25 l 3.95,-3.85 5.2,-3.5 6.1,-3.55 0.35,-0.3 q -9.4,2.95 -14.8,8.4 l -5.95,7.85 -0.65,2.55 0.3,-0.5 m 10,20.6 -0.1,-2.4 h -0.15 -38.2 -0.15 l -0.05,2.35 -0.1,0.65 0.3,-0.05 h 38.2 l 0.3,0.05 -0.05,-0.6 M 19.2,2.5 q -1.65,0 -4,1.25 l -1.4,0.8 -1.4,3.8 Q 14.25,5.85 18.9,3.6 20.1,3.05 21.15,2.65 L 19.2,2.5 m -1.75,19.35 0.3,-0.8 Q 17.9,20 18.3,19.15 h -33.35 l 0.5,1.9 0.35,0.8 0.55,1.65 0.95,2.55 q 2.7,6.1 6.25,9.9 h 16.1 q 3.55,-3.8 6.25,-9.9 l 0.95,-2.55 0.6,-1.65 M -11.7,3.75 q -2.35,-1.25 -4,-1.25 l -1.95,0.15 2.25,0.95 q 4.65,2.25 6.5,4.75 l -1.4,-3.8 -1.4,-0.8 M -22.3,2 q -9.4,1.25 -12.85,7.35 l -0.55,1.15 q -1.25,3.05 -2.15,9.35 v 0.1 l 6.45,-9.2 q 4.25,-5.5 9,-8.7 L -22.3,2"
         fill="#6b6b6b"
         fill-rule="evenodd"
         stroke="none"
         id="path1" />
      <path
         d="M 0.3,-4.5 0.25,-6.45 0.3,-7.45 0.45,-5.3 0.3,-4.5"
         fill="#a6a6a6"
         fill-rule="evenodd"
         stroke="none"
         id="path2" />
      <path
         d="m -16.9,21.45 -0.45,-0.4 -0.25,-0.95 0.3,-0.95 h 0.25 l 0.15,2.3"
         fill="#8e8e8e"
         fill-rule="evenodd"
         stroke="none"
         id="path3" />
      <path
         d="m -19.95,16.05 -0.35,-0.3 q -0.4,-0.45 -0.4,-1.1 0,-0.95 0.7,-1.35 l -0.05,0.65 0.1,2.1"
         fill="#b8b8b8"
         fill-rule="evenodd"
         stroke="none"
         id="path4" />
      <path
         d="m -5.8,11.05 0.2,-0.6 v -0.2 h -0.45 q -0.5,-5.8 -5.45,-11.9 -4.15,-5.15 -10,-7.75 l -0.2,-0.1 q -2.45,-1.05 -5.2,-1.7 l 5.2,0.7 q 6.05,1.35 9.45,5 1.75,1.85 3.55,5.35 l 2.85,4.9 0.15,-0.05 0.3,3.1 0.35,3.25 H -5.8 m 6,-45.65 -1.1,3.5 q -0.6,2.25 -0.6,7.55 l 0.5,1.75 v 0.2 l 0.15,2.2 q 0,1.15 0.6,1.85 l -0.2,0.7 -0.65,3.9 -0.3,-1.3 -0.55,-1.95 -0.35,-2.1 q -0.45,-2 -0.45,-4.6 0,-4.45 2.45,-10.6 l 0.5,-1.1 m 2.85,14.7 Q 3.5,-20.65 4,-23 l 0.5,-3 -0.1,-0.45 v -0.2 -0.55 l 0.4,2.05 0.3,7 -0.05,3.15 -0.5,1.3 -0.6,-3.15 -0.9,-3.05 m -14.3,0.4 q 3,2.65 4.55,4.75 l 3.5,6 1.6,2.6 -0.1,4.35 0.15,7.3 q 0.25,3.75 0.75,5.55 h -2.6 l 0.2,-0.8 H -3.55 V 8.8 q 0,-7.95 -3,-17.45 -2,-6.35 -4.7,-10.85 M 5.2,-4 q 1.25,-1.6 2.55,-4.95 1.4,-3.65 2.6,-5.35 2.25,-3.15 5.9,-7.4 -3.65,5 -6.2,13.05 -3,9.5 -3,17.45 v 2.15 0.1 H 4.3 Q 4.8,9.25 5.05,5.5 L 5.2,-1.8 V -4 M 0.3,-4.5 0.45,-5.3 0.3,-7.45 q 0.1,-4.3 1.45,-9.95 1.5,6.3 1.5,10.95 L 3.05,2.6 2.6,6.95 2.25,10.25 H 1.3 L 0.9,6.95 0.45,2.6 0.3,-4.4 q 0.25,-0.05 0,-0.1 m 29.95,-6.7 Q 27.5,-10.5 25,-9.4 19.15,-6.8 15,-1.65 9.75,4.9 9.5,11.05 H 8.55 L 8.9,7.8 9.5,2.4 9.7,1.7 9.9,1.8 q 2.45,-5.05 7.85,-8.6 2.7,-1.8 5.95,-3 l 6.55,-1.4 m -19.3,6.95 -0.3,0.5 0.65,-2.55 5.95,-7.85 q 5.4,-5.45 14.8,-8.4 l -0.35,0.3 -6.1,3.55 -5.2,3.5 -3.95,3.85 q -2.75,2.9 -3.3,4.25 l -2.2,2.85 M 19.2,2.5 21.15,2.65 Q 20.1,3.05 18.9,3.6 14.25,5.85 12.4,8.35 l 1.4,-3.8 1.4,-0.8 q 2.35,-1.25 4,-1.25 m -30.9,1.25 1.4,0.8 1.4,3.8 Q -10.75,5.85 -15.4,3.6 L -17.65,2.65 -15.7,2.5 q 1.65,0 4,1.25"
         fill="#959f93"
         fill-rule="evenodd"
         stroke="none"
         id="path5" />
      <path
         d="m -5.7,4.7 -0.15,0.05 -2.85,-4.9 q -1.8,-3.5 -3.55,-5.35 -3.4,-3.65 -9.45,-5 l -5.2,-0.7 -3.3,-0.65 0.3,-0.05 1.75,-0.4 2.75,-0.2 3.7,0.3 h 0.2 q 3.25,0.55 5.9,2.05 l 1.5,1.1 3.3,2.95 3.5,5.2 q 0.8,1.3 1.3,3.3 l 0.3,2.3 m 5.45,-22.25 q -0.6,-0.7 -0.6,-1.85 L -1,-21.6 v -0.2 l -0.5,-1.75 q 0,-5.3 0.6,-7.55 l 1.1,-3.5 0.9,-1.95 0.45,-0.7 0.2,0.75 0.35,1.25 0.75,2.5 1.55,5.55 v 0.55 0.2 L 4.5,-26 4,-23 q -0.5,2.35 -0.95,3.1 L 2.8,-20.55 2.25,-22.1 2.2,-22.2 2.1,-22.5 2,-22.45 l -0.3,0.15 -0.2,0.05 -0.2,0.05 -0.85,2.4 -0.1,0.25 -0.6,2 m -11,-1.95 q -1.85,-3.05 -4.05,-5.25 7.25,2.6 11.35,10.6 l 0.65,1.35 1.5,3.9 0.25,0.8 -0.05,1.95 -1.6,-2.6 -3.5,-6 q -1.55,-2.1 -4.55,-4.75 m 27.5,-2.2 q -3.65,4.25 -5.9,7.4 -1.2,1.7 -2.6,5.35 Q 6.45,-5.6 5.2,-4 L 5.05,-8.1 5.3,-8.9 q 4.1,-12.5 13.5,-15.85 -1.35,1.35 -2.55,3.05 M 9.7,1.7 q 0.45,-1.55 1.1,-2.6 l 1.2,-1.85 1,-1.55 1.55,-2.1 1,-1.15 q 1.45,-1.4 3.2,-2.4 1.2,-0.7 2.55,-1.2 l 3.7,-1.05 3.9,-0.3 2.75,0.2 0.55,0.15 0.35,0.1 0.7,0.15 0.2,0.1 -3.2,0.6 -6.55,1.4 q -3.25,1.2 -5.95,3 -5.4,3.55 -7.85,8.6 L 9.7,1.7 m -32,0.3 -0.1,0.05 q -4.75,3.2 -9,8.7 l -6.45,9.2 v -0.1 q 0.9,-6.3 2.15,-9.35 l 0.55,-1.15 Q -31.7,3.25 -22.3,2"
         fill="#aab5a8"
         fill-rule="evenodd"
         stroke="none"
         id="path6" />
      <path
         d="m -17.7,16.3 0.05,-2.35 h 0.15 38.2 0.15 l 0.1,2.4 -38.65,-0.05"
         fill="#ab9590"
         fill-rule="evenodd"
         stroke="none"
         id="path7" />
      <path
         d="M 20.95,16.35 21,16.95 20.7,16.9 h -38.2 l -0.3,0.05 0.1,-0.65 38.65,0.05 m -3.5,5.5 -0.6,1.65 -0.95,2.55 q -2.7,6.1 -6.25,9.9 h -16.1 q -3.55,-3.8 -6.25,-9.9 l -0.95,-2.55 -0.55,-1.65 h 31.65"
         fill="#9a8581"
         fill-rule="evenodd"
         stroke="none"
         id="path8" />
      <path
         d="m -14.2,21.85 -0.35,-0.8 -0.5,-1.9 H 18.3 q -0.4,0.85 -0.55,1.9 l -0.3,0.8 H -14.2"
         fill="#8e7b77"
         fill-rule="evenodd"
         stroke="none"
         id="path9" />
      <path
         d="m 13.8,11.05 h 6.9 q 1.7,0.1 2.15,0.65 l 0.25,0.75 v 0.1 l 0.2,1.4 -0.15,2.6 q -0.35,2.55 -1.1,2.55 h -0.2 L 20.7,19.15 H 20.25 Q 20.15,29.55 10,38.9 H 8.9 q 0,0.65 -0.45,0.95 -0.9,0.6 -3.8,0.45 h -6.1 q -2.9,0.15 -3.8,-0.45 -0.45,-0.3 -0.45,-0.95 h -1.1 q -9.05,-8.35 -10.1,-17.45 l -0.15,-2.3 h -0.25 -0.2 l -1.15,-0.05 h -0.2 q -0.75,0 -1.1,-2.55 v -0.5 l -0.1,-2.1 0.05,-0.65 0.1,-0.75 v -0.1 l 0.25,-0.75 q 0.45,-0.55 2.15,-0.65 h 7.25 m 4.45,0 h 0.75 m 4.25,0 h -2.6 m 7.7,0 h 2.75 m 2.45,0 H 8.55"
         fill="none"
         stroke="#6b6b6b"
         stroke-linecap="round"
         stroke-linejoin="round"
         stroke-width="1.5"
         id="path10" />
    </g>
  </defs>
</svg>
