<?xml version="1.0" encoding="UTF-8" standalone="no"?>
<svg
   ffdec:objectType="frame"
   height="38.168056"
   width="42.42857"
   version="1.1"
   id="svg7"
   sodipodi:docname="1.svg"
   xmlns:inkscape="http://www.inkscape.org/namespaces/inkscape"
   xmlns:sodipodi="http://sodipodi.sourceforge.net/DTD/sodipodi-0.dtd"
   xmlns:xlink="http://www.w3.org/1999/xlink"
   xmlns="http://www.w3.org/2000/svg"
   xmlns:svg="http://www.w3.org/2000/svg"
   xmlns:ffdec="https://www.free-decompiler.com/flash">
  <sodipodi:namedview
     id="namedview7"
     pagecolor="#ffffff"
     bordercolor="#000000"
     borderopacity="0.25"
     inkscape:showpageshadow="2"
     inkscape:pageopacity="0.0"
     inkscape:pagecheckerboard="0"
     inkscape:deskcolor="#d1d1d1"
     fit-margin-top="5"
     fit-margin-left="5"
     fit-margin-right="5"
     fit-margin-bottom="5" />
  <g
     transform="translate(21.228571,19.118056)"
     id="g1">
    <use
       ffdec:characterId="4188"
       height="38.150002"
       transform="translate(-21.25,-19.1)"
       width="42.450001"
       xlink:href="#shape0"
       id="use1" />
  </g>
  <defs
     id="defs7">
    <g
       id="shape0"
       transform="translate(21.25,19.1)">
      <path
         d="M 16.45,-13.35 16.25,-13.6 16,-13.85 q -2.15,-2.1 -6.4,-2.1 -4,0 -5,2.4 l -0.2,0.45 -0.15,0.9 q 0.55,0.55 0.6,1.4 v 0.15 1.05 q 1.25,0.05 3.2,1.1 3.75,2 4.9,4.1 l 1.6,-1 q 3.1,-2.25 3.1,-5.1 0,-1.5 -1.2,-2.85 M 17.6,-0.1 q 2.1,1.1 2.1,2.85 0,1.25 -0.65,2.2 L 18,6 18.45,7.15 q 2.75,0.2 2.75,3.2 0,0.9 -0.8,1.4 l 0.15,1.9 q 0,1.5 -0.2,1.75 l -1.8,1.45 q -0.45,1.75 -1.65,1.75 -0.85,0 -0.85,-1 v -0.15 q -0.6,0.9 -1.45,0.9 l -0.7,-0.2 -1,0.15 -0.75,-0.1 q -0.1,0.1 -0.1,-0.15 -0.8,0.4 -1.65,0.4 -0.85,0 -1.2,-0.5 l -0.25,-0.6 1.85,-1.4 q 1.95,-1.5 2.6,-2.9 0.55,-1.25 1.1,-1.85 L 14.45,10.85 Q 14.45,8.3 16.1,7.5 L 15.55,6.45 13.55,6 v 0.05 q 0,3.75 -2,7.2 -3.4,5.8 -11.15,5.8 -7.75,0 -11.1,-5.25 l -1.05,-2.05 h -0.7 q -1.2,0 -2.05,-1 l -0.6,-1 0.05,-0.3 -1.8,0.15 -2.45,-0.25 q -1.3,-0.4 -1.7,-1.25 -0.4,-0.75 -0.1,-1.55 0,-1.95 1.8,-2.95 0.9,-0.5 2.3,-0.75 l -0.5,-1 q 0,-3.7 3.9,-3.7 l 1.5,0.1 -0.15,-1.9 q 0,-5.85 5.8,-6.35 L -3,-9.7 q 0.2,-3.25 3.95,-3.3 h 0.4 v -0.1 q 0,-3.2 3,-4.85 2.7,-1.45 6.55,-1.1 3.9,0.35 6.55,2.35 3,2.2 3,5.45 0,2.55 -1.05,5 -1.7,3.9 -5.4,4.35 l 1.1,1.15 1.9,0.35 0.1,0.05 h 0.05 L 17.6,-0.1 M 1.5,-10.7 1.05,-10.75 q -1.55,0 -1.7,1.15 l -0.05,0.35 0.35,1 q 0.55,0.8 1.45,0.8 1.25,0 1.6,-1.1 l 0.1,-0.9 q 0,-1.1 -1.3,-1.25 M -8.7,2.05 q -0.85,2.3 -0.85,5.4 0,2.8 1.9,5.05 3,3.55 9.7,3.55 4.7,0 7.1,-4.7 1.5,-2.95 1.5,-5.25 0,-4.15 -3.15,-7.05 L 6.9,-1.45 6.75,-1.6 q -2.7,-2.1 -6.2,-2.35 -4.2,-0.3 -6.95,2.35 -1.05,1 -1.75,2.4 L -8.7,2.05 m 18.15,-5.35 1.7,1.85 0.05,-0.35 q 0,-1.05 -2,-2.75 Q 7.15,-6.35 5.05,-7 l -0.1,0.85 Q 7.4,-5.2 9.45,-3.3 M 15.1,2.75 14.6,2.8 14.2,2.65 14,3.3 q 0,0.45 0.4,0.65 l 2.05,0.25 q 1.05,0 1.2,-2.35 L 17.25,1.6 16.1,1.25 h -0.05 v 0.2 q 0,0.45 -0.4,0.85 L 15.1,2.75 m 1.5,6.5 -0.05,0.6 1.9,0.3 0.9,-0.2 L 18.9,9.3 16.6,9.25 M -2.75,-7.2 -5.05,-7.5 q -2.3,0 -3.55,1.75 -0.85,1.2 -0.85,2.1 l 0.05,0.7 0.9,-1 q 2.45,-2.4 5.85,-2.95 l -0.1,-0.3 m -9,8.65 -0.85,-0.2 -1.1,-0.4 q -0.8,0.3 -0.75,0.5 L -11.9,2 -11.75,1.45 m -2.5,3.65 1.75,0.55 0.05,-1 h -1 l -0.8,0.45 m -1.8,-0.45 Q -18.6,4.9 -18.6,6.3 -18.7,6.8 -18,7.05 l 1.95,-0.15 -0.05,-0.05 -0.3,-1 q 0,-0.65 0.35,-1.2 m 3.6,4.6 -0.1,-0.6 -0.35,0.45 0.45,0.15"
         fill="#6b6b6b"
         fill-rule="evenodd"
         stroke="none"
         id="path1" />
      <path
         d="m 8.9,-10.1 -0.5,0.2 -0.65,-0.6 q 0,-0.85 1.1,-0.55 L 9,-10.5 8.9,-10.1 M 6.7,6.1 q 0,-1 1.1,-0.6 L 8,6.1 7.85,6.45 7.35,6.65 6.7,6.1 M 2,13.45 1.95,13.05 q 0,-0.9 0.95,-0.9 0.95,0 0.95,0.95 l -0.35,0.75 -0.6,0.2 q -0.7,0 -0.9,-0.6"
         fill="#777777"
         fill-rule="evenodd"
         stroke="none"
         id="path2" />
      <path
         d="m -0.65,-9.6 q 0.15,-1.15 1.7,-1.15 l 0.45,0.05 0.05,0.4 q 0,0.55 -0.5,0.85 l -0.7,0.2 q -0.75,0 -1,-0.35 m 17.9,11.2 q 0,1.35 -1.3,1.35 L 15.1,2.75 15.65,2.3 q 0.4,-0.4 0.4,-0.85 v -0.2 h 0.05 l 1.15,0.35"
         fill="#ffffff"
         fill-rule="evenodd"
         stroke="none"
         id="path3" />
      <path
         d="m 17.1,-0.35 0.5,0.25 -0.45,-0.25 H 17.1 m -31.35,5.45 0.8,-0.45 h 1 l -0.05,1 -1.75,-0.55 M -11.75,1.45 -11.9,2 -14.45,1.35 q -0.05,-0.2 0.75,-0.5 l 1.1,0.4 0.85,0.2 m -0.7,7.8 -0.45,-0.15 0.35,-0.45 0.1,0.6"
         fill="#858585"
         fill-rule="evenodd"
         stroke="none"
         id="path4" />
      <path
         d="m 4.85,-10.8 q 1.25,1.15 3.5,1.4 L 11,-9.15 q 3.7,0 4.9,-1.8 0.55,-0.8 0.55,-2.35 v -0.05 q 1.2,1.35 1.2,2.85 0,2.85 -3.1,5.1 l -1.6,1 Q 11.8,-6.5 8.05,-8.5 6.1,-9.55 4.85,-9.6 v -1.05 -0.15 m 2.05,9.35 0.6,0.5 q 3.15,2.9 3.15,7.05 0,2.3 -1.5,5.25 -2.4,4.7 -7.1,4.7 -6.7,0 -9.7,-3.55 -1.9,-2.25 -1.9,-5.05 0,-3.1 0.85,-5.4 V 2.1 q 0,1.4 1.35,2.75 2.15,2.1 6.75,2.1 4.45,0 6.45,-3.2 Q 7,1.9 7,0 L 6.9,-1.45 M 2,13.45 q 0.2,0.6 0.9,0.6 l 0.6,-0.2 0.35,-0.75 q 0,-0.95 -0.95,-0.95 -0.95,0 -0.95,0.9 L 2,13.45 M 6.7,6.1 7.35,6.65 7.85,6.45 8,6.1 7.8,5.5 Q 6.7,5.1 6.7,6.1"
         fill="#b0ac9d"
         fill-rule="evenodd"
         stroke="none"
         id="path5" />
      <path
         d="m 4.85,-10.8 q -0.05,-0.85 -0.6,-1.4 l 0.15,-0.9 0.2,-0.45 q 1,-2.4 5,-2.4 4.25,0 6.4,2.1 l 0.25,0.25 0.2,0.25 v 0.05 q 0,1.55 -0.55,2.35 -1.2,1.8 -4.9,1.8 L 8.35,-9.4 Q 6.1,-9.65 4.85,-10.8 m 4.05,0.7 0.1,-0.4 -0.15,-0.55 q -1.1,-0.3 -1.1,0.55 l 0.65,0.6 0.5,-0.2 M 6.9,-1.45 7,0 q 0,1.9 -1.15,3.75 -2,3.2 -6.45,3.2 -4.6,0 -6.75,-2.1 Q -8.7,3.5 -8.7,2.1 V 2.05 L -8.15,0.8 q 0.7,-1.4 1.75,-2.4 2.75,-2.65 6.95,-2.35 3.5,0.25 6.2,2.35 l 0.15,0.15"
         fill="#cec9b8"
         fill-rule="evenodd"
         stroke="none"
         id="path6" />
      <path
         d="m 1.5,-10.7 q 1.3,0.15 1.3,1.25 l -0.1,0.9 q -0.35,1.1 -1.6,1.1 -0.9,0 -1.45,-0.8 l -0.35,-1 0.05,-0.35 q 0.25,0.35 1,0.35 l 0.7,-0.2 q 0.5,-0.3 0.5,-0.85 L 1.5,-10.7 m 15.75,12.3 0.4,0.25 Q 17.5,4.2 16.45,4.2 L 14.4,3.95 Q 14,3.75 14,3.3 l 0.2,-0.65 0.4,0.15 0.5,-0.05 0.85,0.2 q 1.3,0 1.3,-1.35 M 9.45,-3.3 Q 7.4,-5.2 4.95,-6.15 L 5.05,-7 q 2.1,0.65 4.15,2.45 2,1.7 2,2.75 l -0.05,0.35 -1.7,-1.85 m 7.15,12.55 2.3,0.05 0.45,0.65 -0.9,0.2 -1.9,-0.3 0.05,-0.6"
         fill="#ab9393"
         fill-rule="evenodd"
         stroke="none"
         id="path7" />
    </g>
  </defs>
</svg>
