<?xml version="1.0" encoding="UTF-8" standalone="no"?>
<svg
   ffdec:objectType="frame"
   height="70.349998"
   width="214.60001"
   version="1.1"
   id="svg23"
   sodipodi:docname="2.svg"
   xmlns:inkscape="http://www.inkscape.org/namespaces/inkscape"
   xmlns:sodipodi="http://sodipodi.sourceforge.net/DTD/sodipodi-0.dtd"
   xmlns:xlink="http://www.w3.org/1999/xlink"
   xmlns="http://www.w3.org/2000/svg"
   xmlns:svg="http://www.w3.org/2000/svg"
   xmlns:ffdec="https://www.free-decompiler.com/flash">
  <sodipodi:namedview
     id="namedview23"
     pagecolor="#ffffff"
     bordercolor="#000000"
     borderopacity="0.25"
     inkscape:showpageshadow="2"
     inkscape:pageopacity="0.0"
     inkscape:pagecheckerboard="0"
     inkscape:deskcolor="#d1d1d1"
     fit-margin-top="5"
     fit-margin-left="5"
     fit-margin-right="5"
     fit-margin-bottom="5" />
  <g
     transform="translate(107,35.2)"
     id="g14">
    <use
       ffdec:characterId="1377"
       height="70.400002"
       transform="translate(-107,-35.25)"
       width="214.60001"
       xlink:href="#shape0"
       id="use1" />
    <use
       ffdec:characterId="44"
       height="8"
       transform="matrix(0.5922,-0.5921,0.5921,0.5922,16.8337,-15.1711)"
       width="10.8"
       xlink:href="#sprite0"
       id="use2" />
    <use
       ffdec:characterId="1379"
       height="14.75"
       transform="translate(-90.35,-21.05)"
       width="16.1"
       xlink:href="#sprite1"
       id="use3" />
    <use
       ffdec:characterId="1379"
       height="14.75"
       transform="matrix(0.7702,0,0,0.7702,-91.7,-5.2609)"
       width="16.1"
       xlink:href="#sprite1"
       id="use4" />
    <use
       ffdec:characterId="1379"
       height="14.75"
       transform="translate(-90.65,7.4)"
       width="16.1"
       xlink:href="#sprite1"
       id="use5" />
    <use
       ffdec:characterId="1379"
       height="14.75"
       transform="matrix(-1,0,0,1,-47.15,-21.05)"
       width="16.1"
       xlink:href="#sprite1"
       id="use6" />
    <use
       ffdec:characterId="1379"
       height="14.75"
       transform="matrix(-0.7702,0,0,0.7702,-45.8,-5.2609)"
       width="16.1"
       xlink:href="#sprite1"
       id="use7" />
    <use
       ffdec:characterId="1379"
       height="14.75"
       transform="matrix(-1,0,0,1,-46.85,7.4)"
       width="16.1"
       xlink:href="#sprite1"
       id="use8" />
    <use
       ffdec:characterId="1379"
       height="14.75"
       transform="translate(47.95,-21.05)"
       width="16.1"
       xlink:href="#sprite1"
       id="use9" />
    <use
       ffdec:characterId="1379"
       height="14.75"
       transform="matrix(0.7702,0,0,0.7702,46.6,-5.2609)"
       width="16.1"
       xlink:href="#sprite1"
       id="use10" />
    <use
       ffdec:characterId="1379"
       height="14.75"
       transform="translate(47.65,7.4)"
       width="16.1"
       xlink:href="#sprite1"
       id="use11" />
    <use
       ffdec:characterId="1379"
       height="14.75"
       transform="matrix(-1,0,0,1,91.3,-21.05)"
       width="16.1"
       xlink:href="#sprite1"
       id="use12" />
    <use
       ffdec:characterId="1379"
       height="14.75"
       transform="matrix(-0.7702,0,0,0.7702,92.65,-5.2609)"
       width="16.1"
       xlink:href="#sprite1"
       id="use13" />
    <use
       ffdec:characterId="1379"
       height="14.75"
       transform="matrix(-1,0,0,1,91.6,7.4)"
       width="16.1"
       xlink:href="#sprite1"
       id="use14" />
  </g>
  <defs
     id="defs23">
    <g
       id="shape0"
       transform="translate(107,35.25)">
      <path
         d="m 28.2,-25.3 0.25,1.3 v 3.25 q 0.85,0.3 0.95,3.95 v 0.75 l 0.15,1.3 -0.15,0.85 q -0.1,1.5 -0.55,1.95 -0.2,0.15 -0.4,0.2 v 0.25 h 0.8 l 0.15,0.5 v 0.1 l -0.3,0.65 q -0.35,0.45 -0.9,0.5 h -52.65 -1.05 l -0.4,-0.05 -1.55,0.2 q -1.15,0 -1.4,-0.55 l -0.05,-0.25 -0.25,-0.6 0.15,-0.5 h 0.15 v -0.25 q -0.8,-0.1 -0.95,-2.15 v -2.15 q 0,-4.35 0.95,-4.7 V -24 l 0.25,-1.3 -0.1,-0.4 0.25,-0.65 q 0.35,-0.45 0.95,-0.5 h 6.65 v -0.05 l 1.25,0.05 h 0.4 4.95 4.95 0.45 l 1.2,-0.05 v 0.05 H -1 l 0.8,0.35 0.8,-0.35 h 6.65 v -0.05 l 1.2,0.05 h 0.45 4.95 4.95 0.4 l 1.25,-0.05 v 0.05 h 6.65 q 0.6,0.05 0.95,0.5 l 0.25,0.65 -0.1,0.4 m 9.45,-9.85 h 64.2 l 5.05,0.3 q 0.6,0.3 0.45,0.6 l -0.1,0.4 0.25,1.5 -0.05,2.15 0.15,0.4 -0.35,0.8 q -0.55,0.55 -1.4,0.4 h -0.7 v 23.25 3.55 l 0.35,29.75 v 3.9 l -0.25,1.9 0.1,0.4 -0.25,0.8 -0.25,0.2 h -7.1 L 97.35,34.5 96.2,33.2 q -1.75,-1.95 -4.3,-1.95 -1.25,0 -2.65,1.75 L 87.6,35.15 H 86.25 L 85.85,34.5 84.7,33.2 q -1.75,-1.95 -4.3,-1.95 -1.25,0 -2.65,1.75 l -1.5,2.15 H 75 L 74.6,34.5 73.45,33.2 q -1.6,-1.8 -3.85,-1.95 h -0.15 q -2.35,0.1 -4,1.95 l -1.15,1.3 -0.4,0.65 H 62.65 L 61.15,33 q -1.4,-1.75 -2.65,-1.75 -2.55,0 -4.3,1.95 l -1.15,1.3 -0.4,0.65 h -1.3 L 49.65,33 q -1.4,-1.75 -2.65,-1.75 -2.55,0 -4.3,1.95 l -1.15,1.3 -0.4,0.65 h -7.1 l -0.25,-0.2 q -0.25,-0.25 -0.25,-0.8 l 0.1,-0.4 q -0.2,-0.8 -0.25,-1.9 -0.15,-1.9 0,-3.9 L 33.75,-1.8 v -3.05 l -1.35,0.15 -3,0.05 -1.25,0.05 v 0.05 h -1.35 -35.3 -1.15 -6.5 l -17,-0.05 v 2.8 l 0.35,29.75 q 0.15,2 0,3.9 -0.05,1.1 -0.25,1.9 l 0.1,0.4 q 0,0.55 -0.25,0.8 l -0.25,0.2 h -7.1 l -0.4,-0.65 -1.15,-1.3 q -1.75,-1.95 -4.3,-1.95 -1.25,0 -2.65,1.75 l -1.65,2.15 h -1.35 l -0.4,-0.65 -1.15,-1.3 q -1.75,-1.95 -4.3,-1.95 -1.25,0 -2.65,1.75 l -1.5,2.15 h -1.25 l -0.4,-0.65 -1.15,-1.3 q -1.65,-1.85 -4,-1.95 -2.35,0.1 -4,1.95 l -1.15,1.3 -0.4,0.65 h -1.25 L -77.15,33 q -1.4,-1.75 -2.65,-1.75 -2.55,0 -4.3,1.95 l -1.15,1.3 -0.4,0.65 h -1.3 L -88.65,33 q -1.4,-1.75 -2.65,-1.75 -2.55,0 -4.3,1.95 l -1.15,1.3 -0.4,0.65 h -7.1 l -0.25,-0.2 -0.25,-0.8 0.1,-0.4 -0.25,-1.9 v -3.9 l 0.35,-29.75 V -5.35 -28.6 h -0.7 q -0.85,0.15 -1.4,-0.4 -0.35,-0.4 -0.35,-0.8 l 0.15,-0.4 -0.05,-2.15 0.25,-1.5 -0.1,-0.4 q -0.15,-0.3 0.45,-0.6 l 5.05,-0.3 h 63.2 l 0.9,-0.05 h 1.65 l 2.3,0.05 h 67.25 v -0.05 h 0.25 1.35 l 2,0.05 m 67.75,3.65 v -0.25 -0.7 l 0.05,-0.8 h -210.25 -0.05 l 0.05,0.35 v 0.45 l 0.05,0.55 -0.05,0.9 h 210.2 v -0.5 m -138.55,6.05 v 18.2 h 17 44.3 l 1.2,0.05 h 0.05 l 3,0.1 1.35,0.1 v -20.4 h 0.3 v -1.2 L 4,-28.65 l -4.2,-0.2 -4.2,0.2 -28.75,0.05 h -0.05 v 0.75 h 0.05 v 2.4 m 71.6,-3.15 h -2.1 l -0.05,0.1 v 23.25 l 0.05,3.45 0.35,29.7 v 4.15 l -0.05,0.6 h 0.9 l 0.4,0.05 1.7,0.15 0.4,-1.15 q 0.5,-0.9 1.55,-1.6 1.9,-1.2 4.6,-1.25 2.7,-0.05 4.55,1.05 l 1.05,0.85 0.25,0.3 q 0.4,-0.55 1.05,-0.95 1.9,-1.2 4.6,-1.25 2.7,-0.05 4.55,1.05 0.7,0.45 1.2,1 l 0.9,-0.8 q 1.9,-1.2 4.6,-1.25 h 0.5 0.05 0.25 0.05 0.15 q 2.7,0.05 4.6,1.25 0.55,0.35 0.9,0.8 l 1.2,-1 q 1.85,-1.1 4.55,-1.05 2.7,0.05 4.6,1.25 l 1.05,0.95 0.25,-0.3 1.05,-0.85 q 1.85,-1.1 4.55,-1.05 2.7,0.05 4.6,1.25 l 1.55,1.6 0.4,1.15 2.1,-0.2 h 0.9 l -0.05,-0.6 q -0.15,-1.85 0,-4.15 l 0.35,-29.7 0.05,-3.45 V -28.6 l -29.1,-0.05 -3.7,-0.1 -0.3,-0.05 v -0.05 l -4.1,0.2 -26.95,0.05 m -36.85,4.35 -0.05,12 H 3.7 3.8 v -0.05 l 22.35,0.05 -0.05,-10.3 v -1.7 l 0.1,-0.45 -0.1,0.05 -5,0.2 H 6.6 l -3.3,-0.1 -0.75,-0.05 -0.9,-0.05 -0.15,-0.05 0.1,0.45 m 39.3,14.6 V -10 l 0.05,-0.3 v -1.45 q -0.8,-0.1 -0.95,-2.15 v -2.15 q 0,-4.35 0.95,-4.7 V -24 l 0.25,-1.3 -0.1,-0.4 0.25,-0.65 q 0.35,-0.45 0.95,-0.5 h 6.65 v -0.05 l 1.25,0.05 h 0.4 4.95 4.95 0.45 l 1.2,-0.05 v 0.05 h 6.65 l 0.7,0.25 v -0.05 l 0.3,-0.1 0.3,-0.1 h 6.65 v -0.05 l 1.2,0.05 h 0.45 4.95 4.95 0.4 l 1.25,-0.05 v 0.05 h 6.65 q 0.6,0.05 0.95,0.5 l 0.25,0.65 -0.1,0.4 0.25,1.3 v 3.25 q 0.95,0.35 0.95,4.7 v 2.15 q -0.15,2.05 -0.95,2.15 v 1.45 L 98,-10 v 0.35 L 97.95,-9.7 V 8.45 l -0.1,2.6 v 1.65 q 0.7,0.05 0.8,2.2 l -0.15,2.95 v 2.6 q -0.15,1.75 -0.65,2.3 v 3.4 l -1.05,0.9 h -0.05 l -0.4,0.2 -15.6,-0.05 h -4 l -6.4,0.05 -0.4,-0.2 H 69.9 69.8 l -0.3,-0.2 v -0.1 l -0.5,0.3 h -0.05 l -0.4,0.2 -6.4,-0.05 h -4 l -15.6,0.05 -0.4,-0.2 H 42.1 q -0.3,0 -1.05,-0.9 v -3.4 q -0.5,-0.55 -0.65,-2.3 v -2.6 L 40.25,14.9 q 0.05,-1.05 0.25,-1.55 0.2,-0.6 0.55,-0.65 V 11.05 9.85 L 41,9.35 40.95,8.45 V -9.65 -9.7 l -0.05,0.05 m 5.55,32.15 -0.2,-0.4 Q 45.8,20.7 45.8,14.5 V 14.4 9.65 9 8.85 L 45.95,1.3 v -2.55 l 0.05,-2.9 0.25,-16.1 H 46.2 l -0.05,-0.1 -0.1,-0.45 v -0.25 l 0.7,-0.15 0.25,-0.2 0.25,0.2 h 2.5 l 13.05,0.05 0.1,0.05 0.1,-0.1 0.45,-0.1 0.2,0.15 0.1,0.25 0.25,1.4 0.05,0.5 q 0.25,3.1 0.15,10.55 l -0.05,4.4 -0.05,2.6 L 64,1.8 v 0.9 0.05 l -0.15,5.9 -0.05,5.05 -0.05,7.7 v 0.05 h 0.05 l 0.05,0.1 0.1,0.45 v 0.25 L 63.9,22.3 63.2,22.4 H 60.25 L 47.2,22.35 H 47.1 L 47,22.4 46.55,22.55 46.45,22.5 m 19.4,-15.35 0.4,0.2 q 0.8,0.85 0.8,6.15 l -0.1,3.7 q -0.25,3.35 -1.15,3.35 -0.2,0 -0.35,-0.2 Q 64.9,19.75 64.7,17.1 L 64.65,13.55 V 13.3 Q 64.7,7.65 65.7,7.2 l 0.15,-0.05 m 1.95,-31.85 -3.1,0.2 -1.9,0.05 H 48.3 l -2.95,-0.05 -1.15,-0.1 h -0.35 l -0.65,-0.1 0.05,0.2 0.05,0.25 v 1.75 0.3 l -0.15,46.35 v 1.1 L 49,25.3 h 2.45 8.05 1.35 l 7.1,-0.05 -0.15,-47.9 v -1.6 l 0.1,-0.45 h -0.1 m 8.1,3.5 0.1,0.1 0.1,-0.05 13.05,-0.05 h 2.5 l 0.25,-0.2 0.25,0.2 0.7,0.15 v 0.1 0.15 l -0.1,0.45 -0.05,0.1 h -0.05 l 0.3,17.45 V -1 l 0.05,2.15 0.1,8.5 0.05,2.05 q 0.05,8.55 -0.45,10.35 l -0.05,0.05 -0.2,0.4 -0.1,0.05 L 91.9,22.4 91.8,22.35 H 91.7 L 78.65,22.4 H 75.7 L 75.1,22.3 74.95,22.25 V 22 l 0.1,-0.45 0.05,-0.1 h 0.05 L 75.1,13.25 75.05,8.65 74.9,1.65 74.85,-1 74.8,-3.8 74.7,-8.45 Q 74.6,-15.9 74.85,-19 l 0.05,-0.5 0.25,-1.4 0.3,-0.4 0.45,0.1 m 19.7,-3.45 -5,0.2 H 76.1 l -3.3,-0.1 -0.75,-0.05 -0.9,-0.05 -0.15,-0.05 0.1,0.45 -0.15,49.5 2.25,0.05 h 4.85 1.35 8.05 2.45 l 5.85,-0.05 -0.15,-47.8 v -1.7 l 0.1,-0.45 -0.1,0.05 M 73.2,7.2 q 1,0.35 1.05,5.65 v 0.7 L 74.2,17.1 q -0.25,3.25 -1,3.45 h -0.1 q -0.9,0 -1.15,-3.35 l -0.1,-3.7 0.05,-2.15 0.1,-1.2 q 0.2,-3.05 1.05,-3 L 73.2,7.2 m 18,5.15 0.15,-32.25 -14.6,-0.1 0.1,2.05 q -0.4,3.3 -0.35,4.3 V 0.2 q 0.1,-0.35 0.1,0.25 L 76.55,0.75 76.5,0.6 v 11.9 l 0.1,1.3 0.15,4.5 -0.15,2.25 14.3,-0.1 q -0.1,-0.6 -0.05,-1.4 l 0.35,-4.1 v -2.5 -0.1 M 62.4,-4.15 v -9.5 l -0.35,-4.3 q -0.1,-1.3 0.1,-2.05 l -14.6,0.1 0.15,34.85 0.35,4.1 -0.05,1.4 14.3,0.1 Q 62.15,19.7 62.15,18.3 l 0.15,-4.1 0.1,-1.7 V 1.2 1.1 0.6 L 62.35,0.75 62.3,0.45 q 0,-0.6 0.1,-0.25 V -4.1 -4.15 M -97.4,-9.65 V -10 l 0.05,-0.3 v -1.45 q -0.8,-0.1 -0.95,-2.15 v -2.15 q 0,-4.35 0.95,-4.7 V -24 l 0.25,-1.3 -0.1,-0.4 0.25,-0.65 q 0.35,-0.45 0.95,-0.5 h 6.65 v -0.05 l 1.25,0.05 h 0.4 4.95 4.95 0.45 l 1.2,-0.05 v 0.05 h 6.65 l 0.55,0.15 0.1,0.1 0.15,0.1 0.05,-0.05 v -0.15 l 0.45,-0.15 h 6.65 v -0.05 l 1.2,0.05 h 0.45 4.95 4.95 0.4 l 1.25,-0.05 v 0.05 h 6.65 q 0.6,0.05 0.95,0.5 l 0.25,0.65 -0.1,0.4 0.25,1.3 v 3.25 q 0.95,0.35 0.95,4.7 v 2.15 q -0.15,2.05 -0.95,2.15 v 1.45 l 0.05,0.3 v 0.35 L -40.35,-9.7 V 8.45 l -0.1,2.6 v 1.65 q 0.7,0.05 0.8,2.2 l -0.15,2.95 v 2.6 q -0.15,1.75 -0.65,2.3 v 3.4 l -1.05,0.9 h -0.05 l -0.4,0.2 -15.6,-0.05 h -4 l -6.4,0.05 -0.4,-0.2 h -0.05 l -0.25,-0.1 V 26.7 l -0.05,-0.05 -0.15,0.15 -0.1,0.1 -0.35,0.15 h -0.05 l -0.4,0.2 -6.4,-0.05 h -4 l -15.6,0.05 -0.4,-0.2 h -0.05 l -1.05,-0.9 v -3.4 q -0.5,-0.55 -0.65,-2.3 v -2.6 l -0.15,-2.95 0.25,-1.55 q 0.2,-0.6 0.55,-0.65 v -1.65 -1.2 l -0.05,-0.5 -0.05,-0.9 V -9.65 -9.7 l -0.05,0.05 m -2.95,42.35 1.7,0.15 q 0.1,-0.65 0.4,-1.15 0.5,-0.9 1.55,-1.6 1.9,-1.2 4.6,-1.25 2.7,-0.05 4.55,1.05 l 1.05,0.85 0.25,0.3 q 0.4,-0.55 1.05,-0.95 1.9,-1.2 4.6,-1.25 2.7,-0.05 4.55,1.05 l 1.2,1 0.9,-0.8 q 1.9,-1.2 4.6,-1.25 h 0.4 0.1 0.2 0.3 q 2.7,0.05 4.6,1.25 l 0.9,0.8 1.2,-1 q 1.85,-1.1 4.55,-1.05 2.7,0.05 4.6,1.25 l 1.05,0.95 0.25,-0.3 1.05,-0.85 q 1.85,-1.1 4.55,-1.05 2.7,0.05 4.6,1.25 1.05,0.7 1.55,1.6 l 0.4,1.15 1.9,-0.2 h 0.2 0.9 l -0.05,-0.6 V 27.9 l 0.35,-29.7 0.05,-3.45 V -28.6 h -2.85 -0.65 l -25.6,-0.05 -3.85,-0.15 v -0.05 h -0.05 -0.1 -0.15 l -3.95,0.2 -26.95,0.05 h -2.1 -0.05 v 0.1 23.25 l 0.05,3.45 0.35,29.7 q 0.15,2.3 0,4.15 l -0.05,0.6 h 0.9 l 0.4,0.05 m 8.5,-10.2 -0.2,-0.4 Q -92.5,20.7 -92.5,14.5 V 14.4 9.65 9 8.85 l 0.15,-7.55 v -2.55 l 0.05,-2.9 0.25,-16.1 h -0.05 l -0.05,-0.1 -0.1,-0.45 v -0.25 l 0.7,-0.15 0.25,-0.2 0.25,0.2 h 2.5 l 13.05,0.05 0.1,0.05 0.1,-0.1 0.45,-0.1 0.2,0.15 0.1,0.25 0.25,1.4 0.05,0.5 q 0.25,3.1 0.15,10.55 l -0.05,4.4 -0.05,2.6 -0.1,3.25 v 0.9 0.05 l -0.15,5.9 -0.05,5.05 -0.05,7.7 v 0.05 h 0.05 l 0.05,0.1 0.1,0.45 v 0.25 l -0.05,0.05 -0.7,0.1 h -2.95 L -91.1,22.35 h -0.1 l -0.1,0.05 -0.45,0.15 -0.1,-0.05 m 19.4,-15.35 0.4,0.2 q 0.8,0.85 0.8,6.15 l -0.1,3.7 q -0.25,3.35 -1.15,3.35 l -0.35,-0.2 q -0.55,-0.6 -0.75,-3.25 l -0.05,-3.55 V 13.3 q 0.05,-5.65 1.05,-6.1 l 0.15,-0.05 m -22.7,17 v 1.1 l 5.85,0.05 h 2.45 8.05 1.35 l 7.1,-0.05 -0.15,-47.9 v -1.6 l 0.1,-0.45 h -0.1 l -3.1,0.2 -1.9,0.05 H -90 l -2.95,-0.05 -1.15,-0.1 h -0.35 l -0.65,-0.1 0.05,0.2 0.05,0.25 v 1.75 0.3 l -0.15,46.35 M -65.1,7.2 q 1,0.35 1.05,5.65 v 0.7 l -0.05,3.55 q -0.25,3.25 -1,3.45 h -0.1 q -0.9,0 -1.15,-3.35 l -0.1,-3.7 0.05,-2.15 0.1,-1.2 q 0.2,-3.05 1.05,-3 l 0.15,0.05 m 0,18.1 h 4.85 1.35 8.05 2.45 l 5.85,-0.05 -0.15,-47.8 v -1.7 l 0.1,-0.45 -0.1,0.05 -5,0.2 h -14.5 l -3.3,-0.1 -0.75,-0.05 -0.9,-0.05 -0.15,-0.05 0.1,0.45 -0.15,49.5 2.25,0.05 m 1.9,-3 -0.15,-0.05 V 22 l 0.1,-0.45 0.05,-0.1 h 0.05 l -0.05,-8.2 -0.05,-4.6 -0.15,-7 -0.05,-2.65 -0.05,-2.8 -0.1,-4.65 q -0.1,-7.45 0.15,-10.55 l 0.05,-0.5 0.25,-1.4 0.3,-0.4 0.45,0.1 0.1,0.1 0.1,-0.05 13.05,-0.05 h 2.5 l 0.25,-0.2 0.25,0.2 0.7,0.15 v 0.1 0.15 l -0.1,0.45 -0.05,0.1 h -0.05 l 0.3,17.45 V -1 l 0.05,2.15 0.1,8.5 0.05,2.05 q 0.05,8.55 -0.45,10.35 l -0.05,0.05 -0.2,0.4 -0.1,0.05 -0.45,-0.15 -0.1,-0.05 h -0.1 l -13.05,0.05 h -2.95 l -0.6,-0.1 m 16.1,-9.95 0.15,-32.25 -14.6,-0.1 q 0.2,0.75 0.1,2.05 l -0.35,4.3 V 0.2 q 0.1,-0.35 0.1,0.25 l -0.05,0.3 -0.05,-0.15 v 11.9 l 0.1,1.3 0.15,4.5 q 0,1.4 -0.15,2.25 l 14.3,-0.1 -0.05,-1.4 0.35,-4.1 v -2.5 -0.1 m -28.8,-16.5 v -9.5 q 0.05,-1 -0.35,-4.3 l 0.1,-2.05 -14.6,0.1 0.15,34.85 0.35,4.1 q 0.05,0.8 -0.05,1.4 l 14.3,0.1 -0.15,-2.25 0.15,-4.1 0.1,-1.7 V 0.6 L -75.95,0.75 -76,0.45 q 0,-0.6 0.1,-0.25 V -4.1 -4.15 M -2,-24.7 l -3.1,0.2 -1.9,0.05 h -14.5 l -2.95,-0.05 -1.05,-0.1 h -0.1 -0.35 l -0.65,-0.1 0.05,0.2 0.05,0.25 v 1.75 0.3 10 q 0.85,0.2 0.9,0 h 0.1 l 1.05,-0.05 h 18.35 2.8 0.35 l 1,-0.3 -0.05,-10.1 v -1.6 l 0.1,-0.45 H -2 m 0.05,12.15 -0.4,0.3 h 0.4 v -0.3"
         fill="#6b6b6b"
         fill-rule="evenodd"
         stroke="none"
         id="path14" />
      <path
         d="m -104.8,-33.25 v 0.35 l -0.05,-0.35 h 0.05 m 71.65,4.65 q 0.1,0.8 0.05,2.2 l -0.05,0.95 v -2.4 h -0.05 v -0.75 h 0.05 m 34.8,3.95 -0.05,0.4 -0.1,-0.45 0.15,0.05 m 24.45,0.4 v -0.4 l 0.1,-0.05 -0.1,0.45 m 39.6,31.4 h 0.15 L 65.7,7.2 V 7.15 m -1.9,14.3 H 63.75 V 21.4 l 0.05,0.05 m 4,-45.7 v -0.45 h 0.1 l -0.1,0.45 m 27.8,-0.4 0.1,-0.05 -0.1,0.45 v -0.4 m -24.5,0.4 -0.1,-0.45 0.15,0.05 -0.05,0.4 m 2.1,31.4 V 7.2 L 73.05,7.15 h 0.15 m -145.8,0 h 0.15 L -72.6,7.2 V 7.15 m -1.9,14.3 h -0.05 V 21.4 l 0.05,0.05 m 4,-46.15 h 0.1 l -0.1,0.45 v -0.45 m 5.4,31.85 V 7.2 l -0.15,-0.05 h 0.15 m 22.4,-31.4 v -0.4 l 0.1,-0.05 -0.1,0.45 m -24.45,-0.4 -0.05,0.4 -0.1,-0.45 0.15,0.05 M -2,-24.7 h 0.1 l -0.1,0.45 v -0.45"
         fill="#919191"
         fill-rule="evenodd"
         stroke="none"
         id="path15" />
      <path
         d="m -1.95,-12.55 v 0.3 h -0.4 l 0.4,-0.3"
         fill="#999999"
         fill-rule="evenodd"
         stroke="none"
         id="path16" />
      <path
         d="m -6.05,-20.9 -0.1,-0.25 0.6,-0.35 -0.5,0.6"
         fill="#a8a8a8"
         fill-rule="evenodd"
         stroke="none"
         id="path17" />
      <path
         d="m 63.65,-21.15 q 0.25,-0.35 0.6,-0.35 2.1,0.1 2,13.4 L 66.1,-4 66,-1.45 65.85,3.1 65.7,7.15 V 7.2 q -1,0.45 -1.05,6.1 v 0.25 l 0.05,3.55 q 0.2,2.65 0.75,3.25 l -0.25,1.7 0.2,0.65 q 0,0.85 -0.95,0.85 l -3.2,0.2 H 47.7 q -0.85,-0.05 -1.15,-0.5 l -0.1,-0.75 0.1,0.05 0.45,-0.15 0.1,-0.05 h 0.1 l 13.05,0.05 h 2.95 l 0.7,-0.1 0.05,-0.05 V 22 L 63.85,21.55 63.8,21.45 63.75,21.4 63.8,13.7 63.85,8.65 64,2.75 V 2.7 1.8 l 0.1,-3.25 0.05,-2.6 0.05,-4.4 Q 64.3,-15.9 64.05,-19 l -0.05,-0.5 -0.25,-1.4 -0.1,-0.25 M 43.3,-22.5 v -1.75 l -0.05,-0.25 -0.05,-0.2 0.65,0.1 h 0.35 l 1.15,0.1 2.95,0.05 h 14.5 l 1.9,-0.05 3.1,-0.2 v 0.45 1.6 h -0.15 l -9.85,0.3 H 45.4 L 44.85,-22.4 H 44.7 v 0.05 q 0.5,2.75 0.55,6.55 -0.15,6.65 0.05,9.7 V 16.55 21 l -0.45,3.25 Q 44.5,25.1 44,25.1 q -0.55,0 -0.85,-0.95 l 0.15,-46.35 0.05,-0.3 H 43.3 m 31.8,44.8 0.6,0.1 h 2.95 L 91.7,22.35 h 0.1 l 0.1,0.05 0.45,0.15 0.1,-0.05 0.2,-0.4 0.05,-0.05 q 0.5,-1.8 0.45,-10.35 L 93.1,9.65 93,1.15 92.95,-1 v -1.8 l -0.3,-17.45 h 0.05 l 0.05,-0.1 0.1,-0.45 v -0.15 L 93.2,-21 q 1.3,0 1.3,1.55 L 94.2,9 l 0.05,2.2 v 6.6 q -0.05,3.5 -0.45,4.9 l 0.1,0.3 q 0,1.35 -4.65,1.25 H 78.2 q -2.15,0.2 -3,-0.45 -0.45,-0.35 -0.45,-0.8 0,-0.4 0.35,-0.7 m -3.95,-46.95 0.9,0.05 0.75,0.05 3.3,0.1 h 14.5 l 5,-0.2 v 0.4 1.7 H 78.65 q -3.3,0.1 -5.4,-0.05 v 0.7 L 73.15,-16 73.2,7.15 H 73.05 Q 72.2,7.1 72,10.15 l -0.1,1.2 -0.05,2.15 0.1,3.7 q 0.25,3.35 1.15,3.35 h 0.1 v 4.75 l -2.25,-0.05 0.15,-49.5 0.05,-0.4 m -145.8,3.5 q 0.25,-0.35 0.6,-0.35 2.1,0.1 2,13.4 l -0.15,4.1 -0.1,2.55 -0.15,4.55 -0.15,4.05 V 7.2 q -1,0.45 -1.05,6.1 v 0.25 l 0.05,3.55 q 0.2,2.65 0.75,3.25 l -0.25,1.7 0.2,0.65 q 0,0.85 -0.95,0.85 l -3.2,0.2 H -90.6 q -0.85,-0.05 -1.15,-0.5 l -0.1,-0.75 0.1,0.05 0.45,-0.15 0.1,-0.05 h 0.1 l 13.05,0.05 h 2.95 l 0.7,-0.1 0.05,-0.05 V 22 l -0.1,-0.45 -0.05,-0.1 -0.05,-0.05 0.05,-7.7 0.05,-5.05 0.15,-5.9 V 2.7 1.8 l 0.1,-3.25 0.05,-2.6 0.05,-4.4 Q -74,-15.9 -74.25,-19 l -0.05,-0.5 -0.25,-1.4 -0.1,-0.25 m -18.95,-1.2 q 0.5,2.75 0.55,6.55 -0.15,6.65 0.05,9.7 V 16.55 21 q -0.1,2.2 -0.45,3.25 -0.35,0.85 -0.85,0.85 -0.55,0 -0.85,-0.95 l 0.15,-46.35 0.05,-0.3 H -95 v -1.75 l -0.05,-0.25 -0.05,-0.2 0.65,0.1 h 0.35 l 1.15,0.1 2.95,0.05 h 14.5 l 1.9,-0.05 3.1,-0.2 v 0.45 1.6 h -0.15 l -9.85,0.3 h -12.4 l -0.55,-0.05 h -0.15 v 0.05 m 50.9,-0.2 h -16.95 q -3.3,0.1 -5.4,-0.05 v 0.7 l -0.1,5.9 0.05,23.15 h -0.15 q -0.85,-0.05 -1.05,3 l -0.1,1.2 -0.05,2.15 0.1,3.7 q 0.25,3.35 1.15,3.35 h 0.1 v 4.75 l -2.25,-0.05 0.15,-49.5 0.05,-0.4 0.9,0.05 0.75,0.05 3.3,0.1 h 14.5 l 5,-0.2 v 0.4 1.7 m -2.75,1.6 0.35,-0.05 q 1.3,0 1.3,1.55 L -44.1,9 l 0.05,2.2 v 6.6 q -0.05,3.5 -0.45,4.9 l 0.1,0.3 q 0,1.35 -4.65,1.25 H -60.1 q -2.15,0.2 -3,-0.45 l -0.45,-0.8 0.35,-0.7 0.6,0.1 h 2.95 l 13.05,-0.05 h 0.1 l 0.1,0.05 0.45,0.15 0.1,-0.05 0.2,-0.4 0.05,-0.05 q 0.5,-1.8 0.45,-10.35 L -45.2,9.65 -45.3,1.15 -45.35,-1 v -1.8 l -0.3,-17.45 h 0.05 l 0.05,-0.1 0.1,-0.45 v -0.15"
         fill="#c8baa8"
         fill-rule="evenodd"
         stroke="none"
         id="path18" />
      <path
         d="m 1.6,-24.25 0.05,-0.4 0.9,0.05 0.75,0.05 3.3,0.1 h 14.5 l 5,-0.2 v 0.4 1.7 H 9.15 q -3.3,0.1 -5.4,-0.05 v 0.7 l -0.1,5.9 0.05,3.75 H 1.55 l 0.05,-12 m 61.2,3.1 -13.05,-0.05 h -2.5 l -0.25,-0.2 -0.25,0.2 -0.7,0.15 v 0.25 l 0.1,0.45 0.05,0.1 h 0.05 L 46,-4.15 45.95,-1.25 V 1.3 L 45.8,8.85 V 9 9.65 14.4 14.5 q 0,6.2 0.45,7.6 l 0.2,0.4 0.1,0.75 q 0.3,0.45 1.15,0.5 h 13.55 l 3.2,-0.2 q 0.95,0 0.95,-0.85 l -0.2,-0.65 0.25,-1.7 q 0.15,0.2 0.35,0.2 0.9,0 1.15,-3.35 l 0.1,-3.7 q 0,-5.3 -0.8,-6.15 l -0.4,-0.2 H 65.7 L 65.85,3.1 66,-1.45 66.1,-4 66.25,-8.1 q 0.1,-13.3 -2,-13.4 -0.35,0 -0.6,0.35 l -0.2,-0.15 -0.45,0.1 -0.2,0.05 m -19.65,45.3 q 0.3,0.95 0.85,0.95 0.5,0 0.85,-0.85 L 45.3,21 V 16.55 -6.1 q -0.2,-3.05 -0.05,-9.7 -0.05,-3.8 -0.55,-6.55 l 0.15,-0.05 0.55,0.05 h 12.4 l 9.85,-0.3 h 0.15 l 0.15,47.9 -7.1,0.05 H 59.5 51.45 49 l -5.85,-0.05 v -1.1 m 32.75,-45.35 -0.45,-0.1 -0.3,0.4 -0.25,1.4 -0.05,0.5 q -0.25,3.1 -0.15,10.55 l 0.1,4.65 0.05,2.8 0.05,2.65 0.15,7 0.05,4.6 0.05,8.2 H 75.1 l -0.05,0.1 -0.1,0.45 v 0.25 l 0.15,0.05 q -0.35,0.3 -0.35,0.7 0,0.45 0.45,0.8 0.85,0.65 3,0.45 H 89.25 Q 93.9,24.35 93.9,23 l -0.1,-0.3 q 0.4,-1.4 0.45,-4.9 V 11.2 L 94.2,9 94.5,-19.45 Q 94.5,-21 93.2,-21 l -0.35,0.05 v -0.1 l -0.7,-0.15 -0.25,-0.2 -0.25,0.2 h -2.5 l -13.05,0.05 -0.2,-0.05 m 19.7,-1.35 0.15,47.8 -5.85,0.05 H 87.45 79.4 78.05 73.2 v -4.75 q 0.75,-0.2 1,-3.45 l 0.05,-3.55 v -0.7 Q 74.2,7.55 73.2,7.2 V 7.15 L 73.15,-16 l 0.1,-5.9 v -0.7 q 2.1,0.15 5.4,0.05 H 95.6 m -171.1,1.4 -13.05,-0.05 h -2.5 l -0.25,-0.2 -0.25,0.2 -0.7,0.15 v 0.25 l 0.1,0.45 0.05,0.1 h 0.05 l -0.25,16.1 -0.05,2.9 V 1.3 L -92.5,8.85 V 9 9.65 14.4 14.5 q 0,6.2 0.45,7.6 l 0.2,0.4 0.1,0.75 q 0.3,0.45 1.15,0.5 h 13.55 l 3.2,-0.2 q 0.95,0 0.95,-0.85 l -0.2,-0.65 0.25,-1.7 0.35,0.2 q 0.9,0 1.15,-3.35 l 0.1,-3.7 q 0,-5.3 -0.8,-6.15 l -0.4,-0.2 h -0.15 l 0.15,-4.05 0.15,-4.55 0.1,-2.55 0.15,-4.1 q 0.1,-13.3 -2,-13.4 -0.35,0 -0.6,0.35 l -0.2,-0.15 -0.45,0.1 -0.2,0.05 m -18.1,-1.2 0.15,-0.05 0.55,0.05 h 12.4 l 9.85,-0.3 h 0.15 l 0.15,47.9 -7.1,0.05 h -1.35 -8.05 -2.45 l -5.85,-0.05 v -1.1 q 0.3,0.95 0.85,0.95 0.5,0 0.85,-0.85 Q -93.1,23.2 -93,21 V 16.55 -6.1 q -0.2,-3.05 -0.05,-9.7 -0.05,-3.8 -0.55,-6.55 m 28.5,29.5 -0.05,-23.15 0.1,-5.9 v -0.7 q 2.1,0.15 5.4,0.05 h 16.95 l 0.15,47.8 -5.85,0.05 h -2.45 -8.05 -1.35 -4.85 v -4.75 q 0.75,-0.2 1,-3.45 l 0.05,-3.55 v -0.7 Q -64.1,7.55 -65.1,7.2 V 7.15 m 2.7,-28.35 -0.45,-0.1 -0.3,0.4 -0.25,1.4 -0.05,0.5 q -0.25,3.1 -0.15,10.55 l 0.1,4.65 0.05,2.8 0.05,2.65 0.15,7 0.05,4.6 0.05,8.2 h -0.05 l -0.05,0.1 -0.1,0.45 v 0.25 l 0.15,0.05 -0.35,0.7 0.45,0.8 q 0.85,0.65 3,0.45 h 11.05 q 4.65,0.1 4.65,-1.25 l -0.1,-0.3 q 0.4,-1.4 0.45,-4.9 V 11.2 L -44.1,9 l 0.3,-28.45 q 0,-1.55 -1.3,-1.55 l -0.35,0.05 v -0.1 l -0.7,-0.15 -0.25,-0.2 -0.25,0.2 h -2.5 l -13.05,0.05 -0.2,-0.05 m 35.9,-1.3 v -1.75 l -0.05,-0.25 -0.05,-0.2 0.65,0.1 h 0.35 0.1 l 1.05,0.1 2.95,0.05 H -7 l 1.9,-0.05 3.1,-0.2 v 0.45 1.6 h -0.15 l -9.85,0.3 h -12.4 l -0.55,-0.05 h -0.15 v 0.05 q 0.5,2.75 0.55,6.55 v 1.35 l 0.1,2.2 -1.05,0.05 h -0.1 q -0.05,0.2 -0.9,0 v -10 l 0.05,-0.3 h -0.05"
         fill="#b8aa99"
         fill-rule="evenodd"
         stroke="none"
         id="path19" />
      <path
         d="m 28.2,-25.3 0.1,-0.4 -0.25,-0.65 q -0.35,-0.45 -0.95,-0.5 h -6.65 v -0.05 l -1.25,0.05 H 18.8 13.85 8.9 8.45 l -1.2,-0.05 v 0.05 H 0.6 l -0.8,0.35 -0.8,-0.35 h -6.65 v -0.05 l -1.2,0.05 h -0.45 -4.95 -4.95 -0.4 l -1.25,-0.05 v 0.05 h -6.65 q -0.6,0.05 -0.95,0.5 l -0.25,0.65 0.1,0.4 -0.25,1.3 v 3.25 q -0.95,0.35 -0.95,4.7 v 2.15 q 0.15,2.05 0.95,2.15 v 0.25 H -29 l -0.15,0.5 0.25,0.6 0.05,0.25 q 0.25,0.55 1.4,0.55 l 1.55,-0.2 0.4,0.05 h 1.05 52.65 q 0.55,-0.05 0.9,-0.5 l 0.3,-0.65 V -11 l -0.15,-0.5 h -0.8 v -0.25 q 0.2,-0.05 0.4,-0.2 0.45,-0.45 0.55,-1.95 l 0.15,-0.85 -0.15,-1.3 v -0.75 q -0.1,-3.65 -0.95,-3.95 V -24 l -0.25,-1.3 m -132.95,-6.6 0.45,0.15 9.05,0.4 26.6,-0.05 35.45,-0.1 v 0.15 h 1 2.3 3.15 l 60.8,-0.15 v -0.25 l 0.25,0.05 1.7,0.2 1.7,0.1 2.1,0.05 h 3.25 l 26.45,-0.05 35.9,-0.1 v 0.5 h -210.2 l 0.05,-0.9 m 71.6,3.3 28.75,-0.05 4.2,-0.2 4.2,0.2 30.05,0.05 v 1.2 h -0.3 V -7 l -1.35,-0.1 -3,-0.1 h -0.05 l -1.2,-0.05 h -44.3 -17 v -18.2 l 0.05,-0.95 q 0.05,-1.4 -0.05,-2.2 m 71.1,61.3 0.55,-4.25 V 22.9 l -0.25,-41.7 0.25,-7.6 -0.05,-2.15 v -0.05 l 26.95,-0.05 4.1,-0.2 v 0.05 l 0.3,0.05 3.7,0.1 29.1,0.05 v 23.35 l -0.05,3.45 -0.35,29.7 q -0.15,2.3 0,4.15 l 0.05,0.6 h -0.9 l -2.1,0.2 -0.4,-1.15 -1.55,-1.6 Q 95.4,28.9 92.7,28.85 90,28.8 88.15,29.9 L 87.1,30.75 86.85,31.05 85.8,30.1 Q 83.9,28.9 81.2,28.85 78.5,28.8 76.65,29.9 l -1.2,1 q -0.35,-0.45 -0.9,-0.8 -1.9,-1.2 -4.6,-1.25 H 69.8 69.75 69.5 69.45 68.95 q -2.7,0.05 -4.6,1.25 l -0.9,0.8 q -0.5,-0.55 -1.2,-1 Q 60.4,28.8 57.7,28.85 55,28.9 53.1,30.1 52.45,30.5 52.05,31.05 L 51.8,30.75 50.75,29.9 q -1.85,-1.1 -4.55,-1.05 -2.7,0.05 -4.6,1.25 -1.05,0.7 -1.55,1.6 l -0.4,1.15 -1.7,-0.15 m 58.85,-5.65 1.05,-0.9 v -3.4 q 0.5,-0.55 0.65,-2.3 v -2.6 l 0.15,-2.95 q -0.1,-2.15 -0.8,-2.2 v -1.65 l 0.1,-2.6 V -9.7 L 98,-9.65 V -10 l -0.05,-0.3 v -1.45 q 0.8,-0.1 0.95,-2.15 v -2.15 q 0,-4.35 -0.95,-4.7 V -24 l -0.25,-1.3 0.1,-0.4 -0.25,-0.65 q -0.35,-0.45 -0.95,-0.5 h -6.65 v -0.05 l -1.25,0.05 H 88.3 83.35 78.4 77.95 l -1.2,-0.05 v 0.05 H 70.1 l -0.3,0.1 -0.3,0.1 v 0.05 l -0.7,-0.25 h -6.65 v -0.05 l -1.2,0.05 H 60.5 55.55 50.6 50.2 l -1.25,-0.05 v 0.05 H 42.3 q -0.6,0.05 -0.95,0.5 l -0.25,0.65 0.1,0.4 -0.25,1.3 v 3.25 Q 40,-20.4 40,-16.05 v 2.15 q 0.15,2.05 0.95,2.15 v 1.45 L 40.9,-10 v 0.35 h 0.05 v 18.1 l 0.05,0.9 0.05,0.5 v 1.2 1.65 q -0.35,0.05 -0.55,0.65 -0.2,0.5 -0.25,1.55 l 0.15,2.95 v 2.6 q 0.15,1.75 0.65,2.3 v 3.4 q 0.75,0.9 1.05,0.9 h 0.05 l 0.4,0.2 15.6,-0.05 h 4 l 6.4,0.05 0.4,-0.2 H 69 l 0.5,-0.3 v 0.1 l 0.3,0.2 h 0.1 0.05 l 0.4,0.2 6.4,-0.05 h 4 l 15.6,0.05 0.45,-0.2 m -138.3,0 1.05,-0.9 v -3.4 q 0.5,-0.55 0.65,-2.3 v -2.6 l 0.15,-2.95 q -0.1,-2.15 -0.8,-2.2 v -1.65 l 0.1,-2.6 V -9.7 l 0.05,0.05 V -10 l -0.05,-0.3 v -1.45 q 0.8,-0.1 0.95,-2.15 v -2.15 q 0,-4.35 -0.95,-4.7 V -24 l -0.25,-1.3 0.1,-0.4 -0.25,-0.65 q -0.35,-0.45 -0.95,-0.5 h -6.65 v -0.05 l -1.25,0.05 h -0.4 -4.95 -4.95 -0.45 l -1.2,-0.05 v 0.05 h -6.65 l -0.45,0.15 v 0.15 l -0.05,0.05 -0.15,-0.1 -0.1,-0.1 -0.55,-0.15 h -6.65 v -0.05 l -1.2,0.05 h -0.45 -4.95 -4.95 -0.4 l -1.25,-0.05 v 0.05 H -96 q -0.6,0.05 -0.95,0.5 l -0.25,0.65 0.1,0.4 -0.25,1.3 v 3.25 q -0.95,0.35 -0.95,4.7 v 2.15 q 0.15,2.05 0.95,2.15 v 1.45 l -0.05,0.3 v 0.35 h 0.05 v 18.1 l 0.05,0.9 0.05,0.5 v 1.2 1.65 q -0.35,0.05 -0.55,0.65 l -0.25,1.55 0.15,2.95 v 2.6 q 0.15,1.75 0.65,2.3 v 3.4 l 1.05,0.9 h 0.05 l 0.4,0.2 15.6,-0.05 h 4 l 6.4,0.05 0.4,-0.2 h 0.05 l 0.35,-0.15 0.1,-0.1 0.15,-0.15 0.05,0.05 v 0.25 l 0.25,0.1 h 0.05 l 0.4,0.2 6.4,-0.05 h 4 l 15.6,0.05 0.45,-0.2 m -58.85,5.65 q 0.4,-1.35 0.55,-4.25 V 22.9 l -0.25,-41.7 0.25,-7.6 q 0.05,-1.4 -0.05,-2.2 l 26.95,-0.05 3.95,-0.2 h 0.15 0.1 0.05 v 0.05 l 3.85,0.15 25.6,0.05 h 0.65 2.85 v 23.35 l -0.05,3.45 -0.35,29.7 v 4.15 l 0.05,0.6 h -0.9 -0.2 l -1.9,0.2 -0.4,-1.15 q -0.5,-0.9 -1.55,-1.6 -1.9,-1.2 -4.6,-1.25 -2.7,-0.05 -4.55,1.05 l -1.05,0.85 -0.25,0.3 -1.05,-0.95 q -1.9,-1.2 -4.6,-1.25 -2.7,-0.05 -4.55,1.05 l -1.2,1 -0.9,-0.8 q -1.9,-1.2 -4.6,-1.25 h -0.3 -0.2 -0.1 -0.4 q -2.7,0.05 -4.6,1.25 l -0.9,0.8 -1.2,-1 q -1.85,-1.1 -4.55,-1.05 -2.7,0.05 -4.6,1.25 -0.65,0.4 -1.05,0.95 l -0.25,-0.3 -1.05,-0.85 q -1.85,-1.1 -4.55,-1.05 -2.7,0.05 -4.6,1.25 -1.05,0.7 -1.55,1.6 -0.3,0.5 -0.4,1.15 l -1.7,-0.15"
         fill="#9a8f81"
         fill-rule="evenodd"
         stroke="none"
         id="path20" />
      <path
         d="m 105.4,-31.5 -35.9,0.1 -26.45,0.05 H 39.8 l -2.1,-0.05 -1.7,-0.1 -1.7,-0.2 -0.25,-0.05 v 0.25 l -60.8,0.15 h -3.15 -2.3 -1 v -0.15 l -35.45,0.1 -26.6,0.05 -9.05,-0.4 -0.45,-0.15 -0.05,-0.55 v -0.45 -0.35 h 210.25 l -0.05,0.8 v 0.7 0.25 m -66.95,2.9 v 0.05 l 0.05,2.15 -0.25,7.6 0.25,41.7 v 5.55 l -0.55,4.25 -0.4,-0.05 h -0.9 l 0.05,-0.6 V 27.9 L 36.35,-1.8 36.3,-5.25 V -28.5 l 0.05,-0.1 h 2.1 m -31.95,7.5 0.1,-0.05 -0.2,-0.05 0.1,0.1 m -2.8,8.85 -0.05,-3.75 0.1,-5.9 v -0.7 q 2.1,0.15 5.4,0.05 H 26.1 l 0.05,10.3 L 3.8,-12.3 v 0.05 H 3.7 m 87.5,24.7 v 2.5 l -0.35,4.1 q -0.05,0.8 0.05,1.4 L 76.6,20.55 76.75,18.3 76.6,13.8 76.5,12.5 V 0.6 l 0.05,0.15 0.05,-0.3 q 0,-0.6 -0.1,-0.25 v -13.85 q -0.05,-1 0.35,-4.3 l -0.1,-2.05 14.6,0.1 -0.15,32.25 -0.35,0.1 H 91.2 M 62.4,1.2 v 11.3 l -0.1,1.7 -0.15,4.1 q 0,1.4 0.15,2.25 L 48,20.45 48.05,19.05 47.7,14.95 47.55,-19.9 62.15,-20 q -0.2,0.75 -0.1,2.05 l 0.35,4.3 v 9.5 h -0.2 l 0.2,0.05 V 0.2 Q 62.3,-0.15 62.3,0.45 L 62.35,0.75 62.4,0.6 V 1.1 H 61.95 L 62.4,1.2 M -99.85,-28.6 q 0.1,0.8 0.05,2.2 l -0.25,7.6 0.25,41.7 v 5.55 q -0.15,2.9 -0.55,4.25 l -0.4,-0.05 h -0.9 l 0.05,-0.6 q 0.15,-1.85 0,-4.15 L -101.95,-1.8 -102,-5.25 V -28.5 l 0.05,-0.1 h 2.1 m 52.75,41.05 v 2.5 l -0.35,4.1 0.05,1.4 -14.3,0.1 q 0.15,-0.85 0.15,-2.25 l -0.15,-4.5 -0.1,-1.3 V 0.6 l 0.05,0.15 0.05,-0.3 q 0,-0.6 -0.1,-0.25 v -13.85 l 0.35,-4.3 q 0.1,-1.3 -0.1,-2.05 l 14.6,0.1 -0.15,32.25 -0.35,0.1 h 0.35 M -75.9,-4.1 V 0.2 Q -76,-0.15 -76,0.45 l 0.05,0.3 0.05,-0.15 v 11.9 l -0.1,1.7 -0.15,4.1 0.15,2.25 -14.3,-0.1 q 0.1,-0.6 0.05,-1.4 l -0.35,-4.1 -0.15,-34.85 14.6,-0.1 -0.1,2.05 q 0.4,3.3 0.35,4.3 v 9.5 h -0.2 l 0.2,0.05 m 73.9,-18.55 0.05,10.1 -1,0.3 H -3.3 -6.1 -24.45 l -0.1,-2.2 v -1.35 q -0.05,-3.8 -0.55,-6.55 l 0.15,-0.05 0.55,0.05 H -12 l 9.85,-0.3 H -2 m -4.8,1.45 -0.2,0.05 0.1,0.05 0.1,-0.1 m 0.75,0.3 0.5,-0.6 -0.6,0.35 0.1,0.25"
         fill="#aa9e8f"
         fill-rule="evenodd"
         stroke="none"
         id="path21" />
    </g>
    <g
       id="sprite0"
       transform="translate(5.4,4)">
      <use
         ffdec:characterId="43"
         height="8"
         transform="translate(-5.4,-4)"
         width="10.8"
         xlink:href="#shape1"
         id="use21" />
    </g>
    <g
       id="shape1"
       transform="translate(5.4,4)">
      <path
         d="m 2.9,-0.35 q 0,-1.25 1.25,-1.25 1.25,0 1.25,1.2 0,1.3 -1.25,1.3 Q 3.6,0.9 3.25,0.5 2.9,0.15 2.9,-0.35 m 0.35,-2.3 q 0,0.55 -0.35,0.9 -0.4,0.45 -1,0.45 -1.35,0 -1.35,-1.4 0,-1.3 1.35,-1.3 1.35,0 1.35,1.35 m -3.1,1.9 h 0.2 q 2.6,0.1 2.6,2.8 l -0.3,1 Q 2.05,4 0.45,4 H 0.35 0.15 0.1 -0.45 q -1.6,0 -2.2,-0.95 l -0.3,-1 q 0,-2.8 2.8,-2.8 h 0.3 M -1.55,-4 q 1.35,0 1.35,1.35 0,0.55 -0.4,0.9 -0.4,0.45 -0.95,0.45 -1.4,0 -1.4,-1.4 0,-1.3 1.4,-1.3 m -2.6,2.4 q 1.25,0 1.25,1.25 0,0.5 -0.35,0.85 -0.35,0.4 -0.9,0.4 -1.25,0 -1.25,-1.3 0,-1.2 1.25,-1.2"
         fill="#6b6b6b"
         fill-rule="evenodd"
         stroke="none"
         id="path22" />
    </g>
    <g
       id="sprite1"
       transform="translate(8.05,7.35)">
      <use
         ffdec:characterId="1378"
         height="14.75"
         transform="translate(-8.05,-7.35)"
         width="16.1"
         xlink:href="#shape2"
         id="use22" />
    </g>
    <g
       id="shape2"
       transform="translate(8.05,7.35)">
      <path
         d="m 3.75,-7.25 q 1.4,0.5 1.4,2.3 l -0.15,0.8 -0.85,1 -1.05,1 -1.15,0.8 0.15,0.3 0.15,0.35 q 1.35,-1 3.2,-1.2 2.6,-0.3 2.6,2.35 l -0.4,0.8 Q 7,2.1 5.85,2.1 L 3.4,1.55 2.3,1.05 2,1.55 1.9,1.75 2.95,2.4 4.15,3.35 4.85,4.25 5,5.15 4.8,6.35 Q 4.45,7.4 3.45,7.4 1.95,7.4 1.25,6.55 L 0.95,5.95 0.9,5.6 Q 0.35,4.1 0.35,3.65 v -0.7 l 0.1,-0.5 -0.4,0.05 h -0.1 l -0.4,-0.05 0.05,0.5 v 0.7 q 0,0.45 -0.55,1.95 L -1,5.95 -1.3,6.55 q -0.65,0.85 -2.15,0.85 -1,0 -1.4,-1.05 l -0.2,-1.2 0.15,-0.9 0.75,-0.9 1.2,-0.95 1.05,-0.65 -0.15,-0.2 -0.25,-0.5 -1.1,0.5 -2.5,0.55 q -1.15,0 -1.75,-0.85 l -0.4,-0.8 q 0,-2.65 2.6,-2.35 1.85,0.2 3.2,1.2 l 0.1,-0.35 0.2,-0.3 -1.15,-0.8 -1.1,-1 -0.8,-1 -0.15,-0.8 q 0,-1.8 1.4,-2.3 1.35,-0.45 2.35,0.95 0.35,0.45 0.65,1.65 0.3,1.2 0.3,1.9 v 0.5 L -0.4,-2.3 0,-2.4 0.4,-2.25 H 0.45 L 0.4,-2.75 0.7,-4.65 1.4,-6.3 q 1,-1.4 2.35,-0.95"
         fill="#6b6b6b"
         fill-rule="evenodd"
         stroke="none"
         id="path23" />
    </g>
  </defs>
</svg>
