<?xml version="1.0" encoding="UTF-8" standalone="no"?>
<svg
   ffdec:objectType="frame"
   height="90.349998"
   width="68.199997"
   version="1.1"
   id="svg21"
   sodipodi:docname="2.svg"
   xmlns:inkscape="http://www.inkscape.org/namespaces/inkscape"
   xmlns:sodipodi="http://sodipodi.sourceforge.net/DTD/sodipodi-0.dtd"
   xmlns:xlink="http://www.w3.org/1999/xlink"
   xmlns="http://www.w3.org/2000/svg"
   xmlns:svg="http://www.w3.org/2000/svg"
   xmlns:ffdec="https://www.free-decompiler.com/flash">
  <sodipodi:namedview
     id="namedview21"
     pagecolor="#ffffff"
     bordercolor="#000000"
     borderopacity="0.25"
     inkscape:showpageshadow="2"
     inkscape:pageopacity="0.0"
     inkscape:pagecheckerboard="0"
     inkscape:deskcolor="#d1d1d1"
     fit-margin-top="5"
     fit-margin-left="5"
     fit-margin-right="5"
     fit-margin-bottom="5" />
  <g
     transform="translate(34.1,45.2)"
     id="g5">
    <use
       ffdec:characterId="3232"
       height="76.050003"
       transform="matrix(1.6622,0,0,1.0216,-33.1602,-38.27)"
       width="40.349998"
       xlink:href="#sprite0"
       id="use1" />
    <use
       ffdec:characterId="3233"
       height="90.349998"
       transform="translate(-34.1,-45.2)"
       width="68.199997"
       xlink:href="#shape2"
       id="use2" />
    <use
       ffdec:characterId="2804"
       height="8"
       transform="matrix(0.6495,0,0,0.6495,17.2925,30.0019)"
       width="10.8"
       xlink:href="#sprite1"
       id="use3" />
    <use
       ffdec:characterId="3235"
       height="35.099998"
       transform="matrix(1.1175,0,0,1.1652,-25.4442,-4.4496)"
       width="36.549999"
       xlink:href="#sprite2"
       id="use4" />
    <use
       ffdec:characterId="2804"
       height="8"
       transform="matrix(0.5625,-0.3248,0.3248,0.5625,12.8635,27.0037)"
       width="10.8"
       xlink:href="#sprite3"
       id="use5" />
  </g>
  <defs
     id="defs21">
    <g
       id="sprite0"
       transform="translate(20.25,37.95)">
      <use
         ffdec:characterId="3217"
         height="72.150002"
         transform="translate(-16.45,-36.1)"
         width="32.900002"
         xlink:href="#shape0"
         id="use6" />
      <use
         ffdec:characterId="3218"
         height="9"
         transform="translate(-18.4,-37.95)"
         width="10.3"
         xlink:href="#shape1"
         id="use7" />
    </g>
    <g
       id="shape0"
       transform="translate(16.45,36.1)">
      <path
         d="m 16.45,36.05 h -32.9 V -36.1 h 32.9 v 72.15"
         fill="#e9e9e9"
         fill-rule="evenodd"
         stroke="none"
         id="path7" />
    </g>
    <g
       id="shape1"
       transform="translate(18.4,37.95)">
      <path
         d="m -8.1,-37.2 q 0,0.75 -4.8,4.6 l -4.85,3.65 q -0.55,0 -0.6,-0.25 v -0.25 q 0,-1.5 10.1,-8.05 0.15,-0.1 0.15,0.3 m -6.75,2.5 -2.3,1.8 q -0.55,-0.6 -0.55,-1.3 0,-1.15 2.4,-2.95 2.4,-1.8 2.4,0.45 0,0.35 -1.95,2"
         fill="#ffffff"
         fill-rule="evenodd"
         stroke="none"
         id="path8" />
    </g>
    <g
       id="shape2"
       transform="translate(34.1,45.2)">
      <path
         d="m 33.5,-45 q 0.6,0.35 0.6,1.1 v 11.6 l -0.05,12.35 v 9.25 1.25 0.4 6.9 4.25 6.9 0.4 1.25 9.25 l 0.05,12.35 v 11.6 q 0,0.75 -0.6,1.1 l -0.45,0.15 -0.2,0.05 h -65.7 l -0.2,-0.05 -0.45,-0.15 q -0.6,-0.35 -0.6,-1.1 V -43.9 q 0,-0.75 0.6,-1.1 l 0.45,-0.15 0.2,-0.05 h 65.7 l 0.2,0.05 0.45,0.15 m -4.95,4.85 0.4,0.15 0.1,0.3 v 79.35 l -0.1,0.3 -0.4,0.15 q -0.3,0 -0.35,-0.15 l -32,0.25 v -0.05 l -7,-0.05 -8.2,0.05 h -10.35 l -0.25,-0.1 -0.25,-0.3 0.1,-0.1 -0.05,-39.85 h -0.05 v -0.3 h 0.05 l 0.05,-39.2 -0.1,-0.1 0.25,-0.3 0.25,-0.1 H -19 l 8.2,0.05 7,-0.05 v -0.05 L 26.95,-40 h 1.25 l 0.2,-0.1 0.15,-0.05 M 27.8,-39.4 H -3.8 l -7,-0.1 -8.15,0.05 h -9.95 l -0.15,0.5 0.05,29.6 V -0.5 0.45 9.3 l -0.05,29.6 0.15,0.5 h 9.95 l 8.15,0.05 h 2.45 0.75 l 3.8,-0.1 h 31.6 l 0.35,-0.1 V -39.3 l -0.35,-0.1 m -2.15,1.85 0.7,0.2 0.35,0.45 v 0.55 l -0.1,0.25 0.05,3.35 0.05,-1.8 v 22.5 H 26.65 V 12 h 0.05 v 23.4 l -0.05,-2.7 -0.05,3.35 0.1,0.25 v 0.55 l -0.35,0.45 -0.7,0.2 -0.4,-0.15 h -33.5 -2.55 -14.45 l -0.4,0.15 -0.7,-0.2 q -0.35,-0.2 -0.35,-0.75 l 0.1,-0.5 -0.05,-10.25 v -3 -3.35 l -0.05,-3.8 h 0.05 v -5.2 H -26.7 L -26.65,9.3 V 8.95 8.45 0.45 0.15 -0.2 -0.5 -3 -8.5 -9 -9.35 l -0.05,-1.15 h 0.05 v -5.2 h -0.05 l 0.05,-3.8 v -6.35 l 0.05,-10.25 -0.1,-0.5 q 0,-0.55 0.35,-0.75 l 0.7,-0.2 0.4,0.15 h 14.45 2.55 33.5 l 0.4,-0.15 M 25.25,36 V -36.05 H -25 v 0.25 h -0.15 v 0.05 l 0.15,3.6 V 32.1 l -0.15,3.65 H -25 V 36 h 50.25 m 6.2,6.5 v -85.05 h -62.9 V 42.5 h 62.9"
         fill="#6b6b6b"
         fill-rule="evenodd"
         stroke="none"
         id="path9" />
      <path
         d="m 27.8,-39.4 0.35,0.1 v 78.55 l -0.35,0.1 H -3.8 l -3.8,0.1 H -8.35 -10.8 L -18.95,39.4 H -28.9 L -29.05,38.9 -29,9.3 V 0.45 -0.5 -9.35 l -0.05,-29.6 0.15,-0.5 h 9.95 l 8.15,-0.05 7,0.1 h 31.6 m -2.15,1.85 -0.4,0.15 h -33.5 -2.55 -14.45 l -0.4,-0.15 -0.7,0.2 q -0.35,0.2 -0.35,0.75 l 0.1,0.5 -0.05,10.25 v 6.35 l -0.05,3.8 h 0.05 v 5.2 h -0.05 l 0.05,1.15 v 0.35 0.5 5.5 2.5 0.3 0.35 0.3 8 0.5 0.35 l -0.05,1.15 h 0.05 v 5.2 h -0.05 l 0.05,3.8 v 3.35 3 l 0.05,10.25 -0.1,0.5 q 0,0.55 0.35,0.75 l 0.7,0.2 0.4,-0.15 h 14.45 2.55 33.5 l 0.4,0.15 0.7,-0.2 0.35,-0.45 V 36.3 l -0.1,-0.25 0.05,-3.35 0.05,2.7 V 12 h -0.05 v -24.05 h 0.05 v -22.5 l -0.05,1.8 -0.05,-3.35 0.1,-0.25 v -0.55 l -0.35,-0.45 -0.7,-0.2"
         fill="#877272"
         fill-rule="evenodd"
         stroke="none"
         id="path10" />
      <path
         d="M 28.55,-40.15 28.4,-40.1 28.2,-40 H 26.95 L -3.8,-40.25 v 0.05 l -7,0.05 -8.2,-0.05 h -10.35 l -0.25,0.1 -0.25,0.3 0.1,0.1 -0.05,39.2 h -0.05 v 0.3 h 0.05 l 0.05,39.85 -0.1,0.1 0.25,0.3 0.25,0.1 H -19 l 8.2,-0.05 7,0.05 v 0.05 l 32,-0.25 q 0.05,0.15 0.35,0.15 l 0.4,-0.15 0.1,-0.3 V -39.7 l -0.1,-0.3 -0.4,-0.15 m 2.9,82.65 h -62.9 v -85.05 h 62.9 V 42.5"
         fill="#9a7f7f"
         fill-rule="evenodd"
         stroke="none"
         id="path11" />
    </g>
    <g
       id="sprite1"
       transform="translate(5.4,4)">
      <use
         ffdec:characterId="43"
         height="8"
         transform="translate(-5.4,-4)"
         width="10.8"
         xlink:href="#shape3"
         id="use11" />
    </g>
    <g
       id="shape3"
       transform="translate(5.4,4)">
      <path
         d="m 2.9,-0.35 q 0,-1.25 1.25,-1.25 1.25,0 1.25,1.2 0,1.3 -1.25,1.3 Q 3.6,0.9 3.25,0.5 2.9,0.15 2.9,-0.35 m 0.35,-2.3 q 0,0.55 -0.35,0.9 -0.4,0.45 -1,0.45 -1.35,0 -1.35,-1.4 0,-1.3 1.35,-1.3 1.35,0 1.35,1.35 m -3.1,1.9 h 0.2 q 2.6,0.1 2.6,2.8 l -0.3,1 Q 2.05,4 0.45,4 H 0.35 0.15 0.1 -0.45 q -1.6,0 -2.2,-0.95 l -0.3,-1 q 0,-2.8 2.8,-2.8 h 0.3 M -1.55,-4 q 1.35,0 1.35,1.35 0,0.55 -0.4,0.9 -0.4,0.45 -0.95,0.45 -1.4,0 -1.4,-1.4 0,-1.3 1.4,-1.3 m -2.6,2.4 q 1.25,0 1.25,1.25 0,0.5 -0.35,0.85 -0.35,0.4 -0.9,0.4 -1.25,0 -1.25,-1.3 0,-1.2 1.25,-1.2"
         fill="#6b6b6b"
         fill-opacity="0.32549"
         fill-rule="evenodd"
         stroke="none"
         id="path12" />
    </g>
    <g
       id="sprite2"
       transform="translate(18.25,17.55)">
      <use
         ffdec:characterId="3234"
         height="35.099998"
         transform="translate(-18.25,-17.55)"
         width="36.549999"
         xlink:href="#shape4"
         id="use12" />
    </g>
    <g
       id="shape4"
       transform="translate(18.25,17.55)">
      <path
         d="M -7.4,14.1 Q -7.55,14 -7.85,13.85 l -1.7,-0.9 Q -12.4,11.15 -13.8,8.05 -14.85,6 -15.2,2.9 L -15.4,1 -15.45,-1.45 q -0.05,-4.35 1.9,-7.35 3.3,-5.2 11.85,-5.7 h 0.55 0.65 0.55 0.3 q 9.25,0.3 12.75,5.75 1.85,2.95 1.9,7.3 L 14.85,1.1 14.75,2.95 Q 14.3,6 13.35,8.15 11.9,11.1 9.25,12.95 V 13 Q 8.5,13.35 8,13.8 L 7.85,13.7 Q 6.3,12.95 6.3,11.1 L 6.6,8.9 Q 5.9,6.1 4.4,4.65 L 3.65,3.95 3.55,3.85 Q 3.8,3.05 3.35,2.45 2.95,2 2.7,2.3 L 2.25,2.2 2.1,1.9 1.35,-0.35 q -0.9,-3.8 -1.3,-3.95 -0.55,-0.15 -1.1,1.35 -0.3,0.9 -0.4,2.95 -0.05,1.5 -0.25,2.4 -1,0.25 -1.15,0.65 l 0.15,0.85 0.25,0.45 -0.8,0.9 -0.35,0.4 Q -5.35,7.6 -5.55,8.2 -5.7,8.65 -5.3,9.55 q 0.35,0.95 0.1,1.75 -0.35,1 -1.75,1.95 L -7.4,14.1 m 23.5,-28.65 q -0.05,0.1 0.05,0.1 l -1.3,3.8 q -1.25,-1.7 -3.05,-2.95 l 0.8,-0.15 3.5,-0.8 M 4.25,-6.45 4.2,-6.55 4.15,-6.7 3.3,-8.35 2.9,-8.95 q -2.2,-3.1 -6.05,-3 -0.85,-1.7 -4.7,0.65 -3,1.8 -4.55,3.65 -2.7,3.1 -2.7,7.15 0,1.8 1.4,3.6 1,1.35 2.5,2 l -0.05,-0.2 1.5,0.65 0.55,0.15 v 0.05 l 2.5,0.2 1.4,-0.1 0.55,-0.7 0.75,-0.9 0.05,-0.1 0.7,-1.45 q 0.4,-1.1 0.5,-2.95 L -2.2,-3.3 q 0.9,-2.65 2.45,-2.3 1.6,0.35 1.85,3.1 l 0.85,3 0.95,-1.75 0.3,-0.8 q 0.7,-2.05 0.05,-4.4 m 6.35,1.2 q -3.2,-0.7 -4.25,2.45 -0.3,0.75 -0.1,1.2 0.3,1.3 2.6,2.1 2.8,0.95 3.7,-1.7 1.1,-3.2 -1.95,-4.05 m -25.9,-9.9 3.15,1.35 q -2.05,1.4 -3.4,3.45 l -0.05,-0.15 q -0.95,-2.6 -0.7,-5 l 1,0.35"
         fill="#747474"
         fill-opacity="0.0980392"
         fill-rule="evenodd"
         stroke="none"
         id="path13" />
      <path
         d="m 18.3,-15.2 -0.3,1.35 -1.75,5.1 v 0.5 0.05 q 1.25,2.95 1.25,6.9 l -0.1,2.4 -0.15,1.85 q -0.5,3.75 -2,6.3 -3.2,5.7 -13.45,8.1 Q -1.9,18 -7.3,16.4 -12.7,14.75 -15.8,9.25 -17.2,6.7 -17.75,2.9 l -0.2,-1.85 -0.05,-2.4 q 0.05,-4 1.3,-6.9 -1.1,-1.15 -1.45,-4.3 -0.2,-2.1 0,-4.15 l 0.5,-0.8 2.4,0.35 q 3.7,1.25 4.95,2.3 3.55,-1.75 8.65,-2 l 0.05,-0.05 1.05,0.05 0.6,-0.05 1.15,0.1 0.05,0.05 q 4.9,0.2 8.35,1.9 0.9,-0.45 3.45,-1.1 3.8,-1 4.6,-0.7 0.8,0.25 0.65,1.45 m -2.2,0.65 -3.5,0.8 -0.8,0.15 q 1.8,1.25 3.05,2.95 l 1.3,-3.8 q -0.1,0 -0.05,-0.1 M 7.85,13.7 8,13.8 Q 8.5,13.35 9.25,13 V 12.95 Q 11.9,11.1 13.35,8.15 14.3,6 14.75,2.95 L 14.85,1.1 15,-1.45 Q 14.95,-5.8 13.1,-8.75 9.6,-14.2 0.35,-14.5 H 0.05 -0.5 -1.15 -1.7 q -8.55,0.5 -11.85,5.7 -1.95,3 -1.9,7.35 l 0.05,2.45 0.2,1.9 q 0.35,3.1 1.4,5.15 1.4,3.1 4.25,4.9 l 1.7,0.9 q 0.3,0.15 0.45,0.25 l 0.35,0.2 q 2.1,0.85 4.7,1.15 L 1.7,15.6 -1.7,15.4 1.15,15.45 1.1,15.5 1.8,15.55 Q 5.3,15.05 7.85,13.7 M -2.45,4.35 -2.7,3.9 -2.85,3.05 Q -2.7,2.65 -1.7,2.4 l 0.95,-0.1 1.2,-0.15 1.5,0.05 h 0.3 L 2.7,2.3 Q 2.95,2 3.35,2.45 3.8,3.05 3.55,3.85 L 3.65,3.95 2.7,5.6 1.35,6.65 Q 1.85,7.6 1.8,8.4 2.45,8.5 3.5,9.1 5.95,10.45 5.7,11.15 L 5.2,11.5 4.55,11.45 q -2.4,-1.15 -3.3,-1.9 -2.7,2.35 -3.65,2 -0.7,-0.25 -0.35,-0.9 L -0.35,9 0,8.85 0.15,6.9 0.3,6.55 H 0.25 Q -1.3,6 -2.15,4.8 L -2.2,4.7 -2.3,4.55 -2.45,4.35 m 13.05,-9.6 q 3.05,0.85 1.95,4.05 -0.9,2.65 -3.7,1.7 -2.3,-0.8 -2.6,-2.1 -0.2,-0.45 0.1,-1.2 1.05,-3.15 4.25,-2.45 M 8,-3.15 Q 7.6,-2 8.5,-1.3 l 1.7,0.55 0.55,-0.45 0.4,-0.5 Q 11.6,-3.05 10.1,-3.95 8.55,-4.85 8,-3.15 M -0.5,4.15 0.7,5.1 Q 1.25,5.25 1.65,4.5 L 2.2,3.4 0.75,3.45 -1,3.65 l 0.5,0.5 m -14.8,-19.3 -1,-0.35 q -0.25,2.4 0.7,5 l 0.05,0.15 q 1.35,-2.05 3.4,-3.45 l -3.15,-1.35 m 8.9,14.6 q -0.3,0.95 -1.25,1.6 l -3.45,0.2 q -1.45,-0.5 -1.7,-1.8 -0.15,-0.75 0.1,-1.45 1.1,-3.2 4.25,-2.3 3.05,0.9 2.05,3.75 m -1.55,-1.15 -0.4,-0.9 -2.05,0.05 q -0.6,0.45 -0.8,1.1 -0.3,0.9 1.3,1.45 0.95,0.3 1.6,-0.25 l 0.55,-0.7 -0.2,-0.75"
         fill="#6b6b6b"
         fill-opacity="0.0980392"
         fill-rule="evenodd"
         stroke="none"
         id="path14" />
      <path
         d="M 4.25,-6.45 Q 4.9,-4.1 4.2,-2.05 L 3.9,-1.25 2.95,0.5 2.1,-2.5 Q 1.85,-5.25 0.25,-5.6 -1.3,-5.95 -2.2,-3.3 l -0.55,3.05 q -0.1,1.85 -0.5,2.95 l -0.7,1.45 -0.05,0.1 -0.75,0.9 -0.55,0.7 -1.4,0.1 -2.5,-0.2 V 5.7 l -0.55,-0.15 -1.5,-0.65 0.05,0.2 q -1.5,-0.65 -2.5,-2 -1.4,-1.8 -1.4,-3.6 0,-4.05 2.7,-7.15 1.55,-1.85 4.55,-3.65 3.85,-2.35 4.7,-0.65 3.85,-0.1 6.05,3 l 0.4,0.6 0.85,1.65 0.05,0.15 0.05,0.1 m -10.65,5.9 q 1,-2.85 -2.05,-3.75 -3.15,-0.9 -4.25,2.3 -0.25,0.7 -0.1,1.45 0.25,1.3 1.7,1.8 l 3.45,-0.2 Q -6.7,0.4 -6.4,-0.55"
         fill="#858585"
         fill-opacity="0.0980392"
         fill-rule="evenodd"
         stroke="none"
         id="path15" />
      <path
         d="m -1.7,2.4 q 0.2,-0.9 0.25,-2.4 0.1,-2.05 0.4,-2.95 0.55,-1.5 1.1,-1.35 0.4,0.15 1.3,3.95 L 2.1,1.9 1.95,2.2 0.45,2.15 -0.75,2.3 -1.7,2.4 M 8,-3.15 q 0.55,-1.7 2.1,-0.8 1.5,0.9 1.05,2.25 L 10.75,-1.2 10.2,-0.75 8.5,-1.3 Q 7.6,-2 8,-3.15 m -15.95,1.45 0.2,0.75 -0.55,0.7 Q -8.95,0.3 -9.9,0 q -1.6,-0.55 -1.3,-1.45 0.2,-0.65 0.8,-1.1 l 2.05,-0.05 0.4,0.9"
         fill="#e9e9e9"
         fill-opacity="0.0980392"
         fill-rule="evenodd"
         stroke="none"
         id="path16" />
      <path
         d="M 2.1,1.9 2.25,2.2 H 1.95 L 2.1,1.9"
         fill="#bbbbbb"
         fill-opacity="0.0980392"
         fill-rule="evenodd"
         stroke="none"
         id="path17" />
      <path
         d="M 0.75,3.45 2.2,3.4 1.65,4.5 Q 1.25,5.25 0.7,5.1 L -0.5,4.15 0.75,3.45"
         fill="#ad9797"
         fill-opacity="0.0980392"
         fill-rule="evenodd"
         stroke="none"
         id="path18" />
      <path
         d="m -7.4,14.1 0.45,-0.85 Q -5.55,12.3 -5.2,11.3 -4.95,10.5 -5.3,9.55 -5.7,8.65 -5.55,8.2 -5.35,7.6 -3.6,5.65 l 0.35,-0.4 1.1,-0.45 Q -1.3,6 0.25,6.55 H 0.3 L 0.15,6.9 0,8.85 -0.35,9 l -2.4,1.65 q -0.35,0.65 0.35,0.9 0.95,0.35 3.65,-2 0.9,0.75 3.3,1.9 L 5.2,11.5 5.7,11.15 Q 5.95,10.45 3.5,9.1 2.45,8.5 1.8,8.4 1.85,7.6 1.35,6.65 L 2.7,5.6 3.65,3.95 4.4,4.65 Q 5.9,6.1 6.6,8.9 l -0.3,2.2 q 0,1.85 1.55,2.6 Q 5.3,15.05 1.8,15.55 L 1.1,15.5 1.15,15.45 -1.7,15.4 1.7,15.6 -2.35,15.45 q -2.6,-0.3 -4.7,-1.15 L -7.4,14.1"
         fill="#d0d0d0"
         fill-opacity="0.0980392"
         fill-rule="evenodd"
         stroke="none"
         id="path19" />
      <path
         d="m -3.25,5.25 0.8,-0.9 0.15,0.2 0.1,0.15 0.05,0.1 -1.1,0.45 m 4,-1.8 -1.25,0.7 -0.5,-0.5 1.75,-0.2"
         fill="#cccccc"
         fill-opacity="0.0980392"
         fill-rule="evenodd"
         stroke="none"
         id="path20" />
    </g>
    <g
       id="sprite3"
       transform="translate(5.4,4)">
      <use
         ffdec:characterId="43"
         height="8"
         transform="translate(-5.4,-4)"
         width="10.8"
         xlink:href="#shape5"
         id="use20" />
    </g>
    <g
       id="shape5"
       transform="translate(5.4,4)">
      <path
         d="m 2.9,-0.35 q 0,-1.25 1.25,-1.25 1.25,0 1.25,1.2 0,1.3 -1.25,1.3 Q 3.6,0.9 3.25,0.5 2.9,0.15 2.9,-0.35 m 0.35,-2.3 q 0,0.55 -0.35,0.9 -0.4,0.45 -1,0.45 -1.35,0 -1.35,-1.4 0,-1.3 1.35,-1.3 1.35,0 1.35,1.35 m -3.1,1.9 h 0.2 q 2.6,0.1 2.6,2.8 l -0.3,1 Q 2.05,4 0.45,4 H 0.35 0.15 0.1 -0.45 q -1.6,0 -2.2,-0.95 l -0.3,-1 q 0,-2.8 2.8,-2.8 h 0.3 M -1.55,-4 q 1.35,0 1.35,1.35 0,0.55 -0.4,0.9 -0.4,0.45 -0.95,0.45 -1.4,0 -1.4,-1.4 0,-1.3 1.4,-1.3 m -2.6,2.4 q 1.25,0 1.25,1.25 0,0.5 -0.35,0.85 -0.35,0.4 -0.9,0.4 -1.25,0 -1.25,-1.3 0,-1.2 1.25,-1.2"
         fill="#6b6b6b"
         fill-opacity="0.176471"
         fill-rule="evenodd"
         stroke="none"
         id="path21" />
    </g>
  </defs>
</svg>
