<?xml version="1.0" encoding="UTF-8" standalone="no"?>
<svg
   ffdec:objectType="frame"
   height="91.003517"
   width="37.5"
   version="1.1"
   id="svg7"
   sodipodi:docname="1.svg"
   xmlns:inkscape="http://www.inkscape.org/namespaces/inkscape"
   xmlns:sodipodi="http://sodipodi.sourceforge.net/DTD/sodipodi-0.dtd"
   xmlns:xlink="http://www.w3.org/1999/xlink"
   xmlns="http://www.w3.org/2000/svg"
   xmlns:svg="http://www.w3.org/2000/svg"
   xmlns:ffdec="https://www.free-decompiler.com/flash">
  <sodipodi:namedview
     id="namedview7"
     pagecolor="#ffffff"
     bordercolor="#000000"
     borderopacity="0.25"
     inkscape:showpageshadow="2"
     inkscape:pageopacity="0.0"
     inkscape:pagecheckerboard="0"
     inkscape:deskcolor="#d1d1d1"
     fit-margin-top="5"
     fit-margin-left="5"
     fit-margin-right="5"
     fit-margin-bottom="5" />
  <g
     transform="translate(18.75,45.503518)"
     id="g1">
    <use
       ffdec:characterId="1802"
       height="91"
       transform="translate(-18.75,-45.5)"
       width="37.5"
       xlink:href="#shape0"
       id="use1" />
  </g>
  <defs
     id="defs7">
    <g
       id="shape0"
       transform="translate(18.75,45.5)">
      <path
         d="m 5.2,-32.6 0.85,-1.1 1.25,-1.8 h 2.1 q 1.4,0 2.25,0.95 0.6,0.75 0.6,1.5 0,2.05 -2.45,3.05 l -3.9,1.2 0.2,-0.9 q 0,-1.65 -0.9,-2.9 m -2.5,-9.75 q 2.2,0 2.2,2.95 0,1.5 -0.95,3.5 l -0.75,1.6 -1.6,-0.5 q -2.05,-0.25 -3.2,0.8 l -0.7,-0.45 q -1.2,-0.6 -1.2,-1.5 0,-3.5 3.5,-6.3 l 2.7,-0.1 M 1,-3.7 v -0.2 q 0.1,-1 0.9,-1.9 l 2.6,-0.1 1.05,0.45 0.2,0.15 Q 4.95,-4.2 4.8,-2.35 L 4.2,-2.15 2.8,-1.85 2.05,-2 1.95,-2.1 1.55,-2.4 1.5,-2.5 Q 1,-3 1,-3.7 M 7.25,-6.55 6.45,-7.5 q -1.05,-1 -1.05,-1.6 0,-0.65 1,-2.65 1.9,-0.25 3,0.5 0.8,0.55 0.8,1.1 0,1.2 -0.95,2.25 l -0.75,1 -1.25,0.35 M 0.85,-26 0.7,-25.3 0.35,-24.5 q -1.1,2.65 -3.55,2.65 -0.9,0 -1.55,-0.55 -0.7,-0.5 -0.7,-1.15 0,-0.95 1.65,-1.8 l 2.15,-1.2 0.5,-0.3 q 0.8,0.6 2,0.85 m 2.1,0.05 q 1.15,-0.25 2,-1.25 1.45,0.1 2.45,0.7 1.1,0.65 1.1,1.3 l -0.45,1.9 q -0.7,1.9 -1.7,1.9 -1.7,0 -2.75,-2.9 L 2.95,-25.95 M 14.7,3.9 13.9,5.05 11.65,5.15 Q 11.05,4.8 10.25,2.8 L 9.75,1.7 q 2.1,-0.15 3.1,-1.4 l 0.7,0.55 q 1.7,1.25 1.7,1.9 L 14.7,3.9 M 11.55,-6.4 q 0.25,-0.85 1.65,-0.85 1.2,0 2.25,0.9 1,0.85 1,1.6 0,1.45 -2.3,2.45 L 13.6,-2 v -0.75 q 0,-1.95 -1.4,-3.2 L 11.55,-6.4 M 6.25,1.05 7.95,1.6 8.15,1.65 7.7,2.8 7.55,3.2 Q 6.95,4.45 5.05,4.55 H 4.65 Q 4.2,4.55 3.9,3.7 L 3.7,2.45 q 0,-1 1.5,-2.25 L 5.25,0.15 5.4,0.35 6.25,1.05 M 8.8,13.6 q 0.3,0 0.55,1.5 v 0.05 Q 7.2,15.35 6.45,17.4 L 6.2,17 Q 5.85,16.45 5.85,15.65 5.65,15.1 5.9,14.6 q 0.55,-1 2.9,-1 m -4.95,7.5 0.2,-1.05 q 0.4,-0.8 1.2,-0.9 L 5.55,19.1 6,19.4 6.1,19.45 v 0.4 L 6.8,21 6.35,21.5 Q 6.05,22 5.3,22.15 l -1,0.1 H 3.9 L 3.85,22.2 3.9,22.1 3.85,21.1 m 9.15,0.35 0.3,-0.4 q 0.6,-0.9 0.6,-2.25 v -0.45 q 1.65,0 2.15,0.85 l 0.15,1.55 -0.05,0.7 -0.55,0.85 -2.25,0.1 -0.75,-0.65 0.4,-0.3 m -1.65,-6.15 0.1,-0.6 0.1,-0.2 0.3,-0.5 3.15,-0.1 q 0.7,0.6 0.7,1.7 l -1.25,0.95 -0.95,0.6 Q 13.2,16.55 12.7,16.1 12.05,15.55 11.35,15.3 M 9.3,22.35 h 0.2 l 0.75,0.05 h 0.35 0.05 l 0.2,0.9 0.05,0.15 q -0.1,0.65 -0.9,1 L 9.15,24.6 8.45,24.65 H 8.2 q -0.5,0 -0.6,-0.5 V 23.4 23.05 q 0,-0.35 0.35,-0.65 l 0.25,-0.35 1.1,0.3 M -14.15,-6.6 -14,-6.7 h 0.6 l 0.15,-0.05 0.45,0.35 -0.55,1.6 -1.35,-0.4 -0.05,-0.4 q 0,-0.6 0.6,-1 m 0,-1.75 0.05,0.1 -1.25,-0.1 -0.45,-1.25 0.3,-1.1 q 0.65,-0.95 2.45,-0.95 -1.1,1.25 -1.1,3.3 m 5.7,-6.3 v 0.2 l -0.25,0.9 -1.75,0.3 -0.95,0.4 -0.4,-0.25 q -0.4,-0.25 -0.4,-0.7 l 0.3,-1.35 q 0.7,-1.3 2.4,-1.3 1.05,0 1.05,1.8 m 1.15,1.8 0.5,-0.6 q 0.85,-1 1.65,-1 l 1.1,0.6 q 0.55,0.55 0.55,1 0,0.95 -1.2,1.5 l -1.7,0.6 h -0.4 q 0,-1.4 -0.5,-2.1 m 3.25,-19.6 1.4,0.35 -0.25,2.25 0.15,0.85 -1.2,0.3 q -2.55,-1 -2.55,-2.05 l 0.2,-0.9 q 0.55,-0.8 2.25,-0.8 M -4.5,-7.6 v 0.05 l -0.3,0.5 q -0.45,0.5 -1.15,0.5 -0.55,0 -1.15,-0.4 -0.4,-0.3 -0.95,-0.4 L -7.6,-8 l 0.45,-0.85 0.6,0.25 q 1.7,0.5 2.05,1 m -7.65,3.25 0.2,-1.8 0.95,0.1 0.85,-0.05 0.55,0.9 0.55,0.9 -0.1,1.1 q -0.6,0.3 -1.5,0.3 l -1.4,-1.15 -0.1,-0.3 m 6,11.75 q 0,0.45 -0.75,2.6 -1.15,-0.8 -2.65,-0.7 l -0.7,0.1 -0.4,-0.45 q -0.65,-0.6 -0.65,-1.45 0,-2.95 2.6,-3.7 2.55,-0.75 2.55,3.6 m -8.3,8.85 0.7,-0.1 0.1,0.35 1.05,0.9 -0.25,0.45 q -0.65,1.4 -1.75,1.4 -0.5,0 -1.2,-0.55 -0.75,-0.55 -0.75,-1.1 0,-1.1 2.1,-1.35 m -1.6,-5.25 0.55,-0.7 q 0.75,-0.6 2.1,-0.6 0.15,0 0.75,0.75 l 0.1,0.1 q -1.1,1.05 -1.35,3.05 l -0.3,-0.2 Q -16.05,12.45 -16.05,11 M -5,11.4 q 0.7,-0.65 1.35,-0.65 h 0.1 q 1.35,0 2,0.5 l 0.35,0.4 q 0.25,0.4 0.25,1.35 l -0.1,1.2 -0.15,0.25 q -0.5,0.65 -1.75,0.75 h -0.5 l -1.45,-0.35 -0.35,-0.25 0.1,-1.35 q 0,-0.8 -0.25,-1.45 L -5,11.4 m -5.35,7.3 0.15,-0.8 h 0.4 l 1.95,-0.25 q 0.6,-0.2 1.05,-0.5 0.75,1.2 0.75,1.35 l -0.2,1.4 -1.2,0.55 -2.35,0.15 q -0.55,-0.5 -0.55,-1.9"
         fill="#e0e0e0"
         fill-rule="evenodd"
         stroke="none"
         id="path1" />
      <path
         d="m 5.95,-42 q 1.1,1.75 1.1,2.9 l -0.3,2.1 2.15,-0.35 q 5.15,0.05 5.15,5.15 0,1.2 -1.45,2.75 -1.7,1.75 -3.85,1.8 1.6,1 1.6,2.4 0,1.15 -1.05,3.3 -1.3,2.55 -2.75,2.55 -2.6,0 -3.75,-1.8 l -0.15,-0.4 -0.15,1.85 -0.3,4.8 -0.15,1.35 V -8 L 3.6,-8.9 q 0.4,-0.35 0.1,-2 1.8,-4.25 5.3,-3.25 3.55,0.95 2.2,5.1 l 2.05,-0.2 q 2.6,0 4.1,2.15 0.95,1.4 0.95,2.35 0,1.1 -0.75,2.4 -0.85,1.55 -2.1,1.95 l 1.45,1.7 q 0.35,0.55 0.35,1.5 0,1.5 -0.65,2.6 -0.7,1.2 -2.15,1.65 -0.35,1.2 -3.2,3.5 L 10,11.5 q 1,0.3 1.35,1.25 l 0.35,-0.3 3.1,-0.4 q 2.25,0 2.45,2.55 0.05,1.3 -0.3,2.75 l 1.15,3.3 -0.05,1.25 0.6,0.55 0.1,0.95 q 0,1.6 -2.6,3.25 -1.85,1.15 -3.9,1.55 l 0.1,0.75 0.1,2.05 -0.05,1.4 -0.05,0.25 -0.1,0.3 0.05,0.3 q 0,1.2 -1.65,1.4 v -0.1 h -1.3 v 0.7 l -0.9,4 -0.7,3.2 -0.1,0.4 -0.1,0.6 0.1,1.1 q -0.2,0.6 -1.55,0.95 h -14 q -1.35,-0.35 -1.55,-0.95 l 0.1,-1.1 -0.05,-0.6 -0.1,-0.4 -0.75,-3.2 -0.9,-4 0.05,-0.7 q -3.3,0.2 -3.3,-1.45 l 0.05,-0.3 -0.15,-0.55 -0.05,-1.4 q 0,-2.2 0.35,-3.3 l -1.3,-0.9 q -0.9,-0.95 -0.9,-2 0,-2.65 2.6,-2.9 l -0.9,-0.05 q -2.2,0 -3.35,-1.95 l -0.7,-2.05 q 0,-0.55 0.75,-1.6 l 0.75,-1.35 q -0.95,-3.05 -0.95,-4 0,-1.25 0.95,-2.2 1.4,-1.4 4.6,-1.3 1.1,-6.2 5.05,-5.2 Q -6.05,2.4 -5.1,4 L -5.75,1.95 -7.6,-2.8 q -0.45,1.55 -2.4,1.55 -1.8,0 -2.8,-1.4 l -0.4,-0.6 h -0.35 q -1.45,0 -2.1,-0.95 -0.4,-0.55 -0.4,-1.15 0,-0.65 0.4,-1.35 l -1.5,-1.35 -0.1,-1.05 q 0,-2 1,-3.05 1,-1.1 2.85,-0.4 l -0.1,-1.15 q 0,-3 3.05,-3.75 3.05,-0.75 3.05,1.75 v 0.35 l 1.95,-0.35 q 3.3,0.05 3.3,2.75 0,1.05 -1,2.1 l -0.9,0.8 q 1.35,0.7 1.6,2 l 0.7,0.45 1.35,1.35 L 0.35,-7 0.4,-9.85 v -9.45 l 0.15,-1.75 0.05,-0.2 q -1.3,1.35 -3.2,1.35 -2.8,0 -3.95,-1.65 -0.65,-1 -0.65,-2.2 0,-1.2 1.2,-2.7 l 0.15,-0.15 -1.8,-1.2 q -1.25,-1.25 -1.25,-2.2 0,-1.85 0.3,-2.45 0.55,-1.15 3,-2.45 -0.2,-2.7 0.9,-5.1 3.5,-7.4 7.9,-4.85 1.6,0.95 2.75,2.85 M 2.7,-42.35 0,-42.25 q -3.5,2.8 -3.5,6.3 0,0.9 1.2,1.5 l 0.7,0.45 q 1.15,-1.05 3.2,-0.8 l 1.6,0.5 0.75,-1.6 q 0.95,-2 0.95,-3.5 0,-2.95 -2.2,-2.95 m 2.5,9.75 q 0.9,1.25 0.9,2.9 l -0.2,0.9 3.9,-1.2 q 2.45,-1 2.45,-3.05 0,-0.75 -0.6,-1.5 Q 10.8,-35.5 9.4,-35.5 H 7.3 l -1.25,1.8 -0.85,1.1 m -3.15,0.45 q -3.25,-0.3 -3.25,0.7 0,1.25 0.4,1.85 0.75,1.15 3.05,1.15 1.15,0 1.45,-2.1 l -0.6,-0.8 -1.05,-0.8 m 0.9,6.2 0.65,1.65 q 1.05,2.9 2.75,2.9 1,0 1.7,-1.9 l 0.45,-1.9 q 0,-0.65 -1.1,-1.3 -1,-0.6 -2.45,-0.7 -0.85,1 -2,1.25 M 0.85,-26 q -1.2,-0.25 -2,-0.85 l -0.5,0.3 -2.15,1.2 q -1.65,0.85 -1.65,1.8 0,0.65 0.7,1.15 0.65,0.55 1.55,0.55 2.45,0 3.55,-2.65 L 0.7,-25.3 0.85,-26 m 6.4,19.45 1.25,-0.35 0.75,-1 q 0.95,-1.05 0.95,-2.25 0,-0.55 -0.8,-1.1 -1.1,-0.75 -3,-0.5 -1,2 -1,2.65 0,0.6 1.05,1.6 l 0.8,0.95 M 1,-3.7 q 0,0.7 0.5,1.2 l 0.05,0.1 0.4,0.3 0.1,0.1 0.75,0.15 1.4,-0.3 0.6,-0.2 Q 4.95,-4.2 5.75,-5.3 L 5.55,-5.45 4.5,-5.9 1.9,-5.8 Q 1.1,-4.9 1,-3.9 v 0.2 M 0.1,-1 -0.75,-1.8 q -0.2,-0.3 -0.2,-1.8 v -0.15 q -0.7,-1.65 -1.9,-2.35 l -0.4,0.5 -0.25,0.2 -0.15,0.9 q 0,1.7 1.25,3.7 L 0.25,3.5 V 2.3 L 0.3,0.25 V -0.4 L 0.1,-1 m 8.1,0.2 h 2.1 l 1.15,-1.1 0.05,-1 q 0,-1.6 -2.45,-1.8 -2.5,-0.15 -2.5,1.95 0,1.25 0.65,1.7 l 1,0.25 m 3.35,-5.6 0.65,0.45 q 1.4,1.25 1.4,3.2 V -2 l 0.55,-0.3 q 2.3,-1 2.3,-2.45 0,-0.75 -1,-1.6 -1.05,-0.9 -2.25,-0.9 -1.4,0 -1.65,0.85 M 14.7,3.9 15.25,2.75 q 0,-0.65 -1.7,-1.9 L 12.85,0.3 q -1,1.25 -3.1,1.4 l 0.5,1.1 q 0.8,2 1.4,2.35 L 13.9,5.05 14.7,3.9 M 12.65,7.25 11.05,7.2 Q 7.75,7.65 6.1,11.3 v 0.15 q 1.3,-0.1 3.35,-1.4 1.8,-1.2 3,-2.5 l 0.2,-0.3 M 6.25,1.05 5.4,0.35 5.25,0.15 5.2,0.2 Q 3.7,1.45 3.7,2.45 L 3.9,3.7 q 0.3,0.85 0.75,0.85 h 0.4 Q 6.95,4.45 7.55,3.2 L 7.7,2.8 8.15,1.65 7.95,1.6 6.25,1.05 M 2.05,0.15 V 0.5 L 2.2,0.2 2.05,0.15 M 0.25,6.8 Q -1.35,6.35 -2.9,3.6 l 0.5,2.4 0.45,2.5 q 1.35,0.1 2.2,0.8 V 6.8 M 4.5,6.65 Q 2.8,6.35 2.05,5 v 12.6 l 0.1,2.3 0.25,-0.55 Q 2.6,18.95 2.95,18.7 3.15,14 3.75,10.4 4.05,8.45 4.5,6.65 M 6.3,8.8 Q 7.45,7.6 9.35,6.6 L 8.7,5.35 7.65,6.4 6.75,6.65 6.3,8.8 m 2.5,4.8 q -2.35,0 -2.9,1 -0.25,0.5 -0.05,1.05 0,0.8 0.35,1.35 l 0.25,0.4 Q 7.2,15.35 9.35,15.15 V 15.1 Q 9.1,13.6 8.8,13.6 m -8.55,3.2 -1.15,0.6 q 0.25,3.35 0.25,6.65 l 0.7,0.05 0.2,-6.65 V 16.8 m 3.6,4.3 0.05,1 -0.05,0.1 0.05,0.05 h 0.4 l 1,-0.1 Q 6.05,22 6.35,21.5 L 6.8,21 6.1,19.85 v -0.4 L 6,19.4 5.55,19.1 5.25,19.15 q -0.8,0.1 -1.2,0.9 L 3.85,21.1 M 2.35,24.45 2.8,24.4 v -1.3 l -0.55,-0.6 0.1,1.95 m 6.2,-4.85 q 0.55,0.6 1,0.6 1.5,0 2.05,-0.75 l 0.2,-0.8 q 0,-1.25 -1.85,-1.4 -1.9,-0.15 -1.9,1.7 l 0.5,0.65 m -3,4.8 H 5.5 l 0.1,0.9 0.6,-0.8 V 24.4 H 5.55 M 9.3,22.35 8.2,22.05 7.95,22.4 Q 7.6,22.7 7.6,23.05 v 0.35 0.75 q 0.1,0.5 0.6,0.5 H 8.45 L 9.15,24.6 10,24.45 q 0.8,-0.35 0.9,-1 L 10.85,23.3 10.65,22.4 H 10.6 10.25 L 9.5,22.35 H 9.3 m 2.05,-7.05 q 0.7,0.25 1.35,0.8 0.5,0.45 0.8,1.05 l 0.95,-0.6 1.25,-0.95 q 0,-1.1 -0.7,-1.7 l -3.15,0.1 -0.3,0.5 -0.1,0.2 -0.1,0.6 m 1.65,6.15 -0.4,0.3 0.75,0.65 2.25,-0.1 0.55,-0.85 0.05,-0.7 -0.15,-1.55 q -0.5,-0.85 -2.15,-0.85 v 0.45 q 0,1.35 -0.6,2.25 l -0.3,0.4 m -0.4,2.6 q 0.15,0.75 -0.7,1.45 -0.8,0.7 -2.3,0.9 v 0.2 h 0.55 l 1.55,-0.35 q 5.1,-1.1 5.5,-2.65 -1.4,0.95 -4.6,0.45 m -4.7,2.4 -0.7,-0.3 -0.55,0.45 h 1.2 L 7.9,26.45 M 5.7,26.25 5.75,26.6 H 6.2 L 5.7,26.25 m 4.3,4.6 v -1.3 H 3.95 L 3.4,29.45 h -8.6 l -0.55,0.1 h -6.05 v 1.3 1.05 h 1.35 l 0.5,0.05 H 8.15 L 8.65,31.9 H 10 V 30.85 M 0,25.9 -0.65,25.25 V 26.7 H 0 v -0.8 m 2.35,0.8 H 3 L 2.9,26 2.35,26.35 v 0.35 m 4,7.7 H -8.1 l 0.15,0.7 0.5,3.35 0.5,3.6 0.1,0.4 v 0.05 l 2.75,0.05 h 0.3 0.3 0.8 0.7 0.55 l 6.5,-0.05 0.05,-0.05 0.05,-0.4 0.5,-3.6 0.5,-3.35 0.2,-0.7 m -10.4,-66.85 q -1.7,0 -2.25,0.8 l -0.2,0.9 q 0,1.05 2.55,2.05 l 1.2,-0.3 -0.15,-0.85 0.25,-2.25 -1.4,-0.35 m -3.25,19.6 q 0.5,0.7 0.5,2.1 h 0.4 l 1.7,-0.6 q 1.2,-0.55 1.2,-1.5 0,-0.45 -0.55,-1 l -1.1,-0.6 q -0.8,0 -1.65,1 l -0.5,0.6 m -1.15,-1.8 q 0,-1.8 -1.05,-1.8 -1.7,0 -2.4,1.3 l -0.3,1.35 q 0,0.45 0.4,0.7 l 0.4,0.25 0.95,-0.4 1.75,-0.3 0.25,-0.9 v -0.2 m -5.7,6.3 q 0,-2.05 1.1,-3.3 -1.8,0 -2.45,0.95 l -0.3,1.1 0.45,1.25 1.25,0.1 -0.05,-0.1 m 0,1.75 q -0.6,0.4 -0.6,1 l 0.05,0.4 1.35,0.4 0.55,-1.6 -0.45,-0.35 -0.15,0.05 H -14 l -0.15,0.1 m 3.3,-1.3 q 1.15,0 1.85,-1.5 l 0.45,-1.25 q 0,-1.6 -1.8,-0.75 -1.85,0.8 -1.85,2.1 0,1.4 1.35,1.4 m -1.3,3.55 0.1,0.3 1.4,1.15 q 0.9,0 1.5,-0.3 l 0.1,-1.1 -0.55,-0.9 -0.55,-0.9 -0.85,0.05 -0.95,-0.1 -0.2,1.8 M -4.5,-7.6 q -0.35,-0.5 -2.05,-1 L -7.15,-8.85 -7.6,-8 -8.05,-7.35 q 0.55,0.1 0.95,0.4 0.6,0.4 1.15,0.4 0.7,0 1.15,-0.5 l 0.3,-0.5 V -7.6 m -0.9,3.45 0.05,-0.5 -0.3,0.05 0.25,0.45 M -6.15,7.4 q 0,-4.35 -2.55,-3.6 -2.6,0.75 -2.6,3.7 0,0.85 0.65,1.45 l 0.4,0.45 0.7,-0.1 Q -8.05,9.2 -6.9,10 -6.15,7.85 -6.15,7.4 M -3.95,8.6 -4.15,7.7 -4.2,8.65 -3.95,8.6 M -5,11.4 -5.4,11.8 q 0.25,0.65 0.25,1.45 l -0.1,1.35 0.35,0.25 1.45,0.35 h 0.5 q 1.25,-0.1 1.75,-0.75 l 0.15,-0.25 0.1,-1.2 q 0,-0.95 -0.25,-1.35 l -0.35,-0.4 q -0.65,-0.5 -2,-0.5 h -0.1 Q -4.3,10.75 -5,11.4 M -16.05,11 q 0,1.45 1.85,2.4 l 0.3,0.2 q 0.25,-2 1.35,-3.05 l -0.1,-0.1 q -0.6,-0.75 -0.75,-0.75 -1.35,0 -2.1,0.6 l -0.55,0.7 m 1.6,5.25 q -2.1,0.25 -2.1,1.35 0,0.55 0.75,1.1 0.7,0.55 1.2,0.55 1.1,0 1.75,-1.4 l 0.25,-0.45 -1.05,-0.9 -0.1,-0.35 -0.7,0.1 m 2.35,-1.8 0.7,1.2 2.8,-0.15 0.45,-0.45 0.55,-0.75 0.1,-0.6 v -0.35 q 0,-1.8 -2.4,-1.45 -2.45,0.3 -2.45,1.75 l 0.25,0.8 m -2.8,10.05 q 0,0.95 1.55,1.65 l 1.55,0.45 h 4.5 L -7.25,26.45 -7.3,25.9 q -0.4,-1.35 -3.5,-2.25 -4.1,-1.2 -4.1,0.85 m 4.55,-5.8 q 0,1.4 0.55,1.9 l 2.35,-0.15 1.2,-0.55 0.2,-1.4 q 0,-0.15 -0.75,-1.35 -0.45,0.3 -1.05,0.5 L -9.8,17.9 h -0.4 l -0.15,0.8 m 6.7,-0.8 v 2.8 q -0.4,1.2 -1.65,1.85 l 0.05,1.2 q 0.8,-0.4 2.1,0 l 0.35,0.15 0.1,-3.6 -0.05,-2.5 -0.9,0.1 m -3.7,5.6 v -0.4 l -0.5,0.05 0.5,0.35 m 2.35,2.25 0.15,0.7 0.1,0.15 0.25,0.1 h 1 v -0.1 l 0.45,-1.05 -0.9,-0.25 H -4.7 L -5,25.75"
         fill="#6b6b6b"
         fill-rule="evenodd"
         stroke="none"
         id="path2" />
      <path
         d="M 10,30.85 V 31.9 H 8.65 l -0.5,0.05 h -18.1 l -0.5,-0.05 h -1.35 v -1.05 -1.3 h 6.05 l 0.55,-0.1 h 8.6 l 0.55,0.1 H 10 v 1.3"
         fill="#b8b8b8"
         fill-rule="evenodd"
         stroke="none"
         id="path3" />
      <path
         d="M 5.7,26.25 6.2,26.6 H 5.75 L 5.7,26.25 m 2.2,0.2 -0.05,0.15 h -1.2 l 0.55,-0.45 0.7,0.3 M 2.35,26.7 V 26.35 L 2.9,26 3,26.7 H 2.35 M 0,25.9 v 0.8 H -0.65 V 25.25 L 0,25.9 m -5,-0.15 0.3,-0.45 h 0.75 l 0.9,0.25 -0.45,1.05 v 0.1 h -1 L -4.75,26.6 -4.85,26.45 -5,25.75"
         fill="#7b7b7b"
         fill-rule="evenodd"
         stroke="none"
         id="path4" />
      <path
         d="m 6.35,34.4 -0.2,0.7 -0.5,3.35 -0.5,3.6 -0.05,0.4 -0.05,0.05 -6.5,0.05 H -2 -2.7 -3.5 -3.8 -4.1 L -6.85,42.5 v -0.05 l -0.1,-0.4 -0.5,-3.6 -0.5,-3.35 -0.15,-0.7 H 6.35"
         fill="#a6a6a6"
         fill-rule="evenodd"
         stroke="none"
         id="path5" />
      <path
         d="m 2.05,-32.15 1.05,0.8 0.6,0.8 q -0.3,2.1 -1.45,2.1 -2.3,0 -3.05,-1.15 -0.4,-0.6 -0.4,-1.85 0,-1 3.25,-0.7 M 8.2,-0.8 7.2,-1.05 q -0.65,-0.45 -0.65,-1.7 0,-2.1 2.5,-1.95 2.45,0.2 2.45,1.8 l -0.05,1 -1.15,1.1 H 8.2 m 0.35,20.4 -0.5,-0.65 q 0,-1.85 1.9,-1.7 1.85,0.15 1.85,1.4 l -0.2,0.8 q -0.55,0.75 -2.05,0.75 -0.45,0 -1,-0.6 m -19.4,-27.5 q -1.35,0 -1.35,-1.4 0,-1.3 1.85,-2.1 1.8,-0.85 1.8,0.75 L -9,-9.4 q -0.7,1.5 -1.85,1.5 m -1.25,22.35 -0.25,-0.8 q 0,-1.45 2.45,-1.75 2.4,-0.35 2.4,1.45 v 0.35 l -0.1,0.6 -0.55,0.75 -0.45,0.45 -2.8,0.15 -0.7,-1.2"
         fill="#bcbaab"
         fill-rule="evenodd"
         stroke="none"
         id="path6" />
      <path
         d="m 0.1,-1 0.2,0.6 V 0.25 L 0.25,2.3 V 3.5 L -2.4,-0.8 q -1.25,-2 -1.25,-3.7 l 0.15,-0.9 0.25,-0.2 0.4,-0.5 q 1.2,0.7 1.9,2.35 v 0.15 q 0,1.5 0.2,1.8 L 0.1,-1 m 12.55,8.25 -0.2,0.3 q -1.2,1.3 -3,2.5 -2.05,1.3 -3.35,1.4 V 11.3 Q 7.75,7.65 11.05,7.2 l 1.6,0.05 m -0.05,16.8 q 3.2,0.5 4.6,-0.45 -0.4,1.55 -5.5,2.65 L 10.15,26.6 H 9.6 v -0.2 q 1.5,-0.2 2.3,-0.9 0.85,-0.7 0.7,-1.45 m -27.5,0.45 q 0,-2.05 4.1,-0.85 3.1,0.9 3.5,2.25 l 0.05,0.55 -0.05,0.15 h -4.5 l -1.55,-0.45 q -1.55,-0.7 -1.55,-1.65"
         fill="#b0bcab"
         fill-rule="evenodd"
         stroke="none"
         id="path7" />
    </g>
  </defs>
</svg>
