<?xml version="1.0" encoding="UTF-8" standalone="no"?>
<svg
   ffdec:objectType="frame"
   height="95.024323"
   width="75.200401"
   version="1.1"
   id="svg48"
   sodipodi:docname="2.svg"
   xmlns:inkscape="http://www.inkscape.org/namespaces/inkscape"
   xmlns:sodipodi="http://sodipodi.sourceforge.net/DTD/sodipodi-0.dtd"
   xmlns:xlink="http://www.w3.org/1999/xlink"
   xmlns="http://www.w3.org/2000/svg"
   xmlns:svg="http://www.w3.org/2000/svg"
   xmlns:ffdec="https://www.free-decompiler.com/flash">
  <sodipodi:namedview
     id="namedview48"
     pagecolor="#ffffff"
     bordercolor="#000000"
     borderopacity="0.25"
     inkscape:showpageshadow="2"
     inkscape:pageopacity="0.0"
     inkscape:pagecheckerboard="0"
     inkscape:deskcolor="#d1d1d1"
     fit-margin-top="5"
     fit-margin-left="5"
     fit-margin-right="5"
     fit-margin-bottom="5" />
  <g
     transform="translate(37.65,50.35)"
     id="g24">
    <use
       ffdec:characterId="814"
       height="7.6500001"
       transform="matrix(0,1,-0.8684,0,25.9,40.75)"
       width="2.8"
       xlink:href="#sprite0"
       id="use1" />
    <use
       ffdec:characterId="814"
       height="7.6500001"
       transform="matrix(0,1,-0.8684,0,-19.35,40.75)"
       width="2.8"
       xlink:href="#sprite0"
       id="use2" />
    <use
       ffdec:characterId="835"
       height="9.75"
       transform="matrix(0.6225,0,0,0.6845,-18.65,34.55)"
       width="59.75"
       xlink:href="#sprite1"
       id="use3" />
    <use
       ffdec:characterId="879"
       height="26.65"
       transform="matrix(0.8879,0,0,0.8927,-10.5159,-10.6695)"
       width="23.75"
       xlink:href="#sprite2"
       id="use4" />
    <use
       ffdec:characterId="824"
       height="9.75"
       transform="matrix(0,-0.8306,1,0,8.9,15.75)"
       width="34.75"
       xlink:href="#sprite3"
       id="use5" />
    <use
       ffdec:characterId="824"
       height="9.75"
       transform="matrix(0,-0.8306,1,0,-18.85,15.75)"
       width="34.75"
       xlink:href="#sprite3"
       id="use6" />
    <use
       ffdec:characterId="816"
       height="21.299999"
       transform="matrix(1.2345,0,0,0.9336,-25.5,-32)"
       width="41.349998"
       xlink:href="#sprite4"
       id="use7" />
    <use
       ffdec:characterId="824"
       height="9.75"
       transform="matrix(0,-0.7157,1,0,17.65,42)"
       width="34.75"
       xlink:href="#sprite3"
       id="use8" />
    <use
       ffdec:characterId="824"
       height="9.75"
       transform="matrix(0,-0.7157,1,0,-27.35,42)"
       width="34.75"
       xlink:href="#sprite3"
       id="use9" />
    <use
       ffdec:characterId="835"
       height="9.75"
       transform="matrix(0.8657,0,0,0.6845,-25.9,24.8)"
       width="59.75"
       xlink:href="#sprite5"
       id="use10" />
    <use
       ffdec:characterId="835"
       height="9.75"
       transform="matrix(0,-0.874,1,0,-34.05,43.35)"
       width="59.75"
       xlink:href="#sprite5"
       id="use11" />
    <use
       ffdec:characterId="838"
       height="13.8"
       transform="matrix(1.3005,0,0,1,-26.65,13.95)"
       width="41.349998"
       xlink:href="#sprite6"
       id="use12" />
    <use
       ffdec:characterId="835"
       height="9.75"
       transform="matrix(0,-0.874,1,0,24.45,43.35)"
       width="59.75"
       xlink:href="#sprite5"
       id="use13" />
    <use
       ffdec:characterId="814"
       height="7.6500001"
       transform="matrix(0,0.9194,-0.8684,0,-26.1,42.1)"
       width="2.8"
       xlink:href="#sprite7"
       id="use14" />
    <use
       ffdec:characterId="814"
       height="7.6500001"
       transform="matrix(0,0.9194,-0.8684,0,32.65,42.1)"
       width="2.8"
       xlink:href="#sprite7"
       id="use15" />
    <use
       ffdec:characterId="867"
       height="12.25"
       transform="matrix(0.883,0,0,0.883,-37.55,-19)"
       width="18.799999"
       xlink:href="#sprite8"
       id="use16" />
    <use
       ffdec:characterId="826"
       height="4.3000002"
       transform="matrix(0.7466,0,0,1,-34.5,-12.4)"
       width="14.6"
       xlink:href="#sprite9"
       id="use17" />
    <use
       ffdec:characterId="869"
       height="17.1"
       transform="translate(-10.15,-50.35)"
       width="21.1"
       xlink:href="#sprite10"
       id="use18" />
    <use
       ffdec:characterId="867"
       height="12.25"
       transform="matrix(0.883,0,0,0.883,20.95,-19)"
       width="18.799999"
       xlink:href="#sprite8"
       id="use19" />
    <use
       ffdec:characterId="826"
       height="4.3000002"
       transform="matrix(0.7466,0,0,1,24,-12.4)"
       width="14.6"
       xlink:href="#sprite9"
       id="use20" />
    <use
       ffdec:characterId="826"
       height="4.3000002"
       transform="matrix(0.7055,0,0,0.5814,-4.95,-33.85)"
       width="14.6"
       xlink:href="#sprite11"
       id="use21" />
    <use
       ffdec:characterId="44"
       height="8"
       transform="matrix(-0.866,-0.5,0.5,-0.866,15.8266,-16.186)"
       width="10.8"
       xlink:href="#sprite12"
       id="use22" />
    <use
       ffdec:characterId="830"
       height="15.15"
       transform="translate(-37.65,-26)"
       width="8.25"
       xlink:href="#sprite13"
       id="use23" />
    <use
       ffdec:characterId="832"
       height="15.15"
       transform="matrix(0.5,-0.866,0.866,0.5,11.0523,17.2507)"
       width="8.25"
       xlink:href="#sprite14"
       id="use24" />
  </g>
  <defs
     id="defs48">
    <g
       id="sprite0">
      <use
         ffdec:characterId="813"
         height="7.6500001"
         width="2.8"
         xlink:href="#shape0"
         id="use25" />
    </g>
    <g
       id="shape0">
      <path
         d="M 0.55,0.15 Q 0.75,0 1,0 H 1.35 Q 2.3,0.1 2.8,1.25 v 5.2 Q 2.3,7.5 1.35,7.65 H 1 L 0.55,7.5 0,6.85 V 3.7 0.8 L 0.55,0.15"
         fill="#9a9a9a"
         fill-rule="evenodd"
         stroke="none"
         id="path25" />
    </g>
    <g
       id="sprite1">
      <use
         ffdec:characterId="834"
         height="9.75"
         width="59.75"
         xlink:href="#shape1"
         id="use26" />
    </g>
    <g
       id="shape1">
      <path
         d="M 0.5,8.7 Q 0.15,8.15 0,7 V 4.55 Q 0,1.1 0.6,0 H 2.05 L 2.1,0.1 H 57.65 L 57.7,0 h 1.45 q 0.6,1.1 0.6,4.55 V 7 Q 59.6,8.35 59.15,8.85 58.95,9.7 57.9,9.75 H 1.85 Q 1.1,9.7 0.8,9.25 L 0.6,8.85 0.5,8.7 M 56.15,3.65 54.95,4.6 V 4.75 5.1 L 55.9,5.95 57.05,7.25 57,6.95 V 4.6 l 0.05,-1.8 -0.9,0.85 m -11.5,3.6 h 11.4 l -0.7,-0.6 Q 54.15,5.7 54.05,5.25 H 46.65 44.6 31.45 27.5 25.1 22.85 5.7 l -1.3,1.4 -0.7,0.6 h 16.7 2.35 2.8 3.65 13.65 1.8 m 2.95,-3 h 6.7 q 0.3,-0.55 1.9,-1.5 h -7.15 -1.8 -13.2 -3.7 -2.6 -1.4 H 6.85 5.7 3.55 q 0.8,0.45 1.3,0.85 l 0.6,0.65 h 0.15 18.6 2 2.4 3.95 13.05 2 M 2.75,5.75 v 1.2 L 2.7,7.25 Q 3,6.75 3.85,5.95 L 4.8,5.1 V 4.75 4.6 L 4.25,4.2 3.6,3.65 2.7,2.8 2.75,4.6 v 1.15"
         fill="#9a9a9a"
         fill-rule="evenodd"
         stroke="none"
         id="path26" />
      <path
         d="m 0.5,8.7 0.1,0.15 0.2,0.4 -0.2,0.1 Q 0.4,9.65 0.4,9.05 L 0.5,8.7 m 46.15,-3.45 -2,2 h -1.8 l 1.75,-2 h 2.05 m -17.45,2 h -3.65 l 1.95,-2 h 3.95 L 30.85,5.8 29.2,7.25 m -6.45,0 H 20.4 q 0.8,-0.75 2.45,-2 h 2.25 l -2.35,2 m 24.85,-3 h -2 l 0.15,-0.15 1.5,-1.35 h 1.8 l -1.45,1.5 m -15.05,0 H 28.6 l 1.25,-1.1 0.5,-0.4 h 3.7 l -1.5,1.5 m -6.35,0 h -2 l 2.15,-1.5 h 1.4 l -1.55,1.5 m -20.6,0 H 5.45 L 4.85,3.6 5.7,2.75 H 6.85 L 5.6,4.25 M 4.25,4.2 4.8,4.6 V 4.75 5.1 L 3.85,5.95 Q 3,6.75 2.7,7.25 L 2.75,6.95 V 5.75 L 3.4,5.05 4.25,4.2"
         fill="#d2d2d2"
         fill-rule="evenodd"
         stroke="none"
         id="path27" />
    </g>
    <g
       id="sprite2"
       transform="translate(0.75,0.75)">
      <use
         ffdec:characterId="878"
         height="26.65"
         transform="translate(-0.75,-0.75)"
         width="23.75"
         xlink:href="#shape2"
         id="use27" />
    </g>
    <g
       id="shape2"
       transform="translate(0.75,0.75)">
      <path
         d="M 1.55,22.05 0.05,20.45 0.1,20.2 0.2,20.15 0,15.7 0.05,9.35 Q 0.15,6.25 0.55,4.7 V 3.95 L 2,1.95 Q 3.05,0.6 3.85,0.4 L 4.1,0.25 7.7,0 h 1.55 1.25 1.25 1.25 1.55 l 3.6,0.25 0.25,0.15 q 0.8,0.2 1.85,1.55 l 1.45,2 V 4.7 q 0.4,1.55 0.5,4.65 l 0.05,6.35 -0.2,4.45 0.1,0.05 0.05,0.25 -1.75,1.9 -1.5,1.85 Q 17.85,25 17.2,25 V 24.95 L 14.55,25.1 H 13.1 9.15 7.7 L 6.5,25.15 5.6,25.1 5.05,24.95 V 25 Q 4.4,25 3.3,24.2 L 2.15,22.75 1.8,22.35 1.55,22.05 m 15.4,-7.95 v 5.2 l -0.05,0.15 0.55,-0.05 2.7,0.35 0.35,0.1 Q 20.35,18.3 20.35,15.75 L 20.25,10.4 20.2,8.95 V 8.3 q 0.05,-1.7 0.25,-2.8 l -1.7,0.5 -2,-0.15 0.2,2.1 v 3.55 2.6 M 16.95,2 17.1,1.65 14.55,1.75 H 13 10.5 9.25 7.7 L 5.9,1.7 5.15,1.65 l 0.1,0.15 0.35,1 0.05,0.1 0.5,1.6 h 7.45 0.95 1.55 L 16.6,2.9 16.95,2 M 16.8,5.05 16.95,5.4 h -0.3 l 0.05,0.2 2.1,-0.7 1.5,-0.35 -1.1,-0.9 -1.25,-1.4 -0.45,1.3 -0.7,1.5 M 16,6 V 5.75 H 14.55 14.05 13.9 13.35 13.05 13 12.45 12.2 9.25 7.7 6.25 v 7.3 2.05 1.8 2.1 l 0.3,0.15 v 0.1 h 0.5 l 3.6,-0.05 h 0.5 0.2 0.25 0.95 l 3.15,0.05 v -0.1 L 16,19 V 14.25 13.55 6.95 6 M 3.7,4.95 Q 4.95,5.3 5.55,5.6 L 5.6,5.4 H 5.3 L 5.45,5.05 4.8,3.7 4.75,3.55 4.3,2.25 3.05,3.65 2.85,3.85 2,4.55 3.4,4.9 H 3.45 L 3.7,4.95 M 3.55,6 H 3.5 L 1.8,5.5 2.05,8.95 1.9,15.75 1.75,19.85 2.1,19.75 3,19.55 4.8,19.4 5.15,19.45 h 0.2 L 5.3,19.3 V 18.4 7.95 L 5.5,5.85 3.55,6 M 2.6,21.4 3.2,21.95 4.75,23.6 H 4.8 v -0.1 l 0.45,-1.7 0.4,-1.55 -0.05,-0.1 -2.8,0.5 -0.85,0.1 0.65,0.65 m 6.6,-1 H 6.35 L 6,21.7 5.5,23.5 H 6.45 7.7 8 9.25 13 h 1.55 2.2 L 16.25,21.7 15.9,20.4 H 11.7 11 10.4 9.2 m 7.4,-0.15 0.4,1.55 0.45,1.7 v 0.1 h 0.05 l 1.55,-1.65 1.25,-1.2 -3.65,-0.6 -0.05,0.1"
         fill="#9a9a9a"
         fill-rule="evenodd"
         stroke="none"
         id="path28" />
      <path
         d="m 1.55,22.05 0.25,0.3 0.35,0.4 -0.1,0.1 -0.5,-0.8 M 5.6,25.1 6.5,25.15 5.8,25.75 5.6,25.65 5.55,25.2 5.6,25.1 m 14.65,-14.7 -1.2,1.45 -1.9,2.25 h -0.2 V 11.5 L 18.6,9.6 q 1.05,-1.1 1.6,-1.3 v 0.65 l 0.05,1.45 M 5.9,1.7 7.7,1.75 H 9.25 10.5 13 14.55 L 17.1,1.65 16.95,2 15.05,2.45 12.55,2.25 5.6,2.8 5.25,1.8 5.9,1.7 m 8.65,2.8 H 13.6 l 0.85,-0.3 0.1,0.3 M 16,6 v 0.95 l -4.6,6.5 -0.1,0.15 -4.25,5.65 h -0.5 v -0.1 L 6.25,19 v -2.1 l 4.4,-5.85 Q 15.25,5.1 16,6 m 0,7.55 v 0.7 L 12.55,19.2 H 11.6 11.35 l 0.7,-0.9 1.65,-2 Q 15.25,13.85 16,13.55 M 6.25,15.1 V 13.05 Q 9.55,7.8 12.3,5.85 l -0.1,-0.1 h 0.25 0.55 0.05 0.3 0.55 0.15 L 13.8,5.95 11.25,9.2 8.15,12.65 6.9,14.2 6.25,15.1 M 4.8,3.7 4.3,4.15 3.7,4.65 v 0.3 L 3.45,4.9 H 3.4 L 2,4.55 2.85,3.85 3.05,3.65 4.3,2.25 4.75,3.55 4.8,3.7 M 3,19.55 2.1,19.75 1.75,19.85 1.9,15.75 2.05,8.95 1.8,5.5 3.5,6 H 3.55 L 3.3,7.2 V 18.1 L 3,19.55 M 5.3,18.4 v 0.9 l 0.05,0.15 H 5.15 L 5.1,18.85 5.3,18.4 M 2.8,20.65 2.6,21.4 1.95,20.75 2.8,20.65 m 3.65,2.85 1.1,-1.4 1.65,-1.7 h 1.2 L 8.45,22.95 8,23.5 H 7.7 6.45 M 11,20.4 h 0.7 L 11.6,20.5 11.1,20.55 11,20.4"
         fill="#d2d2d2"
         fill-rule="evenodd"
         stroke="none"
         id="path29" />
      <path
         d="M 6.5,25.15 7.7,25.1 h 1.45 3.95 1.45 L 17.2,24.95 V 25 q 0.65,0 1.75,-0.8 l 1.5,-1.85 1.75,-1.9 -0.05,-0.25 -0.1,-0.05 0.2,-4.45 L 22.2,9.35 Q 22.1,6.25 21.7,4.7 V 3.95 l -1.45,-2 Q 19.2,0.6 18.4,0.4 L 18.15,0.25 14.55,0 H 13 11.75 10.5 9.25 7.7 L 4.1,0.25 3.85,0.4 Q 3.05,0.6 2,1.95 l -1.45,2 V 4.7 Q 0.15,6.25 0.05,9.35 L 0,15.7 l 0.2,4.45 -0.1,0.05 -0.05,0.25 1.5,1.6 0.25,0.3 0.35,0.4 1.15,1.45 Q 4.4,25 5.05,25 V 24.95 L 5.6,25.1 Z"
         fill="none"
         stroke="#9a9a9a"
         stroke-linecap="round"
         stroke-linejoin="round"
         stroke-width="1.5"
         id="path30" />
    </g>
    <g
       id="sprite3">
      <use
         ffdec:characterId="823"
         height="9.75"
         width="34.75"
         xlink:href="#shape3"
         id="use30" />
    </g>
    <g
       id="shape3">
      <path
         d="m 32.7,0 h 1.45 q 0.6,1.1 0.6,4.55 V 7 Q 34.6,8.35 34.15,8.85 33.95,9.7 32.9,9.75 H 1.85 Q 0.8,9.7 0.6,8.85 0.15,8.35 0,7 V 4.55 Q 0,1.1 0.6,0 H 2.05 L 2.1,0.1 H 32.65 L 32.7,0 M 31.15,3.65 29.95,4.6 V 4.75 5.1 L 30.9,5.95 32.05,7.25 32,6.95 V 4.6 l 0.05,-1.8 -0.9,0.85 m -6,-0.9 h -1.2 -2.5 -4.65 -3.15 -1.8 -8.3 q 1.6,0.95 1.9,1.5 h 4.6 2.45 2.7 5.4 1.85 1.05 5.8 Q 29.6,3.7 31.2,2.75 H 25.15 M 22.4,5.25 H 21.55 19.6 14.3 11.45 8.85 5.7 l -1.3,1.4 -0.7,0.6 h 3.1 2.3 3.8 3.7 3.2 0.4 10.85 l -0.7,-0.6 Q 29.15,5.7 29.05,5.25 H 22.4 M 4.8,5.1 V 4.75 4.6 L 3.6,3.65 2.7,2.8 2.75,4.6 V 6.95 L 2.7,7.25 Q 3,6.75 3.85,5.95 L 4.8,5.1"
         fill="#9a9a9a"
         fill-rule="evenodd"
         stroke="none"
         id="path31" />
      <path
         d="m 23.95,2.75 h 1.2 l -1.65,1.5 h -1.05 l 1.5,-1.5 m -3.35,1.5 h -5.4 l 1.6,-1.5 h 4.65 l -0.85,1.5 m -8.1,0 h -2.45 l 1.8,-1.5 h 1.8 l -1.15,1.5 m 9.05,1 h 0.85 l -2.2,2 h -0.4 l 1.75,-2 m -4.95,2 h -3.7 q 0.4,-0.85 1.4,-2 h 5.3 l -1.65,1.2 -1.35,0.8 m -7.5,0 H 6.8 l 2.05,-2 h 2.6 l -2.35,2"
         fill="#d2d2d2"
         fill-rule="evenodd"
         stroke="none"
         id="path32" />
    </g>
    <g
       id="sprite4">
      <use
         ffdec:characterId="815"
         height="21.299999"
         width="41.349998"
         xlink:href="#shape4"
         id="use32" />
    </g>
    <g
       id="shape4">
      <path
         d="m 41.2,2.8 -0.05,3.9 v 8.15 0.4 l 0.05,4.7 0.05,0.35 -0.3,0.15 -0.55,0.2 -2.45,0.65 H 3.4 L 0.95,20.65 0.4,20.45 0.1,20.3 0.15,19.95 0.2,15.25 V 14.85 6.7 L 0.15,2.8 0,1 Q 0.8,0.25 4.15,0 H 37.2 q 3.35,0.25 4.15,1 L 41.2,2.8 M 30,4.75 h 5.95 l 1,-1.3 L 37.45,3 H 37.2 31.05 24.3 21.8 20.8 4.15 3.9 l 0.5,0.45 1,1.3 h 7.4 V 4.7 h 1.8 v 0.05 h 2.95 V 4.7 h 1.05 0.25 v 0.05 h 1.2 2.45 7.5 M 38.6,3.7 37.2,4.95 37,5.05 36.8,5.25 q -0.1,0 -0.15,0.1 l -0.1,1.35 v 0.1 2.35 l -0.1,0.8 q -0.15,1.6 -0.15,5.3 v 0.1 0.1 l 0.6,0.55 0.3,0.45 h 0.05 l 0.4,0.4 1,1 V 15.7 15.25 L 38.7,6.7 38.9,3.4 38.6,3.7 m -2.95,2 V 5.65 l -6.5,0.05 h -7.7 -1.1 L 21.4,5.75 H 19 17.3 12.8 V 5.7 L 5.7,5.65 5.85,6.7 5.9,15.25 v 0.05 h 0.45 2.7 2.25 7.65 8.6 2.25 5.65 V 15.25 L 35.5,8.2 V 6.7 l 0.15,-1 M 25.25,18.25 H 27.2 37.35 Q 36.6,17.6 36.4,17 L 36.05,16.9 H 36 L 35.6,16.3 H 28.95 26.75 17.8 10.3 8 5.75 l -0.4,0.6 H 5.3 L 4.95,17 4,18.25 H 6 8.55 12.8 V 18.2 h 1.8 v 0.05 h 0.75 2.2 V 18.2 h 1.3 v 0.05 h 6.4 M 2.45,3.4 2.65,6.7 2.7,15.25 v 0.45 2.15 l 1,-1 0.4,-0.4 H 4.15 L 4.45,16 5.05,15.45 v -0.1 -0.1 L 4.9,9.95 4.8,9.15 V 6.7 L 4.7,5.35 4.55,5.25 4.35,5.05 4.15,4.95 2.45,3.4"
         fill="#9a9a9a"
         fill-rule="evenodd"
         stroke="none"
         id="path33" />
      <path
         d="M 30,4.75 H 22.5 L 24.05,3.2 24.3,3 h 6.75 V 3.1 L 30,4.75 m -9.95,0 h -1.2 V 4.7 H 18.6 L 20.8,3 h 1 L 20.05,4.75 M 36.55,6.8 V 6.7 l 0.1,-1.35 Q 36.7,5.25 36.8,5.25 L 37,5.05 37.2,4.95 38.6,3.7 36.55,6.8 m -7.4,-1.1 -7,6.75 -3.2,2.85 H 11.3 l 1.65,-1.6 5.6,-5.25 2.75,-2.6 0.1,-0.1 h 0.05 V 5.7 h 7.7 m -1.6,9.6 2.1,-2.6 6,-7 -0.15,1 v 1.5 l -2,2.55 -3.7,4.55 H 27.55 M 19,5.75 13.15,11.4 9.05,15.3 h -2.7 l 6.4,-5.75 4.55,-3.8 H 19 m 6.25,12.5 1.5,-1.95 h 2.2 L 27.2,18.25 H 25.25 M 17.8,16.3 15.35,18.25 H 14.6 V 18.2 h -1.8 v 0.05 H 8.55 L 10.3,16.3 h 7.5 M 8,16.3 6,18.25 H 4 L 4.95,17 5.3,16.9 h 0.05 l 0.4,-0.6 H 8"
         fill="#d2d2d2"
         fill-rule="evenodd"
         stroke="none"
         id="path34" />
    </g>
    <g
       id="sprite5">
      <use
         ffdec:characterId="834"
         height="9.75"
         width="59.75"
         xlink:href="#shape5"
         id="use34" />
    </g>
    <g
       id="shape5">
      <path
         d="M 0.5,8.7 Q 0.15,8.15 0,7 V 4.55 Q 0,1.1 0.6,0 H 2.05 L 2.1,0.1 H 57.65 L 57.7,0 h 1.45 q 0.6,1.1 0.6,4.55 V 7 Q 59.6,8.35 59.15,8.85 58.95,9.7 57.9,9.75 H 1.85 Q 1.1,9.7 0.8,9.25 L 0.6,8.85 0.5,8.7 M 56.15,3.65 54.95,4.6 V 4.75 5.1 L 55.9,5.95 57.05,7.25 57,6.95 V 4.6 l 0.05,-1.8 -0.9,0.85 m -11.5,3.6 h 11.4 l -0.7,-0.6 Q 54.15,5.7 54.05,5.25 H 46.65 44.6 31.45 27.5 25.1 22.85 5.7 l -1.3,1.4 -0.7,0.6 h 16.7 2.35 2.8 3.65 13.65 1.8 m 2.95,-3 h 6.7 q 0.3,-0.55 1.9,-1.5 h -7.15 -1.8 -13.2 -3.7 -2.6 -1.4 H 6.85 5.7 3.55 q 0.8,0.45 1.3,0.85 l 0.6,0.65 h 0.15 18.6 2 2.4 3.95 13.05 2 M 2.75,5.75 v 1.2 L 2.7,7.25 Q 3,6.75 3.85,5.95 L 4.8,5.1 V 4.75 4.6 L 4.25,4.2 3.6,3.65 2.7,2.8 2.75,4.6 v 1.15"
         fill="#6b6b6b"
         fill-rule="evenodd"
         stroke="none"
         id="path35" />
      <path
         d="m 0.5,8.7 0.1,0.15 0.2,0.4 -0.2,0.1 Q 0.4,9.65 0.4,9.05 L 0.5,8.7 m 46.15,-3.45 -2,2 h -1.8 l 1.75,-2 h 2.05 m -17.45,2 h -3.65 l 1.95,-2 h 3.95 L 30.85,5.8 29.2,7.25 m -6.45,0 H 20.4 q 0.8,-0.75 2.45,-2 h 2.25 l -2.35,2 m 24.85,-3 h -2 l 0.15,-0.15 1.5,-1.35 h 1.8 l -1.45,1.5 m -15.05,0 H 28.6 l 1.25,-1.1 0.5,-0.4 h 3.7 l -1.5,1.5 m -6.35,0 h -2 l 2.15,-1.5 h 1.4 l -1.55,1.5 m -20.6,0 H 5.45 L 4.85,3.6 5.7,2.75 H 6.85 L 5.6,4.25 M 4.25,4.2 4.8,4.6 V 4.75 5.1 L 3.85,5.95 Q 3,6.75 2.7,7.25 L 2.75,6.95 V 5.75 L 3.4,5.05 4.25,4.2"
         fill="#ffffff"
         fill-rule="evenodd"
         stroke="none"
         id="path36" />
    </g>
    <g
       id="sprite6">
      <use
         ffdec:characterId="837"
         height="13.8"
         width="41.349998"
         xlink:href="#shape6"
         id="use36" />
    </g>
    <g
       id="shape6">
      <path
         d="m 41.25,12.8 -0.3,0.15 -0.55,0.2 -2.45,0.65 H 3.4 L 0.95,13.15 0.4,12.95 0.1,12.8 0.15,12.45 0.2,7.7 0.15,2.8 0,1 Q 0.8,0.25 4.15,0 H 37.2 q 3.35,0.25 4.15,1 l -0.15,1.8 -0.05,4.9 0.05,4.75 0.05,0.35 M 33.85,4.7 H 36 L 36.95,3.45 37.45,3 H 37.2 35.4 33.75 21.15 17.1 15.25 14.4 4.15 3.9 l 0.5,0.45 1,1.3 h 7.15 1.4 1.6 4.65 4.65 V 4.7 h 6.85 2.15 m 1.8,0.95 -2.6,0.05 h 2.6 V 5.65 M 31.4,7.8 h 4.05 q 0,-1.25 0.15,-2.05 H 35.45 33.7 33.3 33 31.95 V 5.7 H 30.85 30.1 V 5.75 H 28.25 27.8 24.85 V 5.7 H 19.6 14.75 13.1 11.5 L 5.7,5.65 5.9,7.8 h 3.4 1.75 2.1 4.95 11.25 2.05 M 36.65,5.35 36.55,6.7 V 7 l -0.1,0.1 Q 36.3,7.3 36.3,7.8 h 0.05 v 0.15 l 0.55,0.55 0.3,0.45 h 0.05 l 0.4,0.4 1,1 V 8.2 q 0,-2.95 0.25,-4.8 l -1.7,1.55 -0.2,0.1 -0.2,0.2 q -0.1,0 -0.15,0.1 M 29,10.75 30.1,10.7 v 0.05 h 1.85 V 10.7 h 4.4 v 0.05 h 1 Q 36.6,10.1 36.4,9.5 L 36.05,9.4 H 36 L 35.6,8.8 H 30.65 28.75 17.35 12.4 10.05 8.3 5.75 L 5.35,9.4 H 5.3 L 4.95,9.5 4,10.75 H 6.5 8 11.15 15.6 24.85 V 10.7 l 2.9,0.05 H 29 M 4.35,5.05 4.15,4.95 2.45,3.4 2.7,8.2 v 2.15 l 1,-1 0.4,-0.4 H 4.15 L 4.45,8.5 5.05,7.95 V 7.85 L 4.9,7.1 4.8,7 V 6.7 L 4.7,5.35 4.55,5.25 4.35,5.05"
         fill="#6b6b6b"
         fill-rule="evenodd"
         stroke="none"
         id="path37" />
      <path
         d="M 35.4,3 33.85,4.7 H 31.7 L 33.75,3 H 35.4 M 20.2,4.75 H 15.55 L 16.25,3.9 17.1,3 h 4.05 L 20.2,4.75 m -6.25,0 h -1.4 L 14.4,3 h 0.85 l -1.3,1.75 M 33,5.75 32,7 31.4,7.8 H 29.35 L 30.8,5.75 30.85,5.7 h 1.1 V 5.75 H 33 M 18.1,7.8 h -4.95 l 1.6,-2.1 H 19.6 L 18.2,7.65 18.1,7.8 m -7.05,0 H 9.3 L 10.15,6.95 11.5,5.7 h 1.6 l -1.45,1.5 -0.6,0.6 m 19.6,1 -1.65,1.95 h -1.25 l 1,-1.95 h 1.9 M 15.6,10.75 H 11.15 V 10.6 L 12.4,8.8 h 4.95 l -1.75,1.95 m -7.6,0 H 6.5 L 8.3,8.8 h 1.75 L 8,10.75"
         fill="#ffffff"
         fill-rule="evenodd"
         stroke="none"
         id="path38" />
    </g>
    <g
       id="sprite7">
      <use
         ffdec:characterId="813"
         height="7.6500001"
         width="2.8"
         xlink:href="#shape7"
         id="use38" />
    </g>
    <g
       id="shape7">
      <path
         d="M 0.55,0.15 Q 0.75,0 1,0 H 1.35 Q 2.3,0.1 2.8,1.25 v 5.2 Q 2.3,7.5 1.35,7.65 H 1 L 0.55,7.5 0,6.85 V 3.7 0.8 L 0.55,0.15"
         fill="#6b6b6b"
         fill-rule="evenodd"
         stroke="none"
         id="path39" />
    </g>
    <g
       id="sprite8">
      <use
         ffdec:characterId="866"
         height="12.25"
         width="18.799999"
         xlink:href="#shape8"
         id="use39" />
    </g>
    <g
       id="shape8">
      <path
         d="M 11.05,8.5 10.8,8.95 Q 12.45,7.25 14.65,5.5 L 15.55,4.85 15.6,4.8 H 13.3 12.7 V 4.85 L 12.6,5.2 11.05,8.5 m 7.75,-4.3 -0.05,0.45 -0.1,0.05 -0.1,0.15 -4.6,4.05 -4.2,3.35 H 9.1 L 4.85,8.9 0.85,5.45 0.25,4.85 0.15,4.7 0.05,4.65 0,4.2 Q 0,3.5 0.85,2.25 L 2.05,0.6 2.6,0 h 13.65 l 0.5,0.6 q 2.05,2.55 2.05,3.6 m -5,-0.45 h 2.95 L 16.05,2.8 15.2,1.55 14.25,2.7 13.3,3.75 h 0.5 m -4.6,0 h 2.15 L 10.4,2.55 10.35,2.5 9.65,1.5 H 9.45 9.35 9.15 L 8.4,2.55 7.45,3.75 H 9.2 m 4.55,-2.1 0.2,-0.25 -3.1,0.1 0.35,0.35 q 0.9,0.9 1.1,1.75 L 13.75,1.65 M 10.9,6.75 12,4.85 V 4.8 H 11.9 8.35 7 6.8 V 4.85 L 7.1,5.4 8.35,7.45 9.4,9.35 9.7,8.85 10.45,7.45 10.9,6.75 M 7.95,1.5 4.85,1.4 5.05,1.65 6.5,3.6 Q 6.7,2.75 7.6,1.85 L 7.95,1.5 M 7.3,7.65 6.2,5.2 6.1,4.85 V 4.8 H 5.15 3.7 3.25 3.2 L 3.25,4.85 3.9,5.3 4.15,5.5 Q 6.3,7.2 7.95,8.85 L 7.3,7.65 M 4.6,2.7 3.6,1.55 2.75,2.8 2.05,3.75 h 2 1.45 L 4.6,2.7"
         fill="#6b6b6b"
         fill-rule="evenodd"
         stroke="none"
         id="path40" />
      <path
         d="M 11.05,8.5 12.6,5.2 12.7,4.85 V 4.8 h 0.6 Q 12.15,7.15 11.05,8.5 M 13.8,3.75 H 13.3 L 14.25,2.7 13.8,3.75 m -4.6,0 H 7.45 L 8.4,2.55 9.15,1.5 h 0.2 0.1 0.2 l 0.7,1 L 9.2,3.75 M 11.9,4.8 H 12 v 0.05 l -1.1,1.9 1,-1.95 M 9.7,8.85 9.4,9.35 8.35,7.45 7.1,5.4 7,4.8 H 8.35 Q 8.8,5.3 9.05,6.15 L 9.7,8.85 M 5.15,4.8 q 0.6,0.4 1.2,1.25 l 0.95,1.6 0.65,1.2 Q 6.3,7.2 4.15,5.5 L 3.9,5.3 3.7,4.8 H 5.15 M 3.25,4.85 3.2,4.8 h 0.05 v 0.05 m 0.8,-1.1 h -2 L 2.75,2.8 3.6,1.55 4.6,2.7 4.05,3.75"
         fill="#ffffff"
         fill-rule="evenodd"
         stroke="none"
         id="path41" />
    </g>
    <g
       id="sprite9">
      <use
         ffdec:characterId="825"
         height="4.3000002"
         width="14.6"
         xlink:href="#shape9"
         id="use41" />
    </g>
    <g
       id="shape9">
      <path
         d="M 11.6,4.3 H 3 Q 2.25,3.8 2.25,3.4 L 2.3,3.1 Q 0,3.05 0,1.8 0,0.35 1.05,0 h 12.5 q 1.05,0.35 1.05,1.8 0,1.25 -2.3,1.3 l 0.05,0.3 q 0,0.4 -0.75,0.9"
         fill="#6b6b6b"
         fill-rule="evenodd"
         stroke="none"
         id="path42" />
    </g>
    <g
       id="sprite10"
       transform="translate(0.75,0.75)">
      <use
         ffdec:characterId="868"
         height="17.1"
         transform="translate(-0.75,-0.75)"
         width="21.1"
         xlink:href="#shape10"
         id="use42" />
    </g>
    <g
       id="shape10"
       transform="translate(0.75,0.75)">
      <path
         d="M 10.45,6.4 10.35,6.3 10.4,6.15 10.25,5.85 H 10.2 L 10.15,3.9 10.1,2.9 10.65,3.75 10.45,6.4 m -0.7,0.75 0.4,-0.5 0.2,0.4 0.7,1.3 -1.85,2.8 -0.7,0.9 -2.1,0.15 1.2,-1.8 Q 8.9,8.5 9.85,7.55 l -0.1,-0.4 m -8.3,8.25 2.2,0.1 Q 2.05,16.2 0.7,16.05 L 1.45,15.4 M 3.75,13 3.4,13.25 2,13.95 1.85,14 6.65,7.15 9.6,2.7 V 2.9 3.85 L 9.65,4.55 9.7,5.25 9.8,5.8 H 9.75 L 9.8,6 9.85,6.2 9.6,6.5 9.35,5.05 6.45,9.3 3.75,13 M 3.1,14 5.05,12.85 5.25,12.9 5.5,12.7 h 0.6 0.8 1 L 6.4,14.05 6,13.95 5.45,14.4 H 4.45 3.5 3 2.6 L 3.1,14 M 2.8,14.15 2.6,14.3 H 2.5 l 0.3,-0.15"
         fill="#d2d2d2"
         fill-rule="evenodd"
         stroke="none"
         id="path43" />
      <path
         d="M 10.65,3.75 10.1,2.9 l 0.05,1 0.05,1.95 h 0.05 l 0.15,0.3 -0.05,0.15 0.1,0.1 1.8,2.3 2.65,3.6 v 0.1 l -0.05,0.05 q 1.9,0.8 2.95,1.65 L 12.9,7.15 10.65,3.75 m 0.4,4.6 -0.7,-1.3 -0.2,-0.4 -0.4,0.5 L 9,8.1 7.6,10.3 5.95,12.25 6.4,12.2 8.5,12.05 10.55,11.95 12.6,12 13.65,12.05 12.1,10.1 11.05,8.35 M 1.45,15.4 0.9,15.35 0.55,15.5 Q -0.1,15.5 0,14.85 L 0.2,14.4 H 0.25 V 14.3 L 0.55,13.95 1.5,12.6 V 12.55 L 3.25,9.65 4.25,8.2 5.8,5.85 9.55,0.1 V 0 H 10 v 0.1 l 3.8,5.75 1.5,2.35 1,1.45 1.85,3 V 12.5 l 1.15,1.7 -0.05,0.2 h 0.1 l 0.2,0.45 Q 19.7,15.5 19,15.5 L 18.6,15.35 11.5,15.6 H 8.05 L 3.65,15.5 1.45,15.4 M 9.6,6.5 9.85,6.2 9.8,6 9.75,5.8 H 9.8 L 9.7,5.25 9.65,4.55 9.6,3.85 V 2.9 2.7 L 6.65,7.15 1.85,14 2,13.95 3.4,13.25 3.75,13 5.05,12.3 H 5.2 Q 7.95,8.35 9.6,6.5 M 7.9,12.7 H 6.9 6.1 5.5 L 5.25,12.9 5.05,12.85 3.1,14 2.8,14.15 2.5,14.3 2.2,14.45 2.6,14.4 h 0.4 0.5 0.95 1 0.4 2.2 3.45 2.2 1.4 0.9 0.7 0.15 L 16.1,14.05 14.5,12.65 7.9,12.7"
         fill="#9a9a9a"
         fill-rule="evenodd"
         stroke="none"
         id="path44" />
      <path
         d="m 3.65,15.5 4.4,0.1 h 3.45 l 7.1,-0.25 0.4,0.15 q 0.7,0 0.55,-0.65 l -0.2,-0.45 h -0.1 l 0.05,-0.2 -1.15,-1.7 v 0.15 L 16.3,9.65 15.3,8.2 13.8,5.85 10,0.1 V 0 H 9.55 V 0.1 L 5.8,5.85 4.25,8.2 l -1,1.45 -1.75,2.9 v 0.05 l -0.95,1.35 -0.3,0.35 v 0.1 H 0.2 L 0,14.85 Q -0.1,15.5 0.55,15.5 L 0.9,15.35 1.45,15.4 Z"
         fill="none"
         stroke="#9a9a9a"
         stroke-linecap="round"
         stroke-linejoin="round"
         stroke-width="1.5"
         id="path45" />
    </g>
    <g
       id="sprite11">
      <use
         ffdec:characterId="825"
         height="4.3000002"
         width="14.6"
         xlink:href="#shape11"
         id="use45" />
    </g>
    <g
       id="shape11">
      <path
         d="M 11.6,4.3 H 3 Q 2.25,3.8 2.25,3.4 L 2.3,3.1 Q 0,3.05 0,1.8 0,0.35 1.05,0 h 12.5 q 1.05,0.35 1.05,1.8 0,1.25 -2.3,1.3 l 0.05,0.3 q 0,0.4 -0.75,0.9"
         fill="#9a9a9a"
         fill-rule="evenodd"
         stroke="none"
         id="path46" />
    </g>
    <g
       id="sprite12"
       transform="translate(5.4,4)">
      <use
         ffdec:characterId="43"
         height="8"
         transform="translate(-5.4,-4)"
         width="10.8"
         xlink:href="#shape12"
         id="use46" />
    </g>
    <g
       id="shape12"
       transform="translate(5.4,4)">
      <path
         d="m 2.9,-0.35 q 0,-1.25 1.25,-1.25 1.25,0 1.25,1.2 0,1.3 -1.25,1.3 Q 3.6,0.9 3.25,0.5 2.9,0.15 2.9,-0.35 m 0.35,-2.3 q 0,0.55 -0.35,0.9 -0.4,0.45 -1,0.45 -1.35,0 -1.35,-1.4 0,-1.3 1.35,-1.3 1.35,0 1.35,1.35 m -3.1,1.9 h 0.2 q 2.6,0.1 2.6,2.8 l -0.3,1 Q 2.05,4 0.45,4 H 0.35 0.15 0.1 -0.45 q -1.6,0 -2.2,-0.95 l -0.3,-1 q 0,-2.8 2.8,-2.8 h 0.3 M -1.55,-4 q 1.35,0 1.35,1.35 0,0.55 -0.4,0.9 -0.4,0.45 -0.95,0.45 -1.4,0 -1.4,-1.4 0,-1.3 1.4,-1.3 m -2.6,2.4 q 1.25,0 1.25,1.25 0,0.5 -0.35,0.85 -0.35,0.4 -0.9,0.4 -1.25,0 -1.25,-1.3 0,-1.2 1.25,-1.2"
         fill="#9a9a9a"
         fill-rule="evenodd"
         stroke="none"
         id="path47" />
    </g>
    <g
       id="sprite13"
       transform="translate(4.1,8.6)">
      <use
         ffdec:characterId="827"
         height="13.1"
         transform="translate(-4.1,-6.55)"
         width="8.25"
         xlink:href="#shape13"
         id="use47" />
    </g>
    <g
       id="shape13"
       transform="translate(4.1,6.55)">
      <path
         d="m 4.15,-6.55 q -1,2.6 -3.3,6.6 L 3.25,2.5 2.8,2.65 0.5,0.7 -0.05,1.55 q -3,5 -3.55,5 H -3.95 L -4.05,6.45 -4.1,6.2 q 0,-0.45 3.1,-5.25 l 0.65,-1 -2.1,-1.8 q 0,-1.2 2.05,0.7 l 0.5,0.45 4.05,-5.85"
         fill="#ffffff"
         fill-rule="evenodd"
         stroke="none"
         id="path48" />
    </g>
    <g
       id="sprite14"
       transform="translate(4.1,8.6)">
      <use
         ffdec:characterId="827"
         height="13.1"
         transform="translate(-4.1,-6.55)"
         width="8.25"
         xlink:href="#shape13"
         id="use48" />
    </g>
  </defs>
</svg>
