<?xml version="1.0" encoding="UTF-8" standalone="no"?>
<svg
   ffdec:objectType="frame"
   height="53.5"
   width="64.900002"
   version="1.1"
   id="svg10"
   sodipodi:docname="1.svg"
   xmlns:inkscape="http://www.inkscape.org/namespaces/inkscape"
   xmlns:sodipodi="http://sodipodi.sourceforge.net/DTD/sodipodi-0.dtd"
   xmlns:xlink="http://www.w3.org/1999/xlink"
   xmlns="http://www.w3.org/2000/svg"
   xmlns:svg="http://www.w3.org/2000/svg"
   xmlns:ffdec="https://www.free-decompiler.com/flash">
  <sodipodi:namedview
     id="namedview10"
     pagecolor="#ffffff"
     bordercolor="#000000"
     borderopacity="0.25"
     inkscape:showpageshadow="2"
     inkscape:pageopacity="0.0"
     inkscape:pagecheckerboard="0"
     inkscape:deskcolor="#d1d1d1"
     fit-margin-top="5"
     fit-margin-left="5"
     fit-margin-right="5"
     fit-margin-bottom="5" />
  <g
     transform="translate(32.5,27)"
     id="g2">
    <use
       ffdec:characterId="1354"
       height="53"
       transform="matrix(0.7849,0,0,0.9472,-25.7839,-25.0001)"
       width="65.699997"
       xlink:href="#sprite0"
       id="use1" />
    <use
       ffdec:characterId="1355"
       height="53.5"
       transform="translate(-32.5,-27)"
       width="64.900002"
       xlink:href="#shape1"
       id="use2" />
  </g>
  <defs
     id="defs10">
    <g
       id="sprite0"
       transform="translate(32.85,26.5)">
      <use
         ffdec:characterId="1353"
         height="53"
         transform="translate(-32.85,-26.5)"
         width="65.699997"
         xlink:href="#shape0"
         id="use3" />
    </g>
    <g
       id="shape0"
       transform="translate(32.85,26.5)">
      <path
         d="m 32.5,-25.5 q 0.35,1 0.35,3.05 v 1.7 l -0.15,1.9 -0.4,1.3 v 0.05 h -6.6 q -0.25,2.55 -1.25,6.85 -1,4.3 -2.75,9.6 -1.7,5.25 -1.75,6.35 0,1.1 -1,3.75 l 1.55,2.6 q 0.6,1 0.6,3.35 -0.1,1.5 -0.7,2.9 -1,2.45 -2.95,2.85 l 0.1,1.45 q 0.15,1.15 -0.2,2.2 -0.75,2.1 -3.35,2.1 -1.8,0 -2.7,-0.8 L 10.75,16.8 10,13.85 9.9,13.65 8.2,10.5 H -8.4 l -1.7,3.15 -0.1,0.2 -0.75,2.95 -0.55,8.9 q -0.9,0.8 -2.7,0.8 -2.6,0 -3.35,-2.1 -0.35,-1.05 -0.2,-2.2 l 0.1,-1.45 q -1.95,-0.4 -2.95,-2.85 -0.6,-1.4 -0.7,-2.9 0,-2.35 0.6,-3.35 l 1.55,-2.6 q -1,-2.65 -1,-3.75 -0.05,-1.1 -1.75,-6.35 -1.75,-5.3 -2.75,-9.6 -1,-4.3 -1.25,-6.85 h -6.3 l -0.05,-0.05 -0.4,-1.3 -0.15,-1.9 v -1.7 q 0,-2.05 0.35,-3.05 0.3,-0.95 0.9,-1 l 0.45,0.15 h 62 l 0.45,-0.15 0.1,0.05 0.15,-0.05 q 0.6,0.05 0.9,1 m -15,8.9 -1.15,6.75 -1.95,9.5 -0.5,2 h 3 Q 17.1,1.5 17.35,1.5 l 0.1,0.05 h 0.1 L 17.6,1.5 q 1.95,-3.85 3.25,-9.95 1.35,-6.2 1.6,-9.05 h -5 l 0.05,0.9 m -2.8,-0.9 h -29.6 l 0.2,2.8 1,4.6 q 2.15,8.5 2.5,10.95 l 0.25,0.75 v 0.05 h 21.7 V 1.6 L 11,0.85 q 0.35,-2.45 2.5,-10.95 l 1,-4.6 0.2,-2.8 m -44.65,-4.4 v 1.2 l 0.05,1.2 0.5,-0.15 22.1,0.05 h 0.5 5.55 0.05 0.1 0.55 H -0.3 0.35 0.9 1 6.6 6.85 l 22.35,-0.05 0.5,0.15 v -0.05 l 0.05,-1.15 v -1.2 L 30,-23.85 h -60.2 l 0.25,1.95 M 15.75,6.1 16,4.15 h -32.2 l 0.25,1.95 v 1.2 l 0.05,1.1 v 0.1 l 0.45,-0.1 0.05,-0.05 1.15,0.05 h 0.4 0.5 4.15 1.25 2.4 2.2 1.55 2.15 0.55 0.7 1.55 3 0.7 2.15 1.05 3.1 0.5 0.3 0.1 L 15.2,8.35 15.25,8.4 15.7,8.5 V 8.4 L 15.75,7.3 V 6.1 m -38.4,-23.6 q 0.25,2.85 1.6,9.05 1.3,6.15 3.3,10 l 0.2,-0.05 q 0.25,0 0.45,0.15 h 3 l -0.5,-2 -1.95,-9.5 -1.15,-6.75 0.05,-0.9 h -5 m 34.05,28 0.8,1.6 0.8,2.95 v 0.15 0.15 0.1 0.1 l 0.2,1.1 q 0,5.05 0.15,7.3 l 1.2,0.1 Q 15.1,23.4 14.9,20.85 14.8,19.3 15.5,18.9 l 1.35,-1.15 q 1.7,-1.3 1.7,-2.75 0,-1.85 -1.35,-3.5 L 16.55,10.65 16.45,10.5 H 11.4 m -28.8,1 q -1.35,1.65 -1.35,3.5 0,1.45 1.7,2.75 l 1.35,1.15 q 0.7,0.4 0.6,1.95 -0.2,2.55 0.35,3.2 l 1.2,-0.1 q 0.15,-2.25 0.15,-7.3 l 0.2,-1.1 v -0.1 -0.1 -0.15 -0.15 l 0.8,-2.95 0.8,-1.6 h -5.05 l -0.1,0.15 -0.65,0.85"
         fill="#9a9a9a"
         fill-rule="evenodd"
         stroke="none"
         id="path3" />
      <path
         d="m 17.5,-16.6 -0.05,-0.9 h 5 q -0.25,2.85 -1.6,9.05 -1.3,6.1 -3.25,9.95 l -0.05,0.05 h -0.1 L 17.35,1.5 q -0.25,0 -0.45,0.15 h -3 l 0.5,-2 1.95,-9.5 1.15,-6.75 m -6.1,27.1 h 5.05 l 0.1,0.15 0.65,0.85 q 1.35,1.65 1.35,3.5 0,1.45 -1.7,2.75 L 15.5,18.9 q -0.7,0.4 -0.6,1.95 0.2,2.55 -0.35,3.2 l -1.2,-0.1 Q 13.2,21.7 13.2,16.65 L 13,15.55 v -0.1 -0.1 -0.15 -0.15 L 12.2,12.1 11.4,10.5 m -34.05,-28 h 5 l -0.05,0.9 1.15,6.75 1.95,9.5 0.5,2 h -3 Q -17.3,1.5 -17.55,1.5 l -0.2,0.05 q -2,-3.85 -3.3,-10 -1.35,-6.2 -1.6,-9.05 m 5.25,29 0.65,-0.85 0.1,-0.15 h 5.05 l -0.8,1.6 -0.8,2.95 v 0.15 0.15 0.1 0.1 l -0.2,1.1 q 0,5.05 -0.15,7.3 l -1.2,0.1 Q -15.3,23.4 -15.1,20.85 -15,19.3 -15.7,18.9 l -1.35,-1.15 q -1.7,-1.3 -1.7,-2.75 0,-1.85 1.35,-3.5"
         fill="#9a9a9a"
         fill-rule="evenodd"
         stroke="none"
         id="path4" />
      <path
         d="m 29.75,-21.9 v 1.2 l -0.05,1.15 v 0.05 L 29.2,-19.65 6.85,-19.6 H 6.6 1 0.9 0.35 -0.3 -0.55 -1.1 -1.2 -1.25 -6.8 -7.3 l -22.1,-0.05 -0.5,0.15 -0.05,-1.2 v -1.2 L -8.7,-21.95 V -22 H 8.5 v 0.05 l 21.25,0.05 m -14,28 V 7.3 L 15.7,8.4 V 8.5 L 15.25,8.4 15.2,8.35 14.05,8.4 h -0.1 -0.3 -0.5 -3.1 H 9 6.85 6.15 3.15 1.6 0.9 0.35 -1.8 h -1.55 -2.2 -2.4 -1.25 -4.15 -0.5 -0.4 L -15.4,8.35 -15.45,8.4 -15.9,8.5 V 8.4 L -15.95,7.3 V 6.1 h 31.7"
         fill="#9a9a9a"
         fill-rule="evenodd"
         stroke="none"
         id="path5" />
      <path
         d="M 29.75,-21.9 8.5,-21.95 V -22 H -8.7 v 0.05 l -21.25,0.05 -0.25,-1.95 H 30 l -0.25,1.95 m -45.7,28 -0.25,-1.95 H 16 L 15.75,6.1 h -31.7"
         fill="#9a9a9a"
         fill-rule="evenodd"
         stroke="none"
         id="path6" />
    </g>
    <g
       id="shape1"
       transform="translate(32.5,27)">
      <path
         d="m 32.3,-17.55 v 0.05 h -6.6 q -0.25,2.55 -1.25,6.85 -1,4.3 -2.75,9.6 -1.7,5.25 -1.75,6.35 0,1.1 -1,3.75 l 1.55,2.6 q 0.6,1 0.6,3.35 -0.1,1.5 -0.7,2.9 -1,2.45 -2.95,2.85 l 0.1,1.45 q 0.15,1.15 -0.2,2.2 -0.75,2.1 -3.35,2.1 -1.8,0 -2.7,-0.8 L 10.75,16.8 10,13.85 9.9,13.65 8.2,10.5 H -8.4 l -1.7,3.15 -0.1,0.2 -0.75,2.95 -0.55,8.9 q -0.9,0.8 -2.7,0.8 -2.6,0 -3.35,-2.1 -0.35,-1.05 -0.2,-2.2 l 0.1,-1.45 q -1.95,-0.4 -2.95,-2.85 -0.6,-1.4 -0.7,-2.9 0,-2.35 0.6,-3.35 l 1.55,-2.6 q -1,-2.65 -1,-3.75 -0.05,-1.1 -1.75,-6.35 -1.75,-5.3 -2.75,-9.6 -1,-4.3 -1.25,-6.85 h -6.3 l -0.05,-0.05 -0.25,-0.65 v -7.9 l 0.05,-0.15 0.4,-0.75 H 32.1 l 0.3,0.5 v 8.75 l -0.1,0.2 m -14.8,0.95 -1.15,6.75 -1.95,9.5 -0.5,2 h 3 Q 17.1,1.5 17.35,1.5 l 0.1,0.05 h 0.1 L 17.6,1.5 q 1.95,-3.85 3.25,-9.95 1.35,-6.2 1.6,-9.05 h -5 l 0.05,0.9 m -2.8,-0.9 h -29.6 l 0.2,2.8 1,4.6 q 2.15,8.5 2.5,10.95 l 0.25,0.75 v 0.05 h 21.7 V 1.6 L 11,0.85 q 0.35,-2.45 2.5,-10.95 l 1,-4.6 0.2,-2.8 m -44.65,-5.15 v 0.7 0.4 0.85 l 0.05,0.2 v 0.5 0.5 l 0.5,-0.15 22.1,0.05 h 0.5 5.55 0.05 0.1 0.55 H -0.3 0.35 0.9 1 6.6 6.85 l 22.35,-0.05 0.5,0.15 0.05,-2.05 v -1.1 L 30,-24.6 h -60.2 l 0.25,1.95 M 15.75,6.1 16,4.15 h -32.2 l 0.25,1.95 v 1.2 l 0.05,1.1 v 0.1 l 0.45,-0.1 0.05,-0.05 1.15,0.05 h 0.4 0.5 4.15 1.25 2.4 2.2 1.55 2.15 0.55 0.7 1.55 3 0.7 2.15 1.05 3.1 0.5 0.3 0.1 L 15.2,8.35 15.25,8.4 15.7,8.5 V 8.4 L 15.75,7.3 V 6.1 m -38.4,-23.6 q 0.25,2.85 1.6,9.05 1.3,6.15 3.3,10 l 0.2,-0.05 q 0.25,0 0.45,0.15 h 3 l -0.5,-2 -1.95,-9.5 -1.15,-6.75 0.05,-0.9 h -5 m 34.05,28 0.8,1.6 0.8,2.95 v 0.15 0.15 0.1 0.1 l 0.2,1.1 q 0,5.05 0.15,7.3 l 1.2,0.1 Q 15.1,23.4 14.9,20.85 14.8,19.3 15.5,18.9 l 1.35,-1.15 q 1.7,-1.3 1.7,-2.75 0,-1.85 -1.35,-3.5 L 16.55,10.65 16.45,10.5 H 11.4 m -28.8,1 q -1.35,1.65 -1.35,3.5 0,1.45 1.7,2.75 l 1.35,1.15 q 0.7,0.4 0.6,1.95 -0.2,2.55 0.35,3.2 l 1.2,-0.1 q 0.15,-2.25 0.15,-7.3 l 0.2,-1.1 v -0.1 -0.1 -0.15 -0.15 l 0.8,-2.95 0.8,-1.6 h -5.05 l -0.1,0.15 -0.65,0.85"
         fill="#6b6b6b"
         fill-rule="evenodd"
         stroke="none"
         id="path7" />
      <path
         d="M -29.95,-22.65 -8.7,-22.7 v -0.05 H 8.5 v 0.05 l 21.25,0.05 v 1.1 L 29.7,-19.5 29.2,-19.65 6.85,-19.6 H 6.6 1 0.9 0.35 -0.3 -0.55 -1.1 -1.2 -1.25 -6.8 -7.3 l -22.1,-0.05 -0.5,0.15 v -0.5 -0.5 l -0.05,-0.2 v -0.85 -0.4 -0.7 M 15.75,6.1 V 7.3 L 15.7,8.4 V 8.5 L 15.25,8.4 15.2,8.35 14.05,8.4 h -0.1 -0.3 -0.5 -3.1 H 9 6.85 6.15 3.15 1.6 0.9 0.35 -1.8 h -1.55 -2.2 -2.4 -1.25 -4.15 -0.5 -0.4 L -15.4,8.35 -15.45,8.4 -15.9,8.5 V 8.4 L -15.95,7.3 V 6.1 h 31.7"
         fill="#9b9188"
         fill-rule="evenodd"
         stroke="none"
         id="path8" />
      <path
         d="M 29.75,-22.65 8.5,-22.7 v -0.05 H -8.7 v 0.05 l -21.25,0.05 -0.25,-1.95 H 30 l -0.25,1.95 M -15.95,6.1 -16.2,4.15 H 16 L 15.75,6.1 h -31.7"
         fill="#aba096"
         fill-rule="evenodd"
         stroke="none"
         id="path9" />
      <path
         d="m 17.5,-16.6 -0.05,-0.9 h 5 q -0.25,2.85 -1.6,9.05 -1.3,6.1 -3.25,9.95 l -0.05,0.05 h -0.1 L 17.35,1.5 q -0.25,0 -0.45,0.15 h -3 l 0.5,-2 1.95,-9.5 1.15,-6.75 m -6.1,27.1 h 5.05 l 0.1,0.15 0.65,0.85 q 1.35,1.65 1.35,3.5 0,1.45 -1.7,2.75 L 15.5,18.9 q -0.7,0.4 -0.6,1.95 0.2,2.55 -0.35,3.2 l -1.2,-0.1 Q 13.2,21.7 13.2,16.65 L 13,15.55 v -0.1 -0.1 -0.15 -0.15 L 12.2,12.1 11.4,10.5 m -34.05,-28 h 5 l -0.05,0.9 1.15,6.75 1.95,9.5 0.5,2 h -3 Q -17.3,1.5 -17.55,1.5 l -0.2,0.05 q -2,-3.85 -3.3,-10 -1.35,-6.2 -1.6,-9.05 m 5.25,29 0.65,-0.85 0.1,-0.15 h 5.05 l -0.8,1.6 -0.8,2.95 v 0.15 0.15 0.1 0.1 l -0.2,1.1 q 0,5.05 -0.15,7.3 l -1.2,0.1 Q -15.3,23.4 -15.1,20.85 -15,19.3 -15.7,18.9 l -1.35,-1.15 q -1.7,-1.3 -1.7,-2.75 0,-1.85 1.35,-3.5"
         fill="#807870"
         fill-rule="evenodd"
         stroke="none"
         id="path10" />
    </g>
  </defs>
</svg>
