<?xml version="1.0" encoding="UTF-8" standalone="no"?>
<svg
   ffdec:objectType="frame"
   height="47.099998"
   width="32.099998"
   version="1.1"
   id="svg8"
   sodipodi:docname="2.svg"
   xmlns:inkscape="http://www.inkscape.org/namespaces/inkscape"
   xmlns:sodipodi="http://sodipodi.sourceforge.net/DTD/sodipodi-0.dtd"
   xmlns:xlink="http://www.w3.org/1999/xlink"
   xmlns="http://www.w3.org/2000/svg"
   xmlns:svg="http://www.w3.org/2000/svg"
   xmlns:ffdec="https://www.free-decompiler.com/flash">
  <sodipodi:namedview
     id="namedview8"
     pagecolor="#ffffff"
     bordercolor="#000000"
     borderopacity="0.25"
     inkscape:showpageshadow="2"
     inkscape:pageopacity="0.0"
     inkscape:pagecheckerboard="0"
     inkscape:deskcolor="#d1d1d1"
     fit-margin-top="5"
     fit-margin-left="5"
     fit-margin-right="5"
     fit-margin-bottom="5" />
  <g
     transform="translate(16.05,23.05)"
     id="g2">
    <use
       ffdec:characterId="3850"
       height="47.099998"
       transform="matrix(-1,0,0,1,16.05,-23.05)"
       width="32.099998"
       xlink:href="#sprite0"
       id="use1" />
    <use
       ffdec:characterId="3500"
       height="8"
       transform="matrix(-0.6945,0.0476,0.0476,0.6945,3.3097,16.1652)"
       width="10.8"
       xlink:href="#sprite1"
       id="use2" />
  </g>
  <defs
     id="defs8">
    <g
       id="sprite0"
       transform="translate(16.05,23.55)">
      <use
         ffdec:characterId="3848"
         height="47.099998"
         transform="translate(-16.05,-23.55)"
         width="32.099998"
         xlink:href="#shape0"
         id="use3" />
    </g>
    <g
       id="shape0"
       transform="translate(16.05,23.55)">
      <path
         d="m 11.45,-23.2 0.1,0.65 -1.55,2 -2.3,3 -1.45,2.5 -0.35,0.6 -0.1,0.2 1.95,-0.8 q 3.25,-1.2 5.7,-1 2.6,0.15 2.6,1.85 0,0.2 -3.3,1.85 -3.8,1.9 -5.55,3.65 l -2.45,3.1 -1.5,2.1 H 3.3 Q 5,-3.7 8.4,-2.3 l 1.6,1.65 1.25,1.8 q 1.2,1.65 1.55,3.45 l 0.15,3.3 q 0,3.7 -2.45,8.5 -3.6,7.15 -10.2,7.15 L -1.95,23.25 -3,22.95 -6.6,23 -7.65,22.65 q -1.2,-0.35 -3.7,-2 -1,-0.75 -1.7,-2 l -0.9,-2.2 Q -15.3,12.6 -15.3,8.2 q 0,-3.95 0.6,-5.7 0.5,-1.45 2.3,-3.25 2.15,-2.15 4.15,-2.15 l 0.3,0.05 0.55,-0.25 0.75,-0.2 -0.6,-1 -2.05,-3.4 -3.45,-2.85 -2.05,-1.95 q -1.25,-0.35 -1.25,-0.9 0,-0.9 2.2,-1.05 l 4.85,0.6 1.6,0.55 -1.1,-1.75 -2.25,-3.45 q -1.25,-0.45 -1.25,-1.05 0,-1.95 5,0.2 1.55,0.7 2.65,1.4 -0.5,-1 -1.35,-2.15 l -1.35,-2 0.05,-0.4 0.25,0.05 q 0.25,-0.7 1.65,-0.45 1.65,0.25 3.15,1.4 1.8,1.55 2.25,3.45 l 0.4,1.45 q 0.5,-1.7 2.1,-3.3 3.1,-3.05 8.6,-3.65 l 0.15,0.25 -0.1,0.1 m 1.25,8.8 -1.9,-0.2 q -5,0 -7.9,4.65 -2,4.65 -2.6,4.65 -0.55,0 -0.8,-0.55 l -0.1,-0.6 0.2,-1.6 0.55,-1.5 -0.15,-2.75 -0.55,-2.5 -0.3,-1.25 -0.35,-1.6 q -0.25,-1 -0.85,-1.75 -0.35,-0.5 -1.85,-1.1 l 1.3,2.45 1.2,3.35 q 0.35,1.6 0.35,2.95 l -0.05,3.05 -0.05,0.6 q -0.3,1.85 -1.15,2.05 L -2.7,-6 q -0.4,0 -1.35,-1.75 -1.05,-2 -1.45,-2.3 -2.25,-1.7 -6.55,-2.05 2.55,1.35 4.65,3.4 3.25,3.1 3.4,5.75 l 0.1,0.5 h 0.1 q 1.25,0.3 1.25,0.9 0,0.25 -0.15,0.45 -0.2,0.2 -0.65,0.2 -1.25,0 -1.6,-0.5 l -0.75,0.05 -2.55,0.55 -0.6,0.2 -1.15,1.05 -1.3,1.5 1.25,0.3 0.9,-1.05 0.3,0.1 0.05,0.3 q 0,0.35 -0.3,0.9 l 1.15,0.3 Q -8.2,3.15 -8.85,3.15 L -9.45,3.1 -9.9,3.9 -10.2,5 q -0.15,0.7 -0.45,0.95 -0.45,-0.2 -0.45,-1.05 0,-0.75 0.7,-2 l -0.65,-0.15 -0.7,-0.15 q -0.95,1.55 -0.95,3.25 l 0.05,2.4 0.15,1.5 0.65,0.15 q 0.45,-2.65 0.75,-2.75 0.3,0.25 0.3,0.55 l -0.3,2.3 h 0.3 l 0.25,0.05 0.1,0.25 -0.05,0.45 h -0.75 l -0.45,3.05 0.9,2.1 0.9,0.55 -0.2,0.3 -0.15,0.1 q 2,3 5.55,3.35 L -4.75,20.1 -5.1,18.65 v -0.8 h -0.6 l -1.05,-0.1 q -0.1,-0.2 -0.45,-0.35 0.35,-0.55 1.05,-0.4 l 1.05,0.2 v -0.35 l 0.35,-1.4 q 0.45,0.4 0.45,1.4 v 0.45 l -0.05,0.95 0.9,1.55 0.25,0.3 0.8,-0.2 q 0.75,0 1.4,0.4 l 1.4,0.4 q 3.6,0 6.05,-3 L 4.4,17.85 q -0.15,0 -0.15,-0.4 0,-0.55 1.15,-0.65 l 1.85,-0.15 1.3,-2.6 0.55,-1.4 -2,0.2 H 6.95 L 6.9,13.1 6.05,14.35 5.7,13.75 5.95,13 6.1,12.7 6,12.65 5.9,12.1 h 0.25 v -0.15 l -0.2,-0.9 v -0.1 Q 5.9,10.4 6.45,10.3 l 0.5,0.9 V 12 L 9.4,11.85 10.25,8.15 9.95,8.3 7.1,8.4 6.8,8 6.75,7.95 Q 6.8,7.65 7.3,7.65 l 2.95,0.4 0.1,-1.6 Q 10.35,5.5 9.75,4.1 L 9.65,3.9 8.25,4.15 6.6,4.25 v 0.2 L 6.5,5.95 6.2,6 Q 5.9,5.45 5.7,4.3 H 3.65 L 2.7,4.2 2.4,3.9 Q 3.4,3.3 5.5,3.05 L 5,1.15 Q 5.9,0.55 6.35,2.3 L 6.5,2.95 q 1.6,-0.15 2.7,0 L 8.55,1.75 Q 7.25,-0.75 4.3,-0.85 L 2.55,-1.2 2.1,-0.95 Q 0.8,-0.2 0.15,-0.2 H -0.8 L -1.65,2.15 -1.9,2.9 -0.55,2.95 H -0.5 L -0.45,3.2 V 3.45 L -2.05,3.6 Q -2.35,5.05 -2.1,6.15 L -2.25,6.4 -2.6,6.55 -2.9,6.5 -2.95,6.4 -3.1,3.85 V 3.7 H -4.05 L -4.3,3.6 -4.35,3.3 l 0.3,-0.35 1,-0.05 0.35,-1.45 q 0.35,-0.9 1.25,-1.95 L -1.8,-0.75 -1.9,-0.8 Q -0.7,-1.25 0.8,-2 L 1.85,-2.35 Q 1.9,-2.75 2.1,-2.95 V -3.3 q 0,-2.75 4.55,-6.75 3.85,-3.4 6,-4.1 l 0.4,-0.15 0.05,-0.1 h -0.4 m -5.05,-6.15 -4.05,2.6 -0.8,1.8 -0.65,1.2 -0.4,0.8 -0.3,0.4 0.05,2.35 2.15,-1.65 q 0.2,-2.85 3.55,-7 l 0.45,-0.5 M 1.5,10.05 q 0,-1.8 1.9,-1.8 1.85,-0.05 1.85,1.8 l -0.1,0.8 q -0.35,1 -1.75,1 -1.1,0 -1.6,-0.8 -0.3,-0.5 -0.3,-1 m -9.45,-27.5 q 3.15,3.8 3.3,5.55 1.1,0.8 1.75,1.8 l 0.05,-0.6 -0.05,-2.45 -0.4,-1.6 -3.15,-2.55 -1.85,-0.55 0.35,0.4 m 0.3,28.5 q -1.05,0 -1.5,-0.85 l -0.25,-1 q 0,-1.9 1.8,-1.9 1.8,0 1.8,1.8 0,0.6 -0.4,1.2 -0.55,0.75 -1.45,0.75 m 3.9,0.85 -0.1,0.2 v 0.65 L -0.9,12.7 v -0.95 l -2.15,0.4 -0.7,-0.25 m -8.65,-1.15 0.2,1 0.15,-1 h -0.35 m 9.8,3.75 -2.65,-0.25 -0.3,-0.6 q 0,-4.1 2.95,-4.55 2.9,-0.45 2.9,4.55 0,0.6 -0.45,0.75 l -2.45,0.1"
         fill="#6b6b6b"
         fill-rule="evenodd"
         stroke="none"
         id="path3" />
      <path
         d="m -12.4,10.75 h 0.35 l -0.15,1 -0.2,-1"
         fill="#b1b1b1"
         fill-rule="evenodd"
         stroke="none"
         id="path4" />
      <path
         d="m -3.75,11.9 0.7,0.25 2.15,-0.4 v 0.95 l -2.95,0.05 V 12.1 l 0.1,-0.2"
         fill="#cdcdcd"
         fill-rule="evenodd"
         stroke="none"
         id="path5" />
      <path
         d="m -2.7,-1.1 0.8,0.3 0.1,0.05 0.35,0.25 q -0.9,1.05 -1.25,1.95 l -0.35,1.45 -1,0.05 -0.3,0.35 0.05,0.3 0.25,0.1 H -3.1 V 3.85 L -2.95,6.4 -2.9,6.5 -2.6,6.55 -2.25,6.4 -2.1,6.15 Q -2.35,5.05 -2.05,3.6 l 1.6,-0.15 V 3.2 L -0.5,2.95 H -0.55 L -1.9,2.9 -1.65,2.15 -0.8,-0.2 h 0.95 q 0.65,0 1.95,-0.75 L 2.55,-1.2 4.3,-0.85 q 2.95,0.1 4.25,2.6 L 9.2,2.95 Q 8.1,2.8 6.5,2.95 L 6.35,2.3 Q 5.9,0.55 5,1.15 l 0.5,1.9 Q 3.4,3.3 2.4,3.9 L 2.7,4.2 3.65,4.3 H 5.7 Q 5.9,5.45 6.2,6 L 6.5,5.95 6.6,4.45 v -0.2 l 1.65,-0.1 1.4,-0.25 0.1,0.2 q 0.6,1.4 0.6,2.35 l -0.1,1.6 -2.95,-0.4 q -0.5,0 -0.55,0.3 L 6.8,8 7.1,8.4 9.95,8.3 10.25,8.15 9.4,11.85 6.95,12 v -0.8 l -0.5,-0.9 q -0.55,0.1 -0.5,0.65 v 0.1 l 0.2,0.9 V 12.1 H 5.9 L 6,12.65 6.1,12.7 5.95,13 5.7,13.75 6.05,14.35 6.9,13.1 6.95,12.85 H 7.1 l 2,-0.2 -0.55,1.4 -1.3,2.6 -1.85,0.15 q -1.15,0.1 -1.15,0.65 0,0.4 0.15,0.4 L 6.45,17.7 Q 4,20.7 0.4,20.7 L -1,20.3 q -0.65,-0.4 -1.4,-0.4 l -0.8,0.2 -0.25,-0.3 -0.9,-1.55 0.05,-0.95 v -0.45 q 0,-1 -0.45,-1.4 l -0.35,1.4 V 17.2 L -6.15,17 q -0.7,-0.15 -1.05,0.4 0.35,0.15 0.45,0.35 l 1.05,0.1 h 0.6 v 0.8 l 0.35,1.45 0.05,0.1 q -3.55,-0.35 -5.55,-3.35 l 0.15,-0.1 0.2,-0.3 -0.9,-0.55 -0.9,-2.1 0.45,-3.05 h 0.75 l 0.05,-0.45 -0.1,-0.25 L -10.8,10 h -0.3 l 0.3,-2.3 q 0,-0.3 -0.3,-0.55 -0.3,0.1 -0.75,2.75 l -0.65,-0.15 -0.15,-1.5 -0.05,-2.4 q 0,-1.7 0.95,-3.25 l 0.7,0.15 0.65,0.15 q -0.7,1.25 -0.7,2 0,0.85 0.45,1.05 0.3,-0.25 0.45,-0.95 l 0.3,-1.1 0.45,-0.8 0.6,0.05 q 0.65,0 0.9,-0.35 L -9.1,2.5 q 0.3,-0.55 0.3,-0.9 l -0.05,-0.3 -0.3,-0.1 -0.9,1.05 -1.25,-0.3 1.3,-1.5 1.15,-1.05 0.6,-0.2 2.55,-0.55 0.75,-0.05 q 0.35,0.5 1.6,0.5 0.45,0 0.65,-0.2 m 4.2,11.15 q 0,0.5 0.3,1 0.5,0.8 1.6,0.8 1.4,0 1.75,-1 l 0.1,-0.8 q 0,-1.85 -1.85,-1.8 -1.9,0 -1.9,1.8 m -9.15,1 q 0.9,0 1.45,-0.75 0.4,-0.6 0.4,-1.2 0,-1.8 -1.8,-1.8 -1.8,0 -1.8,1.9 l 0.25,1 q 0.45,0.85 1.5,0.85 m 5.05,3.45 2.45,-0.1 q 0.45,-0.15 0.45,-0.75 0,-5 -2.9,-4.55 -2.95,0.45 -2.95,4.55 l 0.3,0.6 2.65,0.25"
         fill="#c6c092"
         fill-rule="evenodd"
         stroke="none"
         id="path6" />
      <path
         d="m -2.7,-1.1 q 0.15,-0.2 0.15,-0.45 0,-0.6 -1.25,-0.9 H -3.9 L -4,-2.95 q -0.15,-2.65 -3.4,-5.75 -2.1,-2.05 -4.65,-3.4 4.3,0.35 6.55,2.05 0.4,0.3 1.45,2.3 Q -3.1,-6 -2.7,-6 l 0.4,-0.05 q 0.85,-0.2 1.15,-2.05 l 0.05,-0.6 0.05,-3.05 q 0,-1.35 -0.35,-2.95 l -1.2,-3.35 -1.3,-2.45 q 1.5,0.6 1.85,1.1 0.6,0.75 0.85,1.75 l 0.35,1.6 0.3,1.25 0.55,2.5 0.15,2.75 -0.55,1.5 -0.2,1.6 0.1,0.6 q 0.25,0.55 0.8,0.55 0.6,0 2.6,-4.65 2.9,-4.65 7.9,-4.65 l 1.9,0.2 -0.05,0.25 q -2.15,0.7 -6,4.1 -4.55,4 -4.55,6.75 v 0.35 q -0.2,0.2 -0.25,0.6 L 0.8,-2 q -1.5,0.75 -2.7,1.2 l -0.8,-0.3 m 10.35,-19.45 -0.45,0.5 q -3.35,4.15 -3.55,7 l -2.15,1.65 -0.05,-2.35 0.3,-0.4 0.4,-0.8 0.65,-1.2 0.8,-1.8 4.05,-2.6 m -15.6,3.1 -0.35,-0.4 1.85,0.55 3.15,2.55 0.4,1.6 0.05,2.45 -0.05,0.6 q -0.65,-1 -1.75,-1.8 -0.15,-1.75 -3.3,-5.55"
         fill="#7e9476"
         fill-rule="evenodd"
         stroke="none"
         id="path7" />
    </g>
    <g
       id="sprite1"
       transform="translate(5.4,4)">
      <use
         ffdec:characterId="43"
         height="8"
         transform="translate(-5.4,-4)"
         width="10.8"
         xlink:href="#shape1"
         id="use7" />
    </g>
    <g
       id="shape1"
       transform="translate(5.4,4)">
      <path
         d="m 2.9,-0.35 q 0,-1.25 1.25,-1.25 1.25,0 1.25,1.2 0,1.3 -1.25,1.3 Q 3.6,0.9 3.25,0.5 2.9,0.15 2.9,-0.35 m 0.35,-2.3 q 0,0.55 -0.35,0.9 -0.4,0.45 -1,0.45 -1.35,0 -1.35,-1.4 0,-1.3 1.35,-1.3 1.35,0 1.35,1.35 m -3.1,1.9 h 0.2 q 2.6,0.1 2.6,2.8 l -0.3,1 Q 2.05,4 0.45,4 H 0.35 0.15 0.1 -0.45 q -1.6,0 -2.2,-0.95 l -0.3,-1 q 0,-2.8 2.8,-2.8 h 0.3 M -1.55,-4 q 1.35,0 1.35,1.35 0,0.55 -0.4,0.9 -0.4,0.45 -0.95,0.45 -1.4,0 -1.4,-1.4 0,-1.3 1.4,-1.3 m -2.6,2.4 q 1.25,0 1.25,1.25 0,0.5 -0.35,0.85 -0.35,0.4 -0.9,0.4 -1.25,0 -1.25,-1.3 0,-1.2 1.25,-1.2"
         fill="#6b6b6b"
         fill-rule="evenodd"
         stroke="none"
         id="path8" />
    </g>
  </defs>
</svg>
