<?xml version="1.0" encoding="UTF-8" standalone="no"?>
<svg
   ffdec:objectType="frame"
   height="28.75312"
   width="16.916994"
   version="1.1"
   id="svg8"
   sodipodi:docname="2.svg"
   xmlns:inkscape="http://www.inkscape.org/namespaces/inkscape"
   xmlns:sodipodi="http://sodipodi.sourceforge.net/DTD/sodipodi-0.dtd"
   xmlns:xlink="http://www.w3.org/1999/xlink"
   xmlns="http://www.w3.org/2000/svg"
   xmlns:svg="http://www.w3.org/2000/svg"
   xmlns:ffdec="https://www.free-decompiler.com/flash">
  <sodipodi:namedview
     id="namedview8"
     pagecolor="#ffffff"
     bordercolor="#000000"
     borderopacity="0.25"
     inkscape:showpageshadow="2"
     inkscape:pageopacity="0.0"
     inkscape:pagecheckerboard="0"
     inkscape:deskcolor="#d1d1d1"
     fit-margin-top="5"
     fit-margin-left="5"
     fit-margin-right="5"
     fit-margin-bottom="5" />
  <g
     transform="translate(8.4235,14.2499)"
     id="g3">
    <use
       ffdec:characterId="2106"
       height="26.35"
       transform="matrix(1.4039,0,0,1.0912,-8.4235,-14.2499)"
       width="12.05"
       xlink:href="#sprite0"
       id="use1" />
    <use
       ffdec:characterId="1691"
       height="8"
       transform="matrix(0.7,0,0,0.7,-3.6799,7.4001)"
       width="10.8"
       xlink:href="#sprite1"
       id="use2" />
    <use
       ffdec:characterId="2144"
       height="13.55"
       transform="matrix(1,0,0,1.2074,-2.1,-10.2103)"
       width="4.4499998"
       xlink:href="#sprite2"
       id="use3" />
  </g>
  <defs
     id="defs8">
    <g
       id="sprite0"
       transform="translate(6,13.15)">
      <use
         ffdec:characterId="2105"
         height="26.35"
         transform="translate(-6,-13.15)"
         width="12.05"
         xlink:href="#shape0"
         id="use4" />
    </g>
    <g
       id="shape0"
       transform="translate(6,13.15)">
      <path
         d="M 5.55,13.15 V 13.2 L 1.3,13.1 -2,13.05 -6,13 v -25.35 l 0.45,-0.4 0.05,-0.15 v 0.1 l 0.25,-0.05 0.3,0.05 2.95,-0.35 h 1.25 0.05 2 l 4.75,0.65 v 25.35 l -0.5,0.3 M -3.2,-10.5 H -3.8 V 2.35 L -3.75,4.8 -3.8,8.65 q -0.1,1.35 -0.35,2.2 v 0.2 h 1.4 L -2.9,7.45 -2.8,2.7 v -13.2 h -0.4 m 4.5,0 H -0.7 -2 V 11.05 H 2.05 V 0.5 L 2,-5.7 v -3.4 q 0,-0.8 0.15,-1.4 H 1.3 M 2.85,-10.55 3.1,-5.7 3,0.25 v 10.8 H 4 Q 4,4.35 4.15,1.2 l 0.2,-6.25 0.05,-5.6 -1.55,0.1"
         fill="#6b6b6b"
         fill-rule="evenodd"
         stroke="none"
         id="path4" />
      <path
         d="M 1.3,-10.5 H 2.15 Q 2,-9.9 2,-9.1 v 3.4 L 2.05,0.5 V 11.05 H -2 V -10.5 h 1.3 2"
         fill="#797782"
         fill-rule="evenodd"
         stroke="none"
         id="path5" />
      <path
         d="m -3.2,-10.5 h 0.4 V 2.7 l -0.1,4.75 0.15,3.6 h -1.4 v -0.2 Q -3.9,10 -3.8,8.65 L -3.75,4.8 -3.8,2.35 V -10.5 h 0.6 m 6.05,-0.05 1.55,-0.1 -0.05,5.6 -0.2,6.25 Q 4,4.35 4,11.05 H 3 V 0.25 L 3.1,-5.7 2.85,-10.55"
         fill="#8c8a96"
         fill-rule="evenodd"
         stroke="none"
         id="path6" />
    </g>
    <g
       id="sprite1"
       transform="translate(5.4,4)">
      <use
         ffdec:characterId="43"
         height="8"
         transform="translate(-5.4,-4)"
         width="10.8"
         xlink:href="#shape1"
         id="use6" />
    </g>
    <g
       id="shape1"
       transform="translate(5.4,4)">
      <path
         d="m 2.9,-0.35 q 0,-1.25 1.25,-1.25 1.25,0 1.25,1.2 0,1.3 -1.25,1.3 Q 3.6,0.9 3.25,0.5 2.9,0.15 2.9,-0.35 m 0.35,-2.3 q 0,0.55 -0.35,0.9 -0.4,0.45 -1,0.45 -1.35,0 -1.35,-1.4 0,-1.3 1.35,-1.3 1.35,0 1.35,1.35 m -3.1,1.9 h 0.2 q 2.6,0.1 2.6,2.8 l -0.3,1 Q 2.05,4 0.45,4 H 0.35 0.15 0.1 -0.45 q -1.6,0 -2.2,-0.95 l -0.3,-1 q 0,-2.8 2.8,-2.8 h 0.3 M -1.55,-4 q 1.35,0 1.35,1.35 0,0.55 -0.4,0.9 -0.4,0.45 -0.95,0.45 -1.4,0 -1.4,-1.4 0,-1.3 1.4,-1.3 m -2.6,2.4 q 1.25,0 1.25,1.25 0,0.5 -0.35,0.85 -0.35,0.4 -0.9,0.4 -1.25,0 -1.25,-1.3 0,-1.2 1.25,-1.2"
         fill="#6b6b6b"
         fill-rule="evenodd"
         stroke="none"
         id="path7" />
    </g>
    <g
       id="sprite2"
       transform="translate(2.2,6.8)">
      <use
         ffdec:characterId="2143"
         height="13.55"
         transform="translate(-2.2,-6.8)"
         width="4.4499998"
         xlink:href="#shape2"
         id="use7" />
    </g>
    <g
       id="shape2"
       transform="translate(2.2,6.8)">
      <path
         d="m 2.25,-4.45 v 0.05 q 0,0.5 -2,0.7 L 0.1,-3.85 v -0.1 q 0,-0.2 0.7,-0.25 H 1 L 0.8,-4.85 0.35,-4.8 h -0.1 l -0.2,-0.15 v -0.1 l 0.4,-0.2 q 1.4,0 1.65,0.5 l 0.15,0.3 m -1.05,-0.4 0.1,0.5 v 0.1 q 0.5,-0.1 0.5,-0.2 0,-0.3 -0.6,-0.4 m 1,3.35 v 0.15 L 2.05,-1 H 2 Q 1.8,-1 1.75,-1.3 V -1.65 L 0.7,-1.7 H 0.25 L 0.05,-1.85 V -1.9 q 0,-0.25 0.45,-0.25 l 1.25,0.1 -0.05,-0.3 v -0.2 l 0.2,-0.2 H 2 q 0.2,0 0.2,1.25 m -0.9,1.1 q 0,0.4 -1,0.45 L 0.1,-0.1 V -0.15 L 0.45,-0.3 V -0.75 Q 0.1,-0.8 0.1,-0.95 l 0.15,-0.2 0.9,0.35 0.15,0.4 M 0.75,-0.7 v 0.35 L 1,-0.45 V -0.5 L 0.75,-0.7 m 0.65,2 V 1.35 L 1.15,1.5 0.5,1.45 v 0.3 L 0.35,2 H 0.3 Q 0.1,2 0.1,1.65 V 1.25 L 0.3,1.05 H 1 q 0.4,0 0.4,0.25 M 1.25,0.45 v 0.1 L 0.85,0.7 H 0.4 L 0.15,0.5 V 0.45 Q 0.2,0.3 0.35,0.3 H 0.55 0.8 L 1.25,0.45 M 1.45,3.4 V 3.6 L 0.95,4.05 0.75,4.1 H 0.7 Q 0.25,3.9 0.25,3.55 v -0.2 q 0.1,-0.5 0.5,-0.5 0.6,0 0.7,0.55 M 0.9,3.25 H 0.8 L 0.65,3.4 v 0.15 l 0.1,0.2 h 0.1 L 1.1,3.5 V 3.4 L 0.9,3.25 m 0.65,1.8 V 5.1 L 1.4,5.45 Q 1.15,5.45 1.15,4.9 V 4.8 L 1,4.85 0.85,5.2 H 0.8 L 0.6,4.95 0.2,5 0.1,4.9 V 4.8 L 0.5,4.55 Q 0.55,4.45 0.7,4.45 L 0.85,4.5 1.35,4.4 q 0.2,0.15 0.2,0.65 m -1.6,-10.6 v 0.15 q 0,0.35 -0.15,0.35 H -0.25 L -0.5,-5.35 V -5.7 L -1.55,-5.75 H -2 L -2.2,-5.9 v -0.05 q 0,-0.25 0.45,-0.25 l 1.25,0.1 -0.05,-0.3 v -0.2 l 0.2,-0.2 h 0.1 q 0.2,0 0.2,1.25 M -0.7,-3.8 v 0.05 L -0.85,-3.7 Q -2,-3.9 -2,-4.25 L -1.7,-4.55 -2,-4.7 v -0.1 q 0,-0.2 0.95,-0.4 h 0.1 q 0.15,0 0.15,0.1 l -0.55,0.4 0.25,0.15 v 0.05 l -0.2,0.2 -0.05,0.05 v 0.05 q 0.35,0.1 0.65,0.4 m -0.65,0.7 h -0.1 l -0.15,0.15 v 0.15 l 0.1,0.2 h 0.1 q 0.25,-0.05 0.25,-0.25 v -0.1 l -0.2,-0.15 m 0.55,0.15 v 0.2 l -0.5,0.45 -0.2,0.05 H -1.55 Q -2,-2.45 -2,-2.8 V -3 l 0.5,-0.5 q 0.6,0 0.7,0.55 m 0.75,3.35 -0.15,0.05 -0.95,-0.8 q -0.45,0.7 -0.8,0.8 l -0.15,-0.2 0.65,-0.9 -0.5,0.05 -0.15,-0.25 q 0.35,-0.3 1.1,-0.3 h 0.25 l 0.65,0.1 V -1 q 0,0.2 -0.85,0.25 l 0.9,1.15 M -1,0.8 V 0.9 L -1.4,1.05 H -1.85 L -2.1,0.85 V 0.8 l 0.2,-0.15 h 0.2 0.25 Q -1,0.7 -1,0.8 m 0.2,0.8 -0.15,0.8 Q -0.8,2.45 -0.8,2.8 L -0.95,3.6 H -1 L -1.2,3.15 -1.95,3.2 -2.1,3.05 v -0.1 l 0.25,-0.2 0.65,0.1 V 2.65 Q -1.2,2.4 -1,2.4 L -1.2,1.95 -1.95,2 -2.1,1.85 v -0.1 l 0.25,-0.2 0.65,0.1 V 1.45 Q -1.2,1.2 -1,1.2 h 0.05 Q -0.8,1.25 -0.8,1.6 M -1,3.95 v 0.1 L -1.4,4.2 H -1.85 L -2.1,4 V 3.95 L -1.9,3.8 h 0.2 0.25 Q -1,3.85 -1,3.95 m 0.2,0.95 v 0.35 q 0,0.25 -0.15,0.3 l -0.2,-0.7 h -0.1 v 0.1 q 0,0.35 -0.2,0.35 L -1.6,4.95 H -1.7 L -1.75,5 -1.7,5.4 -1.85,5.65 H -1.9 L -2.15,4.85 V 4.8 q 0,-0.2 0.6,-0.2 L -1,4.5 -0.8,4.9 M -0.85,6.25 V 6.4 L -1.15,6.75 -1.25,6.7 V 6.6 l 0.1,-0.25 V 6.25 H -1.3 q 0,0.5 -0.4,0.5 h -0.05 q -0.4,0 -0.4,-0.4 V 6.1 L -1.8,5.85 q 0.15,0 0.15,0.15 l -0.2,0.2 V 6.35 L -1.8,6.4 h 0.1 L -1.5,6 -1.3,5.95 h 0.05 q 0.4,0.05 0.4,0.3"
         fill="#6b6b6b"
         fill-rule="evenodd"
         stroke="none"
         id="path8" />
    </g>
  </defs>
</svg>
