<?xml version="1.0" encoding="UTF-8" standalone="no"?>
<svg
   ffdec:objectType="frame"
   height="104.4"
   width="115.05419"
   version="1.1"
   id="svg44"
   sodipodi:docname="1.svg"
   xmlns:inkscape="http://www.inkscape.org/namespaces/inkscape"
   xmlns:sodipodi="http://sodipodi.sourceforge.net/DTD/sodipodi-0.dtd"
   xmlns:xlink="http://www.w3.org/1999/xlink"
   xmlns="http://www.w3.org/2000/svg"
   xmlns:svg="http://www.w3.org/2000/svg"
   xmlns:ffdec="https://www.free-decompiler.com/flash">
  <sodipodi:namedview
     id="namedview44"
     pagecolor="#ffffff"
     bordercolor="#000000"
     borderopacity="0.25"
     inkscape:showpageshadow="2"
     inkscape:pageopacity="0.0"
     inkscape:pagecheckerboard="0"
     inkscape:deskcolor="#d1d1d1"
     fit-margin-top="5"
     fit-margin-left="5"
     fit-margin-right="5"
     fit-margin-bottom="5" />
  <g
     transform="translate(57.8,56.6)"
     id="g23">
    <use
       ffdec:characterId="334"
       height="9.6000004"
       transform="translate(-52.3,31.55)"
       width="101.4"
       xlink:href="#shape0"
       id="use1" />
    <use
       ffdec:characterId="303"
       height="27.9"
       transform="matrix(0.8243,0,0,0.9674,-1.25,-2.25)"
       width="34.549999"
       xlink:href="#sprite0"
       id="use2" />
    <use
       ffdec:characterId="284"
       height="7.6999998"
       transform="matrix(0.9716,0,0,1.1401,2.4,11.1)"
       width="9.0500002"
       xlink:href="#sprite1"
       id="use3" />
    <use
       ffdec:characterId="320"
       height="29.15"
       transform="matrix(0.8243,0,0,0.9674,24.95,-1.7294)"
       width="34.200001"
       xlink:href="#sprite2"
       id="use4" />
    <use
       ffdec:characterId="286"
       height="4.9000001"
       transform="matrix(0.9716,0,0,1.1401,33.3,5)"
       width="11.85"
       xlink:href="#sprite3"
       id="use5" />
    <use
       ffdec:characterId="322"
       height="39.099998"
       transform="matrix(0.8459,0,0,-0.5769,-20.5,47.8)"
       width="4.4499998"
       xlink:href="#sprite4"
       id="use6" />
    <use
       ffdec:characterId="322"
       height="39.099998"
       transform="matrix(0.8459,0,0,0.9642,-19,-36.85)"
       width="4.4499998"
       xlink:href="#sprite4"
       id="use7" />
    <use
       ffdec:characterId="322"
       height="39.099998"
       transform="matrix(0.8459,0,0,0.8114,-19,-3.5)"
       width="4.4499998"
       xlink:href="#sprite4"
       id="use8" />
    <use
       ffdec:characterId="322"
       height="39.099998"
       transform="matrix(1,0,0,1.1884,-52.7,-56.6)"
       width="4.4499998"
       xlink:href="#sprite5"
       id="use9" />
    <use
       ffdec:characterId="322"
       height="39.099998"
       transform="translate(-52.7,-13.75)"
       width="4.4499998"
       xlink:href="#sprite5"
       id="use10" />
    <use
       ffdec:characterId="288"
       height="48.799999"
       transform="matrix(0,1.1081,1,0,-57.8,23.25)"
       width="9.1999998"
       xlink:href="#sprite6"
       id="use11" />
    <use
       ffdec:characterId="288"
       height="48.799999"
       transform="matrix(0.1491,-1.098,1.0001,0.0672,7.6,32.9)"
       width="9.1999998"
       xlink:href="#sprite6"
       id="use12" />
    <use
       ffdec:characterId="290"
       height="30.799999"
       transform="matrix(0,1.1081,1,0,-18.95,23.15)"
       width="9.1999998"
       xlink:href="#sprite7"
       id="use13" />
    <use
       ffdec:characterId="322"
       height="39.099998"
       transform="matrix(1,0,0,-1,50.1,27.15)"
       width="4.4499998"
       xlink:href="#sprite5"
       id="use14" />
    <use
       ffdec:characterId="322"
       height="39.099998"
       transform="matrix(1,0,0,-1.1884,50.1,-10.1)"
       width="4.4499998"
       xlink:href="#sprite5"
       id="use15" />
    <use
       ffdec:characterId="318"
       height="19.200001"
       transform="matrix(-1,0,0,0.5941,52.25,25.15)"
       width="4.5999999"
       xlink:href="#sprite8"
       id="use16" />
    <use
       ffdec:characterId="318"
       height="19.200001"
       transform="matrix(0.9659,0.2503,-0.1752,0.6326,51.6483,23.8625)"
       width="4.5999999"
       xlink:href="#sprite8"
       id="use17" />
    <use
       ffdec:characterId="318"
       height="19.200001"
       transform="matrix(-1,0,0,-0.5941,-49.75,34.05)"
       width="4.5999999"
       xlink:href="#sprite8"
       id="use18" />
    <use
       ffdec:characterId="318"
       height="19.200001"
       transform="matrix(-1,0,0.0842,-0.5941,-47,33.65)"
       width="4.5999999"
       xlink:href="#sprite8"
       id="use19" />
    <use
       ffdec:characterId="318"
       height="19.200001"
       transform="matrix(0.9659,-0.2503,-0.1752,-0.6326,-50.3517,35.3375)"
       width="4.5999999"
       xlink:href="#sprite8"
       id="use20" />
    <use
       ffdec:characterId="318"
       height="19.200001"
       transform="matrix(-0.9659,-0.2588,0.1537,-0.5739,-16.3483,34.4371)"
       width="4.5999999"
       xlink:href="#sprite8"
       id="use21" />
    <use
       ffdec:characterId="318"
       height="19.200001"
       transform="matrix(-0.937,0.3494,-0.2076,-0.5567,-12.9468,32.9175)"
       width="4.5999999"
       xlink:href="#sprite8"
       id="use22" />
    <use
       ffdec:characterId="322"
       height="39.099998"
       transform="matrix(0.8459,0,0,0.9642,-19,-56)"
       width="4.4499998"
       xlink:href="#sprite4"
       id="use23" />
  </g>
  <defs
     id="defs44">
    <g
       id="shape0"
       transform="translate(52.4,-31.55)">
      <path
         d="m 44.95,35.2 q 0.25,-1.65 0.8,-1.7 0.45,0 0.7,1.15 L 46.9,34.6 q 2.1,-0.1 2.1,0.9 0,0.6 -0.45,0.9 l -1.75,0.25 h -0.1 v 1.75 q 0,1.25 -0.9,1.25 -1,0 -1,-1.2 L 44.9,36 44.8,35.7 q 0,-0.3 0.15,-0.5 m -51.9,-3.65 0.6,0.05 0.3,0.4 -1.85,0.7 -1.15,0.5 v 6.65 l -0.45,1.3 H -9.55 L -9.8,38.8 -9.95,36.15 v -2 l -0.7,0.65 q -1.2,0.95 -2.65,0.95 -1.9,0 -3.25,-0.85 -1.05,-0.7 -1.05,-1.2 l 0.45,-0.65 1,0.8 q 0.8,0.45 1.95,0.55 h 1.8 l 2.05,-1.8 0.4,-0.3 v -0.25 l 0.35,0.05 q 1.05,-0.55 2.65,-0.55 m -43.85,4.4 q -1.6,0 -1.6,-0.9 0,-2.1 1.55,-2.55 1.55,-0.45 1.55,2.6 0,0.85 -1.5,0.85"
         fill="#9a9a9a"
         fill-rule="evenodd"
         stroke="none"
         id="path23" />
    </g>
    <g
       id="sprite0">
      <use
         ffdec:characterId="302"
         height="27.9"
         width="34.549999"
         xlink:href="#shape1"
         id="use24" />
    </g>
    <g
       id="shape1">
      <path
         d="m 30.7,3.25 -4.45,0.1 H 18.6 l 0.45,8.8 Q 19.3,19.6 20.1,23.7 v 0.55 l 1.15,0.05 H 31.7 Q 31.35,22.6 31.2,19.45 L 31.15,12.8 Q 30.65,7.9 30.6,5.3 L 30.7,3.25 M 32.85,0.6 q 1.05,0 1.65,1 v 11.5 l 0.05,3.8 -0.05,2.9 q -0.2,3.6 -0.65,5.2 0.35,0.4 0.35,1 l -0.45,1.05 q -0.45,0.6 -1.2,0.55 L 4.2,27.9 Q 1.05,27.9 0.25,27.05 0,26.8 0,25.95 0,25.5 0.3,25.15 L 0.15,24.3 v -0.45 l 0.1,-0.1 V 11.9 L 0.2,11.15 Q 0.8,5.4 0.8,0.7 V 0 H 3.3 L 3.35,0.1 3.65,0 H 30.2 q 1.55,0.2 2.25,0.65 L 32.85,0.6 M 17,3.35 H 6.55 L 4,3.3 V 3.95 L 3.45,11.9 V 24.25 Q 7.6,23.9 16.9,24.15 L 16.95,5.85 V 3.8 L 17,3.35 m 1.3,13 v 6.6 l 0.1,1.2 v 0.05 l 0.95,0.05 Q 18.7,21.6 18.3,16.35"
         fill="#6b6b6b"
         fill-rule="evenodd"
         stroke="none"
         id="path24" />
      <path
         d="M 30.7,3.25 30.6,5.3 q 0.05,2.6 0.55,7.5 l 0.05,6.65 q 0.15,3.15 0.5,4.85 H 21.25 L 20.1,24.25 V 23.7 Q 19.3,19.6 19.05,12.15 L 18.6,3.35 h 7.65 L 30.7,3.25 M 17,3.35 16.95,3.8 V 5.85 L 16.9,24.15 Q 7.6,23.9 3.45,24.25 V 11.9 L 4,3.95 V 3.3 L 6.55,3.35 H 17"
         fill="#c4c4c4"
         fill-rule="evenodd"
         stroke="none"
         id="path25" />
      <path
         d="m 18.3,16.35 q 0.4,5.25 1.05,7.9 L 18.4,24.2 v -0.05 l -0.1,-1.2 v -6.6"
         fill="#9e9e9e"
         fill-rule="evenodd"
         stroke="none"
         id="path26" />
    </g>
    <g
       id="sprite1">
      <use
         ffdec:characterId="283"
         height="7.6999998"
         width="9.0500002"
         xlink:href="#shape2"
         id="use26" />
    </g>
    <g
       id="shape2">
      <path
         d="M 8.9,2.35 V 6.9 L 9.05,7.15 8.55,7.6 6.2,7.7 H 1.6 L 0.1,7.45 0,7.15 Q 0,6.9 0.2,6.8 0,5.8 0.1,3.65 0.1,1.95 0.25,1.05 L 0.15,0.75 Q 0.15,0.3 0.5,0.25 L 0.75,0 1.05,0.2 h 6.5 L 8.3,0.35 q 0.25,-0.3 0.4,0.1 L 8.95,1.85 8.9,2.35 M 5.7,3.1 6.1,4.05 5.8,4.3 H 5.05 L 5.2,5.25 h 1 Q 7,5.5 7,5.65 7,6.15 6.35,6.1 H 2.55 L 2.15,5.65 2.55,5.25 H 4 Q 4,4.65 4.15,4.3 H 3.4 L 3.1,4.05 3.5,3.1 Q 4,2.35 4.35,2.3 L 4.6,2.4 4.85,2.3 Q 5.2,2.35 5.7,3.1 M 7.85,1.35 7.05,1.4 H 1.3 L 1.4,3.65 1.35,5.7 1.25,6.6 H 1.6 6.2 7.9 Q 7.75,5.75 7.85,4.2 V 1.35"
         fill="#6b6b6b"
         fill-rule="evenodd"
         stroke="none"
         id="path27" />
    </g>
    <g
       id="sprite2"
       transform="translate(0,-0.9)">
      <use
         ffdec:characterId="319"
         height="29.15"
         transform="translate(0,0.9)"
         width="34.200001"
         xlink:href="#shape3"
         id="use27" />
    </g>
    <g
       id="shape3"
       transform="translate(0,-0.9)">
      <path
         d="m 31.15,4.3 -0.2,2 -0.1,6.65 0.05,7.9 q 0.15,3.6 0.55,5.6 l -4,-0.15 -24,0.05 V 23.75 18.3 Q 4.35,16.8 5.4,16 4.25,16 3.45,16.6 L 3.4,4.2 6.15,4.45 H 19.4 l -0.7,0.6 -2.2,2.1 q 1.35,-0.5 2.75,-1.75 l 0.9,-0.95 H 22.8 Q 28.2,4.6 31.15,4.3"
         fill="#b6b6b6"
         fill-rule="evenodd"
         stroke="none"
         id="path28" />
      <path
         d="M 31.15,4.3 Q 28.2,4.6 22.8,4.45 h -2.65 l -0.9,0.95 q -1.4,1.25 -2.75,1.75 l 2.2,-2.1 0.7,-0.6 H 6.15 L 3.4,4.2 3.45,16.6 Q 4.25,16 5.4,16 4.35,16.8 3.45,18.3 v 5.45 2.6 l 24,-0.05 4,0.15 q -0.4,-2 -0.55,-5.6 l -0.05,-7.9 0.1,-6.65 0.2,-2 m 2.7,-2.45 v 11.65 9.7 q 0.1,2.3 0.35,4.05 l -0.35,1.15 0.05,0.3 q 0,0.65 -1.2,1.2 L 3,29.95 2.25,30.05 q -1.25,0 -1.5,-0.6 L 0.7,28.85 0.5,28.2 0,26.45 V 23.75 3.35 L 0.15,2.5 V 2.45 Q 0,2.3 0,1.85 0,1.3 0.35,1.1 L 0.85,0.9 H 33.8 l 0.05,0.95"
         fill="#6b6b6b"
         fill-rule="evenodd"
         stroke="none"
         id="path29" />
    </g>
    <g
       id="sprite3">
      <use
         ffdec:characterId="285"
         height="4.9000001"
         width="11.85"
         xlink:href="#shape4"
         id="use29" />
    </g>
    <g
       id="shape4">
      <path
         d="M 10.55,1.55 H 1.3 l 0.05,0.4 4.5,0.1 2.65,0.05 h 2 L 10.55,1.55 M 11.15,0 q 0.3,0 0.5,0.7 l 0.1,0.1 -0.05,0.05 0.15,2.4 v 0.8 L 11.5,4.55 Q 11.35,5 10.85,4.9 H 2.45 L 0.85,4.75 H 0.7 Q -0.15,4.75 0.05,2.7 0.05,1.65 0.2,1.05 L 0.15,0.85 q 0,-0.5 0.7,-0.7 H 10.9 L 11.15,0 m -0.7,3.25 v -0.6 l -9.1,0.2 v 0.7 l 1.1,0.05 h 7.95 l 0.05,-0.35"
         fill="#6b6b6b"
         fill-rule="evenodd"
         stroke="none"
         id="path30" />
      <path
         d="M 10.55,1.55 10.5,2.1 h -2 L 5.85,2.05 1.35,1.95 1.3,1.55 h 9.25"
         fill="#878787"
         fill-rule="evenodd"
         stroke="none"
         id="path31" />
      <path
         d="M 10.45,3.25 10.4,3.6 H 2.45 L 1.35,3.55 v -0.7 l 9.1,-0.2 v 0.6"
         fill="#777777"
         fill-rule="evenodd"
         stroke="none"
         id="path32" />
    </g>
    <g
       id="sprite4">
      <use
         ffdec:characterId="321"
         height="39.099998"
         width="4.4499998"
         xlink:href="#shape5"
         id="use32" />
    </g>
    <g
       id="shape5">
      <path
         d="M 2.9,2.15 2.95,1.6 H 2.8 2.75 2.3 2.15 2 1.8 L 1.85,1.9 1.9,2.1 1.95,2.65 v 0.1 Q 2.4,2.45 2.8,2.5 H 2.85 L 2.9,2.15 M 3.75,1.3 4.4,5.05 4.45,35.5 v 1.85 l -0.2,0.85 -0.2,0.45 Q 3.6,39 2.2,39 L 1.3,38.95 1,39.1 0.7,38.85 0.2,38.6 0.1,38.1 0.3,37.55 0,33.5 V 27.8 L 0.05,5.1 0.1,2.55 Q 0.15,1.55 0.5,0.9 V 0.8 Q 0.5,0.35 0.8,0.2 L 2.15,0 Q 4,0 4,0.8 L 3.75,1.3 m -1.8,2.9 v 1 1.05 L 2.45,6.05 2.65,6 V 5.75 5.55 L 2.75,3.6 Q 2.6,3.65 2.45,3.8 L 1.95,4.2 M 2,11.85 V 14.4 Q 2.25,14.25 2.55,14.2 V 11.65 L 2,11.85 M 2,10.65 2.55,10.35 2.6,7.3 1.95,7.8 2,10.65 M 2.15,15.7 2,15.9 v 3.3 l 0.5,-0.15 0.05,-3.7 -0.4,0.35 m 0.35,6.75 v -0.9 -1.3 L 2,20.6 v 2.2 L 2.5,22.45 M 2,24.15 v 3 l 0.5,-0.3 V 23.7 L 2,24.15 M 2.5,27.9 2.05,28.3 2.1,31.75 2.55,31.25 2.5,30.15 V 27.9 M 2,36.4 1.9,36.45 1.85,37.2 H 2.15 2.9 L 2.75,35.8 2,36.4 M 2.55,32.65 2.1,33 2.05,34.7 2.65,34.3 2.55,32.65"
         fill="#9a9a9a"
         fill-rule="evenodd"
         stroke="none"
         id="path33" />
      <path
         d="M 2.9,2.15 2.85,2.5 H 2.8 Q 2.4,2.45 1.95,2.75 V 2.65 L 1.9,2.1 1.85,1.9 1.8,1.6 H 2 2.15 2.3 2.75 2.8 2.95 L 2.9,2.15 M 2.55,32.65 2.65,34.3 2.05,34.7 2.1,33 2.55,32.65 M 2,36.4 2.75,35.8 2.9,37.2 H 2.15 1.85 L 1.9,36.45 2,36.4 m 0.5,-8.5 v 2.25 L 2.55,31.25 2.1,31.75 2.05,28.3 2.5,27.9 M 2,24.15 2.5,23.7 v 3.15 L 2,27.15 v -3 M 2.5,22.45 2,22.8 v -2.2 l 0.5,-0.35 v 1.3 0.9 M 2.15,15.7 2.55,15.35 2.5,19.05 2,19.2 V 15.9 L 2.15,15.7 M 2,10.65 1.95,7.8 2.6,7.3 2.55,10.35 2,10.65 m 0,1.2 0.55,-0.2 V 14.2 Q 2.25,14.25 2,14.4 V 11.85 M 1.95,4.2 2.45,3.8 Q 2.6,3.65 2.75,3.6 L 2.65,5.55 V 5.75 6 l -0.2,0.05 -0.5,0.2 V 5.2 4.2"
         fill="#a5a29f"
         fill-rule="evenodd"
         stroke="none"
         id="path34" />
    </g>
    <g
       id="sprite5">
      <use
         ffdec:characterId="321"
         height="39.099998"
         width="4.4499998"
         xlink:href="#shape6"
         id="use34" />
    </g>
    <g
       id="shape6">
      <path
         d="M 2.9,2.15 2.95,1.6 H 2.8 2.75 2.3 2.15 2 1.8 L 1.85,1.9 1.9,2.1 1.95,2.65 v 0.1 Q 2.4,2.45 2.8,2.5 H 2.85 L 2.9,2.15 M 3.75,1.3 4.4,5.05 4.45,35.5 v 1.85 l -0.2,0.85 -0.2,0.45 Q 3.6,39 2.2,39 L 1.3,38.95 1,39.1 0.7,38.85 0.2,38.6 0.1,38.1 0.3,37.55 0,33.5 V 27.8 L 0.05,5.1 0.1,2.55 Q 0.15,1.55 0.5,0.9 V 0.8 Q 0.5,0.35 0.8,0.2 L 2.15,0 Q 4,0 4,0.8 L 3.75,1.3 m -1.8,2.9 v 1 1.05 L 2.45,6.05 2.65,6 V 5.75 5.55 L 2.75,3.6 Q 2.6,3.65 2.45,3.8 L 1.95,4.2 M 2,11.85 V 14.4 Q 2.25,14.25 2.55,14.2 V 11.65 L 2,11.85 M 2,10.65 2.55,10.35 2.6,7.3 1.95,7.8 2,10.65 M 2.15,15.7 2,15.9 v 3.3 l 0.5,-0.15 0.05,-3.7 -0.4,0.35 m 0.35,6.75 v -0.9 -1.3 L 2,20.6 v 2.2 L 2.5,22.45 M 2,24.15 v 3 l 0.5,-0.3 V 23.7 L 2,24.15 M 2.5,27.9 2.05,28.3 2.1,31.75 2.55,31.25 2.5,30.15 V 27.9 M 2,36.4 1.9,36.45 1.85,37.2 H 2.15 2.9 L 2.75,35.8 2,36.4 M 2.55,32.65 2.1,33 2.05,34.7 2.65,34.3 2.55,32.65"
         fill="#6b6b6b"
         fill-rule="evenodd"
         stroke="none"
         id="path35" />
      <path
         d="M 2.9,2.15 2.85,2.5 H 2.8 Q 2.4,2.45 1.95,2.75 V 2.65 L 1.9,2.1 1.85,1.9 1.8,1.6 H 2 2.15 2.3 2.75 2.8 2.95 L 2.9,2.15 M 2.55,32.65 2.65,34.3 2.05,34.7 2.1,33 2.55,32.65 M 2,36.4 2.75,35.8 2.9,37.2 H 2.15 1.85 L 1.9,36.45 2,36.4 m 0.5,-8.5 v 2.25 L 2.55,31.25 2.1,31.75 2.05,28.3 2.5,27.9 M 2,24.15 2.5,23.7 v 3.15 L 2,27.15 v -3 M 2.5,22.45 2,22.8 v -2.2 l 0.5,-0.35 v 1.3 0.9 M 2.15,15.7 2.55,15.35 2.5,19.05 2,19.2 V 15.9 L 2.15,15.7 M 2,10.65 1.95,7.8 2.6,7.3 2.55,10.35 2,10.65 m 0,1.2 0.55,-0.2 V 14.2 Q 2.25,14.25 2,14.4 V 11.85 M 1.95,4.2 2.45,3.8 Q 2.6,3.65 2.75,3.6 L 2.65,5.55 V 5.75 6 l -0.2,0.05 -0.5,0.2 V 5.2 4.2"
         fill="#877f77"
         fill-rule="evenodd"
         stroke="none"
         id="path36" />
    </g>
    <g
       id="sprite6">
      <use
         ffdec:characterId="287"
         height="48.799999"
         width="9.1999998"
         xlink:href="#shape7"
         id="use36" />
    </g>
    <g
       id="shape7">
      <path
         d="M 5.65,0.05 Q 8.4,0.2 8.95,1.1 L 9.2,18.55 v 9.4 2.3 L 8.95,47.6 v 0.1 H 8.9 q -0.6,0.9 -3.25,1.05 l -1,0.05 H 4.55 L 3.45,48.75 Q 0.8,48.6 0.25,47.7 L 0.1,38.2 0.05,31.55 0,27.95 0.05,18.55 0.25,1.1 Q 0.8,0.2 3.45,0.05 L 4.55,0 h 0.1 l 1,0.05 m 0.55,27 V 26.7 18.55 L 6.25,11.8 6.4,7 V 6.55 Q 6.35,5.2 6.55,4.2 L 6.7,2.8 H 6.15 L 5.05,2.85 H 4.6 4.35 4.15 3.4 L 2.5,2.8 2.65,4.2 2.8,6.55 V 7 L 2.95,11.8 3,18.55 v 8.15 1.5 2.05 3.55 1.3 2.45 0.65 H 2.95 L 2.8,41.8 v 0.45 L 2.65,44.6 2.5,46 3.4,45.95 h 0.75 0.45 0.15 0.3 0.3 L 6.15,46 H 6.7 L 6.55,44.6 Q 6.35,43.6 6.4,42.25 V 41.8 L 6.3,38.2 H 6.25 L 6.2,37.55 v -2.45 -3.65 -1.2 -3.2"
         fill="#6b6b6b"
         fill-rule="evenodd"
         stroke="none"
         id="path37" />
      <path
         d="m 6.2,27.05 v 3.2 1.2 l -0.25,1.6 q -0.9,5.8 -0.9,8.5 l 0.3,4.4 H 5.05 4.75 L 4.65,45.4 Q 4.5,44.55 4.5,43.05 4.5,39.1 5.25,34.2 L 6.2,27.05 M 3,33.8 V 30.25 28.2 l 0.2,-1.3 1,-6.35 V 7.65 L 4.35,2.85 H 4.6 L 4.75,7.8 V 20.7 L 4.8,21 3.9,27.8 3,33.8"
         fill="#989898"
         fill-rule="evenodd"
         stroke="none"
         id="path38" />
      <path
         d="M 4.6,2.85 H 5.05 L 6.15,2.8 H 6.7 L 6.55,4.2 Q 6.35,5.2 6.4,6.55 V 7 L 6.25,11.8 6.2,18.55 v 8.15 0.35 L 5.25,34.2 q -0.75,4.9 -0.75,8.85 0,1.5 0.15,2.35 l 0.1,0.55 H 4.6 4.15 3.4 L 2.5,46 2.65,44.6 2.8,42.25 V 41.8 L 2.95,38.2 H 3 V 37.55 35.1 33.8 L 3.9,27.8 4.8,21 4.75,20.7 V 7.8 L 4.6,2.85 m 1.6,28.6 v 3.65 2.45 L 6.25,38.2 H 6.3 l 0.1,3.6 v 0.45 Q 6.35,43.6 6.55,44.6 L 6.7,46 H 6.15 l -0.8,-0.05 -0.3,-4.4 q 0,-2.7 0.9,-8.5 L 6.2,31.45 M 3,28.2 V 26.7 18.55 L 2.95,11.8 2.8,7 V 6.55 L 2.65,4.2 2.5,2.8 3.4,2.85 h 0.75 0.2 L 4.2,7.65 v 12.9 L 3.2,26.9 3,28.2"
         fill="#b2a69a"
         fill-rule="evenodd"
         stroke="none"
         id="path39" />
    </g>
    <g
       id="sprite7">
      <use
         ffdec:characterId="289"
         height="30.799999"
         width="9.1999998"
         xlink:href="#shape8"
         id="use39" />
    </g>
    <g
       id="shape8">
      <path
         d="M 8.6,1.25 8.95,1.1 9.15,11.15 H 9.2 v 1.1 2.35 2.3 1.65 9.4 1.2 H 9 L 8.95,29.7 8.6,29.55 q -0.2,1.05 -2.95,1.2 l -1,0.05 H 4.55 L 3.45,30.75 Q 0.8,30.6 0.6,29.55 L 0.25,29.7 V 29.15 H 0.05 L 0,27.95 0.05,18.55 v -1.05 -1 -2 -0.95 -2.4 H 0.1 q 0,-6 0.15,-10.05 L 0.6,1.25 Q 0.8,0.2 3.45,0.05 L 4.55,0 h 0.1 l 1,0.05 Q 8.4,0.2 8.6,1.25 M 5.65,28 h 0.5 0.05 v -1.3 -7.05 -1.1 -1.45 -4.85 -1.1 H 6.3 L 6.4,7 V 6.55 Q 6.35,5.2 6.55,4.2 L 6.7,2.8 H 6.15 L 5.85,2.85 H 5.05 4.6 4.15 3.4 L 2.5,2.8 2.65,4.2 2.8,6.55 V 7 l 0.15,4.15 H 3 v 1.1 1.25 3.6 1.45 1 0.65 6.5 1.3 L 3.4,27.95 H 4.15 4.6 5.05 5.2 L 5.65,28"
         fill="#6b6b6b"
         fill-rule="evenodd"
         stroke="none"
         id="path40" />
      <path
         d="M 6.15,2.8 V 4.3 Q 6.15,6.5 5.6,9 5.05,11.5 5.05,15.1 5.05,18.15 5.7,27 L 5.65,28 5.2,27.95 4.6,15.05 4.65,11.5 Q 4.8,9.6 5.4,8.15 5.85,7.1 5.8,4.7 L 5.85,2.85 6.15,2.8"
         fill="#989898"
         fill-rule="evenodd"
         stroke="none"
         id="path41" />
      <path
         d="M 5.65,28 5.7,27 Q 5.05,18.15 5.05,15.1 5.05,11.5 5.6,9 6.15,6.5 6.15,4.3 V 2.8 H 6.7 L 6.55,4.2 Q 6.35,5.2 6.4,6.55 V 7 L 6.3,11.15 H 6.2 v 1.1 4.85 1.45 1.1 7.05 1.3 H 6.15 5.65 M 5.85,2.85 5.8,4.7 Q 5.85,7.1 5.4,8.15 4.8,9.6 4.65,11.5 L 4.6,15.05 5.2,27.95 H 5.05 4.6 4.15 3.4 L 3,28 v -1.3 -6.5 -0.65 -1 -1.45 -3.6 -1.25 -1.1 H 2.95 L 2.8,7 V 6.55 L 2.65,4.2 2.5,2.8 3.4,2.85 h 0.75 0.45 0.45 0.8"
         fill="#b2a69a"
         fill-rule="evenodd"
         stroke="none"
         id="path42" />
    </g>
    <g
       id="sprite8"
       transform="translate(-0.05)">
      <use
         ffdec:characterId="317"
         height="19.200001"
         transform="translate(0.05)"
         width="4.5999999"
         xlink:href="#shape9"
         id="use42" />
    </g>
    <g
       id="shape9"
       transform="translate(-0.05)">
      <path
         d="M 4.5,1.9 V 9.25 Q 4.65,14.1 4.45,16.6 v 0.1 l 0.15,1.35 0.05,0.35 q 0,0.4 -0.7,0.6 l -0.35,0.2 -0.15,-0.1 -2,0.1 -0.5,-0.15 H 0.9 q -0.85,0 -0.85,-1.1 L 0.2,16.25 V 11.4 L 0.15,11.05 0.2,11 V 5.85 L 0.05,4.55 V 4.35 4 q 0,-2.05 0.3,-3.85 L 0.3,0.3 V 0.2 0.15 H 0.35 L 1.85,0 3.65,0.4 Q 4.5,0 4.5,1.9 M 2.7,2.35 2.85,1.5 H 2.2 2.05 L 2.2,1.55 H 1.65 l 0.1,1.3 0.95,-0.4 V 2.35 M 1.65,5.7 V 6.35 Q 2.15,6.1 2.7,6 V 3.25 L 1.75,3.95 1.65,5.7 m 0,5.4 v 1.8 L 2.7,12.25 V 10.4 L 2.2,10.75 1.65,11.1 M 2.7,9.45 V 7.1 L 1.65,7.6 V 9.95 Q 2.25,9.55 2.7,9.45 M 1.75,16.2 q 0.65,-0.45 1.1,-0.6 l -0.1,-2.15 -1.1,0.6 v 2.25 l 0.1,-0.1 m 0.1,1.45 1.2,0.05 -0.15,-1.25 -1.1,0.75 0.05,0.45"
         fill="#6b6b6b"
         fill-rule="evenodd"
         stroke="none"
         id="path43" />
      <path
         d="M 1.85,17.65 1.8,17.2 2.9,16.45 3.05,17.7 1.85,17.65 m -0.1,-1.45 -0.1,0.1 v -2.25 l 1.1,-0.6 0.1,2.15 Q 2.4,15.75 1.75,16.2 M 2.7,9.45 Q 2.25,9.55 1.65,9.95 V 7.6 L 2.7,7.1 V 9.45 M 1.65,11.1 2.2,10.75 2.7,10.4 v 1.85 L 1.65,12.9 v -1.8 m 0,-5.4 0.1,-1.75 0.95,-0.7 V 6 Q 2.15,6.1 1.65,6.35 V 5.7 M 2.7,2.35 v 0.1 L 1.75,2.85 1.65,1.55 H 2.2 L 2.05,1.5 H 2.2 2.85 L 2.7,2.35"
         fill="#877f77"
         fill-rule="evenodd"
         stroke="none"
         id="path44" />
    </g>
  </defs>
</svg>
