<?xml version="1.0" encoding="UTF-8" standalone="no"?>
<svg
   ffdec:objectType="frame"
   height="55.700001"
   width="55"
   version="1.1"
   id="svg7"
   sodipodi:docname="1.svg"
   xmlns:inkscape="http://www.inkscape.org/namespaces/inkscape"
   xmlns:sodipodi="http://sodipodi.sourceforge.net/DTD/sodipodi-0.dtd"
   xmlns:xlink="http://www.w3.org/1999/xlink"
   xmlns="http://www.w3.org/2000/svg"
   xmlns:svg="http://www.w3.org/2000/svg"
   xmlns:ffdec="https://www.free-decompiler.com/flash">
  <sodipodi:namedview
     id="namedview7"
     pagecolor="#ffffff"
     bordercolor="#000000"
     borderopacity="0.25"
     inkscape:showpageshadow="2"
     inkscape:pageopacity="0.0"
     inkscape:pagecheckerboard="0"
     inkscape:deskcolor="#d1d1d1"
     fit-margin-top="5"
     fit-margin-left="5"
     fit-margin-right="5"
     fit-margin-bottom="5" />
  <g
     transform="translate(27.5,27.85)"
     id="g1">
    <use
       ffdec:characterId="1715"
       height="55.700001"
       transform="translate(-27.5,-27.85)"
       width="55"
       xlink:href="#shape0"
       id="use1" />
  </g>
  <defs
     id="defs7">
    <g
       id="shape0"
       transform="translate(27.5,27.85)">
      <path
         d="m 11.65,-25.5 0.15,-0.15 h -0.05 q -0.8,0 -3.45,1.4 l -1.4,0.7 2.1,0.5 q 1.25,-0.65 1.65,-1 l 1,-1.45 m -15.8,1.45 4.05,-0.1 h 0.2 l 4.2,0.1 q 5.85,-3.8 7.8,-3.8 3.4,0 4.5,3.45 0.55,1.75 0.45,3.75 l -0.65,1.75 q -0.5,1 -1.2,1.45 2,3.4 2,6.5 0,2.9 -2.7,5.9 l -1.1,1.05 0.1,0.05 q 1.8,0.85 3.85,2.8 Q 23,4.15 23,9.4 l -0.3,2.05 q 0.75,0.15 1.6,0.75 1.55,1.1 2.35,2.85 0.85,1.8 0.85,4.35 0,1.2 -0.85,2.4 -0.85,1.15 -2.5,2.3 l -0.95,0.6 0.15,1.35 v 0.4 0.2 0.2 H 23.3 q -0.2,0.75 -0.8,0.75 l -0.35,-0.05 -2.6,0.3 h -39.1 l -2.6,-0.3 -0.35,0.05 q -0.6,0 -0.8,-0.75 h -0.05 v -0.2 -0.2 -0.4 l 0.1,-0.9 0.05,-0.45 -0.95,-0.6 q -1.5,-1.05 -2.35,-2.1 -1,-1.3 -1,-2.6 0,-2.75 1,-4.7 l 1.1,-1.55 1.1,-0.95 q 0.85,-0.6 1.6,-0.75 L -23,9.4 q 0,-5.25 5.65,-10.55 2.05,-1.95 3.85,-2.8 l 0.1,-0.05 -1.1,-1.05 q -2.7,-3 -2.7,-5.9 0,-3.1 2,-6.5 -0.7,-0.45 -1.2,-1.45 l -0.65,-1.75 q -0.1,-2 0.45,-3.75 1.1,-3.45 4.5,-3.45 1.8,0 6.8,3.2 l 1,0.6 h 0.15 m 15.5,1.25 -0.7,0.5 q 1.65,0.95 3,2.6 l 0.1,-0.1 q 0.9,-0.9 0.9,-2.05 l -0.35,-1.9 -0.35,-0.75 -0.8,-0.8 -1.2,1.8 -0.6,0.7 m 1.45,5.6 -1.55,-1.9 L 11,-19.35 9.35,-20.6 9.1,-20.7 q -2,-1.1 -4.6,-1.35 L 4.3,-22.1 2.9,-22.15 H 2.8 2.7 l -4.4,0.05 -1.2,-0.05 q -3.65,0 -6.25,1.5 -0.9,0.45 -1.65,1.1 l -0.25,0.25 -1.9,2.35 -1.4,3 -0.45,2.65 q 0,4.2 6.05,6.7 l 2.55,0.95 -0.3,-0.65 q 0,-1.3 0.75,-1 0.6,0.3 1.5,1.55 1.75,1.75 4.05,2.1 L 0,-1.6 0.2,-1.65 Q 2.5,-2 4.25,-3.75 5.15,-5 5.75,-5.3 6.5,-5.6 6.5,-4.3 L 6.2,-3.65 8.75,-4.6 q 6.05,-2.5 6.05,-6.7 0,-2.6 -1.85,-5.65 L 12.8,-17.2 M 7,-12.35 6.7,-12.45 Q 6.45,-12.6 6.45,-13 q 0,-0.85 2.35,-0.95 2.3,-0.1 2.3,0.95 l -0.2,0.65 -0.9,0.25 -3,-0.25 M 4.55,-9.6 v -0.05 l 0.05,-0.2 0.75,0.1 1.15,0.35 0.05,0.15 0.15,0.15 q 0.35,0.4 0.35,1.45 L 6.5,-6.9 Q 5.8,-6.2 4.9,-6.2 L 2.45,-6.45 1.15,-6.85 0.5,-7.1 H 0.3 0.05 -0.2 -0.4 l -0.65,0.25 -1.3,0.4 -2.45,0.25 q -0.9,0 -1.6,-0.7 l -0.55,-0.75 q 0,-1.05 0.35,-1.45 l 0.15,-0.15 0.05,-0.15 q 0.3,-0.4 1.15,-0.35 l 0.75,-0.1 0.05,0.15 v 0.1 l 0.05,0.15 q -0.35,0.3 -0.95,0.6 L -5.7,-8.2 -5.65,-8 v 0.1 l 0.25,0.2 q 0.5,0.35 0.95,0.35 l 2.55,-0.3 0.4,-0.25 0.25,-0.15 0.3,-0.15 0.25,-0.15 0.35,-0.2 0.4,0.05 0.4,-0.05 0.15,0.1 h 0.05 l 0.15,0.1 0.55,0.3 0.25,0.15 0.4,0.25 2.55,0.3 Q 5,-7.35 5.5,-7.7 L 5.75,-7.9 5.8,-8.2 5.75,-8.55 5.45,-8.85 4.5,-9.45 4.55,-9.6 m -5.65,-0.55 -0.25,-0.25 -0.7,-0.9 h -0.1 l -0.1,-0.35 -0.1,-0.25 h 0.05 v -0.05 l 0.3,-0.1 1.85,-0.2 h 0.6 v 0.05 l 2,0.2 0.15,0.05 v 0.05 h 0.05 l -0.1,0.25 -0.1,0.35 h -0.1 l -0.7,0.9 -0.4,0.45 -0.6,0.4 -0.2,0.05 v 0.1 H 0.3 0.15 -0.15 V -9.5 L -0.5,-9.65 -0.55,-9.7 -1.1,-10.15 m 20.65,21.7 0.55,-1.05 0.15,-0.35 0.2,-1.75 q 0,-3.25 -4.35,-8 l -3.7,-3.6 v 0.1 l -0.25,1.55 Q 11.6,0.25 9.85,2.85 7.1,6.9 3.25,7.8 L 4.8,8.4 h 0.05 l 0.9,-0.15 2.7,-2.05 3.15,-3.8 0.25,0.05 0.1,0.35 q 0,1.15 -2.15,3.9 L 8.45,8.2 h 0.3 Q 9.4,6.5 14.1,6.9 l 2.75,0.4 1.25,0.4 q 1.35,0.65 1.15,1.75 L 18.9,9.55 18.7,9.5 17,8.7 q -1.95,-0.85 -2.9,-0.85 -1.85,0 -2.85,0.5 2.8,0.25 3.65,1 h 0.05 q 1.4,0.35 2.55,1.3 0.95,0.8 1.3,1.7 l 0.75,-0.8 M 9.45,0.35 10,-0.8 10.75,-2.25 Q 8,-0.9 4.2,-0.85 2.5,0.55 0.1,0.55 h -0.2 q -2.4,0 -4.1,-1.4 -3.75,-0.05 -6.5,-1.35 l 0.7,1.4 0.35,0.7 1.1,2.3 q 1.3,2.2 3.45,3.05 L -0.65,6.2 0.05,6.35 0.65,6.2 5.1,5.25 Q 7.25,4.4 8.55,2.2 l 0.9,-1.85 m 14.05,21 0.55,-0.6 q 0.9,-1.2 0.95,-2.6 v -0.1 L 24.7,16.6 24,15.4 l -0.95,-1.15 -1.2,-1.1 -0.25,0.3 -0.5,0.55 -0.7,0.6 -0.75,0.55 q -2.3,1.45 -5.95,1.95 l -4.5,3.35 h 0.05 q 3.55,1.35 5.3,1.35 l 1.45,-0.1 1.4,0.2 q -2.45,1 -6.2,1 L 8.85,22.4 7.4,21.65 5.6,22.85 q 5.1,1.7 6,1.7 7,0 10.6,-2.25 l 1.3,-0.95 M 15.65,11.25 14.25,9.95 7.8,10.3 5.7,10.35 5.15,10.45 H 5.05 L 4.85,10.5 V 10.4 L 1.9,9.25 q -0.25,0 -0.7,0.25 l 0.05,1 0.05,2.15 q -0.15,0.3 -0.15,1.05 l 0.15,0.85 v 0.5 h 0.4 q 0.75,0.55 2.4,0.55 l 3.55,-0.7 q 6.3,0 9.55,-1.5 l -0.35,-0.55 -1.2,-1.6 m -9.8,7.3 0.2,-0.1 Q 6.1,19.1 4,20.75 2.05,22.25 0.1,22.55 H 0 -0.1 q -1.95,-0.3 -3.9,-1.8 l -1.55,-1.4 -0.5,-0.9 6.1,1.85 5.8,-1.75 m -11.1,2.3 2.35,1.85 q 1.15,0.6 2.9,0.9 1.75,-0.3 2.9,-0.9 l 2.25,-1.75 1.4,-1 Q 8.7,18.6 10.6,17.55 L 11,17.35 7.4,17.3 H 4.7 L 0.75,17.55 -0.5,17.3 -3.05,17.65 -5.8,17.3 h -1.6 l -3.6,0.05 0.4,0.2 q 1.9,1.05 4.05,2.4 l 1.3,0.9 M 21.6,25.5 20.15,26.05 H 21.6 V 25.5 m -28.9,-0.05 -2.1,0.6 H 9.4 L 7.3,25.45 3.25,24.2 q -2,1 -3,1 H 0.1 -0.1 -0.25 q -1,0 -3,-1 l -4.05,1.25 m -4.85,-51.05 0.55,1.05 q 0.45,0.75 2.25,1.4 l 0.3,0.15 2.15,-0.55 -1.4,-0.7 q -2.65,-1.4 -3.45,-1.4 l -0.4,0.05 M -10.8,-12.35 -11,-13 q 0,-1.05 2.3,-0.95 2.35,0.1 2.35,0.95 0,0.4 -0.25,0.55 l -0.3,0.15 -3,0.2 -0.9,-0.25 m -3.85,-9.5 q 0,1.15 0.9,2.05 l 0.1,0.1 q 1.25,-1.55 2.8,-2.45 l -1.6,-1.45 -0.95,-1.5 q -0.6,0.45 -0.9,1.35 l -0.35,1.9 m 2.4,19.95 -0.15,-1.2 v -0.1 l -3.7,3.6 q -4.35,4.75 -4.35,8 0,1.7 0.75,2.9 l 0.9,1.05 q 0.35,-0.9 1.3,-1.7 1.15,-0.95 2.6,-1.3 0.35,-0.3 1.05,-0.5 l 2.6,-0.5 q -1,-0.5 -2.85,-0.5 -0.95,0 -2.9,0.85 l -1.9,0.85 -0.35,-0.1 Q -19.4,8.5 -18.4,7.9 q 0.55,-0.35 1.45,-0.55 l 2.85,-0.45 1.4,-0.05 q 3.4,-0.1 3.95,1.35 h 0.3 L -9.8,6.7 q -2.15,-2.75 -2.15,-3.9 l 0.1,-0.35 0.25,-0.05 3.15,3.8 2.7,2 L -4,7.6 Q -7.35,6.5 -9.85,2.85 -11.75,0 -12.25,-1.9 M -0.4,10.2 -0.5,9.5 -0.75,9.4 -0.55,9.2 -0.6,9.1 -2.75,9.65 -3.95,10 l -2.3,0.2 -0.3,0.1 H -7.8 l -6.45,-0.35 -1.55,1.55 -1.05,1.35 -0.35,0.55 q 3.3,1.5 9.85,1.5 l 3.25,0.35 h 0.15 l 1.75,0.35 q 1.45,0 1.8,-2.5 L -0.35,10.45 -0.4,10.2 m -22.45,11.7 0.65,0.4 q 3.6,2.25 10.6,2.25 0.9,0 6,-1.7 l -1.8,-1.2 -1.45,0.75 -2.35,0.5 q -3.75,0 -6.2,-1 l 1.4,-0.2 1.45,0.1 q 1.75,0 5.3,-1.35 h 0.05 l -4.5,-3.35 q -4.1,-0.55 -6.45,-2.3 l -0.2,-0.2 h -0.05 l -0.6,-0.5 -0.85,-0.95 -1.05,1 -0.15,0.1 q -1.7,1.8 -1.9,3.35 L -25,18.05 q 0,1.25 0.7,2.3 l 1.4,1.5 0.05,0.05 m 1.25,3.6 v 0.55 h 1.5 l -1.5,-0.55"
         fill="#6b6b6b"
         fill-rule="evenodd"
         stroke="none"
         id="path1" />
      <path
         d="m 11.65,-25.5 -1,1.45 q -0.4,0.35 -1.65,1 l -2.1,-0.5 1.4,-0.7 q 2.65,-1.4 3.45,-1.4 h 0.05 l -0.15,0.15 m -15.8,1.45 H -4.3 l -1,-0.6 1.15,0.6 m 18.1,-0.45 -0.85,0.65 q -0.95,0.7 -1.75,1.05 l 0.6,-0.7 1.2,-1.8 0.8,0.8 m -4.6,3.9 1.65,1.25 0.25,0.25 1.55,1.9 q -1,-0.65 -2.5,-0.8 l -1.45,1 q -3.3,2.05 -7.95,2.05 -5,0 -8.7,-1.75 -1.1,-0.5 -1.8,-1.05 l -1,0.6 q -2.25,1.35 -2.7,1.85 l -1.05,1.35 1.4,-3 1.9,-2.35 0.25,-0.25 q 0.75,-0.65 1.65,-1.1 2.6,-1.5 6.25,-1.5 l 1.2,0.05 4.4,-0.05 h 0.1 0.1 l 1.4,0.05 0.05,0.1 0.15,-0.05 q 2.6,0.25 4.6,1.35 l 0.1,0.1 v 0.15 l 0.15,-0.15 m -8.4,3.1 h 0.2 l -0.1,-0.15 -0.25,0.15 h 0.15 m 9.95,5.15 q 1.4,0.3 1.4,1.15 0,0.6 -0.4,0.75 l -1.65,0.15 -3.85,-0.45 q -0.25,-0.15 -0.25,-0.65 0,-0.65 0.85,-0.95 l 3,0.25 0.9,-0.25 m -6.35,2.75 -0.05,0.15 0.95,0.6 0.3,0.3 q -0.25,0.8 -1.7,0.8 L 1.6,-7.9 1.35,-8.05 0.8,-8.35 0.65,-8.45 H 0.6 l -0.15,-0.1 -0.4,0.05 -0.4,-0.05 -0.35,0.2 -0.25,0.15 -0.55,0.05 -2.6,0.3 L -5.65,-8 -5.7,-8.2 -5.35,-8.85 q 0.6,-0.3 0.95,-0.6 L -4.45,-9.6 v -0.1 l 3.35,-0.45 0.55,0.45 0.05,0.05 0.35,0.15 v 0.1 h 0.3 0.15 0.15 v -0.1 l 0.2,-0.05 0.6,-0.4 3.3,0.35 m -6.55,-2.45 -0.15,-0.2 -0.1,-0.2 q 0,-0.95 2.4,-0.75 2.35,0.2 2.35,0.95 l -0.05,0.25 -2,-0.2 v -0.05 h -0.6 l -1.85,0.2 m 3.8,8.5 q -0.95,0.7 -2.2,0.7 -1.95,0 -2.6,-0.7 L -3.3,-4.3 q 0,-0.5 1.4,-1.05 l 1.45,-0.45 q 3,0 3,1.25 0,0.45 -0.75,1 M 1.25,10.5 1.2,9.5 Q 1.65,9.25 1.9,9.25 l 2.95,1.15 v 0.1 l 0.2,-0.05 h 0.1 l 0.55,-0.1 2.1,-0.05 6.45,-0.35 1.4,1.3 q -0.6,0.55 -2.1,0.9 H 6.6 L 2.9,11.1 1.25,10.5 m -13.4,-36.1 0.4,-0.05 q 0.8,0 3.45,1.4 l 1.4,0.7 -2.15,0.55 -0.3,-0.15 q -1.8,-0.65 -2.25,-1.4 l -0.55,-1.05 m 5.35,6.65 V -19 l -0.05,0.05 h 0.05 m -4,6.6 0.9,0.25 3,-0.2 q 0.8,0.3 0.8,1.1 0,1.15 -2.25,1.15 -2.45,0 -3.2,-0.5 -0.35,-0.2 -0.35,-0.75 0,-0.75 1.1,-1.05 M -0.4,10.2 q -2.5,0.9 -9.5,1.9 l 0.2,0.05 h -0.5 l -5.1,-0.45 -0.5,-0.2 1.55,-1.55 6.45,0.35 h 1.25 l 0.3,-0.1 2.3,-0.2 1.2,-0.35 2.15,-0.55 0.05,0.1 -0.2,0.2 0.25,0.1 0.1,0.7"
         fill="#e0e0e0"
         fill-rule="evenodd"
         stroke="none"
         id="path2" />
      <path
         d="m 13.95,-24.5 0.35,0.75 0.35,1.9 q 0,1.15 -0.9,2.05 l -0.1,0.1 q -1.35,-1.65 -3,-2.6 l 0.7,-0.5 q 0.8,-0.35 1.75,-1.05 l 0.85,-0.65 M -9.65,-0.1 -10,-0.8 -10.7,-2.2 q 2.75,1.3 6.5,1.35 1.7,1.4 4.1,1.4 h 0.2 q 2.4,0 4.1,-1.4 3.8,-0.05 6.55,-1.4 L 10,-0.8 9.45,0.35 7.5,1.9 q -3.65,2.6 -6.45,2.6 -3.4,0 -7.8,-2.6 l -2.9,-2 m -5,-21.75 0.35,-1.9 q 0.3,-0.9 0.9,-1.35 l 0.95,1.5 1.6,1.45 q -1.55,0.9 -2.8,2.45 l -0.1,-0.1 q -0.9,-0.9 -0.9,-2.05"
         fill="#b8b8b8"
         fill-rule="evenodd"
         stroke="none"
         id="path3" />
      <path
         d="m 12.8,-17.2 0.15,0.25 q 1.85,3.05 1.85,5.65 0,4.2 -6.05,6.7 L 6.2,-3.65 6.5,-4.3 q 0,-1.3 -0.75,-1 Q 5.15,-5 4.25,-3.75 2.5,-2 0.2,-1.65 L 0,-1.6 -0.2,-1.65 Q -2.5,-2 -4.25,-3.75 -5.15,-5 -5.75,-5.3 -6.5,-5.6 -6.5,-4.3 l 0.3,0.65 -2.55,-0.95 q -6.05,-2.5 -6.05,-6.7 l 0.45,-2.65 1.05,-1.35 q 0.45,-0.5 2.7,-1.85 l 1,-0.6 q 0.7,0.55 1.8,1.05 3.7,1.75 8.7,1.75 4.65,0 7.95,-2.05 l 1.45,-1 q 1.5,0.15 2.5,0.8 m -1.9,4.85 0.2,-0.65 q 0,-1.05 -2.3,-0.95 -2.35,0.1 -2.35,0.95 0,0.4 0.25,0.55 l 0.3,0.1 q -0.85,0.3 -0.85,0.95 0,0.5 0.25,0.65 l 3.85,0.45 1.65,-0.15 q 0.4,-0.15 0.4,-0.75 0,-0.85 -1.4,-1.15 M -4.45,-9.7 -4.5,-9.85 -5.25,-9.75 Q -6.1,-9.8 -6.4,-9.4 l -0.05,0.15 -0.15,0.15 q -0.35,0.4 -0.35,1.45 l 0.55,0.75 q 0.7,0.7 1.6,0.7 l 2.45,-0.25 1.3,-0.4 0.65,-0.25 h 0.2 0.25 0.25 0.2 l 0.65,0.25 1.3,0.4 2.45,0.25 q 0.9,0 1.6,-0.7 L 7.05,-7.65 Q 7.05,-8.7 6.7,-9.1 L 6.55,-9.25 6.5,-9.4 5.35,-9.75 4.6,-9.85 4.55,-9.65 v 0.05 l -3.3,-0.35 0.4,-0.45 0.7,-0.9 h 0.1 l 0.1,-0.35 0.1,-0.25 H 2.6 v -0.05 L 2.45,-12 2.5,-12.25 q 0,-0.75 -2.35,-0.95 -2.4,-0.2 -2.4,0.75 l 0.1,0.2 0.15,0.2 -0.3,0.1 v 0.05 h -0.05 l 0.1,0.25 0.1,0.35 h 0.1 l 0.7,0.9 0.25,0.25 -3.35,0.45 M 5.75,-8.55 5.8,-8.2 5.75,-7.9 5.5,-7.7 Q 5,-7.35 4.55,-7.35 L 2,-7.65 1.6,-7.9 4.05,-7.75 q 1.45,0 1.7,-0.8 m -6.7,0.35 -0.3,0.15 -0.25,0.15 -0.4,0.25 -2.55,0.3 q -0.45,0 -0.95,-0.35 L -5.65,-7.9 V -8 l 1.55,0.15 2.6,-0.3 0.55,-0.05 m 2.75,4.65 q 0.75,-0.55 0.75,-1 0,-1.25 -3,-1.25 l -1.45,0.45 q -1.4,0.55 -1.4,1.05 l 0.3,0.75 q 0.65,0.7 2.6,0.7 1.25,0 2.2,-0.7 M 9.45,0.35 8.55,2.2 Q 7.25,4.4 5.1,5.25 L 0.65,6.2 0.05,6.35 -0.65,6.2 -5.1,5.25 Q -7.25,4.4 -8.55,2.2 l -1.1,-2.3 2.9,2 q 4.4,2.6 7.8,2.6 2.8,0 6.45,-2.6 L 9.45,0.35 m -8.2,10.15 1.65,0.6 3.7,1.05 h 6.95 q 1.5,-0.35 2.1,-0.9 l 1.2,1.6 0.35,0.55 q -3.25,1.5 -9.55,1.5 L 4.1,15.6 q -1.65,0 -2.4,-0.55 H 1.3 v -0.5 L 1.15,13.7 q 0,-0.75 0.15,-1.05 L 1.25,10.5 m -8.15,-22.8 0.3,-0.15 q 0.25,-0.15 0.25,-0.55 0,-0.85 -2.35,-0.95 -2.3,-0.1 -2.3,0.95 l 0.2,0.65 q -1.1,0.3 -1.1,1.05 0,0.55 0.35,0.75 0.75,0.5 3.2,0.5 2.25,0 2.25,-1.15 0,-0.8 -0.8,-1.1 m -8.9,23.8 0.5,0.2 5.1,0.45 h 0.5 L -9.9,12.1 q 7,-1 9.5,-1.9 l 0.05,0.25 -0.05,2.65 q -0.35,2.5 -1.8,2.5 L -3.95,15.25 H -4.1 L -7.35,14.9 q -6.55,0 -9.85,-1.5 l 0.35,-0.55 1.05,-1.35"
         fill="#cccccc"
         fill-rule="evenodd"
         stroke="none"
         id="path4" />
      <path
         d="M 12.15,-1.55 12.4,-3.1 v -0.1 l 3.7,3.6 q 4.35,4.75 4.35,8 l -0.2,1.75 -0.15,0.35 -0.55,1.05 -0.4,-0.9 q -0.6,-0.05 -1.5,-0.6 L 16.3,9.45 14.95,9.35 H 14.9 q -0.85,-0.75 -3.65,-1 1,-0.5 2.85,-0.5 0.95,0 2.9,0.85 l 1.7,0.8 0.2,0.05 0.35,-0.1 Q 19.45,8.35 18.1,7.7 L 16.85,7.3 q 0.7,0.1 1.2,0.35 L 17.1,5 Q 16.2,3.3 13.65,0.25 l -1.5,-1.8 m 7.5,16.7 0.75,-0.55 0.7,-0.6 0.5,-0.55 0.25,-0.3 1.2,1.1 0.95,1.15 0.7,1.2 0.3,1.45 v 0.1 q -0.05,1.4 -0.95,2.6 l -0.55,0.6 0.05,-0.2 0.15,-0.8 -0.35,-0.9 -0.5,-1.95 q -0.4,-0.75 -2.1,-1.6 l -1.1,-0.75 M 5.85,18.55 6.25,18.2 6.4,18.75 5.15,20.95 2.9,22.7 Q 1.75,23.3 0,23.6 -1.75,23.3 -2.9,22.7 l -2.35,-1.85 -0.45,-1.1 0.05,-0.35 0.1,-0.05 1.55,1.4 q 1.95,1.5 3.9,1.8 H 0 0.1 q 1.95,-0.3 3.9,-1.8 2.1,-1.65 2.05,-2.3 l -0.2,0.1 M -19.7,11.3 q -0.75,-1.2 -0.75,-2.9 0,-3.25 4.35,-8 l 3.7,-3.6 v 0.1 l 0.15,1.2 -3.25,3.55 Q -18.65,5 -19.35,8.45 L -18.4,7.9 q -1,0.6 -0.85,1.55 l 0.35,0.1 1.9,-0.85 q 1.95,-0.85 2.9,-0.85 1.85,0 2.85,0.5 l -2.6,0.5 -1.55,0.15 -2.05,0.75 -2.05,0.7 h -0.1 v 0.05 l -0.1,0.8 m 7,-4.45 -1.4,0.05 -2.85,0.45 0.2,-0.1 q 2.2,-0.75 4.05,-0.4 m -7.45,7.95 q -1.85,1.45 -2.55,2.65 l -0.2,0.45 q -0.45,1.05 -0.45,2.5 l 0.35,1.05 0.1,0.3 0.05,0.15 -0.05,-0.05 -1.4,-1.5 Q -25,19.3 -25,18.05 l 0.05,-0.45 q 0.2,-1.55 1.9,-3.35 l 0.15,-0.1 1.05,-1 0.85,0.95 0.6,0.5 h 0.05 l 0.2,0.2"
         fill="#afafaf"
         fill-rule="evenodd"
         stroke="none"
         id="path5" />
      <path
         d="m 19.55,11.55 -0.75,0.8 q -0.35,-0.9 -1.3,-1.7 -1.15,-0.95 -2.55,-1.3 l 1.35,0.1 1.35,0.6 q 0.9,0.55 1.5,0.6 l 0.4,0.9 M 16.85,7.3 14.1,6.9 Q 9.4,6.5 8.75,8.2 H 8.45 L 9.8,6.7 Q 11.95,3.95 11.95,2.8 L 11.85,2.45 11.6,2.4 8.45,6.2 5.75,8.25 4.85,8.4 H 4.8 L 3.25,7.8 q 3.85,-0.9 6.6,-4.95 1.75,-2.6 2.3,-4.4 l 1.5,1.8 Q 16.2,3.3 17.1,5 l 0.95,2.65 Q 17.55,7.4 16.85,7.3 m 6.65,14.05 -1.3,0.95 q -3.6,2.25 -10.6,2.25 -0.9,0 -6,-1.7 l 1.8,-1.2 1.45,0.75 2.35,0.5 q 3.75,0 6.2,-1 L 16,21.7 14.55,21.8 q -1.75,0 -5.3,-1.35 H 9.2 l 4.5,-3.35 q 3.65,-0.5 5.95,-1.95 l 1.1,0.75 q 1.7,0.85 2.1,1.6 l 0.5,1.95 0.35,0.9 -0.15,0.8 -0.05,0.2 M 5.15,20.95 6.4,18.75 6.25,18.2 l -0.4,0.35 -5.8,1.75 -6.1,-1.85 0.5,0.9 -0.1,0.05 -0.05,0.35 0.45,1.1 -1.3,-0.9 Q -8.7,18.6 -10.6,17.55 l -0.4,-0.2 3.6,-0.05 h 1.6 l 2.75,0.35 2.55,-0.35 1.25,0.25 3.95,-0.25 h 2.7 l 3.6,0.05 -0.4,0.2 q -1.9,1.05 -4.05,2.4 l -1.4,1 m -24.85,-9.65 0.1,-0.8 v -0.05 h 0.1 l 2.05,-0.7 2.05,-0.75 1.55,-0.15 q -0.7,0.2 -1.05,0.5 -1.45,0.35 -2.6,1.3 -0.95,0.8 -1.3,1.7 l -0.9,-1.05 m 1.3,-3.4 -0.95,0.55 q 0.7,-3.45 3.85,-6.8 l 3.25,-3.55 q 0.5,1.9 2.4,4.75 2.5,3.65 5.85,4.75 l -1.75,0.6 -2.7,-2 -3.15,-3.8 -0.25,0.05 -0.1,0.35 q 0,1.15 2.15,3.9 l 1.35,1.5 h -0.3 Q -9.3,6.75 -12.7,6.85 -14.55,6.5 -16.75,7.25 l -0.2,0.1 q -0.9,0.2 -1.45,0.55 m -1.75,6.9 q 2.35,1.75 6.45,2.3 l 4.5,3.35 h -0.05 q -3.55,1.35 -5.3,1.35 l -1.45,-0.1 -1.4,0.2 q 2.45,1 6.2,1 l 2.35,-0.5 1.45,-0.75 1.8,1.2 q -5.1,1.7 -6,1.7 -7,0 -10.6,-2.25 l -0.65,-0.4 -0.05,-0.15 -0.1,-0.3 -0.35,-1.05 q 0,-1.45 0.45,-2.5 l 0.2,-0.45 q 0.7,-1.2 2.55,-2.65"
         fill="#999999"
         fill-rule="evenodd"
         stroke="none"
         id="path6" />
      <path
         d="m -7.3,25.45 4.05,-1.25 q 2,1 3,1 h 0.15 0.2 0.15 q 1,0 3,-1 l 4.05,1.25 2.1,0.6 H -9.4 l 2.1,-0.6 m 28.9,0.05 v 0.55 H 20.15 L 21.6,25.5 m -43.2,0 1.5,0.55 h -1.5 V 25.5"
         fill="#7b7b7b"
         fill-rule="evenodd"
         stroke="none"
         id="path7" />
    </g>
  </defs>
</svg>
