<?xml version="1.0" encoding="UTF-8" standalone="no"?>
<svg
   ffdec:objectType="frame"
   height="66.510231"
   width="104.05"
   version="1.1"
   id="svg16"
   sodipodi:docname="2.svg"
   xmlns:inkscape="http://www.inkscape.org/namespaces/inkscape"
   xmlns:sodipodi="http://sodipodi.sourceforge.net/DTD/sodipodi-0.dtd"
   xmlns:xlink="http://www.w3.org/1999/xlink"
   xmlns="http://www.w3.org/2000/svg"
   xmlns:svg="http://www.w3.org/2000/svg"
   xmlns:ffdec="https://www.free-decompiler.com/flash">
  <sodipodi:namedview
     id="namedview16"
     pagecolor="#ffffff"
     bordercolor="#000000"
     borderopacity="0.25"
     inkscape:showpageshadow="2"
     inkscape:pageopacity="0.0"
     inkscape:pagecheckerboard="0"
     inkscape:deskcolor="#d1d1d1"
     fit-margin-top="5"
     fit-margin-left="5"
     fit-margin-right="5"
     fit-margin-bottom="5" />
  <g
     transform="translate(52,32.660227)"
     id="g7">
    <use
       ffdec:characterId="714"
       height="66.5"
       transform="translate(-52,-32.65)"
       width="104.05"
       xlink:href="#shape0"
       id="use1" />
    <use
       ffdec:characterId="697"
       height="2.3"
       transform="matrix(0,1,1,0,28.5,-11.7)"
       width="2.55"
       xlink:href="#sprite0"
       id="use2" />
    <use
       ffdec:characterId="706"
       height="1.25"
       transform="matrix(-1.3564,0,0,1.0728,7.3956,-11.4473)"
       width="12.85"
       xlink:href="#sprite1"
       id="use3" />
    <use
       ffdec:characterId="707"
       height="2.3"
       transform="matrix(0,1,1,0,33.4,-11.7)"
       width="2.55"
       xlink:href="#sprite2"
       id="use4" />
    <use
       ffdec:characterId="708"
       height="2.3"
       transform="matrix(0,1,1,0,38.4,-11.7)"
       width="2.55"
       xlink:href="#sprite3"
       id="use5" />
    <use
       ffdec:characterId="44"
       height="8"
       transform="matrix(-0.9659,0.274,0.2588,1.0228,34.5809,20.1289)"
       width="10.8"
       xlink:href="#sprite4"
       id="use6" />
    <use
       ffdec:characterId="706"
       height="1.25"
       transform="matrix(0,2.0614,4.126,0,14.3181,0.8632)"
       width="12.85"
       xlink:href="#sprite1"
       id="use7" />
  </g>
  <defs
     id="defs16">
    <g
       id="shape0"
       transform="translate(52,32.65)">
      <path
         d="m 48.7,-21.6 v -0.05 -0.55 -0.3 -0.25 l 0.05,-0.85 h -0.55 -5.75 -1.2 l -22.55,0.15 h -5.95 l 0.1,0.6 0.05,0.35 v 1.05 1.05 0.1 h 33.45 v 0.1 l 2.25,-0.05 0.1,-0.55 v -0.8 m -37.25,0.15 0.15,-1.4 0.1,-0.6 h -2 v 0.6 l 0.05,0.9 v 0.55 l -0.05,1.1 h 1.75 v -0.05 -1.1 m -59.95,0.2 v 0.45 l 0.1,0.55 2.25,0.05 v -0.1 H 8.3 v -1.1 -0.55 l 0.05,-0.9 0.05,-0.6 h -26.9 l -22.55,-0.15 h -1.2 -5.75 -0.55 l 0.05,0.85 v 0.25 0.4 0.45 0.4 m 68.15,9 -0.85,-0.8 0.85,-0.75 q 0.8,-0.2 0.8,0.75 l -0.8,0.8 m -27.85,0.85 -1.75,-0.3 0.05,0.7 0.05,0.5 0.3,0.3 H 7.55 L 7.6,-11.05 7.65,-11.4 H -8.2 m -3.35,-0.9 q 0.35,-1.25 1.5,-0.45 L -8.2,-12.9 H 8.4 8.6 l 0.3,0.05 0.25,0.6 q 0,0.5 -0.2,0.65 l -0.25,0.1 0.05,0.45 0.1,1.1 -0.05,0.2 H 9.15 L 9.2,-8.85 9.05,-8.45 8.4,-7.9 7.55,-8.25 V -8.4 H -10.5 l -0.3,-0.15 -0.7,-0.6 -0.05,-0.1 -0.1,-0.6 V -9.9 l -0.05,-0.3 V -11 l 0.15,-1.3 M 7.55,14.6 V 4.8 l -0.1,-5 q 0,-1.5 0.25,-2.55 V -2.8 H 5.15 4.8 3.4 l -3.75,0.05 h -1.2 -9.4 l -3.3,0.05 -21.95,0.05 v 0.6 l -0.05,1.5 0.25,1.7 0.05,1.35 -0.05,1.8 -0.1,5.3 v 10 q 2.75,-0.35 8.4,-0.05 L 2.95,19.4 H 4.1 l 0.7,-0.05 2.7,0.15 v -2 L 7.55,14.75 V 14.6 M 20.4,-0.2 20.9,-0.3 21,14.4 20.95,22.3 q -0.15,5.5 -0.8,6.95 l -0.3,-0.5 -0.1,0.05 L 17,29.15 H 15.8 L 12.3,28.8 Q 12,28.65 12,28.15 v -0.3 l 0.3,-0.45 0.05,-0.35 0.4,-0.05 -0.1,-1.25 V 12.3 q 0,-7.5 0.65,-11.4 L 13,0.8 12.8,0.15 q 0,-0.5 0.2,-0.6 l 0.55,-0.15 6.35,0.15 0.5,0.25 m -2.05,-8.65 q 1.5,-0.45 1.5,0.75 l -0.9,0.8 -0.65,-0.3 q -0.15,0.2 -0.15,-0.55 l 0.1,-0.55 0.1,-0.15 M 36.5,31 l 0.05,-0.4 -0.15,-0.05 -0.2,-1.2 0.1,-0.5 V 9.6 L 36.15,2.5 q 0,-1.7 0.3,-3.05 l -0.05,-1.5 v -0.6 L 11,-2.8 10.85,-2.55 10.7,-2.3 11.05,3.25 11.1,4.2 11.05,9.6 11.15,27 v 3.55 l -0.05,0.35 17.3,0.1 7.35,0.3 0.75,0.05 V 31 M 39.15,-1.9 39.1,-0.35 39.35,2.5 39.3,6.25 V 9.3 28.45 l 1.95,-0.15 h 0.35 0.25 0.6 v 0.1 l 1,0.1 -0.2,-1.55 -0.1,-1.7 V 24.9 l -0.1,-6.05 V 8.45 8 3.25 l 0.05,-5.9 h -4 l 0.05,0.75 m 2.85,-8.5 -0.4,1.15 q -0.65,1.15 -1.95,1.15 -1.3,0 -2,-0.9 -0.55,-0.7 -0.55,-1.5 l 0.05,-0.5 q 0.3,-1.65 2.4,-1.7 1.65,0 2.15,1.05 l 0.3,1.25 m -9.55,9.8 2.3,0.3 q 0.35,0.15 0.35,0.65 L 34.65,1 l -0.2,0.2 0.35,4.6 0.05,3.25 v 1.7 l -0.1,0.6 q -0.2,1.1 -0.85,1.1 -0.5,0 -0.75,-0.45 l -7,0.25 -3.05,-0.1 -0.55,-0.5 -0.2,-0.1 q -0.2,-0.15 0,-0.4 0.15,-0.35 -0.1,-0.5 L 22.85,9.9 22.8,5.1 22.9,1.35 22.85,1 22.4,0.45 l 0.25,-0.4 0.65,-0.5 h 0.05 l 0.2,-0.1 0.2,0.1 8.7,-0.15 m -54.9,-12.5 v 0.05 l -0.05,2.1 -0.1,1.9 v 1.85 l -0.15,0.85 H 21.8 l 0.1,-4.7 0.15,-2 -0.1,-1.6 h -44.6 l 0.2,1.55 m 65.6,-1.05 0.05,-0.5 H 23.85 l 0.05,0.7 -0.25,2.9 v 0.1 l 0.1,4.6 H 43.2 l -0.05,-4.15 v -1.9 -0.75 -1 m -0.8,-16.15 1.55,-0.25 h 1 l 0.7,-0.2 h 0.05 q 0.95,0.1 1.2,1.15 v 1.85 h 4.5 l 0.35,0.5 0.35,0.2 v 11.55 l -0.1,0.05 -0.35,0.15 q -0.4,0.35 -1,0.35 h -0.25 l -3.45,0.3 0.05,0.5 0.05,3.65 v 2.95 1 0.2 h -0.05 l -0.45,1 0.05,0.45 -0.05,0.05 0.05,0.1 q 0,0.9 -0.4,1.45 v 6.55 h 0.05 l 0.05,15.65 -0.1,6.2 -0.55,4.45 0.1,0.35 -0.35,0.65 -0.1,0.1 -0.6,0.5 -0.4,0.3 H 43.7 l -0.1,1.6 -0.3,0.8 H 8.8 8.7 q -0.5,0 -0.8,-2.15 L 7.55,27.3 7.5,24.5 v -1.95 l -2.75,0.2 H 4.1 2.9 -27.7 q -5.8,0.15 -8.4,-0.05 v 6.15 l 0.1,0.5 -0.2,1.2 q -0.15,0 -0.7,0.3 l -0.2,0.2 q -0.4,0.35 -1.05,0.4 l 0.05,0.45 -0.15,1.35 -0.15,0.05 -0.1,0.55 h -4.65 l -0.25,-0.8 -0.1,-1.6 h -0.55 l -0.4,-0.3 -0.6,-0.5 -0.1,-0.1 -0.35,-0.65 0.1,-0.35 -0.55,-4.45 -0.1,-6.2 0.1,-22.2 q -0.4,-0.55 -0.4,-1.45 V -4.9 -4.95 l 0.05,-0.4 -0.45,-1 h -0.05 v -0.2 -1 -2.95 -3.65 l 0.1,-0.5 -3.45,-0.3 h -0.25 q -0.6,0 -1,-0.35 l -0.35,-0.15 -0.25,-0.1 V -26.9 l 0.5,-0.35 0.45,-0.65 h 1.55 l 0.1,0.15 1.2,-0.15 h 89.1 v -0.9 l 0.1,-0.3 q 0.05,-0.9 1.35,-1.2 M 25.45,1.4 q 2.95,1.05 4.45,1.85 1.8,0.95 2.75,2 V 5.2 Q 32.6,2.8 33.05,1.45 L 25.4,1.35 25.45,1.4 M 14.55,0.95 Q 15.3,2.5 15.1,5.2 l -0.65,7.1 v 13.65 l 0.05,1.1 1.3,-0.05 3.55,0.2 -0.15,-1.5 0.05,-3.75 q -0.1,-1.6 -0.05,-4.45 l 0.05,-3.2 0.1,-7.75 -0.2,-4.3 0.1,-1.3 h -4.7 m 19.65,16.4 q -0.45,0.6 -1.15,0.6 L 28.75,17.85 24.8,17.7 Q 24.6,17.65 24.45,17 24.4,16.65 25,16.5 l 8.05,-0.3 q 0.6,0 1.15,1.15 m 0.5,-2.95 -0.8,0.85 -9.15,-0.1 -0.65,-0.3 -0.5,-0.55 q 0.5,-0.5 1.15,-0.6 l 9.15,-0.15 q 0,0.6 0.4,0.75 l 0.4,0.1 m -61.8,-25.45 v 0.1 l 0.35,0.6 0.4,0.1 -0.75,0.8 h -11.25 q -0.9,-0.05 -1.7,-0.85 l 0.95,-0.55 0.75,-0.2 h 11.25 m 5.65,-1.85 -0.1,-0.55 0.15,-0.3 1.3,-0.15 -0.1,0.85 -0.1,0.25 -0.5,0.1 q -0.75,0 -0.65,-0.2 m -18.4,0.15 0.3,-0.6 10.8,-0.1 2.25,0.1 0.15,0.2 v 0.4 q 0,0.75 -0.15,0.65 l -0.15,0.1 -0.75,0.05 -11.1,-0.15 -0.9,-0.25 -0.45,-0.35 v -0.05 m 15,-0.25 v -0.05 l 0.2,-1.6 H -43 v 0.5 l 0.05,2.15 v 0.65 0.85 l -0.1,2.95 v 0.85 0.35 h 18.5 L -24.6,-6.7 V -9 l -0.2,-1.95 -0.05,-2.05 m -18.05,21.05 0.05,10.8 -0.1,6.4 -0.05,0.5 -0.25,2.75 1,-0.1 v -0.1 h 0.6 0.6 l 1.25,0.1 0.7,0.05 -0.05,-22.2 V 2.5 l 0.25,-2.85 -0.05,-1.55 0.05,-0.75 h -4 v 9.3 1.4 m 21.3,-16.45 0.8,-0.85 q 0.75,-0.15 0.75,0.8 l -0.75,0.8 -0.8,-0.75"
         fill="#6b6b6b"
         fill-rule="evenodd"
         stroke="none"
         id="path7" />
      <path
         d="m 48.7,-21.6 v 0.8 l -0.1,0.55 -2.25,0.05 v -0.1 H 12.9 v -0.1 -1.05 l 31.55,-0.15 q 2.7,0.25 4.25,0 m -38.95,0.2 1.7,-0.05 v 1.1 0.05 H 9.7 l 0.05,-1.1 m 9.9,9.15 0.8,-0.8 q 0,-0.95 -0.8,-0.75 l -0.85,0.75 0.85,0.8 M 8.3,-21.4 v 1.1 h -54.45 v 0.1 l -2.25,-0.05 -0.1,-0.55 v -0.45 l 2.5,0.1 54.3,-0.25 m -19.85,9.1 -0.15,1.3 v 0.8 l 0.05,0.3 v 0.05 l 0.1,0.6 0.05,0.1 0.7,0.6 0.3,0.15 H 7.55 v 0.15 L 8.4,-7.9 9.05,-8.45 9.2,-8.85 9.15,-9.75 H 8.8 l 0.05,-0.2 -0.1,-1.1 -0.05,-0.45 0.25,-0.1 q 0.2,-0.15 0.2,-0.65 L 8.9,-12.85 8.6,-12.9 H 8.4 -8.2 l -1.85,0.15 q -1.15,-0.8 -1.5,0.45 m 3.35,0.9 H 7.65 l -0.05,0.35 -0.05,0.85 h -17.1 l -0.3,-0.3 -0.05,-0.5 -0.05,-0.7 1.75,0.3 m 26.55,2.55 -0.1,0.15 -0.1,0.55 q 0,0.75 0.15,0.55 l 0.65,0.3 0.9,-0.8 q 0,-1.2 -1.5,-0.75 M 20.4,-0.2 19.9,-0.45 13.55,-0.6 13,-0.45 q -0.2,0.1 -0.2,0.6 L 13,0.8 13.3,0.9 q -0.65,3.9 -0.65,11.4 v 13.45 l 0.1,1.25 -0.4,0.05 -0.05,0.35 -0.3,0.45 v 0.3 q 0,0.5 0.3,0.65 l 3.5,0.35 H 17 l 2.75,-0.35 0.1,-0.05 0.3,0.5 Q 20.8,27.8 20.95,22.3 L 21,14.4 20.9,-0.3 20.4,-0.2 M 35.75,31.3 28.4,31 11.1,30.9 11.15,30.55 V 27 L 11.05,9.6 11.1,4.2 11.05,3.25 10.7,-2.3 10.85,-2.55 11,-2.8 36.4,-2.65 v 0.6 l 0.05,1.5 q -0.3,1.35 -0.3,3.05 l 0.15,7.1 v 19.25 l -0.1,0.5 0.2,1.2 0.15,0.05 -0.05,0.4 -0.75,0.3 m 7.4,-45.45 v 1 0.75 1.9 l 0.05,4.15 H 23.75 l -0.1,-4.6 v -0.1 l 0.25,-2.9 -0.05,-0.7 H 43.2 l -0.05,0.5 m -65.6,1.05 -0.2,-1.55 h 44.6 l 0.1,1.6 -0.15,2 -0.1,4.7 h -44.55 l 0.15,-0.85 v -1.85 l 0.1,-1.9 0.05,-2.1 v -0.05 m 54.9,12.5 -8.7,0.15 -0.2,-0.1 -0.2,0.1 H 23.3 l -0.65,0.5 -0.25,0.4 0.45,0.55 0.05,0.35 -0.1,3.75 0.05,4.8 -0.6,0.75 q 0.25,0.15 0.1,0.5 -0.2,0.25 0,0.4 l 0.2,0.1 0.55,0.5 3.05,0.1 7,-0.25 q 0.25,0.45 0.75,0.45 0.65,0 0.85,-1.1 l 0.1,-0.6 V 9.05 L 34.8,5.8 34.45,1.2 34.65,1 35.1,0.35 q 0,-0.5 -0.35,-0.65 l -2.3,-0.3 m 9.55,-9.8 -0.3,-1.25 q -0.5,-1.05 -2.15,-1.05 -2.1,0.05 -2.4,1.7 l -0.05,0.5 q 0,0.8 0.55,1.5 0.7,0.9 2,0.9 1.3,0 1.95,-1.15 L 42,-10.4 m -2.85,8.5 -0.05,-0.75 h 4 l -0.05,5.9 V 8 8.45 18.85 l 0.1,6.05 v 0.35 l 0.1,1.7 0.2,1.55 -1,-0.1 V 28.3 H 41.85 41.6 41.25 L 39.3,28.45 V 9.3 6.25 L 39.35,2.5 39.1,-0.35 39.15,-1.9 M 34.7,14.4 34.3,14.3 q -0.4,-0.15 -0.4,-0.75 l -9.15,0.15 q -0.65,0.1 -1.15,0.6 l 0.5,0.55 0.65,0.3 9.15,0.1 0.8,-0.85 m -0.5,2.95 Q 33.65,16.2 33.05,16.2 L 25,16.5 q -0.6,0.15 -0.55,0.5 0.15,0.65 0.35,0.7 l 3.95,0.15 4.3,0.1 q 0.7,0 1.15,-0.6 M 14.55,0.95 h 4.7 l -0.1,1.3 0.2,4.3 -0.1,7.75 -0.05,3.2 q -0.05,2.85 0.05,4.45 L 19.2,25.7 19.35,27.2 15.8,27 14.5,27.05 14.45,25.95 V 12.3 L 15.1,5.2 Q 15.3,2.5 14.55,0.95 m -39.4,-13.95 0.05,2.05 0.2,1.95 v 2.3 l 0.05,0.35 h -18.5 V -6.7 -7.55 l 0.1,-2.95 V -11.35 -12 L -43,-14.15 v -0.5 h 18.35 l -0.2,1.6 V -13 m -15,0.25 v 0.05 l 0.45,0.35 0.9,0.25 11.1,0.15 0.75,-0.05 0.15,-0.1 q 0.15,0.1 0.15,-0.65 v -0.4 l -0.15,-0.2 -2.25,-0.1 -10.8,0.1 -0.3,0.6 m 18.4,-0.15 q -0.1,0.2 0.65,0.2 l 0.5,-0.1 0.1,-0.25 0.1,-0.85 -1.3,0.15 -0.15,0.3 0.1,0.55 m -5.65,1.85 h -11.25 l -0.75,0.2 -0.95,0.55 q 0.8,0.8 1.7,0.85 h 11.25 l 0.75,-0.8 -0.4,-0.1 -0.35,-0.6 v -0.1 m -15.8,17.7 v -9.3 h 4 l -0.05,0.75 0.05,1.55 -0.25,2.85 v 3.75 l 0.05,22.2 -0.7,-0.05 -1.25,-0.1 h -0.6 -0.6 v 0.1 l -1,0.1 0.25,-2.75 0.05,-0.5 0.1,-6.4 -0.05,-10.8 0.05,-0.55 -0.05,-0.85 m 21.3,-15.05 0.8,0.75 0.75,-0.8 q 0,-0.95 -0.75,-0.8 l -0.8,0.85"
         fill="#a8a8a8"
         fill-rule="evenodd"
         stroke="none"
         id="path8" />
      <path
         d="m 4.8,-2.8 0.05,1.75 V 12.9 l -0.05,0.55 0.75,0.3 2,0.85 v 0.15 L 7.5,17.5 H 7.1 L 4.8,17.3 v 0.1 1.95 L 4.1,19.4 H 2.95 l 0.1,-2.7 Q 0.6,15.6 -0.85,12.9 -2.35,10.15 -2.35,7.15 -2.35,3.4 -2,0.1 l 0.45,-2.85 h 1.2 l -0.05,8.8 0.45,2.9 Q 0.5,10.4 1.1,11.3 1.5,11.85 3.3,12.75 L 3.35,12.3 V -0.9 L 3.4,-2.8 H 4.8 M 45.65,-30.75 H 45.6 l -0.7,0.2 h -1 l -1.55,0.25 v -0.2 q 0,-1.95 1.65,-2.15 1.6,-0.15 1.65,1.9 M 2.9,22.75 H 4.1 4.75 Q 4.8,24.2 6.6,26.15 L 7.55,27.3 7.9,31.7 Q 5.85,31.5 4.25,28.25 2.9,25.55 2.9,24 V 22.75 M -36,1.15 l 0.75,0.15 12.8,0.15 q 4.1,-0.6 5.9,-1.8 l 2.2,-2.2 0.1,-0.15 3.3,-0.05 Q -11.6,-1.1 -14,1 -17.85,4.4 -22,4.3 H -36 L -35.95,2.5 -36,1.15"
         fill="#999999"
         fill-rule="evenodd"
         stroke="none"
         id="path9" />
      <path
         d="m 12.9,-21.45 v -1.05 l -0.05,-0.35 -0.1,-0.6 h 5.95 l 22.55,-0.15 h 1.2 5.75 0.55 l -0.05,0.85 v 0.25 0.3 0.55 0.05 q -1.55,0.25 -4.25,0 l -31.55,0.15 m -3.15,0.05 v -0.55 l -0.05,-0.9 v -0.6 h 2 l -0.1,0.6 -0.15,1.4 -1.7,0.05 m -58.25,0.15 v -0.4 -0.45 -0.4 -0.25 l -0.05,-0.85 h 0.55 5.75 1.2 l 22.55,0.15 H 8.4 l -0.05,0.6 -0.05,0.9 v 0.55 l -54.3,0.25 -2.5,-0.1 M 25.45,1.4 25.4,1.35 33.05,1.45 Q 32.6,2.8 32.65,5.2 V 5.25 Q 31.7,4.2 29.9,3.25 28.4,2.45 25.45,1.4"
         fill="#b8b8b8"
         fill-rule="evenodd"
         stroke="none"
         id="path10" />
    </g>
    <g
       id="sprite0"
       transform="translate(1.3,1.15)">
      <use
         ffdec:characterId="695"
         height="2.3"
         transform="translate(-1.3,-1.15)"
         width="2.55"
         xlink:href="#shape1"
         id="use10" />
    </g>
    <g
       id="shape1"
       transform="translate(1.3,1.15)">
      <path
         d="m 1.25,-0.3 v 0.25 q 0,1.2 -1.3,1.2 L -0.45,1.1 Q -1,1 -1.2,0.55 l -0.05,-0.5 -0.05,-0.1 0.05,-0.25 0.2,-0.55 q 0.3,-0.4 1.05,-0.3 l 0.95,0.35 0.3,0.5"
         fill="#ffffff"
         fill-rule="evenodd"
         stroke="none"
         id="path11" />
    </g>
    <g
       id="sprite1"
       transform="translate(6.3,0.65)">
      <use
         ffdec:characterId="698"
         height="1.25"
         transform="translate(-6.3,-0.65)"
         width="12.85"
         xlink:href="#shape2"
         id="use11" />
    </g>
    <g
       id="shape2"
       transform="translate(6.3,0.65)">
      <path
         d="M -3.65,-0.65 H 6.3 L 6.55,-0.6 V 0.55 L 6.3,0.6 h -9.95 v -1.25"
         fill="#6b6b6b"
         fill-rule="evenodd"
         stroke="none"
         id="path12" />
      <path
         d="m -3.65,0.6 h -1.6 v -1.25 h 1.6 V 0.6"
         fill="#999999"
         fill-rule="evenodd"
         stroke="none"
         id="path13" />
      <path
         d="m -5.25,0.6 h -1 L -6.3,0.55 v -1.2 h 1.05 V 0.6"
         fill="#cccccc"
         fill-rule="evenodd"
         stroke="none"
         id="path14" />
    </g>
    <g
       id="sprite2"
       transform="translate(1.3,1.15)">
      <use
         ffdec:characterId="696"
         height="2.3"
         transform="translate(-1.3,-1.15)"
         width="2.55"
         xlink:href="#shape3"
         id="use14" />
    </g>
    <g
       id="shape3"
       transform="translate(1.3,1.15)">
      <path
         d="m 1.25,-0.05 q 0,1.2 -1.3,1.2 L -0.45,1.1 Q -1,1 -1.2,0.55 l -0.05,-0.5 -0.05,-0.1 0.05,-0.25 0.2,-0.55 q 0.3,-0.4 1.05,-0.3 l 0.95,0.35 0.3,0.5 v 0.25"
         fill="#6b6b6b"
         fill-rule="evenodd"
         stroke="none"
         id="path15" />
    </g>
    <g
       id="sprite3"
       transform="translate(1.3,1.15)">
      <use
         ffdec:characterId="695"
         height="2.3"
         transform="translate(-1.3,-1.15)"
         width="2.55"
         xlink:href="#shape1"
         id="use15" />
    </g>
    <g
       id="sprite4"
       transform="translate(5.4,4)">
      <use
         ffdec:characterId="43"
         height="8"
         transform="translate(-5.4,-4)"
         width="10.8"
         xlink:href="#shape4"
         id="use16" />
    </g>
    <g
       id="shape4"
       transform="translate(5.4,4)">
      <path
         d="m 2.9,-0.35 q 0,-1.25 1.25,-1.25 1.25,0 1.25,1.2 0,1.3 -1.25,1.3 Q 3.6,0.9 3.25,0.5 2.9,0.15 2.9,-0.35 m 0.35,-2.3 q 0,0.55 -0.35,0.9 -0.4,0.45 -1,0.45 -1.35,0 -1.35,-1.4 0,-1.3 1.35,-1.3 1.35,0 1.35,1.35 m -3.1,1.9 h 0.2 q 2.6,0.1 2.6,2.8 l -0.3,1 Q 2.05,4 0.45,4 H 0.35 0.15 0.1 -0.45 q -1.6,0 -2.2,-0.95 l -0.3,-1 q 0,-2.8 2.8,-2.8 h 0.3 M -1.55,-4 q 1.35,0 1.35,1.35 0,0.55 -0.4,0.9 -0.4,0.45 -0.95,0.45 -1.4,0 -1.4,-1.4 0,-1.3 1.4,-1.3 m -2.6,2.4 q 1.25,0 1.25,1.25 0,0.5 -0.35,0.85 -0.35,0.4 -0.9,0.4 -1.25,0 -1.25,-1.3 0,-1.2 1.25,-1.2"
         fill="#6b6b6b"
         fill-rule="evenodd"
         stroke="none"
         id="path16" />
    </g>
  </defs>
</svg>
