<?xml version="1.0" encoding="UTF-8" standalone="no"?>
<svg
   ffdec:objectType="frame"
   height="133.75"
   width="81.651772"
   version="1.1"
   id="svg33"
   sodipodi:docname="2.svg"
   xmlns:inkscape="http://www.inkscape.org/namespaces/inkscape"
   xmlns:sodipodi="http://sodipodi.sourceforge.net/DTD/sodipodi-0.dtd"
   xmlns:xlink="http://www.w3.org/1999/xlink"
   xmlns="http://www.w3.org/2000/svg"
   xmlns:svg="http://www.w3.org/2000/svg"
   xmlns:ffdec="https://www.free-decompiler.com/flash">
  <sodipodi:namedview
     id="namedview33"
     pagecolor="#ffffff"
     bordercolor="#000000"
     borderopacity="0.25"
     inkscape:showpageshadow="2"
     inkscape:pageopacity="0.0"
     inkscape:pagecheckerboard="0"
     inkscape:deskcolor="#d1d1d1"
     fit-margin-top="5"
     fit-margin-left="5"
     fit-margin-right="5"
     fit-margin-bottom="5" />
  <g
     transform="translate(36.20177,66.8)"
     id="g6">
    <use
       ffdec:characterId="782"
       height="14.95"
       transform="matrix(0.6152,-0.7308,-0.7523,-0.7071,-27.1972,-13.5216)"
       width="45"
       xlink:href="#sprite0"
       id="use1" />
    <use
       ffdec:characterId="754"
       height="52.650002"
       transform="matrix(-0.8341,0.5,-0.5799,-0.8513,4.0605,15.3635)"
       width="18.450001"
       xlink:href="#sprite1"
       id="use2" />
    <use
       ffdec:characterId="788"
       height="29.15"
       transform="matrix(-0.7835,0.2136,0.2645,0.7971,0.55,16)"
       width="41.200001"
       xlink:href="#sprite2"
       id="use3" />
    <use
       ffdec:characterId="561"
       height="68.5"
       transform="translate(-23.05,-64.2)"
       width="68.849998"
       xlink:href="#sprite3"
       id="use4" />
    <use
       ffdec:characterId="806"
       height="133.75"
       transform="translate(-32.5,-66.8)"
       width="55.799999"
       xlink:href="#shape4"
       id="use5" />
    <use
       ffdec:characterId="44"
       height="8"
       transform="matrix(-0.7071,-0.7071,0.7071,-0.7071,10.3399,-50.1533)"
       width="10.8"
       xlink:href="#sprite6"
       id="use6" />
  </g>
  <defs
     id="defs33">
    <g
       id="sprite0"
       transform="translate(0.75,0.75)">
      <use
         ffdec:characterId="781"
         height="14.95"
         transform="translate(-0.75,-0.75)"
         width="45"
         xlink:href="#shape0"
         id="use7" />
    </g>
    <g
       id="shape0"
       transform="translate(0.75,0.75)">
      <path
         d="m 43.35,5.8 0.15,1.7 q 0,0.75 -0.55,1.2 L 42.7,8.85 q -2.05,1.25 -11.85,1.25 -1,0 -1.4,-0.4 H 29 L 28.45,9.65 q -0.65,1.1 -1.95,1.7 h -2.4 v 0.7 l -2.1,0.1 q -3.4,0 -4.5,-0.8 l -0.15,-0.1 Q 16.85,10.85 16,10.6 l -0.65,0.2 -2.25,0.45 -0.1,0.1 q -1.45,1.5 -5.15,2.1 H 5.25 L 4.9,13.2 Q 2.4,13 1.1,11.35 L 0.8,10.95 Q 0,9.6 0,8.35 0,6.05 2.1,3.95 4.5,1.55 7.85,3.6 V 3.55 Q 8.65,2.8 11.5,3.1 L 12.65,4 14.4,3.5 15.15,3.35 18.9,2.85 q 0.7,0.15 1.6,1.4 l 0.05,0.1 0.3,-0.25 Q 21,3.1 21.9,1.9 22.85,0.55 24.1,0.2 l 1.3,-0.1 q 0.75,-0.05 1.5,0.85 L 28.25,0.8 q 0.8,0.1 1.35,0.5 0.85,-0.55 3.65,-1.05 l 1.6,-0.2 h 1.5 q 1.4,0.15 1.8,0.9 l 0.1,0.25 0.7,-0.15 0.2,-0.1 0.2,0.1 h 0.25 q 1.85,0.1 1.85,1.15 l -0.1,2 h 0.25 q 1.05,0 1.5,0.75 l 0.25,0.85 m -2.1,0.8 V 6.4 L 40,6.5 q -3.5,0 -3.55,-2.45 l -0.2,-1.7 Q 35.9,1.6 34.45,1.6 32.8,1.6 31.65,2.1 L 30.6,2.55 30.75,3 q 1,2.65 1,4.25 L 31.6,8.05 40,7.85 q 1.05,0 1.25,-0.4 V 6.6 M 38.35,3 38.1,3.85 40.1,4.2 40,2.75 38.8,2.65 Q 38.6,2.8 38.35,3 M 28.15,2.85 Q 29,4.7 29,6.5 L 28.95,7.95 30.2,7.2 Q 30.15,5.15 29.9,4.15 29.6,3 28.15,2.85 m -5.85,2.2 1.6,0.05 0.2,0.1 0.8,0.65 -0.35,0.5 L 24.1,6.8 23.9,6.85 H 21.25 Q 20.65,6.85 19.5,5.7 18.3,4.5 17.75,4.5 L 15.45,4.85 14.4,5.1 13.6,5.15 13.75,5.5 13.9,7.65 V 8.1 L 14.4,8.05 14.95,8 q 1.5,0 2.6,0.7 l 0.55,0.4 q 1.25,1.1 3.9,1.1 l 2.1,-0.15 Q 25.9,9.7 26.7,8.7 L 26.9,8.4 27.2,6.45 Q 27.2,4.2 26.35,3.35 25.85,2.85 24.1,2.3 24.05,3 22.6,4.25 V 4.3 L 22.45,4.65 22.3,5.05 M 12.2,9.35 12.35,7.8 q 0,-1.55 -0.2,-1.9 -0.55,-1.1 -2.7,-1.15 1.6,3.7 0.8,6.15 1.6,-0.7 1.95,-1.55 m -7.9,1.8 1.35,0.2 0.8,0.2 0.2,-0.2 Q 8.4,9.65 8.8,8.3 L 8.25,6.45 8.15,6.2 5.75,4.5 4.6,4.6 Q 2,7.6 2,8.3 q 0,2.6 2.3,2.85"
         fill="#9a9a9a"
         fill-rule="evenodd"
         stroke="none"
         id="path7" />
      <path
         d="M 34.9,2.6 35,3.1 q 0,0.5 -0.55,0.8 L 33.2,4.25 32.35,4.1 32.25,3.35 q 0.35,-0.5 1,-0.8 L 34.75,2.4 34.9,2.6 M 16.2,5.05 q 0.7,-0.3 2.25,0.3 l 0.2,0.4 Q 17.6,6.6 16.9,6.6 l -1,-0.2 q -0.15,0.05 -0.15,-0.55 0,-0.55 0.45,-0.8 M 5.5,7.4 q -1.1,0 -1.1,-1.1 0,-1.1 1.1,-1.1 1.1,0 1.1,1.1 L 6.4,6.9 Q 6.1,7.4 5.5,7.4"
         fill="#d2d2d2"
         fill-rule="evenodd"
         stroke="none"
         id="path8" />
      <path
         d="M 38.35,3 Q 38.6,2.8 38.8,2.65 L 40,2.75 40.1,4.2 38.1,3.85 38.35,3"
         fill="#c2c2c2"
         fill-rule="evenodd"
         stroke="none"
         id="path9" />
      <path
         d="M 22.3,5.05 22.45,4.65 22.6,4.3 V 4.25 Q 24.05,3 24.1,2.3 25.85,2.85 26.35,3.35 27.2,4.2 27.2,6.45 L 26.9,8.4 26.7,8.7 q -0.8,1 -2.6,1.35 L 22,10.2 q -2.65,0 -3.9,-1.1 L 17.55,8.7 Q 16.45,8 14.95,8 L 14.4,8.05 13.9,8.1 V 7.65 L 13.75,5.5 13.6,5.15 14.4,5.1 15.45,4.85 17.75,4.5 q 0.55,0 1.75,1.2 1.15,1.15 1.75,1.15 H 23.9 L 24.1,6.8 24.55,6.35 24.9,5.85 24.1,5.2 23.9,5.1 22.3,5.05 m 5.85,-2.2 q 1.45,0.15 1.75,1.3 0.25,1 0.3,3.05 L 28.95,7.95 29,6.5 Q 29,4.7 28.15,2.85 M 16.2,5.05 q -0.45,0.25 -0.45,0.8 0,0.6 0.15,0.55 l 1,0.2 q 0.7,0 1.75,-0.85 l -0.2,-0.4 Q 16.9,4.75 16.2,5.05 m -4,4.3 q -0.35,0.85 -1.95,1.55 0.8,-2.45 -0.8,-6.15 2.15,0.05 2.7,1.15 0.2,0.35 0.2,1.9 L 12.2,9.35"
         fill="#b5b0b0"
         fill-rule="evenodd"
         stroke="none"
         id="path10" />
      <path
         d="m 41.25,6.6 v 0.85 q -0.2,0.4 -1.25,0.4 l -8.4,0.2 0.15,-0.8 q 0,-1.6 -1,-4.25 L 30.6,2.55 31.65,2.1 q 1.15,-0.5 2.8,-0.5 1.45,0 1.8,0.75 l 0.2,1.7 Q 36.5,6.5 40,6.5 l 1.25,-0.1 v 0.2 m -6.35,-4 -0.15,-0.2 -1.5,0.15 q -0.65,0.3 -1,0.8 L 32.35,4.1 33.2,4.25 34.45,3.9 Q 35,3.6 35,3.1 L 34.9,2.6 M 4.3,11.15 Q 2,10.9 2,8.3 2,7.6 4.6,4.6 L 5.75,4.5 8.15,6.2 8.25,6.45 8.8,8.3 Q 8.4,9.65 6.65,11.35 l -0.2,0.2 -0.8,-0.2 -1.35,-0.2 M 5.5,7.4 q 0.6,0 0.9,-0.5 L 6.6,6.3 q 0,-1.1 -1.1,-1.1 -1.1,0 -1.1,1.1 0,1.1 1.1,1.1"
         fill="#aba6a6"
         fill-rule="evenodd"
         stroke="none"
         id="path11" />
      <path
         d="m 43.35,5.8 0.15,1.7 q 0,0.75 -0.55,1.2 L 42.7,8.85 q -2.05,1.25 -11.85,1.25 -1,0 -1.4,-0.4 H 29 L 28.45,9.65 q -0.65,1.1 -1.95,1.7 h -2.4 v 0.7 l -2.1,0.1 q -3.4,0 -4.5,-0.8 l -0.15,-0.1 Q 16.85,10.85 16,10.6 l -0.65,0.2 -2.25,0.45 -0.1,0.1 q -1.45,1.5 -5.15,2.1 H 5.25 L 4.9,13.2 Q 2.4,13 1.1,11.35 L 0.8,10.95 Q 0,9.6 0,8.35 0,6.05 2.1,3.95 4.5,1.55 7.85,3.6 V 3.55 Q 8.65,2.8 11.5,3.1 L 12.65,4 14.4,3.5 15.15,3.35 18.9,2.85 q 0.7,0.15 1.6,1.4 l 0.05,0.1 0.3,-0.25 Q 21,3.1 21.9,1.9 22.85,0.55 24.1,0.2 l 1.3,-0.1 q 0.75,-0.05 1.5,0.85 L 28.25,0.8 q 0.8,0.1 1.35,0.5 0.85,-0.55 3.65,-1.05 l 1.6,-0.2 h 1.5 q 1.4,0.15 1.8,0.9 l 0.1,0.25 0.7,-0.15 0.2,-0.1 0.2,0.1 h 0.25 q 1.85,0.1 1.85,1.15 l -0.1,2 h 0.25 q 1.05,0 1.5,0.75 z"
         fill="none"
         stroke="#9a9a9a"
         stroke-linecap="round"
         stroke-linejoin="round"
         stroke-width="1.5"
         id="path12" />
    </g>
    <g
       id="sprite1"
       transform="translate(0.75,0.75)">
      <use
         ffdec:characterId="753"
         height="52.650002"
         transform="translate(-0.75,-0.75)"
         width="18.450001"
         xlink:href="#shape1"
         id="use12" />
    </g>
    <g
       id="shape1"
       transform="translate(0.75,0.75)">
      <path
         d="m 14.25,2.75 1.85,3.9 q 0.3,0.7 0.6,4.15 l 0.25,3.95 q 0,3.7 -4.1,7.15 -4.15,3.4 -4.15,6.25 l 3.05,4.45 q 3.05,4.4 3.05,6.4 0,3.4 -0.6,5.7 -0.8,3 -2.4,4.2 l -0.45,0.6 Q 10.1,51.15 7.6,51.15 4.35,51.15 3.1,49.25 2.45,48.3 2.45,47.15 2.45,45.3 3.35,44.3 4.8,42.75 5.6,40.6 L 5.85,39.6 5.7,39.45 4.65,38.6 2.55,36.45 2.05,35.55 0.35,32.15 Q 0,31.2 0,28.85 0,25.45 2.05,21.55 3,19.7 4.4,17.75 L 6.35,15 8.75,11.35 Q 8.75,9.15 7.45,7.6 6.1,6.1 6.1,4.7 q 0,-3.25 3.85,-4.35 3.8,-1.1 3.8,1.15 v 0.05 l 0.5,1.2 m -1.8,1.5 q 0,0.35 -0.6,0.95 -0.65,0.65 -1.25,0.65 -1.5,0 -1.25,-1.2 0,-1.25 1.55,-1.3 1.55,-0.05 1.55,0.9 m -1.5,-1.7 Q 8.1,2.45 8.1,4.7 l 1.3,2.4 q 1.3,2.15 1.3,4.1 0,1.2 -2.85,5.55 L 6.4,18.9 q -4.3,6.15 -4.3,9.95 0,4.2 2.95,7 l 1.6,1.7 0.15,0.15 0.05,0.15 0.95,1.6 0.2,0.95 q 0,2.1 -0.55,3.7 -0.6,-0.3 -0.6,-1.6 V 42.2 L 5.8,44.45 q -1.25,1.95 -1.25,2.4 0,0.45 0.8,1.3 L 6.3,49 8.15,48.95 Q 9.8,47.2 10.9,45.1 q 1.2,-2.35 1.2,-4.35 0,-2.05 -3,-6.4 L 7.85,32.5 Q 6.05,29.55 6.05,28.15 L 6.1,27.35 5.75,26.1 q 0,-2.7 0.3,-3.65 0.35,-1.1 1.8,-2.9 l 0.5,-0.6 0.75,0.25 q -0.35,0.25 -0.8,1.05 l -0.45,0.85 -0.5,1.7 -0.3,1.15 0.35,-0.6 0.45,-0.5 2.6,-2.3 Q 14.8,16.85 14.8,9.1 14.8,7.2 13.4,5.05 12.3,3.45 12.05,2.55 h -1.1"
         fill="#9a9a9a"
         fill-rule="evenodd"
         stroke="none"
         id="path13" />
      <path
         d="m 11.25,10.45 q 0,-1.55 0.7,-1.5 l 0.65,1.45 0.35,1.1 -0.45,1.1 -1.15,1.1 H 11.2 l 0.45,-1.4 0.1,-0.7 -0.25,-0.55 -0.25,-0.6 m -6.3,19.1 0.4,0.9 -0.25,0.8 -0.6,0.5 q -1.55,0 -2.15,-1.8 0,-1.7 0.35,-2.8 L 3.95,24.2 q 1.3,1.3 1.1,2.05 L 4.5,28 q 0,0.8 0.45,1.55 m 0,3.6 1.25,-0.05 0.1,0.2 0.05,0.45 -0.1,0.7 -0.7,0.2 -0.95,-0.9 q 0,-0.3 0.35,-0.6"
         fill="#d2d2d2"
         fill-rule="evenodd"
         stroke="none"
         id="path14" />
      <path
         d="m 10.95,2.55 h 1.1 q 0.25,0.9 1.35,2.5 1.4,2.15 1.4,4.05 0,7.75 -4.35,11.45 l -2.6,2.3 -0.45,0.5 -0.35,0.6 0.3,-1.15 0.5,-1.7 0.45,-0.85 q 0.45,-0.8 0.8,-1.05 l -0.75,-0.25 -0.5,0.6 q -1.45,1.8 -1.8,2.9 -0.3,0.95 -0.3,3.65 l 0.35,1.25 -0.05,0.8 q 0,1.4 1.8,4.35 l 1.25,1.85 q 3,4.35 3,6.4 0,2 -1.2,4.35 -1.1,2.1 -2.75,3.85 L 6.3,49 5.35,48.15 q -0.8,-0.85 -0.8,-1.3 0,-0.45 1.25,-2.4 L 6.85,42.2 v 0.3 q 0,1.3 0.6,1.6 Q 8,42.5 8,40.4 L 7.8,39.45 6.85,37.85 6.8,37.7 6.65,37.55 5.05,35.85 q -2.95,-2.8 -2.95,-7 0,-3.8 4.3,-9.95 L 7.85,16.75 Q 10.7,12.4 10.7,11.2 10.7,9.25 9.4,7.1 L 8.1,4.7 q 0,-2.25 2.85,-2.15 m 1.5,1.7 q 0,-0.95 -1.55,-0.9 -1.55,0.05 -1.55,1.3 -0.25,1.2 1.25,1.2 0.6,0 1.25,-0.65 0.6,-0.6 0.6,-0.95 m -7.5,28.9 q -0.35,0.3 -0.35,0.6 l 0.95,0.9 0.7,-0.2 0.1,-0.7 L 6.3,33.3 6.2,33.1 4.95,33.15 m 0,-3.6 Q 4.5,28.8 4.5,28 L 5.05,26.25 Q 5.25,25.5 3.95,24.2 L 2.7,27.15 q -0.35,1.1 -0.35,2.8 0.6,1.8 2.15,1.8 l 0.6,-0.5 0.25,-0.8 -0.4,-0.9 m 6.3,-19.1 0.25,0.6 0.25,0.55 -0.1,0.7 -0.45,1.4 h 0.15 L 12.5,12.6 12.95,11.5 12.6,10.4 11.95,8.95 q -0.7,-0.05 -0.7,1.5"
         fill="#bfbaba"
         fill-rule="evenodd"
         stroke="none"
         id="path15" />
      <path
         d="m 14.25,2.75 1.85,3.9 q 0.3,0.7 0.6,4.15 l 0.25,3.95 q 0,3.7 -4.1,7.15 -4.15,3.4 -4.15,6.25 l 3.05,4.45 q 3.05,4.4 3.05,6.4 0,3.4 -0.6,5.7 -0.8,3 -2.4,4.2 l -0.45,0.6 Q 10.1,51.15 7.6,51.15 4.35,51.15 3.1,49.25 2.45,48.3 2.45,47.15 2.45,45.3 3.35,44.3 4.8,42.75 5.6,40.6 L 5.85,39.6 5.7,39.45 4.65,38.6 2.55,36.45 2.05,35.55 0.35,32.15 Q 0,31.2 0,28.85 0,25.45 2.05,21.55 3,19.7 4.4,17.75 L 6.35,15 8.75,11.35 Q 8.75,9.15 7.45,7.6 6.1,6.1 6.1,4.7 q 0,-3.25 3.85,-4.35 3.8,-1.1 3.8,1.15 v 0.05 z"
         fill="none"
         stroke="#9a9a9a"
         stroke-linecap="round"
         stroke-linejoin="round"
         stroke-width="1.5"
         id="path16" />
    </g>
    <g
       id="sprite2">
      <use
         ffdec:characterId="787"
         height="29.15"
         width="41.200001"
         xlink:href="#shape2"
         id="use16" />
    </g>
    <g
       id="shape2">
      <path
         d="m 28.25,14 q -0.4,0.55 -1.05,0.55 -0.85,0 -1.2,-0.75 l -0.15,-0.65 q 0,-1.25 1.35,-1.25 1.35,0 1.35,1.25 L 28.25,14 m -5.9,2.4 q -2,1.55 -4.35,1.55 -1.7,0 -2.5,-0.8 L 15.1,16.3 q 0,-2.5 4.5,-3.75 4.45,-1.2 4.45,1.75 0,0.8 -1.7,2.1"
         fill="#d2d2d2"
         fill-rule="evenodd"
         stroke="none"
         id="path17" />
      <path
         d="m 37.95,18.55 q 0,-2.5 -2.7,-5.15 -3.3,-3.25 -8.2,-3.25 -6.8,0 -10.9,2.5 l -3.65,2 -0.9,0.9 q -0.95,0.6 -2.15,0.6 -2.05,0 -3.2,-0.75 -0.8,-0.55 -0.8,-1 -0.2,-2.95 0.9,-3.6 0.55,0.65 0.4,2.45 -0.1,0.8 1.8,0.95 L 8.5,13.75 q 0,-2.6 1.2,-4.7 Q 10.95,6.9 13.25,5.9 L 13.8,5 Q 13.8,4.6 12.7,3.5 11.5,2.25 10.75,2.4 h -2.7 q -3.25,3.95 -4.5,7 -1.2,2.95 -1.2,6.9 0,3.55 2.75,5.95 5.1,3.5 6.35,3.85 L 22.7,26.05 Q 30,25.6 34.35,23 q 3.6,-2.15 3.6,-4.45 M 38.7,11.8 q 2.5,3.45 2.5,6.2 0,3.95 -3,6.45 -4.4,3.6 -15.45,4.7 h -11.3 l -2.1,-0.6 Q 6.95,28.3 5.45,27.3 4.6,26.75 4.25,26.25 2.05,24.95 0.95,22.15 0,19.75 0,16.3 0,14.65 1,11.1 2.05,7.4 3,5.95 L 4.3,3.25 Q 5.15,1.5 6.6,0.8 q 3.7,-1.75 6.6,0.3 2.25,1.6 2.25,3.05 0,1.35 -0.65,2.65 -0.8,1.5 -2.05,1.75 -0.9,0.95 -0.9,1.95 0,0.6 -0.55,1.3 l 0.05,0.3 Q 16.4,8.85 17,8.6 21.15,6.8 28.3,6.8 q 6.7,0 10.4,5 M 11.05,5.9 Q 8.6,5.9 8.6,4.25 8.6,3 10.55,3.35 q 1.9,0.35 1.9,1.45 0,1.1 -1.4,1.1"
         fill="#9a9a9a"
         fill-rule="evenodd"
         stroke="none"
         id="path18" />
      <path
         d="m 22.35,16.4 q 1.7,-1.3 1.7,-2.1 0,-2.95 -4.45,-1.75 -4.5,1.25 -4.5,3.75 l 0.4,0.85 q 0.8,0.8 2.5,0.8 2.35,0 4.35,-1.55 m 5.9,-2.4 0.3,-0.85 q 0,-1.25 -1.35,-1.25 -1.35,0 -1.35,1.25 L 26,13.8 q 0.35,0.75 1.2,0.75 0.65,0 1.05,-0.55 m 9.7,4.55 q 0,2.3 -3.6,4.45 Q 30,25.6 22.7,26.05 L 11.45,26.1 Q 10.2,25.75 5.1,22.25 2.35,19.85 2.35,16.3 q 0,-3.95 1.2,-6.9 1.25,-3.05 4.5,-7 h 2.7 Q 11.5,2.25 12.7,3.5 13.8,4.6 13.8,5 l -0.55,0.9 q -2.3,1 -3.55,3.15 -1.2,2.1 -1.2,4.7 l 0.05,0.45 q -1.9,-0.15 -1.8,-0.95 0.15,-1.8 -0.4,-2.45 -1.1,0.65 -0.9,3.6 0,0.45 0.8,1 1.15,0.75 3.2,0.75 1.2,0 2.15,-0.6 l 0.9,-0.9 3.65,-2 q 4.1,-2.5 10.9,-2.5 4.9,0 8.2,3.25 2.7,2.65 2.7,5.15 M 11.05,5.9 q 1.4,0 1.4,-1.1 0,-1.1 -1.9,-1.45 Q 8.6,3 8.6,4.25 8.6,5.9 11.05,5.9"
         fill="#c0b9b9"
         fill-rule="evenodd"
         stroke="none"
         id="path19" />
    </g>
    <g
       id="sprite3"
       transform="translate(34.25,34.3)">
      <use
         ffdec:characterId="560"
         height="68.449997"
         transform="translate(-34.25,-34.25)"
         width="68.849998"
         xlink:href="#sprite4"
         id="use19" />
    </g>
    <g
       id="sprite4"
       transform="translate(34.25,34.25)">
      <use
         ffdec:characterId="559"
         height="68.449997"
         transform="translate(-34.25,-34.25)"
         width="68.5"
         xlink:href="#sprite5"
         id="use20" />
    </g>
    <g
       id="sprite5"
       transform="translate(34.25,34.25)">
      <use
         ffdec:characterId="558"
         height="68.449997"
         transform="translate(-34.25,-34.25)"
         width="68.5"
         xlink:href="#shape3"
         id="use21" />
    </g>
    <g
       id="shape3"
       transform="translate(34.25,34.25)">
      <path
         d="m 34.25,-0.05 q 0,14.2 -10.05,24.2 Q 14.15,34.2 0,34.2 q -14.15,0 -24.2,-10.05 -10.05,-10 -10.05,-24.2 0,-14.15 10.05,-24.2 10.05,-10 24.2,-10 14.15,0 24.2,10 10.05,10.05 10.05,24.2"
         fill="url(#gradient0)"
         fill-rule="evenodd"
         stroke="none"
         id="path21" />
    </g>
    <radialGradient
       cx="0"
       cy="0"
       gradientTransform="scale(0.0454)"
       gradientUnits="userSpaceOnUse"
       id="gradient0"
       r="819.20001"
       spreadMethod="pad">
      <stop
         offset="0.0"
         stop-color="#e1a08d"
         stop-opacity="0.49803922"
         id="stop21" />
      <stop
         offset="1.0"
         stop-color="#e1a0a0"
         stop-opacity="0.0"
         id="stop22" />
    </radialGradient>
    <g
       id="shape4"
       transform="translate(32.5,66.8)">
      <path
         d="m -14.7,2.35 1.4,1.4 0.2,0.15 0.2,0.15 q 1.5,0.8 2.75,0.8 l 0.75,-0.05 0.15,0.1 0.05,0.15 0.15,0.15 1.7,1.7 q 3.15,2.8 3.4,7 0.25,3.8 -3.65,9.95 L -8.9,26 q -2.6,4.35 -2.5,5.55 0.1,1.95 1.55,4.1 l 0.75,1.2 v 1 0.45 l -0.55,0.2 v -0.4 q 0.15,-1.2 -1.35,-1.2 -0.6,0 -1.2,0.65 l -0.05,0.05 -0.65,-0.5 q -0.9,-0.55 -1.75,-0.9 -0.65,-1.35 -0.75,-2.55 -0.5,-7.75 3.65,-11.45 l 2.45,-2.3 0.4,-0.5 0.3,-0.6 -0.2,1.15 -0.4,1.7 -0.4,0.85 q -0.4,0.8 -0.75,1.05 l 0.8,0.25 0.45,-0.6 q 1.35,-1.8 1.6,-2.9 0.25,-0.95 0.1,-3.65 L -7.85,15.4 v -0.8 q -0.1,-1.4 -2.1,-4.35 L -11.3,8.4 -14.15,3.9 -14.7,2.35 m 5,-21.25 -0.75,-0.75 -0.45,0.3 -0.4,0.45 -0.05,0.2 0.3,2.6 q 0.1,0.6 1.35,1.75 1.35,1.2 1.4,1.7 0.15,1.3 -0.1,2.3 l -0.15,1 0.05,0.8 -0.35,-0.15 -2.2,-0.15 h -0.45 v -0.5 -0.5 q -0.15,-1.5 -1,-2.6 l -0.45,-0.5 q -1.25,-1.25 -1.5,-3.85 l -0.1,-2.1 q 0.15,-1.75 1.05,-2.55 l 0.3,-0.2 1.85,-0.3 q 2.25,0 3.2,0.85 0.6,0.5 1.35,2.2 -0.7,0.05 -1.8,1.5 h -0.05 l -0.35,0.15 -0.4,0.15 -0.2,-1.6 -0.1,-0.2 m 0.05,5.4 q -0.75,1 -0.65,1.7 l 0.35,1 q -0.05,0.15 0.55,0.15 0.55,0 0.7,-0.45 0.25,-0.7 -0.55,-2.2 l -0.4,-0.2 m 3.1,24.5 q -0.35,0 -0.55,0.5 l -0.2,0.8 0.45,0.9 q 0.5,0.75 0.55,1.55 l -0.45,1.75 q -0.15,0.75 1.25,2.05 l 1.05,-2.95 q 0.3,-1.1 0.2,-2.8 Q -5,11 -6.55,11 M -8.45,8.3 -8.5,9 -8.45,9.45 -8.3,9.65 -7.05,9.6 q 0.3,-0.3 0.3,-0.6 -0.05,-0.3 -1,-0.9 l -0.7,0.2 m -3.8,20.75 -1.05,1.1 -0.4,1.1 0.45,1.1 0.75,1.45 q 0.7,0.05 0.6,-1.5 l -0.3,-0.6 -0.3,-0.55 0.05,-0.7 0.35,-1.4 h -0.15 M 9.8,52.85 7.75,51.3 8.2,51.4 9.8,51.45 10.65,51.4 q 0.15,0.05 0.1,-0.45 Q 10.85,50.3 9.5,50.1 L 6.4,50 6.35,50.15 6.6,50.55 Q 4.05,48.8 1.7,47.8 l 0.85,-0.35 3.3,0.45 q 1.4,0.8 5.05,1.5 0.8,0.1 0.8,-0.95 0,-0.7 -0.8,-0.95 L 5.95,46.25 4.1,46 Q 4.5,45.2 4.45,44.25 L 4.4,43.85 h 0.05 l 7.15,1.3 0.35,0.05 q 0.7,0.65 1.2,1.75 l 0.6,1.9 0.2,1.9 Q 13.9,51.6 12.8,52.2 l -1.7,0.55 -1.3,0.1 m 2.45,-5.45 0.3,-0.3 Q 12.1,46.05 9.15,45.2 L 5.3,45 q 1.05,0.75 3.5,1.6 l 2.95,0.85 0.5,-0.05"
         fill="#d1bebe"
         fill-rule="evenodd"
         stroke="none"
         id="path22" />
      <path
         d="m 1.4,-59.25 -0.2,0.75 -0.65,0.15 -0.6,-0.2 q -0.3,-1 0.05,-1.3 l 0.6,-0.15 0.8,0.75 m -10.1,31.85 0.4,-0.05 -0.45,0.55 0.05,-0.5 m 21.4,-6.75 1.75,0.35 q 2.6,1.25 2.75,3.65 l -0.15,2.25 -2.15,0.2 q -0.8,0 -1.4,-0.65 l 0.65,0.05 q 0.75,0 1.25,-1.6 -0.05,-1.25 -0.3,-1.55 -0.45,-0.6 -2.5,-1.4 l 0.1,-1.3 m 1.25,4.75 Q 13.3,-29.7 13,-30.45 l -0.3,-1.25 q 1.75,0.5 1.8,1.3 0.05,0.7 -0.55,1 M -9.1,-52.05 q -2.4,0 -0.95,-3.2 1.5,-3.25 4.9,-3.25 1.1,0.1 1.2,1.65 0.05,1.25 -2.15,3.1 -2.1,1.7 -3,1.7 m -0.55,38.55 0.4,0.2 q 0.8,1.5 0.55,2.2 -0.15,0.45 -0.7,0.45 -0.6,0 -0.55,-0.15 l -0.35,-1 q -0.1,-0.7 0.65,-1.7 m -0.15,12.95 -0.05,-0.3 0.4,-0.6 0.6,-0.2 h 0.15 q 0.95,0.1 1.1,1.1 0.1,1.05 -1,1.05 L -9.45,0.25 -9.6,0.1 -9.8,-0.55 m 1.35,8.85 0.7,-0.2 q 0.95,0.6 1,0.9 0,0.3 -0.3,0.6 L -8.3,9.65 -8.45,9.45 -8.5,9 -8.45,8.3 m 1.9,2.7 q 1.55,0 2.3,1.8 0.1,1.7 -0.2,2.8 L -5.5,18.55 Q -6.9,17.25 -6.75,16.5 L -6.3,14.75 Q -6.35,13.95 -6.85,13.2 L -7.3,12.3 -7.1,11.5 Q -6.9,11 -6.55,11 M 1.5,41.45 v 0.1 L 1.45,42.35 1.1,42.6 0.55,42.65 q -0.45,0 -0.8,-0.35 l -0.3,-0.5 1.4,-0.35 0.25,-0.15 0.15,0.05 0.25,0.1 M -1,35.4 l 0.2,1 -0.25,0.75 q -0.5,0.7 -1.9,0.7 -1.05,0 -1.85,-0.7 -0.65,-0.55 -0.7,-1.1 -0.05,-1.3 0.6,-1.8 l 0.3,-0.05 q 2.35,0 3.6,1.2 m -11.25,-6.35 h 0.15 l -0.35,1.4 -0.05,0.7 0.3,0.55 0.3,0.6 q 0.1,1.55 -0.6,1.5 l -0.75,-1.45 -0.45,-1.1 0.4,-1.1 1.05,-1.1 M 7.75,51.3 7.4,51.05 6.6,50.55 6.35,50.15 6.4,50 9.5,50.1 q 1.35,0.2 1.25,0.85 0.05,0.5 -0.1,0.45 L 9.8,51.45 8.2,51.4 7.75,51.3 m -19.2,1.8 -1.25,0.25 -0.5,-0.3 -0.4,-0.4 0.05,-0.5 0.1,-0.2 1.9,-0.05 0.1,0.6 v 0.6 m 10.9,2.75 Q -1.6,55.4 -5.75,54.1 -7.65,53.5 -7.8,52.3 -7.9,51.4 -6.9,51.2 l 1.2,-0.15 q 4.15,-0.4 6.45,1 1.15,0.75 1.55,1.7 l 0.2,0.75 -0.1,0.6 -0.85,0.65 -2.1,0.1 M 12.25,47.4 11.75,47.45 8.8,46.6 Q 6.35,45.75 5.3,45 l 3.85,0.2 q 2.95,0.85 3.4,1.9 l -0.3,0.3"
         fill="#ffffff"
         fill-rule="evenodd"
         stroke="none"
         id="path23" />
      <path
         d="m -12.8,-54.85 q -0.55,1.5 -0.55,2.55 -0.3,2 -0.15,4.35 l 0.85,1.75 q 0.85,1.8 0.9,2.9 v 0.1 l 0.35,0.25 q 0.4,0.3 0.7,0.3 3.55,0 4.3,-3.5 0.7,-3.1 2.45,-3.45 1.45,-1.25 2.75,-1.25 2.3,0 3.2,0.5 L 1.85,-50.05 1.7,-50 q -1.65,-0.4 -3.35,0.75 2.35,0.65 7.35,2.6 l 3.65,1.45 4.4,1.7 -1.85,0.45 h -0.1 l -1.1,-0.15 -2.3,-0.7 -1.3,-0.5 -2.05,-0.85 -3.5,-1.45 -0.8,-0.3 2.45,2.55 q 1.25,1.05 2.65,1.85 1.15,0.65 2.35,1.1 l 0.35,0.15 q 2.4,0.85 5,1.1 l 0.15,0.05 2.4,0.1 h 0.1 l 2.1,-0.3 q 2,-0.6 1.9,-1.85 -0.1,-2.2 -3.8,-8.5 l -2.25,-4.6 q -1.6,-3.5 -2.5,-4.3 -1.1,-1.05 -4.8,-2.25 Q 3.4,-63 1.7,-63 q -6.85,0 -10.75,3 l -0.9,0.75 q -1.6,0.95 -2.85,4.4 m -0.6,26 -1.05,-2.6 0.1,-1 q 0,-0.5 0.8,-2.05 v -0.05 q 0.8,-1.6 0.75,-2.25 l -0.8,-1.35 q -0.85,-1.5 -0.95,-2.85 l 0.2,-1.2 0.25,-1.2 -1.8,-3.85 q -1.5,-4.5 -0.05,-9.25 0.95,-2.8 2.4,-4.25 l 2.25,-1.6 q 2,-1.35 4.85,-2.5 3.2,-1.2 5.15,-1.2 l 5.85,0.15 q 2.5,0.35 6.55,2.4 3.25,1.7 7.45,9.65 3.8,7.4 4,10.85 0.25,3.4 -2.6,4.35 l -3.75,0.3 -4.9,-0.65 -0.6,-0.1 0.6,0.1 4.9,0.65 -0.2,1.25 1.85,1.05 q 2.65,2.25 3,7.35 0.1,2 -1.3,4.1 -2.1,3.15 -6.6,3.15 H 12.2 11.5 q -4.5,0 -7,-3.15 -1.7,-2.1 -1.8,-4.1 -0.35,-5.1 2,-7.35 0.75,-0.7 1.75,-1.05 l -0.4,-1.25 -0.2,-1.8 Q 3.25,-40.9 0.15,-43.9 L -3,-47.25 -3.3,-47.2 q -0.85,0.75 -1.55,2.65 -0.6,1.65 -1.65,2.5 v 0.3 q 0.1,1.45 -0.85,2.2 l 1.6,3.75 q 0,0.6 -1.05,2.3 l 0.1,0.75 q 0.45,2.5 -0.2,3.9 l -0.35,0.7 0.35,-0.7 h 0.55 0.55 l 0.05,0.95 q -0.25,2.75 -0.7,3.6 0.5,0.55 0.65,1.35 0.2,0.8 0.05,1.3 1,0.75 1,1.5 l 0.05,1.25 q -0.2,1.25 -1.45,2.2 -1.1,0.85 -2.1,1 l -0.2,0.3 0.1,0.05 q 1.35,0.9 1.6,1.6 0.1,1.15 -0.15,3.7 0.05,0.35 -0.05,0.7 l -0.25,1.75 1,1.1 v 0.1 q 0.65,2.75 -0.05,3.5 H -6.3 l 0.5,0.75 -0.5,-0.75 h 0.05 q 0.7,-0.75 0.05,-3.5 0.65,0.9 0.75,2 0.05,1.35 -0.35,2.25 Q -4.1,0.7 -6,2.8 L -7.25,3.9 -7.4,4 q -0.9,0.6 -2,0.8 1.1,-0.2 2,-0.8 l 0.3,0.15 q 1.7,1.3 2.2,2.15 l 0.6,0.9 1.9,3.4 q 0.4,0.95 0.55,3.3 0.2,3.4 -1.6,7.3 -0.8,1.85 -2.1,3.8 l -1.75,2.75 -2.2,3.65 q 0.15,1.9 1.2,3.3 -0.65,0.95 -0.8,2.15 0.15,-1.2 0.8,-2.15 l 0.65,-0.75 q 1.5,-1.4 3.7,-1.5 2.25,-0.15 3.85,1.15 1.8,1.5 2,4.25 l -0.05,2.2 -0.05,0.2 q 1.4,0.35 2.05,1.4 l 0.05,0.1 q 0.35,0.65 0.5,2.1 -0.15,-1.45 -0.5,-2.1 l -0.05,-0.1 4.55,0.6 q 4.15,-0.85 6.15,3.45 l 0.55,1.4 q 0.55,-0.55 1.3,-1 l 1.4,-0.75 q 1.65,-0.35 2.75,1.3 0.9,1.4 -0.3,6.8 -1.35,5.9 -3.85,7.4 -1.6,1 -2.9,1.05 l -0.75,0.9 q -2.35,2.35 -6.3,3.4 h -26.5 q -4.2,-0.6 -6.75,-1.75 -4.2,-1.8 -4.65,-5.9 -2.05,-17.85 10.4,-22.75 l 1.6,-0.15 2.75,-0.05 -0.7,-3.65 -0.5,-3.95 q -0.25,-3.7 3.65,-7.15 3.95,-3.4 3.75,-6.25 l -3.35,-4.45 Q -17.05,5.9 -17.3,3.9 V 3.75 q -0.2,-3.4 0.25,-5.7 0.35,-1.9 1.15,-3.1 0.35,-1.95 1.25,-2.9 l 0.1,-0.1 0.2,-2.2 0.1,-0.65 q -0.3,-0.85 -0.75,-1.35 l -0.15,-0.15 q -0.9,-1.05 -1.25,-4.4 l -0.15,-2.1 h 0.7 l -0.3,-2.35 q 0.5,-1.3 1.5,-1.9 l -0.1,-0.55 -0.1,-0.45 q -0.4,-0.4 -0.5,-1.4 l -0.4,-3.3 h 0.85 1.25 l 0.25,2.6 0.8,-0.15 q 1.6,0 4.35,0.95 l 0.45,0.15 0.35,-1 q 0.25,-0.8 0.2,-1.85 -0.25,0.35 -0.65,0.6 l -0.4,0.1 -0.4,0.05 -1.35,0.25 -1.45,-0.1 q -0.8,-0.25 -1.65,-1.3 l -0.15,-0.2 -0.1,-0.1 M 8.4,-39.6 6.65,-40 l -0.8,-0.15 0.8,0.15 1.75,0.4 0.15,0.65 1.2,-0.05 v -0.15 l 0.95,0.05 -2.3,-0.5 m 0.3,2.1 2.5,0.3 2.45,-0.3 v -0.1 l -2.4,-0.25 -2.55,0.25 v 0.1 m 4.8,9.15 q -0.85,-0.15 -1.2,-0.85 l -0.55,-1.65 h -0.1 l -0.4,0.65 -0.45,0.4 v 0.35 q -0.2,0.6 -1.05,1 h -1.7 q -0.8,-0.55 -0.95,-1 -0.15,-0.2 -0.15,-0.85 l 0.1,-0.95 q 0.55,-0.65 2.6,-0.85 v -0.1 q -0.7,-2 -0.5,-3.2 -1.35,0.55 -1.8,1.2 -0.65,1 -1.15,2.15 -0.45,1.3 -0.4,2 0.3,4.85 6.2,5.5 5.85,-0.65 5.55,-5.5 -0.05,-0.7 -0.7,-2 L 15.5,-34.2 q -0.65,-0.8 -2.6,-1.4 l -0.2,1.3 v 0.15 l -0.1,1.3 q 2.05,0.8 2.5,1.4 0.25,0.3 0.3,1.55 -0.5,1.6 -1.25,1.6 l -0.65,-0.05 m -3.4,-7.4 -0.4,0.15 q 0.7,1.4 0.95,3.8 l 1.15,-3.45 0.25,-0.65 -0.75,-0.3 h -0.1 l -1.1,0.45 M 8,-30.8 v 0.95 l 0.15,0.05 1.2,0.2 q 0.4,0 0.3,-0.1 v -0.15 L 9.7,-30.45 9.65,-30.85 9.5,-30.9 8,-30.8 m 5.95,1.4 q 0.6,-0.3 0.55,-1 -0.05,-0.8 -1.8,-1.3 l 0.3,1.25 q 0.3,0.75 0.95,1.05 m -25.35,-9.25 0.7,1.25 q 0,0.6 -0.6,2.15 l 2.05,-0.1 q 0.35,0 0.95,0.8 v -0.05 l 0.7,-1.15 -0.5,-1.1 q -0.5,-0.65 -0.55,-2 L -8.7,-39 l -1.8,0.1 -1.15,-0.1 0.25,0.35 m -0.6,-3.15 -0.15,1.25 0.05,0.6 1.4,-0.1 q 1.8,0.05 2.65,-0.8 v -0.55 l -0.9,0.05 H -11 q -0.65,-0.1 -1,-0.45 m 1.75,7.15 -1.3,0.55 -0.25,0.15 -0.2,0.35 -0.85,1.95 0.3,0.55 0.15,0.35 0.35,0.65 0.05,0.1 q 0.5,0.9 1.15,1.15 l 0.65,0.1 0.5,-0.05 0.1,-0.05 1.15,-0.5 -0.2,-2.8 v -0.75 l -0.75,-1.15 q -0.2,-0.6 -0.85,-0.6 m -0.3,1.65 0.3,0.1 0.35,0.25 0.5,0.5 0.1,1.6 -0.8,1 q -1.4,0 -1.8,-1.7 l -0.05,-0.15 0.1,-0.95 Q -11.6,-33 -10.55,-33 M -14.7,2.35 -15.6,0 l -0.25,-0.3 -0.3,-2.6 0.25,-2.15 -0.25,2.15 0.3,2.6 0.25,0.3 0.9,2.35 0.55,1.55 2.85,4.5 1.35,1.85 q 2,2.95 2.1,4.35 v 0.8 l 0.45,1.25 q 0.15,2.7 -0.1,3.65 -0.25,1.1 -1.6,2.9 l -0.45,0.6 -0.8,-0.25 Q -10,23.3 -9.6,22.5 l 0.4,-0.85 0.4,-1.7 0.2,-1.15 -0.3,0.6 -0.4,0.5 -2.45,2.3 q -4.15,3.7 -3.65,11.45 0.1,1.2 0.75,2.55 l -1.85,-0.6 h -0.2 0.2 l 1.85,0.6 q 0.85,0.35 1.75,0.9 l 0.65,0.5 0.05,-0.05 q 0.6,-0.65 1.2,-0.65 1.5,0 1.35,1.2 v 0.4 l 0.55,-0.2 v -0.45 -1 l -0.75,-1.2 q -1.45,-2.15 -1.55,-4.1 -0.1,-1.2 2.5,-5.55 l 1.3,-2.15 Q -3.7,17.7 -3.95,13.9 -4.2,9.7 -7.35,6.9 L -9.05,5.2 -9.2,5.05 -9.25,4.9 -9.4,4.8 -10.15,4.85 q -1.25,0 -2.75,-0.8 L -13.1,3.9 -13.3,3.75 -14.7,2.35 M -15,-26.7 v -0.5 l 0.1,-1.65 -0.1,1.65 v 0.5 m 8.1,0 0.4,-1.75 0.15,-0.4 -0.15,0.4 -0.4,1.75 m -2.8,7.8 0.1,0.2 0.2,1.6 0.4,-0.15 0.35,-0.15 h 0.05 q 1.1,-1.45 1.8,-1.5 -0.75,-1.7 -1.35,-2.2 -0.95,-0.85 -3.2,-0.85 l -1.85,0.3 -0.3,0.2 q -0.9,0.8 -1.05,2.55 l 0.1,2.1 q 0.25,2.6 1.5,3.85 l 0.45,0.5 q 0.85,1.1 1,2.6 v 0.5 0.5 h 0.45 l 2.2,0.15 0.35,0.15 -0.05,-0.8 0.15,-1 q 0.25,-1 0.1,-2.3 -0.05,-0.5 -1.4,-1.7 -1.25,-1.15 -1.35,-1.75 l -0.3,-2.6 0.05,-0.2 0.4,-0.45 0.45,-0.3 0.75,0.75 m -3.3,-4.75 1.45,-0.05 q 1.8,0 3.75,0.85 -0.35,-1.45 -1.5,-1.75 l -3.05,-0.3 -0.65,1.25 m 2,16.35 -1.55,0.15 q -0.8,0.35 -1.3,1.9 l 1.95,-0.25 q 1.85,0.05 4.25,1.05 H -7.6 Q -7.9,-6.55 -9.1,-7.1 L -11,-7.3 m 1.8,4.05 -1.95,-0.55 q -1.25,0.4 -2.75,2.1 l -0.2,0.2 0.25,0.8 0.4,1.3 q 0.5,2.25 2.95,2.3 h 0.15 q 0.55,0 2.5,-1.75 L -6.9,0.3 -6.95,-0.5 -7,-0.8 -8.3,-2.35 -8.95,-3.2 -9.2,-3.25 m -3.05,46 3.1,0.5 -0.55,-0.6 -0.1,-0.05 -0.05,-0.05 -0.2,-0.15 -0.35,-0.5 -1.2,-1.4 -0.5,-0.3 -0.15,-0.1 q -0.8,-0.5 -1.6,-0.9 l -1.5,-0.75 -0.85,-0.3 -1.8,-0.2 -0.95,0.1 q -1.9,0.25 -3.45,1.05 -4.15,2.25 -5.65,8.85 -1.2,5.15 -0.6,10.3 0.35,3.1 4.3,4.25 3.45,0.95 11.05,1.25 l 11.1,0.1 6.25,-0.25 Q 5.9,64.1 8.75,62 L 9.25,61.55 9.9,61 l 0.75,-0.65 1.3,-1.6 0.15,-0.5 Q 12.05,57.75 11.6,57.2 L 11.45,57 9.65,55.2 9.5,55.05 Q 7.95,53.8 5.6,52.25 L 5.4,52.1 Q -1.35,47.75 -5.55,48.5 L -11.9,48.75 -15.05,48.2 -16,47.9 q -1.75,-0.8 -1.9,-1.6 l 0.1,-0.1 -0.5,-0.6 -0.2,-0.25 q -0.7,-1.1 -0.8,-1.8 -0.2,-1.55 0.65,-2.35 h 0.5 l -0.25,0.65 -0.1,0.7 q 0.1,0.75 0.8,1.6 l 0.95,1.35 q 0.6,0.1 1.45,0.5 l 0.1,0.05 q 1.15,0.65 3.05,0.75 l 6.6,-0.4 0.6,-0.05 h 0.3 l -1,-0.75 -1.2,-0.8 -0.35,-0.1 -0.6,-0.25 -0.25,-0.1 -0.9,-0.3 -1.4,-0.4 -2,-0.45 -1.9,-0.5 -0.65,-0.45 1.6,0.35 0.45,0.05 0.6,0.1 m 7.35,-8.5 q -1.2,0.2 -2.05,2.15 l -0.05,0.1 -0.6,2.1 0.75,0.5 q 1.85,1.6 2.05,3.25 l 0.05,0.45 0.45,0.3 q 1.75,1.2 2.35,2.3 l 0.75,0.3 h 0.5 l 1.5,-0.2 q 0.75,-0.25 1.3,-0.75 l 0.65,-1.2 V 43.4 Q 2.7,42.6 2.3,42.05 1.95,41.6 1.5,41.45 L 1.25,41.35 1.1,41.3 0.85,41.45 -0.55,41.8 h -0.1 l -0.85,-0.15 -0.6,-0.55 0.35,-0.45 1.55,-1.5 q 0.45,-0.35 0.4,-1.05 0,-1 -0.6,-1.95 L -1,35.4 q -1.25,-1.2 -3.6,-1.2 l -0.3,0.05 M 14.65,59.2 q -0.05,1.3 -1.15,2.7 1.1,-1.4 1.15,-2.7 l 0.4,-0.2 q 1.85,-1.15 2.2,-4.15 0.5,-4.25 1.6,-6.45 L 18.3,47.9 17.5,48.35 Q 16.45,49 15.75,50.3 v 0.55 q -0.05,1.5 -0.85,2.6 l -0.15,0.15 -1.15,0.85 1.15,-0.85 0.15,-0.15 -0.05,1.1 q -0.2,2.1 -0.75,2.45 l -0.05,0.05 0.6,1.5 v 0.65 m -1.3,-3.1 0.7,0.95 -0.7,-0.95 0.25,-1.25 v -0.4 l -0.85,0.35 -0.3,0.3 0.9,1 m -3.55,-3.25 2.4,2.05 0.25,0.2 -0.25,-0.2 -2.4,-2.05 1.3,-0.1 1.7,-0.55 q 1.1,-0.6 1.15,-1.45 l -0.2,-1.9 -0.6,-1.9 q -0.5,-1.1 -1.2,-1.75 L 11.6,45.15 4.45,43.85 H 4.4 l 0.05,0.4 Q 4.5,45.2 4.1,46 L 3.85,46.4 2.55,47.45 3.85,46.4 4.1,46 5.95,46.25 10.9,47.5 q 0.8,0.25 0.8,0.95 0,1.05 -0.8,0.95 Q 7.25,48.7 5.85,47.9 L 2.55,47.45 1.7,47.8 q 2.35,1 4.9,2.75 l 0.8,0.5 0.35,0.25 2.05,1.55 m -11.75,-7.45 0.25,0.45 0.2,0.55 v 0.25 Q 0,47 1.7,47.8 0,47 -1.5,46.65 V 46.4 L -1.7,45.85 -1.95,45.4 m -10.3,-7.8 q 1.05,0.7 1.8,1.4 l 0.8,-0.5 -0.8,0.5 q -0.75,-0.7 -1.8,-1.4 m 4.7,2.4 q -0.4,-0.5 -1.35,-0.45 h -0.05 l -0.7,0.25 0.15,0.2 q 0.8,0.85 1.1,1.75 l 0.05,0.2 h 0.1 1.2 v -0.8 Q -7.15,40.4 -7.55,40 M -9.1,38.3 q 0.7,-0.1 1.5,0.3 -0.8,-0.4 -1.5,-0.3 m 24.2,8.8 q 0.6,1.65 0.65,3.2 -0.05,-1.55 -0.65,-3.2 m -2.35,7.7 -0.55,0.1 0.55,-0.1"
         fill="#6b6b6b"
         fill-rule="evenodd"
         stroke="none"
         id="path24" />
      <path
         d="m -12,-41.8 q 0.35,0.35 1,0.45 h 2.05 l 0.9,-0.05 v 0.55 q -0.85,0.85 -2.65,0.8 l -1.4,0.1 -0.05,-0.6 0.15,-1.25 m 0.6,3.15 -0.25,-0.35 1.15,0.1 1.8,-0.1 0.05,0.15 q 0.05,1.35 0.55,2 l 0.5,1.1 -0.7,1.15 v 0.05 q -0.6,-0.8 -0.95,-0.8 l -2.05,0.1 q 0.6,-1.55 0.6,-2.15 l -0.7,-1.25 m 2.2,35.4 0.25,0.05 0.65,0.85 1.3,1.55 0.05,0.3 0.05,0.8 -0.95,0.85 Q -9.8,2.9 -10.35,2.9 h -0.15 q -2.45,-0.05 -2.95,-2.3 l -0.4,-1.3 -0.25,-0.8 0.2,-0.2 q 1.5,-1.7 2.75,-2.1 l 1.95,0.55 m -0.6,2.7 0.2,0.65 0.15,0.15 0.85,0.25 q 1.1,0 1,-1.05 -0.15,-1 -1.1,-1.1 h -0.15 l -0.6,0.2 -0.4,0.6 0.05,0.3 m 2.2,39.15 0.6,-2.1 0.05,-0.1 q 0.85,-1.95 2.05,-2.15 -0.65,0.5 -0.6,1.8 0.05,0.55 0.7,1.1 0.8,0.7 1.85,0.7 1.4,0 1.9,-0.7 l 0.25,-0.75 -0.2,-1 0.6,0.75 q 0.6,0.95 0.6,1.95 0.05,0.7 -0.4,1.05 l -1.55,1.5 -0.35,0.45 0.6,0.55 0.85,0.15 h 0.1 l 0.3,0.5 q 0.35,0.35 0.8,0.35 L 1.1,42.6 1.45,42.35 1.5,41.55 v -0.1 q 0.45,0.15 0.8,0.6 0.4,0.55 0.45,1.35 v 0.15 l -0.65,1.2 q -0.55,0.5 -1.3,0.75 l -1.5,0.2 H -1.2 L -1.95,45.4 Q -2.55,44.3 -4.3,43.1 L -4.75,42.8 -4.8,42.35 Q -5,40.7 -6.85,39.1 L -7.6,38.6 M 14.65,59.2 V 58.55 L 14.05,57.05 14.1,57 q 0.55,-0.35 0.75,-2.45 l 0.05,-1.1 q 0.8,-1.1 0.85,-2.6 V 50.3 q 0.7,-1.3 1.75,-1.95 l 0.8,-0.45 0.55,0.5 q -1.1,2.2 -1.6,6.45 -0.35,3 -2.2,4.15 l -0.4,0.2"
         fill="#a38d8d"
         fill-rule="evenodd"
         stroke="none"
         id="path25" />
      <path
         d="m -10.25,-34.65 q 0.65,0 0.85,0.6 l 0.75,1.15 v 0.75 l 0.2,2.8 -1.15,0.5 -0.1,0.05 -0.5,0.05 -0.65,-0.1 Q -11.5,-29.1 -12,-30 l -0.05,-0.1 -0.35,-0.65 -0.15,-0.35 -0.3,-0.55 0.85,-1.95 0.2,-0.35 0.25,-0.15 1.3,-0.55 m -0.3,1.65 q -1.05,0 -1.3,0.65 l -0.1,0.95 0.05,0.15 q 0.4,1.7 1.8,1.7 l 0.8,-1 -0.1,-1.6 -0.5,-0.5 -0.35,-0.25 -0.3,-0.1"
         fill="#c6c6c6"
         fill-rule="evenodd"
         stroke="none"
         id="path26" />
      <path
         d="m -13.4,-28.85 0.1,0.1 0.15,0.2 -0.15,1.85 h 4.55 v -0.2 l 0.45,-0.55 0.4,-0.1 q 0.4,-0.25 0.65,-0.6 0.05,1.05 -0.2,1.85 l -0.35,1 -0.45,-0.15 Q -11,-26.4 -12.6,-26.4 l -0.8,0.15 -0.25,-2.6 h 0.25 M -7.55,40 q 0.4,0.4 0.5,1.15 v 0.8 h -1.2 -0.1 L -8.4,41.75 Q -8.7,40.85 -9.5,40 l -0.15,-0.2 0.7,-0.25 H -8.9 Q -7.95,39.5 -7.55,40"
         fill="#9a9a9a"
         fill-rule="evenodd"
         stroke="none"
         id="path27" />
      <path
         d="m -13.15,-28.55 q 0.85,1.05 1.65,1.3 l 1.45,0.1 1.35,-0.25 -0.05,0.5 v 0.2 h -4.55 l 0.15,-1.85"
         fill="#d4d4d4"
         fill-rule="evenodd"
         stroke="none"
         id="path28" />
      <path
         d="m -13,-23.65 0.65,-1.25 3.05,0.3 q 1.15,0.3 1.5,1.75 -1.95,-0.85 -3.75,-0.85 l -1.45,0.05 m 2,16.35 1.9,0.2 q 1.2,0.55 1.5,2.65 h -0.05 q -2.4,-1 -4.25,-1.05 l -1.95,0.25 q 0.5,-1.55 1.3,-1.9 L -11,-7.3 m 24.35,63.4 -0.9,-1 0.3,-0.3 0.85,-0.35 v 0.4 l -0.25,1.25"
         fill="#b6b6b6"
         fill-rule="evenodd"
         stroke="none"
         id="path29" />
      <path
         d="m -12.8,-54.85 q 1.25,-3.45 2.85,-4.4 l 0.9,-0.75 q 3.9,-3 10.75,-3 1.7,0 5.15,1.1 3.7,1.2 4.8,2.25 0.9,0.8 2.5,4.3 l 2.25,4.6 q 3.7,6.3 3.8,8.5 0.1,1.25 -1.9,1.85 l -2.1,0.3 h -0.1 l -2.4,-0.1 -0.15,-0.05 q -2.6,-0.25 -5,-1.1 L 8.2,-41.5 Q 7,-41.95 5.85,-42.6 4.45,-43.4 3.2,-44.45 L 0.75,-47 l 0.8,0.3 3.5,1.45 2.05,0.85 1.3,0.5 2.3,0.7 1.1,0.15 h 0.1 l 1.85,-0.45 -4.4,-1.7 -3.65,-1.45 q -5,-1.95 -7.35,-2.6 1.7,-1.15 3.35,-0.75 l 0.15,-0.05 0.15,-0.3 q -0.9,-0.5 -3.2,-0.5 -1.3,0 -2.75,1.25 -1.75,0.35 -2.45,3.45 -0.75,3.5 -4.3,3.5 -0.3,0 -0.7,-0.3 l -0.35,-0.25 v -0.1 q -0.05,-1.1 -0.9,-2.9 l -0.85,-1.75 q -0.15,-2.35 0.15,-4.35 0,-1.05 0.55,-2.55 M 1.4,-59.25 0.6,-60 0,-59.85 q -0.35,0.3 -0.05,1.3 l 0.6,0.2 0.65,-0.15 0.2,-0.75 m -10.5,7.2 q 0.9,0 3,-1.7 2.2,-1.85 2.15,-3.1 -0.1,-1.55 -1.2,-1.65 -3.4,0 -4.9,3.25 -1.45,3.2 0.95,3.2 m -3.75,94.7 -0.45,-0.05 -1.6,-0.35 0.65,0.45 1.9,0.5 2,0.45 1.4,0.4 0.9,0.3 0.25,0.1 0.6,0.25 0.35,0.1 1.2,0.8 1,0.75 h -0.3 l -0.6,0.05 -6.6,0.4 q -1.9,-0.1 -3.05,-0.75 L -15.3,46 q -0.85,-0.4 -1.45,-0.5 l -0.95,-1.35 q -0.7,-0.85 -0.8,-1.6 l 0.1,-0.7 0.25,-0.65 h -0.5 q -0.85,0.8 -0.65,2.35 0.1,0.7 0.8,1.8 l 0.2,0.25 0.5,0.6 -0.1,0.1 q 0.15,0.8 1.9,1.6 l 0.95,0.3 3.15,0.55 6.35,-0.25 q 4.2,-0.75 10.95,3.6 l 0.2,0.15 q 2.35,1.55 3.9,2.8 l 0.15,0.15 1.8,1.8 0.15,0.2 q 0.45,0.55 0.5,1.05 l -0.15,0.5 -1.3,1.6 L 9.9,61 9.25,61.55 8.75,62 q -2.85,2.1 -4.7,1.6 l -6.25,0.25 -11.1,-0.1 q -7.6,-0.3 -11.05,-1.25 -3.95,-1.15 -4.3,-4.25 -0.6,-5.15 0.6,-10.3 1.5,-6.6 5.65,-8.85 1.55,-0.8 3.45,-1.05 l 0.95,-0.1 1.8,0.2 0.85,0.3 1.5,0.75 q 0.8,0.4 1.6,0.9 l 0.15,0.1 0.5,0.3 1.2,1.4 0.35,0.5 0.2,0.15 0.05,0.05 0.1,0.05 0.55,0.6 -3.1,-0.5 -0.6,-0.1 m 12.3,13.2 2.1,-0.1 L 2.4,55.1 2.5,54.5 2.3,53.75 q -0.4,-0.95 -1.55,-1.7 -2.3,-1.4 -6.45,-1 l -1.2,0.15 q -1,0.2 -0.9,1.1 0.15,1.2 2.05,1.8 4.15,1.3 5.2,1.75 m -10.9,-2.75 v -0.6 l -0.1,-0.6 -1.9,0.05 -0.1,0.2 -0.05,0.5 0.4,0.4 0.5,0.3 1.25,-0.25"
         fill="#887b74"
         fill-rule="evenodd"
         stroke="none"
         id="path30" />
      <path
         d="m 8.4,-39.6 2.3,0.5 -0.95,-0.05 V -39 l -1.2,0.05 -0.15,-0.65 m 0.3,2.1 v -0.1 l 2.55,-0.25 2.4,0.25 v 0.1 l -2.45,0.3 -2.5,-0.3"
         fill="#a8a8a8"
         fill-rule="evenodd"
         stroke="none"
         id="path31" />
      <path
         d="m 16.2,-38.35 3.75,-0.3 q 2.85,-0.95 2.6,-4.35 -0.2,-3.45 -4,-10.85 -4.2,-7.95 -7.45,-9.65 -4.05,-2.05 -6.55,-2.4 l -5.85,-0.15 q -1.95,0 -5.15,1.2 -2.85,1.15 -4.85,2.5 l -2.25,1.6 q -1.45,1.45 -2.4,4.25 -1.45,4.75 0.05,9.25 l 1.8,3.85 -0.25,1.2 -0.2,1.2 q 0.1,1.35 0.95,2.85 l 0.8,1.35 q 0.05,0.65 -0.75,2.25 v 0.05 q -0.8,1.55 -0.8,2.05 l -0.1,1 1.05,2.6 0.1,0.1 0.15,0.2 q 0.85,1.05 1.65,1.3 l 1.45,0.1 1.35,-0.25 0.4,-0.05 0.4,-0.1 q 0.4,-0.25 0.65,-0.6 l 0.35,-0.7 q 0.65,-1.4 0.2,-3.9 l -0.1,-0.75 q 1.05,-1.7 1.05,-2.3 l -1.6,-3.75 q 0.95,-0.75 0.85,-2.2 v -0.3 q 1.05,-0.85 1.65,-2.5 0.7,-1.9 1.55,-2.65 l 0.3,-0.05 3.15,3.35 q 3.1,3 5.7,3.75 l 0.8,0.15 1.75,0.4 2.3,0.5 0.6,0.1 4.9,0.65 m -29.75,3.8 q -1.3,0.45 -0.9,1.8 l 0.05,0.05 -0.1,1.3 -0.4,2.55 -0.1,1.65 v 0.5 m -0.75,-2.15 0.4,3.3 q 0.1,1 0.5,1.4 l 0.1,0.45 0.1,0.55 q -1,0.6 -1.5,1.9 l 0.3,2.35 h -0.7 l 0.15,2.1 q 0.35,3.35 1.25,4.4 l 0.15,0.15 q 0.45,0.5 0.75,1.35 l -0.1,0.65 -0.2,2.2 -0.1,0.1 q -0.9,0.95 -1.25,2.9 l -0.25,2.15 0.3,2.6 0.25,0.3 0.9,2.35 1.4,1.4 0.2,0.15 0.2,0.15 q 1.5,0.8 2.75,0.8 L -9.4,4.8 Q -8.3,4.6 -7.4,4 L -7.25,3.9 -6,2.8 q 1.9,-2.1 0.2,-4.95 L -6.3,-2.9 h 0.05 q 0.7,-0.75 0.05,-3.5 v -0.1 l -1,-1.1 0.25,-1.75 q 0.1,-0.35 0.05,-0.7 0.25,-2.55 0.15,-3.7 -0.25,-0.7 -1.6,-1.6 l -0.1,-0.05 0.2,-0.3 q 1,-0.15 2.1,-1 1.25,-0.95 1.45,-2.2 l -0.05,-1.25 q 0,-0.75 -1,-1.5 0.15,-0.5 -0.05,-1.3 -0.15,-0.8 -0.65,-1.35 0.45,-0.85 0.7,-3.6 l -0.05,-0.95 m -0.55,0 -0.15,0.4 -0.4,1.75 m 0.55,-2.15 q 0.6,-1.55 0.2,-2.75 l -0.55,-1.15 m -9.2,27.7 q -0.8,1.2 -1.15,3.1 -0.45,2.3 -0.25,5.7 V 3.9 q 0.25,2 3.45,6.25 l 3.35,4.45 q 0.2,2.85 -3.75,6.25 -3.9,3.45 -3.65,7.15 l 0.5,3.95 0.7,3.65 h 0.2 l 1.85,0.6 q 0.85,0.35 1.75,0.9 l 0.65,0.5 q 1.05,0.7 1.8,1.4 l 0.8,-0.5 0.55,-0.2 v -0.45 -1 q 0.15,-1.2 0.8,-2.15 -1.05,-1.4 -1.2,-3.3 L -7.3,27.75 -5.55,25 q 1.3,-1.95 2.1,-3.8 1.8,-3.9 1.6,-7.3 Q -2,11.55 -2.4,10.6 L -4.3,7.2 -4.9,6.3 Q -5.4,5.45 -7.1,4.15 L -7.4,4 m 1.6,-6.15 q 0.4,-0.9 0.35,-2.25 -0.1,-1.1 -0.75,-2 m -6.05,49.15 -0.6,-0.1 m 5.25,-4.05 0.75,0.5 q 1.85,1.6 2.05,3.25 l 0.05,0.45 0.45,0.3 q 1.75,1.2 2.35,2.3 l 0.25,0.45 0.2,0.55 v 0.25 Q 0,47 1.7,47.8 L 2.55,47.45 3.85,46.4 4.1,46 Q 4.5,45.2 4.45,44.25 L 4.4,43.85 Q 4.25,42.4 3.9,41.75 l -0.05,-0.1 4.55,0.6 q 4.15,-0.85 6.15,3.45 l 0.55,1.4 q 0.6,1.65 0.65,3.2 v 0.55 q -0.05,1.5 -0.85,2.6 L 14.75,53.6 13.6,54.45 12.75,54.8 12.2,54.9 9.8,52.85 7.75,51.3 7.4,51.05 6.6,50.55 Q 4.05,48.8 1.7,47.8 M 3.85,41.65 Q 3.2,40.6 1.8,40.25 l 0.05,-0.2 0.05,-2.2 q -0.2,-2.75 -2,-4.25 -1.6,-1.3 -3.85,-1.15 -2.2,0.1 -3.7,1.5 L -8.3,34.7 m -8.4,0.9 -2.75,0.05 -1.6,0.15 q -12.45,4.9 -10.4,22.75 0.45,4.1 4.65,5.9 2.55,1.15 6.75,1.75 h 26.5 q 3.95,-1.05 6.3,-3.4 l 0.75,-0.9 q 1.1,-1.4 1.15,-2.7 v -0.65 l -0.6,-1.5 -0.7,-0.95 -0.9,-1 -0.25,-0.2 M -7.6,38.6 q -0.8,-0.4 -1.5,-0.3"
         fill="none"
         stroke="#6b6b6b"
         stroke-linecap="round"
         stroke-linejoin="round"
         stroke-width="1.5"
         id="path32" />
    </g>
    <g
       id="sprite6"
       transform="translate(5.4,4)">
      <use
         ffdec:characterId="43"
         height="8"
         transform="translate(-5.4,-4)"
         width="10.8"
         xlink:href="#shape5"
         id="use32" />
    </g>
    <g
       id="shape5"
       transform="translate(5.4,4)">
      <path
         d="m 2.9,-0.35 q 0,-1.25 1.25,-1.25 1.25,0 1.25,1.2 0,1.3 -1.25,1.3 Q 3.6,0.9 3.25,0.5 2.9,0.15 2.9,-0.35 m 0.35,-2.3 q 0,0.55 -0.35,0.9 -0.4,0.45 -1,0.45 -1.35,0 -1.35,-1.4 0,-1.3 1.35,-1.3 1.35,0 1.35,1.35 m -3.1,1.9 h 0.2 q 2.6,0.1 2.6,2.8 l -0.3,1 Q 2.05,4 0.45,4 H 0.35 0.15 0.1 -0.45 q -1.6,0 -2.2,-0.95 l -0.3,-1 q 0,-2.8 2.8,-2.8 h 0.3 M -1.55,-4 q 1.35,0 1.35,1.35 0,0.55 -0.4,0.9 -0.4,0.45 -0.95,0.45 -1.4,0 -1.4,-1.4 0,-1.3 1.4,-1.3 m -2.6,2.4 q 1.25,0 1.25,1.25 0,0.5 -0.35,0.85 -0.35,0.4 -0.9,0.4 -1.25,0 -1.25,-1.3 0,-1.2 1.25,-1.2"
         fill="#6b6b6b"
         fill-rule="evenodd"
         stroke="none"
         id="path33" />
    </g>
  </defs>
</svg>
