<?xml version="1.0" encoding="UTF-8" standalone="no"?>
<svg
   ffdec:objectType="frame"
   height="33.75"
   width="20.549999"
   version="1.1"
   id="svg3"
   sodipodi:docname="2.svg"
   xmlns:inkscape="http://www.inkscape.org/namespaces/inkscape"
   xmlns:sodipodi="http://sodipodi.sourceforge.net/DTD/sodipodi-0.dtd"
   xmlns:xlink="http://www.w3.org/1999/xlink"
   xmlns="http://www.w3.org/2000/svg"
   xmlns:svg="http://www.w3.org/2000/svg"
   xmlns:ffdec="https://www.free-decompiler.com/flash">
  <sodipodi:namedview
     id="namedview3"
     pagecolor="#ffffff"
     bordercolor="#000000"
     borderopacity="0.25"
     inkscape:showpageshadow="2"
     inkscape:pageopacity="0.0"
     inkscape:pagecheckerboard="0"
     inkscape:deskcolor="#d1d1d1"
     fit-margin-top="5"
     fit-margin-left="5"
     fit-margin-right="5"
     fit-margin-bottom="5" />
  <g
     transform="translate(10.35,19.4)"
     id="g1">
    <use
       ffdec:characterId="4213"
       height="33.75"
       transform="translate(-10.35,-19.4)"
       width="20.549999"
       xlink:href="#shape0"
       id="use1" />
  </g>
  <defs
     id="defs3">
    <g
       id="shape0"
       transform="translate(10.35,19.4)">
      <path
         d="m 7.2,-14.35 1.6,0.2 h 0.05 q 1.35,0 1.35,1.3 l -0.15,9.45 v 1 1.5 10.3 L 10,11.1 9.75,11.85 9.8,12.2 9.6,12.95 9.45,13.15 Q 9.35,14 8.9,14.35 H 7.45 Q 7.1,14.1 7.05,13.55 H -7.1 l -0.25,0.05 -0.3,0.75 h -1.6 l -0.75,-1.3 -0.25,-0.6 -0.1,-0.65 v -0.35 -24.4 q 0.5,-0.85 1.4,-0.8 l 0.35,0.05 5.15,-0.5 0.5,-0.1 v -0.05 h 0.2 l -0.3,-0.4 -0.75,-1.2 q 0,-1.3 1.5,-0.1 l 0.5,0.45 v -0.35 -0.2 l -0.45,-0.45 -0.15,-0.75 0.15,-1.15 q 0.4,-0.9 1.75,-0.9 2,0 1.85,1.7 l -0.45,1.1 -0.65,0.55 q 0.65,0.75 0.65,1.55 l 0.05,0.15 H 7.2 m 0,2.6 H 5.65 l -1.55,0.15 -5.75,0.1 H -2.1 -6.05 l -1.65,-0.1 v 2.1 l 1.4,-0.1 h 0.7 l -0.45,0.15 1.4,0.05 1.8,-0.05 0.45,0.3 q 0.3,0.4 0.3,0.8 l -0.3,0.7 -0.35,0.35 q 1.1,0.3 1.1,0.95 V -6.1 Q 2.4,-13.5 2.4,-9.5 L 0.7,-6 H 2.45 L 2.3,-6.6 v -1.35 q 0,-3 1.15,-2.95 1.1,0.05 1.1,2.95 l 0.1,0.5 V -7.8 q 0,-2.95 1.3,-2.95 1.25,0 1.25,3 V -6.15 -6 H 7.6 L 7.55,-11.8 7.2,-11.75 M 4.65,-6.5 4.55,-6 H 4.7 L 4.65,-6.25 V -6.5 m -3,6.2 L 1.5,1.3 H 1.75 L 1.7,0.6 q 0,-3.2 0.9,-3.15 0.7,0.05 0.85,1.95 0.1,-1.8 0.9,-1.8 0.85,0 0.9,2.05 0,-2.2 0.85,-2.1 0.8,0.1 0.8,2.2 V 0.8 L 6.8,1.2 h 0.55 0.3 v -2.1 -1.5 -1 -1.15 H -7.7 V 1.3 h 2.05 L -6.45,1 Q -6.8,0.8 -6.8,0.3 q 0,-2.65 2.1,-2.45 2.1,0.2 2.1,2.1 l -0.1,0.9 q -0.15,0.3 -0.6,0.45 h 3.2 q -0.25,-0.55 -0.05,-1.65 0,-2.3 0.9,-2.3 0.9,-0.05 0.9,2.35 M 5.3,5.3 5.4,6.6 5.35,8.3 7.65,8.5 V 2.85 L -7.7,2.95 V 8.2 l 5.4,0.05 V 7.05 L -2.15,5.2 -2.25,5.1 V 4.8 l 0.6,-0.6 H 3.6 Q 5.05,4.1 5.4,4.9 L 5.3,5.3 M 5.2,1.25 H 5.3 L 5.25,1.05 5.2,1.25 m -1.65,0 -0.05,-0.1 v 0.1 H 3.55 M 3.75,9.7 H -7.7 v 1.15 H 7.5 L 7.65,9.5 4.1,9.7 H 3.75 M 3.05,7.1 h -3.8 v 1 0.15 h 4.5 0.1 L 3.9,6.95 V 6.8 Q 3.55,7.2 3.05,7.1 m 0.9,-0.7 0.1,-0.95 -4.9,-0.05 0.1,0.75 h 3.8 L 3.95,6.4 M -7.7,-7.35 v 0.05 l 0.15,-0.05 H -7.7"
         fill="#6b6b6b"
         fill-rule="evenodd"
         stroke="none"
         id="path1" />
      <path
         d="m 4.65,-6.5 v 0.25 L 4.7,-6 H 4.55 l 0.1,-0.5 M 3.55,1.25 H 3.5 v -0.1 l 0.05,0.1 m 1.65,0 0.05,-0.2 0.05,0.2 H 5.2 m -12.9,-8.6 h 0.15 L -7.7,-7.3 V -7.35 M 3.95,6.4 3.05,6.15 h -3.8 L -0.85,5.4 4.05,5.45 3.95,6.4 M 3.05,7.1 Q 3.55,7.2 3.9,6.8 v 0.15 l -0.05,1.3 h -0.1 -4.5 V 8.1 7.1 h 3.8"
         fill="#cccccc"
         fill-rule="evenodd"
         stroke="none"
         id="path2" />
      <path
         d="M 7.2,-11.75 7.55,-11.8 7.6,-6 H 7.2 v -0.15 -1.6 q 0,-3 -1.25,-3 -1.3,0 -1.3,2.95 v 0.35 l -0.1,-0.5 q 0,-2.9 -1.1,-2.95 Q 2.3,-10.95 2.3,-7.95 V -6.6 L 2.45,-6 H 0.7 l 1.7,-3.5 q 0,-4 -4.05,3.4 v -0.25 q 0,-0.65 -1.1,-0.95 l 0.35,-0.35 0.3,-0.7 q 0,-0.4 -0.3,-0.8 l -0.45,-0.3 -1.8,0.05 -1.4,-0.05 0.45,-0.15 h -0.7 l -1.4,0.1 v -2.1 l 1.65,0.1 h 3.95 0.45 l 5.75,-0.1 1.55,-0.15 H 7.2 M 5.3,5.3 5.4,4.9 Q 5.05,4.1 3.6,4.2 h -5.25 l -0.6,0.6 v 0.3 l 0.1,0.1 -0.15,1.85 v 1.2 L -7.7,8.2 V 2.95 L 7.65,2.85 V 8.5 L 5.35,8.3 5.4,6.6 5.3,5.3 M 1.65,-0.3 q 0,-2.4 -0.9,-2.35 -0.9,0 -0.9,2.3 -0.2,1.1 0.05,1.65 h -3.2 q 0.45,-0.15 0.6,-0.45 l 0.1,-0.9 q 0,-1.9 -2.1,-2.1 -2.1,-0.2 -2.1,2.45 0,0.5 0.35,0.7 l 0.8,0.3 H -7.7 V -4.55 H 7.65 v 1.15 1 1.5 2.1 H 7.35 6.8 L 6.9,0.8 v -1.05 q 0,-2.1 -0.8,-2.2 -0.85,-0.1 -0.85,2.1 Q 5.2,-2.4 4.35,-2.4 3.55,-2.4 3.45,-0.6 3.3,-2.5 2.6,-2.55 1.7,-2.6 1.7,0.6 L 1.75,1.3 H 1.5 l 0.15,-1.6 m 2.1,10 H 4.1 L 7.65,9.5 7.5,10.85 H -7.7 V 9.7 H 3.75"
         fill="#c4bdb1"
         fill-rule="evenodd"
         stroke="none"
         id="path3" />
    </g>
  </defs>
</svg>
