<?xml version="1.0" encoding="UTF-8" standalone="no"?>
<svg
   ffdec:objectType="frame"
   height="24.657627"
   width="25"
   version="1.1"
   id="svg6"
   sodipodi:docname="2.svg"
   xmlns:inkscape="http://www.inkscape.org/namespaces/inkscape"
   xmlns:sodipodi="http://sodipodi.sourceforge.net/DTD/sodipodi-0.dtd"
   xmlns:xlink="http://www.w3.org/1999/xlink"
   xmlns="http://www.w3.org/2000/svg"
   xmlns:svg="http://www.w3.org/2000/svg"
   xmlns:ffdec="https://www.free-decompiler.com/flash">
  <sodipodi:namedview
     id="namedview6"
     pagecolor="#ffffff"
     bordercolor="#000000"
     borderopacity="0.25"
     inkscape:showpageshadow="2"
     inkscape:pageopacity="0.0"
     inkscape:pagecheckerboard="0"
     inkscape:deskcolor="#d1d1d1"
     fit-margin-top="5"
     fit-margin-left="5"
     fit-margin-right="5"
     fit-margin-bottom="5" />
  <g
     transform="translate(3.3,12.307627)"
     id="g2">
    <use
       ffdec:characterId="3811"
       height="24.65"
       transform="matrix(-1,0,0,1,21.7,-12.3)"
       width="25"
       xlink:href="#sprite0"
       id="use1" />
    <use
       ffdec:characterId="3500"
       height="8"
       transform="matrix(-0.6698,0.1896,-0.1896,-0.6698,13.9755,-5.4945)"
       width="10.8"
       xlink:href="#sprite1"
       id="use2" />
  </g>
  <defs
     id="defs6">
    <g
       id="sprite0"
       transform="translate(12.5,12.3)">
      <use
         ffdec:characterId="3809"
         height="24.65"
         transform="translate(-12.5,-12.3)"
         width="25"
         xlink:href="#shape0"
         id="use3" />
    </g>
    <g
       id="shape0"
       transform="translate(12.5,12.3)">
      <path
         d="M 2.6,-6.3 2.65,-5.85 2.6,-5.5 2,-5.35 q -0.35,0 -0.5,-0.25 L 1.45,-5.9 1.55,-6.3 H 2.6 m -0.7,5.5 q 0.4,0.05 0.4,1.2 0,0.9 -0.55,1.7 -0.85,1.1 -2.4,1.1 -1.7,0 -2.45,-1.25 L -3.55,0.5 v -0.9 l 0.1,-0.45 q 0.3,-0.35 1.7,-0.45 L 1.3,-1.35 q 0.6,0.05 0.6,0.5 V -0.8 M 3.45,-1.25 3.2,-2.2 q 0,-1.75 1.75,-1.75 1.7,0 1.7,1.75 L 6.3,-1.15 q -0.45,0.7 -1.4,0.7 -1.05,0 -1.45,-0.8 m 5.15,-8.4 q 3.9,3.1 3.9,8.5 0,4 -1.75,7.5 -2.9,6 -9.7,6 -8.65,0 -11.85,-5.45 -1.7,-2.8 -1.7,-6.75 0,-5.8 3.9,-9.25 3.5,-3.05 8.6,-3.2 5.05,-0.15 8.6,2.65 m -8.55,0.5 q -3.75,-0.15 -6.3,1.95 -2.85,2.4 -2.85,6.9 0,9.2 10.15,9.2 5.1,0 7.1,-4.75 Q 9.2,1.75 9.2,-1.05 9.2,-4.55 6.35,-6.9 3.7,-9 0.05,-9.15 m 7.2,11.1 Q 6.8,1.95 6.6,1.65 L 6.55,1.35 q 0,-0.7 0.7,-0.7 0.65,0 0.65,0.65 0,0.65 -0.65,0.65 M 4.2,4.85 Q 4.9,4.8 4.9,5.45 4.9,6.2 4.25,6.2 3.5,6.2 3.5,5.45 q 0,-0.5 0.7,-0.6 m -3.25,-5 -3.25,0.2 0.2,0.5 L -2.05,0.6 1,0.45 0.95,-0.15 m -5.7,-0.35 q -0.5,0.8 -1.5,0.8 -1.05,0 -1.5,-0.9 L -8,-1.55 q 0,-1.75 1.8,-1.75 1.8,0 1.8,1.8 0,0.5 -0.35,1"
         fill="#6b6b6b"
         fill-rule="evenodd"
         stroke="none"
         id="path3" />
      <path
         d="M 0.95,-0.15 1,0.45 -2.05,0.6 -2.1,0.55 -2.3,0.05 0.95,-0.15"
         fill="#cdcdcd"
         fill-rule="evenodd"
         stroke="none"
         id="path4" />
      <path
         d="m 3.45,-1.25 q 0.4,0.8 1.45,0.8 0.95,0 1.4,-0.7 L 6.65,-2.2 q 0,-1.75 -1.7,-1.75 -1.75,0 -1.75,1.75 l 0.25,0.95 M 1.9,-0.8 v -0.05 q 0,-0.45 -0.6,-0.5 l -3.05,0.05 q -1.4,0.1 -1.7,0.45 l -0.1,0.45 V 0.5 L -3.1,1.95 Q -2.35,3.2 -0.65,3.2 0.9,3.2 1.75,2.1 2.3,1.3 2.3,0.4 2.3,-0.75 1.9,-0.8 M 2.6,-6.3 H 1.55 l -0.1,0.4 0.05,0.3 Q 1.65,-5.35 2,-5.35 L 2.6,-5.5 2.65,-5.85 2.6,-6.3 M 4.2,4.85 Q 3.5,4.95 3.5,5.45 3.5,6.2 4.25,6.2 4.9,6.2 4.9,5.45 4.9,4.8 4.2,4.85 m 3.05,-2.9 q 0.65,0 0.65,-0.65 0,-0.65 -0.65,-0.65 -0.7,0 -0.7,0.7 l 0.05,0.3 q 0.2,0.3 0.65,0.3 m -7.2,-11.1 q 3.65,0.15 6.3,2.25 2.85,2.35 2.85,5.85 0,2.8 -1.05,5.2 -2,4.75 -7.1,4.75 -10.15,0 -10.15,-9.2 0,-4.5 2.85,-6.9 2.55,-2.1 6.3,-1.95 m -4.8,8.65 q 0.35,-0.5 0.35,-1 0,-1.8 -1.8,-1.8 -1.8,0 -1.8,1.75 l 0.25,0.95 q 0.45,0.9 1.5,0.9 1,0 1.5,-0.8"
         fill="#c6a786"
         fill-rule="evenodd"
         stroke="none"
         id="path5" />
    </g>
    <g
       id="sprite1"
       transform="translate(5.4,4)">
      <use
         ffdec:characterId="43"
         height="8"
         transform="translate(-5.4,-4)"
         width="10.8"
         xlink:href="#shape1"
         id="use5" />
    </g>
    <g
       id="shape1"
       transform="translate(5.4,4)">
      <path
         d="m 2.9,-0.35 q 0,-1.25 1.25,-1.25 1.25,0 1.25,1.2 0,1.3 -1.25,1.3 Q 3.6,0.9 3.25,0.5 2.9,0.15 2.9,-0.35 m 0.35,-2.3 q 0,0.55 -0.35,0.9 -0.4,0.45 -1,0.45 -1.35,0 -1.35,-1.4 0,-1.3 1.35,-1.3 1.35,0 1.35,1.35 m -3.1,1.9 h 0.2 q 2.6,0.1 2.6,2.8 l -0.3,1 Q 2.05,4 0.45,4 H 0.35 0.15 0.1 -0.45 q -1.6,0 -2.2,-0.95 l -0.3,-1 q 0,-2.8 2.8,-2.8 h 0.3 M -1.55,-4 q 1.35,0 1.35,1.35 0,0.55 -0.4,0.9 -0.4,0.45 -0.95,0.45 -1.4,0 -1.4,-1.4 0,-1.3 1.4,-1.3 m -2.6,2.4 q 1.25,0 1.25,1.25 0,0.5 -0.35,0.85 -0.35,0.4 -0.9,0.4 -1.25,0 -1.25,-1.3 0,-1.2 1.25,-1.2"
         fill="#6b6b6b"
         fill-rule="evenodd"
         stroke="none"
         id="path6" />
    </g>
  </defs>
</svg>
