<?xml version="1.0" encoding="UTF-8" standalone="no"?>
<svg
   ffdec:objectType="frame"
   height="48.993084"
   width="29.4"
   version="1.1"
   id="svg16"
   sodipodi:docname="2.svg"
   xmlns:inkscape="http://www.inkscape.org/namespaces/inkscape"
   xmlns:sodipodi="http://sodipodi.sourceforge.net/DTD/sodipodi-0.dtd"
   xmlns:xlink="http://www.w3.org/1999/xlink"
   xmlns="http://www.w3.org/2000/svg"
   xmlns:svg="http://www.w3.org/2000/svg"
   xmlns:ffdec="https://www.free-decompiler.com/flash">
  <sodipodi:namedview
     id="namedview16"
     pagecolor="#ffffff"
     bordercolor="#000000"
     borderopacity="0.25"
     inkscape:showpageshadow="2"
     inkscape:pageopacity="0.0"
     inkscape:pagecheckerboard="0"
     inkscape:deskcolor="#d1d1d1"
     fit-margin-top="5"
     fit-margin-left="5"
     fit-margin-right="5"
     fit-margin-bottom="5" />
  <g
     transform="translate(14.7,24.490909)"
     id="g4">
    <use
       ffdec:characterId="3767"
       height="27.5"
       transform="matrix(0.6923,0,0,0.6923,-5.3731,4.2616)"
       width="17.1"
       xlink:href="#sprite0"
       id="use1" />
    <use
       ffdec:characterId="3790"
       height="10.05"
       transform="translate(-12.35,12.45)"
       width="24.700001"
       xlink:href="#sprite3"
       id="use2" />
    <use
       ffdec:characterId="3791"
       height="49"
       transform="translate(-14.7,-24.5)"
       width="29.4"
       xlink:href="#shape2"
       id="use3" />
    <use
       ffdec:characterId="3500"
       height="8"
       transform="matrix(0.5158,0.6307,-0.6307,0.5158,-2.8124,-22.3692)"
       width="10.8"
       xlink:href="#sprite5"
       id="use4" />
  </g>
  <defs
     id="defs16">
    <g
       id="sprite0"
       transform="translate(5.45,22.95)">
      <use
         ffdec:characterId="3766"
         height="27.5"
         transform="translate(-5.45,-22.95)"
         width="17.1"
         xlink:href="#sprite1"
         id="use5" />
    </g>
    <g
       id="sprite1"
       transform="translate(5.45,22.95)">
      <use
         ffdec:characterId="3765"
         height="5.25"
         transform="scale(0.7692)"
         width="5.0999999"
         xlink:href="#sprite2"
         id="use6" />
    </g>
    <g
       id="sprite2">
      <use
         ffdec:characterId="1852"
         height="5.25"
         width="5.0999999"
         xlink:href="#shape0"
         id="use7" />
    </g>
    <g
       id="shape0">
      <path
         d="M 3.4,1.1 2.1,1.2 1.55,2.05 Q 1.15,2.7 1.3,3.1 1.4,3.45 2.2,4 3,4.55 3.5,4.3 3.95,4.05 4.25,2.6 4.25,1.35 3.4,1.1 M 0.35,4.2 Q 0,3.6 0,2.9 0,0.55 2.55,0.1 5.1,-0.35 5.1,1.55 5.1,5.25 2.6,5.25 1,5.25 0.35,4.2"
         fill="#ffffff"
         fill-rule="evenodd"
         stroke="none"
         id="path7" />
    </g>
    <g
       id="sprite3"
       transform="translate(12.35,5)">
      <use
         ffdec:characterId="3789"
         height="10.05"
         transform="translate(-12.35,-5)"
         width="24.700001"
         xlink:href="#sprite4"
         id="use8" />
    </g>
    <g
       id="sprite4"
       transform="translate(12.35,5)">
      <use
         ffdec:characterId="3788"
         height="10.05"
         transform="translate(-12.35,-5)"
         width="24.700001"
         xlink:href="#shape1"
         id="use9" />
    </g>
    <g
       id="shape1"
       transform="translate(12.35,5)">
      <path
         d="m -9.5,-2.5 5.15,-0.25 8.1,-0.1 h 3 l 0.05,-0.05 2.65,0.1 0.3,0.7 V -2 l 0.6,1.25 0.35,0.8 L 10.95,0.7 11,0.75 11.7,2.25 9.5,2.5 -5.7,2.4 -6,2.35 h -3.85 l -1.8,-0.2 0.65,-1.4 0.3,-0.6 V 0.1 l 0.25,-0.6 0.2,-0.4 0.35,-0.8 0.15,-0.3 0.25,-0.5"
         fill="#8fb18f"
         fill-rule="evenodd"
         stroke="none"
         id="path9" />
      <path
         d="M 9.45,-2.8 6.8,-2.9 6.75,-2.85 h -3 l -8.1,0.1 -5.15,0.25 0.4,-0.95 0.2,-0.45 q 1.65,-0.65 4.6,-0.95 h 0.2 l 0.55,-0.05 v 0.05 L -0.5,-5 Q 6.8,-5.05 9,-3.75 l 0.45,0.95 m -21.1,4.95 1.8,0.2 H -6 l 0.3,0.05 15.2,0.1 2.2,-0.25 0.5,1.05 0.1,1 Q 12.25,5 11.65,5.05 h -23.3 Q -12.25,5 -12.3,4.3 l 0.1,-1 0.55,-1.15"
         fill="#5f815f"
         fill-opacity="0.501961"
         fill-rule="evenodd"
         stroke="none"
         id="path10" />
    </g>
    <g
       id="shape2"
       transform="translate(14.7,24.5)">
      <path
         d="m 5.95,-20 0.6,-1.25 0.4,-0.95 -6.85,-0.05 h -0.2 -0.35 l -6.85,0.05 0.45,0.95 0.55,1.25 2.45,5.05 2.45,5.4 H 1.05 L 3.5,-14.95 5.95,-20 M 9.3,-21.25 8.7,-20 6.55,-15.75 3,-9.55 h 0.85 q 0.8,0.5 0.8,1.5 0,1 -1.1,1 h -0.1 l 0.1,0.95 0.05,0.7 v 0.95 l 0.15,0.95 0.3,1 L 5.6,1.05 7.35,4.6 8.1,6 l 3.55,7.6 q 3.05,6.9 3.05,8.3 v 0.25 q -0.05,0.95 -0.3,1.3 -0.9,1.1 -4.4,1.05 h -20 q -3.5,0.05 -4.4,-1.05 -0.25,-0.35 -0.3,-1.3 V 21.9 q 0,-1.4 3.05,-8.3 L -8.1,6 -7.35,4.6 -5.6,1.05 l 1.55,-3.55 0.3,-1 0.15,-0.95 V -5.4 l 0.05,-0.7 0.1,-0.95 h -0.1 q -1.1,0 -1.1,-1 0,-1 0.8,-1.5 h 0.55 q -1.35,-1.8 -3.6,-6.2 L -9,-20 l -0.6,-1.25 -0.9,-2.15 q 0,-0.5 0.4,-0.8 0.5,-0.4 1.4,-0.25 h 4.95 3.3 0.55 3.3 4.95 l 1.4,0.25 q 0.4,0.3 0.4,0.8 L 9.3,-21.25 M 1.35,-5.3 1.4,-5.85 H 1.35 q 0,-0.85 0.15,-1.4 L 0.65,-7.2 H 0.45 0.2 0.1 -0.45 -0.65 l -0.85,-0.05 0.15,1.4 v 0.2 0.1 0.15 l 0.05,0.5 q 0,1.85 -0.45,3.1 -0.35,0.85 -1.05,1.95 L -3.7,2.3 -4,2.95 -4.05,3.15 -5.2,5.7 -5.55,6.5 -6.6,8.75 -6.95,9.5 l -0.4,0.75 -0.45,1 -0.35,0.75 -0.75,1.55 -0.2,0.45 -0.4,0.95 -0.25,0.5 -0.15,0.3 -0.35,0.8 -0.2,0.4 -0.25,0.6 v 0.05 l -0.3,0.6 -0.65,1.4 -0.55,1.15 -0.1,1 q 0.05,0.7 0.65,0.75 h 23.3 q 0.6,-0.05 0.65,-0.75 l -0.1,-1 L 11.7,19.7 11,18.2 10.95,18.15 10.7,17.5 10.35,16.7 9.75,15.45 v -0.1 L 9.45,14.65 9,13.7 7.35,10.25 4.05,3 4,2.95 3.75,2.3 2.8,0.15 Q 2.1,-0.95 1.75,-1.8 1.3,-3.05 1.3,-4.9 l 0.05,-0.4"
         fill="#6b6b6b"
         fill-rule="evenodd"
         stroke="none"
         id="path11" />
      <path
         d="m 5.95,-20 -2.45,5.05 -2.45,5.4 H -1.4 l -2.45,-5.4 -2.45,-5.05 -0.55,-1.25 -0.45,-0.95 6.85,-0.05 h 0.35 0.2 l 6.85,0.05 -0.4,0.95 -0.6,1.25"
         fill="#c2c2c2"
         fill-opacity="0.901961"
         fill-rule="evenodd"
         stroke="none"
         id="path12" />
      <path
         d="m -1.35,-5.4 v -0.15 -0.1 -0.2 l -0.15,-1.4 0.85,0.05 h 0.2 0.55 0.1 0.25 0.2 L 1.5,-7.25 Q 1.35,-6.7 1.35,-5.85 H 1.4 L 1.35,-5.3 1.2,-5.25 H -1.05 L -1.3,-5.35 -1.35,-5.4 M 3.75,2.3 4,2.95 4.05,3 -4.05,3.15 -4,2.95 -3.7,2.3 H 3.75 M -8.15,12 -7.8,11.25 h 0.6 l 3.35,0.05 0.1,0.65 -4.4,0.05 M -6.95,9.5 -6.6,8.75 -3.75,8.7 -3.6,8.85 -3.7,9.45 -6.95,9.5 m 1.4,-3 0.35,-0.8 2.1,-0.1 0.4,0.3 -0.2,0.6 h -1.6 -1.05"
         fill="#b8b8b8"
         fill-rule="evenodd"
         stroke="none"
         id="path13" />
      <path
         d="M 1.35,-5.3 1.3,-4.9 q 0,1.85 0.45,3.1 0.35,0.85 1.05,1.95 L 3.75,2.3 H -3.7 l 0.9,-2.15 q 0.7,-1.1 1.05,-1.95 0.45,-1.25 0.45,-3.1 l -0.05,-0.5 0.05,0.05 0.25,0.1 H 1.2 L 1.35,-5.3 M 4.05,3 7.35,10.25 9,13.7 Q 6.8,12.4 -0.5,12.45 L -2,12.5 -1.3,9.6 Q -0.7,8.25 -0.25,5.1 -0.25,3.95 -0.8,3.8 -1.1,2.4 -2.25,4.9 L -2.7,5.9 -3.1,5.6 -5.2,5.7 -4.05,3.15 4.05,3 M -8.9,13.55 -8.15,12 l 4.4,-0.05 0.1,0.35 0.1,0.25 q -3.5,0.25 -5.35,1 m 1.1,-2.3 0.45,-1 0.4,-0.75 3.25,-0.05 -0.15,1.85 -3.35,-0.05 h -0.6 m 1.2,-2.5 1.05,-2.25 h 1.05 1.6 L -3.6,8.85 -3.75,8.7 -6.6,8.75 m 6.9,-7.7 0.3,-1 Q 0.6,-0.75 0,-0.7 l -0.55,-0.45 q -0.7,-0.1 -0.75,1.05 l -0.3,1 0.1,0.45 q 0.25,0.45 0.9,0.45 0.5,0 0.9,-0.75"
         fill="#e2e2e2"
         fill-opacity="0.301961"
         fill-rule="evenodd"
         stroke="none"
         id="path14" />
      <path
         d="M 0.3,1.05 Q -0.1,1.8 -0.6,1.8 -1.25,1.8 -1.5,1.35 l -0.1,-0.45 0.3,-1 q 0.05,-1.15 0.75,-1.05 L 0,-0.7 q 0.6,-0.05 0.6,0.75 l -0.3,1 m -3,4.85 0.45,-1 Q -1.1,2.4 -0.8,3.8 -0.25,3.95 -0.25,5.1 -0.7,8.25 -1.3,9.6 L -2,12.5 q -0.35,0.75 -0.7,0.75 -0.5,0 -0.85,-0.7 l -0.1,-0.25 -0.1,-0.35 -0.1,-0.65 0.15,-1.85 0.1,-0.6 0.7,-2.35 0.2,-0.6"
         fill="#ffffff"
         fill-rule="evenodd"
         stroke="none"
         id="path15" />
    </g>
    <g
       id="sprite5"
       transform="translate(5.4,4)">
      <use
         ffdec:characterId="43"
         height="8"
         transform="translate(-5.4,-4)"
         width="10.8"
         xlink:href="#shape3"
         id="use15" />
    </g>
    <g
       id="shape3"
       transform="translate(5.4,4)">
      <path
         d="m 2.9,-0.35 q 0,-1.25 1.25,-1.25 1.25,0 1.25,1.2 0,1.3 -1.25,1.3 Q 3.6,0.9 3.25,0.5 2.9,0.15 2.9,-0.35 m 0.35,-2.3 q 0,0.55 -0.35,0.9 -0.4,0.45 -1,0.45 -1.35,0 -1.35,-1.4 0,-1.3 1.35,-1.3 1.35,0 1.35,1.35 m -3.1,1.9 h 0.2 q 2.6,0.1 2.6,2.8 l -0.3,1 Q 2.05,4 0.45,4 H 0.35 0.15 0.1 -0.45 q -1.6,0 -2.2,-0.95 l -0.3,-1 q 0,-2.8 2.8,-2.8 h 0.3 M -1.55,-4 q 1.35,0 1.35,1.35 0,0.55 -0.4,0.9 -0.4,0.45 -0.95,0.45 -1.4,0 -1.4,-1.4 0,-1.3 1.4,-1.3 m -2.6,2.4 q 1.25,0 1.25,1.25 0,0.5 -0.35,0.85 -0.35,0.4 -0.9,0.4 -1.25,0 -1.25,-1.3 0,-1.2 1.25,-1.2"
         fill="#6b6b6b"
         fill-opacity="0.447059"
         fill-rule="evenodd"
         stroke="none"
         id="path16" />
    </g>
  </defs>
</svg>
