<?xml version="1.0" encoding="UTF-8" standalone="no"?>
<svg
   ffdec:objectType="frame"
   height="79.300003"
   width="127.85"
   version="1.1"
   id="svg6"
   sodipodi:docname="1.svg"
   xmlns:inkscape="http://www.inkscape.org/namespaces/inkscape"
   xmlns:sodipodi="http://sodipodi.sourceforge.net/DTD/sodipodi-0.dtd"
   xmlns:xlink="http://www.w3.org/1999/xlink"
   xmlns="http://www.w3.org/2000/svg"
   xmlns:svg="http://www.w3.org/2000/svg"
   xmlns:ffdec="https://www.free-decompiler.com/flash">
  <sodipodi:namedview
     id="namedview6"
     pagecolor="#ffffff"
     bordercolor="#000000"
     borderopacity="0.25"
     inkscape:showpageshadow="2"
     inkscape:pageopacity="0.0"
     inkscape:pagecheckerboard="0"
     inkscape:deskcolor="#d1d1d1"
     fit-margin-top="5"
     fit-margin-left="5"
     fit-margin-right="5"
     fit-margin-bottom="5" />
  <g
     transform="translate(63.9,39.7)"
     id="g1">
    <use
       ffdec:characterId="2688"
       height="79.300003"
       transform="translate(-63.9,-39.7)"
       width="127.85"
       xlink:href="#shape0"
       id="use1" />
    <use
       ffdec:characterId="69"
       height="1.5"
       id="subplatform1"
       transform="matrix(0.0936,0,0.317,0.86,-61.7961,-5.78)"
       width="1320.3"
       xlink:href="#sprite0" />
  </g>
  <defs
     id="defs6">
    <g
       id="shape0"
       transform="translate(63.9,39.7)">
      <path
         d="m 6.2,-26.4 0.15,0.85 -0.1,3.2 -0.2,1.5 0.1,0.45 q 0,1.2 -2,1.2 l -9,-0.45 q -0.35,-0.1 -0.35,-0.8 l -0.25,-1.15 v -1.65 l 0.2,-2.65 -0.15,-0.65 0.15,-0.6 q 0.3,-0.6 1.15,-0.5 h 9.2 l 1.1,1.15 v 0.1 m -2.15,4.75 -0.1,-0.85 -0.05,-2.95 h -7.3 l 0.1,2.2 v 1.8 l 6.7,-0.25 0.65,0.05 M -53.6,35.8 v -0.9 l 0.2,-24.85 q 1.55,-0.1 1.9,-3.25 0.2,-1.65 0,-3.5 l -0.1,-3.1 -0.2,-1.9 2.15,0.15 3.1,-0.05 96.2,-0.1 1.95,0.05 0.05,0.45 v 1.65 h -0.4 -35.2 L 16.25,3.3 16,11.1 q 0.25,5.05 0.1,15.55 v 5.95 l -0.3,2.85 h -3.3 q -0.35,-1.8 -0.5,-5 v -7.3 q 0,-8.95 0.25,-16 L 12.3,5.9 12.4,3.95 v -1.1 q 0,-1.3 0.15,-2.4 L -43,0.4 l -6.65,-0.05 -0.6,6.3 0.25,28.2 v 0.65 l -3.6,0.3 m 106,-61.8 2.45,-0.05 -0.2,4.35 v 3.65 l 0.15,1.25 -4.85,-2.05 0.25,-1.25 v -2.75 l -0.1,-3.2 2.3,0.05 m -74.6,37.45 -0.2,1.5 0.1,0.45 q 0,1.2 -2,1.2 l -9,-0.45 q -0.35,-0.1 -0.35,-0.8 L -33.9,12.2 v -1.65 l 0.2,-2.65 -0.15,-0.65 0.15,-0.6 q 0.3,-0.6 1.15,-0.5 h 9.2 q 1.1,0.8 1.1,1.15 v 0.1 q 0.15,0.3 0.15,0.85 l -0.1,3.2 m -2.35,-3.1 h -7.3 l 0.1,2.2 v 1.8 l 6.7,-0.25 0.65,0.05 -0.1,-0.85 -0.05,-2.95"
         fill="#9f9f9f"
         fill-rule="evenodd"
         stroke="none"
         id="path1" />
      <path
         d="m 44.4,-5.6 3.65,-0.05 q 2.95,-0.2 4.9,0 l 1.1,0.1 -9.65,-0.05 m 9.95,0.1 h 6.7 l 0.1,-1.65 q 0,-2.6 0.3,-4.05 -1.6,-0.5 -6.75,-2.7 l -8.45,-3.7 -16.4,-6.25 Q 6.85,-33.2 0,-36.65 q -6.85,3.5 -29.8,12.8 l -16.4,6.25 -8.45,3.7 q -5.15,2.2 -6.75,2.7 0.3,1.45 0.3,4.05 l 0.1,1.65 h 9.2 106.15 m -105.8,-0.05 1.05,-0.1 q 1.9,-0.2 4.85,0 l 3.75,0.05 -9.65,0.05 m -1.95,15.6 h -0.1 q -0.95,0 -1.45,-1 V -2 h -7.55 q -0.95,0 -1.4,-0.7 v -9.1 l 0.25,-0.6 -0.05,-0.15 0.35,-0.65 L 0,-39.7 47.1,-20 47.05,-20.3 v -2.55 q 0,-2.5 0.25,-4.05 -0.15,-0.25 -0.15,-0.75 0,-0.95 0.6,-1.15 h 0.05 l 0.2,-0.3 h 1.25 l 0.05,0.05 0.75,-0.05 h 4.3 l 1.6,0.2 0.25,-0.1 0.55,0.3 0.25,0.1 q 0.4,0.25 0.4,1 l -0.05,0.55 q 0.35,1.8 0.35,5.4 v 3.85 l -0.35,2.1 6.1,2.55 0.3,0.6 -0.05,0.15 0.25,0.6 v 9.1 Q 63.5,-2 62.55,-2 h -6.1 v 0.25 h -1 v 39.2 q -0.4,1.25 -1.3,1.5 -0.55,0.55 -1.6,0.65 l -99.4,-0.1 q -5.95,0.35 -7.75,-0.65 l -0.35,-0.25 v -2.15 l 0.5,-0.4 0.85,-0.25 3.6,-0.3 h 3.15 L 12.5,35.45 h 3.3 l 35.65,-0.05 -0.1,-1.3 q 0,-2.65 0.3,-6.95 V 0.45 -1.2 l -0.05,-0.45 -1.95,-0.05 -96.2,0.1 -3.1,0.05 -2.15,-0.15 0.2,1.9 0.1,3.1 q 0.2,1.85 0,3.5 -0.35,3.15 -1.9,3.25 M 52.4,-26 l -2.3,-0.05 0.1,3.2 v 2.75 l -0.25,1.25 4.85,2.05 -0.15,-1.25 v -3.65 l 0.2,-4.35 -2.45,0.05"
         fill="#6b6b6b"
         fill-rule="evenodd"
         stroke="none"
         id="path2" />
      <path
         d="m 6.2,-26.4 v -0.1 l -1.1,-1.15 h -9.2 q -0.85,-0.1 -1.15,0.5 l -0.15,0.6 0.15,0.65 -0.2,2.65 v 1.65 l 0.25,1.15 q 0,0.7 0.35,0.8 l 9,0.45 q 2,0 2,-1.2 l -0.1,-0.45 0.2,-1.5 0.1,-3.2 L 6.2,-26.4 M 44.4,-5.6 8,-5.55 H 1.25 l -41.8,-0.05 h -1.25 l -3.75,-0.05 q -2.95,-0.2 -4.85,0 l -1.05,0.1 -0.35,0.05 H -61 l -0.1,-1.65 q 0,-2.6 -0.3,-4.05 1.6,-0.5 6.75,-2.7 l 8.45,-3.7 16.4,-6.25 q 22.95,-9.3 29.8,-12.8 6.85,3.45 29.85,12.8 l 16.4,6.25 8.45,3.7 q 5.15,2.2 6.75,2.7 -0.3,1.45 -0.3,4.05 l -0.1,1.65 h -6.7 l -0.3,-0.05 -1.1,-0.1 q -1.95,-0.2 -4.9,0 L 44.4,-5.6"
         fill="#bdbdbd"
         fill-rule="evenodd"
         stroke="none"
         id="path3" />
      <path
         d="m 51.65,0.45 v 26.7 q -0.3,4.3 -0.3,6.95 l 0.1,1.3 -35.65,0.05 0.3,-2.85 V 26.65 Q 16.25,16.15 16,11.1 l 0.25,-7.8 -0.2,-2.85 h 35.2 0.4 m -39.15,35 -59.35,0.05 H -50 v -0.65 l -0.25,-28.2 0.6,-6.3 6.65,0.05 55.55,0.05 q -0.15,1.1 -0.15,2.4 v 1.1 L 12.3,5.9 12.25,7.15 Q 12,14.2 12,23.15 v 7.3 q 0.15,3.2 0.5,5 m -34.7,-24 0.1,-3.2 q 0,-0.55 -0.15,-0.85 V 7.3 q 0,-0.35 -1.1,-1.15 h -9.2 q -0.85,-0.1 -1.15,0.5 l -0.15,0.6 0.15,0.65 -0.2,2.65 v 1.65 l 0.25,1.15 q 0,0.7 0.35,0.8 l 9,0.45 q 2,0 2,-1.2 l -0.1,-0.45 0.2,-1.5"
         fill="#d0d0d0"
         fill-rule="evenodd"
         stroke="none"
         id="path4" />
      <path
         d="m 54.35,-5.5 h 6.7 l 0.1,-1.65 q 0,-2.6 0.3,-4.05 -1.6,-0.5 -6.75,-2.7 l -8.45,-3.7 -16.4,-6.25 Q 6.85,-33.2 0,-36.65 q -6.85,3.5 -29.8,12.8 l -16.4,6.25 -8.45,3.7 q -5.15,2.2 -6.75,2.7 0.3,1.45 0.3,4.05 l 0.1,1.65 h 9.2 z"
         fill="none"
         stroke="#6b6b6b"
         stroke-linecap="round"
         stroke-linejoin="round"
         stroke-width="1"
         id="path5" />
    </g>
    <g
       id="sprite0"
       transform="translate(660.25,0.5)">
      <use
         ffdec:characterId="68"
         height="1.5"
         transform="translate(-660.25,-0.5)"
         width="1320.3"
         xlink:href="#shape1"
         id="use5" />
    </g>
    <g
       id="shape1"
       transform="translate(660.25,0.5)">
      <path
         d="m 659.3,-0.5 0.55,0.25 0.2,0.5 -0.2,0.55 L 659.3,1 H -659.5 l -0.5,-0.2 -0.25,-0.55 0.25,-0.5 0.5,-0.25 H 659.3"
         fill="#ffff00"
         fill-opacity="0"
         fill-rule="evenodd"
         stroke="none"
         id="path6" />
    </g>
  </defs>
</svg>
