<?xml version="1.0" encoding="UTF-8" standalone="no"?>
<svg
   ffdec:objectType="frame"
   height="70.349998"
   width="213.39999"
   version="1.1"
   id="svg4"
   sodipodi:docname="1.svg"
   xmlns:inkscape="http://www.inkscape.org/namespaces/inkscape"
   xmlns:sodipodi="http://sodipodi.sourceforge.net/DTD/sodipodi-0.dtd"
   xmlns:xlink="http://www.w3.org/1999/xlink"
   xmlns="http://www.w3.org/2000/svg"
   xmlns:svg="http://www.w3.org/2000/svg"
   xmlns:ffdec="https://www.free-decompiler.com/flash">
  <sodipodi:namedview
     id="namedview4"
     pagecolor="#ffffff"
     bordercolor="#000000"
     borderopacity="0.25"
     inkscape:showpageshadow="2"
     inkscape:pageopacity="0.0"
     inkscape:pagecheckerboard="0"
     inkscape:deskcolor="#d1d1d1"
     fit-margin-top="5"
     fit-margin-left="5"
     fit-margin-right="5"
     fit-margin-bottom="5" />
  <g
     transform="translate(106.45,36.2)"
     id="g1">
    <use
       ffdec:characterId="1376"
       height="70.349998"
       transform="translate(-106.45,-36.2)"
       width="213.39999"
       xlink:href="#shape0"
       id="use1" />
  </g>
  <defs
     id="defs4">
    <g
       id="shape0"
       transform="translate(106.45,36.2)">
      <path
         d="m 20.45,-27.85 h 6.65 q 0.6,0.05 0.95,0.5 l 0.25,0.65 -0.1,0.4 0.25,1.3 v 3.25 q 0.85,0.3 0.95,3.95 v 0.75 l 0.15,1.3 -0.15,0.85 q -0.1,1.5 -0.55,1.95 -0.2,0.15 -0.4,0.2 v 0.25 h 0.8 l 0.15,0.5 v 0.1 l -0.3,0.65 q -0.35,0.45 -0.9,0.5 h -52.65 -1.05 l -0.4,-0.05 -1.55,0.2 q -1.15,0 -1.4,-0.55 l -0.05,-0.25 -0.25,-0.6 0.15,-0.5 h 0.15 v -0.25 q -0.8,-0.1 -0.95,-2.15 v -2.15 q 0,-4.35 0.95,-4.7 V -25 l 0.25,-1.3 -0.1,-0.4 0.25,-0.65 q 0.35,-0.45 0.95,-0.5 h 6.65 v -0.05 l 1.25,0.05 h 0.4 4.95 4.95 0.45 l 1.2,-0.05 v 0.05 H -1 l 0.8,0.35 0.8,-0.35 h 6.65 v -0.05 l 1.2,0.05 h 0.45 4.95 4.95 0.4 l 1.25,-0.05 v 0.05 m 5.65,2.6 0.1,-0.45 -0.1,0.05 -5,0.2 H 6.6 L 3.3,-25.55 2.55,-25.6 1.65,-25.65 1.5,-25.7 1.6,-25.25 1.55,-12.5 H 3.7 3.9 l -0.05,-0.15 -0.05,-0.6 v -0.05 l 21,0.05 v 0.35 l -0.05,0.4 h 0.2 1.2 L 26.1,-23.55 v -1.7 m 79.15,-7.25 v -0.25 -0.7 l 0.05,-0.8 h -209.95 -0.05 l 0.05,0.35 v 0.45 l 0.05,0.55 -0.05,0.9 h 209.9 v -0.5 m -67.6,-3.65 h 64.05 l 5.05,0.3 0.2,0.15 v 5.85 q -0.5,0.4 -1.25,0.25 H 105 v 23.25 3.55 l 0.35,29.75 v 3.9 l -0.25,1.9 0.1,0.4 -0.25,0.8 -0.25,0.2 H 97.6 L 97.2,33.5 96.05,32.2 q -1.75,-1.95 -4.3,-1.95 -1.25,0 -2.65,1.75 l -1.65,2.15 H 86.1 L 85.7,33.5 84.55,32.2 Q 82.8,30.25 80.25,30.25 79,30.25 77.6,32 l -1.5,2.15 H 74.85 L 74.45,33.5 73.3,32.2 q -1.6,-1.8 -3.85,-1.95 h -0.1 q -2.3,0.15 -3.9,1.95 l -1.15,1.3 -0.4,0.65 H 62.65 L 61.15,32 q -1.4,-1.75 -2.65,-1.75 -2.55,0 -4.3,1.95 l -1.15,1.3 -0.4,0.65 h -1.3 L 49.65,32 q -1.4,-1.75 -2.65,-1.75 -2.55,0 -4.3,1.95 l -1.15,1.3 -0.4,0.65 h -7.1 l -0.25,-0.2 q -0.25,-0.25 -0.25,-0.8 l 0.1,-0.4 q -0.2,-0.8 -0.25,-1.9 -0.15,-1.9 0,-3.9 L 33.75,-2.8 v -3.05 l -1.35,0.15 -3,0.05 -2.6,0.1 -59.95,-0.05 v 2.8 l 0.35,29.75 q 0.15,2 0,3.9 -0.05,1.1 -0.25,1.9 l 0.1,0.4 q 0,0.55 -0.25,0.8 l -0.25,0.2 h -7.1 l -0.4,-0.65 -1.15,-1.3 q -1.75,-1.95 -4.3,-1.95 -1.25,0 -2.65,1.75 l -1.65,2.15 h -1.35 l -0.4,-0.65 -1.15,-1.3 q -1.75,-1.95 -4.3,-1.95 -1.25,0 -2.65,1.75 l -1.5,2.15 h -1.25 l -0.4,-0.65 -1.15,-1.3 q -1.55,-1.75 -3.7,-1.95 h -0.1 -0.05 q -2.35,0.1 -4,1.95 l -1.15,1.3 -0.4,0.65 H -75.5 L -77,32 q -1.4,-1.75 -2.65,-1.75 -2.55,0 -4.3,1.95 l -1.15,1.3 -0.4,0.65 h -1.3 L -88.5,32 q -1.4,-1.75 -2.65,-1.75 -2.55,0 -4.3,1.95 l -1.15,1.3 -0.4,0.65 h -7.1 l -0.25,-0.2 -0.25,-0.8 0.1,-0.4 -0.25,-1.9 v -3.9 L -104.4,-2.8 V -6.35 -29.6 h -0.7 q -0.8,0.15 -1.35,-0.35 v -5.7 l 0.3,-0.2 5.05,-0.3 h 63.05 l 2.55,-0.05 2.3,0.05 h 67.25 v -0.05 h 0.25 1.35 l 2,0.05 m -70.8,9.55 v 18.35 l 59.95,-0.05 2.55,0.1 h 0.05 l 3,0.1 1.35,0.1 v -20.4 h 0.3 v -1.2 L 4,-29.65 l -4.2,-0.2 -4.2,0.2 -28.75,0.05 h -0.05 v 0.75 h 0.05 v 2.25 m 71.6,-3 h -2.1 l -0.05,0.1 v 23.25 l 0.05,3.45 0.35,29.7 v 4.15 l -0.05,0.6 h 0.9 l 0.4,0.05 1.7,0.15 0.4,-1.15 q 0.5,-0.9 1.55,-1.6 1.9,-1.2 4.6,-1.25 2.7,-0.05 4.55,1.05 l 1.05,0.85 0.25,0.3 q 0.4,-0.55 1.05,-0.95 1.9,-1.2 4.6,-1.25 2.7,-0.05 4.55,1.05 0.7,0.45 1.2,1 l 0.9,-0.8 q 1.9,-1.2 4.6,-1.25 h 0.4 0.1 0.3 0.05 q 2.7,0.05 4.6,1.25 l 0.9,0.8 q 0.5,-0.55 1.2,-1 1.85,-1.1 4.55,-1.05 2.7,0.05 4.6,1.25 l 1.05,0.95 0.25,-0.3 Q 87.4,29.3 88,28.9 q 1.85,-1.1 4.55,-1.05 2.7,0.05 4.6,1.25 l 1.55,1.6 q 0.3,0.5 0.4,1.15 l 2.1,-0.2 h 0.9 l -0.05,-0.6 q -0.15,-1.85 0,-4.15 l 0.35,-29.7 0.05,-3.45 V -29.6 l -29.1,-0.05 -3.55,-0.1 -0.45,-0.05 -3.95,0.15 -26.95,0.05 M 6.6,-22.15 19.65,-22.2 h 2.5 l 0.25,-0.2 0.25,0.2 0.7,0.15 v 0.1 0.15 l -0.1,0.45 -0.05,0.1 h -0.05 l 0.1,5.05 v 0.65 0.25 0.05 H 23.2 l -1,0.7 H 11.85 L 6.1,-15 q -0.6,-0.2 -0.7,-0.6 l -0.2,0.05 v -0.35 l 0.15,-4.1 0.05,-0.5 0.25,-1.4 0.3,-0.4 0.45,0.1 0.1,0.1 0.1,-0.05 m 0.75,3.2 -0.25,2.5 4.75,-0.3 h 10 v -4.15 l -14.6,-0.1 0.1,2.05 m 33.55,8.3 V -11 l 0.05,-0.3 v -1.45 q -0.8,-0.1 -0.95,-2.15 v -2.15 q 0,-4.35 0.95,-4.7 V -25 l 0.25,-1.3 -0.1,-0.4 0.25,-0.65 q 0.35,-0.45 0.95,-0.5 h 6.65 v -0.05 l 1.25,0.05 h 0.4 4.95 4.95 0.45 l 1.2,-0.05 v 0.05 h 6.65 l 0.55,0.15 v 0.05 h 0.05 l 0.4,-0.15 0.15,-0.05 h 6.65 v -0.05 l 1.2,0.05 h 0.45 4.95 4.95 0.4 l 1.25,-0.05 v 0.05 h 6.65 q 0.6,0.05 0.95,0.5 l 0.25,0.65 -0.1,0.4 0.25,1.3 v 3.25 q 0.95,0.35 0.95,4.7 v 2.15 q -0.15,2.05 -0.95,2.15 v 1.45 l 0.05,0.3 v 0.35 L 97.8,-10.7 V 7.45 l -0.1,2.6 v 1.65 q 0.7,0.05 0.8,2.2 l -0.15,2.95 v 2.6 q -0.15,1.75 -0.65,2.3 v 3.4 q -0.75,0.9 -1.05,0.9 H 96.6 l -0.4,0.2 -15.6,-0.05 h -4 l -6.4,0.05 -0.4,-0.2 H 69.75 L 69.4,25.9 69.35,25.85 V 25.9 L 69,26.05 h -0.05 l -0.4,0.2 -6.4,-0.05 h -4 l -15.6,0.05 -0.4,-0.2 H 42.1 q -0.3,0 -1.05,-0.9 v -3.4 q -0.5,-0.55 -0.65,-2.3 v -2.6 L 40.25,13.9 q 0.05,-1.05 0.25,-1.55 0.2,-0.6 0.55,-0.65 V 10.05 8.85 L 41,8.35 40.95,7.45 v -18.1 -0.05 l -0.05,0.05 m 26.9,-15.05 -3.1,0.2 -1.9,0.05 H 48.3 l -2.95,-0.05 -1.15,-0.1 h -0.35 l -0.65,-0.1 0.05,0.2 0.05,0.25 v 1.75 0.3 l -0.15,46.35 v 1.1 L 49,24.3 h 2.45 8.05 1.35 l 7.1,-0.05 -0.15,-47.9 v -1.6 l 0.1,-0.45 h -0.1 m 3.15,0.45 -0.15,49.5 2.25,0.05 h 4.85 1.35 8.05 2.45 l 5.85,-0.05 -0.15,-47.8 v -1.7 l 0.1,-0.45 -0.1,0.05 -5,0.2 h -14.5 l -3.3,-0.1 -0.75,-0.05 -0.9,-0.05 -0.15,-0.05 0.1,0.45 m 2.1,44.8 h -0.1 q -0.9,0 -1.15,-3.35 l -0.1,-3.7 0.05,-2.15 0.1,-1.2 q 0.2,-3.05 1.05,-3 l 0.15,0.05 q 1,0.35 1.05,5.65 v 0.7 l -0.05,3.55 q -0.25,3.25 -1,3.45 m -26.6,1.95 -0.2,-0.4 Q 45.8,19.7 45.8,13.5 V 13.4 8.65 8 7.85 L 45.95,0.3 v -2.55 l 0.05,-2.9 0.25,-16.1 H 46.2 l -0.05,-0.1 -0.1,-0.45 v -0.25 l 0.7,-0.15 0.25,-0.2 0.25,0.2 h 2.5 l 13.05,0.05 0.1,0.05 0.1,-0.1 0.45,-0.1 0.2,0.15 0.1,0.25 0.25,1.4 0.05,0.5 q 0.25,3.1 0.15,10.55 l -0.05,4.4 -0.05,2.6 L 64,0.8 v 0.9 0.05 l -0.15,5.9 -0.05,5.05 -0.05,7.7 v 0.05 h 0.05 l 0.05,0.1 0.1,0.45 v 0.25 L 63.9,21.3 63.2,21.4 H 60.25 L 47.2,21.35 H 47.1 L 47,21.4 46.55,21.55 46.45,21.5 m 19.4,-15.35 0.4,0.2 q 0.8,0.85 0.8,6.15 l -0.1,3.7 q -0.25,3.35 -1.15,3.35 -0.2,0 -0.35,-0.2 Q 64.9,18.75 64.7,16.1 L 64.65,12.55 V 12.3 Q 64.7,6.65 65.7,6.2 l 0.15,-0.05 m 25.2,5.2 0.15,-32.25 -14.6,-0.1 0.1,2.05 -0.35,4.3 V -0.8 l 0.1,0.25 -0.05,0.3 -0.05,-0.15 v 11.9 l 0.1,1.3 0.15,4.5 -0.15,2.25 14.3,-0.1 q -0.1,-0.6 -0.05,-1.4 l 0.35,-4.1 v -2.5 -0.1 m -15.3,-33.55 0.1,0.1 0.1,-0.05 L 89,-22.2 h 2.5 l 0.25,-0.2 0.25,0.2 0.7,0.15 v 0.1 0.15 l -0.1,0.45 -0.05,0.1 H 92.5 L 92.8,-3.8 V -2 l 0.05,2.15 0.1,8.5 0.05,2.05 q 0.05,8.55 -0.45,10.35 l -0.05,0.05 -0.2,0.4 -0.1,0.05 -0.45,-0.15 -0.1,-0.05 h -0.1 L 78.5,21.4 H 75.55 L 74.95,21.3 74.8,21.25 V 21 l 0.1,-0.45 0.05,-0.1 H 75 L 74.95,12.25 74.9,7.65 74.75,0.65 74.7,-2 74.65,-4.8 74.55,-9.45 Q 74.45,-16.9 74.7,-20 l 0.05,-0.5 0.25,-1.4 0.3,-0.4 0.45,0.1 M 62.4,-5.15 v -9.5 l -0.35,-4.3 q -0.1,-1.3 0.1,-2.05 l -14.6,0.1 0.15,34.85 0.35,4.1 -0.05,1.4 14.3,0.1 Q 62.15,18.7 62.15,17.3 l 0.15,-4.1 0.1,-1.7 V 2.9 q -0.25,-2.75 -0.05,-8 h 0.05 v -0.05 m -159.65,-5.5 V -11 l 0.05,-0.3 v -1.45 q -0.8,-0.1 -0.95,-2.15 v -2.15 q 0,-4.35 0.95,-4.7 V -25 l 0.25,-1.3 -0.1,-0.4 0.25,-0.65 q 0.35,-0.45 0.95,-0.5 h 6.65 v -0.05 l 1.25,0.05 h 0.4 4.95 4.95 0.45 l 1.2,-0.05 v 0.05 h 6.65 l 0.7,0.25 0.1,0.1 0.35,-0.2 v -0.15 h 6.65 v -0.05 l 1.2,0.05 h 0.45 4.95 4.95 0.4 l 1.25,-0.05 v 0.05 h 6.65 q 0.6,0.05 0.95,0.5 l 0.25,0.65 -0.1,0.4 0.25,1.3 v 3.25 q 0.95,0.35 0.95,4.7 v 2.15 q -0.15,2.05 -0.95,2.15 v 1.45 l 0.05,0.3 v 0.35 l -0.05,-0.05 V 7.45 l -0.1,2.6 v 1.65 q 0.7,0.05 0.8,2.2 l -0.15,2.95 v 2.6 q -0.15,1.75 -0.65,2.3 v 3.4 l -1.05,0.9 h -0.05 l -0.4,0.2 -15.6,-0.05 h -4 l -6.4,0.05 -0.25,-0.1 v -0.2 l -0.35,-0.3 -0.1,0.1 -0.5,0.3 h -0.05 l -0.4,0.2 -6.4,-0.05 h -4 l -15.6,0.05 -0.4,-0.2 h -0.05 l -1.05,-0.9 v -3.4 q -0.5,-0.55 -0.65,-2.3 v -2.6 l -0.15,-2.95 0.25,-1.55 q 0.2,-0.6 0.55,-0.65 v -1.65 -1.2 l -0.05,-0.5 -0.05,-0.9 v -18.1 -0.05 l -0.05,0.05 m -2.95,42.35 1.7,0.15 0.4,-1.15 q 0.5,-0.9 1.55,-1.6 1.9,-1.2 4.6,-1.25 2.7,-0.05 4.55,1.05 0.6,0.4 1.05,0.85 l 0.25,0.3 1.05,-0.95 q 1.9,-1.2 4.6,-1.25 2.7,-0.05 4.55,1.05 l 1.2,1 0.9,-0.8 q 1.9,-1.2 4.6,-1.25 h 0.5 0.05 0.1 0.15 0.05 0.15 q 2.6,0.1 4.45,1.25 l 0.9,0.8 1.2,-1 q 1.85,-1.1 4.55,-1.05 2.7,0.05 4.6,1.25 l 1.05,0.95 0.25,-0.3 1.05,-0.85 q 1.85,-1.1 4.55,-1.05 2.7,0.05 4.6,1.25 1.05,0.7 1.55,1.6 l 0.4,1.15 2.1,-0.2 h 0.9 l -0.05,-0.6 V 26.9 l 0.35,-29.7 0.05,-3.45 V -29.6 h -2.85 -0.65 l -25.6,-0.05 -3.4,-0.15 -0.35,-0.05 h -0.1 l -4.1,0.2 -26.95,0.05 h -2.1 -0.05 v 0.1 23.25 l 0.05,3.45 0.35,29.7 q 0.15,2.3 0,4.15 l -0.05,0.6 h 0.9 l 0.4,0.05 m 29.85,-57.4 -3.1,0.2 -1.9,0.05 h -14.5 l -2.95,-0.05 -1.15,-0.1 h -0.35 l -0.65,-0.1 0.05,0.2 0.05,0.25 v 1.75 0.3 L -95,23.15 v 1.1 l 5.85,0.05 h 2.45 8.05 1.35 l 7.1,-0.05 -0.15,-47.9 v -1.6 l 0.1,-0.45 h -0.1 m -21.35,47.2 -0.2,-0.4 q -0.45,-1.4 -0.45,-7.6 V 13.4 8.65 8 7.85 L -92.2,0.3 v -2.55 l 0.05,-2.9 0.25,-16.1 h -0.05 l -0.05,-0.1 -0.1,-0.45 v -0.25 l 0.7,-0.15 0.25,-0.2 0.25,0.2 h 2.5 l 13.05,0.05 0.1,0.05 0.1,-0.1 0.45,-0.1 0.2,0.15 0.1,0.25 0.25,1.4 0.05,0.5 q 0.25,3.1 0.15,10.55 l -0.05,4.4 -0.05,2.6 -0.1,3.25 v 0.9 0.05 l -0.15,5.9 -0.05,5.05 -0.05,7.7 v 0.05 h 0.05 l 0.05,0.1 0.1,0.45 v 0.25 l -0.05,0.05 -0.7,0.1 h -2.95 l -13.05,-0.05 h -0.1 l -0.1,0.05 -0.45,0.15 -0.1,-0.05 m 19.4,-15.35 0.4,0.2 q 0.8,0.85 0.8,6.15 l -0.1,3.7 q -0.25,3.35 -1.15,3.35 l -0.35,-0.2 q -0.55,-0.6 -0.75,-3.25 L -73.5,12.55 V 12.3 q 0.05,-5.65 1.05,-6.1 l 0.15,-0.05 m 29.6,-31.4 0.1,-0.45 -0.1,0.05 -5,0.2 h -14.5 l -3.3,-0.1 -0.75,-0.05 -0.9,-0.05 -0.15,-0.05 0.1,0.45 -0.15,49.5 2.25,0.05 h 4.85 1.35 8.05 2.45 l 5.85,-0.05 -0.15,-47.8 v -1.7 m -19.5,3.1 13.05,-0.05 h 2.5 l 0.25,-0.2 0.25,0.2 0.7,0.15 v 0.1 0.15 l -0.1,0.45 -0.05,0.1 h -0.05 l 0.3,17.45 V -2 l 0.05,2.15 0.1,8.5 0.05,2.05 q 0.05,8.55 -0.45,10.35 l -0.05,0.05 -0.2,0.4 -0.1,0.05 -0.45,-0.15 -0.1,-0.05 h -0.1 l -13.05,0.05 h -2.95 l -0.6,-0.1 -0.15,-0.05 V 21 l 0.1,-0.45 0.05,-0.1 h 0.05 l -0.05,-8.2 -0.05,-4.6 -0.15,-7 -0.05,-2.65 -0.05,-2.8 -0.1,-4.65 q -0.1,-7.45 0.15,-10.55 l 0.05,-0.5 0.25,-1.4 0.3,-0.4 0.45,0.1 0.1,0.1 0.1,-0.05 M -65.1,6.2 q 1,0.35 1.05,5.65 v 0.7 l -0.05,3.55 q -0.25,3.25 -1,3.45 h -0.1 q -0.9,0 -1.15,-3.35 l -0.1,-3.7 0.05,-2.15 0.1,-1.2 q 0.2,-3.05 1.05,-3 l 0.15,0.05 m 18,5.15 0.15,-32.25 -14.6,-0.1 q 0.2,0.75 0.1,2.05 l -0.35,4.3 V -0.8 q 0.1,-0.35 0.1,0.25 l -0.05,0.3 -0.05,-0.15 v 11.9 l 0.1,1.3 0.15,4.5 q 0,1.4 -0.15,2.25 l 14.3,-0.1 -0.05,-1.4 0.35,-4.1 v -2.5 -0.1 m -28.65,-16.5 v -9.5 l -0.35,-4.3 0.1,-2.05 -14.6,0.1 0.15,34.85 0.35,4.1 q 0.05,0.8 -0.05,1.4 l 14.3,0.1 -0.15,-2.25 0.15,-4.1 0.1,-1.7 V -0.4 l -0.05,0.15 -0.05,-0.3 q 0,-0.6 0.1,-0.25 V -5.1 -5.15 M -2,-25.7 l -3.1,0.2 -1.9,0.05 h -14.5 l -2.95,-0.05 -1.05,-0.1 h -0.1 -0.35 l -0.65,-0.1 0.05,0.2 0.05,0.25 v 1.75 0.3 10.7 h 0.85 l 0.05,-0.7 h 0.1 l 1.05,-0.05 h 18.35 2.8 v 0.35 0.05 l -0.05,0.35 h 1.4 L -2,-23.65 v -1.6 l 0.1,-0.45 H -2 m -4.15,3.55 0.1,0.25 0.25,1.4 0.05,0.5 0.2,4 v 0.75 H -5.7 l -0.3,0.4 -0.55,0.3 -16.1,0.05 q -1.05,0 -1.2,-0.7 h 0.2 v -0.35 -0.3 l 0.1,-5.4 h -0.05 l -0.05,-0.1 -0.1,-0.45 v -0.25 l 0.7,-0.15 0.25,-0.2 0.25,0.2 h 2.5 l 13.05,0.05 0.1,0.05 0.1,-0.1 0.45,-0.1 0.2,0.15 m -16.05,5.85 h 14.75 l -0.3,-2.65 0.1,-2.05 -14.6,0.1 0.05,4.6"
         fill="#6b6b6b"
         fill-rule="evenodd"
         stroke="none"
         id="path1" />
      <path
         d="m 26.1,-25.65 0.1,-0.05 -0.1,0.45 v -0.4 m -1.15,13.15 h -0.2 l 0.05,-0.4 v -0.35 h 0.15 v 0.75 M 1.6,-25.25 1.5,-25.7 l 0.15,0.05 -0.05,0.4 m -106.25,-9 v 0.35 l -0.05,-0.35 h 0.05 m 71.5,7.65 v -2.25 h -0.05 v -0.75 h 0.05 q 0.1,0.8 0.05,2.2 l -0.05,0.8 m 100.95,1.35 v -0.45 h 0.1 l -0.1,0.45 m 3.2,-0.4 -0.05,0.4 -0.1,-0.45 0.15,0.05 m 1.9,31.8 h 0.15 V 6.2 L 72.9,6.15 m 22.55,-31.4 v -0.4 l 0.1,-0.05 -0.1,0.45 M 65.7,6.15 h 0.15 L 65.7,6.2 V 6.15 m -1.9,14.3 H 63.75 V 20.4 l 0.05,0.05 M -70.35,-25.7 h 0.1 l -0.1,0.45 v -0.45 m -2.1,31.85 h 0.15 L -72.45,6.2 V 6.15 m -1.9,14.3 H -74.4 V 20.4 l 0.05,0.05 m 31.65,-46.1 0.1,-0.05 -0.1,0.45 v -0.4 m -24.5,0.4 -0.1,-0.45 0.15,0.05 -0.05,0.4 m 2.1,31.4 V 6.2 l -0.15,-0.05 h 0.15 M -2,-25.25 v -0.45 h 0.1 l -0.1,0.45"
         fill="#919191"
         fill-rule="evenodd"
         stroke="none"
         id="path2" />
      <path
         d="m 20.45,-27.85 v -0.05 l -1.25,0.05 H 18.8 13.85 8.9 8.45 l -1.2,-0.05 v 0.05 H 0.6 l -0.8,0.35 -0.8,-0.35 h -6.65 v -0.05 l -1.2,0.05 h -0.45 -4.95 -4.95 -0.4 l -1.25,-0.05 v 0.05 h -6.65 q -0.6,0.05 -0.95,0.5 l -0.25,0.65 0.1,0.4 -0.25,1.3 v 3.25 q -0.95,0.35 -0.95,4.7 v 2.15 q 0.15,2.05 0.95,2.15 v 0.25 H -29 l -0.15,0.5 0.25,0.6 0.05,0.25 q 0.25,0.55 1.4,0.55 l 1.55,-0.2 0.4,0.05 h 1.05 52.65 q 0.55,-0.05 0.9,-0.5 l 0.3,-0.65 V -12 l -0.15,-0.5 h -0.8 v -0.25 q 0.2,-0.05 0.4,-0.2 0.45,-0.45 0.55,-1.95 l 0.15,-0.85 -0.15,-1.3 v -0.75 q -0.1,-3.65 -0.95,-3.95 V -25 l -0.25,-1.3 0.1,-0.4 -0.25,-0.65 q -0.35,-0.45 -0.95,-0.5 h -6.65 m 5.65,4.3 0.05,11.05 h -1.2 v -0.75 L 25,-20.45 Q 25,-22 23.7,-22 l -0.35,0.05 v -0.1 l -0.7,-0.15 -0.25,-0.2 -0.25,0.2 h -2.5 L 6.6,-22.15 6.4,-22.2 5.95,-22.3 5.65,-21.9 5.4,-20.5 5.35,-20 5.2,-15.9 v 0.35 q -1.05,0.25 -1.3,1.45 l -0.1,0.8 v 0.05 l 0.05,0.6 0.05,0.15 H 3.7 l -0.05,-4.5 0.1,-5.9 v -0.7 q 2.1,0.15 5.4,0.05 H 26.1 m -130.7,-9.35 0.45,0.15 9.05,0.4 26.9,-0.05 35,-0.1 v 0.15 h 1 2.3 3.15 l 60.8,-0.15 v -0.25 l 0.25,0.05 1.7,0.2 1.7,0.1 2.1,0.05 h 3.25 l 26.3,-0.05 35.9,-0.1 v 0.5 h -209.9 l 0.05,-0.9 m 71.45,3.3 28.75,-0.05 4.2,-0.2 4.2,0.2 30.05,0.05 v 1.2 h -0.3 V -8 l -1.35,-0.1 -3,-0.1 H 29.35 L 26.8,-8.3 -33.15,-8.25 V -26.6 l 0.05,-0.8 q 0.05,-1.4 -0.05,-2.2 m 71.1,61.3 0.55,-4.25 V 21.9 l -0.25,-41.7 0.25,-7.6 -0.05,-2.15 v -0.05 l 26.95,-0.05 3.95,-0.15 0.45,0.05 3.55,0.1 29.1,0.05 v 23.35 l -0.05,3.45 -0.35,29.7 q -0.15,2.3 0,4.15 l 0.05,0.6 h -0.9 l -2.1,0.2 Q 99,31.2 98.7,30.7 l -1.55,-1.6 q -1.9,-1.2 -4.6,-1.25 -2.7,-0.05 -4.55,1.05 -0.6,0.4 -1.05,0.85 l -0.25,0.3 -1.05,-0.95 q -1.9,-1.2 -4.6,-1.25 -2.7,-0.05 -4.55,1.05 -0.7,0.45 -1.2,1 l -0.9,-0.8 q -1.9,-1.2 -4.6,-1.25 h -0.05 -0.3 -0.1 -0.4 q -2.7,0.05 -4.6,1.25 l -0.9,0.8 q -0.5,-0.55 -1.2,-1 Q 60.4,27.8 57.7,27.85 55,27.9 53.1,29.1 52.45,29.5 52.05,30.05 L 51.8,29.75 50.75,28.9 q -1.85,-1.1 -4.55,-1.05 -2.7,0.05 -4.6,1.25 -1.05,0.7 -1.55,1.6 l -0.4,1.15 -1.7,-0.15 M 7.35,-18.95 7.25,-21 l 14.6,0.1 v 4.15 h -10 l -4.75,0.3 0.25,-2.5 m 89.3,45 q 0.3,0 1.05,-0.9 v -3.4 q 0.5,-0.55 0.65,-2.3 v -2.6 L 98.5,13.9 q -0.1,-2.15 -0.8,-2.2 v -1.65 l 0.1,-2.6 V -10.7 l 0.05,0.05 V -11 l -0.05,-0.3 v -1.45 q 0.8,-0.1 0.95,-2.15 v -2.15 q 0,-4.35 -0.95,-4.7 V -25 l -0.25,-1.3 0.1,-0.4 -0.25,-0.65 q -0.35,-0.45 -0.95,-0.5 H 89.8 v -0.05 l -1.25,0.05 H 88.15 83.2 78.25 77.8 l -1.2,-0.05 v 0.05 h -6.65 l -0.15,0.05 -0.4,0.15 h -0.05 v -0.05 l -0.55,-0.15 h -6.65 v -0.05 l -1.2,0.05 H 60.5 55.55 50.6 50.2 l -1.25,-0.05 v 0.05 H 42.3 q -0.6,0.05 -0.95,0.5 l -0.25,0.65 0.1,0.4 -0.25,1.3 v 3.25 Q 40,-21.4 40,-17.05 v 2.15 q 0.15,2.05 0.95,2.15 v 1.45 L 40.9,-11 v 0.35 h 0.05 v 18.1 l 0.05,0.9 0.05,0.5 v 1.2 1.65 q -0.35,0.05 -0.55,0.65 -0.2,0.5 -0.25,1.55 l 0.15,2.95 v 2.6 q 0.15,1.75 0.65,2.3 v 3.4 q 0.75,0.9 1.05,0.9 h 0.05 l 0.4,0.2 15.6,-0.05 h 4 l 6.4,0.05 0.4,-0.2 H 69 l 0.35,-0.15 v -0.05 l 0.05,0.05 0.35,0.15 h 0.05 l 0.4,0.2 6.4,-0.05 h 4 l 15.6,0.05 0.45,-0.2 m -53.5,-2.9 q 0.3,0.95 0.85,0.95 0.5,0 0.85,-0.85 L 45.3,20 V 15.55 -7.1 q -0.2,-3.05 -0.05,-9.7 -0.05,-3.8 -0.55,-6.55 l 0.15,-0.05 0.55,0.05 h 12.4 l 9.85,-0.3 h 0.15 l 0.15,47.9 -7.1,0.05 H 59.5 51.45 49 l -5.85,-0.05 v -1.1 m 29.9,1.15 v -4.75 q 0.75,-0.2 1,-3.45 l 0.05,-3.55 v -0.7 Q 74.05,6.55 73.05,6.2 V 6.15 L 73,-17 l 0.1,-5.9 v -0.7 q 2.1,0.15 5.4,0.05 h 16.95 l 0.15,47.8 -5.85,0.05 H 87.3 79.25 77.9 73.05 M 62.8,-22.15 49.75,-22.2 h -2.5 l -0.25,-0.2 -0.25,0.2 -0.7,0.15 v 0.25 l 0.1,0.45 0.05,0.1 h 0.05 L 46,-5.15 45.95,-2.25 V 0.3 L 45.8,7.85 V 8 8.65 13.4 13.5 q 0,6.2 0.45,7.6 l 0.2,0.4 0.1,0.75 q 0.3,0.45 1.15,0.5 h 13.55 l 3.2,-0.2 q 0.95,0 0.95,-0.85 l -0.2,-0.65 0.25,-1.7 q 0.15,0.2 0.35,0.2 0.9,0 1.15,-3.35 l 0.1,-3.7 q 0,-5.3 -0.8,-6.15 l -0.4,-0.2 H 65.7 L 65.85,2.1 66,-2.45 66.1,-5 66.25,-9.1 q 0.1,-13.3 -2,-13.4 -0.35,0 -0.6,0.35 l -0.2,-0.15 -0.45,0.1 -0.2,0.05 m 28.25,33.6 v 2.5 l -0.35,4.1 q -0.05,0.8 0.05,1.4 l -14.3,0.1 0.15,-2.25 -0.15,-4.5 -0.1,-1.3 V -0.4 l 0.05,0.15 0.05,-0.3 -0.1,-0.25 v -13.85 l 0.35,-4.3 -0.1,-2.05 14.6,0.1 -0.15,32.25 -0.35,0.1 h 0.35 m -15.1,-33.6 -0.2,-0.05 -0.45,-0.1 -0.3,0.4 -0.25,1.4 -0.05,0.5 q -0.25,3.1 -0.15,10.55 l 0.1,4.65 0.05,2.8 0.05,2.65 0.15,7 0.05,4.6 0.05,8.2 H 74.95 L 74.9,20.55 74.8,21 v 0.25 l 0.15,0.05 q -0.35,0.3 -0.35,0.7 0,0.45 0.45,0.8 0.85,0.65 3,0.45 H 89.1 q 4.65,0.1 4.65,-1.25 l -0.1,-0.3 q 0.4,-1.4 0.45,-4.9 V 10.2 L 94.05,8 l 0.3,-28.45 q 0,-1.55 -1.3,-1.55 l -0.35,0.05 v -0.1 L 92,-22.2 91.75,-22.4 91.5,-22.2 H 89 l -13.05,0.05 M 62.35,-5.1 q -0.2,5.25 0.05,8 v 8.6 l -0.1,1.7 -0.15,4.1 q 0,1.4 0.15,2.25 L 48,19.45 48.05,18.05 47.7,13.95 47.55,-20.9 62.15,-21 q -0.2,0.75 -0.1,2.05 l 0.35,4.3 v 9.5 h -0.2 l 0.15,0.05 m -103.85,31.15 1.05,-0.9 v -3.4 q 0.5,-0.55 0.65,-2.3 v -2.6 l 0.15,-2.95 q -0.1,-2.15 -0.8,-2.2 v -1.65 l 0.1,-2.6 V -10.7 l 0.05,0.05 V -11 l -0.05,-0.3 v -1.45 q 0.8,-0.1 0.95,-2.15 v -2.15 q 0,-4.35 -0.95,-4.7 V -25 l -0.25,-1.3 0.1,-0.4 -0.25,-0.65 q -0.35,-0.45 -0.95,-0.5 h -6.65 v -0.05 l -1.25,0.05 h -0.4 -4.95 -4.95 -0.45 l -1.2,-0.05 v 0.05 h -6.65 v 0.15 l -0.35,0.2 -0.1,-0.1 -0.7,-0.25 H -76 v -0.05 l -1.2,0.05 h -0.45 -4.95 -4.95 -0.4 l -1.25,-0.05 v 0.05 h -6.65 q -0.6,0.05 -0.95,0.5 l -0.25,0.65 0.1,0.4 -0.25,1.3 v 3.25 q -0.95,0.35 -0.95,4.7 v 2.15 q 0.15,2.05 0.95,2.15 v 1.45 l -0.05,0.3 v 0.35 h 0.05 v 18.1 l 0.05,0.9 0.05,0.5 v 1.2 1.65 q -0.35,0.05 -0.55,0.65 l -0.25,1.55 0.15,2.95 v 2.6 q 0.15,1.75 0.65,2.3 v 3.4 l 1.05,0.9 H -96 l 0.4,0.2 15.6,-0.05 h 4 l 6.4,0.05 0.4,-0.2 h 0.05 l 0.5,-0.3 0.1,-0.1 0.35,0.3 v 0.2 l 0.25,0.1 6.4,-0.05 h 4 l 15.6,0.05 0.45,-0.2 m -58.7,5.65 q 0.4,-1.35 0.55,-4.25 V 21.9 l -0.25,-41.7 0.25,-7.6 q 0.05,-1.4 -0.05,-2.2 l 26.95,-0.05 4.1,-0.2 h 0.1 l 0.35,0.05 3.4,0.15 25.6,0.05 h 0.65 2.85 v 23.35 l -0.05,3.45 -0.35,29.7 v 4.15 l 0.05,0.6 h -0.9 l -2.1,0.2 -0.4,-1.15 q -0.5,-0.9 -1.55,-1.6 -1.9,-1.2 -4.6,-1.25 -2.7,-0.05 -4.55,1.05 l -1.05,0.85 -0.25,0.3 -1.05,-0.95 q -1.9,-1.2 -4.6,-1.25 -2.7,-0.05 -4.55,1.05 l -1.2,1 -0.9,-0.8 q -1.85,-1.15 -4.45,-1.25 h -0.15 -0.05 -0.15 -0.1 -0.05 -0.5 q -2.7,0.05 -4.6,1.25 l -0.9,0.8 -1.2,-1 q -1.85,-1.1 -4.55,-1.05 -2.7,0.05 -4.6,1.25 l -1.05,0.95 -0.25,-0.3 q -0.45,-0.45 -1.05,-0.85 -1.85,-1.1 -4.55,-1.05 -2.7,0.05 -4.6,1.25 -1.05,0.7 -1.55,1.6 l -0.4,1.15 -1.7,-0.15 m 29.85,-55.35 0.15,47.9 -7.1,0.05 h -1.35 -8.05 -2.45 L -95,24.25 v -1.1 q 0.3,0.95 0.85,0.95 0.5,0 0.85,-0.85 0.35,-1.05 0.45,-3.25 V 15.55 -7.1 q -0.2,-3.05 -0.05,-9.7 -0.05,-3.8 -0.55,-6.55 l 0.15,-0.05 0.55,0.05 h 12.4 l 9.85,-0.3 h 0.15 m -5,1.5 -13.05,-0.05 h -2.5 l -0.25,-0.2 -0.25,0.2 -0.7,0.15 v 0.25 l 0.1,0.45 0.05,0.1 h 0.05 l -0.25,16.1 -0.05,2.9 V 0.3 l -0.15,7.55 V 8 8.65 13.4 13.5 q 0,6.2 0.45,7.6 l 0.2,0.4 0.1,0.75 q 0.3,0.45 1.15,0.5 h 13.55 l 3.2,-0.2 q 0.95,0 0.95,-0.85 l -0.2,-0.65 0.25,-1.7 0.35,0.2 q 0.9,0 1.15,-3.35 l 0.1,-3.7 q 0,-5.3 -0.8,-6.15 l -0.4,-0.2 h -0.15 l 0.15,-4.05 0.15,-4.55 0.1,-2.55 0.15,-4.1 q 0.1,-13.3 -2,-13.4 -0.35,0 -0.6,0.35 l -0.2,-0.15 -0.45,0.1 -0.2,0.05 m 32.65,-1.4 0.15,47.8 -5.85,0.05 h -2.45 -8.05 -1.35 -4.85 v -4.75 q 0.75,-0.2 1,-3.45 l 0.05,-3.55 v -0.7 Q -64.1,6.55 -65.1,6.2 V 6.15 l -0.05,-23.15 0.1,-5.9 v -0.7 q 2.1,0.15 5.4,0.05 h 16.95 m -19.5,1.4 -0.2,-0.05 -0.45,-0.1 -0.3,0.4 -0.25,1.4 -0.05,0.5 q -0.25,3.1 -0.15,10.55 l 0.1,4.65 0.05,2.8 0.05,2.65 0.15,7 0.05,4.6 0.05,8.2 h -0.05 l -0.05,0.1 -0.1,0.45 v 0.25 l 0.15,0.05 -0.35,0.7 0.45,0.8 q 0.85,0.65 3,0.45 h 11.05 q 4.65,0.1 4.65,-1.25 l -0.1,-0.3 q 0.4,-1.4 0.45,-4.9 V 10.2 L -44.1,8 l 0.3,-28.45 q 0,-1.55 -1.3,-1.55 l -0.35,0.05 v -0.1 l -0.7,-0.15 -0.25,-0.2 -0.25,0.2 h -2.5 l -13.05,0.05 m 15.1,33.6 v 2.5 l -0.35,4.1 0.05,1.4 -14.3,0.1 q 0.15,-0.85 0.15,-2.25 l -0.15,-4.5 -0.1,-1.3 V -0.4 l 0.05,0.15 0.05,-0.3 q 0,-0.6 -0.1,-0.25 v -13.85 l 0.35,-4.3 q 0.1,-1.3 -0.1,-2.05 l 14.6,0.1 -0.15,32.25 -0.35,0.1 h 0.35 M -75.75,-5.1 v 4.3 q -0.1,-0.35 -0.1,0.25 l 0.05,0.3 0.05,-0.15 v 11.9 l -0.1,1.7 -0.15,4.1 0.15,2.25 -14.3,-0.1 q 0.1,-0.6 0.05,-1.4 l -0.35,-4.1 -0.15,-34.85 14.6,-0.1 -0.1,2.05 0.35,4.3 v 9.5 h -0.2 l 0.2,0.05 m 72.45,-8.15 -0.3,-0.8 -0.1,-1.9 q -0.4,-6.5 -1.85,-6.55 l -0.6,0.35 -0.2,-0.15 -0.45,0.1 -0.2,0.05 -13.05,-0.05 h -2.5 l -0.25,-0.2 -0.25,0.2 -0.7,0.15 v 0.25 l 0.1,0.45 0.05,0.1 h 0.05 l -0.1,5.4 v 0.3 0.35 h -0.2 l -0.75,0.25 0.05,-0.5 v -1.35 q -0.05,-3.8 -0.55,-6.55 l 0.15,-0.05 0.55,0.05 H -12 l 9.85,-0.3 H -2 l 0.05,11.15 h -1.4 l 0.05,-0.35 v -0.05 -0.35 m -18.9,-3.05 -0.05,-4.6 14.6,-0.1 -0.1,2.05 0.3,2.65 H -22.2"
         fill="#8a7f7f"
         fill-rule="evenodd"
         stroke="none"
         id="path3" />
      <path
         d="m 26.1,-25.25 v 1.7 H 9.15 q -3.3,0.1 -5.4,-0.05 v 0.7 l -0.1,5.9 0.05,4.5 H 1.55 l 0.05,-12.75 0.05,-0.4 0.9,0.05 0.75,0.05 3.3,0.1 h 14.5 l 5,-0.2 v 0.4 m -1.3,12 -21,-0.05 0.1,-0.8 q 0.25,-1.2 1.3,-1.45 l 0.2,-0.05 q 0.1,0.4 0.7,0.6 l 5.75,0.45 H 22.2 l 1,-0.7 h 0.05 v -0.05 -0.25 -0.65 l -0.1,-5.05 h 0.05 l 0.05,-0.1 0.1,-0.45 v -0.15 L 23.7,-22 q 1.3,0 1.3,1.55 l -0.05,7.2 H 24.8 m 80.45,-19.25 -35.9,0.1 -26.3,0.05 H 39.8 l -2.1,-0.05 -1.7,-0.1 -1.7,-0.2 -0.25,-0.05 v 0.25 l -60.8,0.15 h -3.15 -2.3 -1 v -0.15 l -35,0.1 -26.9,0.05 -9.05,-0.4 -0.45,-0.15 -0.05,-0.55 v -0.45 -0.35 H 105.3 l -0.05,0.8 v 0.7 0.25 m -66.8,2.9 v 0.05 l 0.05,2.15 -0.25,7.6 0.25,41.7 v 5.55 l -0.55,4.25 -0.4,-0.05 h -0.9 l 0.05,-0.6 V 26.9 L 36.35,-2.8 36.3,-6.25 V -29.5 l 0.05,-0.1 h 2.1 m 4.85,6.1 v -1.75 l -0.05,-0.25 -0.05,-0.2 0.65,0.1 h 0.35 l 1.15,0.1 2.95,0.05 h 14.5 l 1.9,-0.05 3.1,-0.2 v 0.45 1.6 h -0.15 l -9.85,0.3 H 45.4 L 44.85,-23.4 H 44.7 v 0.05 q 0.5,2.75 0.55,6.55 -0.15,6.65 0.05,9.7 V 15.55 20 l -0.45,3.25 Q 44.5,24.1 44,24.1 q -0.55,0 -0.85,-0.95 l 0.15,-46.35 0.05,-0.3 H 43.3 m 27.65,-1.75 0.05,-0.4 0.9,0.05 0.75,0.05 3.3,0.1 h 14.5 l 5,-0.2 v 0.4 1.7 H 78.5 q -3.3,0.1 -5.4,-0.05 v 0.7 L 73,-17 73.05,6.15 H 72.9 q -0.85,-0.05 -1.05,3 l -0.1,1.2 -0.05,2.15 0.1,3.7 q 0.25,3.35 1.15,3.35 h 0.1 v 4.75 l -2.25,-0.05 0.15,-49.5 m -7.3,3.1 q 0.25,-0.35 0.6,-0.35 2.1,0.1 2,13.4 L 66.1,-5 66,-2.45 65.85,2.1 65.7,6.15 V 6.2 q -1,0.45 -1.05,6.1 v 0.25 l 0.05,3.55 q 0.2,2.65 0.75,3.25 l -0.25,1.7 0.2,0.65 q 0,0.85 -0.95,0.85 l -3.2,0.2 H 47.7 q -0.85,-0.05 -1.15,-0.5 l -0.1,-0.75 0.1,0.05 0.45,-0.15 0.1,-0.05 h 0.1 l 13.05,0.05 h 2.95 l 0.7,-0.1 0.05,-0.05 V 21 L 63.85,20.55 63.8,20.45 63.75,20.4 63.8,12.7 63.85,7.65 64,1.75 V 1.7 0.8 l 0.1,-3.25 0.05,-2.6 0.05,-4.4 Q 64.3,-16.9 64.05,-20 l -0.05,-0.5 -0.25,-1.4 -0.1,-0.25 m 11.3,43.45 0.6,0.1 h 2.95 l 13.05,-0.05 h 0.1 l 0.1,0.05 0.45,0.15 0.1,-0.05 0.2,-0.4 0.05,-0.05 Q 93.05,19.25 93,10.7 L 92.95,8.65 92.85,0.15 92.8,-2 v -1.8 l -0.3,-17.45 h 0.05 l 0.05,-0.1 0.1,-0.45 v -0.15 L 93.05,-22 q 1.3,0 1.3,1.55 L 94.05,8 94.1,10.2 v 6.6 q -0.05,3.5 -0.45,4.9 l 0.1,0.3 q 0,1.35 -4.65,1.25 H 78.05 q -2.15,0.2 -3,-0.45 -0.45,-0.35 -0.45,-0.8 0,-0.4 0.35,-0.7 M -99.7,-29.6 q 0.1,0.8 0.05,2.2 l -0.25,7.6 0.25,41.7 v 5.55 q -0.15,2.9 -0.55,4.25 l -0.4,-0.05 h -0.9 l 0.05,-0.6 q 0.15,-1.85 0,-4.15 l -0.35,-29.7 -0.05,-3.45 V -29.5 l 0.05,-0.1 h 2.1 m 4.85,6.1 v -1.75 l -0.05,-0.25 -0.05,-0.2 0.65,0.1 h 0.35 l 1.15,0.1 2.95,0.05 h 14.5 l 1.9,-0.05 3.1,-0.2 v 0.45 1.6 h -0.15 l -9.85,0.3 h -12.4 l -0.55,-0.05 h -0.15 v 0.05 q 0.5,2.75 0.55,6.55 -0.15,6.65 0.05,9.7 V 15.55 20 q -0.1,2.2 -0.45,3.25 -0.35,0.85 -0.85,0.85 -0.55,0 -0.85,-0.95 l 0.15,-46.35 0.05,-0.3 h -0.05 m 20.35,1.35 q 0.25,-0.35 0.6,-0.35 2.1,0.1 2,13.4 l -0.15,4.1 -0.1,2.55 -0.15,4.55 -0.15,4.05 V 6.2 q -1,0.45 -1.05,6.1 v 0.25 l 0.05,3.55 q 0.2,2.65 0.75,3.25 l -0.25,1.7 0.2,0.65 q 0,0.85 -0.95,0.85 l -3.2,0.2 h -13.55 q -0.85,-0.05 -1.15,-0.5 l -0.1,-0.75 0.1,0.05 0.45,-0.15 0.1,-0.05 h 0.1 l 13.05,0.05 h 2.95 l 0.7,-0.1 0.05,-0.05 V 21 l -0.1,-0.45 -0.05,-0.1 -0.05,-0.05 0.05,-7.7 0.05,-5.05 0.15,-5.9 V 1.7 0.8 l 0.1,-3.25 0.05,-2.6 0.05,-4.4 q 0.1,-7.45 -0.15,-10.55 l -0.05,-0.5 -0.25,-1.4 -0.1,-0.25 m 31.8,-3.1 v 1.7 h -16.95 q -3.3,0.1 -5.4,-0.05 v 0.7 l -0.1,5.9 0.05,23.15 h -0.15 q -0.85,-0.05 -1.05,3 l -0.1,1.2 -0.05,2.15 0.1,3.7 q 0.25,3.35 1.15,3.35 h 0.1 v 4.75 l -2.25,-0.05 0.15,-49.5 0.05,-0.4 0.9,0.05 0.75,0.05 3.3,0.1 h 14.5 l 5,-0.2 v 0.4 m -2.75,3.3 0.35,-0.05 q 1.3,0 1.3,1.55 L -44.1,8 l 0.05,2.2 v 6.6 q -0.05,3.5 -0.45,4.9 l 0.1,0.3 q 0,1.35 -4.65,1.25 H -60.1 q -2.15,0.2 -3,-0.45 l -0.45,-0.8 0.35,-0.7 0.6,0.1 h 2.95 l 13.05,-0.05 h 0.1 l 0.1,0.05 0.45,0.15 0.1,-0.05 0.2,-0.4 0.05,-0.05 q 0.5,-1.8 0.45,-10.35 L -45.2,8.65 -45.3,0.15 -45.35,-2 v -1.8 l -0.3,-17.45 h 0.05 l 0.05,-0.1 0.1,-0.45 v -0.15 m 18.95,-1.55 v -1.75 l -0.05,-0.25 -0.05,-0.2 0.65,0.1 h 0.35 0.1 l 1.05,0.1 2.95,0.05 H -7 l 1.9,-0.05 3.1,-0.2 v 0.45 1.6 h -0.15 l -9.85,0.3 h -12.4 l -0.55,-0.05 h -0.15 v 0.05 q 0.5,2.75 0.55,6.55 v 1.35 l -0.05,0.5 0.75,-0.25 q 0.15,0.7 1.2,0.7 l 16.1,-0.05 0.55,-0.3 0.3,-0.4 h 0.15 V -16 l -0.2,-4 -0.05,-0.5 -0.25,-1.4 -0.1,-0.25 0.6,-0.35 q 1.45,0.05 1.85,6.55 l 0.1,1.9 0.3,0.8 h -2.8 -18.35 l -1.05,0.05 h -0.1 l -0.05,0.7 h -0.85 v -10.7 l 0.05,-0.3 h -0.05"
         fill="#a29494"
         fill-rule="evenodd"
         stroke="none"
         id="path4" />
    </g>
  </defs>
</svg>
