<?xml version="1.0" encoding="UTF-8" standalone="no"?>
<svg
   ffdec:objectType="frame"
   height="73.800003"
   width="94.638237"
   version="1.1"
   id="svg6"
   sodipodi:docname="1.svg"
   xmlns:inkscape="http://www.inkscape.org/namespaces/inkscape"
   xmlns:sodipodi="http://sodipodi.sourceforge.net/DTD/sodipodi-0.dtd"
   xmlns:xlink="http://www.w3.org/1999/xlink"
   xmlns="http://www.w3.org/2000/svg"
   xmlns:svg="http://www.w3.org/2000/svg"
   xmlns:ffdec="https://www.free-decompiler.com/flash">
  <sodipodi:namedview
     id="namedview6"
     pagecolor="#ffffff"
     bordercolor="#000000"
     borderopacity="0.25"
     inkscape:showpageshadow="2"
     inkscape:pageopacity="0.0"
     inkscape:pagecheckerboard="0"
     inkscape:deskcolor="#d1d1d1"
     fit-margin-top="5"
     fit-margin-left="5"
     fit-margin-right="5"
     fit-margin-bottom="5" />
  <g
     transform="translate(47.344118,36.9)"
     id="g1">
    <use
       ffdec:characterId="2709"
       height="73.800003"
       transform="translate(-47.35,-36.9)"
       width="94.650002"
       xlink:href="#shape0"
       id="use1" />
    <use
       ffdec:characterId="69"
       height="1.5"
       id="subplatform1"
       transform="matrix(0.0462,0,0.317,0.86,-30.4346,-32.58)"
       width="1320.3"
       xlink:href="#sprite0" />
  </g>
  <defs
     id="defs6">
    <g
       id="shape0"
       transform="translate(47.35,36.9)">
      <path
         d="m -44.55,30.75 q -1.15,-2.45 -1.8,-5.75 -1.3,-6.3 -0.9,-13.45 l 0.1,-5.45 q 0.15,-3.2 0.7,-5.5 l 0.95,-5.55 0.2,-0.9 h 0.2 v -0.3 h 0.15 l -0.15,-0.7 v -1 l 0.3,-2.85 v -0.1 q 0.25,-3.65 1.9,-8.25 1.75,-4.75 4.1,-7.9 1.35,-1.8 4.65,-3.9 l 3.85,-2.05 2.6,-0.9 8.9,-2.05 5.7,-0.7 4.25,-0.25 6.05,-0.1 2.7,0.15 h 0.15 l 2.7,-0.15 6.05,0.1 4.25,0.25 5.7,0.7 8.9,2.05 2.6,0.9 3.85,2.05 q 3.3,2.1 4.65,3.9 2.35,3.15 4.1,7.9 1.65,4.6 1.9,8.25 v 0.1 l 0.3,2.85 v 1 l -0.15,0.7 h 0.15 v 0.3 h 0.2 l 0.2,0.9 0.95,5.55 q 0.55,2.3 0.7,5.5 l 0.1,5.45 Q 47.6,18.7 46.3,25 44.35,34.75 38.6,36.9 H 30.7 L 30.45,36.75 H -30.5 l -0.25,0.15 h -7.85 q -3.45,-1.25 -5.5,-5.2 l -0.45,-0.95 m 74.3,-61.6 -3.7,-1.3 h -0.1 l -0.8,-0.2 -0.2,-0.05 -0.8,-0.15 -0.25,0.25 -0.6,0.5 -0.5,0.55 q -1.1,1.4 -1.85,3.65 l -0.45,1.3 -1,1.6 q -1.65,1.55 -5.6,1.85 H 8 L 7.35,-23 H -7.4 l -0.65,0.15 h -5.9 q -2.5,-0.2 -4.05,-0.85 -0.3,0.25 -0.95,0.45 -1.15,0.35 -1.15,0.75 l 0.25,1.1 0.15,0.4 0.1,0.9 -0.05,0.6 q -0.2,0.3 -1.3,0.3 l -1.4,-0.2 1.85,-0.4 0.6,-1.05 -0.1,-0.25 -0.65,-1.55 1,-1.05 0.75,-0.5 -0.65,-0.5 q -0.8,-0.8 -1.45,-2.9 -0.9,-2.7 -2.35,-4.2 l -0.85,-0.75 -1.9,0.4 q -2.2,0.6 -4.3,1.55 h -0.1 l 0.05,0.15 q 0.85,0.95 1.6,2.4 0.85,1.65 1.55,3.95 l 0.5,2 0.7,2.1 q 0.15,1.4 0.8,2.1 l 0.85,0.6 h 0.75 l 0.05,0.3 3.8,0.5 19.1,0.15 H -0.1 0 0.7 l 19.1,-0.15 q 4.3,-0.2 5.45,-1.4 0.65,-0.7 0.8,-2.1 l 0.7,-2.1 0.5,-2 q 1.3,-4.3 3.15,-6.35 l 0.05,-0.15 h -0.1 l -0.6,-0.25 m -9.6,1.75 0.05,-0.2 0.1,-0.35 q 0.6,-1.85 1.95,-3.3 l -2,-0.35 -6.15,-0.9 -1.9,-0.25 H -1.25 l -0.15,0.1 q -1,0.8 -1.1,3.3 l 0.2,0.05 1.25,0.4 0.15,0.25 q -0.2,0.3 -1,0.3 l -1.1,-0.15 -0.1,-0.45 0.05,-0.15 -0.35,-1.1 v -1.65 l 0.7,-0.9 h -9.55 l -1.9,0.25 -8.15,1.25 0.5,0.6 0.9,1.3 0.15,0.35 0.35,0.9 0.15,0.5 0.35,0.75 1.15,2.2 q 0.8,1.3 3.15,1.9 l 2.05,0.35 h 9.8 17.25 q 4.05,-0.45 5.2,-2.25 l 1.45,-2.75 m 21.3,12.25 -0.25,-0.95 -0.4,-1.45 -1.45,-3.4 -2,-2.75 -0.65,-0.7 q -1.65,-1.65 -3.55,-2.9 l -1.4,-0.85 -0.25,0.55 -0.55,0.9 -0.45,0.75 v 0.05 l -0.5,0.85 q -0.35,0.7 -0.6,2.1 l -0.5,2.15 q -0.2,2.8 -0.85,4.2 l -0.3,0.5 3.3,-1.15 4.2,-0.45 q 2.1,0.25 4,1.55 l 0.6,0.45 0.05,0.05 1.9,1.95 -0.35,-1.45 m -29.1,-11.1 -0.05,0.45 q -0.2,0.45 -0.8,0.45 -0.45,0 -0.65,-0.45 l -0.05,-0.05 -0.1,-0.4 q 0,-0.8 0.85,-0.8 0.8,0 0.8,0.8 m 0.15,15.5 -0.15,-0.6 -0.2,-1.2 V -14.7 H 8.6 l -0.1,0.15 -0.1,0.25 -0.15,0.35 -0.1,0.7 0.1,1.5 v 0.65 l 0.05,0.4 0.25,1.45 0.2,1.05 0.15,0.7 0.15,0.6 v 0.05 l 7.65,-0.05 -1.1,-1.05 -0.4,-0.4 -1.8,-2.35 q -0.6,-0.9 -0.9,-1.75 m 6.65,0.55 0.05,-0.5 0.05,-0.3 q 0.25,-1.45 0.75,-2 h -7.1 l 0.25,1 q 0.3,1.05 0.75,2 l 0.55,1 0.1,0.15 q 1,1.4 3.1,2.85 l 0.6,0.4 0.55,0.4 h 0.65 l -0.3,-0.9 -0.05,-0.3 -0.05,-2.6 0.1,-1.2 M 7.3,-13 7.25,-13.4 v -0.05 q -0.05,-0.6 0.2,-1.25 L 0.8,-14.75 0,-14.8 h -0.05 l -0.8,0.05 -6.65,0.05 q 0.25,0.65 0.2,1.25 v 0.25 l -0.15,2.5 q -0.2,1.75 -0.5,2.95 l -0.25,0.9 H 8.15 L 8.1,-7 7.85,-7.95 7.6,-9.2 7.4,-10.7 7.3,-13 M -0.3,0.1 -0.1,0 V -0.1 L 0,-0.05 0.05,-0.1 V 0 l 0.15,0.05 1.1,0.5 q 1.75,0.75 1.75,1.2 v 0.1 L 2.95,2.1 2.9,2.25 H 2.05 1.45 0.75 0.05 -0.1 -0.55 -0.8 -1.5 -2.1 -2.95 L -3,2.1 -3.05,2 V 1.95 L -3.1,1.75 q 0,-0.45 1.75,-1.2 L -0.3,0.1 M 5.15,1.5 5.05,1.05 q 0,-1.3 0.65,-2.6 l 0.75,-1.25 0.5,-0.55 q 0.7,-0.8 1.55,-1.3 H -8.55 q 1,0.6 1.85,1.6 l 0.2,0.25 q 0.8,1.15 1.15,2.25 Q -5.1,0.2 -5.1,1 V 1.05 L -5.25,1.65 -5.85,2.1 -7.6,-1.05 Q -9.2,-4 -11.9,-4.2 l 0.1,1.6 q 0,1.2 -0.55,1.6 l -1.8,1.4 q 2.05,0.4 3.8,2.25 1.75,1.85 2,3 L -8.3,6 -8.45,7.55 q -0.2,0.7 -0.6,0.95 -1.3,0.8 -7.95,2 h -3.95 q -0.35,-0.2 -0.7,-0.3 l -0.2,-0.1 -4.1,-1.9 -0.55,-0.4 q -0.6,-0.65 -0.6,-1.6 0,-1.25 3.3,-3.55 3.75,-2.7 7.05,-2.2 l 2,-0.1 1.7,-1.55 q 0.8,-0.55 0.8,-1.5 l -0.4,-1.5 q -5.45,0.05 -8.4,1.7 -1.7,0.95 -3.55,2.9 -0.55,-0.15 -0.55,-0.65 l 0.35,-0.85 0.3,-0.35 0.35,-0.3 1.15,-0.9 0.4,-0.25 0.5,-0.3 1.3,-0.7 0.4,-0.2 1.2,-0.55 h -10.85 l -0.1,1.35 v 0.2 l -0.05,0.65 -0.05,0.7 v 3.7 2.45 l -0.25,6.75 -0.15,6.7 0.15,7.2 0.05,0.6 v 0.25 l 0.05,0.95 0.15,3.75 v 0.25 0.2 1.25 l -0.1,1.2 -0.05,0.4 -0.05,0.3 h 3.65 l 0.2,-0.3 -0.15,-0.4 v -0.1 l -1.65,-1.45 q -0.85,-1 -0.85,-1.9 0,-0.55 0.3,-0.55 h 0.05 q 0.2,0.05 0.5,0.3 l 1.25,1.4 0.2,0.15 q 0.15,0.05 0.45,0.2 l 1.45,0.7 2.35,1.1 3.85,0.85 h 0.55 37.1 0.2 l 0.3,-0.1 -0.15,-3.35 0.35,-1.5 0.35,-1.15 q -1.05,-3.25 -1.8,-4.4 l -1.55,-2.55 -0.85,-1.7 q 0.25,-2.3 0.8,-3.55 l 0.8,-1.2 -2.3,-0.35 q -2,-0.65 -4.15,-2.3 L 10.75,12 8.3,9.8 Q 7.65,9.1 7.65,8.7 L 7.7,8.45 7.95,8.4 8.8,8.9 l 4.2,2.65 0.7,0.4 2.2,0.8 2.4,0.3 0.35,-0.3 0.05,-0.3 -0.25,-1.5 V 10.9 l -0.1,-0.4 h -1.4 l -1.1,-0.2 H 15.8 l -0.9,-0.15 -0.35,-0.1 -0.5,-0.1 -0.8,-0.15 Q 9.9,9.05 9,8.5 L 8.95,8.45 Q 8.25,7.9 8.25,6 8.25,4.8 10.3,2.65 L 11.7,1.45 11.65,1.4 11.45,0.75 q 0,-0.45 0.3,-0.5 l 0.5,0.85 q 2,-1.15 4.45,-0.65 3.3,-0.5 7.05,2.2 3.3,2.3 3.3,3.55 0,1.25 -1.05,1.95 l -0.1,0.05 -0.8,0.4 -4.25,1.9 h -1.7 l 0.05,0.1 0.05,0.3 0.05,1.25 V 12.7 12.95 13 l 0.7,-0.2 2.75,-1.45 0.4,-0.25 2.6,-1.85 0.1,-0.1 q 0.45,0 0.6,0.25 l 0.15,0.55 -0.15,0.5 -1.3,1.35 -1.05,0.75 -0.35,0.2 -2.65,1.3 -2.4,0.55 -1.15,0.1 0.1,0.4 v 0.15 l -0.1,0.6 -0.4,1.3 -0.05,0.15 q -0.5,1.35 -0.5,2 l 1.95,3.95 q 1.95,3.95 1.95,4.85 l -0.7,5.9 2.85,-0.65 2.35,-1.1 2.1,-1.05 1.25,-1.4 0.4,-0.25 q 0.45,-0.25 0.45,0.5 0,1.55 -2.5,3.35 v 0.1 l -0.05,0.25 -0.1,0.15 0.2,0.3 H 30.4 V 34.15 L 30.35,33.9 Q 30.2,32.95 30.2,31.25 V 30.6 30.25 L 30.4,25.9 30.45,25.1 30.6,17.85 30.45,11.15 30.2,4.4 V 3.75 -1.75 L 30.15,-3.3 30,-4.65 H 19.15 q 0.55,0.25 1.2,0.55 4.75,2.35 4.75,3.85 L 25,0.15 24.55,0.4 22.85,-1.2 21.5,-2.2 21,-2.5 Q 18.35,-4 13.65,-4.15 l 0.05,0.6 -0.15,1.45 q -0.4,0.85 -1.65,1.35 L 11.75,-1.1 12.4,-1.85 Q 13,-2.4 13,-3.15 l 0.1,-1.05 h -0.9 q -2.95,0 -4.65,3.15 L 5.8,2.1 Q 5.45,2.1 5.2,1.65 L 5.15,1.5 m 15.1,-13.2 -0.1,1 v 1.1 l 0.1,0.7 q 0.15,0.9 0.6,1.9 l 0.1,0.1 22,-0.1 v -0.4 l -0.25,-3.7 -0.05,-0.8 -1,-1.6 -1.25,-1.9 -1.5,-1.35 q -1.5,-1.05 -3.3,-1.35 v 1 1.05 l -0.1,0.45 q -0.35,0.95 -1.85,1.65 h -0.2 -0.05 l 0.25,0.6 -0.3,2.1 h -0.3 q -0.15,-0.9 -0.15,-2.1 0,-0.4 0.3,-0.75 l 0.05,-0.05 0.05,0.05 q 1.8,-0.85 1.7,-2.5 -0.05,-1 0.05,-1.6 H 34.9 34.75 l -0.7,-0.05 -2.95,0.35 -1.75,0.55 -2.55,0.8 -0.25,-0.1 q -1.85,1.25 -5.5,1.95 H 21 q -0.55,1.55 -0.75,3 m 11.65,8.4 0.1,1.2 q 0.25,11.05 0.5,13.5 v 6.65 l 0.7,-1.55 2.85,-6.85 q 0.7,-2.6 0.5,-5.6 L 36.6,0.1 q 0.1,-0.75 0.4,-1 L 37.25,-1 q 0.5,-0.15 1.55,1 l 0.15,0.25 0.45,1 0.2,1 v 0.4 L 39.65,2.9 39.75,4.4 39.8,5 V 5.05 L 39.85,5.4 Q 39.7,6.2 40.15,8.15 40.3,8.7 41.2,9.6 l 1.2,1.4 0.35,0.65 0.55,1.05 1,2 0.85,1.8 0.05,-2.85 -0.1,-2.1 V 9.8 l -0.05,-1.5 -0.1,-2.25 -0.1,-1 Q 41.8,3.75 39.4,-0.65 l -0.35,-0.75 -1,-2.25 -0.35,-1 H 37 31.95 L 31.9,-3.3 m 10.85,5.2 0.7,0.65 1.3,1.1 L 44.65,2.7 44.6,2.55 44.45,1.2 44.2,-0.6 43.8,-3.05 43.6,-4.65 h -4.8 l 0.1,0.35 0.05,0.25 0.25,0.75 0.4,1 q 0.95,2.1 3.15,4.2 m -63.1,-14.2 -0.05,-0.2 -0.2,-0.7 -0.4,-1.35 -0.05,-0.15 h -0.05 l -3.5,-0.95 q -1.2,-0.45 -2,-1 l -0.25,0.1 -2.55,-0.8 -1.75,-0.55 -2.95,-0.35 q -2,0 -3.65,0.8 -1.5,0.7 -2.7,2.05 l -1.3,2 -0.25,0.45 -0.7,1.05 -0.1,1.85 -0.1,1.5 -0.1,1.55 22,0.1 0.1,-0.1 0.4,-0.95 0.3,-1.65 v -1.1 l -0.15,-1.6 m -21.2,-4.25 -0.3,1.15 1.9,-1.95 0.5,-0.35 1.95,-1.1 0.7,-0.25 q 2.65,-0.85 5.7,0.1 l 3.3,1.15 -0.3,-0.5 q -0.65,-1.4 -0.85,-4.2 l -0.5,-2.15 q -0.25,-1.4 -0.6,-2.1 l -0.15,-0.3 -0.35,-0.6 -0.6,-1 -0.4,-0.65 -0.15,-0.35 -0.1,-0.2 -0.15,0.1 -1.15,0.7 -3.65,2.95 -1.95,2.4 q -1.35,1.95 -2.15,4.45 l -0.15,0.6 -0.2,0.85 -0.35,1.25 m 2.35,13.2 0.2,-0.7 0.15,-0.6 h -4.8 l -0.05,0.4 v 0.05 l -0.5,3.4 v 0.05 l -0.05,0.15 -0.15,1.35 -0.25,1.75 v 0.2 l -0.05,0.1 -0.1,0.85 1.2,-1 0.1,-0.1 0.75,-0.7 0.45,-0.4 q 1.8,-1.9 2.65,-3.75 l 0.4,-1 0.05,-0.05 m 1.65,-7.3 q 0.55,-0.2 0.55,0.45 l -0.1,0.3 -0.5,0.3 -0.45,-0.15 -0.05,-0.4 0.55,-0.5 m -0.05,6 h -0.15 v 0.1 l -0.5,1.4 -1.2,2.5 q -1.95,3.6 -4.35,5.15 l -1.1,0.55 -0.15,2.35 -0.1,3.25 v 0.9 l -0.05,3.55 v 1.4 l 1.55,-3.15 1.2,-2.35 1.2,-1.4 q 0.9,-0.9 1.05,-1.45 0.45,-1.95 0.3,-2.75 l 0.25,-2.6 V 2.65 q 0.1,-1.8 0.8,-2.65 1.15,-1.25 1.75,-0.95 0.35,0.2 0.45,1.05 v 1 2 l 0.05,0.95 q -0.2,3 0.5,5.6 l 2.85,6.85 0.7,1.55 V 11.4 q 0.25,-2.45 0.5,-13.5 l 0.1,-1.6 -0.05,-0.95 h -4.75 -0.85 M -4,-19.35 q 0.4,0 0.45,0.15 v 0.15 l -0.3,0.15 -0.45,-0.15 0.3,-0.3 m -4.25,7 0.05,-0.9 q 0,-0.65 -0.35,-1.3 l -0.1,-0.15 h -3.55 v 0.45 q -0.05,0.9 -0.35,1.8 -0.3,0.85 -0.9,1.75 l -1.8,2.35 -0.1,0.15 -1.4,1.3 7.65,0.05 0.2,-0.7 0.1,-0.45 v -0.2 l 0.15,-0.9 0.3,-1.6 0.05,-0.4 0.05,-1.25 m -5.1,-0.85 0.25,-0.85 0.15,-0.65 h -7.1 l 0.05,0.05 0.35,0.6 0.1,0.25 0.15,0.6 0.05,0.25 0.05,0.2 0.05,0.35 0.15,1.7 v 0.05 l -0.05,2.45 v 0.1 l -0.35,1.2 h 0.65 l 0.55,-0.4 q 2.15,-1.4 3.3,-2.75 l 0.4,-0.5 0.1,-0.15 1.15,-2.5 m 5.6,21.65 0.05,0.25 q 0,0.6 -1.3,1.8 l -1.8,1.5 q -1.95,1.5 -3.75,2.2 l -2.8,0.5 h -0.25 l -2.6,-0.35 -1.25,-0.4 -0.65,-0.3 -0.5,-0.25 -0.5,-0.25 -0.7,-0.4 -0.95,-0.6 -0.7,-0.55 q -1.05,-0.85 -1.15,-1.45 l -0.05,-0.2 0.2,-0.6 0.55,-0.2 0.2,0.2 0.9,0.65 1.6,1.1 0.15,0.1 0.1,0.05 0.6,0.4 1.55,0.8 1.3,0.5 0.85,0.1 h 0.45 q 2.6,-0.1 4.6,-1.15 L -13.05,11.55 -8,8.4 -7.75,8.45 M -9,10.75 -8.6,10.4 q 1.05,-0.75 2.15,-0.9 h 1.25 l 0.6,0.1 0.5,0.15 -1.75,1.15 -2,1.4 q -1.1,1.05 -1.1,2.9 l 0.05,0.25 0.3,0.9 q 0.55,0.8 1.45,0.8 L -5.75,16.9 -6,16.6 q 0,-0.7 0.75,-0.75 0.8,-0.15 1.85,1 l 1.9,1.4 1.4,-0.25 h 0.15 l 1.4,0.25 1.9,-1.4 q 1.05,-1.15 1.85,-1 0.75,0.05 0.75,0.75 l -0.25,0.3 1.4,0.25 q 0.9,0 1.45,-0.8 L 8.9,15.2 V 14.95 L 8.75,14 Q 8.5,12.95 7.8,12.3 L 7.7,12.2 5.8,10.9 4.05,9.75 4.35,9.65 Q 6.3,9 8.1,10.1 l 0.45,0.3 q 0.9,0.7 1.45,1.65 l 0.5,1.25 0.15,0.9 0.05,0.9 -0.1,1.3 -0.05,0.7 q -0.7,1.65 -3.4,1.8 H 6.8 6.65 L 4.75,18.55 4.55,18.45 4.4,18.35 4.15,18.6 2.8,19.45 0.05,20.1 H -0.1 L -2.25,19.65 -2.8,19.45 -4.1,18.6 -4.45,18.35 -4.7,18.5 -4.8,18.55 -6.7,18.9 -7.65,18.85 Q -9.95,18.6 -10.6,17.1 l -0.15,-2 0.05,-0.75 0.15,-0.95 0.05,-0.15 0.05,-0.15 q 0.4,-1.4 1.45,-2.35 M -3.2,9.1 -3.25,8.85 q 0,-0.8 1.9,-0.95 H -0.1 0 0.05 1.3 Q 3.2,8.05 3.2,8.85 L 3,9.35 2.3,9.5 H 0.05 -0.1 -2.35 Q -3.1,9.5 -3.2,9.1 m -20.75,-4.15 -0.3,1.1 0.4,1.05 0.4,0.25 q 1.35,0.75 2.95,1 l 1.6,0.1 h 0.1 0.2 l 5.4,-0.65 1.9,-0.65 0.4,-0.65 0.05,-0.05 Q -10.75,5.9 -11,5 l -0.85,-1 q -1.95,-1.9 -5.7,-1.8 -4.1,0.05 -6.15,2 l -0.25,0.75 M -8.15,20.2 -7.1,20 -4.25,20.15 -4.1,20.2 0,21.4 0.9,21.15 3.75,20.3 4.05,20.2 5.9,19.9 H 6.3 L 8,20.2 q 1.05,0.3 2.1,0.95 1,0.65 2.1,1.1 0.5,-0.4 1.9,0.6 l 0.4,0.05 -0.1,0.15 0.45,0.35 1.5,1.4 1,1.4 q 0.4,0.85 0.4,1.7 0.3,1.4 -0.85,1.4 -0.3,0 -0.9,-0.4 L 14.85,28.2 14.1,27.95 12.7,27.8 Q 11.15,27.6 9.45,27 6.65,26 1.4,26 L 0.05,26.15 V 26.2 H 0 -0.1 L -1.45,26 q -5.25,0 -8.05,1 l -3.35,0.85 -1.3,0.1 -0.75,0.25 q -0.25,0.05 -0.5,0.25 l -0.65,0.45 q -0.6,0.4 -0.9,0.4 h -0.1 q -1.05,-0.1 -0.75,-1.4 0,-1.15 0.9,-2.4 l 0.95,-1.1 1.05,-1 0.45,-0.35 -0.1,-0.15 0.4,-0.05 q 1.4,-1 1.9,-0.6 1.1,-0.45 2.1,-1.1 0.95,-0.65 2,-0.95 m 0.1,2 1.2,2.55 L -5.3,24.6 0,24.95 5.25,24.6 Q 7,24.6 10,25.45 l 4.3,0.8 0.05,0.1 1.1,0.2 -0.15,-0.1 Q 15,25.8 13.45,24.7 11.3,24.35 9.95,23.35 q -2.7,-2 -4.6,-2 -0.85,0 -2.6,0.9 l -2,0.85 H 0.05 -0.1 -0.8 l -2,-0.85 q -1.75,-0.9 -2.6,-0.9 -1.15,0 -2.6,0.75 l -0.05,0.1 M -10,23.35 q -1.35,1 -3.5,1.35 l -0.8,0.65 -0.8,0.75 -0.25,0.35 -0.15,0.1 1.1,-0.2 0.05,-0.1 1.6,-0.15 2.7,-0.65 2.4,-0.55 -0.9,-2.5 -1.45,0.95 M -34.15,2.3 q 0,0.35 -0.15,0.25 L -34.65,2.7 -35.2,2.25 q 0,-0.6 0.9,-0.35 0.15,0.05 0.15,0.4 M -37.45,7.35 -37.5,7 -37.45,2.2 V 0.9 L -37.8,0.75 q -0.8,0 -1.05,2.3 l -0.1,3.75 Q -39,8 -40.1,9.85 L -42,12.9 q -1.05,1.65 -1.65,3.45 l -0.55,2.25 -0.1,0.35 -0.35,3.7 0.2,1.15 0.2,0.85 1,3.65 1.2,-1.4 q 1,-1 1.8,-1.45 l -0.1,-0.35 0.35,-0.75 0.45,-0.5 0.15,0.4 -0.05,0.65 -0.1,0.5 -0.35,0.15 -3.05,3.45 0.75,1.5 1,1.55 1.1,1.1 0.95,0.7 1.05,0.55 0.3,0.1 2.65,0.45 2.2,-0.25 0.4,-0.9 q 0.15,-0.35 0.2,-1.3 l 0.05,-0.25 V 31.7 30.6 29.75 l -0.15,-5.6 v -0.7 l -2.75,0.35 -2.6,0.5 -0.1,-0.05 -0.35,-0.1 0.4,-0.6 3.25,-0.4 0.15,-0.15 1.2,-0.05 v -0.1 l 0.75,0.1 -0.05,-2.55 -1.4,-2.6 -2.55,-5.95 q -0.8,-2.15 -0.95,-4.5 m -5.4,13.4 q -0.6,-0.05 -0.45,-0.55 0,-0.55 0.55,-0.6 h 0.05 q 0.6,0 0.6,0.55 l -0.2,0.4 q -0.15,0.2 -0.4,0.2 h -0.15 m 58,8.9 -0.8,0.95 -2.1,1.15 -0.1,0.05 -0.9,0.4 L 9.7,32.7 8.55,33 5.3,33.35 0.05,33.25 H -0.1 l -5.25,0.1 q -3.4,0 -6.85,-1.55 l -0.95,-0.45 -0.45,-0.25 q -1.65,-0.95 -1.65,-1.7 l 0.25,-0.65 0.7,-0.05 2.5,1.3 2.2,0.85 5.2,0.65 4.3,-0.15 V 31.3 h 0.15 v 0.05 l 4.3,0.15 5.2,-0.65 2.2,-0.85 q 1.75,-1.1 2.5,-1.3 0.95,-0.25 0.95,0.7 l -0.05,0.25 m 20.3,-15.25 -1.55,3.4 -1.4,2.6 -0.25,10 v 0.2 l 0.1,2.55 0.15,0.65 0.4,0.9 2.2,0.25 q 1.9,0 3.5,-0.8 l 1.55,-1.05 0.4,-0.35 0.6,-0.7 q 2.2,-2.8 3.25,-8.25 l 0.2,-1.15 -0.35,-3.7 -0.5,-2.2 -0.6,-1.55 -1.2,-2.3 -1.9,-3.05 Q 38.95,8 38.9,6.8 L 38.8,3.05 38.55,1.75 Q 38.3,0.9 37.9,0.8 L 37.75,0.75 37.4,0.9 v 1.3 l 0.05,4.8 -0.15,1.5 -0.05,0.4 -0.8,2.95 -1,2.55 m 6.75,3.4 -0.2,0.5 q -0.3,0.45 -0.8,0.45 -0.95,0 -0.95,-0.95 0,-0.8 1,-0.8 0.4,0 0.65,0.15 l 0.3,0.65 M 33.45,2.05 q 0.65,0 0.65,0.65 0,0.65 -0.7,0.65 L 32.85,3 32.75,2.7 q 0,-0.65 0.7,-0.65 M 11.05,4.9 10.95,5 q -0.25,0.95 -0.1,1.5 l 0.4,0.65 1.9,0.65 5.7,0.65 q 2.5,0 4.55,-1.1 L 23.8,7.1 24.2,6.05 23.65,4.2 23.6,4.15 Q 21.5,2.25 17.5,2.2 12.9,2.1 11.05,4.9 M 37.9,30.15 q 0,-0.5 0.5,-0.55 0.5,0 0.5,0.5 l -0.1,0.35 q 0.1,0.15 -0.3,0.15 L 38,30.5 37.9,30.15"
         fill="#6b6b6b"
         fill-rule="evenodd"
         stroke="none"
         id="path1" />
      <path
         d="m -44.1,31.7 q -0.6,-0.05 -0.55,-0.55 l 0.1,-0.4 0.45,0.95 m 24.4,-52.7 -0.15,-0.4 -0.25,-1.1 q 0,-0.4 1.15,-0.75 0.65,-0.2 0.95,-0.45 1.55,0.65 4.05,0.85 h 5.9 L -7.4,-23 H 7.35 L 8,-22.85 h 5.9 q 3.95,-0.3 5.6,-1.85 l 1,-1.6 0.45,-1.3 q 0.75,-2.25 1.85,-3.65 l 0.5,-0.55 0.6,-0.5 0.25,-0.25 0.8,0.15 0.2,0.05 0.8,0.2 h 0.1 l 3.7,1.3 v 0.15 l -2.25,2.25 -3.85,3.85 q -1.2,1.4 -3.5,2.45 -3.6,1.6 -8.6,1.6 h -0.5 l -0.55,0.1 -9.4,0.75 h -6.05 l -0.6,-0.1 -5.25,-0.05 q -5.75,-0.1 -8.9,-1.15 m -9.15,-7.05 q -0.75,-1.45 -1.6,-2.4 l -0.05,-0.15 h 0.1 q 2.1,-0.95 4.3,-1.55 l 1.9,-0.4 0.85,0.75 q 1.45,1.5 2.35,4.2 0.65,2.1 1.45,2.9 l 0.65,0.5 -0.75,0.5 -1,1.05 0.65,1.55 -1.1,-0.5 q -1.85,-0.95 -4.05,-3.15 l -3.7,-3.3 m 8.95,-0.5 -0.35,-0.75 -0.15,-0.5 -0.35,-0.9 -0.15,-0.35 -0.9,-1.3 -0.5,-0.6 8.15,-1.25 1.9,-0.25 h 9.55 l -0.7,0.9 v 1.65 l 0.35,1.1 -0.05,0.15 0.1,0.45 1.1,0.15 q 0.8,0 1,-0.3 L -1.05,-30.6 -2.3,-31 -2.5,-31.05 q 0.1,-2.5 1.1,-3.3 l 0.15,-0.1 H 12.2 l 1.9,0.25 6.15,0.9 2,0.35 q -1.35,1.45 -1.95,3.3 l -0.1,0.35 -0.05,0.2 q -3.15,2.8 -6.75,2.8 l -5.85,0.05 -0.45,0.1 h -15 q -8.7,-0.35 -12,-2.4 m 16.15,4.45 h -9.8 l -2.05,-0.35 5.3,0.25 6.3,0.05 0.25,0.05 m 34.25,-3.5 v -0.05 l 0.45,-0.75 0.55,-0.9 0.25,-0.55 1.4,0.85 q 1.9,1.25 3.55,2.9 l 0.65,0.7 2,2.75 1.45,3.4 0.4,1.45 0.25,0.95 H 41.2 q -0.1,0 -1.35,-0.55 l -0.6,-0.45 q -1.9,-1.3 -4,-1.55 l -1.1,-0.4 q -2.45,-0.65 -3.25,-1.4 -0.65,-0.6 -0.65,-1.75 l 0.25,-4.65 m -18.15,-0.35 q 0,-0.8 -0.8,-0.8 -0.85,0 -0.85,0.8 l 0.1,0.4 0.05,0.05 q 0.2,0.45 0.65,0.45 0.6,0 0.8,-0.45 l 0.05,-0.45 m -4.1,16.2 -0.1,-1.5 0.1,-0.7 0.15,-0.35 0.1,-0.25 0.1,-0.15 h 3.55 v 0.45 l 0.2,1.2 0.15,0.6 q -1,0.9 -3.7,0.9 -0.3,0 -0.55,-0.2 m 5.65,0.05 q -0.45,-0.95 -0.75,-2 l -0.25,-1 H 20 q -0.5,0.55 -0.75,2 l -0.05,0.3 -0.05,0.5 H 19 q -0.6,0 -1,-0.3 l -3.55,0.65 q -0.25,0 -0.55,-0.15 m -21.2,-1.5 v -0.25 q 0.05,-0.6 -0.2,-1.25 l 6.65,-0.05 0.8,-0.05 H 0 l 0.8,0.05 6.65,0.05 q -0.25,0.65 -0.2,1.25 v 0.05 l 0.05,0.4 -0.25,-0.4 -4.45,0.05 -2.8,0.3 -2.5,0.15 -4.6,-0.3 m 27.55,1.5 q 0.2,-1.45 0.75,-3 h 0.05 q 3.65,-0.7 5.5,-1.95 l 0.25,0.1 2.55,-0.8 1.75,-0.55 2.95,-0.35 0.7,0.05 0.05,0.1 0.1,-0.1 h 0.15 q -0.1,0.6 -0.05,1.6 L 34.75,-17 q -0.3,0.8 -1.2,1.7 -1.65,1.55 -4.2,1.65 -1.25,0.05 -4.45,1.2 l -3.7,1.2 q -0.65,0 -0.95,-0.45 m 15.35,-4.35 v -1.05 -1 q 1.8,0.3 3.3,1.35 l 1.5,1.35 1.25,1.9 1,1.6 0.05,0.8 h -0.3 q -1.4,0 -2.85,-1.5 l -1.7,-1.85 -2.25,-1.6 m -18.5,33.35 0.05,-0.15 0.4,-1.3 0.1,-0.6 1.05,-0.65 2.4,-0.55 2.65,-1.3 0.35,-0.2 q 3.25,-0.7 3.25,1.95 0,0.65 -2.55,3.25 -2.75,2.8 -4.05,2.8 -1.9,0 -3.15,-2.05 L 17.1,17.3 M 26.45,9.4 Q 26.3,9.15 25.85,9.15 l -0.1,0.1 -2.6,1.85 -0.4,0.25 -3.45,1.35 V 12.15 L 19.25,10.9 19.2,10.6 19.15,10.5 h 1.7 L 25.1,8.6 25.9,8.2 26,8.15 l 1.5,0.15 0.05,0.1 -1.1,1 M 8.95,8.45 9,8.5 q 0.9,0.55 4.25,1.3 l 0.8,0.15 0.5,0.1 0.35,0.1 0.9,0.15 h 0.05 l 1.1,0.2 h 1.4 l 0.1,0.4 v 0.05 l 0.25,1.5 -0.05,0.3 H 15.9 L 13.7,11.95 13,11.55 8.8,8.9 Q 8.8,8.65 8.95,8.45 M -26.5,7.8 l 0.55,0.4 4.1,1.9 0.2,0.1 q 0.35,0.1 0.7,0.3 H -17 q 6.65,-1.2 7.95,-2 0.4,-0.25 0.6,-0.95 0.35,0.05 0.55,0.3 0.15,0.2 0.15,0.55 V 8.45 L -8,8.4 l -5.05,3.15 -0.55,0.35 q -2.05,0.7 -3.35,0.7 l -3.65,-0.55 -1.65,-0.55 -0.6,-0.25 -0.2,-0.05 -0.15,-0.1 -1.6,-1.1 -0.9,-0.65 -0.2,-0.2 -0.55,0.2 -0.15,-0.2 -0.25,-0.5 q 0,-0.6 0.35,-0.85 M 37,-4.65 h 0.7 l 0.35,1 1,2.25 0.35,0.75 q 2.4,4.4 5.45,5.7 l 0.1,1 0.1,2.25 0.05,1.5 v 1.75 l 0.1,2.1 -0.05,2.85 -0.85,-1.8 -1,-2 -0.55,-1.05 -0.1,-2.5 Q 42.3,7.75 40.75,5.65 L 39.8,4.45 V 5 L 39.75,4.4 39.65,2.9 39.6,2.65 v -0.4 l -0.2,-1 -0.45,-1 L 38.8,0 Q 37.75,-1.15 37.25,-1 L 37,-0.9 Q 36.4,-2.3 36.4,-3.3 V -3.4 Q 36.45,-4 37,-4.65 M 39.2,-3.3 38.95,-4.05 38.9,-4.3 38.8,-4.65 h 4.8 l 0.2,1.6 0.4,2.45 0.25,1.8 0.15,1.35 0.05,0.15 0.1,0.95 -1.3,-1.1 L 42.75,1.9 42.65,1.7 42.7,1.15 42.4,0.35 Q 41.8,-1.45 41.8,-3 l -2.6,-0.3 m -82,-6.75 0.1,-1.85 0.7,-1.05 0.25,-0.45 1.3,-2 q 1.2,-1.35 2.7,-2.05 1.65,-0.8 3.65,-0.8 l 2.95,0.35 1.75,0.55 2.55,0.8 0.25,-0.1 q 0.8,0.55 2,1 l 3.5,0.95 h 0.05 l 0.05,0.15 0.4,1.35 0.2,0.7 0.05,0.2 -0.6,0.1 q -0.8,0 -3.85,-0.95 -3.05,-1 -4.7,-1 l -6,0.75 -2.25,0.8 -4.85,2.55 h -0.2 m 3.35,-7.65 -2.1,1.15 0.35,-1.25 0.2,-0.85 0.15,-0.6 q 0.8,-2.5 2.15,-4.45 l 1.95,-2.4 3.65,-2.95 1.15,-0.7 0.15,-0.1 0.1,0.2 0.15,0.35 0.4,0.65 0.6,1 0.35,0.6 0.1,2 q 0,3.5 -3.45,4.6 l -3.25,1.4 -0.7,0.25 -1.95,1.1 m -2.85,19.15 -0.45,0.4 -0.75,0.7 -0.1,0.1 -1.2,1 0.1,-0.85 0.05,-0.1 V 2.5 l 0.25,-1.75 0.15,-1.35 0.05,-0.15 V -0.8 l 0.5,-3.4 v -0.05 l 0.05,-0.4 h 4.8 l -0.15,0.6 -0.2,0.7 h -0.1 l -0.1,0.05 -1.25,0.5 -1.15,2.4 -0.1,0.15 -0.4,1.55 v 0.15 m 4.55,-6 0.15,-0.1 h 0.85 q 0.35,0.25 0.35,1.05 v 0.45 l -0.7,2.2 q -0.6,-0.3 -1.75,0.95 -0.7,0.85 -0.8,2.65 V 2.8 l -0.45,0.5 -0.9,1.05 0.2,0.7 -1.65,5.2 -1.2,2.75 v 0.35 l -1.55,3.15 v -1.4 l 0.05,-3.55 v -0.9 l 0.1,-3.25 0.15,-2.35 1.1,-0.55 q 2.4,-1.55 4.35,-5.15 l 1.2,-2.5 0.5,-1.4 m 25.2,-7.9 q 0.3,-0.9 0.35,-1.8 v -0.45 h 3.55 l 0.1,0.15 q 0.35,0.65 0.35,1.3 l -0.05,0.9 -2.4,0.3 q -1.4,0 -1.9,-0.4 m -6.55,1.8 v -0.05 l -0.15,-1.7 -0.05,-0.35 -0.05,-0.2 -0.05,-0.25 -0.15,-0.6 -0.1,-0.25 -0.35,-0.6 -0.05,-0.05 h 7.1 l -0.15,0.65 -0.25,0.85 -1.4,0.4 -0.65,0.45 q -2.65,1.85 -3.1,1.85 l -0.6,-0.15 m 16.8,15 1.25,-0.3 H 2.3 L 3.4,4.2 3.5,4.85 2.65,6.3 Q 1.7,7.4 1.15,7.4 -1.2,7.4 -2.25,6.75 L -2.7,6.4 -3,5.6 Q -3,5 -2.5,4.55 l 0.2,-0.2 m -23.15,7.25 0.7,0.55 0.95,0.6 0.7,0.4 0.5,0.25 0.5,0.25 0.65,0.3 1.25,0.4 2.6,0.35 0.8,0.3 0.95,0.45 q 0.9,0.5 0.9,1 0,0.5 -1.7,1.7 -2.15,1.5 -4.45,1.5 h -0.05 l -2.2,-0.4 -0.65,-0.3 -0.85,-0.7 -1.2,-1.55 -0.5,-1.2 -0.4,-1.75 V 13.5 l 0.25,-1.3 0.1,-0.2 0.55,-0.4 h 0.6 M -5.2,9.5 -4.3,9.25 -3.2,9.1 q 0.1,0.4 0.85,0.4 H -0.1 0.05 2.3 L 3,9.35 l 1.35,0.3 -0.3,0.1 1.75,1.15 1.9,1.3 0.1,0.1 Q 8.5,12.95 8.75,14 L 8.9,14.95 Q 8.55,15.6 7.25,15.6 L 3.5,15.15 h -4.35 l -3.9,0.25 -2.45,0.2 -1.7,-0.15 -0.05,-0.25 q 0,-1.85 1.1,-2.9 l 2,-1.4 L -4.1,9.75 -4.6,9.6 -5.2,9.5 M -11.85,4 q -0.05,1.35 -1.35,2.4 -1.8,1.4 -5.2,1.4 h -0.35 L -19.6,7.75 q -2.35,-0.15 -3.45,-1 -0.9,-0.7 -0.9,-1.75 V 4.95 L -23.7,4.2 q 2.05,-1.95 6.15,-2 3.75,-0.1 5.7,1.8 m -32.4,20.65 -0.2,-0.85 -0.2,-1.15 0.35,-3.7 0.1,-0.35 0.55,-2.25 q 0.6,-1.8 1.65,-3.45 l 1.9,-3.05 Q -39,8 -38.95,6.8 l 0.1,-3.75 q 0.25,-2.3 1.05,-2.3 l 0.35,0.15 v 1.3 l -0.05,4.8 0.05,0.35 -0.05,0.1 q -1.05,4.75 -1.75,5.75 l -2,2.85 q -1.15,1.8 -1.45,3 l -0.05,0.55 q -0.55,0.05 -0.55,0.6 -0.15,0.5 0.45,0.55 l -0.05,1.65 q -0.25,2.2 -1.35,2.25 m 6.35,-0.4 0.1,0.05 2.6,-0.5 2.75,-0.35 v 0.7 q -0.65,0.3 -2,0.8 l -3.15,0.85 -0.6,-0.1 -1.1,1.2 -1.75,1.6 -0.95,1.7 -0.2,0.3 -0.75,-1.5 3.05,-3.45 0.35,-0.15 0.1,-0.5 q 1,-0.8 1.4,-0.5 l 0.15,-0.15 m 1.25,-23.15 0.1,0.6 -0.1,1.4 v -2 M -12.85,27.85 -9.5,27 q 2.8,-1 8.05,-1 l 1.35,0.2 H 0 0.05 V 26.15 L 1.4,26 q 5.25,0 8.05,1 1.7,0.6 3.25,0.8 v 0.25 q 0,1.3 -1.65,1.45 -3.15,0.25 -4.7,0.8 H -5.5 l -4.7,-0.75 q -2.55,-0.65 -2.65,-1.7 m 54.75,-10.7 -0.5,-0.9 -3.35,-5.15 -0.8,1.65 q -1.2,2.35 -1.95,3 h -0.15 l 0.3,-1.35 1,-2.55 0.8,-2.95 0.05,-0.1 V 8.5 L 37.45,7 37.4,2.2 V 0.9 L 37.75,0.75 37.9,0.8 q 0.4,0.1 0.65,0.95 l 0.25,1.3 0.1,3.75 q 0.05,1.2 1.15,3.05 l 1.9,3.05 1.2,2.3 0.6,1.55 0.5,2.2 0.35,3.7 -0.2,1.15 q -1.05,5.45 -3.25,8.25 l -0.6,0.7 -0.4,0.35 0.1,-0.55 v -0.1 q 0.3,-1.6 1.35,-3.75 1.5,-3.15 1.5,-6.8 0,-2.05 -0.9,-4.1 l -0.3,-0.65 m -18.3,-13 q -0.15,0.6 -0.8,1.25 -0.95,0.95 -2.65,1.55 h -4.3 Q 11.25,6.6 11.05,4.9 12.9,2.1 17.5,2.2 q 4,0.05 6.1,1.95"
         fill="#9f9f9f"
         fill-rule="evenodd"
         stroke="none"
         id="path2" />
      <path
         d="m 29.75,-30.85 0.6,0.25 h 0.1 l -0.05,0.15 q -1.85,2.05 -3.15,6.35 l -0.5,2 -0.7,2.1 q -0.15,1.4 -0.8,2.1 -1.15,1.2 -5.45,1.4 L 0.7,-16.35 H 0 -0.1 -0.75 l -19.1,-0.15 -3.8,-0.5 -0.05,-0.3 h -0.75 l -0.85,-0.6 q -0.65,-0.7 -0.8,-2.1 l -0.7,-2.1 -0.5,-2 q -0.7,-2.3 -1.55,-3.95 l 3.7,3.3 q 2.2,2.2 4.05,3.15 l 1.1,0.5 0.1,0.25 -0.6,1.05 -1.85,0.4 1.4,0.2 q 1.1,0 1.3,-0.3 l 0.05,-0.6 -0.1,-0.9 q 3.15,1.05 8.9,1.15 l 5.25,0.05 0.6,0.1 H 1.1 l 9.4,-0.75 0.55,-0.1 h 0.5 q 5,0 8.6,-1.6 2.3,-1.05 3.5,-2.45 l 3.85,-3.85 2.25,-2.25 v -0.15 m -9.6,1.75 -1.45,2.75 q -1.15,1.8 -5.2,2.25 H -3.75 l -0.25,-0.05 -6.3,-0.05 -5.3,-0.25 q -2.35,-0.6 -3.15,-1.9 l -1.15,-2.2 q 3.3,2.05 12,2.4 h 15 l 0.45,-0.1 5.85,-0.05 q 3.6,0 6.75,-2.8 m 21.3,12.25 0.35,1.45 -1.9,-1.95 -0.05,-0.05 q 1.25,0.55 1.35,0.55 h 0.25 m -6.2,-2.55 -4.2,0.45 -3.3,1.15 0.3,-0.5 q 0.65,-1.4 0.85,-4.2 l 0.5,-2.15 q 0.25,-1.4 0.6,-2.1 l 0.5,-0.85 -0.25,4.65 q 0,1.15 0.65,1.75 0.8,0.75 3.25,1.4 l 1.1,0.4 m -22.75,6.95 q 0.3,0.85 0.9,1.75 l 1.8,2.35 0.4,0.4 H 10.7 Q 9.3,-9 8.55,-9.25 L 8.3,-10.7 8.25,-11.1 v -0.65 q 0.25,0.2 0.55,0.2 2.7,0 3.7,-0.9 m 6.65,0.55 -0.1,1.2 0.05,2.6 0.05,0.3 -0.45,-0.05 -1.05,0.15 q -2.1,-1.45 -3.1,-2.85 l -0.1,-0.15 -0.55,-1 q 0.3,0.15 0.55,0.15 L 18,-12.2 q 0.4,0.3 1,0.3 h 0.15 m -26.45,-1.3 4.6,0.3 2.5,-0.15 2.8,-0.3 4.45,-0.05 0.25,0.4 0.1,2.3 0.2,1.5 -0.2,0.9 0.05,0.35 H 6.75 L 5.65,-7.8 2.9,-7.95 h -4.5 l -6.35,0.2 q 0.3,-1.2 0.5,-2.95 l 0.15,-2.5 M 0.2,0.05 1.55,0 Q 3.4,0 3.8,0.75 4.25,1.5 5,1.5 H 5.15 L 5.2,1.65 Q 5.45,2.1 5.8,2.1 L 7.55,-1.05 Q 9.25,-4.2 12.2,-4.2 h 0.9 L 13,-3.15 q 0,0.75 -0.6,1.3 l -0.65,0.75 0.15,0.35 q 1.25,-0.5 1.65,-1.35 l 0.15,-1.45 -0.05,-0.6 Q 18.35,-4 21,-2.5 l 0.5,0.3 0.4,0.3 0.95,0.7 1.7,1.6 L 25,0.15 q 1.1,0.3 3.55,2.25 L 30.2,3.75 V 4.4 l 0.25,6.75 0.15,6.7 -0.15,7.25 q -0.5,0 -0.85,0.55 -0.5,0.75 -0.6,1.8 l -0.25,2.1 -0.4,0.25 -1.25,1.4 -2.1,1.05 -2.35,1.1 -2.85,0.65 0.7,-5.9 q 0,-0.9 -1.95,-4.85 L 16.6,19.3 q 0,-0.65 0.5,-2 l 0.5,1.2 q 1.25,2.05 3.15,2.05 1.3,0 4.05,-2.8 2.55,-2.6 2.55,-3.25 0,-2.65 -3.25,-1.95 l 1.05,-0.75 1.3,-1.35 0.15,-0.5 -0.15,-0.55 1.1,-1 L 27.5,8.3 26,8.15 q 1.05,-0.7 1.05,-1.95 0,-1.25 -3.3,-3.55 Q 20,-0.05 16.7,0.45 14.25,-0.05 12.25,1.1 l -0.5,-0.85 q -0.3,0.05 -0.3,0.5 l 0.2,0.65 0.05,0.05 -1.4,1.2 Q 8.25,4.8 8.25,6 8.25,7.9 8.95,8.45 8.8,8.65 8.8,8.9 L 7.95,8.4 7.7,8.45 7.65,8.7 q 0,0.4 0.65,1.1 L 8.1,10.1 Q 6.3,9 4.35,9.65 L 3,9.35 3.2,8.85 Q 3.2,8.05 1.3,7.9 H 0.05 0 -0.1 -1.35 q -1.9,0.15 -1.9,0.95 L -3.2,9.1 -4.3,9.25 -5.2,9.5 h -1.25 q -1.1,0.15 -2.15,0.9 L -9,10.75 V 10.7 10.5 Q -7.7,9.3 -7.7,8.7 L -7.75,8.45 V 8.4 Q -7.75,8.05 -7.9,7.85 -8.1,7.6 -8.45,7.55 L -8.3,6 -8.35,5.65 q -0.25,-1.15 -2,-3 -1.75,-1.85 -3.8,-2.25 l 1.8,-1.4 q 0.55,-0.4 0.55,-1.6 l -0.1,-1.6 q 2.7,0.2 4.3,3.15 l 1.75,3.15 0.6,-0.45 0.15,-0.6 V 1 l 0.5,0.2 Q -2.7,0.35 -0.3,0.1 L -1.35,0.55 Q -3.1,1.3 -3.1,1.75 l 0.05,0.2 -0.15,0.1 Q -5.55,2.15 -5.55,3.3 -5.7,4.45 -4.6,4.5 h 0.15 L -2.5,4.4 -2.3,4.35 -2.5,4.55 Q -3,5 -3,5.6 l 0.3,0.8 0.45,0.35 Q -1.2,7.4 1.15,7.4 1.7,7.4 2.65,6.3 L 3.5,4.85 3.4,4.2 3.7,4.25 q 0.55,0 0.9,-0.35 L 4.85,3.2 Q 4.85,2.45 4.3,2.15 L 3.05,1.85 V 1.75 Q 3.05,1.3 1.3,0.55 L 0.2,0.05 m 20.05,-8.95 -0.1,-0.7 v -1.1 l 0.1,-1 q 0.3,0.45 0.95,0.45 l 3.7,-1.2 q 3.2,-1.15 4.45,-1.2 2.55,-0.1 4.2,-1.65 0.9,-0.9 1.2,-1.7 l 0.25,0.4 q 0.1,1.65 -1.7,2.5 l -0.05,-0.05 -0.05,0.05 q -0.3,0.35 -0.3,0.75 0,1.2 0.15,2.1 h 0.3 l 0.3,-2.1 -0.25,-0.6 h 0.05 0.2 q 1.5,-0.7 1.85,-1.65 l 0.1,-0.45 2.25,1.6 1.7,1.85 q 1.45,1.5 2.85,1.5 h 0.3 l 0.25,3.7 h -0.3 L 37.9,-7.5 h -5.1 q -3.9,-0.05 -5.1,-0.6 h -5.75 q -1,-1.25 -1.7,-0.8 M 22.75,11.35 20,12.8 19.3,12.95 V 12.7 l 3.45,-1.35 m -4.1,1.4 -0.35,0.3 -2.4,-0.3 h 2.75 m -2.2,3.15 q -0.55,1.25 -0.8,3.55 l 0.85,1.7 1.55,2.55 q 0.75,1.15 1.8,4.4 l -0.35,1.15 -0.35,1.5 0.15,3.35 -0.3,0.1 Q 18.55,33.5 17.05,33 14.9,32.3 14.9,31.25 l 0.3,-1.1 -0.05,-0.5 0.05,-0.25 q 0,-0.95 -0.95,-0.7 -0.75,0.2 -2.5,1.3 l -2.2,0.85 -5.2,0.65 -4.3,-0.15 V 31.3 H -0.1 v 0.05 L -4.4,31.5 -9.6,30.85 -11.8,30 -14.3,28.7 -15,28.75 -15.05,28.7 -15.4,28.45 q 0.25,-0.2 0.5,-0.25 l 0.75,-0.25 1.3,-0.1 q 0.1,1.05 2.65,1.7 l 4.7,0.75 H 6.35 q 1.55,-0.55 4.7,-0.8 1.65,-0.15 1.65,-1.45 V 27.8 l 1.4,0.15 0.75,0.25 1.15,0.7 q 0.6,0.4 0.9,0.4 1.15,0 0.85,-1.4 0,-0.85 -0.4,-1.7 v -0.3 q 0,-0.8 -0.8,-1.05 l -0.2,-0.05 -1.5,-1.4 -0.45,-0.35 0.1,-0.15 -0.4,-0.05 q -1.4,-1 -1.9,-0.6 Q 11.1,21.8 10.1,21.15 9.05,20.5 8,20.2 q 0.85,-0.35 1.55,-1 1.15,-1.1 1.15,-2.1 l -0.1,-0.7 0.1,-1.3 -0.05,-0.9 -0.15,-0.9 0.25,0.2 1.15,0.8 q 2.35,1.5 4.55,1.6 M -18.3,34.2 h -0.55 l -3.85,-0.85 -2.35,-1.1 -1.45,-0.7 q -0.3,-0.15 -0.45,-0.2 l -0.2,-0.15 -1.25,-1.4 q -0.3,-0.25 -0.5,-0.3 l -0.6,-1.6 -0.25,-0.65 -0.4,-0.95 q 0.05,-0.8 -0.35,-1.25 l -0.15,-7.2 0.15,-6.7 0.25,-6.75 V 1.95 L -30.2,1.9 q 3,-2.55 3.55,-2.65 l 1.85,-0.35 -0.35,0.85 q 0,0.5 0.55,0.65 1.85,-1.95 3.55,-2.9 2.95,-1.65 8.4,-1.7 l 0.4,1.5 q 0,0.95 -0.8,1.5 l -1.7,1.55 -2,0.1 q -3.3,-0.5 -7.05,2.2 -3.3,2.3 -3.3,3.55 0,0.95 0.6,1.6 -0.35,0.25 -0.35,0.85 l 0.25,0.5 0.15,0.2 -0.2,0.6 0.05,0.2 q 0.1,0.6 1.15,1.45 h -0.6 l -0.55,0.4 -0.1,0.2 -0.25,1.3 v 0.25 l 0.4,1.75 0.5,1.2 1.2,1.55 0.85,0.7 0.65,0.3 2.2,0.4 h 0.05 q 2.3,0 4.45,-1.5 1.7,-1.2 1.7,-1.7 0,-0.5 -0.9,-1 2.8,-0.2 4.9,-1.95 l 0.05,-0.05 0.2,-0.15 0.25,-0.2 -0.05,0.15 -0.05,0.15 -0.15,0.95 -0.1,0.05 q -1,1.05 -1,2.75 0,0.8 0.9,1.75 1,1.05 2.75,1.3 -1.05,0.3 -2,0.95 -1,0.65 -2.1,1.1 -0.5,-0.4 -1.9,0.6 l -0.4,0.05 0.1,0.15 -0.45,0.35 -1.05,1 -0.95,1.1 q -0.9,1.25 -0.9,2.4 -0.3,1.3 0.75,1.4 0.1,0.55 0.8,1.1 0.8,0.65 0.8,1.6 0,0.75 -1.4,1 -1.45,0.25 -1.45,1.2 M 37,-0.9 q -0.3,0.25 -0.4,1 l -0.05,3.95 q 0.2,3 -0.5,5.6 L 33.2,16.5 32.5,18.05 V 11.4 Q 32.25,8.95 32,-2.1 l -0.1,-1.2 h 2.5 l 2,-0.1 v 0.1 q 0,1 0.6,2.4 M 42.75,11.65 42.4,11 41.2,9.6 Q 40.3,8.7 40.15,8.15 39.7,6.2 39.85,5.4 L 39.8,5.05 V 5 4.45 l 0.95,1.2 q 1.55,2.1 1.9,3.5 l 0.1,2.5 m 0,-9.75 q -2.2,-2.1 -3.15,-4.2 l -0.4,-1 2.6,0.3 q 0,1.55 0.6,3.35 l 0.3,0.8 -0.05,0.55 0.1,0.2 M -42.8,-10.05 h 0.2 l 4.85,-2.55 2.25,-0.8 6,-0.75 q 1.65,0 4.7,1 3.05,0.95 3.85,0.95 l 0.6,-0.1 0.15,1.6 v 1.1 l -0.3,1.65 q -0.5,-0.45 -1.65,-0.5 l -10.55,-0.4 -8.25,0.1 -1.95,0.2 0.1,-1.5 m 3.35,-7.65 -0.5,0.35 -1.9,1.95 0.3,-1.15 2.1,-1.15 m 9.25,-9.35 0.15,0.3 q 0.35,0.7 0.6,2.1 l 0.5,2.15 q 0.2,2.8 0.85,4.2 l 0.3,0.5 -3.3,-1.15 q -3.05,-0.95 -5.7,-0.1 l 3.25,-1.4 q 3.45,-1.1 3.45,-4.6 l -0.1,-2 M -42.3,1.45 V 1.3 l 0.4,-1.55 0.1,-0.15 1.15,-2.4 1.25,-0.5 0.1,-0.05 0.05,0.05 -0.4,1 q -0.85,1.85 -2.65,3.75 m 4.75,-12.1 -0.55,0.5 0.05,0.4 0.45,0.15 0.5,-0.3 0.1,-0.3 q 0,-0.65 -0.55,-0.45 m -6.1,24 V 13 l 1.2,-2.75 1.65,-5.2 -0.2,-0.7 0.9,-1.05 0.45,-0.5 -0.25,2.6 q 0.15,0.8 -0.3,2.75 -0.15,0.55 -1.05,1.45 l -1.2,1.4 -1.2,2.35 m 6.55,-14.3 0.7,-2.2 3.55,-0.3 0.9,-0.25 -0.1,1.6 q -0.25,11.05 -0.5,13.5 v 6.65 l -0.7,-1.55 -2.85,-6.85 q -0.7,-2.6 -0.5,-5.6 l -0.05,-0.95 0.1,-1.4 -0.1,-0.6 v -1 q -0.1,-0.85 -0.45,-1.05 m 33.1,-18.4 -0.3,0.3 0.45,0.15 0.3,-0.15 V -19.2 Q -3.6,-19.35 -4,-19.35 m -8.55,6.9 q 0.5,0.4 1.9,0.4 l 2.4,-0.3 -0.05,1.25 -0.05,0.4 -0.3,1.6 -1.1,0.8 -2.25,0.05 -3.35,0.05 0.1,-0.15 1.8,-2.35 q 0.6,-0.9 0.9,-1.75 m -6.55,1.8 0.6,0.15 q 0.45,0 3.1,-1.85 l 0.65,-0.45 1.4,-0.4 -1.15,2.5 -0.1,0.15 -0.4,0.5 q -1.3,0.3 -4.15,1.85 l 0.05,-2.45 m 5.5,22.55 q -2,1.05 -4.6,1.15 l -1.3,-0.1 -1.3,-0.5 -1.55,-0.8 -0.6,-0.4 -0.1,-0.05 0.2,0.05 0.6,0.25 1.65,0.55 3.65,0.55 q 1.3,0 3.35,-0.7 m 4.7,3.55 1.7,0.15 2.45,-0.2 3.9,-0.25 H 3.5 l 3.75,0.45 q 1.3,0 1.65,-0.65 V 15.2 L 8.55,16.35 Q 8,17.15 7.1,17.15 L 5.7,16.9 5.95,16.6 q 0,-0.7 -0.75,-0.75 -0.8,-0.15 -1.85,1 L 1.45,18.25 0.05,18 H -0.1 l -1.4,0.25 -1.9,-1.4 Q -4.45,15.7 -5.25,15.85 -6,15.9 -6,16.6 l 0.25,0.3 -1.4,0.25 q -0.9,0 -1.45,-0.8 l -0.3,-0.9 M -11.85,4 -11,5 q 0.25,0.9 0.15,1.45 l -0.05,0.05 -0.4,0.65 -1.9,0.65 -5.4,0.65 h -0.2 -0.1 l -1.6,-0.1 q -1.6,-0.25 -2.95,-1 l -0.4,-0.25 -0.4,-1.05 0.3,-1.1 V 5 q 0,1.05 0.9,1.75 1.1,0.85 3.45,1 l 0.85,0.05 h 0.35 q 3.4,0 5.2,-1.4 1.3,-1.05 1.35,-2.4 m -22.3,-1.7 q 0,-0.35 -0.15,-0.4 -0.9,-0.25 -0.9,0.35 l 0.55,0.45 0.35,-0.15 q 0.15,0.1 0.15,-0.25 m -10.1,22.35 q 1.1,-0.05 1.35,-2.25 l 0.05,-1.65 h 0.15 q 0.25,0 0.4,-0.2 l 0.2,-0.4 q 0,-0.55 -0.6,-0.55 h -0.05 l 0.05,-0.55 q 0.3,-1.2 1.45,-3 l 2,-2.85 q 0.7,-1 1.75,-5.75 l 0.05,-0.1 q 0.15,2.35 0.95,4.5 l 2.55,5.95 1.4,2.6 0.05,2.55 -0.75,-0.1 v 0.1 l -1.2,0.05 -0.15,0.15 -3.25,0.4 -0.4,0.6 0.35,0.1 -0.15,0.15 q -0.4,-0.3 -1.4,0.5 l 0.05,-0.65 -0.15,-0.4 -0.45,0.5 -0.35,0.75 0.1,0.35 q -0.8,0.45 -1.8,1.45 l -1.2,1.4 -1,-3.65 m 11.8,-0.5 0.15,5.6 q -1,0.3 -2.85,1.4 l -1.9,1.2 -2.55,0.05 -1.6,-0.35 -1,-1.55 0.2,-0.3 0.95,-1.7 1.75,-1.6 1.1,-1.2 0.6,0.1 3.15,-0.85 q 1.35,-0.5 2,-0.8 m 67.9,-9.75 -0.3,1.35 h 0.15 q 0.75,-0.65 1.95,-3 l 0.8,-1.65 3.35,5.15 0.5,0.9 Q 41.65,17 41.25,17 q -1,0 -1,0.8 0,0.95 0.95,0.95 0.5,0 0.8,-0.45 l 0.2,-0.5 q 0.9,2.05 0.9,4.1 0,3.65 -1.5,6.8 -1.05,2.15 -1.35,3.75 l -0.75,-0.15 -1.05,0.2 -1.6,0.2 h -1.4 l -3.2,-2.3 0.25,-10 1.4,-2.6 1.55,-3.4 m -2,-12.35 q -0.7,0 -0.7,0.65 l 0.1,0.3 0.55,0.35 q 0.7,0 0.7,-0.65 0,-0.65 -0.65,-0.65 M 23.6,4.15 23.65,4.2 24.2,6.05 23.8,7.1 23.4,7.35 q -2.05,1.1 -4.55,1.1 L 13.15,7.8 11.25,7.15 10.85,6.5 Q 10.7,5.95 10.95,5 l 0.1,-0.1 q 0.2,1.7 4.8,2.05 h 4.3 q 1.7,-0.6 2.65,-1.55 0.65,-0.65 0.8,-1.25 m 14.3,26 0.1,0.35 0.5,0.1 q 0.4,0 0.3,-0.15 l 0.1,-0.35 q 0,-0.5 -0.5,-0.5 -0.5,0.05 -0.5,0.55"
         fill="#8a8a8a"
         fill-rule="evenodd"
         stroke="none"
         id="path3" />
      <path
         d="m 15.6,-7.95 1.1,1.05 -7.65,0.05 V -6.9 L 8.9,-7.5 8.75,-8.2 8.55,-9.25 Q 9.3,-9 10.7,-7.95 h 4.9 m 3.55,0.15 0.3,0.9 H 18.8 l -0.55,-0.4 -0.6,-0.4 1.05,-0.15 0.45,0.05 M 7.6,-9.2 7.85,-7.95 8.1,-7 8.15,-6.85 H -8.2 l 0.25,-0.9 6.35,-0.2 h 4.5 l 2.75,0.15 1.1,-0.15 h 0.7 L 7.4,-8.3 7.6,-9.2 M 0.2,0.05 0.05,0 V -0.1 L 0,-0.05 -0.1,-0.1 V 0 L -0.3,0.1 Q -2.7,0.35 -4.6,1.2 L -5.1,1 q 0,-0.8 -0.25,-1.55 -0.35,-1.1 -1.15,-2.25 l -0.2,-0.25 q -0.85,-1 -1.85,-1.6 H 8.5 q -0.85,0.5 -1.55,1.3 L 6.45,-2.8 5.7,-1.55 q -0.65,1.3 -0.65,2.6 L 5.15,1.5 H 5 Q 4.25,1.5 3.8,0.75 3.4,0 1.55,0 L 0.2,0.05 m -3.25,1.9 V 2 L -3,2.1 -2.95,2.25 h 0.85 0.6 0.7 0.25 0.45 0.15 0.7 0.7 0.6 0.85 L 2.95,2.1 3.05,1.85 4.3,2.15 Q 4.85,2.45 4.85,3.2 L 4.6,3.9 Q 4.25,4.25 3.7,4.25 L 3.4,4.2 2.3,4.05 H -1.05 L -2.3,4.35 -2.5,4.4 -4.45,4.5 H -4.6 q -1.1,-0.05 -0.95,-1.2 0,-1.15 2.35,-1.25 l 0.15,-0.1 m 46,-9.35 V -7 l -22,0.1 -0.1,-0.1 q -0.45,-1 -0.6,-1.9 0.7,-0.45 1.7,0.8 h 5.75 q 1.2,0.55 5.1,0.6 h 5.1 l 4.75,0.1 h 0.3 M 25,0.15 l 0.1,-0.4 q 0,-1.5 -4.75,-3.85 -0.65,-0.3 -1.2,-0.55 H 30 l 0.15,1.35 0.05,1.55 v 5.5 L 28.55,2.4 Q 26.1,0.45 25,0.15 m 5.45,24.95 -0.05,0.8 -0.2,4.35 v 0.35 0.65 q 0,1.7 0.15,2.65 l 0.05,0.25 v 0.05 h -3.65 l -0.2,-0.3 0.1,-0.15 0.05,-0.25 v -0.1 q 2.5,-1.8 2.5,-3.35 0,-0.75 -0.45,-0.5 L 29,27.45 q 0.1,-1.05 0.6,-1.8 0.35,-0.55 0.85,-0.55 M 17.65,15.25 V 15.1 l -0.1,-0.4 1.15,-0.1 -1.05,0.65 M 20,12.8 19.3,13 V 12.95 L 20,12.8 m -11.7,-3 2.45,2.2 0.05,0.05 q 2.15,1.65 4.15,2.3 l 2.3,0.35 -0.8,1.2 Q 14.25,15.8 11.9,14.3 L 10.75,13.5 10.5,13.3 10,12.05 Q 9.45,11.1 8.55,10.4 L 8.1,10.1 8.3,9.8 M 19,34.2 h -0.2 -37.1 q 0,-0.95 1.45,-1.2 1.4,-0.25 1.4,-1 0,-0.95 -0.8,-1.6 -0.7,-0.55 -0.8,-1.1 h 0.1 q 0.3,0 0.9,-0.4 l 0.65,-0.45 0.35,0.25 0.05,0.05 -0.25,0.65 q 0,0.75 1.65,1.7 l 0.45,0.25 0.95,0.45 q 3.45,1.55 6.85,1.55 l 5.25,-0.1 H 0.05 L 5.3,33.35 8.55,33 9.7,32.7 l 1.55,-0.5 0.9,-0.4 0.1,-0.05 2.1,-1.15 0.8,-0.95 0.05,0.5 -0.3,1.1 q 0,1.05 2.15,1.75 1.5,0.5 1.95,1.2 m -47.9,-4.7 h -0.05 q -0.3,0 -0.3,0.55 0,0.9 0.85,1.9 l 1.65,1.45 v 0.1 l 0.15,0.4 -0.2,0.3 h -3.65 l 0.05,-0.3 0.05,-0.4 0.1,-1.2 v -1.25 -0.2 -0.25 l -0.15,-3.75 -0.05,-0.95 v -0.25 l -0.05,-0.6 q 0.4,0.45 0.35,1.25 l 0.4,0.95 0.25,0.65 0.6,1.6 M -30.25,1.95 v -3.7 l 0.05,-0.7 0.05,-0.65 v -0.2 l 0.1,-1.35 h 10.85 l -1.2,0.55 -0.4,0.2 -1.3,0.7 -0.5,0.3 -0.4,0.25 -1.15,0.9 -0.35,0.3 -0.3,0.35 -1.85,0.35 q -0.55,0.1 -3.55,2.65 l -0.05,0.05 m 9.75,-9.9 -0.4,0.95 -0.1,0.1 -22,-0.1 0.1,-1.55 1.95,-0.2 8.25,-0.1 10.55,0.4 q 1.15,0.05 1.65,0.5 M -8.65,-9.1 -8.8,-8.2 V -8 l -0.1,0.45 -0.2,0.7 -7.65,-0.05 1.4,-1.3 3.35,-0.05 2.25,-0.05 1.1,-0.8 M -15,-10.05 q -1.15,1.35 -3.3,2.75 l -0.55,0.4 h -0.65 l 0.35,-1.2 v -0.1 q 2.85,-1.55 4.15,-1.85 m -3.2,23.1 h -0.45 l -0.85,-0.1 1.3,0.1 m 0.6,1.65 h 0.25 l 2.8,-0.5 q 1.8,-0.7 3.75,-2.2 L -9,10.5 v 0.2 0.05 q -1.05,0.95 -1.45,2.35 l -0.25,0.2 -0.2,0.15 -0.05,0.05 q -2.1,1.75 -4.9,1.95 L -16.8,15 -17.6,14.7 m 6.9,-0.35 -0.05,0.75 0.15,2 q 0.65,1.5 2.95,1.75 l 0.95,0.05 1.9,-0.35 0.1,-0.05 0.25,-0.15 0.35,0.25 1.3,0.85 0.55,0.2 2.15,0.45 H 0.05 L 2.8,19.45 4.15,18.6 4.4,18.35 l 0.15,0.1 0.2,0.1 1.9,0.35 H 6.8 7.15 q 2.7,-0.15 3.4,-1.8 l 0.05,-0.7 0.1,0.7 q 0,1 -1.15,2.1 -0.7,0.65 -1.55,1 L 6.3,19.9 H 5.9 L 4.05,20.2 3.75,20.3 0.9,21.15 0,21.4 -4.1,20.2 -4.25,20.15 -7.1,20 -8.15,20.2 q -1.75,-0.25 -2.75,-1.3 -0.9,-0.95 -0.9,-1.75 0,-1.7 1,-2.75 l 0.1,-0.05 m 0.7,9 1.45,-0.95 0.9,2.5 -2.4,0.55 -2.7,0.65 -1.6,0.15 -0.05,0.1 -1.1,0.2 0.15,-0.1 0.25,-0.35 0.8,-0.75 0.8,-0.65 q 2.15,-0.35 3.5,-1.35 M -8.05,22.2 -8,22.1 q 1.45,-0.75 2.6,-0.75 0.85,0 2.6,0.9 l 2,0.85 h 0.7 0.15 0.7 l 2,-0.85 q 1.75,-0.9 2.6,-0.9 1.9,0 4.6,2 1.35,1 3.5,1.35 1.55,1.1 1.85,1.75 l 0.15,0.1 -1.1,-0.2 -0.05,-0.1 -4.3,-0.8 Q 7,24.6 5.25,24.6 L 0,24.95 -5.3,24.6 -6.85,24.75 -8.05,22.2 m -24.25,7.55 v 0.85 1.1 0.55 l -0.05,0.25 q -0.05,0.95 -0.2,1.3 l -0.4,0.9 -2.2,0.25 -2.65,-0.45 -0.3,-0.1 -1.05,-0.55 -0.95,-0.7 -1.1,-1.1 1.6,0.35 2.55,-0.05 1.9,-1.2 q 1.85,-1.1 2.85,-1.4 m 64.55,0.65 3.2,2.3 h 1.4 l 1.6,-0.2 1.05,-0.2 0.75,0.15 v 0.1 l -0.1,0.55 -1.55,1.05 q -1.6,0.8 -3.5,0.8 L 32.9,34.7 32.5,33.8 32.35,33.15 32.25,30.6 v -0.2"
         fill="#808080"
         fill-rule="evenodd"
         stroke="none"
         id="path4" />
      <path
         d="m 21.5,-2.2 1.35,1 -0.95,-0.7 -0.4,-0.3 m 10.4,-1.1 0.05,-1.35 H 37 Q 36.45,-4 36.4,-3.4 l -2,0.1 h -2.5 m -71.2,-0.05 h 0.1 l -0.05,0.05 -0.05,-0.05 m 1.7,-1.3 -0.15,0.1 v -0.1 h 0.15 m 1.2,1.5 V -3.6 q 0,-0.8 -0.35,-1.05 H -32 l 0.05,0.95 -0.9,0.25 -3.55,0.3 m 53.75,29.35 -1,-1.4 0.2,0.05 q 0.8,0.25 0.8,1.05 v 0.3"
         fill="#797979"
         fill-rule="evenodd"
         stroke="none"
         id="path5" />
    </g>
    <g
       id="sprite0"
       transform="translate(660.25,0.5)">
      <use
         ffdec:characterId="68"
         height="1.5"
         transform="translate(-660.25,-0.5)"
         width="1320.3"
         xlink:href="#shape1"
         id="use5" />
    </g>
    <g
       id="shape1"
       transform="translate(660.25,0.5)">
      <path
         d="m 659.3,-0.5 0.55,0.25 0.2,0.5 -0.2,0.55 L 659.3,1 H -659.5 l -0.5,-0.2 -0.25,-0.55 0.25,-0.5 0.5,-0.25 H 659.3"
         fill="#ffff00"
         fill-opacity="0"
         fill-rule="evenodd"
         stroke="none"
         id="path6" />
    </g>
  </defs>
</svg>
