<?xml version="1.0" encoding="UTF-8" standalone="no"?>
<svg
   ffdec:objectType="frame"
   height="107.5"
   width="73.800003"
   version="1.1"
   id="svg18"
   sodipodi:docname="1.svg"
   xmlns:inkscape="http://www.inkscape.org/namespaces/inkscape"
   xmlns:sodipodi="http://sodipodi.sourceforge.net/DTD/sodipodi-0.dtd"
   xmlns:xlink="http://www.w3.org/1999/xlink"
   xmlns="http://www.w3.org/2000/svg"
   xmlns:svg="http://www.w3.org/2000/svg"
   xmlns:ffdec="https://www.free-decompiler.com/flash">
  <sodipodi:namedview
     id="namedview18"
     pagecolor="#ffffff"
     bordercolor="#000000"
     borderopacity="0.25"
     inkscape:showpageshadow="2"
     inkscape:pageopacity="0.0"
     inkscape:pagecheckerboard="0"
     inkscape:deskcolor="#d1d1d1"
     fit-margin-top="5"
     fit-margin-left="5"
     fit-margin-right="5"
     fit-margin-bottom="5" />
  <g
     transform="translate(36.9,52.3)"
     id="g2">
    <use
       ffdec:characterId="1402"
       height="59.799999"
       transform="translate(-29.55,-48.75)"
       width="58.400002"
       xlink:href="#sprite0"
       id="use1" />
    <use
       ffdec:characterId="1403"
       height="107.5"
       transform="translate(-36.9,-52.3)"
       width="73.800003"
       xlink:href="#shape1"
       id="use2" />
  </g>
  <defs
     id="defs18">
    <g
       id="sprite0"
       transform="translate(29.2,29.9)">
      <use
         ffdec:characterId="1401"
         height="59.799999"
         transform="translate(-29.2,-29.9)"
         width="58.400002"
         xlink:href="#shape0"
         id="use3" />
    </g>
    <g
       id="shape0"
       transform="translate(29.2,29.9)">
      <path
         d="m -23.4,26.7 -0.1,-0.6 V 23 q 0,-4.7 1.2,-8.8 l 0.2,-0.7 q 0.85,-2.9 2.4,-5.8 l 2.35,-3.9 q 1.1,-1.7 2.4,-5.55 1.15,-3.35 1.8,-4 l 0.55,-0.7 0.9,-1 3.25,-3.1 q 2.7,-1.85 8.4,-2.4 H 0.2 0.75 v 0.05 q 5.7,0.5 8.4,2.35 l 1.9,1.6 2.55,2.9 0.25,0.3 q 0.65,0.65 1.8,4 1.3,3.85 2.4,5.55 l 1.75,2.8 q 1.85,3.25 2.85,6.45 l 0.15,0.45 q 1.4,4.4 1.4,9.5 v 3.1 l -0.05,0.35 -0.2,0.95 -0.4,0.2 h -0.2 l -1.2,0.05 -0.4,-0.05 0.3,-1.3 0.55,-3.5 q 0,-4.35 -0.85,-8.1 L 21.4,13.35 20.75,11.4 19.9,9.25 q -1.25,-2.7 -3.1,-5 L 16.15,3.35 15.05,1.15 14.5,-0.4 13.15,-4 12.5,-5.25 12,-6 q -3.1,-4.25 -11.7,-6.3 -5.6,1.35 -8.8,3.65 -2.1,1.45 -3.25,3.35 v 0.05 h -0.05 l -0.5,0.95 -0.15,0.3 -0.1,0.2 -0.1,0.3 -0.75,2 -0.4,1.1 q -0.7,2.15 -1.5,3.55 l -0.8,1.1 q -2.85,3.6 -4.3,8.15 l -0.25,0.8 -0.05,0.15 -0.05,0.3 -0.35,1.3 q -0.8,3.65 -0.8,7.85 l 0.1,0.65 0.65,3.4 0.15,0.8 h -2.15 L -23.4,26.7"
         fill="#9a9a9a"
         fill-rule="evenodd"
         stroke="none"
         id="path3" />
      <path
         d="m 11.05,-8.95 q 2.05,1.55 2.55,2.9 l -2.55,-2.9"
         fill="#b9b9b9"
         fill-rule="evenodd"
         stroke="none"
         id="path4" />
      <path
         d="m -13.4,-1.5 0.75,-2 0.1,-0.3 0.1,-0.2 0.15,-0.3 0.5,-0.95 h 0.05 V -5.3 q 1.15,-1.9 3.25,-3.35 3.2,-2.3 8.8,-3.65 8.6,2.05 11.7,6.3 l 0.5,0.75 0.65,1.25 q -0.45,0.35 -1.1,0.35 L 8.5,-5.15 7.6,-4.5 6.55,-3.8 q -3.25,2 -6.3,2 -5,0 -7.6,-1.9 l -1.05,-0.9 -2.65,0.65 -0.15,0.1 -0.25,0.1 -0.5,1 q -0.75,1.4 -1.2,1.65 l -0.25,-0.4 m 28.45,2.65 1.1,2.2 0.65,0.9 q 1.85,2.3 3.1,5 l 0.85,2.15 0.65,1.95 0.35,1.35 -1.6,-1.7 -1.1,-0.65 -2.4,-1.7 -0.8,-0.5 q -0.95,-0.6 -2,-1.1 l -1.5,0.8 q -0.7,1.05 -2.15,2 -2.6,1.7 -7.85,3.3 H -3.5 q -6.65,-0.6 -9.25,-2.75 -1.45,-1.2 -1.7,-3 l -1.55,0.85 -2.1,1.9 -0.3,0.3 -0.65,0.75 -1.9,1.7 H -21 l -0.1,0.05 0.35,-1.3 0.05,-0.3 0.05,-0.15 0.25,-0.8 q 1.45,-4.55 4.3,-8.15 l 0.8,-1.1 q 1.35,-1.05 2.7,-1.6 2.25,-1 4.45,-0.5 l 11.4,-0.1 7.9,-0.6 q 2.45,0.1 3.9,0.8"
         fill="#dedede"
         fill-rule="evenodd"
         stroke="none"
         id="path5" />
      <path
         d="m -13.4,-1.5 0.25,0.4 q 0.45,-0.25 1.2,-1.65 l 0.5,-1 0.25,-0.1 0.15,-0.1 2.65,-0.65 1.05,0.9 q 2.6,1.9 7.6,1.9 3.05,0 6.3,-2 l 1.05,-0.7 0.9,-0.65 3.55,1.5 q 0.65,0 1.1,-0.35 l 1.35,3.6 0.55,1.55 q -1.45,-0.7 -3.9,-0.8 l -7.9,0.6 -11.4,0.1 q -2.2,-0.5 -4.45,0.5 -1.35,0.55 -2.7,1.6 0.8,-1.4 1.5,-3.55 l 0.4,-1.1 m 35.15,16.2 q 0.85,3.75 0.85,8.1 l -0.55,3.5 Q 21,26.85 19.4,26.85 L 12.5,26.5 H -2.25 L -2.9,26.65 H -16.1 L -17.95,26.2 -18,26.15 -18.05,26.4 q -0.3,1.1 -1.7,1.1 -0.9,0 -1.4,-0.65 l -0.65,-3.4 -0.1,-0.65 q 0,-4.2 0.8,-7.85 L -21,14.9 h 0.05 l 1.9,-1.7 0.65,-0.75 0.3,-0.3 2.1,-1.9 1.55,-0.85 q 0.25,1.8 1.7,3 2.6,2.15 9.25,2.75 h 5.85 q 5.25,-1.6 7.85,-3.3 1.45,-0.95 2.15,-2 l 1.5,-0.8 q 1.05,0.5 2,1.1 l 0.8,0.5 2.4,1.7 1.1,0.65 1.6,1.7"
         fill="#d4d4d4"
         fill-rule="evenodd"
         stroke="none"
         id="path6" />
      <path
         d="m -23.6,26.7 -0.8,-1.6 -0.55,-1.8 -0.35,-3.9 q 0,-10.5 5.9,-22.45 l 2.05,-3.75 0.7,-0.95 3.3,-4.7 3.25,-3.25 1.9,-1.2 1,-0.55 q 4.5,-2 7.55,-2.5 L 1.45,-20 q 4.65,0 6.25,0.85 1.75,0.9 8,6.65 l 0.7,3.1 0.2,-0.05 -0.8,-2.95 0.6,0.55 1.7,3 0.8,1.55 q 1.2,3.1 2.9,9.3 l 2.95,11 q 0.9,3.9 1.15,7.5 l 0.1,1.65 v 1.35 l -0.15,1.5 -0.55,2.35 0.05,0.5 0.4,0.35 q -0.8,0.85 -1.85,1 H 23 l 0.2,-0.75 -1.85,1.35 q -0.3,0.25 -0.3,-0.25 l 1,-1.7 0.1,-0.2 1.2,-0.05 h 0.2 l 0.4,-0.2 0.2,-0.95 0.05,-0.35 V 23 q 0,-5.1 -1.4,-9.5 L 22.65,13.05 Q 21.65,9.85 19.8,6.6 L 18.05,3.8 q -1.1,-1.7 -2.4,-5.55 -1.15,-3.35 -1.8,-4 l -0.25,-0.3 q -0.5,-1.35 -2.55,-2.9 l -1.9,-1.6 q -2.7,-1.85 -8.4,-2.35 v -0.05 H 0.2 -0.05 q -5.7,0.55 -8.4,2.4 l -3.25,3.1 -0.9,1 -0.55,0.7 q -0.65,0.65 -1.8,4 -1.3,3.85 -2.4,5.55 l -2.35,3.9 q -1.55,2.9 -2.4,5.8 l -0.2,0.7 q -1.2,4.1 -1.2,8.8 v 3.1 l 0.1,0.6 h -0.2"
         fill="#c7c7c7"
         fill-rule="evenodd"
         stroke="none"
         id="path7" />
      <path
         d="M 25.75,28.2 25.35,27.85 25.3,27.35 25.85,25 26,23.5 V 22.15 L 25.9,20.5 Q 25.65,16.9 24.75,13 L 21.8,2 q -1.7,-6.2 -2.9,-9.3 l -0.8,-1.55 -1.7,-3 -0.6,-0.55 0.8,2.95 -0.2,0.05 -0.7,-3.1 Q 9.45,-18.25 7.7,-19.15 6.1,-20 1.45,-20 l -1.1,0.05 q -3.05,0.5 -7.55,2.5 l -1,0.55 -1.9,1.2 -3.25,3.25 -3.3,4.7 -0.7,0.95 -2.05,3.75 Q -25.3,8.9 -25.3,19.4 l 0.35,3.9 0.55,1.8 0.8,1.6 -0.1,0.4 q -0.25,0.35 -0.9,0.35 l -0.65,-0.25 q -0.3,0.35 -0.75,0.35 -1.75,0 -2.65,-5.45 l -0.55,-5.5 q 0,-6.9 4.05,-15.95 l 7.8,-16.55 q 4.05,-9.55 10.45,-12.65 5.35,-2.55 11.7,-0.3 5.35,1.9 9.5,6.35 3.4,3.65 3.85,6.55 l 0.55,0.7 2.75,4.6 q 1.55,3 2.6,4.35 L 23.9,-6.2 23,-7.25 22.5,-7.8 22.85,-7.1 Q 26,-0.8 26,2.65 l 0.15,2.4 q 3.05,10.5 3.05,19.9 v 1.9 q -0.15,1.4 -0.85,1.4 L 28.05,26.5 28,26.05 l -0.2,0.4 h -0.1 q -0.5,1.85 -1.4,1.85 l -0.55,-0.1 m 2.15,-2.85 -0.05,0.55 0.1,-0.15 -0.05,-0.4"
         fill="#bbbbbb"
         fill-rule="evenodd"
         stroke="none"
         id="path8" />
      <path
         d="m -23.4,26.7 -0.1,-0.6 V 23 q 0,-4.7 1.2,-8.8 l 0.2,-0.7 q 0.85,-2.9 2.4,-5.8 l 2.35,-3.9 q 1.1,-1.7 2.4,-5.55 1.15,-3.35 1.8,-4 l 0.55,-0.7 0.9,-1 3.25,-3.1 q 2.7,-1.85 8.4,-2.4 H 0.2 0.75 v 0.05 q 5.7,0.5 8.4,2.35 l 1.9,1.6 2.55,2.9 0.25,0.3 q 0.65,0.65 1.8,4 1.3,3.85 2.4,5.55 l 1.75,2.8 q 1.85,3.25 2.85,6.45 l 0.15,0.45 q 1.4,4.4 1.4,9.5 v 3.1 l -0.05,0.35 -0.2,0.95 -0.4,0.2 h -0.2 l -1.2,0.05"
         fill="none"
         stroke="#9a9a9a"
         stroke-linecap="round"
         stroke-linejoin="round"
         stroke-width="2"
         id="path9" />
    </g>
    <g
       id="shape1"
       transform="translate(36.9,52.3)">
      <path
         d="m -10.5,-48.15 q 3.3,-2.4 6.35,-3 l 3.75,-0.15 h 0.8 l 3.75,0.15 q 3.15,0.6 6.55,3.15 3.2,2.45 6.25,6.35 l 0.9,1.2 1.5,2.2 2.8,4.4 2.55,4.8 1.7,3.6 q 2.35,5.25 4.1,10.9 l 1.4,4.85 q 4,12.2 4,20.35 0,7.45 -4.05,15.1 Q 25.75,37.1 13,38.95 l -2.75,0.3 H 6.85 L 6.45,39.3 6.1,39.6 5.55,40.05 5.5,40.1 5.35,40.2 v 0.05 l -0.45,0.1 0.45,-0.1 -0.15,0.1 H 4.9 q -1.4,1.2 -1.4,3 0,2.85 4.25,4.45 3,1.05 9.35,1.75 l 8.75,0.95 0.65,0.1 1.15,0.2 q 3.1,0.75 3.1,2.05 0,1 -0.85,1.35 h -60 q -0.85,-0.35 -0.85,-1.35 0,-1.5 4.25,-2.25 l 9.4,-1.05 q 6.35,-0.7 9.4,-1.75 4.25,-1.6 4.25,-4.45 0,-1.8 -1.35,-3 l -0.45,-0.1 0.45,0.1 h -0.35 l -0.1,-0.1 -0.1,-0.05 -0.1,-0.1 L -5.7,40.05 -6.25,39.6 -6.65,39.3 -7,39.25 h -3.25 L -13,38.95 q -12.75,-1.85 -18.85,-13.2 -4.05,-7.65 -4.05,-15.1 0,-8.15 4,-20.35 l 1.4,-4.85 q 3.25,-10.4 8.35,-19.3 l 2.8,-4.4 2.4,-3.4 q 3.1,-3.9 6.25,-6.35 l 0.2,-0.15 m 35.8,25.65 -0.6,-1.7 q -1.1,-3.1 -3.35,-6.95 l -0.8,-1.4 -1.55,-2.5 -1.8,-2.85 q -1.6,-2.6 -5.85,-6.9 L 11.15,-45 10.9,-45.25 8.7,-47.1 7.15,-48.25 Q 6.1,-49 4.2,-49.55 H 4.15 l -4.3,-0.3 -1.45,0.1 -2.55,0.2 H -4.2 l -0.45,0.15 q -1.6,0.5 -2.5,1.15 l -1.35,1.05 -0.8,0.6 -0.85,0.7 -1.2,1.1 -0.9,0.95 -3.85,4.4 -1.1,1.55 -0.5,0.85 -0.4,0.6 -3.25,5.3 -1.85,3.45 -1.5,3.5 q -2.4,6.9 -5.3,14.5 -1.6,5.35 -1.6,12.9 0,6.35 4.55,11.2 7.85,8.15 26.7,8.3 h 0.5 0.2 q 9.55,-0.1 16.3,-2.2 l 1.7,-0.6 q 5.35,-2 8.7,-5.5 2.7,-2.9 3.8,-6.3 L 31.5,5 31.6,3.2 Q 31.6,-4.35 30,-9.7 L 25.3,-22.5 M -8.8,-44.6 q 4.1,-3.7 7.6,-3.4 l 0.8,-0.05 h 0.3 0.5 V -48 h 0.8 0.9 l 0.55,0.05 0.8,0.2 H 3.6 l 1.1,0.4 q 1.25,0.5 2.65,1.5 2.3,1.65 4.85,4.65 l 1.7,2.15 q 6,7.9 9.7,17.35 3.3,8.55 4.85,15.2 1.45,6.2 1.45,9.8 v 0.45 0.2 Q 29.8,5.85 29.25,7.4 L 28.85,8.35 28,9.6 l -0.7,0.85 -0.1,0.15 -1.95,2 -1.5,1.35 -0.3,0.2 -2.5,1.85 q -2.45,1.5 -5.15,2.45 -2.25,0.75 -4.65,1.1 L 7.7,19.85 H 6.75 L 2.1,19.8 H 1.75 L 0.4,19.75 H 0 -0.4 l -7.3,0.1 q -9.15,-0.25 -15.75,-5.7 -2.8,-2.3 -4.55,-4.55 -1.55,-2 -1.85,-5 V 4.05 l -0.05,-0.3 v -0.7 l 0.05,-0.95 0.1,-1.25 0.1,-0.95 0.05,-0.2 0.15,-1.1 1,-5.1 q 1.55,-6.65 4.85,-15.2 3.7,-9.45 9.7,-17.35 2.65,-3.45 5.1,-5.55 m 22.2,6.6 q -0.95,-1.85 -3.15,-4.15 l -0.2,-0.3 -0.55,-0.6 -1.4,-1.25 -1.5,-0.95 -3.2,-1.45 -1.55,-0.5 h -3.7 q -2.75,0.8 -4.75,1.95 l -1.5,0.95 -1.95,1.85 -0.2,0.3 q -2.2,2.3 -3.15,4.15 l -1,1.25 -1.25,1.95 q -1.95,2.2 -3.45,5.4 l -2.9,6.8 q -2.6,5.65 -4.4,12.75 -1.9,7.65 -1.9,13.3 l 0.35,1.95 0.65,1.6 0.7,1.25 0.95,-0.8 0.6,0.05 L -18,7.15 -10.85,7.2 0,7.45 10.85,7.2 21.3,7.15 h 1.15 L 23.4,7.1 23.35,7.15 h 0.4 l 1,0.1 0.55,0.05 q 0.7,0.2 1.05,0.6 l 0.25,0.35 q 1.7,-2.9 1.7,-4.8 0,-5.65 -1.9,-13.3 -1.8,-7.1 -4.4,-12.75 l -2.9,-6.8 q -1.5,-3.2 -3.45,-5.4 L 14.4,-36.75 13.4,-38 M 34.2,9.45 33.65,4.9 Q 33.05,13 26,18.25 17.85,24.3 3.8,24.3 L 0,24.1 -3.8,24.3 Q -17.85,24.3 -26,18.25 -33.05,13 -33.65,4.9 q -0.55,3.15 -0.55,5.7 0,3.5 1.05,7.05 0.95,3.2 3.1,7.5 2.9,5.65 11.35,9.65 L -13,37.05 0,38 13,37.05 18.7,34.8 q 8.45,-4 11.35,-9.65 2.15,-4.3 3.1,-7.5 Q 34.2,14.1 34.2,10.6 V 9.45 M 24.1,12 24.3,11.7 24.85,11 25,10.75 l 0.05,-0.2 0.1,-0.3 V 10.2 L 25.05,9.3 H 25 L 24.75,9.25 23.65,8.85 12.45,8.8 8.95,8.95 H 2.6 L 1.7,8.8 H 1 0 -1 -1.7 L -2.6,8.95 H -8.95 L -12.45,8.8 -23.65,8.85 -25,9.3 h -0.05 q -0.25,0.5 0,1.3 l 0.05,0.15 0.05,0.1 0.2,0.25 0.45,0.6 q 3.65,4.8 12.85,6.2 l 1.9,0.2 1.85,0.2 7.3,0.15 H 0 0.4 l 7,-0.15 h 0.3 l 3.75,-0.4 q 2.8,-0.4 5.05,-1.15 l 0.15,-0.05 h 0.1 l 1.9,-0.75 0.95,-0.45 1.1,-0.6 q 2.05,-1.25 3.4,-2.9 m -25.65,27.6 -2.3,-0.05 0.1,0.05 0.4,0.45 0.05,0.05 h 0.2 l 0.25,0.25 0.15,0.15 q 0.7,1.15 0.85,1.65 V 42.2 L 1.7,42.15 2.5,40.5 2.65,40.35 2.9,40.1 H 3.15 L 3.2,40.05 3.6,39.6 3.65,39.55 1.4,39.6 -0.1,39.65 -1.55,39.6 M 11.4,50.55 Q 1.65,48.65 1.65,43.6 v -0.75 l -3.5,-0.05 v 0.8 q 0,5.3 -10.65,7.1 l -3.15,0.4 -9.45,0.7 -1,0.15 q -3.2,0.3 -3.1,1 h 58.25 q 0.05,-0.5 -1.5,-0.8 L 24.95,51.8 15.5,51.1 11.4,50.55"
         fill="#6b6b6b"
         fill-rule="evenodd"
         stroke="none"
         id="path10" />
      <path
         d="m 26.4,-25.45 -1.7,-3.6 -2.55,-4.8 -2.8,-4.4 -1.5,-2.2 -0.9,-1.2 Q 13.9,-45.55 10.7,-48 7.3,-50.55 4.15,-51.15 L 0.4,-51.3 h -0.8 l -3.75,0.15 q -3.05,0.6 -6.35,3 5.5,-4.95 9.6,-3.65 v -0.05 h 5.95 q 6.45,1.4 14.25,12.55 6.2,8.85 7.1,13.85"
         fill="#a8a8a8"
         fill-rule="evenodd"
         stroke="none"
         id="path11" />
      <path
         d="M 27.65,50.8 26.5,50.6 25.85,50.5 h 0.55 l 1.25,0.3"
         fill="#ffffff"
         fill-rule="evenodd"
         stroke="none"
         id="path12" />
      <path
         d="m -34.2,10.6 q 0,-2.55 0.55,-5.7 0.6,8.1 7.65,13.35 8.15,6.05 22.2,6.05 L 0,24.1 3.8,24.3 Q 17.85,24.3 26,18.25 33.05,13 33.65,4.9 l 0.55,4.55 q -1.25,4.35 -4.75,8.35 -7.95,9 -24.6,8.75 h -10 q -16.35,-0.5 -24.3,-8.65 -3.4,-3.45 -4.75,-7.3 m 21.7,40.1 8.4,-0.15 h 15.5 l 4.1,0.55 9.45,0.7 2.6,0.35 -1.15,0.15 -30.5,-0.05 -18,-0.3 h -4 l 1,-0.15 9.45,-0.7 3.15,-0.4"
         fill="#c8a8a8"
         fill-rule="evenodd"
         stroke="none"
         id="path13" />
      <path
         d="m -34.2,10.6 q 1.35,3.85 4.75,7.3 7.95,8.15 24.3,8.65 h 10 q 16.65,0.25 24.6,-8.75 3.5,-4 4.75,-8.35 v 1.15 q 0,3.5 -1.05,7.05 -0.95,3.2 -3.1,7.5 -2.9,5.65 -11.35,9.65 L 13,37.05 0,38 -13,37.05 -18.7,34.8 q -8.45,-4 -11.35,-9.65 -2.15,-4.3 -3.1,-7.5 -1.05,-3.55 -1.05,-7.05 m 21.7,40.1 q 10.65,-1.8 10.65,-7.1 v -0.8 l 3.5,0.05 v 0.75 q 0,5.05 9.75,6.95 H -4.1 l -8.4,0.15 m 40.05,1.45 q 1.55,0.3 1.5,0.8 H -29.2 q -0.1,-0.7 3.1,-1 h 4 l 18,0.3 30.5,0.05 1.15,-0.15"
         fill="#b89999"
         fill-rule="evenodd"
         stroke="none"
         id="path14" />
      <path
         d="M -1.55,39.6 -0.1,39.65 1.4,39.6 3.65,39.55 3.6,39.6 3.2,40.05 3.15,40.1 H 2.9 L 2.65,40.35 2.5,40.5 1.7,42.15 -1.85,42.2 V 42.15 Q -2,41.65 -2.7,40.5 L -2.85,40.35 -3.1,40.1 h -0.2 l -0.05,-0.05 -0.4,-0.45 -0.1,-0.05 2.3,0.05"
         fill="#a08585"
         fill-rule="evenodd"
         stroke="none"
         id="path15" />
      <path
         d="m -23.2,-27.7 1.85,-3.45 3.25,-5.3 0.4,-0.6 0.5,-0.85 1.1,-1.55 3.85,-4.4 0.9,-0.95 1.2,-1.1 0.85,-0.7 0.8,-0.6 1.35,-1.05 q 0.9,-0.65 2.5,-1.15 l 0.45,-0.15 h 0.05 l 2.55,-0.2 1.45,-0.1 4.3,0.3 H 4.2 q 1.9,0.55 2.95,1.3 l 1.55,1.15 2.2,1.85 0.25,0.25 0.2,0.2 q 4.25,4.3 5.85,6.9 l 1.8,2.85 1.55,2.5 0.8,1.4 q 2.25,3.85 3.35,6.95 l 0.6,1.7 Q 21,-31.4 19,-34.45 l -3.5,-3.85 -3.3,-2.9 q -2.55,-3 -4.85,-4.65 -1.4,-1 -2.65,-1.5 l -1.1,-0.4 H 3.45 L 2.65,-47.95 2.1,-48 H 1.2 0.4 v -0.05 H -0.1 -0.4 L -1.2,-48 q -3.5,-0.3 -7.6,3.4 l -4.1,3.05 -3.4,3.15 -0.1,0.15 -3.7,6.1 q -1.6,2.65 -3.1,4.45 m 41.55,47.6 -1.7,0.6 0.3,-0.2 -2.05,0.25 H 14.55 L 11.65,21.1 8.8,21.35 5.9,21.3 5.4,21.4 -3.15,21.35 -5,21.4 q -13.45,0 -20.95,-7.5 -5.25,-5.25 -5.25,-9.75 l 0.05,-0.75 0.2,-1.5 0.55,-1.65 q 0.3,-1.25 0.95,-1.65 l -0.15,1.1 -0.05,0.2 -0.1,0.95 -0.1,1.25 -0.05,0.95 v 0.7 l 0.05,0.3 V 4.6 q 0.3,3 1.85,5 1.75,2.25 4.55,4.55 6.6,5.45 15.75,5.7 l 7.3,-0.1 H 0 0.4 L 1.75,19.8 H 2.1 l 4.65,0.05 H 7.7 l 3.45,-0.3 q 2.4,-0.35 4.65,-1.1 2.7,-0.95 5.15,-2.45 l 2.5,-1.85 0.3,-0.2 1.5,-1.35 1.95,-2 0.1,-0.15 L 28,9.6 28.85,8.35 29.25,7.4 Q 29.8,5.85 29.9,3.95 V 3.75 3.3 l 0.4,0.7 0.05,1 q 0,2.6 -1.6,5.15 L 27,12.4 l -3.1,4.05 -1.7,0.95 -3.5,2.3 -0.35,0.2 m -43.1,-8.8 -0.2,-0.25 -0.05,-0.1 -0.05,-0.15 q -0.25,-0.8 0,-1.3 H -25 l 1.35,-0.45 11.2,-0.05 3.5,0.15 H -2.6 L -1.7,8.8 H -1 0 1 1.7 l 0.9,0.15 h 6.35 l 3.5,-0.15 11.2,0.05 1.1,0.4 L 25,9.3 h 0.05 l 0.1,0.9 v 0.05 l -0.1,0.3 L 25,10.75 24.85,11 24.3,11.7 24.1,12 22.6,12.55 q -3.7,1 -11.35,1.2 L 11,13.8 q -2.5,0.8 -5.6,1 l -6.1,-0.05 -5.35,-0.55 -11.9,-0.85 q -4.7,-0.65 -6.35,-1.85 l -0.45,-0.4"
         fill="#e3e3e3"
         fill-rule="evenodd"
         stroke="none"
         id="path16" />
      <path
         d="m -23.2,-27.7 q 1.5,-1.8 3.1,-4.45 l 3.7,-6.1 0.1,-0.15 3.4,-3.15 4.1,-3.05 q -2.45,2.1 -5.1,5.55 -6,7.9 -9.7,17.35 -3.3,8.55 -4.85,15.2 l -1,5.1 Q -30.1,-1 -30.4,0.25 l -0.55,1.65 -0.2,1.5 -0.05,0.75 q 0,4.5 5.25,9.75 7.5,7.5 20.95,7.5 l 1.85,-0.05 8.55,0.05 0.5,-0.1 2.9,0.05 2.85,-0.25 2.9,-0.55 h 0.35 l 2.05,-0.25 -0.3,0.2 Q 9.9,22.6 0.35,22.7 h -0.2 -0.5 Q -19.2,22.55 -27.05,14.4 -31.6,9.55 -31.6,3.2 q 0,-7.55 1.6,-12.9 2.9,-7.6 5.3,-14.5 l 1.5,-3.5 m 35.4,-13.5 3.3,2.9 3.5,3.85 q 2,3.05 6.3,11.95 L 30,-9.7 q 1.6,5.35 1.6,12.9 L 31.5,5 30.85,8.1 q -1.1,3.4 -3.8,6.3 -3.35,3.5 -8.7,5.5 l 0.35,-0.2 3.5,-2.3 1.7,-0.95 3.1,-4.05 1.75,-2.25 Q 30.35,7.6 30.35,5 L 30.3,4 29.9,3.3 q 0,-3.6 -1.45,-9.8 -1.55,-6.65 -4.85,-15.2 -3.7,-9.45 -9.7,-17.35 l -1.7,-2.15 m -36.95,52.3 0.45,0.4 q 1.65,1.2 6.35,1.85 l 11.9,0.85 5.35,0.55 6.1,0.05 q 3.1,-0.2 5.6,-1 l 0.25,-0.05 q 7.65,-0.2 11.35,-1.2 L 24.1,12 q -1.35,1.65 -3.4,2.9 l -1.1,0.6 -0.95,0.45 -1.9,0.75 h -0.1 L 16.5,16.75 Q 14.25,17.5 11.45,17.9 L 7.7,18.3 H 7.4 l -7,0.15 H 0 -0.4 l -7.3,-0.15 -1.85,-0.2 -1.9,-0.2 q -9.2,-1.4 -12.85,-6.2 l -0.45,-0.6"
         fill="#cdcdcd"
         fill-rule="evenodd"
         stroke="none"
         id="path17" />
      <path
         d="m -10.5,-48.15 q 3.3,-2.4 6.35,-3 l 3.75,-0.15 h 0.8 l 3.75,0.15 q 3.15,0.6 6.55,3.15 3.2,2.45 6.25,6.35 l 0.9,1.2 1.5,2.2 2.8,4.4 2.55,4.8 1.7,3.6 q 2.35,5.25 4.1,10.9 l 1.4,4.85 q 4,12.2 4,20.35 0,7.45 -4.05,15.1 Q 25.75,37.1 13,38.95 l -2.75,0.3 H 6.85 L 6.45,39.3 6.1,39.6 5.55,40.05 5.5,40.1 5.35,40.2 v 0.05 l -0.15,0.1 m -15.7,-88.5 -0.2,0.15 q -3.15,2.45 -6.25,6.35 l -2.4,3.4 -2.8,4.4 q -5.1,8.9 -8.35,19.3 l -1.4,4.85 q -4,12.2 -4,20.35 0,7.45 4.05,15.1 6.1,11.35 18.85,13.2 l 2.75,0.3 H -7 l 0.35,0.05 0.4,0.3 0.55,0.45 0.05,0.05 0.1,0.1 0.1,0.05 0.45,0.1 q 1.35,1.2 1.35,3 0,2.85 -4.25,4.45 -3.05,1.05 -9.4,1.75 l -9.4,1.05 q -4.25,0.75 -4.25,2.25 0,1 0.85,1.35 h 60 q 0.85,-0.35 0.85,-1.35 0,-1.3 -3.1,-2.05 L 26.5,50.6 25.85,50.5 17.1,49.55 Q 10.75,48.85 7.75,47.8 3.5,46.2 3.5,43.35 q 0,-1.8 1.4,-3 l 0.45,-0.1 M 13.4,-38 q -0.95,-1.85 -3.15,-4.15 l -0.2,-0.3 -0.55,-0.6 -1.4,-1.25 -1.5,-0.95 -3.2,-1.45 -1.55,-0.5 h -3.7 q -2.75,0.8 -4.75,1.95 l -1.5,0.95 -1.95,1.85 -0.2,0.3 q -2.2,2.3 -3.15,4.15 l -1,1.25 -1.25,1.95 q -1.95,2.2 -3.45,5.4 l -2.9,6.8 q -2.6,5.65 -4.4,12.75 -1.9,7.65 -1.9,13.3 l 0.35,1.95 0.65,1.6 0.7,1.25 0.95,-0.8 0.6,0.05 L -18,7.15 -10.85,7.2 0,7.45 10.85,7.2 21.3,7.15 h 1.15 L 23.4,7.1 23.35,7.15 h 0.4 l 1,0.1 0.55,0.05 q 0.7,0.2 1.05,0.6 l 0.25,0.35 q 1.7,-2.9 1.7,-4.8 0,-5.65 -1.9,-13.3 -1.8,-7.1 -4.4,-12.75 l -2.9,-6.8 q -1.5,-3.2 -3.45,-5.4 l -1.25,-1.95 -1,-1.25 m -18.75,78.35 -0.1,-0.1"
         fill="none"
         stroke="#6b6b6b"
         stroke-linecap="round"
         stroke-linejoin="round"
         stroke-width="2"
         id="path18" />
    </g>
  </defs>
</svg>
