<?xml version="1.0" encoding="UTF-8" standalone="no"?>
<svg
   ffdec:objectType="frame"
   height="37.832142"
   width="58.799999"
   version="1.1"
   id="svg6"
   sodipodi:docname="2.svg"
   xmlns:inkscape="http://www.inkscape.org/namespaces/inkscape"
   xmlns:sodipodi="http://sodipodi.sourceforge.net/DTD/sodipodi-0.dtd"
   xmlns:xlink="http://www.w3.org/1999/xlink"
   xmlns="http://www.w3.org/2000/svg"
   xmlns:svg="http://www.w3.org/2000/svg"
   xmlns:ffdec="https://www.free-decompiler.com/flash">
  <sodipodi:namedview
     id="namedview6"
     pagecolor="#ffffff"
     bordercolor="#000000"
     borderopacity="0.25"
     inkscape:showpageshadow="2"
     inkscape:pageopacity="0.0"
     inkscape:pagecheckerboard="0"
     inkscape:deskcolor="#d1d1d1"
     fit-margin-top="5"
     fit-margin-left="5"
     fit-margin-right="5"
     fit-margin-bottom="5" />
  <g
     transform="translate(29.6,18.782143)"
     id="g2">
    <use
       ffdec:characterId="627"
       height="37.849998"
       transform="translate(-29.6,-18.8)"
       width="58.799999"
       xlink:href="#shape0"
       id="use1" />
    <use
       ffdec:characterId="44"
       height="8"
       transform="matrix(1.0906,0,0,1,4.5609,5.2)"
       width="10.8"
       xlink:href="#sprite0"
       id="use2" />
  </g>
  <defs
     id="defs6">
    <g
       id="shape0"
       transform="translate(29.6,18.8)">
      <path
         d="m 17.7,1.8 v -3.05 l -7.5,-0.1 h -20.6 -0.2 l -2.65,0.05 -2.65,0.05 h -2.05 v 3.4 10.3 l 0.1,1.75 v 0.2 h 1.2 0.9 2.95 1.4 7.6 20.2 1.2 v -0.2 l 0.1,-1.75 V 1.8 m 11.45,-18.7 0.05,0.2 -0.05,0.2 0.05,0.15 V -2.5 q -0.7,1.3 -2,1.3 l -0.95,-0.2 -1,0.05 h -2.3 l 0.05,15.6 -0.05,2.4 q -0.5,2.25 -2.6,2.25 h -0.5 l -3.45,0.15 h -33.05 l -3.4,-0.15 h -0.5 q -2.15,0 -2.6,-2.25 l -0.1,-2.4 0.1,-15.6 h -2.3 l -1,-0.05 -1,0.2 q -1.45,0 -2.15,-1.7 v -13 l 0.2,-0.6 v -0.4 q 0,-0.85 0.65,-1.3 l 0.4,-0.15 q 0.25,-0.55 0.6,-0.4 l 0.25,0.15 4.35,-0.15 24.1,0.25 22,-0.25 4.3,0.15 0.3,-0.15 q 0.3,-0.15 0.6,0.4 l 0.35,0.15 q 0.65,0.45 0.65,1.3 M -6.35,-6 H 10.2 q 9.65,-0.05 14.25,0.35 V -9.9 l 0.1,-3.3 -26.95,-0.05 h -0.55 -3.6 l -9.05,0.05 h -3.15 -2.95 -3.05 l 0.1,3.3 v 4.25 l 3.4,-0.2 2.15,-0.1 2.65,-0.05 h 2.55 1.35 2.15 4.05"
         fill="#6b6b6b"
         fill-rule="evenodd"
         stroke="none"
         id="path2" />
      <path
         d="m 17.7,1.8 v 10.65 l -0.1,1.75 v 0.2 H 16.4 -3.8 q 0.3,-0.65 0.45,-1.65 L -3.25,9.1 Q -2.8,5.4 -2.9,2.25 V 2.2 L 12.15,2.4 17.7,1.8 m -29.1,12.6 h -1.4 l 0.2,-2.1 V 7.2 q 0.15,-2.45 0,-4.7 V 2.25 l 1.55,-0.05 -0.25,3.05 -0.1,9.15 m -4.35,0 h -0.9 -1.2 v -0.2 l -0.1,-1.75 V 2.15 l 1.85,0.05 0.05,5 V 12 l 0.3,2.4 m 9.2,-27.65 h 3.6 0.55 l 26.95,0.05 -0.1,3.3 v 4.25 Q 19.85,-6.05 10.2,-6 H -6.35 l 0.2,-0.75 v -2.1 q 0,-2.85 -0.4,-4.4 m -9.9,7.25 -2.65,0.05 0.3,-2.3 0.05,-4.95 h 3.15 q -0.85,1.7 -0.85,4.8 V -6 m -4.8,0.15 -3.4,0.2 V -9.9 l -0.1,-3.3 h 3.05 l 0.1,4.65 0.35,2.7"
         fill="#908881"
         fill-rule="evenodd"
         stroke="none"
         id="path3" />
      <path
         d="m -17.95,2.15 v -3.4 h 2.05 l 2.65,-0.05 2.65,-0.05 h 0.2 20.6 l 7.5,0.1 V 1.8 L 12.15,2.4 -2.9,2.2 -7.8,2.1 -11.05,2.2 -12.6,2.25 -16.1,2.2 -17.95,2.15"
         fill="#7f7670"
         fill-rule="evenodd"
         stroke="none"
         id="path4" />
      <path
         d="m -3.8,14.4 h -7.6 l 0.1,-9.15 0.25,-3.05 3.25,-0.1 4.9,0.1 V 2.25 Q -2.8,5.4 -3.25,9.1 l -0.1,3.65 q -0.15,1 -0.45,1.65 m -9,0 h -2.95 L -16.05,12 V 7.2 l -0.05,-5 3.5,0.05 V 2.5 q 0.15,2.25 0,4.7 v 5.1 l -0.2,2.1 M -6.35,-6 h -4.05 -2.15 -1.35 -2.55 v -2.4 q 0,-3.1 0.85,-4.8 l 9.05,-0.05 q 0.4,1.55 0.4,4.4 v 2.1 L -6.35,-6 m -12.75,0.05 -2.15,0.1 -0.35,-2.7 -0.1,-4.65 h 2.95 l -0.05,4.95 -0.3,2.3"
         fill="#a49b94"
         fill-rule="evenodd"
         stroke="none"
         id="path5" />
    </g>
    <g
       id="sprite0"
       transform="translate(5.4,4)">
      <use
         ffdec:characterId="43"
         height="8"
         transform="translate(-5.4,-4)"
         width="10.8"
         xlink:href="#shape1"
         id="use5" />
    </g>
    <g
       id="shape1"
       transform="translate(5.4,4)">
      <path
         d="m 2.9,-0.35 q 0,-1.25 1.25,-1.25 1.25,0 1.25,1.2 0,1.3 -1.25,1.3 Q 3.6,0.9 3.25,0.5 2.9,0.15 2.9,-0.35 m 0.35,-2.3 q 0,0.55 -0.35,0.9 -0.4,0.45 -1,0.45 -1.35,0 -1.35,-1.4 0,-1.3 1.35,-1.3 1.35,0 1.35,1.35 m -3.1,1.9 h 0.2 q 2.6,0.1 2.6,2.8 l -0.3,1 Q 2.05,4 0.45,4 H 0.35 0.15 0.1 -0.45 q -1.6,0 -2.2,-0.95 l -0.3,-1 q 0,-2.8 2.8,-2.8 h 0.3 M -1.55,-4 q 1.35,0 1.35,1.35 0,0.55 -0.4,0.9 -0.4,0.45 -0.95,0.45 -1.4,0 -1.4,-1.4 0,-1.3 1.4,-1.3 m -2.6,2.4 q 1.25,0 1.25,1.25 0,0.5 -0.35,0.85 -0.35,0.4 -0.9,0.4 -1.25,0 -1.25,-1.3 0,-1.2 1.25,-1.2"
         fill="#6b6b6b"
         fill-rule="evenodd"
         stroke="none"
         id="path6" />
    </g>
  </defs>
</svg>
