<?xml version="1.0" encoding="UTF-8" standalone="no"?>
<svg
   ffdec:objectType="frame"
   height="71.400002"
   width="139.32161"
   version="1.1"
   id="svg6"
   sodipodi:docname="1.svg"
   xmlns:inkscape="http://www.inkscape.org/namespaces/inkscape"
   xmlns:sodipodi="http://sodipodi.sourceforge.net/DTD/sodipodi-0.dtd"
   xmlns:xlink="http://www.w3.org/1999/xlink"
   xmlns="http://www.w3.org/2000/svg"
   xmlns:svg="http://www.w3.org/2000/svg"
   xmlns:ffdec="https://www.free-decompiler.com/flash">
  <sodipodi:namedview
     id="namedview6"
     pagecolor="#ffffff"
     bordercolor="#000000"
     borderopacity="0.25"
     inkscape:showpageshadow="2"
     inkscape:pageopacity="0.0"
     inkscape:pagecheckerboard="0"
     inkscape:deskcolor="#d1d1d1"
     fit-margin-top="5"
     fit-margin-left="5"
     fit-margin-right="5"
     fit-margin-bottom="5" />
  <g
     transform="translate(69.684092,35.6)"
     id="g1">
    <use
       ffdec:characterId="1500"
       height="71.400002"
       transform="translate(-69.7,-35.6)"
       width="139.35001"
       xlink:href="#shape0"
       id="use1" />
  </g>
  <defs
     id="defs6">
    <g
       id="shape0"
       transform="translate(69.7,35.6)">
      <path
         d="m -2.25,-31.7 56.95,-0.05 9.6,0.55 2.4,-0.05 -0.8,0.6 -7.75,-0.1 H 29.8 l -5.65,0.1 h -23.8 -0.7 -17.3 -6.5 l -5.7,-0.1 h -16.5 l -0.85,-0.4 -1.3,-0.55 h 39.85 l 1.55,0.05 0.15,0.15 2.75,0.15 1.95,-0.35 m 26.4,3.1 0.3,-0.05 0.05,1.3 -0.05,10.65 h -48.9 l -0.05,-10.65 0.05,-1.3 0.3,0.05 h 48.3 m -3.25,8.65 -0.75,0.1 H 3.55 l 1.25,-0.6 1.65,-0.7 -2,0.45 q -1.7,0.5 -1.7,0.8 v 0.05 h -22.9 l -1.95,-0.05 -0.05,-3 0.2,-0.05 0.5,-1.25 3.15,0.35 h 0.15 l -0.15,0.75 v 0.15 0.3 l 0.15,0.95 0.5,0.45 1.3,0.25 q 0.95,0 1.45,-0.8 0.4,-0.55 0.4,-1.15 0,-0.6 -0.25,-0.95 l 4.3,-0.1 H 14.8 q -0.35,0.4 -0.35,1.05 0,0.6 0.4,1.15 0.55,0.8 1.45,0.8 1.35,0 1.8,-0.7 0.2,-0.3 0.2,-0.95 L 18.05,-24 h 3.15 l 0.55,2.05 0.2,-0.1 q -0.1,1.25 -1.05,2.1 m -35.9,-6.9 h -7.2 v -0.2 l -0.65,0.45 -0.25,0.2 0.15,0.15 -0.15,0.75 0.1,2.1 -0.1,4.25 q -0.05,0.6 0.5,0.6 l 0.3,-0.05 h 0.1 44.4 0.1 l 0.3,0.05 q 0.55,0 0.5,-0.6 l -0.1,-4.25 0.1,-2.1 -0.15,-0.75 0.15,-0.15 -0.3,-0.2 -0.6,-0.45 v 0.2 H -3.95 l -1.55,-0.8 q -1.8,-0.6 -3.6,0.8 h -2.3 L -15,-27 v 0.15 m 45.25,37.15 -0.1,0.25 -1,0.05 H 26.8 v -38.05 l 0.05,-1.25 2.55,-0.1 h 0.4 1 l -0.3,6.4 -0.05,8.2 0.05,13.15 V 0.35 5.6 L 30,6 h -0.4 l -0.05,0.25 0.05,0.55 0.05,0.1 0.6,3.4 m 2.95,-37.55 h -0.05 v 10.6 l 1.75,0.15 1.45,0.05 H 51.6 l 1.45,-0.05 1.75,-0.15 v -10.6 h -0.05 q 0,-0.35 -0.5,-0.25 h -0.05 -0.3 -9.2 -0.35 -0.4 -0.35 -0.35 -9.2 -0.3 -0.05 q -0.5,-0.1 -0.5,0.25 m 20.55,2.95 -0.1,2.9 -0.6,1.2 -1.5,2.7 h -15.2 l -2.1,0.05 0.05,-2.9 -0.1,-4.45 q 0.85,0.55 3.2,0.55 l 16.05,-0.1 h 0.25 l 0.05,0.05 m -0.05,5.85 v 1 h -0.8 l 0.8,-1 M 31.5,-28.8 h 24.95 q -0.15,1.05 -0.15,2.35 l 0.1,4.2 v 8.1 13 0.1 1.4 5 L 31.5,5.3 31.55,0.35 v -1.4 -0.1 -13 -8.1 l 0.1,-4.2 -0.15,-2.35 m -41.9,16.9 q -1,-0.45 -1.9,-1.1 l -1.55,-0.65 -1.25,-0.6 q -1.4,-0.35 -2.55,0 -0.9,0.25 -1.7,0.95 l -0.85,0.85 -0.4,0.45 q -1.1,1.6 -1.35,2.85 -1,1.4 -2.35,1.4 h -0.15 v -7.95 h 48.9 v 7.95 h -0.2 q -1.3,0 -2.3,-1.4 -0.3,-1.25 -1.4,-2.85 l -0.35,-0.45 -0.85,-0.85 q -1.75,-1.55 -4.25,-0.95 l -1.25,0.6 -1.6,0.65 q -2.65,1.95 -5.6,1.6 -0.7,-0.1 -1.5,-0.85 l -0.7,-0.5 -0.9,-0.25 -0.15,-0.05 -0.15,0.15 -1.35,0.7 -1.9,0.55 -1.9,-0.55 -1.35,-0.7 -0.15,-0.15 -0.15,0.05 -0.9,0.25 -0.7,0.5 -0.35,0.3 -0.1,-0.1 -2.6,-0.45 -2,0.25 -0.2,0.35 m -14.25,24.05 0.2,0.75 V 13 q 0,0.7 -1.15,1.2 l -0.35,0.1 -0.05,-0.05 q 0.65,-0.15 0.85,-0.65 l 0.1,-0.65 V 12.9 l -0.05,-0.25 0.35,-0.35 0.1,-0.15 m -1.45,6.25 -0.05,0.05 -0.05,-0.05 h 0.1 m 1.15,10.7 0.2,0.55 -0.05,0.5 -0.05,-0.3 -0.1,-0.75 m -0.85,1.75 0.15,0.4 -0.25,-0.4 h 0.1 m -4.85,-12.25 0.1,-0.2 h 0.05 l -0.15,0.2 m -25.7,-6.35 0.1,0.55 v 0.1 q -0.05,0.5 -0.55,0.8 v -0.1 l 0.1,-0.65 V 12.9 l -0.2,-0.45 0.55,-0.2 m -1.2,1.95 q 0.45,0.45 0.7,1.2 l -0.2,-0.25 -0.65,-0.9 0.15,-0.05 m 0.2,4.1 -0.15,0.1 -0.2,0.15 -0.15,-0.15 0.5,-0.1 m 0.35,9.15 0.05,1.2 q -0.25,-0.2 -0.6,-0.2 l 0.55,-1 m 0.15,3.2 v 1.55 q -0.2,-0.55 -0.75,-1.35 l 0.75,-0.2 m -6.05,1 -0.05,-0.9 0.5,0.1 -0.45,0.8 m -0.15,-3 -0.05,-1.5 0.65,1.3 -0.6,0.2 m 0.35,-9.7 0.1,-0.6 0.25,0.05 h 0.2 l -0.1,0.1 -0.45,0.45 m 125.55,-4.9 -0.15,0.2 q 0.7,0.55 0.85,1.8 l -0.6,-0.9 -0.6,-0.75 -0.05,-0.15 0.3,-0.1 0.25,-0.1 m -0.55,4.35 0.1,0.2 -0.25,-0.2 h 0.15 m -4.75,0.25 0.2,-0.25 h 0.1 l -0.3,0.25 M 56.7,13.05 56.45,12.9 q 0,-0.3 0.15,-0.5 l 0.25,0.05 q -0.15,0.2 -0.15,0.45 v 0.15 M 31.55,12.3 v 0.2 0.2 l -0.15,-0.3 0.15,-0.1 m -0.4,5.95 0.1,1 -0.8,-0.85 0.7,-0.15 m 0.15,12.5 v 0.05 1 l -0.55,-0.95 0.55,-0.1 m 7.9,-54.05 0.2,0.55 q 0.3,0.4 1.15,0.5 l -0.05,0.05 -0.2,1.35 0.75,0.6 h 5.5 l 0.7,-0.6 -0.15,-1.35 -0.1,-0.05 q 0.9,-0.1 1.2,-0.5 l 0.15,-0.55 v -0.05 q -0.05,-0.7 -1.6,-0.7 -1.3,0 -1.6,0.55 l -0.1,0.3 q 0,0.75 0.95,0.95 l -0.1,0.55 h -4.25 l -0.05,-0.55 q 0.9,-0.2 0.9,-0.95 l -0.1,-0.35 q -0.3,-0.5 -1.55,-0.5 -1.3,0 -1.6,0.55 l -0.05,0.2 m -5.5,8.6 q -0.5,-0.1 -0.5,0.25 h -0.05 v 0.2 L 33,-13.6 q 0,0.3 0.15,0.55 V 3.6 L 34.9,3.75 36.35,3.8 H 51.6 L 53.05,3.75 54.8,3.6 v -18.05 h -0.05 q 0,-0.35 -0.5,-0.25 h -0.1 l -0.7,-0.3 h -16.9 l -2.85,0.3 m 20.1,2.4 -0.1,1.35 h -0.05 v 8.55 1.35 0.1 l 0.05,2.9 -1.85,-0.1 q -1.6,0.9 -2.45,0.85 l 0.1,0.05 H 39.2 l -2.7,-3.8 -0.4,-0.5 -0.55,-0.85 h -0.7 q -0.45,-1.25 -0.1,-2.25 h -0.2 l -0.2,2.25 h 0.05 q 0.1,0.8 0.45,1.35 l 0.55,0.6 q 1.8,1.2 3.2,3.2 h -2.25 l -2.1,0.1 0.05,-3.8 v -0.1 -0.9 -0.25 -0.2 -8.25 l 1.1,-1.15 0.4,-0.5 0.75,0.05 h 16.9 l 0.35,-0.05 m -19.55,0.8 -0.1,-1.05 0.6,0.15 -0.05,0.05 -0.45,0.85 m 5,4.85 -0.05,0.25 0.2,0.5 q 0.3,0.4 1.15,0.55 l -0.05,0.05 -0.2,1.3 0.75,0.6 h 5.5 L 47.25,-4 47.1,-5.3 47,-5.35 q 0.9,-0.15 1.2,-0.55 l 0.15,-0.5 v -0.1 q -0.05,-0.65 -1.6,-0.65 -1.3,0 -1.6,0.5 l -0.1,0.3 q 0,0.75 0.95,0.95 l -0.1,0.55 H 41.65 L 41.6,-5.4 q 0.9,-0.2 0.9,-0.95 L 42.4,-6.7 q -0.3,-0.45 -1.55,-0.45 -1.3,0 -1.6,0.5 m 27.45,-25.4 0.15,0.45 -3.5,-0.15 h 0.95 l 2.4,-0.3 m -9,42.25 -0.3,-0.45 0.05,-0.6 V 7.3 0.35 l 0.05,-1.4 -0.05,-0.25 0.05,-12.9 -0.05,-8.2 -0.3,-6.4 h 1 0.4 l 2.55,0.1 0.05,1.25 v 7.55 l -0.45,2.5 q -0.3,2.5 -0.3,4.5 0,0.85 0.75,4.6 V 6.55 L 60.8,6.9 57.7,10.2 m 3.45,-3.4 v 3.8 H 58.8 58.6 l 1.5,-1.7 1,-2 0.05,-0.1 m 1.1,6.45 -0.2,0.05 -0.5,0.05 -0.7,0.1 H 59.8 59.1 l -0.7,-0.1 -0.5,-0.05 -0.15,-0.05 0.1,-0.25 0.65,-0.1 0.6,-0.05 h 1.3 0.45 l 0.6,0.05 0.65,0.1 0.15,0.25 m -4.3,2.25 0.3,-0.3 0.7,-0.75 V 14.3 h 0.15 l 0.25,0.05 h 0.25 0.3 0.5 l 0.45,-0.05 h 0.2 v 0.15 l 0.1,0.15 0.4,0.4 H 60.1 q -1.45,0.15 -2.15,0.5 m 4.5,0.55 v 0.05 l -0.2,0.95 -0.7,0.35 -0.7,0.25 h -0.4 -0.05 -0.8 -0.1 -0.4 l -0.3,-0.1 -0.8,-0.3 h 0.4 l 2.25,-0.65 1.8,-0.55 m -0.5,5.65 -0.4,2.7 -0.45,2.95 0.05,0.75 0.05,0.3 h -0.35 -1 -0.75 -0.35 l 0.05,-0.3 0.1,-0.75 -0.15,-0.95 1.05,-3.05 0.6,-1.2 1.3,-0.35 0.25,-0.1 m -3.4,3.35 -0.15,-0.65 -0.4,-2.75 1.5,0.55 -0.05,0.25 -0.7,2.05 -0.2,0.55 m -0.6,-4.3 q 0.05,-0.65 0.35,-1 l 0.65,-1.3 H 61 l 0.55,1.05 -1.2,0.25 q -1.65,0.4 -2.4,1 M 41.25,6 H 56.4 L 56.45,8.8 56.1,8.55 V 8.45 Q 54.95,7.8 53.15,7.8 q -2.05,0 -3.05,1.4 -1,1.4 -1.75,1.4 -1.05,0 -1.6,-0.35 l -0.2,-0.1 Q 46.4,9.2 44.7,9.95 l -0.75,0.3 -0.7,-0.3 q -1.7,-0.75 -1.85,0.2 l -0.2,0.1 -1.6,0.35 q -0.35,0 -0.8,-0.35 v -1.4 l -0.75,-0.8 h -1.7 L 34.8,7.8 q -1.6,0 -2.75,0.55 V 8.4 Q 31.75,8.55 31.5,8.8 V 6 h 7.75 L 40.3,6.1 41.25,6 m 16.55,23.1 0.1,-0.05 0.45,0.05 h 0.75 l 0.5,0.05 h 0.25 0.5 0.05 l 0.45,-0.05 h 0.3 l 1.05,-0.05 0.1,0.1 0.1,0.25 -0.5,0.5 h -0.3 -0.15 -0.2 l -0.4,0.05 H 60.4 60.3 59.6 59.25 59.1 58.95 l -0.4,-0.05 h -0.2 -0.25 q -0.55,-0.15 -0.55,-0.5 l 0.1,-0.25 0.15,-0.05 m 1.3,1.75 h 0.8 0.95 0.75 l 0.2,0.25 q 0.4,0.5 0.4,0.95 l -0.05,0.8 h -1.3 -0.45 -0.8 -0.5 -1.25 l -0.05,-0.8 q 0,-0.45 0.4,-0.95 l 0.15,-0.25 h 0.75 m -1.05,3 1.05,0.05 h 0.65 0.45 0.65 L 62.05,33.85 62.1,34 H 62 l -1.15,0.05 H 60.2 59.75 59.1 58.5 l -0.45,-0.2 M 29.8,12.9 l 0.65,0.1 0.1,0.25 -0.15,0.05 -0.5,0.05 -0.7,0.1 h -1.05 -0.7 l -0.7,-0.1 -0.5,-0.05 -0.2,-0.05 q 0,-0.2 0.15,-0.25 l 0.65,-0.1 0.6,-0.05 h 1.25 0.5 l 0.6,0.05 m -3.1,2.15 0.55,-0.6 V 14.3 h 0.2 l 0.45,0.05 h 0.35 0.45 l 0.5,-0.05 h 0.15 v 0.15 l 0.55,0.6 -1.55,-0.1 -1.65,0.1 m 4.05,1.6 -0.15,0.35 -0.05,0.05 -1.35,0.6 h -0.4 -0.1 -0.8 -0.05 -0.4 l -0.5,-0.15 -0.9,-0.45 -0.15,-0.4 1.85,0.25 h 0.65 l 1.9,-0.15 0.45,-0.1 M 26.3,21.2 v -0.4 q 0.05,-0.7 0.35,-1.05 l 0.65,-1.3 h 2.05 l 0.35,0.7 0.25,0.55 q -0.4,0.2 -0.65,0.75 L 29.2,20.7 H 29.1 L 28.7,20.65 Q 26.85,20.6 26.3,21.2 m 3.7,2.55 -0.1,0.65 -0.5,2.95 0.1,0.75 0.05,0.3 h -0.35 -1 -0.75 -0.35 l 0.05,-0.3 0.05,-0.75 -0.45,-2.95 -0.25,-1.75 1.05,0.25 h 1.35 l 0.5,-0.05 v 0.1 l 0.1,0.25 0.5,0.55 m 0.75,5.65 q 0,0.35 -0.55,0.5 h -0.25 -0.2 L 29.2,29.95 H 28.7 27.9 27.45 L 26.85,29.9 H 26.7 26.4 q -0.5,-0.15 -0.5,-0.5 l 0.1,-0.25 0.1,-0.1 1.35,0.05 0.45,0.05 h 0.3 0.5 l 0.5,-0.05 1.3,-0.05 0.15,0.1 0.1,0.25 m -0.7,4.65 H 30 29.2 28.55 28.1 27.45 27 l -0.4,-0.2 0.85,0.05 h 0.65 0.45 0.65 l 1.2,-0.05 -0.35,0.2 m 0.4,-1.2 h -1.25 -0.5 -0.8 -0.45 -1.3 l -0.05,-0.8 0.15,-0.55 0.25,-0.4 0.2,-0.25 h 0.75 0.8 0.95 0.75 l 0.15,0.25 q 0.4,0.5 0.4,0.95 l -0.05,0.8 m -81.85,-64.55 -2.1,0.3 -8.05,0.45 -0.95,-0.85 3,0.1 h 8.1 m -13,-0.2 0.55,0.9 0.35,0.35 h -2.45 q -0.9,-0.6 -0.9,-0.95 l 0.25,-0.55 0.4,0.1 1.8,0.15 m 5.4,3.15 -0.2,1.45 -0.25,3.05 q -0.3,1.15 -1.4,3.35 l -0.35,0.7 v -7.25 l 0.1,-1.25 2.1,-0.05 m -2.2,10.55 q 1.95,-2.5 2.6,-5.4 0.4,-1.8 0.4,-5.2 h 1.05 l -0.3,6.4 -0.05,7.6 -0.5,1.4 -0.2,2 0.25,2.5 v 0.15 L -57.5,-5 h 0.05 v 3.7 0.25 1.4 6.95 1.85 l 0.05,0.6 -0.4,0.8 -1,0.05 h -1.95 l 0.7,-0.9 Q -59.7,9.15 -59.7,8.3 L -59.85,6.9 -60,6.3 -60.05,6 h -0.3 L -60.6,5.15 h -0.15 L -61.1,3.7 -61.15,3.5 -61.2,-18.2 m 4.9,-8.25 -0.2,-2.35 h 25 l -0.2,2.35 0.1,4.2 v 8.1 l 0.05,13.1 v 1.4 l 0.05,4.95 -24.95,0.05 v -5 l 0.05,-1.4 -0.05,-0.1 0.05,-13 v -8.1 l 0.1,-4.2 m 2.45,0.5 0.85,0.7 5.9,0.15 h 12.55 l 0.4,-0.2 -0.15,4.95 v 1.8 l -2.75,1.05 h -12.9 l -0.5,-0.15 -2.1,-2.15 -1.1,-0.7 -0.2,-5.45 m 3.15,-1.55 h -3.25 -0.3 -0.05 q -0.45,-0.1 -0.45,0.25 h -0.05 v 10.6 l 1.75,0.15 1.45,0.05 h 15.2 l 1.45,-0.05 1.75,-0.15 v -1.55 l 0.2,-0.25 -0.1,-0.3 h -0.1 v -8.5 q 0,-0.35 -0.5,-0.25 h -0.05 -0.3 -9.25 -0.35 -0.3 -0.4 -0.35 -5 l -0.1,-0.15 -0.9,0.15 m 9.05,5.8 h -4.3 L -46,-22.25 q 0.9,-0.2 0.9,-0.95 l -0.1,-0.3 q -0.3,-0.55 -1.55,-0.55 -1.55,0 -1.65,0.7 v 0.05 l 0.2,0.55 q 0.3,0.4 1.15,0.5 l -0.05,0.05 -0.2,1.35 0.7,0.6 h 5.55 l 0.7,-0.6 -0.15,-1.35 -0.05,-0.05 q 0.8,-0.1 1.15,-0.5 l 0.15,-0.55 -0.05,-0.2 q -0.25,-0.55 -1.55,-0.55 -1.25,0 -1.55,0.5 l -0.15,0.35 q 0,0.75 0.95,0.95 l -0.05,0.55 m 7.4,10.45 -0.05,0.55 v 3.55 q -0.7,0.75 -0.65,3.85 l 0.15,0.9 h 0.5 v 0.95 0.4 0.35 3.8 L -36.4,3 h -8.4 l 0.3,-0.35 -0.1,-0.4 -0.1,0.05 -1.5,-0.45 -1.85,-0.1 q -0.75,-0.85 -2.2,-1.65 -2.15,-1.2 -3.2,-0.9 v -0.25 l -0.1,-1.35 h -0.1 v -8.3 h -0.05 l -0.05,-1.05 q 0.95,0.6 4.05,0.55 h 15.15 l 0.3,-0.05 M -49.35,3 h -2.25 l -2.1,0.1 0.05,-3.4 q 3.6,0.25 4.55,1.2 l 0.7,1.55 -0.4,0.25 -0.55,0.3 m 6.25,-17.45 h -0.2 -0.35 -0.35 -0.35 -0.35 -6.8 l -1.5,-0.2 q -0.65,0 -0.35,0.15 v 0.05 h -0.6 -0.3 -0.05 q -0.45,-0.1 -0.45,0.25 h -0.05 v 13.05 l -0.1,0.1 -0.05,0.1 q -0.2,0.15 0.15,0.2 v 4.6 l 1.75,0.15 1.45,0.05 h 15.2 L -34.95,4 -33.2,3.85 V -12.1 l 0.1,-0.5 -0.1,-0.5 v -1.1 q 0,-0.35 -0.5,-0.25 h -0.05 -0.3 -7.15 l -0.05,-0.4 -1.85,0.4 m 0.7,8 -0.15,0.35 q 0,0.75 0.95,0.95 l -0.05,0.55 h -4.3 L -46,-5.15 q 0.9,-0.2 0.9,-0.95 l -0.1,-0.3 q -0.3,-0.5 -1.55,-0.5 -1.55,0 -1.65,0.65 v 0.1 l 0.2,0.5 q 0.3,0.4 1.15,0.55 l -0.05,0.05 -0.2,1.3 0.7,0.6 h 5.55 l 0.7,-0.6 -0.15,-1.3 -0.05,-0.05 q 0.8,-0.15 1.15,-0.55 0.2,-0.25 0.15,-0.5 L -39.3,-6.4 q -0.25,-0.5 -1.55,-0.5 -1.25,0 -1.55,0.45 m 15.55,13.6 v 3.45 h -2.3 l -1.05,-0.05 q -0.05,-0.45 -0.4,-0.8 l 0.05,-0.6 V 7.3 0.35 q 0.1,-0.7 0.05,-1.4 l -0.05,-0.25 0.05,-12.9 -0.05,-8.2 -0.3,-6.4 h 1 0.4 l 2.15,0.1 -0.15,2.2 0.65,1.45 V 0.2 l -1.05,0.75 Q -28.6,1.7 -28.6,3.15 L -27.8,6 h 0.35 l 0.45,0.9 0.15,0.25 m 0.05,-5.4 v 2.5 l -0.5,-1.95 0.5,-0.55 m -12.85,8.85 -1.55,-0.35 -0.25,-0.1 Q -41.6,9.2 -43.3,9.95 l -0.7,0.3 -0.7,-0.3 q -1.7,-0.75 -1.85,0.2 l -0.2,0.1 -1.6,0.35 q -0.8,0 -1.75,-1.4 -1,-1.4 -3.1,-1.4 -1.75,0 -2.95,0.65 v 0.1 L -56.5,8.8 -56.45,6 H -31.5 V 8.8 Q -31.75,8.55 -32.1,8.4 V 8.35 q -1.1,-0.55 -2.7,-0.55 -2.05,0 -3.1,1.4 -0.95,1.4 -1.75,1.4 m 9.05,2.65 0.15,-0.25 0.65,-0.1 0.6,-0.05 h 0.45 1.3 l 0.6,0.05 0.6,0.1 q 0.15,0.05 0.15,0.25 l -0.15,0.05 -0.5,0.05 -0.7,0.1 h -0.7 -1.05 l -0.7,-0.1 -0.5,-0.05 -0.2,-0.05 m 0.95,1.55 0.15,-0.15 0.1,-0.2 V 14.3 h 0.2 l 0.45,0.05 h 0.5 l -1.1,0.3 -0.3,0.15 m 3.8,1.45 q -0.05,0.65 -0.25,0.8 l -1,0.5 -0.35,0.1 h -0.4 -0.1 -0.8 -0.05 -0.4 l -0.35,-0.1 q -0.75,-0.25 -1.05,-0.5 l -0.1,-0.15 1.25,0.1 2.75,-0.4 0.85,-0.35 m -4.3,3.75 0.15,-0.25 0.55,-1.05 0.1,-0.25 h 2 l 0.15,0.3 0.55,1 -1.5,-0.1 -2,0.35 m 3.55,3.6 -0.15,0.8 -0.5,2.95 0.1,0.75 0.05,0.3 h -0.35 -0.75 -1 -0.35 l 0.05,-0.3 0.05,-0.75 -0.45,-2.95 -0.3,-1.85 h 0.25 l 2.65,-0.4 -0.05,0.45 q 0,0.4 0.75,1 m -3.35,7.25 h 0.75 0.95 0.8 0.75 l 0.15,0.25 q 0.4,0.5 0.4,0.95 l -0.05,0.8 h -1.25 -0.5 -0.8 -0.45 -1.3 l -0.05,-0.8 q 0,-0.45 0.4,-0.95 l 0.2,-0.25 m 1.2,-1.7 h 0.55 0.25 l 0.5,-0.05 h 1 l 0.3,-0.05 0.15,0.1 0.1,0.25 q 0,0.35 -0.55,0.5 h -0.25 -0.2 -0.25 l -0.3,0.05 h -0.5 -0.6 -0.2 -0.45 l -0.45,-0.05 h -0.15 -0.15 -0.3 l -0.5,-0.5 0.1,-0.25 0.1,-0.1 h 0.2 l 1.15,0.05 0.45,0.05 m 2.2,4.9 h -0.9 -0.65 l -1.3,-0.15 h 0.2 0.65 0.45 0.65 l 1.2,-0.05 -0.3,0.2 m -31.2,-20.8 -0.2,0.05 -0.45,0.05 -0.25,0.05 -0.5,0.05 h -0.7 -1.05 l -0.7,-0.1 h -0.05 l -0.4,-0.05 -0.2,-0.05 0.15,-0.25 0.6,-0.1 0.6,-0.05 h 0.5 1.25 l 0.6,0.05 0.65,0.1 q 0.15,0.05 0.15,0.25 m -3.45,1.45 0.15,-0.25 V 14.3 h 0.15 l 0.5,0.05 h 0.5 0.3 l 0.45,-0.05 h 0.2 v 0.15 l 0.2,0.25 -1.25,-0.05 -1.2,0.05 m 3.65,1.9 -0.2,0.45 -0.6,0.35 -0.8,0.25 h -0.35 -0.1 -0.8 -0.1 -0.4 q -1,-0.3 -1.35,-0.6 l -0.1,-0.15 0.15,0.05 0.45,0.05 3.2,-0.15 1,-0.25 m -0.45,4.1 -1.4,-0.15 1,-0.85 0.05,0.05 q 0.3,0.3 0.35,0.95 m -3.7,2.3 q 0.45,0.35 1.35,0.35 l 2.15,-0.35 -0.2,1.4 -0.35,2.15 q -0.4,-0.75 -0.95,-1.4 L -60.15,24.5 -60.8,23.4 H -61 l -0.05,0.3 -0.65,-0.7 m 2.6,5.4 h -0.05 -0.7 -1.05 -0.35 l 0.05,-0.3 0.1,-0.75 -0.1,-0.8 0.5,0.65 0.7,-0.7 0.9,1.9 M -62,21.35 -62.05,20.8 -61.7,19.75 -61.25,19 -61,18.45 h 2 l 0.2,0.5 0.05,0.1 q -0.95,0.4 -2,1.65 -0.95,0.2 -1.25,0.65 m 3.8,7.75 0.4,-0.05 0.1,0.1 0.1,0.25 q 0,0.35 -0.5,0.5 h -0.3 -0.15 l -0.6,0.05 h -0.45 -0.8 -0.5 l -0.55,-0.05 h -0.2 -0.25 q -0.55,-0.15 -0.55,-0.5 l 0.1,-0.25 0.15,-0.1 1.3,0.05 0.5,0.05 h 0.55 0.25 l 0.45,-0.05 h 0.3 l 0.1,0.55 h 0.3 q 0.2,-0.15 0.25,-0.55 m -2.7,1.75 h 1 0.75 0.75 l 0.2,0.25 q 0.4,0.5 0.4,0.95 l -0.05,0.8 h -1.3 -0.45 -0.8 -0.5 -1.25 l -0.05,-0.8 q 0,-0.45 0.4,-0.95 l 0.15,-0.25 h 0.75 m 2.85,3.15 -1.1,0.05 h -0.65 -0.45 -0.65 l -1.2,-0.05 0.05,-0.15 1.15,0.05 h 0.65 0.45 0.65 l 1.2,-0.05 0.05,0.1 -0.15,0.05"
         fill="#bfbfbf"
         fill-rule="evenodd"
         stroke="none"
         id="path1" />
      <path
         d="m 23.6,-33 -2.7,0.4 -3.7,0.35 -0.5,-0.1 -0.15,-0.25 0.55,-0.4 h 6.5 m -11.35,0 -6.1,0.3 -5.9,0.25 -2.1,0.6 -0.4,0.15 -1.95,0.35 -2.75,-0.15 -0.15,-0.15 -1.55,-0.05 -1.4,-0.2 -3.4,-0.1 q -0.1,0.35 -0.1,-0.25 l 0.1,-0.35 0.2,0.1 6.45,0.25 0.25,0.25 4.15,-1 h 14.65 m 42.45,1.25 -0.9,-0.15 -4.6,-0.7 -3.3,0.35 -2.05,0.35 -8.8,-0.85 8.65,0.15 2.7,-0.25 2,-0.15 h 3.65 l 0.45,0.4 3.65,0.5 7.2,0.35 3.5,0.15 -0.15,0.35 -2.4,0.05 -9.6,-0.55 m -33.9,5.8 h 1.1 l 0.2,0.2 0.05,0.05 -0.1,5.8 -1.15,-0.05 q 0.95,-0.85 1.05,-2.1 l -0.2,0.1 -0.55,-2.05 -0.4,-1.95 m -17.25,6.1 h -0.8 v -0.05 q 0,-0.3 1.7,-0.8 l 2,-0.45 -1.65,0.7 -1.25,0.6 m -25.7,-3.05 -0.05,-3 0.05,-0.05 h 2.45 l -1.55,1.15 -0.2,0.6 -0.5,1.25 -0.2,0.05 m 8.4,-3.05 h 6.5 4.9 l -0.75,0.2 -0.1,0.05 v 0.05 l 0.65,-0.2 0.35,-0.1 h 2 q -0.45,0.45 -1.7,0.9 -1.55,0.55 -2.6,0.55 l -4.6,-0.45 q -3.1,-0.45 -4.65,-1 M -15,-26.85 V -27 l 3.6,0.15 H -15 m 5.9,0 q 1.8,-1.4 3.6,-0.8 l 1.55,0.8 H -9.1 M 30.25,10.3 29.65,6.9 29.6,6.8 29.55,6.25 29.6,6 H 30 l 0.5,-0.4 v 1.7 1.85 l 0.05,0.6 -0.3,0.55 m 20.5,-36.9 h 3.15 l -0.15,2.25 v 0.05 l -0.05,-0.05 q -1.15,-0.35 -2.95,-2.25 m 2.9,5.2 v 1.05 l 0.05,1.9 -0.8,1 -1.3,-0.05 h -0.05 l 1.5,-2.7 0.6,-1.2 m -64.05,9.5 0.2,-0.35 2,-0.25 2.6,0.45 0.1,0.1 q -0.6,0.45 -1.15,0.55 -1.95,0.25 -3.75,-0.5 M 53.7,1.95 v 0.9 L 51.6,2.75 H 49.5 L 49.4,2.7 q 0.85,0.05 2.45,-0.85 l 1.85,0.1 m -14.5,0.8 h -0.6 q -1.4,-2 -3.2,-3.2 l -0.55,-0.6 Q 34.5,-1.6 34.4,-2.4 h -0.05 l 0.2,-2.25 h 0.2 q -0.35,1 0.1,2.25 h 0.7 l 0.55,0.85 0.4,0.5 2.7,3.8 m -4.9,-13.4 v -0.3 h -0.05 v -0.55 l 0.45,-0.85 0.05,-0.05 q 0.85,-1.2 1.55,-1.25 l 0.1,-0.05 0.05,0.45 -0.65,0.95 -0.4,0.5 -1.1,1.15 m 26.85,-9.25 v 11.6 q -0.75,-3.75 -0.75,-4.6 0,-2 0.3,-4.5 l 0.45,-2.5 m 0,26.45 V 6.8 l -0.05,0.1 -1,2 -1.5,1.7 -0.8,-0.05 -0.1,-0.35 3.1,-3.3 0.35,-0.35 m -0.75,15.6 -0.6,1.2 -1.05,3.05 -0.2,-1.35 0.2,-0.55 0.7,-2.05 0.05,-0.25 q 0.1,-0.85 1,-1.8 l 1.05,-0.9 0.1,0.25 0.25,0.5 -1.5,1.9 M 38.8,10.25 37.9,9.3 V 9.15 h -0.1 l -1.45,-1.1 h 1.7 l 0.75,0.8 v 1.4 M 39.25,6 h 2 L 40.3,6.1 39.25,6 M 29.2,20.7 29.3,20.45 q 0.25,-0.55 0.65,-0.75 l 0.05,0.05 0.35,1.05 v 0.1 l -0.05,0.7 v 0.25 l -0.1,0.9 -0.05,0.3 -0.15,0.7 -0.5,-0.55 -0.1,-0.25 v -0.1 L 29.35,22.55 29.3,22.5 29.05,21.75 q 0,-0.55 0.15,-1.05 m -91.7,-52.5 0.95,0.85 8.05,-0.45 2.1,-0.3 2.1,-0.2 0.8,0.2 1.3,0.55 0.85,0.4 h -11.8 l -5.35,0.1 -0.35,-0.35 -0.55,-0.9 -0.6,-1.1 h 1.6 l 0.25,0.35 0.65,0.85 m 1.3,11.6 0.35,-0.7 q 1.1,-2.2 1.4,-3.35 l 0.25,-3.05 0.2,-1.45 0.45,-0.05 h 0.35 q 0,3.4 -0.4,5.2 -0.65,2.9 -2.6,5.4 v -2 m 3.7,5.4 v 0.6 l 0.05,9.2 h -0.05 l -0.45,-3.75 V -8.9 l -0.25,-2.5 0.2,-2 0.5,-1.4 m -3.25,25.4 H -61 -61.15 V 3.5 l 0.05,0.2 0.35,1.45 h 0.15 L -60.35,6 h 0.3 l 0.05,0.3 0.15,0.6 0.15,1.4 q 0,0.85 -0.35,1.4 l -0.7,0.9 m 26.2,-37.2 -0.65,0.5 q -0.6,0.5 -1.3,0.5 l -2.85,-0.4 q -0.95,-0.3 -1.3,-0.6 h 6.1 m -15.7,0 -0.3,0.35 -0.2,0.35 h -1.45 l -0.25,-0.55 0.1,-0.15 h 2.1 m -0.45,-0.9 0.9,-0.15 0.1,0.15 h -1 m 17.5,8.75 h 0.1 l 0.1,0.3 -0.2,0.25 v -0.55 m -15.6,5.25 0.45,0.15 v -0.15 h 3.65 0.2 0.15 0.7 0.35 0.95 q -1.6,0.85 -4.6,1.4 l -2.75,-0.7 -2.4,-0.7 h 3.3 m 10.2,0 h 2.6 q -0.15,0.6 -1.2,0.6 -0.95,0 -1.4,-0.6 m 4.3,6.35 v 4.75 h -0.5 l -0.15,-0.9 Q -35,-6.4 -34.3,-7.15 M -44.8,3 h -4.55 l 0.55,-0.3 0.4,-0.25 -0.7,-1.55 q -0.95,-0.95 -4.55,-1.2 v -0.4 -0.35 -0.1 -1.25 h 0.1 l 0.1,1.35 v 0.25 q 1.05,-0.3 3.2,0.9 1.45,0.8 2.2,1.65 l 1.85,0.1 1.5,0.45 0.1,-0.05 0.1,0.4 -0.3,0.35 m -8.85,-23.5 1.1,0.7 2.1,2.15 0.5,0.15 h -1.65 l -1.5,0.05 h -0.1 l -0.1,-0.1 -0.4,-0.25 0.05,-2.55 v -0.15 m 16.6,3 2.75,-1.05 v 1 l -0.2,0.1 -1.9,-0.05 h -0.65 m -6.05,3.05 1.85,-0.4 0.05,0.4 h -1.9 m -11.7,13.7 q -0.35,-0.05 -0.15,-0.2 l 0.05,-0.1 0.1,-0.1 v 0.4 m 1.45,-13.7 v -0.05 q -0.3,-0.15 0.35,-0.15 l 1.5,0.2 h -1.85 M -22.6,-33 l -3.2,0.6 -4.75,0.55 q -1.75,0 -3.9,-1.15 h 11.85 m 15.35,7.05 0.7,0.15 0.1,-0.1 H -6.5 l -0.75,-0.05 M -27.3,-28.7 h 0.4 l 0.1,1.25 v 2.4 l -0.65,-1.45 0.15,-2.2 m 0.5,28.9 v 1.55 l -0.5,0.55 0.5,1.95 -0.05,2.9 L -27,6.9 -27.45,6 h -0.35 l -0.8,-2.85 q 0,-1.45 0.75,-2.2 L -26.8,0.2 m 0.35,19.95 0.15,0.65 -0.05,0.95 -0.25,1.85 q -0.75,-0.6 -0.75,-1 l 0.05,-0.45 q 0.1,-1.2 0.85,-2 m -32.95,0.4 -0.85,0.8 -1.5,1.6 0.05,0.05 0.65,0.7 0.05,-0.3 h 0.2 l 0.65,1.1 0.45,0.65 q 0.55,0.65 0.95,1.4 l -0.15,0.8 0.1,0.75 0.05,0.3 h -0.35 l -0.9,-1.9 -0.7,0.7 -0.5,-0.65 -0.4,-2.05 v -0.1 -0.1 l -0.2,-1.35 -0.1,-0.8 1.15,-1.45 q 1.05,-1.25 2,-1.65 l 0.35,0.65 -1,0.85 m 0.55,8.55 h 0.65 q -0.05,0.4 -0.25,0.55 h -0.3 l -0.1,-0.55"
         fill="#919191"
         fill-rule="evenodd"
         stroke="none"
         id="path2" />
      <path
         d="M 17.1,-33 H 12.25 -2.4 -22.6 -34.45 -63.4 -65 -65.6 q -0.7,0.45 -1,0.85 l -0.25,0.55 q 0,0.35 0.9,0.95 h 2.45 l 5.35,-0.1 h 11.8 16.5 l 5.7,0.1 h 6.5 17.3 0.7 23.8 l 5.65,-0.1 h 28.35 l 7.75,0.1 0.8,-0.6 0.15,-0.35 -0.15,-0.45 -0.4,-0.4 L 65.55,-33 H 52.05 48.4 23.6 17.1 m 7.05,4.4 h -48.3 l -0.3,-0.05 -0.05,1.3 0.05,10.65 h 48.9 l 0.05,-10.65 -0.05,-1.3 -0.3,0.05 m -2.25,2.65 h -1.1 -21 -2 -0.15 -4.9 -6.5 -5.95 -2.45 -0.05 v 0.05 l 0.05,3 0.05,3 1.95,0.05 h 22.9 0.8 16.6 l 0.75,-0.1 1.15,0.05 0.1,-5.8 v -0.25 H 21.9 m -25.85,-0.9 H 22.2 v -0.2 l 0.6,0.45 0.3,0.2 -0.15,0.15 0.15,0.75 -0.1,2.1 0.1,4.25 q 0.05,0.6 -0.5,0.6 l -0.3,-0.05 h -0.1 -44.4 -0.1 l -0.3,0.05 q -0.55,0 -0.5,-0.6 l 0.1,-4.25 -0.1,-2.1 0.15,-0.75 -0.15,-0.15 0.25,-0.2 0.65,-0.45 v 0.2 h 7.2 3.6 2.3 5.15 M 30.5,5.6 v -5.25 -1.4 l -0.05,-13.15 0.05,-8.2 0.3,-6.4 h -1 -0.4 l -2.55,0.1 -0.05,1.25 V 10.6 h 2.35 l 1,-0.05 0.1,-0.25 0.3,-0.55 -0.05,-0.6 V 7.3 5.6 m 2.7,-32.85 q 0,-0.35 0.5,-0.25 h 0.05 0.3 9.2 0.35 0.35 0.4 0.35 9.2 0.3 0.05 q 0.5,-0.1 0.5,0.25 h 0.05 v 10.6 l -1.75,0.15 -1.45,0.05 H 36.35 l -1.45,-0.05 -1.75,-0.15 v -10.6 h 0.05 m 1,0.65 h -0.15 v 0.1 l 0.15,1.7 0.1,4.45 -0.05,2.9 2.1,-0.05 h 15.2 0.05 l 1.3,0.05 h 0.8 v -1 l -0.05,-1.9 v -1.05 l 0.1,-2.9 v -0.05 L 53.9,-26.6 H 50.75 44.7 44.45 43.6 43.25 34.2 m -16.15,2.6 0.25,1.35 q 0,0.65 -0.2,0.95 -0.45,0.7 -1.8,0.7 -0.9,0 -1.45,-0.8 -0.4,-0.55 -0.4,-1.15 0,-0.65 0.35,-1.05 0.45,-0.6 1.55,-0.75 0.85,-0.15 1.3,0.25 l 0.4,0.5 m 13.45,-4.8 0.15,2.35 -0.1,4.2 v 8.1 13 0.1 1.4 L 31.5,5.3 56.4,5.35 v -5 -1.4 -0.1 -13 -8.1 l -0.1,-4.2 q 0,-1.3 0.15,-2.35 H 31.5 m -46.25,4.9 q 0.25,0.35 0.25,0.95 0,0.6 -0.4,1.15 -0.5,0.8 -1.45,0.8 l -1.3,-0.25 -0.5,-0.45 -0.15,-0.95 v -0.3 l 0.2,-0.9 0.1,-0.25 0.35,-0.4 q 0.45,-0.4 1.3,-0.25 1.15,0.2 1.6,0.85 m 30,0.95 0.25,0.55 q 0.4,0.55 1.05,0.55 0.95,0 0.95,-0.85 0,-1.25 -1.15,-1 -1.1,0.15 -1.1,0.75 m -20.75,11 0.35,-0.3 0.7,-0.5 0.9,-0.25 0.15,-0.05 0.15,0.15 1.35,0.7 1.9,0.55 1.9,-0.55 1.35,-0.7 0.15,-0.15 0.15,0.05 0.9,0.25 0.7,0.5 q 0.8,0.75 1.5,0.85 2.95,0.35 5.6,-1.6 l 1.6,-0.65 1.25,-0.6 q 2.5,-0.6 4.25,0.95 l 0.85,0.85 0.35,0.45 q 1.1,1.6 1.4,2.85 1,1.4 2.3,1.4 h 0.2 v -7.95 h -48.9 v 7.95 h 0.15 q 1.35,0 2.35,-1.4 0.25,-1.25 1.35,-2.85 l 0.4,-0.45 0.85,-0.85 q 0.8,-0.7 1.7,-0.95 1.15,-0.35 2.55,0 l 1.25,0.6 1.55,0.65 q 0.9,0.65 1.9,1.1 1.8,0.75 3.75,0.5 0.55,-0.1 1.15,-0.55 m 36.8,43.75 0.3,0.95 v 0.5 l -0.35,0.35 0.05,0.15 -0.05,0.55 -0.35,0.5 -1.7,0.25 H 28.45 28.2 27.45 L 25.7,34.8 Q 25.3,34.65 25.35,34.3 L 25.3,33.75 25.35,33.6 25,33.25 v -0.5 q 0.05,-0.65 0.9,-1.9 -0.75,-0.05 -0.95,-0.5 -0.2,-0.25 -0.1,-0.5 0.05,-1 0.4,-1.2 l 0.6,-0.2 Q 25,27.4 24.45,23.4 q 0.15,-2.15 0.4,-3 0.4,-1.25 1.3,-2 -0.9,-0.1 -1.35,-0.7 l -0.2,-0.75 q 0.05,-1.15 0.75,-1.8 L 26,14.25 Q 25.3,14.1 25.1,13.6 L 25,12.95 V 12.9 L 25.05,12.65 24.7,12.3 24.45,11.7 V -6.45 L 23.6,-6.4 q -1.7,0 -2.3,-0.95 -0.2,-0.3 -0.7,-2.1 -0.5,-2.2 -2.95,-2.9 l -2.35,-0.5 -0.75,0.25 -2.25,1.3 q -2.5,1.5 -5.05,1.25 -1.6,-0.2 -2.75,-1.2 L 4,-11.7 2.75,-11 0.35,-10.4 H 0 -0.35 L -2.8,-11 -4,-11.7 l -0.5,0.45 -0.35,0.3 -0.25,0.15 q -0.95,0.6 -2.15,0.75 -2.55,0.25 -5.1,-1.25 l -2.2,-1.3 -0.75,-0.25 -2.35,0.5 q -2.45,0.7 -3,2.9 -0.45,1.8 -0.65,2.1 -0.6,0.95 -2.35,0.95 l -0.8,-0.05 V 11.7 l -0.2,0.45 -0.1,0.15 -0.35,0.35 0.05,0.25 v 0.05 l -0.1,0.65 q -0.2,0.5 -0.85,0.65 l 0.05,0.05 0.55,0.85 q 0.7,0.65 0.75,1.8 l -0.15,0.75 -1.3,0.7 h -0.1 l 0.05,0.05 0.95,1.1 v 0.05 l 0.35,0.8 q 0.25,0.85 0.4,3 -0.6,4 -1.4,5.05 l 0.6,0.2 0.3,0.45 0.1,0.75 0.05,0.3 -0.1,0.15 -0.05,0.05 q -0.2,0.4 -0.85,0.5 h -0.1 l 0.25,0.4 q 0.55,0.95 0.6,1.5 v 0.5 l -0.35,0.35 0.05,0.15 -0.05,0.55 q 0.05,0.35 -0.35,0.5 l -1.7,0.25 h -0.75 -0.25 -0.75 l -1.75,-0.25 q -0.4,-0.15 -0.35,-0.5 l -0.05,-0.55 0.05,-0.15 -0.35,-0.35 v -0.5 q 0.05,-0.65 0.9,-1.9 -0.75,-0.05 -0.95,-0.5 l -0.1,-0.5 q 0.05,-1 0.4,-1.2 l 0.6,-0.2 q -0.85,-1.05 -1.4,-5.05 0.1,-2.15 0.4,-3 0.35,-1.1 1.15,-1.8 l 0.15,-0.2 h -0.05 q -0.85,-0.1 -1.3,-0.7 l -0.2,-0.75 q 0.05,-1.15 0.75,-1.8 l 0.65,-0.9 -0.15,-0.05 -0.75,-0.6 -0.1,-0.65 V 12.9 l 0.25,-0.5 -0.3,-0.2 -0.3,-0.65 0.05,-0.2 -0.3,-0.45 v -0.25 q -1.1,-1.45 -3.45,-1 l -1.45,1.4 q -1.15,1.2 -2.1,1.2 l -2.35,-0.5 -0.7,-0.35 q -0.55,0.5 -1.2,0.75 v 0.15 l -0.45,-0.05 -0.55,0.05 v -0.2 l -1.15,-0.7 -0.7,0.35 -2.4,0.5 q -0.9,0 -2.1,-1.2 l -1.45,-1.4 q -2.45,-0.45 -3.55,1.1 l -0.1,0.25 v 0.2 l -0.1,0.15 0.05,0.2 -0.25,0.65 -0.1,0.05 -0.55,0.2 0.2,0.45 v 0.05 l -0.1,0.65 v 0.1 l -0.75,0.5 -0.15,0.05 0.65,0.9 0.2,0.25 q 0.5,0.55 0.55,1.55 0.05,0.4 -0.2,0.75 l -0.85,0.6 -0.5,0.1 0.15,0.15 q 0.8,0.7 1.15,1.85 0.3,0.85 0.4,3 -0.35,2.7 -0.85,4.05 l -0.55,1 q 0.35,0 0.6,0.2 0.35,0.2 0.4,1.2 l -0.05,0.5 -0.25,0.3 -0.75,0.2 q 0.55,0.8 0.75,1.35 l 0.15,0.55 v 0.5 l -0.35,0.35 0.05,0.15 -0.05,0.55 q 0.05,0.35 -0.35,0.5 l -1.75,0.25 h -0.7 -0.3 -0.75 l -1.7,-0.25 -0.35,-0.5 -0.05,-0.55 0.05,-0.15 -0.35,-0.35 v -0.5 l 0.4,-1.1 0.45,-0.8 -0.5,-0.1 -0.45,-0.4 -0.1,-0.5 q 0.05,-1 0.4,-1.2 h 0.05 l 0.6,-0.2 -0.65,-1.3 -0.8,-3.75 0.4,-3 0.8,-1.45 0.45,-0.45 0.1,-0.1 h -0.2 l -0.25,-0.05 -0.95,-0.65 -0.15,-0.75 q 0.05,-1.15 0.75,-1.8 0.45,-0.4 0.6,-0.9 Q -63,14.1 -63.2,13.6 l -0.1,-0.65 V 12.9 l 0.15,-0.45 -0.1,-0.15 -0.3,-0.6 0.05,-39.05 -0.05,-1.3 -1.8,0.05 q -0.95,0 -2.2,-1.3 l -1.35,-1.75 q -0.3,-0.55 2.85,-3.2 H 66 q 3.2,2.65 2.85,3.2 l -1.35,1.75 q -1.25,1.3 -2.15,1.3 l -1.85,-0.05 -0.05,1.3 0.05,39.05 -0.25,0.6 -0.15,0.15 0.2,0.45 v 0.05 l -0.1,0.65 -0.35,0.45 -0.25,0.1 -0.3,0.1 0.05,0.15 0.6,0.75 0.6,0.9 0.15,0.9 -0.2,0.75 q -0.4,0.55 -1.2,0.7 h -0.15 l 0.25,0.2 q 0.7,0.7 1.05,1.8 l 0.4,3 q -0.55,4 -1.4,5.05 l 0.6,0.2 q 0.35,0.2 0.4,1.2 l -0.1,0.5 q -0.2,0.45 -0.95,0.5 0.85,1.25 0.9,1.9 v 0.5 L 62.95,33.6 63,33.75 62.95,34.3 62.6,34.8 60.85,35.05 H 60.1 59.85 59.1 L 57.4,34.8 Q 57,34.65 57.05,34.3 L 57,33.75 57.05,33.6 56.7,33.25 v -0.5 q 0.05,-0.65 0.85,-1.9 -0.75,-0.05 -0.95,-0.5 -0.2,-0.25 -0.1,-0.5 0.05,-1 0.4,-1.2 l 0.6,-0.2 q -0.8,-1.05 -1.4,-5.05 0.15,-2.15 0.4,-3 0.35,-1.05 1.05,-1.75 l 0.3,-0.25 h -0.1 Q 56.9,18.25 56.45,17.7 L 56.3,16.95 q 0.05,-1.15 0.75,-1.8 l 0.6,-0.9 Q 57,14.1 56.75,13.6 L 56.7,13.05 V 12.9 q 0,-0.25 0.15,-0.45 L 56.6,12.4 56.25,12.2 56,11.55 56.05,11.35 55.95,11.2 V 11 L 55.8,10.75 Q 54.7,9.2 52.3,9.65 l -1.45,1.4 q -1.2,1.2 -2.15,1.2 l -2.35,-0.5 -0.7,-0.35 -1.2,0.7 v 0.2 L 43.95,12.25 43.5,12.3 V 12.15 Q 42.85,11.9 42.3,11.4 l -0.7,0.35 q -1.2,0.5 -2.4,0.5 -0.9,0 -2.1,-1.2 l -1.45,-1.4 q -2.3,-0.45 -3.4,1 v 0.25 l -0.35,0.45 0.05,0.2 -0.25,0.65 -0.15,0.1 -0.15,0.1 0.15,0.3 0.05,0.2 v 0.05 l -0.05,0.65 -0.9,0.65 0.6,0.9 q 0.7,0.65 0.75,1.8 l -0.15,0.75 -0.7,0.55 -0.7,0.15 0.8,0.85 0.55,1.15 0.4,3 q -0.6,4 -1.4,5.05 l 0.6,0.2 q 0.35,0.2 0.4,1.2 l -0.1,0.5 -0.4,0.4 -0.55,0.1 0.55,0.95 m 7.9,-55.1 0.05,-0.2 q 0.3,-0.55 1.6,-0.55 1.25,0 1.55,0.5 l 0.1,0.35 q 0,0.75 -0.9,0.95 l 0.05,0.55 h 4.25 l 0.1,-0.55 q -0.95,-0.2 -0.95,-0.95 l 0.1,-0.3 q 0.3,-0.55 1.6,-0.55 1.55,0 1.6,0.7 v 0.05 l -0.15,0.55 q -0.3,0.4 -1.2,0.5 l 0.1,0.05 0.15,1.35 -0.7,0.6 h -5.5 l -0.75,-0.6 0.2,-1.35 0.05,-0.05 q -0.85,-0.1 -1.15,-0.5 l -0.2,-0.55 m -6.05,9.05 v -0.2 h 0.05 q 0,-0.35 0.5,-0.25 h 0.05 0.3 9.2 0.35 0.35 0.4 0.35 9.2 0.25 0.1 q 0.5,-0.1 0.5,0.25 H 54.8 V 3.6 L 53.05,3.75 51.6,3.8 H 36.35 L 34.9,3.75 33.15,3.6 v -16.65 -1.2 m 20.65,1.95 0.1,-1.45 h -9.2 -0.25 -0.85 -0.35 -9.2 l 0.1,1.2 0.1,1.05 v 0.55 h 0.05 v 0.3 8.25 0.2 0.25 0.9 0.1 l -0.05,3.8 2.1,-0.1 h 2.25 0.6 10.3 2.1 l 2.1,0.1 v -0.9 l -0.05,-2.9 v -0.1 -1.35 -8.55 h 0.05 l 0.1,-1.35 m -14.55,5.65 q 0.3,-0.5 1.6,-0.5 1.25,0 1.55,0.45 l 0.1,0.35 q 0,0.75 -0.9,0.95 l 0.05,0.55 H 45.9 L 46,-5.4 q -0.95,-0.2 -0.95,-0.95 l 0.1,-0.3 q 0.3,-0.5 1.6,-0.5 1.55,0 1.6,0.65 v 0.1 l -0.15,0.5 q -0.3,0.4 -1.2,0.55 l 0.1,0.05 0.15,1.3 -0.7,0.6 h -5.5 L 40.3,-4 40.5,-5.3 40.55,-5.35 Q 39.7,-5.5 39.4,-5.9 l -0.2,-0.5 0.05,-0.25 m 21.9,-13.25 v -7.55 l -0.05,-1.25 -2.55,-0.1 h -0.4 -1 l 0.3,6.4 0.05,8.2 -0.05,12.9 0.05,0.25 -0.05,1.4 V 7.3 9.15 l -0.05,0.6 0.3,0.45 0.1,0.35 0.8,0.05 h 0.2 2.35 V 6.8 6.55 -8.3 -19.9 m 0.4,34.9 -0.4,-0.4 -0.1,-0.15 V 14.3 h -0.2 L 60.4,14.35 H 59.9 59.6 59.35 L 59.1,14.3 h -0.15 v 0.15 l -0.7,0.75 -0.3,0.3 -0.45,0.6 q 0,0.75 0.25,0.95 l 0.25,0.2 0.8,0.3 0.3,0.1 h 0.4 0.1 0.8 0.05 0.4 l 0.7,-0.25 0.7,-0.35 0.2,-0.95 V 16.05 L 61.75,15.2 61.55,15 M 62.25,13.25 62.1,13 61.45,12.9 60.85,12.85 H 60.4 59.1 l -0.6,0.05 -0.65,0.1 -0.1,0.25 0.15,0.05 0.5,0.05 0.7,0.1 h 0.7 1.05 l 0.7,-0.1 0.5,-0.05 0.2,-0.05 m -3.5,13.15 0.15,0.95 -0.1,0.75 -0.05,0.3 h 0.35 0.75 1 0.35 L 61.15,28.1 61.1,27.35 61.55,24.4 61.95,21.7 62,20.8 61.9,20.25 61.65,19.75 61.55,19.5 61,18.45 h -2.05 l -0.65,1.3 q -0.3,0.35 -0.35,1 v 0.05 l 0.05,0.85 0.4,2.75 0.15,0.65 0.2,1.35 M 38.8,10.25 q 0.45,0.35 0.8,0.35 l 1.6,-0.35 0.2,-0.1 q 0.15,-0.95 1.85,-0.2 l 0.7,0.3 0.75,-0.3 q 1.7,-0.75 1.85,0.2 l 0.2,0.1 q 0.55,0.35 1.6,0.35 0.75,0 1.75,-1.4 1,-1.4 3.05,-1.4 1.8,0 2.95,0.65 v 0.1 L 56.45,8.8 56.4,6 h -15.15 -2 -7.75 V 8.8 Q 31.75,8.55 32.05,8.4 V 8.35 Q 33.2,7.8 34.8,7.8 l 1.55,0.25 1.45,1.1 0.05,0.05 0.05,0.1 0.9,0.95 m 19.1,18.8 h -0.1 v 0.05 l -0.15,0.05 -0.1,0.25 q 0,0.35 0.55,0.5 h 0.25 0.2 l 0.4,0.05 h 0.15 0.15 0.35 0.7 0.1 0.45 l 0.4,-0.05 h 0.2 0.15 0.3 l 0.5,-0.5 -0.1,-0.25 -0.1,-0.1 -1.05,0.05 h -0.3 L 60.4,29.15 H 60.35 59.85 59.6 L 59.1,29.1 H 58.35 L 57.9,29.05 m 0.6,5 h 0.6 0.65 0.45 0.65 L 62,34 h 0.1 l -0.05,-0.15 -1.2,0.05 H 60.2 59.75 59.1 L 58.05,33.85 H 57.9 L 57.85,34 58.5,34.05 m 0.6,-3.2 H 58.35 L 58.2,31.1 q -0.4,0.5 -0.4,0.95 l 0.05,0.8 h 1.25 0.5 0.8 0.45 1.3 l 0.05,-0.8 q 0,-0.45 -0.4,-0.95 L 61.6,30.85 H 60.85 59.9 59.1 M 29.9,15.05 29.35,14.45 V 14.3 H 29.2 l -0.5,0.05 H 28.25 27.9 L 27.45,14.3 h -0.2 v 0.15 l -0.55,0.6 -0.15,0.15 -0.7,0.9 0.05,0.55 0.15,0.4 0.9,0.45 0.5,0.15 h 0.4 0.05 0.8 0.1 0.4 L 30.55,17.05 30.6,17 30.75,16.65 30.8,16.1 30.05,15.2 29.9,15.05 M 29.8,12.9 29.2,12.85 H 28.7 27.45 L 26.85,12.9 26.2,13 q -0.15,0.05 -0.15,0.25 l 0.2,0.05 0.5,0.05 0.7,0.1 h 0.7 1.05 l 0.7,-0.1 0.5,-0.05 0.15,-0.05 L 30.45,13 29.8,12.9 m 0.15,6.8 -0.25,-0.55 -0.35,-0.7 H 27.3 l -0.65,1.3 q -0.3,0.35 -0.35,1.05 v 0.4 l 0.2,1.45 0.25,1.75 0.45,2.95 -0.05,0.75 -0.05,0.3 h 0.35 0.75 1 0.35 l -0.05,-0.3 -0.1,-0.75 0.5,-2.95 0.1,-0.65 0.15,-0.7 0.05,-0.3 0.1,-0.9 V 21.6 l 0.05,-0.7 V 20.8 L 30,19.75 29.95,19.7 m 0.8,9.7 -0.1,-0.25 -0.15,-0.1 -1.3,0.05 -0.5,0.05 H 28.2 27.9 L 27.45,29.1 26.1,29.05 26,29.15 25.9,29.4 q 0,0.35 0.5,0.5 h 0.3 0.15 l 0.6,0.05 h 0.45 0.8 0.5 l 0.55,-0.05 h 0.2 0.25 q 0.55,-0.15 0.55,-0.5 M 30.05,34.05 30.45,34 30.4,33.85 29.2,33.9 H 28.55 28.1 27.45 L 26.6,33.85 H 26.25 L 26.2,34 27,34.05 h 0.45 0.65 0.45 0.65 0.8 0.05 m 0.4,-1.2 0.05,-0.8 q 0,-0.45 -0.4,-0.95 L 29.95,30.85 H 29.2 28.25 27.45 26.7 l -0.2,0.25 -0.25,0.4 -0.15,0.55 0.05,0.8 h 1.3 0.45 0.8 0.5 1.25 M -61.2,-20.2 v 2 l 0.05,21.7 v 7.1 h 0.15 0.25 1.95 l 1,-0.05 0.4,-0.8 -0.05,-0.6 V 7.3 0.35 -1.05 -1.3 -5 l -0.05,-9.2 v -0.6 l 0.05,-7.6 0.3,-6.4 h -1.05 -0.35 l -0.45,0.05 -2.1,0.05 -0.1,1.25 v 7.25 m 4.9,-6.25 -0.1,4.2 v 8.1 l -0.05,13 0.05,0.1 -0.05,1.4 v 5 L -31.5,5.3 -31.55,0.35 v -1.4 l -0.05,-13.1 v -8.1 l -0.1,-4.2 0.2,-2.35 h -25 l 0.2,2.35 m 2.5,-0.15 h -0.15 l 0.05,0.25 0.05,0.4 0.2,5.45 v 0.15 l -0.05,2.55 v 0.35 h 0.5 0.1 l 1.5,-0.05 h 1.65 12.9 0.65 l 1.9,0.05 h 0.2 v -0.1 -1 -1.8 l 0.15,-4.95 0.1,-1.3 h -0.5 -6.1 -2.65 -0.35 -0.7 -0.15 -0.2 -5.55 -2.1 -1.45 m 20.6,8.4 v 1.55 l -1.75,0.15 -1.45,0.05 h -15.2 l -1.45,-0.05 -1.75,-0.15 v -10.6 h 0.05 q 0,-0.35 0.45,-0.25 h 0.05 0.3 3.25 1 5 0.35 0.4 0.3 0.35 9.25 0.3 0.05 q 0.5,-0.1 0.5,0.25 v 8.5 0.55 m -8.45,-3.5 0.05,-0.55 q -0.95,-0.2 -0.95,-0.95 l 0.15,-0.35 q 0.3,-0.5 1.55,-0.5 1.3,0 1.55,0.55 l 0.05,0.2 -0.15,0.55 q -0.35,0.4 -1.15,0.5 l 0.05,0.05 0.15,1.35 -0.7,0.6 h -5.55 l -0.7,-0.6 0.2,-1.35 0.05,-0.05 q -0.85,-0.1 -1.15,-0.5 l -0.2,-0.55 v -0.05 q 0.1,-0.7 1.65,-0.7 1.25,0 1.55,0.55 l 0.1,0.3 q 0,0.75 -0.9,0.95 l 0.05,0.55 h 4.3 m -6.7,8.2 h -0.45 -3.3 -1.7 -0.15 l 0.05,0.1 0.15,1.65 0.05,1.05 h 0.05 v 8.3 1.25 0.1 0.35 0.4 L -53.7,3.1 -51.6,3 h 2.25 4.55 8.4 l 2.1,0.1 v -3.8 -0.35 -0.4 -0.95 -4.75 -3.55 l 0.05,-0.55 0.2,-2.25 h -1.95 -2.6 -3.75 -0.95 -0.35 -0.7 -0.15 -0.2 -3.65 m -3.15,-0.95 h 6.8 0.35 0.35 0.35 0.35 0.2 1.9 7.15 0.3 0.05 q 0.5,-0.1 0.5,0.25 v 1.1 1 15.95 L -34.95,4 -36.4,4.05 H -51.6 L -53.05,4 -54.8,3.85 v -4.6 -0.4 -13.05 h 0.05 q 0,-0.35 0.45,-0.25 h 0.05 0.3 0.6 1.85 m 9.1,8 q 0.3,-0.45 1.55,-0.45 1.3,0 1.55,0.5 l 0.05,0.25 q 0.05,0.25 -0.15,0.5 -0.35,0.4 -1.15,0.55 l 0.05,0.05 0.15,1.3 -0.7,0.6 h -5.55 l -0.7,-0.6 0.2,-1.3 0.05,-0.05 q -0.85,-0.15 -1.15,-0.55 l -0.2,-0.5 v -0.1 q 0.1,-0.65 1.65,-0.65 1.25,0 1.55,0.5 l 0.1,0.3 q 0,0.75 -0.9,0.95 l 0.05,0.55 h 4.3 l 0.05,-0.55 q -0.95,-0.2 -0.95,-0.95 l 0.15,-0.35 m 15.1,-22.25 -2.15,-0.1 h -0.4 -1 l 0.3,6.4 0.05,8.2 -0.05,12.9 0.05,0.25 q 0.05,0.7 -0.05,1.4 V 7.3 9.15 l -0.05,0.6 q 0.35,0.35 0.4,0.8 l 1.05,0.05 h 2.3 V 7.15 l 0.05,-2.9 v -2.5 -1.55 -25.25 -2.4 l -0.1,-1.25 h -0.4 m 9.8,6 q 0,0.85 0.95,0.85 0.6,0 1,-0.55 l 0.3,-0.55 q 0,-0.6 -1.1,-0.75 -1.15,-0.25 -1.15,1 m -22.15,33.3 q 0.8,0 1.75,-1.4 1.05,-1.4 3.1,-1.4 1.6,0 2.7,0.55 V 8.4 q 0.35,0.15 0.6,0.4 V 6 h -24.95 l -0.05,2.8 0.35,-0.25 v -0.1 q 1.2,-0.65 2.95,-0.65 2.1,0 3.1,1.4 0.95,1.4 1.75,1.4 l 1.6,-0.35 0.2,-0.1 q 0.15,-0.95 1.85,-0.2 l 0.7,0.3 0.7,-0.3 q 1.7,-0.75 1.85,0.2 l 0.25,0.1 1.55,0.35 m 9.05,2.65 0.2,0.05 0.5,0.05 0.7,0.1 h 1.05 0.7 l 0.7,-0.1 0.5,-0.05 0.15,-0.05 q 0,-0.2 -0.15,-0.25 l -0.6,-0.1 -0.6,-0.05 h -1.3 -0.45 l -0.6,0.05 -0.65,0.1 -0.15,0.25 m 0.95,1.55 -0.45,0.4 -0.7,0.9 0.1,0.8 0.1,0.15 q 0.3,0.25 1.05,0.5 l 0.35,0.1 h 0.4 0.05 0.8 0.1 0.4 l 0.35,-0.1 1,-0.5 q 0.2,-0.15 0.25,-0.8 V 16.1 l -0.75,-0.9 -0.6,-0.6 -0.1,-0.15 V 14.3 h -0.15 l -0.5,0.05 h -0.3 -0.5 L -29.2,14.3 h -0.2 v 0.15 l -0.1,0.2 -0.15,0.15 m 3,4.95 -0.55,-1 -0.15,-0.3 h -2 l -0.1,0.25 -0.55,1.05 -0.15,0.25 -0.2,0.8 0.15,1.75 0.3,1.85 0.45,2.95 -0.05,0.75 -0.05,0.3 h 0.35 1 0.75 0.35 l -0.05,-0.3 -0.1,-0.75 0.5,-2.95 0.15,-0.8 0.25,-1.85 0.05,-0.95 -0.15,-0.65 -0.2,-0.4 m -2.1,9.4 -0.45,-0.05 -1.15,-0.05 h -0.2 l -0.1,0.1 -0.1,0.25 0.5,0.5 h 0.3 0.15 0.15 l 0.45,0.05 h 0.45 0.2 0.6 0.5 l 0.3,-0.05 h 0.25 0.2 0.25 q 0.55,-0.15 0.55,-0.5 l -0.1,-0.25 -0.15,-0.1 -0.3,0.05 h -1 l -0.5,0.05 h -0.25 -0.55 m -1.2,1.7 -0.2,0.25 q -0.4,0.5 -0.4,0.95 l 0.05,0.8 h 1.3 0.45 0.8 0.5 1.25 l 0.05,-0.8 q 0,-0.45 -0.4,-0.95 l -0.15,-0.25 h -0.75 -0.8 -0.95 -0.75 m 3.4,3.2 0.3,-0.05 v -0.15 l -1.2,0.05 h -0.65 -0.45 -0.65 -0.2 l -1,-0.05 -0.05,0.15 1.25,0.05 h 0.65 0.45 0.65 0.9 m -31.2,-20.8 q 0,-0.2 -0.15,-0.25 l -0.65,-0.1 -0.6,-0.05 h -1.25 -0.5 l -0.6,0.05 -0.6,0.1 -0.15,0.25 0.2,0.05 0.4,0.05 h 0.05 l 0.7,0.1 h 1.05 0.7 l 0.5,-0.05 0.25,-0.05 0.45,-0.05 0.2,-0.05 m -1,1.45 -0.2,-0.25 V 14.3 h -0.2 l -0.45,0.05 h -0.3 -0.5 l -0.5,-0.05 h -0.15 v 0.15 l -0.15,0.25 -0.55,0.5 -0.7,0.9 0.1,0.8 0.1,0.15 q 0.35,0.3 1.35,0.6 h 0.4 0.1 0.8 0.1 0.35 l 0.8,-0.25 0.6,-0.35 0.2,-0.45 v -0.5 q 0,-0.2 -0.7,-0.9 l -0.5,-0.5 m 0.55,8.3 0.2,-2.2 v -0.1 q -0.05,-0.65 -0.35,-0.95 l -0.05,-0.05 -0.35,-0.65 -0.05,-0.1 -0.2,-0.5 h -2 l -0.25,0.55 -0.45,0.75 -0.35,1.05 0.05,0.55 0.1,0.8 0.1,0.8 0.2,1.35 v 0.1 0.1 l 0.4,2.05 0.1,0.8 -0.1,0.75 -0.05,0.3 h 0.35 1.05 0.7 0.05 0.35 l -0.05,-0.3 -0.1,-0.75 0.15,-0.8 0.35,-2.15 0.2,-1.4 m -0.65,6.1 h -0.3 l -0.45,0.05 h -0.25 -0.55 l -0.5,-0.05 -1.3,-0.05 -0.15,0.1 -0.1,0.25 q 0,0.35 0.55,0.5 h 0.25 0.2 l 0.55,0.05 h 0.5 0.8 0.45 l 0.6,-0.05 h 0.15 0.3 q 0.5,-0.15 0.5,-0.5 l -0.1,-0.25 -0.1,-0.1 -0.4,0.05 h -0.65 m -2.05,1.75 h -0.75 l -0.15,0.25 q -0.4,0.5 -0.4,0.95 l 0.05,0.8 h 1.25 0.5 0.8 0.45 1.3 l 0.05,-0.8 q 0,-0.45 -0.4,-0.95 l -0.2,-0.25 h -0.75 -0.75 -1 m 3,3.1 -0.05,-0.1 -1.2,0.05 h -0.65 -0.45 -0.65 l -1.15,-0.05 -0.05,0.15 1.2,0.05 h 0.65 0.45 0.65 l 1.1,-0.05 h 0.15 v -0.05"
         fill="#6b6b6b"
         fill-rule="evenodd"
         stroke="none"
         id="path3" />
      <path
         d="m 17.1,-33 -0.55,0.4 0.15,0.25 0.5,0.1 3.7,-0.35 2.7,-0.4 h 24.8 l -2,0.15 -2.7,0.25 -8.65,-0.15 8.8,0.85 2.05,-0.35 3.3,-0.35 4.6,0.7 0.9,0.15 -56.95,0.05 0.4,-0.15 2.1,-0.6 5.9,-0.25 6.1,-0.3 h 4.85 m 4.8,7.05 h 0.25 v 0.25 l -0.05,-0.05 -0.2,-0.2 m -41.6,0 h 5.95 q 1.55,0.55 4.65,1 l 4.6,0.45 q 1.05,0 2.6,-0.55 1.25,-0.45 1.7,-0.9 h 21 l 0.4,1.95 h -3.15 l -0.4,-0.5 q -0.45,-0.4 -1.3,-0.25 -1.1,0.15 -1.55,0.75 h -25.25 l -4.3,0.1 q -0.45,-0.65 -1.6,-0.85 -0.85,-0.15 -1.3,0.25 l -0.35,0.4 -0.1,0.25 -0.2,0.9 v -0.15 l 0.15,-0.75 h -0.15 l -3.15,-0.35 0.2,-0.6 1.55,-1.15 m 17.35,0 h 0.15 l -0.35,0.1 -0.65,0.2 v -0.05 l 0.1,-0.05 0.75,-0.2 m 36.4,-0.55 0.15,-0.1 h 9.05 0.35 0.85 0.25 6.05 q 1.8,1.9 2.95,2.25 h -0.25 l -16.05,0.1 q -2.35,0 -3.2,-0.55 l -0.15,-1.7 m -18.8,3.55 q 0,-0.6 1.1,-0.75 1.15,-0.25 1.15,1 0,0.85 -0.95,0.85 -0.65,0 -1.05,-0.55 l -0.25,-0.55 m 17.9,8.7 v 1.2 Q 33,-13.3 33,-13.6 l 0.15,-0.65 m 21,-0.45 h -0.25 -9.2 -0.35 -0.4 -0.35 -0.35 -9.2 -0.3 -0.05 l 2.85,-0.3 h 16.9 l 0.7,0.3 m -20,2.15 -0.1,-1.2 h 9.2 0.35 0.85 0.25 9.2 l -0.1,1.45 -0.35,0.05 h -16.9 l -0.75,-0.05 0.65,-0.95 -0.05,-0.45 -0.1,0.05 q -0.7,0.05 -1.55,1.25 l -0.6,-0.15 M 52.05,-33 h 13.5 l 0.75,0.55 0.4,0.4 -2.4,0.3 h -0.95 l -7.2,-0.35 -3.65,-0.5 -0.45,-0.4 m 9.5,48 0.2,0.2 0.7,0.85 -1.8,0.55 -2.25,0.65 H 58 l -0.25,-0.2 Q 57.5,16.85 57.5,16.1 l 0.45,-0.6 q 0.7,-0.35 2.15,-0.5 h 1.45 m 0.4,6.7 -0.25,0.1 -1.3,0.35 1.5,-1.9 0.1,0.55 -0.05,0.9 M 58,21.65 57.95,20.8 v -0.05 q 0.75,-0.6 2.4,-1 l 1.2,-0.25 -1.05,0.9 q -0.9,0.95 -1,1.8 L 58,21.65 m -28.1,-6.6 0.15,0.15 0.75,0.9 -0.05,0.55 -0.45,0.1 -1.9,0.15 h -0.65 l -1.85,-0.25 -0.05,-0.55 0.7,-0.9 0.15,-0.15 1.65,-0.1 1.55,0.1 m -3.6,6.15 q 0.55,-0.6 2.4,-0.55 l 0.4,0.05 h 0.1 q -0.15,0.5 -0.15,1.05 l 0.25,0.75 0.05,0.05 0.05,0.3 -0.5,0.05 H 27.55 L 26.5,22.65 26.3,21.2 m -77.7,-52.9 h -8.1 l -3,-0.1 -0.65,-0.85 -0.25,-0.35 h 28.95 q 2.15,1.15 3.9,1.15 l 4.75,-0.55 3.2,-0.6 h 20.2 l -4.15,1 -0.25,-0.25 -6.45,-0.25 -0.2,-0.1 -0.1,0.35 q 0,0.6 0.1,0.25 l 3.4,0.1 1.4,0.2 H -48.5 l -0.8,-0.2 -2.1,0.2 M -65,-33 l 0.6,1.1 -1.8,-0.15 -0.4,-0.1 q 0.3,-0.4 1,-0.85 h 0.6 m 11.1,6.65 0.1,-0.25 h 1.45 l -0.1,0.15 0.25,0.55 h 1.45 l 0.2,-0.35 0.3,-0.35 h 5.55 0.2 0.15 0.7 0.35 2.65 q 0.35,0.3 1.3,0.6 l 2.85,0.4 q 0.7,0 1.3,-0.5 l 0.65,-0.5 h 0.5 l -0.1,1.3 -0.4,0.2 H -47.1 l -5.9,-0.15 -0.85,-0.7 -0.05,-0.4 m 5.1,12.85 h 0.45 v 0.15 l -0.45,-0.15 m 6.45,0 h 3.75 q 0.45,0.6 1.4,0.6 1.05,0 1.2,-0.6 h 1.95 l -0.2,2.25 -0.3,0.05 H -49.7 q -3.1,0.05 -4.05,-0.55 l -0.15,-1.65 0.1,-0.1 h 1.7 l 2.4,0.7 2.75,0.7 q 3,-0.55 4.6,-1.4 m 9.15,0.4 0.1,0.5 -0.1,0.5 v -1 m 25.95,-12.85 0.75,0.05 h 0.05 l -0.1,0.1 -0.7,-0.15 m -10.25,3.25 q 0,-1.25 1.15,-1 1.1,0.15 1.1,0.75 l -0.3,0.55 q -0.4,0.55 -1,0.55 -0.95,0 -0.95,-0.85 m -13.2,39.6 -0.1,-0.8 0.7,-0.9 0.45,-0.4 0.3,-0.15 1.1,-0.3 h 0.3 l 0.5,-0.05 h 0.15 v 0.15 l 0.1,0.15 0.6,0.6 0.75,0.9 v 0.15 l -0.85,0.35 -2.75,0.4 -1.25,-0.1 m 4.05,2.85 0.2,0.4 q -0.75,0.8 -0.85,2 l -2.65,0.4 h -0.25 l -0.15,-1.75 0.2,-0.8 2,-0.35 1.5,0.1 m -34.55,-5.05 1.2,-0.05 1.25,0.05 0.5,0.5 q 0.7,0.7 0.7,0.9 v 0.5 l -1,0.25 -3.2,0.15 -0.45,-0.05 -0.15,-0.05 -0.1,-0.8 0.7,-0.9 0.55,-0.5 m 3.2,6 v 0.1 l -0.2,2.2 -2.15,0.35 q -0.9,0 -1.35,-0.35 l -0.05,-0.05 1.5,-1.6 0.85,-0.8 1.4,0.15 m -3.9,1.45 -0.1,-0.8 q 0.3,-0.45 1.25,-0.65 l -1.15,1.45"
         fill="#dbdbdb"
         fill-rule="evenodd"
         stroke="none"
         id="path4" />
      <path
         d="M -3.95,-26.85 H 22.2 v -0.2 l 0.6,0.45 0.3,0.2 -0.15,0.15 0.15,0.75 -0.1,2.1 0.1,4.25 q 0.05,0.6 -0.5,0.6 l -0.3,-0.05 h -0.1 -44.4 -0.1 l -0.3,0.05 q -0.55,0 -0.5,-0.6 l 0.1,-4.25 -0.1,-2.1 0.15,-0.75 -0.15,-0.15 0.25,-0.2 0.65,-0.45 v 0.2 h 7.2 3.6 2.3 5.15 m 37.15,-0.4 h -0.05 v 10.6 l 1.75,0.15 1.45,0.05 H 51.6 l 1.45,-0.05 1.75,-0.15 v -10.6 h -0.05 q 0,-0.35 -0.5,-0.25 h -0.05 -0.3 -9.2 -0.35 -0.4 -0.35 -0.35 -9.2 -0.3 -0.05 q -0.5,-0.1 -0.5,0.25 m 0.5,12.55 q -0.5,-0.1 -0.5,0.25 h -0.05 v 0.2 1.2 V 3.6 L 34.9,3.75 36.35,3.8 H 51.6 L 53.05,3.75 54.8,3.6 v -18.05 h -0.05 q 0,-0.35 -0.5,-0.25 h -0.1 -0.25 -9.2 -0.35 -0.4 -0.35 -0.35 -9.2 -0.3 -0.05 m -66.9,-3.5 v 1.55 l -1.75,0.15 -1.45,0.05 h -15.2 l -1.45,-0.05 -1.75,-0.15 v -10.6 h 0.05 q 0,-0.35 0.45,-0.25 h 0.05 0.3 3.25 1 5 0.35 0.4 0.3 0.35 9.25 0.3 0.05 q 0.5,-0.1 0.5,0.25 v 8.5 0.55 m -18.3,3.75 h 6.8 0.35 0.35 0.35 0.35 0.2 1.9 7.15 0.3 0.05 q 0.5,-0.1 0.5,0.25 v 1.1 1 15.95 L -34.95,4 -36.4,4.05 H -51.6 L -53.05,4 -54.8,3.85 v -4.6 -0.4 -13.05 h 0.05 q 0,-0.35 0.45,-0.25 h 0.05 0.3 0.6 1.85"
         fill="none"
         stroke="#6b6b6b"
         stroke-linecap="round"
         stroke-linejoin="round"
         stroke-width="1"
         id="path5" />
      <path
         d="m 31.3,31.8 0.3,0.95 v 0.5 l -0.35,0.35 0.05,0.15 -0.05,0.55 -0.35,0.5 -1.7,0.25 H 28.45 28.2 27.45 L 25.7,34.8 Q 25.3,34.65 25.35,34.3 L 25.3,33.75 25.35,33.6 25,33.25 v -0.5 q 0.05,-0.65 0.9,-1.9 -0.75,-0.05 -0.95,-0.5 -0.2,-0.25 -0.1,-0.5 0.05,-1 0.4,-1.2 l 0.6,-0.2 Q 25,27.4 24.45,23.4 q 0.15,-2.15 0.4,-3 0.4,-1.25 1.3,-2 -0.9,-0.1 -1.35,-0.7 l -0.2,-0.75 q 0.05,-1.15 0.75,-1.8 L 26,14.25 Q 25.3,14.1 25.1,13.6 L 25,12.95 V 12.9 L 25.05,12.65 24.7,12.3 24.45,11.7 V -6.45 L 23.6,-6.4 q -1.7,0 -2.3,-0.95 -0.2,-0.3 -0.7,-2.1 -0.5,-2.2 -2.95,-2.9 l -2.35,-0.5 -0.75,0.25 -2.25,1.3 q -2.5,1.5 -5.05,1.25 -1.6,-0.2 -2.75,-1.2 L 4,-11.7 2.75,-11 0.35,-10.4 H 0 -0.35 L -2.8,-11 -4,-11.7 l -0.5,0.45 -0.35,0.3 -0.25,0.15 q -0.95,0.6 -2.15,0.75 -2.55,0.25 -5.1,-1.25 l -2.2,-1.3 -0.75,-0.25 -2.35,0.5 q -2.45,0.7 -3,2.9 -0.45,1.8 -0.65,2.1 -0.6,0.95 -2.35,0.95 l -0.8,-0.05 V 11.7 l -0.2,0.45 -0.1,0.15 -0.35,0.35 0.05,0.25 v 0.05 l -0.1,0.65 q -0.2,0.5 -0.85,0.65 l 0.05,0.05 0.55,0.85 q 0.7,0.65 0.75,1.8 l -0.15,0.75 -1.3,0.7 h -0.1 l 0.05,0.05 0.95,1.1 v 0.05 l 0.35,0.8 q 0.25,0.85 0.4,3 -0.6,4 -1.4,5.05 l 0.6,0.2 0.3,0.45 0.1,0.75 0.05,0.3 -0.1,0.15 -0.05,0.05 q -0.2,0.4 -0.85,0.5 h -0.1 l 0.25,0.4 q 0.55,0.95 0.6,1.5 v 0.5 l -0.35,0.35 0.05,0.15 -0.05,0.55 q 0.05,0.35 -0.35,0.5 l -1.7,0.25 h -0.75 -0.25 -0.75 l -1.75,-0.25 q -0.4,-0.15 -0.35,-0.5 l -0.05,-0.55 0.05,-0.15 -0.35,-0.35 v -0.5 q 0.05,-0.65 0.9,-1.9 -0.75,-0.05 -0.95,-0.5 l -0.1,-0.5 q 0.05,-1 0.4,-1.2 l 0.6,-0.2 q -0.85,-1.05 -1.4,-5.05 0.1,-2.15 0.4,-3 0.35,-1.1 1.15,-1.8 l 0.15,-0.2 h -0.05 q -0.85,-0.1 -1.3,-0.7 l -0.2,-0.75 q 0.05,-1.15 0.75,-1.8 l 0.65,-0.9 -0.15,-0.05 -0.75,-0.6 -0.1,-0.65 V 12.9 l 0.25,-0.5 -0.3,-0.2 -0.3,-0.65 0.05,-0.2 -0.3,-0.45 v -0.25 q -1.1,-1.45 -3.45,-1 l -1.45,1.4 q -1.15,1.2 -2.1,1.2 l -2.35,-0.5 -0.7,-0.35 q -0.55,0.5 -1.2,0.75 v 0.15 l -0.45,-0.05 -0.55,0.05 v -0.2 l -1.15,-0.7 -0.7,0.35 -2.4,0.5 q -0.9,0 -2.1,-1.2 l -1.45,-1.4 q -2.45,-0.45 -3.55,1.1 l -0.1,0.25 v 0.2 l -0.1,0.15 0.05,0.2 -0.25,0.65 -0.1,0.05 -0.55,0.2 0.2,0.45 v 0.05 l -0.1,0.65 v 0.1 l -0.75,0.5 -0.15,0.05 0.65,0.9 0.2,0.25 q 0.5,0.55 0.55,1.55 0.05,0.4 -0.2,0.75 l -0.85,0.6 -0.5,0.1 0.15,0.15 q 0.8,0.7 1.15,1.85 0.3,0.85 0.4,3 -0.35,2.7 -0.85,4.05 l -0.55,1 q 0.35,0 0.6,0.2 0.35,0.2 0.4,1.2 l -0.05,0.5 -0.25,0.3 -0.75,0.2 q 0.55,0.8 0.75,1.35 l 0.15,0.55 v 0.5 l -0.35,0.35 0.05,0.15 -0.05,0.55 q 0.05,0.35 -0.35,0.5 l -1.75,0.25 h -0.7 -0.3 -0.75 l -1.7,-0.25 -0.35,-0.5 -0.05,-0.55 0.05,-0.15 -0.35,-0.35 v -0.5 l 0.4,-1.1 0.45,-0.8 -0.5,-0.1 -0.45,-0.4 -0.1,-0.5 q 0.05,-1 0.4,-1.2 h 0.05 l 0.6,-0.2 -0.65,-1.3 -0.8,-3.75 0.4,-3 0.8,-1.45 0.45,-0.45 0.1,-0.1 h -0.2 l -0.25,-0.05 -0.95,-0.65 -0.15,-0.75 q 0.05,-1.15 0.75,-1.8 0.45,-0.4 0.6,-0.9 Q -63,14.1 -63.2,13.6 l -0.1,-0.65 V 12.9 l 0.15,-0.45 -0.1,-0.15 -0.3,-0.6 0.05,-39.05 -0.05,-1.3 -1.8,0.05 q -0.95,0 -2.2,-1.3 l -1.35,-1.75 q -0.3,-0.55 2.85,-3.2 H 66 q 3.2,2.65 2.85,3.2 l -1.35,1.75 q -1.25,1.3 -2.15,1.3 l -1.85,-0.05 -0.05,1.3 0.05,39.05 -0.25,0.6 -0.15,0.15 0.2,0.45 v 0.05 l -0.1,0.65 -0.35,0.45 -0.25,0.1 -0.3,0.1 0.05,0.15 0.6,0.75 0.6,0.9 0.15,0.9 -0.2,0.75 q -0.4,0.55 -1.2,0.7 h -0.15 l 0.25,0.2 q 0.7,0.7 1.05,1.8 l 0.4,3 q -0.55,4 -1.4,5.05 l 0.6,0.2 q 0.35,0.2 0.4,1.2 l -0.1,0.5 q -0.2,0.45 -0.95,0.5 0.85,1.25 0.9,1.9 v 0.5 L 62.95,33.6 63,33.75 62.95,34.3 62.6,34.8 60.85,35.05 H 60.1 59.85 59.1 L 57.4,34.8 Q 57,34.65 57.05,34.3 L 57,33.75 57.05,33.6 56.7,33.25 v -0.5 q 0.05,-0.65 0.85,-1.9 -0.75,-0.05 -0.95,-0.5 -0.2,-0.25 -0.1,-0.5 0.05,-1 0.4,-1.2 l 0.6,-0.2 q -0.8,-1.05 -1.4,-5.05 0.15,-2.15 0.4,-3 0.35,-1.05 1.05,-1.75 l 0.3,-0.25 h -0.1 Q 56.9,18.25 56.45,17.7 L 56.3,16.95 q 0.05,-1.15 0.75,-1.8 l 0.6,-0.9 Q 57,14.1 56.75,13.6 L 56.7,13.05 V 12.9 q 0,-0.25 0.15,-0.45 L 56.6,12.4 56.25,12.2 56,11.55 56.05,11.35 55.95,11.2 V 11 L 55.8,10.75 Q 54.7,9.2 52.3,9.65 l -1.45,1.4 q -1.2,1.2 -2.15,1.2 l -2.35,-0.5 -0.7,-0.35 -1.2,0.7 v 0.2 L 43.95,12.25 43.5,12.3 V 12.15 Q 42.85,11.9 42.3,11.4 l -0.7,0.35 q -1.2,0.5 -2.4,0.5 -0.9,0 -2.1,-1.2 l -1.45,-1.4 q -2.3,-0.45 -3.4,1 v 0.25 l -0.35,0.45 0.05,0.2 -0.25,0.65 -0.15,0.1 -0.15,0.1 0.15,0.3 0.05,0.2 v 0.05 l -0.05,0.65 -0.9,0.65 0.6,0.9 q 0.7,0.65 0.75,1.8 l -0.15,0.75 -0.7,0.55 -0.7,0.15 0.8,0.85 0.55,1.15 0.4,3 q -0.6,4 -1.4,5.05 l 0.6,0.2 q 0.35,0.2 0.4,1.2 l -0.1,0.5 -0.4,0.4 -0.55,0.1 z"
         fill="none"
         stroke="#6b6b6b"
         stroke-linecap="round"
         stroke-linejoin="round"
         stroke-width="1.5"
         id="path6" />
    </g>
  </defs>
</svg>
