<?xml version="1.0" encoding="UTF-8" standalone="no"?>
<svg
   ffdec:objectType="frame"
   height="80.699997"
   width="89.099998"
   version="1.1"
   id="svg18"
   sodipodi:docname="2.svg"
   xmlns:inkscape="http://www.inkscape.org/namespaces/inkscape"
   xmlns:sodipodi="http://sodipodi.sourceforge.net/DTD/sodipodi-0.dtd"
   xmlns:xlink="http://www.w3.org/1999/xlink"
   xmlns="http://www.w3.org/2000/svg"
   xmlns:svg="http://www.w3.org/2000/svg"
   xmlns:ffdec="https://www.free-decompiler.com/flash">
  <sodipodi:namedview
     id="namedview18"
     pagecolor="#ffffff"
     bordercolor="#000000"
     borderopacity="0.25"
     inkscape:showpageshadow="2"
     inkscape:pageopacity="0.0"
     inkscape:pagecheckerboard="0"
     inkscape:deskcolor="#d1d1d1"
     fit-margin-top="5"
     fit-margin-left="5"
     fit-margin-right="5"
     fit-margin-bottom="5" />
  <g
     transform="translate(44.5,40.15)"
     id="g5">
    <use
       ffdec:characterId="617"
       height="80.75"
       transform="translate(-44.5,-40.2)"
       width="88.5"
       xlink:href="#shape0"
       id="use1" />
    <use
       ffdec:characterId="590"
       height="9.8000002"
       transform="matrix(-1,0,0,1,44.6,12.8)"
       width="12.45"
       xlink:href="#sprite0"
       id="use2" />
    <use
       ffdec:characterId="586"
       height="28.200001"
       transform="matrix(-0.7341,0,0,0.7341,35.3,18.85)"
       width="40.349998"
       xlink:href="#sprite1"
       id="use3" />
    <use
       ffdec:characterId="619"
       height="9.1999998"
       transform="matrix(-0.9659,0.2588,0.2588,0.9659,-21.2,-29.75)"
       width="14.5"
       xlink:href="#sprite2"
       id="use4" />
    <use
       ffdec:characterId="44"
       height="8"
       transform="matrix(-0.7071,-0.7071,-0.7071,0.7071,-26.3533,32.1399)"
       width="10.8"
       xlink:href="#sprite3"
       id="use5" />
  </g>
  <defs
     id="defs18">
    <g
       id="shape0"
       transform="translate(44.5,40.2)">
      <path
         d="m -0.6,-26.5 0.1,-0.6 0.15,-0.3 1.45,0.15 q 0.4,0.25 0.4,0.65 l -0.05,0.55 -0.3,0.4 -0.7,0.2 q -0.75,0 -0.9,-0.25 l -0.15,-0.8 m 6.1,5.2 q -1.75,-1.7 -1.75,-2.45 0,-2.55 4.6,-0.6 4.65,1.9 4.65,4.1 l -0.3,0.5 -0.9,0.6 H 9.15 Q 7.45,-19.4 5.5,-21.3"
         fill="#ffffff"
         fill-rule="evenodd"
         stroke="none"
         id="path5" />
      <path
         d="m -0.6,-26.5 0.15,0.8 q 0.15,0.25 0.9,0.25 l 0.7,-0.2 0.3,-0.4 0.05,-0.55 q 0,-0.4 -0.4,-0.65 l -1.45,-0.15 -0.15,0.3 -0.1,0.6 M -29.55,1.6 q -0.55,-1.65 -0.55,-3.5 0,-7.75 8,-15.65 l 2.4,-2.2 0.9,-0.75 q 2.05,-0.85 4.15,-3 l 0.2,-0.2 0.55,-0.65 0.25,-0.15 h -0.1 l 0.55,-0.65 2.1,-2.7 q 1.35,-1.9 1.35,-2.6 0,-0.85 -0.6,-2.85 l -0.3,-0.8 -0.05,-0.2 -0.85,-1.9 v -0.05 l 0.35,-0.4 1.15,-0.35 q 1.25,0 3.7,1.15 2.35,1.05 5.7,3.1 l 6.95,4.6 q 1.2,0.85 8.35,4.8 l 1.1,0.85 1.45,1.15 1.35,1.1 0.65,0.5 q 2.95,2.55 5.05,5.1 l 1.35,1.75 q 2.85,3.95 3.65,7.85 l 0.35,3.15 v 0.5 l -0.05,0.45 q -0.1,1.7 -0.75,3.2 L 28.45,3.05 28.3,3.35 27.4,5.2 27.25,5.6 27.15,5.1 26.1,-1.65 q -0.85,-4.9 -1.85,-8.05 -0.5,-1.55 -1.55,-3 l -2.75,-2.3 -0.1,-0.15 q -0.3,-0.45 -0.8,-0.4 h -0.1 q -2.2,-1.1 -5.05,-1.5 Q -1.15,-19.2 -6.4,-22 l -2.05,-1.4 q -6.25,1.3 -12.1,6.35 -9,7.7 -9,18.65 M 27.2,8.5 q 0.55,0.95 1.6,2 l 4.4,3.75 Q 38.9,19.3 39.55,25.9 38,23.2 34.5,19.65 27.35,12.4 27.1,9.3 L 27.2,8.5 M -40,29.4 -40.15,27.6 q 0,-7.65 6.45,-13.35 l 4.4,-3.75 1.4,-1.7 0.1,0.45 q 0,2.45 -1.95,4.8 l -4.25,4.3 q -5.05,5 -6,11.05 M 5.5,-21.3 q 1.95,1.9 3.65,2.15 h 2.65 l 0.9,-0.6 0.3,-0.5 q 0,-2.2 -4.65,-4.1 -4.6,-1.95 -4.6,0.6 0,0.75 1.75,2.45 m 12.7,10.4 -0.25,0.05 h -39.25 -0.1 l -0.35,-2.55 39.95,0.1 v 2.4 m 0,24.15 q -0.8,0.5 -2.5,0.6 H -8.6 l -12.35,-0.45 -0.5,-0.1 -0.3,-2.25 39.95,0.1 v 2.1"
         fill="#999288"
         fill-rule="evenodd"
         stroke="none"
         id="path6" />
      <path
         d="m -14.45,-38 q 0.8,-1.85 3.2,-2.15 l 0.1,0.05 0.55,0.05 q 6.35,1 9.75,3.35 l 0.8,0.75 H 0 q 6.35,4.4 8.05,5.3 l 8.3,4.7 q 3.35,2.05 5.05,3.55 4.15,2.95 6.85,6.4 5.05,6.45 5.05,14.25 0,4.05 -1.5,7 l -0.8,1.9 0.3,0.2 0.45,0.5 0.05,0.05 h 0.05 l 1.1,0.95 1.7,1.15 Q 44,16.45 44,27.45 L 42.65,34 q -2.2,6.55 -6.5,6.55 L 35.25,40.45 34.95,40.3 4.3,40.15 H 2.8 l -38.25,0.15 -0.3,0.15 -0.9,0.1 q -4.3,0 -6.5,-6.55 l -1.35,-6.55 q 0,-11.1 9.5,-17.55 h 0.1 l 0.15,0.05 0.15,-0.25 0.2,0.05 1.1,-0.45 1.45,-0.75 q 0.25,-0.6 0.25,-1.6 l -0.7,-1.7 q -1.5,-2.95 -1.5,-7 0,-7.8 5.05,-14.25 3.7,-4.75 10,-8.5 h 0.3 l 1.7,-1.8 q 2.55,-2.65 3.25,-4.6 l -0.55,-1.35 q -0.8,-1.6 -0.8,-3 0,-1.85 0.4,-2.75 m 41.7,43.6 0.15,-0.4 0.9,-1.85 0.15,-0.3 0.35,-0.8 q 0.65,-1.5 0.75,-3.2 L 29.6,-1.4 v -0.5 l -0.35,-3.15 q -0.8,-3.9 -3.65,-7.85 l -1.35,-1.75 q -2.1,-2.55 -5.05,-5.1 l -0.65,-0.5 -1.35,-1.1 -1.45,-1.15 -1.1,-0.85 Q 7.5,-27.3 6.3,-28.15 l -6.95,-4.6 Q -4,-34.8 -6.35,-35.85 -8.8,-37 -10.05,-37 l -1.15,0.35 -0.35,0.4 v 0.05 l 0.85,1.9 0.05,0.2 0.3,0.8 q 0.6,2 0.6,2.85 0,0.7 -1.35,2.6 l -2.1,2.7 -0.55,0.65 h 0.1 l -0.25,0.15 -0.55,0.65 -0.2,0.2 q -2.1,2.15 -4.15,3 l -0.9,0.75 -2.4,2.2 q -8,7.9 -8,15.65 0,1.85 0.55,3.5 l 0.75,1.75 0.65,1.35 0.55,1.45 0.1,0.65 v 0.8 h 0.1 l -0.5,1.2 -1.4,1.7 -4.4,3.75 q -6.45,5.7 -6.45,13.35 l 0.15,1.8 0.9,3.15 q 1.3,3.45 3.2,3.7 l 31.05,0.1 h 4.6 4.55 l 31.1,-0.1 q 1.9,-0.25 3.2,-3.7 1.05,-2.8 1.05,-4.95 l -0.1,-1.7 Q 38.9,19.3 33.2,14.25 L 28.8,10.5 Q 27.75,9.45 27.2,8.5 L 26.9,7.6 H 27 V 6.8 L 27.1,6.15 27.25,5.6 m -8.3,-21.15 h 0.1 q 0.5,-0.05 0.8,0.4 l 0.1,0.15 0.15,0.5 0.3,1.1 V 4.1 l 0.15,0.1 V 4.6 L 20.5,4.95 q -0.15,1 -1.2,1 l -0.4,-0.1 -2.75,0.2 h -30.5 L -21.95,5.6 Q -22.9,5.35 -22.9,4.7 l 0.15,-0.4 Q -23.2,3.8 -23.3,2.5 V 0.3 l -0.65,-8.75 q -0.15,-3.95 1,-5.7 l -0.05,-0.35 0.95,-1 41,-0.05 M -1.8,-1.9 q -1.25,0 -1.95,-0.7 -0.6,-0.6 -0.6,-1.55 l 0.2,-1.3 q 0.6,-1.2 2.35,-1.2 0.8,0 1.95,0.7 1.2,0.8 1.2,1.6 L 0.9,-3.1 q -0.8,1.2 -2.7,1.2 m -19.6,-8.95 q 0.55,4.7 0.55,11.15 v 2.2 l -0.1,0.5 q 0.3,0.15 0.45,0.5 l 36.65,-0.15 2.05,0.1 v -14.35 -2.4 l -39.95,-0.1 0.35,2.55 m 17.2,30.4 q 0,-2.4 2.9,-2.2 2.9,0.15 2.9,2.35 L 1.3,21.25 Q 0.65,22.7 -1.35,22.7 -2.6,22.7 -3.5,21.35 -4.2,20.3 -4.2,19.55 M -27.4,7.6 -27.25,7.5 v 0.1 h -0.15 m 4.45,2.7 -0.05,-0.35 0.95,-1 41.1,-0.05 q 0.5,-0.05 0.8,0.4 l 0.25,0.65 0.3,1.1 v 17.5 l 0.15,0.1 v 0.4 L 20.5,29.4 q -0.15,1 -1.2,1 l -0.4,-0.1 -2.75,0.2 h -30.5 l -7.6,-0.45 q -0.95,-0.25 -0.95,-0.9 l 0.15,-0.4 q -0.45,-0.5 -0.55,-1.8 v -2.2 L -23.95,16 q -0.15,-3.95 1,-5.7 m 1.5,3 q 0.6,4.8 0.6,11.45 v 2.2 l -0.1,0.5 q 0.3,0.15 0.45,0.5 l 36.65,-0.15 2.05,0.1 v -14.65 -2.1 l -39.95,-0.1 0.3,2.25"
         fill="#6b6b6b"
         fill-rule="evenodd"
         stroke="none"
         id="path7" />
      <path
         d="m -29.55,1.6 q 0,-10.95 9,-18.65 5.85,-5.05 12.1,-6.35 l 2.05,1.4 q 5.25,2.8 20.3,4.95 2.85,0.4 5.05,1.5 l -41,0.05 -0.95,1 0.05,0.35 q -1.15,1.75 -1,5.7 l 0.65,8.75 v 2.2 q 0.1,1.3 0.55,1.8 l -0.15,0.4 q 0,0.65 0.95,0.9 l 7.6,0.45 h 30.5 l 2.75,-0.2 0.4,0.1 q 1.05,0 1.2,-1 L 20.55,4.6 V 4.2 L 20.4,4.1 v -17.5 l -0.3,-1.1 -0.15,-0.5 2.75,2.3 q 1.05,1.45 1.55,3 1,3.15 1.85,8.05 L 27.15,5.1 27.25,5.6 27.1,6.15 27,6.8 v 0.8 h -0.1 l 0.3,0.9 -0.1,0.8 q 0.25,3.1 7.4,10.35 3.5,3.55 5.05,6.25 l 0.1,1.7 q 0,2.15 -1.05,4.95 -1.3,3.45 -3.2,3.7 l -31.1,0.1 h -4.55 -4.6 L -35.9,36.25 Q -37.8,36 -39.1,32.55 L -40,29.4 q 0.95,-6.05 6,-11.05 l 4.25,-4.3 q 1.95,-2.35 1.95,-4.8 l -0.1,-0.45 0.5,-1.2 h -0.1 V 6.8 L -27.6,6.15 -28.15,4.7 -28.8,3.35 -29.55,1.6 M -1.8,-1.9 q 1.9,0 2.7,-1.2 l 0.45,-1.25 q 0,-0.8 -1.2,-1.6 -1.15,-0.7 -1.95,-0.7 -1.75,0 -2.35,1.2 l -0.2,1.3 q 0,0.95 0.6,1.55 0.7,0.7 1.95,0.7 m -19.6,-8.95 h 0.1 39.25 L 18.2,-10.9 V 3.45 L 16.15,3.35 -20.5,3.5 Q -20.65,3.15 -20.95,3 l 0.1,-0.5 V 0.3 q 0,-6.45 -0.55,-11.15 m 17.2,30.4 q 0,0.75 0.7,1.8 0.9,1.35 2.15,1.35 2,0 2.65,-1.45 L 1.6,19.7 q 0,-2.2 -2.9,-2.35 -2.9,-0.2 -2.9,2.2 M -27.4,7.6 h 0.15 V 7.5 l -0.15,0.1 m 4.45,2.7 q -1.15,1.75 -1,5.7 l 0.65,8.75 v 2.2 q 0.1,1.3 0.55,1.8 l -0.15,0.4 q 0,0.65 0.95,0.9 l 7.6,0.45 h 30.5 l 2.75,-0.2 0.4,0.1 q 1.05,0 1.2,-1 l 0.05,-0.35 v -0.4 L 20.4,28.55 V 11.05 L 20.1,9.95 19.85,9.3 q -0.3,-0.45 -0.8,-0.4 l -41.1,0.05 -0.95,1 0.05,0.35 m 1.5,3 0.5,0.1 12.35,0.45 h 24.3 q 1.7,-0.1 2.5,-0.6 V 27.9 l -2.05,-0.1 -36.65,0.15 q -0.15,-0.35 -0.45,-0.5 l 0.1,-0.5 v -2.2 q 0,-6.65 -0.6,-11.45 M 23.75,7.6 H 24.2 L 24.15,7.15 v -0.1 l -0.4,0.55"
         fill="#7d776f"
         fill-rule="evenodd"
         stroke="none"
         id="path8" />
      <path
         d="m 23.75,7.6 0.4,-0.55 v 0.1 L 24.2,7.6 h -0.45"
         fill="#838383"
         fill-rule="evenodd"
         stroke="none"
         id="path9" />
    </g>
    <g
       id="sprite0">
      <use
         ffdec:characterId="589"
         height="9.8000002"
         width="12.45"
         xlink:href="#shape1"
         id="use9" />
    </g>
    <g
       id="shape1">
      <path
         d="m 12.45,2.45 q 0,1.4 -1.35,2.95 -0.95,1.05 -1.95,1.5 L 9.4,8 q 0,1.8 -2,1.8 -1.75,0 -2.15,-0.9 V 8.6 h -2 L 0.5,6.55 Q 0,5.9 0,4.4 0,0.8 3.55,1 5.75,1.15 6.6,2.2 7.35,0.2 9.3,0 q 1.2,-0.1 2.15,0.65 1,0.75 1,1.8 M 3.35,7 5.3,7.15 Q 5.45,6.25 6.15,6 L 6.1,5.5 6.15,4.75 6.05,4.5 Q 5.5,2.45 3.25,2.45 1.4,2.45 1.3,4.1 V 4.25 Q 1.3,5.2 1.85,5.95 2.4,6.7 3.35,7 m 4,-1.6 V 5.9 L 8.1,6.1 9.6,4.95 q 1.9,-1.3 1.9,-2.3 0,-1.4 -2.1,-1.4 -1.8,0 -2.1,2.05 -0.15,1 0.05,2.1"
         fill="#6b6b6b"
         fill-rule="evenodd"
         stroke="none"
         id="path10" />
      <path
         d="M 1.3,4.25 V 4.1 Q 1.4,2.45 3.25,2.45 5.5,2.45 6.05,4.5 L 6.15,4.75 6.1,5.5 6.15,6 Q 5.45,6.25 5.3,7.15 L 3.35,7 Q 2.35,6.6 1.8,5.8 1.35,5.15 1.3,4.25 M 7.35,5.4 Q 7.15,4.3 7.3,3.3 7.6,1.25 9.4,1.25 q 2.1,0 2.1,1.4 0,1 -1.9,2.3 L 8.1,6.1 7.35,5.9 V 5.4"
         fill="#ffffff"
         fill-opacity="0.2"
         fill-rule="evenodd"
         stroke="none"
         id="path11" />
    </g>
    <g
       id="sprite1">
      <use
         ffdec:characterId="585"
         height="28.200001"
         width="40.349998"
         xlink:href="#shape2"
         id="use11" />
    </g>
    <g
       id="shape2">
      <path
         d="m 23.75,1.25 q 0.5,0.15 0.5,1.35 l -0.9,1.35 -0.95,1.2 q 0,2.35 2.8,3.85 l 6.2,2.4 q 8.95,3.1 8.95,8.85 0,1.9 -0.8,3.75 -0.65,1.45 -1.65,2.3 l -0.25,0.75 Q 36.8,28.1 34.35,27.7 H 21.05 L 7.6,28.2 q -4.55,0 -6.5,-3.15 L 0,21.75 Q 0,17.15 6.05,13.5 7.85,12.45 9.35,12 L 9.2,9.85 Q 9.2,6.1 16.55,2 q 2.9,-1.6 5,-1.95 2.3,-0.35 2.3,1.1 l -0.1,0.1 M 7.55,24 Q 13,23.7 19.65,23.7 l 2.15,0.4 12.55,-0.05 1.15,-0.1 q 1.65,-1.25 1.65,-2.5 L 36.9,19.7 Q 36.3,17.75 34.35,16.4 32.6,15.2 28.15,13.6 23.55,12 21.9,10.9 19.65,9.4 19.2,7.25 L 19.15,6.95 19.1,6.1 q 0,-0.85 2.15,-3.1 l -1.35,0.95 -5.65,4 q -0.6,0.5 -1.25,3.7 l -0.35,1.45 -0.55,1.2 -0.05,0.05 -0.8,0.7 -2.6,0.9 -0.5,0.25 -0.4,0.25 Q 5.3,17.85 4.55,19.8 4.3,20.35 4.2,21 L 4.15,21.8 V 22 q 0,1 0.25,1.45 l 0.1,0.1 Q 4.8,23.9 5.7,24 L 6.35,24.05 7.55,24"
         fill="#6b6b6b"
         fill-rule="evenodd"
         stroke="none"
         id="path12" />
      <path
         d="m 12.85,16.1 -0.1,-0.8 q 0,-1.15 1.95,-2 1.9,-0.9 1.9,1.3 0,1.65 -2.45,1.65 l -1.3,-0.15"
         fill="#ffffff"
         fill-rule="evenodd"
         stroke="none"
         id="path13" />
      <path
         d="m 36.9,19.7 -2.55,-2.15 q -2,-1.25 -6.6,-2.75 -4.4,-1.4 -5.95,-2.5 -2.6,-1.85 -2.6,-5.05 0.45,2.15 2.7,3.65 1.65,1.1 6.25,2.7 4.45,1.6 6.2,2.8 1.95,1.35 2.55,3.3 M 19.15,6.95 Q 17.3,8.85 17.1,9.3 l -0.35,0.95 0.05,2 -0.05,0.8 h 0.05 q 4.9,0.5 4.9,2.3 0,1.3 -2.3,1.4 l -2.95,0.2 -2.4,0.95 Q 10.75,19.15 9.6,20 9.15,20.35 7.9,23.25 L 7.55,24 6.35,24.05 5.7,24 Q 4.8,23.9 4.5,23.55 L 4.4,23.45 Q 4.15,23 4.15,22 V 21.8 L 4.2,21 q 0.1,-0.65 0.35,-1.2 0.75,-1.95 3.2,-3.35 l 0.4,-0.25 0.5,-0.25 2.6,-0.9 0.8,-0.7 0.05,-0.05 0.55,-1.2 0.35,-1.45 q 0.65,-3.2 1.25,-3.7 L 19.9,3.95 21.25,3 Q 19.1,5.25 19.1,6.1 l 0.05,0.85 m -6.3,9.15 1.3,0.15 q 2.45,0 2.45,-1.65 0,-2.2 -1.9,-1.3 -1.95,0.85 -1.95,2 l 0.1,0.8"
         fill="#887979"
         fill-rule="evenodd"
         stroke="none"
         id="path14" />
      <path
         d="m 36.9,19.7 0.25,1.75 q 0,1.25 -1.65,2.5 L 34.35,24.05 21.8,24.1 19.65,23.7 Q 13,23.7 7.55,24 L 7.9,23.25 q 1.25,-2.9 1.7,-3.25 1.15,-0.85 4.45,-2.1 l 2.4,-0.95 2.95,-0.2 q 2.3,-0.1 2.3,-1.4 0,-1.8 -4.9,-2.3 h -0.05 l 0.05,-0.8 -0.05,-2 0.35,-0.95 q 0.2,-0.45 2.05,-2.35 l 0.05,0.3 q 0,3.2 2.6,5.05 1.55,1.1 5.95,2.5 4.6,1.5 6.6,2.75 l 2.55,2.15"
         fill="#7d6f6f"
         fill-rule="evenodd"
         stroke="none"
         id="path15" />
    </g>
    <g
       id="sprite2">
      <use
         ffdec:characterId="618"
         height="9.1999998"
         width="14.5"
         xlink:href="#shape3"
         id="use15" />
    </g>
    <g
       id="shape3">
      <path
         d="M 13.1,7.5 13.2,6.8 12.95,6.05 11.7,5 Q 9.3,5.15 8.4,5.8 l -0.2,0.15 0.15,1 V 7.1 l 0.4,0.2 1,0.45 h 3 L 13.1,7.5 M 8.4,4.75 q 2.35,-1.35 4.1,-0.8 2,0.6 2,3.1 L 14.4,8.15 13.2,9.2 H 9.6 L 7.9,8.35 Q 7.35,8.9 6.2,8.9 4.55,8.9 4.2,8.2 L 4.15,7.4 H 3.95 Q 1.65,7.4 0.6,5.2 0.05,4.1 0,3.1 0,-0.05 3.55,0 7.05,0.1 7.05,3.2 L 6.85,5 7.55,5.2 7.6,5.25 8.4,4.75 M 5.65,5.15 5.9,5.05 5.95,4.65 V 3.5 Q 5.9,2.2 4.95,1.45 L 2.2,1.55 Q 1.45,2.25 1.25,2.8 L 1.15,3.2 1.2,3.6 Q 1.4,4.3 2.3,4.8 L 4.55,5.9 Q 4.9,5.35 5.65,5.15"
         fill="#6b6b6b"
         fill-rule="evenodd"
         stroke="none"
         id="path16" />
      <path
         d="m 13.1,7.5 -0.35,0.25 h -3 L 8.75,7.3 8.35,7.1 V 6.95 L 8.2,5.95 8.4,5.8 Q 9.3,5.15 11.7,5 L 12.95,6.05 13.2,6.8 13.1,7.5 M 7.55,5.2 Q 7.85,4.9 8.4,4.75 L 7.6,5.25 7.55,5.2 m -1.6,-0.55 -0.1,0.1 -0.2,0.4 Q 4.9,5.35 4.55,5.9 L 2.3,4.8 Q 1.4,4.3 1.2,3.6 V 3.35 L 1.25,2.8 Q 1.45,2.25 2.2,1.55 l 2.75,-0.1 q 0.95,0.75 1,2.05 v 1.15"
         fill="#ffffff"
         fill-opacity="0.2"
         fill-rule="evenodd"
         stroke="none"
         id="path17" />
    </g>
    <g
       id="sprite3"
       transform="translate(5.4,4)">
      <use
         ffdec:characterId="43"
         height="8"
         transform="translate(-5.4,-4)"
         width="10.8"
         xlink:href="#shape4"
         id="use17" />
    </g>
    <g
       id="shape4"
       transform="translate(5.4,4)">
      <path
         d="m 2.9,-0.35 q 0,-1.25 1.25,-1.25 1.25,0 1.25,1.2 0,1.3 -1.25,1.3 Q 3.6,0.9 3.25,0.5 2.9,0.15 2.9,-0.35 m 0.35,-2.3 q 0,0.55 -0.35,0.9 -0.4,0.45 -1,0.45 -1.35,0 -1.35,-1.4 0,-1.3 1.35,-1.3 1.35,0 1.35,1.35 m -3.1,1.9 h 0.2 q 2.6,0.1 2.6,2.8 l -0.3,1 Q 2.05,4 0.45,4 H 0.35 0.15 0.1 -0.45 q -1.6,0 -2.2,-0.95 l -0.3,-1 q 0,-2.8 2.8,-2.8 h 0.3 M -1.55,-4 q 1.35,0 1.35,1.35 0,0.55 -0.4,0.9 -0.4,0.45 -0.95,0.45 -1.4,0 -1.4,-1.4 0,-1.3 1.4,-1.3 m -2.6,2.4 q 1.25,0 1.25,1.25 0,0.5 -0.35,0.85 -0.35,0.4 -0.9,0.4 -1.25,0 -1.25,-1.3 0,-1.2 1.25,-1.2"
         fill="#6b6b6b"
         fill-rule="evenodd"
         stroke="none"
         id="path18" />
    </g>
  </defs>
</svg>
