<?xml version="1.0" encoding="UTF-8" standalone="no"?>
<svg
   ffdec:objectType="frame"
   height="33.700001"
   width="59.900002"
   version="1.1"
   id="svg16"
   sodipodi:docname="2.svg"
   xmlns:inkscape="http://www.inkscape.org/namespaces/inkscape"
   xmlns:sodipodi="http://sodipodi.sourceforge.net/DTD/sodipodi-0.dtd"
   xmlns:xlink="http://www.w3.org/1999/xlink"
   xmlns="http://www.w3.org/2000/svg"
   xmlns:svg="http://www.w3.org/2000/svg"
   xmlns:ffdec="https://www.free-decompiler.com/flash">
  <sodipodi:namedview
     id="namedview16"
     pagecolor="#ffffff"
     bordercolor="#000000"
     borderopacity="0.25"
     inkscape:showpageshadow="2"
     inkscape:pageopacity="0.0"
     inkscape:pagecheckerboard="0"
     inkscape:deskcolor="#d1d1d1"
     fit-margin-top="5"
     fit-margin-left="5"
     fit-margin-right="5"
     fit-margin-bottom="5" />
  <g
     transform="translate(29.85,15.25)"
     id="g5">
    <use
       ffdec:characterId="2265"
       height="22.65"
       transform="translate(-23.8,-11.3)"
       width="29.15"
       xlink:href="#shape0"
       id="use1" />
    <use
       ffdec:characterId="2270"
       height="21.5"
       transform="matrix(0.951,0,0,0.9124,-20.2911,-7.2227)"
       width="24.799999"
       xlink:href="#sprite0"
       id="use2" />
    <use
       ffdec:characterId="2259"
       height="22.549999"
       transform="translate(-23,-12.2)"
       width="28.200001"
       xlink:href="#sprite3"
       id="use3" />
    <use
       ffdec:characterId="2271"
       height="33.700001"
       transform="translate(-29.85,-15.25)"
       width="59.900002"
       xlink:href="#shape3"
       id="use4" />
    <use
       ffdec:characterId="1691"
       height="8"
       transform="matrix(0.6118,-0.4949,0.4949,0.6118,-5.8837,5.9753)"
       width="10.8"
       xlink:href="#sprite4"
       id="use5" />
  </g>
  <defs
     id="defs16">
    <g
       id="shape0"
       transform="translate(23.8,11.3)">
      <path
         d="m -23.8,-2.6 v -8.7 H 5.35 v 8.7 H -23.8"
         fill="#8a8a8a"
         fill-rule="evenodd"
         stroke="none"
         id="path5" />
      <path
         d="M 5.35,-2.6 V 11.35 H -23.8 V -2.6 H 5.35"
         fill="#9c9c9c"
         fill-rule="evenodd"
         stroke="none"
         id="path6" />
    </g>
    <g
       id="sprite0"
       transform="translate(11.4,11.15)">
      <use
         ffdec:characterId="2268"
         height="26.200001"
         transform="matrix(0.7287,0,0,0.7287,-11.395,-9.55)"
         width="25.799999"
         xlink:href="#sprite1"
         id="use6" />
    </g>
    <g
       id="sprite1"
       transform="translate(12.55,12.9)">
      <use
         ffdec:characterId="2267"
         height="30.299999"
         transform="matrix(0.8642,0,0,0.8642,-12.5265,-12.8926)"
         width="29.85"
         xlink:href="#sprite2"
         id="use7" />
    </g>
    <g
       id="sprite2"
       transform="translate(14.9,15.15)">
      <use
         ffdec:characterId="2266"
         height="30.299999"
         transform="translate(-14.9,-15.15)"
         width="29.85"
         xlink:href="#shape1"
         id="use8" />
    </g>
    <g
       id="shape1"
       transform="translate(14.9,15.15)">
      <path
         d="m 4.15,-9.15 q -1.35,-3.3 -4.45,-3.3 l -3.85,0.3 -1.4,-0.1 -0.4,-0.25 -2.2,0.4 q -1.8,1.05 -2.5,2.65 -0.6,1.3 -1,3.8 l -0.55,4.4 0.1,3.1 q 0,3.4 2.3,5.95 3.25,3.55 10.5,4.35 h 3.85 q 3.3,-0.4 4.3,-2.05 0.55,-0.9 0.8,-2.75 0.7,-1.8 1.95,-3.25 0.9,-1 0.9,-2.25 0,-1.9 -1.25,-3.95 Q 9.8,-4.5 7.4,-5.4 5.75,-6 4.95,-7.15 l -0.8,-2 m 2.4,-0.55 q 0.1,0.85 0.3,1.15 0.25,0.35 1.7,0.75 1.6,0.4 2,0.75 2.5,2.35 3.5,4.55 0.9,1.95 0.9,4.4 0,2.1 -1.4,3.6 Q 12.05,7.1 11.9,9.15 11.7,12.3 9,13.7 L 4.85,15.15 H 0.5 Q -8.3,13.9 -12.15,9.8 -14.9,6.9 -14.9,2.85 q 0,-11.2 2.35,-14.4 2.7,-3.6 12.2,-3.6 2.75,0 4.85,1.95 1.2,1.1 1.85,2.4 l 0.2,1.1 M 10.6,3.2 9.95,3.6 Q 9.4,3.6 9.1,3.1 L 8.95,2.55 q 0,-0.8 0.95,-0.9 0.95,-0.05 0.95,0.9 L 10.6,3.2 M 1,10.25 q -0.6,0 -0.85,-0.5 L 0.05,9.3 q 0,-0.85 0.95,-0.85 0.9,0 0.9,0.9 0,0.9 -0.9,0.9 m -1.85,-20.3 q 0,-0.7 0.8,-0.7 0.75,0 0.75,0.75 0,0.75 -0.75,0.75 -0.55,0 -0.75,-0.45 l -0.05,-0.35 m -4.6,13.3 q -0.65,0 -0.7,-0.7 0,-0.6 0.7,-0.65 0.65,-0.05 0.65,0.65 0,0.7 -0.65,0.7 m -5.45,1 L -11,3.9 q 0,-0.7 0.8,-0.7 0.8,0 0.8,0.75 0,0.75 -0.75,0.75 L -10.9,4.25"
         fill="#6b6b6b"
         fill-rule="evenodd"
         stroke="none"
         id="path8" />
      <path
         d="m 4.15,-9.15 0.8,2 q 0.8,1.15 2.45,1.75 2.4,0.9 3.85,3.3 1.25,2.05 1.25,3.95 0,1.25 -0.9,2.25 -1.25,1.45 -1.95,3.25 -0.25,1.85 -0.8,2.75 -1,1.65 -4.3,2.05 H 0.7 Q -6.55,11.35 -9.8,7.8 -12.1,5.25 -12.1,1.85 l -0.1,-3.1 0.55,-4.4 q 0.4,-2.5 1,-3.8 0.7,-1.6 2.5,-2.65 l 2.2,-0.4 0.4,0.25 1.4,0.1 3.85,-0.3 q 3.1,0 4.45,3.3 m -15.05,13.4 0.75,0.45 q 0.75,0 0.75,-0.75 0,-0.75 -0.8,-0.75 -0.8,0 -0.8,0.7 l 0.1,0.35 m 5.45,-1 q 0.65,0 0.65,-0.7 0,-0.7 -0.65,-0.65 -0.7,0.05 -0.7,0.65 0.05,0.7 0.7,0.7 m 4.6,-13.3 0.05,0.35 q 0.2,0.45 0.75,0.45 0.75,0 0.75,-0.75 0,-0.75 -0.75,-0.75 -0.8,0 -0.8,0.7 M 1,10.25 q 0.9,0 0.9,-0.9 0,-0.9 -0.9,-0.9 -0.95,0 -0.95,0.85 l 0.1,0.45 Q 0.4,10.25 1,10.25 M 10.6,3.2 10.85,2.55 Q 10.85,1.6 9.9,1.65 8.95,1.75 8.95,2.55 L 9.1,3.1 Q 9.4,3.6 9.95,3.6 L 10.6,3.2"
         fill="#9a8a8a"
         fill-rule="evenodd"
         stroke="none"
         id="path9" />
    </g>
    <g
       id="sprite3"
       transform="translate(14.1,11.3)">
      <use
         ffdec:characterId="2256"
         height="22.549999"
         transform="translate(-14.1,-11.3)"
         width="28.200001"
         xlink:href="#shape2"
         id="use9" />
    </g>
    <g
       id="shape2"
       transform="translate(14.1,11.3)">
      <path
         d="M 14.1,11.25 H -14.1 V -11.3 h 28.2 v 22.55"
         fill="#ffffff"
         fill-opacity="0.2"
         fill-rule="evenodd"
         stroke="none"
         id="path10" />
    </g>
    <g
       id="shape3"
       transform="translate(29.85,15.25)">
      <path
         d="m 8.9,-10.6 0.05,-0.15 h 4.4 l 0.1,0.6 h -0.2 v 23.9 h -4.2 v -23.9 H 8.85 L 8.9,-10.6 m 6.3,-0.3 v -1.35 L 6.15,-12.2 3.5,-12.25 H -27.25 V 11.35 15 H 15.2 v -25.9 m -2.95,2.05 V -9.2 L 12.3,-9.6 V -9.65 -9.9 H 10 v 0.1 l 0.05,0.1 v 0.5 3.1 0.3 l 0.05,0.35 0.1,9.3 v 6.5 l -0.2,2.5 0.35,-0.05 v -0.05 h 0.7 0.9 v 0.05 l 0.35,0.05 q -0.35,-2.35 -0.2,-9 l 0.1,-9.3 h 0.05 v -0.1 -0.25 -0.3 -2.75 m -5.75,-1.3 q 0.85,-0.3 0.95,0.55 l -0.1,1.5 0.05,2.65 0.1,15.2 Q 7.75,13.2 6.75,13.2 l -0.15,-0.05 -0.45,0.3 -29.05,0.05 -1.85,-0.2 -0.3,-0.5 0.05,-0.2 -0.2,-1.05 V 10 -5.45 l 0.05,-0.35 0.1,-1.5 0.1,-2.05 q 0.15,-1.5 0.45,-0.85 l 3.05,-0.25 6.15,-0.05 16.65,0.05 5.05,0.25 0.1,0.05 m -2.15,8.5 V 0.15 9.7 L 4.05,9.85 H 3.8 3.55 l -0.5,0.3 H -21.4 l -0.35,0.05 -0.6,-0.05 V 9.8 l 0.2,-0.45 -0.05,-7.8 0.1,-7 h -0.1 v -0.1 -0.1 -0.15 l 0.1,-0.5 0.05,-0.1 v -0.05 q 0,-0.4 0.6,-0.6 H 3.5 l 0.15,0.05 0.5,-0.05 0.35,0.5 v 0.1 0.35 0.3 0.25 0.1 l -0.15,3.8 M 3.2,-5.95 H -21 v 0.15 0.25 0.1 h -0.15 l 0.05,7.05 q 0.15,5.75 -0.1,7.55 L 1.2,9.1 h 1 L 3,9.05 2.9,5.45 Q 2.9,2.6 3.2,-2.6 V -5.95 M 1.35,-9.1 h -22.8 l -2.75,-0.05 0.2,1.2 0.05,2.5 0.1,15.4 v 1.7 l -0.05,0.55 1,-0.1 29.05,0.05 Q 5.9,10.9 6,8.05 6,3.7 6.15,1.65 v -10.9 l -4.8,0.15 m 25.9,-2.1 v -1.05 H 16.1 l 0.05,0.55 0.05,0.85 v 0.5 10.5 7.8 1.9 h 0.75 l 10.3,0.05 v -21.1 m -9.85,3.3 0.45,0.15 0.35,-0.2 h 7.6 l 0.05,-0.1 0.1,0.15 0.2,0.1 0.1,0.3 -0.05,0.2 -0.05,0.05 0.15,0.7 v 0.6 0.15 0.25 0.1 H 26.25 V -5 l 0.05,0.15 v 9.3 l 0.1,1.6 -0.1,1.85 -0.1,0.05 0.05,0.1 -0.55,0.6 H 18.5 L 17.95,8.55 17.75,8.7 17.7,8.55 17.55,8.5 Q 17.4,8.4 17.4,8.05 L 17.5,7.8 Q 17.25,6.5 17.25,4.35 V -7.05 L 17.4,-7.9 m 1.35,5.65 q 0,-0.75 0.85,-0.85 0.85,-0.05 0.85,0.8 l -0.2,0.55 Q 20,-1.4 19.65,-1.4 19.1,-1.4 18.9,-1.8 l -0.15,-0.45 m -0.45,-2.7 h 7.1 V -6.2 l 0.1,-0.95 -7.2,0.1 v 2.1 m -47.95,-10.2 h 0.1 l 0.3,-0.1 0.05,0.05 0.25,0.05 0.2,-0.05 h 0.15 0.15 l 0.4,0.05 h 56.1 l 0.4,-0.05 h 0.15 0.15 l 0.25,0.05 0.2,-0.05 0.05,-0.05 0.3,0.1 h 0.1 v 0.05 l 0.4,0.35 v 1.05 1.7 27 0.95 0.55 l -0.4,0.6 -1.9,0.3 v 0.2 q 0,0.6 -0.8,0.85 H 24.5 Q 23.75,18.2 23.75,17.6 l 0.05,-0.2 h -48.25 q 0,0.85 -0.75,1.05 h -1.65 l -1.1,-0.25 Q -28.3,18 -28.3,17.45 l -1.55,-0.5 0.2,-32.1 M 21.9,-1.4 q -0.55,0 -0.75,-0.4 L 21,-2.25 Q 21,-3 21.85,-3.1 22.7,-3.15 22.7,-2.3 l -0.2,0.55 q -0.25,0.35 -0.6,0.35 m 1.5,-0.4 -0.15,-0.45 q 0,-0.75 0.85,-0.85 0.85,-0.05 0.85,0.8 l -0.2,0.55 -0.6,0.35 q -0.55,0 -0.75,-0.4 M 18.3,-4.2 V 4.4 L 18.45,6.75 18.4,7.6 h 0.1 6.85 V -4.1 L 18.3,-4.2 m 5.8,3.5 q 0.85,-0.05 0.85,0.8 L 24.75,0.65 24.15,1 Q 23.6,1 23.4,0.6 L 23.25,0.15 q 0,-0.75 0.85,-0.85 M 23.4,2.85 23.25,2.4 q 0,-0.75 0.85,-0.85 0.85,-0.05 0.85,0.8 l -0.2,0.55 -0.6,0.35 q -0.55,0 -0.75,-0.4 M 21,0.15 Q 21,-0.6 21.85,-0.7 22.7,-0.75 22.7,0.1 L 22.5,0.65 Q 22.25,1 21.9,1 21.35,1 21.15,0.6 L 21,0.15 M 19.6,-0.7 q 0.85,-0.05 0.85,0.8 l -0.2,0.55 Q 20,1 19.65,1 19.1,1 18.9,0.6 L 18.75,0.15 q 0,-0.75 0.85,-0.85 M 21,2.4 Q 21,1.65 21.85,1.55 22.7,1.5 22.7,2.35 L 22.5,2.9 q -0.25,0.35 -0.6,0.35 -0.55,0 -0.75,-0.4 L 21,2.4 M 20.25,2.9 Q 20,3.25 19.65,3.25 19.1,3.25 18.9,2.85 L 18.75,2.4 q 0,-0.75 0.85,-0.85 0.85,-0.05 0.85,0.8 l -0.2,0.55 m 2.45,2 -0.2,0.55 Q 22.25,5.8 21.9,5.8 21.35,5.8 21.15,5.4 L 21,4.95 Q 21,4.2 21.85,4.1 22.7,4.05 22.7,4.9 m 4.5,5.7 -11,0.15 V 15 h 0.65 10.4 V 11.45 10.65 10.6 H 27.2 m -55.8,6.85 h -0.15 -0.25 0.4"
         fill="#6b6b6b"
         fill-rule="evenodd"
         stroke="none"
         id="path11" />
      <path
         d="m 8.9,-10.6 -0.05,0.45 h 0.2 v 23.9 h 4.2 v -23.9 h 0.2 l -0.1,-0.6 1.1,-0.05 0.75,-0.1 V 15 h -42.45 v -3.65 l 0.15,0.75 q 0.7,-0.45 0.8,-1.3 l 0.05,-1.4 V -9.1 l -0.15,-1.5 29.9,0.1 5.4,-0.1 m 1.3,20.95 0.05,0.15 Q 10.8,9.25 10.8,6.1 L 10.7,2.05 V -7.3 -7.75 L 10.65,-8.7 h 0.05 l 0.95,-0.15 h 0.25 0.35 v 2.75 0.3 0.25 0.1 H 12.2 l -0.1,9.3 q -0.15,6.65 0.2,9 L 11.95,12.8 v -0.05 h -0.9 -0.7 v 0.05 l -0.35,0.05 0.2,-2.5 m -3.7,-20.5 -0.1,-0.05 -5.05,-0.25 -16.65,-0.05 -6.15,0.05 -3.05,0.25 q -0.3,-0.65 -0.45,0.85 l -0.1,2.05 -0.1,1.5 -0.05,0.35 V 10 11.55 l 0.2,1.05 -0.05,0.2 0.3,0.5 1.85,0.2 29.05,-0.05 0.45,-0.3 0.15,0.05 q 1,0 0.75,-3.45 L 7.4,-5.45 7.35,-8.1 7.45,-9.6 Q 7.35,-10.45 6.5,-10.15 M 27.25,-11.2 V 9.9 L 16.95,9.85 V 7.4 l -0.1,-7.45 v -7.7 l -0.1,-3.1 5.3,-0.05 4.85,-0.2 0.35,-0.1 m -8.5,8.95 0.15,0.45 q 0.2,0.4 0.75,0.4 0.35,0 0.6,-0.35 l 0.2,-0.55 q 0,-0.85 -0.85,-0.8 -0.85,0.1 -0.85,0.85 M 17.4,-7.9 17.25,-7.05 v 11.4 q 0,2.15 0.25,3.45 l -0.1,0.25 q 0,0.35 0.15,0.45 l 0.15,0.05 0.05,0.15 0.2,-0.15 0.55,0.1 h 7.2 L 26.25,8.05 26.2,7.95 26.3,7.9 26.4,6.05 26.3,4.45 v -9.3 L 26.25,-5 v -0.45 h 0.05 v -0.1 -0.25 -0.15 -0.6 l -0.15,-0.7 0.05,-0.05 0.05,-0.2 -0.1,-0.3 -0.2,-0.1 -0.1,-0.15 -0.05,0.1 H 18.2 L 17.85,-7.75 17.4,-7.9 M 22.7,4.9 Q 22.7,4.05 21.85,4.1 21,4.2 21,4.95 l 0.15,0.45 q 0.2,0.4 0.75,0.4 0.35,0 0.6,-0.35 L 22.7,4.9 m -2.45,-2 0.2,-0.55 q 0,-0.85 -0.85,-0.8 -0.85,0.1 -0.85,0.85 l 0.15,0.45 q 0.2,0.4 0.75,0.4 0.35,0 0.6,-0.35 M 21,2.4 21.15,2.85 q 0.2,0.4 0.75,0.4 0.35,0 0.6,-0.35 L 22.7,2.35 Q 22.7,1.5 21.85,1.55 21,1.65 21,2.4 m -1.4,-3.1 q -0.85,0.1 -0.85,0.85 L 18.9,0.6 Q 19.1,1 19.65,1 20,1 20.25,0.65 l 0.2,-0.55 q 0,-0.85 -0.85,-0.8 M 21,0.15 21.15,0.6 Q 21.35,1 21.9,1 22.25,1 22.5,0.65 L 22.7,0.1 q 0,-0.85 -0.85,-0.8 Q 21,-0.6 21,0.15 m 2.4,2.7 q 0.2,0.4 0.75,0.4 l 0.6,-0.35 0.2,-0.55 q 0,-0.85 -0.85,-0.8 -0.85,0.1 -0.85,0.85 l 0.15,0.45 m 0.7,-3.55 q -0.85,0.1 -0.85,0.85 L 23.4,0.6 Q 23.6,1 24.15,1 l 0.6,-0.35 0.2,-0.55 q 0,-0.85 -0.85,-0.8 m -5.8,-3.5 7.05,0.1 V 7.6 H 18.5 18.4 L 18.45,6.75 18.3,4.4 v -8.6 m 5.1,2.4 q 0.2,0.4 0.75,0.4 l 0.6,-0.35 0.2,-0.55 q 0,-0.85 -0.85,-0.8 -0.85,0.1 -0.85,0.85 l 0.15,0.45 m -1.5,0.4 q 0.35,0 0.6,-0.35 l 0.2,-0.55 q 0,-0.85 -0.85,-0.8 Q 21,-3 21,-2.25 l 0.15,0.45 q 0.2,0.4 0.75,0.4 M 16.85,15 16.9,11.65 h 1.6 8.35 l 0.4,-0.2 V 15 h -10.4"
         fill="#b4b4b4"
         fill-rule="evenodd"
         stroke="none"
         id="path12" />
      <path
         d="m 13.35,-10.75 h -4.4 l -0.05,0.15 -5.4,0.1 -29.9,-0.1 0.15,1.5 V 9.4 l -0.05,1.4 q -0.1,0.85 -0.8,1.3 l -0.15,-0.75 v -23.6 H 3.5 l 2.65,0.05 9.05,-0.05 v 1.35 l -0.75,0.1 -1.1,0.05 M 10.2,10.35 V 3.85 L 10.1,-5.45 10.05,-5.8 V -6.1 -9.2 -9.7 L 10,-9.8 v -0.1 h 2.3 v 0.25 0.05 l -0.05,0.4 v 0.35 H 11.9 11.65 L 10.7,-8.7 h -0.05 l 0.05,0.95 v 0.45 9.35 l 0.1,4.05 q 0,3.15 -0.55,4.4 L 10.2,10.35 m 6.75,-0.5 H 16.2 v -1.9 -7.8 -10.5 -0.5 l -0.05,-0.85 -0.05,-0.55 h 11.15 v 1.05 l -0.35,0.1 -4.85,0.2 -5.3,0.05 0.1,3.1 v 7.7 l 0.1,7.45 v 2.45 m 10.25,0.75 0.05,0.05 v 0.8 l -0.4,0.2 H 18.5 16.9 L 16.85,15 H 16.2 v -4.25 l 11,-0.15"
         fill="#cccccc"
         fill-rule="evenodd"
         stroke="none"
         id="path13" />
      <path
         d="M 3.2,-5.95 V -2.6 Q 2.9,2.6 2.9,5.45 L 3,9.05 2.2,9.1 h -1 l -22.4,0.05 q 0.25,-1.8 0.1,-7.55 l -0.05,-7.05 H -21 V -5.55 -5.8 -5.95 H 3.2"
         fill="#858585"
         fill-opacity="0.2"
         fill-rule="evenodd"
         stroke="none"
         id="path14" />
      <path
         d="m 4.35,-1.65 0.15,-3.8 v -0.1 -0.25 -0.3 -0.35 -0.1 L 4.15,-7.05 3.65,-7 3.5,-7.05 h -24.95 q -0.6,0.2 -0.6,0.6 v 0.05 l -0.05,0.1 -0.1,0.5 v 0.15 0.1 0.1 h 0.1 l -0.1,7 0.05,7.8 -0.2,0.45 v 0.35 l 0.6,0.05 0.35,-0.05 H 3.05 l 0.5,-0.3 H 3.8 4.05 L 4.35,9.7 v -9.55 -1.8 m -3,-7.45 4.8,-0.15 V 1.65 Q 6,3.7 6,8.05 5.9,10.9 6.15,12.15 l -29.05,-0.05 -1,0.1 0.05,-0.55 v -1.7 l -0.1,-15.4 -0.05,-2.5 -0.2,-1.2 2.75,0.05 h 22.8 m 16.95,4.15 v -2.1 l 7.2,-0.1 -0.1,0.95 v 1.25 h -7.1"
         fill="#9a8282"
         fill-rule="evenodd"
         stroke="none"
         id="path15" />
    </g>
    <g
       id="sprite4"
       transform="translate(5.4,4)">
      <use
         ffdec:characterId="43"
         height="8"
         transform="translate(-5.4,-4)"
         width="10.8"
         xlink:href="#shape4"
         id="use15" />
    </g>
    <g
       id="shape4"
       transform="translate(5.4,4)">
      <path
         d="m 2.9,-0.35 q 0,-1.25 1.25,-1.25 1.25,0 1.25,1.2 0,1.3 -1.25,1.3 Q 3.6,0.9 3.25,0.5 2.9,0.15 2.9,-0.35 m 0.35,-2.3 q 0,0.55 -0.35,0.9 -0.4,0.45 -1,0.45 -1.35,0 -1.35,-1.4 0,-1.3 1.35,-1.3 1.35,0 1.35,1.35 m -3.1,1.9 h 0.2 q 2.6,0.1 2.6,2.8 l -0.3,1 Q 2.05,4 0.45,4 H 0.35 0.15 0.1 -0.45 q -1.6,0 -2.2,-0.95 l -0.3,-1 q 0,-2.8 2.8,-2.8 h 0.3 M -1.55,-4 q 1.35,0 1.35,1.35 0,0.55 -0.4,0.9 -0.4,0.45 -0.95,0.45 -1.4,0 -1.4,-1.4 0,-1.3 1.4,-1.3 m -2.6,2.4 q 1.25,0 1.25,1.25 0,0.5 -0.35,0.85 -0.35,0.4 -0.9,0.4 -1.25,0 -1.25,-1.3 0,-1.2 1.25,-1.2"
         fill="#6b6b6b"
         fill-rule="evenodd"
         stroke="none"
         id="path16" />
    </g>
  </defs>
</svg>
