<?xml version="1.0" encoding="UTF-8" standalone="no"?>
<svg
   ffdec:objectType="frame"
   height="46.450001"
   width="33.916668"
   version="1.1"
   id="svg7"
   sodipodi:docname="1.svg"
   xmlns:inkscape="http://www.inkscape.org/namespaces/inkscape"
   xmlns:sodipodi="http://sodipodi.sourceforge.net/DTD/sodipodi-0.dtd"
   xmlns:xlink="http://www.w3.org/1999/xlink"
   xmlns="http://www.w3.org/2000/svg"
   xmlns:svg="http://www.w3.org/2000/svg"
   xmlns:ffdec="https://www.free-decompiler.com/flash">
  <sodipodi:namedview
     id="namedview7"
     pagecolor="#ffffff"
     bordercolor="#000000"
     borderopacity="0.25"
     inkscape:showpageshadow="2"
     inkscape:pageopacity="0.0"
     inkscape:pagecheckerboard="0"
     inkscape:deskcolor="#d1d1d1"
     fit-margin-top="5"
     fit-margin-left="5"
     fit-margin-right="5"
     fit-margin-bottom="5" />
  <g
     transform="translate(16.958333,22.9)"
     id="g1">
    <use
       ffdec:characterId="2163"
       height="46.549999"
       transform="translate(-16.95,-23)"
       width="33.900002"
       xlink:href="#sprite0"
       id="use1" />
  </g>
  <defs
     id="defs7">
    <g
       id="sprite0"
       transform="translate(16.95,23.4)">
      <use
         ffdec:characterId="2162"
         height="46.549999"
         transform="translate(-16.95,-23.4)"
         width="33.900002"
         xlink:href="#shape0"
         id="use2" />
    </g>
    <g
       id="shape0"
       transform="translate(16.95,23.4)">
      <path
         d="m 10.05,-13.25 q 0.3,0.4 0.3,1.6 0,4.6 -4.85,4.6 -1.95,0 -3.4,-1.3 -1.15,-1.05 -1.15,-1.75 0,-2.25 0.8,-3.15 1.5,-1.75 6.3,-1.65 l 2,1.65 M 0,-23.2 3.8,-23.3 q 6.85,0.7 9.75,5.75 2.5,4.2 2.85,5.4 l 0.25,4.25 0.3,2.2 q 0.1,1.35 -1,2.2 -1.45,1.15 -5.35,1.7 v 0.55 l -0.45,5.9 -0.85,3.5 h 3.85 Q 13.35,8 13.55,8 q 1.3,-0.05 1.3,4 l -0.05,1.25 -0.15,0.5 0.05,0.25 q 0,0.95 -1.2,1.25 l -1.75,0.05 v 0.05 0.25 0.35 l -0.8,6.2 -0.15,1 h -21.95 l -0.15,-1 -0.8,-6.2 v -0.6 -0.05 l -1.75,-0.05 q -1.2,-0.3 -1.2,-1.25 L -15,13.75 -15.15,13.25 -15.2,12 q 0,-4.05 1.25,-4 0.25,0 0.45,0.15 h 4.2 l -0.85,-3.5 -0.45,-5.9 V -1.8 q -3.9,-0.55 -5.35,-1.7 -1.1,-0.85 -1,-2.2 l 0.3,-2.2 0.25,-4.25 q 0.35,-1.2 2.85,-5.4 2.9,-5.05 9.75,-5.75 l 3.8,0.1 m 0.05,3.65 -0.5,0.15 q 0.15,0.5 0.15,1.5 0,1.55 -0.7,3.05 -1.05,2.25 -3.1,2.25 -6.75,0 -6.75,-2.5 l 0.1,-1.3 q -3.2,3 -3.2,8.55 l 0.1,1.75 q 0.2,1.3 0.95,1.5 l 11.25,1.2 1.7,0.15 1.6,-0.15 11.25,-1.2 q 0.75,-0.2 0.95,-1.5 l 0.1,-1.75 q 0,-5.65 -3.25,-8.65 -3.05,-2.8 -10.1,-2.9 l -0.55,-0.15 m 8.85,7.9 q 0,-1.95 -3.3,-1.95 -3.35,0 -3.35,1.95 0,0.95 0.55,1.8 0.8,1.3 2.55,1.3 2.15,0 3.05,-1.5 0.5,-0.75 0.5,-1.6 M 0.25,-1.1 H -0.05 -1 l -6.7,-0.35 q 0.25,1.1 0.1,2.5 0.1,3.65 1.15,5.9 l 0.3,0.6 2.2,-0.15 V 7.3 h 7.9 v 0.1 l 2.2,0.15 0.3,-0.6 Q 7.5,4.7 7.6,1.05 7.45,-0.35 7.7,-1.45 L 1,-1.1 H 0.25 m -3.3,-18.35 q -4.2,0.4 -6.8,2.3 l -0.2,1.05 q 0,2.3 3.75,2.3 3.15,0 4.25,-1.85 0.55,-0.9 0.55,-2.15 0,-0.85 -1.3,-1.5 l -0.25,-0.15 m 0.3,10.2 q 0.15,0.25 0.15,1 0,0.9 -0.55,1.8 -0.75,1.15 -1.9,1.15 -2,0 -2.95,-1.05 -0.65,-0.6 -0.65,-1.15 0,-1.1 0.45,-1.7 1.1,-1.4 4.25,-0.95 l 1.2,0.9 M -4.1,-7.6 q 0.25,-0.6 0.25,-1.1 -2.55,-0.35 -2.8,-0.75 L -7.2,-8.8 -7.6,-8 q 0,0.85 0.8,1.1 l 1.75,0.15 q 0.65,0 0.95,-0.85 m 2,9.85 Q -2.65,3 -3.55,3 -5,3 -5.4,2.35 l -0.1,-0.7 q 0,-2.1 1.95,-2.1 1.9,-0.05 1.9,1.5 0,0.6 -0.45,1.2 m 3.95,2.45 -2.3,0.2 -3.7,0.55 q -0.8,0 -0.7,-0.65 0,-0.75 3.2,-0.85 3.2,-0.15 3.8,0.45 L 1.85,4.7 M 12.35,12 V 10.8 H 6.9 L 6.4,10.7 H -6.75 l -0.5,0.1 h -5.45 v 1.2 0.95 h 1.2 L -11.05,13 H 10.7 l 0.45,-0.05 h 1.2 V 12 m -3.3,3.25 V 15.2 h -18.4 v 0.05 0.1 h 0.05 l 0.75,1.5 0.2,3.1 0.1,0.55 v 0.15 l 1.25,0.1 h 3.25 V 20.7 L 7.9,20.65 7.95,20.55 V 20.5 L 8,19.95 8.2,16.85 8.95,15.35 H 9 l 0.05,-0.1 M 4.5,2.7 q -0.35,0.55 -0.95,0.55 -1.2,0 -1.2,-1.35 0,-1.25 1.2,-1.15 1.2,0.1 1.2,1.2 L 4.5,2.7"
         fill="#6b6b6b"
         fill-rule="evenodd"
         stroke="none"
         id="path2" />
      <path
         d="m 8.9,-11.65 q 0,0.85 -0.5,1.6 -0.9,1.5 -3.05,1.5 -1.75,0 -2.55,-1.3 -0.55,-0.85 -0.55,-1.8 0,-1.95 3.35,-1.95 3.3,0 3.3,1.95 m -11.95,-7.8 0.25,0.15 q 1.3,0.65 1.3,1.5 0,1.25 -0.55,2.15 -1.1,1.85 -4.25,1.85 -3.75,0 -3.75,-2.3 l 0.2,-1.05 q 2.6,-1.9 6.8,-2.3 M -4.1,-7.6 q -0.3,0.85 -0.95,0.85 L -6.8,-6.9 Q -7.6,-7.15 -7.6,-8 l 0.4,-0.8 0.55,-0.65 q 0.25,0.4 2.8,0.75 0,0.5 -0.25,1.1"
         fill="#e0e0e0"
         fill-rule="evenodd"
         stroke="none"
         id="path3" />
      <path
         d="M 0.25,-1.1 H 1 L 7.7,-1.45 Q 7.45,-0.35 7.6,1.05 7.5,4.7 6.45,6.95 L 6.15,7.55 3.95,7.4 V 7.3 h -7.9 v 0.1 l -2.2,0.15 -0.3,-0.6 Q -7.5,4.7 -7.6,1.05 q 0.15,-1.4 -0.1,-2.5 L -1,-1.1 h 0.95 0.3 m 1.6,5.8 0.3,-0.3 q -0.6,-0.6 -3.8,-0.45 -3.2,0.1 -3.2,0.85 -0.1,0.65 0.7,0.65 L -0.45,4.9 1.85,4.7 M -2.1,2.25 q 0.45,-0.6 0.45,-1.2 0,-1.55 -1.9,-1.5 -1.95,0 -1.95,2.1 l 0.1,0.7 Q -5,3 -3.55,3 -2.65,3 -2.1,2.25 M 4.5,2.7 4.75,1.95 q 0,-1.1 -1.2,-1.2 -1.2,-0.1 -1.2,1.15 0,1.35 1.2,1.35 0.6,0 0.95,-0.55"
         fill="#cccccc"
         fill-rule="evenodd"
         stroke="none"
         id="path4" />
      <path
         d="m 12.35,12 v 0.95 h -1.2 L 10.7,13 h -21.75 l -0.45,-0.05 h -1.2 V 12 10.8 h 5.45 l 0.5,-0.1 H 6.4 l 0.5,0.1 h 5.45 V 12"
         fill="#a69c8d"
         fill-rule="evenodd"
         stroke="none"
         id="path5" />
      <path
         d="M 9.05,15.25 9,15.35 H 8.95 L 8.2,16.85 8,19.95 7.95,20.5 v 0.05 L 7.9,20.65 -3.75,20.7 v 0.05 H -7 l -1.25,-0.1 V 20.5 l -0.1,-0.55 -0.2,-3.1 -0.75,-1.5 h -0.05 v -0.1 -0.05 h 18.4 v 0.05"
         fill="#948a7c"
         fill-rule="evenodd"
         stroke="none"
         id="path6" />
      <path
         d="m 10.05,-13.25 -2,-1.65 q -4.8,-0.1 -6.3,1.65 -0.8,0.9 -0.8,3.15 0,0.7 1.15,1.75 1.45,1.3 3.4,1.3 4.85,0 4.85,-4.6 0,-1.2 -0.3,-1.6 m -10,-6.3 0.55,0.15 q 7.05,0.1 10.1,2.9 3.25,3 3.25,8.65 l -0.1,1.75 q -0.2,1.3 -0.95,1.5 L 1.65,-3.4 0.05,-3.25 -1.65,-3.4 -12.9,-4.6 q -0.75,-0.2 -0.95,-1.5 l -0.1,-1.75 q 0,-5.55 3.2,-8.55 l -0.1,1.3 q 0,2.5 6.75,2.5 2.05,0 3.1,-2.25 0.7,-1.5 0.7,-3.05 0,-1 -0.15,-1.5 l 0.5,-0.15 m -2.8,10.3 -1.2,-0.9 q -3.15,-0.45 -4.25,0.95 -0.45,0.6 -0.45,1.7 0,0.55 0.65,1.15 0.95,1.05 2.95,1.05 1.15,0 1.9,-1.15 0.55,-0.9 0.55,-1.8 0,-0.75 -0.15,-1"
         fill="#9a8888"
         fill-rule="evenodd"
         stroke="none"
         id="path7" />
    </g>
  </defs>
</svg>
