<?xml version="1.0" encoding="UTF-8" standalone="no"?>
<svg
   ffdec:objectType="frame"
   height="90.679314"
   width="49.299999"
   version="1.1"
   id="svg6"
   sodipodi:docname="1.svg"
   xmlns:inkscape="http://www.inkscape.org/namespaces/inkscape"
   xmlns:sodipodi="http://sodipodi.sourceforge.net/DTD/sodipodi-0.dtd"
   xmlns:xlink="http://www.w3.org/1999/xlink"
   xmlns="http://www.w3.org/2000/svg"
   xmlns:svg="http://www.w3.org/2000/svg"
   xmlns:ffdec="https://www.free-decompiler.com/flash">
  <sodipodi:namedview
     id="namedview6"
     pagecolor="#ffffff"
     bordercolor="#000000"
     borderopacity="0.25"
     inkscape:showpageshadow="2"
     inkscape:pageopacity="0.0"
     inkscape:pagecheckerboard="0"
     inkscape:deskcolor="#d1d1d1"
     fit-margin-top="5"
     fit-margin-left="5"
     fit-margin-right="5"
     fit-margin-bottom="5" />
  <g
     transform="translate(24.65,44.52931)"
     id="g1">
    <use
       ffdec:characterId="2814"
       height="90.75"
       transform="translate(-24.65,-44.55)"
       width="49.299999"
       xlink:href="#shape0"
       id="use1" />
  </g>
  <defs
     id="defs6">
    <g
       id="shape0"
       transform="translate(24.65,44.55)">
      <path
         d="m -5.9,-38.3 0.45,-1.25 1.2,-1.8 4.45,4.8 q 1.95,2.5 1.95,4.85 l -0.2,1.1 -1.45,0.05 -0.95,0.2 q -0.7,-2.05 -2.55,-4.2 l -2.25,-2.7 -0.1,-0.1 -0.55,-0.95 m 6,12.3 1.85,-0.25 v 45.8 6.75 3.9 H 0 L 0.05,22.65 0.1,5.4 V 3.25 -3.15 -5.35 -26 m 1.85,-2.3 v 0.6 l -1.9,-0.05 v -0.6 l 1.45,-0.35 0.4,-0.1 0.05,0.5 m -11.2,65.8 0.05,-0.05 0.95,-0.55 0.7,-0.35 q 1.75,-0.95 4.05,-1.3 l 1.45,-0.05 -0.05,0.5 v 0.35 0.75 l 0.15,0.45 -1.3,-0.05 h -1 l -0.85,0.05 h -0.15 q -0.25,-0.3 -0.85,0 L -6.8,37.9 -7,38.25 q -0.45,0.85 -0.55,2.25 v 0.1 Q -8.4,40.25 -9.6,41 l 0.35,-3.5 m 31.75,4.1 v 0.25 H -4.9 v -0.2 l 1.9,0.15 7.45,-0.55 16.05,0.55 2,-0.2 m -25.25,1.95 -1.8,0.25 -0.2,-0.45 h 27.4 v 0.05 l -1.25,0.05 -3.3,0.05 -20.85,0.05"
         fill="#b8b8b8"
         fill-rule="evenodd"
         stroke="none"
         id="path1" />
      <path
         d="m -5.35,-37.35 0.1,0.1 2.25,2.7 q 1.85,2.15 2.55,4.2 l 0.95,-0.2 1.45,-0.05 0.2,-1.1 q 0,-2.35 -1.95,-4.85 l -4.45,-4.8 -1.2,1.8 -0.45,1.25 v 0.05 l 0.55,0.9 m 7.3,9.05 -0.05,-0.5 -0.4,0.1 -1.45,0.35 v 0.6 l 1.9,0.05 v -0.6 M 0.1,-26 v 20.65 2.2 6.4 2.15 L 0.05,22.65 0,30.2 h 1.95 v -3.9 -6.75 -45.8 L 0.1,-26 m 4.5,1.7 1.75,1.55 q 3.45,4.1 4.05,11.5 V 1.5 l 0.3,6.65 q 0.1,6.25 -0.45,12.15 -0.75,7.1 -2.4,9.9 h 4.45 q 1.15,0.9 6.25,7.55 l 4.55,0.2 q 0.5,0.1 0.7,0.35 0.85,0.1 0.85,1.25 0,3.3 -0.5,4.5 l 0.3,0.65 q 0,0.75 -0.75,1.05 l -5.6,0.3 -20.85,-0.05 -2.2,0.1 -1.15,0.05 q -1,0 -1.25,-0.7 L -7.5,44.7 v -0.35 l -1.2,0.05 q -2.5,0 -3.25,-0.55 l -0.15,-0.3 q -0.4,-0.45 -0.5,-1.3 l -0.05,-1.3 -0.3,0.3 q -3.05,2.95 -4.95,3.7 h -1.8 L -20.55,44 q 0,-1 0.85,-2.45 l -0.75,0.05 q -2.95,0 -3.85,-0.8 -0.35,-0.35 -0.35,-1.3 0,-3.9 9.1,-6.85 2,-0.75 3.75,-1.05 L -12,30.7 q 0,-2.35 1,-3.5 l -0.3,-0.65 q -3.2,-7.25 -3.85,-12.8 V 5.5 l -0.6,2.2 v 13.15 q 1.15,0.25 1.15,1.35 v 0.9 1.25 l -0.05,1.15 q -0.15,0.7 -0.55,0.95 l 0.05,2.35 -0.7,0.55 -0.45,-2 -0.15,-0.8 h -0.8 l 0.05,0.3 q 0,0.95 -0.4,1.85 l 0.15,0.1 -0.45,0.1 q -0.8,0 -0.75,-2.05 v -0.4 q -0.6,-0.3 -0.6,-1 l -0.1,-0.4 V 24 q 0,-2.25 1.25,-2.9 l 0.35,-0.4 -0.15,-2.1 v -4.3 q 0,-7.2 2.7,-14.65 l -0.2,-3.4 0.05,-1.6 q 0.05,-2.8 0.45,-4.4 0.95,-3.6 3.8,-6 1.2,-1.05 6.7,-7.85 l 0.45,-0.5 -0.3,-0.35 q -0.7,-1.2 -0.7,-2.25 0,-2.7 2.25,-0.35 l -0.5,-2.55 q -0.7,-1.9 -3.35,-4.65 -2.25,-2.35 -2.25,-4.05 0,-4.75 2.15,-5.95 1.85,-0.9 4.75,1.1 2.75,2 4.75,5.45 2.2,3.8 2.2,7.3 -0.05,2.3 -0.4,3.35 L 4.6,-26.8 v 2.5 m 3.15,21.8 v -8.2 l -0.2,-2.95 Q 7.5,-15.7 6.65,-17.05 L 6.2,-17.75 4.6,-20.4 v 7.95 0.65 6.45 2.2 6.4 2.15 L 4.55,19.2 4.5,28.65 V 29 l 0.15,-0.4 1,-3.3 1.9,-6.5 L 8,8.05 7.75,2.1 v -4.6 m -10.45,-18.6 -0.05,0.05 -2.8,3.05 -1,1.1 -0.45,0.55 q -1.75,2.05 -2.85,4.15 -1.9,3.4 -2.25,6.85 l -0.05,0.9 -0.05,0.75 0.05,0.9 0.05,1.2 0.15,0.9 v 13.45 l 0.15,0.7 v 0.15 0.25 l 0.05,2.35 0.35,2 0.6,1.6 1.55,3.4 0.2,0.4 -0.1,-0.6 v -0.15 l -0.15,-9.7 0.05,-3.55 0.4,-8.45 v -0.4 h 0.15 l 0.5,7.55 q 0.4,5 0.45,7.9 0.05,3 1.15,8.1 l 1.05,5.45 0.55,0.9 2.35,-0.35 V 28.7 L -2.7,27.4 -2.65,24.95 V 24.3 20.45 -13 v -8.1 -0.1 l -0.05,0.1 m -19.15,60.15 0.65,0.3 q 2.4,-0.95 5.35,-2.7 l 4.35,-2.75 q -3.45,0.95 -6.2,2.1 -3.75,1.6 -4,2.95 l -0.15,0.1 m 11.95,-9.55 -0.15,0.55 0.55,1.1 h 0.1 0.45 L -9.9,29.5 m 7.85,5.7 0.15,-0.6 q 0.25,-0.65 0.85,-0.7 H -1 l 0.3,0.05 0.15,0.05 H 2.5 l 4.95,0.05 h 0.1 0.05 0.45 l 3.4,0.05 h 0.2 L 11.55,33.9 11.3,33.1 -1.65,33 l -0.5,0.2 -1.05,0.2 q -0.6,-0.25 -1.9,0.45 l -1,0.65 -0.5,0.2 -0.85,0.7 -1.7,1.7 -0.1,0.15 V 37.5 L -9.6,41 q 1.2,-0.75 2.05,-0.4 v -0.1 q 0.1,-1.4 0.55,-2.25 l 0.2,-0.35 0.7,-0.65 q 0.6,-0.3 0.85,0 h 0.15 l 0.85,-0.05 h 1 l 1.3,0.05 L -2.1,36.8 V 36.05 35.7 l 0.05,-0.5 m -10.25,2.15 -1.2,0.85 -2.25,1.45 -2.5,3.1 -0.1,0.15 q 1.3,-0.6 4.5,-3.75 l 1.55,-1.65 v -0.15 m 7.4,4.3 v 0.2 H 22.5 V 41.6 L 22.4,40.35 22.35,39.85 17.7,40 14.45,40.05 -4.9,40.1 l -0.05,0.65 0.05,0.9 m 2.15,1.9 20.85,-0.05 3.3,-0.05 1.25,-0.05 v -0.05 h -27.4 l 0.2,0.45 1.8,-0.25 M 13.35,37.05 12.8,36.3 12.3,35.55 0.1,35.7 v 0.35 l -0.2,1.2 5.65,-0.15 h 7.75 0.05 v -0.05"
         fill="#6b6b6b"
         fill-rule="evenodd"
         stroke="none"
         id="path2" />
      <path
         d="m -2.05,35.2 -1.45,0.05 q -2.3,0.35 -4.05,1.3 l -0.7,0.35 -0.95,0.55 -0.05,0.05 v -0.25 l 0.1,-0.15 1.7,-1.7 0.85,-0.7 0.5,-0.2 1,-0.65 q 1.3,-0.7 1.9,-0.45 l 1.05,-0.2 0.5,-0.2 12.95,0.1 0.25,0.8 -0.1,0.2 -3.4,-0.05 H 7.6 7.55 7.45 L 2.5,34 H -0.55 L -0.7,33.95 -1,33.9 h -0.05 q -0.6,0.05 -0.85,0.7 l -0.15,0.6 M -4.9,41.65 -4.95,40.75 -4.9,40.1 14.45,40.05 17.7,40 l 4.65,-0.15 0.05,0.5 0.1,1.25 -2,0.2 L 4.45,41.25 -3,41.8 -4.9,41.65"
         fill="#cccccc"
         fill-rule="evenodd"
         stroke="none"
         id="path3" />
      <path
         d="M 13.35,37.05 13.3,37.1 H 5.55 l -5.65,0.15 0.2,-1.2 V 35.7 l 12.2,-0.15 0.5,0.75 0.55,0.75"
         fill="#ffffff"
         fill-rule="evenodd"
         stroke="none"
         id="path4" />
      <path
         d="m 4.6,-11.8 0.4,1.4 q 0.85,3 1.6,5.05 L 7.7,-2.5 H 7.75 V 2.1 L 8,8.05 7.55,18.8 5.65,25.3 4.65,28.6 4.5,28.65 4.55,19.2 4.6,5.4 v -2.15 -6.4 -2.2 -6.45 M -8.85,1.15 -8.9,0.7 l 0.95,-4.85 0.6,-1.2 2.35,-4.1 1.1,-1.9 1.25,-1.65 v 33.45 3.85 0.65 l -0.05,2.45 0.05,1.3 v 1.6 L -5,30.65 -5.55,29.75 -6.6,24.3 Q -7.7,19.2 -7.75,16.2 -7.8,13.3 -8.2,8.3 L -8.7,0.75 h -0.15 v 0.4"
         fill="#7b8779"
         fill-rule="evenodd"
         stroke="none"
         id="path5" />
      <path
         d="m 4.6,-11.8 v -0.65 -7.95 l 1.6,2.65 0.45,0.7 q 0.85,1.35 0.9,3.4 l 0.2,2.95 v 8.2 H 7.7 L 6.6,-5.35 Q 5.85,-7.4 5,-10.4 l -0.4,-1.4 m -13.85,35 -1.55,-3.4 -0.6,-1.6 -0.35,-2 -0.05,-2.35 V 13.6 13.45 l -0.15,-0.7 V -0.7 l -0.15,-0.9 -0.05,-1.2 -0.05,-0.9 0.05,-0.75 0.05,-0.9 q 0.35,-3.45 2.25,-6.85 1.1,-2.1 2.85,-4.15 l 0.45,-0.55 1,-1.1 2.8,-3.05 0.05,-0.05 h 0.05 v 8.1 l -1.25,1.65 -1.1,1.9 -2.35,4.1 -0.6,1.2 -0.95,4.85 0.05,0.45 -0.4,8.45 -0.05,3.55 0.15,9.7 V 23 l -0.1,0.2"
         fill="#98a696"
         fill-rule="evenodd"
         stroke="none"
         id="path6" />
    </g>
  </defs>
</svg>
