<?xml version="1.0" encoding="UTF-8" standalone="no"?>
<svg
   ffdec:objectType="frame"
   height="132.66447"
   width="88.599998"
   version="1.1"
   id="svg17"
   sodipodi:docname="2.svg"
   xmlns:inkscape="http://www.inkscape.org/namespaces/inkscape"
   xmlns:sodipodi="http://sodipodi.sourceforge.net/DTD/sodipodi-0.dtd"
   xmlns:xlink="http://www.w3.org/1999/xlink"
   xmlns="http://www.w3.org/2000/svg"
   xmlns:svg="http://www.w3.org/2000/svg"
   xmlns:ffdec="https://www.free-decompiler.com/flash">
  <sodipodi:namedview
     id="namedview17"
     pagecolor="#ffffff"
     bordercolor="#000000"
     borderopacity="0.25"
     inkscape:showpageshadow="2"
     inkscape:pageopacity="0.0"
     inkscape:pagecheckerboard="0"
     inkscape:deskcolor="#d1d1d1"
     fit-margin-top="5"
     fit-margin-left="5"
     fit-margin-right="5"
     fit-margin-bottom="5" />
  <g
     transform="translate(46.35,67.214474)"
     id="g5">
    <use
       ffdec:characterId="2629"
       height="112.25"
       transform="matrix(1.2512,0,0,1,-42.0494,-60.6)"
       width="63.700001"
       xlink:href="#sprite0"
       id="use1" />
    <use
       ffdec:characterId="2631"
       height="71.5"
       transform="matrix(-1,0,0,1,16.9,-53.05)"
       width="31.700001"
       xlink:href="#sprite1"
       id="use2" />
    <use
       ffdec:characterId="2499"
       height="88.099998"
       transform="matrix(-1,0,0,1,5.95,-41.15)"
       width="14.35"
       xlink:href="#sprite2"
       id="use3" />
    <use
       ffdec:characterId="2633"
       height="132.64999"
       transform="translate(-46.35,-67.2)"
       width="88.599998"
       xlink:href="#shape3"
       id="use4" />
    <use
       ffdec:characterId="44"
       height="8"
       transform="matrix(0.9173,-0.4023,0.3982,0.9269,22.9038,43.865)"
       width="10.8"
       xlink:href="#sprite3"
       id="use5" />
  </g>
  <defs
     id="defs17">
    <g
       id="sprite0"
       transform="translate(31.85,56.15)">
      <use
         ffdec:characterId="2628"
         height="112.25"
         transform="translate(-31.85,-56.15)"
         width="63.700001"
         xlink:href="#shape0"
         id="use6" />
    </g>
    <g
       id="shape0"
       transform="translate(31.85,56.15)">
      <path
         d="m 22.6,-53.8 0.1,-0.85 h 6.55 l -0.05,6.85 -6.55,0.05 -0.05,-6.05 m -8.65,0.45 v -1.35 l 6.45,0.05 -0.05,6.9 -6.45,0.05 -0.05,-1.65 0.1,-4 m -11,-1.35 -0.05,1.55 0.1,3.05 -0.05,2.4 -6.45,0.05 -0.05,-1.7 0.1,-4 v -1.45 l 6.4,0.1 m 8.6,0 -0.05,1.55 q 0,2.4 0.15,4.05 l -0.05,1.4 H 5.5 l -0.05,-1.65 0.1,-4 v -1.35 h 6 M 13.95,48 v -1.35 h 6.45 l -0.05,6.95 -6.7,0.05 0.3,-5.65 M 15.2,37.35 h 0.4 4.8 l -0.05,6.95 -6.45,0.05 -0.05,-1.65 0.1,-4 V 37.35 H 15.2 M 5.55,48 v -1.4 l 6,0.05 -0.05,1.5 q 0,3.6 0.3,5.5 H 5.25 L 5.55,48 M 2.95,46.6 2.9,48.15 3,51.2 2.95,53.65 -3.75,53.7 q 0.3,-1.95 0.3,-5.7 v -1.4 h 6.4 M 2.9,38.85 3,41.9 2.95,44.35 -3.5,44.4 -3.55,42.8 v -0.1 l 0.1,-4 v -1.4 h 1.2 0.4 4.8 L 2.9,38.85 M 5.55,38.7 v -1.4 h 4.5 0.4 l 1.1,0.05 -0.05,1.5 q 0,2.25 0.15,3.85 v 0.05 l -0.05,1.6 H 5.5 l -0.05,-1.65 0.1,-4 M 2.9,29.55 3,32.6 2.95,35.05 -3.5,35.1 l -0.05,-1.7 0.1,-4 v -1 l 6.4,0.05 -0.05,1.1 m 8.6,0 q 0,2.45 0.15,4.1 l -0.05,1.4 H 5.5 l -0.05,-1.65 0.1,-4 v -0.95 h 6 l -0.05,1.1 m 2.4,5.5 -0.05,-1.65 0.1,-4 V 28.45 L 20.4,28.5 20.35,35 13.9,35.05 M 13.85,24.2 13.95,20.5 V 19.15 H 20.4 L 20.35,26.1 13.9,26.15 13.85,24.2 m -8.4,0 0.1,-3.7 v -1.4 l 6,0.05 -0.05,1.5 q 0,2.35 0.15,3.95 L 11.6,26.15 H 5.5 L 5.45,24.2 M 2.9,20.65 3,23.7 2.95,26.15 -3.5,26.2 -3.55,24.25 -3.45,20.5 v -1.4 h 6.4 L 2.9,20.65 M 2.95,9.8 2.9,11.35 3,14.4 2.95,16.85 -3.5,16.9 -3.55,15.3 v -0.1 l 0.1,-4 V 9.8 h 1.2 0.4 4.8 M 2.95,0.5 2.9,2.05 3,5.1 2.95,7.55 -3.5,7.6 -3.55,5.85 -3.45,1.9 V 0.5 h 1.2 0.4 4.8 m 8.6,9.35 -0.05,1.5 q 0,2.25 0.15,3.85 v 0.05 l -0.05,1.6 H 5.5 l -0.05,-1.65 0.1,-4 V 9.8 h 4.5 0.4 l 1.1,0.05 M 11.5,2.05 q 0,2.45 0.15,4.1 L 11.6,7.55 H 5.5 L 5.45,5.85 5.55,1.9 V 0.5 h 4.5 0.4 l 1.1,0.05 -0.05,1.5 m 8.9,7.8 -0.05,6.95 -6.45,0.05 -0.05,-1.65 0.1,-4 V 9.85 h 1.25 0.4 4.8 m 2.2,9.3 6.65,0.05 -0.05,6.85 -6.55,0.05 -0.05,-6.95 M 20.4,0.6 20.35,7.5 13.9,7.55 13.85,5.85 13.95,1.9 V 0.55 L 20.4,0.6 M 22.65,7.5 22.6,0.6 h 6.65 L 29.2,7.4 22.65,7.5 M 22.6,9.85 29.25,9.9 29.2,16.75 22.65,16.8 22.6,9.85 m 6.65,-18.55 -0.05,6.8 -6.55,0.05 -0.05,-6.9 6.65,0.05 m -6.65,-9.35 6.65,0.05 -0.05,6.8 -6.55,0.05 -0.05,-6.9 m -8.75,14.6 0.1,-3.95 v -1.35 h 6.45 l -0.05,6.9 -6.45,0.05 -0.05,-1.65 M 2.9,-7.25 3,-4.2 l -0.05,2.4 -6.45,0.05 -0.05,-1.7 0.1,-3.95 v -1.4 h 6.4 L 2.9,-7.25 m 2.55,3.8 0.1,-3.95 v -1.4 l 6,0.05 -0.05,1.5 q 0,2.4 0.15,4.1 L 11.6,-1.8 H 5.5 L 5.45,-3.45 m -2.55,-13.1 0.1,3.05 -0.05,2.4 -6.45,0.05 -0.05,-1.6 v -0.1 l 0.1,-3.95 v -1.4 h 1.2 0.4 4.8 l -0.05,1.55 m 10.95,3.8 0.1,-3.95 v -1.35 h 1.25 0.4 4.8 l -0.05,6.9 -6.45,0.05 -0.05,-1.65 m -2.2,0 v 0.05 l -0.05,1.6 H 5.5 l -0.05,-1.65 0.1,-3.95 v -1.4 h 4.5 0.4 l 1.1,0.05 -0.05,1.5 q 0,2.2 0.15,3.8 m 2.3,-13.3 v -0.7 l 6.45,0.05 -0.05,6.25 -6.45,0.05 -0.05,-1.65 0.1,-4 m -8.4,0 v -0.7 h 6 l -0.05,0.9 q 0,2.4 0.15,4.05 l -0.05,1.4 H 5.5 l -0.05,-1.65 0.1,-4 m -2.6,-0.7 -0.05,0.9 0.1,3.05 -0.05,2.4 -6.45,0.05 -0.05,-1.7 0.1,-4 v -0.75 l 6.4,0.05 M 3,-31.5 v 0.15 l -0.05,2.1 -6.45,0.05 -0.05,-1.8 0.1,-3.7 v -1.4 h 6.4 L 2.9,-34.55 3,-31.5 m 2.45,0.45 0.1,-3.65 v -1.4 l 6,0.05 -0.05,1.5 q 0,2.25 0.15,3.85 l -0.05,1.4 -6.1,0.05 -0.05,-1.8 M 3,-40.8 l -0.05,2.4 -6.45,0.05 -0.05,-1.6 v -0.1 l 0.1,-3.95 v -1.4 h 1.2 0.4 4.8 L 2.9,-43.85 3,-40.8 m 8.55,-4.55 -0.05,1.5 q 0,2.2 0.15,3.8 V -40 l -0.05,1.6 H 5.5 L 5.45,-40.05 5.55,-44 v -1.4 h 4.5 0.4 l 1.1,0.05 m 11.1,16.05 -0.05,-6.75 6.65,0.05 -0.05,6.65 -6.55,0.05 m -2.25,-6.75 -0.05,6.75 H 13.9 l -0.05,-1.75 0.1,-3.65 v -1.35 h 6.45 m 2.2,9.35 h 6.65 l -0.05,6.2 -6.55,0.05 -0.05,-6.25 m 6.65,-18.6 -0.05,6.8 -6.55,0.05 -0.05,-6.9 6.65,0.05 m -8.85,-0.05 -0.05,6.9 -6.45,0.05 -0.05,-1.65 0.1,-3.95 v -1.35 h 1.25 0.4 4.8 M 29.2,34.95 22.65,35 22.6,28.5 h 6.65 L 29.2,34.95 M -12.45,-54.8 h 6.4 l -0.05,1.65 0.1,3.05 -0.05,2.45 h -6.45 l -0.05,-1.7 0.1,-4 v -1.45 m -8.15,1.45 v -1.45 h 5.75 l -0.05,1.65 0.15,3.8 h -0.05 v 1.7 l -5.85,0.05 -0.05,-1.75 0.1,-4 m -2.4,-1.45 -0.05,1.65 0.15,3.8 h -0.05 v 1.75 h -3.7 -2.6 l -0.05,-1.75 0.1,-4 v -1.5 l 6.2,0.05 m 52.25,92.2 -0.05,6.85 -6.55,0.05 -0.05,-6.95 6.65,0.05 m -6.65,9.25 6.65,0.05 -0.05,6.85 -6.55,0.05 -0.05,-6.95 m -29.85,-92.1 1.2,0.05 -0.05,1.55 0.1,3.05 -0.05,2.45 h -6.45 l -0.05,-1.7 v -0.3 l 0.1,-3.65 v -1.45 h 4.8 0.4 M -20.6,-7.4 v -1.45 h 1.15 0.2 0.05 0.15 0.2 1.9 0.15 0.05 0.15 1.75 l -0.05,1.6 0.15,3.8 h -0.05 v 1.7 l -5.85,0.1 -0.05,-1.8 0.1,-3.95 m -2.4,-1.45 -0.05,1.6 0.15,3.8 h -0.05 v 1.8 h -3.7 -2.6 l -0.05,-1.8 0.1,-3.95 v -1.5 l 6.2,0.05 m 2.3,-4.25 0.1,-3.6 v -1.45 h 1.15 0.4 0.2 1.9 0.35 1.75 l -0.05,1.6 0.1,3.65 v 0.15 l -0.05,1.7 -5.8,0.05 -0.05,-1.75 v -0.35 m -8.6,0 0.1,-3.6 v -1.5 l 6.2,0.05 -0.05,1.6 0.1,3.65 v 0.15 L -23,-11 h -3.65 -2.6 l -0.05,-1.75 v -0.35 m 0.1,-13.85 2.55,0.05 3.65,0.05 -0.05,1 0.15,3.8 h -0.05 v 1.75 h -3.7 -2.6 l -0.05,-1.75 0.1,-4 v -0.9 m 6.15,-7.6 0.1,3.6 -0.05,1.8 h -6.25 l -0.05,-2.05 0.1,-3.5 v -1.5 l 6.2,0.05 -0.05,1.6 m 0.05,-10.9 -0.05,1.6 0.1,3.65 v 0.15 L -23,-38.3 h -3.65 -2.6 l -0.05,-1.75 v -0.35 l 0.1,-3.6 v -1.5 l 6.2,0.05 m 10.55,19.4 v -0.8 l 6.4,0.05 -0.05,0.95 0.1,3.05 -0.05,2.45 h -6.45 l -0.05,-1.7 0.1,-4 m -4.5,-0.8 h 0.35 1.75 l -0.05,1 0.15,3.8 h -0.05 v 1.7 l -5.85,0.05 -0.05,-1.75 0.1,-4 v -0.8 h 1.15 0.4 0.2 1.9 m 4.5,-7.85 v -1.45 l 6.4,0.05 -0.05,1.55 0.1,3.05 -0.05,2.3 h -6.45 l -0.05,-1.95 0.1,-3.55 m -2.45,0.15 0.1,3.6 -0.05,1.75 -5.8,0.05 -0.05,-2.05 0.1,-3.5 v -1.45 h 1.15 0.2 0.05 0.15 0.2 1.9 0.15 0.05 0.15 1.75 l -0.05,1.6 m 0.05,-10.9 -0.05,1.6 0.1,3.65 v 0.15 l -0.05,1.7 -5.8,0.05 -0.05,-1.75 v -0.35 l 0.1,-3.6 v -1.45 h 1.15 0.4 0.2 1.9 0.35 1.75 m 8.85,31.95 -0.05,2.45 h -6.45 l -0.05,-1.7 v -0.3 l 0.1,-3.65 v -1.45 h 4.8 0.4 l 1.2,0.05 -0.05,1.55 0.1,3.05 M -7.65,0.45 h 0.4 L -6.05,0.5 -6.1,2.05 -6,5.1 -6.05,7.6 h -6.45 l -0.05,-1.75 0.1,-3.95 V 0.45 h 4.8 m -4.8,-7.85 v -1.45 l 6.4,0.05 -0.05,1.55 0.1,3.05 -0.05,2.45 h -6.45 l -0.05,-1.7 0.1,-3.95 m 5.2,17.15 1.2,0.05 -0.05,1.55 0.1,3.05 -0.05,2.5 h -6.45 l -0.05,-1.7 v -0.35 l 0.1,-3.65 V 9.75 h 4.8 0.4 m 1.2,18.65 -0.05,1.15 0.1,3.05 -0.05,2.5 h -6.45 l -0.05,-1.7 0.1,-4 v -1 h 6.4 M -20.6,48 v -1.45 h 1.15 0.2 0.05 0.15 0.2 1.9 0.15 0.05 0.15 1.75 l -0.05,1.6 0.3,5.55 -6.35,0.05 Q -20.6,51.8 -20.6,48 m -8.6,0 v -1.5 l 6.2,0.05 -0.05,1.6 0.25,5.25 v 0.35 h -3.85 -2.9 Q -29.2,51.8 -29.2,48 m 8.5,-5.3 v -0.35 l 0.1,-3.65 v -1.45 h 1.15 0.4 0.2 1.9 0.35 1.75 l -0.05,1.6 0.1,3.7 v 0.15 l -0.05,1.7 -5.8,0.05 -0.05,-1.75 m -2.3,-5.45 -0.05,1.6 0.1,3.7 V 42.7 L -23,44.45 h -3.65 -2.6 L -29.3,42.7 v -0.35 l 0.1,-3.65 v -1.5 l 6.2,0.05 m 2.4,-7.85 v -1.05 h 1.15 0.4 0.2 1.9 0.35 1.75 l -0.05,1.2 0.15,3.85 h -0.05 v 1.7 l -5.85,0.05 -0.05,-1.75 0.1,-4 m -2.4,-1.05 -0.05,1.2 0.15,3.85 h -0.05 v 1.75 h -3.7 -2.6 l -0.05,-1.75 0.1,-4 v -1.15 l 2.55,0.05 3.65,0.05 M -29.2,20.5 V 19 l 6.2,0.05 -0.05,1.6 0.1,3.65 -0.05,1.95 h -3.65 -2.6 l -0.05,-2.2 0.1,-3.55 m 0,-9.3 V 9.7 l 6.2,0.05 -0.05,1.6 0.1,3.7 V 15.2 L -23,16.95 h -3.65 -2.6 L -29.3,15.2 v -0.4 l 0.1,-3.6 m 6.15,-9.15 0.15,3.8 h -0.05 v 1.8 h -3.7 -2.6 L -29.3,5.85 -29.2,1.9 V 0.4 l 6.2,0.05 -0.05,1.6 m 10.5,22 0.1,-3.55 v -1.45 l 6.4,0.05 -0.05,1.55 0.1,3.05 -0.05,2.5 h -6.45 l -0.05,-2.15 m -6.3,-5 h 1.9 0.15 0.05 0.15 1.75 l -0.05,1.6 0.1,3.65 -0.05,1.9 -5.8,0.05 -0.05,-2.2 0.1,-3.55 v -1.45 h 1.15 0.2 0.05 0.15 0.2 m -0.2,-9.3 h 0.2 1.9 0.35 1.75 l -0.05,1.6 0.1,3.7 v 0.15 l -0.05,1.7 -5.8,0.05 -0.05,-1.75 v -0.4 l 0.1,-3.6 V 9.75 h 1.15 0.4 m 4.2,-9.3 -0.05,1.6 0.15,3.8 H -14.8 V 7.6 l -5.85,0.05 -0.05,-1.8 0.1,-3.95 V 0.45 h 1.15 0.4 0.2 1.9 0.35 1.75 m 2.4,36.8 h 4.8 0.4 l 1.2,0.05 -0.05,1.55 0.1,3.05 -0.05,2.5 h -6.45 l -0.05,-1.7 v -0.3 l 0.1,-3.7 v -1.45 m 0,10.75 v -1.45 l 6.4,0.05 -0.05,1.55 0.1,3.05 -0.05,2.5 h -6.65 v -0.55 q 0.25,-1.95 0.25,-5.15"
         fill="#d2d2d2"
         fill-rule="evenodd"
         stroke="none"
         id="path6" />
      <path
         d="m 11.55,-54.7 h -6 v 1.35 l -0.1,4 0.05,1.65 h 6.1 l 0.05,-1.4 q -0.15,-1.65 -0.15,-4.05 l 0.05,-1.55 m -8.6,0 -6.4,-0.1 v 1.45 l -0.1,4 0.05,1.7 6.45,-0.05 0.05,-2.4 -0.1,-3.05 0.05,-1.55 m 11,1.35 -0.1,4 0.05,1.65 6.45,-0.05 0.05,-6.9 -6.45,-0.05 v 1.35 m 8.65,-0.45 0.05,6.05 6.55,-0.05 0.05,-6.85 H 22.7 l -0.1,0.85 m 8.7,-1.15 -0.1,5.35 v 0.25 l 0.1,1.7 q 0.6,0.3 0.55,1.1 0,0.45 -0.35,0.85 l -0.2,0.25 -0.1,4.85 v 0.4 0.15 l 0.1,1.7 q 0.6,0.3 0.55,1.1 l -0.35,0.9 -0.2,0.2 -0.1,4.8 0.1,2.1 q 0.45,0.15 0.5,0.85 l 0.05,0.45 -0.35,0.9 -0.2,0.2 -0.1,4.55 v 0.25 l 0.1,1.7 q 0.6,0.3 0.55,1.1 0,0.45 -0.35,0.85 l -0.2,0.25 -0.1,4.85 v 0.4 0.15 l 0.1,1.7 q 0.6,0.3 0.55,1.1 l -0.35,0.9 -0.2,0.2 -0.15,5.4 h 0.05 l 0.1,1.7 q 0.6,0.35 0.55,1.1 l -0.35,0.9 -0.2,0.2 -0.1,5.15 v 0.25 l 0.1,1.75 q 0.6,0.3 0.55,1.05 l -0.35,0.9 -0.2,0.2 -0.1,4.85 v 0.45 0.15 l 0.1,1.7 q 0.6,0.25 0.55,1.05 l -0.35,0.9 -0.2,0.2 -0.1,5 0.1,2.15 0.4,0.35 0.15,0.75 -0.35,0.85 -0.2,0.2 -0.1,4.75 v 0.3 l 0.1,1.7 q 0.6,0.3 0.55,1.05 l -0.35,0.9 -0.2,0.2 -0.1,4.85 v 0.45 0.15 l 0.1,1.7 q 0.6,0.25 0.55,1.1 l -0.35,0.85 -0.2,0.2 q 0.05,4.95 -0.35,7.05 0.95,0.2 0.9,1.2 l -0.35,0.85 q -0.5,0.6 -1.3,0.4 l -46.8,-0.2 h -0.35 -1.9 -0.2 -0.4 l -7.2,-0.05 -3.5,-0.3 q -0.2,0.2 -0.4,0.2 -1.3,0 -1.3,-7.55 l 0.1,-5.45 v -0.15 l -0.1,-3.7 0.1,-5.45 h 0.05 l -0.15,-3.85 0.1,-5.3 -0.1,-3.6 0.1,-5.45 v -0.15 l -0.1,-3.7 0.1,-5.5 h 0.05 l -0.15,-3.8 0.1,-5.5 h 0.05 l -0.15,-3.8 0.1,-5.5 v -0.15 l -0.1,-3.65 0.1,-5.5 h 0.05 l -0.15,-3.8 0.1,-5.2 -0.1,-3.5 0.1,-5.5 v -0.15 l -0.1,-3.65 0.1,-5.5 h 0.05 l -0.15,-3.8 0.05,-3 h 63.5 l 0.1,0.45 q 0,0.4 -0.5,0.75 m -10.9,9.6 H 15.6 15.2 13.95 V -44 l -0.1,3.95 0.05,1.65 6.45,-0.05 0.05,-6.9 m 8.85,0.05 -6.65,-0.05 0.05,6.9 6.55,-0.05 0.05,-6.8 m -6.65,18.6 0.05,6.25 6.55,-0.05 0.05,-6.2 H 22.6 m -2.2,-9.35 h -6.45 v 1.35 l -0.1,3.65 0.05,1.75 h 6.45 l 0.05,-6.75 m 2.25,6.75 6.55,-0.05 0.05,-6.65 -6.65,-0.05 0.05,6.75 m -11.1,-16.05 -1.1,-0.05 h -0.4 -4.5 v 1.4 l -0.1,3.95 0.05,1.65 h 6.1 l 0.05,-1.6 v -0.05 q -0.15,-1.6 -0.15,-3.8 l 0.05,-1.5 M 3,-40.8 2.9,-43.85 2.95,-45.4 h -4.8 -0.4 -1.2 v 1.4 l -0.1,3.95 v 0.1 l 0.05,1.6 6.45,-0.05 0.05,-2.4 m 2.45,9.75 0.05,1.8 6.1,-0.05 0.05,-1.4 q -0.15,-1.6 -0.15,-3.85 l 0.05,-1.5 -6,-0.05 v 1.4 l -0.1,3.65 M 3,-31.5 2.9,-34.55 2.95,-36.1 h -6.4 v 1.4 l -0.1,3.7 0.05,1.8 6.45,-0.05 0.05,-2.1 v -0.15 m -0.05,4.75 -6.4,-0.05 v 0.75 l -0.1,4 0.05,1.7 6.45,-0.05 0.05,-2.4 -0.1,-3.05 0.05,-0.9 m 2.6,0.7 -0.1,4 0.05,1.65 h 6.1 l 0.05,-1.4 q -0.15,-1.65 -0.15,-4.05 l 0.05,-0.9 h -6 v 0.7 m 8.4,0 -0.1,4 0.05,1.65 6.45,-0.05 0.05,-6.25 -6.45,-0.05 v 0.7 m -2.3,13.3 q -0.15,-1.6 -0.15,-3.8 l 0.05,-1.5 -1.1,-0.05 h -0.4 -4.5 v 1.4 l -0.1,3.95 0.05,1.65 h 6.1 l 0.05,-1.6 v -0.05 m 2.2,0 0.05,1.65 6.45,-0.05 0.05,-6.9 h -4.8 -0.4 -1.25 v 1.35 l -0.1,3.95 M 2.9,-16.55 2.95,-18.1 h -4.8 -0.4 -1.2 v 1.4 l -0.1,3.95 v 0.1 l 0.05,1.6 6.45,-0.05 0.05,-2.4 -0.1,-3.05 m 2.55,13.1 0.05,1.65 h 6.1 l 0.05,-1.35 q -0.15,-1.7 -0.15,-4.1 l 0.05,-1.5 -6,-0.05 v 1.4 l -0.1,3.95 M 2.9,-7.25 2.95,-8.8 h -6.4 v 1.4 l -0.1,3.95 0.05,1.7 L 2.95,-1.8 3,-4.2 2.9,-7.25 m 10.95,3.8 0.05,1.65 6.45,-0.05 0.05,-6.9 h -6.45 v 1.35 l -0.1,3.95 m 8.75,-14.6 0.05,6.9 6.55,-0.05 0.05,-6.8 -6.65,-0.05 m 6.65,9.35 -6.65,-0.05 0.05,6.9 6.55,-0.05 0.05,-6.8 M 22.6,9.85 22.65,16.8 29.2,16.75 29.25,9.9 22.6,9.85 M 22.65,7.5 29.2,7.4 29.25,0.6 H 22.6 l 0.05,6.9 M 20.4,0.6 13.95,0.55 V 1.9 l -0.1,3.95 0.05,1.7 6.45,-0.05 0.05,-6.9 m 2.2,18.55 0.05,6.95 6.55,-0.05 0.05,-6.85 -6.65,-0.05 m -2.2,-9.3 h -4.8 -0.4 -1.25 v 1.35 l -0.1,4 0.05,1.65 6.45,-0.05 0.05,-6.95 m -8.9,-7.8 0.05,-1.5 -1.1,-0.05 h -0.4 -4.5 v 1.4 l -0.1,3.95 0.05,1.7 h 6.1 l 0.05,-1.4 Q 11.5,4.5 11.5,2.05 m 0.05,7.8 -1.1,-0.05 h -0.4 -4.5 v 1.4 l -0.1,4 0.05,1.65 h 6.1 l 0.05,-1.6 V 15.2 Q 11.5,13.6 11.5,11.35 l 0.05,-1.5 M 2.95,0.5 h -4.8 -0.4 -1.2 V 1.9 L -3.55,5.85 -3.5,7.6 2.95,7.55 3,5.1 2.9,2.05 2.95,0.5 m 0,9.3 h -4.8 -0.4 -1.2 v 1.4 l -0.1,4 v 0.1 L -3.5,16.9 2.95,16.85 3,14.4 2.9,11.35 2.95,9.8 M 2.9,20.65 2.95,19.1 h -6.4 v 1.4 L -3.55,24.25 -3.5,26.2 2.95,26.15 3,23.7 2.9,20.65 m 2.55,3.55 0.05,1.95 h 6.1 L 11.65,24.6 Q 11.5,23 11.5,20.65 l 0.05,-1.5 -6,-0.05 v 1.4 l -0.1,3.7 m 8.4,0 0.05,1.95 6.45,-0.05 0.05,-6.95 h -6.45 v 1.35 l -0.1,3.7 M 13.9,35.05 20.35,35 20.4,28.5 13.95,28.45 v 0.95 l -0.1,4 0.05,1.65 m -2.4,-5.5 0.05,-1.1 h -6 v 0.95 l -0.1,4 0.05,1.65 h 6.1 l 0.05,-1.4 Q 11.5,32 11.5,29.55 m -8.6,0 0.05,-1.1 -6.4,-0.05 v 1 l -0.1,4 0.05,1.7 L 2.95,35.05 3,32.6 2.9,29.55 m 2.65,9.15 -0.1,4 0.05,1.65 h 6.1 l 0.05,-1.6 V 42.7 Q 11.5,41.1 11.5,38.85 l 0.05,-1.5 -1.1,-0.05 h -0.4 -4.5 v 1.4 M 2.9,38.85 2.95,37.3 h -4.8 -0.4 -1.2 v 1.4 l -0.1,4 v 0.1 L -3.5,44.4 2.95,44.35 3,41.9 2.9,38.85 m 0.05,7.75 h -6.4 V 48 q 0,3.75 -0.3,5.7 L 2.95,53.65 3,51.2 2.9,48.15 2.95,46.6 m 2.6,1.4 -0.3,5.65 h 6.55 q -0.3,-1.9 -0.3,-5.5 l 0.05,-1.5 -6,-0.05 V 48 M 15.2,37.35 h -1.25 v 1.35 l -0.1,4 0.05,1.65 6.45,-0.05 0.05,-6.95 H 15.6 15.2 M 13.95,48 l -0.3,5.65 6.7,-0.05 0.05,-6.95 H 13.95 V 48 M 29.2,34.95 29.25,28.5 H 22.6 l 0.05,6.5 6.55,-0.05 m -6.6,11.7 0.05,6.95 6.55,-0.05 0.05,-6.85 -6.65,-0.05 M 29.25,37.4 22.6,37.35 22.65,44.3 29.2,44.25 29.25,37.4 M -23,-54.8 l -6.2,-0.05 v 1.5 l -0.1,4 0.05,1.75 h 2.6 3.7 v -1.75 h 0.05 l -0.15,-3.8 0.05,-1.65 m 2.4,1.45 -0.1,4 0.05,1.75 5.85,-0.05 v -1.7 h 0.05 l -0.15,-3.8 0.05,-1.65 h -5.75 v 1.45 m 8.15,-1.45 v 1.45 l -0.1,4 0.05,1.7 h 6.45 l 0.05,-2.45 -0.1,-3.05 0.05,-1.65 h -6.4 m 5.2,9.35 h -0.4 -4.8 V -44 l -0.1,3.65 v 0.3 l 0.05,1.7 h 6.45 l 0.05,-2.45 -0.1,-3.05 0.05,-1.55 -1.2,-0.05 m -7.6,0 h -1.75 -0.35 -1.9 -0.2 -0.4 -1.15 V -44 l -0.1,3.6 v 0.35 l 0.05,1.75 5.8,-0.05 0.05,-1.7 v -0.15 l -0.1,-3.65 0.05,-1.6 m -0.05,10.9 0.05,-1.6 h -1.75 -0.15 -0.05 -0.15 -1.9 -0.2 -0.15 -0.05 -0.2 -1.15 v 1.45 l -0.1,3.5 0.05,2.05 5.8,-0.05 0.05,-1.75 -0.1,-3.6 m 2.45,-0.15 -0.1,3.55 0.05,1.95 h 6.45 l 0.05,-2.3 -0.1,-3.05 0.05,-1.55 -6.4,-0.05 v 1.45 m -4.5,7.85 h -1.9 -0.2 -0.4 -1.15 v 0.8 l -0.1,4 0.05,1.75 5.85,-0.05 v -1.7 h 0.05 l -0.15,-3.8 0.05,-1 h -1.75 -0.35 m 4.5,0.8 -0.1,4 0.05,1.7 h 6.45 l 0.05,-2.45 -0.1,-3.05 0.05,-0.95 -6.4,-0.05 v 0.8 M -23,-45.45 -29.2,-45.5 v 1.5 l -0.1,3.6 v 0.35 l 0.05,1.75 h 2.6 3.65 l 0.05,-1.75 v -0.15 l -0.1,-3.65 0.05,-1.6 m -0.05,10.9 0.05,-1.6 -6.2,-0.05 v 1.5 l -0.1,3.5 0.05,2.05 H -23 l 0.05,-1.8 -0.1,-3.6 m -6.15,7.6 v 0.9 l -0.1,4 0.05,1.75 h 2.6 3.7 v -1.75 h 0.05 l -0.15,-3.8 0.05,-1 -3.65,-0.05 -2.55,-0.05 m -0.1,13.85 v 0.35 l 0.05,1.75 h 2.6 3.65 l 0.05,-1.75 v -0.15 l -0.1,-3.65 0.05,-1.6 -6.2,-0.05 v 1.5 l -0.1,3.6 m 8.6,0 v 0.35 l 0.05,1.75 5.8,-0.05 0.05,-1.7 v -0.15 l -0.1,-3.65 0.05,-1.6 h -1.75 -0.35 -1.9 -0.2 -0.4 -1.15 v 1.45 l -0.1,3.6 m -2.3,4.25 -6.2,-0.05 v 1.5 l -0.1,3.95 0.05,1.8 h 2.6 3.7 v -1.8 h 0.05 l -0.15,-3.8 0.05,-1.6 m 2.4,1.45 -0.1,3.95 0.05,1.8 5.85,-0.1 v -1.7 h 0.05 l -0.15,-3.8 0.05,-1.6 h -1.75 -0.15 -0.05 -0.15 -1.9 -0.2 -0.15 -0.05 -0.2 -1.15 v 1.45 m 14.6,-6.1 -0.1,-3.05 0.05,-1.55 -1.2,-0.05 h -0.4 -4.8 v 1.45 l -0.1,3.65 v 0.3 l 0.05,1.7 h 6.45 L -6,-13.5 m -6.45,6.1 -0.1,3.95 0.05,1.7 h 6.45 L -6,-4.2 l -0.1,-3.05 0.05,-1.55 -6.4,-0.05 v 1.45 m 4.8,7.85 h -4.8 V 1.9 l -0.1,3.95 0.05,1.75 h 6.45 L -6,5.1 -6.1,2.05 -6.05,0.5 -7.25,0.45 h -0.4 m 0.4,9.3 h -0.4 -4.8 v 1.45 l -0.1,3.65 v 0.35 l 0.05,1.7 h 6.45 L -6,14.4 -6.1,11.35 -6.05,9.8 -7.25,9.75 m -7.6,-9.3 h -1.75 -0.35 -1.9 -0.2 -0.4 -1.15 V 1.9 l -0.1,3.95 0.05,1.8 5.85,-0.05 V 5.85 h 0.05 l -0.15,-3.8 0.05,-1.6 m -4.2,9.3 h -0.4 -1.15 v 1.45 l -0.1,3.6 v 0.4 l 0.05,1.75 5.8,-0.05 0.05,-1.7 v -0.15 l -0.1,-3.7 0.05,-1.6 h -1.75 -0.35 -1.9 -0.2 m 0.2,9.3 h -0.2 -0.15 -0.05 -0.2 -1.15 v 1.45 l -0.1,3.55 0.05,2.2 5.8,-0.05 0.05,-1.9 -0.1,-3.65 0.05,-1.6 h -1.75 -0.15 -0.05 -0.15 -1.9 m 6.3,5 0.05,2.15 h 6.45 l 0.05,-2.5 -0.1,-3.05 0.05,-1.55 -6.4,-0.05 v 1.45 l -0.1,3.55 m -10.5,-22 0.05,-1.6 -6.2,-0.05 v 1.5 l -0.1,3.95 0.05,1.8 h 2.6 3.7 v -1.8 h 0.05 l -0.15,-3.8 m -6.15,9.15 -0.1,3.6 v 0.4 l 0.05,1.75 h 2.6 3.65 l 0.05,-1.75 v -0.15 l -0.1,-3.7 0.05,-1.6 -6.2,-0.05 v 1.5 m 0,9.3 -0.1,3.55 0.05,2.2 h 2.6 3.65 l 0.05,-1.95 -0.1,-3.65 0.05,-1.6 -6.2,-0.05 v 1.5 m 6.2,7.85 -3.65,-0.05 -2.55,-0.05 v 1.15 l -0.1,4 0.05,1.75 h 2.6 3.7 V 33.4 h 0.05 l -0.15,-3.85 0.05,-1.2 m 2.4,1.05 -0.1,4 0.05,1.75 5.85,-0.05 v -1.7 h 0.05 l -0.15,-3.85 0.05,-1.2 h -1.75 -0.35 -1.9 -0.2 -0.4 -1.15 v 1.05 m -2.4,7.85 -6.2,-0.05 v 1.5 l -0.1,3.65 v 0.35 l 0.05,1.75 h 2.6 3.65 l 0.05,-1.75 v -0.15 l -0.1,-3.7 0.05,-1.6 m 2.3,5.45 0.05,1.75 5.8,-0.05 0.05,-1.7 v -0.15 l -0.1,-3.7 0.05,-1.6 h -1.75 -0.35 -1.9 -0.2 -0.4 -1.15 v 1.45 l -0.1,3.65 v 0.35 m -8.5,5.3 q 0,3.8 -0.35,5.75 h 2.9 3.85 V 53.4 l -0.25,-5.25 0.05,-1.6 -6.2,-0.05 V 48 m 8.6,0 q 0,3.8 -0.35,5.75 l 6.35,-0.05 -0.3,-5.55 0.05,-1.6 h -1.75 -0.15 -0.05 -0.15 -1.9 -0.2 -0.15 -0.05 -0.2 -1.15 V 48 M -6.05,28.4 h -6.4 v 1 l -0.1,4 0.05,1.7 h 6.45 L -6,32.6 -6.1,29.55 -6.05,28.4 m -6.4,8.85 v 1.45 l -0.1,3.7 v 0.3 l 0.05,1.7 h 6.45 L -6,41.9 -6.1,38.85 -6.05,37.3 -7.25,37.25 h -0.4 -4.8 m 0,10.75 q 0,3.2 -0.25,5.15 v 0.55 h 6.65 L -6,51.2 -6.1,48.15 -6.05,46.6 -12.45,46.55 V 48"
         fill="#c2c2c2"
         fill-rule="evenodd"
         stroke="none"
         id="path7" />
    </g>
    <g
       id="sprite1"
       transform="translate(15.85,35.75)">
      <use
         ffdec:characterId="2630"
         height="71.5"
         transform="translate(-15.85,-35.75)"
         width="31.700001"
         xlink:href="#shape1"
         id="use7" />
    </g>
    <g
       id="shape1"
       transform="translate(15.85,35.75)">
      <path
         d="m 3.15,-34 -0.55,-0.35 -0.6,0.5 0.05,0.25 0.05,2.05 v 0.2 h 0.1 v -0.05 h 0.35 0.3 0.2 v 0.05 H 3.1 v -0.2 l 0.05,-1.9 V -33.6 L 3.2,-33.85 3.15,-34 m -7.55,6.5 v -0.05 q 0,-0.75 1.2,-2.1 1.45,-1.45 3.15,-1.55 H 0.5 l 0.15,-0.05 -0.2,-2 0.05,-0.5 v -0.1 q 0,-1.4 0.85,-1.9 H 3.9 q 0.8,0.5 0.8,1.9 v 0.1 l 0.1,0.5 -0.2,2 0.1,0.05 h 0.45 q 1.75,0.1 3.15,1.55 l 0.45,0.6 q 0.75,0.9 0.75,1.5 v 0.2 l 0.9,0.55 q 1.35,1.1 1.35,2.75 l 0.05,0.7 v 0.1 0.3 l -0.05,1 -0.1,0.55 -0.35,1.5 q -0.75,1.05 -2.55,1.4 L 6.5,-18.35 H 5.15 4.95 l -0.2,35.4 q 2.6,-0.05 4.5,1.5 1.35,1.15 2,2.85 4.6,-0.1 4.6,2.85 l -0.05,0.7 -0.85,0.75 H 11.5 l -1.05,2.45 q -2,3.5 -6.4,3.5 l -2.25,-0.2 -0.3,1.4 q -0.8,2.9 -2.9,2.9 -4.15,0 -5.65,-3.6 -0.75,-1.8 -0.7,-3.75 L -6.1,23.55 Q -5.95,22.3 -5.95,20.6 V 20.1 L -6.9,19.75 Q -7.15,19.55 -7,19.3 l -0.2,-1.6 0.1,-0.95 q -0.85,-0.4 -1.15,-1.1 L -8.3,14 v -0.75 q 0.15,-0.6 0.7,-0.6 0.25,0 0.45,0.2 l -0.1,-0.9 Q -7.1,10 -8.1,10 q -1.1,0 -1.55,0.35 -0.4,0.35 -1.85,0.35 -2.65,0 -3.75,-3.15 -0.55,-1.6 -0.6,-3.2 0,-2.8 2.15,-4.2 1.95,-1.35 4.7,-0.95 2.8,0.45 4.65,2.5 2.15,2.35 2.15,6 l -0.35,5.05 V 12.8 L -2,12.7 V 11.95 Q -2,9.2 0.35,9.2 H 0.5 L 0.3,-18.35 H -0.05 -1.3 q -3.85,0 -5,-1.55 l -0.35,-1.5 -0.1,-0.55 H -6.8 v -0.5 -0.1 l 0.05,-0.8 v -0.7 q 0,-1.2 0.8,-2.1 l 0.65,-0.65 0.9,-0.55 v -0.15 m 6.2,-0.8 0.8,0.1 1.4,-0.1 1.15,0.05 2.6,0.3 -0.05,-0.15 q -1.05,-1 -2.55,-1.35 L 3.2,-29.6 H 3.15 3.05 v 0.15 H 2.9 l -0.25,-0.1 -0.35,0.1 H 2.2 V -29.6 H 2.05 1.9 l -1.95,0.2 -0.2,0.05 q -1.3,0.3 -2.25,1.25 l -0.1,0.15 2.45,-0.3 h 0.1 l 1.3,-0.05 H 1.8 m -3.1,2.85 0.55,-0.1 0.7,-0.2 1.2,-0.05 1.45,0.2 1.5,-0.2 1.05,0.05 0.75,0.2 2.85,0.65 2,1.15 q -0.2,-1.45 -2,-2.2 -1.35,-0.6 -3.6,-0.75 l -2.1,-0.1 H 2.3 2.2 l -1.1,0.05 -1.15,0.05 -0.45,0.05 -0.95,0.15 -1.4,0.3 q -2.6,0.75 -2.85,2.45 0.9,-0.9 3.05,-1.45 l 1.35,-0.25 m -3.95,3.7 q 0.1,0.95 1.55,1.3 l 3.65,0.3 0.95,0.05 1.75,0.05 H 2.9 3.05 l 2.1,-0.1 3.6,-0.3 h 0.1 q 1.45,-0.35 1.45,-1.45 v -0.05 h -0.05 l -0.3,-0.7 -0.2,-0.3 h -0.4 l -0.6,-0.4 -0.8,-0.35 -0.8,-0.25 -2,-0.4 -2.6,-0.4 -2.6,0.4 -1.15,0.25 -0.8,0.15 q -1.5,0.3 -2.3,1 h -0.4 v 0.05 l -0.45,0.95 H -5.2 -5.25 v 0.05 0.15 M 2.6,-22.25 3,-22.3 q 0.95,0.1 0.95,0.9 0.15,0.85 -0.95,0.85 l -0.4,-0.05 -0.35,0.05 q -1.15,0 -0.95,-0.85 0,-0.8 0.95,-0.9 l 0.35,0.05 m 0,-1.8 0.45,-0.1 q 0.85,0 0.85,0.8 L 3.85,-23 v 0.05 H 3.4 l -0.35,0.05 -0.2,-0.05 H 2.4 l -0.25,0.05 -0.3,-0.05 H 1.45 L 1.4,-23 1.35,-23.35 q 0,-0.8 0.85,-0.8 l 0.4,0.1 m 2.95,3.4 -0.25,-0.1 -0.1,-0.35 0.1,-0.3 h 1.05 v 0.35 L 6.3,-20.7 v 0.05 H 5.55 M 6.25,-21.7 6.1,-21.95 6.05,-22.3 6.1,-22.55 h 0.25 q 0.15,-0.15 0.4,-0.15 l 0.45,0.15 h 0.25 v 0.2 0.35 0.05 q -0.15,0.55 -0.7,0.55 l -0.5,-0.3 m -1.1,-1.05 0.25,0.2 h 0.15 v 0.05 0.2 0.35 H 5.4 l -0.25,0.25 -0.45,0.1 q -0.45,0 -0.7,-0.35 H 3.8 l 0.05,-0.3 -0.05,-0.25 v -0.05 h 0.15 q 0.25,-0.3 0.75,-0.3 l 0.45,0.1 m 0,-0.75 0.05,-0.1 1.05,0.25 h 0.1 l -0.05,0.05 0.1,0.1 -0.05,0.25 H 5.15 L 5.1,-23.1 5.15,-23.5 m 3.1,1.4 0.05,-0.35 H 8.05 L 7.4,-22.6 7.35,-23 7.4,-23.35 h 1.05 l 0.05,0.15 0.05,0.25 -0.1,0.4 h 1.4 l 0.05,0.4 -0.1,0.45 q -0.15,0.65 -0.75,0.65 L 8.75,-21.1 8.5,-21.4 q -0.25,-0.3 -0.25,-0.7 m -8.1,-0.85 H -1.2 l -0.05,-0.25 0.1,-0.1 -0.05,-0.05 h 0.15 l 1,-0.25 H 0 l 0.15,0.5 v 0.15 m 1.1,0.4 h 0.2 v 0.05 l -0.05,0.25 0.05,0.3 H 1.25 Q 1,-21.6 0.5,-21.6 q -0.35,0 -0.55,-0.15 l -0.1,-0.2 H -0.3 l 0.05,-0.3 -0.05,-0.25 v -0.05 h 0.15 l 0.1,-0.15 0.55,-0.15 0.75,0.3 M 2.7,-18.8 H 2.6 L 2.45,-18.75 2,-18.6 v 0.45 14.2 13.5 l 0.65,0.6 0.3,0.5 q 0.25,0.8 0.1,1.65 L 2.6,13.2 2.55,13.25 1.9,13.8 2.05,14.9 2,17.15 2.55,17.25 2.85,16.95 3.2,16.4 V 4.3 -17.45 -18.15 -18.6 L 2.8,-18.75 2.7,-18.8 m -3.25,30.9 0.4,0.4 0.75,0.2 q 0.65,0 0.95,-0.6 L 1.7,11.65 1.4,11 0.85,10.85 0.55,10.8 q -1.15,0 -1.15,1.15 l 0.05,0.15 m 4.25,9.4 0.7,-0.05 1.4,0.3 q 0.75,0.3 0.95,1 l 0.05,0.45 -0.05,0.55 -0.3,0.2 H 6.2 q -0.45,0 -0.7,-0.5 L 5.05,22.95 4.8,22.8 H 3.65 l -0.35,1 Q 3.2,24.35 2.65,24.35 L 2.3,24.3 2.05,24.15 2,23.5 V 23.4 Q 2,21.65 3.7,21.5 M 5.8,21.2 4.25,20.95 H 4.15 Q 3.1,21 2.4,21.4 L 1.7,22 v 0.3 l 0.05,1.65 0.05,2.1 0.65,0.45 q 0.65,0.4 1.55,0.4 2.25,0 3.1,-1.1 0.4,-0.55 0.4,-1.3 L 7.2,22.6 q -0.45,-1 -1.4,-1.4 m -1.1,-1.7 1.4,0.3 1.25,0.8 0.9,1.2 L 9.1,21.65 8.4,20.6 7.9,20.15 Q 6.55,19.05 4.7,18.95 L 4.2,18.9 H 3.95 L 1.9,19.25 H 1.8 L 1.7,20.1 v 0.05 l 0.55,-0.3 1.8,-0.4 H 4.1 L 4.7,19.5 M 9.35,23 8.7,22.95 8.85,23.7 v 0.55 h 2.05 1.8 q 0,-0.75 0.15,-1.15 L 11.55,23.05 9.5,23 H 9.35 M 14.2,24.2 14.15,23.75 13.5,23.1 H 13.45 L 13.6,24 v 0.2 h 0.6 M 8.3,26.7 Q 7.7,27.6 6.45,28.05 L 4.6,28.4 H 4.25 3.8 L 1.85,28.1 1.9,29.3 v 0.05 L 4,29.6 q 2.55,0 4.2,-1.75 0.9,-1 1.25,-2.15 H 8.7 l -0.4,1 m -10.55,-49.3 -0.65,0.15 h -0.25 v 0.35 l -0.2,0.7 -0.65,0.35 q -0.55,0 -0.75,-0.65 l -0.1,-0.45 0.05,-0.4 h 1.45 l -0.05,-0.4 0.05,-0.25 0.05,-0.15 h 1.1 l 0.05,0.35 -0.1,0.4 m -0.05,0.65 v -0.05 -0.35 -0.2 h 0.25 l 0.45,-0.15 0.5,0.15 h 0.3 v 0.25 0.2 0.15 h -0.05 l -0.2,0.25 -0.55,0.3 q -0.55,0 -0.65,-0.55 H -2.3 m 1.2,1.3 v -0.05 l -0.1,-0.35 0.05,-0.35 h 1.1 l 0.05,0.3 -0.05,0.35 -0.25,0.1 H -1.1 M -4.15,5.15 -4.25,4.45 -5,3.2 Q -6.5,1.2 -8.6,1 l -1.8,0.1 q -1.2,0.25 -2,0.7 l 0.25,0.75 0.35,1.1 0.1,0.4 0.6,1.3 0.1,0.2 0.9,1.55 0.25,0.35 L -9.3,8.2 -8.1,8 q 2.75,0 3.05,1.6 l -0.2,2.2 0.95,0.2 h 0.1 l 0.3,0.1 q 0.25,0 0.25,-0.3 L -3.7,10.45 -4.15,5.15 M -13.2,2.3 q -0.95,0.8 -0.95,2.05 0,0.9 0.75,2.4 0.9,1.75 2.15,2 l 0.45,0.05 h 0.1 L -11.3,7.95 -11.4,7.85 -12.35,5.5 -13.15,2.45 -13.2,2.3 M -0.55,13.95 Q -1.35,13.8 -1.7,13.4 l 0.35,2.75 q 0,0.5 -0.25,0.6 l -0.8,0.2 0.2,2.45 q 0,0.5 -0.45,0.65 l -0.7,0.15 v 1.3 q 0,1.7 -1.05,3.45 -1.05,1.75 -1.05,3.35 0,1.4 0.55,2.65 1.05,2.3 3.65,2.3 0.8,0 1.05,-2.55 -1.4,-0.75 -2.3,-2.15 l -1.15,-3.2 q 0,-3.55 2.4,-5.9 l 1,-0.8 -0.2,-4 0.15,-0.15 -0.25,-0.55 m -4.15,1.3 h 0.05 1.05 Q -3,15.05 -2.95,14 L -3.2,14.05 H -4.65 -6.1 -6.8 l 0.4,1.15 h 0.3 l 1.4,0.05 m 0.85,1.8 H -5.1 -5.55 l 0.1,1.45 h 1.5 0.2 q 0.1,-0.35 0.05,-1.15 L -3.75,17.2 v -0.15 h -0.1 m 3.7,5.15 -0.05,-1.8 q -1.6,1.45 -1.6,3.8 0,1.5 0.85,2.9 l 0.9,1.15 v -1.6 q -0.6,-1 -0.6,-2.15 0,-1.3 0.5,-2.3"
         fill="#9a9a9a"
         fill-rule="evenodd"
         stroke="none"
         id="path8" />
      <path
         d="M 2.85,-31.4 H 2.55 2.2 v 0.05 H 2.1 v -0.2 L 2.05,-33.6 2,-33.85 2.6,-34.35 3.15,-34 v 0.4 0.15 l -0.3,2.05 m -0.55,1.95 -0.35,0.9 -0.15,0.25 H 1.25 l -1.3,0.05 h -0.1 l -0.15,-0.65 0.05,-0.45 0.2,-0.05 1.95,-0.2 H 2.05 2.2 v 0.15 h 0.1 m -3.6,4 -1.35,0.25 -0.25,-0.75 0.05,-0.25 1.4,-0.3 0.95,-0.15 v 0.05 l -0.05,0.25 -0.6,0.7 -0.15,0.2 M 2,-3.95 v -14.2 -0.45 l 0.45,-0.15 0.15,-0.05 h 0.1 l 0.05,0.35 0.05,1.05 0.2,5.35 Q 3.1,-9.3 2.35,-4.2 L 2,-3.95 m -1.15,14.8 0.05,0.5 q 0,0.9 -0.9,0.9 L -0.55,12.1 -0.6,11.95 q 0,-1.15 1.15,-1.15 l 0.3,0.05 M 3.7,21.5 4.15,20.95 h 0.1 L 5.8,21.2 v 0.4 0.15 L 4.4,21.45 3.7,21.5 M 1.75,23.95 2,23.5 2.05,24.15 2.3,24.3 2.65,24.35 q 0.55,0 0.65,-0.55 l 0.35,-1 H 4.8 L 5.05,22.95 2.45,26.5 1.8,26.05 1.75,23.95 M 8.85,23.7 Q 8.95,23.3 9.35,23 H 9.5 l 2.05,0.05 V 23.1 L 10.9,24.25 H 8.85 V 23.7 M -11.8,3.65 q 0.35,-0.55 1.15,-0.8 L -9.8,2.7 -7.55,3.05 q 2.25,0.75 3.4,2.1 L -3.7,10.45 -4.15,10.8 -4.5,10.1 -4.95,9.1 -5.75,7 Q -6.85,4.35 -8.25,4.35 -9,4.35 -10.05,5 l -0.95,0.55 -0.1,-0.2 -0.6,-1.3 -0.1,-0.4 m 7.1,11.6 -1.4,-0.05 -0.05,-0.8 0.05,-0.35 h 1.45 v 0.4 L -4.7,15.1 v 0.15 m 0.85,2 v 0.2 l -0.1,1.05 h -1.5 l -0.1,-1.45 h 0.45 1.25 v 0.2"
         fill="#d2d2d2"
         fill-rule="evenodd"
         stroke="none"
         id="path9" />
      <path
         d="m 3.15,-34 0.05,0.15 -0.05,0.25 V -34 m 0,0.55 -0.05,1.9 v 0.2 H 3.05 v -0.05 h -0.2 l 0.3,-2.05 m -7.55,5.95 v 0.15 l -0.9,0.55 -0.65,0.65 q 0.45,-0.95 1.55,-1.35 m 6.7,-1.95 0.35,-0.1 0.25,0.1 h 0.15 v -0.15 h 0.1 0.05 l 1.95,0.15 q 1.5,0.35 2.55,1.35 l 0.05,0.15 -2.6,-0.3 -1.15,-0.05 -1.4,0.1 -0.8,-0.1 0.15,-0.25 0.35,-0.9 m -2.45,1.2 -2.45,0.3 0.1,-0.15 q 0.95,-0.95 2.25,-1.25 l -0.05,0.45 0.15,0.65 m -0.35,1.6 0.45,-0.05 1.15,-0.05 1.1,-0.05 h 0.1 0.75 l 2.1,0.1 q 2.25,0.15 3.6,0.75 1.8,0.75 2,2.2 l -2,-1.15 -2.85,-0.65 -0.75,-0.2 -1.05,-0.05 -1.5,0.2 -1.45,-0.2 -1.2,0.05 -0.7,0.2 -0.55,0.1 0.15,-0.2 0.6,-0.7 0.05,-0.25 v -0.05 m -2.15,1.45 q -2.15,0.55 -3.05,1.45 0.25,-1.7 2.85,-2.45 l -0.05,0.25 0.25,0.75 M 2,-3.95 2.35,-4.2 Q 3.1,-9.3 3,-12.05 L 2.8,-17.4 3.2,-17.45 V 4.3 L 3,3.75 Q 2.35,4.3 2.35,5.35 L 2.75,8.3 2.65,10.15 2,9.55 v -13.5 m 0.85,20.9 -0.3,0.3 L 2,17.15 2.05,14.9 1.9,13.8 2.55,13.25 2.6,13.2 q 0,2.55 0.25,3.75 M -0.55,12.1 0,12.25 q 0.9,0 0.9,-0.9 L 0.85,10.85 1.4,11 1.7,11.65 1.55,12.1 q -0.3,0.6 -0.95,0.6 l -0.75,-0.2 -0.4,-0.4 M 4.15,20.95 3.7,21.5 Q 2,21.65 2,23.4 v 0.1 L 1.75,23.95 1.7,22.3 2.4,21.4 Q 3.1,21 4.15,20.95 m 1.65,0.8 V 21.6 21.2 q 0.95,0.4 1.4,1.4 l 0.3,1.9 q 0,0.75 -0.4,1.3 -0.85,1.1 -3.1,1.1 -0.9,0 -1.55,-0.4 l 2.6,-3.55 0.45,0.5 q 0.25,0.5 0.7,0.5 H 6.45 L 6.75,23.75 6.8,23.2 6.75,22.75 q -0.2,-0.7 -0.95,-1 M 8.85,23.7 8.7,22.95 9.35,23 q -0.4,0.3 -0.5,0.7 m 2.7,-0.65 1.3,0.05 Q 12.7,23.5 12.7,24.25 H 10.9 L 11.55,23.1 V 23.05 M 14.2,24.2 H 13.6 V 24 l -0.15,-0.9 h 0.05 l 0.65,0.65 0.05,0.45 M -5,3.2 l 0.75,1.25 0.1,0.7 Q -5.3,3.8 -7.55,3.05 L -9.8,2.7 -10.65,2.85 q -0.8,0.25 -1.15,0.8 L -12.15,2.55 -12.4,1.8 q 0.8,-0.45 2,-0.7 L -8.6,1 q 1.55,0.6 3.6,2.2 m 1.3,7.25 0.05,1.35 q 0,0.3 -0.25,0.3 L -4.2,12 h -0.1 v -0.2 l -0.2,-1.7 0.35,0.7 0.45,-0.35 M -10.1,7.1 -11,5.55 -10.05,5 q 1.05,-0.65 1.8,-0.65 1.4,0 2.5,2.65 l 0.8,2.1 Q -5.8,7.65 -7.85,7.15 L -10.1,7.1 m 5.45,8.15 H -4.7 V 15.1 l 0.05,0.15 M -6.1,15.2 h -0.3 l -0.4,-1.15 h 0.7 l -0.05,0.35 0.05,0.8 m 2.25,2.05 v -0.2 h 0.1 v 0.15 l 0.05,0.15 -0.15,-0.1"
         fill="#c2c2c2"
         fill-rule="evenodd"
         stroke="none"
         id="path10" />
      <path
         d="m -5.2,-21.95 h 0.05 l 0.45,-0.95 v -0.05 h 0.4 q 0.8,-0.7 2.3,-1 l 0.8,-0.15 1.15,-0.25 2.6,-0.4 2.6,0.4 2,0.4 0.8,0.25 0.8,0.35 0.6,0.4 h 0.4 l 0.2,0.3 0.3,0.7 h 0.05 v 0.05 q 0,1.1 -1.45,1.45 h -0.1 l -3.6,0.3 -2.1,0.1 H 2.9 2.65 l -1.75,-0.05 -0.95,-0.05 -3.65,-0.3 q -1.45,-0.35 -1.55,-1.3 l 0.05,-0.2 M 8.25,-22.1 q 0,0.4 0.25,0.7 l 0.25,0.3 0.3,0.05 q 0.6,0 0.75,-0.65 l 0.1,-0.45 -0.05,-0.4 h -1.4 l 0.1,-0.4 L 8.5,-23.2 8.45,-23.35 H 7.4 l -0.05,0.35 0.05,0.4 0.65,0.15 H 8.3 l -0.05,0.35 m -3.1,-1.4 -0.05,0.4 0.05,0.15 h 1.2 L 6.4,-23.2 6.3,-23.3 6.35,-23.35 H 6.25 L 5.2,-23.6 5.15,-23.5 m 0,0.75 -0.45,-0.1 q -0.5,0 -0.75,0.3 H 3.8 v 0.05 l 0.05,0.25 -0.05,0.3 H 4 q 0.25,0.35 0.7,0.35 l 0.45,-0.1 0.25,-0.25 h 0.15 v -0.35 -0.2 -0.05 H 5.4 l -0.25,-0.2 m 1.1,1.05 0.5,0.3 q 0.55,0 0.7,-0.55 v -0.05 -0.35 -0.2 H 7.2 L 6.75,-22.7 q -0.25,0 -0.4,0.15 H 6.1 l -0.05,0.25 0.05,0.35 0.15,0.25 m -0.7,1.05 H 6.3 v -0.05 l 0.05,-0.35 V -21.4 H 5.3 l -0.1,0.3 0.1,0.35 0.25,0.1 m -2.95,-3.4 -0.4,-0.1 q -0.85,0 -0.85,0.8 l 0.05,0.35 0.05,0.05 h 0.4 l 0.3,0.05 0.25,-0.05 h 0.45 l 0.2,0.05 0.35,-0.05 H 3.85 V -23 l 0.05,-0.35 q 0,-0.8 -0.85,-0.8 l -0.45,0.1 m 0,1.8 -0.35,-0.05 q -0.95,0.1 -0.95,0.9 -0.2,0.85 0.95,0.85 L 2.6,-20.6 3,-20.55 q 1.1,0 0.95,-0.85 0,-0.8 -0.95,-0.9 l -0.4,0.05 m -1.35,-0.3 -0.75,-0.3 -0.55,0.15 -0.1,0.15 H -0.3 v 0.05 l 0.05,0.25 -0.05,0.3 h 0.15 l 0.1,0.2 q 0.2,0.15 0.55,0.15 0.5,0 0.75,-0.35 h 0.2 l -0.05,-0.3 0.05,-0.25 v -0.05 h -0.2 m -1.1,-0.4 V -23.1 L 0,-23.6 h -0.05 l -1,0.25 H -1.2 l 0.05,0.05 -0.1,0.1 0.05,0.25 h 1.35 m 2.65,5.55 -0.05,-1.05 -0.05,-0.35 0.1,0.05 0.4,0.15 v 0.45 0.7 L 2.8,-17.4 M 3.2,4.3 V 16.4 L 2.85,16.95 Q 2.6,15.75 2.6,13.2 L 3.05,12.3 Q 3.2,11.45 2.95,10.65 L 2.65,10.15 2.75,8.3 2.35,5.35 Q 2.35,4.3 3,3.75 L 3.2,4.3 M 2.4,21.4 1.7,22.3 V 22 L 2.4,21.4 M 4.7,19.5 4.1,19.45 H 4.05 l -1.8,0.4 -0.55,0.3 V 20.1 L 1.8,19.25 H 1.9 L 3.95,18.9 H 4.2 l 0.5,0.05 q 1.85,0.1 3.2,1.2 L 8.4,20.6 9.1,21.65 8.25,21.8 7.35,20.6 6.1,19.8 4.7,19.5 m 3.6,7.2 0.4,-1 H 9.45 Q 9.1,26.85 8.2,27.85 6.55,29.6 4,29.6 L 1.9,29.35 V 29.3 L 1.85,28.1 3.8,28.4 H 4.25 4.6 L 6.45,28.05 Q 7.7,27.6 8.3,26.7 m -9.4,-47.35 h 0.8 l 0.25,-0.1 0.05,-0.35 -0.05,-0.3 h -1.1 l -0.05,0.35 0.1,0.35 v 0.05 m -1.2,-1.3 h 0.05 q 0.1,0.55 0.65,0.55 l 0.55,-0.3 0.2,-0.25 h 0.05 v -0.15 -0.2 -0.25 h -0.3 l -0.5,-0.15 -0.45,0.15 H -2.3 v 0.2 0.35 0.05 m 0.05,-0.65 0.1,-0.4 -0.05,-0.35 h -1.1 l -0.05,0.15 -0.05,0.25 0.05,0.4 H -4.8 l -0.05,0.4 0.1,0.45 q 0.2,0.65 0.75,0.65 l 0.65,-0.35 0.2,-0.7 v -0.35 h 0.25 l 0.65,-0.15 M -4.3,12 -5.25,11.8 -5.05,9.6 Q -5.35,8 -8.1,8 L -9.3,8.2 -9.85,7.45 -10.1,7.1 -7.85,7.15 q 2.05,0.5 2.9,1.95 l 0.45,1 0.2,1.7 V 12 m -8.9,-9.7 0.05,0.15 0.8,3.05 0.95,2.35 0.1,0.1 0.6,0.85 h -0.1 l -0.45,-0.05 q -1.25,-0.25 -2.15,-2 -0.75,-1.5 -0.75,-2.4 0,-1.25 0.95,-2.05 m 8.55,11.75 H -3.2 L -2.95,14 Q -3,15.05 -3.6,15.25 H -4.65 L -4.7,15.1 -4.65,14.45 v -0.4 m 0.7,4.45 0.1,-1.05 v -0.2 l 0.15,0.1 q 0.05,0.8 -0.05,1.15 h -0.2 m 3.8,3.7 q -0.5,1 -0.5,2.3 0,1.15 0.6,2.15 v 1.6 l -0.9,-1.15 q -0.85,-1.4 -0.85,-2.9 0,-2.35 1.6,-3.8 l 0.05,1.8"
         fill="#b6b6b6"
         fill-rule="evenodd"
         stroke="none"
         id="path11" />
    </g>
    <g
       id="sprite2"
       transform="translate(6.55,42.4)">
      <use
         ffdec:characterId="2495"
         height="84.800003"
         transform="translate(-5.8,-42.4)"
         width="11.55"
         xlink:href="#shape2"
         id="use11" />
    </g>
    <g
       id="shape2"
       transform="translate(5.8,42.4)">
      <path
         d="m 1.15,-42.4 0.45,2.25 0.1,2.4 v 79.9 q -0.05,0.25 -0.55,0.25 -0.8,0 -0.6,-5.8 L 0.6,-37.8 0.65,-40.3 Q 0.7,-42 1.15,-42.4 M 5.6,-28.3 V 30 L 5.35,30.65 5.05,30.8 4.5,30.05 v -58.3 q -0.15,-4.2 -0.15,-8.6 0,-4.9 0.7,-4.95 0.7,-0.1 0.7,4.95 L 5.6,-28.3 m -10.75,-12.65 0.45,0.45 v 8.75 l 0.05,0.2 v 13.95 l 0.05,0.15 0.05,32 -0.05,8.05 q -0.1,4.55 -0.55,7.85 -0.65,-1.4 -0.65,-3.9 l 0.05,-4.15 v -7.9 l 0.05,-32.05 0.05,-0.15 v -14 l 0.1,-0.15 v -8.75 l 0.4,-0.35"
         fill="#b5cbd1"
         fill-opacity="0.6"
         fill-rule="evenodd"
         stroke="none"
         id="path12" />
    </g>
    <g
       id="shape3"
       transform="translate(46.35,67.2)">
      <path
         d="m -13.75,-67.05 h 0.45 l 24.65,-0.05 h 0.6 11.35 2.85 l 13.25,-0.05 q 2.2,-0.35 2.2,1.2 l -0.1,0.5 q 0.25,0.7 0.15,1.85 l -0.35,4.85 v 20.7 l 0.05,0.15 v 91.2 h 0.8 v 1.1 l 0.05,0.3 -0.05,0.35 V 62 l -0.05,0.45 0.05,1 0.1,0.45 q 0,0.75 -0.6,1.05 L 36.6,65.4 H 15.3 v 0.05 l -56,-0.05 -5.05,-0.45 q -0.6,-0.3 -0.6,-1.05 l 0.1,-0.45 V 62.65 62 55.05 l -0.05,-0.35 0.05,-0.3 v -1.1 h 0.8 v -91.2 l 0.05,-0.15 v -20.7 l -0.35,-4.85 q -0.1,-1.15 0.15,-1.85 l -0.1,-0.5 q 0,-1.55 2.2,-1.2 l 29.75,0.1 m -1.3,117.7 H 10.8 V 50.6 h 4.5 v 0.05 h 20.5 l -0.15,-1.6 v -2.8 l 0.1,-6.05 V -60.4 l -10.85,0.05 h -0.4 -1.2 -8 v 0.1 h -30.35 v -0.05 l -24.8,-0.1 V 40.2 l 0.1,6.05 v 2.8 l -0.15,1.6 h 24.85 V 50.6 h 2.3 l -2.3,0.05 M -35.1,-61.7 -11.55,-61.75 V -61.8 H 15.3 v 0.05 h 8 1.2 0.4 1.3 v 0.05 h 0.5 1.5 1.4 2.05 6.8 l -0.05,-0.8 -0.05,-1.1 -0.05,-0.35 v -0.5 l -0.4,-0.05 -0.6,-0.05 h -5.45 -2.5 -1.25 -0.7 -62.3 -1.2 -5.2 l -1.1,0.1 -0.05,0.85 -0.1,1.9 h 6.25 1.2 M 38.15,50.65 h 0.7 l -0.2,-88.45 0.05,-0.15 v -20.7 l -0.1,-1 -0.05,-0.75 H 38.3 37.25 l -0.1,0.3 -0.1,0.2 V 40.3 q 0.45,6.4 0.15,9.15 l 0.05,0.3 v 0.35 l -0.1,0.55 h 1 M -41.35,-60.4 h -1.3 l -0.15,1.75 v 20.7 l 0.05,0.15 -0.2,88.45 h 1.7 l -0.1,-0.55 0.05,-0.65 q -0.3,-2.75 0.15,-9.15 V -59.9 l -0.1,-0.2 -0.1,-0.3 m 11.1,40.4 v 1.3 q 0.2,1.8 0.05,5.15 v 14.7 q 0.2,5.3 -0.35,6.75 0,1 -1.15,1 h -1 -0.9 q -1.15,0 -1.15,-1 -0.55,-1.45 -0.35,-6.75 v -14.7 q -0.15,-3.35 0.05,-5.15 V -20 l 0.15,-0.15 v -0.1 q 0,-1.25 2.3,-1.15 2.2,-0.05 2.2,1.15 v 0.1 l 0.15,0.15 m -1.75,4.45 v -1.65 l 0.05,-0.85 v -1.15 l -0.65,0.1 h -0.1 l -0.65,-0.1 v 1.15 l 0.05,0.85 v 0.25 1.15 2.25 l -0.05,0.8 v 0.6 0.25 0.2 0.9 L -33.3,1.15 V 4.8 l -0.2,2.15 h 0.9 0.8 L -32,4.8 v -2 -1.65 -12.2 -0.6 -1.25 -0.65 -2 m -3.6,67.65 -7.35,-0.05 v 1.35 q 1.4,-0.1 3.45,-0.05 l 3.8,0.05 h 1.25 l 15.65,0.05 h 4 2.05 1.2 l 22.9,-0.05 h 0.6 11.35 1.85 1 0.2 1.9 2.8 l 4.35,-0.05 q 2.05,-0.05 3.45,0.05 v -1.2 -0.15 h -0.3 l -7.4,0.05 H 28.2 26.45 25 h -0.1 -0.4 -1.2 -8 v 0.05 H 10.8 V 52.1 h -45.4 -1 m -7.95,1.35 h 0.05 l -0.05,-0.15 v 0.15 m 0,4.7 v 3.7 l -0.05,0.35 v 0.45 H 39.45 V 62.55 62.2 61.85 58.2 56.15 H 35.4 L -11.55,56.1 h -1.2 -0.35 -0.45 -5.25 l -20.7,0.05 h -4.05 v 2 m 83,-4.7 v -0.1 l -0.05,0.1 h 0.05"
         fill="#6b6b6b"
         fill-rule="evenodd"
         stroke="none"
         id="path13" />
      <path
         d="m 26.7,-61.7 h -0.5 v -0.05 h -1.3 -0.4 -1.2 -8 v -0.05 h -26.85 v 0.05 l -23.55,0.05 0.2,-0.45 0.2,-0.75 -0.2,-1.65 h 62.3 l -0.1,0.35 -0.5,2.05 -0.1,0.45 m -63,0 h -6.25 l 0.1,-1.9 0.05,-0.85 1.1,-0.1 h 5.2 l -0.25,2.25 0.05,0.6 m 67.95,0 0.15,-0.1 0.2,-0.3 0.15,-0.7 -0.15,-1.35 -0.15,-0.4 h 5.45 l 0.6,0.05 0.4,0.05 v 0.5 l 0.05,0.35 0.05,1.1 0.05,0.8 h -6.8 m -2.3,-2.85 -0.05,0.15 q -0.15,0.6 -0.15,1.5 0,0.7 0.3,1.1 l 0.15,0.1 h -1.4 v -0.1 l -0.1,-2.55 v -0.2 h 1.25 m 8.8,115.2 h -1 l 0.1,-0.55 V 49.75 L 37.2,49.45 Q 37.5,46.7 37.05,40.3 V -59.9 l 0.1,-0.2 0.1,-0.3 h 1.05 q -0.3,0.65 -0.35,1.6 v 0.05 2.45 l -0.1,60 V 5.05 19.9 l -0.05,0.05 -0.1,15.7 q -0.05,11.5 0.45,15 m -79.5,-111.05 0.1,0.3 0.1,0.2 V 40.3 q -0.45,6.4 -0.15,9.15 l -0.05,0.65 0.1,0.55 h -1.7 l 0.2,-88.45 -0.05,-0.15 v -20.7 l 0.15,-1.75 h 1.3 m 8.05,44.6 v -1.15 -0.25 l -0.05,-0.85 v -1.15 l 0.65,0.1 h 0.1 l 0.65,-0.1 v 1.15 L -32,-17.2 v 1.65 l -0.95,-0.25 h -0.35 m 1.3,2.9 v 1.25 l -0.15,-0.05 -0.5,-0.15 -0.7,-0.05 v -0.25 -0.6 l 0.7,0.05 0.65,-0.2 m 0,1.85 v 12.2 1.65 2 l 0.2,2.15 h -0.8 -0.9 L -33.3,4.8 V 1.15 l -0.05,-11.95 h 0.3 0.25 l 0.75,-0.2 0.05,-0.05 m -3.7,64.45 -3.8,-0.05 q -2.05,-0.05 -3.45,0.05 v -1.35 l 7.35,0.05 -0.1,0.8 v 0.5 m 1.1,-1.3 h 45.4 v 0.05 h 4.5 V 52.1 h 8 1.2 0.4 0.1 v 0.25 q 0,0.7 0.15,1.05 H 23.3 11.95 11.35 l -22.9,0.05 h -1.2 -2.05 -4 l -15.65,-0.05 0.05,-0.5 -0.2,-0.8 m 61.05,0 h 1.75 l -0.1,0.6 0.15,0.7 h -1.9 l 0.15,-1 -0.05,-0.3 m 4.7,0 7.4,-0.05 0.2,0.15 h 0.1 v 1.2 q -1.4,-0.1 -3.45,-0.05 l -4.35,0.05 0.05,-0.1 0.1,-0.7 -0.05,-0.5"
         fill="#bfbfbf"
         fill-rule="evenodd"
         stroke="none"
         id="path14" />
      <path
         d="m 26.7,-61.7 0.1,-0.45 0.5,-2.05 0.1,-0.35 h 0.7 v 0.2 l 0.1,2.55 v 0.1 h -1.5 m -61.6,-2.85 0.2,1.65 -0.2,0.75 -0.2,0.45 h -1.2 l -0.05,-0.6 0.25,-2.25 h 1.2 m 66.75,0 0.15,0.4 0.15,1.35 -0.15,0.7 -0.2,0.3 -0.15,0.1 H 29.6 l -0.15,-0.1 q -0.3,-0.4 -0.3,-1.1 0,-0.9 0.15,-1.5 l 0.05,-0.15 h 2.5 m 6.45,4.15 h 0.25 l 0.05,0.75 0.1,1 v 20.7 l -0.05,0.15 0.2,88.45 h -0.7 q -0.5,-3.5 -0.45,-15 l 0.1,-15.7 0.05,-0.05 V 5.05 3.7 l 0.1,-60 v -2.45 -0.05 q 0.05,-0.95 0.35,-1.6 m -71.6,44.6 h 0.35 l 0.95,0.25 v 2 0.65 l -0.65,0.2 -0.7,-0.05 0.05,-0.8 v -2.25 m 1.3,4.15 v 0.6 l -0.05,0.05 -0.75,0.2 h -0.25 -0.3 v -0.9 -0.2 l 0.7,0.05 0.5,0.15 0.15,0.05 m -3.6,63.75 h 1 l 0.2,0.8 -0.05,0.5 h -1.25 v -0.5 l 0.1,-0.8 m 60.6,0 h 1.45 l 0.05,0.3 -0.15,1 h -0.2 -1 Q 25,53.05 25,52.35 V 52.1 m 3.2,0 h 2.95 l 0.05,0.5 -0.1,0.7 -0.05,0.1 h -2.8 l -0.15,-0.7 0.1,-0.6 m 10.35,-0.05 h 0.3 v 0.15 h -0.1 l -0.2,-0.15 m 0.9,6.15 -0.5,0.05 -82,0.05 -0.5,-0.15 v -2 h 4.05 l 20.7,-0.05 h 5.25 0.45 0.35 1.2 l 46.95,0.05 h 4.05 v 2.05"
         fill="#ffffff"
         fill-rule="evenodd"
         stroke="none"
         id="path15" />
      <path
         d="m -43.55,58.15 0.5,0.15 82,-0.05 0.5,-0.05 v 3.65 0.35 0.35 0.1 H -43.6 V 62.2 l 0.05,-0.35 v -3.7"
         fill="#d4d4d4"
         fill-rule="evenodd"
         stroke="none"
         id="path16" />
    </g>
    <g
       id="sprite3"
       transform="translate(5.4,4)">
      <use
         ffdec:characterId="43"
         height="8"
         transform="translate(-5.4,-4)"
         width="10.8"
         xlink:href="#shape4"
         id="use16" />
    </g>
    <g
       id="shape4"
       transform="translate(5.4,4)">
      <path
         d="m 2.9,-0.35 q 0,-1.25 1.25,-1.25 1.25,0 1.25,1.2 0,1.3 -1.25,1.3 Q 3.6,0.9 3.25,0.5 2.9,0.15 2.9,-0.35 m 0.35,-2.3 q 0,0.55 -0.35,0.9 -0.4,0.45 -1,0.45 -1.35,0 -1.35,-1.4 0,-1.3 1.35,-1.3 1.35,0 1.35,1.35 m -3.1,1.9 h 0.2 q 2.6,0.1 2.6,2.8 l -0.3,1 Q 2.05,4 0.45,4 H 0.35 0.15 0.1 -0.45 q -1.6,0 -2.2,-0.95 l -0.3,-1 q 0,-2.8 2.8,-2.8 h 0.3 M -1.55,-4 q 1.35,0 1.35,1.35 0,0.55 -0.4,0.9 -0.4,0.45 -0.95,0.45 -1.4,0 -1.4,-1.4 0,-1.3 1.4,-1.3 m -2.6,2.4 q 1.25,0 1.25,1.25 0,0.5 -0.35,0.85 -0.35,0.4 -0.9,0.4 -1.25,0 -1.25,-1.3 0,-1.2 1.25,-1.2"
         fill="#6b6b6b"
         fill-rule="evenodd"
         stroke="none"
         id="path17" />
    </g>
  </defs>
</svg>
