<?xml version="1.0" encoding="UTF-8" standalone="no"?>
<svg
   ffdec:objectType="frame"
   height="42.253334"
   width="27.700001"
   version="1.1"
   id="svg7"
   sodipodi:docname="2.svg"
   xmlns:inkscape="http://www.inkscape.org/namespaces/inkscape"
   xmlns:sodipodi="http://sodipodi.sourceforge.net/DTD/sodipodi-0.dtd"
   xmlns:xlink="http://www.w3.org/1999/xlink"
   xmlns="http://www.w3.org/2000/svg"
   xmlns:svg="http://www.w3.org/2000/svg"
   xmlns:ffdec="https://www.free-decompiler.com/flash">
  <sodipodi:namedview
     id="namedview7"
     pagecolor="#ffffff"
     bordercolor="#000000"
     borderopacity="0.25"
     inkscape:showpageshadow="2"
     inkscape:pageopacity="0.0"
     inkscape:pagecheckerboard="0"
     inkscape:deskcolor="#d1d1d1"
     fit-margin-top="5"
     fit-margin-left="5"
     fit-margin-right="5"
     fit-margin-bottom="5" />
  <g
     transform="translate(10.75,24.253333)"
     id="g2">
    <use
       ffdec:characterId="3774"
       height="42.25"
       transform="translate(-10.75,-24.25)"
       width="27.700001"
       xlink:href="#shape0"
       id="use1" />
    <use
       ffdec:characterId="3500"
       height="8"
       transform="matrix(-0.4853,0.4991,-0.4991,-0.4853,7.5171,-14.4541)"
       width="10.8"
       xlink:href="#sprite0"
       id="use2" />
  </g>
  <defs
     id="defs7">
    <g
       id="shape0"
       transform="translate(10.75,24.25)">
      <path
         d="m 15.25,-20.9 0.3,0.95 q 0,0.95 -1.4,1.05 h -0.2 l -1.4,-1.9 0.3,-0.2 1.2,-0.5 q 0.8,0 1.2,0.6 m -10.1,-1.85 q 1,0 1.65,1.15 l 0.15,0.35 -0.85,0.7 -0.8,1.1 -0.4,-0.1 Q 3.35,-20 3.35,-20.8 l 0.25,-1 q 0.45,-0.95 1.55,-0.95 m 5.15,6.05 0.05,-0.2 -0.5,-1.05 0.7,-0.65 q 0,-0.45 -1.15,0 -0.8,-1.2 -0.8,-0.15 l 0.1,0.45 q -1,0.5 -1,0.9 v 0.25 q 0.1,0.2 0.4,0.2 l 1.05,-0.55 q 0.5,0.75 0.95,0.85 l 0.2,-0.05 m 2.8,0.45 q -1.1,0.1 -1.1,1.4 l 0.25,0.75 0.05,0.05 h -1.65 q -2,0.05 -3.15,-1.2 -0.9,-0.9 -0.9,-1.95 0,-0.6 0.75,-1.65 0.8,-1.3 1.7,-1.3 1.65,-0.65 3.1,1.85 l 0.95,2.05"
         fill="#bfbfbf"
         fill-rule="evenodd"
         stroke="none"
         id="path2" />
      <path
         d="m 3.2,-16.55 1.6,-0.6 q 0,1.6 1.05,3 1.3,1.65 3.65,1.9 l -0.1,0.65 q -2.85,0 -2.85,0.9 -0.05,0.85 0.95,0.95 H 7.6 7.7 L 9,-9.85 q -0.5,1.8 -1.55,2.65 -2.6,-1.75 -2.6,-0.45 l 1.1,1.1 h -0.6 q -2.45,0 -3.65,-2 Q 1,-9.8 1,-11.1 l 0.05,-1.55 0.6,-2.05 q 0.4,-1.25 1.55,-1.85"
         fill="#959595"
         fill-rule="evenodd"
         stroke="none"
         id="path3" />
      <path
         d="m 15.25,-20.9 q -0.4,-0.6 -1.2,-0.6 l -1.2,0.5 -0.3,0.2 1.4,1.9 h 0.2 q 1.4,-0.1 1.4,-1.05 l -0.3,-0.95 m -2.95,-1.45 1.9,-0.35 q 2.75,0.2 2.75,2.75 0,0.8 -0.4,1.45 -0.65,0.8 -1.95,1 0.65,1.4 0.65,2.65 l -0.3,1.5 q -0.45,0.9 -1.75,1.1 h -1.95 v 0.75 l 1.15,0.15 h 0.2 l 0.85,-0.45 q 1.4,-0.7 1.4,0.25 l -1.05,0.85 q 0.7,0.55 0.7,1.05 l -0.45,0.35 -0.85,-0.15 0.15,0.95 -0.05,0.35 -0.4,0.1 q -0.2,0 -0.8,-1.1 l -0.4,-0.85 -0.6,0.05 -0.9,2.25 -1.15,1.6 0.8,0.75 0.05,-0.1 q 0.5,-0.4 1.3,-0.4 l 0.75,0.3 0.15,0.35 -0.8,0.55 -0.2,0.15 q 0.75,0.55 0.75,1.35 l -0.1,0.2 -0.25,0.15 q -0.55,0 -1.2,-0.6 l -0.05,0.55 q -0.25,1 -0.6,1 -0.4,0 -0.9,-2.2 l -1.25,-1.1 -0.95,0.3 -0.1,0.2 0.8,1.25 0.65,1.6 0.05,0.4 v 0.8 L 7.7,1.4 Q 7,3.8 4.95,3.8 3.4,3.8 2.8,2.65 2.45,2 2.45,1.35 2.45,-0.4 4.2,-0.4 l 0.65,0.3 0.1,0.35 q 0,0.8 -0.6,0.8 L 3.75,0.8 3.5,1.25 q 0,0.3 0.35,0.65 0.45,0.45 1,0.45 0.65,0 1.1,-1.2 L 6.25,-0.2 V -0.6 L 5.95,-1.8 5.45,-2.65 Q 4.6,-3.75 4.6,-4.45 L 4.65,-4.8 q -3.2,-0.25 -4.6,-2.85 -0.85,-1.6 -0.85,-3.45 0,-5.05 3.25,-7.1 l 0.35,-0.2 -0.6,-0.7 q -0.65,-0.95 -0.65,-1.7 0,-3.3 3.25,-3.45 1.25,-0.05 2.15,0.65 0.95,0.7 1,1.9 l 3.5,0.15 q 0.1,-0.45 0.85,-0.8 m 0.8,6.1 -0.95,-2.05 q -1.45,-2.5 -3.1,-1.85 -0.9,0 -1.7,1.3 -0.75,1.05 -0.75,1.65 0,1.05 0.9,1.95 1.15,1.25 3.15,1.2 H 12.3 L 12.25,-14.1 12,-14.85 q 0,-1.3 1.1,-1.4 m -2.8,-0.45 -0.2,0.05 q -0.45,-0.1 -0.95,-0.85 l -1.05,0.55 q -0.3,0 -0.4,-0.2 v -0.25 q 0,-0.4 1,-0.9 l -0.1,-0.45 q 0,-1.05 0.8,0.15 1.15,-0.45 1.15,0 l -0.7,0.65 0.5,1.05 -0.05,0.2 m -5.15,-6.05 q -1.1,0 -1.55,0.95 l -0.25,1 q 0,0.8 1.55,1.25 l 0.4,0.1 0.8,-1.1 0.85,-0.7 -0.15,-0.35 q -0.65,-1.15 -1.65,-1.15 m -1.95,6.2 q -1.15,0.6 -1.55,1.85 L 1.05,-12.65 1,-11.1 q 0,1.3 0.7,2.55 1.2,2 3.65,2 h 0.6 l -1.1,-1.1 q 0,-1.3 2.6,0.45 Q 8.5,-8.05 9,-9.85 l -1.3,0.1 H 7.6 7.5 q -1,-0.1 -0.95,-0.95 0,-0.9 2.85,-0.9 l 0.1,-0.65 q -2.35,-0.25 -3.65,-1.9 -1.05,-1.4 -1.05,-3 l -1.6,0.6"
         fill="#6b6b6b"
         fill-rule="evenodd"
         stroke="none"
         id="path4" />
      <path
         d="m 0.95,-15.15 v 4.7 H 7.7 q 0.45,0 0.7,0.35 l 0.15,0.2 H 8.7 q 2.1,0 2.1,1.15 L 10.55,-8.1 Q 10.1,-7.7 8.7,-7.7 L 4.3,-8.05 Q 4.05,-8.2 4,-8.7 H 0.95 v 7.35 l 0.3,-0.05 q 0.8,0 0.8,1.3 V 0.1 0.25 L 2,0.7 Q 1.8,1.45 1.15,1.45 L 0.95,1.4 v 5.1 l 0.15,5.9 q -0.05,1.5 0.15,2.4 h 1.4 l 3.7,0.05 q 0.4,-0.05 0.7,0.3 L 7.3,15.8 v 0.1 h 1.5 q 1.05,0.25 1.05,1.05 0,0.8 -1.05,1.05 H -9.1 q -1.1,-0.25 -1.1,-1.05 0,-0.8 1.1,-1.05 h 1.5 v -0.1 l 0.25,-0.65 q 0.3,-0.35 0.7,-0.3 l 3.7,-0.05 h 1.4 q 0.2,-0.9 0.15,-2.4 L -1.25,6.5 V 1 L -1.5,0.9 -3.85,0.95 v 0.2 L -4.2,1.8 -4.85,2.05 H -5 l -0.1,8.8 0.05,0.2 -0.05,0.25 v 0.2 h -0.05 q -0.4,2.3 -2.65,2.3 -1.55,0 -2,-1.9 V 11.2 H -9.85 V 11.05 L -9.95,10 -9.8,9.3 -9.7,2.05 -10.15,2 V 1.7 q -0.6,-0.2 -0.6,-0.7 0,-0.45 0.5,-0.65 L -10.1,0.3 V 0.1 h 0.4 l 0.05,-2.35 q -0.85,-0.25 -0.9,-0.95 0.05,-0.75 1.05,-0.9 l 4.45,0.1 q 1.05,0.2 1.05,0.9 0,0.75 -0.95,0.9 v 1.45 l 0.55,-0.05 1.25,-0.15 1.9,0.15 V -8 l -0.4,0.1 q -0.55,0 -0.8,-0.7 L -2.5,-9.35 q 0,-1.2 1.1,-1.6 h 0.15 v -4.2 l 0.1,-2.1 q 0.25,-1 1,-0.7 0.7,-0.25 1,0.7 l 0.1,2.1 M -6.4,-2.2 h -1.8 v 2.3 h 1.8 V -2.2 M -7.7,2 -7.2,2.15 H -8 -8.2 l -0.15,9.35 q 0.25,0.9 0.9,0.9 0.5,0 0.75,-0.55 v -0.1 -0.25 h 0.15 L -6.45,2 h -0.1 -1.15"
         fill="#6b6b6b"
         fill-rule="evenodd"
         stroke="none"
         id="path5" />
      <path
         d="m -6.4,-2.2 v 2.3 h -1.8 v -2.3 h 1.8 M -7.7,2 h 1.15 0.1 l -0.1,9.5 H -6.7 v 0.25 0.1 q -0.25,0.55 -0.75,0.55 -0.65,0 -0.9,-0.9 L -8.2,2.15 H -8 -7.2 L -7.7,2"
         fill="#e2e2e2"
         fill-opacity="0.301961"
         fill-rule="evenodd"
         stroke="none"
         id="path6" />
    </g>
    <g
       id="sprite0"
       transform="translate(5.4,4)">
      <use
         ffdec:characterId="43"
         height="8"
         transform="translate(-5.4,-4)"
         width="10.8"
         xlink:href="#shape1"
         id="use6" />
    </g>
    <g
       id="shape1"
       transform="translate(5.4,4)">
      <path
         d="m 2.9,-0.35 q 0,-1.25 1.25,-1.25 1.25,0 1.25,1.2 0,1.3 -1.25,1.3 Q 3.6,0.9 3.25,0.5 2.9,0.15 2.9,-0.35 m 0.35,-2.3 q 0,0.55 -0.35,0.9 -0.4,0.45 -1,0.45 -1.35,0 -1.35,-1.4 0,-1.3 1.35,-1.3 1.35,0 1.35,1.35 m -3.1,1.9 h 0.2 q 2.6,0.1 2.6,2.8 l -0.3,1 Q 2.05,4 0.45,4 H 0.35 0.15 0.1 -0.45 q -1.6,0 -2.2,-0.95 l -0.3,-1 q 0,-2.8 2.8,-2.8 h 0.3 M -1.55,-4 q 1.35,0 1.35,1.35 0,0.55 -0.4,0.9 -0.4,0.45 -0.95,0.45 -1.4,0 -1.4,-1.4 0,-1.3 1.4,-1.3 m -2.6,2.4 q 1.25,0 1.25,1.25 0,0.5 -0.35,0.85 -0.35,0.4 -0.9,0.4 -1.25,0 -1.25,-1.3 0,-1.2 1.25,-1.2"
         fill="#6b6b6b"
         fill-rule="evenodd"
         stroke="none"
         id="path7" />
    </g>
  </defs>
</svg>
