<?xml version="1.0" encoding="UTF-8" standalone="no"?>
<svg
   ffdec:objectType="frame"
   height="33.150002"
   width="27.525"
   version="1.1"
   id="svg6"
   sodipodi:docname="1.svg"
   xmlns:inkscape="http://www.inkscape.org/namespaces/inkscape"
   xmlns:sodipodi="http://sodipodi.sourceforge.net/DTD/sodipodi-0.dtd"
   xmlns:xlink="http://www.w3.org/1999/xlink"
   xmlns="http://www.w3.org/2000/svg"
   xmlns:svg="http://www.w3.org/2000/svg"
   xmlns:ffdec="https://www.free-decompiler.com/flash">
  <sodipodi:namedview
     id="namedview6"
     pagecolor="#ffffff"
     bordercolor="#000000"
     borderopacity="0.25"
     inkscape:showpageshadow="2"
     inkscape:pageopacity="0.0"
     inkscape:pagecheckerboard="0"
     inkscape:deskcolor="#d1d1d1"
     fit-margin-top="5"
     fit-margin-left="5"
     fit-margin-right="5"
     fit-margin-bottom="5" />
  <g
     transform="translate(13.75,16.75)"
     id="g1">
    <use
       ffdec:characterId="2190"
       height="33.150002"
       transform="translate(-13.75,-16.75)"
       width="27.5"
       xlink:href="#shape0"
       id="use1" />
  </g>
  <defs
     id="defs6">
    <g
       id="shape0"
       transform="translate(13.75,16.75)">
      <path
         d="m 7.65,-12.55 q 2.2,2.65 2.2,5.25 L 9.8,-5.8 q -0.4,2.25 -1.75,4.5 l -0.35,0.6 3.5,-0.65 q 1.85,-0.7 2.35,0.5 0.3,0.55 0.2,1.3 L 13.5,2.1 Q 12.95,3.55 10.65,3 10.45,3.9 9.65,4.7 9.1,5.2 8.4,5.35 9.2,6.1 9.2,7.5 L 9,8.8 Q 8.75,9.05 8.75,10.15 l -0.1,1.15 -0.2,0.15 Q 7.75,9.95 7.75,8.9 L 8.15,7.75 Q 8.15,7.1 7.4,6.8 l 0.1,1.05 -0.2,2.9 v 3 Q 7.15,16.1 6.25,16.4 H -7.35 L -7.55,16 v -0.6 l 0.1,-1.3 -0.1,-0.85 v -2.9 -2.9 l 0.25,-1.3 q -1.6,0.65 -1.95,1.25 1.6,0.45 1.6,1.55 0,0.6 -0.4,0.9 l -2.35,0.55 0.3,0.35 h 1.2 q 0.3,0.1 0.45,0.55 l 0.15,0.55 q 0,0.6 -0.7,1.4 -0.7,0.7 -0.45,1.6 0.1,0.25 -0.25,0.25 -0.7,0 -0.9,-0.55 V 13.8 l 0.3,-0.7 0.95,-1.1 V 11.75 L -11.5,11.2 v -0.6 q 0,-0.6 0.55,-0.9 0.65,-0.3 2.5,-0.65 l -1.7,-0.8 -0.25,-0.7 q 0,-0.9 1.3,-1.8 Q -8.55,5.4 -7.95,5.2 L -8.95,4 -9.9,2.4 q 0,-0.4 0.45,-0.7 l -1.3,-0.8 q -3,-2.25 -3,-5.35 l 0.05,-1.35 q 0.1,-3.7 0.95,-5.4 1.8,-3.95 7.95,-5.5 h 1.45 v -0.05 h 0.15 v 0.05 h 3.65 q 4.5,0.8 7.2,4.15 M 4.6,-12.5 Q 2.5,-14.2 0,-14.45 l -4.55,0.05 q -3.25,0.7 -5.3,2.85 l -0.05,0.1 q -1.7,1.8 -1.7,3.6 l 0.1,2.05 0.05,0.45 0.15,-0.45 0.5,-1.85 q 0.95,-3.15 2.25,-3.15 0.35,0 0.45,2.45 l 0.15,2.55 0.3,1.55 q 0.35,-0.5 0.55,-1.55 l 0.2,-2.65 q 0.05,-1.95 1.65,-2.55 l 0.45,-0.15 0.55,0.2 q 0.45,0.55 0.5,2.25 0.05,1.9 0.45,2.9 l 0.6,0.8 0.05,-0.8 0.25,-2.65 q 0.4,-2.05 1.7,-2.45 l 0.6,-0.1 0.2,0.1 q 0.35,0.4 0.65,2.55 L 1.2,-5.8 1.65,-4.5 2,-5.8 2.35,-7.35 q 0.4,-2 1.55,-2 0.6,0 0.9,1.95 l 0.3,1.6 0.15,1.25 v 0.2 l -0.2,0.15 q -0.7,-0.6 -1,-1.6 l -0.1,-0.35 -0.35,-2 v -0.2 Q 3.4,-7.75 3.15,-5.8 L 3.1,-5.5 q -0.35,1.9 -1.45,1.9 -1.4,0 -1.75,-2.2 L -0.15,-6.1 -0.3,-9.95 h -0.05 q -0.55,0.55 -1.05,3.3 l -0.15,0.85 q -0.4,1.6 -1.1,1.6 -1.65,0 -2.05,-1.6 l -0.1,-0.85 0.15,-3.6 -0.05,-0.05 q -0.4,0.45 -1.1,3.95 l -0.1,0.55 q -0.6,2.35 -1.9,2.35 -1.2,0 -1.3,-2.35 v -0.1 l 0.2,-3.3 h -0.35 q -0.7,1.1 -1.05,2.7 l -0.15,0.7 -0.5,2.4 0.25,0.6 q 2,3.75 7.85,3.75 5.2,0 7.9,-1.85 2.3,-1.7 2.7,-4.9 l 0.1,-1.55 q 0,-1.85 -2.2,-4.15 l -1.05,-1 M 12.55,1.2 V -0.2 Q 8.5,0.1 6.4,1.15 5.35,1.65 4.45,2.7 L 4.25,3.45 Q 4.85,2.75 6.15,2 8.65,0.5 10.3,0.6 L 10.4,0.8 8.5,1.55 Q 7.3,2 6.95,2.95 5.3,3.05 4.9,3.9 L 4.85,4 5.65,4.05 6.45,3.9 8.9,3.5 Q 9.25,3.4 9.45,2.5 9.55,1.85 12.1,1.7 L 12.55,1.2 M 1.05,3.35 1.1,3 h -3.6 l 0.05,0.25 0.2,0.7 V 4.1 H 0.8 L 1.05,3.35 M 4.5,6.8 H -4.9 L -4.8,7.25 4.4,7.3 4.5,6.8 M 1.05,9.65 0.75,9.55 Q 0.9,9.1 2.75,8.2 l 0.8,-0.35 h -8.3 v 1.6 l 0.4,0.65 0.1,0.4 v 0.05 l 0.15,0.15 q 0.35,0.15 0.75,0.5 v 0.1 l -0.55,0.15 -0.4,-0.1 -0.45,0.45 -0.05,0.05 v 0.4 L 4.5,12.4 V 10.75 L 4.4,9.2 H 3.15 l -0.5,-0.05 -1.6,0.5 m 3.45,3.7 -9.3,0.1 v 0.4 l 4.1,-0.2 H 3.8 L 4.5,13.5 V 13.35 M -4.55,4.05 -4.4,3 -7.7,2.5 -8.3,2.7 q 0,0.4 0.75,1.2 l 0.7,0.15 0.25,0.1 0.55,-0.05 h 1.5 V 4.05"
         fill="#6b6b6b"
         fill-rule="evenodd"
         stroke="none"
         id="path1" />
      <path
         d="M 4.5,6.8 4.4,7.3 -4.8,7.25 -4.9,6.8 h 9.4 m 0,6.55 v 0.15 l -0.7,0.15 h -4.5 l -4.1,0.2 v -0.4 l 9.3,-0.1"
         fill="#d4d4d4"
         fill-rule="evenodd"
         stroke="none"
         id="path2" />
      <path
         d="m -9.9,-11.45 0.15,0.1 0.95,0.3 0.5,-0.15 0.45,-0.25 1.45,0.3 1.15,0.15 q -1.6,0.6 -1.65,2.55 l -0.2,2.65 q -0.2,1.05 -0.55,1.55 L -7.95,-5.8 -8.1,-8.35 q -0.1,-2.45 -0.45,-2.45 -1.3,0 -2.25,3.15 l -0.5,1.85 -0.15,0.45 -0.05,-0.45 -0.1,-2.05 q 0,-1.8 1.7,-3.6 m 5.65,0.5 3.05,0.05 h 0.5 q -1.3,0.4 -1.7,2.45 L -2.65,-5.8 -2.7,-5 -3.3,-5.8 q -0.4,-1 -0.45,-2.9 -0.05,-1.7 -0.5,-2.25 m 4.35,0.05 3.8,-0.5 q 0.55,-0.25 0.7,-1.1 l 1.05,1 q 2.2,2.3 2.2,4.15 l -0.1,1.55 q -0.4,3.2 -2.7,4.9 -2.7,1.85 -7.9,1.85 -5.85,0 -7.85,-3.75 l -0.25,-0.6 0.5,-2.4 0.15,-0.7 q 0.35,-1.6 1.05,-2.7 h 0.35 l -0.2,3.3 v 0.1 q 0.1,2.35 1.3,2.35 1.3,0 1.9,-2.35 l 0.1,-0.55 q 0.7,-3.5 1.1,-3.95 l 0.05,0.05 -0.15,3.6 0.1,0.85 q 0.4,1.6 2.05,1.6 0.7,0 1.1,-1.6 l 0.15,-0.85 q 0.5,-2.75 1.05,-3.3 h 0.05 l 0.15,3.85 0.05,0.3 q 0.35,2.2 1.75,2.2 1.1,0 1.45,-1.9 L 3.15,-5.8 Q 3.4,-7.75 3.6,-8.35 v 0.2 l 0.35,2 0.1,0.35 q 0.3,1 1,1.6 l 0.2,-0.15 v -0.2 L 5.1,-5.8 4.8,-7.4 q -0.3,-1.95 -0.9,-1.95 -1.15,0 -1.55,2 L 2,-5.8 1.65,-4.5 1.2,-5.8 0.75,-8.35 Q 0.45,-10.5 0.1,-10.9"
         fill="#a6c2a0"
         fill-rule="evenodd"
         stroke="none"
         id="path3" />
      <path
         d="M 1.05,3.35 0.8,4.1 H -2.25 V 3.95 L -2.45,3.25 -2.5,3 H 1.1 L 1.05,3.35 M 12.55,1.2 12.1,1.7 Q 9.55,1.85 9.45,2.5 9.25,3.4 8.9,3.5 L 6.45,3.9 5.65,4.05 4.85,4 4.9,3.9 Q 5.3,3.05 6.95,2.95 7.3,2 8.5,1.55 L 10.4,0.8 10.3,0.6 Q 8.65,0.5 6.15,2 4.85,2.75 4.25,3.45 L 4.45,2.7 Q 5.35,1.65 6.4,1.15 8.5,0.1 12.55,-0.2 V 1.2 M -4.55,4.05 V 4.1 h -1.5 L -6.6,4.15 -6.85,4.05 -7.55,3.9 Q -8.3,3.1 -8.3,2.7 L -7.7,2.5 -4.4,3 -4.55,4.05"
         fill="#96ab92"
         fill-rule="evenodd"
         stroke="none"
         id="path4" />
      <path
         d="m -9.9,-11.45 0.05,-0.1 q 2.05,-2.15 5.3,-2.85 L 0,-14.45 q 2.5,0.25 4.6,1.95 -0.15,0.85 -0.7,1.1 l -3.8,0.5 -0.2,-0.1 -0.6,0.1 h -0.5 l -3.05,-0.05 -0.55,-0.2 -0.45,0.15 -1.15,-0.15 -1.45,-0.3 -0.45,0.25 -0.5,0.15 -0.95,-0.3 -0.15,-0.1"
         fill="#bad5b4"
         fill-rule="evenodd"
         stroke="none"
         id="path5" />
      <path
         d="m 1.05,9.65 1.6,-0.5 0.5,0.05 H 4.4 l 0.1,1.55 v 1.65 l -9.3,-0.15 v -0.4 l 0.05,-0.05 0.45,-0.45 0.4,0.1 0.55,-0.15 V 11.2 Q -3.75,10.85 -4.1,10.7 L -4.25,10.55 V 10.5 l -0.1,-0.4 -0.4,-0.65 v -1.6 h 8.3 L 2.75,8.2 q -1.85,0.9 -2,1.35 l 0.3,0.1"
         fill="#b4a49d"
         fill-rule="evenodd"
         stroke="none"
         id="path6" />
    </g>
  </defs>
</svg>
