<?xml version="1.0" encoding="UTF-8" standalone="no"?>
<svg
   ffdec:objectType="frame"
   height="95.800003"
   width="77.300003"
   version="1.1"
   id="svg20"
   sodipodi:docname="2.svg"
   xmlns:inkscape="http://www.inkscape.org/namespaces/inkscape"
   xmlns:sodipodi="http://sodipodi.sourceforge.net/DTD/sodipodi-0.dtd"
   xmlns:xlink="http://www.w3.org/1999/xlink"
   xmlns="http://www.w3.org/2000/svg"
   xmlns:svg="http://www.w3.org/2000/svg"
   xmlns:ffdec="https://www.free-decompiler.com/flash">
  <sodipodi:namedview
     id="namedview20"
     pagecolor="#ffffff"
     bordercolor="#000000"
     borderopacity="0.25"
     inkscape:showpageshadow="2"
     inkscape:pageopacity="0.0"
     inkscape:pagecheckerboard="0"
     inkscape:deskcolor="#d1d1d1"
     fit-margin-top="5"
     fit-margin-left="5"
     fit-margin-right="5"
     fit-margin-bottom="5" />
  <g
     transform="translate(38.65,48.85)"
     id="g6">
    <use
       ffdec:characterId="1385"
       height="95.800003"
       transform="translate(-38.65,-48.85)"
       width="77.300003"
       xlink:href="#shape0"
       id="use1" />
    <use
       ffdec:characterId="1379"
       height="14.75"
       transform="matrix(0.7702,0,0,0.7702,-22.9,-4.8609)"
       width="16.1"
       xlink:href="#sprite0"
       id="use2" />
    <use
       ffdec:characterId="1379"
       height="14.75"
       transform="translate(-21.85,7.8)"
       width="16.1"
       xlink:href="#sprite0"
       id="use3" />
    <use
       ffdec:characterId="1379"
       height="14.75"
       transform="matrix(-0.7702,0,0,0.7702,23.6,-4.8609)"
       width="16.1"
       xlink:href="#sprite0"
       id="use4" />
    <use
       ffdec:characterId="1379"
       height="14.75"
       transform="matrix(-1,0,0,1,22.55,7.8)"
       width="16.1"
       xlink:href="#sprite0"
       id="use5" />
    <use
       ffdec:characterId="44"
       height="8"
       transform="matrix(0.7071,0.7071,-0.7071,0.7071,-29.94,27.3534)"
       width="10.8"
       xlink:href="#sprite1"
       id="use6" />
  </g>
  <defs
     id="defs20">
    <g
       id="shape0"
       transform="translate(38.65,48.85)">
      <path
         d="m 2.15,-24.3 q -0.3,-1.1 -0.35,-3.5 l 0.1,-6.85 q -0.1,-1.3 -0.05,-3.9 l 0.1,-1.1 q 0,-4.7 -3.55,-6.3 -1.7,-0.75 -4.15,-0.8 l -1,0.8 -0.45,0.6 -0.15,1.4 0.05,1.15 0.3,0.65 V -42 h 0.15 l 0.1,0.1 h 0.55 l 0.05,-0.1 0.55,-0.05 0.5,0.1 0.25,-0.1 h 0.05 q 0,-1.2 0.6,-1.85 0.8,-0.9 2.35,-0.3 l 1,0.45 -0.8,0.2 q -0.95,0.3 -1.5,0.95 l 0.9,0.05 -0.05,0.15 0.75,0.35 0.55,0.35 0.25,0.25 0.7,1 0.25,0.95 0.25,3.1 -0.5,6.6 -0.6,5.35 q -0.2,1.15 -0.35,1.15 -0.75,0 -0.95,-0.75 l -0.1,-1.15 0.85,-12.95 q 0,-1.2 -1.05,-2.05 l -0.05,0.9 -0.05,0.6 0.05,2.45 -0.45,0.5 -0.05,0.05 v 0.3 l -3.85,0.35 q -2.5,0 -2.95,-2 v -2.65 l 0.3,-4.7 0.55,-1.55 q 1.3,-2.9 4.5,-2.9 4.2,0 6.3,2.9 0.95,1.35 1.5,3.4 0.5,1.8 0.5,7.5 v 5.9 q -0.2,5.8 -1.1,5.8 -0.5,0 -0.8,-0.95 m 6.3,-7.9 -0.9,-0.05 v 0.15 l -0.15,0.85 -0.05,0.3 1.1,0.1 V -32.2 M 5,-28.75 q -0.15,-0.6 0,-1.15 0.2,-0.65 0.8,-0.9 l -0.05,-1.25 q 0,-2.05 1.8,-2.35 1.85,-0.35 2.8,2.6 l 2.7,-1.45 q 2.3,-1.05 3.75,-1.05 1.55,0 1.95,0.6 0.65,0.6 0.65,3.05 l -0.1,1.6 q -0.25,1.25 -1.25,1.65 h -1.9 l -2,-0.15 -2.7,0.5 -0.25,0.1 -0.25,0.85 q -0.3,1.05 -1,1.55 l -0.45,-0.4 q -0.5,0.7 -1.75,0.7 -1.25,0 -1.5,-1 L 6.2,-26.6 Q 5.25,-26.8 5.05,-27.3 L 5,-28.75 m 12.7,-1.1 0.05,-0.25 v -0.25 q -0.1,-2.85 -3.25,-1.15 -1.65,0.9 -3.95,2.45 l -1.7,-0.1 -1.8,-0.15 -0.65,-0.05 0.1,1.35 1.1,0.1 1.25,0.05 0.3,-0.5 0.35,0.35 q 0.45,-0.15 1.15,-0.6 1.15,-0.75 3.15,-0.75 l 3.45,0.25 h 0.3 l 0.1,-0.4 0.05,-0.35 m -22.4,-10.5 -0.25,-0.1 h -2.1 v 0.55 1.15 q 0.05,0.6 0.4,0.85 l 2,0.3 0.35,0.05 v -1.5 l -0.4,-1.3 m 12.95,14.6 0.35,-0.35 v -0.4 H 7.55 v 0.75 h 0.7 m -26.85,-4.9 q 0,-2.45 0.65,-3.05 0.4,-0.6 1.95,-0.6 1.45,0 3.75,1.05 1.9,0.8 2.7,1.45 0.95,-2.95 2.8,-2.6 1.8,0.3 1.8,2.35 L -5,-30.8 q 0.55,0.25 0.75,0.9 0.15,0.55 0,1.15 l -0.05,1.45 q -0.2,0.5 -1.1,0.7 l -0.05,1.35 q -0.25,1 -1.5,1 -1.25,0 -1.75,-0.7 l -0.45,0.4 q -0.7,-0.5 -1,-1.55 l -0.3,-0.85 -0.25,-0.1 -2.65,-0.5 -2,0.15 h -1.95 q -0.95,-0.4 -1.2,-1.65 l -0.1,-1.6 m 2.15,1.55 3.45,-0.25 q 1.95,0 3.15,0.75 l 1.15,0.6 0.35,-0.35 0.3,0.5 1.25,-0.05 1.1,-0.1 0.1,-1.35 -0.65,0.05 -1.8,0.15 -1.7,0.1 -4,-2.45 q -3.15,-1.7 -3.25,1.15 v 0.25 l 0.05,0.25 0.05,0.35 0.1,0.4 h 0.35 m 9.7,-3.15 -0.95,0.05 v 1.35 l 1.15,-0.1 -0.05,-0.3 -0.15,-0.85 v -0.15 m 0,5.75 h -1.1 v 0.4 l 0.35,0.35 h 0.75 v -0.75"
         fill="#999999"
         fill-rule="evenodd"
         stroke="none"
         id="path6" />
      <path
         d="m -0.65,-24.45 0.6,-5.35 0.5,-6.6 -0.25,-3.1 -0.25,-0.95 -0.7,-1 -0.25,-0.25 -0.55,-0.35 -0.75,-0.35 0.05,-0.15 -0.9,-0.05 q 0.55,-0.65 1.5,-0.95 l 0.8,-0.2 -1,-0.45 q -1.55,-0.6 -2.35,0.3 -0.6,0.65 -0.6,1.85 h -0.05 l -0.25,0.1 -0.5,-0.1 -0.55,0.05 -0.05,0.1 H -6.75 L -6.85,-42 H -7 v -0.15 l -0.3,-0.65 -0.05,-1.15 0.15,-1.4 0.45,-0.6 1,-0.8 q 2.45,0.05 4.15,0.8 3.55,1.6 3.55,6.3 l -0.1,1.1 q -0.05,2.6 0.05,3.9 l -0.1,6.85 q 0.05,2.4 0.35,3.5 -0.4,0.35 -1.2,0.35 -1,0 -1.6,-0.5 m 9.1,-7.75 v 1.35 l -1.1,-0.1 0.05,-0.3 0.15,-0.85 v -0.15 l 0.9,0.05 m 8.8,3.1 -3.45,-0.25 q -2,0 -3.15,0.75 -0.7,0.45 -1.15,0.6 l -0.35,-0.35 -0.3,0.5 -1.25,-0.05 -1.1,-0.1 -0.1,-1.35 0.65,0.05 1.8,0.15 1.7,0.1 q 2.3,-1.55 3.95,-2.45 3.15,-1.7 3.25,1.15 v 0.25 l -0.05,0.25 -0.15,0.25 -0.3,0.5 m -9,3.35 H 7.55 V -26.5 H 8.6 v 0.4 l -0.35,0.35 m -12.95,-14.6 0.4,1.3 v 1.5 l -0.35,-0.05 -2,-0.3 q -0.35,-0.25 -0.4,-0.85 v -1.15 -0.55 h 2.1 l 0.25,0.1 m -11.75,11.25 -0.35,-0.5 -0.15,-0.25 -0.05,-0.25 v -0.25 q 0.1,-2.85 3.25,-1.15 l 4,2.45 1.7,-0.1 1.8,-0.15 0.65,-0.05 -0.1,1.35 -1.1,0.1 -1.25,0.05 -0.3,-0.5 -0.35,0.35 -1.15,-0.6 q -1.2,-0.75 -3.15,-0.75 l -3.45,0.25 m 9.7,2.6 v 0.75 H -7.5 l -0.35,-0.35 v -0.4 h 1.1 m 0,-5.75 v 0.15 l 0.15,0.85 0.05,0.3 -1.15,0.1 v -1.35 l 0.95,-0.05"
         fill="#b8b8b8"
         fill-rule="evenodd"
         stroke="none"
         id="path7" />
      <path
         d="m 30.15,-24.95 0.15,0.9 q 0,1.8 -1.7,1.75 l -55.85,-0.05 q -2.1,0.05 -2.8,-0.55 -0.4,-0.4 -0.4,-1.15 -0.05,-0.5 0.3,-0.9 0.75,-0.9 2.9,-0.8 L 28.6,-25.8 q 1.2,0 1.55,0.85"
         fill="#999999"
         fill-rule="evenodd"
         stroke="none"
         id="path8" />
      <path
         d="M -28.9,2.1 V 1.75 l 0.05,-0.3 V 0 q -0.8,-0.1 -0.95,-2.15 V -2.5 h -0.05 v -0.3 l 0.05,-0.6 q 0,-4.35 0.95,-4.7 v -3.25 l 0.25,-1.3 -0.1,-0.4 0.25,-0.65 q 0.35,-0.45 0.95,-0.5 h 6.75 v -0.05 l 1.25,0.05 h 0.4 5.05 5 0.45 l 1.2,-0.05 v 0.05 h 6.75 l 0.25,0.05 v 0.1 l 0.3,0.2 0.15,-0.1 0.4,-0.2 0.25,-0.05 h 6.75 v -0.05 l 1.2,0.05 h 0.45 5 5.05 0.4 l 1.25,-0.05 v 0.05 h 6.75 q 0.6,0.05 0.95,0.5 l 0.25,0.65 -0.1,0.4 0.25,1.3 v 3.25 q 0.95,0.35 0.95,4.7 l 0.05,0.6 v 0.3 l -0.05,0.35 Q 29.7,-0.1 28.9,0 v 1.45 l 0.05,0.3 V 2.1 L 28.9,2.05 V 2.1 15.8 h -0.1 v 0.15 q 0.35,0.05 0.55,0.65 l 0.25,1.55 -0.15,2.95 v 2.6 Q 29.3,25.45 28.8,26 v 3.4 l -1.05,0.9 H 27.7 L 27.3,30.5 11.5,30.45 H 7.45 L 0.95,30.5 0.55,30.3 H 0.45 L 0,30.05 -0.05,30 -0.1,29.9 -0.4,30.2 v 0.1 h -0.1 l -0.4,0.2 -6.5,-0.05 h -4.05 l -15.8,0.05 -0.4,-0.2 h -0.05 l -1.05,-0.9 V 26 q -0.5,-0.55 -0.65,-2.3 v -2.6 l -0.15,-2.95 0.25,-1.55 q 0.2,-0.6 0.55,-0.65 V 15.8 h -0.1 V 2.1 2.05 L -28.9,2.1 M 31.45,-15.95 4.15,-16 0.45,-16.15 0.05,-16.2 H -0.1 l -0.3,0.05 -3.7,0.15 -27.3,0.05 h -2.1 -0.05 v 0.1 V 4 5.65 l 0.05,1.8 0.05,3.85 v 0.4 1.1 h 0.05 l 0.05,3 h 0.05 l 0.1,10.8 0.05,2.45 v 1.6 0.15 0.1 0.65 0.1 5.75 0.1 0.2 0.25 0.4 q 0,0.4 -0.9,1 l 1.1,-0.65 0.6,-0.35 h 1.1 62.45 0.1 1.1 l 0.6,0.35 1.1,0.65 q -0.9,-0.6 -0.9,-1 v -0.4 -0.25 -0.2 -0.1 -5.75 -0.1 -0.75 -0.15 -1.6 l 0.05,-2.45 0.2,-10.8 h 0.05 v -3 -1.1 -0.4 L 33.55,7.45 33.6,5.65 V 4 v -19.85 -0.1 h -0.05 -2.1 M 6.6,-8.55 6.7,-8.45 6.8,-8.5 20,-8.55 h 2.5 l 0.3,-0.2 0.25,0.2 0.7,0.15 v 0.25 l -0.1,0.45 -0.05,0.1 h -0.05 l 0.1,4.2 v 0.9 l 0.1,5.65 0.05,2.5 h 0.05 V 8 10.55 11.3 l 0.05,1.5 h 0.05 l 0.05,3 h 0.05 L 24,17.65 v 0.1 q 0,6.2 -0.45,7.6 l -0.2,0.4 -0.1,0.05 L 22.8,25.65 22.7,25.6 H 22.6 L 9.35,25.65 H 6.4 L 5.65,25.55 5.6,25.5 V 25.25 L 5.7,24.8 5.75,24.7 H 5.8 v -0.05 l -0.05,-7.7 v -0.15 -1 H 5.7 l -0.05,-3 H 5.6 L 5.55,12 V 11.95 11.3 11.05 L 5.45,7.8 V 5.65 H 5.4 L 5.35,3.3 V 3.15 -2.5 l 0.05,-0.9 0.1,-2.95 0.05,-0.5 0.25,-1.4 0.1,-0.25 0.2,-0.15 0.5,0.1 M 3.85,14.95 Q 4.2,15.1 4.4,15.8 h 0.5 v 0.75 0.25 0.15 l -0.05,3.4 Q 4.65,23 4.1,23.6 l -0.35,0.2 q -0.9,0 -1.15,-3.35 L 2.5,16.75 V 15.8 H 2.95 L 3.3,15.1 3.7,14.9 3.85,14.95 M 26.5,-9.85 v -1.75 l 0.05,-0.25 0.1,-0.2 -0.7,0.1 H 25.6 l -1.15,0.1 -3,0.05 H 6.8 L 4.85,-11.85 1.7,-12.05 H 1.6 l 0.1,0.45 v 1.6 l -0.15,38.5 7.2,0.05 h 1.35 8.15 2.5 L 26.7,28.5 V 27.4 15.8 H 26.65 L 26.6,4.4 V 3.15 l -0.1,-12.7 v -0.3 M 7.2,10.45 v 5.35 l 0.1,1.65 0.15,4.1 -0.15,2.25 14.45,-0.1 q -0.1,-0.6 -0.05,-1.4 l 0.35,-4.1 V 15.8 H 22.1 V 5.65 h 0.05 l 0.05,-12.9 -14.75,-0.1 0.1,2.05 -0.2,1.9 -0.1,0.9 H 7.2 V -1.9 9.45 Q 7.3,9.1 7.3,9.7 L 7.25,10 7.2,9.85 v 0.5 0.1 m 31.1,-32.9 0.2,0.95 0.05,1.2 v 1.6 l -0.05,1.15 0.15,0.4 -0.35,0.8 q -0.55,0.55 -1.4,0.4 H 36.2 V 3.9 5.65 7.45 l 0.05,3.85 h 0.05 l 0.2,15.3 0.05,4.05 v 0.15 0.75 0.1 5.75 0.1 0.3 l 0.05,1.15 0.25,0.8 -0.05,0.6 q -0.25,0.5 -1.1,0.55 H 34.9 V 41 h -0.25 v 4.2 l -0.1,0.25 0.05,0.3 q 0,1.1 -1.55,1.2 H -33 q -1.6,-0.1 -1.6,-1.2 l 0.05,-0.3 -0.1,-0.25 V 45.05 H -34.8 V 44.95 44.85 42 l -0.05,-0.85 V 40.9 h -0.8 q -0.85,-0.05 -1.1,-0.55 l -0.05,-0.6 0.25,-0.8 0.05,-1.15 v -0.3 -0.1 l 0.05,-5.75 V 30.8 30.65 26.6 l 0.25,-15.3 0.05,-3.85 V 5.65 3.9 -15.95 h -0.7 q -0.85,0.15 -1.4,-0.4 -0.4,-0.4 -0.4,-0.8 l 0.2,-0.4 -0.05,-1.15 -0.05,-1.6 0.1,-1.2 0.2,-0.95 -0.1,-0.4 q -0.2,-0.3 0.45,-0.6 l 5.1,-0.3 h 65.65 l 5.1,0.3 q 0.6,0.3 0.45,0.6 l -0.1,0.4 m -1.85,0.95 0.05,-0.35 h -0.05 -72.85 -0.05 l 0.05,0.35 v 1 l 0.05,1.2 v 0.35 0.25 l -0.05,0.35 H 36.45 V -18.7 H 36.4 v -0.25 -0.35 l 0.05,-1.2 v -1 M -32.2,45.05 H 32.25 V 45 44.85 43.6 l -0.05,-1 V 42 41.7 41.2 41.1 40.9 L 10.35,40.8 V 40.75 H 8.9 4.35 1.95 l -1.6,0.05 h -0.1 -0.4 -0.1 -0.45 -10.25 l -21.2,0.1 v 0.2 0.1 0.5 0.3 0.6 1 l -0.05,1.25 V 45 45.05 m 6.45,-16.55 5.05,0.05 h 2.45 8.15 1.4 L -1.5,28.5 V 15.8 H -1.55 L -1.65,-10 v -1.6 l 0.1,-0.45 h -0.1 l -3.15,0.2 -1.95,0.05 H -21.4 l -3,-0.05 -1.15,-0.1 h -0.35 l -0.7,-0.1 0.05,0.2 0.05,0.25 v 1.75 0.3 l -0.15,36.95 v 1.1 h 0.9 m 20.05,-3.8 0.05,0.1 0.1,0.45 v 0.25 l -0.05,0.05 -0.75,0.1 H -9.3 L -22.55,25.6 h -0.1 l -0.1,0.05 -0.45,0.15 -0.1,-0.05 -0.2,-0.4 q -0.35,-1.05 -0.4,-4.8 l -0.05,-2.8 v -0.1 -1.85 h 0.05 l 0.05,-3 0.05,-1.5 V 10.55 8 l 0.05,-2.35 h 0.05 l 0.05,-2.5 0.1,-5.65 v -0.9 l 0.05,-4.2 h -0.05 l -0.05,-0.1 -0.1,-0.45 V -8.4 l 0.7,-0.15 0.25,-0.2 0.25,0.2 h 2.55 l 13.2,0.05 0.1,0.05 0.1,-0.1 0.45,-0.1 0.25,0.15 0.1,0.25 0.25,1.4 0.05,0.5 0.15,2.95 v 0.9 h 0.05 L -5.3,3.15 V 3.3 5.65 H -5.35 L -5.4,7.8 -5.5,11.05 v 0.25 0.65 0.05 0.8 h -0.05 l -0.05,3 h -0.05 l -0.05,0.95 v 0.2 l -0.05,7.7 v 0.05 h 0.05 m 2.05,-9.8 0.4,0.2 0.35,0.7 h 0.45 v 0.95 l -0.1,3.7 Q -2.8,23.8 -3.7,23.8 L -4.05,23.6 Q -4.6,23 -4.8,20.35 L -4.85,16.8 V 16.55 15.8 h 0.5 q 0.2,-0.7 0.55,-0.85 l 0.15,-0.05 m -3.5,-4.55 V 9.85 L -7.2,10 -7.25,9.7 q 0,-0.6 0.1,-0.25 V -1.9 -2.5 H -7.2 l -0.1,-0.9 -0.2,-1.9 0.1,-2.05 -14.75,0.1 0.1,11.5 v 0.4 0.45 l 0.05,7.5 v 0.4 5.2 l 0.35,4.1 q 0.05,0.8 -0.05,1.4 l 14.45,0.1 -0.15,-2.25 0.15,-4.1 0.1,-1.65 v -5.35 -0.1"
         fill="#6b6b6b"
         fill-rule="evenodd"
         stroke="none"
         id="path9" />
      <path
         d="M 5.8,24.65 V 24.7 H 5.75 L 5.8,24.65 M 3.85,14.9 v 0.05 L 3.7,14.9 H 3.85 M 1.7,-12.05 v 0.45 l -0.1,-0.45 h 0.1 m 34.75,-9.8 h 0.05 l -0.05,0.35 v -0.35 m -72.85,0.35 -0.05,-0.35 h 0.05 v 0.35 m 32.6,36.4 h 0.15 L -3.8,14.95 V 14.9 m -1.95,9.75 0.05,0.05 h -0.05 v -0.05 m 4.1,-36.7 h 0.1 l -0.1,0.45 v -0.45"
         fill="#919191"
         fill-rule="evenodd"
         stroke="none"
         id="path10" />
      <path
         d="m 5.9,-8.5 -0.1,0.25 -0.5,-0.6 q 0.35,0 0.6,0.35"
         fill="#8c8c8c"
         fill-rule="evenodd"
         stroke="none"
         id="path11" />
      <path
         d="m 27.3,30.5 0.4,-0.2 h 0.05 l -0.45,0.2 m 4,7.85 H 31.2 V 37.9 l 0.1,0.45 m -57.05,-10 v 0.15 h -0.9 v -1.1 q 0.3,0.95 0.9,0.95"
         fill="#7b7b7b"
         fill-rule="evenodd"
         stroke="none"
         id="path12" />
      <path
         d="m 33.2,38.35 q 0,0.4 0.9,1 L 33,38.7 33.2,38.35 m -66.15,0.35 -1.1,0.65 q 0.9,-0.6 0.9,-1 l 0.2,0.35"
         fill="#838383"
         fill-rule="evenodd"
         stroke="none"
         id="path13" />
      <path
         d="M 28.95,2.1 V 1.75 L 28.9,1.45 V 0 q 0.8,-0.1 0.95,-2.15 L 29.9,-2.5 v -0.3 l -0.05,-0.6 q 0,-4.35 -0.95,-4.7 v -3.25 l -0.25,-1.3 0.1,-0.4 -0.25,-0.65 q -0.35,-0.45 -0.95,-0.5 H 20.8 v -0.05 l -1.25,0.05 h -0.4 -5.05 -5 -0.45 l -1.2,-0.05 v 0.05 H 0.7 l -0.25,0.05 -0.4,0.2 -0.15,0.1 -0.3,-0.2 v -0.1 L -0.65,-14.2 H -7.4 v -0.05 l -1.2,0.05 h -0.45 -5 -5.05 -0.4 l -1.25,-0.05 v 0.05 h -6.75 q -0.6,0.05 -0.95,0.5 l -0.25,0.65 0.1,0.4 -0.25,1.3 v 3.25 q -0.95,0.35 -0.95,4.7 l -0.05,0.6 v 0.3 h 0.05 v 0.35 q 0.15,2.05 0.95,2.15 v 1.45 l -0.05,0.3 V 2.1 h 0.05 v 13.7 h 0.1 v 0.15 Q -29.1,16 -29.3,16.6 l -0.25,1.55 0.15,2.95 v 2.6 q 0.15,1.75 0.65,2.3 v 3.4 l 1.05,0.9 h 0.05 l 0.4,0.2 15.8,-0.05 h 4.05 l 6.5,0.05 0.4,-0.2 h 0.1 V 30.2 L -0.1,29.9 -0.05,30 0,30.05 0.45,30.3 h 0.1 l 0.4,0.2 6.5,-0.05 h 4.05 l 15.8,0.05 0.45,-0.2 1.05,-0.9 V 26 q 0.5,-0.55 0.65,-2.3 V 21.1 L 29.6,18.15 29.35,16.6 Q 29.15,16 28.8,15.95 V 15.8 h 0.1 V 2.1 h 0.05 M -31.4,-15.95 -4.1,-16 l 3.7,-0.15 0.3,-0.05 h 0.15 l 0.4,0.05 3.7,0.15 27.3,0.05 q -0.1,0.8 -0.05,2.2 l 0.25,7.6 -0.05,11.8 h -0.05 l -0.15,20.5 v 4.5 0.15 h -0.1 v 0.85 l -0.1,5.75 v 0.1 0.2 0.2 0.45 h -62.45 l 0.1,-0.65 V 37.5 37.4 31.65 L -31.2,30.8 h -0.1 v -0.15 l -0.05,-4.5 -0.05,-10.35 h -0.05 l -0.15,-21.95 0.25,-7.6 q 0.05,-1.4 -0.05,-2.2"
         fill="#9a8f81"
         fill-rule="evenodd"
         stroke="none"
         id="path14" />
      <path
         d="M 5.8,-8.25 5.55,-6.85 5.5,-6.35 5.4,-3.4 5.35,-2.5 V 3.15 3.3 L 5.4,5.65 H 5.45 V 7.8 l 0.1,3.25 V 11.3 11.95 12 l 0.05,0.8 h 0.05 l 0.05,3 h 0.05 v 1 0.15 L 5.8,24.65 5.75,24.7 5.7,24.8 5.6,25.25 v 0.25 l 0.05,0.05 0.75,0.1 H 9.35 L 22.6,25.6 h 0.1 l 0.1,0.05 0.45,0.15 0.1,-0.05 -0.1,0.75 q -0.3,0.45 -1.2,0.5 H 8.35 L 5.1,26.8 q -0.95,0 -0.95,-0.85 L 4.35,25.3 4.1,23.6 Q 4.65,23 4.85,20.35 L 4.9,16.95 V 16.8 16.55 15.8 H 4.4 Q 4.2,15.1 3.85,14.95 V 14.9 L 3.8,12.8 H 3.75 L 3.7,12.35 V 11.3 L 3.55,7.8 3.5,5.65 H 3.4 l -0.1,-2 V 3.15 L 3.4,-2.5 h 0.05 l 0.1,-0.9 q 0.4,-5.4 1.75,-5.45 l 0.5,0.6 m -4.1,-3.8 3.15,0.2 1.95,0.05 h 14.65 l 3,-0.05 1.15,-0.1 h 0.35 l 0.7,-0.1 -0.1,0.2 -0.05,0.25 v 1.75 h -0.05 l 0.05,0.3 0.1,12.7 V 4.4 l 0.05,11.4 h 0.05 v 11.6 q -0.35,0.95 -0.9,0.95 -0.5,0 -0.85,-0.85 Q 24.6,26.45 24.5,24.25 V 19.8 5.65 l 0.1,-2.5 V -2.5 -2.55 l -0.05,-0.6 V -3.4 Q 24.6,-7.05 25.1,-9.7 V -9.75 H 24.95 L 24.4,-9.7 H 11.85 L 1.85,-10 H 1.7 v -1.6 -0.45 m 34.75,-9.8 v 0.35 1 l -0.05,1.2 v 0.35 0.25 h 0.05 v 0.35 H -36.4 l 0.05,-0.35 v -0.25 -0.35 l -0.05,-1.2 v -1 -0.35 h 72.85 m -61.5,12.15 q 0.5,2.65 0.55,6.3 v 0.25 0.65 h -0.05 v 5.65 l 0.1,2.5 V 19.8 l 0.05,0.8 q 0.05,1.9 -0.05,3.65 -0.1,2.2 -0.45,3.25 -0.35,0.85 -0.85,0.85 -0.6,0 -0.9,-0.95 l 0.15,-36.95 0.05,-0.3 h -0.05 v -1.75 l -0.05,-0.25 -0.05,-0.2 0.7,0.1 h 0.35 l 1.15,0.1 3,0.05 h 14.65 l 1.95,-0.05 3.15,-0.2 v 0.45 1.6 H -1.8 l -10,0.3 h -12.55 l -0.55,-0.05 h -0.15 v 0.05 m 19.2,1.2 0.6,-0.35 q 1.35,0.05 1.8,5.45 l 0.05,0.9 h 0.05 l 0.1,5.65 v 0.5 l -0.05,2 h -0.1 l -0.1,2.15 -0.1,3.5 -0.05,1.05 V 12.8 H -3.7 l -0.1,2.1 v 0.05 q -0.35,0.15 -0.55,0.85 h -0.5 -0.75 l 0.05,-3 H -5.5 V 12 11.95 11.3 11.05 L -5.4,7.8 -5.35,5.65 H -5.3 V 3.3 3.15 L -5.25,-2.5 H -5.3 v -0.9 l -0.15,-2.95 -0.05,-0.5 -0.25,-1.4 -0.1,-0.25"
         fill="#c8baa8"
         fill-rule="evenodd"
         stroke="none"
         id="path15" />
      <path
         d="m 31.45,-15.95 h 2.1 l 0.05,0.1 V 4 5.65 l -0.05,1.8 -0.05,3.85 v 0.4 1.1 3 h -0.05 l -0.2,10.8 -0.05,2.45 v 1.6 0.15 0.75 0.1 5.75 0.1 0.2 0.25 0.4 L 33,38.7 32.4,38.35 H 31.3 L 31.2,37.9 v -0.2 -0.2 -0.1 l 0.1,-5.75 V 30.8 h 0.1 v -0.15 -4.5 l 0.15,-20.5 h 0.05 l 0.05,-11.8 -0.25,-7.6 q -0.05,-1.4 0.05,-2.2 m -62.7,54.3 h -1.1 l -0.6,0.35 -0.2,-0.35 v -0.4 -0.25 -0.2 -0.1 -5.75 -0.1 -0.65 -0.1 -0.15 -1.6 L -33.2,26.6 -33.3,15.8 h -0.05 l -0.05,-3 h -0.05 V 11.7 11.3 L -33.5,7.45 -33.55,5.65 V 4 -15.85 l 0.05,-0.1 h 2.1 q 0.1,0.8 0.05,2.2 l -0.25,7.6 0.15,21.95 h 0.05 l 0.05,10.35 0.05,4.5 v 0.15 h 0.1 l 0.05,0.85 v 5.75 0.1 0.2 l -0.1,0.65 M 7.2,10.35 V 9.85 L 7.25,10 7.3,9.7 Q 7.3,9.1 7.2,9.45 V -1.9 -2.5 h 0.05 l 0.1,-0.9 0.2,-1.9 -0.1,-2.05 14.75,0.1 -0.05,12.9 H 22.1 V 15.8 h -0.05 v 2.4 l -0.35,4.1 q -0.05,0.8 0.05,1.4 L 7.3,23.8 7.45,21.55 7.3,17.45 7.2,15.8 v -5.35 l 0.45,-0.1 H 7.2 m -14.35,0.1 v 5.35 l -0.1,1.65 -0.15,4.1 0.15,2.25 -14.45,-0.1 q 0.1,-0.6 0.05,-1.4 L -22,18.2 V 13 12.6 L -22.05,5.1 V 4.65 4.25 l -0.1,-11.5 14.75,-0.1 -0.1,2.05 0.2,1.9 0.1,0.9 h 0.05 V -1.9 9.45 Q -7.25,9.1 -7.25,9.7 L -7.2,10 -7.15,9.85 v 0.5 H -7.6 l 0.45,0.1"
         fill="#aa9e8f"
         fill-rule="evenodd"
         stroke="none"
         id="path16" />
      <path
         d="M 6.8,-8.5 6.6,-8.55 6.1,-8.65 5.9,-8.5 Q 5.65,-8.85 5.3,-8.85 3.95,-8.8 3.55,-3.4 l -0.1,0.9 H 3.4 L 3.3,3.15 v 0.5 l 0.1,2 H 3.5 L 3.55,7.8 3.7,11.3 v 1.05 L 3.75,12.8 H 3.8 l 0.05,2.1 H 3.7 L 3.3,15.1 2.95,15.8 H 2.5 v 0.95 l 0.1,3.7 q 0.25,3.35 1.15,3.35 l 0.35,-0.2 0.25,1.7 -0.2,0.65 q 0,0.85 0.95,0.85 L 8.35,27 h 13.7 q 0.9,-0.05 1.2,-0.5 l 0.1,-0.75 0.2,-0.4 Q 24,23.95 24,17.75 v -0.1 L 24.05,15.8 H 24 l -0.05,-3 H 23.9 L 23.85,11.3 V 10.55 8 5.65 H 23.8 l -0.05,-2.5 -0.1,-5.65 v -0.9 l -0.1,-4.2 h 0.05 l 0.05,-0.1 0.1,-0.45 V -8.4 l -0.7,-0.15 -0.25,-0.2 -0.3,0.2 H 20 L 6.8,-8.5 M 1.7,-10 h 0.15 l 10,0.3 H 24.4 l 0.55,-0.05 0.15,0.05 q -0.5,2.65 -0.55,6.3 v 0.25 l 0.05,0.6 v 0.05 5.65 l -0.1,2.5 v 14.15 4.45 q 0.1,2.2 0.45,3.25 0.35,0.85 0.85,0.85 0.55,0 0.9,-0.95 v 1.1 l -5.95,0.05 H 18.25 10.1 8.75 L 1.55,28.5 1.7,-10 m -26.75,0.3 0.15,-0.05 0.55,0.05 h 12.55 l 10,-0.3 h 0.15 l 0.1,25.8 h 0.05 v 12.7 l -7.2,0.05 h -1.4 -8.15 -2.45 l -5.05,-0.05 v -0.15 q 0.5,0 0.85,-0.85 0.35,-1.05 0.45,-3.25 0.1,-1.75 0.05,-3.65 l -0.05,-0.8 V 5.65 l -0.1,-2.5 V -2.5 h 0.05 V -3.15 -3.4 q -0.05,-3.65 -0.55,-6.3 m 18.3,1.2 -13.2,-0.05 h -2.55 l -0.25,-0.2 -0.25,0.2 -0.7,0.15 v 0.25 l 0.1,0.45 0.05,0.1 h 0.05 l -0.05,4.2 v 0.9 l -0.1,5.65 -0.05,2.5 h -0.05 L -23.8,8 v 2.55 0.75 l -0.05,1.5 -0.05,3 h -0.05 v 1.85 0.1 l 0.05,2.8 q 0.05,3.75 0.4,4.8 l 0.2,0.4 0.1,0.05 0.45,-0.15 0.1,-0.05 h 0.1 l 13.25,0.05 h 2.95 l 0.75,-0.1 0.05,-0.05 v -0.25 l -0.1,-0.45 -0.05,-0.1 -0.05,-0.05 0.05,-7.7 v -0.2 l 0.05,-0.95 h 0.05 0.75 v 0.75 0.25 l 0.05,3.55 q 0.2,2.65 0.75,3.25 l 0.35,0.2 q 0.9,0 1.15,-3.35 l 0.1,-3.7 V 15.8 H -2.9 l -0.35,-0.7 -0.4,-0.2 H -3.8 l 0.1,-2.1 h 0.05 V 12.35 L -3.6,11.3 -3.5,7.8 -3.4,5.65 h 0.1 l 0.05,-2 V 3.15 L -3.35,-2.5 H -3.4 l -0.05,-0.9 q -0.45,-5.4 -1.8,-5.45 l -0.6,0.35 -0.25,-0.15 -0.45,0.1 -0.2,0.05"
         fill="#b8aa99"
         fill-rule="evenodd"
         stroke="none"
         id="path17" />
      <path
         d="M -32.2,45.05 V 45 44.85 l 0.05,-1.25 v -1 -0.6 -0.3 -0.5 -0.1 -0.2 l 21.2,-0.1 h 10.25 0.45 0.1 0.4 0.1 l 1.6,-0.05 h 2.4 4.55 1.45 v 0.05 l 21.85,0.1 v 0.2 0.1 0.5 0.3 0.6 l 0.05,1 V 44.85 45 45.05 H -32.2"
         fill="#8c8174"
         fill-rule="evenodd"
         stroke="none"
         id="path18" />
    </g>
    <g
       id="sprite0"
       transform="translate(8.05,7.35)">
      <use
         ffdec:characterId="1378"
         height="14.75"
         transform="translate(-8.05,-7.35)"
         width="16.1"
         xlink:href="#shape1"
         id="use18" />
    </g>
    <g
       id="shape1"
       transform="translate(8.05,7.35)">
      <path
         d="m 3.75,-7.25 q 1.4,0.5 1.4,2.3 l -0.15,0.8 -0.85,1 -1.05,1 -1.15,0.8 0.15,0.3 0.15,0.35 q 1.35,-1 3.2,-1.2 2.6,-0.3 2.6,2.35 l -0.4,0.8 Q 7,2.1 5.85,2.1 L 3.4,1.55 2.3,1.05 2,1.55 1.9,1.75 2.95,2.4 4.15,3.35 4.85,4.25 5,5.15 4.8,6.35 Q 4.45,7.4 3.45,7.4 1.95,7.4 1.25,6.55 L 0.95,5.95 0.9,5.6 Q 0.35,4.1 0.35,3.65 v -0.7 l 0.1,-0.5 -0.4,0.05 h -0.1 l -0.4,-0.05 0.05,0.5 v 0.7 q 0,0.45 -0.55,1.95 L -1,5.95 -1.3,6.55 q -0.65,0.85 -2.15,0.85 -1,0 -1.4,-1.05 l -0.2,-1.2 0.15,-0.9 0.75,-0.9 1.2,-0.95 1.05,-0.65 -0.15,-0.2 -0.25,-0.5 -1.1,0.5 -2.5,0.55 q -1.15,0 -1.75,-0.85 l -0.4,-0.8 q 0,-2.65 2.6,-2.35 1.85,0.2 3.2,1.2 l 0.1,-0.35 0.2,-0.3 -1.15,-0.8 -1.1,-1 -0.8,-1 -0.15,-0.8 q 0,-1.8 1.4,-2.3 1.35,-0.45 2.35,0.95 0.35,0.45 0.65,1.65 0.3,1.2 0.3,1.9 v 0.5 L -0.4,-2.3 0,-2.4 0.4,-2.25 H 0.45 L 0.4,-2.75 0.7,-4.65 1.4,-6.3 q 1,-1.4 2.35,-0.95"
         fill="#6b6b6b"
         fill-rule="evenodd"
         stroke="none"
         id="path19" />
    </g>
    <g
       id="sprite1"
       transform="translate(5.4,4)">
      <use
         ffdec:characterId="43"
         height="8"
         transform="translate(-5.4,-4)"
         width="10.8"
         xlink:href="#shape2"
         id="use19" />
    </g>
    <g
       id="shape2"
       transform="translate(5.4,4)">
      <path
         d="m 2.9,-0.35 q 0,-1.25 1.25,-1.25 1.25,0 1.25,1.2 0,1.3 -1.25,1.3 Q 3.6,0.9 3.25,0.5 2.9,0.15 2.9,-0.35 m 0.35,-2.3 q 0,0.55 -0.35,0.9 -0.4,0.45 -1,0.45 -1.35,0 -1.35,-1.4 0,-1.3 1.35,-1.3 1.35,0 1.35,1.35 m -3.1,1.9 h 0.2 q 2.6,0.1 2.6,2.8 l -0.3,1 Q 2.05,4 0.45,4 H 0.35 0.15 0.1 -0.45 q -1.6,0 -2.2,-0.95 l -0.3,-1 q 0,-2.8 2.8,-2.8 h 0.3 M -1.55,-4 q 1.35,0 1.35,1.35 0,0.55 -0.4,0.9 -0.4,0.45 -0.95,0.45 -1.4,0 -1.4,-1.4 0,-1.3 1.4,-1.3 m -2.6,2.4 q 1.25,0 1.25,1.25 0,0.5 -0.35,0.85 -0.35,0.4 -0.9,0.4 -1.25,0 -1.25,-1.3 0,-1.2 1.25,-1.2"
         fill="#6b6b6b"
         fill-rule="evenodd"
         stroke="none"
         id="path20" />
    </g>
  </defs>
</svg>
