<?xml version="1.0" encoding="UTF-8" standalone="no"?>
<svg
   ffdec:objectType="frame"
   height="26.849993"
   width="40.299999"
   version="1.1"
   id="svg7"
   sodipodi:docname="2.svg"
   xmlns:inkscape="http://www.inkscape.org/namespaces/inkscape"
   xmlns:sodipodi="http://sodipodi.sourceforge.net/DTD/sodipodi-0.dtd"
   xmlns:xlink="http://www.w3.org/1999/xlink"
   xmlns="http://www.w3.org/2000/svg"
   xmlns:svg="http://www.w3.org/2000/svg"
   xmlns:ffdec="https://www.free-decompiler.com/flash">
  <sodipodi:namedview
     id="namedview7"
     pagecolor="#ffffff"
     bordercolor="#000000"
     borderopacity="0.25"
     inkscape:showpageshadow="2"
     inkscape:pageopacity="0.0"
     inkscape:pagecheckerboard="0"
     inkscape:deskcolor="#d1d1d1"
     fit-margin-top="5"
     fit-margin-left="5"
     fit-margin-right="5"
     fit-margin-bottom="5" />
  <g
     transform="translate(20.1,6.749996)"
     id="g2">
    <use
       ffdec:characterId="3771"
       height="26.85"
       transform="translate(-20.1,-6.75)"
       width="40.299999"
       xlink:href="#shape0"
       id="use1" />
    <use
       ffdec:characterId="3500"
       height="8"
       transform="matrix(-0.0098,-0.6961,0.6961,-0.0098,5.6684,5.6481)"
       width="10.8"
       xlink:href="#sprite0"
       id="use2" />
  </g>
  <defs
     id="defs7">
    <g
       id="shape0"
       transform="translate(20.1,6.75)">
      <path
         d="m 12.3,19.45 h -0.15 -0.4 l -12.6,0.05 v 0.1 L -1.5,19.55 q -1.85,-0.2 -3.2,-1.2 -1.1,-0.55 -3.25,-3.05 l -0.3,-0.2 -3.65,-3.7 q -0.65,-0.75 -1.95,-0.65 l -0.45,0.05 -0.85,0.15 -0.3,-0.05 -0.15,0.4 v -0.25 l -0.75,0.4 h -1 q -2.05,0 -2.1,-1.05 l 0.05,-0.45 -0.2,-0.85 0.25,-5.95 q 0.1,-0.35 0.5,-0.4 0.3,-0.55 1.45,-0.55 l 1.45,0.25 0.25,-0.1 V 2.6 h 0.45 l 0.85,0.15 0.45,-0.05 0.75,-0.05 0.2,-1.75 0.05,-0.5 0.3,-2.4 q 0.35,-2.05 3.55,-2.85 l 5,-0.75 h 0.35 l 2.05,-0.6 0.65,-0.05 v 0.1 L 13.5,-6.1 h 0.05 l 1.15,-0.05 3,0.7 q 1.25,0.7 1.8,1.9 l 0.2,20.2 q -0.55,1.25 -1.8,1.95 l -3,0.7 -1.15,0.05 L 12,19.4 q 0.7,0 0.3,0.05 m 0.45,-25.6 H 12.1 l 0.05,-0.05 0.6,0.05 m -20.9,4.2 0.55,-0.55 -0.4,0.1 -1.4,0.35 -0.15,0.1 q -0.85,0.85 -1.2,2.8 l 2.3,-2.45 0.3,-0.35 m 5.5,-1.95 0.35,21.2 0.55,0.15 -0.2,-21.5 -0.7,0.15 m 1.6,-0.2 H -1.2 L -1,17.5 h 0.15 1 l 12,-0.05 h 0.4 l 0.5,-0.05 0.7,-0.1 0.35,-0.1 -0.05,-1.5 -0.2,-18.2 0.05,-1.55 H 13.55 L 12.95,-4.1 V 6.8 l -0.1,0.9 0.05,0.25 H 12.8 L 12.75,8.1 12.5,8.15 12.4,8.05 8.75,8.3 4.95,8.15 4.35,8.7 3.95,8.15 3.85,-3.55 4.05,-4.2 H 3.15 L 3.25,-1.35 3.3,8.1 2.9,8.45 Q 2.55,8.5 2.55,8.15 v -0.2 l -0.6,0.1 H 0.55 Q 0.3,8.05 0.2,7.9 L 0.15,7.65 -0.1,7.6 0.15,7.25 0.05,-4.15 h -0.1 l -1,0.05 m -3.05,1.3 -0.8,0.6 -0.6,0.55 -2.55,2.15 -2.3,2.5 -2.3,2.05 -0.75,-0.05 0.1,1.5 -0.05,1.9 h 0.7 q 0.35,0 2.4,2.05 l 2.3,2.4 2.65,2.25 1.3,1.25 0.35,0.35 0.3,0.1 -0.1,-20.25 -0.65,0.65 m 8.95,-0.75 0.1,11.1 H 5.1 12.2 L 12.15,6.8 12,0.95 11.9,-3.4 V -4.2 H 4.65 l 0.2,0.65 m -3.9,-0.6 0.1,11.3 1.5,0.1 -0.1,-11.4 h -1.5 m 13.45,0.25 0.2,20.95 0.45,-0.1 -0.2,-20.75 -0.45,-0.1 m 3.3,1.7 -1.25,-1.15 0.2,19.9 q 0.8,-0.4 1.25,-1.2 l 0.25,-0.4 v -0.3 L 18.05,-1.5 17.95,-1.8 17.7,-2.2 m -6.85,13.3 q -0.1,1.55 -0.05,4.7 l -0.2,0.4 q -0.35,0 -0.45,-0.4 l 0.05,-5 q 0.05,-0.15 0.35,-0.15 h 0.2 l 0.1,0.45 m 1.4,-0.55 0.05,5.25 -0.2,0.4 q -0.35,0 -0.45,-0.4 l -0.05,-5 0.3,-0.4 0.35,0.15 M 2.3,10.45 2.35,15.7 1.85,16.15 Q 1.9,15.7 1.35,15.7 L 1.3,10.45 1.7,9.7 2.05,9.85 2.3,10.45 m 0.9,-0.2 0.3,0.6 0.1,4.8 -0.2,0.4 -0.25,0.05 Q 2.8,16.15 2.8,15.7 L 2.75,10.9 3.2,10.25 m 1.65,0.15 0.25,0.7 0.2,3.2 0.05,1.35 -0.5,0.45 Q 4.5,16.1 4.5,15.3 l 0.05,-4.45 q 0.1,-0.45 0.3,-0.45 m 4.7,1.2 0.15,4.2 -0.3,0.75 H 9.25 Q 9,16.45 8.85,15.8 L 8.9,11.6 q 0,-0.6 0.3,-0.9 l 0.35,0.9 M 7,10.75 q 0.9,0 0.7,2.4 l 0.05,2.4 q -0.25,0.6 -0.7,0.6 l -0.4,-0.1 Q 6.4,15.6 6.35,13.65 6.35,11.5 6.65,10.95 6.8,10.6 7,10.75 m 4.75,8.7 L 12,19.4 11.75,19.45 M -14.8,4.95 v 3.7 L -14.05,8.5 -14,5 -14.8,4.95 m -3.05,-0.9 0.1,5 V 9.3 h 0.35 0.95 V 4.05 l -0.9,0.05 -0.5,-0.05"
         fill="#6b6b6b"
         fill-rule="evenodd"
         stroke="none"
         id="path2" />
      <path
         d="m -2.65,-3.9 0.7,-0.15 0.2,21.5 L -2.3,17.3 -2.65,-3.9 m -1.45,1.1 0.65,-0.65 0.1,20.25 -0.3,-0.1 -0.35,-0.35 -1.3,-1.25 -2.65,-2.25 -2.3,-2.4 Q -12.3,8.4 -12.65,8.4 h -0.7 l 0.05,-1.9 -0.1,-1.5 0.75,0.05 2.3,-2.05 2.3,-2.5 2.55,-2.15 0.6,-0.55 0.8,-0.6 m 21.8,0.6 0.25,0.4 0.1,0.3 0.1,16.15 v 0.3 l -0.25,0.4 q -0.45,0.8 -1.25,1.2 l -0.2,-19.9 1.25,1.15 m -3.3,-1.7 0.45,0.1 0.2,20.75 -0.45,0.1 -0.2,-20.95 m -32.25,7.95 0.5,0.05 0.9,-0.05 V 9.3 h -0.95 -0.35 V 9.05 l -0.1,-5 m 3.05,0.9 0.8,0.05 -0.05,3.5 -0.75,0.15 v -3.7"
         fill="#ffffff"
         fill-rule="evenodd"
         stroke="none"
         id="path3" />
      <path
         d="m 0.95,-4.15 h 1.5 l 0.1,11.4 -1.5,-0.1 -0.1,-11.3 m 3.9,0.6 -0.2,-0.65 h 7.25 v 0.8 L 12,0.95 12.15,6.8 12.2,7.55 H 5.1 4.95 l -0.1,-11.1"
         fill="#d0d0d0"
         fill-rule="evenodd"
         stroke="none"
         id="path4" />
      <path
         d="m -1.05,-4.1 1,-0.05 h 0.1 L 0.15,7.25 -0.1,7.6 0.15,7.65 0.2,7.9 q 0.1,0.15 0.35,0.15 h 1.4 l 0.6,-0.1 v 0.2 q 0,0.35 0.35,0.3 L 3.3,8.1 3.25,-1.35 3.15,-4.2 h 0.9 l -0.2,0.65 0.1,11.7 0.4,0.55 0.6,-0.55 3.8,0.15 3.65,-0.25 0.1,0.1 0.25,-0.05 0.05,-0.15 h 0.1 L 12.85,7.7 12.95,6.8 V -4.1 l 0.6,0.05 h 0.35 l -0.05,1.55 0.2,18.2 0.05,1.5 -0.35,0.1 -0.7,0.1 -0.5,0.05 h -0.4 l -12,0.05 h -1 H -1 L -1.2,-4.1 h 0.15 M 7,10.75 q -0.2,-0.15 -0.35,0.2 -0.3,0.55 -0.3,2.7 0.05,1.95 0.3,2.4 l 0.4,0.1 q 0.45,0 0.7,-0.6 L 7.7,13.15 Q 7.9,10.75 7,10.75 M 9.55,11.6 9.2,10.7 Q 8.9,11 8.9,11.6 L 8.85,15.8 Q 9,16.45 9.25,16.55 H 9.4 L 9.7,15.8 9.55,11.6 m -4.7,-1.2 q -0.2,0 -0.3,0.45 L 4.5,15.3 q 0,0.8 0.35,0.8 L 5.35,15.65 5.3,14.3 5.1,11.1 4.85,10.4 M 3.2,10.25 2.75,10.9 2.8,15.7 q 0,0.45 0.35,0.4 L 3.4,16.05 3.6,15.65 3.5,10.85 3.2,10.25 M 2.3,10.45 2.05,9.85 1.7,9.7 1.3,10.45 1.35,15.7 q 0.55,0 0.5,0.45 L 2.35,15.7 2.3,10.45 m 9.95,0.1 -0.35,-0.15 -0.3,0.4 0.05,5 q 0.1,0.4 0.45,0.4 l 0.2,-0.4 -0.05,-5.25 m -1.4,0.55 -0.1,-0.45 h -0.2 q -0.3,0 -0.35,0.15 l -0.05,5 q 0.1,0.4 0.45,0.4 l 0.2,-0.4 q -0.05,-3.15 0.05,-4.7"
         fill="#d0bfbf"
         fill-rule="evenodd"
         stroke="none"
         id="path5" />
      <path
         d="m 12.3,19.45 h -0.15 -0.4 l -12.6,0.05 v 0.1 L -1.5,19.55 q -1.85,-0.2 -3.2,-1.2 -1.1,-0.55 -3.25,-3.05 l -0.3,-0.2 -3.65,-3.7 q -0.65,-0.75 -1.95,-0.65 l -0.45,0.05 -0.85,0.15 -0.3,-0.05 -0.15,0.4 v -0.25 l -0.75,0.4 h -1 q -2.05,0 -2.1,-1.05 l 0.05,-0.45 -0.2,-0.85 0.25,-5.95 q 0.1,-0.35 0.5,-0.4 0.3,-0.55 1.45,-0.55 l 1.45,0.25 0.25,-0.1 V 2.6 h 0.45 l 0.85,0.15 0.45,-0.05 0.75,-0.05 0.2,-1.75 0.05,-0.5 0.3,-2.4 q 0.35,-2.05 3.55,-2.85 l 5,-0.75 h 0.35 l 2.05,-0.6 0.65,-0.05 v 0.1 L 13.5,-6.1 13.05,-6.15 h -0.3 -0.65 m 0.05,-0.05 0.6,0.05 m 0.75,0.05 h 0.05 l 1.15,-0.05 3,0.7 q 1.25,0.7 1.8,1.9 l 0.2,20.2 q -0.55,1.25 -1.8,1.95 l -3,0.7 -1.15,0.05 -1.75,0.05 -0.25,0.05"
         fill="none"
         stroke="#6b6b6b"
         stroke-linecap="round"
         stroke-linejoin="round"
         stroke-width="1"
         id="path6" />
    </g>
    <g
       id="sprite0"
       transform="translate(5.4,4)">
      <use
         ffdec:characterId="43"
         height="8"
         transform="translate(-5.4,-4)"
         width="10.8"
         xlink:href="#shape1"
         id="use6" />
    </g>
    <g
       id="shape1"
       transform="translate(5.4,4)">
      <path
         d="m 2.9,-0.35 q 0,-1.25 1.25,-1.25 1.25,0 1.25,1.2 0,1.3 -1.25,1.3 Q 3.6,0.9 3.25,0.5 2.9,0.15 2.9,-0.35 m 0.35,-2.3 q 0,0.55 -0.35,0.9 -0.4,0.45 -1,0.45 -1.35,0 -1.35,-1.4 0,-1.3 1.35,-1.3 1.35,0 1.35,1.35 m -3.1,1.9 h 0.2 q 2.6,0.1 2.6,2.8 l -0.3,1 Q 2.05,4 0.45,4 H 0.35 0.15 0.1 -0.45 q -1.6,0 -2.2,-0.95 l -0.3,-1 q 0,-2.8 2.8,-2.8 h 0.3 M -1.55,-4 q 1.35,0 1.35,1.35 0,0.55 -0.4,0.9 -0.4,0.45 -0.95,0.45 -1.4,0 -1.4,-1.4 0,-1.3 1.4,-1.3 m -2.6,2.4 q 1.25,0 1.25,1.25 0,0.5 -0.35,0.85 -0.35,0.4 -0.9,0.4 -1.25,0 -1.25,-1.3 0,-1.2 1.25,-1.2"
         fill="#6b6b6b"
         fill-rule="evenodd"
         stroke="none"
         id="path7" />
    </g>
  </defs>
</svg>
