<?xml version="1.0" encoding="UTF-8" standalone="no"?>
<svg
   ffdec:objectType="frame"
   height="18.950001"
   width="21.057142"
   version="1.1"
   id="svg6"
   sodipodi:docname="1.svg"
   xmlns:inkscape="http://www.inkscape.org/namespaces/inkscape"
   xmlns:sodipodi="http://sodipodi.sourceforge.net/DTD/sodipodi-0.dtd"
   xmlns:xlink="http://www.w3.org/1999/xlink"
   xmlns="http://www.w3.org/2000/svg"
   xmlns:svg="http://www.w3.org/2000/svg"
   xmlns:ffdec="https://www.free-decompiler.com/flash">
  <sodipodi:namedview
     id="namedview6"
     pagecolor="#ffffff"
     bordercolor="#000000"
     borderopacity="0.25"
     inkscape:showpageshadow="2"
     inkscape:pageopacity="0.0"
     inkscape:pagecheckerboard="0"
     inkscape:deskcolor="#d1d1d1"
     fit-margin-top="5"
     fit-margin-left="5"
     fit-margin-right="5"
     fit-margin-bottom="5" />
  <g
     transform="translate(10.507143,9.45)"
     id="g1">
    <use
       ffdec:characterId="4103"
       height="18.950001"
       transform="translate(-10.5,-9.45)"
       width="21.049999"
       xlink:href="#shape0"
       id="use1" />
  </g>
  <defs
     id="defs6">
    <g
       id="shape0"
       transform="translate(10.5,9.45)">
      <path
         d="M 6.85,-7.6 -8.65,-7.65 -8.7,5.7 v 2 H 8.75 V -7.45 L 6.85,-7.6 M 8.4,-9.45 q 1.65,0.05 1.95,0.7 l 0.2,0.3 V 7.9 Q 10.5,8.8 10,9.05 9.5,9.45 8.05,9.5 L 4.65,9.4 H -8.55 L -9.6,9.25 -10.25,8.8 Q -10.55,8 -10.5,5.7 V -7.7 q 0,-1.4 0.85,-1.4 h 0.35 l 1.1,-0.2 H 5.5 L 8.4,-9.45 M 6,1.4 v -6.65 l -3.65,0.2 H 0.95 L 0.1,-5.1 h -0.25 l -0.6,0.05 H -0.85 -1.9 L -4.2,-5.1 -6.05,-5.35 v 0.2 3.6 2.45 0.4 3.85 0.2 L -4.2,5.1 h 4.05 L 6,5.25 V 1.4 M 6.35,-6.05 6.6,-6.1 6.9,-5.95 7.15,-5.5 v 11 L 6.9,5.95 6.6,6.1 6.35,6.05 5.9,6.1 -5.2,6.15 -6.25,6.05 -6.55,6.15 -7.1,5.6 V -5.6 l 0.55,-0.55 0.3,0.1 1.05,-0.1 11.1,0.05 0.45,0.05"
         fill="#6b6b6b"
         fill-rule="evenodd"
         stroke="none"
         id="path1" />
      <path
         d="M 4.35,1 4.1,-3.1 3.75,-3.95 2.5,-4.1 V -4.3 L 2.35,-5.05 6,-5.25 V 1.4 Q 5.3,1 4.35,1 m -5.5,-4.7 0.05,0.2 -0.3,0.05 0.25,-0.25 m -2.5,2.45 0.05,0.65 0.3,1.85 H -3.85 L -6.05,1.3 V 0.9 l 2.25,-2 0.15,-0.15 M 1.7,-2.25 1.4,-2.2 0,-1.9 -0.35,-1.8 H -0.4 l -0.2,0.05 -0.8,0.25 -0.4,0.15 -0.35,0.1 -0.05,-0.15 -0.3,-0.7 1.55,-0.2 1.8,-0.35 1.95,-0.45 -0.05,0.25 -0.05,0.2 v 0.3 L 2.2,-2.3 1.7,-2.25 M 0.85,-4.6 H 1.1 q 0.6,0 0.6,0.3 l -0.05,0.3 -0.8,0.1 -0.4,0.1 -0.1,-0.1 -0.4,-0.5 0.9,-0.2 m 1.35,3 -0.8,0.9 -0.25,0.2 -0.1,0.05 -0.25,0.3 q -0.95,1.1 -1.9,1.1 H -1.2 L -1.55,0.9 -1.75,1.05 -1.8,0.85 V 0.8 L -1.95,0.05 v -0.1 L -2,-0.3 v -0.3 l 0.4,-0.1 0.2,0.05 h 0.1 l 1.7,-0.4 0.95,-0.3 0.2,-0.05 0.65,-0.2 m -8.25,0.05 v -3.6 -0.2 l 1.85,0.25 2.3,0.05 -1.55,1.15 q -1.7,1.3 -2.6,2.35"
         fill="#cccccc"
         fill-rule="evenodd"
         stroke="none"
         id="path2" />
      <path
         d="M 2.35,-5.05 2.5,-4.3 v 0.2 L 3.75,-3.95 4.1,-3.1 4.35,1 4.5,3.35 q 0,0.5 -2.75,1 L -1.5,4.8 -1.85,4.9 q -0.8,0 -1.45,-3.65 l -0.3,-1.85 -0.05,-0.65 0.35,-0.3 0.3,-0.3 0.1,-0.15 0.1,-0.1 0.2,-0.2 0.3,-0.25 0.6,-0.6 0.3,-0.3 0.3,-0.05 -0.05,-0.2 1.25,-1.4 0.85,0.05 h 1.4 m -1.5,0.45 -0.9,0.2 0.4,0.5 0.1,0.1 0.4,-0.1 0.8,-0.1 0.05,-0.3 q 0,-0.3 -0.6,-0.3 H 0.85 M 1.7,-2.25 2.2,-2.3 2.7,-2.35 v -0.3 l 0.05,-0.2 0.05,-0.25 -1.95,0.45 -1.8,0.35 -1.55,0.2 0.3,0.7 0.05,0.15 0.35,-0.1 0.4,-0.15 0.8,-0.25 0.2,-0.05 h 0.05 L 0,-1.9 1.4,-2.2 1.7,-2.25 m -3.45,3.3 0.05,0.2 0.2,1 L -0.2,2 3.05,1.7 V 0.2 Q 2.8,-0.4 2.7,-1.75 l -0.5,0.15 -0.65,0.2 -0.2,0.05 -0.95,0.3 -1.7,0.4 H -1.4 L -1.6,-0.7 -2,-0.6 v 0.3 l 0.05,0.25 v 0.1 L -1.8,0.8 v 0.05 l 0.05,0.2 M -0.7,3.2 3.05,2.65 V 2.1 l -4.4,0.95 0.05,0.25 0.6,-0.1"
         fill="#999999"
         fill-rule="evenodd"
         stroke="none"
         id="path3" />
      <path
         d="M 4.35,1 Q 5.3,1 6,1.4 V 5.25 L -0.15,5.1 H -4.2 L -6.05,5.35 V 5.15 1.3 l 2.2,-0.05 H -3.3 Q -2.65,4.9 -1.85,4.9 L -1.5,4.8 1.75,4.35 Q 4.5,3.85 4.5,3.35 L 4.35,1 m -6.1,0.05 0.2,-0.15 0.35,0.05 h 0.1 q 0.95,0 1.9,-1.1 L 1.05,-0.45 1.15,-0.5 1.4,-0.7 2.2,-1.6 2.7,-1.75 Q 2.8,-0.4 3.05,0.2 V 1.7 L -0.2,2 -1.5,2.25 -1.7,1.25 -1.75,1.05 M -0.7,3.2 -1.3,3.3 -1.35,3.05 3.05,2.1 V 2.65 L -0.7,3.2"
         fill="#b6b6b6"
         fill-rule="evenodd"
         stroke="none"
         id="path4" />
      <path
         d="m 0.1,-5.1 -1.25,1.4 -0.25,0.25 -0.3,0.3 -0.6,0.6 -0.3,0.25 -0.2,0.2 -0.1,0.1 -0.1,0.15 -0.3,0.3 -0.35,0.3 -0.15,0.15 -2.25,2 v -2.45 q 0.9,-1.05 2.6,-2.35 l 1.55,-1.15 h 1.05 0.1 l 0.6,-0.05 H 0.1"
         fill="#ffffff"
         fill-rule="evenodd"
         stroke="none"
         id="path5" />
      <path
         d="m 6.85,-7.6 1.9,0.15 V 7.7 H -8.7 v -2 L -8.65,-7.65 6.85,-7.6 M 6.35,-6.05 5.9,-6.1 -5.2,-6.15 l -1.05,0.1 -0.3,-0.1 -0.55,0.55 V 5.6 l 0.55,0.55 0.3,-0.1 1.05,0.1 L 5.9,6.1 6.35,6.05 6.6,6.1 6.9,5.95 7.15,5.5 v -11 L 6.9,-5.95 6.6,-6.1 6.35,-6.05"
         fill="#8e92a2"
         fill-rule="evenodd"
         stroke="none"
         id="path6" />
    </g>
  </defs>
</svg>
