<?xml version="1.0" encoding="UTF-8" standalone="no"?>
<svg
   ffdec:objectType="frame"
   height="68.849998"
   width="62.799999"
   version="1.1"
   id="svg12"
   sodipodi:docname="1.svg"
   xmlns:inkscape="http://www.inkscape.org/namespaces/inkscape"
   xmlns:sodipodi="http://sodipodi.sourceforge.net/DTD/sodipodi-0.dtd"
   xmlns:xlink="http://www.w3.org/1999/xlink"
   xmlns="http://www.w3.org/2000/svg"
   xmlns:svg="http://www.w3.org/2000/svg"
   xmlns:ffdec="https://www.free-decompiler.com/flash">
  <sodipodi:namedview
     id="namedview12"
     pagecolor="#ffffff"
     bordercolor="#000000"
     borderopacity="0.25"
     inkscape:showpageshadow="2"
     inkscape:pageopacity="0.0"
     inkscape:pagecheckerboard="0"
     inkscape:deskcolor="#d1d1d1"
     fit-margin-top="5"
     fit-margin-left="5"
     fit-margin-right="5"
     fit-margin-bottom="5" />
  <g
     transform="translate(31.4,36)"
     id="g3">
    <use
       ffdec:characterId="2764"
       height="9.8500004"
       transform="translate(-29.55,-36)"
       width="58.849998"
       xlink:href="#sprite0"
       id="use1" />
    <use
       ffdec:characterId="44"
       height="8"
       transform="translate(16.2,17.05)"
       width="10.8"
       xlink:href="#sprite1"
       id="use2" />
    <use
       ffdec:characterId="2765"
       height="60.75"
       transform="translate(-31.4,-27.85)"
       width="62.799999"
       xlink:href="#shape2"
       id="use3" />
  </g>
  <defs
     id="defs12">
    <g
       id="sprite0"
       transform="translate(29.45,4.95)">
      <use
         ffdec:characterId="2763"
         height="9.8500004"
         transform="translate(-29.45,-4.95)"
         width="58.849998"
         xlink:href="#shape0"
         id="use4" />
    </g>
    <g
       id="shape0"
       transform="translate(29.45,4.95)">
      <path
         d="m 18.65,-1 h 0.05 l 0.1,-0.15 q 0.85,-1.05 2.85,-1.05 l 1.85,0.4 0.9,0.8 v 0.05 h 0.05 l 0.3,0.9 0.1,0.95 -0.05,0.65 -0.15,0.5 -0.1,0.25 -0.05,0.1 Q 23.75,3.65 21.55,3.65 L 19.55,3.2 18.8,2.4 18.65,2.2 18.4,1.6 18.25,0.45 q 0,-0.85 0.4,-1.45 m 8.8,-0.2 V -1.4 -1.5 L 27.4,-1.8 v -0.35 l 0.05,-0.5 h -1.3 -52.35 -1.3 l 0.05,0.5 v 0.05 l -0.05,0.9 -0.05,1.2 v 0.1 l 0.05,1.25 V 1.75 1.9 2.45 2.7 l -0.05,1.2 V 4 l -0.05,0.7 h -0.7 -1.15 v -8.9 l 0.55,-0.4 4.35,-0.35 H 24.5 l 4.35,0.35 0.55,0.4 V 4.7 H 27.55 V 4.55 L 27.5,3.95 V 3.9 L 27.45,2.65 V 2 L 27.5,0.1 V 0 -0.1 L 27.45,-1.2 M -23.6,-1 -22.4,-1.35 -21,-1 q 0.65,0.5 0.65,1.75 V 1.65 1.7 Q -20.6,2.25 -21.6,2.4 L -22.4,2.45 -23,2.4 Q -23.85,2.25 -24.2,1.65 L -24.4,0.6 q 0,-1.1 0.8,-1.6 m 6,0 1.2,-0.35 1.4,0.35 q 0.65,0.5 0.65,1.75 V 1.65 1.7 Q -14.6,2.25 -15.6,2.4 L -16.4,2.45 -17,2.4 Q -17.85,2.25 -18.2,1.65 L -18.4,0.6 q 0,-1.1 0.8,-1.6 m 40.75,0.8 q -0.4,-1 -1.6,-0.75 -1.4,0.3 -1.65,1.05 l -0.05,0.4 q 0,0.65 0.35,1.1 L 20.75,2 h 1.5 L 23.2,1.55 23.25,1.45 23.3,0.9 23.15,-0.2 m -38.7,0.65 q -0.1,-0.6 -0.8,-0.45 -0.75,0.2 -0.75,0.6 l 0.05,0.3 q 0.15,0.3 0.6,0.3 h 0.2 q 0.7,-0.05 0.7,-0.6 V 0.45 m -6.7,0.75 q 0.7,-0.05 0.7,-0.6 V 0.45 q -0.1,-0.6 -0.8,-0.45 -0.75,0.2 -0.75,0.6 l 0.05,0.3 q 0.15,0.3 0.6,0.3 h 0.2"
         fill="#9a9a9a"
         fill-rule="evenodd"
         stroke="none"
         id="path4" />
      <path
         d="M 24.45,-0.95 H 24.4 V -1 l -0.9,-0.8 -1.85,-0.4 q -2,0 -2.85,1.05 L 18.7,-1 H 18.65 -12 L -13.4,-1.35 -14.6,-1 H -15 L -16.4,-1.35 -17.6,-1 H -18 L -19.4,-1.35 -20.6,-1 H -21 l -1.4,-0.35 -1.2,0.35 h -3.35 l -0.55,-0.2 0.05,-0.9 v -0.05 l -0.05,-0.5 h 1.3 52.35 1.3 l -0.05,0.5 v 0.35 l 0.05,0.3 v 0.1 0.2 l -0.7,0.15 -0.55,0.05 -0.75,0.05 h -1 M 19.9,0.1 q 0.25,-0.75 1.65,-1.05 1.2,-0.25 1.6,0.75 l -0.3,0.6 Q 22.35,0.75 21,0.75 20.4,0.75 20.1,0.4 L 19.9,0.1 m -36.15,1.1 h -0.2 q -0.45,0 -0.6,-0.3 L -17.1,0.6 q 0,-0.4 0.75,-0.6 0.7,-0.15 0.8,0.45 -0.1,0.65 -0.7,0.75 m -5.3,-0.75 q -0.1,0.65 -0.7,0.75 h -0.2 q -0.45,0 -0.6,-0.3 L -23.1,0.6 q 0,-0.4 0.75,-0.6 0.7,-0.15 0.8,0.45"
         fill="#e5e5e5"
         fill-rule="evenodd"
         stroke="none"
         id="path5" />
      <path
         d="m 18.65,-1 q -0.4,0.6 -0.4,1.45 l 0.15,1.15 0.25,0.6 0.15,0.2 0.75,0.8 2,0.45 q 2.2,0 2.95,-1.25 l 0.05,-0.1 0.1,-0.25 0.15,-0.5 0.05,-0.65 -0.1,-0.95 -0.3,-0.9 h 1 L 26.2,-1 l 0.55,-0.05 0.7,-0.15 0.05,1.1 V 0 0.1 L 27.45,2 V 2.65 L 27.5,3.9 v 0.05 l 0.05,0.6 -0.75,0.3 H -26.95 L -28.3,4.7 h 0.7 L -27.55,4 V 3.9 L -27.5,2.7 V 2.45 1.9 1.75 1.35 L -27.55,0.1 V 0 l 0.05,-1.2 0.55,0.2 h 3.35 q -0.8,0.5 -0.8,1.6 l 0.2,1.05 q 0.35,0.6 1.2,0.75 l 0.6,0.05 0.8,-0.05 q 1,-0.15 1.25,-0.7 V 1.65 0.75 Q -20.35,-0.5 -21,-1 h 0.4 l 1.2,-0.35 1.4,0.35 h 0.4 q -0.8,0.5 -0.8,1.6 l 0.2,1.05 q 0.35,0.6 1.2,0.75 l 0.6,0.05 0.8,-0.05 q 1,-0.15 1.25,-0.7 V 1.65 0.75 Q -14.35,-0.5 -15,-1 h 0.4 l 1.2,-0.35 1.4,0.35 h 30.65 m 4.5,0.8 L 23.3,0.9 23.25,1.45 23.2,1.55 22.25,2 h -1.5 L 20.2,1.6 Q 19.85,1.15 19.85,0.5 l 0.05,-0.4 0.2,0.3 q 0.3,0.35 0.9,0.35 1.35,0 1.85,-0.35 l 0.3,-0.6"
         fill="#d6d6d6"
         fill-rule="evenodd"
         stroke="none"
         id="path6" />
    </g>
    <g
       id="sprite1"
       transform="translate(5.4,4)">
      <use
         ffdec:characterId="43"
         height="8"
         transform="translate(-5.4,-4)"
         width="10.8"
         xlink:href="#shape1"
         id="use6" />
    </g>
    <g
       id="shape1"
       transform="translate(5.4,4)">
      <path
         d="m 2.9,-0.35 q 0,-1.25 1.25,-1.25 1.25,0 1.25,1.2 0,1.3 -1.25,1.3 Q 3.6,0.9 3.25,0.5 2.9,0.15 2.9,-0.35 m 0.35,-2.3 q 0,0.55 -0.35,0.9 -0.4,0.45 -1,0.45 -1.35,0 -1.35,-1.4 0,-1.3 1.35,-1.3 1.35,0 1.35,1.35 m -3.1,1.9 h 0.2 q 2.6,0.1 2.6,2.8 l -0.3,1 Q 2.05,4 0.45,4 H 0.35 0.15 0.1 -0.45 q -1.6,0 -2.2,-0.95 l -0.3,-1 q 0,-2.8 2.8,-2.8 h 0.3 M -1.55,-4 q 1.35,0 1.35,1.35 0,0.55 -0.4,0.9 -0.4,0.45 -0.95,0.45 -1.4,0 -1.4,-1.4 0,-1.3 1.4,-1.3 m -2.6,2.4 q 1.25,0 1.25,1.25 0,0.5 -0.35,0.85 -0.35,0.4 -0.9,0.4 -1.25,0 -1.25,-1.3 0,-1.2 1.25,-1.2"
         fill="#6b6b6b"
         fill-rule="evenodd"
         stroke="none"
         id="path7" />
    </g>
    <g
       id="shape2"
       transform="translate(31.4,27.85)">
      <path
         d="m -28.65,-23.6 v -0.3 l -0.05,-1.1 4.55,0.1 h 48.3 l 4.55,-0.1 -0.05,1.1 v 0.5 l -0.5,0.15 -50.75,-0.05 -6.05,-0.3 m 0,4.9 v -1.75 h 57.3 v 1.85 H -28.3 l -0.35,-0.1"
         fill="#ffffff"
         fill-rule="evenodd"
         stroke="none"
         id="path8" />
      <path
         d="m 28.65,-23.4 v -0.5 l 0.05,-1.1 -4.55,0.1 h -48.3 l -4.55,-0.1 0.05,1.1 v 0.3 1.85 l 0.35,0.1 h 56.6 l 0.35,-0.1 v -1.65 m -59.4,22.3 v -0.75 l -0.05,-15.4 0.2,-8.7 V -26 -26.1 q 0,-0.75 0.6,-0.95 l 2.45,-0.3 h 55.1 l 2.45,0.3 q 0.6,0.2 0.6,0.95 v 0.1 0.05 l 0.25,10.2 -0.05,13.9 V -1.1 L 30.75,8 H 30.7 v 12.05 l 0.2,7.3 -0.25,3.1 0.05,0.4 q 0,0.7 -0.45,1 l -0.3,0.15 -5.4,0.35 h -49.1 l -5.4,-0.35 -0.3,-0.15 q -0.45,-0.3 -0.45,-1 l 0.05,-0.4 -0.25,-3.1 0.2,-7.3 V 7.95 7.7 7.15 l -0.05,-8.25 v -0.75 0.75 m 59.4,-17.5 v -1.85 h -57.3 v 1.75 L -28.6,8 v 11.2 l 0.2,7.65 -0.2,3.15 2.55,-0.1 -0.05,-0.25 0.05,-2.2 0.15,-0.75 q 0.1,-0.75 1,-0.5 l 50.75,-0.1 q 0.8,0.1 0.65,0.7 l -0.1,0.35 0.1,1.9 0.05,0.85 L 28.6,30 28.4,26.85 28.6,19.2 28.65,8 v -26.6 m -3.4,48.55 v -0.9 l 0.1,-1.6 -49.5,-0.05 -0.75,-0.05 v 0.15 q 0,1.7 -0.15,2.45 h 0.5 49.1 0.7"
         fill="#6b6b6b"
         fill-rule="evenodd"
         stroke="none"
         id="path9" />
      <path
         d="m -28.65,-23.6 6.05,0.3 50.75,0.05 0.5,-0.15 v 1.65 l -0.35,0.1 h -56.6 l -0.35,-0.1 v -1.85 m 0,4.9 0.35,0.1 H 28.65 V 8 L 28.6,19.2 28.4,26.85 28.6,30 26.55,29.9 26.5,29.05 26.4,27.15 26.5,26.8 q 0.15,-0.6 -0.65,-0.7 l -50.75,0.1 q -0.9,-0.25 -1,0.5 l -0.15,0.75 -0.05,2.2 0.05,0.25 -2.55,0.1 0.2,-3.15 -0.2,-7.65 V 8 l -0.05,-26.7"
         fill="#e2e2e2"
         fill-rule="evenodd"
         stroke="none"
         id="path10" />
      <path
         d="m 25.25,29.95 h -0.7 -49.1 -0.5 q 0.15,-0.75 0.15,-2.45 v -0.15 l 0.75,0.05 49.5,0.05 -0.1,1.6 v 0.9"
         fill="#c9c9c9"
         fill-rule="evenodd"
         stroke="none"
         id="path11" />
      <path
         d="m -30.75,-1.1 v -0.75 l -0.05,-15.4 0.2,-8.7 V -26 -26.1 q 0,-0.75 0.6,-0.95 l 2.45,-0.3 h 55.1 l 2.45,0.3 q 0.6,0.2 0.6,0.95 v 0.1 0.05 l 0.25,10.2 -0.05,13.9 V -1.1 L 30.75,8 M 30.7,8 v 12.05 l 0.2,7.3 -0.25,3.1 0.05,0.4 q 0,0.7 -0.45,1 l -0.3,0.15 -5.4,0.35 h -49.1 l -5.4,-0.35 -0.3,-0.15 q -0.45,-0.3 -0.45,-1 l 0.05,-0.4 -0.25,-3.1 0.2,-7.3 V 7.95 7.7 7.15 l -0.05,-8.25 v -0.75"
         fill="none"
         stroke="#6b6b6b"
         stroke-linecap="round"
         stroke-linejoin="round"
         stroke-width="1"
         id="path12" />
    </g>
  </defs>
</svg>
