<?xml version="1.0" encoding="UTF-8" standalone="no"?>
<svg
   ffdec:objectType="frame"
   height="51.941177"
   width="60.849998"
   version="1.1"
   id="svg7"
   sodipodi:docname="2.svg"
   xmlns:inkscape="http://www.inkscape.org/namespaces/inkscape"
   xmlns:sodipodi="http://sodipodi.sourceforge.net/DTD/sodipodi-0.dtd"
   xmlns:xlink="http://www.w3.org/1999/xlink"
   xmlns="http://www.w3.org/2000/svg"
   xmlns:svg="http://www.w3.org/2000/svg"
   xmlns:ffdec="https://www.free-decompiler.com/flash">
  <sodipodi:namedview
     id="namedview7"
     pagecolor="#ffffff"
     bordercolor="#000000"
     borderopacity="0.25"
     inkscape:showpageshadow="2"
     inkscape:pageopacity="0.0"
     inkscape:pagecheckerboard="0"
     inkscape:deskcolor="#d1d1d1"
     fit-margin-top="5"
     fit-margin-left="5"
     fit-margin-right="5"
     fit-margin-bottom="5" />
  <g
     transform="translate(30.4,25.941176)"
     id="g2">
    <use
       ffdec:characterId="2285"
       height="51.950001"
       transform="translate(-30.4,-25.95)"
       width="60.849998"
       xlink:href="#shape0"
       id="use1" />
    <use
       ffdec:characterId="1691"
       height="8"
       transform="matrix(0.7407,0,0,0.7407,-15.4999,15.5871)"
       width="10.8"
       xlink:href="#sprite0"
       id="use2" />
  </g>
  <defs
     id="defs7">
    <g
       id="shape0"
       transform="translate(30.4,25.95)">
      <path
         d="m 15.85,-24.95 q 1,1.05 2.9,4.2 l 2,3.75 2.05,3.95 3.9,6.85 Q 30.45,0.7 30.45,2.3 22.4,23.2 19.6,25.1 L 19,25.75 18.1,26 h -34.65 q -2.35,-1.4 -7.35,-6.8 l -2.2,-2.5 q -4.3,-2.9 -4.3,-3.85 L -30.35,12 V 11.95 11.3 l 0.45,-3.95 q 0,-1.95 0.8,-4.4 l 0.5,-2.25 1.25,-3.15 -0.05,-0.15 q 0,-1.3 5.5,-4.8 5.8,-3.55 6.1,-4.45 l 1.45,-4.15 0.05,-0.55 q 0.3,-1.8 1,-2.65 l -0.05,-0.3 q 0,-2.2 14.55,-4.95 10.25,-1.95 13.3,-1.35 l 0.45,0.1 0.8,0.65 0.1,0.1 M 26.5,0.85 20.35,-10.45 Q 15.8,-18.7 14.4,-21.8 l -2.4,3.55 q -2.8,4.05 -4.25,5.2 l 1.5,4.7 q 0.85,3.25 0.8,5.65 -1.2,-1.4 -2.35,-5.35 -0.95,-3.3 -0.95,-4.3 v -0.15 q -4.4,1.35 -7.25,1.8 l -2.45,0.15 q -0.95,0 -1.3,-0.3 1.35,-0.9 6.2,-1.85 l 5.15,-0.8 0.15,-0.15 q 0.4,-1.35 2.3,-4.6 2.2,-3.7 4.25,-5.1 v -0.15 l -4.4,1.15 -6.3,1.35 -2.5,0.6 -6.15,1.5 -3.85,0.95 -0.75,0.15 -0.6,0.15 -0.1,0.3 v 0.05 l -0.1,0.35 v 0.2 l -0.7,2.5 -0.1,0.4 -1.6,4.8 -0.1,0.3 -0.45,0.8 0.3,0.65 q 2.2,4.5 3.1,8.7 l -0.05,0.15 -3.05,-5.4 -0.6,-1.2 -0.35,-0.7 -0.4,-0.85 q -1.25,1.3 -3.3,2.6 l -0.65,0.45 -1,0.6 -2.6,1.35 -0.85,0.45 -1.15,0.45 -0.45,0.15 -0.35,1.55 -0.05,0.1 v 0.15 l -0.3,1.1 -0.05,0.2 -0.35,1.65 -0.7,2.9 -1.05,3.95 0.95,-0.2 3.25,-0.35 h 1.65 l -2.5,1 -1.2,0.4 -0.75,0.3 -0.1,0.05 0.35,0.25 0.15,0.05 1,0.75 0.2,0.15 1.05,0.9 1.6,1.3 0.25,0.25 0.05,0.05 1.15,1 0.55,0.55 0.6,0.55 0.4,0.35 0.7,0.65 0.1,0.1 h 0.05 l 0.05,0.05 0.65,0.6 0.75,0.75 2.45,2.45 0.45,-0.1 q 4.15,-0.6 18.6,0.4 l 8.55,0.15 4.45,0.35 -0.05,-0.3 V 23.35 L 19,20.25 25.8,5 26.2,3.95 26.9,2.1 26.95,1.75 26.8,1.4 26.5,0.85"
         fill="#6b6b6b"
         fill-rule="evenodd"
         stroke="none"
         id="path2" />
      <path
         d="m -0.5,-10.7 q 2.85,-0.45 7.25,-1.8 v 0.15 q 0,1 0.95,4.3 1.15,3.95 2.35,5.35 0.05,-2.4 -0.8,-5.65 l -1.5,-4.7 Q 9.2,-14.2 12,-18.25 l 2.4,-3.55 q 1.4,3.1 5.95,11.35 L 26.5,0.85 Q 24.25,1.9 19.25,7 15.3,10.95 12,14.75 L 8.85,17.8 -15,16.25 q 0.3,-1.65 0.3,-2.6 l 0.85,-2.05 q 0,-1.8 -5.7,-0.9 l -3.15,-0.3 -0.9,0.1 -3.25,0.35 -0.95,0.2 1.05,-3.95 q 1.45,-0.5 3.85,-2 l 5.5,-3.4 q 1.5,-0.7 3.2,-6.75 l 0.6,1.2 3.05,5.4 0.05,-0.15 q -0.9,-4.2 -3.1,-8.7 l -0.3,-0.65 0.45,-0.8 q 0.7,0.5 1.85,0.5 l 7.6,-1.65 3.5,-0.8"
         fill="#9c9c9c"
         fill-rule="evenodd"
         stroke="none"
         id="path3" />
      <path
         d="m -26.75,7.1 0.7,-2.9 0.35,-1.65 0.05,-0.2 0.3,-1.1 V 1.1 l 0.05,-0.1 0.35,-1.55 0.45,-0.15 1.15,-0.45 0.85,-0.45 2.6,-1.35 1,-0.6 0.65,-0.45 q 2.05,-1.3 3.3,-2.6 l 0.4,0.85 0.35,0.7 Q -15.9,1 -17.4,1.7 l -5.5,3.4 q -2.4,1.5 -3.85,2 m 13.3,-15.85 0.1,-0.3 1.6,-4.8 0.1,-0.4 0.7,-2.5 v -0.2 l 0.1,-0.35 v -0.05 l 0.3,-0.2 0.1,-0.05 0.3,-0.2 0.75,-0.15 3.85,-0.95 6.15,-1.5 2.5,-0.6 6.3,-1.35 4.4,-1.15 v 0.15 q -2.05,1.4 -4.25,5.1 -1.9,3.25 -2.3,4.6 l -0.15,0.15 -5.15,0.8 q -4.85,0.95 -6.2,1.85 0.35,0.3 1.3,0.3 l 2.45,-0.15 -3.5,0.8 -7.6,1.65 q -1.15,0 -1.85,-0.5"
         fill="#c4c4c4"
         fill-rule="evenodd"
         stroke="none"
         id="path4" />
      <path
         d="M 26.5,0.85 26.8,1.4 26.95,1.75 26.9,2.1 26.2,3.95 25.8,5 19,20.25 17.6,23.35 V 23.5 L 17.65,23.8 13.2,23.45 4.65,23.3 q -14.45,-1 -18.6,-0.4 l -0.45,0.1 -2.45,-2.45 -0.75,-0.75 -0.65,-0.6 -0.05,-0.05 h -0.05 l -0.1,-0.1 -0.7,-0.65 -0.4,-0.35 -0.6,-0.55 -0.55,-0.55 -1.15,-1 -0.05,-0.05 -0.25,-0.25 -1.6,-1.3 -1.05,-0.9 -0.2,-0.15 -1,-0.75 -0.15,-0.05 -0.35,-0.25 0.1,-0.05 0.75,-0.3 1.2,-0.4 2.5,-1 h -1.65 l 0.9,-0.1 3.15,0.3 q 5.7,-0.9 5.7,0.9 l -0.85,2.05 q 0,0.95 -0.3,2.6 L 8.85,17.8 12,14.75 q 3.3,-3.8 7.25,-7.75 5,-5.1 7.25,-6.15"
         fill="#858585"
         fill-rule="evenodd"
         stroke="none"
         id="path5" />
      <path
         d="m 16.15,-2.1 q 0,0.6 -3.1,2.65 l 1.65,0.9 q 3,1.9 3,2.45 0,0.7 -0.65,0.7 -0.5,0 -3,-1.95 L 12.85,1.7 q 0.6,1.65 0.6,2.3 0,0.7 -0.65,0.7 -0.7,0 -1.6,-3.15 l -0.8,-3.1 q 0,-2.5 1.55,1.05 l 0.3,0.7 3.85,-2.5 0.05,0.2 M 10.6,5.6 Q 10,5.6 8.6,2.3 L 7.85,3.85 Q 7.3,4.95 6.8,4.95 6.45,4.95 6.2,4.15 L 5.9,3.1 5.3,1.35 q 0,-0.6 0.5,-0.6 0.45,0 1.3,2.4 0.3,-0.4 0.6,-1.95 l 1.6,0.05 q 1.9,3.2 1.9,3.65 0,0.7 -0.6,0.7 M 1.6,3.25 Q 2.05,1.75 2.35,1.65 3.1,1.35 4.15,2.9 5.1,4.25 5.1,4.9 5.1,5.75 4.75,5.75 L 3.7,5.05 2.4,5.2 H 2.15 l -0.6,1.05 q -0.4,0 -0.4,-0.9 L 1.6,3.25 m 1.15,0.1 -0.2,0.9 0.4,-0.1 H 3.2 L 2.75,3.35 m 0.8,5.35 q 0,0.55 0.55,0.55 0.8,0 0.5,-1.25 L 3.7,8.45 3.55,8.7 m 0.7,-1.25 0.8,0.05 0.95,2 0.8,2 -0.15,0.3 Q 6.5,12 6.25,12 5.95,12 5.5,10.95 L 5.2,10.05 4.9,10.45 4,11.7 3.65,11.2 q 0,-0.5 0.45,-1.15 H 3.8 q -1,0 -1.05,-1.3 0,-1.3 1.5,-1.3 M 1.55,9 2.05,9.3 Q 1.8,9.65 0.95,9.95 L 0.5,10.1 0.75,10.8 1.8,10.55 q 0.9,0 0.9,0.6 0,0.3 -0.8,0.6 L 0.6,12 q -0.65,0 -1,-1.85 L -0.65,9.85 -0.5,9.65 -0.6,9.15 Q -0.6,8.35 0.8,8.2 2.15,8.05 2.15,8.5 L 1.7,8.85 0.2,9.05 0.25,9.3 1.55,9 m 7.4,0.2 q 0,0.5 -1.25,0.6 l 0.15,0.8 1.2,-0.15 q 0.85,0 0.85,0.45 0,0.65 -2.3,0.65 -0.25,0 -0.8,-1.8 L 6.65,9.45 V 9.35 L 6.35,8.2 Q 6.35,7.75 6.8,7.7 L 9.35,7.55 9.4,7.75 9.1,8.05 7.35,8.25 V 8.2 L 7.3,8.35 7.45,8.9 8.15,8.85 q 0.8,0 0.8,0.35 M -1.75,2.15 q 2.1,0 2.1,0.7 0,0.3 -1.3,0.6 l -1,0.2 0.65,1.95 -0.2,0.55 q -0.25,0.35 -0.65,0.35 -0.8,0 -1.5,-2.85 V 3.55 L -3.9,3 -3.85,2.8 -4.1,1.5 -4.3,1 -4.2,0.8 q 0,-2.05 0.9,-0.45 l 2.2,-0.6 3.15,-0.05 q 0,0.2 -2.65,1.05 l -2.2,0.7 0.3,0.75 0.75,-0.05 m -5.8,6 Q -5.7,8.75 -5.7,10 v 0.5 q -0.1,0.45 -0.65,0.45 -1.2,0 -1.4,-0.4 l -0.05,-0.4 0.6,0.1 0.75,-0.05 0.05,-0.3 q 0,-0.7 -0.9,-1 l -0.9,-0.6 0.35,-0.75 1.3,-0.15 0.1,0.2 -0.25,0.3 -0.85,0.25 m -1.5,-0.6 q 0.6,0.85 0.6,1.9 L -8.8,10.35 -9.45,9.2 -9.7,8.05 q 0,-1.4 0.65,-0.5 m 6.05,4.3 q 0,0.7 -0.3,0.7 -0.8,0 -0.6,-1.9 0,-1.45 0.4,-1.8 0.35,0.3 0.45,1.85 L -1.6,10.6 -1.65,9.8 q 0,-2.05 0.55,-0.8 0.5,1.25 0.5,3.05 l -0.15,0.6 -0.15,0.05 q -0.55,0 -0.7,-1.7 l -0.35,0.15 -1.05,0.3 v 0.4"
         fill="#6b6b6b"
         fill-opacity="0.501961"
         fill-rule="evenodd"
         stroke="none"
         id="path6" />
    </g>
    <g
       id="sprite0"
       transform="translate(5.4,4)">
      <use
         ffdec:characterId="43"
         height="8"
         transform="translate(-5.4,-4)"
         width="10.8"
         xlink:href="#shape1"
         id="use6" />
    </g>
    <g
       id="shape1"
       transform="translate(5.4,4)">
      <path
         d="m 2.9,-0.35 q 0,-1.25 1.25,-1.25 1.25,0 1.25,1.2 0,1.3 -1.25,1.3 Q 3.6,0.9 3.25,0.5 2.9,0.15 2.9,-0.35 m 0.35,-2.3 q 0,0.55 -0.35,0.9 -0.4,0.45 -1,0.45 -1.35,0 -1.35,-1.4 0,-1.3 1.35,-1.3 1.35,0 1.35,1.35 m -3.1,1.9 h 0.2 q 2.6,0.1 2.6,2.8 l -0.3,1 Q 2.05,4 0.45,4 H 0.35 0.15 0.1 -0.45 q -1.6,0 -2.2,-0.95 l -0.3,-1 q 0,-2.8 2.8,-2.8 h 0.3 M -1.55,-4 q 1.35,0 1.35,1.35 0,0.55 -0.4,0.9 -0.4,0.45 -0.95,0.45 -1.4,0 -1.4,-1.4 0,-1.3 1.4,-1.3 m -2.6,2.4 q 1.25,0 1.25,1.25 0,0.5 -0.35,0.85 -0.35,0.4 -0.9,0.4 -1.25,0 -1.25,-1.3 0,-1.2 1.25,-1.2"
         fill="#6b6b6b"
         fill-rule="evenodd"
         stroke="none"
         id="path7" />
    </g>
  </defs>
</svg>
