<?xml version="1.0" encoding="UTF-8" standalone="no"?>
<svg
   ffdec:objectType="frame"
   height="36.369286"
   width="33.099998"
   version="1.1"
   id="svg14"
   sodipodi:docname="2.svg"
   xmlns:inkscape="http://www.inkscape.org/namespaces/inkscape"
   xmlns:sodipodi="http://sodipodi.sourceforge.net/DTD/sodipodi-0.dtd"
   xmlns:xlink="http://www.w3.org/1999/xlink"
   xmlns="http://www.w3.org/2000/svg"
   xmlns:svg="http://www.w3.org/2000/svg"
   xmlns:ffdec="https://www.free-decompiler.com/flash">
  <sodipodi:namedview
     id="namedview14"
     pagecolor="#ffffff"
     bordercolor="#000000"
     borderopacity="0.25"
     inkscape:showpageshadow="2"
     inkscape:pageopacity="0.0"
     inkscape:pagecheckerboard="0"
     inkscape:deskcolor="#d1d1d1"
     fit-margin-top="5"
     fit-margin-left="5"
     fit-margin-right="5"
     fit-margin-bottom="5" />
  <g
     transform="translate(16.55,18.619284)"
     id="g4">
    <use
       ffdec:characterId="2059"
       height="35.400002"
       transform="translate(-16.55,-17.65)"
       width="33.099998"
       xlink:href="#shape0"
       id="use1" />
    <use
       ffdec:characterId="2016"
       height="9.0500002"
       transform="matrix(-0.8371,-0.2243,-0.2243,0.8371,8.7119,-19.6898)"
       width="38.099998"
       xlink:href="#sprite0"
       id="use2" />
    <use
       ffdec:characterId="1691"
       height="8"
       transform="matrix(-0.7365,-0.1973,-0.1973,0.7365,3.1665,3.4695)"
       width="10.8"
       xlink:href="#sprite2"
       id="use3" />
    <use
       ffdec:characterId="2011"
       height="5.6999998"
       transform="matrix(-1,0,0,1,1.45,-11.85)"
       width="5.5999999"
       xlink:href="#sprite3"
       id="use4" />
  </g>
  <defs
     id="defs14">
    <g
       id="shape0"
       transform="translate(16.55,17.65)">
      <path
         d="m -3.15,0.4 -1.4,0.1 q -4.1,0 -6.35,-3.35 -1.35,-2.05 -1.5,-3.75 l 0.8,0.1 q 1.05,0 1.45,-0.85 l 0.2,-0.95 q 0,-1 -0.7,-1.25 l 0.5,-0.35 q 2.3,-1.6 5,-2.1 7.3,-1.35 7.3,6.35 0,1.8 -1.1,3.5 L 0.95,-2 0.5,-2.15 -0.05,-3.3 v -0.3 q 0,-2.35 -0.25,-3.65 l -0.25,-1.35 -0.15,-0.7 -0.7,-0.55 -0.55,0.1 q -0.6,0.25 -0.85,1.65 v 3.3 l -0.05,1.7 q -0.4,-1.5 -1.85,-2.55 l -1.25,-0.8 q -3.2,-1.7 -3.2,1.2 l 0.25,1.6 -0.05,0.3 0.1,0.5 0.2,0.15 0.05,0.05 q 0.9,2.5 2.95,2.5 2.15,0 2.7,-0.95 l -0.25,1.2 0.05,0.3"
         fill="#b8b8b8"
         fill-rule="evenodd"
         stroke="none"
         id="path4" />
      <path
         d="m 8.6,-12.65 q -1.25,-2.4 -4.35,-2.4 -1.7,0 -2.2,1.7 l -0.4,1.05 q 2.15,1.7 2.65,4.6 h 0.05 l 1.1,0.25 1.1,0.25 q 1.3,0 2.1,-1.2 0.6,-0.9 0.6,-1.6 0,-1.4 -0.65,-2.65 m -8.9,-0.8 v -0.45 q 0,-2.05 1.9,-3.05 1.8,-1 4.2,-0.6 6.15,0.9 6.15,6.9 0,1.9 -0.5,3.2 -1.1,2.9 -4.3,2.9 1.25,0.95 2,2.2 1.15,1.9 1.15,4.65 0,2.9 -1.1,4.45 l -1,1.1 q 3.5,-0.8 3.5,-4.25 0,-0.9 -0.55,-2.4 -0.55,-1.45 -0.55,-2.85 0,-3.55 2.95,-3.55 3,0.05 3,3.3 l -0.25,0.95 q -0.5,0.9 -1.7,0.9 -0.3,0 -0.6,-0.25 -0.3,-0.25 -0.3,-0.55 l 0.6,-0.65 0.2,-0.2 q 0.1,-0.4 -0.15,-0.7 -0.4,-0.45 -1.4,-0.45 l -0.25,0.15 -0.3,0.85 0.55,2.4 0.4,1.65 q 1,1.9 1,3.1 0,1.05 -0.85,2.55 -1.15,1.95 -3.05,2.2 l 0.1,0.1 0.2,0.7 -0.1,0.6 0.1,1.05 h 0.1 v 0.25 2.3 l -0.3,1.5 L 10.4,17 9.1,17.75 H 0.95 -1.3 -3.25 V 17.7 l -5.8,-0.3 q -1.85,-0.35 -1.85,-1.2 v -0.1 l -0.15,-0.95 V 14.1 13.55 13 12.75 12.5 H -11 q 0.2,-2.5 0.75,-2.75 0.8,-0.7 1.2,-0.2 l 1.65,-0.2 h 4 Q -4.85,8.9 -5.75,8 L -6,7.75 -8.55,7.45 -9.35,7.35 -9.7,7.4 -9.85,7.3 l -1.55,1.65 -0.4,-0.1 -0.1,-0.35 0.2,-0.6 -0.75,0.15 q -0.6,0 -1.05,-0.7 1.5,-0.85 2.25,-1.15 -1.5,-1.25 -1.5,-1.45 l 0.1,-0.4 0.15,-0.1 q 1.7,0.6 2.55,1.2 0.6,-0.4 0.75,0.35 l 1.75,-0.15 h 0.5 L -7.1,4.1 V 3.05 l 0.1,-0.4 -2.75,-1 -0.4,0.2 q -1.25,0.6 -2.45,0.75 l -0.6,0.6 q -1.05,0.85 -1.95,0.85 l -0.55,-0.4 0.7,-0.9 h -0.35 l -0.8,-0.35 -0.4,-0.4 0.05,-0.35 0.2,-0.1 0.75,-0.1 -0.6,-0.8 0.05,-0.35 0.1,-0.1 q 0.75,-0.05 2.2,0.7 l 0.6,0.4 1.75,-0.85 -1.45,-1.65 q -1.75,-2.55 -1.75,-5.7 0,-1.45 0.7,-2.65 -0.85,-0.55 -0.85,-2.3 0,-5 4.75,-5.05 1.85,0 3.3,0.8 1.5,0.85 1.5,1.95 h 0.15 q 2.75,-0.15 4.8,0.7 M -0.05,-3.3 0.5,-2.15 0.95,-2 1.05,-2.15 q 1.1,-1.7 1.1,-3.5 0,-7.7 -7.3,-6.35 -2.7,0.5 -5,2.1 l -0.5,0.35 q 0.7,0.25 0.7,1.25 l -0.2,0.95 q -0.4,0.85 -1.45,0.85 l -0.8,-0.1 q 0.15,1.7 1.5,3.75 2.25,3.35 6.35,3.35 l 1.4,-0.1 0.45,-0.05 0.75,-0.2 h 0.05 l 0.35,-0.1 V 0 L -1.3,-0.1 H -1.5 -1.55 -1.65 -1.9 L -2.45,-0.5 -2.5,-0.8 V -0.9 L -2.45,-1.2 -1.8,-1.7 -2.2,-2 -2.35,-2.15 -2.6,-2.45 -2.75,-3 l 0.1,-0.3 0.25,-0.05 0.05,0.05 0.85,0.35 0.1,0.05 0.3,0.1 -0.05,-0.4 q 0,-1.25 0.5,-0.85 l 0.35,0.35 0.25,0.4 m -2.9,2.2 q -0.55,0.95 -2.7,0.95 -2.05,0 -2.95,-2.5 l -0.05,-0.05 -0.2,-0.15 -0.1,-0.5 0.05,-0.3 -0.25,-1.6 q 0,-2.9 3.2,-1.2 l 1.25,0.8 q 1.45,1.05 1.85,2.55 l 0.15,1.1 -0.05,0.4 -0.2,0.5 M -3.45,3 H -4.6 L -4.65,4.6 Q -4.4,7 0.5,7.2 l 2,-1.85 Q 4.95,3.4 4.95,6 L 3.85,7 4.2,6.9 Q 7.65,5.85 7.65,1.6 7.65,-0.8 5.7,-3.25 L 4.45,-4.85 Q 4.3,-2.9 3.4,-1.05 L 3.15,-0.6 5.95,1.75 5.9,2.1 5.2,2.4 Q 4.95,2.4 2.1,0.8 0.1,3 -3.45,3 m -4.05,-16.8 -0.15,-0.15 q -1,-0.8 -2.05,-0.8 -1.1,0 -1.9,1.15 -0.65,0.95 -0.65,1.65 l 0.1,0.35 0.5,-0.35 q 1.85,-1.35 4.15,-1.85 m -0.6,9.15 0.2,0.6 0.5,-0.05 -0.2,-0.35 -0.4,-0.8 -0.1,0.6 m 2.25,0.25 -0.5,-0.8 -0.75,-0.35 0.3,0.4 0.55,1 0.4,-0.05 V -4.4 M -8.2,13.35 v 0.2 0.2 0.2 0.15 0.7 l -0.1,0.3 5.05,-0.25 V 14.8 H 7.9 v -0.7 -0.55 l 0.05,-0.8 V 12.5 h 0.1 l 0.05,-0.25 -7.7,0.1 0.05,0.05 h -4.1 V 12.35 L -8.3,12.4 v 0.1 h 0.1 v 0.25 0.6"
         fill="#6b6b6b"
         fill-rule="evenodd"
         stroke="none"
         id="path5" />
      <path
         d="m -5.85,-4.4 v 0.2 l -0.4,0.05 -0.55,-1 -0.3,-0.4 0.75,0.35 0.5,0.8 m -2.25,-0.25 0.1,-0.6 0.4,0.8 0.2,0.35 -0.5,0.05 -0.2,-0.6"
         fill="#eeeeee"
         fill-rule="evenodd"
         stroke="none"
         id="path6" />
      <path
         d="M -3.45,3 Q 0.1,3 2.1,0.8 4.95,2.4 5.2,2.4 L 5.9,2.1 5.95,1.75 3.15,-0.6 3.4,-1.05 q 0.9,-1.85 1.05,-3.8 l 1.25,1.6 Q 7.65,-0.8 7.65,1.6 7.65,5.85 4.2,6.9 L 3.85,7 4.95,6 Q 4.95,3.4 2.5,5.35 L 0.5,7.2 Q -4.4,7 -4.65,4.6 L -4.6,3 h 1.15"
         fill="#999999"
         fill-rule="evenodd"
         stroke="none"
         id="path7" />
      <path
         d="m 8.6,-12.65 q 0.65,1.25 0.65,2.65 0,0.7 -0.6,1.6 -0.8,1.2 -2.1,1.2 L 5.45,-7.45 4.35,-7.7 H 4.3 q -0.5,-2.9 -2.65,-4.6 l 0.4,-1.05 q 0.5,-1.7 2.2,-1.7 3.1,0 4.35,2.4 M -7.5,-13.8 q -2.3,0.5 -4.15,1.85 l -0.5,0.35 -0.1,-0.35 q 0,-0.7 0.65,-1.65 0.8,-1.15 1.9,-1.15 1.05,0 2.05,0.8 l 0.15,0.15"
         fill="#d4c3c3"
         fill-rule="evenodd"
         stroke="none"
         id="path8" />
      <path
         d="m -8.2,13.35 v -0.6 -0.25 h -0.1 v -0.1 l 4.65,-0.05 v 0.05 h 4.1 L 0.4,12.35 8.1,12.25 8.05,12.5 h -0.1 v 0.25 l -0.05,0.8 v 0.55 0.7 H -3.25 v 0.05 l -5.05,0.25 0.1,-0.3 v -0.7 -0.15 -0.2 -0.2 -0.2"
         fill="#afa28f"
         fill-rule="evenodd"
         stroke="none"
         id="path9" />
      <path
         d="M -3.15,0.4 -3.2,0.1 -2.95,-1.1 -2.75,-1.6 -2.7,-2 -2.85,-3.1 -2.8,-4.8 v -3.3 q 0.25,-1.4 0.85,-1.65 l 0.55,-0.1 0.7,0.55 0.15,0.7 0.25,1.35 q 0.25,1.3 0.25,3.65 v 0.3 L -0.3,-3.7 -0.65,-4.05 q -0.5,-0.4 -0.5,0.85 l 0.05,0.4 -0.3,-0.1 -0.1,-0.05 -0.85,-0.35 -0.05,-0.05 -0.25,0.05 -0.1,0.3 0.15,0.55 0.25,0.3 0.15,0.15 0.4,0.3 -0.65,0.5 -0.05,0.3 v 0.1 l 0.05,0.3 0.55,0.4 h 0.25 0.1 0.05 0.2 L -1.55,0 V 0.05 L -1.9,0.15 H -1.95 L -2.7,0.35 -3.15,0.4"
         fill="#bdcccc"
         fill-rule="evenodd"
         stroke="none"
         id="path10" />
    </g>
    <g
       id="sprite0"
       transform="translate(2.3,1.5)">
      <use
         ffdec:characterId="2015"
         height="2.9000001"
         transform="matrix(1.2994,0.0307,0.1465,0.7836,-0.7,0.85)"
         width="3"
         xlink:href="#sprite1"
         id="use10" />
    </g>
    <g
       id="sprite1">
      <use
         ffdec:characterId="1134"
         height="6.1500001"
         transform="matrix(0.4615,0,0,0.4715,0,0.0118)"
         width="6.5"
         xlink:href="#shape1"
         id="use11" />
    </g>
    <g
       id="shape1"
       transform="translate(3.25,3.05)">
      <path
         d="m 0.05,-3.05 q 3.2,-0.2 3.2,3.2 0,2.95 -3.1,2.95 -2.35,0 -3.1,-1.5 l -0.3,-1.75 q 0,-2.7 3.3,-2.9"
         fill="#6b6b6b"
         fill-rule="evenodd"
         stroke="none"
         id="path11" />
    </g>
    <g
       id="sprite2"
       transform="translate(5.4,4)">
      <use
         ffdec:characterId="43"
         height="8"
         transform="translate(-5.4,-4)"
         width="10.8"
         xlink:href="#shape2"
         id="use12" />
    </g>
    <g
       id="shape2"
       transform="translate(5.4,4)">
      <path
         d="m 2.9,-0.35 q 0,-1.25 1.25,-1.25 1.25,0 1.25,1.2 0,1.3 -1.25,1.3 Q 3.6,0.9 3.25,0.5 2.9,0.15 2.9,-0.35 m 0.35,-2.3 q 0,0.55 -0.35,0.9 -0.4,0.45 -1,0.45 -1.35,0 -1.35,-1.4 0,-1.3 1.35,-1.3 1.35,0 1.35,1.35 m -3.1,1.9 h 0.2 q 2.6,0.1 2.6,2.8 l -0.3,1 Q 2.05,4 0.45,4 H 0.35 0.15 0.1 -0.45 q -1.6,0 -2.2,-0.95 l -0.3,-1 q 0,-2.8 2.8,-2.8 h 0.3 M -1.55,-4 q 1.35,0 1.35,1.35 0,0.55 -0.4,0.9 -0.4,0.45 -0.95,0.45 -1.4,0 -1.4,-1.4 0,-1.3 1.4,-1.3 m -2.6,2.4 q 1.25,0 1.25,1.25 0,0.5 -0.35,0.85 -0.35,0.4 -0.9,0.4 -1.25,0 -1.25,-1.3 0,-1.2 1.25,-1.2"
         fill="#6b6b6b"
         fill-rule="evenodd"
         stroke="none"
         id="path12" />
    </g>
    <g
       id="sprite3"
       transform="translate(2.8,2.85)">
      <use
         ffdec:characterId="2007"
         height="5.6999998"
         transform="translate(-2.8,-2.85)"
         width="5.5999999"
         xlink:href="#shape3"
         id="use13" />
    </g>
    <g
       id="shape3"
       transform="translate(2.8,2.85)">
      <path
         d="M 2.8,-0.2 2.35,1.5 Q 1.65,2.85 0.2,2.85 -1.4,2.85 -2.2,1.8 -2.8,1.05 -2.8,0.3 q 0,-2.7 2.8,-3.1 2.8,-0.35 2.8,2.6 m -3.55,-1.7 q -1,0 -1,1.05 -0.15,0.9 0.8,0.9 0.45,0 0.85,-0.35 l 0.35,-0.75 q 0,-0.85 -1,-0.85"
         fill="#6b6b6b"
         fill-rule="evenodd"
         stroke="none"
         id="path13" />
      <path
         d="m -0.75,-1.9 q 1,0 1,0.85 L -0.1,-0.3 q -0.4,0.35 -0.85,0.35 -0.95,0 -0.8,-0.9 0,-1.05 1,-1.05"
         fill="#ffffff"
         fill-rule="evenodd"
         stroke="none"
         id="path14" />
    </g>
  </defs>
</svg>
