<?xml version="1.0" encoding="UTF-8" standalone="no"?>
<svg
   ffdec:objectType="frame"
   height="81.650002"
   width="59.75"
   version="1.1"
   id="svg7"
   sodipodi:docname="1.svg"
   xmlns:inkscape="http://www.inkscape.org/namespaces/inkscape"
   xmlns:sodipodi="http://sodipodi.sourceforge.net/DTD/sodipodi-0.dtd"
   xmlns:xlink="http://www.w3.org/1999/xlink"
   xmlns="http://www.w3.org/2000/svg"
   xmlns:svg="http://www.w3.org/2000/svg"
   xmlns:ffdec="https://www.free-decompiler.com/flash">
  <sodipodi:namedview
     id="namedview7"
     pagecolor="#ffffff"
     bordercolor="#000000"
     borderopacity="0.25"
     inkscape:showpageshadow="2"
     inkscape:pageopacity="0.0"
     inkscape:pagecheckerboard="0"
     inkscape:deskcolor="#d1d1d1"
     fit-margin-top="5"
     fit-margin-left="5"
     fit-margin-right="5"
     fit-margin-bottom="5" />
  <g
     transform="translate(29.85,40.45)"
     id="g1">
    <use
       ffdec:characterId="1764"
       height="81.650002"
       transform="translate(-29.85,-40.45)"
       width="59.75"
       xlink:href="#shape0"
       id="use1" />
  </g>
  <defs
     id="defs7">
    <g
       id="shape0"
       transform="translate(29.85,40.45)">
      <path
         d="m 6.3,-27.2 -0.3,1 v 0.95 q 2.8,-4.5 10.8,-8.55 4.2,-2.05 9.7,-4.35 l -2,-0.35 q -4,-0.5 -8.7,0.7 -6.1,1.5 -7.4,4.45 -1.15,2.55 -2.1,6.15 m -4,-3.35 q 1.25,2.6 1.25,6 l -0.05,0.6 v 0.05 l 0.45,-0.2 -0.1,-0.3 v -1.15 q 0,-4.4 2.9,-8.65 4.25,-6.2 12.55,-6.15 v -0.1 h 5.3 q 3.8,0.85 4.7,1.45 0.6,0.35 0.6,1.4 0,0.65 -6.85,3.45 l -7.85,3.15 -5.35,4.05 -1.35,1.1 q 3.05,-0.9 6.4,-1.15 6.2,-0.45 10,1.8 4.55,2.7 4.55,8.9 0,2.25 -0.7,4.15 -1.3,3.55 -4.55,3.55 h -1 l 0.3,0.1 q 3.5,1.3 4.6,3.05 l 0.4,0.95 0.35,0.65 0.4,3.65 0.25,4.2 q 0,2.75 -1.75,7.15 L 27.7,11.2 q -2.15,6.95 -6.65,6.95 -0.65,0 -1.4,-0.4 L 18.35,16.8 16.8,15 l 0.05,3.2 q 0,5.25 -2.75,11.8 -3.2,7.6 -8,10.45 H -7.3 q -4.8,-2.85 -8,-10.45 -2.3,-5.45 -2.65,-9.95 l -0.15,0.1 -2,1.85 q -2.4,1.95 -3.8,1.95 -2.1,0 -3.1,-4.7 l -0.35,-2.65 -0.1,-0.65 v -0.2 l -0.15,-1.25 0.25,-2.4 0.1,-0.85 0.3,-1.15 h -0.35 q -1.85,0 -2.4,-3.7 l -0.15,-3.7 q 0,-3.75 0.6,-5.85 0.6,-2 1.8,-3.35 l 0.9,-1.75 -0.25,-0.45 v -0.65 q 0,-4.35 2.1,-7.8 2.05,-3.4 5.75,-5.05 l 0.7,-0.35 -0.95,-0.05 -4.95,0.5 -1.6,0.25 -2.65,0.6 q -0.7,0 -1.05,-0.6 v -0.05 l -0.2,-0.2 -0.05,-0.55 q 0,-4.65 2.7,-8.3 3.75,-5 11.7,-6.05 l 1.05,-0.1 0.95,-0.15 q 5.85,-0.6 9.75,1.2 1.7,0.7 3,1.85 l 1.35,1.35 1.5,2.3 m -15.65,-1.75 2.8,0.45 q 5.55,-0.1 9.45,3.9 2.05,2.1 2.8,4 L 1.3,-26.2 0.4,-27.95 -0.4,-29.4 q -1.95,-3.25 -4.35,-4.8 -2.7,-1.15 -6.5,-1.15 -7.3,0 -11.05,3.9 l -1.9,2.25 q 5,-3.65 10.85,-3.1 m 24.9,17.05 -2.15,-1.7 -0.9,-0.65 -0.1,1.65 q 1.6,-0.4 3.4,1 l -0.25,-0.3 m 9.15,-9.2 q -3.15,-0.8 -7.6,0 l 2.25,0.8 q 2,0.15 3.75,1.8 l 2.5,2.4 -0.3,0.35 q -2.05,-1.65 -3.8,-2.45 -3.7,-1.7 -9,-1.8 l -5.45,1.95 -0.45,0.15 v 0.1 l 0.75,-0.1 1.6,-0.15 q 1.2,0 3.2,1 2.45,1.25 6.25,4.1 6.75,5.05 8.95,5.05 2.4,0 3.2,-2.5 l 0.35,-2.6 q 0,-5.25 -4.1,-7.35 l -2.1,-0.75 M 6.6,-18.7 4.3,-19.3 q -0.75,0.3 -0.75,0.65 0,1.15 1.1,3.25 l 0.6,1.15 Q 5.7,-14.4 6.4,-14.8 v -0.05 -1 q 0,-1.45 0.3,-2.5 l 0.1,-0.25 -0.2,-0.1 m -6.35,-2.05 -2.25,-0.8 -1.05,1.15 q -0.8,0.65 -1.75,1.05 3.4,1.45 3.8,3.6 l 1.7,0.1 Q 0.35,-17.1 0.2,-20.2 l 0.05,-0.55 M 4.7,-10.65 4.5,-12.3 Q 3.9,-12.35 3.4,-12.75 L 2.65,-13.15 0.9,-13.8 q -2.7,0 -3.4,1.2 l -0.6,0.85 0.35,0.5 q 1.05,1.7 1.05,3.15 0,2.35 -1.8,5.5 L -5,-0.35 -4.2,2.2 -2.45,6.1 Q -0.3,9.2 3.2,9.2 4.65,9.2 6.9,6.8 L 8.8,4.85 Q 7.6,2.85 7.6,0.1 l 0.2,-2.05 0.25,-1.4 0.1,-1 0.05,-0.2 q 0.25,-1.65 1.2,-2.6 1.4,-1.4 4.25,-1.85 l -0.7,-2.65 Q 11.8,-14.5 9.4,-14.5 q -0.5,0 -1.85,1 L 6.85,-13.05 6.3,-12.6 5.75,-5.7 5,0.25 H 4.75 l -0.1,-0.7 -0.1,-0.9 0.55,-6 -0.35,-3.05 -0.05,-0.25 m 12.65,1.45 q -1.45,-0.6 -2.5,-1.65 l 0.1,0.9 V -9.3 H 15 l 0.95,0.1 h 1.4 m 2.4,6.85 V -2.4 l -0.1,-0.2 Q 17.9,-6.35 15.6,-6.35 L 12,-5.9 11.45,-4.8 q -1,2.1 -1,3.55 0,2.55 0.6,4.15 0.95,2.5 3.6,4.35 1.1,0.75 3.6,4.55 l 2.5,3.6 q 1.65,0 3.6,-2.65 l 1.5,-2.5 0.7,-3.2 L 27.4,3.4 27.25,-0.55 Q 26.95,-3.4 25.6,-4.8 l -1.4,-1.05 -5.05,-0.9 q 1.1,0.9 1.75,2.4 l 0.3,1.45 0.65,3.8 Q 21.9,1.1 21.4,1.1 l -1.65,-3.45 m -8.45,12.8 h 2.4 L 12.1,8.3 12.05,8.2 11.3,10.45 M 9.1,8.75 10,10.15 9.95,9.4 q 0,-1.15 0.8,-2.3 L 10,6.45 8.6,8.2 9.1,8.75 M 6.55,10.45 6.5,10.4 V 10.1 L 6,10.45 h 0.55 m 1.15,0 L 7.6,10.4 7.55,10.45 H 7.7 m 5.9,5.9 V 15.9 l 0.15,-2.45 h -28.7 l 0.15,2.45 v 0.55 l 0.25,3.95 0.1,0.75 27.55,0.05 0.15,0.1 0.1,-0.9 0.25,-4.05 M 4.7,37.4 q 6.45,-5 8.35,-15.1 l -27.25,0.1 q 1.85,10.05 8.3,15 H 4.7 M -16.05,-30 q -4.35,0.9 -6.85,2.6 l -3.65,3.25 0.05,0.1 q 1.5,-0.5 2.85,-1.15 l 8.25,-0.6 7.9,0.05 q 2.65,0.2 4.85,1.25 l 3.85,1.8 q -1.7,-2.9 -3.65,-4.35 -3.45,-2.5 -13.6,-2.95 m 8,6.35 -2.9,0.05 -1.35,0.55 -0.9,0.35 -0.45,0.1 -1.7,0.6 -0.65,0.25 q -1.6,0.6 -3,1.8 l -1.35,1.2 -0.9,0.9 -0.65,0.95 -1.2,2.45 -0.5,1.2 -0.05,0.1 -0.65,1.55 2.1,-2.25 0.65,-0.6 q 1.85,-1.6 3.65,-2.3 l 2.25,-0.5 2.2,0.25 4.35,-2.75 -0.9,-0.55 -0.1,-0.1 -1.1,-0.65 -1.75,-0.8 2.95,-0.1 0.35,0.15 0.55,0.25 q 1.05,0.45 1.45,0.95 l 0.05,-0.05 3.55,-1.8 -3.45,-1.2 h -0.55 m 2.6,14.25 -0.35,-0.25 q -1.7,-1.1 -4.1,-1.25 l -0.35,-0.05 -0.15,0.1 q -1.7,-0.1 -4.05,1.2 l -1.45,0.9 0.65,-0.8 q 1.7,-1.9 3.35,-2.25 l -0.5,-0.85 q -0.65,-1.55 -4.25,-1.6 -6.45,4.15 -8.85,9.5 -1.45,3.2 -1.45,6.85 l 0.05,0.7 -0.15,1.35 v 0.8 l 0.05,0.1 -0.05,0.1 0.05,0.75 q 0.2,0.7 1,0.7 h 0.15 V 6.7 Q -15,4.05 -9.6,0.15 q 5.15,-3.7 5.15,-8.25 0,-0.6 -1,-1.3 m -2.05,-4.45 q 1.5,0 2.7,0.6 l 1.05,-1.2 -0.4,-0.5 -0.8,-1.6 Q -5.3,-17.1 -7.3,-17.8 l -1.15,-0.5 -1.25,1 q -1,0.9 -1.95,1.3 1.05,0.8 1.95,2.2 l 2.2,-0.05 m -1.1,24.3 0.85,-0.9 V 9.5 L -8.1,9.4 -7.7,8.85 -7.5,6.7 q 0,-2.55 -0.95,-3.5 v 1.7 q -0.1,4.6 -1.75,5.55 h 1.6 M -6,5 l 0.45,2.8 0.2,-0.3 0.55,-1 Q -6.35,4.15 -6.6,2.35 L -6.95,2.8 -6,5 m 1.85,5.45 -0.6,-0.45 -0.4,0.45 h 1 m -13.7,3.2 0.1,-0.75 0.1,-0.45 -0.15,-0.5 q 0,-0.45 0.4,-0.9 l 0.2,-0.2 q 0.4,-0.75 1,-0.4 h 2.7 l -0.05,-0.25 1.25,-1.5 q 1.25,-1.3 1.25,-3.45 l 0.1,-1.4 -10.55,3.95 -1.95,0.65 h -0.05 l -0.85,0.3 -0.65,0.65 -0.1,0.95 -0.4,3.15 0.45,3.5 0.1,0.4 0.05,0.25 q 0.75,3.25 1.75,3.25 0.65,0 2.4,-1.8 1.75,-1.8 2.7,-1.8 l 0.05,-1.4 0.15,-2.25"
         fill="#6b6b6b"
         fill-rule="evenodd"
         stroke="none"
         id="path1" />
      <path
         d="m -14.8,16.45 h 27.65 l 0.75,-0.1 -0.25,4.05 -0.1,0.9 -0.15,-0.1 -27.55,-0.05 -0.1,-0.75 -0.25,-3.95"
         fill="#8e8e8e"
         fill-rule="evenodd"
         stroke="none"
         id="path2" />
      <path
         d="m -0.55,-34.2 q 2.2,1.35 2.85,3.65 l -1.5,-2.3 -1.35,-1.35 m 14.15,50.55 -0.75,0.1 H -14.8 V 15.9 l -0.15,-2.45 h 28.7 L 13.6,15.9 v 0.45 M -18,15.9 -18.1,15.8 q -0.4,-0.5 -0.4,-1.05 0,-0.45 0.5,-0.95 l 0.15,-0.15 -0.15,2.25"
         fill="#a6a6a6"
         fill-rule="evenodd"
         stroke="none"
         id="path3" />
      <path
         d="M 4.7,37.4 H -5.9 q -6.45,-4.95 -8.3,-15 L 13.05,22.3 Q 11.15,32.4 4.7,37.4"
         fill="#7b7b7b"
         fill-rule="evenodd"
         stroke="none"
         id="path4" />
      <path
         d="m 24.5,-38.5 2,0.35 q -5.5,2.3 -9.7,4.35 -8,4.05 -10.8,8.55 v -0.95 l 0.3,-1 0.1,0.05 q 1.15,-0.95 2.95,-3.6 1.7,-2.5 3.4,-3.65 1.3,-0.85 6.9,-2.25 3.4,-0.85 4.85,-1.85 m -24.1,10.55 0.9,1.75 0.4,2.25 q -0.75,-1.9 -2.8,-4 -3.9,-4 -9.45,-3.9 l -2.8,-0.45 3.5,-0.3 q 3.4,0 7,2.5 l 3.25,2.15 m 7.75,7.55 4.25,0.9 q 6.65,1.45 8.7,1.45 2.3,0 3.1,-0.75 0.5,-0.45 0.5,-1.45 -0.6,-1.8 -2.45,-3.25 l -1.55,-0.95 2.1,0.75 q 4.1,2.1 4.1,7.35 l -0.35,2.6 q -0.8,2.5 -3.2,2.5 -2.2,0 -8.95,-5.05 -3.8,-2.85 -6.25,-4.1 m -1.55,1.7 0.2,0.1 -0.1,0.25 q -0.3,1.05 -0.3,2.5 v 1 0.05 q -0.7,0.4 -1.15,0.55 l -0.6,-1.15 q -1.1,-2.1 -1.1,-3.25 0,-0.35 0.75,-0.65 l 2.3,0.6 m -1.95,18.25 0.1,0.7 H 5 l 0.75,-5.95 0.55,-6.9 0.55,-0.45 0.7,-0.45 q 1.35,-1 1.85,-1 2.4,0 3.55,2.85 L 13.65,-9 Q 10.8,-8.55 9.4,-7.15 8.45,-6.2 8.2,-4.55 l -0.05,0.2 -0.1,1 -0.25,1.4 -0.2,2.05 q 0,2.75 1.2,4.75 L 6.9,6.8 Q 4.65,9.2 3.2,9.2 -0.3,9.2 -2.45,6.1 L -4.2,2.2 -5,-0.35 -3.5,-2.6 q 1.8,-3.15 1.8,-5.5 0,-1.45 -1.05,-3.15 l -0.35,-0.5 0.6,-0.85 q 0.7,-1.2 3.4,-1.2 l 1.75,0.65 0.75,0.4 q 0.5,0.4 1.1,0.45 l 0.2,1.65 -0.2,-0.3 q -1,-1.2 -2.35,-0.65 -3.4,1.4 -3.4,9.75 l 0.35,2.1 q 0.85,1.9 3.35,1.95 l 0.8,0.15 0.2,-0.2 Q 4.5,1.85 4.5,0.8 l 0.15,-1.25 m 22.75,3.85 -0.85,3.65 -0.7,3.2 -1.5,2.5 q -1.95,2.65 -3.6,2.65 l -2.5,-3.6 Q 15.75,8 14.65,7.25 12,5.4 11.05,2.9 q -0.6,-1.6 -0.6,-4.15 0,-1.45 1,-3.55 L 12,-5.9 15.6,-6.35 q 2.3,0 4.05,3.75 l 0.1,0.2 v 0.05 L 17.4,-2.9 q -1.25,0 -1.5,1.65 -0.15,0.8 -0.05,1.8 l 1.7,4.25 q 2.1,4.15 4.3,4.15 3.65,0 5.15,-4.35 l 0.4,-1.2 m -6.2,-6.3 -0.3,-1.45 q -0.65,-1.5 -1.75,-2.4 l 5.05,0.9 1.4,1.05 -0.25,0.1 -1.35,1.1 -2.8,0.7 M 9.1,8.75 8.6,8.2 10,6.45 10.75,7.1 Q 9.95,8.25 9.95,9.4 L 10,10.15 9.1,8.75 M -16.05,-30 q 10.15,0.45 13.6,2.95 1.95,1.45 3.65,4.35 l -3.85,-1.8 q -2.2,-1.05 -4.85,-1.25 l -7.9,-0.05 -8.25,0.6 q -1.35,0.65 -2.85,1.15 l -0.05,-0.1 3.65,-3.25 q 2.5,-1.7 6.85,-2.6 m -1.85,13.25 3.3,-2.1 1.4,-0.9 2,-1.3 1.1,0.65 0.1,0.1 0.9,0.55 -4.35,2.75 -2.2,-0.25 -2.25,0.5 m 7.9,-5.2 1.2,-0.9 0.75,-0.8 h 0.55 l 3.45,1.2 -3.55,1.8 -0.05,0.05 q -0.4,-0.5 -1.45,-0.95 L -9.65,-21.8 -10,-21.95 m -15.5,17.2 q 0.1,0.8 1.2,1.75 1.6,1.45 4.45,1.45 4.15,0 9.4,-3 5,-2.85 5,-4.8 V -9.4 q 1,0.7 1,1.3 0,4.55 -5.15,8.25 -5.4,3.9 -16.25,6.55 V 6.6 H -26 q -0.8,0 -1,-0.7 L -27.05,5.15 -27,5.05 -27.05,4.95 V 4.15 L -26.9,2.8 -26.95,2.1 q 0,-3.65 1.45,-6.85 M -6,5 -6.95,2.8 -6.6,2.35 q 0.25,1.8 1.8,4.15 l -0.55,1 -0.2,0.3 L -6,5 m -7.5,5.45 h -2.7 q -0.6,-0.35 -1,0.4 l -0.2,0.2 q -0.4,0.45 -0.4,0.9 l 0.15,0.5 -0.1,0.45 -0.1,0.75 -0.15,0.15 q -0.5,0.5 -0.5,0.95 0,0.55 0.4,1.05 l 0.1,0.1 -0.05,1.4 q -0.95,0 -2.7,1.8 -1.75,1.8 -2.4,1.8 -1,0 -1.75,-3.25 h 0.1 q 1.65,0 1.65,-1.8 L -23.3,13 q 0.35,-1.8 1.15,-2.95 0.65,-0.85 0.65,-2.1 V 7.8 l 10.55,-3.95 -0.1,1.4 q 0,2.15 -1.25,3.45 l -1.25,1.5 0.05,0.25"
         fill="#98a298"
         fill-rule="evenodd"
         stroke="none"
         id="path5" />
      <path
         d="m 24.5,-38.5 q -1.45,1 -4.85,1.85 -5.6,1.4 -6.9,2.25 -1.7,1.15 -3.4,3.65 -1.8,2.65 -2.95,3.6 L 6.3,-27.2 q 0.95,-3.6 2.1,-6.15 1.3,-2.95 7.4,-4.45 4.7,-1.2 8.7,-0.7 M 0.4,-27.95 -2.85,-30.1 q -3.6,-2.5 -7,-2.5 l -3.5,0.3 q -5.85,-0.55 -10.85,3.1 l 1.9,-2.25 q 3.75,-3.9 11.05,-3.9 3.8,0 6.5,1.15 2.4,1.55 4.35,4.8 l 0.8,1.45 m 2.65,6.55 5.45,-1.95 q 5.3,0.1 9,1.8 1.75,0.8 3.8,2.45 l 0.3,-0.35 -2.5,-2.4 q -1.75,-1.65 -3.75,-1.8 l -2.25,-0.8 q 4.45,-0.8 7.6,0 l 1.55,0.95 q 1.85,1.45 2.45,3.25 0,1 -0.5,1.45 -0.8,0.75 -3.1,0.75 -2.05,0 -8.7,-1.45 l -4.25,-0.9 q -2,-1 -3.2,-1 l -1.6,0.15 -0.3,-0.15 M 4.65,-0.45 4.5,0.8 q 0,1.05 -1.05,1.35 L 3.25,2.35 2.45,2.2 Q -0.05,2.15 -0.9,0.25 l -0.35,-2.1 q 0,-8.35 3.4,-9.75 1.35,-0.55 2.35,0.65 l 0.2,0.3 0.05,0.25 0.35,3.05 -0.55,6 0.1,0.9 M 27.4,3.4 27,4.6 q -1.5,4.35 -5.15,4.35 -2.2,0 -4.3,-4.15 l -1.7,-4.25 q -0.1,-1 0.05,-1.8 0.25,-1.65 1.5,-1.65 l 2.35,0.55 1.65,3.45 q 0.5,0 0.45,-0.2 L 21.2,-2.9 24,-3.6 25.35,-4.7 25.6,-4.8 q 1.35,1.4 1.65,4.25 L 27.4,3.4 m -45.3,-20.15 q -1.8,0.7 -3.65,2.3 l -0.65,0.6 -2.1,2.25 0.65,-1.55 0.05,-0.1 0.5,-1.2 1.2,-2.45 0.65,-0.95 0.9,-0.9 1.35,-1.2 q 1.4,-1.2 3,-1.8 l 0.65,-0.25 1.7,-0.6 0.45,-0.1 0.9,-0.35 1.35,-0.55 2.9,-0.05 -0.75,0.8 -1.2,0.9 -2.95,0.1 1.75,0.8 -2,1.3 -1.4,0.9 -3.3,2.1 m 12.45,7.35 v 0.05 q 0,1.95 -5,4.8 -5.25,3 -9.4,3 -2.85,0 -4.45,-1.45 -1.1,-0.95 -1.2,-1.75 2.4,-5.35 8.85,-9.5 3.6,0.05 4.25,1.6 l 0.5,0.85 q -1.65,0.35 -3.35,2.25 l -0.65,0.8 1.45,-0.9 q 2.35,-1.3 4.05,-1.2 l 0.15,-0.1 0.35,0.05 q 2.4,0.15 4.1,1.25 l 0.35,0.25 M -21.5,7.8 v 0.15 q 0,1.25 -0.65,2.1 -0.8,1.15 -1.15,2.95 l 0.15,2.85 q 0,1.8 -1.65,1.8 h -0.1 l -0.05,-0.25 -0.1,-0.4 -0.45,-3.5 0.4,-3.15 0.1,-0.95 0.65,-0.65 0.85,-0.3 h 0.05 L -21.5,7.8"
         fill="#afbbaf"
         fill-rule="evenodd"
         stroke="none"
         id="path6" />
      <path
         d="m 16.8,15 0.05,3.2 q 0,5.25 -2.75,11.8 -3.2,7.6 -8,10.45 H -7.3 q -4.8,-2.85 -8,-10.45 -2.3,-5.45 -2.65,-9.95 m 29.25,-9.6 h 2.4 m -7.7,0 h 0.55 m 1,0 H 7.7 m -17.9,0 h 1.6 m 3.45,0 h 1 m -13.7,3.2 0.1,-0.75 0.1,-0.45 -0.15,-0.5 q 0,-0.45 0.4,-0.9 l 0.2,-0.2 q 0.4,-0.75 1,-0.4 h 2.7 m -4.55,6.85 0.05,-1.4 0.15,-2.25"
         fill="none"
         stroke="#6b6b6b"
         stroke-linecap="round"
         stroke-linejoin="round"
         stroke-width="1.5"
         id="path7" />
    </g>
  </defs>
</svg>
