<?xml version="1.0" encoding="UTF-8" standalone="no"?>
<svg
   ffdec:objectType="frame"
   height="36.01923"
   width="21.549999"
   version="1.1"
   id="svg2"
   sodipodi:docname="1.svg"
   xmlns:inkscape="http://www.inkscape.org/namespaces/inkscape"
   xmlns:sodipodi="http://sodipodi.sourceforge.net/DTD/sodipodi-0.dtd"
   xmlns:xlink="http://www.w3.org/1999/xlink"
   xmlns="http://www.w3.org/2000/svg"
   xmlns:svg="http://www.w3.org/2000/svg"
   xmlns:ffdec="https://www.free-decompiler.com/flash">
  <sodipodi:namedview
     id="namedview2"
     pagecolor="#ffffff"
     bordercolor="#000000"
     borderopacity="0.25"
     inkscape:showpageshadow="2"
     inkscape:pageopacity="0.0"
     inkscape:pagecheckerboard="0"
     inkscape:deskcolor="#d1d1d1"
     fit-margin-top="5"
     fit-margin-left="5"
     fit-margin-right="5"
     fit-margin-bottom="5" />
  <g
     transform="translate(10.75,18.019231)"
     id="g1">
    <use
       ffdec:characterId="3773"
       height="36"
       transform="translate(-10.75,-18)"
       width="21.549999"
       xlink:href="#shape0"
       id="use1" />
  </g>
  <defs
     id="defs2">
    <g
       id="shape0"
       transform="translate(10.75,18)">
      <path
         d="m 0.95,-15.15 v 4.7 H 7.7 q 0.45,0 0.7,0.35 l 0.15,0.2 H 8.7 q 2.1,0 2.1,1.15 L 10.55,-8.1 Q 10.1,-7.7 8.7,-7.7 L 4.3,-8.05 Q 4.05,-8.2 4,-8.7 H 0.95 v 7.35 l 0.3,-0.05 q 0.8,0 0.8,1.3 V 0.1 0.25 L 2,0.7 Q 1.8,1.45 1.15,1.45 L 0.95,1.4 v 5.1 l 0.15,5.9 q -0.05,1.5 0.15,2.4 h 1.4 l 3.7,0.05 q 0.4,-0.05 0.7,0.3 L 7.3,15.8 v 0.1 h 1.5 q 1.05,0.25 1.05,1.05 0,0.8 -1.05,1.05 H -9.1 q -1.1,-0.25 -1.1,-1.05 0,-0.8 1.1,-1.05 h 1.5 v -0.1 l 0.25,-0.65 q 0.3,-0.35 0.7,-0.3 l 3.7,-0.05 h 1.4 q 0.2,-0.9 0.15,-2.4 L -1.25,6.5 V 1 L -1.5,0.9 -3.85,0.95 v 0.2 L -4.2,1.8 -4.85,2.05 H -5 l -0.1,8.8 0.05,0.2 -0.05,0.25 v 0.2 h -0.05 q -0.4,2.3 -2.65,2.3 -1.55,0 -2,-1.9 V 11.2 H -9.85 V 11.05 L -9.95,10 -9.8,9.3 -9.7,2.05 -10.15,2 V 1.7 q -0.6,-0.2 -0.6,-0.7 0,-0.45 0.5,-0.65 L -10.1,0.3 V 0.1 h 0.4 l 0.05,-2.35 q -0.85,-0.25 -0.9,-0.95 0.05,-0.75 1.05,-0.9 l 4.45,0.1 q 1.05,0.2 1.05,0.9 0,0.75 -0.95,0.9 v 1.45 l 0.55,-0.05 1.25,-0.15 1.9,0.15 V -8 l -0.4,0.1 q -0.55,0 -0.8,-0.7 L -2.5,-9.35 q 0,-1.2 1.1,-1.6 h 0.15 v -4.2 l 0.1,-2.1 q 0.25,-1 1,-0.7 0.7,-0.25 1,0.7 l 0.1,2.1 M -6.4,-2.2 h -1.8 v 2.3 h 1.8 V -2.2 M -6.55,2 H -7.7 l 0.5,0.15 H -8 -8.2 l -0.15,9.35 q 0.25,0.9 0.9,0.9 0.5,0 0.75,-0.55 v -0.1 -0.25 h 0.15 L -6.45,2 h -0.1"
         fill="#6b6b6b"
         fill-rule="evenodd"
         stroke="none"
         id="path1" />
      <path
         d="m -6.4,-2.2 v 2.3 h -1.8 v -2.3 h 1.8 M -6.55,2 h 0.1 l -0.1,9.5 H -6.7 v 0.25 0.1 q -0.25,0.55 -0.75,0.55 -0.65,0 -0.9,-0.9 L -8.2,2.15 H -8 -7.2 L -7.7,2 h 1.15"
         fill="#e2e2e2"
         fill-opacity="0.301961"
         fill-rule="evenodd"
         stroke="none"
         id="path2" />
    </g>
  </defs>
</svg>
