<?xml version="1.0" encoding="UTF-8" standalone="no"?>
<svg
   ffdec:objectType="frame"
   height="17"
   width="40.368752"
   version="1.1"
   id="svg13"
   sodipodi:docname="2.svg"
   xmlns:inkscape="http://www.inkscape.org/namespaces/inkscape"
   xmlns:sodipodi="http://sodipodi.sourceforge.net/DTD/sodipodi-0.dtd"
   xmlns:xlink="http://www.w3.org/1999/xlink"
   xmlns="http://www.w3.org/2000/svg"
   xmlns:svg="http://www.w3.org/2000/svg"
   xmlns:ffdec="https://www.free-decompiler.com/flash">
  <sodipodi:namedview
     id="namedview13"
     pagecolor="#ffffff"
     bordercolor="#000000"
     borderopacity="0.25"
     inkscape:showpageshadow="2"
     inkscape:pageopacity="0.0"
     inkscape:pagecheckerboard="0"
     inkscape:deskcolor="#d1d1d1"
     fit-margin-top="5"
     fit-margin-left="5"
     fit-margin-right="5"
     fit-margin-bottom="5" />
  <g
     transform="translate(19.51875,7.8)"
     id="g2">
    <use
       ffdec:characterId="3500"
       height="8"
       transform="matrix(-1.0905,0.073,-0.0447,-1.0063,12.3173,0.531)"
       width="10.8"
       xlink:href="#sprite0"
       id="use1" />
    <use
       ffdec:characterId="4349"
       height="18.549999"
       transform="translate(-21.75,-9.35)"
       width="50.75"
       xlink:href="#sprite1"
       id="use2" />
  </g>
  <defs
     id="defs13">
    <g
       id="sprite0"
       transform="translate(5.4,4)">
      <use
         ffdec:characterId="43"
         height="8"
         transform="translate(-5.4,-4)"
         width="10.8"
         xlink:href="#shape0"
         id="use3" />
    </g>
    <g
       id="shape0"
       transform="translate(5.4,4)">
      <path
         d="m 2.9,-0.35 q 0,-1.25 1.25,-1.25 1.25,0 1.25,1.2 0,1.3 -1.25,1.3 Q 3.6,0.9 3.25,0.5 2.9,0.15 2.9,-0.35 m 0.35,-2.3 q 0,0.55 -0.35,0.9 -0.4,0.45 -1,0.45 -1.35,0 -1.35,-1.4 0,-1.3 1.35,-1.3 1.35,0 1.35,1.35 m -3.1,1.9 h 0.2 q 2.6,0.1 2.6,2.8 l -0.3,1 Q 2.05,4 0.45,4 H 0.35 0.15 0.1 -0.45 q -1.6,0 -2.2,-0.95 l -0.3,-1 q 0,-2.8 2.8,-2.8 h 0.3 M -1.55,-4 q 1.35,0 1.35,1.35 0,0.55 -0.4,0.9 -0.4,0.45 -0.95,0.45 -1.4,0 -1.4,-1.4 0,-1.3 1.4,-1.3 m -2.6,2.4 q 1.25,0 1.25,1.25 0,0.5 -0.35,0.85 -0.35,0.4 -0.9,0.4 -1.25,0 -1.25,-1.3 0,-1.2 1.25,-1.2"
         fill="#6b6b6b"
         fill-opacity="0.498039"
         fill-rule="evenodd"
         stroke="none"
         id="path3" />
    </g>
    <g
       id="sprite1"
       transform="translate(25.65,10.05)">
      <use
         ffdec:characterId="4346"
         height="13.95"
         transform="translate(-9.9,-7.6)"
         width="7.3499999"
         xlink:href="#sprite2"
         id="use4" />
      <use
         ffdec:characterId="4346"
         height="13.95"
         transform="translate(-3.15,-7.6)"
         width="7.3499999"
         xlink:href="#sprite2"
         id="use5" />
      <use
         ffdec:characterId="4346"
         height="13.95"
         transform="translate(3.3,-7.6)"
         width="7.3499999"
         xlink:href="#sprite2"
         id="use6" />
      <use
         ffdec:characterId="4346"
         height="13.95"
         transform="matrix(0.6922,0.7217,-0.7217,0.6922,-14.6609,-9.8449)"
         width="7.3499999"
         xlink:href="#sprite2"
         id="use7" />
      <use
         ffdec:characterId="4346"
         height="13.95"
         transform="translate(9.6,-7.6)"
         width="7.3499999"
         xlink:href="#sprite2"
         id="use8" />
      <use
         ffdec:characterId="4347"
         height="17"
         transform="translate(-15.9,-8.5)"
         width="31.85"
         xlink:href="#shape2"
         id="use9" />
    </g>
    <g
       id="sprite2"
       transform="translate(3.65,6.95)">
      <use
         ffdec:characterId="4345"
         height="13.95"
         transform="translate(-3.65,-6.95)"
         width="7.3499999"
         xlink:href="#shape1"
         id="use10" />
    </g>
    <g
       id="shape1"
       transform="translate(3.65,6.95)">
      <path
         d="M -0.05,-6.95 Q 0.7,-7.1 0.7,-2.6 0.85,-0.65 0.65,0.2 3.7,0.1 3.7,2.95 3.7,4.2 3.1,5.3 2.15,7 0.1,7 -2.1,7 -3.05,5.7 q -0.6,-0.75 -0.6,-1.6 0,-3.1 3,-3.7 -0.35,-0.9 -0.15,-2.95 0,-4.3 0.75,-4.4 m 0.6,9 -0.65,-0.1 Q -1.85,1.75 -2,3.15 V 3.4 q 0,0.6 0.6,1.1 0.65,0.55 1.5,0.55 1.5,0 1.65,-2.1 0,-0.65 -1.2,-0.9"
         fill="#6b6b6b"
         fill-rule="evenodd"
         stroke="none"
         id="path10" />
      <path
         d="m -2,3.15 q 0.15,-1.4 1.9,-1.2 l 0.65,0.1 V 2.4 l -0.2,0.7 q -0.35,0.55 -1,0.55 -1,0 -1.35,-0.5"
         fill="#ffffff"
         fill-rule="evenodd"
         stroke="none"
         id="path11" />
      <path
         d="m -2,3.15 q 0.35,0.5 1.35,0.5 0.65,0 1,-0.55 L 0.55,2.4 V 2.05 Q 1.75,2.3 1.75,2.95 1.6,5.05 0.1,5.05 -0.75,5.05 -1.4,4.5 -2,4 -2,3.4 V 3.15"
         fill="#cccccc"
         fill-rule="evenodd"
         stroke="none"
         id="path12" />
    </g>
    <g
       id="shape2"
       transform="translate(15.9,8.5)">
      <path
         d="M 9.6,-5.3 9.55,-5.65 H -9.5 l -0.05,0.35 q -0.15,1.6 -1.2,6.5 L -12,6.05 q 1.55,0.25 1.55,1.45 0,0.65 -0.3,0.95 l -0.1,0.05 h -4.65 l -0.25,-0.25 -0.15,-0.7 q 0,-1.15 1.65,-1.45 V 6.05 l 0.6,-3.7 0.9,-4.05 q 0.3,-0.65 0.5,-1.9 l 0.4,-1.7 0.05,-0.2 0.05,-0.15 h -2.1 q -1.3,-0.15 -1.3,-1.5 0,-1.1 1.3,-1.3 h 0.25 l 0.15,-0.05 H 13.5 l 0.2,0.05 h 0.2 q 1.3,0.2 1.3,1.3 0,1.35 -1.3,1.5 h -2.1 l 0.05,0.15 0.05,0.2 0.4,1.7 q 0.2,1.25 0.5,1.9 l 0.9,4.05 0.6,3.7 V 6.1 q 1.65,0.3 1.65,1.45 L 15.8,8.25 15.55,8.5 H 10.9 L 10.8,8.45 Q 10.5,8.15 10.5,7.5 10.5,6.3 12.05,6.05 L 10.8,1.2 Q 9.75,-3.7 9.6,-5.3"
         fill="#6b6b6b"
         fill-rule="evenodd"
         stroke="none"
         id="path13" />
    </g>
  </defs>
</svg>
