<?xml version="1.0" encoding="UTF-8" standalone="no"?>
<svg
   ffdec:objectType="frame"
   height="119.19559"
   width="73.055832"
   version="1.1"
   id="svg69"
   sodipodi:docname="2.svg"
   xmlns:inkscape="http://www.inkscape.org/namespaces/inkscape"
   xmlns:sodipodi="http://sodipodi.sourceforge.net/DTD/sodipodi-0.dtd"
   xmlns:xlink="http://www.w3.org/1999/xlink"
   xmlns="http://www.w3.org/2000/svg"
   xmlns:svg="http://www.w3.org/2000/svg"
   xmlns:ffdec="https://www.free-decompiler.com/flash">
  <sodipodi:namedview
     id="namedview69"
     pagecolor="#ffffff"
     bordercolor="#000000"
     borderopacity="0.25"
     inkscape:showpageshadow="2"
     inkscape:pageopacity="0.0"
     inkscape:pagecheckerboard="0"
     inkscape:deskcolor="#d1d1d1"
     fit-margin-top="5"
     fit-margin-left="5"
     fit-margin-right="5"
     fit-margin-bottom="5" />
  <g
     transform="translate(36.602916,62.35004)"
     id="g35">
    <use
       ffdec:characterId="64"
       height="83.199997"
       transform="translate(-27.05,-55.75)"
       width="53.049999"
       xlink:href="#shape0"
       id="use1" />
    <use
       ffdec:characterId="4"
       height="23.950001"
       transform="matrix(0,1.8653,-1.1486,0,0.6,-9.7)"
       width="22.200001"
       xlink:href="#sprite0"
       id="use2" />
    <use
       ffdec:characterId="4"
       height="23.950001"
       transform="matrix(0,-1.8652,-1.1485,1e-4,0.85,-7.35)"
       width="22.200001"
       xlink:href="#sprite0"
       id="use3" />
    <use
       ffdec:characterId="4"
       height="23.950001"
       transform="matrix(0,1.8653,1.1486,0,-1.6,-9.7)"
       width="22.200001"
       xlink:href="#sprite0"
       id="use4" />
    <use
       ffdec:characterId="4"
       height="23.950001"
       transform="matrix(0,-1.8652,1.1485,1e-4,-1.85,-7.35)"
       width="22.200001"
       xlink:href="#sprite0"
       id="use5" />
    <use
       ffdec:characterId="16"
       height="20.65"
       transform="matrix(0,0.6014,-0.6014,0,-6.05,-40.8)"
       width="15.85"
       xlink:href="#sprite1"
       id="use6" />
    <use
       ffdec:characterId="16"
       height="20.65"
       transform="matrix(0,0.6014,0.6014,0,5.45,-40.8)"
       width="15.85"
       xlink:href="#sprite1"
       id="use7" />
    <use
       ffdec:characterId="61"
       height="8.9499998"
       transform="translate(-7.95,-57.15)"
       width="15.2"
       xlink:href="#sprite2"
       id="use8" />
    <use
       ffdec:characterId="61"
       height="8.9499998"
       transform="translate(-32.45,-32.65)"
       width="15.2"
       xlink:href="#sprite2"
       id="use9" />
    <use
       ffdec:characterId="61"
       height="8.9499998"
       transform="translate(16.9,-32.65)"
       width="15.2"
       xlink:href="#sprite2"
       id="use10" />
    <use
       ffdec:characterId="48"
       height="17.799999"
       transform="translate(-16.75,37.25)"
       width="35.75"
       xlink:href="#sprite3"
       id="use11" />
    <use
       ffdec:characterId="44"
       height="8"
       transform="matrix(1.0972,0,0,1.0972,-6.425,-12.8889)"
       width="10.8"
       xlink:href="#sprite4"
       id="use12" />
    <use
       ffdec:characterId="65"
       height="12.55"
       transform="translate(-27.1,26.45)"
       width="53"
       xlink:href="#shape6"
       id="use13" />
    <use
       ffdec:characterId="36"
       height="22.75"
       transform="matrix(0.4728,0,0,0.4728,21.25,-40.5174)"
       width="11.6"
       xlink:href="#sprite5"
       id="use14" />
    <use
       ffdec:characterId="42"
       height="17.15"
       transform="matrix(0.4728,0,0,0.4728,-3.05,-62.9174)"
       width="10.65"
       xlink:href="#sprite7"
       id="use15" />
    <use
       ffdec:characterId="38"
       height="28.200001"
       transform="matrix(0.4728,0,0,0.4728,-27.15,-43.5174)"
       width="10.1"
       xlink:href="#sprite8"
       id="use16" />
    <use
       ffdec:characterId="14"
       height="10.25"
       transform="matrix(-0.2239,-0.5463,-0.5463,0.2239,37.65,30.9)"
       width="25.700001"
       xlink:href="#sprite9"
       id="use17" />
    <use
       ffdec:characterId="16"
       height="20.65"
       transform="matrix(-0.2239,-0.5463,-0.5463,0.2239,39.5,38.05)"
       width="15.85"
       xlink:href="#sprite10"
       id="use18" />
    <use
       ffdec:characterId="14"
       height="10.25"
       transform="matrix(0.2239,-0.5463,0.5463,0.2239,-37.8,30.9)"
       width="25.700001"
       xlink:href="#sprite9"
       id="use19" />
    <use
       ffdec:characterId="16"
       height="20.65"
       transform="matrix(0.2239,-0.5463,0.5463,0.2239,-39.65,38.05)"
       width="15.85"
       xlink:href="#sprite10"
       id="use20" />
    <use
       ffdec:characterId="14"
       height="10.25"
       transform="matrix(0.5703,-0.1528,-0.1528,-0.5703,15.05,47.05)"
       width="25.700001"
       xlink:href="#sprite11"
       id="use21" />
    <use
       ffdec:characterId="16"
       height="20.65"
       transform="matrix(0.5703,-0.1528,-0.1528,-0.5703,7.7,47.95)"
       width="15.85"
       xlink:href="#sprite12"
       id="use22" />
    <use
       ffdec:characterId="14"
       height="10.25"
       transform="matrix(-0.5703,-0.1528,0.1528,-0.5703,-15.05,47.05)"
       width="25.700001"
       xlink:href="#sprite11"
       id="use23" />
    <use
       ffdec:characterId="16"
       height="20.65"
       transform="matrix(-0.5703,-0.1528,0.1528,-0.5703,-7.7,47.95)"
       width="15.85"
       xlink:href="#sprite12"
       id="use24" />
    <use
       ffdec:characterId="67"
       height="10.7"
       transform="matrix(0,-1,-1,0,-25.5,27.15)"
       width="27.1"
       xlink:href="#sprite13"
       id="use25" />
    <use
       ffdec:characterId="42"
       height="17.15"
       transform="matrix(0.6732,0,0,0.6732,-29.8,-12.2578)"
       width="10.65"
       xlink:href="#sprite14"
       id="use26" />
    <use
       ffdec:characterId="18"
       height="10.95"
       transform="translate(-34.75,-2.35)"
       width="17.6"
       xlink:href="#sprite16"
       id="use27" />
    <use
       ffdec:characterId="59"
       height="12.8"
       transform="matrix(0.9052,0,0,1,-24.85,23.95)"
       width="54.549999"
       xlink:href="#sprite17"
       id="use28" />
    <use
       ffdec:characterId="22"
       height="52.75"
       transform="matrix(1,0,0,0.9402,-29.95,7.25)"
       width="7.5999999"
       xlink:href="#sprite18"
       id="use29" />
    <use
       ffdec:characterId="67"
       height="10.7"
       transform="rotate(-90,26.25,0.9)"
       width="27.1"
       xlink:href="#sprite13"
       id="use30" />
    <use
       ffdec:characterId="38"
       height="28.200001"
       transform="matrix(0.6732,0,0,0.6732,22.2,-17.9578)"
       width="10.1"
       xlink:href="#sprite19"
       id="use31" />
    <use
       ffdec:characterId="18"
       height="10.95"
       transform="matrix(-1,0,0,1,34.6,-2.35)"
       width="17.6"
       xlink:href="#sprite16"
       id="use32" />
    <use
       ffdec:characterId="22"
       height="52.75"
       transform="matrix(-1,0,0,0.9402,29.8,7.25)"
       width="7.5999999"
       xlink:href="#sprite18"
       id="use33" />
    <use
       ffdec:characterId="69"
       height="1.5"
       id="subplatform1"
       transform="matrix(0.0343,0,0,0.86,-22.5179,26.57)"
       width="1320.3"
       xlink:href="#sprite20" />
    <use
       ffdec:characterId="71"
       height="8.9499998"
       transform="matrix(0.8385,0,0,0.8385,-32.35,-0.5)"
       width="15.2"
       xlink:href="#sprite21"
       id="use34" />
    <use
       ffdec:characterId="71"
       height="8.9499998"
       transform="matrix(0.8385,0,0,0.8385,19.4,-0.5)"
       width="15.2"
       xlink:href="#sprite21"
       id="use35" />
  </g>
  <defs
     id="defs69">
    <g
       id="shape0"
       transform="translate(27.05,55.75)">
      <path
         d="m 13.6,-45.4 0.05,-0.8 H 9.2 q -4.1,0.05 -8.25,-3.4 v 0.7 l -0.05,5.55 0.3,5.55 q -0.05,5.55 -1.6,7.65 -1,-0.65 -1.25,-6.1 l -0.1,-7.2 -0.1,-5.5 0.05,-0.8 q -4.25,3.6 -8.45,3.55 h -4.45 l 0.05,0.8 q 0.05,1.7 -0.2,3.55 0,0.85 -0.55,4.65 -0.6,2.8 -2.15,5.4 -2.55,4.4 -6.3,5.1 0.15,1.5 0.15,3.8 l -0.05,5.5 -0.1,1.2 0.15,11.55 V 9.8 l 0.1,5.15 2.8,-2.8 5.4,-4.55 0.1,0.35 q -1.05,2.25 -4.15,5.3 l -3.2,3.15 0.95,0.1 q 4.3,0.75 4.75,2.75 0.15,2.45 2,4.3 l 4.05,-0.05 v -0.1 h 10.15 l 0.25,0.05 0.2,-0.05 H 9.85 v 0.1 l 4.05,0.05 q 1.85,-1.85 2,-4.3 0.45,-2 4.75,-2.75 L 21.6,16.4 18.4,13.25 Q 15.3,10.2 14.25,7.95 l 0.1,-0.35 5.4,4.55 2.8,2.8 0.1,-5.15 V -4.65 l 0.15,-11.55 -0.1,-1.2 -0.05,-5.5 q 0,-2.3 0.15,-3.8 -3.75,-0.7 -6.3,-5.1 -1.55,-2.6 -2.15,-5.4 Q 13.8,-41 13.8,-41.85 13.55,-43.7 13.6,-45.4 M 0.7,-52.7 h 0.7 q 3.35,2.4 9.85,3.15 l 3.9,0.75 q 0.1,-0.45 0.3,0.1 1.1,0.4 1.1,1 l -0.3,0.6 0.3,1.95 -0.05,0.9 0.7,2.85 q 0.45,7.65 4.65,9.95 0.35,0.2 2.8,1.05 1.25,0.45 1.25,1.25 l -0.1,3.15 0.1,3.05 -0.1,5.35 v 0.15 0.45 l 0.1,12.35 V 9.8 l 0.1,6.8 -0.05,5.1 q -0.3,5 -1.7,5 -0.4,0 -0.75,-0.4 l -3.85,0.4 H 16 q -0.9,0.75 -2.2,0.75 -1,0 -1.5,-0.8 L 9.85,26.7 H -0.3 -0.5 -0.75 -10.9 l -2.45,-0.05 q -0.5,0.8 -1.5,0.8 -1.3,0 -2.2,-0.75 h -3.65 l -3.85,-0.4 q -0.35,0.4 -0.75,0.4 -1.4,0 -1.7,-5 l -0.05,-5.1 0.1,-6.8 V -4.65 l 0.1,-12.35 v -0.45 -0.15 l -0.1,-5.35 0.1,-3.05 -0.1,-3.15 q 0,-0.8 1.25,-1.25 2.45,-0.85 2.8,-1.05 4.2,-2.3 4.65,-9.95 l 0.7,-2.85 -0.05,-0.9 0.3,-1.95 -0.3,-0.6 q 0,-0.6 1.1,-1 0.2,-0.55 0.3,-0.1 l 3.9,-0.75 q 6.5,-0.75 9.9,-3.15 h 0.9 q 0.1,-3.25 1.1,-3.05 0.95,0.15 1.1,3.05 m -19.55,75.55 q -0.85,-4.6 -3.75,-4.6 l -1,0.2 v 3.2 l -0.15,2.05 3.05,-0.2 2,0.05 -0.15,-0.7 m 41.4,-4.4 -1,-0.2 q -2.9,0 -3.75,4.6 l -0.15,0.7 2,-0.05 3.05,0.2 -0.15,-2.05 v -3.2"
         fill="#9a9a9a"
         fill-rule="evenodd"
         stroke="none"
         id="path35" />
    </g>
    <g
       id="sprite0">
      <use
         ffdec:characterId="3"
         height="23.950001"
         width="22.200001"
         xlink:href="#shape1"
         id="use36" />
    </g>
    <g
       id="shape1">
      <path
         d="M 22.2,1 Q 21.95,1.3 22.05,1.75 L 20.1,2.05 Q 18.7,4.2 18.7,7.45 L 18.55,8.4 21.8,9.8 V 10 l -0.45,0.15 q -2.1,0 -6.6,-1.75 -2.05,1.4 -3,3.05 -0.95,1.65 -0.95,3.85 l -0.05,0.45 1.7,2.9 L 12,19.1 10.25,16.6 10,16.7 9.55,16.2 V 16 q -4.85,0.3 -6.4,1.3 -0.3,0.15 -0.65,0.4 l -0.85,1.4 v 4.05 L 1.5,23.65 Q 1.35,23.9 0.95,23.95 L 0.3,23.3 0.25,6.15 0.3,2.85 0.4,1.75 0.15,1.5 V 1.45 L 0,0.95 Q 0,0.5 0.95,0 H 18.4 l 3.5,0.4 q -0.25,0.35 0.2,0.55 L 22.2,1 M 19.15,2.15 Q 16,3.8 13.25,5.95 L 17.65,8 17.6,7.6 q 0,-1.95 0.85,-4.05 l 0.7,-1.4 M 12,5.35 Q 14.9,3 17.2,2 h -6.35 l -1,2.2 0.35,-0.05 0.25,0.35 -0.15,0.05 1.7,0.8 m 2,2.7 -2.25,-0.9 -3.45,3.25 -0.45,0.45 2,3.35 Q 10.3,12.8 11.45,10.95 12.7,9 14,8.05 M 9.45,2 h -5.9 q 2.6,0.75 5.6,2.05 L 9.25,2.65 9.45,2 M 7.7,5.3 3.1,3 4.35,5.05 6,7.85 q 0.3,-1 1.3,-2.1 L 7.7,5.3 M 1.7,8.5 2,8.35 4.7,8.05 1.7,3.1 V 6.2 8.5 M 1.9,10 1.65,10.15 v 6 Q 3.05,13.9 6.3,10.6 L 5.4,9.15 2.85,9.35 1.9,10 M 6.6,8.75 7.15,9.75 8.1,8.8 10.5,6.6 8.5,5.7 7.7,6.75 6.6,8.75 M 3.9,15.9 Q 6.95,14.8 9.15,15 l -2.1,-3.25 q -1.9,2 -3.45,4.3 L 3.9,15.9"
         fill="#9a9a9a"
         fill-rule="evenodd"
         stroke="none"
         id="path36" />
    </g>
    <g
       id="sprite1">
      <use
         ffdec:characterId="15"
         height="20.65"
         width="15.85"
         xlink:href="#shape2"
         id="use37" />
    </g>
    <g
       id="shape2">
      <path
         d="M 1.05,20.65 Q 0,20.65 0,19.9 L 3.5,16.45 Q 7.45,12.4 9.35,8.5 L 11.9,2.75 q 1.2,-3.85 2.65,-2.3 1.3,1.3 1.3,3.1 0,3.9 -6.5,10.7 -6.15,6.4 -8.3,6.4"
         fill="#9a9a9a"
         fill-rule="evenodd"
         stroke="none"
         id="path37" />
    </g>
    <g
       id="sprite2">
      <use
         ffdec:characterId="60"
         height="8.9499998"
         width="15.2"
         xlink:href="#shape3"
         id="use38" />
    </g>
    <g
       id="shape3">
      <path
         d="M 13.2,2.05 H 13 L 12.5,2.2 q -0.4,0 -0.75,-0.35 -0.4,-0.4 -0.75,-0.4 -0.6,0 -1.15,0.4 0.5,0.45 0.7,1.25 l 2.3,0.15 q 2.35,0.9 2.35,2.4 L 15.05,6.35 14.6,6.75 13.5,5.6 q -0.75,-0.85 -2.05,-0.85 -0.35,0 -0.65,0.3 l -0.1,0.6 0.25,0.1 q 1.45,0.6 1.45,1.2 v 1.1 q -0.2,0.9 -0.9,0.9 L 11.05,8.9 11.15,8.8 11,8.5 Q 11.6,7 10.2,6.65 H 10.15 Q 9.45,7.25 8.05,7.3 H 7.8 7.6 7.4 7.15 Q 6,7.15 5.3,6.6 L 5,6.65 Q 3.6,7 4.2,8.5 L 4.05,8.8 4.15,8.9 3.7,8.95 Q 3,8.95 2.8,8.05 v -1.1 q 0,-0.6 1.45,-1.2 L 4.7,5.6 4.65,5.2 4.55,5.15 Q 4.15,4.75 3.75,4.75 2.45,4.75 1.7,5.6 L 0.6,6.75 0.15,6.35 Q 0,6.15 0,5.65 0,4.15 2.35,3.25 L 4.65,3.1 Q 4.85,2.3 5.35,1.85 4.8,1.45 4.2,1.45 3.85,1.45 3.45,1.85 L 2.7,2.2 Q 1.95,2.2 2.2,2.05 H 2 L 1.95,1.55 q 0,-1.9 2.65,-1.45 1.5,0.3 2.35,1.15 h 0.6 0.1 0.6 Q 9.1,0.4 10.6,0.1 q 2.65,-0.45 2.65,1.45 l -0.05,0.5"
         fill="#9a9a9a"
         fill-rule="evenodd"
         stroke="none"
         id="path38" />
    </g>
    <g
       id="sprite3">
      <use
         ffdec:characterId="47"
         height="17.799999"
         width="35.75"
         xlink:href="#shape4"
         id="use39" />
    </g>
    <g
       id="shape4">
      <path
         d="M 35.75,1.1 35.4,1.5 35,1.8 H 31.55 Q 30.95,3.4 27.95,5.5 25.8,6.95 23.5,7.75 L 23.2,8.5 v 0.05 l 0.1,1.05 0.05,2.75 -0.05,5.15 -0.55,0.3 Q 22,16.95 22,15.25 l 0.1,-2.9 V 11 q -2.25,4.2 -5.65,4.2 -5,0 -6.7,-5.2 Q 9.25,8.55 9.1,6.85 L 7.25,5.8 Q 3.85,3.65 3.85,2.05 V 1.75 H 0.7 L 0,1.05 0.7,0.4 H 24.1 V 0.35 L 24.9,0.4 35,0.35 35.75,1.1 M 27.8,3.9 29.85,1.8 H 24.9 v 0.05 l 0.9,0.85 q 1.15,0.95 2,1.2 M 24,6.1 26.85,4.6 q -1,-0.35 -1.8,-1.4 L 24.75,2.75 24,6.1 M 23.2,1.8 H 10.25 q 0.3,1.1 0.95,1.7 1.75,1.7 6.35,1.7 1.2,0 3.6,-1.7 L 23.2,1.95 V 1.8 m -1.35,2.85 q -2.15,1.6 -3.8,1.6 -4.75,0 -7,-1.9 L 10,3.2 q 0,1.55 0.25,2.9 3.05,1.05 7.55,1.05 l 4.4,-0.5 0.1,-0.4 0.45,-2.35 -0.9,0.75 M 21.7,8.25 17.85,8.6 H 17.5 L 18,9.8 q 0.9,1.25 2.45,1.4 L 21.7,8.25 m -4.35,2.3 q -0.75,-1.1 -0.8,-2 -3.3,-0.15 -6,-1.1 1.55,5.9 7.45,5.9 0.95,0 1.85,-1.2 -1.5,-0.15 -2.5,-1.6 M 9.05,4.7 V 1.8 L 4.6,1.75 5,2.35 Q 5.8,3.55 6.9,4.4 L 9.05,5.65 V 4.7"
         fill="#9a9a9a"
         fill-rule="evenodd"
         stroke="none"
         id="path39" />
    </g>
    <g
       id="sprite4"
       transform="translate(5.4,4)">
      <use
         ffdec:characterId="43"
         height="8"
         transform="translate(-5.4,-4)"
         width="10.8"
         xlink:href="#shape5"
         id="use40" />
    </g>
    <g
       id="shape5"
       transform="translate(5.4,4)">
      <path
         d="m 2.9,-0.35 q 0,-1.25 1.25,-1.25 1.25,0 1.25,1.2 0,1.3 -1.25,1.3 Q 3.6,0.9 3.25,0.5 2.9,0.15 2.9,-0.35 m 0.35,-2.3 q 0,0.55 -0.35,0.9 -0.4,0.45 -1,0.45 -1.35,0 -1.35,-1.4 0,-1.3 1.35,-1.3 1.35,0 1.35,1.35 m -3.1,1.9 h 0.2 q 2.6,0.1 2.6,2.8 l -0.3,1 Q 2.05,4 0.45,4 H 0.35 0.15 0.1 -0.45 q -1.6,0 -2.2,-0.95 l -0.3,-1 q 0,-2.8 2.8,-2.8 h 0.3 M -1.55,-4 q 1.35,0 1.35,1.35 0,0.55 -0.4,0.9 -0.4,0.45 -0.95,0.45 -1.4,0 -1.4,-1.4 0,-1.3 1.4,-1.3 m -2.6,2.4 q 1.25,0 1.25,1.25 0,0.5 -0.35,0.85 -0.35,0.4 -0.9,0.4 -1.25,0 -1.25,-1.3 0,-1.2 1.25,-1.2"
         fill="#818181"
         fill-rule="evenodd"
         stroke="none"
         id="path40" />
    </g>
    <g
       id="shape6"
       transform="translate(27.1,-26.45)">
      <path
         d="M 24.25,35.85 H 20 l 0.05,-2.3 -0.1,-1.6 h 1.95 q 1.5,0.1 2.3,-0.55 l 0.3,-0.25 0.35,0.4 q 0.65,0.9 0.65,1.85 0,1.55 -1.25,2.45 m -5.85,-3.75 0.15,1.4 0.05,1.85 0.1,0.5 -37.75,-0.05 v -3.95 l 37.45,0.1 v 0.15 m -43,-2.1 -0.05,0.15 0.1,0.45 0.15,0.3 -0.05,0.15 v 0.2 l 0.25,0.5 0.6,0.2 1.1,-0.25 1.4,0.15 h 0.1 0.7 l -0.05,2.55 0.05,1.4 -1.45,-0.1 h -0.4 l -1.85,0.15 -0.8,0.25 -0.1,0.1 -0.35,-0.2 q -0.8,-0.35 -1.3,-1.05 -0.55,-0.85 -0.55,-1.75 0,-2.85 2.5,-3.2"
         fill="#727272"
         fill-rule="evenodd"
         stroke="none"
         id="path41" />
      <path
         d="m 18.4,32.1 v -0.15 l -37.45,-0.1 V 35.8 L 18.7,35.85 18.6,35.35 18.55,33.5 18.4,32.1 m 6.1,-0.95 -0.3,0.25 q -0.8,0.65 -2.3,0.55 h -1.95 l 0.1,1.6 -0.05,2.3 h 4.25 q 0.8,0.1 1.2,0.8 l 0.25,0.75 -0.45,0.7 -1.05,0.7 -47.05,0.2 q -2,0 -2.55,-0.8 l -0.2,-0.85 q 0,-0.75 0.7,-1.15 l 0.1,-0.1 0.8,-0.25 1.85,-0.15 h 0.4 l 1.45,0.1 -0.05,-1.4 0.05,-2.55 h -0.7 -0.1 l -1.4,-0.15 -1.1,0.25 -0.6,-0.2 -0.25,-0.5 v -0.2 l 0.05,-0.15 -0.15,-0.3 -0.1,-0.45 0.05,-0.15 0.2,-0.4 q -0.6,-0.5 -0.6,-1.5 0,-1.1 1.7,-1.65 h 47.5 q 0.8,0.1 1.3,0.8 0.4,0.55 0.4,1 0,0.45 -0.4,0.95 l -0.7,0.55 0.05,0.3 q 0,0.6 -0.35,1.1"
         fill="#6b6b6b"
         fill-rule="evenodd"
         stroke="none"
         id="path42" />
    </g>
    <g
       id="sprite5"
       transform="translate(0,1.2)">
      <use
         ffdec:characterId="35"
         height="16.799999"
         transform="translate(0,4.75)"
         width="11.6"
         xlink:href="#shape7"
         id="use42" />
      <use
         ffdec:characterId="9"
         height="8.3000002"
         transform="translate(4.85,-1.2)"
         width="3.45"
         xlink:href="#sprite6"
         id="use43" />
    </g>
    <g
       id="shape7"
       transform="translate(0,-4.75)">
      <path
         d="m 11.15,7.25 v 13.7 L 11,21.05 q -0.6,0.4 -2.25,0.4 L 4.55,21.3 3.55,21.55 3,21.5 2,21.55 q -1.35,0 -1.8,-0.95 L 0,19.65 Q 0,19 0.6,17.7 1.1,16.55 2.1,14.95 L 2,12.5 2.2,12.4 v -0.2 q 0,-0.95 0.55,-1.35 L 2.7,10.65 Q 2.7,9.2 6.35,7.7 V 6.6 Q 6.5,4.85 7.6,4.75 l 0.1,0.3 Q 7.1,5.85 7.2,6.7 l 0.1,0.6 2.45,-0.85 0.3,-0.1 Q 10.5,6.05 10.9,5.95 L 11.15,5.6 v 0.3 l 0.2,-0.05 0.25,0.45 -0.2,0.2 -0.25,0.75 m -6.6,5.1 -0.2,3.6 0.05,0.3 -0.25,-0.3 -0.1,-0.1 -0.9,1.35 Q 2,18.55 1.9,19.1 v 0.1 q 0,0.35 1.2,0.6 L 4.15,20.15 4.4,19.1 4.45,18.15 q 0.85,-1.3 1.1,-0.75 l 0.05,1.25 2.95,-0.1 h 0.7 L 8.85,13.3 v -3.1 l -0.7,0.45 -0.2,0.6 0.45,3.8 -0.05,1 q -0.2,0.6 -1,1 H 5.95 Q 5.35,16.75 5.2,16.3 l -0.05,-0.55 0.1,-1.2 0.15,-0.15 0.45,1 Q 6,16.05 6.3,16.05 l 1.05,-0.15 -0.4,-3.7 0.1,-0.95 -1.25,0.6 -0.15,0.95 -0.3,0.25 -0.3,-0.9 -0.5,0.2 M 6.4,9.1 5.15,10.25 6.35,10.2 7.75,8.5 7.45,8.65 H 7.4 L 7,8.85 6.4,9.1"
         fill="#9a9a9a"
         fill-rule="evenodd"
         stroke="none"
         id="path43" />
      <path
         d="M 6.4,9.1 7,8.85 7.4,8.65 H 7.45 L 7.75,8.5 6.35,10.2 5.15,10.25 6.4,9.1 m -1.85,3.25 0.5,-0.2 0.3,0.9 0.3,-0.25 0.15,-0.95 1.25,-0.6 -0.1,0.95 0.4,3.7 -1.05,0.15 Q 6,16.05 5.85,15.4 l -0.45,-1 -0.15,0.15 -0.1,1.2 0.05,0.55 q 0.15,0.45 0.75,0.75 h 1.4 q 0.8,-0.4 1,-1 l 0.05,-1 -0.45,-3.8 0.2,-0.6 0.7,-0.45 v 3.1 l 0.4,5.25 H 8.55 L 5.6,18.65 5.55,17.4 Q 5.3,16.85 4.45,18.15 L 4.4,19.1 4.15,20.15 3.1,19.8 Q 1.9,19.55 1.9,19.2 V 19.1 Q 2,18.55 3.15,17.2 l 0.9,-1.35 0.1,0.1 0.25,0.3 -0.05,-0.3 0.2,-3.6"
         fill="#9d9d9d"
         fill-rule="evenodd"
         stroke="none"
         id="path44" />
    </g>
    <g
       id="sprite6"
       transform="translate(0.7,1.2)">
      <use
         ffdec:characterId="6"
         height="6.3499999"
         width="2.6500001"
         xlink:href="#shape8"
         id="use44" />
    </g>
    <g
       id="shape8">
      <path
         d="m 1.7,2.65 0.15,0.1 V 2.65 H 1.7 M 2,0 2.6,2.3 2.65,3.9 2.55,5.35 q -0.25,1 -1.2,1 -0.85,0 -1.2,-0.95 L 0,4.45 Q 0,3.4 0.7,1.75 1.45,0.05 2,0 M 1.15,4.25 V 4.1 L 1.05,4.45 1.2,4.85 1.15,4.25"
         fill="#d2d2d2"
         fill-opacity="0.74902"
         fill-rule="evenodd"
         stroke="none"
         id="path45" />
    </g>
    <g
       id="sprite7"
       transform="translate(0,1.2)">
      <use
         ffdec:characterId="41"
         height="11.6"
         transform="translate(0,4.35)"
         width="10.65"
         xlink:href="#shape9"
         id="use45" />
      <use
         ffdec:characterId="9"
         height="8.3000002"
         transform="matrix(-1,0,0,1,9.65,-1.2)"
         width="3.45"
         xlink:href="#sprite6"
         id="use46" />
    </g>
    <g
       id="shape9"
       transform="translate(0,-4.35)">
      <path
         d="M 8.2,4.35 8.3,4.4 8.35,4.7 7.85,5.6 Q 7.5,5.9 7.4,6.55 7.85,6.6 8.25,7 L 9,7.8 q 0.75,1.15 0.9,2 l 0.75,0.4 v 5.25 l -0.15,0.1 q -0.6,0.4 -2.25,0.4 L 2.65,15.6 1.25,15.8 Q 0,15.8 0,14.8 0,13.9 0.45,13.05 0.9,12.25 1.65,11.9 V 10.4 L 1.55,8.4 1.8,8.35 1.7,7.95 Q 1.7,7.3 2.4,7.05 2.85,6.5 4.15,6.1 L 6.35,6.05 6.5,5.35 q 0.35,-0.7 1.7,-1 M 4.55,8 6.3,9.4 7.05,9.2 7.8,9 H 8.1 L 7.3,7.5 V 7.55 L 7.1,7.75 7,8.35 6.55,8.6 Q 6.1,8.15 6.1,7.55 V 7.45 L 5.5,7.1 4.4,7.25 4.55,7.85 V 8 m -0.6,1.15 -0.1,1.3 0.05,2.8 0.5,-0.05 v -0.05 q 0,-1.45 0.4,-2.2 0.85,0.2 0.7,0.9 L 5.2,12.75 5.35,13.1 5.4,13.15 6.45,13.1 Q 6.75,12.85 6.6,12.25 L 6.45,11.5 6.05,10.45 4.3,9.4 3.95,9.15 m 3.4,3.1 v 0.85 l 0.7,-0.05 h 0.7 L 8.5,10.7 7.3,10.9 7.35,12.25"
         fill="#9a9a9a"
         fill-rule="evenodd"
         stroke="none"
         id="path46" />
      <path
         d="M 7.35,12.25 7.3,10.9 8.5,10.7 8.75,13.05 h -0.7 l -0.7,0.05 v -0.85 m -3.4,-3.1 0.35,0.25 1.75,1.05 0.4,1.05 0.15,0.75 q 0.15,0.6 -0.15,0.85 L 5.4,13.15 5.35,13.1 5.2,12.75 5.5,11.85 q 0.15,-0.7 -0.7,-0.9 -0.4,0.75 -0.4,2.2 v 0.05 l -0.5,0.05 -0.05,-2.8 0.1,-1.3 M 4.55,8 V 7.85 L 4.4,7.25 5.5,7.1 6.1,7.45 v 0.1 q 0,0.6 0.45,1.05 L 7,8.35 7.1,7.75 7.3,7.55 V 7.5 L 8.1,9 H 7.8 L 7.05,9.2 6.3,9.4 4.55,8"
         fill="#9d9d9d"
         fill-rule="evenodd"
         stroke="none"
         id="path47" />
    </g>
    <g
       id="sprite8"
       transform="translate(0,1.2)">
      <use
         ffdec:characterId="37"
         height="21.700001"
         transform="translate(0,5.3)"
         width="10.1"
         xlink:href="#shape10"
         id="use47" />
      <use
         ffdec:characterId="9"
         height="8.3000002"
         transform="translate(3.45,-1.2)"
         width="3.45"
         xlink:href="#sprite6"
         id="use48" />
    </g>
    <g
       id="shape10"
       transform="translate(5.05,8.2)">
      <path
         d="M 1,-7.2 0.85,-5.45 2,-5.15 2.55,-5.4 Q 4.1,-6.1 4.9,-6.05 l 0.1,0.1 0.05,0.35 q 0,0.3 -0.4,0.65 V 13 L 4.5,13.1 2.25,13.5 -4,12.95 Q -4.4,12.8 -4.4,12 l 0.15,-0.55 -0.1,-1.05 V 7.95 L -4.6,2 -5.05,1.2 V -0.05 L -4.7,-2.8 -4.9,-2.9 -4.95,-3.35 q 0,-1.3 1.4,-1.3 H -3.5 Q -3.1,-5 -2.6,-5 l 1.45,0.3 0.95,-0.65 0.35,-0.1 -0.2,-0.9 L 0,-7.2 q 0.1,-0.45 0.55,-1 0.45,0.25 0.45,1 m -0.65,3.85 -2.2,0.4 V -1 q 0,3.95 -0.3,9 l 0.05,2.8 4.15,-0.2 h 0.7 Q 2.45,8.7 2.35,5.35 v -1.5 h -0.1 q -1.75,0 -2.2,-1.3 L -0.1,1.1 0.25,-1.55 0.55,-3.3 0.35,-3.35 m 1.5,-0.4 -0.1,0.5 -0.25,0.05 q 0.4,1.1 0.25,1.75 L 1.25,1 1.3,1.75 q 0.2,0.5 0.95,0.5 h 0.1 L 2.3,-2.35 2.35,-3.9 1.85,-3.75"
         fill="#9a9a9a"
         fill-rule="evenodd"
         stroke="none"
         id="path48" />
      <path
         d="M 1.85,-3.75 2.35,-3.9 2.3,-2.35 2.35,2.25 H 2.25 Q 1.5,2.25 1.3,1.75 L 1.25,1 1.75,-1.45 Q 1.9,-2.1 1.5,-3.2 l 0.25,-0.05 0.1,-0.5 m -1.5,0.4 0.2,0.05 -0.3,1.75 -0.35,2.65 0.15,1.45 q 0.45,1.3 2.2,1.3 h 0.1 v 1.5 q 0.1,3.35 0.4,5.25 H 2.05 L -2.1,10.8 -2.15,8 q 0.3,-5.05 0.3,-9 v -1.95 l 2.2,-0.4"
         fill="#9d9d9d"
         fill-rule="evenodd"
         stroke="none"
         id="path49" />
    </g>
    <g
       id="sprite9">
      <use
         ffdec:characterId="13"
         height="10.25"
         width="25.700001"
         xlink:href="#shape11"
         id="use49" />
    </g>
    <g
       id="shape11">
      <path
         d="m 22.5,2.75 q 0.5,0.4 0.5,1.1 0,1.2 -1.05,1.95 -1.25,0.95 -4.2,1.5 H 11.2 Q 8.45,7.1 7.05,6.45 L 4.6,4.9 10.65,5 q 3.45,0 8.6,-1.3 L 22.5,2.75"
         fill="#727272"
         fill-rule="evenodd"
         stroke="none"
         id="path50" />
      <path
         d="m 23.95,0.4 q 0.95,0.45 1.45,1.7 0.35,0.95 0.3,2 0,2.15 -1.2,3.45 -1.75,1.9 -6.2,2.6 l -8.45,0.1 Q 0,8.25 0,3.3 0,2.15 0.5,2 L 7.8,1.75 16.05,0.95 19.9,0.45 21.55,0.1 q 1.7,-0.3 2.4,0.3 M 22.5,2.75 19.25,3.7 Q 14.1,5 10.65,5 L 4.6,4.9 7.05,6.45 Q 8.45,7.1 11.2,7.3 h 6.55 Q 20.7,6.75 21.95,5.8 23,5.05 23,3.85 23,3.15 22.5,2.75"
         fill="#6b6b6b"
         fill-rule="evenodd"
         stroke="none"
         id="path51" />
    </g>
    <g
       id="sprite10">
      <use
         ffdec:characterId="15"
         height="20.65"
         width="15.85"
         xlink:href="#shape12"
         id="use51" />
    </g>
    <g
       id="shape12">
      <path
         d="M 1.05,20.65 Q 0,20.65 0,19.9 L 3.5,16.45 Q 7.45,12.4 9.35,8.5 L 11.9,2.75 q 1.2,-3.85 2.65,-2.3 1.3,1.3 1.3,3.1 0,3.9 -6.5,10.7 -6.15,6.4 -8.3,6.4"
         fill="#6b6b6b"
         fill-rule="evenodd"
         stroke="none"
         id="path52" />
    </g>
    <g
       id="sprite11">
      <use
         ffdec:characterId="13"
         height="10.25"
         width="25.700001"
         xlink:href="#shape11"
         id="use52" />
    </g>
    <g
       id="sprite12">
      <use
         ffdec:characterId="15"
         height="20.65"
         width="15.85"
         xlink:href="#shape12"
         id="use53" />
    </g>
    <g
       id="sprite13">
      <use
         ffdec:characterId="66"
         height="10.7"
         width="27.1"
         xlink:href="#shape13"
         id="use54" />
    </g>
    <g
       id="shape13">
      <path
         d="m 26.4,3.55 q 0.7,0.75 0.7,1.8 l -0.45,2 q -0.9,2 -3.45,2 -0.95,0 -1.65,-0.6 L 20.7,8.1 q -0.25,0 -2.65,1.3 -2.45,1.3 -5.5,1.3 -3.6,0 -5.85,-1.5 L 4.2,6.75 Q 2.8,5.3 0.85,4.15 0,3.65 0,2.2 0,0.85 0.9,0.3 1.45,-0.05 2.35,0 3.65,0 5.65,0.9 L 5.7,0.95 7.55,2.7 q 2.2,1.55 5.75,1.55 3,0 4.75,-1.05 1.75,-1.1 3.7,-1.1 3.35,0 4.65,1.45 m -1.35,1.8 q 0,-0.2 -0.9,-0.65 -1,-0.5 -1.95,-0.5 -1.1,0 -3.7,1.3 l -3.05,1.4 h -4.2 Q 8.4,6.6 6.2,4.2 4.3,2.1 1.75,2.55 2.8,3.1 5.8,5.95 q 3.25,2.6 6.8,2.6 2.4,0 4.95,-1.35 2.6,-1.35 3.4,-1.35 0.4,0 1.2,0.7 L 23.5,7.2 q 0.7,0 1.15,-0.75 0.4,-0.6 0.4,-1.1"
         fill="#6b6b6b"
         fill-rule="evenodd"
         stroke="none"
         id="path54" />
      <path
         d="m 25.05,5.35 q 0,0.5 -0.4,1.1 Q 24.2,7.2 23.5,7.2 L 22.15,6.55 q -0.8,-0.7 -1.2,-0.7 -0.8,0 -3.4,1.35 Q 15,8.55 12.6,8.55 9.05,8.55 5.8,5.95 2.8,3.1 1.75,2.55 4.3,2.1 6.2,4.2 8.4,6.6 11.25,6.9 h 4.2 L 18.5,5.5 q 2.6,-1.3 3.7,-1.3 0.95,0 1.95,0.5 0.9,0.45 0.9,0.65"
         fill="#7b7b7b"
         fill-rule="evenodd"
         stroke="none"
         id="path55" />
    </g>
    <g
       id="sprite14"
       transform="translate(0,1.2)">
      <use
         ffdec:characterId="41"
         height="11.6"
         transform="translate(0,4.35)"
         width="10.65"
         xlink:href="#shape14"
         id="use55" />
      <use
         ffdec:characterId="9"
         height="8.3000002"
         transform="matrix(-1,0,0,1,9.65,-1.2)"
         width="3.45"
         xlink:href="#sprite15"
         id="use56" />
    </g>
    <g
       id="shape14"
       transform="translate(0,-4.35)">
      <path
         d="M 8.2,4.35 8.3,4.4 8.35,4.7 7.85,5.6 Q 7.5,5.9 7.4,6.55 7.85,6.6 8.25,7 L 9,7.8 q 0.75,1.15 0.9,2 l 0.75,0.4 v 5.25 l -0.15,0.1 q -0.6,0.4 -2.25,0.4 L 2.65,15.6 1.25,15.8 Q 0,15.8 0,14.8 0,13.9 0.45,13.05 0.9,12.25 1.65,11.9 V 10.4 L 1.55,8.4 1.8,8.35 1.7,7.95 Q 1.7,7.3 2.4,7.05 2.85,6.5 4.15,6.1 L 6.35,6.05 6.5,5.35 q 0.35,-0.7 1.7,-1 M 4.55,8 6.3,9.4 7.05,9.2 7.8,9 H 8.1 L 7.3,7.5 V 7.55 L 7.1,7.75 7,8.35 6.55,8.6 Q 6.1,8.15 6.1,7.55 V 7.45 L 5.5,7.1 4.4,7.25 4.55,7.85 V 8 m -0.6,1.15 -0.1,1.3 0.05,2.8 0.5,-0.05 v -0.05 q 0,-1.45 0.4,-2.2 0.85,0.2 0.7,0.9 L 5.2,12.75 5.35,13.1 5.4,13.15 6.45,13.1 Q 6.75,12.85 6.6,12.25 L 6.45,11.5 6.05,10.45 4.3,9.4 3.95,9.15 m 3.4,3.1 v 0.85 l 0.7,-0.05 h 0.7 L 8.5,10.7 7.3,10.9 7.35,12.25"
         fill="#6b6b6b"
         fill-rule="evenodd"
         stroke="none"
         id="path56" />
      <path
         d="M 7.35,12.25 7.3,10.9 8.5,10.7 8.75,13.05 h -0.7 l -0.7,0.05 v -0.85 m -3.4,-3.1 0.35,0.25 1.75,1.05 0.4,1.05 0.15,0.75 q 0.15,0.6 -0.15,0.85 L 5.4,13.15 5.35,13.1 5.2,12.75 5.5,11.85 q 0.15,-0.7 -0.7,-0.9 -0.4,0.75 -0.4,2.2 v 0.05 l -0.5,0.05 -0.05,-2.8 0.1,-1.3 M 4.55,8 V 7.85 L 4.4,7.25 5.5,7.1 6.1,7.45 v 0.1 q 0,0.6 0.45,1.05 L 7,8.35 7.1,7.75 7.3,7.55 V 7.5 L 8.1,9 H 7.8 L 7.05,9.2 6.3,9.4 4.55,8"
         fill="#747474"
         fill-rule="evenodd"
         stroke="none"
         id="path57" />
    </g>
    <g
       id="sprite15"
       transform="translate(0.7,1.2)">
      <use
         ffdec:characterId="6"
         height="6.3499999"
         width="2.6500001"
         xlink:href="#shape15"
         id="use57" />
    </g>
    <g
       id="shape15">
      <path
         d="m 1.7,2.65 0.15,0.1 V 2.65 H 1.7 M 2,0 2.6,2.3 2.65,3.9 2.55,5.35 q -0.25,1 -1.2,1 -0.85,0 -1.2,-0.95 L 0,4.45 Q 0,3.4 0.7,1.75 1.45,0.05 2,0 M 1.15,4.25 V 4.1 L 1.05,4.45 1.2,4.85 1.15,4.25"
         fill="#ffffff"
         fill-opacity="0.74902"
         fill-rule="evenodd"
         stroke="none"
         id="path58" />
    </g>
    <g
       id="sprite16">
      <use
         ffdec:characterId="17"
         height="10.95"
         width="17.6"
         xlink:href="#shape16"
         id="use58" />
    </g>
    <g
       id="shape16">
      <path
         d="m 17.6,5.4 v 0.8 q 0,2.35 -2.65,2.35 L 14.1,8.4 14.3,9.3 q 0,1.65 -4.4,1.65 H 8.7 7.7 Q 3.3,10.95 3.3,9.3 L 3.5,8.4 2.65,8.55 Q 0,8.55 0,6.2 L 0.05,5.4 0.25,3.85 Q 1,2.1 3.45,2.55 3.55,1.4 3.95,1 4.7,0.2 7.05,0 L 8.75,0.05 10.55,0 q 2.35,0.2 3.1,1 0.4,0.4 0.5,1.55 2.45,-0.45 3.2,1.3 L 17.6,5.4 M 16.1,5.2 Q 16.25,3.9 14.95,3.9 L 14.2,4.3 Q 13.7,4.7 13.05,4.7 12.3,4.7 12.3,4.2 L 12.55,3.05 Q 12.8,1.5 10.15,1.4 V 1.5 L 8.9,1.4 7.45,1.5 V 1.4 Q 4.8,1.5 5.05,3.05 L 5.3,4.2 Q 5.3,4.7 4.55,4.7 3.9,4.7 3.4,4.3 L 2.65,3.9 Q 1.35,3.9 1.5,5.2 V 5.4 L 1.55,6.2 1.95,6.65 3.15,6.9 4,6.7 4.55,6.4 H 4.6 l 0.35,-0.15 0.1,0.2 1.4,-0.1 h 2.6 1.1 1 l 1.4,0.1 0.1,-0.2 L 13,6.4 h 0.05 l 0.55,0.3 0.85,0.2 1.2,-0.25 0.4,-0.45 0.05,-0.8 V 5.2 M 12.45,7.8 12.4,7.35 8.6,7.15 5.2,7.35 5.15,7.8 Q 5.2,8.55 6,8.7 L 7.45,8.8 V 8.7 L 8.8,8.8 10.15,8.7 V 8.8 L 11.6,8.7 q 0.8,-0.15 0.85,-0.9"
         fill="#6b6b6b"
         fill-rule="evenodd"
         stroke="none"
         id="path59" />
      <path
         d="M 12.45,7.8 Q 12.4,8.55 11.6,8.7 L 10.15,8.8 V 8.7 L 8.8,8.8 7.45,8.7 V 8.8 L 6,8.7 Q 5.2,8.55 5.15,7.8 L 5.2,7.35 8.6,7.15 12.4,7.35 12.45,7.8 M 16.1,5.2 V 5.4 L 16.05,6.2 15.65,6.65 14.45,6.9 13.6,6.7 13.05,6.4 H 13 l -0.35,-0.15 -0.1,0.2 -1.4,-0.1 h -1 -1.1 -2.6 L 5.05,6.45 4.95,6.25 4.6,6.4 H 4.55 L 4,6.7 3.15,6.9 1.95,6.65 1.55,6.2 1.5,5.4 V 5.2 Q 1.35,3.9 2.65,3.9 L 3.4,4.3 Q 3.9,4.7 4.55,4.7 5.3,4.7 5.3,4.2 L 5.05,3.05 Q 4.8,1.5 7.45,1.4 V 1.5 L 8.9,1.4 10.15,1.5 V 1.4 q 2.65,0.1 2.4,1.65 L 12.3,4.2 q 0,0.5 0.75,0.5 0.65,0 1.15,-0.4 l 0.75,-0.4 q 1.3,0 1.15,1.3"
         fill="#7b7b7b"
         fill-rule="evenodd"
         stroke="none"
         id="path60" />
    </g>
    <g
       id="sprite17">
      <use
         ffdec:characterId="58"
         height="12.8"
         width="54.549999"
         xlink:href="#shape17"
         id="use60" />
    </g>
    <g
       id="shape17">
      <path
         d="m 53.7,0.65 0.2,0.5 q 0.65,1.5 0.65,5.5 V 9.6 l -0.35,2.05 -0.7,1 L 53,12.8 52.65,12.75 H 37.45 27.85 26.7 17.1 1.9 L 1.55,12.8 1.05,12.65 Q 0.6,12.4 0.35,11.65 0.1,10.85 0,9.6 V 6.65 q 0,-4 0.65,-5.5 l 0.2,-0.5 Q 1.15,0.35 2,0 H 17.1 Q 22.2,2.4 27.3,2.55 32.35,2.4 37.45,0 h 15.1 Q 53.4,0.35 53.7,0.65 M 51.45,5.3 51.5,4.75 V 4.2 L 51.55,3.65 51.65,2.8 H 37.45 V 2.75 L 35.8,3.3 Q 32,4.45 28.2,4.7 H 27.85 27.4 27.15 26.7 26.35 Q 22.55,4.45 18.75,3.3 L 17.1,2.75 V 2.8 H 2.9 L 3,3.65 3.05,4.2 V 4.75 L 3.1,5.3 v 1.35 0.4 h 2.45 q 0.9,-0.9 1.9,-1.45 1.35,-0.8 2.85,-1 0.95,-0.15 2,0 h 0.3 l 1,0.2 q 1.25,0.3 2.35,0.85 1.25,0.6 2.3,1.5 L 26.7,8 h 1.15 L 36.3,7.15 38.6,5.65 Q 39.7,5.1 40.95,4.8 l 1,-0.2 q 1.2,-0.15 2.3,0 1.5,0.2 2.85,1 L 49,7.05 h 2.45 V 6.65 5.3 m 0,4.7 V 9.8 8.5 l -14,0.1 V 8.55 l -0.8,0.1 -0.6,0.2 -0.5,-0.05 -7.7,0.6 H 26.7 V 9.35 L 19,8.8 18.5,8.85 17.9,8.65 17.1,8.55 V 8.6 L 3.1,8.5 V 9.8 10 h 14 V 9.95 l 9.6,0.55 h 1.15 l 9.6,-0.55 V 10 h 14 m -5.3,-2.95 q -1.65,-1.3 -3.2,-1.3 -2,0 -3.85,1.25 l 7.05,0.05 M 11.6,5.75 q -1.55,0 -3.2,1.3 L 15.45,7 Q 13.95,5.95 12.3,5.8 L 11.6,5.75"
         fill="#6b6b6b"
         fill-rule="evenodd"
         stroke="none"
         id="path61" />
      <path
         d="M 3.1,5.3 3.05,4.75 V 4.2 L 3,3.65 2.9,2.8 H 17.1 V 2.75 l 1.65,0.55 q 3.8,1.15 7.6,1.4 h 0.35 0.45 0.25 0.45 0.35 Q 32,4.45 35.8,3.3 L 37.45,2.75 V 2.8 h 14.2 L 51.55,3.65 51.5,4.2 v 0.55 l -0.05,0.55 -2,0.25 -2.35,0.05 q -1.35,-0.8 -2.85,-1 -1.1,-0.15 -2.3,0 l -1,0.2 Q 39.7,5.1 38.6,5.65 H 36.7 36.1 L 34.75,6.4 Q 32.4,7.8 28.1,7.8 h -0.25 -0.6 L 26.7,7.7 v 0.1 h -0.25 q -4.3,0 -6.65,-1.4 L 18.45,5.65 h -0.6 -1.9 Q 14.85,5.1 13.6,4.8 l -1,-0.2 h -0.3 q -1.05,-0.15 -2,0 -1.5,0.2 -2.85,1 L 5.1,5.55 3.1,5.3"
         fill="#7b7b7b"
         fill-rule="evenodd"
         stroke="none"
         id="path62" />
      <path
         d="m 51.45,5.3 v 1.35 0.4 H 49 L 47.1,5.6 49.45,5.55 51.45,5.3 M 38.6,5.65 36.3,7.15 27.85,8 H 26.7 L 18.25,7.15 q -1.05,-0.9 -2.3,-1.5 h 1.9 0.6 L 19.8,6.4 q 2.35,1.4 6.65,1.4 H 26.7 V 7.7 l 0.55,0.1 h 0.6 0.25 q 4.3,0 6.65,-1.4 L 36.1,5.65 h 0.6 1.9 M 7.45,5.6 q -1,0.55 -1.9,1.45 H 3.1 V 6.65 5.3 l 2,0.25 2.35,0.05 m 44,4.4 h -14 V 9.95 l -9.6,0.55 H 26.7 L 17.1,9.95 V 10 H 3.1 V 9.8 8.5 l 14,0.1 V 8.55 l 0.8,0.1 0.6,0.2 L 19,8.8 26.7,9.35 V 9.4 h 1.15 l 7.7,-0.6 0.5,0.05 0.6,-0.2 0.8,-0.1 V 8.6 l 14,-0.1 V 9.8 10 M 46.15,7.05 39.1,7 q 1.85,-1.25 3.85,-1.25 1.55,0 3.2,1.3 M 11.6,5.75 12.3,5.8 Q 13.95,5.95 15.45,7 L 8.4,7.05 q 1.65,-1.3 3.2,-1.3"
         fill="#727272"
         fill-rule="evenodd"
         stroke="none"
         id="path63" />
    </g>
    <g
       id="sprite18">
      <use
         ffdec:characterId="21"
         height="52.75"
         width="7.5999999"
         xlink:href="#shape18"
         id="use63" />
    </g>
    <g
       id="shape18">
      <path
         d="M 7.6,1.45 7.55,2.95 V 20.3 H 7.6 q 0.05,1.05 -0.3,2.1 L 7.1,22.85 Q 6.6,24.5 6.7,26.3 v 0.15 q -0.1,1.8 0.4,3.45 l 0.2,0.45 q 0.35,1.05 0.3,2.1 H 7.55 V 49.8 L 7.6,51.3 Q 7.4,52.55 6.35,52.55 H 6.3 l -1.6,0.2 -4.15,-0.5 Q 0.25,52.1 0.2,51.55 L 0,50.75 0.05,50.25 v -17.8 q 1.15,-3.05 1,-6.15 0.1,-3 -1,-6 V 2.5 L 0,2 0.2,1.2 Q 0.25,0.65 0.55,0.5 L 4.7,0 6.3,0.2 H 6.35 Q 7.4,0.2 7.6,1.45 M 4.8,10.5 2.6,10.45 V 11.5 H 4.1 L 4.8,11.45 V 10.5 M 3.6,2.75 2.6,2.65 V 9 H 4.8 V 8.75 Q 4.9,5.2 5.15,3.2 L 4.5,2.75 H 3.6 M 4.8,17 V 12.7 L 2.6,12.65 v 7.65 q 0.4,3 0.35,6 v 0.15 q 0.05,3 -0.35,6 v 7.65 l 2.2,-0.05 v -4.3 -3.3 Q 4.45,29.05 4.6,26.3 4.45,23.6 4.8,20.3 V 17 M 2.6,43.75 V 50.1 L 3.6,50 H 4.5 Q 4.7,49.65 5.15,49.55 4.9,47.55 4.8,44 V 43.75 H 2.6 m 2.2,-1.5 V 41.3 L 4.1,41.25 H 2.6 v 1.05 l 2.2,-0.05"
         fill="#6b6b6b"
         fill-rule="evenodd"
         stroke="none"
         id="path64" />
      <path
         d="M 3.6,2.75 H 4.5 L 5.15,3.2 Q 4.9,5.2 4.8,8.75 V 9 H 2.6 V 2.65 l 1,0.1 m 1.2,7.75 v 0.95 L 4.1,11.5 H 2.6 v -1.05 l 2.2,0.05 m 0,31.75 -2.2,0.05 v -1.05 h 1.5 l 0.7,0.05 v 0.95 m -2.2,1.5 H 4.8 V 44 Q 4.9,47.55 5.15,49.55 4.7,49.65 4.5,50 H 3.6 l -1,0.1 V 43.75 M 4.8,17 v 3.3 q -0.35,3.3 -0.2,6 -0.15,2.75 0.2,6.15 v 3.3 4.3 L 2.6,40.1 v -7.65 q 0.4,-3 0.35,-6 V 26.3 Q 3,23.3 2.6,20.3 V 12.65 L 4.8,12.7 V 17"
         fill="#727272"
         fill-rule="evenodd"
         stroke="none"
         id="path65" />
    </g>
    <g
       id="sprite19"
       transform="translate(0,1.2)">
      <use
         ffdec:characterId="37"
         height="21.700001"
         transform="translate(0,5.3)"
         width="10.1"
         xlink:href="#shape19"
         id="use65" />
      <use
         ffdec:characterId="9"
         height="8.3000002"
         transform="translate(3.45,-1.2)"
         width="3.45"
         xlink:href="#sprite15"
         id="use66" />
    </g>
    <g
       id="shape19"
       transform="translate(5.05,8.2)">
      <path
         d="M 1,-7.2 0.85,-5.45 2,-5.15 2.55,-5.4 Q 4.1,-6.1 4.9,-6.05 l 0.1,0.1 0.05,0.35 q 0,0.3 -0.4,0.65 V 13 L 4.5,13.1 2.25,13.5 -4,12.95 Q -4.4,12.8 -4.4,12 l 0.15,-0.55 -0.1,-1.05 V 7.95 L -4.6,2 -5.05,1.2 V -0.05 L -4.7,-2.8 -4.9,-2.9 -4.95,-3.35 q 0,-1.3 1.4,-1.3 H -3.5 Q -3.1,-5 -2.6,-5 l 1.45,0.3 0.95,-0.65 0.35,-0.1 -0.2,-0.9 L 0,-7.2 q 0.1,-0.45 0.55,-1 0.45,0.25 0.45,1 m -0.65,3.85 -2.2,0.4 V -1 q 0,3.95 -0.3,9 l 0.05,2.8 4.15,-0.2 h 0.7 Q 2.45,8.7 2.35,5.35 v -1.5 h -0.1 q -1.75,0 -2.2,-1.3 L -0.1,1.1 0.25,-1.55 0.55,-3.3 0.35,-3.35 m 1.5,-0.4 -0.1,0.5 -0.25,0.05 q 0.4,1.1 0.25,1.75 L 1.25,1 1.3,1.75 q 0.2,0.5 0.95,0.5 h 0.1 L 2.3,-2.35 2.35,-3.9 1.85,-3.75"
         fill="#6b6b6b"
         fill-rule="evenodd"
         stroke="none"
         id="path66" />
      <path
         d="M 1.85,-3.75 2.35,-3.9 2.3,-2.35 2.35,2.25 H 2.25 Q 1.5,2.25 1.3,1.75 L 1.25,1 1.75,-1.45 Q 1.9,-2.1 1.5,-3.2 l 0.25,-0.05 0.1,-0.5 m -1.5,0.4 0.2,0.05 -0.3,1.75 -0.35,2.65 0.15,1.45 q 0.45,1.3 2.2,1.3 h 0.1 v 1.5 q 0.1,3.35 0.4,5.25 H 2.05 L -2.1,10.8 -2.15,8 q 0.3,-5.05 0.3,-9 v -1.95 l 2.2,-0.4"
         fill="#747474"
         fill-rule="evenodd"
         stroke="none"
         id="path67" />
    </g>
    <g
       id="sprite20"
       transform="translate(660.25,0.5)">
      <use
         ffdec:characterId="68"
         height="1.5"
         transform="translate(-660.25,-0.5)"
         width="1320.3"
         xlink:href="#shape20"
         id="use67" />
    </g>
    <g
       id="shape20"
       transform="translate(660.25,0.5)">
      <path
         d="m 659.3,-0.5 0.55,0.25 0.2,0.5 -0.2,0.55 L 659.3,1 H -659.5 l -0.5,-0.2 -0.25,-0.55 0.25,-0.5 0.5,-0.25 H 659.3"
         fill="#ffff00"
         fill-opacity="0"
         fill-rule="evenodd"
         stroke="none"
         id="path68" />
    </g>
    <g
       id="sprite21">
      <use
         ffdec:characterId="70"
         height="8.9499998"
         width="15.2"
         xlink:href="#shape21"
         id="use68" />
    </g>
    <g
       id="shape21">
      <path
         d="M 13.2,2.05 H 13 L 12.5,2.2 q -0.4,0 -0.75,-0.35 -0.4,-0.4 -0.75,-0.4 -0.6,0 -1.15,0.4 0.5,0.45 0.7,1.25 l 2.3,0.15 q 2.35,0.9 2.35,2.4 L 15.05,6.35 14.6,6.75 13.5,5.6 q -0.75,-0.85 -2.05,-0.85 -0.35,0 -0.65,0.3 l -0.1,0.6 0.25,0.1 q 1.45,0.6 1.45,1.2 v 1.1 q -0.2,0.9 -0.9,0.9 L 11.05,8.9 11.15,8.8 11,8.5 Q 11.6,7 10.2,6.65 H 10.15 Q 9.45,7.25 8.05,7.3 H 7.8 7.6 7.4 7.15 Q 6,7.15 5.3,6.6 L 5,6.65 Q 3.6,7 4.2,8.5 L 4.05,8.8 4.15,8.9 3.7,8.95 Q 3,8.95 2.8,8.05 v -1.1 q 0,-0.6 1.45,-1.2 L 4.7,5.6 4.65,5.2 4.55,5.15 Q 4.15,4.75 3.75,4.75 2.45,4.75 1.7,5.6 L 0.6,6.75 0.15,6.35 Q 0,6.15 0,5.65 0,4.15 2.35,3.25 L 4.65,3.1 Q 4.85,2.3 5.35,1.85 4.8,1.45 4.2,1.45 3.85,1.45 3.45,1.85 L 2.7,2.2 Q 1.95,2.2 2.2,2.05 H 2 L 1.95,1.55 q 0,-1.9 2.65,-1.45 1.5,0.3 2.35,1.15 h 0.6 0.1 0.6 Q 9.1,0.4 10.6,0.1 q 2.65,-0.45 2.65,1.45 l -0.05,0.5"
         fill="#6b6b6b"
         fill-rule="evenodd"
         stroke="none"
         id="path69" />
    </g>
  </defs>
</svg>
