<?xml version="1.0" encoding="UTF-8" standalone="no"?>
<svg
   ffdec:objectType="frame"
   height="71.203415"
   width="51.716667"
   version="1.1"
   id="svg17"
   sodipodi:docname="2.svg"
   xmlns:inkscape="http://www.inkscape.org/namespaces/inkscape"
   xmlns:sodipodi="http://sodipodi.sourceforge.net/DTD/sodipodi-0.dtd"
   xmlns:xlink="http://www.w3.org/1999/xlink"
   xmlns="http://www.w3.org/2000/svg"
   xmlns:svg="http://www.w3.org/2000/svg"
   xmlns:ffdec="https://www.free-decompiler.com/flash">
  <sodipodi:namedview
     id="namedview17"
     pagecolor="#ffffff"
     bordercolor="#000000"
     borderopacity="0.25"
     inkscape:showpageshadow="2"
     inkscape:pageopacity="0.0"
     inkscape:pagecheckerboard="0"
     inkscape:deskcolor="#d1d1d1"
     fit-margin-top="5"
     fit-margin-left="5"
     fit-margin-right="5"
     fit-margin-bottom="5" />
  <g
     transform="translate(30.2,35.953413)"
     id="g5">
    <use
       ffdec:characterId="1688"
       height="16.450001"
       transform="matrix(-0.6729,-0.3885,-0.3885,0.6729,15.5782,-10.2013)"
       width="39.849998"
       xlink:href="#sprite0"
       id="use1" />
    <use
       ffdec:characterId="1688"
       height="16.450001"
       transform="matrix(-0.249,-0.1412,-0.2472,0.4282,11.8561,-27.9147)"
       width="39.849998"
       xlink:href="#sprite0"
       id="use2" />
    <use
       ffdec:characterId="1688"
       height="16.450001"
       transform="matrix(-0.4747,-0.2693,-0.2472,0.4282,-5.0904,-5.4101)"
       width="39.849998"
       xlink:href="#sprite0"
       id="use3" />
    <use
       ffdec:characterId="1797"
       height="71.199997"
       transform="translate(-30.2,-35.95)"
       width="51.700001"
       xlink:href="#shape1"
       id="use4" />
    <use
       ffdec:characterId="1691"
       height="8"
       transform="matrix(-0.7071,0.7071,0.7071,0.7071,5.4899,15.2533)"
       width="10.8"
       xlink:href="#sprite1"
       id="use5" />
  </g>
  <defs
     id="defs17">
    <g
       id="sprite0"
       transform="translate(19.95,8.25)">
      <use
         ffdec:characterId="1687"
         height="16.450001"
         transform="translate(-19.95,-8.25)"
         width="39.849998"
         xlink:href="#shape0"
         id="use6" />
    </g>
    <g
       id="shape0"
       transform="translate(19.95,8.25)">
      <path
         d="M 19.9,-8.25 V 8.2 H -19.95 V -8.25 H 19.9"
         fill="#8c8c8c"
         fill-rule="evenodd"
         stroke="none"
         id="path6" />
    </g>
    <g
       id="shape1"
       transform="translate(30.2,35.95)">
      <path
         d="m -17.05,-18.2 q -1.25,-1.1 -0.15,-2.95 l 0.75,-1.1 0.6,-0.4 -0.3,-0.3 q -1.45,-1.9 -0.4,-3.75 1.1,-1.85 3.2,-1.05 l -0.05,-0.15 q -0.1,-1.4 0.4,-2.25 l 0.55,-0.85 1.6,-0.55 1.3,0.75 0.95,1.65 0.45,-1.6 0.65,-0.85 q 0.9,-0.8 1.7,-0.3 1.35,0.75 1.6,2.85 l 0.15,1 q 1.15,-0.8 1.95,-0.7 L -1.45,-30 -2,-30.1 l 0.1,-0.1 0.35,-0.15 -0.1,-0.6 q -0.1,-1.15 0.5,-1.75 1.8,-1.8 3.65,-0.55 -0.05,-0.55 0.4,-1 1,-1 1.65,-0.95 0.45,0.05 1.1,0.7 l 0.7,1.1 q 0.55,-0.45 1,-0.3 l 0.8,0.7 q 0.85,0.85 1,1.5 l -0.25,1.3 1.2,-0.05 1.55,0.55 q 0.75,0.75 0.5,1.9 l -1.45,1.4 0.35,0.3 q 1.55,1.6 -0.1,3.6 l -1.15,1.05 0.1,0.9 0.05,0.75 0.45,-0.3 q 2.35,-1.2 3.55,0.7 l 0.25,0.35 1.65,-1.1 q 1.15,0.05 1.7,0.9 0.3,0.45 0.25,1.55 -0.05,0.8 -0.3,1.25 0.75,-0.2 1.35,0 0.6,0.25 1.25,1.3 l 0.5,0.9 q 0.05,0.5 -0.45,0.95 l 0.95,0.85 q 0.5,0.75 0.4,1.25 -0.1,0.7 -1.25,1.45 l -1.1,0.2 Q 20,-7.5 17.85,-6.1 l -1.65,0.15 q 0.65,-0.5 0.8,-1.3 -0.15,0.8 -0.8,1.3 l -0.75,0.4 -0.4,0.55 0.5,1 0.1,0.35 0.45,0.5 q 0.75,1.2 -0.15,2.3 l 0.05,0.05 0.1,0.5 0.85,0.6 0.3,0.2 0.8,0.8 Q 18.45,2 18.2,2.75 L 18,3.25 17.9,3.4 17.85,3.55 19.2,4.35 V 5.9 l -1.05,0.65 -0.9,0.2 q 0.4,0.45 0.45,0.95 l -0.5,1.35 -0.05,0.05 -0.4,0.6 q -0.3,0.25 -0.8,0 0.05,0.5 -0.3,1.05 l -0.5,0.6 -0.2,0.1 Q 14.45,11.6 13.5,11.05 13.05,10.8 12.95,10.4 l -0.05,0.05 0.65,1.4 0.45,1.65 q 1.1,5.9 -1.75,10.95 -2.9,5.05 -10.5,10.8 H -5.7 q -7.6,-5.75 -10.5,-10.8 -2.85,-5.05 -1.75,-10.95 1,-4.95 6.4,-8.9 L -11.35,4.45 -12.1,3.4 -12.15,3.3 -12.25,3.4 -12.6,3.95 -13.75,5 -14.85,5.25 -15.4,5.1 -15.9,4.45 -16,4.05 V 3.5 3.4 3.2 h 0.05 l 0.1,-0.45 0.05,-0.2 0.1,-0.3 -0.2,0.15 -0.2,0.1 0.05,0.1 h -0.15 l -0.3,0.15 -0.5,0.3 h -1.15 l -0.35,-0.3 -0.2,-0.2 -0.35,-0.5 v -0.8 q 0,-0.8 0.6,-1.7 l 0.1,-0.1 q -1.8,-0.25 -1.8,-1.95 v -0.25 l -0.75,-0.2 q -1.3,-0.4 -1.8,-1.15 l -0.6,0.1 q -2.55,0 -2.95,-2.2 -0.35,0.4 -1,0.4 -1.4,0 -1.85,-0.5 -0.3,-0.35 -0.3,-1.25 l 0.3,-1.3 q -0.7,-0.05 -0.9,-0.5 l -0.05,-1.05 q 0,-1.2 0.35,-1.75 l 1.05,-0.75 -0.9,-0.85 q -0.65,-0.9 -0.65,-1.45 0,-1.05 0.95,-1.7 l 2,0.05 v -0.45 q 0,-2.25 2.6,-2.5 l 1.55,0.1 0.6,-0.75 0.65,-0.7 h 0.25 l 0.5,-0.2 q 1.35,-0.4 1.75,1.05 h 0.05 l 0.2,1.3 v 0.2 l 0.85,0.15 0.15,0.15 0.3,0.25 v 0.1 l 0.75,-0.05 0.6,0.4 q 0.6,0.35 1.15,0.4 -0.55,-0.05 -1.15,-0.4 l -0.6,-0.4 m 1.9,1 0.1,-0.2 h -0.25 l 0.15,0.2 q -0.9,1.65 -0.6,3 -0.3,-1.35 0.6,-3 m 0.55,4.8 q -0.95,-0.8 -1.15,-1.8 -0.2,0.2 -0.55,0.3 h -0.55 l 0.2,1.5 h 0.15 l -0.05,0.2 0.2,0.3 0.25,0.3 1.05,-0.3 0.45,-0.5 0.25,0.15 1.05,0.6 -1.05,-0.6 -0.25,-0.15 m 1.9,0.9 -0.6,-0.15 -0.05,0.15 h 0.2 v 0.05 q -1.6,0.25 -2.1,1.8 0.5,-1.55 2.1,-1.8 l 0.2,-0.05 h 0.25 0.25 -0.25 m 0.5,-0.05 -0.25,0.05 h 0.2 q 0.9,0.1 1.35,0.75 -0.45,-0.65 -1.35,-0.75 l 0.05,-0.05 q 0.6,-0.1 1.15,-0.55 -0.55,0.45 -1.15,0.55 m 1.25,-0.5 -0.05,-0.1 -0.05,0.05 0.1,0.05 0.95,0.9 -0.95,-0.9 m 0.05,1.3 0.3,0.55 1.5,-0.3 h 0.3 l -0.7,-0.35 -0.5,-0.3 h -0.1 l -0.55,0.2 -0.25,0.2 m 16.75,-20.45 -0.2,0.1 -0.2,-0.3 -0.15,-0.25 0.05,-0.05 -0.1,-0.1 -0.2,-0.9 -0.2,-0.9 -0.3,-0.2 -0.1,-0.1 -0.25,0.15 -0.4,0.4 -0.75,0.6 0.3,0.35 q 0.65,-0.1 1.5,0.7 l 0.1,0.15 0.55,0.75 2,0.9 0.25,0.1 0.1,-1.1 Q 7.8,-31.65 7.4,-32.05 l -0.55,-0.4 -0.95,0.65 -0.05,0.6 M 1.1,-32.45 q -0.6,0 -1,0.4 l -0.35,0.5 -0.05,0.6 0.05,0.35 0.15,0.05 H 0 l 0.9,0.3 v 0.1 l 0.05,0.5 -0.2,0.3 v 0.05 q -1.4,-0.95 -1.4,1 0,0.45 0.4,0.85 0.5,0.5 1.35,0.6 h 0.1 l 0.15,0.15 v 0.1 l 0.6,0.5 0.1,0.1 0.15,0.15 0.1,0.55 -0.25,0.1 h -0.1 l -0.35,0.05 -0.5,0.6 0.05,0.15 0.05,0.15 0.05,0.05 -0.05,0.1 v 0.35 l 0.1,0.1 v 0.15 l 0.25,0.25 0.2,0.15 v 0.05 l 0.25,0.2 0.2,0.1 0.15,0.05 -0.2,0.05 H 2 L 1.95,-22.7 v 0.1 H 2 2.15 l 0.65,0.1 h 0.1 l 0.1,-0.1 0.35,-0.1 q 0.4,-0.2 0.25,-0.65 h 0.15 l 0.35,0.1 q 0.4,1 0.25,2 -0.1,0.55 0.15,0.9 l 0.2,0.1 h 1 L 5.5,-20.9 5.75,-20.95 5.7,-21.15 Q 5.45,-21.7 5.55,-22.05 H 5.6 L 5.45,-23.2 4.7,-23.6 4.1,-24.35 Q 4,-24.65 4.25,-25 3.95,-24.95 3.6,-25.2 v -0.35 l -0.7,-1 -0.2,-0.1 -0.15,-0.2 -0.05,-0.1 0.1,-0.05 0.1,-0.5 -0.6,-0.55 0.25,-0.5 -0.25,-0.8 -0.3,-0.3 -0.1,-0.15 h 0.05 v -0.05 L 2,-30.3 2.1,-30.4 2,-30.35 1.95,-30.4 1.9,-31.15 2.6,-31.95 1.95,-32.2 1.1,-32.45 m 5.85,8.5 -0.05,-0.7 -0.05,-0.45 0.1,-0.1 v -0.2 l 0.1,-0.2 0.5,-0.1 0.25,-0.05 0.25,-0.2 Q 8.4,-26.3 8.2,-26.4 L 7.85,-26.8 H 7.8 l -0.1,-0.05 q -0.35,-0.3 -0.35,-0.85 l 0.05,-0.25 q 0.15,-0.8 -0.15,-1.1 l -0.9,-0.75 -0.8,-0.7 q -0.2,-0.1 -1.1,-0.75 -0.75,-0.6 -1.6,0.25 l -0.3,0.3 0.75,-0.05 v 1.1 l 0.15,2 0.6,-0.05 0.05,0.15 q -0.45,0.65 -0.4,1 l 0.05,0.05 0.05,0.35 0.15,0.15 0.3,0.3 0.25,0.45 0.2,-0.1 0.05,0.35 q 0.1,0.5 0.35,0.75 l 0.7,0.3 0.25,0.05 h 0.9 v -0.05 M 6.8,-27.8 q 0.55,0.9 0.25,1.7 Q 6.6,-24.95 5,-26.55 L 4.35,-27.4 4.15,-27.9 Q 3.7,-28.95 4.1,-29.5 l 0.7,-0.05 0.5,0.15 0.1,0.05 0.7,0.6 0.7,0.95 m -0.55,0.75 -0.75,-1.2 -0.4,-0.3 -0.05,0.05 v 0.2 q 0,0.65 0.45,1.05 0.15,0.15 0.35,0.25 l 0.1,0.05 0.4,0.15 0.05,0.05 -0.15,-0.3 m -3.4,-0.15 0.2,-0.25 0.35,-0.2 -0.8,-0.15 0.25,0.6 m 5.9,0.4 0.15,0.25 0.3,-0.05 H 9.35 L 9.3,-26.7 9.5,-27.05 11.05,-28.3 11,-28.55 10.75,-28.9 9.55,-29 q -1.05,0.2 -1.2,0 l -0.15,-0.2 -0.1,0.1 0.1,0.3 q 0.4,0.9 0.1,1.45 l 0.1,0.1 0.35,0.45 m 0,1.15 -0.15,0.3 q -0.4,0.5 -0.75,0.55 l 0.25,0.35 q 0.2,0.45 -0.4,0.8 l 0.2,0.2 0.65,0.75 0.4,-0.05 q 0.75,-0.25 1.3,-0.8 l 0.1,-0.1 V -24.3 L 10,-24.95 9.55,-25.6 Q 9.1,-25.75 8.9,-25.95 l -0.15,0.3 m 1.55,7.55 -0.8,-0.7 0.05,-0.1 0.2,-0.5 0.2,-0.2 v -0.2 0.2 l -0.2,0.2 -0.2,0.5 -0.05,0.1 0.8,0.7 0.6,1.4 q 0.6,-0.55 1.1,0.15 v 0.05 l 0.05,-0.05 0.7,-0.65 0.6,-0.15 -0.2,-0.7 -0.55,-0.6 q -0.75,-0.9 -1.25,-0.55 l -1.05,1.1 m 0.75,2.3 -0.15,-0.9 0.15,0.9 0.05,0.55 0.95,-0.3 -1,-0.25 m 1.15,0.25 h -0.15 0.15 0.05 v -0.05 l -0.05,0.05 m 0.35,-0.05 H 12.5 l -0.25,0.05 0.25,-0.05 h 0.05 l 0.6,0.05 Q 14.4,-15.7 15.5,-14 l 0.45,0.8 q 0.25,0.6 -0.05,1.25 l -1.1,-0.05 0.05,-1.05 -0.05,1.05 -0.05,0.3 -0.1,0.3 1,0.3 h 0.2 l 1.05,0.25 v 0.05 l -0.2,0.65 0.35,-0.25 q 0.95,-0.6 0.6,-1.45 v -0.05 l -0.25,-0.55 q -0.3,-0.5 -0.25,-0.7 l -0.55,-0.9 -0.55,-1.05 q -0.25,-0.4 -1,-0.35 -0.8,0 -1.05,-0.55 l -0.05,-0.1 v -0.05 l -0.3,-0.4 q -0.05,-0.3 -0.45,0 l -0.35,0.5 -0.2,0.4 -0.1,0.05 m 4.1,6.15 q -0.5,-0.95 -1.8,-1.5 l -0.45,-0.15 0.25,-0.3 -0.25,0.3 0.45,0.15 q 1.3,0.55 1.8,1.5 l 0.05,0.1 0.35,1.45 -0.05,0.65 0.55,-0.25 q 0.8,-0.5 0.55,-1.75 l -0.15,-0.7 q -0.7,0.45 -1,0.55 h -0.1 l -0.2,-0.05 m -1.45,-7 1.1,0.5 0.1,-0.05 -0.2,-0.2 0.25,-1.15 q 0.4,-0.95 0.2,-1.2 l -0.3,-0.35 -0.25,-0.05 -1.5,1.2 -0.45,0.2 -0.1,-0.1 v 0.1 l -0.1,0.3 0.05,0.05 0.45,0.45 0.05,0.1 0.1,0.15 0.6,0.05 m -3.75,4.65 0.3,0.1 0.8,0.65 0.15,0.25 0.15,-0.25 0.4,-0.2 0.25,-0.6 0.15,-0.35 0.1,-0.45 0.05,-0.4 q 0,-1.35 -1.05,-1.35 l -0.15,0.05 -0.75,0.65 -0.25,0.25 -0.6,0.4 0.05,0.15 0.05,0.45 v 0.1 l -0.1,0.5 0.45,0.05 m 3.4,-1.25 0.2,0.05 0.1,-0.05 -0.25,-0.5 -0.1,-0.1 q -0.2,-1.65 -1.65,-1.9 1.45,0.25 1.65,1.9 l 0.05,0.6 m 2.2,-1.9 0.35,1.9 0.4,0.4 0.35,0.45 q 0.65,0.95 0.35,1.65 l 0.3,0.3 0.75,-0.55 0.65,-0.55 -0.2,-0.4 -0.9,-0.4 -0.8,-0.4 -0.05,-0.2 -0.1,0.1 -0.4,-0.4 v -0.05 -0.05 l 0.1,-0.2 0.6,0.15 q 0.1,-0.4 0.9,-0.8 l -0.3,-0.6 Q 18.7,-15.1 18,-15.3 l -1.1,-0.1 0.15,0.45 M 8.5,-19.8 8.35,-20.9 8.2,-20.85 7.95,-21.5 l -0.3,-0.6 -0.2,-0.35 -0.4,-0.85 -1.05,0.15 0.2,1.2 0.05,0.5 0.15,0.7 0.85,0.85 0.35,0.3 0.15,0.05 h 0.1 l 0.25,0.05 0.35,-0.1 0.05,-0.2 m -3.05,1 L 5,-18.75 4.55,-19.1 3.15,-20 3,-19.1 l -0.2,1 H 3 q 1.25,0 1.95,0.4 0.25,-0.7 0.65,-1.1 H 5.45 m -4.8,-3 -0.35,0.45 0.65,0.8 L 1.3,-20 1.35,-20.3 1.3,-21.25 Q 1,-21.45 0.65,-21.8 m 1.55,9.4 -1.1,-0.45 -0.15,0.05 q -0.9,0.25 -1.2,0.8 l -0.25,0.85 v 0.05 l -0.05,0.55 0.2,0.05 0.95,0.3 q 0.95,-0.4 1.15,0.15 L 1.8,-9.7 1.4,-9.1 0.65,-8.5 q -1.1,0.75 -1.1,1.75 v 0.35 l 0.1,0.65 1.7,0.2 0.1,0.05 0.7,-1.05 -0.3,-1 v -0.4 L 2,-8.4 V -8.45 L 2.05,-8.5 2,-9.8 1.8,-10.1 v -0.05 q -0.35,-0.7 -0.35,-0.9 v -0.1 l 0.05,-0.3 Q 1.65,-12 2.15,-12.3 l 0.1,-0.05 -0.05,-0.05 m 2.2,-3.9 -0.25,-0.2 -1.05,-0.45 q -1.55,0 -1.55,2.05 0,0.3 0.35,0.7 l 0.2,0.2 0.2,0.15 0.25,0.25 0.2,0.15 0.35,0.5 -0.2,0.15 0.15,0.2 0.4,-0.1 -0.05,-0.5 -0.05,-0.65 v -0.2 l 0.2,-0.4 0.2,-0.2 0.5,-0.3 L 4.9,-15.1 4.7,-16 v -0.05 L 4.4,-16.3 m 0.25,2.4 H 4.6 l -0.4,0.05 -0.1,1.1 v 0.15 l 0.2,0.15 0.1,0.3 -0.1,0.3 -0.8,0.4 -0.25,0.05 h -0.4 l -0.4,0.15 -0.15,0.3 v 0.1 l 0.25,0.7 Q 3.35,-9.9 3.35,-9 L 3.3,-8.65 3,-7.75 2.95,-7.6 2.85,-7.4 3.1,-7 q 0.45,0.4 1.1,0.55 L 4.4,-6.4 H 4.45 L 4.6,-6.55 4.65,-6.45 5,-6.25 4.85,-6.05 5,-5.8 4.7,-5.6 v 0.15 l -0.1,0.3 0.45,0.65 0.1,0.1 L 5.7,-4.05 7.5,-4 H 7.75 L 7.85,-4.25 7.9,-4.3 H 7.95 L 8.2,-4.35 h 0.35 v -0.1 L 8.7,-4.8 8.9,-4.45 v 0.1 l 0.9,-0.05 0.35,-0.5 0.1,-0.25 V -5.2 H 10.2 l -0.15,-0.3 0.35,-0.4 0.1,-0.2 0.05,0.1 0.4,-0.25 0.2,-0.05 0.15,-0.05 0.15,-0.05 0.1,-0.05 0.25,-0.35 0.05,-0.2 -0.9,-1.5 0.2,-0.1 -0.1,-0.1 0.55,-0.75 0.15,-0.15 0.25,-0.3 v -0.1 -0.05 l -0.05,-0.15 -0.05,-0.1 -0.45,-0.5 -0.15,-0.05 q -0.75,-0.45 -1.2,-1 h 0.25 L 9.9,-12.7 9.85,-12.85 9.75,-13 9.6,-13.3 9.5,-13.4 9.45,-13.45 Q 9,-14 8.4,-14 l -0.2,0.05 -0.35,0.1 -0.1,0.05 -0.35,0.15 -0.1,0.15 -0.4,0.05 q -0.25,0 -0.45,-0.25 L 6.15,-13.9 5.9,-13.95 5.6,-14 4.65,-13.9 m 1.15,-1.3 v 0.05 l 1.05,0.35 0.1,0.1 0.2,0.15 0.6,-0.25 0.35,-0.05 0.1,-0.05 h 0.3 l 1.15,0.25 0.15,0.1 0.15,0.1 0.05,0.05 h 0.05 v -0.05 L 9.9,-15.1 9.85,-15.35 9.55,-16.3 9.2,-17.05 Q 8.8,-17.8 8.35,-17.8 h -0.1 l -1.4,0.25 q -0.65,0.3 -0.75,1 L 6,-16.1 5.95,-15.75 5.8,-15.2 m 2.35,5.4 H 7.8 l -1.65,0.1 q 0.25,0.25 0.05,0.8 0,0.45 1.45,0.45 0.6,0 0.65,-0.65 V -9.25 L 8.15,-9.8 m -2.3,-1.05 1.3,-0.25 q 2.2,-0.05 2.2,1.9 v 0.55 0.25 q -0.1,0.75 -0.5,0.75 L 8.35,-7.55 8,-7.3 H 6.15 L 5.65,-7.6 5,-8.35 4.95,-9.3 q 0,-1.1 0.9,-1.55 m -2,5.75 0.05,-0.15 V -5.3 H 3.85 3.7 3.6 Q 2.95,-5.35 2.35,-6.2 l -0.15,0.35 -0.4,0.65 0.05,0.3 -0.1,0.4 -0.35,0.2 -0.1,0.4 -0.1,0.35 0.75,0.6 0.95,-0.4 0.45,-0.35 0.3,-0.8 0.2,-0.6 m 0.95,4.85 0.4,-0.05 0.25,-0.45 0.7,-1.45 0.1,-0.2 0.5,-0.9 H 6.7 6.1 5.45 q -0.7,-0.4 -1.15,-1 l -0.35,1.1 -0.25,1.15 0.2,1.35 0.25,0.4 0.5,0.05 H 4.7 L 4.75,-0.2 4.8,-0.25 M 1.2,-1.45 Q 0.5,-1.55 0.1,-2.05 L 0.15,0.7 0.1,2.9 H 0.8 L 0.75,2.15 q 0,-1.7 0.45,-3.6 m 0.25,-1.5 h 0.1 l 0.05,-0.1 -0.15,0.1 m 6.3,-0.35 0.05,0.55 -0.05,0.15 0.5,1.05 0.05,0.1 0.15,0.3 0.6,0.8 0.55,0.4 0.55,0.3 L 10.3,0.3 10.55,-0.05 10.3,-0.9 9.75,-2.75 9.7,-2.95 V -3.1 L 9.85,-3.4 H 8.95 8.2 L 8,-3.45 7.75,-3.4 v 0.1 m 4.4,-4.7 0.45,0.4 0.15,1 0.75,0.2 1.7,-0.65 0.15,-0.05 q 0.55,-0.25 0.55,-1 L 15.65,-9.05 Q 15.3,-9.9 14.8,-9.9 l -0.4,0.05 -0.65,0.25 -0.4,0.25 L 13,-9.4 12.85,-8.8 12.5,-8.3 12.15,-8.15 H 12 L 12.15,-8 m 2.2,5.2 v -0.05 -0.1 L 14.25,-3.45 13.95,-4 13.1,-4.85 13,-4.9 l -0.35,-0.25 -0.35,-0.3 -0.65,0.3 -0.5,0.05 H 10.9 l 0.1,0.5 0.05,0.45 V -4 l -0.15,0.35 0.5,0.3 0.6,0.45 q 0.3,0.25 0.9,0.45 l 0.6,0.15 0.65,0.1 0.2,-0.6 m 1.1,-2.75 -0.65,0.15 0.1,0.1 0.15,0.3 -0.15,-0.3 -0.1,-0.1 0.65,-0.15 m -3.55,4.5 H 11.75 V -1.3 l -0.15,0.15 0.1,0.3 0.2,-0.2 M 14.5,1.5 14.55,1.3 14.6,1.2 14.65,0.9 V 0.6 l 0.1,-0.25 V 0.2 -0.15 L 14.9,-0.2 14.8,-1 v -0.05 l -0.25,0.2 h -0.6 l -0.1,0.15 -0.1,0.25 -0.35,0.55 v 0.05 l 0.05,0.55 v 0.05 l 0.05,0.1 V 1.1 1.3 L 13.55,1.75 13.6,1.9 V 2 l 0.1,-0.05 h 0.1 0.6 L 14.5,1.5 M 12.75,-0.1 H 12.7 L 12,0.1 11.9,0.2 q -0.15,0.3 0.05,0.75 l 0.15,0.4 0.1,1.2 L 12.1,2.6 12.05,2.65 11.85,2.7 11.8,2.65 11.75,2.4 11.5,2.2 11.3,2.25 H 11.2 L 11.15,2.2 10.4,2.4 10.45,2.45 h 0.3 L 10.4,2.75 10.35,2.8 10.1,3.2 V 3.45 L 10.2,3.8 10.15,3.95 V 4 l 0.05,0.05 0.5,0.4 0.25,-0.05 h 0.1 0.2 l 0.65,0.05 h 0.05 L 12.1,4.2 V 4.15 L 12.65,3.75 12.4,3.5 12.35,3.4 V 3.3 L 12.4,3.2 12.5,3 12.65,2.75 12.7,2.65 12.85,2.45 12.9,2.4 V 2.35 h 0.05 L 13.2,2.2 13.15,2.15 13.05,1.3 H 13 L 12.9,1.15 12.95,0.5 13,0.4 H 12.85 L 12.8,0.35 v -0.4 -0.05 h -0.05 m 2.9,-3.55 0.05,0.5 -0.05,1.05 -0.15,0.3 0.15,0.2 0.2,0.1 0.1,0.65 -0.1,-0.65 -0.2,-0.1 -0.15,-0.2 0.15,-0.3 0.05,-1.05 -0.05,-0.5 M 16.8,3 16.85,2.95 16.9,2.75 17,2.6 Q 17.35,1.7 16.95,1.5 l -0.4,-0.2 -0.2,-0.05 -0.6,-0.1 h -0.3 L 15.4,1.25 15.35,1.35 15.1,1.9 15,2.05 l 0.2,0.1 0.15,0.15 0.05,0.45 -0.1,0.2 h 0.3 l 0.35,0.15 0.1,0.05 V 3.2 l 0.05,0.1 0.05,0.05 0.05,0.05 0.15,0.15 0.1,-0.15 0.3,-0.2 0.05,-0.05 V 3 M 16.1,-0.3 16.15,0 16.95,0.3 16.15,0 16.1,-0.3 M 18.5,4.9 17.05,4.3 16.85,4.05 V 3.95 L 16.75,3.9 16.5,4 16.25,4.65 16.2,4.75 q 0.4,0.4 0.25,1.4 h 0.05 l 0.1,-0.2 0.9,-0.2 0.85,-0.3 L 18.5,5.1 V 4.9 M 15.75,3.8 V 3.75 L 15.4,3.65 H 15.3 L 14.95,3.7 14.85,3.65 14.75,3.55 V 3.4 L 14.65,3.35 14.6,3.25 V 3.2 L 14.5,2.85 V 2.75 2.7 L 14.45,2.55 v -0.1 h -0.4 L 13.75,2.6 13.6,2.7 13.55,2.75 13.2,3.05 13.15,3.1 13.05,3.2 V 3.4 3.9 H 12.9 l -0.05,0.25 -0.1,0.2 -0.15,0.25 -0.05,0.05 v 0.1 L 12.5,5 v 0.05 l 0.05,0.2 0.5,0.45 v 0.15 l -0.5,0.1 V 6.1 l 0.3,1.45 0.25,0.8 -0.45,0.1 H 12.5 l 0.3,0.2 0.25,0.15 0.4,0.05 0.6,-0.35 0.7,-0.8 0.5,-0.75 0.5,-0.7 L 15.8,6.1 15.65,5.4 Q 15.35,4.85 15.7,4.5 V 4.45 h 0.05 L 15.85,4.2 V 4.15 l 0.1,-0.1 -0.2,-0.25 m -3.9,1.8 V 5.55 l -0.2,-0.3 -0.2,-0.05 -0.2,0.05 H 11.2 L 11.15,5.35 11,5.5 10.55,5.6 10.25,5.5 10.2,5.45 10,5.6 9.65,6.25 l 0.1,0.15 0.3,0.3 0.6,0.65 0.1,0.1 0.05,-0.05 h 0.05 L 10.9,7.55 V 7.6 L 11.05,7.55 11.5,7.35 V 7.2 l 0.05,-0.35 0.35,-0.5 0.2,-0.2 0.15,-0.1 0.3,-0.1 -0.3,-0.1 H 12.2 L 12.1,5.8 11.85,5.6 M 14.55,3.8 15,4.05 Q 15.6,4.9 14.8,6.2 L 14.55,6.65 14.4,6.8 q -0.35,0.4 -0.9,0.45 -0.35,-0.3 -0.35,-0.9 l 0.05,-0.3 0.2,-1 0.1,-0.2 L 14.1,4 14.55,3.8 M 14.4,4.85 14.3,4.9 14.05,5.25 14.5,5.3 14.6,4.65 14.4,4.85 M 14.05,6.25 13.9,5.75 13.95,6.3 14,6.35 14.05,6.25 M 16.6,7.9 V 7.55 l -0.25,-0.7 -0.1,-0.15 -1.5,1.2 -0.3,0.85 V 8.8 l -0.2,0.3 Q 13.85,9.6 13.4,9.6 L 13.3,9.85 14,10.2 14.6,10.5 14.8,10.2 14.75,9.45 14.7,9.1 14.75,8.75 14.8,8.65 14.85,8.6 H 14.8 l 0.1,-0.5 h 0.2 l 0.15,0.55 0.8,0.2 L 16.2,8.9 16.45,8.45 16.6,7.9 m -4.5,1.2 0.15,0.3 0.2,0.25 0.1,-0.1 L 12.8,9.35 12.35,9.1 12.1,8.95 12,8.35 12.1,8.3 11.7,7.95 11.45,8.2 12.1,9.1 v 2.75 H 13.55 12.1 V 9.1 m -7.05,-7.85 0.5,0.4 q 0.65,-0.2 1,0.4 L 6.9,3.3 7.2,3.45 8.15,3.35 8.4,3.3 V 3.1 L 8.75,3.15 8.85,2.75 8.95,2.6 9.45,1.8 H 9.35 L 9.1,1.95 H 8.45 L 8,2.45 V 2.3 L 8.25,1.95 7.9,1.75 7.5,1.15 Q 7.15,0.6 7.3,0.05 L 6.9,-0.5 Q 6.1,1.15 5.05,1.25 m 0.9,2.3 0.2,0.1 L 5.9,2.95 H 5.95 L 5.3,2.05 5.05,1.95 4.9,1.85 4.4,1.5 4.25,1.2 3.2,0.7 Q 2.8,1.15 2.9,1.6 L 3.3,2.65 4.25,2.4 Q 4.6,1.85 4.95,1.95 L 5.2,2.25 5.3,2.6 5.15,3.15 5.45,3.2 5.75,3.4 5.95,3.55 M 8.7,4.8 8.55,4.25 8.5,4.2 8.4,4.3 7.25,4.4 7.45,4.55 8.2,5.15 8.3,5.2 8.8,5.6 8.85,5.5 8.7,4.85 V 4.8 M 9.35,5.25 9.5,5.05 9.25,4.8 9.2,4.75 9.35,5.25 m -7.4,0.3 H 0.3 -2.35 -3.8 -7.05 -8.05 -8.3 L -9.95,7.3 q -4.8,5.35 -4.95,9.4 -0.15,4.7 1.45,6.95 l 0.25,0.35 1.25,1.45 6.9,6.85 h 0.6 2.95 0.45 0.75 0.2 1.2 L 5.75,27.8 9.5,23.65 Q 11.1,21.4 10.95,16.7 10.85,13.3 7.4,9.05 V 9 L 6.65,8.1 5.7,7 4.35,5.55 H 4.1 3.15 1.95 m -14.45,-30 -0.05,-0.3 0.35,-0.95 -0.55,-0.55 -1.75,-0.3 q -0.7,-0.15 -1.15,0.55 l -0.25,1 q -0.15,0.9 0.3,1.15 0.75,0.45 1.05,0.25 h 0.5 l 0.25,0.2 0.45,-0.4 0.5,-0.25 0.55,0.05 -0.2,-0.45 m 2.75,-1.9 0.3,-0.6 0.35,-0.4 -0.6,-1.2 -1.5,-1.65 -0.5,0.55 q -0.5,0.9 0.1,2.25 l 0.4,0.95 1.1,0.25 0.25,0.1 0.1,-0.25 m 3.2,0.9 -0.3,0.2 -0.25,-0.15 -0.3,-0.15 -0.35,0.3 v -0.4 l 0.05,-0.1 -0.85,-0.4 q -0.35,0.05 -0.75,0.5 v 0.35 l -0.5,0.15 -0.2,0.15 v -0.1 l -0.75,-0.1 q -0.55,-0.15 -0.85,0.3 l 0.05,1.75 h -0.25 l 0.05,0.15 q -0.25,0.25 -0.85,0.35 l -0.6,0.2 q -0.3,0.5 0.05,1.05 0.55,0.8 0.65,1.55 l -0.2,-0.1 -0.05,0.5 v 0.65 l -0.05,0.35 q 0,0.95 0.7,1.35 l 0.15,0.1 0.5,0.05 0.4,0.05 0.15,-0.1 0.4,0.15 0.25,0.45 v 0.15 l 0.55,0.55 1.3,0.55 0.05,-0.05 0.05,-0.05 0.1,-0.2 v -0.05 h 0.05 l 0.45,-0.7 -0.1,-0.15 0.1,-0.35 0.25,-0.3 v 0.05 l 1.15,0.25 0.3,0.15 0.3,0.1 h 0.15 l -0.05,-0.1 0.4,-0.5 0.1,-0.45 -0.15,-0.1 q -0.4,-0.6 0,-1.3 l 0.5,-0.6 0.6,-0.45 0.15,-0.6 -0.7,-1 -0.2,-0.15 -0.15,0.05 -0.2,-0.5 0.2,-0.05 v -0.25 -0.05 l 0.35,-0.05 0.1,-0.1 0.25,-0.25 q 0.05,-0.55 -0.4,-1.5 l -1.6,-0.95 -0.2,-0.1 m 0.6,-1.1 0.1,-0.1 0.1,-1.15 q 0.15,-1.55 -0.75,-2.65 l -0.5,0.2 -0.8,3.05 -0.25,0.2 1.4,0.8 0.1,0.1 0.05,0.05 h 0.05 l 0.05,0.05 0.15,0.05 0.3,-0.6 m 5.95,1 -0.4,-0.3 -0.2,0.4 -0.4,0.45 0.7,0.25 0.3,-0.8 m -21.45,9.5 0.55,-0.75 0.25,-0.35 0.05,-0.05 0.4,-0.6 0.05,-1.2 q 0,-0.85 -0.7,-1.05 l -0.8,0.95 0.15,0.1 -0.3,0.6 -0.25,0.65 -0.1,0.4 -0.05,0.15 -0.25,0.75 0.25,0.15 0.5,0.35 v 0.05 l 0.1,0.05 0.15,-0.15 v -0.05 m 19.25,-11.45 -2.05,1.3 -1.1,0.65 1.15,0.65 q 0.4,0.7 0.5,1.45 l 1.65,-1.65 Q -1,-27 -2.2,-27.5 M -24.05,-16 q 0.05,-0.9 0.9,-0.7 v -0.25 l 0.05,-1 -0.35,-0.25 -1.5,-0.35 q -0.6,0 -0.75,1.15 l -0.15,0.8 0.25,0.7 0.6,-0.2 0.9,0.15 h 0.05 V -16 m -2.15,1.2 0.15,-0.65 v -0.05 l -0.25,-0.2 -0.1,-0.05 -0.05,0.1 -0.4,0.1 -1.95,-0.2 -0.15,0.2 -0.1,0.45 0.8,0.9 0.85,0.85 -0.05,0.25 h 0.1 l 0.65,-1.05 0.5,-0.35 v -0.15 -0.15 m 3.4,-1.15 -0.25,0.25 -0.55,0.65 h -0.15 l -0.1,0.15 -0.25,0.05 -0.4,-0.25 -0.55,-0.2 q -0.5,0 -0.4,0.2 l -0.05,0.55 h 0.05 v 0.1 q 0.1,0.6 -0.55,1.05 l -0.65,0.85 0.1,1.15 0.05,1.1 0.15,0.7 0.1,0.6 v 0.05 q 0.15,0.65 0.75,0.85 l 0.55,0.05 h 0.45 l -0.5,-0.4 -0.05,-0.1 0.75,-0.75 0.15,-0.15 1.15,-1.4 -0.45,-0.4 0.1,-0.15 0.5,-0.1 0.5,-0.3 v -0.05 l 0.2,-0.3 v -0.2 l 0.1,-0.95 -0.15,-0.05 v -0.05 q 0.45,-0.6 0.45,-1 l -0.25,-0.7 -0.8,-0.85 m 1.3,2.9 0.05,0.2 0.1,0.35 v 0.35 0.05 l 0.4,0.2 0.75,0.4 0.1,0.1 0.2,0.1 0.75,-0.1 0.1,-0.1 0.05,-0.25 0.4,-0.4 0.05,-0.05 v -0.05 -0.6 -0.05 q 0,-0.4 -0.15,-0.65 l 0.3,0.25 0.05,-0.05 -0.65,-0.7 v -0.05 h -0.1 l -0.3,-0.15 q -0.45,-0.15 -0.65,0.25 l -0.1,-0.05 -0.2,-0.35 q 0.45,-1 1.25,-1.6 0.5,-0.35 0.55,-0.75 l -0.1,-0.2 -0.5,-0.5 -0.2,-0.2 -0.3,0.55 -0.25,-0.1 -0.05,0.15 -0.05,0.1 q -0.2,0.5 -0.5,0.65 h -0.05 l -0.25,0.35 -0.3,0.4 -0.15,0.15 0.2,0.6 0.05,0.2 -0.1,0.95 -0.05,0.1 -0.25,0.2 -0.2,0.05 h -0.05 l 0.15,0.25 m -3.05,-0.25 -0.3,1.45 0.05,0.5 h 0.1 l 0.3,-0.4 0.25,-0.8 -0.1,-0.55 -0.05,-0.15 -0.1,-0.25 v -0.05 l -0.15,0.25 m 0.1,-1.2 q 0.4,-0.2 0.65,0 0.5,0.35 0.5,1.8 0,0.75 -0.35,1.55 l -0.15,0.35 q -0.4,0.7 -1,0.8 l -0.75,-1 -0.05,-0.95 q 0,-2 1.15,-2.55 m 1.9,4.25 0.1,0.65 0.05,0.35 -0.25,0.6 0.4,0.55 0.1,0.1 0.1,-0.15 0.5,0.8 0.05,0.1 0.4,0.1 0.65,-0.25 q 0.35,-0.4 0.45,-1.2 l 0.05,-0.95 -0.1,-0.3 -0.3,-0.05 -0.2,-0.05 Q -21,-10.1 -21,-10.65 v -0.1 l -0.25,-0.2 -0.25,-0.15 q -0.25,0.25 -0.75,0.35 h -0.3 l -0.4,-0.05 0.4,0.55 m -0.75,2.15 -0.7,0.15 0.15,0.1 -0.05,0.1 -0.35,0.4 -0.1,0.05 -0.85,0.1 h -0.2 l 0.25,0.65 q 0.45,1.2 1.4,1.2 l 0.75,-0.15 0.35,-0.35 0.2,-0.3 -0.15,-0.2 q -0.45,-0.55 -0.5,-1.2 l -0.1,-0.15 -0.1,-0.4 m -3.7,-1.9 0.05,0.05 v 0.05 l -0.15,0.55 h -0.1 l 0.05,0.15 q 0,0.15 -0.5,0.8 l -0.5,0.8 0.05,0.45 0.85,0.1 0.95,0.05 0.05,-0.4 q -0.6,-0.4 -0.6,-1.55 l 0.05,-0.6 0.15,-0.55 -0.75,-1.75 -0.15,-0.5 -0.85,0.7 -0.45,1.15 0.05,0.65 1.15,0.2 0.45,-0.4 0.2,0.05 m 7.2,3.85 q -0.55,0.45 -1.4,0.45 l 0.3,0.45 h -0.15 l -0.3,-0.2 -0.1,0.15 0.05,0.55 0.35,0.5 0.15,0.05 1.35,0.05 0.55,-0.45 0.1,-0.8 0.1,-0.3 q -0.7,0.05 -0.75,-0.45 l -0.05,-0.25 -0.2,0.25 m 1.4,-0.3 0.1,0.95 0.25,0.5 -0.35,0.1 -0.6,0.3 0.6,-0.3 0.35,-0.1 -0.25,-0.5 -0.1,-0.95 v -0.1 q 0,-1.4 0.9,-1.8 l -0.1,-0.75 v -0.15 l -0.1,-0.1 -0.1,-0.6 0.3,-0.75 -0.05,-0.05 -0.5,0.3 q 0.05,0.4 -0.05,0.85 -0.35,1.45 -0.85,1.65 l -0.15,0.45 0.05,0.1 0.15,0.05 0.2,0.4 0.3,0.5 m 2,-2.05 -0.15,-0.05 -0.95,0.2 0.95,-0.2 0.15,0.05 0.95,0.25 0.2,-1.4 h -0.3 q -0.2,0 -0.5,-0.25 l -0.15,-0.15 -0.2,0.6 0.15,0.2 q -0.1,0.45 -0.35,0.55 l 0.2,0.2 m 11.95,-9.05 v 0.4 l -0.05,0.4 -0.1,0.6 q -0.45,0.75 -1.35,0.7 l 0.75,1 1.2,0.1 0.3,-0.1 0.1,-0.05 1,-1.1 -0.85,-0.9 q -0.7,-0.1 -0.9,-0.4 -0.15,-0.25 0.1,-0.65 0.2,-0.35 1.45,-0.4 L -2.65,-18 q 1.35,-0.1 1.85,-0.95 l 0.4,-0.9 -1.35,-1.05 -0.1,-0.1 -1.1,0.6 q -0.05,0.65 -0.25,1 l -0.55,0.7 h -0.1 l -0.6,1.15 m 2.45,-6.05 -0.6,0.1 -0.65,0.55 -0.55,0.5 -0.05,0.05 0.15,0.1 q 0.6,0.35 0.7,1.25 l 0.05,0.25 0.3,-0.3 0.65,-0.35 0.1,-0.25 0.3,-0.3 h 0.4 l 0.3,-0.3 0.55,-0.6 -0.4,-0.45 L -2,-23.6 m -8.55,1.85 0.4,-0.65 q 0.5,-0.6 0.85,-0.4 l 0.5,0.15 0.4,-0.05 1.6,0.95 0.25,0.5 0.25,0.95 -0.5,0.85 -0.1,0.2 q -0.85,1.3 -2.7,0.25 -1.25,-0.7 -1.3,-1.65 l 0.35,-1.1 m 0.9,0.55 -0.15,0.6 0.8,0.45 0.8,0.4 q 0.85,-0.3 0.55,-1.45 l -1,-0.3 q -0.6,-0.35 -1,0.3 m 2.35,5.75 -0.25,0.55 -0.1,0.2 -0.6,0.5 H -9 l -0.45,-0.1 -0.2,-0.1 v 0.1 q -0.05,0.4 -0.25,0.75 v 0.05 l 0.2,0.7 0.3,0.55 0.45,0.35 0.6,0.25 q 0.95,0.1 1.7,-1.25 0.2,-0.35 -0.1,-1.3 l -0.2,-1.2 h 0.2 l -0.05,-0.15 v -0.1 h -0.1 l -0.3,-0.1 -0.1,0.3 m 6.05,-0.45 q 0.05,0.55 -0.3,1.2 l -0.7,0.8 q 0.9,0.55 0.85,1.45 0.55,-0.7 1.5,-1.2 l -0.2,-1.5 q 0,-0.65 -0.55,-0.9 l -0.6,0.15 m -2.65,3.1 q -0.6,1.1 -0.4,1.35 l 0.1,0.1 q 0.6,0.1 0.7,0.45 l 0.6,-0.95 0.4,-0.8 -0.4,-0.4 q -0.7,-0.35 -1,0.25 m -9.65,-7.7 q -0.75,-0.6 -0.7,-1.55 -0.3,0.3 -0.65,0.15 l -0.55,0.35 -0.85,0.9 q -0.7,1.2 0.2,1.75 l 1.15,-0.2 1.1,-0.15 0.25,-0.65 0.15,-0.2 0.2,-0.2 -0.3,-0.2 m -3.95,3.7 0.05,0.8 -0.25,0.7 0.5,0.15 q 0.55,0 0.7,-0.35 0.2,-0.35 0.55,-0.4 l -0.1,-0.25 -0.4,-0.5 -0.55,-0.2 -0.5,0.05 m 3.25,0.9 v 0.2 q -0.3,1.55 0.3,1.9 0.7,0.4 1.25,0.5 0.85,0.1 1.35,-0.45 l 0.45,-0.55 0.5,-0.5 q -0.8,-0.5 -0.9,-1.2 h -0.15 q -1.75,-0.25 -2.3,-1.55 l -0.5,1.65 m 1.9,8.15 q 0.4,-0.4 1.05,-0.45 l -0.2,-1.1 -0.05,-0.1 -0.15,-0.35 q -0.4,-0.55 -1.6,-0.55 -0.3,0 -0.6,0.4 l -0.35,0.8 -0.35,1.5 0.8,-0.35 0.1,-0.05 h 0.2 0.05 l 1,0.25 0.1,0.05 v -0.05 m -2.05,8 0.7,0.05 V 0.2 l 0.15,-0.25 0.1,0.35 h 0.3 l 0.2,0.05 0.1,0.15 0.05,0.05 h 0.2 1.4 q 0.7,-0.45 0.85,-0.9 l -0.05,-0.2 V -0.7 l -0.25,-0.15 0.1,-0.2 -0.1,-0.15 0.3,-0.25 0.15,0.15 0.2,-0.05 h 0.05 q 0.3,-0.05 0.5,-0.2 l 0.3,-0.25 0.2,-0.3 q -0.4,-0.7 -0.4,-1.25 0,-0.6 0.45,-0.8 l 0.2,-0.1 0.05,-0.3 0.1,-0.35 -0.4,-0.35 q -0.7,0 -1.15,-0.35 l -0.1,-0.25 0.25,-0.35 -0.05,-0.95 -1.1,-0.15 -0.4,0.05 -0.3,0.2 q -0.15,0.2 -0.35,0.2 h -0.15 l -0.15,-0.05 -0.1,-0.1 -0.25,-0.15 -0.5,-0.15 q -0.75,0 -1.15,0.9 l -0.4,0.75 v 0.05 h 0.05 0.15 l -0.1,0.1 q -0.35,0.4 -0.95,0.7 l -0.1,0.1 -0.35,0.65 0.3,0.35 0.45,0.6 -0.1,0.05 0.15,0.1 -0.7,1.15 q 0,0.45 0.45,0.5 L -15,-1 v -0.1 l 0.05,0.15 0.05,0.05 0.3,0.3 -0.2,0.25 0.3,0.55 0.05,0.05 h 0.05 M -9.05,-6.7 -8.55,-7.15 -7.95,-8 -8,-8.65 -8.5,-9.45 -9.15,-9.6 -9.9,-9.3 -10,-9.25 -10.4,-8.9 v 0.05 q 0,0.4 -0.15,0.7 l 0.9,0.35 q 0.3,0.25 0.3,0.65 v 0.2 l -0.05,0.4 -0.05,0.3 0.35,0.05 0.1,-0.15 -0.15,-0.1 0.1,-0.25 m -6.1,-4.7 -0.2,0.2 h 0.05 l 0.1,-0.05 0.05,-0.15 m -3.9,1.5 0.05,0.3 0.1,-0.3 h -0.15 m 3.5,3.3 -0.5,-0.45 -0.2,-0.2 -0.5,-0.35 -0.2,0.05 q -0.5,0.05 -0.6,0.7 v 0.3 l 0.05,0.6 0.15,0.35 0.2,0.45 q 0.35,0.05 0.45,0.35 l 0.1,-0.15 0.4,-0.4 0.15,-0.05 0.7,-0.2 -0.1,-0.4 0.1,-0.55 -0.2,-0.05 m -0.8,3.9 h -0.05 l -0.4,-0.5 -0.15,-0.45 h -0.25 l -0.35,-0.2 -0.3,-0.15 -0.5,-0.05 -0.7,0.65 -0.15,0.75 q 0,0.65 0.55,0.8 l 1.3,0.55 0.6,-0.15 0.05,-0.65 0.05,-0.1 v -0.05 l 0.1,-0.1 0.2,-0.2 0.2,-0.15 h -0.2 M -16.4,-0.55 -17,-0.1 -17.95,1.05 -18,1.4 -17.85,2 h 0.15 l 1.35,-0.45 0.2,-0.1 0.85,-0.6 -0.1,-0.4 0.1,-0.75 -0.8,-0.1 -0.3,-0.15 m -3.15,-3.6 q -0.5,0.55 -0.6,1.4 0.1,-0.85 0.6,-1.4 m 6.3,0.6 q 0,0.6 0.5,0.6 h 0.05 L -12.05,-3 q 0.4,-0.1 0.45,-0.25 V -3.3 l -0.05,-0.4 0.1,-0.2 -1.6,-0.1 -0.1,0.45 m 0.9,-1.45 q 1.35,0.05 1.65,0.85 l 0.1,0.55 -0.05,0.75 v 0.05 l -0.9,0.8 H -13 l -0.3,-0.2 -0.4,-0.1 -0.3,-0.3 -0.05,-0.3 v -0.6 q 0,-1.15 0.95,-1.4 l 0.75,-0.1 m 4.95,-4.9 0.5,0.85 h 0.05 l 1.5,0.3 q 0.8,0.4 0.6,1.25 l 0.35,0.3 0.3,0.25 q 0.25,0.15 0.45,0 l 0.2,-0.25 1,-1.1 0.35,0.05 0.25,0.25 0.75,-1.1 q -0.85,-0.5 -0.85,-1.7 v -0.1 q -1,1.6 -2.4,0.85 l -0.9,-0.45 -0.35,-1.25 q -0.75,1.15 -1.75,1.4 L -7.4,-9.9 m 5.15,3 -0.05,0.05 0.1,0.2 0.15,-0.1 V -6.9 -7.15 l -0.2,0.25 m -5.8,2.6 q 0.2,-0.25 0.8,0 h 0.05 l 0.9,-0.3 -0.2,-1.1 Q -6.75,-6.15 -7.55,-6.35 L -7.6,-6.4 -7.85,-6.25 -8.45,-6 H -8.5 l 0.1,0.05 q 0.55,0.3 0.55,1 L -8,-4.55 -8.05,-4.4 -8.15,-4.25 -8.3,-4 -8.35,-2.95 h 0.05 q 0.15,0.25 0.15,0.75 l -0.25,0.75 v 0.05 l 0.55,0.8 0.05,-0.05 1.35,-0.15 0.1,-0.6 v -0.2 q 0,-0.8 -0.9,-1.35 L -8,-3.6 l -0.15,-0.3 0.1,-0.4 m 1.3,-3.5 -0.1,0.8 0.3,0.15 1.1,-0.2 q 0.8,0.4 -0.05,1.2 0.3,0.45 0.3,1.05 l -0.05,0.5 0.9,0.15 0.65,-0.2 L -3.3,-4.7 -3,-5 -2.85,-6.25 Q -3.65,-5.7 -4.4,-6.1 L -5.1,-6.9 -5.3,-7.2 -6.45,-7.85 -6.5,-7.8 h -0.25 m -1.8,6.75 v -0.1 l -0.5,0.5 -0.35,0.2 H -9.65 -9.8 v 0.05 l 0.15,0.5 0.05,0.1 0.25,0.6 0.35,0.3 0.55,0.25 0.2,0.05 h 0.2 L -7.6,1.3 -7.75,0.65 -7.8,0.35 -8.1,0.2 -8.15,-0.15 v -0.2 l -0.3,-0.55 -0.1,-0.15 m 8.35,-3.1 h -0.05 l 0.05,0.05 v -0.05 m -1.85,0.8 q 0.2,0.6 0.25,1.45 l 0.2,4.8 h 0.65 l -0.25,-5.85 -0.4,-0.2 -0.45,-0.2 M -4.8,-1.3 q 0.35,2.6 0.4,4.2 h 0.9 L -3.9,-3 v -0.1 l -1.15,0.15 0.25,1.65 M -5.6,0 Q -5.95,0.4 -6.55,0.45 L -6.5,1 v 0.1 l 0.6,1.8 h 0.8 L -5.6,0 M -9.95,3.4 -9.85,3.2 -9.7,2.75 -9.65,2.1 -10.1,0.35 -10.85,1 -11,1.1 h -1.05 l 0.5,0.9 0.35,0.75 0.2,0.45 0.15,0.2 0.15,0.3 q 0.5,0.05 0.75,-0.3 m -2.15,0 h 1.25 -1.25 m 4.25,-0.5 h 0.1 l -0.1,-0.3 h -0.1 l 0.1,0.3 m -6.9,-0.15 -0.1,0.45 -0.05,0.2 -0.1,0.3 0.2,0.3 0.9,-0.5 0.05,-0.1 0.15,-0.2 0.35,-0.45 0.15,-0.25 0.4,-0.85 -0.05,-0.1 0.05,-0.5 L -13,1 -13.15,1.05 h -1.3 l 0.1,0.25 -0.35,1.25 -0.05,0.2 M -16.2,2.6 -16.15,2.55 -16.1,2.5 -16.15,2.55 -16.2,2.6 m 0.25,0.6 -0.05,0.2 0.05,-0.2"
         fill="#6b6b6b"
         fill-rule="evenodd"
         stroke="none"
         id="path7" />
      <path
         d="m -15.75,-14.2 q 0.2,1 1.15,1.8 l -0.45,0.5 -1.05,0.3 -0.25,-0.3 -0.2,-0.3 0.05,-0.2 h -0.15 l -0.2,-1.5 h 0.55 q 0.35,-0.1 0.55,-0.3 m 4.7,2.1 0.05,-0.05 0.05,0.1 -0.1,-0.05 m 1.05,0.95 0.5,0.3 0.7,0.35 h -0.3 l -1.5,0.3 -0.3,-0.55 0.25,-0.2 0.55,-0.2 h 0.1 m 16.95,-12.8 v 0.05 h -0.9 l 0.9,-0.05 M -15.9,2.4 -15.95,2.6 h -0.1 l -0.05,-0.1 0.2,-0.1 m 29.4,-4.7 q 0.65,-0.1 0.85,-0.5 l -0.2,0.6 -0.65,-0.1 m -0.45,11.05 0.4,0.1 -0.4,-0.05 V 8.75 m 2.8,-4.6 -0.1,-0.35 0.2,0.25 -0.1,0.1 m -5.6,1.35 -0.2,1 V 6.7 L 9.75,6.4 9.65,6.25 10,5.6 10.2,5.45 10.25,5.5 M 5.95,3.55 5.75,3.4 5.45,3.2 5.15,3.15 5.3,2.6 5.6,3.1 5.95,3.55 M 8.7,4.8 V 4.85 L 8.85,5.5 8.8,5.6 8.3,5.2 8.2,5.15 7.45,4.55 8.7,4.8 M 9.35,5.25 9.2,4.75 9.25,4.8 9.5,5.05 9.35,5.25 M -16.4,-8.5 -16.6,-8.7 q 0.25,-0.1 0.35,-0.55 l -0.15,-0.2 0.2,-0.6 0.15,0.15 q 0.3,0.25 0.5,0.25 h 0.3 l -0.2,1.4 -0.95,-0.25 m -1.1,-8.3 0.5,-0.05 0.55,0.2 0.4,0.5 0.1,0.25 q -0.35,0.05 -0.55,0.4 -0.15,0.35 -0.7,0.35 l -0.5,-0.15 0.25,-0.7 -0.05,-0.8 m 3,17 0.1,0.05 h -0.05 L -14.5,0.2 m -0.65,-11.6 -0.05,0.15 -0.1,0.05 h -0.05 l 0.2,-0.2 m 13.1,4.5 v 0.15 l -0.15,0.1 -0.1,-0.2 0.05,-0.05 h 0.2 m 1.85,2.75 V -4.1 L -0.25,-4.15 H -0.2 M -9.95,3.4 q -0.25,0.35 -0.75,0.3 l -0.15,-0.3 h 0.9"
         fill="#bfbfbf"
         fill-rule="evenodd"
         stroke="none"
         id="path8" />
      <path
         d="m 5.45,-31.4 0.2,0.3 0.2,-0.1 1.05,0.65 0.6,0.65 -2,-0.9 -0.55,-0.75 0.5,0.15 M 2,-30.35 2.1,-30.4 2,-30.3 v -0.05 m 0.8,7.85 -0.65,-0.1 H 2 1.95 v -0.1 L 2,-22.65 h 0.15 l 0.2,-0.05 -0.15,-0.05 -0.2,-0.1 -0.25,-0.2 v -0.05 l -0.2,-0.15 0.45,0.3 h 0.05 l 0.2,0.1 0.55,0.35 m 3.45,-4.55 0.15,0.3 -0.05,-0.05 -0.1,-0.25 m -3.4,-0.15 -0.25,-0.6 0.8,0.15 -0.35,0.2 -0.2,0.25 m 5.9,0.4 -0.35,-0.45 -0.1,-0.1 q 0.3,-0.55 -0.1,-1.45 0.45,0.9 0.55,2 M 8.1,-24.45 7.85,-24.8 q 0.35,-0.05 0.75,-0.55 l 0.15,-0.3 -0.25,0.8 -0.4,0.4 m 3.95,7.9 -0.05,0.05 v -0.05 h 0.05 m 4.6,7.1 0.2,0.05 -0.15,0.05 -0.05,-0.1 m -2.2,-7.3 0.75,0.3 -0.6,-0.05 -0.1,-0.15 -0.05,-0.1 m -3,4.95 -0.45,-0.05 0.1,-0.5 v -0.1 l 0.35,0.65 m 6.35,-0.85 -0.4,-0.4 -0.35,-1.9 0.15,0.25 0.55,1.55 v 0.05 0.05 0.2 l 0.05,0.2 m -15.6,0.25 0.05,0.05 -0.1,0.05 0.05,-0.1 M 1.8,-10.1 2,-9.8 2.05,-8.5 2,-8.45 1.8,-10.1 m 1.8,4.8 H 3.7 3.85 3.9 v 0.05 L 3.85,-5.1 3.6,-5.3 m 1.1,5.05 H 4.8 L 4.75,-0.2 4.7,-0.25 M 8.95,-3.4 8.3,-3.3 H 7.8 7.75 V -3.4 L 8,-3.45 8.2,-3.4 H 8.95 M 12.15,-8 12,-8.15 h 0.15 V -8 m -1,2.9 -0.15,0.5 -0.1,-0.5 h 0.25 m 0.75,4.05 -0.2,0.2 -0.1,-0.3 0.15,-0.15 v 0.25 H 11.9 M 13.6,1.9 13.65,1.85 13.75,1.8 14.05,1.65 14.5,1.5 14.4,1.95 H 13.8 13.7 L 13.6,2 V 1.9 m -0.85,-2 v 0.05 L 12.7,-0.1 h 0.05 M 11.9,4.45 11.95,4.1 V 4.05 l 0.1,-0.35 0.05,-0.1 0.05,-0.2 0.1,-0.2 0.2,-0.25 0.1,-0.2 0.3,-0.3 -0.15,0.2 -0.05,0.1 L 12.5,3 12.4,3.2 12.35,3.3 v 0.1 l 0.05,0.1 0.25,0.25 -0.55,0.4 V 4.2 L 11.95,4.45 H 11.9 m 1.05,-2.1 0.2,-0.2 0.05,0.05 -0.25,0.15 m -1.05,4 -0.05,-0.75 0.25,0.2 0.1,0.05 h 0.05 l 0.3,0.1 -0.3,0.1 -0.15,0.1 -0.2,0.2 M 14.5,5.3 14.4,4.85 14.6,4.65 14.5,5.3 M 14.05,6.25 14,6.35 13.95,6.3 13.9,5.75 l 0.15,0.5 m 2,2.6 L 16.6,7.9 16.45,8.45 16.2,8.9 16.05,8.85 M 12.1,9.1 11.45,8.2 11.7,7.95 12.1,8.3 12,8.35 l 0.1,0.6 0.25,0.15 0.45,0.25 -0.25,0.2 -0.1,0.1 L 12.25,9.4 12.1,9.1 M 4.9,1.85 5.05,1.95 5.3,2.05 5.95,2.95 H 5.9 L 6.15,3.65 5.95,3.55 5.6,3.1 5.3,2.6 5.2,2.25 4.95,1.95 4.9,1.85 M 7.45,4.55 7.25,4.4 8.4,4.3 8.5,4.2 8.55,4.25 8.7,4.8 7.45,4.55 m -19.95,-29 0.2,0.45 -0.55,-0.05 0.35,-0.4 m 2.75,-1.9 -0.1,0.25 -0.25,-0.1 0.35,-0.15 m -11.7,10.3 V -16 l -0.15,0.15 -0.1,-0.05 v -0.05 l -0.5,-0.35 0.75,0.25 m -2.6,0.05 v 0.05 h -0.05 l 0.05,-0.05 m -2.15,1.2 v 0.15 0.15 l -0.5,0.35 0.5,-0.65 m 4.7,1.75 -0.15,-0.25 h 0.05 l 0.2,-0.05 -0.1,0.2 v 0.1 m 0.45,-1.75 -0.2,-0.6 0.15,-0.15 0.1,0.65 -0.05,0.1 m -3.35,1.3 -0.15,0.2 0.15,-0.25 v 0.05 m 2.15,2.75 -0.3,0.5 -0.4,-0.55 0.4,0.05 h 0.3 m -2,3.4 0.35,-0.4 0.05,-0.1 -0.15,-0.1 0.7,-0.15 -0.15,0.4 q -0.2,0.3 -0.8,0.35 M -27,-10 q -0.4,-0.85 -0.4,-1.55 v -0.3 l 0.75,1.75 -0.15,0.55 -0.05,-0.15 -0.1,-0.2 V -9.95 L -27,-10 m 7.2,3.85 0.2,-0.25 0.05,0.25 h -0.25 m 1.4,-0.3 -0.3,-0.5 -0.2,-0.4 -0.15,-0.05 -0.05,-0.1 0.15,-0.45 q 0.5,-0.2 0.85,-1.65 0.1,-0.45 0.05,-0.85 l 0.5,-0.3 0.05,0.05 -0.3,0.75 0.1,0.6 0.1,0.1 v 0.15 l 0.1,0.75 q -0.9,0.4 -0.9,1.8 v 0.1 m 11.1,-9 0.1,-0.3 0.3,0.1 -0.4,0.2 m -6.25,-5.05 0.3,0.2 -0.2,0.2 -0.1,-0.4 m 1.1,12.75 h 0.1 v 0.05 l -0.1,-0.05 m 3.1,0.8 0.3,0.25 -0.1,0.25 0.15,0.1 -0.1,0.15 -0.35,-0.05 0.05,-0.3 0.05,-0.4 m -9.7,-2.95 h 0.15 l -0.1,0.3 -0.05,-0.3 m 3.5,3.3 0.2,0.05 -0.1,0.55 0.1,0.4 -0.7,0.2 -0.15,0.05 0.05,-0.15 0.15,-0.35 0.45,-0.75 m -0.8,4.05 V -2.7 h 0.2 l -0.2,0.15 m 14.3,-4.35 h -0.2 l 0.2,-0.25 v 0.25 m -6,2.6 -0.1,0.4 0.15,0.3 v 0.5 0.1 q 0,0.85 -0.4,1.6 v -0.05 l 0.25,-0.75 q 0,-0.5 -0.15,-0.75 H -8.35 L -8.3,-4 l 0.15,-0.25 0.1,-0.15 v 0.1 M -8.4,-5.95 -8.5,-6 h 0.05 l 0.05,0.05 M -9.65,0.1 -9.8,-0.4 v -0.05 h 0.15 0.25 l 0.35,-0.2 0.5,-0.5 v 0.1 l -0.1,0.15 -0.35,0.4 -0.25,0.3 -0.4,0.3"
         fill="#a1a1a1"
         fill-rule="evenodd"
         stroke="none"
         id="path9" />
      <path
         d="m 5.85,-31.2 0.05,-0.6 0.95,-0.65 0.55,0.4 q 0.4,0.4 0.45,1.15 l -0.1,1.1 -0.25,-0.1 -0.6,-0.65 -1.05,-0.65 m -0.9,-0.35 -0.1,-0.15 Q 4,-32.5 3.35,-32.4 l -0.3,-0.35 0.75,-0.6 0.4,-0.4 0.35,-0.05 0.3,0.2 0.2,0.9 0.2,0.9 0.1,0.1 -0.05,0.05 0.15,0.25 -0.5,-0.15 m -3.85,-0.9 0.85,0.25 0.65,0.25 -0.7,0.8 0.05,0.75 0.05,0.05 v 0.05 l -0.25,0.45 v 0.05 H 1.7 l 0.1,0.15 0.3,0.3 0.25,0.8 -0.25,0.5 0.6,0.55 -0.1,0.5 -0.1,0.05 0.05,0.1 0.15,0.2 0.2,0.1 0.7,1 v 0.35 q 0.35,0.25 0.65,0.2 -0.25,0.35 -0.15,0.65 l 0.6,0.75 0.75,0.4 0.15,1.15 H 5.55 q -0.1,0.35 0.15,0.9 l 0.05,0.2 -0.25,0.05 0.2,0.65 h -1 l -0.2,-0.1 q -0.25,-0.35 -0.15,-0.9 0.15,-1 -0.25,-2 l -0.35,-0.1 H 3.6 q 0.15,0.45 -0.25,0.65 L 3,-22.6 2.9,-22.5 H 2.8 l -0.55,-0.35 -0.2,-0.1 H 2 L 1.55,-23.25 1.3,-23.5 v -0.15 l -0.1,-0.1 v -0.35 l 0.05,-0.1 -0.05,-0.05 -0.05,-0.15 -0.05,-0.15 0.5,-0.6 0.35,-0.05 h 0.1 L 2.3,-25.3 2.2,-25.85 2.05,-26 l -0.1,-0.1 -0.6,-0.5 v -0.1 L 1.2,-26.85 H 1.1 q -0.85,-0.1 -1.35,-0.6 -0.4,-0.4 -0.4,-0.85 0,-1.95 1.4,-1 v -0.05 l 0.2,-0.3 -0.05,-0.5 v -0.1 L 0,-30.55 h -0.1 l -0.15,-0.05 -0.05,-0.35 0.05,-0.6 0.35,-0.45 1,-0.45 m 7.1,3.65 -0.1,-0.3 0.1,-0.1 0.15,0.2 q 0.15,0.2 1.2,0 l 1.2,0.1 0.25,0.35 0.05,0.25 -1.55,1.25 -0.2,0.35 0.05,0.1 H 9.2 l -0.3,0.05 -0.15,-0.25 q -0.1,-1.1 -0.55,-2 m 0.55,3.15 0.15,-0.3 q 0.2,0.2 0.65,0.35 l 0.45,0.65 0.35,0.65 v 0.65 l -0.1,0.1 q -0.55,0.55 -1.3,0.8 l -0.4,0.05 -0.65,-0.75 -0.2,-0.2 q 0.6,-0.35 0.4,-0.8 l 0.4,-0.4 0.25,-0.8 m 1.55,7.55 1.05,-1.1 q 0.5,-0.35 1.25,0.55 l 0.55,0.6 0.2,0.7 -0.6,0.15 -0.7,0.65 H 12 q -0.5,-0.7 -1.1,-0.15 l -0.6,-1.4 m 6.55,8.7 h 0.1 q 0.3,-0.1 1,-0.55 l 0.15,0.7 Q 18.35,-8 17.55,-7.5 L 17,-7.25 17.05,-7.9 16.7,-9.35 16.85,-9.4 m -2.4,-7.35 -0.45,-0.45 -0.05,-0.05 0.1,-0.3 v -0.1 l 0.1,0.1 0.45,-0.2 1.5,-1.2 0.25,0.05 0.3,0.35 q 0.2,0.25 -0.2,1.2 l -0.25,1.15 0.2,0.2 -0.1,0.05 -1.1,-0.5 -0.75,-0.3 m -3.35,4.3 -0.05,-0.45 -0.05,-0.15 0.6,-0.4 0.25,-0.25 0.75,-0.65 0.15,-0.05 q 1.05,0 1.05,1.35 l -0.05,0.4 -0.1,0.45 -0.15,0.35 -0.25,0.6 -0.4,0.2 -0.15,0.25 -0.15,-0.25 -0.8,-0.65 -0.3,-0.1 -0.35,-0.65 m 5.95,-2.5 -0.15,-0.45 1.1,0.1 q 0.7,0.2 1.05,0.7 l 0.3,0.6 q -0.8,0.4 -0.9,0.8 l -0.6,-0.15 -0.1,0.2 -0.55,-1.55 -0.15,-0.25 m 0.7,1.9 0.4,0.4 0.1,-0.1 0.05,0.2 0.8,0.4 0.9,0.4 0.2,0.4 -0.65,0.55 -0.75,0.55 -0.3,-0.3 q 0.3,-0.7 -0.35,-1.65 l -0.35,-0.45 -0.05,-0.2 v -0.2 m -9.9,-6.5 H 7.75 L 7.6,-19.6 7.25,-19.9 6.4,-20.75 l -0.15,-0.7 -0.05,-0.5 -0.2,-1.2 1.05,-0.15 0.4,0.85 0.2,0.35 0.3,0.6 0.25,0.65 0.15,-0.05 0.15,1.1 q -0.25,0.2 -0.65,0.25 m -3.45,3.25 0.3,0.25 V -16 l 0.2,0.9 -0.65,0.15 -0.5,0.3 -0.2,0.2 -0.2,0.4 v 0.2 l 0.05,0.65 0.05,0.5 -0.4,0.1 -0.15,-0.2 0.2,-0.15 -0.35,-0.5 L 2.55,-13.6 2.3,-13.85 2.1,-14 1.9,-14.2 q -0.35,-0.4 -0.35,-0.7 0,-2.05 1.55,-2.05 l 1.05,0.45 0.25,0.2 m -4.9,5.2 v -0.05 L -0.25,-12 q 0.3,-0.55 1.2,-0.8 l 0.15,-0.05 1.1,0.45 -0.05,0.1 q -0.5,0.3 -0.65,0.85 l -0.05,0.3 v 0.1 q 0,0.2 0.35,0.9 v 0.05 L 2,-8.45 v 0.05 l -0.15,0.45 v 0.4 l 0.3,1 -0.7,1.05 -0.1,-0.05 -1.7,-0.2 -0.1,-0.65 v -0.35 q 0,-1 1.1,-1.75 L 1.4,-9.1 1.8,-9.7 1.75,-10.05 Q 1.55,-10.6 0.6,-10.2 l -0.95,-0.3 -0.15,-0.6 m 6.3,-4.1 0.15,-0.55 0.05,-0.35 0.1,-0.45 q 0.1,-0.7 0.75,-1 l 1.4,-0.25 h 0.1 q 0.45,0 0.85,0.75 l 0.35,0.75 0.3,0.95 0.05,0.25 0.15,0.65 v 0.05 H 10 L 9.95,-14.45 9.8,-14.55 9.65,-14.65 8.5,-14.9 H 8.2 l -0.1,0.05 -0.35,0.05 -0.6,0.25 -0.2,-0.15 -0.1,-0.1 -1.05,-0.35 V -15.2 M 3.85,-5.1 3.65,-4.5 3.35,-3.7 2.9,-3.35 1.95,-2.95 1.2,-3.55 1.3,-3.9 1.4,-4.3 1.75,-4.5 1.85,-4.9 1.8,-5.2 2.2,-5.85 2.35,-6.2 q 0.6,0.85 1.25,0.9 l 0.25,0.2 M 4.7,-0.25 H 4.65 L 4.15,-0.3 3.9,-0.7 3.7,-2.05 3.95,-3.2 4.3,-4.3 q 0.45,0.6 1.15,1 H 6.1 6.7 6.75 l -0.5,0.9 -0.1,0.2 -0.7,1.45 L 5.2,-0.3 4.8,-0.25 H 4.7 M 7.75,-3.3 H 7.8 8.3 l 0.65,-0.1 h 0.9 L 9.7,-3.1 v 0.15 l 0.05,0.2 0.55,1.85 0.25,0.85 L 10.3,0.3 10.15,0.35 9.6,0.05 9.05,-0.35 8.45,-1.15 8.3,-1.45 8.25,-1.55 7.75,-2.6 7.8,-2.75 7.75,-3.3 m 4.4,-4.85 0.35,-0.15 0.35,-0.5 0.15,-0.6 0.35,0.05 0.4,-0.25 0.65,-0.25 0.4,-0.05 q 0.5,0 0.85,0.85 l 0.25,0.95 q 0,0.75 -0.55,1 L 15.2,-7.05 13.5,-6.4 12.75,-6.6 12.6,-7.6 12.15,-8 v -0.15 m -1,3.05 0.5,-0.05 0.65,-0.3 0.35,0.3 0.35,0.25 0.1,0.05 0.85,0.85 0.3,0.55 0.1,0.5 v 0.1 0.05 q -0.2,0.4 -0.85,0.5 L 12.9,-2.45 Q 12.3,-2.65 12,-2.9 L 11.4,-3.35 10.9,-3.65 11.05,-4 V -4.15 L 11,-4.6 11.15,-5.1 M 13.6,1.9 13.55,1.75 13.5,1.3 V 1.1 0.85 L 13.45,0.75 V 0.7 L 13.4,0.15 V 0.1 l 0.35,-0.55 0.1,-0.25 0.1,-0.15 h 0.6 l 0.25,-0.2 V -1 l 0.1,0.8 -0.15,0.05 V 0.2 0.35 L 14.65,0.6 V 0.9 L 14.6,1.2 14.55,1.3 14.5,1.5 14.05,1.65 13.75,1.8 13.65,1.85 13.6,1.9 m -0.9,-2 0.05,0.05 V -0.1 h 0.05 v 0.05 0.4 L 12.85,0.4 H 13 L 12.95,0.5 12.9,1.15 13,1.3 h 0.05 l 0.1,0.85 -0.2,0.2 H 12.9 V 2.4 l -0.05,0.05 -0.3,0.3 -0.1,0.2 -0.2,0.25 -0.1,0.2 -0.05,0.2 -0.05,0.1 -0.1,0.35 V 4.1 L 11.9,4.45 11.25,4.4 h -0.2 -0.1 L 10.7,4.45 10.2,4.05 10.15,4 V 3.95 L 10.2,3.8 10.1,3.45 V 3.2 l 0.25,-0.4 0.05,-0.05 0.35,-0.3 h -0.3 L 10.4,2.4 11.15,2.2 11.2,2.25 h 0.1 L 11.5,2.2 11.75,2.4 11.8,2.65 11.85,2.7 12.05,2.65 12.1,2.6 12.2,2.55 12.1,1.35 11.95,0.95 Q 11.75,0.5 11.9,0.2 L 12,0.1 12.7,-0.1 m 4.05,3.3 -0.3,0.2 -0.1,0.15 L 16.2,3.4 16.15,3.35 16.1,3.3 16.05,3.2 V 3.15 L 15.95,3.1 15.6,2.95 H 15.3 L 15.4,2.75 15.35,2.3 15.2,2.15 15,2.05 15.1,1.9 15.35,1.35 15.4,1.25 15.45,1.15 h 0.3 l 0.6,0.1 0.2,0.05 0.4,0.2 Q 17.35,1.7 17,2.6 L 16.9,2.75 16.85,2.95 16.8,3 16.7,3.1 16.75,3.2 m 1.75,1.7 v 0.2 l -0.15,0.35 -0.85,0.3 -0.9,0.2 -0.1,0.2 h -0.05 q 0.15,-1 -0.25,-1.4 L 16.25,4.65 16.5,4 l 0.25,-0.1 0.1,0.05 v 0.1 l 0.2,0.25 1.45,0.6 M 10.25,5.5 10.55,5.6 11,5.5 11.15,5.35 11.2,5.25 h 0.05 l 0.2,-0.05 0.2,0.05 0.2,0.3 V 5.6 L 11.9,6.35 11.55,6.85 11.5,7.2 V 7.35 L 11.05,7.55 10.9,7.6 V 7.55 L 10.85,7.4 H 10.8 L 10.75,7.45 10.65,7.35 10.05,6.7 V 6.5 l 0.2,-1 m 5.8,3.35 -0.8,-0.2 L 15.1,8.1 h -0.2 l -0.1,0.5 h 0.05 L 14.8,8.65 14.75,8.75 14.7,9.1 14.75,9.45 14.8,10.2 14.6,10.5 14,10.2 13.3,9.85 13.4,9.6 q 0.45,0 0.85,-0.5 l 0.2,-0.3 V 8.75 l 0.3,-0.85 1.5,-1.2 0.1,0.15 0.25,0.7 V 7.9 L 16.05,8.85 M 4.95,1.95 Q 4.6,1.85 4.25,2.4 L 3.3,2.65 2.9,1.6 Q 2.8,1.15 3.2,0.7 l 1.05,0.5 0.15,0.3 0.5,0.35 0.05,0.1 m -17.8,-26 -0.5,0.25 -0.45,0.4 -0.25,-0.2 h -0.5 q -0.3,0.2 -1.05,-0.25 -0.45,-0.25 -0.3,-1.15 l 0.25,-1 q 0.45,-0.7 1.15,-0.55 l 1.75,0.3 0.55,0.55 -0.35,0.95 0.05,0.3 -0.35,0.4 m 2.75,-2.15 -1.1,-0.25 -0.4,-0.95 q -0.6,-1.35 -0.1,-2.25 l 0.5,-0.55 1.5,1.65 0.6,1.2 -0.35,0.4 -0.3,0.6 -0.35,0.15 m 4.15,-0.35 -0.3,0.6 L -6.4,-26 -6.45,-26.05 H -6.5 l -0.05,-0.05 -0.1,-0.1 -1.4,-0.8 0.25,-0.2 0.8,-3.05 0.5,-0.2 q 0.9,1.1 0.75,2.65 l -0.1,1.15 -0.1,0.1 m 3.75,-0.95 q 1.2,0.5 0.15,2.4 l -1.65,1.65 q -0.1,-0.75 -0.5,-1.45 l -1.15,-0.65 1.1,-0.65 2.05,-1.3 m -20,11.2 -0.25,-0.15 0.25,-0.75 0.05,-0.15 0.1,-0.4 0.25,-0.65 0.3,-0.6 -0.15,-0.1 0.8,-0.95 q 0.7,0.2 0.7,1.05 l -0.05,1.2 -0.4,0.6 -0.05,0.05 -0.25,0.35 -0.55,0.75 -0.75,-0.25 m -1.9,0.35 -0.9,-0.15 -0.6,0.2 -0.25,-0.7 0.15,-0.8 q 0.15,-1.15 0.75,-1.15 l 1.5,0.35 0.35,0.25 -0.05,1 v 0.25 q -0.85,-0.2 -0.9,0.7 l -0.05,0.05 m -2.6,1.8 -0.65,1.05 h -0.1 l 0.05,-0.25 -0.85,-0.85 -0.8,-0.9 0.1,-0.45 0.15,-0.2 1.95,0.2 0.4,-0.1 0.05,-0.1 0.1,0.05 0.25,0.2 v 0.05 l -0.15,0.65 -0.5,0.65 m 5.6,-1.4 0.3,-0.4 0.25,-0.35 h 0.05 q 0.3,-0.15 0.5,-0.65 l 0.05,-0.1 0.05,-0.15 0.25,0.1 0.3,-0.55 0.2,0.2 0.5,0.5 0.1,0.2 q -0.05,0.4 -0.55,0.75 -0.8,0.6 -1.25,1.6 l 0.2,0.35 0.1,0.05 q 0.2,-0.4 0.65,-0.25 l 0.3,0.15 h 0.1 v 0.05 l 0.65,0.7 -0.05,0.05 -0.3,-0.25 q 0.15,0.25 0.15,0.65 v 0.05 0.6 0.05 l -0.05,0.05 -0.4,0.4 -0.05,0.25 -0.1,0.1 -0.75,0.1 -0.2,-0.1 -0.1,-0.1 -0.75,-0.4 -0.4,-0.2 v -0.05 -0.35 l -0.1,-0.35 -0.05,-0.2 v -0.1 l 0.1,-0.2 0.25,-0.2 0.05,-0.1 0.1,-0.95 -0.05,-0.2 0.05,-0.1 -0.1,-0.65 m -1.15,4.8 q 0.5,-0.1 0.75,-0.35 l 0.25,0.15 0.25,0.2 v 0.1 q 0,0.55 0.45,0.7 l 0.2,0.05 0.3,0.05 0.1,0.3 -0.05,0.95 q -0.1,0.8 -0.45,1.2 l -0.65,0.25 -0.4,-0.1 -0.05,-0.1 -0.5,-0.8 -0.1,0.15 -0.1,-0.1 -0.4,-0.55 0.25,-0.6 -0.05,-0.35 -0.1,-0.65 0.3,-0.5 m -1.05,2.65 0.1,0.4 0.1,0.15 q 0.05,0.65 0.5,1.2 l 0.15,0.2 -0.2,0.3 -0.35,0.35 -0.75,0.15 q -0.95,0 -1.4,-1.2 L -25.4,-7.2 h 0.2 l 0.85,-0.1 0.1,-0.05 q 0.6,-0.05 0.8,-0.35 l 0.15,-0.4 m -4.1,-3.75 v 0.3 q 0,0.7 0.4,1.55 l -0.2,-0.05 -0.45,0.4 -1.15,-0.2 -0.05,-0.65 0.45,-1.15 0.85,-0.7 0.15,0.5 m 0.45,1.95 0.1,0.2 0.05,0.15 -0.05,0.6 q 0,1.15 0.6,1.55 l -0.05,0.4 -0.95,-0.05 -0.85,-0.1 -0.05,-0.45 0.5,-0.8 q 0.5,-0.65 0.5,-0.8 l -0.05,-0.15 h 0.1 l 0.15,-0.55 m 7.4,5.75 -1.35,-0.05 -0.15,-0.05 -0.35,-0.5 -0.05,-0.55 0.1,-0.15 0.3,0.2 h 0.15 l -0.3,-0.45 q 0.85,0 1.4,-0.45 h 0.25 q 0.05,0.5 0.75,0.45 l -0.1,0.3 -0.1,0.8 -0.55,0.45 M -2,-23.6 l 1.25,0.25 0.4,0.45 -0.55,0.6 -0.3,0.3 h -0.4 l -0.3,0.3 -0.1,0.25 -0.65,0.35 -0.3,0.3 -0.05,-0.25 q -0.1,-0.9 -0.7,-1.25 l -0.15,-0.1 0.05,-0.05 0.55,-0.5 0.65,-0.55 0.6,-0.1 m -2.45,6.05 0.6,-1.15 h 0.1 l 0.55,-0.7 q 0.2,-0.35 0.25,-1 l 1.1,-0.6 0.1,0.1 1.35,1.05 -0.4,0.9 q -0.5,0.85 -1.85,0.95 l -0.15,0.05 q -1.25,0.05 -1.45,0.4 -0.25,0.4 -0.1,0.65 0.2,0.3 0.9,0.4 l 0.85,0.9 -1,1.1 -0.1,0.05 -0.3,0.1 -1.2,-0.1 -0.75,-1 q 0.9,0.05 1.35,-0.7 l 0.1,-0.6 0.05,-0.4 v -0.4 m -2.45,1.9 h 0.1 v 0.1 l 0.05,0.15 h -0.2 l 0.2,1.2 q 0.3,0.95 0.1,1.3 -0.75,1.35 -1.7,1.25 l -0.6,-0.25 -0.45,-0.35 -0.3,-0.55 -0.2,-0.7 v -0.05 q 0.2,-0.35 0.25,-0.75 v -0.1 l 0.2,0.1 0.45,0.1 h 0.75 l 0.6,-0.5 0.1,-0.2 0.25,-0.55 0.4,-0.2 m -6.55,-4.45 -0.15,0.2 -0.25,0.65 -1.1,0.15 -1.15,0.2 q -0.9,-0.55 -0.2,-1.75 l 0.85,-0.9 0.55,-0.35 q 0.35,0.15 0.65,-0.15 -0.05,0.95 0.7,1.55 l 0.1,0.4 m -0.8,4.2 0.5,-1.65 q 0.55,1.3 2.3,1.55 h 0.15 q 0.1,0.7 0.9,1.2 l -0.5,0.5 -0.45,0.55 q -0.5,0.55 -1.35,0.45 -0.55,-0.1 -1.25,-0.5 -0.6,-0.35 -0.3,-1.9 v -0.2 m 1.8,8.15 -1,-0.25 h -0.05 -0.2 l -0.1,0.05 -0.8,0.35 0.35,-1.5 0.35,-0.8 q 0.3,-0.4 0.6,-0.4 1.2,0 1.6,0.55 l 0.15,0.35 0.05,0.1 0.2,1.1 q -0.65,0.05 -1.05,0.45 h -0.1 m 3.1,0.8 v -0.2 q 0,-0.4 -0.3,-0.65 l -0.9,-0.35 q 0.15,-0.3 0.15,-0.7 V -8.9 l 0.4,-0.35 0.1,-0.05 0.75,-0.3 0.65,0.15 0.5,0.8 0.05,0.65 -0.6,0.85 -0.5,0.45 -0.3,-0.25 m -6.85,1.6 -0.4,0.4 -0.1,0.15 q -0.1,-0.3 -0.45,-0.35 l -0.2,-0.45 -0.15,-0.35 -0.05,-0.6 v -0.3 q 0.1,-0.65 0.6,-0.7 l 0.2,-0.05 0.5,0.35 0.2,0.2 0.5,0.45 -0.45,0.75 -0.15,0.35 -0.05,0.15 m -0.15,2.8 -0.2,0.2 -0.1,0.1 v 0.05 l -0.05,0.1 -0.05,0.65 -0.6,0.15 -1.3,-0.55 Q -19.2,-2 -19.2,-2.65 l 0.15,-0.75 0.7,-0.65 0.5,0.05 0.3,0.15 0.35,0.2 h 0.25 l 0.15,0.45 0.4,0.5 h 0.05 v 0.15 m -0.05,2 0.3,0.15 0.8,0.1 -0.1,0.75 0.1,0.4 -0.85,0.6 -0.2,0.1 L -17.7,2 h -0.15 L -18,1.4 -17.95,1.05 -17,-0.1 l 0.6,-0.45 m 7.95,-5.45 0.6,-0.25 0.25,-0.15 0.05,0.05 q 0.8,0.2 1.05,0.65 l 0.2,1.1 -0.9,0.3 h -0.05 q -0.6,-0.25 -0.8,0 v -0.1 l 0.05,-0.15 0.15,-0.4 q 0,-0.7 -0.55,-1 L -8.45,-6 m 0.45,2.4 0.75,0.65 q 0.9,0.55 0.9,1.35 v 0.2 l -0.1,0.6 -1.35,0.15 -0.05,0.05 -0.55,-0.8 Q -8,-2.15 -8,-3 v -0.1 -0.5 m 1.25,-4.2 h 0.25 l 0.05,-0.05 1.15,0.65 0.2,0.3 0.7,0.8 q 0.75,0.4 1.55,-0.15 L -3,-5 l -0.3,0.3 -0.4,0.35 -0.65,0.2 -0.9,-0.15 0.05,-0.5 q 0,-0.6 -0.3,-1.05 0.85,-0.8 0.05,-1.2 l -1.1,0.2 -0.3,-0.15 0.1,-0.8 m -1.8,6.75 0.1,0.15 0.3,0.55 v 0.2 l 0.05,0.35 0.3,0.15 0.05,0.3 0.15,0.65 -0.45,0.1 h -0.2 L -8.45,1.35 -9,1.1 -9.35,0.8 -9.6,0.2 -9.65,0.1 l 0.4,-0.3 0.25,-0.3 0.35,-0.4 0.1,-0.15 M -10.85,3.4 -11,3.2 -11.2,2.75 -11.55,2 -12.05,1.1 H -11 L -10.85,1 -10.1,0.35 -9.65,2.1 -9.7,2.75 -9.85,3.2 -9.95,3.4 h -0.9 m -3.9,-0.65 0.05,-0.2 0.35,-1.25 -0.1,-0.25 h 1.3 L -13,1 l 0.2,0.05 -0.05,0.5 0.05,0.1 -0.4,0.85 -0.15,0.25 -0.35,0.45 -0.15,0.2 -0.05,0.1 -0.9,0.5 -0.2,-0.3 0.1,-0.3 0.05,-0.2 0.1,-0.45"
         fill="#ffffff"
         fill-rule="evenodd"
         stroke="none"
         id="path10" />
      <path
         d="m 11.05,-15.8 1,0.25 -0.95,0.3 -0.05,-0.55 m 1.15,0.25 0.05,-0.05 v 0.05 H 12.2 m -12.55,5.05 -0.2,-0.05 0.05,-0.55 0.15,0.6"
         fill="#cccccc"
         fill-rule="evenodd"
         stroke="none"
         id="path11" />
      <path
         d="m 0.3,5.55 -0.1,7.2 -0.35,4.95 -0.3,4.8 -0.4,2.4 -0.35,3 0.15,4.4 H -1.5 l 0.05,-0.25 -1.8,-5.05 -1,-3.45 -0.3,-1.3 -0.3,-1.95 v -0.2 l -0.2,-2.7 v -0.6 q 0,-1.35 0.35,-2.55 l 0.1,-0.5 0.3,-1.35 0.2,-1.4 0.25,-0.95 0.3,-0.95 0.4,-1 0.35,-0.95 0.45,-1.6 H 0.3 M -0.3,32.3 0.85,21.45 Q 1.9,10.05 1.95,5.55 h 1.2 l 1.7,2.3 q 2.4,3.3 2.4,6.25 0,7.4 -3.7,13.3 -1.8,3 -3.65,4.9 H -0.3 M 6.65,8.1 7.4,9 v 0.05 q 3.45,4.25 3.55,7.65 0.15,4.7 -1.45,6.95 L 5.75,27.8 6.75,26 7.9,22.1 8.7,18.65 q 0,-5.4 -0.65,-7.6 Q 7.6,9.45 6.65,8.1 M -3.8,5.55 q -0.75,0.95 -1.35,3 l -0.1,0.3 -0.55,2.5 -0.05,0.1 q -0.6,3.35 -0.8,6.5 l -0.05,2 v 0.45 l 0.15,1.1 0.05,0.2 0.15,1 0.3,2.05 0.15,0.7 0.1,0.9 0.1,0.4 0.1,0.45 q 0.6,2.65 1.3,4.1 l -2.3,-3.3 -0.45,-0.65 -0.9,-1.5 -0.3,-0.6 -0.35,-0.65 -0.25,-0.65 -0.5,-1.3 -0.45,-1.35 -0.1,-0.55 -0.2,-1 -0.1,-0.55 V 19 l -0.1,-0.85 v -1.1 l 0.1,-1.45 0.1,-0.8 0.05,-0.35 Q -9.6,12.05 -8.45,9 L -7.1,5.65 -7.05,5.55 H -3.8 M -9.95,7.3 -10.8,9.6 q -0.6,2.05 -0.65,3.8 l -0.05,2.45 0.05,1.05 v 0.15 1.45 l 0.05,1.15 0.1,1.55 0.1,0.65 0.05,0.5 0.45,1.8 0.2,0.5 0.2,0.4 0.05,0.15 0.95,1.55 4.85,5.55 h -0.6 l -6.9,-6.85 -1.25,-1.45 -0.25,-0.35 q -1.6,-2.25 -1.45,-6.95 0.15,-4.05 4.95,-9.4"
         fill="#898591"
         fill-rule="evenodd"
         stroke="none"
         id="path12" />
      <path
         d="m 0.3,5.55 h 1.65 q -0.05,4.5 -1.1,15.9 L -0.3,32.3 h -0.75 l -0.15,-4.4 0.35,-3 0.4,-2.4 0.3,-4.8 0.35,-4.95 0.1,-7.2 m 2.85,0 H 4.1 4.35 L 5.7,7 6.65,8.1 q 0.95,1.35 1.4,2.95 0.65,2.2 0.65,7.6 L 7.9,22.1 6.75,26 l -1,1.8 -4.65,4.5 h -1.2 q 1.85,-1.9 3.65,-4.9 3.7,-5.9 3.7,-13.3 0,-2.95 -2.4,-6.25 l -1.7,-2.3 m -6.95,0 h 1.45 l -0.45,1.6 -0.35,0.95 -0.4,1 -0.3,0.95 -0.25,0.95 -0.2,1.4 -0.3,1.35 -0.1,0.5 q -0.35,1.2 -0.35,2.55 v 0.6 l 0.2,2.7 v 0.2 l 0.3,1.95 0.3,1.3 1,3.45 1.8,5.05 -0.05,0.25 h -2.95 l -4.85,-5.55 -0.95,-1.55 -0.05,-0.15 -0.2,-0.4 -0.2,-0.5 -0.45,-1.8 -0.05,-0.5 -0.1,-0.65 -0.1,-1.55 -0.05,-1.15 V 17.05 16.9 l -0.05,-1.05 0.05,-2.45 q 0.05,-1.75 0.65,-3.8 L -9.95,7.3 -8.3,5.55 h 0.25 1 L -7.1,5.65 -8.45,9 q -1.15,3.05 -1.6,5.45 l -0.05,0.35 -0.1,0.8 -0.1,1.45 v 1.1 l 0.1,0.85 v 0.2 l 0.1,0.55 0.2,1 0.1,0.55 0.45,1.35 0.5,1.3 0.25,0.65 0.35,0.65 0.3,0.6 0.9,1.5 0.45,0.65 2.3,3.3 Q -5,29.85 -5.6,27.2 l -0.1,-0.45 -0.1,-0.4 -0.1,-0.9 -0.15,-0.7 -0.3,-2.05 -0.15,-1 -0.05,-0.2 -0.15,-1.1 v -0.45 l 0.05,-2 q 0.2,-3.15 0.8,-6.5 l 0.05,-0.1 0.55,-2.5 0.1,-0.3 q 0.6,-2.05 1.35,-3"
         fill="#7e7888"
         fill-rule="evenodd"
         stroke="none"
         id="path13" />
      <path
         d="M 6.05,-23.9 5.8,-23.95 5.1,-24.25 Q 4.85,-24.5 4.75,-25 L 4.7,-25.35 4.5,-25.25 4.25,-25.7 3.95,-26 3.8,-26.15 3.75,-26.5 3.7,-26.55 q -0.05,-0.35 0.4,-1 l -0.05,-0.15 -0.6,0.05 -0.15,-2 v -1.1 l -0.75,0.05 0.3,-0.3 q 0.85,-0.85 1.6,-0.25 0.9,0.65 1.1,0.75 l 0.8,0.7 0.9,0.75 q 0.3,0.3 0.15,1.1 l -0.05,0.25 q 0,0.55 0.35,0.85 l 0.1,0.05 h 0.05 l 0.35,0.4 q 0.2,0.1 -0.15,0.45 l -0.25,0.2 -0.25,0.05 -0.5,0.1 -0.1,0.2 v 0.2 l -0.1,0.1 0.05,0.45 0.05,0.7 -0.9,0.05 m 0.75,-3.9 -0.7,-0.95 -0.7,-0.6 -0.1,-0.05 -0.5,-0.15 -0.7,0.05 q -0.4,0.55 0.05,1.6 l 0.2,0.5 0.65,0.85 q 1.6,1.6 2.05,0.45 0.3,-0.8 -0.25,-1.7 m 5.75,12.2 0.1,-0.05 0.2,-0.4 0.35,-0.5 q 0.4,-0.3 0.45,0 l 0.3,0.4 v 0.05 L 14,-16 q 0.25,0.55 1.05,0.55 0.75,-0.05 1,0.35 l 0.55,1.05 0.55,0.9 q -0.05,0.2 0.25,0.7 l 0.25,0.55 v 0.05 Q 18,-11 17.05,-10.4 l -0.35,0.25 0.2,-0.65 v -0.05 l -1.05,-0.25 h -0.2 l -1,-0.3 0.1,-0.3 0.05,-0.3 1.1,0.05 q 0.3,-0.65 0.05,-1.25 L 15.5,-14 q -1.1,-1.7 -2.35,-1.55 l -0.6,-0.05 m -7.9,1.7 0.95,-0.1 0.3,0.05 0.25,0.05 0.3,0.2 q 0.2,0.25 0.45,0.25 l 0.4,-0.05 0.1,-0.15 0.35,-0.15 0.1,-0.05 0.35,-0.1 0.2,-0.05 q 0.6,0 1.05,0.55 l 0.05,0.05 0.1,0.1 0.15,0.3 0.1,0.15 0.05,0.15 0.45,0.85 H 10.1 q 0.45,0.55 1.2,1 l 0.15,0.05 0.45,0.5 0.05,0.1 0.05,0.15 v 0.05 0.1 l -0.25,0.3 -0.15,0.15 -0.55,0.75 0.1,0.1 -0.2,0.1 0.9,1.5 -0.05,0.2 -0.25,0.35 -0.1,0.05 -0.15,0.05 -0.15,0.05 -0.2,0.05 -0.4,0.25 -0.05,-0.1 -0.1,0.2 -0.35,0.4 0.15,0.3 h 0.05 v 0.05 l -0.1,0.25 -0.35,0.5 -0.9,0.05 v -0.1 L 8.7,-4.8 8.55,-4.45 v 0.1 H 8.2 L 7.95,-4.3 H 7.9 L 7.85,-4.25 7.75,-4 H 7.5 L 5.7,-4.05 5.15,-4.4 5.05,-4.5 4.6,-5.15 4.7,-5.45 V -5.6 L 5,-5.8 4.85,-6.05 5,-6.25 4.65,-6.45 4.6,-6.55 4.45,-6.4 H 4.4 L 4.2,-6.45 Q 3.55,-6.6 3.1,-7 L 2.85,-7.4 2.95,-7.6 3,-7.75 3.3,-8.65 3.35,-9 q 0,-0.9 -0.8,-1.15 l -0.25,-0.7 v -0.1 l 0.15,-0.3 0.4,-0.15 h 0.4 l 0.25,-0.05 0.8,-0.4 0.1,-0.3 -0.1,-0.3 -0.2,-0.15 v -0.15 l 0.1,-1.1 0.4,-0.05 h 0.05 m 1.2,3.05 q -0.9,0.45 -0.9,1.55 L 5,-8.35 5.65,-7.6 6.15,-7.3 H 8 l 0.35,-0.25 0.5,-0.1 q 0.4,0 0.5,-0.75 V -8.65 -9.2 q 0,-1.95 -2.2,-1.9 l -1.3,0.25 m 6.8,19.3 0.45,-0.1 -0.25,-0.8 -0.3,-1.45 V 5.95 l 0.5,-0.1 V 5.7 L 12.55,5.25 12.5,5.05 V 5 L 12.55,4.75 V 4.65 L 12.6,4.6 12.75,4.35 12.85,4.15 12.9,3.9 h 0.15 V 3.4 3.2 l 0.1,-0.1 0.05,-0.05 0.35,-0.3 0.05,-0.05 0.15,-0.1 0.3,-0.15 h 0.4 v 0.1 L 14.5,2.7 v 0.05 0.1 l 0.1,0.35 v 0.05 l 0.05,0.1 0.1,0.05 v 0.15 l 0.1,0.1 0.1,0.05 0.35,-0.05 h 0.1 l 0.35,0.1 V 3.8 l 0.1,0.35 V 4.2 l -0.1,0.25 H 15.7 V 4.5 q -0.35,0.35 -0.05,0.9 l 0.15,0.7 -0.05,0.15 -0.5,0.7 -0.5,0.75 -0.7,0.8 -0.6,0.35 -0.4,-0.1 -0.4,-0.3 M 14.55,3.8 14.1,4 l -0.6,0.85 -0.1,0.2 -0.2,1 -0.05,0.3 q 0,0.6 0.35,0.9 Q 14.05,7.2 14.4,6.8 L 14.55,6.65 14.8,6.2 Q 15.6,4.9 15,4.05 L 14.55,3.8 M 5.05,1.25 Q 6.1,1.15 6.9,-0.5 L 7.3,0.05 Q 7.15,0.6 7.5,1.15 L 7.9,1.75 8.25,1.95 8,2.3 V 2.45 L 8.45,1.95 H 9.1 L 9.35,1.8 h 0.1 L 8.95,2.6 8.85,2.75 8.75,3.15 8.4,3.1 V 3.3 L 8.15,3.35 7.2,3.45 6.9,3.3 6.55,2.05 q -0.35,-0.6 -1,-0.4 l -0.5,-0.4 m -11.6,-26.7 0.2,0.1 1.6,0.95 q 0.45,0.95 0.4,1.5 l -0.25,0.25 -0.1,0.1 -0.35,0.05 v 0.05 0.25 l -0.2,0.05 0.2,0.5 0.15,-0.05 0.2,0.15 0.7,1 -0.15,0.6 -0.6,0.45 -0.5,0.6 q -0.4,0.7 0,1.3 l 0.15,0.1 -0.1,0.45 -0.4,0.5 0.05,0.1 H -5.7 l -0.3,-0.1 -0.3,-0.15 -1.15,-0.25 V -17 l -0.25,0.3 -0.1,0.35 0.1,0.15 -0.45,0.7 H -8.2 v 0.05 l -0.1,0.2 -0.05,0.05 -0.05,0.05 -1.3,-0.55 -0.55,-0.55 v -0.15 l -0.25,-0.45 -0.4,-0.15 -0.15,0.1 -0.4,-0.05 -0.5,-0.05 -0.15,-0.1 q -0.7,-0.4 -0.7,-1.35 l 0.05,-0.35 v -0.65 l 0.05,-0.5 0.2,0.1 q -0.1,-0.75 -0.65,-1.55 -0.35,-0.55 -0.05,-1.05 l 0.6,-0.2 q 0.6,-0.1 0.85,-0.35 l -0.05,-0.15 h 0.25 l -0.05,-1.75 q 0.3,-0.45 0.85,-0.3 l 0.75,0.1 v 0.1 l 0.2,-0.15 0.5,-0.15 v -0.35 q 0.4,-0.45 0.75,-0.5 l 0.85,0.4 -0.05,0.1 v 0.4 l 0.35,-0.3 0.3,0.15 0.25,0.15 0.3,-0.2 m -16.25,9.5 0.8,0.85 0.25,0.7 q 0,0.4 -0.45,1 v 0.05 l 0.15,0.05 -0.1,0.95 v 0.2 l -0.2,0.3 v 0.05 l -0.5,0.3 -0.5,0.1 -0.1,0.15 0.45,0.4 -1.15,1.4 -0.15,0.15 -0.75,0.75 0.05,0.1 0.5,0.4 h -0.45 L -25.5,-8.1 q -0.6,-0.2 -0.75,-0.85 V -9 l -0.1,-0.6 -0.15,-0.7 -0.05,-1.1 -0.1,-1.15 0.65,-0.85 q 0.65,-0.45 0.55,-1.05 v -0.1 h -0.05 l 0.05,-0.55 q -0.1,-0.2 0.4,-0.2 l 0.55,0.2 0.4,0.25 0.25,-0.05 0.1,-0.15 h 0.15 l 0.55,-0.65 0.25,-0.25 m -1.65,1.45 q -1.15,0.55 -1.15,2.55 l 0.05,0.95 0.75,1 q 0.6,-0.1 1,-0.8 l 0.15,-0.35 q 0.35,-0.8 0.35,-1.55 0,-1.45 -0.5,-1.8 -0.25,-0.2 -0.65,0 m 13.9,-7.25 -0.35,1.1 q 0.05,0.95 1.3,1.65 1.85,1.05 2.7,-0.25 l 0.1,-0.2 0.5,-0.85 -0.25,-0.95 -0.25,-0.5 -1.6,-0.95 -0.4,0.05 -0.5,-0.15 q -0.35,-0.2 -0.85,0.4 l -0.4,0.65 m 9.3,5.85 0.6,-0.15 q 0.55,0.25 0.55,0.9 l 0.2,1.5 q -0.95,0.5 -1.5,1.2 0.05,-0.9 -0.85,-1.45 l 0.7,-0.8 q 0.35,-0.65 0.3,-1.2 M -14.5,0.2 -14.8,-0.35 -14.6,-0.6 -14.9,-0.9 -14.95,-0.95 -15,-1.1 V -1 l -0.6,-0.3 q -0.45,-0.05 -0.45,-0.5 l 0.7,-1.15 -0.15,-0.1 0.1,-0.05 -0.45,-0.6 -0.3,-0.35 0.35,-0.65 0.1,-0.1 q 0.6,-0.3 0.95,-0.7 l 0.1,-0.1 h -0.15 -0.05 v -0.05 l 0.4,-0.75 q 0.4,-0.9 1.15,-0.9 l 0.5,0.15 0.25,0.15 0.1,0.1 0.15,0.05 h 0.15 q 0.2,0 0.35,-0.2 l 0.3,-0.2 0.4,-0.05 1.1,0.15 0.05,0.95 -0.25,0.35 0.1,0.25 q 0.45,0.35 1.15,0.35 l 0.4,0.35 -0.1,0.35 -0.05,0.3 -0.2,0.1 q -0.45,0.2 -0.45,0.8 0,0.55 0.4,1.25 l -0.2,0.3 -0.3,0.25 q -0.2,0.15 -0.5,0.2 H -10 l -0.2,0.05 -0.15,-0.15 -0.3,0.25 0.1,0.15 -0.1,0.2 0.25,0.15 v 0.15 l 0.05,0.2 q -0.15,0.45 -0.85,0.9 h -1.4 -0.2 l -0.05,-0.05 -0.1,-0.15 -0.2,-0.05 h -0.3 l -0.1,-0.35 -0.15,0.25 V 0.3 L -14.4,0.25 -14.5,0.2 m 7.1,-10.1 0.05,-0.45 q 1,-0.25 1.75,-1.4 l 0.35,1.25 0.9,0.45 q 1.4,0.75 2.4,-0.85 v 0.1 q 0,1.2 0.85,1.7 L -1.85,-8 -2.1,-8.25 -2.45,-8.3 l -1,1.1 -0.2,0.25 q -0.2,0.15 -0.45,0 L -4.4,-7.2 -4.75,-7.5 q 0.2,-0.85 -0.6,-1.25 l -1.5,-0.3 H -6.9 L -7.4,-9.9 m -4.95,4.9 -0.75,0.1 q -0.95,0.25 -0.95,1.4 v 0.6 l 0.05,0.3 0.3,0.3 0.4,0.1 0.3,0.2 h 1.45 l 0.9,-0.8 v -0.05 l 0.05,-0.75 -0.1,-0.55 Q -11,-4.95 -12.35,-5"
         fill="#aa97b1"
         fill-rule="evenodd"
         stroke="none"
         id="path14" />
      <path
         d="M 6.35,-26.8 5.95,-26.95 5.85,-27 q -0.2,-0.1 -0.35,-0.25 -0.45,-0.4 -0.45,-1.05 v -0.2 l 0.05,-0.05 0.4,0.3 0.75,1.2 0.1,0.25 m 1.8,17 0.15,0.55 V -9.1 Q 8.25,-8.45 7.65,-8.45 6.2,-8.45 6.2,-8.9 6.4,-9.45 6.15,-9.7 L 7.8,-9.8 H 8.15 M 14.4,4.85 14.5,5.3 14.05,5.25 14.3,4.9 14.4,4.85 m -38.8,-18.35 0.1,0.25 0.05,0.15 0.1,0.55 -0.25,0.8 -0.3,0.4 h -0.1 l -0.05,-0.5 0.3,-1.45 0.15,-0.2 m 14.75,-7.7 q 0.4,-0.65 1,-0.3 l 1,0.3 q 0.3,1.15 -0.55,1.45 l -0.8,-0.4 -0.8,-0.45 0.15,-0.6 m 5.75,8.4 q 0.3,-0.6 1,-0.25 l 0.4,0.4 -0.4,0.8 -0.6,0.95 q -0.1,-0.35 -0.7,-0.45 l -0.1,-0.1 q -0.2,-0.25 0.4,-1.35 m -9.35,9.25 0.1,-0.45 1.6,0.1 -0.1,0.2 0.05,0.4 v 0.05 q -0.05,0.15 -0.45,0.25 l -0.65,0.05 h -0.05 q -0.5,0 -0.5,-0.6"
         fill="#c6a8cc"
         fill-rule="evenodd"
         stroke="none"
         id="path15" />
      <path
         d="m 9.95,-19.8 -0.05,-0.75 -0.1,-0.9 1.15,-1.05 q 1.65,-2 0.1,-3.6 l -0.35,-0.3 1.45,-1.4 q 0.25,-1.15 -0.5,-1.9 l -1.55,-0.55 -1.2,0.05 0.25,-1.3 Q 9,-32.15 8.15,-33 l -0.8,-0.7 q -0.45,-0.15 -1,0.3 l -0.7,-1.1 Q 5,-35.15 4.55,-35.2 3.9,-35.25 2.9,-34.25 q -0.45,0.45 -0.4,1 -1.85,-1.25 -3.65,0.55 -0.6,0.6 -0.5,1.75 l 0.1,0.6 -0.35,0.15 -0.1,0.1 0.55,0.1 -0.65,1.25 q -0.8,-0.1 -1.95,0.7 l -0.15,-1 q -0.25,-2.1 -1.6,-2.85 -0.8,-0.5 -1.7,0.3 l -0.65,0.85 -0.45,1.6 -0.95,-1.65 -1.3,-0.75 -1.6,0.55 -0.55,0.85 q -0.5,0.85 -0.4,2.25 l 0.05,0.15 q -2.1,-0.8 -3.2,1.05 -1.05,1.85 0.4,3.75 l 0.3,0.3 -0.6,0.4 -0.75,1.1 q -1.1,1.85 0.15,2.95 l 0.6,0.4 q 0.6,0.35 1.15,0.4 h 0.25 l -0.1,0.2 q -0.9,1.65 -0.6,3 0.2,1 1.15,1.8 l 0.25,0.15 1.05,0.6 0.6,0.15 h 0.25 l 0.25,-0.05 q 0.6,-0.1 1.15,-0.55 l 0.05,-0.05 0.05,0.1 0.95,0.9 0.5,0.3 0.7,0.35 h -0.3 l -1.5,0.3 -0.3,-0.55 q -0.45,-0.65 -1.35,-0.75 h -0.2 m 22.4,-8.3 v 0.2 l -0.2,0.2 -0.2,0.5 -0.05,0.1 0.8,0.7 0.6,1.4 0.15,0.9 0.05,0.55 0.95,-0.3 h 0.15 0.05 l 0.25,-0.05 h 0.05 l 0.6,0.05 q 1.45,0.25 1.65,1.9 l 0.05,0.6 -0.05,1.05 -0.05,0.3 -0.1,0.3 -0.25,0.3 0.45,0.15 q 1.3,0.55 1.8,1.5 l 0.05,0.1 0.35,1.45 -0.05,0.65 q -0.15,0.8 -0.8,1.3 l -0.75,0.4 -0.65,0.15 0.1,0.1 0.15,0.3 0.5,1 0.1,0.35 0.05,0.5 -0.05,1.05 -0.15,0.3 0.15,0.2 0.2,0.1 0.1,0.65 0.05,0.05 0.1,0.5 0.05,0.3 0.8,0.3 0.3,0.2 0.8,0.8 Q 18.45,2 18.2,2.75 L 18,3.25 17.9,3.4 17.85,3.55 19.2,4.35 V 5.9 l -1.05,0.65 -0.9,0.2 q 0.4,0.45 0.45,0.95 l -0.5,1.35 -0.05,0.05 -0.4,0.6 q -0.3,0.25 -0.8,0 0.05,0.5 -0.3,1.05 l -0.5,0.6 -0.2,0.1 Q 14.45,11.6 13.5,11.05 13.05,10.8 12.95,10.4 l -0.05,0.05 0.65,1.4 H 12.1 V 9.1 M -12.1,3.4 -12.15,3.3 -12.25,3.4 -12.6,3.95 -13.75,5 -14.85,5.25 -15.4,5.1 -15.9,4.45 -16,4.05 V 3.5 3.4 l 0.05,-0.2 0.1,-0.45 0.05,-0.2 0.1,-0.3 -0.2,0.15 -0.2,0.1 -0.05,0.05 -0.05,0.05 -0.3,0.15 -0.5,0.3 h -1.15 l -0.35,-0.3 -0.2,-0.2 -0.35,-0.5 v -0.8 q 0,-0.8 0.6,-1.7 l 0.1,-0.1 q -1.8,-0.25 -1.8,-1.95 v -0.25 q 0.1,-0.85 0.6,-1.4 l 0.55,-0.45 0.6,-0.3 0.35,-0.1 -0.25,-0.5 -0.1,-0.95 v -0.1 q 0,-1.4 0.9,-1.8 l 0.95,-0.2 0.15,0.05 0.95,0.25 0.2,-1.4 q 0.5,-1.55 2.1,-1.8 l 0.2,-0.05 h 0.25 m 1.85,14.9 h -1.25"
         fill="none"
         stroke="#6b6b6b"
         stroke-linecap="round"
         stroke-linejoin="round"
         stroke-width="1.5"
         id="path16" />
    </g>
    <g
       id="sprite1"
       transform="translate(5.4,4)">
      <use
         ffdec:characterId="43"
         height="8"
         transform="translate(-5.4,-4)"
         width="10.8"
         xlink:href="#shape2"
         id="use16" />
    </g>
    <g
       id="shape2"
       transform="translate(5.4,4)">
      <path
         d="m 2.9,-0.35 q 0,-1.25 1.25,-1.25 1.25,0 1.25,1.2 0,1.3 -1.25,1.3 Q 3.6,0.9 3.25,0.5 2.9,0.15 2.9,-0.35 m 0.35,-2.3 q 0,0.55 -0.35,0.9 -0.4,0.45 -1,0.45 -1.35,0 -1.35,-1.4 0,-1.3 1.35,-1.3 1.35,0 1.35,1.35 m -3.1,1.9 h 0.2 q 2.6,0.1 2.6,2.8 l -0.3,1 Q 2.05,4 0.45,4 H 0.35 0.15 0.1 -0.45 q -1.6,0 -2.2,-0.95 l -0.3,-1 q 0,-2.8 2.8,-2.8 h 0.3 M -1.55,-4 q 1.35,0 1.35,1.35 0,0.55 -0.4,0.9 -0.4,0.45 -0.95,0.45 -1.4,0 -1.4,-1.4 0,-1.3 1.4,-1.3 m -2.6,2.4 q 1.25,0 1.25,1.25 0,0.5 -0.35,0.85 -0.35,0.4 -0.9,0.4 -1.25,0 -1.25,-1.3 0,-1.2 1.25,-1.2"
         fill="#6b6b6b"
         fill-rule="evenodd"
         stroke="none"
         id="path17" />
    </g>
  </defs>
</svg>
