<?xml version="1.0" encoding="UTF-8" standalone="no"?>
<svg
   ffdec:objectType="frame"
   height="27.548925"
   width="31.549999"
   version="1.1"
   id="svg14"
   sodipodi:docname="2.svg"
   xmlns:inkscape="http://www.inkscape.org/namespaces/inkscape"
   xmlns:sodipodi="http://sodipodi.sourceforge.net/DTD/sodipodi-0.dtd"
   xmlns:xlink="http://www.w3.org/1999/xlink"
   xmlns="http://www.w3.org/2000/svg"
   xmlns:svg="http://www.w3.org/2000/svg"
   xmlns:ffdec="https://www.free-decompiler.com/flash">
  <sodipodi:namedview
     id="namedview14"
     pagecolor="#ffffff"
     bordercolor="#000000"
     borderopacity="0.25"
     inkscape:showpageshadow="2"
     inkscape:pageopacity="0.0"
     inkscape:pagecheckerboard="0"
     inkscape:deskcolor="#d1d1d1"
     fit-margin-top="5"
     fit-margin-left="5"
     fit-margin-right="5"
     fit-margin-bottom="5" />
  <g
     transform="translate(15.75,13.7477)"
     id="g5">
    <use
       ffdec:characterId="2111"
       height="26.35"
       transform="translate(-15.75,-12.6)"
       width="12.65"
       xlink:href="#sprite0"
       id="use1" />
    <use
       ffdec:characterId="2113"
       height="23.700001"
       transform="translate(4.55,-9.9)"
       width="11.25"
       xlink:href="#sprite1"
       id="use2" />
    <use
       ffdec:characterId="2104"
       height="26.35"
       transform="matrix(1,0,0,1.0455,-4.15,-13.7477)"
       width="9.3999996"
       xlink:href="#sprite2"
       id="use3" />
    <use
       ffdec:characterId="1691"
       height="8"
       transform="matrix(0,-0.7,-0.7,0,12.3,11.93)"
       width="10.8"
       xlink:href="#sprite3"
       id="use4" />
    <use
       ffdec:characterId="2115"
       height="17.9"
       transform="matrix(1,0,0,1.1117,-0.4,-9.7498)"
       width="2.3"
       xlink:href="#sprite4"
       id="use5" />
  </g>
  <defs
     id="defs14">
    <g
       id="sprite0"
       transform="translate(6.3,13.15)">
      <use
         ffdec:characterId="2110"
         height="26.35"
         transform="translate(-6.3,-13.15)"
         width="12.65"
         xlink:href="#shape0"
         id="use6" />
    </g>
    <g
       id="shape0"
       transform="translate(6.3,13.15)">
      <path
         d="M 6,-9.45 6.3,-5.8 6.35,1.95 V 7.6 Q 6.2,11.15 5.6,12.15 v 0.05 q 0,0.8 -0.65,0.95 V 13.2 L -6.15,13 -6.3,11.75 V 9.3 L -6.05,-2.6 -6,-3.45 v -7.5 q 0.4,-1.5 1.05,-1.8 l 0.05,-0.15 v 0.1 l 0.25,-0.05 0.3,0.05 4.55,-0.35 q 5.85,0.1 5.85,1.3 v 0.25 L 6.1,-10.55 6,-9.45 M 2.25,-10.55 2.5,-5.7 2.4,0.25 v 10.8 h 1 L 3.25,1.55 3.3,-6.1 q 0.15,-2.95 0.5,-4.55 l -1.55,0.1 m -0.7,0.05 H -1.4 V 2.85 L -1.35,7.5 -1.4,11.05 H 1.45 V 0.5 L 1.4,-5.7 v -3.4 q 0,-0.8 0.15,-1.4 m -4.75,0 V 2.35 L -3.15,4.8 -3.2,8.65 q -0.1,1.35 -0.35,2.2 v 0.2 h 1.4 L -2.3,7.45 -2.2,2.7 v -13.2 h -0.4 -0.6"
         fill="#6b6b6b"
         fill-rule="evenodd"
         stroke="none"
         id="path6" />
      <path
         d="M 1.55,-10.5 Q 1.4,-9.9 1.4,-9.1 v 3.4 L 1.45,0.5 V 11.05 H -1.4 L -1.35,7.5 -1.4,2.85 V -10.5 h 2.95"
         fill="#e2e2e2"
         fill-rule="evenodd"
         stroke="none"
         id="path7" />
      <path
         d="m 2.25,-10.55 1.55,-0.1 q -0.35,1.6 -0.5,4.55 l -0.05,7.65 0.15,9.5 h -1 V 0.25 L 2.5,-5.7 2.25,-10.55 m -5.45,0.05 h 0.6 0.4 V 2.7 l -0.1,4.75 0.15,3.6 h -1.4 v -0.2 Q -3.3,10 -3.2,8.65 L -3.15,4.8 -3.2,2.35 V -10.5"
         fill="#7e8275"
         fill-rule="evenodd"
         stroke="none"
         id="path8" />
    </g>
    <g
       id="sprite1"
       transform="translate(5.6,11.85)">
      <use
         ffdec:characterId="2112"
         height="23.700001"
         transform="translate(-5.6,-11.85)"
         width="11.25"
         xlink:href="#shape1"
         id="use8" />
    </g>
    <g
       id="shape1"
       transform="translate(5.6,11.85)">
      <path
         d="m 5.25,-8.55 0.2,1.7 0.1,1.6 0.1,7 v 5.1 L 5.45,8.95 5.4,9.3 4.85,10.95 q 0,0.75 -0.6,0.9 H 4.2 2.35 L 0.2,11.8 h -1 V 11.75 L -2.3,11.7 h -3.1 l -0.2,-1.15 v -2.2 l 0.3,-10.7 v -0.8 -6.75 q 0.45,-1.35 1.1,-1.6 v -0.15 l 0.05,0.1 0.25,-0.05 0.25,0.05 1.35,-0.25 1.5,-0.05 h 0.3 0.15 0.55 0.5 l 1.65,0.1 q 2.95,0.3 2.95,1.05 v 0.2 l 0.1,0.95 -0.05,0.6 -0.1,0.4 M 0.2,-10 q -1,0.05 -1.65,0.6 V -9.5 H -1.9 -2.3 -2.45 V 2.1 L -2.4,4.3 -2.45,7.75 -2.7,9.3 -2.8,9.75 v 0.2 h 0.85 l 0.55,0.3 0.25,-0.1 0.2,-0.15 0.9,0.2 0.25,0.1 Q 0.85,10.4 1.7,9.95 H 2.65 V 9.3 L 2.5,1.35 2.6,-5.5 Q 2.65,-7.65 2.95,-8.95 L 3.05,-9.6 H 2.35 L 1.7,-9.55 1.4,-9.95 0.2,-10"
         fill="#6b6b6b"
         fill-rule="evenodd"
         stroke="none"
         id="path9" />
      <path
         d="m 0.2,-10 1.2,0.05 0.3,0.4 0.65,-0.05 h 0.7 l -0.1,0.65 Q 2.65,-7.65 2.6,-5.5 L 2.5,1.35 2.65,9.3 V 9.95 H 1.7 Q 0.85,10.4 0.2,10.3 l -0.25,-0.1 -0.9,-0.2 -0.2,0.15 -0.25,0.1 -0.55,-0.3 H -2.8 V 9.75 L -2.7,9.3 -2.45,7.75 -2.4,4.3 -2.45,2.1 V -9.5 h 0.15 0.4 0.45 v 0.1 Q -0.8,-9.95 0.2,-10"
         fill="#827474"
         fill-rule="evenodd"
         stroke="none"
         id="path10" />
    </g>
    <g
       id="sprite2"
       transform="translate(4.7,13.15)">
      <use
         ffdec:characterId="2103"
         height="26.35"
         transform="translate(-4.7,-13.15)"
         width="9.3999996"
         xlink:href="#shape2"
         id="use10" />
    </g>
    <g
       id="shape2"
       transform="translate(4.7,13.15)">
      <path
         d="m 1.85,-13 q 2.55,0.3 2.55,1.15 v 0.25 l 0.1,1.05 -0.05,0.65 -0.1,0.45 0.2,1.85 0.1,1.8 0.05,7.75 V 7.6 l -0.15,2.35 -0.05,0.4 -0.45,1.8 v 0.05 q 0,0.8 -0.55,0.95 L 3.45,13.2 1.85,13.15 0,13.1 H -0.05 -0.5 V 13.05 L -1.8,13 H -4.5 L -4.7,11.75 V 9.3 l 0.3,-11.9 v -0.85 -7.5 q 0.4,-1.5 0.95,-1.8 v -0.15 l 0.05,0.1 0.2,-0.05 0.2,0.05 1.2,-0.25 1.3,-0.1 h 0.25 0.15 0.5 v 0.05 l 1.45,0.1 m -1.5,1.95 -0.4,0.05 q -0.6,0.15 -1,0.6 v -0.1 H -1.45 -1.8 -1.95 V 2.35 l 0.05,2.45 -0.05,3.85 -0.2,1.7 -0.1,0.5 v 0.2 h 0.75 l 0.5,0.35 0.2,-0.1 0.15,-0.2 0.6,0.25 h 0.2 l 0.2,0.1 0.95,-0.4 h 0.8 v -0.7 L 2,1.55 2.05,-6.1 2.35,-9.9 2.45,-10.65 1.85,-10.6 1.3,-10.55 1,-11 0.35,-11.05"
         fill="#6b6b6b"
         fill-rule="evenodd"
         stroke="none"
         id="path11" />
      <path
         d="M 0.35,-11.05 1,-11 l 0.3,0.45 0.55,-0.05 0.6,-0.05 -0.1,0.75 -0.3,3.8 -0.05,7.65 0.1,8.8 v 0.7 H 1.3 l -0.95,0.4 -0.2,-0.1 h -0.2 L -0.65,11.1 -0.8,11.3 -1,11.4 -1.5,11.05 h -0.75 v -0.2 l 0.1,-0.5 0.2,-1.7 L -1.9,4.8 -1.95,2.35 V -10.5 h 0.15 0.35 0.4 v 0.1 q 0.4,-0.45 1,-0.6 l 0.4,-0.05"
         fill="#b0aca0"
         fill-rule="evenodd"
         stroke="none"
         id="path12" />
    </g>
    <g
       id="sprite3"
       transform="translate(5.4,4)">
      <use
         ffdec:characterId="43"
         height="8"
         transform="translate(-5.4,-4)"
         width="10.8"
         xlink:href="#shape3"
         id="use12" />
    </g>
    <g
       id="shape3"
       transform="translate(5.4,4)">
      <path
         d="m 2.9,-0.35 q 0,-1.25 1.25,-1.25 1.25,0 1.25,1.2 0,1.3 -1.25,1.3 Q 3.6,0.9 3.25,0.5 2.9,0.15 2.9,-0.35 m 0.35,-2.3 q 0,0.55 -0.35,0.9 -0.4,0.45 -1,0.45 -1.35,0 -1.35,-1.4 0,-1.3 1.35,-1.3 1.35,0 1.35,1.35 m -3.1,1.9 h 0.2 q 2.6,0.1 2.6,2.8 l -0.3,1 Q 2.05,4 0.45,4 H 0.35 0.15 0.1 -0.45 q -1.6,0 -2.2,-0.95 l -0.3,-1 q 0,-2.8 2.8,-2.8 h 0.3 M -1.55,-4 q 1.35,0 1.35,1.35 0,0.55 -0.4,0.9 -0.4,0.45 -0.95,0.45 -1.4,0 -1.4,-1.4 0,-1.3 1.4,-1.3 m -2.6,2.4 q 1.25,0 1.25,1.25 0,0.5 -0.35,0.85 -0.35,0.4 -0.9,0.4 -1.25,0 -1.25,-1.3 0,-1.2 1.25,-1.2"
         fill="#6b6b6b"
         fill-rule="evenodd"
         stroke="none"
         id="path13" />
    </g>
    <g
       id="sprite4"
       transform="translate(1.15,8.95)">
      <use
         ffdec:characterId="2114"
         height="17.9"
         transform="translate(-1.15,-8.95)"
         width="2.3"
         xlink:href="#shape4"
         id="use13" />
    </g>
    <g
       id="shape4"
       transform="translate(1.15,8.95)">
      <path
         d="m 0.25,-8.55 q 0,0.25 -1.2,0.35 l -0.1,-0.05 v -0.1 l 0.4,-0.1 h 0.15 l -0.1,-0.35 -0.3,0.05 h -0.05 l -0.1,-0.05 v -0.1 l 0.25,-0.05 0.95,0.25 0.1,0.15 m 0.8,2 L 0.9,-6.2 H 0.8 q -0.15,0 -0.2,-0.75 L 0.45,-7.05 0,-7 0.05,-6.85 v 0.05 l -0.2,0.2 -0.25,-0.35 -0.55,0.1 -0.15,-0.1 V -7.1 l 1.8,-0.35 q 0.35,0.15 0.35,0.6 v 0.3 m -0.8,2.9 v 0.35 l -0.15,0.25 -0.2,-0.6 h -0.1 v 0.1 L -0.4,-3.3 -0.55,-3.55 H -0.7 L -0.65,-3.2 -0.8,-3 H -0.85 L -1.1,-3.65 V -3.7 q 0,-0.2 0.6,-0.2 l 0.55,-0.05 0.2,0.3 m 0,2.55 v 0.35 L 0.1,-0.5 -0.1,-1.1 H -0.2 V -1 L -0.4,-0.75 -0.55,-1 H -0.7 l 0.05,0.35 -0.15,0.2 H -0.85 L -1.1,-1.1 v -0.05 q 0,-0.2 0.6,-0.2 l 0.55,-0.05 0.2,0.3 M 0.3,-1.75 V -1.7 L 0.2,-1.65 Q -0.95,-1.8 -0.95,-2.1 l 0.3,-0.25 q -0.3,-0.1 -0.3,-0.15 v -0.1 q 0,-0.15 0.95,-0.3 h 0.1 l 0.15,0.1 -0.55,0.3 0.25,0.15 v 0.05 l -0.2,0.15 -0.05,0.05 0.6,0.35 m -0.7,-7 0.05,0.2 V -8.5 H -0.3 Q 0,-8.5 0,-8.6 l -0.4,-0.15 m -0.05,2.9 v 0.3 L -0.2,-5.7 -0.45,-5.85 m 0.55,0.2 q 0,0.35 -1,0.4 l -0.2,-0.1 v -0.1 l 0.35,-0.1 v -0.4 q -0.35,0 -0.35,-0.15 l 0.15,-0.15 0.9,0.3 0.15,0.3 m 0.15,1.05 -0.35,0.4 h -0.2 l -0.3,-0.2 -0.35,0.25 -0.1,-0.1 V -4.3 l 0.4,-0.45 V -4.8 L -1,-4.7 -1.15,-4.8 v -0.05 l 1,-0.2 0.4,0.45 m -0.4,-0.2 h -0.2 l 0.1,0.35 h 0.15 v -0.3 L -0.15,-4.8 M 0.2,-0.05 V 0 L -0.05,0.1 -0.7,0.05 V 0.3 L -0.85,0.55 H -0.9 q -0.2,0 -0.2,-0.35 v -0.3 l 0.2,-0.15 0.7,-0.05 0.4,0.25 m 0,1 V 1 L -0.05,1.1 -0.7,1.05 V 1.3 L -0.85,1.55 H -0.9 q -0.2,0 -0.2,-0.35 V 0.9 L -0.9,0.75 -0.2,0.7 0.2,0.95 M -0.25,2.35 -0.35,2.7 -0.45,2.5 -0.9,2.55 -1,2.45 V 2.4 q 0,-0.1 0.15,-0.1 l 0.4,0.05 v -0.1 l 0.1,-0.1 h 0.05 l 0.05,0.2 m 0,0.75 v 0.1 l -0.3,0.25 H -0.7 L -0.95,3.2 V 3.05 l 0.3,-0.2 q 0.35,0 0.4,0.25 M -0.55,3 h -0.1 L -0.7,3.1 v 0.05 l 0.05,0.1 h 0.05 l 0.15,-0.1 V 3.1 L -0.55,3 m 1.7,1.55 v 0.1 q 0,0.5 -0.5,0.8 H 0.3 Q 0,5.45 -0.05,5.05 L -0.1,4.7 H -0.15 L -0.95,4.8 -1.1,4.7 V 4.65 q 0,-0.25 2,-0.4 l 0.25,0.3 M 0.1,6.15 q 0,0.35 -1,0.4 l -0.2,-0.1 v -0.1 l 0.35,-0.1 V 5.85 L -1.1,5.7 l 0.15,-0.15 0.9,0.3 0.15,0.3 m -0.55,-0.2 v 0.3 L -0.2,6.1 -0.45,5.95 M 0.3,7.85 V 7.9 L 0.2,7.95 Q -0.95,7.8 -0.95,7.5 L -0.65,7.25 -0.95,7.1 V 7 Q -0.95,6.85 0,6.7 H 0.1 L 0.25,6.8 -0.3,7.1 q 0.2,0.1 0.25,0.15 V 7.3 L -0.25,7.45 -0.3,7.5 0.3,7.85 M 0.2,8.5 V 8.65 L -0.1,8.95 -0.2,8.9 V 8.8 L -0.1,8.6 V 8.55 h -0.15 q 0,0.4 -0.4,0.4 H -0.7 q -0.4,0 -0.4,-0.35 V 8.4 q 0,-0.2 0.35,-0.2 0.15,0 0.15,0.15 L -0.8,8.5 v 0.1 l 0.05,0.05 h 0.1 l 0.2,-0.3 0.2,-0.1 H -0.2 L 0.2,8.5 M 0.7,4.65 H 0.3 V 4.8 L 0.4,5.1 0.75,4.75 V 4.7 L 0.7,4.65"
         fill="#6b6b6b"
         fill-rule="evenodd"
         stroke="none"
         id="path14" />
    </g>
  </defs>
</svg>
