<?xml version="1.0" encoding="UTF-8" standalone="no"?>
<svg
   ffdec:objectType="frame"
   height="70"
   width="65.199997"
   version="1.1"
   id="svg17"
   sodipodi:docname="2.svg"
   xmlns:inkscape="http://www.inkscape.org/namespaces/inkscape"
   xmlns:sodipodi="http://sodipodi.sourceforge.net/DTD/sodipodi-0.dtd"
   xmlns:xlink="http://www.w3.org/1999/xlink"
   xmlns="http://www.w3.org/2000/svg"
   xmlns:svg="http://www.w3.org/2000/svg"
   xmlns:ffdec="https://www.free-decompiler.com/flash">
  <sodipodi:namedview
     id="namedview17"
     pagecolor="#ffffff"
     bordercolor="#000000"
     borderopacity="0.25"
     inkscape:showpageshadow="2"
     inkscape:pageopacity="0.0"
     inkscape:pagecheckerboard="0"
     inkscape:deskcolor="#d1d1d1"
     fit-margin-top="5"
     fit-margin-left="5"
     fit-margin-right="5"
     fit-margin-bottom="5" />
  <g
     transform="translate(32.6,35)"
     id="g4">
    <use
       ffdec:characterId="1689"
       height="16.450001"
       transform="matrix(0.8045,0,0,0.8045,-15.3499,-10.8872)"
       width="39.849998"
       xlink:href="#sprite0"
       id="use1" />
    <use
       ffdec:characterId="1690"
       height="70"
       transform="translate(-32.6,-35)"
       width="65.199997"
       xlink:href="#shape1"
       id="use2" />
    <use
       ffdec:characterId="1686"
       height="1.5"
       id="subplatform1"
       transform="matrix(0.0225,0,0.0977,0.86,-15.1089,-19.38)"
       width="1320.3"
       xlink:href="#sprite2" />
    <use
       ffdec:characterId="1691"
       height="8"
       transform="matrix(0.5813,-0.1558,0.1558,0.5813,-15.2123,27.7157)"
       width="10.8"
       xlink:href="#sprite3"
       id="use3" />
    <use
       ffdec:characterId="44"
       height="8"
       transform="matrix(-0.7407,0,0,-0.7407,4.1499,-13.9871)"
       width="10.8"
       xlink:href="#sprite4"
       id="use4" />
  </g>
  <defs
     id="defs17">
    <g
       id="sprite0"
       transform="translate(19.95,8.25)">
      <use
         ffdec:characterId="1688"
         height="16.450001"
         transform="translate(-19.95,-8.25)"
         width="39.849998"
         xlink:href="#sprite1"
         id="use5" />
    </g>
    <g
       id="sprite1"
       transform="translate(19.95,8.25)">
      <use
         ffdec:characterId="1687"
         height="16.450001"
         transform="translate(-19.95,-8.25)"
         width="39.849998"
         xlink:href="#shape0"
         id="use6" />
    </g>
    <g
       id="shape0"
       transform="translate(19.95,8.25)">
      <path
         d="M 19.9,-8.25 V 8.2 H -19.95 V -8.25 H 19.9"
         fill="#948679"
         fill-rule="evenodd"
         stroke="none"
         id="path6" />
    </g>
    <g
       id="shape1"
       transform="translate(32.6,35)">
      <path
         d="m -18.8,-24.85 q 0.2,-1.75 1,-3.35 2.15,-4.5 7.25,-4.5 l 2.35,0.2 1.35,0.2 q 0.2,0 1.5,-1.1 1.25,-1.1 3.5,-1.1 l 1.9,0.2 1.8,-0.2 q 2.25,0 3.5,1.1 1.3,1.1 1.5,1.1 l 1.35,-0.2 2.3,-0.2 q 5.15,0 7.25,4.5 1.2,2.45 1.2,5.2 h 0.15 q 1.45,-0.1 1.45,1 v 1.3 q 3.05,2.6 4.45,5.45 1.25,2.7 1.25,6.15 0,1.15 -0.6,2.25 -0.6,1.05 -0.6,1.75 l 0.25,1.15 1.1,-0.15 q 3,0 4.2,3.25 0.6,1.7 0.6,3.55 0,4.55 -0.7,7.7 -0.5,2.35 -1.7,4.6 l -1.15,1.8 0.05,0.4 1.95,1.15 1.2,1.3 q 0.35,0.65 0.7,2.25 v 0.4 l 0.3,2.55 V 25.1 L 31,28 l 0.55,1.45 q 0.55,1.25 0.55,2.6 0,1.5 -2.1,2.45 H 20.85 20.6 20.25 -20.25 -20.6 -20.85 -30 q -2.1,-0.95 -2.1,-2.45 0,-1.35 0.55,-2.6 L -31,28 l -0.85,-2.9 0.25,-2.8 q 0.3,-1.9 0.7,-2.65 l 1.2,-1.3 q 1,-0.8 2.1,-1.2 l 0.6,-0.05 0.75,0.05 q 1.1,-0.15 1.45,-1.2 l 0.1,-1.35 q 0.95,-3.55 1.85,-5.4 l 0.8,-1.4 Q -21.1,6.3 -19.8,5.1 -22.65,5.05 -24.2,2.9 L -24.4,2.6 -25.05,1.4 Q -25.6,0 -25.6,-1.6 l 0.25,-2.2 0.25,-1.3 q 0,-0.7 -0.55,-1.75 -0.65,-1.1 -0.65,-2.25 0,-3.45 1.3,-6.15 1.35,-2.85 4.45,-5.45 V -22 q 0,-1.1 1.45,-1 h 0.1 l 0.05,-0.75 0.15,-1.1 m 24,-6.25 0.2,-0.1 -0.15,-0.15 -0.5,-0.55 Q 4,-32.85 2.05,-33 L 1.8,-33.05 H 1.3 l -1.15,0.15 v 0.05 l -0.1,-0.05 -0.2,0.05 v -0.05 l -1.2,-0.15 -1.75,0.25 h -0.1 q -1.05,0.25 -1.6,0.9 l -0.5,0.6 -0.1,0.1 0.15,0.1 0.9,0.6 1.2,1.1 v 0.05 l 0.55,0.75 0.05,0.05 0.4,0.9 0.15,1.05 v 0.15 l -0.05,1 -0.1,0.55 -0.55,1.2 -0.4,0.6 q -1.35,1.6 -4.15,1.6 -2.75,0 -4,-1.95 -0.65,-1.1 -0.65,-2.2 0,-0.75 0.8,-1.8 l 0.05,-0.1 q 1.15,-1.5 2.9,-1.5 l 1.3,0.2 q 0.85,0.25 1.3,0.9 l 0.4,0.65 0.1,0.35 0.05,0.45 v 0.3 l -0.25,0.8 q -0.4,0.8 -1.15,0.85 h -1.3 l -0.2,-0.15 -0.45,-0.45 -0.15,-0.3 -0.2,-0.4 0.05,-0.15 0.95,0.65 h 1.2 l 0.45,-0.45 0.25,-0.7 q 0,-0.35 -0.5,-1 l -0.9,-0.7 -0.35,-0.05 -1.65,0.3 -0.85,0.55 -0.45,0.45 -0.1,0.1 -0.5,1.25 v 0.15 l 0.4,1 0.5,0.6 q 1.15,1.05 3.05,1.05 2.4,0 3.35,-1.6 l 0.1,-0.2 q 0.35,-0.65 0.4,-1.35 v -0.55 l -0.2,-0.95 -0.05,-0.05 q -0.3,-0.8 -1.05,-1.55 l -0.35,-0.4 -0.05,-0.05 -1.4,-1.3 -0.5,0.05 -3.6,-0.3 q -3.95,0 -5.6,3.9 l 1.15,0.3 0.15,0.05 0.05,0.05 0.15,0.05 0.3,0.15 0.25,0.1 0.4,0.3 0.1,0.1 0.15,0.15 q 0.65,0.65 0.9,1.7 v 0.75 0.45 l -0.2,1.45 q -0.6,1.55 -2.2,1.55 h -0.3 l 0.15,0.1 0.05,0.05 1.25,0.95 q 0.75,0.35 1.55,0.35 0.45,0 2.9,-1.1 3.05,-1.1 6.1,-1.1 l 3.2,0.35 3.2,-0.35 5.15,0.75 0.95,0.35 0.1,0.05 q 2.35,1.05 2.8,1.05 0.95,0 1.85,-0.55 l 1,-0.8 0.1,-0.1 h -0.2 q -1.7,0 -2.25,-1.55 -0.25,-0.65 -0.25,-1.9 l 0.05,-0.4 q 0.05,-0.8 0.4,-1.45 0.4,-0.7 1.25,-1.2 l 0.15,-0.05 0.45,-0.25 1.35,-0.35 q -1.65,-3.9 -5.6,-3.9 l -3.6,0.3 -0.55,-0.05 -0.6,0.6 -0.75,0.7 -0.25,0.3 q -1.05,1 -1.3,1.95 L 3.3,-26.5 v 0.5 l 0.1,0.5 0.3,0.9 q 0.9,1.8 3.45,1.8 H 7.5 l 0.65,-0.05 q 1.2,-0.25 2.05,-1 0.9,-0.85 0.9,-1.75 0,-0.55 -0.6,-1.35 L 10.45,-27 10.15,-27.3 9.9,-27.55 q -0.95,-0.7 -2.35,-0.7 -0.55,0 -1.05,0.55 l -0.25,0.2 -0.45,1 v 0.05 l 0.25,0.65 q 0.25,0.45 0.45,0.45 h 1.2 l 0.85,-0.6 0.05,-0.05 0.1,0.15 -0.35,0.7 -0.45,0.5 -0.2,0.1 H 6.35 Q 5.65,-24.6 5.25,-25.4 L 5.1,-25.75 5,-26.3 v -0.2 l 0.05,-0.4 q 0.05,-0.55 0.45,-1.05 l 0.15,-0.1 1,-0.75 0.9,-0.2 0.6,-0.05 q 1.75,0 2.9,1.5 0.85,1.1 0.85,1.9 v 0.45 l -0.45,1.4 -0.2,0.35 Q 10.35,-22 8.6,-21.6 l -0.7,0.1 H 7.25 q -3.3,0 -4.55,-2.2 -0.6,-0.95 -0.65,-2.15 L 2,-26.45 q 0,-0.85 0.4,-1.65 l 0.2,-0.5 0.5,-0.7 0.1,-0.2 1.15,-1 0.85,-0.6 m 10.2,9.5 -0.6,-0.7 h -0.05 l -0.2,-1.1 0.05,-0.25 0.45,-0.5 0.4,-0.15 0.8,0.1 0.05,0.25 -0.05,0.35 q -0.65,-0.25 -1,0 h -0.1 l -0.05,0.2 0.05,0.3 0.2,0.55 q 0.3,0.55 1.1,0.55 h 0.4 l 0.6,-0.45 -0.2,-0.75 -0.25,-1.05 -0.45,-1.65 -0.15,-0.15 -0.1,-0.1 -0.85,-0.1 -0.35,0.05 -0.5,0.05 -0.2,0.05 q -0.75,0.35 -1,1.1 l -0.15,0.8 -0.05,0.75 v 0.05 0.1 l 0.05,0.8 v 0.15 l 0.05,0.3 q 0.2,0.65 1.15,1.35 l 1.25,0.1 0.6,-0.9 0.05,-0.05 -0.4,0.05 -0.55,-0.1 m -0.95,5.9 0.7,-0.8 q 1.9,-1.85 2.5,-2.85 l 0.3,-0.9 -1.45,1.65 q -1.95,1.85 -4,2.05 H 12.1 L 11.65,-16.7 11,-16.95 10,-17.35 9.7,-17.45 9.05,-17.7 8.8,-17.8 q -3.1,-1.3 -6.75,-1.3 l -1.9,0.2 v 0.05 H 0 -0.15 v -0.05 l -1.95,-0.2 q -3.6,0 -6.7,1.3 l -0.15,0.1 -3.15,1.15 h -0.05 q -1.75,0 -3.45,-1.25 l -0.6,-0.55 -0.3,-0.25 -1.45,-1.65 0.3,0.9 1.05,1.4 0.4,0.4 1,1.05 0.4,0.35 q 1.05,1.15 1.05,2.15 v 0.65 l 0.1,0.5 -0.25,1.45 q -0.55,1.35 -1.8,1.35 l -0.1,0.1 h -0.1 l -1.9,-0.25 v 0.1 q 0,0.65 -0.65,1.35 -0.9,1 -2.3,1 l -1.35,-0.35 -0.6,-0.4 -0.15,-0.2 -0.15,-0.15 -0.05,-0.05 -0.35,-0.4 -0.25,-0.5 -0.1,-0.25 0.25,-1.85 0.05,-0.05 0.15,-0.4 0.45,-0.9 v -0.1 l 0.15,-0.15 0.3,-0.35 0.6,-0.4 q 0.45,-0.1 1,0.4 l 0.1,0.05 -0.05,-0.1 -0.1,-0.6 -0.1,-1.8 0.15,-2.2 -0.2,0.4 -0.8,1.2 -0.25,0.35 -0.8,1.4 -0.4,0.9 -0.25,0.45 -0.2,0.7 -0.05,0.05 -0.2,0.7 -0.05,0.05 v 0.15 q -0.4,1.5 -0.4,3 l 0.5,1.8 0.1,0.2 0.2,0.55 q 0.2,0.5 0.25,1.15 v 0.05 0.25 0.1 0.55 l -0.25,1.1 -0.25,1.8 q 0,1.2 0.65,2.6 l 0.1,0.15 q 1.2,2.5 3.75,2.5 0.55,0 1.75,-0.7 1.1,-0.7 1.5,-0.75 l -0.65,-2.05 q -0.85,0.55 -2.4,0.65 h -0.25 -0.2 q -2.1,-0.1 -3.05,-1.45 L -23.2,-2 -23.25,-2.65 q 0,-1.25 0.55,-2 0.6,-0.9 1.8,-1.15 l 0.4,-0.05 q 1.9,-0.3 1.9,1.55 l -0.1,0.9 q -0.25,0.65 -0.7,0.65 -0.4,0 -0.5,-0.25 0.65,-0.95 0.65,-1.3 0,-0.85 -1.4,-0.85 -0.8,0 -1.25,1.2 l -0.35,1.2 v 0.15 q 0.1,2.15 2.5,2.15 2,0 2.6,-0.75 l 0.3,-0.4 0.2,-2.65 1.25,-3.25 0.1,-0.15 0.35,-0.3 q -0.25,-0.85 -0.7,-1.2 0.95,-0.9 1.5,0.15 l 0.05,0.1 q 0.35,0.75 0.35,1.8 V -6 l -0.05,0.2 q -0.15,0.7 -0.55,0.95 l -0.2,0.1 -0.2,0.7 -0.3,1.95 -0.05,0.9 q 0,1.5 0.95,3.05 l 0.5,0.75 q 1.05,1.25 2.65,2.05 l 2.35,0.85 3.5,0.2 3.3,0.4 L 0,7.2 1.85,6.1 5.1,5.7 8.6,5.5 10.95,4.65 12.9,3.4 14.15,1.85 Q 15.1,0.3 15.1,-1.2 15.1,-2.95 14.55,-4.75 13.95,-4.9 13.8,-5.8 l -0.05,-1.3 q 0,-1.1 0.4,-1.9 l 0.25,-0.35 q 0.5,-0.5 1.25,0.2 -0.45,0.35 -0.7,1.2 l 0.35,0.3 0.1,0.15 q 0.95,1.95 1.2,3.25 l 0.25,2.65 0.3,0.4 q 0.6,0.75 2.55,0.75 h 0.4 q 1,-0.1 1.5,-0.6 l 0.1,-0.1 Q 22.15,-1.6 22.25,-2.4 V -2.75 L 22.15,-3.3 21.9,-3.95 q -0.45,-1.2 -1.25,-1.2 -1.4,0 -1.4,0.85 0,0.35 0.65,1.3 l -0.2,0.25 h -0.35 q -0.45,0 -0.65,-0.65 l -0.15,-0.9 q 0,-2 2.3,-1.5 l 0.55,0.15 0.55,0.2 q 1.25,0.8 1.25,2.8 v 0.3 q -0.05,0.95 -0.55,1.7 L 21.6,0.3 19.6,0.8 H 19.4 19.15 Q 17.6,0.7 16.7,0.15 L 16.1,2.2 q 0.4,0.05 1.5,0.75 l 1.7,0.7 q 1.45,0 2.4,-0.7 0.85,-0.7 1.4,-1.8 0.75,-1.45 0.75,-2.75 V -1.85 L 23.8,-2.5 23.75,-2.75 23.55,-3.4 Q 23.4,-3.9 23.4,-4.65 L 23.35,-4.9 v -0.15 -0.1 l 0.25,-1.45 0.3,-0.75 0.05,-0.1 0.45,-1.6 v -0.1 q 0,-2 -0.7,-4 l -0.6,-1.5 -0.85,-1.6 -0.25,-0.3 -0.25,-0.4 -0.9,-1.5 -0.05,-0.05 0.05,0.1 0.1,2.1 -0.25,2.5 q 0.75,-0.7 1.4,-0.3 l 0.65,0.65 0.05,0.1 0.85,2.1 0.05,0.45 0.05,0.75 q 0,0.35 -0.5,0.95 l -0.2,0.2 q -0.95,1.15 -2.3,1.15 -1.45,0 -2.3,-1 -0.7,-0.7 -0.7,-1.35 v -0.1 l -1.9,0.25 H 15.8 l -0.1,-0.1 q -1.3,0 -1.8,-1.35 l -0.15,-0.6 -0.05,-0.25 -0.1,-0.6 0.15,-0.5 V -14 q 0,-0.8 0.7,-1.7 m -23.65,0.75 q 0.85,0 1.3,0.35 l 0.45,0.65 0.15,0.45 v 0.35 l -0.1,1.2 -0.05,0.1 q -0.2,0.7 -0.8,0.85 h -0.4 -1 l -0.4,-0.55 -0.05,-0.2 0.1,-0.25 0.1,-0.6 0.2,0.4 0.1,0.2 0.15,0.35 h 0.8 l 0.55,-0.3 0.1,-0.2 0.05,-0.45 v -0.1 q 0,-0.9 -0.95,-1.15 l -0.75,-0.05 -1.05,0.3 -0.5,0.35 -0.2,0.45 q 0.2,0.05 0.15,0.85 v 0.05 0.3 0.2 l -0.05,0.1 v 0.15 l 0.15,0.7 v 0.05 l 0.7,1.15 q 1.5,1.7 4.7,1.7 l 2.8,-0.4 1.15,-0.35 Q -1,-8.85 -1,-9.6 l -0.2,-0.45 -0.15,-0.2 -0.85,-1.15 0.5,-0.15 q 1.1,-0.3 1.5,0.8 L 0,-8.7 q 0,0.5 -0.65,1.15 l -0.55,0.4 v 0.55 h -0.15 l -2.55,0.65 -0.05,0.4 q 0,2.25 -3.2,2.25 -2.25,0 -3.25,-1.25 Q -11,-5.3 -11,-6.1 l 0.25,-1.1 -0.65,-0.55 q -1.35,-1.35 -1.35,-2.65 l 0.45,-1.55 -0.15,-0.7 q 0,-2 2.6,-2.3 h 0.65 m 16.45,2.35 q 0.2,-1.55 1.7,-1.85 L 9.9,-14.5 q 1.1,0.15 2.05,1.3 v 0.75 q 0.8,1 0.8,2.05 0,1.3 -1.35,2.65 L 10.75,-7.2 11,-6.1 q 0,0.8 -0.6,1.55 -1.05,1.25 -3.25,1.25 -3.2,0 -3.2,-2.25 L 3.9,-5.95 Q 2.75,-6.2 1.45,-6.6 V -7.2 L 1.15,-7.55 0.25,-8.7 q 0,-0.95 0.35,-1.6 l 0.3,-0.4 q 0.35,-0.35 0.8,-0.5 l 0.95,-0.15 1.1,0.1 v 0.1 q -2.3,0.35 -2.4,1.9 v 0.1 l 0.9,0.9 0.05,0.05 0.6,0.25 2.85,0.4 q 3.2,0 4.7,-1.7 l 0.8,-1.45 v -0.7 -0.3 q -0.05,-1.1 0.2,-1.15 l 0.1,0.05 -0.5,-0.7 Q 10.5,-13.85 9.7,-13.85 H 9.15 q -0.8,0.1 -1.15,0.65 l -0.1,0.25 -0.1,0.55 0.1,0.45 0.15,0.2 q 0.15,0.2 0.55,0.3 l 0.05,0.05 H 9 l 0.75,-0.15 q 0.15,0 0.2,-0.1 v -0.05 -0.5 l -0.25,-0.65 -0.05,-0.05 0.15,-0.05 0.35,0.1 q 0.55,0.2 0.45,1.35 v 0.2 l -0.1,0.1 q -0.3,0.5 -1.85,0.5 l -0.7,-0.1 q -0.45,-0.1 -0.6,-0.45 l -0.15,-0.5 -0.05,-0.1 0.1,-0.75 m 11.3,-5.8 q -0.65,1 -1.7,1.7 -2.4,1.55 -2.4,3.95 0,0.9 0.65,1.35 2.65,-0.2 3.6,-2.1 0.55,-1 0.55,-2.8 l -0.3,-2.1 -0.15,-0.55 -0.25,0.55 M 3.85,-2.65 q 0.45,-0.1 0.6,0.3 l 0.1,0.75 q 0,0.4 -0.7,1.15 H 3.8 L 2.75,0.3 3.65,0.55 7.4,1.1 q 1.95,0 2.95,-1 l 0.25,-0.3 0.35,-0.9 -0.25,-1.1 0.05,-0.5 Q 11,-4 12.7,-3.15 l -0.45,0.4 -0.25,0.35 0.25,1.6 q 0,1.05 -0.6,1.9 l -0.3,0.3 -0.1,0.05 0.1,0.8 -0.2,0.85 -0.65,0.55 -0.1,0.5 q -0.35,0.5 -1.45,0.5 L 8.5,4.55 Q 7.75,5.2 6.65,5.2 L 5.8,4.75 5.5,4.8 2.8,4.7 H 2.75 2.1 L 2.3,4.65 1.9,4.55 0.35,4.25 H 0 l -1.55,0.3 -0.4,0.1 0.15,0.05 H -2.4 -2.45 L -5.2,4.8 -5.45,4.75 Q -5.9,5.2 -6.35,5.2 -7.4,5.2 -8.15,4.55 l -0.5,0.1 q -1.05,0 -1.4,-0.5 L -10.2,3.65 -10.8,3.1 -11,2.25 -10.95,1.45 -11.3,1.1 q -0.6,-0.85 -0.6,-1.9 l 0.25,-1.6 -0.25,-0.35 -0.45,-0.4 q 1.35,-0.7 1.8,0 l 0.2,0.95 -0.25,1.1 q 0,0.5 0.4,1 l 0.2,0.2 q 0.95,1 2.9,1 L -3.3,0.55 -2.4,0.3 -3.45,-0.45 -3.9,-0.9 -4.05,-1.1 -4.2,-1.6 q 0,-0.75 0.35,-1 l 0.4,-0.05 h 0.05 0.05 l 0.4,-0.05 0.65,0.05 2.45,0.15 2.9,-0.2 H 3.3 l 0.5,0.05 H 3.85 M 9.45,0.2 Q 8.8,0.7 7.6,0.7 5.5,0.7 5.45,-0.25 V -0.3 L 5.7,-0.4 6,-0.35 6.3,-0.15 6.45,-0.05 7.7,0 Q 9.1,0 9.5,-0.85 L 10,-1.95 10.2,-1.3 9.75,-0.15 9.45,0.2 M -6.4,-0.05 H -6 l 1.25,-0.3 0.5,0.15 q -0.8,0.8 -3,0.8 l -1.45,-0.35 -0.55,-0.5 -0.3,-1 0.3,-0.7 0.45,0.95 q 0.25,0.65 0.85,0.95 H -6.4 M -0.05,-2 H -0.1 l -2.7,0.3 h -0.4 l 0.15,0.1 0.55,0.5 0.55,0.25 0.1,0.05 1.75,0.75 L 0.15,0 0.45,-0.05 2.3,-0.85 Q 3.2,-1.2 3.55,-1.7 H 2.75 2.7 L 0.5,-2 0.15,-2.05 -0.05,-2 m 5.8,-3.4 0.1,0.45 q 0.35,0.45 1.6,0.45 2,0 2,-1.25 0.05,-0.8 -0.95,-0.8 -2.75,0 -2.75,1.15 m 14.15,-4.65 h -0.05 l -0.55,-0.55 -0.25,-0.3 -0.5,0.35 0.45,0.8 q 0.7,0.85 2.1,0.85 0.6,0 1.1,-0.4 l 0.35,-0.5 0.25,-0.55 0.15,-0.55 -0.25,-1.05 -0.3,-0.45 Q 21.95,-13 21.15,-13 l -0.4,0.15 -0.35,0.15 -0.65,1.1 0.75,0.75 q 0.95,0 1.1,-0.35 v -0.75 l 0.25,0.15 0.15,0.85 -0.35,0.45 -0.8,0.45 H 19.9 m 5.7,8.1 v 0.35 q 0,1.55 -0.55,2.9 l -0.7,1.3 -0.05,0.85 q 0,2.45 1.9,2.45 1.05,0 1.55,-0.65 l 0.3,-0.5 0.1,-0.6 L 28.25,3.6 27.95,2.75 27.55,2 27.45,1.9 H 26.4 l -0.1,0.2 -0.35,0.75 -0.1,0.55 0.2,0.95 0.2,0.7 -0.15,0.05 q -0.55,0 -0.75,-0.8 L 25.2,3.45 25.45,2.25 25.5,2.2 q 0.3,-0.75 0.75,-1 h 1.3 q 1,0 1.35,1.55 l 0.2,1.2 v 0.2 0.25 l -0.2,1.25 -0.25,0.4 Q 27.9,7.3 26.2,7.3 q -1.55,0 -2.3,-0.6 -0.2,2 -1.1,2.45 V 9.2 q 0.95,1.85 1.85,5.4 0,0.95 0.15,1.35 0.2,0.6 0.65,0.9 l 1,-1.15 q 1.65,-2.05 2.4,-4.55 L 29.2,9.9 29.3,9.4 Q 29.85,7.1 29.85,4.85 V 4.55 3.75 L 29.65,2 29.45,0.95 q -0.75,-3.3 -2.8,-3.3 h -0.2 L 25.6,-2 v 0.05 m -3.1,6.4 q -1.15,0.6 -2.7,0.65 l 1.85,2.15 0.55,-0.7 0.15,-0.5 q 0,-0.85 0.15,-1.6 m 7.35,20.95 0.05,-0.05 0.15,-0.9 V 24.1 23.9 23.55 23.4 L 30,22.7 29.95,22.25 29.9,22.05 29.85,21.95 29.8,21.8 29.65,21.4 q -0.6,-1.75 -2.2,-2.4 l -2,-0.2 -1.95,-0.35 -0.3,-0.5 H 23.15 L 23.1,17.2 22.9,14.5 21.65,10.95 21.6,10.85 20.05,7.7 19.2,6.15 19,5.85 19.05,6.1 19.2,7.2 q 0,1.45 -0.55,2.9 l -0.45,0.95 -1.55,2.4 q -2.2,2.85 -5.55,4 l -2.15,0.5 -1.85,0.2 -1.15,0.05 h -0.8 -1 -0.2 -0.35 v 0.05 l 0.35,1 0.1,1.15 v 0.1 L 3.2,22.1 Q 2,23.65 0.15,23.65 h -0.3 q -1.85,0 -3.1,-1.55 L -4.1,20.5 q 0,-1.4 0.45,-2.3 H -6 L -8.5,18 q 1.8,1.35 1.85,3.15 v 0.15 0.35 q -0.05,2 -0.75,2.8 l -0.1,0.1 1.5,1.9 q 1.45,-0.15 2.5,1.4 1,1.5 1,3.05 0,1.15 -0.35,1.8 h 7 L 4,32.3 Q 4,30 5.3,28.45 L 4.85,27.2 4.25,25.15 4.3,24.5 V 24 Q 4.35,22.95 4.7,22.3 L 5.55,21.05 6,20.65 7.7,19.7 7.75,19.95 7.3,20.5 6.65,21.2 q -1.1,1.2 -1.1,2.15 0,1.6 0.65,2.65 l 0.45,1.2 q 1.65,-1.1 3.9,-1.15 2.65,-0.05 4.55,1.3 l 0.7,0.6 0.45,-1.05 0.4,-1 0.25,-0.7 0.1,-0.65 0.1,-1.05 -0.25,-2.05 q -0.4,-1.3 -1.4,-2.05 -1.1,-0.85 -2.8,-1.05 l 0.4,-0.1 q 3.05,-0.65 4.35,1.6 l 0.4,0.8 0.5,-0.4 q 1,-0.9 1.6,-1.95 l 0.25,-0.6 0.4,-1.6 0.3,-1.95 0.3,-0.4 0.45,1.65 v 0.15 l -0.6,3.25 -0.15,0.45 -0.25,0.6 q -0.9,1.95 -2.45,2.05 l 0.15,1.6 -0.1,1.2 v 0.15 l -0.1,0.65 -0.05,0.2 -0.2,0.8 -0.1,0.65 -0.75,1.55 -0.4,0.35 0.35,0.9 0.15,1.45 -0.05,1.15 v 0.15 h 1.5 l -0.1,-0.75 q 0,-1.1 0.15,-2.05 L 18.75,29.35 19,28.6 v -0.05 l 0.3,-0.6 q 1.4,-2.7 5.4,-2.65 2.4,0.05 4.35,1.15 l 0.35,0.25 0.2,-0.45 0.25,-0.85 M 17.65,6.4 17.7,6.25 17.75,5.5 V 5.2 q 0,-0.45 -0.65,-0.65 L 16.65,4.4 15.85,4 v 0.25 h 0.1 L 16.2,4.3 V 4.55 L 16,5 15.8,5.3 V 5.35 L 15.5,5.7 15.4,6.05 q 0,0.8 0.9,0.85 h 0.05 0.25 q 0.7,-0.05 1,-0.45 L 17.65,6.4 m -7,-4 0.1,-0.5 Q 10.25,2.25 9.6,2.4 V 2.5 L 9.5,3 Q 10.35,2.95 10.65,2.4 M 14.2,4.75 14.15,4.8 13.9,5.05 11.95,6.25 q -1.7,0.85 -3.4,1.1 H 7.15 Q 6.65,7.85 6.5,8.25 6.25,8.75 6.25,9.5 6.25,10 6.7,10.45 L 6.85,10.6 Q 9.4,10.1 10.9,9.2 L 11.85,8.5 12.5,7.7 13.2,6.65 14.3,4.9 14.45,4.5 14.2,4.75 M 17.55,8 17.6,7.6 17.2,7.75 16.85,7.85 H 16.5 16.4 16.05 L 15.3,7.55 15.1,7.35 14.7,7 13.95,8 13.7,8.35 13.55,8.5 13.15,8.95 12.6,9.5 h 0.5 l 0.45,0.05 0.4,0.25 0.1,0.05 0.1,0.05 0.55,0.85 0.05,0.4 0.1,1 -0.05,0.8 V 13 l 0.3,-0.25 0.85,-0.95 0.4,-0.55 -0.45,-0.6 -0.1,-0.3 Q 15.45,9.85 15.45,9.6 L 15.5,9.35 q 0.05,-0.5 0.35,-0.8 L 16,8.4 Q 16.3,8.1 16.95,8.05 L 17.1,8 h 0.15 0.3 m -3.9,5.25 0.05,-0.1 0.2,-0.95 V 11.8 L 13.85,11.6 Q 13.7,11 13.35,10.75 L 13.1,10.65 H 12.45 12.4 q -0.85,0.15 -1.2,0.6 l -0.1,0.15 q -0.25,0.3 -0.25,0.75 v 0.05 l 0.1,0.4 0.3,0.5 0.1,0.15 q 0.5,0.45 1.4,0.45 0.6,0 0.9,-0.45 M 10.2,12.15 10.4,11 q -0.2,0.05 -0.35,0.2 l -1.7,0.6 0.45,0.05 0.9,0.15 0.5,0.15 m 6.95,-2.55 0.2,-0.7 h -0.1 L 17,8.95 Q 16.2,9 16.2,9.6 v 0.1 l 0.05,0.2 0.45,0.6 0.05,0.05 0.4,-0.95 M 1.8,1.4 0.7,1.1 H 0.5 V 2.8 H 1.7 L 1.95,1.9 1.8,1.4 M 4.55,2.3 3.2,1.85 2.35,1.55 2.4,1.7 2.6,2.6 4.05,2.95 4.6,2.55 4.55,2.3 M 5.7,2.7 5.75,2.85 q 0.45,1.3 1.15,1.3 1.1,0 1.6,-0.6 L 8.45,3.4 8.75,3.1 8.85,2.6 7.4,2.65 5.8,2.55 5.7,2.7 m -8.35,8.35 h 0.45 1.8 L 0,11.1 0.4,11.05 H 0.5 2.8 Q 2.5,10.6 2.5,9.95 V 8.5 L 2.35,7.95 2.2,8 Q 1.15,9.1 0.15,9.25 V 9.3 H 0 -0.15 Q -1.15,9.1 -2.2,8 L -2.35,7.95 -2.55,8.5 v 1.45 l -0.05,0.7 -0.15,0.25 -0.05,0.15 h 0.15 M 10.2,15.3 10,15.05 9.7,14.45 9.6,14.15 9.5,13.9 9.45,13.85 8.95,13.55 6.4,12.8 5.95,12.7 l 0.5,0.9 0.1,0.2 v 0.05 Q 6.9,14.9 6.9,16 v 0.2 l 0.4,-0.1 2.9,-0.75 V 15.3 m -5.8,-2.55 0.7,1.2 0.4,1.2 0.1,0.45 0.05,0.7 v 0.1 h 0.3 L 6,16.25 6.05,15.9 5.85,14.25 5.8,14.1 5.3,13.1 4.95,12.55 4.35,12.6 H 4.3 l 0.1,0.15 m -1.55,0.9 0.3,-0.1 L 3.5,13.45 2.85,13.25 2.1,12.95 1.75,12.85 1.05,12.6 0,12.4 -1.05,12.6 -1.8,12.85 -2,12.95 h -0.15 l -0.75,0.3 -0.6,0.2 0.35,0.1 0.1,0.05 q 1,0.2 1.7,0.7 0.35,0.2 0.55,0.45 v 0.05 l -0.5,0.2 -0.55,-0.05 -0.95,0.45 -1.05,0.4 -0.4,0.15 1.2,0.6 0.3,0.15 0.2,0.1 h 0.2 0.1 Q -1.5,16.4 -0.3,16.45 L 0,16.5 0.3,16.45 h 0.45 q 0.9,0 1.6,0.35 h 0.15 0.05 0.1 l 0.4,-0.25 0.15,-0.05 0.75,-0.35 0.3,-0.2 -0.3,-0.1 -0.5,-0.2 L 2.8,15.4 1.85,14.95 1.3,15 Q 0.9,15 0.8,14.75 L 0.95,14.6 1.4,14.25 q 0.6,-0.4 1.45,-0.6 m 0.75,1.1 0.25,0.1 h 0.1 L 4.15,14.9 4.8,15.25 4.75,14.9 4.6,14.4 v -0.05 l -0.2,-0.3 -0.25,0.2 -0.2,0.1 -0.55,0.2 -0.05,0.05 -0.15,0.05 0.4,0.1 m -5.4,3.95 0.9,0.05 H 2.4 L 1.8,18.1 0.15,17.95 0,17.9 -0.1,17.95 h -0.05 l -1.35,0.1 -0.3,0.05 -0.4,0.4 -0.15,0.2 h 0.15 0.4 m -0.05,0.8 -0.7,0.15 v 0.05 q 0,0.45 0.75,1.2 0.8,0.85 1.85,0.9 0.9,0 1.75,-0.9 L 2.5,19.7 V 19.25 H 2.45 -0.9 l -0.95,0.25 m 13.1,-5.45 v 0.15 l 0.1,0.15 0.15,0.2 0.2,0.3 1.05,-0.5 h -0.1 -0.45 -0.05 l -0.9,-0.3 m 4.6,16.6 L 15.15,29.6 15.1,29.45 14.5,28.8 Q 13,27.5 10.7,27.5 7.85,27.5 6.45,29.6 L 6.3,30 5.6,31.75 q 0,0.45 0.55,0.95 H 8 L 7.9,32.55 q -0.5,-0.85 -0.5,-1.2 0,-0.3 0.15,-0.7 0.4,0.1 1,1.1 L 9.2,32.7 H 12 l 0.05,-0.2 0.35,-1.05 0.3,-0.1 h 0.1 q 0.35,0 0.35,0.8 l -0.1,0.55 h 3.1 l 0.05,-0.55 -0.35,-1.5 M 29.9,30 29.65,29.55 29.5,29.2 29.2,28.35 28.9,28.15 q -1.2,-0.6 -2.95,-0.9 L 23.4,27.1 q -1.45,0 -2.35,1.6 l -0.25,0.5 q -0.75,1.55 -0.75,2.7 l 0.2,0.8 H 22.4 V 32.55 L 22.3,31.6 q 0,-1.55 0.45,-0.6 0.55,1 0.55,1.6 v 0.1 l 3.5,-0.05 q 0.05,-1 0.6,-1.6 h 0.05 L 28.05,31 28.1,31.45 28,32.5 27.95,32.65 h 1.6 L 30.2,31.9 30.25,31.3 29.9,30 m -43.45,-55.35 -0.5,-0.5 -0.4,-0.25 -0.35,-0.05 -0.15,-0.05 -0.55,-0.05 -0.9,0.2 -0.15,0.15 -0.7,2.7 -0.25,0.75 0.65,0.45 h 0.4 q 1.25,0 1.3,-1.4 l -0.05,-0.2 h -0.05 q -0.35,-0.25 -1.05,0 l -0.05,-0.35 q 0,-0.65 0.9,-0.35 l 0.65,0.35 0.25,0.55 v 0.35 l -0.1,0.35 -0.05,0.2 -0.1,0.2 q -0.4,0.8 -1.15,0.8 l -0.4,-0.05 v 0.05 l 0.65,0.9 1.15,-0.1 h 0.05 0.05 q 0.95,-0.7 1.15,-1.35 l 0.05,-1.35 q 0,-1.15 -0.15,-1.6 l -0.15,-0.35 m -6.7,14.3 0.4,-0.45 0.05,-0.1 -0.6,-1.1 -0.35,-0.15 -0.4,-0.15 q -0.8,0 -1.25,0.55 l -0.3,0.5 -0.15,0.7 -0.1,0.35 q 0,0.45 0.4,1.1 0.55,0.9 1.45,0.9 1.4,0 2.05,-0.85 l 0.45,-0.8 -0.45,-0.35 -0.25,0.3 -0.55,0.55 h -1 l -0.85,-0.45 -0.3,-0.35 v -0.1 l 0.15,-0.85 0.2,-0.15 q 0.1,0.25 0.05,0.75 0.15,0.3 0.85,0.35 h 0.2 l 0.3,-0.2 m 2.1,-6.8 -0.65,-1.1 -0.2,0.55 -0.25,2.1 q 0,1.8 0.55,2.8 0.85,1.8 3.3,2.05 l 0.25,0.05 q 0.7,-0.45 0.7,-1.35 0,-2.4 -2.4,-3.95 l -1.3,-1.15 m 10.5,11.25 -0.9,-0.2 Q -9.6,-7.1 -9.6,-6 l 0.35,0.65 0.15,0.25 q 0.45,0.5 1.35,0.65 l 0.55,0.05 h 0.1 q 0.75,0 1,-0.25 0.2,-0.15 0.2,-0.6 0,-0.75 -1.75,-1.35 M -2,1.55 -2.9,1.85 -4.2,2.3 -4.25,2.55 -3.7,2.95 -2.25,2.6 -2.05,1.7 -2,1.55 m 0.4,0.35 0.2,0.9 h 1.2 l 0.05,-1.7 h -0.2 l -1.1,0.3 -0.15,0.5 m -3.75,0.8 -0.1,-0.15 -1.6,0.1 -1.45,-0.05 0.1,0.5 0.3,0.3 -0.05,0.15 q 0.5,0.6 1.6,0.6 0.7,0 1.15,-1.3 L -5.35,2.7 M -9.25,2.5 V 2.4 Q -9.9,2.25 -10.4,1.9 l 0.1,0.5 Q -10,2.95 -9.15,3 l -0.1,-0.5 m -5.2,2.15 1.2,2 0.75,1.05 0.1,0.1 q 0.55,0.85 1.45,1.4 1.5,0.9 4.1,1.4 l 0.1,-0.15 Q -6.25,10 -6.25,9.5 -6.25,8.75 -6.5,8.25 L -6.75,7.8 -7.15,7.35 H -8.6 q -1.65,-0.25 -3.35,-1.1 l -2.2,-1.45 -0.2,-0.15 -0.1,-0.15 v 0.15 m 6.1,7.15 -2.05,-0.8 0.2,1.15 1.4,-0.3 0.45,-0.05 M -19.2,6.15 -20.1,7.7 -20.15,7.8 q -2.05,3.85 -2.75,6.7 l -0.1,0.55 q 0.9,-1.15 2.05,-1.05 h 0.1 v 0.1 0.1 l -0.4,0.55 -0.95,1.65 q -0.7,1.55 -0.7,3.1 l 0.3,1.35 q 0.5,0.95 1.8,1.7 l 0.8,0.4 -0.25,-1.05 q 0,-2.8 2.1,-4.35 1.85,-1.25 4.7,-1.15 h 0.15 l -0.1,-0.05 -0.65,-0.4 -0.7,-0.55 -0.9,-0.85 -0.5,-0.45 -0.3,-0.35 -0.25,-0.3 -0.05,-0.05 -1.5,-2.35 -0.3,-0.75 -0.5,-1.5 L -19.1,8.3 -19.15,7.8 -19.2,7.6 V 7.2 l 0.15,-1.1 V 5.85 l -0.15,0.3 M -15.65,5.5 -15.8,5.3 -16.2,4.55 V 4.3 l 0.25,-0.05 h 0.05 V 4 l -0.2,0.15 -1,0.4 q -0.7,0.2 -0.7,0.65 v 0.3 l 0.05,0.4 0.05,0.35 q 0.25,0.65 1.35,0.65 0.95,0 0.95,-0.85 L -15.65,5.5 m -0.85,4.75 0.3,-0.65 q 0,-0.7 -1.05,-0.7 h -0.1 l 0.25,0.7 0.35,0.95 V 10.5 l 0.25,-0.25 M -17.55,8 h 0.45 l 0.65,0.15 0.65,0.45 q 0.3,0.4 0.3,1 l -0.45,1.05 -0.4,0.6 0.4,0.55 1.15,1.2 -0.05,-0.85 q 0,-2.85 2.25,-2.65 L -13.7,8.35 -14.15,7.8 -14.75,7 -15.1,7.35 -15.95,7.8 -16.4,7.85 -16.95,7.8 -17.6,7.6 -17.55,7.8 V 8 m 6.65,4.15 q 0,-1.2 -1.5,-1.5 -1.5,-0.3 -1.5,1.55 l 0.2,0.85 q 0.2,0.65 0.95,0.65 1,0 1.45,-0.6 l 0.3,-0.5 0.1,-0.45 m 0.75,3.1 -0.05,0.1 3.3,0.85 V 16 q 0,-1.25 0.45,-2.4 l 0.35,-0.7 0.1,-0.2 -0.4,0.1 q -2.45,0.55 -3.05,1.05 l -0.25,0.6 -0.45,0.8 m -2.5,-0.9 h -0.1 l 1,0.5 0.45,-0.65 v -0.15 l -1.35,0.3 m -5.45,5.25 q -0.6,0.9 -0.6,2.25 0,2.25 2.75,2.7 L -16,24.5 -16.4,23.1 q 0,-0.8 0.2,-0.95 0.25,-0.2 0.7,0.95 0,0.35 0.8,1.35 l 0.25,0.25 h 0.1 l 2.8,-0.35 0.65,-0.85 0.2,-0.75 q 0.15,-0.6 0.5,-0.7 0.35,0.5 0.35,0.85 l -0.1,0.85 q 1.6,-0.8 1.6,-2.05 0,-1.05 -0.6,-1.85 L -10,18.9 q -1.45,-0.95 -3.55,-1 -3.4,-0.05 -4.55,1.7 m 13.7,-7 -0.55,-0.05 -0.85,1.55 -0.25,1.8 0.05,0.5 h 0.1 0.25 v -0.1 l 0.05,-0.4 q 0,-1 0.45,-1.95 l 0.75,-1.25 0.1,-0.1 h -0.1 m 1.1,2 -0.1,-0.05 -1.05,-0.5 -0.35,0.85 -0.05,0.35 0.7,-0.35 0.7,-0.2 0.2,-0.05 L -3.3,14.6 M -24,21.9 q -0.55,-1.05 -0.55,-1.8 l 0.1,-1.3 h -1 L -27,18.9 -27.45,19 q -2.65,1.05 -2.65,5.1 l 0.05,0.4 0.45,1.75 0.2,0.45 0.35,-0.25 q 1,-0.55 2.05,-0.8 l 2.25,-0.35 2.35,0.3 h 0.15 l 0.5,0.15 0.05,0.05 0.45,0.2 0.15,0.05 1.1,-1.3 -0.4,-0.05 -0.45,-0.05 -0.1,-0.05 -1.1,-0.45 q -0.85,-0.5 -1.55,-1.6 L -24,21.9 m -6.05,8.4 -0.2,1 0.05,0.6 0.65,0.75 h 1.6 L -28,32.5 -28.1,31.45 q 0,-1 0.65,-0.4 l 0.45,0.7 0.2,0.9 3.5,0.05 v -0.1 l 0.5,-1.6 q 0.5,-0.95 0.5,0.6 l -0.15,0.95 v 0.15 h 2.2 l 0.2,-0.8 q 0,-1.15 -0.75,-2.7 -0.5,-1.1 -1.15,-1.6 -0.65,-0.5 -1.45,-0.5 l -3.6,0.4 -1.9,0.65 -0.3,0.2 -0.5,1.2 -0.35,0.75 m 25.2,-0.55 0.2,1.25 -0.2,1.15 -0.4,0.4 -0.05,0.15 h 0.9 l 0.1,-0.1 q 0.85,-0.65 0.85,-1.05 0,-1.4 -0.7,-2.65 -0.65,-1 -1.55,-1.65 l 0.1,1.05 0.35,0.4 v 0.1 l 0.4,0.95 M -8.3,26 -8.9,25.4 q -2.1,0.8 -6.15,0.8 -2.2,0 -3.55,-0.9 l -0.2,0.4 q -0.6,1.05 -0.65,1.95 l 0.35,0.6 q 0.45,0.05 1.3,0.4 2.4,0.9 2.4,2.95 l -0.15,1.1 h 6.4 l 0.75,-0.85 q 1.25,-1.6 1.25,-3.1 0,-1.4 -1.15,-2.75 m 1.75,6.7 h 0.65 l 0.25,-0.35 q 0.5,-0.75 0.5,-1.4 0,-0.95 -0.45,-1.8 -0.05,1.15 -0.4,2.2 -0.2,0.8 -0.55,1.35 m -11.1,-0.1 -0.15,-0.45 -0.2,-0.8 -0.1,-0.25 -0.5,-0.9 0.05,0.4 0.1,1.25 v 0.1 l -0.05,0.6 -0.05,0.15 h 0.1 0.75 0.05 v -0.1 m -0.3,-2.7 q 0.7,1.05 0.7,1.9 l -0.1,0.9 h 1.1 l 0.2,-1.1 q 0,-1.35 -2.05,-2.15 l -0.5,-0.2 0.65,0.65"
         fill="#6b6b6b"
         fill-rule="evenodd"
         stroke="none"
         id="path7" />
      <path
         d="m -18.8,-24.85 -0.15,1.1 -0.15,-0.35 0.3,-0.75 m -6.25,26.25 0.65,1.2 0.2,0.3 Q -24.8,2.6 -25.05,1.45 V 1.4 m 56.9,23.45 -0.3,-2.55 v -0.4 l 0.45,1.6 -0.15,1.35 m -26.6,-56.2 -0.05,0.25 -0.85,0.6 -1.15,1 -0.1,0.2 -0.5,0.7 -0.2,0.5 Q 2,-27.3 2,-26.45 l 0.05,0.6 q -0.9,1.65 -2.3,1.65 l -0.45,-0.05 -1.1,-0.75 -0.25,-0.45 0.05,-1 v -0.15 l -0.15,-1.05 -0.4,-0.9 -0.05,-0.05 -0.55,-0.75 v -0.05 l -1.2,-1.1 -0.9,-0.6 -0.05,-0.2 0.5,-0.6 q 0.55,-0.65 1.6,-0.9 l 0.05,0.05 0.05,-0.05 1.75,-0.25 1.2,0.15 v 0.05 l 0.2,-0.05 0.1,0.05 v -0.05 l 1.15,-0.15 h 0.5 l 0.05,0.15 0.2,-0.1 q 1.95,0.15 2.7,1.1 l 0.5,0.55 m 2.3,2.35 -0.9,0.2 -1,0.75 -0.15,0.1 q -0.4,0.5 -0.45,1.05 L 5,-26.5 v 0.2 l 0.1,0.55 0.15,0.35 q 0.4,0.8 1.1,0.85 H 7.7 l 0.2,-0.1 0.45,-0.5 0.35,-0.7 -0.1,-0.15 -0.05,0.05 -0.85,0.6 H 6.5 q -0.2,0 -0.45,-0.45 L 5.8,-26.45 v -0.05 l 0.45,-1 0.25,-0.2 q 0.5,-0.55 1.05,-0.55 1.4,0 2.35,0.7 l 0.1,0.25 h 0.15 l 0.3,0.3 0.05,0.4 q 0,0.6 -0.9,1.8 -0.8,1.05 -1.65,1.35 l -0.6,0.1 H 7.2 q -1.6,0 -2.45,-0.9 -0.6,-0.65 -0.65,-1.2 H 3.95 L 3.4,-25.5 3.3,-26 v -0.5 l 0.15,-0.75 q 0.25,-0.95 1.3,-1.95 l 0.25,-0.3 0.75,-0.7 0.6,-0.6 0.55,0.05 3.6,-0.3 q 3.95,0 5.6,3.9 l -1.35,0.35 -0.45,0.25 -0.45,-0.8 Q 13.05,-28.8 11.4,-29.2 H 10.9 L 9.85,-29.25 9.6,-29.2 H 8.85 l -1.3,0.2 m -20.95,3.1 -0.15,-0.15 -0.1,-0.1 -0.4,-0.3 -0.25,-0.1 -0.3,-0.15 -0.15,-0.05 -0.05,-0.05 -0.15,-0.05 -1.15,-0.3 q 1.65,-3.9 5.6,-3.9 l 3.6,0.3 0.5,-0.05 1.4,1.3 0.05,0.05 0.35,0.4 q 0.75,0.75 1.05,1.55 l 0.05,0.05 0.2,0.95 v 0.55 l -0.55,0.15 -0.25,0.5 q -0.35,0.75 -0.85,1.2 -0.85,0.65 -2.2,0.65 -1.65,0 -2.75,-0.9 l -0.65,-0.65 -0.05,-0.05 -0.4,-0.3 -0.1,-0.1 v -0.15 l 0.5,-1.25 0.1,-0.1 0.45,-0.45 0.85,-0.55 1.65,-0.3 0.35,0.05 0.9,0.7 q 0.5,0.65 0.5,1 l -0.25,0.7 -0.45,0.45 h -1.2 l -0.95,-0.65 -0.05,0.15 0.2,0.4 0.15,0.3 0.45,0.45 0.2,0.15 h 1.3 q 0.75,-0.05 1.15,-0.85 L -5,-26.2 v -0.3 l -0.05,-0.45 -0.1,-0.35 -0.4,-0.65 q -0.45,-0.65 -1.3,-0.9 l -1.3,-0.2 q -1.75,0 -2.9,1.5 l -0.05,0.1 -0.3,0.05 -1.35,0.85 q -0.35,0.25 -0.65,0.4 v 0.05 0.15 0.05 m 26.65,3.55 v -0.15 l -0.05,-0.8 v -0.1 -0.05 l 0.05,-0.75 0.15,-0.8 q 0.25,-0.75 1,-1.1 l 0.2,-0.05 0.5,-0.05 0.35,-0.05 0.85,0.1 0.1,0.1 0.15,0.15 0.45,1.65 0.25,1.05 0.2,0.75 -0.6,0.45 h -0.4 q -0.8,0 -1.1,-0.55 l -0.2,-0.55 -0.05,-0.3 0.05,-0.2 h 0.1 q 0.35,-0.25 1,0 l 0.05,-0.35 -0.05,-0.25 -0.8,-0.1 -0.4,0.15 -0.45,0.5 -0.05,0.25 0.2,1.1 h 0.05 l 0.6,0.7 q -1.2,-0.1 -2,-0.7 l -0.15,-0.05 m -28.05,6.2 -0.4,-0.35 -1,-1.05 -0.4,-0.4 -1.05,-1.4 -0.3,-0.9 1.45,1.65 0.3,0.25 0.6,0.55 q 1.7,1.25 3.45,1.25 h 0.05 l 3.15,-1.15 0.15,-0.1 q 3.1,-1.3 6.7,-1.3 l 1.95,0.2 v 0.05 H 0 0.15 v -0.05 l 1.9,-0.2 q 3.65,0 6.75,1.3 l 0.25,0.1 0.65,0.25 0.3,0.1 1,0.4 0.65,0.25 0.45,0.15 h 0.4 q 2.05,-0.2 4,-2.05 l 1.45,-1.65 -0.3,0.9 q -0.6,1 -2.5,2.85 l -0.7,0.8 -1.35,0.2 -2.35,-0.05 -0.85,1.05 -0.95,0.05 q -1.5,0.3 -1.7,1.85 -0.7,0.35 -1.4,0.55 h -6.4 l -1.3,-0.15 H -3 q -1.65,0.4 -3.45,-0.9 l -0.2,-0.15 -0.2,-0.1 -0.45,-0.15 -0.15,-0.45 -0.45,-0.65 q -0.45,-0.35 -1.3,-0.35 l -0.2,-0.45 -1.6,-0.6 -1.75,0.25 -2.05,-0.4 m 38.05,7.05 q 0.5,-0.6 0.5,-0.95 l -0.05,-0.75 -0.05,-0.45 -0.85,-2.1 -0.05,-0.1 -0.65,-0.65 q -0.65,-0.4 -1.4,0.3 l 0.25,-2.5 -0.1,-2.1 v -0.05 l 0.9,1.5 0.25,0.4 0.25,0.3 0.85,1.6 0.6,1.5 q 0.7,2 0.7,4 v 0.1 l -0.45,1.6 -0.05,0.1 -0.3,0.75 -0.25,1.45 v 0.1 0.15 l 0.05,0.25 q 0,0.75 0.15,1.25 l 0.2,0.65 0.05,0.25 0.05,0.65 v 0.25 q 0,1.3 -0.75,2.75 -0.55,1.1 -1.4,1.8 1,-1.55 1.65,-3.65 l 0.3,-1.25 -0.45,-0.4 v -0.3 q 0,-2 -1.25,-2.8 L 21.9,-5.55 21.95,-6 q 0.1,-1.35 1.2,-2.85 L 23.3,-8.95 23.25,-9.1 M 19.7,-2.75 19.9,-3 q -0.65,-0.95 -0.65,-1.3 0,-0.85 1.4,-0.85 0.8,0 1.25,1.2 l 0.25,0.65 0.1,0.55 v 0.35 q -0.1,0.8 -0.55,1.25 l -0.1,0.1 q -0.5,0.5 -1.5,0.6 l 1.1,-0.8 Q 20.3,-1.6 19.7,-2.7 V -2.75 M 14.4,-9.35 14.15,-9 q -0.4,0.8 -0.4,1.9 l 0.05,1.3 q 0.15,0.9 0.75,1.05 0.55,1.8 0.55,3.55 0,1.5 -0.95,3.05 L 12.9,3.4 13.3,1.55 13.95,-1.7 q 0,-1.1 -0.65,-2.4 -0.7,-1.3 -0.7,-2.1 l 0.2,-2.05 q 0.35,-1.2 1.4,-1.9 l 0.3,0.4 -0.1,0.4 M -13.65,2.6 -14.15,1.85 Q -15.1,0.3 -15.1,-1.2 l 0.05,-0.9 0.3,-1.95 0.2,-0.7 0.2,-0.1 q 0.4,-0.25 0.55,-0.95 l 0.05,-0.2 v -1.1 q 0,-1.05 -0.35,-1.8 l 0.55,0.6 q 0.95,1.45 0.95,2.85 0,0.5 -0.7,2.45 -0.75,1.9 -0.75,3.8 l 0.25,0.7 0.25,0.95 -0.1,0.15 m -8.6,-5.2 v -0.15 l 0.35,-1.2 q 0.45,-1.2 1.25,-1.2 1.4,0 1.4,0.85 0,0.35 -0.65,1.3 0.1,0.25 0.5,0.25 0.45,0 0.7,-0.65 l 0.1,-0.9 q 0,-1.85 -1.9,-1.55 l 0.1,-0.05 q 2.15,-0.45 2.15,1.45 0,0.65 -0.45,1.35 -0.7,1.1 -1.9,1.1 -1.15,0 -1.65,-0.6 m -0.45,-2.05 q -0.55,0.75 -0.55,2 L -23.2,-2 -23.35,-0.15 -23.2,1 q -0.65,-1.4 -0.65,-2.6 l 0.25,-1.8 0.25,-1.1 V -5.05 -5.15 -5.4 -5.45 Q -23.4,-6.1 -23.6,-6.6 l -0.2,-0.55 -0.1,-0.2 -0.5,-1.8 q 0,-1.5 0.4,-3 v -0.15 l 0.05,-0.05 0.2,-0.7 0.05,-0.05 0.2,-0.7 0.25,-0.45 0.4,-0.9 0.8,-1.4 0.25,-0.35 0.8,-1.2 0.2,-0.4 -0.15,2.2 0.1,1.8 0.1,0.6 0.05,0.1 -0.1,-0.05 q -0.55,-0.5 -1,-0.4 l -0.6,0.4 -0.3,0.35 -0.15,0.15 v 0.1 l -0.45,0.9 -0.15,0.4 -0.05,0.05 -0.25,1.85 0.1,0.25 0.25,0.5 0.35,0.4 0.05,0.05 0.15,0.15 0.15,0.2 0.6,0.4 q -0.2,0.95 -0.55,1.5 v 1 l -0.05,0.3 v 0.6 0.05 M 0.6,-10.3 0.55,-10.75 q 0,-0.5 0.3,-0.55 l 0.85,0.1 q -0.45,0.15 -0.8,0.5 l -0.3,0.4 m 2.05,-1.05 0.4,-0.2 3.75,-0.2 h 0.4 l 0.15,0.5 q 0.15,0.35 0.6,0.45 l 0.7,0.1 q 1.55,0 1.85,-0.5 l 0.1,-0.1 v -0.2 q 0.1,-1.15 -0.45,-1.35 l -0.35,-0.1 -0.15,0.05 0.05,0.05 0.25,0.65 v 0.5 0.05 q -0.05,0.1 -0.2,0.1 L 9,-11.4 H 8.65 L 8.6,-11.45 q -0.4,-0.1 -0.55,-0.3 H 8.1 L 7.9,-11.95 7.8,-12.4 7.9,-12.95 8,-13.2 q 0.35,-0.55 1.15,-0.65 H 9.7 q 0.8,0 1.35,0.35 l 0.5,0.7 -0.1,-0.05 q -0.25,0.05 -0.2,1.15 v 0.3 0.7 q -0.35,0.25 -0.7,0.35 -0.45,0.45 -2.05,1 -2.3,0.8 -4.25,0.8 -1.9,0 -2.9,-0.7 0.1,-1.55 2.4,-1.9 v -0.1 l -1.1,-0.1 m -6.05,8.7 -0.05,-0.2 q 0,-1.25 0.2,-1.45 l 0.55,-0.4 0.05,-0.2 q 1.3,-1.9 4.1,-1.2 1.35,0.6 1.85,1.7 l 0.25,0.6 0.3,0.85 v 0.2 0.1 H 3.8 L 3.3,-2.7 H 3.05 l -2.9,0.2 -2.45,-0.15 -0.65,-0.05 -0.4,0.05 H -3.4 M 10.6,-0.2 9.45,0.2 9.75,-0.15 10.2,-1.3 10,-1.95 9.5,-0.85 Q 9.1,0 7.7,0 L 6.45,-0.05 6.3,-0.15 6,-0.35 5.55,-0.45 q -0.55,0 -0.8,-0.3 L 4.5,-1.1 V -1.15 L 4.75,-1.9 q 0.7,-0.95 3.3,-1.15 l 2.7,0.35 -0.05,0.5 0.25,1.1 -0.35,0.9 M -10.55,-3.15 -8.6,-3.2 q 3.05,0.3 3.05,1.65 0,0.65 -0.45,1.1 l -0.4,0.4 H -7.95 Q -8.55,-0.35 -8.8,-1 l -0.45,-0.95 -0.3,0.7 0.3,1 0.55,0.5 -1.5,-0.35 q -0.4,-0.5 -0.4,-1 l 0.25,-1.1 -0.2,-0.95 M -0.05,-2 0.15,-2.05 0.5,-2 h -0.55 m 19.95,-8.05 h 0.95 l 0.8,-0.45 0.35,-0.45 -0.15,-0.85 -0.25,-0.15 v 0.75 q -0.15,0.35 -1.1,0.35 l -0.75,-0.75 0.65,-1.1 0.35,-0.15 0.4,-0.15 q 0.8,0 1.25,0.6 l 0.3,0.45 0.25,1.05 -0.15,0.55 -0.25,0.55 -0.35,0.5 -0.45,0.05 q -1.3,0 -1.85,-0.8 m 5.7,8.1 0.85,-0.4 h 0.2 q 2.05,0 2.8,3.3 l 0.2,1.05 0.2,1.75 v 0.8 0.3 q 0,2.25 -0.55,4.55 L 29.2,9.9 29.25,8.8 29,6.55 28.9,5.65 29.1,4.4 V 4.15 3.95 L 28.9,2.75 Q 28.55,1.2 27.55,1.2 h -1.3 Q 25.8,1.45 25.5,2.2 L 25.05,1.3 q 0.55,-1.35 0.55,-2.9 v -0.35 m 0.45,6.3 -0.2,-0.95 0.1,-0.55 0.35,-0.75 0.1,-0.2 h 1.05 l 0.1,0.1 0.4,0.75 0.3,0.85 -0.1,0.55 -0.1,0.6 -0.3,0.5 H 27.6 q -1,0 -1.5,-0.85 L 26.05,4.35 m -6.85,1.8 0.85,1.55 1.55,3.15 0.05,0.1 1.25,3.55 0.2,2.7 0.05,0.75 h 0.05 l 0.3,0.5 1.95,0.35 2,0.2 q 1.6,0.65 2.2,2.4 l 0.15,0.4 0.05,0.15 0.05,0.1 0.05,0.2 0.05,0.45 0.05,0.7 v 0.15 0.35 0.2 0.35 l -0.15,0.9 -0.05,0.05 -0.05,-0.05 h -0.3 q -3.2,0 -4.45,-1.9 -0.75,-1.15 -1.9,-1.6 l -1,0.3 -0.7,0.35 -0.55,-0.15 -0.2,0.2 q -0.5,-0.4 -0.5,-0.75 l 0.25,-1.05 q 0,-0.5 0.15,-0.9 l 0.25,-0.6 q 0.65,-1.2 2.3,-1.3 h -0.2 q -1,0 -1.25,-1.5 L 21.6,14.5 v 0.9 l -0.45,-1.65 -0.3,0.4 -0.3,1.95 -0.4,1.6 -0.25,0.6 -0.4,0.05 q -0.95,0 -1.4,-1.95 l -0.35,-1.9 0.35,-2.45 0.1,-1 0.45,-0.95 Q 19.2,8.65 19.2,7.2 L 19.05,6.1 19.2,6.15 m -6.15,12.1 -0.4,0.1 q 1.7,0.2 2.8,1.05 1,0.75 1.4,2.05 L 17.1,23.5 17,24.55 16.9,25.2 16.65,25.9 H 16.6 q -1.75,0 -4.95,-2.4 L 9.85,22.15 8.85,22 8.6,22.15 q -0.65,0 -0.8,-0.7 L 7.7,21.1 7.75,20.95 7.7,20.5 7.75,20.3 q 0.1,-0.7 1.45,-1.3 1.15,-0.55 2.65,-0.65 l 1.2,-0.1 M 10.65,2.4 Q 10.35,2.95 9.5,3 L 9.6,2.5 V 2.4 q 0.65,-0.15 1.15,-0.5 l -0.1,0.5 M 5.7,2.7 5.8,2.55 7.4,2.65 8.85,2.6 8.75,3.1 8.45,3.4 8.5,3.55 Q 8,4.15 6.9,4.15 6.2,4.15 5.75,2.85 L 5.7,2.7 M 4.55,2.3 4.6,2.55 4.05,2.95 2.6,2.6 2.4,1.7 2.35,1.55 3.2,1.85 4.55,2.3 M 1.8,1.4 1.95,1.9 1.7,2.8 H 0.5 V 1.1 H 0.7 L 1.8,1.4 M 7.3,16.1 6.9,16.2 V 16 q 0,-1.1 -0.35,-2.15 l 0.1,0.2 L 7.3,16 v 0.1 M 3.35,14.6 3.6,14.75 3.2,14.65 3.35,14.6 M 6.3,30 6.45,29.6 q 1.4,-2.1 4.25,-2.1 2.3,0 3.8,1.3 l 0.6,0.65 0.05,0.15 0.7,1.05 q -0.8,0.7 -3.05,0.7 H 12.7 L 8,30.65 6.3,30 m 14.75,-1.3 q 0.9,-1.6 2.35,-1.6 l 2.55,0.15 q 1.75,0.3 2.95,0.9 l 0.3,0.2 0.3,0.85 0.15,0.35 0.25,0.45 -0.6,0.4 h -0.05 q -0.4,0.45 -1.2,0.6 l -0.6,0.05 H 27.4 27 l -4.45,-0.6 q -1.6,-0.6 -1.6,-1.2 l 0.1,-0.55 M -14.5,-20.7 h -0.05 l -1.15,0.1 -0.65,-0.9 v -0.05 l 0.4,0.05 q 0.75,0 1.15,-0.8 l 0.1,-0.2 0.05,-0.2 0.1,-0.35 v -0.35 l -0.25,-0.55 -0.65,-0.35 q -0.9,-0.3 -0.9,0.35 l 0.05,0.35 q 0.7,-0.25 1.05,0 h 0.05 l 0.05,0.2 q -0.05,1.4 -1.3,1.4 h -0.4 l -0.65,-0.45 0.25,-0.75 0.7,-2.7 0.15,-0.15 0.9,-0.2 0.55,0.05 0.15,0.05 0.35,0.05 0.4,0.25 0.5,0.5 -0.1,0.2 -0.05,0.15 0.15,0.35 0.15,1.3 q 0,1.95 -1.1,2.65 m 6.15,-9.3 0.15,-0.1 -0.45,0.05 0.3,0.05 m -14.5,18.75 0.15,-0.7 0.3,-0.5 q 0.45,-0.55 1.25,-0.55 l 0.4,0.15 0.35,0.15 0.6,1.1 -0.05,0.1 -0.4,0.45 -0.5,0.2 q -0.7,-0.05 -0.85,-0.35 0.05,-0.5 -0.05,-0.75 l -0.2,0.15 -0.15,0.85 v 0.1 q -0.5,-0.15 -0.85,-0.4 m 11.7,0.85 v -0.05 l -0.15,-0.7 v -0.15 l 0.05,-0.1 v -0.2 -0.3 -0.05 q 0.05,-0.8 -0.15,-0.85 l 0.2,-0.45 0.5,-0.35 1.05,-0.3 0.75,0.05 q 0.95,0.25 0.95,1.15 v 0.1 l -0.05,0.45 -0.1,0.2 -0.55,0.3 h -0.8 L -9.6,-12 h 0.1 l -0.2,-0.2 -0.2,-0.4 -0.1,0.6 -0.1,0.25 0.05,0.2 0.4,0.55 h 1 0.4 q 0.6,-0.15 0.8,-0.85 l 0.05,-0.1 h 0.55 l 4.2,0.5 0.5,-0.15 0.45,0.05 -0.5,0.15 0.85,1.15 0.15,0.2 -1.35,0.5 q -1.75,0.6 -3.4,0.6 -2.85,0 -4.65,-1.1 l -0.55,-0.35 m 1.9,12.9 0.1,0.5 Q -10,2.95 -10.3,2.4 l -0.1,-0.5 q 0.5,0.35 1.15,0.5 v 0.1 m 3.9,0.2 -0.05,0.15 q -0.45,1.3 -1.15,1.3 -1.1,0 -1.6,-0.6 L -8.1,3.4 -8.4,3.1 -8.5,2.6 l 1.45,0.05 1.6,-0.1 0.1,0.15 m 3.75,-0.8 0.15,-0.5 1.1,-0.3 h 0.2 L -0.2,2.8 H -1.4 L -1.6,1.9 M -2,1.55 -2.05,1.7 -2.25,2.6 -3.7,2.95 -4.25,2.55 -4.2,2.3 -2.9,1.85 -2,1.55 m -17.2,4.6 0.15,-0.05 -0.15,1.1 v 0.4 l 0.05,0.2 0.05,0.5 0.05,0.5 0.5,1.5 0.3,0.75 -0.6,-0.4 q -1.3,1.3 -1.7,2.3 L -20.95,14 Q -22.1,13.9 -23,15.05 l 0.1,-0.55 q 0.7,-2.85 2.75,-6.7 l 0.05,-0.1 0.9,-1.55 m -3.4,14.7 -0.3,-1.35 q 0,-1.55 0.7,-3.1 l 0.95,-1.65 0.4,-0.55 v -0.1 q 1.2,-0.95 2.75,-0.95 l 1.35,0.25 0.05,0.05 0.25,0.3 0.3,0.35 0.5,0.45 0.9,0.85 0.7,0.55 q -0.4,0.45 -1.65,0.5 -2.5,0.2 -4.05,1.25 l -1.4,1.75 -1.45,1.4 m 13.65,-1 q -0.5,1.15 -3.4,1.55 h -3.8 q -2.05,-0.15 -2.05,-1.15 l 0.1,-0.65 q 1.15,-1.75 4.55,-1.7 2.1,0.05 3.55,1 l 1.05,0.95 m 5.5,-5.15 0.15,-0.1 0.05,0.05 -0.2,0.05 m -26.6,9.8 -0.05,-0.4 q 0,-4.05 2.65,-5.1 l 0.45,-0.1 1.55,-0.1 h 1 l -0.1,1.3 q 0,0.75 0.55,1.8 l -0.7,0.9 q -0.95,1.1 -2.3,1.6 l -2.1,0.3 -0.95,-0.2 m 0,5.8 0.35,-0.75 0.5,-1.2 0.3,-0.2 1.9,-0.65 3.6,-0.4 q 0.8,0 1.45,0.5 l 0.3,1.2 q 0,0.9 -2,1.45 l -2.8,0.4 H -27 l -1.25,-0.3 -1.05,-0.3 -0.75,0.25"
         fill="#afafaf"
         fill-rule="evenodd"
         stroke="none"
         id="path8" />
      <path
         d="m 2.05,-25.85 q 0.05,1.2 0.65,2.15 1.25,2.2 4.55,2.2 H 7.9 l 0.7,-0.1 q 1.75,-0.4 2.65,-1.85 l 0.2,-0.35 0.45,-1.4 v -0.45 q 0,-0.8 -0.85,-1.9 -1.15,-1.5 -2.9,-1.5 l -0.6,0.05 1.3,-0.2 H 9.6 l 0.25,-0.05 1.05,0.05 h 0.5 q 1.65,0.4 2.45,1.85 l 0.45,0.8 -0.15,0.05 q -0.85,0.5 -1.25,1.2 -0.35,0.65 -0.4,1.45 l -0.05,0.4 q 0,1.25 0.25,1.9 0.55,1.55 2.25,1.55 h 0.2 l -0.1,0.1 -1,0.8 q -0.9,0.55 -1.85,0.55 -0.45,0 -2.8,-1.05 L 9.3,-19.65 8.35,-20 3.2,-20.75 0,-20.4 -3.2,-20.75 q -3.05,0 -6.1,1.1 -2.45,1.1 -2.9,1.1 -0.8,0 -1.55,-0.35 L -15,-19.85 -15.05,-19.9 -15.2,-20 h 0.3 q 1.6,0 2.2,-1.55 l 0.2,-1.45 v -0.45 -0.75 q -0.25,-1.05 -0.9,-1.7 v -0.05 -0.15 -0.05 q 0.3,-0.15 0.65,-0.4 l 1.35,-0.85 0.3,-0.05 q -0.8,1.05 -0.8,1.8 0,1.1 0.65,2.2 1.25,1.95 4,1.95 2.8,0 4.15,-1.6 l 0.4,-0.6 0.55,-1.2 0.1,-0.55 0.25,0.45 1.1,0.75 0.45,0.05 q 1.4,0 2.3,-1.65 m 8.4,-1.15 0.05,0.05 q 0.6,0.8 0.6,1.35 0,0.9 -0.9,1.75 -0.85,0.75 -2.05,1 L 7.5,-22.8 H 7.15 q -2.55,0 -3.45,-1.8 l -0.3,-0.9 0.55,0.05 H 4.1 q 0.05,0.55 0.65,1.2 0.85,0.9 2.45,0.9 h 0.15 l 0.6,-0.1 q 0.85,-0.3 1.65,-1.35 0.9,-1.2 0.9,-1.8 L 10.45,-27 m -13.75,1.05 q -0.05,0.7 -0.4,1.35 l -0.1,0.2 q -0.95,1.6 -3.35,1.6 -1.9,0 -3.05,-1.05 l -0.5,-0.6 -0.4,-1 0.1,0.1 0.4,0.3 0.05,0.05 0.65,0.65 q 1.1,0.9 2.75,0.9 1.35,0 2.2,-0.65 0.5,-0.45 0.85,-1.2 l 0.25,-0.5 0.55,-0.15 m 18.7,4.35 0.55,0.1 0.4,-0.05 -0.05,0.05 -0.6,0.9 -1.25,-0.1 q -0.95,-0.7 -1.15,-1.35 l -0.05,-0.3 0.15,0.05 q 0.8,0.6 2,0.7 m -30.2,5.45 2.05,0.4 1.75,-0.25 1.6,0.6 0.2,0.45 h -0.65 q -2.6,0.3 -2.6,2.3 l 0.15,0.7 -0.45,1.55 q 0,1.3 1.35,2.65 l 0.65,0.55 -0.25,1.1 q 0,0.8 0.6,1.55 1,1.25 3.25,1.25 3.2,0 3.2,-2.25 l 0.05,-0.4 2.55,-0.65 h 0.15 v -0.55 l 0.55,-0.4 Q 0,-8.2 0,-8.7 l -0.2,-2.05 q -0.4,-1.1 -1.5,-0.8 l -0.45,-0.05 -0.5,0.15 -4.2,-0.5 H -7.4 l 0.1,-1.2 v -0.35 l 0.45,0.15 0.2,0.1 0.2,0.15 q 1.8,1.3 3.45,0.9 h 1.15 l 1.3,0.15 h 6.4 q 0.7,-0.2 1.4,-0.55 l -0.1,0.75 0.05,0.1 H 6.8 l -3.75,0.2 -0.4,0.2 -0.95,0.15 -0.85,-0.1 q -0.3,0.05 -0.3,0.55 l 0.05,0.45 q -0.35,0.65 -0.35,1.6 l 0.9,1.15 0.3,0.35 v 0.6 q 1.3,0.4 2.45,0.65 l 0.05,0.4 q 0,2.25 3.2,2.25 2.2,0 3.25,-1.25 Q 11,-5.3 11,-6.1 l -0.25,-1.1 0.65,-0.55 q 1.35,-1.35 1.35,-2.65 0,-1.05 -0.8,-2.05 V -13.2 Q 11,-14.35 9.9,-14.5 l 0.85,-1.05 2.35,0.05 1.35,-0.2 q -0.7,0.9 -0.7,1.7 v 0.65 l -0.15,0.5 0.1,0.6 0.05,0.25 0.15,0.6 q 0.5,1.35 1.8,1.35 l 0.1,0.1 h 0.05 l 1.9,-0.25 v 0.1 q 0,0.65 0.7,1.35 0.85,1 2.3,1 1.35,0 2.3,-1.15 l 0.2,-0.2 0.05,0.15 -0.15,0.1 q -1.1,1.5 -1.2,2.85 l -0.05,0.45 0.05,0.1 -0.55,-0.2 -0.55,-0.15 q -2.3,-0.5 -2.3,1.5 l 0.15,0.9 q 0.2,0.65 0.65,0.65 h 0.35 v 0.05 q 0.6,1.1 1.5,1.45 l -1.1,0.8 h -0.4 q -1.95,0 -2.55,-0.75 l -0.3,-0.4 -0.25,-2.65 q -0.25,-1.3 -1.2,-3.25 l -0.1,-0.15 -0.35,-0.3 q 0.25,-0.85 0.7,-1.2 -0.75,-0.7 -1.25,-0.2 l 0.1,-0.4 -0.3,-0.4 q -1.05,0.7 -1.4,1.9 l -0.2,2.05 q 0,0.8 0.7,2.1 0.65,1.3 0.65,2.4 L 13.3,1.55 12.9,3.4 10.95,4.65 8.6,5.5 5.1,5.7 1.85,6.1 0,7.2 -1.85,6.1 -5.15,5.7 -8.65,5.5 -11,4.65 q -1.6,-0.8 -2.65,-2.05 l 0.1,-0.15 -0.25,-0.95 -0.25,-0.7 q 0,-1.9 0.75,-3.8 0.7,-1.95 0.7,-2.45 0,-1.4 -0.95,-2.85 L -14.1,-8.9 -14.15,-9 q -0.55,-1.05 -1.5,-0.15 0.45,0.35 0.7,1.2 l -0.35,0.3 -0.1,0.15 -1.25,3.25 -0.2,2.65 -0.3,0.4 q -0.6,0.75 -2.6,0.75 -2.4,0 -2.5,-2.15 0.5,0.6 1.65,0.6 1.2,0 1.9,-1.1 0.45,-0.7 0.45,-1.35 0,-1.9 -2.15,-1.45 l -0.1,0.05 -0.4,0.05 q -1.2,0.25 -1.8,1.15 V -4.7 -5.3 l 0.05,-0.3 v -1 q 0.35,-0.55 0.55,-1.5 l 1.35,0.35 q 1.4,0 2.3,-1 0.65,-0.7 0.65,-1.35 v -0.1 l 1.9,0.25 h 0.1 l 0.1,-0.1 q 1.25,0 1.8,-1.35 l 0.25,-1.45 -0.1,-0.5 V -14 q 0,-1 -1.05,-2.15 m 36.5,19.1 q -0.95,0.7 -2.4,0.7 L 17.6,2.95 Q 16.5,2.25 16.1,2.2 l 0.6,-2.05 q 0.9,0.55 2.45,0.65 h 0.25 0.2 l 2,-0.5 1.05,-0.95 q 0.5,-0.75 0.55,-1.7 l 0.45,0.4 -0.3,1.25 Q 22.7,1.4 21.7,2.95 M -23.2,-2 l 0.55,1.35 q 0.95,1.35 3.05,1.45 h 0.2 0.25 q 1.55,-0.1 2.4,-0.65 l 0.65,2.05 q -0.4,0.05 -1.5,0.75 -1.2,0.7 -1.75,0.7 -2.55,0 -3.75,-2.5 L -23.2,1 -23.35,-0.15 -23.2,-2 m 38.3,-9.4 q 1.6,-0.25 3.45,-6.35 v -0.65 l 0.25,-0.55 0.15,0.55 0.3,2.1 q 0,1.8 -0.55,2.8 -0.95,1.9 -3.6,2.1 M 1.35,-9.25 q 1,0.7 2.9,0.7 1.95,0 4.25,-0.8 1.6,-0.55 2.05,-1 0.35,-0.1 0.7,-0.35 l -0.8,1.45 q -1.5,1.7 -4.7,1.7 L 2.9,-7.95 2.3,-8.2 2.25,-8.25 1.35,-9.15 v -0.1 m 2.5,6.6 v -0.1 -0.2 L 3.55,-3.8 3.3,-4.4 q -0.5,-1.1 -1.85,-1.7 -2.8,-0.7 -4.1,1.2 l -0.05,0.2 -0.55,0.4 q -0.2,0.2 -0.2,1.45 l 0.05,0.2 h -0.05 l -0.4,0.05 q -0.35,0.25 -0.35,1 l 0.15,0.5 0.15,0.2 0.45,0.45 1.05,0.75 -0.9,0.25 -3.8,0.55 q -1.95,0 -2.9,-1 l -0.2,-0.2 1.5,0.35 1.45,0.35 q 2.2,0 3,-0.8 l -0.5,-0.15 -1.25,0.3 h -0.4 l 0.4,-0.4 q 0.45,-0.45 0.45,-1.1 0,-1.35 -3.05,-1.65 l -1.95,0.05 q -0.45,-0.7 -1.8,0 l 0.45,0.4 0.25,0.35 -0.25,1.6 q 0,1.05 0.6,1.9 l 0.35,0.35 -0.05,0.8 0.2,0.85 0.6,0.55 0.15,0.5 q 0.35,0.5 1.4,0.5 l 0.5,-0.1 q 0.75,0.65 1.8,0.65 0.45,0 0.9,-0.45 L -5.2,4.8 -2.45,4.7 h 0.05 0.6 L -1.95,4.65 -1.55,4.55 0,4.25 H 0.35 L 1.9,4.55 2.3,4.65 2.1,4.7 H 2.75 2.8 L 5.5,4.8 5.8,4.75 6.65,5.2 q 1.1,0 1.85,-0.65 l 0.45,0.1 q 1.1,0 1.45,-0.5 l 0.1,-0.5 0.65,-0.55 0.2,-0.85 -0.1,-0.8 0.1,-0.05 0.3,-0.3 q 0.6,-0.85 0.6,-1.9 L 12,-2.4 12.25,-2.75 12.7,-3.15 Q 11,-4 10.75,-2.7 l -2.7,-0.35 q -2.6,0.2 -3.3,1.15 L 4.5,-1.15 v 0.05 l 0.25,0.35 q 0.25,0.3 0.8,0.3 L 6,-0.35 5.7,-0.4 5.45,-0.3 v 0.05 Q 5.5,0.7 7.6,0.7 8.8,0.7 9.45,0.2 l 1.15,-0.4 -0.25,0.3 q -1,1 -2.95,1 L 3.65,0.55 2.75,0.3 3.8,-0.45 H 3.85 Q 4.55,-1.2 4.55,-1.6 L 4.45,-2.35 Q 4.3,-2.75 3.85,-2.65 M 0.5,-2 2.7,-1.7 h 0.05 0.8 Q 3.2,-1.2 2.3,-0.85 L 0.45,-0.05 0.15,0 -0.1,-0.05 -1.85,-0.8 -1.95,-0.85 -2.5,-1.1 -3.05,-1.6 -3.2,-1.7 h 0.4 L -0.1,-2 h 0.05 0.55 m 21.7,-7.3 q -0.5,0.4 -1.1,0.4 -1.4,0 -2.1,-0.85 l -0.45,-0.8 0.5,-0.35 0.25,0.3 0.55,0.55 h 0.05 q 0.55,0.8 1.85,0.8 L 22.2,-9.3 m 2.85,10.6 0.45,0.9 -0.05,0.05 -0.25,1.2 0.15,0.85 q 0.2,0.8 0.75,0.8 l 0.15,-0.05 -0.2,-0.7 0.05,0.05 q 0.5,0.85 1.5,0.85 h 0.15 Q 27.25,5.9 26.2,5.9 24.3,5.9 24.3,3.45 l 0.05,-0.85 0.7,-1.3 m 3.85,4.35 0.1,0.9 0.25,2.25 -0.05,1.1 -0.35,1.25 q -0.75,2.5 -2.4,4.55 l -1,1.15 Q 25,16.55 24.8,15.95 24.65,15.55 24.65,14.6 23.75,11.05 22.8,9.2 V 9.15 q 0.9,-0.45 1.1,-2.45 0.75,0.6 2.3,0.6 1.7,0 2.45,-1.25 l 0.25,-0.4 m 0.95,19.75 -0.25,0.85 -0.2,0.45 -0.35,-0.25 q -1.95,-1.1 -4.35,-1.15 -4,-0.05 -5.4,2.65 -0.6,-0.4 -0.9,-1.15 l -0.1,-1.15 v -0.3 l -0.2,0.15 0.1,-0.65 V 24.7 l 0.1,-1.2 -0.15,-1.6 q 1.55,-0.1 2.45,-2.05 -0.15,0.4 -0.15,0.9 L 20.2,21.8 q 0,0.35 0.5,0.75 l 0.2,-0.2 0.55,0.15 0.7,-0.35 1,-0.3 q 1.15,0.45 1.9,1.6 1.25,1.9 4.45,1.9 h 0.3 l 0.05,0.05 m -9,-6.15 L 21,18.8 21.6,15.55 V 15.4 14.5 l 0.1,1.95 q 0.25,1.5 1.25,1.5 h 0.2 q -1.65,0.1 -2.3,1.3 M 19.9,18.3 q -0.6,1.05 -1.6,1.95 l -0.5,0.4 -0.4,-0.8 q -1.3,-2.25 -4.35,-1.6 l -1.2,0.1 q 2.85,-1.55 3.8,-2.65 1.4,-1.4 2.2,-3.15 l 0.25,-0.5 -0.35,2.45 0.35,1.9 q 0.45,1.95 1.4,1.95 l 0.4,-0.05 m -3.25,7.6 -0.4,1 -0.45,1.05 -0.7,-0.6 Q 13.2,26 10.55,26.05 8.3,26.1 6.65,27.2 L 6.2,26 Q 5.55,24.95 5.55,23.35 5.55,22.4 6.65,21.2 L 7.3,20.5 7.75,20.3 7.7,20.5 7.75,20.95 7.7,21.1 7.8,21.45 q 0.15,0.7 0.8,0.7 L 8.85,22 l 1,0.15 1.8,1.35 q 3.2,2.4 4.95,2.4 h 0.05 M 14.3,4.9 14.2,4.75 14.45,4.5 14.3,4.9 M 4.4,12.75 4.3,12.6 H 4.35 L 4.4,12.75 M 6,16.25 5.95,16.4 H 5.65 V 16.3 L 5.6,15.6 6,16.25 m -9.05,-2.65 -0.1,-0.05 -0.35,-0.1 0.6,-0.2 -0.15,0.25 v 0.1 M 6.3,30 8,30.65 l 4.7,0.7 -0.3,0.1 L 12.05,32.5 12,32.7 H 9.2 L 8.55,31.75 q -0.6,-1 -1,-1.1 -0.15,0.4 -0.15,0.7 0,0.35 0.5,1.2 L 8,32.7 H 6.15 Q 5.6,32.2 5.6,31.75 L 6.3,30 m 6.5,1.35 q 2.25,0 3.05,-0.7 l 0.35,1.5 -0.05,0.55 h -3.1 l 0.1,-0.55 q 0,-0.8 -0.35,-0.8 m 8.25,-2.65 -0.1,0.55 q 0,0.6 1.6,1.2 l 4.45,0.6 h 0.4 q -0.55,0.6 -0.6,1.6 L 23.3,32.7 V 32.6 Q 23.3,32 22.75,31 22.3,30.05 22.3,31.6 l 0.1,0.95 v 0.15 h -2.15 l -0.2,-0.8 q 0,-1.15 0.75,-2.7 l 0.25,-0.5 m 7,2.3 q 0.8,-0.15 1.2,-0.6 h 0.05 l 0.6,-0.4 0.35,1.3 -0.05,0.6 -0.65,0.75 h -1.6 L 28,32.5 28.1,31.45 28.05,31 M -14.5,-20.7 q 1.1,-0.7 1.1,-2.65 l -0.15,-1.3 -0.15,-0.35 0.05,-0.15 0.1,-0.2 0.15,0.35 q 0.15,0.45 0.15,1.6 l -0.05,1.35 q -0.2,0.65 -1.15,1.35 h -0.05 m -8.35,9.45 q 0.35,0.25 0.85,0.4 l 0.3,0.35 0.85,0.45 h 1 l 0.55,-0.55 0.25,-0.3 0.45,0.35 -0.45,0.8 q -0.65,0.85 -2.05,0.85 -0.9,0 -1.45,-0.9 -0.4,-0.65 -0.4,-1.1 l 0.1,-0.35 m 11.7,0.85 0.55,0.35 q 1.8,1.1 4.65,1.1 1.65,0 3.4,-0.6 l 1.35,-0.5 0.2,0.45 q 0,0.75 -0.8,1.3 l -1.15,0.35 -2.8,0.4 q -3.2,0 -4.7,-1.7 l -0.7,-1.15 m -4.25,-1.05 q -2.45,-0.25 -3.3,-2.05 -0.55,-1 -0.55,-2.8 l 0.25,-2.1 0.2,-0.55 0.65,1.1 -0.15,1.05 0.75,2.7 q 0.85,2.35 2.15,2.65 m -5.55,25.45 0.4,-1.05 q 0.4,-1 1.7,-2.3 l 0.6,0.4 1.5,2.35 -1.35,-0.25 q -1.55,0 -2.75,0.95 V 14 h -0.1 m 6.9,1.95 0.65,0.4 0.1,0.05 h -0.15 q -2.85,-0.1 -4.7,1.15 -2.1,1.55 -2.1,4.35 l 0.25,1.05 -0.8,-0.4 q -1.3,-0.75 -1.8,-1.7 l 1.45,-1.4 1.4,-1.75 q 1.55,-1.05 4.05,-1.25 1.25,-0.05 1.65,-0.5 m -4.05,3.65 -0.1,0.65 q 0,1 2.05,1.15 h 3.8 q 2.9,-0.4 3.4,-1.55 0.6,0.8 0.6,1.85 0,1.25 -1.6,2.05 l 0.1,-0.85 q 0,-0.35 -0.35,-0.85 -0.35,0.1 -0.5,0.7 l -0.2,0.75 -0.65,0.85 -2.8,0.35 h -0.1 l -0.25,-0.25 q -0.8,-1 -0.8,-1.35 -0.45,-1.15 -0.7,-0.95 -0.2,0.15 -0.2,0.95 l 0.4,1.4 0.05,0.05 q -2.75,-0.45 -2.75,-2.7 0,-1.35 0.6,-2.25 m 12.2,-3.2 0.3,-0.5 -0.05,0.4 v 0.1 H -5.9 m 1.5,-3.7 v -0.1 h 0.1 l -0.1,0.1 m -25.65,11.8 0.95,0.2 2.1,-0.3 q 1.35,-0.5 2.3,-1.6 l 0.7,-0.9 0.4,0.65 q 0.7,1.1 1.55,1.6 v 0.05 0.7 l -0.35,0.7 -2.35,-0.3 -2.25,0.35 q -1.05,0.25 -2.05,0.8 l -0.35,0.25 -0.2,-0.45 -0.45,-1.75 m 8.1,3.1 q 0.65,0.5 1.15,1.6 0.75,1.55 0.75,2.7 l -0.2,0.8 h -2.2 v -0.15 l 0.15,-0.95 q 0,-1.55 -0.5,-0.6 l -0.5,1.6 v 0.1 l -3.5,-0.05 -0.2,-0.9 -0.45,-0.7 q -0.65,-0.6 -0.65,0.4 l 0.1,1.05 0.05,0.15 h -1.6 l -0.65,-0.75 -0.05,-0.6 0.2,-1 0.75,-0.25 1.05,0.3 1.25,0.3 h 0.55 l 2.8,-0.4 q 2,-0.55 2,-1.45 l -0.3,-1.2"
         fill="#999999"
         fill-rule="evenodd"
         stroke="none"
         id="path9" />
      <path
         d="m 15.1,-11.4 q -0.65,-0.45 -0.65,-1.35 0,-2.4 2.4,-3.95 1.05,-0.7 1.7,-1.7 v 0.65 q -1.85,6.1 -3.45,6.35 m 4.2,39.35 -0.3,0.6 H 18.95 L 19,28.6 18.75,29.35 18.6,29.9 q -0.15,0.95 -0.15,2.05 l 0.1,0.75 h -1.5 V 32.55 L 17.1,31.4 16.95,29.95 16.6,29.05 17,28.7 l 0.75,-1.55 0.1,-0.65 0.2,-0.8 0.05,-0.2 0.2,-0.15 v 0.3 l 0.1,1.15 q 0.3,0.75 0.9,1.15 M 7.3,20.5 7.75,19.95 7.7,19.7 6,20.65 5.55,21.05 4.7,22.3 Q 4.35,22.95 4.3,24 v 0.5 l -0.05,0.65 0.6,2.05 0.45,1.25 Q 4,30 4,32.3 l 0.15,0.4 h -7 q 0.35,-0.65 0.35,-1.8 0,-1.55 -1,-3.05 -1.05,-1.55 -2.5,-1.4 l -1.5,-1.9 0.1,-0.1 q 0.7,-0.8 0.75,-2.8 V 21.3 21.15 Q -6.7,19.35 -8.5,18 l 2.5,0.2 h 2.35 q -0.45,0.9 -0.45,2.3 l 0.85,1.6 q 1.25,1.55 3.1,1.55 h 0.3 Q 2,23.65 3.2,22.1 l 0.85,-1.6 v -0.1 l -0.1,-1.15 -0.35,-1 V 18.2 h 0.35 0.2 1 0.8 l 1.15,-0.05 1.85,-0.2 2.15,-0.5 q 3.35,-1.15 5.55,-4 l 1.55,-2.4 -0.1,1 -0.25,0.5 q -0.8,1.75 -2.2,3.15 -0.95,1.1 -3.8,2.65 -1.5,0.1 -2.65,0.65 -1.35,0.6 -1.45,1.3 L 7.3,20.5 M 14.3,4.9 13.2,6.65 12.5,7.7 11.85,8.5 10.9,9.2 Q 9.4,10.1 6.85,10.6 L 6.7,10.45 Q 6.25,10 6.25,9.5 6.25,8.75 6.5,8.25 6.65,7.85 7.15,7.35 h 1.4 q 1.7,-0.25 3.4,-1.1 L 13.9,5.05 14.15,4.8 14.2,4.75 14.3,4.9 m -17.05,6 0.15,-0.25 0.05,-0.7 V 8.5 L -2.35,7.95 -2.2,8 q 1.05,1.1 2.05,1.3 H 0 0.15 V 9.25 Q 1.15,9.1 2.2,8 L 2.35,7.95 2.5,8.5 v 1.45 q 0,0.65 0.3,1.1 H 0.5 0.4 L 0,11.1 -0.4,11.05 h -1.8 -0.45 l -0.1,-0.15 m 0.55,7.8 h -0.15 l 0.15,-0.2 v 0.15 0.05 m -15.95,-36.55 1.3,1.15 q 2.4,1.55 2.4,3.95 0,0.9 -0.7,1.35 l -0.25,-0.05 q -1.3,-0.3 -2.15,-2.65 l -0.75,-2.7 0.15,-1.05 m 3.8,22.5 0.2,0.15 2.2,1.45 q 1.7,0.85 3.35,1.1 h 1.45 l 0.4,0.45 0.25,0.45 q 0.25,0.5 0.25,1.25 0,0.5 -0.5,0.95 l -0.1,0.15 q -2.6,-0.5 -4.1,-1.4 -0.9,-0.55 -1.45,-1.4 l -0.1,-0.1 -0.75,-1.05 -1.2,-2 h 0.1 m -7.7,19.5 1.1,0.45 0.1,0.05 0.45,0.05 0.4,0.05 -1.1,1.3 -0.15,-0.05 -0.45,-0.2 -0.05,-0.05 -0.5,-0.15 h -0.15 l 0.35,-0.7 v -0.7 -0.05 m 16.8,4.55 q 0.25,0.2 0.4,0.75 v 0.3 l -0.4,-0.95 v -0.1 m -13.25,3.85 0.05,-0.6 v -0.1 l -0.1,-1.25 -0.05,-0.4 0.5,0.9 0.1,0.25 0.2,0.8 0.15,0.45 -0.05,0.1 h -0.75 l -0.05,-0.15 m 11.95,0.15 q 0.35,-0.55 0.55,-1.35 0.35,-1.05 0.4,-2.2 0.45,0.85 0.45,1.8 0,0.65 -0.5,1.4 L -5.9,32.7 h -0.65"
         fill="#7b7b7b"
         fill-rule="evenodd"
         stroke="none"
         id="path10" />
      <path
         d="m 17.6,6.45 q -0.3,0.4 -1,0.45 H 16.35 16.3 Q 15.4,6.85 15.4,6.05 L 15.5,5.7 q 0.45,0.75 0.9,0.9 l 0.05,0.05 h 0.15 l 0.95,-0.2 h 0.05 m -2.1,2.9 -0.05,0.25 q 0,0.25 0.35,0.75 l 0.1,0.3 0.45,0.6 -0.4,0.55 -0.85,0.95 -0.3,0.25 v -0.05 l 0.05,-0.8 -0.1,-1 L 14.7,10.75 14.15,9.9 14.05,9.85 13.95,9.8 13.55,9.55 13.1,9.5 H 12.6 L 13.15,8.95 13.55,8.5 13.7,8.35 13.95,8 14.7,7 l 0.4,0.35 0.2,0.2 0.75,0.3 h 0.35 0.1 0.35 L 17.2,7.75 17.6,7.6 17.55,8 17.25,7.9 H 16.9 L 16.6,7.95 16.4,8 15.9,8.2 q -0.45,0.2 -0.45,0.7 v 0.15 0.1 l 0.05,0.2 m -1.85,3.9 q -0.3,0.45 -0.9,0.45 -0.9,0 -1.4,-0.45 l -0.1,-0.15 -0.3,-0.5 -0.1,-0.4 v -0.05 q 0,-0.45 0.25,-0.75 l 0.05,0.25 0.1,0.25 0.15,0.3 0.45,0.55 0.15,0.2 1.25,0.35 0.4,-0.05 M 10.2,12.15 9.7,12 8.8,11.85 8.35,11.8 10.05,11.2 Q 10.2,11.05 10.4,11 l -0.2,1.15 M 17.15,9.6 16.75,10.55 16.7,10.5 16.25,9.9 16.2,9.7 h 0.15 0.05 l 0.55,-0.05 0.2,-0.05 m -10.6,4.2 1.45,0.4 0.85,0.4 0.65,0.35 0.2,0.15 0.5,0.2 v 0.05 L 7.3,16.1 V 16 L 6.65,14.05 6.55,13.85 V 13.8 m -3.7,-0.55 0.65,0.2 -0.35,0.1 -0.3,0.1 0.05,-0.3 -0.05,-0.1 m -1.45,1 -0.45,0.35 -0.8,0.2 H -0.8 V 14.75 Q -1,14.5 -1.35,14.3 l 1.1,0.05 1.65,-0.1 m 2.05,1.4 0.5,0.2 0.3,0.1 -0.3,0.2 L 3.2,16.5 3.05,16.55 2.65,16.8 H 2.55 2.5 2.35 Q 1.65,16.45 0.75,16.45 H 0.3 L 0,16.5 -0.3,16.45 Q -1.5,16.4 -2.25,16.8 l -0.5,-0.1 -0.3,-0.15 -1.2,-0.6 0.4,-0.15 0.3,0.25 L -1,16.2 1.1,16.15 2.3,16.05 2.5,16 3.45,15.65 M -2,12.95 -1.8,12.85 -1.05,12.6 0,12.4 l 1.05,0.2 0.7,0.25 0.35,0.1 -2.15,-0.1 -1.95,0.1 m 5.35,1.65 0.05,-0.05 0.55,-0.2 0.2,-0.1 0.25,-0.2 0.2,0.3 V 14.4 L 4.75,14.9 4.8,15.25 4.15,14.9 3.95,14.85 H 3.85 L 3.6,14.75 3.35,14.6 M -1.5,18.05 -1.8,18.7 H -2.2 V 18.65 18.5 l 0.4,-0.4 0.3,-0.05 m 3.95,1.2 H 2.5 V 19.7 L 1.8,20.9 Q 0.95,21.8 0.05,21.8 -1,21.75 -1.8,20.9 -2.55,20.15 -2.55,19.7 v -0.05 l 0.7,-0.15 0.35,0.75 q 0.5,0.65 1.65,0.65 1.35,0 1.95,-1 l 0.35,-0.65 m 8.8,-5.2 0.9,0.3 h 0.05 0.45 0.1 l -1.05,0.5 -0.2,-0.3 -0.15,-0.2 -0.1,-0.15 v -0.15 m -19.6,-2.25 -0.45,0.05 -1.4,0.3 -0.2,-1.15 2.05,0.8 m -9.4,-5.9 q 0.4,0.5 1.2,0.5 0.5,0 0.8,-0.75 l 0.1,-0.15 0.25,0.55 q 0,0.85 -0.95,0.85 -1.1,0 -1.35,-0.65 L -17.75,5.9 m 0.65,3.7 0.6,0.65 -0.25,0.25 v 0.05 L -17.1,9.6 M -17.55,8 V 7.8 l -0.05,-0.2 0.65,0.2 0.55,0.05 0.45,-0.05 0.85,-0.45 0.35,-0.35 0.6,0.8 0.45,0.55 1.1,1.15 q -2.25,-0.2 -2.25,2.65 l 0.05,0.85 -1.15,-1.2 -0.4,-0.55 0.4,-0.6 0.45,-1.05 q 0,-0.6 -0.3,-1 L -16.45,8.15 -17.1,8 h -0.45 m 3.85,5.05 0.85,0.15 q 1.15,0 1.85,-0.95 l 0.1,-0.1 -0.1,0.45 -0.3,0.5 q -0.45,0.6 -1.45,0.6 -0.75,0 -0.95,-0.65 m 7.6,-0.15 -0.35,0.7 Q -6.9,14.75 -6.9,16 v 0.2 l -3.3,-0.85 0.05,-0.1 0.35,0.15 3.7,-2.5 m -6.55,1.45 1.35,-0.3 v 0.15 l -0.45,0.65 -1,-0.5 h 0.1 m 9.2,0.35 -0.7,0.2 -0.7,0.35 0.05,-0.35 0.35,-0.85 1.05,0.5 0.1,0.05 -0.15,0.1"
         fill="#af9f95"
         fill-rule="evenodd"
         stroke="none"
         id="path11" />
      <path
         d="M 15.5,5.7 15.8,5.35 V 5.3 L 16,5 16.2,4.55 V 4.3 L 15.95,4.25 h -0.1 V 4 l 0.8,0.4 0.45,0.15 q 0.65,0.2 0.65,0.65 V 5.5 L 17.7,6.25 17.65,6.4 17.55,6.45 16.6,6.65 H 16.45 L 16.4,6.6 Q 15.95,6.45 15.5,5.7 M 17.55,8 H 17.25 17.1 L 16.95,8.05 Q 16.3,8.1 16,8.4 l -0.15,0.15 q -0.3,0.3 -0.35,0.8 L 15.45,9.15 V 9.05 8.9 q 0,-0.5 0.45,-0.7 L 16.4,8 16.6,7.95 16.9,7.9 h 0.35 l 0.3,0.1 m -6.45,3.4 0.1,-0.15 q 0.35,-0.45 1.2,-0.6 h 0.05 0.65 l 0.25,0.1 q 0.35,0.25 0.5,0.85 l 0.05,0.2 v 0.4 l -0.2,0.95 -0.05,0.1 -0.4,0.05 L 12,12.95 11.85,12.75 11.4,12.2 11.25,11.9 11.15,11.65 11.1,11.4 M 16.2,9.7 V 9.6 Q 16.2,9 17,8.95 L 17.25,8.9 h 0.1 L 17.15,9.6 16.95,9.65 16.4,9.7 H 16.35 16.2 m -9.65,4.1 -0.1,-0.2 -0.5,-0.9 0.45,0.1 2.55,0.75 0.5,0.3 0.05,0.05 0.1,0.25 0.1,0.3 0.3,0.6 0.2,0.25 L 9.7,15.1 9.5,14.95 8.85,14.6 8,14.2 6.55,13.8 M 5.6,15.6 5.5,15.15 5.1,13.95 4.4,12.75 4.35,12.6 l 0.6,-0.05 0.35,0.55 0.5,1 0.05,0.15 0.2,1.65 L 6,16.25 5.6,15.6 m -2.75,-2.35 0.05,0.1 -0.05,0.3 Q 2,13.85 1.4,14.25 l -1.65,0.1 -1.1,-0.05 q -0.7,-0.5 -1.7,-0.7 v -0.1 l 0.15,-0.25 0.75,-0.3 H -2 l 1.95,-0.1 2.15,0.1 0.75,0.3 M 0.95,14.6 0.8,14.75 Q 0.9,15 1.3,15 L 1.85,14.95 2.8,15.4 3.45,15.65 2.5,16 2.3,16.05 1.1,16.15 -1,16.2 -3.55,16.05 -3.85,15.8 -2.8,15.4 -1.85,14.95 -1.3,15 -0.8,14.8 h 0.95 l 0.8,-0.2 m -2.45,3.45 1.35,-0.1 H -0.1 L 0,17.9 0.15,17.95 1.8,18.1 2.4,18.75 h -3.3 l -0.9,-0.05 0.3,-0.65 m 3.95,1.2 -0.35,0.65 q -0.6,1 -1.95,1 -1.15,0 -1.65,-0.65 L -1.85,19.5 -0.9,19.25 H 2.45 M -17.75,5.9 -17.8,5.5 V 5.2 q 0,-0.45 0.7,-0.65 l 1,-0.4 0.2,-0.15 v 0.25 h -0.05 L -16.2,4.3 v 0.25 l 0.4,0.75 0.15,0.2 -0.1,0.15 q -0.3,0.75 -0.8,0.75 -0.8,0 -1.2,-0.5 m 0.65,3.7 -0.25,-0.7 h 0.1 q 1.05,0 1.05,0.7 l -0.3,0.65 -0.6,-0.65 m 3.4,3.45 -0.2,-0.85 q 0,-1.85 1.5,-1.55 1.5,0.3 1.5,1.5 l -0.1,0.1 q -0.7,0.95 -1.85,0.95 l -0.85,-0.15 m 7.6,-0.15 -3.7,2.5 -0.35,-0.15 0.45,-0.8 0.25,-0.6 q 0.6,-0.5 3.05,-1.05 l 0.4,-0.1 -0.1,0.2 m 0.2,3.5 H -6 l -0.05,-0.5 0.25,-1.8 0.85,-1.55 0.55,0.05 v 0.1 l -0.75,1.25 Q -5.6,14.9 -5.6,15.9 l -0.3,0.5"
         fill="#cbb5a7"
         fill-rule="evenodd"
         stroke="none"
         id="path12" />
      <path
         d="m -8.3,26 q 1.15,1.35 1.15,2.75 0,1.5 -1.25,3.1 l -0.75,0.85 h -6.4 l 0.15,-1.1 q 0,-2.05 -2.4,-2.95 -0.85,-0.35 -1.3,-0.4 l -0.35,-0.6 q 0.05,-0.9 0.65,-1.95 l 0.2,-0.4 q 1.35,0.9 3.55,0.9 4.05,0 6.15,-0.8 l 0.6,0.6"
         fill="#948679"
         fill-rule="evenodd"
         stroke="none"
         id="path13" />
      <path
         d="m -4.85,29.75 v -0.3 Q -5,28.9 -5.25,28.7 L -5.6,28.3 -5.7,27.25 q 0.9,0.65 1.55,1.65 0.7,1.25 0.7,2.65 0,0.4 -0.85,1.05 l -0.1,0.1 h -0.9 l 0.05,-0.15 0.4,-0.4 0.2,-1.15 -0.2,-1.25 m -13.1,0.15 -0.65,-0.65 0.5,0.2 q 2.05,0.8 2.05,2.15 l -0.2,1.1 h -1.1 l 0.1,-0.9 q 0,-0.85 -0.7,-1.9"
         fill="#807367"
         fill-rule="evenodd"
         stroke="none"
         id="path14" />
      <path
         d="M 31.55,21.9 Q 31.2,20.3 30.85,19.65 L 29.65,18.35 27.7,17.2 27.65,16.8 28.8,15 q 1.2,-2.25 1.7,-4.6 0.7,-3.15 0.7,-7.7 0,-1.85 -0.6,-3.55 -1.2,-3.25 -4.2,-3.25 l -1.1,0.15 -0.25,-1.15 q 0,-0.7 0.6,-1.75 0.6,-1.1 0.6,-2.25 0,-3.45 -1.25,-6.15 -1.4,-2.85 -4.45,-5.45 V -22 q 0,-1.1 -1.45,-1 h -0.15 q 0,-2.75 -1.2,-5.2 -2.1,-4.5 -7.25,-4.5 l -2.3,0.2 -1.35,0.2 q -0.2,0 -1.5,-1.1 -1.25,-1.1 -3.5,-1.1 l -1.8,0.2 -1.9,-0.2 q -2.25,0 -3.5,1.1 -1.3,1.1 -1.5,1.1 l -1.35,-0.2 -2.35,-0.2 q -5.1,0 -7.25,4.5 -0.8,1.6 -1,3.35 l -0.3,0.75 0.15,0.35 L -19,-23 h -0.1 q -1.45,-0.1 -1.45,1 v 1.3 q -3.1,2.6 -4.45,5.45 -1.3,2.7 -1.3,6.15 0,1.15 0.65,2.25 0.55,1.05 0.55,1.75 l -0.25,1.3 -0.25,2.2 q 0,1.6 0.55,3 v 0.05 q 0.25,1.15 0.85,1.45 1.55,2.15 4.4,2.2 -1.3,1.2 -2.25,2.7 l -0.8,1.4 q -0.9,1.85 -1.85,5.4 l -0.1,1.35 q -0.35,1.05 -1.45,1.2 L -27,17.1 l -0.6,0.05 q -1.1,0.4 -2.1,1.2 l -1.2,1.3 q -0.4,0.75 -0.7,2.65 l -0.25,2.8 0.85,2.9 -0.55,1.45 q -0.55,1.25 -0.55,2.6 0,1.5 2.1,2.45 h 9.15 0.25 0.35 40.5 0.35 0.25 9.15 q 2.1,-0.95 2.1,-2.45 0,-1.35 -0.55,-2.6 L 31,28 31.85,25.1 V 24.85 L 31.55,22.3 V 21.9 M 22.5,4.45 q -1.15,0.6 -2.7,0.65 l 1.85,2.15 0.55,-0.7 0.15,-0.5 q 0,-0.85 0.15,-1.6 z"
         fill="none"
         stroke="#6b6b6b"
         stroke-linecap="round"
         stroke-linejoin="round"
         stroke-width="1"
         id="path15" />
    </g>
    <g
       id="sprite2"
       transform="translate(660.25,0.5)">
      <use
         ffdec:characterId="68"
         height="1.5"
         transform="translate(-660.25,-0.5)"
         width="1320.3"
         xlink:href="#shape2"
         id="use15" />
    </g>
    <g
       id="shape2"
       transform="translate(660.25,0.5)">
      <path
         d="m 659.3,-0.5 0.55,0.25 0.2,0.5 -0.2,0.55 L 659.3,1 H -659.5 l -0.5,-0.2 -0.25,-0.55 0.25,-0.5 0.5,-0.25 H 659.3"
         fill="#ffff00"
         fill-opacity="0"
         fill-rule="evenodd"
         stroke="none"
         id="path16" />
    </g>
    <g
       id="sprite3"
       transform="translate(5.4,4)">
      <use
         ffdec:characterId="43"
         height="8"
         transform="translate(-5.4,-4)"
         width="10.8"
         xlink:href="#shape3"
         id="use16" />
    </g>
    <g
       id="shape3"
       transform="translate(5.4,4)">
      <path
         d="m 2.9,-0.35 q 0,-1.25 1.25,-1.25 1.25,0 1.25,1.2 0,1.3 -1.25,1.3 Q 3.6,0.9 3.25,0.5 2.9,0.15 2.9,-0.35 m 0.35,-2.3 q 0,0.55 -0.35,0.9 -0.4,0.45 -1,0.45 -1.35,0 -1.35,-1.4 0,-1.3 1.35,-1.3 1.35,0 1.35,1.35 m -3.1,1.9 h 0.2 q 2.6,0.1 2.6,2.8 l -0.3,1 Q 2.05,4 0.45,4 H 0.35 0.15 0.1 -0.45 q -1.6,0 -2.2,-0.95 l -0.3,-1 q 0,-2.8 2.8,-2.8 h 0.3 M -1.55,-4 q 1.35,0 1.35,1.35 0,0.55 -0.4,0.9 -0.4,0.45 -0.95,0.45 -1.4,0 -1.4,-1.4 0,-1.3 1.4,-1.3 m -2.6,2.4 q 1.25,0 1.25,1.25 0,0.5 -0.35,0.85 -0.35,0.4 -0.9,0.4 -1.25,0 -1.25,-1.3 0,-1.2 1.25,-1.2"
         fill="#6b6b6b"
         fill-rule="evenodd"
         stroke="none"
         id="path17" />
    </g>
    <g
       id="sprite4"
       transform="translate(5.4,4)">
      <use
         ffdec:characterId="43"
         height="8"
         transform="translate(-5.4,-4)"
         width="10.8"
         xlink:href="#shape3"
         id="use17" />
    </g>
  </defs>
</svg>
