<?xml version="1.0" encoding="UTF-8" standalone="no"?>
<svg
   ffdec:objectType="frame"
   height="40"
   width="58.102631"
   version="1.1"
   id="svg23"
   sodipodi:docname="2.svg"
   xmlns:inkscape="http://www.inkscape.org/namespaces/inkscape"
   xmlns:sodipodi="http://sodipodi.sourceforge.net/DTD/sodipodi-0.dtd"
   xmlns:xlink="http://www.w3.org/1999/xlink"
   xmlns="http://www.w3.org/2000/svg"
   xmlns:svg="http://www.w3.org/2000/svg"
   xmlns:ffdec="https://www.free-decompiler.com/flash">
  <sodipodi:namedview
     id="namedview23"
     pagecolor="#ffffff"
     bordercolor="#000000"
     borderopacity="0.25"
     inkscape:showpageshadow="2"
     inkscape:pageopacity="0.0"
     inkscape:pagecheckerboard="0"
     inkscape:deskcolor="#d1d1d1"
     fit-margin-top="5"
     fit-margin-left="5"
     fit-margin-right="5"
     fit-margin-bottom="5" />
  <g
     transform="translate(29.052632,20.1)"
     id="g6">
    <use
       ffdec:characterId="2069"
       height="14.45"
       transform="translate(-27.35,-20.1)"
       width="54.75"
       xlink:href="#sprite0"
       id="use1" />
    <use
       ffdec:characterId="2075"
       height="54"
       transform="translate(-15.15,-34.95)"
       width="30.799999"
       xlink:href="#sprite1"
       id="use2" />
    <use
       ffdec:characterId="2076"
       height="25.85"
       transform="translate(-29.05,-5.95)"
       width="58.099998"
       xlink:href="#shape3"
       id="use3" />
    <use
       ffdec:characterId="1691"
       height="8"
       transform="matrix(0.8889,0,0,0.8889,16.8,8.8945)"
       width="10.8"
       xlink:href="#sprite4"
       id="use4" />
    <use
       ffdec:characterId="1977"
       height="2.3"
       transform="rotate(180,-11.1,7.225)"
       width="2.55"
       xlink:href="#sprite5"
       id="use5" />
    <use
       ffdec:characterId="1979"
       height="2.3"
       transform="rotate(180,-11.1,4.775)"
       width="2.55"
       xlink:href="#sprite6"
       id="use6" />
  </g>
  <defs
     id="defs23">
    <g
       id="sprite0"
       transform="translate(27.35,7.25)">
      <use
         ffdec:characterId="2068"
         height="14.45"
         transform="translate(-27.35,-7.25)"
         width="54.75"
         xlink:href="#shape0"
         id="use7" />
    </g>
    <g
       id="shape0"
       transform="translate(27.35,7.25)">
      <path
         d="m 8.35,-3.05 h 0.3 v 1.1 1.25 h -17.3 v -1.25 -1.1 h 0.4 0.2 l 4.55,0.15 h 7 l 4.6,-0.15 h 0.25 m 1.9,0.35 v -2.1 l 0.6,0.1 v 0.05 l 1.05,0.1 H 12 l 2.75,0.05 -0.1,1.85 H 10.6 L 10.25,-2.7 M -14,-4.5 h 0.7 l 1.4,-0.05 0.9,-0.05 h 0.15 v -0.1 l 0.6,-0.1 0.05,2.4 -0.65,0.1 v 0.05 h -1.05 -0.2 -2.55 l -0.05,-2.1 0.7,-0.15"
         fill="#bababa"
         fill-rule="evenodd"
         stroke="none"
         id="path7" />
      <path
         d="M 8.35,-3.05 H 8.1 L 3.5,-2.9 h -7 l -4.55,-0.15 h -0.2 l -0.4,-0.05 v 0.05 1.1 1.25 l 0.05,3.25 0.05,1.3 4.5,0.05 2.6,-0.05 0.7,-0.05 V 3.75 L -0.4,3.7 V 3.65 H 0 0.4 V 3.7 l 0.75,0.1 v 0.05 l 0.7,0.05 h 2.2 L 8.55,3.85 8.6,2.55 V 1.9 h 0.05 v -2.6 -1.25 -1.1 -0.05 l -0.3,0.05 M 8.2,-5.1 Q 8.3,-5.6 8.55,-6 v -0.05 q 0,-0.95 2.3,-1.15 v -0.05 h 0.95 0.1 0.1 0.05 q 4.55,0.15 4.55,1.75 l -0.15,0.6 0.2,2.9 -0.05,3.9 H 16.55 Q 16.3,5.35 15.65,5.35 H 15.6 L 15.2,5.7 h -0.1 l 0.05,0.65 V 7 H 25 l 2.4,0.2 H -27.35 L -25,7 h 9.85 V 6.35 L -15.1,5.7 h -0.1 l -0.4,-0.35 h -0.05 q -0.65,0 -0.9,-3.45 h -0.05 l -0.05,-3.9 0.2,-2.9 -0.15,-0.6 q 0,-1.6 4.55,-1.75 h 0.15 0.15 0.9 v 0.05 q 2.3,0.2 2.3,1.15 V -6 q 0.25,0.4 0.35,0.9 H 8.2 m 6.45,2.45 0.1,-1.85 L 12,-4.55 h -0.1 l -1.05,-0.1 V -4.7 l -0.6,-0.1 v 2.1 L 10.2,0.35 V 0.5 L 10.15,1.9 H 10.1 L 9.9,3.85 14.05,3.8 14.9,3.85 14.7,1.9 H 14.65 V 0.5 -1.9 -2.65 M -0.75,7 H 13.1 V 6.9 6.3 L 13.15,5.7 4.05,5.65 1.85,5.7 1.15,5.75 V 5.8 L 0.4,5.85 V 5.9 H 0 -0.4 V 5.85 H -0.75 V 5.75 L -1.45,5.7 -3.85,5.65 h -0.2 l -9.1,0.05 0.05,0.6 V 7 h 12.35 m -9.45,-9.4 -0.05,-2.4 -0.6,0.1 v 0.1 H -11 l -0.9,0.05 -1.4,0.05 h -0.7 -0.75 l 0.05,0.15 0.05,2.1 v 0.35 l 0.05,2.4 -0.05,1.4 h -0.05 l -0.2,1.95 0.85,-0.05 4.15,0.05 -0.15,-1.95 h -0.1 L -10.2,0.5 V 0.35 -2.4"
         fill="#9a9a9a"
         fill-rule="evenodd"
         stroke="none"
         id="path8" />
      <path
         d="M -8.65,-0.7 H 8.65 V 1.9 H 8.6 V 2.55 L 8.55,3.85 4.05,3.9 H 1.85 L 1.15,3.85 V 3.8 L 0.4,3.7 V 3.65 H 0 -0.4 V 3.7 L -0.75,3.75 V 3.8 L -1.45,3.85 -4.05,3.9 -8.55,3.85 -8.6,2.55 -8.65,-0.7 m 18.9,-2 0.35,0.05 h 4.05 V -1.9 0.5 1.9 H 14.7 L 14.9,3.85 14.05,3.8 9.9,3.85 10.1,1.9 h 0.05 L 10.2,0.5 V 0.35 L 10.25,-2.7 M 13.1,6.9 12.8,6.95 H -0.75 V 7 H -13.1 V 6.3 l -0.05,-0.6 9.1,-0.05 h 0.2 l 2.4,0.05 0.7,0.05 v 0.1 H -0.4 V 5.9 H 0 0.4 V 5.85 L 1.15,5.8 V 5.75 L 1.85,5.7 4.05,5.65 13.15,5.7 13.1,6.3 V 6.9 M -10.2,-2.4 V 0.35 0.5 l 0.05,1.4 h 0.1 L -9.9,3.85 -14.05,3.8 -14.9,3.85 -14.7,1.9 h 0.05 l 0.05,-1.4 -0.05,-2.4 v -0.35 h 2.55 0.2 1.05 V -2.3 l 0.65,-0.1"
         fill="#acacac"
         fill-rule="evenodd"
         stroke="none"
         id="path9" />
      <path
         d="M 13.1,6.9 V 7 H -0.75 V 6.95 H 12.8 L 13.1,6.9"
         fill="#a1a1a1"
         fill-rule="evenodd"
         stroke="none"
         id="path10" />
    </g>
    <g
       id="sprite1"
       transform="translate(15.4,41.8)">
      <use
         ffdec:characterId="2074"
         height="32.400002"
         transform="matrix(1,0,0,0.8553,-14,-15.5566)"
         width="28"
         xlink:href="#sprite2"
         id="use10" />
    </g>
    <g
       id="sprite2"
       transform="translate(14,16.2)">
      <use
         ffdec:characterId="2071"
         height="32.400002"
         transform="translate(-14,-16.2)"
         width="28"
         xlink:href="#shape1"
         id="use11" />
      <use
         ffdec:characterId="2073"
         height="26.85"
         transform="translate(-10,-12.45)"
         width="19.549999"
         xlink:href="#sprite3"
         id="use12" />
    </g>
    <g
       id="shape1"
       transform="translate(14,16.2)">
      <path
         d="m 11.95,-14.5 -0.1,3.25 -0.05,22.2 v 2 l 0.2,1.2 H -7 q -3.15,-0.1 -4.8,0.1 v -2.1 l -0.05,-3.9 -0.05,-10.8 h -0.05 V -5.4 L -12,-5.5 v -4 l 0.25,-4.15 v -0.65 l 17.4,-0.05 6.3,-0.15"
         fill="#cccccc"
         fill-rule="evenodd"
         stroke="none"
         id="path12" />
      <path
         d="m 12.35,-15.95 0.15,0.05 0.4,0.1 q 0.85,0.4 0.6,1.65 l 0.15,2.95 0.05,8.65 v 2.8 l 0.05,12.8 v 1.05 l -0.05,0.3 0.3,0.75 q 0,0.9 -0.95,0.9 L -7,16.1 -12.3,16 q -0.2,0.2 -0.45,0.2 -1,0 -1,-1.05 L -13.7,14.9 -13.6,0.25 V -1.1 -2.55 h 0.05 v -2.9 l 0.05,-0.05 v -3.95 q 0.1,-1.05 -0.45,-3.9 -0.2,-2.45 1.05,-2.75 h 0.15 l 0.4,-0.1 h 18 l 6.7,0.25 m -0.4,1.45 -6.3,0.15 -17.4,0.05 v 0.65 L -12,-9.5 v 4 l 0.05,0.1 v 2.85 h 0.05 l 0.05,10.8 0.05,3.9 v 2.1 q 1.65,-0.2 4.8,-0.1 h 19 l -0.2,-1.2 v -2 l 0.05,-22.2 0.1,-3.25"
         fill="#6b6b6b"
         fill-rule="evenodd"
         stroke="none"
         id="path13" />
    </g>
    <g
       id="sprite3"
       transform="translate(9.8,13.4)">
      <use
         ffdec:characterId="2072"
         height="26.85"
         transform="translate(-9.8,-13.4)"
         width="19.549999"
         xlink:href="#shape2"
         id="use13" />
    </g>
    <g
       id="shape2"
       transform="translate(9.8,13.4)">
      <path
         d="M 4.05,5.05 3.65,5.7 3.6,6.95 3.65,8.1 4.35,9.65 4.25,9.7 Q 2.95,9.7 3.1,6.95 L 3.2,5.45 Q 3.4,4.8 4.1,4.6 L 3.9,4.2 4.05,3.7 4.6,4.1 5.2,4.75 Q 7.5,4.6 7.5,3.25 L 6.85,1.95 6.2,0.65 q 0,-1.4 1,0.55 L 8.55,0.4 8.05,-0.2 Q 8.6,-0.3 8.9,0.05 l 0.15,-0.8 -0.3,-1.1 Q 8.25,-2.6 7.15,-2.5 L 6.7,-2.2 Q 6.4,-2.2 6.15,-3.05 5.95,-3.9 3.8,-3.9 H 3.7 l -0.5,0.55 q 3,-0.45 3,1.5 l -0.15,0.6 H 5.85 L 5.75,-2.1 q -0.4,-0.75 -2,-0.75 -1.55,0 -2.9,1 -1.45,1 -1,2.15 -0.5,0.1 -0.5,-0.75 l 0.1,-0.6 -0.1,0.15 -0.45,-1 q -0.35,-0.9 -1.75,-0.9 -1.7,0 -2.55,1.1 l -0.3,-0.35 q 0,-1.2 2.65,-1.5 h 0.2 L -3,-3.75 -4.4,-3.95 q -1.15,0 -1.6,1 l -0.2,1.1 q 0,0.4 -0.75,0.4 -0.45,0 -0.55,-0.5 L -7.6,-1.9 Q -9,-1.2 -9,-0.3 l 0.2,0.5 0.25,0.2 0.3,-0.1 0.05,-0.05 V 0.4 l -0.1,0.25 0.35,0.3 q 0.5,-0.8 1.8,-1.3 l 0.1,0.25 -0.8,0.8 q -0.8,0.8 -0.8,1.35 0,0.55 1.6,1.75 L -6.6,4.05 q -0.95,0 -1.45,-1 l -0.25,-1 0.1,-0.55 -0.55,-0.1 -0.5,1.15 q 0,0.9 0.45,1.3 0.55,0.5 2,0.5 L -6.55,4.4 -6.95,4.8 -7.5,5 -7.9,5.55 -8.3,6.25 q 0,0.95 0.75,2.25 l -0.2,0.1 q -1,0 -1.15,-2.15 0,-0.65 0.35,-1.25 l 0.2,-0.25 Q -9.1,4.75 -9.5,3.85 L -9.8,2.65 Q -9.8,2 -9.45,1.3 L -9.25,1 -9.75,0.1 q 0,-1 0.55,-1.75 0.6,-0.85 1.75,-1 0.2,-0.9 1.35,-1.7 1.25,-0.85 2.55,-0.25 -0.4,-0.8 -0.4,-1.55 0,-3.45 2.95,-4.5 l -0.75,-1.2 0.05,-0.05 q 1,0.6 1.15,1.1 L 0.15,-10.95 -0.05,-12 0,-12.15 Q 0.55,-12.2 0.55,-11 L 1.4,-11.05 1.35,-11.4 q 0,-1.05 0.3,-1.2 l 0.2,0.45 -0.05,1.1 0.5,0.05 0.6,-1.55 H 3.05 L 3.2,-12 2.65,-10.95 3.25,-10.7 3.4,-11 q 0.45,-0.7 1,-0.75 l 0.05,0.15 -0.55,0.75 -0.3,0.35 q 1.2,0.85 1.2,3 0,1.4 -0.5,2.6 l 0.9,0.15 q 1.7,0.45 1.95,1.6 1.6,-0.15 2.25,1 0.35,0.6 0.35,1.4 Q 9.7,0.4 9.2,0.95 v 0.8 Q 9.2,5.5 5.4,5.5 L 4.6,5.3 4.05,5.2 V 5.05 L 4.5,5.1 4.25,4.85 4.05,5.05 M 2,-6.9 2.1,-6.75 q 0,0.3 -0.65,0.5 L -0.35,-6 q -0.5,0 -1.05,-0.3 l -0.5,-0.45 0.05,-0.25 0.7,0.25 1.1,0.2 1.8,-0.4 L 2,-6.9 M 1.95,-7.45 1.9,-7.75 Q 1.75,-8.4 2.65,-8.05 l 0.1,0.3 -0.15,0.25 -0.25,0.15 -0.4,-0.1 M 3.1,-9.1 q -0.75,-0.95 -1.75,-0.7 -2.5,-0.5 -3.65,1.3 -0.7,1.1 -0.7,2.4 0,0.75 0.65,1.5 0.95,1.1 2.7,1.1 2.15,0 3,-2 0.4,-0.95 0.4,-2 0,-0.75 -0.65,-1.6 m -2.75,6.7 -0.9,-0.05 0.1,0.8 -0.05,0.35 q 0.25,-0.65 0.9,-1.1 H 0.35 M 7.85,1.4 7.2,1.25 8.15,3.3 q 0,0.5 -0.7,1.2 V 4.55 Q 8.8,3.7 8.8,1.75 V 1.2 L 7.85,1.4 M 6.7,5.5 H 6.8 Q 7.3,5.75 7.3,6.6 L 6.8,8.65 q -0.7,1.6 -2,1.6 L 4.35,10.1 Q 6.25,8.7 6.6,7.8 L 6.65,5.65 6.7,5.5 M 2.75,2.9 1.15,2.45 Q 0.5,2.05 0.4,1.7 V 1.55 L 0.55,1.5 Q 1.9,2.3 2.7,2.3 L 3.55,2.2 Q 4.4,2 4.95,1.3 5.5,0.55 5.5,-0.2 6,-0.4 6,0.55 6,1 5,1.9 L 3.9,2.65 q 0,0.85 -1.2,2.3 l -1,1 0.35,0.15 q 0.3,0.25 0.3,0.8 L 2,8 2.75,9.75 Q 3.3,11.6 3.3,12.6 3.3,13.3 3,13.45 L 2.45,10.65 Q 2.2,9.35 1.65,8.4 l -0.2,0.15 -1.25,1.3 -0.35,1 Q -0.6,11.5 -1.6,11.5 -3.35,11.5 -4,10.15 L -4.3,8.6 V 8.55 q -1.4,1.9 -1.55,4.55 l -0.25,0.1 q -0.35,-0.15 -0.35,-1.3 0,-0.95 0.95,-2.8 0.75,-1.45 1.45,-1.75 L -3.9,7 -3.25,6.15 -4.05,4.7 -4.3,3.7 -4.75,3.95 -4.6,4.4 q 0.25,0.65 0.25,1.25 -1.15,4.1 -2.6,4.1 l -0.8,-0.1 -0.1,-0.3 Q -6.9,9 -5.85,7.5 -4.9,6.15 -4.9,5.6 L -5.2,4 -5.45,3.9 -5.25,3.8 -5.3,3.55 q 0.15,0 0.3,0.15 L -4.35,3 -4.4,2.55 -4.35,2.2 -5.4,1.25 -5.8,0 -5.55,-0.75 -5.2,0.65 -4.25,1.6 V 1.35 h 0.2 L -4,1.5 q 0.25,-0.35 0.45,0.3 h 0.35 q 1,0 1.7,-0.45 L -0.85,0.8 q 0.3,0.15 0.3,0.45 0,0.4 -1.1,0.8 L -3.2,2.4 h -0.35 l 0.1,0.85 0.35,1.35 1.2,1.45 1.15,0.05 q 1.2,0 2.65,-1.65 L 3.05,2.9 H 2.75 M 0.45,2.8 0.3,3.05 -0.35,3.25 H -0.5 L -0.55,3.65 0.35,4 0.4,4.15 q -0.2,0.2 -0.65,0.2 L -0.65,4.3 -0.8,5.35 -1.05,5.5 -1.3,4.95 -1.2,4.15 -2,3.75 V 3.5 L -1.1,3.45 V 3.4 L -1.05,3.25 H -1.6 L -2,3 V 2.95 L -1.75,2.7 h 0.8 l 0.3,-0.85 0.25,0.25 -0.05,0.6 h 0.8 l 0.1,0.1 m 1.15,4 Q 1.6,6.4 1,6.35 -0.1,6.9 -1.45,6.9 L -2.7,6.6 -2.95,7.1 -3.5,8.45 -3.2,9.7 q 0.5,0.95 1.55,0.95 0.9,0 1.25,-0.7 L -0.5,9.4 Q -0.5,8.85 0.55,8.1 1.6,7.3 1.6,6.8 m -8.25,-19.25 0.3,0.45 q 1.35,-1.7 2.1,-1.3 0.55,0.35 0.55,1.5 0,2.65 -2.8,4.15 l 0.15,0.5 v 0.05 l -0.15,0.05 q -1.6,0 -2.6,-4.95 0,-0.85 1.25,-0.85 0.85,0 1.2,0.4 m 5.5,4 q 0.45,0 0.45,0.45 0,0.45 -0.5,0.45 -0.45,0 -0.45,-0.5 0,-0.4 0.5,-0.4 m -6.2,-3.8 H -8.1 l -0.4,0.15 q 0.9,3.95 1.65,3.95 1.9,0 2.6,-3.7 0,-1.7 -1.4,-0.2 l -0.7,1.9 q -0.45,-0.2 -0.4,-0.95 0.05,-0.8 -0.6,-1.15"
         fill="#6b6b6b"
         fill-rule="evenodd"
         stroke="none"
         id="path14" />
    </g>
    <g
       id="shape3"
       transform="translate(29.05,5.95)">
      <path
         d="M 20.95,-1.2 V -1.4 H 20.8 L 20.3,-2.45 19.9,-3 19.35,-3.75 h -38.7 l -0.3,0.4 -0.25,0.35 -0.35,0.55 -0.5,1.05 h -0.2 l 0.05,0.6 0.05,0.6 q 0.2,0.7 1.15,1.2 h 0.05 0.85 l 2.95,-0.15 q 0.4,0 0.65,0.25 l 0.05,0.05 0.15,0.15 0.15,0.5 V 3 5.15 l 2.95,-0.1 H 11.9 12 l 2.85,0.1 V 2.75 1.8 l 0.1,-0.3 0.1,-0.2 0.15,-0.2 Q 15.45,0.85 15.85,0.85 L 16.4,0.9 19.7,1 q 0.95,-0.5 1.15,-1.2 l 0.1,-1 m 5.25,5 -0.1,-5.2 H 26.05 L 26,-3 25.95,-3.7 25,-3.75 h -4.05 l 0.8,1.05 0.1,0.25 0.1,0.25 v 0.05 l 0.25,0.75 h 0.1 l 0.05,0.8 v 0.5 L 22,0.85 21.65,1.75 V 1.8 H 21.6 q -1.35,1.55 -4.75,1 v 0.9 9.6 l 0.1,0.95 v 0.35 l 0.1,1.6 h 9.5 L 26.4,14.6 V 14.25 L 26.3,12.5 V 12.05 11.1 10.65 10.4 10.3 8.45 7.75 L 26.2,3.8 m 2.85,-6.85 -0.1,1.65 H 28.8 l -0.15,1.65 q 0.2,2.45 0,7.45 v 0.75 1.85 0.1 0.25 0.45 0.95 0.25 l -0.1,2.3 -0.2,2 0.1,0.1 0.2,0.65 -0.05,0.6 -0.4,0.35 -0.05,0.65 q -0.25,0.75 -1.3,0.85 l -0.6,0.1 q -1.6,0 -1.65,-1.3 h -8.3 q -0.05,1.05 -1.2,1.15 L -8.1,19.7 h -2.75 -0.3 -0.75 l -3.7,-0.3 q -1,-0.2 -1,-0.8 h -8 q -0.05,1.3 -1.65,1.3 l -0.6,-0.1 q -1.05,-0.1 -1.3,-0.85 l -0.05,-0.65 -0.4,-0.35 -0.05,-0.6 0.2,-0.65 0.1,-0.1 -0.15,-2 h -0.05 l -0.1,-2.3 V 12.05 11.1 10.65 10.55 10.4 10.3 8.45 7.7 q -0.2,-5 0,-7.45 L -28.8,-1.4 h -0.1 l -0.15,-1.65 Q -29.1,-5 -28.2,-5.5 l 0.85,-0.45 H 27.4 q 0.55,0.15 0.8,0.45 l 0.65,0.85 0.2,1.6 m -46.1,5.9 q -1.5,0.2 -2.6,0 -1.3,-0.25 -2,-1.1 l -0.05,-0.2 -0.2,-0.45 -0.15,-0.4 -0.1,-0.3 -0.2,-0.5 0.05,-1.3 h 0.15 l 0.15,-0.65 0.05,-0.15 0.1,-0.2 0.05,-0.05 0.85,-1.3 H -25 l -0.4,0.05 h -0.55 v 0.15 L -26,-3 v 1.6 h -0.05 l -0.1,4.4 -0.15,4.75 v 0.7 1.85 0.1 0.15 0.1 0.45 0.95 0.45 1.75 l -0.05,0.35 h -0.05 l -0.15,1.6 h 9.5 l 0.1,-1.6 h 0.05 v -0.35 l 0.05,-0.95 V 2.8 l -0.2,0.05 M -3.3,3 q 0,-0.6 0.35,-0.7 l 1.5,-0.2 h 0.7 V 2.05 H 0 1.15 V 2.1 l 0.7,0.05 1.1,0.15 Q 3.3,2.4 3.3,2.95 V 3 L 1.85,3.55 1.15,3.7 V 3.85 L 0.15,4 H 0.1 -0.2 -0.25 L -0.75,3.9 V 3.8 L -1.15,3.7 -1.45,3.65 Q -3.3,3.2 -3.3,3 m -8.95,4.45 0.05,-0.2 -2.65,-0.15 v 0.35 0.5 l 0.05,1.4 h 2.65 l -0.1,-0.9 H -12.3 V 8.4 8.05 7.45 h 0.05 m 0.8,-0.2 0.05,0.2 h 0.05 v 0.35 0.55 0.1 h -0.05 v 0.9 h 22.8 v -0.9 h -0.05 v -0.1 -0.4 -0.5 h 0.05 l 0.05,-0.2 h -22.9 M 14.8,12.2 V 11.4 H 14.5 L 13.3,11.25 12,11.35 H 11.9 L 10.85,11.3 v -0.05 h -21.7 v 0.05 l -1.05,0.05 -1.4,-0.1 -1.2,0.15 h -0.3 v 0.9 0.7 l 0.9,-0.1 1.9,0.05 0.1,-0.05 0.1,-0.05 0.4,0.25 q 0.35,0.2 0.35,0.55 v 0.05 0.1 l 1.2,-0.1 h 0.65 0.4 14.6 q 3,-0.05 4.8,0.05 h 0.1 l 0.35,0.05 v -0.05 -0.1 q 0,-0.35 0.35,-0.55 l 0.4,-0.25 0.1,0.05 0.1,0.05 1.9,-0.05 0.9,0.1 v -0.8 m -27.3,2.4 v -0.15 h -0.05 l -2.25,-0.2 v 1.2 0.75 h 2.15 l 0.1,-1.6 h 0.05 m 1.5,0.55 v 0.1 0.95 h 22 v -0.95 -0.1 l -0.15,0.05 v 0.05 L 5.8,15.3 H -5.8 l -5.05,-0.05 V 15.2 L -11,15.15 m 25.8,0.3 v -1.2 l -2.25,0.2 H 12.5 l 0.05,0.15 h 0.05 l 0.05,1.6 h 2.15 v -0.75 m -2.55,-8 h 0.05 v 0.6 0.35 0.05 l -0.15,0.9 h 2.65 l 0.05,-2.25 -2.65,0.15 0.05,0.2"
         fill="#6b6b6b"
         fill-rule="evenodd"
         stroke="none"
         id="path15" />
      <path
         d="m 20.95,-1.2 -0.1,1 Q 20.65,0.5 19.7,1 L 16.4,0.9 15.85,0.85 q -0.4,0 -0.65,0.25 l -0.15,0.2 -0.1,0.2 -0.1,0.3 V 2.75 L 12,2.85 h -0.1 l -1,0.05 H 10.85 L 8.3,2.95 h -5 Q 3.3,2.4 2.95,2.3 L 1.85,2.15 1.15,2.1 V 2.05 H 0 -0.75 V 2.1 h -0.7 l -1.5,0.2 Q -3.3,2.4 -3.3,3 h -11.4 -0.15 V 1.8 L -15,1.3 -15.15,1.15 -15.2,1.1 Q -15.45,0.85 -15.85,0.85 L -18.8,1 h -0.85 -0.05 q -0.95,-0.5 -1.15,-1.2 l -0.05,-0.6 1.25,-0.15 6.65,-0.25 h 33.95"
         fill="#aaaaaa"
         fill-rule="evenodd"
         stroke="none"
         id="path16" />
      <path
         d="m -20.9,-0.8 -0.05,-0.6 h 0.2 l 0.5,-1.05 0.35,-0.55 0.25,-0.35 0.3,-0.4 h 38.7 l 0.55,0.75 0.4,0.55 0.5,1.05 h 0.15 v 0.2 H -13 l -6.65,0.25 -1.25,0.15 m 35.75,3.55 v 2.4 L 12,5.05 h -0.1 -23.8 l -2.95,0.1 V 3 h 0.15 11.4 q 0,0.2 1.85,0.65 l 0.3,0.05 0.4,0.1 v 0.1 l 0.5,0.1 h 0.05 0.3 0.05 l 1,-0.15 V 3.7 L 1.85,3.55 3.3,3 V 2.95 h 5 L 10.85,2.9 h 0.05 l 1,-0.05 H 12 l 2.85,-0.1 m 2,0.95 V 2.8 q 3.4,0.55 4.75,-1 h 0.05 V 1.75 L 22,0.85 22.35,-0.1 V -0.6 L 22.3,-1.4 H 22.2 L 21.95,-2.15 V -2.2 l -0.1,-0.25 -0.1,-0.25 -0.8,-1.05 H 25 l 0.95,0.05 0.05,0.7 0.05,1.6 h 0.05 l 0.1,5.2 -1.05,0.15 -8.3,-0.25 m -43,-0.7 0.1,-4.4 H -26 V -3 l 0.05,-0.55 V -3.7 h 0.55 l 0.4,-0.05 h 4.05 l -0.85,1.3 -0.05,0.05 -0.1,0.2 -0.05,0.15 -0.15,0.65 h -0.15 l -0.05,1.3 0.2,0.5 0.1,0.3 0.15,0.4 0.2,0.45 0.05,0.2 q 0.7,0.85 2,1.1 1.1,0.2 2.6,0 -0.15,0.25 -0.9,0.35 l -1.7,0.15 h -3 L -26.15,3"
         fill="#8e8e8e"
         fill-rule="evenodd"
         stroke="none"
         id="path17" />
      <path
         d="m 26.2,3.8 0.1,3.95 v 0.7 1.85 0.1 0.25 0.45 0.95 0.45 l 0.1,1.75 v 0.35 l 0.15,1.6 h -9.5 l -0.1,-1.6 V 14.25 L 16.85,13.3 V 3.7 L 25.15,3.95 26.2,3.8 M -26.15,3 l 3.5,0.35 h 3 l 1.7,-0.15 q 0.75,-0.1 0.9,-0.35 l 0.2,-0.05 v 10.5 l -0.05,0.95 v 0.35 h -0.05 l -0.1,1.6 h -9.5 l 0.15,-1.6 h 0.05 l 0.05,-0.35 V 12.5 12.05 11.1 10.65 10.55 10.4 10.3 8.45 7.75 L -26.15,3 m 13.9,4.45 h -0.05 v 0.6 0.35 0.05 h 0.05 l 0.1,0.9 h -2.65 l -0.05,-1.4 V 7.45 7.1 l 2.65,0.15 -0.05,0.2 m 0.8,-0.2 h 22.9 l -0.05,0.2 h -0.05 v 0.5 0.4 0.1 h 0.05 v 0.9 h -22.8 v -0.9 h 0.05 V 8.35 7.8 7.45 h -0.05 l -0.05,-0.2 m -1.05,7.35 h -0.05 l -0.1,1.6 h -2.15 v -0.75 -1.2 l 2.25,0.2 h 0.05 v 0.15 m 1.5,0.55 0.15,0.05 v 0.05 L -5.8,15.3 H 5.8 l 5.05,-0.05 V 15.2 L 11,15.15 v 0.1 0.95 h -22 v -0.95 -0.1 M 12.25,7.45 12.2,7.25 14.85,7.1 14.8,9.35 H 12.15 L 12.3,8.45 V 8.4 8.05 7.45 h -0.05 m 2.55,8 V 16.2 H 12.65 L 12.6,14.6 H 12.55 L 12.5,14.45 h 0.05 l 2.25,-0.2 v 1.2"
         fill="#797979"
         fill-rule="evenodd"
         stroke="none"
         id="path18" />
      <path
         d="m -14.8,12.3 2.9,-0.05 21.35,-0.05 h 1.4 1.05 0.1 l 2.75,-0.05 0.05,0.05 V 13 L 13.9,12.9 12,12.95 11.9,12.9 11.8,12.85 11.4,13.1 q -0.35,0.2 -0.35,0.55 v 0.1 H 10.7 10.6 Q 8.8,13.65 5.8,13.7 h -14.6 -0.4 -0.65 -1.2 v -0.05 q 0,-0.35 -0.35,-0.55 l -0.4,-0.25 -0.1,0.05 -0.1,0.05 -1.9,-0.05 -0.9,0.1 v -0.7"
         fill="#999999"
         fill-rule="evenodd"
         stroke="none"
         id="path19" />
      <path
         d="m -14.8,12.3 v -0.9 h 0.3 l 1.2,-0.15 1.4,0.1 1.05,-0.05 v -0.05 h 21.7 v 0.05 l 1.05,0.05 H 12 l 1.3,-0.1 1.2,0.15 h 0.3 v 0.8 L 14.75,12.15 12,12.2 h -0.1 -1.05 -1.4 l -21.35,0.05 -2.9,0.05"
         fill="#e2e2e2"
         fill-rule="evenodd"
         stroke="none"
         id="path20" />
    </g>
    <g
       id="sprite4"
       transform="translate(5.4,4)">
      <use
         ffdec:characterId="43"
         height="8"
         transform="translate(-5.4,-4)"
         width="10.8"
         xlink:href="#shape4"
         id="use20" />
    </g>
    <g
       id="shape4"
       transform="translate(5.4,4)">
      <path
         d="m 2.9,-0.35 q 0,-1.25 1.25,-1.25 1.25,0 1.25,1.2 0,1.3 -1.25,1.3 Q 3.6,0.9 3.25,0.5 2.9,0.15 2.9,-0.35 m 0.35,-2.3 q 0,0.55 -0.35,0.9 -0.4,0.45 -1,0.45 -1.35,0 -1.35,-1.4 0,-1.3 1.35,-1.3 1.35,0 1.35,1.35 m -3.1,1.9 h 0.2 q 2.6,0.1 2.6,2.8 l -0.3,1 Q 2.05,4 0.45,4 H 0.35 0.15 0.1 -0.45 q -1.6,0 -2.2,-0.95 l -0.3,-1 q 0,-2.8 2.8,-2.8 h 0.3 M -1.55,-4 q 1.35,0 1.35,1.35 0,0.55 -0.4,0.9 -0.4,0.45 -0.95,0.45 -1.4,0 -1.4,-1.4 0,-1.3 1.4,-1.3 m -2.6,2.4 q 1.25,0 1.25,1.25 0,0.5 -0.35,0.85 -0.35,0.4 -0.9,0.4 -1.25,0 -1.25,-1.3 0,-1.2 1.25,-1.2"
         fill="#6b6b6b"
         fill-rule="evenodd"
         stroke="none"
         id="path21" />
    </g>
    <g
       id="sprite5"
       transform="translate(1.3,1.15)">
      <use
         ffdec:characterId="695"
         height="2.3"
         transform="translate(-1.3,-1.15)"
         width="2.55"
         xlink:href="#shape5"
         id="use21" />
    </g>
    <g
       id="shape5"
       transform="translate(1.3,1.15)">
      <path
         d="m 1.25,-0.3 v 0.25 q 0,1.2 -1.3,1.2 L -0.45,1.1 Q -1,1 -1.2,0.55 l -0.05,-0.5 -0.05,-0.1 0.05,-0.25 0.2,-0.55 q 0.3,-0.4 1.05,-0.3 l 0.95,0.35 0.3,0.5"
         fill="#ffffff"
         fill-rule="evenodd"
         stroke="none"
         id="path22" />
    </g>
    <g
       id="sprite6"
       transform="translate(1.3,1.15)">
      <use
         ffdec:characterId="696"
         height="2.3"
         transform="translate(-1.3,-1.15)"
         width="2.55"
         xlink:href="#shape6"
         id="use22" />
    </g>
    <g
       id="shape6"
       transform="translate(1.3,1.15)">
      <path
         d="m 1.25,-0.05 q 0,1.2 -1.3,1.2 L -0.45,1.1 Q -1,1 -1.2,0.55 l -0.05,-0.5 -0.05,-0.1 0.05,-0.25 0.2,-0.55 q 0.3,-0.4 1.05,-0.3 l 0.95,0.35 0.3,0.5 v 0.25"
         fill="#6b6b6b"
         fill-rule="evenodd"
         stroke="none"
         id="path23" />
    </g>
  </defs>
</svg>
