<?xml version="1.0" encoding="UTF-8" standalone="no"?>
<svg
   ffdec:objectType="frame"
   height="143.31078"
   width="103.95"
   version="1.1"
   id="svg94"
   sodipodi:docname="2.svg"
   xmlns:inkscape="http://www.inkscape.org/namespaces/inkscape"
   xmlns:sodipodi="http://sodipodi.sourceforge.net/DTD/sodipodi-0.dtd"
   xmlns:xlink="http://www.w3.org/1999/xlink"
   xmlns="http://www.w3.org/2000/svg"
   xmlns:svg="http://www.w3.org/2000/svg"
   xmlns:ffdec="https://www.free-decompiler.com/flash">
  <sodipodi:namedview
     id="namedview94"
     pagecolor="#ffffff"
     bordercolor="#000000"
     borderopacity="0.25"
     inkscape:showpageshadow="2"
     inkscape:pageopacity="0.0"
     inkscape:pagecheckerboard="0"
     inkscape:deskcolor="#d1d1d1"
     fit-margin-top="5"
     fit-margin-left="5"
     fit-margin-right="5"
     fit-margin-bottom="5" />
  <g
     transform="translate(51.95,72.50138)"
     id="g68">
    <use
       ffdec:characterId="656"
       height="115.95"
       transform="translate(-41.95,-53.15)"
       width="83.099998"
       xlink:href="#shape0"
       id="use1" />
    <use
       ffdec:characterId="649"
       height="12.35"
       transform="matrix(-0.9659,-0.2588,0.2588,-0.9659,-16.5585,-45.1866)"
       width="28.6"
       xlink:href="#sprite0"
       id="use2" />
    <use
       ffdec:characterId="649"
       height="12.35"
       transform="matrix(0.9659,-0.2588,-0.2588,-0.9659,15.3085,-45.1866)"
       width="28.6"
       xlink:href="#sprite0"
       id="use3" />
    <use
       ffdec:characterId="658"
       height="28.299999"
       transform="matrix(0.9252,0,0,0.9252,-17.7439,-72.5939)"
       width="37.799999"
       xlink:href="#sprite1"
       id="use4" />
    <use
       ffdec:characterId="647"
       height="11.25"
       transform="translate(-43.7,51.5)"
       width="48.150002"
       xlink:href="#sprite2"
       id="use5" />
    <use
       ffdec:characterId="647"
       height="11.25"
       transform="matrix(-1,0,0,1,42.85,51.5)"
       width="48.150002"
       xlink:href="#sprite2"
       id="use6" />
    <use
       ffdec:characterId="647"
       height="11.25"
       transform="translate(-43.7,42)"
       width="48.150002"
       xlink:href="#sprite2"
       id="use7" />
    <use
       ffdec:characterId="647"
       height="11.25"
       transform="matrix(-1,0,0,1,42.85,42)"
       width="48.150002"
       xlink:href="#sprite2"
       id="use8" />
    <use
       ffdec:characterId="647"
       height="11.25"
       transform="translate(-43.7,32.25)"
       width="48.150002"
       xlink:href="#sprite2"
       id="use9" />
    <use
       ffdec:characterId="647"
       height="11.25"
       transform="matrix(-1,0,0,1,42.85,32.25)"
       width="48.150002"
       xlink:href="#sprite2"
       id="use10" />
    <use
       ffdec:characterId="647"
       height="11.25"
       transform="translate(-43.7,22.5)"
       width="48.150002"
       xlink:href="#sprite2"
       id="use11" />
    <use
       ffdec:characterId="647"
       height="11.25"
       transform="matrix(-1,0,0,1,42.85,22.5)"
       width="48.150002"
       xlink:href="#sprite2"
       id="use12" />
    <use
       ffdec:characterId="647"
       height="11.25"
       transform="translate(-43.7,5.9)"
       width="48.150002"
       xlink:href="#sprite2"
       id="use13" />
    <use
       ffdec:characterId="647"
       height="11.25"
       transform="matrix(-1,0,0,1,42.85,5.9)"
       width="48.150002"
       xlink:href="#sprite2"
       id="use14" />
    <use
       ffdec:characterId="647"
       height="11.25"
       transform="translate(-43.7,-3.6)"
       width="48.150002"
       xlink:href="#sprite2"
       id="use15" />
    <use
       ffdec:characterId="647"
       height="11.25"
       transform="matrix(-1,0,0,1,42.85,-3.6)"
       width="48.150002"
       xlink:href="#sprite2"
       id="use16" />
    <use
       ffdec:characterId="647"
       height="11.25"
       transform="translate(-43.7,-13.35)"
       width="48.150002"
       xlink:href="#sprite2"
       id="use17" />
    <use
       ffdec:characterId="647"
       height="11.25"
       transform="matrix(-1,0,0,1,42.85,-13.35)"
       width="48.150002"
       xlink:href="#sprite2"
       id="use18" />
    <use
       ffdec:characterId="647"
       height="11.25"
       transform="translate(-43.7,-14.1)"
       width="48.150002"
       xlink:href="#sprite2"
       id="use19" />
    <use
       ffdec:characterId="647"
       height="11.25"
       transform="matrix(-1,0,0,1,42.85,-14.1)"
       width="48.150002"
       xlink:href="#sprite2"
       id="use20" />
    <use
       ffdec:characterId="647"
       height="11.25"
       transform="translate(-43.7,-32)"
       width="48.150002"
       xlink:href="#sprite2"
       id="use21" />
    <use
       ffdec:characterId="647"
       height="11.25"
       transform="matrix(-1,0,0,1,43.75,-32)"
       width="48.150002"
       xlink:href="#sprite2"
       id="use22" />
    <use
       ffdec:characterId="647"
       height="11.25"
       transform="translate(-43.7,-40)"
       width="48.150002"
       xlink:href="#sprite2"
       id="use23" />
    <use
       ffdec:characterId="647"
       height="11.25"
       transform="matrix(-1,0,0,1,43.75,-40)"
       width="48.150002"
       xlink:href="#sprite2"
       id="use24" />
    <use
       ffdec:characterId="647"
       height="11.25"
       transform="translate(-43.7,-47.5)"
       width="48.150002"
       xlink:href="#sprite2"
       id="use25" />
    <use
       ffdec:characterId="647"
       height="11.25"
       transform="matrix(-1,0,0,1,43.75,-47.5)"
       width="48.150002"
       xlink:href="#sprite2"
       id="use26" />
    <use
       ffdec:characterId="649"
       height="12.35"
       transform="matrix(1.273,0,0,1,-44.7548,16.65)"
       width="28.6"
       xlink:href="#sprite3"
       id="use27" />
    <use
       ffdec:characterId="649"
       height="12.35"
       transform="matrix(1.273,0,0,1,-44.7548,-20.6)"
       width="28.6"
       xlink:href="#sprite3"
       id="use28" />
    <use
       ffdec:characterId="649"
       height="12.35"
       transform="matrix(-0.866,0.5,0.5,0.866,-19.7005,-57.8544)"
       width="28.6"
       xlink:href="#sprite3"
       id="use29" />
    <use
       ffdec:characterId="649"
       height="12.35"
       transform="matrix(-1.273,0,0,1,43.1048,16.65)"
       width="28.6"
       xlink:href="#sprite3"
       id="use30" />
    <use
       ffdec:characterId="649"
       height="12.35"
       transform="matrix(-1.273,0,0,1,43.1048,-20.6)"
       width="28.6"
       xlink:href="#sprite3"
       id="use31" />
    <use
       ffdec:characterId="649"
       height="12.35"
       transform="matrix(0.866,0.5,-0.5,0.866,18.0505,-57.8544)"
       width="28.6"
       xlink:href="#sprite3"
       id="use32" />
    <use
       ffdec:characterId="651"
       height="12.45"
       transform="translate(-9.7,-53.4)"
       width="19.1"
       xlink:href="#sprite4"
       id="use33" />
    <use
       ffdec:characterId="651"
       height="12.45"
       transform="translate(-9.7,-47.45)"
       width="19.1"
       xlink:href="#sprite4"
       id="use34" />
    <use
       ffdec:characterId="651"
       height="12.45"
       transform="matrix(0.8693,0,0,0.8693,-8.452,-38.952)"
       width="19.1"
       xlink:href="#sprite4"
       id="use35" />
    <use
       ffdec:characterId="651"
       height="12.45"
       transform="translate(-9.7,-32.05)"
       width="19.1"
       xlink:href="#sprite4"
       id="use36" />
    <use
       ffdec:characterId="651"
       height="12.45"
       transform="translate(-9.7,-23.65)"
       width="19.1"
       xlink:href="#sprite4"
       id="use37" />
    <use
       ffdec:characterId="651"
       height="12.45"
       transform="translate(-9.7,-17.3)"
       width="19.1"
       xlink:href="#sprite4"
       id="use38" />
    <use
       ffdec:characterId="651"
       height="12.45"
       transform="matrix(0.9069,0,0,0.9069,-8.7302,-17.5302)"
       width="19.1"
       xlink:href="#sprite4"
       id="use39" />
    <use
       ffdec:characterId="651"
       height="12.45"
       transform="matrix(0.8292,0,0,0.8292,-7.9719,-9.2219)"
       width="19.1"
       xlink:href="#sprite4"
       id="use40" />
    <use
       ffdec:characterId="651"
       height="12.45"
       transform="matrix(0.9069,0,0,0.9069,-8.4802,-1.6302)"
       width="19.1"
       xlink:href="#sprite4"
       id="use41" />
    <use
       ffdec:characterId="651"
       height="12.45"
       transform="translate(-9.7,6.25)"
       width="19.1"
       xlink:href="#sprite4"
       id="use42" />
    <use
       ffdec:characterId="651"
       height="12.45"
       transform="translate(-9.7,13.25)"
       width="19.1"
       xlink:href="#sprite4"
       id="use43" />
    <use
       ffdec:characterId="651"
       height="12.45"
       transform="translate(-9.7,21.65)"
       width="19.1"
       xlink:href="#sprite4"
       id="use44" />
    <use
       ffdec:characterId="651"
       height="12.45"
       transform="matrix(0.9357,0,0,0.9357,-9.0017,30.5483)"
       width="19.1"
       xlink:href="#sprite4"
       id="use45" />
    <use
       ffdec:characterId="651"
       height="12.45"
       transform="matrix(0.9357,0,0,0.9357,-9.0017,37.7483)"
       width="19.1"
       xlink:href="#sprite4"
       id="use46" />
    <use
       ffdec:characterId="651"
       height="12.45"
       transform="translate(-9.7,46.15)"
       width="19.1"
       xlink:href="#sprite4"
       id="use47" />
    <use
       ffdec:characterId="647"
       height="11.25"
       transform="translate(-44.1,52.55)"
       width="48.150002"
       xlink:href="#sprite5"
       id="use48" />
    <use
       ffdec:characterId="647"
       height="11.25"
       transform="matrix(-1,0,0,1,43.95,52.55)"
       width="48.150002"
       xlink:href="#sprite5"
       id="use49" />
    <use
       ffdec:characterId="647"
       height="11.25"
       transform="translate(-46.5,5.35)"
       width="48.150002"
       xlink:href="#sprite5"
       id="use50" />
    <use
       ffdec:characterId="647"
       height="11.25"
       transform="translate(-46.2,-24.25)"
       width="48.150002"
       xlink:href="#sprite6"
       id="use51" />
    <use
       ffdec:characterId="647"
       height="11.25"
       transform="translate(-46.2,-55.4)"
       width="48.150002"
       xlink:href="#sprite6"
       id="use52" />
    <use
       ffdec:characterId="655"
       height="40.400002"
       transform="rotate(90,-27.725,25.875)"
       width="16.4"
       xlink:href="#sprite7"
       id="use53" />
    <use
       ffdec:characterId="647"
       height="11.25"
       transform="translate(-46.35,32.9)"
       width="48.150002"
       xlink:href="#sprite6"
       id="use54" />
    <use
       ffdec:characterId="647"
       height="11.25"
       transform="matrix(-1,0,0,1,45.2,32.9)"
       width="48.150002"
       xlink:href="#sprite6"
       id="use55" />
    <use
       ffdec:characterId="653"
       height="53.900002"
       transform="matrix(1,0,0,0.876,-49.1,23.593)"
       width="16.4"
       xlink:href="#sprite8"
       id="use56" />
    <use
       ffdec:characterId="655"
       height="40.400002"
       transform="translate(-51.95,-56.2)"
       width="16.4"
       xlink:href="#sprite7"
       id="use57" />
    <use
       ffdec:characterId="653"
       height="53.900002"
       transform="translate(-50,-21.1)"
       width="16.4"
       xlink:href="#sprite8"
       id="use58" />
    <use
       ffdec:characterId="647"
       height="11.25"
       transform="matrix(-1,0,0,1,45.05,5.35)"
       width="48.150002"
       xlink:href="#sprite6"
       id="use59" />
    <use
       ffdec:characterId="647"
       height="11.25"
       transform="matrix(-1,0,0,1,45.35,-24.25)"
       width="48.150002"
       xlink:href="#sprite6"
       id="use60" />
    <use
       ffdec:characterId="647"
       height="11.25"
       transform="matrix(-1,0,0,1,45.35,-55.4)"
       width="48.150002"
       xlink:href="#sprite6"
       id="use61" />
    <use
       ffdec:characterId="655"
       height="40.400002"
       transform="matrix(-1,0,0,1,52,-56.2)"
       width="16.4"
       xlink:href="#sprite9"
       id="use62" />
    <use
       ffdec:characterId="651"
       height="12.45"
       transform="matrix(1.0854,0,0,1.0854,-10.6141,-57.6141)"
       width="19.1"
       xlink:href="#sprite10"
       id="use63" />
    <use
       ffdec:characterId="655"
       height="40.400002"
       transform="matrix(0,1,1,0,1,53.6)"
       width="16.4"
       xlink:href="#sprite7"
       id="use64" />
    <use
       ffdec:characterId="653"
       height="53.900002"
       transform="matrix(-1,0,0,0.876,47.65,23.593)"
       width="16.4"
       xlink:href="#sprite8"
       id="use65" />
    <use
       ffdec:characterId="653"
       height="53.900002"
       transform="matrix(-1,0,0,1,49.15,-21.1)"
       width="16.4"
       xlink:href="#sprite8"
       id="use66" />
    <use
       ffdec:characterId="651"
       height="12.45"
       transform="matrix(1.2161,0,0,1.2161,-12.0121,54.9879)"
       width="19.1"
       xlink:href="#sprite11"
       id="use67" />
    <use
       ffdec:characterId="44"
       height="8"
       transform="matrix(0.7375,0,0,0.7375,-4.3824,58.45)"
       width="10.8"
       xlink:href="#sprite12"
       id="use68" />
  </g>
  <defs
     id="defs94">
    <g
       id="shape0"
       transform="translate(41.95,53.15)">
      <path
         d="m 40.65,-20.4 v 7.65 22.45 1.4 51.2 h -82.1 V -52.65 h 82.1 v 32.25"
         fill="#d2d2d2"
         fill-rule="evenodd"
         stroke="none"
         id="path68" />
      <path
         d="M 40.65,-12.75 V 9.7 m 0,1.4 v 51.2 h -82.1 V -52.65 h 82.1 v 32.25"
         fill="none"
         stroke="#6b6b6b"
         stroke-linecap="round"
         stroke-linejoin="round"
         stroke-width="1"
         id="path69" />
    </g>
    <g
       id="sprite0"
       transform="translate(0.75,0.9)">
      <use
         ffdec:characterId="648"
         height="12.35"
         transform="translate(-0.75,-0.9)"
         width="28.6"
         xlink:href="#shape1"
         id="use69" />
    </g>
    <g
       id="shape1"
       transform="translate(0.75,0.9)">
      <path
         d="m 20.9,4.2 q -2.2,2.4 -5.05,2.7 h -4.2 L 8.6,5.5 Q 6,4.2 4.9,4.2 q -0.95,0 -1.95,0.5 -0.9,0.45 -0.9,0.65 0,0.5 0.4,1.1 Q 2.9,7.2 3.6,7.2 4.1,7.2 4.95,6.55 l 1.2,-0.7 q 0.8,0 3.4,1.35 2.55,1.35 4.95,1.35 3.55,0 6.8,-2.6 3,-2.85 4.05,-3.4 Q 22.8,2.1 20.9,4.2 m 6.2,-2 q 0,1.45 -0.85,1.95 Q 24.3,5.3 22.9,6.75 L 20.4,9.2 q -2.25,1.5 -5.85,1.5 -3.05,0 -5.5,-1.3 L 6.4,8.1 5.55,8.75 q -0.7,0.6 -1.65,0.6 -2.55,0 -3.45,-2 L 0,5.35 Q 0,4.3 0.7,3.55 2,2.1 5.35,2.1 q 1.95,0 3.7,1.1 1.75,1.05 4.75,1.05 3.55,0 5.75,-1.55 L 21.4,1.05 q 0.4,-0.25 1.55,-0.8 l 1.95,-0.35 1.5,0.55 q 0.7,0.4 0.7,1.75"
         fill="#9a9a9a"
         fill-rule="evenodd"
         stroke="none"
         id="path70" />
      <path
         d="M 20.9,4.2 Q 22.8,2.1 25.35,2.55 24.3,3.1 21.3,5.95 18.05,8.55 14.5,8.55 12.1,8.55 9.55,7.2 6.95,5.85 6.15,5.85 l -1.2,0.7 Q 4.1,7.2 3.6,7.2 2.9,7.2 2.45,6.45 q -0.4,-0.6 -0.4,-1.1 0,-0.2 0.9,-0.65 1,-0.5 1.95,-0.5 1.1,0 3.7,1.3 l 3.05,1.4 h 4.2 Q 18.7,6.6 20.9,4.2"
         fill="#c6c6c6"
         fill-rule="evenodd"
         stroke="none"
         id="path71" />
      <path
         d="m 27.1,2.2 q 0,1.45 -0.85,1.95 Q 24.3,5.3 22.9,6.75 L 20.4,9.2 q -2.25,1.5 -5.85,1.5 -3.05,0 -5.5,-1.3 L 6.4,8.1 5.55,8.75 q -0.7,0.6 -1.65,0.6 -2.55,0 -3.45,-2 L 0,5.35 Q 0,4.3 0.7,3.55 2,2.1 5.35,2.1 q 1.95,0 3.7,1.1 1.75,1.05 4.75,1.05 3.55,0 5.75,-1.55 L 21.4,1.05 q 0.4,-0.25 1.55,-0.8 l 1.95,-0.35 1.5,0.55 q 0.7,0.4 0.7,1.75 z"
         fill="none"
         stroke="#9a9a9a"
         stroke-linecap="round"
         stroke-linejoin="round"
         stroke-width="1.5"
         id="path72" />
    </g>
    <g
       id="sprite1"
       transform="translate(0.75,0.75)">
      <use
         ffdec:characterId="657"
         height="28.299999"
         transform="translate(-0.75,-0.75)"
         width="37.799999"
         xlink:href="#shape2"
         id="use72" />
    </g>
    <g
       id="shape2"
       transform="translate(0.75,0.75)">
      <path
         d="M 34.9,9.75 Q 34.4,10.9 33,10.9 l -1.85,-0.3 -0.25,0.25 q -0.75,0.9 -0.75,1.8 0,0.75 0.6,1.3 0.6,0.6 0.6,1 l 0.35,-0.15 1.6,-0.6 0.25,0.05 0.8,-0.2 Q 36,13.85 36,15.5 l -0.45,1.25 0.35,1.15 q 0.4,1.15 0.4,2.05 0,1.35 -0.9,2.35 -1.45,1.55 -4.7,1.55 -1.1,0 -3.85,-1.1 L 24.9,21.9 q 0.45,1.05 0.45,2.15 l -0.4,1.4 q -0.6,1.35 -1.85,1.35 -0.9,0 -2.15,-1.6 l -0.5,-0.65 q -0.5,0.75 -2,0.75 h -0.3 -0.3 q -1.5,0 -2,-0.75 l -0.5,0.65 q -1.25,1.6 -2.15,1.6 -1.25,0 -1.85,-1.35 l -0.4,-1.4 q 0,-1.1 0.45,-2.15 L 9.45,22.75 Q 6.7,23.85 5.6,23.85 2.35,23.85 0.9,22.3 0,21.3 0,19.95 0,19.05 0.4,17.9 L 0.75,16.75 0.3,15.5 q 0,-1.65 1.65,-1.45 l 0.8,0.2 0.25,-0.05 1.6,0.6 0.35,0.15 q 0,-0.4 0.6,-1 0.6,-0.55 0.6,-1.3 0,-0.9 -0.75,-1.8 L 5.15,10.6 3.3,10.9 Q 1.9,10.9 1.4,9.75 1.15,9.2 1.15,8.45 q 0,-4.5 6.9,-6.6 l 0.4,-0.1 3.05,-0.85 2.6,-0.45 2.7,-0.35 4.6,0.25 3.4,0.55 3.05,0.85 0.4,0.1 q 6.9,2.1 6.9,6.6 L 34.9,9.75 M 30.85,7.95 32.7,8.5 Q 31.8,5.7 29.6,4.75 L 24.7,3.25 21.55,2.3 20.2,2.25 18.15,1.95 16.1,2.25 14.75,2.3 11.6,3.25 6.7,4.75 Q 4.5,5.7 3.6,8.5 L 5.45,7.95 q 1.8,-0.65 3.5,-0.65 2.6,0 3.7,2.65 0.55,1.35 0.55,2.65 0,1.4 -1.35,3 -1.9,2.25 -5.1,2.25 -2.25,0 -3.7,-1.15 L 2.9,16.6 2.85,16.8 2.55,18.15 q -0.3,0.85 -0.3,1.45 0,0.65 0.95,1.3 1.05,0.65 2.4,0.65 1.5,0 3,-0.8 1.5,-0.85 2.2,-0.85 l 1,0.15 q 0.35,-0.7 1.65,-0.7 1.65,0 2.3,1.25 l 0.15,0.35 0.7,-0.3 1.55,-0.1 1.55,0.1 0.7,0.3 0.15,-0.35 q 0.65,-1.25 2.3,-1.25 1.3,0 1.65,0.7 l 1,-0.15 q 0.7,0 2.2,0.85 1.5,0.8 3,0.8 1.35,0 2.4,-0.65 0.95,-0.65 0.95,-1.3 l -0.3,-1.45 q -0.3,-0.85 -0.3,-1.35 l -0.05,-0.2 -0.15,0.1 q -1.45,1.15 -3.7,1.15 -3.2,0 -5.1,-2.25 -1.35,-1.6 -1.35,-3 0,-1.3 0.55,-2.65 1.1,-2.65 3.7,-2.65 1.7,0 3.5,0.65 M 22.8,15.7 q -1.15,3.75 -4.05,3.75 l -0.6,-0.15 -0.6,0.15 q -2.9,0 -4.05,-3.75 0,-1.6 1.2,-2.6 1.5,-1.2 3.45,1.2 1.95,-2.4 3.45,-1.2 1.2,1 1.2,2.6 m 0.6,5.4 V 20.55 L 22.7,20.4 q -1.2,0 -1.65,1.15 l 0.25,0.8 -0.15,0.4 0.75,1 0.9,1.55 0.9,-0.75 0.3,-0.6 -0.3,-1.35 -0.3,-1.5 m -10.5,0 -0.3,1.5 -0.3,1.35 0.3,0.6 0.9,0.75 0.9,-1.55 0.75,-1 L 15,22.35 Q 15,21.9 15.25,21.55 14.8,20.4 13.6,20.4 l -0.7,0.15 v 0.55 m 3.4,1.55 0.1,0.1 0.05,0.35 -0.05,0.3 q 0.25,0.7 1.4,0.7 h 0.15 l -0.1,-0.75 0.1,-2.1 q -1.25,0 -1.65,0.75 l -0.1,0.2 v 0.25 l 0.1,0.2 m 3.7,0 0.1,-0.2 V 22.2 L 20,22 q -0.4,-0.75 -1.65,-0.75 l 0.1,1.25 v 1.6 h 0.05 q 1.15,0 1.4,-0.7 l -0.05,-0.3 0.05,-0.35 0.1,-0.1"
         fill="#9a9a9a"
         fill-rule="evenodd"
         stroke="none"
         id="path73" />
      <path
         d="m 30.85,7.95 q -1.8,-0.65 -3.5,-0.65 -2.6,0 -3.7,2.65 -0.55,1.35 -0.55,2.65 0,1.4 1.35,3 1.9,2.25 5.1,2.25 2.25,0 3.7,-1.15 l 0.15,-0.1 0.05,0.2 q 0,0.5 0.3,1.35 l 0.3,1.45 q 0,0.65 -0.95,1.3 -1.05,0.65 -2.4,0.65 -1.5,0 -3,-0.8 -1.5,-0.85 -2.2,-0.85 l -1,0.15 q -0.35,-0.7 -1.65,-0.7 -1.65,0 -2.3,1.25 l -0.15,0.35 -0.7,-0.3 -1.55,-0.1 -1.55,0.1 -0.7,0.3 -0.15,-0.35 q -0.65,-1.25 -2.3,-1.25 -1.3,0 -1.65,0.7 l -1,-0.15 q -0.7,0 -2.2,0.85 -1.5,0.8 -3,0.8 -1.35,0 -2.4,-0.65 -0.95,-0.65 -0.95,-1.3 0,-0.6 0.3,-1.45 l 0.3,-1.35 0.05,-0.2 0.15,0.1 q 1.45,1.15 3.7,1.15 3.2,0 5.1,-2.25 1.35,-1.6 1.35,-3 0,-1.3 -0.55,-2.65 -1.1,-2.65 -3.7,-2.65 -1.7,0 -3.5,0.65 L 3.6,8.5 Q 4.5,5.7 6.7,4.75 l 4.9,-1.5 3.15,-0.95 1.35,-0.05 2.05,-0.3 2.05,0.3 1.35,0.05 3.15,0.95 4.9,1.5 Q 31.8,5.7 32.7,8.5 L 30.85,7.95 M 22.8,15.7 q 0,-1.6 -1.2,-2.6 -1.5,-1.2 -3.45,1.2 -1.95,-2.4 -3.45,-1.2 -1.2,1 -1.2,2.6 1.15,3.75 4.05,3.75 l 0.6,-0.15 0.6,0.15 q 2.9,0 4.05,-3.75 m 0.6,5.4 0.3,1.5 0.3,1.35 -0.3,0.6 -0.9,0.75 -0.9,-1.55 -0.75,-1 0.15,-0.4 -0.25,-0.8 Q 21.5,20.4 22.7,20.4 l 0.7,0.15 v 0.55 m -7.1,1.55 -0.1,-0.2 V 22.2 L 16.3,22 q 0.4,-0.75 1.65,-0.75 l -0.1,2.1 0.1,0.75 H 17.8 q -1.15,0 -1.4,-0.7 l 0.05,-0.3 -0.05,-0.35 -0.1,-0.1 M 12.9,21.1 v -0.55 l 0.7,-0.15 q 1.2,0 1.65,1.15 Q 15,21.9 15,22.35 l 0.15,0.4 -0.75,1 -0.9,1.55 -0.9,-0.75 -0.3,-0.6 0.3,-1.35 0.3,-1.5 m 7.1,1.55 -0.1,0.1 -0.05,0.35 0.05,0.3 q -0.25,0.7 -1.4,0.7 h -0.05 v -1.6 l -0.1,-1.25 q 1.25,0 1.65,0.75 l 0.1,0.2 v 0.25 l -0.1,0.2"
         fill="#d2d2d2"
         fill-rule="evenodd"
         stroke="none"
         id="path74" />
      <path
         d="m 34.9,9.75 0.25,-1.3 q 0,-4.5 -6.9,-6.6 L 27.85,1.75 24.8,0.9 21.4,0.35 16.8,0.1 14.1,0.45 11.5,0.9 8.45,1.75 8.05,1.85 q -6.9,2.1 -6.9,6.6 0,0.75 0.25,1.3 0.5,1.15 1.9,1.15 l 1.85,-0.3 0.25,0.25 q 0.75,0.9 0.75,1.8 0,0.75 -0.6,1.3 -0.6,0.6 -0.6,1 L 4.6,14.8 3,14.2 2.75,14.25 1.95,14.05 Q 0.3,13.85 0.3,15.5 L 0.75,16.75 0.4,17.9 Q 0,19.05 0,19.95 q 0,1.35 0.9,2.35 1.45,1.55 4.7,1.55 1.1,0 3.85,-1.1 L 11.4,21.9 q -0.45,1.05 -0.45,2.15 l 0.4,1.4 q 0.6,1.35 1.85,1.35 0.9,0 2.15,-1.6 l 0.5,-0.65 q 0.5,0.75 2,0.75 h 0.3 0.3 q 1.5,0 2,-0.75 l 0.5,0.65 q 1.25,1.6 2.15,1.6 1.25,0 1.85,-1.35 l 0.4,-1.4 q 0,-1.1 -0.45,-2.15 l 1.95,0.85 q 2.75,1.1 3.85,1.1 3.25,0 4.7,-1.55 0.9,-1 0.9,-2.35 0,-0.9 -0.4,-2.05 L 35.55,16.75 36,15.5 q 0,-1.65 -1.65,-1.45 l -0.8,0.2 -0.25,-0.05 -1.6,0.6 -0.35,0.15 q 0,-0.4 -0.6,-1 -0.6,-0.55 -0.6,-1.3 0,-0.9 0.75,-1.8 L 31.15,10.6 33,10.9 q 1.4,0 1.9,-1.15 z"
         fill="none"
         stroke="#9a9a9a"
         stroke-linecap="round"
         stroke-linejoin="round"
         stroke-width="1.5"
         id="path75" />
    </g>
    <g
       id="sprite2"
       transform="translate(0.75,0.75)">
      <use
         ffdec:characterId="646"
         height="11.25"
         transform="translate(-0.75,-0.75)"
         width="48.150002"
         xlink:href="#shape3"
         id="use75" />
    </g>
    <g
       id="shape3"
       transform="translate(0.75,0.75)">
      <path
         d="m 46.65,4.75 q 0,1.5 -1.75,2.05 L 39,7.65 29.4,7.75 28.9,7.9 h -5.85 l -10.1,1 -3.2,0.4 -2.7,0.45 H 3.25 L 1.95,9.3 Q 0.6,8.75 0.2,8.15 0,7.85 0,6.55 0,3.55 3.1,2.25 5.7,1.1 12.95,0.2 L 14.55,0 h 4.35 l 9.55,0.75 h 3.3 q 13.75,1.55 14.5,3.4 l 0.4,0.25 V 4.75 M 38.15,3.65 15.8,2.6 12.95,2.75 Q 2.4,3.5 2.4,6.45 q 0,0.6 0.35,0.7 l 2.3,0.2 7.9,-0.7 0.85,-0.1 8.85,-0.9 H 28.5 L 29.05,5.5 38.7,5.4 43.5,4.8 39.1,3.85 38.15,3.65"
         fill="#9a9a9a"
         fill-rule="evenodd"
         stroke="none"
         id="path76" />
      <path
         d="m 38.15,3.65 0.95,0.2 4.4,0.95 -4.8,0.6 -9.65,0.1 -0.55,0.15 h -5.85 l -8.85,0.9 -0.85,0.1 -7.9,0.7 -2.3,-0.2 Q 2.4,7.05 2.4,6.45 2.4,3.5 12.95,2.75 L 15.8,2.6 38.15,3.65"
         fill="#d2d2d2"
         fill-rule="evenodd"
         stroke="none"
         id="path77" />
      <path
         d="m 46.65,4.75 q 0,1.5 -1.75,2.05 L 39,7.65 29.4,7.75 28.9,7.9 h -5.85 l -10.1,1 -3.2,0.4 -2.7,0.45 H 3.25 L 1.95,9.3 Q 0.6,8.75 0.2,8.15 0,7.85 0,6.55 0,3.55 3.1,2.25 5.7,1.1 12.95,0.2 L 14.55,0 h 4.35 l 9.55,0.75 h 3.3 q 13.75,1.55 14.5,3.4 l 0.4,0.25 z"
         fill="none"
         stroke="#9a9a9a"
         stroke-linecap="round"
         stroke-linejoin="round"
         stroke-width="1.5"
         id="path78" />
    </g>
    <g
       id="sprite3"
       transform="translate(0.75,0.9)">
      <use
         ffdec:characterId="648"
         height="12.35"
         transform="translate(-0.75,-0.9)"
         width="28.6"
         xlink:href="#shape1"
         id="use78" />
    </g>
    <g
       id="sprite4"
       transform="translate(0.75,0.75)">
      <use
         ffdec:characterId="650"
         height="12.45"
         transform="translate(-0.75,-0.75)"
         width="19.1"
         xlink:href="#shape4"
         id="use79" />
    </g>
    <g
       id="shape4"
       transform="translate(0.75,0.75)">
      <path
         d="M 10.15,8.8 V 8.7 L 8.8,8.8 7.45,8.7 V 8.8 L 6,8.7 Q 5.2,8.55 5.15,7.8 L 5.2,7.35 8.6,7.15 12.4,7.35 12.45,7.8 Q 12.4,8.55 11.6,8.7 l -1.45,0.1 m 0,-7.3 V 1.4 q 2.65,0.1 2.4,1.65 L 12.3,4.2 q 0,0.5 0.75,0.5 0.65,0 1.15,-0.4 l 0.75,-0.4 q 1.3,0 1.15,1.3 l -0.05,1 -0.4,0.45 L 14.45,6.9 13.6,6.7 13.05,6.4 H 13 l -0.35,-0.15 -0.1,0.2 -1.4,-0.1 h -1 -1.1 -2.6 L 5.05,6.45 4.95,6.25 4.6,6.4 H 4.55 L 4,6.7 3.15,6.9 1.95,6.65 1.55,6.2 1.5,5.2 Q 1.35,3.9 2.65,3.9 L 3.4,4.3 Q 3.9,4.7 4.55,4.7 5.3,4.7 5.3,4.2 L 5.05,3.05 Q 4.8,1.5 7.45,1.4 V 1.5 L 8.9,1.4 10.15,1.5"
         fill="#d2d2d2"
         fill-rule="evenodd"
         stroke="none"
         id="path79" />
      <path
         d="m 14.15,2.55 q 2.45,-0.45 3.2,1.3 L 17.6,6.2 q 0,2.35 -2.65,2.35 L 14.1,8.4 14.3,9.3 q 0,1.65 -4.4,1.65 H 8.7 7.7 Q 3.3,10.95 3.3,9.3 L 3.5,8.4 2.65,8.55 Q 0,8.55 0,6.2 0,4.5 0.25,3.85 1,2.1 3.45,2.55 3.55,1.4 3.95,1 4.7,0.2 7.05,0 L 8.75,0.05 10.55,0 q 2.35,0.2 3.1,1 0.4,0.4 0.5,1.55 M 10.15,1.5 8.9,1.4 7.45,1.5 V 1.4 Q 4.8,1.5 5.05,3.05 L 5.3,4.2 Q 5.3,4.7 4.55,4.7 3.9,4.7 3.4,4.3 L 2.65,3.9 q -1.3,0 -1.15,1.3 l 0.05,1 0.4,0.45 L 3.15,6.9 4,6.7 4.55,6.4 H 4.6 l 0.35,-0.15 0.1,0.2 1.4,-0.1 h 2.6 1.1 1 l 1.4,0.1 0.1,-0.2 L 13,6.4 h 0.05 l 0.55,0.3 0.85,0.2 1.2,-0.25 0.4,-0.45 0.05,-1 Q 16.25,3.9 14.95,3.9 L 14.2,4.3 Q 13.7,4.7 13.05,4.7 12.3,4.7 12.3,4.2 L 12.55,3.05 Q 12.8,1.5 10.15,1.4 v 0.1 m 0,7.3 1.45,-0.1 Q 12.4,8.55 12.45,7.8 L 12.4,7.35 8.6,7.15 5.2,7.35 5.15,7.8 Q 5.2,8.55 6,8.7 L 7.45,8.8 V 8.7 L 8.8,8.8 10.15,8.7 v 0.1"
         fill="#9a9a9a"
         fill-rule="evenodd"
         stroke="none"
         id="path80" />
      <path
         d="m 14.15,2.55 q 2.45,-0.45 3.2,1.3 L 17.6,6.2 q 0,2.35 -2.65,2.35 L 14.1,8.4 14.3,9.3 q 0,1.65 -4.4,1.65 H 8.7 7.7 Q 3.3,10.95 3.3,9.3 L 3.5,8.4 2.65,8.55 Q 0,8.55 0,6.2 0,4.5 0.25,3.85 1,2.1 3.45,2.55 3.55,1.4 3.95,1 4.7,0.2 7.05,0 L 8.75,0.05 10.55,0 q 2.35,0.2 3.1,1 0.4,0.4 0.5,1.55 z"
         fill="none"
         stroke="#9a9a9a"
         stroke-linecap="round"
         stroke-linejoin="round"
         stroke-width="1.5"
         id="path81" />
    </g>
    <g
       id="sprite5"
       transform="translate(0.75,0.75)">
      <use
         ffdec:characterId="646"
         height="11.25"
         transform="translate(-0.75,-0.75)"
         width="48.150002"
         xlink:href="#shape5"
         id="use81" />
    </g>
    <g
       id="shape5"
       transform="translate(0.75,0.75)">
      <path
         d="m 46.65,4.75 q 0,1.5 -1.75,2.05 L 39,7.65 29.4,7.75 28.9,7.9 h -5.85 l -10.1,1 -3.2,0.4 -2.7,0.45 H 3.25 L 1.95,9.3 Q 0.6,8.75 0.2,8.15 0,7.85 0,6.55 0,3.55 3.1,2.25 5.7,1.1 12.95,0.2 L 14.55,0 h 4.35 l 9.55,0.75 h 3.3 q 13.75,1.55 14.5,3.4 l 0.4,0.25 V 4.75 M 38.15,3.65 15.8,2.6 12.95,2.75 Q 2.4,3.5 2.4,6.45 q 0,0.6 0.35,0.7 l 2.3,0.2 7.9,-0.7 0.85,-0.1 8.85,-0.9 H 28.5 L 29.05,5.5 38.7,5.4 43.5,4.8 39.1,3.85 38.15,3.65"
         fill="#6b6b6b"
         fill-rule="evenodd"
         stroke="none"
         id="path82" />
      <path
         d="m 38.15,3.65 0.95,0.2 4.4,0.95 -4.8,0.6 -9.65,0.1 -0.55,0.15 h -5.85 l -8.85,0.9 -0.85,0.1 -7.9,0.7 -2.3,-0.2 Q 2.4,7.05 2.4,6.45 2.4,3.5 12.95,2.75 L 15.8,2.6 38.15,3.65"
         fill="#ffffff"
         fill-rule="evenodd"
         stroke="none"
         id="path83" />
      <path
         d="m 46.65,4.75 q 0,1.5 -1.75,2.05 L 39,7.65 29.4,7.75 28.9,7.9 h -5.85 l -10.1,1 -3.2,0.4 -2.7,0.45 H 3.25 L 1.95,9.3 Q 0.6,8.75 0.2,8.15 0,7.85 0,6.55 0,3.55 3.1,2.25 5.7,1.1 12.95,0.2 L 14.55,0 h 4.35 l 9.55,0.75 h 3.3 q 13.75,1.55 14.5,3.4 l 0.4,0.25 z"
         fill="none"
         stroke="#6b6b6b"
         stroke-linecap="round"
         stroke-linejoin="round"
         stroke-width="1.5"
         id="path84" />
    </g>
    <g
       id="sprite6"
       transform="translate(0.75,0.75)">
      <use
         ffdec:characterId="646"
         height="11.25"
         transform="translate(-0.75,-0.75)"
         width="48.150002"
         xlink:href="#shape5"
         id="use84" />
    </g>
    <g
       id="sprite7"
       transform="translate(1.25,0.75)">
      <use
         ffdec:characterId="654"
         height="40.400002"
         transform="translate(-1.25,-0.75)"
         width="16.4"
         xlink:href="#shape6"
         id="use85" />
    </g>
    <g
       id="shape6"
       transform="translate(1.25,0.75)">
      <path
         d="m 10.5,10.65 v 11 h -0.05 l -0.05,8.2 q 0.4,0.15 0.85,0.45 2.3,1.55 2.3,3.85 0,1 -0.7,2.3 -1.15,2.1 -3.35,2.1 -1.8,0 -2.6,-0.95 H 6.85 Q 5.95,38.9 4.2,38.9 1.35,38.9 0.15,37.05 -0.5,36 -0.5,34.7 -0.5,30.8 2.65,30 L 3.6,29.85 v -0.2 l -0.15,-1.5 -0.05,-4 0.2,-13.5 V 9.1 L 2.65,8.6 q -2.3,-1.55 -2.3,-3.85 0,-1 0.7,-2.3 Q 2.2,0.35 4.4,0.35 6.2,0.35 7,1.3 H 7.05 Q 7.95,0 9.7,0 q 2.85,0 4.05,1.85 0.65,1.05 0.65,2.35 0,3.9 -3.15,4.7 l -1,0.15 0.2,1.6 H 10.5 M 6.9,4.5 Q 6.65,4.5 6.15,3.45 5.6,2.4 4.65,2.4 3.1,2.4 2.5,4 L 2.25,5.6 q 0,0.5 0.3,0.9 Q 3,7.05 3.9,7.05 H 3.95 Q 4.25,6.8 4.7,6.8 q 0.85,0 1.1,0.8 v 15.05 0.45 l -0.15,5.95 q 0,1.35 0.15,2.25 v 0.15 Q 5.2,31.3 4.4,31.45 1.75,32 1.75,34.4 l 0.2,1.15 q 0.55,0.95 2.6,0.95 2.05,0 2.4,-2.1 H 7 q 0.25,0 0.75,1.05 0.55,1.05 1.5,1.05 1.55,0 2.15,-1.6 l 0.25,-1.6 -0.3,-0.9 Q 10.9,31.85 10,31.85 H 9.95 L 9.2,32.1 q -0.75,0 -1.05,-0.65 0.35,-2.2 0.4,-8.35 L 8.5,21.65 v -0.1 -10.7 L 8.65,7.5 V 7.35 h 0.3 Q 11.9,7.35 11.9,4.8 11.9,2.4 9.55,2.3 7.3,2.25 7.15,4.45 L 6.9,4.5"
         fill="#6b6b6b"
         fill-rule="evenodd"
         stroke="none"
         id="path85" />
      <path
         d="M 6.9,4.5 7.15,4.45 Q 7.3,2.25 9.55,2.3 11.9,2.4 11.9,4.8 11.9,7.35 8.95,7.35 H 8.65 V 7.5 L 8.5,10.85 v 10.7 0.1 L 8.55,23.1 Q 8.5,29.25 8.15,31.45 8.45,32.1 9.2,32.1 L 9.95,31.85 H 10 q 0.9,0 1.35,0.55 l 0.3,0.9 -0.25,1.6 Q 10.8,36.5 9.25,36.5 8.3,36.5 7.75,35.45 7.25,34.4 7,34.4 H 6.95 q -0.35,2.1 -2.4,2.1 -2.05,0 -2.6,-0.95 L 1.75,34.4 q 0,-2.4 2.65,-2.95 0.8,-0.15 1.4,0 V 31.3 Q 5.65,30.4 5.65,29.05 L 5.8,23.1 V 22.65 7.6 Q 5.55,6.8 4.7,6.8 4.25,6.8 3.95,7.05 H 3.9 Q 3,7.05 2.55,6.5 2.25,6.1 2.25,5.6 L 2.5,4 Q 3.1,2.4 4.65,2.4 5.6,2.4 6.15,3.45 6.65,4.5 6.9,4.5"
         fill="#ffffff"
         fill-rule="evenodd"
         stroke="none"
         id="path86" />
      <path
         d="m 10.5,10.65 v 11 h -0.05 l -0.05,8.2 q 0.4,0.15 0.85,0.45 2.3,1.55 2.3,3.85 0,1 -0.7,2.3 -1.15,2.1 -3.35,2.1 -1.8,0 -2.6,-0.95 H 6.85 Q 5.95,38.9 4.2,38.9 1.35,38.9 0.15,37.05 -0.5,36 -0.5,34.7 -0.5,30.8 2.65,30 L 3.6,29.85 v -0.2 l -0.15,-1.5 -0.05,-4 0.2,-13.5 V 9.1 L 2.65,8.6 q -2.3,-1.55 -2.3,-3.85 0,-1 0.7,-2.3 Q 2.2,0.35 4.4,0.35 6.2,0.35 7,1.3 H 7.05 Q 7.95,0 9.7,0 q 2.85,0 4.05,1.85 0.65,1.05 0.65,2.35 0,3.9 -3.15,4.7 l -1,0.15 0.2,1.6 z"
         fill="none"
         stroke="#6b6b6b"
         stroke-linecap="round"
         stroke-linejoin="round"
         stroke-width="1.5"
         id="path87" />
    </g>
    <g
       id="sprite8"
       transform="translate(0.75,0.75)">
      <use
         ffdec:characterId="652"
         height="53.900002"
         transform="translate(-0.75,-0.75)"
         width="16.4"
         xlink:href="#shape7"
         id="use87" />
    </g>
    <g
       id="shape7"
       transform="translate(0.75,0.75)">
      <path
         d="m 10.75,9.05 0.2,1.6 H 11 l -0.1,32.7 q 0.4,0.15 0.85,0.45 2.3,1.55 2.3,3.85 0,1 -0.7,2.3 -1.15,2.1 -3.35,2.1 -1.8,0 -2.6,-0.95 H 7.35 Q 6.45,52.4 4.7,52.4 1.85,52.4 0.65,50.55 0,49.5 0,48.2 0,44.3 3.15,43.5 L 4.1,43.35 v -0.2 L 3.95,41.65 3.9,37.65 4,22.4 H 4.05 L 4.1,10.65 V 9.1 L 3.15,8.6 q -2.3,-1.55 -2.3,-3.85 0,-1 0.7,-2.3 1.15,-2.1 3.35,-2.1 1.8,0 2.6,0.95 H 7.55 Q 8.45,0 10.2,0 q 2.85,0 4.05,1.85 0.65,1.05 0.65,2.35 0,3.9 -3.15,4.7 l -1,0.15 M 7.4,4.5 Q 7.15,4.5 6.65,3.45 6.1,2.4 5.15,2.4 3.6,2.4 3,4 L 2.75,5.6 q 0,0.5 0.3,0.9 Q 3.5,7.05 4.4,7.05 H 4.45 Q 4.75,6.8 5.2,6.8 q 0.85,0 1.1,0.8 v 28.55 l -0.15,6.4 q 0,1.35 0.15,2.25 v 0.15 Q 5.7,44.8 4.9,44.95 2.25,45.5 2.25,47.9 l 0.2,1.15 Q 3,50 5.05,50 7.1,50 7.45,47.9 H 7.5 q 0.25,0 0.75,1.05 Q 8.8,50 9.75,50 11.3,50 11.9,48.4 l 0.25,-1.6 -0.3,-0.9 Q 11.4,45.35 10.5,45.35 H 10.45 L 9.7,45.6 Q 8.95,45.6 8.65,44.95 9.25,41.2 9,26.05 V 10.85 L 9.15,7.5 V 7.35 h 0.3 Q 12.4,7.35 12.4,4.8 12.4,2.4 10.05,2.3 7.8,2.25 7.65,4.45 L 7.4,4.5"
         fill="#6b6b6b"
         fill-rule="evenodd"
         stroke="none"
         id="path88" />
      <path
         d="M 7.4,4.5 7.65,4.45 q 0.15,-2.2 2.4,-2.15 2.35,0.1 2.35,2.5 0,2.55 -2.95,2.55 H 9.15 V 7.5 L 9,10.85 v 15.2 Q 9.25,41.2 8.65,44.95 8.95,45.6 9.7,45.6 l 0.75,-0.25 h 0.05 q 0.9,0 1.35,0.55 l 0.3,0.9 -0.25,1.6 Q 11.3,50 9.75,50 8.8,50 8.25,48.95 7.75,47.9 7.5,47.9 H 7.45 Q 7.1,50 5.05,50 3,50 2.45,49.05 L 2.25,47.9 q 0,-2.4 2.65,-2.95 0.8,-0.15 1.4,0 V 44.8 Q 6.15,43.9 6.15,42.55 L 6.3,36.15 V 7.6 Q 6.05,6.8 5.2,6.8 4.75,6.8 4.45,7.05 H 4.4 Q 3.5,7.05 3.05,6.5 2.75,6.1 2.75,5.6 L 3,4 Q 3.6,2.4 5.15,2.4 6.1,2.4 6.65,3.45 7.15,4.5 7.4,4.5"
         fill="#ffffff"
         fill-rule="evenodd"
         stroke="none"
         id="path89" />
      <path
         d="m 10.75,9.05 0.2,1.6 H 11 l -0.1,32.7 q 0.4,0.15 0.85,0.45 2.3,1.55 2.3,3.85 0,1 -0.7,2.3 -1.15,2.1 -3.35,2.1 -1.8,0 -2.6,-0.95 H 7.35 Q 6.45,52.4 4.7,52.4 1.85,52.4 0.65,50.55 0,49.5 0,48.2 0,44.3 3.15,43.5 L 4.1,43.35 v -0.2 L 3.95,41.65 3.9,37.65 4,22.4 H 4.05 L 4.1,10.65 V 9.1 L 3.15,8.6 q -2.3,-1.55 -2.3,-3.85 0,-1 0.7,-2.3 1.15,-2.1 3.35,-2.1 1.8,0 2.6,0.95 H 7.55 Q 8.45,0 10.2,0 q 2.85,0 4.05,1.85 0.65,1.05 0.65,2.35 0,3.9 -3.15,4.7 z"
         fill="none"
         stroke="#6b6b6b"
         stroke-linecap="round"
         stroke-linejoin="round"
         stroke-width="1.5"
         id="path90" />
    </g>
    <g
       id="sprite9"
       transform="translate(1.25,0.75)">
      <use
         ffdec:characterId="654"
         height="40.400002"
         transform="translate(-1.25,-0.75)"
         width="16.4"
         xlink:href="#shape6"
         id="use90" />
    </g>
    <g
       id="sprite10"
       transform="translate(0.75,0.75)">
      <use
         ffdec:characterId="650"
         height="12.45"
         transform="translate(-0.75,-0.75)"
         width="19.1"
         xlink:href="#shape8"
         id="use91" />
    </g>
    <g
       id="shape8"
       transform="translate(0.75,0.75)">
      <path
         d="M 10.15,8.8 V 8.7 L 8.8,8.8 7.45,8.7 V 8.8 L 6,8.7 Q 5.2,8.55 5.15,7.8 L 5.2,7.35 8.6,7.15 12.4,7.35 12.45,7.8 Q 12.4,8.55 11.6,8.7 l -1.45,0.1 m 0,-7.3 V 1.4 q 2.65,0.1 2.4,1.65 L 12.3,4.2 q 0,0.5 0.75,0.5 0.65,0 1.15,-0.4 l 0.75,-0.4 q 1.3,0 1.15,1.3 l -0.05,1 -0.4,0.45 L 14.45,6.9 13.6,6.7 13.05,6.4 H 13 l -0.35,-0.15 -0.1,0.2 -1.4,-0.1 h -1 -1.1 -2.6 L 5.05,6.45 4.95,6.25 4.6,6.4 H 4.55 L 4,6.7 3.15,6.9 1.95,6.65 1.55,6.2 1.5,5.2 Q 1.35,3.9 2.65,3.9 L 3.4,4.3 Q 3.9,4.7 4.55,4.7 5.3,4.7 5.3,4.2 L 5.05,3.05 Q 4.8,1.5 7.45,1.4 V 1.5 L 8.9,1.4 10.15,1.5"
         fill="#ffffff"
         fill-rule="evenodd"
         stroke="none"
         id="path91" />
      <path
         d="m 14.15,2.55 q 2.45,-0.45 3.2,1.3 L 17.6,6.2 q 0,2.35 -2.65,2.35 L 14.1,8.4 14.3,9.3 q 0,1.65 -4.4,1.65 H 8.7 7.7 Q 3.3,10.95 3.3,9.3 L 3.5,8.4 2.65,8.55 Q 0,8.55 0,6.2 0,4.5 0.25,3.85 1,2.1 3.45,2.55 3.55,1.4 3.95,1 4.7,0.2 7.05,0 L 8.75,0.05 10.55,0 q 2.35,0.2 3.1,1 0.4,0.4 0.5,1.55 M 10.15,1.5 8.9,1.4 7.45,1.5 V 1.4 Q 4.8,1.5 5.05,3.05 L 5.3,4.2 Q 5.3,4.7 4.55,4.7 3.9,4.7 3.4,4.3 L 2.65,3.9 q -1.3,0 -1.15,1.3 l 0.05,1 0.4,0.45 L 3.15,6.9 4,6.7 4.55,6.4 H 4.6 l 0.35,-0.15 0.1,0.2 1.4,-0.1 h 2.6 1.1 1 l 1.4,0.1 0.1,-0.2 L 13,6.4 h 0.05 l 0.55,0.3 0.85,0.2 1.2,-0.25 0.4,-0.45 0.05,-1 Q 16.25,3.9 14.95,3.9 L 14.2,4.3 Q 13.7,4.7 13.05,4.7 12.3,4.7 12.3,4.2 L 12.55,3.05 Q 12.8,1.5 10.15,1.4 v 0.1 m 0,7.3 1.45,-0.1 Q 12.4,8.55 12.45,7.8 L 12.4,7.35 8.6,7.15 5.2,7.35 5.15,7.8 Q 5.2,8.55 6,8.7 L 7.45,8.8 V 8.7 L 8.8,8.8 10.15,8.7 v 0.1"
         fill="#6b6b6b"
         fill-rule="evenodd"
         stroke="none"
         id="path92" />
      <path
         d="m 14.15,2.55 q 2.45,-0.45 3.2,1.3 L 17.6,6.2 q 0,2.35 -2.65,2.35 L 14.1,8.4 14.3,9.3 q 0,1.65 -4.4,1.65 H 8.7 7.7 Q 3.3,10.95 3.3,9.3 L 3.5,8.4 2.65,8.55 Q 0,8.55 0,6.2 0,4.5 0.25,3.85 1,2.1 3.45,2.55 3.55,1.4 3.95,1 4.7,0.2 7.05,0 L 8.75,0.05 10.55,0 q 2.35,0.2 3.1,1 0.4,0.4 0.5,1.55 z"
         fill="none"
         stroke="#6b6b6b"
         stroke-linecap="round"
         stroke-linejoin="round"
         stroke-width="1.5"
         id="path93" />
    </g>
    <g
       id="sprite11"
       transform="translate(0.75,0.75)">
      <use
         ffdec:characterId="650"
         height="12.45"
         transform="translate(-0.75,-0.75)"
         width="19.1"
         xlink:href="#shape8"
         id="use93" />
    </g>
    <g
       id="sprite12"
       transform="translate(5.4,4)">
      <use
         ffdec:characterId="43"
         height="8"
         transform="translate(-5.4,-4)"
         width="10.8"
         xlink:href="#shape9"
         id="use94" />
    </g>
    <g
       id="shape9"
       transform="translate(5.4,4)">
      <path
         d="m 2.9,-0.35 q 0,-1.25 1.25,-1.25 1.25,0 1.25,1.2 0,1.3 -1.25,1.3 Q 3.6,0.9 3.25,0.5 2.9,0.15 2.9,-0.35 m 0.35,-2.3 q 0,0.55 -0.35,0.9 -0.4,0.45 -1,0.45 -1.35,0 -1.35,-1.4 0,-1.3 1.35,-1.3 1.35,0 1.35,1.35 m -3.1,1.9 h 0.2 q 2.6,0.1 2.6,2.8 l -0.3,1 Q 2.05,4 0.45,4 H 0.35 0.15 0.1 -0.45 q -1.6,0 -2.2,-0.95 l -0.3,-1 q 0,-2.8 2.8,-2.8 h 0.3 M -1.55,-4 q 1.35,0 1.35,1.35 0,0.55 -0.4,0.9 -0.4,0.45 -0.95,0.45 -1.4,0 -1.4,-1.4 0,-1.3 1.4,-1.3 m -2.6,2.4 q 1.25,0 1.25,1.25 0,0.5 -0.35,0.85 -0.35,0.4 -0.9,0.4 -1.25,0 -1.25,-1.3 0,-1.2 1.25,-1.2"
         fill="#6a6a6a"
         fill-rule="evenodd"
         stroke="none"
         id="path94" />
    </g>
  </defs>
</svg>
