<?xml version="1.0" encoding="UTF-8" standalone="no"?>
<svg
   ffdec:objectType="frame"
   height="30.779629"
   width="24.934137"
   version="1.1"
   id="svg10"
   sodipodi:docname="2.svg"
   xmlns:inkscape="http://www.inkscape.org/namespaces/inkscape"
   xmlns:sodipodi="http://sodipodi.sourceforge.net/DTD/sodipodi-0.dtd"
   xmlns:xlink="http://www.w3.org/1999/xlink"
   xmlns="http://www.w3.org/2000/svg"
   xmlns:svg="http://www.w3.org/2000/svg"
   xmlns:ffdec="https://www.free-decompiler.com/flash">
  <sodipodi:namedview
     id="namedview10"
     pagecolor="#ffffff"
     bordercolor="#000000"
     borderopacity="0.25"
     inkscape:showpageshadow="2"
     inkscape:pageopacity="0.0"
     inkscape:pagecheckerboard="0"
     inkscape:deskcolor="#d1d1d1"
     fit-margin-top="5"
     fit-margin-left="5"
     fit-margin-right="5"
     fit-margin-bottom="5" />
  <g
     transform="translate(11.957692,15.95)"
     id="g3">
    <use
       ffdec:characterId="3611"
       height="16.450001"
       transform="matrix(0.5489,0,0,1,-10.7,-4.55)"
       width="39.849998"
       xlink:href="#sprite0"
       id="use1" />
    <use
       ffdec:characterId="3500"
       height="8"
       transform="matrix(0.5186,0.6891,0.6891,-0.5186,3.843,-11.7468)"
       width="10.8"
       xlink:href="#sprite2"
       id="use2" />
    <use
       ffdec:characterId="3612"
       height="30.799999"
       transform="translate(-11.95,-15.95)"
       width="23.9"
       xlink:href="#shape2"
       id="use3" />
  </g>
  <defs
     id="defs10">
    <g
       id="sprite0"
       transform="translate(19.95,8.25)">
      <use
         ffdec:characterId="3610"
         height="16.450001"
         transform="translate(-19.95,-8.25)"
         width="39.849998"
         xlink:href="#sprite1"
         id="use4" />
    </g>
    <g
       id="sprite1"
       transform="translate(19.95,8.25)">
      <use
         ffdec:characterId="1687"
         height="16.450001"
         transform="translate(-19.95,-8.25)"
         width="39.849998"
         xlink:href="#shape0"
         id="use5" />
    </g>
    <g
       id="shape0"
       transform="translate(19.95,8.25)">
      <path
         d="M 19.9,-8.25 V 8.2 H -19.95 V -8.25 H 19.9"
         fill="#8c8c8c"
         fill-rule="evenodd"
         stroke="none"
         id="path5" />
    </g>
    <g
       id="sprite2"
       transform="translate(5.4,4)">
      <use
         ffdec:characterId="43"
         height="8"
         transform="translate(-5.4,-4)"
         width="10.8"
         xlink:href="#shape1"
         id="use6" />
    </g>
    <g
       id="shape1"
       transform="translate(5.4,4)">
      <path
         d="m 2.9,-0.35 q 0,-1.25 1.25,-1.25 1.25,0 1.25,1.2 0,1.3 -1.25,1.3 Q 3.6,0.9 3.25,0.5 2.9,0.15 2.9,-0.35 m 0.35,-2.3 q 0,0.55 -0.35,0.9 -0.4,0.45 -1,0.45 -1.35,0 -1.35,-1.4 0,-1.3 1.35,-1.3 1.35,0 1.35,1.35 m -3.1,1.9 h 0.2 q 2.6,0.1 2.6,2.8 l -0.3,1 Q 2.05,4 0.45,4 H 0.35 0.15 0.1 -0.45 q -1.6,0 -2.2,-0.95 l -0.3,-1 q 0,-2.8 2.8,-2.8 h 0.3 M -1.55,-4 q 1.35,0 1.35,1.35 0,0.55 -0.4,0.9 -0.4,0.45 -0.95,0.45 -1.4,0 -1.4,-1.4 0,-1.3 1.4,-1.3 m -2.6,2.4 q 1.25,0 1.25,1.25 0,0.5 -0.35,0.85 -0.35,0.4 -0.9,0.4 -1.25,0 -1.25,-1.3 0,-1.2 1.25,-1.2"
         fill="#6b6b6b"
         fill-opacity="0.498039"
         fill-rule="evenodd"
         stroke="none"
         id="path6" />
    </g>
    <g
       id="shape2"
       transform="translate(11.95,15.95)">
      <path
         d="m 3.8,-15.9 0.15,0.05 q 0.5,0.2 0.5,0.75 l -0.15,0.5 0.1,0.8 v 0.4 l 0.05,0.35 -0.15,0.55 q -0.15,0.55 -0.7,0.55 l 0.05,0.85 v 0.9 q 1.3,0.3 1.6,1.1 0.25,0.55 0.15,1.55 v 0.25 q 0.15,0.4 0.8,0.7 l 1.95,0.4 0.3,0.1 h 1.7 l 0.7,0.2 q 1.2,0.15 1.1,2.05 L 11.7,-0.3 q 0.25,1.95 0,5.9 v 4.15 l 0.25,2.4 q -0.05,1.6 -1.4,1.6 H 10.3 l -0.6,0.1 H 9.05 q 0,1.15 -2.5,0.95 h -13.1 q -2.5,0.2 -2.5,-0.95 H -9.7 l -0.6,-0.1 h -0.25 q -1.35,0 -1.4,-1.6 l 0.25,-2.4 V 5.6 q -0.25,-3.95 0,-5.9 l -0.25,-3.55 q -0.1,-1.9 1.1,-2.05 l 0.7,-0.2 h 1.7 l 0.3,-0.1 1.95,-0.4 q 0.65,-0.3 0.8,-0.7 l 0.05,-0.5 0.1,-1.3 q 0.3,-0.8 1.6,-1.1 v -0.9 l 0.05,-0.85 q -0.55,0 -0.7,-0.55 l -0.15,-0.55 0.05,-0.35 v -0.4 l 0.1,-0.8 -0.15,-0.5 q 0,-0.55 0.5,-0.75 l 0.15,-0.05 h 0.95 l 1.4,-0.05 h 0.15 l -0.1,0.05 h 2.8 l -0.1,-0.05 h 0.15 l 1.45,0.05 h 0.9 m -3.5,2.25 h 0.25 l 1.95,0.1 0.2,-0.1 V -14.1 H 1.4 -0.25 -0.55 -1.4 -2.7 v 0.45 l 0.2,0.1 1.95,-0.1 h 0.25 0.6 m -0.25,1.85 h -0.1 -0.5 l -1.3,-0.05 0.05,0.75 v 0.7 h 3.6 v -0.7 l 0.05,-0.75 -1.3,0.05 H 0.05 M 3.4,-8.15 3.2,-8.55 2.6,-8.6 h -5.2 l -0.6,0.05 -0.15,0.4 -0.1,0.6 v 1.05 l -0.1,0.4 h 0.7 2.3 1.1 2.3 0.7 L 3.45,-6.5 3.5,-7.55 H 3.45 L 3.4,-8.15 m 0.05,7.95 0.7,-0.15 0.7,0.15 q 0.5,0.3 0.5,1.15 L 5.25,1.3 Q 6,1.3 6,1.95 L 5.9,2.25 5.2,2.55 Q 4.7,2.55 4.4,2.2 L 4.3,2.15 4.25,2.2 3.45,2.7 3.3,2.45 2.8,1.75 3.3,1.35 3.1,0.5 Q 3.1,0 3.45,-0.2 m 5.8,0 v -0.75 l 0.05,-0.6 -1.95,0.1 -16.6,0.05 v 0.45 l 0.05,0.55 -0.15,6 V 8.55 9.9 h 7.55 l 1.45,-0.05 h 9.7 V 8.75 5.6 l -0.1,-5.8 m -14.05,0 0.65,-0.15 0.7,0.15 Q -3.1,0 -3.1,0.5 l -0.15,0.85 q 0.3,0.2 0.45,0.4 L -3.3,2.45 -3.45,2.7 -4.2,2.2 -4.3,2.15 -4.35,2.2 q -0.35,0.35 -0.8,0.35 -0.5,0 -0.75,-0.3 L -6,1.95 Q -6,1.3 -5.2,1.3 L -5.35,0.95 q 0,-0.85 0.55,-1.15 M 9.5,-3.9 h -19 l 0.2,1.6 18.6,0.1 0.2,-1.7 M 1.1,5.7 q 0.6,0 0.85,-0.4 L 2.1,4.95 q 0,-0.6 -0.9,-0.5 -0.85,0 -0.85,0.65 v 0.05 q 0,0.55 0.75,0.55 m 1.65,0.05 -0.9,0.85 0.1,0.5 q 0,0.65 -0.85,0.65 L 0.5,7.55 0.35,7.7 V 7.8 H 0 -0.3 V 7.7 l -0.2,-0.15 -0.55,0.2 q -0.9,0 -0.9,-0.65 L -1.85,6.6 -2.7,5.75 Q -3.2,5 -3.2,4.15 -3.2,1.05 0,1.4 3.25,1.05 3.25,4.15 3.25,5 2.75,5.75 m 0.6,2.9 Q 3.05,8.55 3.05,8.1 L 3.15,7.55 2.65,7.25 2.3,6.7 2.8,6.4 3.1,6.2 h 0.05 l 0.7,0.45 h 0.3 q 0.8,0.1 0.8,0.8 L 4.85,7.65 4.3,7.85 H 4.15 V 8 L 3.7,8.65 H 3.55 3.35 M -3.25,8.6 -3.55,8.65 -3.75,8.6 -4.15,8 V 7.85 H -4.3 q -0.4,0 -0.5,-0.2 l -0.1,-0.2 q 0,-0.7 0.75,-0.8 h 0.35 l 0.7,-0.45 0.35,0.2 0.45,0.3 -0.3,0.55 -0.55,0.3 0.1,0.55 -0.2,0.5 M 9.2,11.55 9.3,10.65 -9.3,10.6 -9.2,11.55 H -8.9 8.9 9.2 M -1.95,5.3 q 0.25,0.4 0.85,0.4 0.8,0 0.8,-0.55 V 5.1 q 0,-0.65 -0.9,-0.65 -0.9,-0.1 -0.9,0.5 l 0.15,0.35"
         fill="#6b6b6b"
         fill-rule="evenodd"
         stroke="none"
         id="path7" />
      <path
         d="m 0.3,-13.65 h -0.6 -0.25 l -1.95,0.1 -0.2,-0.1 v -0.45 h 1.3 0.85 0.3 1.65 1.3 v 0.45 l -0.2,0.1 -1.95,-0.1 H 0.3 m 3.1,5.5 0.05,0.6 H 3.5 l -0.05,1.05 0.1,0.4 h -0.7 -2.3 -1.1 -2.3 -0.7 l 0.1,-0.4 v -1.05 l 0.1,-0.6 0.15,-0.4 0.6,-0.05 h 5.2 l 0.6,0.05 0.2,0.4 M 0.05,-11.8 h 0.5 l 1.3,-0.05 -0.05,0.75 v 0.7 h -3.6 v -0.7 l -0.05,-0.75 1.3,0.05 h 0.5 0.1 M 9.5,-3.9 9.3,-2.2 -9.3,-2.3 -9.5,-3.9 h 19 M 9.2,11.55 H 8.9 -8.9 -9.2 l -0.1,-0.95 18.6,0.05 -0.1,0.9"
         fill="#717d6e"
         fill-opacity="0.701961"
         fill-rule="evenodd"
         stroke="none"
         id="path8" />
      <path
         d="m 4.85,-0.2 h 4.4 l 0.1,5.8 V 8.75 L 6.75,8.65 H 3.7 L 4.15,8 V 7.85 H 4.3 l 0.55,-0.2 0.1,-0.2 q 0,-0.7 -0.8,-0.8 H 3.85 L 3.15,6.2 H 3.1 L 2.8,6.4 2.3,6.7 2.65,7.25 3.15,7.55 3.05,8.1 q 0,0.45 0.3,0.55 L -3.25,8.6 -3.05,8.1 -3.15,7.55 -2.6,7.25 -2.3,6.7 -2.75,6.4 -3.1,6.2 -3.8,6.65 h -0.35 q -0.75,0.1 -0.75,0.8 l 0.1,0.2 q 0.1,0.2 0.5,0.2 h 0.15 V 8 l 0.4,0.6 -5.6,-0.05 V 5.6 l 0.15,-6 1.75,0.2 H -4.8 Q -5.35,0.1 -5.35,0.95 L -5.2,1.3 Q -6,1.3 -6,1.95 l 0.1,0.3 q 0.25,0.3 0.75,0.3 0.45,0 0.8,-0.35 L -4.3,2.15 -4.2,2.2 -3.45,2.7 -3.3,2.45 -2.8,1.75 Q -2.95,1.55 -3.25,1.35 L -3.1,0.5 q 0,-0.5 -0.35,-0.7 h 6.9 Q 3.1,0 3.1,0.5 L 3.3,1.35 2.8,1.75 3.3,2.45 3.45,2.7 4.25,2.2 4.3,2.15 4.4,2.2 Q 4.7,2.55 5.2,2.55 L 5.9,2.25 6,1.95 Q 6,1.3 5.25,1.3 L 5.35,0.95 Q 5.35,0.1 4.85,-0.2 M 2.75,5.75 Q 3.25,5 3.25,4.15 3.25,1.05 0,1.4 -3.2,1.05 -3.2,4.15 q 0,0.85 0.5,1.6 l 0.85,0.85 -0.1,0.5 q 0,0.65 0.9,0.65 L -0.5,7.55 -0.3,7.7 V 7.8 H 0 0.35 V 7.7 L 0.5,7.55 1.1,7.75 q 0.85,0 0.85,-0.65 L 1.85,6.6 2.75,5.75"
         fill="#9dad98"
         fill-opacity="0.701961"
         fill-rule="evenodd"
         stroke="none"
         id="path9" />
      <path
         d="m 4.85,-0.2 -0.7,-0.15 -0.7,0.15 h -6.9 L -4.15,-0.35 -4.8,-0.2 H -7.45 L -9.2,-0.4 -9.25,-0.95 V -1.4 l 16.6,-0.05 1.95,-0.1 -0.05,0.6 V -0.2 H 4.85 M 1.1,5.7 Q 0.35,5.7 0.35,5.15 V 5.1 q 0,-0.65 0.85,-0.65 0.9,-0.1 0.9,0.5 L 1.95,5.3 Q 1.7,5.7 1.1,5.7 m 2.6,2.95 h 3.05 l 2.6,0.1 v 1.1 h -9.7 L -1.8,9.9 H -9.35 V 8.55 l 5.6,0.05 0.2,0.05 0.3,-0.05 6.6,0.05 H 3.55 3.7 M -1.95,5.3 -2.1,4.95 q 0,-0.6 0.9,-0.5 0.9,0 0.9,0.65 v 0.05 q 0,0.55 -0.8,0.55 -0.6,0 -0.85,-0.4"
         fill="#aebda9"
         fill-opacity="0.701961"
         fill-rule="evenodd"
         stroke="none"
         id="path10" />
    </g>
  </defs>
</svg>
