<?xml version="1.0" encoding="UTF-8" standalone="no"?>
<svg
   ffdec:objectType="frame"
   height="24.450001"
   width="19.837931"
   version="1.1"
   id="svg8"
   sodipodi:docname="1.svg"
   xmlns:inkscape="http://www.inkscape.org/namespaces/inkscape"
   xmlns:sodipodi="http://sodipodi.sourceforge.net/DTD/sodipodi-0.dtd"
   xmlns:xlink="http://www.w3.org/1999/xlink"
   xmlns="http://www.w3.org/2000/svg"
   xmlns:svg="http://www.w3.org/2000/svg"
   xmlns:ffdec="https://www.free-decompiler.com/flash">
  <sodipodi:namedview
     id="namedview8"
     pagecolor="#ffffff"
     bordercolor="#000000"
     borderopacity="0.25"
     inkscape:showpageshadow="2"
     inkscape:pageopacity="0.0"
     inkscape:pagecheckerboard="0"
     inkscape:deskcolor="#d1d1d1"
     fit-margin-top="5"
     fit-margin-left="5"
     fit-margin-right="5"
     fit-margin-bottom="5" />
  <g
     transform="translate(9.937931,12.35)"
     id="g2">
    <use
       ffdec:characterId="4184"
       height="8.1000004"
       transform="matrix(-1.1743,0,0,1.1743,6.2845,-2.5379)"
       width="11.3"
       xlink:href="#sprite0"
       id="use1" />
    <use
       ffdec:characterId="4185"
       height="24.450001"
       transform="translate(-9.95,-12.35)"
       width="19.85"
       xlink:href="#shape1"
       id="use2" />
  </g>
  <defs
     id="defs8">
    <g
       id="sprite0"
       transform="translate(5.65,2.8)">
      <use
         ffdec:characterId="3615"
         height="8.0500002"
         transform="matrix(0.6975,0,0,0.6975,-5.6498,-2.79)"
         width="16.200001"
         xlink:href="#sprite1"
         id="use3" />
    </g>
    <g
       id="sprite1"
       transform="translate(8.1,4)">
      <use
         ffdec:characterId="1897"
         height="8.0500002"
         transform="translate(-8.1,-4)"
         width="16.200001"
         xlink:href="#shape0"
         id="use4" />
    </g>
    <g
       id="shape0"
       transform="translate(8.1,4)">
      <path
         d="M 2.3,0.45 0.65,0.65 Q 0.45,1.6 -0.3,2.5 -1.6,4.05 -3.95,4.05 -6.15,4.05 -7.35,2.4 -8.1,1.35 -8.1,0.55 q 0,-4.9 4.4,-4.55 1.75,0.1 3.05,1.2 l 0.8,0.85 0.8,0.1 3.15,0.65 v 0.3 q 0,1 -1.25,1.25 L 2.3,0.45"
         fill="#919191"
         fill-rule="evenodd"
         stroke="none"
         id="path4" />
      <path
         d="M 0.95,-1.85 Q 1.6,-3.2 4.45,-3.1 8.1,-2.9 8.1,-0.75 5.5,1.3 4.1,1.3 3.3,1.3 2.3,0.45 L 2.85,0.35 Q 4.1,0.1 4.1,-0.9 V -1.2 L 0.95,-1.85"
         fill="#919191"
         fill-opacity="0.501961"
         fill-rule="evenodd"
         stroke="none"
         id="path5" />
    </g>
    <g
       id="shape1"
       transform="translate(9.95,12.35)">
      <path
         d="m 7.35,-4.05 -0.05,2 0.1,4.3 V 7.4 L 7.6,9.6 H -7.05 L -7.5,1.9 -7,-5.05 v -0.6 H 7.55 l -0.2,1.6 M 6.6,-8.75 v 0.5 H -6.2 V -8.6 -8.95 H 6.6 v 0.2 m -12.9,5.8 0.45,1.2 q 0.8,1.1 2.55,1.1 1.15,0 1.95,-0.9 0.65,-0.75 0.65,-1.35 0,-2.6 -2.8,-2.55 -2.8,0 -2.8,2.5 M 4.15,7.5 4.2,7.9 q 0.2,0.55 0.9,0.55 l 0.55,-0.2 0.4,-0.7 Q 6.05,6.6 5.1,6.6 4.15,6.6 4.15,7.5"
         fill="#666666"
         fill-opacity="0.329412"
         fill-rule="evenodd"
         stroke="none"
         id="path6" />
      <path
         d="m 4.15,7.5 q 0,-0.9 0.95,-0.9 0.95,0 0.95,0.95 L 5.65,8.25 5.1,8.45 Q 4.4,8.45 4.2,7.9 L 4.15,7.5 M -6.3,-2.95 q 0,-2.5 2.8,-2.5 2.8,-0.05 2.8,2.55 0,0.6 -0.65,1.35 -0.8,0.9 -1.95,0.9 -1.75,0 -2.55,-1.1 l -0.45,-1.2"
         fill="#ffffff"
         fill-rule="evenodd"
         stroke="none"
         id="path7" />
      <path
         d="m 9.9,-12.1 v 1.45 l -0.15,0.2 v 0.25 L 9.4,-9.4 Q 9.05,-9 8.45,-8.95 v 0.4 0.3 h 0.3 q 0.75,0.2 1.05,0.6 V 10.5 L 9.35,12.1 H -9.7 v -18 l 0.05,-0.25 -0.05,-0.1 v -1.5 q 0.4,-0.5 1.35,-0.5 L -8.3,-8.7 v -0.25 h -0.05 q -0.95,0.05 -1.2,-0.6 -0.75,-0.6 -0.05,-2.8 H 9.7 l 0.2,0.25 m -3.3,3.35 v -0.2 H -6.2 v 0.35 0.35 H 6.6 v -0.5 m 0.75,4.7 0.2,-1.6 H -7 v 0.6 L -7.5,1.9 -7.05,9.6 H 7.6 L 7.4,7.4 V 2.25 l -0.1,-4.3 0.05,-2"
         fill="#6b6b6b"
         fill-rule="evenodd"
         stroke="none"
         id="path8" />
    </g>
  </defs>
</svg>
