<?xml version="1.0" encoding="UTF-8" standalone="no"?>
<svg
   ffdec:objectType="frame"
   height="38.551491"
   width="120.2"
   version="1.1"
   id="svg9"
   sodipodi:docname="2.svg"
   xmlns:inkscape="http://www.inkscape.org/namespaces/inkscape"
   xmlns:sodipodi="http://sodipodi.sourceforge.net/DTD/sodipodi-0.dtd"
   xmlns:xlink="http://www.w3.org/1999/xlink"
   xmlns="http://www.w3.org/2000/svg"
   xmlns:svg="http://www.w3.org/2000/svg"
   xmlns:ffdec="https://www.free-decompiler.com/flash">
  <sodipodi:namedview
     id="namedview9"
     pagecolor="#ffffff"
     bordercolor="#000000"
     borderopacity="0.25"
     inkscape:showpageshadow="2"
     inkscape:pageopacity="0.0"
     inkscape:pagecheckerboard="0"
     inkscape:deskcolor="#d1d1d1"
     fit-margin-top="5"
     fit-margin-left="5"
     fit-margin-right="5"
     fit-margin-bottom="5" />
  <g
     transform="translate(60.05,14.951493)"
     id="g2">
    <use
       ffdec:characterId="2626"
       height="38.599998"
       transform="translate(-60.05,-14.95)"
       width="120.2"
       xlink:href="#shape0"
       id="use1" />
    <use
       ffdec:characterId="44"
       height="8"
       transform="matrix(0.853,-0.522,0.522,0.853,39.5562,7.9568)"
       width="10.8"
       xlink:href="#sprite0"
       id="use2" />
  </g>
  <defs
     id="defs9">
    <g
       id="shape0"
       transform="translate(60.05,14.95)">
      <path
         d="M 57.2,-1.2 56.85,-2.45 0.15,-2.4 v -0.05 h -56.9 l -0.35,1.35 -0.1,1 -0.05,0.3 v 0.2 0.35 0.6 l 0.1,19.2 0.1,0.25 H 57.15 L 57.25,20.55 57.3,9.7 h 0.05 V 1.55 0.5 0.4 0.2 -0.1 L 57.2,-1.2 M 37.45,-8.45 q 0,-6.6 10.85,-6.5 l 7.4,1 q 3.4,0.9 3.4,1.85 v 0.15 l 0.1,0.8 q 0.1,4.5 -0.25,6.35 0.8,0.5 0.95,1.2 l 0.2,3.5 0.05,23 -0.55,0.4 -0.85,0.25 h -6.5 l -3.3,0.05 H 47.5 47 45 17.15 2.3 l -60.95,-0.05 -0.85,-0.25 -0.55,-0.4 0.05,-23 0.2,-3.5 q 0.25,-1.1 2,-1.65 l 1.1,-0.1 h 53.35 l 0.3,-0.05 50.4,0.05 -1.95,-1.25 -0.95,-0.8 h -0.1 -5.8 q -1.1,-0.05 -1.1,-1.05 m 2.8,-2.05 -0.25,0.7 -0.05,0.15 h 0.35 l 0.3,0.05 0.85,0.05 h 0.05 0.1 l 0.05,-0.05 0.45,-0.1 h 0.2 l 1.2,-0.05 h 0.25 l 2.05,0.05 2.6,0.1 v -0.1 l 0.05,-0.2 q 0.15,-0.55 0.4,-0.35 l 0.05,-0.05 q 0.3,-0.5 0.85,-0.55 v -0.05 h 0.05 0.75 1 l 0.05,-0.05 0.2,-0.25 0.2,-0.1 1.05,-0.3 h 0.25 l 0.85,0.45 v 0.05 l 0.1,0.2 h 1.15 0.15 l 0.2,0.1 0.55,0.4 0.05,0.3 v 0.2 l 0.05,0.35 h 0.7 v -0.95 -0.15 -0.4 -0.15 -0.15 l -0.5,-0.15 -2.6,-0.7 -3.75,-0.8 -1.2,-0.1 -1.7,-0.1 -2.45,0.15 -2.05,0.35 -1.15,0.45 -0.95,0.65 -0.5,1.1 m 10.15,1.2 h -0.05 v 0.05 l 0.05,1.15 v 0.3 l -0.05,1.65 -0.05,0.25 -0.1,0.55 h 1 L 51.1,-6.4 51.05,-7.1 51,-9.1 v -0.2 h -0.6 m -2.1,0.4 -2.6,0.05 h -0.3 l 0.3,0.1 0.1,0.05 1,0.4 1.4,0.7 0.1,-1.25 V -8.9 m 8.8,0.35 h -0.35 -0.3 v 0.1 0.1 0.45 l -0.1,0.6 v 0.85 1.1 h 0.45 0.55 l -0.2,-1.95 -0.05,-1 v -0.15 -0.1 m -2.5,-0.5 0.05,-0.25 h -1.2 v 0.05 l 0.05,0.15 0.05,0.1 0.05,0.1 v 3.55 h 0.9 V -7 -7.6 l 0.1,-1.1 v -0.35 m -1.85,0.25 q 0,-0.3 0.15,-0.5 h -0.8 l -0.05,3.95 h 0.7 l -0.05,-1.3 0.05,-2 V -8.75 -8.8 M -55.7,17.3 -55.75,15.6 -55.8,11.35 V 9.7 h 0.05 L -55.7,6.9 V 6 h 0.2 l 0.05,-1.95 0.1,-2.5 V 1.1 0.95 h 0.55 v 0.6 L -54.7,6 h 0.2 l 0.05,0.9 0.1,2.8 h 0.05 v 1.65 l -0.05,3.8 -0.05,1.6 h 1 l 8.75,-0.15 h 5.75 l 1.85,-0.05 h 73.6 l 1.9,0.05 h 5.7 l 8.7,0.15 H 53.9 L 53.85,15.2 53.8,11.35 53.85,9.7 H 53.9 L 54,6.9 V 6 h 0.2 L 54.3,1.7 V 1.2 0.95 h 0.55 L 54.9,1.7 V 1.8 L 54.95,4.05 55,6 h 0.2 l 0.05,0.9 0.05,2.8 v 1.65 l -0.1,6.45 -0.15,0.2 -0.35,0.15 -0.45,0.1 -10.1,0.35 h -5.5 l -2.1,0.05 h -73.6 L -39.1,18.6 h -5.55 L -54.75,18.25 -55.45,18 -55.7,17.8 V 17.3 M 51.65,12.25 V 2.75 L 51.7,1.7 51.65,1.1 V 0.95 h 0.9 L 52.6,9.7 h 0.05 v 3.05 l 0.05,0.45 -0.1,1.2 -0.1,0.3 -0.25,0.45 -0.1,0.1 -0.25,-0.1 -0.15,0.05 H 39.5 l -0.75,0.05 h -78 L -40,15.2 h -12.25 l -0.15,-0.05 -0.25,0.1 -0.1,-0.1 -0.35,-0.85 -0.1,-1.1 0.05,-0.45 L -53.1,6 h 0.05 V 0.95 h 0.9 v 0.55 1.25 9.85 0.2 l 0.05,0.35 -0.05,0.5 q 0.95,-0.2 2.7,0 h 9.2 l 1,-0.1 h 78 l 1.05,0.1 h 9.15 q 1.75,-0.2 2.7,0 l -0.05,-0.5 0.05,-0.35 v -0.55"
         fill="#6b6b6b"
         fill-rule="evenodd"
         stroke="none"
         id="path2" />
      <path
         d="M 40.6,-9.6 40.3,-9.65 H 39.95 L 40,-9.8 l 0.25,-0.7 h 0.25 l 0.4,-0.05 q -0.3,0.4 -0.3,0.85 v 0.1 m 16.5,-0.9 v 0.95 H 56.4 L 56.35,-9.9 v -0.2 l -0.05,-0.3 0.8,-0.1 m -8.2,0.2 -0.05,0.05 q -0.25,-0.2 -0.4,0.35 l -0.05,0.2 v 0.1 L 45.8,-9.7 43.75,-9.75 H 43.5 l -1.2,0.05 0.05,-0.15 0.15,-0.4 v -0.15 l 0.05,-0.2 h 0.1 0.7 l 0.75,0.05 1.9,0.05 0.35,0.05 h 0.8 l 1.6,0.1 0.15,0.05 m -0.6,1.4 v 0.05 l -0.1,1.25 -1.4,-0.7 -1,-0.4 -0.1,-0.05 -0.3,-0.1 h 0.3 l 2.6,-0.05 m 5.15,-0.35 V -9.3 h 1.2 l -0.05,0.25 -0.35,-0.05 -0.8,-0.15 m 3.65,0.7 v 0.1 0.15 l 0.05,1 0.2,1.95 H 56.8 56.35 v -1.1 -0.85 l 0.1,-0.6 v -0.45 -0.1 -0.1 h 0.3 0.35"
         fill="#a8a8a8"
         fill-rule="evenodd"
         stroke="none"
         id="path3" />
      <path
         d="m 40.9,-10.55 -0.4,0.05 h -0.25 l 0.5,-1.1 0.95,-0.65 1.15,-0.45 2.05,-0.35 2.45,-0.15 1.7,0.1 1.2,0.1 -2.35,0.1 -0.8,0.1 q -2.5,0.25 -4.1,0.9 l -0.15,0.05 -0.3,0.15 -0.9,0.5 -0.75,0.65 m 16.2,-0.1 v 0.15 l -0.8,0.1 -0.55,-0.4 1.35,0.15 m -1.7,-0.25 h -1.15 l -0.1,-0.2 v -0.05 l 0.75,0.15 0.5,0.1 m -3.4,-0.4 -0.2,0.1 -0.2,0.25 -0.05,0.05 h -1 -0.75 -0.05 v 0.05 q -0.55,0.05 -0.85,0.55 l -0.15,-0.05 -1.6,-0.1 h -0.8 L 46,-10.5 44.1,-10.55 43.35,-10.6 h -0.7 -0.1 l 0.15,-0.1 q 0.35,-0.3 1.35,-0.45 l 1.8,-0.15 2.7,-0.1 3.45,0.1 m -1.65,2.05 V -9.3 h 0.05 l -0.05,0.05 m 0.75,2.85 0.1,1.05 h -1 l 0.1,-0.55 0.05,-0.25 0.2,0.15 0.2,0.05 0.35,-0.45 m 2.35,-2.85 0.8,0.15 0.35,0.05 v 0.35 l -0.1,1.1 V -7 -5.35 H 53.6 V -8.9 L 53.55,-9 53.5,-9.1 53.45,-9.25 m -0.7,0.45 v 0.05 0.1 l -0.05,2 0.05,1.3 h -0.7 L 52.1,-9.3 h 0.8 q -0.15,0.2 -0.15,0.5 m -108.1,10.35 -0.1,2.5 v -2.5 h 0.1"
         fill="#d4d4d4"
         fill-rule="evenodd"
         stroke="none"
         id="path4" />
      <path
         d="m 40.6,-9.6 v -0.1 q 0,-0.45 0.3,-0.85 l 0.75,-0.65 0.9,-0.5 0.3,-0.15 0.15,-0.05 q 1.6,-0.65 4.1,-0.9 l 0.8,-0.1 2.35,-0.1 3.75,0.8 2.6,0.7 0.5,0.15 v 0.15 0.15 0.4 l -1.35,-0.15 -0.2,-0.1 H 55.4 L 54.9,-11 54.15,-11.15 53.3,-11.6 h -0.25 l -1.05,0.3 -3.45,-0.1 -2.7,0.1 -1.8,0.15 q -1,0.15 -1.35,0.45 l -0.15,0.1 -0.05,0.2 v 0.15 l -0.15,0.4 -0.05,0.15 h -0.2 l -0.45,0.1 -0.05,0.05 H 41.5 41.45 L 40.6,-9.6 m 9.75,0.35 0.05,-0.05 H 51 v 0.2 l 0.05,2 0.05,0.7 -0.35,0.45 -0.2,-0.05 -0.2,-0.15 0.05,-1.65 v -0.3 l -0.05,-1.15"
         fill="#ffffff"
         fill-rule="evenodd"
         stroke="none"
         id="path5" />
      <path
         d="M 57.35,1.55 V 9.7 H 57.3 l -0.05,10.85 -0.1,0.25 h -114.2 l -0.1,-0.25 -0.1,-19.2 h 0.05 l 1.4,0.2 0.05,0.05 0.2,0.9 V 3.7 L -55.7,6 h -0.2 v 3.7 h 0.05 l 0.05,5.95 0.05,-0.05 0.05,1.7 -0.1,-0.1 v 0.85 q -0.85,0.1 -0.85,0.95 v 0.05 q 0,0.85 0.85,0.95 h 0.15 l 110,-0.1 0.9,-0.6 0.1,0.15 0.15,-0.25 0.45,0.05 v -1.1 -4.45 l 0.1,-4 0.05,-2.8 V 6 5.4 1.7 h 0.45 l 0.8,-0.15 m -112.15,0 h 0.15 l 0.6,-0.05 h 0.6 V 6 h 0.05 v 8.5 l -0.25,0.65 v 0.05 l 0.25,0.75 0.75,0.25 h 104.6 l 0.8,-0.3 0.2,-0.7 V 15.15 14.9 q 0.5,-0.95 0.5,-2.65 L 53.35,9.7 H 53.4 L 53.45,6 h 0.1 L 53.6,1.7 h 0.7 L 54.2,6 H 54 v 0.9 l -0.1,2.8 h -0.05 l -0.05,1.65 0.05,3.85 0.05,1.55 h -1.05 l -8.7,-0.15 h -5.7 l -1.9,-0.05 h -73.6 l -1.85,0.05 h -5.75 l -8.75,0.15 h -1 l 0.05,-1.6 0.05,-3.8 V 9.7 h -0.05 L -54.45,6.9 -54.5,6 h -0.2 l -0.1,-4.45 m 2.65,11.05 8.5,-0.3 94.6,-0.25 0.7,0.2 v 0.55 l -0.05,0.35 0.05,0.5 q -0.95,-0.2 -2.7,0 H 39.8 l -1.05,-0.1 h -78 l -1,0.1 h -9.2 q -1.75,-0.2 -2.7,0 l 0.05,-0.5 -0.05,-0.35 v -0.2"
         fill="#7b7b7b"
         fill-rule="evenodd"
         stroke="none"
         id="path6" />
      <path
         d="m -57.1,-1.1 0.35,-1.35 h 56.9 v 0.05 l 56.7,-0.05 0.35,1.25 -0.65,-0.2 -110.6,0.2 -3.05,0.1 M 51.7,1.7 51.65,2.75 v 9.5 l -0.7,-0.2 -94.6,0.25 -8.5,0.3 V 2.75 1.5 L 51.7,1.7"
         fill="#878787"
         fill-rule="evenodd"
         stroke="none"
         id="path7" />
      <path
         d="m -57.1,-1.1 3.05,-0.1 110.6,-0.2 0.65,0.2 0.15,1.1 V 0.2 0.4 0.5 1.55 L 56.55,1.7 H 56.1 V 5.4 6 6.9 l -0.05,2.8 -0.1,4 v 4.45 1.1 l -0.45,-0.05 -0.15,0.25 -0.1,-0.15 -0.9,0.6 -110,0.1 h -0.15 q -0.85,-0.1 -0.85,-0.95 V 19 q 0,-0.85 0.85,-0.95 L -55.65,18 h 0.2 l 0.7,0.25 10.1,0.35 h 5.55 l 2.05,0.05 h 73.6 l 2.1,-0.05 h 5.5 l 10.1,-0.35 0.45,-0.1 0.35,0.15 V 18 l 0.15,-0.2 0.1,-6.45 V 9.7 L 55.25,6.9 55.2,6 H 55 L 54.95,4.05 54.9,1.8 V 1.7 L 54.85,0.95 H 54.3 V 1.2 1.7 H 53.6 L 53.55,6 h -0.1 L 53.4,9.7 h -0.05 l 0.1,2.55 q 0,1.7 -0.5,2.65 v 0.25 0.05 l -0.2,0.7 -0.8,0.3 H -52.65 L -53.4,15.95 -53.65,15.2 V 15.15 L -53.4,14.5 V 6 h -0.05 V 1.5 h -0.6 l -0.6,0.05 h -0.15 v -0.6 h -0.55 V 1.1 1.55 h -0.1 v 2.5 L -55.5,6 h -0.2 v 0.9 l -0.05,2.8 h -0.05 v 1.65 l 0.05,4.25 -0.05,0.05 -0.05,-5.95 H -55.9 V 6 h 0.2 l 0.15,-2.3 V 2.5 l -0.2,-0.9 -0.05,-0.05 -1.4,-0.2 h -0.05 V 0.75 0.4 0.2 l 0.05,-0.3 0.1,-1 M 51.7,1.7 -52.15,1.5 V 0.95 h -0.9 V 6 h -0.05 l -0.05,6.75 -0.05,0.45 0.1,1.1 0.35,0.85 0.1,0.1 0.25,-0.1 0.15,0.05 H -40 l 0.75,0.05 h 78 L 39.5,15.2 h 12.25 l 0.15,-0.05 0.25,0.1 0.1,-0.1 0.25,-0.45 0.1,-0.3 0.1,-1.2 -0.05,-0.45 V 9.7 H 52.6 L 52.55,0.95 h -0.9 V 1.1 l 0.05,0.6"
         fill="#a1a1a1"
         fill-rule="evenodd"
         stroke="none"
         id="path8" />
    </g>
    <g
       id="sprite0"
       transform="translate(5.4,4)">
      <use
         ffdec:characterId="43"
         height="8"
         transform="translate(-5.4,-4)"
         width="10.8"
         xlink:href="#shape1"
         id="use8" />
    </g>
    <g
       id="shape1"
       transform="translate(5.4,4)">
      <path
         d="m 2.9,-0.35 q 0,-1.25 1.25,-1.25 1.25,0 1.25,1.2 0,1.3 -1.25,1.3 Q 3.6,0.9 3.25,0.5 2.9,0.15 2.9,-0.35 m 0.35,-2.3 q 0,0.55 -0.35,0.9 -0.4,0.45 -1,0.45 -1.35,0 -1.35,-1.4 0,-1.3 1.35,-1.3 1.35,0 1.35,1.35 m -3.1,1.9 h 0.2 q 2.6,0.1 2.6,2.8 l -0.3,1 Q 2.05,4 0.45,4 H 0.35 0.15 0.1 -0.45 q -1.6,0 -2.2,-0.95 l -0.3,-1 q 0,-2.8 2.8,-2.8 h 0.3 M -1.55,-4 q 1.35,0 1.35,1.35 0,0.55 -0.4,0.9 -0.4,0.45 -0.95,0.45 -1.4,0 -1.4,-1.4 0,-1.3 1.4,-1.3 m -2.6,2.4 q 1.25,0 1.25,1.25 0,0.5 -0.35,0.85 -0.35,0.4 -0.9,0.4 -1.25,0 -1.25,-1.3 0,-1.2 1.25,-1.2"
         fill="#6b6b6b"
         fill-rule="evenodd"
         stroke="none"
         id="path9" />
    </g>
  </defs>
</svg>
