<?xml version="1.0" encoding="UTF-8" standalone="no"?>
<svg
   ffdec:objectType="frame"
   height="25.534615"
   width="22.950001"
   version="1.1"
   id="svg2"
   sodipodi:docname="1.svg"
   xmlns:inkscape="http://www.inkscape.org/namespaces/inkscape"
   xmlns:sodipodi="http://sodipodi.sourceforge.net/DTD/sodipodi-0.dtd"
   xmlns:xlink="http://www.w3.org/1999/xlink"
   xmlns="http://www.w3.org/2000/svg"
   xmlns:svg="http://www.w3.org/2000/svg"
   xmlns:ffdec="https://www.free-decompiler.com/flash">
  <sodipodi:namedview
     id="namedview2"
     pagecolor="#ffffff"
     bordercolor="#000000"
     borderopacity="0.25"
     inkscape:showpageshadow="2"
     inkscape:pageopacity="0.0"
     inkscape:pagecheckerboard="0"
     inkscape:deskcolor="#d1d1d1"
     fit-margin-top="5"
     fit-margin-left="5"
     fit-margin-right="5"
     fit-margin-bottom="5" />
  <g
     transform="translate(11.4,12.734615)"
     id="g1">
    <use
       ffdec:characterId="3858"
       height="25.549999"
       transform="translate(-11.4,-12.75)"
       width="22.950001"
       xlink:href="#shape0"
       id="use1" />
  </g>
  <defs
     id="defs2">
    <g
       id="shape0"
       transform="translate(11.4,12.75)">
      <path
         d="m 9.4,-7.75 q 2.15,-1.05 2.15,1.5 l -0.25,1.4 -0.5,0.75 q 0.65,1.4 0.65,3.35 0,2.3 -2,4.25 l -0.7,0.65 q 1.85,2.35 1.85,4.7 0,1.5 -1.4,2.5 -2,1.45 -6.25,1.45 -4.9,0 -7.2,-1.9 -1.3,-1.1 -1.4,-2.2 L -5.85,8.5 Q -7.55,8.25 -8.4,6.3 L -9,4.2 Q -9,0.5 -6.3,1.75 -5.35,2.2 -4.75,2.8 L -5.3,0.85 V 0.5 Q -8,0.1 -8.95,-2.05 l -0.2,-1.3 q -0.85,-0.1 -1.55,-0.8 -0.55,-0.6 -0.6,-1.1 l -0.1,-0.1 0.1,-0.75 h 2.05 q 0.35,-1.85 1.7,-3.1 1.55,-1.4 3.85,-1.65 0.1,-1.55 1.35,-1.85 1.25,-0.3 1.3,2 0.9,0.2 1.65,0.7 1.65,1.05 1.85,2.95 l 0.05,-0.05 3.65,-0.15 1.65,0.5 1.6,-1 M 2.7,-4.6 q -0.4,0.55 -0.9,0.55 l -0.1,0.2 -0.15,-0.4 -0.3,-0.5 V -5 -5.45 q 0,-2.65 -1.55,-2.85 -0.85,-0.6 -2.4,-0.6 h -0.4 l -1.95,0.5 q -1.7,0.45 -1.8,2.85 l -0.2,0.9 0.05,0.4 q 0.05,0.65 0.45,1.1 v 0.05 l 0.35,0.45 q 0.45,0.65 1.3,1 0.5,0.45 1.15,0.65 l 1,0.15 h 0.4 0.35 0.45 0.25 Q -1.35,0.2 -2.85,0.5 l 0.1,0.9 q 0.2,1.35 1.6,1.95 L 0,3.65 1.2,3.8 h 0.55 l 1,-0.05 h 0.3 L 3.95,3.6 Q 5.95,3.2 7.4,2.05 9.1,0.65 9.1,-0.8 9.1,-2.1 8.3,-3.3 6.95,-5.2 4,-5.2 q -0.9,0 -1.3,0.6 m -0.9,4 -0.25,1.25 0.25,0.3 0.9,-0.6 q 0.35,-0.3 0.7,-0.3 0.2,0 0.45,0.35 L 4.3,0.75 5.1,0.55 v -1.6 L 5.7,-1.1 q 0.35,0.6 0.35,1.45 0,0.95 -0.5,1.05 h -2 Q 3.2,1.4 2.75,1.7 L 2,1.95 0.95,1.65 0.65,1.15 V 1 L 0.6,0.35 0.65,-0.75 1.2,-0.85 1.8,-0.6 M 0.6,-1.8 q 0,0.7 -0.85,0.7 L -1,-1.2 -1.1,-1.4 v -0.35 q 0,-0.55 0.4,-0.65 l 1.15,0.05 0.1,0.1 0.05,0.45 M 9.45,-5.85 9.4,-5.8 9.55,-5.7 9.45,-5.85 m -2.75,5 -0.65,-0.7 q 0,-1 1.25,-0.65 l 0.1,0.65 -0.1,0.45 -0.6,0.25 m 0.55,5.9 q -1.9,0.9 -4.5,1.1 H 1.7 L 0.25,6.1 -1.7,5.65 l -0.85,1 H -2.6 L -3,7.05 q -0.55,0.6 -0.55,1 l 0.2,0.7 1.3,0.9 -0.05,-0.1 q 0,-0.6 0.35,-1.25 l 0.2,-0.25 Q -1.2,7.5 -0.65,7.4 l 0.15,-0.05 0.1,0.4 -0.1,0.5 -0.2,0.35 -0.35,0.8 0.2,0.65 0.8,0.2 Q 0.55,9.95 0.5,9.4 L 0.45,8.15 0.5,7.9 1,7.65 1.2,7.8 1.6,8.5 V 9.55 L 1.5,10.4 2.95,10.45 H 3.8 L 3.45,9.65 Q 3.45,8.6 3.85,7.8 L 4.7,7.75 4.65,8.55 q 0,1.7 0.85,1.7 h 0.05 l 0.6,-0.1 q 0.5,-0.3 0.45,-1 L 6.35,8.05 6.55,7.35 6.95,6.7 7.75,8.2 7.9,9.3 8.25,8.9 Q 8.85,8.15 8.6,7.3 8.6,6.4 7.5,5.35 L 7.25,5.1 V 5.05 m -10.3,-13 0.4,-0.15 q 0.55,0.35 0.55,0.65 l -0.05,0.6 -0.5,0.25 -0.65,-0.75 0.25,-0.6 m 1.4,1.4 1.05,0.05 q 0.55,0.45 0.5,1.25 -0.1,0.75 -1.4,1.75 -1.3,0.95 -2.65,0.15 l -0.1,-0.35 0.1,-0.4 h 0.35 l 1.2,-0.1 q 0.1,-0.2 0.05,-0.5 v -0.1 l -0.1,-0.8 1.65,0.25 -0.35,-0.6 -0.4,-0.55 0.1,-0.05 m -4.1,1.1 0.25,-0.45 0.35,-0.05 0.6,0.45 -0.05,0.55 -0.55,0.2 -0.45,-0.15 -0.15,-0.55 m 0.9,10.9 -0.7,-0.85 -1.1,-1.55 -0.7,0.1 v 1.4 l 1.55,1.5 0.55,0.45 0.2,-0.6 0.2,-0.45"
         fill="#6b6b6b"
         fill-rule="evenodd"
         stroke="none"
         id="path1" />
      <path
         d="M 0.6,-1.8 0.55,-2.25 0.45,-2.35 -0.7,-2.4 q -0.4,0.1 -0.4,0.65 v 0.35 l 0.1,0.2 0.75,0.1 q 0.85,0 0.85,-0.7 M 1.8,-0.6 1.2,-0.85 0.65,-0.75 0.6,0.35 0.65,1 V 1.15 L 0.95,1.65 2,1.95 2.75,1.7 Q 3.2,1.4 3.55,1.4 h 2 Q 6.05,1.3 6.05,0.35 6.05,-0.5 5.7,-1.1 l -0.6,0.05 v 1.6 L 4.3,0.75 3.85,0.4 Q 3.6,0.05 3.4,0.05 3.05,0.05 2.7,0.35 L 1.8,0.95 1.55,0.65 1.8,-0.6 m 0.9,-4 q 0.4,-0.6 1.3,-0.6 2.95,0 4.3,1.9 0.8,1.2 0.8,2.5 0,1.45 -1.7,2.85 Q 5.95,3.2 3.95,3.6 l -0.9,0.15 h -0.3 l -1,0.05 H 1.2 L 0,3.65 -1.15,3.35 q -1.4,-0.6 -1.6,-1.95 l -0.1,-0.9 q 1.5,-0.3 1.55,-1.35 H -1.55 -2 -2.35 -2.75 L -3.75,-1 Q -4.4,-1.2 -4.9,-1.65 -5.75,-2 -6.2,-2.65 L -6.55,-3.1 V -3.15 Q -6.95,-3.6 -7,-4.25 l -0.05,-0.4 0.2,-0.9 q 0.1,-2.4 1.8,-2.85 l 1.95,-0.5 h 0.4 q 1.55,0 2.4,0.6 1.55,0.2 1.55,2.85 V -5 -4.75 l 0.3,0.5 0.15,0.4 0.1,-0.2 q 0.5,0 0.9,-0.55 M -4.85,5.45 -5.05,5.9 -5.25,6.5 -5.8,6.05 -7.35,4.55 v -1.4 l 0.7,-0.1 1.1,1.55 0.7,0.85 m -0.9,-10.9 0.15,0.55 0.45,0.15 0.55,-0.2 0.05,-0.55 -0.6,-0.45 -0.35,0.05 -0.25,0.45 m 4.1,-1.1 -0.1,0.05 0.4,0.55 0.35,0.6 -1.65,-0.25 0.1,0.8 v 0.1 q 0.05,0.3 -0.05,0.5 l -1.2,0.1 h -0.35 l -0.1,0.4 0.1,0.35 q 1.35,0.8 2.65,-0.15 1.3,-1 1.4,-1.75 0.05,-0.8 -0.5,-1.25 l -1.05,-0.05 m -1.4,-1.4 -0.25,0.6 0.65,0.75 0.5,-0.25 0.05,-0.6 q 0,-0.3 -0.55,-0.65 l -0.4,0.15 m 10.3,13 V 5.1 L 7.5,5.35 Q 8.6,6.4 8.6,7.3 8.85,8.15 8.25,8.9 L 7.9,9.3 7.75,8.2 6.95,6.7 6.55,7.35 6.35,8.05 6.6,9.15 q 0.05,0.7 -0.45,1 l -0.6,0.1 H 5.5 q -0.85,0 -0.85,-1.7 L 4.7,7.75 3.85,7.8 q -0.4,0.8 -0.4,1.85 l 0.35,0.8 H 2.95 L 1.5,10.4 1.6,9.55 V 8.5 L 1.2,7.8 1,7.65 0.5,7.9 0.45,8.15 0.5,9.4 q 0.05,0.55 -0.55,0.85 L -0.85,10.05 -1.05,9.4 -0.7,8.6 -0.5,8.25 -0.4,7.75 -0.5,7.35 -0.65,7.4 Q -1.2,7.5 -1.55,8.05 L -1.75,8.3 Q -2.1,8.95 -2.1,9.55 l 0.05,0.1 -1.3,-0.9 -0.2,-0.7 q 0,-0.4 0.55,-1 l 0.4,-0.4 h 0.05 l 0.85,-1 1.95,0.45 1.45,0.05 h 1.05 q 2.6,-0.2 4.5,-1.1 M 6.7,-0.85 7.3,-1.1 7.4,-1.55 7.3,-2.2 Q 6.05,-2.55 6.05,-1.55 l 0.65,0.7"
         fill="#cdcdcd"
         fill-rule="evenodd"
         stroke="none"
         id="path2" />
    </g>
  </defs>
</svg>
