<?xml version="1.0" encoding="UTF-8" standalone="no"?>
<svg
   ffdec:objectType="frame"
   height="20.99991"
   width="17.099987"
   version="1.1"
   id="svg10"
   sodipodi:docname="2.svg"
   xmlns:inkscape="http://www.inkscape.org/namespaces/inkscape"
   xmlns:sodipodi="http://sodipodi.sourceforge.net/DTD/sodipodi-0.dtd"
   xmlns:xlink="http://www.w3.org/1999/xlink"
   xmlns="http://www.w3.org/2000/svg"
   xmlns:svg="http://www.w3.org/2000/svg"
   xmlns:ffdec="https://www.free-decompiler.com/flash">
  <sodipodi:namedview
     id="namedview10"
     pagecolor="#ffffff"
     bordercolor="#000000"
     borderopacity="0.25"
     inkscape:showpageshadow="2"
     inkscape:pageopacity="0.0"
     inkscape:pagecheckerboard="0"
     inkscape:deskcolor="#d1d1d1"
     fit-margin-top="5"
     fit-margin-left="5"
     fit-margin-right="5"
     fit-margin-bottom="5" />
  <g
     transform="translate(8.6,13.34991)"
     id="g3">
    <use
       ffdec:characterId="4067"
       height="18.549999"
       transform="translate(-8.6,-10.9)"
       width="17.1"
       xlink:href="#sprite0"
       id="use1" />
    <use
       ffdec:characterId="4069"
       height="15.15"
       transform="matrix(0.6718,0,0,0.6718,-5.8042,-14.7271)"
       width="8.25"
       xlink:href="#sprite1"
       id="use2" />
    <use
       ffdec:characterId="3500"
       height="8"
       transform="matrix(-0.2363,0.4827,0.4827,0.2363,3.6451,-6.3514)"
       width="10.8"
       xlink:href="#sprite2"
       id="use3" />
  </g>
  <defs
     id="defs10">
    <g
       id="sprite0"
       transform="translate(8.55,9.25)">
      <use
         ffdec:characterId="3334"
         height="5.9000001"
         transform="translate(-6.95,-7.8)"
         width="4.4000001"
         xlink:href="#shape0"
         id="use4" />
      <use
         ffdec:characterId="4066"
         height="18.549999"
         transform="translate(-8.55,-9.25)"
         width="17.1"
         xlink:href="#shape1"
         id="use5" />
    </g>
    <g
       id="shape0"
       transform="translate(6.95,7.8)">
      <path
         d="m -4,-4.4 q -1.55,2.5 -2.2,2.5 -0.75,0 -0.75,-0.8 0,-0.9 2.2,-3.55 2.2,-2.65 2.2,-0.8 0,0.35 -1.45,2.65"
         fill="#ffffff"
         fill-rule="evenodd"
         stroke="none"
         id="path5" />
    </g>
    <g
       id="shape1"
       transform="translate(8.55,9.25)">
      <path
         d="m -0.9,-4.3 -0.95,0.05 -1.2,-1.45 -0.25,-0.4 -0.3,-0.2 -0.35,-0.55 -0.45,-0.5 h 0.45 l 0.15,-0.05 0.55,0.05 0.15,-0.05 4.3,-0.2 h 1.1 l 0.6,0.05 -2.7,0.9 -2.1,0.5 0.25,0.55 0.15,0.35 0.6,0.95 m 5.5,-3.1 0.25,0.45 q 0,0.9 -0.75,2.5 H 3.25 L 3.5,-5.15 3.8,-5.8 4.55,-7.35 4.6,-7.4 M 2.5,3.55 1.7,4.9 2.65,-0.7 2.7,-2.45 2.8,-3 2.85,-3.35 3,-3.4 H 3.35 Q 3.5,-2.25 2.9,1.15 l -0.4,2.4 m -3.05,-6.8 q 0.2,0.45 0.3,1.8 V -0.3 L 0.1,1.25 Q 0.6,3.7 0.7,6.1 L 0.55,7.15 0.5,7.25 0.45,7.1 0,5.75 -0.2,4.35 -0.25,4.2 -0.8,2.15 -1.9,-2.15 -2,-2.7 -2.2,-3.25 h 1.65 m -4.65,-0.9 -0.85,0.1 -0.5,-0.05 1.55,-2.95 0.75,1.3 -0.35,0.65 -0.6,0.95 m -1.35,1.1 H -6.4 L -5.35,-3.1 -2.9,0.75 -1.6,2.7 -1,5 -4.1,0.6 -6.5,-2.9 -6.55,-3.05"
         fill="#ffffff"
         fill-rule="evenodd"
         stroke="none"
         id="path6" />
      <path
         d="M 2.9,-7.55 2.3,-7.6 H 1.2 l -4.3,0.2 -0.15,0.05 -0.55,-0.05 -0.15,0.05 H -4.4 l 0.45,0.5 0.35,0.55 0.3,0.2 0.25,0.4 1.2,1.45 0.95,-0.05 2.7,-0.05 q 0.1,-0.4 0.95,-1.6 l 1.3,-1.75 -0.8,0.1 -0.35,0.05 m 2.05,-1.1 H 5 l 0.05,0.1 V -8.5 L 5.35,-8.25 7.1,-5.9 8.05,-4.25 8,-4.2 7.95,-4.1 v 0.15 L 1.25,8.35 0.9,8.65 v 0.1 H 0.7 0.55 L 0.3,8.8 H 0.15 L 0.25,8.65 -0.7,7.85 -1.45,6.9 -1.6,6.75 -2.95,5.1 l -2,-3.3 -1.7,-2.5 Q -7.9,-2.6 -8,-3.5 L -8.05,-3.65 V -3.7 l 0.45,-1.1 0.85,-1.1 1.6,-2.55 10,-0.3 0.1,0.1 M 4.6,-7.4 H 4.55 v 0.05 L 3.8,-5.8 3.5,-5.15 3,-4.45 H 3.25 4.1 l 1.8,-0.1 H 6.45 Q 5.8,-5.3 4.85,-6.95 L 4.6,-7.4 M 2.5,3.55 4.4,0.3 6.6,-3.5 6.45,-3.55 3.4,-3.45 3.35,-3.4 H 3 L 2.85,-3.35 2.8,-3 2.75,-2.65 2.7,-2.45 2.65,-0.7 1.7,4.9 2.5,3.55 M 0.7,6.1 V 5.7 Q 0.75,4.3 2.2,-3.35 l -2.75,0.1 H -2.2 l 0.2,0.55 0.1,0.55 1.1,4.3 L -0.25,4.2 -0.2,4.35 0,5.75 0.45,7.1 0.5,7.25 0.55,7.15 0.7,6.1 M -4.25,-5.75 -5,-7.05 l -1.55,2.95 0.5,0.05 0.85,-0.1 2.1,-0.05 -1,-1.35 -0.15,-0.2 m -2.3,2.7 L -6.6,-3 -6.5,-2.9 -4.1,0.6 -1,5 -1.6,2.7 -2.45,-0.6 -2.7,-2.5 l -0.25,-0.7 -2.4,0.1 -1.05,0.05 h -0.15"
         fill="#6b6b6b"
         fill-rule="evenodd"
         stroke="none"
         id="path7" />
      <path
         d="m 4.95,-8.65 -0.1,-0.1 -10,0.3 -1.6,2.55 -0.85,1.1 -0.45,1.1 v 0.05 L -8,-3.5 q 0.1,0.9 1.35,2.8 l 1.7,2.5 2,3.3 1.35,1.65 0.15,0.15 0.75,0.95 0.95,0.8 -0.1,0.15 H 0.3 L 0.55,8.75 H 0.7 0.9 v -0.1 l 0.35,-0.3 6.7,-12.3 V -4.1 L 8,-4.2 8.05,-4.25 7.1,-5.9 5.35,-8.25 5.05,-8.5 v -0.05"
         fill="none"
         stroke="#6b6b6b"
         stroke-linecap="round"
         stroke-linejoin="round"
         stroke-width="1"
         id="path8" />
    </g>
    <g
       id="sprite1"
       transform="translate(4.1,8.6)">
      <use
         ffdec:characterId="827"
         height="13.1"
         transform="translate(-4.1,-6.55)"
         width="8.25"
         xlink:href="#shape2"
         id="use8" />
    </g>
    <g
       id="shape2"
       transform="translate(4.1,6.55)">
      <path
         d="m 4.15,-6.55 q -1,2.6 -3.3,6.6 L 3.25,2.5 2.8,2.65 0.5,0.7 -0.05,1.55 q -3,5 -3.55,5 H -3.95 L -4.05,6.45 -4.1,6.2 q 0,-0.45 3.1,-5.25 l 0.65,-1 -2.1,-1.8 q 0,-1.2 2.05,0.7 l 0.5,0.45 4.05,-5.85"
         fill="#ffffff"
         fill-rule="evenodd"
         stroke="none"
         id="path9" />
    </g>
    <g
       id="sprite2"
       transform="translate(5.4,4)">
      <use
         ffdec:characterId="43"
         height="8"
         transform="translate(-5.4,-4)"
         width="10.8"
         xlink:href="#shape3"
         id="use9" />
    </g>
    <g
       id="shape3"
       transform="translate(5.4,4)">
      <path
         d="m 2.9,-0.35 q 0,-1.25 1.25,-1.25 1.25,0 1.25,1.2 0,1.3 -1.25,1.3 Q 3.6,0.9 3.25,0.5 2.9,0.15 2.9,-0.35 m 0.35,-2.3 q 0,0.55 -0.35,0.9 -0.4,0.45 -1,0.45 -1.35,0 -1.35,-1.4 0,-1.3 1.35,-1.3 1.35,0 1.35,1.35 m -3.1,1.9 h 0.2 q 2.6,0.1 2.6,2.8 l -0.3,1 Q 2.05,4 0.45,4 H 0.35 0.15 0.1 -0.45 q -1.6,0 -2.2,-0.95 l -0.3,-1 q 0,-2.8 2.8,-2.8 h 0.3 M -1.55,-4 q 1.35,0 1.35,1.35 0,0.55 -0.4,0.9 -0.4,0.45 -0.95,0.45 -1.4,0 -1.4,-1.4 0,-1.3 1.4,-1.3 m -2.6,2.4 q 1.25,0 1.25,1.25 0,0.5 -0.35,0.85 -0.35,0.4 -0.9,0.4 -1.25,0 -1.25,-1.3 0,-1.2 1.25,-1.2"
         fill="#6b6b6b"
         fill-opacity="0.498039"
         fill-rule="evenodd"
         stroke="none"
         id="path10" />
    </g>
  </defs>
</svg>
