<?xml version="1.0" encoding="UTF-8" standalone="no"?>
<svg
   ffdec:objectType="frame"
   height="68.25"
   width="97.349998"
   version="1.1"
   id="svg3"
   sodipodi:docname="1.svg"
   xmlns:inkscape="http://www.inkscape.org/namespaces/inkscape"
   xmlns:sodipodi="http://sodipodi.sourceforge.net/DTD/sodipodi-0.dtd"
   xmlns:xlink="http://www.w3.org/1999/xlink"
   xmlns="http://www.w3.org/2000/svg"
   xmlns:svg="http://www.w3.org/2000/svg"
   xmlns:ffdec="https://www.free-decompiler.com/flash">
  <sodipodi:namedview
     id="namedview3"
     pagecolor="#ffffff"
     bordercolor="#000000"
     borderopacity="0.25"
     inkscape:showpageshadow="2"
     inkscape:pageopacity="0.0"
     inkscape:pagecheckerboard="0"
     inkscape:deskcolor="#d1d1d1"
     fit-margin-top="5"
     fit-margin-left="5"
     fit-margin-right="5"
     fit-margin-bottom="5" />
  <g
     transform="translate(48.7,32)"
     id="g1">
    <use
       ffdec:characterId="1239"
       height="68.25"
       transform="translate(-48.7,-32)"
       width="97.349998"
       xlink:href="#shape0"
       id="use1" />
  </g>
  <defs
     id="defs3">
    <g
       id="shape0"
       transform="translate(48.7,32)">
      <path
         d="M 44.75,-8.7 V -20.2 L 44.5,-23.8 H 9.4 L 4.2,-23.9 H 4.05 3.95 l -1,0.05 H 2.9 l -6.1,0.05 h -41.4 l -0.25,3.6 v 11.5 l 0.05,0.2 0.1,30.05 h 0.05 v 5.15 q 2.05,-0.25 5.85,-0.1 h 77.5 q 3.8,-0.15 5.85,0.1 v -5.15 h 0.05 l 0.1,-30.05 0.05,-0.2 m -2.95,-13.35 0.15,0.3 v 0.1 l 0.2,1.4 0.1,1.3 v 0.4 h 0.05 l -0.05,2.65 0.1,0.75 -0.05,2.05 -0.2,2.8 0.15,0.4 q 0,0.45 -0.35,0.65 l -0.15,0.3 -0.65,0.15 h -82.3 l -0.65,-0.15 -0.15,-0.3 q -0.35,-0.2 -0.35,-0.65 l 0.15,-0.4 -0.2,-2.8 -0.05,-2.05 0.1,-0.75 v -2.65 -0.4 l 0.1,-1.3 0.2,-1.4 v -0.1 l 0.15,-0.3 q 0.25,-0.95 0.75,-0.5 h 0.3 l 0.5,0.05 2.1,-0.05 H 4.4 4.6 4.8 38.15 l 2.1,0.05 0.5,-0.05 h 0.3 q 0.5,-0.45 0.75,0.5 m -2,3 -0.05,-1.65 h -1.6 L 5,-20.8 l -0.4,0.05 -0.4,-0.05 -42.45,0.1 h -1.6 l -0.05,1.45 v 0.3 l -0.05,0.4 -0.15,2.9 -0.35,5 0.4,0.3 h 0.45 79.1 0.5 l 0.35,-0.3 -0.3,-5 -0.2,-2.9 -0.05,-0.4 v -0.1 m 0.95,11.5 0.3,0.05 Q 41.55,-8 41.8,-7 l 0.15,0.35 v 0.1 l 0.2,1.5 0.05,0.6 0.05,0.3 V -4 -2.75 l 0.05,0.85 v 0.4 0.05 l -0.05,3.2 0.1,0.7 v 2 L 42.3,4.6 V 4.95 5 5.45 H 42.25 L 42.1,6.7 42.25,7.1 41.9,7.85 41.75,8.15 41.1,8.25 H -41.2 L -41.85,8.15 -42,7.85 Q -42.35,7.6 -42.35,7.1 L -42.2,6.7 -42.35,5.45 -42.4,5 V 4.95 4.6 4.45 l -0.05,-2 0.1,-0.7 V -1.45 -1.5 -1.9 -2.75 L -42.3,-4 v -0.45 l 0.05,-0.6 0.2,-1.5 v -0.1 L -41.9,-7 q 0.25,-1 0.75,-0.5 l 0.3,-0.05 0.5,0.1 2.1,-0.1 42.65,0.05 h 0.2 0.2 l 33.35,-0.05 2.1,0.1 0.5,-0.1 m -0.9,4.2 L 39.8,-4 V -4.2 -4.45 L 39.75,-5.4 V -5.5 L 38.15,-5.55 5.1,-5.6 H 4.6 4.1 l -42.35,0.05 -1.5,0.05 h -0.1 v 0.15 0.6 0.3 l -0.05,0.45 -0.05,0.75 v 0.5 0.85 0.4 0.05 H -40 l -0.05,4.6 h -0.15 l -0.05,1.3 -0.05,0.5 h -0.05 V 5 5.45 h -0.05 l -0.05,0.85 0.4,0.35 H -39.6 39.5 40 Q 40.1,6.4 40.35,6.3 L 40.3,5.45 40.25,5 V 4.95 H 40.2 V 4.45 L 40.1,3.15 H 40 l -0.1,-4.6 V -1.5 -1.9 l -0.05,-0.85 v -0.6 M 29.45,-17 29.4,-17.4 q 0,-0.45 0.15,-0.5 l 0.2,-0.05 h 0.2 l 2.1,0.1 H 33 l 0.15,-0.25 0.25,0.3 h 0.2 l 0.75,0.1 v -0.15 l 0.05,0.05 v 0.4 l -0.15,0.55 -0.45,0.15 v 0.05 0.65 0.15 l -0.05,0.35 -0.1,2.65 -1.35,0.15 -2.2,-0.2 -0.4,0.3 -0.6,-0.3 -0.1,-0.15 h -0.05 l -0.15,-0.6 0.2,-0.2 q 0,-1.55 0.3,-2.5 l 0.15,-0.55 V -17 m 3.2,1.75 L 32.6,-16 v -0.7 h -2.15 l 0.15,1.15 v 0.1 l -0.05,1.3 h 1.05 l 1.05,0.2 v -1.3 M 29.8,-1.2 30,-1.45 h 0.1 l 0.15,0.2 3,-0.1 0.45,0.05 0.15,0.5 -0.05,0.5 0.25,0.85 v 0.1 2.2 L 34.25,3.6 34.15,3.7 33.7,3.95 33.25,3.9 33.15,3.7 30.95,3.9 29.6,3.75 29.5,1.1 29.45,-0.05 V -0.1 l 0.2,-1.1 h 0.15 m 2.95,1.5 0.05,-0.4 h -2.15 v 0.7 l -0.05,2.05 1,-0.2 h 1.1 l -0.05,-1.3 0.1,-0.85 m 11.5,-27.9 V -29 q -8.6,-0.1 -14.55,0.15 H -29.8 Q -35.75,-29.1 -44.35,-29 l 0.05,1.45 -0.05,0.4 -0.05,0.6 h 88.7 l -0.05,-0.6 v -0.45 m 4.4,-0.5 v 1.75 q -0.1,1.3 -0.6,1.65 v 53.65 l -0.25,0.3 q -0.35,1.1 -1.5,1.1 h -0.1 -0.1 -3.7 v 0.7 l -0.05,2.8 -0.3,1.25 -0.35,0.65 -0.4,0.5 -0.35,-0.15 H 40.25 34.6 Q 34,36.05 33.65,35.55 l -0.2,-0.65 q -0.3,-0.5 -0.35,-1.45 v -2.5 -0.6 L 6.7,30.25 H 5.15 4.05 3.95 2.95 2.9 2.15 l -35.3,0.1 v 0.6 2.5 l -0.4,1.45 -0.2,0.65 -0.95,0.55 h -5.65 -0.7 l -0.35,0.15 -0.35,-0.5 -0.4,-0.65 -0.3,-1.25 -0.05,-2.8 v -0.7 h -3.7 -0.1 -0.1 q -1.15,0 -1.5,-1.1 l -0.25,-0.3 V -24.7 q -0.5,-0.35 -0.55,-1.65 v -1.75 q 0,-3.1 0.6,-3.9 H 48 q 0.65,0.8 0.65,3.9 m -8.4,38 0.5,-0.1 0.3,0.05 q 0.5,-0.45 0.75,0.55 l 0.15,0.35 v 0.1 l 0.2,1.5 0.1,1.75 v 0.15 l 0.05,1.05 -0.05,3.75 h 0.05 l 0.05,0.45 v 1.95 l -0.05,0.2 v 0.8 h -0.05 l -0.15,1.3 0.15,0.4 -0.35,0.75 -0.15,0.3 -0.65,0.15 H -41.2 L -41.85,25.2 -42,24.9 q -0.35,-0.25 -0.35,-0.75 l 0.15,-0.4 -0.15,-1.3 h -0.05 v -0.8 -0.2 l -0.05,-1.95 0.05,-0.45 h 0.05 V 15.3 15.05 14.1 l 0.1,-1.75 0.2,-1.5 v -0.1 l 0.15,-0.35 q 0.25,-1 0.75,-0.55 l 0.3,-0.05 0.5,0.1 2.1,-0.1 42.65,0.05 h 0.2 0.2 l 33.35,-0.05 2.1,0.1 m -0.4,4 -0.1,-2 -1.6,-0.05 -33.05,-0.1 -0.5,0.05 -0.5,-0.05 -42.35,0.1 -1.6,0.05 -0.05,2.15 v 0.05 l -0.05,0.15 v 0.3 0.5 0.25 l -0.15,5.8 v 0.3 h -0.15 v 0.05 l -0.1,1 h -0.05 l -0.05,0.9 0.4,0.35 h 0.45 79.1 0.5 q 0.1,-0.25 0.35,-0.35 l -0.05,-0.9 h -0.05 l -0.1,-1 V 21.4 h -0.1 V 21.1 L 39.9,15.3 39.85,14.25 V 14.1 13.9 m -7.55,1.8 1.35,0.15 0.1,2.6 v 0.5 0.75 l 0.05,1.1 H 33.4 L 33.15,21.1 33,20.85 31.3,20.95 H 29.95 L 29.55,20.9 Q 29.4,20.85 29.4,20.4 l 0.05,-0.55 Q 29,18.8 29,16.85 l -0.2,-0.2 0.15,-0.6 H 29 l 0.1,-0.15 0.6,-0.35 0.15,0.1 0.25,0.25 2.2,-0.2 m 0.35,2.55 v -1.3 l -1.05,0.2 h -1.05 l 0.05,1.15 v 0.1 l -0.05,0.95 -0.1,0.35 h 0.2 1.95 V 19 l 0.05,-0.75 m 2.75,15 -0.1,0.55 h 4.95 V 32.4 H 35.4 v 0.85 m 4.9,-2.9 0.05,-0.3 H 35.2 l 0.05,0.3 0.05,0.1 h 0.1 V 31 31.15 l 4.85,0.05 v -0.05 -0.7 h 0.05 v -0.1 M -29.55,-16.9 q 0.45,1.1 0.45,3.05 l 0.2,0.2 -0.15,0.6 h -0.05 l -0.1,0.15 -0.6,0.3 -0.1,-0.05 -0.3,-0.25 -0.55,0.05 -1.65,0.15 -0.8,-0.05 -0.55,-0.1 -0.1,-2.65 -0.05,-1.15 v -0.05 l -0.45,-0.15 -0.15,-0.55 v -0.05 l 0.05,-0.4 v 0.15 h 0.05 l 0.9,-0.1 0.25,-0.3 0.15,0.25 h 0.1 l 1.75,-0.05 h 0.35 l 0.85,-0.05 0.4,0.05 q 0.15,0.05 0.15,0.5 l -0.05,0.5 m -1.15,1.45 0.05,-0.75 0.1,-0.5 h -2.15 v 0.05 0.55 0.1 0.3 l -0.05,1.75 1.05,-0.2 h 1.05 l -0.05,-1.3 m 0,16.75 -0.05,-0.65 V 0.6 0.4 -0.1 h -2.15 l 0.05,0.25 0.1,0.4 v 0.6 0.15 l -0.05,1.15 h 1.1 l 1,0.2 V 1.3 m 1.8,15.35 -0.2,0.2 q 0,1.95 -0.45,3 l 0.05,0.55 q 0,0.45 -0.15,0.5 l -0.05,0.05 h -0.35 l -3.05,-0.1 -0.15,0.25 -0.25,-0.3 h -0.4 l 0.05,-1.1 v -0.75 -0.5 l 0.1,-2.6 1.35,-0.15 2.05,0.2 h 0.15 l 0.4,-0.35 0.6,0.35 0.1,0.15 h 0.05 l 0.15,0.6 m -1.3,-18.1 h 0.15 l 0.1,0.15 0.05,0.1 h 0.2 l 0.15,1.1 v 0.05 l -0.05,1.15 -0.05,2.65 -0.4,0.1 -1,0.05 h -0.05 l -2.1,-0.2 -0.15,0.2 -0.45,0.05 Q -34,3.85 -34.25,3.7 l -0.1,-0.1 0.2,-0.75 V 0.65 0.55 L -34,0 l 0.1,-0.3 -0.05,-0.5 0.15,-0.5 0.2,-0.05 h 0.25 l 2.95,0.1 h 0.05 l 0.15,-0.2 m -2.5,19.55 v 0.9 0.7 h 2.15 l -0.15,-1.3 v -0.35 l 0.05,-0.9 h -1.05 l -1.05,-0.2 v 0.3 l 0.05,0.7 v 0.15 m -2.65,12.25 0.05,-0.3 h -5.15 l 0.05,0.3 v 0.1 h 0.05 v 0.7 0.05 l 4.85,-0.05 V 31 30.45 h 0.15 v -0.1 m -5,3.45 h 4.95 l -0.1,-0.55 V 32.4 h -4.85 v 1.4"
         fill="#6b6b6b"
         fill-rule="evenodd"
         stroke="none"
         id="path1" />
      <path
         d="M 44.75,-8.7 44.7,-8.5 44.6,21.55 H 44.55 V 26.7 Q 42.5,26.45 38.7,26.6 h -77.5 q -3.8,-0.15 -5.85,0.1 v -5.15 h -0.05 l -0.1,-30.05 -0.05,-0.2 v -11.5 l 0.25,-3.6 h 41.4 l 6.1,-0.05 h 0.05 l 1,-0.05 h 0.1 0.15 l 5.2,0.1 h 35.1 l 0.25,3.6 V -8.7 M 41.8,-22.05 q -0.25,-0.95 -0.75,-0.5 h -0.3 l -0.5,0.05 -2.1,-0.05 H 4.8 4.6 4.4 -38.25 l -2.1,0.05 -0.5,-0.05 h -0.3 q -0.5,-0.45 -0.75,0.5 l -0.15,0.3 v 0.1 l -0.2,1.4 -0.1,1.3 v 0.4 2.65 l -0.1,0.75 0.05,2.05 0.2,2.8 -0.15,0.4 q 0,0.45 0.35,0.65 l 0.15,0.3 0.65,0.15 h 82.3 l 0.65,-0.15 0.15,-0.3 q 0.35,-0.2 0.35,-0.65 l -0.15,-0.4 0.2,-2.8 0.05,-2.05 -0.1,-0.75 0.05,-2.65 h -0.05 v -0.4 l -0.1,-1.3 -0.2,-1.4 v -0.1 l -0.15,-0.3 m -2,3 v 0.1 l 0.05,0.4 0.2,2.9 0.3,5 -0.35,0.3 h -0.5 -79.1 -0.45 l -0.4,-0.3 0.35,-5 0.15,-2.9 0.05,-0.4 v -0.3 l 4.4,0.2 h 75.3 m 0.95,11.5 -0.5,0.1 -2.1,-0.1 L 4.8,-7.5 H 4.6 4.4 l -42.65,-0.05 -2.1,0.1 -0.5,-0.1 -0.3,0.05 Q -41.65,-8 -41.9,-7 l -0.15,0.35 v 0.1 l -0.2,1.5 -0.05,0.6 V -4 l -0.05,1.25 v 0.85 0.4 0.05 3.2 l -0.1,0.7 0.05,2 V 4.6 4.95 5 l 0.05,0.45 0.15,1.25 -0.15,0.4 q 0,0.5 0.35,0.75 l 0.15,0.3 0.65,0.1 H 41.1 L 41.75,8.15 41.9,7.85 42.25,7.1 42.1,6.7 42.25,5.45 H 42.3 V 5 4.95 4.6 l 0.05,-0.15 v -2 l -0.1,-0.7 0.05,-3.2 V -1.5 -1.9 L 42.25,-2.75 V -4 -4.15 l -0.05,-0.3 -0.05,-0.6 -0.2,-1.5 v -0.1 L 41.8,-7 q -0.25,-1 -0.75,-0.5 l -0.3,-0.05 m -0.9,4.2 v 0.6 l 0.05,0.85 v 0.4 0.05 l 0.1,4.6 h 0.1 l 0.1,1.3 v 0.5 h 0.05 V 5 L 40.3,5.45 40.35,6.3 Q 40.1,6.4 40,6.65 h -0.5 -79.1 -0.45 l -0.4,-0.35 0.05,-0.85 h 0.05 V 5 4.95 h 0.05 l 0.05,-0.5 0.05,-1.3 h 0.15 l 0.05,-4.6 h 0.05 v -0.05 -0.4 -0.85 -0.5 h 0.1 42.8 l 36.9,-0.1 M 33.8,-16 v -0.65 -0.05 l 0.45,-0.15 0.15,-0.55 v -0.4 l -0.05,-0.05 v 0.15 l -0.75,-0.1 h -0.2 l -0.25,-0.3 -0.15,0.25 h -0.95 l -2.1,-0.1 h -0.2 l -0.2,0.05 q -0.15,0.05 -0.15,0.5 l 0.05,0.4 -0.55,0.3 0.4,0.35 q -0.3,0.95 -0.3,2.5 l -0.2,0.2 0.15,0.6 H 29 l 0.1,0.15 0.6,0.3 0.4,-0.3 2.2,0.2 1.35,-0.15 0.1,-2.65 0.05,-0.35 0.05,-0.1 L 33.8,-16 m -1.15,0.75 v 1.3 l -1.05,-0.2 h -1.05 l 0.05,-1.3 v -0.1 l 2.05,0.3 M 29.8,-1.2 h -0.15 l -0.2,1.1 v 0.05 l 0.05,1.15 0.1,2.65 1.35,0.15 2.2,-0.2 0.1,0.2 0.45,0.05 0.45,-0.25 0.1,-0.1 -0.2,-0.75 v -2.2 -0.1 l -0.25,-0.85 0.05,-0.5 -0.15,-0.5 -0.45,-0.05 -3,0.1 -0.15,-0.2 H 30 l -0.2,0.25 m 0.85,1.8 0.15,0.05 q -0.2,0.15 0.55,0.15 0.8,0 1.4,-0.5 l -0.1,0.85 0.05,1.3 h -1.1 l -1,0.2 0.05,-2.05 M -44.3,-27.55 44.25,-27.6 v 0.45 l 0.05,0.6 h -88.7 l 0.05,-0.6 0.05,-0.4 M 40.25,9.9 38.15,9.8 4.8,9.85 H 4.6 4.4 l -42.65,-0.05 -2.1,0.1 -0.5,-0.1 -0.3,0.05 q -0.5,-0.45 -0.75,0.55 l -0.15,0.35 v 0.1 l -0.2,1.5 -0.1,1.75 v 0.95 0.25 3.75 h -0.05 l -0.05,0.45 0.05,1.95 v 0.2 0.8 h 0.05 l 0.15,1.3 -0.15,0.4 q 0,0.5 0.35,0.75 l 0.15,0.3 0.65,0.15 h 82.3 l 0.65,-0.15 0.15,-0.3 0.35,-0.75 -0.15,-0.4 0.15,-1.3 h 0.05 v -0.8 l 0.05,-0.2 V 19.5 L 42.3,19.05 H 42.25 L 42.3,15.3 42.25,14.25 V 14.1 l -0.1,-1.75 -0.2,-1.5 v -0.1 L 41.8,10.4 q -0.25,-1 -0.75,-0.55 l -0.3,-0.05 -0.5,0.1 m -80.15,4.15 0.25,0.05 3.05,0.2 H 2.95 l 29.9,-0.1 2.35,0.05 3.15,-0.15 1.5,-0.2 v 0.2 0.15 l 0.05,1.05 0.15,5.8 v 0.3 h 0.1 v 0.05 l 0.1,1 h 0.05 l 0.05,0.9 Q 40.1,23.45 40,23.7 h -0.5 -79.1 -0.45 l -0.4,-0.35 0.05,-0.9 h 0.05 l 0.1,-1 V 21.4 h 0.15 v -0.3 l 0.15,-5.8 v -0.25 -0.5 -0.3 l 0.05,-0.15 v -0.05 m 72.2,1.65 -2.2,0.2 -0.25,-0.25 -0.15,-0.1 -0.6,0.35 -0.1,0.15 h -0.05 l -0.15,0.6 0.2,0.2 q 0,1.95 0.45,3 L 29.4,20.4 q 0,0.45 0.15,0.5 l 0.4,0.05 h 1.35 l 1.7,-0.1 0.15,0.25 0.25,-0.3 h 0.4 l -0.05,-1.1 v -0.75 -0.5 l -0.1,-2.6 -1.35,-0.15 m -1.7,2.6 0.65,0.05 1.4,-0.1 L 32.6,19 v 0.7 h -1.95 l -0.1,-0.35 0.05,-0.95 v -0.1 m -60.15,-35.2 0.05,-0.5 q 0,-0.45 -0.15,-0.5 l -0.4,-0.05 -0.85,0.05 h -0.35 l -1.75,0.05 h -0.1 l -0.15,-0.25 -0.25,0.3 -0.9,0.1 h -0.05 v -0.15 l -0.05,0.4 v 0.05 l 0.15,0.55 0.45,0.15 v 0.05 l 0.05,1.15 0.1,2.65 0.55,0.1 0.8,0.05 1.65,-0.15 0.55,-0.05 0.3,0.25 0.1,0.05 0.6,-0.3 0.1,-0.15 h 0.05 l 0.15,-0.6 -0.2,-0.2 q 0,-1.95 -0.45,-3.05 m -3.15,1.2 q 0.45,0.3 1.35,0.45 l 0.5,-0.1 0.15,-0.1 0.05,1.3 h -1.05 l -1.05,0.2 0.05,-1.75 m 2,17 v 1.35 l -1,-0.2 h -1.1 l 0.05,-1.15 0.35,0.05 1.7,-0.05 m 0.5,-2.75 -0.15,0.2 h -0.05 l -2.95,-0.1 h -0.25 l -0.2,0.05 -0.15,0.5 0.05,0.5 -0.1,0.3 -0.15,0.55 v 0.1 2.2 l -0.2,0.75 0.1,0.1 q 0.25,0.15 0.45,0.25 l 0.45,-0.05 0.15,-0.2 2.1,0.2 h 0.05 l 1,-0.05 0.4,-0.1 0.05,-2.65 0.05,-1.15 V -0.1 l -0.15,-1.1 h -0.2 l -0.05,-0.1 -0.1,-0.15 h -0.15 m 1.3,18.1 -0.15,-0.6 h -0.05 l -0.1,-0.15 -0.6,-0.35 -0.4,0.35 h -0.15 l -2.05,-0.2 -1.35,0.15 -0.1,2.6 v 0.5 0.75 l -0.05,1.1 h 0.4 l 0.25,0.3 0.15,-0.25 3.05,0.1 h 0.35 l 0.05,-0.05 q 0.15,-0.05 0.15,-0.5 l -0.05,-0.55 q 0.45,-1.05 0.45,-3 l 0.2,-0.2 m -3.8,1.45 0.3,0.05 h 0.35 0.45 l 0.9,-0.1 v 0.35 l 0.15,1.3 H -32.7 V 19 18.1"
         fill="#727272"
         fill-rule="evenodd"
         stroke="none"
         id="path2" />
      <path
         d="m -39.9,-19.25 0.05,-1.45 h 1.6 l 42.45,-0.1 0.4,0.05 0.4,-0.05 33.15,0.1 h 1.6 l 0.05,1.65 h -75.3 l -4.4,-0.2 m -0.05,16 0.05,-0.75 0.05,-0.45 v -0.3 -0.6 -0.15 h 0.1 l 1.5,-0.05 L 4.1,-5.6 h 0.5 0.5 l 33.05,0.05 1.6,0.05 v 0.1 l 0.05,0.95 V -4.2 -4 l 0.05,0.65 -36.9,0.1 h -42.8 -0.1 M 29.45,-17 v 0.1 l -0.15,0.55 -0.4,-0.35 0.55,-0.3 m 4.35,1.15 V -16 l 0.05,0.05 -0.05,0.1 m -3.2,0.3 -0.15,-1.15 h 2.15 v 0.7 l 0.05,0.75 -2.05,-0.3 M 30.65,0.6 v -0.7 h 2.15 l -0.05,0.4 q -0.6,0.5 -1.4,0.5 -0.75,0 -0.55,-0.15 L 30.65,0.6 M -44.3,-27.55 -44.35,-29 q 8.6,-0.1 14.55,0.15 H 29.7 Q 35.65,-29.1 44.25,-29 v 1.4 l -88.55,0.05 m 4.4,41.6 0.05,-2.15 1.6,-0.05 42.35,-0.1 0.5,0.05 0.5,-0.05 33.05,0.1 1.6,0.05 0.1,2 -1.5,0.2 -3.15,0.15 -2.35,-0.05 -29.9,0.1 H -36.6 l -3.05,-0.2 -0.25,-0.05 m 70.5,4.25 -0.05,-1.15 h 1.05 l 1.05,-0.2 v 1.3 l -1.4,0.1 -0.65,-0.05 m 9.7,12.05 v 0.1 h -0.05 v 0.7 0.05 L 35.4,31.15 V 31 30.45 h -0.1 l -0.05,-0.1 -0.05,-0.3 h 5.15 l -0.05,0.3 m -4.9,2.9 V 32.4 h 4.85 v 1.4 H 35.3 l 0.1,-0.55 M -32.7,-15.7 v -0.3 -0.1 -0.55 -0.05 h 2.15 l -0.1,0.5 -0.05,0.75 -0.15,0.1 -0.5,0.1 q -0.9,-0.15 -1.35,-0.45 m -0.05,17 V 1.15 0.55 l -0.1,-0.4 -0.05,-0.25 h 2.15 v 0.5 0.2 0.05 l 0.05,0.65 -1.7,0.05 -0.35,-0.05 m 2.05,16.75 -0.9,0.1 h -0.45 -0.35 l -0.3,-0.05 v -0.15 l -0.05,-0.7 v -0.3 l 1.05,0.2 h 1.05 l -0.05,0.9 m -4.65,12.3 v 0.1 H -35.5 V 31 31.15 l -4.85,0.05 v -0.05 -0.7 h -0.05 v -0.1 l -0.05,-0.3 h 5.15 l -0.05,0.3 m -5,3.45 v -1.4 h 4.85 v 0.85 l 0.1,0.55 h -4.95"
         fill="#7b7b7b"
         fill-rule="evenodd"
         stroke="none"
         id="path3" />
    </g>
  </defs>
</svg>
