<?xml version="1.0" encoding="UTF-8" standalone="no"?>
<svg
   ffdec:objectType="frame"
   height="24.200001"
   width="25.4"
   version="1.1"
   id="svg7"
   sodipodi:docname="2.svg"
   xmlns:inkscape="http://www.inkscape.org/namespaces/inkscape"
   xmlns:sodipodi="http://sodipodi.sourceforge.net/DTD/sodipodi-0.dtd"
   xmlns:xlink="http://www.w3.org/1999/xlink"
   xmlns="http://www.w3.org/2000/svg"
   xmlns:svg="http://www.w3.org/2000/svg"
   xmlns:ffdec="https://www.free-decompiler.com/flash">
  <sodipodi:namedview
     id="namedview7"
     pagecolor="#ffffff"
     bordercolor="#000000"
     borderopacity="0.25"
     inkscape:showpageshadow="2"
     inkscape:pageopacity="0.0"
     inkscape:pagecheckerboard="0"
     inkscape:deskcolor="#d1d1d1"
     fit-margin-top="5"
     fit-margin-left="5"
     fit-margin-right="5"
     fit-margin-bottom="5" />
  <g
     transform="translate(12.7,12.05)"
     id="g1">
    <use
       ffdec:characterId="4224"
       height="44.150002"
       transform="translate(-15.4,-31.8)"
       width="30.799999"
       xlink:href="#sprite0"
       id="use1" />
  </g>
  <defs
     id="defs7">
    <g
       id="sprite0"
       transform="translate(15.4,31.8)">
      <use
         ffdec:characterId="4219"
         height="25.5"
         transform="translate(-12.7,-13.35)"
         width="25.4"
         xlink:href="#sprite1"
         id="use2" />
    </g>
    <g
       id="sprite1"
       transform="translate(12.7,13.35)">
      <use
         ffdec:characterId="4216"
         height="24.25"
         transform="translate(-12.7,-12.1)"
         width="25.4"
         xlink:href="#shape0"
         id="use3" />
      <use
         ffdec:characterId="4218"
         height="15.15"
         transform="matrix(0.6747,0,0,0.6747,4.4338,-13.3523)"
         width="8.25"
         xlink:href="#sprite2"
         id="use4" />
    </g>
    <g
       id="shape0"
       transform="translate(12.7,12.1)">
      <path
         d="M 8.2,-6.8 8.05,-6.95 8,-7 7.6,-7.5 7.35,-7.75 7,-8.05 6.5,-8.45 Q 4.3,-10.05 0.95,-10.1 L 1,-9.8 1.05,-8.75 v 0.15 0.3 L 1,-7.8 h -1.6 l -0.05,-0.35 v -0.4 -0.2 l 0.05,-1.05 0.05,-0.25 h -0.2 -0.05 v -0.05 q -3.85,0.05 -6.15,2.05 l -0.9,0.85 -0.4,0.5 -0.05,0.05 -0.25,0.35 -0.6,1.1 q -1.25,2.5 -1.25,5.2 0,2.05 2.4,4.2 l 1.6,1.55 0.3,0.2 0.4,0.5 L -6,6.95 -6.3,7.2 -6.6,7.75 V 7.8 l -0.4,1.45 1.3,0.3 h 1 L -4.65,8 q 0.2,-1.1 1.15,-1.1 l 0.3,0.05 h 0.35 l 2.7,0.3 H 0.15 0.2 L 2.85,6.95 H 3.2 L 3.5,6.9 Q 4.45,6.9 4.65,8 L 4.7,9.55 h 1 L 7,9.25 6.6,7.8 V 7.75 L 6.3,7.2 6,6.95 5.7,6.45 6.1,5.95 6.4,5.75 8,4.2 Q 10.4,2.05 10.4,0 10.4,-2.7 9.15,-5.2 L 8.2,-6.8 m -15.95,1.55 0.05,-0.05 0.35,-0.1 0.8,-0.2 h 0.3 l 1.4,-0.05 0.05,0.15 -0.2,0.15 -0.1,0.05 -0.8,0.4 -0.95,0.45 h -0.1 q -1.1,0.45 -0.95,1 L -8,-3.25 -6.7,-3.8 -6,-3.95 -5.5,-4 h 0.1 q 1.55,0 1.4,0.7 l -0.3,0.15 -1.45,0.6 -2.15,0.65 q -1.1,0 -1.35,-0.3 L -9.3,-2.8 q 0,-1.3 0.7,-1.95 l 0.85,-0.5 m 12,2.1 L 4,-3.3 4.05,-3.6 4.95,-3.95 5.2,-4 H 5.35 5.5 5.55 L 6.7,-3.8 8,-3.25 7.9,-3.45 Q 8.05,-4 6.95,-4.45 L 6.5,-4.65 H 6.4 L 5.85,-4.95 Q 5.65,-5 5.55,-5.1 5.35,-5.2 5.2,-5.25 L 5,-5.35 4.85,-5.45 4.8,-5.5 4.85,-5.65 h 0.5 0.3 l 0.6,0.05 0.95,0.15 0.15,0.05 q 0.8,0.2 1.25,0.65 0.7,0.65 0.7,1.95 L 9.25,-2.2 Q 9,-1.9 7.9,-1.9 l -2.15,-0.65 -1.5,-0.6 m -4.25,-8.9 4.7,0.4 q 8,2.2 8,11.35 0,1.6 -1.3,4.3 -1,2.25 -2.45,3.1 Q 9,7.95 9.3,8.35 9.75,8.9 9.75,9.75 L 9.25,11 Q 8.5,12.15 7.15,12.15 L 6,12.05 H 5.55 q -2.5,0 -3.3,-1.7 L 2.05,9.15 0.35,9.2 H 0 -0.35 l -1.7,-0.05 -0.2,1.2 q -0.8,1.7 -3.3,1.7 H -6 l -1.15,0.1 q -1.35,0 -2.1,-1.15 L -9.75,9.75 Q -9.75,8.9 -9.3,8.35 -9,7.95 -8.95,7.1 -10.4,6.25 -11.4,4 q -1.3,-2.7 -1.3,-4.3 0,-9.15 8,-11.35 l 4.7,-0.4 m 0.25,10 Q 1.5,-2 1.8,-1.5 q 0.75,0.35 1.35,0.9 1.1,1.15 1.1,2.8 0,0.5 -0.75,1.15 -1,1 -2.6,1 H 0 -0.05 -0.9 q -1.6,0 -2.6,-1 -0.75,-0.65 -0.75,-1.15 0,-1.65 1.1,-2.8 0.6,-0.55 1.35,-0.9 0.3,-0.5 1.55,-0.55 V -2.1 h 0.2 0.1 0.2 v 0.05 M 2.2,2.35 2.75,2.05 2.9,1.8 Q 2.9,0.65 1.6,-0.3 L 0.45,-0.95 0,-1 h -0.05 l -0.4,0.05 -1.05,0.65 q -1.25,0.85 -1.35,1.85 l -0.05,0.25 0.15,0.25 0.3,0.15 0.8,0.3 0.9,0.25 0.7,0.2 L 0,3 0.75,2.75 2.2,2.35 M -0.9,2.05 H -1 q -0.45,0 -0.55,-0.25 L -1.65,1.5 V 1.15 q 0,-0.75 0.55,-0.75 0.35,0 0.5,0.4 v 0.35 0.7 0.05 q 0,0.15 -0.3,0.15 M 0.6,1.15 0.7,0.7 1,0.45 1.1,0.4 q 0.55,0 0.55,0.75 L 1.7,1.55 1.65,1.75 1,2.05 0.6,1.9 V 1.15 m 3.35,-1.9 q 0,-1.15 1.1,-1.1 1.1,0.05 1.1,1.1 Q 6.05,0.2 5,0.2 4.5,0.2 4.2,-0.15 l -0.25,-0.6 m -7.9,0 -0.25,0.6 Q -4.5,0.2 -5,0.2 q -1.05,0 -1.15,-0.95 0,-1.05 1.1,-1.1 1.1,-0.05 1.1,1.1"
         fill="#6b6b6b"
         fill-rule="evenodd"
         stroke="none"
         id="path4" />
      <path
         d="M 8.2,-6.8 8,-6.4 7.35,-5.4 7.2,-5.45 6.25,-5.6 5.65,-5.65 h -0.3 -0.5 l -0.05,0.15 0.05,0.05 0.15,0.1 0.2,0.1 q 0.15,0.05 0.35,0.15 0.1,0.1 0.3,0.15 l 0.55,0.3 h 0.1 l 0.45,0.2 q 1.1,0.45 0.95,1 L 8,-3.25 6.7,-3.8 5.55,-4 H 5.5 5.35 5.2 L 4.95,-3.95 4.05,-3.6 4,-3.3 4.25,-3.15 q -1.85,1 -3.65,1 -2.4,0 -4.9,-1 L -4,-3.3 Q -3.85,-4 -5.4,-4 h -0.1 l -0.5,0.05 -0.7,0.15 -1.3,0.55 0.1,-0.2 q -0.15,-0.55 0.95,-1 h 0.1 l 0.95,-0.45 0.8,-0.4 0.1,-0.05 0.2,-0.15 -0.05,-0.15 -1.4,0.05 h -0.3 l -0.8,0.2 -0.35,0.1 -0.05,0.05 -0.1,-0.15 -0.45,-0.5 -0.25,-0.4 0.25,-0.35 0.05,-0.05 0.4,-0.5 0.9,-0.85 q 2.3,-2 6.15,-2.05 v 0.05 h 0.05 0.2 l -0.05,0.25 -0.05,1.05 v 0.2 0.4 L -0.6,-7.8 H 1 L 1.05,-8.3 V -8.6 -8.75 L 1,-9.8 0.95,-10.1 q 3.35,0.05 5.55,1.65 L 7,-8.05 7.35,-7.75 7.6,-7.5 8,-7 8.05,-6.95 8.2,-6.8 M -1.65,2.5 -2.45,2.2 -2.75,2.05 -2.9,1.8 -2.85,1.55 q 0.1,-1 1.35,-1.85 L -0.45,-0.95 -0.05,-1 H 0 L 0.45,-0.95 1.6,-0.3 Q 2.9,0.65 2.9,1.8 L 2.75,2.05 2.2,2.35 1.7,1.85 1.65,1.75 1.7,1.55 1.65,1.15 Q 1.65,0.4 1.1,0.4 L 1,0.45 0.7,0.7 0.6,1.15 H 0.55 L -0.6,1.85 V 1.15 0.8 Q -0.75,0.4 -1.1,0.4 -1.65,0.4 -1.65,1.15 V 1.5 l 0.1,0.3 q 0.1,0.25 0.55,0.25 h 0.1 L -1.65,2.5"
         fill="#ffffff"
         fill-rule="evenodd"
         stroke="none"
         id="path5" />
      <path
         d="M 7.35,-5.4 8,-6.4 8.2,-6.8 9.15,-5.2 Q 10.4,-2.7 10.4,0 10.4,2.05 8,4.2 L 6.4,5.75 6.1,5.95 5.7,6.45 6,6.95 6.3,7.2 6.6,7.75 V 7.8 L 7,9.25 5.7,9.55 h -1 L 4.65,8 Q 4.45,6.9 3.5,6.9 L 3.2,6.95 H 2.85 L 0.2,7.25 h -0.05 -0.3 l -2.7,-0.3 H -3.2 L -3.5,6.9 Q -4.45,6.9 -4.65,8 L -4.7,9.55 h -1 L -7,9.25 -6.6,7.8 V 7.75 L -6.3,7.2 -6,6.95 -5.7,6.45 -6.1,5.95 -6.4,5.75 -8,4.2 q -2.4,-2.15 -2.4,-4.2 0,-2.7 1.25,-5.2 l 0.6,-1.1 0.25,0.4 0.45,0.5 0.1,0.15 -0.85,0.5 q -0.7,0.65 -0.7,1.95 l 0.05,0.6 q 0.25,0.3 1.35,0.3 l 2.15,-0.65 1.45,-0.6 q 2.5,1 4.9,1 1.8,0 3.65,-1 l 1.5,0.6 2.15,0.65 q 1.1,0 1.35,-0.3 L 9.3,-2.8 Q 9.3,-4.1 8.6,-4.75 8.15,-5.2 7.35,-5.4 m -7.1,3.35 V -2.1 h -0.2 -0.1 -0.2 v 0.05 Q -1.5,-2 -1.8,-1.5 q -0.75,0.35 -1.35,0.9 -1.1,1.15 -1.1,2.8 0,0.5 0.75,1.15 1,1 2.6,1 H -0.05 0 0.9 q 1.6,0 2.6,-1 Q 4.25,2.7 4.25,2.2 4.25,0.55 3.15,-0.6 2.55,-1.15 1.8,-1.5 1.5,-2 0.25,-2.05 M 2.2,2.35 0.75,2.75 0,3 -0.05,2.95 -0.75,2.75 -1.65,2.5 -0.9,2.05 q 0.3,0 0.3,-0.15 V 1.85 L 0.55,1.15 H 0.6 V 1.9 L 1,2.05 1.65,1.75 1.7,1.85 2.2,2.35 m 1.75,-3.1 0.25,0.6 Q 4.5,0.2 5,0.2 q 1.05,0 1.15,-0.95 0,-1.05 -1.1,-1.1 -1.1,-0.05 -1.1,1.1 m -7.9,0 q 0,-1.15 -1.1,-1.1 -1.1,0.05 -1.1,1.1 0.1,0.95 1.15,0.95 0.5,0 0.8,-0.35 l 0.25,-0.6"
         fill="#d7d7d7"
         fill-rule="evenodd"
         stroke="none"
         id="path6" />
    </g>
    <g
       id="sprite2"
       transform="translate(4.1,8.6)">
      <use
         ffdec:characterId="827"
         height="13.1"
         transform="translate(-4.1,-6.55)"
         width="8.25"
         xlink:href="#shape1"
         id="use6" />
    </g>
    <g
       id="shape1"
       transform="translate(4.1,6.55)">
      <path
         d="m 4.15,-6.55 q -1,2.6 -3.3,6.6 L 3.25,2.5 2.8,2.65 0.5,0.7 -0.05,1.55 q -3,5 -3.55,5 H -3.95 L -4.05,6.45 -4.1,6.2 q 0,-0.45 3.1,-5.25 l 0.65,-1 -2.1,-1.8 q 0,-1.2 2.05,0.7 l 0.5,0.45 4.05,-5.85"
         fill="#ffffff"
         fill-rule="evenodd"
         stroke="none"
         id="path7" />
    </g>
  </defs>
</svg>
