<?xml version="1.0" encoding="UTF-8" standalone="no"?>
<svg
   ffdec:objectType="frame"
   height="56.122761"
   width="41.25"
   version="1.1"
   id="svg8"
   sodipodi:docname="1.svg"
   xmlns:inkscape="http://www.inkscape.org/namespaces/inkscape"
   xmlns:sodipodi="http://sodipodi.sourceforge.net/DTD/sodipodi-0.dtd"
   xmlns:xlink="http://www.w3.org/1999/xlink"
   xmlns="http://www.w3.org/2000/svg"
   xmlns:svg="http://www.w3.org/2000/svg"
   xmlns:ffdec="https://www.free-decompiler.com/flash">
  <sodipodi:namedview
     id="namedview8"
     pagecolor="#ffffff"
     bordercolor="#000000"
     borderopacity="0.25"
     inkscape:showpageshadow="2"
     inkscape:pageopacity="0.0"
     inkscape:pagecheckerboard="0"
     inkscape:deskcolor="#d1d1d1"
     fit-margin-top="5"
     fit-margin-left="5"
     fit-margin-right="5"
     fit-margin-bottom="5" />
  <g
     transform="translate(20.6,28.068317)"
     id="g3">
    <use
       ffdec:characterId="2353"
       height="56.099998"
       transform="translate(-20.6,-28.05)"
       width="41.25"
       xlink:href="#shape0"
       id="use1" />
    <use
       ffdec:characterId="2356"
       height="51.799999"
       transform="translate(-25.3,-32.65)"
       width="50.450001"
       xlink:href="#sprite0"
       id="use2" />
    <use
       ffdec:characterId="2357"
       height="37.049999"
       transform="translate(-19.2,-26.1)"
       width="37.700001"
       xlink:href="#shape2"
       id="use3" />
  </g>
  <defs
     id="defs8">
    <g
       id="shape0"
       transform="translate(20.6,28.05)">
      <path
         d="m 0.85,-0.5 -0.9,-5.7 H -0.4 q -1.05,0 -1.6,-0.5 l -0.45,3.5 -0.5,5 -0.1,2.45 q 0,1.2 -0.35,5.15 l 0.9,0.1 1.6,0.15 h 0.6 2.55 L 2.1,8.5 0.85,-0.5 M 2.8,-4.75 4,2.65 4.7,9.6 q 7.8,-1.3 11.05,-7.2 2.1,-3.8 2.1,-9.2 0,-5.3 -3.6,-10.6 -5.2,-7.7 -15.2,-7.6 -9,1.25 -13.5,8.8 -3.3,5.45 -3.3,11.55 0,4.7 3.3,8.55 3.15,3.65 8.45,5 l 0.7,-6.65 0.45,-3.6 0.35,-2.1 0.05,-0.3 q 0,-2.3 0.45,-4.4 0.9,-4.1 3.3,-4.1 2.35,0 3.15,3.5 0.4,1.8 0.35,4 M 19.45,-13 q 1.2,3.75 1.2,6.3 0,6.2 -2.45,10.6 -1.25,2.2 -3.1,3.9 -0.85,1.55 -2.8,3.4 -3.05,2.75 -7.15,3.6 l 0.2,2.9 V 18 q 1.15,-0.35 3.9,0.45 2.75,0.8 2.85,1.6 V 22 q 0,2.85 -1.25,4 -2.3,2.15 -9.55,2.05 h -7.35 q -5.8,-0.2 -7.2,-1.45 -0.6,-0.55 -0.6,-2.8 0,-3 0.55,-4.05 1.35,-2.65 6.35,-2.55 l 0.35,-2.85 q -3,-0.75 -5.1,-2.05 -2.3,-1.4 -5,-5.15 -3.9,-5.35 -3.9,-10.3 l 0.05,-0.35 -0.05,-1.15 q 0,-6.75 3.6,-12.95 4.95,-8.5 14.55,-10.25 5.95,-1.05 12.3,2.95 4.5,2.85 6.75,6.15 1.55,1.8 2.85,5.75 M 4.95,12.35 v 0.15 l 1.8,-0.5 -1.8,0.35 m -6.7,2.7 -2.2,-0.25 -0.2,1.4 -0.1,0.65 -0.2,1 0.8,0.4 0.75,0.35 0.2,0.1 0.4,0.15 h 0.6 1.15 l 3.4,-0.4 0.25,-0.1 0.6,-0.25 -0.6,-3 -1.65,0.05 -2.65,-0.05 h -0.05 l -0.4,-0.05 h -0.1 m -1.9,-3.1 -0.05,0.35 1.6,0.2 1.2,0.1 3.55,0.1 H 2.7 L 2.65,12.4 h -3.3 -0.2 l -1.3,-0.2 -1.5,-0.25 m -1.55,8 0.35,0.05 0.6,0.2 0.25,0.15 q 0.5,0.4 0.5,1.15 l -0.1,0.6 1.1,0.05 V 22 q 0,-1.25 1.2,-1.15 1.15,0.1 1.15,1.15 v 0.15 l 1,0.05 q 0,-1.2 1.3,-1.2 l 0.8,0.2 0.25,0.25 0.05,0.05 0.15,0.65 5,-1.3 0.85,-0.2 -0.1,-0.3 Q 6.25,19.5 5.25,19.75 L 4.2,19.8 3.6,19.7 -0.2,20.35 h -1.15 l -1.9,-0.15 -0.5,-0.15 -0.9,-0.3 -0.5,-0.3 -0.25,-0.15 -1.45,0.1 -0.45,0.05 -1.9,0.3 q -1.7,0.3 -1.4,1.05 l 0.55,0.15 0.2,0.1 1.15,0.3 0.35,0.1 0.4,0.15 h 0.1 l 1,0.3 -0.1,-0.35 q 0,-0.9 0.45,-1.25 0.45,-0.4 1.3,-0.35 m -5.8,4.65 5.5,0.7 4.4,0.05 9.4,-1.05 Q 9.4,23.85 9.55,22.35 L 8.8,22.6 2.8,23.35 H 2.5 L 2.05,23.4 1.6,23.35 h -3.3 l -0.3,-0.1 -4.1,-0.05 -3.95,-0.95 -1.1,-0.35 0.1,2.65 V 24.6 H -11 m 4.75,-13.2 q -2.8,-0.75 -5.05,-1.8 l 0.3,0.2 q 1.95,1.25 4.7,1.95 l 0.05,-0.35"
         fill="#6b6b6b"
         fill-rule="evenodd"
         stroke="none"
         id="path3" />
      <path
         d="m -2.95,1.8 q 1,-2.4 3.1,-2.4 l 0.7,0.1 1.25,9 0.15,1.15 H -0.3 -0.9 L -2.5,9.5 -3.4,9.4 Q -3.05,5.45 -3.05,4.25 L -2.95,1.8 M -5.2,19.95 q -0.85,-0.05 -1.3,0.35 -0.45,0.35 -0.45,1.25 l 0.1,0.35 -1,-0.3 h -0.1 l -0.4,-0.15 -0.35,-0.1 -1.15,-0.3 -0.2,-0.1 -0.55,-0.15 q -0.3,-0.75 1.4,-1.05 l 1.9,-0.3 0.45,-0.05 1.45,-0.1 0.25,0.15 0.5,0.3 0.9,0.3 0.5,0.15 1.9,0.15 h 1.15 l 3.8,-0.65 0.6,0.1 1.05,-0.05 q 1,-0.25 3.9,0.6 l 0.1,0.3 -0.85,0.2 -5,1.3 L 3.25,21.5 3.2,21.45 2.95,21.2 2.15,21 q -1.3,0 -1.3,1.2 l -1,-0.05 V 22 q 0,-1.05 -1.15,-1.15 -1.2,-0.1 -1.2,1.15 v 0.15 l -1.1,-0.05 0.1,-0.6 q 0,-0.75 -0.5,-1.15 L -4.25,20.2 -4.85,20 -5.2,19.95 m 1.55,-8 1.5,0.25 1.3,0.2 h 0.2 3.3 L 2.7,12.7 H 2.65 l -3.55,-0.1 -1.2,-0.1 -1.6,-0.2 0.05,-0.35 m 1.9,3.1 h 0.1 l 0.4,0.05 h 0.05 l 2.65,0.05 1.65,-0.05 0.6,3 -0.6,0.25 -0.25,0.1 -3.4,0.4 H -1.7 -2.3 l -0.4,-0.15 -0.2,-0.1 -0.75,-0.35 -0.8,-0.4 0.2,-1 0.1,-0.65 0.2,-1.4 2.2,0.25 m -9.3,9.5 -0.1,-2.65 1.1,0.35 3.95,0.95 4.1,0.05 0.3,0.1 H 1.6 L 2.05,23.4 2.5,23.35 h 0.3 l 6,-0.75 0.75,-0.25 Q 9.4,23.85 8.3,24.3 l -9.4,1.05 -4.4,-0.05 -5.5,-0.7 -0.05,-0.05"
         fill="#cccccc"
         fill-rule="evenodd"
         stroke="none"
         id="path4" />
    </g>
    <g
       id="sprite0"
       transform="translate(25.6,23.6)">
      <use
         ffdec:characterId="2355"
         height="35.049999"
         transform="translate(-16.95,-17.55)"
         width="33.900002"
         xlink:href="#sprite1"
         id="use4" />
    </g>
    <g
       id="sprite1"
       transform="translate(16.95,17.55)">
      <use
         ffdec:characterId="2354"
         height="35.049999"
         transform="translate(-16.95,-17.55)"
         width="33.900002"
         xlink:href="#shape1"
         id="use5" />
    </g>
    <g
       id="shape1"
       transform="translate(16.95,17.55)">
      <path
         d="m 3.2,-13.85 q 4.2,2.95 1.6,9.35 -1,2.5 -2.6,3.85 -1.7,1.35 -2.95,0.5 -1.15,-0.8 -2.75,-6 -1.75,-5.65 -0.35,-7.7 1.3,-1.8 4.05,-1.2 1.75,0.4 3,1.2 m -4.3,18.3 q 0,1.4 -3.25,5.7 -3.7,4.7 -6.15,4.7 -2.25,0 -3.35,-2.6 -0.7,-1.7 -0.7,-3.15 0,-5.15 6.75,-6.7 l 4.6,-0.1 q 2.1,0.6 2.1,2.15 M 1.55,4.35 Q 1.95,2.2 3.5,2.05 4.85,1.95 9.4,4.9 q 4.95,3.3 5.2,5.75 0.15,2.2 -2.35,3.5 Q 10.6,15 9.1,15.15 4,15.5 1.95,8.9 1.15,6.35 1.55,4.35"
         fill="#838383"
         fill-rule="evenodd"
         stroke="none"
         id="path5" />
      <path
         d="m 3.2,-13.85 q -1.25,-0.8 -3,-1.2 -2.75,-0.6 -4.05,1.2 -1.4,2.05 0.35,7.7 1.6,5.2 2.75,6 Q 0.5,0.7 2.2,-0.65 3.8,-2 4.8,-4.5 7.4,-10.9 3.2,-13.85 m 4.45,6.8 q -1.45,4.5 -2.95,6.9 1,0.15 2,0.6 1.15,0.55 3.45,2.2 3.6,2.45 4.95,4 1.65,1.8 1.85,3.85 0.2,3.05 -2.65,5.25 -2.1,1.55 -3.45,1.65 L 5.9,17.2 q -3.05,-1 -4.5,-4.55 -1,-2.35 -1.5,-4.3 l -2.1,2.7 q -2.7,3.35 -4.3,4.6 -2,1.55 -4.05,1.55 -3.05,0 -5,-3.05 -1.4,-2.15 -1.4,-3.5 0,-3.35 0.6,-4.9 1.15,-3 4.85,-4.2 4.85,-1.55 7.8,-1.6 l -0.55,-0.9 -1.25,-3.9 Q -6.7,-9 -6.8,-11 q -0.15,-2.55 1.1,-4.2 1.7,-2.5 5.3,-2.35 2.6,0.1 3.7,0.85 2.7,1.95 3.65,3.3 1.8,2.7 0.7,6.35 m -6.1,11.4 q -0.4,2 0.4,4.55 2.05,6.6 7.15,6.25 1.5,-0.15 3.15,-1 2.5,-1.3 2.35,-3.5 Q 14.35,8.2 9.4,4.9 4.85,1.95 3.5,2.05 1.95,2.2 1.55,4.35 M -1.1,4.45 Q -1.1,2.9 -3.2,2.3 l -4.6,0.1 q -6.75,1.55 -6.75,6.7 0,1.45 0.7,3.15 1.1,2.6 3.35,2.6 2.45,0 6.15,-4.7 3.25,-4.3 3.25,-5.7"
         fill="#6b6b6b"
         fill-rule="evenodd"
         stroke="none"
         id="path6" />
    </g>
    <g
       id="shape2"
       transform="translate(19.2,26.1)">
      <path
         d="m 2.1,-26.05 q 0.85,0.25 1.05,1.45 l 0.15,2.7 q 0.2,1.6 -0.15,2.2 l 2.25,0.7 0.4,0.15 0.1,0.05 0.35,-1.8 0.5,-2.25 q 0.15,-2.45 0.95,-1.3 0.75,1.15 0.75,2.25 l -0.3,2.2 q -0.25,1.2 -0.65,1.75 l 1.55,1.05 q 0.25,-0.85 1.65,-2.75 0.7,-1.25 1.3,-1.45 0.6,-0.2 0.6,0.95 -1.55,3.45 -2.35,4.25 l 1.6,1.8 2.1,-2.15 q 2.25,-1.9 2.25,-0.1 -2,3.15 -3.65,3.15 H 12.5 l 1.2,2.65 h 0.1 0.05 q 0.45,-0.55 2,-1.35 2.15,-1.05 2.15,0.3 0,0.4 -1.4,1.25 -1.45,0.9 -2.05,0.9 l -0.55,-0.1 0.25,1.9 0.15,0.15 1.1,-0.05 q 3,-0.1 3,0.45 0,1.3 -4.3,1.4 l -0.55,2.85 1.15,0.35 q 2.65,1 2.65,1.7 0,0.65 -0.9,0.65 -0.6,0 -2.55,-0.95 l -0.85,-0.4 -1.1,2.1 -0.3,0.45 0.85,0.45 q 2.7,1.55 2.7,2.15 0,0.7 -0.85,0.7 -0.5,0 -2.6,-1.6 l -0.9,-0.65 -2,1.85 2.6,3.35 Q 11.55,8 10.85,8 10.3,8 7.55,4.8 L 5.8,5.55 Q 7.7,8.25 7.7,9.4 L 7.55,9.8 7.1,10.05 q -0.6,0 -2.9,-4.1 L 1.5,6.3 1.7,7.05 2,10 q 0,0.95 -0.75,0.95 -0.95,0 -1.4,-4.65 l -2.1,-0.15 q 0.15,0.45 0.15,1 0,3.05 -0.75,3.05 -0.75,0 -0.9,-4.35 Q -5.2,5.5 -6.4,4.95 l -0.8,2 q -1,2.25 -1.4,2.25 -0.85,0 -0.7,-0.85 0,-1.45 1.5,-3.8 l 0.2,-0.3 -0.7,-0.5 -1.4,1.75 -2.75,3.2 -0.15,-0.85 q 0,-1.45 2.4,-4.3 L -9.45,2.75 -9.9,2.3 -11.3,3.5 q -2.45,2.05 -3.25,2.05 -0.85,0 -0.8,-0.75 0,-0.55 3.2,-2.8 l 1.35,-0.85 -0.95,-1.6 -1.45,0.9 q -2.75,1.65 -3.45,1.65 -0.85,0 -0.8,-1.05 0,-0.65 3.45,-2.25 l 1.75,-0.65 -0.3,-1.5 -0.25,0.05 -1.3,-0.2 1.45,-0.85 -1.45,0.5 q -2.6,0.85 -4.1,0.85 -1.15,0 -1,-0.75 0,-0.65 3.85,-1.55 l 2.8,-0.4 0.15,-1.65 h -0.5 l -3.7,-0.05 q -1.75,-0.2 -1.75,-0.85 l 0.3,-0.6 2.15,-0.3 3.45,0.4 0.2,0.1 0.5,-2.25 -0.1,-0.35 -2.45,-0.45 -2.95,-0.45 q -0.8,0 -1.1,-0.5 l -0.1,-0.45 q 0,-1.3 4,-0.4 2.3,0.5 3.25,1 l 0.95,-1.95 -0.65,-0.45 q -0.9,-0.65 -1.9,-0.85 l -2.5,-0.7 q -0.35,-0.2 -0.35,-0.65 0,-1.55 3.5,-0.25 2.1,0.75 2.9,1.45 l 0.85,-0.95 1.5,-1.25 -3.8,-3.8 q 0,-1.45 1.6,-0.45 l 1.75,1.35 1.4,1.85 0.45,0.2 3.25,-1 -2.3,-4.2 q 0,-2.1 1.95,0.3 1.6,1.95 1.9,3.75 l 1.55,0.05 1.3,0.15 -0.5,-2.3 -0.45,-3.05 q 0,-1.05 0.9,-0.8 M 0.9,-17.8 H -1 l 0.15,0.3 q 1.1,2.75 1.4,4.75 h 0.1 v -0.2 q 0,-2.1 0.85,-4.75 l -0.6,-0.1 m 1.05,5.05 0.8,0.15 0.05,-0.15 0.65,-2.4 0.65,-2 -1.7,-0.4 -0.3,3.4 -0.15,1.4 m 3.45,-3.9 -1.35,4.55 0.6,0.4 q 1.55,-2.55 2.95,-3.7 l -2.2,-1.25 m 3.1,1.95 -2.6,4.2 0.25,0.3 1.75,-1.6 2.05,-1.5 -1.2,-1.2 -0.25,-0.2 m -0.4,4.8 3.55,-0.65 -0.85,-1.6 -1.75,1.5 -0.95,0.75 m -1.1,1.95 0.05,0.6 2.8,-0.3 2.45,-0.1 L 12,-9.4 9.05,-8.7 7,-7.95 m -3.3,-1.9 q -1.1,-0.85 -2.5,-1 -3.65,-0.4 -3.65,4.05 l 0.25,1.05 0.55,0.95 q 0.6,0.7 1.55,0.95 l 1,0.1 q 2.7,0 3.45,-1.45 0.25,-0.4 0.3,-1.4 L 4.85,-8 q 0,-1 -1.15,-1.85 M 2.65,-1.3 3.2,-0.4 Q 4.7,2.15 4.95,3.75 L 7.1,2.8 Q 5.95,2 3.45,-1.5 l -0.8,0.2 m -1.6,0.1 -0.3,2 V 0.9 L 0.45,3.15 0.25,4.2 H 1.6 L 3.75,4.05 1.6,-1.2 H 1.05 m 5.7,-3.55 1,0.15 q 2.15,0.4 3.95,1.2 0.5,-1.6 0.6,-3.05 L 7,-6 6.75,-4.75 m 0.25,1.4 0.15,0.1 3.3,2.55 0.05,-0.15 0.75,-1.5 L 7.95,-3.3 7,-3.35 M 5.6,-2.7 4.85,-2.1 5.55,-1.25 7.95,2.2 9.85,0.15 7.5,-1.45 5.6,-2.7 m -14.05,-11.2 -1.2,2.25 0.75,0.2 q 3.3,1.2 5.2,1.85 l 0.5,-0.9 q -1.05,-0.45 -3.25,-2.4 l -2,-1 m 1,-1.15 1.75,1 3.5,2.45 0.3,-0.25 -2.4,-3.1 -1.2,-1.6 -1.5,1.05 -0.45,0.45 m 6.25,2.6 v 0.2 l 0.3,-0.15 -0.5,-1.8 -0.85,-3.5 -1.75,0.45 2.8,4.8 m -9,3.45 3.65,0.05 1.3,0.2 -1.2,-0.5 -1.95,-0.7 -1.7,-0.25 -0.25,1.2 h 0.15 m -0.35,2.65 0.05,1.25 1.15,-0.35 4.95,-0.9 0.05,-0.7 -2.15,0.1 -4,-0.35 -0.05,0.95 m 6.45,-2.25 -0.25,0.05 0.25,0.1 V -8.6 m -3.7,5.3 3.8,-0.7 -0.35,-1.65 -3.55,1 -2.45,0.7 0.3,1.4 2.25,-0.75 m -1.75,2.15 0.95,1.55 3.2,-2.1 2.1,-1.15 -0.25,-0.3 -2.35,0.9 q -2.45,0.85 -3.65,1.1 M -0.95,-1.4 -2.7,0.9 -4.7,3.25 -1.65,4 -1.4,3.45 -1.2,3.05 Q -1.15,1 -0.25,-1.25 l -0.7,-0.15 m -1.4,-0.6 -2.7,1.7 -2.65,1.7 1.55,1.15 3.8,-4.5 V -2"
         fill="#6b6b6b"
         fill-rule="evenodd"
         stroke="none"
         id="path7" />
      <path
         d="M 3.7,-9.85 Q 4.85,-9 4.85,-8 l -0.2,1.4 q -0.05,1 -0.3,1.4 -0.75,1.45 -3.45,1.45 l -1,-0.1 Q -1.05,-4.1 -1.65,-4.8 L -2.2,-5.75 -2.45,-6.8 q 0,-4.45 3.65,-4.05 1.4,0.15 2.5,1"
         fill="#cccccc"
         fill-rule="evenodd"
         stroke="none"
         id="path8" />
    </g>
  </defs>
</svg>
