<?xml version="1.0" encoding="UTF-8" standalone="no"?>
<svg
   ffdec:objectType="frame"
   height="40.200001"
   width="26.849993"
   version="1.1"
   id="svg7"
   sodipodi:docname="2.svg"
   xmlns:inkscape="http://www.inkscape.org/namespaces/inkscape"
   xmlns:sodipodi="http://sodipodi.sourceforge.net/DTD/sodipodi-0.dtd"
   xmlns:xlink="http://www.w3.org/1999/xlink"
   xmlns="http://www.w3.org/2000/svg"
   xmlns:svg="http://www.w3.org/2000/svg"
   xmlns:ffdec="https://www.free-decompiler.com/flash">
  <sodipodi:namedview
     id="namedview7"
     pagecolor="#ffffff"
     bordercolor="#000000"
     borderopacity="0.25"
     inkscape:showpageshadow="2"
     inkscape:pageopacity="0.0"
     inkscape:pagecheckerboard="0"
     inkscape:deskcolor="#d1d1d1"
     fit-margin-top="5"
     fit-margin-left="5"
     fit-margin-right="5"
     fit-margin-bottom="5" />
  <g
     transform="translate(13.449996,20.1)"
     id="g2">
    <use
       ffdec:characterId="4128"
       height="40.200001"
       transform="translate(-13.45,-20.1)"
       width="26.85"
       xlink:href="#shape0"
       id="use1" />
    <use
       ffdec:characterId="3500"
       height="8"
       transform="matrix(0.0341,-0.9994,0.9994,0.0341,4.5681,12.6602)"
       width="10.8"
       xlink:href="#sprite0"
       id="use2" />
  </g>
  <defs
     id="defs7">
    <g
       id="shape0"
       transform="translate(13.45,20.1)">
      <path
         d="m 12.75,11.9 -0.05,1.75 v 1.15 q 0.05,0.85 -0.7,3 -0.7,1.25 -1.95,1.8 H -10.1 q -1.25,-0.55 -1.95,-1.8 l -0.7,-3 V 13.65 13.6 l -0.1,-14.55 h -0.1 l 0.05,-0.65 0.55,-2.05 V -4 q 0,-1.8 0.75,-5 0.8,-3.2 2.85,-3.55 l 2.4,-0.35 0.5,-0.05 1.75,-0.2 q 0.1,-0.35 0.05,-0.75 v -0.45 L -4.2,-15.2 v -0.45 h -0.25 l 0.1,-0.25 -0.25,-1.45 q 0,-1.15 0.55,-1.45 l 0.4,-0.5 5.9,-0.3 0.9,0.15 0.4,-0.05 q 1.1,0.05 1.1,2.1 v 1 l -0.4,0.75 H 4.5 l -0.4,0.15 0.05,0.3 -0.15,0.85 v 0.45 q -0.1,1.3 0.65,1.95 l 3.7,3.6 0.25,0.3 q 2.45,2.15 3,3.25 1,1.35 1.25,3.2 l 0.05,0.65 H 12.8 V 11.6 l -0.05,0.3 0.05,-0.3 v 0.45 0.15 L 12.75,11.9 M 2.5,-17.4 v -0.35 H 2.25 l -5,-0.1 0.05,0.5 -0.05,0.9 H 2.5 v -0.95 m -0.85,4.75 v -0.7 l -1.9,0.05 -1.5,-0.1 0.05,0.75 q 0,0.35 -2.05,2.35 L -6.2,-8 -8.4,-5.4 -8.95,-4.8 -9.55,-4 -10,-3.55 q -0.9,0.7 -0.9,2.3 l 0.1,1 -0.05,0.3 v 0.1 l -0.25,5.5 -0.05,3.55 -0.25,4.9 0.9,2.1 q 1.2,2 2.7,2 l 0.75,-0.1 h 15.1 l 0.3,-0.05 0.4,-0.25 0.9,-0.75 0.6,-1.25 0.05,-0.25 0.2,-0.5 V 14.9 l 0.15,-0.3 v -0.95 l 0.1,-0.7 0.05,-0.5 v -0.4 -12 -1 -0.15 -0.3 l 0.05,-0.35 q 0,-0.8 -0.8,-1.7 L 9.95,-3.75 9.6,-4.1 8.35,-5.4 6.15,-8 3.7,-10.3 q -2.05,-2 -2.05,-2.35 m 0.05,-1.4 0.15,-0.75 h -3.7 l 0.05,0.8 3.5,-0.05 M 1.1,7.8 V 1.75 L 0,1.45 h -3.35 l -3,0.4 L -8,2.2 -8.5,2.85 -8.6,3.6 -8.75,6.3 -8.8,8.15 l 0.65,0.4 q 1.3,0.8 3.05,0.8 4,0 5.2,-0.6 L 1.1,7.8 M 2.4,2.3 2.3,5.25 2.25,13.75 1.9,14.85 q -0.5,0.85 -2,1.05 l -6.55,0.25 q -3.05,0 -3.65,-2.05 v -2.15 l 0.2,-2.85 0.05,-0.55 V 8.4 L -10,8.05 -9.9,5.8 -9.85,4.3 -9.6,2.8 q 0.4,-1.15 0.9,-1.45 1.2,-0.75 4.95,-0.9 h 4.5 Q 2.2,0.5 2.4,2.3 M 1.1,13.4 V 8.8 l -1.3,0.75 q -2.1,0.95 -5,0.95 -2.3,0 -3.7,-0.75 L -9,9.7 l -0.15,2 q 0,2.3 1.1,3.25 L -7,15 l 1.9,0.05 1.95,-0.35 2.85,-0.1 q 0.9,-0.15 1.2,-0.5 l 0.2,-0.7 m -2.65,-23.95 -1.3,6.05 q -0.3,1.7 -1.6,2.8 -1.8,1.5 -5.1,1.75 H -10 L -10.05,-0.25 -7.9,-1 q 2.35,-0.65 3.05,-1.4 0.85,-0.8 1.35,-3.1 0.3,-1 0.65,-3.15 0.4,-1.8 1.1,-2.85 l 0.2,0.95 m -7.15,1.1 -0.1,0.15 -0.3,1.4 -0.1,0.4 0.55,-0.55 0.3,-0.3 2.45,-2.35 q -1.95,0.35 -2.8,1.25 m 8,11.65 q 1.1,0.05 1.1,1 0,1.2 -1.25,1.2 l -0.6,-0.2 q 0.3,0.55 0.3,1.7 0,0.9 -0.35,1.6 -0.65,1.35 -2.4,1.35 -1.65,0 -2.45,-1.25 l -0.5,-1.4 0.15,-1.05 0.3,-0.7 h -0.25 q -1.5,0 -1.5,-0.8 0,-1.3 1.65,-1.3 l 0.7,0.15 0.75,-0.2 2.8,0.25 0.2,-0.15 1.35,-0.2 M -4.35,2.95 -5.5,3.2 Q -5.8,3.2 -5.9,3 l -0.4,-0.05 -0.9,0.2 -0.15,0.3 1,0.15 q 0.5,0.05 0.5,0.4 l -0.2,0.35 0.15,0.15 q 0.15,-0.25 0.6,-0.2 0.65,0.1 0.65,0.6 0,0.7 -0.55,0.7 -0.75,0 -0.8,-0.55 l -0.05,0.1 q 0.2,2.7 2.3,2.7 1.45,0 1.7,-1.55 l 0.5,-2.15 H -1.6 Q -1.5,3.7 -1.1,3.6 l 0.65,-0.3 q 0,-0.2 -0.25,-0.25 L -2.1,3.25 -2.5,3.2 -2.6,2.9 -2.55,2.8 -4.35,2.95 m 1.95,2.7 q -0.6,0 -0.55,-0.6 0,-0.7 0.55,-0.6 0.55,0.1 0.55,0.65 Q -1.9,5.65 -2.4,5.65 M -2.35,6.5 Q -2.6,7.05 -3.1,7.05 L -3.35,7 -3.45,6.8 -3.1,6.45 -2.5,6.35 -2.35,6.5 M -4.85,7 q -0.35,0 -0.7,-0.5 0,-0.45 0.55,-0.35 0.5,0.1 0.5,0.5 L -4.6,6.9 -4.85,7 m -8,5.25 0.05,-0.05 v 0.7 l -0.05,-0.65"
         fill="#6b6b6b"
         fill-rule="evenodd"
         stroke="none"
         id="path2" />
      <path
         d="m 1.7,-14.05 -3.5,0.05 -0.05,-0.8 h 3.7 l -0.15,0.75 m -0.05,1.4 q 0,0.35 2.05,2.35 l 2.45,2.3 2.2,2.6 1.25,1.3 0.35,0.35 0.1,0.3 q 0.8,0.9 0.8,1.7 L 10.8,-1.4 v 0.3 0.15 1 12 0.4 l -0.05,0.5 -0.1,0.7 v 0.95 l -0.15,0.3 v 0.15 l -0.2,0.5 -0.05,0.25 -0.6,1.25 -0.9,0.75 -0.4,0.25 -0.3,0.05 h -15.1 l -0.75,0.1 q -1.5,0 -2.7,-2 l -0.9,-2.1 0.25,-4.9 0.05,-3.55 0.25,-5.5 v -0.1 l 0.05,-0.3 -0.1,-1 q 0,-1.6 0.9,-2.3 l 0.45,-0.45 0.6,-0.8 0.55,-0.6 2.2,-2.6 2.45,-2.3 q 2.05,-2 2.05,-2.35 l -0.05,-0.75 1.5,0.1 1.9,-0.05 v 0.7 M 4.8,-8.4 q -0.6,-0.8 -1.2,-0.8 -0.65,0 -0.65,0.75 0,0.4 0.4,0.9 0.5,0.75 1.35,0.75 0.6,0 0.6,-0.55 L 4.8,-8.4 M 1.1,13.4 0.9,14.1 q -0.3,0.35 -1.2,0.5 L -3.15,14.7 -5.1,15.05 -7,15 -8.05,14.95 Q -9.15,14 -9.15,11.7 l 0.15,-2 0.1,0.05 q 1.4,0.75 3.7,0.75 2.9,0 5,-0.95 L 1.1,8.8 v 4.6 M 2.4,2.3 Q 2.2,0.5 0.75,0.45 h -4.5 Q -7.5,0.6 -8.7,1.35 -9.2,1.65 -9.6,2.8 L -9.85,4.3 -9.9,5.8 -10,8.05 -10.05,8.4 v 0.15 l -0.05,0.55 -0.2,2.85 v 2.15 q 0.6,2.05 3.65,2.05 L -0.1,15.9 q 1.5,-0.2 2,-1.05 L 2.25,13.75 2.3,5.25 2.4,2.3 m -6.05,-10.8 -0.4,-0.25 q -0.5,0 -2.25,1.65 -1.75,1.7 -1.75,2.35 0,0.65 0.55,0.65 1.15,0 2.6,-1.8 1.3,-1.6 1.3,-2.3 l -0.05,-0.3 m 2.1,-2.05 -0.2,-0.95 q -0.7,1.05 -1.1,2.85 -0.35,2.15 -0.65,3.15 -0.5,2.3 -1.35,3.1 -0.7,0.75 -3.05,1.4 l -2.15,0.75 0.05,0.3 h 0.45 q 3.3,-0.25 5.1,-1.75 1.3,-1.1 1.6,-2.8 l 1.3,-6.05 M -8,-3.45 q 0,-0.35 -0.4,-0.35 -0.4,0 -0.4,0.35 0,0.4 0.4,0.4 0.4,0 0.4,-0.4"
         fill="#999999"
         fill-rule="evenodd"
         stroke="none"
         id="path3" />
      <path
         d="m 2.5,-17.4 v 0.95 h -5.25 l 0.05,-0.9 -0.05,-0.5 5,0.1 H 2.5 v 0.35 m 2.3,9 0.5,1.05 q 0,0.55 -0.6,0.55 -0.85,0 -1.35,-0.75 -0.4,-0.5 -0.4,-0.9 0,-0.75 0.65,-0.75 0.6,0 1.2,0.8 m -8.45,-0.1 0.05,0.3 q 0,0.7 -1.3,2.3 -1.45,1.8 -2.6,1.8 -0.55,0 -0.55,-0.65 0,-0.65 1.75,-2.35 1.75,-1.65 2.25,-1.65 l 0.4,0.25 M -8,-3.45 q 0,0.4 -0.4,0.4 -0.4,0 -0.4,-0.4 0,-0.35 0.4,-0.35 0.4,0 0.4,0.35 M -4.85,7 -4.6,6.9 -4.5,6.65 Q -4.5,6.25 -5,6.15 -5.55,6.05 -5.55,6.5 -5.2,7 -4.85,7 M -2.35,6.5 -2.5,6.35 -3.1,6.45 -3.45,6.8 -3.35,7 -3.1,7.05 q 0.5,0 0.75,-0.55 M -2.4,5.65 q 0.5,0 0.55,-0.55 0,-0.55 -0.55,-0.65 -0.55,-0.1 -0.55,0.6 -0.05,0.6 0.55,0.6 m -1.95,-2.7 1.8,-0.15 -0.05,0.1 0.1,0.3 0.4,0.05 1.4,-0.2 Q -0.45,3.1 -0.45,3.3 L -1.1,3.6 q -0.4,0.1 -0.5,0.55 h 0.05 l -0.5,2.15 q -0.25,1.55 -1.7,1.55 -2.1,0 -2.3,-2.7 L -6,5.05 q 0.05,0.55 0.8,0.55 0.55,0 0.55,-0.7 0,-0.5 -0.65,-0.6 -0.45,-0.05 -0.6,0.2 L -6.05,4.35 -5.85,4 q 0,-0.35 -0.5,-0.4 l -1,-0.15 0.15,-0.3 0.9,-0.2 0.4,0.05 q 0.1,0.2 0.4,0.2 l 1.15,-0.25"
         fill="#ffffff"
         fill-rule="evenodd"
         stroke="none"
         id="path4" />
      <path
         d="m 1.1,7.8 -1,0.95 q -1.2,0.6 -5.2,0.6 -1.75,0 -3.05,-0.8 L -8.8,8.15 -8.75,6.3 -8.6,3.6 -8.5,2.85 -8,2.2 l 1.65,-0.35 3,-0.4 H 0 l 1.1,0.3 V 7.8 M -0.7,2.2 -2.05,2.4 -2.25,2.55 -5.05,2.3 -5.8,2.5 -6.5,2.35 q -1.65,0 -1.65,1.3 0,0.8 1.5,0.8 h 0.25 l -0.3,0.7 -0.15,1.05 0.5,1.4 q 0.8,1.25 2.45,1.25 1.75,0 2.4,-1.35 0.35,-0.7 0.35,-1.6 0,-1.15 -0.3,-1.7 l 0.6,0.2 q 1.25,0 1.25,-1.2 0,-0.95 -1.1,-1"
         fill="#cccccc"
         fill-rule="evenodd"
         stroke="none"
         id="path5" />
      <path
         d="M 12.8,11.6 V -0.95 h 0.1 L 12.85,-1.6 Q 12.6,-3.45 11.6,-4.8 11.05,-5.9 8.6,-8.05 l -0.25,-0.3 -3.7,-3.6 Q 3.9,-12.6 4,-13.9 v -0.45 L 4.15,-15.2 4.1,-15.5 4.5,-15.65 H 4.25 l 0.4,-0.75 v -1 q 0,-2.05 -1.1,-2.1 l -0.4,0.05 -0.9,-0.15 -5.9,0.3 -0.4,0.5 q -0.55,0.3 -0.55,1.45 l 0.25,1.45 -0.1,0.25 h 0.25 v 0.45 l 0.15,0.85 v 0.45 q 0.05,0.4 -0.05,0.75 l -1.75,0.2 -0.5,0.05 -2.4,0.35 q -2.05,0.35 -2.85,3.55 -0.75,3.2 -0.75,5 v 0.35 l -0.55,2.05 -0.05,0.65 h 0.1 l 0.1,14.55 v 0.05 1.15 l 0.7,3 q 0.7,1.25 1.95,1.8 h 20.15 q 1.25,-0.55 1.95,-1.8 0.75,-2.15 0.7,-3 v -1.15 l 0.05,-1.75 0.05,-0.3 v 0.45 0.15 m -25.65,0.05 0.05,0.65 v -0.7 m 0.05,1.4 -0.05,-0.45 V 12.9"
         fill="none"
         stroke="#6b6b6b"
         stroke-linecap="round"
         stroke-linejoin="round"
         stroke-width="1"
         id="path6" />
    </g>
    <g
       id="sprite0"
       transform="translate(5.4,4)">
      <use
         ffdec:characterId="43"
         height="8"
         transform="translate(-5.4,-4)"
         width="10.8"
         xlink:href="#shape1"
         id="use6" />
    </g>
    <g
       id="shape1"
       transform="translate(5.4,4)">
      <path
         d="m 2.9,-0.35 q 0,-1.25 1.25,-1.25 1.25,0 1.25,1.2 0,1.3 -1.25,1.3 Q 3.6,0.9 3.25,0.5 2.9,0.15 2.9,-0.35 m 0.35,-2.3 q 0,0.55 -0.35,0.9 -0.4,0.45 -1,0.45 -1.35,0 -1.35,-1.4 0,-1.3 1.35,-1.3 1.35,0 1.35,1.35 m -3.1,1.9 h 0.2 q 2.6,0.1 2.6,2.8 l -0.3,1 Q 2.05,4 0.45,4 H 0.35 0.15 0.1 -0.45 q -1.6,0 -2.2,-0.95 l -0.3,-1 q 0,-2.8 2.8,-2.8 h 0.3 M -1.55,-4 q 1.35,0 1.35,1.35 0,0.55 -0.4,0.9 -0.4,0.45 -0.95,0.45 -1.4,0 -1.4,-1.4 0,-1.3 1.4,-1.3 m -2.6,2.4 q 1.25,0 1.25,1.25 0,0.5 -0.35,0.85 -0.35,0.4 -0.9,0.4 -1.25,0 -1.25,-1.3 0,-1.2 1.25,-1.2"
         fill="#6b6b6b"
         fill-rule="evenodd"
         stroke="none"
         id="path7" />
    </g>
  </defs>
</svg>
