<?xml version="1.0" encoding="UTF-8" standalone="no"?>
<svg
   ffdec:objectType="frame"
   height="20.515385"
   width="19.65"
   version="1.1"
   id="svg3"
   sodipodi:docname="1.svg"
   xmlns:inkscape="http://www.inkscape.org/namespaces/inkscape"
   xmlns:sodipodi="http://sodipodi.sourceforge.net/DTD/sodipodi-0.dtd"
   xmlns:xlink="http://www.w3.org/1999/xlink"
   xmlns="http://www.w3.org/2000/svg"
   xmlns:svg="http://www.w3.org/2000/svg"
   xmlns:ffdec="https://www.free-decompiler.com/flash">
  <sodipodi:namedview
     id="namedview3"
     pagecolor="#ffffff"
     bordercolor="#000000"
     borderopacity="0.25"
     inkscape:showpageshadow="2"
     inkscape:pageopacity="0.0"
     inkscape:pagecheckerboard="0"
     inkscape:deskcolor="#d1d1d1"
     fit-margin-top="5"
     fit-margin-left="5"
     fit-margin-right="5"
     fit-margin-bottom="5" />
  <g
     transform="translate(9.8,10.25)"
     id="g1">
    <use
       ffdec:characterId="4200"
       height="20.5"
       transform="translate(-9.85,-10.25)"
       width="19.700001"
       xlink:href="#shape0"
       id="use1" />
  </g>
  <defs
     id="defs3">
    <g
       id="shape0"
       transform="translate(9.85,10.25)">
      <path
         d="m 0.6,-6.3 -0.55,0.25 q -0.65,0 -0.9,-0.6 l -0.05,-0.4 q 0,-0.9 0.95,-0.9 0.95,0 0.95,1 0,0.35 -0.4,0.65"
         fill="#777777"
         fill-rule="evenodd"
         stroke="none"
         id="path1" />
      <path
         d="m 1.35,-7.55 q 0.5,0.7 0.9,0.7 h 0.3 l 5,0.2 -0.05,0.9 h -15 l -0.05,-0.9 5,-0.2 h 0.3 q 0.4,0 0.9,-0.7 0.5,-0.7 1.35,-0.75 0.85,0.05 1.35,0.75 M 0.6,-6.3 Q 1,-6.6 1,-6.95 q 0,-1 -0.95,-1 -0.95,0 -0.95,0.9 l 0.05,0.4 q 0.25,0.6 0.9,0.6 L 0.6,-6.3 M 7.15,-3.25 7.1,-2 Q 7.05,0.05 7.35,2.6 v 3.75 l 0.1,1.15 h -14.9 l 0.1,-1.15 V 2.6 Q -7.05,0.05 -7.1,-2 L -7.15,-3.25 H 7.15 M 6.6,-1.75 H 6.55 L 6.45,-2 H -6.6 l -0.35,0.5 0.35,0.45 -0.15,1.6 V 2.3 4.05 l 0.15,1.6 -0.35,0.45 0.35,0.5 q 0.3,0.3 0.45,0.2 L -5.9,6.9 -5.6,6.8 H 4.6 L 5.55,6.7 6,7.1 q 0.35,0 0.55,-0.75 H 6.6 l 0.25,-1.5 v -2.4 -0.3 -2.4 L 6.6,-1.75 m -1.5,4.2 v 2.8 L -5.1,5.2 V 4.1 2.3 0.5 -0.6 H 5.1 v 2.75 0.3 M 4.15,0.9 3.6,0.4 Q -1.95,0.25 -3.45,0.45 -4.1,0.55 -4.1,0.95 L -3.5,1.5 3.6,1.45 4.15,0.9"
         fill="#cccccc"
         fill-rule="evenodd"
         stroke="none"
         id="path2" />
      <path
         d="M 9.85,-6.9 V 9.8 Q 9.5,10.35 8.6,10.25 H -8.6 q -0.85,0.05 -1.2,-0.4 v -16.9 l 0.05,-0.1 -0.05,-0.05 v -0.5 q 0.05,-1.15 4.15,-1.1 l 2.6,0.25 q 0.35,-0.85 1.6,-1.4 l 1.2,-0.3 1.7,0.3 q 1.25,0.55 1.6,1.4 L 5.65,-8.8 Q 9.8,-8.85 9.8,-7.7 l -0.05,0.55 0.1,0.25 M 1.35,-7.55 Q 0.85,-8.25 0,-8.3 q -0.85,0.05 -1.35,0.75 -0.5,0.7 -0.9,0.7 h -0.3 l -5,0.2 0.05,0.9 h 15 l 0.05,-0.9 -5,-0.2 h -0.3 q -0.4,0 -0.9,-0.7 m 5.25,5.8 0.25,1.5 v 2.4 0.3 2.4 L 6.6,6.35 H 6.55 Q 6.35,7.1 6,7.1 L 5.55,6.7 4.6,6.8 H -5.6 L -5.9,6.9 -6.15,6.8 Q -6.3,6.9 -6.6,6.6 L -6.95,6.1 -6.6,5.65 -6.75,4.05 V 2.3 0.55 L -6.6,-1.05 -6.95,-1.5 -6.6,-2 H 6.45 l 0.1,0.25 H 6.6 m 0.55,-1.5 H -7.15 L -7.1,-2 q 0.05,2.05 -0.25,4.6 V 6.35 L -7.45,7.5 H 7.45 L 7.35,6.35 V 2.6 Q 7.05,0.05 7.1,-2 L 7.15,-3.25 M 5.1,2.45 V 2.15 -0.6 H -5.1 V 0.5 2.3 4.1 5.2 L 5.1,5.25 V 2.45 M 4.15,0.9 3.6,1.45 -3.5,1.5 -4.1,0.95 q 0,-0.4 0.65,-0.5 1.5,-0.2 7.05,-0.05 l 0.55,0.5"
         fill="#6b6b6b"
         fill-rule="evenodd"
         stroke="none"
         id="path3" />
    </g>
  </defs>
</svg>
