<?xml version="1.0" encoding="UTF-8" standalone="no"?>
<svg
   ffdec:objectType="frame"
   height="34.920486"
   width="20.450001"
   version="1.1"
   id="svg9"
   sodipodi:docname="1.svg"
   xmlns:inkscape="http://www.inkscape.org/namespaces/inkscape"
   xmlns:sodipodi="http://sodipodi.sourceforge.net/DTD/sodipodi-0.dtd"
   xmlns:xlink="http://www.w3.org/1999/xlink"
   xmlns="http://www.w3.org/2000/svg"
   xmlns:svg="http://www.w3.org/2000/svg"
   xmlns:ffdec="https://www.free-decompiler.com/flash">
  <sodipodi:namedview
     id="namedview9"
     pagecolor="#ffffff"
     bordercolor="#000000"
     borderopacity="0.25"
     inkscape:showpageshadow="2"
     inkscape:pageopacity="0.0"
     inkscape:pagecheckerboard="0"
     inkscape:deskcolor="#d1d1d1"
     fit-margin-top="5"
     fit-margin-left="5"
     fit-margin-right="5"
     fit-margin-bottom="5" />
  <g
     transform="translate(10.2,17.44)"
     id="g3">
    <use
       ffdec:characterId="4022"
       height="21.299999"
       transform="matrix(0,0.6476,-0.6476,0,7.5252,-12.7842)"
       width="46.349998"
       xlink:href="#sprite0"
       id="use1" />
    <use
       ffdec:characterId="4022"
       height="21.299999"
       transform="matrix(0.1449,-0.5408,0.5408,0.1449,-10.0495,11.6526)"
       width="46.349998"
       xlink:href="#sprite0"
       id="use2" />
    <use
       ffdec:characterId="4023"
       height="34.950001"
       transform="translate(-10.2,-17.45)"
       width="20.450001"
       xlink:href="#shape1"
       id="use3" />
  </g>
  <defs
     id="defs9">
    <g
       id="sprite0"
       transform="translate(8.7,8.3)">
      <use
         ffdec:characterId="3784"
         height="2.9000001"
         transform="matrix(1.2994,0.0307,0.1465,0.7836,-0.7,0.85)"
         width="3"
         xlink:href="#sprite1"
         id="use4" />
      <use
         ffdec:characterId="3784"
         height="2.9000001"
         transform="matrix(0.8135,-0.218,0.1662,0.6203,-8.7,10.65)"
         width="3"
         xlink:href="#sprite1"
         id="use5" />
      <use
         ffdec:characterId="3784"
         height="2.9000001"
         transform="matrix(0.4161,0.5478,-0.4881,0.3707,21.55,-6.7)"
         width="3"
         xlink:href="#sprite1"
         id="use6" />
    </g>
    <g
       id="sprite1">
      <use
         ffdec:characterId="1134"
         height="6.1500001"
         transform="matrix(0.4615,0,0,0.4715,0,0.0118)"
         width="6.5"
         xlink:href="#shape0"
         id="use7" />
    </g>
    <g
       id="shape0"
       transform="translate(3.25,3.05)">
      <path
         d="m 0.05,-3.05 q 3.2,-0.2 3.2,3.2 0,2.95 -3.1,2.95 -2.35,0 -3.1,-1.5 l -0.3,-1.75 q 0,-2.7 3.3,-2.9"
         fill="#6b6b6b"
         fill-rule="evenodd"
         stroke="none"
         id="path7" />
    </g>
    <g
       id="shape1"
       transform="translate(10.2,17.45)">
      <path
         d="m 10.25,-14.85 v 0.05 q 0,1.45 -0.5,1.9 l -0.35,0.25 0.1,0.05 0.7,1.45 V 14.6 L 9.6,15.9 Q 8.45,17.7 5.7,17.45 H -5.75 Q -8.5,17.7 -9.65,15.9 l -0.55,-1.3 v -25.75 l 0.8,-1.6 -0.2,-0.15 q -0.45,-0.45 -0.45,-1.9 v -0.05 l 0.2,-1.2 h 0.15 l 0.3,-0.3 0.45,-0.6 q 0.65,-0.7 1.25,-0.4 H -6.55 8.6 l 0.3,0.05 0.65,0.25 0.15,0.05 0.15,0.2 0.3,1.1 0.1,0.85 m -13.4,1 h 9.3 L 6.65,-14 q 1.45,-0.3 1.6,-0.75 H -2.95 -6.4 -8.1 q 0.15,0.45 1.65,0.75 l 0.25,0.05 0.25,0.1 h 2.8 M -3,-15.25 H 8.2 l -0.5,-0.4 H 7.25 -1.9 -3.2 l -3,0.05 -1.45,0.05 -0.35,0.3 H -6.35 -3 m 4.8,30.6 V 15.4 H 5.25 L 4.85,15.3 1.9,14.9 h -2.15 l -0.2,0.15 -2.6,0.15 -1.6,0.2 H -0.6 V 15.35 H 1.8 M 6.75,-11.3 6.15,-11.9 H 1.8 v 0.05 H 1.2 0.4 0.2 -0.15 v -0.05 h -6 l -0.65,0.6 q -0.75,0.55 -0.8,2.05 l -0.05,0.15 -0.1,0.35 v 0.15 0.05 l 0.1,0.8 -0.15,1.2 -0.05,0.15 V 1.7 4.4 5.65 7.3 7.55 h 0.05 v 3.2 l -0.05,1.1 0.05,0.95 0.25,0.75 0.15,0.3 h -0.05 l 0.35,0.5 0.75,0.7 1.5,-0.4 1.8,-0.3 2,-0.15 v -0.05 h 3.2 L 5.3,14.6 6.4,15 7.05,14.35 7.4,13.85 H 7.35 L 7.5,13.55 7.75,12.8 7.8,11.85 7.75,10.75 Q 7.7,8.8 7.8,7.55 V 7.3 5.65 4.4 -6.4 L 7.75,-6.55 7.65,-7.75 7.7,-8.55 V -8.6 -8.75 L 7.65,-9.1 7.55,-9.25 q -0.05,-1.5 -0.8,-2.05"
         fill="#6b6b6b"
         fill-rule="evenodd"
         stroke="none"
         id="path8" />
      <path
         d="m -2.95,-14.75 v 0.1 l -0.2,0.8 h -2.8 l -0.25,-0.1 -0.2,-0.7 v -0.1 h 3.45 m -0.25,-0.9 0.2,0.4 h -3.35 l 0.15,-0.35 3,-0.05 M -2,-7.2 q 0,0.55 -0.8,1.25 -0.9,0.85 -2,0.85 -1.1,0 -1.45,-1.2 L -6.4,-7.6 q 0,-2.6 2.2,-2.95 2.2,-0.3 2.2,3.35"
         fill="#e2e2e2"
         fill-rule="evenodd"
         stroke="none"
         id="path9" />
    </g>
  </defs>
</svg>
