<?xml version="1.0" encoding="UTF-8" standalone="no"?>
<svg
   ffdec:objectType="frame"
   height="47.200001"
   width="25.299999"
   version="1.1"
   id="svg6"
   sodipodi:docname="2.svg"
   xmlns:inkscape="http://www.inkscape.org/namespaces/inkscape"
   xmlns:sodipodi="http://sodipodi.sourceforge.net/DTD/sodipodi-0.dtd"
   xmlns:xlink="http://www.w3.org/1999/xlink"
   xmlns="http://www.w3.org/2000/svg"
   xmlns:svg="http://www.w3.org/2000/svg"
   xmlns:ffdec="https://www.free-decompiler.com/flash">
  <sodipodi:namedview
     id="namedview6"
     pagecolor="#ffffff"
     bordercolor="#000000"
     borderopacity="0.25"
     inkscape:showpageshadow="2"
     inkscape:pageopacity="0.0"
     inkscape:pagecheckerboard="0"
     inkscape:deskcolor="#d1d1d1"
     fit-margin-top="5"
     fit-margin-left="5"
     fit-margin-right="5"
     fit-margin-bottom="5" />
  <g
     transform="translate(12.65,23.6)"
     id="g2">
    <use
       ffdec:characterId="2188"
       height="47.200001"
       transform="translate(-12.65,-23.6)"
       width="25.299999"
       xlink:href="#shape0"
       id="use1" />
    <use
       ffdec:characterId="1691"
       height="8"
       transform="matrix(-0.5922,-0.5922,0.5922,-0.5922,3.6789,22.6163)"
       width="10.8"
       xlink:href="#sprite0"
       id="use2" />
  </g>
  <defs
     id="defs6">
    <g
       id="shape0"
       transform="translate(12.65,23.6)">
      <path
         d="m 2.7,-19.55 q -0.9,1.25 -0.9,2.5 0,6.05 4.35,9.15 l 3,2.7 q 0.9,1.25 1.2,3.2 L 10.5,0.05 10.35,2.5 9.85,4.7 8.9,6.7 h 1.9 q 0.2,-0.15 0.45,-0.15 1.4,-0.05 1.4,4.4 l -0.05,1.4 -0.15,0.55 0.05,0.3 q 0,1.35 -2.15,1.45 H 9.2 l 0.05,0.65 -0.9,2.9 q -0.9,2.6 -0.9,3.35 l 0.1,1.1 Q 7.35,23.25 6,23.6 H -6 q -1.35,-0.35 -1.55,-0.95 l 0.1,-1.1 q 0,-0.75 -0.9,-3.35 l -0.9,-2.9 0.05,-0.65 q -3.3,0.2 -3.3,-1.45 l 0.05,-0.3 -0.15,-0.55 -0.05,-1.4 q 0,-4.45 1.4,-4.4 0.25,0 0.45,0.15 h 1.55 l -0.1,-0.15 q -1.3,-2 -1.3,-3.65 0,-4.8 1.5,-6.85 L -6.3,-7.1 q 1.85,-2.25 1.75,-3.65 -0.25,-3.2 2.45,-6.95 1.7,-2.4 4,-4 0.4,-0.4 0.95,-0.65 l 2.35,-1.25 0.1,0.15 0.05,0.5 q 0,0.35 -1.7,1.95 l -0.95,1.45 m 0.95,13.5 q -4.3,-3.55 -4.3,-7.6 l 0.1,-2.3 q -1.3,2.5 -1.6,5.25 -0.25,2.7 -2.85,6.35 -2.55,3.5 -2.55,5.7 0,2.7 2.35,4.35 l 1.3,1 h 0.05 L -3.3,6.8 H 3.3 L 3.85,6.7 H 4.1 L 5.65,4.95 Q 7.9,2.4 7.9,-0.1 7.9,-2.5 3.65,-6.05 M 5.5,2.15 Q 4.3,2.15 3.9,1.1 L 3.75,0.35 q 0,-1.4 1.75,-1.6 Q 7.2,-1.4 7.2,0.45 7.2,1.1 6.75,1.6 6.25,2.15 5.5,2.15 M 2,1.5 2.05,2.05 Q 2.05,2.5 0.9,2.8 L -1.4,3.2 -1.5,3.15 -1.65,2.65 q 0,-0.65 0.6,-1 L 1.9,1.4 2,1.5 m 1.3,8.05 h -6.6 l -0.55,0.1 H -9.9 v 1.3 1.05 h 1.35 l 0.5,0.05 H 8.05 L 8.55,12 H 9.9 V 10.95 9.65 H 3.85 L 3.3,9.55 m 3,4.95 H -6.3 l 0.25,0.7 0.5,2.45 0.5,2.6 0.1,0.35 4.15,0.05 H 0 0.85 l 4.1,-0.05 0.1,-0.35 0.5,-2.6 0.5,-2.45 0.25,-0.7 M -3.5,2.45 q -0.55,0.45 -1.3,0.45 -1.15,0 -1.55,-1 L -6.5,1.15 q 0,-1.9 1.75,-1.6 1.75,0.35 1.75,1.7 0,0.7 -0.5,1.2"
         fill="#6b6b6b"
         fill-rule="evenodd"
         stroke="none"
         id="path2" />
      <path
         d="M 2,1.5 1.9,1.4 -1.05,1.65 q -0.6,0.35 -0.6,1 L -1.5,3.15 -1.4,3.2 0.9,2.8 Q 2.05,2.5 2.05,2.05 L 2,1.5 M 5.5,2.15 Q 6.25,2.15 6.75,1.6 7.2,1.1 7.2,0.45 7.2,-1.4 5.5,-1.25 3.75,-1.05 3.75,0.35 L 3.9,1.1 Q 4.3,2.15 5.5,2.15 M 3.65,-6.05 Q 7.9,-2.5 7.9,-0.1 7.9,2.4 5.65,4.95 L 4.1,6.7 H 3.85 L 3.3,6.8 H -3.3 L -3.85,6.7 H -3.9 l -1.3,-1 q -2.35,-1.65 -2.35,-4.35 0,-2.2 2.55,-5.7 2.6,-3.65 2.85,-6.35 0.3,-2.75 1.6,-5.25 l -0.1,2.3 q 0,4.05 4.3,7.6 M -3.5,2.45 Q -3,1.95 -3,1.25 -3,-0.1 -4.75,-0.45 -6.5,-0.75 -6.5,1.15 l 0.15,0.75 q 0.4,1 1.55,1 0.75,0 1.3,-0.45"
         fill="#d3cfba"
         fill-rule="evenodd"
         stroke="none"
         id="path3" />
      <path
         d="m 3.3,9.55 0.55,0.1 H 9.9 V 10.95 12 H 8.55 l -0.5,0.05 H -8.05 L -8.55,12 H -9.9 v -1.05 -1.3 h 6.05 l 0.55,-0.1 h 6.6"
         fill="#a69c8d"
         fill-rule="evenodd"
         stroke="none"
         id="path4" />
      <path
         d="m 6.3,14.5 -0.25,0.7 -0.5,2.45 -0.5,2.6 -0.1,0.35 -4.1,0.05 H 0 -0.8 l -4.15,-0.05 -0.1,-0.35 -0.5,-2.6 -0.5,-2.45 -0.25,-0.7 H 6.3"
         fill="#948a7c"
         fill-rule="evenodd"
         stroke="none"
         id="path5" />
    </g>
    <g
       id="sprite0"
       transform="translate(5.4,4)">
      <use
         ffdec:characterId="43"
         height="8"
         transform="translate(-5.4,-4)"
         width="10.8"
         xlink:href="#shape1"
         id="use5" />
    </g>
    <g
       id="shape1"
       transform="translate(5.4,4)">
      <path
         d="m 2.9,-0.35 q 0,-1.25 1.25,-1.25 1.25,0 1.25,1.2 0,1.3 -1.25,1.3 Q 3.6,0.9 3.25,0.5 2.9,0.15 2.9,-0.35 m 0.35,-2.3 q 0,0.55 -0.35,0.9 -0.4,0.45 -1,0.45 -1.35,0 -1.35,-1.4 0,-1.3 1.35,-1.3 1.35,0 1.35,1.35 m -3.1,1.9 h 0.2 q 2.6,0.1 2.6,2.8 l -0.3,1 Q 2.05,4 0.45,4 H 0.35 0.15 0.1 -0.45 q -1.6,0 -2.2,-0.95 l -0.3,-1 q 0,-2.8 2.8,-2.8 h 0.3 M -1.55,-4 q 1.35,0 1.35,1.35 0,0.55 -0.4,0.9 -0.4,0.45 -0.95,0.45 -1.4,0 -1.4,-1.4 0,-1.3 1.4,-1.3 m -2.6,2.4 q 1.25,0 1.25,1.25 0,0.5 -0.35,0.85 -0.35,0.4 -0.9,0.4 -1.25,0 -1.25,-1.3 0,-1.2 1.25,-1.2"
         fill="#6b6b6b"
         fill-rule="evenodd"
         stroke="none"
         id="path6" />
    </g>
  </defs>
</svg>
