<?xml version="1.0" encoding="UTF-8" standalone="no"?>
<svg
   ffdec:objectType="frame"
   height="123.53125"
   width="73.050003"
   version="1.1"
   id="svg48"
   sodipodi:docname="2.svg"
   xmlns:inkscape="http://www.inkscape.org/namespaces/inkscape"
   xmlns:sodipodi="http://sodipodi.sourceforge.net/DTD/sodipodi-0.dtd"
   xmlns:xlink="http://www.w3.org/1999/xlink"
   xmlns="http://www.w3.org/2000/svg"
   xmlns:svg="http://www.w3.org/2000/svg"
   xmlns:ffdec="https://www.free-decompiler.com/flash">
  <sodipodi:namedview
     id="namedview48"
     pagecolor="#ffffff"
     bordercolor="#000000"
     borderopacity="0.25"
     inkscape:showpageshadow="2"
     inkscape:pageopacity="0.0"
     inkscape:pagecheckerboard="0"
     inkscape:deskcolor="#d1d1d1"
     fit-margin-top="5"
     fit-margin-left="5"
     fit-margin-right="5"
     fit-margin-bottom="5" />
  <g
     transform="translate(35.75,81.1)"
     id="g17">
    <use
       ffdec:characterId="338"
       height="10.25"
       transform="translate(1.75,-39.85)"
       width="2.8499999"
       xlink:href="#shape0"
       id="use1" />
    <use
       ffdec:characterId="342"
       height="79.25"
       transform="translate(-38.75,-84.15)"
       width="79.150002"
       xlink:href="#sprite0"
       id="use2" />
    <use
       ffdec:characterId="322"
       height="39.099998"
       transform="translate(-10.7,-30.35)"
       width="4.4499998"
       xlink:href="#sprite3"
       id="use3" />
    <use
       ffdec:characterId="300"
       height="9.8999996"
       transform="matrix(0.9847,0,0,0.9847,-0.35,30.55)"
       width="12.95"
       xlink:href="#sprite4"
       id="use4" />
    <use
       ffdec:characterId="272"
       height="15.55"
       transform="matrix(-0.6963,-0.6963,0.6963,-0.6963,-14.05,37.95)"
       width="12.4"
       xlink:href="#sprite5"
       id="use5" />
    <use
       ffdec:characterId="318"
       height="19.200001"
       transform="matrix(0.866,0.5,-0.5,0.866,-8.7567,16.725)"
       width="4.5999999"
       xlink:href="#sprite6"
       id="use6" />
    <use
       ffdec:characterId="294"
       height="16.1"
       transform="matrix(0,0.9847,-0.9847,0,-6.45,29.6)"
       width="12.45"
       xlink:href="#sprite7"
       id="use7" />
    <use
       ffdec:characterId="337"
       height="23.85"
       transform="matrix(-0.866,-0.5,0.5,-0.866,0.15,-29.5)"
       width="18.15"
       xlink:href="#sprite8"
       id="use8" />
    <use
       ffdec:characterId="294"
       height="16.1"
       transform="matrix(1.0258,0.2748,-0.2748,1.0258,-5.9,-16.55)"
       width="12.45"
       xlink:href="#sprite9"
       id="use9" />
    <use
       ffdec:characterId="298"
       height="16.9"
       transform="matrix(1.0258,-0.2748,0.2748,1.0258,-10.5,-25.55)"
       width="12.05"
       xlink:href="#sprite10"
       id="use10" />
    <use
       ffdec:characterId="300"
       height="9.8999996"
       transform="matrix(1.062,0,0,1.062,-13.05,-1.15)"
       width="12.95"
       xlink:href="#sprite11"
       id="use11" />
    <use
       ffdec:characterId="272"
       height="15.55"
       transform="matrix(1.062,0,0,1.062,-13.05,-38.45)"
       width="12.4"
       xlink:href="#sprite12"
       id="use12" />
    <use
       ffdec:characterId="298"
       height="16.9"
       transform="matrix(-1.0258,0.2748,-0.2748,-1.0258,5.85,35.4)"
       width="12.05"
       xlink:href="#sprite13"
       id="use13" />
    <use
       ffdec:characterId="300"
       height="9.8999996"
       transform="matrix(-1.0258,-0.2749,0.2749,-1.0258,3.7,43.15)"
       width="12.95"
       xlink:href="#sprite11"
       id="use14" />
    <use
       ffdec:characterId="272"
       height="15.55"
       transform="matrix(-1.062,0,0,-1.062,2.7,24.9)"
       width="12.4"
       xlink:href="#sprite12"
       id="use15" />
    <use
       ffdec:characterId="298"
       height="16.9"
       transform="matrix(0.5311,-0.9197,0.9197,0.5311,-3.6,33)"
       width="12.05"
       xlink:href="#sprite13"
       id="use16" />
    <use
       ffdec:characterId="44"
       height="8"
       transform="matrix(0.6887,0.1845,-0.1845,0.6887,-4.7307,-10.001)"
       width="10.8"
       xlink:href="#sprite14"
       id="use17" />
  </g>
  <defs
     id="defs48">
    <g
       id="shape0"
       transform="translate(-1.75,39.85)">
      <path
         d="m 3.35,-37.45 0.15,2.85 v 2 h 0.75 l -0.05,0.05 -0.75,0.45 v 0.2 q 1.15,0.1 1.15,1.35 0,0.55 -0.35,0.95 h -2.3 l -0.1,-0.15 -0.1,-0.7 q 0,-0.6 0.35,-0.95 -0.3,-0.55 -0.2,-0.95 L 2,-32.5 1.95,-32.6 H 2 l 0.3,-1.9 0.1,-5.3 0.5,-0.05 0.45,2.4"
         fill="#9a9a9a"
         fill-rule="evenodd"
         stroke="none"
         id="path17" />
    </g>
    <g
       id="sprite0"
       transform="translate(3,3.05)">
      <use
         ffdec:characterId="341"
         height="73.150002"
         width="73.050003"
         xlink:href="#sprite1"
         id="use18" />
    </g>
    <g
       id="sprite1">
      <use
         ffdec:characterId="340"
         height="73.150002"
         width="73.050003"
         xlink:href="#sprite2"
         id="use19" />
    </g>
    <g
       id="sprite2">
      <use
         ffdec:characterId="339"
         height="73.150002"
         width="73.050003"
         xlink:href="#shape1"
         id="use20" />
    </g>
    <g
       id="shape1">
      <path
         d="m 73.05,36.55 q 0,15.2 -10.7,25.9 Q 51.7,73.15 36.5,73.15 21.35,73.15 10.65,62.45 0,51.75 0,36.55 0,21.4 10.65,10.7 21.35,0 36.5,0 q 15.2,0 25.85,10.7 10.7,10.7 10.7,25.85"
         fill="url(#gradient0)"
         fill-rule="evenodd"
         stroke="none"
         id="path20" />
    </g>
    <radialGradient
       cx="0"
       cy="0"
       gradientTransform="matrix(0.045,0,0,0.045,36.55,36.6)"
       gradientUnits="userSpaceOnUse"
       id="gradient0"
       r="819.20001"
       spreadMethod="pad">
      <stop
         offset="0.0"
         stop-color="#ffffff"
         stop-opacity="0.49803922"
         id="stop20" />
      <stop
         offset="1.0"
         stop-color="#ffffff"
         stop-opacity="0.0"
         id="stop21" />
    </radialGradient>
    <g
       id="sprite3">
      <use
         ffdec:characterId="321"
         height="39.099998"
         width="4.4499998"
         xlink:href="#shape2"
         id="use21" />
    </g>
    <g
       id="shape2">
      <path
         d="M 2.9,2.15 2.95,1.6 H 2.8 2.75 2.3 2.15 2 1.8 L 1.85,1.9 1.9,2.1 1.95,2.65 v 0.1 Q 2.4,2.45 2.8,2.5 H 2.85 L 2.9,2.15 M 3.75,1.3 4.4,5.05 4.45,35.5 v 1.85 l -0.2,0.85 -0.2,0.45 Q 3.6,39 2.2,39 L 1.3,38.95 1,39.1 0.7,38.85 0.2,38.6 0.1,38.1 0.3,37.55 0,33.5 V 27.8 L 0.05,5.1 0.1,2.55 Q 0.15,1.55 0.5,0.9 V 0.8 Q 0.5,0.35 0.8,0.2 L 2.15,0 Q 4,0 4,0.8 L 3.75,1.3 m -1.8,2.9 v 1 1.05 L 2.45,6.05 2.65,6 V 5.75 5.55 L 2.75,3.6 Q 2.6,3.65 2.45,3.8 L 1.95,4.2 M 2,11.85 V 14.4 Q 2.25,14.25 2.55,14.2 V 11.65 L 2,11.85 M 2,10.65 2.55,10.35 2.6,7.3 1.95,7.8 2,10.65 M 2.15,15.7 2,15.9 v 3.3 l 0.5,-0.15 0.05,-3.7 -0.4,0.35 m 0.35,6.75 v -0.9 -1.3 L 2,20.6 v 2.2 L 2.5,22.45 M 2,24.15 v 3 l 0.5,-0.3 V 23.7 L 2,24.15 M 2.5,27.9 2.05,28.3 2.1,31.75 2.55,31.25 2.5,30.15 V 27.9 M 2,36.4 1.9,36.45 1.85,37.2 H 2.15 2.9 L 2.75,35.8 2,36.4 M 2.55,32.65 2.1,33 2.05,34.7 2.65,34.3 2.55,32.65"
         fill="#6b6b6b"
         fill-rule="evenodd"
         stroke="none"
         id="path21" />
      <path
         d="M 2.9,2.15 2.85,2.5 H 2.8 Q 2.4,2.45 1.95,2.75 V 2.65 L 1.9,2.1 1.85,1.9 1.8,1.6 H 2 2.15 2.3 2.75 2.8 2.95 L 2.9,2.15 M 2.55,32.65 2.65,34.3 2.05,34.7 2.1,33 2.55,32.65 M 2,36.4 2.75,35.8 2.9,37.2 H 2.15 1.85 L 1.9,36.45 2,36.4 m 0.5,-8.5 v 2.25 L 2.55,31.25 2.1,31.75 2.05,28.3 2.5,27.9 M 2,24.15 2.5,23.7 v 3.15 L 2,27.15 v -3 M 2.5,22.45 2,22.8 v -2.2 l 0.5,-0.35 v 1.3 0.9 M 2.15,15.7 2.55,15.35 2.5,19.05 2,19.2 V 15.9 L 2.15,15.7 M 2,10.65 1.95,7.8 2.6,7.3 2.55,10.35 2,10.65 m 0,1.2 0.55,-0.2 V 14.2 Q 2.25,14.25 2,14.4 V 11.85 M 1.95,4.2 2.45,3.8 Q 2.6,3.65 2.75,3.6 L 2.65,5.55 V 5.75 6 l -0.2,0.05 -0.5,0.2 V 5.2 4.2"
         fill="#877f77"
         fill-rule="evenodd"
         stroke="none"
         id="path22" />
    </g>
    <g
       id="sprite4">
      <use
         ffdec:characterId="299"
         height="9.8999996"
         width="12.95"
         xlink:href="#shape3"
         id="use22" />
    </g>
    <g
       id="shape3">
      <path
         d="M 12.95,1.25 V 1.4 3.05 L 12.85,5.2 12.5,8.05 v 0.3 L 12.35,9 11.3,9.6 H 3.25 L 1.75,9.65 Q 1.5,9.9 1.1,9.9 0.3,9.9 0.05,8.85 L 0,8 Q 0,5.45 0.45,4.5 V 3.45 L 0.55,1.8 0.45,1.7 0.3,1.1 Q 0.3,-0.1 6.65,0 l 5.2,0.45 0.2,-0.05 q 0.6,0 0.85,0.5 l 0.05,0.2 V 1.25 M 2.7,2.6 3.2,2.55 h 0.45 0.8 L 11.1,2.6 V 2.1 L 6.5,2.25 H 5.35 3.85 3.75 L 2.4,2.2 2.45,2.65 2.7,2.6 M 5.7,4.5 9.4,4.8 9.45,4.95 9.2,5.1 11.15,5.15 11.1,3.6 6.4,3.65 H 5.65 4.25 L 3.45,3.6 2.45,3.5 V 4.15 L 3.4,4.25 4.25,4.35 5.7,4.5 m 5.55,2.65 H 11.3 V 7.1 L 11.25,6.8 10.65,6.95 H 5.65 5.6 L 3.4,6.8 2.1,6.65 2.15,7.1 v 0.05 h 0.1 1 0.2 2.2 5.6 M 6.6,6.1 h 4.05 L 11.2,6.3 11.15,5.8 8.95,5.85 8.5,5.6 8.6,5.3 6.65,5.7 5.7,5.75 3.4,5.8 H 3.35 L 2.05,5.75 2.1,6.35 3.3,6.25 H 3.4 L 5.6,6.15 V 6.1 h 1"
         fill="#9a9a9a"
         fill-rule="evenodd"
         stroke="none"
         id="path23" />
      <path
         d="m 2.4,2.2 1.35,0.05 h 0.1 1.5 1.15 L 11.1,2.1 V 2.6 L 4.45,2.55 H 3.65 3.2 L 2.7,2.6 2.4,2.2 M 5.65,3.65 5.7,4.5 4.25,4.35 3.4,4.25 2.45,4.15 V 3.5 l 1,0.1 0.8,0.05 h 1.4 m 0,3.3 v 0.2 H 3.45 L 3.4,6.85 V 6.8 l 2.2,0.15 h 0.05 m 1,-1.25 V 5.85 L 6.6,6.1 h -1 V 6.15 L 3.4,6.25 H 3.3 V 6.15 L 3.35,5.8 H 3.4 L 5.7,5.75 6.65,5.7"
         fill="#c8c8c8"
         fill-rule="evenodd"
         stroke="none"
         id="path24" />
      <path
         d="M 2.4,2.2 2.7,2.6 2.45,2.65 2.4,2.2 M 5.65,3.65 H 6.4 L 11.1,3.6 11.15,5.15 9.2,5.1 9.45,4.95 9.4,4.8 5.7,4.5 5.65,3.65 M 11.3,7.1 11.25,7.15 h -5.6 v -0.2 h 5 L 11.25,6.8 11.3,7.1 M 6.65,5.7 8.6,5.3 8.5,5.6 8.95,5.85 11.15,5.8 11.2,6.3 10.65,6.1 H 6.6 L 6.65,5.85 V 5.7 M 3.3,6.25 2.1,6.35 2.05,5.75 3.35,5.8 3.3,6.15 v 0.1 M 3.4,6.8 v 0.05 l 0.05,0.3 h -0.2 -1 L 2.15,7.1 2.1,6.65 3.4,6.8"
         fill="#bcbcbc"
         fill-rule="evenodd"
         stroke="none"
         id="path25" />
    </g>
    <g
       id="sprite5">
      <use
         ffdec:characterId="271"
         height="15.55"
         width="12.4"
         xlink:href="#shape4"
         id="use25" />
    </g>
    <g
       id="shape4">
      <path
         d="m 12.35,10.65 -0.35,2.6 0.3,0.9 q 0,0.7 -0.4,0.95 l -3.2,0.45 -7.35,-0.3 -0.2,-0.1 Q 0.45,14.9 0.3,14.05 V 12.7 L 0.1,10.45 0,7.05 Q 0.05,2.65 1.15,1.25 1.2,0.65 1.6,0.4 L 4.2,0 h 1.3 l 5.3,0.35 0.15,-0.05 0.4,0.15 0.2,0.05 q 0.6,0.2 0.6,0.85 l -0.1,0.5 q 0.35,1.5 0.35,4.5 l -0.05,4.3 M 5.45,2.7 H 4.2 3.75 L 2.6,2.6 2.7,3.1 3.75,3.15 4.35,3.2 9.65,3.25 9.7,2.75 V 2.6 H 9.6 L 5.5,2.7 H 5.45 M 5.6,11.35 9.65,11.4 9.55,10.55 V 8.7 l -1.1,0.55 h -0.2 l -0.1,-0.3 q 0,-0.4 1.4,-1 V 7.65 H 6.8 L 6.15,7.4 Q 6.05,7.1 6.3,7.05 L 9.5,6.95 V 6.35 L 9.55,4.15 5.5,4.25 H 3.65 l -0.8,0.05 0.1,1.3 0.25,4.85 v 0.85 h 0.4 l 2,0.05 m -2,0.95 H 3.2 v 0.4 0.1 l 0.4,-0.05 2,-0.1 2.85,0.1 1.35,-0.1 -0.1,-0.5 -4.1,0.1 -2,0.05"
         fill="#9a9a9a"
         fill-rule="evenodd"
         stroke="none"
         id="path26" />
      <path
         d="M 5.45,2.7 H 5.5 L 9.6,2.6 H 9.7 V 2.75 L 9.65,3.25 4.35,3.2 3.75,3.15 2.7,3.1 2.6,2.6 3.75,2.7 H 4.2 5.45 M 5.5,4.25 5.6,11.35 3.6,11.3 3.65,4.25 H 5.5 m -1.9,8.5 v -0.1 -0.35 l 2,-0.05 v 0.4 l -2,0.1"
         fill="#c8c8c8"
         fill-rule="evenodd"
         stroke="none"
         id="path27" />
      <path
         d="M 5.5,4.25 9.55,4.15 9.5,6.35 v 0.6 L 6.3,7.05 Q 6.05,7.1 6.15,7.4 L 6.8,7.65 h 2.75 v 0.3 q -1.4,0.6 -1.4,1 l 0.1,0.3 h 0.2 L 9.55,8.7 v 1.85 L 9.65,11.4 5.6,11.35 5.5,4.25 M 3.6,11.3 H 3.2 V 10.45 L 2.95,5.6 2.85,4.3 3.65,4.25 3.6,11.3 m 0,1.45 -0.4,0.05 v -0.1 -0.4 h 0.4 v 0.35 0.1 m 2,-0.5 4.1,-0.1 0.1,0.5 -1.35,0.1 -2.85,-0.1 v -0.4"
         fill="#bcbcbc"
         fill-rule="evenodd"
         stroke="none"
         id="path28" />
    </g>
    <g
       id="sprite6"
       transform="translate(-0.05)">
      <use
         ffdec:characterId="317"
         height="19.200001"
         transform="translate(0.05)"
         width="4.5999999"
         xlink:href="#shape5"
         id="use28" />
    </g>
    <g
       id="shape5"
       transform="translate(-0.05)">
      <path
         d="M 4.5,1.9 V 9.25 Q 4.65,14.1 4.45,16.6 v 0.1 l 0.15,1.35 0.05,0.35 q 0,0.4 -0.7,0.6 l -0.35,0.2 -0.15,-0.1 -2,0.1 -0.5,-0.15 H 0.9 q -0.85,0 -0.85,-1.1 L 0.2,16.25 V 11.4 L 0.15,11.05 0.2,11 V 5.85 L 0.05,4.55 V 4.35 4 q 0,-2.05 0.3,-3.85 L 0.3,0.3 V 0.2 0.15 H 0.35 L 1.85,0 3.65,0.4 Q 4.5,0 4.5,1.9 M 2.7,2.35 2.85,1.5 H 2.2 2.05 L 2.2,1.55 H 1.65 l 0.1,1.3 0.95,-0.4 V 2.35 M 1.65,5.7 V 6.35 Q 2.15,6.1 2.7,6 V 3.25 L 1.75,3.95 1.65,5.7 m 0,5.4 v 1.8 L 2.7,12.25 V 10.4 L 2.2,10.75 1.65,11.1 M 2.7,9.45 V 7.1 L 1.65,7.6 V 9.95 Q 2.25,9.55 2.7,9.45 M 1.75,16.2 q 0.65,-0.45 1.1,-0.6 l -0.1,-2.15 -1.1,0.6 v 2.25 l 0.1,-0.1 m 0.1,1.45 1.2,0.05 -0.15,-1.25 -1.1,0.75 0.05,0.45"
         fill="#6b6b6b"
         fill-rule="evenodd"
         stroke="none"
         id="path29" />
      <path
         d="M 1.85,17.65 1.8,17.2 2.9,16.45 3.05,17.7 1.85,17.65 m -0.1,-1.45 -0.1,0.1 v -2.25 l 1.1,-0.6 0.1,2.15 Q 2.4,15.75 1.75,16.2 M 2.7,9.45 Q 2.25,9.55 1.65,9.95 V 7.6 L 2.7,7.1 V 9.45 M 1.65,11.1 2.2,10.75 2.7,10.4 v 1.85 L 1.65,12.9 v -1.8 m 0,-5.4 0.1,-1.75 0.95,-0.7 V 6 Q 2.15,6.1 1.65,6.35 V 5.7 M 2.7,2.35 v 0.1 L 1.75,2.85 1.65,1.55 H 2.2 L 2.05,1.5 H 2.2 2.85 L 2.7,2.35"
         fill="#877f77"
         fill-rule="evenodd"
         stroke="none"
         id="path30" />
    </g>
    <g
       id="sprite7">
      <use
         ffdec:characterId="293"
         height="16.1"
         width="12.45"
         xlink:href="#shape6"
         id="use30" />
    </g>
    <g
       id="shape6">
      <path
         d="M 12.45,4.05 12.2,8.7 v 1.75 2 l -0.25,2 0.2,0.3 -0.5,0.45 q -0.35,0.6 -0.85,0.6 -0.35,0 -0.6,-0.3 L 3.05,16.05 H 2.75 2.5 L 1.9,16 1.5,16.1 q -1,0 -1.35,-2.45 L 0,11.15 0.1,1.5 H 0.15 L 0.1,1.2 Q 0.1,0.35 1.25,0 h 8 l 1.8,0.35 Q 12.4,0 12.45,4.05 M 9.25,2.35 H 2.7 l 0.05,0.4 4.8,-0.1 h 2.2 L 9.8,2.35 H 9.25 M 5.1,4.8 H 9.5 V 4.15 L 9.55,3.7 h -1 L 5.2,3.65 H 3.7 L 2.85,3.6 2.95,4.8 H 3.75 5.1 M 9.45,5.6 H 3 V 5.65 7.4 L 2.95,8.9 2.9,10.45 v 0.3 H 8.45 L 9.4,10.9 V 10.45 8.75 L 9.45,6.35 V 5.75 5.6 m -5.6,6.15 H 2.9 l -0.05,0.8 -0.1,0.95 h 0.2 V 13.45 H 3.35 3.4 3.65 4.2 l -0.15,0.05 1.45,0.05 2.05,0.1 2.05,0.2 -0.2,-1.55 v -0.7 l -0.55,0.1 -0.3,0.05 h -0.1 -3.1 -1.5"
         fill="#6b6b6b"
         fill-rule="evenodd"
         stroke="none"
         id="path31" />
      <path
         d="m 5.2,3.65 v 0.2 L 5.15,4.6 5.1,4.8 H 3.75 Q 3.6,4.45 3.7,3.9 V 3.65 h 1.5 m -1.55,9.8 v -0.4 l 0.2,-1.3 h 1.5 L 5.5,13 v 0.55 L 4.05,13.5 4.2,13.45 H 3.65"
         fill="#e5e5e5"
         fill-rule="evenodd"
         stroke="none"
         id="path32" />
      <path
         d="M 9.25,2.35 H 9.8 L 9.75,2.65 H 7.55 L 2.75,2.75 2.7,2.35 H 9.25 M 5.1,4.8 5.15,4.6 5.2,3.85 V 3.65 L 8.55,3.7 h 1 L 9.5,4.15 V 4.8 H 5.1 M 3.7,3.65 V 3.9 Q 3.6,4.45 3.75,4.8 H 2.95 L 2.85,3.6 3.7,3.65 m -0.05,9.8 H 3.4 3.35 2.95 v 0.05 h -0.2 l 0.1,-0.95 0.05,-0.8 h 0.95 l -0.2,1.3 v 0.4 m 1.7,-1.7 h 3.1 0.1 L 8.85,11.7 9.4,11.6 v 0.7 L 9.6,13.85 7.55,13.65 5.5,13.55 V 13 L 5.35,11.75"
         fill="#c4c4c4"
         fill-rule="evenodd"
         stroke="none"
         id="path33" />
      <path
         d="m 9.45,5.6 v 0.15 0.6 L 9.4,8.75 v 1.7 0.45 L 8.45,10.75 H 2.9 v -0.3 L 2.95,8.9 3,7.4 V 5.65 5.6 h 6.45"
         fill="#967a7a"
         fill-rule="evenodd"
         stroke="none"
         id="path34" />
    </g>
    <g
       id="sprite8">
      <use
         ffdec:characterId="336"
         height="23.85"
         width="18.15"
         xlink:href="#shape7"
         id="use34" />
    </g>
    <g
       id="shape7">
      <path
         d="M 11.8,4 V 4.05 L 9.05,4 6.35,4.05 V 4 q 0,-1.75 2.7,-1.9 H 9.1 Q 11.8,2.25 11.8,4 M 10.4,5.1 11.75,5.05 11.65,6.35 10.4,6.3 V 6.15 L 8.85,6.2 7.75,6.15 v 0.1 L 6.5,6.35 6.4,5.05 7.75,5.1 h 1.35 1.3 m 1.15,2.6 V 7.8 L 9.1,8.1 6.6,7.8 V 7.7 L 9,7.45 11.55,7.7"
         fill="#a8a8a8"
         fill-rule="evenodd"
         stroke="none"
         id="path35" />
      <path
         d="M 10.4,5.1 H 9.1 7.75 L 6.4,5.05 6.5,6.35 7.75,6.25 V 6.15 L 8.85,6.2 10.4,6.15 V 6.3 l 1.25,0.05 0.1,-1.3 L 10.4,5.1 M 11.8,4 Q 11.8,2.25 9.1,2.1 H 9.05 Q 6.35,2.25 6.35,4 V 4.05 L 9.05,4 11.8,4.05 V 4 m 2.5,0.35 -0.15,2.6 -0.3,1.25 1.8,1.05 q 2.5,2.25 2.5,7.35 0,2 -1.55,4.1 -2.3,3.15 -6.8,3.15 H 9.1 8.35 q -4.5,0 -6.8,-3.15 Q 0,18.6 0,16.6 0,11.5 2.5,9.25 3.3,8.55 4.3,8.2 L 4,6.95 3.85,4.35 q 0,-3.85 4,-4.3 h 1.2 1.25 q 4,0.45 4,4.3 M 11.55,7.7 9,7.45 6.6,7.7 V 7.8 L 9.1,8.1 11.55,7.8 V 7.7 M 10.7,9.7 10.3,9.55 9.15,9.1 H 9.05 L 8.3,9.4 8.6,10.05 10,13.5 q 0.1,-2.4 0.7,-3.8 M 7.8,11.15 7.75,11 7.5,9.7 q -1.9,0.6 -2.5,1.4 -0.7,1 -1.25,2.15 -0.55,1.3 -0.55,2 0,4.85 5.9,5.5 5.85,-0.65 5.85,-5.5 0,-0.7 -0.55,-2 L 13.15,11.1 q -0.5,-0.65 -1.9,-1.2 0.3,1.2 -0.3,3.2 v 0.1 q 2.1,0.2 2.65,0.85 l 0.2,0.95 -0.1,0.85 -0.9,1 h -1.7 q -0.9,-0.4 -1.1,-1 L 9.95,15.5 9.5,15.1 9.05,14.45 H 8.95 L 8.5,16.1 Q 8.2,16.8 7.35,16.95 L 6.7,17 q -0.75,0 -1.35,-1.6 0,-1.25 0.2,-1.55 0.4,-0.6 2.4,-1.4 L 7.8,11.15 m 0.15,2.45 q -1.75,0.5 -1.75,1.3 0,0.7 0.65,1 0.6,-0.3 0.85,-1.05 L 7.95,13.6 m 4.75,0.9 -1.5,-0.1 -0.15,0.05 -0.05,0.4 q 0,0.6 0.1,0.6 v 0.15 l 0.35,0.1 1.15,-0.2 0.15,-0.05 -0.05,-0.95"
         fill="#6b6b6b"
         fill-rule="evenodd"
         stroke="none"
         id="path36" />
      <path
         d="M 7.35,16.95 Q 6.8,17.6 6,17.6 L 3.85,17.4 q -0.3,-1.4 -0.3,-2.25 0,-2.4 2.5,-3.65 1.1,-0.55 1.75,-0.35 l 0.15,1.3 q -2,0.8 -2.4,1.4 -0.2,0.3 -0.2,1.55 Q 5.95,17 6.7,17 L 7.35,16.95 M 7.95,13.6 7.7,14.85 Q 7.45,15.6 6.85,15.9 6.2,15.6 6.2,14.9 q 0,-0.8 1.75,-1.3"
         fill="#ffffff"
         fill-rule="evenodd"
         stroke="none"
         id="path37" />
    </g>
    <g
       id="sprite9">
      <use
         ffdec:characterId="293"
         height="16.1"
         width="12.45"
         xlink:href="#shape6"
         id="use37" />
    </g>
    <g
       id="sprite10">
      <use
         ffdec:characterId="297"
         height="16.9"
         width="12.05"
         xlink:href="#shape8"
         id="use38" />
    </g>
    <g
       id="shape8">
      <path
         d="m 11.3,9.35 -0.1,0.55 0.15,0.05 -0.15,0.2 0.25,0.25 q 0.6,0.85 0.6,2.3 l -0.2,1.7 -0.05,0.25 0.25,0.7 q 0,0.95 -1.2,1.25 L 5.7,16.9 0.7,16.45 Q 0,16.15 0,15.35 L 0.1,14.9 0,14.6 0.05,4.85 Q 0.25,3 0.65,2.35 L 0.55,2.2 q 0,-1.65 4.55,-0.5 0.15,-2 2.25,-1.65 2.2,0.35 2.2,1.6 L 8.9,2.8 q 2.55,0.9 2.55,1.75 0,0.35 -0.4,0.6 V 5.2 l 0.3,2.55 -0.05,1.6 M 7.95,1.95 8,1.85 7.45,1.55 H 6.4 V 2 L 7.6,2.35 7.95,1.95 M 4.75,5 9.3,6.05 Q 9.25,5.65 9.45,5.35 L 4.85,4.1 4.7,4.05 3.1,3.5 2.05,3.1 2.35,4.5 3,4.6 4.1,4.85 4.75,5 M 3.85,6.2 3.05,5.9 2.4,5.6 2.45,12.55 h 0.3 L 3.45,12.5 4.75,12.65 6,12.5 9.65,12.55 h 0.1 V 12.5 L 9.65,10.85 9,11.05 7,11.65 H 6.65 q -1.1,0 -1.75,-0.5 L 4.5,10.9 4.15,10.6 V 10.2 Q 4.2,10.05 4.7,10.05 l 0.65,0.25 0.05,0.1 q 0.3,0.35 0.5,0.35 L 6.75,10.45 6.65,10.4 6.55,10.35 6.35,10.25 5.6,9.75 5.25,9.5 Q 6.35,8.4 8.7,8.85 L 8.8,8.9 8.9,8.75 Q 9.4,8.15 9.4,7.55 L 9.35,7.05 h -0.1 q -3,0 -5.25,-0.8 L 3.85,6.2 m 1.4,7.65 h 0.6 l 4.1,0.15 -0.1,-0.9 -0.4,0.05 -1.7,0.1 -2.6,-0.05 -1.7,-0.05 -1,-0.05 V 13.55 14 l 0.9,-0.1 1.9,-0.05"
         fill="#6b6b6b"
         fill-rule="evenodd"
         stroke="none"
         id="path38" />
      <path
         d="m 4.85,4.1 4.6,1.25 Q 9.25,5.65 9.3,6.05 L 4.75,5 4.85,4.25 V 4.1 M 3,4.6 2.35,4.5 2.05,3.1 3.1,3.5 3,4.25 V 4.6 m 2.15,8.6 2.6,0.05 1.7,-0.1 0.4,-0.05 0.1,0.9 -4.1,-0.15 H 5.25 L 5.15,13.2 M 3.35,13.9 2.45,14 V 13.55 13.1 l 1,0.05 -0.1,0.75"
         fill="#c4c4c4"
         fill-rule="evenodd"
         stroke="none"
         id="path39" />
      <path
         d="M 4.85,4.1 V 4.25 L 4.75,5 4.1,4.85 3,4.6 V 4.25 L 3.1,3.5 4.7,4.05 4.85,4.1 m 0.3,9.1 0.1,0.65 -1.9,0.05 0.1,-0.75 1.7,0.05"
         fill="#e5e5e5"
         fill-rule="evenodd"
         stroke="none"
         id="path40" />
      <path
         d="M 9.65,12.55 6,12.5 4.75,12.65 3.45,12.5 2.75,12.55 H 2.45 L 2.4,5.6 3.05,5.9 3.85,6.2 V 6.25 H 4 q 2.25,0.8 5.25,0.8 h 0.1 l 0.05,0.5 q 0,0.6 -0.5,1.2 L 8.8,8.9 8.7,8.85 Q 6.35,8.4 5.25,9.5 l 0.35,0.25 0.75,0.5 0.2,0.1 0.1,0.05 0.1,0.05 -0.85,0.3 q -0.2,0 -0.5,-0.35 L 5.35,10.3 4.7,10.05 q -0.5,0 -0.55,0.15 v 0.4 l 0.35,0.3 0.4,0.25 q 0.65,0.5 1.75,0.5 H 7 l 2,-0.6 0.65,-0.2 0.1,1.65 -0.1,0.05"
         fill="#878787"
         fill-rule="evenodd"
         stroke="none"
         id="path41" />
    </g>
    <g
       id="sprite11">
      <use
         ffdec:characterId="299"
         height="9.8999996"
         width="12.95"
         xlink:href="#shape9"
         id="use41" />
    </g>
    <g
       id="shape9">
      <path
         d="M 12.95,1.25 V 1.4 3.05 L 12.85,5.2 12.5,8.05 v 0.3 L 12.35,9 11.3,9.6 H 3.25 L 1.75,9.65 Q 1.5,9.9 1.1,9.9 0.3,9.9 0.05,8.85 L 0,8 Q 0,5.45 0.45,4.5 V 3.45 L 0.55,1.8 0.45,1.7 0.3,1.1 Q 0.3,-0.1 6.65,0 l 5.2,0.45 0.2,-0.05 q 0.6,0 0.85,0.5 l 0.05,0.2 V 1.25 M 2.7,2.6 3.2,2.55 h 0.45 0.8 L 11.1,2.6 V 2.1 L 6.5,2.25 H 5.35 3.85 3.75 L 2.4,2.2 2.45,2.65 2.7,2.6 M 5.7,4.5 9.4,4.8 9.45,4.95 9.2,5.1 11.15,5.15 11.1,3.6 6.4,3.65 H 5.65 4.25 L 3.45,3.6 2.45,3.5 V 4.15 L 3.4,4.25 4.25,4.35 5.7,4.5 m 5.55,2.65 H 11.3 V 7.1 L 11.25,6.8 10.65,6.95 H 5.65 5.6 L 3.4,6.8 2.1,6.65 2.15,7.1 v 0.05 h 0.1 1 0.2 2.2 5.6 M 6.6,6.1 h 4.05 L 11.2,6.3 11.15,5.8 8.95,5.85 8.5,5.6 8.6,5.3 6.65,5.7 5.7,5.75 3.4,5.8 H 3.35 L 2.05,5.75 2.1,6.35 3.3,6.25 H 3.4 L 5.6,6.15 V 6.1 h 1"
         fill="#6b6b6b"
         fill-rule="evenodd"
         stroke="none"
         id="path42" />
      <path
         d="m 2.4,2.2 1.35,0.05 h 0.1 1.5 1.15 L 11.1,2.1 V 2.6 L 4.45,2.55 H 3.65 3.2 L 2.7,2.6 2.4,2.2 M 5.65,3.65 5.7,4.5 4.25,4.35 3.4,4.25 2.45,4.15 V 3.5 l 1,0.1 0.8,0.05 h 1.4 m 0,3.3 v 0.2 H 3.45 L 3.4,6.85 V 6.8 l 2.2,0.15 h 0.05 m 1,-1.25 V 5.85 L 6.6,6.1 h -1 V 6.15 L 3.4,6.25 H 3.3 V 6.15 L 3.35,5.8 H 3.4 L 5.7,5.75 6.65,5.7"
         fill="#e5e5e5"
         fill-rule="evenodd"
         stroke="none"
         id="path43" />
      <path
         d="M 2.4,2.2 2.7,2.6 2.45,2.65 2.4,2.2 M 5.65,3.65 H 6.4 L 11.1,3.6 11.15,5.15 9.2,5.1 9.45,4.95 9.4,4.8 5.7,4.5 5.65,3.65 M 11.3,7.1 11.25,7.15 h -5.6 v -0.2 h 5 L 11.25,6.8 11.3,7.1 M 6.65,5.7 8.6,5.3 8.5,5.6 8.95,5.85 11.15,5.8 11.2,6.3 10.65,6.1 H 6.6 L 6.65,5.85 V 5.7 M 3.3,6.25 2.1,6.35 2.05,5.75 3.35,5.8 3.3,6.15 v 0.1 M 3.4,6.8 v 0.05 l 0.05,0.3 h -0.2 -1 L 2.15,7.1 2.1,6.65 3.4,6.8"
         fill="#c4c4c4"
         fill-rule="evenodd"
         stroke="none"
         id="path44" />
    </g>
    <g
       id="sprite12">
      <use
         ffdec:characterId="271"
         height="15.55"
         width="12.4"
         xlink:href="#shape10"
         id="use44" />
    </g>
    <g
       id="shape10">
      <path
         d="m 12.35,10.65 -0.35,2.6 0.3,0.9 q 0,0.7 -0.4,0.95 l -3.2,0.45 -7.35,-0.3 -0.2,-0.1 Q 0.45,14.9 0.3,14.05 V 12.7 L 0.1,10.45 0,7.05 Q 0.05,2.65 1.15,1.25 1.2,0.65 1.6,0.4 L 4.2,0 h 1.3 l 5.3,0.35 0.15,-0.05 0.4,0.15 0.2,0.05 q 0.6,0.2 0.6,0.85 l -0.1,0.5 q 0.35,1.5 0.35,4.5 l -0.05,4.3 M 5.45,2.7 H 4.2 3.75 L 2.6,2.6 2.7,3.1 3.75,3.15 4.35,3.2 9.65,3.25 9.7,2.75 V 2.6 H 9.6 L 5.5,2.7 H 5.45 M 5.6,11.35 9.65,11.4 9.55,10.55 V 8.7 l -1.1,0.55 h -0.2 l -0.1,-0.3 q 0,-0.4 1.4,-1 V 7.65 H 6.8 L 6.15,7.4 Q 6.05,7.1 6.3,7.05 L 9.5,6.95 V 6.35 L 9.55,4.15 5.5,4.25 H 3.65 l -0.8,0.05 0.1,1.3 0.25,4.85 v 0.85 h 0.4 l 2,0.05 m -2,0.95 H 3.2 v 0.4 0.1 l 0.4,-0.05 2,-0.1 2.85,0.1 1.35,-0.1 -0.1,-0.5 -4.1,0.1 -2,0.05"
         fill="#6b6b6b"
         fill-rule="evenodd"
         stroke="none"
         id="path45" />
      <path
         d="M 5.45,2.7 H 5.5 L 9.6,2.6 H 9.7 V 2.75 L 9.65,3.25 4.35,3.2 3.75,3.15 2.7,3.1 2.6,2.6 3.75,2.7 H 4.2 5.45 M 5.5,4.25 5.6,11.35 3.6,11.3 3.65,4.25 H 5.5 m -1.9,8.5 v -0.1 -0.35 l 2,-0.05 v 0.4 l -2,0.1"
         fill="#e5e5e5"
         fill-rule="evenodd"
         stroke="none"
         id="path46" />
      <path
         d="M 5.5,4.25 9.55,4.15 9.5,6.35 v 0.6 L 6.3,7.05 Q 6.05,7.1 6.15,7.4 L 6.8,7.65 h 2.75 v 0.3 q -1.4,0.6 -1.4,1 l 0.1,0.3 h 0.2 L 9.55,8.7 v 1.85 L 9.65,11.4 5.6,11.35 5.5,4.25 M 3.6,11.3 H 3.2 V 10.45 L 2.95,5.6 2.85,4.3 3.65,4.25 3.6,11.3 m 0,1.45 -0.4,0.05 v -0.1 -0.4 h 0.4 v 0.35 0.1 m 2,-0.5 4.1,-0.1 0.1,0.5 -1.35,0.1 -2.85,-0.1 v -0.4"
         fill="#c4c4c4"
         fill-rule="evenodd"
         stroke="none"
         id="path47" />
    </g>
    <g
       id="sprite13">
      <use
         ffdec:characterId="297"
         height="16.9"
         width="12.05"
         xlink:href="#shape8"
         id="use47" />
    </g>
    <g
       id="sprite14"
       transform="translate(5.4,4)">
      <use
         ffdec:characterId="43"
         height="8"
         transform="translate(-5.4,-4)"
         width="10.8"
         xlink:href="#shape11"
         id="use48" />
    </g>
    <g
       id="shape11"
       transform="translate(5.4,4)">
      <path
         d="m 2.9,-0.35 q 0,-1.25 1.25,-1.25 1.25,0 1.25,1.2 0,1.3 -1.25,1.3 Q 3.6,0.9 3.25,0.5 2.9,0.15 2.9,-0.35 m 0.35,-2.3 q 0,0.55 -0.35,0.9 -0.4,0.45 -1,0.45 -1.35,0 -1.35,-1.4 0,-1.3 1.35,-1.3 1.35,0 1.35,1.35 m -3.1,1.9 h 0.2 q 2.6,0.1 2.6,2.8 l -0.3,1 Q 2.05,4 0.45,4 H 0.35 0.15 0.1 -0.45 q -1.6,0 -2.2,-0.95 l -0.3,-1 q 0,-2.8 2.8,-2.8 h 0.3 M -1.55,-4 q 1.35,0 1.35,1.35 0,0.55 -0.4,0.9 -0.4,0.45 -0.95,0.45 -1.4,0 -1.4,-1.4 0,-1.3 1.4,-1.3 m -2.6,2.4 q 1.25,0 1.25,1.25 0,0.5 -0.35,0.85 -0.35,0.4 -0.9,0.4 -1.25,0 -1.25,-1.3 0,-1.2 1.25,-1.2"
         fill="#6b6b6b"
         fill-rule="evenodd"
         stroke="none"
         id="path48" />
    </g>
  </defs>
</svg>
