<?xml version="1.0" encoding="UTF-8" standalone="no"?>
<svg
   ffdec:objectType="frame"
   height="9.5"
   width="13.68"
   version="1.1"
   id="svg3"
   sodipodi:docname="1.svg"
   xmlns:inkscape="http://www.inkscape.org/namespaces/inkscape"
   xmlns:sodipodi="http://sodipodi.sourceforge.net/DTD/sodipodi-0.dtd"
   xmlns:xlink="http://www.w3.org/1999/xlink"
   xmlns="http://www.w3.org/2000/svg"
   xmlns:svg="http://www.w3.org/2000/svg"
   xmlns:ffdec="https://www.free-decompiler.com/flash">
  <sodipodi:namedview
     id="namedview3"
     pagecolor="#ffffff"
     bordercolor="#000000"
     borderopacity="0.25"
     inkscape:showpageshadow="2"
     inkscape:pageopacity="0.0"
     inkscape:pagecheckerboard="0"
     inkscape:deskcolor="#d1d1d1"
     fit-margin-top="5"
     fit-margin-left="5"
     fit-margin-right="5"
     fit-margin-bottom="5" />
  <g
     transform="translate(6.85,4.9)"
     id="g1">
    <use
       ffdec:characterId="3892"
       height="9.5"
       transform="translate(-6.85,-4.9)"
       width="13.7"
       xlink:href="#shape0"
       id="use1" />
  </g>
  <defs
     id="defs3">
    <g
       id="shape0"
       transform="translate(6.85,4.9)">
      <path
         d="m -3.65,-1.15 0.7,0.65 q 1.35,0.75 4.4,0.75 1,0 1.7,-0.65 Q 3.8,-0.95 3.8,-1.6 V -2 q 1.3,0.85 1.3,2.55 V 1.3 L 4.9,1.25 H -4.8 L -4,-0.7 -3.65,-1.15 M 5,2.1 4.9,2.9 V 3.15 L 0.85,3 -4.45,2.95 -4.6,2.55 -4.75,2.1 H 4.9 5"
         fill="#797979"
         fill-rule="evenodd"
         stroke="none"
         id="path1" />
      <path
         d="m 3.8,-2 v 0.4 q 0,0.65 -0.65,1.2 -0.7,0.65 -1.7,0.65 -3.05,0 -4.4,-0.75 l -0.7,-0.65 q 1.2,-1.75 3.25,-1.75 2.8,0 4.2,0.9"
         fill="#8e8e8e"
         fill-rule="evenodd"
         stroke="none"
         id="path2" />
      <path
         d="M -3.65,-1.15 -4,-0.7 -4.8,1.25 H 4.9 L 5.1,1.3 V 0.55 q 0,-1.7 -1.3,-2.55 -1.4,-0.9 -4.2,-0.9 -2.05,0 -3.25,1.75 m 10,5.1 q 0,0.4 -0.4,0.6 L 5.8,4.6 H -5.45 L -5.6,4.5 h -0.05 q -1,0 -1.2,-1.3 V 1.85 q 0,-1.85 0.9,-3.65 1.55,-3.1 5.15,-3.1 7.6,0 7.6,4.55 0.15,3.3 -0.45,4.1 v 0.2 M 5,2.1 H 4.9 -4.75 L -4.6,2.55 -4.45,2.95 0.85,3 4.9,3.15 V 2.9 L 5,2.1"
         fill="#6b6b6b"
         fill-rule="evenodd"
         stroke="none"
         id="path3" />
    </g>
  </defs>
</svg>
