<?xml version="1.0" encoding="UTF-8" standalone="no"?>
<svg
   ffdec:objectType="frame"
   height="81.098923"
   width="83.914986"
   version="1.1"
   id="svg46"
   sodipodi:docname="1.svg"
   xmlns:inkscape="http://www.inkscape.org/namespaces/inkscape"
   xmlns:sodipodi="http://sodipodi.sourceforge.net/DTD/sodipodi-0.dtd"
   xmlns:xlink="http://www.w3.org/1999/xlink"
   xmlns="http://www.w3.org/2000/svg"
   xmlns:svg="http://www.w3.org/2000/svg"
   xmlns:ffdec="https://www.free-decompiler.com/flash">
  <sodipodi:namedview
     id="namedview46"
     pagecolor="#ffffff"
     bordercolor="#000000"
     borderopacity="0.25"
     inkscape:showpageshadow="2"
     inkscape:pageopacity="0.0"
     inkscape:pagecheckerboard="0"
     inkscape:deskcolor="#d1d1d1"
     fit-margin-top="5"
     fit-margin-left="5"
     fit-margin-right="5"
     fit-margin-bottom="5" />
  <g
     transform="translate(43.65,43.448925)"
     id="g16">
    <use
       ffdec:characterId="229"
       ffdec:characterName="furniture_fla.fulltvshotcopy2_39"
       height="29.9"
       transform="matrix(1.0516,0,0,1.0996,-14.8311,-5.7489)"
       width="41.549999"
       xlink:href="#sprite0"
       id="use1" />
    <use
       ffdec:characterId="326"
       height="39.450001"
       transform="translate(-20.7,-6.8)"
       width="56.549999"
       xlink:href="#shape2"
       id="use2" />
    <use
       ffdec:characterId="303"
       height="27.9"
       transform="matrix(0.8485,0,0,0.8485,-43.65,-8.55)"
       width="34.549999"
       xlink:href="#sprite2"
       id="use3" />
    <use
       ffdec:characterId="311"
       height="23.65"
       transform="rotate(90,24.925,3.425)"
       width="8"
       xlink:href="#sprite3"
       id="use4" />
    <use
       ffdec:characterId="296"
       height="25.25"
       transform="matrix(-0.9659,0.2588,-0.2588,-0.9659,31.3,-19.75)"
       width="46.299999"
       xlink:href="#sprite4"
       id="use5" />
    <use
       ffdec:characterId="320"
       height="29.15"
       transform="matrix(0.8485,0,0,0.8485,-41.65,12.6137)"
       width="34.200001"
       xlink:href="#sprite5"
       id="use6" />
    <use
       ffdec:characterId="328"
       height="42.099998"
       transform="matrix(1.0459,0,0,1.0936,-21.15,-12.3)"
       width="54.450001"
       xlink:href="#sprite6"
       id="use7" />
    <use
       ffdec:characterId="278"
       height="6.5"
       transform="translate(-39.15,-5)"
       width="13.65"
       xlink:href="#sprite7"
       id="use8" />
    <use
       ffdec:characterId="282"
       height="7.6999998"
       transform="matrix(0.8268,0,0,0.8268,-37.3,18.15)"
       width="9.0500002"
       xlink:href="#sprite8"
       id="use9" />
    <use
       ffdec:characterId="292"
       height="15.45"
       transform="matrix(0.866,0.5,-0.5,0.866,-29.7245,5.7255)"
       width="7.3499999"
       xlink:href="#sprite9"
       id="use10" />
    <use
       ffdec:characterId="330"
       height="37.950001"
       transform="matrix(1.0459,0,0,1.0936,-21.15,-12)"
       width="53.799999"
       xlink:href="#sprite10"
       id="use11" />
    <use
       ffdec:characterId="280"
       height="25.5"
       transform="matrix(-1.447,0,0,1.8426,-18.05,-13.8713)"
       width="5.3000002"
       xlink:href="#sprite12"
       id="use12" />
    <use
       ffdec:characterId="280"
       height="25.5"
       transform="matrix(1.447,0,0,1.8426,31.55,-13.8713)"
       width="5.3000002"
       xlink:href="#sprite12"
       id="use13" />
    <use
       ffdec:characterId="332"
       height="7.5999999"
       transform="matrix(0.9464,0,0,1,-26.9,-17.35)"
       width="70.699997"
       xlink:href="#sprite13"
       id="use14" />
    <use
       ffdec:characterId="332"
       height="7.5999999"
       transform="matrix(0.9464,0,0,1,-26.65,30.05)"
       width="70.699997"
       xlink:href="#sprite13"
       id="use15" />
    <use
       ffdec:characterId="315"
       height="7.6999998"
       transform="matrix(0.8268,0,0,0.8268,-37.3,26.15)"
       width="9.0500002"
       xlink:href="#sprite14"
       id="use16" />
  </g>
  <defs
     id="defs46">
    <g
       id="sprite0"
       transform="translate(20.95,14.55)">
      <use
         ffdec:characterId="84"
         height="25.700001"
         transform="translate(-20.2,-12.55)"
         width="40.200001"
         xlink:href="#sprite1"
         id="use17" />
    </g>
    <g
       id="sprite1"
       transform="translate(20.15,12.85)">
      <use
         ffdec:characterId="80"
         height="25.700001"
         transform="translate(-20,-12.85)"
         width="39.950001"
         xlink:href="#shape0"
         id="use18" />
      <use
         ffdec:characterId="81"
         height="21.799999"
         transform="translate(-17.85,-10.85)"
         width="35.799999"
         xlink:href="#shape1"
         id="use19" />
    </g>
    <g
       id="shape0">
      <path
         d="M 39.95,25.7 H 0 V 0 h 39.95 v 25.7"
         fill="#808080"
         fill-rule="evenodd"
         stroke="none"
         id="path19" />
    </g>
    <g
       id="shape1"
       transform="translate(17.85,10.85)">
      <path
         d="M 6.25,-6.25 6.15,-6.5 v -0.85 l 0.1,-0.75 -0.05,-0.2 0.05,-0.25 0.2,-0.65 0.65,-1.1 0.45,-0.3 0.3,-0.05 0.8,0.3 0.45,0.8 0.4,1.8 0.05,1.5 L 9.4,-5.4 Q 9.1,-5 8.6,-5.05 8.05,-5.15 7.95,-5.7 L 7.9,-5.95 7.85,-6.4 H 7.7 l -0.3,0.05 v 0.4 l 0.05,0.45 q -0.1,0.45 -0.55,0.4 -0.35,0 -0.5,-0.45 l -0.15,-0.7 m 5,-0.1 q 0,0.8 -0.35,0.95 l -0.45,0.05 -0.4,-0.35 -0.2,-1 L 9.7,-8 9.55,-8.85 Q 9.5,-9.4 9.6,-9.8 9.55,-10.2 9.85,-10.5 l 1.2,0.05 0.85,0.9 0.2,-0.45 0.6,-0.65 0.55,0.1 0.25,0.15 0.65,0.65 v 0.7 q -0.1,0.5 -0.05,1.3 l 0.1,1.35 -0.2,0.7 q -0.3,0.45 -0.65,0.3 -0.25,-0.05 -0.45,-0.45 -0.35,-0.7 -0.35,-2.05 l -0.25,0.3 q -0.35,0.15 -0.6,0 l -0.15,-0.1 -0.35,-0.05 0.05,1.4 M 7.7,-9 q -0.3,0 -0.45,0.25 l -0.1,0.15 v 0.95 l 0.2,0.45 q 0.2,0.2 0.55,0.1 l 0.4,-0.45 v -1 L 8.2,-8.75 7.7,-9 m -3.15,3.95 q -0.5,0.45 -1.3,0.3 -0.4,-0.1 -1,-0.55 L 1.85,-5.6 1.65,-6 1.55,-6.4 V -6.75 L 1.45,-7 1.4,-8.25 1.85,-9.35 2.3,-10.1 q 0.35,-0.4 0.9,-0.5 h 0.3 l 0.2,-0.05 1.2,0.2 q 0.6,0.35 0.65,0.9 0.15,0.7 -0.45,1 l -0.55,0.1 Q 4.2,-8.55 4.1,-8.8 l -0.2,-0.3 -0.3,0.05 -0.25,0.2 -0.1,0.15 -0.1,0.5 q -0.1,0.7 0.05,1 l -0.05,0.35 0.05,0.2 0.6,0.35 0.05,-0.05 -0.3,-0.1 Q 3.2,-6.75 3.25,-7.1 l 0.35,-0.6 0.5,-0.2 1,-0.05 q 0.7,0.25 0.6,0.75 l -0.1,0.35 0.05,0.05 0.2,0.3 0.25,0.55 Q 6.2,-5.6 5.95,-5.4 5.8,-5.1 5.45,-5.1 l -0.5,-0.3 -0.4,0.35 m -20.85,1.2 h 0.1 0.6 0.25 0.1 0.4 0.2 0.65 0.1 0.2 2.55 8.25 3.05 2.15 0.3 l 1.1,0.05 h 0.8 l 1.2,0.05 h 0.7 0.25 2.1 0.5 0.55 1.6 l 0.65,0.05 h 1.7 0.4 0.2 0.95 0.85 0.35 0.25 l 0.15,-0.05 h 0.3 l 0.2,0.05 h 0.1 l 0.1,0.1 0.1,0.05 0.05,0.05 0.05,0.05 0.05,0.05 v 0.1 l 0.05,0.05 0.05,0.05 v 0.1 0.1 0.2 l -0.05,0.05 -0.05,0.1 v 0.05 l -0.05,0.05 -0.05,0.05 -0.05,0.05 -0.05,0.1 -0.1,0.05 -0.1,0.05 H 17.4 17.2 16.9 16.75 16.5 L 16.15,-2.3 H 15.3 l -0.95,0.05 h -0.2 -0.4 -1.7 H 11.4 9.8 9.25 8.75 6.65 L 6.4,-2.2 H 5.7 L 4.5,-2.15 H 3.7 2.6 L 2.3,-2.1 H 0.65 l 0.05,0.05 v 0.1 l 0.05,0.05 v 0.1 0.15 L 0.7,-1.6 v 0.1 0.15 l 0.05,0.05 v 0.1 0.25 0.1 0.2 0.1 0.2 0.1 0.25 0.1 0.2 0.1 0.2 0.1 0.25 0.1 0.2 0.1 0.2 0.1 0.25 0.1 0.2 0.1 0.2 0.1 0.25 0.1 0.2 0.1 0.2 0.1 0.25 0.1 l 0.6,0.25 q 1.1,0.45 1.65,0.9 0.85,0.7 1.05,1.5 l 0.05,0.9 q 0,1.1 -0.35,1.85 -0.4,0.95 -1.25,1.4 l -1.75,0.2 -1.7,-0.5 Q -3.45,9.4 -5.5,8 L -6.4,7.2 Q -7.05,6.25 -6.6,4.95 -6.4,4.3 -5.3,3 l 0.8,-0.6 1.75,0.15 q 1,0.3 1.95,0.7 V 3.05 2.95 2.75 2.65 2.4 2.3 2.1 2 1.75 1.65 1.45 1.35 1.15 1.05 0.8 0.7 0.5 0.4 0.2 0.1 v -0.25 -0.1 -0.2 -0.1 -0.2 -0.1 V -1.1 -1.2 -1.4 -1.5 -1.7 -1.8 -2 l 0.05,-0.05 V -2.1 L -2.9,-2.15 h -8.25 l -2.55,0.05 h -0.2 -0.1 -0.65 l -0.2,-0.05 h -0.4 -0.1 -0.25 l -0.6,0.05 h -0.1 l -0.35,-0.05 h -0.25 l -0.15,-0.1 -0.1,-0.05 -0.05,-0.05 -0.1,-0.05 -0.05,-0.05 -0.05,-0.1 V -2.6 l -0.05,-0.05 V -2.7 L -17.5,-2.75 V -2.8 -2.9 -3.1 -3.2 -3.25 l 0.05,-0.05 v -0.05 l 0.05,-0.05 0.05,-0.1 0.05,-0.05 0.05,-0.05 0.05,-0.05 0.1,-0.05 0.15,-0.05 0.1,-0.05 0.2,-0.05 h 0.35 M 1.75,1.3 V 0.9 l -0.1,-1.05 q 0,-0.65 0.5,-0.8 l 0.5,0.1 0.3,0.1 0.6,0.35 0.05,-0.2 q 0.25,-0.5 0.75,-0.5 0.55,0 0.7,0.5 L 5.15,-0.4 5.2,-0.15 5.25,1.1 5.1,1.6 4.75,1.8 Q 4.5,1.8 4.4,1.65 L 4.25,1.2 4.2,0.7 3.7,0.95 3.4,0.9 3.3,0.85 3.1,0.75 V 0.9 L 2.8,1.8 2.5,2 2.15,1.85 1.75,1.3 m 5.6,0.1 Q 7.15,2.2 6.45,2.1 6.05,2.1 5.8,1.75 L 5.3,1.1 5.35,0.3 q 0.1,-0.5 0.35,-0.85 l 0.5,-0.3 0.6,-0.1 0.5,0.45 0.1,0.3 V -0.3 L 7.7,-0.9 8,-1.05 q 0.5,0.1 0.6,0.65 l 0.1,0.3 0.15,0.25 V 0.2 L 9.2,-0.65 9.4,-1 10,-1.1 q 0.35,0.1 0.35,0.5 L 9.8,1.15 9.3,1.9 H 8.7 L 8.5,1.7 8.4,1.65 Q 8.05,1.6 7.75,1 L 7.45,0.25 7.35,1.4 m 7.15,-11.95 0.55,-0.3 0.7,0.1 h 0.6 q 0.45,0.1 0.55,0.35 l 0.05,0.25 v 0.3 l -0.45,0.45 -0.6,0.05 h -0.05 v 0.1 0.3 l 0.5,0.05 q 0.45,0.2 0.5,0.6 0.1,0.5 -0.4,0.7 l -0.55,0.2 0.05,0.35 1.05,0.2 q 0.6,0.45 0.3,0.95 -0.15,0.4 -0.75,0.55 l -0.95,0.1 q -0.7,0 -0.95,-0.25 -0.15,-0.15 -0.2,-0.8 l -0.05,-3.2 0.05,-0.7 0.05,-0.35 M 10.15,1.5 10.2,0.85 V 0.3 l 0.1,-0.5 0.25,-0.5 0.65,0.05 0.15,0.3 0.15,0.75 V 1.1 L 11.4,1.6 Q 11.25,2 10.75,2 10.3,1.9 10.15,1.5 m 2.4,0.7 -0.5,-0.05 Q 11.8,2 11.8,1.4 l 0.1,-1.7 0.05,-0.15 v -0.1 l 0.2,-0.4 0.8,-0.25 0.65,-0.1 0.15,-0.05 0.55,0.4 q 0.15,0.35 -0.15,0.65 l -0.45,0.25 0.15,0.25 v 0.15 l -0.15,0.3 -0.25,0.1 -0.1,0.05 0.25,-0.05 q 0.45,0 0.6,0.25 0.3,0.5 -0.2,0.9 L 13,2.15 12.55,2.2 M -0.85,8.4 -0.4,8.8 H 0.05 L 0.55,8.45 0.7,8.05 0.5,7.45 -0.1,7.2 -0.7,7.45 -0.95,8 -0.85,8.4 M 1.5,7 1.35,7.6 q 0,0.35 0.3,0.5 L 2,8.25 2.3,8.3 2.55,8.2 2.85,7.95 3,7.35 2.8,6.9 2.5,6.7 Q 1.95,6.45 1.5,7 M 6.2,0.45 6.15,0.5 V 0.8 L 6.35,0.95 6.5,1 6.75,0.8 6.8,0.75 V 0.55 L 6.75,0.5 V 0.4 L 6.5,0.15 V 0.2 L 6.35,0.25 6.2,0.35 v 0.1 M -12.55,-5.7 q -0.15,0.4 -0.45,0.4 l -0.35,-0.4 q -0.45,-1 -0.3,-2.15 l 0.1,-0.8 -0.05,-0.6 0.1,-0.5 0.25,-0.35 0.6,-0.1 0.55,0.95 0.75,1.45 -0.05,-1.55 0.15,-0.65 0.45,-0.3 0.55,0.25 q 0.2,0.2 0.2,0.95 v 2.9 q 0,0.75 -0.35,0.9 l -0.5,-0.1 h -0.5 l -0.6,-0.55 -0.3,-0.85 -0.1,-0.1 q 0,0.8 -0.15,1.2 M -17,-8.6 q -0.3,-0.05 -0.45,-0.25 L -17.5,-8.9 q -0.35,-0.2 -0.35,-0.65 l 0.35,-0.65 0.8,-0.15 2.25,0.1 0.5,0.15 0.2,0.2 0.1,0.35 -0.15,0.3 -0.1,0.05 -0.7,0.2 h -0.2 l -0.1,2.05 v 0.25 l 0.5,0.3 0.25,0.25 q 0.15,0.35 0,0.75 h -0.05 v 0.1 q -0.25,0.35 -0.65,0.35 l -0.4,0.1 -1.1,0.1 -0.6,-0.05 -0.55,-0.65 q -0.1,-0.45 0.2,-0.75 l 0.15,-0.1 v -0.1 l 0.55,-0.2 v -0.05 l 0.05,-0.65 0.15,-1.2 -0.05,-0.15 V -8.7 L -17,-8.6 m 6.05,9.9 q -0.15,0.5 -0.7,0.4 -0.5,-0.1 -0.5,-0.6 l -0.05,-1 h -0.2 l -0.3,-0.2 q -0.25,-0.35 -0.1,-0.7 l 0.55,-0.4 0.6,0.1 H -11 q 0.5,0 0.6,0.25 l 0.15,0.3 0.35,-0.15 0.05,-0.05 q 0.45,0 0.55,0.4 l 0.05,0.4 h 0.3 V 0 q -0.1,-0.6 0.2,-0.9 L -8.1,-1 -7.7,-0.55 -7.85,0.15 -8.05,1.2 -8.1,1.55 -8.4,1.75 -8.75,1.6 -8.8,1.15 H -9.25 L -9.4,1.45 -9.55,1.7 h -0.5 l -0.3,-0.4 -0.05,-1.25 0.05,-0.4 -0.05,0.05 q -0.1,0.15 -0.45,0.25 l -0.05,1 -0.05,0.35 m 9.05,-7.9 0.7,0.05 0.7,0.2 0.15,0.6 -0.2,0.55 q -0.2,0.15 -0.75,0.25 h -0.9 l -0.25,0.1 -0.25,0.05 q -0.5,-0.1 -0.75,-0.6 l -0.05,-1.45 -0.1,-0.2 0.05,-3 q 0.2,-0.6 0.8,-0.5 l 0.15,0.05 0.9,-0.1 0.75,0.1 0.5,0.5 q 0.05,0.35 -0.2,0.75 -0.2,0.2 -0.7,0.3 L -2,-8.9 v 0.4 h 0.25 l 0.45,0.05 0.4,0.3 0.05,0.5 q -0.1,0.35 -0.45,0.45 l -0.6,0.1 v 0.5 m -2.5,-2.4 0.2,2.15 0.05,0.45 0.25,0.3 q 0.3,0.45 -0.05,0.85 -0.25,0.25 -0.8,0.35 -0.75,0.2 -1.1,0 -0.45,-0.2 -0.45,-0.65 0,-0.5 0.4,-0.75 l 0.25,-0.1 v -0.3 l -0.1,-1.5 -0.05,-1.1 -0.45,-0.2 -0.2,-0.55 0.2,-0.55 0.7,-0.25 0.75,0.05 0.6,0.1 q 0.3,0.2 0.3,0.6 0,0.4 -0.3,0.6 l -0.2,0.1 V -9 m -5.05,3.45 -0.15,-0.8 -0.05,-1.85 0.15,-1.5 0.3,-0.45 0.55,-0.35 q 0.9,-0.2 1.65,0.5 0.6,0.5 0.8,1.6 0.15,0.45 0.05,1.05 l -0.55,1.1 q -0.9,1.2 -2,1.05 l -0.25,-0.05 -0.5,-0.3 m 1.2,-3.25 0.05,1 0.05,1.25 0.5,-0.5 q 0.35,-0.55 0.3,-1 -0.1,-0.65 -0.6,-0.8 l -0.3,-0.05 v 0.1 M -7.5,-0.4 -7.55,-0.55 -7.5,-0.7 -7.35,-0.95 -6.7,-1.1 H -6 l 0.05,-0.05 q 0.45,0.1 0.45,0.55 L -5.7,-0.15 -6,-0.05 -6.2,0 v 0.3 0.1 h 0.35 l 0.1,0.1 0.1,0.2 v 0.15 l -0.1,0.2 h 0.15 q 0.4,0.1 0.4,0.5 L -5.45,2 -5.75,2.1 -6.05,2.15 -6.4,2.1 -6.75,2.15 -7.15,1.8 -7.2,1.65 -7.15,1.55 -7.35,1.15 -7.45,0.2 -7.35,-0.15 -7.5,-0.4 M -3.9,4.4 -4,4.55 -4.3,4.35 -4.95,4.3 q -0.45,0.1 -0.55,0.65 0,0.5 0.5,0.75 l 0.2,0.05 -0.25,0.55 q -0.1,0.55 0.45,0.8 0.55,0.2 0.9,-0.25 l 0.25,-0.45 0.6,0.1 Q -2.4,6.4 -2.4,5.95 L -2.5,5.65 Q -2.65,5.4 -3.05,5.25 L -3,5.05 -2.9,4.4 Q -3.1,3.9 -3.4,4 -3.75,4.05 -3.9,4.4"
         fill="#ffffff"
         fill-rule="evenodd"
         stroke="none"
         id="path20" />
      <path
         d="m 7.7,-9 0.5,0.25 0.1,0.2 v 1 L 7.9,-7.1 Q 7.55,-7 7.35,-7.2 L 7.15,-7.65 V -8.6 l 0.1,-0.15 Q 7.4,-9 7.7,-9 M 6.2,0.45 V 0.35 L 6.35,0.25 6.5,0.2 V 0.15 L 6.75,0.4 V 0.5 L 6.8,0.55 v 0.2 L 6.75,0.8 6.5,1 6.35,0.95 6.15,0.8 V 0.5 L 6.2,0.45 M 1.5,7 Q 1.95,6.45 2.5,6.7 L 2.8,6.9 3,7.35 2.85,7.95 2.55,8.2 2.3,8.3 2,8.25 1.65,8.1 Q 1.35,7.95 1.35,7.6 L 1.5,7 M -0.85,8.4 -0.95,8 -0.7,7.45 -0.1,7.2 0.5,7.45 0.7,8.05 0.55,8.45 0.05,8.8 H -0.4 L -0.85,8.4 M -3.9,4.4 Q -3.75,4.05 -3.4,4 -3.1,3.9 -2.9,4.4 L -3,5.05 -3.05,5.25 q 0.4,0.15 0.55,0.4 l 0.1,0.3 q 0,0.45 -0.45,0.55 L -3.45,6.4 -3.7,6.85 Q -4.05,7.3 -4.6,7.1 -5.15,6.85 -5.05,6.3 L -4.8,5.75 -5,5.7 Q -5.5,5.45 -5.5,4.95 -5.4,4.4 -4.95,4.3 L -4.3,4.35 -4,4.55 -3.9,4.4"
         fill="#808080"
         fill-rule="evenodd"
         stroke="none"
         id="path21" />
    </g>
    <g
       id="shape2"
       transform="translate(20.7,6.8)">
      <path
         d="M 33.85,17.05 V 31.9 h -53.8 V -6.05 h 53.8 V 8.5 M 35.1,13 v 4.05"
         fill="none"
         stroke="#6b6b6b"
         stroke-linecap="round"
         stroke-linejoin="round"
         stroke-width="1.5"
         id="path22" />
    </g>
    <g
       id="sprite2">
      <use
         ffdec:characterId="302"
         height="27.9"
         width="34.549999"
         xlink:href="#shape3"
         id="use22" />
    </g>
    <g
       id="shape3">
      <path
         d="m 30.7,3.25 -4.45,0.1 H 18.6 l 0.45,8.8 Q 19.3,19.6 20.1,23.7 v 0.55 l 1.15,0.05 H 31.7 Q 31.35,22.6 31.2,19.45 L 31.15,12.8 Q 30.65,7.9 30.6,5.3 L 30.7,3.25 M 32.85,0.6 q 1.05,0 1.65,1 v 11.5 l 0.05,3.8 -0.05,2.9 q -0.2,3.6 -0.65,5.2 0.35,0.4 0.35,1 l -0.45,1.05 q -0.45,0.6 -1.2,0.55 L 4.2,27.9 Q 1.05,27.9 0.25,27.05 0,26.8 0,25.95 0,25.5 0.3,25.15 L 0.15,24.3 v -0.45 l 0.1,-0.1 V 11.9 L 0.2,11.15 Q 0.8,5.4 0.8,0.7 V 0 H 3.3 L 3.35,0.1 3.65,0 H 30.2 q 1.55,0.2 2.25,0.65 L 32.85,0.6 M 17,3.35 H 6.55 L 4,3.3 V 3.95 L 3.45,11.9 V 24.25 Q 7.6,23.9 16.9,24.15 L 16.95,5.85 V 3.8 L 17,3.35 m 1.3,13 v 6.6 l 0.1,1.2 v 0.05 l 0.95,0.05 Q 18.7,21.6 18.3,16.35"
         fill="#6b6b6b"
         fill-rule="evenodd"
         stroke="none"
         id="path23" />
      <path
         d="M 30.7,3.25 30.6,5.3 q 0.05,2.6 0.55,7.5 l 0.05,6.65 q 0.15,3.15 0.5,4.85 H 21.25 L 20.1,24.25 V 23.7 Q 19.3,19.6 19.05,12.15 L 18.6,3.35 h 7.65 L 30.7,3.25 M 17,3.35 16.95,3.8 V 5.85 L 16.9,24.15 Q 7.6,23.9 3.45,24.25 V 11.9 L 4,3.95 V 3.3 L 6.55,3.35 H 17"
         fill="#c4c4c4"
         fill-rule="evenodd"
         stroke="none"
         id="path24" />
      <path
         d="m 18.3,16.35 q 0.4,5.25 1.05,7.9 L 18.4,24.2 v -0.05 l -0.1,-1.2 v -6.6"
         fill="#9e9e9e"
         fill-rule="evenodd"
         stroke="none"
         id="path25" />
    </g>
    <g
       id="sprite3"
       transform="translate(0.75,0.75)">
      <use
         ffdec:characterId="310"
         height="23.65"
         transform="translate(-0.75,-0.75)"
         width="8"
         xlink:href="#shape4"
         id="use25" />
    </g>
    <g
       id="shape4"
       transform="translate(0.75,0.75)">
      <path
         d="m 6.4,1.45 v 1.1 L 6.5,2.85 6.35,4.2 v 7.9 Q 6.5,19.9 6.1,21.6 v 0.1 L 6,22.05 5.2,22.15 q -0.75,0 -0.9,-0.45 L 4.2,21.05 q -0.5,0 -0.7,0.3 -0.15,0.3 -0.7,0.3 -0.5,0 -1.1,-0.9 L 0.1,20.25 V 18.45 14 L 0.05,13.95 0,6.35 Q 0,2.4 0.3,0.95 L 0.25,0.9 0.2,0.55 0.45,0.25 q 0.2,-0.45 0.5,-0.1 L 2.2,0.05 q 1.7,0 1.95,0.35 l 0.3,0.15 1.1,-0.2 q 0.7,0 0.85,1.1 M 3.9,1.05 2.5,1.15 1.2,1.1 V 12.6 L 1.15,12.7 1.05,19.1 1,19.4 q 0.05,0.3 0.4,0.4 0.6,0.15 0.85,0.45 l 0.45,0.2 1,-0.2 q 1.15,0 1.3,0.35 v 0.75 L 5.15,21.4 5.2,20.95 5.25,20.3 V 6.55 L 5.05,4.95 5,1.35 q -0.9,0 -1.1,-0.3"
         fill="#9a9a9a"
         fill-rule="evenodd"
         stroke="none"
         id="path26" />
      <path
         d="m 3.9,1.05 q 0.2,0.3 1.1,0.3 l 0.05,3.6 0.2,1.6 V 20.3 L 5.2,20.95 5.15,21.4 5,21.35 V 20.6 Q 4.85,20.25 3.7,20.25 l -1,0.2 -0.45,-0.2 Q 2,19.95 1.4,19.8 1.05,19.7 1,19.4 L 1.05,19.1 1.15,12.7 1.2,12.6 V 1.1 l 1.3,0.05 1.4,-0.1"
         fill="#b4b4b4"
         fill-rule="evenodd"
         stroke="none"
         id="path27" />
      <path
         d="m 6.4,1.45 v 1.1 L 6.5,2.85 6.35,4.2 v 7.9 Q 6.5,19.9 6.1,21.6 v 0.1 L 6,22.05 5.2,22.15 q -0.75,0 -0.9,-0.45 L 4.2,21.05 q -0.5,0 -0.7,0.3 -0.15,0.3 -0.7,0.3 -0.5,0 -1.1,-0.9 L 0.1,20.25 V 18.45 14 L 0.05,13.95 0,6.35 Q 0,2.4 0.3,0.95 L 0.25,0.9 0.2,0.55 0.45,0.25 q 0.2,-0.45 0.5,-0.1 L 2.2,0.05 q 1.7,0 1.95,0.35 l 0.3,0.15 1.1,-0.2 q 0.7,0 0.85,1.1 z"
         fill="none"
         stroke="#9a9a9a"
         stroke-linecap="round"
         stroke-linejoin="round"
         stroke-width="1.5"
         id="path28" />
    </g>
    <g
       id="sprite4">
      <use
         ffdec:characterId="295"
         height="25.25"
         width="46.299999"
         xlink:href="#shape5"
         id="use28" />
    </g>
    <g
       id="shape5">
      <path
         d="M 46.15,23.5 Q 45.8,24.95 44.4,24.95 L 44,24.9 q -2.85,0.3 -15.15,0.35 h -5.5 L 23.15,25.2 22.9,25.25 H 17.4 Q 5.1,25.2 2.25,24.9 l -0.4,0.05 q -1.4,0 -1.75,-1.45 L 0,21.95 Q 0,19.6 12,14.75 18.15,12.3 21.2,11.8 L 21.5,11.4 21.25,11.15 21.2,10.75 21.5,10.4 21.3,10.3 21.25,9.75 Q 21.25,9.2 22,8.9 L 21.9,8.55 21.8,8.1 V 8.05 q 0,-0.95 2.25,-1.8 2.3,-0.85 2.3,-2 0,-0.65 -0.85,-1.45 -0.95,-0.95 -2.45,-0.95 -1.65,0 -2.35,0.9 l -0.15,0.2 0.2,0.95 V 4.35 L 21,4.65 20.8,5.2 q -0.25,0.3 -0.65,0.3 -1.1,0 -1.3,-0.9 -0.15,-0.4 0,-0.9 0,-3.8 4.6,-3.7 1.85,0.05 3.2,0.85 1.4,0.95 1.4,2.4 0,2.75 -1.15,3.55 L 24.4,8.55 H 24.35 L 23.95,8.8 Q 25,9.1 25,9.75 l -0.05,0.55 -0.2,0.1 0.3,0.35 -0.05,0.4 -0.25,0.25 0.3,0.4 q 3.05,0.5 9.2,2.95 12.05,4.85 12.05,7.2 l -0.15,1.55 m -1.95,-0.35 0.3,-0.5 Q 44.5,21.35 33.35,17 L 23.75,13.2 23.1,13.15 22.5,13.2 12.9,17 Q 1.75,21.35 1.75,22.65 l 0.3,0.5 0.1,-0.05 Q 5.2,22.75 17.4,22.7 h 5.5 l 0.25,0.05 0.2,-0.05 h 5.5 q 12.2,0.05 15.25,0.4 l 0.1,0.05"
         fill="#6b6b6b"
         fill-rule="evenodd"
         stroke="none"
         id="path29" />
    </g>
    <g
       id="sprite5"
       transform="translate(0,-0.9)">
      <use
         ffdec:characterId="319"
         height="29.15"
         transform="translate(0,0.9)"
         width="34.200001"
         xlink:href="#shape6"
         id="use29" />
    </g>
    <g
       id="shape6"
       transform="translate(0,-0.9)">
      <path
         d="m 31.15,4.3 -0.2,2 -0.1,6.65 0.05,7.9 q 0.15,3.6 0.55,5.6 l -4,-0.15 -24,0.05 V 23.75 18.3 Q 4.35,16.8 5.4,16 4.25,16 3.45,16.6 L 3.4,4.2 6.15,4.45 H 19.4 l -0.7,0.6 -2.2,2.1 q 1.35,-0.5 2.75,-1.75 l 0.9,-0.95 H 22.8 Q 28.2,4.6 31.15,4.3"
         fill="#b6b6b6"
         fill-rule="evenodd"
         stroke="none"
         id="path30" />
      <path
         d="M 31.15,4.3 Q 28.2,4.6 22.8,4.45 h -2.65 l -0.9,0.95 q -1.4,1.25 -2.75,1.75 l 2.2,-2.1 0.7,-0.6 H 6.15 L 3.4,4.2 3.45,16.6 Q 4.25,16 5.4,16 4.35,16.8 3.45,18.3 v 5.45 2.6 l 24,-0.05 4,0.15 q -0.4,-2 -0.55,-5.6 l -0.05,-7.9 0.1,-6.65 0.2,-2 m 2.7,-2.45 v 11.65 9.7 q 0.1,2.3 0.35,4.05 l -0.35,1.15 0.05,0.3 q 0,0.65 -1.2,1.2 L 3,29.95 2.25,30.05 q -1.25,0 -1.5,-0.6 L 0.7,28.85 0.5,28.2 0,26.45 V 23.75 3.35 L 0.15,2.5 V 2.45 Q 0,2.3 0,1.85 0,1.3 0.35,1.1 L 0.85,0.9 H 33.8 l 0.05,0.95"
         fill="#6b6b6b"
         fill-rule="evenodd"
         stroke="none"
         id="path31" />
    </g>
    <g
       id="sprite6">
      <use
         ffdec:characterId="327"
         height="42.099998"
         width="54.450001"
         xlink:href="#shape7"
         id="use31" />
    </g>
    <g
       id="shape7">
      <path
         d="m 53.7,2.6 v 12.35 l 0.15,14.1 q 0.55,2.75 0.55,5.3 0.1,5.05 -2.25,5.25 H 52 q -1.3,0.65 -4.6,1.3 l -1.65,0.25 q -1.65,1.2 -17,0.9 L 19.9,41.75 H 2.2 q -0.85,0 -1.4,-0.5 -0.45,-0.5 -0.45,-0.9 v -0.2 L 0.3,40.05 v -17.6 -2.1 L 0,2.6 Q 0,0.55 1.9,0.55 H 2.3 L 3.25,0.35 15.2,0 h 37.5 q 0.95,-0.05 1.45,0.55 l 0.3,0.9 -0.1,0.75 -0.7,0.4 H 53.7 M 46.75,4.45 48.8,2.85 H 40.9 L 29.15,2.95 15.2,2.85 6.4,2.75 7.5,3.9 10.35,7.05 11.2,7 42.95,6.8 43.7,7.05 Q 44.6,6.1 46.75,4.45 M 42.45,8.5 11.2,8.4 10.65,8.3 l 0.3,2.4 q -0.2,2.45 -0.1,3.5 l 0.05,4 -0.05,0.9 L 11,19 v 0.8 0.3 l -0.15,0.1 v 0.3 H 11 l -0.05,0.85 h -0.1 l -0.1,6.45 q 0,3.3 -0.4,5.55 l 0.05,-0.05 0.45,0.15 0.15,0.3 5.15,-0.1 h 9.45 v -0.1 h 1.65 l -0.05,0.1 H 43.1 L 42.8,33.3 42.9,33.05 43.4,32.95 43.45,33 43.1,28.25 42.85,20.95 42.95,8.6 42.45,8.5 M 44.1,8.1 q 0.3,1.5 0.4,6.05 v 6.7 l -0.05,6.65 q -0.1,3.1 -0.6,5.7 l 6.3,3.85 -0.1,-2.4 q 0,-2.5 0.4,-5.6 V 27.9 l -0.1,-1.8 Q 49.6,12.3 49.6,6.7 V 4.45 L 48.7,5.05 44.1,8.1 M 43.2,35.05 H 16.15 L 9.75,34.7 8,35.9 l -3.8,3 37.7,0.05 0.8,0.15 2,-0.6 4.45,-0.65 0.55,-0.1 -2.8,-1.45 -3,-1.8 -0.3,0.05 q -0.4,0.1 -0.4,0.5 M 6.5,5.3 3.85,2.65 3.55,20.3 v 2.2 15.9 l 2.5,-2.05 3.7,-2.65 Q 9.4,32.8 9.4,31.25 l 0.1,-3.5 V 20.8 L 9.4,18.05 9.5,13.9 9.35,10.5 Q 9.35,8.9 9.9,7.8 8.9,7.5 6.5,5.3"
         fill="#9a9a9a"
         fill-rule="evenodd"
         stroke="none"
         id="path32" />
      <path
         d="M 46.75,4.45 Q 44.6,6.1 43.7,7.05 L 42.95,6.8 11.2,7 10.35,7.05 7.5,3.9 6.4,2.75 l 8.8,0.1 13.95,0.1 11.75,-0.1 h 7.9 l -2.05,1.6 M 6.5,5.3 Q 8.9,7.5 9.9,7.8 9.35,8.9 9.35,10.5 l 0.15,3.4 -0.1,4.15 0.1,2.75 v 6.95 l -0.1,3.5 q 0,1.55 0.35,2.45 l -3.7,2.65 -2.5,2.05 V 22.5 20.3 L 3.85,2.65 6.5,5.3 m 36.7,29.75 q 0,-0.4 0.4,-0.5 l 0.3,-0.05 3,1.8 2.8,1.45 -0.55,0.1 -4.45,0.65 -2,0.6 -0.8,-0.15 -37.7,-0.05 3.8,-3 1.75,-1.2 6.4,0.35 H 43.2 M 44.1,8.1 48.7,5.05 49.6,4.45 V 6.7 q 0,5.6 0.75,19.4 l 0.1,1.8 v 1.15 q -0.4,3.1 -0.4,5.6 l 0.1,2.4 -6.3,-3.85 q 0.5,-2.6 0.6,-5.7 l 0.05,-6.65 v -6.7 Q 44.4,9.6 44.1,8.1"
         fill="#afafaf"
         fill-rule="evenodd"
         stroke="none"
         id="path33" />
    </g>
    <g
       id="sprite7">
      <use
         ffdec:characterId="277"
         height="6.5"
         width="13.65"
         xlink:href="#shape8"
         id="use33" />
    </g>
    <g
       id="shape8">
      <path
         d="m 13.65,2.5 q 0.1,2.75 -0.2,3.4 l 0.1,0.2 -0.3,0.4 H 0.85 L 0.7,6.4 H 0.65 Q 0,6.4 0.15,3.4 -0.15,1.4 0.1,0.7 V 0.65 l 0.45,-0.5 h 3.3 l 0.5,0.05 h 7.25 l 1.3,0.1 Q 13,-0.1 13.2,0 13.65,0.2 13.65,2.5 M 12.8,1 11.6,1.05 1.15,1.1 1.2,1.8 1.15,3.4 V 4.95 L 1.1,5.65 H 13 Q 12.75,4.75 12.75,1.95 L 12.8,1 M 11,2.05 11.1,2.3 q 0,0.5 -1.05,0.6 L 4.9,3 3.75,2.9 2.45,2.95 2.2,2.75 2.05,2.35 q 0,-0.7 0.7,-0.7 H 7.1 l 3.65,0.2 0.25,0.2 m 0.5,2.5 -0.3,0.35 H 8.75 L 8.35,4.7 8.45,4.4 11.15,4.3 11.5,4.55 M 12.25,3.75 11.9,4.1 6.45,4 6.4,3.75 q 0,-0.2 0.35,-0.25 l 2.4,-0.1 h 2.75 l 0.35,0.35 M 7.65,4.55 7.15,4.9 H 4.55 L 4.3,4.95 2.55,4.9 2.45,4.85 2.2,4.65 2.55,4.3 h 4.6 l 0.5,0.25 M 5.1,4.05 4.95,4.1 H 2.65 L 2.4,3.75 2.65,3.6 h 2.4 l 0.1,0.25 -0.05,0.2"
         fill="#6b6b6b"
         fill-rule="evenodd"
         stroke="none"
         id="path34" />
      <path
         d="M 5.1,4.05 5.15,3.85 5.05,3.6 H 2.65 L 2.4,3.75 2.65,4.1 h 2.3 L 5.1,4.05 M 7.65,4.55 7.15,4.3 H 2.55 L 2.2,4.65 2.45,4.85 2.55,4.9 4.3,4.95 4.55,4.9 h 2.6 L 7.65,4.55 M 12.25,3.75 11.9,3.4 H 9.15 L 6.75,3.5 Q 6.4,3.55 6.4,3.75 L 6.45,4 11.9,4.1 12.25,3.75 M 11.5,4.55 11.15,4.3 8.45,4.4 8.35,4.7 8.75,4.9 H 11.2 L 11.5,4.55 M 11,2.05 10.75,1.85 7.1,1.65 H 2.75 q -0.7,0 -0.7,0.7 L 2.2,2.75 2.45,2.95 3.75,2.9 4.9,3 10.05,2.9 Q 11.1,2.8 11.1,2.3 L 11,2.05 M 12.8,1 12.75,1.95 q 0,2.8 0.25,3.7 H 1.1 L 1.15,4.95 V 3.4 L 1.2,1.8 1.15,1.1 11.6,1.05 12.8,1"
         fill="#c4c1a0"
         fill-rule="evenodd"
         stroke="none"
         id="path35" />
    </g>
    <g
       id="sprite8">
      <use
         ffdec:characterId="281"
         height="7.6999998"
         width="9.0500002"
         xlink:href="#shape9"
         id="use35" />
    </g>
    <g
       id="shape9">
      <path
         d="M 8.9,2.35 V 6.9 L 9.05,7.15 8.55,7.6 6.2,7.7 H 1.6 L 0.1,7.45 0,7.15 Q 0,6.9 0.2,6.8 0,5.8 0.1,3.65 0.1,1.95 0.25,1.05 L 0.15,0.75 Q 0.15,0.3 0.5,0.25 L 0.75,0 1.05,0.2 h 6.5 L 8.3,0.35 q 0.25,-0.3 0.4,0.1 L 8.95,1.85 8.9,2.35 M 5.6,1.7 Q 6.1,1.45 6.25,1.85 H 6.3 l 0.05,0.2 -0.05,0.2 -0.35,1 -1.05,0.7 v 0.4 L 4.8,5.2 4.7,5.25 Q 5.95,5.3 5.95,5.65 L 5.75,6.05 4.4,6.1 3,5.95 2.95,5.65 q 0,-0.35 1.3,-0.4 L 4.15,4.2 V 4 Q 3.3,3.9 2.85,3.25 L 2.5,2.4 V 2.25 L 2.4,2 2.45,1.85 2.65,1.8 h 2.8 L 5.6,1.7 M 7.85,1.35 7.05,1.4 H 1.3 L 1.4,3.65 1.35,5.7 1.25,6.6 H 1.6 6.2 7.9 Q 7.75,5.75 7.85,4.2 V 1.35"
         fill="#6b6b6b"
         fill-rule="evenodd"
         stroke="none"
         id="path36" />
    </g>
    <g
       id="sprite9"
       transform="translate(0.75,0.75)">
      <use
         ffdec:characterId="291"
         height="15.45"
         transform="translate(-0.75,-0.75)"
         width="7.3499999"
         xlink:href="#shape10"
         id="use36" />
    </g>
    <g
       id="shape10"
       transform="translate(0.75,0.75)">
      <path
         d="m 5.8,9.2 v 2.45 1.2 q 0,0.75 -0.45,0.75 l -0.3,-0.1 -0.5,0.05 -3.2,0.05 -0.25,0.15 -0.35,0.2 q -0.9,0 -0.7,-2.95 L 0.1,3.35 0.2,2.9 0.05,1.55 Q 0.05,0.2 0.45,0.1 L 0.65,0 H 1.8 L 5.15,0.1 5.75,0.45 5.85,0.6 5.8,0.75 V 5.3 L 4.95,0.9 1.8,1.05 H 1.15 L 1.2,2.05 1.05,3.85 1.2,11.6 1.25,12.5 2.6,12.45 3.9,12.4 4.95,12.45 5.8,9.2"
         fill="#6b6b6b"
         fill-rule="evenodd"
         stroke="none"
         id="path37" />
      <path
         d="M 5.8,5.3 V 9.2 L 4.95,12.45 3.9,12.4 2.6,12.45 1.25,12.5 1.2,11.6 1.05,3.85 1.2,2.05 1.15,1.05 H 1.8 L 4.95,0.9 5.8,5.3"
         fill="#ada59f"
         fill-rule="evenodd"
         stroke="none"
         id="path38" />
      <path
         d="m 5.8,9.2 v 2.45 1.2 q 0,0.75 -0.45,0.75 l -0.3,-0.1 -0.5,0.05 -3.2,0.05 -0.25,0.15 -0.35,0.2 q -0.9,0 -0.7,-2.95 L 0.1,3.35 0.2,2.9 0.05,1.55 Q 0.05,0.2 0.45,0.1 L 0.65,0 H 1.8 L 5.15,0.1 5.75,0.45 5.85,0.6 5.8,0.75 V 5.3 Z"
         fill="none"
         stroke="#6b6b6b"
         stroke-linecap="round"
         stroke-linejoin="round"
         stroke-width="1.5"
         id="path39" />
    </g>
    <g
       id="sprite10">
      <use
         ffdec:characterId="329"
         height="37.950001"
         width="53.799999"
         xlink:href="#sprite11"
         id="use39" />
    </g>
    <g
       id="sprite11">
      <use
         ffdec:characterId="188"
         height="25.700001"
         transform="matrix(1.3467,0,0,1.4767,-9e-4,0.018)"
         width="39.950001"
         xlink:href="#shape11"
         id="use40" />
    </g>
    <g
       id="shape11"
       transform="translate(20.05,12.55)">
      <path
         d="m 19.9,-12.55 v 25.7 h -39.95 v -25.7 H 19.9"
         fill="#ffffff"
         fill-opacity="0.196078"
         fill-rule="evenodd"
         stroke="none"
         id="path40" />
    </g>
    <g
       id="sprite12"
       transform="translate(0,0.5)">
      <use
         ffdec:characterId="279"
         height="25.5"
         transform="translate(0,-0.5)"
         width="5.3000002"
         xlink:href="#shape12"
         id="use41" />
    </g>
    <g
       id="shape12"
       transform="translate(0,0.5)">
      <path
         d="M 2.7,-0.5 Q 5,-0.55 5,0.5 V 0.65 L 5.3,1.2 V 12.05 L 5.25,18.4 4.8,23.2 5,23.85 Q 5,25 3.45,25 L 0.65,24.65 Q 0.45,24.5 0.4,24.1 0.1,23.5 0,22.3 V 19.75 L 0.2,10.4 0.05,1.1 0.15,0.1 0.7,-0.05 Q 1.25,-0.5 2.7,-0.5 M 2.3,4.7 2.1,9.8 2.25,19.85 v 2.6 0.3 L 3.35,22.7 Q 3.05,21.15 3,18.25 L 3.05,12.05 3.1,5.8 Q 3.2,3.5 3.6,1.7 H 2.75 1.95 q 0.35,1.25 0.35,3"
         fill="#6b6b6b"
         fill-rule="evenodd"
         stroke="none"
         id="path41" />
      <path
         d="m 2.3,4.7 q 0,-1.75 -0.35,-3 H 2.75 3.6 Q 3.2,3.5 3.1,5.8 L 3.05,12.05 3,18.25 q 0.05,2.9 0.35,4.45 l -1.1,0.05 v -0.3 -2.6 L 2.1,9.8 2.3,4.7"
         fill="#b2a69a"
         fill-rule="evenodd"
         stroke="none"
         id="path42" />
    </g>
    <g
       id="sprite13">
      <use
         ffdec:characterId="331"
         height="7.5999999"
         width="70.699997"
         xlink:href="#shape13"
         id="use42" />
    </g>
    <g
       id="shape13">
      <path
         d="m 67.75,0 0.8,0.35 h 0.25 q 2,0 1.9,3.35 0,2.1 -0.85,2.9 L 69.55,7.4 67.65,7.55 50.1,7.3 46.3,7.45 v 0.1 H 42.7 L 16.55,7.6 H 9.9 5.1 L 1.7,7 0.65,6.65 Q 0,5.8 0,2.6 0,0.35 2.15,0.35 2.9,0.35 3.4,0.65 L 12.45,0 h 4.1 21.4 4.75 25.05 m -1.2,3.6 V 2.4 L 58.8,3.1 46.95,3.2 H 46.3 V 3.25 H 44.55 42.7 16.55 12.75 l -8.4,-0.5 -0.1,1.6 H 4.8 9.7 l 6.85,0.05 h 26.15 0.95 2.65 v 0.05 l 4.95,0.1 9.6,-0.3 5.7,0.55 V 3.6"
         fill="#6b6b6b"
         fill-rule="evenodd"
         stroke="none"
         id="path43" />
      <path
         d="m 66.55,3.6 v 1.2 l -5.7,-0.55 -9.6,0.3 -4.95,-0.1 V 4.4 H 43.65 42.7 16.55 L 9.7,4.35 H 4.8 4.25 l 0.1,-1.6 8.4,0.5 h 3.8 26.15 1.85 1.75 V 3.2 h 0.65 L 58.8,3.1 66.55,2.4 v 1.2"
         fill="#b6b6b6"
         fill-rule="evenodd"
         stroke="none"
         id="path44" />
    </g>
    <g
       id="sprite14">
      <use
         ffdec:characterId="314"
         height="7.6999998"
         width="9.0500002"
         xlink:href="#shape14"
         id="use44" />
    </g>
    <g
       id="shape14">
      <path
         d="M 8.7,0.45 8.95,1.85 8.9,2.35 V 6.9 L 9.05,7.15 8.55,7.6 6.2,7.7 H 1.6 L 0.1,7.45 0,7.15 Q 0,6.9 0.2,6.8 0,5.8 0.1,3.65 0.1,1.95 0.25,1.05 L 0.15,0.75 Q 0.15,0.3 0.5,0.25 L 0.75,0 1.05,0.2 h 6.5 L 8.3,0.35 q 0.25,-0.3 0.4,0.1 M 5.4,2.1 5.15,2.2 4.9,1.9 4.95,1.75 5.15,1.7 5.4,1.85 V 2.1 M 6.35,2.3 6.5,2.1 6.9,2.05 7,2.25 6.65,2.6 6.35,2.3 M 5.15,4.45 V 4.8 L 5.1,5.55 4.3,6.35 H 3.5 Q 2.95,6 2.95,5.65 2.95,5.2 3.35,5 3.65,5.25 3.55,5.5 L 3.8,5.6 q 0.55,0 0.5,-0.75 L 4.25,4.5 h -1.3 q -0.6,0 -0.6,-0.45 0,-1.6 2.05,-1.6 2.05,-0.05 2.05,1.4 0,0.4 -0.45,0.5 L 5.15,4.45 M 7.85,1.35 7.05,1.4 H 1.3 L 1.4,3.65 1.35,5.7 1.25,6.6 H 1.6 6.2 7.9 Q 7.75,5.75 7.85,4.2 V 1.35 M 3.4,1.55 3.8,1.85 3.5,2.15 3.2,1.85 3.4,1.55 M 2.25,2.85 Q 1.8,2.9 1.85,2.55 L 2,2.3 2.4,2.55 2.25,2.85"
         fill="#6b6b6b"
         fill-rule="evenodd"
         stroke="none"
         id="path45" />
      <path
         d="M 2.25,2.85 2.4,2.55 2,2.3 1.85,2.55 Q 1.8,2.9 2.25,2.85 M 3.4,1.55 3.2,1.85 3.5,2.15 3.8,1.85 3.4,1.55 M 7.85,1.35 V 4.2 Q 7.75,5.75 7.9,6.6 H 6.2 1.6 1.25 L 1.35,5.7 1.4,3.65 1.3,1.4 H 7.05 L 7.85,1.35 M 5.15,4.45 6,4.35 q 0.45,-0.1 0.45,-0.5 0,-1.45 -2.05,-1.4 -2.05,0 -2.05,1.6 0,0.45 0.6,0.45 h 1.3 L 4.3,4.85 Q 4.35,5.6 3.8,5.6 L 3.55,5.5 Q 3.65,5.25 3.35,5 2.95,5.2 2.95,5.65 2.95,6 3.5,6.35 H 4.3 L 5.1,5.55 5.15,4.8 V 4.45 M 6.35,2.3 6.65,2.6 7,2.25 6.9,2.05 6.5,2.1 6.35,2.3 M 5.4,2.1 V 1.85 L 5.15,1.7 4.95,1.75 4.9,1.9 5.15,2.2 5.4,2.1"
         fill="#c4c2b2"
         fill-rule="evenodd"
         stroke="none"
         id="path46" />
    </g>
  </defs>
</svg>
