<?xml version="1.0" encoding="UTF-8" standalone="no"?>
<svg
   ffdec:objectType="frame"
   height="16.35"
   width="32.900002"
   version="1.1"
   id="svg16"
   sodipodi:docname="2.svg"
   xmlns:inkscape="http://www.inkscape.org/namespaces/inkscape"
   xmlns:sodipodi="http://sodipodi.sourceforge.net/DTD/sodipodi-0.dtd"
   xmlns:xlink="http://www.w3.org/1999/xlink"
   xmlns="http://www.w3.org/2000/svg"
   xmlns:svg="http://www.w3.org/2000/svg"
   xmlns:ffdec="https://www.free-decompiler.com/flash">
  <sodipodi:namedview
     id="namedview16"
     pagecolor="#ffffff"
     bordercolor="#000000"
     borderopacity="0.25"
     inkscape:showpageshadow="2"
     inkscape:pageopacity="0.0"
     inkscape:pagecheckerboard="0"
     inkscape:deskcolor="#d1d1d1"
     fit-margin-top="5"
     fit-margin-left="5"
     fit-margin-right="5"
     fit-margin-bottom="5" />
  <g
     transform="translate(16.45,8.15)"
     id="g4">
    <use
       ffdec:characterId="3611"
       height="16.450001"
       transform="matrix(0.4939,0,0,0.4939,-9.9532,-4.1246)"
       width="39.849998"
       xlink:href="#sprite0"
       id="use1" />
    <use
       ffdec:characterId="3616"
       height="5.5999999"
       transform="matrix(-0.5714,0,0,0.5714,14.4992,-1.25)"
       width="50.799999"
       xlink:href="#sprite2"
       id="use2" />
    <use
       ffdec:characterId="3984"
       height="16.35"
       transform="translate(-16.45,-8.15)"
       width="32.900002"
       xlink:href="#shape2"
       id="use3" />
    <use
       ffdec:characterId="3500"
       height="8"
       transform="matrix(-0.5362,0.0367,0.0367,0.5362,5.8484,0.157)"
       width="10.8"
       xlink:href="#sprite4"
       id="use4" />
  </g>
  <defs
     id="defs16">
    <g
       id="sprite0"
       transform="translate(19.95,8.25)">
      <use
         ffdec:characterId="3610"
         height="16.450001"
         transform="translate(-19.95,-8.25)"
         width="39.849998"
         xlink:href="#sprite1"
         id="use5" />
    </g>
    <g
       id="sprite1"
       transform="translate(19.95,8.25)">
      <use
         ffdec:characterId="1687"
         height="16.450001"
         transform="translate(-19.95,-8.25)"
         width="39.849998"
         xlink:href="#shape0"
         id="use6" />
    </g>
    <g
       id="shape0"
       transform="translate(19.95,8.25)">
      <path
         d="M 19.9,-8.25 V 8.2 H -19.95 V -8.25 H 19.9"
         fill="#8c8c8c"
         fill-opacity="0.788235"
         fill-rule="evenodd"
         stroke="none"
         id="path6" />
    </g>
    <g
       id="sprite2"
       transform="translate(45.15,2.8)">
      <use
         ffdec:characterId="3615"
         height="8.0500002"
         transform="matrix(0.6975,0,0,0.6975,-5.6498,-2.79)"
         width="16.200001"
         xlink:href="#sprite3"
         id="use7" />
    </g>
    <g
       id="sprite3"
       transform="translate(8.1,4)">
      <use
         ffdec:characterId="1897"
         height="8.0500002"
         transform="translate(-8.1,-4)"
         width="16.200001"
         xlink:href="#shape1"
         id="use8" />
    </g>
    <g
       id="shape1"
       transform="translate(8.1,4)">
      <path
         d="M 2.3,0.45 0.65,0.65 Q 0.45,1.6 -0.3,2.5 -1.6,4.05 -3.95,4.05 -6.15,4.05 -7.35,2.4 -8.1,1.35 -8.1,0.55 q 0,-4.9 4.4,-4.55 1.75,0.1 3.05,1.2 l 0.8,0.85 0.8,0.1 3.15,0.65 v 0.3 q 0,1 -1.25,1.25 L 2.3,0.45"
         fill="#6b6b6b"
         fill-rule="evenodd"
         stroke="none"
         id="path8" />
      <path
         d="M 0.95,-1.85 Q 1.6,-3.2 4.45,-3.1 8.1,-2.9 8.1,-0.75 5.5,1.3 4.1,1.3 3.3,1.3 2.3,0.45 L 2.85,0.35 Q 4.1,0.1 4.1,-0.9 V -1.2 L 0.95,-1.85"
         fill="#6b6b6b"
         fill-opacity="0.501961"
         fill-rule="evenodd"
         stroke="none"
         id="path9" />
    </g>
    <g
       id="shape2"
       transform="translate(16.45,8.15)">
      <path
         d="m 7.05,-7.55 0.65,-0.25 0.35,0.05 0.9,-0.4 h 3 1.75 l 0.8,0.1 0.6,-0.1 q 1.3,0 1.35,1.5 V 6.7 Q 16.4,8.2 15.1,8.2 L 14.5,8.1 13.7,8.2 h -1.75 -3 L 8.05,7.8 7.7,7.85 7.05,7.6 Q 6.5,7.25 6.55,6.7 V 6.35 5.3 L 6.45,5.35 H 5 -5 -6.45 L -6.55,5.3 V 6.35 6.7 q 0.05,0.55 -0.5,0.9 L -7.7,7.85 -8.05,7.8 -8.95,8.2 h -3 -1.75 l -0.8,-0.1 -0.6,0.1 q -1.3,0 -1.35,-1.5 V -6.65 q 0.05,-1.5 1.35,-1.5 l 0.6,0.1 0.8,-0.1 h 1.75 3 l 0.9,0.4 0.35,-0.05 0.65,0.25 q 0.55,0.35 0.5,0.9 v 0.35 1.05 l 0.1,-0.05 H -5 5 6.45 l 0.1,0.05 V -6.3 -6.65 Q 6.5,-7.2 7.05,-7.55 m -0.5,5.7 V -2.3 -3.2 H 6.45 L 2.25,-3.3 V -3.35 L -0.1,-3.4 h -0.15 l -6.2,0.2 h -0.1 v 0.9 0.1 0.5 0.15 2.85 0.3 0.75 0.9 h 0.1 l 6.2,0.2 H -0.1 L 2.25,3.4 6.45,3.25 h 0.1 V 2.35 1.6 0.75 -1.55 -1.85 M 10.1,-3.9 V -5.6 L 8.95,-5.65 v 1.6 1.75 0.75 2.1 L 9.2,0.5 10.1,0.4 v -4.3 m 3.7,-0.25 -0.05,-1.5 -3.1,0.1 v 1.7 4.3 l 1,0.2 0.2,-0.1 0.1,0.2 H 12 l -0.05,0.05 0.2,0.55 -0.1,4.25 1.7,0.1 0.05,-3.35 v -2.3 -4.2 m -2.3,6 -0.05,-0.65 -1.3,0.15 -1.2,-0.1 V 1.6 2.1 2.35 2.4 5.7 L 10.2,5.65 11.55,5.6 11.5,1.85 m -20.45,-5.7 v -1.8 l -1.25,0.05 -0.55,0.05 v 1.85 2.15 l 0.9,-0.15 0.9,0.1 v -0.7 -1.55 m -2.25,0.2 v -1.9 l -2.55,-0.1 v 1.95 l -0.05,3.75 v 2.3 0.95 l 1.1,-0.05 0.75,0.05 0.75,0.1 V 3.3 -3.65 m 2.25,3.6 V -1 L -9.2,-0.95 H -9.6 -10 l -0.75,-0.1 v 0.95 3.5 0.1 0.05 l 0.15,0.05 -0.1,0.1 -0.7,0.25 -1.25,0.05 h -1.15 l 0.05,0.75 V 5.7 Q -12.4,5.55 -10.2,5.65 L -8.95,5.7 V 2.35 1.6 -0.05"
         fill="#6b6b6b"
         fill-rule="evenodd"
         stroke="none"
         id="path10" />
      <path
         d="m -5.85,-2.35 1.2,-0.25 5.75,0.05 1.5,0.3 0.15,0.05 q 0.65,0.25 0.65,0.7 l -0.1,0.4 q -0.2,0.3 -0.8,0.45 l -1.4,0.2 -5.75,0.1 -1.35,-0.3 q -0.4,-0.3 -0.4,-0.8 l 0.05,-0.25 q 0.05,-0.45 0.5,-0.65 m 9.95,0.2 q 0.25,-0.5 1,-0.45 0.85,0.05 1.1,0.65 l 0.05,0.45 -0.3,0.9 -0.4,0.2 -0.5,0.05 H 4.7 Q 4.15,-0.5 4.05,-1 L 3.95,-1.5 4.1,-2.15"
         fill="#ffffff"
         fill-rule="evenodd"
         stroke="none"
         id="path11" />
      <path
         d="m 8.95,-4.05 v -1.6 l 1.15,0.05 v 1.7 L 8.95,-4.05 m 4.85,-0.1 h -0.05 q -1.2,0.6 -1.2,0.35 l -1.9,-0.05 v -1.7 l 3.1,-0.1 0.05,1.5 m -2.3,6 -0.25,0.35 -1.4,0.2 H 8.95 V 2.35 2.1 1.6 1.25 l 1.2,0.1 1.3,-0.15 0.05,0.65 M -10.75,-3.7 v -1.85 l 0.55,-0.05 1.25,-0.05 v 1.8 l -1.8,0.15 m -3,0 v -1.95 l 2.55,0.1 v 1.9 h -1.95 l -0.6,-0.05 m 2.55,7 v 0.1 l -0.75,-0.1 h 0.75 m 0.45,-3.4 v -0.95 l 0.75,0.1 h 0.4 0.4 L -8.95,-1 v 0.95 L -9.8,0.1 -10.75,-0.1 m -3,4.85 L -13.8,4 h 1.15 l 1.25,-0.05 0.7,-0.25 v 0.05 l -0.2,0.35 0.2,0.05 -0.3,0.4 -2.7,0.2 h -0.05"
         fill="#999999"
         fill-rule="evenodd"
         stroke="none"
         id="path12" />
      <path
         d="M 8.95,-4.05 10.1,-3.9 V 0.4 L 9.2,0.5 8.95,0.55 v -2.1 -0.75 -1.75 m 1.7,0.2 1.9,0.05 q 0,0.25 1.2,-0.35 h 0.05 v 4.2 2.3 L 13.75,5.7 12.05,5.6 12.15,1.35 11.95,0.8 12,0.75 h -0.05 l -0.1,-0.2 -0.2,0.1 -1,-0.2 v -4.3 M 8.95,2.4 h 0.9 L 11.25,2.2 11.5,1.85 11.55,5.6 10.2,5.65 8.95,5.7 V 2.4 m -19.7,-6.1 1.8,-0.15 v 1.55 0.7 l -0.9,-0.1 -0.9,0.15 V -3.7 m -3,0 0.6,0.05 h 1.95 V 3.3 h -0.75 L -12.7,3.25 -13.8,3.3 V 2.35 0.05 l 0.05,-3.75 m 3,3.6 0.95,0.2 0.85,-0.15 V 1.6 2.35 5.7 L -10.2,5.65 q -2.2,-0.1 -3.55,0.05 V 4.75 h 0.05 l 2.7,-0.2 0.3,-0.4 -0.2,-0.05 0.2,-0.35 V 3.7 l 0.1,-0.1 -0.15,-0.05 V 3.5 3.4 -0.1"
         fill="#858585"
         fill-rule="evenodd"
         stroke="none"
         id="path13" />
      <path
         d="m -6.55,-2.2 0.7,-0.15 q -0.45,0.2 -0.5,0.65 l -0.05,0.25 q 0,0.5 0.4,0.8 l 1.35,0.3 5.75,-0.1 1.4,-0.2 Q 3.1,-0.8 3.3,-1.1 l 0.1,-0.4 q 0,-0.45 -0.65,-0.7 L 2.6,-2.25 4.1,-2.15 3.95,-1.5 4.05,-1 q 0.1,0.5 0.65,0.65 h 0.35 l 0.5,-0.05 0.4,-0.2 0.3,-0.9 -0.05,-0.45 0.35,0.1 v 0.3 2.3 L 5.35,1 -0.25,1.9 q -1.5,0 -2.55,-0.75 L -3,1 -5.35,1.05 -6.55,1.3 V -1.55 -1.7 -2.2"
         fill="#cce2a9"
         fill-opacity="0.501961"
         fill-rule="evenodd"
         stroke="none"
         id="path14" />
      <path
         d="M 6.55,0.75 V 1.6 2.35 3.25 H 6.45 L 2.25,3.4 -0.1,3.45 h -0.15 l -6.2,-0.2 h -0.1 V 2.35 1.6 1.3 L -5.35,1.05 -3,1 -2.8,1.15 Q -1.75,1.9 -0.25,1.9 L 5.35,1 6.55,0.75"
         fill="#a9d097"
         fill-opacity="0.501961"
         fill-rule="evenodd"
         stroke="none"
         id="path15" />
    </g>
    <g
       id="sprite4"
       transform="translate(5.4,4)">
      <use
         ffdec:characterId="43"
         height="8"
         transform="translate(-5.4,-4)"
         width="10.8"
         xlink:href="#shape3"
         id="use15" />
    </g>
    <g
       id="shape3"
       transform="translate(5.4,4)">
      <path
         d="m 2.9,-0.35 q 0,-1.25 1.25,-1.25 1.25,0 1.25,1.2 0,1.3 -1.25,1.3 Q 3.6,0.9 3.25,0.5 2.9,0.15 2.9,-0.35 m 0.35,-2.3 q 0,0.55 -0.35,0.9 -0.4,0.45 -1,0.45 -1.35,0 -1.35,-1.4 0,-1.3 1.35,-1.3 1.35,0 1.35,1.35 m -3.1,1.9 h 0.2 q 2.6,0.1 2.6,2.8 l -0.3,1 Q 2.05,4 0.45,4 H 0.35 0.15 0.1 -0.45 q -1.6,0 -2.2,-0.95 l -0.3,-1 q 0,-2.8 2.8,-2.8 h 0.3 M -1.55,-4 q 1.35,0 1.35,1.35 0,0.55 -0.4,0.9 -0.4,0.45 -0.95,0.45 -1.4,0 -1.4,-1.4 0,-1.3 1.4,-1.3 m -2.6,2.4 q 1.25,0 1.25,1.25 0,0.5 -0.35,0.85 -0.35,0.4 -0.9,0.4 -1.25,0 -1.25,-1.3 0,-1.2 1.25,-1.2"
         fill="#6b6b6b"
         fill-rule="evenodd"
         stroke="none"
         id="path16" />
    </g>
  </defs>
</svg>
