<?xml version="1.0" encoding="UTF-8" standalone="no"?>
<svg
   ffdec:objectType="frame"
   height="71.5"
   width="47.200001"
   version="1.1"
   id="svg5"
   sodipodi:docname="1.svg"
   xmlns:inkscape="http://www.inkscape.org/namespaces/inkscape"
   xmlns:sodipodi="http://sodipodi.sourceforge.net/DTD/sodipodi-0.dtd"
   xmlns:xlink="http://www.w3.org/1999/xlink"
   xmlns="http://www.w3.org/2000/svg"
   xmlns:svg="http://www.w3.org/2000/svg"
   xmlns:ffdec="https://www.free-decompiler.com/flash">
  <sodipodi:namedview
     id="namedview5"
     pagecolor="#ffffff"
     bordercolor="#000000"
     borderopacity="0.25"
     inkscape:showpageshadow="2"
     inkscape:pageopacity="0.0"
     inkscape:pagecheckerboard="0"
     inkscape:deskcolor="#d1d1d1"
     fit-margin-top="5"
     fit-margin-left="5"
     fit-margin-right="5"
     fit-margin-bottom="5" />
  <g
     transform="translate(23.6,31.3)"
     id="g1">
    <use
       ffdec:characterId="1755"
       height="71.550003"
       transform="translate(-23.6,-31.35)"
       width="47.200001"
       xlink:href="#shape0"
       id="use1" />
    <use
       ffdec:characterId="1686"
       height="1.5"
       id="subplatform1"
       transform="matrix(0.0234,0,0.0977,0.86,-15.1134,-30.63)"
       width="1320.3"
       xlink:href="#sprite0" />
  </g>
  <defs
     id="defs5">
    <g
       id="shape0"
       transform="translate(23.6,31.35)">
      <path
         d="M 14.85,-25.2 14.7,-26.7 V -27 l -0.05,-0.35 -0.05,-0.55 -0.05,-0.75 q -1.8,0.25 -5.25,0.05 H 1.75 -3.45 -9.3 q -3.45,0.2 -5.25,-0.05 l -0.05,1 -0.05,0.15 v 0.4 0.1 l -0.15,1.4 v 0.35 l -0.3,3.5 0.2,-0.3 q 1.25,-1.7 2.5,-2.1 l 0.3,-0.25 8.65,-0.2 H 1.6 2.4 3.45 l 8.65,0.2 0.3,0.25 q 1.25,0.4 2.5,2.1 l 0.2,0.3 -0.25,-2.95 v -0.5 m 1.85,-2.35 q 0.1,1.45 0.35,2.4 l 0.3,1.25 q 2.85,-7.8 4.7,0.85 1.55,6.95 1.55,13.75 l -0.75,6.65 q -0.95,4.55 -2.7,6 l 2.05,17.7 -0.1,0.8 q -0.25,0.5 -1.25,0.85 H 16.1 l 0.05,1 -0.1,1.3 -0.05,0.25 q 1,0.45 1.85,1 2.75,1.65 2.9,2.85 v 0.15 l -0.05,0.55 0.15,0.45 v 0.05 l -0.05,0.3 v 7.3 h -0.05 v 0.15 l -0.05,0.55 0.15,0.45 q 0,0.55 -0.4,0.75 l -3.55,0.4 h -33.8 l -3.55,-0.4 q -0.4,-0.2 -0.4,-0.75 l 0.15,-0.45 -0.05,-0.55 V 37.9 h -0.15 v -7.3 h 0.1 l -0.05,-0.3 v -0.05 l 0.15,-0.45 -0.05,-0.55 V 29.1 q 0.15,-1.2 2.9,-2.85 0.85,-0.55 1.85,-1 l -0.05,-0.25 -0.1,-1.3 0.05,-1 h -4.75 q -1,-0.35 -1.25,-0.85 l -0.1,-0.8 2.05,-17.7 q -1.75,-1.45 -2.7,-6 L -23.6,-9.3 q 0,-6.8 1.55,-13.75 1.85,-8.65 4.7,-0.85 l 0.3,-1.25 q 0.3,-1.25 0.4,-3.35 l 0.25,-1.4 q 0,-0.8 0.85,-1.1 l 0.6,-0.15 5.65,-0.15 7.6,0.05 h 5.15 l 5.85,-0.05 5.65,0.15 0.6,0.15 q 0.85,0.3 0.85,1.1 l 0.25,1.3 v 0.1 l 0.05,0.95 M 21,-14.3 v -0.1 l -0.1,-1.05 v -0.2 l -0.1,-0.85 -0.2,-2.1 -0.8,-5.2 -1.05,1.5 -0.3,0.6 -0.1,0.4 -0.1,0.35 -0.35,1.15 0.1,0.5 0.05,0.7 0.05,0.3 0.05,0.5 0.2,2.05 0.75,10.4 0.45,3.9 q 1.8,-3.8 1.8,-8.05 L 21,-14.3 m -5.4,-1.15 -0.15,-2 -0.5,-0.95 -0.75,-1.5 -0.05,-0.1 -1.45,-1.3 -0.7,-0.55 -0.05,-0.05 -0.15,-0.05 -4.3,-0.2 H 3.45 v 0.05 H 1.6 1.05 -3.45 v -0.05 H -7.5 l -4.3,0.2 -0.15,0.05 -0.05,0.05 -0.7,0.55 -1.45,1.3 -0.05,0.1 -0.85,1.75 -0.4,0.7 -0.05,1.1 -0.5,5.95 -0.05,0.6 -0.4,5.6 -0.6,6.1 0.95,-0.1 h 0.7 l 1.4,0.15 0.1,0.45 q 0,0.65 -1.6,0.8 h -0.8 l -0.9,-0.05 -0.3,2.8 h 1.8 3.45 q 1.4,-0.2 1.4,0.7 l -0.25,0.55 -1.15,0.25 h -3.6 -1.85 l -1.4,12.35 -0.05,0.15 h 2.3 33.5 2.5 L 18.35,12.8 17.75,7.55 16.7,7.65 H 15.25 L 10.4,7.3 Q 9.95,7.2 9.95,6.65 9.95,6.1 10.9,6 L 15.15,5.8 15.9,5.75 h 1.65 L 17.3,3.7 15.05,3.65 12.8,3.4 Q 12.4,3.25 12.4,2.7 12.4,2.3 13.3,2.25 L 15,2.2 h 2.15 l -0.7,-6.4 -0.1,-1.85 -0.4,-5.35 -0.35,-4.05 m -22.2,1.45 0.3,-0.85 0.4,-1.15 0.6,-1.4 0.25,-0.45 0.1,-0.25 0.1,-0.1 q 0.6,-1.1 0.8,-0.55 L -4,-18.5 v 0.6 l -0.1,0.5 -0.1,0.6 v 0.05 l -0.1,0.55 -1.25,5.85 -1.35,5.95 -0.35,1.3 -0.6,1.85 H -7.25 8.2 Q 6.95,-4.8 5.2,-10.9 l -0.05,-0.2 -1.5,-5.5 -0.05,-0.2 -0.35,-1.6 0.05,-0.45 q 0.05,-0.8 0.55,-0.75 l 0.35,0.15 q 0.75,0.5 1.1,1.5 l 0.1,0.3 0.2,1 0.3,1.15 0.1,0.25 0.3,1.25 0.9,3.7 1.15,4.85 0.6,3.5 0.1,1 L 9.1,-0.9 9.15,-0.85 9.4,-0.3 9.15,0.25 9,0.45 v 0.1 q 0,0.8 -3.5,3.1 L 2.8,5.25 1.5,6.35 1.45,6.5 v 0.4 l -0.2,2 h 10.8 q 0.5,0.05 0.75,0.4 l 0.25,0.6 q 0,0.75 -1,1.05 h -1.2 -9.7 L -10.5,10.6 -10.95,10.45 q -0.5,-0.2 -0.5,-0.6 0,-0.6 1.3,-0.75 1.9,-0.2 9.7,-0.2 L -0.6,8.35 -0.7,6.95 V 6.9 L -1.85,6.3 -2.6,5.75 Q -4.25,5 -6.3,3.45 q -3,-2.3 -3.35,-3.2 l -0.3,-0.6 V -0.4 L -10,-0.7 -7.65,-10.3 -6.6,-14 m 10.95,25.9 1.95,0.7 0.05,0.1 -1.5,0.65 H 4.55 L 2.3,13.3 l -2,0.1 0.65,0.15 -7.1,-0.05 H -6.2 q -0.75,-0.3 -0.75,-0.8 0,-0.45 0.75,-0.75 h 1.4 2.25 l 0.1,-0.05 H -1.35 -1 4.35 M 4.2,1.85 Q 5.45,1.05 6.4,0.6 H -7 L -5.05,2 -1.4,3.6 q 1.1,0.5 1.7,0.95 L 4.2,1.85 M 12.9,26.35 10,25.25 9.5,25.1 8.5,24.8 7.6,24.55 H 7.5 L 0,23.65 q -4.85,0.1 -8.9,1.25 l -1.05,0.3 -0.95,0.35 -2.4,1 -1.1,0.55 -2.8,2 -0.1,0.05 h 0.4 33.8 0.4 l -0.05,-0.05 -2.85,-2 -1.5,-0.75 m 0.85,-2.1 v -0.5 L 13.8,22.7 H 9.1 l 1.75,0.5 q 1.55,0.45 2.9,1.05 M 18.5,37.9 h 0.05 V 30.6 H 18.5 v 0.75 L 17.35,31.4 H -17.5 l -1.1,-0.05 V 30.6 h -0.05 v 7.3 h 0.05 1.4 l -0.1,0.05 h 0.4 33.8 0.4 L 17.25,37.9 h 1.25 m -36.85,-53.1 0.3,-3.4 0.15,-1.2 -0.35,-1.15 -0.2,-0.75 -0.3,-0.6 -1.05,-1.5 q -0.45,1.25 -1,7.3 l -0.35,3.6 -0.2,3.4 q 0,4.25 1.8,8.05 l 0.45,-3.9 0.75,-9.85 m 7.5,38.4 1.75,-0.5 h -4.7 v 0.1 l 0.05,0.95 v 0.5 l 0.35,-0.15 2.55,-0.9"
         fill="#6b6b6b"
         fill-rule="evenodd"
         stroke="none"
         id="path1" />
      <path
         d="m -14.8,-25.6 0.15,-1.4 v -0.1 -0.4 l 0.05,-0.15 0.05,-1 q 1.8,0.25 5.25,0.05 h 5.85 5.2 7.55 q 3.45,0.2 5.25,-0.05 l 0.05,0.75 0.05,0.55 0.05,0.35 v 0.3 l 0.15,1.5 -23,-0.05 -6.65,-0.35 m 31.45,-3 0.2,0.5 -0.15,0.55 -0.05,-0.95 v -0.1 m 1.7,12.85 -0.2,-2.05 -0.05,-0.5 -0.05,-0.3 -0.05,-0.7 -0.1,-0.5 0.35,-1.15 0.1,-0.35 0.1,-0.4 0.3,-0.6 1.05,-1.5 0.8,5.2 0.2,2.1 0.1,0.85 v 0.2 l 0.1,1.05 v 0.1 l -0.15,-0.05 H 20.6 q -1.4,0 -2.25,-1.4 m -2.4,4.35 0.4,5.35 0.1,1.85 0.7,6.4 H 15 L 14.75,-2 q -0.2,-4.35 0.35,-6.3 0,-3 0.85,-3.1 M 15.05,3.65 17.3,3.7 17.55,5.75 H 15.9 L 15.15,5.8 15.05,3.65 m 0.2,4 h 1.45 l 1.05,-0.1 0.6,5.25 0.8,7.15 h -2.5 Q 15.9,17.3 15.35,9.7 l -0.1,-2.05 m -32.1,12.3 h -2.3 l 0.05,-0.15 1.4,-12.35 h 1.85 l -0.05,0.2 -0.35,8.15 q -0.2,2.85 -0.6,4.15 m 1.15,-14 h -1.8 l 0.3,-2.8 0.9,0.05 h 0.8 l -0.2,2.75 m 0.3,-4.15 h -0.7 l -0.95,0.1 0.6,-6.1 0.4,-5.6 0.05,-0.6 0.15,-0.15 0.2,0.3 q 0.45,-0.35 0.45,0.95 v 0.8 0.2 l 0.2,2.05 -0.4,7.65 v 0.4 m 20.55,-12.9 0.05,0.2 q 1.75,6.1 3,9.65 h -15.45 -0.6 l 0.6,-1.85 0.35,-1.3 1.35,-5.95 0.2,-0.3 q 3.95,-6.35 7.7,-4.75 0.95,0.65 2.8,4.3 m 3.8,9.15 0.15,1.05 -0.05,-0.05 -0.1,-1 m 1.9,12.9 Q 10.2,12.2 5.75,11.9 H 4.35 -1 -1.35 -2.45 l -0.1,0.05 H -4.8 L -9.95,11.5 Q -11,11.25 -11,10.6 l 0.05,-0.15 0.45,0.15 11.65,0.35 h 9.7 m -32,-23.85 0.35,-3.6 q 0.55,-6.05 1,-7.3 l 1.05,1.5 0.3,0.6 0.2,0.75 0.35,1.15 -0.15,1.2 -0.3,3.4 q -1,2.05 -2.8,2.3"
         fill="#afafaf"
         fill-rule="evenodd"
         stroke="none"
         id="path2" />
      <path
         d="m -14.8,-25.6 6.65,0.35 23,0.05 v 0.5 l 0.25,2.95 -0.2,-0.3 q -1.25,-1.7 -2.5,-2.1 L 12.1,-24.4 3.45,-24.6 H 2.4 1.6 -3.45 l -8.65,0.2 -0.3,0.25 q -1.25,0.4 -2.5,2.1 l -0.2,0.3 0.3,-3.5 v -0.35 m 35.8,11.3 0.35,4.8 q 0,4.25 -1.8,8.05 l -0.45,-3.9 -0.75,-10.4 q 0.85,1.4 2.25,1.4 h 0.25 L 21,-14.3 m -5.4,-1.15 0.35,4.05 q -0.85,0.1 -0.85,3.1 -0.55,1.95 -0.35,6.3 L 15,2.2 13.3,2.25 q -0.9,0.05 -0.9,0.45 0,0.55 0.4,0.7 L 15.05,3.65 15.15,5.8 10.9,6 Q 9.95,6.1 9.95,6.65 9.95,7.2 10.4,7.3 l 4.85,0.35 0.1,2.05 q 0.55,7.6 1.3,10.25 h -33.5 q 0.4,-1.3 0.6,-4.15 l 0.35,-8.15 0.05,-0.2 h 3.6 l 1.15,-0.25 0.25,-0.55 q 0,-0.9 -1.4,-0.7 h -3.45 l 0.2,-2.75 q 1.6,-0.15 1.6,-0.8 L -14,1.95 -15.4,1.8 V 1.4 l 0.4,-7.65 -0.2,-2.05 v -0.2 -0.8 q 0,-1.3 -0.45,-0.95 l -0.2,-0.3 -0.15,0.15 0.5,-5.95 0.7,1.05 q 1.75,2.05 5.35,2.05 1.6,0 2.85,-0.75 l -1.05,3.7 -2.35,9.6 0.05,0.3 v 0.05 l 0.3,0.6 q 0.35,0.9 3.35,3.2 2.05,1.55 3.7,2.3 l 0.75,0.55 1.15,0.6 v 0.05 l 0.1,1.4 0.15,0.55 q -7.8,0 -9.7,0.2 -1.3,0.15 -1.3,0.75 0,0.4 0.5,0.6 L -11,10.6 q 0,0.65 1.05,0.9 l 5.15,0.45 h -1.4 q -0.75,0.3 -0.75,0.75 0,0.5 0.75,0.8 h 0.05 v 0.1 q 0,0.9 0.6,1 L 0.4,14.75 4,14.6 q 0.55,-0.15 0.55,-1 v -0.25 h 0.3 L 6.35,12.7 6.3,12.6 4.35,11.9 h 1.4 q 4.45,0.3 5.1,-0.95 h 1.2 q 1,-0.3 1,-1.05 L 12.8,9.3 Q 12.55,8.95 12.05,8.9 H 1.25 l 0.2,-2 V 6.5 L 1.5,6.35 2.8,5.25 5.5,3.65 Q 9,1.35 9,0.55 V 0.45 L 9.15,0.25 9.4,-0.3 9.15,-0.85 9.1,-0.9 8.95,-1.95 8.35,-5.45 7.2,-10.3 6.3,-14 q 1.6,0.9 3.85,0.9 3.25,0 5.05,-1.9 l 0.4,-0.45 m -19.9,-0.75 0.15,-0.15 q 1.85,-1.55 4.1,-1.55 1.8,0 3.6,1.25 l 0.1,0.05 1.5,5.5 q -1.85,-3.65 -2.8,-4.3 -3.75,-1.6 -7.7,4.75 l -0.2,0.3 1.25,-5.85 m 17.2,42.55 1.5,0.75 2.85,2 0.05,0.05 h -0.4 -33.8 -0.4 l 0.1,-0.05 2.8,-2 1.1,-0.55 q 0.9,0.6 2.95,1.25 3.5,1.15 5.2,1 H 2 l 7.4,-1 q 2.65,-0.65 3.5,-1.45 m 5.6,5 V 30.6 h 0.05 v 7.3 H 18.5 v -6.5 -0.05 m -1.25,6.55 0.05,0.05 h -0.4 -33.8 -0.4 l 0.1,-0.05 h 34.45 m -35.85,0 h -0.05 v -7.3 h 0.05 v 0.75 0.05 6.5 m 0.25,-53.1 -0.75,9.85 -0.45,3.9 q -1.8,-3.8 -1.8,-8.05 l 0.2,-3.4 q 1.8,-0.25 2.8,-2.3"
         fill="#999999"
         fill-rule="evenodd"
         stroke="none"
         id="path3" />
      <path
         d="m -15.5,-16.35 0.05,-1.1 0.4,-0.7 0.85,-1.75 0.05,-0.1 1.45,-1.3 0.7,-0.55 0.05,-0.05 0.15,-0.05 4.3,-0.2 h 4.05 v 0.05 h 4.5 0.55 1.85 v -0.05 H 7.5 l 4.3,0.2 0.15,0.05 0.05,0.05 0.7,0.55 1.45,1.3 0.05,0.1 0.75,1.5 0.5,0.95 0.15,2 -0.4,0.45 q -1.8,1.9 -5.05,1.9 -2.25,0 -3.85,-0.9 L 6,-15.25 5.9,-15.5 l -0.3,-1.15 -0.2,-1 -0.1,-0.3 q -0.35,-1 -1.1,-1.5 L 3.85,-19.6 q -0.5,-0.05 -0.55,0.75 l -0.05,0.45 0.35,1.6 0.05,0.2 -0.1,-0.05 q -1.8,-1.25 -3.6,-1.25 -2.25,0 -4.1,1.55 l -0.15,0.15 0.1,-0.55 v -0.05 l 0.1,-0.6 0.1,-0.5 v -0.6 l -0.05,-0.25 q -0.2,-0.55 -0.8,0.55 l -0.1,0.1 -0.1,0.25 -0.25,0.45 -0.6,1.4 -0.4,1.15 -0.3,0.85 q -1.25,0.75 -2.85,0.75 -3.6,0 -5.35,-2.05 l -0.7,-1.05 m 20.05,29.7 v 0.25 q 0,0.85 -0.55,1 L 0.4,14.75 -5.55,14.6 q -0.6,-0.1 -0.6,-1 v -0.1 l 7.1,0.05 -0.65,-0.15 2,-0.1 2.25,0.05 M 4.2,1.85 0.3,4.55 Q -0.3,4.1 -1.4,3.6 L -5.05,2 -7,0.6 H 6.4 Q 5.45,1.05 4.2,1.85 m -17.5,24.7 2.4,-1 0.95,-0.35 1.05,-0.3 Q -4.85,23.75 0,23.65 l 7.5,0.9 h 0.1 l 0.9,0.25 1,0.3 0.5,0.15 2.9,1.1 q -0.85,0.8 -3.5,1.45 l -7.4,1 h -7.15 q -1.7,0.15 -5.2,-1 -2.05,-0.65 -2.95,-1.25 m 27.05,-2.3 Q 12.4,23.65 10.85,23.2 L 9.1,22.7 h 4.7 l -0.05,1.05 v 0.5 m 4.75,7.15 v 6.5 h -1.25 -34.45 -1.4 v -6.5 h 1.1 34.85 1.15 m -29.35,-8.2 -2.55,0.9 -0.35,0.15 v -0.5 L -13.8,22.8 v -0.1 h 4.7 l -1.75,0.5"
         fill="#7b7b7b"
         fill-rule="evenodd"
         stroke="none"
         id="path4" />
    </g>
    <g
       id="sprite0"
       transform="translate(660.25,0.5)">
      <use
         ffdec:characterId="68"
         height="1.5"
         transform="translate(-660.25,-0.5)"
         width="1320.3"
         xlink:href="#shape1"
         id="use4" />
    </g>
    <g
       id="shape1"
       transform="translate(660.25,0.5)">
      <path
         d="m 659.3,-0.5 0.55,0.25 0.2,0.5 -0.2,0.55 L 659.3,1 H -659.5 l -0.5,-0.2 -0.25,-0.55 0.25,-0.5 0.5,-0.25 H 659.3"
         fill="#ffff00"
         fill-opacity="0"
         fill-rule="evenodd"
         stroke="none"
         id="path5" />
    </g>
  </defs>
</svg>
