<?xml version="1.0" encoding="UTF-8" standalone="no"?>
<svg
   ffdec:objectType="frame"
   height="75.947113"
   width="23.95512"
   version="1.1"
   id="svg6"
   sodipodi:docname="1.svg"
   xmlns:inkscape="http://www.inkscape.org/namespaces/inkscape"
   xmlns:sodipodi="http://sodipodi.sourceforge.net/DTD/sodipodi-0.dtd"
   xmlns:xlink="http://www.w3.org/1999/xlink"
   xmlns="http://www.w3.org/2000/svg"
   xmlns:svg="http://www.w3.org/2000/svg"
   xmlns:ffdec="https://www.free-decompiler.com/flash">
  <sodipodi:namedview
     id="namedview6"
     pagecolor="#ffffff"
     bordercolor="#000000"
     borderopacity="0.25"
     inkscape:showpageshadow="2"
     inkscape:pageopacity="0.0"
     inkscape:pagecheckerboard="0"
     inkscape:deskcolor="#d1d1d1"
     fit-margin-top="5"
     fit-margin-left="5"
     fit-margin-right="5"
     fit-margin-bottom="5" />
  <g
     transform="translate(11.97828,37.708378)"
     id="g1">
    <use
       ffdec:characterId="3446"
       height="92.900002"
       transform="matrix(0.8232,0,0,0.8232,-13.9128,-38.0368)"
       width="33.299999"
       xlink:href="#sprite0"
       id="use1" />
  </g>
  <defs
     id="defs6">
    <g
       id="sprite0"
       transform="translate(16.9,45.9)">
      <use
         ffdec:characterId="3445"
         height="92.150002"
         transform="translate(-14.55,-45.5)"
         width="29.1"
         xlink:href="#sprite1"
         id="use2" />
    </g>
    <g
       id="sprite1"
       transform="translate(14.55,45.5)">
      <use
         ffdec:characterId="3444"
         height="92.150002"
         transform="translate(-14.55,-45.5)"
         width="29.1"
         xlink:href="#shape0"
         id="use3" />
    </g>
    <g
       id="shape0"
       transform="translate(14.55,45.5)">
      <path
         d="M -0.05,21.8 -0.3,19.9 -0.15,15.55 V 2.3 L -0.2,2.15 v -19.8 l 0.05,-19.3 v -2.2 -0.1 -0.15 l -0.3,-3.8 q -0.1,-2.35 1.35,-2.3 1.45,0.05 1.25,2.4 l -0.2,2.75 v 0.05 0.6 H 2 v 0.55 1.8 0.15 0.25 l 0.05,19.3 V 2.05 L 2,2.2 v 13.25 l 0.15,4.3 -0.25,2.1 q 3.2,0.2 5.65,1.9 0.95,-0.45 3.15,-0.7 3.85,-0.4 3.85,2.1 0,0.65 -0.95,2.85 -0.9,2 -1.65,2.45 l 0.2,2.6 q 0,4.6 -1.45,7.4 -3.05,5.7 -11.7,5.7 -7.55,0 -10.3,-5.15 -1.3,-2.4 -1.3,-5.7 0,-2.7 0.8,-4.95 -1.2,-0.55 -2,-2.45 l -0.75,-2.65 q 0,-2.25 3.9,-2.45 3.8,-0.25 3.9,1.2 2.85,-1.95 6.55,-2.2 h 0.15 m 11.1,5.9 0.35,-0.6 1.2,-2 V 25.05 L 11.65,25 9.4,25.3 q 1,1.05 1.65,2.4 M 6.75,26.6 6.7,26.55 5.25,25.45 q -2.35,-1.4 -5.4,-1.1 l -2.5,0.5 q -1.4,0.4 -2.65,1.25 l -1.75,1.4 -1.15,1.35 -0.15,0.25 q -1.85,2.65 -1.85,6.2 0,3.05 1.25,4.9 2.45,3.6 9.35,3.6 5.4,0 7.9,-4.05 1.55,-2.45 1.55,-4.6 0,-5.6 -3.1,-8.55 M -8.1,32.4 h 0.05 l 0.45,-0.05 q 1.7,0.05 1.7,1.65 v 0.05 l -0.05,0.3 -0.35,0.7 q -0.5,0.65 -1.3,0.65 -1,0 -1.45,-0.85 l -0.25,-0.9 q 0,-1.4 1.2,-1.55 m 3.2,2.35 0.1,-0.3 0.45,-1 q 0.95,-1.4 2.9,-0.3 -0.2,0.65 -1.25,1.35 l -0.25,0.2 -0.35,0.35 -0.35,0.65 0.65,0.6 0.85,0.2 q 0.85,0 1.25,-0.85 L -0.45,35 -0.05,34.8 0.3,34.85 Q 0.65,35 0.85,35.5 L 1.5,36.55 H 2.9 L 3.05,35.6 q 0,-0.55 -0.7,-1.1 L 2.15,34.35 2,34.15 q -0.35,-0.35 -0.35,-0.6 0,-0.8 1.05,-0.8 l 0.85,0.15 0.7,0.45 0.4,0.8 q 0.2,0.7 0.05,1.45 L 4.6,37.25 Q 4.2,38.3 2.2,38.3 0.65,38.3 0.3,37.75 l -0.6,-0.55 -0.75,0.4 -1.2,0.35 q -1.8,0 -2.45,-1.05 L -5,35.7 -4.9,34.75 M 5.7,34.65 5.45,33.7 q 0,-1.75 1.7,-1.75 1.7,0 1.7,1.75 L 8.5,34.8 q -0.45,0.75 -1.35,0.75 -1,0 -1.45,-0.9 m -16.25,-6.85 1.85,-2.25 0.6,-0.5 -4.05,-0.25 -0.05,-0.1 -0.05,0.3 q 0,1.35 1.35,2.45 l 0.35,0.35"
         fill="#9a9a9a"
         fill-rule="evenodd"
         stroke="none"
         id="path3" />
      <path
         d="m 9.4,25.3 2.25,-0.3 0.95,0.05 v 0.05 l -1.2,2 -0.35,0.6 Q 10.4,26.35 9.4,25.3 m -5.15,8.05 2,-1.5 q 1.05,-1.15 1.05,-3 0,-1.25 -0.55,-2.25 3.1,2.95 3.1,8.55 0,2.15 -1.55,4.6 -2.5,4.05 -7.9,4.05 -6.9,0 -9.35,-3.6 -1.25,-1.85 -1.25,-4.9 0,-3.55 1.85,-6.2 l -0.2,1.55 V 30.8 31 q 0,0.6 0.35,1.2 l 0.1,0.2 q -1.2,0.15 -1.2,1.55 l 0.25,0.9 q 0.45,0.85 1.45,0.85 0.8,0 1.3,-0.65 l 0.35,-0.7 1.05,0.4 -0.1,0.95 0.3,1.2 q 0.65,1.05 2.45,1.05 l 1.2,-0.35 0.75,-0.4 0.6,0.55 q 0.35,0.55 1.9,0.55 2,0 2.4,-1.05 L 4.7,35.6 Q 4.85,34.85 4.65,34.15 l -0.4,-0.8 m -7.55,1.7 1.55,0.05 1.3,-0.1 -0.45,0.65 Q -1.3,36.5 -2.15,36.5 L -3,36.3 -3.65,35.7 -3.3,35.05 m 3.6,-0.2 0.5,-0.15 h 0.35 l 1,-0.35 0.2,0.15 q 0.7,0.55 0.7,1.1 L 2.9,36.55 H 1.5 L 0.85,35.5 Q 0.65,35 0.3,34.85 m 5.4,-0.2 q 0.45,0.9 1.45,0.9 0.9,0 1.35,-0.75 l 0.35,-1.1 q 0,-1.75 -1.7,-1.75 -1.7,0 -1.7,1.75 l 0.25,0.95 m -13.8,-9.6 -0.6,0.5 -1.85,2.25 -0.35,-0.35 q -1.35,-1.1 -1.35,-2.45 l 0.05,-0.3 0.05,0.1 4.05,0.25"
         fill="#b1aaaa"
         fill-rule="evenodd"
         stroke="none"
         id="path4" />
      <path
         d="m 6.75,26.6 q 0.55,1 0.55,2.25 0,1.85 -1.05,3 l -2,1.5 L 3.55,32.9 2.7,32.75 q -1.05,0 -1.05,0.8 0,0.25 0.35,0.6 l 0.15,0.2 -1,0.35 H 0.8 l -0.5,0.15 -0.35,-0.05 -0.4,0.2 -1.3,0.1 -1.55,-0.05 0.35,-0.35 0.25,-0.2 q 1.05,-0.7 1.25,-1.35 -1.95,-1.1 -2.9,0.3 l -0.45,1 -0.1,0.3 -1.05,-0.4 0.05,-0.3 V 34 q 0,-1.6 -1.7,-1.65 L -8.05,32.4 H -8.1 L -8.2,32.2 Q -8.55,31.6 -8.55,31 v -0.2 -0.15 l 0.2,-1.55 0.15,-0.25 1.15,-1.35 1.75,-1.4 q 1.25,-0.85 2.65,-1.25 l 2.5,-0.5 q 3.05,-0.3 5.4,1.1 l 1.45,1.1 0.05,0.05"
         fill="#b7b0b0"
         fill-rule="evenodd"
         stroke="none"
         id="path5" />
      <path
         d="m 1.9,21.85 q 3.2,0.2 5.65,1.9 m 4.4,6.7 0.2,2.6 q 0,4.6 -1.45,7.4 -3.05,5.7 -11.7,5.7 -7.55,0 -10.3,-5.15 -1.3,-2.4 -1.3,-5.7 0,-2.7 0.8,-4.95 M -6.75,24 q 2.85,-1.95 6.55,-2.2 h 0.15 m 9.45,3.5 q 1,1.05 1.65,2.4 m -21.6,0.1 1.85,-2.25 0.6,-0.5"
         ffdec:has-small-stroke="true"
         ffdec:original-stroke-width="1.0"
         fill="none"
         stroke="#9a9a9a"
         stroke-linecap="round"
         stroke-linejoin="round"
         stroke-width="1.21471"
         id="path6" />
    </g>
  </defs>
</svg>
