<?xml version="1.0" encoding="UTF-8" standalone="no"?>
<svg
   ffdec:objectType="frame"
   height="30.6625"
   width="29.65"
   version="1.1"
   id="svg13"
   sodipodi:docname="1.svg"
   xmlns:inkscape="http://www.inkscape.org/namespaces/inkscape"
   xmlns:sodipodi="http://sodipodi.sourceforge.net/DTD/sodipodi-0.dtd"
   xmlns:xlink="http://www.w3.org/1999/xlink"
   xmlns="http://www.w3.org/2000/svg"
   xmlns:svg="http://www.w3.org/2000/svg"
   xmlns:ffdec="https://www.free-decompiler.com/flash">
  <sodipodi:namedview
     id="namedview13"
     pagecolor="#ffffff"
     bordercolor="#000000"
     borderopacity="0.25"
     inkscape:showpageshadow="2"
     inkscape:pageopacity="0.0"
     inkscape:pagecheckerboard="0"
     inkscape:deskcolor="#d1d1d1"
     fit-margin-top="5"
     fit-margin-left="5"
     fit-margin-right="5"
     fit-margin-bottom="5" />
  <g
     transform="translate(14.8,13.2125)"
     id="g3">
    <use
       ffdec:characterId="2381"
       height="26.950001"
       transform="translate(-13.65,-9.6)"
       width="27.700001"
       xlink:href="#shape0"
       id="use1" />
    <use
       ffdec:characterId="1855"
       height="27.5"
       transform="translate(-7.35,-11.35)"
       width="17.1"
       xlink:href="#sprite0"
       id="use2" />
    <use
       ffdec:characterId="2370"
       height="30.65"
       transform="translate(-14.8,-13.2)"
       width="29.65"
       xlink:href="#sprite3"
       id="use3" />
  </g>
  <defs
     id="defs13">
    <g
       id="shape0"
       transform="translate(13.65,9.6)">
      <path
         d="M 3.15,-1.75 3.2,-1.55 3.05,-1.3 2.6,-1.15 2.5,-1.2 2.45,-1.05 2.15,-0.3 2,-0.25 q -0.15,0 -0.3,-0.15 L 1.65,-0.5 1.55,-1.25 0.85,-1.4 v -0.55 l 0.9,-0.1 0.5,-0.85 0.3,0.95 0.55,0.2 h 0.05 m -3.8,2.15 0.05,0.2 h -0.35 l -0.4,-0.15 -0.3,-0.4 -0.7,-0.85 -0.05,-0.1 -1.25,0.05 -0.25,-0.05 -0.15,-0.45 0.05,-0.1 0.15,-0.1 1.25,-0.25 0.75,-1.25 -0.35,-0.3 q -0.45,-0.6 0,-1 0.45,-0.3 1.6,0.55 1.1,0.85 0.45,1.4 L -1,-2.5 l -0.2,0.55 -0.25,0.5 0.05,0.05 q 0.45,0.7 0.75,1.8 M -5.3,-4.35 -5.5,-4.4 -6.05,-2.8 q -0.35,2.05 1.15,4.15 l 0.3,0.4 q 0.5,0.6 1.7,1.2 l 1.55,0.65 0.25,0.5 -0.25,0.2 -0.4,0.25 -2,-0.2 -0.4,-0.2 -0.7,0.1 L -5,4.3 -5.85,4.45 -6.2,4.6 -6.3,4.65 -6.45,4.8 -6.6,4.9 -6.85,5 Q -7.6,5.65 -7.7,6.8 l 0.25,2.05 0.55,1.6 1.5,0.95 3.9,0.15 Q -0.8,11 -0.4,9.8 L -0.2,9.05 V 8.7 Q -0.45,6.9 0.3,6.3 L 0.55,6.15 0.95,6.45 1.3,8.1 q 0.35,1.3 0.85,1.9 1.35,1.65 2.9,2.15 L 6.3,12.35 7.95,12.15 8.15,11.2 7.9,10.95 7.8,10.7 7.95,10.4 h 0.4 L 8.8,9.75 9.05,9.65 9.15,9.6 q 0.2,0.35 0,1.3 l 0.4,0.3 q 1,-0.8 1.65,-2 1.1,-2 0.3,-4.05 L 10.85,3.9 10.3,3.15 9.85,2.65 9.45,2.3 9.15,2.1 7.9,1.3 7.5,1.1 6.5,0.55 6.4,0.45 V 0.4 Q 6.05,0.45 5.85,0.15 L 5.8,0.1 Q 5.55,-0.2 5.65,-0.5 L 5.1,-2.15 V -2.2 L 5,-2.5 q -0.5,-1.45 -1.2,-2.35 -2.55,-3.1 -5.75,-2.1 -1.3,0.4 -2.3,1.2 l 0.25,0.5 1.2,0.2 v 0.15 l -0.15,0.2 -0.8,0.2 q 0.05,0.4 -0.05,0.45 l -0.25,0.1 -0.3,-0.15 -0.15,-0.25 H -5.3 M -4.15,9.3 q 0.05,0.3 -0.2,0.5 l -0.5,0.15 q -0.35,0 -0.6,-0.3 -0.35,-0.45 -0.1,-0.8 l 0.2,-0.25 q 0.65,-0.55 1.05,0.15 0.15,0.3 0.15,0.55 M 5.9,9.35 5.5,10 5.35,10.1 Q 5.1,10.15 4.85,9.85 L 5.1,8.8 5.15,8.45 5.1,8.35 4.4,7.5 4,6.65 4.05,6.35 q 1.2,0.55 1.8,1.2 L 5.9,7.6 6.25,7.5 6.45,7.4 7.05,7.35 Q 6.85,6.7 7.1,6.5 7.75,5.95 8.35,7.25 l 0.2,0.5 Q 8.9,8.65 8.55,8.9 8.1,9.3 7.65,8.7 L 7.4,8.3 6.05,8.85 5.9,9.35 M 3.95,3.05 3.65,2.8 3.05,2.05 3.25,1.45 4.2,2.35 4.35,2.65 4.3,3 4,3.05 H 3.95 m 3.7,-7.05 0.5,0.4 0.65,1.1 v 0.2 l 0.2,0.05 0.7,0.55 0.25,0.35 q 0.75,1.3 0.55,2.15 L 11.8,1.95 12.6,3 v 0.05 q 2.95,4.3 -0.2,8.15 l 0.4,1 0.25,1.05 Q 13,13.7 12.4,14.15 L 12.35,14.2 10.4,14.35 9.15,14 l -2.3,0.65 -1,0.05 Q 4.1,14.55 2.6,13.45 2.8,14.65 2,15.25 0.1,16.8 -1.7,14.55 l -0.55,-0.7 -1.1,0.25 -0.2,0.05 0.05,0.45 q 0,0.85 -0.15,1.5 -0.25,0.7 -0.75,1.1 l -1.1,0.15 q -1.2,0 -1.9,-0.9 l -0.2,-0.4 -0.1,-0.3 -0.35,-1.5 V 13.8 l -1.15,0.65 -1.65,0.45 h -0.05 q -1.4,0.1 -2.2,-0.9 -0.85,-1.05 -0.4,-2.05 l 0.6,-0.85 1.05,-0.45 0.25,-0.1 -0.9,-0.5 -0.25,-0.15 -0.1,-0.1 q -0.7,-0.9 -0.5,-2.1 l 0.05,-0.25 0.35,-0.8 Q -12,5.9 -10.15,6.35 L -9.8,6.5 -9.75,6.25 -9.5,5.8 -9.2,5.3 -9.85,4.55 -10.3,3.9 -10.5,3.5 q -0.65,-1.55 0.75,-2.7 0.8,-0.6 1.9,-0.25 -1.05,-2.2 -0.35,-4.35 0.4,-1.25 1.15,-2.15 -0.4,-1 0.5,-3.25 0.6,-0.45 1.05,-0.4 0.45,0.05 0.95,0.45 l 0.85,0.55 q 4.5,-2.2 8.05,1.5 l 1.8,2.55 Q 6.8,-4.6 7.65,-4 m -0.75,2.25 0.6,-0.4 0.35,-0.3 -1.15,-0.5 0.2,1.2 M 8.8,-1.3 8.4,-1.05 7.95,-0.45 9,-0.1 8.8,-1.3 M 6.45,3.7 6.5,3.65 6.7,3.15 6.95,3.1 7.15,3.2 7.2,3.4 V 3.8 L 7.75,4 8.1,4.25 7.1,4.6 6.85,5.4 6.35,5.35 V 5.1 L 6.3,4.6 Q 5.75,4.55 5.55,4.25 L 5.45,4 5.5,3.9 V 3.85 L 6.2,3.7 h 0.25 m -6,7.7 -0.4,0.75 -0.7,0.8 L 0.1,14 H 1 Q 1.5,13.6 0.85,12.15 L 0.75,11.95 0.45,11.4 M 9,11.5 8.9,11.65 9.05,11.55 9.15,11.5 H 9 m 2.95,1.4 -0.35,-0.75 -0.35,0.35 -0.25,0.2 0.95,0.2 m -17.3,-20.35 0.6,-0.45 -0.65,-0.55 0.05,1 m 0.65,2.1 -0.15,0.1 h 0.2 l 0.05,-0.15 -0.1,0.05 m -2.7,7.6 Q -8.3,1.7 -8.7,2.05 l -0.25,0.85 0.05,0.05 0.85,0.9 q 0.6,-0.5 1.5,-0.65 L -6.3,3.15 -6.8,2.7 Q -7.15,2.4 -7.4,2.25 M -10.05,7.9 V 7.6 l -0.3,-0.2 -1.15,-0.05 -0.25,0.5 -0.1,0.55 q 0.45,0.5 1.6,0.75 l 0.5,0.2 L -10,8.25 -10.05,7.9 m 0.1,3.75 -1.85,0.3 -0.3,0.5 -0.1,0.45 0.55,0.45 0.2,0.1 q 0.85,0.3 2.1,-0.45 L -8.6,12.45 -7.95,12.1 -7.8,12 -8,11.55 -8.05,11.4 l -0.1,-0.1 -1.25,0.3 -0.55,0.05 m 5.45,3.5 -0.1,-0.65 -0.1,-0.35 q -0.85,-0.1 -1.7,-0.65 l 0.1,0.55 q 0.05,1.1 0.4,1.6 l 0.05,0.1 0.55,0.05 0.55,-0.2 q 0.2,-0.15 0.25,-0.45"
         fill="#6b6b6b"
         fill-rule="evenodd"
         stroke="none"
         id="path3" />
      <path
         d="m -4.7,-5.35 0.1,-0.05 -0.05,0.15 h -0.2 l 0.15,-0.1"
         fill="#ffffff"
         fill-rule="evenodd"
         stroke="none"
         id="path4" />
      <path
         d="M 8.8,-2.5 9,-2.25 8.8,-2.3 v -0.2 m -14.15,-4.95 -0.05,-1 0.65,0.55 -0.6,0.45"
         fill="#d2d2d2"
         fill-rule="evenodd"
         stroke="none"
         id="path5" />
      <path
         d="M 8.8,-2.5 8.15,-3.6 7.65,-4 q 0.1,-2.8 2.65,-0.7 2.6,2.15 2.6,5.3 L 12.6,3 11.8,1.95 10.5,0.8 Q 10.7,-0.05 9.95,-1.35 L 9.7,-1.7 9,-2.25 8.8,-2.5 m -19.3,6 0.2,0.4 0.45,0.65 L -9.2,5.3 -9.5,5.8 -9.75,6.25 -9.8,6.5 -10.15,6.35 Q -12,5.9 -12.95,6.65 l -0.35,0.8 0.05,-1.3 q 0,-1.4 2.75,-2.65 m -2.25,6.4 0.25,0.15 0.9,0.5 -0.25,0.1 -1.05,0.45 0.15,-1.2 m 1.85,5 h 0.05 l 1.65,-0.45 1.15,-0.65 v 0.45 l 0.35,1.5 0.1,0.3 q -1.85,-0.3 -2.8,-0.85 l -0.5,-0.3 m 7.25,1.2 q 0.15,-0.65 0.15,-1.5 l -0.05,-0.45 0.2,-0.05 1.1,-0.25 0.55,0.7 q 1.8,2.25 3.7,0.7 0.8,-0.6 0.6,-1.8 1.5,1.1 3.25,1.25 l 1,-0.05 2.3,-0.65 1.25,0.35 1.95,-0.15 q -0.4,1.65 -4.25,1.9 H -3.65"
         fill="#a1a1a1"
         fill-opacity="0.501961"
         fill-rule="evenodd"
         stroke="none"
         id="path6" />
      <path
         d="M 3.15,-1.75 Q 4,-2.7 3.9,-3.9 L 3.8,-4.85 q 0.7,0.9 1.2,2.35 l 0.1,0.3 v 0.05 l 0.55,1.65 q -0.1,0.3 0.15,0.6 l 0.05,0.05 q 0.2,0.3 0.55,0.25 v 0.05 l 0.1,0.1 1,0.55 Q 6.15,1.1 4.6,2.35 L 4.35,2.65 4.2,2.35 3.25,1.45 3.05,2.05 3.65,2.8 3.95,3.05 3.35,4 3.3,4.1 Q 2.6,5.9 4.1,7.75 l 1,1.05 -0.25,1.05 q 0.25,0.3 0.5,0.25 L 5.5,10 5.9,9.35 q 1.95,0.95 4.05,-0.7 1.45,-1.2 1.5,-2.9 l 0.05,-0.6 q 0.8,2.05 -0.3,4.05 -0.65,1.2 -1.65,2 l -0.4,-0.3 q 0.2,-0.95 0,-1.3 L 9.05,9.65 8.8,9.75 8.35,10.4 h -0.4 l -0.15,0.3 0.1,0.25 0.25,0.25 -0.2,0.95 -1.65,0.2 -1.25,-0.2 Q 3.5,11.65 2.15,10 1.65,9.4 1.3,8.1 L 0.95,6.45 0.55,6.15 0.3,6.3 Q -0.45,6.9 -0.2,8.7 V 9.05 L -0.4,9.8 Q -0.8,11 -1.5,11.55 L -5.4,11.4 -6.9,10.45 -7.45,8.85 -7.7,6.8 Q -7.6,5.65 -6.85,5 L -6.6,4.9 -6.45,4.8 -6.3,4.65 -6.2,4.6 l 0.35,-0.15 -0.2,0.2 -0.15,0.15 -0.3,0.4 -0.45,1 q -0.2,0.95 0.55,1.85 l 0.85,0.8 q -0.25,0.35 0.1,0.8 0.25,0.3 0.6,0.3 L -4.35,9.8 Q -4.1,9.6 -4.15,9.3 L -3.2,9.25 Q -1.75,9.1 -1.05,8.55 0.7,7.1 -1.4,4.9 L -1.75,4.55 -1.35,4.3 -1.1,4.1 -1.35,3.6 -2.9,2.95 q -1.2,-0.6 -1.7,-1.2 l -0.3,-0.4 q -1.5,-2.1 -1.15,-4.15 l 0.55,-1.6 0.2,0.05 q -0.1,1.3 1.2,2.95 l 0.05,0.05 0.15,0.45 0.25,0.05 q 1.1,1.05 2.3,1.3 l 0.4,0.15 H -0.6 L -0.65,0.4 0.05,0.35 1.65,-0.5 1.7,-0.4 Q 1.85,-0.25 2,-0.25 L 2.15,-0.3 2.45,-1.05 2.6,-1.15 3.05,-1.3 3.2,-1.55 3.15,-1.75 m 3.75,0 -0.2,-1.2 1.15,0.5 -0.35,0.3 -0.6,0.4 M 8.8,-1.3 9,-0.1 7.95,-0.45 8.4,-1.05 8.8,-1.3 m -8.35,12.7 0.3,0.55 0.1,0.2 Q 1.5,13.6 1,14 H 0.1 l -0.75,-1.05 0.7,-0.8 0.4,-0.75 m 11.5,1.5 -0.95,-0.2 0.25,-0.2 0.35,-0.35 0.35,0.75 M -7.4,2.25 q 0.25,0.15 0.6,0.45 l 0.5,0.45 -0.25,0.05 q -0.9,0.15 -1.5,0.65 L -8.9,2.95 -8.95,2.9 -8.7,2.05 q 0.4,-0.35 1.3,0.2 m -2.55,9.4 0.55,-0.05 1.25,-0.3 0.1,0.1 L -8,11.55 -7.8,12 -7.95,12.1 -8.6,12.45 -9.35,13 q -1.25,0.75 -2.1,0.45 l -0.2,-0.1 -0.55,-0.45 0.1,-0.45 0.3,-0.5 1.85,-0.3 m -0.1,-3.75 0.05,0.35 0.25,1.1 -0.5,-0.2 Q -11.4,8.9 -11.85,8.4 l 0.1,-0.55 0.25,-0.5 1.15,0.05 0.3,0.2 v 0.3 m 5.55,7.25 q -0.05,0.3 -0.25,0.45 l -0.55,0.2 -0.55,-0.05 -0.05,-0.1 q -0.35,-0.5 -0.4,-1.6 L -6.4,13.5 q 0.85,0.55 1.7,0.65 l 0.1,0.35 0.1,0.65"
         fill="#93a0ac"
         fill-rule="evenodd"
         stroke="none"
         id="path7" />
      <path
         d="M 3.8,-4.85 3.9,-3.9 Q 4,-2.7 3.15,-1.75 H 3.1 l -0.55,-0.2 -0.3,-0.95 -0.5,0.85 -0.9,0.1 v 0.55 l 0.7,0.15 0.1,0.75 -1.6,0.85 -0.7,0.05 q -0.3,-1.1 -0.75,-1.8 l -0.05,-0.05 0.25,-0.5 0.2,-0.55 0.85,0.1 q 0.65,-0.55 -0.45,-1.4 -1.15,-0.85 -1.6,-0.55 -0.45,0.4 0,1 l 0.35,0.3 -0.75,1.25 -1.25,0.25 -0.15,0.1 -0.05,0.1 -0.05,-0.05 q -1.3,-1.65 -1.2,-2.95 h 0.8 l 0.15,0.25 0.3,0.15 0.25,-0.1 q 0.1,-0.05 0.05,-0.45 l 0.8,-0.2 0.15,-0.2 v -0.15 l -1.2,-0.2 -0.25,-0.5 q 1,-0.8 2.3,-1.2 3.2,-1 5.75,2.1 m -1.2,3.7 -0.15,0.1 0.05,-0.15 0.1,0.05 m -3.95,1.6 q -1.2,-0.25 -2.3,-1.3 l 1.25,-0.05 0.05,0.1 0.7,0.85 0.3,0.4 m -0.4,4.1 0.35,0.35 q 2.1,2.2 0.35,3.65 -0.7,0.55 -2.15,0.7 L -4.15,9.3 Q -4.15,9.05 -4.3,8.75 -4.7,8.05 -5.35,8.6 L -5.55,8.85 -6.4,8.05 Q -7.15,7.15 -6.95,6.2 l 0.45,-1 0.3,-0.4 0.15,-0.15 0.2,-0.2 0.85,-0.15 0.15,-0.05 0.7,-0.1 0.4,0.2 2,0.2 m 13.25,0.6 -0.05,0.6 Q 11.4,7.45 9.95,8.65 7.85,10.3 5.9,9.35 L 6.05,8.85 7.4,8.3 7.65,8.7 Q 8.1,9.3 8.55,8.9 8.9,8.65 8.55,7.75 L 8.35,7.25 Q 7.75,5.95 7.1,6.5 6.85,6.7 7.05,7.35 L 6.45,7.4 6.25,7.5 5.9,7.6 5.85,7.55 Q 5.25,6.9 4.05,6.35 L 4,6.65 4.4,7.5 5.1,8.35 5.15,8.45 5.1,8.8 4.1,7.75 Q 2.6,5.9 3.3,4.1 L 3.35,4 3.95,3.05 H 4 L 4.3,3 4.35,2.65 4.6,2.35 Q 6.15,1.1 7.5,1.1 l 0.4,0.2 1.25,0.8 0.3,0.2 0.4,0.35 0.45,0.5 0.55,0.75 0.65,1.25 M 6.45,3.7 H 6.2 L 5.5,3.85 V 3.9 L 5.45,4 5.55,4.25 Q 5.75,4.55 6.3,4.6 L 6.35,5.1 V 5.35 L 6.85,5.4 7.1,4.6 8.1,4.25 7.75,4 7.2,3.8 V 3.4 L 7.15,3.2 6.95,3.1 6.7,3.15 6.5,3.65 6.45,3.7"
         fill="#a7b5c3"
         fill-rule="evenodd"
         stroke="none"
         id="path8" />
    </g>
    <g
       id="sprite0"
       transform="translate(5.45,22.95)">
      <use
         ffdec:characterId="1854"
         height="27.5"
         transform="translate(-5.45,-22.95)"
         width="17.1"
         xlink:href="#sprite1"
         id="use8" />
    </g>
    <g
       id="sprite1"
       transform="translate(5.45,22.95)">
      <use
         ffdec:characterId="1853"
         height="5.25"
         transform="scale(0.7692)"
         width="5.0999999"
         xlink:href="#sprite2"
         id="use9" />
    </g>
    <g
       id="sprite2">
      <use
         ffdec:characterId="1852"
         height="5.25"
         width="5.0999999"
         xlink:href="#shape1"
         id="use10" />
    </g>
    <g
       id="shape1">
      <path
         d="M 3.4,1.1 2.1,1.2 1.55,2.05 Q 1.15,2.7 1.3,3.1 1.4,3.45 2.2,4 3,4.55 3.5,4.3 3.95,4.05 4.25,2.6 4.25,1.35 3.4,1.1 M 0.35,4.2 Q 0,3.6 0,2.9 0,0.55 2.55,0.1 5.1,-0.35 5.1,1.55 5.1,5.25 2.6,5.25 1,5.25 0.35,4.2"
         fill="#999999"
         fill-opacity="0.439216"
         fill-rule="evenodd"
         stroke="none"
         id="path10" />
    </g>
    <g
       id="sprite3"
       transform="translate(14.8,13.25)">
      <use
         ffdec:characterId="2369"
         height="30.65"
         transform="translate(-14.8,-13.25)"
         width="29.65"
         xlink:href="#shape2"
         id="use11" />
    </g>
    <g
       id="shape2"
       transform="translate(14.8,13.25)">
      <path
         d="m 11.6,-13.15 q 0.05,-0.15 0.15,-0.1 l 0.3,0.35 v 0.1 l 0.2,0.4 v 5 q 1.05,0.4 1.7,1.3 l 0.25,0.4 0.3,0.6 0.15,0.5 0.05,0.1 0.05,0.95 0.05,0.9 V 12.1 l 0.05,0.4 v 0.6 H 14.7 v 0.3 l -0.05,0.95 -0.05,0.1 -0.15,0.5 -0.3,0.6 -0.25,0.4 q -0.8,1.1 -2.15,1.45 H -11.8 q -1.35,-0.35 -2.15,-1.45 l -0.25,-0.4 -0.3,-0.6 -0.15,-0.5 -0.05,-0.1 -0.05,-0.95 -0.05,-2.15 V 11.1 -2.3 l 0.1,-1.25 0.05,-0.95 0.05,-0.1 0.15,-0.5 0.3,-0.6 0.25,-0.4 0.5,-0.55 1.05,-0.7 v -5.05 h 0.05 l 0.2,-0.4 v -0.1 q 0.2,-0.55 0.45,-0.25 l 0.2,-0.1 4.85,0.1 v 0.05 h 2 0.25 1.4 0.1 0.3 0.1 0.55 0.25 0.25 0.15 l 12.65,-0.15 0.2,0.1 m -9,2.25 H 2.45 1.35 v 0.05 h -3.8 v -0.05 h -1.1 -0.15 l -3.95,0.05 v 0.05 h -2.5 v 2 l 6.45,0.1 h 0.15 1.1 v -0.05 h 3.8 v 0.05 h 1.1 0.15 l 7.5,-0.1 v -2 l -7.5,-0.1 m 9.7,8.3 q -0.15,-1.05 -0.85,-1.75 l -0.8,-0.5 -10.3,-0.3 -9.3,-0.2 q -1.85,0.4 -2.45,1 -0.7,0.7 -0.85,1.75 l -0.05,1.2 h -0.05 V 11 l 0.05,0.25 v 1.2 q 0.15,1.05 0.85,1.75 l 0.8,0.5 10.3,0.3 9.3,0.2 q 1.85,-0.4 2.45,-1 0.7,-0.7 0.85,-1.75 l 0.05,-1.2 V 11 -1.4 -2.6"
         fill="#6b6b6b"
         fill-rule="evenodd"
         stroke="none"
         id="path11" />
      <path
         d="m 2.6,-10.9 7.5,0.1 v 2 L 2.6,-8.7 H 2.45 1.35 v -0.05 h -3.8 v 0.05 h -1.1 -0.15 l -6.45,-0.1 v -2 h 2.5 v -0.05 l 3.95,-0.05 h 0.15 1.1 v 0.05 h 3.8 v -0.05 h 1.1 0.15"
         fill="#999999"
         fill-rule="evenodd"
         stroke="none"
         id="path12" />
      <path
         d="m 0.05,-0.7 q -1.4,0 -1.2,-1.4 0,-1.25 1.25,-1.35 1.2,-0.05 1.2,1.35 0,1.4 -1.25,1.4 M -11,-0.75 q 0,-1.2 0.75,-2.1 1.1,-1.4 3.55,-1.2 2.8,0.15 3.7,0.8 0.55,0.35 0.55,1.35 0,1.05 -1.05,1.8 -1.4,1 -4.35,1 -2.2,0 -2.9,-0.8 -0.35,-0.45 -0.25,-0.85"
         fill="#ffffff"
         fill-opacity="0.498039"
         fill-rule="evenodd"
         stroke="none"
         id="path13" />
    </g>
  </defs>
</svg>
