<?xml version="1.0" encoding="UTF-8" standalone="no"?>
<svg
   ffdec:objectType="frame"
   height="26.9"
   width="29.503571"
   version="1.1"
   id="svg5"
   sodipodi:docname="2.svg"
   xmlns:inkscape="http://www.inkscape.org/namespaces/inkscape"
   xmlns:sodipodi="http://sodipodi.sourceforge.net/DTD/sodipodi-0.dtd"
   xmlns:xlink="http://www.w3.org/1999/xlink"
   xmlns="http://www.w3.org/2000/svg"
   xmlns:svg="http://www.w3.org/2000/svg"
   xmlns:ffdec="https://www.free-decompiler.com/flash">
  <sodipodi:namedview
     id="namedview5"
     pagecolor="#ffffff"
     bordercolor="#000000"
     borderopacity="0.25"
     inkscape:showpageshadow="2"
     inkscape:pageopacity="0.0"
     inkscape:pagecheckerboard="0"
     inkscape:deskcolor="#d1d1d1"
     fit-margin-top="5"
     fit-margin-left="5"
     fit-margin-right="5"
     fit-margin-bottom="5" />
  <g
     transform="translate(14.25,13.45)"
     id="g2">
    <use
       ffdec:characterId="4233"
       height="26.9"
       transform="translate(-14.25,-13.45)"
       width="29.5"
       xlink:href="#shape0"
       id="use1" />
    <use
       ffdec:characterId="3500"
       height="8"
       transform="matrix(-1,0,0,1,3.65,-4.5)"
       width="10.8"
       xlink:href="#sprite0"
       id="use2" />
  </g>
  <defs
     id="defs5">
    <g
       id="shape0"
       transform="translate(14.25,13.45)">
      <path
         d="m -11.85,-8.55 0.05,0.2 1.4,6.65 1.55,6.6 1.65,5.35 H 3.75 3.85 L 5.45,4.9 7,-1.7 8.45,-8.35 V -8.7 l 0.2,-1.15 0.1,-0.55 0.1,-0.5 h -21.1 l 0.1,0.55 0.1,0.65 0.2,1.15 m 22.15,5.8 -0.85,0.25 -1,3.9 0.05,0.05 0.4,0.5 q 0.5,0.95 1.6,0.95 1.2,0 1.8,-1.2 0.4,-0.8 0.4,-1.55 L 12.3,-1.3 q -0.65,-1.45 -2,-1.45 m -24.55,-8.6 0.05,-0.2 -0.05,-0.25 q 0.4,-1.45 1.1,-1.65 h 22.9 q 0.75,0.2 1.1,1.65 l -0.05,0.25 0.05,0.2 q 0,2.2 -0.75,6 l 1.15,-0.15 q 2.4,0 3.4,2.6 0.6,1.45 0.6,2.9 0.05,1.55 -0.6,2.9 -1.2,2.75 -4.45,2.75 -1.7,0 -2.6,-0.95 -2.25,7.85 -3.7,8.75 H -7.3 q -1.6,-1 -4.25,-10.85 -2.7,-9.9 -2.7,-13.95 M -1.35,11.3 H -1.7 -3.1 l -3.75,-0.05 0.15,0.4 h 10 l 0.15,-0.4 -4.8,0.05"
         fill="#6b6b6b"
         fill-rule="evenodd"
         stroke="none"
         id="path2" />
      <path
         d="m 8.45,-8.7 v 0.35 L 7,-1.7 5.45,4.9 3.85,10.25 H 3.75 -7.2 l -1.65,-5.35 -1.55,-6.6 -1.4,-6.65 -0.05,-0.2 h 18.1 l 2.2,-0.15 m -9.8,20 4.8,-0.05 -0.15,0.4 h -10 l -0.15,-0.4 3.75,0.05 h 1.4 0.35"
         fill="#808080"
         fill-rule="evenodd"
         stroke="none"
         id="path3" />
      <path
         d="m 8.45,-8.7 -2.2,0.15 h -18.1 l -0.2,-1.15 -0.1,-0.65 -0.1,-0.55 h 21.1 l -0.1,0.5 -0.1,0.55 -0.2,1.15"
         fill="#8a8a8a"
         fill-rule="evenodd"
         stroke="none"
         id="path4" />
    </g>
    <g
       id="sprite0"
       transform="translate(5.4,4)">
      <use
         ffdec:characterId="43"
         height="8"
         transform="translate(-5.4,-4)"
         width="10.8"
         xlink:href="#shape1"
         id="use4" />
    </g>
    <g
       id="shape1"
       transform="translate(5.4,4)">
      <path
         d="m 2.9,-0.35 q 0,-1.25 1.25,-1.25 1.25,0 1.25,1.2 0,1.3 -1.25,1.3 Q 3.6,0.9 3.25,0.5 2.9,0.15 2.9,-0.35 m 0.35,-2.3 q 0,0.55 -0.35,0.9 -0.4,0.45 -1,0.45 -1.35,0 -1.35,-1.4 0,-1.3 1.35,-1.3 1.35,0 1.35,1.35 m -3.1,1.9 h 0.2 q 2.6,0.1 2.6,2.8 l -0.3,1 Q 2.05,4 0.45,4 H 0.35 0.15 0.1 -0.45 q -1.6,0 -2.2,-0.95 l -0.3,-1 q 0,-2.8 2.8,-2.8 h 0.3 M -1.55,-4 q 1.35,0 1.35,1.35 0,0.55 -0.4,0.9 -0.4,0.45 -0.95,0.45 -1.4,0 -1.4,-1.4 0,-1.3 1.4,-1.3 m -2.6,2.4 q 1.25,0 1.25,1.25 0,0.5 -0.35,0.85 -0.35,0.4 -0.9,0.4 -1.25,0 -1.25,-1.3 0,-1.2 1.25,-1.2"
         fill="#ffffff"
         fill-rule="evenodd"
         stroke="none"
         id="path5" />
    </g>
  </defs>
</svg>
