<?xml version="1.0" encoding="UTF-8" standalone="no"?>
<svg
   ffdec:objectType="frame"
   height="28.657143"
   width="14"
   version="1.1"
   id="svg5"
   sodipodi:docname="2.svg"
   xmlns:inkscape="http://www.inkscape.org/namespaces/inkscape"
   xmlns:sodipodi="http://sodipodi.sourceforge.net/DTD/sodipodi-0.dtd"
   xmlns:xlink="http://www.w3.org/1999/xlink"
   xmlns="http://www.w3.org/2000/svg"
   xmlns:svg="http://www.w3.org/2000/svg"
   xmlns:ffdec="https://www.free-decompiler.com/flash">
  <sodipodi:namedview
     id="namedview5"
     pagecolor="#ffffff"
     bordercolor="#000000"
     borderopacity="0.25"
     inkscape:showpageshadow="2"
     inkscape:pageopacity="0.0"
     inkscape:pagecheckerboard="0"
     inkscape:deskcolor="#d1d1d1"
     fit-margin-top="5"
     fit-margin-left="5"
     fit-margin-right="5"
     fit-margin-bottom="5" />
  <g
     transform="translate(7.05,16.657143)"
     id="g2">
    <use
       ffdec:characterId="3582"
       height="28.65"
       transform="translate(-7.05,-16.65)"
       width="14"
       xlink:href="#shape0"
       id="use1" />
    <use
       ffdec:characterId="3500"
       height="8"
       transform="matrix(0.7531,0,0,-0.7531,-4.2668,5.8625)"
       width="10.8"
       xlink:href="#sprite0"
       id="use2" />
  </g>
  <defs
     id="defs5">
    <g
       id="shape0"
       transform="translate(7.05,16.65)">
      <path
         d="m 0.05,-14 1.25,-0.05 v 1.45 H 0.05 -0.2 -1.4 v -1.45 L -0.2,-14 H 0.05 M 4.3,4.5 4.35,5.3 4.3,5.35 V 5.4 H 4.25 l -1.5,0.3 h -2.85 -3 L -4.4,5.4 -4.5,5.35 V 5.3 4.75 L -4.35,4.7 V 3.9 0.85 h 8.6 V 3.9 4.5 H 4.3"
         fill="#e2e2e2"
         fill-rule="evenodd"
         stroke="none"
         id="path2" />
      <path
         d="M 0.05,-14 H -0.2 l -1.2,-0.05 v 1.45 h 1.2 0.25 1.25 v -1.45 L 0.05,-14 m 6.9,10.95 -0.15,8.8 0.1,5.2 v 0.2 L 6.5,12 H -6.6 Q -6.95,11.75 -7,11.15 v -0.2 l 0.1,-5.2 -0.15,-8.8 q 0,-2.45 1.35,-2.45 l 0.55,0.15 1.1,-0.15 0.05,-2.45 0.05,-3.3 0.2,-1.2 -0.15,-1.1 0.15,-1.1 q -0.4,-0.3 -0.4,-0.8 0,-1.3 3.95,-1.2 h 0.25 q 3.95,-0.1 3.95,1.2 0,0.5 -0.35,0.8 l 0.1,1.1 -0.1,1.1 0.2,1.2 0.05,3.3 L 3.95,-5.5 5,-5.35 5.6,-5.5 q 1.35,0 1.35,2.45 m -5.75,-7.9 h -2.5 v 0.5 l -0.1,3.15 q -0.05,0.95 -0.35,1.75 l 1.35,0.05 0.2,0.05 H 0.05 L 0.3,-5.5 1.65,-5.55 Q 1.35,-6.35 1.3,-7.3 l -0.1,-3.15 v -0.5 m -5.5,8.15 -0.05,2.25 h 8.6 L 4.2,-2.8 H -4.3 M 4.3,4.5 H 4.25 V 3.9 0.85 h -8.6 V 3.9 4.7 L -4.5,4.75 V 5.3 5.35 l 0.1,0.05 1.3,0.3 h 3 2.85 L 4.25,5.4 H 4.3 V 5.35 L 4.35,5.3 4.3,4.5 M -4.4,7.05 V 8.6 H 4.3 V 7.05 H 1.65 L 0.05,7 H -0.2 L -1.75,7.05 H -4.4"
         fill="#6b6b6b"
         fill-rule="evenodd"
         stroke="none"
         id="path3" />
      <path
         d="m -4.3,-2.8 h 8.5 l 0.05,2.25 h -8.6 L -4.3,-2.8 m 5.5,-8.15 v 0.5 l 0.1,3.15 q 0.05,0.95 0.35,1.75 L 0.3,-5.5 0.05,-5.45 H -0.2 L -0.4,-5.5 -1.75,-5.55 q 0.3,-0.8 0.35,-1.75 l 0.1,-3.15 v -0.5 h 2.5 m -5.6,18 h 2.65 L -0.2,7 h 0.25 l 1.6,0.05 H 4.3 V 8.6 H -4.4 V 7.05"
         fill="#9aa798"
         fill-opacity="0.498039"
         fill-rule="evenodd"
         stroke="none"
         id="path4" />
    </g>
    <g
       id="sprite0"
       transform="translate(5.4,4)">
      <use
         ffdec:characterId="43"
         height="8"
         transform="translate(-5.4,-4)"
         width="10.8"
         xlink:href="#shape1"
         id="use4" />
    </g>
    <g
       id="shape1"
       transform="translate(5.4,4)">
      <path
         d="m 2.9,-0.35 q 0,-1.25 1.25,-1.25 1.25,0 1.25,1.2 0,1.3 -1.25,1.3 Q 3.6,0.9 3.25,0.5 2.9,0.15 2.9,-0.35 m 0.35,-2.3 q 0,0.55 -0.35,0.9 -0.4,0.45 -1,0.45 -1.35,0 -1.35,-1.4 0,-1.3 1.35,-1.3 1.35,0 1.35,1.35 m -3.1,1.9 h 0.2 q 2.6,0.1 2.6,2.8 l -0.3,1 Q 2.05,4 0.45,4 H 0.35 0.15 0.1 -0.45 q -1.6,0 -2.2,-0.95 l -0.3,-1 q 0,-2.8 2.8,-2.8 h 0.3 M -1.55,-4 q 1.35,0 1.35,1.35 0,0.55 -0.4,0.9 -0.4,0.45 -0.95,0.45 -1.4,0 -1.4,-1.4 0,-1.3 1.4,-1.3 m -2.6,2.4 q 1.25,0 1.25,1.25 0,0.5 -0.35,0.85 -0.35,0.4 -0.9,0.4 -1.25,0 -1.25,-1.3 0,-1.2 1.25,-1.2"
         fill="#6b6b6b"
         fill-rule="evenodd"
         stroke="none"
         id="path5" />
    </g>
  </defs>
</svg>
