<?xml version="1.0" encoding="UTF-8" standalone="no"?>
<svg
   ffdec:objectType="frame"
   height="48.706665"
   width="37.5"
   version="1.1"
   id="svg5"
   sodipodi:docname="1.svg"
   xmlns:inkscape="http://www.inkscape.org/namespaces/inkscape"
   xmlns:sodipodi="http://sodipodi.sourceforge.net/DTD/sodipodi-0.dtd"
   xmlns:xlink="http://www.w3.org/1999/xlink"
   xmlns="http://www.w3.org/2000/svg"
   xmlns:svg="http://www.w3.org/2000/svg"
   xmlns:ffdec="https://www.free-decompiler.com/flash">
  <sodipodi:namedview
     id="namedview5"
     pagecolor="#ffffff"
     bordercolor="#000000"
     borderopacity="0.25"
     inkscape:showpageshadow="2"
     inkscape:pageopacity="0.0"
     inkscape:pagecheckerboard="0"
     inkscape:deskcolor="#d1d1d1"
     fit-margin-top="5"
     fit-margin-left="5"
     fit-margin-right="5"
     fit-margin-bottom="5" />
  <g
     transform="translate(18.7,22.25)"
     id="g1">
    <use
       ffdec:characterId="2440"
       height="48.900002"
       transform="translate(-18.75,-22.45)"
       width="37.549999"
       xlink:href="#shape0"
       id="use1" />
  </g>
  <defs
     id="defs5">
    <g
       id="shape0"
       transform="translate(18.75,22.45)">
      <path
         d="m 16.95,-20.35 -0.05,-0.5 -0.05,-0.25 -0.7,0.35 0.4,0.65 0.2,0.55 0.4,-0.1 -0.2,-0.7 m -1.05,0.65 -0.45,-0.7 -0.25,0.1 -0.7,0.35 0.15,0.2 0.3,0.55 0.1,0.25 1.05,-0.4 -0.2,-0.3 v -0.05 m 2.2,-2.55 q 0.4,0.1 0.55,1.2 l 0.15,2.3 -2.3,0.85 q -3.3,1.25 -7.15,5.3 -0.6,0.6 -2,3.7 L 6.55,-7.3 7.7,-7.05 7.9,-6.6 7.85,-6.25 7.6,-4.5 H 7.85 Q 8.8,-4.3 9.05,-3.65 9.5,-3.2 9.5,-2 l -0.1,0.8 v 12.15 h 0.05 v 7.95 q -0.05,4.3 -0.5,6 v 0.3 L 8.7,26 q -0.3,0.5 -1,0.45 h -22.5 q -3.65,0.1 -3.65,-1.3 l 0.1,-0.35 -0.35,-3.3 V 16.8 3.9 l 0.1,-0.15 V -2.7 l 0.4,-0.7 0.4,-0.7 2.2,-0.4 h 1.25 v -1.05 l 0.2,-1.85 q 0.65,-1.15 3.05,-1 v -0.05 l 7.4,0.05 q 2.15,-0.7 2.85,0.9 l 0.3,1.9 -0.1,1.1 H 0.8 L 0.7,-5.45 q 0,-2.35 0.95,-1.8 l 0.3,-0.05 q 0.35,-6.05 8.15,-11.7 3.05,-2.2 5.6,-3.1 l 2.4,-0.15 m -3.95,3.45 -0.45,-0.7 -1.4,0.9 0.4,0.55 0.2,0.25 1.4,-0.8 -0.1,-0.15 -0.05,-0.05 m -2.35,1.35 -0.25,-0.3 -0.15,-0.2 -1,0.85 0.3,0.5 0.2,0.35 1.15,-0.95 -0.25,-0.25 m -1.85,1.5 -0.1,-0.15 -0.2,-0.4 -0.95,0.9 0.05,0.05 0.45,0.35 0.3,0.3 0.65,-0.7 -0.2,-0.35 M 6.9,-12 6.15,-12.7 6.1,-12.75 5.4,-11.6 6.35,-11.1 6.4,-11.05 7,-11.95 6.9,-12 m 1.65,-2.45 -0.1,-0.1 -0.4,-0.45 -0.95,1 -0.15,0.2 0.65,0.6 0.2,0.2 0.85,-1 0.2,-0.2 -0.3,-0.25 m -3.3,5.35 0.1,0.05 0.45,-1.05 q -0.6,-0.05 -1.05,-0.25 l -0.4,1.1 H 4.5 L 5.25,-9.1 M 4.6,-7.95 H 4.55 L 3.9,-8 3.7,-7.4 H 3.9 4.3 4.9 L 5,-7.95 H 4.6 m 1.5,2.2 h -2 -1.25 -0.1 -0.2 l 0.2,1.25 h 3.2 q 0,-0.75 0.15,-1.25 m 0.85,3.8 H -15.6 -16.2 V -1.4 L 6.95,-1.5 V -1.95 M 7,3.5 6.95,0 h -3.8 l -19.35,-0.05 0.05,18.85 v 0.75 l 0.05,1.4 0.1,1 h 0.45 l 1.45,-0.05 h 0.75 0.05 l 1.2,0.05 h 0.6 0.25 H 7.1 V 19.1 14.95 H 7.05 L 7,3.5 m 0.05,19.8 v -0.1 l -22.95,0.1 v 0.1 L -15.95,24 -14.8,23.95 7.1,23.9 7.05,23.3 m -18.9,-27.8 h 8.95 v -0.15 l 0.15,-1.5 -9.2,0.25 0.1,1.4"
         fill="#6b6b6b"
         fill-rule="evenodd"
         stroke="none"
         id="path1" />
      <path
         d="m 16.55,-20.1 -0.4,-0.65 0.7,-0.35 0.05,0.25 0.05,0.5 -0.4,0.25 m -1.6,0.9 -0.3,-0.55 -0.15,-0.2 0.7,-0.35 0.25,-0.1 0.45,0.7 -0.95,0.5 m -2.25,1.15 -0.4,-0.55 1.4,-0.9 0.45,0.7 -1.45,0.75 m -2,1.45 -0.3,-0.5 1,-0.85 0.15,0.2 0.25,0.3 -1.1,0.85 m -1.5,1.4 -0.45,-0.35 -0.05,-0.05 0.95,-0.9 0.2,0.4 0.1,0.15 -0.75,0.75 m -2.85,4.1 -0.95,-0.5 0.7,-1.15 0.05,0.05 0.75,0.7 -0.55,0.9 m 1.25,-2.1 -0.65,-0.6 0.15,-0.2 0.95,-1 0.4,0.45 0.1,0.1 -0.4,0.45 -0.55,0.8 M 5.8,-10.1 5.55,-9.65 5.25,-9.1 4.5,-9.25 H 4.35 l 0.4,-1.1 q 0.45,0.2 1.05,0.25 M 4.3,-7.4 H 3.9 3.7 L 3.9,-8 4.55,-7.95 H 4.6 L 4.3,-7.4"
         fill="#ffffff"
         fill-rule="evenodd"
         stroke="none"
         id="path2" />
      <path
         d="m 16.55,-20.1 0.4,-0.25 0.2,0.7 -0.4,0.1 -0.2,-0.55 m -0.65,0.4 v 0.05 l 0.2,0.3 -1.05,0.4 -0.1,-0.25 0.95,-0.5 m -3.2,1.65 1.45,-0.75 0.05,0.05 0.1,0.15 -1.4,0.8 -0.2,-0.25 m -2,1.45 1.1,-0.85 0.25,0.25 -1.15,0.95 -0.2,-0.35 m -1.5,1.4 0.75,-0.75 0.2,0.35 -0.65,0.7 -0.3,-0.3 M 6.9,-12 7,-11.95 6.4,-11.05 6.35,-11.1 6.9,-12 m 1.65,-2.45 0.3,0.25 -0.2,0.2 -0.85,1 -0.2,-0.2 0.55,-0.8 0.4,-0.45 M 5.25,-9.1 5.55,-9.65 5.8,-10.1 5.35,-9.05 5.25,-9.1 M 4.6,-7.95 H 5 L 4.9,-7.4 H 4.3 L 4.6,-7.95 M 3.15,0 h 3.8 L 7,3.5 1.45,10.95 0.4,12.3 q -1.05,1.35 -11.2,9.15 l -0.45,0.5 h -0.25 -0.6 l -1.2,-0.05 h -0.05 -0.75 l -1.45,0.05 H -16 l -0.1,-1 -0.05,-1.4 V 18.8 L -6.6,10.25 -5.5,9.2 Q 0.25,2.35 3.15,0 m 3.8,-1.95 v 0.45 l -23.15,0.1 v -0.55 h 0.6 22.55 M 6.1,-5.75 q -0.15,0.5 -0.15,1.25 h -3.2 l -0.2,-1.25 h 0.2 0.1 1.25 2 M 7.05,23.3 7.1,23.9 -14.8,23.95 -15.95,24 -15.9,23.4 V 23.3 L 7.05,23.2 v 0.1 m -16.9,-3.2 -0.4,0.6 q 2.1,-2.15 0.4,-0.6"
         fill="#cccccc"
         fill-rule="evenodd"
         stroke="none"
         id="path3" />
      <path
         d="m -9.85,20.1 q 1.7,-1.55 -0.4,0.6 l 0.4,-0.6"
         fill="#999999"
         fill-rule="evenodd"
         stroke="none"
         id="path4" />
      <path
         d="M 3.15,0 Q 0.25,2.35 -5.5,9.2 L -6.6,10.25 -16.15,18.8 -16.2,-0.05 3.15,0 m -14.4,21.95 0.45,-0.5 Q -0.65,13.65 0.4,12.3 L 1.45,10.95 7,3.5 7.05,14.95 H 7.1 v 4.15 2.85 h -18.35"
         fill="#998080"
         fill-rule="evenodd"
         stroke="none"
         id="path5" />
    </g>
  </defs>
</svg>
