<?xml version="1.0" encoding="UTF-8" standalone="no"?>
<svg
   ffdec:objectType="frame"
   height="45.992859"
   width="38.549999"
   version="1.1"
   id="svg17"
   sodipodi:docname="2.svg"
   xmlns:inkscape="http://www.inkscape.org/namespaces/inkscape"
   xmlns:sodipodi="http://sodipodi.sourceforge.net/DTD/sodipodi-0.dtd"
   xmlns:xlink="http://www.w3.org/1999/xlink"
   xmlns="http://www.w3.org/2000/svg"
   xmlns:svg="http://www.w3.org/2000/svg"
   xmlns:ffdec="https://www.free-decompiler.com/flash">
  <sodipodi:namedview
     id="namedview17"
     pagecolor="#ffffff"
     bordercolor="#000000"
     borderopacity="0.25"
     inkscape:showpageshadow="2"
     inkscape:pageopacity="0.0"
     inkscape:pagecheckerboard="0"
     inkscape:deskcolor="#d1d1d1"
     fit-margin-top="5"
     fit-margin-left="5"
     fit-margin-right="5"
     fit-margin-bottom="5" />
  <g
     transform="translate(19.45,22.992857)"
     id="g5">
    <use
       ffdec:characterId="1726"
       height="26.65"
       transform="translate(0.15,-12.7)"
       width="25.200001"
       xlink:href="#sprite0"
       id="use1" />
    <use
       ffdec:characterId="1727"
       height="46"
       transform="translate(-19.45,-23)"
       width="33.650002"
       xlink:href="#shape1"
       id="use2" />
    <use
       ffdec:characterId="1691"
       height="8"
       transform="matrix(0.5854,0.338,-0.338,0.5854,-6.7091,13.0336)"
       width="10.8"
       xlink:href="#sprite2"
       id="use3" />
    <use
       ffdec:characterId="1728"
       height="24.35"
       transform="translate(-16.75,-13.25)"
       width="27.5"
       xlink:href="#shape3"
       id="use4" />
    <use
       ffdec:characterId="1720"
       height="19.299999"
       transform="matrix(0.3961,0.6861,-0.6861,0.3961,-5.0289,-20.93)"
       width="11.85"
       xlink:href="#sprite3"
       id="use5" />
  </g>
  <defs
     id="defs17">
    <g
       id="sprite0"
       transform="translate(10.4,11.45)">
      <use
         ffdec:characterId="1725"
         height="20.65"
         transform="translate(-8.5,-10.35)"
         width="17.049999"
         xlink:href="#sprite1"
         id="use6" />
    </g>
    <g
       id="sprite1"
       transform="translate(8.5,10.3)">
      <use
         ffdec:characterId="1724"
         height="20.65"
         transform="translate(-8.5,-10.3)"
         width="17.049999"
         xlink:href="#shape0"
         id="use7" />
    </g>
    <g
       id="shape0"
       transform="translate(8.5,10.3)">
      <path
         d="m 6.4,-1.1 v -1.2 q 0,-4.45 -1.15,-5.5 v 0.1 L 5.1,-5.9 4.8,-5.7 4.3,-7.1 4.15,-8.15 2.55,-7.9 2.65,-6.05 2.6,-5.6 2.3,-5.35 Q 1.75,-5.75 1.7,-7.45 1.1,-7.1 0.85,-6.5 0.45,-5.6 0.65,-2.95 L 0.7,-1.2 0.35,0.55 0.25,0.8 Q -0.4,1.8 -2,2.1 H -2.15 L -2.6,2.3 -3,2.45 q -3.35,1.45 -3.35,3.4 l 0.9,1.45 q 1.05,0.95 2.1,0.95 l 3.1,-0.1 2.1,-0.2 0.6,-0.4 0.2,-0.1 L 2.7,7.4 Q 4.85,6.55 5.8,2.85 L 6.4,-1.1 M 0.6,-9.55 q 1.45,-0.9 3.55,-0.7 2.95,0.3 3.75,2.55 l 0.6,3.15 0.05,2.15 Q 8.55,1.35 7.9,3.7 7,6.95 5,8.25 4.55,9 3,9.55 q -2.3,0.8 -6.55,0.8 -2.4,0 -3.9,-1.95 Q -8.5,7 -8.5,6 q 0,-1.35 0.35,-1.9 0.5,-0.95 2.4,-2 l 3.2,-1.5 1.25,-0.4 q 0.6,-0.75 0.85,-1.9 0.3,-1.55 0.05,-3.7 -0.35,-2.15 0.15,-2.95 L 0.6,-9.55 M -1.2,3.25 -1.3,3.3 -1.25,3.25 h 0.05"
         fill="#6b6b6b"
         fill-rule="evenodd"
         stroke="none"
         id="path7" />
      <path
         d="M 0.7,-1.2 Q 1.65,0.3 3.75,0.3 5.5,0.3 6.4,-1.1 L 5.8,2.85 Q 4.85,6.55 2.7,7.4 l -0.05,0.05 -0.2,0.1 -0.6,0.4 -2.1,0.2 -3.1,0.1 q -1.05,0 -2.1,-0.95 L -6.35,5.85 Q -6.35,3.9 -3,2.45 L -2.6,2.3 -2.15,2.1 H -2 Q -0.4,1.8 0.25,0.8 L 0.35,0.55 0.7,-1.2 M -1.2,3.25 H -1.25 L -1.3,3.3 -1.2,3.25"
         fill="#e0deb4"
         fill-rule="evenodd"
         stroke="none"
         id="path8" />
      <path
         d="M 0.7,-1.2 0.65,-2.95 Q 0.45,-5.6 0.85,-6.5 1.1,-7.1 1.7,-7.45 q 0.05,1.7 0.6,2.1 L 2.6,-5.6 2.65,-6.05 2.55,-7.9 4.15,-8.15 4.3,-7.1 4.8,-5.7 5.1,-5.9 5.25,-7.7 v -0.1 q 1.15,1.05 1.15,5.5 v 1.2 Q 5.5,0.3 3.75,0.3 1.65,0.3 0.7,-1.2"
         fill="#efedc9"
         fill-rule="evenodd"
         stroke="none"
         id="path9" />
    </g>
    <g
       id="shape1"
       transform="translate(19.45,23)">
      <path
         d="m 7.75,-20.15 q 1.5,2.7 1.5,7.1 l -0.1,1.1 -0.05,0.05 0.85,1.4 0.1,0.2 0.4,0.8 0.4,0.9 0.6,2.05 0.15,0.75 v 1.2 q -0.3,2.7 -1.05,3.55 l -2.1,1.95 1,1.2 q 2.25,2.4 3.45,4.75 l 0.15,-0.05 0.5,1.4 H 13.5 l 0.2,0.6 q 0.5,1.65 0.5,3.3 l -0.35,3.75 q -0.55,2.75 -1.65,3.4 l 0.1,0.65 q 0,1.2 -0.65,1.8 -1.15,1.1 -4.4,1.3 H 4.05 L 2,22.6 0.9,23 h -7 l -1.05,-0.15 -0.3,-0.05 -1.5,0.2 h -3.25 q -3.3,-0.2 -4.45,-1.3 -0.65,-0.6 -0.65,-1.8 l 0.1,-0.65 q -1.1,-0.65 -1.65,-3.4 L -19.2,12.1 q 0,-1.35 0.35,-2.65 -0.6,-1.55 -0.6,-2.95 0,-3.6 1.05,-4.95 1.3,-1.75 3.85,-2.15 l 1.15,-0.05 V -0.8 -0.85 l -1.4,-1.25 q -0.55,-0.65 -0.9,-2.35 L -16,-7.2 q 0,-1.35 1.05,-3.3 l 0.85,-1.4 -0.05,-0.05 -0.1,-1.1 q 0,-4.4 1.5,-7.1 1.35,-2.45 3.35,-2.8 1.95,-0.3 3.35,1.5 1.4,1.8 1.5,5 l 2.05,0.15 2.05,-0.15 q 0.1,-3.2 1.5,-5 1.4,-1.8 3.35,-1.5 2,0.35 3.35,2.8 m -5.9,2.35 -0.45,1.45 q 3.05,0.4 5.35,2.05 L 6.7,-16.55 q -0.4,-4.15 -2.75,-4.15 -1.45,0 -2.1,2.9 m -13.25,6.5 -0.4,0.5 q -1.25,1.8 -1.5,3.65 0,5.75 7.6,6.15 l 2.85,0.1 h 0.3 0.2 L 0.7,-1 Q 8.3,-1.4 8.3,-7.15 8.05,-9 6.8,-10.8 L 5.95,-11.85 Q 3.45,-14.4 -1,-14.4 l -0.4,0.05 -1.1,-0.15 -1.3,0.1 H -4 q -4.85,0 -7.4,3.1 m 15.5,1.5 q 0.4,0.45 0.4,1.45 l -0.15,0.7 -0.45,0.5 -1.05,0.2 -1.2,-0.3 -0.5,-0.45 Q 0.8,-8.15 0.75,-8.55 L 0.7,-8.8 q 0,-1.35 1.9,-1.5 1.05,-0.1 1.5,0.5 m -9.8,1.15 Q -5.75,-8.2 -6.15,-7.7 L -7.2,-7 -7.85,-6.95 -8.7,-7.1 -9.35,-7.65 -9.5,-8.35 -9.2,-9.7 q 0.45,-0.7 1.6,-0.6 1.9,0.15 1.9,1.5 v 0.15 m 11.1,1.7 0.9,0.1 1.6,0.35 0.05,0.15 -1,0.25 Q 6.1,-6.1 5.4,-6.7 v -0.25 m -0.95,2.9 0.75,0.3 0.65,0.55 -0.05,0.25 -0.35,0.1 q -0.2,0 -0.65,-0.4 L 4.35,-3.8 4.45,-4.05 m 2.4,-0.8 0.05,0.1 q -0.2,0.3 -0.75,0.3 -0.25,0 -0.55,-0.3 l -0.4,-0.5 0.55,-0.15 1.1,0.55 M 10.6,16.75 10.85,15.9 11,15.5 11.4,13.75 11.55,12.15 11.4,10.35 11.35,10.2 11.3,10.05 11.25,9.8 Q 10.55,6.9 8.1,4.05 L 7.6,3.45 V 4.15 4.6 L 7.4,5.4 6.65,7.2 5.6,8.8 q -2.1,2.9 -5.3,3.75 l 1.25,0.95 q 1.3,1.3 1.6,3.05 1.3,-0.9 3.55,-0.65 1.4,0.15 2.6,0.7 l 0.7,0.4 0.15,0.1 0.25,0.15 0.2,-0.5 M 5.9,3.05 4.8,3.8 Q 2.95,4.8 0.1,5.1 L 0.25,6 q -0.4,2.45 -2.05,2.45 -1.05,0 -2,-0.7 L -4.65,6.7 Q -4.65,5.75 -4,5.2 -7.65,5 -9.8,3.8 l -1.1,-0.75 0.4,2.05 q 1,2.05 3.75,3.9 2.05,1.4 4.3,2.05 Q -0.25,10.4 1.75,9 4.5,7.15 5.5,5.1 L 5.9,3.05 M 5.6,1.1 5.45,0.95 4.2,1.25 1.85,1.65 2.1,2 1.6,2.5 1.2,2.4 1.1,2 1.2,1.7 -0.6,1.75 H -0.65 -1.25 -2.1 L -1.95,2.2 -2.2,2.7 -2.5,2.8 -3.05,2.15 -2.8,1.75 h -0.95 -0.6 -0.05 l -1.9,-0.1 q 0.25,0.2 0.25,0.6 l -0.4,0.15 -0.3,-0.05 -0.1,-0.4 0.1,-0.3 -2.45,-0.4 -1.25,-0.3 -0.15,0.15 0.6,0.65 q 1.55,0.75 3.15,0.9 1.7,0.15 3.35,0.9 h 0.65 V 3.5 L -2.6,3.55 -2.15,3.5 V 3.55 H -1.5 Q 0.15,2.8 1.85,2.65 3.45,2.5 5,1.75 L 5.6,1.1 M 3.45,20.2 4.8,20.5 v -0.05 q 0,-0.95 0.5,-1 l 0.3,1 v 0.1 l 1.85,0.05 q 0,-1.15 0.5,-1.3 l 0.4,1.25 0.8,-0.25 q 0.8,-0.35 0.8,-0.8 L 9.85,19.05 Q 9.65,18.6 9.05,18.6 l -4,-0.35 Q 3.45,18.2 3.45,19.8 v 0.4 M 1.4,19.3 1.35,19.05 0.9,16.25 Q 0.45,14.95 -2,13.75 -3.05,13.2 -3.85,12.8 -6.2,12.5 -8,11.35 q -0.15,0.7 -0.6,1.5 -1,1.75 -3,1.75 h -0.25 l 0.55,1.3 h 0.75 q 2.65,0.65 3.65,2.35 l 0.65,1.15 0.05,0.05 0.1,0.45 0.05,0.6 h -0.1 v 0.65 L -5.1,21 l 0.25,0.05 3.9,-0.35 2.15,0.1 0.2,-1.5 m -8.25,-37.1 q -0.65,-2.9 -2.1,-2.9 -2.35,0 -2.75,4.15 l -0.05,2.25 q 2.3,-1.65 5.35,-2.05 l -0.45,-1.45 m -4.35,11.4 q -0.8,0 -1.05,-0.7 l 0.45,-0.2 1.15,0.3 0.1,0.25 q -0.1,0.35 -0.65,0.35 m 0.9,0.7 0.05,0.3 -0.05,0.35 -1.15,0.15 -0.8,-0.15 0.9,-0.6 0.9,-0.05 h 0.15 m -0.8,2.25 -0.1,-0.15 1.4,-0.95 0.25,0.05 0.1,0.35 q 0,0.25 -0.55,0.55 l -0.7,0.25 -0.4,-0.1 m 6.6,-3.8 h 0.3 v 0.05 l 0.4,0.15 -0.15,0.3 -0.2,0.1 Q -4.5,-6.4 -4.5,-6 q 0,0.55 0.45,0.55 0.7,0 1,-0.45 l 0.6,-0.45 q 0.25,0 0.6,0.4 l 0.45,0.35 0.75,-0.1 0.05,-0.5 -0.4,-0.6 0.15,-0.55 0.25,-0.3 0.45,0.25 q 0.45,0.4 0.45,1.1 0,1.65 -1.4,1.65 l -1,-0.2 L -2.55,-5.1 -3,-4.8 q -0.45,0.3 -0.8,0.3 -1.15,0 -1.45,-1.2 0,-1.15 0.75,-1.55 M -2.95,5.6 -3.6,6.4 -2.25,7.1 q 0.35,0 0.8,-0.45 L -1,5.85 Q -2.45,5.35 -2.95,5.6 m -14.2,2.2 0.85,2.05 q 1,1.65 2.5,2.3 l -0.4,-0.6 q 0,-1.15 0.95,-0.25 l 1,1.25 h 0.6 q 0.9,0 1.35,-1 l -0.5,-0.45 -1.1,-1.05 q 0,-1.05 1.3,0 l 0.65,0.5 0.2,-0.7 L -10.6,8.8 Q -12,6.85 -12.4,5.35 l -0.2,-1.2 v -0.6 l 0.1,-1.15 0.1,-0.35 -0.55,-0.3 q -0.4,-0.3 -0.65,-0.3 -2.45,0 -3.35,2.5 -0.45,1.25 -0.4,2.55 l 0.2,1.3 m 3.65,7.75 0.05,-1.1 -2.25,-0.9 -0.8,-0.6 0.65,2.95 0.45,1.35 0.55,-0.35 q 0.7,-0.45 1.55,-0.65 l -0.2,-0.7 m 2.5,4.75 q 0,-0.8 0.45,-1.05 0.45,0.45 0.45,1 v 0.3 l 1.65,-0.35 v -0.4 q 0,-1.6 -1.6,-1.55 l -4,0.35 q -0.6,0 -0.8,0.45 l -0.1,0.45 q 0,0.45 0.8,0.8 l 0.9,0.25 -0.05,-0.6 q 0,-0.6 0.45,-0.9 0.45,0.3 0.45,0.9 l -0.05,0.65 H -11 v -0.3"
         fill="#6b6b6b"
         fill-rule="evenodd"
         stroke="none"
         id="path10" />
      <path
         d="M 5.95,-11.85 6.8,-10.8 Q 8.05,-9 8.3,-7.15 8.3,-1.4 0.7,-1 l -3.05,0.1 h -0.2 -0.3 L -5.7,-1 q -7.6,-0.4 -7.6,-6.15 0.25,-1.85 1.5,-3.65 l 0.4,-0.5 q 0.45,0.85 2.2,1.6 l -0.3,1.35 0.15,0.7 0.65,0.55 0.85,0.15 0.65,-0.05 1.05,-0.7 q 0.4,-0.5 0.45,-0.95 l 3.9,0.3 2.55,-0.2 q 0.05,0.4 0.4,0.85 l 0.5,0.45 1.2,0.3 1.05,-0.2 0.45,-0.5 0.15,-0.7 q 0,-1 -0.4,-1.45 1.55,-0.95 1.85,-2.05 m -0.55,4.9 v 0.25 q 0.7,0.6 1.55,0.6 l 1,-0.25 L 7.9,-6.5 6.3,-6.85 5.4,-6.95 m 1.45,2.1 -1.1,-0.55 -0.55,0.15 0.4,0.5 q 0.3,0.3 0.55,0.3 0.55,0 0.75,-0.3 l -0.05,-0.1 m -2.4,0.8 -0.1,0.25 0.45,0.55 q 0.45,0.4 0.65,0.4 L 5.8,-2.95 5.85,-3.2 5.2,-3.75 4.45,-4.05 M 6.65,7.2 8.2,11.25 9.3,13.5 q 0,1.2 0.15,2 l -0.2,0.65 0.05,0.2 -0.05,0.05 0.05,0.2 Q 8.1,16.05 6.7,15.9 4.45,15.65 3.15,16.55 2.85,14.8 1.55,13.5 L 0.3,12.55 Q 3.5,11.7 5.6,8.8 L 6.65,7.2 m -3.2,13 v -0.4 q 0,-1.6 1.6,-1.55 l 4,0.35 q 0.6,0 0.8,0.45 l 0.1,0.45 q 0,0.45 -0.8,0.8 l -0.8,0.25 -0.4,-1.25 q -0.5,0.15 -0.5,1.3 L 5.6,20.55 v -0.1 l -0.3,-1 q -0.5,0.05 -0.5,1 V 20.5 L 3.45,20.2 m -14.55,-23.65 0.4,0.1 0.7,-0.25 q 0.55,-0.3 0.55,-0.55 l -0.1,-0.35 -0.25,-0.05 -1.4,0.95 0.1,0.15 m 0.8,-2.25 h -0.15 l -0.9,0.05 -0.9,0.6 0.8,0.15 1.15,-0.15 0.05,-0.35 -0.05,-0.3 m -0.9,-0.7 q 0.55,0 0.65,-0.35 l -0.1,-0.25 -1.15,-0.3 -0.45,0.2 q 0.25,0.7 1.05,0.7 m 6.7,-0.85 q -0.75,0.4 -0.75,1.55 0.3,1.2 1.45,1.2 0.35,0 0.8,-0.3 l 0.45,-0.3 0.45,0.25 1,0.2 q 1.4,0 1.4,-1.65 0,-0.7 -0.45,-1.1 l -0.45,-0.25 -0.25,0.3 -0.15,0.55 0.4,0.6 -0.05,0.5 -0.75,0.1 -0.45,-0.35 q -0.35,-0.4 -0.6,-0.4 l -0.6,0.45 q -0.3,0.45 -1,0.45 -0.45,0 -0.45,-0.55 0,-0.4 0.35,-0.65 l 0.2,-0.1 0.15,-0.3 -0.4,-0.15 v -0.05 h -0.3 m -7.9,12.6 q 0.4,1.5 1.8,3.45 l 0.85,1.05 -0.2,0.7 -0.65,-0.5 q -1.3,-1.05 -1.3,0 l 1.1,1.05 0.5,0.45 q -0.45,1 -1.35,1 h -0.6 l -1,-1.25 q -0.95,-0.9 -0.95,0.25 l 0.4,0.6 q -1.5,-0.65 -2.5,-2.3 L -17.15,7.8 q 0.6,0.5 1.6,0.5 2.35,0 3.1,-2.75 l 0.05,-0.2 M -11,20.3 v 0.3 h -1.45 l 0.05,-0.65 q 0,-0.6 -0.45,-0.9 -0.45,0.3 -0.45,0.9 l 0.05,0.6 -0.9,-0.25 q -0.8,-0.35 -0.8,-0.8 l 0.1,-0.45 q 0.2,-0.45 0.8,-0.45 l 4,-0.35 q 1.6,-0.05 1.6,1.55 v 0.4 l -1.65,0.35 v -0.3 q 0,-0.55 -0.45,-1 Q -11,19.5 -11,20.3 m -2.5,-4.75 0.2,0.7 q -0.85,0.2 -1.55,0.65 l -0.55,0.35 -0.45,-1.35 -0.65,-2.95 0.8,0.6 2.25,0.9 -0.05,1.1"
         fill="#e0deb4"
         fill-rule="evenodd"
         stroke="none"
         id="path11" />
      <path
         d="m -11.4,-11.3 q 2.55,-3.1 7.4,-3.1 h 0.2 l 1.3,-0.1 1.1,0.15 0.4,-0.05 q 4.45,0 6.95,2.55 -0.3,1.1 -1.85,2.05 -0.45,-0.6 -1.5,-0.5 -1.9,0.15 -1.9,1.5 l 0.05,0.25 -2.55,0.2 -3.9,-0.3 V -8.8 q 0,-1.35 -1.9,-1.5 -1.15,-0.1 -1.6,0.6 -1.75,-0.75 -2.2,-1.6 M 6.65,7.2 7.4,5.4 7.6,4.6 V 4.15 3.45 l 0.5,0.6 q 2.45,2.85 3.15,5.75 l 0.05,0.25 0.05,0.15 0.05,0.15 0.15,1.8 -0.15,1.6 L 11,15.5 10.85,15.9 10.6,16.75 10.15,17.1 10,17 9.3,16.6 9.25,16.4 9.3,16.35 9.25,16.15 9.45,15.5 Q 9.3,14.7 9.3,13.5 L 8.2,11.25 6.65,7.2 m -19.05,-1.85 -0.05,0.2 q -0.75,2.75 -3.1,2.75 -1,0 -1.6,-0.5 l -0.2,-1.3 q -0.05,-1.3 0.4,-2.55 0.9,-2.5 3.35,-2.5 0.25,0 0.65,0.3 l 0.55,0.3 -0.1,0.35 -0.1,1.15 v 0.6 l 0.2,1.2"
         fill="#efedc9"
         fill-rule="evenodd"
         stroke="none"
         id="path12" />
      <path
         d="M 5.6,1.1 5,1.75 Q 3.45,2.5 1.85,2.65 0.15,2.8 -1.5,3.55 H -2.15 V 3.5 L -2.6,3.55 -2.85,3.5 V 3.55 H -3.5 Q -5.15,2.8 -6.85,2.65 -8.45,2.5 -10,1.75 l -0.6,-0.65 0.15,-0.15 1.25,0.3 2.45,0.4 -0.1,0.3 0.1,0.4 0.3,0.05 0.4,-0.15 q 0,-0.4 -0.25,-0.6 l 1.9,0.1 h 0.05 0.6 0.95 L -3.05,2.15 -2.5,2.8 -2.2,2.7 -1.95,2.2 -2.1,1.75 h 0.85 0.6 0.05 L 1.2,1.7 1.1,2 1.2,2.4 1.6,2.5 2.1,2 1.85,1.65 4.2,1.25 5.45,0.95 5.6,1.1 M 1.4,19.3 1.2,20.8 -0.95,20.7 -4.85,21.05 -5.1,21 -6.15,21.15 V 20.5 h 0.1 L -6.1,19.9 -6.2,19.45 -6.25,19.4 -6.9,18.25 q -1,-1.7 -3.65,-2.35 h -0.75 l -0.55,-1.3 h 0.25 q 2,0 3,-1.75 0.45,-0.8 0.6,-1.5 1.8,1.15 4.15,1.45 0.8,0.4 1.85,0.95 2.45,1.2 2.9,2.5 l 0.45,2.8 0.05,0.25 M -2.95,5.6 Q -2.45,5.35 -1,5.85 l -0.45,0.8 Q -1.9,7.1 -2.25,7.1 L -3.6,6.4 -2.95,5.6"
         fill="#b1b098"
         fill-rule="evenodd"
         stroke="none"
         id="path13" />
      <path
         d="m 1.85,-17.8 q 0.65,-2.9 2.1,-2.9 2.35,0 2.75,4.15 l 0.05,2.25 Q 4.45,-15.95 1.4,-16.35 L 1.85,-17.8 M 5.9,3.05 5.5,5.1 q -1,2.05 -3.75,3.9 -2,1.4 -4.2,2.05 Q -4.7,10.4 -6.75,9 -9.5,7.15 -10.5,5.1 L -10.9,3.05 -9.8,3.8 Q -7.65,5 -4,5.2 -4.65,5.75 -4.65,6.7 l 0.85,1.05 q 0.95,0.7 2,0.7 1.65,0 2.05,-2.45 L 0.1,5.1 Q 2.95,4.8 4.8,3.8 L 5.9,3.05 m -12.75,-20.85 0.45,1.45 q -3.05,0.4 -5.35,2.05 l 0.05,-2.25 q 0.4,-4.15 2.75,-4.15 1.45,0 2.1,2.9"
         fill="#b88d8d"
         fill-rule="evenodd"
         stroke="none"
         id="path14" />
    </g>
    <g
       id="sprite2"
       transform="translate(5.4,4)">
      <use
         ffdec:characterId="43"
         height="8"
         transform="translate(-5.4,-4)"
         width="10.8"
         xlink:href="#shape2"
         id="use14" />
    </g>
    <g
       id="shape2"
       transform="translate(5.4,4)">
      <path
         d="m 2.9,-0.35 q 0,-1.25 1.25,-1.25 1.25,0 1.25,1.2 0,1.3 -1.25,1.3 Q 3.6,0.9 3.25,0.5 2.9,0.15 2.9,-0.35 m 0.35,-2.3 q 0,0.55 -0.35,0.9 -0.4,0.45 -1,0.45 -1.35,0 -1.35,-1.4 0,-1.3 1.35,-1.3 1.35,0 1.35,1.35 m -3.1,1.9 h 0.2 q 2.6,0.1 2.6,2.8 l -0.3,1 Q 2.05,4 0.45,4 H 0.35 0.15 0.1 -0.45 q -1.6,0 -2.2,-0.95 l -0.3,-1 q 0,-2.8 2.8,-2.8 h 0.3 M -1.55,-4 q 1.35,0 1.35,1.35 0,0.55 -0.4,0.9 -0.4,0.45 -0.95,0.45 -1.4,0 -1.4,-1.4 0,-1.3 1.4,-1.3 m -2.6,2.4 q 1.25,0 1.25,1.25 0,0.5 -0.35,0.85 -0.35,0.4 -0.9,0.4 -1.25,0 -1.25,-1.3 0,-1.2 1.25,-1.2"
         fill="#6b6b6b"
         fill-rule="evenodd"
         stroke="none"
         id="path15" />
    </g>
    <g
       id="shape3"
       transform="translate(16.75,13.25)">
      <path
         d="m -7.1,-10.85 -0.9,0.25 -0.9,-0.2 q -0.5,-0.3 -0.35,-0.8 l 0.5,-0.6 0.95,-0.7 1.2,-0.3 q 0.6,-0.1 0.95,0.2 0.45,0.4 0.2,1 -0.1,0.35 -0.7,0.75 l -0.95,0.4 m 2.65,-1.5 0.05,-0.25 0.1,-0.2 q 0.2,-0.35 0.65,-0.35 l 0.05,-0.05 q 0.7,0.1 0.8,0.75 0.1,0.6 -0.4,0.85 -0.55,0.3 -1,-0.15 l -0.2,-0.4 -0.05,-0.2 m -11.4,15.3 0.6,-0.4 q 0.45,-0.1 0.75,0.2 0.3,0.35 0.05,0.75 l -0.25,0.25 -0.15,0.35 q 0.05,0.35 -0.2,0.8 L -15.8,5.15 -16.4,4.7 q -0.25,-0.35 0.05,-1.05 l 0.5,-0.7 m 0.75,3.65 -0.15,0.35 -1,0.2 q -0.55,-0.3 -0.5,-0.8 l 0.1,-0.4 0.1,-0.15 0.95,-0.2 q 0.55,0.2 0.55,0.75 L -15.1,6.6 m 25.85,3.5 -0.1,0.45 Q 10.45,11 10,11.1 9.45,11.2 9.2,10.8 L 8.85,10.2 Q 8.75,9.75 9,9.45 9.2,9.1 9.65,9.1 l 0.05,-0.05 0.75,0.3 0.3,0.75"
         fill="#ffffff"
         fill-rule="evenodd"
         stroke="none"
         id="path16" />
    </g>
    <g
       id="sprite3"
       transform="translate(3,2.2)">
      <use
         ffdec:characterId="1717"
         height="13"
         width="7.4000001"
         xlink:href="#shape4"
         id="use16" />
    </g>
    <g
       id="shape4">
      <path
         d="M 4.05,5.45 Q 5.75,4.2 6.4,4.25 L 4.5,6.3 7.4,12.3 7.3,12.8 7.35,12.9 7,13 Q 6.05,13 3.2,7.55 L 0.8,9.45 0.5,9.4 0.4,9.1 Q 0.4,8.4 2.65,6.55 L 0,1.05 q 0,-2.7 2.4,1.4 l 1.65,3"
         fill="#ffffff"
         fill-rule="evenodd"
         stroke="none"
         id="path17" />
    </g>
  </defs>
</svg>
