<?xml version="1.0" encoding="UTF-8" standalone="no"?>
<svg
   ffdec:objectType="frame"
   height="61.849998"
   width="65.050003"
   version="1.1"
   id="svg3"
   sodipodi:docname="1.svg"
   xmlns:inkscape="http://www.inkscape.org/namespaces/inkscape"
   xmlns:sodipodi="http://sodipodi.sourceforge.net/DTD/sodipodi-0.dtd"
   xmlns:xlink="http://www.w3.org/1999/xlink"
   xmlns="http://www.w3.org/2000/svg"
   xmlns:svg="http://www.w3.org/2000/svg"
   xmlns:ffdec="https://www.free-decompiler.com/flash">
  <sodipodi:namedview
     id="namedview3"
     pagecolor="#ffffff"
     bordercolor="#000000"
     borderopacity="0.25"
     inkscape:showpageshadow="2"
     inkscape:pageopacity="0.0"
     inkscape:pagecheckerboard="0"
     inkscape:deskcolor="#d1d1d1"
     fit-margin-top="5"
     fit-margin-left="5"
     fit-margin-right="5"
     fit-margin-bottom="5" />
  <g
     transform="translate(32.55,34.8)"
     id="g1">
    <use
       ffdec:characterId="1242"
       height="61.849998"
       transform="translate(-32.55,-34.8)"
       width="65.050003"
       xlink:href="#shape0"
       id="use1" />
  </g>
  <defs
     id="defs3">
    <g
       id="shape0"
       transform="translate(32.55,34.8)">
      <path
         d="m -28.3,-29.9 -0.05,0.35 -0.05,0.55 h 56.75 l -0.05,-0.55 v -0.4 -1.35 q -8.25,-0.1 -13.9,0.15 h -28.85 l -5.15,-0.15 h -8.75 l 0.05,1.4 m 50.75,4.8 2.05,0.05 0.45,-0.05 h 0.3 q 0.45,-0.45 0.7,0.5 l 0.15,0.25 v 0.1 l 0.2,1.35 0.1,1.1 h 0.05 v 0.4 3.8 0.35 l -0.05,2.25 0.1,0.7 v 1.7 l -0.05,0.15 v 0.1 0.05 0.1 l -0.05,3.8 v 0.15 h -0.05 l -0.1,0.65 0.15,0.4 q 0,0.45 -0.35,0.65 l -0.1,0.25 -0.65,0.15 H -25.35 L -26,-6.3 -26.1,-6.55 q -0.35,-0.2 -0.35,-0.65 l 0.15,-0.4 -0.1,-0.65 V -8.4 l -0.1,-3.8 v -0.1 -0.05 -0.1 -0.15 l -0.05,-1.7 0.1,-0.7 v -2.25 -0.35 -3.8 -0.4 h 0.05 l 0.05,-1.1 0.2,-1.35 v -0.1 l 0.1,-0.25 q 0.3,-0.95 0.75,-0.5 h 0.3 l 0.45,0.05 2.05,-0.05 h 12.65 0.2 0.2 31.9 m 8.65,-9.35 0.15,0.05 0.25,-0.05 q 1,0.15 1,4 v 1.7 q -0.1,1.25 -0.55,1.6 V 18.5 l -0.25,0.3 q -0.35,1.05 -1.45,1.05 h -0.1 -0.1 -3.65 l 0.15,2.25 -0.05,2.7 -0.3,1.15 -0.35,0.65 -0.4,0.45 -0.3,-0.15 H 24.5 19.05 q -0.55,-0.05 -0.9,-0.5 l -0.2,-0.65 Q 17.7,25.3 17.6,24.35 v -2.4 l 0.1,-2.1 h -35.45 l 0.1,2.1 v 2.4 q -0.1,0.95 -0.4,1.4 l -0.15,0.65 -0.9,0.5 h -5.45 -0.65 l -0.3,0.15 -0.4,-0.45 -0.35,-0.65 -0.3,-1.15 -0.05,-2.7 0.15,-2.25 h -3.65 -0.1 -0.1 q -1.15,0 -1.45,-1.05 L -32,18.5 v -45.65 q -0.45,-0.35 -0.55,-1.6 v -1.7 q 0,-3.85 1,-4 l 0.25,0.05 0.15,-0.05 6.85,-0.35 h 48.55 l 6.85,0.35 M 0.8,-17 l 0.45,0.05 0.1,0.5 -0.05,0.5 q 0.45,1 0.45,2.95 l 0.2,0.15 -0.05,0.25 -0.05,0.15 -0.05,0.15 H 1.75 L 1.7,-12.2 H 1.45 l -0.4,0.55 -0.1,-0.15 -0.15,-0.4 h -1.55 l -0.65,0.15 -0.8,-0.1 -0.15,-0.05 h -0.4 v -0.1 -0.15 -0.15 l -0.05,-2 -0.05,-1.1 v -0.05 l -0.45,-0.15 -0.1,-0.55 v -0.3 h 0.05 l 0.85,-0.1 0.25,-0.25 0.2,0.2 H -2 l 1.7,-0.05 H 0 L 0.8,-17 m -0.6,2.45 0.05,-0.75 0.1,-0.45 H -1.7 v 0.05 0.5 0.1 0.25 l -0.05,1.75 1,-0.25 h 1 L 0.2,-14.55 M 24.05,-1 23.95,-2.95 h -1.5 -44.95 -1.55 l -0.05,2.1 v 0.2 0.05 1.35 2.3 0.1 L -24.25,8.2 H -24.3 V 8.75 9.6 h -0.15 l -0.05,1.85 -0.05,1.3 h -0.05 l -0.05,0.35 0.4,0.35 h 0.45 47.55 0.45 L 24.6,13.1 V 12.75 H 24.5 L 24.45,11.45 24.4,9.6 H 24.25 V 8.75 8.2 L 24.15,3.15 V 3.05 L 24.1,0.75 V -0.6 H 24.05 V -0.65 -1 M -24.1,-21.9 v 0.1 0.05 0.35 l -0.05,3.8 v 0.35 l -0.15,2.45 -0.1,2.2 v 0.15 l -0.05,0.15 v 0.1 h -0.05 l -0.1,3.8 v 0.15 l -0.05,0.35 0.4,0.25 h 0.45 47.55 0.45 L 24.6,-7.9 V -8.25 -8.4 l -0.15,-3.8 v -0.1 -0.15 -0.15 l -0.2,-2.2 -0.15,-2.45 H 24.05 V -17.6 L 24,-21.4 v -0.3 -0.1 l -0.05,-1.5 h -1.5 -44.95 -1.55 l -0.05,1.4 m 48.6,17.05 0.45,-0.1 0.3,0.05 q 0.45,-0.45 0.7,0.55 l 0.15,0.3 v 0.1 l 0.05,0.1 0.15,1.35 0.1,1.85 v 0.05 h 0.05 v 1.35 2.3 0.1 L 26.4,7 h 0.05 l 0.05,0.4 0.05,0.8 H 26.5 v 0.55 l -0.05,1.5 v 1.2 1.3 h -0.1 l -0.1,0.75 0.15,0.4 q 0,0.45 -0.35,0.7 L 25.95,14.85 25.3,15 H -25.35 L -26,14.85 -26.1,14.6 q -0.35,-0.25 -0.35,-0.7 l 0.15,-0.4 -0.1,-0.75 h -0.05 l -0.05,-1.3 v -1.2 l -0.05,-1.5 V 8.2 7.4 L -26.5,7 h 0.05 V 3.15 3.05 0.75 -0.6 -0.65 l 0.1,-1.85 0.2,-1.45 v -0.1 l 0.1,-0.3 q 0.3,-1 0.75,-0.55 l 0.3,-0.05 0.45,0.1 2.05,-0.1 3.9,0.05 h 0.4 0.45 7.9 0.2 0.2 4.45 2.95 0.4 l 24.1,-0.05 2.05,0.1 m 4.05,-21.5 h -33.6 -1.55 -22 l -0.2,3.5 0.1,32.85 h 0.05 v 6.3 q 1.95,-0.2 5.6,-0.1 H 23 q 3.65,-0.1 5.6,0.1 V 10 h 0.05 V -5.15 h 0.05 v -0.7 l 0.05,-0.2 v -16.8 l -0.2,-3.5 M 0.45,3.6 h 0.1 L 0.7,3.35 0.95,3.65 1.8,3.75 H 1.85 V 3.6 L 1.9,3.95 V 4 L 1.75,4.55 1.3,4.7 V 4.75 L 1.25,5.85 1.2,8.2 h -4.55 l -0.1,-0.55 0.15,-0.2 q 0,-1.9 0.45,-2.95 L -2.9,4 l 0.15,-0.45 0.4,-0.05 0.8,0.05 h 0.3 L 0.45,3.6 M 0.15,5.65 V 5.35 5.25 4.75 4.7 H -1.9 l 0.1,0.45 0.05,0.75 -0.05,1.2 h 1.05 L 0.2,7.35 0.15,5.65 m -19.85,13.9 h -4.95 l 0.05,0.3 0.05,2.35 h 4.65 V 22 l 0.15,-2.15 0.05,-0.3 m -0.2,4.65 v -0.85 h -4.65 v 1.35 h 4.75 l -0.1,-0.5 m 44.4,0.5 v -1.35 h -4.65 v 0.85 l -0.1,0.5 h 4.75 m 0,-2.5 0.05,-2.35 0.05,-0.3 h -4.95 l 0.05,0.3 0.15,2.15 v 0.2 h 4.65"
         fill="#6b6b6b"
         fill-rule="evenodd"
         stroke="none"
         id="path1" />
      <path
         d="m 28.3,-29.95 v 0.4 L 28.35,-29 H -28.4 l 0.05,-0.55 0.05,-0.35 56.6,-0.05 m -5.85,4.85 h -31.9 -0.2 -0.2 -12.65 l -2.05,0.05 -0.45,-0.05 h -0.3 q -0.45,-0.45 -0.75,0.5 l -0.1,0.25 v 0.1 l -0.2,1.35 -0.05,1.1 h -0.05 v 0.4 3.8 0.35 2.25 l -0.1,0.7 0.05,1.7 v 0.15 0.1 0.05 0.1 l 0.1,3.8 v 0.15 l 0.1,0.65 -0.15,0.4 q 0,0.45 0.35,0.65 l 0.1,0.25 0.65,0.15 H 25.3 l 0.65,-0.15 0.1,-0.25 q 0.35,-0.2 0.35,-0.65 l -0.15,-0.4 0.1,-0.65 H 26.4 V -8.4 l 0.05,-3.8 v -0.1 -0.05 -0.1 l 0.05,-0.15 v -1.7 l -0.1,-0.7 0.05,-2.25 v -0.35 -3.8 -0.4 H 26.4 l -0.1,-1.1 -0.2,-1.35 v -0.1 l -0.15,-0.25 q -0.25,-0.95 -0.7,-0.5 h -0.3 l -0.45,0.05 -2.05,-0.05 M 18.3,-15 18.35,-15.05 18.3,-15.1 V -15 M 0.8,-17 0,-16.95 H -0.3 L -2,-16.9 h -0.05 l -0.2,-0.2 -0.25,0.25 -0.85,0.1 H -3.4 v 0.3 l 0.1,0.55 0.45,0.15 v 0.05 l 0.05,1.1 0.05,2 v 0.15 0.15 0.1 h 0.4 l 0.15,0.05 0.8,0.1 0.65,-0.15 H 0.8 l 0.15,0.4 0.1,0.15 0.4,-0.55 H 1.7 l 0.05,-0.1 H 1.8 L 1.85,-12.45 1.9,-12.6 1.95,-12.85 1.75,-13 q 0,-1.95 -0.45,-2.95 l 0.05,-0.5 -0.1,-0.5 L 0.8,-17 m -2.5,2.15 q 0.4,0.35 1.3,0.5 l 0.45,-0.1 0.15,-0.1 0.05,1.2 h -1 l -1,0.25 0.05,-1.75 m -22.4,14 2.65,0.25 h 21.1 v -0.05 l 17.7,-0.05 2.3,0.05 4.4,-0.35 v 0.35 0.05 h 0.05 v 1.35 l 0.05,2.3 v 0.1 l 0.1,5.05 V 8.75 9.6 h 0.15 l 0.05,1.85 0.05,1.3 h 0.1 v 0.35 l -0.4,0.35 h -0.45 -47.55 -0.45 l -0.4,-0.35 0.05,-0.35 h 0.05 l 0.05,-1.3 0.05,-1.85 h 0.15 V 8.75 8.2 h 0.05 L -24.1,3.15 V 3.05 0.75 -0.6 -0.65 -0.85 M 24,-21.8 v 0.1 0.3 l 0.05,3.8 v 0.35 h 0.05 l 0.15,2.45 0.2,2.2 v 0.15 0.15 0.1 l 0.15,3.8 v 0.15 0.35 l -0.4,0.25 h -0.45 -47.55 -0.45 l -0.4,-0.25 0.05,-0.35 V -8.4 l 0.1,-3.8 h 0.05 v -0.1 l 0.05,-0.15 v -0.15 l 0.1,-2.2 0.15,-2.45 v -0.35 l 0.05,-3.8 v -0.35 -0.05 -0.1 l 0.6,0.1 H 24 m 0.5,16.95 -2.05,-0.1 -24.1,0.05 h -0.4 -2.95 -4.45 -0.2 -0.2 -7.9 -0.45 -0.4 l -3.9,-0.05 -2.05,0.1 -0.45,-0.1 -0.3,0.05 q -0.45,-0.45 -0.75,0.55 l -0.1,0.3 v 0.1 l -0.2,1.45 -0.1,1.85 V -0.6 0.75 3.05 3.15 7 h -0.05 l -0.05,0.4 v 0.8 0.55 l 0.05,1.5 v 1.2 l 0.05,1.3 h 0.05 l 0.1,0.75 -0.15,0.4 q 0,0.45 0.35,0.7 l 0.1,0.25 0.65,0.15 H 25.3 l 0.65,-0.15 0.1,-0.25 q 0.35,-0.25 0.35,-0.7 l -0.15,-0.4 0.1,-0.75 h 0.1 v -1.3 -1.2 L 26.5,8.75 V 8.2 h 0.05 L 26.5,7.4 26.45,7 H 26.4 L 26.45,3.15 V 3.05 0.75 -0.6 H 26.4 V -0.65 L 26.3,-2.5 26.15,-3.85 26.1,-3.95 v -0.1 l -0.15,-0.3 q -0.25,-1 -0.7,-0.55 l -0.3,-0.05 -0.45,0.1 m 4.05,-21.5 0.2,3.5 v 16.8 l -0.05,0.2 v 0.7 H 28.65 V 10 H 28.6 v 6.3 Q 26.65,16.1 23,16.2 h -46.05 q -3.65,-0.1 -5.6,0.1 V 10 h -0.05 l -0.1,-32.85 0.2,-3.5 h 22 1.55 33.6 M 0.45,3.6 -1.25,3.55 h -0.3 L -2.35,3.5 -2.75,3.55 -2.9,4 -2.85,4.5 Q -3.3,5.55 -3.3,7.45 l -0.15,0.2 0.1,0.55 H 1.2 L 1.25,5.85 1.3,4.75 V 4.7 L 1.75,4.55 1.9,4 V 3.95 L 1.85,3.6 V 3.75 H 1.8 L 0.95,3.65 0.7,3.35 0.55,3.6 H 0.45 M 0.15,5.65 0.2,7.35 -0.75,7.1 H -1.8 L -1.75,5.9 -1.6,6 -1.15,6.1 0.15,5.65"
         fill="#727272"
         fill-rule="evenodd"
         stroke="none"
         id="path2" />
      <path
         d="m -28.3,-29.9 -0.05,-1.4 h 8.75 l 5.15,0.15 H 14.4 q 5.65,-0.25 13.9,-0.15 v 1.35 l -56.6,0.05 M 18.3,-15 v -0.1 l 0.05,0.05 -0.05,0.05 m -20,0.15 v -0.25 -0.1 -0.5 -0.05 h 2.05 l -0.1,0.45 -0.05,0.75 -0.15,0.1 -0.45,0.1 q -0.9,-0.15 -1.3,-0.5 M 24.05,-1 l -4.4,0.35 -2.3,-0.05 -17.7,0.05 v 0.05 h -21.1 l -2.65,-0.25 0.05,-2.1 h 1.55 44.95 1.5 l 0.1,1.95 m -48.15,-20.9 0.05,-1.4 h 1.55 44.95 1.5 l 0.05,1.5 h -47.5 l -0.6,-0.1 M -1.75,5.9 -1.8,5.15 -1.9,4.7 h 2.05 v 0.05 0.5 0.1 0.3 L -1.15,6.1 -1.6,6 -1.75,5.9 m -18.15,18.3 0.1,0.5 h -4.75 v -1.35 h 4.65 v 0.85 m 0.2,-4.65 -0.05,0.3 -0.15,2.15 v 0.2 h -4.65 l -0.05,-2.35 -0.05,-0.3 h 4.95 M 24.5,22.2 H 19.85 V 22 l -0.15,-2.15 -0.05,-0.3 h 4.95 l -0.05,0.3 -0.05,2.35 m 0,2.5 h -4.75 l 0.1,-0.5 v -0.85 h 4.65 v 1.35"
         fill="#7b7b7b"
         fill-rule="evenodd"
         stroke="none"
         id="path3" />
    </g>
  </defs>
</svg>
