<?xml version="1.0" encoding="UTF-8" standalone="no"?>
<svg
   ffdec:objectType="frame"
   height="62.140907"
   width="82.25"
   version="1.1"
   id="svg18"
   sodipodi:docname="2.svg"
   xmlns:inkscape="http://www.inkscape.org/namespaces/inkscape"
   xmlns:sodipodi="http://sodipodi.sourceforge.net/DTD/sodipodi-0.dtd"
   xmlns:xlink="http://www.w3.org/1999/xlink"
   xmlns="http://www.w3.org/2000/svg"
   xmlns:svg="http://www.w3.org/2000/svg"
   xmlns:ffdec="https://www.free-decompiler.com/flash">
  <sodipodi:namedview
     id="namedview18"
     pagecolor="#ffffff"
     bordercolor="#000000"
     borderopacity="0.25"
     inkscape:showpageshadow="2"
     inkscape:pageopacity="0.0"
     inkscape:pagecheckerboard="0"
     inkscape:deskcolor="#d1d1d1"
     fit-margin-top="5"
     fit-margin-left="5"
     fit-margin-right="5"
     fit-margin-bottom="5" />
  <g
     transform="translate(41.1,30.590909)"
     id="g1">
    <use
       ffdec:characterId="1981"
       height="62.150002"
       transform="translate(-43,-30.6)"
       width="85.949997"
       xlink:href="#sprite0"
       id="use1" />
  </g>
  <defs
     id="defs18">
    <g
       id="sprite0"
       transform="translate(43,30.6)">
      <use
         ffdec:characterId="1976"
         height="62.150002"
         transform="translate(-41.1,-30.6)"
         width="82.25"
         xlink:href="#shape0"
         id="use2" />
      <use
         ffdec:characterId="1691"
         height="8"
         transform="matrix(0.7593,0,0,0.6074,-4.25,3.6704)"
         width="10.8"
         xlink:href="#sprite1"
         id="use3" />
      <use
         ffdec:characterId="1977"
         height="2.3"
         transform="rotate(90,18.675,13.075)"
         width="2.55"
         xlink:href="#sprite2"
         id="use4" />
      <use
         ffdec:characterId="1978"
         height="1.25"
         transform="matrix(1.6213,0,0,1.8411,-20.4644,-5.3467)"
         width="12.85"
         xlink:href="#sprite3"
         id="use5" />
      <use
         ffdec:characterId="1979"
         height="2.3"
         transform="rotate(90,16.225,10.625)"
         width="2.55"
         xlink:href="#sprite4"
         id="use6" />
      <use
         ffdec:characterId="1978"
         height="1.25"
         transform="matrix(1.6213,0,0,1.8411,-0.3144,-5.3467)"
         width="12.85"
         xlink:href="#sprite3"
         id="use7" />
    </g>
    <g
       id="shape0"
       transform="translate(41.1,30.6)">
      <path
         d="m 18.55,-9.4 h 0.55 q 0.05,-1.4 1,-1.35 0.95,0 0.95,1.35 h 3.45 v -0.25 q 0,-0.8 1.05,-1.15 l -5.6,-2.45 H -33 l -2.1,-0.3 -0.25,-0.2 q -0.4,-0.2 -0.5,-0.8 l -0.85,0.05 h -0.15 q 0.3,0.65 0.35,1.8 l -0.1,3.3 0.05,2.85 0.4,-1.4 v -0.2 l 0.15,-0.7 1,-0.55 h 3.1 v -0.05 q 0,-1.4 0.95,-1.4 0.9,0 0.9,1.45 h 4.35 l -0.15,-0.45 0.25,-0.6 1.5,-0.25 2.35,0.3 0.2,0.55 q 0,0.25 -0.3,0.45 h 2.95 L -19,-9.7 q 0,-0.7 2.1,-0.95 2.1,-0.3 2.1,1 l -0.05,0.25 h 31.7 v -0.15 q 0,-1.4 0.85,-1.3 0.8,0.15 0.85,1.45 M 6.65,-19 -0.1,-21.9 V -22 l -7.7,-3.35 -2.95,-1.15 q -1.05,-0.4 -1.75,-1.1 -0.75,1.15 -1.45,0.85 -0.75,-0.3 0.05,-2.2 0.8,-1.9 1.55,-1.6 l 0.45,0.6 q 0.2,0.6 0,1.25 l 2.05,0.4 2.8,1.45 7.65,3.3 9.8,4.1 1.05,0.45 H 31.7 l 3.2,0.25 q 0.5,0.2 0.55,0.7 l 0.25,0.4 1.45,0.05 1.05,0.4 q 0.5,-0.05 0.6,1.7 v 9.55 l 0.1,0.3 q 0.8,-0.1 0.85,0.7 l 0.25,3.45 0.15,0.35 q 0,0.5 -0.35,0.7 L 37,-0.1 h -0.35 v 28.95 l -3.45,0.3 H 33 l 0.05,0.25 -0.2,0.6 q -0.65,0.55 -2.8,0.55 L 28.4,30.3 Q 27.95,30.1 27.95,29.45 L 28,29.15 h -55.95 l 0.05,0.3 q 0,0.65 -0.45,0.85 L -30,30.55 q -2.15,0 -2.8,-0.55 l -0.2,-0.6 0.05,-0.25 h -0.2 l -3.45,-0.3 V -0.1 h -0.35 l -2.8,-0.35 q -0.35,-0.2 -0.35,-0.7 l 0.15,-0.35 0.25,-3.45 q 0.05,-0.8 0.85,-0.7 l 0.1,-0.3 v -9.55 q 0.1,-1.75 0.6,-1.7 l 1.05,-0.4 0.9,-0.1 0.55,0.05 0.25,-0.4 0.1,-0.25 0.45,-0.45 3.2,-0.25 h 38.3 4.8 -4.8 m -40.75,3.05 v 0.4 0.4 l 1.1,-0.1 h 66.05 l 1.1,0.1 v -0.4 -0.35 l 0.1,-1.2 -2.55,0.1 h -63.35 l -2.55,-0.1 0.1,1.15 m 67.15,2.7 H 25 l 4.1,1.65 q 2.95,1.3 3.7,2.2 h 2.25 l 1,0.55 0.15,0.7 v 0.2 l 0.4,1.4 0.05,-2.85 -0.1,-3.3 q 0.05,-1.15 0.35,-1.8 h -0.15 l -0.85,-0.05 q -0.1,0.6 -0.5,0.8 l -0.25,0.2 -2.1,0.3 m -11.5,7.7 0.05,0.05 -0.25,0.25 v 0.1 0.9 0.15 1.75 l -0.55,0.15 -0.2,-0.05 -1.65,0.2 H -18.9 l -1.65,-0.2 -0.2,0.05 -0.55,-0.15 v -1.75 -1.05 -0.1 l -0.25,-0.25 0.25,-0.2 0.2,-0.4 h 42.25 q 0,0.3 0.4,0.55 M -22.4,-5.7 q 0.4,0.45 0.4,1.6 0,1.8 -1.05,1.8 -0.85,0 -1.05,-1 v -0.85 q 0,-1.1 0.35,-1.55 0.2,-0.4 0.7,-0.35 l 0.65,0.35 m -3.55,0 q 0.4,0.1 0.65,0.5 l -0.6,0.45 h -5.85 l -0.6,-0.6 0.3,-0.35 0.1,-0.05 0.2,-0.15 5.4,0.1 0.4,0.1 m -8.4,-0.05 v 4.35 l 5.4,-0.2 H 29 l 5.4,0.2 v -4.1 -0.75 l 0.05,-0.6 H -34.4 l 0.05,0.6 v 0.5 m 54.9,0.55 H -20.5 q 0.15,0.8 0.15,1.85 v 0.05 l 1.45,-0.05 h 37.85 l 1.45,0.05 v -0.05 l 0.1,-1.3 0.05,-0.55 M 29,-0.35 h -57.95 l -5.4,-0.1 v 0.6 l 0.4,0.05 H 34 l 0.4,-0.05 v -0.6 l -5.4,0.1 m 3.2,6.2 q -0.4,0.8 -1.3,0.8 -0.6,0 -1,-0.5 L 29.6,5.35 Q 29.6,3.8 31,3.75 32.35,3.7 32.35,5.1 L 32.2,5.85 M 34.4,3 V 1.3 H 34 L 9.75,1.4 v 1.25 8.8 L 9.9,18.8 v 2.5 Q 9.8,23.75 9.25,23.75 L 9,23.7 8.55,23.8 H -8.5 l -0.45,-0.1 -0.25,0.05 q -0.55,0 -0.65,-2.45 V 18.8 L -9.7,11.45 V 2.95 1.4 L -33.95,1.3 h -0.4 v 1.6 17.3 l 0.2,4.55 v 0.4 l 67.95,-0.1 0.4,0.1 0.2,-4.95 V 3 M 21.6,3.95 q 5.65,0 8,5.1 1.35,2.95 1.35,6.55 0,2.1 -1.25,3.95 -1.8,2.75 -5.45,3.05 H 20.2 Q 16.1,21.3 14.65,18.25 13.8,16.5 13.8,13.4 q 0,-2.45 1.15,-5 2,-4.45 6.65,-4.45 M 27.15,8 Q 25.25,5.75 22.4,5.75 19.65,5.8 17.65,7.8 q -2.2,2.15 -2.2,5.55 0,2.35 0.7,3.8 1.15,2.25 4.25,3.35 h 3.7 q 2.5,0.05 4.1,-2.25 1.15,-1.7 1.15,-3.15 0,-4.6 -2.2,-7.1 m -12.9,-2.85 -0.1,0.75 -0.4,0.6 -0.7,0.15 q -0.95,0 -1.25,-1.75 0,-1.35 1.2,-1.35 1.25,0 1.25,1.6 M 33.3,21.7 33.15,22.4 q -0.3,0.65 -1.1,0.65 -1.25,0 -1.25,-1.3 0,-1.25 1.25,-1.35 1.25,-0.15 1.25,1.3 M 22.05,11 q 1.65,0 2.15,1.05 0.35,0.55 0.35,1.75 l -0.3,1.1 q -0.6,1.05 -2.25,1.05 -1.15,0 -1.85,-1 -0.6,-0.8 -0.6,-1.7 0,-2.25 2.5,-2.25 M -6.65,2.5 -6.25,2.45 -6,2.3 H 5.8 L 6.05,2.45 Q 6.35,2.1 6.5,2.65 l 0.2,1.5 0.05,2.7 V 8.6 l -0.3,1.5 -0.05,0.1 v 0.05 l -0.35,0.3 -0.5,-0.2 -2.3,0.1 -2.7,0.1 H -0.2 -0.8 l -2.7,-0.1 -2.3,-0.1 q -0.2,0.2 -0.45,0.2 L -6.6,10.25 V 10.2 L -6.65,10.1 -6.95,8.6 V 7.55 6.8 L -6.9,4.15 -6.65,2.5 M 7.9,2.65 8,1.4 H -7.8 -7.95 v 0.1 l 0.1,0.65 V 3.3 l -0.05,18.5 -0.05,0.3 0.2,0.05 H 7.8 L 8,22.1 7.95,21.8 7.9,3.3 V 2.65 M -5.5,6.5 V 6.65 6.9 l 0.05,0.25 0.05,0.55 v 0.15 0.4 L -5.45,9.1 -1.15,8.9 -0.2,8.85 H 0 L 0.9,8.9 5.2,9.1 V 8.1 7.9 7.75 L 5.25,7.3 V 6.9 6.65 6.5 q 0,-2.25 0.3,-3.25 H -5.8 q 0.3,1 0.3,3.25 m 0.65,4.8 9.4,0.05 1.65,0.1 0.1,0.15 0.05,0.3 q 0,0.6 -1.8,0.45 L -5.9,12.4 -6.5,11.85 q 0,-0.75 1.65,-0.55 m -1.6,5.1 2.75,-0.1 9.45,0.05 q 0.4,-0.05 0.6,0.25 l 0.25,0.5 0.1,0.5 0.05,0.85 v 1.75 l -0.3,0.9 -0.05,0.05 -0.3,0.2 H 6 L 5.75,21.3 5.4,21.35 H 0.55 -0.2 -4.6 l -0.65,-0.1 H -5.8 l -0.4,0.1 h -0.05 l -0.35,-0.2 -0.05,-0.05 -0.3,-0.9 v -1.95 l 0.05,-0.65 0.1,-0.55 -0.05,-0.2 q 0,-0.3 0.4,-0.45 m 18.05,4.75 q 0,-1.45 1.25,-1.35 1.3,0.05 1.3,1.25 l -0.2,0.7 q -0.35,0.8 -1.15,0.8 -0.65,0 -0.95,-0.55 L 11.6,21.15 M -33.15,26.6 H 33.2 l 1,-0.05 V 26.1 l -0.4,0.05 -67.95,-0.1 v 0.5 l 1,0.05 m 1.35,-30.5 4.55,-0.2 q 1,-0.15 1.4,0.25 l 0.25,0.45 q 0,0.6 -1.2,0.6 l -5.4,-0.15 -0.1,-0.45 0.5,-0.5 M -13,6.65 q -0.85,0 -1.1,-0.75 l -0.1,-0.75 q 0,-1.6 1.25,-1.6 1.2,0 1.2,1.35 -0.3,1.75 -1.25,1.75 m -1.6,11.6 q -1.45,3.05 -5.55,4.35 h -4.05 q -3.65,-0.3 -5.45,-3.05 -1.25,-1.85 -1.25,-3.95 0,-3.6 1.35,-6.55 2.35,-5.1 8,-5.1 4.65,0 6.65,4.45 1.15,2.55 1.15,5 0,3.1 -0.85,4.85 m -5.5,-3.3 q -0.7,1 -1.85,1 -1.65,0 -2.25,-1.05 l -0.3,-1.1 q 0,-1.2 0.35,-1.75 0.5,-1.05 2.15,-1.05 2.5,0 2.5,2.25 0,0.9 -0.6,1.7 m 4.7,-1.6 q 0,-3.4 -2.2,-5.55 -2,-2 -4.75,-2.05 -2.85,0 -4.75,2.25 -2.2,2.5 -2.2,7.1 0,1.45 1.15,3.15 1.6,2.3 4.1,2.25 h 3.7 q 3.1,-1.1 4.25,-3.35 0.7,-1.45 0.7,-3.8 m 3.85,7.8 -0.25,0.85 q -0.3,0.55 -0.95,0.55 -0.8,0 -1.15,-0.8 l -0.2,-0.7 q 0,-1.2 1.3,-1.25 1.25,-0.1 1.25,1.35 m -18.3,-15 q -0.4,0.5 -1,0.5 -0.9,0 -1.3,-0.8 L -32.3,5.1 q 0,-1.4 1.35,-1.35 1.4,0.05 1.4,1.6 l -0.3,0.8 m -0.9,15.6 q 0,1.3 -1.25,1.3 -0.8,0 -1.1,-0.65 l -0.15,-0.7 q 0,-1.45 1.25,-1.3 1.25,0.1 1.25,1.35"
         fill="#6b6b6b"
         fill-rule="evenodd"
         stroke="none"
         id="path7" />
      <path
         d="m 20.55,-5.2 -0.05,0.55 -0.1,1.3 V -3.3 L 18.95,-3.35 H -18.9 l -1.45,0.05 v -0.05 q 0,-1.05 -0.15,-1.85 H 20.55 M 32.2,5.85 32.35,5.1 Q 32.35,3.7 31,3.75 29.6,3.8 29.6,5.35 l 0.3,0.8 q 0.4,0.5 1,0.5 0.9,0 1.3,-0.8 M 9.75,2.65 14.9,3.05 H 18 Q 15.3,4.5 13.9,6.55 L 13.05,8.1 q -0.85,2 -0.85,6.35 0,2 2.5,5.4 2.95,3.95 6.2,3.75 h 4.05 q 4.5,-1.5 6.1,-4.7 Q 32,16.95 32,13.5 l -0.1,-3 Q 31.65,9.2 30.4,7.25 28.85,4.8 25.8,3.15 V 3.1 h 8 L 34.4,3 v 17.2 l -0.2,4.95 -0.4,-0.1 -67.95,0.1 v -0.4 l -0.2,-4.55 V 2.9 l 1,0.15 10,0.05 q -3.4,0.35 -5.8,2.7 -3.05,3.05 -3.05,8.35 0,3.3 1.85,5.95 2.3,3.4 6.5,3.4 7.9,0 10.35,-4.85 0.95,-1.95 0.95,-6.25 0,-4.4 -3.05,-7.05 -2.3,-1.9 -5.2,-2.25 h 8.95 L -9.7,2.95 v 8.5 l -0.15,7.35 v 2.5 q 0.1,2.45 0.65,2.45 l 0.25,-0.05 0.45,0.1 H 8.55 L 9,23.7 9.25,23.75 q 0.55,0 0.65,-2.45 V 18.8 L 9.75,11.45 V 2.65 M 22.4,7.2 q 2.15,0.1 3.6,1.65 1.65,1.7 1.65,4.55 0,5.1 -3.65,5.1 -6.85,0 -6.85,-6.3 0,-2.45 1.65,-3.85 Q 20.3,7.1 22.4,7.2 M 22.05,11 q -2.5,0 -2.5,2.25 0,0.9 0.6,1.7 0.7,1 1.85,1 1.65,0 2.25,-1.05 l 0.3,-1.1 q 0,-1.2 -0.35,-1.75 Q 23.7,11 22.05,11 M 33.3,21.7 q 0,-1.45 -1.25,-1.3 -1.25,0.1 -1.25,1.35 0,1.3 1.25,1.3 0.8,0 1.1,-0.65 L 33.3,21.7 M 14.25,5.15 q 0,-1.6 -1.25,-1.6 -1.2,0 -1.2,1.35 0.3,1.75 1.25,1.75 l 0.7,-0.15 0.4,-0.6 0.1,-0.75 M -5.5,6.5 q 0,-2.25 -0.3,-3.25 H 5.55 q -0.3,1 -0.3,3.25 V 6.65 6.9 7.3 L 5.2,7.75 v 0.15 0.2 1 L 0.9,8.9 0,8.85 H -0.2 L -1.15,8.9 -5.45,9.1 -5.4,8.25 V 7.85 7.7 L -5.45,7.15 -5.5,6.9 V 6.65 6.5 M 11.6,21.15 11.85,22 q 0.3,0.55 0.95,0.55 0.8,0 1.15,-0.8 l 0.2,-0.7 q 0,-1.2 -1.3,-1.25 -1.25,-0.1 -1.25,1.35 m -44.75,5.45 -1,-0.05 v -0.5 l 67.95,0.1 0.4,-0.05 v 0.45 l -1,0.05 H -33.15 M -13,6.65 q 0.95,0 1.25,-1.75 0,-1.35 -1.2,-1.35 -1.25,0 -1.25,1.6 l 0.1,0.75 q 0.25,0.75 1.1,0.75 m -7.1,8.3 q 0.6,-0.8 0.6,-1.7 0,-2.25 -2.5,-2.25 -1.65,0 -2.15,1.05 -0.35,0.55 -0.35,1.75 l 0.3,1.1 q 0.6,1.05 2.25,1.05 1.15,0 1.85,-1 m 3.2,-2.4 -0.4,3.1 q -1.1,2.85 -4.85,2.85 -3.6,0 -4.85,-1.6 -0.7,-0.9 -0.7,-2.75 0,-6.3 5.4,-6.4 2.15,-0.05 3.7,1.25 1.7,1.4 1.7,3.55 m 5.35,8.6 q 0,-1.45 -1.25,-1.35 -1.3,0.05 -1.3,1.25 l 0.2,0.7 q 0.35,0.8 1.15,0.8 0.65,0 0.95,-0.55 l 0.25,-0.85 m -19.2,0.6 q 0,-1.25 -1.25,-1.35 -1.25,-0.15 -1.25,1.3 l 0.15,0.7 q 0.3,0.65 1.1,0.65 1.25,0 1.25,-1.3 m 0.9,-15.6 0.3,-0.8 q 0,-1.55 -1.4,-1.6 Q -32.3,3.7 -32.3,5.1 l 0.15,0.75 q 0.4,0.8 1.3,0.8 0.6,0 1,-0.5"
         fill="#bdbdbd"
         fill-rule="evenodd"
         stroke="none"
         id="path8" />
      <path
         d="m -36.2,-17.7 q 0.2,-0.4 0.9,-0.6 l -0.1,0.25 -0.25,0.4 -0.55,-0.05 m 70.35,1.8 -0.35,-0.05 h -67.9 l -0.1,-1.15 2.55,0.1 H 31.7 l 2.55,-0.1 -0.1,1.2 M 21.55,-5.55 Q 21.15,-5.8 21.15,-6.1 H -21.1 l -0.2,0.4 h -1.1 l -0.65,-0.35 q -0.5,-0.05 -0.7,0.35 h -2.2 l -0.4,-0.1 -5.4,-0.1 -0.2,0.15 h -0.1 -2.3 v -0.5 l -0.05,-0.6 h 68.85 l -0.05,0.6 V -5.5 H 34.3 L 21.55,-5.55 M 6.5,2.65 Q 6.35,2.1 6.05,2.45 L 5.8,2.3 H -6 L -6.25,2.45 -6.65,2.5 -7.45,2.35 -7.85,2.15 -7.95,1.5 -7.8,1.4 H 8 L 7.9,2.65 H 6.5 M -6.95,6.8 v 0.75 l -0.2,-0.35 0.2,-0.4"
         fill="#8e8e8e"
         fill-rule="evenodd"
         stroke="none"
         id="path9" />
      <path
         d="m 34.15,-15.9 v 0.35 0.4 l -1.1,-0.1 H -33 l -1.1,0.1 v -0.4 -0.4 h 67.9 l 0.35,0.05 m -55.45,10.2 -0.25,0.2 0.25,0.25 v 0.1 1.05 1.75 l 0.55,0.15 0.2,-0.05 1.65,0.2 h 37.85 l 1.65,-0.2 0.2,0.05 0.55,-0.15 v -1.75 -0.15 -0.9 -0.1 L 21.6,-5.5 21.55,-5.55 34.3,-5.5 h 0.1 v 4.1 L 29,-1.6 h -57.95 l -5.4,0.2 v -4.35 h 2.3 v 0.05 l -0.3,0.35 0.6,0.6 h 5.85 l 0.6,-0.45 q -0.25,-0.4 -0.65,-0.5 h 2.2 q -0.35,0.45 -0.35,1.55 v 0.85 q 0.2,1 1.05,1 1.05,0 1.05,-1.8 0,-1.15 -0.4,-1.6 h 1.1 m 50.3,5.35 5.4,-0.1 v 0.6 L 34,0.2 h -67.95 l -0.4,-0.05 v -0.6 l 5.4,0.1 H 29 M 22.4,7.2 q -2.1,-0.1 -3.6,1.15 -1.65,1.4 -1.65,3.85 0,6.3 6.85,6.3 3.65,0 3.65,-5.1 Q 27.65,10.55 26,8.85 24.55,7.3 22.4,7.2 M 27.15,8 q 2.2,2.5 2.2,7.1 0,1.45 -1.15,3.15 -1.6,2.3 -4.1,2.25 h -3.7 q -3.1,-1.1 -4.25,-3.35 -0.7,-1.45 -0.7,-3.8 0,-3.4 2.2,-5.55 2,-2 4.75,-2.05 2.85,0 4.75,2.25 M -6.65,2.5 -6.9,4.15 -6.95,6.8 l -0.2,0.4 0.2,0.35 V 8.6 l 0.3,1.5 0.05,0.1 v 0.05 l 0.35,0.3 q 0.25,0 0.45,-0.2 l 2.3,0.1 2.7,0.1 h 0.6 0.75 l 2.7,-0.1 2.3,-0.1 0.5,0.2 0.35,-0.3 V 10.2 L 6.45,10.1 6.75,8.6 V 6.85 L 6.7,4.15 6.5,2.65 H 7.9 V 3.3 L 7.95,21.8 8,22.1 7.8,22.15 H -7.75 L -7.95,22.1 -7.9,21.8 -7.85,3.3 V 2.15 l 0.4,0.2 0.8,0.15 m 0.2,13.9 q -0.4,0.15 -0.4,0.45 l 0.05,0.2 -0.1,0.55 -0.05,0.65 v 1.95 l 0.3,0.9 0.05,0.05 0.35,0.2 h 0.05 l 0.4,-0.1 h 0.55 l 0.65,0.1 H -0.2 0.55 5.4 L 5.75,21.3 6,21.35 h 0.1 l 0.3,-0.2 0.05,-0.05 0.3,-0.9 V 18.45 L 6.7,17.6 6.6,17.1 6.35,16.6 Q 6.15,16.3 5.75,16.35 L -3.7,16.3 -6.45,16.4 m 1.6,-5.1 Q -6.5,11.1 -6.5,11.85 l 0.6,0.55 10.45,-0.05 q 1.8,0.15 1.8,-0.45 L 6.3,11.6 6.2,11.45 4.55,11.35 -4.85,11.3 m -26.95,-15.2 -0.5,0.5 0.1,0.45 5.4,0.15 q 1.2,0 1.2,-0.6 l -0.25,-0.45 q -0.4,-0.4 -1.4,-0.25 l -4.55,0.2 m 14.9,16.45 q 0,-2.15 -1.7,-3.55 -1.55,-1.3 -3.7,-1.25 -5.4,0.1 -5.4,6.4 0,1.85 0.7,2.75 1.25,1.6 4.85,1.6 3.75,0 4.85,-2.85 l 0.4,-3.1 m 1.5,0.8 q 0,2.35 -0.7,3.8 -1.15,2.25 -4.25,3.35 h -3.7 q -2.5,0.05 -4.1,-2.25 -1.15,-1.7 -1.15,-3.15 0,-4.6 2.2,-7.1 1.9,-2.25 4.75,-2.25 2.75,0.05 4.75,2.05 2.2,2.15 2.2,5.55"
         fill="#797979"
         fill-rule="evenodd"
         stroke="none"
         id="path10" />
      <path
         d="M 9.75,2.65 V 1.4 L 34,1.3 h 0.4 V 3 l -0.6,0.1 h -8 -0.1 l 0.1,0.05 q 3.05,1.65 4.6,4.1 1.25,1.95 1.5,3.25 l 0.1,3 q 0,3.45 -0.95,5.4 -1.6,3.2 -6.1,4.7 H 20.9 q -3.25,0.2 -6.2,-3.75 -2.5,-3.4 -2.5,-5.4 0,-4.35 0.85,-6.35 L 13.9,6.55 Q 15.3,4.5 18,3.05 H 14.9 L 9.75,2.65 M -34.35,2.9 V 1.3 h 0.4 L -9.7,1.4 v 1.55 l -2.15,0.15 h -8.95 q 2.9,0.35 5.2,2.25 3.05,2.65 3.05,7.05 0,4.3 -0.95,6.25 -2.45,4.85 -10.35,4.85 -4.2,0 -6.5,-3.4 -1.85,-2.65 -1.85,-5.95 0,-5.3 3.05,-8.35 2.4,-2.35 5.8,-2.7 l -10,-0.05 -1,-0.15 M 21.6,3.95 q -4.65,0 -6.65,4.45 -1.15,2.55 -1.15,5 0,3.1 0.85,4.85 1.45,3.05 5.55,4.35 h 4.05 q 3.65,-0.3 5.45,-3.05 1.25,-1.85 1.25,-3.95 0,-3.6 -1.35,-6.55 -2.35,-5.1 -8,-5.1 m -36.2,14.3 q 0.85,-1.75 0.85,-4.85 0,-2.45 -1.15,-5 -2,-4.45 -6.65,-4.45 -5.65,0 -8,5.1 -1.35,2.95 -1.35,6.55 0,2.1 1.25,3.95 1.8,2.75 5.45,3.05 h 4.05 q 4.1,-1.3 5.55,-4.35"
         fill="#dbdbdb"
         fill-rule="evenodd"
         stroke="none"
         id="path11" />
      <path
         d="M 11.45,-19 H 31.7 l 3.2,0.25 q 0.5,0.2 0.55,0.7 l 0.25,0.4 1.45,0.05 1.05,0.4 q 0.5,-0.05 0.6,1.7 v 9.55 l 0.1,0.3 q 0.8,-0.1 0.85,0.7 l 0.25,3.45 0.15,0.35 q 0,0.5 -0.35,0.7 L 37,-0.1 h -0.35 v 28.95 l -3.45,0.3 H 33 l 0.05,0.25 -0.2,0.6 q -0.65,0.55 -2.8,0.55 L 28.4,30.3 Q 27.95,30.1 27.95,29.45 L 28,29.15 h -55.95 l 0.05,0.3 q 0,0.65 -0.45,0.85 L -30,30.55 q -2.15,0 -2.8,-0.55 l -0.2,-0.6 0.05,-0.25 h -0.2 l -3.45,-0.3 V -0.1 h -0.35 l -2.8,-0.35 q -0.35,-0.2 -0.35,-0.7 l 0.15,-0.35 0.25,-3.45 q 0.05,-0.8 0.85,-0.7 l 0.1,-0.3 v -9.55 q 0.1,-1.75 0.6,-1.7 l 1.05,-0.4 0.9,-0.1 0.55,0.05 0.25,-0.4 0.1,-0.25 0.45,-0.45 3.2,-0.25 h 38.3 z"
         fill="none"
         stroke="#6b6b6b"
         stroke-linecap="round"
         stroke-linejoin="round"
         stroke-width="2"
         id="path12" />
    </g>
    <g
       id="sprite1"
       transform="translate(5.4,4)">
      <use
         ffdec:characterId="43"
         height="8"
         transform="translate(-5.4,-4)"
         width="10.8"
         xlink:href="#shape1"
         id="use12" />
    </g>
    <g
       id="shape1"
       transform="translate(5.4,4)">
      <path
         d="m 2.9,-0.35 q 0,-1.25 1.25,-1.25 1.25,0 1.25,1.2 0,1.3 -1.25,1.3 Q 3.6,0.9 3.25,0.5 2.9,0.15 2.9,-0.35 m 0.35,-2.3 q 0,0.55 -0.35,0.9 -0.4,0.45 -1,0.45 -1.35,0 -1.35,-1.4 0,-1.3 1.35,-1.3 1.35,0 1.35,1.35 m -3.1,1.9 h 0.2 q 2.6,0.1 2.6,2.8 l -0.3,1 Q 2.05,4 0.45,4 H 0.35 0.15 0.1 -0.45 q -1.6,0 -2.2,-0.95 l -0.3,-1 q 0,-2.8 2.8,-2.8 h 0.3 M -1.55,-4 q 1.35,0 1.35,1.35 0,0.55 -0.4,0.9 -0.4,0.45 -0.95,0.45 -1.4,0 -1.4,-1.4 0,-1.3 1.4,-1.3 m -2.6,2.4 q 1.25,0 1.25,1.25 0,0.5 -0.35,0.85 -0.35,0.4 -0.9,0.4 -1.25,0 -1.25,-1.3 0,-1.2 1.25,-1.2"
         fill="#9b9b9b"
         fill-rule="evenodd"
         stroke="none"
         id="path13" />
    </g>
    <g
       id="sprite2"
       transform="translate(1.3,1.15)">
      <use
         ffdec:characterId="695"
         height="2.3"
         transform="translate(-1.3,-1.15)"
         width="2.55"
         xlink:href="#shape2"
         id="use13" />
    </g>
    <g
       id="shape2"
       transform="translate(1.3,1.15)">
      <path
         d="m 1.25,-0.3 v 0.25 q 0,1.2 -1.3,1.2 L -0.45,1.1 Q -1,1 -1.2,0.55 l -0.05,-0.5 -0.05,-0.1 0.05,-0.25 0.2,-0.55 q 0.3,-0.4 1.05,-0.3 l 0.95,0.35 0.3,0.5"
         fill="#ffffff"
         fill-rule="evenodd"
         stroke="none"
         id="path14" />
    </g>
    <g
       id="sprite3"
       transform="translate(6.3,0.65)">
      <use
         ffdec:characterId="698"
         height="1.25"
         transform="translate(-6.3,-0.65)"
         width="12.85"
         xlink:href="#shape3"
         id="use14" />
    </g>
    <g
       id="shape3"
       transform="translate(6.3,0.65)">
      <path
         d="M -3.65,-0.65 H 6.3 L 6.55,-0.6 V 0.55 L 6.3,0.6 h -9.95 v -1.25"
         fill="#6b6b6b"
         fill-rule="evenodd"
         stroke="none"
         id="path15" />
      <path
         d="m -3.65,0.6 h -1.6 v -1.25 h 1.6 V 0.6"
         fill="#999999"
         fill-rule="evenodd"
         stroke="none"
         id="path16" />
      <path
         d="m -5.25,0.6 h -1 L -6.3,0.55 v -1.2 h 1.05 V 0.6"
         fill="#cccccc"
         fill-rule="evenodd"
         stroke="none"
         id="path17" />
    </g>
    <g
       id="sprite4"
       transform="translate(1.3,1.15)">
      <use
         ffdec:characterId="696"
         height="2.3"
         transform="translate(-1.3,-1.15)"
         width="2.55"
         xlink:href="#shape4"
         id="use17" />
    </g>
    <g
       id="shape4"
       transform="translate(1.3,1.15)">
      <path
         d="m 1.25,-0.05 q 0,1.2 -1.3,1.2 L -0.45,1.1 Q -1,1 -1.2,0.55 l -0.05,-0.5 -0.05,-0.1 0.05,-0.25 0.2,-0.55 q 0.3,-0.4 1.05,-0.3 l 0.95,0.35 0.3,0.5 v 0.25"
         fill="#6b6b6b"
         fill-rule="evenodd"
         stroke="none"
         id="path18" />
    </g>
  </defs>
</svg>
