<?xml version="1.0" encoding="UTF-8" standalone="no"?>
<svg
   ffdec:objectType="frame"
   height="25.85"
   width="15"
   version="1.1"
   id="svg6"
   sodipodi:docname="1.svg"
   xmlns:inkscape="http://www.inkscape.org/namespaces/inkscape"
   xmlns:sodipodi="http://sodipodi.sourceforge.net/DTD/sodipodi-0.dtd"
   xmlns:xlink="http://www.w3.org/1999/xlink"
   xmlns="http://www.w3.org/2000/svg"
   xmlns:svg="http://www.w3.org/2000/svg"
   xmlns:ffdec="https://www.free-decompiler.com/flash">
  <sodipodi:namedview
     id="namedview6"
     pagecolor="#ffffff"
     bordercolor="#000000"
     borderopacity="0.25"
     inkscape:showpageshadow="2"
     inkscape:pageopacity="0.0"
     inkscape:pagecheckerboard="0"
     inkscape:deskcolor="#d1d1d1"
     fit-margin-top="5"
     fit-margin-left="5"
     fit-margin-right="5"
     fit-margin-bottom="5" />
  <g
     transform="translate(7.5,12.95)"
     id="g1">
    <use
       ffdec:characterId="4149"
       height="25.85"
       transform="translate(-7.5,-12.95)"
       width="15"
       xlink:href="#shape0"
       id="use1" />
  </g>
  <defs
     id="defs6">
    <g
       id="shape0"
       transform="translate(7.5,12.95)">
      <path
         d="m 5.9,-3 v 1.9 L -4.25,-1.15 -5.9,-1.1 V -3 H 5.9"
         fill="#9c9c9c"
         fill-rule="evenodd"
         stroke="none"
         id="path1" />
      <path
         d="m 0.3,-8.35 0.05,0.3 q -1.05,0.1 -1.45,0.4 L -1.2,-8 0.3,-8.35 m 3.15,-1 V -9.6 h 1.5 v 0.3 l -1,-0.1 -0.5,0.05 M 0.4,-7.8 0.5,-7.35 -0.4,-7.3 -1,-7.1 -1.05,-7.4 h 0.15 0.1 l 1.2,-0.4 m 4.55,-1.1 v 0.35 l -0.9,-0.15 -0.5,0.05 h -0.1 v -0.2 h 1.3 L 4.95,-8.9 M -4.5,-9.5 h 0.25 l 0.05,0.65 V -8.8 H -4.3 -4.35 -4.5 v -0.1 -0.6 m 0.1,2.9 h 0.1 l -0.05,0.8 0.1,1.15 H -4.6 l 0.1,-1.3 0.1,-0.65"
         fill="#ffffff"
         fill-rule="evenodd"
         stroke="none"
         id="path2" />
      <path
         d="m 5.85,7.7 v 2.8 L 5.5,10.6 h -11 L -5.85,10.5 V 7.7 l -0.05,-8 H 5.9 l -0.05,8 m -10.5,-14.8 -0.1,0.05 -0.3,-0.05 -0.2,2.45 H -5.4 l 0.05,-0.6 v -0.3 l 0.2,-2 h 1.55 l 0.15,0.15 0.05,1.85 -0.05,0.75 v 0.15 h -0.4 l 0.1,-1 V -5.8 L -3.8,-6.75 v -0.1 L -3.85,-7.1 H -4.3 -4.65"
         fill="#8c8c8c"
         fill-rule="evenodd"
         stroke="none"
         id="path3" />
      <path
         d="M 3.45,-11.65 H 3.7 l 1.25,-0.05 v 1.35 H 4.65 4.6 l -1.15,0.1 v -1.4 m -4.85,1.6 1.2,-0.35 0.3,1.3 -0.35,0.1 -1,0.3 -0.1,0.05 -0.3,-1.35 0.25,-0.05"
         fill="#9d8c8c"
         fill-rule="evenodd"
         stroke="none"
         id="path4" />
      <path
         d="m 0.55,-6.65 0.1,-0.1 0.5,2.1 H -0.4 l -0.4,-1.7 1.35,-0.3 m 4.3,-1.25 0.1,-0.05 v 3.3 H 3.55 V -4.8 L 3.5,-5.75 V -7.9 h 1.35"
         fill="#c7c5ae"
         fill-rule="evenodd"
         stroke="none"
         id="path5" />
      <path
         d="m 5.7,-12.7 q 0.4,0.05 0.4,0.6 v 0.15 L 6.05,-12 v 7.35 H 6.5 L 6.95,-4.5 Q 7.3,-4.35 7.3,-3.85 L 7.4,-3.6 7.45,6.7 Q 7.65,11.05 7.05,12 6.9,12.35 6.4,12.4 H 5.5 L 5.45,12.45 4.9,12.9 H -4.9 L -5.45,12.45 -5.5,12.4 H -6.4 Q -6.9,12.35 -7.05,12 -7.65,11.05 -7.45,6.7 l 0.05,-10.3 0.1,-0.25 q 0,-0.5 0.35,-0.65 l 0.2,-0.1 v -1.15 l 0.05,-1.6 q 0.3,-1 1.3,-1.3 l 0.15,-1.25 v -0.05 q 0,-0.45 0.95,-0.5 0.9,-0.05 0.9,0.5 l -0.05,0.35 0.05,0.6 0.05,0.2 q 0.45,0.1 0.75,0.4 l -0.55,-2.35 q 0.3,-0.35 1.5,-0.65 l 1.95,-0.15 q 0.4,-0.05 0.55,0.5 v 0.15 l -0.05,-0.05 1.4,6.15 -0.05,-7.9 1.6,-0.25 1.95,0.25 m -2.25,1.05 v 1.4 l 1.15,-0.1 h 0.05 0.3 V -11.7 L 3.7,-11.65 H 3.45 m 0,2.3 0.5,-0.05 1,0.1 v -0.3 h -1.5 v 0.25 m -3.15,1 -1.5,0.35 0.1,0.35 q 0.4,-0.3 1.45,-0.4 L 0.3,-8.35 m 0.25,1.7 -1.35,0.3 0.4,1.7 h 1.55 l -0.5,-2.1 -0.1,0.1 M 0.4,-7.8 -0.8,-7.4 H -0.9 -1.05 L -1,-7.1 -0.4,-7.3 0.5,-7.35 0.4,-7.8 M 4.85,-7.9 H 3.5 v 2.15 l 0.05,0.95 v 0.15 h 1.4 v -3.3 l -0.1,0.05 m 0.1,-1 -0.2,0.05 h -1.3 v 0.2 h 0.1 l 0.5,-0.05 0.9,0.15 V -8.9 M 5.9,-3 H -5.9 v 1.9 L -4.25,-1.15 5.9,-1.1 V -3 M 5.85,7.7 5.9,-0.3 H -5.9 l 0.05,8 v 2.8 l 0.35,0.1 h 11 L 5.85,10.5 V 7.7 m -7.25,-17.75 -0.25,0.05 0.3,1.35 0.1,-0.05 1,-0.3 0.35,-0.1 -0.3,-1.3 -1.2,0.35 m -3.1,0.55 v 0.6 0.1 h 0.15 0.05 0.1 V -8.85 L -4.25,-9.5 H -4.5 m -0.15,2.4 h 0.35 0.45 l 0.05,0.25 v 0.1 l 0.05,0.95 v 0.15 l -0.1,1 h 0.4 V -4.8 L -3.4,-5.55 -3.45,-7.4 -3.6,-7.55 h -1.55 l -0.2,2 v 0.3 l -0.05,0.6 h 0.15 l 0.2,-2.45 0.3,0.05 0.1,-0.05 m 0.25,0.5 -0.1,0.65 -0.1,1.3 h 0.35 l -0.1,-1.15 0.05,-0.8 h -0.1 m 2.25,1.95 h 0.45 l -0.4,-1.6 v 1.15 l -0.05,0.45"
         fill="#6b6b6b"
         fill-rule="evenodd"
         stroke="none"
         id="path6" />
    </g>
  </defs>
</svg>
