<?xml version="1.0" encoding="UTF-8" standalone="no"?>
<svg
   ffdec:objectType="frame"
   height="153.85001"
   width="91.199997"
   version="1.1"
   id="svg66"
   sodipodi:docname="2.svg"
   xmlns:inkscape="http://www.inkscape.org/namespaces/inkscape"
   xmlns:sodipodi="http://sodipodi.sourceforge.net/DTD/sodipodi-0.dtd"
   xmlns:xlink="http://www.w3.org/1999/xlink"
   xmlns="http://www.w3.org/2000/svg"
   xmlns:svg="http://www.w3.org/2000/svg"
   xmlns:ffdec="https://www.free-decompiler.com/flash">
  <sodipodi:namedview
     id="namedview66"
     pagecolor="#ffffff"
     bordercolor="#000000"
     borderopacity="0.25"
     inkscape:showpageshadow="2"
     inkscape:pageopacity="0.0"
     inkscape:pagecheckerboard="0"
     inkscape:deskcolor="#d1d1d1"
     fit-margin-top="5"
     fit-margin-left="5"
     fit-margin-right="5"
     fit-margin-bottom="5" />
  <g
     transform="translate(44.75,73.05)"
     id="g37">
    <use
       ffdec:characterId="36"
       height="22.75"
       transform="matrix(-1,0,0,1,-29.35,-51.25)"
       width="11.6"
       xlink:href="#sprite0"
       id="use1" />
    <use
       ffdec:characterId="2"
       height="39"
       transform="matrix(-0.2054,-0.7667,-0.7667,0.2054,7.55,72)"
       width="38.299999"
       xlink:href="#sprite2"
       id="use2" />
    <use
       ffdec:characterId="4"
       height="23.950001"
       transform="matrix(1.1646,-0.1469,0,1.243,1.15,-24.45)"
       width="22.200001"
       xlink:href="#sprite3"
       id="use3" />
    <use
       ffdec:characterId="4"
       height="23.950001"
       transform="matrix(-1.1646,-0.1469,0,1.243,-4.65,-24.45)"
       width="22.200001"
       xlink:href="#sprite3"
       id="use4" />
    <use
       ffdec:characterId="38"
       height="28.200001"
       transform="translate(32.7,-52.55)"
       width="10.1"
       xlink:href="#sprite4"
       id="use5" />
    <use
       ffdec:characterId="40"
       height="25.299999"
       transform="matrix(-1,0,0,1,28.95,-73.05)"
       width="9.3000002"
       xlink:href="#sprite5"
       id="use6" />
    <use
       ffdec:characterId="14"
       height="10.25"
       transform="matrix(-0.5179,-0.299,-0.299,0.5179,16.65,-14.5)"
       width="25.700001"
       xlink:href="#sprite6"
       id="use7" />
    <use
       ffdec:characterId="14"
       height="10.25"
       transform="matrix(-0.5777,0.1548,0.1548,0.5777,20.5,-29.15)"
       width="25.700001"
       xlink:href="#sprite6"
       id="use8" />
    <use
       ffdec:characterId="16"
       height="20.65"
       transform="matrix(-0.2991,0.5179,0.5179,0.299,23.6,-34.9)"
       width="15.85"
       xlink:href="#sprite7"
       id="use9" />
    <use
       ffdec:characterId="14"
       height="10.25"
       transform="matrix(-0.5179,0.299,-0.299,-0.5179,21.75,-33.7)"
       width="25.700001"
       xlink:href="#sprite6"
       id="use10" />
    <use
       ffdec:characterId="14"
       height="10.25"
       transform="matrix(-0.299,-0.5179,-0.5179,0.299,12.25,-2.5)"
       width="25.700001"
       xlink:href="#sprite6"
       id="use11" />
    <use
       ffdec:characterId="16"
       height="20.65"
       transform="matrix(-0.2878,-0.4984,-0.5003,0.2889,14.45,5.15)"
       width="15.85"
       xlink:href="#sprite7"
       id="use12" />
    <use
       ffdec:characterId="16"
       height="20.65"
       transform="matrix(0.299,-0.5179,-0.5179,-0.299,12.65,-4.2)"
       width="15.85"
       xlink:href="#sprite7"
       id="use13" />
    <use
       ffdec:characterId="16"
       height="20.65"
       transform="matrix(-0.598,0,0,-0.598,27.55,-34.2)"
       width="15.85"
       xlink:href="#sprite7"
       id="use14" />
    <use
       ffdec:characterId="18"
       height="10.95"
       transform="matrix(-1,0,0,1,32.7,-53.1)"
       width="17.6"
       xlink:href="#sprite8"
       id="use15" />
    <use
       ffdec:characterId="18"
       height="10.95"
       transform="matrix(-1,0,0,1,46.45,-32.2)"
       width="17.6"
       xlink:href="#sprite8"
       id="use16" />
    <use
       ffdec:characterId="42"
       height="17.15"
       transform="matrix(-1,0,0,1,-16.5,-68.05)"
       width="10.65"
       xlink:href="#sprite9"
       id="use17" />
    <use
       ffdec:characterId="22"
       height="52.75"
       transform="matrix(-1.1312,0,0,0.9402,4.8,-11.8)"
       width="7.5999999"
       xlink:href="#sprite10"
       id="use18" />
    <use
       ffdec:characterId="14"
       height="10.25"
       transform="matrix(0.5179,-0.299,0.299,0.5179,-14.95,-14.5)"
       width="25.700001"
       xlink:href="#sprite6"
       id="use19" />
    <use
       ffdec:characterId="14"
       height="10.25"
       transform="matrix(0.5777,0.1548,-0.1548,0.5777,-18.8,-29.15)"
       width="25.700001"
       xlink:href="#sprite6"
       id="use20" />
    <use
       ffdec:characterId="16"
       height="20.65"
       transform="matrix(0.2991,0.5179,-0.5179,0.299,-21.9,-34.9)"
       width="15.85"
       xlink:href="#sprite7"
       id="use21" />
    <use
       ffdec:characterId="14"
       height="10.25"
       transform="matrix(0.5179,0.299,0.299,-0.5179,-20.05,-33.7)"
       width="25.700001"
       xlink:href="#sprite6"
       id="use22" />
    <use
       ffdec:characterId="14"
       height="10.25"
       transform="matrix(0.299,-0.5179,0.5179,0.299,-10.55,-2.5)"
       width="25.700001"
       xlink:href="#sprite6"
       id="use23" />
    <use
       ffdec:characterId="16"
       height="20.65"
       transform="matrix(0.2878,-0.4984,0.5003,0.2889,-12.75,5.15)"
       width="15.85"
       xlink:href="#sprite7"
       id="use24" />
    <use
       ffdec:characterId="16"
       height="20.65"
       transform="matrix(-0.299,-0.5179,0.5179,-0.299,-10.95,-4.2)"
       width="15.85"
       xlink:href="#sprite7"
       id="use25" />
    <use
       ffdec:characterId="24"
       height="24.9"
       transform="matrix(-0.7662,0,0,0.7662,11.45,-34.85)"
       width="27.6"
       xlink:href="#sprite11"
       id="use26" />
    <use
       ffdec:characterId="28"
       height="16.85"
       transform="matrix(-0.6225,0,0,0.6225,6.4,-24.65)"
       width="17.799999"
       xlink:href="#sprite12"
       id="use27" />
    <use
       ffdec:characterId="28"
       height="16.85"
       transform="matrix(-0.8288,0,0,0.8288,8.25,-21.65)"
       width="17.799999"
       xlink:href="#sprite12"
       id="use28" />
    <use
       ffdec:characterId="16"
       height="20.65"
       transform="matrix(0.598,0,0,-0.598,-25.85,-34.2)"
       width="15.85"
       xlink:href="#sprite7"
       id="use29" />
    <use
       ffdec:characterId="44"
       height="8"
       transform="matrix(-0.8889,0,0,0.8889,5.65,-30.5555)"
       width="10.8"
       xlink:href="#sprite13"
       id="use30" />
    <use
       ffdec:characterId="28"
       height="16.85"
       transform="matrix(-0.6225,0,0,0.6225,6.4,-24.65)"
       width="17.799999"
       xlink:href="#sprite12"
       id="use31" />
    <use
       ffdec:characterId="28"
       height="16.85"
       transform="matrix(-0.8288,0,0,0.8288,8.25,-20.55)"
       width="17.799999"
       xlink:href="#sprite12"
       id="use32" />
    <use
       ffdec:characterId="18"
       height="10.95"
       transform="translate(-31,-53.1)"
       width="17.6"
       xlink:href="#sprite8"
       id="use33" />
    <use
       ffdec:characterId="30"
       height="53.5"
       transform="matrix(-0.7533,0,0,0.7533,7.55,31.3)"
       width="18.700001"
       xlink:href="#sprite14"
       id="use34" />
    <use
       ffdec:characterId="32"
       height="12.8"
       transform="matrix(-1,0,0,1,14.05,68)"
       width="27.049999"
       xlink:href="#sprite15"
       id="use35" />
    <use
       ffdec:characterId="36"
       height="22.75"
       transform="matrix(-1,0,0,1,6.75,-54.85)"
       width="11.6"
       xlink:href="#sprite0"
       id="use36" />
    <use
       ffdec:characterId="18"
       height="10.95"
       transform="translate(-44.75,-32.2)"
       width="17.6"
       xlink:href="#sprite8"
       id="use37" />
  </g>
  <defs
     id="defs66">
    <g
       id="sprite0"
       transform="translate(0,1.2)">
      <use
         ffdec:characterId="35"
         height="16.799999"
         transform="translate(0,4.75)"
         width="11.6"
         xlink:href="#shape0"
         id="use38" />
      <use
         ffdec:characterId="9"
         height="8.3000002"
         transform="translate(4.85,-1.2)"
         width="3.45"
         xlink:href="#sprite1"
         id="use39" />
    </g>
    <g
       id="shape0"
       transform="translate(0,-4.75)">
      <path
         d="m 11.15,7.25 v 13.7 L 11,21.05 q -0.6,0.4 -2.25,0.4 L 4.55,21.3 3.55,21.55 3,21.5 2,21.55 q -1.35,0 -1.8,-0.95 L 0,19.65 Q 0,19 0.6,17.7 1.1,16.55 2.1,14.95 L 2,12.5 2.2,12.4 v -0.2 q 0,-0.95 0.55,-1.35 L 2.7,10.65 Q 2.7,9.2 6.35,7.7 V 6.6 Q 6.5,4.85 7.6,4.75 l 0.1,0.3 Q 7.1,5.85 7.2,6.7 l 0.1,0.6 2.45,-0.85 0.3,-0.1 Q 10.5,6.05 10.9,5.95 L 11.15,5.6 v 0.3 l 0.2,-0.05 0.25,0.45 -0.2,0.2 -0.25,0.75 m -6.6,5.1 -0.2,3.6 0.05,0.3 -0.25,-0.3 -0.1,-0.1 -0.9,1.35 Q 2,18.55 1.9,19.1 v 0.1 q 0,0.35 1.2,0.6 L 4.15,20.15 4.4,19.1 4.45,18.15 q 0.85,-1.3 1.1,-0.75 l 0.05,1.25 2.95,-0.1 h 0.7 L 8.85,13.3 v -3.1 l -0.7,0.45 -0.2,0.6 0.45,3.8 -0.05,1 q -0.2,0.6 -1,1 H 5.95 Q 5.35,16.75 5.2,16.3 l -0.05,-0.55 0.1,-1.2 0.15,-0.15 0.45,1 Q 6,16.05 6.3,16.05 l 1.05,-0.15 -0.4,-3.7 0.1,-0.95 -1.25,0.6 -0.15,0.95 -0.3,0.25 -0.3,-0.9 -0.5,0.2 M 6.4,9.1 5.15,10.25 6.35,10.2 7.75,8.5 7.45,8.65 H 7.4 L 7,8.85 6.4,9.1"
         fill="#6b6b6b"
         fill-rule="evenodd"
         stroke="none"
         id="path39" />
      <path
         d="M 6.4,9.1 7,8.85 7.4,8.65 H 7.45 L 7.75,8.5 6.35,10.2 5.15,10.25 6.4,9.1 m -1.85,3.25 0.5,-0.2 0.3,0.9 0.3,-0.25 0.15,-0.95 1.25,-0.6 -0.1,0.95 0.4,3.7 -1.05,0.15 Q 6,16.05 5.85,15.4 l -0.45,-1 -0.15,0.15 -0.1,1.2 0.05,0.55 q 0.15,0.45 0.75,0.75 h 1.4 q 0.8,-0.4 1,-1 l 0.05,-1 -0.45,-3.8 0.2,-0.6 0.7,-0.45 v 3.1 l 0.4,5.25 H 8.55 L 5.6,18.65 5.55,17.4 Q 5.3,16.85 4.45,18.15 L 4.4,19.1 4.15,20.15 3.1,19.8 Q 1.9,19.55 1.9,19.2 V 19.1 Q 2,18.55 3.15,17.2 l 0.9,-1.35 0.1,0.1 0.25,0.3 -0.05,-0.3 0.2,-3.6"
         fill="#747474"
         fill-rule="evenodd"
         stroke="none"
         id="path40" />
    </g>
    <g
       id="sprite1"
       transform="translate(0.7,1.2)">
      <use
         ffdec:characterId="6"
         height="6.3499999"
         width="2.6500001"
         xlink:href="#shape1"
         id="use40" />
    </g>
    <g
       id="shape1">
      <path
         d="m 1.7,2.65 0.15,0.1 V 2.65 H 1.7 M 2,0 2.6,2.3 2.65,3.9 2.55,5.35 q -0.25,1 -1.2,1 -0.85,0 -1.2,-0.95 L 0,4.45 Q 0,3.4 0.7,1.75 1.45,0.05 2,0 M 1.15,4.25 V 4.1 L 1.05,4.45 1.2,4.85 1.15,4.25"
         fill="#ffffff"
         fill-opacity="0.74902"
         fill-rule="evenodd"
         stroke="none"
         id="path41" />
    </g>
    <g
       id="sprite2">
      <use
         ffdec:characterId="1"
         height="39"
         width="38.299999"
         xlink:href="#shape2"
         id="use41" />
    </g>
    <g
       id="shape2">
      <path
         d="m 31.4,9.65 -0.35,1 q -0.5,1.85 -0.5,3.2 0,5.1 0.3,7.25 0.5,3.65 1.8,5.7 l 5.65,2.7 -0.3,0.1 -0.55,0.15 q -1.5,0 -4.5,-1.25 L 32.1,28.2 29.85,27.15 q -0.3,0.25 -2.45,0.95 -2.25,0.8 -2.95,1.4 l -1.45,1.55 -0.85,1 1.4,6.3 -0.1,0.65 h -0.2 Q 22.4,37.1 21.1,32.85 L 17.5,31.1 q -4.7,-1.8 -10.4,-2 l -0.15,0.3 -0.3,-0.15 -6.5,4 Q 0,33.45 0,32.9 3.65,30.3 6,28.65 v -0.1 Q 6,28.3 6.5,27.9 l 1.25,-3 q 1.7,-3.95 2,-5.45 l 0.5,-5 Q 10.3,13 10.5,12.05 l -3.95,-6 q 1.55,0.5 3.3,2.85 l 1,1.55 0.05,-0.1 0.3,0.45 0.35,0.15 5.65,-0.45 H 17.1 L 18.65,9.4 19.2,9.05 20.5,0 h 0.25 l 0.2,1.1 -0.5,7.5 0.35,0.2 -0.35,0.35 0.9,0.75 q 1.25,1.3 3.65,1.3 l 2.1,-0.35 0.75,-0.3 q 4.25,-4 7.05,-5.9 l 0.65,0.5 -4.15,4.5 M 20.3,11 l 0.95,1.2 q 0.9,1.35 2.8,2.1 l 2.25,-2.25 h -0.35 q -3.15,0 -5.15,-1.4 L 20.3,10.2 V 11 m 6.6,3.5 0.05,0.4 -0.7,4.3 q 0,1.3 0.5,3 0.45,1.65 1.15,2.65 l 3,1.2 -0.6,-2.3 -0.45,-4.9 q 0,-5.35 0.55,-8.15 l -2.5,2.75 -1,1.05 m -1.5,1.45 -2.1,1.85 -0.1,0.25 q -0.45,0.95 -0.45,1.55 0,0.9 0.25,1.35 l 1,1.45 -0.1,0.1 2.4,1.8 0.45,0.2 Q 26.1,23.1 25.7,20.7 25.35,18.5 25.35,16.4 l 0.05,-0.45 m -3.85,0.95 1.75,-1.85 q -1.85,-0.35 -2.95,-1.8 l -0.25,-0.4 -0.35,4.2 1.6,-0.1 0.2,-0.05 m 0.45,2 -2.15,1.55 q 0.95,-0.15 2.25,0.7 L 22,19.65 V 18.9 m -4.05,-8.25 -0.6,0.35 -0.6,0.2 q -1.85,0.65 -4.95,0.7 l 0.55,0.9 q 0.75,1.4 2.75,3.55 h 0.1 q 1.4,0 2.35,-0.9 0.6,-0.55 0.95,-0.75 l 0.45,-3.75 0.1,-0.5 -1.1,0.2 m -1.75,6.9 1.85,1.75 0.35,-3.55 -0.4,0.4 q -1,0.8 -2.15,1 l 0.35,0.4 m -4.5,-2.7 q -0.1,3.75 -1.05,6.85 -0.7,2.35 -2.2,5.15 l 1.55,-1.2 2.5,-2 0.9,-2.25 q 0,-1.15 -0.95,-4.1 L 11.7,14.85 m 1.55,1.8 q 0.6,2.45 0.6,4.3 L 13.6,22.7 v 0.1 l 0.55,-0.45 q 1.55,-1.15 3,-1.85 -1.55,-1.05 -4.1,-4.6 l 0.2,0.75 m 6.7,6.05 0.65,2.75 0.55,-0.65 1.45,-1.4 -2.75,-1.45 0.1,0.75 m -6.7,1.95 4.5,1 q 0.9,0.5 1.6,1.3 -1.35,-4.6 -1.45,-5.8 l -4.65,3.5 m 6.3,-5.7 1.05,-1.05 h -0.9 l -0.15,1.05 m 0.3,9.6 -0.1,-0.05 H 19.4 q -0.15,0.15 -0.15,-0.45 V 28 l -1.2,-1.2 Q 17.1,26.35 12.1,25.65 h -0.25 l -1.2,0.85 -2.05,1.4 q 7.35,0.8 9.55,1.95 0.5,-0.05 1.55,0.55 l 0.8,0.5 -0.55,-1.85 -0.1,-0.5 M 27.7,26.05 23.75,24 21,27.2 l 0.75,3.1 0.1,0.45 q 0.85,-1.05 2.85,-2.5 2.35,-1.7 3.85,-1.75 L 27.7,26.05"
         fill="#9a9a9a"
         fill-rule="evenodd"
         stroke="none"
         id="path42" />
    </g>
    <g
       id="sprite3">
      <use
         ffdec:characterId="3"
         height="23.950001"
         width="22.200001"
         xlink:href="#shape3"
         id="use42" />
    </g>
    <g
       id="shape3">
      <path
         d="M 22.2,1 Q 21.95,1.3 22.05,1.75 L 20.1,2.05 Q 18.7,4.2 18.7,7.45 L 18.55,8.4 21.8,9.8 V 10 l -0.45,0.15 q -2.1,0 -6.6,-1.75 -2.05,1.4 -3,3.05 -0.95,1.65 -0.95,3.85 l -0.05,0.45 1.7,2.9 L 12,19.1 10.25,16.6 10,16.7 9.55,16.2 V 16 q -4.85,0.3 -6.4,1.3 -0.3,0.15 -0.65,0.4 l -0.85,1.4 v 4.05 L 1.5,23.65 Q 1.35,23.9 0.95,23.95 L 0.3,23.3 0.25,6.15 0.3,2.85 0.4,1.75 0.15,1.5 V 1.45 L 0,0.95 Q 0,0.5 0.95,0 H 18.4 l 3.5,0.4 q -0.25,0.35 0.2,0.55 L 22.2,1 M 19.15,2.15 Q 16,3.8 13.25,5.95 L 17.65,8 17.6,7.6 q 0,-1.95 0.85,-4.05 l 0.7,-1.4 M 12,5.35 Q 14.9,3 17.2,2 h -6.35 l -1,2.2 0.35,-0.05 0.25,0.35 -0.15,0.05 1.7,0.8 m 2,2.7 -2.25,-0.9 -3.45,3.25 -0.45,0.45 2,3.35 Q 10.3,12.8 11.45,10.95 12.7,9 14,8.05 M 9.45,2 h -5.9 q 2.6,0.75 5.6,2.05 L 9.25,2.65 9.45,2 M 7.7,5.3 3.1,3 4.35,5.05 6,7.85 q 0.3,-1 1.3,-2.1 L 7.7,5.3 M 1.7,8.5 2,8.35 4.7,8.05 1.7,3.1 V 6.2 8.5 M 1.9,10 1.65,10.15 v 6 Q 3.05,13.9 6.3,10.6 L 5.4,9.15 2.85,9.35 1.9,10 M 6.6,8.75 7.15,9.75 8.1,8.8 10.5,6.6 8.5,5.7 7.7,6.75 6.6,8.75 M 3.9,15.9 Q 6.95,14.8 9.15,15 l -2.1,-3.25 q -1.9,2 -3.45,4.3 L 3.9,15.9"
         fill="#9a9a9a"
         fill-rule="evenodd"
         stroke="none"
         id="path43" />
    </g>
    <g
       id="sprite4"
       transform="translate(0,1.2)">
      <use
         ffdec:characterId="37"
         height="21.700001"
         transform="translate(0,5.3)"
         width="10.1"
         xlink:href="#shape4"
         id="use43" />
      <use
         ffdec:characterId="9"
         height="8.3000002"
         transform="translate(3.45,-1.2)"
         width="3.45"
         xlink:href="#sprite1"
         id="use44" />
    </g>
    <g
       id="shape4"
       transform="translate(5.05,8.2)">
      <path
         d="M 1,-7.2 0.85,-5.45 2,-5.15 2.55,-5.4 Q 4.1,-6.1 4.9,-6.05 l 0.1,0.1 0.05,0.35 q 0,0.3 -0.4,0.65 V 13 L 4.5,13.1 2.25,13.5 -4,12.95 Q -4.4,12.8 -4.4,12 l 0.15,-0.55 -0.1,-1.05 V 7.95 L -4.6,2 -5.05,1.2 V -0.05 L -4.7,-2.8 -4.9,-2.9 -4.95,-3.35 q 0,-1.3 1.4,-1.3 H -3.5 Q -3.1,-5 -2.6,-5 l 1.45,0.3 0.95,-0.65 0.35,-0.1 -0.2,-0.9 L 0,-7.2 q 0.1,-0.45 0.55,-1 0.45,0.25 0.45,1 m -0.65,3.85 -2.2,0.4 V -1 q 0,3.95 -0.3,9 l 0.05,2.8 4.15,-0.2 h 0.7 Q 2.45,8.7 2.35,5.35 v -1.5 h -0.1 q -1.75,0 -2.2,-1.3 L -0.1,1.1 0.25,-1.55 0.55,-3.3 0.35,-3.35 m 1.5,-0.4 -0.1,0.5 -0.25,0.05 q 0.4,1.1 0.25,1.75 L 1.25,1 1.3,1.75 q 0.2,0.5 0.95,0.5 h 0.1 L 2.3,-2.35 2.35,-3.9 1.85,-3.75"
         fill="#6b6b6b"
         fill-rule="evenodd"
         stroke="none"
         id="path44" />
      <path
         d="M 1.85,-3.75 2.35,-3.9 2.3,-2.35 2.35,2.25 H 2.25 Q 1.5,2.25 1.3,1.75 L 1.25,1 1.75,-1.45 Q 1.9,-2.1 1.5,-3.2 l 0.25,-0.05 0.1,-0.5 m -1.5,0.4 0.2,0.05 -0.3,1.75 -0.35,2.65 0.15,1.45 q 0.45,1.3 2.2,1.3 h 0.1 v 1.5 q 0.1,3.35 0.4,5.25 H 2.05 L -2.1,10.8 -2.15,8 q 0.3,-5.05 0.3,-9 v -1.95 l 2.2,-0.4"
         fill="#747474"
         fill-rule="evenodd"
         stroke="none"
         id="path45" />
    </g>
    <g
       id="sprite5">
      <use
         ffdec:characterId="39"
         height="25.299999"
         width="9.3000002"
         xlink:href="#shape5"
         id="use45" />
    </g>
    <g
       id="shape5">
      <path
         d="M 5.95,2.85 V 3 Q 8.65,3.05 9.3,3.75 V 24.8 L 9.15,24.9 6.9,25.3 0.65,24.75 Q 0.25,24.6 0.25,23.8 0.25,23.45 0.4,23.25 L 0.3,22.2 V 19.75 Q 0,14.65 0,10.75 -0.05,3.15 1.4,3.1 L 1.8,3.3 4.75,2.95 5.1,0 h 0.4 q 0.45,1.3 0.45,2.85 m -3.4,2.55 0.25,5.4 -0.3,9 0.05,2.8 4.15,-0.2 H 7.4 Q 7.1,20.5 7,17.15 L 6.95,9.45 Q 6.95,6.8 7.3,5.35 L 3.8,5.45 2.55,5.4"
         fill="#6b6b6b"
         fill-rule="evenodd"
         stroke="none"
         id="path46" />
      <path
         d="M 2.55,5.4 3.8,5.45 7.3,5.35 Q 6.95,6.8 6.95,9.45 L 7,17.15 Q 7.1,20.5 7.4,22.4 H 6.7 L 2.55,22.6 2.5,19.8 2.8,10.8 2.55,5.4"
         fill="#747474"
         fill-rule="evenodd"
         stroke="none"
         id="path47" />
    </g>
    <g
       id="sprite6">
      <use
         ffdec:characterId="13"
         height="10.25"
         width="25.700001"
         xlink:href="#shape6"
         id="use47" />
    </g>
    <g
       id="shape6">
      <path
         d="m 22.5,2.75 q 0.5,0.4 0.5,1.1 0,1.2 -1.05,1.95 -1.25,0.95 -4.2,1.5 H 11.2 Q 8.45,7.1 7.05,6.45 L 4.6,4.9 10.65,5 q 3.45,0 8.6,-1.3 L 22.5,2.75"
         fill="#727272"
         fill-rule="evenodd"
         stroke="none"
         id="path48" />
      <path
         d="m 23.95,0.4 q 0.95,0.45 1.45,1.7 0.35,0.95 0.3,2 0,2.15 -1.2,3.45 -1.75,1.9 -6.2,2.6 l -8.45,0.1 Q 0,8.25 0,3.3 0,2.15 0.5,2 L 7.8,1.75 16.05,0.95 19.9,0.45 21.55,0.1 q 1.7,-0.3 2.4,0.3 M 22.5,2.75 19.25,3.7 Q 14.1,5 10.65,5 L 4.6,4.9 7.05,6.45 Q 8.45,7.1 11.2,7.3 h 6.55 Q 20.7,6.75 21.95,5.8 23,5.05 23,3.85 23,3.15 22.5,2.75"
         fill="#6b6b6b"
         fill-rule="evenodd"
         stroke="none"
         id="path49" />
    </g>
    <g
       id="sprite7">
      <use
         ffdec:characterId="15"
         height="20.65"
         width="15.85"
         xlink:href="#shape7"
         id="use49" />
    </g>
    <g
       id="shape7">
      <path
         d="M 1.05,20.65 Q 0,20.65 0,19.9 L 3.5,16.45 Q 7.45,12.4 9.35,8.5 L 11.9,2.75 q 1.2,-3.85 2.65,-2.3 1.3,1.3 1.3,3.1 0,3.9 -6.5,10.7 -6.15,6.4 -8.3,6.4"
         fill="#6b6b6b"
         fill-rule="evenodd"
         stroke="none"
         id="path50" />
    </g>
    <g
       id="sprite8">
      <use
         ffdec:characterId="17"
         height="10.95"
         width="17.6"
         xlink:href="#shape8"
         id="use50" />
    </g>
    <g
       id="shape8">
      <path
         d="m 17.6,5.4 v 0.8 q 0,2.35 -2.65,2.35 L 14.1,8.4 14.3,9.3 q 0,1.65 -4.4,1.65 H 8.7 7.7 Q 3.3,10.95 3.3,9.3 L 3.5,8.4 2.65,8.55 Q 0,8.55 0,6.2 L 0.05,5.4 0.25,3.85 Q 1,2.1 3.45,2.55 3.55,1.4 3.95,1 4.7,0.2 7.05,0 L 8.75,0.05 10.55,0 q 2.35,0.2 3.1,1 0.4,0.4 0.5,1.55 2.45,-0.45 3.2,1.3 L 17.6,5.4 M 16.1,5.2 Q 16.25,3.9 14.95,3.9 L 14.2,4.3 Q 13.7,4.7 13.05,4.7 12.3,4.7 12.3,4.2 L 12.55,3.05 Q 12.8,1.5 10.15,1.4 V 1.5 L 8.9,1.4 7.45,1.5 V 1.4 Q 4.8,1.5 5.05,3.05 L 5.3,4.2 Q 5.3,4.7 4.55,4.7 3.9,4.7 3.4,4.3 L 2.65,3.9 Q 1.35,3.9 1.5,5.2 V 5.4 L 1.55,6.2 1.95,6.65 3.15,6.9 4,6.7 4.55,6.4 H 4.6 l 0.35,-0.15 0.1,0.2 1.4,-0.1 h 2.6 1.1 1 l 1.4,0.1 0.1,-0.2 L 13,6.4 h 0.05 l 0.55,0.3 0.85,0.2 1.2,-0.25 0.4,-0.45 0.05,-0.8 V 5.2 M 12.45,7.8 12.4,7.35 8.6,7.15 5.2,7.35 5.15,7.8 Q 5.2,8.55 6,8.7 L 7.45,8.8 V 8.7 L 8.8,8.8 10.15,8.7 V 8.8 L 11.6,8.7 q 0.8,-0.15 0.85,-0.9"
         fill="#6b6b6b"
         fill-rule="evenodd"
         stroke="none"
         id="path51" />
      <path
         d="M 12.45,7.8 Q 12.4,8.55 11.6,8.7 L 10.15,8.8 V 8.7 L 8.8,8.8 7.45,8.7 V 8.8 L 6,8.7 Q 5.2,8.55 5.15,7.8 L 5.2,7.35 8.6,7.15 12.4,7.35 12.45,7.8 M 16.1,5.2 V 5.4 L 16.05,6.2 15.65,6.65 14.45,6.9 13.6,6.7 13.05,6.4 H 13 l -0.35,-0.15 -0.1,0.2 -1.4,-0.1 h -1 -1.1 -2.6 L 5.05,6.45 4.95,6.25 4.6,6.4 H 4.55 L 4,6.7 3.15,6.9 1.95,6.65 1.55,6.2 1.5,5.4 V 5.2 Q 1.35,3.9 2.65,3.9 L 3.4,4.3 Q 3.9,4.7 4.55,4.7 5.3,4.7 5.3,4.2 L 5.05,3.05 Q 4.8,1.5 7.45,1.4 V 1.5 L 8.9,1.4 10.15,1.5 V 1.4 q 2.65,0.1 2.4,1.65 L 12.3,4.2 q 0,0.5 0.75,0.5 0.65,0 1.15,-0.4 l 0.75,-0.4 q 1.3,0 1.15,1.3"
         fill="#7b7b7b"
         fill-rule="evenodd"
         stroke="none"
         id="path52" />
    </g>
    <g
       id="sprite9"
       transform="translate(0,1.2)">
      <use
         ffdec:characterId="41"
         height="11.6"
         transform="translate(0,4.35)"
         width="10.65"
         xlink:href="#shape9"
         id="use52" />
      <use
         ffdec:characterId="9"
         height="8.3000002"
         transform="matrix(-1,0,0,1,9.65,-1.2)"
         width="3.45"
         xlink:href="#sprite1"
         id="use53" />
    </g>
    <g
       id="shape9"
       transform="translate(0,-4.35)">
      <path
         d="M 8.2,4.35 8.3,4.4 8.35,4.7 7.85,5.6 Q 7.5,5.9 7.4,6.55 7.85,6.6 8.25,7 L 9,7.8 q 0.75,1.15 0.9,2 l 0.75,0.4 v 5.25 l -0.15,0.1 q -0.6,0.4 -2.25,0.4 L 2.65,15.6 1.25,15.8 Q 0,15.8 0,14.8 0,13.9 0.45,13.05 0.9,12.25 1.65,11.9 V 10.4 L 1.55,8.4 1.8,8.35 1.7,7.95 Q 1.7,7.3 2.4,7.05 2.85,6.5 4.15,6.1 L 6.35,6.05 6.5,5.35 q 0.35,-0.7 1.7,-1 M 4.55,8 6.3,9.4 7.05,9.2 7.8,9 H 8.1 L 7.3,7.5 V 7.55 L 7.1,7.75 7,8.35 6.55,8.6 Q 6.1,8.15 6.1,7.55 V 7.45 L 5.5,7.1 4.4,7.25 4.55,7.85 V 8 m -0.6,1.15 -0.1,1.3 0.05,2.8 0.5,-0.05 v -0.05 q 0,-1.45 0.4,-2.2 0.85,0.2 0.7,0.9 L 5.2,12.75 5.35,13.1 5.4,13.15 6.45,13.1 Q 6.75,12.85 6.6,12.25 L 6.45,11.5 6.05,10.45 4.3,9.4 3.95,9.15 m 3.4,3.1 v 0.85 l 0.7,-0.05 h 0.7 L 8.5,10.7 7.3,10.9 7.35,12.25"
         fill="#6b6b6b"
         fill-rule="evenodd"
         stroke="none"
         id="path53" />
      <path
         d="M 7.35,12.25 7.3,10.9 8.5,10.7 8.75,13.05 h -0.7 l -0.7,0.05 v -0.85 m -3.4,-3.1 0.35,0.25 1.75,1.05 0.4,1.05 0.15,0.75 q 0.15,0.6 -0.15,0.85 L 5.4,13.15 5.35,13.1 5.2,12.75 5.5,11.85 q 0.15,-0.7 -0.7,-0.9 -0.4,0.75 -0.4,2.2 v 0.05 l -0.5,0.05 -0.05,-2.8 0.1,-1.3 M 4.55,8 V 7.85 L 4.4,7.25 5.5,7.1 6.1,7.45 v 0.1 q 0,0.6 0.45,1.05 L 7,8.35 7.1,7.75 7.3,7.55 V 7.5 L 8.1,9 H 7.8 L 7.05,9.2 6.3,9.4 4.55,8"
         fill="#747474"
         fill-rule="evenodd"
         stroke="none"
         id="path54" />
    </g>
    <g
       id="sprite10">
      <use
         ffdec:characterId="21"
         height="52.75"
         width="7.5999999"
         xlink:href="#shape10"
         id="use54" />
    </g>
    <g
       id="shape10">
      <path
         d="M 7.6,1.45 7.55,2.95 V 20.3 H 7.6 q 0.05,1.05 -0.3,2.1 L 7.1,22.85 Q 6.6,24.5 6.7,26.3 v 0.15 q -0.1,1.8 0.4,3.45 l 0.2,0.45 q 0.35,1.05 0.3,2.1 H 7.55 V 49.8 L 7.6,51.3 Q 7.4,52.55 6.35,52.55 H 6.3 l -1.6,0.2 -4.15,-0.5 Q 0.25,52.1 0.2,51.55 L 0,50.75 0.05,50.25 v -17.8 q 1.15,-3.05 1,-6.15 0.1,-3 -1,-6 V 2.5 L 0,2 0.2,1.2 Q 0.25,0.65 0.55,0.5 L 4.7,0 6.3,0.2 H 6.35 Q 7.4,0.2 7.6,1.45 M 4.8,10.5 2.6,10.45 V 11.5 H 4.1 L 4.8,11.45 V 10.5 M 3.6,2.75 2.6,2.65 V 9 H 4.8 V 8.75 Q 4.9,5.2 5.15,3.2 L 4.5,2.75 H 3.6 M 4.8,17 V 12.7 L 2.6,12.65 v 7.65 q 0.4,3 0.35,6 v 0.15 q 0.05,3 -0.35,6 v 7.65 l 2.2,-0.05 v -4.3 -3.3 Q 4.45,29.05 4.6,26.3 4.45,23.6 4.8,20.3 V 17 M 2.6,43.75 V 50.1 L 3.6,50 H 4.5 Q 4.7,49.65 5.15,49.55 4.9,47.55 4.8,44 V 43.75 H 2.6 m 2.2,-1.5 V 41.3 L 4.1,41.25 H 2.6 v 1.05 l 2.2,-0.05"
         fill="#6b6b6b"
         fill-rule="evenodd"
         stroke="none"
         id="path55" />
      <path
         d="M 3.6,2.75 H 4.5 L 5.15,3.2 Q 4.9,5.2 4.8,8.75 V 9 H 2.6 V 2.65 l 1,0.1 m 1.2,7.75 v 0.95 L 4.1,11.5 H 2.6 v -1.05 l 2.2,0.05 m 0,31.75 -2.2,0.05 v -1.05 h 1.5 l 0.7,0.05 v 0.95 m -2.2,1.5 H 4.8 V 44 Q 4.9,47.55 5.15,49.55 4.7,49.65 4.5,50 H 3.6 l -1,0.1 V 43.75 M 4.8,17 v 3.3 q -0.35,3.3 -0.2,6 -0.15,2.75 0.2,6.15 v 3.3 4.3 L 2.6,40.1 v -7.65 q 0.4,-3 0.35,-6 V 26.3 Q 3,23.3 2.6,20.3 V 12.65 L 4.8,12.7 V 17"
         fill="#727272"
         fill-rule="evenodd"
         stroke="none"
         id="path56" />
    </g>
    <g
       id="sprite11">
      <use
         ffdec:characterId="23"
         height="24.9"
         width="27.6"
         xlink:href="#shape11"
         id="use56" />
    </g>
    <g
       id="shape11">
      <path
         d="m 27.6,10.7 q 0,4.6 -1.95,8.05 Q 22.2,24.9 13.5,24.9 4.95,24.9 1.65,20.25 0,17.9 0,15.15 0,7.6 4.3,3.55 8.05,0.05 13.8,0 q 5.45,0 9.5,2.9 4.3,3.15 4.3,7.8 M 21,6.85 q -3,-2.6 -8.55,-2.45 -5.2,1 -7.05,4 -1.05,1.7 -1.05,4.65 0,2.8 1.05,4.25 2.05,2.95 8.1,2.95 6.25,0 8.55,-4.5 1.15,-2.25 1.15,-5 0,-2.05 -2.2,-3.9"
         fill="#6b6b6b"
         fill-rule="evenodd"
         stroke="none"
         id="path57" />
      <path
         d="m 21,6.85 q 2.2,1.85 2.2,3.9 0,2.75 -1.15,5 -2.3,4.5 -8.55,4.5 -6.05,0 -8.1,-2.95 Q 4.35,15.85 4.35,13.05 4.35,10.1 5.4,8.4 7.25,5.4 12.45,4.4 18,4.25 21,6.85"
         fill="#727272"
         fill-rule="evenodd"
         stroke="none"
         id="path58" />
    </g>
    <g
       id="sprite12">
      <use
         ffdec:characterId="27"
         height="16.85"
         width="17.799999"
         xlink:href="#shape12"
         id="use58" />
    </g>
    <g
       id="shape12">
      <path
         d="M 12.8,10.65 Q 13.65,9.45 13.65,8 13.65,4.05 9.1,4 4.5,4 4.5,8.2 q 0,1.35 0.45,2.25 1,1.9 3.95,1.9 2.6,0 3.9,-1.7 m 5,-3.6 q 0,3.25 -1.2,5.45 -2.45,4.35 -9.1,4.35 -4.2,0 -6.2,-3.45 Q 0,11.2 0,9.2 0,4.3 2.8,1.9 5.2,-0.2 8.9,0 q 3.5,0.2 6.1,2.15 2.8,2.1 2.8,4.9"
         fill="#6b6b6b"
         fill-rule="evenodd"
         stroke="none"
         id="path59" />
      <path
         d="m 12.8,10.65 q -1.3,1.7 -3.9,1.7 -2.95,0 -3.95,-1.9 Q 4.5,9.55 4.5,8.2 4.5,4 9.1,4 q 4.55,0.05 4.55,4 0,1.45 -0.85,2.65"
         fill="#727272"
         fill-rule="evenodd"
         stroke="none"
         id="path60" />
    </g>
    <g
       id="sprite13"
       transform="translate(5.4,4)">
      <use
         ffdec:characterId="43"
         height="8"
         transform="translate(-5.4,-4)"
         width="10.8"
         xlink:href="#shape13"
         id="use60" />
    </g>
    <g
       id="shape13"
       transform="translate(5.4,4)">
      <path
         d="m 2.9,-0.35 q 0,-1.25 1.25,-1.25 1.25,0 1.25,1.2 0,1.3 -1.25,1.3 Q 3.6,0.9 3.25,0.5 2.9,0.15 2.9,-0.35 m 0.35,-2.3 q 0,0.55 -0.35,0.9 -0.4,0.45 -1,0.45 -1.35,0 -1.35,-1.4 0,-1.3 1.35,-1.3 1.35,0 1.35,1.35 m -3.1,1.9 h 0.2 q 2.6,0.1 2.6,2.8 l -0.3,1 Q 2.05,4 0.45,4 H 0.35 0.15 0.1 -0.45 q -1.6,0 -2.2,-0.95 l -0.3,-1 q 0,-2.8 2.8,-2.8 h 0.3 M -1.55,-4 q 1.35,0 1.35,1.35 0,0.55 -0.4,0.9 -0.4,0.45 -0.95,0.45 -1.4,0 -1.4,-1.4 0,-1.3 1.4,-1.3 m -2.6,2.4 q 1.25,0 1.25,1.25 0,0.5 -0.35,0.85 -0.35,0.4 -0.9,0.4 -1.25,0 -1.25,-1.3 0,-1.2 1.25,-1.2"
         fill="#858585"
         fill-rule="evenodd"
         stroke="none"
         id="path61" />
    </g>
    <g
       id="sprite14">
      <use
         ffdec:characterId="29"
         height="53.5"
         width="18.700001"
         xlink:href="#shape14"
         id="use61" />
    </g>
    <g
       id="shape14">
      <path
         d="m 18.5,1.6 -0.25,0.95 0.3,1.65 0.1,3.5 0.05,3.5 -0.45,2.55 v 0.1 q 0,0.7 -0.4,0.95 L 16.4,15 16.25,15.2 13.9,19.05 13.6,21.6 h 0.25 Q 14,21.45 14.2,21.45 l 0.4,0.15 0.65,-0.05 q 1.3,0.85 1.25,4.05 v 1.15 1.15 q 0.05,3.2 -1.25,4.05 L 14.6,31.9 14.2,32.05 13.85,31.9 H 13.6 l 0.3,2.55 2.35,3.85 0.15,0.2 1.45,0.2 q 0.4,0.25 0.4,0.95 v 0.1 l 0.45,2.55 -0.05,3.5 -0.1,3.5 -0.3,1.65 0.25,0.95 q 0,1.05 -1.4,1.5 h -6 v 0.1 l -1,-0.05 H 9.9 9.65 9.15 8.6 l -1,0.05 V 53.45 L 1.6,53.4 Q 0.2,52.95 0.2,51.9 0.2,51.3 0.45,50.95 L 0.15,49.3 0.05,45.8 0,42.3 q 0.1,-1.65 0.45,-2.55 v -0.1 q 0,-0.7 0.4,-0.95 L 2.3,38.5 2.45,38.3 4.8,34.45 5.1,31.9 H 4.85 L 4.5,32.05 4.1,31.9 3.45,31.95 Q 2.15,31.1 2.2,27.9 L 2.25,26.75 2.2,25.6 Q 2.15,22.4 3.45,21.55 L 4.1,21.6 4.5,21.45 4.85,21.6 H 5.1 L 4.8,19.05 2.45,15.2 2.3,15 0.85,14.8 q -0.4,-0.25 -0.4,-0.95 v -0.1 Q 0.1,12.85 0,11.2 L 0.05,7.7 0.15,4.2 0.45,2.55 0.2,1.6 q 0,-1.05 1.4,-1.5 l 6,-0.05 V 0 l 1,0.05 h 0.55 0.5 0.25 0.2 L 11.1,0 v 0.1 h 6 q 1.4,0.45 1.4,1.5 M 11.1,3.1 V 3.15 H 7.6 V 3.1 L 2.9,3.05 Q 3.25,4.9 3.25,7.8 V 9.85 L 7.6,9.8 h 3.5 l 4.35,0.05 V 7.8 q 0,-2.9 0.35,-4.75 L 11.1,3.1 m 0,8.25 H 10.55 8.15 7.6 V 11.3 L 3.25,11.15 v 0.25 l -0.1,1.2 6.2,-0.15 6.2,0.15 -0.1,-1.2 V 11.15 L 11.1,11.3 v 0.05 m -5,4.2 q 0,0.65 0.5,1.35 l 0.5,1.2 q 0.95,1.9 1,3.7 h 0.75 1.75 q 0.05,-1.85 1,-3.7 l 0.5,-1.2 q 0.5,-0.7 0.5,-1.35 l -0.05,-0.4 -1.45,0.05 v 0.1 L 9.45,15.25 7.6,15.3 V 15.2 L 6.15,15.15 6.1,15.55 m 3.25,8.9 h -1.5 l -0.4,-0.05 -1.7,-0.15 0.1,1.25 v 0.8 0.45 0.45 0.8 l -0.1,1.25 1.7,-0.15 0.4,-0.05 h 1.5 1.5 L 11.3,29.1 12.95,29.25 12.9,28 H 12.85 V 27.2 26.75 26.3 25.5 h 0.05 l 0.05,-1.25 -1.65,0.15 -0.45,0.05 H 9.35 M 10.6,31.7 H 8.85 8.1 q -0.05,1.8 -1,3.7 l -0.5,1.2 q -0.5,0.7 -0.5,1.35 l 0.05,0.4 1.45,-0.05 v -0.1 l 1.85,0.05 1.65,-0.05 v 0.1 l 1.45,0.05 0.05,-0.4 q 0,-0.65 -0.5,-1.35 l -0.5,-1.2 q -0.95,-1.85 -1,-3.7 M 8.15,42.15 h 2.4 0.55 v 0.05 l 4.35,0.15 V 42.1 l 0.1,-1.2 -6.2,0.15 -6.2,-0.15 0.1,1.2 v 0.25 L 7.6,42.2 v -0.05 h 0.55 m -4.9,1.5 v 2.05 q 0,2.9 -0.35,4.75 L 7.6,50.4 v -0.05 h 3.5 v 0.05 l 4.7,0.05 Q 15.45,48.6 15.45,45.7 V 43.65 L 11.1,43.7 H 7.6 L 3.25,43.65"
         fill="#6b6b6b"
         fill-rule="evenodd"
         stroke="none"
         id="path62" />
      <path
         d="M 11.1,3.1 15.8,3.05 Q 15.45,4.9 15.45,7.8 V 9.85 L 11.1,9.8 H 7.6 L 3.25,9.85 V 7.8 Q 3.25,4.9 2.9,3.05 L 7.6,3.1 v 0.05 h 3.5 V 3.1 m -5,12.45 0.05,-0.4 1.45,0.05 v 0.1 l 1.85,-0.05 1.65,0.05 v -0.1 l 1.45,-0.05 0.05,0.4 q 0,0.65 -0.5,1.35 l -0.5,1.2 q -0.95,1.85 -1,3.7 H 8.85 8.1 Q 8.05,20 7.1,18.1 L 6.6,16.9 Q 6.1,16.2 6.1,15.55 m 5,-4.2 V 11.3 l 4.35,-0.15 v 0.25 l 0.1,1.2 -6.2,-0.15 -6.2,0.15 0.1,-1.2 V 11.15 L 7.6,11.3 v 0.05 h 0.55 2.4 0.55 m -1.75,13.1 h 1.5 L 11.3,24.4 12.95,24.25 12.9,25.5 h -0.05 v 0.8 0.45 0.45 0.8 H 12.9 L 12.95,29.25 11.3,29.1 10.85,29.05 H 9.35 7.85 L 7.45,29.1 5.75,29.25 5.85,28 V 27.2 26.75 26.3 25.5 l -0.1,-1.25 1.7,0.15 0.4,0.05 h 1.5 m -1.2,17.7 H 7.6 V 42.2 L 3.25,42.35 V 42.1 l -0.1,-1.2 6.2,0.15 6.2,-0.15 -0.1,1.2 v 0.25 L 11.1,42.2 V 42.15 H 10.55 8.15 M 10.6,31.7 q 0.05,1.85 1,3.7 l 0.5,1.2 q 0.5,0.7 0.5,1.35 L 12.55,38.35 11.1,38.3 V 38.2 L 9.45,38.25 7.6,38.2 v 0.1 L 6.15,38.35 6.1,37.95 q 0,-0.65 0.5,-1.35 l 0.5,-1.2 q 0.95,-1.9 1,-3.7 H 8.85 10.6 M 3.25,43.65 7.6,43.7 h 3.5 l 4.35,-0.05 v 2.05 q 0,2.9 0.35,4.75 L 11.1,50.4 V 50.35 H 7.6 V 50.4 L 2.9,50.45 Q 3.25,48.6 3.25,45.7 v -2.05"
         fill="#727272"
         fill-rule="evenodd"
         stroke="none"
         id="path63" />
    </g>
    <g
       id="sprite15">
      <use
         ffdec:characterId="31"
         height="12.8"
         width="27.049999"
         xlink:href="#shape15"
         id="use63" />
    </g>
    <g
       id="shape15">
      <path
         d="m 26.4,1.15 q 0.65,1.5 0.65,5.5 V 9.6 l -0.35,2.05 -0.7,1 -0.5,0.15 -0.35,-0.05 H 1.9 L 1.55,12.8 1.05,12.65 Q 0.6,12.4 0.35,11.65 0.1,10.85 0,9.6 V 6.65 q 0,-4 0.65,-5.5 l 0.2,-0.5 Q 1.15,0.35 2,0 h 23.05 q 0.85,0.35 1.15,0.65 l 0.2,0.5 M 23.95,5.3 24,4.75 V 4.2 L 24.05,3.65 24.15,2.8 H 2.9 L 3,3.65 3.05,4.2 V 4.75 L 3.1,5.3 v 1.35 0.4 H 5.55 Q 6.45,6.15 7.45,5.6 8.8,4.8 10.3,4.6 h 0.2 l 1.45,-0.05 h 0.35 3.6 l 0.85,0.05 q 1.5,0.2 2.85,1 1,0.55 1.9,1.45 h 2.45 V 6.65 5.3 m 0,3.2 L 12.3,8.6 H 11.85 L 3.1,8.5 V 9.8 10 H 23.95 V 9.8 8.5 M 12.3,5.8 H 12 11.1 10.5 V 5.9 Q 9.45,6.2 8.4,7.05 H 18.65 Q 17.25,5.95 15.9,5.8 L 13.75,5.75 12.3,5.8"
         fill="#6b6b6b"
         fill-rule="evenodd"
         stroke="none"
         id="path64" />
      <path
         d="m 23.95,5.3 -2,0.25 L 19.6,5.6 Q 18.25,4.8 16.75,4.6 L 15.9,4.55 H 12.3 11.95 L 10.5,4.6 H 10.3 Q 8.8,4.8 7.45,5.6 L 5.1,5.55 3.1,5.3 3.05,4.75 V 4.2 L 3,3.65 2.9,2.8 H 24.15 L 24.05,3.65 24,4.2 V 4.75 L 23.95,5.3"
         fill="#7b7b7b"
         fill-rule="evenodd"
         stroke="none"
         id="path65" />
      <path
         d="m 19.6,5.6 2.35,-0.05 2,-0.25 v 1.35 0.4 H 21.5 Q 20.6,6.15 19.6,5.6 M 3.1,5.3 5.1,5.55 7.45,5.6 q -1,0.55 -1.9,1.45 H 3.1 V 6.65 5.3 M 23.95,8.5 V 9.8 10 H 3.1 V 9.8 8.5 l 8.75,0.1 H 12.3 L 23.95,8.5 M 12.3,5.8 13.75,5.75 15.9,5.8 q 1.35,0.15 2.75,1.25 H 8.4 Q 9.45,6.2 10.5,5.9 V 5.8 h 0.6 0.9 0.3"
         fill="#727272"
         fill-rule="evenodd"
         stroke="none"
         id="path66" />
    </g>
  </defs>
</svg>
