<?xml version="1.0" encoding="UTF-8" standalone="no"?>
<svg
   ffdec:objectType="frame"
   height="102.15"
   width="112.4"
   version="1.1"
   id="svg12"
   sodipodi:docname="2.svg"
   xmlns:inkscape="http://www.inkscape.org/namespaces/inkscape"
   xmlns:sodipodi="http://sodipodi.sourceforge.net/DTD/sodipodi-0.dtd"
   xmlns:xlink="http://www.w3.org/1999/xlink"
   xmlns="http://www.w3.org/2000/svg"
   xmlns:svg="http://www.w3.org/2000/svg"
   xmlns:ffdec="https://www.free-decompiler.com/flash">
  <sodipodi:namedview
     id="namedview12"
     pagecolor="#ffffff"
     bordercolor="#000000"
     borderopacity="0.25"
     inkscape:showpageshadow="2"
     inkscape:pageopacity="0.0"
     inkscape:pagecheckerboard="0"
     inkscape:deskcolor="#d1d1d1"
     fit-margin-top="5"
     fit-margin-left="5"
     fit-margin-right="5"
     fit-margin-bottom="5" />
  <g
     transform="translate(56.2,44.1)"
     id="g3">
    <use
       ffdec:characterId="1467"
       height="65.849998"
       transform="matrix(-1,0,0,1,50.65,-23.1)"
       width="100.5"
       xlink:href="#sprite0"
       id="use1" />
    <use
       ffdec:characterId="44"
       height="8"
       transform="matrix(-0.7071,-0.7071,-0.7071,0.7071,-36.5533,31.0899)"
       width="10.8"
       xlink:href="#sprite1"
       id="use2" />
    <use
       ffdec:characterId="1468"
       height="102.15"
       transform="translate(-56.2,-44.1)"
       width="112.4"
       xlink:href="#shape2"
       id="use3" />
  </g>
  <defs
     id="defs12">
    <g
       id="sprite0"
       transform="translate(50.25,32.9)">
      <use
         ffdec:characterId="1466"
         height="65.849998"
         transform="translate(-50.25,-32.9)"
         width="100.5"
         xlink:href="#shape0"
         id="use4" />
    </g>
    <g
       id="shape0"
       transform="translate(50.25,32.9)">
      <path
         d="m 33.75,-14.55 -1,-0.35 0.8,-0.15 1.85,0.3 4.1,0.3 q 3.4,0.05 4.2,-1.25 l 0.9,-1.3 0.8,-1.55 q 0.85,-0.8 3.75,-0.65 l 0.4,0.3 -1.95,0.5 q -1.45,0.25 -1.75,0.65 l -0.9,1.35 q -0.45,1.05 -0.9,1.45 l -0.15,0.35 -0.8,0.15 h -4.35 l -2.85,0.05 0.55,0.1 H 35.5 l -1.75,-0.25 M 50.2,-0.2 v 0.8 l -0.3,0.1 0.05,2.05 v 0.9 h -0.6 l 0.1,0.45 0.35,1.25 -0.15,0.5 -0.8,-0.8 Q 48.85,4.5 49.3,4.1 L 48.85,3.65 48.75,3.55 47.8,2.5 Q 47.4,2.1 47.35,1.3 l -1.6,0.4 -2.5,-0.4 Q 42.45,1 42.2,0.75 l -0.05,-0.2 q 0,-0.35 0.1,-0.15 l 5.25,0.15 0.25,0.2 h 0.4 L 48.9,0.7 49.55,0.4 49.9,0.15 50.15,-0.15 50.2,-0.2 m -98.95,-25.55 -0.55,0.55 q 0.45,0.4 0.45,0.95 l -0.8,0.8 -0.15,-0.5 0.35,-1.25 0.4,-1.6 0.05,-0.05 -0.35,-1.15 -0.15,-0.6 -0.7,-0.1 v -0.8 l 0.05,0.05 0.6,0.55 0.65,0.3 0.75,0.05 h 0.4 l 0.25,-0.2 5.25,-0.15 q 0.1,-0.2 0.1,0.15 l -0.05,0.2 q -0.25,0.25 -1.05,0.55 l -2.5,0.4 -1.6,-0.4 q -0.05,0.8 -0.45,1.2 l -0.95,1.05 m 4.7,22.15 h -0.75 l -0.6,-1 q 0.75,-0.4 1.15,0.55 l 0.2,0.45 M 25.6,16.15 q 0.85,-0.55 2.25,-0.35 l -2.4,0.95 v 1.4 L 24.4,18.2 22.1,17.75 Q 20.85,17.2 20.05,17.2 l -2.1,0.15 q -0.55,0.45 -1.15,2.35 -0.4,1.15 -3.05,1.6 -0.35,0.65 -1.5,0.65 L 8.4,21.05 4.75,20.15 5.2,19.9 12.15,21.35 13,21.15 13.6,20.7 q 2.1,-0.3 2.45,-1.8 0.35,-1.5 3.3,-2 l 1.05,-0.15 q 0.7,0 1.5,0.55 l 1.35,0.5 1.6,-0.15 q 0,-1 0.75,-1.5 m 13.35,13.3 q 0,-1.2 0.35,-1.8 Q 40.15,26 43,26 l 0.6,0.2 0.5,0.25 q -0.2,-0.45 0.15,-1.2 0.4,-0.95 1.15,-0.55 -0.85,0.95 -0.7,2.4 l -0.6,0.1 -0.45,-0.15 -0.4,-0.15 q -2.2,0 -4,3.1 l -0.3,-0.15 v -0.4 m -64.55,-42.6 q 0.75,0.5 0.75,1.5 l 1.6,0.15 q 0.6,0 1.35,-0.5 0.8,-0.55 1.5,-0.55 l 1.05,0.15 q 2.95,0.5 3.3,2 0.35,1.5 2.45,1.8 l 0.6,0.45 0.85,0.2 6.95,-1.45 0.45,0.25 -3.65,0.9 -3.85,0.9 q -1.15,0 -1.5,-0.65 -2.65,-0.45 -3.05,-1.6 -0.6,-1.9 -1.15,-2.35 l -2.1,-0.15 -2.05,0.55 -2.3,0.45 -1.05,-0.05 v -1.4 l -2.4,-0.95 q 1.4,-0.2 2.25,0.35 m -8.15,27.9 -1.75,0.25 h -0.95 l 0.55,-0.1 -2.85,-0.05 h -4.35 l -0.8,-0.15 -0.15,-0.35 -0.9,-1.45 -0.9,-1.35 q -0.3,-0.4 -1.75,-0.65 l -1.95,-0.5 0.4,-0.3 q 2.9,-0.15 3.75,0.65 l 0.8,1.55 0.9,1.3 q 0.8,1.3 4.2,1.25 l 4.1,-0.3 1.85,-0.3 0.8,0.15 -1,0.35"
         fill="#a7a7a7"
         fill-rule="evenodd"
         stroke="none"
         id="path4" />
      <path
         d="m 33.75,-14.55 1.75,0.25 h 0.95 l -0.55,-0.1 2.85,-0.05 h 4.35 l 0.8,-0.15 0.15,-0.35 q 0.45,-0.4 0.9,-1.45 l 0.9,-1.35 q 0.3,-0.4 1.75,-0.65 l 1.95,-0.5 -0.4,-0.3 q -2.9,-0.15 -3.75,0.65 l -0.8,1.55 -0.9,1.3 q -0.8,1.3 -4.2,1.25 l -4.1,-0.3 -1.85,-0.3 -0.8,0.15 1,0.35 m 15.95,-15.3 q 0.5,0.8 0.55,2.2 v 0.75 q -0.7,4.6 -0.7,5.65 l 0.05,2.65 0.25,15.4 -0.65,-0.4 h -93.25 l -0.2,-0.45 Q -44.65,-5 -45.4,-4.6 l 0.6,1 h -3.15 l -1.35,0.6 -0.15,-7.45 0.3,-8.15 q 0.45,-4.35 0.45,-6.8 l -0.05,-0.35 0.95,-1.05 q 0.4,-0.4 0.45,-1.2 l 1.6,0.4 2.5,-0.4 q 0.8,-0.3 1.05,-0.55 h 82.35 l 8.25,-0.6 q 0.85,-0.25 1.3,-0.7 m -0.85,33.5 h -0.1 L 48.7,3.9 q 0,2.45 0.45,6.8 l 0.3,8.15 L 49.2,29.6 49,32.95 h -98.95 v -0.9 l 0.35,-21.35 0.05,-2.65 q 0,-1.05 -0.7,-5.65 V 1.65 q 0.05,-1.4 0.55,-2.2 l 0.5,0.35 0.8,0.35 8.25,0.6 H 42.2 Q 42.45,1 43.25,1.3 l 2.5,0.4 1.6,-0.4 q 0.05,0.8 0.45,1.2 l 0.95,1.05 0.1,0.1 m -9.9,25.8 v 0.4 l 0.3,0.15 q 1.8,-3.1 4,-3.1 l 0.4,0.15 0.45,0.15 0.6,-0.1 Q 44.55,25.65 45.4,24.7 44.65,24.3 44.25,25.25 43.9,26 44.1,26.45 L 43.6,26.2 43,26 q -2.85,0 -3.7,1.65 -0.35,0.6 -0.35,1.8 M 25.6,16.15 q -0.75,0.5 -0.75,1.5 l -1.6,0.15 -1.35,-0.5 q -0.8,-0.55 -1.5,-0.55 l -1.05,0.15 q -2.95,0.5 -3.3,2 -0.35,1.5 -2.45,1.8 l -0.6,0.45 -0.85,0.2 -6.95,-1.45 -0.45,0.25 3.65,0.9 3.85,0.9 q 1.15,0 1.5,-0.65 2.65,-0.45 3.05,-1.6 0.6,-1.9 1.15,-2.35 l 2.1,-0.15 q 0.8,0 2.05,0.55 l 2.3,0.45 1.05,-0.05 v -1.4 l 2.4,-0.95 q -1.4,-0.2 -2.25,0.35 m -51.2,-29.3 q -0.85,-0.55 -2.25,-0.35 l 2.4,0.95 v 1.4 l 1.05,0.05 2.3,-0.45 2.05,-0.55 2.1,0.15 q 0.55,0.45 1.15,2.35 0.4,1.15 3.05,1.6 0.35,0.65 1.5,0.65 l 3.85,-0.9 3.65,-0.9 -0.45,-0.25 -6.95,1.45 -0.85,-0.2 -0.6,-0.45 q -2.1,-0.3 -2.45,-1.8 -0.35,-1.5 -3.3,-2 l -1.05,-0.15 q -0.7,0 -1.5,0.55 -0.75,0.5 -1.35,0.5 l -1.6,-0.15 q 0,-1 -0.75,-1.5 m -8.15,27.9 1,-0.35 -0.8,-0.15 -1.85,0.3 -4.1,0.3 q -3.4,0.05 -4.2,-1.25 l -0.9,-1.3 -0.8,-1.55 q -0.85,-0.8 -3.75,-0.65 l -0.4,0.3 1.95,0.5 q 1.45,0.25 1.75,0.65 l 0.9,1.35 0.9,1.45 0.15,0.35 0.8,0.15 h 4.35 l 2.85,0.05 -0.55,0.1 h 0.95 l 1.75,-0.25"
         fill="#b3b3b3"
         fill-rule="evenodd"
         stroke="none"
         id="path5" />
      <path
         d="m -50.2,-29.5 v -2.65 l 1,-0.75 h 97.15 q 2.15,0.6 2.15,2 0,0.65 -0.4,1.05 -0.45,0.45 -1.3,0.7 l -8.25,0.6 H -42.2 l 0.05,-0.2 q 0,-0.35 -0.1,-0.15 l -5.25,0.15 -0.25,0.2 h -0.4 l -0.75,-0.05 -0.65,-0.3 -0.6,-0.55 -0.05,-0.05 M 49.85,-3.2 50.2,-2.85 V -0.2 L 50.15,-0.15 49.9,0.15 49.55,0.4 48.9,0.7 48.15,0.75 h -0.4 L 47.5,0.55 42.25,0.4 q -0.1,-0.2 -0.1,0.15 l 0.05,0.2 h -82.35 l -8.25,-0.6 -0.8,-0.35 -0.5,-0.35 q -0.4,-0.4 -0.4,-1.05 0,-0.85 0.8,-1.4 l 1.35,-0.6 h 3.15 0.75 93.25 l 0.65,0.4"
         fill="#a9a9a9"
         fill-rule="evenodd"
         stroke="none"
         id="path6" />
    </g>
    <g
       id="sprite1"
       transform="translate(5.4,4)">
      <use
         ffdec:characterId="43"
         height="8"
         transform="translate(-5.4,-4)"
         width="10.8"
         xlink:href="#shape1"
         id="use6" />
    </g>
    <g
       id="shape1"
       transform="translate(5.4,4)">
      <path
         d="m 2.9,-0.35 q 0,-1.25 1.25,-1.25 1.25,0 1.25,1.2 0,1.3 -1.25,1.3 Q 3.6,0.9 3.25,0.5 2.9,0.15 2.9,-0.35 m 0.35,-2.3 q 0,0.55 -0.35,0.9 -0.4,0.45 -1,0.45 -1.35,0 -1.35,-1.4 0,-1.3 1.35,-1.3 1.35,0 1.35,1.35 m -3.1,1.9 h 0.2 q 2.6,0.1 2.6,2.8 l -0.3,1 Q 2.05,4 0.45,4 H 0.35 0.15 0.1 -0.45 q -1.6,0 -2.2,-0.95 l -0.3,-1 q 0,-2.8 2.8,-2.8 h 0.3 M -1.55,-4 q 1.35,0 1.35,1.35 0,0.55 -0.4,0.9 -0.4,0.45 -0.95,0.45 -1.4,0 -1.4,-1.4 0,-1.3 1.4,-1.3 m -2.6,2.4 q 1.25,0 1.25,1.25 0,0.5 -0.35,0.85 -0.35,0.4 -0.9,0.4 -1.25,0 -1.25,-1.3 0,-1.2 1.25,-1.2"
         fill="#898989"
         fill-rule="evenodd"
         stroke="none"
         id="path7" />
    </g>
    <g
       id="shape2"
       transform="translate(56.2,44.1)">
      <path
         d="m 30.5,-27.4 q -1.95,0 -2.4,-0.45 0.2,-0.5 0.6,-0.6 h 3.6 q 2.75,0.15 3.1,0.6 l -4.9,0.45 m 8.8,-3.85 q -0.05,0.55 -0.75,1.2 -0.8,0.8 -1.7,0.8 -0.3,0 -1.8,-0.9 l -1.65,-1 0.05,-0.1 h 5.85 m -56.55,0 0.55,0.4 q 0.85,0.8 1.45,0.8 0.45,0 0.9,-0.5 0.5,-0.5 0.75,-0.5 0.9,0 0.4,0.15 v 0.1 q -0.25,1.6 -1.45,1.95 l -0.65,0.05 -0.3,-0.05 q -0.95,-0.35 -3.1,-2.4 h 1.45 m 23.65,6.3 0.65,-1.1 0.65,-2.05 4.5,-0.25 0.65,0.5 -0.5,0.3 -0.05,0.15 q -4.1,-0.4 -4.65,1.5 l -0.3,0.95 H 6.4 m 36.8,-2.85 -0.2,0.7 -0.6,0.2 -0.75,-0.25 q -0.1,0.3 -0.1,-0.6 l 0.1,-0.5 0.1,-0.1 0.95,-0.1 q 0.5,0.05 0.5,0.65 m 10.3,-5 v 5.65 q -0.45,-0.55 -0.65,-1.35 l -0.1,-2 0.15,-0.9 q 0.2,-0.9 0.6,-1.4 m 0.05,82.6 v 4.25 0.1 1.15 L 52.2,55.15 H 51.25 L 51.15,55.05 51.1,52.9 V 51.45 L 51,49.1 51.1,48.95 q 0.5,0.2 0.5,1.8 0.2,1.3 -0.4,2 l 0.1,0.85 q 0.4,-0.35 0.95,-0.25 V 52.4 q 0.2,-0.8 1.3,-2.6 m -2.6,-17.95 v -2.1 l 0.3,-0.55 0.35,-1.45 -0.3,-1.3 -0.35,-0.5 V 25.4 25.25 q 1.25,0.45 1.5,0.8 0.3,0.35 0.3,1.75 0,2.75 -1.65,4.1 L 50.95,31.85 M 44.25,2.55 41,4 39.55,4.55 39.4,4.6 38.2,5 H 35.45 L 36.3,4.55 37.3,4 39,3.05 39.95,2.55 h 4.3 M 17.4,5 H 6.5 L 6.95,4.55 7.1,4.45 7.2,4.4 7.7,4 Q 9.45,2.8 13.05,3.6 L 14.6,4 16.4,4.55 17.4,5 M -47.65,2.55 h 0.65 4.75 l -0.95,0.55 -2.15,0.7 -1.35,-0.65 -0.95,-0.6 m 70.45,0 h 3.75 L 26.45,2.6 23.8,3.1 23.05,2.95 22.7,2.65 22.8,2.55 M 47.65,37.3 46.7,37.9 45.35,38.55 43.2,37.85 42.25,37.3 H 47 47.65 m -70.45,0 0.1,0.1 -0.35,0.3 -0.75,0.15 -2.65,-0.5 -0.1,-0.05 h 3.75 m -17.15,0 0.95,0.5 1.7,0.95 1,0.55 0.85,0.45 h -2.75 l -1.2,-0.4 -0.15,-0.05 -1.45,-0.55 -3.25,-1.45 h 4.3 m 25.35,1.45 1.55,-0.4 q 3.6,-0.8 5.35,0.4 l 0.5,0.4 0.1,0.05 0.15,0.1 0.45,0.45 h -10.9 l 1,-0.45 1.8,-0.55 M 25.5,49.5 h -6.8 v -0.05 q -0.55,-1.2 -2.4,-1.95 l -4.8,-0.9 q -3.75,-0.55 -4.4,-1.2 0.25,-0.3 1.05,-0.45 4.25,-0.2 8.15,1.25 3.35,1.25 3.65,2.25 l 5,0.55 0.55,0.5 m -44.75,0 h -6.1 v -0.05 l 0.15,-0.5 2.05,-0.4 1.15,-0.1 0.2,0.15 0.4,0.1 2.15,0.8 M -48.3,45 v -2.8 h 4.8 q 0,0.4 -0.05,0.05 l -2.15,1.4 -2.25,1.55 -0.35,-0.2 m 33.6,-2.8 h 6.65 l -0.55,0.65 q -0.9,0.9 -1.65,0.9 l -2.8,-0.85 -1.65,-0.7 m 55.35,0 h 7.65 v 3.1 l -1.15,0.15 q -1.7,0 -3.9,-1.2 -1.8,-1 -2.6,-2.05 M -51,47.55 v 1.05 l -0.1,3.45 h -0.3 l -0.3,-0.5 q 0.3,-0.6 0.25,-2.2 0,-1.1 0.45,-1.8 m -0.1,5.15 v 0.2 0.05 l -0.2,0.05 -0.1,-0.2 0.3,-0.1 m 0,0.6 -0.05,1.85 h -1.05 l -1.2,0.15 -0.15,-0.05 V 54.1 50.55 q 0.7,0.5 1.1,1.65 0.3,0.95 0.3,1.7 V 54 l 0.95,-0.2 0.1,-0.5 m 2.8,-80.9 v -3.65 h 2.7 q -1,0.9 -1.5,2.2 l -0.1,0.25 q -0.45,1 -1.1,1.2 m 21.2,1.3 0.75,-0.7 0.9,-0.6 3.1,0.15 q 0.9,0.2 0.9,0.75 0,0.55 -0.15,0.65 l -0.1,0.15 -2.45,0.3 -1.65,-0.05 -1.3,-0.65"
         fill="#919191"
         fill-rule="evenodd"
         stroke="none"
         id="path8" />
      <path
         d="m 39.3,-31.25 h -5.85 -50.7 -1.45 -26.9 -2.7 v 3.65 2.25 h 0.1 v 0.4 H 6.4 7.35 48.2 v -0.4 h 0.1 V -29 -31.25 h -9 m 14.2,-7.7 0.05,-1.15 v -1.25 L 52.2,-41.2 H 51.15 L 51.1,-39 v 0.05 l -0.05,1.9 1.6,-0.1 0.85,0.05 v -1.85 m -109.55,-3.8 0.3,-0.7 5.45,-0.6 h 0.25 l 0.35,-0.05 q 1.35,0 1.55,2.25 v 2.95 q 0,2.9 -0.15,4.15 v 0.55 h 96.6 v -0.55 Q 48.15,-36 48.15,-38.9 v -2.95 q 0.2,-2.25 1.55,-2.25 l 0.35,0.05 h 0.25 l 5.45,0.6 0.3,0.7 -0.05,0.25 0.05,17.15 h 0.15 l -0.1,72.5 H 56 v 9.3 l 0.05,0.25 -0.3,0.7 -5.45,0.6 h -0.25 l -0.35,0.05 q -1.35,0 -1.55,-2.25 V 52.85 52.6 H 48 -48 -48.15 v 0.25 2.95 q -0.2,2.25 -1.55,2.25 L -50.05,58 h -0.25 l -5.45,-0.6 -0.3,-0.7 0.05,-0.25 -0.05,-9.3 h -0.05 l -0.1,-72.5 h 0.15 l 0.05,-17.15 -0.05,-0.25 m 109.55,9 v -1.8 l -2.25,0.25 H 51 v 0.65 0.85 34.05 H 50.95 V 2.3 3 7.3 H 51 v 16.1 h -0.05 v 1.55 0.3 0.15 0.55 1.05 1.75 1 2.1 15.3 H 51 v 1.45 0.5 l 0.1,2.35 v 1.45 l 0.05,2.15 v 0.1 h 0.1 0.95 l 1.35,0.15 V 54.15 54.05 49.8 47.15 H 53.5 L 53.45,7.3 H 53.5 V 0.25 h -0.05 v -25.6 h 0.05 v -1.8 -5.65 -0.95 m -101.75,14.2 v 1.4 6.05 1.65 0.4 10.3 H 48.2 v -10.3 -2.05 -6.05 -1.4 -2.6 h -96.4 l -0.05,2.6 M 48.3,4 V 2.5 H 48.2 L 47,2.55 H 44.25 39.95 26.55 22.8 -42.25 -47 -47.65 L -48.25,2.5 H -48.3 V 3.7 5 H 6.5 17.4 35.45 38.2 48.3 V 4 m -0.05,17.3 v -3 H 48.2 v -11 h -96.45 v 9.7 1.3 3 0.3 0.5 1.3 3.6 l -0.05,1.35 v 6.4 l 1.3,0.1 h 94 l 1.3,-0.1 v -6.4 L 48.25,27 v -3.6 -1.3 -0.5 -0.3 m -0.6,16 H 47 42.25 -22.8 h -3.75 -13.4 -4.3 -2.75 l -1.3,-0.05 v 1.5 1 h 10.1 2.75 18.05 10.9 54.8 v -1.3 -1.2 L 47.65,37.3 M 25.5,49.5 H 48 48.2 l 0.1,-0.8 v -3.4 -3.1 h -7.65 -48.7 -6.65 -28.8 -4.8 v 2.8 3.7 l 0.1,0.8 h 0.2 22.65 6.1 37.95 6.8 m -76.6,-88.7 -0.05,-2 h -1.05 l -1.35,-0.15 v 1.25 1.2 l 0.05,1.8 0.85,-0.05 1.6,0.1 -0.05,-1.9 v -0.25 m 0.1,6.05 v -1.5 -0.5 -0.15 h -0.2 -0.05 l -2.25,-0.25 v 2.6 7.6 h 0.05 l -0.05,72.5 h -0.05 v 3.4 3.55 1.15 0.05 h 0.15 l 1.2,-0.15 h 1.05 L -51.1,53.3 V 52.95 52.9 52.7 52.05 L -51,48.6 v -1.05 -0.4 h 0.05 v -9.4 -0.7 -8.3 V 27 25.4 24.95 23.4 H -51 V 7.3 h 0.05 V 0.25 H -51 v -33.4"
         fill="#6b6b6b"
         fill-rule="evenodd"
         stroke="none"
         id="path9" />
      <path
         d="M 50.95,3 V 2.3 L 51,2.4 51.05,2.6 51,2.9 50.95,3 m -101.9,34.05 v 0.7 l -0.05,-0.1 -0.05,-0.3 0.05,-0.2 0.05,-0.1"
         fill="#dbdbdb"
         fill-rule="evenodd"
         stroke="none"
         id="path10" />
      <path
         d="m 30.5,-27.4 4.9,-0.45 q -0.35,-0.45 -3.1,-0.6 h -3.6 q -0.4,0.1 -0.6,0.6 0.45,0.45 2.4,0.45 m -45.15,-1.45 62.6,-0.15 h 0.35 v 3.65 h -0.1 v 0.4 H 7.35 l 0.3,-0.95 q 0.55,-1.9 4.65,-1.5 l 0.05,-0.15 0.5,-0.3 -0.65,-0.5 -4.5,0.25 -0.65,2.05 -0.65,1.1 h -54.6 v -0.4 h -0.1 v -2.25 q 0.65,-0.2 1.1,-1.2 l 31.6,-0.05 0.3,0.05 0.65,-0.05 M 51.1,-39 q 0.65,0.45 1.05,0.45 0.85,0 1.35,-0.4 v 1.85 l -0.85,-0.05 -1.6,0.1 0.05,-1.9 V -39 m -7.9,11.2 q 0,-0.6 -0.5,-0.65 l -0.95,0.1 -0.1,0.1 -0.1,0.5 q 0,0.9 0.1,0.6 l 0.75,0.25 0.6,-0.2 0.2,-0.7 m 10.3,-5.95 v 0.95 q -0.4,0.5 -0.6,1.4 l -0.15,0.9 0.1,2 q 0.2,0.8 0.65,1.35 v 1.8 H 53.45 V 0.25 H 53.5 V 7.3 h -0.05 l 0.05,39.85 h 0.05 v 2.65 q -1.1,1.8 -1.3,2.6 v 0.95 Q 51.7,53.25 51.3,53.6 l -0.1,-0.85 q 0.6,-0.7 0.4,-2 0,-1.6 -0.5,-1.8 L 51,49.1 v -0.5 -1.45 h -0.05 v -15.3 l 0.15,0.05 q 1.65,-1.35 1.65,-4.1 0,-1.4 -0.3,-1.75 -0.25,-0.35 -1.5,-0.8 V 24.95 23.4 H 51 V 7.3 H 50.95 V 3 L 51,2.9 51.05,2.6 51,2.4 50.95,2.3 V 0.25 H 51 V -33.8 q 0.6,0.3 1.35,0.3 l 1.15,-0.25 M 41,4 h 7.3 V 5 H 38.2 L 39.4,4.6 39.55,4.55 41,4 M 35.45,5 H 17.4 L 16.4,4.55 14.6,4 H 37.3 L 36.3,4.55 35.45,5 M 6.5,5 H -48.3 V 3.7 l 0.05,0.05 2.6,0.2 L 7.7,4 7.2,4.4 7.1,4.45 6.95,4.55 6.5,5 m -43.8,33.75 h 22.7 l -1.8,0.55 -1,0.45 h -18.05 l -0.85,-0.45 -1,-0.55 m 29.6,0 53.35,-0.05 2.65,-0.25 v 1.3 H -6.5 L -6.95,39.3 -7.1,39.2 -7.2,39.15 -7.7,38.75 m 56,6.55 v 3.4 l -0.1,0.8 H 48 25.5 l -0.55,-0.5 -5,-0.55 q -0.3,-1 -3.65,-2.25 -3.9,-1.45 -8.15,-1.25 -0.8,0.15 -1.05,0.45 0.65,0.65 4.4,1.2 l 4.8,0.9 q 1.85,0.75 2.4,1.95 v 0.05 h -37.95 l -2.15,-0.8 -0.4,-0.1 -0.2,-0.15 -1.15,0.1 -2.05,0.4 -0.15,0.5 V 49.5 H -48 -48.2 l -0.1,-0.8 V 45 l 0.35,0.2 2.25,-1.55 2.15,-1.4 q 0.05,0.35 0.05,-0.05 h 28.8 l 1.65,0.7 2.8,0.85 q 0.75,0 1.65,-0.9 l 0.55,-0.65 h 48.7 q 0.8,1.05 2.6,2.05 2.2,1.2 3.9,1.2 L 48.3,45.3 m -101.85,-84.2 1.05,0.2 q 0.9,0 1.4,-0.5 v 0.25 l 0.05,1.9 -1.6,-0.1 -0.85,0.05 -0.05,-1.8 m 2.55,5.75 v 33.4 h 0.05 V 7.3 H -51 v 16.1 h 0.05 v 1.55 0.45 1.6 1.75 8.3 l -0.05,0.1 -0.05,0.2 0.05,0.3 0.05,0.1 v 9.4 H -51 v 0.4 q -0.45,0.7 -0.45,1.8 0.05,1.6 -0.25,2.2 l 0.3,0.5 h 0.3 v 0.65 l -0.3,0.1 0.1,0.2 0.2,-0.05 v 0.35 l -0.1,0.5 -0.95,0.2 v -0.1 q 0,-0.75 -0.3,-1.7 -0.4,-1.15 -1.1,-1.65 v -3.4 h 0.05 l 0.05,-72.5 h -0.05 v -7.6 l 1,0.2 q 1,0 1.5,-0.4 m 23.9,6.85 1.3,0.65 1.65,0.05 2.45,-0.3 0.1,-0.15 q 0.15,-0.1 0.15,-0.65 0,-0.55 -0.9,-0.75 l -3.1,-0.15 -0.9,0.6 -0.75,0.7 m -13.9,65.05 1.45,0.55 0.15,0.05 1.2,0.4 h -10.1 v -1 h 7.3"
         fill="#7b7b7b"
         fill-rule="evenodd"
         stroke="none"
         id="path11" />
      <path
         d="m 33.45,-31.25 -0.05,0.1 1.65,1 q 1.5,0.9 1.8,0.9 0.9,0 1.7,-0.8 0.7,-0.65 0.75,-1.2 h 9 V -29 h -0.35 l -62.6,0.15 q 1.2,-0.35 1.45,-1.95 v -0.1 q 0.5,-0.15 -0.4,-0.15 -0.25,0 -0.75,0.5 -0.45,0.5 -0.9,0.5 -0.6,0 -1.45,-0.8 l -0.55,-0.4 h 50.7 M 51.1,-39 l 0.05,-2.2 h 1.05 l 1.35,-0.15 v 1.25 l -0.05,1.15 q -0.5,0.4 -1.35,0.4 -0.4,0 -1.05,-0.45 m -0.1,5.2 v -0.85 -0.65 h 0.25 l 2.25,-0.25 v 1.8 l -1.15,0.25 q -0.75,0 -1.35,-0.3 m -0.05,63.55 v -1 V 27 25.95 l 0.35,0.5 0.3,1.3 -0.35,1.45 -0.3,0.55 M 44.25,2.55 H 47 L 48.2,2.5 h 0.1 V 4 H 41 L 44.25,2.55 M -48.3,3.7 V 2.5 h 0.05 l 0.6,0.05 0.95,0.6 1.35,0.65 2.15,-0.7 0.95,-0.55 H 22.8 l -0.1,0.1 0.35,0.3 0.75,0.15 2.65,-0.5 0.1,-0.05 h 13.4 L 39,3.05 37.3,4 H 14.6 L 13.05,3.6 Q 9.45,2.8 7.7,4 L -45.65,3.95 -48.25,3.75 -48.3,3.7 m 90.55,33.6 0.95,0.55 2.15,0.7 1.35,-0.65 0.95,-0.6 0.65,-0.05 v 1.2 L 45.65,38.7 -7.7,38.75 q -1.75,-1.2 -5.35,-0.4 l -1.55,0.4 H -37.3 L -39,37.8 -39.95,37.3 h 13.4 l 0.1,0.05 2.65,0.5 0.75,-0.15 0.35,-0.3 -0.1,-0.1 h 65.05 m -95.8,-76.2 v -1.2 -1.25 l 1.35,0.15 h 1.05 l 0.05,2 q -0.5,0.5 -1.4,0.5 l -1.05,-0.2 m 2.55,3.75 v 0.5 1.5 q -0.5,0.4 -1.5,0.4 l -1,-0.2 v -2.6 l 2.25,0.25 h 0.05 l 0.2,0.15 m 5.4,3.9 h 26.9 q 2.15,2.05 3.1,2.4 l -31.6,0.05 0.1,-0.25 q 0.5,-1.3 1.5,-2.2 m 1.35,68.55 3.25,1.45 h -7.3 v -1.5 l 1.3,0.05 h 2.75"
         fill="#8a8a8a"
         fill-rule="evenodd"
         stroke="none"
         id="path12" />
    </g>
  </defs>
</svg>
