<?xml version="1.0" encoding="UTF-8" standalone="no"?>
<svg
   ffdec:objectType="frame"
   height="70.150002"
   width="68.860489"
   version="1.1"
   id="svg12"
   sodipodi:docname="1.svg"
   xmlns:inkscape="http://www.inkscape.org/namespaces/inkscape"
   xmlns:sodipodi="http://sodipodi.sourceforge.net/DTD/sodipodi-0.dtd"
   xmlns:xlink="http://www.w3.org/1999/xlink"
   xmlns="http://www.w3.org/2000/svg"
   xmlns:svg="http://www.w3.org/2000/svg"
   xmlns:ffdec="https://www.free-decompiler.com/flash">
  <sodipodi:namedview
     id="namedview12"
     pagecolor="#ffffff"
     bordercolor="#000000"
     borderopacity="0.25"
     inkscape:showpageshadow="2"
     inkscape:pageopacity="0.0"
     inkscape:pagecheckerboard="0"
     inkscape:deskcolor="#d1d1d1"
     fit-margin-top="5"
     fit-margin-left="5"
     fit-margin-right="5"
     fit-margin-bottom="5" />
  <g
     transform="translate(33.633317,35.45)"
     id="g2">
    <use
       ffdec:characterId="1480"
       height="29.9"
       transform="matrix(1.4155,0,0,1,-22.0733,-9.15)"
       width="31.799999"
       xlink:href="#sprite0"
       id="use1" />
    <use
       ffdec:characterId="1481"
       height="70.150002"
       transform="translate(-33.6,-35.45)"
       width="68.849998"
       xlink:href="#shape1"
       id="use2" />
  </g>
  <defs
     id="defs12">
    <g
       id="sprite0"
       transform="translate(15.7,14.95)">
      <use
         ffdec:characterId="1479"
         height="29.9"
         transform="translate(-15.7,-14.95)"
         width="31.799999"
         xlink:href="#shape0"
         id="use3" />
    </g>
    <g
       id="shape0"
       transform="translate(15.7,14.95)">
      <path
         d="m 13.5,-11.4 -0.2,-0.15 -4.5,-0.15 -0.1,0.15 0.05,0.15 H -15.7 v -3.55 h 31.8 v 3.5 h -0.25 l -1.55,0.05 h -0.8"
         fill="#939393"
         fill-rule="evenodd"
         stroke="none"
         id="path3" />
      <path
         d="m 15.6,-9.1 -2.05,-0.85 q -0.35,-0.35 -0.35,-1 l -1.4,0.3 -2.15,-0.3 q -0.7,-0.25 -0.9,-0.45 l -0.05,-0.15 0.1,-0.15 4.5,0.15 0.2,0.15 0.05,0.05 0.35,0.2 q 1.35,0.25 2.2,1.2 v 1.05 l -0.5,-0.2 m -31.3,14 q 1.6,-0.3 1.9,-1.45 0.3,-1.25 2.85,-1.65 l 0.9,-0.1 q 0.6,0 1.3,0.4 l 1.15,0.45 1.35,-0.1 Q -6.25,1.6 -5.6,1.2 -4.85,0.75 -3.65,0.9 L -5.7,1.7 V 2.85 L -6.6,2.9 -8.6,2.5 Q -9.7,2.05 -10.35,2.05 L -12.2,2.2 Q -12.65,2.55 -13.15,4.1 -13.5,5 -15.7,5.45 V 4.9 M 16.1,-8.4 v 0.65 L 15.75,-7.9 q 0,-0.25 0.35,-0.5 M 10.5,8.65 q 0.35,-0.8 1,-0.45 -0.75,0.75 -0.6,1.95 L 10.4,10.25 10,10.1 9.65,10 Q 7.75,10 6.2,12.5 L 5.95,12.4 v -0.35 q 0,-0.95 0.3,-1.45 0.7,-1.35 3.2,-1.35 l 0.5,0.2 0.45,0.15 Q 10.2,9.25 10.5,8.65"
         fill="#848484"
         fill-rule="evenodd"
         stroke="none"
         id="path4" />
      <path
         d="m 8.75,-11.4 q 0.2,0.2 0.9,0.45 l 2.15,0.3 1.4,-0.3 q 0,0.65 0.35,1 l 2.05,0.85 -0.1,0.3 q 0,1.55 0.6,4.15 v 19.6 h -31.8 v -9.5 q 2.2,-0.45 2.55,-1.35 0.5,-1.55 0.95,-1.9 l 1.85,-0.15 q 0.65,0 1.75,0.45 l 2,0.4 0.9,-0.05 V 1.7 L -3.65,0.9 Q -4.85,0.75 -5.6,1.2 -6.25,1.6 -6.25,2.45 L -7.6,2.55 -8.75,2.1 q -0.7,-0.4 -1.3,-0.4 l -0.9,0.1 Q -13.5,2.2 -13.8,3.45 -14.1,4.6 -15.7,4.9 V -11.4 H 8.75 m 7.35,1.45 q -0.85,-0.95 -2.2,-1.2 l -0.35,-0.2 -0.05,-0.05 h 0.8 l 1.55,-0.05 h 0.25 v 1.5 M 10.5,8.65 Q 10.2,9.25 10.4,9.6 L 9.95,9.45 9.45,9.25 q -2.5,0 -3.2,1.35 -0.3,0.5 -0.3,1.45 V 12.4 L 6.2,12.5 Q 7.75,10 9.65,10 l 0.35,0.1 0.4,0.15 0.5,-0.1 q -0.15,-1.2 0.6,-1.95 -0.65,-0.35 -1,0.45"
         fill="#a4a4a4"
         fill-rule="evenodd"
         stroke="none"
         id="path5" />
      <path
         d="M 16.1,-11.45 H 15.85 16.1"
         fill="#959595"
         fill-rule="evenodd"
         stroke="none"
         id="path6" />
    </g>
    <g
       id="shape1"
       transform="translate(33.6,35.45)">
      <path
         d="m 22.95,-32.85 0.35,0.15 q 1.3,0.6 2.1,0.6 l 3.3,-0.2 2.4,-0.45 0.7,0.55 -0.25,0.5 q -0.4,0.6 -1.15,0.6 H 3.95 L 7,-32.85 h 15.95 m -1.1,49.45 v 0.65 H 22 v 0.8 l -2.4,0.3 -2.2,0.05 H 16.9 14.55 12.8 12.7 11.85 l -2.2,-0.1 -13.4,0.05 Q -5,17.45 -6.85,17.6 -5.1,17.3 -5.1,17.05 L -5.35,16.75 -5.4,16.7 h 1.8 12.2 8.65 0.15 2.2 l 1,-0.05 h 0.05 l 1.2,-0.05 m -0.3,-42.8 -0.1,-0.15 -0.1,-0.1 h 0.25 l -0.05,0.25 m -1.85,-0.25 -0.05,0.2 1.75,1.7 -0.35,0.05 -38.1,0.05 0.8,-0.1 v -0.05 h 0.4 l 4.05,-0.15 0.35,-0.05 1.35,-0.2 h 0.05 q 1.15,-0.65 2.5,-1.45 h 3.85 0.7 0.55 6.5 0.55 0.7 14.4 m -50.4,-4.9 v -0.1 l 0.25,-0.55 1.1,-0.85 H -29 l 0.1,0.2 0.25,0.3 2.85,0.05 0.45,-0.05 q 0.25,-0.1 0.25,-0.5 H 5.65 L 4.1,-32.1 q -1.25,0.5 -4.3,0.85 l -1.05,0.15 h -28.5 l -0.95,-0.25 m 10.9,6.9 -0.1,-1.35 -0.05,-0.4 -0.05,-0.25 h 10.6 l -0.65,0.35 v 0.05 h -0.05 l -1.35,0.2 v 0.05 l -0.35,0.05 -4.05,0.15 h -0.4 v 0.05 l -1,0.15 v 0.75 l -0.25,0.2 h -1.9 -0.4 m 21.15,3.3 q 1.8,0 1.8,1.5 0,0.8 -0.35,1.15 -0.4,0.4 -1.45,0.4 -1.45,0 -1.8,-0.9 l -0.05,-0.65 v -0.05 -0.2 l 0.3,-0.7 q 0.4,-0.6 1.55,-0.55 m 25.85,47.35 0.05,0.5 -0.05,0.55 -0.1,0.8 -0.3,0.15 -2.3,0.5 H 24.15 23.7 l -0.2,-2 v -0.05 l 1,-0.4 0.85,-0.15 1.85,0.1 m -45.9,-7.8 1.45,-0.15 v -0.1 h 1 0.4 l 4.05,-0.05 h 0.35 l 1.35,-0.05 h 0.05 l 0.1,-0.05 2.25,-0.25 1.35,0.6 -12.35,0.05 m 1.45,-1.7 v 0.05 H -17.4 L -18.85,17 -19,16.75 l -0.4,-0.1 h 0.35 l 1.55,0.05 h 0.25 m -8.15,9.25 1.55,-0.3 h 1.6 q 0.3,0.3 0.35,0.95 -0.8,0.1 -0.95,1.4 l -2.55,0.45 -0.1,-0.4 -0.1,-0.8 -0.05,-0.55 0.25,-0.75"
         fill="#dbdbdb"
         fill-rule="evenodd"
         stroke="none"
         id="path7" />
      <path
         d="m 31.1,-32.75 -2.4,0.45 -3.3,0.2 q -0.8,0 -2.1,-0.6 l -0.35,-0.15 h 8 l 0.15,0.1 M 7,-32.85 3.95,-31.1 3.15,-30.6 H -2.8 l 1.55,-0.5 1.05,-0.15 q 3.05,-0.35 4.3,-0.85 l 1.55,-0.75 H 7 m 15.9,45.95 0.25,0.05 0.75,2.8 0.25,1.5 -0.1,4.3 -0.45,0.4 -0.05,-0.1 -0.15,0.4 h -0.1 l -0.45,-0.8 0.05,-0.6 v -0.6 l -0.05,-0.7 H 22.9 V 13.1 m 3.4,-23.95 q -0.85,-3.65 -0.85,-6.3 0,-1.5 0.3,-3 0.2,-1.2 0.6,-1.8 l -0.05,11.1 m -26.55,33 h -0.3 V 22 L -1.9,22.1 H -2 L -2.2,22.05 V 22.1 L -2.8,21.85 -3,21.8 v -0.85 l -0.05,-0.7 -0.1,-0.45 Q -3.25,19.55 -3.7,19.35 L -4.5,19 l -1.05,-0.35 -0.8,-0.3 -1.35,-0.6 -2.25,0.25 -0.1,0.05 h -0.05 l -1.35,0.05 h -0.35 l -4.05,0.05 h -0.4 -1 v 0.1 l -1.45,0.15 -1.25,0.1 h -0.45 v -1.25 h 0.15 V 16.6 h 0.35 l 0.5,0.05 0.4,0.1 0.15,0.25 1.45,-0.25 h 0.15 V 16.7 H -5.4 l 0.05,0.05 0.25,0.3 q 0,0.25 -1.75,0.55 1.85,-0.15 3.1,0.75 l 0.05,0.05 0.8,0.85 0.05,0.1 0.65,0.85 0.65,0.75 1.3,1.2 m 21.6,-48.6 0.1,0.1 0.1,0.15 -0.05,0.4 -0.1,1.25 -1.75,-1.7 0.05,-0.2 h 1.65 M -29,-32.85 h 3.9 q 0,0.4 -0.25,0.5 l -0.45,0.05 -2.85,-0.05 -0.25,-0.3 -0.1,-0.2 m 61.25,-1.2 0.65,0.25 -0.15,0.2 -0.5,-0.45 m -39.8,7.6 q -1.35,0.8 -2.5,1.45 h -0.05 l -1.35,0.2 -0.35,0.05 -4.05,0.15 h -0.4 v 0.05 l -0.8,0.1 -0.2,0.05 v 0.55 l -1.95,0.9 q -0.45,0.25 -0.5,2.8 l 0.15,-0.05 q 0.55,1.5 0.55,2.2 l -0.05,0.95 0.05,-0.05 0.65,2.05 q 0.25,0.9 1.1,1.95 v 0.75 h -0.25 l -1.1,0.05 h -0.2 -0.3 -0.1 -0.55 l 0.05,-3.8 v -0.1 l 0.1,-0.65 -0.1,-0.3 v -2.4 -0.6 -1.95 -0.45 l 2.2,-1.9 0.25,-0.2 v -0.75 l 1,-0.15 v -0.05 h 0.4 l 4.05,-0.15 0.35,-0.05 v -0.05 l 1.35,-0.2 h 0.05 v -0.05 l 0.65,-0.35 h 1.85 m 28.9,11.6 v 2.4 l -0.2,0.15 H 20.8 20.7 l -1.1,-0.05 h -2.2 -5.55 v -0.25 l -0.4,-0.2 0.4,-0.05 v -0.4 l 0.85,-0.05 h 0.1 1.75 l 2.35,-0.05 h 0.5 v -0.05 l 2.2,-0.2 0.65,-0.5 q 0.5,-0.7 1.1,-0.75 m -46.05,9 0.2,-0.2 0.3,-0.05 q 0.8,1.2 0.8,5.05 0,2.75 -0.15,3.15 l -1.15,3.85 v -8 -3.8 m 0,16.85 q 0.3,0.7 0.3,1.45 l -0.3,1.1 V 11 m 3.4,3.95 -0.15,-0.3 -0.1,-1.15 0.1,-1.15 0.1,-0.25 v 0.15 L -21.3,13 v 1.95 m 0,-35.8 -0.5,-0.9 0.25,-4.1 h 0.4 l -0.1,2.75 h -0.05 v 0.85 0.15 1.25 m 15.55,3.8 -0.35,0.2 q -0.35,0.2 -0.6,0.25 -0.05,0.2 -0.05,-0.1 l -1.65,0.1 q -0.5,0 -0.9,-0.4 l 0.85,-0.6 2.1,-0.1 1.35,0.15 q 2.4,1.05 3.15,0.8 l 0.05,0.2 -0.4,0.45 -2.65,-1.2 -0.9,0.25 M -21.9,26.6 v 0.1 0.4 l -0.05,0.55 v 0.05 l -0.05,0.6 -0.1,0.6 -0.05,0.4 -0.1,0.7 -0.65,-1.25 0.05,-0.75 q 0.15,-1.3 0.95,-1.4"
         fill="#919191"
         fill-rule="evenodd"
         stroke="none"
         id="path8" />
      <path
         d="M 3.95,-31.1 H 30.4 q 0.75,0 1.15,-0.6 l 0.25,-0.5 0.25,0.2 0.25,0.55 q 0,0.35 -0.95,0.95 h -2.6 L 25.8,-30.55 23.65,-30.6 H 3.15 l 0.8,-0.5 M 22.9,13.1 V 13 l 0.05,-0.75 -0.05,-1.5 V 10.2 0.45 -2.05 l 0.05,-7 v -0.6 l -0.05,-5.2 v -7.25 -0.15 -0.85 h -0.05 l -0.25,-5.55 h 1.1 0.35 l 2.2,0.1 0.1,1.25 v 5.35 q -0.4,0.6 -0.6,1.8 -0.3,1.5 -0.3,3 0,2.65 0.85,6.3 v 3.35 1.05 4.4 24.55 h -0.15 -0.3 -0.05 v -0.05 h -0.5 l -0.8,0.05 h -0.15 l -0.95,-0.05 0.15,-0.4 0.05,0.1 0.45,-0.4 0.1,-4.3 -0.25,-1.5 -0.75,-2.8 -0.25,-0.05 m -1.15,-24.5 0.05,2.1 H 21.6 5.3 4.05 3.8 3.6 2.15 0.95 0.65 -0.55 -2 -2.2 -2.45 -3.7 -20 -20.2 l 0.05,-2.1 1.1,0.05 1.55,0.05 h 34.75 0.15 2.2 l 1.05,-0.05 1.1,-0.05 M 22,18.05 v 1.5 h -0.15 l 0.05,1.15 -0.35,-0.25 v -0.1 L 20.5,19.95 19.6,19.8 17.4,19.75 H 16.9 L 14.55,19.7 h -0.3 -0.75 -0.7 -0.1 -0.85 v 0.2 q -0.35,0.1 -0.7,0.3 l -1.1,0.9 q -1,1.4 -1.85,1.4 -1.05,0 -1.65,-0.35 l -0.2,-0.1 Q 6.15,21.1 4.4,21.85 L 3.8,22.1 V 22.05 L 3.6,22.1 H 3.5 L 2.15,22 v 0.15 H 1.9 L 0.95,22.1 h -0.3 l -0.9,0.05 -1.3,-1.2 -0.65,-0.75 -0.65,-0.85 -0.05,-0.1 -0.8,-0.85 -0.05,-0.05 13.4,-0.05 2.2,0.1 h 0.85 0.1 1.75 2.35 0.5 l 2.2,-0.05 2.4,-0.3 M -3,21.8 q -1.55,-0.65 -1.75,0.25 l -0.2,0.1 -1.65,0.35 q -0.85,0 -1.85,-1.4 L -9.1,20.45 -9.7,20.1 -10.05,19.95 h -0.05 l -1.35,-0.05 v -0.05 h -0.35 l -4.05,-0.05 h -0.4 l -1,-0.05 V 19.7 h -0.05 -0.1 q -1.35,0.1 -2.3,0.55 l -0.25,0.1 v 0.1 l -0.35,0.25 0.05,-1.15 H -20.4 V 18.5 h 0.45 l 1.25,-0.1 12.35,-0.05 0.8,0.3 1.05,0.35 0.8,0.35 q 0.45,0.2 0.55,0.45 l 0.1,0.45 0.05,0.7 v 0.85 m -17.1,-49.15 -0.2,-1.3 h 42.2 l -0.2,1.3 H 5.3 4.05 3.8 3.6 2.15 0.95 0.65 -0.55 -2 -2.2 -2.45 -3.7 l -2.6,0.05 -3.75,-0.05 h -0.05 -1.35 -0.35 -4.05 -0.4 -1 -2.15 -0.7 m 17.3,-3.25 h -19.25 l -2.15,0.05 -2.95,0.05 h -2.6 q -0.85,-0.55 -0.95,-0.85 l 0.95,0.25 h 28.5 l -1.55,0.5 m -14.25,6.15 38.1,-0.05 0.35,-0.05 v 0.05 l -0.1,1.4 v 1 5.45 0.55 l 0.05,1.25 q -0.6,0.05 -1.1,0.75 l -0.65,0.5 -2.2,0.2 v 0.05 h -0.5 l -2.35,0.05 H 12.8 12.7 l -0.85,0.05 v 0.4 l -0.4,0.05 0.4,0.2 v 0.25 h -29.1 v -0.75 q -0.85,-1.05 -1.1,-1.95 L -19,-17.1 -19.05,-17.05 -19,-18 q 0,-0.7 -0.55,-2.2 l -0.15,0.05 q 0.05,-2.55 0.5,-2.8 l 1.95,-0.9 v -0.55 l 0.2,-0.05 m -2.65,1.9 v -0.55 l -0.1,-1.35 h 0.4 1.9 l -2.2,1.9 m 20.9,0.1 H 1.05 1 q -3.35,0.2 -3.35,3.3 0.6,2.3 3,2.3 h 0.4 0.6 q 2.35,0 3,-2.3 0,-3.1 -3.4,-3.3 H 1.2 m 22.3,49.1 V 26.6 q 0.05,-0.65 0.35,-0.95 l 0.05,-0.05 0.4,-0.65 0.05,-0.1 0.1,-0.3 h 1.8 l 0.15,0.35 0.45,0.75 0.35,0.55 -1.85,-0.1 -0.85,0.15 -1,0.4 m 3.6,1.4 -0.15,0.8 -0.2,1.35 v 0.1 0.1 l -0.4,2.05 -0.05,0.25 H 25.8 V 32.65 H 24.5 24.35 L 24.3,32.45 23.9,30.3 23.7,28.9 v -0.2 h 0.45 0.35 l 2.3,-0.5 0.3,-0.15 m -51.8,-33.9 v -0.6 -1.05 l -0.05,-19.8 0.1,-1.25 2.2,-0.1 h 0.35 1.1 l -0.15,2.8 h -0.4 l -0.25,4.1 0.5,0.9 v 6 l -0.05,5.2 v 0.6 l 0.05,7 v 2.5 9.75 0.55 l -0.05,1.35 -0.1,0.25 -0.1,1.15 0.1,1.15 0.15,0.3 v 4.8 h 0.05 v 0.3 l -0.05,1 v 0.3 l 0.05,0.3 -0.45,0.8 -1.05,0.05 -0.95,-0.05 h -0.5 v 0.05 h -0.05 -0.3 -0.15 v -8.95 l 0.3,-1.1 q 0,-0.75 -0.3,-1.45 V 5.95 l 1.15,-3.85 q 0.15,-0.4 0.15,-3.15 0,-3.85 -0.8,-5.05 l -0.3,0.05 -0.2,0.2 m 18.95,-11.2 0.9,-0.25 2.65,1.2 0.4,-0.45 -0.05,-0.2 Q -2.6,-16.5 -5,-17.55 l -1.35,-0.15 -2.1,0.1 -0.85,0.6 q 0.4,0.4 0.9,0.4 l 1.65,-0.1 q 0,0.3 0.05,0.1 0.25,-0.05 0.6,-0.25 l 0.35,-0.2 m -19.65,43 0.15,-0.3 0.45,-0.75 0.15,-0.35 h 1.8 l 0.1,0.3 0.05,0.1 0.4,0.65 0.05,0.05 h -1.6 l -1.55,0.3 m 3.15,4.05 -0.05,0.3 -0.4,2.15 -0.05,0.2 h -1.45 v 0.05 h -0.5 l -0.05,-0.25 -0.4,-2.05 v -0.1 -0.1 l -0.2,-1.35 -0.05,-0.4 2.55,-0.45 -0.05,0.75 0.65,1.25"
         fill="#bfbfbf"
         fill-rule="evenodd"
         stroke="none"
         id="path9" />
      <path
         d="M 22.95,-32.85 H 7 5.65 -25.1 -29 -29.35 l -1.1,0.85 -0.25,0.55 v 0.1 q 0.1,0.3 0.95,0.85 h 2.6 l 2.95,-0.05 2.15,-0.05 h 19.25 5.95 20.5 l 2.15,0.05 2.95,0.05 h 2.6 q 0.95,-0.6 0.95,-0.95 l -0.25,-0.55 -0.25,-0.2 -0.7,-0.55 -0.15,-0.1 h -8 m 3.4,10.9 v -5.35 l -0.1,-1.25 -2.2,-0.1 H 23.7 22.6 l 0.25,5.55 h 0.05 v 0.85 0.15 7.25 l 0.05,5.2 v 0.6 l -0.05,7 v 2.5 9.75 0.55 l 0.05,1.5 L 22.9,13 v 0.1 6.65 h -0.05 l 0.05,0.7 v 0.6 l -0.05,0.6 0.45,0.8 h 0.1 l 0.95,0.05 h 0.15 l 0.8,-0.05 h 0.5 v 0.05 h 0.05 0.3 0.15 v -24.55 -4.4 -1.05 -3.35 l 0.05,-11.1 m -4.6,10.55 0.75,-0.1 v -15.6 h -0.05 q 0,-0.35 -0.5,-0.25 h -0.05 -0.2 0.2 0.05 q 0.5,-0.1 0.5,0.25 h 0.05 v 15.6 l -0.75,0.1 -1.1,0.05 -1.05,0.05 H 17.4 17.25 -17.5 l -1.55,-0.05 -1.1,-0.05 -0.05,2.1 h -0.1 -0.05 q -0.5,-0.1 -0.5,0.25 H -20.9 V 16.5 l 0.2,0.05 h 0.1 l 0.35,0.05 -0.35,-0.05 h -0.1 L -20.9,16.5 V -9.05 h 0.05 q 0,-0.35 0.5,-0.25 h 0.05 0.1 0.2 16.3 1.25 0.25 0.2 1.45 1.2 0.3 1.2 1.45 0.2 0.25 1.25 16.3 0.2 l -0.05,-2.1 m 0.1,28 0.5,-0.05 0.15,-0.05 V -9.05 h -0.05 q 0,-0.35 -0.5,-0.25 h -0.05 -0.1 0.1 0.05 q 0.5,-0.1 0.5,0.25 H 22.5 V 16.5 l -0.15,0.05 -0.5,0.05 -1.2,0.05 H 20.6 l -1,0.05 H 17.4 17.25 8.6 -3.6 -5.4 -17.25 -17.5 l -1.55,-0.05 h -0.35 l -0.5,-0.05 h -0.35 v 0.65 h -0.15 v 1.25 1.05 h 0.15 l -0.05,1.15 0.35,-0.25 v -0.1 l 0.25,-0.1 q 0.95,-0.45 2.3,-0.55 h 0.1 0.05 v 0.05 l 1,0.05 h 0.4 l 4.05,0.05 h 0.35 v 0.05 l 1.35,0.05 h 0.05 l 0.35,0.15 0.6,0.35 0.65,0.65 q 1,1.4 1.85,1.4 l 1.65,-0.35 0.2,-0.1 q 0.2,-0.9 1.75,-0.25 l 0.2,0.05 0.6,0.25 V 22.05 L -2,22.1 h 0.1 L -0.55,22 v 0.15 h 0.3 l 0.9,-0.05 h 0.3 L 1.9,22.15 H 2.15 V 22 l 1.35,0.1 h 0.1 l 0.2,-0.05 v 0.05 l 0.6,-0.25 q 1.75,-0.75 1.95,0.2 l 0.2,0.1 q 0.6,0.35 1.65,0.35 0.85,0 1.85,-1.4 l 1.1,-0.9 q 0.35,-0.2 0.7,-0.3 v -0.2 h 0.85 0.1 0.7 0.75 0.3 l 2.35,0.05 h 0.5 l 2.2,0.05 0.9,0.15 1.05,0.4 v 0.1 L 21.9,20.7 21.85,19.55 H 22 v -1.5 -0.8 H 21.85 V 16.6 M -20.1,-27.35 h -0.2 -0.05 q -0.5,-0.1 -0.5,0.25 h -0.05 v 15.6 l 0.75,0.1 -0.75,-0.1 v -15.6 h 0.05 q 0,-0.35 0.5,-0.25 h 0.05 0.2 0.7 2.15 1 0.4 4.05 0.35 1.35 0.05 l 3.75,0.05 2.6,-0.05 h 1.25 0.25 0.2 1.45 1.2 0.3 1.2 1.45 0.2 0.25 1.25 16.4 l 0.2,-1.3 h -42.2 l 0.2,1.3 m 41.45,0.9 H 19.7 5.3 4.6 4.05 -2.45 -3 -3.7 -7.55 -9.4 -20 l 0.05,0.25 0.05,0.4 0.1,1.35 0.1,1.35 v 0.55 0.45 1.95 0.6 2.4 0.5 0.45 0.1 l -0.05,3.8 h 0.55 0.1 0.3 0.2 l 1.1,-0.05 h 0.25 29.1 5.55 2.2 l 1.1,0.05 h 0.1 0.35 0.2 v -0.15 -2.4 L 21.3,-16.1 v -0.55 -5.45 -1 l 0.1,-1.4 v -0.05 l 0.1,-1.25 0.05,-0.4 0.05,-0.25 h -0.25 m 11.4,-7.15 q 1.95,1.65 1.7,2.1 l -1.4,1.75 q -1.35,1.3 -2.35,1.3 l -1.9,-0.05 -0.05,1.3 0.05,50.8 -0.3,0.6 -0.1,0.15 0.1,0.2 h -0.85 l 0.25,0.3 q 0.6,0.6 0.85,1.45 l 0.45,3 -0.85,3.75 -0.05,0.1 0.25,0.5 -0.15,0.55 -2.6,0.5 h -0.4 -0.1 -0.8 l -2.1,-0.2 q -0.5,-0.15 -0.5,-0.8 0,-0.45 0.4,-0.7 -0.45,-1.35 -0.75,-3.7 0.1,-2.15 0.4,-3 0.4,-1.05 1.1,-1.75 H 22.2 l 0.15,-0.2 -0.6,-0.2 -0.1,-0.05 Q 21.4,23.9 21.4,23.45 l 0.05,-0.2 -0.1,-0.15 v -0.2 l -0.1,-0.25 Q 20.6,21.85 19.6,21.6 l -2.2,-0.1 -2.85,-0.05 h -0.8 -0.15 l -0.8,0.05 h -0.1 l -0.3,0.05 -1.55,1.4 q -1.25,1.2 -2.2,1.2 L 6.1,23.65 5.4,23.3 4.15,24 v 0.2 H 4.05 3.8 3.6 3.2 2.15 v -0.05 l -1.5,0.05 -1.2,-0.05 V 24.2 H -1.6 -2 -2.2 -2.45 -2.55 V 24 l -1.25,-0.7 -0.7,0.35 q -1.3,0.5 -2.55,0.5 -0.95,0 -2.2,-1.2 l -0.85,-0.8 -1.35,-0.3 -0.35,-0.05 -3.85,-0.25 h -0.2 -0.4 l -1,-0.05 v -0.05 q -1.6,0.1 -2.4,1.2 l -0.1,0.25 v 0.2 l -0.1,0.15 0.05,0.2 q 0,0.45 -0.25,0.65 l -0.1,0.05 -0.6,0.2 0.15,0.2 h -0.85 q 0.7,0.7 1.1,1.75 0.3,0.85 0.4,3 -0.3,2.35 -0.75,3.7 0.4,0.25 0.4,0.7 0,0.65 -0.5,0.8 l -2.9,0.2 h -0.1 -0.4 l -2.6,-0.5 -0.15,-0.55 0.25,-0.5 -0.05,-0.1 -0.85,-3.75 0.45,-3 q 0.25,-0.85 0.85,-1.45 l 0.25,-0.3 h -0.85 l 0.1,-0.2 -0.1,-0.15 -0.3,-0.6 0.05,-50.8 -0.05,-1.3 -1.9,0.05 q -0.5,0 -1.1,-0.35 -0.6,-0.3 -1.25,-0.95 l -1.4,-1.75 q -0.3,-0.55 3,-3.2 h 12.6 1 6.15 0.05 41.5 l 0.8,0.65 0.5,0.45 M 1.2,-22.45 h 0.05 q 3.4,0.2 3.4,3.3 -0.65,2.3 -3,2.3 h -0.6 -0.4 q -2.4,0 -3,-2.3 0,-3.1 3.35,-3.3 H 1.05 1.2 m 0.15,1.3 Q 0.2,-21.2 -0.2,-20.6 l -0.3,0.7 v 0.2 0.05 l 0.05,0.65 q 0.35,0.9 1.8,0.9 1.05,0 1.45,-0.4 0.35,-0.35 0.35,-1.15 0,-1.5 -1.8,-1.5 M 4.6,-8.35 H 4.05 -2.45 -3 h -0.7 -16 v 2.8 4.05 1.45 0.5 3.8 3.45 2.85 0.2 0.8 l -0.05,4.2 2.25,-0.1 h 34.75 0.15 2.2 l 1.75,0.1 -0.05,-4.2 V 10.75 10.55 7.7 4.25 0.45 -0.05 -1.5 -5.55 -8.35 H 5.3 4.6 m 23.05,32.9 -0.2,-0.15 0.2,0.15 M 27.2,26.2 26.85,25.65 26.4,24.9 26.25,24.55 h -1.8 l -0.1,0.3 -0.05,0.1 -0.4,0.65 -0.05,0.05 q -0.3,0.3 -0.35,0.95 v 0.05 0.05 l 0.2,2 v 0.2 l 0.2,1.4 0.4,2.15 0.05,0.2 h 0.15 1.3 v 0.05 h 0.5 l 0.05,-0.25 0.4,-2.05 v -0.1 -0.1 l 0.2,-1.35 0.15,-0.8 0.1,-0.8 0.05,-0.55 -0.05,-0.5 M 11.85,21.45 12.7,21.5 11.85,21.45 m -9.7,2.7 h 0.3 L 3.2,24.2 2.45,24.15 h -0.3 m 26,9.45 0.15,-0.45 -0.15,0.45 m -5.6,0 -0.1,-0.25 -0.15,-0.35 0.15,0.35 0.1,0.25 m -43.7,-59.45 0.15,-2.8 h -1.1 -0.35 l -2.2,0.1 -0.1,1.25 0.05,19.8 v 1.05 0.6 3.8 8 5.05 2.55 8.95 h 0.15 0.3 0.05 v -0.05 h 0.5 l 0.95,0.05 1.05,-0.05 0.45,-0.8 -0.05,-0.3 v -0.3 l 0.05,-1 v -0.3 H -21.3 V 14.95 13 l -0.05,-0.75 V 12.1 l 0.05,-1.35 V 10.2 0.45 -2.05 l -0.05,-7 v -0.6 l 0.05,-5.2 v -6 -1.25 -0.15 -0.85 h 0.05 l 0.1,-2.75 M -1.6,24.2 -0.85,24.15 h 0.3 -0.3 L -1.6,24.2 m -24.45,0.35 0.2,-0.15 -0.2,0.15 m 3.8,1.1 -0.05,-0.05 -0.4,-0.65 -0.05,-0.1 -0.1,-0.3 h -1.8 l -0.15,0.35 -0.45,0.75 -0.15,0.3 -0.25,0.75 0.05,0.55 0.1,0.8 0.1,0.4 0.05,0.4 0.2,1.35 v 0.1 0.1 l 0.4,2.05 0.05,0.25 h 0.5 v -0.05 h 1.45 l 0.05,-0.2 0.4,-2.15 0.05,-0.3 0.1,-0.7 0.05,-0.4 0.1,-0.6 0.05,-0.6 v -0.05 l 0.05,-0.55 v -0.4 -0.1 q -0.05,-0.65 -0.35,-0.95 m 1.3,7.95 0.1,-0.25 0.15,-0.35 -0.15,0.35 -0.1,0.25 m -5.6,0 -0.15,-0.45 0.15,0.45"
         fill="#6b6b6b"
         fill-rule="evenodd"
         stroke="none"
         id="path10" />
      <path
         d="m 21.7,-27.35 h 0.2 0.05 q 0.5,-0.1 0.5,0.25 h 0.05 v 15.6 l -0.75,0.1 -1.1,0.05 -1.05,0.05 H 17.4 17.25 -17.5 l -1.55,-0.05 -1.1,-0.05 -0.75,-0.1 v -15.6 h 0.05 q 0,-0.35 0.5,-0.25 h 0.05 0.2 0.7 2.15 1 0.4 4.05 0.35 1.35 0.05 l 3.75,0.05 2.6,-0.05 h 1.25 M 21.8,-9.3 h 0.1 0.05 q 0.5,-0.1 0.5,0.25 H 22.5 V 16.5 l -0.15,0.05 -0.5,0.05 -1.2,0.05 H 20.6 l -1,0.05 H 17.4 17.25 8.6 -3.6 -5.4 -17.25 -17.5 l -1.55,-0.05 h -0.35 l -0.5,-0.05 h -0.35 l -0.35,-0.05 h -0.1 L -20.9,16.5 V -9.05 h 0.05 q 0,-0.35 0.5,-0.25 h 0.05 0.1 0.2 16.3 1.25 M 21.7,-27.35 H 5.3 4.05 m -0.25,0 H 3.6 2.15 0.95 m -0.3,0 H -0.55 -2 -2.2 m 6,18.05 H 3.6 2.15 0.95 0.65 -0.55 -2 -2.2 m 6.25,0 h 1.25 16.3 0.2"
         fill="none"
         stroke="#6b6b6b"
         stroke-linecap="round"
         stroke-linejoin="round"
         stroke-width="1"
         id="path11" />
      <path
         d="m 32.75,-33.6 q 1.95,1.65 1.7,2.1 l -1.4,1.75 q -1.35,1.3 -2.35,1.3 l -1.9,-0.05 -0.05,1.3 0.05,50.8 -0.3,0.6 -0.1,0.15 0.1,0.2 m -0.85,0 0.25,0.3 q 0.6,0.6 0.85,1.45 l 0.45,3 -0.85,3.75 -0.05,0.1 -0.15,0.45 M 22.3,33 q -0.45,-1.35 -0.75,-3.7 0.1,-2.15 0.4,-3 0.4,-1.05 1.1,-1.75 m -0.85,0 0.15,-0.2 -0.6,-0.2 -0.1,-0.05 Q 21.4,23.9 21.4,23.45 l 0.05,-0.2 -0.1,-0.15 v -0.2 l -0.1,-0.25 Q 20.6,21.85 19.6,21.6 l -2.2,-0.1 -2.85,-0.05 h -0.8 -0.15 l -0.8,0.05 h -0.1 l -0.3,0.05 -1.55,1.4 q -1.25,1.2 -2.2,1.2 L 6.1,23.65 5.4,23.3 4.15,24 v 0.2 H 4.05 3.8 3.6 3.2 2.15 m 0,-0.05 -1.5,0.05 -1.2,-0.05 h -0.3 L -1.6,24.2 H -2 -2.2 -2.45 -2.55 V 24 l -1.25,-0.7 -0.7,0.35 q -1.3,0.5 -2.55,0.5 -0.95,0 -2.2,-1.2 l -0.85,-0.8 -1.35,-0.3 -0.35,-0.05 -3.85,-0.25 h -0.2 -0.4 l -1,-0.05 m 16.7,2.7 H -1.6 m -15.65,-2.75 q -1.6,0.1 -2.4,1.2 l -0.1,0.25 v 0.2 l -0.1,0.15 0.05,0.2 q 0,0.45 -0.25,0.65 l -0.1,0.05 -0.6,0.2 0.15,0.2 m -0.85,0 q 0.7,0.7 1.1,1.75 0.3,0.85 0.4,3 -0.3,2.35 -0.75,3.7 l -0.15,0.35 -0.1,0.25 m -5.75,-0.45 -0.05,-0.1 -0.85,-3.75 0.45,-3 q 0.25,-0.85 0.85,-1.45 l 0.25,-0.3 0.2,-0.15 m -1.05,0.15 0.1,-0.2 -0.1,-0.15 -0.3,-0.6 0.05,-50.8 -0.05,-1.3 -1.9,0.05 q -0.5,0 -1.1,-0.35 -0.6,-0.3 -1.25,-0.95 l -1.4,-1.75 q -0.3,-0.55 3,-3.2 h 12.6 m 1,0 h 6.15 m 0.05,0 h 41.5 l 0.8,0.65 0.5,0.45 m -5.3,58 0.2,0.15 M 3.2,24.2 2.45,24.15 H 2.15 M 12.7,21.5 11.85,21.45 M 22.3,33 l 0.15,0.35 0.1,0.25 m -49.25,-0.45 0.15,0.45"
         fill="none"
         stroke="#6b6b6b"
         stroke-linecap="round"
         stroke-linejoin="round"
         stroke-width="1.5"
         id="path12" />
    </g>
  </defs>
</svg>
