<?xml version="1.0" encoding="UTF-8" standalone="no"?>
<svg
   ffdec:objectType="frame"
   height="59.849998"
   width="66.599998"
   version="1.1"
   id="svg25"
   sodipodi:docname="2.svg"
   xmlns:inkscape="http://www.inkscape.org/namespaces/inkscape"
   xmlns:sodipodi="http://sodipodi.sourceforge.net/DTD/sodipodi-0.dtd"
   xmlns:xlink="http://www.w3.org/1999/xlink"
   xmlns="http://www.w3.org/2000/svg"
   xmlns:svg="http://www.w3.org/2000/svg"
   xmlns:ffdec="https://www.free-decompiler.com/flash">
  <sodipodi:namedview
     id="namedview25"
     pagecolor="#ffffff"
     bordercolor="#000000"
     borderopacity="0.25"
     inkscape:showpageshadow="2"
     inkscape:pageopacity="0.0"
     inkscape:pagecheckerboard="0"
     inkscape:deskcolor="#d1d1d1"
     fit-margin-top="5"
     fit-margin-left="5"
     fit-margin-right="5"
     fit-margin-bottom="5" />
  <g
     transform="translate(33.35,32.6)"
     id="g8">
    <use
       ffdec:characterId="722"
       height="16.35"
       transform="matrix(-0.7987,0,0,0.7987,14.0887,-24.839)"
       width="18.65"
       xlink:href="#sprite0"
       id="use1" />
    <use
       ffdec:characterId="730"
       height="59.849998"
       transform="translate(-33.35,-32.6)"
       width="66.599998"
       xlink:href="#shape3"
       id="use2" />
    <use
       ffdec:characterId="694"
       height="4.0500002"
       transform="matrix(-0.8612,0,0,1,-21.951,-23.95)"
       width="6.4499998"
       xlink:href="#sprite4"
       id="use3" />
    <use
       ffdec:characterId="697"
       height="2.3"
       transform="matrix(0,1,1,0,-15.85,2.15)"
       width="2.55"
       xlink:href="#sprite5"
       id="use4" />
    <use
       ffdec:characterId="706"
       height="1.25"
       transform="matrix(-1,0,0,1.6154,16.35,2.45)"
       width="12.85"
       xlink:href="#sprite6"
       id="use5" />
    <use
       ffdec:characterId="707"
       height="2.3"
       transform="matrix(0,1,1,0,-8.95,2.15)"
       width="2.55"
       xlink:href="#sprite7"
       id="use6" />
    <use
       ffdec:characterId="708"
       height="2.3"
       transform="matrix(0,1,1,0,-1.95,2.15)"
       width="2.55"
       xlink:href="#sprite8"
       id="use7" />
    <use
       ffdec:characterId="44"
       height="8"
       transform="matrix(0.2588,0.9659,0.9659,-0.2588,21.9388,-0.7305)"
       width="10.8"
       xlink:href="#sprite9"
       id="use8" />
  </g>
  <defs
     id="defs25">
    <g
       id="sprite0"
       transform="translate(1.05,0.8)">
      <use
         ffdec:characterId="720"
         height="15.9"
         transform="translate(0.3,-0.8)"
         width="16.85"
         xlink:href="#sprite1"
         id="use9" />
      <use
         ffdec:characterId="721"
         height="13.45"
         transform="matrix(0.8744,0,0,1,-0.9,0.7)"
         width="21.1"
         xlink:href="#sprite2"
         id="use10" />
      <use
         ffdec:characterId="721"
         height="13.45"
         transform="matrix(0.8744,0,0,0.0597,-0.9,-0.15)"
         width="21.1"
         xlink:href="#sprite3"
         id="use11" />
    </g>
    <g
       id="sprite1"
       transform="translate(0.15,0.8)">
      <use
         ffdec:characterId="719"
         height="15.9"
         transform="translate(-0.15,-0.8)"
         width="16.85"
         xlink:href="#shape0"
         id="use12" />
    </g>
    <g
       id="shape0"
       transform="translate(0.15,0.8)">
      <path
         d="m 14.15,-0.75 q 2.35,-0.05 1.95,3.3 -0.65,4.4 0,5.5 0.7,1.2 0.55,2.8 l -0.35,2.5 q 0,0.85 -0.55,1.4 L 15.1,15.1 H 14.8 V 14.95 H 5.85 L 2.55,15.1 Q 0.5,15.15 -0.15,12.6 V 0.85 Q 0.25,-0.6 3.9,-0.8 L 8,-0.75 h 6.15 M 8.4,8.2 q -0.55,0 -1.05,0.6 v 1.5 q 0.35,0.65 1.15,0.65 1.45,0 1.7,-1.35 0.35,-1.4 -1.8,-1.4 m 0.7,3.35 Q 8.2,11.8 8.2,12.1 l 0.3,0.35 q 1.95,-0.25 1.95,-1.1 h -0.4 L 9.1,11.55 M 8.4,8.95 H 8.5 Q 9.4,8.9 9.2,9.5 9,10.15 8.4,10.15 V 8.95 M 9.55,6.3 8.5,6.45 7.45,6.75 7.5,7 8.55,7.2 Q 9.7,7.2 9.8,6.4 L 9.85,6.35 9.55,6.3 m -6,4.15 0.85,0.05 Q 5.2,10.5 5.55,10 5.45,9.6 4.85,9.6 l -1.6,0.55 0.3,0.3 m 0.05,1.4 q 0.45,0.4 1.25,0.4 2,0 1.8,-1 -1.8,0 -3.05,0.6 M 3.4,8.8 h 0.85 q 1.3,0 2.3,-0.6 L 5.85,7.85 5.4,7.75 4.25,7.85 Q 3.2,8.05 3.2,8.35 L 3.4,8.8 M 4.15,4.45 q -1.6,0 -1.6,1.55 0,0.55 0.7,1.05 L 4.2,7.5 Q 5.8,7.5 6.05,6 6.2,4.45 4.15,4.45 M 3.55,6 3.6,5.35 4.15,5.25 q 0.5,0 0.9,0.8 0.35,0.8 -0.3,0.8 L 4.25,6.8 Q 3.55,6.6 3.55,6 m 0.9,-3.65 -0.9,0.1 q -0.8,0.1 -0.8,0.35 0,0.4 0.15,0.3 L 3.85,3.25 4.75,3 5.4,2.65 Q 5.05,2.35 4.45,2.35 M 6.65,5.2 7.1,5.7 8.55,5.55 9.75,4.9 8.7,4.6 Q 7.35,4.6 6.65,5.2 M 5.55,0.85 V 0.8 L 5.25,0.75 Q 3.1,0.75 2.4,1.2 L 2.75,1.65 4.5,1.7 q 1,0 1.05,-0.85 M 9.65,2.5 Q 9.8,1.15 8.1,1.15 L 7.45,1.2 Q 6.8,1.5 6.8,2.7 q 0,1.15 1.4,1.15 1.2,0 1.45,-1.35 M 8.15,2.05 8.4,2.2 8.45,2.55 8.35,3.1 q -0.2,-0.2 -0.5,-0.3 0,-0.6 0.3,-0.75 m 2.7,8.7 v 0.15 l 0.2,0.05 h 1.05 l 0.95,-0.1 q 0.65,-0.1 0.8,-0.4 Q 13.6,10 12.7,10 q -1.55,0 -1.85,0.75 m 1.35,1.35 -1.05,0.15 -0.8,0.3 0.85,0.2 2.3,-0.35 V 12.1 H 12.2 M 10.45,6.6 10.5,6.85 11.8,7 13,6.95 q 0.7,-0.2 0.35,-0.8 l -1.5,0.05 q -0.85,0 -1.4,0.4 m 3.05,1.9 0.15,-0.6 h -2.6 l -0.1,0.05 -0.1,0.3 0.2,0.4 2.45,-0.15 m -3.05,-4 q 0,1.3 1.65,1.3 1,0 1.35,-1.25 Q 13.75,3.3 11.8,3.3 10.45,3.2 10.45,4.5 m 1.4,-0.3 0.6,0.1 V 5.05 H 12.2 q -0.6,0 -0.7,-0.45 l 0.35,-0.4 m -1.4,-1.95 0.05,0.25 2,0.2 q 0.7,0 0.85,-0.5 0.05,-0.55 -0.75,-0.55 -2.15,0 -2.15,0.6"
         fill="#707070"
         fill-rule="evenodd"
         stroke="none"
         id="path12" />
      <path
         d="m 10.45,2.25 q 0,-0.6 2.15,-0.6 0.8,0 0.75,0.55 -0.15,0.5 -0.85,0.5 l -2,-0.2 -0.05,-0.25 m 1.4,1.95 -0.35,0.4 q 0.1,0.45 0.7,0.45 h 0.25 V 4.3 l -0.6,-0.1 m -1.4,0.3 q 0,-1.3 1.35,-1.2 1.95,0 1.65,1.25 Q 13.1,5.8 12.1,5.8 10.45,5.8 10.45,4.5 m 3.05,4 -2.45,0.15 -0.2,-0.4 0.1,-0.3 0.1,-0.05 h 2.6 L 13.5,8.5 M 10.45,6.6 Q 11,6.2 11.85,6.2 l 1.5,-0.05 Q 13.7,6.75 13,6.95 L 11.8,7 10.5,6.85 10.45,6.6 m 1.75,5.5 h 1.3 v 0.3 l -2.3,0.35 -0.85,-0.2 0.8,-0.3 1.05,-0.15 M 10.85,10.75 Q 11.15,10 12.7,10 q 0.9,0 1.15,0.45 -0.15,0.3 -0.8,0.4 l -0.95,0.1 H 11.05 L 10.85,10.9 V 10.75 M 8.15,2.05 Q 7.85,2.2 7.85,2.8 8.15,2.9 8.35,3.1 L 8.45,2.55 8.4,2.2 8.15,2.05 M 9.65,2.5 Q 9.4,3.85 8.2,3.85 6.8,3.85 6.8,2.7 6.8,1.5 7.45,1.2 L 8.1,1.15 q 1.7,0 1.55,1.35 M 5.55,0.85 Q 5.5,1.7 4.5,1.7 L 2.75,1.65 2.4,1.2 Q 3.1,0.75 5.25,0.75 L 5.55,0.8 V 0.85 M 6.65,5.2 Q 7.35,4.6 8.7,4.6 L 9.75,4.9 8.55,5.55 7.1,5.7 6.65,5.2 M 4.45,2.35 q 0.6,0 0.95,0.3 L 4.75,3 3.85,3.25 2.9,3.1 Q 2.75,3.2 2.75,2.8 q 0,-0.25 0.8,-0.35 l 0.9,-0.1 M 3.55,6 q 0,0.6 0.7,0.8 l 0.5,0.05 q 0.65,0 0.3,-0.8 -0.4,-0.8 -0.9,-0.8 L 3.6,5.35 3.55,6 M 4.15,4.45 Q 6.2,4.45 6.05,6 5.8,7.5 4.2,7.5 L 3.25,7.05 Q 2.55,6.55 2.55,6 2.55,4.45 4.15,4.45 M 3.4,8.8 3.2,8.35 q 0,-0.3 1.05,-0.5 l 1.15,-0.1 0.45,0.1 0.7,0.35 q -1,0.6 -2.3,0.6 H 3.4 m 0.2,3.05 q 1.25,-0.6 3.05,-0.6 0.2,1 -1.8,1 -0.8,0 -1.25,-0.4 m -0.05,-1.4 -0.3,-0.3 1.6,-0.55 q 0.6,0 0.7,0.4 Q 5.2,10.5 4.4,10.5 L 3.55,10.45 M 9.55,6.3 9.85,6.35 9.8,6.4 Q 9.7,7.2 8.55,7.2 L 7.5,7 7.45,6.75 8.5,6.45 9.55,6.3 M 8.4,8.95 v 1.2 Q 9,10.15 9.2,9.5 9.4,8.9 8.5,8.95 H 8.4 m 0.7,2.6 0.95,-0.2 h 0.4 q 0,0.85 -1.95,1.1 L 8.2,12.1 q 0,-0.3 0.9,-0.55 M 8.4,8.2 q 2.15,0 1.8,1.4 -0.25,1.35 -1.7,1.35 -0.8,0 -1.15,-0.65 V 8.8 Q 7.85,8.2 8.4,8.2"
         fill="#959595"
         fill-rule="evenodd"
         stroke="none"
         id="path13" />
    </g>
    <g
       id="sprite2">
      <use
         ffdec:characterId="55"
         height="13.45"
         width="21.1"
         xlink:href="#shape1"
         id="use13" />
    </g>
    <g
       id="shape1">
      <path
         d="M 21.1,0 V 13.45 H 0 V 0 h 21.1"
         fill="#e5e5e5"
         fill-opacity="0.0980392"
         fill-rule="evenodd"
         stroke="none"
         id="path14" />
    </g>
    <g
       id="sprite3">
      <use
         ffdec:characterId="55"
         height="13.45"
         width="21.1"
         xlink:href="#shape2"
         id="use14" />
    </g>
    <g
       id="shape2">
      <path
         d="M 21.1,0 V 13.45 H 0 V 0 h 21.1"
         fill="#e5e5e5"
         fill-opacity="0.247059"
         fill-rule="evenodd"
         stroke="none"
         id="path15" />
    </g>
    <g
       id="shape3"
       transform="translate(33.35,32.6)">
      <path
         d="m 21.85,-26.05 -0.05,0.1 0.15,0.45 2.3,0.15 2.45,0.15 h 0.15 l 0.7,-0.1 0.15,-0.7 v -0.05 l 1.8,-0.3 -0.2,6.15 -0.1,2.25 -0.15,4.35 -0.2,-0.05 H 28.7 l -3.3,-0.15 -2.15,-0.1 H 17.5 v -12.15 h 4.35 m -22.45,0 -0.15,0.1 q -0.45,0.25 -0.45,1 v 0.05 q 0.1,7.5 0.5,10.4 l -0.25,0.65 0.25,0.65 0.4,0.35 0.2,0.15 h 0.05 l 0.4,0.1 H 12 q -0.4,0 0.05,-0.1 l 0.2,0.1 0.25,0.05 q 0.2,0.2 0.45,0.2 h 0.15 l 0.55,0.15 -0.55,-0.2 q 0.45,-0.2 0.65,-1.45 l 0.2,-1.6 v -3.2 l -0.05,-4.25 -0.25,-1.85 q -0.25,-1.2 -0.7,-1.2 l -0.3,0.15 -0.15,-0.1 -6.35,0.1 -3.1,-0.15 -2.35,0.15 -0.45,-0.25 h 15.1 l 0.05,12.7 0.05,0.5 0.3,0.2 q 0.15,0.4 0.55,0.5 l 0.95,0.1 2.95,0.05 4.85,-0.05 3.95,-0.25 v 0.55 0.75 3.2 0.15 0.1 h -58.1 v -0.1 -0.15 -3.2 -0.75 -0.55 l 8.8,0.3 3.9,-0.15 q 0.4,-0.1 0.55,-0.5 l 0.3,-0.2 0.05,-0.5 0.05,-12.7 H -0.6 m 19.05,10.75 -0.1,0.4 q 0,0.5 0.1,0.4 0.3,0.2 0.55,0.25 l 0.7,-0.65 -0.25,-0.5 -0.9,-0.1 -0.1,0.2 m -38.35,14.4 1.7,0.1 0.1,0.05 0.15,-0.05 8.4,0.1 4.25,-0.05 h 4 5 q 9.7,0.2 13.6,-0.25 l 0.05,0.1 0.65,0.15 0.45,-0.4 0.2,-0.05 1.15,-0.4 v 1.05 0.4 1.25 3.65 0.3 0.8 l 0.15,2 0.05,0.5 H 4.55 4.1 -4.2 -4.7 -20.1 v -0.1 l 0.15,-2.4 h 0.05 V 5.05 4.75 1.1 -0.15 -0.55 -0.9 m 41.7,-23.45 -0.15,0.35 0.1,0.45 0.4,0.1 3.8,0.25 0.45,0.1 0.8,0.1 0.65,-0.6 q 0,-0.55 -0.6,-0.7 l -0.65,-0.1 h -4.45 l -0.35,0.05 m 4.45,2.25 q -1.15,0.15 -1.15,1.1 0,0.35 0.35,0.75 l 0.6,0.4 h 0.2 q 0.8,0 1.05,-0.6 l 0.1,-0.6 q 0,-1.2 -1.15,-1.05 m -3.5,-0.05 q -0.9,0.05 -0.9,0.8 0,0.25 0.25,0.6 0.3,0.35 0.65,0.35 0.9,0 0.9,-0.95 0,-0.85 -0.9,-0.8 m -45.1,18.05 0.35,0.5 0.2,0.15 -0.05,0.25 -0.1,2.65 v 0.45 1.2 3.65 0.3 0.8 l 0.2,2.4 0.1,0.45 q -0.4,0.25 -0.4,0.65 0,1.05 1.85,1.1 h 40.3 q 1.85,-0.05 1.85,-1.1 0,-0.4 -0.4,-0.65 l 0.1,-0.85 0.1,-2 H 21.8 V 5.2 4.75 L 21.85,1.1 v -1.2 -0.45 l -0.1,-2.4 -0.05,-0.5 0.55,-0.65 -0.4,-0.2 Q 21.5,-4.45 21.5,-4.85 h -0.2 q -0.2,-0.35 -0.5,-0.2 l -0.25,0.2 h -41.2 l -0.25,-0.2 q -0.3,-0.15 -0.5,0.2 h -0.2 q 0,0.4 -0.35,0.55 l -0.4,0.2 M -29.1,6.05 V -6.35 H 29 V -6.1 6.05 L 28.8,9.2 28.65,11.5 28.6,11.95 V 12.2 H -28.7 L -29.1,6.05 M 7.8,16.3 H 23.25 V 17 17.6 H 7.9 L 7.8,16.3 M 17.7,7.1 18.1,7.05 18.4,6.8 18.45,6.3 18.3,5.85 h -1 l -0.35,0.45 0.1,0.5 q 0.15,0.3 0.65,0.3 m -47.35,-33.2 0.35,0.05 h 1.5 V -26 l 0.15,0.7 0.7,0.1 2.6,-0.15 2.3,-0.15 0.15,-0.45 -0.05,-0.1 h 4.35 v 12.15 h -5.75 l -5.6,0.25 -0.2,0.05 -0.25,-6.6 -0.25,-5.9 m 23.2,1.2 -0.4,0.75 -0.15,0.65 v 8.75 l -0.05,0.2 0.05,0.45 0.6,0.25 q 0.8,-0.65 0.8,-2.5 l -0.15,-3.1 -0.1,-3.15 q -0.1,-1.8 -0.3,-2.3 l -0.1,-0.2 -0.2,0.2 m 2.6,0.1 q -0.45,0.15 -0.45,0.9 0,0.95 1,0.95 0.7,0 0.9,-0.6 l 0.05,-0.4 q 0,-0.7 -0.6,-0.9 l -0.4,-0.05 -0.5,0.1 m -18.4,7.35 0.4,-0.1 0.1,-0.45 -0.15,-0.35 -0.35,-0.05 q -4,-0.15 -5.1,0.1 -0.6,0.15 -0.6,0.7 l 0.65,0.6 1.25,-0.2 3.8,-0.25 M -4.75,-21 q 0,0.45 0.35,0.75 h 0.05 l 0.6,0.2 q 0.65,0 0.9,-0.6 l 0.1,-0.4 q 0,-0.95 -1,-0.95 l -0.65,0.15 q -0.35,0.2 -0.35,0.85 m 0.3,2.2 -0.15,0.65 0.1,0.45 0.3,0.3 0.6,0.2 q 0.75,0 0.95,-0.6 l 0.05,-0.4 q 0,-0.95 -1,-0.95 -0.6,-0.05 -0.85,0.35 m 1.8,3.85 q 0,-1.1 -1.1,-1.1 -0.6,0 -0.9,0.35 l -0.2,0.75 0.15,0.7 q 0.25,0.4 0.95,0.4 0.75,0 1,-0.6 l 0.1,-0.5 M -23.35,17 V 16.3 H -7.9 L -8,17.6 H -23.35 V 17 m 5.15,-9.95 0.4,0.05 q 0.5,0 0.65,-0.3 l 0.1,-0.5 -0.35,-0.45 h -1.05 l -0.1,0.45 0.05,0.5 0.3,0.25 m -1.35,-22.45 -0.25,0.5 0.7,0.65 q 0.25,-0.05 0.55,-0.25 0.1,0.1 0.1,-0.4 l -0.1,-0.4 -0.1,-0.2 -0.9,0.1"
         fill="#989898"
         fill-rule="evenodd"
         stroke="none"
         id="path16" />
      <path
         d="M 27.7,-26.05 V -26 l -0.15,0.7 -0.7,0.1 H 26.7 l -2.45,-0.15 -2.3,-0.15 -0.15,-0.45 0.05,-0.1 0.1,-0.25 4.65,-0.3 h 0.2 q 0.85,0 0.9,0.55 m -10.2,0 v 12.15 h 5.75 l 2.15,0.1 3.3,0.15 h 0.15 l 0.2,0.05 0.15,-4.35 0.1,-2.25 0.2,-6.15 0.1,-2.55 v -0.45 l -0.35,0.05 -1.85,0.2 -2.6,0.05 h -7.2 l -0.1,1 v 2 m -49.35,-6.35 0.5,-0.2 H 31.2 l 0.55,0.2 q 0.9,0 1.3,1.9 l 0.15,1.05 0.05,36.9 -0.05,4.65 v 0.2 0.1 0.05 q 0,1.65 -0.4,2.6 -0.3,1.35 -0.9,1.5 l -1.1,0.3 -4.05,-0.3 V 17 l -0.05,2.05 0.05,0.45 q 0,2.1 -3.5,1.9 h -2.4 l 0.1,1.15 -0.45,2.5 q 0,1.4 -1.5,1.95 l -0.95,0.25 H 9.4 q -0.85,-0.6 -1.2,-2 L 8,21.9 V 21.4 H 6.35 l -0.8,-0.15 q -1.05,-0.2 -1.3,-1.6 v -1.8 L 4.3,16.3 h -8.7 l 0.05,1.55 v 1.8 q -0.25,1.4 -1.3,1.6 l -0.8,0.15 H -8.1 v 0.5 l -0.2,3.35 q -0.35,1.35 -1.15,1.95 l -0.1,0.05 h -8.6 L -18.4,27.2 -19.1,27 q -1.5,-0.55 -1.5,-1.95 l -0.45,-2.5 0.1,-1.15 h -2.4 q -3.5,0.2 -3.5,-1.9 L -26.8,19.05 -26.85,17 v -0.45 l -4.05,0.3 -1.1,-0.3 q -0.6,-0.15 -0.9,-1.5 -0.4,-0.95 -0.4,-2.6 V 12.4 12.3 12.1 l -0.05,-4.65 0.05,-36.9 q 0.3,-2.95 1.45,-2.95 m 32.1,6.35 0.45,0.25 2.35,-0.15 3.1,0.15 6.35,-0.1 0.15,0.1 0.3,-0.15 q 0.45,0 0.7,1.2 l 0.25,1.85 0.05,4.25 v 3.2 l -0.2,1.6 q -0.2,1.25 -0.65,1.45 l 0.55,0.2 -0.55,-0.15 h -0.15 q -0.25,0 -0.45,-0.2 l -0.25,-0.05 -0.2,-0.1 Q 11.6,-12.6 12,-12.6 H 0.35 l -0.4,-0.1 H -0.1 l -0.2,-0.15 -0.4,-0.35 -0.25,-0.65 0.25,-0.65 q -0.4,-2.9 -0.5,-10.4 v -0.05 q 0,-0.75 0.45,-1 l 0.15,-0.1 0.5,-0.05 0.35,0.05 m -15.7,0 -0.05,12.7 -0.05,0.5 -0.3,0.2 q -0.15,0.4 -0.55,0.5 l -3.9,0.15 -8.8,-0.3 v 0.55 0.75 3.2 0.15 0.1 H 29 v -0.1 -0.15 -3.2 -0.75 -0.55 l -3.95,0.25 -4.85,0.05 -2.95,-0.05 -0.95,-0.1 q -0.4,-0.1 -0.55,-0.5 l -0.3,-0.2 -0.05,-0.5 -0.05,-12.7 v -1.05 -0.8 -0.3 -0.85 h -30.8 v 1.95 1.05 m 34.9,-1.85 0.15,0.25 0.1,0.25 -0.7,0.6 -0.55,-0.2 q -0.1,0.05 -0.1,-0.45 v -0.2 l 0.1,-0.2 0.1,-0.15 0.9,0.1 M 1.7,-23.65 H 1 q -0.05,5.9 -0.4,8.6 H 10.75 V -15 h 0.7 l -0.1,-1.3 v -3.8 l 0.2,-3.95 -9.85,0.4 m 16.75,8.35 0.1,-0.2 0.9,0.1 0.25,0.5 -0.7,0.65 q -0.25,-0.05 -0.55,-0.25 -0.1,0.1 -0.1,-0.4 l 0.1,-0.4 M 19.8,-1.6 19.95,-3.15 20,-3.3 h -40.1 l 0.2,2.4 v 0.35 0.4 1.25 3.65 0.3 0.8 h -0.05 l -0.15,2.4 v 0.1 H -4.7 -4.2 4.1 4.55 20 l -0.05,-0.5 -0.15,-2 V 5.05 4.75 1.1 -0.15 -0.55 -1.6 m -38,0.8 -0.6,-0.7 0.1,-0.5 q 0.65,-0.4 1.35,0.5 l -0.1,0.6 -0.5,0.1 -0.15,0.05 -0.1,-0.05 M 17.3,-1 17.25,-1.5 q 0.7,-0.9 1.35,-0.5 l 0.1,0.5 -0.25,0.35 L 18,-0.75 17.35,-0.9 17.3,-1 m 5.45,-21.15 q 0.9,-0.05 0.9,0.8 0,0.95 -0.9,0.95 -0.35,0 -0.65,-0.35 -0.25,-0.35 -0.25,-0.6 0,-0.75 0.9,-0.8 m 3.5,0.05 q 1.15,-0.15 1.15,1.05 l -0.1,0.6 q -0.25,0.6 -1.05,0.6 h -0.2 l -0.6,-0.4 q -0.35,-0.4 -0.35,-0.75 0,-0.95 1.15,-1.1 m -4.45,-2.25 0.35,-0.05 h 4.45 l 0.65,0.1 q 0.6,0.15 0.6,0.7 l -0.65,0.6 -0.8,-0.1 -0.45,-0.1 -3.8,-0.25 -0.4,-0.1 -0.1,-0.45 0.15,-0.35 m -44.15,20.25 0.4,-0.2 q 0.35,-0.15 0.35,-0.55 h 0.2 q 0.2,-0.35 0.5,-0.2 l 0.25,0.2 h 41.2 l 0.25,-0.2 q 0.3,-0.15 0.5,0.2 h 0.2 q 0,0.4 0.35,0.55 l 0.4,0.2 -0.55,0.65 0.05,0.5 0.1,2.4 V -0.1 1.1 L 21.8,4.75 V 5.2 5.85 h -0.05 l -0.1,2 -0.1,0.85 q 0.4,0.25 0.4,0.65 0,1.05 -1.85,1.1 h -40.3 q -1.85,-0.05 -1.85,-1.1 0,-0.4 0.4,-0.65 l -0.1,-0.45 -0.2,-2.4 V 5.05 4.75 1.1 -0.1 -0.55 l 0.1,-2.65 0.05,-0.25 -0.2,-0.15 -0.35,-0.5 M 17.7,7.1 q -0.5,0 -0.65,-0.3 L 16.95,6.3 17.3,5.85 h 1 L 18.45,6.3 18.4,6.8 18.1,7.05 17.7,7.1 m -9.9,9.2 0.1,1.3 H 23.25 V 17 16.3 H 7.8 M -29.1,6.05 -28.7,12.2 H 28.6 V 11.95 L 28.65,11.5 28.8,9.2 29,6.05 V -6.1 -6.35 h -58.1 v 12.4 m 11.5,-32.1 v -2 l -0.1,-1 h -7.2 l -2.65,-0.05 -2.15,-0.25 0.05,3.25 0.25,5.9 0.25,6.6 0.2,-0.05 5.6,-0.25 h 5.75 v -12.15 m -10.2,0 q 0.05,-0.6 1.1,-0.55 l 4.65,0.3 0.1,0.25 0.05,0.1 -0.15,0.45 -2.3,0.15 -2.6,0.15 -0.7,-0.1 -0.15,-0.7 v -0.05 m 9.25,-1.8 0.1,0.35 v 0.05 q 0,0.5 -0.1,0.45 l -0.55,0.2 -0.7,-0.6 v -0.1 l 0.25,-0.4 0.9,-0.1 0.1,0.15 m 14.7,3.05 0.5,-0.1 0.4,0.05 q 0.6,0.2 0.6,0.9 l -0.05,0.4 q -0.2,0.6 -0.9,0.6 -1,0 -1,-0.95 0,-0.75 0.45,-0.9 m -2.6,-0.1 0.2,-0.2 0.1,0.2 q 0.2,0.5 0.3,2.3 l 0.1,3.15 0.15,3.1 q 0,1.85 -0.8,2.5 L -7,-14.1 -7.05,-14.55 -7,-14.75 v -8.75 l 0.15,-0.65 0.4,-0.75 m -15.8,7.45 -3.8,0.25 -1.25,0.2 -0.65,-0.6 q 0,-0.55 0.6,-0.7 1.1,-0.25 5.1,-0.1 l 0.35,0.05 0.15,0.35 -0.1,0.45 -0.4,0.1 m 19.6,2.5 -0.1,0.5 q -0.25,0.6 -1,0.6 -0.7,0 -0.95,-0.4 l -0.15,-0.7 0.2,-0.75 q 0.3,-0.35 0.9,-0.35 1.1,0 1.1,1.1 m -1.8,-3.85 q 0.25,-0.4 0.85,-0.35 1,0 1,0.95 l -0.05,0.4 q -0.2,0.6 -0.95,0.6 l -0.6,-0.2 -0.3,-0.3 -0.1,-0.45 0.15,-0.65 m -0.3,-2.2 q 0,-0.65 0.35,-0.85 L -3.75,-22 q 1,0 1,0.95 l -0.1,0.4 q -0.25,0.6 -0.9,0.6 l -0.6,-0.2 H -4.4 q -0.35,-0.3 -0.35,-0.75 m -14.8,5.6 0.9,-0.1 0.1,0.2 0.1,0.4 q 0,0.5 -0.1,0.4 -0.3,0.2 -0.55,0.25 l -0.7,-0.65 0.25,-0.5 m 1.35,22.45 -0.3,-0.25 -0.05,-0.5 0.1,-0.45 h 1.05 l 0.35,0.45 -0.1,0.5 Q -17.3,7.1 -17.8,7.1 L -18.2,7.05 M -23.35,17 v 0.6 H -8 l 0.1,-1.3 H -23.35 V 17"
         fill="#6b6b6b"
         fill-rule="evenodd"
         stroke="none"
         id="path17" />
      <path
         d="M 21.85,-26.05 H 17.5 v -2 l 0.1,-1 h 7.2 l 2.6,-0.05 1.85,-0.2 0.35,-0.05 v 0.45 l -0.1,2.55 -1.8,0.3 q -0.05,-0.55 -0.9,-0.55 h -0.2 l -4.65,0.3 -0.1,0.25 m -22.45,0 h -14.85 v -1.05 -1.95 h 30.8 v 0.85 0.3 0.8 1.05 H 0.25 l -0.35,-0.05 -0.5,0.05 m 20.05,-1.85 -0.9,-0.1 -0.1,0.15 -0.1,0.2 v 0.2 q 0,0.5 0.1,0.45 l 0.55,0.2 0.7,-0.6 -0.1,-0.25 -0.15,-0.25 m -39.35,27 -0.2,-2.4 H 20 l -0.05,0.15 -0.15,1.55 -1.15,0.4 -0.2,0.05 L 18.7,-1.5 18.6,-2 q -0.65,-0.4 -1.35,0.5 L 17.3,-1 q -3.9,0.45 -13.6,0.25 h -5 -4 l -4.25,0.05 -8.4,-0.1 0.5,-0.1 0.1,-0.6 q -0.7,-0.9 -1.35,-0.5 l -0.1,0.5 0.6,0.7 -1.7,-0.1 m -9.75,-25.2 -0.05,-3.25 2.15,0.25 2.65,0.05 h 7.2 l 0.1,1 v 2 h -4.35 l -0.1,-0.25 -4.65,-0.3 q -1.05,-0.05 -1.1,0.55 h -1.5 l -0.35,-0.05 m 11.1,-1.75 -0.1,-0.15 -0.9,0.1 -0.25,0.4 v 0.1 l 0.7,0.6 0.55,-0.2 q 0.1,0.05 0.1,-0.45 v -0.05 l -0.1,-0.35"
         fill="#b8b8b8"
         fill-rule="evenodd"
         stroke="none"
         id="path18" />
    </g>
    <g
       id="sprite4"
       transform="translate(3.25,2.05)">
      <use
         ffdec:characterId="691"
         height="4.0500002"
         transform="translate(-3.25,-2.05)"
         width="6.4499998"
         xlink:href="#shape4"
         id="use18" />
    </g>
    <g
       id="shape4"
       transform="translate(3.25,2.05)">
      <path
         d="M -3.25,-1.85 V -2 L 3.2,-2.05 v 4 h -4 L -3.2,2 -3.15,0.5 V 0 l -0.1,-1.85"
         fill="#ffffff"
         fill-rule="evenodd"
         stroke="none"
         id="path19" />
    </g>
    <g
       id="sprite5"
       transform="translate(1.3,1.15)">
      <use
         ffdec:characterId="695"
         height="2.3"
         transform="translate(-1.3,-1.15)"
         width="2.55"
         xlink:href="#shape5"
         id="use19" />
    </g>
    <g
       id="shape5"
       transform="translate(1.3,1.15)">
      <path
         d="m 1.25,-0.3 v 0.25 q 0,1.2 -1.3,1.2 L -0.45,1.1 Q -1,1 -1.2,0.55 l -0.05,-0.5 -0.05,-0.1 0.05,-0.25 0.2,-0.55 q 0.3,-0.4 1.05,-0.3 l 0.95,0.35 0.3,0.5"
         fill="#ffffff"
         fill-rule="evenodd"
         stroke="none"
         id="path20" />
    </g>
    <g
       id="sprite6"
       transform="translate(6.3,0.65)">
      <use
         ffdec:characterId="698"
         height="1.25"
         transform="translate(-6.3,-0.65)"
         width="12.85"
         xlink:href="#shape6"
         id="use20" />
    </g>
    <g
       id="shape6"
       transform="translate(6.3,0.65)">
      <path
         d="M -3.65,-0.65 H 6.3 L 6.55,-0.6 V 0.55 L 6.3,0.6 h -9.95 v -1.25"
         fill="#6b6b6b"
         fill-rule="evenodd"
         stroke="none"
         id="path21" />
      <path
         d="m -3.65,0.6 h -1.6 v -1.25 h 1.6 V 0.6"
         fill="#999999"
         fill-rule="evenodd"
         stroke="none"
         id="path22" />
      <path
         d="m -5.25,0.6 h -1 L -6.3,0.55 v -1.2 h 1.05 V 0.6"
         fill="#cccccc"
         fill-rule="evenodd"
         stroke="none"
         id="path23" />
    </g>
    <g
       id="sprite7"
       transform="translate(1.3,1.15)">
      <use
         ffdec:characterId="696"
         height="2.3"
         transform="translate(-1.3,-1.15)"
         width="2.55"
         xlink:href="#shape7"
         id="use23" />
    </g>
    <g
       id="shape7"
       transform="translate(1.3,1.15)">
      <path
         d="m 1.25,-0.05 q 0,1.2 -1.3,1.2 L -0.45,1.1 Q -1,1 -1.2,0.55 l -0.05,-0.5 -0.05,-0.1 0.05,-0.25 0.2,-0.55 q 0.3,-0.4 1.05,-0.3 l 0.95,0.35 0.3,0.5 v 0.25"
         fill="#6b6b6b"
         fill-rule="evenodd"
         stroke="none"
         id="path24" />
    </g>
    <g
       id="sprite8"
       transform="translate(1.3,1.15)">
      <use
         ffdec:characterId="695"
         height="2.3"
         transform="translate(-1.3,-1.15)"
         width="2.55"
         xlink:href="#shape5"
         id="use24" />
    </g>
    <g
       id="sprite9"
       transform="translate(5.4,4)">
      <use
         ffdec:characterId="43"
         height="8"
         transform="translate(-5.4,-4)"
         width="10.8"
         xlink:href="#shape8"
         id="use25" />
    </g>
    <g
       id="shape8"
       transform="translate(5.4,4)">
      <path
         d="m 2.9,-0.35 q 0,-1.25 1.25,-1.25 1.25,0 1.25,1.2 0,1.3 -1.25,1.3 Q 3.6,0.9 3.25,0.5 2.9,0.15 2.9,-0.35 m 0.35,-2.3 q 0,0.55 -0.35,0.9 -0.4,0.45 -1,0.45 -1.35,0 -1.35,-1.4 0,-1.3 1.35,-1.3 1.35,0 1.35,1.35 m -3.1,1.9 h 0.2 q 2.6,0.1 2.6,2.8 l -0.3,1 Q 2.05,4 0.45,4 H 0.35 0.15 0.1 -0.45 q -1.6,0 -2.2,-0.95 l -0.3,-1 q 0,-2.8 2.8,-2.8 h 0.3 M -1.55,-4 q 1.35,0 1.35,1.35 0,0.55 -0.4,0.9 -0.4,0.45 -0.95,0.45 -1.4,0 -1.4,-1.4 0,-1.3 1.4,-1.3 m -2.6,2.4 q 1.25,0 1.25,1.25 0,0.5 -0.35,0.85 -0.35,0.4 -0.9,0.4 -1.25,0 -1.25,-1.3 0,-1.2 1.25,-1.2"
         fill="#6b6b6b"
         fill-rule="evenodd"
         stroke="none"
         id="path25" />
    </g>
  </defs>
</svg>
