<?xml version="1.0" encoding="UTF-8" standalone="no"?>
<svg
   ffdec:objectType="frame"
   height="29.292185"
   width="41.562527"
   version="1.1"
   id="svg14"
   sodipodi:docname="2.svg"
   xmlns:inkscape="http://www.inkscape.org/namespaces/inkscape"
   xmlns:sodipodi="http://sodipodi.sourceforge.net/DTD/sodipodi-0.dtd"
   xmlns:xlink="http://www.w3.org/1999/xlink"
   xmlns="http://www.w3.org/2000/svg"
   xmlns:svg="http://www.w3.org/2000/svg"
   xmlns:ffdec="https://www.free-decompiler.com/flash">
  <sodipodi:namedview
     id="namedview14"
     pagecolor="#ffffff"
     bordercolor="#000000"
     borderopacity="0.25"
     inkscape:showpageshadow="2"
     inkscape:pageopacity="0.0"
     inkscape:pagecheckerboard="0"
     inkscape:deskcolor="#d1d1d1"
     fit-margin-top="5"
     fit-margin-left="5"
     fit-margin-right="5"
     fit-margin-bottom="5" />
  <g
     transform="translate(20.862527,14.6676)"
     id="g3">
    <use
       ffdec:characterId="4273"
       height="29.200001"
       transform="translate(-20.85,-14.6)"
       width="41.549999"
       xlink:href="#shape0"
       id="use1" />
    <use
       ffdec:characterId="3500"
       height="8"
       transform="matrix(-0.9189,-0.3943,-0.3943,0.9189,3.7397,7.1037)"
       width="10.8"
       xlink:href="#sprite0"
       id="use2" />
    <use
       ffdec:characterId="4277"
       height="23.299999"
       transform="matrix(-1.1131,0,0,1.1131,15.35,-14.6676)"
       width="16.75"
       xlink:href="#sprite1"
       id="use3" />
  </g>
  <defs
     id="defs14">
    <g
       id="shape0"
       transform="translate(20.85,14.6)">
      <path
         d="m -11.85,-10.1 0.2,-0.45 0.1,-1.05 0.25,-0.05 q 0.6,-0.1 1.5,1 l 0.55,0.6 0.35,0.25 0.5,0.15 h 0.1 0.3 0.05 l 0.05,0.25 v 0.1 l -0.2,0.4 -0.15,0.15 -0.5,0.2 -0.4,0.05 -0.7,0.05 H -9.9 l -0.55,-0.1 -0.8,-0.6 -0.6,-0.95 m 6.05,0 0.1,-0.2 0.3,-0.7 q 0.25,-1.3 0.55,-1.3 0.55,-0.1 1.15,1.25 l 0.4,0.8 -0.55,0.55 -0.1,0.1 v 0.05 l -0.35,0.5 H -4.5 -4.75 -4.8 l -0.75,-0.5 -0.2,-0.35 -0.05,-0.2 m 3.45,1.05 0.1,-0.15 0.1,-0.15 0.15,-0.25 0.2,-0.05 1.35,-1.1 1.05,-1.15 1.45,-0.15 -0.55,1.45 -0.05,0.15 -0.05,0.1 L 1.1,-9.6 1,-9.2 v 0.1 L 1.05,-9 v 0.05 l 0.3,0.2 2.65,1.6 0.2,0.1 q 1.45,0.85 2.25,1.25 l 3.05,2.55 3,3.15 1.3,2.25 1,2.35 1.8,2.2 0.9,1.3 0.45,1.1 -0.1,0.45 -0.25,0.2 H 17.5 L 17.35,9.65 16.25,8.4 15.8,7.8 V 7.65 7.5 Q 15.75,6.7 12.45,2.45 L 10.6,0.05 9.35,-1.7 8.55,-2.65 H 8.5 l -1,-1.4 Q 6,-5.8 3.85,-6.65 L 1.5,-7.35 0.75,-7.5 0,-7.9 -0.55,-8.35 h -0.2 L -1.3,-8.4 H -1.45 -1.5 l -0.85,-0.65 m -14.5,3.75 0.85,-0.9 0.35,-0.5 0.15,0.05 0.15,-0.05 0.3,-0.05 v 0.15 l 0.1,0.4 0.2,0.25 0.15,0.3 0.2,0.1 q -0.15,0.5 -0.8,0.6 l -0.45,0.05 h -0.05 q -0.85,0 -1.15,-0.4 m 5.9,1.2 -0.4,-0.35 -0.4,-0.35 -0.45,-0.5 -0.05,-0.1 -0.05,-0.25 h 0.2 l 0.65,0.05 0.25,0.05 0.4,0.05 0.15,-0.05 0.05,0.05 0.3,0.2 0.55,0.35 0.1,0.05 0.2,-0.05 0.15,-0.05 -0.05,0.25 q -0.05,0.3 -0.5,0.5 l -0.1,0.05 -0.95,0.1 h -0.05 m 0.4,-3.1 -0.4,-0.1 h -0.25 l -0.95,0.1 -0.15,0.05 h -0.2 l -0.35,-0.05 -1.15,-0.35 -0.05,-0.2 -0.25,-0.15 -0.75,-0.05 h -0.1 l -0.3,-0.15 -0.25,-0.35 -0.8,-0.65 -1.45,-0.8 -0.35,-0.25 -0.05,-0.15 0.45,0.1 2.2,0.65 0.35,0.1 0.3,0.1 0.6,0.2 0.4,0.25 0.25,0.05 0.15,0.05 0.8,0.25 v 0.05 q 0.5,0.75 1.35,0.7 l 0.15,-0.05 0.4,-0.05 0.35,-0.25 0.25,0.15 -0.05,0.55 -0.05,0.05 v 0.05 l -0.1,0.15 M -5.75,1 -5.7,0.35 -5.75,0.2 -5.95,-0.65 v -0.2 L -5.8,-1.9 h 0.1 0.05 v 0.05 l 0.05,0.05 q 0.55,0.65 1.4,1 l 0.7,0.25 3.8,1.15 q 2.5,0.85 3.8,1.55 l 2.8,1.55 6.3,3.6 1.9,1.1 0.4,-0.1 -0.05,0.25 q -0.2,0.7 -1.25,0.7 H 14.05 L 12.3,9.1 Q 8.85,8.6 3.7,6.4 L 1.7,5.5 Q -1.25,4.15 -3.2,3 L -4.8,1.85 -5.75,1"
         fill="#e0e0e0"
         fill-rule="evenodd"
         stroke="none"
         id="path3" />
      <path
         d="m -11.85,-10.1 -0.15,0.15 0.75,0.8 0.8,0.6 -0.1,0.35 -0.05,0.05 -0.35,0.25 -0.4,0.05 -0.15,0.05 q -0.85,0.05 -1.35,-0.7 v -0.05 l -0.8,-0.25 -0.15,-0.05 -0.25,-0.05 -0.4,-0.25 -0.6,-0.2 -0.3,-0.1 -0.35,-0.1 -2.2,-0.65 -0.45,-0.1 0.05,0.15 0.35,0.25 1.45,0.8 0.8,0.65 0.25,0.35 0.05,0.15 h 0.25 0.1 l 0.75,0.05 0.25,0.15 0.05,0.2 0.1,0.55 0.05,0.2 0.05,0.1 v 0.1 l 0.05,0.05 v 0.15 l 0.05,-0.1 0.05,-0.05 0.2,-0.2 0.95,-0.4 h 0.2 l 0.15,-0.05 0.95,-0.1 h 0.25 l 0.4,0.1 0.1,0.05 0.2,0.3 0.05,0.05 0.05,0.05 0.35,0.15 0.1,0.1 0.05,0.05 0.05,0.05 0.35,0.35 0.1,0.3 0.05,0.15 v 0.3 0.05 H -9.15 L -9.3,-5 l -0.15,0.05 -0.2,0.05 -0.1,-0.05 -0.55,-0.35 -0.3,-0.2 -0.05,-0.05 -0.15,0.05 -0.4,-0.05 -0.25,-0.05 -0.65,-0.05 h -0.2 l 0.05,0.25 0.05,0.1 0.45,0.5 0.4,0.35 0.4,0.35 0.65,0.6 v 0.05 q 0,0.45 -0.65,0.5 h -0.65 l -0.4,-0.2 q -0.6,0 -1.05,-0.45 l -0.45,-0.7 -0.1,-0.15 -0.3,-0.85 -0.05,-0.2 v -0.1 -0.3 l -0.2,0.25 -0.2,0.1 h -0.05 l -0.2,-0.1 -0.15,-0.3 -0.2,-0.25 -0.1,-0.4 v -0.15 l -0.3,0.05 -0.15,0.05 -0.15,-0.05 -0.35,0.5 -0.85,0.9 -0.1,0.1 -0.1,0.1 0.15,0.05 1.05,0.35 0.2,0.05 0.5,0.05 h 0.05 0.1 q 0.55,0 0.55,0.3 l -0.05,0.05 q 0.65,0.4 1,1.05 l 0.2,0.35 0.05,0.1 0.1,0.25 0.45,0.05 v 0.05 q 0.2,0.15 0.25,0.55 0.05,0.45 -0.5,0.8 l -0.1,0.05 h -0.05 l -0.5,0.5 -0.25,0.05 h -0.05 l -0.6,0.55 0.9,0.2 0.75,0.15 h 0.1 l 0.35,0.05 q 0.45,0.15 0.45,0.45 L -12,1.2 q 0.2,0.1 0.2,0.65 l -0.15,0.75 -0.1,0.3 -0.15,0.35 -0.4,1.25 0.6,0.75 0.2,0.1 0.2,0.15 0.2,-0.8 V 4.6 l 0.15,-0.55 0.25,-0.8 q 0.55,-1.6 0.7,-0.25 l 0.05,0.45 q 0.1,0.8 -0.2,2.5 l -0.1,0.85 -0.1,0.35 -0.05,0.25 -0.1,0.4 q -0.3,1.45 -0.6,1.8 l -0.05,0.55 v 0.3 l 0.2,0.05 1.2,-1.35 L -9.9,9 -9.3,8.5 Q -9,8.25 -8.7,8.15 L -8.8,7.95 -9.1,7.35 -9.45,6.25 V 6.05 L -9.65,4.1 V 3.9 3.6 L -9.6,2.95 q 0.25,-1.4 1,-1.75 l 0.4,-0.15 0.05,0.4 -0.05,0.45 -0.05,0.2 -0.05,1.65 0.65,2.65 1.4,2.3 0.8,0.6 1.9,1.6 3.45,0.85 4.6,0.05 4.15,-0.5 q 0.05,-0.05 0.4,-0.15 l 0.9,-0.35 0.1,-0.05 1.2,-0.25 0.25,-0.05 6,-0.7 h 0.1 L 17.85,9.55 17.95,9.1 17.5,8 16.6,6.7 14.8,4.5 13.8,2.15 12.5,-0.1 9.5,-3.25 6.45,-5.8 Q 5.65,-6.2 4.2,-7.05 L 4,-7.15 1.35,-8.75 1.05,-8.95 V -9 L 1,-9.1 v -0.1 l 0.1,-0.4 0.3,-0.75 0.05,-0.1 0.05,-0.15 0.55,-1.45 -1.45,0.15 -1.05,1.15 -1.35,1.1 -0.2,0.05 -0.15,0.25 -0.1,0.15 -0.1,0.15 q -0.5,0.65 -1.25,0.7 -0.65,0.1 -0.7,-0.5 v -0.1 -0.1 l 0.35,-0.5 V -9.6 l 0.1,-0.1 0.55,-0.55 -0.4,-0.8 q -0.6,-1.35 -1.15,-1.25 -0.3,0 -0.55,1.3 l -0.3,0.7 -0.1,0.2 -0.15,0.15 -0.1,0.3 -0.1,0.25 -0.1,0.25 -0.2,0.4 q -0.45,0.75 -1,0.9 h -0.1 L -7.95,-7.95 -8,-8.3 v -0.15 l 0.05,-0.5 0.1,-0.3 0.05,-0.1 0.15,-0.35 -0.3,0.05 H -8 -8.3 -8.4 l -0.5,-0.15 -0.35,-0.25 -0.55,-0.6 q -0.9,-1.1 -1.5,-1 l -0.25,0.05 -0.1,1.05 -0.2,0.45 m -6.4,3.7 0.65,-0.6 -0.15,-0.1 -1.2,-1.1 q -1.35,-1.45 -1.4,-2.05 -0.3,-4.2 6.8,-0.25 -0.25,-4.3 3.35,-2.65 l 2.65,1.8 q 0.2,-2.45 2.4,-2.7 2.45,-0.3 2.9,2.5 l 0.45,-0.6 q 1.2,-1.45 1.85,-1.5 l 3.4,0.25 0.35,1.1 v 1.2 q -0.1,0.6 -0.75,1.5 l 3,1.35 1.35,0.9 q 1.6,0.75 2.85,1.8 l 4.2,4.85 q 1.15,1.4 3.5,5.4 L 20.2,8.85 20,10.2 q -0.3,1 -1.1,1.3 -1.8,0.75 -4.9,1.15 L 9.1,13.4 4.25,14 q -4.1,0.5 -7.8,-1 -3.1,-1.3 -4.3,-3.15 l -1.55,1.7 -1.15,0.85 -0.55,0.2 -0.9,0.2 q -1.6,0.2 -1.35,-2.05 L -13.1,8.3 -12.7,6.85 -13.55,6.1 Q -14.2,5.25 -14.25,4.65 -14.3,3.7 -13.35,2.3 l 0.2,-0.3 0.1,-0.2 -0.4,0.1 -0.4,0.05 q -1.35,0.2 -2,-0.55 L -16.4,0.25 q -0.05,-1.1 1.6,-2.1 l -0.15,-0.25 -0.75,-1.2 -0.7,0.15 q -2.3,0.25 -2.45,-1.75 -0.05,-0.8 0.6,-1.5 M -5.75,1 -5.85,1.1 -6.05,1.3 -6.1,1.25 -6.55,0.7 -6.85,-0.1 -7.1,-1.45 V -1.6 l 0.2,-1.45 0.1,-0.35 0.4,-1 0.25,-0.5 0.05,-0.15 0.2,-0.6 0.1,-0.15 0.45,-0.55 0.05,-0.05 v -0.05 h 0.05 l 0.9,-0.6 0.65,-0.25 1.8,-0.3 h 1.5 l 1.15,0.1 0.75,0.15 2.35,0.7 Q 6,-5.8 7.5,-4.05 l 1,1.4 h 0.05 l 2.05,2.7 1.85,2.4 Q 15.75,6.7 15.8,7.5 V 7.65 7.8 q 0.05,0.35 -0.3,0.5 L 15.1,8.4 13.2,7.3 6.9,3.7 4.1,2.15 Q 2.8,1.45 0.3,0.6 L -3.5,-0.55 -4.2,-0.8 q -0.85,-0.35 -1.4,-1 L -5.65,-1.85 V -1.9 l -0.1,-0.15 -0.05,0.15 -0.15,1.05 v 0.2 L -5.75,0.2 -5.7,0.35 -5.75,1 m 17,2.35 L 9.4,0.75 Q 7.9,-1.4 6.55,-2.6 4,-5.15 1.9,-5.65 q -3,-0.95 -4.85,0 -1.2,0.6 -1.35,1.4 L -1,-3.7 q 4.7,1.15 6.45,2.5 l 0.8,0.6 Q 10,1.35 11.1,3.25 l 0.15,0.15 0.1,0.05 -0.1,-0.1"
         fill="#6b6b6b"
         fill-rule="evenodd"
         stroke="none"
         id="path4" />
      <path
         d="m -7.85,-9.25 -0.1,0.3 -0.05,0.5 v 0.15 l 0.05,0.35 0.4,0.1 h 0.1 q 0.55,-0.15 1,-0.9 l 0.2,-0.4 0.1,-0.25 0.1,-0.25 0.1,-0.3 0.15,-0.15 0.05,0.2 0.2,0.35 0.75,0.5 h 0.05 0.25 0.2 v 0.1 0.1 q 0.05,0.6 0.7,0.5 0.75,-0.05 1.25,-0.7 l 0.85,0.65 h 0.05 0.15 l 0.55,0.05 h 0.2 L 0,-7.9 0.75,-7.5 -0.4,-7.6 h -1.5 l -1.8,0.3 -0.65,0.25 -0.9,0.6 H -5.3 v 0.05 l -0.05,0.05 -0.45,0.55 -0.1,0.15 -0.2,0.6 -0.05,0.15 -0.25,0.5 -0.4,1 -0.1,0.35 -0.2,1.45 v 0.15 l 0.25,1.35 0.3,0.8 0.45,0.55 0.05,0.05 0.2,-0.2 L -5.75,1 -4.8,1.85 -3.2,3 q 1.95,1.15 4.9,2.5 l 2,0.9 q 5.15,2.2 8.6,2.7 l 1.75,0.15 h 0.15 q 1.05,0 1.25,-0.7 L 15.5,8.3 q 0.35,-0.15 0.3,-0.5 l 0.45,0.6 1.1,1.25 0.15,0.1 -6,0.7 -0.25,0.05 -1.2,0.25 -0.1,0.05 -0.9,0.35 Q -0.15,10.4 -5.35,5.35 -7.15,3.65 -8.2,1.9 L -8.15,1.45 -8.2,1.05 -8.6,1.2 q -0.9,-1.85 -1.1,-3.7 l -1.05,-0.35 -0.2,-0.1 Q -10.3,-3 -10.3,-3.45 V -3.5 l -0.65,-0.6 h 0.05 l 0.95,-0.1 0.1,-0.05 q 0.45,-0.2 0.5,-0.5 L -9.3,-5 -9.15,-5.25 H -9.1 V -5.3 -5.6 l -0.05,-0.15 -0.1,-0.3 -0.35,-0.35 -0.05,-0.05 -0.05,-0.05 -0.1,-0.1 -0.35,-0.15 -0.05,-0.05 -0.05,-0.05 -0.2,-0.3 -0.1,-0.05 0.1,-0.15 V -7.4 l 0.05,-0.05 0.05,-0.55 -0.25,-0.15 0.05,-0.05 0.1,-0.35 0.55,0.1 h 0.05 l 0.7,-0.05 0.4,-0.05 0.5,-0.2 0.15,-0.15 0.2,-0.4 0.05,0.05 M -9.6,2.95 -9.65,3.6 v 0.3 0.2 l 0.2,1.95 v 0.2 l 0.35,1.1 -0.1,0.7 -0.1,0.45 -0.6,0.5 -0.15,0.15 -1.2,1.35 -0.2,-0.05 v -0.3 L -11.4,9.6 q 0.3,-0.35 0.6,-1.8 l 0.1,-0.4 0.05,-0.25 0.1,-0.35 0.1,-0.85 q 0.3,-1.7 0.2,-2.5 L -10.3,3 -10,2.95 -9.9,2.9 -9.6,2.95 m -1.4,0.3 -0.25,0.8 -0.15,0.55 v 0.1 l -0.05,0.05 -0.55,0.5 -0.6,-0.75 0.4,-1.25 0.15,-0.35 0.1,-0.3 q 0.8,-0.25 0.95,0.65 m -1.85,-2.8 -0.75,-0.15 -0.9,-0.2 0.6,-0.55 h 0.05 l 0.25,-0.05 0.5,-0.5 h 0.05 l 0.1,-0.05 q 0.55,-0.35 0.5,-0.8 -0.05,-0.4 -0.25,-0.55 0.75,0.05 0.75,1.3 l -0.5,1.05 -0.3,0.4 -0.1,0.1 m -0.4,-3.2 -0.05,-0.1 -0.2,-0.35 q -0.35,-0.65 -1,-1.05 l 0.05,-0.05 q 0,-0.3 -0.55,-0.3 h -0.1 l -0.1,-0.35 q 0.65,-0.1 0.8,-0.6 h 0.05 l 0.2,-0.1 0.2,-0.25 v 0.3 0.1 l 0.05,0.2 0.3,0.85 0.1,0.15 0.45,0.7 q 0.45,0.45 1.05,0.45 l 0.4,0.2 q -0.2,0.25 -0.7,0.3 h -0.25 l -0.7,-0.1 m 0.75,-4.4 -0.95,0.4 -0.2,0.2 h -0.05 v 0.05 l -0.05,0.1 V -6.55 L -13.8,-6.6 v -0.1 l -0.05,-0.1 -0.05,-0.2 -0.1,-0.55 1.15,0.35 0.35,0.05 m 1.95,19.55 q -0.2,0.2 -0.4,0.2 h -0.15 l 0.55,-0.2 m 4.75,-14.3 0.05,-0.15 0.1,0.15 H -5.7 -5.8"
         fill="#c2c2c2"
         fill-rule="evenodd"
         stroke="none"
         id="path5" />
      <path
         d="M 11.25,3.4 11.1,3.25 Q 10,1.35 6.25,-0.6 L 5.45,-1.2 Q 3.7,-2.55 -1,-3.7 l -3.3,-0.55 q 0.15,-0.8 1.35,-1.4 1.85,-0.95 4.85,0 2.1,0.5 4.65,3.05 1.35,1.2 2.85,3.35 l 1.85,2.6 V 3.4"
         fill="#999999"
         fill-rule="evenodd"
         stroke="none"
         id="path6" />
      <path
         d="M 9.05,11.15 Q 8.7,11.25 8.65,11.3 L 4.5,11.8 -0.1,11.75 -3.55,10.9 -5.45,9.3 -6.25,8.7 -7.65,6.4 -8.3,3.75 -8.25,2.1 -8.2,1.9 q 1.05,1.75 2.85,3.45 5.2,5.05 14.4,5.8 M -8.6,1.2 q -0.75,0.35 -1,1.75 L -9.9,2.9 -10,2.95 -10.3,3 Q -10.45,1.65 -11,3.25 -11.15,2.35 -11.95,2.6 L -11.8,1.85 Q -11.8,1.3 -12,1.2 l 0.05,-0.25 q 0,-0.3 -0.45,-0.45 l -0.35,-0.05 h -0.1 l 0.1,-0.1 0.3,-0.4 0.5,-1.05 q 0,-1.25 -0.75,-1.3 v -0.05 l -0.45,-0.05 -0.1,-0.25 0.7,0.1 h 0.25 q 0.5,-0.05 0.7,-0.3 h 0.65 l 0.2,0.1 1.05,0.35 q 0.2,1.85 1.1,3.7 m -0.5,6.15 0.3,0.6 0.1,0.2 Q -9,8.25 -9.3,8.5 l 0.1,-0.45 0.1,-0.7 m -2.3,-2.65 -0.2,0.8 -0.2,-0.15 -0.2,-0.1 0.55,-0.5 0.05,-0.05 m -3.7,-9.3 h -0.05 l -0.5,-0.05 -0.2,-0.05 -1.05,-0.35 -0.15,-0.05 0.1,-0.1 0.1,-0.1 q 0.3,0.4 1.15,0.4 h 0.05 l 0.45,-0.05 0.1,0.35 m 1.45,-1.95 -0.05,0.05 v -0.05 h 0.05 m -1.5,-1.4 h -0.25 l -0.05,-0.15 0.3,0.15 m -3.1,1.55 0.5,-0.7 0.15,0.1 -0.65,0.6 m 4.9,8.7 -0.1,-0.4 0.4,-0.1 -0.1,0.2 -0.2,0.3"
         fill="#a6a6a6"
         fill-rule="evenodd"
         stroke="none"
         id="path7" />
      <path
         d="m -18.25,-6.4 0.65,-0.6 -0.15,-0.1 -1.2,-1.1 q -1.35,-1.45 -1.4,-2.05 -0.3,-4.2 6.8,-0.25 -0.25,-4.3 3.35,-2.65 l 2.65,1.8 q 0.2,-2.45 2.4,-2.7 2.45,-0.3 2.9,2.5 l 0.45,-0.6 q 1.2,-1.45 1.85,-1.5 l 3.4,0.25 0.35,1.1 v 1.2 q -0.1,0.6 -0.75,1.5 l 3,1.35 1.35,0.9 q 1.6,0.75 2.85,1.8 l 4.2,4.85 q 1.15,1.4 3.5,5.4 L 20.2,8.85 20,10.2 q -0.3,1 -1.1,1.3 -1.8,0.75 -4.9,1.15 L 9.1,13.4 4.25,14 q -4.1,0.5 -7.8,-1 -3.1,-1.3 -4.3,-3.15 l -1.55,1.7 -1.15,0.85 -0.55,0.2 -0.9,0.2 q -1.6,0.2 -1.35,-2.05 L -13.1,8.3 -12.7,6.85 -13.55,6.1 Q -14.2,5.25 -14.25,4.65 -14.3,3.7 -13.35,2.3 l 0.2,-0.3 0.1,-0.2 -0.4,0.1 -0.4,0.05 q -1.35,0.2 -2,-0.55 L -16.4,0.25 q -0.05,-1.1 1.6,-2.1 l -0.15,-0.25 -0.75,-1.2 -0.7,0.15 q -2.3,0.25 -2.45,-1.75 -0.05,-0.8 0.6,-1.5 z"
         fill="none"
         stroke="#6b6b6b"
         stroke-linecap="round"
         stroke-linejoin="round"
         stroke-width="1"
         id="path8" />
    </g>
    <g
       id="sprite0"
       transform="translate(5.4,4)">
      <use
         ffdec:characterId="43"
         height="8"
         transform="translate(-5.4,-4)"
         width="10.8"
         xlink:href="#shape1"
         id="use8" />
    </g>
    <g
       id="shape1"
       transform="translate(5.4,4)">
      <path
         d="m 2.9,-0.35 q 0,-1.25 1.25,-1.25 1.25,0 1.25,1.2 0,1.3 -1.25,1.3 Q 3.6,0.9 3.25,0.5 2.9,0.15 2.9,-0.35 m 0.35,-2.3 q 0,0.55 -0.35,0.9 -0.4,0.45 -1,0.45 -1.35,0 -1.35,-1.4 0,-1.3 1.35,-1.3 1.35,0 1.35,1.35 m -3.1,1.9 h 0.2 q 2.6,0.1 2.6,2.8 l -0.3,1 Q 2.05,4 0.45,4 H 0.35 0.15 0.1 -0.45 q -1.6,0 -2.2,-0.95 l -0.3,-1 q 0,-2.8 2.8,-2.8 h 0.3 M -1.55,-4 q 1.35,0 1.35,1.35 0,0.55 -0.4,0.9 -0.4,0.45 -0.95,0.45 -1.4,0 -1.4,-1.4 0,-1.3 1.4,-1.3 m -2.6,2.4 q 1.25,0 1.25,1.25 0,0.5 -0.35,0.85 -0.35,0.4 -0.9,0.4 -1.25,0 -1.25,-1.3 0,-1.2 1.25,-1.2"
         fill="#6b6b6b"
         fill-opacity="0.498039"
         fill-rule="evenodd"
         stroke="none"
         id="path9" />
    </g>
    <g
       id="sprite1"
       transform="translate(8.4,11.65)">
      <use
         ffdec:characterId="4275"
         height="23.299999"
         transform="translate(-8.4,-11.65)"
         width="16.75"
         xlink:href="#sprite2"
         id="use9" />
    </g>
    <g
       id="sprite2"
       transform="translate(8.4,11.65)">
      <use
         ffdec:characterId="4274"
         height="23.299999"
         transform="translate(-8.4,-11.65)"
         width="16.75"
         xlink:href="#shape2"
         id="use10" />
    </g>
    <g
       id="shape2"
       transform="translate(8.4,11.65)">
      <path
         d="m -0.95,8.3 q 0.1,0.7 0.05,1.4 0,0.5 -0.7,0.5 -0.9,0 -1.15,-0.8 L -3,8.4 -3.4,7.95 -3.2,8.7 q 0.25,0.9 0.35,1.75 L -2.9,11.2 q -0.3,0.45 -1.75,0.45 -1.8,0 -2.75,-1.3 L -7.75,9.85 -7.9,9.5 q -0.5,-1.15 -0.5,-2.4 0,-3 1.9,-3.9 V 2.85 q 0,-1.05 1.1,-1.6 L -5.2,1.2 -5.35,0.15 q 0,-1.65 1.05,-2.9 -0.8,-0.55 -1.35,-2.35 l -0.5,-2.5 0.05,-0.9 q -0.55,-0.1 -0.8,-0.35 l -0.15,-0.6 q 0,-1.15 1.2,-1.15 0.85,0 1.1,0.6 l 0.1,0.65 q 0,0.9 -0.75,0.9 l 0.3,1.7 1.15,2.25 0.5,0.85 q 1.2,-1 3.2,-1.45 l -0.3,-1.1 q 0,-2.3 0.35,-3.35 -0.7,-0.25 -0.8,-1.15 0,-0.9 1.15,-0.95 1.1,0 1.1,1 0,1.15 -0.95,1.15 l 0.05,1.45 q 0,1.2 0.7,2.7 l 0.1,0.2 q 2.75,0.3 5,2.2 2.2,1.85 2.2,3.25 L 8,1.25 8.2,2 Q 8.1,2.85 7.7,3.1 8.15,3.85 8.15,5.3 L 7.95,7.55 Q 7.45,9.6 6.05,9.6 H 5.95 5.85 Q 5.05,9.6 4.9,8.2 L 4.8,6.05 q -0.2,0.1 -0.3,0.5 v 0.5 L 4.45,7.25 4.35,7.4 3.9,7.65 q -1.2,0 -1,-1.4 0,-2.45 1.7,-3.4 L 4.55,2.65 4.3,2.7 l -3,1 -2.9,0.65 -1.15,-0.2 0.15,1.05 q 1,0.35 1.45,2.15 l 0.2,0.95 M 3.2,-1.15 v -0.8 l 0.1,-0.65 -0.75,-0.25 -0.9,-0.2 -0.8,-0.1 -1,-0.05 -2.1,0.7 -0.9,0.75 -0.35,0.5 -0.2,0.45 -0.2,1 0.4,1.25 0.15,0.25 0.6,0.2 1.1,0.15 q 1.65,0 3.3,-1.4 l 1.05,-1 0.45,-0.75 0.05,-0.05 m -6.35,0.4 0.35,-0.45 1.25,-0.5 0.25,-0.1 1.75,-0.4 h 0.4 0.05 l 0.05,0.45 v 0.2 L 0.75,-0.3 0.6,0 q -0.6,1.2 -2,1.2 -0.95,0 -1.4,-0.9 l -0.35,-1.05 m 1,0.6 q 0.3,-0.35 2.2,-0.7 l 0.1,-0.55 q -0.5,-0.2 -2.45,0.7 l 0.15,0.55 M 5.15,0.05 5.25,-1.1 5.3,-1.6 4.75,-1.95 4.05,-2.3 4.15,-1.6 3.95,-0.7 2.8,0.95 Q 2.05,1.85 1.1,2.35 L 2.9,1.7 4.45,1.15 5.15,0.05 m 1.1,0.45 0.6,-0.25 q 0,-0.65 -0.9,-1.4 L 6,-0.65 5.75,0.35 5.6,0.75 6.25,0.5 M 5.7,2.4 6.7,2.35 Q 6.8,2.2 7.1,2.1 L 6.95,1.95 6.7,2 5.8,2.3 5.7,2.4 M 6.9,4.85 6.75,4.1 6.2,4.25 5.65,4.05 5.6,4.1 5.4,4.6 V 4.65 L 5.65,5.35 5.7,5.6 6.3,8.3 6.75,7.15 6.95,5.35 6.9,4.85 m -8.25,-1.95 -1.2,-0.1 1,0.3 1.1,-0.25 -0.9,0.05 M -4.6,2.5 -5.2,2.6 -5.35,2.75 V 2.9 L -4.4,2.85 -4.6,2.5 M -4.2,5.45 -3.85,5.25 -3.9,5.1 V 5 Q -4,4.05 -4.9,4.05 -6.5,4.05 -6.95,5.5 L -7.1,6.6 V 7 l 0.3,1.8 0.3,0.5 q 0.5,0.65 1.55,1.05 h 1 L -4.25,9 -4.65,7.5 -4.55,7.15 -4.7,6.7 Q -4.65,5.85 -4.2,5.45 M -1.65,8.6 Q -1.65,7.75 -2.1,6.95 -2.7,5.85 -3.75,6.6 l 1.55,1.05 0.55,0.95"
         fill="#6b6b6b"
         fill-rule="evenodd"
         stroke="none"
         id="path10" />
      <path
         d="m -3.7,-0.8 0.2,-0.45 0.35,-0.5 0.9,-0.75 2.1,-0.7 1,0.05 0.8,0.1 0.9,0.2 0.75,0.25 -0.1,0.65 v 0.8 L 2.85,-1.35 2.3,-1.7 Q 2.15,-1.8 2.1,-1.85 l -0.75,0.1 H 0.95 L 0.9,-2.2 H 0.85 0.45 l -1.75,0.4 -0.25,0.1 -1.25,0.5 -0.35,0.45 H -3.35 -3.5 L -3.7,-0.8 m 7.65,0.1 0.2,-0.9 -0.1,-0.7 0.7,0.35 0.55,0.35 -0.05,0.5 -0.1,1.15 -0.2,-0.1 -1,-0.65 m 1.8,1.05 0.25,-1 -0.05,-0.5 q 0.9,0.75 0.9,1.4 L 6.25,0.5 5.75,0.35 m -0.1,5 L 5.4,4.65 V 4.6 L 5.6,4.1 5.65,4.05 6.2,4.25 6.75,4.1 6.9,4.85 6.8,4.9 5.65,5.35 M -6.5,9.3 -6.8,8.8 -7.1,7 V 6.6 L -6.95,5.5 Q -6.5,4.05 -4.9,4.05 -4,4.05 -3.9,5 V 5.1 L -3.85,5.25 -4.2,5.45 -5.65,5.4 Q -6.1,6.15 -6.4,8.5 l -0.1,0.8"
         fill="#9a8989"
         fill-rule="evenodd"
         stroke="none"
         id="path11" />
      <path
         d="m -3.7,-0.8 0.2,0.05 h 0.15 0.2 L -2.8,0.3 q 0.45,0.9 1.4,0.9 1.4,0 2,-1.2 l 0.15,-0.3 0.2,-1.25 v -0.2 h 0.4 l 0.75,-0.1 q 0.05,0.05 0.2,0.15 l 0.55,0.35 0.35,0.2 -0.05,0.05 -0.45,0.75 -1.05,1 Q 0,2.05 -1.65,2.05 L -2.75,1.9 -3.35,1.7 -3.5,1.45 -3.9,0.2 l 0.2,-1 m 7.65,0.1 1,0.65 0.2,0.1 -0.7,1.1 L 2.9,1.7 1.1,2.35 Q 2.05,1.85 2.8,0.95 L 3.95,-0.7 M 5.75,0.35 6.25,0.5 5.6,0.75 5.75,0.35 M 5.7,2.4 5.8,2.3 6.7,2 6.95,1.95 7.1,2.1 Q 6.8,2.2 6.7,2.35 L 5.7,2.4 M 5.65,5.35 6.8,4.9 6.9,4.85 6.95,5.35 6.75,7.15 6.3,8.3 5.7,5.6 5.65,5.35 M -4.6,2.5 -4.4,2.85 -5.35,2.9 V 2.75 L -5.2,2.6 -4.6,2.5 m 3.25,0.4 0.9,-0.05 -1.1,0.25 -1,-0.3 1.2,0.1 M -6.5,9.3 -6.4,8.5 q 0.3,-2.35 0.75,-3.1 l 1.45,0.05 q -0.45,0.4 -0.5,1.25 l 0.15,0.45 -0.1,0.35 0.4,1.5 0.3,1.35 h -1 Q -6,9.95 -6.5,9.3 M -1.65,8.6 -2.2,7.65 -3.75,6.6 q 1.05,-0.75 1.65,0.35 0.45,0.8 0.45,1.65"
         fill="#827171"
         fill-rule="evenodd"
         stroke="none"
         id="path12" />
      <path
         d="M -2.15,-0.15 -2.3,-0.7 q 1.95,-0.9 2.45,-0.7 l -0.1,0.55 q -1.9,0.35 -2.2,0.7"
         fill="#ffffff"
         fill-rule="evenodd"
         stroke="none"
         id="path13" />
      <path
         d="m -1.15,7.35 0.2,0.75 v 0.2 l -0.2,-0.95"
         fill="#838383"
         fill-rule="evenodd"
         stroke="none"
         id="path14" />
    </g>
  </defs>
</svg>
