<?xml version="1.0" encoding="UTF-8" standalone="no"?>
<svg
   ffdec:objectType="frame"
   height="39.349998"
   width="85.849998"
   version="1.1"
   id="svg5"
   sodipodi:docname="1.svg"
   xmlns:inkscape="http://www.inkscape.org/namespaces/inkscape"
   xmlns:sodipodi="http://sodipodi.sourceforge.net/DTD/sodipodi-0.dtd"
   xmlns:xlink="http://www.w3.org/1999/xlink"
   xmlns="http://www.w3.org/2000/svg"
   xmlns:svg="http://www.w3.org/2000/svg"
   xmlns:ffdec="https://www.free-decompiler.com/flash">
  <sodipodi:namedview
     id="namedview5"
     pagecolor="#ffffff"
     bordercolor="#000000"
     borderopacity="0.25"
     inkscape:showpageshadow="2"
     inkscape:pageopacity="0.0"
     inkscape:pagecheckerboard="0"
     inkscape:deskcolor="#d1d1d1"
     fit-margin-top="5"
     fit-margin-left="5"
     fit-margin-right="5"
     fit-margin-bottom="5" />
  <g
     transform="translate(42.9,15.75)"
     id="g1">
    <use
       ffdec:characterId="2569"
       height="39.349998"
       transform="translate(-42.9,-15.75)"
       width="85.849998"
       xlink:href="#shape0"
       id="use1" />
  </g>
  <defs
     id="defs5">
    <g
       id="shape0"
       transform="translate(42.9,15.75)">
      <path
         d="m -35.7,-5.35 0.05,-0.4 V -6 l 30.7,-0.05 h 1.2 7.5 1.2 l 30.7,0.05 0.1,0.9 q -0.25,0.2 -0.65,0.25 h -64.8 l -5.25,-0.25 -0.75,-0.25 m 71.3,-5.25 -0.5,0.05 -69.75,-0.05 -0.95,-0.15 -0.15,-1.2 V -12 l 0.15,-0.15 1.25,-1.05 h 68.7 l 1.25,1.05 0.15,0.15 v 0.05 L 35.6,-10.6 M 38.35,3.6 V 1 L 39.2,1.05 40.05,1 l 0.5,1.1 0.1,0.3 -0.1,1.1 -1.2,0.25 -1,-0.15 M -40.5,3.85 -40.65,2.4 -40.55,2.1 -40.05,1 -39.2,1.05 -38.35,1 v 2.35 q -0.7,0.5 -2.15,0.5"
         fill="#ffffff"
         fill-rule="evenodd"
         stroke="none"
         id="path1" />
      <path
         d="m -35.7,-5.35 0.75,0.25 5.25,0.25 h 64.8 q 0.4,-0.05 0.65,-0.25 l 0.1,0.6 h -71.7 l 0.15,-0.85 m 71.3,-5.25 -0.05,1 v 0.2 0.5 h 0.05 v 1.5 L 5.25,-7.35 5.3,-7.75 q 0,-0.9 -3.6,-1 V -8.8 H 1.3 0.6 -1.3 -1.7 v 0.05 q -3.6,0.1 -3.6,1 l 0.05,0.4 -30.35,-0.05 0.05,-1.5 v -0.5 -0.2 l -0.05,-1.15 0.95,0.15 69.75,0.05 0.5,-0.05 m 2.75,14.2 1,0.15 1.2,-0.25 -0.15,2.15 V 6.1 6.8 7.05 l 0.05,0.7 h 0.05 l 0.05,1.05 v 0.35 0.4 0.05 l 0.1,0.8 -1,-0.1 -1.3,0.05 V 3.6 M -40.5,3.85 q 1.45,0 2.15,-0.5 v 7 l -1.3,-0.05 -1,0.1 0.1,-0.8 V 9.55 9.15 8.8 l 0.1,-1.05 0.05,-0.7 V 6.8 6.1 5.65 l -0.1,-1.8"
         fill="#e0e0e0"
         fill-rule="evenodd"
         stroke="none"
         id="path2" />
      <path
         d="M 35.75,-5.1 35.65,-6 4.95,-6.05 h -1.2 -7.5 -1.2 L -35.65,-6 v 0.25 l -0.05,0.4 -0.15,0.85 h 71.7 l -0.1,-0.6 m -71.35,-5.65 0.05,1.15 v 0.2 0.5 l -0.05,1.5 30.35,0.05 -0.05,-0.4 q 0,-0.9 3.6,-1 V -8.8 h 0.4 1.9 0.7 0.4 v 0.05 q 3.6,0.1 3.6,1 L 5.25,-7.35 35.6,-7.4 v -1.5 h -0.05 v -0.5 -0.2 l 0.05,-1 0.15,-1.35 V -12 l -0.15,-0.15 -1.25,-1.05 h -68.7 l -1.25,1.05 -0.15,0.15 v 0.05 l 0.15,1.2 m 73.25,-1.8 v 0.2 l 0.15,0.4 0.2,2.35 -0.05,2.95 -0.3,2.2 0.7,0.3 v 3.1 L 39.3,-1.1 q 2.1,0.05 2.2,1.05 l 0.2,-0.3 q 1.1,1.55 1.2,6.05 v 0.4 h 0.05 V 6.45 6.8 L 42.9,7.75 42.8,8.8 v 0.25 0.5 0.05 h -0.05 l -0.25,1.75 v 0.1 l -0.2,0.7 q -0.25,0.25 -0.9,0.35 h -3.05 v 4.35 l -0.25,0.2 -0.55,0.4 -0.15,0.05 v 0.4 h -0.15 v 1.5 L 37.1,22 q -0.2,1 -0.6,1.6 h -72.95 l -0.65,-1.6 -0.15,-2.6 0.05,-1.5 h -0.2 v -0.4 l -0.15,-0.05 -0.55,-0.4 -0.25,-0.2 V 12.5 h -3.05 q -0.65,-0.1 -0.9,-0.35 l -0.2,-0.7 v -0.1 L -42.75,9.6 H -42.8 V 9.55 9.05 8.8 L -42.85,7.75 H -42.9 V 7.05 6.8 6.1 5.7 q 0.1,-4.5 1.2,-6.05 l 0.2,0.3 q 0.1,-1 2.2,-1.05 l 0.95,0.05 v -3.1 l 0.7,-0.3 -0.3,-2.2 -0.05,-2.95 0.25,-2.35 0.1,-0.4 v -0.2 q 0,-0.75 1.2,-2.15 l 1.15,-1.05 h 70.65 l 1.1,1.05 q 1.2,1.4 1.2,2.15 M 36.3,0.25 v -0.1 -0.2 l 0.1,-1.8 h -72.8 l 0.1,1.8 v 0.1 0.1 l 0.2,2.4 V 5.8 6.1 6.8 7.05 7.75 7.9 8.1 8.55 8.6 H 36.1 V 8.55 8.1 7.75 7.05 6.8 6.1 5.8 2.55 l 0.2,-2.3 M 40.55,3.5 40.65,2.4 40.55,2.1 40.05,1 39.2,1.05 38.35,1 v 2.6 6.75 l 1.3,-0.05 1,0.1 -0.1,-0.8 V 9.55 9.15 8.8 L 40.5,7.75 H 40.45 L 40.4,7.05 V 6.8 6.1 5.65 L 40.55,3.5 M 36.1,12.7 V 12.55 12 10.75 l -1.7,0.1 h -68.8 l -1.7,-0.1 v 1.25 0.4 0.15 1.1 0.1 1.05 h -0.05 v 0.6 0.1 l 0.55,-0.05 v 0.15 h 71.2 v -0.15 l 0.55,0.05 V 15.4 14.8 L 36.1,13.75 v -0.1 -0.95 m -37.8,6.35 h 3 L 4.95,19 v 0.05 h 29.2 v -0.1 -0.3 -0.25 -0.45 L 19,17.9 h -5.9 -1.05 -0.95 -24.05 -0.85 -2 -3.2 l -15.15,0.05 v 0.45 0.25 0.4 h 29.2 V 19 l 3.25,0.05 m -29.2,2.3 2.05,0.05 h 57.7 l 2.05,-0.05 h 0.7 1.05 v 0.05 l 1.6,0.1 0.2,-0.15 -0.1,-1.1 h -68.7 l -0.1,1.1 0.2,0.15 1.6,-0.1 v -0.05 h 1.05 0.7 m -7.45,-18 V 1 L -39.2,1.05 -40.05,1 l -0.5,1.1 -0.1,0.3 0.15,1.45 0.1,1.8 V 6.1 6.8 7.05 l -0.05,0.7 -0.1,1.05 v 0.35 0.4 0.05 l -0.1,0.8 1,-0.1 1.3,0.05 v -7"
         fill="#6b6b6b"
         fill-rule="evenodd"
         stroke="none"
         id="path3" />
      <path
         d="m -36.3,0.05 6,0.3 66,0.05 0.6,-0.15 -0.2,2.3 V 5.8 6.1 6.8 7.05 7.75 8.1 8.55 8.6 H -36.1 V 8.55 8.1 7.9 7.75 7.05 6.8 6.1 5.8 2.55 l -0.2,-2.4 V 0.05 M 36.1,12.7 v 0.95 0.1 l 0.05,1.05 v 0.6 0.1 L 35.6,15.45 v 0.15 h -71.2 v -0.15 l -0.55,0.05 v -0.1 -0.6 h 0.05 v -1.05 -0.1 -1.1 -0.15 l 10.9,0.25 61.3,0.05 m -67,8.65 h -0.7 -1.05 v 0.05 l -1.6,0.1 -0.2,-0.15 0.1,-1.1 h 68.7 l 0.1,1.1 -0.2,0.15 -1.6,-0.1 V 21.35 H 31.6 30.9 l -2.05,0.05 h -57.7 L -30.9,21.35 M -1.7,19.05 -4.95,19 v 0.05 h -29.2 V 18.65 18.4 17.95 L -19,17.9 h 3.2 2 0.85 24.05 0.95 1.05 5.9 l 15.15,0.05 v 0.45 0.25 0.3 0.1 H 4.95 V 19 L 1.3,19.05 h -3"
         fill="#8c7171"
         fill-rule="evenodd"
         stroke="none"
         id="path4" />
      <path
         d="m -36.3,0.05 v -0.1 l -0.1,-1.8 h 72.8 l -0.1,1.8 v 0.2 0.1 l -0.6,0.15 -66,-0.05 -6,-0.3 m 0.2,12.35 V 12 10.75 l 1.7,0.1 h 68.8 l 1.7,-0.1 V 12 12.55 12.7 L -25.2,12.65 -36.1,12.4"
         fill="#9e7f7f"
         fill-rule="evenodd"
         stroke="none"
         id="path5" />
    </g>
  </defs>
</svg>
