<?xml version="1.0" encoding="UTF-8" standalone="no"?>
<svg
   ffdec:objectType="frame"
   height="143.50519"
   width="60.273899"
   version="1.1"
   id="svg26"
   sodipodi:docname="2.svg"
   xmlns:inkscape="http://www.inkscape.org/namespaces/inkscape"
   xmlns:sodipodi="http://sodipodi.sourceforge.net/DTD/sodipodi-0.dtd"
   xmlns:xlink="http://www.w3.org/1999/xlink"
   xmlns="http://www.w3.org/2000/svg"
   xmlns:svg="http://www.w3.org/2000/svg"
   xmlns:ffdec="https://www.free-decompiler.com/flash">
  <sodipodi:namedview
     id="namedview26"
     pagecolor="#ffffff"
     bordercolor="#000000"
     borderopacity="0.25"
     inkscape:showpageshadow="2"
     inkscape:pageopacity="0.0"
     inkscape:pagecheckerboard="0"
     inkscape:deskcolor="#d1d1d1"
     fit-margin-top="5"
     fit-margin-left="5"
     fit-margin-right="5"
     fit-margin-bottom="5" />
  <g
     transform="translate(30.1356,71.66355)"
     id="g1">
    <use
       ffdec:characterId="2726"
       height="137.89999"
       transform="matrix(1.041,0,0,1.041,-30.1356,-71.7156)"
       width="57.900002"
       xlink:href="#sprite0"
       id="use1" />
    <use
       ffdec:characterId="69"
       height="1.5"
       id="subplatform1"
       transform="matrix(0.0428,0,0.317,0.86,-28.6379,-70.13)"
       width="1320.3"
       xlink:href="#sprite5" />
  </g>
  <defs
     id="defs26">
    <g
       id="sprite0"
       transform="translate(28.95,68.75)">
      <use
         ffdec:characterId="2724"
         height="50.150002"
         transform="translate(-15.45,-19.9)"
         width="30.85"
         xlink:href="#shape0"
         id="use2" />
      <use
         ffdec:characterId="2717"
         height="38.849998"
         transform="translate(-13.85,-19.2)"
         width="27.200001"
         xlink:href="#sprite1"
         id="use3" />
      <use
         ffdec:characterId="2725"
         height="137.89999"
         transform="translate(-28.95,-68.75)"
         width="57.900002"
         xlink:href="#shape2"
         id="use4" />
      <use
         ffdec:characterId="44"
         height="8"
         transform="matrix(1,0,0,-1,-5.8,-36.6)"
         width="10.8"
         xlink:href="#sprite3"
         id="use5" />
      <use
         ffdec:characterId="2720"
         height="4.8499999"
         transform="matrix(0.0314,1.7711,-1.1722,0.0208,4.7475,-42.7854)"
         width="1"
         xlink:href="#sprite4"
         id="use6" />
      <use
         ffdec:characterId="2720"
         height="4.8499999"
         transform="matrix(1.7714,0,0,1.9227,-1.0857,-50.0144)"
         width="1"
         xlink:href="#sprite4"
         id="use7" />
    </g>
    <g
       id="shape0"
       transform="translate(15.45,19.9)">
      <path
         d="M 14.9,29.75 H -14.95 V -19.4 H 14.9 v 49.15"
         fill="#7b7b7b"
         fill-rule="evenodd"
         stroke="none"
         id="path7" />
      <path
         d="M 14.9,29.75 H -14.95 V -19.4 H 14.9 Z"
         fill="none"
         stroke="#6b6b6b"
         stroke-linecap="round"
         stroke-linejoin="round"
         stroke-width="1"
         id="path8" />
      <path
         d="M 9.5,-0.45 9.6,2.2 9.5,3.3 q 1.75,0.15 1.75,0.95 L 11.1,4.7 11.15,5.3 q 0,5.15 -0.5,6.55 0.35,0.2 0.35,0.6 l -0.3,0.65 -0.6,0.3 -2.7,-0.1 0.35,0.1 H 7.25 L 6.05,13.05 6,12.55 Q 5.35,11.75 5.6,8.4 5.6,5.7 5.85,4.4 V 4.25 L 5.95,3.9 Q 6.2,3.1 6.55,3.05 6.8,3 7,3.4 L 7.95,3.3 Q 7.8,2.9 7.8,2.35 L 7.85,-0.4 7.8,-14.95 q 0,-3.7 0.95,-3.7 0.9,0 0.9,3.7 l -0.15,2.2 v 12.3 M 9.3,5.05 H 7.75 7.4 l 0.1,3.1 v 2.5 L 7.4,11.6 8.5,11.5 9.65,11.55 Q 9.25,9.95 9.3,5.3 V 5.05 M -7.2,-15.8 v 6.7 l 0.1,2.65 -0.1,1.1 q 1.75,0.15 1.75,0.95 l -0.15,0.45 0.05,0.6 q 0,5.15 -0.5,6.55 0.35,0.2 0.35,0.6 l -0.3,0.65 -0.6,0.3 -2.7,-0.1 0.35,0.1 h -0.5 Q -10.35,4.7 -10.65,4.4 L -10.7,3.9 q -0.65,-0.8 -0.4,-4.15 l 0.25,-4 V -4.4 l 0.1,-0.35 0.6,-0.85 0.45,0.35 0.95,-0.1 -0.15,-0.95 0.05,-2.75 -0.05,-7.7 q 0,-1.6 0.95,-1.6 0.9,0 0.9,1.6 0,0.65 -0.15,0.95 m -2,15.3 V 2 l -0.1,0.95 1.1,-0.1 1.15,0.05 Q -7.45,1.3 -7.4,-3.35 V -3.6 H -8.95 -9.3 l 0.1,3.1"
         fill="#6b6b6b"
         fill-rule="evenodd"
         stroke="none"
         id="path9" />
      <path
         d="M 9.3,5.05 V 5.3 Q 9.25,9.95 9.65,11.55 L 8.5,11.5 7.4,11.6 7.5,10.65 V 8.15 L 7.4,5.05 H 7.75 9.3 M -9.2,-0.5 -9.3,-3.6 h 0.35 1.55 v 0.25 Q -7.45,1.3 -7.05,2.9 L -8.2,2.85 -9.3,2.95 -9.2,2 v -2.5"
         fill="#a6a6a6"
         fill-rule="evenodd"
         stroke="none"
         id="path10" />
    </g>
    <g
       id="sprite1"
       transform="translate(13.9,19.7)">
      <use
         ffdec:characterId="2716"
         height="36.75"
         transform="translate(-7.25,-18.35)"
         width="14.5"
         xlink:href="#sprite2"
         id="use10" />
    </g>
    <g
       id="sprite2"
       transform="translate(7.25,18.35)">
      <use
         ffdec:characterId="2715"
         height="36.75"
         transform="translate(-7.25,-18.35)"
         width="14.5"
         xlink:href="#shape1"
         id="use11" />
    </g>
    <g
       id="shape1"
       transform="translate(7.25,18.35)">
      <path
         d="M 1.7,-8.2 H 1.1 v 0.1 L 1.05,-7.6 V 3.75 H 1.5 L 1.7,-8.2 M 0.05,-18.35 q 1,0.25 1,4.3 v 2.35 l -0.2,1.25 H 3 l 1.05,0.6 0.15,0.55 q 0,0.85 -1.2,1.1 H 2.75 L 3,3.7 h 0.3 l 1.35,0.1 q 0.45,0.35 0.45,0.95 0,0.8 -0.7,1.1 L 4.75,6 H 4.1 l 1,0.8 q 2.15,2 2.15,5.7 0,1.6 -1.45,3.4 -1.65,2.25 -4.1,2.5 h -3.45 q -2.45,-0.25 -4.1,-2.5 -1.4,-1.8 -1.4,-3.4 0,-3.7 2.1,-5.7 L -4.1,6 H -4.6 L -4.3,5.85 Q -5,5.55 -5,4.75 -5,4.15 -4.55,3.8 L -3.2,3.7 h 0.3 L -2.65,-8.2 H -2.9 q -1.2,-0.25 -1.2,-1.1 l 0.15,-0.55 1.05,-0.6 h 2.15 l -0.2,-1.25 v -2.35 q 0,-4.05 1,-4.3 M -1,-8.1 v -0.1 h -0.6 l 0.2,11.95 h 0.45 V -7.6 L -1,-8.1 M 2.5,6.95 H 2.35 L 1.6,6.9 0,7.05 -1.6,6.9 -3.1,7.15 Q -4,7.5 -4.65,8.45 l -0.25,0.4 q -0.8,1.5 -0.8,3.1 0,1.25 1.1,2.65 1.6,2 4.3,2 H 0 0.25 q 2.7,0 4.3,-2 1.1,-1.4 1.1,-2.65 0,-1.6 -0.8,-3.1 -0.9,-1.6 -2.35,-1.9"
         fill="#6b6b6b"
         fill-rule="evenodd"
         stroke="none"
         id="path11" />
      <path
         d="m 2.5,6.95 0.65,0.9 q 0.4,0.75 0.4,1.85 0,1.05 -0.7,2.1 -1.05,1.6 -3.4,1.6 -3.2,0 -4.35,-3.15 l 0.25,-1.8 Q -4,7.5 -3.1,7.15 L -1.6,6.9 0,7.05 1.6,6.9 2.35,6.95 H 2.5"
         fill="#cccccc"
         fill-rule="evenodd"
         stroke="none"
         id="path12" />
      <path
         d="m -4.65,8.45 -0.25,1.8 q 1.15,3.15 4.35,3.15 2.35,0 3.4,-1.6 0.7,-1.05 0.7,-2.1 0,-1.1 -0.4,-1.85 L 2.5,6.95 q 1.45,0.3 2.35,1.9 0.8,1.5 0.8,3.1 0,1.25 -1.1,2.65 -1.6,2 -4.3,2 H 0 -0.3 q -2.7,0 -4.3,-2 -1.1,-1.4 -1.1,-2.65 0,-1.6 0.8,-3.1 l 0.25,-0.4"
         fill="#a6a6a6"
         fill-rule="evenodd"
         stroke="none"
         id="path13" />
    </g>
    <g
       id="shape2"
       transform="translate(28.95,68.75)">
      <path
         d="m 12.65,-68.15 v -0.1 l 2.05,0.05 h 0.7 7.75 3.6 l 0.65,0.1 0.55,0.15 q 0.5,0.2 0.5,0.65 l -0.2,0.3 0.1,0.85 -0.1,1.45 -0.2,0.65 -0.1,0.2 v 0.05 q 0.15,0.75 -0.85,0.75 h -1.55 v 0.25 q 0.15,1.25 -0.5,1.5 -0.4,0.4 -1.6,0.5 H 22.7 l 0.15,1.3 q 0.2,3.05 -0.7,3.45 l -0.05,0.25 q -0.15,0.3 -0.75,0.35 H 18.1 v 27.75 h 2.7 q 1.35,0.3 1.8,0.95 l 0.25,1.05 q 0,3.65 -1.65,3.85 -1,0.1 -1.15,0.7 l -0.3,0.95 q -0.9,0.95 -1.1,0.85 l -0.25,-0.15 -0.2,0.05 h -0.1 v 6.5 q 0.2,0.5 0,1.15 l 0.1,6.65 h -0.1 v 33.9 h 0.1 l 0.2,0.05 0.25,-0.15 q 0.2,-0.1 1.1,0.85 l 0.3,0.95 q 0.15,0.6 1.15,0.7 1.65,0.2 1.65,3.85 L 22.6,36.05 Q 22.15,36.7 20.8,37 h -2.75 v 0.1 h 0.05 v 1.85 l -0.05,1.45 h 0.05 v 13.5 q 1.45,0.3 1.95,1.3 0.45,0.85 1.4,1.3 L 22.7,57 q 1.5,1.25 2.1,2.55 0.45,1 0.45,2.45 0,1.45 -0.3,1.7 l -1.3,0.7 q -0.75,0.4 -0.95,0.85 0.6,0 1,0.8 l 0.35,1.25 -0.1,0.75 q -0.2,0.45 -1.25,0.6 h -8.85 q -0.6,0.05 -0.9,-0.45 l -0.2,-0.3 q -0.4,-0.3 -0.4,-1.35 0,-0.65 0.5,-1.35 0.6,-0.8 0.7,-1.8 l -0.8,-0.3 -0.7,-0.15 -1.5,0.15 V 63.05 L 4.6,63.7 0.7,64.55 v 0.3 L 0,64.7 -0.7,64.85 v -0.3 l -3.9,-0.85 -5.95,-0.65 v 0.05 l -1.5,-0.15 -0.7,0.15 -0.8,0.3 q 0.1,1 0.7,1.8 0.5,0.7 0.5,1.35 0,1.05 -0.4,1.35 l -0.2,0.3 q -0.3,0.5 -0.9,0.45 h -8.85 q -1.05,-0.15 -1.25,-0.6 l -0.1,-0.75 0.35,-1.25 q 0.4,-0.8 1,-0.8 -0.2,-0.45 -0.95,-0.85 l -1.3,-0.7 q -0.3,-0.25 -0.3,-1.7 0,-1.45 0.45,-2.45 0.6,-1.3 2.1,-2.55 l 1.25,-0.5 q 0.95,-0.45 1.4,-1.3 0.5,-1 1.95,-1.3 V 40.4 h 0.05 L -18.1,38.95 V 37.1 h 0.05 V 37 h -2.75 q -1.35,-0.3 -1.8,-0.95 L -22.85,35 q 0,-3.65 1.65,-3.85 1,-0.1 1.15,-0.7 l 0.3,-0.95 q 0.9,-0.95 1.1,-0.85 l 0.25,0.15 0.2,-0.05 h 0.1 v -33.9 h -0.1 l 0.1,-6.65 q -0.2,-0.65 0,-1.15 v -6.5 h -0.1 l -0.2,-0.05 -0.25,0.15 q -0.2,0.1 -1.1,-0.85 l -0.3,-0.95 q -0.15,-0.6 -1.15,-0.7 -1.65,-0.2 -1.65,-3.85 l 0.25,-1.05 q 0.45,-0.65 1.8,-0.95 h 2.7 v -27.75 h -3.25 q -0.6,-0.05 -0.75,-0.35 l -0.05,-0.25 q -0.9,-0.4 -0.7,-3.45 l 0.15,-1.3 h -0.75 q -1.2,-0.1 -1.6,-0.5 -0.65,-0.25 -0.5,-1.5 v -0.25 h -1.55 q -1,0 -0.85,-0.75 v -0.05 l -0.1,-0.2 -0.2,-0.65 -0.1,-1.45 0.1,-0.85 -0.2,-0.3 q 0,-0.45 0.5,-0.65 l 0.55,-0.15 0.65,-0.1 h 3.6 10.1 0.1 15.3 l 1.45,-0.3 h 4.5 v 0.3 h 0.25 l -0.7,0.05 1.25,-0.05 3.15,0.1 0.4,-0.05 1.9,-0.05 h 0.15 -0.15 l -1.9,0.05 m 13.65,2.85 v -0.9 -0.25 l -3.15,0.1 h -8.6 -1.9 L 11.1,-66.4 v 0.05 h -24.05 -0.1 -10.1 l -3.15,-0.1 v 0.25 0.15 0.65 0.25 0.5 0.15 l 6.6,-0.05 30.8,0.05 v 0.05 l 8.4,-0.1 h 0.4 l 6.4,0.05 v -0.15 -0.65 m -15.55,2.8 h 0.35 0.05 3.95 0.2 8.5 l 0.25,-0.1 v -0.2 -0.25 h -48.1 v 0.25 0.2 l 0.25,0.1 h 10.85 1 2.15 16.95 1.35 2.25 m 1.5,-5.6 3.15,-0.1 -3.15,0.1 m -9.9,-0.1 H 8.3 2.35 m -16.45,38.4 -0.05,-0.1 -0.15,-0.5 0.15,-3.3 v -13.8 l -0.1,-2.15 q -0.1,-1.3 0.35,-2.1 v -0.15 q 0,-0.8 2.45,-0.7 l 1.5,0.2 q 2.6,-4.7 6.4,-5.55 l 0.95,-0.25 h 5.05 l 0.9,0.2 0.2,0.05 q 3.8,0.85 6.4,5.55 l 1.5,-0.2 q 2.45,-0.1 2.45,0.7 v 0.15 q 0.45,0.8 0.35,2.1 l -0.1,2.15 v 13.8 l 0.15,3.3 -0.15,0.5 -0.55,0.45 v 0.05 l -0.6,0.35 h -26 l -0.6,-0.4 q -0.3,-0.05 -0.5,-0.35 m 21.9,-31.05 1.25,0.9 1.35,1.15 1.25,0.95 q 0.65,0.35 1.8,0.7 l 0.9,-0.05 h 5.7 1.15 l -0.05,-0.5 -0.05,-1.85 0.1,-1.25 H 15.3 15.1 14.25 12 11.9 10.75 v -0.05 H 7.8 m 1.25,9.95 q -0.35,0 -1.45,-1.7 l -1.85,-2.25 q -1.7,-1.1 -4.15,-1.6 l -1.65,-0.25 -1.55,0.25 q -2.45,0.5 -4.15,1.6 l -1.85,2.25 q -1.1,1.7 -1.45,1.7 l -0.6,-0.1 -1.5,0.1 h -1.55 v 0.05 l 0.2,2.75 v 14.25 l 0.1,2.55 -0.1,0.8 h 25 l -0.1,-0.8 0.1,-2.55 V -48.1 l 0.2,-2.75 v -0.05 h -1.55 l -1.5,-0.1 -0.6,0.1 M 7.3,-58.85 q -1.65,-1.3 -3.2,-2 h -8.2 q -1.55,0.7 -3.2,2 -4.3,3.45 -6.85,3.45 l -0.5,-0.05 h -1.3 v 27.65 0.1 h 31.9 v -0.1 -27.65 h -1.3 l -0.5,0.05 q -2.55,0 -6.85,-3.45 m 13.15,34.65 0.45,-0.7 q -0.15,-0.8 -0.6,-0.85 h -40.6 q -0.45,0.05 -0.6,0.85 l 0.45,0.7 0.35,0.25 h 0.65 l 1.2,0.15 h 36.5 l 1.2,-0.15 h 0.65 l 0.35,-0.25 m -1.9,1.6 -1.4,-0.15 h -34.3 l -1.4,0.15 0.2,1.1 3.5,0.25 0.3,0.15 h 29.1 l 0.3,-0.15 3.5,-0.25 0.2,-1.1 m -6.5,6.2 h -0.1 -15.1 l -0.25,0.2 q -0.2,0.2 -0.5,0.3 0.55,1.75 0.5,4.05 l -0.2,5.5 V 4.8 q 0.2,17.55 -0.45,20.6 H 12.2 V 14.15 l 0.05,-0.1 v -15 L 12.2,-1.1 v -12.95 l -0.15,-1.2 v -1.15 m -25.55,43.15 -0.1,-0.15 -0.1,-0.05 -0.1,-0.05 v -43.85 l 0.5,-0.2 v -0.05 l 1.35,-0.2 h 23.9 l 1.35,0.2 v 0.05 l 0.5,0.2 v 43.45 0.4 l -0.1,0.05 -0.1,0.05 -0.65,0.5 -0.4,-0.15 h -0.15 -24.8 -0.15 l -0.4,0.15 -0.55,-0.35 m 29.45,-39.6 v -6.6 h -31.9 v 6.6 l 0.05,1.05 0.05,6.65 h -0.1 v 33.9 h 31.9 v -33.9 h -0.1 l 0.05,-6.65 0.05,-1.05 m 2.55,44.6 -0.05,-0.3 -0.1,-0.65 -3.5,-0.25 -0.3,-0.15 h -29.1 l -0.3,0.15 -3.5,0.25 v 0.25 l -0.2,0.85 h 0.1 l 1.3,0.15 h 0.6 33.7 l 1.4,-0.15 -0.05,-0.15 m 2.3,2.85 0.1,-0.4 q 0,-0.45 -0.8,-0.95 h -0.5 -0.15 l -1.2,-0.15 h -36.5 l -0.1,0.05 -1.1,0.1 h -0.65 q -0.8,0.5 -0.8,0.95 l 0.05,0.25 0.55,0.6 h 40.6 l 0.5,-0.45 m -4.85,2.5 V 37 h -31.9 v 0.1 16.6 h 31.9 V 37.1 m -4.45,6.9 0.25,0.05 q 1.55,0.6 2.3,2.05 0.6,1.1 0.6,2.25 l -0.05,0.8 q -0.15,0.55 -0.75,0.6 h -27.7 q -0.6,-0.05 -0.75,-0.6 l -0.05,-0.8 q 0,-1.15 0.6,-2.25 0.75,-1.45 2.3,-2.05 l 1.9,-0.5 q 1.5,-0.45 1.85,-0.8 1.7,-1.7 2.7,-1.7 h 1.25 l 1.9,-0.3 q 0.4,0 1.25,0.5 l 0.9,0.4 0.9,-0.4 q 0.85,-0.5 1.25,-0.5 l 1.9,0.3 H 5.3 q 1,0 2.7,1.7 0.35,0.35 1.85,0.8 l 0.25,0.1 0.15,0.05 1.25,0.3 m -0.05,4.1 h 1.4 q 0.2,-1.7 -3.6,-3 Q 7.4,44.55 5.8,43.35 L 5.6,43.2 Q 5.25,42.9 4.8,42.75 3.85,42.3 2.5,42.3 q -0.05,0 -0.6,0.35 l -0.2,0.1 -1,0.35 v 0.05 H 0.6 0.25 0 -0.25 -0.7 V 43.1 l -1,-0.35 -0.8,-0.45 q -1.95,0 -3.1,0.9 -1.7,1.3 -3.65,1.9 -3.8,1.3 -3.6,3 H -12 11.45 m -34,12.35 q -0.6,0.9 -0.6,1.4 0,0.3 1.45,0.6 0.95,0.55 1.25,2.15 H -15 l -0.5,-1.15 q 0,-1.7 1.95,-2.3 l 3,-0.1 4.15,0.75 6.4,1.25 6.4,-1.25 4.15,-0.75 3,0.1 q 1.95,0.6 1.95,2.3 L 15,64.6 h 5.45 q 0.3,-1.6 1.25,-2.15 1.45,-0.3 1.45,-0.6 0,-0.55 -0.65,-1.5 H 21.7 L 18.8,60.3 h -37.6 l -3.7,0.05 -0.05,0.1 m 5.6,-3.7 2.35,-0.05 2.35,-0.05 h 24.5 l 1.8,0.05 4,0.1 H 18.4 L 18.35,56.5 Q 18.3,55.95 17.7,55.65 L 17,55.8 h -34 l -0.7,-0.15 q -0.55,0.25 -0.6,0.75 l -0.05,0.1 -0.05,0.3 1.45,-0.05 M 20.3,66.4 v -0.45 h -5.8 l -0.2,0.45 h 6 m -0.15,-8.1 -0.25,-0.1 -1,-0.45 h -37.8 l -0.2,0.15 -0.8,0.3 -0.35,0.15 q -0.8,0.35 -1.5,1.1 l 2.95,0.1 h 37.6 l 2.95,-0.1 -1.6,-1.15 m -41.35,-119.1 0.1,1.25 -0.05,1.85 -0.05,0.5 h 1.15 5.7 l 0.9,0.05 q 1.15,-0.35 1.8,-0.7 l 1.25,-0.95 1.35,-1.15 1.25,-0.9 h -2 v 0.1 l -2.75,-0.05 h -0.1 -0.3 -1.2 -7.05 m 11.6,44.4 v 36.45 q 0.15,0.95 0.15,3.2 v 1.65 l -0.1,0.5 h 4.5 q -0.4,-1 -0.45,-3.5 l 0.2,-6.5 v -27.45 l -0.1,-2.75 0.2,-1.25 -0.15,-0.35 H -9.6 m -1.45,0 h -0.9 -0.1 v 1.15 l -0.15,1.2 V -1.1 l -0.05,0.15 v 15 l 0.05,0.1 V 25.4 h 1.2 l -0.2,-1.75 0.25,-3.7 V -16 l -0.1,-0.4 m -3.45,82.35 h -5.8 v 0.45 h 6 l -0.2,-0.45"
         fill="#6b6b6b"
         fill-rule="evenodd"
         stroke="none"
         id="path14" />
      <path
         d="m 10.25,43.7 0.5,0.05 0.75,0.25 -1.25,-0.3 m 11.45,16.65 -0.3,0.1 h -43.8 -0.15 l 0.05,-0.1 3.7,-0.05 h 37.6 l 2.9,0.05"
         fill="#a8a8a8"
         fill-rule="evenodd"
         stroke="none"
         id="path15" />
      <path
         d="m 18.5,31.75 0.05,0.15 -1.4,0.15 h -33.7 l 0.3,-0.05 34.1,-0.1 0.65,-0.15 m -35.45,25 -1.45,0.05 0.05,-0.3 0.05,-0.1 0.1,0.05 1.25,0.3 m 35.3,-0.25 0.05,0.3 h -0.35 l 0.3,-0.3"
         fill="#919191"
         fill-rule="evenodd"
         stroke="none"
         id="path16" />
      <path
         d="m 4.6,-54.15 q 2,1.05 2,2.6 0,0.65 -0.75,0.65 -0.2,0 -0.65,-0.45 H 4.95 q -0.5,0 -1.25,-0.55 -0.8,-0.55 -1.45,-0.55 -1.1,0 -1.8,0.5 l -0.75,0.45 q -0.3,0 -0.8,-0.35 -0.5,-0.4 -0.7,-0.4 -0.85,0 -3.7,1.6 l -0.05,0.05 -0.3,0.15 -0.45,-0.5 0.2,-0.4 -0.05,-0.1 q 0,-4 6.4,-3.75 2.55,0.1 4.35,1.05 m 3.85,4 2.95,-0.15 0.15,0.1 h 0.05 l 0.1,0.15 0.2,0.3 -0.2,0.3 -0.3,1.4 -0.3,0.1 Q 10.6,-48.4 10.55,-48.8 9.75,-49 9.6,-49.25 L 8.45,-49.6 v -0.55 m -2.7,2.35 q -0.2,0.75 -0.95,1.05 L 4.25,-47.3 q 0,-1.2 1.45,-0.8 l 0.05,0.3 m -5.6,-0.4 q -0.9,0 -0.65,-1.1 0,-1.2 0.65,-1.2 0.65,0 0.65,1.1 0.1,1.2 -0.65,1.2 m 7.5,7.05 q -1.1,0 -1.35,-0.4 v -0.4 q 0,-0.9 1.35,-0.85 1.35,0.05 1.35,0.85 0,0.8 -1.35,0.8 m -1.8,5.3 q 0,0.65 -0.6,0.65 -0.6,0 -0.9,-0.6 L 4.2,-36.3 q 0,-0.95 0.85,-0.5 0.8,0.45 0.8,0.95 m 2.85,3.05 q 1.35,-1.1 1.8,-1.25 v -0.05 q 0,-0.45 0.45,-0.75 0.9,0.1 0.95,2.65 l -0.2,0.6 -2.8,0.35 q -0.55,0 -0.7,-0.4 l -0.05,-0.4 0.55,-0.75 m -20.25,-16.95 q 0,-0.4 0.55,-0.5 l 1.25,-0.05 0.15,0.1 q 1.05,0.2 1.05,0.65 l -0.15,0.25 -0.45,0.35 H -9.8 l -0.25,0.25 -1.1,0.95 q -0.45,0 -0.55,-0.3 v -0.4 l 0.2,-1.15 -0.05,-0.15 m 5.8,3 q 0,0.6 -0.85,0.6 -0.6,0 -0.9,-0.6 l -0.2,-0.5 q 0,-0.75 1,-0.35 0.95,0.45 0.95,0.85 m -4.05,5.9 q -1.6,0 -1.3,-0.75 0,-0.9 1.5,-0.85 1.45,0.05 1.45,0.85 0,0.75 -1.65,0.75 m -1.35,6.55 q 0.8,0.95 2.05,1.5 0.85,0.4 0.85,0.8 0,0.55 -0.5,0.7 l -2.35,0.2 q -1.4,0 -1.05,-0.8 0.1,-3.5 1,-2.4 m 10.4,-0.65 Q 0,-34.8 0,-33.55 l -0.15,0.6 -0.5,0.35 q -0.95,0 -0.85,-0.95 0,-1.5 0.75,-1.4 M -5.1,-36.2 q 0,0.25 -0.7,0.8 -0.65,0.55 -0.8,0.55 l -0.5,-0.45 q 0,-0.85 1,-1.3 1,-0.45 1,0.4"
         fill="#999999"
         fill-rule="evenodd"
         stroke="none"
         id="path17" />
      <path
         d="m 4.6,-54.15 q -1.8,-0.95 -4.35,-1.05 -6.4,-0.25 -6.4,3.75 l 0.05,0.1 -0.2,0.4 0.45,0.5 0.3,-0.15 0.05,-0.05 q 2.85,-1.6 3.7,-1.6 0.2,0 0.7,0.4 0.5,0.35 0.8,0.35 l 0.75,-0.45 q 0.7,-0.5 1.8,-0.5 0.65,0 1.45,0.55 0.75,0.55 1.25,0.55 H 5.2 q 0.45,0.45 0.65,0.45 0.75,0 0.75,-0.65 0,-1.55 -2,-2.6 m 4.45,3.25 0.6,-0.1 1.5,0.1 h 1.55 v 0.05 l -0.2,2.75 v 14.25 l -0.1,2.55 0.1,0.8 h -25 l 0.1,-0.8 -0.1,-2.55 V -48.1 l -0.2,-2.75 v -0.05 h 1.55 l 1.5,-0.1 0.6,0.1 q 0.35,0 1.45,-1.7 l 1.85,-2.25 q 1.7,-1.1 4.15,-1.6 l 1.55,-0.25 1.65,0.25 q 2.45,0.5 4.15,1.6 l 1.85,2.25 q 1.1,1.7 1.45,1.7 m -0.6,0.75 v 0.55 l 1.15,0.35 q 0.15,0.25 0.95,0.45 0.05,0.4 0.55,0.85 l 0.3,-0.1 0.3,-1.4 0.2,-0.3 -0.2,-0.3 -0.1,-0.15 h -0.05 l -0.15,-0.1 -2.95,0.15 m 0.25,17.35 -0.55,0.75 0.05,0.4 q 0.15,0.4 0.7,0.4 l 2.8,-0.35 0.2,-0.6 q -0.05,-2.55 -0.95,-2.65 -0.45,0.3 -0.45,0.75 v 0.05 q -0.45,0.15 -1.8,1.25 m -2.85,-3.05 q 0,-0.5 -0.8,-0.95 -0.85,-0.45 -0.85,0.5 l 0.15,0.5 q 0.3,0.6 0.9,0.6 0.6,0 0.6,-0.65 m 1.8,-5.3 q 1.35,0 1.35,-0.8 0,-0.8 -1.35,-0.85 -1.35,-0.05 -1.35,0.85 v 0.4 q 0.25,0.4 1.35,0.4 m -7.5,-7.05 q 0.75,0 0.65,-1.2 0,-1.1 -0.65,-1.1 -0.65,0 -0.65,1.2 -0.25,1.1 0.65,1.1 m 5.6,0.4 -0.05,-0.3 q -1.45,-0.4 -1.45,0.8 l 0.55,0.55 q 0.75,-0.3 0.95,-1.05 M -5.1,-36.2 q 0,-0.85 -1,-0.4 -1,0.45 -1,1.3 l 0.5,0.45 q 0.15,0 0.8,-0.55 0.7,-0.55 0.7,-0.8 m 4.35,1.25 q -0.75,-0.1 -0.75,1.4 -0.1,0.95 0.85,0.95 l 0.5,-0.35 0.15,-0.6 q 0,-1.25 -0.75,-1.4 m -10.4,0.65 q -0.9,-1.1 -1,2.4 -0.35,0.8 1.05,0.8 l 2.35,-0.2 q 0.5,-0.15 0.5,-0.7 0,-0.4 -0.85,-0.8 -1.25,-0.55 -2.05,-1.5 m 1.35,-6.55 q 1.65,0 1.65,-0.75 0,-0.8 -1.45,-0.85 -1.5,-0.05 -1.5,0.85 -0.3,0.75 1.3,0.75 m 4.05,-5.9 q 0,-0.4 -0.95,-0.85 -1,-0.4 -1,0.35 l 0.2,0.5 q 0.3,0.6 0.9,0.6 0.85,0 0.85,-0.6 m -5.8,-3 0.05,0.15 -0.2,1.15 v 0.4 q 0.1,0.3 0.55,0.3 l 1.1,-0.95 0.25,-0.25 h 0.65 l 0.45,-0.35 0.15,-0.25 q 0,-0.45 -1.05,-0.65 l -0.15,-0.1 -1.25,0.05 q -0.55,0.1 -0.55,0.5"
         fill="#cccccc"
         fill-rule="evenodd"
         stroke="none"
         id="path18" />
      <path
         d="m -26.3,-65.15 v -0.25 -0.65 -0.15 -0.25 l 3.15,0.1 h 10.1 0.1 24.05 v -0.05 l 1.55,0.05 h 1.9 8.6 l 3.15,-0.1 v 0.25 0.9 H 11.1 v -0.15 l -0.5,0.1 -4.6,0.15 -9.85,0.2 h -5.95 -3.15 -0.5 -3.6 -1.7 -0.35 l -6.55,-0.3 -0.5,0.15 h -0.15 m 5.85,40.95 -0.45,-0.7 q 0.15,-0.8 0.6,-0.85 h 40.6 q 0.45,0.05 0.6,0.85 l -0.45,0.7 h -40.9 M -12,48.1 h -0.85 q -0.2,-1.7 3.6,-3 1.95,-0.6 3.65,-1.9 1.15,-0.9 3.1,-0.9 l 0.8,0.45 1,0.35 v 0.05 H -0.25 0 0.25 0.6 0.7 V 43.1 l 1,-0.35 0.2,-0.1 q 0.55,-0.35 0.6,-0.35 1.35,0 2.3,0.45 0.45,0.15 0.8,0.45 l 0.2,0.15 q 1.6,1.2 3.45,1.75 3.8,1.3 3.6,3 h -1.4 L 11.4,48.05 11.05,47.2 Q 10.85,46.9 7.9,45.85 6.8,45.5 5.8,44.6 L 5.35,44.1 3.35,44.2 1.95,44 Q 1,44.4 0.1,44.4 L -2.2,44 -3.95,43.6 -12,48.1"
         fill="#ffffff"
         fill-rule="evenodd"
         stroke="none"
         id="path19" />
      <path
         d="m -26.3,-65.15 h 0.15 l 0.5,-0.15 6.55,0.3 h 0.35 1.7 3.6 0.5 3.15 5.95 l 9.85,-0.2 4.6,-0.15 0.5,-0.1 v 0.15 h 15.2 v 0.65 0.15 l -6.4,-0.05 h -0.4 l -8.4,0.1 v -0.05 l -30.8,-0.05 -6.6,0.05 v -0.15 -0.5 m 46.75,40.95 -0.35,0.25 h -0.65 l -1.2,0.15 h -36.5 l -1.2,-0.15 h -0.65 l -0.35,-0.25 h 40.9 M -12,48.1 -3.95,43.6 -2.2,44 0.1,44.4 Q 1,44.4 1.95,44 l 1.4,0.2 2,-0.1 0.45,0.5 q 1,0.9 2.1,1.25 2.95,1.05 3.15,1.35 l 0.35,0.85 0.05,0.05 H -12"
         fill="#dedede"
         fill-rule="evenodd"
         stroke="none"
         id="path20" />
      <path
         d="M 10.75,-62.5 H 8.5 7.15 -9.8 h -2.15 -1 -10.85 l -0.25,-0.1 v -0.2 -0.25 h 48.1 v 0.25 0.2 l -0.25,0.1 H 15.3 15.1 11.15 11.1 10.75 m -2.95,1.65 h 2.95 v 0.05 h 1.15 0.1 2.25 0.85 0.2 5.9 l -0.1,1.25 0.05,1.85 0.05,0.5 h -1.15 -5.7 l -0.9,0.05 q -1.15,-0.35 -1.8,-0.7 L 10.4,-58.8 9.05,-59.95 7.8,-60.85 m 5.8,31.45 v -0.05 l 0.55,-0.45 0.15,-0.5 -0.15,-3.3 v -13.8 l 0.1,-2.15 q 0.1,-1.3 -0.35,-2.1 v -0.15 q 0,-0.8 -2.45,-0.7 l -1.5,0.2 q -2.6,-4.7 -6.4,-5.55 L 3.35,-58 2.45,-58.2 H -2.6 l -0.95,0.25 q -3.8,0.85 -6.4,5.55 l -1.5,-0.2 q -2.45,-0.1 -2.45,0.7 v 0.15 q -0.45,0.8 -0.35,2.1 l 0.1,2.15 v 13.8 l -0.15,3.3 0.15,0.5 0.05,0.1 -0.25,0.7 q 0,0.8 0.95,0.95 l 26.1,-0.1 q 0.9,-0.1 0.9,-0.9 V -29.4 M 7.3,-58.85 q 4.3,3.45 6.85,3.45 l 0.5,-0.05 h 1.3 v 27.65 0.1 h -31.9 v -0.1 -27.65 h 1.3 l 0.5,0.05 q 2.55,0 6.85,-3.45 1.65,-1.3 3.2,-2 h 8.2 q 1.55,0.7 3.2,2 m 11.25,36.25 -0.2,1.1 -3.5,0.25 -0.3,0.15 h -29.1 l -0.3,-0.15 -3.5,-0.25 -0.2,-1.1 1.4,-0.15 h 34.3 l 1.4,0.15 M 13.8,26.1 v -43.45 l -0.5,-0.2 v -0.05 l -1.35,-0.2 h -23.9 l -1.35,0.2 v 0.05 l -0.5,0.2 V 26.5 l 0.1,0.05 0.1,0.05 0.1,0.15 -0.05,0.2 q 0.1,1.15 1.15,1.05 l 25.45,0.1 q 1.15,0 1.15,-1.15 L 14,26.35 13.8,26.1 m 2.15,-38.95 -0.05,1.05 -0.05,6.65 h 0.1 v 33.9 h -31.9 v -33.9 h 0.1 l -0.05,-6.65 -0.05,-1.05 v -6.6 h 31.9 v 6.6 m 4.85,47.45 -0.5,0.45 h -40.6 l -0.55,-0.6 0.4,0.05 41.1,0.1 h 0.15 m -4.85,2.5 v 16.6 h -31.9 V 37.1 37 h 31.9 v 0.1 m -5.7,6.6 -0.15,-0.05 -0.25,-0.1 Q 8.35,43.1 8,42.75 6.3,41.05 5.3,41.05 H 4.05 l -1.9,-0.3 q -0.4,0 -1.25,0.5 l -0.9,0.4 -0.9,-0.4 q -0.85,-0.5 -1.25,-0.5 l -1.9,0.3 H -5.3 q -1,0 -2.7,1.7 -0.35,0.35 -1.85,0.8 l -1.9,0.5 q -1.55,0.6 -2.3,2.05 -0.6,1.1 -0.6,2.25 l 0.05,0.8 q 0.15,0.55 0.75,0.6 h 27.7 q 0.6,-0.05 0.75,-0.6 l 0.05,-0.8 q 0,-1.15 -0.6,-2.25 -0.75,-1.45 -2.3,-2.05 L 11.5,44 10.75,43.75 10.25,43.7 M 21.7,60.35 h 0.8 q 0.65,0.95 0.65,1.5 0,0.3 -1.45,0.6 Q 20.75,63 20.45,64.6 H 15 l 0.5,-1.15 q 0,-1.7 -1.95,-2.3 l -3,-0.1 L 6.4,61.8 0,63.05 -6.4,61.8 l -4.15,-0.75 -3,0.1 q -1.95,0.6 -1.95,2.3 l 0.5,1.15 h -5.45 q -0.3,-1.6 -1.25,-2.15 -1.45,-0.3 -1.45,-0.6 0,-0.5 0.6,-1.4 h 0.15 43.8 l 0.3,-0.1 m -41.95,-2 0.35,-0.15 0.8,-0.3 0.2,-0.15 h 37.8 l 1,0.45 0.25,0.1 H 5.4 l -9.7,0.05 H -20.25 M -21.2,-60.8 h 7.05 1.2 0.3 0.1 l 2.75,0.05 v -0.1 h 2 l -1.25,0.9 -1.35,1.15 -1.25,0.95 q -0.65,0.35 -1.8,0.7 l -0.9,-0.05 h -5.7 -1.15 l 0.05,-0.5 0.05,-1.85 -0.1,-1.25"
         fill="#928181"
         fill-rule="evenodd"
         stroke="none"
         id="path21" />
      <path
         d="m -14.1,-29.8 q 0.2,0.3 0.5,0.35 l 0.6,0.4 h 26 l 0.6,-0.35 v 0.25 q 0,0.8 -0.9,0.9 l -26.1,0.1 q -0.95,-0.15 -0.95,-0.95 l 0.25,-0.7 m 27.9,55.9 0.2,0.25 0.2,0.6 q 0,1.15 -1.15,1.15 L -12.4,28 q -1.05,0.1 -1.15,-1.05 l 0.05,-0.2 0.55,0.35 0.4,-0.15 h 0.15 24.8 0.15 l 0.4,0.15 0.65,-0.5 0.1,-0.05 0.1,-0.05 v -0.4 m -30.35,5.95 h -0.6 l -1.3,-0.15 h -0.1 l 0.2,-0.85 V 30.8 l 3.5,-0.25 0.3,-0.15 h 29.1 l 0.3,0.15 3.5,0.25 0.1,0.65 0.05,0.3 -0.65,0.15 -34.1,0.1 -0.3,0.05 m -4.3,2.4 -0.05,-0.25 q 0,-0.45 0.8,-0.95 h 0.65 l 1.1,-0.1 0.1,-0.05 h 36.5 l 1.2,0.15 h 0.15 0.5 q 0.8,0.5 0.8,0.95 l -0.1,0.4 h -0.15 l -41.1,-0.1 -0.4,-0.05 M 20.3,66.4 h -6 l 0.2,-0.45 h 5.8 v 0.45 m -2.25,-9.6 -4,-0.1 -1.8,-0.05 h -24.5 l -2.35,0.05 -2.35,0.05 -1.25,-0.3 -0.1,-0.05 q 0.05,-0.5 0.6,-0.75 l 0.7,0.15 h 34 l 0.7,-0.15 q 0.6,0.3 0.65,0.85 l -0.3,0.3 m 2.1,1.5 1.6,1.15 -2.95,0.1 h -37.6 l -2.95,-0.1 q 0.7,-0.75 1.5,-1.1 H -4.3 L 5.4,58.3 h 14.75 m -34.65,7.65 0.2,0.45 h -6 v -0.45 h 5.8"
         fill="#aa9595"
         fill-rule="evenodd"
         stroke="none"
         id="path22" />
      <path
         d="m 14.7,-68.2 h 0.7 7.75 3.6 l 0.65,0.1 0.55,0.15 q 0.5,0.2 0.5,0.65 l -0.2,0.3 0.1,0.85 -0.1,1.45 -0.2,0.65 -0.1,0.2 v 0.05 q 0.15,0.75 -0.85,0.75 h -1.55 v 0.25 q 0.15,1.25 -0.5,1.5 -0.4,0.4 -1.6,0.5 H 22.7 l 0.15,1.3 q 0.2,3.05 -0.7,3.45 l -0.05,0.25 q -0.15,0.3 -0.75,0.35 H 18.1 v 27.75 h 2.7 q 1.35,0.3 1.8,0.95 l 0.25,1.05 q 0,3.65 -1.65,3.85 -1,0.1 -1.15,0.7 l -0.3,0.95 q -0.9,0.95 -1.1,0.85 l -0.25,-0.15 -0.2,0.05 h -0.1 v 6.5 q 0.2,0.5 0,1.15 l 0.1,6.65 h -0.1 v 33.9 h 0.1 l 0.2,0.05 0.25,-0.15 q 0.2,-0.1 1.1,0.85 l 0.3,0.95 q 0.15,0.6 1.15,0.7 1.65,0.2 1.65,3.85 L 22.6,36.05 Q 22.15,36.7 20.8,37 h -2.75 v 0.1 h 0.05 v 1.85 l -0.05,1.45 h 0.05 v 13.5 q 1.45,0.3 1.95,1.3 0.45,0.85 1.4,1.3 L 22.7,57 q 1.5,1.25 2.1,2.55 0.45,1 0.45,2.45 0,1.45 -0.3,1.7 l -1.3,0.7 q -0.75,0.4 -0.95,0.85 0.6,0 1,0.8 l 0.35,1.25 -0.1,0.75 q -0.2,0.45 -1.25,0.6 h -8.85 q -0.6,0.05 -0.9,-0.45 l -0.2,-0.3 q -0.4,-0.3 -0.4,-1.35 0,-0.65 0.5,-1.35 0.6,-0.8 0.7,-1.8 l -0.8,-0.3 -0.7,-0.15 -1.5,0.15 V 63.05 L 4.6,63.7 0.7,64.55 v 0.3 L 0,64.7 -0.7,64.85 v -0.3 l -3.9,-0.85 -5.95,-0.65 v 0.05 l -1.5,-0.15 -0.7,0.15 -0.8,0.3 q 0.1,1 0.7,1.8 0.5,0.7 0.5,1.35 0,1.05 -0.4,1.35 l -0.2,0.3 q -0.3,0.5 -0.9,0.45 h -8.85 q -1.05,-0.15 -1.25,-0.6 l -0.1,-0.75 0.35,-1.25 q 0.4,-0.8 1,-0.8 -0.2,-0.45 -0.95,-0.85 l -1.3,-0.7 q -0.3,-0.25 -0.3,-1.7 0,-1.45 0.45,-2.45 0.6,-1.3 2.1,-2.55 l 1.25,-0.5 q 0.95,-0.45 1.4,-1.3 0.5,-1 1.95,-1.3 V 40.4 h 0.05 L -18.1,38.95 V 37.1 h 0.05 V 37 h -2.75 q -1.35,-0.3 -1.8,-0.95 L -22.85,35 q 0,-3.65 1.65,-3.85 1,-0.1 1.15,-0.7 l 0.3,-0.95 q 0.9,-0.95 1.1,-0.85 l 0.25,0.15 0.2,-0.05 h 0.1 v -33.9 h -0.1 l 0.1,-6.65 q -0.2,-0.65 0,-1.15 v -6.5 h -0.1 l -0.2,-0.05 -0.25,0.15 q -0.2,0.1 -1.1,-0.85 l -0.3,-0.95 q -0.15,-0.6 -1.15,-0.7 -1.65,-0.2 -1.65,-3.85 l 0.25,-1.05 q 0.45,-0.65 1.8,-0.95 h 2.7 v -27.75 h -3.25 q -0.6,-0.05 -0.75,-0.35 l -0.05,-0.25 q -0.9,-0.4 -0.7,-3.45 l 0.15,-1.3 h -0.75 q -1.2,-0.1 -1.6,-0.5 -0.65,-0.25 -0.5,-1.5 v -0.25 h -1.55 q -1,0 -0.85,-0.75 v -0.05 l -0.1,-0.2 -0.2,-0.65 -0.1,-1.45 0.1,-0.85 -0.2,-0.3 q 0,-0.45 0.5,-0.65 l 0.55,-0.15 0.65,-0.1 h 3.6 10.1 0.1 15.3 5.95 0.25 0.55 l 3.15,0.1 0.4,-0.05 1.9,-0.05 h 0.15 m 0.7,0 -3.15,0.1"
         fill="none"
         stroke="#6b6b6b"
         stroke-linecap="round"
         stroke-linejoin="round"
         stroke-width="1"
         id="path23" />
    </g>
    <g
       id="sprite3"
       transform="translate(5.4,4)">
      <use
         ffdec:characterId="43"
         height="8"
         transform="translate(-5.4,-4)"
         width="10.8"
         xlink:href="#shape3"
         id="use23" />
    </g>
    <g
       id="shape3"
       transform="translate(5.4,4)">
      <path
         d="m 2.9,-0.35 q 0,-1.25 1.25,-1.25 1.25,0 1.25,1.2 0,1.3 -1.25,1.3 Q 3.6,0.9 3.25,0.5 2.9,0.15 2.9,-0.35 m 0.35,-2.3 q 0,0.55 -0.35,0.9 -0.4,0.45 -1,0.45 -1.35,0 -1.35,-1.4 0,-1.3 1.35,-1.3 1.35,0 1.35,1.35 m -3.1,1.9 h 0.2 q 2.6,0.1 2.6,2.8 l -0.3,1 Q 2.05,4 0.45,4 H 0.35 0.15 0.1 -0.45 q -1.6,0 -2.2,-0.95 l -0.3,-1 q 0,-2.8 2.8,-2.8 h 0.3 M -1.55,-4 q 1.35,0 1.35,1.35 0,0.55 -0.4,0.9 -0.4,0.45 -0.95,0.45 -1.4,0 -1.4,-1.4 0,-1.3 1.4,-1.3 m -2.6,2.4 q 1.25,0 1.25,1.25 0,0.5 -0.35,0.85 -0.35,0.4 -0.9,0.4 -1.25,0 -1.25,-1.3 0,-1.2 1.25,-1.2"
         fill="#999999"
         fill-rule="evenodd"
         stroke="none"
         id="path24" />
    </g>
    <g
       id="sprite4"
       transform="translate(0.5,2.4)">
      <use
         ffdec:characterId="2719"
         height="4.8499999"
         transform="translate(-0.5,-2.4)"
         width="1"
         xlink:href="#shape4"
         id="use24" />
    </g>
    <g
       id="shape4"
       transform="translate(0.5,2.4)">
      <path
         d="m 0.5,1.25 q -0.05,1.2 -0.45,1.2 -0.65,0 -0.5,-2.8 0,-2.2 0.5,-2.05 0.45,0.15 0.45,2.45 v 1.2"
         fill="#6b6b6b"
         fill-rule="evenodd"
         stroke="none"
         id="path25" />
    </g>
    <g
       id="sprite5"
       transform="translate(660.25,0.5)">
      <use
         ffdec:characterId="68"
         height="1.5"
         transform="translate(-660.25,-0.5)"
         width="1320.3"
         xlink:href="#shape5"
         id="use25" />
    </g>
    <g
       id="shape5"
       transform="translate(660.25,0.5)">
      <path
         d="m 659.3,-0.5 0.55,0.25 0.2,0.5 -0.2,0.55 L 659.3,1 H -659.5 l -0.5,-0.2 -0.25,-0.55 0.25,-0.5 0.5,-0.25 H 659.3"
         fill="#ffff00"
         fill-opacity="0"
         fill-rule="evenodd"
         stroke="none"
         id="path26" />
    </g>
  </defs>
</svg>
