<?xml version="1.0" encoding="UTF-8" standalone="no"?>
<svg
   ffdec:objectType="frame"
   height="61.200001"
   width="55.5"
   version="1.1"
   id="svg14"
   sodipodi:docname="2.svg"
   xmlns:inkscape="http://www.inkscape.org/namespaces/inkscape"
   xmlns:sodipodi="http://sodipodi.sourceforge.net/DTD/sodipodi-0.dtd"
   xmlns:xlink="http://www.w3.org/1999/xlink"
   xmlns="http://www.w3.org/2000/svg"
   xmlns:svg="http://www.w3.org/2000/svg"
   xmlns:ffdec="https://www.free-decompiler.com/flash">
  <sodipodi:namedview
     id="namedview14"
     pagecolor="#ffffff"
     bordercolor="#000000"
     borderopacity="0.25"
     inkscape:showpageshadow="2"
     inkscape:pageopacity="0.0"
     inkscape:pagecheckerboard="0"
     inkscape:deskcolor="#d1d1d1"
     fit-margin-top="5"
     fit-margin-left="5"
     fit-margin-right="5"
     fit-margin-bottom="5" />
  <g
     transform="translate(24.9,30.25)"
     id="g3">
    <use
       ffdec:characterId="2776"
       height="34.5"
       transform="matrix(-0.6944,0,0,0.8662,29.2639,-30.1994)"
       width="9.3999996"
       xlink:href="#sprite0"
       id="use1" />
    <use
       ffdec:characterId="2777"
       height="61.200001"
       transform="translate(-24.95,-30.25)"
       width="55.549999"
       xlink:href="#shape1"
       id="use2" />
    <use
       ffdec:characterId="44"
       height="8"
       transform="translate(1.4,18.65)"
       width="10.8"
       xlink:href="#sprite2"
       id="use3" />
  </g>
  <defs
     id="defs14">
    <g
       id="sprite0"
       transform="translate(4.7,17.2)">
      <use
         ffdec:characterId="2775"
         height="34.25"
         transform="translate(-3.7,-17.05)"
         width="7.5500002"
         xlink:href="#sprite1"
         id="use4" />
    </g>
    <g
       id="sprite1"
       transform="translate(3.7,17.05)">
      <use
         ffdec:characterId="2774"
         height="34.25"
         transform="translate(-3.7,-17.05)"
         width="7.5500002"
         xlink:href="#shape0"
         id="use5" />
    </g>
    <g
       id="shape0"
       transform="translate(3.7,17.05)">
      <path
         d="M 0.65,-15.4 V 10 l 0.05,0.15 q 3.15,0.2 3.15,3.35 0,1.25 -0.5,2.15 Q 2.5,17.2 0.4,17.2 H 0.1 0.05 -0.25 q -2.1,0 -2.95,-1.55 -0.5,-0.9 -0.5,-2.15 0,-3.15 3.15,-3.35 L -0.5,10 V -15.4 L 0.05,-17 v -0.05 H 0.1 V -17 q 0.35,0.4 0.55,1.6 m 1.4,28.6 Q 1.85,12.05 0.1,12.1 H 0.05 Q -1.7,12.05 -1.9,13.2 v 0.25 q 0,1.8 1.75,1.8 h 0.2 0.05 0.2 q 1.75,0 1.75,-1.8 V 13.2"
         fill="#6b6b6b"
         fill-rule="evenodd"
         stroke="none"
         id="path5" />
      <path
         d="m -1.9,13.2 q 0.2,-1.15 1.95,-1.1 H 0.1 q 1.75,-0.05 1.95,1.1 L 1.8,13.6 Q 1.25,14.35 0.2,14.35 H 0.1 0.05 -0.05 q -1.05,0 -1.6,-0.75 L -1.9,13.2"
         fill="#9f7b7b"
         fill-rule="evenodd"
         stroke="none"
         id="path6" />
      <path
         d="m -1.9,13.2 0.25,0.4 q 0.55,0.75 1.6,0.75 h 0.1 0.05 0.1 q 1.05,0 1.6,-0.75 l 0.25,-0.4 v 0.25 q 0,1.8 -1.75,1.8 H 0.1 0.05 -0.15 q -1.75,0 -1.75,-1.8 V 13.2"
         fill="#896a6a"
         fill-rule="evenodd"
         stroke="none"
         id="path7" />
    </g>
    <g
       id="shape1"
       transform="translate(24.95,30.25)">
      <path
         d="M -18.25,7.05 -18.3,6.6 V 6.1 h -3.25 L -24.15,5.8 -24.4,5.15 V 5.05 4.4 q 0,-3.35 0.85,-4.2 0.3,-0.45 1.1,-0.4 l 28.6,0.1 v 0.05 H 13 v -0.4 h -0.05 v -0.8 l -0.05,-0.7 v -1 l 0.05,-3.6 v -15 H 3.85 3.2 l -0.5,0.1 q -0.7,0 -0.85,-0.85 h -0.1 v -0.45 l -0.05,-0.7 v -0.25 l 0.05,-1.65 v -0.7 -0.4 H 1.8 l 0.05,-1.15 q 0,-0.6 0.15,-0.95 v -0.15 q 0,-1 1.3,-1.05 l 3.95,0.05 h 1.3 1.2 0.3 3.85 v 0.05 l 8.7,0.05 h 1.35 0.2 0.55 1.4 l 3.25,0.35 q 0.75,0 0.75,0.9 v 0.75 1.55 2.35 l -0.05,1.4 H 29.9 q -0.2,0.45 -0.75,0.55 H 20.9 v 0.1 h 0.15 v 9.9 h 0.05 v 11.7 h 0.1 v 0.1 h 1.15 0.1 l 4.4,0.05 h 0.45 l 0.65,0.05 0.55,0.35 q 0.75,0.1 0.75,1.2 0.15,2.5 -0.2,3.55 L 28.95,5.5 28.9,5.55 28.85,5.7 H 28.8 Q 28.45,6.15 28,6.2 h -6.9 v 1.3 0.25 1 L 21.2,9.1 21.1,8.75 v -1 -0.25 l 0.05,1 h 0.05 v 0.6 2.45 q 0.25,10.1 -0.4,12.8 h 5.9 l 0.5,-0.1 Q 28,24.3 28,25 l -0.2,3.75 v 0.05 l 0.2,0.5 q 0,0.8 -1.1,1.15 l -49.75,-0.15 -0.5,-0.1 q -1.15,-0.2 -0.9,-2.45 0,-3.1 1.1,-3.25 l 0.45,0.15 h 4.4 L -18.35,24.4 V 9.1 l 0.1,-1.4 V 7.05 7.7 l -0.1,1.4 V 7.7 l 0.05,-0.65 h 0.05 m 46.8,-32.95 v -0.15 l -0.1,-1.55 v -0.1 l -0.1,-0.05 -5.8,0.05 -8.65,0.05 v 0.05 H 3.55 l 0.05,1.15 h 0.05 v 0.4 0.35 2.2 h 0.1 v 0.05 h 24.8 v -0.25 -2.2 m -9.45,4.15 h -3.85 v 0.1 H 14.9 v 0.4 h 0.3 l 3.9,0.15 v -0.65 m -4,2.65 h 3.85 l 0.15,0.05 v -1 l -4.2,0.1 v 0.65 0.15 0.05 h 0.2 m 4,3.95 h -4.2 v 1.7 h 3.95 l 0.25,0.05 v -1.75 m 0,-2.55 H 19 l -4.1,-0.15 v 1.5 l 4.2,0.15 v -1.5 m -0.25,5.25 H 14.9 v 0.7 0.1 h 0.05 l 2.6,-0.05 1.55,0.1 v -0.9 l -0.25,0.05 m -1.55,3.6 1.45,0.2 0.35,0.1 V -10 L 17.45,-9.95 14.9,-10 v 1.35 l 1.05,-0.05 1.35,-0.15 m -2.35,1.4 H 14.9 v 1.35 l 1.8,-0.05 2.4,0.15 v -1.25 l -0.75,0.05 -1.9,-0.2 -1.5,-0.05 M 14.9,-4.2 h 4.05 l 0.15,0.15 V -4.8 h -4.2 v 0.6 m 0,2.1 h 0.05 l 1.3,-0.1 v -0.05 l 2.15,0.05 0.7,0.1 V -3 H 18.95 14.9 v 0.9 m 0.1,1.65 v 0.4 h 4.1 V -0.7 l -1.15,0.05 -2.9,-0.1 h -0.1 v 0.3 H 15 M 27.5,3 27.4,2.2 27.1,1.55 -22.35,1.75 -22.3,3 v 0.25 0.9 h 0.75 L 27.35,4.1 27.3,3.9 V 3.85 L 27.5,3 M 19.1,7 V 6.2 h -4.2 v 0.7 h 3.15 L 19.1,7 M 14.9,8.55 V 8.7 h 0.2 3.6 l 0.35,0.1 H 19.1 V 8.75 7.9 H 18.8 18.05 14.9 V 8.55 M 19.05,9.9 18.65,9.75 14.9,9.7 v 1.4 h 4.2 V 9.9 h -0.05 m 0,1.95 h -0.1 -0.2 -1.8 -2 v 0.75 l 3.75,0.05 0.15,0.1 H 18.9 19 19.1 V 11.8 l -0.05,0.05 m -4.1,2.45 4.15,0.15 v -0.6 h -0.2 l -1.4,-0.15 -2.55,0.1 v 0.5 m 0.7,1.45 h 1.85 0.85 0.65 0.1 v -0.5 H 19 l -3.05,0.05 h -1 v 0.45 h 0.7 m -0.7,1.9 L 19,17.6 v -0.55 -0.4 h -4.05 v 1 m 0,1.55 2.85,-0.15 H 19 V 18.5 l -4.05,0.1 v 0.6 m 0,1.1 h 0.55 l 3.5,0.1 v -0.45 h -0.55 l -3.5,-0.15 v 0.5 m 0,3.1 H 19 v -0.55 l -0.45,0.1 -3.6,-0.2 v 0.65 m -2,0.9 V 6.2 l -23.05,-0.05 0.05,0.35 -0.2,2 v 8.05 l 0.1,4.15 v 2.7 l -0.15,1.3 10.35,0.05 H 4.3 4.75 4.9 5.05 5.2 12.85 v -0.1 l 0.1,-0.35 M 15,24.4 h 0.05 v 0.1 H 15.1 L 18.05,24.45 19,24.4 v -0.1 h -4.05 v 0.05 L 15,24.4 m 0.2,-2.65 h 1.85 L 19,21.9 v -0.6 h -4.05 v 0.45 h 0.25 m 10.55,6.05 -0.05,-1.3 -7.65,0.2 h -0.6 -2.5 v 0.05 l -37.05,0.1 v 0.85 0.15 0.5 H 6.15 V 28.3 l 19.6,-0.05 V 27.8 m -41.9,-19.55 0.85,-0.05 1.7,-0.1 1.4,0.15 V 7.8 h -2.45 -1.65 v 0.35 0.1 h 0.15 m -0.1,3.1 q 1.8,0.2 3.9,0.05 l 0.15,0.15 V 10.4 l -0.4,0.1 h -3.65 v 0.85 m 0,-1.85 h 3.9 l 0.15,0.1 V 9 l -1,0.1 h -3.05 v 0.4 m 3.9,2.85 h -3.45 l -0.45,0.05 v 0.85 l 2.05,-0.25 2,0.15 v -0.8 h -0.15 m 0.15,-6.2 -4.15,-0.05 0.05,0.75 h 4.1 v -0.7 m 0,8.25 -2.05,0.05 -2,-0.1 v 0.95 q 3,-0.25 3.9,0 l 0.15,0.05 V 14.4 m 0,3.6 h -4.05 v 0.65 l 0.05,-0.05 1.9,-0.15 h 0.75 1.2 l 0.15,0.1 V 18 m 0,-1.85 h -4.05 v 0.65 h 4.05 v -0.65 m -3.5,4.05 1.45,-0.1 0.8,0.05 1.25,0.1 V 19.6 l -1.2,0.05 H -14 l -1.35,-0.05 -0.9,-0.15 v 0.8 l 0.55,-0.05 m -0.55,1.25 v 0.8 h 2.05 0.05 l 1.95,0.1 V 21.5 h -1.7 -1.6 l -0.75,-0.05 m 4.15,3.1 V 24.5 h -0.3 l -3.85,-0.05 v 0.2 l 4,0.05 h 0.2 l -0.05,-0.15 m -4.15,-0.95 h 0.1 1.25 l 2.7,-0.05 -0.05,-0.25 v -0.15 l -2.4,0.1 h -1.3 -0.3 v 0.35"
         fill="#6b6b6b"
         fill-rule="evenodd"
         stroke="none"
         id="path8" />
      <path
         d="m 14.9,-19.15 v -0.15 -0.65 l 4.2,-0.1 v 1 L 18.95,-19.1 H 15.1 l -0.2,-0.05 m 4.2,-2.6 v 0.65 l -3.9,-0.15 h -0.3 v -0.4 h 0.35 v -0.1 H 19.1 M 19.1,7 18.05,6.9 H 14.9 V 6.2 h 4.2 V 7 m -4,1.7 -0.2,-0.15 V 7.9 h 3.15 0.75 0.3 V 8.75 L 19.05,8.8 18.7,8.7 H 15.1 M -16.3,8.15 V 7.8 h 1.65 2.45 v 0.45 l -1.4,-0.15 -1.7,0.1 -0.85,0.05 -0.1,-0.1 h -0.05 m 4.1,-2 v 0.7 h -4.1 l -0.05,-0.75 4.15,0.05"
         fill="#939393"
         fill-rule="evenodd"
         stroke="none"
         id="path9" />
      <path
         d="m 15,-0.45 h -0.05 v -0.3 h 0.1 l 2.9,0.1 1.15,-0.05 v 0.65 H 15 v -0.4 M 14.9,-2.1 V -3 h 4.05 0.15 v 0.9 l -0.7,-0.1 -2.15,-0.05 v 0.05 l -1.3,0.1 H 14.9 m 0,-2.1 v -0.6 h 4.2 v 0.75 L 18.95,-4.2 H 14.9 m 0.05,-3.25 1.5,0.05 1.9,0.2 0.75,-0.05 V -6 l -2.4,-0.15 -1.8,0.05 v -1.35 h 0.05 m 2.35,-1.4 -1.35,0.15 -1.05,0.05 V -10 l 2.55,0.05 1.65,-0.05 v 1.45 l -0.35,-0.1 -1.45,-0.2 m 1.55,-3.6 0.25,-0.05 v 0.9 l -1.55,-0.1 -2.6,0.05 H 14.9 v -0.1 -0.7 h 3.95 m 0.25,-5.25 v 1.5 l -4.2,-0.15 v -1.5 l 4.1,0.15 h 0.1 m 0,2.55 v 1.75 l -0.25,-0.05 H 14.9 v -1.7 h 4.2 M 15.1,8.7 H 14.9 V 8.55 l 0.2,0.15 m 4,0.05 V 8.8 H 19.05 L 19.1,8.75 M 19.05,9.9 h 0.05 v 1.2 H 14.9 V 9.7 l 3.75,0.05 0.4,0.15 m -4.1,13.5 v -0.65 l 3.6,0.2 0.45,-0.1 v 0.55 h -4.05 m 0,-3.1 v -0.5 l 3.5,0.15 H 19 v 0.45 l -3.5,-0.1 h -0.55 m 0,-1.1 V 18.6 L 19,18.5 v 0.55 h -1.2 l -2.85,0.15 m 0,-1.55 v -1 H 19 v 0.4 0.55 l -4.05,0.05 m 0.7,-1.9 h -0.7 V 15.3 h 1 L 19,15.25 h 0.1 v 0.5 H 19 18.35 17.5 15.65 m -0.7,-1.45 v -0.5 l 2.55,-0.1 1.4,0.15 h 0.2 v 0.6 L 14.95,14.3 m 4.1,-2.45 0.05,-0.05 v 0.95 H 19 18.9 18.85 L 18.7,12.65 14.95,12.6 v -0.75 h 2 1.8 0.2 0.1 M 14.95,24.3 H 19 v 0.1 L 18.05,24.45 15.1,24.5 H 15.05 V 24.4 H 15 L 14.95,24.3 M 15.2,21.75 H 14.95 V 21.3 H 19 v 0.6 L 17.05,21.75 H 15.2 M -16.3,8.15 h 0.05 l 0.1,0.1 h -0.15 v -0.1 m 3.95,4.2 h 0.15 v 0.8 l -2,-0.15 -2.05,0.25 V 12.4 l 0.45,-0.05 h 3.45 M -16.25,9.5 V 9.1 h 3.05 l 1,-0.1 v 0.6 l -0.15,-0.1 h -3.9 m 0,1.85 V 10.5 h 3.65 l 0.4,-0.1 v 1.15 l -0.15,-0.15 q -2.1,0.15 -3.9,-0.05 m 4,13.35 -4,-0.05 v -0.2 l 3.85,0.05 h 0.3 v 0.05 l -0.15,0.15 m -4,-3.25 0.75,0.05 h 1.6 1.7 v 0.85 l -1.95,-0.1 h -0.05 -2.05 v -0.8 m 0.55,-1.25 -0.55,0.05 v -0.8 l 0.9,0.15 1.35,0.05 h 0.6 l 1.2,-0.05 v 0.65 l -1.25,-0.1 -0.8,-0.05 -1.45,0.1 m 3.5,-4.05 v 0.65 h -4.05 v -0.65 h 4.05 m 0,1.85 v 0.55 l -0.15,-0.1 h -1.2 -0.75 l -1.9,0.15 -0.05,0.05 V 18 h 4.05 m 0,-3.6 v 0.95 l -0.15,-0.05 q -0.9,-0.25 -3.9,0 v -0.95 l 2,0.1 2.05,-0.05 m -4.05,9.2 v -0.35 h 0.3 1.3 l 2.4,-0.1 v 0.15 l 0.05,0.25 -2.7,0.05 h -1.25 -0.1"
         fill="#a3a3a3"
         fill-rule="evenodd"
         stroke="none"
         id="path10" />
      <path
         d="m 3.65,-25.7 q 0.45,0.35 1.15,0.55 l 2.45,0.15 1.5,-0.15 h 15.4 0.55 l 3.25,-0.2 q 0.3,0.2 0.6,-0.55 v 2.2 0.25 H 3.75 v -0.05 h -0.1 v -2.2 M 27.5,3 27.3,3.85 V 3.9 l 0.05,0.2 -48.9,0.05 H -22.3 V 3.25 3 l 0.5,0.1 H 25.1 L 26.85,3.15 27.5,3 m -49.6,24.85 0.3,0.05 h 47.25 l 0.3,-0.1 v 0.45 L 6.15,28.3 v 0.05 H -22.1 v -0.5"
         fill="#886c6c"
         fill-rule="evenodd"
         stroke="none"
         id="path11" />
      <path
         d="m 3.65,-25.7 v -0.35 -0.4 H 3.6 L 3.55,-27.6 H 13.9 v -0.05 l 8.65,-0.05 5.8,-0.05 0.1,0.05 v 0.1 l 0.1,1.55 v 0.15 q -0.3,0.75 -0.6,0.55 l -3.25,0.2 H 24.15 8.75 L 7.25,-25 4.8,-25.15 Q 4.1,-25.35 3.65,-25.7 M -22.3,3 -22.35,1.75 27.1,1.55 27.4,2.2 27.5,3 26.85,3.15 25.1,3.1 H -21.8 L -22.3,3 m 0.2,24.85 V 27.7 26.85 l 37.05,-0.1 V 26.7 h 2.5 0.6 l 7.65,-0.2 0.05,1.3 -0.3,0.1 H -21.8 l -0.3,-0.05"
         fill="#9d7c7c"
         fill-rule="evenodd"
         stroke="none"
         id="path12" />
      <path
         d="m 20.9,-21.65 v -0.1 h 8.25 q 0.55,-0.1 0.75,-0.55 h 0.15 l 0.05,-1.4 v -2.35 -1.55 -0.75 q 0,-0.9 -0.75,-0.9 L 26.1,-29.6 h -1.4 -0.55 -0.2 -1.35 l -8.7,-0.05 V -29.7 H 10.05 9.75 8.55 7.25 L 3.3,-29.75 Q 2,-29.7 2,-28.7 v 0.15 Q 1.85,-28.2 1.85,-27.6 L 1.8,-26.45 H 1.75 v 0.4 0.7 L 1.7,-23.7 v 0.25 l 0.05,0.7 v 0.45 h 0.1 q 0.15,0.85 0.85,0.85 l 0.5,-0.1 h 0.65 9.1 v 15 l -0.05,3.6 v 1 l 0.05,0.7 v 0.8 H 13 v 0.4 H 6.15 V -0.1 l -28.6,-0.1 q -0.8,-0.05 -1.1,0.4 -0.85,0.85 -0.85,4.2 v 0.65 0.1 l 0.25,0.65 2.6,0.3 h 3.25 v 0.5 l 0.05,0.45 V 7.7 l -0.1,1.4 v 15.3 l 0.05,0.25 h -4.4 l -0.45,-0.15 q -1.1,0.15 -1.1,3.25 -0.25,2.25 0.9,2.45 l 0.5,0.1 49.75,0.15 Q 28,30.1 28,29.3 L 27.8,28.8 V 28.75 L 28,25 q 0,-0.7 -0.8,-0.75 l -0.5,0.1 h -5.9 q 0.65,-2.7 0.4,-12.8 V 9.1 L 21.1,8.75 V 7.75 7.5 6.2 H 28 q 0.45,-0.05 0.8,-0.5 h 0.05 L 28.9,5.55 28.95,5.5 29.05,5.25 Q 29.4,4.2 29.25,1.7 29.25,0.6 28.5,0.5 L 27.95,0.15 27.3,0.1 h -0.45 l -4.4,-0.05 h -0.1 -1.15 v -0.1 h -0.1 v -11.7 h -0.05 v -9.9 M 21.2,9.1 V 8.5 H 21.15 L 21.1,7.5 M -18.3,7.05 -18.35,7.7 v 1.4"
         fill="none"
         stroke="#6b6b6b"
         stroke-linecap="round"
         stroke-linejoin="round"
         stroke-width="1"
         id="path13" />
    </g>
    <g
       id="sprite2"
       transform="translate(5.4,4)">
      <use
         ffdec:characterId="43"
         height="8"
         transform="translate(-5.4,-4)"
         width="10.8"
         xlink:href="#shape2"
         id="use13" />
    </g>
    <g
       id="shape2"
       transform="translate(5.4,4)">
      <path
         d="m 2.9,-0.35 q 0,-1.25 1.25,-1.25 1.25,0 1.25,1.2 0,1.3 -1.25,1.3 Q 3.6,0.9 3.25,0.5 2.9,0.15 2.9,-0.35 m 0.35,-2.3 q 0,0.55 -0.35,0.9 -0.4,0.45 -1,0.45 -1.35,0 -1.35,-1.4 0,-1.3 1.35,-1.3 1.35,0 1.35,1.35 m -3.1,1.9 h 0.2 q 2.6,0.1 2.6,2.8 l -0.3,1 Q 2.05,4 0.45,4 H 0.35 0.15 0.1 -0.45 q -1.6,0 -2.2,-0.95 l -0.3,-1 q 0,-2.8 2.8,-2.8 h 0.3 M -1.55,-4 q 1.35,0 1.35,1.35 0,0.55 -0.4,0.9 -0.4,0.45 -0.95,0.45 -1.4,0 -1.4,-1.4 0,-1.3 1.4,-1.3 m -2.6,2.4 q 1.25,0 1.25,1.25 0,0.5 -0.35,0.85 -0.35,0.4 -0.9,0.4 -1.25,0 -1.25,-1.3 0,-1.2 1.25,-1.2"
         fill="#6b6b6b"
         fill-opacity="0.576471"
         fill-rule="evenodd"
         stroke="none"
         id="path14" />
    </g>
  </defs>
</svg>
