<?xml version="1.0" encoding="UTF-8" standalone="no"?>
<svg
   ffdec:objectType="frame"
   height="132.95"
   width="99.150002"
   version="1.1"
   id="svg5"
   sodipodi:docname="1.svg"
   xmlns:inkscape="http://www.inkscape.org/namespaces/inkscape"
   xmlns:sodipodi="http://sodipodi.sourceforge.net/DTD/sodipodi-0.dtd"
   xmlns:xlink="http://www.w3.org/1999/xlink"
   xmlns="http://www.w3.org/2000/svg"
   xmlns:svg="http://www.w3.org/2000/svg"
   xmlns:ffdec="https://www.free-decompiler.com/flash">
  <sodipodi:namedview
     id="namedview5"
     pagecolor="#ffffff"
     bordercolor="#000000"
     borderopacity="0.25"
     inkscape:showpageshadow="2"
     inkscape:pageopacity="0.0"
     inkscape:pagecheckerboard="0"
     inkscape:deskcolor="#d1d1d1"
     fit-margin-top="5"
     fit-margin-left="5"
     fit-margin-right="5"
     fit-margin-bottom="5" />
  <g
     transform="translate(49.6,65.55)"
     id="g1">
    <use
       ffdec:characterId="1395"
       height="132.95"
       transform="translate(-49.6,-65.55)"
       width="99.150002"
       xlink:href="#shape0"
       id="use1" />
  </g>
  <defs
     id="defs5">
    <g
       id="shape0"
       transform="translate(49.6,65.55)">
      <path
         d="m 1.6,-59.2 v 15.15 1.65 1 1.65 15.2 l 0.05,1.35 0.1,1.4 1.15,-0.1 v -0.05 l 1.05,-0.1 h 12.5 v -0.05 h 3.15 v 0.05 h 24.2 l 1.1,0.1 v 0.05 l 2,0.2 0.5,0.05 h 0.1 q 1.95,0 2.05,2.45 l -0.1,3.4 v 15.2 1.65 1 1.65 14.95 0.2 0.3 l 0.1,2.25 -0.15,1.15 -0.05,0.1 0.2,1.3 -0.1,3.45 v 15.15 1.65 1 1.65 14.3 0.7 l 0.1,2.7 Q 49.45,67 47.5,67 h -0.1 l -0.5,0.05 -2,0.2 V 67.3 L 43.8,67.35 7.2,67.4 V 67.35 H 3.95 L 2.9,67.3 V 67.25 L 0.85,67.05 0.4,67 H 0.3 -0.1 v 0.2 L -0.85,66.85 H -0.9 l -2,0.2 V 67.1 L -4,67.15 -40.6,67.2 v -0.05 h -3.25 L -44.9,67.1 v -0.05 l -2.05,-0.2 -0.5,-0.1 h -0.1 q -1.9,0 -2.05,-2.45 l 0.15,-2.45 V 60.95 46.65 45 44 42.3 27.15 l -0.15,-3.4 0.25,-1.15 v -0.05 l -0.15,-0.8 0.15,-2.55 V 18.65 4.05 2.4 1.4 -0.3 -15.45 l -0.15,-3.4 0.2,-1 -0.3,-1.3 0.15,-3.4 v -15.2 -1.65 -1 -1.65 -15.15 l -0.15,-3.45 q 0.15,-2.4 2.05,-2.4 h 0.1 l 0.5,-0.1 2.05,-0.2 v -0.05 l 1.05,-0.1 h 12.5 v -0.05 h 3.1 v 0.05 H -4 l 1.1,0.1 v 0.05 l 2,0.2 0.45,0.1 h 0.1 q 1.95,0 2.1,2.4 L 1.6,-59.2 m 44,42.15 -0.05,-1.65 -0.65,0.05 v 0.1 l -6.1,0.15 -1.6,-0.05 H 15.15 14.8 7.2 v 0.05 l -4.3,-0.15 v -0.1 l -0.6,-0.05 -0.05,1.65 -0.05,0.6 v 0.25 14.55 l 0.05,1.5 -0.05,0.2 v 1.5 l 0.1,1 -0.1,0.75 v 15.45 0.55 0.25 h 0.05 l 0.05,1.3 0.6,-0.05 v -0.05 l 4.3,-0.1 v 0.05 l 30,-0.05 h 1.6 q 3.65,-0.1 5.95,0.1 h 0.15 v 0.05 l 0.65,0.05 0.05,-1.3 h 0.05 V 19.3 18.75 18 3.9 L 45.6,2.9 45.65,2.3 V 0.8 L 45.6,0.25 45.65,-0.8 v -14.9 -0.5 L 45.6,-17.05 M 7.2,-4.8 40.05,-4.85 40.5,-4.8 v -8 H 7.2 v 8 m 17.75,-2.7 q -0.5,0.6 -1.2,0.6 -1.5,0 -1.65,-1.75 0,-1.75 1.7,-1.75 1.65,0 1.65,1.7 0,0.6 -0.5,1.2 M 7.2,-3.2 V 5.7 L 40.5,5.65 V -3.2 L 40.05,-3.15 7.2,-3.2 M 42.8,-14.95 V 18 H 7.2 6.4 4.9 V -14.95 H 42.8 M 45.6,26.1 45.55,24.5 44.9,24.55 V 24.6 H 44.75 L 38.8,24.75 37.2,24.7 H 15.15 14.8 7.2 v 0.05 L 2.9,24.6 V 24.55 L 2.3,24.5 2.25,26.1 2.2,26.7 V 26.95 41.5 L 2.25,43 2.2,43.2 v 1.55 l 0.1,1 -0.1,0.7 v 14.6 0.5 0.3 L 2.25,62.4 2.3,64.05 2.9,64 v -0.1 l 4.3,-0.1 v 0.05 l 30,-0.05 h 1.6 q 3.75,-0.1 6.1,0.1 V 64 l 0.65,0.05 0.05,-1.65 0.05,-0.55 v -0.3 -0.4 -0.1 -14 l -0.05,-1 0.05,-0.6 v -1.5 L 45.6,43.4 45.65,42.35 v -14.9 -0.5 L 45.6,26.1 M 40.5,7.35 7.2,7.3 v 8.5 H 40.5 V 7.35 m 2.3,20.9 V 61.3 H 7.2 6.4 4.9 v -0.15 -32.8 h 0.05 v -0.1 H 42.8 M 40.5,40.1 40.05,40.15 7.2,40.1 V 49 L 40.5,48.95 V 40.1 m 0,-9.6 H 7.2 v 8 l 32.85,-0.05 0.45,0.05 v -8 M 23.8,-0.4 q 1.65,0 1.65,1.7 0,0.6 -0.5,1.2 -0.5,0.6 -1.2,0.6 -1.5,0 -1.65,-1.75 0,-1.75 1.7,-1.75 m 1.15,13.1 q -0.5,0.6 -1.2,0.6 -1.5,0 -1.65,-1.75 0,-1.75 1.7,-1.75 1.65,0 1.65,1.7 0,0.6 -0.5,1.2 M 23.8,32.9 q 1.65,0 1.65,1.7 0,0.6 -0.5,1.2 -0.5,0.6 -1.2,0.6 -1.5,0 -1.65,-1.75 0,-1.75 1.7,-1.75 m -0.05,13.5 q -1.5,0 -1.65,-1.75 0,-1.75 1.7,-1.75 1.65,0 1.65,1.7 0,0.6 -0.5,1.2 -0.5,0.6 -1.2,0.6 m 1.2,9.6 q -0.5,0.6 -1.2,0.6 -1.5,0 -1.65,-1.75 0,-1.75 1.7,-1.75 1.65,0 1.65,1.7 0,0.6 -0.5,1.2 M 7.2,59.1 H 40.5 V 50.65 L 7.2,50.6 v 8.5 m -9.45,-119.6 -0.05,-1.6 -0.6,0.05 v 0.1 l -6.15,0.1 -1.55,-0.05 h -22.05 -0.4 -7.55 v 0.05 l -4.3,-0.1 v -0.1 l -0.65,-0.05 -0.05,1.6 -0.05,0.6 v 0.25 14.55 l 0.05,1.5 -0.05,0.2 v 1.55 l 0.1,1 -0.1,0.7 v 15.5 0.5 l 0.05,0.85 0.05,1.65 0.65,-0.05 v -0.1 l 0.95,-0.05 3.35,-0.05 v 0.05 l 30,-0.05 h 1.55 l 6.15,0.1 v 0.1 l 0.6,0.05 0.05,-1.65 0.05,-0.85 v -0.5 -0.75 -14.15 l -0.05,-1 0.05,-0.6 v -1.5 l -0.05,-0.55 0.05,-1.05 V -59.1 -59.65 L -2.25,-60.5 M -5,-58.35 v 32.95 h -35.6 -0.8 -1.5 V -58.35 H -5 m -17.35,6.25 q 0,0.6 -0.5,1.2 -0.5,0.6 -1.2,0.6 -1.5,0 -1.65,-1.75 0,-1.75 1.7,-1.75 1.65,0 1.65,1.7 m -18.25,14.4 33.3,-0.05 v -8.85 l -0.45,0.05 -32.85,-0.05 v 8.9 m 0,10.1 h 33.3 v -8.45 l -33.3,-0.05 v 8.5 m 38.45,10.9 -0.05,-1.65 -0.6,0.05 v 0.1 l -6.15,0.15 -1.55,-0.05 h -22.05 -0.4 -7.55 v 0.05 l -3.45,-0.1 -0.85,-0.05 v -0.1 l -0.65,-0.05 -0.05,1.65 -0.05,0.6 v 0.25 14.55 l 0.05,1.5 -0.05,0.2 v 1.5 l 0.1,1 -0.1,0.7 v 15.05 0.1 0.35 0.45 h 0.05 v 0.05 l 0.05,1.45 0.55,-0.05 v -0.05 l 0.95,-0.05 h 0.1 12.5 v -0.05 h 3.1 V 20.9 H -4 l 1.1,0.05 V 21 l 0.7,0.05 0.05,-1.45 V 19.55 H -2.1 V 19.1 18.75 18.65 18.35 4.25 L -2.15,3.25 -2.1,2.6 V 1.15 L -2.15,0.6 -2.1,-0.45 v -14.9 -0.5 l -0.05,-0.85 m -2.75,2.1 v 32.95 h -35.6 -0.8 -1.5 V -14.6 h 37.9 m -2.4,-33.6 v -8 h -33.3 v 8 l 32.85,-0.05 0.45,0.05 m -16.75,7.9 q -1.5,0 -1.65,-1.75 0,-1.75 1.7,-1.75 1.65,0 1.65,1.7 0,0.6 -0.5,1.2 -0.5,0.6 -1.2,0.6 m 1.2,9.6 q -0.5,0.6 -1.2,0.6 -1.5,0 -1.65,-1.75 0,-1.75 1.7,-1.75 1.65,0 1.65,1.7 0,0.6 -0.5,1.2 m -17.65,18.25 v 28.6 h 33.3 v -28.6 h -33.3 m 38.25,38.3 -0.05,-1.4 v -0.2 l -0.6,0.05 v 0.1 l -2.95,0.15 H -6.5 -9.05 L -10.6,24.5 h -22.05 -0.4 -7.55 v 0.05 h -1.55 l -1.8,-0.05 -0.95,-0.1 v -0.1 l -0.65,-0.05 v 0.15 l -0.05,1.45 -0.05,0.65 v 0.2 14.55 l 0.05,1.55 -0.05,0.2 v 1.5 l 0.1,1 -0.1,0.7 v 14.75 0.4 0.35 0.15 h 0.05 v 0.35 l 0.05,1.6 0.65,-0.05 v -0.1 l 4.3,-0.1 v 0.05 l 30,-0.05 h 1.55 q 3.75,-0.1 6.15,0.1 v 0.1 l 0.6,0.05 0.05,-1.6 0.05,-0.35 v -0.15 -0.35 -0.4 -14.1 l -0.05,-1 0.05,-0.65 V 43.75 L -2.25,43.15 -2.2,42.1 V 27.25 26.7 L -2.25,25.85 M -5,28 v 32.95 h -35.6 -0.8 -1.5 V 28 H -5 m -35.6,2.15 v 28.6 h 33.3 v -28.6 h -33.3"
         fill="#6b6b6b"
         fill-rule="evenodd"
         stroke="none"
         id="path1" />
      <path
         d="m 2.25,-17.05 h 0.1 q 0.8,0 1.1,0.6 H 2.2 l 0.05,-0.6 m 0,43.15 h 0.1 q 0.8,0 1.1,0.6 H 2.2 L 2.25,26.1 M -45.5,-16.7 h 0.1 q 0.8,0 1.15,0.6 h -1.3 l 0.05,-0.6 m -0.1,42.55 h 0.1 q 0.8,0 1.15,0.65 h -1.3 l 0.05,-0.65"
         fill="#919191"
         fill-rule="evenodd"
         stroke="none"
         id="path2" />
      <path
         d="m 3.45,-16.45 8.9,-0.45 4.1,-0.05 h 3.15 3.45 l 8.7,0.05 7.05,0.05 5.5,0.4 q 0.4,-0.6 1.2,-0.6 h 0.1 l 0.05,0.85 v 0.5 14.9 L 45.6,0.25 45.65,0.8 v 1.5 l -0.05,0.6 0.05,1 V 18 h -1.6 l -0.3,-2.15 V 14.2 L 43.9,5.65 v -8.2 l -0.15,-8.55 v -1.7 l 0.3,-2.15 H 42.8 4.9 V 18 H 3.75 L 4,15.85 4.05,14.05 3.9,8.4 V 5.15 -3.5 l 0.05,-4.15 0.1,-4.8 v -0.35 l -0.1,-2.15 -0.2,-1.5 h -0.3 m 42.15,36 -0.05,1.3 -0.65,-0.05 v -0.05 h -0.15 q -2.3,-0.2 -5.95,-0.1 h -1.6 l -30,0.05 v -0.05 l -4.3,0.1 V 20.8 L 2.3,20.85 2.25,19.55 H 45.6 M 24.95,-7.5 q 0.5,-0.6 0.5,-1.2 0,-1.7 -1.65,-1.7 -1.7,0 -1.7,1.75 0.15,1.75 1.65,1.75 0.7,0 1.2,-0.6 M 7.2,-4.8 v -8 h 33.3 v 8 L 40.05,-4.85 7.2,-4.8 m -3.75,31.5 8.9,-0.45 4.1,-0.05 h 3.15 3.45 l 8.7,0.05 7.05,0.1 5.5,0.35 0.45,-0.4 0.75,-0.2 h 0.1 l 0.05,0.85 v 0.5 14.9 l -0.05,1.05 0.05,0.55 v 1.5 l -0.05,0.6 0.05,1 v 14 0.1 h -1.6 L 44,60.95 Q 43.8,60.15 43.75,59 V 57.35 L 43.9,48.8 v -8.2 l -0.15,-8.55 v -1.7 l 0.3,-2.1 H 42.8 4.95 v 0.1 H 4.9 v 32.8 H 3.75 L 3.8,60.95 4,59 4.05,57.25 3.9,49.2 V 48.3 39.65 38.8 L 4.05,30.7 V 30.35 L 3.95,28.25 3.75,26.7 H 3.45 M 45.6,62.4 45.55,64.05 44.9,64 v -0.1 q -2.35,-0.2 -6.1,-0.1 h -1.6 l -30,0.05 V 63.8 L 2.9,63.9 V 64 L 2.3,64.05 2.25,62.4 h 0.1 q 0.75,0 1.1,-0.55 h 0.4 l 3.35,0.3 v 0.15 h 3.45 0.4 2.45 0.4 0.55 2 0.4 0.45 l 14.1,-0.05 h 0.8 l 6.6,-0.05 5.1,-0.35 h 0.45 q 0.4,0.55 1.15,0.55 h 0.1 M 40.5,7.35 V 15.8 H 7.2 V 7.3 l 33.3,0.05 m 0,23.15 v 8 L 40.05,38.45 7.2,38.5 v -8 H 40.5 M 24.95,12.7 q 0.5,-0.6 0.5,-1.2 0,-1.7 -1.65,-1.7 -1.7,0 -1.7,1.75 0.15,1.75 1.65,1.75 0.7,0 1.2,-0.6 M 23.8,32.9 q -1.7,0 -1.7,1.75 0.15,1.75 1.65,1.75 0.7,0 1.2,-0.6 0.5,-0.6 0.5,-1.2 0,-1.7 -1.65,-1.7 M 24.95,56 q 0.5,-0.6 0.5,-1.2 0,-1.7 -1.65,-1.7 -1.7,0 -1.7,1.75 0.15,1.75 1.65,1.75 0.7,0 1.2,-0.6 M 7.2,59.1 v -8.5 l 33.3,0.05 V 59.1 H 7.2 m -52.8,-82.4 h 0.1 q 0.8,0 1.15,-0.6 l 0.4,0.05 3.35,0.3 v 0.15 h 3.45 0.4 2.45 0.4 0.5 2.05 0.4 0.45 14.1 0.75 l 6.6,-0.05 5.55,-0.45 q 0.35,0.6 1.15,0.6 h 0.1 l -0.05,1.65 -0.6,-0.05 v -0.1 l -6.15,-0.1 h -1.55 l -30,0.05 v -0.05 l -3.35,0.05 -0.95,0.05 v 0.1 l -0.65,0.05 -0.05,-1.65 m 43.4,-2.1 h -1.55 l -0.3,-2.2 -0.05,-1.6 q 0.25,-6.45 0.2,-8.6 v -8.2 -3.4 l -0.2,-5.15 0.05,-1.65 0.3,-2.15 H -5 -42.9 v 32.95 h -1.15 l 0.1,-0.55 0.1,-1.65 0.05,-1.75 -0.1,-8.95 v -8.65 l 0.1,-8.95 v -0.3 l -0.05,-2.15 -0.2,-1.55 h -0.3 l 6.5,-0.4 2.4,-0.05 4.1,-0.05 h 3.1 3.5 l 8.7,0.05 7,0.1 5.55,0.35 q 0.35,-0.6 1.15,-0.6 h 0.1 l 0.05,0.85 v 0.55 14.85 l -0.05,1.05 0.05,0.55 v 1.5 l -0.05,0.6 0.05,1 v 14.15 m -20.15,-26.7 q 0,-1.7 -1.65,-1.7 -1.7,0 -1.7,1.75 0.15,1.75 1.65,1.75 0.7,0 1.2,-0.6 0.5,-0.6 0.5,-1.2 m -18.25,24.5 v -8.5 l 33.3,0.05 v 8.45 h -33.3 m -4.9,47.2 h 0.1 l 0.45,-0.05 h 42.3 l 0.4,0.05 h 0.1 L -2.2,21.05 -2.9,21 V 20.95 L -4,20.9 h -24.25 v -0.05 h -3.1 v 0.05 h -12.5 -0.1 l -0.95,0.05 V 21 l -0.55,0.05 -0.05,-1.45 M -2.1,18.35 H -3.65 L -3.95,16.15 -4,14.55 -3.8,6 v -8.25 l -0.2,-8.55 0.05,-1.65 0.3,-2.15 H -4.9 -42.8 v 32.95 h -1.15 l 0.2,-2.2 0.05,-1.75 -0.15,-8.95 V -3.2 l 0.15,-8.9 v -0.35 l -0.1,-2.15 -0.15,-1.5 h -0.25 l 0.25,-0.05 6.1,-0.4 2.5,-0.05 4.05,-0.05 h 3.15 3.5 l 8.7,0.05 7,0.1 5.5,0.4 q 0.4,-0.6 1.2,-0.6 h 0.1 l 0.05,0.85 v 0.5 14.9 L -2.15,0.6 -2.1,1.15 V 2.6 l -0.05,0.65 0.05,1 v 14.1 m -5.2,-66.55 -0.45,-0.05 -32.85,0.05 v -8 h 33.3 v 8 m -15.55,17.5 q 0.5,-0.6 0.5,-1.2 0,-1.7 -1.65,-1.7 -1.7,0 -1.7,1.75 0.15,1.75 1.65,1.75 0.7,0 1.2,-0.6 m -21.5,57.2 0.4,-0.05 6.1,-0.4 2.4,-0.05 4.1,-0.05 h 3.1 3.5 l 8.7,0.05 7,0.1 5.55,0.4 q 0.35,-0.65 1.15,-0.65 h 0.1 l 0.05,0.85 v 0.55 14.85 l -0.05,1.05 0.05,0.6 v 1.45 l -0.05,0.65 0.05,1 v 14.1 h -1.55 l -0.3,-2.2 -0.05,-1.6 0.2,-8.55 v -8.25 -0.8 L -4.1,31.8 -4.05,30.15 -3.75,28 H -5 -42.9 v 32.95 h -1.15 l 0.2,-2.2 0.05,-1.75 -0.1,-7.35 V 48.3 48.05 39.4 l 0.1,-8.9 v -0.35 l -0.05,-2.15 -0.1,-0.95 -0.1,-0.55 h -0.3 m 42.1,35.7 -0.05,1.6 -0.6,-0.05 v -0.1 q -2.4,-0.2 -6.15,-0.1 h -1.55 l -30,0.05 v -0.05 l -4.3,0.1 v 0.1 l -0.65,0.05 -0.05,-1.6 h 0.1 q 0.6,0 0.95,-0.35 h 3.25 l 0.7,0.05 v 0.2 h 3.45 0.4 2.45 0.4 0.55 2 0.4 0.45 l 14.1,-0.05 h 0.75 L -9.05,62 -6.7,61.85 h 3.45 q 0.3,0.35 0.9,0.35 h 0.1"
         fill="#8a7f7f"
         fill-rule="evenodd"
         stroke="none"
         id="path3" />
      <path
         d="m 2.25,-17.05 0.05,-1.65 0.6,0.05 v 0.1 l 4.3,0.15 v -0.05 h 7.6 0.35 22.05 l 1.6,0.05 6.1,-0.15 v -0.1 l 0.65,-0.05 0.05,1.65 h -0.1 q -0.8,0 -1.2,0.6 l -5.5,-0.4 -7.05,-0.05 -8.7,-0.05 H 19.6 16.45 l -4.1,0.05 -8.9,0.45 q -0.3,-0.6 -1.1,-0.6 H 2.25 M 45.65,18 v 0.75 0.55 0.25 H 45.6 2.25 2.2 V 19.3 18.75 3.3 l 0.1,-0.75 -0.1,-1 v -1.5 l 0.05,-0.2 -0.05,-1.5 v -14.55 -0.25 h 1.25 0.3 l 0.2,1.5 0.1,2.15 v 0.35 L 3.95,-7.65 3.9,-3.5 V 5.15 8.4 L 4.05,14.05 4,15.85 3.75,18 H 4.9 6.4 7.2 42.8 v -32.95 h 1.25 l -0.3,2.15 v 1.7 l 0.15,8.55 v 8.2 l -0.15,8.55 v 1.65 l 0.3,2.15 h 1.6 M 7.2,-3.2 40.05,-3.15 40.5,-3.2 V 5.65 L 7.2,5.7 V -3.2 M 2.25,26.1 2.3,24.5 2.9,24.55 v 0.05 l 4.3,0.15 V 24.7 h 7.6 0.35 22.05 l 1.6,0.05 5.95,-0.15 h 0.15 v -0.05 l 0.65,-0.05 0.05,1.6 h -0.1 l -0.75,0.2 -0.45,0.4 -5.5,-0.35 -7.05,-0.1 -8.7,-0.05 H 19.6 16.45 l -4.1,0.05 -8.9,0.45 q -0.3,-0.6 -1.1,-0.6 h -0.1 m 43.4,35.05 v 0.4 0.3 L 45.6,62.4 h -0.1 q -0.75,0 -1.15,-0.55 H 43.9 l -5.1,0.35 -6.6,0.05 H 31.4 L 17.3,62.3 h -0.45 -0.4 -2 H 13.9 13.5 11.05 10.65 7.2 V 62.15 L 3.85,61.85 H 3.45 Q 3.1,62.4 2.35,62.4 H 2.25 L 2.2,61.85 v -0.3 -0.5 -14.6 l 0.1,-0.7 -0.1,-1 V 43.2 L 2.25,43 2.2,41.5 V 26.95 26.7 h 1.25 0.3 l 0.2,1.55 0.1,2.1 V 30.7 L 3.9,38.8 v 0.85 8.65 0.9 L 4.05,57.25 4,59 3.8,60.95 3.75,61.15 H 4.9 V 61.3 H 6.4 7.2 42.8 V 28.25 h 1.25 l -0.3,2.1 v 1.7 l 0.15,8.55 v 8.2 l -0.15,8.55 V 59 q 0.05,1.15 0.25,1.95 l 0.05,0.2 h 1.6 M 40.5,40.1 v 8.85 L 7.2,49 V 40.1 L 40.05,40.15 40.5,40.1 M 23.8,-0.4 q -1.7,0 -1.7,1.75 0.15,1.75 1.65,1.75 0.7,0 1.2,-0.6 0.5,-0.6 0.5,-1.2 0,-1.7 -1.65,-1.7 m -0.05,46.8 q 0.7,0 1.2,-0.6 0.5,-0.6 0.5,-1.2 0,-1.7 -1.65,-1.7 -1.7,0 -1.7,1.75 0.15,1.75 1.65,1.75 m -69.35,-69.7 -0.05,-0.85 v -0.5 -15.5 l 0.1,-0.7 -0.1,-1 v -1.55 l 0.05,-0.2 -0.05,-1.5 v -14.55 -0.25 l 0.05,-0.6 0.05,-1.6 0.65,0.05 v 0.1 l 4.3,0.1 v -0.05 h 7.55 0.4 22.05 l 1.55,0.05 6.15,-0.1 v -0.1 l 0.6,-0.05 0.05,1.6 h -0.1 q -0.8,0 -1.15,0.6 l -5.55,-0.35 -7,-0.1 -8.7,-0.05 h -3.5 -3.1 l -4.1,0.05 -2.4,0.05 -6.5,0.4 h 0.3 l 0.2,1.55 0.05,2.15 v 0.3 l -0.1,8.95 v 8.65 l 0.1,8.95 -0.05,1.75 -0.1,1.65 -0.1,0.55 h 1.15 1.5 0.8 35.6 v -32.95 h 1.25 l -0.3,2.15 -0.05,1.65 0.2,5.15 v 3.4 8.2 q 0.05,2.15 -0.2,8.6 l 0.05,1.6 0.3,2.2 h 1.55 v 0.75 0.5 l -0.05,0.85 h -0.1 q -0.8,0 -1.15,-0.6 l -5.55,0.45 -6.6,0.05 h -0.75 -14.1 -0.45 -0.4 -2.05 -0.5 -0.4 -2.45 -0.4 -3.45 v -0.15 l -3.35,-0.3 -0.4,-0.05 q -0.35,0.6 -1.15,0.6 h -0.1 m 5,-14.4 v -8.9 l 32.85,0.05 0.45,-0.05 v 8.85 l -33.3,0.05 m -4.9,21 0.05,-1.65 0.65,0.05 v 0.1 l 0.85,0.05 3.45,0.1 v -0.05 h 7.55 0.4 22.05 l 1.55,0.05 6.15,-0.15 v -0.1 l 0.6,-0.05 0.05,1.65 h -0.1 q -0.8,0 -1.2,0.6 l -5.5,-0.4 -7,-0.1 -8.7,-0.05 h -3.5 -3.15 l -4.05,0.05 -2.5,0.05 -6.1,0.4 -0.25,0.05 h 0.25 l 0.15,1.5 0.1,2.15 v 0.35 l -0.15,8.9 v 8.65 l 0.15,8.95 -0.05,1.75 -0.2,2.2 h 1.15 1.5 0.8 35.6 V -14.6 h 1.25 l -0.3,2.15 -0.05,1.65 0.2,8.55 V 6 l -0.2,8.55 0.05,1.6 0.3,2.2 h 1.55 v 0.3 0.1 0.35 0.45 h -0.05 v 0.05 h -0.1 l -0.4,-0.05 h -42.3 l -0.45,0.05 h -0.1 v -0.05 h -0.05 V 19.1 18.75 18.65 3.6 l 0.1,-0.7 -0.1,-1 V 0.4 l 0.05,-0.2 -0.05,-1.5 v -14.55 -0.25 h 1.3 q -0.35,-0.6 -1.15,-0.6 h -0.1 m 21.45,-23.6 q 0.7,0 1.2,-0.6 0.5,-0.6 0.5,-1.2 0,-1.7 -1.65,-1.7 -1.7,0 -1.7,1.75 0.15,1.75 1.65,1.75 m -21.55,66.15 0.05,-1.45 v -0.15 l 0.65,0.05 v 0.1 l 0.95,0.1 1.8,0.05 h 1.55 V 24.5 h 7.55 0.4 22.05 l 1.55,0.05 h 2.55 0.65 L -2.9,24.4 v -0.1 l 0.6,-0.05 v 0.2 l 0.05,1.4 h -0.1 q -0.8,0 -1.15,0.65 l -5.55,-0.4 -7,-0.1 -8.7,-0.05 h -3.5 -3.1 l -4.1,0.05 -2.4,0.05 -6.1,0.4 -0.4,0.05 q -0.35,-0.65 -1.15,-0.65 h -0.1 m 43.4,35.1 v 0.4 0.35 0.15 l -0.05,0.35 h -0.1 q -0.6,0 -0.9,-0.35 H -6.7 l -2.35,0.15 -6.6,0.05 h -0.75 l -14.1,0.05 h -0.45 -0.4 -2 -0.55 -0.4 -2.45 -0.4 -3.45 v -0.2 l -0.7,-0.05 h -3.25 q -0.35,0.35 -0.95,0.35 h -0.1 v -0.35 h -0.05 V 61.7 61.35 60.95 46.2 l 0.1,-0.7 -0.1,-1 V 43 l 0.05,-0.2 -0.05,-1.55 V 26.7 26.5 h 1.3 0.3 l 0.1,0.55 0.1,0.95 0.05,2.15 v 0.35 l -0.1,8.9 v 8.65 0.25 1.35 l 0.1,7.35 -0.05,1.75 -0.2,2.2 h 1.15 1.5 0.8 H -5 V 28 h 1.25 l -0.3,2.15 -0.05,1.65 0.2,7.75 v 0.8 8.25 l -0.2,8.55 0.05,1.6 0.3,2.2 h 1.55"
         fill="#a29494"
         fill-rule="evenodd"
         stroke="none"
         id="path4" />
      <path
         d="m -40.5,-12.45 v 28.6 h 33.3 v -28.6 h -33.3 m -0.1,42.6 v 28.6 h 33.3 v -28.6 z"
         fill="none"
         stroke="#6b6b6b"
         stroke-linecap="round"
         stroke-linejoin="round"
         stroke-width="2"
         id="path5" />
    </g>
  </defs>
</svg>
