<?xml version="1.0" encoding="UTF-8" standalone="no"?>
<svg
   ffdec:objectType="frame"
   height="51.849998"
   width="115.55"
   version="1.1"
   id="svg13"
   sodipodi:docname="1.svg"
   xmlns:inkscape="http://www.inkscape.org/namespaces/inkscape"
   xmlns:sodipodi="http://sodipodi.sourceforge.net/DTD/sodipodi-0.dtd"
   xmlns:xlink="http://www.w3.org/1999/xlink"
   xmlns="http://www.w3.org/2000/svg"
   xmlns:svg="http://www.w3.org/2000/svg"
   xmlns:ffdec="https://www.free-decompiler.com/flash">
  <sodipodi:namedview
     id="namedview13"
     pagecolor="#ffffff"
     bordercolor="#000000"
     borderopacity="0.25"
     inkscape:showpageshadow="2"
     inkscape:pageopacity="0.0"
     inkscape:pagecheckerboard="0"
     inkscape:deskcolor="#d1d1d1"
     fit-margin-top="5"
     fit-margin-left="5"
     fit-margin-right="5"
     fit-margin-bottom="5" />
  <g
     transform="translate(68.2,21.25)"
     id="g2">
    <use
       ffdec:characterId="1097"
       height="20.9"
       transform="translate(-43.25,-11.8)"
       width="65.150002"
       xlink:href="#sprite0"
       id="use1" />
    <use
       ffdec:characterId="1098"
       height="51.849998"
       transform="translate(-68.2,-21.25)"
       width="115.55"
       xlink:href="#shape1"
       id="use2" />
  </g>
  <defs
     id="defs13">
    <g
       id="sprite0"
       transform="translate(32.6,10.45)">
      <use
         ffdec:characterId="1096"
         height="20.9"
         transform="translate(-32.6,-10.45)"
         width="65.150002"
         xlink:href="#shape0"
         id="use3" />
    </g>
    <g
       id="shape0"
       transform="translate(32.6,10.45)">
      <path
         d="m -29.3,-4.1 0.1,-1.05 0.05,-0.95 -0.05,-0.75 v -0.1 -0.55 h 0.4 57.5 0.4 v 0.2 l -0.05,1 v 0.2 l 0.2,2.3 h -0.5 -52.4 l -5.65,-0.3"
         fill="#c6c1b5"
         fill-rule="evenodd"
         stroke="none"
         id="path3" />
      <path
         d="m 29.25,-3.8 -0.2,-2.3 v -0.2 l 0.05,-1 v -0.2 h -0.4 -57.5 -0.4 v 0.55 0.1 l 0.05,0.75 -0.05,0.95 -0.1,1.05 -0.15,3.25 v 0.3 1.8 l 0.3,4.9 -0.05,1.3 0.4,0.05 h 57.5 l 0.4,-0.05 -0.05,-1.3 0.3,-4.9 v -0.2 -1.6 -0.3 l -0.1,-2.95 m -0.55,-6.55 v 0.1 l 1.95,0.05 q 1.9,-1.35 1.9,4 L 32.5,0.35 32.55,6.2 32.35,8.65 32.3,9.1 32.2,9.15 Q 31.85,10.5 30.95,10.1 L 30.75,10.45 30.5,10.2 H 30.25 L 29.6,10.05 28.7,10 v 0.05 H -28.8 V 10 l -0.9,0.05 -0.65,0.15 h -0.25 l -0.25,0.25 -0.2,-0.35 q -0.9,0.4 -1.25,-0.95 L -32.4,9.1 V 8.65 l -0.2,-2.45 0.1,-5.85 -0.1,-6.55 q 0,-5.35 1.85,-4 l 1.95,-0.05 v -0.1 h 57.5"
         fill="#9a9a9a"
         fill-rule="evenodd"
         stroke="none"
         id="path4" />
      <path
         d="m -29.3,-4.1 5.65,0.3 h 52.4 0.5 l 0.1,2.95 v 0.3 1.6 0.2 l -0.3,4.9 0.05,1.3 -0.4,0.05 h -57.5 l -0.4,-0.05 0.05,-1.3 -0.3,-4.9 v -1.8 -0.3 l 0.15,-3.25"
         fill="#beb9ae"
         fill-rule="evenodd"
         stroke="none"
         id="path5" />
    </g>
    <g
       id="shape1"
       transform="translate(68.2,21.25)">
      <path
         d="M -35.95,4.55 H 15.1 L 17,4.7 17.05,4 V 3.45 3.05 2.95 L 17,-8.55 V -10 l -0.1,-5.6 v -0.7 q -0.05,-3.65 0.55,-4.95 h 29.9 v 0.05 0.3 0.25 0.1 0.1 H 47.3 l -0.05,0.75 -0.95,3.4 -3.25,11.6 -5.6,12.7 1,-2.05 -0.7,1.5 -9.5,18.05 -0.75,1.35 -1.85,3.35 -0.15,0.4 h -71.85 l -0.15,-0.4 -1.9,-3.35 -0.7,-1.35 -9.5,-18.05 0.05,0.2 -1.6,-3.1 -3.5,-8.95 -3.5,-11.9 -1,-3.4 -0.05,-0.75 v -0.1 -0.1 -0.25 -0.3 -0.05 h 29.9 q 0.3,1.05 0.4,4.95 v 0.25 L -37.85,-10 -37.9,2.95 V 3.05 3.45 4 4.55 4.7 l 0.2,-0.05 0.2,-0.05 1.55,-0.05 m -4.3,-20.85 -0.05,-2.15 h -24.6 l 0.65,2.15 0.2,0.75 0.8,2.95 5.5,16.25 6.1,11.65 3.25,6.3 1.8,3.4 1.1,2.05 14,0.35 0.8,0.05 h 0.15 0.65 l 0.65,0.2 h 5.8 0.15 0.1 0.2 6.7 0.3 3.9 0.5 v 0.1 h 1 0.35 1 v -0.1 h 0.5 3.9 0.3 6.7 0.2 0.1 0.1 5.85 L 9,27.45 h 0.7 0.1 l 0.8,-0.05 14.05,-0.35 1.1,-2.05 1.75,-3.4 3.3,-6.3 5.5,-10.75 1.8,-4.35 3.95,-11.75 -0.2,0.9 0.55,-1.95 0.8,-2.95 0.25,-0.75 0.6,-2.15 H 19.4 v 2.15 l 0.05,3.1 V 9.65 l 0.05,4.05 -0.05,2.35 q -0.1,1.25 -0.5,1.85 l -0.15,0.15 -0.1,0.15 -0.25,-0.05 v 0.2 l -0.1,0.05 H 17.8 17 -37.85 -38.7 -39.05 v -0.2 l -0.1,-0.15 -0.35,0.15 h -0.05 q -0.6,-0.5 -0.8,-2.15 V 13.7 9.65 -13.2 l 0.1,-3.1 M 36.8,4 37.2,2.8 36.7,4.2 36.8,4 M -35.95,7.4 H -37.5 L -37.7,7.35 -37.85,7.3 v 3 0.15 h 0.35 l 3.75,-0.15 H 12.9 l 4.1,0.15 v -0.15 -3 l -1.9,0.1 h -51.05 m 52.85,5.8 0.05,-0.5 H 17 V 11.55 L 2.55,11.6 v 0.05 h -26 V 11.6 l -14.4,-0.05 v 1.15 h 0.1 v 0.5 0.7 l -0.05,0.95 H 16.95 L 16.9,13.9 v -0.7"
         fill="#6b6b6b"
         fill-rule="evenodd"
         stroke="none"
         id="path6" />
      <path
         d="M 36.8,4 36.7,4.2 37.2,2.8 36.8,4"
         fill="#b1b1b1"
         fill-rule="evenodd"
         stroke="none"
         id="path7" />
      <path
         d="M -35.95,7.4 H 15.1 L 17,7.3 v 3 0.15 L 12.9,10.3 h -46.65 l -3.75,0.15 h -0.35 v -0.15 -3 l 0.15,0.05 0.2,0.05 h 1.55"
         fill="#eeeeee"
         fill-rule="evenodd"
         stroke="none"
         id="path8" />
      <path
         d="m -37.75,13.2 v -0.5 h -0.1 v -1.15 l 14.4,0.05 v 0.05 h 26 V 11.6 L 17,11.55 v 1.15 h -0.05 l -0.05,0.5 h -54.65"
         fill="#e2e2e2"
         fill-rule="evenodd"
         stroke="none"
         id="path9" />
      <path
         d="m 16.9,13.2 v 0.7 l 0.05,0.95 H -37.8 l 0.05,-0.95 V 13.2 H 16.9"
         fill="#d0d0d0"
         fill-rule="evenodd"
         stroke="none"
         id="path10" />
      <path
         d="m -64.25,-16.3 h 24 l -0.1,3.1 v 22.85 4.05 2.35 q 0.2,1.65 0.8,2.15 h 0.05 l 0.35,-0.15 0.1,0.15 v 0.2 h 0.35 0.85 54.85 0.8 0.55 l 0.1,-0.05 v -0.2 l 0.25,0.05 0.1,-0.15 0.15,-0.15 q 0.4,-0.6 0.5,-1.85 L 19.5,13.7 19.45,9.65 V -13.2 l -0.05,-3.1 h 24.05 l -0.25,0.75 -0.8,2.95 -0.55,1.95 0.2,-0.9 L 38.1,0.2 36.3,4.55 30.8,15.3 27.5,21.6 25.75,25 q -0.2,-0.35 -0.7,-0.4 L 10.65,24.25 H 10.25 9.8 l -7.25,-0.1 v -0.1 h -26 v 0.1 l -7.25,0.1 h -0.4 -0.4 l -14.45,0.35 q -0.45,0.05 -0.65,0.4 l -1.8,-3.4 -3.25,-6.3 -6.1,-11.65 -5.5,-16.25 -0.8,-2.95 -0.2,-0.75"
         fill="#cabda0"
         fill-rule="evenodd"
         stroke="none"
         id="path11" />
      <path
         d="M 25.75,25 24.65,27.05 10.6,27.4 9.8,27.45 H 9.7 9 l -0.6,0.2 h -5.85 -0.1 -0.1 -0.2 -6.7 -0.3 -3.9 -0.5 v 0.1 h -1 -0.35 -1 v -0.1 h -0.5 -3.9 -0.3 -6.7 -0.2 -0.1 -0.15 -5.8 l -0.65,-0.2 h -0.65 -0.15 l -0.8,-0.05 -14,-0.35 -1.1,-2.05 q 0.2,-0.35 0.65,-0.4 l 14.45,-0.35 h 0.4 0.4 l 7.25,-0.1 v -0.1 h 26 v 0.1 l 7.25,0.1 h 0.45 0.4 l 14.4,0.35 q 0.5,0.05 0.7,0.4"
         fill="#b5aa8f"
         fill-rule="evenodd"
         stroke="none"
         id="path12" />
      <path
         d="m -64.25,-16.3 -0.65,-2.15 h 24.6 l 0.05,2.15 h -24 m 83.65,0 v -2.15 h 24.65 l -0.6,2.15 H 19.4"
         fill="#e0d2b1"
         fill-rule="evenodd"
         stroke="none"
         id="path13" />
    </g>
  </defs>
</svg>
