<?xml version="1.0" encoding="UTF-8" standalone="no"?>
<svg
   ffdec:objectType="frame"
   height="121.4"
   width="112.9"
   version="1.1"
   id="svg56"
   sodipodi:docname="1.svg"
   xmlns:inkscape="http://www.inkscape.org/namespaces/inkscape"
   xmlns:sodipodi="http://sodipodi.sourceforge.net/DTD/sodipodi-0.dtd"
   xmlns:xlink="http://www.w3.org/1999/xlink"
   xmlns="http://www.w3.org/2000/svg"
   xmlns:svg="http://www.w3.org/2000/svg"
   xmlns:ffdec="https://www.free-decompiler.com/flash">
  <sodipodi:namedview
     id="namedview56"
     pagecolor="#ffffff"
     bordercolor="#000000"
     borderopacity="0.25"
     inkscape:showpageshadow="2"
     inkscape:pageopacity="0.0"
     inkscape:pagecheckerboard="0"
     inkscape:deskcolor="#d1d1d1"
     fit-margin-top="5"
     fit-margin-left="5"
     fit-margin-right="5"
     fit-margin-bottom="5" />
  <g
     transform="translate(56.45,60.75)"
     id="g17">
    <use
       ffdec:characterId="2582"
       height="13.45"
       transform="matrix(-0.7333,0,0,0.7333,22.4134,31.4033)"
       width="29.6"
       xlink:href="#sprite0"
       id="use1" />
    <use
       ffdec:characterId="2582"
       height="13.45"
       transform="matrix(0.5029,0,0,0.5029,-37.1734,19.278)"
       width="29.6"
       xlink:href="#sprite0"
       id="use2" />
    <use
       ffdec:characterId="2585"
       height="27.5"
       transform="matrix(0.4615,0,0,0.4615,-46.2654,7.7578)"
       width="17.1"
       xlink:href="#sprite2"
       id="use3" />
    <use
       ffdec:characterId="2585"
       height="27.5"
       transform="matrix(-0.4615,0,0,0.4615,11.5654,19.4578)"
       width="17.1"
       xlink:href="#sprite2"
       id="use4" />
    <use
       ffdec:characterId="2586"
       height="49.349998"
       transform="translate(-54.05,6.95)"
       width="108.65"
       xlink:href="#shape2"
       id="use5" />
    <use
       ffdec:characterId="2585"
       height="27.5"
       transform="translate(36.75,16.8)"
       width="17.1"
       xlink:href="#sprite5"
       id="use6" />
    <use
       ffdec:characterId="2585"
       height="27.5"
       transform="matrix(-1,0,0,1,2.05,13.8)"
       width="17.1"
       xlink:href="#sprite5"
       id="use7" />
    <use
       ffdec:characterId="2585"
       height="27.5"
       transform="translate(15.95,-12.8)"
       width="17.1"
       xlink:href="#sprite5"
       id="use8" />
    <use
       ffdec:characterId="2585"
       height="27.5"
       transform="translate(-47.25,18.3)"
       width="17.1"
       xlink:href="#sprite5"
       id="use9" />
    <use
       ffdec:characterId="2587"
       height="37.700001"
       transform="translate(-51,-60.75)"
       width="106.85"
       xlink:href="#shape4"
       id="use10" />
    <use
       ffdec:characterId="2589"
       height="5.5999999"
       transform="matrix(0.4083,0,0,0.4083,7.8141,3.5067)"
       width="50.799999"
       xlink:href="#sprite8"
       id="use11" />
    <use
       ffdec:characterId="2590"
       height="8.6000004"
       transform="matrix(0.5752,0,0,0.5752,14.9901,-8.0982)"
       width="44"
       xlink:href="#sprite10"
       id="use12" />
    <use
       ffdec:characterId="2590"
       height="8.6000004"
       transform="matrix(-0.5752,0,0,0.5752,-6.4401,27.5018)"
       width="44"
       xlink:href="#sprite10"
       id="use13" />
    <use
       ffdec:characterId="2598"
       height="74.199997"
       transform="translate(-32.45,-45.8)"
       width="59.650002"
       xlink:href="#sprite11"
       id="use14" />
    <use
       ffdec:characterId="2599"
       height="17.25"
       transform="translate(-32.75,35.15)"
       width="15.75"
       xlink:href="#sprite14"
       id="use15" />
    <use
       ffdec:characterId="2600"
       height="8.1000004"
       transform="matrix(0.5044,0,0,0.5044,46.1,28.9876)"
       width="11.3"
       xlink:href="#sprite16"
       id="use16" />
    <use
       ffdec:characterId="2601"
       height="119.65"
       transform="translate(-56.45,-59)"
       width="112.9"
       xlink:href="#shape9"
       id="use17" />
  </g>
  <defs
     id="defs56">
    <g
       id="sprite0"
       transform="translate(8.2,7.7)">
      <use
         ffdec:characterId="2581"
         ffdec:characterName="furniture_fla.lilfishcopy3_1106"
         height="13.6"
         transform="matrix(0.8268,0,0,0.8268,-7.1515,-6.4901)"
         width="19.049999"
         xlink:href="#sprite1"
         id="use18" />
    </g>
    <g
       id="sprite1"
       transform="translate(8.65,7.85)">
      <use
         ffdec:characterId="2572"
         height="9.1000004"
         transform="translate(-6.35,-4.55)"
         width="12.7"
         xlink:href="#shape0"
         id="use19" />
    </g>
    <g
       id="shape0"
       transform="translate(6.35,4.55)">
      <path
         d="M 2.5,-0.2 Q 2,-0.2 1.75,-0.7 l -0.1,-0.4 q 0,-0.7 0.85,-0.75 0.8,-0.1 0.8,0.75 L 3,-0.5 q -0.25,0.3 -0.5,0.3 m -2.4,-2.3 -0.75,1.1 -0.25,1.05 0.3,1.05 q 0.45,0.5 1.65,0.85 H 3.3 L 4.45,0.55 4.6,-0.5 Q 4.6,-1.15 3.5,-2 2.05,-3.05 0.1,-2.5 m -1.7,-1 q 1.35,-1.1 3.25,-1.05 4.7,0.15 4.7,5.1 0,1.1 -0.65,1.85 Q 4.6,3.65 2,3.65 H 1.9 V 3.9 L 1.25,4.55 h -1.5 Q -0.9,4.45 -0.9,3.8 L -0.45,3.35 Q -1.95,2.9 -2.6,1.8 V 1.65 Q -3.45,3.2 -4.9,3.2 L -5.55,2.85 -5.35,1.3 q 0,-1.3 -1,-3 0.45,-0.9 2.15,-0.45 l 1.4,0.45 q 0.3,-1.05 1.2,-1.8"
         fill="#b8b8b8"
         fill-rule="evenodd"
         stroke="none"
         id="path19" />
      <path
         d="m 0.1,-2.5 q 1.95,-0.55 3.4,0.5 1.1,0.85 1.1,1.5 L 4.45,0.55 3.3,1.55 H 1.05 Q -0.15,1.2 -0.6,0.7 L -0.9,-0.35 -0.65,-1.4 0.1,-2.5 m 2.4,2.3 q 0.25,0 0.5,-0.3 L 3.3,-1.1 Q 3.3,-1.95 2.5,-1.85 1.65,-1.8 1.65,-1.1 l 0.1,0.4 Q 2,-0.2 2.5,-0.2"
         fill="#b8b8b8"
         fill-rule="evenodd"
         stroke="none"
         id="path20" />
    </g>
    <g
       id="sprite2"
       transform="translate(5.45,22.95)">
      <use
         ffdec:characterId="2584"
         height="27.5"
         transform="translate(-5.45,-22.95)"
         width="17.1"
         xlink:href="#sprite3"
         id="use20" />
    </g>
    <g
       id="sprite3"
       transform="translate(5.45,22.95)">
      <use
         ffdec:characterId="2583"
         height="5.25"
         transform="scale(0.7692)"
         width="5.0999999"
         xlink:href="#sprite4"
         id="use21" />
    </g>
    <g
       id="sprite4">
      <use
         ffdec:characterId="1852"
         height="5.25"
         width="5.0999999"
         xlink:href="#shape1"
         id="use22" />
    </g>
    <g
       id="shape1">
      <path
         d="M 3.4,1.1 2.1,1.2 1.55,2.05 Q 1.15,2.7 1.3,3.1 1.4,3.45 2.2,4 3,4.55 3.5,4.3 3.95,4.05 4.25,2.6 4.25,1.35 3.4,1.1 M 0.35,4.2 Q 0,3.6 0,2.9 0,0.55 2.55,0.1 5.1,-0.35 5.1,1.55 5.1,5.25 2.6,5.25 1,5.25 0.35,4.2"
         fill="#b8b8b8"
         fill-rule="evenodd"
         stroke="none"
         id="path22" />
    </g>
    <g
       id="shape2"
       transform="translate(54.05,-6.95)">
      <path
         d="m 40.5,32.95 0.5,0.1 2.15,-0.15 -0.85,-3.75 -1.5,0.75 q -0.65,0.3 -0.75,0.9 l -0.05,0.3 0.05,1.25 0.45,0.6 m -1.05,-3.5 q 0.8,-0.95 2.8,-0.55 l -0.3,-1.3 -0.9,-3.65 -2,-7.9 -0.5,-1.8 L 38.3,13.35 38.1,12.6 38,12.25 37.5,10.75 37.15,9.8 37,9.4 36.55,9.6 35.6,9.95 27.9,12.6 27.25,12.8 26.2,13.15 q -2.45,0.95 -2.9,2.1 l -0.05,0.1 Q 23,16.25 23.3,18.1 l -0.35,1.65 -0.15,0.3 q -0.7,1.6 -2.35,3 l -0.95,0.65 -0.25,0.25 0.75,0.1 q 0.4,0.15 0.65,0.45 l 0.25,1.25 v 0.4 q -0.15,1 -0.95,1.3 L 19,27.6 h -0.15 q -0.7,-0.05 -0.9,-0.3 l -0.2,-0.2 -0.35,0.1 q -0.6,1.4 -0.6,2 0,1.4 1.2,4.55 l 0.3,0.75 0.7,1.85 0.75,2.65 -0.1,0.5 -1.1,1.65 -1.95,2.15 q -3,3 -4.55,3.3 h -0.3 q -1.2,0 -2,-1.65 L 9.45,43.9 9.4,43.75 9.25,43.3 q 0,-1.15 0.7,-2.65 l 0.7,-1.95 V 38.6 L 10.55,38.05 10.4,37 10.3,36.25 9.9,32.6 V 32.35 32.3 L 8.35,32.1 Q 9,32.9 9,33.95 L 8.9,34.85 8.75,35.3 Q 8.4,36.4 7.9,36.4 L 7,36.2 q -0.25,2.45 -0.6,3 L 6.25,39.4 6.1,39.65 q -2.85,4.2 -2.85,6.55 0,0.45 0.8,1.6 l 0.3,0.55 0.1,0.2 0.35,1.75 v 0.35 L 7,51.6 q 6.35,2.45 18.25,2.45 3.15,0 10.2,-2.2 4.15,-1.35 5.9,-2.3 1.25,-0.7 1.25,-1.2 L 42.35,47.4 42.3,47.25 41.35,44.85 v -0.2 L 41.4,44.5 v -0.1 l 0.05,-0.55 q 0.25,-1.5 1.25,-2.6 1.35,-1.4 1.35,-3.15 l -0.15,-1.6 -0.35,-1.85 -0.1,-0.45 -1.3,0.1 -1.75,-0.2 q -0.75,-0.3 -1.15,-0.8 l -0.4,-1 q 0,-1.9 0.35,-2.5 l 0.25,-0.35 M 36.65,14.1 q -0.1,2.95 -1.95,3.3 h -0.45 q -2.5,0 -2.8,-2.1 l -0.05,-0.7 0.05,-0.4 q 0.15,-2.55 2.6,-2.55 l 1.05,0.1 q 1.45,0.35 1.55,1.9 v 0.2 0.25 m -8.65,2.7 0.25,1.05 q 0,1.6 -2.05,1.6 h -0.15 l -0.75,-0.1 q -0.75,-0.2 -0.95,-0.75 v -0.9 q 0,-2.25 1.95,-2.25 0.5,0 0.95,0.3 l 0.65,0.9 0.1,0.15 m -6.5,23.6 q 0.9,-0.05 0.9,0.95 L 22.3,42.8 22.25,43 q -0.4,0.8 -1.7,0.8 -1,0 -1.45,-0.5 l -0.25,-0.7 q 0,-0.55 0.3,-1 l 0.6,-0.55 0.9,-0.5 0.35,-0.1 0.5,-0.05 M 9.25,48.45 9,49.05 8.15,49.9 q -1.3,0 -1.9,-0.6 l -0.4,-0.75 q 0,-1.7 1.75,-2.05 l 0.65,-0.05 q 1.1,0.05 1.1,1.4 l -0.1,0.6 M 25.75,33 l -1.4,0.3 q -1.5,0 -2.15,-0.55 L 21.85,32.3 21.8,31.8 21.75,31.2 q 0,-2.7 2.05,-2.95 l 0.5,-0.05 q 1.2,0 1.85,0.5 l 0.35,-1.15 q 0.55,-2.45 4.35,-4.6 0.15,-0.55 0.6,-0.5 h 0.1 l 0.15,0.05 0.15,-0.1 0.3,0.15 0.1,0.25 1.65,1.55 0.5,0.6 q 3.65,4.4 3.65,6.1 -0.4,4.7 -1.1,6.85 l -0.05,0.15 2.3,0.55 h 0.05 l -0.6,0.9 q -0.6,0.45 -1.45,0.55 h -0.45 l -2.95,-0.95 -0.45,-0.2 -2.5,-1 Q 29.3,37.25 28.55,36.55 28.05,36.1 27.9,35.6 l -0.75,-2 -0.35,-0.95 -0.05,-0.2 -0.15,-0.4 -0.7,0.85 -0.15,0.1 m 17.5,17.6 q -1.8,1.35 -5.7,2.8 -7.85,2.9 -16.5,2.9 -9.3,0 -14.8,-2.15 Q 4.5,53.45 3.45,52.7 H 3.3 L 3,52.45 1.9,52.9 q -1.2,0 -1.05,-1.05 0,-0.65 0.9,-1.5 V 50.2 50.05 l 0.05,-0.2 -1.25,-3.7 q 0,-2.4 0.75,-4.05 L 2.15,40.65 2.4,40.4 2.65,40.1 2.8,39.95 Q 3.7,39.15 4.25,37.9 5,36.1 5,33.45 5,30.1 7.9,30.1 q 3.25,0 3.5,1.3 0.15,0.65 -0.35,1.5 0.65,2.1 0.75,4.15 l 0.45,2.3 -0.35,1.6 q -0.35,0.85 -0.35,1.45 0,0.45 0.55,1.15 l 4.9,-4.5 q -2.65,-8.25 -2.65,-9.6 0,-4.8 3.15,-7.25 3.3,-2.55 3.5,-7.4 0.6,-1.75 4.1,-3.5 1.3,-0.7 5.55,-2.35 l 5,-1.95 q 3.1,-0.45 4.1,3.7 0.75,1.9 3.4,13.15 l 1.95,8.7 v 0.15 l 0.5,2.65 0.5,4.35 q 0,0.75 -1.3,2.75 -1.3,2 -1.3,2.35 0,0.6 1.15,1.85 1.05,1.1 1.15,1.85 v 0.15 q 0,0.9 -0.85,0.9 H 44.9 L 44.4,49.5 43.25,50.6 M 25.5,18.55 l 1.25,-0.3 0.45,-0.6 0.05,-0.3 q 0,-0.45 -0.65,-0.7 l -0.15,-0.05 -1.2,-0.05 -0.2,1.15 v 0.65 q 0.05,0.2 0.4,0.2 h 0.05 m 1.75,3.85 0.6,0.45 -0.05,0.55 -0.55,0.15 -0.5,-0.1 -0.1,-0.5 q 0,-0.4 0.2,-0.5 l 0.4,-0.05 M 35.6,14.05 35.55,13.6 q -0.25,-0.5 -1,-0.65 l -0.5,-0.1 q -1.55,-0.1 -1.55,1.9 l 0.05,0.2 0.2,0.65 q 0.35,0.7 0.9,0.7 1.3,0 1.75,-1.15 l 0.2,-1.1 m 3.25,8 -0.1,0.5 -0.7,0.25 -0.45,-0.05 -0.3,-0.2 -0.05,-0.6 q 0,-0.5 0.35,-0.7 0.5,-0.25 1.25,0.8 m -19.25,3.15 -1.1,-0.3 -0.8,1.6 0.05,0.35 Q 18.3,26.4 19.2,26.4 h 0.15 q 0.8,0 0.8,-0.55 0,-0.4 -0.55,-0.65 M 7.05,35.65 H 7.3 L 7.95,35.15 8,35 8.25,34.55 V 33.3 L 7.4,33.2 7.1,35.05 7.05,35.65 M 6.65,48.7 8,49.05 8.4,47.9 8.25,47.4 q -1.15,0.05 -1.3,0.5 l -0.3,0.8 M 20.7,41.6 H 20.1 20 l -0.1,0.05 -0.05,0.4 0.05,0.4 h 0.05 l 1.3,0.2 0.1,-0.05 0.05,-0.4 -0.05,-0.55 -0.65,-0.05 m 13,-4.5 0.8,0.25 0.65,0.2 0.35,-1.3 q 0.6,-2.1 0.6,-3.55 0,-2.5 -2.65,-5.45 L 31.1,24.5 29.95,25.65 Q 28,27.5 28,29.4 q 0,0.65 0.75,2.65 l 0.1,0.35 q 0.75,2.05 1.05,2.5 0.85,1.2 3.8,2.2 m -10.35,-5.35 1.7,0.55 q 0.45,-0.3 0.75,-1.7 0,-0.85 -1.4,-1.05 -1.4,-0.15 -1.4,1.5 0,0.5 0.35,0.7 m 3.4,10.2 1.1,-0.05 0.15,0.6 -0.1,0.6 -0.65,0.2 -0.75,-0.85 0.25,-0.5 M 22.3,48.3 21.9,48.45 21.45,48.05 21.3,47.6 q 0,-2.45 2.3,-2.35 2.3,0.1 2.3,2.1 l -0.05,0.85 -0.95,0.9 q -0.35,-0.45 -0.25,-0.95 l 0.2,-0.8 q 0,-0.45 -0.55,-0.7 L 23.4,46.4 q -0.55,0 -0.9,0.9 l -0.2,1 m 14.8,-5.15 -0.3,1 0.45,0.3 0.65,0.15 q 0.75,0 0.95,-0.35 l 0.05,-0.4 q 0,-0.45 -0.4,-0.65 L 37.1,43.15 M 36,44.1 q 0,-2 2,-2 2,-0.05 2,1.8 0,1.75 -1.85,1.75 -1.2,0 -1.8,-0.7 Q 36,44.55 36,44.1 m -41.8,7 -1.75,0.7 0.35,0.1 H -7.75 -7.8 q -2.25,-0.2 -3.2,-1.7 l -0.05,-0.15 -0.2,-0.75 -0.25,-0.8 q 0,-1.2 0.8,-2.2 1.15,-1.5 1.7,-2.9 l 0.1,-0.15 0.35,-1.25 0.2,-0.5 0.35,-0.7 0.9,-0.9 q 0.65,-0.55 1.1,-0.6 l 0.8,0.25 q 0.6,0.25 1.45,1 1.1,0.6 1.1,1.15 v 0.15 l -0.15,1.3 -0.75,4.15 -0.1,0.4 0.25,0.75 0.25,0.75 v 0.1 l -0.1,0.25 -0.3,0.3 -1.9,1.1 -0.35,0.15 m -29.4,1.55 -0.55,0.25 q -3.35,1.45 -6.15,1.45 -2.9,0 -7.7,-4.5 -4.45,-4.15 -4.45,-5.6 l 0.4,-11.7 0.2,-3.55 -0.15,-2.4 v -0.2 q -0.25,-2.45 2.75,-4.05 3,-1.6 4.45,-0.45 0.8,0.4 1.2,0.75 l 0.35,0.35 0.35,0.3 q 0.8,0.6 2.55,0.6 1.75,0.05 2.35,0.45 0.65,0.45 1.1,1.4 l 0.6,1.55 1.2,2.95 1.35,3.05 0.9,1.85 1.4,3.6 0.3,0.85 v 0.05 l 0.35,1.05 0.05,0.3 0.35,1.6 0.25,2.35 -0.3,1.5 -0.55,1.95 -0.1,0.25 -0.15,0.6 -0.05,0.1 0.1,0.35 0.05,0.05 0.1,0.05 q 0.25,0.1 0.25,0.4 l -0.05,0.3 -0.6,0.85 q -0.7,0.6 -2.15,1.3 m 1.4,-7.2 V 45.2 44.9 44.85 l -0.05,-0.3 -0.2,-0.75 -0.1,-0.25 -0.3,-0.9 -0.55,-1.5 -0.8,-2.2 -0.8,-2.05 -1.45,-3.8 -2.6,-6.7 q -1.65,-0.1 -3.65,-0.8 l 0.15,0.45 v 0.05 l 0.55,1.7 0.1,0.8 0.1,1 0.55,3.4 0.95,5.1 0.65,3.45 0.5,0.15 2.45,0.9 0.4,0.15 0.1,0.05 0.15,0.05 0.55,0.25 2.45,0.95 -2.25,-0.5 -0.3,-0.05 -0.15,-0.05 L -38.9,43 -39.25,42.9 -40.85,42.35 -41,42.3 v 0.15 l -0.35,0.55 -0.35,0.5 -0.2,0.25 -0.5,0.6 -0.9,1 -1.45,1.3 h -0.1 v -0.4 l 0.05,-0.25 0.55,-1.1 0.1,-0.1 0.7,-0.9 0.45,-0.55 0.15,-0.15 0.8,-0.8 0.35,-0.25 -0.6,-1.8 -0.1,-0.3 -0.45,-1.6 -0.65,-2.7 -0.45,-2 -0.3,-1.35 -1.2,-6.3 -0.6,-0.45 -1.1,-0.85 -0.65,-0.7 q -1.8,-0.55 -2.95,1.2 l -0.25,0.85 -0.2,1.7 V 28 l 0.05,0.55 v 0.6 l 0.1,1.55 -0.15,7.4 -0.15,3.25 v 0.05 q 0,0.85 0.5,1.9 0.6,1.3 1.9,2.85 l 0.2,0.3 1.25,1.35 1.1,1.1 0.15,0.15 q 2.7,2.55 4,2.55 l 1.65,-0.05 q 3.55,-0.45 5.35,-2.65 l 0.15,-0.25 q 1.1,-1.5 1.3,-3.2 m 29.5,-1.7 0.15,-1.2 -0.1,-0.45 -0.3,-0.05 H -6.6 l -0.45,1.05 q 0.65,-0.3 1.2,0.25 l 0.35,0.5 0.1,0.2 0.1,0.65 q 0,0.95 -0.9,1.35 l -0.25,0.1 -0.85,0.15 h -0.6 l -0.65,-0.15 -0.65,1.65 -0.1,0.35 0.1,0.3 0.1,0.3 0.5,0.85 0.7,0.25 1.25,-0.3 0.95,-0.85 0.8,-1.55 0.25,-0.9 0.35,-2.5 m -3,0 h -0.05 l -0.6,1.2 h 0.05 l 0.5,0.35 1.1,-0.15 q 0.2,0.15 0.2,-0.45 0,-0.35 -0.6,-0.65 l -0.6,-0.3"
         fill="#6b6b6b"
         fill-rule="evenodd"
         stroke="none"
         id="path23" />
      <path
         d="M 44.95,49.55 Q 44,50.5 43.25,50.6 l 1.15,-1.1 0.5,0.05 h 0.05 M -53.45,29 -53.8,28.45 -54,27.5 q 0,-0.55 0.4,-1.1 v 0.2 l 0.15,2.4 M -41.7,43.5 -41.35,43 -41,42.45 V 42.3 l 0.15,0.05 1.6,0.55 0.35,0.1 1.55,0.45 0.15,0.05 0.3,0.05 2.25,0.5 -2.45,-0.95 -0.55,-0.25 -0.15,-0.05 -0.1,-0.05 -0.4,-0.15 -2.45,-0.9 -0.5,-0.15 -0.65,-3.45 -0.95,-5.1 -0.55,-3.4 -0.1,-1 -0.1,-0.8 -0.55,-1.7 V 26.05 L -44.3,25.6 q 2,0.7 3.65,0.8 l 2.6,6.7 1.45,3.8 0.8,2.05 0.8,2.2 0.55,1.5 0.3,0.9 0.1,0.25 0.2,0.75 0.05,0.3 v 0.05 0.3 0.25 l -1.4,-0.65 h -0.45 l -1.85,-0.2 -2.6,-0.85 -1.1,-0.65 -0.5,0.4 m -9.45,-14.35 v -0.6 L -51.2,28 v -0.15 l 0.2,-1.7 0.25,-0.85 q 1.15,-1.75 2.95,-1.2 l 0.65,0.7 1.1,0.85 0.6,0.45 1.2,6.3 0.3,1.35 0.45,2 0.65,2.7 0.45,1.6 0.1,0.3 0.6,1.8 -0.35,0.25 -0.8,0.8 -0.15,0.15 -0.45,0.55 -0.7,0.9 -0.1,0.1 -0.55,1.1 -0.05,0.25 v 0.4 h -0.1 l -0.3,0.05 h -0.05 l -0.5,-0.05 -0.1,-0.55 0.45,-1.05 0.7,-1.5 0.65,-1.25 0.1,-0.9 -1,-2.25 -0.55,-1.5 -0.5,-1.4 -1.2,-3.8 -1.05,-4.2 -0.1,-0.45 -0.65,0.2 -1.2,0.65 h -0.05 l -0.85,0.5"
         fill="#8c8c8c"
         fill-rule="evenodd"
         stroke="none"
         id="path24" />
      <path
         d="m -41.7,43.5 0.5,-0.4 1.1,0.65 2.6,0.85 1.85,0.2 h 0.45 l 1.4,0.65 q -0.2,1.7 -1.3,3.2 l -0.15,0.25 q -1.8,2.2 -5.35,2.65 l -1.8,-1.5 -2.7,-2.9 q -0.4,0.95 -1.15,1.9 L -46.4,48.9 v -0.4 l -0.1,-2.65 q -1.05,0.75 -1.5,0.75 l -0.75,-0.15 -0.2,-0.3 -0.1,-0.45 0.25,-0.9 q 0,-0.2 -1.1,-0.4 -0.6,-0.35 -0.85,-1.25 l -0.1,0.15 q -0.5,-1.05 -0.5,-1.9 v -0.05 l 0.15,-3.25 0.15,-7.4 -0.1,-1.55 0.85,-0.5 h 0.05 l 1.2,-0.65 0.65,-0.2 0.1,0.45 1.05,4.2 1.2,3.8 0.5,1.4 0.55,1.5 1,2.25 -0.1,0.9 -0.65,1.25 -0.7,1.5 -0.45,1.05 0.1,0.55 0.5,0.05 h 0.05 l 0.3,-0.05 h 0.1 0.1 l 1.45,-1.3 0.9,-1 0.5,-0.6 0.2,-0.25"
         fill="#808080"
         fill-rule="evenodd"
         stroke="none"
         id="path25" />
      <path
         d="M 40.05,30.8 40.5,32.95 40.05,32.35 40,31.1 40.05,30.8 m -42.7,11.05 0.1,0.5 q 0,0.5 -0.25,0.8 l 0.15,-1.3"
         fill="#939393"
         fill-rule="evenodd"
         stroke="none"
         id="path26" />
      <path
         d="m 45.6,35.35 2.8,-1.65 q 1.95,-0.45 3.15,3.1 l 1.75,3.6 1.3,2.65 q 0,0.85 -0.6,2 -0.8,1.55 -1.95,1.55 l -0.8,-0.25 -0.85,-0.25 -0.75,0.3 -0.8,0.25 q -0.9,0 -1.6,-0.6 l -1.4,2.35 -0.05,0.1 Q 45.7,47.75 44.65,46.65 43.5,45.4 43.5,44.8 q 0,-0.35 1.3,-2.35 1.3,-2 1.3,-2.75 l -0.5,-4.35 m -16.85,-3.3 h 0.4 q 1.85,0.15 3.2,1.3 1.45,1.2 1.45,2.85 l -0.1,0.9 q -2.95,-1 -3.8,-2.2 -0.3,-0.45 -1.05,-2.5 l -0.1,-0.35 M -3.55,47.3 Q -3,47 -1.75,47.65 0.5,48.8 0.5,50.8 q 0,0.6 -0.2,0.4 0.2,0.2 -0.4,0.2 -1,0 -2.35,-1.1 l 1.7,2.65 q 0,1.1 -1.3,1.1 -1.95,0 -3.75,-2.95 l 0.35,-0.15 1.9,-1.1 0.3,-0.3 0.1,-0.25 v -0.1 l -0.25,-0.75 -0.25,-0.75 0.1,-0.4 m -7.5,2.75 h -1 q -1.65,0 -3.1,-1.1 -0.4,0.4 -0.9,0.4 l -1.6,-0.5 q 0.25,0.65 -0.25,1.5 -0.6,0.95 -1.75,0.95 -2.95,0 -6.1,-1.75 -1.55,-0.9 -2.35,-1.75 l -0.7,1.2 q -2.45,3.95 -5.35,3.95 -0.7,0 -1.05,-0.3 1.45,-0.7 2.15,-1.3 l 0.6,-0.85 0.05,-0.3 q 0,-0.3 -0.25,-0.4 l -0.1,-0.05 -0.05,-0.05 -0.1,-0.35 0.05,-0.1 0.15,-0.6 0.1,-0.25 0.55,-1.95 0.3,-1.5 L -32,42.6 -32.35,41 -32.4,40.7 -32.75,39.65 V 39.6 l -0.3,-0.85 -1.4,-3.6 -0.9,-1.85 -1.35,-3.05 -1.2,-2.95 -0.6,-1.55 q -0.45,-0.95 -1.1,-1.4 -0.6,-0.4 -2.35,-0.45 -1.75,0 -2.55,-0.6 L -44.85,23 q 0,-2.05 3.65,-3.75 3.9,-1.8 5.85,1.05 l 1.85,3.35 q 1.05,2 1.15,3.4 0.2,2.3 0.1,6.85 l 1.05,3.45 q 1.05,2.75 1.05,3.35 l -0.2,4.9 -0.05,0.55 0.05,-0.1 1.45,-2.25 -0.15,-1.75 -0.25,-2.8 q 0,-1.95 0.6,-2.9 1.15,-1.9 1.95,-4.2 2.1,-6.05 2.1,-6.95 0,-1.15 -0.85,-2.85 -0.85,-1.75 -0.85,-2.8 0,-0.85 0.7,-1.75 1.05,-1.4 3.35,-1.4 2,0 3.05,4.55 0.55,2.3 0.7,4.8 0,2.95 -1.4,5.6 l -1.45,3 0.4,7.05 q 0.1,2.75 2.7,4.4 0.1,-2.7 1.25,-4.95 1.7,-3.3 5.3,-4.65 3.6,-1.3 6.15,2.7 L -5.2,39.55 -6,39.3 q -0.45,0.05 -1.1,0.6 l -0.9,0.9 -0.35,0.7 -0.2,0.5 -0.35,1.25 q -0.35,-0.5 -1.35,-0.95 h -2 l -0.85,1.2 -0.55,1.3 0.85,0.85 q 0.9,0.65 1.75,0.65 h 0.35 q -0.8,1 -0.8,2.2 l 0.25,0.8 0.2,0.75"
         fill="#b1b1b1"
         fill-rule="evenodd"
         stroke="none"
         id="path27" />
      <path
         d="m 40.05,30.8 q 0.1,-0.6 0.75,-0.9 l 1.5,-0.75 0.85,3.75 -2.15,0.15 -0.5,-0.1 -0.45,-2.15 m -1,-14.75 2,7.9 0.9,3.65 0.3,1.3 q -2,-0.4 -2.8,0.55 l -0.4,-0.85 q -1.15,-2.05 -3.1,-4.35 -4.1,-4.8 -4.5,-1.8 -0.45,-0.05 -0.6,0.5 -3.8,2.15 -4.35,4.6 L 26.15,28.7 Q 25.5,28.2 24.3,28.2 l -0.5,0.05 q -2.05,0.25 -2.05,2.95 l 0.05,0.6 0.05,0.5 0.35,0.45 q 0.65,0.55 2.15,0.55 l 1.4,-0.3 -0.05,0.2 v 0.05 q -0.15,0.5 -0.15,1.15 l 0.3,1.35 0.5,0.8 q 0.35,0.9 1.25,2.1 l 0.15,0.15 q 0.7,1 1.65,1.65 1.5,1.05 3.45,1.25 h 0.75 q 3.9,0 5.45,-0.6 1.5,-0.5 1.5,-1.8 0,-0.75 -1.2,-1.1 l 0.85,-2.9 0.2,-1.2 1.75,0.2 1.3,-0.1 0.1,0.45 0.35,1.85 0.15,1.6 q 0,1.75 -1.35,3.15 -1,1.1 -1.25,2.6 L 41.4,44.4 v 0.1 l -0.05,0.15 v 0.2 l 0.95,2.4 0.05,0.15 0.25,0.95 q 0,0.5 -1.25,1.2 -1.75,0.95 -5.9,2.3 -7.05,2.2 -10.2,2.2 Q 13.35,54.05 7,51.6 L 4.8,50.65 V 50.3 L 4.45,48.55 h 0.3 L 4.8,48.35 4.85,48 4.9,47.7 v -0.2 q 0.5,-2.9 3.2,-6.1 l 2.55,-2.7 -0.7,1.95 q -0.7,1.5 -0.7,2.65 l 0.15,0.45 -0.15,0.3 Q 8.95,44.3 8.75,44.7 8.4,45.4 8.3,46 L 8.25,46.45 7.6,46.5 q -1.75,0.35 -1.75,2.05 l 0.4,0.75 q 0.6,0.6 1.9,0.6 L 9,49.05 l 0.25,-0.6 0.85,0.35 0.7,0.05 q 2.1,0 6.3,-3.7 l 1,-0.85 1,-1 q 0.45,0.5 1.45,0.5 1.3,0 1.7,-0.8 l 0.05,-0.2 0.1,-1.45 q 0,-1 -0.9,-0.95 v -0.1 l 0.1,-1.8 q 0,-2.2 -0.5,-3.95 -0.35,-1.1 -0.45,-3.1 l -0.05,-2.4 0.1,-0.65 q 0.2,-1.05 0.95,-3 1,-0.8 2.35,-1.55 1.6,-0.85 1.55,-2.5 L 25.4,20.3 26.05,19.45 h 0.15 q 2.05,0 2.05,-1.6 L 28,16.8 l 1.05,-0.75 1.8,-0.6 0.6,-0.15 q 0.3,2.1 2.8,2.1 h 0.45 q 1.85,-0.35 1.95,-3.3 l 1.25,0.4 1.15,1.55 m -11.8,6.35 -0.4,0.05 q -0.2,0.1 -0.2,0.5 l 0.1,0.5 0.5,0.1 0.55,-0.15 0.05,-0.55 -0.6,-0.45 m 5.3,-7.45 2.55,-0.75 0.5,-0.15 -0.2,1.1 q -0.45,1.15 -1.75,1.15 -0.55,0 -0.9,-0.7 l -0.2,-0.65 m 6.3,7.1 Q 38.1,21 37.6,21.25 q -0.35,0.2 -0.35,0.7 l 0.05,0.6 0.3,0.2 0.45,0.05 0.7,-0.25 0.1,-0.5 M 6.65,48.7 6.95,47.9 Q 7.1,47.45 8.25,47.4 L 8.4,47.9 8,49.05 6.65,48.7 m 14.05,-7.1 0.65,0.05 0.05,0.55 -0.05,0.4 -0.1,0.05 -1.3,-0.2 H 19.9 l -0.05,-0.4 0.05,-0.4 0.1,-0.05 h 0.1 0.6 M 36,44.1 q 0,0.45 0.35,0.85 0.6,0.7 1.8,0.7 1.85,0 1.85,-1.75 0,-1.85 -2,-1.8 -2,0 -2,2 m 1.1,-0.95 1.4,0.05 q 0.4,0.2 0.4,0.65 l -0.05,0.4 q -0.2,0.35 -0.95,0.35 l -0.65,-0.15 -0.45,-0.3 0.3,-1 m -14.8,5.15 0.2,-1 q 0.35,-0.9 0.9,-0.9 l 0.9,0.25 q 0.55,0.25 0.55,0.7 l -0.2,0.8 q -0.1,0.5 0.25,0.95 l 0.95,-0.9 0.05,-0.85 q 0,-2 -2.3,-2.1 -2.3,-0.1 -2.3,2.35 l 0.15,0.45 0.45,0.4 0.4,-0.15 m 4.45,-6.35 -0.25,0.5 0.75,0.85 0.65,-0.2 0.1,-0.6 -0.15,-0.6 -1.1,0.05 m -3.4,-10.2 Q 23,31.55 23,31.05 q 0,-1.65 1.4,-1.5 1.4,0.2 1.4,1.05 -0.3,1.4 -0.75,1.7 l -1.7,-0.55 m -28.75,12.3 0.1,-0.2 0.2,-0.05 0.8,-0.05 -0.35,2.5 -0.25,0.9 -0.8,1.55 -0.95,0.85 -1.25,0.3 -0.7,-0.25 -0.5,-0.85 -0.1,-0.3 -0.1,-0.3 0.1,-0.35 0.15,0.05 0.55,0.1 q 0.45,0 1,-0.5 l 1.05,-1.3 0.25,-0.1 q 0.9,-0.4 0.9,-1.35 l -0.1,-0.65"
         fill="#8e7e91"
         fill-rule="evenodd"
         stroke="none"
         id="path28" />
      <path
         d="M 39.05,16.05 37.9,14.5 36.65,14.1 v -0.25 -0.2 q -0.1,-1.55 -1.55,-1.9 l -1.05,-0.1 q -2.45,0 -2.6,2.55 l -0.05,0.4 0.05,0.7 -0.6,0.15 -1.8,0.6 -1.05,0.75 -0.1,-0.15 -0.65,-0.9 q -0.45,-0.3 -0.95,-0.3 -1.95,0 -1.95,2.25 v 0.9 q 0.2,0.55 0.95,0.75 l 0.75,0.1 -0.65,0.85 0.15,1.05 Q 25.6,23 24,23.85 q -1.35,0.75 -2.35,1.55 -0.75,1.95 -0.95,3 l -0.1,0.65 0.05,2.4 q 0.1,2 0.45,3.1 0.5,1.75 0.5,3.95 l -0.1,1.8 v 0.1 l -0.5,0.05 -0.35,0.1 -0.9,0.5 -0.6,0.55 q -0.3,0.45 -0.3,1 l 0.25,0.7 -1,1 -1,0.85 q -4.2,3.7 -6.3,3.7 l -0.7,-0.05 -0.85,-0.35 0.1,-0.6 q 0,-1.35 -1.1,-1.4 L 8.3,46 q 0.1,-0.6 0.45,-1.3 0.2,-0.4 0.5,-0.65 l 0.15,-0.3 0.05,0.15 0.3,1.05 q 0.8,1.65 2,1.65 h 0.3 Q 13.6,46.3 16.6,43.3 L 18.55,41.15 19.65,39.5 19.75,39 19,36.35 18.3,34.5 18,33.75 q -1.2,-3.15 -1.2,-4.55 0,-0.6 0.6,-2 l 0.35,-0.1 0.2,0.2 q 0.2,0.25 0.9,0.3 H 19 l 0.95,-0.15 q 0.8,-0.3 0.95,-1.3 v -0.4 L 20.65,24.5 Q 20.4,24.2 20,24.05 l -0.75,-0.1 0.25,-0.25 0.95,-0.65 q 1.65,-1.4 2.35,-3 l 0.15,-0.3 0.35,-1.65 Q 23,16.25 23.25,15.35 l 0.05,-0.1 q 0.45,-1.15 2.9,-2.1 L 27.25,12.8 27.9,12.6 35.6,9.95 36.55,9.6 37,9.4 l 0.15,0.4 0.35,0.95 0.5,1.5 0.1,0.35 0.2,0.75 0.25,0.9 0.5,1.8 M 10.65,38.7 8.1,41.4 q -2.7,3.2 -3.2,6.1 v 0.2 L 4.85,48 4.8,48.35 4.75,48.55 h -0.3 l -0.1,-0.2 -0.3,-0.55 q -0.8,-1.15 -0.8,-1.6 0,-2.35 2.85,-6.55 L 6.25,39.4 6.4,39.2 q 0.35,-0.55 0.6,-3 l 0.9,0.2 q 0.5,0 0.85,-1.1 L 8.9,34.85 9,33.95 Q 9,32.9 8.35,32.1 l 1.55,0.2 v 0.05 0.25 l 0.4,3.65 0.1,0.75 0.15,1.05 0.1,0.55 v 0.1 m 29.75,-4.6 -0.2,1.2 -0.85,2.9 q 1.2,0.35 1.2,1.1 0,1.3 -1.5,1.8 -1.55,0.6 -5.45,0.6 H 32.85 Q 30.9,41.5 29.4,40.45 28.45,39.8 27.75,38.8 L 27.6,38.65 q -0.9,-1.2 -1.25,-2.1 l -0.5,-0.8 -0.3,-1.35 q 0,-0.65 0.15,-1.15 V 33.2 l 0.05,-0.2 0.15,-0.1 0.7,-0.85 0.15,0.4 0.05,0.2 0.35,0.95 0.75,2 q 0.15,0.5 0.65,0.95 0.75,0.7 2.3,1.35 l 2.5,1 0.45,0.2 2.95,0.95 h 0.45 q 0.85,-0.1 1.45,-0.55 l 0.6,-0.9 H 39.2 l -2.3,-0.55 0.05,-0.15 q 0.7,-2.15 1.1,-6.85 0,-1.7 -3.65,-6.1 l -0.5,-0.6 -1.65,-1.55 -0.1,-0.25 -0.3,-0.15 -0.15,0.1 -0.15,-0.05 h -0.1 q 0.4,-3 4.5,1.8 1.95,2.3 3.1,4.35 l 0.4,0.85 -0.25,0.35 q -0.35,0.6 -0.35,2.5 l 0.4,1 q 0.4,0.5 1.15,0.8 M 25.5,18.55 h -0.05 q -0.35,0 -0.4,-0.2 V 17.7 l 0.2,-1.15 1.2,0.05 0.15,0.05 q 0.65,0.25 0.65,0.7 l -0.05,0.3 -0.45,0.6 -1.25,0.3 m 7.05,-3.6 -0.05,-0.2 q 0,-2 1.55,-1.9 l 0.5,0.1 q 0.75,0.15 1,0.65 l 0.05,0.45 -0.5,0.15 -2.55,0.75 M 19.6,25.2 q 0.55,0.25 0.55,0.65 0,0.55 -0.8,0.55 H 19.2 q -0.9,0 -1.45,0.45 l -0.05,-0.35 0.8,-1.6 1.1,0.3 M 7.05,35.65 7.1,35.05 7.4,33.2 8.25,33.3 v 1.25 L 8,35 7.95,35.15 7.3,35.65 H 7.05 m -12.45,8.4 -0.1,-0.2 -0.35,-0.5 Q -6.4,42.8 -7.05,43.1 l 0.45,-1.05 h 2.05 l 0.3,0.05 0.1,0.45 -0.15,1.2 -0.8,0.05 -0.2,0.05 -0.1,0.2 m -3.8,3.75 0.65,-1.65 0.65,0.15 h 0.6 l 0.85,-0.15 -1.05,1.3 q -0.55,0.5 -1,0.5 L -9.05,47.85 -9.2,47.8 m 1.9,-4.05 0.6,0.3 q 0.6,0.3 0.6,0.65 0,0.6 -0.2,0.45 l -1.1,0.15 -0.5,-0.35 h -0.05 l 0.6,-1.2 h 0.05"
         fill="#a794aa"
         fill-rule="evenodd"
         stroke="none"
         id="path29" />
    </g>
    <g
       id="sprite5"
       transform="translate(5.45,22.95)">
      <use
         ffdec:characterId="2584"
         height="27.5"
         transform="translate(-5.45,-22.95)"
         width="17.1"
         xlink:href="#sprite6"
         id="use29" />
    </g>
    <g
       id="sprite6"
       transform="translate(5.45,22.95)">
      <use
         ffdec:characterId="2583"
         height="5.25"
         transform="scale(0.7692)"
         width="5.0999999"
         xlink:href="#sprite7"
         id="use30" />
    </g>
    <g
       id="sprite7">
      <use
         ffdec:characterId="1852"
         height="5.25"
         width="5.0999999"
         xlink:href="#shape3"
         id="use31" />
    </g>
    <g
       id="shape3">
      <path
         d="M 3.4,1.1 2.1,1.2 1.55,2.05 Q 1.15,2.7 1.3,3.1 1.4,3.45 2.2,4 3,4.55 3.5,4.3 3.95,4.05 4.25,2.6 4.25,1.35 3.4,1.1 M 0.35,4.2 Q 0,3.6 0,2.9 0,0.55 2.55,0.1 5.1,-0.35 5.1,1.55 5.1,5.25 2.6,5.25 1,5.25 0.35,4.2"
         fill="#999999"
         fill-rule="evenodd"
         stroke="none"
         id="path31" />
    </g>
    <g
       id="shape4"
       transform="translate(51,60.75)">
      <path
         d="m 49.45,-53.05 q 0.5,-2.15 1.1,-0.15 l 0.15,0.45 0.15,0.75 v 0.9 0.1 0.5 l 0.05,1.3 v 0.95 l 0.05,2.1 0.05,1.5 v 14.8 q 0.15,3.1 -0.05,4.7 l 1.65,-0.1 1.05,0.05 q -0.25,-1.15 -0.35,-3.25 v -4.7 l 0.1,-10.3 v -0.05 -3.2 l -0.05,-1.55 -0.05,-0.5 0.05,-0.55 0.1,-1.4 -0.05,-0.45 -0.05,-0.2 -0.05,-0.4 V -52 q 0,-2.5 0.8,-1 l 0.2,-0.45 0.15,-0.4 0.4,0.8 0.2,0.55 q 0.55,1.65 0.6,3.75 l -0.1,5.25 v 0.05 l 0.15,6.25 -0.05,4.05 v 4.7 l -0.45,3.55 q 0.65,0.3 0.65,0.8 0,1.05 -1.65,1.05 l -4.6,-0.45 q -0.25,-0.15 -0.25,-0.75 l 0.1,-0.25 q -0.3,-1.4 -0.4,-4.45 V -34.5 L 49.1,-46 38.45,-46.05 35.4,-46.3 h -0.15 q -0.65,0 -0.75,-1.7 v -1.75 q 0,-3.1 0.55,-3.65 0.2,-0.85 0.7,-0.6 l 0.6,0.9 0.25,1.35 v 0.3 l 0.05,1.25 0.05,0.5 v 0.95 0.7 l 1.75,-0.05 h 5.05 l 1.8,-0.05 h 3.8 v -1 q -0.35,-1.1 0.35,-3.9 m -7.4,3.25 -0.2,0.55 -0.7,0.4 q -0.55,0 -0.8,-0.45 l -0.15,-0.5 q 0,-0.85 0.95,-0.9 0.9,-0.05 0.9,0.9 M 16.1,-60.3 q 0.65,-0.15 1.1,0.55 l 0.35,0.8 q -0.3,1.4 -1.2,1.4 L -7.2,-57.6 q -4.2,0.2 -4.2,-1.35 0,-1.5 4.2,-1.3 h 4.05 L 8,-60.3 h 8.1 m 22.35,9.8 q 0.75,0 0.75,0.85 l -0.25,0.55 q -0.25,0.4 -0.7,0.4 l -0.6,-0.2 -0.2,-0.25 -0.1,-0.45 q 0,-0.85 0.95,-0.9 h 0.15 m -87,-8.1 q -0.35,0.75 -1.1,0.75 -1.45,0 -1.35,-1.55 0,-1.35 1.35,-1.35 1.3,0 1.3,1.3 l -0.2,0.85"
         fill="#6b6b6b"
         fill-rule="evenodd"
         stroke="none"
         id="path32" />
      <path
         d="m 36.35,-53.1 0.8,-0.35 q 0.65,-0.05 1,0.4 l 0.6,-0.15 4,0.1 h 6.5 l 0.2,0.05 q -0.7,2.8 -0.35,3.9 v 1 h -3.8 l -1.8,0.05 h -5.05 l -1.75,0.05 v -0.7 -0.95 l -0.05,-0.5 -0.05,-1.25 v -0.3 l -0.25,-1.35 m 5.7,3.3 q 0,-0.95 -0.9,-0.9 -0.95,0.05 -0.95,0.9 l 0.15,0.5 q 0.25,0.45 0.8,0.45 l 0.7,-0.4 0.2,-0.55 m 8.8,-1.2 h 0.05 l 1.2,-0.2 h 0.05 l 1.25,0.05 0.05,0.45 -0.1,1.4 -1,0.1 H 51.5 50.9 l -0.05,-1.3 V -51 m 2.5,2.75 0.05,1.55 -0.35,0.15 -2.1,0.4 -0.05,-2.1 0.95,-0.15 1.5,0.15 M 38.45,-50.5 H 38.3 q -0.95,0.05 -0.95,0.9 l 0.1,0.45 0.2,0.25 0.6,0.2 q 0.45,0 0.7,-0.4 l 0.25,-0.55 q 0,-0.85 -0.75,-0.85"
         fill="#797979"
         fill-rule="evenodd"
         stroke="none"
         id="path33" />
      <path
         d="m 50.55,-53.2 2.8,-0.45 0.95,0.2 -0.2,0.45 q -0.8,-1.5 -0.8,1 v 0.25 l 0.05,0.4 0.05,0.2 -1.25,-0.05 H 52.1 l -1.2,0.2 h -0.05 v -0.1 -0.9 l -0.15,-0.75 -0.15,-0.45 m 4.3,0.15 0.2,0.45 v 0.1 l -0.2,-0.55 m -1.5,3.75 -0.05,0.55 0.05,0.5 -1.5,-0.15 -0.95,0.15 v -0.95 h 0.6 0.85 l 1,-0.1 m 0.05,2.6 v 3.2 0.05 l -0.1,10.3 v 4.7 q 0.1,2.1 0.35,3.25 l -1.05,-0.05 -1.65,0.1 q 0.2,-1.6 0.05,-4.7 v -14.8 l -0.05,-1.5 2.1,-0.4 0.35,-0.15"
         fill="#8c8c8c"
         fill-rule="evenodd"
         stroke="none"
         id="path34" />
    </g>
    <g
       id="sprite8"
       transform="translate(45.15,2.8)">
      <use
         ffdec:characterId="2588"
         height="8.0500002"
         transform="matrix(0.6975,0,0,0.6975,-5.6498,-2.79)"
         width="16.200001"
         xlink:href="#sprite9"
         id="use34" />
    </g>
    <g
       id="sprite9"
       transform="translate(8.1,4)">
      <use
         ffdec:characterId="1897"
         height="8.0500002"
         transform="translate(-8.1,-4)"
         width="16.200001"
         xlink:href="#shape5"
         id="use35" />
    </g>
    <g
       id="shape5"
       transform="translate(8.1,4)">
      <path
         d="M 2.3,0.45 0.65,0.65 Q 0.45,1.6 -0.3,2.5 -1.6,4.05 -3.95,4.05 -6.15,4.05 -7.35,2.4 -8.1,1.35 -8.1,0.55 q 0,-4.9 4.4,-4.55 1.75,0.1 3.05,1.2 l 0.8,0.85 0.8,0.1 3.15,0.65 v 0.3 q 0,1 -1.25,1.25 L 2.3,0.45"
         fill="#b8b8b8"
         fill-rule="evenodd"
         stroke="none"
         id="path35" />
      <path
         d="M 0.95,-1.85 Q 1.6,-3.2 4.45,-3.1 8.1,-2.9 8.1,-0.75 5.5,1.3 4.1,1.3 3.3,1.3 2.3,0.45 L 2.85,0.35 Q 4.1,0.1 4.1,-0.9 V -1.2 L 0.95,-1.85"
         fill="#b8b8b8"
         fill-opacity="0.501961"
         fill-rule="evenodd"
         stroke="none"
         id="path36" />
    </g>
    <g
       id="sprite10"
       transform="translate(38.35,3.3)">
      <use
         ffdec:characterId="2588"
         height="8.0500002"
         transform="matrix(0.6975,0,0,0.6975,-5.6498,-2.79)"
         width="16.200001"
         xlink:href="#sprite9"
         id="use36" />
    </g>
    <g
       id="sprite11"
       transform="translate(29.5,40.8)">
      <use
         ffdec:characterId="2592"
         height="18.450001"
         transform="matrix(0.9427,0.3337,-0.3337,0.9427,-11.1547,6.5256)"
         width="9.5500002"
         xlink:href="#sprite12"
         id="use37" />
      <use
         ffdec:characterId="2592"
         height="18.450001"
         transform="matrix(-0.9427,0.3337,0.3337,0.9427,6.7047,6.5256)"
         width="9.5500002"
         xlink:href="#sprite12"
         id="use38" />
      <use
         ffdec:characterId="2592"
         height="18.450001"
         transform="matrix(-0.9946,0.1039,0.1039,0.9946,4.4177,9.801)"
         width="9.5500002"
         xlink:href="#sprite12"
         id="use39" />
      <use
         ffdec:characterId="2592"
         height="18.450001"
         transform="matrix(0.9833,0.1819,-0.1819,0.9833,-8.0967,9.4805)"
         width="9.5500002"
         xlink:href="#sprite12"
         id="use40" />
      <use
         ffdec:characterId="2596"
         height="46.049999"
         transform="translate(-25.95,-29.4)"
         width="51.900002"
         xlink:href="#sprite13"
         id="use41" />
    </g>
    <g
       id="sprite12"
       transform="translate(4.8,9.2)">
      <use
         ffdec:characterId="2591"
         height="18.450001"
         transform="translate(-4.8,-9.2)"
         width="9.5500002"
         xlink:href="#shape6"
         id="use42" />
    </g>
    <g
       id="shape6"
       transform="translate(4.8,9.2)">
      <path
         d="M 2.2,-0.25 2.1,-1.6 Q 1.65,-5.6 0,-6 -1.8,-6.4 -2.15,-1.55 l -0.1,1.2 v 0.7 L -2.3,1.7 v 0.45 l 0.15,2.1 q 0.4,2.25 1.75,2.25 1.9,0 2.45,-2.35 l 0.2,-2.4 V 1.55 0.25 L 2.2,-0.25 M 3.25,-6.7 q 1.5,3.05 1.5,8.25 0,2.7 -0.45,4.1 -1.25,3.6 -5.25,3.6 -1.95,0 -3.1,-2.35 L -4.8,4.5 q 0,-6.35 1.5,-10.1 1.3,-3.35 3.3,-3.6 1.9,-0.25 3.25,2.5"
         fill="#747474"
         fill-rule="evenodd"
         stroke="none"
         id="path42" />
      <path
         d="m 2.2,-0.25 0.05,0.5 -4.5,0.1 v -0.7 l 0.15,0.1 h 4.3 m 0.05,1.8 v 0.2 l -0.2,2.4 Q 1.5,6.5 -0.4,6.5 -1.75,6.5 -2.15,4.25 L -2.3,2.15 -0.3,2.1 2.25,1.55 m -4.4,-3.1 Q -1.8,-6.4 0,-6 q 1.65,0.4 2.1,4.4 l -4.25,0.05"
         fill="#b49d9d"
         fill-rule="evenodd"
         stroke="none"
         id="path43" />
      <path
         d="m 2.1,-1.6 0.1,1.35 h -4.3 l -0.15,-0.1 0.1,-1.2 4.25,-0.05 m 0.15,1.85 v 1.3 L -0.3,2.1 -2.3,2.15 V 1.7 l 0.05,-1.35 4.5,-0.1"
         fill="#988585"
         fill-rule="evenodd"
         stroke="none"
         id="path44" />
    </g>
    <g
       id="sprite13"
       transform="translate(25.95,23.05)">
      <use
         ffdec:characterId="2593"
         height="46.049999"
         transform="translate(-25.95,-23.05)"
         width="51.900002"
         xlink:href="#shape7"
         id="use44" />
    </g>
    <g
       id="shape7"
       transform="translate(25.95,23.05)">
      <path
         d="m -21.35,-5.5 q -1.3,3.65 -1.3,7.35 0,7.05 2.75,10.6 2.75,3.55 8.1,5.5 l 1.75,0.55 1.15,0.3 2,0.45 0.7,0.1 10.05,0.75 q 13.2,0 17.65,-10 2.25,-5.05 1.85,-10.9 0,-6.45 -5.45,-12.45 -2.2,-2.45 -5,-4 -6.45,-3.65 -16,-2.45 l -2.4,0.35 -0.9,0.15 -0.5,0.05 q -7.8,1.1 -12.25,8.85 l -2.2,4.8 m 47.3,4.7 q 0,15.3 -9.45,20.5 -5.95,3.3 -20,3.3 l -3.4,-0.55 -5.5,-1.75 q -6.85,-2.5 -8.9,-4.75 -2.75,-2.95 -3.8,-5.55 -0.85,-2.2 -0.85,-5.35 0,-9.4 3.65,-15.8 4.75,-8.4 15.4,-11.35 l 3.85,-0.85 v -0.1 H 3.4 q 11.95,0.9 18.15,9.7 4.4,6.25 4.4,12.55 M 5.6,1.9 Q 4.85,1.2 4.85,0.8 q 0,-0.95 1.4,-0.95 1.35,0 1.85,1.35 l 0.25,1.35 q 0,1.55 -0.5,2.3 Q 6.95,6.3 4.35,6.3 L 2.8,6.05 2.15,6.45 1.05,6.7 Q 0,6.7 -0.4,5.85 L -0.55,5.4 h -0.5 q -1.8,0 -2.75,-1.1 -0.65,-0.75 -0.65,-1.4 0,-1.8 0.5,-2.55 0.85,-1.2 3.4,-1.2 l 0.15,0.3 -1.75,1.45 q -0.5,0.45 -0.5,1.2 l 0.25,0.7 q 0.4,0.55 1.25,0.55 0.35,0 1.5,-0.7 1.15,-0.7 1.4,-0.7 0.6,0 1.2,1.15 0.65,1.1 1.9,1.1 1.55,0 1.5,-1.35 L 5.6,1.9 m 10.15,1.15 0.2,-0.55 q 0,-0.95 -0.85,-0.9 -0.9,0.1 -0.9,0.9 l 0.1,0.4 q 0.2,0.45 0.75,0.45 0.45,0 0.7,-0.3 M 15.6,5.7 q -1.25,0 -1.75,-1.05 L 13.6,3.55 q 0,-2.35 2.05,-2.15 2,0.15 2,2.15 L 17.2,4.85 Q 16.6,5.7 15.6,5.7 M -13.55,1.1 q 0.85,0 0.85,-0.9 0,-0.85 -0.85,-0.8 -0.85,0.05 -0.85,0.8 -0.15,0.9 0.85,0.9 m 0.8,2.5 q -1.4,0 -1.9,-1.05 L -14.9,1.3 q 0,-2.45 2.2,-2.25 2.15,0.2 2.15,2.35 0,0.65 -0.4,1.3 -0.6,0.9 -1.8,0.9"
         fill="#707070"
         fill-rule="evenodd"
         stroke="none"
         id="path45" />
      <path
         d="m 15.75,3.05 q -0.25,0.3 -0.7,0.3 -0.55,0 -0.75,-0.45 L 14.2,2.5 q 0,-0.8 0.9,-0.9 0.85,-0.05 0.85,0.9 l -0.2,0.55 M -13.55,1.1 q -1,0 -0.85,-0.9 0,-0.75 0.85,-0.8 0.85,-0.05 0.85,0.8 0,0.9 -0.85,0.9"
         fill="#ffffff"
         fill-rule="evenodd"
         stroke="none"
         id="path46" />
      <path
         d="m -21.35,-5.5 0.65,1.05 q 1.45,1.6 5.3,2.65 h 7.45 l 1.05,-0.15 q 10.35,-1.6 15.6,-6.3 l 1.55,-1.55 0.45,0.85 q 1.1,1.35 3.65,1.35 2.25,0 3.1,-1.7 0.4,-0.8 0.4,-1.95 0,-3.55 -3.85,-3.6 l -1.3,0.15 0.2,-2 v -0.55 q 2.8,1.55 5,4 5.45,6 5.45,12.45 0.4,5.85 -1.85,10.9 -4.45,10 -17.65,10 L -6.2,19.35 -5.95,19.1 q 1.05,-1.05 1.05,-2.6 0,-2.4 -2,-2.65 h -1.5 q -3.5,0.5 -3.5,3.9 l 0.1,0.2 q -5.35,-1.95 -8.1,-5.5 -2.75,-3.55 -2.75,-10.6 0,-3.7 1.3,-7.35 M 5.6,1.9 6.35,2.85 Q 6.4,4.2 4.85,4.2 3.6,4.2 2.95,3.1 2.35,1.95 1.75,1.95 1.5,1.95 0.35,2.65 -0.8,3.35 -1.15,3.35 -2,3.35 -2.4,2.8 L -2.65,2.1 q 0,-0.75 0.5,-1.2 l 1.75,-1.45 -0.15,-0.3 q -2.55,0 -3.4,1.2 -0.5,0.75 -0.5,2.55 0,0.65 0.65,1.4 0.95,1.1 2.75,1.1 h 0.5 L -0.4,5.85 Q 0,6.7 1.05,6.7 L 2.15,6.45 2.8,6.05 4.35,6.3 q 2.6,0 3.5,-1.45 0.5,-0.75 0.5,-2.3 L 8.1,1.2 q -0.5,-1.35 -1.85,-1.35 -1.4,0 -1.4,0.95 0,0.4 0.75,1.1 m 6.75,-15.35 1.5,0.05 q 2.25,0.8 2.25,2.15 l -0.05,0.8 -0.65,0.9 -2.2,0.15 -1.45,-1.25 q -0.15,-0.2 -0.15,-1.15 l 0.75,-1.65 M 15.6,5.7 q 1,0 1.6,-0.85 l 0.45,-1.3 q 0,-2 -2,-2.15 Q 13.6,1.2 13.6,3.55 l 0.25,1.1 q 0.5,1.05 1.75,1.05 m -4.05,7.95 q -0.65,0.9 -0.65,1.65 l 0.25,0.8 q 0.55,0.75 2,0.75 h 0.3 q 0.65,-0.15 1.2,-0.9 l 0.05,-0.1 q 0.55,-0.8 0.55,-1.4 0,-0.95 -1.05,-1.5 -1.7,-0.65 -2.65,0.7 m 1.65,0.65 0.65,0.15 -0.15,0.15 v 0.15 q -0.2,0.4 -0.85,0.55 L 12.4,15.05 12.65,14.35 13.2,14.3 M -12.75,3.6 q 1.2,0 1.8,-0.9 0.4,-0.65 0.4,-1.3 0,-2.15 -2.15,-2.35 -2.2,-0.2 -2.2,2.25 l 0.25,1.25 q 0.5,1.05 1.9,1.05 m 2.7,14.9 -0.1,-0.1 q -0.5,-0.5 -0.5,-1.2 0,-1.7 2.2,-1.95 l 1.55,0.15 q 0.6,0.35 0.6,1.2 0,0.7 -0.6,1.35 -0.75,0.8 -2,0.85 l -1.15,-0.3"
         fill="#b49d9d"
         fill-rule="evenodd"
         stroke="none"
         id="path47" />
      <path
         d="M 10.25,-9.8 8.7,-8.25 q -5.25,4.7 -15.6,6.3 l -1.05,0.15 h -7.45 q -3.85,-1.05 -5.3,-2.65 l -0.65,-1.05 2.2,-4.8 q 4.45,-7.75 12.25,-8.85 l 0.5,-0.05 0.9,-0.15 2.4,-0.35 q 9.55,-1.2 16,2.45 v 0.55 l -0.2,2 q -1.3,0.25 -1.95,1.35 l -0.35,0.8 q -0.3,0.85 -0.3,2 l 0.15,0.75 M -1.4,-3.9 q 0.25,-0.3 0.35,-1 v -0.5 q 0,-1.8 -1.95,-1.5 -2,0.3 -2,2.3 l 0.1,0.7 0.05,0.15 q 0.35,0.55 1.1,0.55 1.75,0 2.35,-0.7 m -0.8,-1.3 -0.05,0.35 -1,0.3 -0.65,-0.25 v -0.5 l 0.9,-0.1 0.8,0.2 m -8.7,-6.85 q 0,0.65 -0.35,1.35 l -0.3,0.5 q -0.7,0.85 -2,0.85 -0.95,0 -1.3,-0.35 l -0.1,-0.15 q -0.2,-0.3 -0.2,-1.25 0,-1.8 2.15,-2.2 2.1,-0.4 2.1,1.25 m -2.15,4.45 h 0.2 q 2.05,0 3.05,-2.1 l 0.1,-0.15 q 0.5,-1.25 0.5,-2.35 0,-3.85 -3.7,-2.6 -3.75,1.25 -3.75,4.8 l 0.15,0.9 0.25,0.45 0.8,0.6 q 0.85,0.4 2.4,0.45 m 25.4,-5.85 -0.75,1.65 q 0,-1.35 0.75,-1.65 m -9.65,-3.8 q 1,0.25 1,1.05 l -0.05,0.45 q -0.15,0.4 -0.85,0.4 l -0.6,-0.2 q -0.5,-0.3 -0.5,-0.75 0,-1.25 1,-0.95 m 1.9,0.4 q 0,-1.25 -1.8,-1.3 -1.8,0 -1.8,1.8 l 0.1,1 q 0.35,0.8 1.75,0.8 H 3.1 q 1.15,-0.05 1.45,-0.9 L 4.6,-16.5 v -0.35"
         fill="#d0b5b5"
         fill-rule="evenodd"
         stroke="none"
         id="path48" />
      <path
         d="m -11.8,17.95 -0.1,-0.2 q 0,-3.4 3.5,-3.9 h 1.5 q 2,0.25 2,2.65 0,1.55 -1.05,2.6 l -0.25,0.25 -0.7,-0.1 -2,-0.45 q 1.25,-0.05 2,-0.85 0.6,-0.65 0.6,-1.35 0,-0.85 -0.6,-1.2 l -1.55,-0.15 q -2.2,0.25 -2.2,1.95 0,0.7 0.5,1.2 l 0.1,0.1 -1.75,-0.55 M 12.7,-14.7 14,-14.85 q 3.85,0.05 3.85,3.6 0,1.15 -0.4,1.95 -0.85,1.7 -3.1,1.7 -2.55,0 -3.65,-1.35 L 10.25,-9.8 10.1,-10.55 q 0,-1.15 0.3,-2 l 0.35,-0.8 q 0.65,-1.1 1.95,-1.35 m -25.75,7.1 q -1.55,-0.05 -2.4,-0.45 l -0.8,-0.6 -0.25,-0.45 -0.15,-0.9 q 0,-3.55 3.75,-4.8 3.7,-1.25 3.7,2.6 0,1.1 -0.5,2.35 l -0.1,0.15 q -1,2.1 -3.05,2.1 h -0.2 m 2.15,-4.45 q 0,-1.65 -2.1,-1.25 -2.15,0.4 -2.15,2.2 0,0.95 0.2,1.25 l 0.1,0.15 q 0.35,0.35 1.3,0.35 1.3,0 2,-0.85 l 0.3,-0.5 q 0.35,-0.7 0.35,-1.35 m 8.7,6.85 -0.8,-0.2 -0.9,0.1 v 0.5 l 0.65,0.25 1,-0.3 0.05,-0.35 m 0.8,1.3 q -0.6,0.7 -2.35,0.7 -0.75,0 -1.1,-0.55 L -4.9,-3.9 -5,-4.6 q 0,-2 2,-2.3 1.95,-0.3 1.95,1.5 v 0.5 q -0.1,0.7 -0.35,1 m 13,-7.9 q 0,0.95 0.15,1.15 l 1.45,1.25 2.2,-0.15 0.65,-0.9 0.05,-0.8 q 0,-1.35 -2.25,-2.15 l -1.5,-0.05 q -0.75,0.3 -0.75,1.65 m -7,-5.05 v 0.35 l -0.05,1.05 q -0.3,0.85 -1.45,0.9 H 2.85 q -1.4,0 -1.75,-0.8 l -0.1,-1 q 0,-1.8 1.8,-1.8 1.8,0.05 1.8,1.3 m -1.9,-0.4 q -1,-0.3 -1,0.95 0,0.45 0.5,0.75 l 0.6,0.2 q 0.7,0 0.85,-0.4 L 3.7,-16.2 q 0,-0.8 -1,-1.05 m 10.5,31.55 -0.55,0.05 -0.25,0.7 0.45,0.25 Q 13.5,15.15 13.7,14.75 V 14.6 L 13.85,14.45 13.2,14.3 m -1.65,-0.65 q 0.95,-1.35 2.65,-0.7 1.05,0.55 1.05,1.5 0,0.6 -0.55,1.4 l -0.05,0.1 q -0.55,0.75 -1.2,0.9 h -0.3 q -1.45,0 -2,-0.75 L 10.9,15.3 q 0,-0.75 0.65,-1.65"
         fill="#988585"
         fill-rule="evenodd"
         stroke="none"
         id="path49" />
    </g>
    <g
       id="sprite14"
       transform="translate(7.15,6.5)">
      <use
         ffdec:characterId="2581"
         ffdec:characterName="furniture_fla.lilfishcopy3_1106"
         height="13.6"
         transform="matrix(0.8268,0,0,0.8268,-7.1515,-6.4901)"
         width="19.049999"
         xlink:href="#sprite15"
         id="use49" />
    </g>
    <g
       id="sprite15"
       transform="translate(8.65,7.85)">
      <use
         ffdec:characterId="2572"
         height="9.1000004"
         transform="translate(-6.35,-4.55)"
         width="12.7"
         xlink:href="#shape8"
         id="use50" />
    </g>
    <g
       id="shape8"
       transform="translate(6.35,4.55)">
      <path
         d="M 2.5,-0.2 Q 2,-0.2 1.75,-0.7 l -0.1,-0.4 q 0,-0.7 0.85,-0.75 0.8,-0.1 0.8,0.75 L 3,-0.5 q -0.25,0.3 -0.5,0.3 m -2.4,-2.3 -0.75,1.1 -0.25,1.05 0.3,1.05 q 0.45,0.5 1.65,0.85 H 3.3 L 4.45,0.55 4.6,-0.5 Q 4.6,-1.15 3.5,-2 2.05,-3.05 0.1,-2.5 m -1.7,-1 q 1.35,-1.1 3.25,-1.05 4.7,0.15 4.7,5.1 0,1.1 -0.65,1.85 Q 4.6,3.65 2,3.65 H 1.9 V 3.9 L 1.25,4.55 h -1.5 Q -0.9,4.45 -0.9,3.8 L -0.45,3.35 Q -1.95,2.9 -2.6,1.8 V 1.65 Q -3.45,3.2 -4.9,3.2 L -5.55,2.85 -5.35,1.3 q 0,-1.3 -1,-3 0.45,-0.9 2.15,-0.45 l 1.4,0.45 q 0.3,-1.05 1.2,-1.8"
         fill="#6b6b6b"
         fill-rule="evenodd"
         stroke="none"
         id="path50" />
      <path
         d="m 0.1,-2.5 q 1.95,-0.55 3.4,0.5 1.1,0.85 1.1,1.5 L 4.45,0.55 3.3,1.55 H 1.05 Q -0.15,1.2 -0.6,0.7 L -0.9,-0.35 -0.65,-1.4 0.1,-2.5 m 2.4,2.3 q 0.25,0 0.5,-0.3 L 3.3,-1.1 Q 3.3,-1.95 2.5,-1.85 1.65,-1.8 1.65,-1.1 l 0.1,0.4 Q 2,-0.2 2.5,-0.2"
         fill="#a79a89"
         fill-rule="evenodd"
         stroke="none"
         id="path51" />
    </g>
    <g
       id="sprite16"
       transform="translate(5.65,2.8)">
      <use
         ffdec:characterId="2588"
         height="8.0500002"
         transform="matrix(0.6975,0,0,0.6975,-5.6498,-2.79)"
         width="16.200001"
         xlink:href="#sprite9"
         id="use51" />
    </g>
    <g
       id="shape9"
       transform="translate(56.45,59)">
      <path
         d="m 56.45,-55.3 -0.15,1.85 -0.4,1.1 v 111 l -0.05,1.65 -0.1,0.35 h -111.5 l -0.1,-0.35 -0.05,-1.65 v -111 l -0.4,-1.1 -0.15,-1.85 q 0,-3.3 0.8,-3.15 l 0.6,-0.25 6.1,-0.3 h 97.9 l 6.1,0.3 0.6,0.25 q 0.8,-0.15 0.8,3.15 m -3.2,-1.1 -4.3,-0.05 h -97.9 l -4.3,0.05 0.1,1.7 8.7,-0.2 h 88.9 l 8.7,0.2 0.1,-1.7 m -8.8,4.75 h -88.9 l -8.2,-0.25 v 95.4 l 0.4,-0.2 q 1.75,-0.75 3.95,-0.65 5.4,0.2 5.75,4.45 l 1,-0.1 q 1.55,0 2.65,1.35 1,1.2 1,2.4 v 0.1 l 4,-2.25 q 2.9,-1.65 5.45,-1.65 0.7,0 0.9,0.35 l 0.45,0.75 q 1,1.1 6.2,1.1 1.85,0 5.1,-1.45 3.3,-1.45 5.8,-1.5 2.1,0.25 5.1,1.75 l 1.8,1 5.75,0.4 1.55,1.1 0.95,0.95 q 3.7,-0.35 4.9,-1.3 1.1,-0.85 2.35,-0.85 l 5,0.35 q 0.1,-2.55 4,-2.55 2.75,0 3.6,1.15 l 1.75,-1.1 h 9.6 q 1.1,-0.25 1.7,0.25 l 0.6,0.55 1.85,-0.95 q 1.95,-0.95 2.85,-1 0.7,0 1.4,0.5 0.65,-1.05 2.3,-2.05 2,-1.15 3.95,-0.6 0.45,-0.15 1.1,0 l 0.55,0.2 v -95.9 l -8.2,0.25 m -0.1,99.9 -0.2,-0.15 q -0.4,-0.35 -0.8,-0.35 -1.65,0 -2.75,1.3 -1.1,1.3 -1.75,1.3 -0.8,0 -1.4,-0.65 l -1.1,-0.75 -9.25,0.15 q -0.55,0.35 -1,1.9 -0.35,1.25 -1.25,1.25 -0.75,0.75 -2,0.9 l -0.25,0.2 -0.2,-0.15 h -0.25 q -2.65,0 -3.3,-0.6 v -0.05 q -0.9,-0.45 -1.2,-1 l -0.15,-0.5 h -1.05 q -2.8,-0.2 -5.1,0.55 L 10,52.75 q -0.65,0.6 -2.7,0.7 L 5.4,54 2.85,54.15 q -1.3,0 -1.95,-0.5 Q 0.25,53.1 0.05,53.1 L -2,53.45 Q -2.35,53.7 -2.7,54.7 L -3,54.85 -3.3,54.7 -3.4,54.2 q 0,-2.35 3.85,-2.35 0.85,0 1.8,0.75 l 1.1,-0.25 -0.8,-0.75 q -1.1,-1.3 -4.7,-0.9 L -2.4,50.85 -2.95,51 -3.6,50.9 H -3.7 L -3.8,50.85 -6.4,49.7 q -2.6,-1.35 -6.4,-1.35 -1.65,0 -3.7,1.4 -2.1,1.35 -4.85,1.35 l -5.85,-0.6 -0.2,0.3 v 0.1 q 0.7,0.5 0.7,1.4 0,0.65 -0.45,1.6 -0.55,1.25 -1.3,1.3 h -1.85 l -1.55,-0.95 q -0.55,-0.6 -0.55,-1.25 0,-2.9 2.85,-2.75 l 1.3,0.2 -0.05,-0.45 -0.65,-0.75 q -0.35,-0.35 -1.1,-0.35 -0.75,0 -3.6,1.95 -2.8,1.9 -4.95,1.9 -1.25,0 -1.75,-1.85 -0.55,-1.9 -1.6,-1.9 l -0.9,0.2 -0.55,1.15 -0.65,1.5 0.55,1.05 0.35,0.1 3.25,-0.1 0.4,0.1 0.1,0.45 q 0,0.45 -1.15,0.9 l -2.55,0.5 -1.45,1.6 -0.05,0.1 0.25,0.4 h 59 q 0.4,-2.5 3.4,-2.7 3.45,-0.2 3.45,1.75 l -0.05,0.95 H 35.9 q 0.15,-2.75 2.2,-3.6 2.25,-1 6,1.3 l 0.45,0.3 2.55,1.9 v 0.1 h 5.55 V 52.7 q -0.8,0.95 -3.05,0.95 -1.45,0 -2.25,-0.75 -0.6,-0.5 -0.6,-0.9 l 0.1,-1.1 q -0.7,-0.05 -1.3,-0.65 L 44.1,51.6 43.9,51.45 43.85,51 l 0.8,-2.1 -0.3,-0.65 m 2.65,0.95 0.35,0.15 q 0.75,-1.35 2.6,-1.5 1.95,-0.15 2.7,0.95 V 45.4 H 52.3 l -1.9,-0.25 q -1.9,0 -3.2,1.2 -1.05,0.95 -1.05,1.75 0,0.8 0.85,1.1 M 49.15,49.1 48.4,49.75 48,50.4 q 0,0.9 0.45,1.3 0.6,0.5 2.3,0.5 1.1,0 1.35,-0.7 v -0.85 l -0.05,-0.8 Q 51.9,49.45 51,49.1 H 49.15 M 21.2,48.85 q -0.7,0 -1.4,0.7 l -0.6,0.7 0.65,1.05 0.5,0.25 0.6,0.3 1.65,-0.25 q 1,-0.75 1,-1.35 0,-0.5 -0.6,-0.9 -0.65,-0.5 -1.8,-0.5 m 10.3,5.25 q 0,1 -0.8,1 -0.75,0 -0.75,-0.85 l 0.2,-0.6 q 0.35,-0.45 1.2,-0.15 l 0.1,0.15 0.05,0.45 m 5.9,2.85 h 5.35 Q 42.9,56.4 43.35,55.85 42,54.7 40.7,54.7 q -3.1,0 -3.3,1.95 v 0.3 m -16.55,-0.6 q 0,-0.45 -0.7,-0.75 l -1.05,-0.25 -1.75,0.05 -1.15,1.35 -0.1,0.2 h 4.65 l 0.1,-0.6 m -7.65,-2.65 0.65,0.5 -0.65,0.7 -0.5,-0.3 -0.05,-0.35 q 0,-0.4 0.2,-0.45 l 0.35,-0.1 m 34.55,1.4 q 0,-0.9 0.9,-0.95 0.85,0 0.85,0.85 l -0.3,0.65 -0.6,0.25 q -0.6,0 -0.8,-0.4 l -0.05,-0.4 m -3.05,1.85 -0.2,-0.1 v 0.1 h 0.2 m -96.15,-7.8 0.6,0.65 1.95,0.05 V 49.8 l 0.1,-0.45 V 49.3 l -0.4,-0.6 -1.7,-0.1 -0.55,0.55 M -52.3,48.1 q 0.75,-1.1 3.5,-0.6 l 0.7,0.5 0.1,0.05 q 1.25,0.9 1.25,2.05 0,0.65 -1.5,1.5 h -2.4 l -0.5,-0.15 q -0.8,-0.25 -1.15,-0.85 l -0.2,-1.2 q -0.15,-0.75 0.2,-1.3 m 3.25,-3.25 q -1.7,0 -3.6,1 v 7.7 l -0.1,1.05 v 1.05 l 0.1,0.4 v 0.9 h 1.3 l 1.15,0.15 h 2.35 l 1.5,-1 2.05,-1.6 q 0,-0.6 -0.65,-1.45 l -0.35,-0.5 q -0.7,-0.35 -1,-1.8 l 0.35,-1.1 -0.05,-0.1 0.35,-1.05 0.4,-0.9 q 0,-0.65 -1.5,-1.7 -1.45,-1.05 -2.3,-1.05 m -0.85,8.9 q 0.65,-1 1.35,-0.75 0.6,0.2 0.6,0.8 l -0.25,0.6 q -0.3,0.35 -0.75,0.35 l -0.55,-0.05 -0.3,-0.2 -0.1,-0.75 M -7.15,52.4 q -0.4,0.7 -1.25,0.7 -2.25,0 -2.25,-1.6 0,-1.85 1.95,-1.65 1.9,0.2 1.9,1.4 0,0.65 -0.35,1.15 m -1.4,-0.25 0.9,-0.7 v -0.3 l -0.9,-0.1 -1.1,0.15 -0.05,0.7 1.15,0.25 m -9.85,2.1 -0.25,0.65 q -0.35,0.35 -0.75,0.35 -0.8,0 -0.9,-1 0,-0.9 0.95,-0.85 0.95,0.05 0.95,0.85 m -11.25,-2.7 q -1.8,-0.15 -1.8,1.1 l 0.25,0.9 1.65,0.3 q 0.8,0 1.3,-0.7 l 0.35,-0.75 q 0,-0.65 -1.75,-0.85"
         fill="#6b6b6b"
         fill-rule="evenodd"
         stroke="none"
         id="path52" />
      <path
         d="m 53.25,-56.4 -0.1,1.7 -8.7,-0.2 h -88.9 l -8.7,0.2 -0.1,-1.7 4.3,-0.05 h 97.9 l 4.3,0.05 M 21.2,48.85 q 1.15,0 1.8,0.5 0.6,0.4 0.6,0.9 0,0.6 -1,1.35 l -1.65,0.25 -0.6,-0.3 -0.5,-0.25 -0.65,-1.05 0.6,-0.7 q 0.7,-0.7 1.4,-0.7 M 49.15,49.1 H 51 q 0.9,0.35 1.05,0.75 l 0.05,0.8 v 0.85 q -0.25,0.7 -1.35,0.7 -1.7,0 -2.3,-0.5 Q 48,51.3 48,50.4 l 0.4,-0.65 0.75,-0.65 m -28.3,7.25 -0.1,0.6 H 16.1 l 0.1,-0.2 1.15,-1.35 1.75,-0.05 1.05,0.25 q 0.7,0.3 0.7,0.75 m 16.55,0.6 v -0.3 q 0.2,-1.95 3.3,-1.95 1.3,0 2.65,1.15 -0.45,0.55 -0.6,1.1 H 37.4 m -88.85,-7.8 0.55,-0.55 1.7,0.1 0.4,0.6 v 0.05 l -0.1,0.45 v 0.05 l -1.95,-0.05 -0.6,-0.65 m 42.9,3 -1.15,-0.25 0.05,-0.7 1.1,-0.15 0.9,0.1 v 0.3 l -0.9,0.7 m -21.1,-0.6 q 1.75,0.2 1.75,0.85 l -0.35,0.75 q -0.5,0.7 -1.3,0.7 l -1.65,-0.3 -0.25,-0.9 q 0,-1.25 1.8,-1.1"
         fill="#797979"
         fill-rule="evenodd"
         stroke="none"
         id="path53" />
      <path
         d="m -42.4,-50.5 q 9.2,-0.4 9.75,1.15 l 0.15,0.6 q 0,1.25 -2.9,2.05 l -5.35,1.55 -4.45,2.15 q -3.85,1.85 -4.4,1.85 -0.9,0 -1.75,-3.7 l -0.65,-3.45 -0.1,-0.1 -0.05,-0.55 0.2,-0.25 q 0.15,-0.65 0.6,-0.9 0.45,-0.2 1,0.35 l 7.95,-0.75 m -4.95,2.5 h -0.75 l 0.1,0.3 0.65,-0.3 m -1.45,10.7 q -1.15,0 -1.4,-0.65 l -0.05,-0.7 q 0,-1.5 1.75,-1.45 1.75,0 1.75,0.95 0,0.4 -0.65,1.1 -0.7,0.75 -1.4,0.75"
         fill="#ffffff"
         fill-rule="evenodd"
         stroke="none"
         id="path54" />
      <path
         d="m 44.45,-51.65 8.2,-0.25 V 44 L 52.1,43.8 q -0.65,-0.15 -1.1,0 -1.95,-0.55 -3.95,0.6 -1.65,1 -2.3,2.05 -0.7,-0.5 -1.4,-0.5 -0.9,0.05 -2.85,1 l -1.85,0.95 -0.6,-0.55 q -0.6,-0.5 -1.7,-0.25 h -9.6 L 25,48.2 q -0.85,-1.15 -3.6,-1.15 -3.9,0 -4,2.55 l -5,-0.35 q -1.25,0 -2.35,0.85 -1.2,0.95 -4.9,1.3 l -0.95,-0.95 -1.55,-1.1 -5.75,-0.4 -1.8,-1 q -3,-1.5 -5.1,-1.75 -2.5,0.05 -5.8,1.5 -3.25,1.45 -5.1,1.45 -5.2,0 -6.2,-1.1 l -0.45,-0.75 q -0.2,-0.35 -0.9,-0.35 -2.55,0 -5.45,1.65 l -4,2.25 v -0.1 q 0,-1.2 -1,-2.4 Q -40,47 -41.55,47 l -1,0.1 q -0.35,-4.25 -5.75,-4.45 -2.2,-0.1 -3.95,0.65 l -0.4,0.2 v -95.4 l 8.2,0.25 h 88.9 m -86.85,1.15 -7.95,0.75 q -0.55,-0.55 -1,-0.35 -0.45,0.25 -0.6,0.9 l -0.2,0.25 0.05,0.55 0.1,0.1 0.65,3.45 q 0.85,3.7 1.75,3.7 0.55,0 4.4,-1.85 l 4.45,-2.15 5.35,-1.55 q 2.9,-0.8 2.9,-2.05 l -0.15,-0.6 q -0.55,-1.55 -9.75,-1.15 m -6.4,13.2 q 0.7,0 1.4,-0.75 0.65,-0.7 0.65,-1.1 0,-0.95 -1.75,-0.95 -1.75,-0.05 -1.75,1.45 l 0.05,0.7 q 0.25,0.65 1.4,0.65"
         fill="#7f8d90"
         fill-opacity="0.14902"
         fill-rule="evenodd"
         stroke="none"
         id="path55" />
      <path
         d="m 47,49.2 q -0.85,-0.3 -0.85,-1.1 0,-0.8 1.05,-1.75 1.3,-1.2 3.2,-1.2 l 1.9,0.25 h 0.35 v 3.4 Q 51.9,47.7 49.95,47.85 48.1,48 47.35,49.35 L 47,49.2 m -2.65,-0.95 0.3,0.65 -0.8,2.1 0.05,0.45 0.2,0.15 1.45,-1.35 q 0.6,0.6 1.3,0.65 l -0.1,1.1 q 0,0.4 0.6,0.9 0.8,0.75 2.25,0.75 2.25,0 3.05,-0.95 v 4.25 H 47.1 v -0.1 l -2.55,-1.9 -0.45,-0.3 q -3.75,-2.3 -6,-1.3 -2.05,0.85 -2.2,3.6 H 21.45 L 21.5,56 q 0,-1.95 -3.45,-1.75 -3,0.2 -3.4,2.7 h -59 l -0.25,-0.4 0.05,-0.1 1.45,-1.6 2.55,-0.5 q 1.15,-0.45 1.15,-0.9 l -0.1,-0.45 -0.4,-0.1 -3.25,0.1 -0.35,-0.1 -0.55,-1.05 0.65,-1.5 0.55,-1.15 0.9,-0.2 q 1.05,0 1.6,1.9 0.5,1.85 1.75,1.85 2.15,0 4.95,-1.9 2.85,-1.95 3.6,-1.95 0.75,0 1.1,0.35 l 0.65,0.75 0.05,0.45 -1.3,-0.2 Q -32.4,50.1 -32.4,53 q 0,0.65 0.55,1.25 l 1.55,0.95 h 1.85 q 0.75,-0.05 1.3,-1.3 0.45,-0.95 0.45,-1.6 0,-0.9 -0.7,-1.4 v -0.1 l 0.2,-0.3 5.85,0.6 q 2.75,0 4.85,-1.35 2.05,-1.4 3.7,-1.4 3.8,0 6.4,1.35 l 2.6,1.15 0.1,0.05 h 0.1 l 0.65,0.1 0.55,-0.15 0.25,-0.15 q 3.6,-0.4 4.7,0.9 l 0.8,0.75 -1.1,0.25 q -0.95,-0.75 -1.8,-0.75 -3.85,0 -3.85,2.35 l 0.1,0.5 0.3,0.15 0.3,-0.15 q 0.35,-1 0.7,-1.25 L 0.05,53.1 q 0.2,0 0.85,0.55 0.65,0.5 1.95,0.5 L 5.4,54 7.3,53.45 q 2.05,-0.1 2.7,-0.7 l 1.35,-1.15 q 2.3,-0.75 5.1,-0.55 h 1.05 l 0.15,0.5 q 0.3,0.55 1.2,1 v 0.05 q 0.65,0.6 3.3,0.6 h 0.25 l 0.2,0.15 0.25,-0.2 q 1.25,-0.15 2,-0.9 0.9,0 1.25,-1.25 0.45,-1.55 1,-1.9 l 9.25,-0.15 1.1,0.75 q 0.6,0.65 1.4,0.65 0.65,0 1.75,-1.3 1.1,-1.3 2.75,-1.3 0.4,0 0.8,0.35 l 0.2,0.15 M 31.5,54.1 31.45,53.65 31.35,53.5 q -0.85,-0.3 -1.2,0.15 l -0.2,0.6 q 0,0.85 0.75,0.85 0.8,0 0.8,-1 m 16.25,1 0.05,0.4 q 0.2,0.4 0.8,0.4 L 49.2,55.65 49.5,55 q 0,-0.85 -0.85,-0.85 -0.9,0.05 -0.9,0.95 M 13.2,53.7 12.85,53.8 q -0.2,0.05 -0.2,0.45 l 0.05,0.35 0.5,0.3 0.65,-0.7 -0.65,-0.5 M -7.15,52.4 q 0.35,-0.5 0.35,-1.15 0,-1.2 -1.9,-1.4 -1.95,-0.2 -1.95,1.65 0,1.6 2.25,1.6 0.85,0 1.25,-0.7 m -42.75,1.35 0.1,0.75 0.3,0.2 0.55,0.05 q 0.45,0 0.75,-0.35 l 0.25,-0.6 q 0,-0.6 -0.6,-0.8 -0.7,-0.25 -1.35,0.75 m 0.85,-8.9 q 0.85,0 2.3,1.05 1.5,1.05 1.5,1.7 l -0.4,0.9 -0.35,1.05 0.05,0.1 -0.35,1.1 q 0.3,1.45 1,1.8 l 0.35,0.5 q 0.65,0.85 0.65,1.45 l -2.05,1.6 -1.5,1 h -2.35 l -1.15,-0.15 h -1.3 v -0.9 l -0.1,-0.4 V 54.6 l 0.1,-1.05 v -7.7 q 1.9,-1 3.6,-1 m -3.25,3.25 q -0.35,0.55 -0.2,1.3 l 0.2,1.2 q 0.35,0.6 1.15,0.85 l 0.5,0.15 h 2.4 q 1.5,-0.85 1.5,-1.5 0,-1.15 -1.25,-2.05 L -48.1,48 -48.8,47.5 q -2.75,-0.5 -3.5,0.6 m 33.9,6.15 q 0,-0.8 -0.95,-0.85 -0.95,-0.05 -0.95,0.85 0.1,1 0.9,1 0.4,0 0.75,-0.35 l 0.25,-0.65"
         fill="#897777"
         fill-rule="evenodd"
         stroke="none"
         id="path56" />
    </g>
  </defs>
</svg>
