<?xml version="1.0" encoding="UTF-8" standalone="no"?>
<svg
   ffdec:objectType="frame"
   height="42.25"
   width="164.12189"
   version="1.1"
   id="svg8"
   sodipodi:docname="1.svg"
   xmlns:inkscape="http://www.inkscape.org/namespaces/inkscape"
   xmlns:sodipodi="http://sodipodi.sourceforge.net/DTD/sodipodi-0.dtd"
   xmlns:xlink="http://www.w3.org/1999/xlink"
   xmlns="http://www.w3.org/2000/svg"
   xmlns:svg="http://www.w3.org/2000/svg"
   xmlns:ffdec="https://www.free-decompiler.com/flash">
  <sodipodi:namedview
     id="namedview8"
     pagecolor="#ffffff"
     bordercolor="#000000"
     borderopacity="0.25"
     inkscape:showpageshadow="2"
     inkscape:pageopacity="0.0"
     inkscape:pagecheckerboard="0"
     inkscape:deskcolor="#d1d1d1"
     fit-margin-top="5"
     fit-margin-left="5"
     fit-margin-right="5"
     fit-margin-bottom="5" />
  <g
     transform="translate(89.5869,21.1)"
     id="g4">
    <use
       ffdec:characterId="889"
       height="42.25"
       transform="matrix(0.9186,0,0,1,-89.5869,-21.1)"
       width="45.799999"
       xlink:href="#sprite0"
       id="use1" />
    <use
       ffdec:characterId="889"
       height="42.25"
       transform="matrix(0.9186,0,0,1,-48.3869,-21.1)"
       width="45.799999"
       xlink:href="#sprite0"
       id="use2" />
    <use
       ffdec:characterId="889"
       height="42.25"
       transform="matrix(0.9186,0,0,1,-8.6869,-21.1)"
       width="45.799999"
       xlink:href="#sprite0"
       id="use3" />
    <use
       ffdec:characterId="889"
       height="42.25"
       transform="matrix(0.9186,0,0,1,32.4631,-21.1)"
       width="45.799999"
       xlink:href="#sprite0"
       id="use4" />
  </g>
  <defs
     id="defs8">
    <g
       id="sprite0"
       transform="translate(22.9,21.1)">
      <use
         ffdec:characterId="888"
         height="42.25"
         transform="translate(-22.9,-21.1)"
         width="45.799999"
         xlink:href="#shape0"
         id="use5" />
    </g>
    <g
       id="shape0"
       transform="translate(22.9,21.1)">
      <path
         d="m 22.3,-21.1 0.35,0.15 0.15,0.35 V 1.25 l 0.05,0.2 0.05,14.85 v 2.35 0.05 l -0.5,1.6 v 0.3 l -0.15,0.35 -0.3,0.15 H 21.2 L 20.8,21.15 20.15,21.1 H -20.2 l -0.5,0.05 -0.6,-0.05 h -0.55 l -0.35,-0.15 -0.15,-0.35 v -0.3 l -0.55,-1.55 v -0.1 -2.35 l 0.15,-14.85 0.05,-0.2 V -20.6 l 0.15,-0.35 0.3,-0.15 H 22.3 M -17.5,17.25 H 19 L 19.05,1.6 19.15,1.4 v -18.55 h -0.5 L -6,-17.2 v -0.1 h -2.35 l -10.75,0.15 V 1.4 l 0.05,0.2 0.05,15.65 h 1.5"
         fill="#6b6b6b"
         fill-rule="evenodd"
         stroke="none"
         id="path5" />
      <path
         d="m 16.45,-14.15 v 27.9 H 5 l -19.6,0.55 -1.1,0.05 -0.55,0.05 0.35,-1.55 0.1,-0.65 0.1,-0.1 -0.05,-0.65 0.3,-8.9 0.05,-15.4 h 1.15 l 26.65,-0.2 q 2.1,0.75 4.05,-1.1"
         fill="#cdcbb7"
         fill-rule="evenodd"
         stroke="none"
         id="path6" />
      <path
         d="m 16.45,-14.15 0.8,-0.9 1.4,-2.1 h 0.5 V 1.4 L 19.05,1.6 19,17.25 h -36.5 l 0.8,-1.5 0.25,-0.65 0.2,-0.7 0.55,-0.05 1.1,-0.05 L 5,13.75 h 11.45 v -27.9"
         fill="#a3a291"
         fill-rule="evenodd"
         stroke="none"
         id="path7" />
      <path
         d="m 18.65,-17.15 -1.4,2.1 -0.8,0.9 q -1.95,1.85 -4.05,1.1 l -26.65,0.2 h -1.15 l -0.05,15.4 -0.3,8.9 -0.05,0.75 -0.1,0.65 -0.35,1.55 -0.2,0.7 -0.25,0.65 -0.8,1.5 H -19 L -19.05,1.6 -19.1,1.4 V -17.15 L -8.35,-17.3 H -6 v 0.1 l 24.65,0.05"
         fill="#f1f0d7"
         fill-rule="evenodd"
         stroke="none"
         id="path8" />
    </g>
  </defs>
</svg>
