<?xml version="1.0" encoding="UTF-8" standalone="no"?>
<svg
   ffdec:objectType="frame"
   height="48.620735"
   width="32.259048"
   version="1.1"
   id="svg32"
   sodipodi:docname="2.svg"
   xmlns:inkscape="http://www.inkscape.org/namespaces/inkscape"
   xmlns:sodipodi="http://sodipodi.sourceforge.net/DTD/sodipodi-0.dtd"
   xmlns:xlink="http://www.w3.org/1999/xlink"
   xmlns="http://www.w3.org/2000/svg"
   xmlns:svg="http://www.w3.org/2000/svg"
   xmlns:ffdec="https://www.free-decompiler.com/flash">
  <sodipodi:namedview
     id="namedview32"
     pagecolor="#ffffff"
     bordercolor="#000000"
     borderopacity="0.25"
     inkscape:showpageshadow="2"
     inkscape:pageopacity="0.0"
     inkscape:pagecheckerboard="0"
     inkscape:deskcolor="#d1d1d1"
     fit-margin-top="5"
     fit-margin-left="5"
     fit-margin-right="5"
     fit-margin-bottom="5" />
  <g
     transform="translate(0,8.4470588e-4)"
     id="g10">
    <use
       ffdec:characterId="2977"
       height="30.4"
       transform="matrix(0.55,0,0,0.55,0.95,17.9)"
       width="33.049999"
       xlink:href="#sprite0"
       id="use1" />
    <use
       ffdec:characterId="2979"
       height="38.25"
       transform="matrix(0.7451,0,0,0.7451,1.7,1.5)"
       width="38"
       xlink:href="#sprite1"
       id="use2" />
    <use
       ffdec:characterId="2804"
       height="8"
       transform="matrix(0.6812,0,0,0.6936,17.6214,8.7754)"
       width="10.8"
       xlink:href="#sprite2"
       id="use3" />
    <use
       ffdec:characterId="2981"
       height="9.75"
       transform="matrix(0.6799,0,0,0.636,12.7,25.45)"
       width="9.4499998"
       xlink:href="#sprite3"
       id="use4" />
    <use
       ffdec:characterId="2982"
       height="10"
       transform="matrix(0.1939,0.7237,-0.7237,0.1939,13.2,24.3)"
       width="31.85"
       xlink:href="#sprite4"
       id="use5" />
    <use
       ffdec:characterId="2981"
       height="9.75"
       transform="matrix(0.6799,0,0,0.636,0,13.8)"
       width="9.4499998"
       xlink:href="#sprite3"
       id="use6" />
    <use
       ffdec:characterId="2984"
       height="9.5500002"
       transform="matrix(0.6799,0,0,0.6476,25.8,12.95)"
       width="9.5"
       xlink:href="#sprite5"
       id="use7" />
    <use
       ffdec:characterId="2985"
       height="10.8"
       transform="matrix(0.5744,0,0,0.5744,12.65,0)"
       width="11.25"
       xlink:href="#sprite6"
       id="use8" />
    <use
       ffdec:characterId="2987"
       height="34.5"
       transform="translate(-1.1,-1.05)"
       width="34.450001"
       xlink:href="#sprite7"
       id="use9" />
    <use
       ffdec:characterId="2988"
       height="42.150002"
       transform="translate(-4.8,-4.85)"
       width="42.200001"
       xlink:href="#sprite9"
       id="use10" />
  </g>
  <defs
     id="defs32">
    <g
       id="sprite0">
      <use
         ffdec:characterId="2976"
         height="30.4"
         width="33.049999"
         xlink:href="#shape0"
         id="use11" />
    </g>
    <g
       id="shape0">
      <path
         d="m 21.85,24.25 h 0.05 l 0.85,0.2 2.75,-0.75 q 3.05,-0.8 3.95,-2.2 l 0.3,-1.65 -0.65,-0.9 -0.5,0.05 q -0.9,0 -1.1,-0.4 l -0.05,-0.5 q 0,-0.35 0.55,-1.25 0.05,-0.3 0.25,-0.45 l 0.55,-0.85 q 1.35,-1.95 1.35,-2.8 L 29.95,12.3 Q 29.55,11.9 28.6,11.45 L 28,11.15 H 27.95 L 27.05,10.8 27,10.1 27.05,9.95 27.45,8.7 27.95,6.95 q 0,-0.65 -1,-1.4 -1,-0.8 -1.9,-0.8 -1.7,0 -2.4,1.25 -0.75,1.25 -1.5,1.25 -0.95,0 -1.2,-0.75 L 19.9,5.9 19.95,5.5 19.4,4.8 Q 18.05,3 15.3,3 13.3,3 12.9,5.15 12.5,7.3 11.4,7.3 10.75,7.3 10.45,7 L 8.65,6.65 q -3.5,0 -5,2.65 -0.8,1.35 -0.85,2.75 L 2.85,12.3 Q 3,13.15 4.3,13.95 l 0.75,0.55 q 0.9,-0.5 0.9,1.15 l -0.7,1.65 q -0.75,1.45 -0.75,2.4 0,2.35 3.25,2.85 l 1.6,0.35 q 0.5,-0.85 1.85,0.6 l 3.5,4.1 h 3.45 q 1.05,-0.05 1.9,-1.7 0.65,-1.35 1.5,-1.6 h 0.2 l 0.1,-0.05 M 21.5,3.05 q 1.45,-1 3.5,-0.9 5.05,0.25 5.05,4.8 l -0.3,1.85 0.3,0.1 q 1.7,0.75 2.45,1.85 0.55,0.8 0.55,1.8 0,1.1 -1.1,3.45 l -1.1,1.8 q 1.05,1.15 1.05,2.5 0,1.3 -0.9,2.65 l -1.25,1.65 q -2.3,2.45 -6,2.45 l -1,-0.05 -0.85,1.25 q -1.85,2.15 -5.5,2.15 -4.25,0 -6.25,-2.9 L 9.4,25.7 8.5,25.8 Q 4.7,25.8 3,23.1 2,21.55 2,20.05 2,18.4 2.8,17 1,16.5 0.35,14.7 L 0.05,12.3 0,12.15 Q 0,5.4 6.15,4.35 L 10.1,4.5 q 0.1,-1.65 0.75,-2.7 1.3,-2.15 5.1,-1.7 2.3,0.3 4,1.65 L 20,1.8 l 1.3,1.45 0.2,-0.2"
         fill="#6b6b6b"
         fill-rule="evenodd"
         stroke="none"
         id="path11" />
      <path
         d="m 21.55,24.3 q -0.85,0.25 -1.5,1.6 -0.85,1.65 -1.9,1.7 H 14.7 L 11.2,23.5 Q 9.85,22.05 9.35,22.9 L 7.75,22.55 Q 4.5,22.05 4.5,19.7 q 0,-0.95 0.75,-2.4 l 0.7,-1.65 Q 5.95,14 5.05,14.5 L 4.3,13.95 Q 3,13.15 2.85,12.3 L 2.8,12.05 q 0.05,-1.4 0.85,-2.75 1.5,-2.65 5,-2.65 L 10.45,7 q 0.3,0.3 0.95,0.3 1.1,0 1.5,-2.15 Q 13.3,3 15.3,3 q 2.75,0 4.1,1.8 l 0.55,0.7 -0.05,0.4 0.05,0.6 q 0.25,0.75 1.2,0.75 0.75,0 1.5,-1.25 0.7,-1.25 2.4,-1.25 0.9,0 1.9,0.8 1,0.75 1,1.4 l -0.5,1.75 -0.4,1.25 -0.05,0.15 0.05,0.7 0.9,0.35 H 28 l 0.6,0.3 q 0.95,0.45 1.35,0.85 l 0.2,0.45 q 0,0.85 -1.35,2.8 l -0.55,0.85 q -0.2,0.15 -0.25,0.45 -0.55,0.9 -0.55,1.25 l 0.05,0.5 q 0.2,0.4 1.1,0.4 l 0.5,-0.05 0.65,0.9 -0.3,1.65 q -0.9,1.4 -3.95,2.2 l -2.75,0.75 -0.85,-0.2 H 21.85 L 24,23 q 0.75,-0.5 0.75,-1.15 L 24.6,21.3 24.15,21.15 q -0.35,0.15 -1.45,1 -1.2,0.75 -2.5,0.75 l -0.4,-0.1 -0.9,0.25 0.3,0.7 q 0.35,0.5 0.75,0.55 h 1.6 m -4.05,2.25 -0.1,-0.4 -0.9,-0.55 -0.25,0.1 q -0.3,0.15 -0.3,0.55 l 0.8,0.8 0.75,-0.5 M 14.15,22.05 14,21.65 12.1,20.9 q -0.7,-0.2 -0.7,-1.1 l 0.15,-0.8 0.1,-0.7 q -0.4,0.25 -0.85,1.25 -0.45,0.9 -0.45,1.4 0,0.45 0.55,1 0.8,0.75 2.05,0.75 l 1.2,-0.65 m 2.7,-4.7 L 17,17 q 0.05,-0.1 0.7,-0.45 l 0.15,0.25 h 0.1 l 0.05,0.45 -0.5,0.65 -1.3,0.75 0.3,0.65 0.95,0.15 1.1,-0.85 0.7,-1.15 Q 19.25,16 17.65,15.6 16,15.2 16,16.65 l 0.5,0.8 0.35,-0.1 M 7.75,7.8 Q 6.4,7.85 6,9.7 L 6.75,10.85 7.7,9.65 7.95,8.35 7.85,7.9 7.75,7.8 M 9.6,12 9.5,12.05 Q 7.6,11.9 7.1,12.8 6.9,13.15 6.9,14.5 L 7,16.55 q 0.6,1.6 2.95,1.6 l 0.8,-0.3 0.6,-0.5 L 9,15.85 Q 8.25,15.45 8.25,14.2 8.25,13.95 9,13.15 L 9.7,12.4 9.6,12 m 3.6,-0.7 -0.3,-0.95 q 0,-0.55 1.05,-0.75 l 0.95,0.9 q 0.05,0.3 0.6,0.45 0.7,-0.3 0.7,-1.1 0,-1.35 -2.2,-1.55 -2.25,-0.2 -2.25,1.9 0,0.4 0.15,0.6 l 0.95,0.75 0.35,-0.25 m 9.3,3.25 0.15,-0.75 Q 22.25,13.2 21,13.2 l -0.15,0.25 v 0.35 q 0,0.35 0.9,0.9 L 22.5,14.55 M 26.2,14.3 26,14.85 v 1.55 l -0.25,1.4 q 1.1,-0.25 1.35,-0.65 l 0.15,-1.3 -0.05,-1.1 Q 27,14 26.2,14.3 m -2.45,-4.1 q 0,-1.55 -1.9,-2.4 -1.9,-0.9 -1.9,0.6 l 0.1,0.45 h 0.4 Q 21.6,9 21.9,9.95 l 0.55,1.5 0.65,0.15 0.65,-0.3 v -1.1"
         fill="#fdfdfd"
         fill-rule="evenodd"
         stroke="none"
         id="path12" />
      <path
         d="m 21.55,24.3 h -1.6 q -0.4,-0.05 -0.75,-0.55 l -0.3,-0.7 0.9,-0.25 0.4,0.1 q 1.3,0 2.5,-0.75 1.1,-0.85 1.45,-1 l 0.45,0.15 0.15,0.55 Q 24.75,22.5 24,23 l -2.15,1.25 -0.1,0.05 h -0.2 m 2.2,-14.1 v 1.1 L 23.1,11.6 22.45,11.45 21.9,9.95 Q 21.6,9 20.45,8.85 h -0.4 L 19.95,8.4 q 0,-1.5 1.9,-0.6 1.9,0.85 1.9,2.4 m 2.45,4.1 q 0.8,-0.3 1,0.45 l 0.05,1.1 -0.15,1.3 q -0.25,0.4 -1.35,0.65 L 26,16.4 v -1.55 l 0.2,-0.55 m -3.7,0.25 -0.75,0.15 q -0.9,-0.55 -0.9,-0.9 V 13.45 L 21,13.2 q 1.25,0 1.65,0.6 L 22.5,14.55 M 13.2,11.3 12.85,11.55 11.9,10.8 q -0.15,-0.2 -0.15,-0.6 0,-2.1 2.25,-1.9 2.2,0.2 2.2,1.55 0,0.8 -0.7,1.1 Q 14.95,10.8 14.9,10.5 L 13.95,9.6 Q 12.9,9.8 12.9,10.35 l 0.3,0.95 M 9.6,12 9.7,12.4 9,13.15 q -0.75,0.8 -0.75,1.05 0,1.25 0.75,1.65 l 2.35,1.5 -0.6,0.5 -0.8,0.3 Q 7.6,18.15 7,16.55 L 6.9,14.5 q 0,-1.35 0.2,-1.7 0.5,-0.9 2.4,-0.75 L 9.6,12 M 7.75,7.8 7.85,7.9 7.95,8.35 7.7,9.65 6.75,10.85 6,9.7 Q 6.4,7.85 7.75,7.8 m 9.1,9.55 -0.35,0.1 -0.5,-0.8 q 0,-1.45 1.65,-1.05 1.6,0.4 1.6,1.85 l -0.7,1.15 -1.1,0.85 L 16.5,19.3 16.2,18.65 17.5,17.9 18,17.25 17.95,16.8 h -0.1 L 17.7,16.55 Q 17.05,16.9 17,17 l -0.15,0.35 m -2.7,4.7 -1.2,0.65 q -1.25,0 -2.05,-0.75 -0.55,-0.55 -0.55,-1 0,-0.5 0.45,-1.4 0.45,-1 0.85,-1.25 l -0.1,0.7 -0.15,0.8 q 0,0.9 0.7,1.1 l 1.9,0.75 0.15,0.4 m 3.35,4.5 -0.75,0.5 -0.8,-0.8 q 0,-0.4 0.3,-0.55 l 0.25,-0.1 0.9,0.55 0.1,0.4"
         fill="#e7e7e7"
         fill-rule="evenodd"
         stroke="none"
         id="path13" />
    </g>
    <g
       id="sprite1">
      <use
         ffdec:characterId="2978"
         height="38.25"
         width="38"
         xlink:href="#shape1"
         id="use13" />
    </g>
    <g
       id="shape1">
      <path
         d="m 21.15,11.85 -0.45,0.1 -1.3,0.1 0.2,4.6 -0.8,0.75 -8.15,0.05 L 10.3,18.6 10,18.65 Q 9.75,18.15 9.65,17.45 H 7.85 L 7.75,19.15 7.3,19.4 Q 6.85,19.05 6.7,17.9 V 17.45 H 4 l -0.25,1.7 q 0.3,3.3 2.1,6.9 2.65,5.4 7.55,7.05 L 13.25,32.05 11.95,31.7 Q 12.55,31 13.2,30.65 V 30.6 L 10.9,30.4 10.6,30.65 9.45,30.6 9.25,29.95 v -5.2 Q 9.4,22.7 9.9,21.15 L 9.8,21 v -0.65 l 0.05,-0.4 q 0.1,-0.35 0.75,-0.6 l 4,0.05 q 0.1,-0.95 0.5,-1.3 l 0.55,1.3 h 0.95 q 0.05,-1.15 0.6,-1.55 l 0.55,1.55 h 2.95 l 0.05,0.05 0.35,-0.35 0.7,0.5 v 3.9 l 2.4,-1.7 q -0.5,-1 -0.6,-1.8 0.9,-0.45 1.7,1.05 l 0.95,-0.6 -0.5,-0.85 q 0,-0.85 0.55,-0.85 -0.05,0.6 0.65,1.25 l 2.8,-1.65 0.05,-1.4 h 0.4 l 0.2,1 1.1,-0.65 -0.15,-0.55 0.05,-0.4 0.4,0.05 0.3,0.6 1.55,-0.9 -1.55,-3.9 Q 28.3,4.45 19.75,4.45 h -0.5 l 0.2,1.6 -0.05,1.8 0.95,0.1 0.1,0.05 0.05,0.4 q 0,0.55 -0.4,0.7 l -0.75,0.05 v 0.5 l 0.05,1.1 h 1.3 l 0.4,0.1 q 0.2,0.1 0.2,0.5 l -0.15,0.5 M 21.8,24.4 v 4.85 l 0.1,0.1 0.05,0.4 -0.85,0.85 h -5.95 l 1.4,0.9 q -0.15,0.75 -1.45,0.75 l -0.75,-0.05 -0.05,1.15 3.85,0.45 h 0.65 0.95 q 8.55,0 12.35,-7.75 1.8,-3.6 2.1,-6.9 l -0.2,-1.6 -1.3,0.95 0.1,0.45 -0.1,0.4 -0.45,-0.6 -1.7,1.05 v 1.45 l -0.05,0.2 -0.4,0.05 -0.5,-0.1 0.05,-1.1 -1.35,0.75 1.8,1.4 -0.1,0.3 -0.45,0.1 q -1.3,0 -2.4,-1.15 L 25.85,22.35 26.35,24 26,24.4 24.85,22.85 21.8,24.4 M 38,18.75 v 0.2 0.55 h -0.05 q -0.25,2.85 -1.1,5.5 -0.65,2.05 -1.7,3.95 -4.85,8.9 -16.05,9.3 H 18.8 Q 7.6,37.85 2.75,28.95 0.35,24.5 0,19.5 v -0.15 -0.6 h 0.05 q 0.3,-5 2.7,-9.45 4.5,-8.25 14.5,-9.2 L 18.8,0 h 0.3 l 1.6,0.1 q 9.95,0.95 14.45,9.2 1.05,1.9 1.7,3.95 0.85,2.65 1.1,5.5 H 38 M 18.15,4.45 q -8.5,0 -12.3,7.75 -0.9,1.8 -1.4,3.55 h 2.3 Q 6.85,14.8 7.3,14.5 l 0.5,1.25 h 1.8 q 0.05,-0.9 0.5,-1.25 l 0.55,1.25 7.45,-0.05 0.05,-3.55 -0.55,0.05 -0.75,-0.05 q -0.15,0.1 -0.15,-0.55 0,-0.6 1.5,-0.8 V 9.15 L 16.75,9 15.85,8.5 q 0.35,-0.3 1.7,-0.55 l 0.65,-0.1 0.05,-3.4 h -0.1 m -7.05,16.7 0.2,3.9 -0.05,2.9 -0.05,1.2 L 13.25,29 20.5,28.9 20,23.45 q -0.2,-1.7 0.15,-2.85 l -2.2,0.05 0.05,0.85 -0.05,0.4 -0.4,0.35 q -0.75,-0.4 -0.9,-1.2 V 20.7 H 15.7 q -0.05,1.6 -0.6,2.2 -0.55,-0.65 -0.6,-2.15 l -3.4,0.4"
         fill="#6b6b6b"
         fill-rule="evenodd"
         stroke="none"
         id="path14" />
      <path
         d="m 18.15,4.45 h 0.1 l -0.05,3.4 -0.65,0.1 Q 16.2,8.2 15.85,8.5 l 0.9,0.5 1.45,0.15 v 1.65 q -1.5,0.2 -1.5,0.8 0,0.65 0.15,0.55 L 17.6,12.2 18.15,12.15 18.1,15.7 10.65,15.75 10.1,14.5 Q 9.65,14.85 9.6,15.75 H 7.8 L 7.3,14.5 Q 6.85,14.8 6.75,15.75 H 4.45 Q 4.95,14 5.85,12.2 9.65,4.45 18.15,4.45"
         fill="#a697a9"
         fill-rule="evenodd"
         stroke="none"
         id="path15" />
      <path
         d="m 21.8,24.4 3.05,-1.55 1.15,1.55 0.35,-0.4 -0.5,-1.65 1.3,-0.65 q 1.1,1.15 2.4,1.15 l 0.45,-0.1 0.1,-0.3 -1.8,-1.4 1.35,-0.75 -0.05,1.1 0.5,0.1 0.4,-0.05 0.05,-0.2 V 19.8 l 1.7,-1.05 0.45,0.6 0.1,-0.4 -0.1,-0.45 1.3,-0.95 0.2,1.6 q -0.3,3.3 -2.1,6.9 -3.8,7.75 -12.35,7.75 H 18.8 18.15 l -3.85,-0.45 0.05,-1.15 0.75,0.05 q 1.3,0 1.45,-0.75 l -1.4,-0.9 h 5.95 l 0.85,-0.85 -0.05,-0.4 -0.1,-0.1 V 24.4"
         fill="#a99797"
         fill-rule="evenodd"
         stroke="none"
         id="path16" />
      <path
         d="m 11.1,21.15 3.4,-0.4 q 0.05,1.5 0.6,2.15 0.55,-0.6 0.6,-2.2 h 0.95 v 0.35 q 0.15,0.8 0.9,1.2 L 17.95,21.9 18,21.5 17.95,20.65 20.15,20.6 Q 19.8,21.75 20,23.45 l 0.5,5.45 -7.25,0.1 -2.05,0.15 0.05,-1.2 0.05,-2.9 -0.2,-3.9"
         fill="#97a2a9"
         fill-rule="evenodd"
         stroke="none"
         id="path17" />
      <path
         d="m 21.15,11.85 0.15,-0.5 q 0,-0.4 -0.2,-0.5 l -0.4,-0.1 H 19.4 L 19.35,9.65 V 9.15 L 20.1,9.1 Q 20.5,8.95 20.5,8.4 L 20.45,8 20.35,7.95 19.4,7.85 l 0.05,-1.8 -0.2,-1.6 h 0.5 q 8.55,0 12.35,7.75 l 1.55,3.9 -1.55,0.9 -0.3,-0.6 -0.4,-0.05 -0.05,0.4 0.15,0.55 -1.1,0.65 -0.2,-1 h -0.4 l -0.05,1.4 -2.8,1.65 q -0.7,-0.65 -0.65,-1.25 -0.55,0 -0.55,0.85 l 0.5,0.85 -0.95,0.6 q -0.8,-1.5 -1.7,-1.05 0.1,0.8 0.6,1.8 l -2.4,1.7 V 19.6 L 21.1,19.1 20.75,19.45 20.7,19.4 H 17.75 L 17.2,17.85 q -0.55,0.4 -0.6,1.55 H 15.65 L 15.1,18.1 q -0.4,0.35 -0.5,1.3 l -4,-0.05 Q 9.95,19.6 9.85,19.95 L 9.8,20.35 V 21 l 0.1,0.15 q -0.5,1.55 -0.65,3.6 v 5.2 l 0.2,0.65 1.15,0.05 0.3,-0.25 2.3,0.2 v 0.05 Q 12.55,31 11.95,31.7 l 1.3,0.35 0.15,1.05 Q 8.5,31.45 5.85,26.05 4.05,22.45 3.75,19.15 L 4,17.45 h 2.7 v 0.45 q 0.15,1.15 0.6,1.5 l 0.45,-0.25 0.1,-1.7 h 1.8 q 0.1,0.7 0.35,1.2 l 0.3,-0.05 0.35,-1.15 8.15,-0.05 0.8,-0.75 -0.2,-4.6 1.3,-0.1 0.45,-0.1"
         fill="#a99f97"
         fill-rule="evenodd"
         stroke="none"
         id="path18" />
    </g>
    <g
       id="sprite2"
       transform="translate(5.4,4)">
      <use
         ffdec:characterId="43"
         height="8"
         transform="translate(-5.4,-4)"
         width="10.8"
         xlink:href="#shape2"
         id="use18" />
    </g>
    <g
       id="shape2"
       transform="translate(5.4,4)">
      <path
         d="m 2.9,-0.35 q 0,-1.25 1.25,-1.25 1.25,0 1.25,1.2 0,1.3 -1.25,1.3 Q 3.6,0.9 3.25,0.5 2.9,0.15 2.9,-0.35 m 0.35,-2.3 q 0,0.55 -0.35,0.9 -0.4,0.45 -1,0.45 -1.35,0 -1.35,-1.4 0,-1.3 1.35,-1.3 1.35,0 1.35,1.35 m -3.1,1.9 h 0.2 q 2.6,0.1 2.6,2.8 l -0.3,1 Q 2.05,4 0.45,4 H 0.35 0.15 0.1 -0.45 q -1.6,0 -2.2,-0.95 l -0.3,-1 q 0,-2.8 2.8,-2.8 h 0.3 M -1.55,-4 q 1.35,0 1.35,1.35 0,0.55 -0.4,0.9 -0.4,0.45 -0.95,0.45 -1.4,0 -1.4,-1.4 0,-1.3 1.4,-1.3 m -2.6,2.4 q 1.25,0 1.25,1.25 0,0.5 -0.35,0.85 -0.35,0.4 -0.9,0.4 -1.25,0 -1.25,-1.3 0,-1.2 1.25,-1.2"
         fill="#6b6b6b"
         fill-rule="evenodd"
         stroke="none"
         id="path19" />
    </g>
    <g
       id="sprite3">
      <use
         ffdec:characterId="2980"
         height="9.75"
         width="9.4499998"
         xlink:href="#shape3"
         id="use19" />
    </g>
    <g
       id="shape3">
      <path
         d="m 8.6,1.9 q 0.85,1.15 0.85,2.7 0,1.7 -0.4,2.7 -0.95,2.45 -3.9,2.45 -2.9,0 -4.3,-2.1 L 0,5.45 Q 0,3.2 0.8,1.9 1.95,0.05 4.75,0 L 5.5,0.05 6.35,0.25 Q 7.2,0.55 7.95,1.2 L 8.6,1.9 M 5.75,2.4 H 4.6 Q 3.25,2.5 2.55,3.05 1.75,3.6 1.75,4.7 l 0.05,0.45 0.05,0.1 q 0.1,0.6 0.6,1.2 Q 3.4,7.65 5,7.65 6.7,7.65 7.25,6 l 0.2,-1.7 q 0,-1.7 -1.7,-1.9 M 5.3,3.75 V 3.7 Q 5.3,3.25 5.65,3.2 L 6.35,3.25 6.5,3.7 6.4,4.2 5.9,4.35 5.3,3.75 M 5.45,6.15 5,6.05 4.9,5.65 Q 4.9,4.9 5.85,5.15 L 5.95,5.1 6.05,5.4 V 5.55 L 5.95,6 5.45,6.15 M 4.05,4.5 Q 3.6,4.5 3.5,4.2 V 3.85 Q 3.5,3.45 3.75,3.25 4.05,3 4.6,3.85 L 4.55,4.25 4.45,4.4 4.05,4.5 M 3.5,4.95 3.85,4.85 Q 4.2,4.95 4.35,5.4 L 3.85,5.9 3.45,5.8 3.35,5.35 q 0,-0.3 0.15,-0.4"
         fill="#6b6b6b"
         fill-rule="evenodd"
         stroke="none"
         id="path20" />
      <path
         d="M 5.75,2.4 V 2.65 L 5.65,3.2 Q 5.3,3.25 5.3,3.7 V 3.75 L 4.8,4.2 Q 3.65,5.15 1.85,5.15 H 1.8 L 1.75,4.7 Q 1.75,3.6 2.55,3.05 3.25,2.5 4.6,2.4 H 5.75 M 4.05,4.5 4.45,4.4 4.55,4.25 4.6,3.85 Q 4.05,3 3.75,3.25 3.5,3.45 3.5,3.85 V 4.2 q 0.1,0.3 0.55,0.3"
         fill="#e7e7e7"
         fill-rule="evenodd"
         stroke="none"
         id="path21" />
      <path
         d="M 5.65,3.2 5.75,2.65 V 2.4 q 1.7,0.2 1.7,1.9 L 7.25,6 Q 6.7,7.65 5,7.65 3.4,7.65 2.45,6.45 1.95,5.85 1.85,5.25 v -0.1 q 1.8,0 2.95,-0.95 L 5.3,3.75 5.9,4.35 6.4,4.2 6.5,3.7 6.35,3.25 5.65,3.2 M 5.45,6.15 5.95,6 6.05,5.55 V 5.4 L 5.95,5.1 5.85,5.15 Q 4.9,4.9 4.9,5.65 L 5,6.05 5.45,6.15 M 3.5,4.95 q -0.15,0.1 -0.15,0.4 l 0.1,0.45 0.4,0.1 0.5,-0.5 Q 4.2,4.95 3.85,4.85 L 3.5,4.95"
         fill="#d7d7d7"
         fill-rule="evenodd"
         stroke="none"
         id="path22" />
    </g>
    <g
       id="sprite4">
      <use
         ffdec:characterId="408"
         height="10"
         width="31.85"
         xlink:href="#shape4"
         id="use22" />
    </g>
    <g
       id="shape4">
      <path
         d="M 27.5,5.95 23.2,5.55 Q 22.4,5.55 20.45,7.8 18.5,10 17.5,10 16.15,10 15.9,9.25 V 8.45 L 16,7.35 q 0.15,-0.55 0.95,-1.2 0,-0.4 -0.4,-0.4 -2.9,0 -4.7,0.9 l -2.1,0.9 Q 8.7,7.55 8.4,6.75 L 8.35,5.85 Q 8.35,4.45 10,3.8 L 2.25,4.65 Q 0.55,4.65 0.1,4.1 L 0,3.4 Q 0,2.15 1.35,1.2 3.1,0 6.45,0 q 3.8,0 5.65,1.35 l 1.75,1.8 -0.25,0.3 q -0.65,-0.2 -2.5,-1.7 -1.05,-0.8 -4.65,-0.8 -2.85,0 -4.3,1 L 1,3.25 1.5,3.45 2.35,3.55 9.3,2.7 q 3.5,0 3.5,1.25 0,0.3 -1.75,0.6 Q 9.3,4.85 9.3,5.85 L 9.35,6.55 11.8,5.7 q 2.1,-0.95 4.8,-0.95 0.75,0 1.6,0.6 L 18.95,6 q 0,0.5 -0.65,0.8 -0.85,0.35 -1.4,1.25 V 8.9 h 1.05 q 0.9,-1.4 1.85,-2.4 1.85,-1.95 4.35,-1.95 2.2,0 4.7,0.9 l 3,1.1 L 29.65,6.3 27.5,5.95"
         fill="#6b6b6b"
         fill-rule="evenodd"
         stroke="none"
         id="path23" />
    </g>
    <g
       id="sprite5">
      <use
         ffdec:characterId="352"
         height="9.5500002"
         width="9.5"
         xlink:href="#shape5"
         id="use23" />
    </g>
    <g
       id="shape5">
      <path
         d="M 5.7,2.45 5.75,2.95 5.7,3.2 H 5.45 Q 4.9,3.3 4.9,3.9 V 4.15 L 4.7,4.3 4.45,4.5 3.85,4.35 Q 3,4.35 3,5.15 2.3,5.15 2.1,4.75 V 4.5 Q 2.1,4.1 2.5,3.45 L 2.7,3.15 3.85,2.4 5.7,2.45"
         fill="#e7e7e7"
         fill-rule="evenodd"
         stroke="none"
         id="path24" />
      <path
         d="M 5.7,3.2 5.75,2.95 5.7,2.45 Q 6.65,2.65 7.1,3.2 7.4,3.6 7.4,4.55 L 7.15,6 5.85,7.35 4,7.4 Q 2.6,7.4 2.2,6.05 L 2.1,4.75 Q 2.3,5.15 3,5.15 L 3.05,5.5 Q 3.25,6 3.85,6 4.7,6 4.7,5.2 L 4.45,4.5 4.7,4.3 4.9,4.15 Q 5,4.7 5.9,4.7 L 6.45,4.6 6.55,3.95 Q 6.15,3.2 5.7,3.2 M 3.85,2.4 2.7,3.15 3.7,2.4 h 0.15"
         fill="#989898"
         fill-rule="evenodd"
         stroke="none"
         id="path25" />
      <path
         d="M 5.7,2.45 3.85,2.4 H 3.7 l -1,0.75 -0.2,0.3 Q 2.1,4.1 2.1,4.5 v 0.25 l 0.1,1.3 Q 2.6,7.4 4,7.4 L 5.85,7.35 7.15,6 7.4,4.55 Q 7.4,3.6 7.1,3.2 6.65,2.65 5.7,2.45 M 3,5.15 Q 3,4.35 3.85,4.35 L 4.45,4.5 4.7,5.2 Q 4.7,6 3.85,6 3.25,6 3.05,5.5 L 3,5.15 m 1.9,-1 V 3.9 Q 4.9,3.3 5.45,3.2 H 5.7 q 0.45,0 0.85,0.75 L 6.45,4.6 5.9,4.7 Q 5,4.7 4.9,4.15 m 4.6,1.5 Q 9.5,6.5 8.55,7.75 7.2,9.55 4.95,9.55 1.65,9.55 0.5,7.6 L 0,5.65 Q 0,3.5 1.05,2.05 L 1.5,1.5 2.4,0.75 Q 3.45,0.05 4.75,0 6.7,-0.05 8,1.35 9.5,2.9 9.5,5.65"
         fill="#6b6b6b"
         fill-rule="evenodd"
         stroke="none"
         id="path26" />
    </g>
    <g
       id="sprite6">
      <use
         ffdec:characterId="354"
         height="10.8"
         width="11.25"
         xlink:href="#shape6"
         id="use26" />
    </g>
    <g
       id="shape6">
      <path
         d="M 10.45,8.4 Q 9.1,10.8 5.85,10.8 2.8,10.8 1.1,9 0,7.8 0,7 0,3.5 1.75,1.6 3.3,-0.05 5.65,0 q 2.2,0.05 3.85,1.55 1.75,1.6 1.75,4 0,1.5 -0.8,2.85 M 6.35,2.2 5.5,2 4.95,1.95 3.4,2.05 2.6,2.55 Q 2,3.15 1.9,4.2 V 4.4 L 1.85,4.9 q 0,1.4 0.3,1.9 0.6,1.05 2.9,1.7 H 6.6 Q 7.55,8.15 8.35,7.15 9.1,6.25 9.1,5.65 9.1,3.05 6.35,2.2 M 3.5,4.6 3.45,4.35 q 0,-0.8 0.85,-0.75 0.5,0.05 0.75,0.3 l 0.1,0.4 q 0,0.85 -0.9,0.85 -0.7,0 -0.75,-0.55 M 5.8,4.35 q 0,-0.8 0.9,-0.8 0.85,0 0.85,0.8 0,0.4 -0.4,0.65 L 6.65,5.2 5.85,4.7 5.8,4.35 M 4.05,6.5 4.15,6.1 5.1,6.05 l 0.15,0.5 -0.1,0.5 -0.1,0.1 -0.4,0.05 q -0.6,0 -0.6,-0.7 m 2.15,0 Q 6.2,5.85 7.25,6.05 L 7.4,6.55 7.3,7.05 7.2,7.15 6.8,7.2 Q 6.2,7.2 6.2,6.5"
         fill="#6b6b6b"
         fill-rule="evenodd"
         stroke="none"
         id="path27" />
      <path
         d="M 1.9,4.4 V 4.2 Q 2,3.15 2.6,2.55 L 3.4,2.05 4.95,1.95 5.5,2 6.35,2.2 V 2.35 Q 6.35,3 5.15,3.8 L 5.05,3.9 Q 4.8,3.65 4.3,3.6 3.45,3.55 3.45,4.35 L 3.5,4.6 2.8,4.65 1.9,4.4"
         fill="#e7e7e7"
         fill-rule="evenodd"
         stroke="none"
         id="path28" />
      <path
         d="M 1.9,4.4 2.8,4.65 3.5,4.6 q 0.05,0.55 0.75,0.55 0.9,0 0.9,-0.85 L 5.05,3.9 5.15,3.8 Q 6.35,3 6.35,2.35 V 2.2 q 2.75,0.85 2.75,3.45 0,0.6 -0.75,1.5 -0.8,1 -1.75,1.35 H 5.05 Q 2.75,7.85 2.15,6.8 1.85,6.3 1.85,4.9 L 1.9,4.4 m 4.3,2.1 q 0,0.7 0.6,0.7 L 7.2,7.15 7.3,7.05 7.4,6.55 7.25,6.05 Q 6.2,5.85 6.2,6.5 m -2.15,0 q 0,0.7 0.6,0.7 L 5.05,7.15 5.15,7.05 5.25,6.55 5.1,6.05 4.15,6.1 4.05,6.5 M 5.8,4.35 5.85,4.7 6.65,5.2 7.15,5 q 0.4,-0.25 0.4,-0.65 0,-0.8 -0.85,-0.8 -0.9,0 -0.9,0.8"
         fill="#b6b6b6"
         fill-rule="evenodd"
         stroke="none"
         id="path29" />
    </g>
    <g
       id="sprite7"
       transform="translate(11.3,11.7)">
      <use
         ffdec:characterId="2986"
         height="20.450001"
         transform="matrix(0.8347,-0.7659,0.6311,0.5791,-8.5,-4)"
         width="4.9499998"
         xlink:href="#sprite8"
         id="use29" />
    </g>
    <g
       id="sprite8">
      <use
         ffdec:characterId="414"
         height="20.450001"
         width="4.9499998"
         xlink:href="#shape7"
         id="use30" />
    </g>
    <g
       id="shape7">
      <path
         d="M 4.5,1.85 3.25,2 3.3,16.9 3.25,18.8 q -0.15,1.65 -0.75,1.65 -1,0 -0.85,-3.55 L 1.7,1.95 0.25,1.65 Q 0,1.5 0,1 0,0.05 2.5,0 q 2.45,-0.05 2.45,1.05 0,0.6 -0.45,0.8"
         fill="#818181"
         fill-rule="evenodd"
         stroke="none"
         id="path30" />
    </g>
    <g
       id="sprite9"
       transform="translate(21.2,30.2)">
      <use
         ffdec:characterId="2983"
         height="21.9"
         transform="matrix(1.1804,0,0,1.0832,-1.75,-11.85)"
         width="2.95"
         xlink:href="#sprite10"
         id="use31" />
    </g>
    <g
       id="sprite10">
      <use
         ffdec:characterId="379"
         height="21.9"
         width="2.95"
         xlink:href="#shape8"
         id="use32" />
    </g>
    <g
       id="shape8">
      <path
         d="M 1.6,1.15 Q 0.9,1.6 0.9,2.75 0.9,3.95 1.6,4 2,3.2 2,2.5 2,1.8 1.6,1.15 M 0.75,5.2 Q 0.3,4.85 0.1,4 L 0,2.55 Q 0,-0.05 1.5,0 q 1.45,0.05 1.45,2.45 0,2.45 -1.1,2.9 L 2,5.8 1.9,6.15 v 15.1 L 1.45,21.9 0.8,21.25 V 6.3 L 0.7,5.85 0.75,5.2"
         fill="#818181"
         fill-rule="evenodd"
         stroke="none"
         id="path32" />
    </g>
  </defs>
</svg>
