<?xml version="1.0" encoding="UTF-8" standalone="no"?>
<svg
   ffdec:objectType="frame"
   height="67.816223"
   width="74.599998"
   version="1.1"
   id="svg32"
   sodipodi:docname="2.svg"
   xmlns:inkscape="http://www.inkscape.org/namespaces/inkscape"
   xmlns:sodipodi="http://sodipodi.sourceforge.net/DTD/sodipodi-0.dtd"
   xmlns:xlink="http://www.w3.org/1999/xlink"
   xmlns="http://www.w3.org/2000/svg"
   xmlns:svg="http://www.w3.org/2000/svg"
   xmlns:ffdec="https://www.free-decompiler.com/flash">
  <sodipodi:namedview
     id="namedview32"
     pagecolor="#ffffff"
     bordercolor="#000000"
     borderopacity="0.25"
     inkscape:showpageshadow="2"
     inkscape:pageopacity="0.0"
     inkscape:pagecheckerboard="0"
     inkscape:deskcolor="#d1d1d1"
     fit-margin-top="5"
     fit-margin-left="5"
     fit-margin-right="5"
     fit-margin-bottom="5" />
  <g
     transform="translate(35.15,40.75)"
     id="g14">
    <use
       ffdec:characterId="269"
       height="62.650002"
       transform="translate(-35.15,-36.05)"
       width="61.049999"
       xlink:href="#shape0"
       id="use1" />
    <use
       ffdec:characterId="242"
       height="16.85"
       transform="matrix(0.9994,0.0343,-0.0343,0.9994,-34.4068,-28.0865)"
       width="11.15"
       xlink:href="#sprite0"
       id="use2" />
    <use
       ffdec:characterId="262"
       height="52.75"
       transform="matrix(-1.1312,0,0,-0.6725,31.15,1.5)"
       width="7.5999999"
       xlink:href="#sprite2"
       id="use3" />
    <use
       ffdec:characterId="262"
       height="52.75"
       transform="matrix(-1.1312,0,0,-0.6725,-16.05,1.5)"
       width="7.5999999"
       xlink:href="#sprite2"
       id="use4" />
    <use
       ffdec:characterId="263"
       height="53.5"
       transform="matrix(0,0.7533,-0.7533,0,23.4,5.05)"
       width="18.700001"
       xlink:href="#sprite3"
       id="use5" />
    <use
       ffdec:characterId="262"
       height="52.75"
       transform="matrix(0,1.1312,-1.0687,0,31.35,-30)"
       width="7.5999999"
       xlink:href="#sprite4"
       id="use6" />
    <use
       ffdec:characterId="265"
       height="16.15"
       transform="translate(-33.15,-40.75)"
       width="40.75"
       xlink:href="#sprite5"
       id="use7" />
    <use
       ffdec:characterId="267"
       height="44.25"
       transform="matrix(-0.9299,0,0,0.7337,33.7,-5.4)"
       width="16.799999"
       xlink:href="#sprite6"
       id="use8" />
    <use
       ffdec:characterId="265"
       height="16.15"
       transform="matrix(-1,0,0,1,39.45,-40.75)"
       width="40.75"
       xlink:href="#sprite5"
       id="use9" />
    <use
       ffdec:characterId="268"
       height="12.8"
       transform="translate(-10.6,-40.75)"
       width="27.049999"
       xlink:href="#sprite7"
       id="use10" />
    <use
       ffdec:characterId="267"
       height="44.25"
       transform="matrix(0.9299,0,0,0.7337,-26.9,-5.4)"
       width="16.799999"
       xlink:href="#sprite6"
       id="use11" />
    <use
       ffdec:characterId="262"
       height="52.75"
       transform="matrix(0,1.1312,-1.0687,0,31.35,-11.7)"
       width="7.5999999"
       xlink:href="#sprite4"
       id="use12" />
    <use
       ffdec:characterId="71"
       height="8.9499998"
       transform="matrix(0.8477,0,0,0.8477,-3.75,-20.2)"
       width="15.2"
       xlink:href="#sprite8"
       id="use13" />
    <use
       ffdec:characterId="44"
       height="8"
       transform="matrix(1.4875,0,0,1.4875,-5.1324,-2.75)"
       width="10.8"
       xlink:href="#sprite9"
       id="use14" />
  </g>
  <defs
     id="defs32">
    <g
       id="shape0"
       transform="translate(35.15,36.05)">
      <path
         d="m -18.7,5.35 0.35,-0.25 0.45,-0.35 q 2,-3.25 3.5,-5.15 v 1.95 l -0.9,1.75 -0.1,0.8 q -0.05,1.55 0.25,2.55 l 0.75,2.7 0.7,2.1 0.3,0.75 0.15,0.3 q 1.1,2.45 2.4,3.7 l 4.85,0.9 -0.15,0.15 q -0.15,0.15 -0.45,0.2 -1.15,0.3 -3.7,0 L -11,17.35 -12.9,17 q -0.2,0.3 -1.75,1.25 -1.5,1.1 -1.95,1.7 l -0.75,1.45 -0.45,0.95 2.25,4.25 h -0.65 l -2.25,-3.4 -3.15,-0.6 q -4,-0.45 -8.35,0.6 L -30,23.45 h -0.3 l -2.85,3.15 h -0.65 l 2.9,-3.55 -0.05,-0.05 0.3,-0.6 0.3,-2.55 q 0.5,-3.4 0.45,-4.6 l -0.7,-3.9 -0.25,-1.9 -4.3,-3.8 q 1.3,0.05 3.15,1.5 l 1.05,0.95 0.05,-0.05 0.3,0.3 0.3,0.05 q 2.85,-0.75 4.15,-1.5 l 1,-1.2 0.3,-0.35 -0.85,-7.2 0.2,-0.05 0.4,0.8 1.15,5.85 0.3,0.1 -0.15,0.3 0.8,0.4 3.05,0.25 1.25,-0.45 m -0.3,0.9 q -2.4,0.65 -4.25,0 l -0.5,-0.25 0.15,0.65 1,0.7 q 1,0.85 2.6,1 L -18.75,6.2 -19,6.25 m -0.9,4.95 v 0.25 1.3 l 0.45,0.9 1.05,0.9 -0.05,0.15 2.2,0.9 0.4,0.05 -1.6,-2.75 -1.15,-3.2 V 9.4 l -1.3,1.8 m 2.6,0.25 v 0.2 l 0.95,2.2 1.45,1.8 2.55,0.3 -0.9,-1.6 -0.7,-1.85 -0.4,-1.05 -0.05,-0.15 -0.25,-0.65 q -1.1,-4.1 -1.25,-6.35 l -1.35,2.6 -0.5,1 0.05,0.3 0.4,3.25 m 2.5,5.15 -3.45,-0.75 -1.45,3.05 1.2,2.25 0.15,0.3 q 0.45,-1 1.7,-2.5 1.45,-1.8 2.6,-2.15 l -0.75,-0.2 m -5.3,0.4 0.85,-1.35 -2.45,-0.55 0.25,0.55 1.1,1.95 0.25,-0.6 m -6.95,2.55 -0.75,0.9 -1.25,1.55 7.7,-0.5 1.3,0.1 0.7,0.25 -0.8,-1.35 -0.2,-0.35 h -0.05 l -0.3,0.05 -0.2,-0.3 v -0.05 l -1.15,-0.65 -4.8,0.3 -0.2,0.05 m 1.2,-12.3 -0.4,0.25 q -1.3,0.9 -3.65,1.55 l 0.6,0.55 2.85,2.2 h 0.05 q 1.1,-0.3 1.6,-1.2 l 0.6,-0.8 -0.4,-2.95 -0.05,-0.4 Q -25,6.7 -25.45,6.8 l -0.4,0.45 m 2.5,0.8 0.6,3.3 1.2,-0.4 0.1,-0.1 1,-1.75 q -1.5,0.1 -2.65,-0.8 l -0.25,-0.25 m -0.95,3 q -0.55,0.8 -1.45,1.2 l 0.35,0.2 1.8,1 -0.45,-2.8 -0.25,0.4 m 1.7,0.95 0.1,0.9 0.6,-1.1 -0.7,0.2 m -5.25,0.4 q 0.95,1.75 1.35,3.15 l 0.2,1.4 0.05,0.1 0.3,-0.45 1.9,-2.05 -4.1,-2.7 0.3,0.55 m 1.1,3.6 Q -27,15.15 -28.3,13.05 l -1.1,-1.7 q 0.7,2.85 0.6,5.45 0,1.95 -0.6,4.4 l 0.9,-1.25 1.55,-2 0.2,-1.95 m 3.4,-1.15 -2.85,3.7 3.65,-0.2 1.55,0.65 -2.35,-4.15 m 2.85,-1.95 -0.15,-0.55 -1.35,1.6 1.9,0.05 -0.4,-1.1"
         fill="#9a9a9a"
         fill-rule="evenodd"
         stroke="none"
         id="path14" />
      <path
         d="m -18.7,5.35 v -10.2 l 1.3,-3.7 Q -17.7,-8.9 -18,-8.9 l -0.7,1.2 v -28.35 h 44.6 v 47.5 h -39.6 l -0.7,-2.1 -0.75,-2.7 q -0.3,-1 -0.25,-2.55 l 0.1,-0.8 0.9,-1.75 V -0.4 q -1.5,1.9 -3.5,5.15 l -0.45,0.35 -0.35,0.25 m 0.45,6.75 h -0.45 v -1.2 l 0.45,1.2 m 0.95,-0.65 -0.4,-3.25 -0.05,-0.3 0.5,-1 1.35,-2.6 q 0.15,2.25 1.25,6.35 l 0.25,0.65 0.05,0.15 h -2.95"
         fill="#727272"
         fill-rule="evenodd"
         stroke="none"
         id="path15" />
    </g>
    <g
       id="sprite0"
       transform="translate(5.6,8.45)">
      <use
         ffdec:characterId="233"
         height="13"
         transform="translate(-0.45,-8.45)"
         width="0.89999998"
         xlink:href="#shape1"
         id="use15" />
      <use
         ffdec:characterId="61"
         height="8.9499998"
         transform="matrix(0.7341,0,0,0.7341,-5.6,1.85)"
         width="15.2"
         xlink:href="#sprite1"
         id="use16" />
    </g>
    <g
       id="shape1"
       transform="translate(0.45,8.45)">
      <path
         d="M 0.4,-7.9 V 2.3 l 0.05,0.15 q 0,2.1 -0.45,2.1 -0.45,0 -0.45,-2.05 L -0.4,2.25 v -10.2 l 0.45,-0.5 0.35,0.55"
         fill="#9a9a9a"
         fill-rule="evenodd"
         stroke="none"
         id="path16" />
    </g>
    <g
       id="sprite1">
      <use
         ffdec:characterId="60"
         height="8.9499998"
         width="15.2"
         xlink:href="#shape2"
         id="use17" />
    </g>
    <g
       id="shape2">
      <path
         d="M 13.2,2.05 H 13 L 12.5,2.2 q -0.4,0 -0.75,-0.35 -0.4,-0.4 -0.75,-0.4 -0.6,0 -1.15,0.4 0.5,0.45 0.7,1.25 l 2.3,0.15 q 2.35,0.9 2.35,2.4 L 15.05,6.35 14.6,6.75 13.5,5.6 q -0.75,-0.85 -2.05,-0.85 -0.35,0 -0.65,0.3 l -0.1,0.6 0.25,0.1 q 1.45,0.6 1.45,1.2 v 1.1 q -0.2,0.9 -0.9,0.9 L 11.05,8.9 11.15,8.8 11,8.5 Q 11.6,7 10.2,6.65 H 10.15 Q 9.45,7.25 8.05,7.3 H 7.8 7.6 7.4 7.15 Q 6,7.15 5.3,6.6 L 5,6.65 Q 3.6,7 4.2,8.5 L 4.05,8.8 4.15,8.9 3.7,8.95 Q 3,8.95 2.8,8.05 v -1.1 q 0,-0.6 1.45,-1.2 L 4.7,5.6 4.65,5.2 4.55,5.15 Q 4.15,4.75 3.75,4.75 2.45,4.75 1.7,5.6 L 0.6,6.75 0.15,6.35 Q 0,6.15 0,5.65 0,4.15 2.35,3.25 L 4.65,3.1 Q 4.85,2.3 5.35,1.85 4.8,1.45 4.2,1.45 3.85,1.45 3.45,1.85 L 2.7,2.2 Q 1.95,2.2 2.2,2.05 H 2 L 1.95,1.55 q 0,-1.9 2.65,-1.45 1.5,0.3 2.35,1.15 h 0.6 0.1 0.6 Q 9.1,0.4 10.6,0.1 q 2.65,-0.45 2.65,1.45 l -0.05,0.5"
         fill="#9a9a9a"
         fill-rule="evenodd"
         stroke="none"
         id="path17" />
    </g>
    <g
       id="sprite2">
      <use
         ffdec:characterId="21"
         height="52.75"
         width="7.5999999"
         xlink:href="#shape3"
         id="use18" />
    </g>
    <g
       id="shape3">
      <path
         d="M 7.6,1.45 7.55,2.95 V 20.3 H 7.6 q 0.05,1.05 -0.3,2.1 L 7.1,22.85 Q 6.6,24.5 6.7,26.3 v 0.15 q -0.1,1.8 0.4,3.45 l 0.2,0.45 q 0.35,1.05 0.3,2.1 H 7.55 V 49.8 L 7.6,51.3 Q 7.4,52.55 6.35,52.55 H 6.3 l -1.6,0.2 -4.15,-0.5 Q 0.25,52.1 0.2,51.55 L 0,50.75 0.05,50.25 v -17.8 q 1.15,-3.05 1,-6.15 0.1,-3 -1,-6 V 2.5 L 0,2 0.2,1.2 Q 0.25,0.65 0.55,0.5 L 4.7,0 6.3,0.2 H 6.35 Q 7.4,0.2 7.6,1.45 M 4.8,10.5 2.6,10.45 V 11.5 H 4.1 L 4.8,11.45 V 10.5 M 3.6,2.75 2.6,2.65 V 9 H 4.8 V 8.75 Q 4.9,5.2 5.15,3.2 L 4.5,2.75 H 3.6 M 4.8,17 V 12.7 L 2.6,12.65 v 7.65 q 0.4,3 0.35,6 v 0.15 q 0.05,3 -0.35,6 v 7.65 l 2.2,-0.05 v -4.3 -3.3 Q 4.45,29.05 4.6,26.3 4.45,23.6 4.8,20.3 V 17 M 2.6,43.75 V 50.1 L 3.6,50 H 4.5 Q 4.7,49.65 5.15,49.55 4.9,47.55 4.8,44 V 43.75 H 2.6 m 2.2,-1.5 V 41.3 L 4.1,41.25 H 2.6 v 1.05 l 2.2,-0.05"
         fill="#6b6b6b"
         fill-rule="evenodd"
         stroke="none"
         id="path18" />
      <path
         d="M 3.6,2.75 H 4.5 L 5.15,3.2 Q 4.9,5.2 4.8,8.75 V 9 H 2.6 V 2.65 l 1,0.1 m 1.2,7.75 v 0.95 L 4.1,11.5 H 2.6 v -1.05 l 2.2,0.05 m 0,31.75 -2.2,0.05 v -1.05 h 1.5 l 0.7,0.05 v 0.95 m -2.2,1.5 H 4.8 V 44 Q 4.9,47.55 5.15,49.55 4.7,49.65 4.5,50 H 3.6 l -1,0.1 V 43.75 M 4.8,17 v 3.3 q -0.35,3.3 -0.2,6 -0.15,2.75 0.2,6.15 v 3.3 4.3 L 2.6,40.1 v -7.65 q 0.4,-3 0.35,-6 V 26.3 Q 3,23.3 2.6,20.3 V 12.65 L 4.8,12.7 V 17"
         fill="#727272"
         fill-rule="evenodd"
         stroke="none"
         id="path19" />
    </g>
    <g
       id="sprite3">
      <use
         ffdec:characterId="29"
         height="53.5"
         width="18.700001"
         xlink:href="#shape4"
         id="use19" />
    </g>
    <g
       id="shape4">
      <path
         d="m 18.5,1.6 -0.25,0.95 0.3,1.65 0.1,3.5 0.05,3.5 -0.45,2.55 v 0.1 q 0,0.7 -0.4,0.95 L 16.4,15 16.25,15.2 13.9,19.05 13.6,21.6 h 0.25 Q 14,21.45 14.2,21.45 l 0.4,0.15 0.65,-0.05 q 1.3,0.85 1.25,4.05 v 1.15 1.15 q 0.05,3.2 -1.25,4.05 L 14.6,31.9 14.2,32.05 13.85,31.9 H 13.6 l 0.3,2.55 2.35,3.85 0.15,0.2 1.45,0.2 q 0.4,0.25 0.4,0.95 v 0.1 l 0.45,2.55 -0.05,3.5 -0.1,3.5 -0.3,1.65 0.25,0.95 q 0,1.05 -1.4,1.5 h -6 v 0.1 l -1,-0.05 H 9.9 9.65 9.15 8.6 l -1,0.05 V 53.45 L 1.6,53.4 Q 0.2,52.95 0.2,51.9 0.2,51.3 0.45,50.95 L 0.15,49.3 0.05,45.8 0,42.3 q 0.1,-1.65 0.45,-2.55 v -0.1 q 0,-0.7 0.4,-0.95 L 2.3,38.5 2.45,38.3 4.8,34.45 5.1,31.9 H 4.85 L 4.5,32.05 4.1,31.9 3.45,31.95 Q 2.15,31.1 2.2,27.9 L 2.25,26.75 2.2,25.6 Q 2.15,22.4 3.45,21.55 L 4.1,21.6 4.5,21.45 4.85,21.6 H 5.1 L 4.8,19.05 2.45,15.2 2.3,15 0.85,14.8 q -0.4,-0.25 -0.4,-0.95 v -0.1 Q 0.1,12.85 0,11.2 L 0.05,7.7 0.15,4.2 0.45,2.55 0.2,1.6 q 0,-1.05 1.4,-1.5 l 6,-0.05 V 0 l 1,0.05 h 0.55 0.5 0.25 0.2 L 11.1,0 v 0.1 h 6 q 1.4,0.45 1.4,1.5 M 11.1,3.1 V 3.15 H 7.6 V 3.1 L 2.9,3.05 Q 3.25,4.9 3.25,7.8 V 9.85 L 7.6,9.8 h 3.5 l 4.35,0.05 V 7.8 q 0,-2.9 0.35,-4.75 L 11.1,3.1 m 0,8.25 H 10.55 8.15 7.6 V 11.3 L 3.25,11.15 v 0.25 l -0.1,1.2 6.2,-0.15 6.2,0.15 -0.1,-1.2 V 11.15 L 11.1,11.3 v 0.05 m -5,4.2 q 0,0.65 0.5,1.35 l 0.5,1.2 q 0.95,1.9 1,3.7 h 0.75 1.75 q 0.05,-1.85 1,-3.7 l 0.5,-1.2 q 0.5,-0.7 0.5,-1.35 l -0.05,-0.4 -1.45,0.05 v 0.1 L 9.45,15.25 7.6,15.3 V 15.2 L 6.15,15.15 6.1,15.55 m 3.25,8.9 h -1.5 l -0.4,-0.05 -1.7,-0.15 0.1,1.25 v 0.8 0.45 0.45 0.8 l -0.1,1.25 1.7,-0.15 0.4,-0.05 h 1.5 1.5 L 11.3,29.1 12.95,29.25 12.9,28 H 12.85 V 27.2 26.75 26.3 25.5 h 0.05 l 0.05,-1.25 -1.65,0.15 -0.45,0.05 H 9.35 M 10.6,31.7 H 8.85 8.1 q -0.05,1.8 -1,3.7 l -0.5,1.2 q -0.5,0.7 -0.5,1.35 l 0.05,0.4 1.45,-0.05 v -0.1 l 1.85,0.05 1.65,-0.05 v 0.1 l 1.45,0.05 0.05,-0.4 q 0,-0.65 -0.5,-1.35 l -0.5,-1.2 q -0.95,-1.85 -1,-3.7 M 8.15,42.15 h 2.4 0.55 v 0.05 l 4.35,0.15 V 42.1 l 0.1,-1.2 -6.2,0.15 -6.2,-0.15 0.1,1.2 v 0.25 L 7.6,42.2 v -0.05 h 0.55 m -4.9,1.5 v 2.05 q 0,2.9 -0.35,4.75 L 7.6,50.4 v -0.05 h 3.5 v 0.05 l 4.7,0.05 Q 15.45,48.6 15.45,45.7 V 43.65 L 11.1,43.7 H 7.6 L 3.25,43.65"
         fill="#6b6b6b"
         fill-rule="evenodd"
         stroke="none"
         id="path20" />
      <path
         d="M 11.1,3.1 15.8,3.05 Q 15.45,4.9 15.45,7.8 V 9.85 L 11.1,9.8 H 7.6 L 3.25,9.85 V 7.8 Q 3.25,4.9 2.9,3.05 L 7.6,3.1 v 0.05 h 3.5 V 3.1 m -5,12.45 0.05,-0.4 1.45,0.05 v 0.1 l 1.85,-0.05 1.65,0.05 v -0.1 l 1.45,-0.05 0.05,0.4 q 0,0.65 -0.5,1.35 l -0.5,1.2 q -0.95,1.85 -1,3.7 H 8.85 8.1 Q 8.05,20 7.1,18.1 L 6.6,16.9 Q 6.1,16.2 6.1,15.55 m 5,-4.2 V 11.3 l 4.35,-0.15 v 0.25 l 0.1,1.2 -6.2,-0.15 -6.2,0.15 0.1,-1.2 V 11.15 L 7.6,11.3 v 0.05 h 0.55 2.4 0.55 m -1.75,13.1 h 1.5 L 11.3,24.4 12.95,24.25 12.9,25.5 h -0.05 v 0.8 0.45 0.45 0.8 H 12.9 L 12.95,29.25 11.3,29.1 10.85,29.05 H 9.35 7.85 L 7.45,29.1 5.75,29.25 5.85,28 V 27.2 26.75 26.3 25.5 l -0.1,-1.25 1.7,0.15 0.4,0.05 h 1.5 m -1.2,17.7 H 7.6 V 42.2 L 3.25,42.35 V 42.1 l -0.1,-1.2 6.2,0.15 6.2,-0.15 -0.1,1.2 v 0.25 L 11.1,42.2 V 42.15 H 10.55 8.15 M 10.6,31.7 q 0.05,1.85 1,3.7 l 0.5,1.2 q 0.5,0.7 0.5,1.35 L 12.55,38.35 11.1,38.3 V 38.2 L 9.45,38.25 7.6,38.2 v 0.1 L 6.15,38.35 6.1,37.95 q 0,-0.65 0.5,-1.35 l 0.5,-1.2 q 0.95,-1.9 1,-3.7 H 8.85 10.6 M 3.25,43.65 7.6,43.7 h 3.5 l 4.35,-0.05 v 2.05 q 0,2.9 0.35,4.75 L 11.1,50.4 V 50.35 H 7.6 V 50.4 L 2.9,50.45 Q 3.25,48.6 3.25,45.7 v -2.05"
         fill="#727272"
         fill-rule="evenodd"
         stroke="none"
         id="path21" />
    </g>
    <g
       id="sprite4">
      <use
         ffdec:characterId="21"
         height="52.75"
         width="7.5999999"
         xlink:href="#shape3"
         id="use21" />
    </g>
    <g
       id="sprite5">
      <use
         ffdec:characterId="264"
         height="16.15"
         width="40.75"
         xlink:href="#shape5"
         id="use22" />
    </g>
    <g
       id="shape5">
      <path
         d="M 40.6,2.9 V 3.4 H 40.4 L 39.5,3.55 39.4,3.6 Q 38.8,3.75 38.45,4.2 L 38.4,4.35 38.3,4.6 38.15,4.9 31.55,4.95 31.2,4.75 Q 28.75,3.35 27.95,3.35 25.5,3.45 23.5,4.9 L 23.45,4.95 12.1,5 11.9,4.95 10.6,5 H 8 Q 6.35,6.35 5.75,7.5 5.2,8.5 5.2,9.9 q 0,0.45 0.55,1.3 l 0.5,1 -0.2,0.6 Q 4.1,12.45 3.45,11.15 3.15,10.6 3.15,8.9 3.15,6.6 5.55,4.6 L 6.55,3.7 7.4,2.9 H 40.6 M 13,7.35 12.7,8.75 q -0.6,1.2 -1.85,1.2 L 9.55,9.65 9.2,9.35 9.15,9.3 9.05,9.2 8.8,8.35 8.9,7.9 Q 9.15,7.25 10.2,7.05 h 2.3 l 0.5,0.3"
         fill="#7b7b7b"
         fill-rule="evenodd"
         stroke="none"
         id="path22" />
      <path
         d="M 40.6,2.9 H 7.4 l -0.85,0.8 -1,0.9 q -2.4,2 -2.4,4.3 0,1.7 0.3,2.25 0.65,1.3 2.6,1.65 L 7.6,12.9 11,12.85 12.85,11 q 0.7,-1.1 0.7,-1.9 L 13.5,7.95 13.3,7.65 13,7.35 12.5,7.05 H 10.2 Q 9.15,7.25 8.9,7.9 L 8.8,8.35 9.05,9.2 v 0.05 l 0.1,0.05 0.05,0.05 0.35,0.3 0.5,0.35 v 0.3 l -0.8,0.3 Q 8,10.7 7.7,9.95 L 7.6,8.85 q 0,-1.25 0.6,-2 0.5,-1.15 1.9,-1.7 L 10.6,5 11.9,4.95 12.1,5 q 1.15,0.3 2.35,1.25 L 15.3,7 15.55,7.15 15.9,7.05 Q 16.45,7.6 17.1,7.6 L 20.1,7.55 23.3,5 23.45,4.95 23.5,4.9 q 2,-1.45 4.45,-1.55 0.8,0 3.25,1.4 l 0.35,0.2 0.8,0.5 q 3.2,1.95 6.05,2.1 h 0.45 0.25 L 38.4,6.85 38.35,6.75 38.05,5.7 38.15,4.9 38.3,4.6 38.4,4.35 38.45,4.2 Q 38.8,3.75 39.4,3.6 L 39.5,3.55 40.4,3.4 h 0.2 V 9.45 9.8 l -0.4,0.1 -20.9,0.2 -0.6,0.2 h -1.75 l -0.9,1 -0.4,0.35 q -0.35,1.3 -1.1,2.15 L 14.35,14 14.3,14.15 Q 12.85,15.8 10.1,16.1 L 8.95,16.15 H 8 6.9 5.55 l -1.3,-0.3 Q 2.65,15.5 0.25,12.1 L 0,8.5 Q 0,7.6 0.3,6.65 0.55,5.2 1.25,3.95 2.4,1.8 4.55,0.8 4.7,0.45 5.25,0.4 L 5.85,0.3 6.35,0.2 6.55,0.25 6.6,0.3 12.65,0 H 40.6 v 2.9 m -6.65,5.15 -1.5,-1 Q 30.35,5.3 28.8,4.95 L 27.95,4.8 26.75,4.95 H 26.7 Q 24.8,5.3 23.05,6.8 L 21.5,8.05 21.25,8.25 34.7,8.4 33.95,8.05"
         fill="#6b6b6b"
         fill-rule="evenodd"
         stroke="none"
         id="path23" />
      <path
         d="m 6.05,12.8 0.2,-0.6 -0.5,-1 Q 5.2,10.35 5.2,9.9 5.2,8.5 5.75,7.5 6.35,6.35 8,5 h 2.6 L 10.1,5.15 Q 8.7,5.7 8.2,6.85 7.6,7.6 7.6,8.85 l 0.1,1.1 Q 8,10.7 9.25,10.6 l 0.8,-0.3 V 10 l -0.5,-0.35 1.3,0.3 q 1.25,0 1.85,-1.2 l 0.3,-1.4 0.3,0.3 0.2,0.3 0.05,1.15 q 0,0.8 -0.7,1.9 L 11,12.85 7.6,12.9 6.05,12.8 M 12.1,5 23.45,4.95 23.3,5 20.1,7.55 17.1,7.6 q -0.65,0 -1.2,-0.55 L 15.55,7.15 15.3,7 14.45,6.25 Q 13.25,5.3 12.1,5 m 19.45,-0.05 6.6,-0.05 -0.1,0.8 0.3,1.05 0.05,0.1 0.7,0.7 H 38.85 38.4 Q 35.55,7.4 32.35,5.45 l -0.8,-0.5 m 9.05,4.5 h 0.15 V 9.7 L 40.7,9.75 40.6,9.8 V 9.45 M 33.95,8.05 34.7,8.4 21.25,8.25 21.5,8.05 23.05,6.8 Q 24.8,5.3 26.7,4.95 h 0.05 l 1.2,-0.15 0.85,0.15 q 1.55,0.35 3.65,2.1 l 1.5,1"
         fill="#727272"
         fill-rule="evenodd"
         stroke="none"
         id="path24" />
    </g>
    <g
       id="sprite6">
      <use
         ffdec:characterId="266"
         height="44.25"
         width="16.799999"
         xlink:href="#shape6"
         id="use24" />
    </g>
    <g
       id="shape6">
      <path
         d="m 13.45,3.2 h -0.7 L 10.9,3.15 10.05,5.8 Q 9,9.5 9,11.4 q 0,3.8 1.4,6.85 1.85,3.9 2.55,8.35 V 33 H 13.5 V 19.4 q -0.55,-4.5 -0.7,-8.65 -0.15,-5 0.65,-7.55 m 2,33.4 0.1,6 -0.25,0.9 -0.2,0.25 q -0.35,0.35 -0.8,0.35 h -0.15 -0.1 -0.3 L 10.3,44.25 Q 9.05,44.25 8.55,43.7 7.95,43.15 7.8,41.65 v -2.4 L 7.9,36.5 V 33.8 H 7.8 L 7.9,33.7 Q 7.55,32.4 7.5,29.75 7.45,24.1 6.45,22.8 L 1.8,17 1.5,16.65 1.25,16.25 0.75,15.2 0.6,14.65 0.55,14.25 0.4,13.3 0,11.05 Q 0,8.9 1.25,4.95 1.95,2.65 2.65,1.6 2.65,0.85 3.5,0.55 L 4.2,0.35 4.8,0.3 10,0.1 12.75,0 q 2.05,-0.05 3.15,0.65 0.85,0.55 0.85,1 v 0.6 l -0.05,0.6 v 27.2 l -0.35,4.75 -0.25,0.1 -0.4,0.15 H 15.45 15.4 l 0.05,1.55 M 9.2,3.15 4.7,2.9 H 4.55 V 3 L 3.75,4.9 Q 2.4,8.1 2.4,10.75 q 0,2.8 1.7,4.65 4,4.4 5.2,6.3 0.9,1.35 1.05,5.05 l -0.05,5.7 V 33 l 1.95,-0.1 Q 12.05,31.35 12,28.75 11.9,24.8 11.4,22.9 10.2,18.3 8.85,15.9 8.15,14.7 8.15,11.4 8.15,7 8.35,5.65 8.6,4.1 9.2,3.15 m 1.15,32.45 2.95,0.2 V 35.55 L 13.25,35.2 H 10.3 l 0.05,0.4 m 0.15,0.9 0.1,1 1.85,-0.05 0.65,0.05 0.05,-1 H 10.5"
         fill="#6b6b6b"
         fill-rule="evenodd"
         stroke="none"
         id="path25" />
      <path
         d="m 13.45,3.2 q -0.8,2.55 -0.65,7.55 0.15,4.15 0.7,8.65 V 33 H 12.95 V 26.6 Q 12.25,22.15 10.4,18.25 9,15.2 9,11.4 9,9.5 10.05,5.8 L 10.9,3.15 12.75,3.2 h 0.7 m 2.25,31.85 v 0.05 l -0.25,1.5 -0.05,-1.55 h 0.05 0.25 m -5.2,1.45 h 2.65 l -0.05,1 -0.65,-0.05 -1.85,0.05 -0.1,-1 M 10.35,35.6 10.3,35.2 h 2.95 l 0.05,0.35 v 0.25 l -2.95,-0.2"
         fill="#727272"
         fill-rule="evenodd"
         stroke="none"
         id="path26" />
      <path
         d="M 9.2,3.15 Q 8.6,4.1 8.35,5.65 8.15,7 8.15,11.4 q 0,3.3 0.7,4.5 1.35,2.4 2.55,7 0.5,1.9 0.6,5.85 0.05,2.6 0.25,4.15 L 10.3,33 v -0.55 l 0.05,-5.7 Q 10.2,23.05 9.3,21.7 8.1,19.8 4.1,15.4 2.4,13.55 2.4,10.75 2.4,8.1 3.75,4.9 L 4.55,3 V 2.9 H 4.7 l 4.5,0.25"
         fill="#7b7b7b"
         fill-rule="evenodd"
         stroke="none"
         id="path27" />
    </g>
    <g
       id="sprite7">
      <use
         ffdec:characterId="31"
         height="12.8"
         width="27.049999"
         xlink:href="#shape7"
         id="use27" />
    </g>
    <g
       id="shape7">
      <path
         d="m 26.4,1.15 q 0.65,1.5 0.65,5.5 V 9.6 l -0.35,2.05 -0.7,1 -0.5,0.15 -0.35,-0.05 H 1.9 L 1.55,12.8 1.05,12.65 Q 0.6,12.4 0.35,11.65 0.1,10.85 0,9.6 V 6.65 q 0,-4 0.65,-5.5 l 0.2,-0.5 Q 1.15,0.35 2,0 h 23.05 q 0.85,0.35 1.15,0.65 l 0.2,0.5 M 23.95,5.3 24,4.75 V 4.2 L 24.05,3.65 24.15,2.8 H 2.9 L 3,3.65 3.05,4.2 V 4.75 L 3.1,5.3 v 1.35 0.4 H 5.55 Q 6.45,6.15 7.45,5.6 8.8,4.8 10.3,4.6 h 0.2 l 1.45,-0.05 h 0.35 3.6 l 0.85,0.05 q 1.5,0.2 2.85,1 1,0.55 1.9,1.45 h 2.45 V 6.65 5.3 m 0,3.2 L 12.3,8.6 H 11.85 L 3.1,8.5 V 9.8 10 H 23.95 V 9.8 8.5 M 12.3,5.8 H 12 11.1 10.5 V 5.9 Q 9.45,6.2 8.4,7.05 H 18.65 Q 17.25,5.95 15.9,5.8 L 13.75,5.75 12.3,5.8"
         fill="#6b6b6b"
         fill-rule="evenodd"
         stroke="none"
         id="path28" />
      <path
         d="m 23.95,5.3 -2,0.25 L 19.6,5.6 Q 18.25,4.8 16.75,4.6 L 15.9,4.55 H 12.3 11.95 L 10.5,4.6 H 10.3 Q 8.8,4.8 7.45,5.6 L 5.1,5.55 3.1,5.3 3.05,4.75 V 4.2 L 3,3.65 2.9,2.8 H 24.15 L 24.05,3.65 24,4.2 V 4.75 L 23.95,5.3"
         fill="#7b7b7b"
         fill-rule="evenodd"
         stroke="none"
         id="path29" />
      <path
         d="m 19.6,5.6 2.35,-0.05 2,-0.25 v 1.35 0.4 H 21.5 Q 20.6,6.15 19.6,5.6 M 3.1,5.3 5.1,5.55 7.45,5.6 q -1,0.55 -1.9,1.45 H 3.1 V 6.65 5.3 M 23.95,8.5 V 9.8 10 H 3.1 V 9.8 8.5 l 8.75,0.1 H 12.3 L 23.95,8.5 M 12.3,5.8 13.75,5.75 15.9,5.8 q 1.35,0.15 2.75,1.25 H 8.4 Q 9.45,6.2 10.5,5.9 V 5.8 h 0.6 0.9 0.3"
         fill="#727272"
         fill-rule="evenodd"
         stroke="none"
         id="path30" />
    </g>
    <g
       id="sprite8">
      <use
         ffdec:characterId="70"
         height="8.9499998"
         width="15.2"
         xlink:href="#shape8"
         id="use30" />
    </g>
    <g
       id="shape8">
      <path
         d="M 13.2,2.05 H 13 L 12.5,2.2 q -0.4,0 -0.75,-0.35 -0.4,-0.4 -0.75,-0.4 -0.6,0 -1.15,0.4 0.5,0.45 0.7,1.25 l 2.3,0.15 q 2.35,0.9 2.35,2.4 L 15.05,6.35 14.6,6.75 13.5,5.6 q -0.75,-0.85 -2.05,-0.85 -0.35,0 -0.65,0.3 l -0.1,0.6 0.25,0.1 q 1.45,0.6 1.45,1.2 v 1.1 q -0.2,0.9 -0.9,0.9 L 11.05,8.9 11.15,8.8 11,8.5 Q 11.6,7 10.2,6.65 H 10.15 Q 9.45,7.25 8.05,7.3 H 7.8 7.6 7.4 7.15 Q 6,7.15 5.3,6.6 L 5,6.65 Q 3.6,7 4.2,8.5 L 4.05,8.8 4.15,8.9 3.7,8.95 Q 3,8.95 2.8,8.05 v -1.1 q 0,-0.6 1.45,-1.2 L 4.7,5.6 4.65,5.2 4.55,5.15 Q 4.15,4.75 3.75,4.75 2.45,4.75 1.7,5.6 L 0.6,6.75 0.15,6.35 Q 0,6.15 0,5.65 0,4.15 2.35,3.25 L 4.65,3.1 Q 4.85,2.3 5.35,1.85 4.8,1.45 4.2,1.45 3.85,1.45 3.45,1.85 L 2.7,2.2 Q 1.95,2.2 2.2,2.05 H 2 L 1.95,1.55 q 0,-1.9 2.65,-1.45 1.5,0.3 2.35,1.15 h 0.6 0.1 0.6 Q 9.1,0.4 10.6,0.1 q 2.65,-0.45 2.65,1.45 l -0.05,0.5"
         fill="#6b6b6b"
         fill-rule="evenodd"
         stroke="none"
         id="path31" />
    </g>
    <g
       id="sprite9"
       transform="translate(5.4,4)">
      <use
         ffdec:characterId="43"
         height="8"
         transform="translate(-5.4,-4)"
         width="10.8"
         xlink:href="#shape9"
         id="use31" />
    </g>
    <g
       id="shape9"
       transform="translate(5.4,4)">
      <path
         d="m 2.9,-0.35 q 0,-1.25 1.25,-1.25 1.25,0 1.25,1.2 0,1.3 -1.25,1.3 Q 3.6,0.9 3.25,0.5 2.9,0.15 2.9,-0.35 m 0.35,-2.3 q 0,0.55 -0.35,0.9 -0.4,0.45 -1,0.45 -1.35,0 -1.35,-1.4 0,-1.3 1.35,-1.3 1.35,0 1.35,1.35 m -3.1,1.9 h 0.2 q 2.6,0.1 2.6,2.8 l -0.3,1 Q 2.05,4 0.45,4 H 0.35 0.15 0.1 -0.45 q -1.6,0 -2.2,-0.95 l -0.3,-1 q 0,-2.8 2.8,-2.8 h 0.3 M -1.55,-4 q 1.35,0 1.35,1.35 0,0.55 -0.4,0.9 -0.4,0.45 -0.95,0.45 -1.4,0 -1.4,-1.4 0,-1.3 1.4,-1.3 m -2.6,2.4 q 1.25,0 1.25,1.25 0,0.5 -0.35,0.85 -0.35,0.4 -0.9,0.4 -1.25,0 -1.25,-1.3 0,-1.2 1.25,-1.2"
         fill="#6b6b6b"
         fill-rule="evenodd"
         stroke="none"
         id="path32" />
    </g>
  </defs>
</svg>
