<?xml version="1.0" encoding="UTF-8" standalone="no"?>
<svg
   ffdec:objectType="frame"
   height="23.90625"
   width="47.919998"
   version="1.1"
   id="svg7"
   sodipodi:docname="1.svg"
   xmlns:inkscape="http://www.inkscape.org/namespaces/inkscape"
   xmlns:sodipodi="http://sodipodi.sourceforge.net/DTD/sodipodi-0.dtd"
   xmlns:xlink="http://www.w3.org/1999/xlink"
   xmlns="http://www.w3.org/2000/svg"
   xmlns:svg="http://www.w3.org/2000/svg"
   xmlns:ffdec="https://www.free-decompiler.com/flash">
  <sodipodi:namedview
     id="namedview7"
     pagecolor="#ffffff"
     bordercolor="#000000"
     borderopacity="0.25"
     inkscape:showpageshadow="2"
     inkscape:pageopacity="0.0"
     inkscape:pagecheckerboard="0"
     inkscape:deskcolor="#d1d1d1"
     fit-margin-top="5"
     fit-margin-left="5"
     fit-margin-right="5"
     fit-margin-bottom="5" />
  <g
     transform="translate(23.95,11.95625)"
     id="g1">
    <use
       ffdec:characterId="3929"
       height="23.9"
       transform="translate(-23.95,-11.95)"
       width="47.900002"
       xlink:href="#shape0"
       id="use1" />
  </g>
  <defs
     id="defs7">
    <g
       id="shape0"
       transform="translate(23.95,11.95)">
      <path
         d="m -6.95,1.55 h 0.2 l 1.2,-0.4 0.7,-0.35 1.45,0.05 q 4.5,0.4 6.55,0 L 3.35,0.8 3.15,1.85 Q 2.9,1.85 3,2.05 V 2.6 L -0.25,2.4 V 2.35 q -3.8,-0.15 -7.6,0 l 0.9,-0.8 M 3.15,3.6 H 3.3 Q 3.7,5.1 5,7.3 L 6.6,9.4 H 3.15 L -0.25,9.3 -4.2,9.25 Q -5.45,8.05 -5.9,6.45 -6.15,4.25 -6,3.2 l 4.25,0.1 v 0.05 l 4.9,0.25"
         fill="#858585"
         fill-rule="evenodd"
         stroke="none"
         id="path1" />
      <path
         d="m 14.55,-9.2 q -1,-0.75 -2.8,-0.75 -1.65,0 -3.15,1.65 L 8.35,-8 8.3,-7.85 q -1.05,1.4 -1.15,2.2 L 7.35,-3 q -0.1,1.35 -0.9,2.25 l -0.1,0.1 0.15,0.1 0.1,0.05 Q 8.65,1 11.55,1 l 2,-0.45 0.5,-0.25 q 0.15,-0.9 0.6,-1.5 L 14.3,-1.65 q -0.45,-0.7 -0.4,-1.2 0.1,-0.95 0.75,-1.85 0.75,-0.95 1.8,-1 v -0.15 q -0.35,-0.6 -0.75,-1.7 -0.3,-1.1 -1.15,-1.65 m -1.7,3.15 q 0.15,-0.3 0.5,-0.4 L 13.7,-6.5 q 0.95,-0.05 0.9,0.95 -0.1,1.1 -1.05,1.1 -0.65,0 -0.85,-0.5 V -5.5 l 0.15,-0.55 m -7.5,0.4 Q 5.6,-8.5 7.7,-10.3 q 1.9,-1.55 4.4,-1.65 2.5,-0.1 4.05,1.4 1.45,1.4 1.5,3.7 l 0.2,0.15 0.55,0.6 2,0.15 q 2.5,-0.15 3.25,0.65 0.4,0.4 0.3,1.35 -0.15,1.6 -1.25,2.35 -1.75,1.2 -6.6,1.25 l -0.2,0.8 Q 15.8,1.2 16.6,2.6 17.3,4 17.1,5.9 16.95,7.7 16,9.15 q -1.6,2.3 -4.75,2.3 h -8.1 -3.4 -1.5 -4.85 l -1.7,-0.65 -0.35,0.1 q -0.1,0.45 -0.85,0.45 -0.7,0 -1.35,-1 L -10.9,10.3 q -0.5,0.85 -0.8,0.85 -0.5,0 -0.7,-0.35 l -0.75,0.5 -0.6,-0.25 -0.05,0.05 -0.7,0.5 -0.65,-0.3 -0.6,0.15 h -0.3 q -0.25,0.35 -0.6,0.35 l -0.5,-0.35 q -0.2,0.3 -0.65,0.3 -0.45,0 -1,-0.75 l -0.9,0.15 q -0.3,0.8 -0.8,0.8 -0.65,0 -0.75,-0.55 v -0.1 l -0.75,0.5 -0.6,-0.2 h -0.25 q -0.5,0 -0.85,-0.8 l -0.25,-0.95 q 0,-1.5 1.15,-1.25 0.4,0.1 0.65,0.4 l 0.4,-0.35 0.6,-0.2 1.1,-1.1 0.15,-0.1 0.25,-0.4 L -20.2,6.45 -20.25,6 q 0,-0.75 1.65,-1.15 -0.75,-0.25 -0.75,-0.8 0,-0.6 0.8,-0.7 L -18.7,2.9 q 0,-1.2 1.7,-0.55 l 0.25,0.1 -0.2,-0.55 q 0,-1.4 1.05,-0.5 l 0.2,0.15 1.7,-0.3 1.15,0.05 0.15,-0.8 0.65,-3 q 0.05,-1.1 1.85,-1 1.4,-0.2 3.2,0.95 1.7,1 4.8,1.15 l 1.95,0.2 v 0.1 L 3.5,-1.35 q 1.95,-0.6 2.05,-1.7 L 5.4,-4.2 5.35,-5.65 M 17.1,-2.4 q 3.75,0.05 4.9,-1.15 l 0.15,-0.3 Q 18.5,-3.8 17.2,-4.55 L 16.95,-4.7 16,-4.6 14.9,-3.35 q -0.05,0.65 0.7,1.1 l 0.15,0.1 1.35,-0.25 M 14.2,2.55 Q 13.85,1.8 13.9,1.25 L 13.65,1.35 10.1,1.9 Q 7.85,1.9 6.4,0.65 L 6,0.3 5.9,0.15 5.65,-0.15 5.4,0 5.2,0.15 4.7,0.4 4.4,0.5 4.9,1.05 5.15,1.25 q 0.95,0.7 3.1,1.4 L 14.05,2.6 H 14.2 V 2.55 M 12,9.05 Q 15,8 15.2,5.8 15.3,4.8 14.75,3.65 L 4.55,3.6 4.9,5.3 Q 5.4,7.25 7.55,8.65 L 8.75,9.4 H 11 L 12,9.05 M -7.85,2.35 q 3.8,-0.15 7.6,0 V 2.4 L 3,2.6 V 2.05 Q 2.9,1.85 3.15,1.85 L 3.35,0.8 3.15,0.85 q -2.05,0.4 -6.55,0 l -1.45,-0.05 -0.7,0.35 -1.2,0.4 h -0.2 -1.3 -0.9 -1.2 -0.25 l -0.25,0.95 h 0.05 l 1.45,-0.1 h 0.15 l 1.3,-0.05 h 0.05 m 12,-0.6 0.25,0.9 H 5.1 L 4.8,2.4 4.15,1.75 m -1,1.85 -4.9,-0.25 V 3.3 L -6,3.2 q -0.15,1.05 0.1,3.25 0.45,1.6 1.7,2.8 l 3.95,0.05 3.4,0.1 H 6.6 L 5,7.3 Q 3.7,5.1 3.3,3.6 H 3.15 M -10,-1.3 -10.5,1.15 h 0.45 0.6 0.25 L -8.65,1.1 H -8.3 L -7.05,0.95 -5.9,0.55 -5.8,0.5 -7.55,-0.2 -10,-1.3 m 0.85,4.55 h -0.1 -0.1 l -1.4,0.1 h -0.2 -0.1 l -0.05,0.2 V 4.2 q 0.65,3.05 4.7,5.05 h 0.85 L -6.15,8 Q -6.9,5.35 -6.7,5.3 -6.75,4.45 -6.4,3.2 l -1.4,0.05 h -1.35 m -5.75,-0.45 0.05,0.35 -0.2,0.55 -0.55,0.25 h -0.1 l -0.2,0.15 0.05,0.35 q 0,0.7 -0.45,0.7 h -0.2 V 5.4 l -0.6,0.65 q 0.75,0.05 0.75,0.7 l -1,0.85 -0.75,0.45 0.1,0.1 1,0.15 1,0.7 0.45,-0.3 h 0.05 l -0.05,-0.2 q 0,-0.95 0.95,-0.25 l 0.25,0.2 q 0.1,-0.7 0.9,0.1 l 0.25,0.3 0.6,-0.55 q 0.4,-0.35 0.7,-0.4 l -1.25,-3.1 q -0.2,-0.65 0,-2.1 l -1.75,0.1"
         fill="#6b6b6b"
         fill-rule="evenodd"
         stroke="none"
         id="path2" />
      <path
         d="M 12,9.05 11,9.4 H 8.75 L 7.55,8.65 Q 5.4,7.25 4.9,5.3 L 4.55,3.6 14.75,3.65 Q 15.3,4.8 15.2,5.8 15,8 12,9.05 M 4.15,1.75 4.8,2.4 5.1,2.65 H 4.4 L 4.15,1.75"
         fill="#797979"
         fill-rule="evenodd"
         stroke="none"
         id="path3" />
      <path
         d="m 6.5,-0.55 -0.15,-0.1 0.1,-0.1 0.05,0.2 M 14.05,2.6 8.25,2.65 Q 6.1,1.95 5.15,1.25 L 4.9,1.05 4.4,0.5 4.7,0.4 5.2,0.15 5.4,0 5.65,-0.15 5.9,0.15 6,0.3 6.4,0.65 Q 7.85,1.9 10.1,1.9 l 3.55,-0.55 0.25,-0.1 q -0.05,0.55 0.3,1.3 L 14.05,2.6 m -21,-1.05 -0.9,0.8 H -7.9 L -9.2,2.4 h -0.15 l -1.45,0.1 h -0.05 l 0.25,-0.95 h 0.25 1.2 0.9 1.3 m -2.2,1.7 H -7.8 L -6.4,3.2 Q -6.75,4.45 -6.7,5.3 -6.9,5.35 -6.15,8 l 0.6,1.25 H -6.4 q -4.05,-2 -4.7,-5.05 V 3.55 l 0.05,-0.2 h 0.1 0.2 l 1.4,-0.1 h 0.1 0.1 M -10,-1.3 -7.55,-0.2 -5.8,0.5 -5.9,0.55 -7.05,0.95 -8.3,1.1 H -8.65 L -9.2,1.15 h -0.25 -0.6 -0.45 L -10,-1.3"
         fill="#ffffff"
         fill-rule="evenodd"
         stroke="none"
         id="path4" />
      <path
         d="m 7.15,-5.65 q 0.8,0.45 2.2,0.45 2.2,0 3.5,-0.85 L 12.7,-5.5 v 0.55 q 0.2,0.5 0.85,0.5 0.95,0 1.05,-1.1 0.05,-1 -0.9,-0.95 l -0.35,0.05 0.4,-0.45 q 0.8,-1.05 0.8,-2.2 v -0.1 q 0.85,0.55 1.15,1.65 0.4,1.1 0.75,1.7 v 0.15 q -1.05,0.05 -1.8,1 -0.65,0.9 -0.75,1.85 -0.05,0.5 0.4,1.2 l 0.35,0.45 q -0.45,0.6 -0.6,1.5 l -0.5,0.25 -2,0.45 Q 8.65,1 6.6,-0.5 L 6.5,-0.55 6.45,-0.75 q 0.8,-0.9 0.9,-2.25 l -0.2,-2.65"
         fill="#7b8d80"
         fill-rule="evenodd"
         stroke="none"
         id="path5" />
      <path
         d="m 7.15,-5.65 q 0.1,-0.8 1.15,-2.2 L 8.35,-8 8.6,-8.3 q 1.5,-1.65 3.15,-1.65 1.8,0 2.8,0.75 v 0.1 q 0,1.15 -0.8,2.2 l -0.4,0.45 q -0.35,0.1 -0.5,0.4 -1.3,0.85 -3.5,0.85 -1.4,0 -2.2,-0.45"
         fill="#98ad9e"
         fill-rule="evenodd"
         stroke="none"
         id="path6" />
      <path
         d="m 17.1,-2.4 -1.35,0.25 -0.15,-0.1 q -0.75,-0.45 -0.7,-1.1 l 1.1,-1.25 0.95,-0.1 0.25,0.15 q 1.3,0.75 4.95,0.7 L 22,-3.55 q -1.15,1.2 -4.9,1.15"
         fill="#d8dfc6"
         fill-rule="evenodd"
         stroke="none"
         id="path7" />
    </g>
  </defs>
</svg>
