<?xml version="1.0" encoding="UTF-8" standalone="no"?>
<svg
   ffdec:objectType="frame"
   height="34.746853"
   width="31.65"
   version="1.1"
   id="svg4"
   sodipodi:docname="1.svg"
   xmlns:inkscape="http://www.inkscape.org/namespaces/inkscape"
   xmlns:sodipodi="http://sodipodi.sourceforge.net/DTD/sodipodi-0.dtd"
   xmlns:xlink="http://www.w3.org/1999/xlink"
   xmlns="http://www.w3.org/2000/svg"
   xmlns:svg="http://www.w3.org/2000/svg"
   xmlns:ffdec="https://www.free-decompiler.com/flash">
  <sodipodi:namedview
     id="namedview4"
     pagecolor="#ffffff"
     bordercolor="#000000"
     borderopacity="0.25"
     inkscape:showpageshadow="2"
     inkscape:pageopacity="0.0"
     inkscape:pagecheckerboard="0"
     inkscape:deskcolor="#d1d1d1"
     fit-margin-top="5"
     fit-margin-left="5"
     fit-margin-right="5"
     fit-margin-bottom="5" />
  <g
     transform="translate(15.8,17.346851)"
     id="g1">
    <use
       ffdec:characterId="4279"
       height="34.75"
       transform="translate(-15.8,-17.35)"
       width="31.65"
       xlink:href="#shape0"
       id="use1" />
  </g>
  <defs
     id="defs4">
    <g
       id="shape0"
       transform="translate(15.8,17.35)">
      <path
         d="m -8.85,-7 q -0.75,1.45 -0.75,2.9 0,2.9 4.35,2.9 7,0 10.95,-5 2.7,-3.45 2.7,-5.9 0,-1.3 -0.5,-2.1 1.05,0.35 2,1.1 3.3,2.65 3.3,7.25 0,5.3 -2.8,11.95 -3.75,8.8 -9.65,8.3 L 0.4,14.55 q -9.85,-0.15 -12.15,-4.7 -1.45,-2.9 -1.45,-6.9 0,-3.75 2.1,-7 L -8.85,-7 m -2.4,9.7 0.45,-0.3 V 2.2 q 0,-0.4 -0.45,-0.55 l -0.45,0.5 0.45,0.55 m 6.35,8.5 q -0.65,0 -0.65,0.55 -0.15,0.7 0.6,0.7 0.7,0 0.7,-0.6 0,-0.7 -0.65,-0.65 m 7.4,2 0.4,-0.25 0.25,-0.45 Q 3.15,11.9 2.4,11.8 1.65,11.7 1.65,12.45 1.6,13.2 2.5,13.2 m 4,-4.35 H 6 L 5.9,9.2 6,9.5 6.3,9.6 6.65,9.3 6.5,8.85 M 0.65,7.5 0.75,7.15 Q 0,6.15 -0.2,7.15 L 0.2,7.65 0.65,7.5 M 7.8,4.3 7.15,4.5 7.05,4.65 7.5,5.1 7.8,4.95 7.85,4.6 7.8,4.3"
         fill="#dbdbdb"
         fill-rule="evenodd"
         stroke="none"
         id="path1" />
      <path
         d="m 7.9,-14.2 q 0.5,0.8 0.5,2.1 0,2.45 -2.7,5.9 -3.95,5 -10.95,5 -4.35,0 -4.35,-2.9 0,-1.45 0.75,-2.9 l 4.45,-4.4 q 7.6,-4.55 12.3,-2.8"
         fill="#ffffff"
         fill-rule="evenodd"
         stroke="none"
         id="path2" />
      <path
         d="m -8.85,-7 -2.25,2.95 q -2.1,3.25 -2.1,7 0,4 1.45,6.9 2.3,4.55 12.15,4.7 L 0.75,14.4 q 5.9,0.5 9.65,-8.3 2.8,-6.65 2.8,-11.95 0,-4.6 -3.3,-7.25 -0.95,-0.75 -2,-1.1 -4.7,-1.75 -12.3,2.8 L -8.85,-7 m 19.4,-8.55 q 4.8,2.65 4.8,9.75 0,6.1 -3.05,13.05 -4.15,9.45 -11.2,9.4 l -2.9,0.25 q -9,-0.5 -11.8,-5.75 -1.7,-3.25 -1.7,-7.7 0,-6.9 4.8,-12.5 4.3,-5 10.55,-6.95 6.2,-1.9 10.5,0.45 M 7.8,4.3 7.85,4.6 7.8,4.95 7.5,5.1 7.05,4.65 7.15,4.5 7.8,4.3 M 0.65,7.5 0.2,7.65 -0.2,7.15 q 0.2,-1 0.95,0 L 0.65,7.5 M 6.5,8.85 6.65,9.3 6.3,9.6 6,9.5 5.9,9.2 6,8.85 h 0.5 m -4,4.35 q -0.9,0 -0.85,-0.75 0,-0.75 0.75,-0.65 0.75,0.1 0.75,0.7 L 2.9,12.95 2.5,13.2 m -7.4,-2 q 0.65,-0.05 0.65,0.65 0,0.6 -0.7,0.6 -0.75,0 -0.6,-0.7 0,-0.55 0.65,-0.55 m -6.35,-8.5 -0.45,-0.55 0.45,-0.5 q 0.45,0.15 0.45,0.55 v 0.2 l -0.45,0.3"
         fill="#6b6b6b"
         fill-rule="evenodd"
         stroke="none"
         id="path3" />
      <path
         d="m 10.55,-15.55 q 4.8,2.65 4.8,9.75 0,6.1 -3.05,13.05 -4.15,9.45 -11.2,9.4 l -2.9,0.25 q -9,-0.5 -11.8,-5.75 -1.7,-3.25 -1.7,-7.7 0,-6.9 4.8,-12.5 4.3,-5 10.55,-6.95 6.2,-1.9 10.5,0.45 z"
         fill="none"
         stroke="#6b6b6b"
         stroke-linecap="round"
         stroke-linejoin="round"
         stroke-width="1"
         id="path4" />
    </g>
  </defs>
</svg>
