<?xml version="1.0" encoding="UTF-8" standalone="no"?>
<svg
   ffdec:objectType="frame"
   height="171.39713"
   width="46.099998"
   version="1.1"
   id="svg9"
   sodipodi:docname="1.svg"
   xmlns:inkscape="http://www.inkscape.org/namespaces/inkscape"
   xmlns:sodipodi="http://sodipodi.sourceforge.net/DTD/sodipodi-0.dtd"
   xmlns:xlink="http://www.w3.org/1999/xlink"
   xmlns="http://www.w3.org/2000/svg"
   xmlns:svg="http://www.w3.org/2000/svg"
   xmlns:ffdec="https://www.free-decompiler.com/flash">
  <sodipodi:namedview
     id="namedview9"
     pagecolor="#ffffff"
     bordercolor="#000000"
     borderopacity="0.25"
     inkscape:showpageshadow="2"
     inkscape:pageopacity="0.0"
     inkscape:pagecheckerboard="0"
     inkscape:deskcolor="#d1d1d1"
     fit-margin-top="5"
     fit-margin-left="5"
     fit-margin-right="5"
     fit-margin-bottom="5" />
  <g
     transform="translate(22.85,87.6477)"
     id="g4">
    <use
       ffdec:characterId="885"
       height="42.25"
       transform="matrix(1,0,0,1.0165,-22.85,-87.6477)"
       width="45.75"
       xlink:href="#sprite0"
       id="use1" />
    <use
       ffdec:characterId="885"
       height="42.25"
       transform="matrix(1,0,0,1.0165,-22.5,-44.7977)"
       width="45.75"
       xlink:href="#sprite0"
       id="use2" />
    <use
       ffdec:characterId="885"
       height="42.25"
       transform="matrix(1,0,0,1.0165,-22.85,40.8023)"
       width="45.75"
       xlink:href="#sprite0"
       id="use3" />
    <use
       ffdec:characterId="885"
       height="42.25"
       transform="matrix(1,0,0,1.0165,-22.85,-1.9477)"
       width="45.75"
       xlink:href="#sprite0"
       id="use4" />
    <use
       ffdec:characterId="69"
       height="1.5"
       id="subplatform1"
       transform="matrix(0.0342,0,0.0977,0.86,-22.7861,-81.78)"
       width="1320.3"
       xlink:href="#sprite1" />
  </g>
  <defs
     id="defs9">
    <g
       id="sprite0"
       transform="translate(22.85,21.1)">
      <use
         ffdec:characterId="884"
         height="42.25"
         transform="translate(-22.85,-21.1)"
         width="45.75"
         xlink:href="#shape0"
         id="use5" />
    </g>
    <g
       id="shape0"
       transform="translate(22.85,21.1)">
      <path
         d="m -17.45,17.25 h 36.5 L 19.1,1.6 19.2,1.4 V -17.15 H 18.7 L -6,-17.2 v -0.1 h -2.3 l -10.75,0.15 V 1.4 l 0.05,0.2 0.05,15.65 h 1.5 m -5.25,-37.85 0.15,-0.35 0.35,-0.15 h 44.55 l 0.35,0.15 0.15,0.35 V 1.25 1.45 L 22.9,16.3 v 2.35 0.05 q -0.05,1 -0.45,1.6 v 0.3 l -0.15,0.35 -0.35,0.15 h -0.7 L 20.8,21.15 20.2,21.1 h -40.4 l -0.45,0.05 -0.6,-0.05 h -0.55 l -0.35,-0.15 -0.15,-0.35 v -0.3 l -0.55,-1.55 V 18.65 16.3 L -22.7,1.45 V 1.25 -20.6"
         fill="#6b6b6b"
         fill-rule="evenodd"
         stroke="none"
         id="path5" />
      <path
         d="m 16.45,-14.15 v 27.9 H 5.05 l -19.6,0.55 -1.1,0.05 -0.55,0.05 0.3,-1.55 0.1,-0.65 0.15,-0.1 -0.05,-0.65 0.3,-8.9 0.05,-15.4 h 1.15 l 26.65,-0.2 q 2.1,0.75 4,-1.1"
         fill="#8a9e8d"
         fill-rule="evenodd"
         stroke="none"
         id="path6" />
      <path
         d="m 18.7,-17.15 h 0.5 V 1.4 l -0.1,0.2 -0.05,15.65 h -36.5 l 0.8,-1.5 0.25,-0.65 0.2,-0.7 0.55,-0.05 1.1,-0.05 19.6,-0.55 h 11.4 v -27.9 l 0.85,-0.9 1.4,-2.1"
         fill="#6f7f72"
         fill-rule="evenodd"
         stroke="none"
         id="path7" />
      <path
         d="m -17.45,17.25 h -1.5 L -19,1.6 -19.05,1.4 V -17.15 L -8.3,-17.3 H -6 v 0.1 l 24.7,0.05 -1.4,2.1 -0.85,0.9 q -1.9,1.85 -4,1.1 l -26.65,0.2 h -1.15 l -0.05,15.4 -0.3,8.9 -0.1,0.75 -0.1,0.65 -0.3,1.55 -0.2,0.7 -0.25,0.65 -0.8,1.5"
         fill="#b0c7b4"
         fill-rule="evenodd"
         stroke="none"
         id="path8" />
    </g>
    <g
       id="sprite1"
       transform="translate(660.25,0.5)">
      <use
         ffdec:characterId="68"
         height="1.5"
         transform="translate(-660.25,-0.5)"
         width="1320.3"
         xlink:href="#shape1"
         id="use8" />
    </g>
    <g
       id="shape1"
       transform="translate(660.25,0.5)">
      <path
         d="m 659.3,-0.5 0.55,0.25 0.2,0.5 -0.2,0.55 L 659.3,1 H -659.5 l -0.5,-0.2 -0.25,-0.55 0.25,-0.5 0.5,-0.25 H 659.3"
         fill="#ffff00"
         fill-opacity="0"
         fill-rule="evenodd"
         stroke="none"
         id="path9" />
    </g>
  </defs>
</svg>
