<?xml version="1.0" encoding="UTF-8" standalone="no"?>
<svg
   ffdec:objectType="frame"
   height="92.900002"
   width="55.099998"
   version="1.1"
   id="svg14"
   sodipodi:docname="2.svg"
   xmlns:inkscape="http://www.inkscape.org/namespaces/inkscape"
   xmlns:sodipodi="http://sodipodi.sourceforge.net/DTD/sodipodi-0.dtd"
   xmlns:xlink="http://www.w3.org/1999/xlink"
   xmlns="http://www.w3.org/2000/svg"
   xmlns:svg="http://www.w3.org/2000/svg"
   xmlns:ffdec="https://www.free-decompiler.com/flash">
  <sodipodi:namedview
     id="namedview14"
     pagecolor="#ffffff"
     bordercolor="#000000"
     borderopacity="0.25"
     inkscape:showpageshadow="2"
     inkscape:pageopacity="0.0"
     inkscape:pagecheckerboard="0"
     inkscape:deskcolor="#d1d1d1"
     fit-margin-top="5"
     fit-margin-left="5"
     fit-margin-right="5"
     fit-margin-bottom="5" />
  <g
     transform="translate(27.55,45.7)"
     id="g3">
    <use
       ffdec:characterId="1339"
       height="92.900002"
       transform="translate(-26.6,-45.7)"
       width="53.099998"
       xlink:href="#sprite0"
       id="use1" />
    <use
       ffdec:characterId="44"
       height="8"
       transform="rotate(180,2.7,-8.75)"
       width="10.8"
       xlink:href="#sprite1"
       id="use2" />
    <use
       ffdec:characterId="1340"
       height="44.75"
       transform="translate(-27.55,2.15)"
       width="55.099998"
       xlink:href="#shape2"
       id="use3" />
  </g>
  <defs
     id="defs14">
    <g
       id="sprite0"
       transform="translate(26.55,46.45)">
      <use
         ffdec:characterId="1338"
         height="92.900002"
         transform="translate(-26.55,-46.45)"
         width="53.099998"
         xlink:href="#shape0"
         id="use4" />
    </g>
    <g
       id="shape0"
       transform="translate(26.55,46.45)">
      <path
         d="m -23.5,5.7 v 1.55 q 0,1 -0.25,1.6 l -1,2.3 -0.3,0.1 -1,-2.1 -0.2,-1.85 0.15,-7 V 0.2 l -0.1,-8.7 q 0,-0.75 0.1,-0.35 v -11.5 q 0.1,-0.75 -0.4,-3.25 -0.2,-2.2 1.15,-2.45 l 0.25,0.1 0.65,-0.1 0.5,0.05 1.5,-0.05 h 0.4 v -20.4 h 0.3 l 0.55,0.05 8.5,-0.05 h 25.4 l 8.5,0.05 0.55,-0.05 h 0.3 v 20.4 h 0.4 l 1.5,0.05 0.5,-0.05 0.65,0.1 0.25,-0.1 q 1.35,0.25 1.15,2.45 -0.5,2.5 -0.4,3.25 v 11.5 q 0.1,-0.4 0.1,0.35 l -0.1,8.7 v 0.1 l 0.15,7 -0.2,1.85 -1,2.1 -0.3,-0.1 -1,-2.3 Q 23.5,8.25 23.5,7.25 v -1.1 l 0.1,-7.9 v -2.9 l 0.05,-2.65 v -1.3 -2.15 -9.75 l 0.05,-1.8 -0.2,-1.25 v -0.15 l -0.05,-0.05 -0.7,0.05 -0.7,-0.05 v 1.15 10.45 7.05 11.5 0.25 L 22,6.75 h 0.05 V 8.8 l -1.1,0.1 -0.8,-0.3 Q 19.8,8.3 19.8,7.85 q 0,-0.75 0.7,-1 l -0.3,-1.7 q -0.25,-1.8 -0.35,-4.6 l -0.2,-4.6 -0.05,-4.1 v -5.3 l 0.05,-1.7 v -1.45 -0.75 l 0.1,-14.4 -0.7,-8.45 -9.65,22.8 -0.95,2.3 -0.7,1.65 -2.3,5.35 -0.5,1.15 L 1.55,1 1.1,1.9 V 2.5 L 0.75,3.65 0.3,3.7 0.25,3.75 h -0.5 V 3.7 L -0.75,3.65 -1.1,2.5 V 1.9 L -1.5,1 -4.95,-6.95 -5.4,-8.1 -7.7,-13.45 -8.35,-15 l -1.05,-2.45 -9.65,-22.75 -0.7,8.45 0.1,14.6 v 0.55 l 0.05,1.6 0.05,2.4 v 3.7 l -0.1,4.85 -0.2,5.3 -0.25,3.35 -0.4,2.25 q 0.7,0.25 0.7,1 0,0.45 -0.35,0.75 l -0.8,0.3 -1.1,-0.1 V 6.75 H -22 l -0.05,-0.1 V 5.9 -4.3 -8.85 -21.9 -23.75 l -0.7,0.05 -0.7,-0.05 -0.05,0.05 v 0.15 l -0.2,1.45 0.05,1.6 v 11.65 0.25 l 0.05,4.4 v 2.45 l 0.1,7.45 m 40.65,-47.25 0.75,-1.75 h -5.2 -25.4 -5.2 l 1.1,2.55 9.85,23.3 1,2.45 0.7,1.55 L -3,-8.1 -0.45,-2.05 0,-1.15 0.45,-2.05 3,-8.1 5.3,-13.45 6,-15.05 6.95,-17.4 17.15,-41.55 M 21.6,16.6 H 24 v 28.8 l -0.4,1.05 H 14.65 V 46.2 L 14.1,45.95 V 42.5 q 0.4,-0.85 0.3,-3.15 -0.05,-1 0.15,-1.65 V 36.65 27.2 q -0.25,-2.85 -0.2,-5.7 l 0.15,-2.75 -0.25,-1.4 0.05,-0.55 -3.15,0.1 h -0.6 v -0.3 h 6.55 l -0.2,4.25 0.05,6.05 v 0.3 2.7 6.6 q -0.1,5.55 -0.5,7.8 l 4.6,0.05 0.15,-0.05 0.1,0.05 V 44.2 40.85 L 21.55,29.9 21.6,27.5 V 27 16.6 m -11.65,0 v 0.3 H -4.7 -5.9 V 16.6 H 9.95 m -26.65,0 h 10.2 v 0.3 l -7.4,-0.1 0.05,0.55 -0.25,1.4 0.15,2.75 q 0.05,2.85 -0.2,5.7 v 9.45 1.05 q 0.2,0.65 0.15,1.65 -0.1,2.3 0.3,3.15 v 3.45 l -0.55,0.25 v 0.25 H -23.2 L -23.6,45.4 V 16.6 h 2.4 v 9.05 1.85 l 0.05,1.5 0.25,11.85 v 3.35 0.15 l 0.1,-0.05 0.15,0.05 4.6,-0.05 q -0.4,-2.25 -0.5,-7.8 v -8.1 -1.2 -1.1 l 0.05,-5.25 -0.2,-4.25"
         fill="#9a9a9a"
         fill-rule="evenodd"
         stroke="none"
         id="path4" />
      <path
         d="m -23.5,5.7 -0.1,-7.45 V -4.2 h 0.1 l 1.45,-0.1 V 5.9 h -0.4 L -23.5,5.7 M -23.65,-8.85 V -20.5 l -0.05,-1.6 1.25,0.25 0.4,-0.05 v 13.05 l -0.55,-0.1 -1.05,0.1 m 3.55,13.45 0.25,-3.35 0.2,-5.3 0.1,-4.85 q 0.7,0.55 2.3,0.8 H -5.4 l 0.45,1.15 3.45,7.95 0.4,0.9 v 0.6 l 0.35,1.15 0.5,0.05 v 0.05 h 0.5 L 0.3,3.7 0.75,3.65 1.1,2.5 V 1.9 L 1.55,1 4.95,-6.95 5.45,-8.1 h 13.4 l 0.75,-0.05 0.05,4.1 0.2,4.6 q 0.1,2.8 0.35,4.6 L 19.2,5.3 17.6,5 -16.35,4.85 -20.1,4.6 m 0.55,-17.2 -0.05,-2.4 q 0.7,0.8 2,0.65 l 4.9,-0.65 h 4.35 l 0.65,1.55 h -9.55 q -1.6,0.25 -2.3,0.85 m -0.1,-4.55 -0.1,-14.6 0.7,-8.45 9.65,22.75 -3.3,-0.05 -6.95,0.35 m 27.4,3.7 0.7,-1.65 11.2,-0.05 -0.05,1.7 H 18.85 7.75 m 1.65,-3.95 9.65,-22.8 0.7,8.45 -0.1,14.4 L 9.4,-17.4 M 22.05,6.4 V -5.1 q 0.6,0.4 1.55,0.45 v 2.9 l -0.1,7.9 -0.95,0.3 -0.5,-0.05 m 0,-18.55 V -22.6 l 1.65,0.3 -0.05,1.8 v 9.75 L 23.5,-10.8 h -0.2 -0.6 q 0,-0.65 -0.65,-1.35 M 17.1,16.6 h 4.5 V 27 q -0.75,-0.6 -2.35,-0.6 -1.55,0 -2.3,0.5 L 16.9,20.85 17.1,16.6 m 4.45,13.3 -0.25,10.95 v 3.35 0.15 l -0.1,-0.05 -0.15,0.05 -4.6,-0.05 q 0.4,-2.25 0.5,-7.8 v -6.6 q 0.8,0.45 2.35,0.45 l 2.25,-0.45 m -38.25,-13.3 0.2,4.25 -0.05,5.25 q -0.9,-0.4 -2.5,-0.55 l -2.15,0.1 V 16.6 h 4.5 m 0.15,11.8 v 8.1 q 0.1,5.55 0.5,7.8 l -4.6,0.05 -0.15,-0.05 -0.1,0.05 V 44.2 40.85 L -21.15,29 h 0.35 l 3.8,-0.45 0.45,-0.15"
         fill="#a2a2a2"
         fill-rule="evenodd"
         stroke="none"
         id="path5" />
      <path
         d="m -16.8,-40.75 h 11.4 l 21.7,-0.7 0.85,-0.1 -10.2,24.15 -13.9,-0.05 -9.85,-23.3 m 22.8,25.7 -0.7,1.6 H -5.25 L -5.95,-15 6,-15.05 M 3,-8.1 0.45,-2.05 0,-1.15 -0.45,-2.05 -3,-8.1 h 6"
         fill="#cbcbcb"
         fill-rule="evenodd"
         stroke="none"
         id="path6" />
      <path
         d="m -16.8,-40.75 -1.1,-2.55 h 5.2 25.4 5.2 l -0.75,1.75 -0.85,0.1 -21.7,0.7 H -16.8 M 6.95,-17.4 6,-15.05 -5.95,-15 l -1,-2.45 13.9,0.05 M 5.3,-13.45 3,-8.1 h -6 l -2.25,-5.35 H 5.3"
         fill="#dadada"
         fill-rule="evenodd"
         stroke="none"
         id="path7" />
      <path
         d="m -23.6,-4.2 -0.05,-4.4 v -0.25 l 1.05,-0.1 0.55,0.1 v 4.55 l -1.45,0.1 h -0.1 m -0.1,-17.9 0.2,-1.45 v -0.15 l 0.05,-0.05 0.7,0.05 0.7,-0.05 v 1.85 l -0.4,0.05 -1.25,-0.25 m 4.15,13.2 v -3.7 q 0.7,-0.6 2.3,-0.85 h 9.55 l 2.3,5.35 h -11.85 q -1.6,-0.25 -2.3,-0.8 m -0.05,-6.1 -0.05,-1.6 v -0.55 l 6.95,-0.35 3.3,0.05 1.05,2.45 h -4.35 l -4.9,0.65 q -1.3,0.15 -2,-0.65 m 25.05,6.9 2.3,-5.35 h 11.1 0.75 v 5.3 L 18.85,-8.1 H 5.45 m 3,-7 0.95,-2.3 10.25,0.05 v 0.75 1.45 l -11.2,0.05 m 13.6,10 v -7.05 q 0.65,0.7 0.65,1.35 h 0.6 0.2 l 0.15,0.05 v 2.15 1.3 L 23.6,-4.65 Q 22.65,-4.7 22.05,-5.1 m 0,-17.5 v -1.15 l 0.7,0.05 0.7,-0.05 0.05,0.05 v 0.15 l 0.2,1.25 -1.65,-0.3 M 21.6,27 v 0.5 l -0.05,2.4 -2.25,0.45 q -1.55,0 -2.35,-0.45 v -2.7 -0.3 q 0.75,-0.5 2.3,-0.5 1.6,0 2.35,0.6 m -38.15,-0.9 v 1.1 1.2 L -17,28.55 -20.8,29 h -0.35 l -0.05,-1.5 v -1.85 l 2.15,-0.1 q 1.6,0.15 2.5,0.55"
         fill="#aaaaaa"
         fill-rule="evenodd"
         stroke="none"
         id="path8" />
    </g>
    <g
       id="sprite1"
       transform="translate(5.4,4)">
      <use
         ffdec:characterId="43"
         height="8"
         transform="translate(-5.4,-4)"
         width="10.8"
         xlink:href="#shape1"
         id="use8" />
    </g>
    <g
       id="shape1"
       transform="translate(5.4,4)">
      <path
         d="m 2.9,-0.35 q 0,-1.25 1.25,-1.25 1.25,0 1.25,1.2 0,1.3 -1.25,1.3 Q 3.6,0.9 3.25,0.5 2.9,0.15 2.9,-0.35 m 0.35,-2.3 q 0,0.55 -0.35,0.9 -0.4,0.45 -1,0.45 -1.35,0 -1.35,-1.4 0,-1.3 1.35,-1.3 1.35,0 1.35,1.35 m -3.1,1.9 h 0.2 q 2.6,0.1 2.6,2.8 l -0.3,1 Q 2.05,4 0.45,4 H 0.35 0.15 0.1 -0.45 q -1.6,0 -2.2,-0.95 l -0.3,-1 q 0,-2.8 2.8,-2.8 h 0.3 M -1.55,-4 q 1.35,0 1.35,1.35 0,0.55 -0.4,0.9 -0.4,0.45 -0.95,0.45 -1.4,0 -1.4,-1.4 0,-1.3 1.4,-1.3 m -2.6,2.4 q 1.25,0 1.25,1.25 0,0.5 -0.35,0.85 -0.35,0.4 -0.9,0.4 -1.25,0 -1.25,-1.3 0,-1.2 1.25,-1.2"
         fill="#b2b2b2"
         fill-rule="evenodd"
         stroke="none"
         id="path9" />
    </g>
    <g
       id="shape2"
       transform="translate(27.55,-2.15)">
      <path
         d="m 19.3,2.15 q 1.7,0.5 3.5,2.7 1.75,2.15 1.75,3.55 l -0.1,1 1.85,0.15 q 1.05,0.2 1.25,0.95 v 35.35 l -0.4,1.05 H 18.2 V 46.65 Q 17.8,46.4 17.65,46.4 v -3.45 q 0.4,-0.85 0.3,-3.15 -0.05,-1 0.15,-1.65 v -0.5 -0.4 -0.5 -6.4 q -0.25,-2.85 -0.2,-5.7 l 0.15,-2.75 -0.25,-1.4 0.05,-0.55 -8.6,0.1 h -18.5 l -8.6,-0.1 0.05,0.55 -0.25,1.4 0.15,2.75 q 0.05,2.85 -0.2,5.7 v 6.4 0.5 0.4 0.5 q 0.2,0.65 0.15,1.65 -0.1,2.3 0.3,3.15 v 3.45 q -0.15,0 -0.55,0.25 v 0.25 h -8.95 l -0.4,-1.05 V 10.5 q 0.2,-0.75 1.25,-0.95 l 1.85,-0.15 -0.1,-1 q 0,-1.2 1.25,-2.9 l 0.5,-0.65 q 1.8,-2.2 3.5,-2.7 H 19.3 M 20.1,9.45 22,9.4 21.8,8.75 19.55,5.9 Q 18.1,4.7 16.95,4.55 h -33.2 -0.7 q -1.15,0.15 -2.6,1.35 l -0.1,0.15 -0.45,0.55 -0.8,1 -0.9,1.15 -0.1,0.3 -0.1,0.35 h 0.3 0.65 1 0.1 l 0.9,0.05 H -19 l 2.4,0.05 H 6 6.25 16.6 l 3.5,-0.05 m -0.05,5.3 v 1.8 1.15 l 0.25,0.15 0.2,0.65 v 0.45 l 0.15,0.6 v 0.2 l -0.2,4.25 0.05,6.05 v 0.3 2.7 5.7 0.3 h -0.05 l -0.45,5.7 4.6,0.05 0.15,-0.05 0.1,0.05 V 44.65 41.3 l 0.05,-2.25 0.05,-1.4 v -0.4 l 0.05,-0.5 0.1,-3.7 0.05,-2.4 v -0.5 -13 L 24.9,14.25 24.85,12.8 v -0.3 l -5,-0.05 0.2,2.3 M -18.6,14.6 v 3.05 l 0.2,0.05 q 2.8,-0.25 9.15,-0.1 h 18.5 q 6.35,-0.15 9.15,0.1 l 0.2,-0.05 v -2.9 -2.3 h -37.2 v 2.15 m -1.4,0 0.15,-2.15 -5,0.05 v 0.3 l -0.05,1.8 v 0.3 l -0.25,2.25 v 11.65 1.85 l 0.05,1.5 0.15,4.6 v 0.5 0.4 h 0.05 v 1.4 h 0.05 v 2.25 3.35 0.15 l 0.1,-0.05 0.15,0.05 4.6,-0.05 -0.45,-5.7 h -0.05 v -0.3 -7.2 -1.2 -1.1 l 0.05,-5.25 -0.2,-4.25 v -0.2 l 0.15,-0.6 V 18.5 l 0.2,-0.65 0.25,-0.15 V 16.55 L -20,14.6"
         fill="#6b6b6b"
         fill-rule="evenodd"
         stroke="none"
         id="path10" />
      <path
         d="m -16.25,4.55 h 33.2 Q 18.1,4.7 19.55,5.9 L 21.8,8.75 22,9.4 20.1,9.45 19.85,9.15 19,7.5 Q 17.85,5.4 13.5,6.5 L -12.6,6.35 q -2.2,0.25 -5.3,1.9 l -0.25,0.15 -0.4,0.55 -0.45,0.5 h -0.05 l -0.9,-0.05 h -0.1 -1 -0.65 l -0.2,-0.35 0.1,-0.3 0.9,-1.15 0.8,-1 0.45,-0.55 q 0.9,-0.7 2.55,-1.3 l 0.15,0.1 0.05,0.05 0.65,-0.35"
         fill="#e9e9e9"
         fill-rule="evenodd"
         stroke="none"
         id="path11" />
      <path
         d="m -19,9.45 0.45,-0.5 0.4,-0.55 0.25,-0.15 q 3.1,-1.65 5.3,-1.9 L 13.5,6.5 q 4.35,-1.1 5.5,1 l 0.85,1.65 0.25,0.3 -3.5,0.05 H 6.25 6 -16.6 L -19,9.45"
         fill="#cccccc"
         fill-rule="evenodd"
         stroke="none"
         id="path12" />
      <path
         d="m 24.9,14.25 q -0.9,0.55 -2.5,0.5 h -2.35 l -0.2,-2.3 5,0.05 v 0.3 l 0.05,1.45 m -4.4,15.8 q 0.75,-0.5 2.3,-0.5 1.6,0 2.35,0.6 v 0.5 l -0.05,2.4 -2.25,0.45 -2.35,-0.45 v -2.7 -0.3 M 18.6,14.75 -18.6,14.6 v -2.15 h 37.2 v 2.3 m -43.5,-0.15 0.05,-1.8 v -0.3 l 5,-0.05 -0.15,2.15 h -4.75 -0.15 m 4.4,14.65 v 1.1 1.2 l -0.45,0.15 -3.8,0.45 h -0.35 l -0.05,-1.5 V 28.8 l 2.15,-0.1 2.5,0.55"
         fill="#8a8a8a"
         fill-rule="evenodd"
         stroke="none"
         id="path13" />
      <path
         d="m 20.05,14.75 h 2.35 q 1.6,0.05 2.5,-0.5 l 0.25,2.9 v 13 q -0.75,-0.6 -2.35,-0.6 -1.55,0 -2.3,0.5 L 20.45,24 l 0.2,-4.25 v -0.2 L 20.5,18.95 V 18.5 L 20.3,17.85 20.05,17.7 v -1.15 -1.8 m -1.45,0 v 2.9 L 18.4,17.7 Q 15.6,17.45 9.25,17.6 h -18.5 q -6.35,-0.15 -9.15,0.1 l -0.2,-0.05 V 14.6 l 37.2,0.15 m 6.5,18.3 -0.1,3.7 -0.05,0.5 v 0.4 l -0.05,1.4 -0.05,2.25 v 3.35 0.15 l -0.1,-0.05 -0.15,0.05 -4.6,-0.05 0.45,-5.7 h 0.05 v -0.3 -5.7 l 2.35,0.45 2.25,-0.45 m -50,-18.45 h 0.15 4.75 l -0.05,1.95 v 1.15 l -0.25,0.15 -0.2,0.65 v 0.45 l -0.15,0.6 v 0.2 l 0.2,4.25 -0.05,5.25 -2.5,-0.55 -2.15,0.1 V 17.15 l 0.25,-2.25 v -0.3 m 4.4,16.95 v 7.2 0.3 h 0.05 l 0.45,5.7 -4.6,0.05 -0.15,-0.05 -0.1,0.05 V 44.65 41.3 39.05 h -0.05 v -1.4 h -0.05 v -0.4 -0.5 l -0.15,-4.6 h 0.35 l 3.8,-0.45 0.45,-0.15"
         fill="#7b7b7b"
         fill-rule="evenodd"
         stroke="none"
         id="path14" />
    </g>
  </defs>
</svg>
