<?xml version="1.0" encoding="UTF-8" standalone="no"?>
<svg
   ffdec:objectType="frame"
   height="24.700001"
   width="19.837931"
   version="1.1"
   id="svg10"
   sodipodi:docname="2.svg"
   xmlns:inkscape="http://www.inkscape.org/namespaces/inkscape"
   xmlns:sodipodi="http://sodipodi.sourceforge.net/DTD/sodipodi-0.dtd"
   xmlns:xlink="http://www.w3.org/1999/xlink"
   xmlns="http://www.w3.org/2000/svg"
   xmlns:svg="http://www.w3.org/2000/svg"
   xmlns:ffdec="https://www.free-decompiler.com/flash">
  <sodipodi:namedview
     id="namedview10"
     pagecolor="#ffffff"
     bordercolor="#000000"
     borderopacity="0.25"
     inkscape:showpageshadow="2"
     inkscape:pageopacity="0.0"
     inkscape:pagecheckerboard="0"
     inkscape:deskcolor="#d1d1d1"
     fit-margin-top="5"
     fit-margin-left="5"
     fit-margin-right="5"
     fit-margin-bottom="5" />
  <g
     transform="translate(9.937931,12.35)"
     id="g3">
    <use
       ffdec:characterId="4184"
       height="8.1000004"
       transform="matrix(-1.1743,0,0,1.1743,6.2845,-2.5379)"
       width="11.3"
       xlink:href="#sprite0"
       id="use1" />
    <use
       ffdec:characterId="4186"
       height="24.700001"
       transform="translate(-9.95,-12.35)"
       width="19.85"
       xlink:href="#shape1"
       id="use2" />
    <use
       ffdec:characterId="3500"
       height="8"
       transform="matrix(0.89,-0.0596,0.0365,0.8214,-8.2021,4.6864)"
       width="10.8"
       xlink:href="#sprite2"
       id="use3" />
  </g>
  <defs
     id="defs10">
    <g
       id="sprite0"
       transform="translate(5.65,2.8)">
      <use
         ffdec:characterId="3615"
         height="8.0500002"
         transform="matrix(0.6975,0,0,0.6975,-5.6498,-2.79)"
         width="16.200001"
         xlink:href="#sprite1"
         id="use4" />
    </g>
    <g
       id="sprite1"
       transform="translate(8.1,4)">
      <use
         ffdec:characterId="1897"
         height="8.0500002"
         transform="translate(-8.1,-4)"
         width="16.200001"
         xlink:href="#shape0"
         id="use5" />
    </g>
    <g
       id="shape0"
       transform="translate(8.1,4)">
      <path
         d="M 2.3,0.45 0.65,0.65 Q 0.45,1.6 -0.3,2.5 -1.6,4.05 -3.95,4.05 -6.15,4.05 -7.35,2.4 -8.1,1.35 -8.1,0.55 q 0,-4.9 4.4,-4.55 1.75,0.1 3.05,1.2 l 0.8,0.85 0.8,0.1 3.15,0.65 v 0.3 q 0,1 -1.25,1.25 L 2.3,0.45"
         fill="#ffffff"
         fill-rule="evenodd"
         stroke="none"
         id="path5" />
      <path
         d="M 0.95,-1.85 Q 1.6,-3.2 4.45,-3.1 8.1,-2.9 8.1,-0.75 5.5,1.3 4.1,1.3 3.3,1.3 2.3,0.45 L 2.85,0.35 Q 4.1,0.1 4.1,-0.9 V -1.2 L 0.95,-1.85"
         fill="#ffffff"
         fill-opacity="0.501961"
         fill-rule="evenodd"
         stroke="none"
         id="path6" />
    </g>
    <g
       id="shape1"
       transform="translate(9.95,12.35)">
      <path
         d="M 7.75,-5.75 7.65,-4.1 Q 7.45,-3.55 7.6,-3 L 7.4,2.25 V 7.4 L 7.6,9.6 H -7.05 L -7.5,1.9 -7,-5.05 v -0.6 L 7.75,-5.75 M 6.6,-8.95 v 0.2 0.5 H -6.2 V -8.6 -8.95 H 6.6 M 4.15,7.5 4.2,7.9 q 0.2,0.55 0.9,0.55 l 0.55,-0.2 0.4,-0.7 Q 6.05,6.6 5.1,6.6 4.15,6.6 4.15,7.5 M -6.3,-2.95 l 0.45,1.2 q 0.8,1.1 2.55,1.1 1.15,0 1.95,-0.9 0.65,-0.75 0.65,-1.35 0,-2.6 -2.8,-2.55 -2.8,0 -2.8,2.5"
         fill="#666666"
         fill-opacity="0.329412"
         fill-rule="evenodd"
         stroke="none"
         id="path7" />
      <path
         d="m -6.3,-2.95 q 0,-2.5 2.8,-2.5 2.8,-0.05 2.8,2.55 0,0.6 -0.65,1.35 -0.8,0.9 -1.95,0.9 -1.75,0 -2.55,-1.1 L -6.3,-2.95 M 4.15,7.5 q 0,-0.9 0.95,-0.9 0.95,0 0.95,0.95 L 5.65,8.25 5.1,8.45 Q 4.4,8.45 4.2,7.9 L 4.15,7.5"
         fill="#ffffff"
         fill-rule="evenodd"
         stroke="none"
         id="path8" />
      <path
         d="m 9.7,-12.35 0.2,0.25 v 1.45 l -0.15,0.2 v 0.25 L 9.4,-9.4 Q 9.05,-9 8.45,-8.95 v 0.4 0.3 h 0.3 q 0.75,0.2 1.05,0.6 V 10.5 Q 9.55,11.9 9.15,12.35 H 8.35 L 8.2,12.1 7.7,12.2 H -7.65 L -9.7,12.1 v -18 l 0.05,-0.25 -0.05,-0.1 v -1.5 q 0.4,-0.5 1.35,-0.5 L -8.3,-8.7 v -0.25 h -0.05 q -0.95,0.05 -1.2,-0.6 -0.75,-0.6 -0.05,-2.8 H 9.7 m -3.1,3.4 H -6.2 v 0.35 0.35 H 6.6 v -0.5 -0.2 m 1.15,3.2 -14.75,0.1 v 0.6 L -7.5,1.9 -7.05,9.6 H 7.6 L 7.4,7.4 V 2.25 L 7.6,-3 Q 7.45,-3.55 7.65,-4.1 l 0.1,-1.65"
         fill="#6b6b6b"
         fill-rule="evenodd"
         stroke="none"
         id="path9" />
    </g>
    <g
       id="sprite2"
       transform="translate(5.4,4)">
      <use
         ffdec:characterId="43"
         height="8"
         transform="translate(-5.4,-4)"
         width="10.8"
         xlink:href="#shape2"
         id="use9" />
    </g>
    <g
       id="shape2"
       transform="translate(5.4,4)">
      <path
         d="m 2.9,-0.35 q 0,-1.25 1.25,-1.25 1.25,0 1.25,1.2 0,1.3 -1.25,1.3 Q 3.6,0.9 3.25,0.5 2.9,0.15 2.9,-0.35 m 0.35,-2.3 q 0,0.55 -0.35,0.9 -0.4,0.45 -1,0.45 -1.35,0 -1.35,-1.4 0,-1.3 1.35,-1.3 1.35,0 1.35,1.35 m -3.1,1.9 h 0.2 q 2.6,0.1 2.6,2.8 l -0.3,1 Q 2.05,4 0.45,4 H 0.35 0.15 0.1 -0.45 q -1.6,0 -2.2,-0.95 l -0.3,-1 q 0,-2.8 2.8,-2.8 h 0.3 M -1.55,-4 q 1.35,0 1.35,1.35 0,0.55 -0.4,0.9 -0.4,0.45 -0.95,0.45 -1.4,0 -1.4,-1.4 0,-1.3 1.4,-1.3 m -2.6,2.4 q 1.25,0 1.25,1.25 0,0.5 -0.35,0.85 -0.35,0.4 -0.9,0.4 -1.25,0 -1.25,-1.3 0,-1.2 1.25,-1.2"
         fill="#6b6b6b"
         fill-rule="evenodd"
         stroke="none"
         id="path10" />
    </g>
  </defs>
</svg>
