<?xml version="1.0" encoding="UTF-8" standalone="no"?>
<svg
   ffdec:objectType="frame"
   height="163.8"
   width="132.71542"
   version="1.1"
   id="svg51"
   sodipodi:docname="1.svg"
   xmlns:inkscape="http://www.inkscape.org/namespaces/inkscape"
   xmlns:sodipodi="http://sodipodi.sourceforge.net/DTD/sodipodi-0.dtd"
   xmlns:xlink="http://www.w3.org/1999/xlink"
   xmlns="http://www.w3.org/2000/svg"
   xmlns:svg="http://www.w3.org/2000/svg"
   xmlns:ffdec="https://www.free-decompiler.com/flash">
  <sodipodi:namedview
     id="namedview51"
     pagecolor="#ffffff"
     bordercolor="#000000"
     borderopacity="0.25"
     inkscape:showpageshadow="2"
     inkscape:pageopacity="0.0"
     inkscape:pagecheckerboard="0"
     inkscape:deskcolor="#d1d1d1"
     fit-margin-top="5"
     fit-margin-left="5"
     fit-margin-right="5"
     fit-margin-bottom="5" />
  <g
     transform="translate(66.5,87)"
     id="g36">
    <use
       ffdec:characterId="835"
       height="9.75"
       transform="matrix(1.0718,0,0,0.8513,-1.25,-87)"
       width="59.75"
       xlink:href="#sprite0"
       id="use1" />
    <use
       ffdec:characterId="835"
       height="9.75"
       transform="matrix(1.0718,0,0,0.8513,-63.15,-87)"
       width="59.75"
       xlink:href="#sprite0"
       id="use2" />
    <use
       ffdec:characterId="818"
       height="38.049999"
       transform="matrix(-1,0,0,1.103,16.1,-0.5933)"
       width="33.25"
       xlink:href="#sprite1"
       id="use3" />
    <use
       ffdec:characterId="816"
       height="21.299999"
       transform="matrix(0,-1.154,1,0,14.4,-17.05)"
       width="41.349998"
       xlink:href="#sprite2"
       id="use4" />
    <use
       ffdec:characterId="816"
       height="21.299999"
       transform="matrix(0,-1.2575,1,0,14.4,46.7)"
       width="41.349998"
       xlink:href="#sprite2"
       id="use5" />
    <use
       ffdec:characterId="816"
       height="21.299999"
       transform="matrix(0,-1.154,1,0,-37,-17.05)"
       width="41.349998"
       xlink:href="#sprite2"
       id="use6" />
    <use
       ffdec:characterId="835"
       height="9.75"
       transform="matrix(0,1.0122,-1,0,46.7,-64.5)"
       width="59.75"
       xlink:href="#sprite0"
       id="use7" />
    <use
       ffdec:characterId="835"
       height="9.75"
       transform="matrix(0,0.9,-1,0,46.75,-5.55)"
       width="59.75"
       xlink:href="#sprite0"
       id="use8" />
    <use
       ffdec:characterId="835"
       height="9.75"
       transform="matrix(0,1.0122,-1,0,-38.05,-63.9)"
       width="59.75"
       xlink:href="#sprite0"
       id="use9" />
    <use
       ffdec:characterId="835"
       height="9.75"
       transform="matrix(0,0.9,-1,0,-38.1,-5.55)"
       width="59.75"
       xlink:href="#sprite0"
       id="use10" />
    <use
       ffdec:characterId="818"
       height="38.049999"
       transform="matrix(-1,0,0,1.0122,15.75,-59.7933)"
       width="33.25"
       xlink:href="#sprite1"
       id="use11" />
    <use
       ffdec:characterId="816"
       height="21.299999"
       transform="matrix(0,-1.2575,1,0,-37,46.7)"
       width="41.349998"
       xlink:href="#sprite2"
       id="use12" />
    <use
       ffdec:characterId="822"
       height="16.299999"
       transform="translate(-59.6,10.05)"
       width="12.55"
       xlink:href="#sprite3"
       id="use13" />
    <use
       ffdec:characterId="835"
       height="9.75"
       transform="matrix(1.5784,0,0,0.7959,-47.1,59.1)"
       width="59.75"
       xlink:href="#sprite4"
       id="use14" />
    <use
       ffdec:characterId="820"
       height="13.8"
       transform="matrix(0,-0.7884,1.0938,0,-60.15,76.8)"
       width="66.349998"
       xlink:href="#sprite5"
       id="use15" />
    <use
       ffdec:characterId="826"
       height="4.3000002"
       transform="matrix(0.6986,0,0,1,-58.4,22.1)"
       width="14.6"
       xlink:href="#sprite6"
       id="use16" />
    <use
       ffdec:characterId="822"
       height="16.299999"
       transform="translate(45.8,10.05)"
       width="12.55"
       xlink:href="#sprite3"
       id="use17" />
    <use
       ffdec:characterId="820"
       height="13.8"
       transform="matrix(0,-0.7884,1.0938,0,44.45,76.65)"
       width="66.349998"
       xlink:href="#sprite5"
       id="use18" />
    <use
       ffdec:characterId="826"
       height="4.3000002"
       transform="matrix(0.6986,0,0,1,47,22.1)"
       width="14.6"
       xlink:href="#sprite6"
       id="use19" />
    <use
       ffdec:characterId="820"
       height="13.8"
       transform="matrix(0,-1.0719,1.0938,0,-60.15,11.85)"
       width="66.349998"
       xlink:href="#sprite5"
       id="use20" />
    <use
       ffdec:characterId="826"
       height="4.3000002"
       transform="matrix(0.6986,0,0,1.213,-57.7,-64.25)"
       width="14.6"
       xlink:href="#sprite6"
       id="use21" />
    <use
       ffdec:characterId="820"
       height="13.8"
       transform="matrix(0,-1.0719,1.0938,0,44.45,11.7)"
       width="66.349998"
       xlink:href="#sprite5"
       id="use22" />
    <use
       ffdec:characterId="826"
       height="4.3000002"
       transform="matrix(0.6986,0,0,1.213,47,-64.25)"
       width="14.6"
       xlink:href="#sprite6"
       id="use23" />
    <use
       ffdec:characterId="826"
       height="4.3000002"
       transform="matrix(0.6986,0,0,1,-58.4,11.25)"
       width="14.6"
       xlink:href="#sprite6"
       id="use24" />
    <use
       ffdec:characterId="826"
       height="4.3000002"
       transform="matrix(0.6986,0,0,1,47,11.25)"
       width="14.6"
       xlink:href="#sprite6"
       id="use25" />
    <use
       ffdec:characterId="835"
       height="9.75"
       transform="matrix(1.1183,0,0,0.7959,-65.6,-70.3)"
       width="59.75"
       xlink:href="#sprite4"
       id="use26" />
    <use
       ffdec:characterId="835"
       height="9.75"
       transform="matrix(1.1181,0,0,0.7959,-1.4,-70.3)"
       width="59.75"
       xlink:href="#sprite4"
       id="use27" />
    <use
       ffdec:characterId="838"
       height="13.8"
       transform="matrix(1.1092,0,0,1,-66.5,-81.65)"
       width="41.349998"
       xlink:href="#sprite7"
       id="use28" />
    <use
       ffdec:characterId="838"
       height="13.8"
       transform="matrix(1.1092,0,0,1,-22.65,-81.65)"
       width="41.349998"
       xlink:href="#sprite7"
       id="use29" />
    <use
       ffdec:characterId="838"
       height="13.8"
       transform="matrix(1.1092,0,0,1,20.35,-81.65)"
       width="41.349998"
       xlink:href="#sprite7"
       id="use30" />
    <use
       ffdec:characterId="838"
       height="13.8"
       transform="matrix(1.1794,0,0,1,-47.3,-18.15)"
       width="41.349998"
       xlink:href="#sprite7"
       id="use31" />
    <use
       ffdec:characterId="838"
       height="13.8"
       transform="matrix(1.1249,0,0,1,-0.65,-18.15)"
       width="41.349998"
       xlink:href="#sprite7"
       id="use32" />
    <use
       ffdec:characterId="838"
       height="13.8"
       transform="matrix(1.1794,0,0,1.0724,-47.3,45.6)"
       width="41.349998"
       xlink:href="#sprite7"
       id="use33" />
    <use
       ffdec:characterId="838"
       height="13.8"
       transform="matrix(1.1249,0,0,1.0724,-0.65,45.6)"
       width="41.349998"
       xlink:href="#sprite7"
       id="use34" />
    <use
       ffdec:characterId="835"
       height="9.75"
       transform="matrix(0.805,0,0,0.7959,-47.1,66.5)"
       width="59.75"
       xlink:href="#sprite4"
       id="use35" />
    <use
       ffdec:characterId="835"
       height="9.75"
       transform="matrix(0.7975,0,0,0.7959,-0.6,66.5)"
       width="59.75"
       xlink:href="#sprite4"
       id="use36" />
  </g>
  <defs
     id="defs51">
    <g
       id="sprite0">
      <use
         ffdec:characterId="834"
         height="9.75"
         width="59.75"
         xlink:href="#shape0"
         id="use37" />
    </g>
    <g
       id="shape0">
      <path
         d="M 0.5,8.7 Q 0.15,8.15 0,7 V 4.55 Q 0,1.1 0.6,0 H 2.05 L 2.1,0.1 H 57.65 L 57.7,0 h 1.45 q 0.6,1.1 0.6,4.55 V 7 Q 59.6,8.35 59.15,8.85 58.95,9.7 57.9,9.75 H 1.85 Q 1.1,9.7 0.8,9.25 L 0.6,8.85 0.5,8.7 M 56.15,3.65 54.95,4.6 V 4.75 5.1 L 55.9,5.95 57.05,7.25 57,6.95 V 4.6 l 0.05,-1.8 -0.9,0.85 m -11.5,3.6 h 11.4 l -0.7,-0.6 Q 54.15,5.7 54.05,5.25 H 46.65 44.6 31.45 27.5 25.1 22.85 5.7 l -1.3,1.4 -0.7,0.6 h 16.7 2.35 2.8 3.65 13.65 1.8 m 2.95,-3 h 6.7 q 0.3,-0.55 1.9,-1.5 h -7.15 -1.8 -13.2 -3.7 -2.6 -1.4 H 6.85 5.7 3.55 q 0.8,0.45 1.3,0.85 l 0.6,0.65 h 0.15 18.6 2 2.4 3.95 13.05 2 M 2.75,5.75 v 1.2 L 2.7,7.25 Q 3,6.75 3.85,5.95 L 4.8,5.1 V 4.75 4.6 L 4.25,4.2 3.6,3.65 2.7,2.8 2.75,4.6 v 1.15"
         fill="#9a9a9a"
         fill-rule="evenodd"
         stroke="none"
         id="path37" />
      <path
         d="m 0.5,8.7 0.1,0.15 0.2,0.4 -0.2,0.1 Q 0.4,9.65 0.4,9.05 L 0.5,8.7 m 46.15,-3.45 -2,2 h -1.8 l 1.75,-2 h 2.05 m -17.45,2 h -3.65 l 1.95,-2 h 3.95 L 30.85,5.8 29.2,7.25 m -6.45,0 H 20.4 q 0.8,-0.75 2.45,-2 h 2.25 l -2.35,2 m 24.85,-3 h -2 l 0.15,-0.15 1.5,-1.35 h 1.8 l -1.45,1.5 m -15.05,0 H 28.6 l 1.25,-1.1 0.5,-0.4 h 3.7 l -1.5,1.5 m -6.35,0 h -2 l 2.15,-1.5 h 1.4 l -1.55,1.5 m -20.6,0 H 5.45 L 4.85,3.6 5.7,2.75 H 6.85 L 5.6,4.25 M 4.25,4.2 4.8,4.6 V 4.75 5.1 L 3.85,5.95 Q 3,6.75 2.7,7.25 L 2.75,6.95 V 5.75 L 3.4,5.05 4.25,4.2"
         fill="#d2d2d2"
         fill-rule="evenodd"
         stroke="none"
         id="path38" />
    </g>
    <g
       id="sprite1"
       transform="translate(-0.65,-0.55)">
      <use
         ffdec:characterId="817"
         height="38.049999"
         transform="translate(0.65,0.55)"
         width="33.25"
         xlink:href="#shape1"
         id="use38" />
    </g>
    <g
       id="shape1"
       transform="translate(-0.65,-0.55)">
      <path
         d="M 31.9,10.4 32,8.25 31.45,8.35 Q 30,8.9 27.25,8.9 h -0.7 l -0.15,-0.05 0.1,0.2 v 0.35 8.9 3.1 5.35 l -0.35,3.3 3.15,-0.2 q 1.55,0.1 2.65,0.75 -0.4,-2.05 -0.4,-5.35 l 0.2,-6.05 0.05,-4.55 0.05,-3.2 0.05,-1.05 M 1.3,33.65 0.9,33.05 v -1.2 L 0.65,30.65 V 6.7 L 2.8,4.3 5.15,1.45 6.65,0.55 h 21.5 q 0.65,0.3 1.45,0.9 l 2.35,2.85 1.95,2.2 v 26.55 l -2.3,3.1 q -1.6,2.1 -2.85,2.4 V 38.6 H 6.05 L 6,38.55 Q 4.75,38.25 3.15,36.15 L 1.95,34.55 1.3,33.65 M 29.05,4.2 27.75,2.8 27.5,2.5 27.35,2.35 h -0.1 V 2.5 2.6 l -0.1,0.55 -0.6,2 -0.6,2.45 0.05,0.1 1.4,-0.2 4.35,-0.7 -2,-1.9 -0.7,-0.7 M 9,3.95 9.35,5.3 9.95,7.35 H 24.8 L 25.4,5.3 25.85,3.55 26.15,2.5 H 22.75 20.3 14.45 12 9.85 8.6 L 8.95,3.75 9,3.95 m 16,8.1 V 9.5 L 24.55,9.3 V 9.15 l -2,0.05 h -1.8 l -1.3,0.05 H 18.15 17.4 16.6 L 10.2,9.15 V 9.3 L 9.75,9.5 v 13.25 2.6 1.65 3.25 h 1.15 0.7 0.4 0.95 1.5 5.45 0.4 0.8 1.65 H 25 V 23.45 22.2 12.05 M 8.05,4.6 Q 7.5,2.95 7.5,2.5 V 2.35 H 7.4 V 2.4 L 5,4.9 4.3,5.65 3.3,6.65 3.1,6.8 3.25,6.85 3.75,6.9 5.05,7.15 8.75,7.7 8.8,7.6 8.75,7.15 8.2,5.15 8.05,4.6 M 8.3,9.35 V 9.05 L 8.35,8.85 7.5,8.9 3.3,8.35 2.75,8.25 2.95,14.65 3,16.7 3.05,19.2 3.2,25.25 V 26 L 3.15,27.85 3.1,28.3 2.85,30.3 2.8,30.6 q 1.15,-0.65 2.7,-0.75 h 1.55 l 1,0.1 0.55,0.1 L 8.55,29.6 8.45,29.1 8.3,26.75 v -7.05 -0.85 -7.8 -1.7 m 11.55,22.8 H 9.6 L 8.8,34.7 8.1,36.6 12,36.5 h 2.45 1.95 1.1 1.6 1.2 2.45 l 4,0.1 -0.8,-1.9 -0.8,-2.55 h -3.9 -1.4 M 8.45,31.15 8.3,30.8 V 30.75 H 8.75 L 8.7,30.45 8.2,30.7 5.4,31.55 3.1,32.1 l 1.35,1.1 0.3,0.3 2,2.2 0.65,-2.05 Q 7.95,32.15 8.55,31.3 L 8.45,31.15 M 26,30.75 h 0.5 l -0.3,0.55 1.15,2.35 0.65,2.05 2,-2.2 q 0.95,-0.85 1.75,-1.4 l -2.4,-0.55 -3.25,-1.1 -0.1,0.3"
         fill="#9a9a9a"
         fill-rule="evenodd"
         stroke="none"
         id="path39" />
      <path
         d="m 31.9,10.4 -0.05,1.05 -2,4.15 -1.8,3.6 -1.55,2.2 V 18.3 L 28,15.6 q 1.95,-3.4 3.9,-5.2 m -5.4,-1 V 9.05 L 26.4,8.85 26.55,8.9 V 9.2 L 26.5,9.4 M 1.95,34.55 Q 1.3,34.5 1.3,33.7 v -0.05 l 0.65,0.9 M 27.4,7.5 26,7.7 25.95,7.6 l 0.6,-2.45 0.6,-2 0.1,-0.55 V 2.5 2.35 h 0.1 l 0.15,0.15 0.25,0.3 1.3,1.4 -1.65,3.3 M 25.85,3.55 16.1,4.2 9,3.95 8.95,3.75 8.6,2.5 h 1.25 2.15 2.45 5.85 2.45 3.4 l -0.3,1.05 m -3.3,5.65 2,-0.05 V 9.3 L 25,9.5 v 2.55 l -4.5,7.15 -0.75,1.15 q -5,7.75 -6.8,9.9 H 12 11.6 10.9 9.75 V 27 l 5.05,-7.8 1.25,-1.85 q 4.55,-6.6 6.5,-8.15 m 2.45,13 v 1.25 l -1.5,3 q -1.3,2.45 -2.4,3.8 h -0.8 -0.4 l 2.15,-3.9 q 1.5,-2.8 2.95,-4.15 m -5.55,-12.95 1.3,-0.05 -4.6,7.1 -1.95,2.9 -4.45,6.15 v -2.6 l 2.35,-3.55 0.75,-1.1 q 4.05,-5.9 6.6,-8.85 M 3.3,6.65 4.3,5.65 5,4.9 7.4,2.4 V 2.35 H 7.5 V 2.5 q 0,0.45 0.55,2.1 L 6.55,5.9 Q 8.3,6.5 8.75,7.15 L 8.8,7.6 8.75,7.7 5.05,7.15 3.75,6.9 3.25,6.85 3.3,6.65 M 3,16.7 4.4,14.35 q 2.35,-3.65 3.9,-5 v 1.7 l -0.8,1.2 -1.85,2.7 -1.4,2.5 L 3.05,19.2 3,16.7 m 5.3,2.15 V 19.7 L 5.9,23.6 3.15,27.85 3.2,26 4.65,23.45 7.35,19.2 7.65,18.7 h 0.5 l 0.15,0.15 m 0.15,10.25 0.1,0.5 0.05,0.45 -0.55,-0.1 -1,-0.1 1.15,-0.3 0.25,-0.45 m 9.05,7.4 q 0.3,-0.9 1.3,-2.65 l 1.05,-1.7 h 1.4 L 19.9,35.1 19.1,36.5 H 17.5 M 4.45,33.2 3.1,32.1 5.4,31.55 8.2,30.7 8.7,30.45 8.75,30.75 H 8.3 v 0.05 l 0.15,0.35 -0.6,0.35 -2.8,1.25 -0.6,0.45"
         fill="#d2d2d2"
         fill-rule="evenodd"
         stroke="none"
         id="path40" />
    </g>
    <g
       id="sprite2">
      <use
         ffdec:characterId="815"
         height="21.299999"
         width="41.349998"
         xlink:href="#shape2"
         id="use40" />
    </g>
    <g
       id="shape2">
      <path
         d="m 41.2,2.8 -0.05,3.9 v 8.15 0.4 l 0.05,4.7 0.05,0.35 -0.3,0.15 -0.55,0.2 -2.45,0.65 H 3.4 L 0.95,20.65 0.4,20.45 0.1,20.3 0.15,19.95 0.2,15.25 V 14.85 6.7 L 0.15,2.8 0,1 Q 0.8,0.25 4.15,0 H 37.2 q 3.35,0.25 4.15,1 L 41.2,2.8 M 30,4.75 h 5.95 l 1,-1.3 L 37.45,3 H 37.2 31.05 24.3 21.8 20.8 4.15 3.9 l 0.5,0.45 1,1.3 h 7.4 V 4.7 h 1.8 v 0.05 h 2.95 V 4.7 h 1.05 0.25 v 0.05 h 1.2 2.45 7.5 M 38.6,3.7 37.2,4.95 37,5.05 36.8,5.25 q -0.1,0 -0.15,0.1 l -0.1,1.35 v 0.1 2.35 l -0.1,0.8 q -0.15,1.6 -0.15,5.3 v 0.1 0.1 l 0.6,0.55 0.3,0.45 h 0.05 l 0.4,0.4 1,1 V 15.7 15.25 L 38.7,6.7 38.9,3.4 38.6,3.7 m -2.95,2 V 5.65 l -6.5,0.05 h -7.7 -1.1 L 21.4,5.75 H 19 17.3 12.8 V 5.7 L 5.7,5.65 5.85,6.7 5.9,15.25 v 0.05 h 0.45 2.7 2.25 7.65 8.6 2.25 5.65 V 15.25 L 35.5,8.2 V 6.7 l 0.15,-1 M 25.25,18.25 H 27.2 37.35 Q 36.6,17.6 36.4,17 L 36.05,16.9 H 36 L 35.6,16.3 H 28.95 26.75 17.8 10.3 8 5.75 l -0.4,0.6 H 5.3 L 4.95,17 4,18.25 H 6 8.55 12.8 V 18.2 h 1.8 v 0.05 h 0.75 2.2 V 18.2 h 1.3 v 0.05 h 6.4 M 2.45,3.4 2.65,6.7 2.7,15.25 v 0.45 2.15 l 1,-1 0.4,-0.4 H 4.15 L 4.45,16 5.05,15.45 v -0.1 -0.1 L 4.9,9.95 4.8,9.15 V 6.7 L 4.7,5.35 4.55,5.25 4.35,5.05 4.15,4.95 2.45,3.4"
         fill="#9a9a9a"
         fill-rule="evenodd"
         stroke="none"
         id="path41" />
      <path
         d="M 30,4.75 H 22.5 L 24.05,3.2 24.3,3 h 6.75 V 3.1 L 30,4.75 m -9.95,0 h -1.2 V 4.7 H 18.6 L 20.8,3 h 1 L 20.05,4.75 M 36.55,6.8 V 6.7 l 0.1,-1.35 Q 36.7,5.25 36.8,5.25 L 37,5.05 37.2,4.95 38.6,3.7 36.55,6.8 m -7.4,-1.1 -7,6.75 -3.2,2.85 H 11.3 l 1.65,-1.6 5.6,-5.25 2.75,-2.6 0.1,-0.1 h 0.05 V 5.7 h 7.7 m -1.6,9.6 2.1,-2.6 6,-7 -0.15,1 v 1.5 l -2,2.55 -3.7,4.55 H 27.55 M 19,5.75 13.15,11.4 9.05,15.3 h -2.7 l 6.4,-5.75 4.55,-3.8 H 19 m 6.25,12.5 1.5,-1.95 h 2.2 L 27.2,18.25 H 25.25 M 17.8,16.3 15.35,18.25 H 14.6 V 18.2 h -1.8 v 0.05 H 8.55 L 10.3,16.3 h 7.5 M 8,16.3 6,18.25 H 4 L 4.95,17 5.3,16.9 h 0.05 l 0.4,-0.6 H 8"
         fill="#d2d2d2"
         fill-rule="evenodd"
         stroke="none"
         id="path42" />
    </g>
    <g
       id="sprite3">
      <use
         ffdec:characterId="821"
         height="16.299999"
         width="12.55"
         xlink:href="#shape3"
         id="use42" />
    </g>
    <g
       id="shape3">
      <path
         d="M 10.6,8.3 10.7,8.15 9.75,8.2 7.15,8.3 h -0.5 l 0.1,4.25 V 13 L 7.25,12.35 10.8,8.3 h -0.2 m 1.9,-0.15 0.05,0.15 q -4.5,7.1 -6.2,7.95 V 16.3 H 6.3 6.2 V 16.25 Q 4.5,15.4 0,8.3 L 0.05,8.15 0,8 Q 3.55,2.4 5.35,0.7 L 6.2,0.05 V 0 H 6.3 6.35 V 0.05 L 7.2,0.7 Q 9,2.4 12.55,8 L 12.5,8.15 M 6.5,3.3 V 4.1 L 6.6,7.7 7.15,7.65 10.5,7.7 7.25,3.95 6.45,2.85 6.5,3.3 M 6.1,4.9 6.15,2.9 5.3,3.95 2.35,7.4 1.95,7.85 h 0.3 L 4.1,7.8 6,7.7 6.1,4.9 M 2.3,8.25 H 1.95 L 2,8.3 H 1.75 l 1.9,2.05 1.65,2 0.6,0.8 0.05,-2.65 V 8.3 H 4.65 L 2.3,8.25"
         fill="#6b6b6b"
         fill-rule="evenodd"
         stroke="none"
         id="path43" />
      <path
         d="M 6.5,4.1 V 3.3 L 6.6,3.65 6.5,4.1 M 2.35,7.4 5.3,3.95 6.15,2.9 6.1,4.9 5.1,6.4 4.1,7.8 2.25,7.85 V 7.8 L 2.35,7.4 M 3.65,10.35 3.2,8.8 H 3.15 Q 2.5,8.65 2.3,8.3 V 8.25 l 2.35,0.05 1.15,1.9 0.15,0.3 -0.05,2.65 -0.6,-0.8 -1.65,-2"
         fill="#ffffff"
         fill-rule="evenodd"
         stroke="none"
         id="path44" />
    </g>
    <g
       id="sprite4">
      <use
         ffdec:characterId="834"
         height="9.75"
         width="59.75"
         xlink:href="#shape4"
         id="use44" />
    </g>
    <g
       id="shape4">
      <path
         d="M 0.5,8.7 Q 0.15,8.15 0,7 V 4.55 Q 0,1.1 0.6,0 H 2.05 L 2.1,0.1 H 57.65 L 57.7,0 h 1.45 q 0.6,1.1 0.6,4.55 V 7 Q 59.6,8.35 59.15,8.85 58.95,9.7 57.9,9.75 H 1.85 Q 1.1,9.7 0.8,9.25 L 0.6,8.85 0.5,8.7 M 56.15,3.65 54.95,4.6 V 4.75 5.1 L 55.9,5.95 57.05,7.25 57,6.95 V 4.6 l 0.05,-1.8 -0.9,0.85 m -11.5,3.6 h 11.4 l -0.7,-0.6 Q 54.15,5.7 54.05,5.25 H 46.65 44.6 31.45 27.5 25.1 22.85 5.7 l -1.3,1.4 -0.7,0.6 h 16.7 2.35 2.8 3.65 13.65 1.8 m 2.95,-3 h 6.7 q 0.3,-0.55 1.9,-1.5 h -7.15 -1.8 -13.2 -3.7 -2.6 -1.4 H 6.85 5.7 3.55 q 0.8,0.45 1.3,0.85 l 0.6,0.65 h 0.15 18.6 2 2.4 3.95 13.05 2 M 2.75,5.75 v 1.2 L 2.7,7.25 Q 3,6.75 3.85,5.95 L 4.8,5.1 V 4.75 4.6 L 4.25,4.2 3.6,3.65 2.7,2.8 2.75,4.6 v 1.15"
         fill="#6b6b6b"
         fill-rule="evenodd"
         stroke="none"
         id="path45" />
      <path
         d="m 0.5,8.7 0.1,0.15 0.2,0.4 -0.2,0.1 Q 0.4,9.65 0.4,9.05 L 0.5,8.7 m 46.15,-3.45 -2,2 h -1.8 l 1.75,-2 h 2.05 m -17.45,2 h -3.65 l 1.95,-2 h 3.95 L 30.85,5.8 29.2,7.25 m -6.45,0 H 20.4 q 0.8,-0.75 2.45,-2 h 2.25 l -2.35,2 m 24.85,-3 h -2 l 0.15,-0.15 1.5,-1.35 h 1.8 l -1.45,1.5 m -15.05,0 H 28.6 l 1.25,-1.1 0.5,-0.4 h 3.7 l -1.5,1.5 m -6.35,0 h -2 l 2.15,-1.5 h 1.4 l -1.55,1.5 m -20.6,0 H 5.45 L 4.85,3.6 5.7,2.75 H 6.85 L 5.6,4.25 M 4.25,4.2 4.8,4.6 V 4.75 5.1 L 3.85,5.95 Q 3,6.75 2.7,7.25 L 2.75,6.95 V 5.75 L 3.4,5.05 4.25,4.2"
         fill="#ffffff"
         fill-rule="evenodd"
         stroke="none"
         id="path46" />
    </g>
    <g
       id="sprite5">
      <use
         ffdec:characterId="819"
         height="13.8"
         width="66.349998"
         xlink:href="#shape5"
         id="use46" />
    </g>
    <g
       id="shape5">
      <path
         d="M 2,13.45 0.95,13.15 0.4,12.95 0.1,12.8 0.15,12.45 0.2,7.7 0.15,2.8 0,1 Q 0.8,0.25 4.15,0 H 62.2 q 3.35,0.25 4.15,1 l -0.15,1.8 -0.05,4.9 0.05,4.75 0.05,0.35 -0.3,0.15 -0.55,0.2 -2.45,0.65 H 3.4 L 2.1,13.5 2,13.45 m 60.2,-8.5 -0.2,0.1 -0.2,0.2 q -0.1,0 -0.15,0.1 L 61.55,6.7 V 7 l -0.1,0.1 Q 61.3,7.3 61.3,7.8 h 0.05 v 0.15 l 0.55,0.55 0.3,0.45 h 0.05 l 0.4,0.4 1,1 V 8.2 q 0,-2.95 0.25,-4.8 L 62.2,4.95 M 56.1,4.7 H 61 L 61.95,3.45 62.45,3 H 62.2 57.55 56.05 33.7 29.3 27.75 25.75 10.55 10.1 4.15 3.9 l 0.5,0.45 1,1.3 h 2.9 1.8 13.6 2.7 1.1 4.95 17.4 V 4.7 h 4.65 1.6 m -5.35,6 h 4.35 v 0.05 h 1.85 V 10.7 h 4.4 v 0.05 h 1 Q 61.6,10.1 61.4,9.5 L 61.05,9.4 H 61 L 60.6,8.8 H 52.4 50.85 29.2 24 22.95 20.25 6.4 5.75 L 5.35,9.4 H 5.3 L 4.95,9.5 4,10.75 h 0.55 14.3 2.2 1.9 4.45 21.95 0.5 V 10.7 h 0.9 M 53.3,7.8 h 7.15 q 0,-1.25 0.15,-2.05 H 60.45 58.7 58.3 56.95 V 5.7 H 55.2 55.1 V 5.75 H 53.55 53.25 52.8 49.85 V 5.7 H 31.7 26.6 25.65 22.8 20.05 14.45 13.95 9.3 L 7.45,5.65 H 5.7 L 5.9,7.3 v 0.5 h 1.4 13.75 2.8 0.9 5.3 21.7 1.55 M 60.65,5.65 57.9,5.7 h 2.75 V 5.65 M 4.55,5.25 4.35,5.05 4.15,4.95 2.45,3.4 2.7,8.2 v 2.15 l 1,-1 0.4,-0.4 H 4.15 L 4.45,8.5 5.05,7.95 V 7.85 L 4.9,7.1 4.8,7 V 6.7 L 4.7,5.35 4.55,5.25"
         fill="#6b6b6b"
         fill-rule="evenodd"
         stroke="none"
         id="path47" />
      <path
         d="M 2,13.45 2.1,13.5 H 2.05 L 2,13.45 M 57.55,3 56.1,4.7 H 54.5 L 56.05,3 h 1.5 M 32.45,4.75 H 27.5 l 0.8,-0.8 1,-0.95 h 4.4 l -1.25,1.75 m -6.05,0 H 23.7 Q 24.75,3.7 25.75,3 h 2 L 26.4,4.75 m -16.3,0 H 8.3 L 10.1,3 h 0.45 l 0.5,0.5 -0.95,1.25 m 42.3,4.05 -1.65,1.9 h -0.9 v 0.05 h -0.5 q 0.1,-0.35 1.5,-1.95 h 1.55 m -25,1.95 H 22.95 Q 23.1,10 24,8.8 h 5.2 l -1.8,1.95 m -6.35,0 h -2.2 l 1.4,-1.95 h 2.7 l -1.9,1.95 m -16.5,0 H 4 L 4.95,9.5 5.3,9.4 H 5.35 L 5.75,8.8 H 6.4 L 4.55,10.75 M 55.2,5.7 54.8,6.15 53.3,7.8 h -1.55 l 1,-1.15 0.8,-0.9 H 55.1 V 5.7 h 0.1 M 30.05,7.8 h -5.3 L 26.6,5.7 h 5.1 l -1.65,2.1 m -6.2,0 h -2.8 L 22.8,5.7 h 2.85 l -1.8,2.1 M 7.3,7.8 H 5.9 V 7.3 L 7.45,5.65 9.3,5.7 7.45,7.65 7.3,7.8"
         fill="#ffffff"
         fill-rule="evenodd"
         stroke="none"
         id="path48" />
    </g>
    <g
       id="sprite6">
      <use
         ffdec:characterId="825"
         height="4.3000002"
         width="14.6"
         xlink:href="#shape6"
         id="use48" />
    </g>
    <g
       id="shape6">
      <path
         d="M 11.6,4.3 H 3 Q 2.25,3.8 2.25,3.4 L 2.3,3.1 Q 0,3.05 0,1.8 0,0.35 1.05,0 h 12.5 q 1.05,0.35 1.05,1.8 0,1.25 -2.3,1.3 l 0.05,0.3 q 0,0.4 -0.75,0.9"
         fill="#6b6b6b"
         fill-rule="evenodd"
         stroke="none"
         id="path49" />
    </g>
    <g
       id="sprite7">
      <use
         ffdec:characterId="837"
         height="13.8"
         width="41.349998"
         xlink:href="#shape7"
         id="use49" />
    </g>
    <g
       id="shape7">
      <path
         d="m 41.25,12.8 -0.3,0.15 -0.55,0.2 -2.45,0.65 H 3.4 L 0.95,13.15 0.4,12.95 0.1,12.8 0.15,12.45 0.2,7.7 0.15,2.8 0,1 Q 0.8,0.25 4.15,0 H 37.2 q 3.35,0.25 4.15,1 l -0.15,1.8 -0.05,4.9 0.05,4.75 0.05,0.35 M 33.85,4.7 H 36 L 36.95,3.45 37.45,3 H 37.2 35.4 33.75 21.15 17.1 15.25 14.4 4.15 3.9 l 0.5,0.45 1,1.3 h 7.15 1.4 1.6 4.65 4.65 V 4.7 h 6.85 2.15 m 1.8,0.95 -2.6,0.05 h 2.6 V 5.65 M 31.4,7.8 h 4.05 q 0,-1.25 0.15,-2.05 H 35.45 33.7 33.3 33 31.95 V 5.7 H 30.85 30.1 V 5.75 H 28.25 27.8 24.85 V 5.7 H 19.6 14.75 13.1 11.5 L 5.7,5.65 5.9,7.8 h 3.4 1.75 2.1 4.95 11.25 2.05 M 36.65,5.35 36.55,6.7 V 7 l -0.1,0.1 Q 36.3,7.3 36.3,7.8 h 0.05 v 0.15 l 0.55,0.55 0.3,0.45 h 0.05 l 0.4,0.4 1,1 V 8.2 q 0,-2.95 0.25,-4.8 l -1.7,1.55 -0.2,0.1 -0.2,0.2 q -0.1,0 -0.15,0.1 M 29,10.75 30.1,10.7 v 0.05 h 1.85 V 10.7 h 4.4 v 0.05 h 1 Q 36.6,10.1 36.4,9.5 L 36.05,9.4 H 36 L 35.6,8.8 H 30.65 28.75 17.35 12.4 10.05 8.3 5.75 L 5.35,9.4 H 5.3 L 4.95,9.5 4,10.75 H 6.5 8 11.15 15.6 24.85 V 10.7 l 2.9,0.05 H 29 M 4.35,5.05 4.15,4.95 2.45,3.4 2.7,8.2 v 2.15 l 1,-1 0.4,-0.4 H 4.15 L 4.45,8.5 5.05,7.95 V 7.85 L 4.9,7.1 4.8,7 V 6.7 L 4.7,5.35 4.55,5.25 4.35,5.05"
         fill="#6b6b6b"
         fill-rule="evenodd"
         stroke="none"
         id="path50" />
      <path
         d="M 35.4,3 33.85,4.7 H 31.7 L 33.75,3 H 35.4 M 20.2,4.75 H 15.55 L 16.25,3.9 17.1,3 h 4.05 L 20.2,4.75 m -6.25,0 h -1.4 L 14.4,3 h 0.85 l -1.3,1.75 M 33,5.75 32,7 31.4,7.8 H 29.35 L 30.8,5.75 30.85,5.7 h 1.1 V 5.75 H 33 M 18.1,7.8 h -4.95 l 1.6,-2.1 H 19.6 L 18.2,7.65 18.1,7.8 m -7.05,0 H 9.3 L 10.15,6.95 11.5,5.7 h 1.6 l -1.45,1.5 -0.6,0.6 m 19.6,1 -1.65,1.95 h -1.25 l 1,-1.95 h 1.9 M 15.6,10.75 H 11.15 V 10.6 L 12.4,8.8 h 4.95 l -1.75,1.95 m -7.6,0 H 6.5 L 8.3,8.8 h 1.75 L 8,10.75"
         fill="#ffffff"
         fill-rule="evenodd"
         stroke="none"
         id="path51" />
    </g>
  </defs>
</svg>
