<?xml version="1.0" encoding="UTF-8" standalone="no"?>
<svg
   ffdec:objectType="frame"
   height="86.622398"
   width="96.099998"
   version="1.1"
   id="svg11"
   sodipodi:docname="1.svg"
   xmlns:inkscape="http://www.inkscape.org/namespaces/inkscape"
   xmlns:sodipodi="http://sodipodi.sourceforge.net/DTD/sodipodi-0.dtd"
   xmlns:xlink="http://www.w3.org/1999/xlink"
   xmlns="http://www.w3.org/2000/svg"
   xmlns:svg="http://www.w3.org/2000/svg"
   xmlns:ffdec="https://www.free-decompiler.com/flash">
  <sodipodi:namedview
     id="namedview11"
     pagecolor="#ffffff"
     bordercolor="#000000"
     borderopacity="0.25"
     inkscape:showpageshadow="2"
     inkscape:pageopacity="0.0"
     inkscape:pagecheckerboard="0"
     inkscape:deskcolor="#d1d1d1"
     fit-margin-top="5"
     fit-margin-left="5"
     fit-margin-right="5"
     fit-margin-bottom="5" />
  <g
     transform="translate(48.05,42.2224)"
     id="g2">
    <use
       ffdec:characterId="1319"
       height="20.6"
       transform="matrix(1,0,0,1.0164,-43.55,-42.2224)"
       width="87.199997"
       xlink:href="#sprite0"
       id="use1" />
    <use
       ffdec:characterId="1320"
       height="69.150002"
       transform="translate(-48.05,-24.75)"
       width="96.099998"
       xlink:href="#shape1"
       id="use2" />
  </g>
  <defs
     id="defs11">
    <g
       id="sprite0"
       transform="translate(43.6,10.5)">
      <use
         ffdec:characterId="1318"
         height="20.6"
         transform="translate(-43.6,-10.5)"
         width="87.199997"
         xlink:href="#shape0"
         id="use3" />
    </g>
    <g
       id="shape0"
       transform="translate(43.6,10.5)">
      <path
         d="m -41.2,10.1 h -2.1 L -43.55,9 V 6.95 q 0,-3.85 0.65,-4.8 h 4.35 V -2.9 l 0.2,-0.15 0.65,-0.25 0.1,0.05 0.15,-0.05 h 6.9 l 6.9,0.05 h 5.15 0.6 8.25 V -4.1 -4.4 h 0.05 l 0.3,-1.3 -0.05,-0.15 q 0,-0.7 1.2,-1.1 H -6.7 L -6.65,-7.4 -6.7,-7.55 h 0.05 v -0.1 q 0,-2.3 1,-2.45 l 0.1,-0.05 4.45,-0.35 h 1.05 0.3 0.85 0.65 l 3.8,0.35 0.1,0.05 q 1,0.15 1,2.45 l 0.05,0.1 v 0.15 0.45 h 1.45 q 1.2,0.4 1.2,1.1 L 9.3,-5.7 9.6,-4.4 h 0.05 v 0.3 l 0.05,0.85 h 7.7 2.05 l 11.1,-0.05 h 6.9 l 0.15,0.05 0.1,-0.05 q 0.3,-0.1 0.6,0.2 v 5.55 h 4.75 q 0.5,1.15 0.5,4.5 V 9 l -0.2,1.1 h -2.1 L 41.05,9.15 V 7.05 L 41.1,5 41.2,3.95 41.25,3.75 V 3.65 L 41.2,3.7 41.05,3.75 39.3,3.9 h -0.1 v 0.7 l 0.05,0.7 V 7 L 39.2,8.05 39,10.1 H 37 L 36.8,8.4 V 8.1 L 36.75,6.55 36.8,4.7 V 4.65 4.25 2.75 L 36.85,1.4 V 1.35 0.15 l 0.05,-0.6 h -6.35 l -11.1,-0.1 H 17.4 L 7.2,-0.5 H 6 1.75 0 h -0.05 -5.6 -1.2 -16.8 l -6.9,0.05 h -4.8 -1.55 l 0.05,0.6 0.05,1.3 v 1.8 1.4 l 0.05,1.05 V 6.55 6.9 l -0.05,1.5 v 0.55 l -0.15,1.15 H -39 L -39.2,8.05 -39.25,6.9 V 5.5 L -39.2,4.6 V 3.9 h -0.1 -0.8 -0.25 l -0.6,-0.15 H -41 l -0.25,-0.1 0.05,0.2 V 4.1 l 0.05,0.3 0.1,1.2 v 1.45 l 0.05,0.8 -0.05,1.3 v 0.2 l -0.05,0.3 -0.1,0.45 M 4.35,-8.25 h -0.2 l -2.4,0.1 H 1.45 0.9 0.35 -0.05 l -2.7,-0.05 h -0.8 L -4,-8.25 H -4.25 L -4.6,-8.3 v 0.6 0.05 0.1 0.2 0.4 h 9.2 v -0.5 -0.1 -0.1 -0.4 -0.25 l -0.25,0.05 m -10.1,5 h 0.1 5.6 H 0 1.75 6 7.2 V -3.3 L 7.25,-3.8 H 7.3 V -4 -4.1 L 7.35,-4.4 7.4,-4.8 H -7.4 l 0.05,0.15 v 0.25 l 0.05,0.55 v 0.05 h 0.05 l 0.05,0.55 h 0.3 0.05 1.1 m 9.6,4.9 0.1,0.25 0.3,0.45 L 4.2,2.75 4.35,3.8 V 4.85 L 4.4,5.45 Q 4.4,6.6 3.65,6.6 2.9,6.6 3.2,6.4 L 3.05,6.2 1.75,6.3 H 1.1 0.9 0.15 0 V 6.25 H -0.05 V 6.3 l -3,-0.1 -0.15,0.2 q 0.3,0.2 -0.45,0.2 -0.7,0 -0.7,-1.1 V 4.85 L -4.3,3.8 -4.2,2.75 -4.25,2.35 -3.95,1.9 -3.8,1.65 -3.65,1.5 l 0.15,0.15 0.1,0.1 2.85,-0.1 h 0.5 V 1.6 H 0 V 1.65 H 0.85 L 1.75,1.7 3.4,1.75 3.5,1.65 3.65,1.5 3.85,1.65 M 0.65,3.2 H 0 V 3.25 H -0.05 V 3.15 L -3,3.05 -2.9,3.8 V 4.9 L -0.05,4.8 V 4.75 H 0 V 4.8 L 1.75,4.85 2.9,4.9 2.95,3.8 3,3.05 1.75,3.15 0.65,3.2"
         fill="#9a9a9a"
         fill-rule="evenodd"
         stroke="none"
         id="path3" />
      <path
         d="m -41.2,10.1 0.1,-0.45 0.05,-0.3 V 9.15 L -41,7.85 -41.05,7.05 V 5.6 L -41.15,4.4 -41.2,4.1 V 3.85 l 0.2,-0.1 h 0.05 l 0.6,0.15 h 0.25 0.8 0.1 v 0.7 l -0.05,0.9 v 1.4 h -0.15 l -0.1,0.05 v 0.9 L -39.55,9 q -0.15,0.75 -1,0.75 l -0.35,-0.05 0.3,0.4 h -0.6 m 4.4,-1.15 V 8.4 l 0.05,-1.5 V 6.55 5.7 L -36.8,4.65 v -1.4 -1.8 l -0.05,-1.3 -0.05,-0.6 h 1.55 4.8 l 6.9,-0.05 h 16.8 1.2 5.6 H 0 1.75 6 7.2 l 10.2,-0.05 h 2.05 l 11.1,0.1 h 6.35 l -0.05,0.6 V 1.35 1.4 L 36.25,1.75 3.85,1.65 3.65,1.5 3.5,1.65 H 0.85 0 V 1.6 H -0.05 V 1.65 H -0.55 -3.5 L -3.65,1.5 -3.8,1.65 H -5.65 L -35,1.5 l 0.2,2.55 v 0.3 0.3 l 0.05,2.25 V 7.25 L -34.8,7.8 -35.05,8.35 Q -35.5,9 -36.25,9 L -36.8,8.95 M 39.25,7 V 5.3 L 39.2,4.6 V 3.9 h 0.1 L 41.05,3.75 41.2,3.7 41.25,3.75 41.2,3.95 41.1,5 41.05,7.05 v 2.1 l 0.2,0.95 H 39.4 l 0.25,-0.35 q 0.4,-0.55 0.4,-1.05 0,-1.2 -0.8,-1.7 M -4.25,-8.25 H -4 l 0.45,0.05 h 0.8 l 2.7,0.05 h 0.4 0.55 0.55 0.3 l 2.4,-0.1 h 0.2 l 0.25,0.2 v 0.4 0.1 0.1 0.5 h -9.2 v -0.4 -0.2 -0.1 -0.05 l 0.35,-0.55 m -1.5,5 H -6.85 -6.9 L -7.05,-3.6 -7.1,-3.8 H -7.25 -7.3 V -3.85 L -7.35,-4.4 V -4.65 L -7.4,-4.8 H 7.4 L 7.35,-4.4 7.3,-4.1 V -4 -3.8 H 7.25 -5.65 v 0.15 l -0.1,0.4"
         fill="#dadada"
         fill-rule="evenodd"
         stroke="none"
         id="path4" />
      <path
         d="m -39.25,6.9 0.05,1.15 0.2,2.05 h -1.6 l -0.3,-0.4 0.35,0.05 q 0.85,0 1,-0.75 l 0.05,-1.15 v -0.9 l 0.1,-0.05 h 0.15 m 2.3,3.2 0.15,-1.15 0.55,0.05 q 0.75,0 1.2,-0.65 L -34.8,7.8 -34.75,7.25 V 6.9 L -34.8,4.65 V 4.35 4.05 L -35,1.5 -5.65,1.65 H -3.8 L -3.95,1.9 -4.25,2.35 -4.2,2.75 -4.3,3.8 -4.35,4.85 V 5.5 q 0,1.1 0.7,1.1 0.75,0 0.45,-0.2 l 0.15,-0.2 3,0.1 V 6.25 H 0 V 6.3 H 0.15 0.9 1.1 1.75 L 3.05,6.2 3.2,6.4 Q 2.9,6.6 3.65,6.6 4.4,6.6 4.4,5.45 L 4.35,4.85 V 3.8 L 4.2,2.75 4.25,2.35 3.95,1.9 3.85,1.65 36.25,1.75 36.85,1.4 36.8,2.75 v 1.5 0.4 0.05 L 36.75,6.55 36.8,8.1 V 8.4 L 37,10.1 H -36.95 M 39,10.1 39.2,8.05 39.25,7 q 0.8,0.5 0.8,1.7 0,0.5 -0.4,1.05 L 39.4,10.1 H 39 M 7.25,-3.8 7.2,-3.3 v 0.05 H 6 1.75 0 h -0.05 -5.6 -0.1 l 0.1,-0.4 V -3.8 H 7.25 M 3.5,1.65 3.4,1.75 1.75,1.7 0.85,1.65 H 3.5 m -4.05,0 -2.85,0.1 -0.1,-0.1 h 2.95 M 0.65,3.2 1.75,3.15 3,3.05 2.95,3.8 2.9,4.9 1.75,4.85 0,4.8 V 4.75 H -0.05 V 4.8 L -2.9,4.9 V 3.8 L -3,3.05 l 2.95,0.1 v 0.1 H 0 V 3.2 h 0.65"
         fill="#cbcbcb"
         fill-rule="evenodd"
         stroke="none"
         id="path5" />
    </g>
    <g
       id="shape1"
       transform="translate(48.05,24.75)">
      <path
         d="M 34.8,-20.95 V -21 h 9.05 l -0.05,1.4 0.05,0.4 v 0.5 h -87.7 v -0.5 l 0.05,-0.4 -0.05,-1.4 q 8.35,-0.1 14.1,0.15 h 47.8 l 16.75,-0.1 m -17.9,9.55 -0.05,0.75 -0.05,1.8 H 15.1 14.5 L 14.45,-10 14.4,-11.4 h 2.5 m 14.7,2.55 H 31.4 31 29.3 l -0.1,-2.55 h 2.5 l -0.05,1.4 -0.05,1.05 v 0.1 m -2.3,27.5 h 2.4 L 31.65,20 31.6,21.2 H 31 29.3 l -0.05,-1.7 0.1,-0.55 -0.05,-0.3 m -14.85,0.2 -0.05,-0.2 h 2.5 L 16.8,21.2 H 15.1 14.5 L 14.45,20 V 18.85 M -26.9,-1.85 -26.95,-3 -27,-4.35 h 2.5 l -0.1,2.5 h -1.7 -0.6 m 14.8,0 -0.1,-2.5 h 2.5 L -9.75,-3 -9.8,-1.85 h -0.6 -1.7"
         fill="#7b7b7b"
         fill-rule="evenodd"
         stroke="none"
         id="path6" />
      <path
         d="M 13.45,-7 H 13.4 L 12.8,-7.1 12.4,-7.4 12.25,-7.55 V -8.2 H 12.3 L 12.25,-10 q 0,-1.55 0.35,-2.3 l -0.05,-0.1 0.2,-0.5 0.35,-0.35 0.35,-0.2 0.25,-0.1 h 6.3 5.35 7.05 l 0.25,0.1 0.4,0.2 0.3,0.35 0.2,0.5 -0.05,0.1 q 0.35,0.75 0.35,2.3 l -0.05,1.8 h 0.05 v 0.65 L 33.7,-7.4 33.3,-7.1 32.7,-7 h -0.05 -0.1 l -0.25,0.05 -0.4,0.05 -1.2,0.05 H 24.85 20.5 15.4 L 14.2,-6.9 13.8,-6.95 13.55,-7 h -0.1 m -3.3,18.7 h 3.3 l 7.05,0.05 h 4.35 l 7.7,0.05 h 3.7 2.85 v -25.05 -2.85 h -1.75 l -0.7,-0.25 H 8.85 l -1.5,0.25 h -1.1 v 0.85 l -0.1,1.9 -0.05,3.5 v 21.5 h 1.85 l 2.2,0.05 M 4.5,-24.05 4.75,-23.6 h 42.8 q 0.5,0.9 0.5,3.45 v 1.65 q -0.05,1.2 -0.55,1.55 v 48.1 l -0.1,0.15 0.05,1.05 h 0.1 v 2.9 0.4 h 0.1 l 0.05,3 0.05,2.5 -0.05,1 v 0.9 0.55 q -0.25,0.8 -1.3,0.8 L 45.85,44.3 44.3,44.4 H 41.9 V 44.25 H 41.85 L 41.2,44.2 41.1,44.1 41.05,44 41,43.95 40.55,43.75 40.5,42.9 H 39.75 39.6 q -1.1,0 -1.35,-2.6 v -0.05 h -0.1 v -1.2 -0.3 -0.25 -0.55 h -0.1 V 37.8 l -0.2,0.05 h -1 -73.7 -0.9 l -0.3,-0.05 v 0.15 0.55 0.25 0.3 1.2 h -0.1 v 0.05 q -0.25,2.6 -1.35,2.6 h -0.15 -0.75 l -0.05,0.85 -0.45,0.2 -0.05,0.05 -0.05,0.1 -0.1,0.1 -0.65,0.05 h -0.05 v 0.15 h -2.4 l -1.55,-0.1 -0.55,0.1 q -1.05,0 -1.3,-0.8 v -0.55 -0.9 l -0.05,-1 0.05,-2.5 0.05,-3 v -0.4 -2.9 h 0.1 l 0.05,-1.05 -0.1,-0.15 v -48.1 q -0.5,-0.35 -0.55,-1.55 v -1.65 q 0,-2.15 0.35,-3.15 h 0.6 l 0.15,-0.3 h 6.25 l -0.05,-0.45 0.25,-0.7 h 16.15 l 0.15,0.15 q 0.45,0.5 0.6,1 h 11.25 v -1 l 0.05,-0.15 H 3.85 l 0.65,0.7 m -0.85,10.2 0.05,-2.25 h -7.35 -3.65 -3.3 -8.55 -0.25 -4.4 -4.6 -2.5 -8.2 v 0.3 l -0.4,0.65 0.4,0.4 0.05,42.9 0.05,0.5 h 0.55 0.85 41.35 L 3.8,28.5 V 25.45 Q 3.6,22.55 3.55,18.05 V 5.25 5.1 2.95 -0.55 l 0.05,-9.85 0.05,-3.45 m -39.5,0.15 1,-0.65 h 2.15 q 0.7,0.2 1.15,0.7 l 0.1,0.15 0.35,0.6 q 0.25,0.65 0.25,1.5 l -0.2,1.7 -0.05,0.1 -0.7,0.8 -1.4,0.3 q -2.2,0 -3.1,-1.05 -0.45,-0.55 -0.5,-1.1 0,-2.15 0.95,-3.05 m 8,0.05 q 0.45,-0.5 1.05,-0.7 h 2.2 l 0.6,0.25 q 0.25,0.1 0.45,0.4 l 0.1,0.05 0.05,0.05 q 0.6,0.7 0.65,1.9 v 0.3 l -0.05,1.05 -0.15,0.65 q -0.2,0.45 -0.55,0.75 l -0.25,0.15 q -0.55,0.3 -1.35,0.3 -2.2,0 -3.1,-1.05 V -9.6 q -0.45,-0.55 -0.5,-1.05 l 0.3,-1.95 0.15,-0.45 0.4,-0.6 m 9.15,-0.7 h 2.25 l 0.45,0.2 0.65,0.5 q 0.7,0.75 0.7,2.25 l -0.2,1.7 -0.6,0.75 q -0.6,0.45 -1.55,0.45 -1.75,0 -2.65,-0.65 l -0.45,-0.4 -0.15,-0.25 -0.35,-0.85 q 0,-2.05 0.85,-3 l 0.05,-0.05 0.45,-0.4 0.55,-0.25 m 8.4,0 h 2.25 l 0.7,0.35 0.4,0.35 q 0.7,0.75 0.7,2.25 l -0.2,1.7 q -0.25,0.5 -0.65,0.8 -0.55,0.4 -1.5,0.4 l -2.2,-0.4 -0.15,-0.05 -0.75,-0.6 -0.5,-1.1 q 0,-2.05 0.85,-3 L -11,-14 l 0.7,-0.35 m 6.75,0.7 q 0.45,-0.5 1.05,-0.7 h 2.2 q 0.7,0.2 1.15,0.7 0.7,0.75 0.7,2.25 l -0.2,1.7 q -0.55,1.2 -2.15,1.2 -2.1,0 -3,-0.95 l -0.1,-0.1 -0.5,-1.1 q 0,-1.95 0.75,-2.85 l 0.1,-0.15 m -7.45,7.1 h 2 l 0.95,0.65 0.2,0.5 -0.05,0.1 q 0.35,0.8 0.35,2.3 l -0.05,1.85 h 0.05 v 0.6 L -7.7,-0.4 -8.1,-0.1 -8.7,0 H -8.85 L -9.1,0.05 -9.5,0.1 -10.7,0.15 H -11 -23.6 -26 L -27.2,0.1 -27.6,0.05 -27.85,0 h -0.1 -0.05 -0.2 l -0.4,-0.1 -0.4,-0.3 -0.15,-0.15 v -0.6 h 0.05 L -29.15,-3 q 0,-1.5 0.35,-2.3 l -0.05,-0.1 0.2,-0.5 0.45,-0.4 0.1,-0.05 0.4,-0.2 h 4.1 12.6 m 9.55,-6.05 q -1.6,0.3 -1.6,1.3 0,1.1 2.05,1.1 0.75,0 1,-0.75 l 0.1,-0.4 q 0,-1.6 -1.55,-1.25 m 29.6,3.25 0.25,-2.05 H 17.7 l 0.05,0.3 0.15,1.3 0.1,0.95 h 2.5 4.35 3.25 l 0.05,-0.5 M 16.9,-11.4 h -2.5 l 0.05,1.4 0.05,1.15 h 0.6 1.7 l 0.05,-1.8 0.05,-0.75 m 17.9,-9.55 -16.75,0.1 h -47.8 Q -35.5,-21.1 -43.85,-21 l 0.05,1.4 -0.05,0.4 v 0.5 h 87.7 v -0.5 L 43.8,-19.6 43.85,-21 H 34.8 v 0.05 m -3.2,12.1 v -0.1 l 0.05,-1.05 0.05,-1.4 h -2.5 l 0.1,2.55 h 1.7 0.4 0.2 m 9.9,-5.75 v 0.45 4.25 l 0.2,4.5 0.1,8.35 v 2.3 12.65 l -0.3,8.2 v 0.05 l 0.1,2.1 v 0.35 l 1.15,0.05 0.45,0.05 0.9,0.05 v -13.4 h 0.05 l 0.05,-29.2 v -0.45 l -0.05,-0.25 -0.05,-0.7 -0.05,-0.85 H 41.5 v 1.5 m 0,46.95 h -0.75 l 0.05,3.3 h 0.1 v 2.3 0.55 l -0.05,1.75 H 40.8 l -0.05,0.5 h 0.8 V 40.4 40.25 39.65 38.75 38.5 37.95 L 41.5,35.65 V 34 32.35 M 44.4,34 v -1.65 h -1.9 v 2.55 0.3 0.45 h 0.1 l 0.15,6.65 2.05,0.05 -0.25,-1.2 L 44.5,38.5 V 37.95 H 44.4 V 35.85 35.65 34 M 33.55,14.3 27.5,14.2 l -2,0.1 H 24.85 L 11.8,14.4 8.4,14.35 7.75,14.4 H 6.2 v 13.7 0.55 H 6.4 7.05 38.45 39 l 0.05,-0.5 0.05,-11.75 v -2.15 h -2.85 l -2.7,0.05 m -20.1,2.25 0.25,-0.1 h 18.7 l 0.1,0.05 q 0.45,0.15 0.7,0.45 l 0.15,0.2 0.2,0.5 -0.05,0.1 q 0.35,0.75 0.35,2.25 v 1.2 l -0.05,0.65 h 0.05 v 0.6 L 33.7,22.6 33.3,22.9 32.7,23 h -0.15 l -0.25,0.05 -0.4,0.05 -1.2,0.05 H 25.15 20.2 15.4 L 14.2,23.1 13.8,23.05 13.55,23 H 13.4 l -0.6,-0.1 -0.4,-0.3 -0.15,-0.15 v -0.6 h 0.05 v -0.7 L 12.25,20 q 0,-1.5 0.35,-2.25 l -0.05,-0.1 0.2,-0.5 0.3,-0.35 0.4,-0.25 M 25.3,21.2 h 2.8 l 0.1,-1 0.2,-1.55 H 17.7 l 0.2,1.6 0.1,0.95 h 2.05 5.25 m 4,-2.55 h -0.1 l 0.05,0.85 0.05,1.7 H 31 31.6 L 31.65,20 31.7,18.65 h -2.4 m -14.85,0.2 V 20 l 0.05,1.2 h 0.6 1.7 l 0.1,-2.55 h -2.5 l 0.05,0.2 m 23.65,14.8 v -1.3 h 0.2 V 32.3 h -3.2 v 0.05 H -35.1 V 32.3 h -3.2 v 0.05 h 0.2 v 1.45 1.4 h 1.25 l 18.75,-0.05 1.75,-0.05 h 3.25 0.55 l 49.4,0.1 H 38.1 V 33.65 M -41.5,-14 v -2.1 h -2.55 v 0.1 l -0.05,0.7 v 0.05 l -0.05,0.7 v 0.25 l -0.05,0.45 0.05,29.2 h 0.05 v 13.4 l 1.05,-0.05 0.3,-0.05 h 0.5 l 0.65,-0.05 v -0.35 l 0.1,-2.1 V 26.1 l -0.3,-8.2 V 5.25 2.95 l 0.1,-8.35 0.2,-4.5 V -14 m 7.65,1.4 q -1.6,0.3 -1.6,1.3 0,1.1 2.05,1.1 0.75,0 1,-0.75 l 0.1,-0.4 q 0,-1.6 -1.55,-1.25 m 6.5,1.3 q 0,1.1 2.05,1.1 0.75,0 1,-0.75 l 0.1,-0.4 q 0,-1.6 -1.55,-1.25 -1.6,0.3 -1.6,1.3 m 0.45,9.45 h 0.6 1.7 l 0.1,-2.5 H -27 l 0.05,1.35 0.05,1.15 m 13.8,-2.5 h -10.6 l 0.05,0.4 0.05,0.2 v 0.15 l 0.15,1.05 0.05,0.7 h 10.1 l 0.1,-0.7 0.2,-1.55 v -0.25 h -0.1 m -6.15,-6.95 q 0,1.1 2.05,1.1 0.75,0 1,-0.75 l 0.1,-0.4 q 0,-0.5 -0.15,-0.8 -0.35,-0.7 -1.4,-0.45 l -0.2,0.05 q -1.4,0.35 -1.4,1.25 m 10,-1.3 q -0.75,0.15 -1.15,0.45 l -0.45,0.85 0.25,0.65 q 0.45,0.45 1.8,0.45 0.75,0 1,-0.75 l 0.1,-0.4 q 0,-1.6 -1.55,-1.25 m -2.85,10.75 h 1.7 0.6 L -9.75,-3 -9.7,-4.35 h -2.5 l 0.1,2.5 M -41.5,34 v 1.65 l 0.05,2.3 v 0.55 0.25 0.9 0.6 0.15 0.35 h 0.8 l -0.05,-0.5 h -0.05 L -40.8,38.5 v -0.55 -2.3 l 0.05,-3.3 H -41.5 V 34 m -2.9,0 v 1.65 0.2 2.1 0.55 l -0.05,2.65 -0.25,1.2 2.05,-0.05 0.15,-6.65 V 35.2 34.9 32.35 h -1.9 V 34"
         fill="#6b6b6b"
         fill-rule="evenodd"
         stroke="none"
         id="path7" />
      <path
         d="m 32.65,-13.45 -0.25,-0.1 h -7.05 l 0.2,-0.5 H 19.9 l 0.1,0.5 h -6.3 l -0.25,0.1 v -0.6 h -3.3 v 0.8 l -1.75,0.1 -0.05,1.4 q -0.65,4.7 -0.45,6.3 v 8.4 0.95 1 0.35 h 0.05 v 6.4 H 6.1 v -21.5 l 0.05,-3.5 0.1,-1.9 v -0.85 h 1.1 l 1.5,-0.25 h 27.8 l 0.7,0.25 h 1.75 v 2.85 h -2.85 v -0.8 h -3.6 v 0.6 m -29,-0.4 -0.7,0.2 h -2.1 q -0.45,-0.5 -1.15,-0.7 h -2.2 q -0.6,0.2 -1.05,0.7 H -3.6 l 0.05,-0.7 H -7.4 l 0.05,0.35 -0.7,-0.35 h -2.25 -6.15 -2.25 -5.3 v 0.25 l -0.6,-0.25 h -2.2 q -0.6,0.2 -1.05,0.7 h -0.4 v -0.7 h -3.05 l -0.1,0.7 h -0.15 q -0.45,-0.5 -1.15,-0.7 h -2.15 l -1,0.65 -1.3,-0.1 0.1,1.85 q -0.5,4.05 -0.4,5.45 V 5.85 l 0.05,0.25 v 12.25 l 0.1,5.2 v 3.3 l -0.3,1.8 H -38.45 -39 l -0.05,-0.5 -0.05,-42.9 -0.4,-0.4 0.4,-0.65 v -0.3 h 8.2 l -0.05,0.05 h 2.6 l -0.05,-0.05 h 4.6 v 0.05 h 4.4 v -0.05 h 0.25 v 0.05 h 8.6 l -0.05,-0.05 h 3.3 v 0.05 h 3.65 V -16.1 H 3.7 l -0.05,2.25 m 37.85,-0.3 0.1,-0.45 h -0.1 v -1.5 h 2.55 l 0.05,0.85 0.05,0.7 0.05,0.25 -1.2,-0.05 0.25,2.7 q -0.05,3.8 0.05,5.6 l 0.05,9 V 4.1 5.25 h 0.05 l 0.05,15.7 v 4.8 L 43.2,28.7 42.75,28.65 41.6,28.6 v -0.35 l -0.1,-2.1 V 26.1 l 0.3,-8.2 V 5.25 2.95 L 41.7,-5.4 41.5,-9.9 v -4.25 M 6.2,28.1 V 14.4 h 1.55 l 0.65,-0.05 3.4,0.05 13.05,-0.1 h 0.65 l 2,-0.1 6.05,0.1 2.7,0.05 v -0.1 h 2.85 v 2.15 l -2.75,0.4 V 16.45 H 32.5 V 16.5 L 32.4,16.45 H 13.7 l -0.25,0.1 v -0.1 h -3.3 V 16.7 L 7.9,16.55 Q 7.75,26.95 7.05,28.65 H 6.4 L 6.2,28.1 m -44.3,5.7 v -1.45 h -0.2 V 32.3 h 3.2 v 0.05 H 35.1 V 32.3 h 3.2 v 0.05 h -0.2 v 1.3 l -0.5,0.2 H -38 l -0.1,-0.05 m -4.15,-5.15 h -0.5 l -0.3,0.05 -1.05,0.05 v -13.4 h -0.05 l -0.05,-29.2 0.05,-0.45 v -0.25 l 0.05,-0.7 v -0.05 l 0.05,-0.7 v -0.1 h 2.55 v 2.1 h -1.05 l 0.15,2.3 0.15,39.05 0.05,0.65 -0.05,0.65"
         fill="#e9e9e9"
         fill-rule="evenodd"
         stroke="none"
         id="path8" />
      <path
         d="m 13.45,-13.45 -0.35,0.2 -0.35,0.35 -0.2,0.5 0.05,0.1 q -0.35,0.75 -0.35,2.3 l 0.05,1.8 h -0.05 v 0.65 l 0.15,0.15 0.4,0.3 0.6,0.1 h 0.05 v 18.7 h -3.3 V 2.95 L 10.1,3.05 10.05,2.95 10,2.65 Q 10,1.9 10.15,2.5 v -15.75 -0.8 h 3.3 v 0.6 m 7.05,6.6 h 4.35 V 4.3 Q 25,3.7 25,4.45 l -0.05,0.5 -0.1,-0.15 v 6.95 H 20.5 v -7.2 l -0.05,0.3 q -0.1,0.1 -0.1,-0.4 0,-0.75 0.15,-0.3 v -11 M 32.65,-7 h 0.05 l 0.6,-0.1 0.4,-0.3 0.15,-0.15 V -8.2 H 33.8 l 0.05,-1.8 q 0,-1.55 -0.35,-2.3 l 0.05,-0.1 -0.2,-0.5 -0.3,-0.35 -0.4,-0.2 v -0.6 h 3.6 v 0.8 25.05 h -3.7 L 32.6,4.1 V 2.95 L 32.65,-7 m -7.3,-6.55 H 20 l -0.1,-0.5 h 5.65 l -0.2,0.5 m -29,-2.55 v 0.05 H -7.3 v -0.05 h 3.65 m -6.95,0 0.05,0.05 h -8.6 v -0.05 h 8.55 m -8.8,0 v 0.05 h -4.4 v -0.05 h 4.4 m -9,0 0.05,0.05 h -2.6 l 0.05,-0.05 h 2.5 m -3,2.45 0.1,-0.7 h 3.05 v 0.7 0.6 l -0.15,0.45 -0.3,1.95 q 0.05,0.5 0.5,1.05 v 0.05 l 0.1,3.2 -0.1,0.05 -0.45,0.4 -0.2,0.5 0.05,0.1 q -0.35,0.8 -0.35,2.3 l 0.05,1.85 h -0.05 v 0.6 l 0.15,0.15 0.4,0.3 0.4,0.1 h 0.2 0.05 V 2.95 3.3 5.25 h 0.05 q 0.05,4.15 -0.05,8.05 l -0.15,3.35 v 2.4 q 0.15,1.2 0,2.15 -0.25,1.85 -1.65,1.85 -1.4,0 -1.65,-2 v -2.1 l 0.05,-2.2 -0.2,-3.7 -0.05,-7.8 h 0.05 v -1.5 -0.8 l -0.3,-10.25 0.05,-1.5 0.7,-0.8 0.05,-0.1 0.2,-1.7 q 0,-0.85 -0.25,-1.5 l -0.35,-0.6 0.05,-0.15 m 7.4,-0.45 v -0.25 h 5.3 l -0.55,0.25 -0.45,0.4 -0.05,0.05 q -0.85,0.95 -0.85,3 l 0.35,0.85 0.15,0.25 0.45,0.4 q 0.9,0.65 2.65,0.65 0.95,0 1.55,-0.45 l 0.6,-0.75 0.2,-1.7 q 0,-1.5 -0.7,-2.25 l -0.65,-0.5 -0.45,-0.2 h 6.15 l -0.7,0.35 -0.35,0.35 q -0.85,0.95 -0.85,3 l 0.5,1.1 0.75,0.6 0.15,0.05 -0.2,2.35 h -12.6 v -0.3 l 0.05,-0.4 -0.2,-1.55 0.25,-0.15 q 0.35,-0.3 0.55,-0.75 l 0.15,-0.65 0.05,-1.05 v -0.3 q -0.05,-1.2 -0.65,-1.9 l -0.05,-0.05 -0.1,-0.05 q -0.2,-0.3 -0.45,-0.4 m 16.65,0.1 -0.05,-0.35 h 3.85 l -0.05,0.7 -0.05,0.15 q -0.75,0.9 -0.75,2.85 l 0.5,1.1 0.1,0.1 v 0.15 26.75 l 0.1,2.15 v 1.95 q -0.3,1.5 -1.75,1.5 -1.4,0 -1.65,-1.65 V 19.55 -8.9 q 0.4,-0.3 0.65,-0.8 l 0.2,-1.7 q 0,-1.5 -0.7,-2.25 L -7.35,-14 M -11,0.15 V 6.9 q 0.1,-0.6 0.1,0.15 v 16.9 q -0.1,0.5 -0.55,1.05 -0.7,0.9 -1.65,0.9 -0.9,0 -1.4,-0.45 l -4.25,0.15 q -3.4,0 -4.3,-0.85 -0.4,-0.4 -0.3,-0.8 l -0.3,-1.35 V 20 L -23.6,0.15 H -11 m 35.85,-9 H 20.5 V -9.1 l 4.35,-0.05 v 0.3 M 10.15,16.7 v -0.25 h 3.3 v 0.1 l -0.4,0.25 -0.3,0.35 -0.2,0.5 0.05,0.1 Q 12.25,18.5 12.25,20 l 0.05,1.15 -0.5,0.05 q -1.8,0 -1.9,-2 -0.05,-1 0.25,-2.25 V 16.7 M 32.5,16.5 v -0.05 h 3.85 v 0.35 l 0.05,2.15 q 0,0.9 -0.45,1.55 -0.55,0.75 -1.5,0.75 L 33.85,21.2 V 20 q 0,-1.5 -0.35,-2.25 l 0.05,-0.1 -0.2,-0.5 -0.15,-0.2 q -0.25,-0.3 -0.7,-0.45 m 3.75,-2.25 v 0.1 l -2.7,-0.05 2.7,-0.05 m -11,6.1 0.05,0.85 h -5.25 l 0.1,-0.85 h 5.1 m -0.1,2.8 q -0.5,2.5 -2.45,2.5 -2,0 -2.5,-2.5 h 4.95 m -48.6,-25.7 0.6,0.3 h 6.6 l 1.05,-0.1 1.35,-0.1 0.5,-0.1 h 0.15 l -0.1,0.7 h -10.1 l -0.05,-0.7 M -13,-4.1 l -0.15,-0.05 0.05,-0.2 h 0.1 v 0.25"
         fill="#b9b9b9"
         fill-rule="evenodd"
         stroke="none"
         id="path9" />
      <path
         d="m -1.45,-12.6 q 1.55,-0.35 1.55,1.25 l -0.1,0.4 q -0.25,0.75 -1,0.75 -2.05,0 -2.05,-1.1 0,-1 1.6,-1.3 m 19.35,2.8 -0.15,-1.3 -0.05,-0.3 H 28.4 L 28.15,-9.35 28,-9.3 24.85,-9.15 20.5,-9.1 H 19 q -0.7,0 -1.1,-0.7 m 10.3,30 h -0.05 l -2.9,0.15 H 20.15 19 l -1.1,-0.1 -0.2,-1.6 h 10.7 l -0.2,1.55 m 1.05,-0.7 -0.05,-0.85 h 0.1 l 0.05,0.3 -0.1,0.55 m -56.6,-30.8 q 0,-1 1.6,-1.3 1.55,-0.35 1.55,1.25 l -0.1,0.4 q -0.25,0.75 -1,0.75 -2.05,0 -2.05,-1.1 m -6.5,-1.3 q 1.55,-0.35 1.55,1.25 l -0.1,0.4 q -0.25,0.75 -1,0.75 -2.05,0 -2.05,-1.1 0,-1 1.6,-1.3 m 10.4,10.05 -0.15,-1.05 v -0.15 l -0.05,-0.2 -0.05,-0.4 h 10.6 l -0.05,0.2 0.15,0.05 -0.2,1.55 h -0.15 l -0.5,0.1 -1.35,0.1 -1.05,0.1 h -6.6 l -0.6,-0.3 m 4.2,-8.75 q 0,-0.9 1.4,-1.25 l 0.2,-0.05 q 1.05,-0.25 1.4,0.45 0.15,0.3 0.15,0.8 l -0.1,0.4 q -0.25,0.75 -1,0.75 -2.05,0 -2.05,-1.1 m 10,-1.3 q 1.55,-0.35 1.55,1.25 l -0.1,0.4 q -0.25,0.75 -1,0.75 -1.35,0 -1.8,-0.45 l -0.25,-0.65 0.45,-0.85 q 0.4,-0.3 1.15,-0.45"
         fill="#a8a8a8"
         fill-rule="evenodd"
         stroke="none"
         id="path10" />
      <path
         d="m 13.45,-7 h 0.1 l 0.25,0.05 0.4,0.05 1.2,0.05 h 5.1 v 11 q -0.15,-0.45 -0.15,0.3 0,0.5 0.1,0.4 l 0.05,-0.3 v 7.2 L 13.45,11.7 V -7 m 11.4,0.15 H 30.7 L 31.9,-6.9 32.3,-6.95 32.55,-7 h 0.1 L 32.6,2.95 V 4.1 l -0.05,7.7 -7.7,-0.05 V 4.8 L 24.95,4.95 25,4.45 Q 25,3.7 24.85,4.3 V -6.85 m -14.7,-6.4 V 2.5 Q 10,1.9 10,2.65 l 0.05,0.3 0.05,0.1 0.05,-0.1 V 11.7 L 7.95,11.65 V 5.25 H 7.9 V 4.9 3.9 2.95 -5.45 q -0.2,-1.6 0.45,-6.3 l 0.05,-1.4 1.75,-0.1 m -9.3,-0.4 h 2.1 l 0.7,-0.2 -0.05,3.45 -0.05,9.85 v 3.5 2.15 0.15 12.8 q 0.05,4.5 0.25,7.4 V 28.5 L 3.75,28.65 H -37.6 l 0.3,-1.8 v -3.3 l -0.1,-5.2 V 6.1 L -37.45,5.85 V -6.5 q -0.1,-1.4 0.4,-5.45 l -0.1,-1.85 1.3,0.1 q -0.95,0.9 -0.95,3.05 0.05,0.55 0.5,1.1 0.9,1.05 3.1,1.05 l 1.4,-0.3 -0.05,1.5 0.3,10.25 v 0.8 1.5 h -0.05 l 0.05,7.8 0.2,3.7 -0.05,2.2 v 2.1 q 0.25,2 1.65,2 1.4,0 1.65,-1.85 0.15,-0.95 0,-2.15 v -2.4 l 0.15,-3.35 q 0.1,-3.9 0.05,-8.05 h -0.05 V 3.3 2.95 0 h 0.1 l 0.25,0.05 0.4,0.05 1.2,0.05 h 2.4 L -23.65,20 v 2.6 l 0.3,1.35 q -0.1,0.4 0.3,0.8 0.9,0.85 4.3,0.85 l 4.25,-0.15 q 0.5,0.45 1.4,0.45 0.95,0 1.65,-0.9 0.45,-0.55 0.55,-1.05 V 7.05 Q -10.9,6.3 -11,6.9 V 0.15 h 0.3 L -9.5,0.1 -9.1,0.05 -8.85,0 h 0.15 l 0.6,-0.1 0.4,-0.3 0.15,-0.15 v -0.6 H -7.6 L -7.55,-3 q 0,-1.5 -0.35,-2.3 L -7.85,-5.4 -8.05,-5.9 -9,-6.55 h -2 l 0.2,-2.35 2.2,0.4 q 0.95,0 1.5,-0.4 v 28.45 1.85 q 0.25,1.65 1.65,1.65 1.45,0 1.75,-1.5 V 19.6 L -3.8,17.45 V -9.3 -9.45 q 0.9,0.95 3,0.95 1.6,0 2.15,-1.2 l 0.2,-1.7 q 0,-1.5 -0.7,-2.25 m 38.25,0.4 V 11.8 h -2.85 v -25.05 h 2.85 m -10.95,3.9 -0.05,0.5 h -3.25 v -0.3 L 28,-9.3 28.15,-9.35 m -7.65,0.5 H 18 L 17.9,-9.8 q 0.4,0.7 1.1,0.7 h 1.5 v 0.25 m 23.7,-5.45 v 0.45 l -0.05,29.2 H 44.1 v 13.4 l -0.9,-0.05 0.25,-2.95 v -4.8 L 43.4,5.25 H 43.35 V 4.1 2.95 l -0.05,-9 q -0.1,-1.8 -0.05,-5.6 l -0.25,-2.7 1.2,0.05 M 44.4,34 v 1.65 0.2 2.1 h 0.1 v 0.55 l 0.05,2.65 0.25,1.2 L 42.75,42.3 42.6,35.65 H 42.5 V 35.2 34.9 32.35 h 1.9 V 34 M 41.5,32.35 V 34 35.65 l 0.05,2.3 v 0.55 0.25 0.9 0.6 0.15 0.35 h -0.8 l 0.05,-0.5 h 0.05 L 40.9,38.5 v -0.55 -2.3 h -0.1 l -0.05,-3.3 H 41.5 M 7.05,28.65 q 0.7,-1.7 0.85,-12.1 l 2.25,0.15 v 0.25 q -0.3,1.25 -0.25,2.25 0.1,2 1.9,2 l 0.5,-0.05 v 0.7 h -0.05 v 0.6 l 0.15,0.15 0.4,0.3 0.6,0.1 h 0.15 l 0.25,0.05 0.4,0.05 1.2,0.05 h 4.8 q 0.5,2.5 2.5,2.5 1.95,0 2.45,-2.5 H 30.7 L 31.9,23.1 32.3,23.05 32.55,23 h 0.15 l 0.6,-0.1 0.4,-0.3 0.15,-0.15 v -0.6 H 33.8 l 0.05,-0.65 0.6,0.05 q 0.95,0 1.5,-0.75 0.45,-0.65 0.45,-1.55 L 36.35,16.8 39.1,16.4 39.05,28.15 39,28.65 H 38.45 7.05 M 25.3,21.2 25.25,20.35 28.15,20.2 h 0.05 l -0.1,1 h -2.8 m -5.15,-0.85 -0.1,0.85 H 18 l -0.1,-0.95 1.1,0.1 h 1.15 M -38.1,33.8 -38,33.85 h 75.6 l 0.5,-0.2 v 1.55 h -1.25 l -49.4,-0.1 h -0.55 -3.25 l -1.75,0.05 -18.75,0.05 H -38.1 V 33.8 M -41.5,-14 v 4.1 l -0.2,4.5 -0.1,8.35 v 2.3 12.65 l 0.3,8.2 v 0.05 l -0.1,2.1 v 0.35 l -0.65,0.05 0.05,-0.65 -0.05,-0.65 -0.15,-39.05 -0.15,-2.3 h 1.05 m 17.75,5.2 0.2,1.55 -0.05,0.4 v 0.3 h -4.1 l -0.4,0.2 -0.1,-3.2 q 0.9,1.05 3.1,1.05 0.8,0 1.35,-0.3 M -44.4,34 v -1.65 h 1.9 v 2.55 0.3 0.45 l -0.15,6.65 -2.05,0.05 0.25,-1.2 0.05,-2.65 V 37.95 35.85 35.65 34 m 2.9,0 v -1.65 h 0.75 l -0.05,3.3 v 2.3 0.55 l 0.05,1.75 h 0.05 l 0.05,0.5 h -0.8 v -0.35 -0.15 -0.6 -0.9 -0.25 -0.55 l -0.05,-2.3 V 34"
         fill="#cccccc"
         fill-rule="evenodd"
         stroke="none"
         id="path11" />
    </g>
  </defs>
</svg>
