<?xml version="1.0" encoding="UTF-8" standalone="no"?>
<svg
   ffdec:objectType="frame"
   height="16.4"
   width="11.9875"
   version="1.1"
   id="svg4"
   sodipodi:docname="1.svg"
   xmlns:inkscape="http://www.inkscape.org/namespaces/inkscape"
   xmlns:sodipodi="http://sodipodi.sourceforge.net/DTD/sodipodi-0.dtd"
   xmlns:xlink="http://www.w3.org/1999/xlink"
   xmlns="http://www.w3.org/2000/svg"
   xmlns:svg="http://www.w3.org/2000/svg"
   xmlns:ffdec="https://www.free-decompiler.com/flash">
  <sodipodi:namedview
     id="namedview4"
     pagecolor="#ffffff"
     bordercolor="#000000"
     borderopacity="0.25"
     inkscape:showpageshadow="2"
     inkscape:pageopacity="0.0"
     inkscape:pagecheckerboard="0"
     inkscape:deskcolor="#d1d1d1"
     fit-margin-top="5"
     fit-margin-left="5"
     fit-margin-right="5"
     fit-margin-bottom="5" />
  <g
     transform="translate(5.9875,7.8)"
     id="g1">
    <use
       ffdec:characterId="3604"
       height="16.4"
       transform="translate(-6,-7.8)"
       width="12"
       xlink:href="#shape0"
       id="use1" />
  </g>
  <defs
     id="defs4">
    <g
       id="shape0"
       transform="translate(6,7.8)">
      <path
         d="M 4.35,-7.2 4.3,-7 l 0.05,0.6 -0.1,1 -0.1,0.5 h 0.1 q 1.25,0.35 1.5,2.05 L 6,-0.8 Q 5.85,0.15 5.85,1.5 H 5.75 V 1.95 L 5.8,2.45 5.85,4 5.8,5.85 5.85,6.15 Q 5.9,6.9 5.55,7.6 q -0.7,1 -2,1 h -7.1 q -1.1,0 -1.7,-0.5 L -5.65,7.6 Q -6.1,6.85 -5.95,6.1 L -5.85,5.8 -5.9,3.95 -5.8,2.45 -5.75,1.9 V 1.45 H -5.8 L -5.85,-0.8 q -0.25,-1.75 0.1,-2.1 0.05,-0.85 0.5,-1.35 l 0.9,-0.65 -0.15,-0.5 -0.1,-1.15 0.05,-0.3 0.05,-0.2 -0.1,-0.15 0.35,-0.35 3.35,-0.2 L 0.65,-7.8 4,-7.6 4.35,-7.2 M 4.2,-2.7 3.65,-3.6 0.6,-3.65 H 0.1 l -0.2,0.05 h -0.55 l -3,-0.05 q -0.45,0.1 -0.55,0.95 l 3.15,0.05 4.7,-0.05 H 4.2 m -1.15,-4 -2.4,-0.05 V -6.7 L -0.9,-6.65 V -6.7 h -2.45 v 0.35 l 0.05,0.95 2.6,-0.05 h 0.55 l 0.6,-0.05 2.6,0.05 V -6.35 -6.7 M 4.4,0.05 H 4.3 -0.3 l 0.1,1.8 v 1.6 H 4.4 V 2.2 1.95 1.5 0.05 M 4.35,-0.55 Q 4.2,-1 4.35,-1.3 L 1.9,-1.2 h -6.2 v 0.1 l -0.05,0.7 -0.05,0.1 v 1.8 0.45 h 2.05 l 0.65,0.2 0.1,0.1 -1.95,0.2 h -0.9 L -4.5,4.5 -4.55,5 -2.6,5.1 h 7 0.1 V 4.65 L 4.45,4.1 h -4.7 L -0.5,4.2 -0.55,4.1 -0.85,4.05 -1,3.75 -0.7,3.55 -0.8,1.95 -0.65,0.05 H -0.8 -0.95 L -1,-0.2 -0.95,-0.45 h 0.15 l 5.15,-0.1 m 0,6.95 -8.8,-0.1 0.85,1 h 2.9 V 7.25 L 3.5,7.3 4.35,6.4"
         fill="#6b6b6b"
         fill-rule="evenodd"
         stroke="none"
         id="path1" />
      <path
         d="m 3.05,-6.7 v 0.35 0.9 l -2.6,-0.05 -0.6,0.05 H -0.7 L -3.3,-5.4 -3.35,-6.35 V -6.7 h 2.45 v 0.05 L 0.65,-6.7 v -0.05 l 2.4,0.05 m 1.15,4 H 3.65 l -4.7,0.05 -3.15,-0.05 q 0.1,-0.85 0.55,-0.95 l 3,0.05 H -0.1 L 0.1,-3.65 H 0.6 L 3.65,-3.6 4.2,-2.7 M 4.35,6.4 3.5,7.3 -0.7,7.25 V 7.3 h -2.9 l -0.85,-1 8.8,0.1"
         fill="#e7e7e7"
         fill-rule="evenodd"
         stroke="none"
         id="path2" />
      <path
         d="M 4.4,0.05 V 1.5 1.95 2.2 3.45 h -4.6 v -1.6 l -0.1,-1.8 h 4.6 0.1"
         fill="#d2d2d2"
         fill-rule="evenodd"
         stroke="none"
         id="path3" />
      <path
         d="m 4.35,-0.55 -5.15,0.1 H -0.95 L -1,-0.2 -0.95,0.05 h 0.15 0.15 l -0.15,1.9 0.1,1.6 -0.3,0.2 0.15,0.3 0.3,0.05 0.05,0.1 0.25,-0.1 h 4.7 L 4.5,4.65 V 5.1 h -0.1 -7 L -4.55,5 -4.5,4.5 -4.45,2.45 h 0.9 L -1.6,2.25 -1.7,2.15 -2.35,1.95 H -4.4 V 1.5 -0.3 l 0.05,-0.1 0.05,-0.7 v -0.1 h 6.2 l 2.45,-0.1 q -0.15,0.3 0,0.75"
         fill="#c4afa3"
         fill-rule="evenodd"
         stroke="none"
         id="path4" />
    </g>
  </defs>
</svg>
