<?xml version="1.0" encoding="UTF-8" standalone="no"?>
<svg
   ffdec:objectType="frame"
   height="37.200001"
   width="30.1"
   version="1.1"
   id="svg6"
   sodipodi:docname="2.svg"
   xmlns:inkscape="http://www.inkscape.org/namespaces/inkscape"
   xmlns:sodipodi="http://sodipodi.sourceforge.net/DTD/sodipodi-0.dtd"
   xmlns:xlink="http://www.w3.org/1999/xlink"
   xmlns="http://www.w3.org/2000/svg"
   xmlns:svg="http://www.w3.org/2000/svg"
   xmlns:ffdec="https://www.free-decompiler.com/flash">
  <sodipodi:namedview
     id="namedview6"
     pagecolor="#ffffff"
     bordercolor="#000000"
     borderopacity="0.25"
     inkscape:showpageshadow="2"
     inkscape:pageopacity="0.0"
     inkscape:pagecheckerboard="0"
     inkscape:deskcolor="#d1d1d1"
     fit-margin-top="5"
     fit-margin-left="5"
     fit-margin-right="5"
     fit-margin-bottom="5" />
  <g
     transform="translate(15.05,25.15)"
     id="g2">
    <use
       ffdec:characterId="4247"
       height="37.200001"
       transform="translate(-15.05,-25.15)"
       width="30.1"
       xlink:href="#shape0"
       id="use1" />
    <use
       ffdec:characterId="3500"
       height="8"
       transform="matrix(-0.0094,-0.9999,0.9999,-0.0094,5.9008,8.5871)"
       width="10.8"
       xlink:href="#sprite0"
       id="use2" />
  </g>
  <defs
     id="defs6">
    <g
       id="shape0"
       transform="translate(15.05,25.15)">
      <path
         d="m 14.65,-24.95 0.4,0.6 -0.15,31.8 Q 15,9.9 14.55,10.8 H 1.2 l -0.9,0.3 -1.1,-0.35 -2.55,0.65 -2.85,0.65 q -2.25,0 -3.65,-0.65 -1.35,-0.65 -1.35,-1.65 0,-0.9 0.5,-1.1 L -8.35,8.3 q -1.65,-0.55 -2,-0.55 -1.6,0 -2.3,1.25 -0.65,1.2 -1.1,1.2 -1.3,0 -1.3,-1.35 0,-0.7 1.1,-1.7 1.45,-1.3 3.65,-1.3 1.6,0 3.85,0.9 L -6.4,-5.8 -6.2,-7.15 q 0.55,-3.75 3.45,-5.6 Q -0.6,-14.1 2,-14.1 v -1.95 q 0.8,-3 4.4,-5.6 3.2,-2.25 5.3,-2.25 l 0.95,0.15 h 0.1 0.3 v -0.6 q 0.1,-0.8 1,-0.8 l 0.6,0.2 M 10.4,9.1 h 1.15 V 7.9 l 0.15,-30.2 -1.5,0.8 -0.35,0.2 -1,0.55 H 8.8 l -0.2,0.15 -1,0.7 -0.25,0.2 -1.95,2 -1.25,2 L 4.05,9.1 7.4,9.05 10.25,9.1 H 10.4 M 1.9,4.65 2,-11.1 l -2.55,0.35 q -2.5,1.15 -3.4,4.35 l -0.1,1.4 -0.05,6.5 0.45,3.2 2.85,-0.2 2,0.05 0.7,0.1 m -7.65,5.65 0.8,-0.2 -1.25,-0.05 -0.35,0.05 v 0.05 l 0.8,0.15 M -0.3,8.5 -0.05,8.55 0.3,7.85 -1,7.8 -3,7.65 -3.8,7.7 h -0.65 l 0.55,0.2 3.6,0.6"
         fill="#6b6b6b"
         fill-rule="evenodd"
         stroke="none"
         id="path2" />
      <path
         d="M 7.6,-19.9 7.65,-19.6 7.5,5.2 7.2,6.55 7,6.9 6.25,7.15 Q 5.15,7.15 5.3,5.6 l 0.1,-23.3 1.95,-2 0.25,-0.2"
         fill="#ffffff"
         fill-rule="evenodd"
         stroke="none"
         id="path3" />
      <path
         d="m 7.6,-19.9 1,-0.7 0.2,-0.15 h 0.05 l 1,-0.55 0.35,-0.2 1.5,-0.8 -0.15,30.2 V 9.1 H 10.4 L 10.35,8.95 10.25,9.1 7.4,9.05 7.2,8.35 V 6.55 L 7.5,5.2 7.65,-19.6 7.6,-19.9"
         fill="#cccccc"
         fill-rule="evenodd"
         stroke="none"
         id="path4" />
      <path
         d="m 7.2,6.55 v 1.8 L 7.4,9.05 4.05,9.1 4.15,-15.7 5.4,-17.7 5.3,5.6 Q 5.15,7.15 6.25,7.15 L 7,6.9 7.2,6.55"
         fill="#dbdbdb"
         fill-rule="evenodd"
         stroke="none"
         id="path5" />
    </g>
    <g
       id="sprite0"
       transform="translate(5.4,4)">
      <use
         ffdec:characterId="43"
         height="8"
         transform="translate(-5.4,-4)"
         width="10.8"
         xlink:href="#shape1"
         id="use5" />
    </g>
    <g
       id="shape1"
       transform="translate(5.4,4)">
      <path
         d="m 2.9,-0.35 q 0,-1.25 1.25,-1.25 1.25,0 1.25,1.2 0,1.3 -1.25,1.3 Q 3.6,0.9 3.25,0.5 2.9,0.15 2.9,-0.35 m 0.35,-2.3 q 0,0.55 -0.35,0.9 -0.4,0.45 -1,0.45 -1.35,0 -1.35,-1.4 0,-1.3 1.35,-1.3 1.35,0 1.35,1.35 m -3.1,1.9 h 0.2 q 2.6,0.1 2.6,2.8 l -0.3,1 Q 2.05,4 0.45,4 H 0.35 0.15 0.1 -0.45 q -1.6,0 -2.2,-0.95 l -0.3,-1 q 0,-2.8 2.8,-2.8 h 0.3 M -1.55,-4 q 1.35,0 1.35,1.35 0,0.55 -0.4,0.9 -0.4,0.45 -0.95,0.45 -1.4,0 -1.4,-1.4 0,-1.3 1.4,-1.3 m -2.6,2.4 q 1.25,0 1.25,1.25 0,0.5 -0.35,0.85 -0.35,0.4 -0.9,0.4 -1.25,0 -1.25,-1.3 0,-1.2 1.25,-1.2"
         fill="#6b6b6b"
         fill-rule="evenodd"
         stroke="none"
         id="path6" />
    </g>
  </defs>
</svg>
