<?xml version="1.0" encoding="UTF-8" standalone="no"?>
<svg
   ffdec:objectType="frame"
   height="30.6625"
   width="29.65"
   version="1.1"
   id="svg14"
   sodipodi:docname="1.svg"
   xmlns:inkscape="http://www.inkscape.org/namespaces/inkscape"
   xmlns:sodipodi="http://sodipodi.sourceforge.net/DTD/sodipodi-0.dtd"
   xmlns:xlink="http://www.w3.org/1999/xlink"
   xmlns="http://www.w3.org/2000/svg"
   xmlns:svg="http://www.w3.org/2000/svg"
   xmlns:ffdec="https://www.free-decompiler.com/flash">
  <sodipodi:namedview
     id="namedview14"
     pagecolor="#ffffff"
     bordercolor="#000000"
     borderopacity="0.25"
     inkscape:showpageshadow="2"
     inkscape:pageopacity="0.0"
     inkscape:pagecheckerboard="0"
     inkscape:deskcolor="#d1d1d1"
     fit-margin-top="5"
     fit-margin-left="5"
     fit-margin-right="5"
     fit-margin-bottom="5" />
  <g
     transform="translate(14.8,13.2125)"
     id="g3">
    <use
       ffdec:characterId="1855"
       height="27.5"
       transform="translate(-10.25,-11.15)"
       width="17.1"
       xlink:href="#sprite0"
       id="use1" />
    <use
       ffdec:characterId="2390"
       height="24.15"
       transform="translate(-7.4,-6.4)"
       width="15.2"
       xlink:href="#sprite3"
       id="use2" />
    <use
       ffdec:characterId="2370"
       height="30.65"
       transform="translate(-14.8,-13.2)"
       width="29.65"
       xlink:href="#sprite5"
       id="use3" />
  </g>
  <defs
     id="defs14">
    <g
       id="sprite0"
       transform="translate(5.45,22.95)">
      <use
         ffdec:characterId="1854"
         height="27.5"
         transform="translate(-5.45,-22.95)"
         width="17.1"
         xlink:href="#sprite1"
         id="use4" />
    </g>
    <g
       id="sprite1"
       transform="translate(5.45,22.95)">
      <use
         ffdec:characterId="1853"
         height="5.25"
         transform="scale(0.7692)"
         width="5.0999999"
         xlink:href="#sprite2"
         id="use5" />
    </g>
    <g
       id="sprite2">
      <use
         ffdec:characterId="1852"
         height="5.25"
         width="5.0999999"
         xlink:href="#shape0"
         id="use6" />
    </g>
    <g
       id="shape0">
      <path
         d="M 3.4,1.1 2.1,1.2 1.55,2.05 Q 1.15,2.7 1.3,3.1 1.4,3.45 2.2,4 3,4.55 3.5,4.3 3.95,4.05 4.25,2.6 4.25,1.35 3.4,1.1 M 0.35,4.2 Q 0,3.6 0,2.9 0,0.55 2.55,0.1 5.1,-0.35 5.1,1.55 5.1,5.25 2.6,5.25 1,5.25 0.35,4.2"
         fill="#999999"
         fill-opacity="0.439216"
         fill-rule="evenodd"
         stroke="none"
         id="path6" />
    </g>
    <g
       id="sprite3"
       transform="translate(7.6,11.15)">
      <use
         ffdec:characterId="2389"
         height="22.35"
         transform="translate(-7.6,-11.15)"
         width="15.2"
         xlink:href="#sprite4"
         id="use7" />
    </g>
    <g
       id="sprite4"
       transform="translate(7.6,11.15)">
      <use
         ffdec:characterId="2388"
         height="22.35"
         transform="translate(-7.6,-11.15)"
         width="15.2"
         xlink:href="#shape1"
         id="use8" />
    </g>
    <g
       id="shape1"
       transform="translate(7.6,11.15)">
      <path
         d="M -5.15,-4.5 -5.2,-4.1 V -4 q 0,0.95 1.3,2.2 l 1.55,1.05 q 1.25,0.55 2.8,0.55 h 0.7 q 2.3,-0.3 3.35,-2.2 0.7,-1.25 0.7,-2.55 0,-1.8 -1.6,-2.9 L 2.8,-8.3 1.45,-8.8 0,-8.95 Q -4.9,-9 -5.15,-4.5 m 10.1,0.8 -0.3,0.8 q -0.4,0.55 -1.05,0.55 -0.85,0 -1.2,-0.7 l -0.15,-0.7 q 0,-1.3 1.35,-1.2 1.35,0.1 1.35,1.25 M 6.6,-0.9 Q 5.4,1.05 3.4,1.8 l 0.2,0.75 0.25,2.4 q 0,1.3 -0.6,2.15 Q 2.8,7.85 1.95,8.3 L 1.9,8.55 q 0,2.65 -2.15,2.65 -1.8,0 -2.65,-1 l -0.45,-1 0.15,-1 Q -4.85,7.6 -5.9,6.15 -7.05,4.6 -7.05,2.85 q 0,-2.05 0.75,-3.4 -1.3,-1.75 -1.3,-3.35 0,-2.45 0.95,-3.9 1.3,-2.1 4.85,-3.15 5.85,-0.8 8.15,2.05 1.25,1.6 1.25,4.2 0,1.9 -1,3.8 M 0.9,2.4 0.6,2.75 Q 0.15,3.3 0.15,3.6 V 3.7 L 0.35,4.1 0.8,4.15 1.4,3.85 1.5,3.8 1.1,2.75 0.9,2.4 m -2.8,3.55 2.2,0.3 q 0.7,0 1,-0.35 L 0.85,5.95 q -1.5,0 -2,-0.7 l -0.15,-0.3 -0.1,-1 0.15,-1.3 0.05,-0.15 0.15,-0.3 -0.85,-0.15 0.05,0.1 q 0.3,0.75 0.3,1.25 0,0.6 -0.5,1.15 l -1.05,0.55 -0.25,0.05 0.5,0.35 0.25,0.15 0.7,0.3 M 0,8.65 H -0.25 L -1.4,8.6 -1.45,8.65 -0.95,9 0,9.2 V 8.65 m -2.1,-12.3 -0.35,0.3 -0.85,0.2 q -0.9,0 -1.2,-0.7 L -4.65,-4.3 v -0.2 q 0,-1.25 1.4,-1.3 1.45,-0.1 1.45,1.35 0,0.45 -0.3,0.8 M -3.4,1.65 -3.55,1.6 -4.8,0.9 -4.85,1.05 -4.8,1.95 -4.6,3 l 0.1,0.05 0.25,0.15 0.6,0.25 H -3.6 L -3.1,3.2 -2.95,2.85 -3.3,1.8 -3.35,1.65 H -3.4"
         fill="#6b6b6b"
         fill-rule="evenodd"
         stroke="none"
         id="path8" />
      <path
         d="M -3.3,1.8 H -3.45 L -3.4,1.65 h 0.05 L -3.3,1.8"
         fill="#cccccc"
         fill-rule="evenodd"
         stroke="none"
         id="path9" />
      <path
         d="m -5.15,-4.5 0.1,0.35 L -5,-4 q 0.85,1.8 3.5,1.8 h 0.05 q 1.6,0 2.7,-0.95 L 2.05,-4.2 Q 2.7,-5.4 2.7,-6.6 2.7,-7.65 2.1,-8.3 l -0.65,-0.5 1.35,0.5 0.8,0.45 q 1.6,1.1 1.6,2.9 0,1.3 -0.7,2.55 -1.05,1.9 -3.35,2.2 h -0.7 q -1.55,0 -2.8,-0.55 L -3.9,-1.8 Q -5.2,-3.05 -5.2,-4 v -0.1 l 0.05,-0.4 m 10.1,0.8 q 0,-1.15 -1.35,-1.25 -1.35,-0.1 -1.35,1.2 l 0.15,0.7 q 0.35,0.7 1.2,0.7 0.65,0 1.05,-0.55 l 0.3,-0.8 m -6.1,8.95 q 0.5,0.7 2,0.7 L 1.3,5.9 Q 1,6.25 0.3,6.25 l -2.2,-0.3 0.75,-0.7 M 0.9,2.4 1.1,2.75 1.5,3.8 1.4,3.85 0.8,4.15 0.35,4.1 0.15,3.7 V 3.6 Q 0.15,3.3 0.6,2.75 L 0.9,2.4 M -1.85,2.15 -1.9,2.05 -1.05,2.2 -1.2,2.5 -1.25,2.65 -1.85,2.15 M 0,8.65 V 9.2 L -0.95,9 -1.45,8.65 -1.4,8.6 -0.25,8.65 H 0"
         fill="#d1b9b9"
         fill-rule="evenodd"
         stroke="none"
         id="path10" />
      <path
         d="m 1.45,-8.8 0.65,0.5 q 0.6,0.65 0.6,1.7 0,1.2 -0.65,2.4 l -0.8,1.05 q -1.1,0.95 -2.7,0.95 H -1.5 Q -4.15,-2.2 -5,-4 L -5.05,-4.15 -5.15,-4.5 Q -4.9,-9 0,-8.95 L 1.45,-8.8 M -1.15,5.25 -1.9,5.95 -2.6,5.65 -2.85,5.5 -3.35,5.15 -3.1,5.1 -2.05,4.55 q 0.5,-0.55 0.5,-1.15 0,-0.5 -0.3,-1.25 l 0.6,0.5 -0.15,1.3 0.1,1 0.15,0.3 m -0.95,-8.9 q 0.3,-0.35 0.3,-0.8 0,-1.45 -1.45,-1.35 -1.4,0.05 -1.4,1.3 v 0.2 l 0.15,0.45 q 0.3,0.7 1.2,0.7 l 0.85,-0.2 0.35,-0.3 M -3.3,1.8 -2.95,2.85 -3.1,3.2 -3.6,3.45 H -3.65 L -4.25,3.2 -4.5,3.05 -4.6,3 -4.8,1.95 -4.85,1.05 -4.8,0.9 -3.55,1.6 -3.4,1.65 -3.45,1.8 h 0.15"
         fill="#e1c9c9"
         fill-rule="evenodd"
         stroke="none"
         id="path11" />
    </g>
    <g
       id="sprite5"
       transform="translate(14.8,13.25)">
      <use
         ffdec:characterId="2369"
         height="30.65"
         transform="translate(-14.8,-13.25)"
         width="29.65"
         xlink:href="#shape2"
         id="use11" />
    </g>
    <g
       id="shape2"
       transform="translate(14.8,13.25)">
      <path
         d="m 11.6,-13.15 q 0.05,-0.15 0.15,-0.1 l 0.3,0.35 v 0.1 l 0.2,0.4 v 5 q 1.05,0.4 1.7,1.3 l 0.25,0.4 0.3,0.6 0.15,0.5 0.05,0.1 0.05,0.95 0.05,0.9 V 12.1 l 0.05,0.4 v 0.6 H 14.7 v 0.3 l -0.05,0.95 -0.05,0.1 -0.15,0.5 -0.3,0.6 -0.25,0.4 q -0.8,1.1 -2.15,1.45 H -11.8 q -1.35,-0.35 -2.15,-1.45 l -0.25,-0.4 -0.3,-0.6 -0.15,-0.5 -0.05,-0.1 -0.05,-0.95 -0.05,-2.15 V 11.1 -2.3 l 0.1,-1.25 0.05,-0.95 0.05,-0.1 0.15,-0.5 0.3,-0.6 0.25,-0.4 0.5,-0.55 1.05,-0.7 v -5.05 h 0.05 l 0.2,-0.4 v -0.1 q 0.2,-0.55 0.45,-0.25 l 0.2,-0.1 4.85,0.1 v 0.05 h 2 0.25 1.4 0.1 0.3 0.1 0.55 0.25 0.25 0.15 l 12.65,-0.15 0.2,0.1 m -9,2.25 H 2.45 1.35 v 0.05 h -3.8 v -0.05 h -1.1 -0.15 l -3.95,0.05 v 0.05 h -2.5 v 2 l 6.45,0.1 h 0.15 1.1 v -0.05 h 3.8 v 0.05 h 1.1 0.15 l 7.5,-0.1 v -2 l -7.5,-0.1 m 9.7,8.3 q -0.15,-1.05 -0.85,-1.75 l -0.8,-0.5 -10.3,-0.3 -9.3,-0.2 q -1.85,0.4 -2.45,1 -0.7,0.7 -0.85,1.75 l -0.05,1.2 h -0.05 V 11 l 0.05,0.25 v 1.2 q 0.15,1.05 0.85,1.75 l 0.8,0.5 10.3,0.3 9.3,0.2 q 1.85,-0.4 2.45,-1 0.7,-0.7 0.85,-1.75 l 0.05,-1.2 V 11 -1.4 -2.6"
         fill="#6b6b6b"
         fill-rule="evenodd"
         stroke="none"
         id="path12" />
      <path
         d="m 2.6,-10.9 7.5,0.1 v 2 L 2.6,-8.7 H 2.45 1.35 v -0.05 h -3.8 v 0.05 h -1.1 -0.15 l -6.45,-0.1 v -2 h 2.5 v -0.05 l 3.95,-0.05 h 0.15 1.1 v 0.05 h 3.8 v -0.05 h 1.1 0.15"
         fill="#999999"
         fill-rule="evenodd"
         stroke="none"
         id="path13" />
      <path
         d="m 0.05,-0.7 q -1.4,0 -1.2,-1.4 0,-1.25 1.25,-1.35 1.2,-0.05 1.2,1.35 0,1.4 -1.25,1.4 M -11,-0.75 q 0,-1.2 0.75,-2.1 1.1,-1.4 3.55,-1.2 2.8,0.15 3.7,0.8 0.55,0.35 0.55,1.35 0,1.05 -1.05,1.8 -1.4,1 -4.35,1 -2.2,0 -2.9,-0.8 -0.35,-0.45 -0.25,-0.85"
         fill="#ffffff"
         fill-opacity="0.498039"
         fill-rule="evenodd"
         stroke="none"
         id="path14" />
    </g>
  </defs>
</svg>
