<?xml version="1.0" encoding="UTF-8" standalone="no"?>
<svg
   ffdec:objectType="frame"
   height="96.050003"
   width="149"
   version="1.1"
   id="svg12"
   sodipodi:docname="1.svg"
   xmlns:inkscape="http://www.inkscape.org/namespaces/inkscape"
   xmlns:sodipodi="http://sodipodi.sourceforge.net/DTD/sodipodi-0.dtd"
   xmlns:xlink="http://www.w3.org/1999/xlink"
   xmlns="http://www.w3.org/2000/svg"
   xmlns:svg="http://www.w3.org/2000/svg"
   xmlns:ffdec="https://www.free-decompiler.com/flash">
  <sodipodi:namedview
     id="namedview12"
     pagecolor="#ffffff"
     bordercolor="#000000"
     borderopacity="0.25"
     inkscape:showpageshadow="2"
     inkscape:pageopacity="0.0"
     inkscape:pagecheckerboard="0"
     inkscape:deskcolor="#d1d1d1"
     fit-margin-top="5"
     fit-margin-left="5"
     fit-margin-right="5"
     fit-margin-bottom="5" />
  <g
     transform="translate(74.85,47.6)"
     id="g2">
    <use
       ffdec:characterId="1504"
       height="95.199997"
       transform="translate(-73.95,-47.6)"
       width="147.75"
       xlink:href="#sprite0"
       id="use1" />
    <use
       ffdec:characterId="1505"
       height="76.449997"
       transform="translate(-74.85,-28)"
       width="149"
       xlink:href="#shape1"
       id="use2" />
  </g>
  <defs
     id="defs12">
    <g
       id="sprite0"
       transform="translate(73.85,16.4)">
      <use
         ffdec:characterId="1503"
         height="95.199997"
         transform="translate(-73.85,-16.4)"
         width="147.75"
         xlink:href="#shape0"
         id="use3" />
    </g>
    <g
       id="shape0"
       transform="translate(73.85,16.4)">
      <path
         d="M 33.1,-11.15 H 33 l -7.75,-0.5 H 18.3 l -0.8,-0.25 -20.9,0.15 -0.85,0.2 -10.6,0.05 -6.4,0.45 h -16.9 v -0.1 l -2.5,-0.15 -3.65,-0.1 -15.7,-0.1 -8.5,0.65 q -1.45,0.35 -1.85,0.7 l -0.55,-0.55 3,-1.6 5.4,-1.4 1.3,0.1 1.5,-0.4 h 0.8 l 3.25,0.05 h 0.5 q 0.5,0.4 2.1,1 l 2.65,0.7 h 0.15 0.15 l 2.8,-0.45 q 3.05,-0.45 3.05,-1.2 v -0.05 H 16.6 l 0.45,0.25 q 1.6,0.8 2.85,0.8 l 2.75,-0.35 0.7,-0.1 2.4,-0.35 q 2.8,0 5.8,1.7 l 0.05,0.05 1.5,0.8 m 36.8,0.95 -1.1,-0.45 -0.95,-0.3 Q 69,-11 69.9,-10.2 M 59.4,-11 56,-10.75 h -8 l -3.75,-0.3 h -2.5 v -0.5 h -0.5 l -1.2,0.2 -1,0.2 -0.55,0.05 h -3.45 l -1.95,-1.15 -0.3,-0.2 -2.7,-1.5 h 25.6 l 11.6,-0.25 2.85,1.05 0.75,1.3 0.25,0.6 q -1.25,-1.1 -3.65,-0.7 l -7,0.05 -4.5,0.3 -1.2,0.45 0.7,0.1 3.9,0.05 m -10.3,-0.55 -0.1,0.15 1.75,0.1 0.05,-0.1 -1.7,-0.15 m -4.15,29.5 -0.7,0.1 q -1.35,0.2 -2.5,0.55 v 0.7 l 1.2,-0.25 1.3,-0.25 7.1,-0.95 -0.1,-0.1 3.55,-0.05 v 2.2 l -5.45,0.2 h -7.6 v -0.65 l -2.3,0.65 h -94.2 v -2.4 q 6.8,0.05 10.4,0.25 -1.3,0.65 -2.65,0.65 l -1.25,-0.25 -1.25,-0.25 -1.75,0.15 q -1.85,0.25 -2.75,1 l 1.45,0.25 2.4,-0.45 2.75,0.5 6.75,-0.85 2.5,-0.4 v -0.4 -0.05 l 7.75,-0.05 h 16.35 2.8 22 l 2.8,1.1 6.25,0.7 4.35,-0.9 2.75,-0.9 h 3.55 l 11.3,0.1 v 0.05 h 2.6 0.6 m -23.2,-0.15 -1.5,0.75 -1.55,-0.1 -2.35,-0.65 h 5.4 M 53.95,54.85 53.7,54.5 53.6,54.35 53.55,54.2 h -0.2 L 53.1,53.55 V 53.4 h 0.25 l 0.3,-0.35 0.05,-0.1 0.05,-0.05 0.15,-0.25 0.25,-0.45 1.9,-0.45 0.1,-0.05 q 1.25,-0.15 2.05,0 l 0.15,0.4 -0.6,0.5 -0.05,0.3 V 53 l 0.05,0.4 h 0.15 l 0.1,0.2 0.5,0.65 -2.9,0.6 h -1.25 -0.4 m 4.8,7.25 0.1,0.5 0.05,0.4 0.05,0.4 v 0.35 H 58.9 58.85 q -0.55,0.7 -2.1,0.8 h -0.4 -0.6 L 53.45,64.2 53.2,64.05 V 64 l 0.05,-0.25 h 0.25 l 0.1,-0.3 0.15,-0.35 h -0.1 l -0.2,0.05 -0.2,0.05 V 63.05 63 l 0.05,-0.3 0.05,-0.15 0.35,0.15 1.45,-1.25 0.6,-0.1 h 0.1 1.3 q 1.1,0.15 1.6,0.75 M -58.2,51.85 l 2.1,-0.2 h 0.05 l 0.6,0.05 1.15,0.15 0.3,0.6 0.05,0.1 -0.25,0.35 -0.05,0.1 -0.05,0.35 v 0.1 0.15 0.15 l -0.05,0.15 -0.1,0.3 v 0.1 l -1.75,0.15 h -0.15 -1.05 -0.4 l -1.4,-0.5 -0.1,-0.1 -0.05,-0.2 V 53.4 h 0.25 l 0.3,-0.5 0.15,-0.25 0.45,-0.8 m 4.5,9.45 h 0.05 l 0.2,0.8 0.15,0.6 0.05,0.3 v 0.05 l 0.1,0.5 v 0.2 h -3 -0.6 -0.75 -1.4 -0.05 V 63.5 l 0.05,-0.15 V 63 l 0.05,-0.4 v -0.05 q 0.95,-0.3 1.45,-1.7 l 0.1,-0.15 h 0.05 0.55 l 0.75,0.05 0.45,0.05 0.8,0.15 1,0.35"
         fill="#cfcfcf"
         fill-rule="evenodd"
         stroke="none"
         id="path3" />
      <path
         d="m -70.9,-10.7 -0.5,0.25 0.4,-1.05 0.15,-0.35 0.05,-0.05 0.55,-1.05 0.15,-0.2 2.4,-0.85 0.45,-0.2 1.05,0.05 0.05,0.05 0.45,-0.05 h 0.55 0.25 l 5.2,0.15 -1.5,0.4 -1.3,-0.1 -5.4,1.4 -3,1.6 m 28.45,5.8 0.95,-0.7 0.85,-0.25 2.5,0.3 v 0.65 h -4.3 m 7.25,0 2.5,-0.45 2.9,-0.2 1.4,-0.15 3.65,-0.3 7.5,-0.05 11.5,0.55 1.8,0.6 H -35.2 m 42.05,0 q 1.8,-1.45 6.5,-1.35 4.15,0.1 5.4,1.35 H 6.85 M 66.35,-5 q 0.9,-0.25 0.9,-0.65 l 2.05,-3.6 0.7,-0.85 -0.1,-0.1 Q 69,-11 67.85,-10.95 l -0.35,0.05 -7,-0.05 -1.1,-0.05 -3.9,-0.05 -0.7,-0.1 1.2,-0.45 4.5,-0.3 7,-0.05 q 2.4,-0.4 3.65,0.7 l 0.3,0.8 0.05,0.4 q 0.1,1.2 -0.2,2.3 l -0.05,0.15 -0.1,0.3 -0.1,0.3 -0.2,0.4 -0.15,0.25 Q 70.2,-5.5 69.35,-5 h -0.45 -1.6 -0.25 -0.7 m -24.6,-6.05 V -11 l -3.3,0.55 -3.1,0.2 q -0.5,0 -2.25,-0.9 l -1.5,-0.8 -0.05,-0.05 q -3,-1.7 -5.8,-1.7 l -2.4,0.35 -0.7,0.1 -2.75,0.35 q -1.25,0 -2.85,-0.8 l -0.45,-0.25 h 13.5 l 2.7,1.5 0.3,0.2 1.95,1.15 0.75,0.2 2.7,-0.2 0.55,-0.05 1,-0.2 1.2,-0.2 h 0.5 v 0.5 m -86,-2.9 v 0.05 q 0,0.75 -3.05,1.2 l -2.8,0.45 h -0.15 -0.15 l -2.65,-0.7 q -1.6,-0.6 -2.1,-1 h 10.9 m 93.35,2.4 1.7,0.15 -0.05,0.1 -1.75,-0.1 0.1,-0.15 m 8.2,10.8 V -2.5 h 5.35 l -0.1,0.6 v 0.35 l -0.1,0.55 -0.8,0.2 -1.5,0.15 h -1.5 l -1.35,-0.1 m 5,12.1 v 1.4 l -0.4,0.1 -0.15,-0.25 -0.2,-0.35 H 61.5 V 12.2 l -0.05,-0.1 h 0.4 L 62.3,11.35 M -62.35,-0.5 -62.5,-1.45 v -0.1 -0.35 l -0.1,-0.6 h 5.35 v 1.9 l -0.3,0.15 h -0.05 l -1.3,0.15 H -60 l -2.35,-0.2 m 5.1,4.9 v 1.85 l -0.1,0.2 -0.9,2.4 0.1,0.25 0.8,3 h 0.1 v 0.25 l -0.1,0.25 -0.45,-0.5 h -1 l -0.1,-0.6 -0.2,-1.7 V 9.1 l 0.2,-1.95 0.1,-0.35 0.35,-0.8 1.2,-1.6 m 108.5,13.35 0.1,0.1 -7.1,0.95 -1.3,0.25 -1.2,0.25 v -0.7 q 1.15,-0.35 2.5,-0.55 l 0.7,-0.1 h 0.2 l 0.15,-0.05 5.95,-0.15 m -24.35,0.05 -2.75,0.9 -4.35,0.9 -6.25,-0.7 -2.8,-1.1 h 0.55 2.8 2.25 l 2.35,0.65 1.55,0.1 1.5,-0.75 h 5.15 m -65.05,0.1 v 0.4 l -2.5,0.4 -6.75,0.85 -2.75,-0.5 -2.4,0.45 -1.45,-0.25 q 0.9,-0.75 2.75,-1 l 1.75,-0.15 1.25,0.25 1.25,0.25 q 1.35,0 2.65,-0.65 l 6.2,-0.05 m 77.6,2.2 2.3,-0.65 v 0.65 0.05 l -2.9,1.45 H 36.9 l -0.4,-0.1 v 0.1 h -0.1 l -0.05,-0.4 0.2,-0.5 0.25,0.05 2.65,-0.65 M 8.25,21.6 H -4.35 L -5,21.25 q 6.65,-1.3 9.1,-0.6 l 4.15,0.95 m 50.1,30.5 0.2,0.4 0.1,0.15 0.15,0.2 v 0.05 l 0.3,0.5 h 0.3 l -0.05,0.15 v 0.1 L 59.2,54.2 H 58.95 L 58.8,54.45 V 54.5 L 58.75,54.45 58.6,54.35 58.5,54.25 58,53.6 57.9,53.4 H 57.75 L 57.7,53 v -0.1 l 0.05,-0.3 0.6,-0.5 m -3.95,7.1 0.7,-0.55 h 0.05 l 0.95,-0.15 0.3,-0.25 h 0.3 0.45 l -0.65,1.4 -0.6,0.85 -0.25,0.35 -0.5,0.6 -1.45,1.25 -0.35,-0.15 V 62.4 l 0.1,-0.3 0.05,-0.2 0.2,-0.65 0.1,-0.35 v -0.05 l 0.1,-0.3 0.05,-0.05 0.1,-0.3 0.15,-0.35 0.05,-0.25 0.15,-0.4 m 4.05,8.6 -0.05,0.3 -0.05,0.15 -0.05,0.35 h -0.1 l -0.15,0.7 -0.1,0.45 L 57.9,69.8 57.35,69.75 56.1,69.7 56.8,68.8 57,68.6 h 0.45 q 0.3,-0.3 0.55,-0.5 l 0.45,-0.3 M 53.2,64 53.15,63.75 h 0.05 l 0.05,-0.55 0.2,-0.05 0.2,-0.05 h 0.1 l -0.15,0.35 -0.1,0.3 H 53.25 L 53.2,64 m -107.15,-11.45 0.05,0.1 0.15,0.2 0.05,0.05 v 0.05 l 0.35,0.45 h 0.3 l -0.05,0.15 -0.15,0.5 -0.05,0.15 h -0.2 l -0.2,0.3 -0.2,0.3 -0.2,0.2 -0.05,0.05 -0.3,-0.75 v -0.1 l 0.1,-0.3 0.05,-0.15 v -0.15 -0.15 -0.1 l 0.05,-0.35 0.05,-0.1 0.25,-0.35 m -3.45,5.7 h 0.3 0.15 v 0.25 0.6 l -0.3,1.45 -0.05,0.15 -0.1,0.15 q -0.5,1.4 -1.45,1.7 l 0.2,-0.85 0.25,-0.8 0.25,-0.8 0.45,-1.25 0.3,-0.6 m 4.25,5.85 -0.35,2.3 -1.6,1.55 h -0.05 l -0.15,0.15 -0.2,0.15 -0.05,0.05 -0.35,0.3 h -0.6 l -0.2,0.15 -1.25,1 -0.1,-0.45 -0.1,-0.55 -0.05,-0.15 h -0.05 l -0.1,-0.35 V 68.1 l -0.05,-0.25 -0.25,-1.55 -0.05,-0.4 0.25,0.85 0.45,1.35 0.05,0.35 0.5,-0.35 0.85,-0.55 1,-0.65 0.05,-0.05 0.1,-0.1 0.4,-0.3 1.05,-1.35 0.85,-1"
         fill="#adadad"
         fill-rule="evenodd"
         stroke="none"
         id="path4" />
      <path
         d="m -70.9,-10.7 0.55,0.55 q 0.4,-0.35 1.85,-0.7 l 8.5,-0.65 15.7,0.1 3.65,0.1 2.5,0.15 v 0.1 h 16.9 l 6.4,-0.45 10.6,-0.05 0.85,-0.2 20.9,-0.15 0.8,0.25 h 6.95 l 7.75,0.5 h 0.1 q 1.75,0.9 2.25,0.9 l 3.1,-0.2 3.3,-0.55 v -0.05 h 2.5 l 3.75,0.3 h 8 l 3.4,-0.25 1.1,0.05 7,0.05 0.35,-0.05 0.95,0.3 1.1,0.45 0.1,0.1 -0.7,0.85 -2.05,3.6 q 0,0.4 -0.9,0.65 l -3.3,0.1 h -44.3 q -1.25,-1.25 -5.4,-1.35 -4.7,-0.1 -6.5,1.35 h -10.8 l -1.8,-0.6 -11.5,-0.55 -7.5,0.05 -3.65,0.3 -1.4,0.15 -2.9,0.2 -2.5,0.45 h -2.95 v -0.65 l -2.5,-0.3 -0.85,0.25 -0.95,0.7 H -63 L -69.3,-5 q -0.95,-0.55 -1.5,-1.6 -0.85,-1.7 -0.6,-3.85 l 0.5,-0.25 m 128.2,9.95 1.35,0.1 h 1.5 l 1.5,-0.15 0.8,-0.2 -0.2,2 v 0.55 l 0.05,6.3 v 3.5 l -0.45,0.75 h -0.4 l 0.05,0.1 v 0.05 h 0.05 l 0.2,0.35 0.15,0.25 0.4,-0.1 v 4.5 l -0.15,8.1 v 0.75 l -0.05,4.1 -0.05,1.1 v 1.05 0.2 0.15 H 62 q -0.95,1.55 -2.4,1.55 -0.85,0 -1.4,-1.55 H 57.6 L 57.4,31.05 57.3,30.2 V -0.75 M -62.05,34.85 -62,34.5 V 34.05 32.7 32.35 31.6 30.2 29.9 29.75 29.6 l -0.05,-3.5 v -0.75 l -0.2,-8.1 v -9.4 l 0.05,-6.3 q 0,-1.1 -0.15,-2.05 l 2.35,0.2 h 1.1 l 1.3,-0.15 h 0.05 l 0.3,-0.15 v 5 l -1.2,1.6 -0.35,0.8 -0.1,0.35 -0.2,1.95 v 0.7 l 0.2,1.7 0.1,0.6 h 1 l 0.45,0.5 0.1,-0.25 V 30.6 l -0.05,1.05 v 1.05 h -0.05 v 1.55 l 0.05,0.4 -1.9,0.35 -2.85,-0.15 m 4.8,-28.6 v 5.85 h -0.1 l -0.8,-3 -0.1,-0.25 0.9,-2.4 0.1,-0.2 m 2.5,13.85 h 94.2 l -2.65,0.65 -0.25,-0.05 -0.2,0.5 0.05,0.4 H 8.25 L 4.1,20.65 q -2.45,-0.7 -9.1,0.6 l 0.65,0.35 -50.3,-0.05 -0.1,0.05 v -1.5 m 96.5,0 h 7.6 l 5.45,-0.2 v 1.7 l -0.1,-0.05 -15.85,0.05 2.9,-1.45 V 20.1 m 17.65,27.95 0.6,2.15 0.15,1.85 -0.2,-0.5 -0.25,-0.9 -0.4,-2.6 h 0.1 M -52.9,50.5 q 0.7,0.9 0.95,2.05 l 0.05,0.25 -0.2,-0.25 -0.4,-0.6 -0.4,-1.3 V 50.5 M 55.55,48.05 h 1.5 1.05 l -0.1,0.5 h -0.3 l -2,0.05 -1.1,0.1 -0.1,-0.65 h 0.05 1 M 58.8,54.5 58.5,54.85 58.35,55 57.5,56.3 H 57.4 56.85 56.4 55.8 55.4 55.3 54.9 L 54.85,56.2 Q 54.65,55.55 54.1,55 l -0.15,-0.15 h 0.4 1.25 l 2.9,-0.6 0.1,0.1 0.15,0.1 0.05,0.05 m -4.65,-2.3 0.25,-0.6 v -0.05 l 0.1,-0.2 0.2,-0.7 V 50.5 49.4 l 0.95,0.15 h 0.25 l 2,0.05 v 0.95 0.1 l 0.2,0.9 0.1,0.15 q -0.8,-0.15 -2.05,0 l -0.1,0.05 -1.9,0.45 m 1,4.9 h 0.15 l 2,0.05 v 0.45 h -2.1 -0.1 -0.05 v -0.3 -0.2 h 0.1 m -0.75,2.1 0.15,-0.4 0.15,-0.4 v -0.15 h 0.1 0.25 0.1 1.15 0.1 l -0.3,0.25 -0.95,0.15 H 55.1 l -0.7,0.55 m 2.75,-0.95 h 0.3 0.05 l 0.1,0.1 0.6,1.85 0.15,0.4 0.05,0.25 0.35,1.25 q -0.5,-0.6 -1.6,-0.75 h -1.3 -0.1 l -0.6,0.1 0.5,-0.6 0.25,-0.35 0.6,-0.85 0.65,-1.4 m 1.75,5.5 -0.25,2.55 -0.2,1.5 -0.45,0.3 q -0.25,0.2 -0.55,0.5 H 57 l -0.2,0.2 -0.7,0.9 -0.65,-0.05 H 55 l -0.7,0.05 -0.1,-0.4 -0.15,-0.7 h -0.1 l -0.1,-0.5 -0.15,-0.65 -0.35,-1.95 0.1,-1.3 2.3,0.35 h 0.6 0.4 q 1.55,-0.1 2.1,-0.8 h 0.05 m -0.95,6 V 69.8 H 57.9 l 0.05,-0.05 m -3.15,1.3 h 2.85 l -0.85,2.6 H 56.75 L 56.2,73.7 55.7,73.65 V 73.6 l -0.95,-2.2 -0.1,-0.35 h 0.15 m 4.35,4.4 -0.1,0.1 -1.35,0.05 -0.55,0.05 -0.9,0.2 -0.6,-0.15 -0.75,-0.15 -1.2,-0.05 h -0.3 l -0.05,-0.2 0.15,-0.15 h 0.2 1.1 l 0.7,0.05 0.7,0.25 h 0.15 L 57,75.2 h 0.8 l 1.2,-0.05 0.15,0.1 0.05,0.05 -0.05,0.15 m -2.25,1.2 -0.5,0.2 h -0.25 l -0.45,-0.2 0.6,-0.2 0.6,0.2 m -115.1,-24.8 0.1,-0.3 0.2,-0.9 v -0.1 -0.95 h 1.2 l 1.05,-0.05 0.6,-0.1 0.35,-0.05 v 1.1 0.15 l 0.2,0.7 0.1,0.2 v 0.05 l 0.1,0.25 -1.15,-0.15 -0.6,-0.05 h -0.05 l -2.1,0.2 m 1.25,-3.3 H -58 l -0.1,-0.5 h 1.05 2.1 0.4 0.05 l -0.1,0.65 -0.35,-0.05 -2,-0.1 m 2.8,6.5 -0.55,0.8 -0.15,0.35 -0.05,0.1 h -0.2 -0.9 -0.9 -0.4 -0.1 -0.1 q -0.25,-0.6 -0.65,-1.1 l -0.2,-0.2 -0.6,-0.8 h -0.2 l -0.05,-0.05 -0.1,-0.3 0.1,0.1 1.4,0.5 h 0.4 1.05 0.15 l 1.75,-0.15 0.3,0.75 m -3.15,2.1 h 0.1 1.55 l 0.6,-0.05 v 0.2 0.3 h -0.45 -1.65 -0.15 v -0.25 -0.2 m -1.1,3.75 v -0.05 l 0.05,-0.25 0.15,-0.4 0.5,-1.5 0.2,-0.45 h 0.1 l -0.3,0.6 -0.45,1.25 -0.25,0.8 m 1.45,-2.65 h 0.25 0.4 1 0.3 0.2 0.1 v 0.15 l 0.15,0.4 0.3,0.8 0.2,0.6 0.15,0.35 0.1,0.3 v 0.05 l 0.1,0.35 v 0.05 l -1,-0.35 -0.8,-0.15 -0.45,-0.05 -0.75,-0.05 h -0.55 -0.05 l 0.05,-0.15 0.3,-1.45 v -0.6 -0.25 m 3.8,5.5 v 0.35 l -0.85,1 -1.05,1.35 -0.4,0.3 -0.1,0.1 -0.05,0.05 -1,0.65 -0.85,0.55 -0.5,0.35 -0.05,-0.35 -0.45,-1.35 -0.25,-0.85 -0.2,-2.15 h 1.4 0.75 0.6 3 m -0.35,2.65 -0.2,1.05 -0.1,0.65 -0.1,0.5 H -54 l -0.2,0.7 -0.1,0.4 h -0.35 l -0.8,-0.05 -1.4,0.1 -1.1,0.05 v -0.05 l 1.25,-1 0.2,-0.15 h 0.6 l 0.35,-0.3 0.05,-0.05 0.2,-0.15 0.15,-0.15 h 0.05 l 1.6,-1.55 m -3.45,6.85 -0.35,-1.05 -0.35,-1.15 h 2.8 0.2 l -0.8,2.15 -0.25,0.45 -0.5,0.05 -0.6,-0.05 -0.15,-0.4 m 3.6,2.05 -0.05,0.2 h -0.3 l -0.75,0.05 h -0.2 l -1,0.15 -0.6,0.15 -0.9,-0.2 -0.95,-0.1 h -0.4 -0.6 l -0.05,-0.3 0.15,-0.1 h 0.4 l 0.6,0.05 h 1 l 0.65,0.25 h 0.15 l 0.7,-0.25 1,-0.05 h 0.2 0.6 0.2 l 0.15,0.15 m -2.85,1.2 0.4,0.15 h 0.1 l -0.45,0.2 h -0.25 l -0.35,-0.15 -0.15,-0.05 0.5,-0.15 0.1,-0.05 0.1,0.05"
         fill="#c4c4c4"
         fill-rule="evenodd"
         stroke="none"
         id="path5" />
      <path
         d="m -71.4,-10.45 q -0.25,2.15 0.6,3.85 0.55,1.05 1.5,1.6 l 6.3,0.1 h 20.55 4.3 2.95 31.25 10.8 11.9 44.3 l 3.3,-0.1 h 0.7 0.25 1.6 0.45 q 0.85,-0.5 1.35,-1.35 l 0.15,-0.25 0.2,-0.4 0.1,-0.3 0.1,-0.3 0.05,-0.15 q 0.3,-1.1 0.2,-2.3 l -0.05,-0.4 -0.3,-0.8 -0.25,-0.6 -0.75,-1.3 -2.85,-1.05 -11.6,0.25 h -25.6 -13.5 -60.85 -10.9 -0.5 L -58.9,-14 h -0.8 l -5.2,-0.15 h -0.25 -0.55 -0.5 l -1.05,-0.05 -0.45,0.2 -2.4,0.85 -0.15,0.2 -0.55,1.05 -0.05,0.05 -0.15,0.35 -0.4,1.05 M 62.45,-1 62.55,-1.55 V -1.9 l 0.1,-0.6 H 57.3 v 1.75 30.95 l 0.1,0.85 v 0.8 2.4 q -0.25,2.35 -1.35,2.35 -1.1,0 -1.35,-2.1 v -2.55 l 0.05,-1.75 h 0.05 v -6.7 l -0.1,0.05 H -54.65 l -0.1,-0.05 v 6.7 h 0.1 v 1.75 0.75 1.8 q -0.25,2.1 -1.35,2.1 -1,0 -1.3,-1.95 l -0.05,-0.4 V 32.7 h 0.05 v -1.05 l 0.05,-1.05 V 12.35 12.1 6.25 4.4 v -5 -1.9 h -5.35 l 0.1,0.6 v 0.35 0.1 l 0.15,0.95 q 0.15,0.95 0.15,2.05 l -0.05,6.3 v 9.4 l 0.2,8.1 v 0.75 l 0.05,3.5 v 0.3 0.3 1.4 0.75 0.35 1.35 0.45 l -0.05,0.35 -0.6,0.95 -0.6,0.15 h -0.1 -0.15 l -0.45,-0.15 q -0.55,-0.45 -0.75,-2.1 l -0.05,-2.35 0.05,-1.15 h 0.05 V 7.75 q 0.1,-1.85 -0.1,-6.1 l 0.2,-2.2 -0.1,-1.4 0.05,-0.55 h -5.15 q -3.1,-1.45 -3.8,-2.85 -0.3,-0.6 -0.3,-2.95 0,-3.8 0.5,-4.8 0.5,-1 1.55,-1.55 l 1.25,-0.75 q 0.25,-0.4 1.5,-0.5 l 10.15,-0.35 3.25,-0.15 H 55.7 l 13.4,0.5 q 1.25,0.1 1.5,0.5 0.7,0.1 1.25,0.75 1.05,0.55 1.55,1.55 0.5,1 0.5,4.8 0,2.35 -0.3,2.95 -0.7,1.4 -3.8,2.85 h -5.15 l 0.05,0.55 -0.1,1.4 0.2,2.2 Q 64.6,5.9 64.7,7.75 V 30.2 h 0.1 v 1.15 l -0.05,2.35 q -0.25,2.25 -1.2,2.25 H 63.4 63.3 q -1.05,0 -1.25,-1.45 v -1.8 -0.15 -0.2 -1.05 l 0.05,-1.1 0.05,-4.1 v -0.75 l 0.15,-8.1 v -4.5 -1.4 -3.5 L 62.25,1.55 V 1 l 0.2,-2 m -17.5,18.95 h -0.6 -2.6 V 17.9 l -11.3,-0.1 h -3.55 -5.15 -5.4 -2.25 -2.8 -0.55 -22 -2.8 -16.35 l -7.75,0.05 v 0.05 l -6.2,0.05 q -3.6,-0.2 -10.4,-0.25 v 2.4 1.5 l 0.1,-0.05 50.3,0.05 h 12.6 28.15 0.1 0.4 1.95 l 15.85,-0.05 0.1,0.05 v -1.7 -2.2 l -3.55,0.05 -5.95,0.15 -0.15,0.05 h -0.2 M 54.8,15.8 V -2.5 H -54.75 v 18.3 l 10.45,-0.35 3.65,0.05 h 1.25 0.35 l 36.9,0.15 h 2.2 2.15 l 42.15,-0.2 10.45,0.35 m -2.7,36.8 v -0.05 l 0.4,-0.6 0.4,-1.3 0.3,-2.6 H 52.15 L 51.25,47.55 51.1,47 v -0.1 h -0.05 l 0.05,-0.15 -0.1,0.05 -0.8,-0.2 -0.15,-0.55 0.1,-0.4 -0.2,-0.8 V 44.7 h 13.4 l -0.15,0.55 -0.1,0.2 0.05,0.05 -0.1,0.15 q -0.3,0.6 -0.85,0.6 L 61.6,46.1 h -0.35 v 0.35 l 0.1,0.05 0.25,0.4 h 0.05 l 0.1,0.2 -0.1,0.45 -0.15,0.15 -1.5,0.35 h -0.6 -0.1 l 0.4,2.6 0.25,0.9 0.2,0.5 0.3,0.5 0.35,0.35 h 0.25 l 0.15,0.35 v 0.1 h 0.15 v 0.95 0.05 0.15 0.2 h -0.1 l -0.25,0.5 -0.7,0.85 -0.95,1.3 0.05,0.1 0.9,2.3 q 0.65,2.1 0.5,4 H 60.7 L 60.3,67 60.2,68.6 h -0.05 l -0.1,0.7 q -0.35,1 -0.35,3.2 0,0.6 -0.65,1.3 l 0.8,0.15 q 0.7,0.2 0.7,0.6 0.15,0.25 -0.05,0.3 l -0.2,0.2 q 0.25,0.25 0.15,0.7 0.15,0.35 -0.1,0.5 l -1.7,0.4 0.25,0.7 q 0.1,0.8 -1.25,0.95 h -2.8 Q 53.9,78.2 53.7,77.7 L 53.65,77.35 53.7,77.1 53.95,76.65 H 53.7 l -1.55,-0.4 -0.1,-0.5 0.2,-0.7 -0.25,-0.2 -0.05,-0.3 q 0.1,-0.4 0.65,-0.6 L 53.4,73.8 Q 52.85,73.15 52.65,72.5 52.7,70.9 52.4,69.95 L 52.2,69.3 52.1,68.6 H 52 L 51.85,67.7 51.8,67 51.35,63.75 V 63 q 0.1,-1.55 0.6,-3.25 l 1.1,-2.3 V 57.4 q 0,-0.45 -1,-1.35 l -0.7,-1.15 -4.3,0.2 -65.35,0.15 -33.05,-0.3 -0.7,1.1 q -1,0.9 -1,1.35 v 0.05 l 1.1,2.3 q 0.5,1.7 0.65,3.25 v 0.75 h -0.05 L -51.8,67 -51.85,67.7 -52,68.6 h -0.05 l -0.15,0.7 -0.2,0.65 q -0.3,0.95 -0.25,2.55 -0.2,0.65 -0.75,1.3 l 0.8,0.15 q 0.55,0.2 0.65,0.6 l -0.05,0.3 -0.25,0.2 0.2,0.7 -0.1,0.5 -1.55,0.4 h -0.25 l 0.25,0.45 0.05,0.25 -0.05,0.35 q -0.2,0.5 -1.15,0.6 h -2.8 Q -59,78.15 -58.9,77.35 l 0.25,-0.7 -1.7,-0.4 q -0.25,-0.15 -0.1,-0.5 -0.1,-0.45 0.15,-0.7 l -0.2,-0.2 q -0.2,-0.05 -0.05,-0.3 0,-0.4 0.7,-0.6 l 0.75,-0.15 h 0.05 q -0.65,-0.7 -0.65,-1.3 0,-2.2 -0.35,-3.2 l -0.05,-0.7 h -0.05 L -60.3,67 -60.7,63.75 h -0.1 q -0.15,-1.9 0.5,-4 l 0.9,-2.3 0.05,-0.1 -0.95,-1.3 -0.7,-0.85 -0.25,-0.5 h -0.1 V 54.5 54.35 54.3 53.35 h 0.15 l 0.05,-0.1 0.1,-0.35 h 0.3 l 0.3,-0.35 0.5,-1 0.25,-0.9 0.4,-2.6 H -60 l -1.5,-0.35 -0.15,-0.15 -0.1,-0.45 0.1,-0.2 h 0.05 l 0.25,-0.4 0.1,-0.05 V 46.1 h -0.35 l -0.6,0.15 q -0.55,0 -0.85,-0.6 l -0.1,-0.15 0.05,-0.05 -0.1,-0.2 -0.1,-0.55 h 13.35 v 0.15 l -0.2,0.8 0.1,0.4 -0.15,0.55 -0.8,0.2 -0.1,-0.05 0.05,0.15 H -51.1 V 47 l -0.15,0.55 -0.9,0.5 h -1.05 l 0.3,2.45 v 0.15 l 0.4,1.3 0.4,0.6 0.2,0.25 -0.05,-0.25 99,-0.2 5.05,0.25 -0.3,0.3 -0.1,0.15 -0.2,0.35 0.2,-0.35 0.1,-0.15 0.3,-0.3 m 3.45,-4.55 h -1 -0.05 l 0.1,0.65 1.1,-0.1 2,-0.05 H 58 l 0.1,-0.5 h -1.05 -1.5 m 5.8,6.25 v -0.1 l -0.15,-0.85 0.15,0.85 v 0.1 m -0.15,-1.05 -0.4,-0.35 0.4,0.35 m -2.4,1.25 v -0.05 l 0.15,-0.25 h 0.25 l 0.15,-0.55 v -0.1 L 59.4,53.4 h -0.3 l -0.3,-0.5 v -0.05 l -0.15,-0.2 -0.1,-0.15 -0.2,-0.4 -0.15,-0.4 -0.1,-0.15 -0.2,-0.9 v -0.1 -0.95 l -2,-0.05 H 55.65 L 54.7,49.4 v 1.1 0.15 l -0.2,0.7 -0.1,0.2 v 0.05 l -0.25,0.6 -0.25,0.45 -0.15,0.25 -0.05,0.05 -0.05,0.1 -0.3,0.35 H 53.1 v 0.15 l 0.25,0.65 h 0.2 l 0.05,0.15 0.1,0.15 0.25,0.35 0.15,0.15 q 0.55,0.55 0.75,1.2 l 0.05,0.1 h 0.4 0.1 0.4 0.6 0.45 0.55 0.1 L 58.35,55 58.5,54.85 58.8,54.5 m -7.1,-1.45 q -0.3,0 -0.35,0.15 h -0.3 l 0.2,1.5 0.1,0.2 -0.1,-0.2 -0.2,-1.5 h 0.3 q 0.05,-0.15 0.35,-0.15 m 3.45,4.05 h -0.1 v 0.2 0.3 h 0.05 0.1 2.1 v -0.45 l -2,-0.05 h -0.15 m 1.25,1.15 h -0.1 -1.15 -0.1 -0.25 -0.1 v 0.15 l -0.15,0.4 -0.15,0.4 -0.15,0.4 -0.05,0.25 -0.15,0.35 -0.1,0.3 -0.05,0.05 -0.1,0.3 v 0.05 l -0.1,0.35 -0.2,0.65 -0.05,0.2 -0.1,0.3 v 0.15 L 53.3,62.7 53.25,63 v 0.05 0.15 L 53.2,63.75 H 53.15 L 53.2,64 v 0.05 l 0.15,1.45 0.35,1.95 0.15,0.65 0.1,0.5 h 0.1 l 0.15,0.7 0.1,0.4 0.7,-0.05 h 0.45 l 0.65,0.05 1.25,0.05 0.55,0.05 h 0.05 v -0.05 l 0.1,-0.45 0.15,-0.7 h 0.1 l 0.05,-0.35 0.05,-0.15 0.05,-0.3 0.2,-1.5 0.25,-2.55 h 0.05 V 63.4 L 58.9,63 58.85,62.6 58.75,62.1 58.4,60.85 58.35,60.6 58.2,60.2 57.6,58.35 57.5,58.25 h -0.05 -0.3 -0.45 -0.3 m -1.6,12.8 h -0.15 l 0.1,0.35 0.95,2.2 v 0.05 l 0.5,0.05 0.55,-0.05 h 0.05 l 0.85,-2.6 H 54.8 m 4.35,4.4 L 59.2,75.3 59.15,75.25 59,75.15 57.8,75.2 H 57 l -0.65,0.25 H 56.2 L 55.5,75.2 54.8,75.15 h -1.1 -0.2 l -0.15,0.15 0.05,0.2 h 0.3 l 1.2,0.05 0.75,0.15 0.6,0.15 0.9,-0.2 0.55,-0.05 1.35,-0.05 h 0.05 l 0.05,-0.1 m -2.25,1.2 -0.6,-0.2 -0.6,0.2 0.45,0.2 h 0.25 l 0.5,-0.2 m -113.85,-28.1 2,0.1 0.35,0.05 0.1,-0.65 h -0.05 -0.4 -2.1 -1.05 l 0.1,0.5 h 1.05 m 2.65,3.3 -0.1,-0.25 v -0.05 l -0.1,-0.2 -0.2,-0.7 V 50.5 49.4 l -0.35,0.05 -0.6,0.1 -1.05,0.05 h -1.2 v 0.95 0.1 l -0.2,0.9 -0.1,0.3 -0.45,0.8 -0.15,0.25 -0.3,0.5 h -0.25 v 0.25 l 0.05,0.2 0.1,0.3 0.05,0.05 h 0.2 l 0.6,0.8 0.2,0.2 q 0.4,0.5 0.65,1.1 h 0.1 0.1 0.4 0.9 0.9 0.2 l 0.05,-0.1 0.15,-0.35 0.55,-0.8 0.05,-0.05 0.2,-0.2 0.2,-0.3 0.2,-0.3 h 0.2 l 0.05,-0.15 0.15,-0.5 0.05,-0.15 h -0.3 L -53.7,52.95 V 52.9 l -0.05,-0.05 -0.15,-0.2 -0.05,-0.1 -0.05,-0.1 -0.3,-0.6 m 2.95,3.1 0.1,-0.25 0.2,-1.5 h -0.3 l -0.2,-0.1 -0.25,-0.2 -0.1,-0.1 0.1,0.1 0.25,0.2 0.2,0.1 h 0.3 l -0.2,1.5 -0.1,0.25 m -5.95,2.2 v 0.2 0.25 h 0.15 1.65 0.45 v -0.3 -0.2 l -0.6,0.05 h -1.55 -0.1 m -0.1,1.1 h -0.1 l -0.2,0.45 -0.5,1.5 -0.15,0.4 -0.05,0.25 v 0.05 l -0.25,0.8 -0.2,0.85 V 62.6 L -58.9,63 v 0.35 l -0.05,0.15 v 0.25 h 0.05 l 0.2,2.15 0.05,0.4 0.25,1.55 0.05,0.25 v 0.15 l 0.1,0.35 h 0.05 l 0.05,0.15 0.1,0.55 0.1,0.45 v 0.05 l 1.1,-0.05 1.4,-0.1 0.8,0.05 h 0.35 l 0.1,-0.4 0.2,-0.7 h 0.1 l 0.1,-0.5 0.1,-0.65 0.2,-1.05 0.35,-2.3 v -0.35 -0.2 l -0.1,-0.5 V 63 l -0.05,-0.3 -0.15,-0.6 -0.2,-0.8 h -0.05 v -0.05 l -0.1,-0.35 v -0.05 l -0.1,-0.3 -0.15,-0.35 -0.2,-0.6 -0.3,-0.8 -0.15,-0.4 v -0.15 h -0.1 -0.2 -0.3 -1 -0.4 -0.25 -0.15 -0.3 m 0.45,15 0.15,0.4 0.6,0.05 0.5,-0.05 0.25,-0.45 0.8,-2.15 h -0.2 -2.8 l 0.35,1.15 0.35,1.05 m -4.25,-19.9 -0.1,0.85 -0.05,0.1 0.05,-0.1 0.1,-0.85 m 5,23.15 -0.1,-0.05 -0.1,0.05 -0.5,0.15 0.15,0.05 0.35,0.15 h 0.25 l 0.45,-0.2 h -0.1 l -0.4,-0.15 m 2.85,-1.2 -0.15,-0.15 h -0.2 -0.6 -0.2 l -1,0.05 -0.7,0.25 h -0.15 L -57,75.2 h -1 l -0.6,-0.05 H -59 l -0.15,0.1 0.05,0.3 h 0.6 0.4 l 0.95,0.1 0.9,0.2 0.6,-0.15 1,-0.15 h 0.2 l 0.75,-0.05 h 0.3 l 0.05,-0.2 m -7.8,-22.05 0.4,-0.35 -0.4,0.35"
         fill="#9a9a9a"
         fill-rule="evenodd"
         stroke="none"
         id="path6" />
      <path
         d="m 52.1,52.6 v -0.05 l 0.4,-0.6 0.4,-1.3 0.3,-2.6 H 52.15 L 51.25,47.55 51.1,47 v -0.1 h -0.05 l 0.05,-0.15 -0.1,0.05 -0.8,-0.2 -0.15,-0.55 0.1,-0.4 -0.2,-0.8 V 44.7 m 13.4,0 -0.15,0.55 -0.1,0.2 0.05,0.05 -0.1,0.15 q -0.3,0.6 -0.85,0.6 L 61.6,46.1 h -0.35 v 0.35 l 0.1,0.05 0.25,0.4 h 0.05 l 0.1,0.2 -0.1,0.45 -0.15,0.15 -1.5,0.35 h -0.6 -0.1 l 0.4,2.6 0.25,0.9 0.2,0.5 0.3,0.5 0.35,0.35 0.4,0.35 v 0.1 l 0.15,0.85 v 0.1 0.05 0.15 0.2 m -0.3,-1.8 0.15,0.35 m 0.05,1.45 -0.25,0.5 -0.7,0.85 -0.95,1.3 0.05,0.1 0.9,2.3 q 0.65,2.1 0.5,4 m -0.1,0 -0.4,3.25 -0.1,1.6 m -0.05,0 -0.1,0.7 q -0.35,1 -0.35,3.2 0,0.6 -0.65,1.3 l 0.8,0.15 q 0.7,0.2 0.7,0.6 0.15,0.25 -0.05,0.3 l -0.2,0.2 q 0.25,0.25 0.15,0.7 0.15,0.35 -0.1,0.5 l -1.7,0.4 0.25,0.7 q 0.1,0.8 -1.25,0.95 h -2.8 Q 53.9,78.2 53.7,77.7 L 53.65,77.35 53.7,77.1 53.95,76.65 H 53.7 l -1.55,-0.4 -0.1,-0.5 0.2,-0.7 -0.25,-0.2 -0.05,-0.3 q 0.1,-0.4 0.65,-0.6 L 53.4,73.8 Q 52.85,73.15 52.65,72.5 52.7,70.9 52.4,69.95 L 52.2,69.3 52.1,68.6 M 52,68.6 51.85,67.7 51.8,67 51.35,63.75 V 63 q 0.1,-1.55 0.6,-3.25 l 1.1,-2.3 V 57.4 q 0,-0.45 -1,-1.35 l -0.7,-1.15 -0.1,-0.2 -0.2,-1.5 h 0.3 q 0.05,-0.15 0.35,-0.15 l -0.2,0.35 m -102.85,1.55 -0.7,1.1 q -1,0.9 -1,1.35 v 0.05 l 1.1,2.3 q 0.5,1.7 0.65,3.25 v 0.75 m -0.05,0 -0.45,3.25 -0.05,0.7 -0.15,0.9 m -0.05,0 -0.15,0.7 -0.2,0.65 q -0.3,0.95 -0.25,2.55 -0.2,0.65 -0.75,1.3 l 0.8,0.15 q 0.55,0.2 0.65,0.6 l -0.05,0.3 -0.25,0.2 0.2,0.7 -0.1,0.5 -1.55,0.4 h -0.25 l 0.25,0.45 0.05,0.25 -0.05,0.35 q -0.2,0.5 -1.15,0.6 h -2.8 Q -59,78.15 -58.9,77.35 l 0.25,-0.7 -1.7,-0.4 q -0.25,-0.15 -0.1,-0.5 -0.1,-0.45 0.15,-0.7 l -0.2,-0.2 q -0.2,-0.05 -0.05,-0.3 0,-0.4 0.7,-0.6 l 0.75,-0.15 h 0.05 q -0.65,-0.7 -0.65,-1.3 0,-2.2 -0.35,-3.2 l -0.05,-0.7 m -0.05,0 -0.15,-1.6 -0.4,-3.25 m -0.1,0 q -0.15,-1.9 0.5,-4 l 0.9,-2.3 0.05,-0.1 -0.95,-1.3 -0.7,-0.85 -0.25,-0.5 m -0.1,0 V 54.5 54.35 54.3 l 0.05,-0.1 0.1,-0.85 0.05,-0.1 0.1,-0.35 m 0.3,0 0.3,-0.35 0.5,-1 0.25,-0.9 0.4,-2.6 H -60 l -1.5,-0.35 -0.15,-0.15 -0.1,-0.45 0.1,-0.2 h 0.05 l 0.25,-0.4 0.1,-0.05 V 46.1 h -0.35 l -0.6,0.15 q -0.55,0 -0.85,-0.6 l -0.1,-0.15 0.05,-0.05 -0.1,-0.2 -0.1,-0.55 m 13.35,0 v 0.15 l -0.2,0.8 0.1,0.4 -0.15,0.55 -0.8,0.2 -0.1,-0.05 0.05,0.15 H -51.1 V 47 l -0.15,0.55 -0.9,0.5 h -1.05 l 0.3,2.45 v 0.15 l 0.4,1.3 0.4,0.6 0.2,0.25 0.1,0.1 0.25,0.2 0.2,0.1 h 0.3 l -0.2,1.5 -0.1,0.25 M 52.1,52.6 l -0.3,0.3 -0.1,0.15 m -112.45,-0.15 -0.4,0.35"
         fill="none"
         stroke="#9a9a9a"
         stroke-linecap="round"
         stroke-linejoin="round"
         stroke-width="1"
         id="path7" />
    </g>
    <g
       id="shape1"
       transform="translate(74.85,28)">
      <path
         d="m 58.85,-19.4 0.45,-0.4 h 0.05 l 0.25,0.35 h -0.25 l -0.5,0.05 m 3.3,-7.6 1.7,-0.1 0.5,0.25 -2.2,-0.15 m 3.95,2.75 0.35,1.5 -0.25,1.4 -0.1,-2.9 m -1.55,4.4 0.45,0.45 -0.7,-0.05 0.25,-0.4 m 0.5,37.05 0.6,2.15 0.15,1.85 -0.2,-0.5 -0.25,-0.9 -0.4,-2.6 h 0.1 m -124.3,2.45 q 0.8,1 1,2.3 l -0.2,-0.25 -0.4,-0.6 -0.4,-1.3 V 19.65 M -65.8,-8.05 V -8.4 l 0.05,0.1 0.05,0.05 -0.1,0.2 m 0.35,-10.5 -0.45,-0.05 h 0.5 l -0.05,0.05 m -0.4,-0.8 0.7,-0.3 0.15,0.2 -0.85,0.1 m 4.7,-7.6 0.3,-0.2 q 0.55,-0.35 1.15,0.3 l -1.45,-0.1 m 3,2.95 0.25,1.55 q 0,1.05 -0.9,1.9 l -0.05,0.05 0.05,-0.15 q 0.45,-0.35 0.6,-1.05 l 0.05,-1.55 V -24 m -1.2,3.95 -0.25,0.15 q 0.3,0.15 0.35,0.5 l -0.8,-0.05 h -0.25 l 0.25,-0.25 v -0.1 l 0.05,-0.15 0.3,-0.05 0.35,-0.05 m 1.95,14.1 0.3,0.2 -0.3,-0.05 v -0.15 m 117.35,-17.6 3.35,0.2 1,-0.05 -0.05,0.7 -1,0.3 -1.65,0.6 0.1,0.2 -2.45,-0.05 0.05,-0.1 0.05,-0.4 h 0.05 l 0.55,-1.4 m 4.25,1.85 v 0.15 h -0.25 l 0.25,-0.15 m -4.3,6.25 0.05,-0.2 0.4,0.05 -0.45,0.15 m 3.5,-0.25 0.2,-0.05 0.05,0.1 -0.25,-0.05 m 0.7,1.75 0.05,0.5 h 0.15 v 0.05 l 0.15,0.7 v 0.2 l 0.05,0.4 0.05,0.35 h -0.1 -0.5 l -1.8,1.4 -0.85,0.45 -1.15,0.5 -0.05,-0.1 -0.2,-0.4 -0.2,-0.35 -0.15,-0.3 -0.1,-0.25 v -0.05 l -0.1,-0.2 -0.25,-0.65 -0.05,-0.05 h -0.2 l 0.05,-0.45 0.1,-0.5 0.15,-0.75 h 0.15 l 0.05,-0.25 0.05,-0.05 1,0.3 2.95,-0.15 q 0.45,-0.1 0.75,-0.35 M 63.25,-9 63.15,-8.9 H 63 L 63.25,-9 m -2,0.1 h -0.8 -0.1 v -0.15 l 0.55,0.1 0.35,0.05 m -0.75,-7.75 h -0.2 l 1.05,-1.8 0.5,-0.05 0.6,0.05 0.85,1.8 h -2.8 m 4.05,10.8 h -5.4 l 0.2,-0.25 0.4,-0.4 q 0.55,-0.4 0.75,-0.9 l 0.05,-0.1 h 2.5 0.1 q 0.3,0.55 0.85,1 l 0.55,0.6 v 0.05 M 60.7,-8.2 v -0.25 h 0.05 2.2 v 0.2 0.15 h -1.1 L 60.7,-8.05 V -8.2 m -3.2,6 0.2,-0.35 0.05,-0.05 0.55,-0.5 0.3,-0.3 0.7,-0.7 0.15,-0.15 h 7.35 l -0.05,1.3 v 0.7 L 57.5,-2.2 m 3.8,-16.6 0.6,-0.1 0.9,0.15 h -1.75 l 0.25,-0.05 m 0.5,-0.8 h 0.25 l 0.5,0.15 -0.6,0.1 -0.6,-0.1 0.45,-0.15 m -121.8,-4.75 -0.05,1.15 0.05,1.45 0.05,0.1 -3.2,0.05 0.3,-0.3 -0.25,-0.3 -0.25,-0.2 H -64.9 L -65,-24 q 0.5,0.25 1.55,0.4 h 1.65 l 1.2,-0.25 0.5,-0.45 0.1,-0.05 m -2.5,4.75 0.45,0.15 -0.55,0.1 h -0.1 l -0.55,-0.1 0.5,-0.15 h 0.25 m -0.1,0.7 0.6,0.1 0.3,0.05 h -1.8 l 0.9,-0.15 m 1.6,2.25 h -0.2 -2.8 l 0.85,-1.8 0.6,-0.05 0.5,0.05 1.05,1.8 m 0.15,1.05 0.2,-0.05 0.1,0.2 -0.3,-0.15 m 0.8,1.9 0.05,0.25 h 0.15 l 0.15,0.75 0.1,0.5 0.05,0.35 0.05,0.1 h -0.25 l -0.15,-0.95 -0.15,-0.95 v -0.05 m -0.9,4.55 -0.1,0.15 v 0.1 h -0.1 -0.15 l 0.35,-0.25 m -2.75,0.25 h -0.15 l -0.05,-0.1 -0.15,-0.2 -0.5,-1.05 -0.15,-0.35 -0.05,-0.2 -0.35,-0.95 h -0.1 l 0.05,-0.2 0.05,-0.75 0.1,-0.7 v -0.05 h 0.15 l 0.1,-0.5 0.1,0.1 q 0.6,0.7 2.3,0.8 h 0.55 l 1.05,-0.2 0.1,0.55 0.2,0.95 h 0.2 l 0.05,0.25 -0.2,-0.1 -0.75,0.4 -0.4,0.2 -0.85,0.65 -0.25,0.2 -0.7,0.7 -0.35,0.55 m 1.4,0.45 h 0.9 v 0.25 0.15 l -1.45,-0.05 h -0.8 v -0.1 h 0.05 l 0.55,-0.05 h 0.2 l 0.55,-0.2 m -1.85,1.4 0.3,-0.45 h 0.1 0.6 0.35 1.55 l 0.05,0.1 0.35,0.55 0.25,0.25 0.15,0.1 0.4,0.4 0.2,0.25 h -5.45 l 0.6,-0.65 0.35,-0.3 0.2,-0.25 m -3.3,4.3 v -0.2 l -0.05,-1.3 h 9.65 l 0.6,-0.05 -0.1,1.7 0.05,0.4 -9.45,-0.05 -0.3,-0.15 -0.4,-0.35 M 8.45,11.3 h -8.8 -9.8 -1.7 -0.4 l -1.25,-0.05 v 0.05 h -11 l -3.45,-0.55 -1.9,-0.15 Q -30.3,9.5 -33,9.9 q -2.55,0.4 -4.8,1.5 l -15.6,0.2 h -0.05 -1.25 -0.85 l -0.35,-0.25 -0.75,0.05 -0.05,-0.5 0.05,-1.05 q 0.15,-2.05 0,-3.45 L 33.7,6.65 32.75,7.3 Q 30.95,8.55 29.3,9 l 0.1,0.6 q 1.15,0 3.35,-1.25 l 2.3,-1.5 0.3,-0.2 20.6,0.05 V 9.85 L 56,10.9 55.95,11.4 55.2,11.35 54.85,11.6 H 54 52.75 52.7 L 31.3,11.35 28.15,11.3 H 17.6 l 6.75,-1.3 -3.9,-0.3 -8.3,1.05 -3.7,0.55 M 71.1,1.85 V 1.95 2.2 2.3 2.95 L 70.7,2.9 H 65.35 L 10.8,3.1 h -11.15 -9.8 -1.3 l -13.25,-0.05 0.75,-0.25 2.4,-0.85 -0.35,-0.15 93,0.05 m -97.15,1.2 -40,-0.15 h -5.35 l -0.4,0.05 V 2.3 2.2 1.95 1.35 l 48.9,0.45 -1.45,0.45 q -1.15,0.4 -1.7,0.8 m -32,3.35 -0.05,0.65 v 0.2 l 0.05,4 q -1.3,0.15 -2,0.7 l -1.85,1.7 -0.05,0.05 h -0.55 -0.25 -0.8 -0.05 -0.65 -1.1 -0.75 -0.1 -0.35 -0.15 -0.9 V 13.35 12.6 12.15 12 11.75 l -0.05,-3.6 0.1,-0.45 0.1,-1 0.1,-0.35 9.3,0.05 m -6.5,14.6 0.1,-0.3 0.2,-0.9 v -0.1 -0.95 h 1.2 l 1.05,-0.05 0.6,-0.1 0.35,-0.05 v 1.1 0.15 l 0.2,0.7 0.1,0.2 v 0.05 l 0.1,0.25 -1.15,-0.15 -0.6,-0.05 h -0.05 l -2.1,0.2 m 4.05,3.2 -0.55,0.8 -0.15,0.35 -0.05,0.1 h -0.2 -0.9 -0.9 -0.4 -0.1 -0.1 q -0.25,-0.6 -0.65,-1.1 l -0.2,-0.2 -0.6,-0.8 h -0.2 l -0.05,-0.05 -0.1,-0.3 0.1,0.1 q 0.45,0.4 1.4,0.5 h 0.4 1.05 0.15 l 1.75,-0.15 0.3,0.75 M -62.95,9.35 Q -63.9,9.3 -64.55,9.7 l -0.5,0.55 0.05,0.45 0.15,0.05 q 0.5,0 1.9,-1.4 m -0.35,8.35 h -1.05 l -0.1,-0.5 h 1.05 2.1 0.4 0.05 l -0.1,0.65 -0.35,-0.05 -2,-0.1 m 0,9.7 h 0.25 0.4 1 0.3 0.2 0.1 v 0.15 l 0.15,0.4 0.3,0.8 0.2,0.6 0.15,0.35 0.1,0.3 v 0.05 l 0.1,0.35 v 0.05 l -1,-0.35 -0.8,-0.15 -0.45,-0.05 -0.75,-0.05 h -0.55 -0.05 l 0.05,-0.15 0.3,-1.45 v -0.6 -0.25 m 3.8,5.5 v 0.35 l -0.85,1 -1.05,1.35 -0.4,0.3 -0.1,0.1 -0.05,0.05 -1,0.65 -0.85,0.55 -0.5,0.35 -0.05,-0.35 -0.45,-1.35 -0.25,-0.85 -0.2,-2.15 h 1.4 0.75 0.6 3 m -0.35,2.65 -0.2,1.05 -0.1,0.65 -0.1,0.5 h -0.1 l -0.2,0.7 -0.1,0.4 H -61 l -0.8,-0.05 -1.4,0.1 -1.1,0.05 V 38.9 l 1.25,-1 0.2,-0.15 h 0.6 l 0.35,-0.3 0.05,-0.05 0.2,-0.15 0.15,-0.15 h 0.05 l 1.6,-1.55 m -4.9,-5.5 V 30 l 0.05,-0.25 0.15,-0.4 0.5,-1.5 0.2,-0.45 h 0.1 l -0.3,0.6 -0.45,1.25 -0.25,0.8 m 3.35,-3.3 h -0.45 -1.65 -0.15 V 26.5 26.3 h 0.1 1.55 l 0.6,-0.05 v 0.2 0.3 m 0.2,13.45 h 0.2 l -0.8,2.15 -0.25,0.45 -0.5,0.05 -0.6,-0.05 -0.15,-0.4 -0.35,-1.05 L -64,40.2 h 2.8 m -0.8,4.65 -0.6,0.15 -0.9,-0.2 -0.95,-0.1 h -0.4 -0.6 l -0.05,-0.3 0.15,-0.1 h 0.4 l 0.6,0.05 h 1 l 0.65,0.25 h 0.15 l 0.7,-0.25 1,-0.05 h 0.2 0.6 0.2 l 0.15,0.15 -0.05,0.2 h -0.3 L -60.8,44.7 H -61 l -1,0.15 m -0.75,0.8 0.1,-0.05 0.1,0.05 0.4,0.15 h 0.1 L -62.5,46 h -0.25 l -0.35,-0.15 -0.15,-0.05 0.5,-0.15 M 67.1,6.45 l -0.05,0.3 -0.1,0.5 -0.05,4.45 -0.35,0.5 -1.15,1.4 -0.85,0.1 h -1 -0.3 -0.4 -0.5 -1.45 L 59.35,11.45 58.85,11 58.55,9.45 Q 58.3,8 57.4,7.75 V 7.25 7.05 6.7 h 5.4 L 67.1,6.45 M 62.7,17.2 h 1.05 l -0.1,0.5 h -0.3 l -2,0.05 -1.1,0.1 -0.1,-0.65 h 0.05 1 1.5 m -2.9,4.15 0.25,-0.6 V 20.7 l 0.1,-0.2 0.2,-0.7 v -0.15 -1.1 l 0.95,0.15 h 0.25 l 2,0.05 v 0.95 0.1 l 0.2,0.9 0.1,0.15 q -0.8,-0.15 -2.05,0 l -0.1,0.05 -1.9,0.45 m 4.65,2.3 -0.3,0.35 -0.15,0.15 -0.85,1.3 h -0.1 -0.55 -0.45 -0.6 -0.4 -0.1 -0.4 L 60.5,25.35 59.75,24.15 59.6,24 h 0.4 1.25 q 1.9,-0.15 2.9,-0.6 l 0.1,0.1 0.15,0.1 0.05,0.05 m -4.4,4.7 0.15,-0.4 0.15,-0.4 V 27.4 h 0.1 0.25 0.1 1.15 0.1 l -0.3,0.25 -0.95,0.15 H 60.75 Q 60.4,28 60.05,28.35 M 62.8,27.4 h 0.3 0.05 l 0.1,0.1 0.6,1.85 0.15,0.4 0.05,0.25 0.35,1.25 q -0.5,-0.6 -1.6,-0.75 h -1.3 -0.1 l -0.6,0.1 0.5,-0.6 0.25,-0.35 0.6,-0.85 0.65,-1.4 m 1.75,5.5 -0.25,2.55 -0.2,1.5 q -0.2,0.1 -0.45,0.3 l -0.55,0.5 h -0.45 l -0.2,0.2 -0.7,0.9 -0.65,-0.05 h -0.45 l -0.7,0.05 -0.1,-0.4 -0.15,-0.7 H 59.6 L 59.5,37.25 59.35,36.6 59,34.65 l 0.1,-1.3 2.3,0.35 h 0.6 0.4 q 1.55,-0.1 2.1,-0.8 h 0.05 m -0.95,6 v 0.05 H 63.55 L 63.6,38.9 M 60.7,26.25 h 0.1 0.15 l 2,0.05 v 0.45 h -2.1 -0.1 -0.05 v -0.3 -0.2 M 60.45,40.2 h 2.85 l -0.85,2.6 H 62.4 l -0.55,0.05 -0.5,-0.05 V 42.75 L 60.4,40.55 60.3,40.2 h 0.15 m 4.25,4.5 -1.35,0.05 -0.55,0.05 -0.9,0.2 -0.6,-0.15 -0.75,-0.15 -1.2,-0.05 h -0.3 L 59,44.45 59.15,44.3 h 0.2 1.1 l 0.7,0.05 0.7,0.25 H 62 l 0.65,-0.25 h 0.8 l 1.2,-0.05 0.15,0.1 0.05,0.05 -0.05,0.15 -0.1,0.1 m -2.9,1.3 -0.45,-0.2 0.6,-0.2 0.6,0.2 -0.5,0.2 H 61.8"
         fill="#bfbfbf"
         fill-rule="evenodd"
         stroke="none"
         id="path8" />
      <path
         d="m -57.1,-5.75 0.2,0.05 0.1,-0.1 0.2,-0.1 0.25,0.1 0.25,0.5 q 0.25,0.8 0.25,2.75 l -0.05,0.35 44.8,0.15 H -10.15 0.6 9.25 10.7 L 55.2,-2.2 55.15,-2.55 q 0,-1.95 0.25,-2.75 l 0.3,-0.5 0.2,-0.1 0.2,0.1 0.1,0.1 0.5,-0.1 v -0.3 h 0.1 L 57.7,-7.3 58.55,-8 58.7,-8.3 57.6,-10 q -0.3,-0.65 -0.45,-1.35 H 57 v -0.4 -0.7 -0.05 l 0.1,-0.2 h 0.2 l 0.15,-1.2 v -0.05 h 0.05 l 0.35,-1.45 0.2,-0.45 q 0.3,-0.65 0.25,-1.8 l 0.75,-0.95 -0.8,-0.1 -0.15,-0.05 H 57.75 57.6 l 0.05,-0.15 0.1,-0.05 -0.15,-0.2 v -0.05 h 0.15 0.05 0.05 l -0.05,-0.05 h 0.1 l 0.95,-0.15 0.5,-0.05 h 0.25 l -0.25,-0.35 -0.05,-0.15 -0.8,-0.15 q -0.35,-0.2 -0.4,-0.55 -0.45,-0.35 -0.6,-1.05 l -0.05,-1.55 q 0,-1.95 0.25,-2.85 v -0.05 l 0.05,-0.05 q 0.25,-0.7 0.65,-0.7 l 0.3,0.1 3.45,-0.2 2.2,0.15 0.45,0.05 1.05,0.15 0.1,0.65 -0.05,0.35 0.05,0.55 0.15,0.85 0.1,2.9 v 0.15 l 0.05,0.2 0.45,-0.05 0.15,0.1 -0.5,0.15 v 0.1 q 0,0.4 -0.5,0.5 H 65.8 l -0.6,0.2 -0.4,-0.05 -0.25,0.05 v 0.05 0.1 l -0.25,0.4 0.7,0.05 0.9,0.15 h 0.25 v 0.05 h 0.1 l -0.05,0.05 v 0.1 l -0.05,0.1 v 0.05 l 0.1,0.15 h -0.1 -0.45 l -0.2,0.05 -0.8,0.1 0.65,0.95 q 0,1.55 0.35,2.25 l 0.2,1.45 h 0.05 v 0.05 l 0.05,0.2 0.25,1 h 0.1 v 0.2 l 0.05,0.05 v 0.2 h 0.05 v 0.4 0.1 0.4 h -0.1 l -0.4,1.35 -0.9,1.7 -0.05,0.05 0.2,0.25 0.75,0.7 0.7,0.65 0.35,0.8 h 0.7 v 0.05 0.15 q 0.4,-0.05 0.6,0.35 v 0.05 l 0.2,0.15 -0.05,0.15 0.2,1.95 v 0.75 h 2.95 v -0.1 l 0.85,0.1 h 0.15 v 0.1 l 0.5,0.9 0.05,1.15 v 0.25 1.05 2 q -0.1,1.05 -0.55,1.45 l -0.65,0.2 H 71.6 l -2.8,0.1 0.1,2.3 0.05,4.5 V 12 l 0.1,1.2 -0.05,0.65 -0.15,0.55 -0.1,0.2 0.05,0.05 -0.1,0.15 q -0.3,0.6 -0.85,0.6 l -0.6,-0.15 H 66.9 v 0.35 l 0.1,0.05 0.25,0.4 h 0.05 l 0.1,0.2 -0.1,0.45 -0.15,0.15 q -0.1,0.3 -1.5,0.35 h -0.6 -0.1 l 0.4,2.6 0.25,0.9 0.2,0.5 0.3,0.5 0.35,0.35 h 0.25 l 0.15,0.35 v 0.1 H 67 v 0.95 0.05 0.15 0.2 h -0.1 l -0.25,0.5 -0.7,0.85 Q 65.1,26.15 65,26.5 l 0.05,0.1 0.9,2.3 q 0.65,2.1 0.5,4 h -0.1 l -0.4,3.25 -0.1,1.6 H 65.8 l -0.1,0.7 q -0.35,1 -0.35,3.2 0,0.6 -0.65,1.3 l 0.8,0.15 q 0.7,0.2 0.7,0.6 0.15,0.25 -0.05,0.3 l -0.2,0.2 q 0.25,0.25 0.15,0.7 0.15,0.35 -0.1,0.5 l -1.7,0.4 0.25,0.7 q 0.1,0.8 -1.25,0.95 h -2.8 q -0.95,-0.1 -1.15,-0.6 L 59.3,46.5 59.35,46.25 59.6,45.8 H 59.35 L 57.8,45.4 57.7,44.9 57.9,44.2 57.65,44 57.6,43.7 l 0.65,-0.6 0.8,-0.15 Q 58.5,42.3 58.3,41.65 58.35,40.05 58.05,39.1 l -0.2,-0.65 -0.1,-0.7 h -0.1 L 57.5,36.85 57.45,36.15 57,32.9 v -0.75 q 0.1,-1.55 0.6,-3.25 l 1.1,-2.3 v -0.05 q 0,-0.45 -1,-1.35 l -0.8,-1.35 h -0.2 v -1.5 H 57 l 0.15,-0.3 h 0.3 l 0.3,-0.35 0.4,-0.6 0.4,-1.3 0.3,-2.6 H 57.8 q -0.65,-0.1 -0.9,-0.5 l -0.15,-0.55 v -0.1 H 56.7 l 0.05,-0.15 -0.1,0.05 -0.8,-0.2 L 55.7,15.2 55.8,14.8 55.6,14 v -0.15 l 0.05,-0.45 h -112 l 0.05,0.45 V 14 l -0.2,0.8 0.1,0.4 -0.15,0.55 -0.8,0.2 -0.1,-0.05 0.05,0.15 h -0.05 v 0.1 0.1 l -0.15,0.45 q -0.25,0.4 -0.9,0.5 h -1.05 l 0.3,2.45 v 0.15 l 0.4,1.3 0.4,0.6 0.2,0.25 0.1,0.1 h 0.35 l 0.1,0.3 h 0.3 v 1.5 h -0.2 l -0.8,1.35 q -1,0.9 -1,1.35 v 0.05 l 1.1,2.3 q 0.5,1.7 0.65,3.25 v 0.75 h -0.05 l -0.45,3.25 -0.05,0.7 -0.15,0.9 h -0.05 l -0.15,0.7 -0.2,0.65 q -0.3,0.95 -0.25,2.55 -0.2,0.65 -0.75,1.3 l 0.8,0.15 q 0.55,0.2 0.65,0.6 l -0.05,0.3 -0.25,0.2 0.2,0.7 -0.1,0.5 -1.55,0.4 h -0.25 l 0.25,0.45 0.05,0.25 -0.05,0.35 q -0.2,0.5 -1.15,0.6 H -64 q -1.35,-0.15 -1.25,-0.95 l 0.25,-0.7 -1.7,-0.4 q -0.25,-0.15 -0.1,-0.5 -0.1,-0.45 0.15,-0.7 l -0.2,-0.2 q -0.2,-0.05 -0.05,-0.3 0,-0.4 0.7,-0.6 l 0.75,-0.15 h 0.05 q -0.65,-0.7 -0.65,-1.3 0,-2.2 -0.35,-3.2 l -0.05,-0.7 h -0.05 l -0.15,-1.6 -0.4,-3.25 h -0.1 q -0.15,-1.9 0.5,-4 l 0.9,-2.3 0.05,-0.1 q -0.1,-0.35 -0.95,-1.3 l -0.7,-0.85 -0.25,-0.5 h -0.1 V 23.65 23.5 23.45 22.5 h 0.15 l 0.05,-0.1 0.1,-0.35 h 0.3 l 0.3,-0.35 0.5,-1 0.25,-0.9 0.4,-2.6 h -0.7 l -1.5,-0.35 -0.15,-0.15 -0.1,-0.45 0.1,-0.2 h 0.05 l 0.25,-0.4 0.1,-0.05 v -0.35 h -0.35 l -0.6,0.15 -0.85,-0.6 -0.1,-0.15 0.05,-0.05 -0.1,-0.2 -0.1,-0.55 -0.1,-0.65 0.1,-1.2 v -0.25 l 0.05,-4.5 0.1,-2.3 -2.8,-0.1 h -0.35 L -73.3,4.65 Q -73.75,4.25 -73.85,3.2 V 1.2 0.15 -0.1 l 0.05,-1.15 0.5,-0.9 v -0.1 h 0.15 l 0.85,-0.1 v 0.1 h 2.95 V -3 l 0.2,-1.95 -0.05,-0.15 0.2,-0.15 V -5.3 q 0.2,-0.4 0.6,-0.35 V -5.8 -5.85 h 0.7 l 0.35,-0.8 0.7,-0.65 0.75,-0.7 0.1,-0.05 0.1,-0.2 -0.05,-0.05 -0.05,-0.1 -0.85,-1.6 -0.4,-1.35 h -0.1 v -0.4 -0.1 -0.4 h 0.05 l 0.05,-0.25 v -0.2 h 0.15 l 0.25,-1.2 v -0.05 h 0.05 l 0.2,-1.45 q 0.35,-0.7 0.35,-2.25 0,-0.45 0.6,-0.9 l 0.05,-0.05 h -0.5 -0.1 l -0.2,-0.1 -0.2,-0.05 h -0.4 -0.1 l 0.05,-0.15 v -0.05 -0.1 l -0.05,-0.1 v -0.05 h 0.1 0.05 l -0.05,-0.05 h 0.2 l 0.75,-0.1 0.85,-0.1 -0.15,-0.2 -0.1,-0.3 V -20 l -0.25,-0.05 -0.4,0.05 -0.6,-0.2 h -0.05 q -0.5,-0.1 -0.5,-0.5 v -0.1 l -0.5,-0.15 0.15,-0.1 0.45,0.05 0.05,-0.2 0.25,-3.9 0.05,-0.55 -0.05,-0.35 0.1,-0.65 1.05,-0.15 2.65,-0.2 1.7,0.05 1.45,0.1 0.3,0.05 0.3,-0.1 q 0.4,0 0.65,0.7 l 0.05,0.05 v 0.05 q 0.2,0.7 0.25,2.1 v 0.75 l -0.05,1.55 q -0.15,0.7 -0.6,1.05 l -0.05,0.15 -0.35,0.4 -0.15,0.05 -0.35,0.05 -0.3,0.05 -0.05,0.15 v 0.1 l -0.25,0.25 h 0.25 l 0.8,0.05 0.65,0.15 h 0.1 v 0.05 h 0.1 0.15 l -0.05,0.05 -0.1,0.2 h -0.05 l 0.1,0.05 0.1,0.15 h -0.15 -0.4 l -0.15,0.05 -0.8,0.1 q 0.55,0.45 0.75,0.95 -0.05,1.15 0.25,1.8 l 0.2,0.45 0.35,1.45 h 0.05 v 0.05 l 0.2,1.2 h 0.2 l 0.05,0.2 0.05,0.75 -0.05,0.4 h -0.15 q -0.15,0.7 -0.45,1.35 l -0.2,0.3 -0.8,1.2 -0.05,0.05 -0.05,0.15 0.2,0.3 0.8,0.7 0.9,1.2 h 0.1 v 0.15 0.15 l 0.3,0.05 m 121.4,-17.65 0.2,-2 -1.15,0.1 -2.85,-0.05 -0.4,-0.05 -0.9,-0.1 0.1,0.65 0.05,1.2 v 0.45 1.05 l -0.05,0.4 -0.05,0.1 2.45,0.05 1.15,0.05 h 1.1 0.25 v -0.15 l 0.05,-1 0.05,-0.7 m -6.55,4.45 -0.05,0.1 0.05,0.1 -0.05,-0.1 0.05,-0.1 v -0.25 0.25 l 0.05,-0.25 -0.05,0.25 m 0.15,-0.3 -0.05,0.05 0.05,-0.05 m 2.45,3.65 -0.4,-0.05 -0.05,0.2 -0.05,0.05 -0.45,1.65 -0.05,0.05 -0.05,0.25 h -0.15 l -0.15,0.75 -0.1,0.5 -0.05,0.45 h 0.2 l 0.05,0.05 0.25,0.65 0.1,0.2 v 0.05 l 0.1,0.25 0.15,0.3 0.2,0.35 0.2,0.4 0.05,0.1 0.05,0.1 0.15,0.25 v 0.15 h 0.1 0.8 0.7 0.4 0.65 0.15 l 0.1,-0.1 0.6,-1.25 0.15,-0.35 0.05,-0.2 0.4,-0.95 h 0.1 l -0.05,-0.35 -0.05,-0.4 v -0.2 l -0.15,-0.7 v -0.05 h -0.15 l -0.05,-0.5 -0.1,-0.3 -0.1,-0.35 -0.05,-0.25 -0.15,-0.55 -0.05,-0.25 -0.05,-0.1 -0.2,0.05 -2.3,0.1 h -0.75 m 0.15,-1.05 h 2.8 l -0.85,-1.8 -0.6,-0.05 -0.5,0.05 -1.05,1.8 h 0.2 M 64.55,-5.9 64,-6.5 q -0.55,-0.45 -0.85,-1 h -0.1 -2.5 l -0.05,0.1 q -0.2,0.5 -0.75,0.9 l -0.4,0.4 -0.2,0.25 h 5.4 0.05 L 64.55,-5.9 M 60.7,-8.2 v 0.15 l 1.15,-0.05 h 1.1 v -0.15 -0.2 h -2.2 -0.05 v 0.25 m -3.2,6 9.25,-0.05 v -0.7 l 0.05,-1.3 h -7.35 -2.3 -0.2 -0.15 -0.05 L 56.6,-4.3 h -0.05 l 0.05,0.1 V -4 l 0.05,0.45 v 0.95 0.1 l -0.05,0.3 h 0.9 m 8.65,-16.95 H 66.1 l -0.1,-0.05 -0.1,-0.05 0.1,0.05 0.1,0.05 0.05,-0.05 -0.05,0.05 h 0.05 v -0.05 0.05 l 0.05,0.1 -0.05,-0.1 m 0,0.4 -0.05,-0.1 0.05,-0.1 -0.05,0.1 0.05,0.1 m -8.85,6.05 -0.3,0.95 0.3,-0.95 m 4.5,-6.9 -0.45,0.15 0.6,0.1 0.6,-0.1 -0.5,-0.15 H 61.8 m -0.5,0.8 -0.25,0.05 h 1.75 l -0.9,-0.15 -0.6,0.1 m 5.15,7.05 -0.2,-0.95 0.2,0.95 M -60,-24.35 l 0.1,-1.15 -4.15,0.2 -0.85,-0.05 -0.3,-0.05 0.05,0.3 0.15,1.1 0.1,1.6 v 0.85 h 1.35 l 0.4,-0.05 3.2,-0.05 -0.05,-0.1 -0.05,-1.45 0.05,-1.15 m -2.6,5.45 -0.9,0.15 h 1.8 l -0.3,-0.05 -0.6,-0.1 m 0.1,-0.7 h -0.25 l -0.5,0.15 0.55,0.1 h 0.1 l 0.55,-0.1 -0.45,-0.15 m -4.35,0.65 0.05,0.1 v 0.1 -0.1 l -0.05,-0.1 m 0.1,-0.2 -0.1,0.1 0.05,-0.15 -0.05,0.15 0.1,-0.1 v -0.05 0.05 l 0.05,-0.05 0.1,-0.05 -0.1,0.05 -0.05,0.05 m 5.75,2.5 -1.05,-1.8 -0.5,-0.05 -0.6,0.05 -0.85,1.8 h 2.8 0.2 m 0.15,1.05 h -0.1 -0.85 l -2.5,-0.15 -0.1,0.35 -0.15,0.55 -0.05,0.25 -0.1,0.35 -0.05,0.3 -0.1,0.5 H -65 v 0.05 l -0.1,0.7 -0.05,0.75 -0.05,0.2 h 0.1 l 0.35,0.95 0.05,0.2 0.15,0.35 0.5,1.05 0.15,0.2 0.05,0.1 h 0.15 0.65 0.4 1.35 0.15 0.1 V -9 l 0.1,-0.15 0.05,-0.15 0.05,-0.1 0.25,-0.5 0.1,-0.2 0.1,-0.15 0.05,-0.05 0.1,-0.25 0.1,-0.25 v -0.05 l 0.05,-0.1 0.05,-0.1 0.1,-0.15 0.15,-0.5 0.05,-0.05 h 0.25 l -0.05,-0.1 -0.05,-0.35 -0.1,-0.5 -0.15,-0.75 H -60 l -0.05,-0.25 -0.05,-0.15 -0.45,-1.55 v -0.05 l -0.1,-0.2 -0.2,0.05 m -2.8,7.4 v 0.1 h 0.8 l 1.45,0.05 V -8.2 -8.45 h -0.9 -0.6 -0.75 v 0.25 m -0.5,1.15 -0.2,0.25 -0.35,0.3 -0.6,0.65 h 5.45 l -0.2,-0.25 -0.4,-0.4 -0.15,-0.1 -0.25,-0.25 -0.35,-0.55 -0.05,-0.1 h -1.55 -0.35 -0.6 -0.1 l -0.3,0.45 m -3.3,4.3 v 0.5 h 0.7 l 9.45,0.05 -0.05,-0.4 0.1,-1.7 -0.6,0.05 h -9.65 l 0.05,1.3 v 0.2 m 0.55,-9.95 -0.25,0.95 0.25,-0.95 m 8.4,-6.5 -0.1,-0.05 0.1,0.05 0.05,0.25 0.05,0.1 v 0.1 -0.1 l -0.05,-0.1 -0.05,-0.25 m 0.1,0 v 0.25 -0.25 m 0.75,7.45 -0.3,-0.95 0.3,0.95 M -24.5,11.3 h 11 v -0.05 l 1.25,0.05 h 0.4 1.7 9.8 8.8 l 4.35,-0.05 v 0.05 h 4.8 10.55 l 3.15,0.05 21.4,0.25 H 52.75 54 54.85 L 55.2,11.35 55.95,11.4 56,10.9 55.95,9.85 V 6.7 L 56,5.95 55.95,5.9 V 5.2 h -112.6 v 0.7 l -0.05,0.05 0.05,0.45 q 0.15,1.4 0,3.45 l -0.05,1.05 0.05,0.5 0.75,-0.05 0.35,0.25 h 0.85 1.25 0.05 l 15.6,-0.2 5.8,-0.05 h 0.25 1.55 l 1.35,-0.05 h 4.35 m -0.2,-8.25 13.25,0.05 h 1.3 9.8 11.15 L 65.35,2.9 h 5.35 l 0.4,0.05 V 2.3 2.2 1.95 1.85 0.15 0.05 0 H -68.25 -71.8 v 0.05 0.1 0.2 1 0.6 0.25 0.1 0.65 l 0.4,-0.05 h 5.35 l 40,0.15 h 1.35 m -33.35,8.2 -0.05,-4 v -0.2 l 0.05,-0.65 0.25,-1.2 h -10.25 l 0.2,0.75 0.1,0.8 0.1,0.5 v 0.9 l 0.05,3.6 v 0.25 0.15 0.45 0.75 0.35 h 0.9 0.15 0.35 0.1 0.75 1.1 0.65 0.05 0.8 0.25 0.55 0.1 l 3.4,-0.05 H -58 l 0.05,-0.25 V 13.35 13.1 l -0.1,-0.75 V 12 11.25 m -2.6,9.75 -0.1,-0.25 V 20.7 l -0.1,-0.2 -0.2,-0.7 v -0.15 -1.1 l -0.35,0.05 -0.6,0.1 -1.05,0.05 h -1.2 v 0.95 0.1 l -0.2,0.9 -0.1,0.3 -0.45,0.8 -0.15,0.25 -0.3,0.5 h -0.25 v 0.25 l 0.05,0.2 0.1,0.3 0.05,0.05 h 0.2 l 0.6,0.8 0.2,0.2 q 0.4,0.5 0.65,1.1 h 0.1 0.1 0.4 0.9 0.9 0.2 l 0.05,-0.1 0.15,-0.35 0.55,-0.8 0.05,-0.05 0.4,-0.5 0.2,-0.3 h 0.2 l 0.05,-0.15 0.15,-0.5 0.05,-0.15 h -0.3 l -0.35,-0.45 v -0.05 l -0.2,-0.25 -0.05,-0.1 -0.05,-0.1 -0.3,-0.6 m 2.95,1.35 -0.45,-0.3 0.45,0.3 m -5.6,-4.65 2,0.1 0.35,0.05 0.1,-0.65 h -0.05 -0.4 -2.1 -1.05 l 0.1,0.5 h 1.05 m -4.25,4.8 -0.1,0.85 -0.05,0.1 0.05,-0.1 0.1,-0.85 m 0.05,-0.1 0.4,-0.35 -0.4,0.35 m 7.45,8.05 V 30.4 l -0.1,-0.35 V 30 l -0.1,-0.3 -0.15,-0.35 -0.2,-0.6 -0.3,-0.8 -0.15,-0.4 V 27.4 h -0.1 -0.2 -0.3 -1 -0.4 -0.25 -0.15 -0.3 -0.1 l -0.2,0.45 -0.5,1.5 -0.15,0.4 -0.05,0.25 v 0.05 l -0.25,0.8 -0.2,0.85 v 0.05 l -0.05,0.4 v 0.35 l -0.05,0.15 v 0.25 h 0.05 l 0.2,2.15 0.05,0.4 0.25,1.55 0.05,0.25 v 0.15 l 0.1,0.35 h 0.05 l 0.05,0.15 0.1,0.55 0.1,0.45 v 0.05 l 1.1,-0.05 1.4,-0.1 0.8,0.05 h 0.35 l 0.1,-0.4 0.2,-0.7 h 0.1 l 0.1,-0.5 0.1,-0.65 0.2,-1.05 0.35,-2.3 V 32.9 32.7 l -0.1,-0.5 v -0.05 l -0.05,-0.3 -0.15,-0.6 -0.2,-0.8 h -0.05 m -1.35,-3.7 v -0.3 -0.2 L -62,26.3 h -1.55 -0.1 v 0.2 0.25 h 0.15 1.65 0.45 m 0.2,13.45 H -64 l 0.35,1.15 0.35,1.05 0.15,0.4 0.6,0.05 0.5,-0.05 0.25,-0.45 0.8,-2.15 h -0.2 m -1.55,5.45 -0.5,0.15 0.15,0.05 0.35,0.15 h 0.25 l 0.45,-0.2 h -0.1 l -0.4,-0.15 -0.1,-0.05 -0.1,0.05 m 0.75,-0.8 1,-0.15 h 0.2 l 0.75,-0.05 h 0.3 l 0.05,-0.2 -0.15,-0.15 h -0.2 -0.6 -0.2 l -1,0.05 -0.7,0.25 h -0.15 l -0.65,-0.25 h -1 l -0.6,-0.05 h -0.4 l -0.15,0.1 0.05,0.3 h 0.6 0.4 l 0.95,0.1 0.9,0.2 0.6,-0.15 M 67.1,6.45 V 6.3 L 67.15,6.05 67.35,5.2 H 57.1 l 0.3,1.5 v 0.35 0.2 0.5 1.5 1.15 0.45 l -0.05,1.15 -0.1,1.35 0.05,0.3 3.6,0.05 h 1.45 0.5 0.4 0.3 1 0.1 0.75 0.1 0.35 0.15 0.9 V 13.35 12.6 12.15 12 11.7 l 0.05,-4.45 0.1,-0.5 0.05,-0.3 M 62.7,17.2 h -1.5 -1 -0.05 l 0.1,0.65 1.1,-0.1 2,-0.05 h 0.3 l 0.1,-0.5 H 62.7 m 1.15,3.65 -0.1,-0.15 -0.2,-0.9 v -0.1 -0.95 l -2,-0.05 H 61.3 l -0.95,-0.15 v 1.1 0.15 l -0.2,0.7 -0.1,0.2 v 0.05 L 59.8,21.35 59.55,21.8 59.4,22.05 59.35,22.1 59,22.55 H 58.75 V 22.7 L 59,23.35 h 0.2 l 0.15,0.3 0.25,0.35 0.15,0.15 0.75,1.2 0.05,0.1 h 0.4 0.1 0.4 0.6 0.45 0.55 0.1 L 64,24.15 64.15,24 64.45,23.65 V 23.6 l 0.15,-0.25 h 0.25 L 65,22.8 v -0.1 l 0.05,-0.15 h -0.3 l -0.3,-0.5 V 22 L 64.3,21.8 64.2,21.65 64,21.25 63.85,20.85 m 3.15,2.6 v -0.1 L 66.85,22.5 67,23.35 v 0.1 m -0.15,-1.05 -0.4,-0.35 0.4,0.35 m -9.4,-0.35 -0.3,0.5 0.3,-0.5 m 4.6,5.35 h -0.1 -1.15 -0.1 -0.25 -0.1 v 0.15 l -0.15,0.4 -0.15,0.4 -0.15,0.4 -0.05,0.25 -0.15,0.35 -0.1,0.3 -0.05,0.05 -0.1,0.3 v 0.05 l -0.1,0.35 -0.2,0.65 -0.05,0.2 -0.1,0.3 v 0.15 l -0.05,0.15 -0.05,0.3 v 0.05 0.15 L 58.85,32.9 H 58.8 l 0.05,0.25 v 0.05 l 0.15,1.45 0.35,1.95 0.15,0.65 0.1,0.5 h 0.1 l 0.15,0.7 0.1,0.4 0.7,-0.05 h 0.45 l 0.65,0.05 1.25,0.05 0.55,0.05 H 63.6 V 38.9 l 0.1,-0.45 0.15,-0.7 h 0.1 L 64,37.4 l 0.05,-0.15 0.05,-0.3 0.2,-1.5 0.25,-2.55 H 64.6 V 32.55 L 64.55,32.15 64.5,31.75 64.4,31.25 64.05,30 64,29.75 63.85,29.35 63.25,27.5 63.15,27.4 H 63.1 62.8 62.35 62.05 M 60.7,26.25 v 0.2 0.3 h 0.05 0.1 2.1 V 26.3 l -2,-0.05 H 60.8 60.7 M 60.45,40.2 H 60.3 l 0.1,0.35 0.95,2.2 v 0.05 l 0.5,0.05 0.55,-0.05 h 0.05 l 0.85,-2.6 h -2.85 m 4.35,4.4 0.05,-0.15 -0.05,-0.05 -0.15,-0.1 -1.2,0.05 h -0.8 L 62,44.6 h -0.15 l -0.7,-0.25 -0.7,-0.05 h -1.1 -0.2 l -0.15,0.15 0.05,0.2 h 0.3 l 1.2,0.05 0.75,0.15 0.6,0.15 0.9,-0.2 0.55,-0.05 1.35,-0.05 h 0.05 l 0.05,-0.1 m -3,1.4 h 0.25 l 0.5,-0.2 -0.6,-0.2 -0.6,0.2 0.45,0.2"
         fill="#6b6b6b"
         fill-rule="evenodd"
         stroke="none"
         id="path9" />
      <path
         d="m 60.5,-25.35 2.85,0.05 1.15,-0.1 -0.2,2 -1,0.05 -3.35,-0.2 v -0.05 l 0.65,-1.5 -0.1,-0.25 m -1.2,0.5 -0.1,-0.65 0.9,0.1 -0.8,0.55 m 1.05,9.25 h 0.75 l 2.3,-0.1 0.25,0.05 0.05,0.25 0.15,0.55 0.05,0.25 0.1,0.35 0.1,0.3 q -0.3,0.25 -0.75,0.35 l -2.95,0.15 -1,-0.3 0.45,-1.65 0.05,-0.05 0.45,-0.15 M -65,-24 l -0.15,-1.1 -0.05,-0.3 0.3,0.05 0.85,0.05 4.15,-0.2 -0.1,1.15 -0.1,0.05 -0.5,0.45 -1.2,0.25 h -1.65 Q -64.5,-23.75 -65,-24 m 0.25,10.05 0.05,-0.3 0.1,-0.35 0.05,-0.25 0.15,-0.55 0.1,-0.35 2.5,0.15 h 0.85 0.1 l 0.3,0.15 -0.25,1.8 0.05,0.4 -1.05,0.2 h -0.55 q -1.7,-0.1 -2.3,-0.8 l -0.1,-0.1 m -7.05,15.3 v -1 L -70.4,0.7 -68.25,0 H 71.1 v 0.05 0.1 1.7 L -21.9,1.8 -22.15,1.75 -22.6,1.65 -22.9,1.8 -71.8,1.35 m 11.15,19.65 0.3,0.6 0.05,0.1 -0.25,0.35 -0.05,0.1 -0.05,0.35 v 0.05 0.2 0.15 l -0.15,0.45 v 0.1 l -1.75,0.15 h -0.15 -1.05 -0.4 q -0.95,-0.1 -1.4,-0.5 l -0.1,-0.1 -0.05,-0.2 v -0.25 h 0.25 l 0.3,-0.5 0.15,-0.25 0.45,-0.8 2.1,-0.2 h 0.05 l 0.6,0.05 1.15,0.15 m 0.6,9.45 H -60 l 0.2,0.8 0.15,0.6 0.05,0.3 v 0.05 l 0.1,0.5 v 0.2 h -3 -0.6 -0.75 -1.4 -0.05 v -0.25 l 0.05,-0.15 v -0.35 l 0.05,-0.4 V 31.7 q 0.95,-0.3 1.45,-1.7 l 0.1,-0.15 h 0.05 0.55 l 0.75,0.05 0.45,0.05 0.8,0.15 1,0.35 m 123.9,-9.6 0.15,0.4 q -0.5,0.15 -0.6,0.5 l -0.05,0.3 v 0.1 l 0.05,0.4 h 0.15 l 0.1,0.2 0.5,0.65 q -1,0.45 -2.9,0.6 H 60 59.6 L 59.35,23.65 59.2,23.35 H 59 L 58.75,22.7 V 22.55 H 59 l 0.35,-0.45 0.05,-0.05 0.15,-0.25 0.25,-0.45 1.9,-0.45 0.1,-0.05 q 1.25,-0.15 2.05,0 m 0.55,10.4 0.1,0.5 0.05,0.4 0.05,0.4 V 32.9 H 64.55 64.5 q -0.55,0.7 -2.1,0.8 H 62 61.4 L 59.1,33.35 58.85,33.2 V 33.15 L 58.9,32.9 h 0.25 l 0.1,-0.3 0.15,-0.35 h -0.1 l -0.2,0.05 -0.2,0.05 V 32.2 32.15 l 0.05,-0.3 0.05,-0.15 0.35,0.15 1.45,-1.25 0.6,-0.1 h 0.1 1.3 q 1.1,0.15 1.6,0.75"
         fill="#d4d4d4"
         fill-rule="evenodd"
         stroke="none"
         id="path10" />
      <path
         d="m 65.95,-13.95 h 0.1 L 66,-13.7 65.95,-13.9 v -0.05 m -5.45,-11.4 0.1,0.25 -0.65,1.5 v 0.05 l -0.55,1.4 h -0.05 v -1.05 -0.45 l -0.05,-1.2 0.8,-0.55 0.4,0.05 m 3.75,2.65 -0.05,1 -0.25,0.15 h -1.1 l -1.15,-0.05 -0.1,-0.2 1.65,-0.6 1,-0.3 m 0.2,10.95 -0.4,0.95 -0.05,0.2 -0.15,0.35 L 63.25,-9 63,-8.9 h -0.65 -0.4 -0.7 l -0.35,-0.05 -0.55,-0.1 -0.15,-0.25 -0.05,-0.1 1.15,-0.5 0.85,-0.45 1.8,-1.4 h 0.5 m -5,7.5 -0.15,0.15 -0.7,0.7 -0.3,0.3 -0.55,0.5 -0.05,0.05 -0.2,0.35 h -0.9 l 0.05,-0.3 V -2.6 -3.55 L 56.6,-4 v -0.2 -0.1 l 0.15,0.05 h 0.05 0.15 0.2 2.3 m -122.6,-17.35 -0.4,0.05 h -1.35 v -0.85 h 1.55 l 0.25,0.2 0.25,0.3 -0.3,0.3 m 2.6,6.15 v 0.05 l 0.45,1.55 0.05,0.15 v 0.05 l 0.15,0.95 0.15,0.95 -0.05,0.05 -0.15,0.5 -0.1,0.15 -0.05,0.1 -0.05,0.1 v 0.05 l -0.1,0.25 -0.1,0.25 -0.05,0.05 -0.1,0.15 -0.1,0.2 -0.25,0.5 -0.05,0.1 -0.05,0.15 -0.35,0.25 h -1.35 -0.4 -0.65 l 0.35,-0.55 0.7,-0.7 0.25,-0.2 0.85,-0.65 0.4,-0.2 0.75,-0.4 0.2,0.1 -0.05,-0.25 h -0.2 l -0.2,-0.95 -0.1,-0.55 -0.05,-0.4 0.25,-1.8 m -1.75,7 -0.55,0.2 h -0.2 l -0.55,0.05 h -0.05 v -0.25 h 0.75 0.6 m 70.75,19.75 3.7,-0.55 8.3,-1.05 3.9,0.3 -6.75,1.3 H 12.8 V 11.25 L 8.45,11.3 m 47.5,-4.6 -20.6,-0.05 -0.3,0.2 -2.3,1.5 Q 30.55,9.6 29.4,9.6 L 29.3,9 Q 30.95,8.55 32.75,7.3 L 33.7,6.65 -56.65,6.4 -56.7,5.95 -56.65,5.9 V 5.2 H 55.95 V 5.9 L 56,5.95 55.95,6.7 m -93.75,4.7 q 2.25,-1.1 4.8,-1.5 2.7,-0.4 3.15,0.7 l 1.9,0.15 3.45,0.55 h -4.35 l -1.35,0.05 H -31.75 -32 l -5.8,0.05 m 13.1,-8.35 h -1.35 q 0.55,-0.4 1.7,-0.8 l 1.45,-0.45 0.3,-0.15 0.45,0.1 0.25,0.05 0.35,0.15 -2.4,0.85 -0.75,0.25 M -71.8,0.35 V 0.15 0.05 0 h 3.55 l -2.15,0.7 -1.4,-0.35 m 13.75,6.05 -9.3,-0.05 -0.1,0.35 -0.1,1 -0.1,0.45 v -0.9 l -0.1,-0.5 -0.1,-0.8 -0.2,-0.75 h 10.25 l -0.25,1.2 m -3.9,7.3 0.05,-0.05 1.85,-1.7 q 0.7,-0.55 2,-0.7 V 12 12.35 l 0.1,0.75 v 0.25 0.05 l -0.1,-0.2 -0.35,0.4 -0.05,0.05 -3.4,0.05 h -0.1 m 1.65,8 0.05,0.1 0.2,0.25 v 0.05 l 0.35,0.45 h 0.3 l -0.05,0.15 -0.15,0.5 -0.05,0.15 h -0.2 l -0.2,0.3 -0.4,0.5 -0.05,0.05 -0.3,-0.75 v -0.1 l 0.15,-0.45 v -0.15 -0.2 -0.05 l 0.05,-0.35 0.05,-0.1 0.25,-0.35 M -62.95,9.35 q -1.4,1.4 -1.9,1.4 L -65,10.7 l -0.05,-0.45 0.5,-0.55 q 0.65,-0.4 1.6,-0.35 m 3.45,23.9 -0.35,2.3 -1.6,1.55 h -0.05 l -0.15,0.15 -0.2,0.15 -0.05,0.05 -0.35,0.3 h -0.6 l -0.2,0.15 -1.25,1 -0.1,-0.45 -0.1,-0.55 -0.05,-0.15 H -64.6 L -64.7,37.4 V 37.25 L -64.75,37 -65,35.45 l -0.05,-0.4 0.25,0.85 0.45,1.35 0.05,0.35 0.5,-0.35 0.85,-0.55 1,-0.65 0.05,-0.05 0.1,-0.1 0.4,-0.3 1.05,-1.35 0.85,-1 m -5.7,-1.55 0.2,-0.85 0.25,-0.8 0.25,-0.8 0.45,-1.25 0.3,-0.6 h 0.3 0.15 v 0.25 0.6 l -0.3,1.45 -0.05,0.15 -0.1,0.15 q -0.5,1.4 -1.45,1.7 M 57.4,6.7 57.1,5.2 H 67.35 L 67.15,6.05 67.1,6.3 V 6.45 L 62.8,6.7 h -5.4 m 9.5,5 v 0.3 0.15 0.45 0.75 0.35 H 66 65.85 65.5 65.4 64.65 64.55 l 0.85,-0.1 1.15,-1.4 0.35,-0.5 m -6,2 -3.6,-0.05 -0.05,-0.3 0.1,-1.35 0.05,-1.15 h 0.1 L 57.4,10.4 V 9.25 7.75 q 0.9,0.25 1.15,1.7 l 0.3,1.55 0.5,0.45 1.55,2.25 m 3.1,7.55 0.2,0.4 0.1,0.15 0.15,0.2 v 0.05 l 0.3,0.5 h 0.3 L 65,22.7 v 0.1 l -0.15,0.55 H 64.6 l -0.15,0.25 v 0.05 l -0.05,-0.05 -0.15,-0.1 -0.1,-0.1 -0.5,-0.65 -0.1,-0.2 H 63.4 l -0.05,-0.4 v -0.1 l 0.05,-0.3 q 0.1,-0.35 0.6,-0.5 m -1.95,6.15 h 0.3 0.45 l -0.65,1.4 -0.6,0.85 L 61.3,30 60.8,30.6 59.35,31.85 59,31.7 v -0.15 l 0.1,-0.3 0.05,-0.2 0.2,-0.65 0.1,-0.35 V 30 l 0.1,-0.3 0.05,-0.05 0.1,-0.3 0.15,-0.35 0.05,-0.25 0.15,-0.4 Q 60.4,28 60.75,27.8 h 0.05 l 0.95,-0.15 0.3,-0.25 m 2.05,9.55 -0.05,0.3 -0.05,0.15 -0.05,0.35 h -0.1 l -0.15,0.7 -0.1,0.45 -0.05,0.05 -0.55,-0.05 -1.25,-0.05 0.7,-0.9 0.2,-0.2 h 0.45 l 0.55,-0.5 q 0.25,-0.2 0.45,-0.3 M 58.85,33.15 58.8,32.9 h 0.05 l 0.05,-0.55 0.2,-0.05 0.2,-0.05 h 0.1 l -0.15,0.35 -0.1,0.3 H 58.9 l -0.05,0.25"
         fill="#919191"
         fill-rule="evenodd"
         stroke="none"
         id="path11" />
      <path
         d="m -57.1,-5.75 0.2,0.05 0.1,-0.1 0.2,-0.1 0.25,0.1 0.25,0.5 q 0.25,0.8 0.25,2.75 l -0.05,0.35 44.8,0.15 H -10.15 0.6 9.25 10.7 L 55.2,-2.2 55.15,-2.55 q 0,-1.95 0.25,-2.75 l 0.3,-0.5 0.2,-0.1 0.2,0.1 0.1,0.1 0.5,-0.1 v -0.3 h 0.1 L 57.7,-7.3 58.55,-8 58.7,-8.3 57.6,-10 q -0.3,-0.65 -0.45,-1.35 H 57 v -0.4 -0.7 -0.05 l 0.1,-0.2 m 0.2,0 0.15,-1.2 v -0.05 h 0.05 l 0.35,-1.45 0.2,-0.45 q 0.3,-0.65 0.25,-1.8 l 0.75,-0.95 -0.8,-0.1 -0.15,-0.05 m -0.5,0 0.05,-0.15 0.1,-0.05 -0.15,-0.2 v -0.05 m 0.2,0 h 0.05 l -0.05,-0.05 m 0.1,0 0.95,-0.15 0.5,-0.05 h 0.25 l -0.25,-0.35 -0.05,-0.15 -0.8,-0.15 q -0.35,-0.2 -0.4,-0.55 -0.45,-0.35 -0.6,-1.05 l -0.05,-1.55 q 0,-1.95 0.25,-2.85 v -0.05 l 0.05,-0.05 q 0.25,-0.7 0.65,-0.7 l 0.3,0.1 3.45,-0.2 2.2,0.15 0.45,0.05 1.05,0.15 0.1,0.65 -0.05,0.35 0.05,0.55 0.15,0.85 0.1,2.9 v 0.15 l 0.05,0.2 m -0.4,0.8 H 65.8 l -0.6,0.2 -0.4,-0.05 -0.25,0.05 v 0.05 0.1 l -0.25,0.4 0.7,0.05 0.9,0.15 0.1,0.05 0.1,0.05 0.05,-0.05 v 0.05 l 0.05,0.1 -0.05,0.1 v 0.05 l 0.1,0.15 m -0.1,-0.5 v 0.05 m 0.1,0 -0.05,0.05 v 0.1 m -0.5,0.3 -0.2,0.05 -0.8,0.1 0.65,0.95 q 0,1.55 0.35,2.25 l 0.2,1.45 h 0.05 v 0.05 l 0.05,0.2 0.25,1 0.2,0.95 v 0.4 h -0.1 l -0.4,1.35 -0.9,1.7 -0.05,0.05 0.2,0.25 0.75,0.7 0.7,0.65 0.35,0.8 h 0.7 m -1.35,-6.85 v 0.2 l 0.05,0.05 v 0.2 h 0.05 v 0.4 0.1 m 1.25,5.95 v 0.15 q 0.4,-0.05 0.6,0.35 v 0.05 l 0.2,0.15 -0.05,0.15 0.2,1.95 v 0.75 h 2.95 v -0.1 l 0.85,0.1 h 0.15 v 0.1 l 0.5,0.9 0.05,1.15 v 0.25 1.05 2 q -0.1,1.05 -0.55,1.45 l -0.65,0.2 H 71.6 l -2.8,0.1 0.1,2.3 0.05,4.5 V 12 l 0.1,1.2 -0.05,0.65 -0.15,0.55 -0.1,0.2 0.05,0.05 -0.1,0.15 q -0.3,0.6 -0.85,0.6 l -0.6,-0.15 H 66.9 v 0.35 l 0.1,0.05 0.25,0.4 h 0.05 l 0.1,0.2 -0.1,0.45 -0.15,0.15 q -0.1,0.3 -1.5,0.35 h -0.6 -0.1 l 0.4,2.6 0.25,0.9 0.2,0.5 0.3,0.5 0.35,0.35 0.4,0.35 v 0.1 L 67,23.35 v 0.1 0.05 0.15 0.2 m -0.3,-1.8 0.15,0.35 m 0.05,1.45 -0.25,0.5 -0.7,0.85 Q 65.1,26.15 65,26.5 l 0.05,0.1 0.9,2.3 q 0.65,2.1 0.5,4 m -0.1,0 -0.4,3.25 -0.1,1.6 m -0.05,0 -0.1,0.7 q -0.35,1 -0.35,3.2 0,0.6 -0.65,1.3 l 0.8,0.15 q 0.7,0.2 0.7,0.6 0.15,0.25 -0.05,0.3 l -0.2,0.2 q 0.25,0.25 0.15,0.7 0.15,0.35 -0.1,0.5 l -1.7,0.4 0.25,0.7 q 0.1,0.8 -1.25,0.95 h -2.8 q -0.95,-0.1 -1.15,-0.6 L 59.3,46.5 59.35,46.25 59.6,45.8 H 59.35 L 57.8,45.4 57.7,44.9 57.9,44.2 57.65,44 57.6,43.7 l 0.65,-0.6 0.8,-0.15 Q 58.5,42.3 58.3,41.65 58.35,40.05 58.05,39.1 l -0.2,-0.65 -0.1,-0.7 m -0.1,0 -0.15,-0.9 -0.05,-0.7 L 57,32.9 v -0.75 q 0.1,-1.55 0.6,-3.25 l 1.1,-2.3 v -0.05 q 0,-0.45 -1,-1.35 l -0.8,-1.35 m -0.2,0 v -1.5 H 57 l 0.15,-0.3 m 0.3,0 0.3,-0.35 0.4,-0.6 0.4,-1.3 0.3,-2.6 H 57.8 q -0.65,-0.1 -0.9,-0.5 l -0.15,-0.55 v -0.1 H 56.7 l 0.05,-0.15 -0.1,0.05 -0.8,-0.2 L 55.7,15.2 55.8,14.8 55.6,14 v -0.15 l 0.05,-0.45 h -112 l 0.05,0.45 V 14 l -0.2,0.8 0.1,0.4 -0.15,0.55 -0.8,0.2 -0.1,-0.05 0.05,0.15 h -0.05 v 0.1 0.1 l -0.15,0.45 q -0.25,0.4 -0.9,0.5 h -1.05 l 0.3,2.45 v 0.15 l 0.4,1.3 0.4,0.6 0.2,0.25 0.1,0.1 0.45,0.3 h 0.3 v 1.5 m -0.4,-1.8 0.1,0.3 m 0.1,1.5 -0.8,1.35 q -1,0.9 -1,1.35 v 0.05 l 1.1,2.3 q 0.5,1.7 0.65,3.25 v 0.75 m -0.05,0 -0.45,3.25 -0.05,0.7 -0.15,0.9 m -0.05,0 -0.15,0.7 -0.2,0.65 q -0.3,0.95 -0.25,2.55 -0.2,0.65 -0.75,1.3 l 0.8,0.15 q 0.55,0.2 0.65,0.6 l -0.05,0.3 -0.25,0.2 0.2,0.7 -0.1,0.5 -1.55,0.4 h -0.25 l 0.25,0.45 0.05,0.25 -0.05,0.35 q -0.2,0.5 -1.15,0.6 H -64 q -1.35,-0.15 -1.25,-0.95 l 0.25,-0.7 -1.7,-0.4 q -0.25,-0.15 -0.1,-0.5 -0.1,-0.45 0.15,-0.7 l -0.2,-0.2 q -0.2,-0.05 -0.05,-0.3 0,-0.4 0.7,-0.6 l 0.75,-0.15 h 0.05 q -0.65,-0.7 -0.65,-1.3 0,-2.2 -0.35,-3.2 l -0.05,-0.7 m -0.05,0 -0.15,-1.6 -0.4,-3.25 m -0.1,0 q -0.15,-1.9 0.5,-4 l 0.9,-2.3 0.05,-0.1 q -0.1,-0.35 -0.95,-1.3 l -0.7,-0.85 -0.25,-0.5 m -0.1,0 v -0.2 -0.15 -0.05 l 0.05,-0.1 0.1,-0.85 0.05,-0.1 0.1,-0.35 m 0.3,0 0.3,-0.35 0.5,-1 0.25,-0.9 0.4,-2.6 h -0.7 l -1.5,-0.35 -0.15,-0.15 -0.1,-0.45 0.1,-0.2 h 0.05 l 0.25,-0.4 0.1,-0.05 v -0.35 h -0.35 l -0.6,0.15 -0.85,-0.6 -0.1,-0.15 0.05,-0.05 -0.1,-0.2 -0.1,-0.55 -0.1,-0.65 0.1,-1.2 v -0.25 l 0.05,-4.5 0.1,-2.3 -2.8,-0.1 h -0.35 L -73.3,4.65 Q -73.75,4.25 -73.85,3.2 V 1.2 0.15 -0.1 l 0.05,-1.15 0.5,-0.9 v -0.1 h 0.15 l 0.85,-0.1 v 0.1 h 2.95 V -3 l 0.2,-1.95 -0.05,-0.15 0.2,-0.15 V -5.3 q 0.2,-0.4 0.6,-0.35 V -5.8 m 0,-0.05 h 0.7 l 0.35,-0.8 0.7,-0.65 0.75,-0.7 0.1,-0.05 0.1,-0.2 -0.05,-0.05 -0.05,-0.1 -0.85,-1.6 -0.4,-1.35 h -0.1 v -0.4 -0.1 -0.4 h 0.05 l 0.05,-0.25 v -0.2 m 0.15,0 0.25,-1.2 v -0.05 h 0.05 l 0.2,-1.45 q 0.35,-0.7 0.35,-2.25 0,-0.45 0.6,-0.9 l 0.05,-0.05 h -0.5 -0.1 l -0.2,-0.1 -0.2,-0.05 m -0.5,0 0.05,-0.15 v -0.05 -0.1 l -0.05,-0.1 v -0.05 m 0.15,0 -0.05,-0.05 m 0.2,0 0.75,-0.1 0.85,-0.1 -0.15,-0.2 -0.1,-0.3 V -20 l -0.25,-0.05 -0.4,0.05 -0.6,-0.2 h -0.05 m -0.4,-0.8 0.05,-0.2 0.25,-3.9 0.05,-0.55 -0.05,-0.35 0.1,-0.65 1.05,-0.15 2.65,-0.2 1.7,0.05 1.45,0.1 0.3,0.05 0.3,-0.1 q 0.4,0 0.65,0.7 l 0.05,0.05 v 0.05 q 0.2,0.7 0.25,2.1 v 0.75 l -0.05,1.55 q -0.15,0.7 -0.6,1.05 l -0.05,0.15 -0.35,0.4 -0.15,0.05 -0.35,0.05 -0.3,0.05 -0.05,0.15 v 0.1 l -0.25,0.25 h 0.25 l 0.8,0.05 0.65,0.15 0.1,0.05 0.05,0.25 0.05,0.1 v 0.1 m -0.1,-0.5 v 0.05 m 0.25,0 -0.05,0.05 -0.1,0.2 h -0.05 l 0.1,0.05 0.1,0.15 m -0.55,0 -0.15,0.05 -0.8,0.1 q 0.55,0.45 0.75,0.95 -0.05,1.15 0.25,1.8 l 0.2,0.45 0.35,1.45 h 0.05 v 0.05 l 0.2,1.2 0.3,0.95 -0.05,0.4 h -0.15 q -0.15,0.7 -0.45,1.35 l -0.2,0.3 -0.8,1.2 -0.05,0.05 -0.05,0.15 0.2,0.3 0.8,0.7 0.9,1.2 h 0.1 v 0.15 0.15 l 0.3,0.05 m -0.65,-6.95 0.05,0.2 0.05,0.75 m 115.4,-7.2 v -0.25 m 0,0.25 0.05,-0.25 m 0.05,0 0.05,-0.05 m -0.15,0.5 -0.05,-0.1 0.05,-0.1 m -0.75,7.2 0.3,-0.95 m 8.85,-6.25 -0.05,0.1 0.05,0.1 m -0.05,-0.4 h 0.05 m -132.9,-0.05 v 0.05 l 0.05,-0.05 0.1,-0.05 m -0.2,0.05 -0.05,0.15 0.1,-0.1 m -0.05,0.4 v -0.1 l -0.05,-0.1 m -0.3,7.2 0.25,-0.95 m 8.5,-6.25 v -0.25 m -8.7,41.25 -0.4,0.35 m 124.65,0.15 0.3,-0.5"
         fill="none"
         stroke="#6b6b6b"
         stroke-linecap="round"
         stroke-linejoin="round"
         stroke-width="2"
         id="path12" />
    </g>
  </defs>
</svg>
