<?xml version="1.0" encoding="UTF-8" standalone="no"?>
<svg
   ffdec:objectType="frame"
   height="125.95"
   width="98.25"
   version="1.1"
   id="svg7"
   sodipodi:docname="1.svg"
   xmlns:inkscape="http://www.inkscape.org/namespaces/inkscape"
   xmlns:sodipodi="http://sodipodi.sourceforge.net/DTD/sodipodi-0.dtd"
   xmlns:xlink="http://www.w3.org/1999/xlink"
   xmlns="http://www.w3.org/2000/svg"
   xmlns:svg="http://www.w3.org/2000/svg"
   xmlns:ffdec="https://www.free-decompiler.com/flash">
  <sodipodi:namedview
     id="namedview7"
     pagecolor="#ffffff"
     bordercolor="#000000"
     borderopacity="0.25"
     inkscape:showpageshadow="2"
     inkscape:pageopacity="0.0"
     inkscape:pagecheckerboard="0"
     inkscape:deskcolor="#d1d1d1"
     fit-margin-top="5"
     fit-margin-left="5"
     fit-margin-right="5"
     fit-margin-bottom="5" />
  <g
     transform="translate(42.55,56.85)"
     id="g1">
    <use
       ffdec:characterId="689"
       height="125.95"
       transform="translate(-42.55,-56.85)"
       width="98.25"
       xlink:href="#shape0"
       id="use1" />
  </g>
  <defs
     id="defs7">
    <g
       id="shape0"
       transform="translate(42.55,56.85)">
      <path
         d="m -10.25,-51.25 v -1.15 l -0.15,-0.85 h 26.5 10.55 0.05 0.35 13.7 1.45 0.55 2.35 L 45,-51.4 v 0.3 h -1.65 q -0.15,-0.65 -0.95,-0.7 h -0.2 v 0.7 l -52.45,-0.15 m 56.95,0.15 -0.05,-0.25 -0.05,-1.9 h 5.55 0.45 L 52.55,-53 v 0.15 l 0.1,0.25 0.05,-0.65 v 0.75 l 0.35,1.4 h -0.7 -5.65 m 2.4,9.05 v 8.4 H 49 v 8.4 h -4.8 l -0.05,-0.2 0.05,0.25 h -0.4 l 0.05,-0.05 h -28.1 v 0.05 h -0.4 l 0.05,-0.05 H 7.6 v 0.05 H 7.25 L 7.3,-25.25 H 0.05 v 0.05 h -1.1 v -0.05 H -23.7 l 0.1,0.05 h -4.35 q 0.3,0 0.6,-0.35 l 0.15,-0.35 0.2,-0.15 h 0.35 v -12.7 l 0.05,-0.3 -0.15,-0.45 h -10.9 l -0.1,1.7 -0.15,0.4 -0.1,1.2 -0.05,1.35 -0.05,1.2 h -0.05 v 1.7 0.4 0.2 0.75 0.25 h -0.05 v 2.4 l 0.05,0.9 h 0.1 l 0.05,0.4 0.1,0.6 h 0.15 q 0.25,0.85 0.65,0.85 h -1.85 v -15.65 l 0.05,0.95 v -2.5 l 4.95,0.45 H 48.7 l 0.4,-0.1 m 1.55,15 h 0.05 v 1 0.8 h -0.1 l 0.05,-0.8 v -1 m 0.05,3.7 v 0.9 h -0.1 v -0.9 h 0.1 m 0,2.75 0.05,1.9 v 1.8 l 0.05,0.65 -0.05,10.65 V 4.9 L 50.7,5.1 v 1.6 h -0.1 v -27.3 h 0.1 m 0,28.95 v 1.5 h -0.1 v -1.5 h 0.1 m 0,3.3 v 3.4 L 50.6,14.9 v -3.25 h 0.1 m 0,27.35 0.65,0.55 h -0.7 L 50.7,39 m 1.65,0.55 0.3,-0.3 v 0.3 h -0.3 M 49,-23.35 v 0.9 l -87.1,-0.1 h -0.55 v -0.75 h -0.3 v -0.05 H 49 m -87.9,7.2 H 49 V 5.7 h -87.9 v -21.85 m 0.05,-35.55 0.1,-1.05 v -0.2 -0.3 h 25.1 l -0.15,2 -17.15,-0.05 -1.45,-0.05 q -0.05,-1 -1.1,-0.9 -0.95,0.1 -1.05,0.85 l -1.3,-0.05 q -0.15,-0.9 -1.15,-0.9 -0.95,0 -1.15,0.75 l -0.65,-0.1 h -0.05 m 9.85,19.85 v 0.3 0.2 1 0.95 0.1 l -4.5,0.25 v -1.3 h -0.25 l -0.25,-1.2 -0.1,-0.25 2.95,0.05 0.85,-0.1 h 1.3 m -6.6,-6.35 -0.15,1.15 0.1,0.8 -0.45,0.05 v -2 h 0.5 m 5.45,-0.05 0.25,1.85 h -2.7 l -2.2,0.1 v -1.9 l 4.65,-0.05 m 79.1,55.7 V 28.8 l -0.1,6.4 -0.15,3.15 0.1,1.2 H 20.15 l -2.05,0.1 -7.7,0.1 h -1 l 3.2,-0.1 2.05,-0.1 1.6,-0.15 0.45,0.05 0.65,0.05 1.1,-0.1 h 0.2 q 0.9,0 1.15,-2.6 v -0.25 h 0.15 V 36.2 36.1 35.85 l -0.05,-0.5 h 0.05 v -0.5 -0.1 h -0.1 V 34.5 l -0.25,-1.2 0.05,-0.2 -0.05,-0.2 0.15,-0.05 h -0.2 q -0.25,-0.6 -1.75,-1 h -3.5 v -1.8 l 0.05,-1.35 h 0.05 v -0.9 l 0.05,-1.9 0.05,-1.6 -0.05,-0.05 -0.05,-0.15 0.85,-0.05 h 0.2 q 1.05,0 1.15,-5.15 v -1.3 l 27,0.05 5.35,-0.2 m -52.2,22.1 h -6.8 v -0.2 h 0.45 l 0.1,-5.2 0.05,-4.5 -0.05,-13.1 0.3,0.2 V 16.6 l 2.7,0.1 v 0.45 l -0.2,5.95 h 0.05 l 0.05,0.15 -0.85,0.05 h -0.2 q -0.75,0 -1,2.6 l -0.1,1.5 H -8.8 v 0.4 0.5 0.15 0.25 l 0.1,1.35 0.2,1.2 -0.05,0.2 0.05,0.2 -0.1,0.05 h 0.15 q 0.25,0.6 1.6,1 h 0.7 l -0.05,1.8 v 0.25 h -0.05 v 0.1 l -0.1,1.95 -0.05,1.65 0.05,0.05 0.45,0.45 0.55,0.05 q 0.55,0.35 1.85,0.5 l 0.25,0.05 M -0.2,13.2 0.1,13.15 h 2.15 l 10.55,0.2 0.75,0.05 H 8.05 L 7.3,13.35 Q 3.55,13.2 -0.2,13.2 M -4.8,20 v -2.5 h 3.15 4.1 11.8 v 0.1 2.5 L 13,19.95 H 10 L 4.55,20 H -4.8 M -37.3,9.9 -39.25,9.75 V 8.45 L 49,8.35 v 1.5 L 0.35,9.9 H -37.3 m 0.35,8.95 -0.1,-0.05 -0.15,0.1 -0.35,-3.4 1.75,0.05 6.75,-0.35 -3.65,1.5 q -3.1,1.35 -4.25,2.15"
         fill="#b8b8b8"
         fill-rule="evenodd"
         stroke="none"
         id="path1" />
      <path
         d="m 45,-51.1 v -0.3 l 0.1,-1.85 H 42.75 42.2 40.75 27.05 26.7 26.65 16.1 -10.4 l 0.15,0.85 v 1.15 l -0.1,2.35 55.5,0.1 -0.15,-0.85 v -1.45 m -2.8,0 v -0.7 h 0.2 q 0.8,0.05 0.95,0.7 v 0.2 q 0,0.4 -0.4,0.65 l -0.6,0.15 H 42.2 v -1 m 10.85,0 -0.35,-1.4 v -0.75 l -0.05,0.65 -0.1,-0.25 V -53 l 0.05,-0.25 H 52.15 46.6 l 0.05,1.9 0.05,0.25 -0.1,2.3 h 5.3 v 0.05 h 0.25 l 0.1,-0.1 0.25,-0.35 v 0.4 h 0.2 v -0.85 l 0.35,-1.45 m -34.15,5.7 h 0.4 0.8 0.1 28.9 v -1.1 l -0.65,-0.1 -87.6,0.2 v 1.05 l 57.9,-0.05 h 0.15 m -46.85,20.2 h 4.35 l -0.1,-0.05 h 22.65 v 0.05 h 1.1 v -0.05 H 7.3 L 7.25,-25.2 H 7.6 v -0.05 h 7.8 l -0.05,0.05 h 0.4 v -0.05 h 28.1 l -0.05,0.05 h 0.4 l -0.05,-0.25 0.05,0.2 H 49 v -8.4 h 0.1 v -8.4 -2.3 h -88 v 0.25 h -0.2 l 0.05,0.7 h 0.15 v 1 2.5 l -0.05,-0.95 v 15.65 h 1.85 0.1 0.9 8.15 m 80.6,64.45 0.1,-0.15 0.1,-42.5 q -0.15,-1 0,-1.85 v -40.1 l -0.15,-0.7 v -0.4 h -1.5 -0.6 v 0.15 0.9 h 0.15 l -0.1,0.7 -0.05,0.25 v 0.1 l -0.05,1 v 0.1 H 50.5 v 0.2 l 0.05,3.15 v 0.25 0.15 l 0.05,1.95 v 5.6 0.4 0.2 0.15 0.85 h 0.05 v 1.2 2.1 1 l -0.05,0.8 h 0.1 v 1.9 h -0.1 v 0.9 h 0.1 v 1.85 H 50.6 V 6.7 h 0.1 v 1.65 h -0.1 v 1.5 h 0.1 v 1.8 h -0.1 v 3.25 l 0.1,0.15 v 1.55 7.7 1.3 l 0.05,0.1 v 0.4 L 50.7,26.15 V 39 l -0.05,0.55 h 0.7 l 0.5,0.25 0.5,-0.25 h 0.3 v -0.3 M 49,-23.35 h -87.95 v 0.05 h 0.3 v 0.75 h 0.55 l 87.1,0.1 v -0.9 m 0,7.2 v -4.45 l -87.15,0.1 -0.5,0.05 v 0.85 h -0.3 v 0.1 h 0.05 v 0.8 h -0.05 v 1.5 l 0.05,0.4 V -16.15 5.7 H 49 v -21.85 m -62.8,-35.1 0.15,-2 h -25.1 v 0.3 0.2 l -0.1,1.05 -0.15,2.75 25.25,0.05 -0.1,-1.3 0.05,-1.05 m -24.35,-0.35 q 0.2,-0.75 1.15,-0.75 1,0 1.15,0.9 v 0.3 l -0.25,0.7 q -0.3,0.5 -0.9,0.5 -0.7,0 -1.05,-0.65 l -0.15,-0.55 0.05,-0.45 m 5.7,0.5 v 0.15 q 0,0.55 -0.25,0.8 -0.3,0.3 -0.85,0.3 -0.6,0 -0.85,-0.3 l -0.15,-0.2 -0.1,-0.55 0.05,-0.25 q 0.1,-0.75 1.05,-0.85 1.05,-0.1 1.1,0.9 m 21.1,-2.15 h -1.5 l 0.1,0.95 0.1,1.05 0.05,1.05 v 1.3 h 1.35 l -0.15,-2.35 -0.05,-1.15 0.05,-0.7 0.05,-0.15 m 60.3,70.7 V 14.9 L 49,14.75 v -3.1 H -9.95 V 12 h 0.45 v 4.55 l 0.05,13.1 -0.05,4.5 -0.1,5.2 h -0.45 v 0.2 h 6.8 l 2.5,0.2 h 5.5 0.15 4.5 1 l 7.7,-0.1 2.05,-0.1 H 48.8 l -0.1,-1.2 0.15,-3.15 0.1,-6.4 V 17.45 M -11.7,11.65 -39.25,11.6 v 27.9 l 27.6,0.05 -0.05,-13.15 v -14.35 -0.4 m -4.5,5.5 q 0,-0.7 0.55,-0.7 0.5,-0.05 0.65,0.8 l -0.6,0.55 -0.6,-0.65 m 3.5,6.55 -0.35,12.55 0.4,0.5 q -0.2,0.6 -0.75,0.8 h -7.5 l -2.45,-0.05 -0.6,0.65 -0.4,-0.35 -0.2,0.05 -0.15,-0.45 -0.2,-0.05 -0.1,-0.55 0.1,-0.35 q -0.35,-2.8 -0.35,-10.25 0,-7.9 0.4,-10.55 l -0.35,-0.15 -0.1,-0.5 0.1,-0.5 0.4,-0.15 h 10.85 l 0.25,0.05 0.35,-0.05 q 0.75,0.05 0.75,0.9 l -0.1,8.45 M -39.25,9.75 V 9.9 H -37.3 0.35 L 49,9.85 v -1.5 l -88.25,0.1 v 1.3 m 11.1,4.5 0.05,0.2 0.45,-0.2 q 0.7,-0.05 0.7,0.75 l -0.35,9.6 -0.35,0.2 v -0.2 l -0.4,0.4 -9.35,-0.1 -0.45,0.1 q -0.7,0 -0.8,-2.6 v -2.7 q 0,-3.75 0.35,-5 v -0.05 l 0.15,-0.25 0.15,-0.3 0.05,0.1 3,-0.3 q 0,-0.15 3.1,0 l 3.7,0.35 m -8.8,4.6 q 1.15,-0.8 4.25,-2.15 l 3.65,-1.5 -6.75,0.35 -1.75,-0.05 0.35,3.4 0.15,-0.1 0.1,0.05 m 13.25,-1.05 -0.1,-0.75 q 0,-0.95 0.9,-0.95 0.85,0 0.85,0.95 0,0.55 -0.85,1.05 l -0.8,-0.3 m 9.6,-2.15 h -10.25 l 0.25,4.5 0.2,6.15 -0.1,9.85 3.1,-0.15 h 7.35 q -0.35,-3 -0.5,-10.5 l -0.05,-9.85 m -21.45,10.6 6.7,0.3 q 0.7,0.15 0.95,0.8 l -0.05,0.55 -1.2,0.15 -7.9,-0.4 q -1.15,0 -1.15,-0.75 0,-0.5 0.45,-0.6 l 2.2,-0.05 m 7.45,6.55 q 0,0.4 -0.25,0.45 h -0.35 l -8.95,0.15 -0.4,-0.1 -0.15,-0.5 q 0,-0.7 1.05,-0.7 l 9,0.4 0.05,0.3 m 0.05,3.25 H -37.4 L -38,35.4 q 0,-0.5 0.6,-0.75 h 9.35 l 0.6,0.75 -0.6,0.65 m 5.95,-2.3 0.05,0.35 v 0.45 q -0.05,0.2 -0.6,0.2 l -0.4,-0.1 -0.15,-0.25 -0.05,-0.35 0.3,-0.45 q 0.35,-0.15 0.85,0.25 v -0.1 m -11.85,-4.8 q 0.85,0 0.85,0.95 0,0.3 -0.15,0.6 -0.3,0.4 -0.7,0.4 -0.9,0 -0.9,-1 0,-0.95 0.9,-0.95 m -2.7,1.55 q -0.2,0.35 -0.6,0.35 -0.75,0 -0.75,-0.95 0,-0.9 0.8,-0.9 0.8,0.05 0.8,0.9 l -0.25,0.6 M 7.5,46.85 52.65,46.9 V 43.5 L 48,43.6 -34.25,43.75 h -5 v 0.75 h 0.35 v 2.25 l 45.7,0.1 Q 6.9,46.7 7.1,46.7 7.3,46.65 7.5,46.85 m -9.95,18.25 -0.1,-0.55 -0.1,-1.5 0.2,-3.35 -0.05,-1 V 58.55 58.2 L -2.45,54.55 -2.5,49 -2.65,48.8 -2.7,48.25 V 48.2 l -35.55,0.05 -0.05,-0.2 -0.15,0.1 v 0.1 h -0.45 v 4.45 q -0.2,3.65 0,7.1 v 0.25 l 0.2,5 h -0.1 l -0.15,0.1 h 36.4 0.1 V 65.1 M -14.6,35.05 -15.2,34.4 q 0,-1 1.15,-0.65 l 0.1,0.2 0.1,0.45 q 0,0.6 -0.1,0.4 l -0.65,0.25 M -0.95,48.25 -1,48.6 -0.95,62.5 v 2.05 0.1 0.2 0.3 H 34.4 40.75 42.2 V 65.1 q 7.55,-0.25 10.05,0.25 v -0.1 L 52.2,64.75 V 64.2 l 0.2,0.95 0.1,-0.15 0.15,-1.8 V 59.15 L 21.8,59.35 20,59.4 7.1,59.5 6.5,59 6.25,58.65 6.35,58.4 6.15,58 5.85,56.7 Q 5.7,55.7 5.8,54.4 l 0.15,-1 0.35,-2.6 0.05,-0.9 V 49.85 L 6.4,48.5 V 48.3 48.2 H 0.5 v 0.05 h -0.85 l 0.1,-0.05 h -0.7 v 0.05 M 55.7,-56.85 V 69.1 H -42.45 V 44.5 h -0.1 V 6.2 h 0.1 V -56.85 H 55.7 m -60.95,109 q 0,0.35 -0.35,0.45 l -1.55,0.2 h -3.05 l -0.65,-0.65 0.2,-0.55 0.45,-0.1 4.75,0.15 0.1,0.1 0.1,0.4 m 0,2.25 q -0.85,0.7 -1.7,0.7 L -11,54.9 q -0.2,-0.1 -0.2,-0.75 0,-0.65 1.25,-0.65 l 4.5,0.55 0.2,0.35 m 0.3,1.9 -0.2,0.55 -0.35,0.05 -4.7,0.25 -0.65,-0.1 -0.1,-0.1 -0.05,-0.4 q 0,-0.4 0.5,-0.55 l 5,-0.25 0.35,0.1 q 0.2,0.05 0.2,0.45 m -4.55,2.95 -1.2,-0.1 -0.15,-0.5 q 0,-0.6 0.8,-0.65 l 5.3,0.25 0.15,0.35 q 0.05,0.5 -0.3,0.55 l -4.6,0.1 m 5.1,1.5 -0.2,0.5 -0.4,0.1 -5.2,0.05 -0.5,-0.1 -0.2,-0.5 q 0,-0.45 0.5,-0.6 l 5.4,-0.15 0.4,0.2 q 0.2,0.1 0.2,0.5 m -31.9,-9.9 0.4,-0.1 19.65,0.15 1.2,0.1 q 0.2,-0.5 0.9,-0.5 0.95,0.05 0.95,0.9 l -0.15,4.9 -0.3,6.25 q 0.8,0.45 0.8,0.8 -0.25,0.6 -0.85,0.8 l -21.7,-0.05 -0.35,-0.2 -0.35,0.25 q -0.55,0 -0.8,-6.25 l -0.1,-6.15 -0.15,-0.15 0.25,-0.35 0.6,-0.4 m 19.95,1.95 0.1,0.5 q 0,0.6 -0.1,0.45 l -0.6,0.25 -0.7,-0.7 0.2,-0.55 1,-0.1 0.1,0.15 m -18.85,9.9 2.85,-0.2 h 17.5 q -0.45,-1.45 -0.45,-4.2 l 0.05,-0.8 0.05,-1.05 0.1,-4.55 -1.15,0.1 -19,0.15 0.05,1.4 v 0.1 5.9 q -0.05,2 -0.25,3.15 h 0.25 m 19,-2.35 0.1,0.15 0.1,0.5 q 0,0.6 -0.15,0.4 l -0.55,0.25 -0.5,-0.1 -0.2,-0.5 V 60.9 q 0.1,-0.85 1.05,-0.6 l 0.15,0.05 M -33.7,53 l 1,-0.1 0.2,0.6 -0.15,0.6 q 0,0.2 -0.6,0.2 -0.6,0 -0.75,-0.4 v -0.4 l 0.3,-0.5 m -0.55,7.9 0.1,-0.55 q 0.7,-0.4 1.4,0.55 l -0.1,0.65 -0.65,0.2 -0.6,-0.55 -0.15,-0.3 M 7.8,48.5 l -0.15,9.4 1.8,-0.05 4.8,0.05 6.8,0.15 31.55,0.05 0.05,0.05 v -10 L 7.8,48.2 v 0.3 m 12.3,2.75 V 51.3 H 20.05 L 20,50.9 q 0,-0.5 0.95,-0.6 1.15,-0.15 4.55,0.05 l 0.55,0.45 -1.65,0.5 -0.85,0.1 -2.25,0.1 -1.15,-0.2 -0.05,-0.05 m 3.7,2.8 -2.85,-0.2 -0.5,-0.05 -0.15,-0.25 -0.05,-0.4 q 0.8,-0.2 0.4,-0.6 0.4,-0.2 6,0.1 v 0.6 q -1.05,0.8 -2.85,0.8 m 2.25,1.65 -1.5,0.2 -1.3,0.05 -1,0.05 H 20.6 L 20.15,55.85 Q 20,55.7 20,55.3 l 0.1,-0.5 2.15,-0.25 0.65,-0.1 3.75,0.25 v 0.75 l -0.6,0.25 M 9.2,49.85 9.4,49.75 9.55,49.8 9.9,49.75 17.35,49.8 18,50.5 v 0.3 l 0.15,0.5 0.25,1.3 v 2.15 0.4 l 0.65,0.6 -0.05,0.2 -0.25,0.35 q -0.25,0.3 -0.6,0.3 l -0.1,-0.05 H 18 L 17.95,56.5 17.55,56.55 17.1,56.5 H 10 q 0.05,0.25 -0.6,0.25 -0.6,0 -0.75,-1.5 V 53.7 53.25 L 8.75,51.3 8.8,51.05 8.75,50.65 v -0.1 q 0,-0.5 0.4,-0.65 L 9.2,49.85 m 0.85,1.45 0.1,1.85 v 0.5 l -0.05,1.5 2.4,-0.05 h 4.3 V 55 q 0,-1.3 0.15,-2.3 l 0.25,-1.4 0.05,-0.2 -7.2,0.05 V 51.3 M 3.3,50.9 v 0.25 q 0,1.2 -1.3,1.2 L 1.6,52.3 0.85,51.75 0.8,51.25 0.75,51.15 0.8,50.9 1,50.35 q 0.3,-0.4 1.05,-0.3 0.65,0.1 0.95,0.35 l 0.3,0.5 m -1.1,3.2 q 1.05,0 1.05,1.05 0,0.55 -0.4,0.8 L 2.25,56.15 1.8,56.05 1.25,55.5 1.15,55.05 q 0,-0.7 0.55,-0.85 l 0.5,-0.1 m -0.25,6 0.1,0.45 -0.05,0.4 q -0.2,0.4 -0.85,0.4 l -0.8,-0.1 -0.1,-0.7 q 0,-0.45 0.3,-0.65 l 0.2,-0.1 0.4,-0.05 q 0.6,0 0.8,0.35 m 2.8,0.55 -0.25,0.65 -0.4,0.3 -0.3,0.05 q -0.9,0 -0.9,-1 0,-0.95 0.95,-0.85 l 0.25,0.05 q 0.65,0.1 0.65,0.8 m 47.2,0.3 0.25,0.25 q 0,0.75 -0.75,0.8 H 8.25 L 7.75,61.6 7.5,61.15 q 0,-0.2 0.75,-0.65 H 8.4 l 4.1,-0.1 38.95,0.1 0.5,0.45 m -9.7,-11.2 0.15,0.05 0.35,-0.05 7.45,0.05 0.65,0.7 v 0.3 L 51,51.3 q 0.35,1.15 0.25,3.45 v 0.4 l 0.65,0.6 -0.05,0.2 L 51.6,56.3 51,56.6 50.9,56.55 H 50.85 L 50.8,56.5 50.4,56.55 49.95,56.5 h -7.1 q 0.05,0.25 -0.6,0.25 H 42.2 v -7 h 0.05 m 0.65,1.55 0.05,0.25 0.05,1.85 q 1,-0.85 3.5,-1.8 l 0.7,-0.25 0.75,-0.25 -5.05,0.05 v 0.15"
         fill="#6b6b6b"
         fill-rule="evenodd"
         stroke="none"
         id="path2" />
      <path
         d="m 45,-51.1 v 1.45 l 0.15,0.85 -55.5,-0.1 0.1,-2.35 52.45,0.15 v 1 h 0.15 l 0.6,-0.15 q 0.4,-0.25 0.4,-0.65 v -0.2 H 45 m 1.7,0 h 5.65 0.7 l -0.35,1.45 v 0.85 h -0.2 v -0.4 l -0.25,0.35 -0.1,0.1 H 51.9 v -0.05 h -5.3 l 0.1,-2.3 m -27.8,5.7 h -0.15 l -57.9,0.05 v -1.05 l 87.6,-0.2 0.65,0.1 v 1.1 H 20.2 20.1 19.3 18.9 m 30.2,3.35 -0.4,0.1 h -82.65 l -4.95,-0.45 v -1 h -0.15 l -0.05,-0.7 h 0.2 v -0.25 h 88 v 2.3 m 1.55,15 v -2.1 -1.2 H 50.6 v -0.85 -0.15 -0.2 -0.4 -5.6 l -0.05,-1.95 v -0.15 -0.25 l -0.05,-3.15 v -0.2 h 0.05 v -0.1 l 0.05,-1 v -0.1 l 0.05,-0.25 0.1,-0.7 H 50.6 v -0.9 -0.15 h 0.6 1.5 v 0.4 l 0.15,0.7 v 40.1 q -0.15,0.85 0,1.85 l -0.1,42.5 -0.1,0.15 -0.3,0.3 -0.5,0.25 -0.5,-0.25 L 50.7,39 V 26.15 L 50.75,26.1 V 25.7 L 50.7,25.6 V 24.3 16.6 15.05 11.65 9.85 8.35 6.7 5.1 L 50.75,4.9 V -5.6 l 0.05,-10.65 -0.05,-0.65 v -1.8 l -0.05,-1.9 v -1.85 -0.9 -1.9 -0.8 -1 h -0.05 m -89.55,7.55 h -0.05 v -0.1 h 0.3 v -0.85 l 0.5,-0.05 87.15,-0.1 v 4.45 h -87.9 v -0.65 l -0.05,-0.4 v -1.5 h 0.05 0.25 v -0.8 h -0.25 m 25.1,-31.75 -0.05,1.05 0.1,1.3 -25.25,-0.05 0.15,-2.75 h 0.05 l 0.65,0.1 -0.05,0.45 0.15,0.55 q 0.35,0.65 1.05,0.65 0.6,0 0.9,-0.5 l 0.25,-0.7 v -0.3 l 1.3,0.05 q 0.1,-0.75 1.05,-0.85 1.05,-0.1 1.1,0.9 l 1.45,0.05 17.15,0.05 m -18.65,0.15 q -0.05,-1 -1.1,-0.9 -0.95,0.1 -1.05,0.85 l -0.05,0.25 0.1,0.55 0.15,0.2 q 0.25,0.3 0.85,0.3 0.55,0 0.85,-0.3 0.25,-0.25 0.25,-0.8 v -0.15 m 21.1,-2.15 -0.05,0.15 -0.05,0.7 0.05,1.15 0.15,2.35 h -1.35 v -1.3 l -0.05,-1.05 -0.1,-1.05 -0.1,-0.95 h 1.5 m 1.85,69.8 V 12 H -9.95 V 11.65 H 49 v 3.1 l -0.05,0.15 v 2.55 L 43.6,17.65 16.6,17.6 16.35,15 16.3,14.85 16.35,14.6 16.3,14.4 h 0.1 l -0.15,-0.05 -0.7,-0.65 -0.9,-0.3 h -1.1 L 12.8,13.35 2.25,13.15 H 0.1 L -0.2,13.2 -3.25,13.15 H -5.4 l -0.5,0.05 -0.6,0.1 v 0.9 0.7 1.8 l -2.7,-0.1 v 0.15 l -0.3,-0.2 m -3.2,7.15 0.1,-8.45 q 0,-0.85 -0.75,-0.9 l -0.35,0.05 -0.25,-0.05 H -24.8 l -0.4,0.15 -0.1,0.5 0.1,0.5 0.35,0.15 q -0.4,2.65 -0.4,10.55 0,7.45 0.35,10.25 l -0.1,0.35 0.1,0.55 0.2,0.05 0.15,0.45 0.2,-0.05 0.4,0.35 0.6,-0.65 2.45,0.05 h 7.5 q 0.55,-0.2 0.75,-0.8 l -0.4,-0.5 0.35,-12.55 m -3.5,-6.55 0.6,0.65 0.6,-0.55 q -0.15,-0.85 -0.65,-0.8 -0.55,0 -0.55,0.7 m 4.5,-5.5 v 0.4 14.35 l 0.05,13.15 -27.6,-0.05 V 11.6 l 27.55,0.05 m -16.45,2.6 -3.7,-0.35 q -3.1,-0.15 -3.1,0 l -3,0.3 -0.05,-0.1 -0.15,0.3 -0.15,0.25 v 0.05 q -0.35,1.25 -0.35,5 v 2.7 q 0.1,2.6 0.8,2.6 l 0.45,-0.1 9.35,0.1 0.4,-0.4 v 0.2 l 0.35,-0.2 0.35,-9.6 q 0,-0.8 -0.7,-0.75 l -0.45,0.2 -0.05,-0.2 m 25.6,50.9 h -36.4 l 0.15,-0.1 h 0.1 l -0.2,-5 V 59.8 q -0.2,-3.45 0,-7.1 v -4.45 h 0.45 v -0.1 l 0.15,-0.1 0.05,0.2 35.55,-0.05 v 0.05 l 0.05,0.55 0.15,0.2 0.05,5.55 -0.05,3.65 v 0.35 0.15 l 0.05,1 -0.2,3.35 0.1,1.5 0.1,0.55 -0.1,0.05 M 7.5,46.85 q -0.2,-0.2 -0.4,-0.15 -0.2,0 -0.3,0.15 l -45.7,-0.1 V 44.5 h -0.35 v -0.75 h 5 L 48,43.6 52.65,43.5 v 3.4 L 7.5,46.85 M -36.65,30.5 -36.4,29.9 q 0,-0.85 -0.8,-0.9 -0.8,0 -0.8,0.9 0,0.95 0.75,0.95 0.4,0 0.6,-0.35 m 2.7,-1.55 q -0.9,0 -0.9,0.95 0,1 0.9,1 0.4,0 0.7,-0.4 0.15,-0.3 0.15,-0.6 0,-0.95 -0.85,-0.95 m 11.85,4.8 v 0.1 q -0.5,-0.4 -0.85,-0.25 l -0.3,0.45 0.05,0.35 0.15,0.25 0.4,0.1 q 0.55,0 0.6,-0.2 V 34.1 l -0.05,-0.35 m -5.95,2.3 0.6,-0.65 -0.6,-0.75 H -37.4 Q -38,34.9 -38,35.4 l 0.6,0.65 h 9.35 m -0.05,-3.25 -0.05,-0.3 -9,-0.4 q -1.05,0 -1.05,0.7 l 0.15,0.5 0.4,0.1 8.95,-0.15 h 0.35 q 0.25,-0.05 0.25,-0.45 m -7.45,-6.55 -2.2,0.05 q -0.45,0.1 -0.45,0.6 0,0.75 1.15,0.75 l 7.9,0.4 1.2,-0.15 0.05,-0.55 q -0.25,-0.65 -0.95,-0.8 l -6.7,-0.3 m 21.45,-10.6 0.05,9.85 q 0.15,7.5 0.5,10.5 h -7.35 l -3.1,0.15 0.1,-9.85 -0.2,-6.15 -0.25,-4.5 h 10.25 m -9.6,2.15 0.8,0.3 q 0.85,-0.5 0.85,-1.05 0,-0.95 -0.85,-0.95 -0.9,0 -0.9,0.95 l 0.1,0.75 m 45.5,41.55 30.85,-0.2 V 63.2 L 52.5,65 52.4,65.15 52.2,64.2 v 0.55 l 0.05,0.5 v 0.1 Q 49.75,64.85 42.2,65.1 v 0.05 H 40.75 34.4 -0.95 v -0.3 -0.2 -0.1 -2.05 L -1,48.6 -0.95,48.25 h 0.6 0.85 V 48.2 h 5.9 v 0.1 0.2 l -0.05,1.35 v 0.05 l -0.05,0.9 -0.35,2.6 -0.15,1 q -0.1,1.3 0.05,2.3 l 0.3,1.3 0.2,0.4 -0.1,0.25 0.25,0.35 0.6,0.5 12.9,-0.1 1.5,0.15 0.3,-0.2 m -36.4,-24.3 0.65,-0.25 q 0.1,0.2 0.1,-0.4 l -0.1,-0.45 -0.1,-0.2 Q -15.2,33.4 -15.2,34.4 l 0.6,0.65 m -20.6,24.5 v -5.9 -0.1 l -0.05,-1.4 19,-0.15 1.15,-0.1 -0.1,4.55 -0.05,1.05 -0.05,0.8 q 0,2.75 0.45,4.2 h -17.5 l -2.85,0.2 v -3.15 m 18.85,-6.75 -0.1,-0.15 -1,0.1 -0.2,0.55 0.7,0.7 0.6,-0.25 q 0.1,0.15 0.1,-0.45 l -0.1,-0.5 m -19.95,-1.95 -0.6,0.4 -0.25,0.35 0.15,0.15 0.1,6.15 q 0.25,6.25 0.8,6.25 l 0.35,-0.25 0.35,0.2 21.7,0.05 q 0.6,-0.2 0.85,-0.8 0,-0.35 -0.8,-0.8 l 0.3,-6.25 0.15,-4.9 q 0,-0.85 -0.95,-0.9 -0.7,0 -0.9,0.5 l -1.2,-0.1 -19.65,-0.15 -0.4,0.1 m 31.9,9.9 q 0,-0.4 -0.2,-0.5 l -0.4,-0.2 -5.4,0.15 q -0.5,0.15 -0.5,0.6 l 0.2,0.5 0.5,0.1 5.2,-0.05 0.4,-0.1 0.2,-0.5 m -5.1,-1.5 4.6,-0.1 Q -4.55,59.1 -4.6,58.6 L -4.75,58.25 -10.05,58 q -0.8,0.05 -0.8,0.65 l 0.15,0.5 1.2,0.1 m 4.55,-2.95 q 0,-0.4 -0.2,-0.45 l -0.35,-0.1 -5,0.25 q -0.5,0.15 -0.5,0.55 l 0.05,0.4 0.1,0.1 0.65,0.1 4.7,-0.25 0.35,-0.05 0.2,-0.55 m -0.3,-1.9 -0.2,-0.35 -4.5,-0.55 q -1.25,0 -1.25,0.65 0,0.65 0.2,0.75 l 4.05,0.2 q 0.85,0 1.7,-0.7 m 0,-2.25 -0.1,-0.4 -0.1,-0.1 -4.75,-0.15 -0.45,0.1 -0.2,0.55 0.65,0.65 h 3.05 l 1.55,-0.2 q 0.35,-0.1 0.35,-0.45 m -29,8.75 0.15,0.3 0.6,0.55 0.65,-0.2 0.1,-0.65 q -0.7,-0.95 -1.4,-0.55 l -0.1,0.55 M -33.7,53 -34,53.5 v 0.4 q 0.15,0.4 0.75,0.4 0.6,0 0.6,-0.2 l 0.15,-0.6 -0.2,-0.6 -1,0.1 m 17.5,7.35 -0.15,-0.05 q -0.95,-0.25 -1.05,0.6 v 0.15 l 0.2,0.5 0.5,0.1 0.55,-0.25 Q -16,61.6 -16,61 l -0.1,-0.5 -0.1,-0.15 M 51.95,60.95 51.45,60.5 12.5,60.4 8.4,60.5 H 8.25 Q 7.5,60.95 7.5,61.15 l 0.25,0.45 0.5,0.4 h 43.2 q 0.75,-0.05 0.75,-0.8 l -0.25,-0.25 m -47.2,-0.3 q 0,-0.7 -0.65,-0.8 L 3.85,59.8 Q 2.9,59.7 2.9,60.65 q 0,1 0.9,1 L 4.1,61.6 4.5,61.3 4.75,60.65 M 1.95,60.1 q -0.2,-0.35 -0.8,-0.35 l -0.4,0.05 -0.2,0.1 q -0.3,0.2 -0.3,0.65 l 0.1,0.7 0.8,0.1 q 0.65,0 0.85,-0.4 l 0.05,-0.4 -0.1,-0.45 m 0.25,-6 -0.5,0.1 q -0.55,0.15 -0.55,0.85 l 0.1,0.45 0.55,0.55 0.45,0.1 0.6,-0.2 q 0.4,-0.25 0.4,-0.8 0,-1.05 -1.05,-1.05 M 3.3,50.9 3,50.4 Q 2.7,50.15 2.05,50.05 1.3,49.95 1,50.35 l -0.2,0.55 -0.05,0.25 0.05,0.1 0.05,0.5 0.75,0.55 0.4,0.05 q 1.3,0 1.3,-1.2 V 50.9 m 6.75,0.4 v -0.15 l 7.2,-0.05 -0.05,0.2 -0.25,1.4 q -0.15,1 -0.15,2.3 v 0.1 h -4.3 l -2.4,0.05 0.05,-1.5 v -0.5 L 10.05,51.3 M 9.2,49.85 9.15,49.9 q -0.4,0.15 -0.4,0.65 v 0.1 l 0.05,0.4 -0.05,0.25 -0.1,1.95 v 0.45 1.55 q 0.15,1.5 0.75,1.5 0.65,0 0.6,-0.25 h 7.1 l 0.45,0.05 0.4,-0.05 0.05,0.05 h 0.05 l 0.1,0.05 q 0.35,0 0.6,-0.3 L 19,55.95 19.05,55.75 18.4,55.15 V 54.75 52.6 L 18.15,51.3 18,50.8 V 50.5 L 17.35,49.8 9.9,49.75 9.55,49.8 9.4,49.75 9.2,49.85 m 16.85,5.85 0.6,-0.25 V 54.7 L 22.9,54.45 22.25,54.55 20.1,54.8 20,55.3 q 0,0.4 0.15,0.55 L 20.6,56 h 1.65 l 1,-0.05 1.3,-0.05 1.5,-0.2 M 23.8,54.05 q 1.8,0 2.85,-0.8 v -0.6 q -5.6,-0.3 -6,-0.1 0.4,0.4 -0.4,0.6 l 0.05,0.4 0.15,0.25 0.5,0.05 2.85,0.2 m -3.7,-2.8 0.05,0.05 1.15,0.2 2.25,-0.1 0.85,-0.1 1.65,-0.5 -0.55,-0.45 Q 22.1,50.15 20.95,50.3 20,50.4 20,50.9 l 0.05,0.4 H 20.1 V 51.25 M 7.8,48.5 v -0.3 l 44.85,-0.05 v 10 L 52.6,58.1 21.05,58.05 14.25,57.9 9.45,57.85 7.65,57.9 7.8,48.5 M 5.25,64.55 h 0.1 L 5.25,64.5 v 0.05 m 37,-14.8 H 42.2 v 7 h 0.05 q 0.65,0 0.6,-0.25 h 7.1 l 0.45,0.05 0.4,-0.05 0.05,0.05 h 0.05 l 0.1,0.05 0.6,-0.3 0.25,-0.35 0.05,-0.2 -0.65,-0.6 v -0.4 Q 51.35,52.45 51,51.3 L 50.85,50.8 V 50.5 L 50.2,49.8 42.75,49.75 42.4,49.8 42.25,49.75 m 4.95,1.6 V 51.3 h -1.7 -2.6 v -0.15 l 5.05,-0.05 -0.75,0.25"
         fill="#a8a8a8"
         fill-rule="evenodd"
         stroke="none"
         id="path3" />
      <path
         d="m -37.1,-25.2 q -0.4,0 -0.65,-0.85 h -0.15 l -0.1,-0.6 -0.05,-0.4 h -0.1 l -0.05,-0.9 v -2.4 h 0.05 v -0.25 -0.75 -0.2 -0.4 -1.7 h 0.05 l 0.05,-1.2 0.05,-1.35 0.1,-1.2 0.15,-0.4 0.1,-1.7 h 10.9 l 0.15,0.45 -0.05,0.3 v 12.7 H -27 l -0.2,0.15 -0.15,0.35 q -0.3,0.35 -0.6,0.35 h -8.15 l -0.55,-0.1 -0.35,0.1 h -0.1 m -1.8,5.7 h 0.25 v 0.8 h -0.25 v -0.8 m 10.25,-17.55 0.3,-1.2 h -0.35 -0.1 q 0.15,0.55 0.15,1.2 m -6.95,-1.15 h -0.5 v 2 l 0.45,-0.05 -0.1,-0.8 0.15,-1.15 m 6.6,6.35 h -1.3 l -0.85,0.1 -2.95,-0.05 0.1,0.25 0.25,1.2 h 0.25 v 1.3 l 4.5,-0.25 v -0.1 -0.95 -1 -0.2 -0.3 m -0.3,-2.5 -0.05,-0.1 -6.75,-0.2 v 7.95 h 0.55 6.9 l -0.05,-0.35 h -0.1 l -0.05,-0.5 -4.7,0.1 v 0.15 l -0.5,0.25 h -0.15 l -0.55,-0.9 -0.05,-0.35 0.05,-2.05 h 0.05 v -1.5 h -0.2 l -0.05,-0.1 -0.1,-0.6 q 0,-0.4 0.55,-0.5 l 2.85,-0.15 1.5,0.2 1.15,0.05 v -0.7 h 0.05 v -0.75 l -0.35,0.05 m -0.85,-3.9 -4.65,0.05 v 1.9 l 2.2,-0.1 h 2.7 l -0.25,-1.85 m 39.55,78 H 4.9 4.75 -0.75 L -3.25,39.55 -3.5,39.5 Q -4.8,39.35 -5.35,39 L -5.9,38.95 -6.35,38.5 -6.4,38.45 l 0.05,-1.65 0.1,-1.95 v -0.1 H -6.2 V 34.5 l 0.05,-1.8 h -0.7 q -1.35,-0.4 -1.6,-1 H -8.6 l 0.1,-0.05 -0.05,-0.2 0.05,-0.2 -0.2,-1.2 -0.1,-1.35 V 28.45 28.3 27.8 27.4 h 0.05 l 0.1,-1.5 q 0.25,-2.6 1,-2.6 h 0.2 L -6.6,23.25 -6.65,23.1 H -6.7 l 0.2,-5.95 V 16.7 14.9 14.2 13.3 l 0.6,-0.1 0.5,-0.05 h 2.15 l 3.05,0.05 q 3.75,0 7.5,0.15 l 0.75,0.05 h 5.5 1.1 l 0.9,0.3 0.7,0.65 0.15,0.05 h -0.1 l 0.05,0.2 -0.05,0.25 0.05,0.15 0.25,2.6 v 1.3 q -0.1,5.15 -1.15,5.15 h -0.2 l -0.85,0.05 0.05,0.15 0.05,0.05 -0.05,1.6 -0.05,1.9 v 0.9 h -0.05 l -0.05,1.35 v 1.8 h 3.5 q 1.5,0.4 1.75,1 h 0.2 l -0.15,0.05 0.05,0.2 -0.05,0.2 0.25,1.2 v 0.25 h 0.1 v 0.1 0.5 H 19.9 l 0.05,0.5 v 0.25 0.1 0.35 H 19.8 v 0.25 q -0.25,2.6 -1.15,2.6 h -0.2 l -1.1,0.1 -0.65,-0.05 -0.45,-0.05 -1.6,0.15 -2.05,0.1 -3.2,0.1 M -1,15.95 -2.65,15.9 -3.3,15.85 -4.6,15.6 h -0.2 v 1.2 h 0.5 l 1,-0.05 1.7,-0.05 H -1 l 3.6,0.05 H 14.25 V 16.4 15.9 H 2.9 L 0.75,15.95 H -1 M -4.8,20 H 4.55 L 10,19.95 h 3 l 1.25,0.15 V 17.6 17.5 H 2.45 -1.65 -4.8 V 20 m 0,1.7 8.4,-0.1 6.75,0.05 4.05,0.45 -0.1,-1.4 -4.3,0.25 -5.25,-0.1 H -4.8 v 0.85 m 2.25,4 -3.35,-0.3 h -0.05 l -0.65,-0.1 0.05,0.6 0.05,0.6 -0.4,0.25 -0.05,1.05 q 0.05,0.9 0.6,1.5 h -0.1 v 0.4 0.35 0.1 H 4.9 l 2.15,-0.05 3.4,0.05 1.5,0.25 0.45,0.1 h 0.2 v -0.8 l 0.3,-0.45 -0.1,-0.25 -0.15,-0.15 0.2,-0.8 0.1,-0.25 q 0.1,-0.55 -0.35,-1.3 V 25.65 H 11.95 L 4.2,25.8 -2.55,25.7 m 15.45,11.35 3.8,0.25 0.75,0.15 -0.05,-0.65 -0.05,-0.6 0.4,-0.15 -0.55,-0.85 h 0.1 V 34.85 34.5 34.4 H 4.5 L 2,34.45 -1.85,34.4 -3.5,34.15 -4,34.05 h -0.25 v 0.8 l -0.3,0.45 0.05,0.25 0.25,0.15 -0.2,0.25 0.25,0.3 v 0.85 h 0.7 l 8.8,-0.15 7.6,0.1"
         fill="#999999"
         fill-rule="evenodd"
         stroke="none"
         id="path4" />
      <path
         d="M -36.1,-25.2 H -37 l 0.35,-0.1 0.55,0.1 m 7.45,-11.85 q 0,-0.65 -0.15,-1.2 h 0.1 0.35 l -0.3,1.2 M 21.8,59.35 21.5,59.55 20,59.4 21.8,59.35 M -0.35,48.25 h -0.6 V 48.2 h 0.7 l -0.1,0.05 m -34.85,11.3 v 3.15 h -0.25 q 0.2,-1.15 0.25,-3.15 m 40.45,5 V 64.5 l 0.1,0.05 H 5.25 M 42.9,51.3 h 2.6 1.7 v 0.05 L 46.5,51.6 Q 44,52.55 43,53.4 L 42.95,51.55 42.9,51.3"
         fill="#cccccc"
         fill-rule="evenodd"
         stroke="none"
         id="path5" />
      <path
         d="m -29.3,-34.35 0.35,-0.05 v 0.75 H -29 v 0.7 l -1.15,-0.05 -1.5,-0.2 -2.85,0.15 q -0.55,0.1 -0.55,0.5 l 0.1,0.6 0.05,0.1 h 0.2 v 1.5 h -0.05 l -0.05,2.05 0.05,0.35 0.55,0.9 h 0.15 l 0.5,-0.25 v -0.15 l 4.7,-0.1 0.05,0.5 h 0.1 l 0.05,0.35 h -6.9 -0.55 v -7.95 l 6.75,0.2 0.05,0.1 m 26.75,60.05 6.75,0.1 7.75,-0.15 h 0.65 v 0.85 q 0.45,0.75 0.35,1.3 l -0.1,0.25 -0.2,0.8 0.15,0.15 0.1,0.25 -0.3,0.45 v 0.8 H 12.4 L 11.95,30.4 10.45,30.15 7.05,30.1 4.9,30.15 H -6.45 v -0.1 -0.35 -0.4 h 0.1 q -0.55,-0.6 -0.6,-1.5 l 0.05,-1.05 0.4,-0.25 -0.05,-0.6 -0.05,-0.6 0.65,0.1 h 0.05 l 3.35,0.3"
         fill="#b6aea8"
         fill-rule="evenodd"
         stroke="none"
         id="path6" />
      <path
         d="M -1,15.95 H 0.75 L 2.9,15.9 h 11.35 v 0.5 0.35 H 2.6 L -1,16.7 h -0.6 l -1.7,0.05 -1,0.05 h -0.5 v -1.2 h 0.2 l 1.3,0.25 0.65,0.05 1.65,0.05 m -3.8,5.75 v -0.85 h 9.55 l 5.25,0.1 4.3,-0.25 0.1,1.4 -4.05,-0.45 -6.75,-0.05 -8.4,0.1 m 17.7,15.35 -7.6,-0.1 -8.8,0.15 h -0.7 v -0.85 l -0.25,-0.3 0.2,-0.25 -0.25,-0.15 -0.05,-0.25 0.3,-0.45 v -0.8 H -4 l 0.5,0.1 1.65,0.25 L 2,34.45 4.5,34.4 h 12.8 v 0.1 0.35 0.35 h -0.1 l 0.55,0.85 -0.4,0.15 0.05,0.6 0.05,0.65 -0.75,-0.15 -3.8,-0.25"
         fill="#bfb5ac"
         fill-rule="evenodd"
         stroke="none"
         id="path7" />
    </g>
  </defs>
</svg>
