<?xml version="1.0" encoding="UTF-8" standalone="no"?>
<svg
   ffdec:objectType="frame"
   height="44.650002"
   width="68.349998"
   version="1.1"
   id="svg4"
   sodipodi:docname="1.svg"
   xmlns:inkscape="http://www.inkscape.org/namespaces/inkscape"
   xmlns:sodipodi="http://sodipodi.sourceforge.net/DTD/sodipodi-0.dtd"
   xmlns:xlink="http://www.w3.org/1999/xlink"
   xmlns="http://www.w3.org/2000/svg"
   xmlns:svg="http://www.w3.org/2000/svg"
   xmlns:ffdec="https://www.free-decompiler.com/flash">
  <sodipodi:namedview
     id="namedview4"
     pagecolor="#ffffff"
     bordercolor="#000000"
     borderopacity="0.25"
     inkscape:showpageshadow="2"
     inkscape:pageopacity="0.0"
     inkscape:pagecheckerboard="0"
     inkscape:deskcolor="#d1d1d1"
     fit-margin-top="5"
     fit-margin-left="5"
     fit-margin-right="5"
     fit-margin-bottom="5" />
  <g
     transform="translate(34.15,22.5)"
     id="g1">
    <use
       ffdec:characterId="2239"
       height="44.650002"
       transform="translate(-34.15,-22.5)"
       width="68.349998"
       xlink:href="#shape0"
       id="use1" />
  </g>
  <defs
     id="defs4">
    <g
       id="shape0"
       transform="translate(34.15,22.5)">
      <path
         d="m 16.85,-9.45 h -2.9 -13.6 -16.05 -2.9 -5 -7.3 -0.1 l 0.45,-1.65 6.75,0.3 h 47.6 l 6.75,-0.3 0.45,1.65 H 30.9 23.6 16.85 M 4.95,-2.6 4.85,-2.55 4.75,-2.7 4.7,-2.25 4.8,-1.9 v 0.25 L 4.9,4.2 H 4.15 L 0.8,4.1 0,4.15 -0.75,4.1 -4.15,4.2 h -0.7 l 0.1,-5.85 V -1.9 l 0.1,-0.35 -0.05,-0.45 -0.1,0.15 -0.1,-0.05 q -0.2,-0.5 -0.7,-0.5 -0.3,0 -0.4,0.2 l -0.25,-0.05 -4.2,-0.2 h -16.4 l -0.65,0.3 -0.3,0.65 0.35,0.5 -0.45,5.5 -0.4,8.15 0.1,2.15 0.2,1 -0.45,0.7 q 0,0.5 0.2,0.6 l 0.6,0.15 h 0.3 l 0.1,0.1 0.1,-0.1 H 27.2 l 0.1,0.1 0.1,-0.1 h 0.3 l 0.55,-0.15 q 0.2,-0.1 0.2,-0.6 L 28,15.1 l 0.2,-1 0.1,-2.15 -0.4,-8.15 -0.4,-5.5 0.3,-0.5 -0.25,-0.65 -0.7,-0.3 H 10.5 L 6.3,-2.95 6.05,-2.9 5.6,-3.1 q -0.45,0 -0.65,0.5 M 2.6,-1.95 Q 2.6,-3.85 0.55,-4 H 0 -0.5 q -2.1,0.15 -2.1,2.05 l 0.25,1.1 0.95,0.9 -0.2,1.6 0.1,0.65 q 0.35,0.55 1.4,0.55 H 0 0.1 q 1.05,0 1.4,-0.55 L 1.6,1.65 1.4,0.05 q 0.65,-0.25 1,-0.9 l 0.2,-1.1 M 31.35,-6.1 q -0.3,1.2 -0.3,2.6 l 0.15,6.1 q -0.4,4 0,11.85 v 3.75 0.25 L 29.05,18.8 H -29 l -2.2,-0.35 V 18.2 14.45 q 0.4,-7.85 0,-11.85 l 0.15,-6.1 q 0,-1.4 -0.25,-2.6 l 0.4,-0.05 h 61.8 l 0.45,0.05"
         fill="#cccccc"
         fill-rule="evenodd"
         stroke="none"
         id="path1" />
      <path
         d="m 2.6,-1.95 -0.2,1.1 q -0.35,0.65 -1,0.9 L 1.6,1.65 1.5,2.3 Q 1.15,2.85 0.1,2.85 H 0 -0.1 q -1.05,0 -1.4,-0.55 l -0.1,-0.65 0.2,-1.6 -0.95,-0.9 -0.25,-1.1 q 0,-1.9 2.1,-2.05 H 0 0.55 Q 2.6,-3.85 2.6,-1.95 M 4.95,-2.6 q 0.2,-0.5 0.65,-0.5 l 0.45,0.2 0.25,-0.05 4.2,-0.2 h 16.35 l 0.7,0.3 0.25,0.65 -0.3,0.5 0.4,5.5 0.4,8.15 -0.1,2.15 -0.2,1 0.45,0.7 q 0,0.5 -0.2,0.6 l -0.55,0.15 h -0.3 l -0.1,0.1 -0.1,-0.1 h -54.35 l -0.1,0.1 -0.1,-0.1 h -0.3 l -0.6,-0.15 q -0.2,-0.1 -0.2,-0.6 l 0.45,-0.7 -0.2,-1 -0.1,-2.15 0.4,-8.15 0.45,-5.5 -0.35,-0.5 0.3,-0.65 0.65,-0.3 h 16.4 l 4.2,0.2 0.25,0.05 q 0.1,-0.2 0.4,-0.2 0.5,0 0.7,0.5 l 0.1,0.05 0.1,-0.15 0.05,0.45 -0.1,0.35 v 0.25 l -0.1,5.85 h 0.7 L -0.75,4.1 0,4.15 0.8,4.1 4.15,4.2 H 4.9 L 4.8,-1.65 V -1.9 l -0.1,-0.35 0.05,-0.45 0.1,0.15 0.1,-0.05 m 11.9,-6.85 h 6.75 7.3 0.1 l -0.45,-1.65 -6.75,0.3 h -47.6 l -6.75,-0.3 -0.45,1.65 h 0.1 7.3 5 2.9 16.05 13.6 2.9 m -6.35,8.25 -4.05,-0.25 0.2,3.8 v 0.2 h 7.3 V 2.5 l 12.6,-0.05 0.3,-3.65 H 10.5 m 16.4,-15.25 -0.1,-0.05 q -1.2,-0.8 -3.2,-1.45 l -6.5,-1.35 h -34.2 q -6.95,0.95 -9.7,2.8 l -0.35,0.25 -1.35,1.45 -1.65,2.25 -0.1,0.45 6.45,-0.15 h 47.6 l 6.5,0.15 -0.1,-0.45 q -2.05,-3 -3.3,-3.9 m 2.7,-0.9 1.6,1.8 q 2.2,2.85 3,5.8 V 22 l -0.15,0.15 h -68 L -34.15,22 V -9.75 q 0.8,-2.95 2.95,-5.8 3.85,-5.05 10.6,-6.5 l 2,-0.35 v -0.1 h 36.3 l 2.95,0.45 q 4.6,1 7.8,3.65 l 1.15,1.05 M 31.35,-6.1 30.9,-6.15 h -61.8 l -0.4,0.05 q 0.25,1.2 0.25,2.6 l -0.15,6.1 q 0.4,4 0,11.85 v 3.75 0.25 L -29,18.8 H 29.05 L 31.2,18.45 V 18.2 14.45 Q 30.8,6.6 31.2,2.6 l -0.15,-6.1 q 0,-1.4 0.3,-2.6 M 26.5,3.75 6.55,3.65 6.25,4.7 6.3,5 q 0,0.75 -0.2,0.85 L 4.15,6 0.35,5.95 H 0 -0.35 L -4.15,6 -6.05,5.85 Q -6.25,5.75 -6.25,5 l 0.05,-0.3 -0.3,-1.05 -20,0.1 0.15,6.6 h 52.7 l 0.15,-6.6 m -0.15,7.8 h -52.7 v 0.3 l -0.15,2.25 -0.1,0.75 H 26.6 L 26.5,14.1 26.35,11.85 v -0.3 M -10.45,-1.2 h -16.4 l 0.3,3.65 7.95,0.05 v 0.05 h 12 v -0.2 l 0.2,-3.8 -4.05,0.25"
         fill="#6b6b6b"
         fill-rule="evenodd"
         stroke="none"
         id="path2" />
      <path
         d="m 10.5,-1.2 h 16.35 l -0.3,3.65 -12.6,0.05 v 0.05 h -7.3 v -0.2 l -0.2,-3.8 4.05,0.25 m -39,-13.6 h 0.2 q 0.6,0 1.2,-0.6 0.65,-0.65 1.95,-0.9 l 8.2,-1.1 9.65,0.3 h 28.85 0.15 l 3.1,0.45 2.1,0.2 q 1.25,0.9 3.3,3.9 l 0.1,0.45 -6.5,-0.15 h -47.6 l -6.45,0.15 0.1,-0.45 1.65,-2.25 m 18.05,13.6 4.05,-0.25 -0.2,3.8 v 0.2 h -12 V 2.5 l -7.95,-0.05 -0.3,-3.65 h 16.4 m 36.8,12.75 v 0.3 l 0.15,2.25 0.1,0.75 h -53.2 l 0.1,-0.75 0.15,-2.25 v -0.3 h 52.7 m 0.15,-7.8 -0.15,6.6 h -52.7 l -0.15,-6.6 20,-0.1 0.3,1.05 -0.05,0.3 q 0,0.75 0.2,0.85 L -4.15,6 -0.35,5.95 H 0 0.35 L 4.15,6 6.1,5.85 Q 6.3,5.75 6.3,5 L 6.25,4.7 6.55,3.65 26.5,3.75"
         fill="#908882"
         fill-rule="evenodd"
         stroke="none"
         id="path3" />
      <path
         d="m -28.5,-14.8 1.35,-1.45 0.35,-0.25 q 2.75,-1.85 9.7,-2.8 h 34.2 l 6.5,1.35 q 2,0.65 3.2,1.45 l 0.1,0.05 -2.1,-0.2 -3.1,-0.45 H 21.55 -7.3 l -9.65,-0.3 -8.2,1.1 q -1.3,0.25 -1.95,0.9 -0.6,0.6 -1.2,0.6 h -0.2"
         fill="#a49b94"
         fill-rule="evenodd"
         stroke="none"
         id="path4" />
    </g>
  </defs>
</svg>
