<?xml version="1.0" encoding="UTF-8" standalone="no"?>
<svg
   ffdec:objectType="frame"
   height="15.994643"
   width="17.058065"
   version="1.1"
   id="svg4"
   sodipodi:docname="2.svg"
   xmlns:inkscape="http://www.inkscape.org/namespaces/inkscape"
   xmlns:sodipodi="http://sodipodi.sourceforge.net/DTD/sodipodi-0.dtd"
   xmlns:xlink="http://www.w3.org/1999/xlink"
   xmlns="http://www.w3.org/2000/svg"
   xmlns:svg="http://www.w3.org/2000/svg"
   xmlns:ffdec="https://www.free-decompiler.com/flash">
  <sodipodi:namedview
     id="namedview4"
     pagecolor="#ffffff"
     bordercolor="#000000"
     borderopacity="0.25"
     inkscape:showpageshadow="2"
     inkscape:pageopacity="0.0"
     inkscape:pagecheckerboard="0"
     inkscape:deskcolor="#d1d1d1"
     fit-margin-top="5"
     fit-margin-left="5"
     fit-margin-right="5"
     fit-margin-bottom="5" />
  <g
     transform="translate(8.5,8)"
     id="g2">
    <use
       ffdec:characterId="4287"
       height="16"
       transform="translate(-8.5,-8)"
       width="17.049999"
       xlink:href="#shape0"
       id="use1" />
    <use
       ffdec:characterId="4288"
       height="9.8000002"
       transform="translate(-3.45,-5.15)"
       width="12.4"
       xlink:href="#text0"
       id="use2" />
  </g>
  <defs
     id="defs4">
    <g
       id="shape0"
       transform="translate(8.5,8)">
      <path
         d="m 8.25,-6.5 0.25,5 Q 8.8,7.9 7.55,7.9 L 7.35,7.85 7,7.95 H -5.8 Q -8.15,8.2 -8.3,7.05 L -8.45,6.6 V 3.2 0.65 l -0.05,-6.85 0.25,-0.7 0.05,-0.15 0.1,-0.1 0.7,-0.6 L -6.8,-8 H 6.4 q 2,0.15 2,1.05 L 8.25,-6.5 m -2,1.9 -0.2,-0.6 h -12.1 l -0.1,0.2 -0.2,0.5 v 0.1 l 0.05,0.55 -0.05,2.25 v 1.55 q 0.2,3.2 0,5 L -5.9,5.35 6.1,5.4 6.35,5.05 6.25,3.9 V 0.35 Q 6.15,-1.3 6.2,-2.9 L 6.3,-4.5 6.25,-4.6"
         fill="#6b6b6b"
         fill-rule="evenodd"
         stroke="none"
         id="path2" />
      <path
         d="M 6.25,-4.6 6.3,-4.5 6.2,-2.9 Q 6.15,-1.3 6.25,0.35 V 3.9 L 6.35,5.05 6.1,5.4 -5.9,5.35 -6.35,4.95 q 0.2,-1.8 0,-5 V -1.6 L -6.3,-3.85 -6.35,-4.4 v -0.1 l 0.2,-0.5 0.1,-0.2 h 12.1 l 0.2,0.6"
         fill="#c7b2ce"
         fill-rule="evenodd"
         stroke="none"
         id="path3" />
    </g>
    <g
       id="text0"
       transform="translate(-68.75,-0.35)">
      <g
         transform="translate(68.3)"
         id="g3">
        <use
           fill="#6b6b6b"
           height="9.8000002"
           transform="matrix(0.0117,0,0,0.0117,0,9)"
           width="12.4"
           xlink:href="#font_Team_Meat_font_U0"
           id="use3" />
      </g>
    </g>
    <g
       id="font_Team_Meat_font_U0">
      <path
         d="m 450.35,-630.7 q -79.2,0 -105.15,129.45 0,26.25 64.55,169.65 -12.3,202.45 -48.3,210.25 H 337.1 q -113.25,0 -169.7,-169.7 -24.3,-315.35 -64.9,-315.35 -72.65,0 -72.65,97 v 121.35 q 0,102.85 32.45,194.05 60,210.2 242.35,210.2 29.2,0 73,-8.1 Q 531.1,-56.15 531.1,-194 V -404.25 Q 522.05,-630.7 466.55,-630.7 h -16.2"
         fill-rule="evenodd"
         stroke="none"
         id="path4" />
    </g>
  </defs>
</svg>
