<?xml version="1.0" encoding="UTF-8" standalone="no"?>
<svg
   ffdec:objectType="frame"
   height="91.150002"
   width="75.612457"
   version="1.1"
   id="svg29"
   sodipodi:docname="2.svg"
   xmlns:inkscape="http://www.inkscape.org/namespaces/inkscape"
   xmlns:sodipodi="http://sodipodi.sourceforge.net/DTD/sodipodi-0.dtd"
   xmlns:xlink="http://www.w3.org/1999/xlink"
   xmlns="http://www.w3.org/2000/svg"
   xmlns:svg="http://www.w3.org/2000/svg"
   xmlns:ffdec="https://www.free-decompiler.com/flash">
  <sodipodi:namedview
     id="namedview29"
     pagecolor="#ffffff"
     bordercolor="#000000"
     borderopacity="0.25"
     inkscape:showpageshadow="2"
     inkscape:pageopacity="0.0"
     inkscape:pagecheckerboard="0"
     inkscape:deskcolor="#d1d1d1"
     fit-margin-top="5"
     fit-margin-left="5"
     fit-margin-right="5"
     fit-margin-bottom="5" />
  <g
     transform="translate(37.8,45.65)"
     id="g19">
    <use
       ffdec:characterId="835"
       height="9.75"
       transform="matrix(0.9019,0,0,0.7959,-26.9,-15.4)"
       width="59.75"
       xlink:href="#sprite0"
       id="use1" />
    <use
       ffdec:characterId="835"
       height="9.75"
       transform="matrix(0.9019,0,0,0.7959,-26.9,8.85)"
       width="59.75"
       xlink:href="#sprite0"
       id="use2" />
    <use
       ffdec:characterId="826"
       height="4.3000002"
       transform="matrix(0.6925,0,0,1,24.45,-30.9)"
       width="14.6"
       xlink:href="#sprite1"
       id="use3" />
    <use
       ffdec:characterId="826"
       height="4.3000002"
       transform="matrix(0.6925,0,0,1,-35.05,-30.9)"
       width="14.6"
       xlink:href="#sprite1"
       id="use4" />
    <use
       ffdec:characterId="820"
       height="13.8"
       transform="matrix(1.1396,0,0,1,-37.8,-44.65)"
       width="66.349998"
       xlink:href="#sprite2"
       id="use5" />
    <use
       ffdec:characterId="835"
       height="9.75"
       transform="matrix(0.9019,0,0,0.7959,-26.9,33.85)"
       width="59.75"
       xlink:href="#sprite0"
       id="use6" />
    <use
       ffdec:characterId="816"
       height="21.299999"
       transform="matrix(1.3164,0,0,0.9398,-27.2,15.8)"
       width="41.349998"
       xlink:href="#sprite3"
       id="use7" />
    <use
       ffdec:characterId="816"
       height="21.299999"
       transform="matrix(1.3164,0,0,0.9398,-27.2,-9.25)"
       width="41.349998"
       xlink:href="#sprite3"
       id="use8" />
    <use
       ffdec:characterId="816"
       height="21.299999"
       transform="matrix(1.3164,0,0,0.9398,-27.2,-33.2)"
       width="41.349998"
       xlink:href="#sprite3"
       id="use9" />
    <use
       ffdec:characterId="814"
       height="7.6500001"
       transform="matrix(0,1,-0.8684,0,-26.05,42.7)"
       width="2.8"
       xlink:href="#sprite4"
       id="use10" />
    <use
       ffdec:characterId="835"
       height="9.75"
       transform="matrix(0,-1.2008,1,0,-34.15,43.75)"
       width="59.75"
       xlink:href="#sprite0"
       id="use11" />
    <use
       ffdec:characterId="835"
       height="9.75"
       transform="matrix(0,-1.2008,1,0,24.85,43.75)"
       width="59.75"
       xlink:href="#sprite0"
       id="use12" />
    <use
       ffdec:characterId="814"
       height="7.6500001"
       transform="matrix(0,1,-0.8684,0,33.2,42.7)"
       width="2.8"
       xlink:href="#sprite4"
       id="use13" />
    <use
       ffdec:characterId="814"
       height="7.6500001"
       transform="matrix(0,1,-0.8684,0,3.2,24.45)"
       width="2.8"
       xlink:href="#sprite4"
       id="use14" />
    <use
       ffdec:characterId="814"
       height="7.6500001"
       transform="matrix(0,1,-0.8684,0,3.2,-0.55)"
       width="2.8"
       xlink:href="#sprite4"
       id="use15" />
    <use
       ffdec:characterId="814"
       height="7.6500001"
       transform="matrix(0,1,-0.8684,0,3.2,-24.3)"
       width="2.8"
       xlink:href="#sprite4"
       id="use16" />
    <use
       ffdec:characterId="44"
       height="8"
       transform="matrix(0.9659,-0.2588,0.2588,0.9659,7.5488,23.4338)"
       width="10.8"
       xlink:href="#sprite5"
       id="use17" />
    <use
       ffdec:characterId="830"
       height="15.15"
       transform="translate(-35.65,-47.7)"
       width="8.25"
       xlink:href="#sprite6"
       id="use18" />
    <use
       ffdec:characterId="832"
       height="15.15"
       transform="matrix(-0.1523,-0.9883,0.9883,-0.1523,11.0251,9.8622)"
       width="8.25"
       xlink:href="#sprite7"
       id="use19" />
  </g>
  <defs
     id="defs29">
    <g
       id="sprite0">
      <use
         ffdec:characterId="834"
         height="9.75"
         width="59.75"
         xlink:href="#shape0"
         id="use20" />
    </g>
    <g
       id="shape0">
      <path
         d="M 0.5,8.7 Q 0.15,8.15 0,7 V 4.55 Q 0,1.1 0.6,0 H 2.05 L 2.1,0.1 H 57.65 L 57.7,0 h 1.45 q 0.6,1.1 0.6,4.55 V 7 Q 59.6,8.35 59.15,8.85 58.95,9.7 57.9,9.75 H 1.85 Q 1.1,9.7 0.8,9.25 L 0.6,8.85 0.5,8.7 M 56.15,3.65 54.95,4.6 V 4.75 5.1 L 55.9,5.95 57.05,7.25 57,6.95 V 4.6 l 0.05,-1.8 -0.9,0.85 m -11.5,3.6 h 11.4 l -0.7,-0.6 Q 54.15,5.7 54.05,5.25 H 46.65 44.6 31.45 27.5 25.1 22.85 5.7 l -1.3,1.4 -0.7,0.6 h 16.7 2.35 2.8 3.65 13.65 1.8 m 2.95,-3 h 6.7 q 0.3,-0.55 1.9,-1.5 h -7.15 -1.8 -13.2 -3.7 -2.6 -1.4 H 6.85 5.7 3.55 q 0.8,0.45 1.3,0.85 l 0.6,0.65 h 0.15 18.6 2 2.4 3.95 13.05 2 M 2.75,5.75 v 1.2 L 2.7,7.25 Q 3,6.75 3.85,5.95 L 4.8,5.1 V 4.75 4.6 L 4.25,4.2 3.6,3.65 2.7,2.8 2.75,4.6 v 1.15"
         fill="#6b6b6b"
         fill-rule="evenodd"
         stroke="none"
         id="path20" />
      <path
         d="m 0.5,8.7 0.1,0.15 0.2,0.4 -0.2,0.1 Q 0.4,9.65 0.4,9.05 L 0.5,8.7 m 46.15,-3.45 -2,2 h -1.8 l 1.75,-2 h 2.05 m -17.45,2 h -3.65 l 1.95,-2 h 3.95 L 30.85,5.8 29.2,7.25 m -6.45,0 H 20.4 q 0.8,-0.75 2.45,-2 h 2.25 l -2.35,2 m 24.85,-3 h -2 l 0.15,-0.15 1.5,-1.35 h 1.8 l -1.45,1.5 m -15.05,0 H 28.6 l 1.25,-1.1 0.5,-0.4 h 3.7 l -1.5,1.5 m -6.35,0 h -2 l 2.15,-1.5 h 1.4 l -1.55,1.5 m -20.6,0 H 5.45 L 4.85,3.6 5.7,2.75 H 6.85 L 5.6,4.25 M 4.25,4.2 4.8,4.6 V 4.75 5.1 L 3.85,5.95 Q 3,6.75 2.7,7.25 L 2.75,6.95 V 5.75 L 3.4,5.05 4.25,4.2"
         fill="#ffffff"
         fill-rule="evenodd"
         stroke="none"
         id="path21" />
    </g>
    <g
       id="sprite1">
      <use
         ffdec:characterId="825"
         height="4.3000002"
         width="14.6"
         xlink:href="#shape1"
         id="use21" />
    </g>
    <g
       id="shape1">
      <path
         d="M 11.6,4.3 H 3 Q 2.25,3.8 2.25,3.4 L 2.3,3.1 Q 0,3.05 0,1.8 0,0.35 1.05,0 h 12.5 q 1.05,0.35 1.05,1.8 0,1.25 -2.3,1.3 l 0.05,0.3 q 0,0.4 -0.75,0.9"
         fill="#6b6b6b"
         fill-rule="evenodd"
         stroke="none"
         id="path22" />
    </g>
    <g
       id="sprite2">
      <use
         ffdec:characterId="819"
         height="13.8"
         width="66.349998"
         xlink:href="#shape2"
         id="use22" />
    </g>
    <g
       id="shape2">
      <path
         d="M 2,13.45 0.95,13.15 0.4,12.95 0.1,12.8 0.15,12.45 0.2,7.7 0.15,2.8 0,1 Q 0.8,0.25 4.15,0 H 62.2 q 3.35,0.25 4.15,1 l -0.15,1.8 -0.05,4.9 0.05,4.75 0.05,0.35 -0.3,0.15 -0.55,0.2 -2.45,0.65 H 3.4 L 2.1,13.5 2,13.45 m 60.2,-8.5 -0.2,0.1 -0.2,0.2 q -0.1,0 -0.15,0.1 L 61.55,6.7 V 7 l -0.1,0.1 Q 61.3,7.3 61.3,7.8 h 0.05 v 0.15 l 0.55,0.55 0.3,0.45 h 0.05 l 0.4,0.4 1,1 V 8.2 q 0,-2.95 0.25,-4.8 L 62.2,4.95 M 56.1,4.7 H 61 L 61.95,3.45 62.45,3 H 62.2 57.55 56.05 33.7 29.3 27.75 25.75 10.55 10.1 4.15 3.9 l 0.5,0.45 1,1.3 h 2.9 1.8 13.6 2.7 1.1 4.95 17.4 V 4.7 h 4.65 1.6 m -5.35,6 h 4.35 v 0.05 h 1.85 V 10.7 h 4.4 v 0.05 h 1 Q 61.6,10.1 61.4,9.5 L 61.05,9.4 H 61 L 60.6,8.8 H 52.4 50.85 29.2 24 22.95 20.25 6.4 5.75 L 5.35,9.4 H 5.3 L 4.95,9.5 4,10.75 h 0.55 14.3 2.2 1.9 4.45 21.95 0.5 V 10.7 h 0.9 M 53.3,7.8 h 7.15 q 0,-1.25 0.15,-2.05 H 60.45 58.7 58.3 56.95 V 5.7 H 55.2 55.1 V 5.75 H 53.55 53.25 52.8 49.85 V 5.7 H 31.7 26.6 25.65 22.8 20.05 14.45 13.95 9.3 L 7.45,5.65 H 5.7 L 5.9,7.3 v 0.5 h 1.4 13.75 2.8 0.9 5.3 21.7 1.55 M 60.65,5.65 57.9,5.7 h 2.75 V 5.65 M 4.55,5.25 4.35,5.05 4.15,4.95 2.45,3.4 2.7,8.2 v 2.15 l 1,-1 0.4,-0.4 H 4.15 L 4.45,8.5 5.05,7.95 V 7.85 L 4.9,7.1 4.8,7 V 6.7 L 4.7,5.35 4.55,5.25"
         fill="#6b6b6b"
         fill-rule="evenodd"
         stroke="none"
         id="path23" />
      <path
         d="M 2,13.45 2.1,13.5 H 2.05 L 2,13.45 M 57.55,3 56.1,4.7 H 54.5 L 56.05,3 h 1.5 M 32.45,4.75 H 27.5 l 0.8,-0.8 1,-0.95 h 4.4 l -1.25,1.75 m -6.05,0 H 23.7 Q 24.75,3.7 25.75,3 h 2 L 26.4,4.75 m -16.3,0 H 8.3 L 10.1,3 h 0.45 l 0.5,0.5 -0.95,1.25 m 42.3,4.05 -1.65,1.9 h -0.9 v 0.05 h -0.5 q 0.1,-0.35 1.5,-1.95 h 1.55 m -25,1.95 H 22.95 Q 23.1,10 24,8.8 h 5.2 l -1.8,1.95 m -6.35,0 h -2.2 l 1.4,-1.95 h 2.7 l -1.9,1.95 m -16.5,0 H 4 L 4.95,9.5 5.3,9.4 H 5.35 L 5.75,8.8 H 6.4 L 4.55,10.75 M 55.2,5.7 54.8,6.15 53.3,7.8 h -1.55 l 1,-1.15 0.8,-0.9 H 55.1 V 5.7 h 0.1 M 30.05,7.8 h -5.3 L 26.6,5.7 h 5.1 l -1.65,2.1 m -6.2,0 h -2.8 L 22.8,5.7 h 2.85 l -1.8,2.1 M 7.3,7.8 H 5.9 V 7.3 L 7.45,5.65 9.3,5.7 7.45,7.65 7.3,7.8"
         fill="#ffffff"
         fill-rule="evenodd"
         stroke="none"
         id="path24" />
    </g>
    <g
       id="sprite3">
      <use
         ffdec:characterId="815"
         height="21.299999"
         width="41.349998"
         xlink:href="#shape3"
         id="use24" />
    </g>
    <g
       id="shape3">
      <path
         d="m 41.2,2.8 -0.05,3.9 v 8.15 0.4 l 0.05,4.7 0.05,0.35 -0.3,0.15 -0.55,0.2 -2.45,0.65 H 3.4 L 0.95,20.65 0.4,20.45 0.1,20.3 0.15,19.95 0.2,15.25 V 14.85 6.7 L 0.15,2.8 0,1 Q 0.8,0.25 4.15,0 H 37.2 q 3.35,0.25 4.15,1 L 41.2,2.8 M 30,4.75 h 5.95 l 1,-1.3 L 37.45,3 H 37.2 31.05 24.3 21.8 20.8 4.15 3.9 l 0.5,0.45 1,1.3 h 7.4 V 4.7 h 1.8 v 0.05 h 2.95 V 4.7 h 1.05 0.25 v 0.05 h 1.2 2.45 7.5 M 38.6,3.7 37.2,4.95 37,5.05 36.8,5.25 q -0.1,0 -0.15,0.1 l -0.1,1.35 v 0.1 2.35 l -0.1,0.8 q -0.15,1.6 -0.15,5.3 v 0.1 0.1 l 0.6,0.55 0.3,0.45 h 0.05 l 0.4,0.4 1,1 V 15.7 15.25 L 38.7,6.7 38.9,3.4 38.6,3.7 m -2.95,2 V 5.65 l -6.5,0.05 h -7.7 -1.1 L 21.4,5.75 H 19 17.3 12.8 V 5.7 L 5.7,5.65 5.85,6.7 5.9,15.25 v 0.05 h 0.45 2.7 2.25 7.65 8.6 2.25 5.65 V 15.25 L 35.5,8.2 V 6.7 l 0.15,-1 M 25.25,18.25 H 27.2 37.35 Q 36.6,17.6 36.4,17 L 36.05,16.9 H 36 L 35.6,16.3 H 28.95 26.75 17.8 10.3 8 5.75 l -0.4,0.6 H 5.3 L 4.95,17 4,18.25 H 6 8.55 12.8 V 18.2 h 1.8 v 0.05 h 0.75 2.2 V 18.2 h 1.3 v 0.05 h 6.4 M 2.45,3.4 2.65,6.7 2.7,15.25 v 0.45 2.15 l 1,-1 0.4,-0.4 H 4.15 L 4.45,16 5.05,15.45 v -0.1 -0.1 L 4.9,9.95 4.8,9.15 V 6.7 L 4.7,5.35 4.55,5.25 4.35,5.05 4.15,4.95 2.45,3.4"
         fill="#6b6b6b"
         fill-rule="evenodd"
         stroke="none"
         id="path25" />
      <path
         d="M 30,4.75 H 22.5 L 24.05,3.2 24.3,3 h 6.75 V 3.1 L 30,4.75 m -9.95,0 h -1.2 V 4.7 H 18.6 L 20.8,3 h 1 L 20.05,4.75 M 36.55,6.8 V 6.7 l 0.1,-1.35 Q 36.7,5.25 36.8,5.25 L 37,5.05 37.2,4.95 38.6,3.7 36.55,6.8 m -7.4,-1.1 -7,6.75 -3.2,2.85 H 11.3 l 1.65,-1.6 5.6,-5.25 2.75,-2.6 0.1,-0.1 h 0.05 V 5.7 h 7.7 m -1.6,9.6 2.1,-2.6 6,-7 -0.15,1 v 1.5 l -2,2.55 -3.7,4.55 H 27.55 M 19,5.75 13.15,11.4 9.05,15.3 h -2.7 l 6.4,-5.75 4.55,-3.8 H 19 m 6.25,12.5 1.5,-1.95 h 2.2 L 27.2,18.25 H 25.25 M 17.8,16.3 15.35,18.25 H 14.6 V 18.2 h -1.8 v 0.05 H 8.55 L 10.3,16.3 h 7.5 M 8,16.3 6,18.25 H 4 L 4.95,17 5.3,16.9 h 0.05 l 0.4,-0.6 H 8"
         fill="#ffffff"
         fill-rule="evenodd"
         stroke="none"
         id="path26" />
    </g>
    <g
       id="sprite4">
      <use
         ffdec:characterId="813"
         height="7.6500001"
         width="2.8"
         xlink:href="#shape4"
         id="use26" />
    </g>
    <g
       id="shape4">
      <path
         d="M 0.55,0.15 Q 0.75,0 1,0 H 1.35 Q 2.3,0.1 2.8,1.25 v 5.2 Q 2.3,7.5 1.35,7.65 H 1 L 0.55,7.5 0,6.85 V 3.7 0.8 L 0.55,0.15"
         fill="#6b6b6b"
         fill-rule="evenodd"
         stroke="none"
         id="path27" />
    </g>
    <g
       id="sprite5"
       transform="translate(5.4,4)">
      <use
         ffdec:characterId="43"
         height="8"
         transform="translate(-5.4,-4)"
         width="10.8"
         xlink:href="#shape5"
         id="use27" />
    </g>
    <g
       id="shape5"
       transform="translate(5.4,4)">
      <path
         d="m 2.9,-0.35 q 0,-1.25 1.25,-1.25 1.25,0 1.25,1.2 0,1.3 -1.25,1.3 Q 3.6,0.9 3.25,0.5 2.9,0.15 2.9,-0.35 m 0.35,-2.3 q 0,0.55 -0.35,0.9 -0.4,0.45 -1,0.45 -1.35,0 -1.35,-1.4 0,-1.3 1.35,-1.3 1.35,0 1.35,1.35 m -3.1,1.9 h 0.2 q 2.6,0.1 2.6,2.8 l -0.3,1 Q 2.05,4 0.45,4 H 0.35 0.15 0.1 -0.45 q -1.6,0 -2.2,-0.95 l -0.3,-1 q 0,-2.8 2.8,-2.8 h 0.3 M -1.55,-4 q 1.35,0 1.35,1.35 0,0.55 -0.4,0.9 -0.4,0.45 -0.95,0.45 -1.4,0 -1.4,-1.4 0,-1.3 1.4,-1.3 m -2.6,2.4 q 1.25,0 1.25,1.25 0,0.5 -0.35,0.85 -0.35,0.4 -0.9,0.4 -1.25,0 -1.25,-1.3 0,-1.2 1.25,-1.2"
         fill="#6b6b6b"
         fill-rule="evenodd"
         stroke="none"
         id="path28" />
    </g>
    <g
       id="sprite6"
       transform="translate(4.1,8.6)">
      <use
         ffdec:characterId="827"
         height="13.1"
         transform="translate(-4.1,-6.55)"
         width="8.25"
         xlink:href="#shape6"
         id="use28" />
    </g>
    <g
       id="shape6"
       transform="translate(4.1,6.55)">
      <path
         d="m 4.15,-6.55 q -1,2.6 -3.3,6.6 L 3.25,2.5 2.8,2.65 0.5,0.7 -0.05,1.55 q -3,5 -3.55,5 H -3.95 L -4.05,6.45 -4.1,6.2 q 0,-0.45 3.1,-5.25 l 0.65,-1 -2.1,-1.8 q 0,-1.2 2.05,0.7 l 0.5,0.45 4.05,-5.85"
         fill="#ffffff"
         fill-rule="evenodd"
         stroke="none"
         id="path29" />
    </g>
    <g
       id="sprite7"
       transform="translate(4.1,8.6)">
      <use
         ffdec:characterId="827"
         height="13.1"
         transform="translate(-4.1,-6.55)"
         width="8.25"
         xlink:href="#shape6"
         id="use29" />
    </g>
  </defs>
</svg>
