<?xml version="1.0" encoding="UTF-8" standalone="no"?>
<svg
   ffdec:objectType="frame"
   height="120.15"
   width="134.04179"
   version="1.1"
   id="svg45"
   sodipodi:docname="1.svg"
   xmlns:inkscape="http://www.inkscape.org/namespaces/inkscape"
   xmlns:sodipodi="http://sodipodi.sourceforge.net/DTD/sodipodi-0.dtd"
   xmlns:xlink="http://www.w3.org/1999/xlink"
   xmlns="http://www.w3.org/2000/svg"
   xmlns:svg="http://www.w3.org/2000/svg"
   xmlns:ffdec="https://www.free-decompiler.com/flash">
  <sodipodi:namedview
     id="namedview45"
     pagecolor="#ffffff"
     bordercolor="#000000"
     borderopacity="0.25"
     inkscape:showpageshadow="2"
     inkscape:pageopacity="0.0"
     inkscape:pagecheckerboard="0"
     inkscape:deskcolor="#d1d1d1"
     fit-margin-top="5"
     fit-margin-left="5"
     fit-margin-right="5"
     fit-margin-bottom="5" />
  <g
     transform="translate(73.29435,59.65)"
     id="g16">
    <use
       ffdec:characterId="280"
       height="25.5"
       transform="matrix(-0.7296,-1.3063,1.285,-0.7666,-70.3425,42.1333)"
       width="5.3000002"
       xlink:href="#sprite0"
       id="use1" />
    <use
       ffdec:characterId="276"
       height="40.849998"
       transform="matrix(-1.2514,0,0,1.2876,58.45,-20.3)"
       width="49.400002"
       xlink:href="#sprite1"
       id="use2" />
    <use
       ffdec:characterId="307"
       height="37.650002"
       transform="matrix(1.181,0,0,-1.348,-54.45,30.6)"
       width="49.049999"
       xlink:href="#sprite2"
       id="use3" />
    <use
       ffdec:characterId="276"
       height="40.849998"
       transform="matrix(-1.0682,0,0,0.7341,-6.15,29.75)"
       width="49.400002"
       xlink:href="#sprite3"
       id="use4" />
    <use
       ffdec:characterId="311"
       height="23.65"
       transform="matrix(-0.3817,-1.4658,-1.4245,0.3927,16.9546,1.8048)"
       width="8"
       xlink:href="#sprite4"
       id="use5" />
    <use
       ffdec:characterId="320"
       height="29.15"
       transform="matrix(1.0558,0,0,1.0137,22.7,30.4623)"
       width="34.200001"
       xlink:href="#sprite5"
       id="use6" />
    <use
       ffdec:characterId="307"
       height="37.650002"
       transform="matrix(0,-0.6501,0.9518,0,-10.4,60.5)"
       width="49.049999"
       xlink:href="#sprite6"
       id="use7" />
    <use
       ffdec:characterId="278"
       height="6.5"
       transform="matrix(1.3688,0,0,1.3688,-32.6,34.3)"
       width="13.65"
       xlink:href="#sprite7"
       id="use8" />
    <use
       ffdec:characterId="305"
       height="32.549999"
       transform="matrix(-1.0068,0,0,-1.0068,33.25,-18.15)"
       width="45"
       xlink:href="#sprite8"
       id="use9" />
    <use
       ffdec:characterId="307"
       height="37.650002"
       transform="matrix(1.0068,0,0,1.0068,-1.45,-59.35)"
       width="49.049999"
       xlink:href="#sprite6"
       id="use10" />
    <use
       ffdec:characterId="320"
       height="29.15"
       transform="matrix(0,0.8883,-1.0068,0,59.6939,-59.65)"
       width="34.200001"
       xlink:href="#sprite5"
       id="use11" />
    <use
       ffdec:characterId="286"
       height="4.9000001"
       transform="matrix(1.1865,0,0,1.1865,38.1,-53.55)"
       width="11.85"
       xlink:href="#sprite9"
       id="use12" />
    <use
       ffdec:characterId="288"
       height="48.799999"
       transform="matrix(0,1.3688,1.3688,0,-6.05,-30.8)"
       width="9.1999998"
       xlink:href="#sprite10"
       id="use13" />
    <use
       ffdec:characterId="292"
       height="15.45"
       transform="matrix(0.9679,0.9679,-0.9679,0.9679,26.8,34.3482)"
       width="7.3499999"
       xlink:href="#sprite11"
       id="use14" />
    <use
       ffdec:characterId="288"
       height="48.799999"
       transform="matrix(0,1.3688,-1.3688,0,7.55,-30.8)"
       width="9.1999998"
       xlink:href="#sprite10"
       id="use15" />
    <use
       ffdec:characterId="284"
       height="7.6999998"
       transform="matrix(0.9716,0,0,1.1401,4.45,-54.15)"
       width="9.0500002"
       xlink:href="#sprite12"
       id="use16" />
  </g>
  <defs
     id="defs45">
    <g
       id="sprite0"
       transform="translate(0,0.5)">
      <use
         ffdec:characterId="279"
         height="25.5"
         transform="translate(0,-0.5)"
         width="5.3000002"
         xlink:href="#shape0"
         id="use17" />
    </g>
    <g
       id="shape0"
       transform="translate(0,0.5)">
      <path
         d="M 2.7,-0.5 Q 5,-0.55 5,0.5 V 0.65 L 5.3,1.2 V 12.05 L 5.25,18.4 4.8,23.2 5,23.85 Q 5,25 3.45,25 L 0.65,24.65 Q 0.45,24.5 0.4,24.1 0.1,23.5 0,22.3 V 19.75 L 0.2,10.4 0.05,1.1 0.15,0.1 0.7,-0.05 Q 1.25,-0.5 2.7,-0.5 M 2.3,4.7 2.1,9.8 2.25,19.85 v 2.6 0.3 L 3.35,22.7 Q 3.05,21.15 3,18.25 L 3.05,12.05 3.1,5.8 Q 3.2,3.5 3.6,1.7 H 2.75 1.95 q 0.35,1.25 0.35,3"
         fill="#9a9a9a"
         fill-rule="evenodd"
         stroke="none"
         id="path17" />
      <path
         d="m 2.3,4.7 q 0,-1.75 -0.35,-3 H 2.75 3.6 Q 3.2,3.5 3.1,5.8 L 3.05,12.05 3,18.25 q 0.05,2.9 0.35,4.45 l -1.1,0.05 v -0.3 -2.6 L 2.1,9.8 2.3,4.7"
         fill="#b5b0ac"
         fill-rule="evenodd"
         stroke="none"
         id="path18" />
    </g>
    <g
       id="sprite1">
      <use
         ffdec:characterId="275"
         height="40.849998"
         width="49.400002"
         xlink:href="#shape1"
         id="use18" />
    </g>
    <g
       id="shape1">
      <path
         d="M 46.8,2.85 47.4,2.8 Q 46,6 45.8,8.3 L 44.85,7.1 45.5,9.25 45.75,9.8 44.95,16.7 44.3,21.35 43.55,21.3 H 3.95 V 14.4 L 4.1,7.15 3.85,3.3 h 28.6 L 46.8,2.85 m -3.25,20.75 1.1,-0.05 -0.1,1.45 0.15,7.45 q 0.15,3.05 0.45,4.9 l -13.6,-0.6 H 3.15 l 0.4,-4 0.3,-3.85 0.25,-0.3 1,-1.25 L 6,27.1 q 1.85,-0.6 2.75,-1.45 l -3.6,0.25 -1.2,0.35 V 25.7 L 3.7,24.9 3.85,23.55 43.55,23.6"
         fill="#bcbcbc"
         fill-rule="evenodd"
         stroke="none"
         id="path19" />
      <path
         d="M 46.8,2.85 32.45,3.3 H 3.85 L 4.1,7.15 3.95,14.4 v 6.9 h 39.6 L 44.3,21.35 44.95,16.7 45.75,9.8 45.5,9.25 44.85,7.1 45.8,8.3 Q 46,6 47.4,2.8 l -0.6,0.05 m 2,1.8 0.2,0.95 -0.1,0.3 q -0.35,1.6 -0.4,4.75 l -0.45,3.45 v 0.2 l -0.6,3.25 q -0.3,1.9 -0.3,5.25 l 0.65,7.35 -0.05,2.6 q -0.2,4.05 -0.65,5.85 v 0.2 l -0.45,0.95 -0.45,0.3 H 46.15 L 45.1,40.3 31.55,40.8 2.75,40.85 1.7,40.55 Q 0.55,40.5 0,39.95 L 1.5,30.4 1.45,29.3 1.85,27.5 1.5,26.35 1.8,21.45 V 13.05 4.8 L 1.85,0.6 Q 2.35,0.15 3.8,0 h 28.65 l 14.6,0.5 q 2.35,0.25 2.35,1.2 l -0.2,0.5 0.05,0.7 Q 48.8,3.8 48.8,4.65 M 43.55,23.6 3.85,23.55 3.7,24.9 3.95,25.7 v 0.55 l 1.2,-0.35 3.6,-0.25 Q 7.85,26.5 6,27.1 l -0.9,0.25 -1,1.25 -0.25,0.3 -0.3,3.85 -0.4,4 h 28.4 l 13.6,0.6 Q 44.85,35.5 44.7,32.45 L 44.55,25 l 0.1,-1.45 -1.1,0.05"
         fill="#9a9a9a"
         fill-rule="evenodd"
         stroke="none"
         id="path20" />
    </g>
    <g
       id="sprite2">
      <use
         ffdec:characterId="306"
         height="37.650002"
         width="49.049999"
         xlink:href="#shape2"
         id="use20" />
    </g>
    <g
       id="shape2">
      <path
         d="M 44,5.55 44.1,3.3 H 3.85 V 4.9 L 3.2,11.55 v 23.1 h 19.75 l -1.5,-1.45 0.05,-0.6 q 1.05,0.05 2.05,1.05 l 0.5,0.6 q 0.35,-0.35 1,-0.8 1.3,-0.9 1.7,-0.9 L 27,32.7 24.65,34.65 H 44.1 V 19.7 L 43,20.3 q -2.95,1.4 -3.35,1.75 L 39.5,21.9 42.15,19.3 q 1.2,-1.1 1.95,-1.5 V 9 L 44,5.55 m 5,30.25 -0.75,0.5 v 0.05 q 0,0.4 -2.45,0.75 v 0.15 l -0.6,0.3 -33.8,0.1 L 1.9,37.2 1.45,37.05 H 1.1 q -0.8,-0.2 -1,-0.6 L 0,35.8 Q 0.05,35.4 0.65,34.95 0.15,31.6 0.2,22.95 L 0,13.75 Q 0.05,9.4 0.4,6.35 L 0.25,4.95 Q 0,2.15 0.95,1.3 q 0,-0.85 1,-1 L 8.1,0 h 36.5 l 0.6,0.3 0.25,-0.05 0.35,0.05 v 0.05 l 3.25,0.3 V 35 L 49,35.8"
         fill="#9a9a9a"
         fill-rule="evenodd"
         stroke="none"
         id="path21" />
      <path
         d="M 44,5.55 44.1,9 v 8.8 q -0.75,0.4 -1.95,1.5 l -2.65,2.6 0.15,0.15 Q 40.05,21.7 43,20.3 l 1.1,-0.6 V 34.65 H 24.65 L 27,32.7 26.75,32.55 q -0.4,0 -1.7,0.9 -0.65,0.45 -1,0.8 l -0.5,-0.6 q -1,-1 -2.05,-1.05 l -0.05,0.6 1.5,1.45 H 3.2 V 11.55 L 3.85,4.9 V 3.3 H 44.1 L 44,5.55"
         fill="#b6b6b6"
         fill-rule="evenodd"
         stroke="none"
         id="path22" />
    </g>
    <g
       id="sprite3">
      <use
         ffdec:characterId="275"
         height="40.849998"
         width="49.400002"
         xlink:href="#shape3"
         id="use22" />
    </g>
    <g
       id="shape3">
      <path
         d="M 46.8,2.85 47.4,2.8 Q 46,6 45.8,8.3 L 44.85,7.1 45.5,9.25 45.75,9.8 44.95,16.7 44.3,21.35 43.55,21.3 H 3.95 V 14.4 L 4.1,7.15 3.85,3.3 h 28.6 L 46.8,2.85 m -3.25,20.75 1.1,-0.05 -0.1,1.45 0.15,7.45 q 0.15,3.05 0.45,4.9 l -13.6,-0.6 H 3.15 l 0.4,-4 0.3,-3.85 0.25,-0.3 1,-1.25 L 6,27.1 q 1.85,-0.6 2.75,-1.45 l -3.6,0.25 -1.2,0.35 V 25.7 L 3.7,24.9 3.85,23.55 43.55,23.6"
         fill="#c4c4c4"
         fill-rule="evenodd"
         stroke="none"
         id="path23" />
      <path
         d="M 46.8,2.85 32.45,3.3 H 3.85 L 4.1,7.15 3.95,14.4 v 6.9 h 39.6 L 44.3,21.35 44.95,16.7 45.75,9.8 45.5,9.25 44.85,7.1 45.8,8.3 Q 46,6 47.4,2.8 l -0.6,0.05 m 2,1.8 0.2,0.95 -0.1,0.3 q -0.35,1.6 -0.4,4.75 l -0.45,3.45 v 0.2 l -0.6,3.25 q -0.3,1.9 -0.3,5.25 l 0.65,7.35 -0.05,2.6 q -0.2,4.05 -0.65,5.85 v 0.2 l -0.45,0.95 -0.45,0.3 H 46.15 L 45.1,40.3 31.55,40.8 2.75,40.85 1.7,40.55 Q 0.55,40.5 0,39.95 L 1.5,30.4 1.45,29.3 1.85,27.5 1.5,26.35 1.8,21.45 V 13.05 4.8 L 1.85,0.6 Q 2.35,0.15 3.8,0 h 28.65 l 14.6,0.5 q 2.35,0.25 2.35,1.2 l -0.2,0.5 0.05,0.7 Q 48.8,3.8 48.8,4.65 M 43.55,23.6 3.85,23.55 3.7,24.9 3.95,25.7 v 0.55 l 1.2,-0.35 3.6,-0.25 Q 7.85,26.5 6,27.1 l -0.9,0.25 -1,1.25 -0.25,0.3 -0.3,3.85 -0.4,4 h 28.4 l 13.6,0.6 Q 44.85,35.5 44.7,32.45 L 44.55,25 l 0.1,-1.45 -1.1,0.05"
         fill="#6b6b6b"
         fill-rule="evenodd"
         stroke="none"
         id="path24" />
    </g>
    <g
       id="sprite4"
       transform="translate(0.75,0.75)">
      <use
         ffdec:characterId="310"
         height="23.65"
         transform="translate(-0.75,-0.75)"
         width="8"
         xlink:href="#shape4"
         id="use24" />
    </g>
    <g
       id="shape4"
       transform="translate(0.75,0.75)">
      <path
         d="m 6.4,1.45 v 1.1 L 6.5,2.85 6.35,4.2 v 7.9 Q 6.5,19.9 6.1,21.6 v 0.1 L 6,22.05 5.2,22.15 q -0.75,0 -0.9,-0.45 L 4.2,21.05 q -0.5,0 -0.7,0.3 -0.15,0.3 -0.7,0.3 -0.5,0 -1.1,-0.9 L 0.1,20.25 V 18.45 14 L 0.05,13.95 0,6.35 Q 0,2.4 0.3,0.95 L 0.25,0.9 0.2,0.55 0.45,0.25 q 0.2,-0.45 0.5,-0.1 L 2.2,0.05 q 1.7,0 1.95,0.35 l 0.3,0.15 1.1,-0.2 q 0.7,0 0.85,1.1 M 3.9,1.05 2.5,1.15 1.2,1.1 V 12.6 L 1.15,12.7 1.05,19.1 1,19.4 q 0.05,0.3 0.4,0.4 0.6,0.15 0.85,0.45 l 0.45,0.2 1,-0.2 q 1.15,0 1.3,0.35 v 0.75 L 5.15,21.4 5.2,20.95 5.25,20.3 V 6.55 L 5.05,4.95 5,1.35 q -0.9,0 -1.1,-0.3"
         fill="#9a9a9a"
         fill-rule="evenodd"
         stroke="none"
         id="path25" />
      <path
         d="m 3.9,1.05 q 0.2,0.3 1.1,0.3 l 0.05,3.6 0.2,1.6 V 20.3 L 5.2,20.95 5.15,21.4 5,21.35 V 20.6 Q 4.85,20.25 3.7,20.25 l -1,0.2 -0.45,-0.2 Q 2,19.95 1.4,19.8 1.05,19.7 1,19.4 L 1.05,19.1 1.15,12.7 1.2,12.6 V 1.1 l 1.3,0.05 1.4,-0.1"
         fill="#b4b4b4"
         fill-rule="evenodd"
         stroke="none"
         id="path26" />
      <path
         d="m 6.4,1.45 v 1.1 L 6.5,2.85 6.35,4.2 v 7.9 Q 6.5,19.9 6.1,21.6 v 0.1 L 6,22.05 5.2,22.15 q -0.75,0 -0.9,-0.45 L 4.2,21.05 q -0.5,0 -0.7,0.3 -0.15,0.3 -0.7,0.3 -0.5,0 -1.1,-0.9 L 0.1,20.25 V 18.45 14 L 0.05,13.95 0,6.35 Q 0,2.4 0.3,0.95 L 0.25,0.9 0.2,0.55 0.45,0.25 q 0.2,-0.45 0.5,-0.1 L 2.2,0.05 q 1.7,0 1.95,0.35 l 0.3,0.15 1.1,-0.2 q 0.7,0 0.85,1.1 z"
         fill="none"
         stroke="#9a9a9a"
         stroke-linecap="round"
         stroke-linejoin="round"
         stroke-width="1.5"
         id="path27" />
    </g>
    <g
       id="sprite5"
       transform="translate(0,-0.9)">
      <use
         ffdec:characterId="319"
         height="29.15"
         transform="translate(0,0.9)"
         width="34.200001"
         xlink:href="#shape5"
         id="use27" />
    </g>
    <g
       id="shape5"
       transform="translate(0,-0.9)">
      <path
         d="m 31.15,4.3 -0.2,2 -0.1,6.65 0.05,7.9 q 0.15,3.6 0.55,5.6 l -4,-0.15 -24,0.05 V 23.75 18.3 Q 4.35,16.8 5.4,16 4.25,16 3.45,16.6 L 3.4,4.2 6.15,4.45 H 19.4 l -0.7,0.6 -2.2,2.1 q 1.35,-0.5 2.75,-1.75 l 0.9,-0.95 H 22.8 Q 28.2,4.6 31.15,4.3"
         fill="#b6b6b6"
         fill-rule="evenodd"
         stroke="none"
         id="path28" />
      <path
         d="M 31.15,4.3 Q 28.2,4.6 22.8,4.45 h -2.65 l -0.9,0.95 q -1.4,1.25 -2.75,1.75 l 2.2,-2.1 0.7,-0.6 H 6.15 L 3.4,4.2 3.45,16.6 Q 4.25,16 5.4,16 4.35,16.8 3.45,18.3 v 5.45 2.6 l 24,-0.05 4,0.15 q -0.4,-2 -0.55,-5.6 l -0.05,-7.9 0.1,-6.65 0.2,-2 m 2.7,-2.45 v 11.65 9.7 q 0.1,2.3 0.35,4.05 l -0.35,1.15 0.05,0.3 q 0,0.65 -1.2,1.2 L 3,29.95 2.25,30.05 q -1.25,0 -1.5,-0.6 L 0.7,28.85 0.5,28.2 0,26.45 V 23.75 3.35 L 0.15,2.5 V 2.45 Q 0,2.3 0,1.85 0,1.3 0.35,1.1 L 0.85,0.9 H 33.8 l 0.05,0.95"
         fill="#6b6b6b"
         fill-rule="evenodd"
         stroke="none"
         id="path29" />
    </g>
    <g
       id="sprite6">
      <use
         ffdec:characterId="306"
         height="37.650002"
         width="49.049999"
         xlink:href="#shape6"
         id="use29" />
    </g>
    <g
       id="shape6">
      <path
         d="M 44,5.55 44.1,3.3 H 3.85 V 4.9 L 3.2,11.55 v 23.1 h 19.75 l -1.5,-1.45 0.05,-0.6 q 1.05,0.05 2.05,1.05 l 0.5,0.6 q 0.35,-0.35 1,-0.8 1.3,-0.9 1.7,-0.9 L 27,32.7 24.65,34.65 H 44.1 V 19.7 L 43,20.3 q -2.95,1.4 -3.35,1.75 L 39.5,21.9 42.15,19.3 q 1.2,-1.1 1.95,-1.5 V 9 L 44,5.55 m 5,30.25 -0.75,0.5 v 0.05 q 0,0.4 -2.45,0.75 v 0.15 l -0.6,0.3 -33.8,0.1 L 1.9,37.2 1.45,37.05 H 1.1 q -0.8,-0.2 -1,-0.6 L 0,35.8 Q 0.05,35.4 0.65,34.95 0.15,31.6 0.2,22.95 L 0,13.75 Q 0.05,9.4 0.4,6.35 L 0.25,4.95 Q 0,2.15 0.95,1.3 q 0,-0.85 1,-1 L 8.1,0 h 36.5 l 0.6,0.3 0.25,-0.05 0.35,0.05 v 0.05 l 3.25,0.3 V 35 L 49,35.8"
         fill="#6b6b6b"
         fill-rule="evenodd"
         stroke="none"
         id="path30" />
      <path
         d="M 44,5.55 44.1,9 v 8.8 q -0.75,0.4 -1.95,1.5 l -2.65,2.6 0.15,0.15 Q 40.05,21.7 43,20.3 l 1.1,-0.6 V 34.65 H 24.65 L 27,32.7 26.75,32.55 q -0.4,0 -1.7,0.9 -0.65,0.45 -1,0.8 l -0.5,-0.6 q -1,-1 -2.05,-1.05 l -0.05,0.6 1.5,1.45 H 3.2 V 11.55 L 3.85,4.9 V 3.3 H 44.1 L 44,5.55"
         fill="#b6b6b6"
         fill-rule="evenodd"
         stroke="none"
         id="path31" />
    </g>
    <g
       id="sprite7">
      <use
         ffdec:characterId="277"
         height="6.5"
         width="13.65"
         xlink:href="#shape7"
         id="use31" />
    </g>
    <g
       id="shape7">
      <path
         d="m 13.65,2.5 q 0.1,2.75 -0.2,3.4 l 0.1,0.2 -0.3,0.4 H 0.85 L 0.7,6.4 H 0.65 Q 0,6.4 0.15,3.4 -0.15,1.4 0.1,0.7 V 0.65 l 0.45,-0.5 h 3.3 l 0.5,0.05 h 7.25 l 1.3,0.1 Q 13,-0.1 13.2,0 13.65,0.2 13.65,2.5 M 12.8,1 11.6,1.05 1.15,1.1 1.2,1.8 1.15,3.4 V 4.95 L 1.1,5.65 H 13 Q 12.75,4.75 12.75,1.95 L 12.8,1 M 11,2.05 11.1,2.3 q 0,0.5 -1.05,0.6 L 4.9,3 3.75,2.9 2.45,2.95 2.2,2.75 2.05,2.35 q 0,-0.7 0.7,-0.7 H 7.1 l 3.65,0.2 0.25,0.2 m 0.5,2.5 -0.3,0.35 H 8.75 L 8.35,4.7 8.45,4.4 11.15,4.3 11.5,4.55 M 12.25,3.75 11.9,4.1 6.45,4 6.4,3.75 q 0,-0.2 0.35,-0.25 l 2.4,-0.1 h 2.75 l 0.35,0.35 M 7.65,4.55 7.15,4.9 H 4.55 L 4.3,4.95 2.55,4.9 2.45,4.85 2.2,4.65 2.55,4.3 h 4.6 l 0.5,0.25 M 5.1,4.05 4.95,4.1 H 2.65 L 2.4,3.75 2.65,3.6 h 2.4 l 0.1,0.25 -0.05,0.2"
         fill="#6b6b6b"
         fill-rule="evenodd"
         stroke="none"
         id="path32" />
      <path
         d="M 5.1,4.05 5.15,3.85 5.05,3.6 H 2.65 L 2.4,3.75 2.65,4.1 h 2.3 L 5.1,4.05 M 7.65,4.55 7.15,4.3 H 2.55 L 2.2,4.65 2.45,4.85 2.55,4.9 4.3,4.95 4.55,4.9 h 2.6 L 7.65,4.55 M 12.25,3.75 11.9,3.4 H 9.15 L 6.75,3.5 Q 6.4,3.55 6.4,3.75 L 6.45,4 11.9,4.1 12.25,3.75 M 11.5,4.55 11.15,4.3 8.45,4.4 8.35,4.7 8.75,4.9 H 11.2 L 11.5,4.55 M 11,2.05 10.75,1.85 7.1,1.65 H 2.75 q -0.7,0 -0.7,0.7 L 2.2,2.75 2.45,2.95 3.75,2.9 4.9,3 10.05,2.9 Q 11.1,2.8 11.1,2.3 L 11,2.05 M 12.8,1 12.75,1.95 q 0,2.8 0.25,3.7 H 1.1 L 1.15,4.95 V 3.4 L 1.2,1.8 1.15,1.1 11.6,1.05 12.8,1"
         fill="#c4c1a0"
         fill-rule="evenodd"
         stroke="none"
         id="path33" />
    </g>
    <g
       id="sprite8">
      <use
         ffdec:characterId="304"
         height="32.549999"
         width="45"
         xlink:href="#shape8"
         id="use33" />
    </g>
    <g
       id="shape8">
      <path
         d="m 43.85,7.5 q -2.25,9.15 -2.25,9.65 l 0.75,6.6 0.75,6.5 -0.3,1.1 -0.45,0.55 -0.05,0.05 q -0.4,0.6 -1.15,0.6 L 2.7,32.4 2.25,32.1 1.55,32.25 Q 0.05,32.25 0,30.6 0,30.1 0.15,29.85 V 13.8 L 0.3,4.65 0.1,2.3 Q 0.05,0.7 0.8,0.15 1.25,-0.15 5.9,0.1 l 6.45,0.7 Q 14.8,1.15 15.5,1.95 H 35.9 L 44.2,2.4 Q 45,2.65 45,3.25 L 44.9,3.65 45,4.5 44.9,5.9 43.85,7.5 M 43.15,4.3 35.9,4.5 H 21.7 q 0.7,1.25 0.55,3.55 l -0.5,5.8 -0.15,6.15 -0.25,4.3 v 5.55 h 18.9 Q 39.75,28.1 39.3,25.1 l -0.85,-7 -0.65,0.3 q -2,0.95 -2.4,1.55 -0.55,-0.15 -0.7,-0.4 L 37,17.8 q 0.95,-0.7 1.65,-1 L 40.3,11.6 Q 41.9,7 43.1,4.75 L 43.15,4.3 m -22.5,0.2 h -4.6 L 16.1,6 15.5,6.3 15.1,4.3 14.4,3.75 12.85,3.45 2.9,2.7 3.05,30 6.6,29.85 h 13.75 l -0.35,-0.5 0.2,-13.6 -0.05,-1.9 q 0,-2.45 0.25,-4.6 L 20.65,4.5"
         fill="#9a9a9a"
         fill-rule="evenodd"
         stroke="none"
         id="path34" />
      <path
         d="M 20.65,4.5 20.4,9.25 q -0.25,2.15 -0.25,4.6 l 0.05,1.9 -0.2,13.6 0.35,0.5 H 6.6 L 3.05,30 2.9,2.7 l 9.95,0.75 1.55,0.3 0.7,0.55 0.4,2 L 16.1,6 16.05,4.5 h 4.6 M 43.15,4.3 43.1,4.75 Q 41.9,7 40.3,11.6 l -1.65,5.2 q -0.7,0.3 -1.65,1 l -2.3,1.75 q 0.15,0.25 0.7,0.4 0.4,-0.6 2.4,-1.55 l 0.65,-0.3 0.85,7 q 0.45,3 0.95,4.75 H 21.35 V 24.3 l 0.25,-4.3 0.15,-6.15 0.5,-5.8 Q 22.4,5.75 21.7,4.5 h 14.2 l 7.25,-0.2"
         fill="#bcbcbc"
         fill-rule="evenodd"
         stroke="none"
         id="path35" />
    </g>
    <g
       id="sprite9">
      <use
         ffdec:characterId="285"
         height="4.9000001"
         width="11.85"
         xlink:href="#shape9"
         id="use35" />
    </g>
    <g
       id="shape9">
      <path
         d="M 10.55,1.55 H 1.3 l 0.05,0.4 4.5,0.1 2.65,0.05 h 2 L 10.55,1.55 M 11.15,0 q 0.3,0 0.5,0.7 l 0.1,0.1 -0.05,0.05 0.15,2.4 v 0.8 L 11.5,4.55 Q 11.35,5 10.85,4.9 H 2.45 L 0.85,4.75 H 0.7 Q -0.15,4.75 0.05,2.7 0.05,1.65 0.2,1.05 L 0.15,0.85 q 0,-0.5 0.7,-0.7 H 10.9 L 11.15,0 m -0.7,3.25 v -0.6 l -9.1,0.2 v 0.7 l 1.1,0.05 h 7.95 l 0.05,-0.35"
         fill="#6b6b6b"
         fill-rule="evenodd"
         stroke="none"
         id="path36" />
      <path
         d="M 10.55,1.55 10.5,2.1 h -2 L 5.85,2.05 1.35,1.95 1.3,1.55 h 9.25"
         fill="#878787"
         fill-rule="evenodd"
         stroke="none"
         id="path37" />
      <path
         d="M 10.45,3.25 10.4,3.6 H 2.45 L 1.35,3.55 v -0.7 l 9.1,-0.2 v 0.6"
         fill="#777777"
         fill-rule="evenodd"
         stroke="none"
         id="path38" />
    </g>
    <g
       id="sprite10">
      <use
         ffdec:characterId="287"
         height="48.799999"
         width="9.1999998"
         xlink:href="#shape10"
         id="use38" />
    </g>
    <g
       id="shape10">
      <path
         d="M 5.65,0.05 Q 8.4,0.2 8.95,1.1 L 9.2,18.55 v 9.4 2.3 L 8.95,47.6 v 0.1 H 8.9 q -0.6,0.9 -3.25,1.05 l -1,0.05 H 4.55 L 3.45,48.75 Q 0.8,48.6 0.25,47.7 L 0.1,38.2 0.05,31.55 0,27.95 0.05,18.55 0.25,1.1 Q 0.8,0.2 3.45,0.05 L 4.55,0 h 0.1 l 1,0.05 m 0.55,27 V 26.7 18.55 L 6.25,11.8 6.4,7 V 6.55 Q 6.35,5.2 6.55,4.2 L 6.7,2.8 H 6.15 L 5.05,2.85 H 4.6 4.35 4.15 3.4 L 2.5,2.8 2.65,4.2 2.8,6.55 V 7 L 2.95,11.8 3,18.55 v 8.15 1.5 2.05 3.55 1.3 2.45 0.65 H 2.95 L 2.8,41.8 v 0.45 L 2.65,44.6 2.5,46 3.4,45.95 h 0.75 0.45 0.15 0.3 0.3 L 6.15,46 H 6.7 L 6.55,44.6 Q 6.35,43.6 6.4,42.25 V 41.8 L 6.3,38.2 H 6.25 L 6.2,37.55 v -2.45 -3.65 -1.2 -3.2"
         fill="#6b6b6b"
         fill-rule="evenodd"
         stroke="none"
         id="path39" />
      <path
         d="m 6.2,27.05 v 3.2 1.2 l -0.25,1.6 q -0.9,5.8 -0.9,8.5 l 0.3,4.4 H 5.05 4.75 L 4.65,45.4 Q 4.5,44.55 4.5,43.05 4.5,39.1 5.25,34.2 L 6.2,27.05 M 3,33.8 V 30.25 28.2 l 0.2,-1.3 1,-6.35 V 7.65 L 4.35,2.85 H 4.6 L 4.75,7.8 V 20.7 L 4.8,21 3.9,27.8 3,33.8"
         fill="#989898"
         fill-rule="evenodd"
         stroke="none"
         id="path40" />
      <path
         d="M 4.6,2.85 H 5.05 L 6.15,2.8 H 6.7 L 6.55,4.2 Q 6.35,5.2 6.4,6.55 V 7 L 6.25,11.8 6.2,18.55 v 8.15 0.35 L 5.25,34.2 q -0.75,4.9 -0.75,8.85 0,1.5 0.15,2.35 l 0.1,0.55 H 4.6 4.15 3.4 L 2.5,46 2.65,44.6 2.8,42.25 V 41.8 L 2.95,38.2 H 3 V 37.55 35.1 33.8 L 3.9,27.8 4.8,21 4.75,20.7 V 7.8 L 4.6,2.85 m 1.6,28.6 v 3.65 2.45 L 6.25,38.2 H 6.3 l 0.1,3.6 v 0.45 Q 6.35,43.6 6.55,44.6 L 6.7,46 H 6.15 l -0.8,-0.05 -0.3,-4.4 q 0,-2.7 0.9,-8.5 L 6.2,31.45 M 3,28.2 V 26.7 18.55 L 2.95,11.8 2.8,7 V 6.55 L 2.65,4.2 2.5,2.8 3.4,2.85 h 0.75 0.2 L 4.2,7.65 v 12.9 L 3.2,26.9 3,28.2"
         fill="#b2a69a"
         fill-rule="evenodd"
         stroke="none"
         id="path41" />
    </g>
    <g
       id="sprite11"
       transform="translate(0.75,0.75)">
      <use
         ffdec:characterId="291"
         height="15.45"
         transform="translate(-0.75,-0.75)"
         width="7.3499999"
         xlink:href="#shape11"
         id="use41" />
    </g>
    <g
       id="shape11"
       transform="translate(0.75,0.75)">
      <path
         d="m 5.8,9.2 v 2.45 1.2 q 0,0.75 -0.45,0.75 l -0.3,-0.1 -0.5,0.05 -3.2,0.05 -0.25,0.15 -0.35,0.2 q -0.9,0 -0.7,-2.95 L 0.1,3.35 0.2,2.9 0.05,1.55 Q 0.05,0.2 0.45,0.1 L 0.65,0 H 1.8 L 5.15,0.1 5.75,0.45 5.85,0.6 5.8,0.75 V 5.3 L 4.95,0.9 1.8,1.05 H 1.15 L 1.2,2.05 1.05,3.85 1.2,11.6 1.25,12.5 2.6,12.45 3.9,12.4 4.95,12.45 5.8,9.2"
         fill="#6b6b6b"
         fill-rule="evenodd"
         stroke="none"
         id="path42" />
      <path
         d="M 5.8,5.3 V 9.2 L 4.95,12.45 3.9,12.4 2.6,12.45 1.25,12.5 1.2,11.6 1.05,3.85 1.2,2.05 1.15,1.05 H 1.8 L 4.95,0.9 5.8,5.3"
         fill="#ada59f"
         fill-rule="evenodd"
         stroke="none"
         id="path43" />
      <path
         d="m 5.8,9.2 v 2.45 1.2 q 0,0.75 -0.45,0.75 l -0.3,-0.1 -0.5,0.05 -3.2,0.05 -0.25,0.15 -0.35,0.2 q -0.9,0 -0.7,-2.95 L 0.1,3.35 0.2,2.9 0.05,1.55 Q 0.05,0.2 0.45,0.1 L 0.65,0 H 1.8 L 5.15,0.1 5.75,0.45 5.85,0.6 5.8,0.75 V 5.3 Z"
         fill="none"
         stroke="#6b6b6b"
         stroke-linecap="round"
         stroke-linejoin="round"
         stroke-width="1.5"
         id="path44" />
    </g>
    <g
       id="sprite12">
      <use
         ffdec:characterId="283"
         height="7.6999998"
         width="9.0500002"
         xlink:href="#shape12"
         id="use44" />
    </g>
    <g
       id="shape12">
      <path
         d="M 8.9,2.35 V 6.9 L 9.05,7.15 8.55,7.6 6.2,7.7 H 1.6 L 0.1,7.45 0,7.15 Q 0,6.9 0.2,6.8 0,5.8 0.1,3.65 0.1,1.95 0.25,1.05 L 0.15,0.75 Q 0.15,0.3 0.5,0.25 L 0.75,0 1.05,0.2 h 6.5 L 8.3,0.35 q 0.25,-0.3 0.4,0.1 L 8.95,1.85 8.9,2.35 M 5.7,3.1 6.1,4.05 5.8,4.3 H 5.05 L 5.2,5.25 h 1 Q 7,5.5 7,5.65 7,6.15 6.35,6.1 H 2.55 L 2.15,5.65 2.55,5.25 H 4 Q 4,4.65 4.15,4.3 H 3.4 L 3.1,4.05 3.5,3.1 Q 4,2.35 4.35,2.3 L 4.6,2.4 4.85,2.3 Q 5.2,2.35 5.7,3.1 M 7.85,1.35 7.05,1.4 H 1.3 L 1.4,3.65 1.35,5.7 1.25,6.6 H 1.6 6.2 7.9 Q 7.75,5.75 7.85,4.2 V 1.35"
         fill="#6b6b6b"
         fill-rule="evenodd"
         stroke="none"
         id="path45" />
    </g>
  </defs>
</svg>
