<?xml version="1.0" encoding="UTF-8" standalone="no"?>
<svg
   ffdec:objectType="frame"
   height="157.5"
   width="81.75"
   version="1.1"
   id="svg37"
   sodipodi:docname="2.svg"
   xmlns:inkscape="http://www.inkscape.org/namespaces/inkscape"
   xmlns:sodipodi="http://sodipodi.sourceforge.net/DTD/sodipodi-0.dtd"
   xmlns:xlink="http://www.w3.org/1999/xlink"
   xmlns="http://www.w3.org/2000/svg"
   xmlns:svg="http://www.w3.org/2000/svg"
   xmlns:ffdec="https://www.free-decompiler.com/flash">
  <sodipodi:namedview
     id="namedview37"
     pagecolor="#ffffff"
     bordercolor="#000000"
     borderopacity="0.25"
     inkscape:showpageshadow="2"
     inkscape:pageopacity="0.0"
     inkscape:pagecheckerboard="0"
     inkscape:deskcolor="#d1d1d1"
     fit-margin-top="5"
     fit-margin-left="5"
     fit-margin-right="5"
     fit-margin-bottom="5" />
  <g
     transform="translate(40.85,73.2)"
     id="g21">
    <use
       ffdec:characterId="2476"
       height="60.200001"
       transform="matrix(1.0896,0,0,0.615,-32.8608,-36.0265)"
       width="60.25"
       xlink:href="#sprite0"
       id="use1" />
    <use
       ffdec:characterId="2477"
       height="157.60001"
       transform="translate(-40.85,-73.3)"
       width="81.75"
       xlink:href="#shape1"
       id="use2" />
    <use
       ffdec:characterId="697"
       height="2.3"
       transform="translate(-32.05,-67.95)"
       width="2.55"
       xlink:href="#sprite1"
       id="use3" />
    <use
       ffdec:characterId="707"
       height="2.3"
       transform="translate(-24.35,-67.95)"
       width="2.55"
       xlink:href="#sprite2"
       id="use4" />
    <use
       ffdec:characterId="708"
       height="2.3"
       transform="translate(-16.65,-67.95)"
       width="2.55"
       xlink:href="#sprite3"
       id="use5" />
    <use
       ffdec:characterId="697"
       height="2.3"
       transform="translate(6.45,-67.95)"
       width="2.55"
       xlink:href="#sprite1"
       id="use6" />
    <use
       ffdec:characterId="707"
       height="2.3"
       transform="translate(-8.95,-67.95)"
       width="2.55"
       xlink:href="#sprite2"
       id="use7" />
    <use
       ffdec:characterId="708"
       height="2.3"
       transform="translate(-1.25,-67.95)"
       width="2.55"
       xlink:href="#sprite3"
       id="use8" />
    <use
       ffdec:characterId="707"
       height="2.3"
       transform="translate(14.15,-67.95)"
       width="2.55"
       xlink:href="#sprite2"
       id="use9" />
    <use
       ffdec:characterId="708"
       height="2.3"
       transform="translate(21.85,-67.95)"
       width="2.55"
       xlink:href="#sprite3"
       id="use10" />
    <use
       ffdec:characterId="707"
       height="2.3"
       transform="translate(29.55,-67.95)"
       width="2.55"
       xlink:href="#sprite2"
       id="use11" />
    <use
       ffdec:characterId="697"
       height="2.3"
       transform="matrix(-1,0,0,1,32.05,12.15)"
       width="2.55"
       xlink:href="#sprite1"
       id="use12" />
    <use
       ffdec:characterId="707"
       height="2.3"
       transform="matrix(-1,0,0,1,24.35,12.15)"
       width="2.55"
       xlink:href="#sprite2"
       id="use13" />
    <use
       ffdec:characterId="708"
       height="2.3"
       transform="matrix(-1,0,0,1,16.65,12.15)"
       width="2.55"
       xlink:href="#sprite3"
       id="use14" />
    <use
       ffdec:characterId="697"
       height="2.3"
       transform="matrix(-1,0,0,1,-6.45,12.15)"
       width="2.55"
       xlink:href="#sprite1"
       id="use15" />
    <use
       ffdec:characterId="707"
       height="2.3"
       transform="matrix(-1,0,0,1,8.95,12.15)"
       width="2.55"
       xlink:href="#sprite2"
       id="use16" />
    <use
       ffdec:characterId="708"
       height="2.3"
       transform="matrix(-1,0,0,1,1.25,12.15)"
       width="2.55"
       xlink:href="#sprite3"
       id="use17" />
    <use
       ffdec:characterId="707"
       height="2.3"
       transform="matrix(-1,0,0,1,-14.15,12.15)"
       width="2.55"
       xlink:href="#sprite2"
       id="use18" />
    <use
       ffdec:characterId="708"
       height="2.3"
       transform="matrix(-1,0,0,1,-21.85,12.15)"
       width="2.55"
       xlink:href="#sprite3"
       id="use19" />
    <use
       ffdec:characterId="707"
       height="2.3"
       transform="matrix(-1,0,0,1,-29.55,12.15)"
       width="2.55"
       xlink:href="#sprite2"
       id="use20" />
    <use
       ffdec:characterId="44"
       height="8"
       transform="matrix(1,0,0,1.275,-5.25,49.5)"
       width="10.8"
       xlink:href="#sprite4"
       id="use21" />
  </g>
  <defs
     id="defs37">
    <g
       id="sprite0"
       transform="translate(33.05,30.45)">
      <use
         ffdec:characterId="2474"
         height="60.200001"
         transform="translate(-33.05,-30.45)"
         width="60.25"
         xlink:href="#shape0"
         id="use22" />
    </g>
    <g
       id="shape0"
       transform="translate(33.05,30.45)">
      <path
         d="m 13.65,-20.35 h -33.1 q -1.45,0 -2.45,1.05 -1.05,1 -1.05,2.45 V 16.2 q 0,1.45 1.05,2.5 1,1 2.45,1 h 33.1 q 1.45,0 2.5,-1 1,-1.05 1,-2.5 v -33.05 q 0,-1.45 -1,-2.45 -1.05,-1.05 -2.5,-1.05 m -10,9.9 h -13.1 q -1.45,0 -2.45,1.05 -1.05,1 -1.05,2.45 v 13.1 q 0,1.45 1.05,2.5 1,1 2.45,1 h 13.1 q 1.45,0 2.5,-1 1,-1.05 1,-2.5 v -13.1 q 0,-1.45 -1,-2.45 -1.05,-1.05 -2.5,-1.05 m 16.55,-13 v 46.2 h -46.25 v -46.2 H 20.2 m -10.05,10.1 V 12.7 h -26.1 v -26.05 h 26.1 m -10,9.9 v 6.1 h -6.1 v -6.1 h 6.1"
         fill="#4d9293"
         fill-rule="evenodd"
         stroke="none"
         id="path22" />
      <path
         d="m 23.7,-30.45 q 1.45,0 2.5,1.05 1,1 1,2.45 v 53.2 q 0,1.45 -1,2.5 -1.05,1 -2.5,1 h -53.25 q -1.45,0 -2.45,-1 -1.05,-1.05 -1.05,-2.5 v -53.2 q 0,-1.45 1.05,-2.45 1,-1.05 2.45,-1.05 H 23.7 m -23.55,27 h -6.1 v 6.1 h 6.1 v -6.1 m 10,-9.9 h -26.1 V 12.7 h 26.1 v -26.05 m 10.05,-10.1 h -46.25 v 46.2 H 20.2 v -46.2 m -16.55,13 q 1.45,0 2.5,1.05 1,1 1,2.45 v 13.1 q 0,1.45 -1,2.5 -1.05,1 -2.5,1 h -13.1 q -1.45,0 -2.45,-1 -1.05,-1.05 -1.05,-2.5 v -13.1 q 0,-1.45 1.05,-2.45 1,-1.05 2.45,-1.05 h 13.1 m 10,-9.9 q 1.45,0 2.5,1.05 1,1 1,2.45 V 16.2 q 0,1.45 -1,2.5 -1.05,1 -2.5,1 h -33.1 q -1.45,0 -2.45,-1 -1.05,-1.05 -1.05,-2.5 v -33.05 q 0,-1.45 1.05,-2.45 1,-1.05 2.45,-1.05 h 33.1"
         fill="#a7d4d2"
         fill-rule="evenodd"
         stroke="none"
         id="path23" />
    </g>
    <g
       id="shape1"
       transform="translate(40.85,73.3)">
      <path
         d="m -32.3,-64.85 v 14.4 h 18.9 v 0.05 h 0.5 l -0.05,-0.05 h 9.1 v 0.05 h 0.45 l -0.05,-0.05 h 7 L 3.5,-50.4 h 0.45 v -0.05 h 9.15 l -0.05,0.05 h 0.45 v -0.05 h 18.95 v -14.4 -3.65 H -32.3 v 3.65 m 71.45,-8.3 1.75,0.1 v 156.5 q -0.4,0.75 -1.6,0.8 H 39.2 39.05 L 38.8,84.3 H 36.45 V 84.2 Q 35.7,84.05 35.4,83.45 v -0.9 h -70.7 v 0.9 q -0.3,0.6 -1.05,0.75 v 0.1 h -2.35 l -0.2,-0.05 h -0.25 -0.1 q -1.15,-0.05 -1.6,-0.8 v -156.5 l 1.8,-0.1 h 0.95 l 1.7,-0.05 h 2.3 v 0.05 h 1.8 v -0.05 h 68.8 l 1.7,0.05 h 0.95 m -4.9,8.3 v 14.4 h 2.25 v -14.4 -3.65 h -2.25 v 3.65 m 2.25,16.65 h -2.25 v 1.05 h 2.25 v -1.05 m -4.05,0 H -32.3 v 1.05 h 64.75 v -1.05 m 1.7,6.1 v 2.05 H 36.5 V -45 h -2.25 v 2.9 h -0.1 m 0.25,3.75 H 34.15 V 2.8 h 2.3 L 36.5,-9.05 q -0.15,-1.15 0,-2.15 V -38.35 H 34.4 M 32.45,-45 H -32.3 v 2.9 h -0.05 v 1.9 l 8.6,0.05 -2.75,-0.55 q -1.45,-0.4 -1.45,-1.5 0,-1.05 0.95,-1.65 l 3.5,-0.9 h 11.4 l 3.6,1 q 0.9,0.2 0.9,0.45 l 0.55,0.45 0.55,0.45 q 0,0.8 -2.35,1.8 l -1,0.45 H 9.95 L 9,-40.6 q -2.4,-1 -2.4,-1.8 l 0.55,-0.45 0.5,-0.45 q 0,-0.25 0.9,-0.45 l 3.65,-1 h 11.4 q 2.5,0.45 3.45,0.9 1.05,0.6 1.05,1.65 0,1.1 -1.5,1.5 l -2.8,0.55 8.65,-0.05 V -45 m -9.2,3.75 q 2.7,-0.3 3.65,-1.05 l -0.5,-0.4 -3.1,-0.8 -11,0.05 -2.25,0.2 -1,0.9 q 0.45,0.45 1.35,0.65 l 2.2,0.75 h 7.7 l 2.95,-0.3 M -25,-1.2 q -2.15,-1.3 -2.95,-3.65 V -30.4 q 0.9,-2.6 3.3,-3.9 1.3,-0.65 3.1,-1 l 0.65,-0.15 2.65,-0.3 17.5,0.1 h 0.7 l 18.35,-0.1 3.05,0.4 q 2,0.35 3.35,1.05 2.4,1.3 3.4,3.9 v 25.55 l -0.25,0.45 q -0.9,2.3 -3.15,3.45 -1.35,0.7 -3.35,1.15 L 19.25,0.4 18.3,0.45 15.4,0.5 15.45,1.05 15,2.25 14.55,2.75 h 0.4 V 2.8 h 4 L 18.9,2.75 h 5.2 L 24.05,2.8 h 8.4 V 2.15 H 32.5 V -14.7 h -0.05 v -23.45 h -64.8 V -14.7 H -32.4 V 2.15 h 0.05 V 2.8 h 6.95 q -0.95,-0.15 -1.3,-0.7 -0.35,-0.35 -0.35,-1.1 0,-1.95 2.05,-2.2 m 46.35,-32.55 -3.05,-0.65 -5,-0.05 v 0.05 l -2.1,0.15 -10.8,-0.1 h -0.3 -0.25 -0.2 l -10.75,0.1 -2.15,-0.15 v -0.05 l -5,0.05 -2.65,0.5 -0.65,0.2 q -1.5,0.5 -2.6,1.25 -1.5,1.15 -2.25,2.7 v 24.3 q 0.75,1.5 2.25,2.6 1.1,0.8 2.6,1.35 l 0.65,0.2 2.65,0.45 5,0.05 V -0.85 L -11.1,-1 -0.35,-0.9 h 0.2 0.3 0.25 l 10.8,-0.1 0.25,0.05 1.4,-0.3 q 1.1,0 1.75,0.45 l 3.7,-0.05 0.95,-0.1 2.1,-0.45 q 1.65,-0.55 2.9,-1.45 l 1.65,-1.55 0.6,-1.05 v -24.3 q -0.7,-1.55 -2.25,-2.7 -1.25,-0.85 -2.9,-1.3 m -55.45,-31.1 v -3.65 h -2.3 v 3.65 14.4 h 2.3 v -14.4 m 24.1,21.6 -2.2,-0.2 -11,-0.05 -3.15,0.8 -0.4,0.4 q 0.9,0.75 3.6,1.05 l 2.25,0.25 0.7,0.05 h 7.65 l 2.25,-0.75 q 0.9,-0.2 1.4,-0.65 l -1.1,-0.9 m -24.1,-4.95 h -2.3 v 1.05 h 2.3 v -1.05 m -0.2,9.85 h -2.1 v 27.15 q 0.15,1 0,2.15 l 0.05,11.85 h 2.3 v -41.15 h -0.25 m 0.25,-1.7 V -42.1 H -34.1 V -45 h -2.3 v 4.95 h 2.35 m 12,40 q 0.15,0.55 0.15,1.1 0,0.65 -0.45,1.2 l -0.4,0.5 h 4 l -0.1,0.05 h 3.95 V 2.75 H 11.7 Q 10.95,2.6 10.6,2.1 10.35,1.75 10.35,1 L 10.4,0.5 0.35,0.45 H -3 -18.25 l -2.65,-0.2 -0.65,-0.15 -0.5,-0.15 m -1.3,6.15 q -0.2,1.4 -1.1,1.4 -0.85,0 -1.1,-1.5 V 4.8 h -6.9 V 8.6 H 32.5 V 4.8 H 13.95 v 1.3 q -0.15,1.4 -1.1,1.4 -0.8,0 -1.1,-1.5 V 4.8 h -35.1 V 6.1 M -34.05,4.85 V 4.8 l -2.3,-0.1 V 4.85 8.6 h 2.3 V 4.85 m 0,11.4 v -5.5 h -2.3 v 0.1 0.55 0.2 0.05 h 0.05 v 4.5 l 0.1,0.25 v 0.15 h 0.2 1.65 0.3 v -0.3 m 0,7.95 V 23 h -2.35 v 0.1 h 0.2 v 1.1 49 l 0.2,2.15 0.1,0.15 0.25,-1.1 v 0.65 l -0.05,0.55 v 0.2 l 0.4,-0.1 h 1.25 V 24.2 m -2.15,-3 h 2.15 v -1.85 h -0.5 l -1.65,-0.2 v 2.05 m 68.7,3 V 23 h -64.85 v 1.2 51.5 H 32.5 V 24.2 M -32.35,19.35 V 21.2 H 32.5 v -1.85 h -0.1 l -1.1,-0.05 -3.6,0.05 v 0.05 h -1.5 -52.35 l -3.1,-0.05 -1.95,-0.05 -1.15,0.05 m 0,-2.8 H 32.5 v -5.8 h -64.85 v 5.8 M -0.4,46 l -7.55,0.35 0.2,3.6 0.05,5.25 q 0.25,6.2 -0.15,8.7 l 3.1,0.1 H 5.3 L 8.4,63.9 Q 8.05,61.4 8.2,55.2 L 8.25,49.95 8.45,46.35 0.95,46 0.25,45.95 -0.4,45.65 V 46 m -8.9,0 v -0.45 q 0,-0.55 0.95,-0.65 1.75,-0.15 8.6,0.1 7,-0.25 8.65,-0.1 0.95,0.1 0.95,0.65 L 9.8,46 q -0.1,0.2 -0.4,0.25 0.3,1.3 0.4,3.7 L 9.9,55.2 Q 10,61.55 9.7,64 10,64.15 10,64.6 L 9.7,65.2 9.35,65.25 9.05,65.6 8.75,65.45 5.3,65.6 H -4.75 L -8.2,65.45 -8.55,65.6 -8.85,65.25 -9.1,65.2 q -0.4,-0.25 -0.4,-0.6 0,-0.45 0.3,-0.6 -0.3,-2.45 -0.15,-8.8 l 0.1,-5.25 0.35,-3.7 Q -9.2,46.2 -9.3,46 M 36.45,4.85 V 4.7 L 34.1,4.8 V 4.85 8.6 h 2.35 V 4.85 M 36.3,16.4 36.4,16.15 v -4.5 h 0.05 V 11.6 11.4 10.85 10.75 H 34.2 v 5.6 0.2 h 0.25 1.6 0.25 V 16.4 m 0,7.8 v -1.1 h 0.2 V 23 h -2.3 v 1.2 51.5 h 1.2 l 0.4,0.1 V 75.6 L 35.75,75.05 V 74.4 l 0.2,1.1 0.1,-0.15 0.25,-2.15 v -49 m -2.1,-4.85 v 1.85 h 2.1 v -2.05 l -1.65,0.2 H 34.2"
         fill="#6b6b6b"
         fill-rule="evenodd"
         stroke="none"
         id="path24" />
      <path
         d="m 34.15,-42.1 h 0.1 V -45 h 2.25 v 4.95 h -2.35 v -2.05 m -1.7,-6.1 v 1.05 H -32.3 v -1.05 h 64.75 m -66.5,8.15 H -36.4 V -45 h 2.3 v 2.9 h 0.05 v 2.05 M -36.2,24.2 v -1.1 h -0.2 V 23 h 2.35 v 1.2 h -2.15 m 3.85,0 H 32.5 V 75.7 H -32.35 V 24.2 M -9.3,46 q 0.1,0.2 0.4,0.25 l -0.35,3.7 -0.1,5.25 q -0.15,6.35 0.15,8.8 -0.3,0.15 -0.3,0.6 0,0.35 0.4,0.6 l 0.25,0.05 0.3,0.35 0.35,-0.15 3.45,0.15 H 5.3 L 8.75,65.45 9.05,65.6 9.35,65.25 9.7,65.2 10,64.6 Q 10,64.15 9.7,64 10,61.55 9.9,55.2 L 9.8,49.95 Q 9.7,47.55 9.4,46.25 9.7,46.2 9.8,46 L 9.85,45.55 Q 9.85,45 8.9,44.9 7.25,44.75 0.25,45 -6.6,44.75 -8.35,44.9 -9.3,45 -9.3,45.55 V 46 m 8.25,28.8 V 74.75 L -1.2,74.8 h 0.15 M 34.2,24.2 V 23 h 2.3 v 0.1 h -0.2 v 1.1 H 34.2 M 1.15,74.8 h 0.1 l -0.1,-0.05 v 0.05"
         fill="#808080"
         fill-rule="evenodd"
         stroke="none"
         id="path25" />
      <path
         d="m 32.45,-45 v 4.8 l -8.65,0.05 2.8,-0.55 q 1.5,-0.4 1.5,-1.5 0,-1.05 -1.05,-1.65 -0.95,-0.45 -3.45,-0.9 H 12.2 l -3.65,1 q -0.9,0.2 -0.9,0.45 l -0.5,0.45 -0.55,0.45 q 0,0.8 2.4,1.8 l 0.95,0.45 h -19.8 l 1,-0.45 q 2.35,-1 2.35,-1.8 l -0.55,-0.45 -0.55,-0.45 q 0,-0.25 -0.9,-0.45 l -3.6,-1 h -11.4 l -3.5,0.9 q -0.95,0.6 -0.95,1.65 0,1.1 1.45,1.5 l 2.75,0.55 -8.6,-0.05 v -1.9 h 0.05 V -45 h 64.75 m -9.2,3.75 -2.95,0.3 h -7.7 l -2.2,-0.75 q -0.9,-0.2 -1.35,-0.65 l 1,-0.9 2.25,-0.2 11,-0.05 3.1,0.8 0.5,0.4 q -0.95,0.75 -3.65,1.05 M 15.4,0.5 18.3,0.45 19.25,0.4 21.35,0.2 q 2,-0.45 3.35,-1.15 2.25,-1.15 3.15,-3.45 L 28.1,-4.85 V -30.4 q -1,-2.6 -3.4,-3.9 -1.35,-0.7 -3.35,-1.05 l -3.05,-0.4 -18.35,0.1 h -0.7 l -17.5,-0.1 -2.65,0.3 -0.65,0.15 q -1.8,0.35 -3.1,1 -2.4,1.3 -3.3,3.9 v 25.55 q 0.8,2.35 2.95,3.65 -2.05,0.25 -2.05,2.2 0,0.75 0.35,1.1 0.35,0.55 1.3,0.7 h -6.95 V 2.15 H -32.4 V -14.7 h 0.05 v -23.45 h 64.8 V -14.7 H 32.5 V 2.15 H 32.45 V 2.8 h -8.4 L 24.1,2.75 h -5.2 l 0.05,0.05 h -4 V 2.75 h -0.4 L 15,2.25 15.45,1.05 15.4,0.5 m -25.4,-43.75 1.1,0.9 q -0.5,0.45 -1.4,0.65 l -2.25,0.75 h -7.65 l -0.7,-0.05 -2.25,-0.25 q -2.7,-0.3 -3.6,-1.05 l 0.4,-0.4 3.15,-0.8 11,0.05 2.2,0.2 M 10.4,0.5 10.35,1 q 0,0.75 0.25,1.1 0.35,0.5 1.1,0.65 H -14.9 V 2.8 h -3.95 l 0.1,-0.05 h -4 l 0.4,-0.5 q 0.45,-0.55 0.45,-1.2 0,-0.55 -0.15,-1.1 l 0.5,0.15 0.65,0.15 2.65,0.2 H -3 0.35 L 10.4,0.5 M -32.35,24.2 V 23 H 32.5 v 1.2 h -64.85 m -3.85,-3 v -2.05 l 1.65,0.2 h 0.5 v 1.85 h -2.15 m 3.85,-1.85 1.15,-0.05 1.95,0.05 3.1,0.05 h 52.35 1.5 v -0.05 l 3.6,-0.05 1.1,0.05 h 0.1 V 21.2 H -32.35 V 19.35 M -0.4,46 v -0.35 l 0.65,0.3 0.7,0.05 7.5,0.35 -0.2,3.6 -0.05,5.25 q -0.15,6.2 0.2,8.7 L 5.3,64 H -4.75 l -3.1,-0.1 q 0.4,-2.5 0.15,-8.7 L -7.75,49.95 -7.95,46.35 -0.4,46 M 34.2,19.35 h 0.45 l 1.65,-0.2 v 2.05 h -2.1 v -1.85"
         fill="#777777"
         fill-rule="evenodd"
         stroke="none"
         id="path26" />
      <path
         d="M -36.35,4.85 V 4.7 l 2.3,0.1 v 0.05 h -2.3 m 0.15,11.55 0.2,0.15 h -0.2 V 16.4 m 1.85,0.15 0.05,-0.05 0.25,-0.25 v 0.3 h -0.3 M 34.1,4.85 V 4.8 L 36.45,4.7 V 4.85 H 34.1 m 0.1,11.5 0.2,0.15 0.05,0.05 H 34.2 v -0.2 m 1.85,0.2 0.25,-0.15 v 0.15 h -0.25"
         fill="#b8b8b8"
         fill-rule="evenodd"
         stroke="none"
         id="path27" />
      <path
         d="M -1.05,74.8 H -1.2 l 0.15,-0.05 v 0.05 m 2.2,0 v -0.05 l 0.1,0.05 h -0.1"
         fill="#cccccc"
         fill-rule="evenodd"
         stroke="none"
         id="path28" />
      <path
         d="m 34.4,-38.35 h 2.1 v 27.15 q -0.15,1 0,2.15 L 36.45,2.8 h -2.3 v -41.15 h 0.25 m -68.7,0 h 0.25 V 2.8 h -2.3 L -36.4,-9.05 q 0.15,-1.15 0,-2.15 v -27.15 h 2.1"
         fill="#72848e"
         fill-rule="evenodd"
         stroke="none"
         id="path29" />
      <path
         d="m 32.45,-64.85 v 14.4 H 13.5 v 0.05 h -0.45 l 0.05,-0.05 H 3.95 v 0.05 H 3.5 l 0.05,-0.05 h -7 l 0.05,0.05 h -0.45 v -0.05 h -9.1 l 0.05,0.05 h -0.5 v -0.05 h -18.9 v -14.4 h 64.75 m 1.8,0 h 2.25 v 14.4 h -2.25 v -14.4 m 2.25,16.65 v 1.05 h -2.25 v -1.05 h 2.25 m -72.9,-16.65 h 2.3 v 14.4 h -2.3 v -14.4 m 2.3,16.65 v 1.05 h -2.3 v -1.05 h 2.3 m -2.1,64.6 -0.1,-0.25 v -4.5 h -0.05 v -0.05 -0.2 -0.55 -0.1 h 2.3 v 5.5 l -0.25,0.25 -0.05,0.05 H -36 l -0.2,-0.15 m 0,7.8 h 2.15 v 51.5 h -1.25 l -0.4,0.1 v -0.2 l 0.05,-0.55 V 74.4 l -0.25,1.1 -0.1,-0.15 -0.2,-2.15 v -49 m 3.85,-7.65 v -5.8 H 32.5 v 5.8 h -64.85 m 66.55,-0.2 v -5.6 h 2.25 v 0.1 0.55 0.2 0.05 H 36.4 v 4.5 l -0.1,0.25 -0.25,0.15 h -1.6 L 34.4,16.5 34.2,16.35 m 0,7.85 h 2.1 v 49 l -0.25,2.15 -0.1,0.15 -0.2,-1.1 v 0.65 l 0.05,0.55 v 0.2 L 35.4,75.7 H 34.2 V 24.2"
         fill="#8094a0"
         fill-rule="evenodd"
         stroke="none"
         id="path30" />
      <path
         d="M 32.45,-64.85 H -32.3 v -3.65 h 64.75 v 3.65 m 4.05,0 h -2.25 v -3.65 h 2.25 v 3.65 m -70.6,0 h -2.3 v -3.65 h 2.3 v 3.65 m 14.8,72 1.5,-0.25 q 0.35,-0.15 0.35,-0.65 0,-0.8 -2.15,-0.9 -2.2,-0.1 -2.2,0.9 l 0.2,0.55 2.3,0.35 M -23.35,6.1 V 4.8 h 35.1 V 6 q 0.3,1.5 1.1,1.5 0.95,0 1.1,-1.4 V 4.8 H 32.5 V 8.6 H -32.45 V 4.8 h 6.9 V 6 q 0.25,1.5 1.1,1.5 0.9,0 1.1,-1.4 M -34.05,4.85 V 8.6 h -2.3 V 4.85 h 2.3 m 70.5,0 V 8.6 H 34.1 V 4.85 h 2.35 M 18,7.15 19.55,6.9 q 0.3,-0.15 0.3,-0.65 0,-0.8 -2.1,-0.9 -2.2,-0.1 -2.2,0.9 L 15.7,6.8 18,7.15"
         fill="#95acba"
         fill-rule="evenodd"
         stroke="none"
         id="path31" />
      <path
         d="M -19.3,7.15 -21.6,6.8 -21.8,6.25 q 0,-1 2.2,-0.9 2.15,0.1 2.15,0.9 0,0.5 -0.35,0.65 l -1.5,0.25 M 18,7.15 15.7,6.8 15.55,6.25 q 0,-1 2.2,-0.9 2.1,0.1 2.1,0.9 0,0.5 -0.3,0.65 L 18,7.15"
         fill="#ffffff"
         fill-rule="evenodd"
         stroke="none"
         id="path32" />
      <path
         d="m 15.4,0.5 2.9,-0.05 0.95,-0.05 2.1,-0.2 q 2,-0.45 3.35,-1.15 2.25,-1.15 3.15,-3.45 L 28.1,-4.85 V -30.4 q -1,-2.6 -3.4,-3.9 -1.35,-0.7 -3.35,-1.05 l -3.05,-0.4 -18.35,0.1 h -0.7 l -17.5,-0.1 -2.65,0.3 -0.65,0.15 q -1.8,0.35 -3.1,1 -2.4,1.3 -3.3,3.9 v 25.55 q 0.8,2.35 2.95,3.65 m 2.95,1.15 0.5,0.15 0.65,0.15 2.65,0.2 H -3 0.35 L 10.4,0.5"
         fill="none"
         stroke="#6b6b6b"
         stroke-linecap="round"
         stroke-linejoin="round"
         stroke-width="1"
         id="path33" />
      <path
         d="m 9.95,-61.25 q 2.55,0 2.55,1.05 v 0.1 q 0,0.7 -0.8,0.7 h -0.3 v 3.55 l 0.1,1.45 q 1,0 1.1,0.4 v 0.4 q 0,0.65 -2.55,0.8 h -0.7 q -0.75,0 -1.1,-0.6 v -0.4 q 0,-0.7 0.7,-0.7 h 0.8 v -1.45 l 0.1,-3.45 q -1.3,-0.15 -1.3,-1 0,-0.85 1.4,-0.85 m -7.3,5.1 q 0.15,1.45 0.45,1.45 1.9,0 2.55,-1.15 v -0.4 q 0,-0.8 -0.75,-0.8 H 4.8 q -1.45,0.35 -2.15,0.9 m -1.2,-5.5 q 0.65,0.1 0.7,0.3 l 0.75,-0.2 h 0.9 q 2.75,0.3 2.75,2.15 l -0.5,1.1 v 0.1 q 0.8,0 1.1,1.65 l 0.1,0.9 Q 6.35,-53.1 3.5,-53.1 H 2.7 q -1.75,-0.25 -1.75,-1.7 l 0.1,-1.35 -0.5,-4.55 q 0.15,-0.95 0.9,-0.95 m 1,2.75 0.05,0.95 1.2,-0.55 q 1.3,0 1.3,-0.9 0,-0.75 -1.8,-0.8 -0.75,0.35 -0.75,1.3 m -8.65,-2.75 q 0.6,0 2.25,2.25 l 0.7,0.7 q 2.75,-2.95 3.15,-2.95 H 0 l 0.25,0.75 q -1,2.1 -2.65,3.95 v 0.1 l 0.4,3.45 q -0.2,0.6 -0.75,0.6 h -0.4 q -0.9,-1.05 -0.9,-3.25 v -0.6 l 0.1,-0.2 q -1.1,-0.5 -2.55,-4.15 v -0.35 l 0.3,-0.3 m 21.35,0.1 h 0.1 q 0.3,0 0.4,0.65 -0.6,1.8 -0.6,4.05 0.25,2.35 1.7,2.35 h 0.4 q 1.1,0 1.35,-2.35 v -0.1 l -0.2,-3.25 q 0.15,-0.7 0.7,-0.7 1.2,0 1.2,4.15 v 0.8 q -0.45,3.15 -2.65,3.15 h -0.9 q -2.75,0 -3.15,-3.55 v -1.4 q 0,-2.7 1.1,-3.25 l 0.55,-0.55 m 9,-0.4 h 0.3 q 2.55,0.3 2.55,1.65 v 0.4 l -0.5,0.5 h -0.2 q -1.05,-1.1 -1.55,-1.1 h -0.8 q -0.7,0.5 -0.7,1.1 0,0.5 1.2,0.5 2.55,0 2.55,3.55 0,2.35 -2.25,2.35 h -0.3 q -2.05,0 -2.85,-2.35 v -0.2 q 0,-0.9 0.75,-0.9 h 0.3 q 0.55,0 0.7,0.5 l -0.2,0.75 q 0.85,0.6 1.5,0.6 h 0.1 q 0.65,0 0.65,-0.65 v -0.2 q 0,-2.1 -2.25,-2.1 -1.3,0 -1.45,-1.55 v -0.4 q 0,-2.45 2.45,-2.45 m -49.65,0 h 0.5 q 2.15,0 3.6,1.95 l 0.1,0.7 v 0.6 q 0,1.3 -1.95,1.55 l -1.65,0.2 v 0.1 l 0.45,3.15 q -0.15,0.8 -0.4,0.8 h -0.25 q -1.05,0 -1.8,-8.2 0.4,-0.85 1.4,-0.85 m 0.4,1.75 v 0.4 l 0.1,1.2 h 0.65 q 1.5,-0.15 1.5,-0.5 0,-0.85 -1.7,-1.3 h -0.35 l -0.2,0.2 m 8.4,-1.15 q 2.15,0 3.15,2.75 l 0.1,0.75 v 0.7 q 0,3.4 -2.45,4.25 l -0.6,0.1 h -0.7 q -2.15,0 -3.05,-2.45 l -0.2,-1.5 v -0.2 q 0,-3.1 2.3,-4.2 l 1.45,-0.2 m 5.8,-0.1 q 0.9,0.15 0.9,1.45 l -0.1,5.1 h 0.1 l 1.95,-0.2 q 1.1,0.2 1.1,0.5 v 0.6 q -0.5,1 -3.55,1 h -0.1 q -1.25,0 -1.25,-3.15 l -0.3,-2.75 q 0,-2.55 1.25,-2.55 m -7.95,4.4 q 0.3,2.55 1.55,2.55 h 0.7 q 1.35,0 1.6,-2.35 v -1 q -0.45,-1.95 -1.7,-1.95 h -0.4 q -1.75,0 -1.75,2.75"
         fill="#ffffff"
         fill-rule="evenodd"
         stroke="none"
         id="path34" />
    </g>
    <g
       id="sprite1"
       transform="translate(1.3,1.15)">
      <use
         ffdec:characterId="695"
         height="2.3"
         transform="translate(-1.3,-1.15)"
         width="2.55"
         xlink:href="#shape2"
         id="use34" />
    </g>
    <g
       id="shape2"
       transform="translate(1.3,1.15)">
      <path
         d="m 1.25,-0.3 v 0.25 q 0,1.2 -1.3,1.2 L -0.45,1.1 Q -1,1 -1.2,0.55 l -0.05,-0.5 -0.05,-0.1 0.05,-0.25 0.2,-0.55 q 0.3,-0.4 1.05,-0.3 l 0.95,0.35 0.3,0.5"
         fill="#ffffff"
         fill-rule="evenodd"
         stroke="none"
         id="path35" />
    </g>
    <g
       id="sprite2"
       transform="translate(1.3,1.15)">
      <use
         ffdec:characterId="696"
         height="2.3"
         transform="translate(-1.3,-1.15)"
         width="2.55"
         xlink:href="#shape3"
         id="use35" />
    </g>
    <g
       id="shape3"
       transform="translate(1.3,1.15)">
      <path
         d="m 1.25,-0.05 q 0,1.2 -1.3,1.2 L -0.45,1.1 Q -1,1 -1.2,0.55 l -0.05,-0.5 -0.05,-0.1 0.05,-0.25 0.2,-0.55 q 0.3,-0.4 1.05,-0.3 l 0.95,0.35 0.3,0.5 v 0.25"
         fill="#6b6b6b"
         fill-rule="evenodd"
         stroke="none"
         id="path36" />
    </g>
    <g
       id="sprite3"
       transform="translate(1.3,1.15)">
      <use
         ffdec:characterId="695"
         height="2.3"
         transform="translate(-1.3,-1.15)"
         width="2.55"
         xlink:href="#shape2"
         id="use36" />
    </g>
    <g
       id="sprite4"
       transform="translate(5.4,4)">
      <use
         ffdec:characterId="43"
         height="8"
         transform="translate(-5.4,-4)"
         width="10.8"
         xlink:href="#shape4"
         id="use37" />
    </g>
    <g
       id="shape4"
       transform="translate(5.4,4)">
      <path
         d="m 2.9,-0.35 q 0,-1.25 1.25,-1.25 1.25,0 1.25,1.2 0,1.3 -1.25,1.3 Q 3.6,0.9 3.25,0.5 2.9,0.15 2.9,-0.35 m 0.35,-2.3 q 0,0.55 -0.35,0.9 -0.4,0.45 -1,0.45 -1.35,0 -1.35,-1.4 0,-1.3 1.35,-1.3 1.35,0 1.35,1.35 m -3.1,1.9 h 0.2 q 2.6,0.1 2.6,2.8 l -0.3,1 Q 2.05,4 0.45,4 H 0.35 0.15 0.1 -0.45 q -1.6,0 -2.2,-0.95 l -0.3,-1 q 0,-2.8 2.8,-2.8 h 0.3 M -1.55,-4 q 1.35,0 1.35,1.35 0,0.55 -0.4,0.9 -0.4,0.45 -0.95,0.45 -1.4,0 -1.4,-1.4 0,-1.3 1.4,-1.3 m -2.6,2.4 q 1.25,0 1.25,1.25 0,0.5 -0.35,0.85 -0.35,0.4 -0.9,0.4 -1.25,0 -1.25,-1.3 0,-1.2 1.25,-1.2"
         fill="#6b6b6b"
         fill-rule="evenodd"
         stroke="none"
         id="path37" />
    </g>
  </defs>
</svg>
