<?xml version="1.0" encoding="UTF-8" standalone="no"?>
<svg
   ffdec:objectType="frame"
   height="54.792252"
   width="35.731392"
   version="1.1"
   id="svg25"
   sodipodi:docname="1.svg"
   xmlns:inkscape="http://www.inkscape.org/namespaces/inkscape"
   xmlns:sodipodi="http://sodipodi.sourceforge.net/DTD/sodipodi-0.dtd"
   xmlns:xlink="http://www.w3.org/1999/xlink"
   xmlns="http://www.w3.org/2000/svg"
   xmlns:svg="http://www.w3.org/2000/svg"
   xmlns:ffdec="https://www.free-decompiler.com/flash">
  <sodipodi:namedview
     id="namedview25"
     pagecolor="#ffffff"
     bordercolor="#000000"
     borderopacity="0.25"
     inkscape:showpageshadow="2"
     inkscape:pageopacity="0.0"
     inkscape:pagecheckerboard="0"
     inkscape:deskcolor="#d1d1d1"
     fit-margin-top="5"
     fit-margin-left="5"
     fit-margin-right="5"
     fit-margin-bottom="5" />
  <g
     transform="translate(0.69073539,-1.2077497)"
     id="g7">
    <use
       ffdec:characterId="4389"
       height="12.75"
       transform="matrix(0.0385,-0.9992,-0.9992,-0.0385,34.95,19.85)"
       width="12"
       xlink:href="#sprite0"
       id="use1" />
    <use
       ffdec:characterId="4389"
       height="12.75"
       transform="matrix(0.632,-0.7748,0.7748,0.632,-1.55,10.65)"
       width="12"
       xlink:href="#sprite0"
       id="use2" />
    <use
       ffdec:characterId="4391"
       height="28.65"
       transform="matrix(0.9341,0,0,1,1.85,16.65)"
       width="33.400002"
       xlink:href="#sprite1"
       id="use3" />
    <use
       ffdec:characterId="4393"
       height="13.7"
       transform="matrix(1.0576,0,0,1,2.75,42.3)"
       width="27.75"
       xlink:href="#sprite2"
       id="use4" />
    <use
       ffdec:characterId="4395"
       height="26.5"
       transform="matrix(0.9871,0.16,-0.16,0.9871,6.0364,-0.9235)"
       width="27.6"
       xlink:href="#sprite3"
       id="use5" />
    <use
       ffdec:characterId="4401"
       height="10.65"
       transform="matrix(0.9871,0.16,-0.16,0.9871,8.1,10.75)"
       width="19.950001"
       xlink:href="#sprite4"
       id="use6" />
    <use
       ffdec:characterId="4402"
       height="13.5"
       transform="translate(3.55,4.55)"
       width="29.1"
       xlink:href="#shape5"
       id="use7" />
  </g>
  <defs
     id="defs25">
    <g
       id="sprite0">
      <use
         ffdec:characterId="4388"
         height="12.75"
         width="12"
         xlink:href="#shape0"
         id="use8" />
    </g>
    <g
       id="shape0">
      <path
         d="m 12,7.65 q 0,2.9 -1.7,4.2 Q 9.75,12.3 8.8,12.55 6.05,13.3 3.7,11.5 1.85,10.05 0.65,6.1 0.1,4.25 0,2.95 -0.1,1.45 0.5,0.75 1.3,-0.2 2.85,0.05 q 0.7,0.15 2.35,1 l 2.95,1.5 q 1.65,0.9 2.6,1.9 l 0.9,1.3 Q 12,6.6 12,7.65 M 9.15,7.95 9.1,7.35 Q 8.95,6.5 8.25,5.95 L 7.75,5.6 6.55,5 5.8,4.65 5.25,4.25 3.15,3.3 3.9,6 4.25,6.95 4.3,7.15 4.9,8.15 5.75,9.05 6.2,9.3 7.45,9.65 8.1,9.5 8.6,9.3 8.85,9 9.15,7.95"
         fill="#6b6b6b"
         fill-rule="evenodd"
         stroke="none"
         id="path8" />
      <path
         d="M 4.25,6.95 3.9,6 3.15,3.3 5.25,4.25 5.8,4.65 6.55,5 7.75,5.6 8.25,5.95 Q 8.95,6.5 9.1,7.35 L 9.15,7.95 8,8.05 6.85,8 5.1,7.4 4.3,7 4.25,6.95"
         fill="#bdbdbd"
         fill-rule="evenodd"
         stroke="none"
         id="path9" />
      <path
         d="M 4.25,6.95 4.3,7 5.1,7.4 6.85,8 8,8.05 9.15,7.95 8.85,9 8.6,9.3 8.1,9.5 7.45,9.65 6.2,9.3 5.75,9.05 4.9,8.15 4.3,7.15 4.25,6.95"
         fill="#a8a8a8"
         fill-rule="evenodd"
         stroke="none"
         id="path10" />
    </g>
    <g
       id="sprite1">
      <use
         ffdec:characterId="4390"
         height="28.65"
         width="33.400002"
         xlink:href="#shape1"
         id="use10" />
    </g>
    <g
       id="shape1">
      <path
         d="M 11,5.55 11.7,4.7 q 1.35,-1.35 3.35,-1.75 l 1.2,-0.15 v 0.05 h 0.9 l 1.2,0.1 q 2,0.4 3.35,1.75 l 1,1.3 -0.1,0.35 -0.1,1.05 0.05,1 0.45,2.9 0.3,1.7 q 0.35,1.85 0.9,3 l 0.25,1.05 1.65,1.6 2.9,0.35 0.65,-0.15 0.8,-0.3 v 0.15 q -0.05,0.95 -0.55,1.6 l -1.65,1.45 -0.35,0.4 -0.65,-0.05 q -0.85,0 -1.15,0.5 l -0.05,0.1 -0.45,0.4 q -0.2,0.35 -0.15,0.75 l 0.55,0.8 q 0.95,0.85 2.3,0.85 l 1.1,-0.15 0.35,-0.2 v 0.1 l -1.55,0.5 -2.85,0.15 0.05,-0.05 0.15,-0.7 q 0.05,-1.1 -0.4,-2.1 -0.55,-1 -1.45,-1.5 l -0.65,-0.3 0.1,-0.7 L 23.1,19.15 22.3,12.4 22,11.35 21.6,11.1 q -0.25,0 -0.4,0.25 l -0.1,0.45 -0.15,1.55 -0.15,5.2 0.1,0.9 -0.1,1.05 0.75,2.85 -2,-0.2 q -0.75,0.1 -1.05,0.3 l -0.1,0.1 Q 18.05,23.8 18.05,24.2 L 17.7,21.45 v -0.1 -0.05 -0.1 -0.05 l 0.05,-0.1 V 21 20.9 20.85 20.75 20.7 20.6 20.55 20.45 20.4 20.3 20.25 20.15 20.1 20 19.95 19.85 19.8 19.7 19.65 19.55 19.5 19.4 19.35 19.25 19.2 19.1 19 18.95 18.85 18.8 18.7 18.65 L 17.7,18.55 V 18.5 18.4 18.35 18.25 18.2 18.1 l -0.05,-0.05 v -0.1 -0.05 -0.1 -0.05 -0.1 L 17.6,17.6 V 17.5 17.45 17.35 17.3 L 17.55,17.2 V 17.15 17.05 17 L 17.5,16.9 v -0.05 -0.1 l 0.05,-0.05 0.8,-0.45 Q 18.7,16 18.7,15.55 V 15.3 l -0.85,0.1 q -2,0.1 -3,-0.7 L 14.8,14.65 q -0.15,0.15 -0.15,0.4 l 0.1,0.35 0.25,0.7 0.55,0.4 0.15,0.1 -0.05,0.05 v 0.1 0.05 0.1 0.05 0.1 L 15.6,17.1 v 0.1 0.05 0.1 l -0.05,0.05 v 0.1 0.05 0.1 0.05 0.1 0.05 0.1 L 15.5,18 v 0.1 0.05 0.1 l -0.05,0.05 v 0.1 0.05 0.1 0.05 0.1 0.05 0.1 0.05 0.1 0.05 0.1 0.1 0.05 0.1 0.05 0.1 0.05 0.1 0.05 0.1 0.05 0.1 0.05 0.1 0.05 0.1 0.05 0.1 0.05 0.1 0.05 0.1 0.05 0.1 0.05 0.1 0.05 0.1 0.05 0.1 l -0.1,2.7 -0.2,-0.4 -0.25,-0.2 -0.15,-0.05 -0.9,-0.25 -2,0.2 q 0.75,-2.65 0.65,-3.9 l 0.1,-0.9 -0.15,-5.2 -0.15,-1.55 -0.1,-0.45 -0.4,-0.25 -0.4,0.25 -0.3,1.05 -0.8,6.75 -0.05,1.4 0.1,0.7 -0.65,0.3 q -0.9,0.5 -1.45,1.5 -0.45,1 -0.4,2.1 0,0.4 0.15,0.7 L 8.05,25.9 5.2,25.75 Q 4.1,25.55 3.65,25.25 V 25.2 L 3.95,25.25 4.85,25.2 5.8,25.05 6.4,24.5 6.6,23.95 7.25,23.6 Q 7.75,23.1 7.3,22.6 7,22.1 6.15,22.1 L 5.5,22.15 5.15,21.75 3.5,20.3 Q 3,19.65 2.95,18.7 v -0.05 h 0.1 l 0.5,0.15 0.4,0.2 0.85,0.15 q 1.95,0.1 2.95,-0.6 l 0.5,-0.5 0.2,-0.15 1.15,-1.4 0.6,-1.2 0.7,-2.15 0.15,-1.35 0.1,-4.85 L 11,5.55 M 23.05,24.4 v 0.25 l -0.5,0.5 q -1.5,0.85 -3.05,0.6 l -0.6,-0.2 -0.5,-0.5 Q 18.05,24.6 18.05,24.35 V 24.2 q 0.5,0.45 1.65,0.6 l 1.7,0.05 1.25,-0.25 0.4,-0.2 m -12.3,-0.5 0.05,0.15 1.1,0.85 1.4,0.05 1.3,-0.2 0.75,-0.7 v 0.3 l -0.35,0.7 -0.5,0.5 -0.6,0.2 Q 12.35,26 10.85,25.15 l -0.5,-0.5 0.2,-0.55 0.2,-0.2"
         fill="#a8a8a8"
         fill-rule="evenodd"
         stroke="none"
         id="path11" />
      <path
         d="m 22.7,6 -1,-1.3 Q 20.35,3.35 18.35,2.95 l -1.2,-0.1 h -0.9 V 2.8 l -1.2,0.15 q -2,0.4 -3.35,1.75 L 11,5.55 Q 9.4,7.85 9.25,12.1 9.15,13.95 8.5,14.55 L 8.45,14.6 Q 8.1,14.9 7.4,15.05 L 6.1,15.2 6.05,15.25 q -1.85,0.35 -2.7,1.8 -0.45,0.7 -0.4,1.6 V 18.7 Q 3,19.65 3.5,20.3 l 1.65,1.45 0.35,0.4 0.65,-0.05 q 0.85,0 1.15,0.5 0.45,0.5 -0.05,1 L 6.6,23.95 5.15,23.85 q -1.3,-0.1 -1.65,0.45 -0.4,0.5 0.15,0.9 v 0.05 q 0.45,0.3 1.55,0.5 L 8.05,25.9 8,25.85 q -0.15,-0.3 -0.15,-0.7 -0.05,-1.1 0.4,-2.1 0.55,-1 1.45,-1.5 l 0.65,-0.3 -0.1,-0.7 0.05,-1.4 0.8,-6.75 0.3,-1.05 0.4,-0.25 0.4,0.25 0.1,0.45 0.15,1.55 0.15,5.2 -0.1,0.9 q 0.1,1.25 -0.65,3.9 l -0.25,0.1 q -0.5,0.15 -0.85,0.45 l -0.2,0.2 -0.2,0.55 0.5,0.5 q 1.5,0.85 3.05,0.6 l 0.6,-0.2 0.5,-0.5 0.35,-0.7 v -0.3 l 0.1,-2.7 V 21.25 21.2 21.1 21.05 20.95 20.9 20.8 20.75 20.65 20.6 20.5 20.45 20.35 20.3 20.2 20.15 20.05 20 19.9 19.85 19.75 19.7 19.6 19.55 19.45 19.4 19.3 19.25 19.15 19.05 19 18.9 18.85 18.75 18.7 18.6 18.55 18.45 18.4 18.3 L 15.5,18.25 V 18.15 18.1 18 l 0.05,-0.05 v -0.1 -0.05 -0.1 -0.05 -0.1 -0.05 -0.1 l 0.05,-0.05 v -0.1 -0.05 -0.1 l 0.05,-0.05 v -0.1 -0.05 -0.1 -0.05 -0.1 L 15.7,16.6 15.55,16.5 15,16.1 14.75,15.4 14.65,15.05 q 0,-0.25 0.15,-0.4 l 0.05,0.05 q 1,0.8 3,0.7 l 0.85,-0.1 v 0.25 q 0,0.45 -0.35,0.7 l -0.8,0.45 -0.05,0.05 v 0.1 0.05 l 0.05,0.1 v 0.05 0.1 0.05 l 0.05,0.1 v 0.05 0.1 0.05 0.1 l 0.05,0.05 v 0.1 0.05 0.1 0.05 0.1 l 0.05,0.05 v 0.1 0.05 0.1 0.05 0.1 0.05 l 0.05,0.1 v 0.05 0.1 0.05 0.1 0.05 0.1 0.1 0.05 0.1 0.05 0.1 0.05 0.1 0.05 0.1 0.05 0.1 0.05 0.1 0.05 0.1 0.05 0.1 0.05 0.1 0.05 0.1 0.05 0.1 0.05 0.1 0.05 l -0.05,0.1 v 0.05 0.1 0.05 0.1 l 0.35,2.75 v 0.15 q 0,0.25 0.35,0.7 l 0.5,0.5 0.6,0.2 q 1.55,0.25 3.05,-0.6 l 0.5,-0.5 V 24.4 l -0.2,-0.3 q -0.45,-0.55 -1.3,-0.75 l -0.75,-2.85 0.1,-1.05 -0.1,-0.9 0.15,-5.2 0.15,-1.55 0.1,-0.45 q 0.15,-0.25 0.4,-0.25 l 0.4,0.25 0.3,1.05 0.8,6.75 0.05,1.4 -0.1,0.7 0.65,0.3 q 0.9,0.5 1.45,1.5 0.45,1 0.4,2.1 l -0.15,0.7 -0.05,0.05 2.85,-0.15 1.55,-0.5 v -0.1 q 0.3,-0.55 -0.4,-1.05 -0.7,-0.55 -1.8,-0.35 l -1.4,-0.15 q -0.45,-0.45 -0.1,-0.9 l 0.05,-0.1 q 0.3,-0.5 1.15,-0.5 l 0.65,0.05 0.35,-0.4 1.65,-1.45 q 0.5,-0.65 0.55,-1.6 v -0.15 q 0,-0.8 -0.4,-1.5 Q 29.3,15.7 27.7,15.3 L 27.3,15.2 H 27.1 L 26,15.05 24.9,14.55 24.7,14.3 24.5,13.95 Q 24.2,13.25 24.15,12.1 24,8.25 22.7,6 m -6.2,20.85 q -0.55,0.75 -1.2,1 l -1.05,0.25 -1.15,0.1 -2.2,-0.3 -0.35,0.35 q -0.45,0.4 -1.75,0.4 H 6.9 L 5.95,28.6 4.7,28.45 Q 2.8,28.05 2.15,27.55 0.95,26.6 1.05,25.05 1.15,23.85 2,23.15 1.2,22.4 0.7,21.35 -0.1,19.8 0,18.1 0.1,16.45 1.1,15 2.15,13.55 3.65,12.9 l 1.95,-0.55 0.7,-0.3 0.25,-0.9 Q 6.55,8.5 7.3,6.45 8.3,3.7 10.7,1.9 13.15,0.1 16,0 h 0.9 0.5 q 2.85,0.1 5.3,1.9 2.4,1.8 3.4,4.55 0.75,2.05 0.75,4.7 0,0.65 0.25,0.9 l 0.7,0.3 1.95,0.55 q 1.5,0.65 2.55,2.1 1,1.45 1.1,3.1 0.1,1.7 -0.7,3.25 l -1.3,1.8 q 0.85,0.7 0.95,1.9 0.1,1.55 -1.1,2.5 -0.65,0.5 -2.55,0.9 l -1.25,0.15 -0.95,0.05 h -1.9 q -1.3,0 -1.75,-0.4 L 22.5,27.9 20.3,28.2 19.15,28.1 18.1,27.85 q -0.65,-0.25 -1.2,-1 l -0.2,-0.25 -0.2,0.25"
         fill="#6b6b6b"
         fill-rule="evenodd"
         stroke="none"
         id="path12" />
      <path
         d="m 11,5.55 0.15,1.4 -0.1,4.85 -0.15,1.35 -0.7,2.15 -0.6,1.2 -1.15,1.4 -0.2,0.15 -0.5,0.5 q -1,0.7 -2.95,0.6 L 3.95,19 3.55,18.8 3.05,18.65 h -0.1 q -0.05,-0.9 0.4,-1.6 0.85,-1.45 2.7,-1.8 L 6.1,15.2 7.4,15.05 Q 8.1,14.9 8.45,14.6 L 8.5,14.55 Q 9.15,13.95 9.25,12.1 9.4,7.85 11,5.55 M 6.6,23.95 6.4,24.5 5.8,25.05 4.85,25.2 3.95,25.25 3.65,25.2 Q 3.1,24.8 3.5,24.3 3.85,23.75 5.15,23.85 l 1.45,0.1 m 5.25,-0.6 2,-0.2 0.9,0.25 0.15,0.05 0.25,0.2 0.2,0.4 -0.75,0.7 -1.3,0.2 -1.4,-0.05 -1.1,-0.85 -0.05,-0.15 q 0.35,-0.3 0.85,-0.45 l 0.25,-0.1 m 6.2,0.85 q 0,-0.4 0.35,-0.65 l 0.1,-0.1 q 0.3,-0.2 1.05,-0.3 l 2,0.2 q 0.85,0.2 1.3,0.75 l 0.2,0.3 -0.4,0.2 -1.25,0.25 -1.7,-0.05 q -1.15,-0.15 -1.65,-0.6 m 11.7,0.95 -0.35,0.2 -1.1,0.15 q -1.35,0 -2.3,-0.85 l -0.55,-0.8 Q 25.4,23.45 25.6,23.1 l 0.45,-0.4 q -0.35,0.45 0.1,0.9 l 1.4,0.15 q 1.1,-0.2 1.8,0.35 0.7,0.5 0.4,1.05 m 0.7,-6.6 -0.8,0.3 L 29,19 26.1,18.65 24.45,17.05 24.2,16 Q 23.65,14.85 23.3,13 L 23,11.3 22.55,8.4 22.5,7.4 22.6,6.35 22.7,6 q 1.3,2.25 1.45,6.1 0.05,1.15 0.35,1.85 l 0.2,0.35 0.2,0.25 1.1,0.5 1.1,0.15 h 0.2 l 0.4,0.1 q 1.6,0.4 2.35,1.75 0.4,0.7 0.4,1.5"
         fill="#bdbdbd"
         fill-rule="evenodd"
         stroke="none"
         id="path13" />
    </g>
    <g
       id="sprite2">
      <use
         ffdec:characterId="4392"
         height="13.7"
         width="27.75"
         xlink:href="#shape2"
         id="use13" />
    </g>
    <g
       id="shape2">
      <path
         d="M 0.35,13.6 0.3,13.5 0.2,13.4 0.15,13.3 0.1,13.2 0.05,13.1 v -0.15 -0.1 -0.1 -0.1 -0.1 L 0,12.45 V 12.3 12.2 12.1 12 v -0.1 -0.1 -0.1 -0.15 -0.1 -0.1 -0.1 -0.1 -0.1 -0.15 -0.1 -0.1 -0.1 -0.1 -0.1 -0.15 -0.1 -0.1 L 0.05,9.95 V 9.85 9.75 9.6 9.5 9.4 9.3 9.2 9.1 9 8.85 8.75 8.65 8.55 8.45 8.35 8.2 8.1 8 7.9 7.8 7.7 7.55 7.45 7.35 7.25 7.15 7.05 6.9 6.8 6.7 6.6 6.5 6.4 6.3 6.15 6.05 5.95 5.85 5.75 5.65 5.5 5.4 5.3 5.2 5.1 5 4.85 4.75 4.65 4.55 4.45 4.35 4.2 4.1 4 3.9 3.8 3.7 3.6 3.45 3.35 3.25 3.15 3.05 2.95 2.8 2.7 2.6 2.5 2.4 2.3 2.15 2.05 1.95 1.85 1.75 1.65 1.55 L 0.1,1.4 0.15,1.3 0.2,1.2 0.25,1.1 0.3,1 0.4,0.9 0.5,0.75 0.55,0.65 0.65,0.5 0.75,0.4 0.85,0.3 1,0.2 1.25,0.1 1.5,0 H 1.8 12 18.45 l 4.65,0.05 1.45,0.05 h 1.25 0.15 l 0.1,-0.05 0.4,-0.05 0.4,0.05 0.2,0.1 0.2,0.1 0.1,0.1 0.1,0.15 0.1,0.1 v 0.1 l 0.1,0.1 0.05,0.1 V 1 1.15 1.25 l 0.05,0.1 v 0.1 0.1 0.1 V 1.8 1.9 2 2.1 2.2 L 27.7,2.3 v 0.15 l 0.05,0.1 v 0.1 0.1 0.1 0.1 0.1 0.15 0.1 0.1 0.1 0.1 L 27.7,3.7 v 0.15 0.1 0.1 0.1 0.1 0.1 0.15 0.1 0.1 0.1 0.1 0.1 0.1 0.15 0.1 0.1 0.1 0.1 0.1 0.15 0.1 0.1 0.1 0.1 0.1 0.15 0.1 0.1 0.1 0.1 0.1 0.15 0.1 0.1 0.1 0.1 0.1 0.1 0.15 0.1 0.1 0.1 0.1 0.1 0.15 0.1 0.1 0.1 L 27.65,9 v 0.1 0.15 0.1 0.1 0.1 0.1 0.1 0.15 0.1 0.1 0.1 0.1 l -0.05,0.1 v 0.1 0.15 0.1 0.1 0.1 0.1 0.1 0.15 0.1 0.1 0.1 0.1 l -0.05,0.1 v 0.15 0.1 0.1 0.1 0.1 0.1 0.1 0.15 0.1 0.1 0.1 0.1 l -0.05,0.1 v 0.15 l -0.05,0.1 v 0.1 l -0.05,0.1 V 13.7 H 0.45 l -0.1,-0.1 m 23.2,-2.2 h 0.6 0.1 l 1.05,0.05 v -0.05 -0.1 -0.15 -0.1 -0.1 -0.1 -0.1 -0.1 -0.15 -0.1 L 25.25,10.3 V 10.2 10.1 10 9.9 9.75 9.65 9.55 9.45 9.35 9.25 9.1 9 8.9 8.8 8.7 8.6 8.45 8.35 8.25 8.15 8.05 7.95 7.8 7.7 7.6 7.5 7.4 7.3 7.2 7.05 L 25.2,6.95 V 6.85 6.75 6.65 6.55 6.4 6.3 6.2 6.1 6 5.9 5.75 5.65 5.55 5.45 5.35 5.25 5.1 5 4.9 4.8 4.7 4.6 4.5 4.35 4.25 4.15 4.05 3.95 3.85 L 25.15,3.7 V 3.6 3.5 3.4 3.3 3.2 3.05 2.95 2.85 2.75 2.65 2.55 2.45 h -0.6 L 23.7,2.5 H 23.1 L 18.45,2.55 H 12 3.55 3 2.5 V 2.7 2.8 2.9 3 v 0.1 0.1 0.15 0.1 0.1 0.1 0.1 0.1 0.1 0.15 0.1 0.1 0.1 0.1 0.1 0.15 0.1 0.1 0.1 0.1 0.1 0.15 0.1 0.1 0.1 0.1 0.1 0.1 0.15 0.1 0.1 0.1 0.1 0.1 0.15 0.1 0.1 0.1 0.1 0.1 0.15 0.1 0.1 0.1 0.1 0.1 0.15 0.1 0.1 0.1 0.1 0.1 0.1 0.15 l -0.05,0.1 v 0.1 0.1 0.1 0.1 0.15 0.1 L 2.5,9.7 v 0.1 0.1 0.1 0.15 0.1 0.1 0.1 0.1 0.1 0.15 0.1 0.1 0.1 0.1 0.1 0.1 0.15 h 0.8 0.9 l 7,-0.05 4.7,-0.05 h 5.95 V 11.4 h 1.55 0.15"
         fill="#6b6b6b"
         fill-rule="evenodd"
         stroke="none"
         id="path14" />
      <path
         d="M 4.2,11.55 H 3.3 2.5 V 11.4 11.3 11.2 11.1 11 v -0.1 -0.1 -0.15 -0.1 -0.1 -0.1 -0.1 -0.1 V 10 9.9 9.8 9.7 L 2.45,9.6 V 9.5 9.35 9.25 9.15 9.05 8.95 L 2.5,8.85 V 8.7 8.6 8.5 8.4 8.3 8.2 8.1 7.95 7.85 7.75 7.65 7.55 7.45 7.3 7.2 7.1 7 6.9 6.8 6.65 6.55 6.45 6.35 6.25 6.15 6 5.9 5.8 5.7 5.6 5.5 5.4 5.25 5.15 5.05 4.95 4.85 4.75 4.6 4.5 4.4 4.3 4.2 4.1 3.95 3.85 3.75 3.65 3.55 3.45 3.35 3.2 3.1 3 2.9 2.8 2.7 2.55 H 3 3.55 12 18.45 L 23.1,2.5 h 0.6 l 0.85,-0.05 h 0.6 v 0.1 0.1 0.1 0.1 0.1 0.1 0.15 0.1 0.1 0.1 0.1 0.1 l 0.05,0.15 v 0.1 0.1 0.1 0.1 0.1 0.15 0.1 0.1 0.1 0.1 0.1 0.1 0.15 0.1 0.1 0.1 0.1 0.1 0.15 0.1 0.1 0.1 0.1 0.1 0.15 0.1 0.1 0.1 0.1 l 0.05,0.1 v 0.15 0.1 0.1 0.1 0.1 0.1 0.1 0.15 0.1 0.1 0.1 0.1 0.1 0.15 0.1 0.1 0.1 0.1 0.1 0.15 0.1 0.1 0.1 0.1 0.1 0.15 0.1 0.1 0.1 0.1 l 0.05,0.1 v 0.1 0.15 0.1 0.1 0.1 0.1 0.1 0.15 0.1 0.05 L 24.25,11.4 h -0.1 -0.6 L 23.5,11.3 v -0.15 l -0.05,-0.1 v -0.1 -0.1 -0.1 -0.1 V 10.5 10.4 10.3 10.2 10.1 10 9.9 9.75 9.65 9.55 9.45 9.35 9.25 9.1 9 8.9 8.8 8.7 8.6 8.45 8.35 8.25 8.15 L 23.5,8.05 V 7.95 7.8 7.7 7.6 7.5 7.4 7.3 7.2 7.05 6.95 6.85 6.75 6.65 6.55 6.4 6.3 6.2 6.1 6 5.9 5.75 5.65 5.55 5.45 5.35 5.25 5.1 5 H 22.25 L 19.2,4.95 17.75,4.9 16.8,4.85 H 13.9 L 10.7,4.8 10.2,4.75 H 7.9 L 6.85,4.7 5.35,4.65 4.05,4.6 V 4.7 4.8 4.9 L 4.1,5 v 0.1 0.15 0.1 0.1 0.1 0.1 0.1 V 5.9 6 6.1 6.2 l 0.05,0.1 v 0.1 0.15 0.1 0.1 0.1 0.1 0.1 0.15 0.1 L 4.2,7.4 v 0.1 0.1 0.1 0.1 0.15 0.1 0.1 0.1 0.1 0.1 0.15 0.1 0.1 0.1 0.1 0.1 0.15 0.1 0.1 0.1 l 0.05,0.1 v 0.1 0.15 0.1 0.1 l 0.05,0.1 v 0.1 0.1 0.1 0.15 0.1 0.1 0.1 0.1 l -0.05,0.1 v 0.15 0.1 L 4.2,11.5 v 0.05"
         fill="#bdbdbd"
         fill-rule="evenodd"
         stroke="none"
         id="path15" />
      <path
         d="M 4.2,11.55 V 11.5 l 0.05,-0.1 v -0.1 -0.15 l 0.05,-0.1 v -0.1 -0.1 -0.1 -0.1 -0.15 -0.1 -0.1 -0.1 L 4.25,10.1 V 10 9.9 9.75 9.65 L 4.2,9.55 V 9.45 9.35 9.25 9.1 9 8.9 8.8 8.7 8.6 8.45 8.35 8.25 8.15 8.05 7.95 7.8 7.7 7.6 7.5 7.4 L 4.15,7.3 V 7.2 7.05 6.95 6.85 6.75 6.65 6.55 6.4 6.3 L 4.1,6.2 V 6.1 6 5.9 5.75 5.65 5.55 5.45 5.35 5.25 5.1 5 L 4.05,4.9 V 4.8 4.7 4.6 l 1.3,0.05 1.5,0.05 1.05,0.05 h 2.3 l 0.5,0.05 3.2,0.05 h 2.9 L 17.75,4.9 19.2,4.95 22.25,5 h 1.25 v 0.1 0.15 0.1 0.1 0.1 0.1 0.1 0.15 0.1 0.1 0.1 0.1 0.1 0.15 0.1 0.1 0.1 0.1 0.1 0.15 0.1 0.1 0.1 0.1 0.1 0.1 0.15 0.1 l -0.05,0.1 v 0.1 0.1 0.1 0.15 0.1 0.1 0.1 0.1 0.1 0.15 0.1 0.1 0.1 0.1 0.1 0.15 0.1 0.1 0.1 0.1 0.1 0.1 0.15 0.1 0.1 0.1 0.1 l 0.05,0.1 v 0.15 l 0.05,0.1 H 23.4 21.85 v 0.05 H 15.9 l -4.7,0.05 -7,0.05"
         fill="#a8a8a8"
         fill-rule="evenodd"
         stroke="none"
         id="path16" />
    </g>
    <g
       id="sprite3"
       transform="translate(0.5,0.5)">
      <use
         ffdec:characterId="4394"
         height="26.5"
         transform="translate(-0.5,-0.5)"
         width="27.6"
         xlink:href="#shape3"
         id="use16" />
    </g>
    <g
       id="shape3"
       transform="translate(0.5,0.5)">
      <path
         d="m 22.55,6.35 q 0.7,0.8 1.05,1.8 l 0.7,2.6 0.35,4 q -0.15,2.4 -1.45,4.55 -1.35,2.15 -3.4,3.35 -1.2,0.65 -2.4,0.85 l -2.2,0.1 H 13 11.4 L 9.2,23.5 6.8,22.65 Q 4.75,21.45 3.4,19.3 2.1,17.15 1.95,14.75 1.9,13.45 2.3,10.75 l 0.7,-2.6 0.5,-1 -0.1,1 q 0,1.8 0.85,3.05 0.6,1 2.15,1.8 2.4,1.2 6.2,1.3 L 16,13.95 q 1.35,-0.45 3.15,-1.6 1.6,-1.1 2.25,-1.9 1,-1.2 1.2,-2.7 l -0.05,-1.4"
         fill="#a8a8a8"
         fill-rule="evenodd"
         stroke="none"
         id="path17" />
      <path
         d="m 3.5,7.15 -0.5,1 -0.7,2.6 q -0.4,2.7 -0.35,4 0.15,2.4 1.45,4.55 1.35,2.15 3.4,3.35 l 2.4,0.85 2.2,0.1 h 1.6 2.2 l 2.2,-0.1 q 1.2,-0.2 2.4,-0.85 2.05,-1.2 3.4,-3.35 1.3,-2.15 1.45,-4.55 l -0.35,-4 -0.7,-2.6 q -0.35,-1 -1.05,-1.8 L 21.9,5.65 20,4.25 17.8,3.4 Q 15,2.35 13.6,2.35 V 2.4 L 13.25,2.35 13,2.4 V 2.35 q -1.4,0 -4.2,1.05 L 6.6,4.25 4.7,5.65 3.5,7.15 M 21.65,2.5 q 2.3,1.5 3.6,4.25 0.75,1.75 1.05,3.8 0.95,5.7 -1.2,9.55 -2.25,3.95 -6.55,5.05 L 13.6,25.5 H 13.45 13.3 13.15 13 L 8.05,25.15 Q 3.75,24.05 1.5,20.1 -0.65,16.25 0.3,10.55 0.6,8.5 1.35,6.75 2.65,4 4.95,2.5 6.1,1.8 7.9,1.15 10.65,0.2 13,0.05 V 0 h 0.3 0.3 v 0.05 q 2.35,0.1 5.1,1.1 1.8,0.65 2.95,1.35"
         fill="#6b6b6b"
         fill-rule="evenodd"
         stroke="none"
         id="path18" />
      <path
         d="m 22.55,6.35 0.05,1.4 q -0.2,1.5 -1.2,2.7 -0.65,0.8 -2.25,1.9 -1.8,1.15 -3.15,1.6 L 12.6,14.3 Q 8.8,14.2 6.4,13 4.85,12.2 4.25,11.2 3.4,9.95 3.4,8.15 L 3.5,7.15 4.7,5.65 6.6,4.25 8.8,3.4 Q 11.6,2.35 13,2.35 V 2.4 L 13.25,2.35 13.6,2.4 V 2.35 q 1.4,0 4.2,1.05 l 2.2,0.85 1.9,1.4 0.65,0.7"
         fill="#bdbdbd"
         fill-rule="evenodd"
         stroke="none"
         id="path19" />
      <path
         d="m 21.65,2.5 q 2.3,1.5 3.6,4.25 0.75,1.75 1.05,3.8 0.95,5.7 -1.2,9.55 -2.25,3.95 -6.55,5.05 L 13.6,25.5 H 13.45 13.3 13.15 13 L 8.05,25.15 Q 3.75,24.05 1.5,20.1 -0.65,16.25 0.3,10.55 0.6,8.5 1.35,6.75 2.65,4 4.95,2.5 6.1,1.8 7.9,1.15 10.65,0.2 13,0.05 V 0 h 0.3 0.3 v 0.05 q 2.35,0.1 5.1,1.1 1.8,0.65 2.95,1.35 z"
         ffdec:has-small-stroke="true"
         ffdec:original-stroke-width="1.0"
         fill="none"
         stroke="#6b6b6b"
         stroke-linecap="round"
         stroke-linejoin="round"
         stroke-width="1"
         id="path20" />
    </g>
    <g
       id="sprite4">
      <use
         ffdec:characterId="4400"
         height="10.65"
         width="19.950001"
         xlink:href="#shape4"
         id="use20" />
    </g>
    <g
       id="shape4">
      <path
         d="M 0.3,2.9 0.6,2.55 1.05,2.5 1.3,2.7 1.75,3.1 2.55,3.35 Q 5.65,4 8.15,1.9 L 9,1.3 q 0.7,-0.35 1.25,0.15 l 0.2,0.15 0.4,0.15 q 1.45,0.7 3.25,0.35 1.65,-0.35 3.05,-1.4 1.2,-0.8 1.7,-0.7 0.75,0.15 1,1.15 0.3,1.1 -0.35,2.7 -0.95,2.5 -2.8,4.1 l -1.25,1 L 13.1,10 Q 9,11.25 5.55,10.05 3.7,9.4 2.3,8.1 0.8,6.7 0.2,4.9 -0.05,4.1 0.05,3.5 0.1,3.2 0.3,3 V 2.9 m 16.45,0.9 -2.5,0.85 0.15,0.8 0.15,0.95 q 1.35,-1.05 2.2,-2.6 m -6.15,1 0.45,2.55 0.05,0.7 2.05,-0.75 V 7.2 L 13.2,6.25 13.1,4.75 10.6,4.25 V 4.8 M 7.1,5.3 6.6,5.5 6.9,7.5 7,7.85 9.4,8.2 9.25,7.4 9.2,5.65 V 4.2 Q 8.15,4.9 7.1,5.3 M 4.8,5.7 3.5,5.6 5.4,7.1 5.5,7.15 5.35,6.3 5.45,5.7 H 4.8"
         fill="#6b6b6b"
         fill-rule="evenodd"
         stroke="none"
         id="path21" />
      <path
         d="M 4.8,5.7 H 5.45 L 5.35,6.3 5.5,7.15 5.4,7.1 3.5,5.6 4.8,5.7 M 7.1,5.3 Q 8.15,4.9 9.2,4.2 V 5.65 L 9.25,7.4 9.4,8.2 7,7.85 6.9,7.5 6.6,5.5 7.1,5.3 M 10.6,4.8 V 4.25 l 2.5,0.5 0.1,1.5 -0.05,0.95 V 7.3 L 11.1,8.05 11.05,7.35 10.6,4.8 m 6.15,-1 Q 15.9,5.35 14.55,6.4 L 14.4,5.45 14.25,4.65 16.75,3.8"
         fill="#ffffff"
         fill-rule="evenodd"
         stroke="none"
         id="path22" />
    </g>
    <g
       id="shape5"
       transform="translate(-3.55,-4.55)">
      <path
         d="m 15.4,13.4 q -1.7,2.2 -4.7,2.2 -2.5,0 -4.9,-1.75 -1.15,-1 -1.55,-1.7 Q 3.25,10.55 3.7,7.7 3.9,6.7 4.25,6 4.75,5.05 5.55,4.75 l 2,-0.2 7.6,1.05 1.5,0.85 0.35,0.95 1.4,0.15 1.6,0.55 0.7,-1 1.75,-0.3 q 2.55,0.15 7.5,1.35 1.45,0.5 1.85,0.85 0.6,0.55 0.8,1.6 l -0.05,1.8 q -0.45,2.85 -1.85,4.05 l -2,1.1 -5.25,0.15 q -2.8,-1 -3.8,-3.6 -0.45,-1.15 -0.3,-3 -1.05,-0.5 -1.65,-0.45 l -1,0.3 L 16.65,11 Q 16.2,12.5 15.4,13.4 M 10.95,7.9 10.6,7.85 7.75,7.55 7.1,7.5 6.9,7.55 Q 6.75,7.6 6.75,7.8 6.6,8.25 6.6,8.8 V 8.95 9.1 9.3 9.35 9.6 l 0.05,0.35 0.05,0.15 0.1,0.6 q 0.35,0.65 1.4,1.2 1.85,1.05 3,0.85 l 1.85,-0.65 q 0.8,-1.25 1,-2.25 l 0.2,-1.1 -0.05,-0.2 -0.25,-0.15 -3,-0.5"
         fill="#6b6b6b"
         fill-rule="evenodd"
         stroke="none"
         id="path23" />
      <path
         d="M 6.6,9.35 V 9.3 9.1 8.95 8.8 q 0,-0.55 0.15,-1 0,-0.2 0.15,-0.25 L 7.1,7.5 7.75,7.55 10.6,7.85 10.95,7.9 10.85,8.25 10.25,9.3 Q 9.35,10.1 7.85,9.85 7.05,9.75 6.6,9.35"
         fill="#ffffff"
         fill-rule="evenodd"
         stroke="none"
         id="path24" />
      <path
         d="m 6.6,9.35 q 0.45,0.4 1.25,0.5 1.5,0.25 2.4,-0.55 l 0.6,-1.05 0.1,-0.35 3,0.5 0.25,0.15 0.05,0.2 -0.2,1.1 q -0.2,1 -1,2.25 L 11.2,12.75 Q 10.05,12.95 8.2,11.9 7.15,11.35 6.8,10.7 L 6.7,10.1 6.65,9.95 6.6,9.6 V 9.35"
         fill="#808080"
         fill-rule="evenodd"
         stroke="none"
         id="path25" />
    </g>
  </defs>
</svg>
