<?xml version="1.0" encoding="UTF-8" standalone="no"?>
<svg
   ffdec:objectType="frame"
   height="68.268021"
   width="63.064751"
   version="1.1"
   id="svg61"
   sodipodi:docname="2.svg"
   xmlns:inkscape="http://www.inkscape.org/namespaces/inkscape"
   xmlns:sodipodi="http://sodipodi.sourceforge.net/DTD/sodipodi-0.dtd"
   xmlns:xlink="http://www.w3.org/1999/xlink"
   xmlns="http://www.w3.org/2000/svg"
   xmlns:svg="http://www.w3.org/2000/svg"
   xmlns:ffdec="https://www.free-decompiler.com/flash">
  <sodipodi:namedview
     id="namedview61"
     pagecolor="#ffffff"
     bordercolor="#000000"
     borderopacity="0.25"
     inkscape:showpageshadow="2"
     inkscape:pageopacity="0.0"
     inkscape:pagecheckerboard="0"
     inkscape:deskcolor="#d1d1d1"
     fit-margin-top="5"
     fit-margin-left="5"
     fit-margin-right="5"
     fit-margin-bottom="5" />
  <g
     transform="translate(33.661828,27.468024)"
     id="g15">
    <use
       ffdec:characterId="799"
       height="12.85"
       transform="translate(-23.4,27.95)"
       width="40.299999"
       xlink:href="#shape0"
       id="use1" />
    <use
       ffdec:characterId="649"
       height="12.35"
       transform="matrix(-0.866,-0.5,0.5,-0.866,25.5495,3.3044)"
       width="28.6"
       xlink:href="#sprite0"
       id="use2" />
    <use
       ffdec:characterId="758"
       height="40.200001"
       transform="matrix(0.8501,0,-0.0945,0.8501,-26.4667,-16.5876)"
       width="40.400002"
       xlink:href="#sprite1"
       id="use3" />
    <use
       ffdec:characterId="758"
       height="40.200001"
       transform="matrix(-0.8501,0,0.0945,0.8501,18.6667,-16.5876)"
       width="40.400002"
       xlink:href="#sprite1"
       id="use4" />
    <use
       ffdec:characterId="788"
       height="29.15"
       transform="matrix(-0.1355,-0.7859,-0.7859,0.1355,14,16.3)"
       width="41.200001"
       xlink:href="#sprite2"
       id="use5" />
    <use
       ffdec:characterId="758"
       height="40.200001"
       transform="matrix(0.2063,0.9939,0.9995,-0.0321,-26.5544,-24.9714)"
       width="40.400002"
       xlink:href="#sprite1"
       id="use6" />
    <use
       ffdec:characterId="752"
       height="60.849998"
       transform="matrix(0.0031,-0.8699,-0.9819,-0.0035,26.05,-7.55)"
       width="22.75"
       xlink:href="#sprite3"
       id="use7" />
    <use
       ffdec:characterId="784"
       height="33.650002"
       transform="matrix(-1.0915,-0.0476,0,-0.8044,25.2686,31.4389)"
       width="47.400002"
       xlink:href="#sprite4"
       id="use8" />
    <use
       ffdec:characterId="651"
       height="12.45"
       transform="matrix(-1,0,0,1,5.8,15.35)"
       width="19.1"
       xlink:href="#sprite5"
       id="use9" />
    <use
       ffdec:characterId="756"
       height="17"
       transform="matrix(0.7094,0.4095,0.4152,-0.7192,-30.15,18.1)"
       width="28.299999"
       xlink:href="#sprite6"
       id="use10" />
    <use
       ffdec:characterId="768"
       height="17.1"
       transform="matrix(-1,0,0,1,5.05,21.55)"
       width="14.65"
       xlink:href="#sprite7"
       id="use11" />
    <use
       ffdec:characterId="784"
       height="33.650002"
       transform="matrix(1.0915,-0.0476,0,-0.8044,-29.4186,33.9889)"
       width="47.400002"
       xlink:href="#sprite8"
       id="use12" />
    <use
       ffdec:characterId="802"
       height="25.75"
       transform="translate(-15.6,-16.9)"
       width="29.950001"
       xlink:href="#sprite9"
       id="use13" />
    <use
       ffdec:characterId="750"
       height="18.5"
       transform="matrix(-0.9173,0.0111,-0.0268,1.0009,27.7081,4.141)"
       width="65.949997"
       xlink:href="#sprite11"
       id="use14" />
    <use
       ffdec:characterId="44"
       height="8"
       transform="matrix(-0.866,-0.5,0.5,-0.866,21.2264,-13.1861)"
       width="10.8"
       xlink:href="#sprite12"
       id="use15" />
  </g>
  <defs
     id="defs61">
    <g
       id="shape0"
       transform="translate(23.4,-27.95)">
      <path
         d="M 12.05,31.95 11,31.9 8.9,33.75 8.8,34 8.3,35.9 q 0.35,1.35 1.9,2.9 l 0.2,0.2 0.7,-0.25 1.2,-0.3 q 2.05,-0.35 2.05,-2.95 0,-0.7 -2.3,-3.55 M -7.6,40.05 Q -8.7,39.5 -9.25,38.5 l -0.45,0.1 h -0.4 q -0.35,0.45 -1.25,0.5 -8.75,0.65 -10.6,-0.5 l -0.2,-0.1 q -0.5,-0.45 -0.5,-1.2 l 0.15,-1.7 0.2,-0.85 q 0.4,-0.8 1.35,-0.85 h 0.2 l -0.05,-2 q 0,-1.05 1.65,-1.3 h 0.2 l 0.2,-0.1 0.15,0.1 0.65,0.1 0.05,-0.3 q 0.4,-0.75 1.65,-1 l 1.3,-0.1 1.45,0.1 q 2.5,0.35 3.25,0.85 0.5,-0.45 1.2,-0.6 l 1.2,0.05 q 0.7,-0.95 1.35,-0.95 l 1.15,0.05 q 1.1,0.25 1.95,1.55 0.8,1.15 0.95,2.15 l 0.25,0.2 0.05,-0.1 q 0.8,-1.3 1.45,-1.5 l 3.35,0.25 0.65,0.1 1.55,0.4 1.05,-0.95 3.25,0.2 v 0.05 q 3,-2.25 5.15,0 1.85,1.95 1.85,4.25 0,1.25 -0.7,2.65 l -0.3,0.4 q -0.7,1.05 -1.8,1.6 H 5.6 l -1.05,-0.8 -0.1,-0.1 -2,-0.3 -0.55,-0.2 q -0.8,0.3 -1.25,0.75 l -0.1,0.1 -0.95,0.55 h -4.95 v -0.1 l -1.45,0.1 H -7.6 M -3.85,33.15 -4,32.8 v -0.05 q -1.3,-1.15 -1.35,-1.85 -1.55,0.65 -2,1.15 -0.75,0.95 -0.75,3.2 l 0.25,1.9 0.2,0.3 q 0.7,0.95 2.3,1.2 h 1.9 Q -1.1,38.5 0,37.3 L 0.5,36.85 Q 1.5,36.1 2.8,36 h 0.5 l 0.45,0.05 V 35.6 q 0,-1.75 0.15,-2.2 L 4,33.05 H 3.3 L 2.35,32.9 0.3,32.7 q -0.45,0 -1.55,1.3 -1,1.2 -1.55,1.25 l -2.35,0.15 h -0.2 l -0.4,-0.45 -0.3,-0.45 0.7,-0.7 0.2,-0.15 1.4,-0.15 -0.1,-0.35 M 5.3,33.7 q -0.15,0.4 -0.15,1.95 l 0.1,1.55 Q 5.6,38 7,38.6 6.3,36.2 7.7,32.4 5.8,32.6 5.3,33.7 m -21.5,-2 -0.15,1.7 q -0.05,2.45 -3.2,2.7 l -1.1,-0.05 v 0.2 0.85 q 0.2,0.4 1.1,0.35 l 7.5,-0.35 -0.1,-0.8 q 0,-1.6 0.85,-4.3 l 0.15,-0.45 -0.95,-0.4 -2.5,-0.3 q -1.25,0.1 -1.6,0.85 m 7.25,0 q -1.3,0.25 -1.55,1.4 -0.25,1 -0.3,3.05 l 1.15,0.7 -0.05,-1.45 q 0,-1.8 0.75,-3.7 m -8.9,1.6 -0.2,-0.8 -0.4,-0.35 -1.1,0.2 -0.05,1.45 q 1.75,-0.25 1.75,-0.5"
         fill="#6b6b6b"
         fill-rule="evenodd"
         stroke="none"
         id="path15" />
      <path
         d="m -16.2,31.7 q 0.35,-0.75 1.6,-0.85 l 2.5,0.3 0.95,0.4 -0.15,0.45 q -0.85,2.7 -0.85,4.3 l 0.1,0.8 -7.5,0.35 q -0.9,0.05 -1.1,-0.35 v -0.85 -0.2 l 1.1,0.05 q 3.15,-0.25 3.2,-2.7 l 0.15,-1.7 m 1.35,-0.05 -0.15,0.2 -0.05,0.5 0.45,0.8 1.15,0.25 0.75,-0.2 0.1,-0.75 -0.9,-0.75 -1.35,-0.05"
         fill="#a39292"
         fill-rule="evenodd"
         stroke="none"
         id="path16" />
      <path
         d="m 10.25,33.75 q 0,-1.1 1,-1.15 1,-0.05 1,1.05 0,1.1 -1,1.15 -0.55,0.05 -0.8,-0.45 l -0.2,-0.6 M -0.3,33.55 q 1.4,-0.7 2,-0.4 0.4,0.2 0.4,0.75 L 1.95,34.45 1.1,34.7 Q 0.45,34.75 -0.5,34 l 0.2,-0.45 m -14.55,-1.9 1.35,0.05 0.9,0.75 -0.1,0.75 -0.75,0.2 -1.15,-0.25 -0.45,-0.8 0.05,-0.5 0.15,-0.2"
         fill="#ffffff"
         fill-rule="evenodd"
         stroke="none"
         id="path17" />
      <path
         d="m -3.85,33.15 0.1,0.35 -1.4,0.15 -0.2,0.15 -0.7,0.7 0.3,0.45 0.4,0.45 h 0.2 L -2.8,35.25 Q -2.25,35.2 -1.25,34 -0.15,32.7 0.3,32.7 l 2.05,0.2 0.95,0.15 H 4 L 3.9,33.4 q -0.15,0.45 -0.15,2.2 v 0.45 L 3.3,36 H 2.8 Q 1.5,36.1 0.5,36.85 L 0,37.3 q -1.1,1.2 -3.45,1.35 h -1.9 q -1.6,-0.25 -2.3,-1.2 l -0.2,-0.3 -0.25,-1.9 q 0,-2.25 0.75,-3.2 0.45,-0.5 2,-1.15 0.05,0.7 1.35,1.85 v 0.05 l 0.15,0.35 m 3.55,0.4 -0.2,0.45 q 0.95,0.75 1.6,0.7 L 1.95,34.45 2.1,33.9 q 0,-0.55 -0.4,-0.75 -0.6,-0.3 -2,0.4"
         fill="#d4d4d4"
         fill-rule="evenodd"
         stroke="none"
         id="path18" />
      <path
         d="M 5.3,33.7 Q 5.8,32.6 7.7,32.4 6.3,36.2 7,38.6 5.6,38 5.25,37.2 l -0.1,-1.55 q 0,-1.55 0.15,-1.95 m -14.25,-2 q -0.75,1.9 -0.75,3.7 l 0.05,1.45 -1.15,-0.7 q 0.05,-2.05 0.3,-3.05 0.25,-1.15 1.55,-1.4"
         fill="#b6b6b6"
         fill-rule="evenodd"
         stroke="none"
         id="path19" />
      <path
         d="m 12.05,31.95 q 2.3,2.85 2.3,3.55 0,2.6 -2.05,2.95 L 11.1,38.75 10.4,39 10.2,38.8 Q 8.65,37.25 8.3,35.9 L 8.8,34 8.9,33.75 11,31.9 l 1.05,0.05 m -1.8,1.8 0.2,0.6 q 0.25,0.5 0.8,0.45 1,-0.05 1,-1.15 0,-1.1 -1,-1.05 -1,0.05 -1,1.15"
         fill="#9d8c8c"
         fill-rule="evenodd"
         stroke="none"
         id="path20" />
      <path
         d="m -6.8,40.05 1.45,-0.1 v 0.1 H -0.4 L 0.55,39.5 0.65,39.4 Q 1.1,38.95 1.9,38.65 l 0.55,0.2 2,0.3 0.1,0.1 1.05,0.8 h 7.75 q 1.1,-0.55 1.8,-1.6 l 0.3,-0.4 q 0.7,-1.4 0.7,-2.65 0,-2.3 -1.85,-4.25 -2.15,-2.25 -5.15,0 V 31.1 L 5.9,30.9 4.85,31.85 3.3,31.45 2.65,31.35 -0.7,31.1 q -0.65,0.2 -1.45,1.5 L -2.2,32.7 -2.45,32.5 Q -2.6,31.5 -3.4,30.35 -4.25,29.05 -5.35,28.8 L -6.5,28.75 q -0.65,0 -1.35,0.95 l -1.2,-0.05 q -0.7,0.15 -1.2,0.6 -0.75,-0.5 -3.25,-0.85 l -1.45,-0.1 -1.3,0.1 q -1.25,0.25 -1.65,1 l -0.05,0.3 -0.65,-0.1 -0.15,-0.1 -0.2,0.1 h -0.2 q -1.65,0.25 -1.65,1.3 l 0.05,2 h -0.2 q -0.95,0.05 -1.35,0.85 l -0.2,0.85 -0.15,1.7 q 0,0.75 0.5,1.2 l 0.2,0.1 q 1.85,1.15 10.6,0.5 0.9,-0.05 1.25,-0.5 h 0.4 l 0.45,-0.1 q 0.55,1 1.65,1.55"
         fill="none"
         stroke="#6b6b6b"
         stroke-linecap="round"
         stroke-linejoin="round"
         stroke-width="1.5"
         id="path21" />
    </g>
    <g
       id="sprite0"
       transform="translate(0.75,0.9)">
      <use
         ffdec:characterId="648"
         height="12.35"
         transform="translate(-0.75,-0.9)"
         width="28.6"
         xlink:href="#shape1"
         id="use21" />
    </g>
    <g
       id="shape1"
       transform="translate(0.75,0.9)">
      <path
         d="m 20.9,4.2 q -2.2,2.4 -5.05,2.7 h -4.2 L 8.6,5.5 Q 6,4.2 4.9,4.2 q -0.95,0 -1.95,0.5 -0.9,0.45 -0.9,0.65 0,0.5 0.4,1.1 Q 2.9,7.2 3.6,7.2 4.1,7.2 4.95,6.55 l 1.2,-0.7 q 0.8,0 3.4,1.35 2.55,1.35 4.95,1.35 3.55,0 6.8,-2.6 3,-2.85 4.05,-3.4 Q 22.8,2.1 20.9,4.2 m 6.2,-2 q 0,1.45 -0.85,1.95 Q 24.3,5.3 22.9,6.75 L 20.4,9.2 q -2.25,1.5 -5.85,1.5 -3.05,0 -5.5,-1.3 L 6.4,8.1 5.55,8.75 q -0.7,0.6 -1.65,0.6 -2.55,0 -3.45,-2 L 0,5.35 Q 0,4.3 0.7,3.55 2,2.1 5.35,2.1 q 1.95,0 3.7,1.1 1.75,1.05 4.75,1.05 3.55,0 5.75,-1.55 L 21.4,1.05 q 0.4,-0.25 1.55,-0.8 l 1.95,-0.35 1.5,0.55 q 0.7,0.4 0.7,1.75"
         fill="#9a9a9a"
         fill-rule="evenodd"
         stroke="none"
         id="path22" />
      <path
         d="M 20.9,4.2 Q 22.8,2.1 25.35,2.55 24.3,3.1 21.3,5.95 18.05,8.55 14.5,8.55 12.1,8.55 9.55,7.2 6.95,5.85 6.15,5.85 l -1.2,0.7 Q 4.1,7.2 3.6,7.2 2.9,7.2 2.45,6.45 q -0.4,-0.6 -0.4,-1.1 0,-0.2 0.9,-0.65 1,-0.5 1.95,-0.5 1.1,0 3.7,1.3 l 3.05,1.4 h 4.2 Q 18.7,6.6 20.9,4.2"
         fill="#c6c6c6"
         fill-rule="evenodd"
         stroke="none"
         id="path23" />
      <path
         d="m 27.1,2.2 q 0,1.45 -0.85,1.95 Q 24.3,5.3 22.9,6.75 L 20.4,9.2 q -2.25,1.5 -5.85,1.5 -3.05,0 -5.5,-1.3 L 6.4,8.1 5.55,8.75 q -0.7,0.6 -1.65,0.6 -2.55,0 -3.45,-2 L 0,5.35 Q 0,4.3 0.7,3.55 2,2.1 5.35,2.1 q 1.95,0 3.7,1.1 1.75,1.05 4.75,1.05 3.55,0 5.75,-1.55 L 21.4,1.05 q 0.4,-0.25 1.55,-0.8 l 1.95,-0.35 1.5,0.55 q 0.7,0.4 0.7,1.75 z"
         fill="none"
         stroke="#9a9a9a"
         stroke-linecap="round"
         stroke-linejoin="round"
         stroke-width="1.5"
         id="path24" />
    </g>
    <g
       id="sprite1"
       transform="translate(0.75,0.75)">
      <use
         ffdec:characterId="757"
         height="40.200001"
         transform="translate(-0.75,-0.75)"
         width="40.400002"
         xlink:href="#shape2"
         id="use24" />
    </g>
    <g
       id="shape2"
       transform="translate(0.75,0.75)">
      <path
         d="m 38.9,5.05 -0.4,2.2 q -1.35,2.1 -5.95,1.45 -1.7,1.2 -2.3,1.2 L 26.5,8.55 q -0.75,1 -2.2,1 H 24 q -0.85,1.1 -2.5,1.85 -1.9,0.8 -2.65,1.7 l -0.05,0.3 3.35,2.95 q 3.45,3.35 3.9,6.25 l 1,4.6 q 0.65,3.15 0.65,4.85 0,2.8 -0.3,3.75 -0.95,2.9 -4.35,2.9 Q 19.6,38.7 12.2,35.35 4.25,31.7 2.55,28.55 0.5,24.6 0.15,22.15 0,21.3 0,16.3 0,14.35 1.2,11.1 2.35,8.15 3.7,6.05 L 5.3,3.7 Q 6.75,2.15 9.55,1.05 14.3,-0.7 18.8,0.5 l 3.85,1.55 1.2,-0.3 1.2,-0.3 q 1.35,0 2.85,0.75 l 1.35,0.75 q 0.65,0 2.3,-0.9 1.55,-0.9 2.05,-0.95 l 1,-0.15 q 1.15,0.1 2.7,0.95 1.2,0.85 1.5,1.7 l 0.1,1.45 m -3.4,1 h -1.6 l -0.75,-0.8 -0.1,-0.3 q 0,-1.7 1.75,-1.45 1.7,0.25 1.7,1.65 l -1,0.9 M 36.05,3.3 34.4,2.55 32.45,3.55 32.1,3.75 31.95,4 Q 31.4,5 31.4,5.35 31.4,6 32,6.15 l 1.15,0.7 Q 34.45,6.7 36.7,6.8 37.3,5.7 37.3,5 37.3,3.9 36.05,3.3 m -5.35,3.1 0.1,-2.05 -2.15,0.7 q -0.4,0 -1.25,-0.6 l -0.35,-0.2 0.1,1.1 -0.1,1.85 h 0.15 q 1.35,0 2,0.45 l 1.1,0.4 1.15,-0.75 H 31.5 Q 30.7,6.75 30.7,6.4 M 26.1,3.85 25.5,3.8 l -1.25,0.25 0.45,1 V 7.1 L 24.65,8 25.2,7.95 q 0.85,-0.9 0.8,-2.7 l 0.1,-1.4 M 23.4,5.4 23.1,4.75 22.85,4.4 h -0.1 L 19.85,3.7 18.1,2.95 13.75,3.4 11.2,4.1 Q 7.75,5.55 6.8,7.2 L 6.05,8.15 q -3,4.1 -3,10.95 0,1.7 1.1,5.1 1.2,3.6 2.25,4.65 0.8,0.85 4.3,2.2 3.9,1.55 4.6,2 6.3,3.25 8.5,3.25 1.25,0 1.85,-2.05 l 0.3,-2.2 q 0,-7.6 -4.35,-12.65 l -2.55,-2.25 0.3,0.75 1.45,3.4 1.35,3.3 Q 23,26.9 23,27.95 L 22.55,29.9 19.4,22.05 Q 17.45,17.2 16.8,14.9 15.65,16.65 16.05,18.3 L 16,18.45 15.7,18.6 q -0.5,-0.85 -0.5,-3.15 0,-1.3 1.25,-2.85 0.35,-1.75 3.45,-2.65 3.5,-1 3.5,-4.55"
         fill="#9a9a9a"
         fill-rule="evenodd"
         stroke="none"
         id="path25" />
      <path
         d="m 14,7.6 q 0,0.9 -1.7,3.1 -1.85,2.35 -3.1,2.35 -1.55,0 -1.65,-1.1 0,-3.4 3.25,-5.1 Q 14,5.2 14,7.6 M 7.5,17.05 7.7,17.65 7.55,18.3 6.8,18.55 6.05,17.8 q 0,-0.45 0.15,-0.6 l 1.3,-0.15"
         fill="#d2d2d2"
         fill-rule="evenodd"
         stroke="none"
         id="path26" />
      <path
         d="M 26.1,3.85 26,5.25 q 0.05,1.8 -0.8,2.7 L 24.65,8 24.7,7.1 V 5.05 l -0.45,-1 1.25,-0.25 0.6,0.05 m 4.6,2.55 q 0,0.35 0.8,0.9 H 31.45 L 30.3,8.05 29.2,7.65 Q 28.55,7.2 27.2,7.2 h -0.15 l 0.1,-1.85 -0.1,-1.1 0.35,0.2 q 0.85,0.6 1.25,0.6 L 30.8,4.35 30.7,6.4 M 36.05,3.3 Q 37.3,3.9 37.3,5 37.3,5.7 36.7,6.8 34.45,6.7 33.15,6.85 L 32,6.15 Q 31.4,6 31.4,5.35 31.4,5 31.95,4 l 0.15,-0.25 0.35,-0.2 1.95,-1 1.65,0.75 m -0.55,2.75 1,-0.9 q 0,-1.4 -1.7,-1.65 -1.75,-0.25 -1.75,1.45 l 0.1,0.3 0.75,0.8 h 1.6 M 23.4,5.4 q 0,3.55 -3.5,4.55 -3.1,0.9 -3.45,2.65 -1.25,1.55 -1.25,2.85 0,2.3 0.5,3.15 L 16,18.45 16.05,18.3 q -0.4,-1.65 0.75,-3.4 0.65,2.3 2.6,7.15 L 22.55,29.9 23,27.95 Q 23,26.9 22.15,24.6 l -1.35,-3.3 -1.45,-3.4 -0.3,-0.75 2.55,2.25 q 4.35,5.05 4.35,12.65 l -0.3,2.2 q -0.6,2.05 -1.85,2.05 -2.2,0 -8.5,-3.25 -0.7,-0.45 -4.6,-2 Q 7.2,29.7 6.4,28.85 5.35,27.8 4.15,24.2 q -1.1,-3.4 -1.1,-5.1 0,-6.85 3,-10.95 L 6.8,7.2 Q 7.75,5.55 11.2,4.1 l 2.55,-0.7 4.35,-0.45 1.75,0.75 2.9,0.7 h 0.1 L 23.1,4.75 23.4,5.4 M 7.5,17.05 6.2,17.2 Q 6.05,17.35 6.05,17.8 L 6.8,18.55 7.55,18.3 7.7,17.65 7.5,17.05 M 14,7.6 q 0,-2.4 -3.2,-0.75 -3.25,1.7 -3.25,5.1 0.1,1.1 1.65,1.1 1.25,0 3.1,-2.35 Q 14,8.5 14,7.6"
         fill="#b6b3b8"
         fill-rule="evenodd"
         stroke="none"
         id="path27" />
      <path
         d="m 38.9,5.05 -0.4,2.2 q -1.35,2.1 -5.95,1.45 -1.7,1.2 -2.3,1.2 L 26.5,8.55 q -0.75,1 -2.2,1 H 24 q -0.85,1.1 -2.5,1.85 -1.9,0.8 -2.65,1.7 l -0.05,0.3 3.35,2.95 q 3.45,3.35 3.9,6.25 l 1,4.6 q 0.65,3.15 0.65,4.85 0,2.8 -0.3,3.75 -0.95,2.9 -4.35,2.9 Q 19.6,38.7 12.2,35.35 4.25,31.7 2.55,28.55 0.5,24.6 0.15,22.15 0,21.3 0,16.3 0,14.35 1.2,11.1 2.35,8.15 3.7,6.05 L 5.3,3.7 Q 6.75,2.15 9.55,1.05 14.3,-0.7 18.8,0.5 l 3.85,1.55 1.2,-0.3 1.2,-0.3 q 1.35,0 2.85,0.75 l 1.35,0.75 q 0.65,0 2.3,-0.9 1.55,-0.9 2.05,-0.95 l 1,-0.15 q 1.15,0.1 2.7,0.95 1.2,0.85 1.5,1.7 z"
         fill="none"
         stroke="#9a9a9a"
         stroke-linecap="round"
         stroke-linejoin="round"
         stroke-width="1.5"
         id="path28" />
    </g>
    <g
       id="sprite2">
      <use
         ffdec:characterId="787"
         height="29.15"
         width="41.200001"
         xlink:href="#shape3"
         id="use28" />
    </g>
    <g
       id="shape3">
      <path
         d="m 28.25,14 q -0.4,0.55 -1.05,0.55 -0.85,0 -1.2,-0.75 l -0.15,-0.65 q 0,-1.25 1.35,-1.25 1.35,0 1.35,1.25 L 28.25,14 m -5.9,2.4 q -2,1.55 -4.35,1.55 -1.7,0 -2.5,-0.8 L 15.1,16.3 q 0,-2.5 4.5,-3.75 4.45,-1.2 4.45,1.75 0,0.8 -1.7,2.1"
         fill="#d2d2d2"
         fill-rule="evenodd"
         stroke="none"
         id="path29" />
      <path
         d="m 37.95,18.55 q 0,-2.5 -2.7,-5.15 -3.3,-3.25 -8.2,-3.25 -6.8,0 -10.9,2.5 l -3.65,2 -0.9,0.9 q -0.95,0.6 -2.15,0.6 -2.05,0 -3.2,-0.75 -0.8,-0.55 -0.8,-1 -0.2,-2.95 0.9,-3.6 0.55,0.65 0.4,2.45 -0.1,0.8 1.8,0.95 L 8.5,13.75 q 0,-2.6 1.2,-4.7 Q 10.95,6.9 13.25,5.9 L 13.8,5 Q 13.8,4.6 12.7,3.5 11.5,2.25 10.75,2.4 h -2.7 q -3.25,3.95 -4.5,7 -1.2,2.95 -1.2,6.9 0,3.55 2.75,5.95 5.1,3.5 6.35,3.85 L 22.7,26.05 Q 30,25.6 34.35,23 q 3.6,-2.15 3.6,-4.45 M 38.7,11.8 q 2.5,3.45 2.5,6.2 0,3.95 -3,6.45 -4.4,3.6 -15.45,4.7 h -11.3 l -2.1,-0.6 Q 6.95,28.3 5.45,27.3 4.6,26.75 4.25,26.25 2.05,24.95 0.95,22.15 0,19.75 0,16.3 0,14.65 1,11.1 2.05,7.4 3,5.95 L 4.3,3.25 Q 5.15,1.5 6.6,0.8 q 3.7,-1.75 6.6,0.3 2.25,1.6 2.25,3.05 0,1.35 -0.65,2.65 -0.8,1.5 -2.05,1.75 -0.9,0.95 -0.9,1.95 0,0.6 -0.55,1.3 l 0.05,0.3 Q 16.4,8.85 17,8.6 21.15,6.8 28.3,6.8 q 6.7,0 10.4,5 M 11.05,5.9 Q 8.6,5.9 8.6,4.25 8.6,3 10.55,3.35 q 1.9,0.35 1.9,1.45 0,1.1 -1.4,1.1"
         fill="#9a9a9a"
         fill-rule="evenodd"
         stroke="none"
         id="path30" />
      <path
         d="m 22.35,16.4 q 1.7,-1.3 1.7,-2.1 0,-2.95 -4.45,-1.75 -4.5,1.25 -4.5,3.75 l 0.4,0.85 q 0.8,0.8 2.5,0.8 2.35,0 4.35,-1.55 m 5.9,-2.4 0.3,-0.85 q 0,-1.25 -1.35,-1.25 -1.35,0 -1.35,1.25 L 26,13.8 q 0.35,0.75 1.2,0.75 0.65,0 1.05,-0.55 m 9.7,4.55 q 0,2.3 -3.6,4.45 Q 30,25.6 22.7,26.05 L 11.45,26.1 Q 10.2,25.75 5.1,22.25 2.35,19.85 2.35,16.3 q 0,-3.95 1.2,-6.9 1.25,-3.05 4.5,-7 h 2.7 Q 11.5,2.25 12.7,3.5 13.8,4.6 13.8,5 l -0.55,0.9 q -2.3,1 -3.55,3.15 -1.2,2.1 -1.2,4.7 l 0.05,0.45 q -1.9,-0.15 -1.8,-0.95 0.15,-1.8 -0.4,-2.45 -1.1,0.65 -0.9,3.6 0,0.45 0.8,1 1.15,0.75 3.2,0.75 1.2,0 2.15,-0.6 l 0.9,-0.9 3.65,-2 q 4.1,-2.5 10.9,-2.5 4.9,0 8.2,3.25 2.7,2.65 2.7,5.15 M 11.05,5.9 q 1.4,0 1.4,-1.1 0,-1.1 -1.9,-1.45 Q 8.6,3 8.6,4.25 8.6,5.9 11.05,5.9"
         fill="#c0b9b9"
         fill-rule="evenodd"
         stroke="none"
         id="path31" />
    </g>
    <g
       id="sprite3">
      <use
         ffdec:characterId="751"
         height="60.849998"
         width="22.75"
         xlink:href="#shape4"
         id="use31" />
    </g>
    <g
       id="shape4">
      <path
         d="m 21.85,10.2 q 0,4.1 -0.3,5.25 l -0.95,2.05 1.1,2.15 q 1.05,2.8 1.05,4.7 l -0.1,2.2 -1,2.55 -0.55,0.65 h 0.15 l -0.35,0.2 -0.4,0.5 0.4,0.45 0.35,0.2 H 21.1 l 0.55,0.65 q 0.85,1.55 1,2.55 l 0.1,2.2 q 0,1.9 -1.05,4.7 l -1.1,2.15 0.95,2.05 q 0.3,1.15 0.3,5.25 0,2.25 -2.25,5.65 -3.05,4.55 -7.7,4.55 -7,0 -10.1,-4.65 Q 0,53.5 0,50.65 0,48.7 0.8,46.35 1.55,44.15 2.8,43.2 2.1,42.3 1.6,41 L 0.8,37 q 0,-2.8 2.35,-5.9 H 2.9 L 3.4,30.8 3.65,30.45 3.4,30.1 2.9,29.75 H 3.15 Q 0.8,26.65 0.8,23.85 l 0.8,-4 Q 2.1,18.55 2.8,17.65 1.55,16.7 0.8,14.5 0,12.15 0,10.2 0,7.35 1.8,4.65 4.9,0 11.9,0 q 4.65,0 7.7,4.55 2.25,3.4 2.25,5.65 M 11.65,8.75 q 0.45,0.85 0.45,2.5 0,1 0.5,1.8 L 13.1,14 13,14.45 h -0.15 q -0.9,-0.2 -1.3,-0.85 L 11.5,13.65 Q 10.8,14.8 9.6,14.2 l 1.55,-2.4 v -0.55 q 0,-1.85 0.5,-2.5 M 17.7,7.95 Q 15.8,3.5 12.2,3.5 6.85,3.5 4.6,6.9 3.25,8.95 3.25,11.7 q 0,1.4 1.65,3.4 L 5.65,16 6.5,15.95 q 1.75,0 1.75,1.1 l -2.35,2.4 q -2.35,2.3 -2.35,4.75 0,2.05 1.8,4.6 L 6,29.75 6.15,30 h 0.1 Q 7.1,30 7.7,30.4 L 7.75,30.45 8.3,31.1 H 6 l -0.65,0.95 q -1.8,2.55 -1.8,4.6 0,2.45 2.35,4.75 l 2.35,2.4 q 0,1.1 -1.75,1.1 L 5.65,44.85 4.9,45.75 q -1.65,2 -1.65,3.4 0,2.75 1.35,4.8 2.25,3.4 7.6,3.4 3.6,0 5.5,-4.45 1.15,-2.75 1.15,-4.75 0,-1.25 -0.75,-2.85 l -0.95,0.1 q -0.9,0 -0.9,-1.1 l 0.9,-1.15 Q 17.2,42.45 17.8,42.1 L 18.05,42 18.4,41.5 q 2.1,-2.85 2.1,-5.15 0,-2.15 -0.55,-3.1 L 18.25,31.1 H 16.1 l 0.05,-0.3 q 0.2,-0.25 0.65,-0.35 l 1,-0.2 0.45,-0.5 1.7,-2.15 q 0.55,-0.95 0.55,-3.1 0,-2.3 -2.1,-5.15 l -0.35,-0.5 -0.25,-0.1 Q 17.2,18.4 17.15,17.7 l -0.9,-1.15 q 0,-1.1 0.9,-1.1 l 0.95,0.1 q 0.75,-1.6 0.75,-2.85 0,-2 -1.15,-4.75 m -6.7,8.8 h 0.65 l 0.75,1.95 q 0.5,-2.2 1.6,-2.2 l 0.4,0.1 -0.05,0.1 0.2,0.8 -0.8,2.2 q -0.85,2.25 -0.85,3.65 0,1.6 1,3.85 l -0.1,0.5 q -1.1,-0.45 -1.55,-1.35 l -1,2.5 q -0.7,-0.5 -0.65,-1.05 l 0.5,-1.75 q 0.5,-1.6 0.5,-3.1 L 11.25,19.8 Q 10.9,18.25 10.9,17.55 l 0.1,-0.8 m -0.4,16.3 Q 10.55,32.5 11.25,32 l 1,2.5 q 0.45,-0.9 1.55,-1.35 l 0.1,0.5 q -1,2.25 -1,3.85 0,1.4 0.85,3.65 l 0.8,2.2 q 0,0.6 -0.2,0.8 l 0.05,0.1 -0.4,0.1 q -1.1,0 -1.6,-2.2 L 11.65,44.1 H 11 l -0.1,-0.8 q 0,-0.7 0.35,-2.25 L 11.6,37.9 q 0,-1.5 -0.5,-3.1 l -0.5,-1.75 m 2.4,13.35 0.1,0.45 -0.5,0.95 q -0.5,0.8 -0.5,1.8 0,1.65 -0.45,2.5 -0.5,-0.65 -0.5,-2.5 V 49.05 L 9.6,46.65 q 1.2,-0.6 1.9,0.55 l 0.05,0.05 q 0.4,-0.65 1.3,-0.85 H 13"
         fill="#9a9a9a"
         fill-rule="evenodd"
         stroke="none"
         id="path32" />
      <path
         d="m 6.9,23.45 q 1.25,0 1.25,1.25 0,1.2 -1.25,1.15 -1.25,0 -1.25,-1.2 -0.2,-1.2 1.25,-1.2 M 5.15,12.25 q 0.45,-1.5 1.85,-1.5 1.65,0 1.65,1.95 0,2.35 -1.75,1.5 -1.75,-0.8 -1.75,-1.95 m 3,23.9 q 0,1.25 -1.25,1.25 -1.45,0 -1.25,-1.2 0,-1.2 1.25,-1.2 1.25,-0.05 1.25,1.15 m 0.5,12 q 0,1.95 -1.65,1.95 -1.4,0 -1.85,-1.5 0,-1.15 1.75,-1.95 1.75,-0.85 1.75,1.5"
         fill="#d2d2d2"
         fill-rule="evenodd"
         stroke="none"
         id="path33" />
      <path
         d="m 17.7,7.95 q 1.15,2.75 1.15,4.75 0,1.25 -0.75,2.85 l -0.95,-0.1 q -0.9,0 -0.9,1.1 l 0.9,1.15 q 0.05,0.7 0.65,1.05 l 0.25,0.1 0.35,0.5 q 2.1,2.85 2.1,5.15 0,2.15 -0.55,3.1 l -1.7,2.15 -0.45,0.5 -1,0.2 q -0.45,0.1 -0.65,0.35 l -0.05,0.3 h 2.15 l 1.7,2.15 q 0.55,0.95 0.55,3.1 0,2.3 -2.1,5.15 L 18.05,42 17.8,42.1 q -0.6,0.35 -0.65,1.05 l -0.9,1.15 q 0,1.1 0.9,1.1 l 0.95,-0.1 q 0.75,1.6 0.75,2.85 0,2 -1.15,4.75 -1.9,4.45 -5.5,4.45 -5.35,0 -7.6,-3.4 -1.35,-2.05 -1.35,-4.8 0,-1.4 1.65,-3.4 l 0.75,-0.9 0.85,0.05 q 1.75,0 1.75,-1.1 L 5.9,41.4 q -2.35,-2.3 -2.35,-4.75 0,-2.05 1.8,-4.6 L 6,31.1 H 8.3 L 7.75,30.45 7.7,30.4 Q 7.1,30 6.25,30 H 6.15 L 6,29.75 5.35,28.8 q -1.8,-2.55 -1.8,-4.6 0,-2.45 2.35,-4.75 l 2.35,-2.4 q 0,-1.1 -1.75,-1.1 L 5.65,16 4.9,15.1 q -1.65,-2 -1.65,-3.4 0,-2.75 1.35,-4.8 2.25,-3.4 7.6,-3.4 3.6,0 5.5,4.45 m -6.05,0.8 q -0.5,0.65 -0.5,2.5 V 11.8 L 9.6,14.2 q 1.2,0.6 1.9,-0.55 l 0.05,-0.05 q 0.4,0.65 1.3,0.85 H 13 L 13.1,14 12.6,13.05 q -0.5,-0.8 -0.5,-1.8 0,-1.65 -0.45,-2.5 m -6.5,3.5 q 0,1.15 1.75,1.95 1.75,0.85 1.75,-1.5 0,-1.95 -1.65,-1.95 -1.4,0 -1.85,1.5 m 1.75,11.2 q -1.45,0 -1.25,1.2 0,1.2 1.25,1.2 1.25,0.05 1.25,-1.15 0,-1.25 -1.25,-1.25 m 4.1,-6.7 -0.1,0.8 q 0,0.7 0.35,2.25 l 0.35,3.15 q 0,1.5 -0.5,3.1 l -0.5,1.75 q -0.05,0.55 0.65,1.05 l 1,-2.5 q 0.45,0.9 1.55,1.35 l 0.1,-0.5 q -1,-2.25 -1,-3.85 0,-1.4 0.85,-3.65 l 0.8,-2.2 -0.2,-0.8 0.05,-0.1 -0.4,-0.1 q -1.1,0 -1.6,2.2 L 11.65,16.75 H 11 m -0.4,16.3 0.5,1.75 q 0.5,1.6 0.5,3.1 l -0.35,3.15 Q 10.9,42.6 10.9,43.3 l 0.1,0.8 h 0.65 l 0.75,-1.95 q 0.5,2.2 1.6,2.2 l 0.4,-0.1 -0.05,-0.1 q 0.2,-0.2 0.2,-0.8 l -0.8,-2.2 Q 12.9,38.9 12.9,37.5 q 0,-1.6 1,-3.85 l -0.1,-0.5 q -1.1,0.45 -1.55,1.35 l -1,-2.5 q -0.7,0.5 -0.65,1.05 m -1.95,15.1 q 0,-2.35 -1.75,-1.5 -1.75,0.8 -1.75,1.95 0.45,1.5 1.85,1.5 1.65,0 1.65,-1.95 m -0.5,-12 q 0,-1.2 -1.25,-1.15 -1.25,0 -1.25,1.2 -0.2,1.2 1.25,1.2 1.25,0 1.25,-1.25 M 13,46.4 h -0.15 q -0.9,0.2 -1.3,0.85 L 11.5,47.2 Q 10.8,46.05 9.6,46.65 l 1.55,2.4 v 0.55 q 0,1.85 0.5,2.5 0.45,-0.85 0.45,-2.5 0,-1 0.5,-1.8 L 13.1,46.85 13,46.4"
         fill="#b1ada9"
         fill-rule="evenodd"
         stroke="none"
         id="path34" />
    </g>
    <g
       id="sprite4"
       transform="translate(0.75,0.75)">
      <use
         ffdec:characterId="783"
         height="33.650002"
         transform="translate(-0.75,-0.75)"
         width="47.400002"
         xlink:href="#shape5"
         id="use34" />
    </g>
    <g
       id="shape5"
       transform="translate(0.75,0.75)">
      <path
         d="M 41.4,11.8 Q 38.1,2.4 30.2,2.4 29.4,2.4 28.45,2.75 27.4,3.1 26.2,3.9 25.15,4.55 24.1,5.35 l -1,1.45 -0.5,0.7 V 7.55 L 22.5,7.65 22,8.25 27.6,6.9 Q 27.4,7.45 25.2,8 22.8,8.55 21,9.4 l -0.2,0.15 -0.6,0.25 -0.3,0.15 -2,1.65 h 0.9 6.6 q 1.85,-0.2 2.95,-0.9 l 0.1,-0.05 q 0.8,-0.45 1.35,-0.6 l 0.85,-1.4 q 0.6,-0.9 0.6,-1.7 l -0.2,-0.7 -0.3,-0.6 0.5,-0.05 q 0.9,0.75 0.9,2.35 0,0.7 -0.6,1.85 l -0.6,0.9 0.1,0.05 q 0,0.8 -1.7,1.7 l -0.9,0.4 -3.05,0.7 -6.4,0.15 q -4.35,-0.5 -10.7,4.35 -5.8,4.45 -5.8,6.4 0,0.95 3.2,3.1 3.45,2.4 5.45,1.75 L 17.4,29.2 28.45,28.45 Q 36,27.7 39.3,26.55 q 3.85,-1.4 3.85,-4.5 0,-5.2 -1.75,-10.25 M 42,28.35 Q 37.75,30.6 28.45,31.5 L 17.5,32.1 9.85,32.15 Q 5.25,31.45 2.4,29 0,26.95 0,24.9 q 0,-2.7 6.4,-7.95 4.5,-3.7 8.35,-4.85 v -0.25 l 0.1,-0.55 Q 15.15,9.95 17.1,8.4 L 17.55,8.05 V 7.6 q 0,-1.7 1.65,-3.4 1.7,-1.7 3.6,-0.3 0.9,-1 2.25,-2 1.7,-1.25 3.4,-1.7 L 31.4,0.05 33,0.1 q 12.9,4.15 12.9,22.1 0,4.1 -3.9,6.15 M 21.4,4.55 q -1.75,0 -1.75,1.7 l 0.1,0.8 1.3,-0.1 q 0.2,-1.1 1.05,-2.2 l -0.7,-0.2"
         fill="#9a9a9a"
         fill-rule="evenodd"
         stroke="none"
         id="path35" />
      <path
         d="m 21.4,4.55 0.7,0.2 q -0.85,1.1 -1.05,2.2 l -1.3,0.1 -0.1,-0.8 q 0,-1.7 1.75,-1.7"
         fill="#acacac"
         fill-rule="evenodd"
         stroke="none"
         id="path36" />
      <path
         d="m 27.4,16.85 0.1,0.5 -0.35,0.4 -0.5,0.35 -1.25,-0.2 -0.1,-0.6 0.1,-0.6 1.9,-0.05 0.1,0.2 m -5.75,0.5 q 0,1.2 -1.85,1.9 -3.95,1.5 -4.95,2.05 h -2.1 l -0.9,-0.6 -0.2,-0.6 q 0,-1.4 1.5,-2.5 2.4,-1.75 7.5,-1.3 1,0.15 1,1.05"
         fill="#d2d2d2"
         fill-rule="evenodd"
         stroke="none"
         id="path37" />
      <path
         d="m 41.4,11.8 q 1.75,5.05 1.75,10.25 0,3.1 -3.85,4.5 -3.3,1.15 -10.85,1.9 L 17.4,29.2 11.15,29.3 Q 9.15,29.95 5.7,27.55 2.5,25.4 2.5,24.45 2.5,22.5 8.3,18.05 14.65,13.2 19,13.7 l 6.4,-0.15 3.05,-0.7 0.9,-0.4 q 1.7,-0.9 1.7,-1.7 l -0.1,-0.05 0.6,-0.9 q 0.6,-1.15 0.6,-1.85 0,-1.6 -0.9,-2.35 l -0.5,0.05 0.3,0.6 0.2,0.7 q 0,0.8 -0.6,1.7 l -0.85,1.4 q -0.55,0.15 -1.35,0.6 l -0.1,0.05 q -1.1,0.7 -2.95,0.9 H 18.8 17.9 L 19.9,9.95 20.2,9.8 20.8,9.55 21,9.4 Q 22.8,8.55 25.2,8 27.4,7.45 27.6,6.9 L 22,8.25 22.5,7.65 22.6,7.55 V 7.5 l 0.5,-0.7 1,-1.45 Q 25.15,4.55 26.2,3.9 27.4,3.1 28.45,2.75 29.4,2.4 30.2,2.4 q 7.9,0 11.2,9.4 m -19.75,5.55 q 0,-0.9 -1,-1.05 -5.1,-0.45 -7.5,1.3 -1.5,1.1 -1.5,2.5 l 0.2,0.6 0.9,0.6 h 2.1 q 1,-0.55 4.95,-2.05 1.85,-0.7 1.85,-1.9 m 5.75,-0.5 -0.1,-0.2 -1.9,0.05 -0.1,0.6 0.1,0.6 1.25,0.2 0.5,-0.35 0.35,-0.4 -0.1,-0.5"
         fill="#a5a19f"
         fill-rule="evenodd"
         stroke="none"
         id="path38" />
      <path
         d="M 42,28.35 Q 37.75,30.6 28.45,31.5 L 17.5,32.1 9.85,32.15 Q 5.25,31.45 2.4,29 0,26.95 0,24.9 q 0,-2.7 6.4,-7.95 4.5,-3.7 8.35,-4.85 v -0.25 l 0.1,-0.55 Q 15.15,9.95 17.1,8.4 L 17.55,8.05 V 7.6 q 0,-1.7 1.65,-3.4 1.7,-1.7 3.6,-0.3 0.9,-1 2.25,-2 1.7,-1.25 3.4,-1.7 L 31.4,0.05 33,0.1 q 12.9,4.15 12.9,22.1 0,4.1 -3.9,6.15 z"
         fill="none"
         stroke="#9a9a9a"
         stroke-linecap="round"
         stroke-linejoin="round"
         stroke-width="1.5"
         id="path39" />
    </g>
    <g
       id="sprite5"
       transform="translate(0.75,0.75)">
      <use
         ffdec:characterId="650"
         height="12.45"
         transform="translate(-0.75,-0.75)"
         width="19.1"
         xlink:href="#shape6"
         id="use39" />
    </g>
    <g
       id="shape6"
       transform="translate(0.75,0.75)">
      <path
         d="M 10.15,8.8 V 8.7 L 8.8,8.8 7.45,8.7 V 8.8 L 6,8.7 Q 5.2,8.55 5.15,7.8 L 5.2,7.35 8.6,7.15 12.4,7.35 12.45,7.8 Q 12.4,8.55 11.6,8.7 l -1.45,0.1 m 0,-7.3 V 1.4 q 2.65,0.1 2.4,1.65 L 12.3,4.2 q 0,0.5 0.75,0.5 0.65,0 1.15,-0.4 l 0.75,-0.4 q 1.3,0 1.15,1.3 l -0.05,1 -0.4,0.45 L 14.45,6.9 13.6,6.7 13.05,6.4 H 13 l -0.35,-0.15 -0.1,0.2 -1.4,-0.1 h -1 -1.1 -2.6 L 5.05,6.45 4.95,6.25 4.6,6.4 H 4.55 L 4,6.7 3.15,6.9 1.95,6.65 1.55,6.2 1.5,5.2 Q 1.35,3.9 2.65,3.9 L 3.4,4.3 Q 3.9,4.7 4.55,4.7 5.3,4.7 5.3,4.2 L 5.05,3.05 Q 4.8,1.5 7.45,1.4 V 1.5 L 8.9,1.4 10.15,1.5"
         fill="#ffffff"
         fill-rule="evenodd"
         stroke="none"
         id="path40" />
      <path
         d="m 14.15,2.55 q 2.45,-0.45 3.2,1.3 L 17.6,6.2 q 0,2.35 -2.65,2.35 L 14.1,8.4 14.3,9.3 q 0,1.65 -4.4,1.65 H 8.7 7.7 Q 3.3,10.95 3.3,9.3 L 3.5,8.4 2.65,8.55 Q 0,8.55 0,6.2 0,4.5 0.25,3.85 1,2.1 3.45,2.55 3.55,1.4 3.95,1 4.7,0.2 7.05,0 L 8.75,0.05 10.55,0 q 2.35,0.2 3.1,1 0.4,0.4 0.5,1.55 M 10.15,1.5 8.9,1.4 7.45,1.5 V 1.4 Q 4.8,1.5 5.05,3.05 L 5.3,4.2 Q 5.3,4.7 4.55,4.7 3.9,4.7 3.4,4.3 L 2.65,3.9 q -1.3,0 -1.15,1.3 l 0.05,1 0.4,0.45 L 3.15,6.9 4,6.7 4.55,6.4 H 4.6 l 0.35,-0.15 0.1,0.2 1.4,-0.1 h 2.6 1.1 1 l 1.4,0.1 0.1,-0.2 L 13,6.4 h 0.05 l 0.55,0.3 0.85,0.2 1.2,-0.25 0.4,-0.45 0.05,-1 Q 16.25,3.9 14.95,3.9 L 14.2,4.3 Q 13.7,4.7 13.05,4.7 12.3,4.7 12.3,4.2 L 12.55,3.05 Q 12.8,1.5 10.15,1.4 v 0.1 m 0,7.3 1.45,-0.1 Q 12.4,8.55 12.45,7.8 L 12.4,7.35 8.6,7.15 5.2,7.35 5.15,7.8 Q 5.2,8.55 6,8.7 L 7.45,8.8 V 8.7 L 8.8,8.8 10.15,8.7 v 0.1"
         fill="#6b6b6b"
         fill-rule="evenodd"
         stroke="none"
         id="path41" />
      <path
         d="m 14.15,2.55 q 2.45,-0.45 3.2,1.3 L 17.6,6.2 q 0,2.35 -2.65,2.35 L 14.1,8.4 14.3,9.3 q 0,1.65 -4.4,1.65 H 8.7 7.7 Q 3.3,10.95 3.3,9.3 L 3.5,8.4 2.65,8.55 Q 0,8.55 0,6.2 0,4.5 0.25,3.85 1,2.1 3.45,2.55 3.55,1.4 3.95,1 4.7,0.2 7.05,0 L 8.75,0.05 10.55,0 q 2.35,0.2 3.1,1 0.4,0.4 0.5,1.55 z"
         fill="none"
         stroke="#6b6b6b"
         stroke-linecap="round"
         stroke-linejoin="round"
         stroke-width="1.5"
         id="path42" />
    </g>
    <g
       id="sprite6">
      <use
         ffdec:characterId="755"
         height="17"
         width="28.299999"
         xlink:href="#shape7"
         id="use42" />
    </g>
    <g
       id="shape7">
      <path
         d="M 23.75,2.95 24.7,5.5 q 0.6,1.25 2.2,1.35 1.4,0.1 1.4,0.6 l -0.25,0.6 -0.7,0.4 Q 23.2,8.45 22,5.6 L 21.3,3.65 q -0.5,-0.9 -1.5,-0.9 l -1.6,0.2 q 0.75,0.6 0.75,1.5 0,1.1 -0.6,2.45 -0.65,1.4 -0.65,2.45 0,1.1 1.6,2.2 1.65,1.15 3.4,1.15 l 0.55,-0.1 0.05,-0.1 q 0,-0.45 -0.5,-0.45 l 0.05,-0.2 0.7,0.65 0.15,0.15 1.6,-0.55 0.25,0.15 0.05,0.45 q 0,0.6 -0.9,1.05 L 22.25,14.2 20.8,14.05 q -2.55,0 -3.8,-2.1 l -0.3,0.3 q -0.9,0.9 -0.9,1.3 0,0.7 0.55,1.6 L 17.25,16.6 17,17 Q 15.35,15.65 14.95,14.8 14.7,14.25 14.7,12.75 L 15.4,11.25 16.1,9.4 15.95,8 16.3,6.75 16.6,5.2 q 0,-0.6 -0.95,-0.85 L 15.1,4.2 q -1.6,0.85 -3.3,2.35 -4.4,3.8 -8.6,3.8 H 2.95 l -1.1,0.35 q -1.5,0 -1.8,-1.1 L 0,8.4 0.1,7.45 Q 0.2,7.3 0.4,7.25 l 0.1,-0.4 0.8,0.2 H 1.75 L 1.8,7.35 3.85,7.7 4.5,7.45 Q 8.7,6 9.35,5.45 L 11.9,3 q 1.15,-1.15 2.95,-2 3.75,-1.75 6.5,-0.5 2.05,0.9 2.4,2.45"
         fill="#6b6b6b"
         fill-rule="evenodd"
         stroke="none"
         id="path43" />
    </g>
    <g
       id="sprite7"
       transform="translate(0.75,0.75)">
      <use
         ffdec:characterId="767"
         height="17.1"
         transform="translate(-0.75,-0.75)"
         width="14.65"
         xlink:href="#shape8"
         id="use43" />
    </g>
    <g
       id="shape8"
       transform="translate(0.75,0.75)">
      <path
         d="M 12.25,10.2 Q 11.5,12.05 10.3,13 L 9.35,14.1 Q 7.65,15.6 5.2,15.6 2.05,15.6 0.75,13.95 0,13 0,11.8 0,10.05 0.4,9.3 0.95,8.15 2.4,7.8 L 2.3,7.6 Q 2.15,7.15 2.15,5.4 2.15,2.65 3.85,1.15 5.4,-0.15 7.65,0 q 2.2,0.1 3.8,1.5 1.7,1.55 1.7,3.9 0,2.55 -0.9,4.8 M 2.75,9 Q 2.3,9.15 2,9.6 q -0.35,0.55 -0.35,1.35 0,0.65 0.75,1.35 1.05,0.95 2.85,0.95 h 0.5 l 2.05,-1.05 2.55,-1.6 0.9,-1.8 0.55,-2 Q 11.8,5.9 10.95,4.05 9.95,2 8.7,1.8 L 8.4,1.75 q -2.35,0 -3.5,1.2 L 4.35,3.7 Q 3.8,4.65 3.85,5.65 3.85,6.35 4.3,6.7 L 6.35,8.65 5.8,9.2 4.95,9.35 H 4.85 Q 3.8,9.3 3.15,8.85 L 3,8.9 2.75,9"
         fill="#6b6b6b"
         fill-rule="evenodd"
         stroke="none"
         id="path44" />
      <path
         d="M 8.7,1.8 Q 9.4,2.3 9.4,3.6 9.4,4.15 8.8,4.7 8.05,5.4 7,5.4 5.6,5.4 5.05,4.7 4.75,4.35 4.75,3.95 q 0,-0.6 0.15,-1 1.15,-1.2 3.5,-1.2 L 8.7,1.8 M 4.85,9.35 4.55,9.85 Q 4.25,10.2 3.8,10.2 L 3.25,10.15 2.85,9.9 2.75,9.1 V 9 L 3,8.9 3.15,8.85 q 0.65,0.45 1.7,0.5"
         fill="#ffffff"
         fill-rule="evenodd"
         stroke="none"
         id="path45" />
      <path
         d="M 8.7,1.8 Q 9.95,2 10.95,4.05 11.8,5.9 11.8,6.8 l -0.55,2 -0.9,1.8 -2.55,1.6 -2.05,1.05 H 5.25 Q 3.45,13.25 2.4,12.3 1.65,11.6 1.65,10.95 1.65,10.15 2,9.6 2.3,9.15 2.75,9 v 0.1 l 0.1,0.8 0.4,0.25 0.55,0.05 q 0.45,0 0.75,-0.35 l 0.3,-0.5 h 0.1 L 5.8,9.2 6.35,8.65 4.3,6.7 Q 3.85,6.35 3.85,5.65 3.8,4.65 4.35,3.7 L 4.9,2.95 q -0.15,0.4 -0.15,1 0,0.4 0.3,0.75 Q 5.6,5.4 7,5.4 8.05,5.4 8.8,4.7 9.4,4.15 9.4,3.6 9.4,2.3 8.7,1.8"
         fill="#c1aeae"
         fill-rule="evenodd"
         stroke="none"
         id="path46" />
      <path
         d="M 12.25,10.2 Q 11.5,12.05 10.3,13 L 9.35,14.1 Q 7.65,15.6 5.2,15.6 2.05,15.6 0.75,13.95 0,13 0,11.8 0,10.05 0.4,9.3 0.95,8.15 2.4,7.8 L 2.3,7.6 Q 2.15,7.15 2.15,5.4 2.15,2.65 3.85,1.15 5.4,-0.15 7.65,0 q 2.2,0.1 3.8,1.5 1.7,1.55 1.7,3.9 0,2.55 -0.9,4.8 z"
         fill="none"
         stroke="#6b6b6b"
         stroke-linecap="round"
         stroke-linejoin="round"
         stroke-width="1.5"
         id="path47" />
    </g>
    <g
       id="sprite8"
       transform="translate(0.75,0.75)">
      <use
         ffdec:characterId="783"
         height="33.650002"
         transform="translate(-0.75,-0.75)"
         width="47.400002"
         xlink:href="#shape9"
         id="use47" />
    </g>
    <g
       id="shape9"
       transform="translate(0.75,0.75)">
      <path
         d="M 41.4,11.8 Q 38.1,2.4 30.2,2.4 29.4,2.4 28.45,2.75 27.4,3.1 26.2,3.9 25.15,4.55 24.1,5.35 l -1,1.45 -0.5,0.7 V 7.55 L 22.5,7.65 22,8.25 27.6,6.9 Q 27.4,7.45 25.2,8 22.8,8.55 21,9.4 l -0.2,0.15 -0.6,0.25 -0.3,0.15 -2,1.65 h 0.9 6.6 q 1.85,-0.2 2.95,-0.9 l 0.1,-0.05 q 0.8,-0.45 1.35,-0.6 l 0.85,-1.4 q 0.6,-0.9 0.6,-1.7 l -0.2,-0.7 -0.3,-0.6 0.5,-0.05 q 0.9,0.75 0.9,2.35 0,0.7 -0.6,1.85 l -0.6,0.9 0.1,0.05 q 0,0.8 -1.7,1.7 l -0.9,0.4 -3.05,0.7 -6.4,0.15 q -4.35,-0.5 -10.7,4.35 -5.8,4.45 -5.8,6.4 0,0.95 3.2,3.1 3.45,2.4 5.45,1.75 L 17.4,29.2 28.45,28.45 Q 36,27.7 39.3,26.55 q 3.85,-1.4 3.85,-4.5 0,-5.2 -1.75,-10.25 M 42,28.35 Q 37.75,30.6 28.45,31.5 L 17.5,32.1 9.85,32.15 Q 5.25,31.45 2.4,29 0,26.95 0,24.9 q 0,-2.7 6.4,-7.95 4.5,-3.7 8.35,-4.85 v -0.25 l 0.1,-0.55 Q 15.15,9.95 17.1,8.4 L 17.55,8.05 V 7.6 q 0,-1.7 1.65,-3.4 1.7,-1.7 3.6,-0.3 0.9,-1 2.25,-2 1.7,-1.25 3.4,-1.7 L 31.4,0.05 33,0.1 q 12.9,4.15 12.9,22.1 0,4.1 -3.9,6.15 M 21.4,4.55 q -1.75,0 -1.75,1.7 l 0.1,0.8 1.3,-0.1 q 0.2,-1.1 1.05,-2.2 l -0.7,-0.2"
         fill="#6b6b6b"
         fill-rule="evenodd"
         stroke="none"
         id="path48" />
      <path
         d="m 21.4,4.55 0.7,0.2 q -0.85,1.1 -1.05,2.2 l -1.3,0.1 -0.1,-0.8 q 0,-1.7 1.75,-1.7"
         fill="#9a9a9a"
         fill-rule="evenodd"
         stroke="none"
         id="path49" />
      <path
         d="m 27.4,16.85 0.1,0.5 -0.35,0.4 -0.5,0.35 -1.25,-0.2 -0.1,-0.6 0.1,-0.6 1.9,-0.05 0.1,0.2 m -5.75,0.5 q 0,1.2 -1.85,1.9 -3.95,1.5 -4.95,2.05 h -2.1 l -0.9,-0.6 -0.2,-0.6 q 0,-1.4 1.5,-2.5 2.4,-1.75 7.5,-1.3 1,0.15 1,1.05"
         fill="#ffffff"
         fill-rule="evenodd"
         stroke="none"
         id="path50" />
      <path
         d="m 41.4,11.8 q 1.75,5.05 1.75,10.25 0,3.1 -3.85,4.5 -3.3,1.15 -10.85,1.9 L 17.4,29.2 11.15,29.3 Q 9.15,29.95 5.7,27.55 2.5,25.4 2.5,24.45 2.5,22.5 8.3,18.05 14.65,13.2 19,13.7 l 6.4,-0.15 3.05,-0.7 0.9,-0.4 q 1.7,-0.9 1.7,-1.7 l -0.1,-0.05 0.6,-0.9 q 0.6,-1.15 0.6,-1.85 0,-1.6 -0.9,-2.35 l -0.5,0.05 0.3,0.6 0.2,0.7 q 0,0.8 -0.6,1.7 l -0.85,1.4 q -0.55,0.15 -1.35,0.6 l -0.1,0.05 q -1.1,0.7 -2.95,0.9 H 18.8 17.9 L 19.9,9.95 20.2,9.8 20.8,9.55 21,9.4 Q 22.8,8.55 25.2,8 27.4,7.45 27.6,6.9 L 22,8.25 22.5,7.65 22.6,7.55 V 7.5 l 0.5,-0.7 1,-1.45 Q 25.15,4.55 26.2,3.9 27.4,3.1 28.45,2.75 29.4,2.4 30.2,2.4 q 7.9,0 11.2,9.4 m -19.75,5.55 q 0,-0.9 -1,-1.05 -5.1,-0.45 -7.5,1.3 -1.5,1.1 -1.5,2.5 l 0.2,0.6 0.9,0.6 h 2.1 q 1,-0.55 4.95,-2.05 1.85,-0.7 1.85,-1.9 m 5.75,-0.5 -0.1,-0.2 -1.9,0.05 -0.1,0.6 0.1,0.6 1.25,0.2 0.5,-0.35 0.35,-0.4 -0.1,-0.5"
         fill="#877d77"
         fill-rule="evenodd"
         stroke="none"
         id="path51" />
      <path
         d="M 42,28.35 Q 37.75,30.6 28.45,31.5 L 17.5,32.1 9.85,32.15 Q 5.25,31.45 2.4,29 0,26.95 0,24.9 q 0,-2.7 6.4,-7.95 4.5,-3.7 8.35,-4.85 v -0.25 l 0.1,-0.55 Q 15.15,9.95 17.1,8.4 L 17.55,8.05 V 7.6 q 0,-1.7 1.65,-3.4 1.7,-1.7 3.6,-0.3 0.9,-1 2.25,-2 1.7,-1.25 3.4,-1.7 L 31.4,0.05 33,0.1 q 12.9,4.15 12.9,22.1 0,4.1 -3.9,6.15 z"
         fill="none"
         stroke="#6b6b6b"
         stroke-linecap="round"
         stroke-linejoin="round"
         stroke-width="1.5"
         id="path52" />
    </g>
    <g
       id="sprite9"
       transform="translate(15,15.55)">
      <use
         ffdec:characterId="801"
         height="39.900002"
         transform="matrix(0.4973,0,0,0.4973,-12.45,-9.95)"
         width="50.049999"
         xlink:href="#sprite10"
         id="use52" />
    </g>
    <g
       id="sprite10">
      <use
         ffdec:characterId="800"
         height="39.900002"
         width="50.049999"
         xlink:href="#shape10"
         id="use53" />
    </g>
    <g
       id="shape10">
      <path
         d="M 42.65,19.2 42.3,20 q 2.7,1.1 3.75,2.3 2.4,2.35 3.35,5.25 0.65,2.1 0.65,5.05 0,2.35 -1,4.2 -1.75,3.1 -5.85,3.1 L 42.1,39.75 40.5,39.7 H 3.8 Q 2.55,39.25 2.1,38.85 L 1.75,38.15 Q 0.9,37.15 0.45,35.3 L 0,31 Q 0,27.4 1.1,25.6 2.85,22.7 8.2,20.85 L 9.1,20.75 9.05,20.6 8.7,17.5 q 0,-2.25 2.55,-4.9 3.3,-3.45 8.55,-2.85 L 20.85,9.4 22.5,8.2 23.55,7.45 Q 25.1,5.7 25.2,3.95 L 24.85,3.5 24.65,3.25 Q 23.7,2.95 23.7,1.9 q 0,-1.25 1.75,-1.7 l 3.85,0.2 q 5.55,1.65 5.55,7.3 v 0.65 l 2.2,0.4 q 5.8,1.75 5.8,8.05 l -0.2,2.4 m 2.7,16 0.55,-0.8 0.3,-1.75 q 0,-2.2 -1.15,-4.75 L 44.7,27.15 Q 43.6,25 42.05,23.85 L 41.6,23.5 q -1.9,-1.2 -4.4,-1.2 l -2.95,0.25 -0.9,0.1 -2.75,0.3 -1.25,0.1 q -0.15,0.15 -0.15,-0.5 7.05,-3.25 7.6,-3.4 L 39.05,19.05 39,16.5 v -0.25 l -0.15,-1.1 q -0.9,-3.4 -5.95,-3.5 h -0.3 q -0.6,0 -1,-0.5 L 31.45,10.9 31.2,10.1 31.3,9.6 V 9.45 l 0.15,-1.7 q 0,-2.85 -2,-3.8 L 28.3,3.6 28.35,4.5 q 0,1.85 -1.55,4.2 -1.2,1.8 -2.8,2.6 l -0.85,0.55 -0.4,0.25 -0.15,0.1 q -0.2,0.25 -0.8,0.5 l -1.9,0.75 -2.55,0.7 -0.85,0.25 -1.95,0.8 q -2.6,1.35 -2.6,3.55 v 0.15 l 0.45,2.55 v 0.15 l 0.2,0.3 0.05,0.2 2.65,1.6 2.4,-0.65 0.2,-0.05 0.2,0.4 q 0,1.1 -4.2,1.5 L 13.55,24.85 11.65,24.1 H 11.6 l -0.3,0.1 -3.05,1 q -0.8,0.25 -1.4,0.65 l -0.8,0.5 -0.1,0.05 q -2.15,1.7 -2.15,4.8 0,2.05 0.95,4.1 L 5,35.8 H 5.95 40.5 l 3.4,0.2 0.9,-0.45 0.55,-0.35"
         fill="#6b6b6b"
         fill-rule="evenodd"
         stroke="none"
         id="path53" />
      <path
         d="m 33.3,25.75 -0.1,-0.3 q 0,-0.55 0.85,-0.8 l 4.25,-0.3 0.8,0.6 0.35,0.55 q 0,0.7 -0.35,0.9 l -2.4,0.25 h -0.55 q -2.2,-0.05 -2.8,-0.6 L 33.3,25.75 M 23.2,15.05 v 0.15 q 0,0.85 -0.9,1.6 -1.2,1 -3.15,1 l -1.45,-0.05 -1.1,-0.2 -0.5,-0.5 q 0.9,-1.95 4,-2.65 2.9,-0.65 3.1,0.65 m -9.15,3.15 0.95,0.1 0.1,0.5 -0.4,0.25 -0.65,-0.5 V 18.2"
         fill="#ffffff"
         fill-rule="evenodd"
         stroke="none"
         id="path54" />
      <path
         d="m 29.2,22.55 q -2.65,0.85 -3.35,1.8 l -2,-0.15 Q 22,24.1 21.3,24.65 l 2.65,1 5.8,0.7 3.55,-0.6 0.05,0.3 q 0.6,0.55 2.8,0.6 3.6,1.25 5.05,2.15 1.95,1.3 3.4,3.35 l 0.7,1.2 0.05,1.45 v 0.4 L 44.8,35.55 43.9,36 40.5,35.8 H 5.95 l -0.4,-2.95 q 0,-2.7 4.05,-5.55 l 3.95,-2.45 0.35,0.05 q 4.2,-0.4 4.2,-1.5 L 17.9,23 17.7,23.05 15.3,23.7 12.65,22.1 12.6,21.9 q 0.65,-0.4 1.5,-1.6 1.4,-1.9 2.6,-2.25 l 1,-0.3 1.45,0.05 q 1.95,0 3.15,-1 0.9,-0.75 0.9,-1.6 v -0.15 l 1.5,-1 q 1.85,-1.4 3.35,-4.7 1.4,-3 1.4,-5 v -0.4 q 2,0.95 2,3.8 L 31.3,9.45 V 9.6 l -0.1,0.5 0.25,0.8 0.15,0.25 q -0.15,0.15 -0.15,0.4 0,0.7 2.95,2.75 2.6,1.8 4.6,2.2 l 0.05,2.55 -2.25,0.1 q -0.55,0.15 -7.6,3.4"
         fill="#84756e"
         fill-rule="evenodd"
         stroke="none"
         id="path55" />
      <path
         d="m 29.2,22.55 q 0,0.65 0.15,0.5 l 1.25,-0.1 2.75,-0.3 0.9,-0.1 2.95,-0.25 q 2.5,0 4.4,1.2 l 0.45,0.35 q 1.55,1.15 2.65,3.3 l 0.35,0.75 q 1.15,2.55 1.15,4.75 l -0.3,1.75 -0.55,0.8 V 34.8 L 45.3,33.35 44.6,32.15 Q 43.15,30.1 41.2,28.8 39.75,27.9 36.15,26.65 h 0.55 l 2.4,-0.25 q 0.35,-0.2 0.35,-0.9 l -0.35,-0.55 -0.8,-0.6 -4.25,0.3 q -0.85,0.25 -0.85,0.8 l 0.1,0.3 -3.55,0.6 -5.8,-0.7 -2.65,-1 Q 22,24.1 23.85,24.2 l 2,0.15 q 0.7,-0.95 3.35,-1.8 M 5.95,35.8 H 5 L 4.75,35.3 Q 3.8,33.25 3.8,31.2 q 0,-3.1 2.15,-4.8 l 0.1,-0.05 0.8,-0.5 q 0.6,-0.4 1.4,-0.65 l 3.05,-1 0.3,-0.1 h 0.05 l 1.9,0.75 -3.95,2.45 q -4.05,2.85 -4.05,5.55 l 0.4,2.95 M 12.6,21.9 12.4,21.6 V 21.45 L 11.95,18.9 v -0.15 q 0,-2.2 2.6,-3.55 l 1.95,-0.8 0.85,-0.25 2.55,-0.7 1.9,-0.75 q 0.6,-0.25 0.8,-0.5 l 0.15,-0.1 0.4,-0.25 L 24,11.3 q 1.6,-0.8 2.8,-2.6 1.55,-2.35 1.55,-4.2 L 28.3,3.6 29.45,3.95 v 0.4 q 0,2 -1.4,5 -1.5,3.3 -3.35,4.7 l -1.5,1 q -0.2,-1.3 -3.1,-0.65 -3.1,0.7 -4,2.65 l 0.5,0.5 1.1,0.2 -1,0.3 q -1.2,0.35 -2.6,2.25 -0.85,1.2 -1.5,1.6 m 19,-10.75 q 0.4,0.5 1,0.5 h 0.3 q 5.05,0.1 5.95,3.5 l 0.15,1.1 v 0.25 q -2,-0.4 -4.6,-2.2 -2.95,-2.05 -2.95,-2.75 0,-0.25 0.15,-0.4 M 14.05,18.2 v 0.35 l 0.65,0.5 0.4,-0.25 -0.1,-0.5 -0.95,-0.1"
         fill="#95847d"
         fill-rule="evenodd"
         stroke="none"
         id="path56" />
    </g>
    <g
       id="sprite11"
       transform="translate(0.75,0.75)">
      <use
         ffdec:characterId="749"
         height="18.5"
         transform="translate(-0.75,-0.75)"
         width="65.949997"
         xlink:href="#shape11"
         id="use56" />
    </g>
    <g
       id="shape11"
       transform="translate(0.75,0.75)">
      <path
         d="m 62.6,8.8 q -2.45,2.75 -8.8,4.45 h -7.6 l -3,-0.9 q -1.6,1.1 -8.3,2.5 Q 24.55,17 12.1,17 4.6,17 1.65,14.1 0,12.5 0,10.35 0,7.2 2.2,3.85 5.7,-1.4 12.55,0.5 L 22,0.6 25.2,0.85 30.1,0.25 48.05,0.15 V 0.1 H 61.2 q 1.75,0.05 2.6,1.35 0.65,0.9 0.65,2.05 0,3.25 -1.85,5.3 M 42.2,5.55 37.7,4.9 25,3.1 19.15,3.35 7.15,3.65 H 6.5 Q 5.35,4.4 4.5,5.75 3.05,8.1 3.05,10.5 q 0,1.1 1.9,2.2 2.5,1.4 7.15,1.4 L 25.45,13.15 32.8,12.1 38.6,11 39.45,10.8 38.75,10.5 Q 34.85,8.8 27,8.35 H 16.7 q -2.35,0.8 -8.6,1 -1.25,0 -1.25,-1.4 0,-0.9 1.4,-1.1 l 8.25,-0.7 h 10.8 q 7.75,0.55 11.6,2.35 4.6,2.1 7.7,2.6 L 53.7,11 q 3.25,-0.35 6,-2.8 2.4,-2.1 2.4,-3.6 0,-1.1 -0.3,-1.5 Q 60.9,2.05 57.75,2.25 L 55.45,2.3 H 53.1 l -5,0.05 -5.05,0.25 -3.75,0.05 2.2,0.5 q 8.45,2.3 13,2.95 L 53.7,6.45 49.85,6.65 48.6,6.5 42.2,5.55"
         fill="#6b6b6b"
         fill-rule="evenodd"
         stroke="none"
         id="path57" />
      <path
         d="m 55.45,2.3 4.5,0.1 0.15,0.1 0.1,0.4 q 0,0.55 -0.35,0.65 L 55.8,3.7 53.7,3.6 51.85,3.35 q -0.1,0.3 -0.1,-0.35 0,-0.6 1.35,-0.7 h 2.35 M 48.6,6.5 47.5,7 46.45,7.25 42.5,6.75 41.35,5.9 42.2,5.55 48.6,6.5 M 27.85,4.25 27.7,4.75 26.25,4.95 h -1.9 L 23.9,4.8 q -0.15,-0.1 -0.15,-0.55 0,-1.15 4.1,0 m -10.15,7 q 0.3,-0.5 1,-0.65 l 0.3,0.6 -0.65,0.65 -0.65,-0.6 M 15.8,11.2 q -1.1,1.3 -3.2,1.25 L 9.9,12.2 8.55,12 q -0.2,0 -0.2,-0.6 0,-0.85 2.15,-0.9 l 5.2,0.5 0.1,0.2 M 17.7,4.65 Q 15.95,5.45 11.75,6.1 L 6.85,6.65 6,6.45 5.55,6.1 q 0.7,-1.35 5.7,-1.95 5,-0.6 6.45,0.5"
         fill="#ffffff"
         fill-rule="evenodd"
         stroke="none"
         id="path58" />
      <path
         d="m 55.45,2.3 2.3,-0.05 q 3.15,-0.2 4.05,0.85 0.3,0.4 0.3,1.5 0,1.5 -2.4,3.6 -2.75,2.45 -6,2.8 l -7.1,0.1 Q 43.5,10.6 38.9,8.5 35.05,6.7 27.3,6.15 H 16.5 l -8.25,0.7 q -1.4,0.2 -1.4,1.1 0,1.4 1.25,1.4 6.25,-0.2 8.6,-1 H 27 q 7.85,0.45 11.75,2.15 l 0.7,0.3 -0.85,0.2 -5.8,1.1 -7.35,1.05 -13.35,0.95 q -4.65,0 -7.15,-1.4 -1.9,-1.1 -1.9,-2.2 0,-2.4 1.45,-4.75 0.85,-1.35 2,-2.1 h 0.65 l 12,-0.3 L 25,3.1 37.7,4.9 42.2,5.55 41.35,5.9 42.5,6.75 46.45,7.25 47.5,7 48.6,6.5 49.85,6.65 53.7,6.45 54.5,6.1 Q 49.95,5.45 41.5,3.15 L 39.3,2.65 43.05,2.6 48.1,2.35 53.1,2.3 q -1.35,0.1 -1.35,0.7 0,0.65 0.1,0.35 L 53.7,3.6 55.8,3.7 59.85,3.55 Q 60.2,3.45 60.2,2.9 L 60.1,2.5 59.95,2.4 55.45,2.3 M 17.7,4.65 q -1.45,-1.1 -6.45,-0.5 -5,0.6 -5.7,1.95 L 6,6.45 6.85,6.65 11.75,6.1 Q 15.95,5.45 17.7,4.65 M 15.8,11.2 15.7,11 10.5,10.5 q -2.15,0.05 -2.15,0.9 0,0.6 0.2,0.6 l 1.35,0.2 2.7,0.25 q 2.1,0.05 3.2,-1.25 m 1.9,0.05 0.65,0.6 L 19,11.2 18.7,10.6 q -0.7,0.15 -1,0.65 m 10.15,-7 q -4.1,-1.15 -4.1,0 0,0.45 0.15,0.55 l 0.45,0.15 h 1.9 l 1.45,-0.2 0.15,-0.5"
         fill="#cebebe"
         fill-rule="evenodd"
         stroke="none"
         id="path59" />
      <path
         d="m 62.6,8.8 q -2.45,2.75 -8.8,4.45 h -7.6 l -3,-0.9 q -1.6,1.1 -8.3,2.5 Q 24.55,17 12.1,17 4.6,17 1.65,14.1 0,12.5 0,10.35 0,7.2 2.2,3.85 5.7,-1.4 12.55,0.5 L 22,0.6 25.2,0.85 30.1,0.25 48.05,0.15 V 0.1 H 61.2 q 1.75,0.05 2.6,1.35 0.65,0.9 0.65,2.05 0,3.25 -1.85,5.3 z"
         fill="none"
         stroke="#6b6b6b"
         stroke-linecap="round"
         stroke-linejoin="round"
         stroke-width="1.5"
         id="path60" />
    </g>
    <g
       id="sprite12"
       transform="translate(5.4,4)">
      <use
         ffdec:characterId="43"
         height="8"
         transform="translate(-5.4,-4)"
         width="10.8"
         xlink:href="#shape12"
         id="use60" />
    </g>
    <g
       id="shape12"
       transform="translate(5.4,4)">
      <path
         d="m 2.9,-0.35 q 0,-1.25 1.25,-1.25 1.25,0 1.25,1.2 0,1.3 -1.25,1.3 Q 3.6,0.9 3.25,0.5 2.9,0.15 2.9,-0.35 m 0.35,-2.3 q 0,0.55 -0.35,0.9 -0.4,0.45 -1,0.45 -1.35,0 -1.35,-1.4 0,-1.3 1.35,-1.3 1.35,0 1.35,1.35 m -3.1,1.9 h 0.2 q 2.6,0.1 2.6,2.8 l -0.3,1 Q 2.05,4 0.45,4 H 0.35 0.15 0.1 -0.45 q -1.6,0 -2.2,-0.95 l -0.3,-1 q 0,-2.8 2.8,-2.8 h 0.3 M -1.55,-4 q 1.35,0 1.35,1.35 0,0.55 -0.4,0.9 -0.4,0.45 -0.95,0.45 -1.4,0 -1.4,-1.4 0,-1.3 1.4,-1.3 m -2.6,2.4 q 1.25,0 1.25,1.25 0,0.5 -0.35,0.85 -0.35,0.4 -0.9,0.4 -1.25,0 -1.25,-1.3 0,-1.2 1.25,-1.2"
         fill="#9a9a9a"
         fill-rule="evenodd"
         stroke="none"
         id="path61" />
    </g>
  </defs>
</svg>
