<?xml version="1.0" encoding="UTF-8" standalone="no"?>
<svg
   ffdec:objectType="frame"
   height="72.849998"
   width="116.15"
   version="1.1"
   id="svg9"
   sodipodi:docname="1.svg"
   xmlns:inkscape="http://www.inkscape.org/namespaces/inkscape"
   xmlns:sodipodi="http://sodipodi.sourceforge.net/DTD/sodipodi-0.dtd"
   xmlns:xlink="http://www.w3.org/1999/xlink"
   xmlns="http://www.w3.org/2000/svg"
   xmlns:svg="http://www.w3.org/2000/svg"
   xmlns:ffdec="https://www.free-decompiler.com/flash">
  <sodipodi:namedview
     id="namedview9"
     pagecolor="#ffffff"
     bordercolor="#000000"
     borderopacity="0.25"
     inkscape:showpageshadow="2"
     inkscape:pageopacity="0.0"
     inkscape:pagecheckerboard="0"
     inkscape:deskcolor="#d1d1d1"
     fit-margin-top="5"
     fit-margin-left="5"
     fit-margin-right="5"
     fit-margin-bottom="5" />
  <g
     transform="translate(58.1,36.4)"
     id="g1">
    <use
       ffdec:characterId="1428"
       height="72.849998"
       transform="translate(-58.1,-36.4)"
       width="116.15"
       xlink:href="#shape0"
       id="use1" />
    <use
       ffdec:characterId="69"
       height="1.5"
       id="subplatform1"
       transform="matrix(0.0627,0,0.317,0.86,-41.3349,-32.73)"
       width="1320.3"
       xlink:href="#sprite0" />
  </g>
  <defs
     id="defs9">
    <g
       id="shape0"
       transform="translate(58.1,36.4)">
      <path
         d="m -20.05,-15 -0.25,0.4 -0.65,0.5 0.9,-0.9 m -29.3,-13.3 q 2.1,-1.95 3.6,-2.4 l 0.75,-0.1 -4.35,2.5"
         fill="#919191"
         fill-rule="evenodd"
         stroke="none"
         id="path1" />
      <path
         d="m 28.9,-32.6 -0.25,-0.15 -0.3,-0.25 -5.05,-0.55 h -0.35 q -1.2,1.15 -1.2,1.6 0,0.55 1.15,1.4 1.35,1 3,1 1.25,0 2.25,-1.45 0.75,-1.15 0.75,-1.6 m 10.15,2.05 q -4.05,-1.4 -8.95,-2.2 l -0.05,0.25 q 0,0.85 -0.95,2.3 -1.25,1.8 -2.95,1.8 -2.6,0 -4.15,-1.3 -1.25,-1.05 -1.25,-2.05 0,-0.85 0.65,-1.8 H 11.25 l 0.05,0.05 q 1.4,1.1 1.4,2.55 0,1.3 -0.75,2.3 -1.05,1.5 -3.45,1.5 -3.05,0 -4.2,-1.4 -0.55,-0.7 -0.55,-1.5 0,-2.35 1.1,-3.5 h -28.2 q -6.85,0.5 -12.35,1.95 0.8,0.2 1.5,0.7 1,0.7 1,1.5 0,0.55 -0.65,1.85 l -0.45,0.85 -0.8,0.95 h -2.45 l -0.5,-0.2 -0.6,-0.25 -0.15,-0.1 -0.4,-0.3 -0.2,-0.15 -0.3,-0.6 -0.05,-0.2 0.05,-0.8 0.1,-0.8 0.35,-1.05 0.25,-0.4 -0.35,0.15 -0.65,0.2 -0.7,0.3 -1.5,0.6 -0.3,0.15 -1.9,0.9 -0.95,0.55 -1.35,0.85 -1.65,1.15 -3.3,3.05 1.65,0.05 0.15,0.1 0.25,0.2 q 0.5,0.4 0.5,1.1 0,0.65 -0.75,1.75 -0.6,0.95 -1.3,1.3 l -0.1,0.05 -0.35,0.1 -0.35,0.05 h -1.65 l -0.55,-0.4 q -0.55,1.55 -0.55,3.15 l 0.3,1.8 0.05,0.05 0.5,0.9 q 0.7,0.95 2.05,1.6 4.85,2.35 18.05,1.45 H 33.7 q 13.2,0.9 18.05,-1.45 1.25,-0.6 2,-1.5 0.9,-1.2 0.9,-2.85 l -0.1,-1.3 q -0.65,-4.9 -6.25,-9.2 -0.7,-0.55 -1.45,-1.05 l -1.3,-0.85 -1.05,-0.55 -0.25,-0.15 -0.3,-0.15 -1.35,-0.65 -0.25,-0.1 -0.5,-0.25 -2.8,-1.05 m -57.95,11.75 0.2,0.75 q 0,0.9 -1,2.5 l -0.35,0.55 -0.9,0.9 q -0.55,0.4 -1.15,0.4 -1.85,0 -2.85,-0.75 l -0.65,-0.7 -0.4,-1.1 -0.05,-0.4 v -0.4 l 0.15,-1.95 0.15,-0.65 0.65,-0.7 0.95,-0.5 0.45,-0.1 h 0.05 l 0.2,-0.05 0.9,-0.1 1.7,0.05 0.2,0.2 0.15,0.1 0.3,0.35 0.3,0.25 1,1.35 m -24.65,4.25 -0.95,-0.45 q -0.75,-0.55 -1,-1.6 0,-1.8 0.35,-2.5 0.55,-1.15 2.65,-2.05 h 2.2 l 0.55,0.3 q 0.8,0.5 1.05,1.1 l 0.1,0.55 v 0.8 q 0,0.6 -0.15,1.2 l -0.7,1.3 -1.2,1.05 -1.95,0.4 -0.95,-0.1 m 65.95,-9.4 q 2.4,0.3 2.4,2.65 0,1.35 -0.4,2.25 -0.6,1.2 -2.1,2.1 h -2.75 q -2.45,-0.9 -2.8,-1.35 -0.2,-0.25 -0.2,-1.7 0,-3.65 4.15,-4 h 0.8 l 0.9,0.05 m -14.9,8.8 q 0.55,-1.2 2.65,-1.25 2.45,-0.05 2.75,1.5 l 0.05,0.5 -0.3,1.6 q -0.45,1 -1.25,1 -2.4,0 -3.35,-0.65 Q 7.3,-13 7.3,-14.2 l 0.2,-0.95 m 33.75,1.8 q -0.85,-0.6 -1.05,-1 -0.15,-0.3 -0.15,-1.4 l 0.1,-1.45 q 0.25,-0.55 1.6,-1.6 3.2,0.1 4.35,1.15 0.7,0.6 0.7,1.85 0,0.65 -0.4,1.5 l -0.45,1 q 0,0.35 -0.35,0.4 l -0.55,0.1 h -2.9 -0.1 l -0.8,-0.55 M 38.8,-26.2 q 0,0.75 0.65,1.05 l 1.2,0.2 q 0.65,0 0.85,-0.7 l 0.05,-0.25 0.15,-0.65 -0.65,-0.3 h -0.1 l -1.4,-0.1 q -0.75,0.2 -0.75,0.75 m -0.45,1.4 q -0.3,-0.35 -0.3,-0.7 0,-2.9 2.2,-2.4 l 0.25,0.05 1.2,0.5 q 0.75,0.45 0.75,1.3 l -0.25,1.3 q -0.4,0.85 -1.55,0.85 l -1.55,-0.25 -0.45,-0.3 -0.25,-0.25 -0.05,-0.1 m -33.6,-6.35 q 0,1.15 0.3,1.5 l 2.25,1.4 h 2.4 l 1.35,-1.35 q 0.7,-0.8 0.7,-1.4 0,-1.7 -3.5,-2.4 -3.5,-0.7 -3.5,2.25 M 18,-21.3 q -0.3,0.75 -0.3,1.25 0,1.85 2.95,1.85 l 0.7,-0.1 0.2,-0.1 1.45,-1.2 q 0.8,-0.75 0.8,-1.05 0,-0.85 -0.55,-1.45 l -1.1,-0.65 -0.25,-0.05 -3,-0.1 q -0.55,0.55 -0.9,1.6 m -6,7 v -0.05 q -0.05,-0.85 -1.85,-0.95 l -1,0.1 q -0.85,0.2 -0.85,1.05 0,0.85 2.7,1.5 0.4,0 0.75,-0.85 L 12,-14.3 M 0.45,-19.15 q 1.95,0.5 1.95,2.35 l -0.15,0.5 -0.55,1.15 -1.25,1.75 h -1.9 q -1.3,-0.3 -2.15,-0.9 l -0.65,-0.6 -0.2,-0.65 q 0,-3.95 3.45,-3.8 l 1.45,0.2 m 0.85,2.45 q 0,-1.2 -2.35,-1.6 -2.4,-0.45 -2.4,1.6 0,0.8 0.45,1.3 0.5,0.55 1.55,0.7 l 0.95,0.05 q 0.95,0 1.5,-1.05 l 0.3,-1 M 4.55,-1.2 4.5,-2.05 4.7,-3.9 H 4.9 L 5,-3.25 5.35,-1.4 5.5,-0.5 5.8,1.4 5.95,3.15 5.8,4.1 6,4.05 6.5,3.95 6.7,3.9 6.65,4.05 6.95,3.8 Q 8.05,3.3 8.75,2.1 L 8.85,2 Q 9.7,1 9.7,-0.25 L 9.5,-1.25 9.15,-3.15 8.65,-3.8 7.4,-7.05 H -7.45 l -1.75,4.8 -0.55,2 q 0,1.45 1.2,2.55 l 1.75,1.65 0.1,0.1 -0.05,-0.15 -0.05,-0.45 0.2,-3.6 0.65,-0.05 q 0.4,0.75 0.8,2.35 l 0.85,1.7 1.1,1.35 -0.1,0.3 -0.05,0.15 q -0.25,0.3 -0.85,0.3 l -1.7,-0.4 -0.3,0.1 -0.25,0.05 0.5,0.5 -0.05,0.3 -0.25,0.1 0.4,1.5 q 0.35,1.6 0.35,3.3 0,3.35 -1.35,8.45 l -2.45,8.6 v 3.1 1.4 L -1.9,33 H 0 1.9 2.35 l 6.9,-0.05 v -1.3 -3.2 L 6.95,20.35 6.8,19.85 6.75,19.7 6.6,19.05 6.15,17.15 6.05,16.5 5.7,18 l -0.1,0.45 -1,5.1 Q 3.95,26.9 3.9,28.7 L 3.55,28.75 3.3,21.5 3.75,18.3 Q 4.65,14 5.45,11.15 L 5.7,8.75 5.8,8.25 6.1,7 6.2,6.6 H 6.1 L 5.95,6.5 5.9,6.2 6.4,5.7 5.85,5.55 5.35,5.8 4.45,5.95 4.3,6.05 4.2,5.95 H 4.1 L 3.5,5.8 3.3,5.65 3.25,5.55 3.15,5.2 3.6,4.75 3.8,4.5 4.2,3.2 4.65,1.2 4.55,-1.2 m 6.35,-3.65 0.4,2.15 q 0.5,1.75 0.5,3.4 0,1.8 -0.8,3.05 l -0.75,0.9 -1.5,1.4 -0.45,5.4 q 0,1.55 1.9,8.65 1.95,7.05 1.95,10.85 v 2.75 q 0,0.8 -0.35,1.5 -0.85,0.75 -1.35,0.75 L 5.7,35.85 0.2,35.95 0,35.8 l -0.25,0.15 -5.45,-0.1 -4.8,0.1 q -0.5,0 -1.35,-0.75 l -0.25,-0.6 -0.1,-0.9 v -0.8 -1.95 q 0,-3.8 1.95,-10.85 1.9,-7.1 1.9,-8.65 l -0.45,-5.4 -1.5,-1.4 -0.75,-0.9 q -0.8,-1.25 -0.8,-3.05 0,-1.65 0.5,-3.4 l 0.3,-1.75 0.6,-2.2 -0.05,-0.15 -0.1,-0.25 -36.25,0.05 q -7.85,-1.6 -9.85,-3.8 -0.9,-1.05 -0.9,-4.35 0,-6.65 6.85,-12.1 l 1.4,-1.05 4.35,-2.5 5.75,-2.25 2.1,-0.6 q 6.1,-1.65 13.8,-2.25 H 23.3 q 14.95,1.2 23.75,6.2 l 3.65,2.45 q 3.25,2.6 5,5.45 1.85,3.15 1.85,6.65 0,3.3 -0.9,4.35 -2,2.2 -9.85,3.8 L 11,-7.05 h -0.45 l -0.15,0.4 0.5,1.8 m 30.3,-10.8 0.1,0.9 q 0.2,0.45 1.1,0.7 h 2.55 Q 46,-15.4 46,-15.95 l -0.3,-0.9 q -0.75,-0.6 -3.55,-0.95 l -0.9,1 -0.05,1.15 m -83.3,-4.15 -1.2,0.3 q -1.15,0.5 -1.15,1.7 0,2 1.75,2 1.15,0 1.95,-0.8 l 0.4,-0.45 0.4,-0.95 0.15,-0.35 q 0,-0.7 -0.35,-1.1 l -0.05,-0.05 -0.35,-0.2 -1.55,-0.1 m -8.1,-1.2 -0.05,-0.2 -0.2,-0.2 -0.3,-0.15 -1.4,-0.5 -0.75,1.05 -1.1,2.1 h 0.3 l 0.6,0.1 1.35,-0.2 0.65,-0.3 0.1,-0.05 0.4,-0.45 q 0.4,-0.55 0.4,-1.2 m 34.5,-7.4 q 0,-2.2 -2.5,-2.05 -2.5,0.15 -2.5,2.05 0,0.75 0.4,1.3 0.55,0.8 1.85,0.8 1.75,0 2.4,-0.95 0.35,-0.5 0.35,-1.15 m 0.15,2.25 q -1.15,1.1 -3.3,1.1 -2,0 -2.85,-2.4 0,-4.1 3.55,-4.3 3.55,-0.2 3.55,3.25 0,1.4 -0.95,2.35 M -5.3,-27.3 q 0.3,0.4 1.6,0.4 0.95,0 1.15,-0.7 l 0.05,-0.7 -0.05,-0.9 -2.7,0.25 -0.2,0.95 0.15,0.7 m -0.95,-0.5 q 0,-2.2 2.4,-2.3 2.35,-0.15 2.35,1.95 l -0.1,1.25 -1.2,1.1 h -1.95 q -1.2,-0.4 -1.4,-0.9 l -0.1,-1.1 m -31.6,-1.9 -0.35,0.45 -0.45,0.9 -0.05,0.15 0.1,0.5 0.05,0.15 0.15,0.2 0.9,0.35 0.3,0.05 h 1.75 l 0.65,-1.2 q 0.35,-0.9 0.35,-1.25 0,-0.4 -0.75,-0.55 l -1.95,-0.3 -0.15,-0.05 -0.55,0.6 m 13.7,10.25 -0.7,0.85 -0.1,0.7 v 0.4 0.25 l 0.05,0.6 q 0.15,0.7 0.65,1.1 l 0.1,0.1 0.4,0.2 0.7,0.2 0.85,0.05 h 0.05 l 0.6,-0.1 0.7,-0.4 0.55,-0.65 0.3,-0.4 0.1,-0.2 0.2,-0.65 -0.25,-0.8 -0.35,-0.6 -0.05,-0.05 -0.8,-0.95 -2.3,-0.1 -0.25,0.15 -0.2,0.1 -0.25,0.15 v 0.05 M 1.95,4.9 2,5.1 1.6,5.65 1.15,6.05 0,5.3 -0.4,5.6 -0.95,5.95 -1.2,6.05 -1.4,5.85 -1.8,5.5 -2.05,5.1 -1.95,4.8 Q -1.8,4.3 -1.05,3.55 L -1,3.5 -0.25,2.25 0,2.5 0.2,2.25 0.95,3.5 1,3.55 1.95,4.9"
         fill="#6b6b6b"
         fill-rule="evenodd"
         stroke="none"
         id="path2" />
      <path
         d="m 28.9,-32.6 q 0,0.45 -0.75,1.6 -1,1.45 -2.25,1.45 -1.65,0 -3,-1 -1.15,-0.85 -1.15,-1.4 0,-0.45 1.2,-1.6 h 0.35 l 5.05,0.55 0.3,0.25 0.25,0.15 m 9.9,6.4 q 0,-0.55 0.75,-0.75 l 1.4,0.1 h 0.1 l 0.65,0.3 -0.15,0.65 -0.05,0.25 q -0.2,0.7 -0.85,0.7 l -1.2,-0.2 Q 38.8,-25.45 38.8,-26.2 M 18,-21.3 q 0.35,-1.05 0.9,-1.6 l 3,0.1 0.25,0.05 1.1,0.65 q 0.55,0.6 0.55,1.45 0,0.3 -0.8,1.05 l -1.45,1.2 -0.2,0.1 -0.7,0.1 q -2.95,0 -2.95,-1.85 0,-0.5 0.3,-1.25 M 4.75,-31.15 q 0,-2.95 3.5,-2.25 3.5,0.7 3.5,2.4 0,0.6 -0.7,1.4 L 9.7,-28.25 H 7.3 l -2.25,-1.4 q -0.3,-0.35 -0.3,-1.5 m 7.25,16.85 -0.25,0.8 q -0.35,0.85 -0.75,0.85 -2.7,-0.65 -2.7,-1.5 0,-0.85 0.85,-1.05 l 1,-0.1 q 1.8,0.1 1.85,0.95 v 0.05 m -10.7,-2.4 -0.3,1 q -0.55,1.05 -1.5,1.05 l -0.95,-0.05 q -1.05,-0.15 -1.55,-0.7 -0.45,-0.5 -0.45,-1.3 0,-2.05 2.4,-1.6 2.35,0.4 2.35,1.6 m 39.9,1.05 0.05,-1.15 0.9,-1 q 2.8,0.35 3.55,0.95 l 0.3,0.9 q 0,0.55 -1.05,1.9 H 42.4 q -0.9,-0.25 -1.1,-0.7 l -0.1,-0.9 m -83.3,-4.15 1.55,0.1 0.35,0.2 0.05,0.05 q 0.35,0.4 0.35,1.1 l -0.15,0.35 -0.4,0.95 -0.4,0.45 q -0.8,0.8 -1.95,0.8 -1.75,0 -1.75,-2 0,-1.2 1.15,-1.7 l 1.2,-0.3 m 26.4,-8.6 q 0,0.65 -0.35,1.15 -0.65,0.95 -2.4,0.95 -1.3,0 -1.85,-0.8 -0.4,-0.55 -0.4,-1.3 0,-1.9 2.5,-2.05 2.5,-0.15 2.5,2.05 m -34.5,7.4 q 0,0.65 -0.4,1.2 l -0.4,0.45 -0.1,0.05 -0.65,0.3 -1.35,0.2 -0.6,-0.1 H -54 l 1.1,-2.1 0.75,-1.05 1.4,0.5 0.3,0.15 0.2,0.2 0.05,0.2 m 44.9,-6.3 -0.15,-0.7 0.2,-0.95 2.7,-0.25 0.05,0.9 -0.05,0.7 q -0.2,0.7 -1.15,0.7 -1.3,0 -1.6,-0.4 m -32.55,-2.4 0.55,-0.6 0.15,0.05 1.95,0.3 q 0.75,0.15 0.75,0.55 0,0.35 -0.35,1.25 l -0.65,1.2 h -1.75 l -0.3,-0.05 -0.9,-0.35 -0.15,-0.2 -0.05,-0.15 -0.1,-0.5 0.05,-0.15 0.45,-0.9 0.35,-0.45 m 13.7,10.25 v -0.05 l 0.25,-0.15 0.2,-0.1 0.25,-0.15 2.3,0.1 0.8,0.95 0.05,0.05 0.35,0.6 0.25,0.8 -0.2,0.65 -0.1,0.2 -0.3,0.4 -0.55,0.65 -0.7,0.4 -0.6,0.1 h -0.05 l -0.85,-0.05 -0.7,-0.2 -0.4,-0.2 -0.1,-0.1 q -0.5,-0.4 -0.65,-1.1 l -0.05,-0.6 v -0.25 -0.4 l 0.1,-0.7 0.7,-0.85"
         fill="#e9e9e9"
         fill-rule="evenodd"
         stroke="none"
         id="path3" />
      <path
         d="M 6.5,3.95 6,4.05 5.8,4.1 5.95,3.15 5.8,1.4 5.5,-0.5 5.35,-1.4 5,-3.25 4.9,-3.9 H 4.7 l -0.2,1.85 0.05,0.85 -5.05,0.5 q -6.1,0 -8.7,-1.55 l 1.75,-4.8 H 7.4 l 1.25,3.25 0.5,0.65 -0.75,0.45 -1.25,0.65 0.25,0.6 Q 8,-0.05 8,0.7 8,2.05 6.5,3.95 M 3.6,4.75 3.15,5.2 3.25,5.55 3.3,5.65 3.5,5.8 4.1,5.95 H 4.2 L 4.3,6.05 4.45,5.95 5.35,5.8 5.85,5.55 6.4,5.7 5.9,6.2 5.95,6.5 6.1,6.6 H 6.2 L 6.1,7 5.8,8.25 5.7,8.75 5.5,8.25 5.25,8.2 5.3,8.5 4.9,8.7 Q 2.75,8.35 2.8,7.95 H 2.65 1.95 Q 1.2,8.6 -2.2,8.6 L -5.85,8.1 -6.25,6.6 -6,6.5 -5.95,6.2 -6.45,5.7 -6.2,5.65 l 0.3,-0.1 1.7,0.4 q 0.6,0 0.85,-0.3 L -3.3,5.5 -3.2,5.2 -4.3,3.85 l 1.55,0.6 0.8,0.35 -0.1,0.3 0.25,0.4 0.4,0.35 0.2,0.2 0.25,-0.1 L -0.4,5.6 0,5.3 1.15,6.05 1.6,5.65 2,5.1 1.95,4.9 2.15,5 Q 2.5,4.8 3,4.75 h 0.6 m 1,18.8 1,-5.1 0.1,-0.45 0.45,-0.85 0.45,1.9 0.15,0.65 0.05,0.15 0.15,0.5 H 6.9 6.45 L 6.3,20.6 4.65,23.55 H 4.6 m 4.65,8.1 v 1.3 L 2.35,33 H 1.9 0 -1.9 l -7.4,-0.05 v -1.4 l 4.85,-0.3 Q 5.9,31.2 7.4,31.3 l 1.85,0.35 M -6.75,3.9 -6.7,4.05 -6.8,3.95 -6.75,3.9 m -5.35,30.7 -0.15,-0.1 q -0.15,-1 0.05,-1.6 v 0.8 l 0.1,0.9 m 1.05,-39.05 -0.15,-1.05 q 0,-0.75 0.7,-1.3 l 0.05,0.15 -0.6,2.2 m 22.05,-2.6 0.25,1 q 0,0.6 -0.35,1.2 l -0.5,-1.8 0.15,-0.4 H 11"
         fill="#a2a2a2"
         fill-rule="evenodd"
         stroke="none"
         id="path4" />
      <path
         d="M 6.5,3.95 Q 8,2.05 8,0.7 8,-0.05 7.4,-1.45 l -0.25,-0.6 1.25,-0.65 0.75,-0.45 0.35,1.9 0.2,1 Q 9.7,1 8.85,2 L 8.75,2.1 Q 8.05,3.3 6.95,3.8 L 6.65,4.05 6.7,3.9 6.5,3.95 m -15.7,-6.2 q 2.6,1.55 8.7,1.55 L 4.55,-1.2 4.65,1.2 4.2,3.2 3.8,4.5 3.6,4.75 H 3 Q 2.5,4.8 2.15,5 L 1.95,4.9 1,3.55 0.95,3.5 0.2,2.25 0,2.5 -0.25,2.25 -1,3.5 -1.05,3.55 Q -1.8,4.3 -1.95,4.8 L -2.75,4.45 -4.3,3.85 -5.15,2.15 q -0.4,-1.6 -0.8,-2.35 L -6.6,-0.15 -6.8,3.45 -6.75,3.9 -6.8,3.95 -8.55,2.3 q -1.2,-1.1 -1.2,-2.55 l 0.55,-2 m 14.9,11 -0.25,2.4 Q 4.65,14 3.75,18.3 L 3.3,21.5 3.55,28.75 3.9,28.7 Q 3.95,26.9 4.6,23.55 H 4.65 L 6.3,20.6 6.45,20.35 H 6.9 6.95 l 2.3,8.1 v 3.2 L 7.4,31.3 Q 5.9,31.2 -4.45,31.25 l -4.85,0.3 v -3.1 l 2.45,-8.6 q 1.35,-5.1 1.35,-8.45 0,-1.7 -0.35,-3.3 l 3.65,0.5 q 3.4,0 4.15,-0.65 H 2.65 2.8 Q 2.75,8.35 4.9,8.7 L 5.3,8.5 5.25,8.2 5.5,8.25 5.7,8.75"
         fill="#c4c4c4"
         fill-rule="evenodd"
         stroke="none"
         id="path5" />
      <path
         d="m 39.05,-30.55 2.8,1.05 0.5,0.25 0.25,0.1 1.35,0.65 0.3,0.15 0.25,0.15 1.05,0.55 1.3,0.85 q 0.75,0.5 1.45,1.05 5.6,4.3 6.25,9.2 l 0.1,1.3 q 0,1.65 -0.9,2.85 -1.8,1.55 -3.25,1.35 -0.25,0.45 -0.25,-0.2 0,-0.35 1.2,-1.55 l -2.75,0.35 -1.8,-0.75 -0.95,0.5 q -1,0.5 -1.6,0.5 l -2,-0.4 -0.2,-0.2 h 2.9 l 0.55,-0.1 q 0.35,-0.05 0.35,-0.4 l 0.45,-1 q 0.4,-0.85 0.4,-1.5 0,-1.25 -0.7,-1.85 -1.15,-1.05 -4.35,-1.15 -1.35,1.05 -1.6,1.6 l -0.1,1.45 q 0,1.1 0.15,1.4 0.2,0.4 1.05,1 l -0.4,0.3 -1.05,0.25 q -1.65,0 -2.2,-2.45 -1.1,1.7 -3.2,1.7 l -0.75,-0.1 -0.35,0.85 q -0.6,0.9 -1.65,0.9 -1.75,0 -2.35,-1.6 l -0.4,-2.05 -0.65,1.5 q -0.7,1.3 -2.1,1.3 -0.5,0 -1.25,-0.65 l -0.9,-0.65 -0.9,0.25 -0.95,0.25 q -1.7,0 -2.5,-1.2 -0.45,-0.65 -0.75,-1.55 l -1.05,1.9 q -0.95,1.4 -2.2,1.4 -1.15,0 -1.85,-0.85 L 13.05,-15 12.9,-14.9 q -0.3,-1.55 -2.75,-1.5 -2.1,0.05 -2.65,1.25 H 7.15 q -0.75,0 -1.25,-0.45 l -0.5,0.8 -0.65,-0.5 -0.45,0.1 q -1.15,0 -1.6,-1.5 l -0.2,-1.55 q 0,-4.05 1.5,-3.45 h 0.3 q 0.35,0.05 0.6,0.4 l 0.15,-0.25 q 0.4,-0.6 1.15,-0.6 l 0.7,0.3 0.8,0.55 0.45,-0.8 q 0.55,-0.7 1.6,-0.7 1.3,0 1.8,1.3 l 0.2,0.9 0.2,-1.3 q 0.45,-1.5 1.85,-1.5 1.55,0 2.1,1.6 l 0.3,1.75 0.7,-3.1 q 0.7,-1.9 2.65,-1.9 1.4,0 1.95,1.05 h -0.8 q -4.15,0.35 -4.15,4 0,1.45 0.2,1.7 0.35,0.45 2.8,1.35 h 2.75 q 1.5,-0.9 2.1,-2.1 0.4,-0.9 0.4,-2.25 0,-2.35 -2.4,-2.65 1.05,-3.85 3.65,-1 l 1,-0.75 q 0.6,-0.45 1.15,-0.45 0.75,0 1.65,1.4 l 0.15,-0.3 q 0.8,-1.25 1.65,-1.25 l 0.85,0.25 1.05,0.4 q 3.2,-3.5 4.4,0.55 l 0.4,0.3 0.05,0.1 0.25,0.25 0.4,0.5 0.05,-0.2 1.55,0.25 q 1.15,0 1.55,-0.85 l 0.25,-1.3 q 0,-0.85 -0.75,-1.3 l -1.2,-0.5 -1.45,-2.7 m -92.9,18.05 -0.5,-0.9 -0.05,-0.05 -0.3,-1.8 q 0,-1.6 0.55,-3.15 l 0.55,0.4 h 1.65 l 0.35,-0.05 0.35,-0.1 0.1,-0.05 q 0.7,-0.35 1.3,-1.3 0.75,-1.1 0.75,-1.75 0,-0.7 -0.5,-1.1 l -0.25,-0.2 -0.15,-0.1 -1.65,-0.05 3.3,-3.05 1.65,-1.15 1.35,-0.85 0.95,-0.55 1.9,-0.9 0.3,-0.15 1.5,-0.6 0.7,-0.3 0.65,-0.2 0.35,-0.15 -0.25,0.4 -0.35,1.05 -0.1,0.8 -0.05,0.8 0.05,0.2 0.3,0.6 0.2,0.15 0.4,0.3 0.15,0.1 0.6,0.25 0.5,0.2 h 2.45 l 0.8,-0.95 0.1,0.4 -0.2,1.3 0.4,-0.05 q 0.55,0 0.9,0.3 1.1,-1.4 2.15,-1.4 0.25,0.65 0.25,1.45 l -0.3,1.6 v 0.15 l 0.3,-0.3 3.25,0.15 q 0.65,-1.1 1.85,-1.4 2.15,-0.6 2.15,1.7 v 0.15 q 0.4,-0.5 1.4,-0.55 l 0.2,-0.25 q 0.9,-1 1.55,-0.7 0.6,0.25 0.75,1.35 1.75,-2.9 1.75,0.9 0,0.65 -1.1,3.1 l -1,-1.35 -0.3,-0.25 -0.3,-0.35 -0.15,-0.1 -0.2,-0.2 -1.7,-0.05 -0.9,0.1 -0.2,0.05 h -0.05 l -0.45,0.1 -0.95,0.5 -0.65,0.7 -0.15,0.65 -0.15,1.95 v 0.4 l 0.05,0.4 0.4,1.1 0.65,0.7 -0.3,0.05 q -0.9,0 -1.2,-0.4 l -0.15,-0.35 h -0.55 q -1.2,0.85 -2.55,0.7 -0.5,0.55 -1,0.55 -1.3,0 -1.6,-1.25 l -0.05,-1.05 h -0.3 q -0.6,4.2 -1.9,4.2 -1.5,0 -1.7,-1.65 l -0.35,-0.7 -0.15,-1.25 -0.85,1.05 q -1.3,1.55 -1.85,1.55 -1,0 -1.3,-0.4 l -0.2,-0.65 q -0.7,0.35 -1,0.35 -1.1,0 -1.55,-0.75 l -0.05,-0.1 0.95,0.1 1.95,-0.4 1.2,-1.05 0.7,-1.3 q 0.15,-0.6 0.15,-1.2 v -0.8 l -0.1,-0.55 q -0.25,-0.6 -1.05,-1.1 l -0.55,-0.3 h -2.2 q -2.1,0.9 -2.65,2.05 -0.35,0.7 -0.35,2.5 0.25,1.05 1,1.6 l -0.95,0.8 q -0.7,0.45 -1.55,0.45 -0.65,0 -1.2,-0.4 l -2,0.35 v 0.15 q 0,0.45 -0.35,0.95 l -0.1,0.15 0.15,0.5 -1.55,0.25 q -0.95,0 -1.55,-0.6 l -0.25,-0.1 m 65.75,-7.55 -0.1,-0.35 v 0.35 h 0.1 M 2.25,-16.3 3,-15.1 q 0,0.6 -0.4,1.15 -0.5,0.65 -1.3,0.65 l -0.85,-0.1 1.25,-1.75 0.55,-1.15 m -6.5,1.4 -0.65,0.1 q -0.9,0 -1.55,-0.65 L -7,-16.3 q -0.55,0.15 -1.3,0.9 -0.65,0.6 -1.65,0.6 l -3,-0.4 q -0.85,0.75 -2.25,0.75 -1.1,0 -1.35,-1.75 V -18 q 0,-3.25 2.4,-4.55 1.95,-1.1 2.3,1.3 0.5,-0.5 0.8,-0.5 1.4,0 1.65,1.4 l -0.05,1.8 v 0.05 q 1.9,-2.1 3.3,-2.65 2.05,-0.75 2.3,2.45 l 1.05,-1.2 q 1,-1.05 1.85,-1.05 l 1.4,1.8 -1.45,-0.2 q -3.45,-0.15 -3.45,3.8 l 0.2,0.65"
         fill="#987979"
         fill-rule="evenodd"
         stroke="none"
         id="path6" />
      <path
         d="m -34.3,-26.7 0.45,-0.85 q 0.65,-1.3 0.65,-1.85 0,-0.8 -1,-1.5 -0.7,-0.5 -1.5,-0.7 5.5,-1.45 12.35,-1.95 h 28.2 q -1.1,1.15 -1.1,3.5 0,0.8 0.55,1.5 1.15,1.4 4.2,1.4 2.4,0 3.45,-1.5 0.75,-1 0.75,-2.3 0,-1.45 -1.4,-2.55 l -0.05,-0.05 H 21.4 q -0.65,0.95 -0.65,1.8 0,1 1.25,2.05 1.55,1.3 4.15,1.3 1.7,0 2.95,-1.8 0.95,-1.45 0.95,-2.3 l 0.05,-0.25 q 4.9,0.8 8.95,2.2 l 1.45,2.7 -0.25,-0.05 q -2.2,-0.5 -2.2,2.4 0,0.35 0.3,0.7 l -0.4,-0.3 q -1.2,-4.05 -4.4,-0.55 l -1.05,-0.4 -0.85,-0.25 q -0.85,0 -1.65,1.25 l -0.15,0.3 q -0.9,-1.4 -1.65,-1.4 -0.55,0 -1.15,0.45 l -1,0.75 q -2.6,-2.85 -3.65,1 L 21.5,-24 q -0.55,-1.05 -1.95,-1.05 -1.95,0 -2.65,1.9 l -0.7,3.1 -0.3,-1.75 q -0.55,-1.6 -2.1,-1.6 -1.4,0 -1.85,1.5 l -0.2,1.3 -0.2,-0.9 q -0.5,-1.3 -1.8,-1.3 -1.05,0 -1.6,0.7 l -0.45,0.8 -0.8,-0.55 -0.7,-0.3 q -0.75,0 -1.15,0.6 L 4.9,-21.3 Q 4.65,-21.65 4.3,-21.7 H 4 q -1.5,-0.6 -1.5,3.45 l 0.2,1.55 q 0.45,1.5 1.6,1.5 l 0.45,-0.1 0.65,0.5 0.5,-0.8 q 0.5,0.45 1.25,0.45 H 7.5 l -0.2,0.95 q 0,1.2 0.75,1.75 0.95,0.65 3.35,0.65 0.8,0 1.25,-1 l 0.3,-1.6 -0.05,-0.5 0.15,-0.1 0.75,1.15 q 0.7,0.85 1.85,0.85 1.25,0 2.2,-1.4 l 1.05,-1.9 q 0.3,0.9 0.75,1.55 0.8,1.2 2.5,1.2 l 0.95,-0.25 0.9,-0.25 0.9,0.65 q 0.75,0.65 1.25,0.65 1.4,0 2.1,-1.3 l 0.65,-1.5 0.4,2.05 q 0.6,1.6 2.35,1.6 1.05,0 1.65,-0.9 l 0.35,-0.85 0.75,0.1 q 2.1,0 3.2,-1.7 0.55,2.45 2.2,2.45 l 1.05,-0.25 0.4,-0.3 0.8,0.55 h 0.1 l 0.2,0.2 2,0.4 q 0.6,0 1.6,-0.5 l 0.95,-0.5 1.8,0.75 2.75,-0.35 q -1.2,1.2 -1.2,1.55 0,0.65 0.25,0.2 1.45,0.2 3.25,-1.35 -0.75,0.9 -2,1.5 -4.85,2.35 -18.05,1.45 h -67.45 q -13.2,0.9 -18.05,-1.45 -1.35,-0.65 -2.05,-1.6 l 0.25,0.1 q 0.6,0.6 1.55,0.6 l 1.55,-0.25 -0.15,-0.5 0.1,-0.15 q 0.35,-0.5 0.35,-0.95 v -0.15 l 2,-0.35 q 0.55,0.4 1.2,0.4 0.85,0 1.55,-0.45 l 0.95,-0.8 0.95,0.45 0.05,0.1 q 0.45,0.75 1.55,0.75 0.3,0 1,-0.35 l 0.2,0.65 q 0.3,0.4 1.3,0.4 0.55,0 1.85,-1.55 l 0.85,-1.05 0.15,1.25 0.35,0.7 q 0.2,1.65 1.7,1.65 1.3,0 1.9,-4.2 h 0.3 l 0.05,1.05 q 0.3,1.25 1.6,1.25 0.5,0 1,-0.55 1.35,0.15 2.55,-0.7 h 0.55 l 0.15,0.35 q 0.3,0.4 1.2,0.4 l 0.3,-0.05 q 1,0.75 2.85,0.75 0.6,0 1.15,-0.4 l 0.65,-0.5 0.25,-0.4 0.35,-0.55 q 1,-1.6 1,-2.5 l -0.2,-0.75 q 1.1,-2.45 1.1,-3.1 0,-3.8 -1.75,-0.9 -0.15,-1.1 -0.75,-1.35 -0.65,-0.3 -1.55,0.7 l -0.2,0.25 q -1,0.05 -1.4,0.55 v -0.15 q 0,-2.3 -2.15,-1.7 -1.2,0.3 -1.85,1.4 l -3.25,-0.15 -0.3,0.3 v -0.15 l 0.3,-1.6 q 0,-0.8 -0.25,-1.45 -1.05,0 -2.15,1.4 -0.35,-0.3 -0.9,-0.3 l -0.4,0.05 0.2,-1.3 -0.1,-0.4 m 36.55,10.4 0.15,-0.5 q 0,-1.85 -1.95,-2.35 l -1.4,-1.8 q -0.85,0 -1.85,1.05 l -1.05,1.2 q -0.25,-3.2 -2.3,-2.45 -1.4,0.55 -3.3,2.65 v -0.05 l 0.05,-1.8 q -0.25,-1.4 -1.65,-1.4 -0.3,0 -0.8,0.5 -0.35,-2.4 -2.3,-1.3 -2.4,1.3 -2.4,4.55 v 1.8 q 0.25,1.75 1.35,1.75 1.4,0 2.25,-0.75 l 3,0.4 q 1,0 1.65,-0.6 0.75,-0.75 1.3,-0.9 l 0.55,0.85 q 0.65,0.65 1.55,0.65 l 0.65,-0.1 0.65,0.6 q 0.85,0.6 2.15,0.9 h 1.9 l 0.85,0.1 q 0.8,0 1.3,-0.65 Q 3,-14.5 3,-15.1 l -0.75,-1.2 m -17.8,-9.85 q 0.95,-0.95 0.95,-2.35 0,-3.45 -3.55,-3.25 -3.55,0.2 -3.55,4.3 0.85,2.4 2.85,2.4 2.15,0 3.3,-1.1 m 9.3,-1.65 0.1,1.1 q 0.2,0.5 1.4,0.9 h 1.95 l 1.2,-1.1 0.1,-1.25 q 0,-2.1 -2.35,-1.95 -2.4,0.1 -2.4,2.3"
         fill="#866969"
         fill-rule="evenodd"
         stroke="none"
         id="path7" />
      <path
         d="m 10.9,-4.85 0.4,2.15 q 0.5,1.75 0.5,3.4 0,1.8 -0.8,3.05 l -0.75,0.9 -1.5,1.4 -0.45,5.4 q 0,1.55 1.9,8.65 1.95,7.05 1.95,10.85 v 2.75 q 0,0.8 -0.35,1.5 -0.85,0.75 -1.35,0.75 L 5.7,35.85 0.2,35.95 0,35.8 l -0.25,0.15 -5.45,-0.1 -4.8,0.1 q -0.5,0 -1.35,-0.75 l -0.25,-0.6 -0.1,-0.9 v -0.8 -1.95 q 0,-3.8 1.95,-10.85 1.9,-7.1 1.9,-8.65 l -0.45,-5.4 -1.5,-1.4 -0.75,-0.9 q -0.8,-1.25 -0.8,-3.05 0,-1.65 0.5,-3.4 l 0.3,-1.75 0.6,-2.2 -0.05,-0.15 -0.1,-0.25 -36.25,0.05 q -7.85,-1.6 -9.85,-3.8 -0.9,-1.05 -0.9,-4.35 0,-6.65 6.85,-12.1 l 1.4,-1.05 4.35,-2.5 5.75,-2.25 2.1,-0.6 q 6.1,-1.65 13.8,-2.25 H 23.3 q 14.95,1.2 23.75,6.2 l 3.65,2.45 q 3.25,2.6 5,5.45 1.85,3.15 1.85,6.65 0,3.3 -0.9,4.35 -2,2.2 -9.85,3.8 L 11,-7.05 h -0.45 l -0.15,0.4 z"
         fill="none"
         stroke="#6b6b6b"
         stroke-linecap="round"
         stroke-linejoin="round"
         stroke-width="1"
         id="path8" />
    </g>
    <g
       id="sprite0"
       transform="translate(660.25,0.5)">
      <use
         ffdec:characterId="68"
         height="1.5"
         transform="translate(-660.25,-0.5)"
         width="1320.3"
         xlink:href="#shape1"
         id="use8" />
    </g>
    <g
       id="shape1"
       transform="translate(660.25,0.5)">
      <path
         d="m 659.3,-0.5 0.55,0.25 0.2,0.5 -0.2,0.55 L 659.3,1 H -659.5 l -0.5,-0.2 -0.25,-0.55 0.25,-0.5 0.5,-0.25 H 659.3"
         fill="#ffff00"
         fill-opacity="0"
         fill-rule="evenodd"
         stroke="none"
         id="path9" />
    </g>
  </defs>
</svg>
