<?xml version="1.0" encoding="UTF-8" standalone="no"?>
<svg
   ffdec:objectType="frame"
   height="32.950001"
   width="60.099998"
   version="1.1"
   id="svg23"
   sodipodi:docname="2.svg"
   xmlns:inkscape="http://www.inkscape.org/namespaces/inkscape"
   xmlns:sodipodi="http://sodipodi.sourceforge.net/DTD/sodipodi-0.dtd"
   xmlns:xlink="http://www.w3.org/1999/xlink"
   xmlns="http://www.w3.org/2000/svg"
   xmlns:svg="http://www.w3.org/2000/svg"
   xmlns:ffdec="https://www.free-decompiler.com/flash">
  <sodipodi:namedview
     id="namedview23"
     pagecolor="#ffffff"
     bordercolor="#000000"
     borderopacity="0.25"
     inkscape:showpageshadow="2"
     inkscape:pageopacity="0.0"
     inkscape:pagecheckerboard="0"
     inkscape:deskcolor="#d1d1d1"
     fit-margin-top="5"
     fit-margin-left="5"
     fit-margin-right="5"
     fit-margin-bottom="5" />
  <g
     transform="translate(30.05,15)"
     id="g8">
    <use
       ffdec:characterId="1689"
       height="16.450001"
       transform="translate(-24.1,-6.1)"
       width="39.849998"
       xlink:href="#sprite0"
       id="use1" />
    <use
       ffdec:characterId="2263"
       height="32.950001"
       transform="translate(-30.05,-15)"
       width="60.099998"
       xlink:href="#shape1"
       id="use2" />
    <use
       ffdec:characterId="1977"
       height="2.3"
       transform="rotate(180,6.1,4.1)"
       width="2.55"
       xlink:href="#sprite2"
       id="use3" />
    <use
       ffdec:characterId="1978"
       height="1.25"
       transform="matrix(1.3564,0,0,1.0728,-19.0956,-6.9973)"
       width="12.85"
       xlink:href="#sprite3"
       id="use4" />
    <use
       ffdec:characterId="1979"
       height="2.3"
       transform="rotate(180,6.1,1.65)"
       width="2.55"
       xlink:href="#sprite4"
       id="use5" />
    <use
       ffdec:characterId="1990"
       height="2.3"
       transform="rotate(180,6.1,-0.85)"
       width="2.55"
       xlink:href="#sprite5"
       id="use6" />
    <use
       ffdec:characterId="2085"
       height="1.8"
       transform="matrix(0.8343,0,0,0.9038,18.9466,-7.3038)"
       width="6.9000001"
       xlink:href="#sprite6"
       id="use7" />
    <use
       ffdec:characterId="1691"
       height="8"
       transform="matrix(0.5172,0.5172,-0.5172,0.5172,-15.8243,-0.2119)"
       width="10.8"
       xlink:href="#sprite7"
       id="use8" />
  </g>
  <defs
     id="defs23">
    <g
       id="sprite0"
       transform="translate(19.95,8.25)">
      <use
         ffdec:characterId="1688"
         height="16.450001"
         transform="translate(-19.95,-8.25)"
         width="39.849998"
         xlink:href="#sprite1"
         id="use9" />
    </g>
    <g
       id="sprite1"
       transform="translate(19.95,8.25)">
      <use
         ffdec:characterId="1687"
         height="16.450001"
         transform="translate(-19.95,-8.25)"
         width="39.849998"
         xlink:href="#shape0"
         id="use10" />
    </g>
    <g
       id="shape0"
       transform="translate(19.95,8.25)">
      <path
         d="M 19.9,-8.25 V 8.2 H -19.95 V -8.25 H 19.9"
         fill="#8c8c8c"
         fill-rule="evenodd"
         stroke="none"
         id="path10" />
    </g>
    <g
       id="shape1"
       transform="translate(30.05,15)">
      <path
         d="M 16.95,10.8 H 16.2 v -1.9 -7.8 -11.3 -0.5 -0.15 -0.55 l -0.05,-0.15 -0.05,-0.55 h 11.15 v 1.05 l -0.35,0.1 -4.85,0.2 -5.3,0.05 0.05,0.95 h 0.05 v 0.5 10.15 l 0.1,7.45 v 2.45 m -44.2,3.9 v -26.8 h 42.3 v 1.4 l -41.5,0.2 0.05,0.75 h 0.1 l 0.05,0.95 0.2,8 -0.05,9.4 -0.25,4.95 -0.15,1.15 h -0.15 l -0.1,0.55 h -0.3 L -27.1,14.7 h -0.15 m 54.45,-3.15 0.05,0.05 v 0.8 l -0.4,0.2 H 18.5 16.9 v 2.1 h -0.05 v 0.2 l -0.5,0.15 -0.15,-0.25 v -3.1 l 11,-0.15"
         fill="#cccccc"
         fill-rule="evenodd"
         stroke="none"
         id="path11" />
      <path
         d="m 7,-3.85 -0.15,0.15 0.2,1.35 V 7.1 L 7,8.6 7.05,8.7 6.9,9.05 6.8,9.15 H 6.6 6.45 -19.3 l 0.1,-7.3 v -4.4 l -0.05,-1.4 -0.05,-0.4 0.2,-0.2 0.15,-0.05 0.1,-0.05 25.3,0.05 0.6,0.45 -0.05,0.3 m -0.65,0.15 -25,0.1 0.2,1.65 0.15,9.4 -0.1,0.65 H 5.85 L 6.25,8.15 6.2,7.1 6.3,5.25 v -8.7 L 6.35,-3.7 m 20.9,-7.35 V -12.1 H 16.1 l 0.05,0.55 0.05,0.15 v 0.55 0.15 0.5 11.3 7.8 1.9 h 0.75 l 10.3,0.05 v -21.9 m -9.4,1.8 0.35,-0.2 h 7.6 l 0.05,-0.1 0.1,0.15 0.2,0.1 0.1,0.3 -0.1,0.25 0.15,1.3 -0.05,2.1 v 1.3 L 26.3,-3.9 V 5.4 L 26.4,7 26.3,8.85 26.2,8.9 26.25,9 25.7,9.6 H 18.5 L 17.95,9.5 17.75,9.65 17.7,9.5 17.55,9.45 Q 17.4,9.35 17.4,9 L 17.5,8.75 Q 17.25,7.45 17.25,5.3 V -8.55 l 0.15,-0.85 0.45,0.15 m -2.8,-1.45 v -1.4 h -42.3 v 26.8 0.55 h 0.15 v 0.2 h 7.15 V 15.3 15.25 h 1.5 v 0.1 0.1 h 1.35 l -0.15,-0.2 h 4.3 v 0.2 h 4.8 v -0.2 h 1.05 l 0.1,0.15 -0.1,0.05 h 0.3 l 0.15,-0.2 h 1.8 v 0.05 0.15 h 9.7 V 15.3 15.25 h 1.8 l 0.15,0.2 H 7.1 L 7,15.4 7.1,15.25 h 1.05 v 0.2 h 4.8 v -0.2 h 2.2 l -0.1,-0.5 V 13.5 h -0.1 l -37.3,-0.1 q -0.55,-0.35 -0.55,-0.5 l 0.15,-0.25 -0.15,-1.15 V 9.7 l 0.1,-3.25 v -16 l 0.25,0.05 0.35,-0.1 h 9 l 3.65,-0.1 24.6,0.1 v -1.1 m 4.55,8.55 q 0.85,-0.05 0.85,0.8 l -0.2,0.55 q -0.25,0.35 -0.6,0.35 -0.55,0 -0.75,-0.4 L 18.75,-1.3 q 0,-0.75 0.85,-0.85 M 18.3,-4 h 7.1 v -3.55 l 0.1,-1.1 -7.2,0.1 V -4 m 11.75,-10.6 v 1.05 1.7 27.1 1.2 0.55 l -0.4,0.6 v 0.3 H 29.1 l -0.35,0.05 H 28.6 28.45 l -0.4,-0.05 h -56.1 l -0.4,0.05 h -0.15 -0.15 L -29.1,17.9 h -0.55 v -0.3 l -0.4,-0.6 v -0.55 -1.2 -27.1 -1.7 -1.05 l 0.4,-0.35 V -15 h 59.3 v 0.05 l 0.4,0.35 M 21.9,-0.45 q -0.55,0 -0.75,-0.4 L 21,-1.3 q 0,-0.75 0.85,-0.85 0.85,-0.05 0.85,0.8 l -0.2,0.55 q -0.25,0.35 -0.6,0.35 m 1.35,-0.85 q 0,-0.75 0.85,-0.85 0.85,-0.05 0.85,0.8 l -0.2,0.55 -0.6,0.35 q -0.55,0 -0.75,-0.4 L 23.25,-1.3 M 18.3,-3.25 v 8.6 L 18.45,7.7 18.4,8.55 h 0.1 6.85 v -11.7 l -7.05,-0.1 m -37.35,-3.05 0.45,-0.55 1.7,-0.05 h 9.7 q 1.2,0 1.2,0.6 l -0.25,0.35 -0.95,0.25 -11.4,-0.1 -0.45,-0.5 m 5.15,21.75 0.05,-0.05 -0.1,0.05 h 0.05 m 38.85,-14.4 -0.2,0.55 -0.6,0.35 q -0.55,0 -0.75,-0.4 L 23.25,1.1 q 0,-0.75 0.85,-0.85 0.85,-0.05 0.85,0.8 m -3.1,-0.8 Q 22.7,0.2 22.7,1.05 L 22.5,1.6 q -0.25,0.35 -0.6,0.35 -0.55,0 -0.75,-0.4 L 21,1.1 q 0,-0.75 0.85,-0.85 m -2.25,0 q 0.85,-0.05 0.85,0.8 L 20.25,1.6 Q 20,1.95 19.65,1.95 19.1,1.95 18.9,1.55 L 18.75,1.1 q 0,-0.75 0.85,-0.85 m 2.25,4.8 Q 22.7,5 22.7,5.85 L 22.5,6.4 q -0.25,0.35 -0.6,0.35 -0.55,0 -0.75,-0.4 L 21,5.9 Q 21,5.15 21.85,5.05 M 21,3.35 Q 21,2.6 21.85,2.5 22.7,2.45 22.7,3.3 L 22.5,3.85 Q 22.25,4.2 21.9,4.2 21.35,4.2 21.15,3.8 L 21,3.35 m -0.75,0.5 Q 20,4.2 19.65,4.2 19.1,4.2 18.9,3.8 L 18.75,3.35 q 0,-0.75 0.85,-0.85 0.85,-0.05 0.85,0.8 l -0.2,0.55 m 4.5,0 -0.6,0.35 Q 23.6,4.2 23.4,3.8 L 23.25,3.35 q 0,-0.75 0.85,-0.85 0.85,-0.05 0.85,0.8 l -0.2,0.55 m 2.45,7.7 -11,0.15 v 3.1 0.45 h 1.05 l -0.15,0.2 h 1.35 v -0.1 -0.1 h 1.5 v 0.05 0.15 h 7.15 v -0.2 h 0.15 V 12.4 11.6 11.55 H 27.2 M 15.05,8.85 V 6.3 -8.7 H -21.9 v 21.15 h 36 l 0.95,-0.1 v -3.5 m -12.4,6.4 -0.1,0.05 H 1.15 L 1,15.25 h 1.65 m 11.3,0.2 -0.05,-0.05 v 0.05 h 0.05"
         fill="#6b6b6b"
         fill-rule="evenodd"
         stroke="none"
         id="path12" />
      <path
         d="m 7,-3.85 0.05,-0.3 -0.6,-0.45 -25.3,-0.05 -0.1,0.05 -0.15,0.05 -0.2,0.2 0.05,0.4 0.05,1.4 v 4.4 l -0.1,7.3 H 6.45 6.6 6.8 L 6.9,9.05 7.05,8.7 7,8.6 7.05,7.1 V -2.35 L 6.85,-3.7 7,-3.85 M 18.3,-4 v -4.55 l 7.2,-0.1 -0.1,1.1 V -4 h -7.1 m 1.3,1.85 q -0.85,0.1 -0.85,0.85 l 0.15,0.45 q 0.2,0.4 0.75,0.4 0.35,0 0.6,-0.35 l 0.2,-0.55 q 0,-0.85 -0.85,-0.8 m -38.65,-4.15 0.45,0.5 11.4,0.1 0.95,-0.25 L -6,-6.3 q 0,-0.6 -1.2,-0.6 h -9.7 l -1.7,0.05 -0.45,0.55 m 37.35,3.05 7.05,0.1 V 8.55 H 18.5 18.4 L 18.45,7.7 18.3,5.35 v -8.6 m 4.95,1.95 0.15,0.45 q 0.2,0.4 0.75,0.4 l 0.6,-0.35 0.2,-0.55 q 0,-0.85 -0.85,-0.8 -0.85,0.1 -0.85,0.85 m -1.35,0.85 q 0.35,0 0.6,-0.35 l 0.2,-0.55 q 0,-0.85 -0.85,-0.8 Q 21,-2.05 21,-1.3 l 0.15,0.45 q 0.2,0.4 0.75,0.4 m 2.85,4.3 0.2,-0.55 q 0,-0.85 -0.85,-0.8 -0.85,0.1 -0.85,0.85 L 23.4,3.8 q 0.2,0.4 0.75,0.4 l 0.6,-0.35 m -4.5,0 0.2,-0.55 q 0,-0.85 -0.85,-0.8 -0.85,0.1 -0.85,0.85 L 18.9,3.8 q 0.2,0.4 0.75,0.4 0.35,0 0.6,-0.35 M 21,3.35 21.15,3.8 q 0.2,0.4 0.75,0.4 0.35,0 0.6,-0.35 L 22.7,3.3 Q 22.7,2.45 21.85,2.5 21,2.6 21,3.35 m 0.85,1.7 Q 21,5.15 21,5.9 l 0.15,0.45 q 0.2,0.4 0.75,0.4 0.35,0 0.6,-0.35 L 22.7,5.85 Q 22.7,5 21.85,5.05 M 19.6,0.25 q -0.85,0.1 -0.85,0.85 l 0.15,0.45 q 0.2,0.4 0.75,0.4 0.35,0 0.6,-0.35 l 0.2,-0.55 q 0,-0.85 -0.85,-0.8 m 2.25,0 Q 21,0.35 21,1.1 l 0.15,0.45 q 0.2,0.4 0.75,0.4 0.35,0 0.6,-0.35 l 0.2,-0.55 q 0,-0.85 -0.85,-0.8 m 3.1,0.8 q 0,-0.85 -0.85,-0.8 -0.85,0.1 -0.85,0.85 l 0.15,0.45 q 0.2,0.4 0.75,0.4 l 0.6,-0.35 0.2,-0.55 m -9.9,7.8 v 3.5 l -0.95,0.1 h -36 V -8.7 h 36.95 v 15 2.55"
         fill="#747474"
         fill-rule="evenodd"
         stroke="none"
         id="path13" />
      <path
         d="M 6.35,-3.7 6.3,-3.45 v 8.7 L 6.2,7.1 6.25,8.15 5.85,8.1 H -18.4 l 0.1,-0.65 -0.15,-9.4 -0.2,-1.65 25,-0.1"
         fill="#646464"
         fill-opacity="0.65098"
         fill-rule="evenodd"
         stroke="none"
         id="path14" />
      <path
         d="m 27.25,-11.05 v 21.9 L 16.95,10.8 V 8.35 L 16.85,0.9 V -9.25 -9.75 H 16.8 l -0.05,-0.95 5.3,-0.05 4.85,-0.2 0.35,-0.1 m -9.4,1.8 -0.45,-0.15 -0.15,0.85 V 5.3 q 0,2.15 0.25,3.45 L 17.4,9 q 0,0.35 0.15,0.45 l 0.15,0.05 0.05,0.15 0.2,-0.15 0.55,0.1 h 7.2 L 26.25,9 26.2,8.9 26.3,8.85 26.4,7 26.3,5.4 v -9.3 l -0.05,-0.15 v -1.3 l 0.05,-2.1 -0.15,-1.3 0.1,-0.25 -0.1,-0.3 -0.2,-0.1 -0.1,-0.15 -0.05,0.1 h -7.6 l -0.35,0.2 m -44.6,24.5 0.1,-0.55 h 0.15 l 0.15,-1.15 0.25,-4.95 0.05,-9.4 -0.2,-8 -0.05,-0.95 h -0.1 l -0.05,-0.75 41.5,-0.2 v 1.1 l -24.6,-0.1 -3.65,0.1 h -9 l -0.35,0.1 -0.25,-0.05 v 16 l -0.1,3.25 v 1.8 l 0.15,1.15 -0.15,0.25 q 0,0.15 0.55,0.5 l 37.3,0.1 h 0.1 v 1.25 l 0.1,0.5 H 12.95 8.15 7.1 6.65 4.85 2.65 1 h -5.85 -1.8 -0.45 -1.05 -4.8 -4.3 -1.2 -1.5 -6.8 m 42.95,-0.45 0.15,0.25 0.5,-0.15 v -0.2 h 0.05 v -2.1 h 1.6 8.35 l 0.4,-0.2 v 2.85 H 27.1 19.95 18.45 17.25 16.2 V 14.8"
         fill="#b4b4b4"
         fill-rule="evenodd"
         stroke="none"
         id="path15" />
      <path
         d="m -27.05,15.25 h 0.3 6.8 v 0.05 0.15 h -7.15 v -0.2 h 0.05 m 40,0 v 0.2 h -4.8 v -0.2 h 4.8 M 7.1,15.25 7,15.4 7.1,15.45 H 6.8 L 6.65,15.25 H 7.1 m -2.25,0 v 0.05 0.15 h -9.7 V 15.3 15.25 H 1 l 0.15,0.05 h 1.4 l 0.1,-0.05 h 2.2 m -11.5,0 -0.15,0.2 H -7.1 L -7,15.4 -7.1,15.25 h 0.45 m -1.5,0 v 0.2 h -4.8 v -0.2 h 4.8 m -9.1,0 0.15,0.2 h -1.35 v -0.1 -0.1 h 1.2 m 3.35,0.2 h -0.05 l 0.1,-0.05 -0.05,0.05 m 41,-0.2 v 0.2 H 19.95 V 15.3 15.25 h 7.15 m -8.65,0 v 0.1 0.1 H 17.1 l 0.15,-0.2 h 1.2 m -4.5,0.2 H 13.9 V 15.4 l 0.05,0.05"
         fill="#797979"
         fill-rule="evenodd"
         stroke="none"
         id="path16" />
    </g>
    <g
       id="sprite2"
       transform="translate(1.3,1.15)">
      <use
         ffdec:characterId="695"
         height="2.3"
         transform="translate(-1.3,-1.15)"
         width="2.55"
         xlink:href="#shape2"
         id="use16" />
    </g>
    <g
       id="shape2"
       transform="translate(1.3,1.15)">
      <path
         d="m 1.25,-0.3 v 0.25 q 0,1.2 -1.3,1.2 L -0.45,1.1 Q -1,1 -1.2,0.55 l -0.05,-0.5 -0.05,-0.1 0.05,-0.25 0.2,-0.55 q 0.3,-0.4 1.05,-0.3 l 0.95,0.35 0.3,0.5"
         fill="#ffffff"
         fill-rule="evenodd"
         stroke="none"
         id="path17" />
    </g>
    <g
       id="sprite3"
       transform="translate(6.3,0.65)">
      <use
         ffdec:characterId="698"
         height="1.25"
         transform="translate(-6.3,-0.65)"
         width="12.85"
         xlink:href="#shape3"
         id="use17" />
    </g>
    <g
       id="shape3"
       transform="translate(6.3,0.65)">
      <path
         d="M -3.65,-0.65 H 6.3 L 6.55,-0.6 V 0.55 L 6.3,0.6 h -9.95 v -1.25"
         fill="#6b6b6b"
         fill-rule="evenodd"
         stroke="none"
         id="path18" />
      <path
         d="m -3.65,0.6 h -1.6 v -1.25 h 1.6 V 0.6"
         fill="#999999"
         fill-rule="evenodd"
         stroke="none"
         id="path19" />
      <path
         d="m -5.25,0.6 h -1 L -6.3,0.55 v -1.2 h 1.05 V 0.6"
         fill="#cccccc"
         fill-rule="evenodd"
         stroke="none"
         id="path20" />
    </g>
    <g
       id="sprite4"
       transform="translate(1.3,1.15)">
      <use
         ffdec:characterId="696"
         height="2.3"
         transform="translate(-1.3,-1.15)"
         width="2.55"
         xlink:href="#shape4"
         id="use20" />
    </g>
    <g
       id="shape4"
       transform="translate(1.3,1.15)">
      <path
         d="m 1.25,-0.05 q 0,1.2 -1.3,1.2 L -0.45,1.1 Q -1,1 -1.2,0.55 l -0.05,-0.5 -0.05,-0.1 0.05,-0.25 0.2,-0.55 q 0.3,-0.4 1.05,-0.3 l 0.95,0.35 0.3,0.5 v 0.25"
         fill="#6b6b6b"
         fill-rule="evenodd"
         stroke="none"
         id="path21" />
    </g>
    <g
       id="sprite5"
       transform="translate(1.3,1.15)">
      <use
         ffdec:characterId="695"
         height="2.3"
         transform="translate(-1.3,-1.15)"
         width="2.55"
         xlink:href="#shape2"
         id="use21" />
    </g>
    <g
       id="sprite6"
       transform="translate(3.6,1)">
      <use
         ffdec:characterId="2084"
         height="1.8"
         transform="translate(-3.6,-1)"
         width="6.9000001"
         xlink:href="#shape5"
         id="use22" />
    </g>
    <g
       id="shape5"
       transform="translate(3.6,1)">
      <path
         d="m -0.25,-0.65 h 0.1 L 0,-0.6 v 0.25 l -0.25,0.2 -0.25,-0.35 0.25,-0.15 M 0.95,-1 H 1 q 0.55,0 0.65,0.8 -0.1,1 -0.7,1 H 0.8 L 0.3,0.35 0.25,0.15 V -0.1 q 0,-0.7 0.55,-0.85 L 0.95,-1 m -0.3,0.8 v 0.05 Q 0.65,0.3 0.8,0.3 H 0.9 Q 1.25,0.2 1.25,-0.35 L 1,-0.6 q -0.35,0 -0.35,0.4 m 1.65,0 v 0.05 q 0,0.45 0.15,0.45 h 0.1 Q 2.9,0.2 2.9,-0.35 L 2.7,-0.6 q -0.4,0 -0.4,0.4 M 2.6,-1 h 0.1 q 0.5,0 0.6,0.8 -0.1,1 -0.7,1 H 2.45 L 1.95,0.35 1.9,0.15 V -0.1 q 0,-0.7 0.55,-0.85 L 2.6,-1 m -5.65,0.05 h 0.1 l 0.1,0.1 v 0.2 l 0.15,1 0.05,0.15 V 0.55 Q -2.7,0.7 -2.95,0.7 h -0.1 q -0.55,0 -0.55,-0.2 0,-0.2 0.3,-0.2 V 0 l 0.1,-0.45 -0.15,0.1 h -0.1 L -3.6,-0.5 v -0.15 l 0.55,-0.3 M -1.4,-1 h 0.05 Q -1,-1 -1,-0.5 l -0.4,0.8 q 0.65,0 0.65,0.25 L -0.9,0.8 -1.9,0.65 v -0.2 l 0.4,-0.8 0.1,-0.1 -0.1,-0.15 h -0.15 v 0.25 Q -1.7,-0.2 -1.85,-0.2 L -2,-0.6 Q -2,-0.85 -1.4,-1 M -0.25,0.15 0,0.3 V 0.35 L -0.25,0.55 -0.5,0.3 -0.25,0.15"
         fill="#a08585"
         fill-rule="evenodd"
         stroke="none"
         id="path22" />
    </g>
    <g
       id="sprite7"
       transform="translate(5.4,4)">
      <use
         ffdec:characterId="43"
         height="8"
         transform="translate(-5.4,-4)"
         width="10.8"
         xlink:href="#shape6"
         id="use23" />
    </g>
    <g
       id="shape6"
       transform="translate(5.4,4)">
      <path
         d="m 2.9,-0.35 q 0,-1.25 1.25,-1.25 1.25,0 1.25,1.2 0,1.3 -1.25,1.3 Q 3.6,0.9 3.25,0.5 2.9,0.15 2.9,-0.35 m 0.35,-2.3 q 0,0.55 -0.35,0.9 -0.4,0.45 -1,0.45 -1.35,0 -1.35,-1.4 0,-1.3 1.35,-1.3 1.35,0 1.35,1.35 m -3.1,1.9 h 0.2 q 2.6,0.1 2.6,2.8 l -0.3,1 Q 2.05,4 0.45,4 H 0.35 0.15 0.1 -0.45 q -1.6,0 -2.2,-0.95 l -0.3,-1 q 0,-2.8 2.8,-2.8 h 0.3 M -1.55,-4 q 1.35,0 1.35,1.35 0,0.55 -0.4,0.9 -0.4,0.45 -0.95,0.45 -1.4,0 -1.4,-1.4 0,-1.3 1.4,-1.3 m -2.6,2.4 q 1.25,0 1.25,1.25 0,0.5 -0.35,0.85 -0.35,0.4 -0.9,0.4 -1.25,0 -1.25,-1.3 0,-1.2 1.25,-1.2"
         fill="#6b6b6b"
         fill-opacity="0.54902"
         fill-rule="evenodd"
         stroke="none"
         id="path23" />
    </g>
  </defs>
</svg>
