<?xml version="1.0" encoding="UTF-8" standalone="no"?>
<svg
   ffdec:objectType="frame"
   height="66.2453"
   width="125.9"
   version="1.1"
   id="svg58"
   sodipodi:docname="2.svg"
   xmlns:inkscape="http://www.inkscape.org/namespaces/inkscape"
   xmlns:sodipodi="http://sodipodi.sourceforge.net/DTD/sodipodi-0.dtd"
   xmlns:xlink="http://www.w3.org/1999/xlink"
   xmlns="http://www.w3.org/2000/svg"
   xmlns:svg="http://www.w3.org/2000/svg"
   xmlns:ffdec="https://www.free-decompiler.com/flash">
  <sodipodi:namedview
     id="namedview58"
     pagecolor="#ffffff"
     bordercolor="#000000"
     borderopacity="0.25"
     inkscape:showpageshadow="2"
     inkscape:pageopacity="0.0"
     inkscape:pagecheckerboard="0"
     inkscape:deskcolor="#d1d1d1"
     fit-margin-top="5"
     fit-margin-left="5"
     fit-margin-right="5"
     fit-margin-bottom="5" />
  <g
     transform="translate(63.6,33.095298)"
     id="g24">
    <use
       ffdec:characterId="523"
       height="6.5500002"
       transform="matrix(0.5,-0.866,0.866,0.5,4.45,-26.65)"
       width="6.1500001"
       xlink:href="#sprite0"
       id="use1" />
    <use
       ffdec:characterId="531"
       height="7.4000001"
       transform="matrix(0.866,-0.5,0.5,0.866,-23.8,-31)"
       width="5.4499998"
       xlink:href="#sprite1"
       id="use2" />
    <use
       ffdec:characterId="531"
       height="7.4000001"
       transform="matrix(0.3855,0.6678,-0.6678,0.3855,33.55,-10.2)"
       width="5.4499998"
       xlink:href="#sprite2"
       id="use3" />
    <use
       ffdec:characterId="527"
       height="8.1000004"
       transform="matrix(0.5452,0.5453,-0.5453,0.5452,38.65,2.2)"
       width="1.8"
       xlink:href="#sprite3"
       id="use4" />
    <use
       ffdec:characterId="290"
       height="30.799999"
       transform="matrix(-0.3856,0.6678,0.6678,0.3856,24.75,-10.7)"
       width="9.1999998"
       xlink:href="#sprite4"
       id="use5" />
    <use
       ffdec:characterId="521"
       height="18.700001"
       transform="matrix(-0.6678,0.3855,0.3855,0.6678,21.55,-19.35)"
       width="8.6000004"
       xlink:href="#sprite5"
       id="use6" />
    <use
       ffdec:characterId="290"
       height="30.799999"
       transform="matrix(0.3856,0.6678,-0.6678,0.3856,-26.35,-10.7)"
       width="9.1999998"
       xlink:href="#sprite6"
       id="use7" />
    <use
       ffdec:characterId="521"
       height="18.700001"
       transform="matrix(0.6678,0.3855,-0.3855,0.6678,-23.15,-19.35)"
       width="8.6000004"
       xlink:href="#sprite5"
       id="use8" />
    <use
       ffdec:characterId="288"
       height="48.799999"
       transform="matrix(1,0,0,-1,39.55,33.15)"
       width="9.1999998"
       xlink:href="#sprite7"
       id="use9" />
    <use
       ffdec:characterId="288"
       height="48.799999"
       transform="translate(-49.85,-15.65)"
       width="9.1999998"
       xlink:href="#sprite7"
       id="use10" />
    <use
       ffdec:characterId="288"
       height="48.799999"
       transform="matrix(0,0.6739,-0.6739,0,27.55,-10.4)"
       width="9.1999998"
       xlink:href="#sprite8"
       id="use11" />
    <use
       ffdec:characterId="288"
       height="48.799999"
       transform="matrix(-0.1744,0.6509,-0.6509,-0.1744,3.8,-6)"
       width="9.1999998"
       xlink:href="#sprite8"
       id="use12" />
    <use
       ffdec:characterId="521"
       height="18.700001"
       transform="matrix(0,-1,0.9037,0,-52.65,-4)"
       width="8.6000004"
       xlink:href="#sprite9"
       id="use13" />
    <use
       ffdec:characterId="525"
       height="6.9499998"
       transform="matrix(0.9659,-0.2588,0.2813,1.0499,-60.35,-16.7)"
       width="7.8000002"
       xlink:href="#sprite10"
       id="use14" />
    <use
       ffdec:characterId="527"
       height="8.1000004"
       transform="matrix(0.7071,-0.7071,0.7071,0.7071,46.7,-3.8)"
       width="1.8"
       xlink:href="#sprite11"
       id="use15" />
    <use
       ffdec:characterId="517"
       height="67"
       transform="rotate(90,19.975,-8.475)"
       width="19.1"
       xlink:href="#sprite12"
       id="use16" />
    <use
       ffdec:characterId="521"
       height="18.700001"
       transform="matrix(0,1,0.9037,0,34.35,-12.3)"
       width="8.6000004"
       xlink:href="#sprite9"
       id="use17" />
    <use
       ffdec:characterId="519"
       height="49"
       transform="rotate(90,42.225,13.925)"
       width="19.1"
       xlink:href="#sprite13"
       id="use18" />
    <use
       ffdec:characterId="288"
       height="48.799999"
       transform="matrix(0,1,-1.0656,0,62.3,-29.1)"
       width="9.1999998"
       xlink:href="#sprite7"
       id="use19" />
    <use
       ffdec:characterId="288"
       height="48.799999"
       transform="matrix(0,-1,-1,0,-14.8,-19.9)"
       width="9.1999998"
       xlink:href="#sprite7"
       id="use20" />
    <use
       ffdec:characterId="290"
       height="30.799999"
       transform="rotate(90,20.875,-8.225)"
       width="9.1999998"
       xlink:href="#sprite14"
       id="use21" />
    <use
       ffdec:characterId="523"
       height="6.5500002"
       transform="matrix(-0.6678,0.3855,-0.3855,-0.6678,-24.1,0.5)"
       width="6.1500001"
       xlink:href="#sprite15"
       id="use22" />
    <use
       ffdec:characterId="529"
       height="7.3499999"
       transform="matrix(0.866,-0.5,0.5,0.866,39.6,-14.9)"
       width="4.8499999"
       xlink:href="#sprite16"
       id="use23" />
    <use
       ffdec:characterId="44"
       height="8"
       transform="matrix(0.9659,0.2588,-0.2588,0.9659,-35.3806,-20.1113)"
       width="10.8"
       xlink:href="#sprite17"
       id="use24" />
  </g>
  <defs
     id="defs58">
    <g
       id="sprite0">
      <use
         ffdec:characterId="522"
         height="6.5500002"
         width="6.1500001"
         xlink:href="#shape0"
         id="use25" />
    </g>
    <g
       id="shape0">
      <path
         d="m 3.05,2.05 -0.5,-0.9 q 0,-1.8 1.8,-0.75 1.8,1.1 1.8,2.7 0,1.15 -1.2,1.15 L 4,3.5 3.35,3.95 l -1.5,0.8 0.2,1.6 v 0.1 L 0.3,6.5 0.1,6.55 0,5.5 Q 0,4.65 0.3,4.3 V 4.15 l 2.25,-1.8 0.5,-0.3"
         fill="#6b6b6b"
         fill-rule="evenodd"
         stroke="none"
         id="path25" />
    </g>
    <g
       id="sprite1">
      <use
         ffdec:characterId="530"
         height="7.4000001"
         width="5.4499998"
         xlink:href="#shape1"
         id="use26" />
    </g>
    <g
       id="shape1">
      <path
         d="M 4.1,2.35 H 3.75 v 0.9 l -0.2,2.7 -0.1,0.7 Q 2.8,6.85 1.9,7.4 L 1.7,6.3 V 4.15 Q 1.7,3.1 1.85,2.4 H 0.35 Q 0.05,2.4 0.15,1.9 0,1.7 0,1.35 0,-0.15 2.75,0 5.45,0.1 5.45,1.2 L 4.95,1.9 Q 4.45,2.35 4.1,2.35"
         fill="#6b6b6b"
         fill-rule="evenodd"
         stroke="none"
         id="path26" />
    </g>
    <g
       id="sprite2">
      <use
         ffdec:characterId="530"
         height="7.4000001"
         width="5.4499998"
         xlink:href="#shape2"
         id="use27" />
    </g>
    <g
       id="shape2">
      <path
         d="M 4.1,2.35 H 3.75 v 0.9 l -0.2,2.7 -0.1,0.7 Q 2.8,6.85 1.9,7.4 L 1.7,6.3 V 4.15 Q 1.7,3.1 1.85,2.4 H 0.35 Q 0.05,2.4 0.15,1.9 0,1.7 0,1.35 0,-0.15 2.75,0 5.45,0.1 5.45,1.2 L 4.95,1.9 Q 4.45,2.35 4.1,2.35"
         fill="#9a9a9a"
         fill-rule="evenodd"
         stroke="none"
         id="path27" />
    </g>
    <g
       id="sprite3">
      <use
         ffdec:characterId="526"
         height="8.1000004"
         width="1.8"
         xlink:href="#shape3"
         id="use28" />
    </g>
    <g
       id="shape3">
      <path
         d="M 1.8,2.5 1.7,4.3 1.55,4.95 1.15,7.6 V 7.75 L 1.1,7.85 1.05,7.9 0.75,8.1 Q 0.15,7.4 0.15,4.8 V 4.7 L 0,4.05 0.15,0.6 1.7,0.65 1.8,2.5"
         fill="#9a9a9a"
         fill-rule="evenodd"
         stroke="none"
         id="path28" />
    </g>
    <g
       id="sprite4">
      <use
         ffdec:characterId="289"
         height="30.799999"
         width="9.1999998"
         xlink:href="#shape4"
         id="use29" />
    </g>
    <g
       id="shape4">
      <path
         d="M 8.6,1.25 8.95,1.1 9.15,11.15 H 9.2 v 1.1 2.35 2.3 1.65 9.4 1.2 H 9 L 8.95,29.7 8.6,29.55 q -0.2,1.05 -2.95,1.2 l -1,0.05 H 4.55 L 3.45,30.75 Q 0.8,30.6 0.6,29.55 L 0.25,29.7 V 29.15 H 0.05 L 0,27.95 0.05,18.55 v -1.05 -1 -2 -0.95 -2.4 H 0.1 q 0,-6 0.15,-10.05 L 0.6,1.25 Q 0.8,0.2 3.45,0.05 L 4.55,0 h 0.1 l 1,0.05 Q 8.4,0.2 8.6,1.25 M 5.65,28 h 0.5 0.05 v -1.3 -7.05 -1.1 -1.45 -4.85 -1.1 H 6.3 L 6.4,7 V 6.55 Q 6.35,5.2 6.55,4.2 L 6.7,2.8 H 6.15 L 5.85,2.85 H 5.05 4.6 4.15 3.4 L 2.5,2.8 2.65,4.2 2.8,6.55 V 7 l 0.15,4.15 H 3 v 1.1 1.25 3.6 1.45 1 0.65 6.5 1.3 L 3.4,27.95 H 4.15 4.6 5.05 5.2 L 5.65,28"
         fill="#9a9a9a"
         fill-rule="evenodd"
         stroke="none"
         id="path29" />
      <path
         d="M 6.15,2.8 V 4.3 Q 6.15,6.5 5.6,9 5.05,11.5 5.05,15.1 5.05,18.15 5.7,27 L 5.65,28 5.2,27.95 4.6,15.05 4.65,11.5 Q 4.8,9.6 5.4,8.15 5.85,7.1 5.8,4.7 L 5.85,2.85 6.15,2.8"
         fill="#ababab"
         fill-rule="evenodd"
         stroke="none"
         id="path30" />
      <path
         d="M 5.65,28 5.7,27 Q 5.05,18.15 5.05,15.1 5.05,11.5 5.6,9 6.15,6.5 6.15,4.3 V 2.8 H 6.7 L 6.55,4.2 Q 6.35,5.2 6.4,6.55 V 7 L 6.3,11.15 H 6.2 v 1.1 4.85 1.45 1.1 7.05 1.3 H 6.15 5.65 M 5.85,2.85 5.8,4.7 Q 5.85,7.1 5.4,8.15 4.8,9.6 4.65,11.5 L 4.6,15.05 5.2,27.95 H 5.05 4.6 4.15 3.4 L 3,28 v -1.3 -6.5 -0.65 -1 -1.45 -3.6 -1.25 -1.1 H 2.95 L 2.8,7 V 6.55 L 2.65,4.2 2.5,2.8 3.4,2.85 h 0.75 0.45 0.45 0.8"
         fill="#b5b0ac"
         fill-rule="evenodd"
         stroke="none"
         id="path31" />
    </g>
    <g
       id="sprite5">
      <use
         ffdec:characterId="520"
         height="18.700001"
         width="8.6000004"
         xlink:href="#shape5"
         id="use31" />
    </g>
    <g
       id="shape5">
      <path
         d="m 8.6,2.7 v 0.25 2.7 0.45 0.3 0.65 0.45 0.25 0.15 0.75 2.3 0.25 1.1 0.3 0.45 2.7 0.25 1.2 H 8.4 L 8.35,17.75 8,17.6 Q 7.85,18.45 6.1,18.7 H 2.5 Q 0.75,18.45 0.6,17.6 L 0.25,17.75 V 17.2 H 0.05 L 0,16 V 13.35 L 0.05,10.8 V 10.55 9.75 8.55 7.6 L 0,5.2 V 2.7 L 0.05,1.5 h 0.2 V 1.15 0.95 L 0.6,1.1 Q 0.75,0.25 2.5,0 H 6.1 Q 7.85,0.25 8,1.1 L 8.35,0.95 8.4,1.5 H 8.6 V 2.7 M 3.95,16 H 4.3 4.45 l 1.1,0.05 H 5.6 v -0.3 -1 V 13.7 12.3 11.2 7.05 6.4 5 3.95 2.95 2.85 H 5.55 L 4.45,2.9 H 4.3 4.25 4.15 4 3.7 3.4 3 v 0.05 1 0.5 0.65 2.45 0.35 1.85 3.85 0.65 0.5 1 0.3 L 3.4,16 h 0.3 0.15 0.1"
         fill="#9a9a9a"
         fill-rule="evenodd"
         stroke="none"
         id="path32" />
      <path
         d="M 3.95,16 H 3.85 L 3.7,10.85 3.85,6.85 4.15,2.9 h 0.1 L 4.3,3.3 4.15,8.5 Q 4,10.05 4,12.2 L 3.95,16"
         fill="#ababab"
         fill-rule="evenodd"
         stroke="none"
         id="path33" />
      <path
         d="M 4.25,2.9 H 4.3 4.45 L 5.55,2.85 H 5.6 v 0.1 1 1.05 1.4 0.65 4.15 1.1 1.4 1.05 1 0.3 H 5.55 L 4.45,16 H 4.3 3.95 L 4,12.2 Q 4,10.05 4.15,8.5 L 4.3,3.3 4.25,2.9 M 3.85,16 H 3.7 3.4 L 3,16.05 v -0.3 -1 -0.5 V 13.6 9.75 7.9 7.55 5.1 4.45 3.95 2.95 2.9 H 3.4 3.7 4 4.15 l -0.3,3.95 -0.15,4 0.15,5.15"
         fill="#b5b0ac"
         fill-rule="evenodd"
         stroke="none"
         id="path34" />
    </g>
    <g
       id="sprite6">
      <use
         ffdec:characterId="289"
         height="30.799999"
         width="9.1999998"
         xlink:href="#shape4"
         id="use34" />
    </g>
    <g
       id="sprite7">
      <use
         ffdec:characterId="287"
         height="48.799999"
         width="9.1999998"
         xlink:href="#shape6"
         id="use35" />
    </g>
    <g
       id="shape6">
      <path
         d="M 5.65,0.05 Q 8.4,0.2 8.95,1.1 L 9.2,18.55 v 9.4 2.3 L 8.95,47.6 v 0.1 H 8.9 q -0.6,0.9 -3.25,1.05 l -1,0.05 H 4.55 L 3.45,48.75 Q 0.8,48.6 0.25,47.7 L 0.1,38.2 0.05,31.55 0,27.95 0.05,18.55 0.25,1.1 Q 0.8,0.2 3.45,0.05 L 4.55,0 h 0.1 l 1,0.05 m 0.55,27 V 26.7 18.55 L 6.25,11.8 6.4,7 V 6.55 Q 6.35,5.2 6.55,4.2 L 6.7,2.8 H 6.15 L 5.05,2.85 H 4.6 4.35 4.15 3.4 L 2.5,2.8 2.65,4.2 2.8,6.55 V 7 L 2.95,11.8 3,18.55 v 8.15 1.5 2.05 3.55 1.3 2.45 0.65 H 2.95 L 2.8,41.8 v 0.45 L 2.65,44.6 2.5,46 3.4,45.95 h 0.75 0.45 0.15 0.3 0.3 L 6.15,46 H 6.7 L 6.55,44.6 Q 6.35,43.6 6.4,42.25 V 41.8 L 6.3,38.2 H 6.25 L 6.2,37.55 v -2.45 -3.65 -1.2 -3.2"
         fill="#6b6b6b"
         fill-rule="evenodd"
         stroke="none"
         id="path35" />
      <path
         d="m 6.2,27.05 v 3.2 1.2 l -0.25,1.6 q -0.9,5.8 -0.9,8.5 l 0.3,4.4 H 5.05 4.75 L 4.65,45.4 Q 4.5,44.55 4.5,43.05 4.5,39.1 5.25,34.2 L 6.2,27.05 M 3,33.8 V 30.25 28.2 l 0.2,-1.3 1,-6.35 V 7.65 L 4.35,2.85 H 4.6 L 4.75,7.8 V 20.7 L 4.8,21 3.9,27.8 3,33.8"
         fill="#989898"
         fill-rule="evenodd"
         stroke="none"
         id="path36" />
      <path
         d="M 4.6,2.85 H 5.05 L 6.15,2.8 H 6.7 L 6.55,4.2 Q 6.35,5.2 6.4,6.55 V 7 L 6.25,11.8 6.2,18.55 v 8.15 0.35 L 5.25,34.2 q -0.75,4.9 -0.75,8.85 0,1.5 0.15,2.35 l 0.1,0.55 H 4.6 4.15 3.4 L 2.5,46 2.65,44.6 2.8,42.25 V 41.8 L 2.95,38.2 H 3 V 37.55 35.1 33.8 L 3.9,27.8 4.8,21 4.75,20.7 V 7.8 L 4.6,2.85 m 1.6,28.6 v 3.65 2.45 L 6.25,38.2 H 6.3 l 0.1,3.6 v 0.45 Q 6.35,43.6 6.55,44.6 L 6.7,46 H 6.15 l -0.8,-0.05 -0.3,-4.4 q 0,-2.7 0.9,-8.5 L 6.2,31.45 M 3,28.2 V 26.7 18.55 L 2.95,11.8 2.8,7 V 6.55 L 2.65,4.2 2.5,2.8 3.4,2.85 h 0.75 0.2 L 4.2,7.65 v 12.9 L 3.2,26.9 3,28.2"
         fill="#b2a69a"
         fill-rule="evenodd"
         stroke="none"
         id="path37" />
    </g>
    <g
       id="sprite8">
      <use
         ffdec:characterId="287"
         height="48.799999"
         width="9.1999998"
         xlink:href="#shape7"
         id="use37" />
    </g>
    <g
       id="shape7">
      <path
         d="M 5.65,0.05 Q 8.4,0.2 8.95,1.1 L 9.2,18.55 v 9.4 2.3 L 8.95,47.6 v 0.1 H 8.9 q -0.6,0.9 -3.25,1.05 l -1,0.05 H 4.55 L 3.45,48.75 Q 0.8,48.6 0.25,47.7 L 0.1,38.2 0.05,31.55 0,27.95 0.05,18.55 0.25,1.1 Q 0.8,0.2 3.45,0.05 L 4.55,0 h 0.1 l 1,0.05 m 0.55,27 V 26.7 18.55 L 6.25,11.8 6.4,7 V 6.55 Q 6.35,5.2 6.55,4.2 L 6.7,2.8 H 6.15 L 5.05,2.85 H 4.6 4.35 4.15 3.4 L 2.5,2.8 2.65,4.2 2.8,6.55 V 7 L 2.95,11.8 3,18.55 v 8.15 1.5 2.05 3.55 1.3 2.45 0.65 H 2.95 L 2.8,41.8 v 0.45 L 2.65,44.6 2.5,46 3.4,45.95 h 0.75 0.45 0.15 0.3 0.3 L 6.15,46 H 6.7 L 6.55,44.6 Q 6.35,43.6 6.4,42.25 V 41.8 L 6.3,38.2 H 6.25 L 6.2,37.55 v -2.45 -3.65 -1.2 -3.2"
         fill="#9a9a9a"
         fill-rule="evenodd"
         stroke="none"
         id="path38" />
      <path
         d="m 6.2,27.05 v 3.2 1.2 l -0.25,1.6 q -0.9,5.8 -0.9,8.5 l 0.3,4.4 H 5.05 4.75 L 4.65,45.4 Q 4.5,44.55 4.5,43.05 4.5,39.1 5.25,34.2 L 6.2,27.05 M 3,33.8 V 30.25 28.2 l 0.2,-1.3 1,-6.35 V 7.65 L 4.35,2.85 H 4.6 L 4.75,7.8 V 20.7 L 4.8,21 3.9,27.8 3,33.8"
         fill="#ababab"
         fill-rule="evenodd"
         stroke="none"
         id="path39" />
      <path
         d="M 4.6,2.85 H 5.05 L 6.15,2.8 H 6.7 L 6.55,4.2 Q 6.35,5.2 6.4,6.55 V 7 L 6.25,11.8 6.2,18.55 v 8.15 0.35 L 5.25,34.2 q -0.75,4.9 -0.75,8.85 0,1.5 0.15,2.35 l 0.1,0.55 H 4.6 4.15 3.4 L 2.5,46 2.65,44.6 2.8,42.25 V 41.8 L 2.95,38.2 H 3 V 37.55 35.1 33.8 L 3.9,27.8 4.8,21 4.75,20.7 V 7.8 L 4.6,2.85 m 1.6,28.6 v 3.65 2.45 L 6.25,38.2 H 6.3 l 0.1,3.6 v 0.45 Q 6.35,43.6 6.55,44.6 L 6.7,46 H 6.15 l -0.8,-0.05 -0.3,-4.4 q 0,-2.7 0.9,-8.5 L 6.2,31.45 M 3,28.2 V 26.7 18.55 L 2.95,11.8 2.8,7 V 6.55 L 2.65,4.2 2.5,2.8 3.4,2.85 h 0.75 0.2 L 4.2,7.65 v 12.9 L 3.2,26.9 3,28.2"
         fill="#b5b0ac"
         fill-rule="evenodd"
         stroke="none"
         id="path40" />
    </g>
    <g
       id="sprite9">
      <use
         ffdec:characterId="520"
         height="18.700001"
         width="8.6000004"
         xlink:href="#shape8"
         id="use40" />
    </g>
    <g
       id="shape8">
      <path
         d="m 8.6,2.7 v 0.25 2.7 0.45 0.3 0.65 0.45 0.25 0.15 0.75 2.3 0.25 1.1 0.3 0.45 2.7 0.25 1.2 H 8.4 L 8.35,17.75 8,17.6 Q 7.85,18.45 6.1,18.7 H 2.5 Q 0.75,18.45 0.6,17.6 L 0.25,17.75 V 17.2 H 0.05 L 0,16 V 13.35 L 0.05,10.8 V 10.55 9.75 8.55 7.6 L 0,5.2 V 2.7 L 0.05,1.5 h 0.2 V 1.15 0.95 L 0.6,1.1 Q 0.75,0.25 2.5,0 H 6.1 Q 7.85,0.25 8,1.1 L 8.35,0.95 8.4,1.5 H 8.6 V 2.7 M 3.95,16 H 4.3 4.45 l 1.1,0.05 H 5.6 v -0.3 -1 V 13.7 12.3 11.2 7.05 6.4 5 3.95 2.95 2.85 H 5.55 L 4.45,2.9 H 4.3 4.25 4.15 4 3.7 3.4 3 v 0.05 1 0.5 0.65 2.45 0.35 1.85 3.85 0.65 0.5 1 0.3 L 3.4,16 h 0.3 0.15 0.1"
         fill="#6b6b6b"
         fill-rule="evenodd"
         stroke="none"
         id="path41" />
      <path
         d="M 3.95,16 H 3.85 L 3.7,10.85 3.85,6.85 4.15,2.9 h 0.1 L 4.3,3.3 4.15,8.5 Q 4,10.05 4,12.2 L 3.95,16"
         fill="#989898"
         fill-rule="evenodd"
         stroke="none"
         id="path42" />
      <path
         d="M 4.25,2.9 H 4.3 4.45 L 5.55,2.85 H 5.6 v 0.1 1 1.05 1.4 0.65 4.15 1.1 1.4 1.05 1 0.3 H 5.55 L 4.45,16 H 4.3 3.95 L 4,12.2 Q 4,10.05 4.15,8.5 L 4.3,3.3 4.25,2.9 M 3.85,16 H 3.7 3.4 L 3,16.05 v -0.3 -1 -0.5 V 13.6 9.75 7.9 7.55 5.1 4.45 3.95 2.95 2.9 H 3.4 3.7 4 4.15 l -0.3,3.95 -0.15,4 0.15,5.15"
         fill="#b2a69a"
         fill-rule="evenodd"
         stroke="none"
         id="path43" />
    </g>
    <g
       id="sprite10">
      <use
         ffdec:characterId="524"
         height="6.9499998"
         width="7.8000002"
         xlink:href="#shape9"
         id="use43" />
    </g>
    <g
       id="shape9">
      <path
         d="M 7.3,0 7.8,1.7 7,2 2.8,3.05 2.2,4.15 1.95,4.65 Q 1,6.6 0.3,6.95 L 0,6.2 0.05,5.95 0,5.65 Q 0,4.45 1.35,2.4 L 1.5,2.2 1.8,1.8 2.55,1.4 Q 3.6,0.9 5.7,0.35 L 7.3,0"
         fill="#6b6b6b"
         fill-rule="evenodd"
         stroke="none"
         id="path44" />
    </g>
    <g
       id="sprite11">
      <use
         ffdec:characterId="526"
         height="8.1000004"
         width="1.8"
         xlink:href="#shape10"
         id="use44" />
    </g>
    <g
       id="shape10">
      <path
         d="M 1.8,2.5 1.7,4.3 1.55,4.95 1.15,7.6 V 7.75 L 1.1,7.85 1.05,7.9 0.75,8.1 Q 0.15,7.4 0.15,4.8 V 4.7 L 0,4.05 0.15,0.6 1.7,0.65 1.8,2.5"
         fill="#6b6b6b"
         fill-rule="evenodd"
         stroke="none"
         id="path45" />
    </g>
    <g
       id="sprite12">
      <use
         ffdec:characterId="516"
         height="67"
         width="19.1"
         xlink:href="#shape11"
         id="use45" />
    </g>
    <g
       id="shape11">
      <path
         d="m 18.95,1.95 -0.05,0.4 0.2,0.3 V 53.7 l -0.4,9.3 -0.05,0.15 0.05,0.05 -0.15,2.4 v 0.85 Q 18.1,66.9 17.3,66.9 L 16.45,66.7 13.15,66.95 9.55,66.6 5.95,66.95 2.65,66.7 1.8,66.9 Q 1,66.9 0.55,66.45 V 65.6 L 0.4,63.2 0.45,63.15 0.4,63 0,53.7 V 2.65 L 0.2,2.35 0.15,1.95 Q 0.15,1.5 0.55,1 1.1,0.3 2.1,0 H 17 q 1,0.3 1.55,1 0.4,0.5 0.4,0.95 M 11.4,3.75 H 10.9 7.8 7 5.2 4.95 3.65 L 3.6,8.45 3.75,15.7 V 16.95 21 29.25 L 3.9,40.2 v 3.3 L 3.75,53.55 3.1,63 5.4,62.75 6.15,62.7 7.6,62.65 h 0.7 0.35 0.6 0.3 0.5 0.45 0.6 0.5 l 1.9,0.1 0.65,0.05 L 16,63 Q 15.55,59.8 15.35,53.55 L 15.2,40.2 q 0,-7.2 0.15,-10.95 v -12.3 l 0.15,-8.5 -0.05,-4.7 h -0.6 -0.5 -2.95 m 2.85,3 H 14.2 q -0.95,0 -0.85,-0.8 0,-0.8 0.85,-0.8 h 0.1 q 0.35,0 0.55,0.25 L 15,5.95 14.85,6.5 14.25,6.75 m 0,53.15 q 0.4,0.15 0.4,0.7 0,0.55 -0.4,0.75 L 13.8,61.4 13.5,61.35 q -0.45,-0.15 -0.45,-0.7 0,-0.5 0.4,-0.7 l 0.4,-0.1 0.4,0.05 M 5.2,5 5.4,4.95 q 1.05,0 1.05,0.95 0,1.05 -1.05,1.05 H 5.25 L 4.85,6.85 Q 4.4,6.6 4.35,5.95 4.35,5.25 4.9,5.05 L 5.2,5 M 6.15,59.9 6.3,60.5 6.15,60.95 6,61.1 5.55,61.35 H 5.3 q -0.85,-0.1 -0.8,-0.9 0,-0.75 0.7,-0.8 L 5.4,59.6 q 0.5,0 0.75,0.3"
         fill="#6b6b6b"
         fill-rule="evenodd"
         stroke="none"
         id="path46" />
      <path
         d="m 10.9,3.75 h 0.5 q 1.05,3.8 1.3,8.75 v 7.95 l 0.05,0.35 -0.95,6.7 -1.05,7.9 -0.7,7.25 0.05,3.65 q -0.05,2.25 -0.7,3.5 h -1 Q 6.8,47.75 6.4,44.5 L 5.85,38.85 Q 5.7,38 5.5,33.35 L 5.25,27.8 q 0,-2.6 0.5,-6.1 L 6.6,15.35 7,3.75 H 7.8 V 4.25 5.8 Q 7.8,12 6.9,18.45 6,24.9 6,27.75 q 0,5.45 0.6,10.4 0.6,4.75 1.95,10.9 l 1.7,-14.25 q 1,-8.5 1.9,-14.35 v -9.1 L 11.5,6.8 10.9,3.75 m 3.45,0 h 0.5 V 5.4 Q 14.65,5.15 14.3,5.15 l 0.05,-1.4 M 14.15,62.8 13.5,62.75 v -0.7 -0.7 l 0.3,0.05 0.45,-0.05 -0.1,1.45 M 11.6,62.65 h -0.5 q -0.85,-3.3 -1.8,-9.2 L 9.15,53.4 8.3,62.65 H 7.6 l 0.1,-0.8 0.25,-3.2 0.1,-3.55 q 0.1,-2.25 1.7,-2.3 l 1.85,9.85 m -1.1,0 H 10.05 L 9.85,61.25 9.7,60.6 9.25,62.65 H 8.65 Q 8.8,61.5 9.55,60.4 10.5,58.9 10.5,62.3 v 0.35 M 6.15,62.7 5.4,62.75 5.3,61.35 H 5.55 L 6,61.1 6.15,60.95 V 62.7 M 3.9,43.5 V 40.2 L 3.75,29.25 V 21 q 0.7,-3.5 0.9,-8.7 L 4.8,7.75 4.85,6.85 5.25,6.95 V 9 q 0,8.75 -0.95,12.75 v 6.6 Q 4,32.05 4,34 4,38.6 5.1,45.7 6.15,52.8 6.15,58.25 V 59.9 Q 5.9,59.6 5.4,59.6 L 5.2,59.65 5.15,58.05 4.8,50.7 3.9,43.5 M 4.95,3.75 H 5.2 V 5 L 4.9,5.05 4.95,3.75 m 9.3,3 0.6,-0.25 v 3.7 q 0.45,5.5 0.45,14.4 l -0.65,8.3 q -0.7,7.45 -0.7,9.6 l 0.3,16.65 v 0.75 l -0.4,-0.05 -0.4,0.1 -0.4,-12.8 q 0,-9.4 0.75,-15.95 0.75,-6.5 0.75,-15.35 L 14.25,7 V 6.75 M 9.55,7.4 9.3,10.4 9,13.1 8.7,16.05 8.65,18.9 8.4,21.6 8.1,24.8 q -0.3,2.7 -0.3,5.9 l 0.3,4.2 0.25,4 H 8.4 q 0.15,-5 0.75,-9.95 0.55,-3.25 1.4,-5.65 0.4,-1.2 0.4,-4.25 0,-1.8 -0.6,-6.65 L 9.55,7.25 V 7.4 m 0.2,-2.3 q 1.8,7.05 1.8,12.8 0,1.5 -3,22 l -0.3,0.15 h -0.3 q -0.6,-5.85 -0.6,-9.3 0,-6.1 2.15,-23.65 l 0.25,-2"
         fill="#989898"
         fill-rule="evenodd"
         stroke="none"
         id="path47" />
      <path
         d="m 11.4,3.75 h 2.95 l -0.05,1.4 h -0.1 q -0.85,0 -0.85,0.8 -0.1,0.8 0.85,0.8 h 0.05 V 7 l 0.3,8.85 q 0,8.85 -0.75,15.35 -0.75,6.55 -0.75,15.95 l 0.4,12.8 q -0.4,0.2 -0.4,0.7 0,0.55 0.45,0.7 v 0.7 0.7 L 11.6,62.65 9.75,52.8 q -1.6,0.05 -1.7,2.3 l -0.1,3.55 -0.25,3.2 -0.1,0.8 -1.45,0.05 V 60.95 L 6.3,60.5 6.15,59.9 V 58.25 Q 6.15,52.8 5.1,45.7 4,38.6 4,34 4,32.05 4.3,28.35 v -6.6 Q 5.25,17.75 5.25,9 V 6.95 H 5.4 Q 6.45,6.95 6.45,5.9 6.45,4.95 5.4,4.95 L 5.2,5 V 3.75 H 7 L 6.6,15.35 5.75,21.7 q -0.5,3.5 -0.5,6.1 L 5.5,33.35 Q 5.7,38 5.85,38.85 L 6.4,44.5 q 0.4,3.25 2,5.3 h 1 q 0.65,-1.25 0.7,-3.5 l -0.05,-3.65 0.7,-7.25 1.05,-7.9 0.95,-6.7 -0.05,-0.35 V 12.5 Q 12.45,7.55 11.4,3.75 m 3.45,0 h 0.6 l 0.05,4.7 -0.15,8.5 v 12.3 Q 15.2,33 15.2,40.2 l 0.15,13.35 Q 15.55,59.8 16,63 l -1.85,-0.2 0.1,-1.45 q 0.4,-0.2 0.4,-0.75 0,-0.55 -0.4,-0.7 V 59.15 L 13.95,42.5 q 0,-2.15 0.7,-9.6 l 0.65,-8.3 q 0,-8.9 -0.45,-14.4 V 6.5 L 15,5.95 14.85,5.4 V 3.75 M 11.1,62.65 H 10.5 V 62.3 q 0,-3.4 -0.95,-1.9 -0.75,1.1 -0.9,2.25 H 8.3 L 9.15,53.4 9.3,53.45 q 0.95,5.9 1.8,9.2 m -1.05,0 h -0.5 -0.3 l 0.45,-2.05 0.15,0.65 0.2,1.4 M 5.4,62.75 3.1,63 3.75,53.55 3.9,43.5 l 0.9,7.2 0.35,7.35 0.05,1.6 q -0.7,0.05 -0.7,0.8 -0.05,0.8 0.8,0.9 l 0.1,1.4 M 3.75,21 V 16.95 15.7 L 3.6,8.45 3.65,3.75 h 1.3 L 4.9,5.05 Q 4.35,5.25 4.35,5.95 4.4,6.6 4.85,6.85 L 4.8,7.75 4.65,12.3 Q 4.45,17.5 3.75,21 M 7.8,3.75 h 3.1 l 0.6,3.05 0.65,4.55 v 9.1 q -0.9,5.85 -1.9,14.35 L 8.55,49.05 Q 7.2,42.9 6.6,38.15 6,33.2 6,27.75 6,24.9 6.9,18.45 7.8,12 7.8,5.8 V 4.25 3.75 M 9.75,5.1 9.5,7.1 q -2.15,17.55 -2.15,23.65 0,3.45 0.6,9.3 h 0.3 l 0.3,-0.15 q 3,-20.5 3,-22 0,-5.75 -1.8,-12.8 M 9.55,7.4 V 7.25 l 0.8,5.15 q 0.6,4.85 0.6,6.65 0,3.05 -0.4,4.25 Q 9.7,25.7 9.15,28.95 8.55,33.9 8.4,38.9 H 8.35 L 8.1,34.9 7.8,30.7 q 0,-3.2 0.3,-5.9 L 8.4,21.6 8.65,18.9 8.7,16.05 9,13.1 9.3,10.4 9.55,7.4"
         fill="#b2a69a"
         fill-rule="evenodd"
         stroke="none"
         id="path48" />
    </g>
    <g
       id="sprite13">
      <use
         ffdec:characterId="518"
         height="49"
         width="19.1"
         xlink:href="#shape12"
         id="use48" />
    </g>
    <g
       id="shape12">
      <path
         d="M 10.7,48.7 9.55,48.6 5.95,48.95 2.65,48.7 1.8,48.9 Q 1,48.9 0.55,48.45 V 47.6 L 0.4,45.2 0.45,45.15 0.4,45 0.05,37.15 H 0 V 35.8 35.7 2.65 L 0.2,2.35 0.15,1.95 Q 0.15,1.5 0.55,1 1.1,0.3 2.1,0 H 17 q 1,0.3 1.55,1 0.4,0.5 0.4,0.95 l -0.05,0.4 0.2,0.3 v 34.5 l -0.4,7.85 -0.05,0.15 0.05,0.05 -0.15,2.4 v 0.85 Q 18.1,48.9 17.3,48.9 L 16.45,48.7 13.15,48.95 10.9,48.7 H 10.7 M 11.8,3.75 H 11.7 11.15 10.9 10.7 9.6 9 8 7.55 6.45 5.9 3.65 l -0.05,4.7 0.05,2.75 0.05,2.25 0.05,3.5 v 2.2 H 3.9 v 3.05 l -0.1,8.85 0.1,3.65 v 2.45 H 3.7 L 3.65,38.05 3.1,45 4.75,44.8 5.45,44.75 7.3,44.65 h 0.45 1.8 1.6 0.5 l 2,0.1 0.7,0.05 L 16,45 q -0.3,-2 -0.45,-5.2 l -0.05,-1.25 -0.1,-1.4 h -0.2 l 0.1,-6.1 -0.1,-8.85 v -3.05 h 0.15 v -2.2 l 0.15,-8.5 -0.05,-4.7 h -1.5 -0.5 -1.65 m 2.25,1.3 q 0.7,0.05 0.7,0.85 L 14.5,6.5 14.15,6.8 13.8,6.9 H 13.7 Q 12.95,6.85 12.9,5.95 12.9,5.2 13.6,5.1 l 0.25,-0.05 h 0.2 M 5.25,5.4 5.85,5.3 6,5.35 q 0.7,0.1 0.8,0.8 V 6.3 L 6.65,6.85 6.5,6.95 5.85,7.25 5.45,7.2 4.95,6.65 4.9,6.5 4.85,6.25 q 0,-0.6 0.4,-0.85 m -0.1,36.55 q 0.45,0.1 0.45,0.7 L 5.3,43.2 4.85,43.35 4.5,43.3 Q 4,43.15 4.1,42.6 l 0.2,-0.5 0.55,-0.2 0.3,0.05 m 9.15,0.4 0.1,0.45 q 0,0.6 -0.45,0.8 l -0.4,0.05 q -1,0 -0.75,-0.75 0,-0.8 0.8,-0.8 0.5,-0.05 0.7,0.25"
         fill="#6b6b6b"
         fill-rule="evenodd"
         stroke="none"
         id="path49" />
      <path
         d="m 10.9,48.7 -0.05,0.1 H 10.7 v -0.1 h 0.2 M 11.7,3.75 h 0.1 q 1.15,9.1 1.15,13.45 l -0.3,6.8 -0.3,5.75 q 0,0.8 -1.2,5.25 -1.4,5 -2.4,6.6 Q 7.9,38.75 7.1,30.45 L 6.45,22 q 0,-2.4 0.45,-4.35 0.55,-2.55 0.75,-5.35 l 0.5,-5 Q 8.4,5.1 9,3.75 h 0.6 l -0.4,2.8 -0.6,4.4 -1.5,7.5 q 0,5.1 0.6,9.8 0.85,6.4 1.15,11.55 H 8.9 q 1.55,-4.35 2.5,-11 0.9,-6.25 0.9,-11.6 L 11.95,10.3 11.6,4.8 11.7,3.75 m 1.75,0 h 0.5 l 0.1,1.3 h -0.2 L 13.6,5.1 13.55,4.05 13.45,3.75 m 2.05,34.8 0.05,1.25 -1.2,5 -0.7,-0.05 0.3,-1.15 q 0.45,-0.2 0.45,-0.8 l -0.1,-0.45 1.05,-3.8 h 0.15 m -3.85,6.1 h -0.5 q 0.8,-4.9 2.1,-10.1 Q 14.3,30.4 14.3,24.2 L 13.95,12.85 13.7,6.9 h 0.1 l 0.35,-0.1 q 0.7,11.7 0.7,17.4 0,5.9 -1.25,11.5 l -1.95,8.95 m -3.9,0 H 7.3 Q 6.6,43.1 6.2,40.75 L 5.25,36 Q 4.6,33.7 4.4,31.3 4.25,29.8 4.25,26.75 L 4.15,21.5 q 0.1,-1.65 1.1,-6.95 L 6.3,8.3 6.65,6.85 6.8,6.3 V 6.15 L 7.55,3.75 H 8 l -1.6,7.9 q -1.7,9.55 -1.7,15.2 0,4.75 0.8,8.3 l 2.25,9.5 m -2.3,0.1 -0.7,0.05 -0.25,-1.5 0.35,0.05 0.45,-0.15 0.15,1.55 m -1.8,-6.7 0.05,-0.9 H 3.9 V 34.7 l 0.95,5.55 0.3,1.7 L 4.85,41.9 4.3,42.1 4.2,41.65 3.65,38.05 M 3.7,13.45 3.65,11.2 4.5,7.85 4.9,6.5 4.95,6.65 5.45,7.2 3.7,13.45 M 5.9,3.75 H 6.45 L 6,5.35 5.85,5.3 5.25,5.4 Q 5.6,4.35 5.9,3.75 m 4.8,0 h 0.2 l 0.05,0.2 0.2,-0.2 0.25,0.35 -0.25,0.25 v 11.9 l -0.3,3 V 25.7 Q 10.55,26.45 10.4,28 L 10.25,30.3 9.5,30.45 Q 8.9,28.9 8.8,27.85 l -0.05,-2.5 q 0,-6.1 0.45,-10.15 L 10.7,3.75 M 10.65,5.15 9.8,13.6 q -0.6,5.35 -0.6,8.6 0,4.95 0.55,7.8 0.25,-3.25 0.65,-4.5 v -6.45 l 0.3,-3 V 5.85 l -0.05,-0.7"
         fill="#989898"
         fill-rule="evenodd"
         stroke="none"
         id="path50" />
      <path
         d="m 10.9,3.75 h 0.25 l -0.2,0.2 -0.05,-0.2"
         fill="#b6b6b6"
         fill-rule="evenodd"
         stroke="none"
         id="path51" />
      <path
         d="m 11.8,3.75 h 1.65 l 0.1,0.3 0.05,1.05 q -0.7,0.1 -0.7,0.85 0.05,0.9 0.8,0.95 l 0.25,5.95 0.35,11.35 q 0,6.2 -1.05,10.35 -1.3,5.2 -2.1,10.1 H 9.55 7.75 L 5.5,35.15 Q 4.7,31.6 4.7,26.85 4.7,21.2 6.4,11.65 L 8,3.75 H 9 Q 8.4,5.1 8.15,7.3 l -0.5,5 Q 7.45,15.1 6.9,17.65 6.45,19.6 6.45,22 l 0.65,8.45 q 0.8,8.3 1.65,11.15 1,-1.6 2.4,-6.6 1.2,-4.45 1.2,-5.25 l 0.3,-5.75 0.3,-6.8 q 0,-4.35 -1.15,-13.45 m 2.15,0 h 1.5 l 0.05,4.7 -0.15,8.5 v 2.2 H 15.2 v 3.05 l 0.1,8.85 -0.1,6.1 h 0.2 l 0.1,1.4 h -0.15 l -1.05,3.8 q -0.2,-0.3 -0.7,-0.25 -0.8,0 -0.8,0.8 -0.25,0.75 0.75,0.75 l 0.4,-0.05 -0.3,1.15 -2,-0.1 1.95,-8.95 q 1.25,-5.6 1.25,-11.5 0,-5.7 -0.7,-17.4 L 14.5,6.5 14.75,5.9 q 0,-0.8 -0.7,-0.85 l -0.1,-1.3 m 1.6,36.05 Q 15.7,43 16,45 l -1.65,-0.2 1.2,-5 M 7.3,44.65 5.45,44.75 5.3,43.2 5.6,42.65 q 0,-0.6 -0.45,-0.7 L 4.85,40.25 3.9,34.7 3.8,31.05 3.9,22.2 V 19.15 H 3.75 v -2.2 L 3.7,13.45 5.45,7.2 5.85,7.25 6.5,6.95 6.65,6.85 6.3,8.3 5.25,14.55 q -1,5.3 -1.1,6.95 l 0.1,5.25 q 0,3.05 0.15,4.55 0.2,2.4 0.85,4.7 l 0.95,4.75 q 0.4,2.35 1.1,3.9 M 4.75,44.8 3.1,45 3.65,38.05 4.2,41.65 4.3,42.1 4.1,42.6 Q 4,43.15 4.5,43.3 l 0.25,1.5 M 3.65,11.2 3.6,8.45 3.65,3.75 H 5.9 Q 5.6,4.35 5.25,5.4 4.85,5.65 4.85,6.25 L 4.9,6.5 4.5,7.85 3.65,11.2 m 2.8,-7.45 h 1.1 L 6.8,6.15 Q 6.7,5.45 6,5.35 l 0.45,-1.6 m 3.15,0 h 1.1 L 9.2,15.2 Q 8.75,19.25 8.75,25.35 l 0.05,2.5 q 0.1,1.05 0.7,2.6 L 10.25,30.3 10.4,28 q 0.15,-1.55 0.45,-2.3 v -6.45 l 0.3,-3 V 4.35 L 11.4,4.1 11.15,3.75 h 0.55 l -0.1,1.05 0.35,5.5 0.35,6.9 q 0,5.35 -0.9,11.6 -0.95,6.65 -2.5,11 H 8.85 Q 8.55,34.65 7.7,28.25 7.1,23.55 7.1,18.45 l 1.5,-7.5 0.6,-4.4 0.4,-2.8 m 1.05,1.4 0.05,0.7 v 10.2 l -0.3,3 V 25.5 Q 10,26.75 9.75,30 9.2,27.15 9.2,22.2 q 0,-3.25 0.6,-8.6 l 0.85,-8.45"
         fill="#b2a69a"
         fill-rule="evenodd"
         stroke="none"
         id="path52" />
    </g>
    <g
       id="sprite14">
      <use
         ffdec:characterId="289"
         height="30.799999"
         width="9.1999998"
         xlink:href="#shape13"
         id="use52" />
    </g>
    <g
       id="shape13">
      <path
         d="M 8.6,1.25 8.95,1.1 9.15,11.15 H 9.2 v 1.1 2.35 2.3 1.65 9.4 1.2 H 9 L 8.95,29.7 8.6,29.55 q -0.2,1.05 -2.95,1.2 l -1,0.05 H 4.55 L 3.45,30.75 Q 0.8,30.6 0.6,29.55 L 0.25,29.7 V 29.15 H 0.05 L 0,27.95 0.05,18.55 v -1.05 -1 -2 -0.95 -2.4 H 0.1 q 0,-6 0.15,-10.05 L 0.6,1.25 Q 0.8,0.2 3.45,0.05 L 4.55,0 h 0.1 l 1,0.05 Q 8.4,0.2 8.6,1.25 M 5.65,28 h 0.5 0.05 v -1.3 -7.05 -1.1 -1.45 -4.85 -1.1 H 6.3 L 6.4,7 V 6.55 Q 6.35,5.2 6.55,4.2 L 6.7,2.8 H 6.15 L 5.85,2.85 H 5.05 4.6 4.15 3.4 L 2.5,2.8 2.65,4.2 2.8,6.55 V 7 l 0.15,4.15 H 3 v 1.1 1.25 3.6 1.45 1 0.65 6.5 1.3 L 3.4,27.95 H 4.15 4.6 5.05 5.2 L 5.65,28"
         fill="#6b6b6b"
         fill-rule="evenodd"
         stroke="none"
         id="path53" />
      <path
         d="M 6.15,2.8 V 4.3 Q 6.15,6.5 5.6,9 5.05,11.5 5.05,15.1 5.05,18.15 5.7,27 L 5.65,28 5.2,27.95 4.6,15.05 4.65,11.5 Q 4.8,9.6 5.4,8.15 5.85,7.1 5.8,4.7 L 5.85,2.85 6.15,2.8"
         fill="#989898"
         fill-rule="evenodd"
         stroke="none"
         id="path54" />
      <path
         d="M 5.65,28 5.7,27 Q 5.05,18.15 5.05,15.1 5.05,11.5 5.6,9 6.15,6.5 6.15,4.3 V 2.8 H 6.7 L 6.55,4.2 Q 6.35,5.2 6.4,6.55 V 7 L 6.3,11.15 H 6.2 v 1.1 4.85 1.45 1.1 7.05 1.3 H 6.15 5.65 M 5.85,2.85 5.8,4.7 Q 5.85,7.1 5.4,8.15 4.8,9.6 4.65,11.5 L 4.6,15.05 5.2,27.95 H 5.05 4.6 4.15 3.4 L 3,28 v -1.3 -6.5 -0.65 -1 -1.45 -3.6 -1.25 -1.1 H 2.95 L 2.8,7 V 6.55 L 2.65,4.2 2.5,2.8 3.4,2.85 h 0.75 0.45 0.45 0.8"
         fill="#b2a69a"
         fill-rule="evenodd"
         stroke="none"
         id="path55" />
    </g>
    <g
       id="sprite15">
      <use
         ffdec:characterId="522"
         height="6.5500002"
         width="6.1500001"
         xlink:href="#shape14"
         id="use55" />
    </g>
    <g
       id="shape14">
      <path
         d="m 3.05,2.05 -0.5,-0.9 q 0,-1.8 1.8,-0.75 1.8,1.1 1.8,2.7 0,1.15 -1.2,1.15 L 4,3.5 3.35,3.95 l -1.5,0.8 0.2,1.6 v 0.1 L 0.3,6.5 0.1,6.55 0,5.5 Q 0,4.65 0.3,4.3 V 4.15 l 2.25,-1.8 0.5,-0.3"
         fill="#9a9a9a"
         fill-rule="evenodd"
         stroke="none"
         id="path56" />
    </g>
    <g
       id="sprite16">
      <use
         ffdec:characterId="528"
         height="7.3499999"
         width="4.8499999"
         xlink:href="#shape15"
         id="use56" />
    </g>
    <g
       id="shape15">
      <path
         d="M 1.25,2.55 0,1.1 q 0,-2.05 2.45,-0.2 2.4,1.8 2.4,2.4 0,0.85 -0.9,0.85 L 2.9,3.85 2.4,6.45 2.35,6.7 2.4,7.05 v 0.3 L 0.9,7.25 1.1,4.5 Q 1.15,3.5 1.45,2.8 L 1.25,2.55"
         fill="#6b6b6b"
         fill-rule="evenodd"
         stroke="none"
         id="path57" />
    </g>
    <g
       id="sprite17"
       transform="translate(5.4,4)">
      <use
         ffdec:characterId="43"
         height="8"
         transform="translate(-5.4,-4)"
         width="10.8"
         xlink:href="#shape16"
         id="use57" />
    </g>
    <g
       id="shape16"
       transform="translate(5.4,4)">
      <path
         d="m 2.9,-0.35 q 0,-1.25 1.25,-1.25 1.25,0 1.25,1.2 0,1.3 -1.25,1.3 Q 3.6,0.9 3.25,0.5 2.9,0.15 2.9,-0.35 m 0.35,-2.3 q 0,0.55 -0.35,0.9 -0.4,0.45 -1,0.45 -1.35,0 -1.35,-1.4 0,-1.3 1.35,-1.3 1.35,0 1.35,1.35 m -3.1,1.9 h 0.2 q 2.6,0.1 2.6,2.8 l -0.3,1 Q 2.05,4 0.45,4 H 0.35 0.15 0.1 -0.45 q -1.6,0 -2.2,-0.95 l -0.3,-1 q 0,-2.8 2.8,-2.8 h 0.3 M -1.55,-4 q 1.35,0 1.35,1.35 0,0.55 -0.4,0.9 -0.4,0.45 -0.95,0.45 -1.4,0 -1.4,-1.4 0,-1.3 1.4,-1.3 m -2.6,2.4 q 1.25,0 1.25,1.25 0,0.5 -0.35,0.85 -0.35,0.4 -0.9,0.4 -1.25,0 -1.25,-1.3 0,-1.2 1.25,-1.2"
         fill="#6b6b6b"
         fill-rule="evenodd"
         stroke="none"
         id="path58" />
    </g>
  </defs>
</svg>
