<?xml version="1.0" encoding="UTF-8" standalone="no"?>
<svg
   ffdec:objectType="frame"
   height="133.81667"
   width="68.5"
   version="1.1"
   id="svg51"
   sodipodi:docname="2.svg"
   xmlns:inkscape="http://www.inkscape.org/namespaces/inkscape"
   xmlns:sodipodi="http://sodipodi.sourceforge.net/DTD/sodipodi-0.dtd"
   xmlns:xlink="http://www.w3.org/1999/xlink"
   xmlns="http://www.w3.org/2000/svg"
   xmlns:svg="http://www.w3.org/2000/svg"
   xmlns:ffdec="https://www.free-decompiler.com/flash">
  <sodipodi:namedview
     id="namedview51"
     pagecolor="#ffffff"
     bordercolor="#000000"
     borderopacity="0.25"
     inkscape:showpageshadow="2"
     inkscape:pageopacity="0.0"
     inkscape:pagecheckerboard="0"
     inkscape:deskcolor="#d1d1d1"
     fit-margin-top="5"
     fit-margin-left="5"
     fit-margin-right="5"
     fit-margin-bottom="5" />
  <g
     transform="translate(38.1,72.1)"
     id="g19">
    <use
       ffdec:characterId="561"
       height="68.5"
       transform="matrix(-1,0,0,1,30.4,-72.15)"
       width="68.849998"
       xlink:href="#sprite0"
       id="use1" />
    <use
       ffdec:characterId="914"
       height="10.4"
       transform="matrix(-1,0,0,1,9.6,28)"
       width="11.8"
       xlink:href="#sprite3"
       id="use2" />
    <use
       ffdec:characterId="922"
       height="21.35"
       transform="matrix(-0.5,-0.866,-0.866,0.5,25.3228,34.7161)"
       width="15.8"
       xlink:href="#sprite4"
       id="use3" />
    <use
       ffdec:characterId="950"
       height="18.049999"
       transform="matrix(-0.866,-0.5,0.5,-0.866,-19.5012,-28.2811)"
       width="4.5"
       xlink:href="#sprite5"
       id="use4" />
    <use
       ffdec:characterId="950"
       height="18.049999"
       transform="matrix(0,1,1,0,-31.4497,-40.8501)"
       width="4.5"
       xlink:href="#sprite5"
       id="use5" />
    <use
       ffdec:characterId="922"
       height="21.35"
       transform="matrix(0.7071,0.7071,0.7071,-0.7071,-29.7663,-26.5555)"
       width="15.8"
       xlink:href="#sprite4"
       id="use6" />
    <use
       ffdec:characterId="914"
       height="10.4"
       transform="matrix(-1,0,0,1,5.95,-60.3)"
       width="11.8"
       xlink:href="#sprite6"
       id="use7" />
    <use
       ffdec:characterId="955"
       height="23.799999"
       transform="matrix(-0.9659,-0.2588,-0.2588,0.9659,24.186,-46.5055)"
       width="23.1"
       xlink:href="#sprite7"
       id="use8" />
    <use
       ffdec:characterId="918"
       height="13.8"
       transform="matrix(-1,0,0,1,16.2,-60.7)"
       width="13.95"
       xlink:href="#sprite8"
       id="use9" />
    <use
       ffdec:characterId="955"
       height="23.799999"
       transform="matrix(-0.5547,-0.1486,-0.1486,0.5547,17.3752,-42.6342)"
       width="23.1"
       xlink:href="#sprite9"
       id="use10" />
    <use
       ffdec:characterId="933"
       height="12.7"
       transform="matrix(-1,0,0,1,9.15,-53.75)"
       width="12.85"
       xlink:href="#sprite10"
       id="use11" />
    <use
       ffdec:characterId="918"
       height="13.8"
       transform="matrix(-1,0,0,1,9.65,-34.7)"
       width="13.95"
       xlink:href="#sprite11"
       id="use12" />
    <use
       ffdec:characterId="933"
       height="12.7"
       transform="matrix(0.5,0.866,0.866,-0.5,-17.7492,-36.6675)"
       width="12.85"
       xlink:href="#sprite12"
       id="use13" />
    <use
       ffdec:characterId="936"
       height="14.4"
       transform="matrix(0.0341,-0.9994,0.9994,0.0341,-11.1431,7.3304)"
       width="53.900002"
       xlink:href="#sprite13"
       id="use14" />
    <use
       ffdec:characterId="942"
       height="46.900002"
       transform="matrix(-1,0,0,1,8.2,1.9)"
       width="19.5"
       xlink:href="#sprite14"
       id="use15" />
    <use
       ffdec:characterId="918"
       height="13.8"
       transform="matrix(-0.2588,0.9659,0.9659,0.2588,-15.266,28.2511)"
       width="13.95"
       xlink:href="#sprite8"
       id="use16" />
    <use
       ffdec:characterId="946"
       height="28.9"
       transform="translate(-15.25,32.8)"
       width="26.85"
       xlink:href="#sprite15"
       id="use17" />
    <use
       ffdec:characterId="955"
       height="23.799999"
       transform="matrix(-1,0,0,1,-0.1,-60.5)"
       width="23.1"
       xlink:href="#sprite16"
       id="use18" />
    <use
       ffdec:characterId="44"
       height="8"
       transform="matrix(-0.7071,-0.7071,-0.7071,0.7071,16.4467,-35.9601)"
       width="10.8"
       xlink:href="#sprite17"
       id="use19" />
  </g>
  <defs
     id="defs51">
    <g
       id="sprite0"
       transform="translate(34.25,34.3)">
      <use
         ffdec:characterId="560"
         height="68.449997"
         transform="translate(-34.25,-34.25)"
         width="68.849998"
         xlink:href="#sprite1"
         id="use20" />
    </g>
    <g
       id="sprite1"
       transform="translate(34.25,34.25)">
      <use
         ffdec:characterId="559"
         height="68.449997"
         transform="translate(-34.25,-34.25)"
         width="68.5"
         xlink:href="#sprite2"
         id="use21" />
    </g>
    <g
       id="sprite2"
       transform="translate(34.25,34.25)">
      <use
         ffdec:characterId="558"
         height="68.449997"
         transform="translate(-34.25,-34.25)"
         width="68.5"
         xlink:href="#shape0"
         id="use22" />
    </g>
    <g
       id="shape0"
       transform="translate(34.25,34.25)">
      <path
         d="m 34.25,-0.05 q 0,14.2 -10.05,24.2 Q 14.15,34.2 0,34.2 q -14.15,0 -24.2,-10.05 -10.05,-10 -10.05,-24.2 0,-14.15 10.05,-24.2 10.05,-10 24.2,-10 14.15,0 24.2,10 10.05,10.05 10.05,24.2"
         fill="url(#gradient0)"
         fill-rule="evenodd"
         stroke="none"
         id="path22" />
    </g>
    <radialGradient
       cx="0"
       cy="0"
       gradientTransform="scale(0.0454)"
       gradientUnits="userSpaceOnUse"
       id="gradient0"
       r="819.20001"
       spreadMethod="pad">
      <stop
         offset="0.0"
         stop-color="#fefeeb"
         stop-opacity="0.49803922"
         id="stop22" />
      <stop
         offset="1.0"
         stop-color="#fefefe"
         stop-opacity="0.0"
         id="stop23" />
    </radialGradient>
    <g
       id="sprite3"
       transform="translate(5.9,5.2)">
      <use
         ffdec:characterId="913"
         height="10.4"
         transform="translate(-5.9,-5.2)"
         width="11.8"
         xlink:href="#shape1"
         id="use23" />
    </g>
    <g
       id="shape1"
       transform="translate(5.9,5.2)">
      <path
         d="m -2.85,-0.95 0.05,0.5 q 0.35,1 1.55,1 Q 0,0.55 0.6,-0.5 1,-1.15 1,-1.9 1.15,-2.3 0.95,-2.7 q 1,0.2 1.6,0.85 Q 3.2,-1.1 3.2,-0.2 L 2.9,1.2 Q 2.4,2.5 1.15,2.5 -1,2.5 -2.15,1.6 -3.3,0.65 -3.2,0.05 l 0.35,-1"
         fill="#e2e2e2"
         fill-rule="evenodd"
         stroke="none"
         id="path23" />
      <path
         d="m -2.85,-0.95 -0.35,1 Q -3.3,0.65 -2.15,1.6 -1,2.5 1.15,2.5 2.4,2.5 2.9,1.2 L 3.2,-0.2 Q 3.2,-1.1 2.55,-1.85 1.95,-2.5 0.95,-2.7 l -2.1,0.05 q -0.75,0.15 -1.35,1.1 l -0.35,0.6 M 5.25,-2.6 Q 5.9,-1.25 5.9,0.3 5.9,1.6 4.95,2.95 3.45,5.2 0.1,5.2 -3.45,5.2 -5.05,2.8 L -5.9,0.4 q 0,-1.5 1,-3.05 1.7,-2.55 5.4,-2.55 3.4,0 4.75,2.6"
         fill="#6b6b6b"
         fill-rule="evenodd"
         stroke="none"
         id="path24" />
      <path
         d="m 0.95,-2.7 q 0.2,0.4 0.05,0.8 0,0.75 -0.4,1.4 -0.6,1.05 -1.85,1.05 -1.2,0 -1.55,-1 l -0.05,-0.5 0.35,-0.6 q 0.6,-0.95 1.35,-1.1 l 2.1,-0.05"
         fill="#ffffff"
         fill-rule="evenodd"
         stroke="none"
         id="path25" />
    </g>
    <g
       id="sprite4"
       transform="translate(7.9,10.65)">
      <use
         ffdec:characterId="921"
         height="21.35"
         transform="translate(-7.9,-10.65)"
         width="15.8"
         xlink:href="#shape2"
         id="use25" />
    </g>
    <g
       id="shape2"
       transform="translate(7.9,10.65)">
      <path
         d="m 5.6,-9.25 -0.2,1.55 0.1,1.55 q 0,1.15 -3.1,1.85 -3.1,0.7 -3.1,1.9 l 0.75,1.55 Q 0.8,0.4 0.8,1.8 q 0,3.55 -3.25,4.3 -3.35,0.8 -3.5,4.3 L -6.25,10.7 -7.7,9.25 -7.9,7.9 q 0,-2.75 3.8,-3.4 3.75,-0.7 3.75,-2.95 0,-1 -0.65,-1.95 -0.7,-0.95 -0.7,-2 0,-1.2 0.6,-1.45 1.35,-0.6 2.5,-1.85 L 3.45,-6 q 1.5,-0.15 1.1,-1.05 L 4.4,-8.75 4.5,-9.5 q 0.2,-0.4 1.1,-0.8 l 2,-0.15 0.25,-0.2 0.05,0.9 q -0.25,0.4 -2.3,0.5"
         fill="#6b6b6b"
         fill-rule="evenodd"
         stroke="none"
         id="path26" />
    </g>
    <g
       id="sprite5"
       transform="translate(2.25,9)">
      <use
         ffdec:characterId="949"
         height="18.049999"
         transform="translate(-2.25,-9)"
         width="4.5"
         xlink:href="#shape3"
         id="use26" />
    </g>
    <g
       id="shape3"
       transform="translate(2.25,9)">
      <path
         d="m 2.1,-9 0.15,1.2 q 0,0.45 -1.2,2.15 0,0.3 0.55,1.1 l 0.5,1.5 -0.95,2.7 q -1,2.35 -1,5 L 0.5,6 0.2,7.7 q -0.4,1.35 -1.2,1.35 -0.9,0 -1.15,-0.9 l -0.1,-0.95 0.7,-2.6 q 0.7,-2.25 0.7,-2.8 0,-1 0.9,-3.2 L 0.9,-3.6 0.6,-4.3 q -0.3,-0.6 -0.3,-0.95 0,-0.4 1.1,-1.8 L 1.65,-8.1 Q 1.7,-8.8 2.1,-9"
         fill="#6b6b6b"
         fill-rule="evenodd"
         stroke="none"
         id="path27" />
    </g>
    <g
       id="sprite6"
       transform="translate(5.9,5.2)">
      <use
         ffdec:characterId="913"
         height="10.4"
         transform="translate(-5.9,-5.2)"
         width="11.8"
         xlink:href="#shape1"
         id="use27" />
    </g>
    <g
       id="sprite7"
       transform="translate(11.55,11.9)">
      <use
         ffdec:characterId="954"
         height="23.799999"
         transform="translate(-11.55,-11.9)"
         width="23.1"
         xlink:href="#shape4"
         id="use28" />
    </g>
    <g
       id="shape4"
       transform="translate(11.55,11.9)">
      <path
         d="m 0.3,-4.15 q -1.6,-0.2 -2.45,0.75 l -0.3,0.35 q -0.5,0.8 -0.65,2.2 H -3 l 0.5,0.2 1.15,0.15 q 2.6,0 2.95,-1.55 l 0.3,-1.3 -0.2,-0.3 -1.4,-0.5 m 11.25,3.05 q 0,3.7 -1.3,6.75 l -0.2,0.4 -0.9,1.6 -1.4,1.7 Q 6.4,10.6 4.6,11.25 L 0.5,11.9 -4.3,11.25 q -3.3,-1 -5.15,-3.6 L -9.8,7.15 -9.95,6.9 -10.6,5.65 q -0.95,-2.15 -0.95,-4.55 0,-5.95 3.6,-9.55 3.2,-3.2 7.95,-3.45 4.65,-0.25 7.95,2.5 3.6,3 3.6,8.3 m -19.7,-1.85 q -0.7,1.85 -0.7,4.1 0,2.45 1.35,4.5 l 0.2,0.3 0.85,0.95 0.95,0.75 Q -3.2,9.2 0.55,9.2 3.45,9.2 5.4,7.65 L 6.2,6.9 7.15,5.65 7.8,4.35 Q 8.85,1.8 8.85,-1.1 8.85,-3.5 7,-6.05 4.2,-9.85 -1.05,-9.1 l -1.4,0.5 q -3.45,1.4 -5.05,4.25 l -0.65,1.4 m 7,-2.6 2.4,-0.25 q 2.5,0 3.7,1.95 0.8,1.25 0.8,2.45 0,1.9 -0.85,3.6 Q 3.6,4.85 0.7,4.85 -2,4.85 -3.65,3.15 -4.95,1.8 -4.95,0.7 l 0.2,-2.55 0.45,-1.4 q 0.9,-1.75 3.15,-2.3"
         fill="#6b6b6b"
         fill-rule="evenodd"
         stroke="none"
         id="path28" />
      <path
         d="m 0.3,-4.15 1.4,0.5 0.2,0.3 -0.3,1.3 Q 1.25,-0.5 -1.35,-0.5 L -2.5,-0.65 -3,-0.85 h -0.1 q 0.15,-1.4 0.65,-2.2 l 0.3,-0.35 Q -1.3,-4.35 0.3,-4.15 m -8.45,1.2 0.65,-1.4 q 1.6,-2.85 5.05,-4.25 1.4,0.35 1.4,2.3 l -0.1,0.75 Q -3.4,-5 -4.3,-3.25 l -0.45,1.4 h -0.2 q -2.3,0 -3.2,-1.1"
         fill="#ffffff"
         fill-rule="evenodd"
         stroke="none"
         id="path29" />
      <path
         d="m -2.45,-8.6 1.4,-0.5 Q 4.2,-9.85 7,-6.05 8.85,-3.5 8.85,-1.1 8.85,1.8 7.8,4.35 L 7.15,5.65 6.2,6.9 5.4,7.65 Q 3.45,9.2 0.55,9.2 -3.2,9.2 -5.5,7.65 L -6.45,6.9 -7.3,5.95 -7.5,5.65 q -1.35,-2.05 -1.35,-4.5 0,-2.25 0.7,-4.1 0.9,1.1 3.2,1.1 h 0.2 l -0.2,2.55 q 0,1.1 1.3,2.45 1.65,1.7 4.35,1.7 2.9,0 4.2,-2.65 0.85,-1.7 0.85,-3.6 0,-1.2 -0.8,-2.45 -1.2,-1.95 -3.7,-1.95 l -2.4,0.25 0.1,-0.75 q 0,-1.95 -1.4,-2.3"
         fill="#e2e2e2"
         fill-rule="evenodd"
         stroke="none"
         id="path30" />
    </g>
    <g
       id="sprite8"
       transform="translate(6.95,6.9)">
      <use
         ffdec:characterId="917"
         height="13.8"
         transform="translate(-6.95,-6.9)"
         width="13.95"
         xlink:href="#shape5"
         id="use30" />
    </g>
    <g
       id="shape5"
       transform="translate(6.95,6.9)">
      <path
         d="M 1.05,-4.35 1.2,-3 1.15,-2.25 -0.2,-2.5 Q -2,-2.3 -2,-0.6 l 0.05,0.4 -2.3,-0.65 q 0.6,-2.5 4.2,-3.45 l 1.1,-0.05"
         fill="#ffffff"
         fill-rule="evenodd"
         stroke="none"
         id="path31" />
      <path
         d="M 1.15,-2.25 Q 1.6,-1.9 1.6,-1.05 L 1.15,0.05 Q 0.6,0.8 -0.2,0.8 q -1.55,0 -1.75,-1 L -2,-0.6 q 0,-1.7 1.8,-1.9 l 1.35,0.25 m -5.4,1.4 -0.1,1 q 0,1.35 0.9,2.6 1.3,1.8 3.75,1.8 2.75,0 3.85,-2.7 Q 4.65,0.5 4.65,-1.1 4.65,-2.3 4,-3.15 3.05,-4.3 1.05,-4.35 l -1.1,0.05 q -3.6,0.95 -4.2,3.45 M 4.8,-5.8 Q 7,-4.3 7,-1.2 7,1.6 6,3.5 4.15,6.9 -0.7,6.9 q -3.8,0 -5.35,-3.05 -0.9,-1.7 -0.9,-3.5 0,-3 2.2,-5.05 1.95,-1.8 4.8,-2.15 2.8,-0.35 4.75,1.05"
         fill="#6b6b6b"
         fill-rule="evenodd"
         stroke="none"
         id="path32" />
      <path
         d="M 1.15,-2.25 1.2,-3 1.05,-4.35 q 2,0.05 2.95,1.2 0.65,0.85 0.65,2.05 0,1.6 -0.5,2.95 -1.1,2.7 -3.85,2.7 -2.45,0 -3.75,-1.8 -0.9,-1.25 -0.9,-2.6 l 0.1,-1 2.3,0.65 q 0.2,1 1.75,1 0.8,0 1.35,-0.75 l 0.45,-1.1 q 0,-0.85 -0.45,-1.2"
         fill="#e2e2e2"
         fill-rule="evenodd"
         stroke="none"
         id="path33" />
    </g>
    <g
       id="sprite9"
       transform="translate(11.55,11.9)">
      <use
         ffdec:characterId="954"
         height="23.799999"
         transform="translate(-11.55,-11.9)"
         width="23.1"
         xlink:href="#shape6"
         id="use33" />
    </g>
    <g
       id="shape6"
       transform="translate(11.55,11.9)">
      <path
         d="m 0.3,-4.15 q -1.6,-0.2 -2.45,0.75 l -0.3,0.35 q -0.5,0.8 -0.65,2.2 H -3 l 0.5,0.2 1.15,0.15 q 2.6,0 2.95,-1.55 l 0.3,-1.3 -0.2,-0.3 -1.4,-0.5 m 11.25,3.05 q 0,3.7 -1.3,6.75 l -0.2,0.4 -0.9,1.6 -1.4,1.7 Q 6.4,10.6 4.6,11.25 L 0.5,11.9 -4.3,11.25 q -3.3,-1 -5.15,-3.6 L -9.8,7.15 -9.95,6.9 -10.6,5.65 q -0.95,-2.15 -0.95,-4.55 0,-5.95 3.6,-9.55 3.2,-3.2 7.95,-3.45 4.65,-0.25 7.95,2.5 3.6,3 3.6,8.3 m -19.7,-1.85 q -0.7,1.85 -0.7,4.1 0,2.45 1.35,4.5 l 0.2,0.3 0.85,0.95 0.95,0.75 Q -3.2,9.2 0.55,9.2 3.45,9.2 5.4,7.65 L 6.2,6.9 7.15,5.65 7.8,4.35 Q 8.85,1.8 8.85,-1.1 8.85,-3.5 7,-6.05 4.2,-9.85 -1.05,-9.1 l -1.4,0.5 q -3.45,1.4 -5.05,4.25 l -0.65,1.4 m 7,-2.6 2.4,-0.25 q 2.5,0 3.7,1.95 0.8,1.25 0.8,2.45 0,1.9 -0.85,3.6 Q 3.6,4.85 0.7,4.85 -2,4.85 -3.65,3.15 -4.95,1.8 -4.95,0.7 l 0.2,-2.55 0.45,-1.4 q 0.9,-1.75 3.15,-2.3"
         fill="#e2e2e2"
         fill-rule="evenodd"
         stroke="none"
         id="path34" />
      <path
         d="m 0.3,-4.15 1.4,0.5 0.2,0.3 -0.3,1.3 Q 1.25,-0.5 -1.35,-0.5 L -2.5,-0.65 -3,-0.85 h -0.1 q 0.15,-1.4 0.65,-2.2 l 0.3,-0.35 Q -1.3,-4.35 0.3,-4.15 m -8.45,1.2 0.65,-1.4 q 1.6,-2.85 5.05,-4.25 1.4,0.35 1.4,2.3 l -0.1,0.75 Q -3.4,-5 -4.3,-3.25 l -0.45,1.4 h -0.2 q -2.3,0 -3.2,-1.1"
         fill="#e2e2e2"
         fill-rule="evenodd"
         stroke="none"
         id="path35" />
      <path
         d="m -2.45,-8.6 1.4,-0.5 Q 4.2,-9.85 7,-6.05 8.85,-3.5 8.85,-1.1 8.85,1.8 7.8,4.35 L 7.15,5.65 6.2,6.9 5.4,7.65 Q 3.45,9.2 0.55,9.2 -3.2,9.2 -5.5,7.65 L -6.45,6.9 -7.3,5.95 -7.5,5.65 q -1.35,-2.05 -1.35,-4.5 0,-2.25 0.7,-4.1 0.9,1.1 3.2,1.1 h 0.2 l -0.2,2.55 q 0,1.1 1.3,2.45 1.65,1.7 4.35,1.7 2.9,0 4.2,-2.65 0.85,-1.7 0.85,-3.6 0,-1.2 -0.8,-2.45 -1.2,-1.95 -3.7,-1.95 l -2.4,0.25 0.1,-0.75 q 0,-1.95 -1.4,-2.3"
         fill="#e2e2e2"
         fill-rule="evenodd"
         stroke="none"
         id="path36" />
    </g>
    <g
       id="sprite10"
       transform="translate(6.4,6.35)">
      <use
         ffdec:characterId="931"
         height="12.7"
         transform="translate(-6.4,-6.35)"
         width="12.85"
         xlink:href="#shape7"
         id="use36" />
    </g>
    <g
       id="shape7"
       transform="translate(6.4,6.35)">
      <path
         d="M 1.85,-2.35 Q 1.25,-3 -0.05,-2.9 -2.4,-2.7 -2.4,0.15 L -2.1,1 -2,1.1 h -0.4 q -1,0 -1.65,-0.95 0.2,-3.85 4,-4.15 l 1.6,0.15 0.3,1.5 M -0.2,-1.4 h 0.15 L 0.05,-0.95 -0.2,-0.4 -1,0.05 q -0.35,-0.25 -0.35,-0.65 0,-0.65 1.15,-0.8"
         fill="#ffffff"
         fill-rule="evenodd"
         stroke="none"
         id="path37" />
      <path
         d="m -3.5,-4.95 q 1.7,-1.15 4.6,-1.4 2.35,0.4 3.7,1.4 l 1.25,1.5 q 0.4,0.9 0.4,3.7 0,1.55 -1,3.25 -1.7,2.85 -5.4,2.85 -3.1,0 -5.1,-2.2 -1.35,-1.55 -1.35,-2.4 0,-3 0.9,-4.6 0.7,-1.3 2,-2.1 m 5.35,2.6 q 0.45,0.5 0.45,1.5 L 1.95,0.6 Q 1.4,1.7 0.3,1.7 -1.4,1.7 -2,1.1 L -2.1,1 -2.4,0.15 q 0,-2.85 2.35,-3.05 1.3,-0.1 1.9,0.55 m -5.9,2.5 v 0.4 q 0,0.95 0.7,1.8 1,1.35 3.2,1.35 2.8,0 3.7,-2.35 L 3.9,-1.1 q 0,-1.45 -1.25,-2.25 -0.5,-0.35 -1.1,-0.5 L -0.05,-4 q -3.8,0.3 -4,4.15 M -0.2,-1.4 q -1.15,0.15 -1.15,0.8 0,0.4 0.35,0.65 L -0.2,-0.4 0.05,-0.95 -0.05,-1.4 H -0.2"
         fill="#6b6b6b"
         fill-rule="evenodd"
         stroke="none"
         id="path38" />
      <path
         d="m -2,1.1 q 0.6,0.6 2.3,0.6 1.1,0 1.65,-1.1 L 2.3,-0.85 q 0,-1 -0.45,-1.5 l -0.3,-1.5 q 0.6,0.15 1.1,0.5 1.25,0.8 1.25,2.25 L 3.55,1.35 q -0.9,2.35 -3.7,2.35 -2.2,0 -3.2,-1.35 -0.7,-0.85 -0.7,-1.8 V 0.15 Q -3.4,1.1 -2.4,1.1 H -2"
         fill="#e2e2e2"
         fill-rule="evenodd"
         stroke="none"
         id="path39" />
    </g>
    <g
       id="sprite11"
       transform="translate(6.95,6.9)">
      <use
         ffdec:characterId="917"
         height="13.8"
         transform="translate(-6.95,-6.9)"
         width="13.95"
         xlink:href="#shape5"
         id="use39" />
    </g>
    <g
       id="sprite12"
       transform="translate(6.4,6.35)">
      <use
         ffdec:characterId="931"
         height="12.7"
         transform="translate(-6.4,-6.35)"
         width="12.85"
         xlink:href="#shape7"
         id="use40" />
    </g>
    <g
       id="sprite13"
       transform="translate(27.75,7.4)">
      <use
         ffdec:characterId="935"
         height="14.4"
         transform="translate(-27.75,-7.4)"
         width="53.900002"
         xlink:href="#shape8"
         id="use41" />
    </g>
    <g
       id="shape8"
       transform="translate(27.75,7.4)">
      <path
         d="M 9.5,-2.85 7.85,-3 Q 0.45,-3 -1,-1.5 l -1.1,1 q -0.85,0.45 -3.15,0.45 -1.4,0 -2.35,-0.6 l -0.55,1.35 0.05,1.5 0.55,0.65 q 1.45,1.9 3.65,1.9 2.15,0 3.05,-0.85 L 0.35,2.1 Q 1.85,-0.4 8,-0.55 V -0.8 Q 8,-1.65 8.45,-2.2 L 9.5,-2.85 m -0.75,1.6 0.15,0.65 h 0.2 l 1.35,0.2 q 0.05,-0.75 0.4,-1.25 l 0.45,-0.45 -0.4,-0.25 -0.35,-0.2 q -0.8,0 -1.3,0.5 -0.5,0.45 -0.5,0.8 m 3.35,-0.6 h -0.05 q -0.95,1 -1.05,1.75 l 0.25,0.2 0.9,1.6 q 1.25,2.3 6.3,2.3 3.95,0 5.2,-3.3 0.5,-1.35 0.5,-3.75 0,-0.95 -1.35,-1.8 -1.7,-1.05 -3.9,0 l -1.2,2.05 q -0.7,1.1 -3.5,1.1 l -2.1,-0.15 m 2.75,-1.8 1.8,-1.85 q 1.6,-1.9 4.25,-1.9 3.7,0 4.8,2.5 0.45,0.95 0.45,2.95 0,3.2 -1,4.75 -2.15,3.45 -8.8,3.45 -3.5,0 -5.25,-2.3 Q 9.35,1.6 7.9,1.6 2.9,1.6 1.45,4.3 -0.05,7 -4.05,7 -6.85,7 -8.75,5.2 L -10.2,3.25 h -2.2 l -4.3,1.3 q -3.65,1.25 -5.1,1.25 -4.1,0 -5.45,-2.65 -0.5,-1.1 -0.5,-3 0,-1.85 0.45,-2.65 1.2,-2.15 5.1,-1.15 h 8.7 l 3.35,-0.4 q 1.8,0 3,0.9 1.2,0.85 2,0.85 1.4,0 3.9,-1.55 2.55,-1.6 8.7,-1.6 l 3.9,0.9 q 2.85,0.9 3.5,0.9 M 19.5,-2 q 0,-2.25 1.6,-2.15 1.6,0.1 1.6,2 0,1.25 -1.4,1.25 -1.15,0 -1.55,-0.55 L 19.5,-2 m -44.65,0.95 -0.15,1.2 q 0,3.25 3.5,3.25 L -18,2.15 -16.4,1.6 q 0.55,-0.6 0.55,-1.3 0,-0.5 -0.45,-1.4 l -0.1,-0.2 -5,0.05 -3.75,0.2 m 11.95,-0.3 -2.1,0.05 0.05,0.05 Q -15,-0.8 -15,0.3 l -0.15,1 3.85,-0.4 1.1,0.15 0.3,-1.45 0.85,-1.1 -1.1,-0.2 -3.05,0.35 m 4.8,0.15 -0.6,0.8 q -0.45,0.6 -0.45,1.3 l 0.05,0.4 0.6,0.35 0.25,-1.8 0.6,-0.75 -0.45,-0.3"
         fill="#6b6b6b"
         fill-rule="evenodd"
         stroke="none"
         id="path41" />
      <path
         d="m 15.7,-1.5 q 2.3,0 2.3,1.65 l -0.45,1.1 q -0.75,0.8 -2.25,0.8 -1.4,0 -1.95,-0.7 L 13.05,0.5 q 0,-1.1 0.25,-1.35 0.5,-0.65 2.4,-0.65 m -33.65,1.3 q 0,0.6 -0.5,0.9 L -20.7,1 q -1.65,0 -2.1,-0.4 l -0.15,-0.45 q 0,-1 2.5,-1.15 2.5,-0.1 2.5,0.8 m 15.4,3.15 q -0.85,0.8 -1.95,0.8 -1.3,0 -1.8,-0.65 L -6.6,2.35 -6.4,1.05 Q -6,0.1 -4.65,0.1 q 2.85,0 2.85,1.65 0,0.55 -0.75,1.2"
         fill="#ffffff"
         fill-rule="evenodd"
         stroke="none"
         id="path42" />
      <path
         d="m 12.1,-1.85 2.1,0.15 q 2.8,0 3.5,-1.1 l 1.2,-2.05 q 2.2,-1.05 3.9,0 1.35,0.85 1.35,1.8 0,2.4 -0.5,3.75 Q 22.4,4 18.45,4 13.4,4 12.15,1.7 L 11.25,0.1 11,-0.1 q 0.1,-0.75 1.05,-1.75 h 0.05 m -3.35,0.6 q 0,-0.35 0.5,-0.8 0.5,-0.5 1.3,-0.5 l 0.35,0.2 0.4,0.25 -0.45,0.45 q -0.35,0.5 -0.4,1.25 L 9.1,-0.6 H 8.9 L 8.75,-1.25 M 9.5,-2.85 8.45,-2.2 Q 8,-1.65 8,-0.8 v 0.25 Q 1.85,-0.4 0.35,2.1 l -1.2,1.8 q -0.9,0.85 -3.05,0.85 -2.2,0 -3.65,-1.9 L -8.1,2.2 -8.15,0.7 -7.6,-0.65 q 0.95,0.6 2.35,0.6 2.3,0 3.15,-0.45 l 1.1,-1 Q 0.45,-3 7.85,-3 l 1.65,0.15 m 10,0.85 0.25,0.55 q 0.4,0.55 1.55,0.55 1.4,0 1.4,-1.25 0,-1.9 -1.6,-2 -1.6,-0.1 -1.6,2.15 m -3.8,0.5 q -1.9,0 -2.4,0.65 -0.25,0.25 -0.25,1.35 l 0.3,0.85 q 0.55,0.7 1.95,0.7 1.5,0 2.25,-0.8 L 18,0.15 Q 18,-1.5 15.7,-1.5 m -24.1,0.3 0.45,0.3 -0.6,0.75 L -8.8,1.65 -9.4,1.3 -9.45,0.9 q 0,-0.7 0.45,-1.3 l 0.6,-0.8 m -4.8,-0.15 3.05,-0.35 1.1,0.2 -0.85,1.1 -0.3,1.45 -1.1,-0.15 -3.85,0.4 0.15,-1 q 0,-1.1 -0.25,-1.55 l -0.05,-0.05 2.1,-0.05 m -11.95,0.3 3.75,-0.2 5,-0.05 0.1,0.2 q 0.45,0.9 0.45,1.4 0,0.7 -0.55,1.3 L -18,2.15 -21.8,3.4 q -3.5,0 -3.5,-3.25 l 0.15,-1.2 m 22.6,4 Q -1.8,2.3 -1.8,1.75 -1.8,0.1 -4.65,0.1 -6,0.1 -6.4,1.05 l -0.2,1.3 0.3,0.75 q 0.5,0.65 1.8,0.65 1.1,0 1.95,-0.8 m -15.4,-3.15 q 0,-0.9 -2.5,-0.8 -2.5,0.15 -2.5,1.15 l 0.15,0.45 q 0.45,0.4 2.1,0.4 l 2.25,-0.3 q 0.5,-0.3 0.5,-0.9"
         fill="#cccccc"
         fill-rule="evenodd"
         stroke="none"
         id="path43" />
    </g>
    <g
       id="sprite14"
       transform="translate(9.75,23.45)">
      <use
         ffdec:characterId="941"
         height="46.900002"
         transform="translate(-9.75,-23.45)"
         width="19.5"
         xlink:href="#shape9"
         id="use43" />
    </g>
    <g
       id="shape9"
       transform="translate(9.75,23.45)">
      <path
         d="m 6.1,-16.6 q 0,2.1 -0.6,6.15 Q 4.9,-6.4 4.9,-4.4 4.9,1.1 6.95,5.3 9,9.5 9,13.75 L 8.75,18.6 q -1.1,4.1 -5.4,4.1 -7.15,0 -10.3,-2.4 Q -9,18.75 -9,16.65 q 0,-4.05 4.35,-5.5 l 4.3,-1.25 -2.1,-2.1 q -2.25,-2.3 -3,-4.45 -0.75,-2.1 -0.8,-3.4 l 0.05,-3.1 0.1,-4.5 0.5,-5.6 q 0.55,-6.3 1.05,-7.4 0.9,-2.05 4.55,-2.05 4.3,0 5.6,2.9 0.7,1.5 0.5,3.2 m -5.2,-3.95 q -2.3,-0.4 -3.2,0.65 -0.65,1.15 -0.85,2.75 l -0.2,2.8 -0.3,5.3 3.05,-0.2 q 2.4,0.25 3.75,1.3 l 0.05,0.05 0.35,-3.45 0.6,-5.25 0.2,-1.25 -0.75,-1.45 q -0.65,-0.85 -2.7,-1.25 m 1.35,14.6 q -1,-0.9 -3.65,-0.9 l -2.35,0.35 -0.2,3.2 q 0,6.15 2.8,9.1 L 0.8,7.65 1.5,8.75 Q 3.1,8.65 4.45,7.8 L 5.2,7.3 4.9,6.5 Q 2.95,1.35 2.95,-4.5 L 3,-5.3 2.25,-5.95 M 2.8,-7.15 Q 1.3,-8.5 -3.2,-8.5 l -0.45,0.05 -0.05,0.7 2.35,-0.1 q 2.95,0.25 4.4,1.7 L 3.1,-6.85 2.8,-7.15 M 1.75,10.45 H 3.1 q 1.1,-0.2 2.25,-1 L 5.85,9.1 5.5,8.1 4.85,8.5 q -1.5,0.95 -3.2,1 v 0.3 0.6 l 0.1,0.05 m -0.4,0.85 -1,1 q -0.7,0.4 -2.85,0.6 -4.15,0.45 -4.15,3.85 0,1.4 2.95,2.45 2.95,1.1 7,1.1 2.7,0 3.4,-3.3 l 0.15,-3.4 q 0,-1.15 -0.65,-3.35 l -0.35,0.2 q -1.5,1 -3.45,1 L 1.35,11.3 M -0.45,-3.75 Q 1,-3.9 1,-1.75 q 0,1.7 -1.7,1.7 L -1.4,-0.1 q -0.75,-0.2 -1.15,-0.75 l -0.3,-0.8 q 0,-1.55 1.95,-2.05 l 0.45,-0.05"
         fill="#6b6b6b"
         fill-rule="evenodd"
         stroke="none"
         id="path44" />
      <path
         d="m 1.75,-18.95 0.3,1.3 q 0,1.15 -0.75,3.25 -1,2.75 -2.35,2.75 -0.8,0 -1.1,-0.55 l -0.15,-0.6 0.3,-3.9 q 0.6,-3.45 2.1,-3.45 1.15,0 1.65,1.2 m 0.75,34.9 q -1.1,0.9 -3.45,0.9 -2.15,0 -2.95,-0.5 -0.5,-0.35 -0.5,-1 0,-0.85 0.85,-1.6 1.05,-0.9 2.95,-0.9 l 1.75,0.3 1.6,-0.15 q 0.5,0.1 0.5,1.3 0,1 -0.75,1.65 M -1.4,-0.1 h -0.25 q -1.05,0 -1.4,-0.95 l -0.15,-1 q 0,-4.15 1.45,-4.05 1,0.05 1.3,2.35 L -0.9,-3.7 q -1.95,0.5 -1.95,2.05 l 0.3,0.8 q 0.4,0.55 1.15,0.75"
         fill="#ffffff"
         fill-rule="evenodd"
         stroke="none"
         id="path45" />
      <path
         d="m 0.9,-20.55 q 2.05,0.4 2.7,1.25 l 0.75,1.45 -0.2,1.25 -0.6,5.25 L 3.2,-7.9 3.15,-7.95 Q 1.8,-9 -0.6,-9.25 l -3.05,0.2 0.3,-5.3 0.2,-2.8 q 0.2,-1.6 0.85,-2.75 0.9,-1.05 3.2,-0.65 m 0.85,1.6 q -0.5,-1.2 -1.65,-1.2 -1.5,0 -2.1,3.45 l -0.3,3.9 0.15,0.6 q 0.3,0.55 1.1,0.55 1.35,0 2.35,-2.75 0.75,-2.1 0.75,-3.25 l -0.3,-1.3 M 1.35,11.3 2.4,11.45 q 1.95,0 3.45,-1 l 0.35,-0.2 q 0.65,2.2 0.65,3.35 L 6.7,17 q -0.7,3.3 -3.4,3.3 -4.05,0 -7,-1.1 -2.95,-1.05 -2.95,-2.45 0,-3.4 4.15,-3.85 2.15,-0.2 2.85,-0.6 l 1,-1 M 1.75,10.45 1.65,10.4 V 9.8 9.5 q 1.7,-0.05 3.2,-1 l 0.65,-0.4 0.35,1 -0.5,0.35 q -1.15,0.8 -2.25,1 H 1.75 m 1.05,-17.6 0.3,0.3 -0.05,0.7 Q 1.6,-7.6 -1.35,-7.85 l -2.35,0.1 0.05,-0.7 0.45,-0.05 q 4.5,0 6,1.35 M 2.25,-5.95 3,-5.3 2.95,-4.5 q 0,5.85 1.95,11 L 5.2,7.3 4.45,7.8 Q 3.1,8.65 1.5,8.75 L 0.8,7.65 -1.15,5.8 q -2.8,-2.95 -2.8,-9.1 l 0.2,-3.2 2.35,-0.35 q 2.65,0 3.65,0.9 m -2.7,2.2 q -0.3,-2.3 -1.3,-2.35 -1.45,-0.1 -1.45,4.05 l 0.15,1 q 0.35,0.95 1.4,0.95 h 0.25 l 0.7,0.05 q 1.7,0 1.7,-1.7 0,-2.15 -1.45,-2 M 2.5,15.95 Q 3.25,15.3 3.25,14.3 3.25,13.1 2.75,13 l -1.6,0.15 -1.75,-0.3 q -1.9,0 -2.95,0.9 -0.85,0.75 -0.85,1.6 0,0.65 0.5,1 0.8,0.5 2.95,0.5 2.35,0 3.45,-0.9"
         fill="#cccccc"
         fill-rule="evenodd"
         stroke="none"
         id="path46" />
      <path
         d="m 6.1,-16.6 q 0,2.1 -0.6,6.15 Q 4.9,-6.4 4.9,-4.4 4.9,1.1 6.95,5.3 9,9.5 9,13.75 L 8.75,18.6 q -1.1,4.1 -5.4,4.1 -7.15,0 -10.3,-2.4 Q -9,18.75 -9,16.65 q 0,-4.05 4.35,-5.5 l 4.3,-1.25 -2.1,-2.1 q -2.25,-2.3 -3,-4.45 -0.75,-2.1 -0.8,-3.4 l 0.05,-3.1 0.1,-4.5 0.5,-5.6 q 0.55,-6.3 1.05,-7.4 0.9,-2.05 4.55,-2.05 4.3,0 5.6,2.9 0.7,1.5 0.5,3.2 z"
         fill="none"
         stroke="#6b6b6b"
         stroke-linecap="round"
         stroke-linejoin="round"
         stroke-width="1.5"
         id="path47" />
    </g>
    <g
       id="sprite15"
       transform="translate(13.4,14.45)">
      <use
         ffdec:characterId="945"
         height="28.9"
         transform="translate(-13.4,-14.45)"
         width="26.85"
         xlink:href="#shape10"
         id="use47" />
    </g>
    <g
       id="shape10"
       transform="translate(13.4,14.45)">
      <path
         d="m 7.05,-12.8 q 0.6,1.05 0.6,2.05 0,1.9 -1.05,2.8 3.6,1.15 5.35,4.65 1.5,2.95 1.5,7.3 0,4 -1.2,6.05 -2.2,3.7 -8.7,4.4 H -1.7 q -7.35,0.3 -10.15,-4.8 -1.55,-2.8 -1.55,-7.1 l 0.25,-4.45 q 0.35,-2.1 1.55,-4.8 1.05,-2.2 6.25,-4.5 1.9,-0.85 3.55,-1.3 3.9,-1.95 5.8,-1.95 2.1,0 3.05,1.65 m -4.2,3.6 Q 5.5,-9.6 5.5,-10.85 L 5.05,-11.65 4.3,-12.2 -1.25,-10.5 -4,-9.65 q -2.5,1.4 -4,2.95 -2.85,2.85 -2.85,6.9 0,4.75 0.85,6.9 2,5.05 8.45,4.7 h 4.6 L 3.4,10.15 q 0,-2.2 -1.2,-4.2 l -0.55,-1 q -1.6,2.3 -4.2,2.3 -0.55,0 -1.1,-0.55 Q -0.75,5 0.45,3.25 1.5,1.65 1.5,-0.4 L 0.85,-3.5 q -0.7,-2.05 -0.7,-3.15 0,-2.2 2.7,-2.55 M 2.25,-6.25 2.8,-4 q 0.6,2.25 0.6,3.6 L 2.95,2.2 3,2.25 q 1.15,0.95 2.2,2.9 0.7,1 0.85,2.05 L 6.1,9.1 6,11.35 q 3.25,-0.85 4.5,-2.9 0.75,-1.3 0.75,-4.5 0,-3.5 -1.4,-6.75 Q 8.8,-5 6.55,-5.9 L 2.65,-6.25 H 2.25 M 2.75,2.8 2.35,3.65 2.1,4.15 Q 4.05,5.8 4.05,10 v 1.25 l -0.15,0.5 1.3,-0.2 v -1.2 L 5.35,7.45 Q 4.8,4.75 3.25,3.25 L 2.75,2.8 m -5.8,-5.7 q 0.45,0.2 0.8,0.6 0.75,0.15 1,0.85 0.15,0.35 0.15,1.2 0,0.8 -0.75,1.85 l -1.2,1.1 q -0.7,0.65 -1.6,0.65 -1.5,0 -2.5,-1.05 l -0.2,-0.25 q -0.8,-0.9 -0.8,-1.5 l 0.1,-1.1 q 0.1,-0.95 0.55,-1.6 0.8,-1.2 2.6,-1.15 l 1.85,0.4 m -0.6,2.25 q 0,0.8 -0.4,1.5 L -4.8,1.6 -3.75,1.75 h 0.2 l 0.3,-0.2 q 0.45,-0.5 0.5,-1.9 0,-0.9 -1,-1.2 l 0.1,0.9"
         fill="#6b6b6b"
         fill-rule="evenodd"
         stroke="none"
         id="path48" />
      <path
         d="m 2.25,-6.25 h 0.4 l 3.9,0.35 q 2.25,0.9 3.3,3.1 1.4,3.25 1.4,6.75 0,3.2 -0.75,4.5 Q 9.25,10.5 6,11.35 L 6.1,9.1 6.05,7.2 Q 5.9,6.15 5.2,5.15 4.15,3.2 3,2.25 L 2.95,2.2 3.4,-0.4 Q 3.4,-1.75 2.8,-4 L 2.25,-6.25 m 0.6,-2.95 q -2.7,0.35 -2.7,2.55 0,1.1 0.7,3.15 l 0.65,3.1 q 0,2.05 -1.05,3.65 -1.2,1.75 -4.1,3.45 0.55,0.55 1.1,0.55 2.6,0 4.2,-2.3 l 0.55,1 q 1.2,2 1.2,4.2 L 3.05,11.8 h -4.6 Q -8,12.15 -10,7.1 q -0.85,-2.15 -0.85,-6.9 0,-4.05 2.85,-6.9 1.5,-1.55 4,-2.95 l 2.75,-0.85 5.55,-1.7 0.75,0.55 0.45,0.8 q 0,1.25 -2.65,1.65 m 6.3,7.4 q 0,-2.75 -1.95,-2.35 -1.95,0.4 -1.95,3.5 0,0.45 0.35,0.9 0.55,0.7 1.65,0.7 1.9,0 1.9,-2.75 m -12.2,-1.1 q 1.6,-1.45 2.25,-4.8 0,-2.65 -3.95,-0.2 -3.95,2.4 -3.95,4 0,1.3 1.2,1.75 -0.45,0.65 -0.55,1.6 h -0.4 q -1.65,0.15 -1.65,2.3 L -10,2.3 q 0.3,0.5 1.45,0.5 0.95,0 1.4,-0.5 1,1.05 2.5,1.05 0.9,0 1.6,-0.65 l 1.2,-1.1 q 0.75,-1.05 0.75,-1.85 0,-0.85 -0.15,-1.2 -0.25,-0.7 -1,-0.85 -0.35,-0.4 -0.8,-0.6 m -0.6,2.25 -0.1,-0.9 q 1,0.3 1,1.2 -0.05,1.4 -0.5,1.9 l -0.3,0.2 h -0.2 L -4.8,1.6 -4.05,0.85 q 0.4,-0.7 0.4,-1.5"
         fill="#cccccc"
         fill-rule="evenodd"
         stroke="none"
         id="path49" />
      <path
         d="m 9.15,-1.8 q 0,2.75 -1.9,2.75 -1.1,0 -1.65,-0.7 -0.35,-0.45 -0.35,-0.9 0,-3.1 1.95,-3.5 1.95,-0.4 1.95,2.35 m -6.4,4.6 0.5,0.45 q 1.55,1.5 2.1,4.2 l -0.15,2.9 v 1.2 l -1.3,0.2 0.15,-0.5 V 10 Q 4.05,5.8 2.1,4.15 L 2.35,3.65 2.75,2.8 M -7.5,-2.15 q -1.2,-0.45 -1.2,-1.75 0,-1.6 3.95,-4 3.95,-2.45 3.95,0.2 -0.65,3.35 -2.25,4.8 L -4.9,-3.3 q -1.8,-0.05 -2.6,1.15 M -7.15,2.3 Q -7.6,2.8 -8.55,2.8 -9.7,2.8 -10,2.3 l -0.1,-0.55 q 0,-2.15 1.65,-2.3 h 0.4 l -0.1,1.1 q 0,0.6 0.8,1.5 l 0.2,0.25"
         fill="#ffffff"
         fill-rule="evenodd"
         stroke="none"
         id="path50" />
    </g>
    <g
       id="sprite16"
       transform="translate(11.55,11.9)">
      <use
         ffdec:characterId="954"
         height="23.799999"
         transform="translate(-11.55,-11.9)"
         width="23.1"
         xlink:href="#shape4"
         id="use50" />
    </g>
    <g
       id="sprite17"
       transform="translate(5.4,4)">
      <use
         ffdec:characterId="43"
         height="8"
         transform="translate(-5.4,-4)"
         width="10.8"
         xlink:href="#shape11"
         id="use51" />
    </g>
    <g
       id="shape11"
       transform="translate(5.4,4)">
      <path
         d="m 2.9,-0.35 q 0,-1.25 1.25,-1.25 1.25,0 1.25,1.2 0,1.3 -1.25,1.3 Q 3.6,0.9 3.25,0.5 2.9,0.15 2.9,-0.35 m 0.35,-2.3 q 0,0.55 -0.35,0.9 -0.4,0.45 -1,0.45 -1.35,0 -1.35,-1.4 0,-1.3 1.35,-1.3 1.35,0 1.35,1.35 m -3.1,1.9 h 0.2 q 2.6,0.1 2.6,2.8 l -0.3,1 Q 2.05,4 0.45,4 H 0.35 0.15 0.1 -0.45 q -1.6,0 -2.2,-0.95 l -0.3,-1 q 0,-2.8 2.8,-2.8 h 0.3 M -1.55,-4 q 1.35,0 1.35,1.35 0,0.55 -0.4,0.9 -0.4,0.45 -0.95,0.45 -1.4,0 -1.4,-1.4 0,-1.3 1.4,-1.3 m -2.6,2.4 q 1.25,0 1.25,1.25 0,0.5 -0.35,0.85 -0.35,0.4 -0.9,0.4 -1.25,0 -1.25,-1.3 0,-1.2 1.25,-1.2"
         fill="#6b6b6b"
         fill-rule="evenodd"
         stroke="none"
         id="path51" />
    </g>
  </defs>
</svg>
