<?xml version="1.0" encoding="UTF-8" standalone="no"?>
<svg
   ffdec:objectType="frame"
   height="30.6625"
   width="29.65"
   version="1.1"
   id="svg11"
   sodipodi:docname="1.svg"
   xmlns:inkscape="http://www.inkscape.org/namespaces/inkscape"
   xmlns:sodipodi="http://sodipodi.sourceforge.net/DTD/sodipodi-0.dtd"
   xmlns:xlink="http://www.w3.org/1999/xlink"
   xmlns="http://www.w3.org/2000/svg"
   xmlns:svg="http://www.w3.org/2000/svg"
   xmlns:ffdec="https://www.free-decompiler.com/flash">
  <sodipodi:namedview
     id="namedview11"
     pagecolor="#ffffff"
     bordercolor="#000000"
     borderopacity="0.25"
     inkscape:showpageshadow="2"
     inkscape:pageopacity="0.0"
     inkscape:pagecheckerboard="0"
     inkscape:deskcolor="#d1d1d1"
     fit-margin-top="5"
     fit-margin-left="5"
     fit-margin-right="5"
     fit-margin-bottom="5" />
  <g
     transform="translate(14.8,13.2125)"
     id="g3">
    <use
       ffdec:characterId="2373"
       height="26.450001"
       transform="translate(-13.55,-10.1)"
       width="26.75"
       xlink:href="#shape0"
       id="use1" />
    <use
       ffdec:characterId="1855"
       height="27.5"
       transform="matrix(-1,0,0,1,8.9,-11.5)"
       width="17.1"
       xlink:href="#sprite0"
       id="use2" />
    <use
       ffdec:characterId="2370"
       height="30.65"
       transform="translate(-14.8,-13.2)"
       width="29.65"
       xlink:href="#sprite3"
       id="use3" />
  </g>
  <defs
     id="defs11">
    <g
       id="shape0"
       transform="translate(13.55,10.1)">
      <path
         d="m 0.5,-1.1 -0.35,0.15 -1.4,0.4 Q -0.7,0.8 -0.7,3 q 0,0.65 -0.85,1.6 -1.15,1.25 -2.8,1.25 L -7.3,6.15 -8.3,6 -7.85,7.5 q 1.3,3.45 3.65,4.95 1.7,1.1 4,1.1 2.1,0 3.7,-0.6 Q 5.95,12 7.2,9.75 L 8,7.8 Q 8.4,6.4 8.4,4.85 V 4.75 Q 8.4,1.85 7.35,-0.3 H 6.7 6.25 Q 4.5,-0.5 3.7,-2.3 L 3.6,-2.4 3.05,-2.25 2.45,-2 2.15,-1.9 0.5,-1.1 M 3.1,-4.3 V -5 q -1.85,-1.25 -4.35,-2.3 -4.45,-0.35 -6.5,3.25 -0.95,1.65 -1.2,3.5 L -8.9,-0.6 q 1.45,-1.5 3.35,-1.85 2.15,-0.5 3.35,0.55 l 1.5,-1 2.05,-0.85 0.25,-0.1 0.2,-0.05 1,-0.3 0.3,-0.1 M 9.8,-5.25 9.05,-6.2 6.45,-6.1 7.6,-4.85 8.4,-3.8 9.2,-2.45 9.25,-2.3 9.9,-2.95 q 0.5,-0.5 0.5,-0.95 L 10.35,-4.2 9.8,-5.25 M -8.35,12.7 q -1.2,-1.55 -2,-3.65 l -0.55,-1.5 q -0.75,1.3 -0.75,1.95 l 1,1 q 1.1,0.6 1.1,1.1 l -0.05,0.45 q -0.25,0.4 -1,0.4 -1.6,0 -2.4,-1.5 -0.55,-1.05 -0.55,-1.9 0,-1.8 2,-4.45 l -0.3,-3.95 q 0,-6 3.65,-8.85 3.2,-2.6 7.9,-1.65 2.85,0.65 5.1,2.35 1.35,-0.75 2.95,-0.8 4.7,-0.25 4.7,4.4 0,1.15 -0.8,2.05 -0.55,0.7 -1.65,1.1 1.25,3.05 1.25,6.75 0,2.95 -1.6,5.6 L 8.6,13.05 q -1.35,1.5 -3.25,2.3 -2.35,1 -5.5,1 -3.05,0 -5.35,-1.25 -1.6,-0.85 -2.85,-2.4 M -8.4,2.15 -8.45,2.65 q 0.25,1.25 1,1.55 V 4.1 L -7.1,2.95 -8.4,2.15 M -3.6,3 q 0.65,-0.65 0.65,-1.2 0,-2.95 -2.75,-2.05 -1.65,0.6 -2.35,1.5 0.7,0.05 1.7,0.45 0.7,-1.05 0.95,-1 1.2,-1.5 1.2,0.4 l -0.55,1.25 q 0.7,0.3 1.15,0.65 m -0.75,-6.85 0.15,-0.4 h 0.45 l 0.3,0.25 -0.45,0.6 -0.45,-0.45 m 0.75,-1.6 -0.05,0.3 -0.4,0.2 -0.3,-0.15 -0.05,-0.35 0.35,-0.35 q 0.45,0 0.45,0.35 m -2.8,1.25 q 0.5,-0.1 0.5,0.45 l -0.5,0.5 -0.35,-0.2 -0.1,-0.25 0.45,-0.5 m 11.1,14.85 -1.3,0.4 q -3.05,1 -5.6,1 -1.05,0 -1.05,-1.15 0,-5.75 4.65,-5.75 1.9,0 3.25,1.25 l 0.4,0.5 0.4,0.45 V 7.4 l 0.5,1.35 0.05,0.2 0.1,0.9 -1.4,0.8 M 6.7,1.3 6.15,2.2 Q 7.6,3.25 7.6,3.65 v 0.2 Q 7.55,4.4 6.9,4.4 L 6.55,4.3 5.7,3.8 H 5.65 L 5.55,3.7 5.3,3.4 4.55,4.15 3.8,4.55 Q 3.1,4.55 3.1,3.8 L 4.05,2.45 2.65,1.25 Q 2.65,0.2 4.3,1 L 4.9,1.35 Q 6.3,-0.2 6.6,0.65 L 6.7,1.3 M -5.5,3.8 -5.7,4.1 -5.2,3.95 -5.5,3.8"
         fill="#6b6b6b"
         fill-rule="evenodd"
         stroke="none"
         id="path3" />
      <path
         d="M -5.5,3.8 -5.2,3.95 -5.7,4.1 -5.5,3.8"
         fill="#cccccc"
         fill-rule="evenodd"
         stroke="none"
         id="path4" />
      <path
         d="m 9.8,-5.25 0.55,1.05 -0.6,1 L 9.2,-2.45 8.4,-3.8 9.8,-5.25 M -8.35,12.7 q 1.25,1.55 2.85,2.4 h -0.55 l -4.85,0.8 q -0.85,0 -1.4,-0.45 l -0.45,-0.85 q 0,-0.75 1.8,-1.3 l 2.6,-0.6 m 13.7,2.65 q 1.9,-0.8 3.25,-2.3 l 3.05,0.3 q 1.55,0.25 1.55,1.05 0,1 -1.3,1 l -5,-0.1 -1.55,0.05"
         fill="#999999"
         fill-rule="evenodd"
         stroke="none"
         id="path5" />
      <path
         d="m 3.1,-4.3 -0.3,0.1 -1,0.3 -0.2,0.05 -0.25,0.1 -2.05,0.85 -1.5,1 q -1.2,-1.05 -3.35,-0.55 -1.9,0.35 -3.35,1.85 l -0.05,0.05 q 0.25,-1.85 1.2,-3.5 2.05,-3.6 6.5,-3.25 2.5,1.05 4.35,2.3 v 0.7 M 0.5,-1.1 2.15,-1.9 2.45,-2 3.05,-2.25 3.6,-2.4 3.7,-2.3 q 0.8,1.8 2.55,2 H 6.7 7.35 Q 8.4,1.85 8.4,4.75 v 0.1 Q 8.4,6.4 8,7.8 L 7.2,9.75 q -1.25,2.25 -3.7,3.2 -1.6,0.6 -3.7,0.6 -2.3,0 -4,-1.1 -2.35,-1.5 -3.65,-4.95 L -8.3,6 l 1,0.15 2.95,-0.3 q 1.65,0 2.8,-1.25 Q -0.7,3.65 -0.7,3 -0.7,0.8 -1.25,-0.55 L 0.15,-0.95 0.5,-1.1 M 6.7,1.3 6.6,0.65 Q 6.3,-0.2 4.9,1.35 L 4.3,1 Q 2.65,0.2 2.65,1.25 L 4.05,2.45 3.1,3.8 q 0,0.75 0.7,0.75 L 4.55,4.15 5.3,3.4 5.55,3.7 5.65,3.8 H 5.7 L 6.55,4.3 6.9,4.4 q 0.65,0 0.7,-0.55 V 3.65 Q 7.6,3.25 6.15,2.2 L 6.7,1.3 M 4.7,10.65 6.1,9.85 6,8.95 5.95,8.75 5.45,7.4 V 7.35 L 5.05,6.9 4.65,6.4 Q 3.3,5.15 1.4,5.15 q -4.65,0 -4.65,5.75 0,1.15 1.05,1.15 2.55,0 5.6,-1 l 1.3,-0.4 M -6.4,-4.2 l -0.45,0.5 0.1,0.25 0.35,0.2 0.5,-0.5 q 0,-0.55 -0.5,-0.45 m 2.8,-1.25 q 0,-0.35 -0.45,-0.35 l -0.35,0.35 0.05,0.35 0.3,0.15 0.4,-0.2 0.05,-0.3 m -0.75,1.6 0.45,0.45 0.45,-0.6 -0.3,-0.25 H -4.2 l -0.15,0.4 M -3.6,3 Q -4.05,2.65 -4.75,2.35 L -4.2,1.1 q 0,-1.9 -1.2,-0.4 -0.25,-0.05 -0.95,1 -1,-0.4 -1.7,-0.45 0.7,-0.9 2.35,-1.5 2.75,-0.9 2.75,2.05 0,0.55 -0.65,1.2 m -4.8,-0.85 1.3,0.8 -0.35,1.15 v 0.1 q -0.75,-0.3 -1,-1.55 l 0.05,-0.5"
         fill="#d9c8c5"
         fill-rule="evenodd"
         stroke="none"
         id="path6" />
    </g>
    <g
       id="sprite0"
       transform="translate(5.45,22.95)">
      <use
         ffdec:characterId="1854"
         height="27.5"
         transform="translate(-5.45,-22.95)"
         width="17.1"
         xlink:href="#sprite1"
         id="use6" />
    </g>
    <g
       id="sprite1"
       transform="translate(5.45,22.95)">
      <use
         ffdec:characterId="1853"
         height="5.25"
         transform="scale(0.7692)"
         width="5.0999999"
         xlink:href="#sprite2"
         id="use7" />
    </g>
    <g
       id="sprite2">
      <use
         ffdec:characterId="1852"
         height="5.25"
         width="5.0999999"
         xlink:href="#shape1"
         id="use8" />
    </g>
    <g
       id="shape1">
      <path
         d="M 3.4,1.1 2.1,1.2 1.55,2.05 Q 1.15,2.7 1.3,3.1 1.4,3.45 2.2,4 3,4.55 3.5,4.3 3.95,4.05 4.25,2.6 4.25,1.35 3.4,1.1 M 0.35,4.2 Q 0,3.6 0,2.9 0,0.55 2.55,0.1 5.1,-0.35 5.1,1.55 5.1,5.25 2.6,5.25 1,5.25 0.35,4.2"
         fill="#999999"
         fill-rule="evenodd"
         stroke="none"
         id="path8" />
    </g>
    <g
       id="sprite3"
       transform="translate(14.8,13.25)">
      <use
         ffdec:characterId="2369"
         height="30.65"
         transform="translate(-14.8,-13.25)"
         width="29.65"
         xlink:href="#shape2"
         id="use9" />
    </g>
    <g
       id="shape2"
       transform="translate(14.8,13.25)">
      <path
         d="m 11.6,-13.15 q 0.05,-0.15 0.15,-0.1 l 0.3,0.35 v 0.1 l 0.2,0.4 v 5 q 1.05,0.4 1.7,1.3 l 0.25,0.4 0.3,0.6 0.15,0.5 0.05,0.1 0.05,0.95 0.05,0.9 V 12.1 l 0.05,0.4 v 0.6 H 14.7 v 0.3 l -0.05,0.95 -0.05,0.1 -0.15,0.5 -0.3,0.6 -0.25,0.4 q -0.8,1.1 -2.15,1.45 H -11.8 q -1.35,-0.35 -2.15,-1.45 l -0.25,-0.4 -0.3,-0.6 -0.15,-0.5 -0.05,-0.1 -0.05,-0.95 -0.05,-2.15 V 11.1 -2.3 l 0.1,-1.25 0.05,-0.95 0.05,-0.1 0.15,-0.5 0.3,-0.6 0.25,-0.4 0.5,-0.55 1.05,-0.7 v -5.05 h 0.05 l 0.2,-0.4 v -0.1 q 0.2,-0.55 0.45,-0.25 l 0.2,-0.1 4.85,0.1 v 0.05 h 2 0.25 1.4 0.1 0.3 0.1 0.55 0.25 0.25 0.15 l 12.65,-0.15 0.2,0.1 m -9,2.25 H 2.45 1.35 v 0.05 h -3.8 v -0.05 h -1.1 -0.15 l -3.95,0.05 v 0.05 h -2.5 v 2 l 6.45,0.1 h 0.15 1.1 v -0.05 h 3.8 v 0.05 h 1.1 0.15 l 7.5,-0.1 v -2 l -7.5,-0.1 m 9.7,8.3 q -0.15,-1.05 -0.85,-1.75 l -0.8,-0.5 -10.3,-0.3 -9.3,-0.2 q -1.85,0.4 -2.45,1 -0.7,0.7 -0.85,1.75 l -0.05,1.2 h -0.05 V 11 l 0.05,0.25 v 1.2 q 0.15,1.05 0.85,1.75 l 0.8,0.5 10.3,0.3 9.3,0.2 q 1.85,-0.4 2.45,-1 0.7,-0.7 0.85,-1.75 l 0.05,-1.2 V 11 -1.4 -2.6"
         fill="#6b6b6b"
         fill-rule="evenodd"
         stroke="none"
         id="path9" />
      <path
         d="m 2.6,-10.9 7.5,0.1 v 2 L 2.6,-8.7 H 2.45 1.35 v -0.05 h -3.8 v 0.05 h -1.1 -0.15 l -6.45,-0.1 v -2 h 2.5 v -0.05 l 3.95,-0.05 h 0.15 1.1 v 0.05 h 3.8 v -0.05 h 1.1 0.15"
         fill="#999999"
         fill-rule="evenodd"
         stroke="none"
         id="path10" />
      <path
         d="m 0.05,-0.7 q -1.4,0 -1.2,-1.4 0,-1.25 1.25,-1.35 1.2,-0.05 1.2,1.35 0,1.4 -1.25,1.4 M -11,-0.75 q 0,-1.2 0.75,-2.1 1.1,-1.4 3.55,-1.2 2.8,0.15 3.7,0.8 0.55,0.35 0.55,1.35 0,1.05 -1.05,1.8 -1.4,1 -4.35,1 -2.2,0 -2.9,-0.8 -0.35,-0.45 -0.25,-0.85"
         fill="#ffffff"
         fill-opacity="0.498039"
         fill-rule="evenodd"
         stroke="none"
         id="path11" />
    </g>
  </defs>
</svg>
