<?xml version="1.0" encoding="UTF-8" standalone="no"?>
<svg
   ffdec:objectType="frame"
   height="15.994643"
   width="17.058065"
   version="1.1"
   id="svg4"
   sodipodi:docname="1.svg"
   xmlns:inkscape="http://www.inkscape.org/namespaces/inkscape"
   xmlns:sodipodi="http://sodipodi.sourceforge.net/DTD/sodipodi-0.dtd"
   xmlns:xlink="http://www.w3.org/1999/xlink"
   xmlns="http://www.w3.org/2000/svg"
   xmlns:svg="http://www.w3.org/2000/svg"
   xmlns:ffdec="https://www.free-decompiler.com/flash">
  <sodipodi:namedview
     id="namedview4"
     pagecolor="#ffffff"
     bordercolor="#000000"
     borderopacity="0.25"
     inkscape:showpageshadow="2"
     inkscape:pageopacity="0.0"
     inkscape:pagecheckerboard="0"
     inkscape:deskcolor="#d1d1d1"
     fit-margin-top="5"
     fit-margin-left="5"
     fit-margin-right="5"
     fit-margin-bottom="5" />
  <g
     transform="translate(8.5,8)"
     id="g2">
    <use
       ffdec:characterId="4305"
       height="16"
       transform="translate(-8.5,-8)"
       width="17.049999"
       xlink:href="#shape0"
       id="use1" />
    <use
       ffdec:characterId="4306"
       height="9.3999996"
       transform="translate(-2.55,-5.5)"
       width="10.6"
       xlink:href="#text0"
       id="use2" />
  </g>
  <defs
     id="defs4">
    <g
       id="shape0"
       transform="translate(8.5,8)">
      <path
         d="m 6.05,-5.2 h -12.1 l -0.1,0.2 -0.2,0.5 v 0.1 l 0.05,0.55 -0.05,2.25 v 1.55 q 0.2,3.2 0,5 L -5.9,5.35 6.1,5.4 6.35,5.05 6.25,3.9 V 0.35 Q 6.15,-1.3 6.2,-2.9 L 6.3,-4.5 6.25,-4.6 6.05,-5.2 m 2.2,-1.3 0.25,5 Q 8.8,7.9 7.55,7.9 L 7.35,7.85 7,7.95 H -5.8 Q -8.15,8.2 -8.3,7.05 L -8.45,6.6 V 3.2 0.65 l -0.05,-6.85 0.25,-0.7 0.05,-0.15 0.1,-0.1 0.7,-0.6 L -6.8,-8 H 6.4 q 2,0.15 2,1.05 L 8.25,-6.5"
         fill="#6b6b6b"
         fill-rule="evenodd"
         stroke="none"
         id="path2" />
      <path
         d="m 6.05,-5.2 0.2,0.6 0.05,0.1 -0.1,1.6 Q 6.15,-1.3 6.25,0.35 V 3.9 L 6.35,5.05 6.1,5.4 -5.9,5.35 -6.35,4.95 q 0.2,-1.8 0,-5 V -1.6 L -6.3,-3.85 -6.35,-4.4 v -0.1 l 0.2,-0.5 0.1,-0.2 h 12.1"
         fill="#dedfc0"
         fill-rule="evenodd"
         stroke="none"
         id="path3" />
    </g>
    <g
       id="text0"
       transform="translate(-69.5,0.2)">
      <g
         transform="translate(68.85)"
         id="g3">
        <use
           fill="#6b6b6b"
           height="9.3999996"
           transform="matrix(0.0107,0,0,0.0107,0,8)"
           width="10.6"
           xlink:href="#font_EdmundMcMillen_A0"
           id="use3" />
      </g>
    </g>
    <g
       id="font_EdmundMcMillen_A0">
      <path
         d="m 167.95,-284.8 q 29.45,-175.15 109.35,-175.15 38,0 58.6,146 v 7.55 h -29.5 q -22.6,0 -138.45,21.6 m 116.5,-306.4 q -60.65,0 -94.55,51.05 -138.85,75.75 -138.85,474.35 0,90.5 51.1,124.05 H 138.8 Q 175.15,39.75 175.15,0 v -29.15 q 0,-80.55 -14.75,-138.8 34.6,0 189.9,-51.05 l 7.2,14.75 v 43.5 q 12.65,211.8 65.8,211.8 h 36.65 Q 496.3,29.15 496.3,0 440.75,-591.2 299.2,-591.2 h -14.75"
         fill-rule="evenodd"
         stroke="none"
         id="path4" />
    </g>
  </defs>
</svg>
