<?xml version="1.0" encoding="UTF-8" standalone="no"?>
<svg
   ffdec:objectType="frame"
   height="27.548925"
   width="21.1"
   version="1.1"
   id="svg11"
   sodipodi:docname="2.svg"
   xmlns:inkscape="http://www.inkscape.org/namespaces/inkscape"
   xmlns:sodipodi="http://sodipodi.sourceforge.net/DTD/sodipodi-0.dtd"
   xmlns:xlink="http://www.w3.org/1999/xlink"
   xmlns="http://www.w3.org/2000/svg"
   xmlns:svg="http://www.w3.org/2000/svg"
   xmlns:ffdec="https://www.free-decompiler.com/flash">
  <sodipodi:namedview
     id="namedview11"
     pagecolor="#ffffff"
     bordercolor="#000000"
     borderopacity="0.25"
     inkscape:showpageshadow="2"
     inkscape:pageopacity="0.0"
     inkscape:pagecheckerboard="0"
     inkscape:deskcolor="#d1d1d1"
     fit-margin-top="5"
     fit-margin-left="5"
     fit-margin-right="5"
     fit-margin-bottom="5" />
  <g
     transform="translate(10.1,13.7477)"
     id="g4">
    <use
       ffdec:characterId="2104"
       height="26.35"
       transform="matrix(1,0,0,1.0455,1.6,-13.7477)"
       width="9.3999996"
       xlink:href="#sprite0"
       id="use1" />
    <use
       ffdec:characterId="2106"
       height="26.35"
       transform="translate(-10.1,-12.75)"
       width="12.05"
       xlink:href="#sprite1"
       id="use2" />
    <use
       ffdec:characterId="1691"
       height="8"
       transform="matrix(0,-0.7,0.7,0,4.3,-3.27)"
       width="10.8"
       xlink:href="#sprite2"
       id="use3" />
    <use
       ffdec:characterId="2108"
       height="16.799999"
       transform="translate(-4.95,-7.7)"
       width="2.3499999"
       xlink:href="#sprite3"
       id="use4" />
  </g>
  <defs
     id="defs11">
    <g
       id="sprite0"
       transform="translate(4.7,13.15)">
      <use
         ffdec:characterId="2103"
         height="26.35"
         transform="translate(-4.7,-13.15)"
         width="9.3999996"
         xlink:href="#shape0"
         id="use5" />
    </g>
    <g
       id="shape0"
       transform="translate(4.7,13.15)">
      <path
         d="m 1.85,-13 q 2.55,0.3 2.55,1.15 v 0.25 l 0.1,1.05 -0.05,0.65 -0.1,0.45 0.2,1.85 0.1,1.8 0.05,7.75 V 7.6 l -0.15,2.35 -0.05,0.4 -0.45,1.8 v 0.05 q 0,0.8 -0.55,0.95 L 3.45,13.2 1.85,13.15 0,13.1 H -0.05 -0.5 V 13.05 L -1.8,13 H -4.5 L -4.7,11.75 V 9.3 l 0.3,-11.9 v -0.85 -7.5 q 0.4,-1.5 0.95,-1.8 v -0.15 l 0.05,0.1 0.2,-0.05 0.2,0.05 1.2,-0.25 1.3,-0.1 h 0.25 0.15 0.5 v 0.05 l 1.45,0.1 m -1.5,1.95 -0.4,0.05 q -0.6,0.15 -1,0.6 v -0.1 H -1.45 -1.8 -1.95 V 2.35 l 0.05,2.45 -0.05,3.85 -0.2,1.7 -0.1,0.5 v 0.2 h 0.75 l 0.5,0.35 0.2,-0.1 0.15,-0.2 0.6,0.25 h 0.2 l 0.2,0.1 0.95,-0.4 h 0.8 v -0.7 L 2,1.55 2.05,-6.1 2.35,-9.9 2.45,-10.65 1.85,-10.6 1.3,-10.55 1,-11 0.35,-11.05"
         fill="#6b6b6b"
         fill-rule="evenodd"
         stroke="none"
         id="path5" />
      <path
         d="M 0.35,-11.05 1,-11 l 0.3,0.45 0.55,-0.05 0.6,-0.05 -0.1,0.75 -0.3,3.8 -0.05,7.65 0.1,8.8 v 0.7 H 1.3 l -0.95,0.4 -0.2,-0.1 h -0.2 L -0.65,11.1 -0.8,11.3 -1,11.4 -1.5,11.05 h -0.75 v -0.2 l 0.1,-0.5 0.2,-1.7 L -1.9,4.8 -1.95,2.35 V -10.5 h 0.15 0.35 0.4 v 0.1 q 0.4,-0.45 1,-0.6 l 0.4,-0.05"
         fill="#b0aca0"
         fill-rule="evenodd"
         stroke="none"
         id="path6" />
    </g>
    <g
       id="sprite1"
       transform="translate(6,13.15)">
      <use
         ffdec:characterId="2105"
         height="26.35"
         transform="translate(-6,-13.15)"
         width="12.05"
         xlink:href="#shape1"
         id="use6" />
    </g>
    <g
       id="shape1"
       transform="translate(6,13.15)">
      <path
         d="M 5.55,13.15 V 13.2 L 1.3,13.1 -2,13.05 -6,13 v -25.35 l 0.45,-0.4 0.05,-0.15 v 0.1 l 0.25,-0.05 0.3,0.05 2.95,-0.35 h 1.25 0.05 2 l 4.75,0.65 v 25.35 l -0.5,0.3 M -3.2,-10.5 H -3.8 V 2.35 L -3.75,4.8 -3.8,8.65 q -0.1,1.35 -0.35,2.2 v 0.2 h 1.4 L -2.9,7.45 -2.8,2.7 v -13.2 h -0.4 m 4.5,0 H -0.7 -2 V 11.05 H 2.05 V 0.5 L 2,-5.7 v -3.4 q 0,-0.8 0.15,-1.4 H 1.3 M 2.85,-10.55 3.1,-5.7 3,0.25 v 10.8 H 4 Q 4,4.35 4.15,1.2 l 0.2,-6.25 0.05,-5.6 -1.55,0.1"
         fill="#6b6b6b"
         fill-rule="evenodd"
         stroke="none"
         id="path7" />
      <path
         d="M 1.3,-10.5 H 2.15 Q 2,-9.9 2,-9.1 v 3.4 L 2.05,0.5 V 11.05 H -2 V -10.5 h 1.3 2"
         fill="#797782"
         fill-rule="evenodd"
         stroke="none"
         id="path8" />
      <path
         d="m -3.2,-10.5 h 0.4 V 2.7 l -0.1,4.75 0.15,3.6 h -1.4 v -0.2 Q -3.9,10 -3.8,8.65 L -3.75,4.8 -3.8,2.35 V -10.5 h 0.6 m 6.05,-0.05 1.55,-0.1 -0.05,5.6 -0.2,6.25 Q 4,4.35 4,11.05 H 3 V 0.25 L 3.1,-5.7 2.85,-10.55"
         fill="#8c8a96"
         fill-rule="evenodd"
         stroke="none"
         id="path9" />
    </g>
    <g
       id="sprite2"
       transform="translate(5.4,4)">
      <use
         ffdec:characterId="43"
         height="8"
         transform="translate(-5.4,-4)"
         width="10.8"
         xlink:href="#shape2"
         id="use9" />
    </g>
    <g
       id="shape2"
       transform="translate(5.4,4)">
      <path
         d="m 2.9,-0.35 q 0,-1.25 1.25,-1.25 1.25,0 1.25,1.2 0,1.3 -1.25,1.3 Q 3.6,0.9 3.25,0.5 2.9,0.15 2.9,-0.35 m 0.35,-2.3 q 0,0.55 -0.35,0.9 -0.4,0.45 -1,0.45 -1.35,0 -1.35,-1.4 0,-1.3 1.35,-1.3 1.35,0 1.35,1.35 m -3.1,1.9 h 0.2 q 2.6,0.1 2.6,2.8 l -0.3,1 Q 2.05,4 0.45,4 H 0.35 0.15 0.1 -0.45 q -1.6,0 -2.2,-0.95 l -0.3,-1 q 0,-2.8 2.8,-2.8 h 0.3 M -1.55,-4 q 1.35,0 1.35,1.35 0,0.55 -0.4,0.9 -0.4,0.45 -0.95,0.45 -1.4,0 -1.4,-1.4 0,-1.3 1.4,-1.3 m -2.6,2.4 q 1.25,0 1.25,1.25 0,0.5 -0.35,0.85 -0.35,0.4 -0.9,0.4 -1.25,0 -1.25,-1.3 0,-1.2 1.25,-1.2"
         fill="#6b6b6b"
         fill-rule="evenodd"
         stroke="none"
         id="path10" />
    </g>
    <g
       id="sprite3"
       transform="translate(1.2,8.4)">
      <use
         ffdec:characterId="2107"
         height="16.799999"
         transform="translate(-1.2,-8.4)"
         width="2.3499999"
         xlink:href="#shape3"
         id="use10" />
    </g>
    <g
       id="shape3"
       transform="translate(1.2,8.4)">
      <path
         d="m 0.2,-7.75 v 0.1 L 0.1,-7.5 H 0.05 L -0.1,-7.65 v -0.2 H -0.75 -1 l -0.1,-0.1 0.25,-0.15 0.75,0.05 -0.05,-0.15 V -8.3 L 0,-8.4 h 0.05 l 0.15,0.65 m 0.9,3.05 v 0.1 Q 0.95,-4.05 0.6,-4.05 H 0.55 L 0.35,-4.2 0.65,-4.5 V -4.8 L -0.1,-5.05 q -0.65,0 -0.65,0.45 l 0.05,0.15 0.15,-0.25 h 0.1 q 0.25,0 0.25,0.4 l -0.2,0.4 H -0.45 L -0.6,-4 -0.9,-3.9 h -0.05 l -0.2,-0.15 0.1,-0.15 -0.15,-0.4 v -0.1 q 0,-0.75 1.15,-0.75 0.8,0 1.05,0.45 l 0.1,0.3 m -0.85,2.5 v 0.3 L 0.1,-1.65 H 0.05 l -0.15,-0.6 h -0.15 v 0.1 q 0,0.3 -0.2,0.3 l -0.15,-0.3 h -0.05 l -0.05,0.05 0.05,0.35 -0.15,0.15 h -0.05 l -0.3,-0.65 V -2.3 l 0.6,-0.2 0.6,-0.05 0.2,0.35 m 0,2.2 -0.2,0.7 H 0 L -0.15,0.3 -0.9,0.35 -1.1,0.25 V 0.15 L -0.85,0 -0.15,0.05 V -0.1 l 0.2,-0.2 H 0.1 L 0.25,0 m 0.9,2.25 -0.4,0.4 h -0.1 l -0.1,-0.1 0.2,-0.2 V 2.2 q 0,-0.4 -1.05,-0.4 -0.35,0 -0.4,0.25 V 2.2 l 0.4,0.45 -0.1,0.1 H -0.5 Q -1.1,2.65 -1.1,2.25 L -1.15,2.1 q 0,-0.55 0.8,-0.65 h 0.1 q 1,0 1.3,0.45 l 0.1,0.35 m -1,3.3 V 5.7 L -0.1,6 -0.25,5.95 V 5.85 L -0.1,5.7 V 5.6 H -0.25 Q -0.25,6 -0.7,6 L -1.15,5.7 V 5.45 q 0,-0.2 0.35,-0.2 0.15,0 0.15,0.15 L -0.8,5.55 V 5.7 h 0.1 L -0.45,5.4 -0.3,5.3 h 0.1 L 0.15,5.55 M 0.25,4.4 0.05,5.1 H 0 L -0.15,4.7 -0.9,4.75 -1.1,4.65 v -0.1 l 0.25,-0.15 0.7,0.05 V 4.3 L 0.05,4.1 H 0.1 l 0.15,0.3 m 0,3.05 -0.5,0.45 0.5,0.45 -0.2,0.05 -1.2,-0.75 V 7.55 L -1,7.45 -0.55,7.65 0,7.35 0.25,7.45 M 0.2,6.8 -0.2,7.1 -0.45,7 Q -0.5,7.15 -0.65,7.15 H -0.7 q -0.4,0 -0.45,-0.4 V 6.55 L -0.9,6.3 h 0.1 l 0.45,-0.05 q 0.55,0 0.55,0.3 V 6.8 m -0.5,-13.85 -0.15,0.1 H -0.8 -1 L -1.05,-7 v -0.05 l 0.25,-0.1 V -7.3 h -0.15 l -0.15,-0.1 0.3,-0.1 h 0.15 l 0.35,0.05 q 0,0.1 -0.3,0.15 v 0.15 h 0.15 l 0.15,0.1 m 0.05,0.45 v 0.2 l -0.1,0.15 -0.1,-0.35 h -0.1 v 0.05 l -0.1,0.2 -0.1,-0.2 h -0.1 l 0.05,0.25 -0.1,0.1 -0.2,-0.4 v -0.05 l 0.35,-0.1 0.35,-0.05 0.15,0.2 m 0.5,3.35 q -0.1,0.45 -0.4,0.45 H -0.3 L -0.6,-3.05 -1,-2.8 -1.1,-2.85 V -2.9 l 0.45,-0.5 -0.45,0.05 -0.1,-0.1 V -3.5 l 1,-0.2 0.45,0.45 m -0.4,-0.2 h -0.2 l 0.05,0.35 h 0.15 l 0.05,-0.1 v -0.2 l -0.05,-0.05 m -0.35,2.4 v 0.3 l 0.3,-0.1 V -0.9 l -0.3,-0.15 m 0.6,0.25 q 0,0.35 -1,0.35 h -0.05 q -0.15,0 -0.2,-0.1 V -0.6 l 0.4,-0.15 -0.05,-0.15 v -0.2 q -0.4,-0.05 -0.4,-0.2 l 0.2,-0.15 0.95,0.3 0.15,0.35 m -0.6,4.15 v 0.3 l 0.3,-0.1 V 3.5 L -0.5,3.35 M 0.1,3.6 q 0,0.35 -1,0.35 h -0.05 l -0.2,-0.1 V 3.8 L -0.75,3.65 -0.8,3.5 V 3.3 L -1.2,3.1 -1,2.95 -0.05,3.25 0.1,3.6 m -0.7,2.9 h -0.25 v 0.3 l 0.1,0.1 h 0.1 L -0.6,6.8 V 6.5 m 0.5,0 H -0.35 L -0.2,6.9 -0.1,6.75 V 6.5"
         fill="#bbbbbb"
         fill-rule="evenodd"
         stroke="none"
         id="path11" />
    </g>
  </defs>
</svg>
