<?xml version="1.0" encoding="UTF-8" standalone="no"?>
<svg
   ffdec:objectType="frame"
   height="95.192596"
   width="74"
   version="1.1"
   id="svg44"
   sodipodi:docname="1.svg"
   xmlns:inkscape="http://www.inkscape.org/namespaces/inkscape"
   xmlns:sodipodi="http://sodipodi.sourceforge.net/DTD/sodipodi-0.dtd"
   xmlns:xlink="http://www.w3.org/1999/xlink"
   xmlns="http://www.w3.org/2000/svg"
   xmlns:svg="http://www.w3.org/2000/svg"
   xmlns:ffdec="https://www.free-decompiler.com/flash">
  <sodipodi:namedview
     id="namedview44"
     pagecolor="#ffffff"
     bordercolor="#000000"
     borderopacity="0.25"
     inkscape:showpageshadow="2"
     inkscape:pageopacity="0.0"
     inkscape:pagecheckerboard="0"
     inkscape:deskcolor="#d1d1d1"
     fit-margin-top="5"
     fit-margin-left="5"
     fit-margin-right="5"
     fit-margin-bottom="5" />
  <g
     transform="translate(36.95,47.5426)"
     id="g20">
    <use
       ffdec:characterId="288"
       height="48.799999"
       transform="matrix(-1.1081,0,0,-1,27.45,46.7)"
       width="9.1999998"
       xlink:href="#sprite0"
       id="use1" />
    <use
       ffdec:characterId="288"
       height="48.799999"
       transform="matrix(-1.1081,0,0,1,-17.55,-2.05)"
       width="9.1999998"
       xlink:href="#sprite0"
       id="use2" />
    <use
       ffdec:characterId="288"
       height="48.799999"
       transform="matrix(0,1.1081,1.0901,0,-26.55,32.05)"
       width="9.1999998"
       xlink:href="#sprite1"
       id="use3" />
    <use
       ffdec:characterId="347"
       height="12.45"
       transform="matrix(-0.9147,0,0,0.9147,10,-47.5426)"
       width="46.049999"
       xlink:href="#sprite2"
       id="use4" />
    <use
       ffdec:characterId="347"
       height="12.45"
       transform="matrix(0.9147,0,0,0.9147,-8.25,-47.5426)"
       width="46.049999"
       xlink:href="#sprite2"
       id="use5" />
    <use
       ffdec:characterId="288"
       height="48.799999"
       transform="matrix(-1.1081,0,0,-1,31.95,12.05)"
       width="9.1999998"
       xlink:href="#sprite1"
       id="use6" />
    <use
       ffdec:characterId="288"
       height="48.799999"
       transform="matrix(-1.1081,0,0,-1,31.95,47.6)"
       width="9.1999998"
       xlink:href="#sprite1"
       id="use7" />
    <use
       ffdec:characterId="288"
       height="48.799999"
       transform="matrix(-1.1081,0,0,1,-22.05,-1.15)"
       width="9.1999998"
       xlink:href="#sprite1"
       id="use8" />
    <use
       ffdec:characterId="288"
       height="48.799999"
       transform="matrix(-1.1081,0,0,1,-22.05,-36.7)"
       width="9.1999998"
       xlink:href="#sprite1"
       id="use9" />
    <use
       ffdec:characterId="349"
       height="27.950001"
       transform="matrix(1.0588,0,0,0.9147,-27.85,12.2)"
       width="51.450001"
       xlink:href="#sprite3"
       id="use10" />
    <use
       ffdec:characterId="349"
       height="27.950001"
       transform="matrix(-1.0588,0,0,0.9147,27.1,-11.65)"
       width="51.450001"
       xlink:href="#sprite3"
       id="use11" />
    <use
       ffdec:characterId="288"
       height="48.799999"
       transform="matrix(0,1.1081,1,0,-11.75,-43.1)"
       width="9.1999998"
       xlink:href="#sprite1"
       id="use12" />
    <use
       ffdec:characterId="288"
       height="48.799999"
       transform="matrix(0,1.1081,1,0,-36.95,-43.1)"
       width="9.1999998"
       xlink:href="#sprite1"
       id="use13" />
    <use
       ffdec:characterId="349"
       height="27.950001"
       transform="matrix(1.0588,0,0,-0.9147,-27.4,-9.75)"
       width="51.450001"
       xlink:href="#sprite3"
       id="use14" />
    <use
       ffdec:characterId="351"
       height="9.75"
       transform="matrix(0.9158,0,0,0.8555,-19.3,-27.9)"
       width="9.4499998"
       xlink:href="#sprite4"
       id="use15" />
    <use
       ffdec:characterId="353"
       height="9.5500002"
       transform="matrix(0.9105,0,0,0.8701,11,21.1)"
       width="9.5"
       xlink:href="#sprite5"
       id="use16" />
    <use
       ffdec:characterId="355"
       height="10.8"
       transform="matrix(0.769,0,0,0.769,-20.65,21.35)"
       width="11.25"
       xlink:href="#sprite6"
       id="use17" />
    <use
       ffdec:characterId="351"
       height="9.75"
       transform="matrix(0.9158,0,0,0.8555,11,-28.1)"
       width="9.4499998"
       xlink:href="#sprite4"
       id="use18" />
    <use
       ffdec:characterId="353"
       height="9.5500002"
       transform="matrix(0.9105,0,0,0.8701,-20.2,-4.25)"
       width="9.5"
       xlink:href="#sprite5"
       id="use19" />
    <use
       ffdec:characterId="355"
       height="10.8"
       transform="matrix(0.769,0,0,0.769,11,-5.3)"
       width="11.25"
       xlink:href="#sprite6"
       id="use20" />
  </g>
  <defs
     id="defs44">
    <g
       id="sprite0">
      <use
         ffdec:characterId="287"
         height="48.799999"
         width="9.1999998"
         xlink:href="#shape0"
         id="use21" />
    </g>
    <g
       id="shape0">
      <path
         d="M 5.65,0.05 Q 8.4,0.2 8.95,1.1 L 9.2,18.55 v 9.4 2.3 L 8.95,47.6 v 0.1 H 8.9 q -0.6,0.9 -3.25,1.05 l -1,0.05 H 4.55 L 3.45,48.75 Q 0.8,48.6 0.25,47.7 L 0.1,38.2 0.05,31.55 0,27.95 0.05,18.55 0.25,1.1 Q 0.8,0.2 3.45,0.05 L 4.55,0 h 0.1 l 1,0.05 m 0.55,27 V 26.7 18.55 L 6.25,11.8 6.4,7 V 6.55 Q 6.35,5.2 6.55,4.2 L 6.7,2.8 H 6.15 L 5.05,2.85 H 4.6 4.35 4.15 3.4 L 2.5,2.8 2.65,4.2 2.8,6.55 V 7 L 2.95,11.8 3,18.55 v 8.15 1.5 2.05 3.55 1.3 2.45 0.65 H 2.95 L 2.8,41.8 v 0.45 L 2.65,44.6 2.5,46 3.4,45.95 h 0.75 0.45 0.15 0.3 0.3 L 6.15,46 H 6.7 L 6.55,44.6 Q 6.35,43.6 6.4,42.25 V 41.8 L 6.3,38.2 H 6.25 L 6.2,37.55 v -2.45 -3.65 -1.2 -3.2"
         fill="#9a9a9a"
         fill-rule="evenodd"
         stroke="none"
         id="path21" />
      <path
         d="m 6.2,27.05 v 3.2 1.2 l -0.25,1.6 q -0.9,5.8 -0.9,8.5 l 0.3,4.4 H 5.05 4.75 L 4.65,45.4 Q 4.5,44.55 4.5,43.05 4.5,39.1 5.25,34.2 L 6.2,27.05 M 3,33.8 V 30.25 28.2 l 0.2,-1.3 1,-6.35 V 7.65 L 4.35,2.85 H 4.6 L 4.75,7.8 V 20.7 L 4.8,21 3.9,27.8 3,33.8"
         fill="#ababab"
         fill-rule="evenodd"
         stroke="none"
         id="path22" />
      <path
         d="M 4.6,2.85 H 5.05 L 6.15,2.8 H 6.7 L 6.55,4.2 Q 6.35,5.2 6.4,6.55 V 7 L 6.25,11.8 6.2,18.55 v 8.15 0.35 L 5.25,34.2 q -0.75,4.9 -0.75,8.85 0,1.5 0.15,2.35 l 0.1,0.55 H 4.6 4.15 3.4 L 2.5,46 2.65,44.6 2.8,42.25 V 41.8 L 2.95,38.2 H 3 V 37.55 35.1 33.8 L 3.9,27.8 4.8,21 4.75,20.7 V 7.8 L 4.6,2.85 m 1.6,28.6 v 3.65 2.45 L 6.25,38.2 H 6.3 l 0.1,3.6 v 0.45 Q 6.35,43.6 6.55,44.6 L 6.7,46 H 6.15 l -0.8,-0.05 -0.3,-4.4 q 0,-2.7 0.9,-8.5 L 6.2,31.45 M 3,28.2 V 26.7 18.55 L 2.95,11.8 2.8,7 V 6.55 L 2.65,4.2 2.5,2.8 3.4,2.85 h 0.75 0.2 L 4.2,7.65 v 12.9 L 3.2,26.9 3,28.2"
         fill="#b5b0ac"
         fill-rule="evenodd"
         stroke="none"
         id="path23" />
    </g>
    <g
       id="sprite1">
      <use
         ffdec:characterId="287"
         height="48.799999"
         width="9.1999998"
         xlink:href="#shape1"
         id="use23" />
    </g>
    <g
       id="shape1">
      <path
         d="M 5.65,0.05 Q 8.4,0.2 8.95,1.1 L 9.2,18.55 v 9.4 2.3 L 8.95,47.6 v 0.1 H 8.9 q -0.6,0.9 -3.25,1.05 l -1,0.05 H 4.55 L 3.45,48.75 Q 0.8,48.6 0.25,47.7 L 0.1,38.2 0.05,31.55 0,27.95 0.05,18.55 0.25,1.1 Q 0.8,0.2 3.45,0.05 L 4.55,0 h 0.1 l 1,0.05 m 0.55,27 V 26.7 18.55 L 6.25,11.8 6.4,7 V 6.55 Q 6.35,5.2 6.55,4.2 L 6.7,2.8 H 6.15 L 5.05,2.85 H 4.6 4.35 4.15 3.4 L 2.5,2.8 2.65,4.2 2.8,6.55 V 7 L 2.95,11.8 3,18.55 v 8.15 1.5 2.05 3.55 1.3 2.45 0.65 H 2.95 L 2.8,41.8 v 0.45 L 2.65,44.6 2.5,46 3.4,45.95 h 0.75 0.45 0.15 0.3 0.3 L 6.15,46 H 6.7 L 6.55,44.6 Q 6.35,43.6 6.4,42.25 V 41.8 L 6.3,38.2 H 6.25 L 6.2,37.55 v -2.45 -3.65 -1.2 -3.2"
         fill="#6b6b6b"
         fill-rule="evenodd"
         stroke="none"
         id="path24" />
      <path
         d="m 6.2,27.05 v 3.2 1.2 l -0.25,1.6 q -0.9,5.8 -0.9,8.5 l 0.3,4.4 H 5.05 4.75 L 4.65,45.4 Q 4.5,44.55 4.5,43.05 4.5,39.1 5.25,34.2 L 6.2,27.05 M 3,33.8 V 30.25 28.2 l 0.2,-1.3 1,-6.35 V 7.65 L 4.35,2.85 H 4.6 L 4.75,7.8 V 20.7 L 4.8,21 3.9,27.8 3,33.8"
         fill="#989898"
         fill-rule="evenodd"
         stroke="none"
         id="path25" />
      <path
         d="M 4.6,2.85 H 5.05 L 6.15,2.8 H 6.7 L 6.55,4.2 Q 6.35,5.2 6.4,6.55 V 7 L 6.25,11.8 6.2,18.55 v 8.15 0.35 L 5.25,34.2 q -0.75,4.9 -0.75,8.85 0,1.5 0.15,2.35 l 0.1,0.55 H 4.6 4.15 3.4 L 2.5,46 2.65,44.6 2.8,42.25 V 41.8 L 2.95,38.2 H 3 V 37.55 35.1 33.8 L 3.9,27.8 4.8,21 4.75,20.7 V 7.8 L 4.6,2.85 m 1.6,28.6 v 3.65 2.45 L 6.25,38.2 H 6.3 l 0.1,3.6 v 0.45 Q 6.35,43.6 6.55,44.6 L 6.7,46 H 6.15 l -0.8,-0.05 -0.3,-4.4 q 0,-2.7 0.9,-8.5 L 6.2,31.45 M 3,28.2 V 26.7 18.55 L 2.95,11.8 2.8,7 V 6.55 L 2.65,4.2 2.5,2.8 3.4,2.85 h 0.75 0.2 L 4.2,7.65 v 12.9 L 3.2,26.9 3,28.2"
         fill="#b2a69a"
         fill-rule="evenodd"
         stroke="none"
         id="path26" />
    </g>
    <g
       id="sprite2"
       transform="translate(0,-0.5)">
      <use
         ffdec:characterId="346"
         height="12.45"
         transform="translate(0,0.5)"
         width="46.049999"
         xlink:href="#shape2"
         id="use26" />
    </g>
    <g
       id="shape2"
       transform="translate(0,-0.5)">
      <path
         d="m 45.3,0.85 q 0.7,0.6 0.7,2.4 l -0.2,5.1 -0.15,1.55 0.15,0.25 0.25,0.95 q 0,1.2 -1.15,1.55 l -0.5,0.3 -0.4,-0.2 -37.7,0.1 -4.05,-0.2 -0.95,0.2 Q 0.45,12.85 0,12.4 V 7.35 L 0.4,1.5 V 0.65 L 0.45,0.5 H 2.3 L 2.35,0.65 2.75,0.5 H 44.7 q 0.35,0.1 0.6,0.35 M 43,8.1 42.85,3.75 H 33.9 l 0.05,1.55 0.05,0.8 0.7,-0.05 0.55,0.2 0.15,0.4 -0.7,0.35 -0.5,0.1 0.3,0.6 1.4,1.65 h 7.2 L 43,8.1 M 32.95,3.75 h -4.9 l 0.1,1.4 h 0.5 q 0.6,0 0.85,0.35 0,0.35 -0.85,0.5 h -0.5 v 0.6 l 0.5,-0.2 0.55,0.75 -0.2,0.5 h -0.9 l -0.05,1.65 5.7,0.05 -0.5,-1.2 -0.2,-1 -1.3,-0.1 -0.4,-0.5 Q 31.6,6.3 32.95,6.2 L 32.9,5.2 32.95,3.75 M 26.25,6 Q 25.55,5.8 25.35,5.5 L 26.5,5.25 V 5.2 q 0,-0.9 0.15,-1.45 h -8.9 v 0.3 0.35 h 0.4 l 0.5,0.35 q -0.2,0.3 -0.9,0.4 V 7.8 q -0.1,0 -0.65,0.35 l -0.35,-0.55 -3,0.05 h -1 v 1.3 L 12.4,9.3 h 14.45 l -0.1,-0.65 -0.1,-1 h -0.4 Q 25.55,7.65 25,7.2 25.85,6.6 26.6,6.75 L 26.55,6 h -0.3 M 16.3,3.75 H 6.1 v 0.3 L 6,6.2 h 2.9 q 0.15,-0.75 0.55,-1 l 0.6,0.95 1.45,-0.05 q 0.1,-0.85 0.6,-1.2 0.45,0.15 0.65,0.5 V 6.1 L 16.4,6.2 V 6.1 L 16.35,5.2 h -0.5 L 15.4,4.7 Q 15.75,4.5 16.35,4.45 V 4.05 L 16.3,3.75 M 10.25,7.9 10.15,9.25 12.3,9.3 Q 11.7,8.7 11.55,7.65 L 10.25,7.6 V 7.9 M 5,3.75 H 2.95 l 0.2,5.7 3.15,-0.2 H 8.8 Q 8.55,8.85 8.7,7.9 V 7.55 L 5.8,7.5 5.6,7.65 5.5,7.5 H 5.25 L 4.6,6.8 Q 4.6,6.4 4.85,6.3 L 5.15,6.25 Q 5,5.35 5,4 V 3.75"
         fill="#6b6b6b"
         fill-rule="evenodd"
         stroke="none"
         id="path27" />
      <path
         d="m 32.95,3.75 -0.05,1.45 0.05,1 q -1.35,0.1 -1.6,0.35 l 0.4,0.5 1.3,0.1 0.2,1 0.5,1.2 L 28.05,9.3 28.1,7.65 H 29 L 29.2,7.15 28.65,6.4 28.15,6.6 V 6 h 0.5 Q 29.5,5.85 29.5,5.5 29.25,5.15 28.65,5.15 h -0.5 l -0.1,-1.4 h 4.9 m -16.65,0 0.05,0.3 v 0.4 Q 15.75,4.5 15.4,4.7 l 0.45,0.5 h 0.5 L 16.4,6.1 V 6.2 L 12.75,6.1 V 5.4 Q 12.55,5.05 12.1,4.9 11.6,5.25 11.5,6.1 L 10.05,6.15 9.45,5.2 Q 9.05,5.45 8.9,6.2 H 6 L 6.1,4.05 v -0.3 h 10.2"
         fill="#bba5c3"
         fill-rule="evenodd"
         stroke="none"
         id="path28" />
      <path
         d="m 26.25,6 h 0.3 L 26.6,6.75 Q 25.85,6.6 25,7.2 q 0.55,0.45 1.25,0.45 h 0.4 l 0.1,1 0.1,0.65 H 12.4 l 0.35,-0.35 v -1.3 h 1 l 3,-0.05 0.35,0.55 Q 17.65,7.8 17.75,7.8 V 5.15 q 0.7,-0.1 0.9,-0.4 L 18.15,4.4 h -0.4 V 4.05 3.75 h 8.9 Q 26.5,4.3 26.5,5.2 V 5.25 L 25.35,5.5 q 0.2,0.3 0.9,0.5"
         fill="#b8a0a0"
         fill-rule="evenodd"
         stroke="none"
         id="path29" />
      <path
         d="m 43,8.1 0.1,1.25 H 35.9 L 34.5,7.7 34.2,7.1 34.7,7 35.4,6.65 35.25,6.25 34.7,6.05 34,6.1 33.95,5.3 33.9,3.75 h 8.95 L 43,8.1 M 5,3.75 V 4 Q 5,5.35 5.15,6.25 L 4.85,6.3 Q 4.6,6.4 4.6,6.8 L 5.25,7.5 H 5.5 L 5.6,7.65 5.8,7.5 8.7,7.55 V 7.9 Q 8.55,8.85 8.8,9.25 H 6.3 L 3.15,9.45 2.95,3.75 H 5 M 10.25,7.9 V 7.6 l 1.3,0.05 Q 11.7,8.7 12.3,9.3 L 10.15,9.25 10.25,7.9"
         fill="#c6b8aa"
         fill-rule="evenodd"
         stroke="none"
         id="path30" />
    </g>
    <g
       id="sprite3">
      <use
         ffdec:characterId="348"
         height="27.950001"
         width="51.450001"
         xlink:href="#shape3"
         id="use30" />
    </g>
    <g
       id="shape3">
      <path
         d="m 51.45,1.95 v 12 L 51.4,14.2 v 11.2 l -0.3,1.2 q -0.4,0.85 -1.15,0.85 h -0.2 l -0.7,0.4 H 19.2 V 27.9 H 8.7 4.75 2.1 Q 0.75,27.7 0.6,26.6 V 26.55 L 0.4,25.6 v -0.4 l 0.1,-0.05 v -15 L 0.05,4.35 Q -0.2,1.1 1.65,0.7 2.15,0.05 2.9,0.2 L 44.15,0.15 q 5.35,-0.5 6.5,0.9 l 0.8,0.9 M 44.3,8.6 h 1.3 V 8.5 q 0.1,-1.05 0.7,-1.45 l 0.35,1.55 h 1.5 l 0.1,-1.3 -0.3,-3.65 H 37.1 v 0.6 l -0.15,1.5 1.1,1 q -0.3,0.6 -0.85,0.6 L 36.45,7.2 35.1,9.45 34.95,9.7 l 0.25,0.9 -0.1,1.25 0.1,1.8 -0.4,4.65 -0.05,6 h 4.55 l 0.05,-2.95 h -0.8 l -0.45,-0.1 q -0.15,-0.1 -0.15,-0.5 0,-0.55 0.75,-0.6 L 39.35,20.2 39.4,18 H 39.05 Q 38.45,18 37.7,17.35 38.15,17 38.55,16.9 l 0.85,-0.1 0.05,-4.95 q 0,-1.35 0.15,-2.2 l -0.15,-0.1 v -0.4 q 0,-0.4 0.25,-0.5 L 39.9,8.6 40.2,8.25 q 0.5,-0.35 0.7,0.3 L 43.25,8.6 43.4,6.7 h 0.4 q 0.4,0.25 0.5,1.9 m -0.1,2.7 -0.15,0.2 -0.65,0.05 -0.15,-1.7 h -2.3 l -0.05,6.9 0.55,-0.05 0.5,0.1 0.2,0.5 -0.7,0.7 h -0.6 v 1.05 l 0.05,1.35 1.65,0.3 0.05,0.15 -1.45,0.5 H 40.9 L 41,23.9 v 0.4 h 7.5 Q 48.25,22.85 48.15,20.55 V 14.3 L 48.1,11.45 48.15,9.8 46.7,9.85 46.55,11.2 46.15,11.35 Q 45.75,11.1 45.65,10.6 V 9.85 H 44.3 L 44.2,11.3 M 36,3.65 h -9.4 l 0.25,2.3 H 27.2 L 28.15,6.5 27.8,7.05 26.9,7.25 V 8.5 h 0.8 l 0.1,-0.05 0.05,0.4 -0.05,0.4 -0.1,0.2 -0.5,0.1 -0.3,-0.05 -0.05,0.9 v 0.95 H 28.7 L 29.85,11.3 29.6,10.5 29.7,9.7 h 0.6 l 0.75,1.2 0.05,0.1 q 2.6,-0.95 4,-4.1 L 35.25,6.4 34.7,6.05 Q 35.05,5.7 35.45,5.55 L 36,3.65 m -4.3,8.6 v 0.55 l -0.4,0.25 -0.7,-0.45 -1.95,0.2 -1.8,-0.15 -0.05,0.8 q -0.2,1.9 -0.9,3 h -5.4 l -0.05,1.1 -0.5,0.2 q -0.45,-0.5 -0.55,-1.1 v -0.2 h -3.15 l -0.3,1 -0.4,0.05 Q 15.3,17.1 15.2,16.45 H 9.1 Q 8.3,15.5 8.1,12.7 L 8.05,9.4 7.15,9.3 5.9,9 Q 7.3,7.8 8.05,8.1 L 8.1,7.15 6.9,6.95 Q 7.25,6.55 8.1,6.25 8.15,4.7 8.35,3.65 H 4.2 L 4.15,4.2 3.9,8.05 V 8.1 l 0.3,7.1 v 3.75 h 2.9 q 0.05,-0.9 0.5,-1.25 l 0.45,1.25 2.9,-0.05 0.35,-1.05 q 0.55,0.05 0.7,1.05 h 4 q 0.1,-0.95 0.6,-0.85 l 0.3,0.85 H 21 q 0.1,-0.85 0.45,-1.15 l 0.45,1.15 3.5,-0.05 1.2,0.05 q 0.2,-1.45 0.6,-1.8 0.55,0.7 0.7,1.8 l 5.45,0.25 v -0.9 L 33.4,13.9 q 0.05,-1.75 0.35,-2.95 -0.95,0.8 -2.05,1.3 M 24.95,5.75 25.1,3.65 H 9.65 l 0.45,1.6 v 0.6 l 1.85,0.4 -0.3,0.55 q -0.4,0.3 -1.55,0.4 v 1.4 l 1.1,-0.4 0.65,0.55 q -0.5,0.35 -0.55,0.6 l -1.2,0.1 v 5.05 h 5.1 v -0.15 q 0.05,-0.55 0.6,-1.3 l 0.45,1.45 h 3.15 v -0.55 q 0.15,-0.9 0.8,-1.15 l 0.3,0.25 0.15,0.55 -0.05,0.9 4.35,-0.05 V 9.2 l -1.5,-0.4 1.5,-0.15 V 7.2 l -1.25,-0.25 -0.55,-0.7 0.8,-0.5 h 1 m -3.9,14.8 -4.15,-0.05 -0.05,0.2 -0.4,0.25 L 16.1,20.5 H 12.05 L 12,20.85 q -0.2,0.7 -0.8,0.9 l -0.35,-0.2 Q 10.7,21.45 10.7,21 l 0.05,-0.5 h -2.7 l -0.4,1.7 Q 7.15,21.8 7.05,20.9 V 20.5 H 4.2 v 1.15 L 3.95,24.4 8.7,24.3 h 24.7 l -0.1,-4 -2.65,0.25 h -2.9 l -0.65,0.8 -0.7,-0.8 h -4.45 v 0.05 l -0.5,0.85 -0.4,-0.9"
         fill="#6b6b6b"
         fill-rule="evenodd"
         stroke="none"
         id="path31" />
      <path
         d="M 44.3,8.6 Q 44.2,6.95 43.8,6.7 H 43.4 L 43.25,8.6 40.9,8.55 Q 40.7,7.9 40.2,8.25 L 39.9,8.6 39.7,8.65 q -0.25,0.1 -0.25,0.5 v 0.4 l 0.15,0.1 q -0.15,0.85 -0.15,2.2 L 39.4,16.8 38.55,16.9 Q 38.15,17 37.7,17.35 38.45,18 39.05,18 h 0.35 l -0.05,2.2 -0.65,-0.05 q -0.75,0.05 -0.75,0.6 0,0.4 0.15,0.5 l 0.45,0.1 h 0.8 L 39.3,24.3 h -4.55 l 0.05,-6 0.4,-4.65 -0.1,-1.8 L 35.2,10.6 34.95,9.7 35.1,9.45 36.45,7.2 37.2,7.35 q 0.55,0 0.85,-0.6 l -1.1,-1 0.15,-1.5 v -0.6 h 10.85 l 0.3,3.65 -0.1,1.3 h -1.5 L 46.3,7.05 q -0.6,0.4 -0.7,1.45 v 0.1 h -1.3"
         fill="#a98e99"
         fill-rule="evenodd"
         stroke="none"
         id="path32" />
      <path
         d="m 44.2,11.3 0.1,-1.45 h 1.35 v 0.75 q 0.1,0.5 0.5,0.75 l 0.4,-0.15 0.15,-1.35 1.45,-0.05 -0.05,1.65 0.05,2.85 v 6.25 q 0.1,2.3 0.35,3.75 H 41 v -0.4 l -0.1,-2.55 h 0.25 L 42.6,20.85 42.55,20.7 40.9,20.4 40.85,19.05 V 18 h 0.6 l 0.7,-0.7 -0.2,-0.5 -0.5,-0.1 -0.55,0.05 0.05,-6.9 h 2.3 l 0.15,1.7 0.65,-0.05 0.15,-0.2"
         fill="#c6b8aa"
         fill-rule="evenodd"
         stroke="none"
         id="path33" />
      <path
         d="m 31.7,12.25 q 1.1,-0.5 2.05,-1.3 -0.3,1.2 -0.35,2.95 l -0.05,4.35 v 0.9 L 27.9,18.9 q -0.15,-1.1 -0.7,-1.8 -0.4,0.35 -0.6,1.8 L 25.4,18.85 21.9,18.9 21.45,17.75 Q 21.1,18.05 21,18.9 H 16.9 L 16.6,18.05 Q 16.1,17.95 16,18.9 h -4 q -0.15,-1 -0.7,-1.05 L 10.95,18.9 8.05,18.95 7.6,17.7 Q 7.15,18.05 7.1,18.95 H 4.2 V 15.2 L 3.9,8.1 V 8.05 L 4.15,4.2 4.2,3.65 H 8.35 Q 8.15,4.7 8.1,6.25 7.25,6.55 6.9,6.95 L 8.1,7.15 8.05,8.1 Q 7.3,7.8 5.9,9 l 1.25,0.3 0.9,0.1 0.05,3.3 q 0.2,2.8 1,3.75 h 6.1 q 0.1,0.65 0.35,1.05 l 0.4,-0.05 0.3,-1 h 3.15 v 0.2 q 0.1,0.6 0.55,1.1 l 0.5,-0.2 0.05,-1.1 h 5.4 q 0.7,-1.1 0.9,-3 l 0.05,-0.8 1.8,0.15 1.95,-0.2 0.7,0.45 0.4,-0.25 V 12.25 M 36,3.65 35.45,5.55 Q 35.05,5.7 34.7,6.05 L 35.25,6.4 35.1,6.9 q -1.4,3.15 -4,4.1 L 31.05,10.9 30.3,9.7 h -0.6 l -0.1,0.8 0.25,0.8 -1.15,0.05 H 26.85 V 10.4 l 0.05,-0.9 0.3,0.05 0.5,-0.1 0.1,-0.2 0.05,-0.4 L 27.8,8.45 27.7,8.5 H 26.9 V 7.25 L 27.8,7.05 28.15,6.5 27.2,5.95 H 26.85 L 26.6,3.65 H 36"
         fill="#b8a0a0"
         fill-rule="evenodd"
         stroke="none"
         id="path34" />
      <path
         d="m 21.05,20.55 0.4,0.9 0.5,-0.85 v -0.05 h 4.45 l 0.7,0.8 0.65,-0.8 h 2.9 l 2.65,-0.25 0.1,4 H 8.7 L 3.95,24.4 4.2,21.65 V 20.5 h 2.85 v 0.4 q 0.1,0.9 0.6,1.3 l 0.4,-1.7 h 2.7 L 10.7,21 q 0,0.45 0.15,0.55 l 0.35,0.2 q 0.6,-0.2 0.8,-0.9 l 0.05,-0.35 h 4.05 l 0.35,0.45 0.4,-0.25 0.05,-0.2 4.15,0.05 m 3.9,-14.8 h -1 l -0.8,0.5 0.55,0.7 1.25,0.25 v 1.45 l -1.5,0.15 1.5,0.4 v 5.25 L 20.6,14.5 20.65,13.6 20.5,13.05 20.2,12.8 q -0.65,0.25 -0.8,1.15 V 14.5 H 16.25 L 15.8,13.05 q -0.55,0.75 -0.6,1.3 V 14.5 H 10.1 V 9.45 l 1.2,-0.1 Q 11.35,9.1 11.85,8.75 L 11.2,8.2 10.1,8.6 V 7.2 Q 11.25,7.1 11.65,6.8 L 11.95,6.25 10.1,5.85 V 5.25 L 9.65,3.65 H 25.1 l -0.15,2.1"
         fill="#bba5c3"
         fill-rule="evenodd"
         stroke="none"
         id="path35" />
    </g>
    <g
       id="sprite4">
      <use
         ffdec:characterId="350"
         height="9.75"
         width="9.4499998"
         xlink:href="#shape4"
         id="use35" />
    </g>
    <g
       id="shape4">
      <path
         d="m 8.6,1.9 q 0.85,1.15 0.85,2.7 0,1.7 -0.4,2.7 -0.95,2.45 -3.9,2.45 -2.9,0 -4.3,-2.1 L 0,5.45 Q 0,3.2 0.8,1.9 1.95,0.05 4.75,0 L 5.5,0.05 6.35,0.25 Q 7.2,0.55 7.95,1.2 L 8.6,1.9 M 5.75,2.4 H 4.6 Q 3.25,2.5 2.55,3.05 1.75,3.6 1.75,4.7 l 0.05,0.45 0.05,0.1 q 0.1,0.6 0.6,1.2 Q 3.4,7.65 5,7.65 6.7,7.65 7.25,6 l 0.2,-1.7 q 0,-1.7 -1.7,-1.9 M 5.3,3.75 V 3.7 Q 5.3,3.25 5.65,3.2 L 6.35,3.25 6.5,3.7 6.4,4.2 5.9,4.35 5.3,3.75 M 5.45,6.15 5,6.05 4.9,5.65 Q 4.9,4.9 5.85,5.15 L 5.95,5.1 6.05,5.4 V 5.55 L 5.95,6 5.45,6.15 M 4.05,4.5 Q 3.6,4.5 3.5,4.2 V 3.85 Q 3.5,3.45 3.75,3.25 4.05,3 4.6,3.85 L 4.55,4.25 4.45,4.4 4.05,4.5 M 3.5,4.95 3.85,4.85 Q 4.2,4.95 4.35,5.4 L 3.85,5.9 3.45,5.8 3.35,5.35 q 0,-0.3 0.15,-0.4"
         fill="#6b6b6b"
         fill-rule="evenodd"
         stroke="none"
         id="path36" />
      <path
         d="M 5.75,2.4 V 2.65 L 5.65,3.2 Q 5.3,3.25 5.3,3.7 V 3.75 L 4.8,4.2 Q 3.65,5.15 1.85,5.15 H 1.8 L 1.75,4.7 Q 1.75,3.6 2.55,3.05 3.25,2.5 4.6,2.4 H 5.75 M 4.05,4.5 4.45,4.4 4.55,4.25 4.6,3.85 Q 4.05,3 3.75,3.25 3.5,3.45 3.5,3.85 V 4.2 q 0.1,0.3 0.55,0.3"
         fill="#e7e7e7"
         fill-rule="evenodd"
         stroke="none"
         id="path37" />
      <path
         d="M 5.65,3.2 5.75,2.65 V 2.4 q 1.7,0.2 1.7,1.9 L 7.25,6 Q 6.7,7.65 5,7.65 3.4,7.65 2.45,6.45 1.95,5.85 1.85,5.25 v -0.1 q 1.8,0 2.95,-0.95 L 5.3,3.75 5.9,4.35 6.4,4.2 6.5,3.7 6.35,3.25 5.65,3.2 M 5.45,6.15 5.95,6 6.05,5.55 V 5.4 L 5.95,5.1 5.85,5.15 Q 4.9,4.9 4.9,5.65 L 5,6.05 5.45,6.15 M 3.5,4.95 q -0.15,0.1 -0.15,0.4 l 0.1,0.45 0.4,0.1 0.5,-0.5 Q 4.2,4.95 3.85,4.85 L 3.5,4.95"
         fill="#d7d7d7"
         fill-rule="evenodd"
         stroke="none"
         id="path38" />
    </g>
    <g
       id="sprite5">
      <use
         ffdec:characterId="352"
         height="9.5500002"
         width="9.5"
         xlink:href="#shape5"
         id="use38" />
    </g>
    <g
       id="shape5">
      <path
         d="M 5.7,2.45 5.75,2.95 5.7,3.2 H 5.45 Q 4.9,3.3 4.9,3.9 V 4.15 L 4.7,4.3 4.45,4.5 3.85,4.35 Q 3,4.35 3,5.15 2.3,5.15 2.1,4.75 V 4.5 Q 2.1,4.1 2.5,3.45 L 2.7,3.15 3.85,2.4 5.7,2.45"
         fill="#e7e7e7"
         fill-rule="evenodd"
         stroke="none"
         id="path39" />
      <path
         d="M 5.7,3.2 5.75,2.95 5.7,2.45 Q 6.65,2.65 7.1,3.2 7.4,3.6 7.4,4.55 L 7.15,6 5.85,7.35 4,7.4 Q 2.6,7.4 2.2,6.05 L 2.1,4.75 Q 2.3,5.15 3,5.15 L 3.05,5.5 Q 3.25,6 3.85,6 4.7,6 4.7,5.2 L 4.45,4.5 4.7,4.3 4.9,4.15 Q 5,4.7 5.9,4.7 L 6.45,4.6 6.55,3.95 Q 6.15,3.2 5.7,3.2 M 3.85,2.4 2.7,3.15 3.7,2.4 h 0.15"
         fill="#989898"
         fill-rule="evenodd"
         stroke="none"
         id="path40" />
      <path
         d="M 5.7,2.45 3.85,2.4 H 3.7 l -1,0.75 -0.2,0.3 Q 2.1,4.1 2.1,4.5 v 0.25 l 0.1,1.3 Q 2.6,7.4 4,7.4 L 5.85,7.35 7.15,6 7.4,4.55 Q 7.4,3.6 7.1,3.2 6.65,2.65 5.7,2.45 M 3,5.15 Q 3,4.35 3.85,4.35 L 4.45,4.5 4.7,5.2 Q 4.7,6 3.85,6 3.25,6 3.05,5.5 L 3,5.15 m 1.9,-1 V 3.9 Q 4.9,3.3 5.45,3.2 H 5.7 q 0.45,0 0.85,0.75 L 6.45,4.6 5.9,4.7 Q 5,4.7 4.9,4.15 m 4.6,1.5 Q 9.5,6.5 8.55,7.75 7.2,9.55 4.95,9.55 1.65,9.55 0.5,7.6 L 0,5.65 Q 0,3.5 1.05,2.05 L 1.5,1.5 2.4,0.75 Q 3.45,0.05 4.75,0 6.7,-0.05 8,1.35 9.5,2.9 9.5,5.65"
         fill="#6b6b6b"
         fill-rule="evenodd"
         stroke="none"
         id="path41" />
    </g>
    <g
       id="sprite6">
      <use
         ffdec:characterId="354"
         height="10.8"
         width="11.25"
         xlink:href="#shape6"
         id="use41" />
    </g>
    <g
       id="shape6">
      <path
         d="M 10.45,8.4 Q 9.1,10.8 5.85,10.8 2.8,10.8 1.1,9 0,7.8 0,7 0,3.5 1.75,1.6 3.3,-0.05 5.65,0 q 2.2,0.05 3.85,1.55 1.75,1.6 1.75,4 0,1.5 -0.8,2.85 M 6.35,2.2 5.5,2 4.95,1.95 3.4,2.05 2.6,2.55 Q 2,3.15 1.9,4.2 V 4.4 L 1.85,4.9 q 0,1.4 0.3,1.9 0.6,1.05 2.9,1.7 H 6.6 Q 7.55,8.15 8.35,7.15 9.1,6.25 9.1,5.65 9.1,3.05 6.35,2.2 M 3.5,4.6 3.45,4.35 q 0,-0.8 0.85,-0.75 0.5,0.05 0.75,0.3 l 0.1,0.4 q 0,0.85 -0.9,0.85 -0.7,0 -0.75,-0.55 M 5.8,4.35 q 0,-0.8 0.9,-0.8 0.85,0 0.85,0.8 0,0.4 -0.4,0.65 L 6.65,5.2 5.85,4.7 5.8,4.35 M 4.05,6.5 4.15,6.1 5.1,6.05 l 0.15,0.5 -0.1,0.5 -0.1,0.1 -0.4,0.05 q -0.6,0 -0.6,-0.7 m 2.15,0 Q 6.2,5.85 7.25,6.05 L 7.4,6.55 7.3,7.05 7.2,7.15 6.8,7.2 Q 6.2,7.2 6.2,6.5"
         fill="#6b6b6b"
         fill-rule="evenodd"
         stroke="none"
         id="path42" />
      <path
         d="M 1.9,4.4 V 4.2 Q 2,3.15 2.6,2.55 L 3.4,2.05 4.95,1.95 5.5,2 6.35,2.2 V 2.35 Q 6.35,3 5.15,3.8 L 5.05,3.9 Q 4.8,3.65 4.3,3.6 3.45,3.55 3.45,4.35 L 3.5,4.6 2.8,4.65 1.9,4.4"
         fill="#e7e7e7"
         fill-rule="evenodd"
         stroke="none"
         id="path43" />
      <path
         d="M 1.9,4.4 2.8,4.65 3.5,4.6 q 0.05,0.55 0.75,0.55 0.9,0 0.9,-0.85 L 5.05,3.9 5.15,3.8 Q 6.35,3 6.35,2.35 V 2.2 q 2.75,0.85 2.75,3.45 0,0.6 -0.75,1.5 -0.8,1 -1.75,1.35 H 5.05 Q 2.75,7.85 2.15,6.8 1.85,6.3 1.85,4.9 L 1.9,4.4 m 4.3,2.1 q 0,0.7 0.6,0.7 L 7.2,7.15 7.3,7.05 7.4,6.55 7.25,6.05 Q 6.2,5.85 6.2,6.5 m -2.15,0 q 0,0.7 0.6,0.7 L 5.05,7.15 5.15,7.05 5.25,6.55 5.1,6.05 4.15,6.1 4.05,6.5 M 5.8,4.35 5.85,4.7 6.65,5.2 7.15,5 q 0.4,-0.25 0.4,-0.65 0,-0.8 -0.85,-0.8 -0.9,0 -0.9,0.8"
         fill="#b6b6b6"
         fill-rule="evenodd"
         stroke="none"
         id="path44" />
    </g>
  </defs>
</svg>
