<?xml version="1.0" encoding="UTF-8" standalone="no"?>
<svg
   ffdec:objectType="frame"
   height="75.75"
   width="64.199997"
   version="1.1"
   id="svg15"
   sodipodi:docname="2.svg"
   xmlns:inkscape="http://www.inkscape.org/namespaces/inkscape"
   xmlns:sodipodi="http://sodipodi.sourceforge.net/DTD/sodipodi-0.dtd"
   xmlns:xlink="http://www.w3.org/1999/xlink"
   xmlns="http://www.w3.org/2000/svg"
   xmlns:svg="http://www.w3.org/2000/svg"
   xmlns:ffdec="https://www.free-decompiler.com/flash">
  <sodipodi:namedview
     id="namedview15"
     pagecolor="#ffffff"
     bordercolor="#000000"
     borderopacity="0.25"
     inkscape:showpageshadow="2"
     inkscape:pageopacity="0.0"
     inkscape:pagecheckerboard="0"
     inkscape:deskcolor="#d1d1d1"
     fit-margin-top="5"
     fit-margin-left="5"
     fit-margin-right="5"
     fit-margin-bottom="5" />
  <g
     transform="translate(32.15,37.85)"
     id="g3">
    <use
       ffdec:characterId="1432"
       height="36.400002"
       transform="translate(-26.15,-37.9)"
       width="52.700001"
       xlink:href="#sprite0"
       id="use1" />
    <use
       ffdec:characterId="1434"
       height="67.599998"
       transform="translate(-32.15,-29.7)"
       width="64.199997"
       xlink:href="#shape1"
       id="use2" />
    <use
       ffdec:characterId="69"
       height="1.5"
       id="subplatform1"
       transform="matrix(0.0344,0,0.317,0.86,-22.9566,-0.78)"
       width="1320.3"
       xlink:href="#sprite1" />
    <use
       ffdec:characterId="44"
       height="8"
       transform="matrix(0.866,0.5,-0.5,0.866,-27.1266,5.186)"
       width="10.8"
       xlink:href="#sprite2"
       id="use3" />
  </g>
  <defs
     id="defs15">
    <g
       id="sprite0"
       transform="translate(26.35,18.2)">
      <use
         ffdec:characterId="1431"
         height="36.400002"
         transform="translate(-26.35,-18.2)"
         width="52.700001"
         xlink:href="#shape0"
         id="use4" />
    </g>
    <g
       id="shape0"
       transform="translate(26.35,18.2)">
      <path
         d="m -15.4,16.9 -0.05,0.25 -3,0.6 -0.15,-2.15 v -5.5 l -0.1,-1.95 h -0.35 q -1.8,0 -2.35,-1.05 L -21.55,6 -21.3,4.15 Q -20.85,3.2 -19.75,3.1 V 3 q -4.3,-0.1 -5.85,-2.45 -0.75,-1.15 -0.75,-2.85 0,-7.15 6.65,-11.95 2.7,-1.95 5.25,-2.7 l 1.35,-0.65 5.15,-0.55 h 5.6 l 2.35,0.1 2.35,-0.1 h 5.6 l 5.15,0.55 1.35,0.65 q 2.55,0.75 5.25,2.7 6.65,4.8 6.65,11.95 0,1.7 -0.75,2.85 Q 23.95,3 19.35,3 l -0.8,-0.05 0.3,2.45 -0.25,4.7 v 5.5 l -0.2,2.6 -1.1,-0.4 -1.25,-0.15 -0.55,-0.15 -0.05,-0.6 -0.1,-1.2 q -0.15,-2.7 0,-5.65 L 14.95,5.5 14.9,5 q 0,-1.45 0.15,-2.4 H 3 2.6 -15.05 l 0.1,0.5 0.05,1.9 -0.1,1 -0.35,4.05 q 0.15,2.95 0,5.65 l -0.05,1.2 M 20.7,-8.95 20.1,-9.7 19.85,-10 l -0.7,-0.75 q -2.3,-2.25 -5.75,-3.9 l -3.8,-1 H 7.95 2.35 L 0,-15.7 l -2.35,0.05 h -5.6 -1.65 l -3.8,1 q -4.05,1.95 -6.45,4.65 -1.8,1.95 -2.6,4.15 -0.65,1.75 -0.65,3.65 0,1.1 1,1.85 1.05,0.75 2.9,0.75 l 1.55,-0.35 h 35.3 L 19.2,0.4 q 1.85,0 2.9,-0.75 1,-0.75 1,-1.85 0,-3.65 -2.4,-6.75 m -39.35,11.9 -0.05,0.25 -0.05,0.3 0.05,0.3 0.1,-0.55 0.05,-0.3 h -0.1"
         fill="#9a9a9a"
         fill-rule="evenodd"
         stroke="none"
         id="path4" />
      <path
         d="m -22.45,-5.85 q 0.8,-2.2 2.6,-4.15 2.4,-2.7 6.45,-4.65 l 3.8,-1 h 1.65 5.6 L 0,-15.7 l 2.35,0.05 h 5.6 1.65 l 3.8,1 q 3.45,1.65 5.75,3.9 l 0.7,0.75 0.25,0.3 0.6,0.75 Q 20.4,-7.6 17.55,-6.7 L 15.85,-6 Q 13.2,-5.1 2.4,-3.3 H -3.65 L -17.7,-4.65 q -3.4,-0.35 -4.75,-1.2"
         fill="#bdbdbd"
         fill-rule="evenodd"
         stroke="none"
         id="path5" />
      <path
         d="m -15,6 0.1,-1 -0.05,-1.9 -0.1,-0.5 H 2.6 3 15.05 Q 14.9,3.55 14.9,5 L 14.95,5.5 13.7,5.9 6.45,7 H -8.8 Q -12.3,6.7 -15,6 M 20.7,-8.95 q 2.4,3.1 2.4,6.75 0,1.1 -1,1.85 Q 21.05,0.4 19.2,0.4 L 17.65,0.05 h -35.3 L -19.2,0.4 q -1.85,0 -2.9,-0.75 -1,-0.75 -1,-1.85 0,-1.9 0.65,-3.65 1.35,0.85 4.75,1.2 L -3.65,-3.3 H 2.4 Q 13.2,-5.1 15.85,-6 l 1.7,-0.7 q 2.85,-0.9 3.15,-2.25 m -39.35,11.9 h 0.1 l -0.05,0.3 -0.1,0.55 -0.05,-0.3 0.05,-0.3 0.05,-0.25"
         fill="#b6b6b6"
         fill-rule="evenodd"
         stroke="none"
         id="path6" />
      <path
         d="m -15.4,16.9 0.05,-1.2 q 0.15,-2.7 0,-5.65 L -15,6 q 2.7,0.7 6.2,1 H 6.45 l 7.25,-1.1 1.25,-0.4 0.4,4.55 q -0.15,2.95 0,5.65 l 0.1,1.2 L 8.1,17.25 4.75,17.75 3.5,17.2 q -0.3,0 -0.7,0.3 L 1.95,17.75 1.25,17.5 0.55,17.25 q -0.6,0 -1.1,0.5 -0.45,0.45 -1.15,0.45 -0.75,0 -1.4,-0.8 l -4,0.15 -0.65,0.2 q -0.65,0 -1.05,-0.4 l -5.15,-0.05 q -0.9,0.1 -1.45,-0.4"
         fill="#c7c7c7"
         fill-rule="evenodd"
         stroke="none"
         id="path7" />
    </g>
    <g
       id="shape1"
       transform="translate(32.15,29.7)">
      <path
         d="M 2.15,-3.9 5.6,-3.95 h 1.15 l 9.95,-0.1 q 7.55,1.55 11.85,7.2 3.5,4.55 3.5,9.3 0,4.45 -5.05,4.95 H 24.45 Q 24.3,19.05 22,21.25 18.65,24.4 13.55,24.4 l -2.35,-0.05 -0.15,0.2 q -0.5,0.75 -0.5,1.2 0,3.15 3.05,4.85 3.05,1.7 3.05,4.15 0,1.5 -0.2,1.85 -0.55,1 -3,1.3 L -1.6,37.85 h -1.5 l -10.45,0.05 q -2.45,-0.3 -3,-1.3 -0.2,-0.35 -0.2,-1.85 0,-2.45 3.05,-4.15 3.05,-1.7 3.05,-4.85 0,-0.45 -0.5,-1.2 l -0.15,-0.2 -2.35,0.05 q -5.1,0 -8.45,-3.15 -2.3,-2.2 -2.45,-3.85 h -2.55 q -5.05,-0.5 -5.05,-4.95 0,-4.75 3.5,-9.3 4.3,-5.65 11.85,-7.2 l 10,0.1 h 1.15 0.3 l 3.15,0.05 h 2.15 2.2 M -27.15,7 q -1.8,2.85 -1.8,5.35 0,0.85 0.55,1.25 0.7,0.5 2.65,0.65 l 21.2,0.05 h 4.5 4.55 l 21.15,-0.05 q 1.95,-0.15 2.65,-0.65 0.55,-0.4 0.55,-1.25 0,-3.5 -3.45,-7.7 L 25.1,4.3 q -4,-4.65 -9.6,-5.1 h -31.1 q -5.8,0.45 -9.9,5.45 L -27.15,7 m 43.7,13.5 1.2,-0.35 0.35,-0.1 0.25,-0.1 0.8,-0.9 0.05,-0.05 0.35,-0.45 0.3,-0.65 -0.1,-0.5 H 9.8 l -0.05,0.05 -0.5,0.6 -0.45,0.6 -0.35,0.4 -0.35,0.4 -0.8,0.9 L 7.2,20.3 H 7.15 L 7.05,20.25 V 20.2 H 6.8 L 6.9,19.55 V 19.5 19.05 19 L 6.95,18.7 V 18.3 18.15 18.1 L 6.9,18 V 17.95 L 6.6,17.4 4.5,17.35 H 1.8 -0.05 l -19.8,0.05 -0.1,0.5 0.7,1.15 0.8,0.9 q 1.75,0.65 7.05,1.7 h 0.2 l 3.5,0.65 Q -9.05,21 -9.05,20.35 V 20.3 l 0.35,-0.65 0.15,-0.05 1.35,0.9 1.8,1.05 q 1.1,0.6 1.7,1.05 l 0.75,0.7 -0.25,0.65 -0.5,0.15 H -3.85 L -4.9,24 -5.2,23.9 -6.15,23.5 -8.7,24 l 0.25,0.5 0.05,0.1 0.15,1.65 0.15,2.2 q 0,1.3 -1.65,2.6 l -2.1,1.65 -1.95,1.6 h -0.05 l 1.15,0.8 8.75,0.05 h 0.85 0.55 1.35 0.4 0.75 0.8 0.4 H 3 3.9 4.85 L 12.6,35.1 13.75,34.3 11.1,32.2 10.65,32 8.35,31 Q 4.4,29.3 -0.5,28.3 L -0.95,28 q 4.65,-0.6 9.1,1.25 L 8,28.45 8.2,26.1 v -0.05 l 0.1,-1.4 V 24.6 L 8.6,24 7.05,23.75 6.6,23.65 6.65,23.6 6.7,23.55 l 0.7,-0.6 0.55,-0.7 3.15,-0.6 5.45,-1.15 m -14.1,1.9 0.65,-0.1 0.75,-0.35 0.2,-0.1 Q 4.7,21.45 5.1,21.4 h 0.05 l 0.1,-0.05 0.1,0.3 q 0,0.5 -0.7,1.05 l -0.1,0.05 -0.15,0.1 -0.9,0.5 -0.7,0.3 -0.25,0.15 -0.25,0.05 -0.2,0.1 H 2 L 1.15,24.1 0.75,24 0.4,23.85 -0.65,22.9 -0.85,22.7 -1.7,21.6 -1.85,21.4 -1.7,20.75 q 0.25,-0.3 0.95,0 L -0.3,21 q 2.2,1.4 2.65,1.4 h 0.1"
         fill="#6b6b6b"
         fill-rule="evenodd"
         stroke="none"
         id="path8" />
      <path
         d="m 25.1,4.3 0.3,0.35 q 3.45,4.2 3.45,7.7 0,0.85 -0.55,1.25 -0.7,0.5 -2.65,0.65 L 4.5,14.3 h -4.55 -4.5 l -21.2,-0.05 q -1.95,-0.15 -2.65,-0.65 -0.55,-0.4 -0.55,-1.25 0,-2.5 1.8,-5.35 1.6,1.3 6.15,1.75 L -3.85,10.3 H 9.7 q 4.9,-0.2 9.9,-2 5.35,-1.9 5.5,-4 m -36.5,17.35 q -5.3,-1.05 -7.05,-1.7 l -0.8,-0.9 -0.7,-1.15 0.1,-0.5 19.8,-0.05 H 1.8 4.5 l 2.1,0.05 0.3,0.55 V 18 l 0.05,0.1 v 0.05 0.15 0.4 L 6.9,19 v 0.05 0.45 0.05 L 6.8,20.2 h 0.25 v 0.05 l 0.1,0.05 H 7.2 l 0.1,0.05 0.8,-0.9 0.35,-0.4 0.35,-0.4 0.45,-0.6 0.5,-0.6 0.05,-0.05 h 9.95 l 0.1,0.5 -0.3,0.65 -0.35,0.45 -0.05,0.05 -0.8,0.9 -0.25,0.1 -0.35,0.1 -1.2,0.35 0.4,-0.4 -3.45,-0.7 -1.3,-0.35 -0.5,0.05 -3.25,0.35 -1.7,2.1 -1.4,1.3 2.05,0.1 -0.7,0.6 L 6.65,23.6 6.6,23.65 7.05,23.75 8.6,24 8.3,24.6 v 0.05 l -0.1,1.4 v 0.05 l -5.85,0.7 -10.3,-0.65 -0.3,0.1 L -8.4,24.6 -8.45,24.5 -8.7,24 l 2.55,-0.5 0.95,0.4 0.3,0.1 1.05,0.1 h 0.15 l 0.5,-0.15 0.25,-0.65 -0.75,-0.7 q -0.6,-0.45 -1.7,-1.05 l -1.8,-1.05 -1.35,-0.9 -0.15,0.05 -0.35,0.65 -0.4,-0.05 -1.85,-0.1 q 0.15,0.25 0.15,0.55 l -0.25,0.95 M 2.45,22.4 4.3,20.55 q 0.4,-0.8 0.4,-1.4 L 4.6,18.55 H 1.25 L 1,18.65 0.45,19.3 l -1.2,1.45 q -0.7,-0.3 -0.95,0 l -0.15,0.65 0.15,0.2 0.85,1.1 0.2,0.2 L 0.4,23.85 0.75,24 1.15,24.1 2,23.95 h 0.1 l 0.2,-0.1 0.25,-0.05 0.25,-0.15 0.7,-0.3 0.9,-0.5 0.15,-0.1 0.1,-0.05 q 0.7,-0.55 0.7,-1.05 l -0.1,-0.3 -0.1,0.05 H 5.1 q -0.4,0.05 -1.05,0.45 l -0.2,0.1 -0.75,0.35 -0.65,0.1 m 8.2,9.6 0.45,0.2 2.65,2.1 -1.15,0.8 -7.75,0.05 H 3.9 3 1.15 0.75 -0.05 -0.8 -1.2 -2.55 -3.1 -3.95 l -8.75,-0.05 -1.15,-0.8 h 0.05 l 1.95,-1.6 3.9,0.2 L 1.5,32.75 10.65,32"
         fill="#a2a2a2"
         fill-rule="evenodd"
         stroke="none"
         id="path9" />
      <path
         d="m -11.4,21.65 0.25,-0.95 q 0,-0.3 -0.15,-0.55 l 1.85,0.1 0.4,0.05 v 0.05 q 0,0.65 1.35,1.95 l -3.5,-0.65 h -0.2 m 3.15,4.6 0.3,-0.1 10.3,0.65 5.85,-0.7 -0.2,2.35 0.15,0.8 Q 3.7,27.4 -0.95,28 l 0.45,0.3 q 4.9,1 8.85,2.7 l 2.3,1 -9.15,0.75 -9.45,0.15 -3.9,-0.2 2.1,-1.65 q 1.65,-1.3 1.65,-2.6 l -0.15,-2.2 m 15.65,-3.3 -2.05,-0.1 1.4,-1.3 1.7,-2.1 3.25,-0.35 0.5,-0.05 1.3,0.35 3.45,0.7 -0.4,0.4 -5.45,1.15 -3.15,0.6 -0.55,0.7 M -0.75,20.75 0.45,19.3 1,18.65 1.25,18.55 H 4.6 l 0.1,0.6 q 0,0.6 -0.4,1.4 L 2.45,22.4 H 2.35 Q 1.9,22.4 -0.3,21 l -0.45,-0.25"
         fill="#c4c4c4"
         fill-rule="evenodd"
         stroke="none"
         id="path10" />
      <path
         d="m -27.15,7 1.65,-2.35 q 4.1,-5 9.9,-5.45 h 31.1 q 5.6,0.45 9.6,5.1 -0.15,2.1 -5.5,4 -5,1.8 -9.9,2 H -3.85 L -21,8.75 Q -25.55,8.3 -27.15,7"
         fill="#b1b1b1"
         fill-rule="evenodd"
         stroke="none"
         id="path11" />
      <path
         d="M 4.3,-27.65 H 4 l -4.05,-0.1 -4.05,0.1 h -0.3 l 1.45,1.5 h 5.8 l 1.45,-1.5 m 0.85,-1.9 0.65,0.3 0.25,0.6 -0.15,0.55 v 0.15 q 0,1.05 -1.1,2.05 -1.5,1.45 -4.45,1.6 H 0.1 -0.2 -0.45 q -2.95,-0.15 -4.45,-1.6 -1.1,-1 -1.1,-2.05 v -0.15 l -0.15,-0.55 0.25,-0.6 q 0.2,-0.3 0.65,-0.3 h 1.15 l 4.05,0.1 4.05,-0.1 h 1.15 m 3.6,2.15 q -0.3,-0.4 -0.3,-0.85 0,-1.45 1.45,-1.45 1.45,-0.05 1.45,1.45 l -0.2,0.65 q -0.35,0.75 -1.2,0.75 -0.75,0 -1.2,-0.55 m -20.2,-0.85 q 0,-1.5 1.45,-1.45 1.45,0 1.45,1.45 0,0.45 -0.3,0.85 -0.45,0.55 -1.2,0.55 -0.85,0 -1.2,-0.75 l -0.2,-0.65"
         fill="#9a9a9a"
         fill-rule="evenodd"
         stroke="none"
         id="path12" />
      <path
         d="m 4.3,-27.65 -1.45,1.5 h -5.8 l -1.45,-1.5 h 0.3 l 4.05,-0.1 4.05,0.1 h 0.3"
         fill="#cccccc"
         fill-rule="evenodd"
         stroke="none"
         id="path13" />
    </g>
    <g
       id="sprite1"
       transform="translate(660.25,0.5)">
      <use
         ffdec:characterId="68"
         height="1.5"
         transform="translate(-660.25,-0.5)"
         width="1320.3"
         xlink:href="#shape2"
         id="use13" />
    </g>
    <g
       id="shape2"
       transform="translate(660.25,0.5)">
      <path
         d="m 659.3,-0.5 0.55,0.25 0.2,0.5 -0.2,0.55 L 659.3,1 H -659.5 l -0.5,-0.2 -0.25,-0.55 0.25,-0.5 0.5,-0.25 H 659.3"
         fill="#ffff00"
         fill-opacity="0"
         fill-rule="evenodd"
         stroke="none"
         id="path14" />
    </g>
    <g
       id="sprite2"
       transform="translate(5.4,4)">
      <use
         ffdec:characterId="43"
         height="8"
         transform="translate(-5.4,-4)"
         width="10.8"
         xlink:href="#shape3"
         id="use14" />
    </g>
    <g
       id="shape3"
       transform="translate(5.4,4)">
      <path
         d="m 2.9,-0.35 q 0,-1.25 1.25,-1.25 1.25,0 1.25,1.2 0,1.3 -1.25,1.3 Q 3.6,0.9 3.25,0.5 2.9,0.15 2.9,-0.35 m 0.35,-2.3 q 0,0.55 -0.35,0.9 -0.4,0.45 -1,0.45 -1.35,0 -1.35,-1.4 0,-1.3 1.35,-1.3 1.35,0 1.35,1.35 m -3.1,1.9 h 0.2 q 2.6,0.1 2.6,2.8 l -0.3,1 Q 2.05,4 0.45,4 H 0.35 0.15 0.1 -0.45 q -1.6,0 -2.2,-0.95 l -0.3,-1 q 0,-2.8 2.8,-2.8 h 0.3 M -1.55,-4 q 1.35,0 1.35,1.35 0,0.55 -0.4,0.9 -0.4,0.45 -0.95,0.45 -1.4,0 -1.4,-1.4 0,-1.3 1.4,-1.3 m -2.6,2.4 q 1.25,0 1.25,1.25 0,0.5 -0.35,0.85 -0.35,0.4 -0.9,0.4 -1.25,0 -1.25,-1.3 0,-1.2 1.25,-1.2"
         fill="#6b6b6b"
         fill-rule="evenodd"
         stroke="none"
         id="path15" />
    </g>
  </defs>
</svg>
