<?xml version="1.0" encoding="UTF-8" standalone="no"?>
<svg
   ffdec:objectType="frame"
   height="19.450001"
   width="31.85"
   version="1.1"
   id="svg2"
   sodipodi:docname="1.svg"
   xmlns:inkscape="http://www.inkscape.org/namespaces/inkscape"
   xmlns:sodipodi="http://sodipodi.sourceforge.net/DTD/sodipodi-0.dtd"
   xmlns:xlink="http://www.w3.org/1999/xlink"
   xmlns="http://www.w3.org/2000/svg"
   xmlns:svg="http://www.w3.org/2000/svg"
   xmlns:ffdec="https://www.free-decompiler.com/flash">
  <sodipodi:namedview
     id="namedview2"
     pagecolor="#ffffff"
     bordercolor="#000000"
     borderopacity="0.25"
     inkscape:showpageshadow="2"
     inkscape:pageopacity="0.0"
     inkscape:pagecheckerboard="0"
     inkscape:deskcolor="#d1d1d1"
     fit-margin-top="5"
     fit-margin-left="5"
     fit-margin-right="5"
     fit-margin-bottom="5" />
  <g
     transform="translate(15.925,9.25)"
     id="g1">
    <use
       ffdec:characterId="4191"
       height="19.450001"
       transform="translate(-15.95,-9.25)"
       width="31.85"
       xlink:href="#shape0"
       id="use1" />
  </g>
  <defs
     id="defs2">
    <g
       id="shape0"
       transform="translate(15.95,9.25)">
      <path
         d="M 2.5,7.3 0,7.35 -2.5,7.3 -5.55,7.7 -5.7,3.95 0,3.85 5.7,3.95 5.55,7.7 2.5,7.3 M -8.25,2.6 V 7.55 H -12.7 V 4 l 0.35,-2.2 q 0.2,-1.15 1.3,-1.9 2.45,0.15 2.75,1.05 l 0.05,1.65 m 8.3,-9 H 0.7 l 1,0.05 q 2.75,0.2 4.75,1.35 l 1.25,2.1 0.25,0.5 -0.5,0.25 Q 6.6,-1.1 6.1,1.15 L 2.35,0.8 0,0.65 -2.35,0.8 -6.1,1.15 Q -6.6,-1.1 -7.45,-2.15 L -7.95,-2.4 -7.7,-2.9 -6.45,-5 q 2,-1.2 4.8,-1.35 L -0.7,-6.4 H 0.05 M 12.7,7.55 H 8.25 V 2.6 L 8.3,0.95 q 0.3,-0.9 2.75,-1.05 1.1,0.75 1.3,1.9 L 12.7,4 v 3.55"
         fill="#cccccc"
         fill-rule="evenodd"
         stroke="none"
         id="path1" />
      <path
         d="M 0,-9.2 1.55,-9.25 3.1,-9.2 q 2.85,-0.2 5.5,2.3 2.1,2 2.3,3.6 2.7,-0.1 3.95,3.2 0.85,2.35 0.85,6.45 0.45,1.2 0,2.25 -0.45,1.1 -1.95,1.6 H -13.7 q -1.55,-0.5 -2,-1.6 -0.45,-1.05 0,-2.25 0,-4.1 0.85,-6.45 1.25,-3.3 3.95,-3.2 0.2,-1.6 2.3,-3.6 2.65,-2.5 5.5,-2.3 L -1.55,-9.25 0,-9.2 m 0.05,2.8 H -0.7 l -0.95,0.05 q -2.8,0.15 -4.8,1.35 l -1.25,2.1 -0.25,0.5 0.5,0.25 q 0.85,1.05 1.35,3.3 L -2.35,0.8 0,0.65 2.35,0.8 6.1,1.15 Q 6.6,-1.1 7.45,-2.15 L 7.95,-2.4 7.7,-2.9 6.45,-5 Q 4.45,-6.15 1.7,-6.35 L 0.7,-6.4 H 0.05 m -8.3,9 -0.05,-1.65 q -0.3,-0.9 -2.75,-1.05 -1.1,0.75 -1.3,1.9 L -12.7,4 v 3.55 h 4.45 V 2.6 M 2.5,7.3 5.55,7.7 5.7,3.95 0,3.85 -5.7,3.95 -5.55,7.7 -2.5,7.3 0,7.35 2.5,7.3 M 12.7,7.55 V 4 L 12.35,1.8 Q 12.15,0.65 11.05,-0.1 8.6,0.05 8.3,0.95 L 8.25,2.6 v 4.95 h 4.45"
         fill="#6b6b6b"
         fill-rule="evenodd"
         stroke="none"
         id="path2" />
    </g>
  </defs>
</svg>
