<?xml version="1.0" encoding="UTF-8" standalone="no"?>
<svg
   ffdec:objectType="frame"
   height="82.050003"
   width="72.199997"
   version="1.1"
   id="svg23"
   sodipodi:docname="2.svg"
   xmlns:inkscape="http://www.inkscape.org/namespaces/inkscape"
   xmlns:sodipodi="http://sodipodi.sourceforge.net/DTD/sodipodi-0.dtd"
   xmlns:xlink="http://www.w3.org/1999/xlink"
   xmlns="http://www.w3.org/2000/svg"
   xmlns:svg="http://www.w3.org/2000/svg"
   xmlns:ffdec="https://www.free-decompiler.com/flash">
  <sodipodi:namedview
     id="namedview23"
     pagecolor="#ffffff"
     bordercolor="#000000"
     borderopacity="0.25"
     inkscape:showpageshadow="2"
     inkscape:pageopacity="0.0"
     inkscape:pagecheckerboard="0"
     inkscape:deskcolor="#d1d1d1"
     fit-margin-top="5"
     fit-margin-left="5"
     fit-margin-right="5"
     fit-margin-bottom="5" />
  <g
     transform="translate(36,41.9)"
     id="g3">
    <use
       ffdec:characterId="1289"
       height="19.35"
       transform="translate(-34.8,-42.05)"
       width="69.800003"
       xlink:href="#sprite0"
       id="use1" />
    <use
       ffdec:characterId="1290"
       height="68.849998"
       transform="translate(-36,-28.7)"
       width="72.199997"
       xlink:href="#shape1"
       id="use2" />
    <use
       ffdec:characterId="44"
       height="8"
       transform="matrix(0.866,0.5,-0.5,0.866,-27.1766,7.886)"
       width="10.8"
       xlink:href="#sprite2"
       id="use3" />
  </g>
  <defs
     id="defs23">
    <g
       id="sprite0"
       transform="translate(34.9,9.7)">
      <use
         ffdec:characterId="1288"
         height="19.35"
         transform="translate(-34.9,-9.7)"
         width="69.800003"
         xlink:href="#shape0"
         id="use4" />
      <use
         ffdec:characterId="1285"
         height="4.0999999"
         transform="translate(-2.65,-4.8)"
         width="7.5500002"
         xlink:href="#sprite1"
         id="use5" />
    </g>
    <g
       id="shape0"
       transform="translate(34.9,9.7)">
      <path
         d="m 5.45,-4.45 h -10.6 l 0.2,2.45 v 0.3 H 5.15 5.4 L 5.35,-2 5.3,-2.2 l 0.05,-1.35 0.1,-0.9 m -11.3,0 v -0.1 L -5.95,-5 -5.9,-5.3 H 6.2 L 6.4,-4.95 6.2,-4.7 6.25,-4.5 6.4,-3 V -2.25 -2 L 6.35,-1.25 6.4,-1.2 6.25,-0.7 5.85,-0.6 H 5.8 L 5.15,-0.5 H -5.2 l -0.05,-0.05 -0.2,0.1 -0.45,-0.4 -0.05,-0.65 V -2 -2.25 -2.85 L -6,-3.5 -5.95,-3.95 -5.9,-4.4 -5.85,-4.45 m 22.3,-0.05 0.5,-0.2 1.05,-0.15 1.5,0.15 0.5,0.2 q 0.8,0.45 0.8,1.55 L 20.65,-2 20.2,-1.2 19.45,-0.5 q -0.7,0.4 -1.6,0.4 -0.95,0 -1.55,-0.4 -0.4,-0.2 -0.65,-0.55 -0.4,-0.45 -0.5,-0.95 0,-1.85 1.3,-2.5 m 8.55,0 0.4,-0.2 1.15,-0.2 1.2,0.2 0.4,0.2 0.6,0.55 0.5,0.95 -0.1,1 q -0.3,1.05 -1.2,1.5 L 26.4,-0.15 Q 25.1,-0.1 24.45,-0.5 23.6,-0.95 23.6,-2 v -0.05 q 0,-0.9 0.6,-1.75 L 25,-4.5 m 7.3,-0.05 0.2,-1.8 0.05,-0.4 Q 31,-6.55 28.3,-6.7 h -56.5 q -2.8,0.15 -4.35,-0.05 l 0.2,1.15 0.05,0.65 v 0.25 l 0.05,0.55 0.05,2.55 v 0.3 2.25 l 64.4,0.2 V 1.05 -0.9 -0.95 l 0.05,-3.2 V -4.2 l 0.05,-0.35 m -59.95,0.1 1.65,-0.4 2.05,0.4 0.1,0.05 q 0.5,0.35 0.6,1 l 0.05,0.45 q 0,0.5 -0.15,0.95 l -0.25,0.5 -0.2,0.3 -0.2,0.25 -0.2,0.2 q -0.75,0.65 -1.95,0.65 -1.25,0 -2,-0.7 l -0.2,-0.25 -0.1,-0.15 -0.4,-0.8 v -0.1 q 0.05,-1.35 0.8,-2.05 l 0.3,-0.2 0.1,-0.1 m 8.6,0 q 0.65,-0.45 1.6,-0.45 1,0 1.65,0.45 l 0.55,0.5 0.5,0.95 -0.1,1 -0.35,0.8 q -0.7,1 -2.4,1.05 -1.95,0.1 -2.5,-0.85 l -0.1,-0.2 -0.2,-0.8 v -0.05 q 0,-0.7 0.4,-1.4 l 0.2,-0.35 0.75,-0.65 M 16.5,-2 l 0.15,0.2 q 0.4,0.45 0.9,0.45 0.95,0 1.55,-0.65 l 0.1,-0.15 0.25,-0.35 0.2,-0.5 Q 18.3,-3.95 17.25,-3.55 16.3,-3.2 16.3,-2.45 L 16.5,-2 m 11.4,-1 -0.15,-0.2 -0.9,-0.45 q -1.05,0 -1.65,0.8 L 24.75,-2 25.2,-1.7 q 1.1,0.6 1.95,0.25 0.55,-0.2 0.8,-0.55 L 28.1,-2.55 27.9,-3 m -60.05,8.5 -0.05,0.3 q -0.2,3.85 -1.3,3.85 -1.1,0 -1.35,-4.05 V 1.7 l 0.1,-5.7 0.05,-0.7 v -0.55 l 0.05,-1.9 0.15,-0.6 v -0.4 q -0.2,-0.6 0.6,-1 l 0.35,-0.1 0.05,-0.2 0.1,0.15 6,-0.25 h 54.8 l 6,0.25 0.1,-0.15 0.05,0.2 0.35,0.1 q 0.8,0.4 0.6,1 v 0.4 l 0.15,0.6 0.05,1.9 v 0.55 l 0.05,0.7 0.1,5.7 v 3.9 q -0.25,4.05 -1.35,4.05 -1.1,0 -1.3,-3.7 V 5.8 L 32.15,3.85 V 3.05 3 L 32.2,2.4 V 2.2 L 27.6,2.3 -32.15,2.4 V 3.55 3.8 5.5 m 7.7,-8.6 q -1.25,-0.85 -2.25,-0.45 h -0.05 q -0.75,0.3 -0.9,0.8 l -0.05,0.25 v 0.05 l 0.15,0.4 0.2,0.2 v 0.05 q 0.4,0.45 0.9,0.45 l 0.6,-0.05 q 0.55,-0.15 0.95,-0.6 l 0.1,-0.15 0.35,-0.6 0.1,-0.25 -0.1,-0.1 m 8.55,0.4 -0.35,-0.5 q -0.4,-0.45 -0.9,-0.45 -1.05,0 -1.65,0.8 l -0.15,0.2 -0.3,0.65 q 1.35,0.95 2.4,0.55 0.55,-0.2 0.8,-0.55 0.15,-0.25 0.15,-0.55 V -2.7"
         fill="#9a9a9a"
         fill-rule="evenodd"
         stroke="none"
         id="path5" />
      <path
         d="M -24.45,-2.75 V -3.1 l 0.1,0.1 -0.1,0.25"
         fill="#cbcbcb"
         fill-rule="evenodd"
         stroke="none"
         id="path6" />
      <path
         d="M 6.25,-4.5 6.2,-4.7 6.4,-4.95 6.2,-5.3 H -5.9 l -0.05,0.3 0.1,0.45 v 0.1 h -9.95 q -0.65,-0.45 -1.65,-0.45 -0.95,0 -1.6,0.45 h -4.9 l -2.05,-0.4 -1.65,0.4 h -2.3 L -32.3,-4.7 v -0.25 l -0.05,-0.65 -0.2,-1.15 q 1.55,0.2 4.35,0.05 h 56.5 q 2.7,0.15 4.25,-0.05 l -0.05,0.4 -0.2,1.8 -0.2,0.05 h -3.95 l -0.4,-0.2 -1.2,-0.2 -1.15,0.2 -0.4,0.2 H 20 L 19.5,-4.7 18,-4.85 16.95,-4.7 16.45,-4.5 H 6.25 m -0.8,0.05 -0.1,0.9 L 5.3,-2.2 5.35,-2 5.4,-1.7 H 5.15 -4.95 V -2 l -0.2,-2.45 H 5.45 M 25.2,-1.7 24.75,-2 25.2,-2.85 q 0.6,-0.8 1.65,-0.8 l 0.9,0.45 0.15,0.2 -1.35,0.7 -0.65,0.3 -0.7,0.3 M -32.15,3.8 V 3.55 2.4 L 27.6,2.3 h 4.5 L 32.2,2.4 32.15,3 v 0.05 0.8 L 32.1,3.9 H 28.35 27.1 L -32.15,3.8 m 4.8,-5.65 -0.2,-0.2 -0.15,-0.4 V -2.5 l 0.05,-0.25 q 0.15,-0.5 0.9,-0.8 h 0.05 q 1,-0.4 2.25,0.45 v 0.35 l -0.35,0.6 -0.3,0.15 -1.65,0.2 -0.6,-0.05 m 8.4,-0.8 0.15,-0.2 q 0.6,-0.8 1.65,-0.8 0.5,0 0.9,0.45 l 0.35,0.5 -0.4,0.55 -0.2,0.15 q -0.4,0.25 -0.8,0.25 L -18.5,-2 q -0.4,-0.2 -0.45,-0.65"
         fill="#a2a2a2"
         fill-rule="evenodd"
         stroke="none"
         id="path7" />
      <path
         d="m 6.25,-4.5 h 10.2 q -1.3,0.65 -1.3,2.5 0.1,0.5 0.5,0.95 0.25,0.35 0.65,0.55 0.6,0.4 1.55,0.4 0.9,0 1.6,-0.4 L 20.2,-1.2 20.65,-2 20.8,-2.95 q 0,-1.1 -0.8,-1.55 h 5 l -0.8,0.7 q -0.6,0.85 -0.6,1.75 V -2 q 0,1.05 0.85,1.5 0.65,0.4 1.95,0.35 l 1.55,-0.35 q 0.9,-0.45 1.2,-1.5 l 0.1,-1 -0.5,-0.95 -0.6,-0.55 h 3.95 l 0.2,-0.05 -0.05,0.35 v 0.05 l -0.05,3.2 v 0.05 1.95 0.1 L -32.2,0.95 V -1.3 -1.6 l -0.05,-2.55 -0.05,-0.55 2.35,0.25 h 2.3 l -0.1,0.1 -0.3,0.2 q -0.75,0.7 -0.8,2.05 V -2 l 0.4,0.8 0.1,0.15 0.2,0.25 q 0.75,0.7 2,0.7 1.2,0 1.95,-0.65 l 0.2,-0.2 0.2,-0.25 0.2,-0.3 0.25,-0.5 q 0.15,-0.45 0.15,-0.95 l -0.05,-0.45 q -0.1,-0.65 -0.6,-1 l -0.1,-0.05 h 4.9 l -0.75,0.65 -0.2,0.35 q -0.4,0.7 -0.4,1.4 V -2 l 0.2,0.8 0.1,0.2 q 0.55,0.95 2.5,0.85 1.7,-0.05 2.4,-1.05 l 0.35,-0.8 0.1,-1 -0.5,-0.95 -0.55,-0.5 h 9.95 L -5.9,-4.4 -5.95,-3.95 -6,-3.5 l 0.05,0.65 v 0.6 0.25 0.5 l 0.05,0.65 0.45,0.4 0.2,-0.1 0.05,0.05 H 5.15 L 5.8,-0.6 H 5.85 L 6.25,-0.7 6.4,-1.2 6.35,-1.25 6.4,-2 V -2.25 -3 L 6.25,-4.5 M 16.5,-2 16.3,-2.45 q 0,-0.75 0.95,-1.1 1.05,-0.4 2.4,0.55 l -0.2,0.5 -0.25,0.35 -0.1,0.15 q -0.6,0.65 -1.55,0.65 -0.5,0 -0.9,-0.45 L 16.5,-2 M 25.2,-1.7 25.9,-2 26.55,-2.3 27.9,-3 28.1,-2.55 27.95,-2 Q 27.7,-1.65 27.15,-1.45 26.3,-1.1 25.2,-1.7 M -32.15,5.5 V 3.8 L 27.1,3.9 h 1.25 3.75 L 32.15,3.85 32.2,5.8 v 0.15 l -1.05,0.2 H 5.55 L 4.8,6.05 -30.7,5.9 -32.15,5.5 M 27.6,2.3 32.2,2.2 V 2.4 L 32.1,2.3 h -4.5 m -54.95,-4.15 0.6,0.05 1.65,-0.2 0.3,-0.15 -0.1,0.15 q -0.4,0.45 -0.95,0.6 l -0.6,0.05 q -0.5,0 -0.9,-0.45 v -0.05 m 8.4,-0.8 q 0.05,0.45 0.45,0.65 l 1.2,0.25 q 0.4,0 0.8,-0.25 l 0.2,-0.15 0.4,-0.55 v 0.15 q 0,0.3 -0.15,0.55 -0.25,0.35 -0.8,0.55 -1.05,0.4 -2.4,-0.55 l 0.3,-0.65"
         fill="#9d9d9d"
         fill-rule="evenodd"
         stroke="none"
         id="path8" />
    </g>
    <g
       id="sprite1"
       transform="translate(3.05,2.15)">
      <use
         ffdec:characterId="1284"
         height="4.0999999"
         transform="translate(-3.05,-2.15)"
         width="7.5500002"
         xlink:href="#text0"
         id="use8" />
    </g>
    <g
       id="text0"
       transform="translate(-68.95,0.8)">
      <g
         transform="translate(68.8)"
         id="g13">
        <use
           fill="#ffffff"
           height="4.0999999"
           transform="matrix(0.0029,0,0,0.0029,0,2)"
           width="7.5500002"
           xlink:href="#font_Team_Meat_font_10"
           id="use9" />
        <use
           fill="#ffffff"
           height="4.0999999"
           transform="matrix(0.0029,0,0,0.0029,0.95,2)"
           width="7.5500002"
           xlink:href="#font_Team_Meat_font_20"
           id="use10" />
        <use
           fill="#ffffff"
           height="4.0999999"
           transform="matrix(0.0029,0,0,0.0029,2.45,2)"
           width="7.5500002"
           xlink:href="#font_Team_Meat_font_:0"
           id="use11" />
        <use
           fill="#ffffff"
           height="4.0999999"
           transform="matrix(0.0029,0,0,0.0029,3.2,2)"
           width="7.5500002"
           xlink:href="#font_Team_Meat_font_00"
           id="use12" />
        <use
           fill="#ffffff"
           height="4.0999999"
           transform="matrix(0.0029,0,0,0.0029,4.7,2)"
           width="7.5500002"
           xlink:href="#font_Team_Meat_font_00"
           id="use13" />
      </g>
    </g>
    <g
       id="font_Team_Meat_font_10">
      <path
         d="m 199.85,-679.05 h -8.1 q -153.45,86.3 -153.45,185.9 0,40.2 24.3,48.35 h 8.15 q 47.65,0 64.55,-48.35 h 8.1 q 0,8.1 -8.1,8.1 -16.25,258.6 -16.25,355.6 -97,36 -97,80.8 0,46.4 48.7,64.85 48.65,-12 97,-24.3 h 80.8 Q 292,-8.1 305,-40.55 v -24 q 0,-24.35 -72.7,-40.55 8.1,-149.6 8.1,-218.35 v -80.8 q 0,-46.75 -8.1,-129.45 8.1,-5.2 8.1,-72.7 -16.2,-72.65 -40.55,-72.65"
         fill-rule="evenodd"
         stroke="none"
         id="path13" />
    </g>
    <g
       id="font_Team_Meat_font_20">
      <path
         d="m 275.8,-670.95 q -258.6,54.5 -258.6,209.9 v 32.45 q 0,44.15 40.55,64.55 h 15.9 q 116.5,-194 194.35,-194 h 24 q 40.55,29.85 40.55,40.55 0,32.45 -48.65,97 Q 65.85,-206 65.85,-64.55 q 0,58.4 48.35,72.65 8.75,0 24.35,-8.1 Q 240.4,-56.8 268,-56.8 407.5,-8.1 429.55,-8.1 h 8.15 q 32.4,-19.8 32.4,-32.45 v -24 Q 466.9,-153.8 259.9,-169.7 h -16.25 l -16.2,7.8 q 4.2,-7.8 8.1,-15.9 210.25,-232.95 210.25,-323.45 v -32.45 q 0,-128.5 -161.9,-137.25 h -8.1"
         fill-rule="evenodd"
         stroke="none"
         id="path14" />
    </g>
    <g
       id="font_Team_Meat_font_:0">
      <path
         d="m 102.85,-169.7 q -28.25,0 -56.45,32.15 0,113.2 72.65,113.2 56.8,0 73,-72.65 0,-52.25 -40.55,-72.7 h -48.65 m 8.1,-218.35 q -43.8,0 -64.55,40.25 v 32.45 q 11.05,80.8 72.65,80.8 62.3,0 73,-72.7 v -32.45 q -28.55,-48.35 -73,-48.35 h -8.1"
         fill-rule="evenodd"
         stroke="none"
         id="path15" />
    </g>
    <g
       id="font_Team_Meat_font_00">
      <path
         d="m 176.5,-347.8 q 0,-104.5 72.65,-194 h 8.15 q 0,18.15 8.1,32.4 73.65,0 88.9,185.95 Q 337.1,-97 289.75,-97 H 208.6 q -32.1,-77.9 -32.1,-153.8 v -97 m 105.1,-315.35 q -71.05,0 -121.3,56.75 -89.25,0 -105.15,428.6 5.85,48.35 16.25,48.35 0,107.4 105.1,153.8 86,0 169.7,-32.45 105.1,-52.9 105.1,-282.95 0,-315.35 -169.7,-372.1"
         fill-rule="evenodd"
         stroke="none"
         id="path16" />
    </g>
    <g
       id="shape1"
       transform="translate(36,28.7)">
      <path
         d="m 27.25,-27.7 -0.1,0.2 h 0.7 l 6.95,0.35 0.1,0.05 0.3,-0.05 q 1,0.1 1,3.8 v 1.6 q -0.05,1.2 -0.55,1.5 v 59.2 l -0.25,0.3 -0.55,0.9 H 28.2 V 40.1 h -4.95 v 0.05 h -46.3 V 40.1 H -28 v 0.05 h -6.65 l -0.55,-0.9 -0.25,-0.3 v -59.2 q -0.5,-0.3 -0.55,-1.5 v -1.6 q 0,-3.7 1,-3.8 l 0.3,0.05 0.1,-0.05 6.95,-0.35 h 0.7 l -0.1,-0.2 q 0,-0.45 1.05,-1 l 16.9,0.05 0.85,0.5 0.2,0.4 v 0.25 h 16.3 v -0.25 l 0.2,-0.4 q 0.25,-0.35 0.85,-0.5 l 16.9,-0.05 q 1.05,0.55 1.05,1 m -9.1,10.75 h -6 l -0.15,-0.6 0.5,-0.4 5.95,0.1 V -17 l -0.3,0.05 m -44.6,3.45 -0.1,0.95 7.7,-0.15 8.3,0.05 H -7.8 L 3.25,-12.7 h 7.9 1.95 5.95 l 7.7,0.15 v -0.05 l -0.05,-0.5 -0.05,-0.5 v -0.1 -0.5 h -53.1 v 0.4 0.1 0.2 m 30.6,-4.45 H 4.55 5 l 3.6,0.1 V -17 l -0.3,0.05 H 1.75 L 1.45,-17 v -0.85 l 1.1,-0.05 0.1,-0.05 h 1.5 m 24.05,4.25 v 0.1 l -0.05,1.05 q -0.05,0.45 -0.45,0.8 l -0.1,0.2 -0.1,0.05 -0.35,0.05 h -54.1 -0.15 l -0.3,-0.1 -0.1,-0.2 -0.45,-0.8 -0.05,-1.05 0.05,-0.8 -0.1,-0.5 v -0.4 l 0.15,-0.1 h 23.1 v -0.05 l 1.4,0.05 h 0.5 3 3.05 0.5 L 5,-15.45 v 0.05 h 23.1 l 0.15,0.1 v 0.4 l -0.1,0.5 0.05,0.3 v 0.4 M 14.5,-2.85 14.25,-2.8 h -28.3 l -0.25,-0.05 v 2.8 l -0.05,0.2 v 2.5 l 0.05,0.2 v 2.8 l 0.25,-0.05 h 28.3 l 0.25,0.05 v -2.8 l 0.05,-0.2 v -2.5 l -0.05,-0.2 v -2.8 m -46.3,-19.6 v 0.5 H 32 v -0.45 -0.05 l -0.05,-0.4 0.05,-1.35 q -8.35,-0.1 -14.1,0.15 h -35.6 q -5.75,-0.25 -14.1,-0.15 l 0.05,1.35 -0.05,0.4 m 1.35,41.8 h 5.6 V 19.2 h 1 v 0.15 h 47.9 V 19.2 h 1 v 0.15 h 7.25 l 0.05,-36.55 -0.05,-0.65 v -0.45 l -0.1,-1.1 H -32 l -0.05,0.85 -0.05,0.7 -0.05,0.65 0.05,36.55 h 1.65 m 52.3,-36.9 0.5,-0.4 5.95,0.1 V -17 l -0.3,0.05 h -6 l -0.15,-0.6 m 10.4,40.1 v -0.3 h 0.05 v -0.7 -0.25 h -64.4 v 0.25 0.7 h 0.05 v 0.3 0.6 l 27.2,0.05 H 0.1 5.05 l 27.2,-0.05 v -0.6 M -15.15,7.1 h -0.2 v -5 h 0.05 V 0.7 h -0.05 v -5 h 30.9 v 5 H 15.5 v 1.4 h 0.05 v 5 H 15.3 -15.15 m 47.4,18.6 V 24.35 L 5.05,24.3 H 0.1 l -32.15,0.05 V 36.6 l 1.35,-0.1 h 4.3 53 q 3.7,-0.15 5.65,0.1 V 25.7 m -60.35,-43.55 5.95,-0.1 0.5,0.4 -0.15,0.6 h -6 L -28.1,-17 v -0.85 m 19.7,0 3.6,-0.1 h 2.35 l 0.15,0.05 1.05,0.05 V -17 l -0.3,0.05 H -8.1 L -8.4,-17 v -0.85 m -3.9,-0.1 0.5,0.4 -0.15,0.6 h -6 l -0.3,-0.05 v -0.85 l 5.95,-0.1"
         fill="#6b6b6b"
         fill-rule="evenodd"
         stroke="none"
         id="path17" />
      <path
         d="m 26.7,-13.1 0.05,0.5 v 0.05 l -7.7,-0.15 H 13.1 11.15 3.25 l -11.05,0.05 h -2.75 l -8.3,-0.05 -7.7,0.15 0.1,-0.95 h 0.05 l 0.4,0.1 52.7,0.3 m 5.3,-9.3 -63.65,-0.05 h -0.15 l 0.05,-0.4 -0.05,-1.35 q 8.35,-0.1 14.1,0.15 H 17.9 Q 23.65,-24.3 32,-24.2 l -0.05,1.35 0.05,0.4 v 0.05 m -62.45,41.75 h -1.65 l -0.05,-36.55 0.05,-0.65 0.05,-0.7 0.05,-0.85 h 64.2 l 0.1,1.1 -62.95,-0.15 0.05,0.3 V -6.6 q 0.15,4.65 0.15,13.9 l -0.05,1.35 0.05,1.4 v 6 2.85 0.45 m -1.6,3.2 v -0.3 h -0.05 v -0.7 -0.25 h 64.4 v 0.25 0.7 h -0.05 v 0.3 h -64.3 M -15.15,7.1 H 15.3 l 0.65,0.8 q 0,0.5 -1.05,1.05 H -14.15 Q -15.3,8.3 -15.3,7.75 l 0.15,-0.65 m -15.55,29.4 -1.35,0.1 V 24.35 L 0.1,24.3 h 4.95 l 27.2,0.05 v 1.35 l -62.7,-0.15 q 0.4,0.95 0.3,2.85 l -0.5,5.7 v 1.95 l -0.05,0.45"
         fill="#7b7b7b"
         fill-rule="evenodd"
         stroke="none"
         id="path18" />
      <path
         d="m 28.2,-14.1 0.05,0.15 -0.05,0.25 v -0.4"
         fill="#e9e9e9"
         fill-rule="evenodd"
         stroke="none"
         id="path19" />
      <path
         d="m 18.15,-16.95 0.3,-0.05 v -0.85 l -5.95,-0.1 -0.5,0.4 0.15,0.6 h 6 m -14,-1 h -1.5 l -0.1,0.05 -1.1,0.05 V -17 l 0.3,0.05 H 8.3 L 8.6,-17 v -0.85 L 5,-17.95 H 4.55 4.15 m 24.05,3.85 -0.05,-0.3 0.1,-0.5 v -0.4 L 28.1,-15.4 H 5 v -0.05 l -1.35,0.05 h -0.5 -3.05 -3 -0.5 l -1.4,-0.05 v 0.05 h -23.1 l -0.15,0.1 v 0.4 l 0.1,0.5 -0.05,0.8 0.05,1.05 0.45,0.8 0.1,0.2 0.3,0.1 h 0.15 54.1 l 0.35,-0.05 0.1,-0.05 0.1,-0.2 q 0.4,-0.35 0.45,-0.8 l 0.05,-1.05 v -0.1 l 0.05,-0.25 -0.05,-0.15 m 3.8,-8.3 v 0.45 h -63.8 v -0.5 h 0.15 L 32,-22.4 m 0.3,4.1 v 0.45 l 0.05,0.65 -0.05,36.55 H 25.05 V 19.2 h -1 v 0.15 h -47.9 V 19.2 h -1 v 0.15 h -5.6 v -0.45 -2.85 -6 l -0.05,-1.4 0.05,-1.35 q 0,-9.25 -0.15,-13.9 v -11.55 l -0.05,-0.3 62.95,0.15 m -10.45,0.75 0.15,0.6 h 6 L 28.3,-17 v -0.85 l -5.95,-0.1 -0.5,0.4 m 10.4,40.1 v 0.6 L 5.05,23.2 H 0.1 -4.85 l -27.2,-0.05 v -0.6 h 64.3 M 15.3,7.1 h 0.25 v -5 H 15.5 V 0.7 h 0.05 v -5 h -30.9 v 5 h 0.05 v 1.4 h -0.05 v 5 h 0.2 l -0.15,0.65 q 0,0.55 1.15,1.2 H 14.9 Q 15.95,8.4 15.95,7.9 L 15.3,7.1 M 32.25,25.7 V 36.6 Q 30.3,36.35 26.6,36.5 h -53 -4.3 l 0.05,-0.45 V 34.1 l 0.5,-5.7 q 0.1,-1.9 -0.3,-2.85 l 62.7,0.15 m -44.55,-43.65 -5.95,0.1 V -17 l 0.3,0.05 h 6 l 0.15,-0.6 -0.5,-0.4 m 3.9,0.1 V -17 l 0.3,0.05 h 6.55 l 0.3,-0.05 v -0.85 L -2.3,-17.9 -2.45,-17.95 H -4.8 l -3.6,0.1 m -19.7,0 V -17 l 0.3,0.05 h 6 l 0.15,-0.6 -0.5,-0.4 -5.95,0.1"
         fill="#727272"
         fill-rule="evenodd"
         stroke="none"
         id="path20" />
      <path
         d="m 14.5,-2.85 v 2.8 l 0.05,0.2 v 2.5 l -0.05,0.2 v 2.8 L 14.25,5.6 h -28.3 l -0.25,0.05 v -2.8 l -0.05,-0.2 v -2.5 l 0.05,-0.2 v -2.8 l 0.25,0.05 h 28.3 l 0.25,-0.05"
         fill="#747474"
         fill-rule="evenodd"
         stroke="none"
         id="path21" />
      <path
         d="m -26.45,-13.5 v -0.2 -0.1 -0.4 h 53.1 v 0.5 0.1 l 0.05,0.5 -52.7,-0.3 -0.4,-0.1 h -0.05"
         fill="#999999"
         fill-rule="evenodd"
         stroke="none"
         id="path22" />
    </g>
    <g
       id="sprite2"
       transform="translate(5.4,4)">
      <use
         ffdec:characterId="43"
         height="8"
         transform="translate(-5.4,-4)"
         width="10.8"
         xlink:href="#shape2"
         id="use22" />
    </g>
    <g
       id="shape2"
       transform="translate(5.4,4)">
      <path
         d="m 2.9,-0.35 q 0,-1.25 1.25,-1.25 1.25,0 1.25,1.2 0,1.3 -1.25,1.3 Q 3.6,0.9 3.25,0.5 2.9,0.15 2.9,-0.35 m 0.35,-2.3 q 0,0.55 -0.35,0.9 -0.4,0.45 -1,0.45 -1.35,0 -1.35,-1.4 0,-1.3 1.35,-1.3 1.35,0 1.35,1.35 m -3.1,1.9 h 0.2 q 2.6,0.1 2.6,2.8 l -0.3,1 Q 2.05,4 0.45,4 H 0.35 0.15 0.1 -0.45 q -1.6,0 -2.2,-0.95 l -0.3,-1 q 0,-2.8 2.8,-2.8 h 0.3 M -1.55,-4 q 1.35,0 1.35,1.35 0,0.55 -0.4,0.9 -0.4,0.45 -0.95,0.45 -1.4,0 -1.4,-1.4 0,-1.3 1.4,-1.3 m -2.6,2.4 q 1.25,0 1.25,1.25 0,0.5 -0.35,0.85 -0.35,0.4 -0.9,0.4 -1.25,0 -1.25,-1.3 0,-1.2 1.25,-1.2"
         fill="#6b6b6b"
         fill-rule="evenodd"
         stroke="none"
         id="path23" />
    </g>
  </defs>
</svg>
