<?xml version="1.0" encoding="UTF-8" standalone="no"?>
<svg
   ffdec:objectType="frame"
   height="101.25275"
   width="96.220932"
   version="1.1"
   id="svg62"
   sodipodi:docname="1.svg"
   xmlns:inkscape="http://www.inkscape.org/namespaces/inkscape"
   xmlns:sodipodi="http://sodipodi.sourceforge.net/DTD/sodipodi-0.dtd"
   xmlns:xlink="http://www.w3.org/1999/xlink"
   xmlns="http://www.w3.org/2000/svg"
   xmlns:svg="http://www.w3.org/2000/svg"
   xmlns:ffdec="https://www.free-decompiler.com/flash">
  <sodipodi:namedview
     id="namedview62"
     pagecolor="#ffffff"
     bordercolor="#000000"
     borderopacity="0.25"
     inkscape:showpageshadow="2"
     inkscape:pageopacity="0.0"
     inkscape:pagecheckerboard="0"
     inkscape:deskcolor="#d1d1d1"
     fit-margin-top="5"
     fit-margin-left="5"
     fit-margin-right="5"
     fit-margin-bottom="5" />
  <g
     transform="translate(47.95,48.201135)"
     id="g27">
    <use
       ffdec:characterId="576"
       height="14.1"
       transform="matrix(0.893,0,0,0.893,-9.45,-26.15)"
       width="16.75"
       xlink:href="#sprite0"
       id="use1" />
    <use
       ffdec:characterId="612"
       height="11.25"
       transform="matrix(0,0.893,-0.893,0,3.4,-5.3)"
       width="29.4"
       xlink:href="#sprite1"
       id="use2" />
    <use
       ffdec:characterId="612"
       height="11.25"
       transform="matrix(0.893,0,0,0.893,1.35,-16.45)"
       width="29.4"
       xlink:href="#sprite1"
       id="use3" />
    <use
       ffdec:characterId="612"
       height="11.25"
       transform="matrix(0.893,0,0,0.893,-32.05,-16.45)"
       width="29.4"
       xlink:href="#sprite1"
       id="use4" />
    <use
       ffdec:characterId="572"
       height="11.25"
       transform="matrix(1.2175,-0.0053,0.0039,0.893,-40.75,32.3)"
       width="64.400002"
       xlink:href="#sprite2"
       id="use5" />
    <use
       ffdec:characterId="578"
       height="24.25"
       transform="matrix(0.893,0,0,0.893,-14.45,22.9)"
       width="29"
       xlink:href="#sprite3"
       id="use6" />
    <use
       ffdec:characterId="612"
       height="11.25"
       transform="matrix(0,1.4662,-0.893,0,32.5,5.5)"
       width="29.4"
       xlink:href="#sprite1"
       id="use7" />
    <use
       ffdec:characterId="612"
       height="11.25"
       transform="matrix(0,1.4662,-0.893,0,-27.15,5.5)"
       width="29.4"
       xlink:href="#sprite1"
       id="use8" />
    <use
       ffdec:characterId="586"
       height="28.200001"
       transform="matrix(-0.7341,0,0,0.7341,33.25,32.35)"
       width="40.349998"
       xlink:href="#sprite4"
       id="use9" />
    <use
       ffdec:characterId="588"
       height="39.900002"
       transform="matrix(0.7341,0,0,0.7341,-38.6,23.75)"
       width="50.049999"
       xlink:href="#sprite5"
       id="use10" />
    <use
       ffdec:characterId="612"
       height="11.25"
       transform="matrix(0,1.4662,-0.893,0,32.5,-29.5)"
       width="29.4"
       xlink:href="#sprite1"
       id="use11" />
    <use
       ffdec:characterId="612"
       height="11.25"
       transform="matrix(0,1.4662,-0.893,0,-27.15,-29.5)"
       width="29.4"
       xlink:href="#sprite1"
       id="use12" />
    <use
       ffdec:characterId="612"
       height="11.25"
       transform="matrix(0,0.893,-0.893,0,37.4,19.15)"
       width="29.4"
       xlink:href="#sprite6"
       id="use13" />
    <use
       ffdec:characterId="612"
       height="11.25"
       transform="matrix(0,0.893,-0.893,0,-32.05,19.15)"
       width="29.4"
       xlink:href="#sprite6"
       id="use14" />
    <use
       ffdec:characterId="582"
       height="15.85"
       transform="matrix(0,0.8475,-0.8475,0,-26.05,-13.7)"
       width="24"
       xlink:href="#sprite7"
       id="use15" />
    <use
       ffdec:characterId="586"
       height="28.200001"
       transform="matrix(0.7341,0,0,0.7341,-47.95,32.35)"
       width="40.349998"
       xlink:href="#sprite8"
       id="use16" />
    <use
       ffdec:characterId="578"
       height="24.25"
       transform="matrix(-0.893,0,0,-0.893,11.05,3.5)"
       width="29"
       xlink:href="#sprite3"
       id="use17" />
    <use
       ffdec:characterId="584"
       height="15.15"
       transform="matrix(0.893,0,0,0.893,-44.45,-10.35)"
       width="15.9"
       xlink:href="#sprite9"
       id="use18" />
    <use
       ffdec:characterId="572"
       height="11.25"
       transform="matrix(0.893,-0.0039,0.0039,0.893,-30.3,17.4)"
       width="64.400002"
       xlink:href="#sprite10"
       id="use19" />
    <use
       ffdec:characterId="574"
       height="24.200001"
       transform="matrix(0.893,0,0,0.893,19.35,15.7)"
       width="23"
       xlink:href="#sprite11"
       id="use20" />
    <use
       ffdec:characterId="574"
       height="24.200001"
       transform="matrix(0,-0.893,0.893,0,-44.3,36.35)"
       width="23"
       xlink:href="#sprite11"
       id="use21" />
    <use
       ffdec:characterId="586"
       height="28.200001"
       transform="matrix(0.7341,0,0,0.7341,18.65,32.35)"
       width="40.349998"
       xlink:href="#sprite8"
       id="use22" />
    <use
       ffdec:characterId="572"
       height="11.25"
       transform="matrix(0.893,-0.0039,0.0039,0.893,-30.3,-37.85)"
       width="64.400002"
       xlink:href="#sprite2"
       id="use23" />
    <use
       ffdec:characterId="574"
       height="24.200001"
       transform="matrix(0.893,0,0,0.893,14.45,-39.55)"
       width="23"
       xlink:href="#sprite12"
       id="use24" />
    <use
       ffdec:characterId="574"
       height="24.200001"
       transform="matrix(0,-0.893,0.893,0,-39.4,-18.9)"
       width="23"
       xlink:href="#sprite12"
       id="use25" />
    <use
       ffdec:characterId="590"
       height="9.8000002"
       transform="matrix(0.866,-0.5,0.5,0.866,-1.4,40.05)"
       width="12.45"
       xlink:href="#sprite13"
       id="use26" />
    <use
       ffdec:characterId="605"
       height="26.950001"
       transform="matrix(0.4465,0.7734,-0.7734,0.4465,21.4187,-53.7243)"
       width="23"
       xlink:href="#sprite14"
       id="use27" />
  </g>
  <defs
     id="defs62">
    <g
       id="sprite0">
      <use
         ffdec:characterId="575"
         height="14.1"
         width="16.75"
         xlink:href="#shape0"
         id="use28" />
    </g>
    <g
       id="shape0">
      <path
         d="m 12.4,11.4 -0.1,1.55 q -0.3,1.15 -1.4,1.15 -0.95,0 -1.25,-1 H 9 L 7.8,13 q -0.4,0.85 -1.25,0.85 -1.25,0 -1.5,-1.3 v -1.5 q 0,-2.95 1.5,-3 H 6.6 L 7.25,7.85 7,6.55 V 6.45 H 2.15 2 Q 0.95,6.5 0.4,5.65 0,5.1 0,4.5 0,3.8 0.55,3.15 L 0.7,3 Q 1.05,2.25 2.2,2.25 L 3.25,2.5 H 7 Q 7.2,0 8.4,0 9.6,0 9.85,2.5 h 4.9 q 0.8,0.1 1.45,0.8 0.55,0.6 0.55,1.25 0,0.5 -0.4,1.05 -0.55,0.7 -1.6,0.85 H 9.8 V 6.5 L 9.55,7.8 10.55,8 11,7.95 q 1.4,0.2 1.4,3.45"
         fill="#9a9a9a"
         fill-rule="evenodd"
         stroke="none"
         id="path28" />
    </g>
    <g
       id="sprite1">
      <use
         ffdec:characterId="611"
         height="11.25"
         width="29.4"
         xlink:href="#shape1"
         id="use29" />
    </g>
    <g
       id="shape1">
      <path
         d="M 26.7,3.6 H 24 l -2.9,0.05 -8.35,-0.05 -6.8,0.05 -2.9,-0.2 0.2,1.8 h 0.1 L 3.4,7.95 7.75,8 h 3.75 4.8 3.6 1.4 v 0.05 h 4.8 1 l -0.15,-0.8 v -2 l 0.1,-1.8 -0.35,0.05 v 0.1 m 1.1,-3.2 q 0.3,-0.45 0.75,-0.4 0.5,0.05 0.85,0.7 v 9 l -0.25,0.2 q -0.1,0.4 -0.6,0.8 -0.8,0.65 -2.2,0.4 l -13.6,0.05 V 11.2 H 2.2 L 1.7,11.25 1.25,11.2 H 1.15 Q 0.4,11 0,10.65 V 6.1 L 0.05,5.25 H 0.1 L 0.4,2.8 0,2.45 V 1.3 Q 0.3,0.75 1.15,0.55 L 5.95,0.2 7.75,0.15 V 0.1 h 0.35 9.95 6.1 2.55 v 0.15 l 1.1,0.15"
         fill="#9a9a9a"
         fill-rule="evenodd"
         stroke="none"
         id="path29" />
      <path
         d="M 26.7,3.6 V 3.5 l 0.35,-0.05 -0.1,1.8 v 2 l 0.15,0.8 h -1 -4.8 V 8 H 19.9 16.3 11.5 7.75 L 3.4,7.95 3.35,5.25 H 3.25 L 3.05,3.45 5.95,3.65 12.75,3.6 21.1,3.65 24,3.6 h 2.7"
         fill="#bababa"
         fill-rule="evenodd"
         stroke="none"
         id="path30" />
    </g>
    <g
       id="sprite2">
      <use
         ffdec:characterId="571"
         height="11.25"
         width="64.400002"
         xlink:href="#shape2"
         id="use30" />
    </g>
    <g
       id="shape2">
      <path
         d="M 62.05,3.45 Q 59.3,3.7 53.05,3.6 H 13.1 Q 6.35,3.8 3.05,3.45 l 0.2,1.8 h 0.1 l 0.05,2.7 57.7,0.1 h 1 l -0.15,-0.8 v -2 l 0.1,-1.8 M 64.4,0.7 v 9 l -0.25,0.2 -0.6,0.8 q -0.9,0.7 -2.45,0.35 L 2.2,11.2 1.7,11.25 1.25,11.2 H 1.15 Q 0.4,11 0,10.65 V 6.1 L 0.05,5.25 H 0.1 L 0.4,2.8 0,2.45 V 1.3 Q 0.3,0.75 1.15,0.55 L 13.1,0.1 h 39.95 l 9.75,0.3 q 0.3,-0.45 0.75,-0.4 0.5,0.05 0.85,0.7"
         fill="#9a9a9a"
         fill-rule="evenodd"
         stroke="none"
         id="path31" />
      <path
         d="m 62.05,3.45 -0.1,1.8 v 2 l 0.15,0.8 h -1 L 3.4,7.95 3.35,5.25 H 3.25 L 3.05,3.45 Q 6.35,3.8 13.1,3.6 h 39.95 q 6.25,0.1 9,-0.15"
         fill="#bababa"
         fill-rule="evenodd"
         stroke="none"
         id="path32" />
    </g>
    <g
       id="sprite3">
      <use
         ffdec:characterId="577"
         height="24.25"
         width="29"
         xlink:href="#shape3"
         id="use32" />
    </g>
    <g
       id="shape3">
      <path
         d="m 20.3,0.35 q 1.15,0 1.25,1.2 L 21.9,2.5 21.95,4.25 Q 22.15,6.3 21.8,7.4 22.5,7.95 21.35,8.25 L 21.25,8.4 21.6,8.65 24.75,8.5 q 1.9,-0.1 2.7,0.4 1.2,0.1 1.2,1.25 l -0.2,0.9 0.45,2.95 0.1,4.55 -0.05,2.75 -0.05,0.4 v 0.1 q -0.2,1.45 -0.8,1.95 l -0.15,0.3 -2.85,0.2 H 25 24.9 24.35 l -3.25,-0.3 q -0.6,-0.2 -0.6,-1.1 L 20.7,22.3 20.65,22.25 H 20.3 V 22.2 l -0.35,0.1 V 22.15 H 17.2 V 22 l -0.95,0.05 H 12.2 v 0.1 H 9.05 V 22.3 L 8.7,22.2 v 0.05 H 8.35 L 8.3,22.3 8.5,22.85 q 0,0.9 -0.6,1.1 l -3.25,0.3 H 4.1 4 3.9 L 1.05,24.05 0.9,23.75 Q 0.3,23.25 0.15,21.8 L 0.1,21.7 0.05,21.3 0,18.55 0.1,14 Q 0.25,12.25 0.55,11.05 0.3,10.7 0.35,10.15 0.35,9 1.55,8.9 2.35,8.4 4.25,8.5 L 6.15,8.45 V 7.9 l 0.2,0.35 v 0.2 L 7.4,8.65 7.55,8.5 Q 6.7,8.5 6.5,7.9 6.3,7.2 6.2,4.65 V 4.1 4 3.9 L 6.25,2.5 Q 6.25,1.4 6.4,1.05 L 6.7,0.9 Q 7.2,0.3 8.75,0.1 L 9.15,0.05 11.9,0 l 4.55,0.1 2.95,0.45 0.9,-0.2 m -3.1,19 v 0.05 h 2.75 v -0.1 l 0.35,-0.1 v -0.15 h 0.1 V 16.1 13.05 h -0.1 v -0.2 L 19.95,12.8 v -0.25 h -0.7 -0.8 L 18,11.4 V 11.2 L 17.6,10 17.4,9.55 h 0.05 V 9.4 9.2 h 0.6 V 9.05 h -0.4 L 17.6,8.7 H 17.4 V 8.6 h -3.05 -2.1 -0.1 -0.75 v 0.1 h -0.15 l -0.1,0.35 h -0.1 V 9.2 h 0.5 q -0.4,0.55 -0.65,1.65 L 10.65,12.2 10,12.15 9.95,12.1 9.85,12.45 9.2,12.4 H 9.05 v 0.4 L 8.7,12.85 v 0.2 H 8.6 v 3.05 2.95 h 0.1 v 0.15 l 0.35,0.1 v 0.1 H 9.2 q 0.75,-0.15 1.7,0 h 1.3 v -0.1 h 4.05 l 0.7,0.05 h 0.25 m 5.35,-8.15 0.15,1.15 0.1,3.75 v 3.65 l -0.2,1.85 1.75,-0.1 h 0.05 0.35 0.35 v 0.05 l 1.2,0.1 -0.05,-0.35 -0.1,-2.85 V 14.2 q 0.1,-1.7 0.35,-2.9 l -0.25,-0.15 -1.15,0.1 h -0.45 -0.3 L 23.3,11.2 h -0.75 m -3.4,-8.7 -2.9,0.35 H 12 L 9.15,2.75 8.8,2.7 8.9,3.9 H 8.95 V 4.25 4.6 4.65 L 8.85,6.4 10.7,6.2 h 3.65 l 3.15,0.05 0.6,0.05 1.15,0.15 V 5.7 L 19.2,4.65 V 4.35 3.9 L 19.3,2.75 19.15,2.5 M 12.4,9.2 12.45,9.4 12.25,9.2 H 12.4 M 3.9,11.25 2.75,11.15 2.5,11.3 2.85,14.2 v 4.25 L 2.75,21.3 2.7,21.65 3.9,21.55 V 21.5 H 4.25 4.6 4.65 L 6.4,21.6 6.2,19.75 V 16.1 L 6.3,12.35 6.45,11.2 H 5.7 L 4.65,11.25 H 4.35 3.9 M 8.2,8.4 V 8.35 L 8.15,8.3 7.95,8.45 8.05,8.55 8.2,8.4 m 9,4.1 0.05,0.05 H 17.2 V 12.5"
         fill="#9a9a9a"
         fill-rule="evenodd"
         stroke="none"
         id="path33" />
      <path
         d="m 22.55,11.2 h 0.75 l 1.05,0.05 h 0.3 0.45 l 1.15,-0.1 0.25,0.15 q -0.25,1.2 -0.35,2.9 v 4.25 l 0.1,2.85 0.05,0.35 -1.2,-0.1 V 21.5 H 24.75 24.4 24.35 l -1.75,0.1 0.2,-1.85 V 16.1 L 22.7,12.35 22.55,11.2 m -5.6,8.15 -0.7,-0.05 H 12.2 v 0.1 h -1.3 q -0.95,-0.15 -1.7,0 H 9.05 V 19.3 L 8.7,19.2 V 19.05 H 8.6 V 16.1 13.05 h 0.1 v -0.2 L 9.05,12.8 V 12.4 H 9.2 l 0.65,0.05 0.1,-0.35 0.05,0.05 0.65,0.05 0.25,-1.35 q 0.25,-1.1 0.65,-1.65 h -0.5 V 9.05 h 0.1 L 11.25,8.7 H 11.4 V 8.6 h 0.75 0.1 2.1 3.05 v 0.1 h 0.2 l 0.05,0.35 h 0.4 V 9.2 h -0.6 V 9.4 9.55 H 17.4 L 17.6,10 18,11.2 v 0.2 l 0.45,1.15 h 0.8 0.7 v 0.25 l 0.35,0.05 v 0.2 h 0.1 v 3.05 2.95 h -0.1 v 0.15 l -0.35,0.1 v 0.1 H 17.2 V 19.35 19.1 l -0.25,0.25 M 3.9,11.25 h 0.45 0.3 L 5.7,11.2 H 6.45 L 6.3,12.35 6.2,16.1 v 3.65 L 6.4,21.6 4.65,21.5 H 4.6 4.25 3.9 v 0.05 l -1.2,0.1 0.05,-0.35 0.1,-2.85 V 14.2 L 2.5,11.3 2.75,11.15 3.9,11.25 M 12.4,9.2 H 12.25 L 12.45,9.4 12.4,9.2 M 19.15,2.5 19.3,2.75 19.2,3.9 v 0.45 0.3 L 19.25,5.7 V 6.45 L 18.1,6.3 17.5,6.25 14.35,6.2 H 10.7 L 8.85,6.4 8.95,4.65 V 4.6 4.25 3.9 H 8.9 L 8.8,2.7 9.15,2.75 12,2.85 h 4.25 l 2.9,-0.35 m -1.95,10 v 0.05 h 0.05 L 17.2,12.5"
         fill="#ada5a5"
         fill-rule="evenodd"
         stroke="none"
         id="path34" />
    </g>
    <g
       id="sprite4">
      <use
         ffdec:characterId="585"
         height="28.200001"
         width="40.349998"
         xlink:href="#shape4"
         id="use34" />
    </g>
    <g
       id="shape4">
      <path
         d="m 23.75,1.25 q 0.5,0.15 0.5,1.35 l -0.9,1.35 -0.95,1.2 q 0,2.35 2.8,3.85 l 6.2,2.4 q 8.95,3.1 8.95,8.85 0,1.9 -0.8,3.75 -0.65,1.45 -1.65,2.3 l -0.25,0.75 Q 36.8,28.1 34.35,27.7 H 21.05 L 7.6,28.2 q -4.55,0 -6.5,-3.15 L 0,21.75 Q 0,17.15 6.05,13.5 7.85,12.45 9.35,12 L 9.2,9.85 Q 9.2,6.1 16.55,2 q 2.9,-1.6 5,-1.95 2.3,-0.35 2.3,1.1 l -0.1,0.1 M 7.55,24 Q 13,23.7 19.65,23.7 l 2.15,0.4 12.55,-0.05 1.15,-0.1 q 1.65,-1.25 1.65,-2.5 L 36.9,19.7 Q 36.3,17.75 34.35,16.4 32.6,15.2 28.15,13.6 23.55,12 21.9,10.9 19.65,9.4 19.2,7.25 L 19.15,6.95 19.1,6.1 q 0,-0.85 2.15,-3.1 l -1.35,0.95 -5.65,4 q -0.6,0.5 -1.25,3.7 l -0.35,1.45 -0.55,1.2 -0.05,0.05 -0.8,0.7 -2.6,0.9 -0.5,0.25 -0.4,0.25 Q 5.3,17.85 4.55,19.8 4.3,20.35 4.2,21 L 4.15,21.8 V 22 q 0,1 0.25,1.45 l 0.1,0.1 Q 4.8,23.9 5.7,24 L 6.35,24.05 7.55,24"
         fill="#9a9a9a"
         fill-rule="evenodd"
         stroke="none"
         id="path35" />
      <path
         d="m 12.85,16.1 -0.1,-0.8 q 0,-1.15 1.95,-2 1.9,-0.9 1.9,1.3 0,1.65 -2.45,1.65 l -1.3,-0.15"
         fill="#d2d2d2"
         fill-rule="evenodd"
         stroke="none"
         id="path36" />
      <path
         d="m 36.9,19.7 -2.55,-2.15 q -2,-1.25 -6.6,-2.75 -4.4,-1.4 -5.95,-2.5 -2.6,-1.85 -2.6,-5.05 0.45,2.15 2.7,3.65 1.65,1.1 6.25,2.7 4.45,1.6 6.2,2.8 1.95,1.35 2.55,3.3 M 19.15,6.95 Q 17.3,8.85 17.1,9.3 l -0.35,0.95 0.05,2 -0.05,0.8 h 0.05 q 4.9,0.5 4.9,2.3 0,1.3 -2.3,1.4 l -2.95,0.2 -2.4,0.95 Q 10.75,19.15 9.6,20 9.15,20.35 7.9,23.25 L 7.55,24 6.35,24.05 5.7,24 Q 4.8,23.9 4.5,23.55 L 4.4,23.45 Q 4.15,23 4.15,22 V 21.8 L 4.2,21 q 0.1,-0.65 0.35,-1.2 0.75,-1.95 3.2,-3.35 l 0.4,-0.25 0.5,-0.25 2.6,-0.9 0.8,-0.7 0.05,-0.05 0.55,-1.2 0.35,-1.45 q 0.65,-3.2 1.25,-3.7 L 19.9,3.95 21.25,3 Q 19.1,5.25 19.1,6.1 l 0.05,0.85 m -6.3,9.15 1.3,0.15 q 2.45,0 2.45,-1.65 0,-2.2 -1.9,-1.3 -1.95,0.85 -1.95,2 l 0.1,0.8"
         fill="#a59f9f"
         fill-rule="evenodd"
         stroke="none"
         id="path37" />
      <path
         d="m 36.9,19.7 0.25,1.75 q 0,1.25 -1.65,2.5 L 34.35,24.05 21.8,24.1 19.65,23.7 Q 13,23.7 7.55,24 L 7.9,23.25 q 1.25,-2.9 1.7,-3.25 1.15,-0.85 4.45,-2.1 l 2.4,-0.95 2.95,-0.2 q 2.3,-0.1 2.3,-1.4 0,-1.8 -4.9,-2.3 h -0.05 l 0.05,-0.8 -0.05,-2 0.35,-0.95 q 0.2,-0.45 2.05,-2.35 l 0.05,0.3 q 0,3.2 2.6,5.05 1.55,1.1 5.95,2.5 4.6,1.5 6.6,2.75 l 2.55,2.15"
         fill="#a19c9c"
         fill-rule="evenodd"
         stroke="none"
         id="path38" />
    </g>
    <g
       id="sprite5">
      <use
         ffdec:characterId="587"
         height="39.900002"
         width="50.049999"
         xlink:href="#shape5"
         id="use38" />
    </g>
    <g
       id="shape5">
      <path
         d="M 42.65,19.2 42.3,20 q 2.7,1.1 3.75,2.3 2.4,2.35 3.35,5.25 0.65,2.1 0.65,5.05 0,2.35 -1,4.2 -1.75,3.1 -5.85,3.1 L 42.1,39.75 40.5,39.7 H 3.8 Q 2.55,39.25 2.1,38.85 L 1.75,38.15 Q 0.9,37.15 0.45,35.3 L 0,31 Q 0,27.4 1.1,25.6 2.85,22.7 8.2,20.85 L 9.1,20.75 9.05,20.6 8.7,17.5 q 0,-2.25 2.55,-4.9 3.3,-3.45 8.55,-2.85 L 20.85,9.4 22.5,8.2 23.55,7.45 Q 25.1,5.7 25.2,3.95 L 24.85,3.5 24.65,3.25 Q 23.7,2.95 23.7,1.9 q 0,-1.25 1.75,-1.7 l 3.85,0.2 q 5.55,1.65 5.55,7.3 v 0.65 l 2.2,0.4 q 5.8,1.75 5.8,8.05 l -0.2,2.4 m 2.7,16 0.55,-0.8 0.3,-1.75 q 0,-2.2 -1.15,-4.75 L 44.7,27.15 Q 43.6,25 42.05,23.85 L 41.6,23.5 q -1.9,-1.2 -4.4,-1.2 l -2.95,0.25 -0.9,0.1 -2.75,0.3 -1.25,0.1 q -0.15,0.15 -0.15,-0.5 7.05,-3.25 7.6,-3.4 L 39.05,19.05 39,16.5 v -0.25 l -0.15,-1.1 q -0.9,-3.4 -5.95,-3.5 h -0.3 q -0.6,0 -1,-0.5 L 31.45,10.9 31.2,10.1 31.3,9.6 V 9.45 l 0.15,-1.7 q 0,-2.85 -2,-3.8 L 28.3,3.6 28.35,4.5 q 0,1.85 -1.55,4.2 -1.2,1.8 -2.8,2.6 l -0.85,0.55 -0.4,0.25 -0.15,0.1 q -0.2,0.25 -0.8,0.5 l -1.9,0.75 -2.55,0.7 -0.85,0.25 -1.95,0.8 q -2.6,1.35 -2.6,3.55 v 0.15 l 0.45,2.55 v 0.15 l 0.2,0.3 0.05,0.2 2.65,1.6 2.4,-0.65 0.2,-0.05 0.2,0.4 q 0,1.1 -4.2,1.5 L 13.55,24.85 11.65,24.1 H 11.6 l -0.3,0.1 -3.05,1 q -0.8,0.25 -1.4,0.65 l -0.8,0.5 -0.1,0.05 q -2.15,1.7 -2.15,4.8 0,2.05 0.95,4.1 L 5,35.8 H 5.95 40.5 l 3.4,0.2 0.9,-0.45 0.55,-0.35"
         fill="#9a9a9a"
         fill-rule="evenodd"
         stroke="none"
         id="path39" />
      <path
         d="m 33.3,25.75 -0.1,-0.3 q 0,-0.55 0.85,-0.8 l 4.25,-0.3 0.8,0.6 0.35,0.55 q 0,0.7 -0.35,0.9 l -2.4,0.25 h -0.55 q -2.2,-0.05 -2.8,-0.6 L 33.3,25.75 M 23.2,15.05 v 0.15 q 0,0.85 -0.9,1.6 -1.2,1 -3.15,1 l -1.45,-0.05 -1.1,-0.2 -0.5,-0.5 q 0.9,-1.95 4,-2.65 2.9,-0.65 3.1,0.65 m -9.15,3.15 0.95,0.1 0.1,0.5 -0.4,0.25 -0.65,-0.5 V 18.2"
         fill="#d2d2d2"
         fill-rule="evenodd"
         stroke="none"
         id="path40" />
      <path
         d="m 29.2,22.55 q 0,0.65 0.15,0.5 l 1.25,-0.1 2.75,-0.3 0.9,-0.1 2.95,-0.25 q 2.5,0 4.4,1.2 l 0.45,0.35 q 1.55,1.15 2.65,3.3 l 0.35,0.75 q 1.15,2.55 1.15,4.75 l -0.3,1.75 -0.55,0.8 V 34.8 L 45.3,33.35 44.6,32.15 Q 43.15,30.1 41.2,28.8 39.75,27.9 36.15,26.65 h 0.55 l 2.4,-0.25 q 0.35,-0.2 0.35,-0.9 l -0.35,-0.55 -0.8,-0.6 -4.25,0.3 q -0.85,0.25 -0.85,0.8 l 0.1,0.3 -3.55,0.6 -5.8,-0.7 -2.65,-1 Q 22,24.1 23.85,24.2 l 2,0.15 q 0.7,-0.95 3.35,-1.8 M 5.95,35.8 H 5 L 4.75,35.3 Q 3.8,33.25 3.8,31.2 q 0,-3.1 2.15,-4.8 l 0.1,-0.05 0.8,-0.5 q 0.6,-0.4 1.4,-0.65 l 3.05,-1 0.3,-0.1 h 0.05 l 1.9,0.75 -3.95,2.45 q -4.05,2.85 -4.05,5.55 l 0.4,2.95 M 12.6,21.9 12.4,21.6 V 21.45 L 11.95,18.9 v -0.15 q 0,-2.2 2.6,-3.55 l 1.95,-0.8 0.85,-0.25 2.55,-0.7 1.9,-0.75 q 0.6,-0.25 0.8,-0.5 l 0.15,-0.1 0.4,-0.25 L 24,11.3 q 1.6,-0.8 2.8,-2.6 1.55,-2.35 1.55,-4.2 L 28.3,3.6 29.45,3.95 v 0.4 q 0,2 -1.4,5 -1.5,3.3 -3.35,4.7 l -1.5,1 q -0.2,-1.3 -3.1,-0.65 -3.1,0.7 -4,2.65 l 0.5,0.5 1.1,0.2 -1,0.3 q -1.2,0.35 -2.6,2.25 -0.85,1.2 -1.5,1.6 m 19,-10.75 q 0.4,0.5 1,0.5 h 0.3 q 5.05,0.1 5.95,3.5 l 0.15,1.1 v 0.25 q -2,-0.4 -4.6,-2.2 -2.95,-2.05 -2.95,-2.75 0,-0.25 0.15,-0.4 M 14.05,18.2 v 0.35 l 0.65,0.5 0.4,-0.25 -0.1,-0.5 -0.95,-0.1"
         fill="#a59f9f"
         fill-rule="evenodd"
         stroke="none"
         id="path41" />
      <path
         d="m 29.2,22.55 q -2.65,0.85 -3.35,1.8 l -2,-0.15 Q 22,24.1 21.3,24.65 l 2.65,1 5.8,0.7 3.55,-0.6 0.05,0.3 q 0.6,0.55 2.8,0.6 3.6,1.25 5.05,2.15 1.95,1.3 3.4,3.35 l 0.7,1.2 0.05,1.45 v 0.4 L 44.8,35.55 43.9,36 40.5,35.8 H 5.95 l -0.4,-2.95 q 0,-2.7 4.05,-5.55 l 3.95,-2.45 0.35,0.05 q 4.2,-0.4 4.2,-1.5 L 17.9,23 17.7,23.05 15.3,23.7 12.65,22.1 12.6,21.9 q 0.65,-0.4 1.5,-1.6 1.4,-1.9 2.6,-2.25 l 1,-0.3 1.45,0.05 q 1.95,0 3.15,-1 0.9,-0.75 0.9,-1.6 v -0.15 l 1.5,-1 q 1.85,-1.4 3.35,-4.7 1.4,-3 1.4,-5 v -0.4 q 2,0.95 2,3.8 L 31.3,9.45 V 9.6 l -0.1,0.5 0.25,0.8 0.15,0.25 q -0.15,0.15 -0.15,0.4 0,0.7 2.95,2.75 2.6,1.8 4.6,2.2 l 0.05,2.55 -2.25,0.1 q -0.55,0.15 -7.6,3.4"
         fill="#a19c9c"
         fill-rule="evenodd"
         stroke="none"
         id="path42" />
    </g>
    <g
       id="sprite6">
      <use
         ffdec:characterId="611"
         height="11.25"
         width="29.4"
         xlink:href="#shape6"
         id="use42" />
    </g>
    <g
       id="shape6">
      <path
         d="M 26.7,3.6 H 24 l -2.9,0.05 -8.35,-0.05 -6.8,0.05 -2.9,-0.2 0.2,1.8 h 0.1 L 3.4,7.95 7.75,8 h 3.75 4.8 3.6 1.4 v 0.05 h 4.8 1 l -0.15,-0.8 v -2 l 0.1,-1.8 -0.35,0.05 v 0.1 m 1.1,-3.2 q 0.3,-0.45 0.75,-0.4 0.5,0.05 0.85,0.7 v 9 l -0.25,0.2 q -0.1,0.4 -0.6,0.8 -0.8,0.65 -2.2,0.4 l -13.6,0.05 V 11.2 H 2.2 L 1.7,11.25 1.25,11.2 H 1.15 Q 0.4,11 0,10.65 V 6.1 L 0.05,5.25 H 0.1 L 0.4,2.8 0,2.45 V 1.3 Q 0.3,0.75 1.15,0.55 L 5.95,0.2 7.75,0.15 V 0.1 h 0.35 9.95 6.1 2.55 v 0.15 l 1.1,0.15"
         fill="#6b6b6b"
         fill-rule="evenodd"
         stroke="none"
         id="path43" />
      <path
         d="M 26.7,3.6 V 3.5 l 0.35,-0.05 -0.1,1.8 v 2 l 0.15,0.8 h -1 -4.8 V 8 H 19.9 16.3 11.5 7.75 L 3.4,7.95 3.35,5.25 H 3.25 L 3.05,3.45 5.95,3.65 12.75,3.6 21.1,3.65 24,3.6 h 2.7"
         fill="#bfbfbf"
         fill-rule="evenodd"
         stroke="none"
         id="path44" />
    </g>
    <g
       id="sprite7">
      <use
         ffdec:characterId="581"
         height="15.85"
         width="24"
         xlink:href="#shape7"
         id="use44" />
    </g>
    <g
       id="shape7">
      <path
         d="M 21.5,2.9 21.25,2.75 20.1,2.85 h -0.45 -0.3 L 18.3,2.8 h -0.75 l 0.15,1.15 0.1,3.75 v 3.65 l -0.2,1.85 1.75,-0.1 h 0.05 0.35 0.35 v 0.05 l 1.2,0.1 -0.05,-0.35 -0.1,-2.85 V 5.8 q 0.1,-1.7 0.35,-2.9 m 2.4,2.7 0.1,4.55 -0.05,2.75 -0.05,0.4 q -0.2,1.55 -0.8,2.05 l -0.15,0.3 -2.85,0.2 H 20 19.9 19.35 l -3.25,-0.3 q -0.6,-0.2 -0.6,-1.1 L 15.7,13.9 15.65,13.85 H 15.3 V 13.8 l -0.35,0.1 V 13.75 H 9.05 V 13.9 L 8.7,13.8 v 0.05 H 8.35 L 8.3,13.9 8.5,14.45 q 0,0.9 -0.6,1.1 l -3.25,0.3 H 4.1 4 3.9 L 1.05,15.65 0.9,15.35 Q 0.3,14.85 0.1,13.3 L 0.05,12.9 0,10.15 0.1,5.6 Q 0.25,3.85 0.55,2.65 0.3,2.3 0.35,1.75 0.35,0.6 1.55,0.5 2.35,0 4.25,0.1 L 7.4,0.25 Q 7.95,-0.45 8.25,0.7 L 8.5,1.05 9.05,0.95 V 1.3 l 5.9,-0.15 v -0.2 l 0.55,0.1 0.25,-0.35 q 0.3,-1.15 0.85,-0.45 L 19.75,0.1 q 1.9,-0.1 2.7,0.4 1.2,0.1 1.2,1.25 l -0.2,0.9 0.45,2.95 M 15.3,4.65 V 4.45 L 14.95,4.4 V 4.15 L 9.05,4 V 4.4 L 8.7,4.45 v 0.2 H 8.6 v 3.05 2.95 h 0.1 v 0.15 l 0.35,0.1 V 11 q 0.8,-0.15 1.85,0 h 4.05 v -0.1 l 0.35,-0.1 v -0.15 h 0.1 V 7.7 4.65 H 15.3 M 5.7,2.8 4.65,2.85 H 4.35 3.9 L 2.75,2.75 2.5,2.9 2.85,5.8 v 4.25 L 2.75,12.9 2.7,13.25 3.9,13.15 V 13.1 H 4.25 4.6 4.65 L 6.4,13.2 6.2,11.35 V 7.7 L 6.3,3.95 6.45,2.8 H 5.7"
         fill="#9a9a9a"
         fill-rule="evenodd"
         stroke="none"
         id="path45" />
      <path
         d="m 21.5,2.9 q -0.25,1.2 -0.35,2.9 v 4.25 l 0.1,2.85 0.05,0.35 -1.2,-0.1 V 13.1 H 19.75 19.4 19.35 l -1.75,0.1 0.2,-1.85 V 7.7 L 17.7,3.95 17.55,2.8 h 0.75 l 1.05,0.05 h 0.3 0.45 l 1.15,-0.1 0.25,0.15 m -6.2,1.75 h 0.1 v 3.05 2.95 h -0.1 v 0.15 l -0.35,0.1 V 11 H 10.9 Q 9.85,10.85 9.05,11 V 10.9 L 8.7,10.8 V 10.65 H 8.6 V 7.7 4.65 H 8.7 V 4.45 L 9.05,4.4 V 4 l 5.9,0.15 V 4.4 l 0.35,0.05 v 0.2 M 5.7,2.8 H 6.45 L 6.3,3.95 6.2,7.7 v 3.65 L 6.4,13.2 4.65,13.1 H 4.6 4.25 3.9 v 0.05 l -1.2,0.1 0.05,-0.35 0.1,-2.85 V 5.8 L 2.5,2.9 2.75,2.75 3.9,2.85 h 0.45 0.3 L 5.7,2.8"
         fill="#ada5a5"
         fill-rule="evenodd"
         stroke="none"
         id="path46" />
    </g>
    <g
       id="sprite8">
      <use
         ffdec:characterId="585"
         height="28.200001"
         width="40.349998"
         xlink:href="#shape8"
         id="use46" />
    </g>
    <g
       id="shape8">
      <path
         d="m 23.75,1.25 q 0.5,0.15 0.5,1.35 l -0.9,1.35 -0.95,1.2 q 0,2.35 2.8,3.85 l 6.2,2.4 q 8.95,3.1 8.95,8.85 0,1.9 -0.8,3.75 -0.65,1.45 -1.65,2.3 l -0.25,0.75 Q 36.8,28.1 34.35,27.7 H 21.05 L 7.6,28.2 q -4.55,0 -6.5,-3.15 L 0,21.75 Q 0,17.15 6.05,13.5 7.85,12.45 9.35,12 L 9.2,9.85 Q 9.2,6.1 16.55,2 q 2.9,-1.6 5,-1.95 2.3,-0.35 2.3,1.1 l -0.1,0.1 M 7.55,24 Q 13,23.7 19.65,23.7 l 2.15,0.4 12.55,-0.05 1.15,-0.1 q 1.65,-1.25 1.65,-2.5 L 36.9,19.7 Q 36.3,17.75 34.35,16.4 32.6,15.2 28.15,13.6 23.55,12 21.9,10.9 19.65,9.4 19.2,7.25 L 19.15,6.95 19.1,6.1 q 0,-0.85 2.15,-3.1 l -1.35,0.95 -5.65,4 q -0.6,0.5 -1.25,3.7 l -0.35,1.45 -0.55,1.2 -0.05,0.05 -0.8,0.7 -2.6,0.9 -0.5,0.25 -0.4,0.25 Q 5.3,17.85 4.55,19.8 4.3,20.35 4.2,21 L 4.15,21.8 V 22 q 0,1 0.25,1.45 l 0.1,0.1 Q 4.8,23.9 5.7,24 L 6.35,24.05 7.55,24"
         fill="#6b6b6b"
         fill-rule="evenodd"
         stroke="none"
         id="path47" />
      <path
         d="m 12.85,16.1 -0.1,-0.8 q 0,-1.15 1.95,-2 1.9,-0.9 1.9,1.3 0,1.65 -2.45,1.65 l -1.3,-0.15"
         fill="#ffffff"
         fill-rule="evenodd"
         stroke="none"
         id="path48" />
      <path
         d="m 36.9,19.7 -2.55,-2.15 q -2,-1.25 -6.6,-2.75 -4.4,-1.4 -5.95,-2.5 -2.6,-1.85 -2.6,-5.05 0.45,2.15 2.7,3.65 1.65,1.1 6.25,2.7 4.45,1.6 6.2,2.8 1.95,1.35 2.55,3.3 M 19.15,6.95 Q 17.3,8.85 17.1,9.3 l -0.35,0.95 0.05,2 -0.05,0.8 h 0.05 q 4.9,0.5 4.9,2.3 0,1.3 -2.3,1.4 l -2.95,0.2 -2.4,0.95 Q 10.75,19.15 9.6,20 9.15,20.35 7.9,23.25 L 7.55,24 6.35,24.05 5.7,24 Q 4.8,23.9 4.5,23.55 L 4.4,23.45 Q 4.15,23 4.15,22 V 21.8 L 4.2,21 q 0.1,-0.65 0.35,-1.2 0.75,-1.95 3.2,-3.35 l 0.4,-0.25 0.5,-0.25 2.6,-0.9 0.8,-0.7 0.05,-0.05 0.55,-1.2 0.35,-1.45 q 0.65,-3.2 1.25,-3.7 L 19.9,3.95 21.25,3 Q 19.1,5.25 19.1,6.1 l 0.05,0.85 m -6.3,9.15 1.3,0.15 q 2.45,0 2.45,-1.65 0,-2.2 -1.9,-1.3 -1.95,0.85 -1.95,2 l 0.1,0.8"
         fill="#887979"
         fill-rule="evenodd"
         stroke="none"
         id="path49" />
      <path
         d="m 36.9,19.7 0.25,1.75 q 0,1.25 -1.65,2.5 L 34.35,24.05 21.8,24.1 19.65,23.7 Q 13,23.7 7.55,24 L 7.9,23.25 q 1.25,-2.9 1.7,-3.25 1.15,-0.85 4.45,-2.1 l 2.4,-0.95 2.95,-0.2 q 2.3,-0.1 2.3,-1.4 0,-1.8 -4.9,-2.3 h -0.05 l 0.05,-0.8 -0.05,-2 0.35,-0.95 q 0.2,-0.45 2.05,-2.35 l 0.05,0.3 q 0,3.2 2.6,5.05 1.55,1.1 5.95,2.5 4.6,1.5 6.6,2.75 l 2.55,2.15"
         fill="#7d6f6f"
         fill-rule="evenodd"
         stroke="none"
         id="path50" />
    </g>
    <g
       id="sprite9">
      <use
         ffdec:characterId="583"
         height="15.15"
         width="15.9"
         xlink:href="#shape9"
         id="use50" />
    </g>
    <g
       id="shape9">
      <path
         d="m 12.5,6.45 q -0.4,-1.5 -1.7,-2.3 l -0.55,0.9 -0.7,1.1 0.1,0.35 2.7,-0.15 0.15,0.1 M 12.65,8 11.55,8.15 h -1.6 l 0.15,0.35 0.8,2.6 1.2,-1.2 Q 12.6,9.05 12.65,8 M 15.9,7.85 q 0,2.45 -1.05,4.2 -1.9,3.1 -6.75,3.1 -4.8,0 -6.9,-3.1 Q 0,10.3 0,8.55 0,4.6 2.5,2.2 4.7,0.1 7.95,0 q 3.2,-0.1 5.45,1.9 2.5,2.15 2.5,5.95 M 7.55,3.95 8.05,5.2 8.45,5.25 9,4.3 9.55,3.6 8,3.3 7.1,3.25 7.55,3.95 M 5.6,3.5 Q 3.75,4.1 3.45,6.35 L 4.7,6.05 q 0.95,-0.15 1.65,0 L 6.7,5.55 5.6,3.5 M 3.4,7.85 Q 3.45,9 4.05,9.9 L 5.25,11 Q 5.65,9.8 6.6,8.2 L 6.4,7.85 6.35,7.6 4.35,7.85 H 3.4 m 3.5,3.7 1.35,0.1 L 9.7,11.5 8.85,10.15 8.3,8.75 l -0.85,1.8 -0.55,1"
         fill="#9a9a9a"
         fill-rule="evenodd"
         stroke="none"
         id="path51" />
    </g>
    <g
       id="sprite10">
      <use
         ffdec:characterId="571"
         height="11.25"
         width="64.400002"
         xlink:href="#shape10"
         id="use51" />
    </g>
    <g
       id="shape10">
      <path
         d="M 62.05,3.45 Q 59.3,3.7 53.05,3.6 H 13.1 Q 6.35,3.8 3.05,3.45 l 0.2,1.8 h 0.1 l 0.05,2.7 57.7,0.1 h 1 l -0.15,-0.8 v -2 l 0.1,-1.8 M 64.4,0.7 v 9 l -0.25,0.2 -0.6,0.8 q -0.9,0.7 -2.45,0.35 L 2.2,11.2 1.7,11.25 1.25,11.2 H 1.15 Q 0.4,11 0,10.65 V 6.1 L 0.05,5.25 H 0.1 L 0.4,2.8 0,2.45 V 1.3 Q 0.3,0.75 1.15,0.55 L 13.1,0.1 h 39.95 l 9.75,0.3 q 0.3,-0.45 0.75,-0.4 0.5,0.05 0.85,0.7"
         fill="#6b6b6b"
         fill-rule="evenodd"
         stroke="none"
         id="path52" />
      <path
         d="m 62.05,3.45 -0.1,1.8 v 2 l 0.15,0.8 h -1 L 3.4,7.95 3.35,5.25 H 3.25 L 3.05,3.45 Q 6.35,3.8 13.1,3.6 h 39.95 q 6.25,0.1 9,-0.15"
         fill="#bfbfbf"
         fill-rule="evenodd"
         stroke="none"
         id="path53" />
    </g>
    <g
       id="sprite11">
      <use
         ffdec:characterId="573"
         height="24.200001"
         width="23"
         xlink:href="#shape11"
         id="use53" />
    </g>
    <g
       id="shape11">
      <path
         d="m 21.65,10.25 q -0.15,0.1 -0.15,3.1 v 2.35 h 0.1 0.05 q 0.85,0 1.05,0.6 l 0.3,3.25 v 0.55 0.1 0.1 q 0,2.35 -0.2,2.85 l -0.3,0.15 q -0.55,0.65 -2.45,0.85 L 17.3,24.2 9.8,23.65 8.9,23.85 q -1.15,0 -1.25,-1.2 -0.5,-0.8 -0.4,-2.7 Q 7.05,17.9 7.4,16.8 6.7,16.25 7.85,15.95 L 7.9,15.9 q 0.2,-0.15 0.35,-0.2 h 1.9 l -0.1,-0.75 Q 9.7,14.2 9.05,13.9 L 8.7,13.8 v 0.05 H 8.35 L 8.3,13.9 8.5,14.45 q 0,0.9 -0.6,1.1 l -3.25,0.3 H 4.1 4 3.9 L 1.05,15.65 0.9,15.35 Q 0.3,14.85 0.1,13.3 L 0.05,12.9 0,10.15 0.1,5.6 Q 0.25,3.85 0.55,2.65 0.3,2.3 0.35,1.75 0.35,0.6 1.55,0.5 2.35,0 4.25,0.1 L 7.4,0.25 q 0.55,-0.7 0.85,0.45 l 0.25,0.35 0.55,-0.1 4,0.35 q 3.65,0.75 5.5,2 0.6,0.1 1.2,1.15 0.55,1 1.3,3.35 l 0.6,2.45 m -1.4,9.7 V 19.6 19.55 L 20.35,17.8 18.5,18 H 14.85 L 11.1,17.9 9.95,17.75 V 18.5 L 10,19.55 v 0.3 0.45 l -0.1,1.15 0.15,0.25 2.9,-0.35 h 4.25 l 2.85,0.1 0.35,0.05 -0.1,-1.2 H 20.25 V 19.95 M 12.9,4 9.6,4.3 9.05,4.4 8.7,4.45 v 0.2 H 8.6 v 3.05 2.95 h 0.1 v 0.15 l 0.35,0.1 0.9,0.4 q 3.05,1.45 3.15,4.4 h 5.95 L 19,15 18.95,14.3 18.45,8.65 Q 17.45,5.1 12.9,4 M 5.7,2.8 4.65,2.85 H 4.35 3.9 L 2.75,2.75 2.5,2.9 2.85,5.8 v 4.25 L 2.75,12.9 2.7,13.25 3.9,13.15 V 13.1 H 4.25 4.6 4.65 L 6.4,13.2 6.2,11.35 V 7.7 L 6.3,3.95 6.45,2.8 H 5.7"
         fill="#6b6b6b"
         fill-rule="evenodd"
         stroke="none"
         id="path54" />
      <path
         d="M 5.7,2.8 H 6.45 L 6.3,3.95 6.2,7.7 v 3.65 L 6.4,13.2 4.65,13.1 H 4.6 4.25 3.9 v 0.05 l -1.2,0.1 0.05,-0.35 0.1,-2.85 V 5.8 L 2.5,2.9 2.75,2.75 3.9,2.85 h 0.45 0.3 L 5.7,2.8 M 12.9,4 q 4.55,1.1 5.55,4.65 l 0.5,5.65 0.05,0.7 0.05,0.7 H 13.1 Q 13,12.75 9.95,11.3 L 9.05,10.9 8.7,10.8 V 10.65 H 8.6 V 7.7 4.65 H 8.7 V 4.45 L 9.05,4.4 9.6,4.3 12.9,4 m 7.35,15.95 v 0.35 h 0.05 l 0.1,1.2 -0.35,-0.05 -2.85,-0.1 H 12.95 L 10.05,21.7 9.9,21.45 10,20.3 v -0.45 -0.3 L 9.95,18.5 v -0.75 l 1.15,0.15 3.75,0.1 h 3.65 l 1.85,-0.2 -0.1,1.75 v 0.05 0.35"
         fill="#9d8989"
         fill-rule="evenodd"
         stroke="none"
         id="path55" />
    </g>
    <g
       id="sprite12">
      <use
         ffdec:characterId="573"
         height="24.200001"
         width="23"
         xlink:href="#shape12"
         id="use55" />
    </g>
    <g
       id="shape12">
      <path
         d="m 21.65,10.25 q -0.15,0.1 -0.15,3.1 v 2.35 h 0.1 0.05 q 0.85,0 1.05,0.6 l 0.3,3.25 v 0.55 0.1 0.1 q 0,2.35 -0.2,2.85 l -0.3,0.15 q -0.55,0.65 -2.45,0.85 L 17.3,24.2 9.8,23.65 8.9,23.85 q -1.15,0 -1.25,-1.2 -0.5,-0.8 -0.4,-2.7 Q 7.05,17.9 7.4,16.8 6.7,16.25 7.85,15.95 L 7.9,15.9 q 0.2,-0.15 0.35,-0.2 h 1.9 l -0.1,-0.75 Q 9.7,14.2 9.05,13.9 L 8.7,13.8 v 0.05 H 8.35 L 8.3,13.9 8.5,14.45 q 0,0.9 -0.6,1.1 l -3.25,0.3 H 4.1 4 3.9 L 1.05,15.65 0.9,15.35 Q 0.3,14.85 0.1,13.3 L 0.05,12.9 0,10.15 0.1,5.6 Q 0.25,3.85 0.55,2.65 0.3,2.3 0.35,1.75 0.35,0.6 1.55,0.5 2.35,0 4.25,0.1 L 7.4,0.25 q 0.55,-0.7 0.85,0.45 l 0.25,0.35 0.55,-0.1 4,0.35 q 3.65,0.75 5.5,2 0.6,0.1 1.2,1.15 0.55,1 1.3,3.35 l 0.6,2.45 m -1.4,9.7 V 19.6 19.55 L 20.35,17.8 18.5,18 H 14.85 L 11.1,17.9 9.95,17.75 V 18.5 L 10,19.55 v 0.3 0.45 l -0.1,1.15 0.15,0.25 2.9,-0.35 h 4.25 l 2.85,0.1 0.35,0.05 -0.1,-1.2 H 20.25 V 19.95 M 12.9,4 9.6,4.3 9.05,4.4 8.7,4.45 v 0.2 H 8.6 v 3.05 2.95 h 0.1 v 0.15 l 0.35,0.1 0.9,0.4 q 3.05,1.45 3.15,4.4 h 5.95 L 19,15 18.95,14.3 18.45,8.65 Q 17.45,5.1 12.9,4 M 5.7,2.8 4.65,2.85 H 4.35 3.9 L 2.75,2.75 2.5,2.9 2.85,5.8 v 4.25 L 2.75,12.9 2.7,13.25 3.9,13.15 V 13.1 H 4.25 4.6 4.65 L 6.4,13.2 6.2,11.35 V 7.7 L 6.3,3.95 6.45,2.8 H 5.7"
         fill="#9a9a9a"
         fill-rule="evenodd"
         stroke="none"
         id="path56" />
      <path
         d="M 5.7,2.8 H 6.45 L 6.3,3.95 6.2,7.7 v 3.65 L 6.4,13.2 4.65,13.1 H 4.6 4.25 3.9 v 0.05 l -1.2,0.1 0.05,-0.35 0.1,-2.85 V 5.8 L 2.5,2.9 2.75,2.75 3.9,2.85 h 0.45 0.3 L 5.7,2.8 M 12.9,4 q 4.55,1.1 5.55,4.65 l 0.5,5.65 0.05,0.7 0.05,0.7 H 13.1 Q 13,12.75 9.95,11.3 L 9.05,10.9 8.7,10.8 V 10.65 H 8.6 V 7.7 4.65 H 8.7 V 4.45 L 9.05,4.4 9.6,4.3 12.9,4 m 7.35,15.95 v 0.35 h 0.05 l 0.1,1.2 -0.35,-0.05 -2.85,-0.1 H 12.95 L 10.05,21.7 9.9,21.45 10,20.3 v -0.45 -0.3 L 9.95,18.5 v -0.75 l 1.15,0.15 3.75,0.1 h 3.65 l 1.85,-0.2 -0.1,1.75 v 0.05 0.35"
         fill="#ada5a5"
         fill-rule="evenodd"
         stroke="none"
         id="path57" />
    </g>
    <g
       id="sprite13">
      <use
         ffdec:characterId="589"
         height="9.8000002"
         width="12.45"
         xlink:href="#shape13"
         id="use57" />
    </g>
    <g
       id="shape13">
      <path
         d="m 12.45,2.45 q 0,1.4 -1.35,2.95 -0.95,1.05 -1.95,1.5 L 9.4,8 q 0,1.8 -2,1.8 -1.75,0 -2.15,-0.9 V 8.6 h -2 L 0.5,6.55 Q 0,5.9 0,4.4 0,0.8 3.55,1 5.75,1.15 6.6,2.2 7.35,0.2 9.3,0 q 1.2,-0.1 2.15,0.65 1,0.75 1,1.8 M 3.35,7 5.3,7.15 Q 5.45,6.25 6.15,6 L 6.1,5.5 6.15,4.75 6.05,4.5 Q 5.5,2.45 3.25,2.45 1.4,2.45 1.3,4.1 V 4.25 Q 1.3,5.2 1.85,5.95 2.4,6.7 3.35,7 m 4,-1.6 V 5.9 L 8.1,6.1 9.6,4.95 q 1.9,-1.3 1.9,-2.3 0,-1.4 -2.1,-1.4 -1.8,0 -2.1,2.05 -0.15,1 0.05,2.1"
         fill="#9a9a9a"
         fill-rule="evenodd"
         stroke="none"
         id="path58" />
      <path
         d="M 1.3,4.25 V 4.1 Q 1.4,2.45 3.25,2.45 5.5,2.45 6.05,4.5 L 6.15,4.75 6.1,5.5 6.15,6 Q 5.45,6.25 5.3,7.15 L 3.35,7 Q 2.35,6.6 1.8,5.8 1.35,5.15 1.3,4.25 M 7.35,5.4 Q 7.15,4.3 7.3,3.3 7.6,1.25 9.4,1.25 q 2.1,0 2.1,1.4 0,1 -1.9,2.3 L 8.1,6.1 7.35,5.9 V 5.4"
         fill="#d2d2d2"
         fill-opacity="0.2"
         fill-rule="evenodd"
         stroke="none"
         id="path59" />
    </g>
    <g
       id="sprite14"
       transform="translate(-11.8)">
      <use
         ffdec:characterId="604"
         height="26.950001"
         transform="translate(11.8)"
         width="23"
         xlink:href="#shape14"
         id="use59" />
    </g>
    <g
       id="shape14"
       transform="translate(-11.8)">
      <path
         d="m 21.95,4.25 0.35,-0.8 q 0.75,-1.4 2.05,-1.4 1.35,0 2.35,0.45 1.15,0.55 1.15,1.45 0,0.55 -0.6,1.3 L 27,5.6 25.1,6 q -1.15,0.4 -2,0.9 L 22.8,6.6 22.2,5.9 21.9,4.95 21.95,4.25 m -0.25,8.7 v -0.1 l 0.2,-0.65 q 0,-1.45 0.8,-2.2 0.65,-0.7 3.55,-2.15 2.2,-0.65 3.35,1.55 0.75,1.5 0.75,2.75 l -0.55,2.7 -0.2,1 h -0.9 q -1.65,0.3 -1.75,1.4 -1.3,-0.5 -2.85,-1.6 l -0.65,-0.45 -0.2,-0.35 -1.55,-1.9 m 6.45,-1.4 V 11.4 L 26.6,11.85 Q 26.1,11 25.25,10.8 l 0.6,1.35 q -1.75,0.7 -1.75,1.05 -0.05,0.65 0.6,0.65 l 1.7,-0.65 0.95,1.1 0.2,-0.1 0.1,-0.25 -0.6,-1.25 1.1,-1.15"
         fill="#bababa"
         fill-rule="evenodd"
         stroke="none"
         id="path60" />
      <path
         d="m 32.35,12.15 q 0,1.65 -0.7,3.95 -1.05,3.5 -2.9,3.5 l -2.95,-0.5 -0.05,0.7 -0.05,0.45 q 1,0.2 1.5,0.5 h 0.1 l 0.85,-0.25 q 1.55,-0.35 1.55,0.2 l -0.65,0.7 -0.9,0.4 0.75,1 q 0.45,-1 1.8,-1 0.7,0 1.35,0.4 0.6,0.4 0.9,0.4 h 0.2 l 0.25,-0.85 q -0.5,-0.7 -0.5,-1 0,-1.05 0.95,-0.6 0.95,0.4 0.95,1.6 0,2.5 -2,2.5 -0.45,0 -1.95,-0.75 -0.7,0 -0.75,0.75 -0.05,0.4 0.05,0.8 0,0.7 -0.55,1.2 -0.8,0.7 -2.6,0.7 -2.85,0 -3.3,-1.65 L 23.4,24.15 23,23.75 q -1.5,0.8 -3.45,0.8 -4,0 -6.25,-3.65 -1.5,-2.5 -1.5,-4.35 0,-7.7 5.1,-10.05 1.4,-0.6 2.65,-0.6 L 19.5,5.3 q 0,-1.6 0.65,-2.6 0.4,-0.8 1.05,-1.45 1.3,-1.15 3.35,-1.25 1.9,-0.05 3.3,0.85 1.5,0.95 1.5,2.5 l -0.3,1.85 -0.2,0.55 q 1.5,0.45 2.4,1.95 1.1,1.85 1.1,4.45 M 22.2,5.9 22.8,6.6 23.1,6.9 Q 23.95,6.4 25.1,6 L 27,5.6 27.25,5.25 q 0.6,-0.75 0.6,-1.3 0,-0.9 -1.15,-1.45 -1,-0.45 -2.35,-0.45 -1.3,0 -2.05,1.4 l -0.35,0.8 -0.15,0.7 0.4,0.95 m 1.25,9.3 0.65,0.45 q 1.55,1.1 2.85,1.6 0.1,-1.1 1.75,-1.4 h 0.9 l 0.2,-1 0.55,-2.7 Q 30.35,10.9 29.6,9.4 28.45,7.2 26.25,7.85 23.35,9.3 22.7,10 q -0.8,0.75 -0.8,2.2 l -0.2,0.65 v 0.1 q 0.1,0.85 1.75,2.25 M 21,8.6 20.7,8.35 20.1,7.85 Q 16.85,8.05 15.25,11 13.9,13.35 13.9,16.55 v 0.1 l 0.15,0.85 q 0.3,1 1.2,2.3 1.75,2.7 4.4,2.7 1.15,0 2.25,-0.7 l -0.1,-0.05 q -1.85,-0.35 -1.85,-1 0,-1.25 3.7,-0.85 l 0.05,-0.4 -0.15,-1.6 -1.1,-0.85 -0.25,0.1 -3.15,0.1 q -0.75,0 -1,-0.45 L 17.9,16.35 q 0,-0.55 0.6,-0.75 l 2.1,-0.4 q -0.9,-1.1 -0.9,-1.85 0,-2.55 0.8,-4.05 L 21,8.6 m 7.15,2.95 -1.1,1.15 0.6,1.25 -0.1,0.25 -0.2,0.1 -0.95,-1.1 -1.7,0.65 q -0.65,0 -0.6,-0.65 0,-0.35 1.75,-1.05 l -0.6,-1.35 q 0.85,0.2 1.35,1.05 l 1.55,-0.45 v 0.15 m -3,12 q 0.6,1.5 1.9,1.5 1.3,0 1.6,-1.6 L 28.7,23.4 h -0.15 l -0.85,-0.7 -0.05,0.25 q -0.15,1.25 -0.5,1.25 -0.55,0 -0.7,-1.35 L 26.4,22.1 24.85,22.05 24.5,22.5 l 0.65,1.05"
         fill="#9a9a9a"
         fill-rule="evenodd"
         stroke="none"
         id="path61" />
      <path
         d="m 21,8.6 -0.5,0.7 q -0.8,1.5 -0.8,4.05 0,0.75 0.9,1.85 l -2.1,0.4 q -0.6,0.2 -0.6,0.75 l 0.15,0.45 q 0.25,0.45 1,0.45 l 3.15,-0.1 0.25,-0.1 1.1,0.85 0.15,1.6 -0.05,0.4 q -3.7,-0.4 -3.7,0.85 0,0.65 1.85,1 l 0.1,0.05 q -1.1,0.7 -2.25,0.7 -2.65,0 -4.4,-2.7 -0.9,-1.3 -1.2,-2.3 L 13.9,16.65 v -0.1 q 0,-3.2 1.35,-5.55 1.6,-2.95 4.85,-3.15 l 0.6,0.5 0.3,0.25"
         fill="#aaaaaa"
         fill-rule="evenodd"
         stroke="none"
         id="path62" />
    </g>
  </defs>
</svg>
