<?xml version="1.0" encoding="UTF-8" standalone="no"?>
<svg
   ffdec:objectType="frame"
   height="24.75"
   width="23.6"
   version="1.1"
   id="svg6"
   sodipodi:docname="1.svg"
   xmlns:inkscape="http://www.inkscape.org/namespaces/inkscape"
   xmlns:sodipodi="http://sodipodi.sourceforge.net/DTD/sodipodi-0.dtd"
   xmlns:xlink="http://www.w3.org/1999/xlink"
   xmlns="http://www.w3.org/2000/svg"
   xmlns:svg="http://www.w3.org/2000/svg"
   xmlns:ffdec="https://www.free-decompiler.com/flash">
  <sodipodi:namedview
     id="namedview6"
     pagecolor="#ffffff"
     bordercolor="#000000"
     borderopacity="0.25"
     inkscape:showpageshadow="2"
     inkscape:pageopacity="0.0"
     inkscape:pagecheckerboard="0"
     inkscape:deskcolor="#d1d1d1"
     fit-margin-top="5"
     fit-margin-left="5"
     fit-margin-right="5"
     fit-margin-bottom="5" />
  <g
     transform="translate(11.8,12.35)"
     id="g1">
    <use
       ffdec:characterId="3941"
       height="24.75"
       transform="translate(-11.8,-12.35)"
       width="23.6"
       xlink:href="#shape0"
       id="use1" />
  </g>
  <defs
     id="defs6">
    <g
       id="shape0"
       transform="translate(11.8,12.35)">
      <path
         d="m -4.4,-5.95 0.3,-0.25 0.05,-0.05 0.2,-0.1 h 10.5 l 0.2,0.15 0.3,0.3 -0.1,0.2 0.05,1.75 -0.15,1.35 0.6,0.55 q 0,0.45 -0.6,0.55 H 6.75 L -4,-1.4 -4.4,-1.65 -4.5,-1.7 -4.7,-2 l 0.15,-0.35 0.15,-2.1 v -0.2 l 0.15,-1.05 -0.2,-0.15 0.05,-0.1 m 12.75,-0.6 v -1.3 H -5.5 v 1.8 L -5.45,10.2 -5,10.15 -4.3,10.1 V 10 L -4.15,7.75 V 1.9 L -4.2,0.55 q -0.05,-0.4 0.25,-0.65 l 0.6,-0.25 0.25,9.95 V 10 10.05 L -2.35,10 -2.2,7.9 V 2.05 L -2.25,0.7 q -0.05,-0.6 0.5,-0.8 l 0.35,-0.1 0.25,9.95 V 10 h 0.8 l 0.2,-10.2 v -0.15 l 0.35,0.1 0.2,0.15 Q 0.75,0.15 0.7,0.65 L 0.65,2.15 V 8.7 L 0.8,10 H 1.85 Q 1.85,8.45 2,7.75 V 1.9 L 1.95,0.55 Q 1.9,0.15 2.2,-0.1 L 2.8,-0.35 3.05,9.6 V 10 H 3.8 Q 3.8,8.55 3.95,7.9 V 2.05 L 3.9,0.7 Q 3.85,0.1 4.4,-0.1 L 4.75,-0.2 5,9.75 V 10 H 5.8 L 6,-0.35 6.55,-0.1 Q 6.9,0.15 6.85,0.65 L 6.8,2.15 V 8.7 L 6.95,10 h 1.4 L 8.3,9.8 V 7.95 l 0.05,-14.5 m 1.55,-2.75 0.65,0.75 v 2.9 l 0.05,0.05 q 1.2,1.25 1.2,2.7 0,1.75 -1.2,2.7 V 7.9 10 Q 10.5,11.1 10,11.5 9.85,12.4 8.8,12.4 H -2 L -6.35,12 -6.5,11.95 h -0.05 q -1,0 -1.2,-4.05 V 5.15 l -0.7,0.05 q -2.45,0 -3.15,-2.85 l -0.2,-2.9 q 0,-4 1.1,-6.7 1.75,-4.45 6.05,-5 l 0.5,-0.1 q 1.05,0.1 1.05,2.1 v 0.3 h 12 q 0.8,0.15 1,0.65 m -13.5,5.2 0.05,1.4 7.9,0.1 -0.1,-1.25 v -0.5 l 0.15,-1.1 -8.15,0.05 0.1,1 0.05,0.3 M 6,-4.9 Q 6,-5.25 6.15,-5.45 H 5 l 0.3,2.85 h 1 L 6.1,-3.95 6,-4.9 m -11.2,-5.7 0.05,-0.25 H -5.2 l -1.9,0.45 -0.1,0.1 q -1.4,1.3 -2.3,3.8 l -0.45,2.8 -0.2,3.25 0.2,2.05 q 0.3,1.55 1.15,1.9 l -0.05,-0.25 -0.25,-1.6 0.35,-3.6 q 0.35,-2.1 1,-2.5 v -1.7 l -0.05,-1.25 0.2,-1.3 0.5,-0.65 q 0.2,-0.6 1,-0.6 h 0.75 L -5.2,-10.6 M -8,-1.1 -7.75,1.05 V -1.9 L -8,-1.1"
         fill="#6b6b6b"
         fill-rule="evenodd"
         stroke="none"
         id="path1" />
      <path
         d="m 6.85,-6.2 -0.2,-0.15 h -10.5 l -0.2,0.1 -0.05,0.05 -0.3,0.25 -1.1,-0.1 v -1.8 H 8.35 v 1.3 L 6.85,-6.2 M -4.4,-1.65 -4,-1.4 6.75,-1.5 6.8,-1.25 3.95,-0.6 0.2,-0.25 -0.15,-0.35 V -0.2 H -1.4 -1.6 l -2.4,-0.35 -0.75,-0.6 0.35,-0.5"
         fill="#b1b1b1"
         fill-rule="evenodd"
         stroke="none"
         id="path2" />
      <path
         d="m -4.4,-5.95 -0.05,0.1 0.2,0.15 -0.15,1.05 v 0.2 l -0.15,2.1 -0.15,0.35 0.2,0.3 0.1,0.05 -0.35,0.5 0.75,0.6 2.4,0.35 h 0.2 1.25 L -0.35,10 h -0.8 V 9.75 L -1.4,-0.2 -1.75,-0.1 Q -2.3,0.1 -2.25,0.7 L -2.2,2.05 V 7.9 L -2.35,10 -3.1,10.05 V 10 9.6 l -0.25,-9.95 -0.6,0.25 Q -4.25,0.15 -4.2,0.55 L -4.15,1.9 V 7.75 L -4.3,10 v 0.1 L -5,10.15 -5.45,10.2 -5.5,-6.05 l 1.1,0.1 M 6.75,-1.5 h 0.2 q 0.6,-0.1 0.6,-0.55 L 6.95,-2.6 7.1,-3.95 7.05,-5.7 7.15,-5.9 6.85,-6.2 8.35,-6.55 8.3,7.95 V 9.8 L 8.35,10 H 6.95 L 6.8,8.7 V 2.15 L 6.85,0.65 Q 6.9,0.15 6.55,-0.1 L 6,-0.35 5.8,10 H 5 V 9.75 L 4.75,-0.2 4.4,-0.1 Q 3.85,0.1 3.9,0.7 L 3.95,2.05 V 7.9 Q 3.8,8.55 3.8,10 H 3.05 V 9.6 L 2.8,-0.35 2.2,-0.1 Q 1.9,0.15 1.95,0.55 L 2,1.9 V 7.75 Q 1.85,8.45 1.85,10 H 0.8 L 0.65,8.7 V 2.15 L 0.7,0.65 Q 0.75,0.15 0.4,-0.1 L 0.2,-0.25 3.95,-0.6 6.8,-1.25 6.75,-1.5 m -5.5,-2.65 0.05,0.5 h 1.1 q 0.75,0 0.85,-0.25 0.1,0.25 0.1,-0.15 L 3.3,-4.25 h 0.35 l 0.6,-0.1 v 0.5 l 0.1,1.25 -7.9,-0.1 -0.05,-1.4 h 0.65 v 0.3 l 1.05,0.2 0.75,-0.05 q 0.15,0 0.15,-0.4 V -4.1 h 0.7 l 0.05,0.25 0.45,0.55 0.2,-0.05 0.25,-0.75 0.6,-0.05"
         fill="#9c9c9c"
         fill-rule="evenodd"
         stroke="none"
         id="path3" />
      <path
         d="M 3.3,-4.25 1.25,-4.2 v 0.05 L 0.65,-4.1 V -4.15 L 0.5,-4.75 0.2,-5.15 q -0.6,0.1 -0.6,0.65 l 0.1,0.4 H -1 l -0.05,-0.2 -0.1,-0.1 q -1.7,-0.25 -1.8,0.3 H -3.6 l -0.05,-0.3 -0.1,-1 8.15,-0.05 -0.15,1.1 -0.6,0.1 H 3.3"
         fill="#797979"
         fill-rule="evenodd"
         stroke="none"
         id="path4" />
      <path
         d="m 3.3,-4.25 0.05,0.2 q 0,0.4 -0.1,0.15 -0.1,0.25 -0.85,0.25 H 1.3 L 1.25,-4.15 V -4.2 L 3.3,-4.25 M 0.65,-4.1 0.4,-3.35 0.2,-3.3 -0.25,-3.85 -0.3,-4.1 -0.4,-4.5 q 0,-0.55 0.6,-0.65 l 0.3,0.4 0.15,0.6 v 0.05 m -1.65,0 v 0.05 q 0,0.4 -0.15,0.4 L -1.9,-3.6 -2.95,-3.8 v -0.3 q 0.1,-0.55 1.8,-0.3 l 0.1,0.1 0.05,0.2"
         fill="#d9d9d9"
         fill-rule="evenodd"
         stroke="none"
         id="path5" />
      <path
         d="m 6,-4.9 0.1,0.95 0.2,1.35 h -1 L 5,-5.45 H 6.15 Q 6,-5.25 6,-4.9"
         fill="#bdbdbd"
         fill-rule="evenodd"
         stroke="none"
         id="path6" />
    </g>
  </defs>
</svg>
