<?xml version="1.0" encoding="UTF-8" standalone="no"?>
<svg
   ffdec:objectType="frame"
   height="24.4"
   width="35.549999"
   version="1.1"
   id="svg7"
   sodipodi:docname="2.svg"
   xmlns:inkscape="http://www.inkscape.org/namespaces/inkscape"
   xmlns:sodipodi="http://sodipodi.sourceforge.net/DTD/sodipodi-0.dtd"
   xmlns:xlink="http://www.w3.org/1999/xlink"
   xmlns="http://www.w3.org/2000/svg"
   xmlns:svg="http://www.w3.org/2000/svg"
   xmlns:ffdec="https://www.free-decompiler.com/flash">
  <sodipodi:namedview
     id="namedview7"
     pagecolor="#ffffff"
     bordercolor="#000000"
     borderopacity="0.25"
     inkscape:showpageshadow="2"
     inkscape:pageopacity="0.0"
     inkscape:pagecheckerboard="0"
     inkscape:deskcolor="#d1d1d1"
     fit-margin-top="5"
     fit-margin-left="5"
     fit-margin-right="5"
     fit-margin-bottom="5" />
  <g
     transform="translate(16.8,15.95)"
     id="g2">
    <use
       ffdec:characterId="3560"
       height="24.4"
       transform="translate(-16.8,-15.95)"
       width="35.549999"
       xlink:href="#shape0"
       id="use1" />
    <use
       ffdec:characterId="3500"
       height="8"
       transform="matrix(0,-0.8625,-0.8625,0,-8.25,0.7074)"
       width="10.8"
       xlink:href="#sprite0"
       id="use2" />
  </g>
  <defs
     id="defs7">
    <g
       id="shape0"
       transform="translate(16.8,15.95)">
      <path
         d="M 5.6,2.3 V 2.8 Q 5.6,3.7 5,4.85 L 4.5,6.05 Q 3.35,8.45 1,8.45 L -2,8.2 -3.95,7.95 l -4.6,0.2 q -1.05,0 -2.9,-1.35 l -1.95,-1.7 -1.9,-3.25 -1.25,-3.5 -0.25,-2.9 q 0,-2.35 1.4,-5.95 2.1,-5.45 5.9,-5.45 1.8,0 3.1,0.9 l 1.6,1.2 2.45,1.05 0.65,0.35 Q 1.35,-14.2 2.55,-14.5 H 3.8 q 2.7,0 3.7,1.8 l 0.45,1.95 -0.05,1.7 0.5,-0.35 q 1.1,-0.9 3,-0.8 1.4,0.1 2.55,0.8 l 0.95,0.65 0.6,1.05 0.35,1.5 q -0.2,1.25 -0.6,2 1.6,0.35 2.4,2.1 l 0.55,1.65 0.05,0.8 q 0,1.7 -1.05,2.9 -1.5,1.8 -4.95,1.8 -2.1,0 -3.1,-2 L 8.9,2.15 6.65,2.3 H 5.6 4.55 5.6 m -1.4,0 0.05,0.35 h 0.1 0.1 L 4.55,2.3 H 4.2 2.75 L 1.7,2.1 2.75,2.3 H 4.2 M -7.4,-8.4 -7.55,-8.45 h -0.1 L -8.3,-8.7 H -8.35 L -8.5,-8.8 -8.65,-8.85 Q -9.5,-9.2 -9.8,-9.5 l -0.1,-0.15 0.1,-0.05 0.65,-0.1 h 0.05 0.25 0.5 l 0.2,-0.05 1.2,-0.2 0.35,-0.1 0.3,-0.05 0.35,-0.1 1.45,-0.6 0.55,-0.25 -0.5,-0.2 q -0.55,-0.2 -1.1,-0.5 L -6.2,-12.2 q -2.3,-1.4 -2.85,-1.4 -1.7,0 -2.95,1.55 l -0.8,1.3 -0.05,0.1 -0.1,0.25 -0.15,0.3 -0.4,1 -0.05,0.15 -0.05,0.15 v 0.1 l -0.05,0.05 -0.85,4.1 q 0,2.75 1.4,5.65 1.85,3.75 5.15,4.8 l 4.3,-0.05 -0.15,0.05 2.05,0.15 1.45,0.2 q 2.3,0 3.05,-1.4 L 2.65,3.4 V 3.25 L 1.8,3.3 Q 0,3.3 -0.95,1.4 L -1.25,0.6 -1.9,2.15 Q -3.35,4 -7.25,4 -8.7,4 -9.75,2.9 q -0.75,-0.8 -1,-1.6 l 0.05,-0.1 0.95,1 Q -9.05,3 -8.3,3 -3.25,3 -2.35,0.3 l 0.8,-3 q 0.6,-2.05 1.85,-3.7 l 0.1,0.15 -0.2,1.4 1.2,-0.8 2,-0.35 q 0.9,0.15 0.9,0.8 L 4.2,-4.9 H 3.35 2.8 3.35 4.2 6.6 L 6.5,-5.6 q 0,-1.15 0.3,-1.95 -0.25,-0.2 -0.3,-0.85 v -0.65 -0.3 L 6.4,-11 q -0.55,-1.45 -2.6,-1.45 -1.5,0 -3.65,1.45 l -1.1,0.75 -1.1,0.75 -0.15,0.1 -0.5,0.3 q -1.15,0.65 -2,0.9 H -4.85 L -5.7,-8.1 -7.1,-8.3 -7.4,-8.4 M 7.9,-9.05 q -0.75,0.55 -1.1,1.5 0.35,-0.95 1.1,-1.5 m -11.85,8.4 -0.35,0.05 q -0.9,0 -1,-1.05 0,-0.9 1,-0.85 1,0.05 1,0.85 l -0.2,0.65 -0.1,0.15 -0.35,0.2 M 9.35,-6.7 q 0,0.45 0.5,1.05 L 10.3,-4.3 10,-3.5 Q 9.6,-2.95 8.95,-2.95 L 8.7,-2.85 3.35,-2.5 H 1.8 q -0.4,1.2 -0.4,2.25 h 0.55 q 3.15,0.15 6.4,0.15 l 0.6,0.05 0.55,-0.2 q 0.25,0 1.2,1.55 1,1.5 2.5,1.5 1.5,0 2.35,-1.1 0.6,-0.75 0.6,-1.35 l -0.05,-0.8 -0.45,-1 q -0.6,-0.6 -2.5,-0.6 -0.65,0 -0.95,-0.45 l -0.15,-0.45 0.2,-0.65 -0.05,-0.1 q 0,-0.5 0.85,-1.25 0.85,-0.7 0.85,-1.6 0,-0.4 -0.85,-1.05 L 12.8,-7.8 11.45,-7.9 q -1.5,0 -2,0.95 l -0.1,0.25 m -6,-5.35 q 0.3,-0.2 0.65,0 l 0.05,0.4 -0.15,0.3 q -0.15,0.15 -0.3,0.15 -0.45,0 -0.45,-0.45 l 0.2,-0.4"
         fill="#6b6b6b"
         fill-rule="evenodd"
         stroke="none"
         id="path2" />
      <path
         d="m 9.35,-6.7 0.1,-0.25 q 0.5,-0.95 2,-0.95 l 1.35,0.1 0.25,0.2 q 0.85,0.65 0.85,1.05 0,0.9 -0.85,1.6 -0.85,0.75 -0.85,1.25 l 0.05,0.1 -0.2,0.65 0.15,0.45 q 0.3,0.45 0.95,0.45 1.9,0 2.5,0.6 l 0.45,1 0.05,0.8 q 0,0.6 -0.6,1.35 Q 14.7,2.8 13.2,2.8 11.7,2.8 10.7,1.3 9.75,-0.25 9.5,-0.25 l -0.55,0.2 -0.6,-0.05 q -3.25,0 -6.4,-0.15 H 1.4 q 0,-1.05 0.4,-2.25 h 1.55 l 5.35,-0.35 0.25,-0.1 q 0.65,0 1.05,-0.55 l 0.3,-0.8 -0.45,-1.35 q -0.5,-0.6 -0.5,-1.05"
         fill="#e2e2e2"
         fill-rule="evenodd"
         stroke="none"
         id="path3" />
      <path
         d="m -7.4,-8.4 0.3,0.1 1.1,0.75 q 1.6,0.85 3.55,0.85 1.85,0 3.25,-0.85 1.55,-0.9 4.1,-1.05 1.05,-0.05 1.6,-0.45 v 0.65 q 0.05,0.65 0.3,0.85 -0.3,0.8 -0.3,1.95 l 0.1,0.7 H 4.2 L 4.3,-5.2 Q 4.3,-5.85 3.4,-6 l -2,0.35 -1.2,0.8 0.2,-1.4 -0.1,-0.15 q -1.25,1.65 -1.85,3.7 l -0.8,3 Q -3.25,3 -8.3,3 -9.05,3 -9.75,2.2 l -0.95,-1 -0.05,0.1 q 0.25,0.8 1,1.6 1.05,1.1 2.5,1.1 3.9,0 5.35,-1.85 l 0.65,-1.55 0.3,0.8 Q 0,3.3 1.8,3.3 L 2.65,3.25 V 3.4 l 0.1,1.45 Q 2,6.25 -0.3,6.25 L -1.75,6.05 -3.8,5.9 -3.65,5.85 -7.95,5.9 q -3.3,-1.05 -5.15,-4.8 -1.4,-2.9 -1.4,-5.65 l 0.85,-4.1 0.3,0.2 0.25,0.15 q 0.8,0.6 2.05,0.6 h 0.5 0.4 q 1.65,0 2.75,-0.7 m 3.8,7.55 0.45,-0.5 Q -2.7,-2 -2.7,-2.7 q 0,-2.25 -2.45,-1.95 -1.55,0.15 -2.1,1.05 l -0.3,0.65 -0.1,0.7 q 0,1.8 2.7,1.8 l 1,-0.2 0.35,-0.2"
         fill="#867b7b"
         fill-rule="evenodd"
         stroke="none"
         id="path4" />
      <path
         d="m -13.65,-8.65 0.05,-0.05 v -0.1 l 0.05,-0.15 0.05,-0.15 0.4,-1 0.15,-0.3 0.1,-0.25 0.05,-0.1 0.8,-1.3 q 1.25,-1.55 2.95,-1.55 0.55,0 2.85,1.4 l 0.65,0.35 q 0.55,0.3 1.1,0.5 l 0.5,0.2 -0.55,0.25 -1.45,0.6 -0.35,0.1 -0.3,0.05 -0.35,0.1 -1.2,0.2 -0.2,0.05 h -0.5 -0.25 -0.05 l -0.65,0.1 -0.1,0.05 0.1,0.15 q 0.3,0.3 1.15,0.65 l 0.15,0.05 0.15,0.1 h 0.05 l 0.65,0.25 h 0.1 l 0.15,0.05 q -1.1,0.7 -2.75,0.7 h -0.4 -0.5 q -1.25,0 -2.05,-0.6 l -0.25,-0.15 -0.3,-0.2 m 6.55,0.35 1.4,0.2 0.85,-0.1 h 0.15 q 0.85,-0.25 2,-0.9 l 0.5,-0.3 0.15,-0.1 1.1,-0.75 1.1,-0.75 q 2.15,-1.45 3.65,-1.45 2.05,0 2.6,1.45 l 0.1,1.65 v 0.3 Q 5.95,-8.65 4.9,-8.6 2.35,-8.45 0.8,-7.55 -0.6,-6.7 -2.45,-6.7 -4.4,-6.7 -6,-7.55 L -7.1,-8.3 m 3.15,7.65 -1,0.2 q -2.7,0 -2.7,-1.8 l 0.1,-0.7 0.3,-0.65 q 0.55,-0.9 2.1,-1.05 2.45,-0.3 2.45,1.95 0,0.7 -0.45,1.35 l -0.45,0.5 0.1,-0.15 0.2,-0.65 q 0,-0.8 -1,-0.85 -1,-0.05 -1,0.85 0.1,1.05 1,1.05 l 0.35,-0.05 m 7.3,-11.4 -0.2,0.4 q 0,0.45 0.45,0.45 0.15,0 0.3,-0.15 l 0.15,-0.3 -0.05,-0.4 q -0.35,-0.2 -0.65,0"
         fill="#968a8a"
         fill-rule="evenodd"
         stroke="none"
         id="path5" />
      <path
         d="M 7.9,-9.05 8.4,-9.4 q 1.1,-0.9 3,-0.8 1.4,0.1 2.55,0.8 l 0.95,0.65 0.6,1.05 0.35,1.5 q -0.2,1.25 -0.6,2 1.6,0.35 2.4,2.1 l 0.55,1.65 0.05,0.8 q 0,1.7 -1.05,2.9 -1.5,1.8 -4.95,1.8 -2.1,0 -3.1,-2 L 8.9,2.15 6.65,2.3 H 5.6 4.55 4.2 2.75 L 1.7,2.1 M 6.8,-7.55 Q 7.15,-8.5 7.9,-9.05 M 2.8,-4.9 H 3.35 4.2 6.6 L 6.5,-5.6 q 0,-1.15 0.3,-1.95"
         fill="none"
         stroke="#6b6b6b"
         stroke-linecap="round"
         stroke-linejoin="round"
         stroke-width="1"
         id="path6" />
    </g>
    <g
       id="sprite0"
       transform="translate(5.4,4)">
      <use
         ffdec:characterId="43"
         height="8"
         transform="translate(-5.4,-4)"
         width="10.8"
         xlink:href="#shape1"
         id="use6" />
    </g>
    <g
       id="shape1"
       transform="translate(5.4,4)">
      <path
         d="m 2.9,-0.35 q 0,-1.25 1.25,-1.25 1.25,0 1.25,1.2 0,1.3 -1.25,1.3 Q 3.6,0.9 3.25,0.5 2.9,0.15 2.9,-0.35 m 0.35,-2.3 q 0,0.55 -0.35,0.9 -0.4,0.45 -1,0.45 -1.35,0 -1.35,-1.4 0,-1.3 1.35,-1.3 1.35,0 1.35,1.35 m -3.1,1.9 h 0.2 q 2.6,0.1 2.6,2.8 l -0.3,1 Q 2.05,4 0.45,4 H 0.35 0.15 0.1 -0.45 q -1.6,0 -2.2,-0.95 l -0.3,-1 q 0,-2.8 2.8,-2.8 h 0.3 M -1.55,-4 q 1.35,0 1.35,1.35 0,0.55 -0.4,0.9 -0.4,0.45 -0.95,0.45 -1.4,0 -1.4,-1.4 0,-1.3 1.4,-1.3 m -2.6,2.4 q 1.25,0 1.25,1.25 0,0.5 -0.35,0.85 -0.35,0.4 -0.9,0.4 -1.25,0 -1.25,-1.3 0,-1.2 1.25,-1.2"
         fill="#6b6b6b"
         fill-rule="evenodd"
         stroke="none"
         id="path7" />
    </g>
  </defs>
</svg>
