<?xml version="1.0" encoding="UTF-8" standalone="no"?>
<svg
   ffdec:objectType="frame"
   height="15.991949"
   width="16.356436"
   version="1.1"
   id="svg9"
   sodipodi:docname="2.svg"
   xmlns:inkscape="http://www.inkscape.org/namespaces/inkscape"
   xmlns:sodipodi="http://sodipodi.sourceforge.net/DTD/sodipodi-0.dtd"
   xmlns:xlink="http://www.w3.org/1999/xlink"
   xmlns="http://www.w3.org/2000/svg"
   xmlns:svg="http://www.w3.org/2000/svg"
   xmlns:ffdec="https://www.free-decompiler.com/flash">
  <sodipodi:namedview
     id="namedview9"
     pagecolor="#ffffff"
     bordercolor="#000000"
     borderopacity="0.25"
     inkscape:showpageshadow="2"
     inkscape:pageopacity="0.0"
     inkscape:pagecheckerboard="0"
     inkscape:deskcolor="#d1d1d1"
     fit-margin-top="5"
     fit-margin-left="5"
     fit-margin-right="5"
     fit-margin-bottom="5" />
  <g
     transform="translate(7.1055096,10.928461)"
     id="g3">
    <use
       ffdec:characterId="3892"
       height="9.5"
       transform="translate(-6.85,-4.9)"
       width="13.7"
       xlink:href="#shape0"
       id="use1" />
    <use
       ffdec:characterId="3758"
       height="22.450001"
       transform="matrix(0.713,0,0,0.713,-7.1143,-10.9361)"
       width="22.950001"
       xlink:href="#sprite0"
       id="use2" />
    <use
       ffdec:characterId="3500"
       height="8"
       transform="matrix(0.5085,-0.1743,-0.1743,-0.5085,-4.3986,-4.8752)"
       width="10.8"
       xlink:href="#sprite1"
       id="use3" />
  </g>
  <defs
     id="defs9">
    <g
       id="shape0"
       transform="translate(6.85,4.9)">
      <path
         d="m -3.65,-1.15 0.7,0.65 q 1.35,0.75 4.4,0.75 1,0 1.7,-0.65 Q 3.8,-0.95 3.8,-1.6 V -2 q 1.3,0.85 1.3,2.55 V 1.3 L 4.9,1.25 H -4.8 L -4,-0.7 -3.65,-1.15 M 5,2.1 4.9,2.9 V 3.15 L 0.85,3 -4.45,2.95 -4.6,2.55 -4.75,2.1 H 4.9 5"
         fill="#797979"
         fill-rule="evenodd"
         stroke="none"
         id="path3" />
      <path
         d="m 3.8,-2 v 0.4 q 0,0.65 -0.65,1.2 -0.7,0.65 -1.7,0.65 -3.05,0 -4.4,-0.75 l -0.7,-0.65 q 1.2,-1.75 3.25,-1.75 2.8,0 4.2,0.9"
         fill="#8e8e8e"
         fill-rule="evenodd"
         stroke="none"
         id="path4" />
      <path
         d="M -3.65,-1.15 -4,-0.7 -4.8,1.25 H 4.9 L 5.1,1.3 V 0.55 q 0,-1.7 -1.3,-2.55 -1.4,-0.9 -4.2,-0.9 -2.05,0 -3.25,1.75 m 10,5.1 q 0,0.4 -0.4,0.6 L 5.8,4.6 H -5.45 L -5.6,4.5 h -0.05 q -1,0 -1.2,-1.3 V 1.85 q 0,-1.85 0.9,-3.65 1.55,-3.1 5.15,-3.1 7.6,0 7.6,4.55 0.15,3.3 -0.45,4.1 v 0.2 M 5,2.1 H 4.9 -4.75 L -4.6,2.55 -4.45,2.95 0.85,3 4.9,3.15 V 2.9 L 5,2.1"
         fill="#6b6b6b"
         fill-rule="evenodd"
         stroke="none"
         id="path5" />
    </g>
    <g
       id="sprite0"
       transform="translate(11.45,11.2)">
      <use
         ffdec:characterId="3757"
         height="22.450001"
         transform="translate(-11.45,-11.2)"
         width="22.950001"
         xlink:href="#shape1"
         id="use5" />
    </g>
    <g
       id="shape1"
       transform="translate(11.45,11.2)">
      <path
         d="m 6.2,-6.95 -0.6,0.15 -0.55,0.75 -0.25,0.8 -0.15,0.35 1.6,1.15 1.15,1.3 h 0.4 l 1.3,-0.1 Q 9.8,-2.95 9.65,-4.1 9.6,-5.05 8.95,-6.1 8.4,-7.1 7,-7.05 l -0.8,0.1 m 2,-1.95 q 1.45,0.5 2.45,2.05 0.9,1.45 0.85,2.95 -0.1,1.55 -1.3,2.25 -0.7,0.4 -1.55,0.55 L 8.15,-1 Q 8.45,0.35 7.7,1.75 6.75,3.4 4.75,4.6 3.5,5.3 1.4,5.85 q -3.2,0.7 -4,-0.7 L -3.55,2.65 -4.1,2.9 -4.45,3.1 -4.2,4.45 -4.15,4.5 -3.6,5.05 q 0.95,1.05 0.55,1.3 L -3.9,6.15 -4.6,5.65 -5.05,6.7 q 1,-0.1 1.6,0.95 0.3,0.55 0.3,1.2 L -3.1,9.75 -3,9.9 -2.2,9.7 -1.65,8.85 q 0.8,-0.45 0.85,0.5 0.15,0.9 -0.75,1.4 -1.95,1.15 -2.85,-0.4 L -4.7,8.5 Q -5,7.95 -5.6,8.3 l -0.6,0.35 -1.2,0.1 Q -8.3,8.45 -9.1,7.1 -10.35,4.9 -9.25,3.8 l 0.7,-0.75 0.15,-0.5 q -1.3,-0.8 -2.15,-2.35 -1.8,-3.05 0.05,-6.4 1.2,-2.3 2.65,-3.1 5.95,-3.45 10.05,-0.6 l 1.7,1.8 0.4,-0.3 Q 5.55,-9.1 6.6,-9.05 L 8.2,-8.9 M 2.6,-1.5 Q 2.85,-0.75 2.45,0 l 1,1 L 3.3,1.05 2,0.7 1.25,1.8 H 1 L 0.85,1.7 1.3,0.45 q -1,-0.55 -1.25,-1 -0.3,-0.5 0.2,-0.75 0.25,-0.15 1.6,0.9 L 2.6,-1.5 m -2.55,-1.95 -0.6,0.15 -0.05,0.05 q -0.6,0.4 -1,2.35 l -0.05,0.7 Q -1.8,1.5 -1.6,2.7 -0.7,2.25 0.25,3.45 l 0.4,0.7 0.85,-0.3 2.35,-0.8 1.8,-1.8 q 1.2,-1.9 -0.3,-3.3 -2.4,-1.6 -3.25,-1.8 -0.9,-0.25 -2.05,0.4 M 2.45,-5.75 2.5,-6.1 2.6,-6.8 Q 0.95,-9.2 -2,-9.15 q -2.4,0 -4.9,1.45 L -7,-7.65 -7.6,-7.2 q -0.6,0.7 -1.2,2 -1.3,2.55 -0.15,4.6 0.55,0.9 1.6,1.45 V 0.7 q -0.6,-1.55 -0.1,-1.85 0.95,-0.55 2.3,2.5 L -4.8,1.2 -3.65,0.35 -3.5,-0.9 -3.65,-1.05 -5.15,-3.4 q -0.35,-0.6 -0.1,-1 l 0.3,-0.3 0.85,0.1 1.25,1.5 q 0.45,-1.2 1.05,-1.55 1.95,-1.15 3.45,-1.2 l 0.8,0.1 m -8.7,8.95 -0.5,-0.05 -0.5,0.95 q -0.9,1.15 -0.3,2.15 0.55,1 1.9,0.5 L -5.6,6.8 -5.65,6.7 -5.5,5.7 -5.7,5.8 -6.9,5.95 Q -7.1,5.5 -6.15,4.8 L -5.6,4.4 -6.25,3.2"
         fill="#6b6b6b"
         fill-rule="evenodd"
         stroke="none"
         id="path6" />
      <path
         d="M 5.05,-6.05 5.65,-6.7 6.2,-6.95 7,-7.05 q 1.4,-0.05 1.95,0.95 0.65,1.05 0.7,2 0.15,1.15 -0.55,1.55 l -1.3,0.1 H 7.4 L 6.25,-3.75 4.65,-4.9 4.8,-5.25 5.05,-6.05 m -5,2.6 q 1.15,-0.65 2.05,-0.4 0.85,0.2 3.25,1.8 1.5,1.4 0.3,3.3 L 3.85,3.05 1.5,3.85 0.65,4.15 0.25,3.45 Q -0.7,2.25 -1.6,2.7 -1.8,1.5 -1.65,-0.2 l 0.05,-0.7 q 0.4,-1.95 1,-2.35 l 0.05,-0.05 0.6,-0.15 M 2.6,-1.5 1.85,-0.4 q -1.35,-1.05 -1.6,-0.9 -0.5,0.25 -0.2,0.75 0.25,0.45 1.25,1 L 0.85,1.7 1,1.8 H 1.25 L 2,0.7 3.3,1.05 3.45,1 2.45,0 q 0.4,-0.75 0.15,-1.5"
         fill="#bfbfbf"
         fill-rule="evenodd"
         stroke="none"
         id="path7" />
      <path
         d="m 2.45,-5.75 -0.8,-0.1 q -1.5,0.05 -3.45,1.2 -0.6,0.35 -1.05,1.55 l -1.25,-1.5 -0.85,-0.1 -0.3,0.3 q -0.25,0.4 0.1,1 l 1.5,2.35 0.15,0.15 -0.15,1.25 -1.15,0.85 -0.35,0.15 q -1.35,-3.05 -2.3,-2.5 -0.5,0.3 0.1,1.85 V 0.85 Q -8.4,0.3 -8.95,-0.6 q -1.15,-2.05 0.15,-4.6 0.6,-1.3 1.2,-2 L -7,-7.65 -6.9,-7.7 Q -4.4,-9.15 -2,-9.15 0.95,-9.2 2.6,-6.8 l -0.1,0.7 -0.05,0.35"
         fill="#959595"
         fill-rule="evenodd"
         stroke="none"
         id="path8" />
    </g>
    <g
       id="sprite1"
       transform="translate(5.4,4)">
      <use
         ffdec:characterId="43"
         height="8"
         transform="translate(-5.4,-4)"
         width="10.8"
         xlink:href="#shape2"
         id="use8" />
    </g>
    <g
       id="shape2"
       transform="translate(5.4,4)">
      <path
         d="m 2.9,-0.35 q 0,-1.25 1.25,-1.25 1.25,0 1.25,1.2 0,1.3 -1.25,1.3 Q 3.6,0.9 3.25,0.5 2.9,0.15 2.9,-0.35 m 0.35,-2.3 q 0,0.55 -0.35,0.9 -0.4,0.45 -1,0.45 -1.35,0 -1.35,-1.4 0,-1.3 1.35,-1.3 1.35,0 1.35,1.35 m -3.1,1.9 h 0.2 q 2.6,0.1 2.6,2.8 l -0.3,1 Q 2.05,4 0.45,4 H 0.35 0.15 0.1 -0.45 q -1.6,0 -2.2,-0.95 l -0.3,-1 q 0,-2.8 2.8,-2.8 h 0.3 M -1.55,-4 q 1.35,0 1.35,1.35 0,0.55 -0.4,0.9 -0.4,0.45 -0.95,0.45 -1.4,0 -1.4,-1.4 0,-1.3 1.4,-1.3 m -2.6,2.4 q 1.25,0 1.25,1.25 0,0.5 -0.35,0.85 -0.35,0.4 -0.9,0.4 -1.25,0 -1.25,-1.3 0,-1.2 1.25,-1.2"
         fill="#6b6b6b"
         fill-rule="evenodd"
         stroke="none"
         id="path9" />
    </g>
  </defs>
</svg>
