<?xml version="1.0" encoding="UTF-8" standalone="no"?>
<svg
   ffdec:objectType="frame"
   height="69.952499"
   width="41.349998"
   version="1.1"
   id="svg9"
   sodipodi:docname="1.svg"
   xmlns:inkscape="http://www.inkscape.org/namespaces/inkscape"
   xmlns:sodipodi="http://sodipodi.sourceforge.net/DTD/sodipodi-0.dtd"
   xmlns:xlink="http://www.w3.org/1999/xlink"
   xmlns="http://www.w3.org/2000/svg"
   xmlns:svg="http://www.w3.org/2000/svg"
   xmlns:ffdec="https://www.free-decompiler.com/flash">
  <sodipodi:namedview
     id="namedview9"
     pagecolor="#ffffff"
     bordercolor="#000000"
     borderopacity="0.25"
     inkscape:showpageshadow="2"
     inkscape:pageopacity="0.0"
     inkscape:pagecheckerboard="0"
     inkscape:deskcolor="#d1d1d1"
     fit-margin-top="5"
     fit-margin-left="5"
     fit-margin-right="5"
     fit-margin-bottom="5" />
  <g
     transform="translate(20.65,35.0025)"
     id="g1">
    <use
       ffdec:characterId="1833"
       height="69.949997"
       transform="translate(-20.65,-35)"
       width="41.349998"
       xlink:href="#shape0"
       id="use1" />
  </g>
  <defs
     id="defs9">
    <g
       id="shape0"
       transform="translate(20.65,35)">
      <path
         d="m 5.9,-32.3 q 0.85,0 1.95,1.05 2.75,2.6 2.75,7.2 l -0.2,1.95 q -0.3,2.35 -1.05,4.3 -2.55,6.1 -8.85,6.1 -2.9,0 -5.05,-0.85 -3,-1.2 -4.6,-4.05 l -0.4,-0.8 q -1.25,-2.75 -1.25,-6.8 l 0.15,-3.5 q 0.3,-1.15 1.5,-2.75 l 0.75,-1 2.7,-0.15 0.45,2.25 -0.9,7.6 0.85,3.1 0.75,1.1 q 1.6,1.8 4.8,1.8 3.65,0 4.95,-3.6 0.5,-1.5 0.5,-4.05 l -0.65,-7.75 q 0,-1.15 0.85,-1.15 m 4.55,21.85 q 1.1,-0.9 3,-0.85 l 0.7,0.5 -1.35,3.25 -1.55,2.3 -0.75,-0.9 q -0.85,-0.95 -0.85,-2.9 0,-0.75 0.8,-1.4 m -8.2,1.5 1.8,-0.3 q 2.05,0.65 2.05,2.55 0,1.1 -0.55,2.15 -1.1,2 -3.8,2 -1.4,0 -2.15,-1.45 -0.55,-1.05 -0.55,-1.95 0,-0.75 1.3,-1.65 l 1.9,-1.35 M -10.3,-3 l -1.35,-0.95 0.3,-1.2 q 0.1,-1.15 1.75,-1.15 l 0.45,0.05 q 1.15,0.1 2.1,0.95 1,0.9 1,1.4 0,1.15 -1.05,1.8 l -0.15,0.1 -0.5,0.35 -1.4,-0.7 L -10.3,-3 m -6.75,-11.75 q -0.1,-0.85 0.2,-1.55 0.6,-1.35 3,-1.35 l 1.3,0.1 q 0.65,2 1.75,3.55 l 0.9,1.15 -0.55,0.45 q -1.2,1.1 -3.9,1.1 -1.95,0 -2.5,-1.5 -0.2,-0.5 -0.2,-1.95"
         fill="#e0e0e0"
         fill-rule="evenodd"
         stroke="none"
         id="path1" />
      <path
         d="m 5.9,-32.3 q -0.85,0 -0.85,1.15 l 0.65,7.75 q 0,2.55 -0.5,4.05 -1.3,3.6 -4.95,3.6 -3.2,0 -4.8,-1.8 l -0.75,-1.1 -0.85,-3.1 0.9,-7.6 -0.45,-2.25 -2.7,0.15 -0.75,1 q -1.2,1.6 -1.5,2.75 l -0.15,3.5 q 0,4.05 1.25,6.8 l 0.4,0.8 q 1.6,2.85 4.6,4.05 2.15,0.85 5.05,0.85 6.3,0 8.85,-6.1 0.75,-1.95 1.05,-4.3 l 0.2,-1.95 q 0,-4.6 -2.75,-7.2 -1.1,-1.05 -1.95,-1.05 m -3.05,5.9 -0.3,-2.7 -1.6,0.35 q -1,0.15 -1.25,0.75 l 0.2,1 v 0.05 q 0.55,0.4 2.15,0.45 l 0.8,0.1 m 3.6,-8.6 q 4.05,0.1 5.05,3.15 1.7,3.05 1.9,7.05 2.4,0.55 3.6,4.4 0.65,2.3 0.7,4.75 0,5.25 -2.65,10.1 -1.55,2.85 -3.85,4.75 2.2,-0.95 3.6,-1.85 l 3.25,-2.75 q 1.2,-0.8 1.85,-0.8 0.8,0 0.8,1.4 l -0.8,2.2 q -0.85,1.9 -0.85,3.2 l -0.1,5.25 q -0.05,2.6 -1.95,5.1 -1.1,1.4 -2.55,2.35 l 0.1,-0.05 Q 15.8,13.2 15.8,17.2 l -0.05,1.25 -0.1,0.5 0.05,0.3 q 0,0.95 -1.2,1.2 l -1.75,0.1 v 0.05 0.2 0.4 l -0.8,6.15 -0.65,4.9 v 0.1 h -0.05 l -0.05,0.2 -0.05,0.55 0.05,0.95 q -0.15,0.55 -1.35,0.9 H -8.2 q -1.2,-0.35 -1.4,-0.9 l 0.1,-0.95 -0.05,-0.55 -0.05,-0.2 -0.05,-0.1 -0.65,-4.9 -0.85,-6.15 0.05,-0.6 v -0.05 l -1.75,-0.1 q -1.2,-0.25 -1.2,-1.2 l 0.05,-0.3 -0.15,-0.5 -0.05,-1.25 0.15,-2.2 q -1.75,-0.6 -2.9,-2.1 l -0.2,-0.2 -0.1,-0.2 q -1.25,-1.85 -1.25,-3.25 0,-3.7 0.4,-7.2 0,-0.65 0.3,-0.95 0.2,-0.3 0.65,-0.35 l 0.2,-0.05 q 0.65,0 1.25,0.4 l 1.1,0.85 q 1.05,0.55 4.25,0.5 1.5,-0.05 2.6,0.5 L -7.4,2.85 -7.1,2.3 -7.05,2 H -7.1 L -9.6,1.1 q -3.3,-1.45 -5.75,-4.1 l -1.6,-1.9 -0.2,-0.25 q -3.5,-4.9 -3.5,-8.45 0,-4.05 1.65,-7.65 l 1.85,-2.95 q 1.55,-1.75 3.7,-2.3 l 0.45,-3.15 q 1.05,-3.3 3.85,-4.35 l 2.9,-0.45 1.7,0.25 q 1.25,0.35 1.75,1.35 0.35,0.75 0.25,1.6 l -0.05,1.25 0.35,0.2 1,0.7 q 1,-0.9 3.7,-0.95 l -0.1,-1.15 q 0,-3.9 4.1,-3.8 m 6.6,14.9 q -0.45,2.25 -1.4,4.35 -2.15,4.55 -6.3,6.1 2.1,1.45 2.1,3 0,1.8 -1.05,3.35 -1.45,2.25 -4.3,2.25 -2.15,0 -3.4,-1.6 -0.8,-1.1 -0.8,-1.75 0,-3.2 1.85,-4.45 l -4.3,-0.65 q -2.65,-0.85 -4.55,-2.55 h -0.05 l -1.15,0.85 q -1.75,1 -4.3,1 -1.6,0 -2.5,-0.8 0.85,1.9 2.7,4.2 l 1.7,1.9 v -0.3 q 0,-3.15 3.55,-2.7 l 0.5,0.05 q 4.05,0.7 4.05,4.1 0,1.2 -0.4,1.9 l -0.7,0.85 1.15,0.25 4.15,0.4 q 6,0 9.75,-2.95 Q 8.8,-3.8 8.55,-4.7 L 8.4,-6.85 q 0,-2.6 0.6,-3.65 1.35,-2.15 5.4,-1.1 0.45,-1.95 0.45,-3.85 0,-1.85 -1.8,-4.65 m -10.2,-1.8 0.1,-2.15 H 1.6 q -0.75,0 -1,0.6 l -0.05,0.15 q 0.4,0.55 0.4,1.05 l 1.55,0.35 0.35,0.05 v -0.05 m -0.6,12.95 -1.9,1.35 q -1.3,0.9 -1.3,1.65 0,0.9 0.55,1.95 0.75,1.45 2.15,1.45 2.7,0 3.8,-2 Q 6.1,-5.6 6.1,-6.7 6.1,-8.6 4.05,-9.25 l -1.8,0.3 m 8.2,-1.5 q -0.8,0.65 -0.8,1.4 0,1.95 0.85,2.9 l 0.75,0.9 1.55,-2.3 1.35,-3.25 -0.7,-0.5 q -1.9,-0.05 -3,0.85 m 3.35,21.3 q 1.45,-0.9 2,-2 L 16.5,6.8 Q 17.15,5.15 17.15,2.75 L 17.1,-1.3 Q 6.2,3 4.8,5.95 3.9,7.85 5,12.15 5.5,10.3 8.25,6.8 11.85,2.1 13.95,2.9 10.6,5.15 8,9.7 v 0.05 q 0.4,-0.2 0.95,-0.3 2.7,-0.45 2.7,1.7 V 11.3 L 13.8,10.85 M 2.65,2.7 -0.4,2.9 -3.75,2.7 l -0.8,1 -0.7,0.8 Q -6.85,6.45 -7.1,8 L -7.15,8.55 -7.1,8.9 q 0.15,0.9 1.3,1.9 l 1.25,-0.15 h 0.45 q 1.7,0.05 2.3,1 l 0.4,-0.45 q 0.55,-0.45 1.35,-0.35 L -0.35,9.8 -0.8,8.35 -0.7,6.3 Q -0.4,5.4 1.1,4.25 L 2.65,2.7 M 2.7,5.55 2.5,5.65 q -1,1.5 -1,2.6 0,1.05 0.8,2.05 V 10.05 Q 2.3,7.5 3.05,5.3 L 2.7,5.55 m 5.2,6.6 0.25,0.4 q 0.6,0.6 1.45,0.6 1.9,0 1.9,-1.25 0,-1.7 -1.85,-1.55 -1.9,0.2 -1.9,1.4 v 0.15 l 0.1,0.25 H 7.9 m 0,3.9 -0.5,-0.1 H -5.75 l -0.5,0.1 h -5.45 v 1.15 0.95 h 1.2 l 0.45,0.05 h 21.7 l 0.45,-0.05 h 1.25 V 17.2 16.05 H 7.9 m 2,4.75 0.05,-0.2 H 10 l 0.05,-0.15 V 20.4 H -8.4 v 0.05 l 0.05,0.15 h 0.05 l 0.05,0.2 v 0.15 l 0.45,5.2 0.45,5.55 0.1,0.5 v 0.15 l 1.25,0.1 h 3.25 V 32.4 L 8.9,32.35 V 32.2 L 8.95,31.7 9.4,26.15 9.85,20.95 9.9,20.8 m -13.65,-45.75 0.25,-0.1 q 1.25,-0.55 1.5,-1.4 v -0.15 l 0.05,-0.7 -1,-0.85 -0.3,0.85 -0.5,2.35 m -0.15,2.55 0.65,1.95 0.3,0.55 0.8,-0.35 q 1.25,-0.5 1.4,-1.05 -0.55,-0.6 -0.55,-1.2 l -1.85,-0.2 H -3.9 v 0.3 m 2.8,3.75 h -0.05 l 0.1,0.05 -0.05,-0.05 M -13,-19.2 q -0.5,-2.3 -0.5,-5.05 v -0.6 q -1.65,1.55 -2.8,4.5 l -0.85,2.25 -0.15,0.65 0.15,-0.2 q 0.95,-0.9 2.8,-1.35 l 1.35,-0.2 m -4.05,4.45 q 0,1.45 0.2,1.95 0.55,1.5 2.5,1.5 2.7,0 3.9,-1.1 l 0.55,-0.45 -0.9,-1.15 q -1.1,-1.55 -1.75,-3.55 l -1.3,-0.1 q -2.4,0 -3,1.35 -0.3,0.7 -0.2,1.55 m 6.75,11.75 1.15,0.65 1.4,0.7 0.5,-0.35 0.15,-0.1 q 1.05,-0.65 1.05,-1.8 0,-0.5 -1,-1.4 Q -8,-6.15 -9.15,-6.25 L -9.6,-6.3 q -1.65,0 -1.75,1.15 l -0.3,1.2 1.35,0.95 M -8.75,4.65 -8.8,4.6 -8.95,4.55 Q -14.4,4.3 -16.25,3 l -0.2,2.2 q 0,3.35 0.7,4.7 0.8,1.8 2.95,3 l 1,0.5 h 3.9 l -0.35,-0.5 -0.2,-0.35 -1,-2.3 -2.2,-1.45 q -2.4,-1.75 -2.4,-2.6 L -14,5.8 v 0.1 q 1.1,0.2 3.25,1.7 L -9.7,8.45 Q -9.5,6.5 -8.6,5.25 L -8.25,4.8 -8.65,4.7 H -8.8 l 0.05,-0.05 m 4.3,7.35 h -0.3 v -0.05 h -0.8 l 0.05,0.35 -0.2,0.2 h -0.05 l -0.15,0.55 q 0,0.7 0.2,0.4 h 1 l 0.15,0.1 0.2,0.2 1.25,-0.3 h 0.3 0.55 V 13.4 L -2.1,13.35 -1.9,12.8 Q -2.25,12.6 -2.55,12.5 L -3.1,12.05 H -3.65 L -4.5,11.95 -4.45,12 m 3.3,1.6 0.4,0.3 0.5,0.05 q 0.95,0 1.2,-1.05 0,-1.1 -1.15,-1.1 -1.1,0 -1.1,1.1 l 0.15,0.7"
         fill="#6b6b6b"
         fill-rule="evenodd"
         stroke="none"
         id="path2" />
      <path
         d="m 2.85,-26.4 -0.8,-0.1 q -1.6,-0.05 -2.15,-0.45 V -27 l -0.2,-1 q 0.25,-0.6 1.25,-0.75 l 1.6,-0.35 0.3,2.7 m 0,4.5 v 0.05 L 2.5,-21.9 0.95,-22.25 q 0,-0.5 -0.4,-1.05 l 0.05,-0.15 q 0.25,-0.6 1,-0.6 h 1.35 l -0.1,2.15 m -6.75,-0.5 v -0.3 h 0.75 l 1.85,0.2 q 0,0.6 0.55,1.2 -0.15,0.55 -1.4,1.05 l -0.8,0.35 -0.3,-0.55 -0.65,-1.95 m 0.15,-2.55 0.5,-2.35 0.3,-0.85 1,0.85 -0.05,0.7 v 0.15 q -0.25,0.85 -1.5,1.4 l -0.25,0.1"
         fill="#ffffff"
         fill-rule="evenodd"
         stroke="none"
         id="path3" />
      <path
         d="M 7.75,11.9 7.9,12.15 H 7.85 L 7.75,11.9 M 9.9,20.8 9.85,20.95 9.4,26.15 8.95,31.7 8.9,32.2 v 0.15 L -2.75,32.4 v 0.05 H -6 l -1.25,-0.1 V 32.2 l -0.1,-0.5 -0.45,-5.55 -0.45,-5.2 V 20.8 L -8.3,20.6 H -8.35 L -8.4,20.45 V 20.4 h 18.45 v 0.05 L 10,20.6 H 9.95 L 9.9,20.8 M -4.45,12 -4.5,11.95 -3.65,12.05 -4.45,12 m 2.2,1.4 v 0.05 H -2.8 l 0.55,-0.05"
         fill="#a6a6a6"
         fill-rule="evenodd"
         stroke="none"
         id="path4" />
      <path
         d="m 7.75,11.9 v -0.15 q 0,-1.2 1.9,-1.4 1.85,-0.15 1.85,1.55 0,1.25 -1.9,1.25 -0.85,0 -1.45,-0.6 L 7.9,12.15 7.75,11.9 M -2.8,13.45 h -0.3 l -1.25,0.3 -0.2,-0.2 -0.15,-0.1 h -1 q -0.2,0.3 -0.2,-0.4 l 0.15,-0.55 h 0.05 l 0.2,-0.2 -0.05,-0.35 h 0.8 V 12 h 0.3 l 0.8,0.05 h 0.55 l 0.55,0.45 q 0.3,0.1 0.65,0.3 l -0.2,0.55 -0.15,0.05 -0.55,0.05 m 1.65,0.15 -0.15,-0.7 q 0,-1.1 1.1,-1.1 1.15,0 1.15,1.1 -0.25,1.05 -1.2,1.05 l -0.5,-0.05 -0.4,-0.3"
         fill="#7b7b7b"
         fill-rule="evenodd"
         stroke="none"
         id="path5" />
      <path
         d="m 7.9,16.05 h 5.45 v 1.15 0.95 H 12.1 l -0.45,0.05 h -21.7 l -0.45,-0.05 h -1.2 V 17.2 16.05 h 5.45 l 0.5,-0.1 H 7.4 l 0.5,0.1"
         fill="#b8b8b8"
         fill-rule="evenodd"
         stroke="none"
         id="path6" />
      <path
         d="m 13.05,-20.1 q 1.8,2.8 1.8,4.65 0,1.9 -0.45,3.85 -4.05,-1.05 -5.4,1.1 -0.6,1.05 -0.6,3.65 l 0.15,2.15 q 0.25,0.9 0.8,1.4 -3.75,2.95 -9.75,2.95 L -4.55,-0.75 -5.7,-1 -5,-1.85 q 0.4,-0.7 0.4,-1.9 0,-3.4 -4.05,-4.1 l -0.5,-0.05 q -3.55,-0.45 -3.55,2.7 v 0.3 l -1.7,-1.9 q -1.85,-2.3 -2.7,-4.2 0.9,0.8 2.5,0.8 2.55,0 4.3,-1 l 1.15,-0.85 h 0.05 q 1.9,1.7 4.55,2.55 l 4.3,0.65 q -1.85,1.25 -1.85,4.45 0,0.65 0.8,1.75 1.25,1.6 3.4,1.6 2.85,0 4.3,-2.25 1.05,-1.55 1.05,-3.35 0,-1.55 -2.1,-3 4.15,-1.55 6.3,-6.1 0.95,-2.1 1.4,-4.35 m -26.05,0.9 -1.35,0.2 q -1.85,0.45 -2.8,1.35 l -0.15,0.2 0.15,-0.65 0.85,-2.25 q 1.15,-2.95 2.8,-4.5 v 0.6 q 0,2.75 0.5,5.05"
         fill="#837777"
         fill-rule="evenodd"
         stroke="none"
         id="path7" />
      <path
         d="M 13.8,10.85 11.65,11.3 V 11.15 Q 11.65,9 8.95,9.45 8.4,9.55 8,9.75 V 9.7 Q 10.6,5.15 13.95,2.9 11.85,2.1 8.25,6.8 5.5,10.3 5,12.15 3.9,7.85 4.8,5.95 6.2,3 17.1,-1.3 l 0.05,4.05 q 0,2.4 -0.65,4.05 l -0.7,2.05 q -0.55,1.1 -2,2 M -8.75,4.65 -8.8,4.7 h 0.15 l 0.4,0.1 -0.35,0.45 Q -9.5,6.5 -9.7,8.45 L -10.75,7.6 Q -12.9,6.1 -14,5.9 V 5.8 l -0.05,0.4 q 0,0.85 2.4,2.6 l 2.2,1.45 1,2.3 0.2,0.35 0.35,0.5 h -3.9 l -1,-0.5 q -2.15,-1.2 -2.95,-3 -0.7,-1.35 -0.7,-4.7 l 0.2,-2.2 q 1.85,1.3 7.3,1.55 l 0.15,0.05 0.05,0.05"
         fill="#8b9a88"
         fill-rule="evenodd"
         stroke="none"
         id="path8" />
      <path
         d="M 2.65,2.7 1.1,4.25 Q -0.4,5.4 -0.7,6.3 l -0.1,2.05 0.45,1.45 0.3,1.05 q -0.8,-0.1 -1.35,0.35 l -0.4,0.45 q -0.6,-0.95 -2.3,-1 H -4.55 L -5.8,10.8 Q -6.95,9.8 -7.1,8.9 L -7.15,8.55 -7.1,8 q 0.25,-1.55 1.85,-3.5 l 0.7,-0.8 0.8,-1 3.35,0.2 3.05,-0.2"
         fill="#7c8879"
         fill-rule="evenodd"
         stroke="none"
         id="path9" />
    </g>
  </defs>
</svg>
