<?xml version="1.0" encoding="UTF-8" standalone="no"?>
<svg
   ffdec:objectType="frame"
   height="28.920488"
   width="20.450001"
   version="1.1"
   id="svg15"
   sodipodi:docname="1.svg"
   xmlns:inkscape="http://www.inkscape.org/namespaces/inkscape"
   xmlns:sodipodi="http://sodipodi.sourceforge.net/DTD/sodipodi-0.dtd"
   xmlns:xlink="http://www.w3.org/1999/xlink"
   xmlns="http://www.w3.org/2000/svg"
   xmlns:svg="http://www.w3.org/2000/svg"
   xmlns:ffdec="https://www.free-decompiler.com/flash">
  <sodipodi:namedview
     id="namedview15"
     pagecolor="#ffffff"
     bordercolor="#000000"
     borderopacity="0.25"
     inkscape:showpageshadow="2"
     inkscape:pageopacity="0.0"
     inkscape:pagecheckerboard="0"
     inkscape:deskcolor="#d1d1d1"
     fit-margin-top="5"
     fit-margin-left="5"
     fit-margin-right="5"
     fit-margin-bottom="5" />
  <g
     transform="translate(10.2,14.44)"
     id="g5">
    <use
       ffdec:characterId="4010"
       height="20.700001"
       transform="translate(-8.65,-7.15)"
       width="17.5"
       xlink:href="#shape0"
       id="use1" />
    <use
       ffdec:characterId="4013"
       height="27.5"
       transform="matrix(-0.8205,0,0,0.8205,6.8127,-9.9304)"
       width="17.1"
       xlink:href="#sprite0"
       id="use2" />
    <use
       ffdec:characterId="4016"
       height="13.5"
       transform="matrix(-0.6247,0,0,0.6247,5.7796,-4.4926)"
       width="10.5"
       xlink:href="#sprite3"
       id="use3" />
    <use
       ffdec:characterId="4017"
       height="9.6999998"
       transform="matrix(0.822,0,0,0.822,-9.6155,0.8311)"
       width="23.299999"
       xlink:href="#sprite5"
       id="use4" />
    <use
       ffdec:characterId="4018"
       height="28.950001"
       transform="translate(-10.2,-14.45)"
       width="20.450001"
       xlink:href="#shape4"
       id="use5" />
  </g>
  <defs
     id="defs15">
    <g
       id="shape0"
       transform="translate(8.65,7.15)">
      <path
         d="m 8.7,-1.85 0.05,0.1 V 4 l 0.1,5.2 q 0,2.1 -0.75,2.9 -1.7,1.8 -7.2,1.35 l -4,-0.2 Q -8.45,12.35 -8.25,9.8 l -0.4,-4.05 0.1,-1.25 v -5.65 l 0.2,-3.6 q 0.5,-1.1 0.45,-2.15 l 5.7,-0.15 2.15,0.05 6.15,-0.1 2.5,0.4 q 0.25,0.25 0.1,0.65 v 4.2"
         fill="#88979b"
         fill-opacity="0.74902"
         fill-rule="evenodd"
         stroke="none"
         id="path5" />
    </g>
    <g
       id="sprite0"
       transform="translate(7.45,22.95)">
      <use
         ffdec:characterId="4012"
         height="27.5"
         transform="translate(-7.45,-22.95)"
         width="17.1"
         xlink:href="#sprite1"
         id="use6" />
    </g>
    <g
       id="sprite1"
       transform="translate(5.45,22.95)">
      <use
         ffdec:characterId="4011"
         height="5.25"
         transform="scale(0.7692)"
         width="5.0999999"
         xlink:href="#sprite2"
         id="use7" />
    </g>
    <g
       id="sprite2">
      <use
         ffdec:characterId="1852"
         height="5.25"
         width="5.0999999"
         xlink:href="#shape1"
         id="use8" />
    </g>
    <g
       id="shape1">
      <path
         d="M 3.4,1.1 2.1,1.2 1.55,2.05 Q 1.15,2.7 1.3,3.1 1.4,3.45 2.2,4 3,4.55 3.5,4.3 3.95,4.05 4.25,2.6 4.25,1.35 3.4,1.1 M 0.35,4.2 Q 0,3.6 0,2.9 0,0.55 2.55,0.1 5.1,-0.35 5.1,1.55 5.1,5.25 2.6,5.25 1,5.25 0.35,4.2"
         fill="#999999"
         fill-rule="evenodd"
         stroke="none"
         id="path8" />
    </g>
    <g
       id="sprite3"
       transform="translate(5.25,3.75)">
      <use
         ffdec:characterId="4015"
         height="9.1000004"
         transform="matrix(0.8268,0,0,0.8268,-5.25,-3.7618)"
         width="12.7"
         xlink:href="#sprite4"
         id="use9" />
    </g>
    <g
       id="sprite4"
       transform="translate(6.35,4.55)">
      <use
         ffdec:characterId="4014"
         height="9.1000004"
         transform="translate(-6.35,-4.55)"
         width="12.7"
         xlink:href="#shape2"
         id="use10" />
    </g>
    <g
       id="shape2"
       transform="translate(6.35,4.55)">
      <path
         d="M 2.5,-0.2 Q 2,-0.2 1.75,-0.7 l -0.1,-0.4 q 0,-0.7 0.85,-0.75 0.8,-0.1 0.8,0.75 L 3,-0.5 q -0.25,0.3 -0.5,0.3 m -2.4,-2.3 -0.75,1.1 -0.25,1.05 0.3,1.05 q 0.45,0.5 1.65,0.85 H 3.3 L 4.45,0.55 4.6,-0.5 Q 4.6,-1.15 3.5,-2 2.05,-3.05 0.1,-2.5 m -1.7,-1 q 1.35,-1.1 3.25,-1.05 4.7,0.15 4.7,5.1 0,1.1 -0.65,1.85 Q 4.6,3.65 2,3.65 H 1.9 V 3.9 L 1.25,4.55 h -1.5 Q -0.9,4.45 -0.9,3.8 L -0.45,3.35 Q -1.95,2.9 -2.6,1.8 V 1.65 Q -3.45,3.2 -4.9,3.2 L -5.55,2.85 -5.35,1.3 q 0,-1.3 -1,-3 0.45,-0.9 2.15,-0.45 l 1.4,0.45 q 0.3,-1.05 1.2,-1.8"
         fill="#828282"
         fill-rule="evenodd"
         stroke="none"
         id="path10" />
      <path
         d="m 0.1,-2.5 q 1.95,-0.55 3.4,0.5 1.1,0.85 1.1,1.5 L 4.45,0.55 3.3,1.55 H 1.05 Q -0.15,1.2 -0.6,0.7 L -0.9,-0.35 -0.65,-1.4 0.1,-2.5 m 2.4,2.3 q 0.25,0 0.5,-0.3 L 3.3,-1.1 Q 3.3,-1.95 2.5,-1.85 1.65,-1.8 1.65,-1.1 l 0.1,0.4 Q 2,-0.2 2.5,-0.2"
         fill="#baaea1"
         fill-rule="evenodd"
         stroke="none"
         id="path11" />
    </g>
    <g
       id="sprite5"
       transform="translate(5.25,4.95)">
      <use
         ffdec:characterId="4015"
         height="9.1000004"
         transform="matrix(0.8268,0,0,0.8268,-5.25,-3.7618)"
         width="12.7"
         xlink:href="#sprite6"
         id="use11" />
    </g>
    <g
       id="sprite6"
       transform="translate(6.35,4.55)">
      <use
         ffdec:characterId="4014"
         height="9.1000004"
         transform="translate(-6.35,-4.55)"
         width="12.7"
         xlink:href="#shape3"
         id="use12" />
    </g>
    <g
       id="shape3"
       transform="translate(6.35,4.55)">
      <path
         d="M 2.5,-0.2 Q 2,-0.2 1.75,-0.7 l -0.1,-0.4 q 0,-0.7 0.85,-0.75 0.8,-0.1 0.8,0.75 L 3,-0.5 q -0.25,0.3 -0.5,0.3 m -2.4,-2.3 -0.75,1.1 -0.25,1.05 0.3,1.05 q 0.45,0.5 1.65,0.85 H 3.3 L 4.45,0.55 4.6,-0.5 Q 4.6,-1.15 3.5,-2 2.05,-3.05 0.1,-2.5 m -1.7,-1 q 1.35,-1.1 3.25,-1.05 4.7,0.15 4.7,5.1 0,1.1 -0.65,1.85 Q 4.6,3.65 2,3.65 H 1.9 V 3.9 L 1.25,4.55 h -1.5 Q -0.9,4.45 -0.9,3.8 L -0.45,3.35 Q -1.95,2.9 -2.6,1.8 V 1.65 Q -3.45,3.2 -4.9,3.2 L -5.55,2.85 -5.35,1.3 q 0,-1.3 -1,-3 0.45,-0.9 2.15,-0.45 l 1.4,0.45 q 0.3,-1.05 1.2,-1.8"
         fill="#6b6b6b"
         fill-rule="evenodd"
         stroke="none"
         id="path12" />
      <path
         d="m 0.1,-2.5 q 1.95,-0.55 3.4,0.5 1.1,0.85 1.1,1.5 L 4.45,0.55 3.3,1.55 H 1.05 Q -0.15,1.2 -0.6,0.7 L -0.9,-0.35 -0.65,-1.4 0.1,-2.5 m 2.4,2.3 q 0.25,0 0.5,-0.3 L 3.3,-1.1 Q 3.3,-1.95 2.5,-1.85 1.65,-1.8 1.65,-1.1 l 0.1,0.4 Q 2,-0.2 2.5,-0.2"
         fill="#b5a595"
         fill-rule="evenodd"
         stroke="none"
         id="path13" />
    </g>
    <g
       id="shape4"
       transform="translate(10.2,14.45)">
      <path
         d="m 9.85,-13.8 0.3,1.1 0.1,0.85 v 0.05 q 0,1.45 -0.5,1.9 l -0.35,0.25 0.1,0.05 0.7,1.45 V 11.6 L 9.6,12.9 Q 8.45,14.7 5.7,14.45 H -5.75 Q -8.5,14.7 -9.65,12.9 L -10.2,11.6 V -8.15 l 0.8,-1.6 -0.2,-0.15 q -0.45,-0.45 -0.45,-1.9 v -0.05 l 0.2,-1.2 h 0.15 l 0.3,-0.3 0.45,-0.6 q 0.65,-0.7 1.25,-0.4 H -6.55 8.6 l 0.3,0.05 0.65,0.25 0.15,0.05 0.15,0.2 m -12.3,1.55 H 8.2 l -0.5,-0.4 H 7.25 -1.9 -2.75 -5 l -2.65,0.1 -0.35,0.3 h 2.75 2.8 m 9.2,3.95 -0.6,-0.6 H 1.8 v 0.05 H 1.2 0.4 -0.15 V -8.9 h -6 l -0.65,0.6 q -0.75,0.55 -0.8,2.05 l -0.05,0.15 -0.1,0.35 v 0.15 0.05 l 0.1,0.8 -0.15,1.2 -0.05,0.15 V 2.65 3.3 3.6 4 q 0.1,1.35 0.05,3.75 l -0.05,1.1 0.05,0.95 0.25,0.75 0.15,0.3 h -0.05 l 0.35,0.5 0.75,0.7 1.5,-0.4 1.8,-0.3 2,-0.15 v -0.05 h 3.2 L 5.3,11.6 6.4,12 7.05,11.35 7.4,10.85 H 7.35 L 7.5,10.55 7.75,9.8 7.8,8.85 7.75,7.75 Q 7.7,5.35 7.8,4 V 3.6 3.3 -3.4 L 7.75,-3.55 7.65,-4.75 7.7,-5.55 V -5.6 -5.75 L 7.65,-6.1 7.55,-6.25 Q 7.5,-7.75 6.75,-8.3 M -2.5,-10.85 H 6.15 L 6.65,-11 q 1.45,-0.3 1.6,-0.75 H -2.35 -5.4 -8.1 q 0.15,0.45 1.65,0.75 l 0.5,0.15 h 0.75 2.7 m 2.25,22.75 -0.2,0.15 -2.6,0.15 -1.6,0.2 H -0.6 V 12.35 H 1.8 V 12.4 H 5.25 L 4.85,12.3 1.9,11.9 h -2.15"
         fill="#6b6b6b"
         fill-rule="evenodd"
         stroke="none"
         id="path14" />
      <path
         d="m -2.75,-12.65 0.3,0.4 h -2.8 l 0.25,-0.4 h 2.25 m 0.4,0.9 v 0.15 l -0.15,0.75 h -2.7 l -0.2,-0.65 v -0.25 h 3.05 m -3.4,7.1 q 0,-2.6 2.3,-2.95 2.25,-0.3 2.25,2.15 0,0.65 -0.5,1.25 -0.7,0.85 -2.05,0.85 -1.45,0 -1.85,-0.65 l -0.15,-0.65"
         fill="#e2e2e2"
         fill-rule="evenodd"
         stroke="none"
         id="path15" />
    </g>
  </defs>
</svg>
