<?xml version="1.0" encoding="UTF-8" standalone="no"?>
<svg
   ffdec:objectType="frame"
   height="29.950001"
   width="34.299999"
   version="1.1"
   id="svg5"
   sodipodi:docname="2.svg"
   xmlns:inkscape="http://www.inkscape.org/namespaces/inkscape"
   xmlns:sodipodi="http://sodipodi.sourceforge.net/DTD/sodipodi-0.dtd"
   xmlns:xlink="http://www.w3.org/1999/xlink"
   xmlns="http://www.w3.org/2000/svg"
   xmlns:svg="http://www.w3.org/2000/svg"
   xmlns:ffdec="https://www.free-decompiler.com/flash">
  <sodipodi:namedview
     id="namedview5"
     pagecolor="#ffffff"
     bordercolor="#000000"
     borderopacity="0.25"
     inkscape:showpageshadow="2"
     inkscape:pageopacity="0.0"
     inkscape:pagecheckerboard="0"
     inkscape:deskcolor="#d1d1d1"
     fit-margin-top="5"
     fit-margin-left="5"
     fit-margin-right="5"
     fit-margin-bottom="5" />
  <g
     transform="translate(1.9)"
     id="g2">
    <use
       ffdec:characterId="2282"
       height="29.950001"
       transform="translate(-1.9)"
       width="34.299999"
       xlink:href="#shape0"
       id="use1" />
    <use
       ffdec:characterId="1691"
       height="8"
       transform="matrix(-0.7407,0,0,-0.7407,19.2499,5.9629)"
       width="10.8"
       xlink:href="#sprite0"
       id="use2" />
  </g>
  <defs
     id="defs5">
    <g
       id="shape0"
       transform="translate(1.9)">
      <path
         d="M -1.55,29.95 -1.9,28.55 V 22.2 l 0.3,-0.35 q 0.65,-0.5 2.45,-0.5 H 1 1.05 v -0.05 -1.85 -1.8 -3 V 12.6 10.5 8.65 8.6 H 1 0.85 L -1.6,8.1 -1.9,7.8 V 1.45 L -1.55,0 H 32.1 l 0.3,1.35 V 6.4 L 32.35,6.55 32.4,6.7 v 1 l -0.35,0.4 q -0.6,0.5 -2.45,0.5 h -0.2 v 0.05 1.85 l 0.05,1.8 -0.05,2.35 0.05,3.4 -0.05,1.4 v 1.85 0.05 h 0.2 q 1.85,0 2.45,0.5 l 0.35,0.45 v 0.95 l -0.05,0.1 0.05,0.2 v 5 l -0.35,1.4 H -1.55 M 29.95,4.55 V 4.2 L 30,2.45 H 0.5 L 0.55,4.2 V 4.55 L 0.5,5.75 H 1 L 3.2,6 3.55,6.1 3.6,8.15 V 21.8 L 3.55,23.8 3.5,23.85 3.2,23.95 1,24.2 H 0.5 l 0.05,1.1 v 0.45 L 0.5,27.45 H 30 l -0.05,-1.7 v -0.4 L 30,24.2 27.3,23.95 27.05,23.85 26.95,23.8 V 23.3 6.7 6.1 L 27.3,6 30,5.75 29.95,4.55 M 17,23.45 l -0.2,-0.7 0.05,-0.3 q -0.25,-1 -0.25,-2.8 v -5 -2.05 -0.3 -2.05 q 0,-1.8 0.25,-2.8 L 16.8,7.2 q 0,-0.8 0.65,-1.05 l 0.95,-0.2 h 2.5 L 21.65,6 22.9,6.15 q 0.7,0.25 0.7,1.05 l -0.05,0.25 0.25,2.8 v 2.05 0.3 l -0.05,2.05 0.05,5 -0.25,2.8 0.05,0.3 q 0,0.65 -0.5,0.95 L 22.9,23.75 21.65,24 20.9,24.05 17.8,23.85 17.45,23.75 17,23.45 M 21.4,8.8 h -0.25 -2.2 L 19,10.25 v 2.05 l -0.05,2.35 0.05,3.4 v 1.6 l -0.05,1.45 h 0.65 1.55 0.25 l -0.05,-1.45 0.05,-2 v -3 -2.05 L 21.35,10.25 21.4,8.8 M 7.15,23.45 6.95,22.75 7,22.45 q -0.25,-1 -0.25,-2.8 v -5 -2.05 -0.3 -2.05 Q 6.75,8.45 7,7.45 L 6.95,7.2 Q 6.95,6.4 7.6,6.15 L 11.05,5.95 11.8,6 13.05,6.15 q 0.7,0.25 0.7,1.05 l -0.05,0.25 0.25,2.8 v 2.05 0.3 l -0.05,2.05 0.05,5 -0.25,2.8 0.05,0.3 q 0,0.65 -0.5,0.95 L 13.05,23.75 11.8,24 11.05,24.05 8.75,23.95 7.6,23.75 7.15,23.45 M 11.55,8.8 H 11.3 9.1 l 0.05,1.45 v 2.05 l -0.05,2.35 0.05,3.4 v 1.6 L 9.1,21.1 h 0.65 1.55 0.25 l -0.05,-1.45 0.05,-2 v -3 -2.05 L 11.5,10.25 11.55,8.8"
         fill="#6b6b6b"
         fill-rule="evenodd"
         stroke="none"
         id="path2" />
      <path
         d="M 0.55,4.55 V 4.2 L 0.5,2.45 H 30 L 29.95,4.2 V 4.55 H 0.55 m 26.5,19.3 0.25,0.1 2.7,0.25 -0.05,1.15 -1.9,0.25 q -0.65,0 -1,-0.55 L 26.9,24.4 q 0,-0.3 0.15,-0.55 M 0.55,25.3 0.5,24.2 H 1 l 2.2,-0.25 0.3,-0.1 0.05,0.35 q 0,0.8 -0.9,1 l -2.1,0.1 m 22.55,-1.6 0.05,0.35 q 0,1.35 -1.5,1.5 h -0.3 L 18.6,25.35 17.25,25.1 Q 16.9,24.9 16.9,24 l 0.1,-0.55 0.45,0.3 0.35,0.1 3.1,0.2 0.75,-0.05 1.25,-0.25 0.2,-0.05 m -9.85,0 0.05,0.35 q 0,1.35 -1.5,1.5 H 11.5 L 8.75,25.35 7.4,25.1 Q 7.05,24.9 7.05,24 l 0.1,-0.55 0.45,0.3 1.15,0.2 2.3,0.1 0.75,-0.05 1.25,-0.25 0.2,-0.05"
         fill="#c4c4c4"
         fill-rule="evenodd"
         stroke="none"
         id="path3" />
      <path
         d="M 29.95,4.55 30,5.75 27.3,6 26.95,6.1 v 0.6 16.6 0.5 l 0.1,0.05 Q 26.9,24.1 26.9,24.4 l 0.15,0.65 q 0.35,0.55 1,0.55 l 1.9,-0.25 v 0.4 L 30,27.45 H 0.5 l 0.05,-1.7 V 25.3 l 2.1,-0.1 q 0.9,-0.2 0.9,-1 L 3.5,23.85 3.55,23.8 3.6,21.8 V 8.15 L 3.55,6.1 3.2,6 1,5.75 H 0.5 l 0.05,-1.2 h 29.4 M 23.1,23.7 q 0.5,-0.3 0.5,-0.95 l -0.05,-0.3 0.25,-2.8 -0.05,-5 0.05,-2.05 V 12.3 10.25 L 23.55,7.45 23.6,7.2 q 0,-0.8 -0.7,-1.05 L 21.65,6 20.9,5.95 h -2.5 l -0.95,0.2 Q 16.8,6.4 16.8,7.2 l 0.05,0.25 q -0.25,1 -0.25,2.8 v 2.05 0.3 2.05 5 q 0,1.8 0.25,2.8 l -0.05,0.3 0.2,0.7 -0.1,0.55 q 0,0.9 0.35,1.1 l 1.35,0.25 2.75,0.2 h 0.3 q 1.5,-0.15 1.5,-1.5 L 23.1,23.7 m -9.85,0 q 0.5,-0.3 0.5,-0.95 l -0.05,-0.3 0.25,-2.8 -0.05,-5 0.05,-2.05 V 12.3 10.25 L 13.7,7.45 13.75,7.2 q 0,-0.8 -0.7,-1.05 L 11.8,6 11.05,5.95 7.6,6.15 Q 6.95,6.4 6.95,7.2 L 7,7.45 q -0.25,1 -0.25,2.8 v 2.05 0.3 2.05 5 q 0,1.8 0.25,2.8 l -0.05,0.3 0.2,0.7 -0.1,0.55 q 0,0.9 0.35,1.1 l 1.35,0.25 2.75,0.2 h 0.3 q 1.5,-0.15 1.5,-1.5 L 13.25,23.7"
         fill="#9c9c9c"
         fill-rule="evenodd"
         stroke="none"
         id="path4" />
    </g>
    <g
       id="sprite0"
       transform="translate(5.4,4)">
      <use
         ffdec:characterId="43"
         height="8"
         transform="translate(-5.4,-4)"
         width="10.8"
         xlink:href="#shape1"
         id="use4" />
    </g>
    <g
       id="shape1"
       transform="translate(5.4,4)">
      <path
         d="m 2.9,-0.35 q 0,-1.25 1.25,-1.25 1.25,0 1.25,1.2 0,1.3 -1.25,1.3 Q 3.6,0.9 3.25,0.5 2.9,0.15 2.9,-0.35 m 0.35,-2.3 q 0,0.55 -0.35,0.9 -0.4,0.45 -1,0.45 -1.35,0 -1.35,-1.4 0,-1.3 1.35,-1.3 1.35,0 1.35,1.35 m -3.1,1.9 h 0.2 q 2.6,0.1 2.6,2.8 l -0.3,1 Q 2.05,4 0.45,4 H 0.35 0.15 0.1 -0.45 q -1.6,0 -2.2,-0.95 l -0.3,-1 q 0,-2.8 2.8,-2.8 h 0.3 M -1.55,-4 q 1.35,0 1.35,1.35 0,0.55 -0.4,0.9 -0.4,0.45 -0.95,0.45 -1.4,0 -1.4,-1.4 0,-1.3 1.4,-1.3 m -2.6,2.4 q 1.25,0 1.25,1.25 0,0.5 -0.35,0.85 -0.35,0.4 -0.9,0.4 -1.25,0 -1.25,-1.3 0,-1.2 1.25,-1.2"
         fill="#6b6b6b"
         fill-rule="evenodd"
         stroke="none"
         id="path5" />
    </g>
  </defs>
</svg>
