<?xml version="1.0" encoding="UTF-8" standalone="no"?>
<svg
   ffdec:objectType="frame"
   height="30.6625"
   width="29.65"
   version="1.1"
   id="svg18"
   sodipodi:docname="2.svg"
   xmlns:inkscape="http://www.inkscape.org/namespaces/inkscape"
   xmlns:sodipodi="http://sodipodi.sourceforge.net/DTD/sodipodi-0.dtd"
   xmlns:xlink="http://www.w3.org/1999/xlink"
   xmlns="http://www.w3.org/2000/svg"
   xmlns:svg="http://www.w3.org/2000/svg"
   xmlns:ffdec="https://www.free-decompiler.com/flash">
  <sodipodi:namedview
     id="namedview18"
     pagecolor="#ffffff"
     bordercolor="#000000"
     borderopacity="0.25"
     inkscape:showpageshadow="2"
     inkscape:pageopacity="0.0"
     inkscape:pagecheckerboard="0"
     inkscape:deskcolor="#d1d1d1"
     fit-margin-top="5"
     fit-margin-left="5"
     fit-margin-right="5"
     fit-margin-bottom="5" />
  <g
     transform="translate(14.8,13.2125)"
     id="g6">
    <use
       ffdec:characterId="2371"
       height="28.15"
       transform="translate(-14.25,-10.85)"
       width="26.549999"
       xlink:href="#shape0"
       id="use1" />
    <use
       ffdec:characterId="2225"
       height="6.1999998"
       transform="matrix(-1,0,0,1,7.3,-2.15)"
       width="5.9000001"
       xlink:href="#sprite0"
       id="use2" />
    <use
       ffdec:characterId="2225"
       height="6.1999998"
       transform="matrix(-1,0,0,1,-4.35,0.4)"
       width="5.9000001"
       xlink:href="#sprite0"
       id="use3" />
    <use
       ffdec:characterId="44"
       height="8"
       transform="matrix(-1,0,0,-1.0677,6.2498,1.521)"
       width="10.8"
       xlink:href="#sprite2"
       id="use4" />
    <use
       ffdec:characterId="1855"
       height="27.5"
       transform="matrix(-1,0,0,1,9,-11.35)"
       width="17.1"
       xlink:href="#sprite3"
       id="use5" />
    <use
       ffdec:characterId="2370"
       height="30.65"
       transform="translate(-14.8,-13.2)"
       width="29.65"
       xlink:href="#sprite6"
       id="use6" />
  </g>
  <defs
     id="defs18">
    <g
       id="shape0"
       transform="translate(14.25,10.85)">
      <path
         d="m -2.2,-10.2 1.85,0.1 0.55,0.05 q 0.7,0.1 0.9,0.7 l -0.2,0.2 -0.1,-0.1 q -0.9,-0.5 -2.35,-0.8 L -2.2,-10.2 m -5.25,20.65 -0.8,0.15 0.75,-0.6 0.05,0.45 m -2.7,0.85 h 0.05 l -0.05,0.05 V 11.3"
         fill="#a3a3a3"
         fill-rule="evenodd"
         stroke="none"
         id="path6" />
      <path
         d="M 1.1,-9.35 1.3,-9.5 q 1.35,-0.85 4.15,-0.85 L 7.4,-9.8 8.75,-9 7.85,-8.7 7.05,-8.55 6.1,-8.8 4.05,-8 q 3.05,1.2 5.4,5 2.85,4.7 2.85,8.95 0,4.85 -1.45,6.85 -3.05,4.3 -13.1,4.5 H -6.9 q -4.25,0.25 -6.15,-6 -1.2,-3.9 -1.2,-8.4 0,-2.8 1.05,-5.05 l 0.6,-1.15 0.65,-0.9 -0.2,-1.3 q 0,-2.2 2.2,-4 l 2.25,0.05 0.05,0.1 q 1,0.2 1.65,1 h 0.05 L -5.7,-8 -4.65,-8.25 v -0.5 H -4.7 l -1.05,-0.1 Q -7.1,-8.95 -7.1,-9.5 v -0.15 q 0.15,-0.65 1.35,-0.75 l 1.5,-0.05 q 0.4,-0.45 1.1,-0.4 0.6,0.05 0.95,0.65 l 0.65,0.15 q 1.45,0.3 2.35,0.8 l 0.1,0.1 0.2,-0.2 M 7.5,12.2 8.35,11.35 Q 9.5,9.8 9.5,5.85 9.5,4.4 8.75,2.25 L 8.7,2.3 8,0.55 8.1,0.6 7.8,-0.1 7.5,-0.7 7.45,-0.8 6.3,-2.8 6.05,-3.05 Q 4.6,-4.95 2.9,-5.3 l -1.2,0.6 q -1.9,0.75 -3.85,0.75 l -1.1,-0.2 0.8,0.55 0.35,0.05 2.4,0.65 -0.35,0.7 q -0.4,0.55 -1.55,0.55 -2.05,0 -4.1,-1.25 l -1.05,-0.75 -0.15,0.1 q 0.3,0.55 0.3,1.3 0.05,0.75 -0.05,1.55 l -0.05,0.1 -0.2,0.3 q -0.35,1.4 -0.95,2.1 l -0.2,0.4 -0.4,0.05 -0.3,-0.05 V 2.1 L -8.65,1.75 -8.55,1.6 -7.95,0.5 -8,0.3 h 0.05 l 0.25,-0.8 0.05,-0.75 q 0,-0.55 -0.3,-1.3 l -1,2.7 H -8.8 L -9.05,0.4 Q -9.9,1.2 -9.9,2 v 0.05 l -0.9,1.15 0.05,0.25 0.6,2.05 0.2,0.05 q 0.3,0.05 0.3,0.45 l -0.15,0.3 -0.05,0.05 -0.1,0.1 V 6.5 l 0.2,-0.05 0.45,0.05 0.1,0.4 -0.15,0.5 -0.25,0.2 0.05,0.1 0.35,0.05 q 0.35,0.05 0.35,0.4 V 8.2 l -0.25,0.45 0.05,0.15 0.2,0.35 0.15,0.4 V 9.6 h 0.15 1 l 0.2,0.05 -0.15,0.35 -0.75,0.6 0.8,-0.15 H -7.2 -7 q 0.7,0.05 0.7,0.65 l -0.55,0.55 -0.25,0.15 -0.25,0.1 -0.4,0.2 -1.8,0.65 0.15,0.2 1.85,-0.65 0.2,-0.05 0.3,-0.05 0.2,-0.05 1,-0.15 h 0.05 l 0.3,0.05 0.35,0.1 0.2,0.3 -0.2,0.25 -0.05,0.05 -0.5,0.3 -0.05,0.05 -0.7,0.35 -0.2,0.1 -0.3,0.15 -0.35,0.1 -1,0.35 1.15,0.4 0.3,0.05 0.25,-0.05 h 3 0.9 2.45 l -1.4,-1.05 v -0.1 -0.15 q 0.15,-0.8 1.9,-0.15 L 0.75,13.3 0.5,12.9 0.45,12.75 q 0,-1.05 0.75,-0.85 0.35,0.1 0.9,0.5 l 0.3,0.2 0.45,0.4 v -0.2 q 0,-1.7 1.2,-0.6 L 4.4,12.55 4.35,12.25 V 12 q 0.1,-1.3 0.95,-0.65 l 0.2,0.2 0.2,0.25 0.2,-0.7 q 0.2,-0.5 0.7,-0.7 l 0.65,0.05 0.1,0.1 q 0.2,0.25 0.2,0.85 v 0.1 0.45 l -0.1,0.3 0.05,-0.05 m -12,-4.7 h 0.3 0.15 l 0.6,0.05 0.1,-0.6 L -4,6.4 -4.2,6.25 -4.4,5.85 -4.35,5.45 -4.2,5.5 -3.85,5.6 q 0.3,0.1 0.65,0.35 L -2.95,6.1 -2.9,6.15 Q -2.05,5.25 -0.15,4.8 L 0.75,4.7 Q 2.4,4.6 3.85,5.75 L 4.45,6.3 4.7,6.05 5.05,5.8 5.65,5.85 5.7,6.25 5.5,7.05 5.4,7.3 5.55,7.5 h 0.1 0.2 Q 6.45,7.45 6.9,7.95 L 6.25,8.55 6.45,9.25 6,9.65 5.45,9.9 4.2,10.35 2.6,10.9 l -1.15,0.35 -0.2,0.1 -3.8,0.85 -0.3,-0.05 q -0.45,-0.2 -0.6,-1.1 V 10.8 L -3.5,10.15 V 9.35 9.2 8.4 H -3.85 L -4.15,8.35 -4.45,8.25 -4.7,8.2 -5.25,7.7 -4.8,7.55 -4.5,7.5 m -5.65,3.8 v 0.05 l 0.05,-0.05 h -0.05"
         fill="#6b6b6b"
         fill-rule="evenodd"
         stroke="none"
         id="path7" />
      <path
         d="M 7.5,12.2 7.45,12.25 7.55,11.95 7.5,12.2"
         fill="#bfbfbf"
         fill-rule="evenodd"
         stroke="none"
         id="path8" />
      <path
         d="m -7.55,9.6 h -1 -0.15 V 9.55 L -8.85,9.15 -9.05,8.8 -9.1,8.65 -8.85,8.2 V 8.15 q 0,-0.35 -0.35,-0.4 L -9.55,7.7 -9.6,7.6 -9.35,7.4 -9.2,6.9 -9.3,6.5 -9.75,6.45 -9.95,6.5 V 6.45 L -9.85,6.35 -9.8,6.3 -9.65,6 q 0,-0.4 -0.3,-0.45 L -10.15,5.5 -10.75,3.45 -10.8,3.2 -9.9,2.05 V 2 q 0,-0.8 0.85,-1.6 L -8.8,0.15 h -0.15 l 1,-2.7 q 0.3,0.75 0.3,1.3 L -7.7,-0.5 -7.95,0.3 H -8 l 0.05,0.2 -0.6,1.1 -0.1,0.15 -0.1,0.35 v 0.1 l 0.3,0.05 0.4,-0.05 0.2,-0.4 q 0.6,-0.7 0.95,-2.1 l 0.2,-0.3 0.05,-0.1 q 0.1,-0.8 0.05,-1.55 0,-0.75 -0.3,-1.3 l 0.15,-0.1 1.05,0.75 q 2.05,1.25 4.1,1.25 1.15,0 1.55,-0.55 l 0.35,-0.7 -2.4,-0.65 -0.35,-0.05 -0.8,-0.55 1.1,0.2 q 1.95,0 3.85,-0.75 l 1.2,-0.6 q 1.7,0.35 3.15,2.25 l 0.25,0.25 1.15,2 0.05,0.1 0.3,0.6 L 8.1,0.6 8,0.55 8.7,2.3 8.75,2.25 Q 9.5,4.4 9.5,5.85 9.5,9.8 8.35,11.35 L 7.5,12.2 7.55,11.95 V 11.5 11.4 L 7.6,10.55 7.65,8.5 7.2,5.65 6.75,3.9 6.8,2.65 q 0,-1.15 -1,-1.3 -1.55,-0.3 -1.95,0.8 l -0.1,1.7 0.1,1.9 Q 2.4,4.6 0.75,4.7 l -0.9,0.1 Q -2.05,5.25 -2.9,6.15 L -2.95,6.1 -3.2,5.95 Q -3.55,5.7 -3.85,5.6 L -4.2,5.5 -4.35,5.45 -4.4,5.85 -4.2,6.25 -4,6.4 -3.35,6.95 -3.45,7.55 -4.05,7.5 H -4.2 -4.5 L -4.95,4.6 Q -5.05,4.25 -5.55,4 L -6.8,3.85 Q -7.45,3.9 -7.6,4.4 l -0.05,0.65 -0.2,0.95 0.1,1.5 0.2,2.1 M 4.35,12 v 0.25 L 4.4,12.55 4.05,12.2 q -1.2,-1.1 -1.2,0.6 V 13 L 2.4,12.6 2.1,12.4 Q 1.55,12 1.2,11.9 0.45,11.7 0.45,12.75 l 0.05,0.15 0.25,0.4 -0.5,-0.2 q -1.75,-0.65 -1.9,0.15 v 0.15 0.1 l 1.4,1.05 H -2.7 -3.6 v -0.1 q 0,-2.1 -0.3,-3.3 L -4,10.35 -4.3,9.6 -4.45,8.25 l 0.3,0.1 0.3,0.05 h 0.35 v 0.8 0.15 0.8 l 0.05,0.65 v 0.25 q 0.15,0.9 0.6,1.1 l 0.3,0.05 3.8,-0.85 0.2,-0.1 1.15,-0.35 1.6,-0.55 0.05,1.2 0.1,0.45 m -11.5,2.55 -1.15,-0.4 1,-0.35 0.15,0.75 m -0.2,-2.3 -0.2,0.05 -1.85,0.65 -0.15,-0.2 1.8,-0.65 0.4,-0.2 v 0.35"
         fill="#c3b1a7"
         fill-rule="evenodd"
         stroke="none"
         id="path9" />
      <path
         d="m 7.55,11.4 q 0,-0.6 -0.2,-0.85 L 7.25,10.45 6.6,10.4 Q 6.1,10.6 5.9,11.1 L 5.7,11.8 5.5,11.55 5.3,11.35 Q 4.45,10.7 4.35,12 L 4.25,11.55 4.2,10.35 5.45,9.9 6,9.65 6.45,9.25 6.25,8.55 6.9,7.95 Q 6.45,7.45 5.85,7.5 H 5.65 5.55 L 5.4,7.3 5.5,7.05 5.7,6.25 5.65,5.85 5.05,5.8 4.7,6.05 4.45,6.3 3.85,5.75 3.75,3.85 3.85,2.15 q 0.4,-1.1 1.95,-0.8 1,0.15 1,1.3 L 6.75,3.9 7.2,5.65 7.65,8.5 7.6,10.55 7.55,11.4 M -3.6,14.55 h -3 l -0.25,0.05 -0.3,-0.05 -0.15,-0.75 0.35,-0.1 0.3,-0.15 0.2,-0.1 0.7,-0.35 0.05,-0.05 0.5,-0.3 0.05,-0.05 0.2,-0.25 -0.2,-0.3 L -5.5,12.05 -5.8,12 h -0.05 l -1,0.15 -0.2,0.05 -0.3,0.05 V 11.9 l 0.25,-0.1 0.25,-0.15 0.55,-0.55 q 0,-0.6 -0.7,-0.65 H -7.2 -7.45 L -7.5,10 -7.35,9.65 -7.55,9.6 -7.75,7.5 -7.85,6 -7.65,5.05 -7.6,4.4 Q -7.45,3.9 -6.8,3.85 L -5.55,4 q 0.5,0.25 0.6,0.6 l 0.45,2.9 -0.3,0.05 -0.45,0.15 0.55,0.5 0.25,0.05 0.15,1.35 0.3,0.75 0.1,0.8 q 0.3,1.2 0.3,3.3 v 0.1"
         fill="#b5d6ce"
         fill-rule="evenodd"
         stroke="none"
         id="path10" />
    </g>
    <g
       id="sprite0"
       transform="translate(2.4,2.85)">
      <use
         ffdec:characterId="2022"
         height="5.6999998"
         transform="matrix(0.8214,0,0,0.8214,-2.3,-2.341)"
         width="5.5999999"
         xlink:href="#sprite1"
         id="use10" />
    </g>
    <g
       id="sprite1"
       transform="translate(2.8,2.85)">
      <use
         ffdec:characterId="2007"
         height="5.6999998"
         transform="translate(-2.8,-2.85)"
         width="5.5999999"
         xlink:href="#shape1"
         id="use11" />
    </g>
    <g
       id="shape1"
       transform="translate(2.8,2.85)">
      <path
         d="M 2.8,-0.2 2.35,1.5 Q 1.65,2.85 0.2,2.85 -1.4,2.85 -2.2,1.8 -2.8,1.05 -2.8,0.3 q 0,-2.7 2.8,-3.1 2.8,-0.35 2.8,2.6 m -3.55,-1.7 q -1,0 -1,1.05 -0.15,0.9 0.8,0.9 0.45,0 0.85,-0.35 l 0.35,-0.75 q 0,-0.85 -1,-0.85"
         fill="#6b6b6b"
         fill-rule="evenodd"
         stroke="none"
         id="path11" />
      <path
         d="m -0.75,-1.9 q 1,0 1,0.85 L -0.1,-0.3 q -0.4,0.35 -0.85,0.35 -0.95,0 -0.8,-0.9 0,-1.05 1,-1.05"
         fill="#ffffff"
         fill-rule="evenodd"
         stroke="none"
         id="path12" />
    </g>
    <g
       id="sprite2"
       transform="translate(5.4,4)">
      <use
         ffdec:characterId="43"
         height="8"
         transform="translate(-5.4,-4)"
         width="10.8"
         xlink:href="#shape2"
         id="use12" />
    </g>
    <g
       id="shape2"
       transform="translate(5.4,4)">
      <path
         d="m 2.9,-0.35 q 0,-1.25 1.25,-1.25 1.25,0 1.25,1.2 0,1.3 -1.25,1.3 Q 3.6,0.9 3.25,0.5 2.9,0.15 2.9,-0.35 m 0.35,-2.3 q 0,0.55 -0.35,0.9 -0.4,0.45 -1,0.45 -1.35,0 -1.35,-1.4 0,-1.3 1.35,-1.3 1.35,0 1.35,1.35 m -3.1,1.9 h 0.2 q 2.6,0.1 2.6,2.8 l -0.3,1 Q 2.05,4 0.45,4 H 0.35 0.15 0.1 -0.45 q -1.6,0 -2.2,-0.95 l -0.3,-1 q 0,-2.8 2.8,-2.8 h 0.3 M -1.55,-4 q 1.35,0 1.35,1.35 0,0.55 -0.4,0.9 -0.4,0.45 -0.95,0.45 -1.4,0 -1.4,-1.4 0,-1.3 1.4,-1.3 m -2.6,2.4 q 1.25,0 1.25,1.25 0,0.5 -0.35,0.85 -0.35,0.4 -0.9,0.4 -1.25,0 -1.25,-1.3 0,-1.2 1.25,-1.2"
         fill="#6b6b6b"
         fill-opacity="0.6"
         fill-rule="evenodd"
         stroke="none"
         id="path13" />
    </g>
    <g
       id="sprite3"
       transform="translate(5.45,22.95)">
      <use
         ffdec:characterId="1854"
         height="27.5"
         transform="translate(-5.45,-22.95)"
         width="17.1"
         xlink:href="#sprite4"
         id="use13" />
    </g>
    <g
       id="sprite4"
       transform="translate(5.45,22.95)">
      <use
         ffdec:characterId="1853"
         height="5.25"
         transform="scale(0.7692)"
         width="5.0999999"
         xlink:href="#sprite5"
         id="use14" />
    </g>
    <g
       id="sprite5">
      <use
         ffdec:characterId="1852"
         height="5.25"
         width="5.0999999"
         xlink:href="#shape3"
         id="use15" />
    </g>
    <g
       id="shape3">
      <path
         d="M 3.4,1.1 2.1,1.2 1.55,2.05 Q 1.15,2.7 1.3,3.1 1.4,3.45 2.2,4 3,4.55 3.5,4.3 3.95,4.05 4.25,2.6 4.25,1.35 3.4,1.1 M 0.35,4.2 Q 0,3.6 0,2.9 0,0.55 2.55,0.1 5.1,-0.35 5.1,1.55 5.1,5.25 2.6,5.25 1,5.25 0.35,4.2"
         fill="#999999"
         fill-opacity="0.439216"
         fill-rule="evenodd"
         stroke="none"
         id="path15" />
    </g>
    <g
       id="sprite6"
       transform="translate(14.8,13.25)">
      <use
         ffdec:characterId="2369"
         height="30.65"
         transform="translate(-14.8,-13.25)"
         width="29.65"
         xlink:href="#shape4"
         id="use16" />
    </g>
    <g
       id="shape4"
       transform="translate(14.8,13.25)">
      <path
         d="m 11.6,-13.15 q 0.05,-0.15 0.15,-0.1 l 0.3,0.35 v 0.1 l 0.2,0.4 v 5 q 1.05,0.4 1.7,1.3 l 0.25,0.4 0.3,0.6 0.15,0.5 0.05,0.1 0.05,0.95 0.05,0.9 V 12.1 l 0.05,0.4 v 0.6 H 14.7 v 0.3 l -0.05,0.95 -0.05,0.1 -0.15,0.5 -0.3,0.6 -0.25,0.4 q -0.8,1.1 -2.15,1.45 H -11.8 q -1.35,-0.35 -2.15,-1.45 l -0.25,-0.4 -0.3,-0.6 -0.15,-0.5 -0.05,-0.1 -0.05,-0.95 -0.05,-2.15 V 11.1 -2.3 l 0.1,-1.25 0.05,-0.95 0.05,-0.1 0.15,-0.5 0.3,-0.6 0.25,-0.4 0.5,-0.55 1.05,-0.7 v -5.05 h 0.05 l 0.2,-0.4 v -0.1 q 0.2,-0.55 0.45,-0.25 l 0.2,-0.1 4.85,0.1 v 0.05 h 2 0.25 1.4 0.1 0.3 0.1 0.55 0.25 0.25 0.15 l 12.65,-0.15 0.2,0.1 m -9,2.25 H 2.45 1.35 v 0.05 h -3.8 v -0.05 h -1.1 -0.15 l -3.95,0.05 v 0.05 h -2.5 v 2 l 6.45,0.1 h 0.15 1.1 v -0.05 h 3.8 v 0.05 h 1.1 0.15 l 7.5,-0.1 v -2 l -7.5,-0.1 m 9.7,8.3 q -0.15,-1.05 -0.85,-1.75 l -0.8,-0.5 -10.3,-0.3 -9.3,-0.2 q -1.85,0.4 -2.45,1 -0.7,0.7 -0.85,1.75 l -0.05,1.2 h -0.05 V 11 l 0.05,0.25 v 1.2 q 0.15,1.05 0.85,1.75 l 0.8,0.5 10.3,0.3 9.3,0.2 q 1.85,-0.4 2.45,-1 0.7,-0.7 0.85,-1.75 l 0.05,-1.2 V 11 -1.4 -2.6"
         fill="#6b6b6b"
         fill-rule="evenodd"
         stroke="none"
         id="path16" />
      <path
         d="m 2.6,-10.9 7.5,0.1 v 2 L 2.6,-8.7 H 2.45 1.35 v -0.05 h -3.8 v 0.05 h -1.1 -0.15 l -6.45,-0.1 v -2 h 2.5 v -0.05 l 3.95,-0.05 h 0.15 1.1 v 0.05 h 3.8 v -0.05 h 1.1 0.15"
         fill="#999999"
         fill-rule="evenodd"
         stroke="none"
         id="path17" />
      <path
         d="m 0.05,-0.7 q -1.4,0 -1.2,-1.4 0,-1.25 1.25,-1.35 1.2,-0.05 1.2,1.35 0,1.4 -1.25,1.4 M -11,-0.75 q 0,-1.2 0.75,-2.1 1.1,-1.4 3.55,-1.2 2.8,0.15 3.7,0.8 0.55,0.35 0.55,1.35 0,1.05 -1.05,1.8 -1.4,1 -4.35,1 -2.2,0 -2.9,-0.8 -0.35,-0.45 -0.25,-0.85"
         fill="#ffffff"
         fill-opacity="0.498039"
         fill-rule="evenodd"
         stroke="none"
         id="path18" />
    </g>
  </defs>
</svg>
