<?xml version="1.0" encoding="UTF-8" standalone="no"?>
<svg
   ffdec:objectType="frame"
   height="120.9"
   width="115.45"
   version="1.1"
   id="svg7"
   sodipodi:docname="2.svg"
   xmlns:inkscape="http://www.inkscape.org/namespaces/inkscape"
   xmlns:sodipodi="http://sodipodi.sourceforge.net/DTD/sodipodi-0.dtd"
   xmlns:xlink="http://www.w3.org/1999/xlink"
   xmlns="http://www.w3.org/2000/svg"
   xmlns:svg="http://www.w3.org/2000/svg"
   xmlns:ffdec="https://www.free-decompiler.com/flash">
  <sodipodi:namedview
     id="namedview7"
     pagecolor="#ffffff"
     bordercolor="#000000"
     borderopacity="0.25"
     inkscape:showpageshadow="2"
     inkscape:pageopacity="0.0"
     inkscape:pagecheckerboard="0"
     inkscape:deskcolor="#d1d1d1"
     fit-margin-top="5"
     fit-margin-left="5"
     fit-margin-right="5"
     fit-margin-bottom="5" />
  <g
     transform="translate(57.8,72.05)"
     id="g2">
    <use
       ffdec:characterId="456"
       height="114.5"
       transform="translate(-55,-65.65)"
       width="112.25"
       xlink:href="#sprite0"
       id="use1" />
    <use
       ffdec:characterId="457"
       height="83.75"
       transform="translate(-57.8,-72.05)"
       width="115.45"
       xlink:href="#shape1"
       id="use2" />
  </g>
  <defs
     id="defs7">
    <g
       id="sprite0"
       transform="translate(56.1,57.25)">
      <use
         ffdec:characterId="455"
         height="114.5"
         transform="translate(-56.1,-57.25)"
         width="112.25"
         xlink:href="#shape0"
         id="use3" />
    </g>
    <g
       id="shape0"
       transform="translate(56.1,57.25)">
      <path
         d="m 55.75,49.9 q 0.4,1.2 0.4,2.55 0,2.25 -0.65,3.05 v 0.1 q 0,0.6 -0.5,0.9 L 52.9,57 52.85,57.1 H 52.2 l -0.5,0.05 H 37.85 L 37.4,57.1 H 34 l -0.25,0.15 h -69.6 L -36,57.15 h -1.3 l -0.5,0.05 h -13.85 l -0.45,-0.05 h -2.1 l -0.15,-0.35 -0.6,-0.25 q -0.5,-0.3 -0.5,-0.9 v -0.1 q -0.65,-0.8 -0.65,-3.05 0,-1.35 0.4,-2.55 0.35,-1.75 1.15,-2.85 l 0.35,-0.45 v -4.8 l 0.4,-5.15 V 36.55 36.4 l 0.15,-4.05 V 32.3 q 0.5,-3.2 2.1,-6.45 3.45,-6.95 10.15,-6.95 h 0.05 q 1.15,-3.15 2.6,-5.9 -4,-2.4 -5.25,-6.05 -0.65,-1.9 -0.65,-8.4 0,-3.45 1.85,-8.1 2.35,-5.85 6.45,-10.2 4.15,-4.4 9.5,-6.6 l 2.7,-1 0.2,-0.05 q -0.6,-2.15 -0.65,-4.4 l -0.05,-5.75 v -1.15 h 0.05 l 0.1,-0.8 -1.15,-1.45 -1.65,-2.85 -2.6,-4.05 q -1.45,-2.7 -0.15,-3.4 l 0.95,-0.1 1.95,-0.35 4.8,0.3 h 3.45 l 0.35,0.05 q 3.7,-3.6 9.3,-5 3.4,-0.85 7.6,-0.9 h 0.35 q 10.95,0.1 16.95,5.9 l 0.65,-0.05 h 3.45 l 4.75,-0.3 2,0.35 0.95,0.1 q 1.25,0.7 -0.15,3.4 l -2.65,4.05 -1.6,2.85 -1.4,1.7 0.05,0.55 v 1.15 5.8 q -0.1,2.1 -0.65,4.15 7.65,2 13.2,7.85 4.1,4.35 6.45,10.2 1.85,4.65 1.85,8.1 0,6.5 -0.65,8.4 -1.25,3.65 -5.25,6.05 1.45,2.75 2.6,5.9 l 0.8,-0.05 q 6.7,0 10.15,6.95 1.6,3.25 2.1,6.45 v 0.05 l 0.15,4.05 v 0.15 0.15 l 0.35,5.15 v 3.45 q 1.1,0.75 1.8,1.8 0.8,1.1 1.15,2.85 m -59,-97.5 q 1.65,0 1.65,1.65 0,0.7 -0.5,1.1 -0.45,0.55 -1.15,0.55 -1.7,0 -1.7,-1.7 0,-1.6 1.7,-1.6 m 2.1,4 h 0.25 q 3.15,0.1 3.15,3.4 l -0.35,1.25 q -0.75,1.15 -2.7,1.15 h -0.1 -0.25 -0.1 -0.65 q -1.95,0 -2.7,-1.15 l -0.35,-1.25 q 0,-3.4 3.4,-3.4 h 0.4 m -5.25,-1.05 q 1.5,0 1.5,1.5 0,0.65 -0.4,1.05 -0.45,0.5 -1.1,0.5 -1.55,0 -1.55,-1.6 0,-1.45 1.55,-1.45 m -8.5,11.3 -0.15,-0.5 q -1.35,0.05 -1.35,0.55 l 0.3,0.55 0.45,0.4 0.6,-0.2 0.15,-0.8 m -0.55,-1.75 q 2.55,0 2.55,2.45 0,2.35 -2.4,2.35 -2.1,0 -2.6,-1.15 l -0.15,-1.35 q 0,-2.3 2.6,-2.3 M 13.8,-46.6 q -3.4,-4.15 -9.1,-5.6 L -1.5,-53 q -10.25,0.15 -15.25,6.4 -3.4,4.1 -3.6,9.05 l 0.05,5.8 q 0.1,1.75 0.6,3.45 0.55,1.7 1.55,3.3 l 1.4,1.9 q 5,6.2 15.25,6.45 3.35,-0.05 6.2,-0.85 5.7,-1.45 9.1,-5.6 l 1.4,-1.9 q 1.05,-1.65 1.6,-3.45 0.45,-1.6 0.55,-3.35 v -5.75 Q 17.2,-42.5 13.8,-46.6 m -8.95,14.2 q 0,-1.85 0.7,-1.45 0.7,0.45 0.7,2.3 0,0.9 -0.6,1.5 -1.1,1.35 -4.5,1.35 -1.4,0 -2.4,-1.35 l -0.05,-0.05 -0.1,0.05 q -0.95,1.35 -2.4,1.35 -3.35,0 -4.5,-1.35 -0.55,-0.6 -0.55,-1.5 0,-1.85 0.7,-2.3 0.65,-0.4 0.65,1.45 0,0.7 0.5,1.25 0.8,0.75 2.5,0.75 1.6,0 2.05,-1 0.5,-1.05 1.1,-1.05 h 0.1 q 0.6,0 1.05,1.05 0.5,1 2.05,1 1.75,0 2.5,-0.75 0.5,-0.55 0.5,-1.25 m -25.8,-16.25 0.05,-0.05 -1.45,-0.05 -4.2,0.25 1.6,3.35 1.2,2.15 q 0.95,-2.95 2.8,-5.65 m 38.9,27.6 q -6,8.45 -19.25,8.55 h -0.35 q -6.6,-0.05 -11.3,-2.15 -4.95,-2.15 -8,-6.4 -1.15,-1.6 -1.9,-3.3 -1.95,0.55 -4,1.65 l -0.4,0.2 q -8.45,4.6 -11.15,12.85 -1.7,3.35 -1.9,7.55 l -0.2,3.9 q 0,6.4 3.25,8.5 l 0.9,-1.4 q 4.15,-6.25 9.5,-9.35 l 2.7,-1.45 q 5.5,-2.3 12.15,-1.85 h 9.6 l 1.35,0.1 1.35,-0.1 H 9.9 Q 25,-4.95 34.25,8.9 l 0.9,1.4 Q 38.4,8.2 38.4,1.8 L 38.2,-2.1 Q 38,-6.3 36.3,-9.65 33.6,-17.9 25.15,-22.5 22.45,-24 20,-24.6 q -0.85,1.85 -2.05,3.55 m 0,-27.6 q 1.95,2.85 2.95,6.05 l 1.45,-2.55 1.55,-3.35 -4.15,-0.25 -1.85,0.05 0.05,0.05 m -15.35,2.7 q 0,0.7 -0.4,1.1 -0.5,0.55 -1.25,0.55 -1.65,0 -1.65,-1.7 0,-1.6 1.65,-1.6 1.65,0 1.65,1.65 m -0.4,2.8 q 0,-1.5 1.5,-1.5 1.55,0 1.55,1.45 0,1.6 -1.55,1.6 -0.65,0 -1.1,-0.5 -0.4,-0.4 -0.4,-1.05 m 11.05,9.8 -0.15,-0.5 q -1.35,0.05 -1.35,0.55 0,0.25 0.3,0.55 l 0.45,0.4 0.6,-0.2 0.15,-0.8 M 12.7,-35.1 q 2.55,0 2.55,2.45 0,2.35 -2.4,2.35 -2.1,0 -2.6,-1.15 -0.15,-0.3 -0.15,-1.35 0,-2.3 2.6,-2.3 m 20.7,87.55 q 0,-1.35 0.4,-2.55 0.35,-1.75 1.15,-2.85 2.6,-3.75 9.7,-3.85 h 0.25 l 4.3,0.5 -0.05,-3.25 -0.05,-0.1 0.05,-3.1 -0.2,-1.8 q 0,-2.7 -0.7,-5.15 -1.75,-5.65 -7.4,-6.45 L 39.1,23.7 h -0.25 -0.1 -0.15 l -2.05,0.2 q -5.45,0.9 -7.15,6.4 -0.75,2.45 -0.75,5.15 l -0.15,1.8 0.05,3.1 -0.05,0.1 -0.2,6.7 -0.2,5.55 -0.05,0.25 v 0.55 l 2.3,-0.05 3.1,0.2 -0.05,-1.2 M 44.9,46.5 h -0.25 -0.1 q -4.85,0 -6.85,2.05 -0.8,1 -1.05,2.5 l -0.2,2.7 V 53.9 L 37.6,53.75 42.55,53.6 H 47 l 5.85,0.25 0.25,0.05 -0.2,-2.85 -0.1,-0.5 Q 52.5,49.4 51.85,48.55 50.9,47.6 49.35,47.1 L 45,46.5 H 44.9 M 25.15,5 Q 20.6,1.45 16.65,1.35 L 15.35,1.5 14.9,1.3 H -17 l -0.45,0.2 -1.3,-0.15 q -3.8,0.1 -8.1,3.35 l -0.4,0.3 q -3.5,2.7 -6,6.3 l -1.9,3.1 q -1.2,2.2 -2.05,4.65 5.4,0.8 8.4,6.8 1.6,3.25 2.1,6.45 v 0.05 l 0.15,4.05 v 0.15 0.15 l 0.35,5.15 v 8.9 l 0.1,1.95 h 50.85 l 0.05,-2 v -8.9 l 0.4,-5.15 V 36.5 36.35 l 0.15,-4.05 v -0.05 q 0.5,-3.2 2.1,-6.45 2.8,-5.6 7.7,-6.7 L 33.1,14.4 31.2,11.3 Q 28.65,7.7 25.15,5 m -58.9,44.95 q 0.4,1.2 0.4,2.55 l -0.05,1.15 1.7,-0.15 2.3,0.05 -0.05,-0.55 v -0.3 l -0.2,-5.5 -0.2,-6.7 -0.05,-0.1 0.05,-3.1 -0.2,-1.8 q 0,-2.7 -0.7,-5.15 -1.8,-5.9 -7.85,-6.5 l -1.3,-0.1 h -0.25 -0.1 -0.15 l -2.6,0.3 q -5,1.05 -6.6,6.3 -0.75,2.45 -0.75,5.15 l -0.15,1.8 0.05,3.1 -0.05,0.1 -0.05,3.7 q 2.35,-0.9 5.7,-0.95 h 0.25 q 7.1,0.15 9.7,3.85 0.8,1.1 1.15,2.85 m -10.85,-3.4 h -0.25 -0.1 q -3.7,0 -5.75,1.2 -0.65,0.35 -1.1,0.85 -0.8,1 -1.05,2.5 l -0.2,2.85 6.1,-0.3 h 4.45 l 4.8,0.15 1.3,0.15 v -0.2 l -0.2,-2.65 q -0.25,-1.5 -1.05,-2.5 -2,-2.05 -6.85,-2.05 h -0.1"
         fill="#9a9a9a"
         fill-rule="evenodd"
         stroke="none"
         id="path3" />
      <path
         d="m -14.9,-33.35 -0.15,0.8 -0.6,0.2 -0.45,-0.4 -0.3,-0.55 q 0,-0.5 1.35,-0.55 l 0.15,0.5 m 28.15,0 -0.15,0.8 -0.6,0.2 -0.45,-0.4 q -0.3,-0.3 -0.3,-0.55 0,-0.5 1.35,-0.55 l 0.15,0.5"
         fill="#d2d2d2"
         fill-rule="evenodd"
         stroke="none"
         id="path4" />
      <path
         d="m -3.25,-47.6 q -1.7,0 -1.7,1.6 0,1.7 1.7,1.7 0.7,0 1.15,-0.55 0.5,-0.4 0.5,-1.1 0,-1.65 -1.65,-1.65 m 2.1,4 h -0.4 q -3.4,0 -3.4,3.4 l 0.35,1.25 q 0.75,1.15 2.7,1.15 h 0.65 0.1 0.25 0.1 q 1.95,0 2.7,-1.15 l 0.35,-1.25 q 0,-3.3 -3.15,-3.4 h -0.25 m -5.25,-1.05 q -1.55,0 -1.55,1.45 0,1.6 1.55,1.6 0.65,0 1.1,-0.5 0.4,-0.4 0.4,-1.05 0,-1.5 -1.5,-1.5 m 9,-1.3 q 0,-1.65 -1.65,-1.65 -1.65,0 -1.65,1.6 0,1.7 1.65,1.7 0.75,0 1.25,-0.55 0.4,-0.4 0.4,-1.1 m 15.35,-2.7 -0.05,-0.05 1.85,-0.05 4.15,0.25 -1.55,3.35 -1.45,2.55 q -1,-3.2 -2.95,-6.05 m 0,27.6 q 1.2,-1.7 2.05,-3.55 2.45,0.6 5.15,2.1 8.45,4.6 11.15,12.85 1.7,3.35 1.9,7.55 l 0.2,3.9 q 0,6.4 -3.25,8.5 L 34.25,8.9 Q 25,-4.95 9.9,-3.75 H 0.3 l -1.35,0.1 -1.35,-0.1 H -12 q -6.65,-0.45 -12.15,1.85 l -2.7,1.45 q -5.35,3.1 -9.5,9.35 l -0.9,1.4 Q -40.5,8.2 -40.5,1.8 l 0.2,-3.9 q 0.2,-4.2 1.9,-7.55 2.7,-8.25 11.15,-12.85 l 0.4,-0.2 q 2.05,-1.1 4,-1.65 0.75,1.7 1.9,3.3 3.05,4.25 8,6.4 4.7,2.1 11.3,2.15 h 0.35 q 13.25,-0.1 19.25,-8.55 m -38.9,-27.6 q -1.85,2.7 -2.8,5.65 l -1.2,-2.15 -1.6,-3.35 4.2,-0.25 1.45,0.05 -0.05,0.05 m 25.8,16.25 q 0,0.7 -0.5,1.25 -0.75,0.75 -2.5,0.75 -1.55,0 -2.05,-1 -0.45,-1.05 -1.05,-1.05 h -0.1 q -0.6,0 -1.1,1.05 -0.45,1 -2.05,1 -1.7,0 -2.5,-0.75 -0.5,-0.55 -0.5,-1.25 0,-1.85 -0.65,-1.45 -0.7,0.45 -0.7,2.3 0,0.9 0.55,1.5 1.15,1.35 4.5,1.35 1.45,0 2.4,-1.35 l 0.1,-0.05 0.05,0.05 q 1,1.35 2.4,1.35 3.4,0 4.5,-1.35 0.6,-0.6 0.6,-1.5 0,-1.85 -0.7,-2.3 -0.7,-0.4 -0.7,1.45 m 8.95,-14.2 q 3.4,4.1 3.55,9.05 v 5.75 q -0.1,1.75 -0.55,3.35 -0.55,1.8 -1.6,3.45 l -1.4,1.9 q -3.4,4.15 -9.1,5.6 -2.85,0.8 -6.2,0.85 -10.25,-0.25 -15.25,-6.45 l -1.4,-1.9 q -1,-1.6 -1.55,-3.3 -0.5,-1.7 -0.6,-3.45 l -0.05,-5.8 q 0.2,-4.95 3.6,-9.05 5,-6.25 15.25,-6.4 l 6.2,0.8 q 5.7,1.45 9.1,5.6 m -29.25,11.5 q -2.6,0 -2.6,2.3 l 0.15,1.35 q 0.5,1.15 2.6,1.15 2.4,0 2.4,-2.35 0,-2.45 -2.55,-2.45 M 2.2,-43.15 q 0,0.65 0.4,1.05 0.45,0.5 1.1,0.5 1.55,0 1.55,-1.6 0,-1.45 -1.55,-1.45 -1.5,0 -1.5,1.5 m -46.8,89.7 h 0.1 q 4.85,0 6.85,2.05 0.8,1 1.05,2.5 l 0.2,2.65 v 0.2 l -1.3,-0.15 -4.8,-0.15 h -4.45 l -6.1,0.3 0.2,-2.85 q 0.25,-1.5 1.05,-2.5 0.45,-0.5 1.1,-0.85 2.05,-1.2 5.75,-1.2 h 0.1 0.25 m 10.85,3.4 q -0.35,-1.75 -1.15,-2.85 -2.6,-3.7 -9.7,-3.85 h -0.25 q -3.35,0.05 -5.7,0.95 l 0.05,-3.7 0.05,-0.1 -0.05,-3.1 0.15,-1.8 q 0,-2.7 0.75,-5.15 1.6,-5.25 6.6,-6.3 l 2.6,-0.3 h 0.15 0.1 0.25 l 1.3,0.1 q 6.05,0.6 7.85,6.5 0.7,2.45 0.7,5.15 l 0.2,1.8 -0.05,3.1 0.05,0.1 0.2,6.7 0.2,5.5 V 53 l 0.05,0.55 -2.3,-0.05 -1.7,0.15 0.05,-1.15 q 0,-1.35 -0.4,-2.55 M 25.15,5 q 3.5,2.7 6.05,6.3 l 1.9,3.1 2.05,4.7 q -4.9,1.1 -7.7,6.7 -1.6,3.25 -2.1,6.45 v 0.05 l -0.15,4.05 v 0.15 0.15 l -0.4,5.15 v 8.9 l -0.05,2 H -26.1 l -0.1,-1.95 v -8.9 L -26.55,36.7 V 36.55 36.4 L -26.7,32.35 V 32.3 q -0.5,-3.2 -2.1,-6.45 -3,-6 -8.4,-6.8 0.85,-2.45 2.05,-4.65 l 1.9,-3.1 q 2.5,-3.6 6,-6.3 l 0.4,-0.3 q 4.3,-3.25 8.1,-3.35 l 1.3,0.15 0.45,-0.2 h 31.9 l 0.45,0.2 1.3,-0.15 Q 20.6,1.45 25.15,5 M 44.9,46.5 H 45 l 4.35,0.6 q 1.55,0.5 2.5,1.45 0.65,0.85 0.95,2 l 0.1,0.5 0.2,2.85 L 52.85,53.85 47,53.6 h -4.45 l -4.95,0.15 -1.15,0.15 v -0.15 l 0.2,-2.7 q 0.25,-1.5 1.05,-2.5 2,-2.05 6.85,-2.05 h 0.1 0.25 m -11.5,5.95 0.05,1.2 -3.1,-0.2 -2.3,0.05 v -0.55 l 0.05,-0.25 0.2,-5.55 0.2,-6.7 0.05,-0.1 -0.05,-3.1 0.15,-1.8 q 0,-2.7 0.75,-5.15 1.7,-5.5 7.15,-6.4 l 2.05,-0.2 h 0.15 0.1 0.25 l 1.75,0.15 q 5.65,0.8 7.4,6.45 0.7,2.45 0.7,5.15 l 0.2,1.8 -0.05,3.1 0.05,0.1 0.05,3.25 -4.3,-0.5 h -0.25 q -7.1,0.1 -9.7,3.85 -0.8,1.1 -1.15,2.85 -0.4,1.2 -0.4,2.55 M 12.7,-35.1 q -2.6,0 -2.6,2.3 0,1.05 0.15,1.35 0.5,1.15 2.6,1.15 2.4,0 2.4,-2.35 0,-2.45 -2.55,-2.45"
         fill="#b8c4c3"
         fill-rule="evenodd"
         stroke="none"
         id="path5" />
    </g>
    <g
       id="shape1"
       transform="translate(57.8,72.05)">
      <path
         d="m 33,-70.05 q 0.4,1.5 0.4,4.55 v 2.8 q -0.1,0.9 -0.4,1.45 v 0.2 q 0,0.4 -0.7,0.9 -0.75,0.5 -1.55,0.7 H -23 q -6.5,0.35 -8.65,-0.55 -0.9,-0.35 -0.9,-1.05 l 0.05,-0.4 -0.4,-1.75 v -3.1 l 0.25,-3.95 -0.1,-0.6 q 0,-0.6 0.55,-1 l 0.05,-0.2 H 32.3 q 1.1,0.4 1.1,1.1 0,0.5 -0.4,0.9 m -3.5,4.55 q 0,-2.35 0.35,-3.75 l -2.95,-0.05 -55.7,0.1 q 0.15,1.3 0.15,3 v 3.4 0.1 q 2.25,-0.2 5.65,0 H 29.6 L 29.5,-63 v -2.5 m -8.2,59.45 q 0,-2.35 0.25,-3.7 V -9.8 l -2.15,-0.05 -40.7,0.1 0.1,3 v 3.4 0.1 q 1.65,-0.2 4.15,0 H 12.3 q 1.65,-0.2 4.15,0 h 4.9 l -0.05,-0.3 v -2.5 m 2.85,0 v 2.8 h 30.7 l -0.05,-0.3 v -2.5 q 0,-2.35 0.25,-3.75 l -2.15,-0.05 -28.9,0.1 0.15,3.7 m -76.9,8.5 q 0,-1.5 0.35,-2.35 -3.25,0.05 -4.5,-0.65 -0.65,-0.35 -0.65,-1.05 l 0.05,-0.4 -0.3,-1.75 v -3.1 l 0.2,-3.95 -0.1,-0.6 q 0,-0.6 0.4,-1 l 0.05,-0.2 h 114.1 q 0.8,0.4 0.8,1.1 l -0.3,0.9 0.3,4.55 v 2.8 l -0.3,1.45 v 0.2 L 56.85,-0.7 55.7,0 h -3.9 q 0.35,0.85 0.35,2.45 0,1.35 -0.45,2.55 -0.4,1.75 -1.3,2.85 -2.9,3.7 -10.85,3.85 H 39.3 Q 31.35,11.6 28.45,7.85 27.55,6.75 27.15,5 26.7,3.8 26.7,2.45 26.7,0.85 27.1,0 H 16.45 q -2.65,0.2 -4.3,0 h -39.8 q 0.35,0.85 0.35,2.45 0,1.35 -0.45,2.55 -0.4,1.75 -1.3,2.85 -2.9,3.7 -10.85,3.85 h -0.25 Q -48.1,11.6 -51,7.85 -51.9,6.75 -52.3,5 -52.75,3.8 -52.75,2.45 m 91.9,5.95 h 0.15 0.25 0.1 q 5.45,0 7.7,-2.05 0.9,-1 1.15,-2.5 L 48.75,1 l -4.6,0.3 0.2,0.3 q 1.2,1.7 1.2,2.6 L 45.5,4.65 45.25,4.8 42.95,2.7 41.8,1.3 h -4.85 -0.6 Q 35.15,3.6 33.8,4.8 L 33.25,4.25 33.2,3.45 q 0,-1.3 0.65,-2.15 L 33.9,1.25 30.1,1 30.35,3.85 q 0.25,1.5 1.15,2.5 2.25,2.05 7.65,2.05 M -24.3,-3.75 v -3.1 l 0.1,-2.95 -30.6,0.05 0.1,3 v 3.4 0.1 q 1.65,-0.2 4.15,0 h 26.3 l -0.05,-0.5 m -16,12.15 h 0.15 0.25 0.1 q 5.45,0 7.7,-2.05 0.9,-1 1.15,-2.5 L -30.7,1 l -4.6,0.3 0.2,0.3 q 1.2,1.7 1.2,2.6 l -0.05,0.45 -0.25,0.15 -2.3,-2.1 -1.15,-1.4 h -4.85 -0.6 q -1.2,2.3 -2.55,3.5 l -0.55,-0.55 -0.05,-0.8 q 0,-1.3 0.65,-2.15 l 0.05,-0.05 -3.8,-0.25 0.25,2.85 q 0.25,1.5 1.15,2.5 2.25,2.05 7.65,2.05"
         fill="#6b6b6b"
         fill-rule="evenodd"
         stroke="none"
         id="path6" />
      <path
         d="m 24.15,-6.05 -0.15,-3.7 28.9,-0.1 2.15,0.05 q -0.25,1.4 -0.25,3.75 v 2.5 l 0.05,0.3 h -30.7 v -2.8 m -2.85,0 v 2.5 l 0.05,0.3 h -4.9 q -2.5,-0.2 -4.15,0 h -29.35 q -2.5,-0.2 -4.15,0 v -0.1 -3.4 l -0.1,-3 40.7,-0.1 2.15,0.05 v 0.05 q -0.25,1.35 -0.25,3.7 m 8.2,-59.45 v 2.5 l 0.1,0.3 H -23 q -3.4,-0.2 -5.65,0 v -0.1 -3.4 q 0,-1.7 -0.15,-3 l 55.7,-0.1 2.95,0.05 q -0.35,1.4 -0.35,3.75 m 9.65,73.9 q -5.4,0 -7.65,-2.05 -0.9,-1 -1.15,-2.5 L 30.1,1 33.9,1.25 33.85,1.3 Q 33.2,2.15 33.2,3.45 l 0.05,0.8 0.55,0.55 q 1.35,-1.2 2.55,-3.5 h 0.6 4.85 l 1.15,1.4 2.3,2.1 0.25,-0.15 0.05,-0.45 q 0,-0.9 -1.2,-2.6 L 44.15,1.3 48.75,1 48.5,3.85 q -0.25,1.5 -1.15,2.5 -2.25,2.05 -7.7,2.05 h -0.1 -0.25 -0.15 m -63.45,-12.15 0.05,0.5 h -26.3 q -2.5,-0.2 -4.15,0 v -0.1 -3.4 l -0.1,-3 30.6,-0.05 -0.1,2.95 v 3.1 m -16,12.15 q -5.4,0 -7.65,-2.05 -0.9,-1 -1.15,-2.5 L -49.35,1 l 3.8,0.25 -0.05,0.05 q -0.65,0.85 -0.65,2.15 l 0.05,0.8 0.55,0.55 q 1.35,-1.2 2.55,-3.5 h 0.6 4.85 l 1.15,1.4 2.3,2.1 0.25,-0.15 0.05,-0.45 q 0,-0.9 -1.2,-2.6 l -0.2,-0.3 4.6,-0.3 -0.25,2.85 q -0.25,1.5 -1.15,2.5 -2.25,2.05 -7.7,2.05 h -0.1 -0.25 -0.15"
         fill="#badad6"
         fill-rule="evenodd"
         stroke="none"
         id="path7" />
    </g>
  </defs>
</svg>
