<?xml version="1.0" encoding="UTF-8" standalone="no"?>
<svg
   ffdec:objectType="frame"
   height="12.6"
   width="16.9"
   version="1.1"
   id="svg3"
   sodipodi:docname="1.svg"
   xmlns:inkscape="http://www.inkscape.org/namespaces/inkscape"
   xmlns:sodipodi="http://sodipodi.sourceforge.net/DTD/sodipodi-0.dtd"
   xmlns:xlink="http://www.w3.org/1999/xlink"
   xmlns="http://www.w3.org/2000/svg"
   xmlns:svg="http://www.w3.org/2000/svg"
   xmlns:ffdec="https://www.free-decompiler.com/flash">
  <sodipodi:namedview
     id="namedview3"
     pagecolor="#ffffff"
     bordercolor="#000000"
     borderopacity="0.25"
     inkscape:showpageshadow="2"
     inkscape:pageopacity="0.0"
     inkscape:pagecheckerboard="0"
     inkscape:deskcolor="#d1d1d1"
     fit-margin-top="5"
     fit-margin-left="5"
     fit-margin-right="5"
     fit-margin-bottom="5" />
  <g
     transform="translate(8.45,6.3)"
     id="g1">
    <use
       ffdec:characterId="4209"
       height="12.6"
       transform="translate(-8.45,-6.3)"
       width="16.9"
       xlink:href="#shape0"
       id="use1" />
  </g>
  <defs
     id="defs3">
    <g
       id="shape0"
       transform="translate(8.45,6.3)">
      <path
         d="m 1.2,-1.4 q -0.05,1.25 -1.1,1.25 -1.05,0 -1.05,-1.2 0,-0.9 1.1,-1 1.05,-0.2 1.05,0.95"
         fill="#777777"
         fill-rule="evenodd"
         stroke="none"
         id="path1" />
      <path
         d="m 6.8,-6.2 1.15,0.4 q 0.5,0.35 0.5,0.85 0,1 -1.6,1.25 l -0.3,0.1 0.15,3.45 v 2.1 L 6.5,2.9 6.55,4 V 5.25 Q 6.45,6.3 5.5,6.3 4.5,6.3 4.2,4.9 V 4.55 h -7.95 q 0,0.45 -0.3,0.85 -0.3,0.55 -0.95,0.55 -1.25,0 -1.45,-1.4 L -6.5,3.1 -6.45,2.2 -6.65,1.1 -6.7,-1.5 -6.5,-3.6 h -0.55 q -1.4,0 -1.4,-1.35 l 0.3,-0.75 0.85,-0.5 0.25,-0.1 H 6.2 l 0.6,0.1 m -2.45,2.6 h -8.4 q 0.15,0.8 0.15,2.05 0.1,2.1 -0.15,3.3 H 4.1 V -0.1 q 0,-2.2 0.25,-3.5"
         fill="#6b6b6b"
         fill-rule="evenodd"
         stroke="none"
         id="path2" />
      <path
         d="M 4.35,-3.6 Q 4.1,-2.3 4.1,-0.1 v 1.85 h -8.15 q 0.25,-1.2 0.15,-3.3 0,-1.25 -0.15,-2.05 h 8.4 M 1.2,-1.4 q 0,-1.15 -1.05,-0.95 -1.1,0.1 -1.1,1 0,1.2 1.05,1.2 1.05,0 1.1,-1.25"
         fill="#cbbbbb"
         fill-rule="evenodd"
         stroke="none"
         id="path3" />
    </g>
  </defs>
</svg>
