<?xml version="1.0" encoding="UTF-8" standalone="no"?>
<svg
   ffdec:objectType="frame"
   height="54.526672"
   width="120.35715"
   version="1.1"
   id="svg13"
   sodipodi:docname="2.svg"
   xmlns:inkscape="http://www.inkscape.org/namespaces/inkscape"
   xmlns:sodipodi="http://sodipodi.sourceforge.net/DTD/sodipodi-0.dtd"
   xmlns:xlink="http://www.w3.org/1999/xlink"
   xmlns="http://www.w3.org/2000/svg"
   xmlns:svg="http://www.w3.org/2000/svg"
   xmlns:ffdec="https://www.free-decompiler.com/flash">
  <sodipodi:namedview
     id="namedview13"
     pagecolor="#ffffff"
     bordercolor="#000000"
     borderopacity="0.25"
     inkscape:showpageshadow="2"
     inkscape:pageopacity="0.0"
     inkscape:pagecheckerboard="0"
     inkscape:deskcolor="#d1d1d1"
     fit-margin-top="5"
     fit-margin-left="5"
     fit-margin-right="5"
     fit-margin-bottom="5" />
  <g
     transform="translate(59.807145,22.225099)"
     id="g3">
    <use
       ffdec:characterId="2623"
       height="54.25"
       transform="translate(-59.65,-22.1)"
       width="120.05"
       xlink:href="#shape0"
       id="use1" />
    <use
       ffdec:characterId="1920"
       height="10.1"
       transform="translate(-16.45,-11.8)"
       width="19.9"
       xlink:href="#sprite0"
       id="use2" />
    <use
       ffdec:characterId="44"
       height="8"
       transform="matrix(0.8457,0.5336,-0.5336,0.8457,-38.6826,5.0356)"
       width="10.8"
       xlink:href="#sprite1"
       id="use3" />
  </g>
  <defs
     id="defs13">
    <g
       id="shape0"
       transform="translate(59.65,22.1)">
      <path
         d="m -59,0.4 q 0.65,-1.85 2.65,-2.85 1.25,-0.65 4.75,-0.7 l 4.95,0.1 89.95,-0.05 0.95,-0.05 h 1.8 l 0.1,-0.1 q 1.95,-1.9 2.55,-3.3 l 0.35,-1.5 -0.1,-1.1 -0.6,0.05 -4.65,-0.1 -0.35,-0.25 -0.1,-0.3 q -0.3,-0.5 -0.2,-1.9 l -0.1,0.05 q -1.15,0.65 -2.65,0.65 -2.4,0 -4.95,-1.95 -2.15,-1.6 -2.15,-2.1 l 1.75,-1.2 q 7,-4.85 9.6,-5.3 2.55,-0.45 4.55,0 2.05,0.45 3.6,1.8 l 0.3,0.3 q 1.6,1.6 1.9,3.2 l 0.05,0.45 0.9,-0.1 q 1.35,-0.05 1.85,0.35 0.6,0.25 0.6,1.9 l -0.1,4.45 q 0.35,0.15 0.35,0.95 l -0.15,0.9 -0.25,0.35 -0.2,5.55 q 0.75,0.65 1.1,1.8 h 0.05 l 0.05,0.2 0.2,1.4 q 0.05,1.8 -1.3,2.45 l -0.6,0.2 V 4.85 4.9 4.95 H 57.4 V 5.05 8.1 L 57.45,8.25 57.5,20.4 V 22 l -0.05,0.45 h 0.1 v 0.2 H 59 l 0.4,0.45 q 0.65,0.95 0.65,2.4 v 0.45 L 60,26.7 q -0.25,0.9 -1.25,0.9 L 58.3,27.55 57.95,27.65 34.1,27.6 34.45,28 h 0.3 q 0.75,0.85 0.85,1.6 0.05,0.8 -1,1.55 l -0.45,0.3 Q 24.2,32.2 23.7,31.35 23.1,30.4 23.15,29.6 23.25,28.85 23.9,28 h 0.3 l 0.5,-0.6 0.05,-0.05 q -2.65,-0.05 -4.3,-1.4 l -1,-0.9 Q 18.25,23.6 18.25,22.2 V 22.15 H -10.4 l -0.1,0.25 q -0.55,1 -3,2.85 0,0.35 -0.4,0.5 l 0.2,0.2 1.35,1.45 0.6,0.6 h 0.25 q 0.75,0.85 0.85,1.6 0.05,0.8 -1,1.55 l -0.45,0.3 -10,-0.35 q -0.9,-0.7 -0.85,-1.6 0,-0.7 0.6,-1.5 h 0.3 l 0.5,-0.6 1.3,-1.45 0.15,-0.2 q -0.35,-0.15 -0.35,-0.5 -2.3,-1.85 -2.8,-2.85 l -0.1,-0.25 h -5.85 q -8.85,-1.35 -12.9,-4.75 -2.4,-2.05 -4.85,-6.2 l -1.8,-2.9 -1.7,-2.95 -0.1,-0.15 -0.1,-0.15 H -50.8 L -54.85,5 -56.9,4.8 Q -58.35,4.55 -58.95,3.7 L -59.3,2.45 Q -59.35,1.3 -59.05,0.4 H -59 M 50.65,-18.9 q -1.65,-1 -4.4,-1 -2.7,0 -6.5,2.45 l -1.9,1.25 -0.7,0.5 1.15,0.5 1.95,0.75 2.45,0.95 0.35,-0.1 h 0.05 v -0.05 -0.15 l -0.05,-0.05 0.05,-0.05 v -0.2 q 0,-0.4 0.5,-0.6 l 0.35,-0.1 q 1.45,-1.15 2.9,-1.4 l 0.9,-0.05 0.5,0.05 1.15,0.5 0.5,0.7 0.15,0.9 v 0.15 L 50.6,-14 h 0.1 l 0.05,-0.75 0.3,-0.45 0.4,-0.3 H 51.5 52 l 1.25,-0.1 -0.25,-0.6 -0.55,-1 -0.45,-0.65 -1.35,-1.05 m -13.75,3.8 -0.2,-0.2 -0.1,0.1 -0.7,0.45 q 1.45,1 2.4,1.55 1.2,0.65 1.5,0.65 l 1.55,-0.2 q -1.15,-0.3 -2.3,-0.95 l -0.3,-0.2 -1.15,-0.8 -0.4,-0.2 -0.3,-0.2 m 19.55,1.5 v -0.1 l 0.05,-0.35 -0.75,0.05 -0.15,0.05 -2.25,0.25 h -0.9 v 0.15 l 0.05,0.2 v 0.1 l 0.1,0.45 v 0.35 l 0.15,1.4 v 0.4 l 0.05,0.5 v 0.35 h 0.15 l 1.15,-0.05 h 0.6 l 1.8,0.05 -0.05,-3.8 m -11.85,0.55 h 3.45 L 48,-13.35 H 47.65 44.6 l -0.05,0.1 0.05,0.2 m 2.15,-1.95 1.5,0.05 -0.7,-0.15 -0.8,0.1 m 3.5,2.8 h -0.2 -0.25 l -0.05,0.3 v 0.15 l -0.05,0.15 v 0.05 l 0.45,0.05 0.55,0.05 0.5,0.15 v -0.3 l 0.05,-0.45 0.05,-0.15 h -0.15 -0.9 m -5.55,0.6 3.1,-0.5 h 0.35 v -0.1 l -3.45,0.05 v 0.55 m 3.55,0.4 -1.4,0.1 -1.9,-0.15 -0.2,-0.1 v 0.55 l 3.4,0.15 h 0.2 l -0.1,-0.55 m 2.9,6.25 v -0.3 -0.4 -0.55 l -0.5,-0.5 -0.05,-0.6 0.2,-1.45 0.3,-0.5 0.05,-0.85 v -0.35 l -0.35,0.05 h -0.5 v 0.1 l 0.05,0.2 0.15,0.75 q 0,2.25 -0.55,4.05 l -0.8,1.55 -0.45,0.6 h 0.95 l 0.75,0.05 h 0.35 l 0.45,0.05 -0.05,-0.75 v -0.85 -0.3 m 4.1,-2.8 h 1.3 V -8.5 H 55.3 53.05 v 0.05 l -0.2,0.35 v 0.35 l 0.3,-0.05 h 0.1 l 0.8,0.2 H 54.2 L 55,-7.75 h 0.25 m -0.7,5.1 1.4,0.3 0.85,0.2 -0.2,-4.4 h -0.2 l -2.1,0.05 h -1 -0.05 -0.15 -0.15 -0.1 v 0.15 0.8 0.25 0.1 l 0.05,0.8 -0.05,0.9 -0.1,0.55 0.25,0.05 0.3,0.05 1.05,0.15 0.15,0.05 h 0.05 m 2.3,3.2 H 56.8 L 56.7,0.4 q -0.5,-0.6 -2,-0.8 L 51.85,-0.9 49.75,-0.85 -51.5,-0.9 q -1.2,0 0.4,0.05 l -3.45,0.35 -0.35,0.2 -1.4,0.85 -0.15,0.15 Q -57,1.2 -57,1.75 q 0,0.5 1.9,0.8 L -54.8,2.6 54.35,2.65 55.45,2.5 H 55.6 Q 56.2,2.35 56.55,2 56.95,1.6 56.9,1 L 56.85,0.55 m -72.4,17.55 q 0.15,1.1 2.1,1.65 l 1.1,0.3 q -0.15,-1.25 -0.6,-1.9 -0.5,-0.8 -1.5,-1.25 -0.5,-0.25 -1.15,-0.4 v 1.4 l 0.05,0.2 m -6.15,-2.15 0.6,-0.35 q 1.75,-0.95 4.05,-1.05 h 0.2 l 0.65,0.05 0.2,0.05 q 1.75,0.2 3.2,0.95 2.5,1.3 2.65,3.6 l 0.05,0.65 7.45,0.05 0.4,0.05 6.7,0.1 18.25,0.05 v -0.9 q 0.1,-2.3 2.45,-3.6 l 0.25,-0.15 q 1.65,-0.8 3.8,-0.9 h 0.2 l 0.7,0.05 q 1.8,0.2 3.35,1 1.1,0.5 1.75,1.3 0.8,1 0.9,2.3 l 0.05,0.6 8.6,-0.1 q 4.75,-1.15 6.65,-5.2 1.95,-4.15 2.1,-6.7 L 53.75,5.35 V 5.3 L 53.8,5.05 V 5 h 0.25 V 4.95 L 51.45,5 -46.9,4.95 l -0.15,0.1 h -0.2 v 0.1 l 0.15,0.2 2.25,3.35 q 3.2,5.05 4.6,6.2 l 0.25,0.2 q 4.2,3.6 12.2,4.65 l 4.25,0.05 v -0.6 q 0.1,-2 1.85,-3.25 m 3.25,1.5 -0.05,-0.95 q -1.75,0.4 -2.5,1.65 l -0.4,1.2 -0.1,0.45 h 0.4 v 0.1 l 0.55,-0.15 q 2,-0.6 2.05,-1.85 l 0.05,-0.45 m 1.4,-1.15 -0.55,0.05 0.1,0.3 -0.05,1.35 q -0.05,0.9 -0.75,1.7 l -0.15,0.15 q 0.15,0.1 0.15,0.3 l 0.8,0.95 h 0.9 l 0.4,-0.35 0.4,-0.6 0.15,-0.3 -0.15,-0.15 -0.4,-0.5 -0.35,-1.2 -0.05,-1.35 0.1,-0.3 -0.35,-0.05 h -0.2 m 3.65,6.7 q 0.9,-1.15 1.15,-1.9 l -2.1,-0.4 -0.45,0.7 -1.4,0.65 -0.65,0.05 h -0.2 q -1.45,-0.05 -2.2,-0.7 l -0.45,-0.7 -1.65,0.4 -0.1,0.5 0.3,0.5 0.8,1.1 0.95,1.4 0.55,0.4 0.1,0.1 0.05,0.1 1.15,0.05 h 0.5 0.2 0.3 0.35 0.3 l 0.55,-0.05 0.1,-0.2 0.65,-0.4 1,-1.4 0.2,-0.2 m -2.05,6.5 q 0.2,0.35 0.25,1 l -0.05,0.2 1.65,-0.7 0.35,-0.95 -0.6,-0.8 -0.3,-0.25 h -0.45 l -0.8,-0.7 -0.35,0.05 -0.45,0.05 -0.15,0.05 -0.5,0.05 -0.2,0.05 -0.5,-0.1 -0.7,-0.1 h -0.1 l -0.3,-0.05 -0.25,0.25 q -0.25,0.15 -0.5,0.45 h -0.45 l -0.3,0.25 -0.55,0.8 0.35,0.95 1.5,0.7 -0.05,-0.2 q 0.1,-0.8 0.4,-1.15 l 0.2,-0.3 h 0.05 l 0.6,-0.15 0.05,0.15 -0.15,0.55 -0.05,0.6 0.75,0.4 0.2,-0.05 0.55,-0.35 v -0.6 l -0.2,-0.55 q 0,-0.2 0.3,-0.25 h 0.05 q 0.45,0.2 0.7,0.7 m -1.4,-3.45 h -0.2 -0.45 -0.9 q 0.15,0.2 0.15,0.45 l 0.45,0.15 0.75,0.1 h 0.2 l 0.55,-0.1 h 0.1 l 0.35,-0.15 0.15,-0.45 h -0.2 -0.3 -0.4 -0.25 M 56.1,9.45 V 9.2 l -0.05,0.2 -1.3,3.95 -1,2.05 -0.2,0.4 -0.95,1.6 -0.1,0.1 -0.45,0.6 0.15,0.6 0.1,1 v 1 l 1.05,-0.05 h 0.5 0.75 0.05 l 0.7,0.05 h 0.05 0.65 v -0.25 l 0.05,-11 M 49.4,22.1 50.15,21.2 50.1,20.1 q -2.15,1.65 -4.85,2 h -6.1 L 38.8,22.15 H 35.85 L 35.8,22.3 49.25,22.35 49.4,22.1 m -1.35,1.6 -12.9,0.05 -0.5,-0.05 H 34.6 l -0.3,0.25 -0.15,0.3 q 0.15,-0.2 0.6,-0.25 l 13.3,-0.05 V 23.7 m 2.2,0.15 V 23.7 H 49.1 l 0.05,0.2 0.1,1.35 v 0.25 0.75 H 50 l 0.05,-0.3 0.05,-0.55 0.05,-0.15 0.1,-1.4 m 3.1,-2.1 h -1.1 l -0.05,0.7 h 0.25 l 3.3,-0.05 h 0.3 L 56,22 v -0.3 h -0.15 l -2.5,0.05 m -2.05,2.05 0.05,0.4 0.05,1.05 v 0.05 l -0.05,0.35 v 0.3 0.3 L 56.4,26.2 56.45,26 v -0.05 l 0.2,-0.85 V 25.05 L 56.6,24.5 56.3,24 56.05,23.8 55.65,23.65 52,23.6 h -0.1 l -0.6,0.2 m 6.8,1.85 v 0.25 0.05 l -0.05,0.25 0.2,0.05 0.25,-0.3 0.15,-0.3 q 0,-1.05 -0.35,-1.5 l -0.25,-0.3 0.05,0.7 v 0.5 0.6 M 47.05,25.6 H 39.1 l -0.4,-0.05 h -5.35 l -0.1,0.4 -0.05,0.1 -0.05,0.2 h 1 13.9 V 25.6 h -1 m -19.4,-9.05 q -1.65,0.4 -2.4,1.6 -0.45,0.6 -0.55,1.8 v 0.1 l 0.25,-0.1 0.75,-0.2 0.25,-0.05 q 1.75,-0.65 1.8,-1.8 v -1.4 l -0.1,0.05 m 2.25,2.2 -0.2,-0.75 -0.05,-1.35 0.1,-0.3 -0.35,-0.05 h -0.2 l -0.55,0.05 0.1,0.3 L 28.7,18 q -0.05,0.9 -0.75,1.7 l -0.15,0.15 0.15,0.3 0.8,0.95 h 0.9 l 0.45,-0.35 0.35,-0.6 0.15,-0.3 -0.15,-0.15 -0.2,-0.25 v -0.1 q 0,-0.45 -0.35,-0.6 m -4.05,6.6 -0.05,-0.1 -1.65,-1.5 -1,-1.15 L 23,22.4 22.95,22.15 h -2.7 v 0.1 l 0.2,0.7 0.25,0.75 0.1,0.15 q 0.2,0.65 0.8,1.05 0.75,0.55 2.15,0.9 l 0.6,0.15 0.95,0.35 0.15,0.05 0.15,0.05 0.15,-0.2 0.2,-0.25 0.1,-0.05 0.1,-0.1 v -0.05 l -0.1,-0.05 -0.2,-0.35 m 6.8,-2.1 V 23.2 L 34,21.1 31.9,20.7 31.45,21.4 q -0.5,0.4 -1.35,0.65 L 29.4,22.1 H 29.2 Q 27.75,22.05 27,21.4 l -0.45,-0.7 -1.95,0.4 q 0.2,0.65 0.9,1.6 l 0.4,0.5 0.4,0.5 0.1,0.1 0.45,0.8 0.55,0.4 0.15,0.2 1.15,0.05 h 0.4 0.1 0.2 0.3 0.4 L 30.9,25.2 31,25 l 0.15,-0.1 0.3,-0.2 0.2,-0.1 0.1,-0.1 0.4,-0.7 0.1,-0.1 0.4,-0.45 m -1.9,-4.95 q 0.3,1 2.05,1.45 l 1.1,0.3 q -0.15,-1.25 -0.6,-1.9 l -0.95,-0.9 q -0.7,-0.5 -1.7,-0.75 v 1.4 l 0.1,0.4 m 0,11.1 0.3,1.1 L 31,30.7 32.65,30 33,29.05 32.4,28.25 32.1,28 h -0.45 l -0.8,-0.7 H 30.8 l -0.2,0.05 h -0.1 -0.2 l -0.2,0.05 -0.6,0.1 h -0.1 l -0.2,0.05 H 29.1 L 28.3,27.4 27.9,27.35 27.6,27.3 26.85,28 H 26.4 l -0.3,0.25 -0.55,0.8 0.35,0.95 q 0.5,0.4 1.5,0.7 l -0.05,-0.2 q 0.15,-1 0.5,-1.4 l 0.4,-0.3 q 0.4,0 0.4,0.25 l -0.1,0.35 q -0.2,0.45 -0.1,0.8 l 0.75,0.4 0.2,-0.05 0.6,-0.35 -0.05,-0.7 -0.2,-0.45 q 0,-0.2 0.35,-0.25 h 0.05 l 0.6,0.6 m -2,-3.35 H 28.6 27.85 L 28,26.3 v 0.1 0.1 l 0.45,0.15 0.75,0.1 h 0.2 L 29.7,26.7 30,26.65 h 0.1 l 0.35,-0.15 v -0.05 -0.2 l 0.1,-0.2 H 30.1 29.65 29.4 29.2 28.75"
         fill="#6b6b6b"
         fill-rule="evenodd"
         stroke="none"
         id="path3" />
      <path
         d="m 38.3,-15.2 -1.15,-0.5 0.7,-0.5 1.9,-1.25 q 3.8,-2.45 6.5,-2.45 2.75,0 4.4,1 l -0.3,0.05 -1,0.15 -1.2,0.15 H 47.9 l -1.8,0.2 -2.6,0.3 -2.7,1.55 -0.55,0.3 -1.95,1 m -1.7,0 0.1,-0.1 0.2,0.2 -0.3,-0.1 m 16.25,3.25 v -0.35 -0.1 l -0.25,-0.05 v -0.35 l -0.1,-0.45 v -0.1 l -0.05,-0.2 v -0.15 h 0.9 l 2.25,-0.25 0.15,-0.05 0.75,-0.05 -0.05,0.35 v 0.1 l -0.95,0.65 -0.75,0.3 v 0.3 q 0,0.9 -0.95,0.9 h -0.1 q -0.75,-0.05 -0.85,-0.5 m 2.45,3.45 0.05,0.35 -0.1,0.4 H 55 l -0.8,0.15 h -0.15 l -0.8,-0.2 h -0.1 l -0.3,0.05 V -8.1 l 0.2,-0.35 V -8.5 h 2.25 m -69.75,25.4 q 0,0.45 -0.3,0.8 -0.3,0.35 -0.8,0.4 l -0.05,-0.2 v -1.4 q 0.65,0.15 1.15,0.4 m -6.95,2.45 0.4,-1.2 q 0.75,-1.25 2.5,-1.65 l 0.05,0.95 -0.95,0.8 -1.65,1.15 -0.35,-0.05 m 4.7,0.6 -0.55,0.2 -0.7,-0.1 -0.1,-0.45 q 0.2,-0.65 0.8,-0.6 0.6,0.05 0.6,0.6 l -0.05,0.35 m -2.15,9 q -0.4,-0.15 -0.3,-0.55 v -0.15 l 0.1,-0.25 h 0.6 l 0.4,-0.05 0.65,0.05 h 0.4 l 0.05,0.1 v 0.15 l -0.4,0.5 -0.3,0.15 -0.6,0.15 h -0.05 l -0.55,-0.1 m 68,-5.05 1.1,-0.05 -0.1,1.4 h -0.9 L 49.15,23.9 M 51.4,25.25 51.35,24.2 51.3,23.8 h 1.55 0.5 0.45 1.65 l 0.85,0.25 0.2,0.35 -0.35,0.5 -0.1,0.05 -0.55,0.15 -2.2,0.15 H 53.2 53 52.8 52 51.4 m -23.75,-8.7 0.05,0.7 -0.7,1.45 -1.05,1 -0.25,0.05 -0.75,0.2 H 24.7 q 0.1,-1.2 0.55,-1.8 0.75,-1.2 2.4,-1.6 m 2.6,2.9 -0.2,0.35 q -0.25,0.35 -0.65,0.35 -0.85,0 -0.85,-0.8 0,-0.7 0.85,-0.7 l 0.5,0.1 q 0.35,0.15 0.35,0.6 v 0.1 m 2.1,-2.2 -0.05,0.5 q -0.2,0.75 -0.95,0.75 l -0.6,-0.2 -0.1,-0.4 v -1.4 q 1,0.25 1.7,0.75 M 28.05,28.6 Q 27.8,28.4 27.9,28.25 L 28,28 h 1.65 v 0.05 0.05 0.15 Q 29.5,28.7 28.7,28.7 l -0.65,-0.1"
         fill="#ffffff"
         fill-rule="evenodd"
         stroke="none"
         id="path4" />
      <path
         d="m 52,-17.85 0.45,0.65 0.55,1 0.25,0.6 -1.25,0.1 h -0.5 l -0.15,-0.7 -0.05,-0.1 q -0.75,-1.15 -3.25,-1.25 l -0.7,-0.05 -0.2,0.05 q -1.1,0.1 -3.65,1.35 l -1.45,0.75 -1.8,1 -1.95,-0.75 1.95,-1 0.55,-0.3 2.7,-1.55 2.6,-0.3 1.8,-0.2 h 0.25 l 1.2,-0.15 1,-0.15 1.65,1 m -15.4,2.65 0.3,0.1 0.3,0.2 0.4,0.2 1.15,0.8 0.3,0.2 q -0.5,0.25 -0.75,0.5 -0.95,-0.55 -2.4,-1.55 l 0.7,-0.45 m 16,2.75 0.25,0.05 v 0.1 0.35 l -0.1,0.9 -0.15,-1.4 m 1.1,1 h 0.1 q 0.95,0 0.95,-0.9 v -0.3 l 0.75,-0.3 0.95,-0.65 0.05,3.8 -1.8,-0.05 h -0.6 v -0.2 l -0.4,-1.4 m -9.1,-1.6 -0.05,-0.2 0.05,-0.1 H 47.65 48 l 0.05,0.3 H 44.6 m 5.55,1.55 -0.45,-0.05 v -0.05 l 0.05,-0.15 v -0.15 l 0.05,-0.3 h 0.25 0.2 l -0.1,0.7 m 1,-0.7 h 0.15 l -0.05,0.15 -0.05,0.45 -0.05,-0.5 v -0.1 m -2.9,1 0.1,0.55 h -0.2 l -3.4,-0.15 v -0.55 l 0.2,0.1 1.9,0.15 1.4,-0.1 m -3.55,-0.4 v -0.55 l 3.45,-0.05 v 0.1 H 47.8 l -3.1,0.5 m 5.7,8.5 0.1,-0.25 0.3,-0.6 0.25,-0.65 v -0.1 l 0.1,-0.25 v 0.3 0.85 L 51.2,-3.05 50.75,-3.1 H 50.4 m 4.9,-5.4 h 1.25 v 0.75 h -1.3 l 0.1,-0.4 -0.05,-0.35 m -1,2 2.1,-0.05 h 0.2 l 0.2,4.4 -0.85,-0.2 -1.4,-0.3 0.05,-0.3 v -0.1 L 54.45,-4.9 54.3,-6.5 m -1.3,3.6 -0.25,-0.05 0.1,-0.55 0.05,-0.9 -0.05,-0.8 v -0.1 -0.25 -0.8 l 0.1,0.8 v 0.05 l 0.1,1.1 v 0.15 L 53,-2.9 m -67.45,19.8 q 1,0.45 1.5,1.25 0.45,0.65 0.6,1.9 l -1.1,-0.3 q -1.95,-0.55 -2.1,-1.65 0.5,-0.05 0.8,-0.4 0.3,-0.35 0.3,-0.8 m -4,0.55 -0.05,0.45 q -0.05,1.25 -2.05,1.85 l -0.55,0.15 v -0.1 h -0.4 l 0.1,-0.45 0.35,0.05 1.65,-1.15 0.95,-0.8 m 1.4,-1.15 h 0.2 l 0.35,0.05 -0.1,0.3 0.05,1.35 0.35,1.2 0.4,0.5 0.15,0.15 -0.15,0.3 -0.4,0.6 -0.4,0.35 h -0.9 l -0.8,-0.95 q 0,-0.2 -0.15,-0.3 l 0.15,-0.15 q 0.7,-0.8 0.75,-1.7 l 0.05,-1.35 -0.1,-0.3 0.55,-0.05 m 0.35,3.65 0.05,-0.35 q 0,-0.55 -0.6,-0.6 -0.6,-0.05 -0.8,0.6 l 0.1,0.45 0.7,0.1 0.55,-0.2 m -4.45,2.15 -0.3,-0.5 0.1,-0.5 1.65,-0.4 0.45,0.7 q 0.75,0.65 2.2,0.7 h 0.2 l 0.65,-0.05 1.4,-0.65 0.45,-0.7 2.1,0.4 q -0.25,0.75 -1.15,1.9 l -0.1,-0.05 q -0.45,0 -1.35,0.6 -0.85,0.5 -1.6,0.5 -1.3,0 -3.75,-1.55 -0.6,-0.35 -0.95,-0.4 m 2.65,7.25 -0.35,-0.4 0.55,0.1 -0.2,0.3 m 1.55,-1.25 0.65,-0.1 h 0.8 l 0.35,0.25 0.6,0.5 -0.15,0.45 -0.75,0.3 q -0.25,-0.5 -0.7,-0.7 h -0.05 q -0.3,0.05 -0.3,0.25 l 0.2,0.55 h -0.95 -0.5 l 0.15,-0.55 -0.05,-0.15 0.3,-0.15 0.4,-0.5 V 28.1 M 56.1,9.45 l -0.05,11 V 20.7 H 55.4 L 55.45,20.25 55.2,14.1 54.75,13.35 56.05,9.4 56.1,9.45 m -2.75,11.2 -1.05,0.05 v -1 l -0.1,-1 0.3,-1.2 0.1,-0.1 0.3,1.3 0.45,1.95 m -4.2,3.25 -0.05,-0.2 h 1.15 v 0.15 l -1.1,0.05 m -1.1,-0.2 v 0.25 L 34.75,24 q -0.45,0.05 -0.6,0.25 l 0.15,-0.3 0.3,-0.25 h 0.05 l 0.5,0.05 12.9,-0.05 m 2.1,1.55 -0.05,0.15 -0.85,0.1 v -0.25 h 0.9 m 2.3,-2.8 H 52.2 l 0.05,-0.7 h 1.1 l -0.9,0.7 m 3.4,-0.75 H 56 V 22 l 0.05,0.4 h -0.3 l 0.1,-0.35 V 21.9 21.75 21.7 m -4.45,3.55 h 0.6 0.8 l -1.4,0.05 v -0.05 m 4.1,-0.15 0.55,-0.15 0.1,-0.05 0.35,-0.5 -0.2,-0.35 -0.85,-0.25 H 53.8 53.35 52.85 51.3 l 0.6,-0.2 H 52 l 3.65,0.05 0.4,0.15 0.25,0.2 0.3,0.5 0.05,0.55 h -0.4 -0.15 l -0.6,0.05 m 2.6,-0.05 v -0.5 l -0.05,-0.7 0.25,0.3 q 0.35,0.45 0.35,1.5 l -0.15,0.3 -0.25,0.3 -0.2,-0.05 0.05,-0.25 V 25.9 25.65 l 0.1,-0.3 -0.05,-0.3 H 58.1 m -32.15,-5.35 1.05,-1 0.7,-1.45 -0.05,-0.7 0.1,-0.05 v 1.4 q -0.05,1.15 -1.8,1.8 m 4.3,-0.25 0.2,0.25 0.15,0.15 -0.15,0.3 -0.35,0.6 -0.45,0.35 h -0.9 l -0.8,-0.95 -0.15,-0.3 0.15,-0.15 q 0.7,-0.8 0.75,-1.7 l 0.05,-1.35 -0.1,-0.3 0.55,-0.05 h 0.2 l 0.35,0.05 -0.1,0.3 0.05,1.35 0.2,0.75 -0.5,-0.1 q -0.85,0 -0.85,0.7 0,0.8 0.85,0.8 0.4,0 0.65,-0.35 l 0.2,-0.35 m -4.4,5.9 -1.5,-0.6 -1.15,-0.35 -1.05,-0.4 -1.7,-1.05 -0.2,-0.7 v -0.1 h 2.7 l 0.05,0.25 0.15,0.2 1,1.15 1.65,1.5 0.05,0.1 m -0.55,0.95 0.25,-0.15 0.35,-0.2 0.15,-0.05 -0.1,0.05 -0.2,0.25 -0.15,0.2 -0.15,-0.05 -0.15,-0.05 m 0.2,-3.6 q -0.7,-0.95 -0.9,-1.6 l 1.95,-0.4 0.45,0.7 q 0.75,0.65 2.2,0.7 h 0.2 l 0.7,-0.05 q 0.85,-0.25 1.35,-0.65 l 0.45,-0.7 2.1,0.4 -1.35,2.1 v 0.05 l -0.3,-0.05 -1.4,0.5 -1.2,0.35 L 29.4,24.1 29.1,24 27,22.85 Q 25.8,22.1 25.5,22.7 m 6.85,-5.45 0.95,0.9 q 0.45,0.65 0.6,1.9 l -1.1,-0.3 Q 31.05,19.3 30.75,18.3 l 0.6,0.2 q 0.75,0 0.95,-0.75 l 0.05,-0.5 m -4.5,11.85 v -0.05 l 0.2,-0.45 0.65,0.1 q 0.8,0 0.95,-0.45 V 28.1 28.05 L 29.8,28 h 0.15 l 0.4,0.25 0.75,0.75 q 0,0.3 -0.35,0.4 l -0.6,-0.6 H 30.1 q -0.35,0.05 -0.35,0.25 l 0.2,0.45 H 29.8 l -1.15,-0.1 h -0.1 l 0.1,-0.35 q 0,-0.25 -0.4,-0.25 l -0.4,0.3"
         fill="#b8b8b8"
         fill-rule="evenodd"
         stroke="none"
         id="path5" />
      <path
         d="m 51.5,-15.5 h -0.05 l -0.4,0.3 -0.3,0.45 -0.05,0.75 h -0.1 l -0.55,0.05 v -0.15 l -0.15,-0.9 -0.5,-0.7 -1.15,-0.5 -0.5,-0.05 -0.9,0.05 q -1.45,0.25 -2.9,1.4 l -0.35,0.1 q -0.5,0.2 -0.5,0.6 v 0.2 l -0.05,0.05 0.05,0.05 v 0.15 l -0.05,0.05 -0.35,0.1 -2.45,-0.95 1.8,-1 1.45,-0.75 q 2.55,-1.25 3.65,-1.35 l 0.2,-0.05 0.7,0.05 q 2.5,0.1 3.25,1.25 l 0.05,0.1 0.15,0.7 m -12.45,1.8 q 1.15,0.65 2.3,0.95 l -1.55,0.2 q -0.3,0 -1.5,-0.65 0.25,-0.25 0.75,-0.5 m 13.8,1.75 q 0.1,0.45 0.85,0.5 l 0.4,1.4 v 0.2 L 52.95,-9.8 H 52.8 v -0.35 l -0.05,-0.5 v -0.4 l 0.1,-0.9 m -2.7,0.45 0.1,-0.7 h 0.9 v 0.1 l 0.05,0.5 v 0.3 l -0.5,-0.15 -0.55,-0.05 m 0.25,8.4 -0.75,-0.05 H 48.7 l 0.45,-0.6 0.8,-1.55 q 0.55,-1.8 0.55,-4.05 l -0.15,-0.75 -0.05,-0.2 v -0.1 h 0.5 l 0.35,-0.05 v 0.35 l -0.05,0.85 -0.3,0.5 -0.2,1.45 0.05,0.6 0.5,0.5 v 0.55 0.4 0.3 l -0.1,0.25 v 0.1 l -0.25,0.65 -0.3,0.6 -0.1,0.25 m 3.9,-3.4 0.15,1.6 0.15,1.85 v 0.1 l -0.05,0.3 H 54.5 L 54.35,-2.7 53.3,-2.85 53,-2.9 53.05,-4.25 V -4.4 l -0.1,-1.1 v -0.05 l -0.1,-0.8 V -6.5 h 0.1 0.15 0.15 0.05 1 m -75.45,28.6 q 0.35,0.05 0.95,0.4 2.45,1.55 3.75,1.55 0.75,0 1.6,-0.5 0.9,-0.6 1.35,-0.6 l 0.1,0.05 -0.2,0.2 -1,1.4 -0.65,0.4 -0.1,0.2 -0.55,0.05 h -0.3 -0.35 -0.3 -0.2 -0.5 l -1.15,-0.05 -0.05,-0.1 -0.1,-0.1 -0.55,-0.4 -0.95,-1.4 -0.8,-1.1 m 2.65,7.25 q -0.3,0.35 -0.4,1.15 l 0.05,0.2 -1.5,-0.7 -0.35,-0.95 0.55,-0.8 0.3,-0.25 h 0.45 q 0.25,-0.3 0.5,-0.45 l 0.25,-0.25 0.3,0.05 h 0.1 l 0.7,0.1 0.5,0.1 0.2,-0.05 0.5,-0.05 0.15,-0.05 0.45,-0.05 0.35,-0.05 0.8,0.7 h 0.45 l 0.3,0.25 0.6,0.8 -0.35,0.95 -1.65,0.7 0.05,-0.2 q -0.05,-0.65 -0.25,-1 l 0.75,-0.3 0.15,-0.45 -0.6,-0.5 L -15.5,28 h -0.8 L -16.95,28.1 -17,28 h -0.4 l -0.65,-0.05 -0.4,0.05 h -0.6 l -0.1,0.25 v 0.15 q -0.1,0.4 0.3,0.55 l 0.35,0.4 m 1.65,-3.3 h 0.25 0.4 0.3 0.2 l -0.15,0.45 -0.35,0.15 h -0.1 l -0.55,0.1 h -0.2 l -0.75,-0.1 -0.45,-0.15 q 0,-0.25 -0.15,-0.45 h 0.9 0.45 0.2 M 55.4,20.7 h -0.05 l -0.7,-0.05 h -0.05 -0.75 -0.5 l -0.45,-1.95 -0.3,-1.3 0.95,-1.6 0.2,-0.4 1,-2.05 0.45,0.75 0.25,6.15 -0.05,0.45 m -5.3,4.7 -0.05,0.55 -0.05,0.3 H 49.25 V 25.5 l 0.85,-0.1 m 2.35,-2.95 0.9,-0.7 2.5,-0.05 v 0.05 0.15 0.15 l -0.1,0.35 -3.3,0.05 m 0.35,2.8 h 0.2 0.2 0.1 l 2.2,-0.15 0.6,-0.05 h 0.15 0.4 v 0.05 l -0.2,0.85 V 26 l -0.05,0.2 -5.05,0.05 v -0.3 -0.3 l 0.05,-0.35 1.4,-0.05 m 5.3,-0.2 h 0.05 l 0.05,0.3 -0.1,0.3 v -0.6 M 47.05,25.6 h 1 v 0.65 h -13.9 -1 l 0.05,-0.2 0.05,-0.1 0.1,-0.4 h 5.35 l 0.4,0.05 h 7.95 m -26.6,-2.65 1.7,1.05 1.05,0.4 1.15,0.35 1.5,0.6 0.2,0.35 0.1,0.05 v 0.05 l -0.1,0.1 -0.15,0.05 -0.35,0.2 -0.25,0.15 -0.95,-0.35 -0.6,-0.15 Q 22.35,25.45 21.6,24.9 21,24.5 20.8,23.85 L 20.7,23.7 20.45,22.95 m 12.2,0.3 -0.4,0.45 -0.1,0.1 -0.4,0.7 -0.1,0.1 -0.2,0.1 -0.3,0.2 L 31,25 30.9,25.2 30.1,25.25 H 29.7 29.4 29.2 29.1 28.7 L 27.55,25.2 27.4,25 26.85,24.6 26.4,23.8 26.3,23.7 25.9,23.2 25.5,22.7 q 0.3,-0.6 1.5,0.15 l 2.1,1.15 0.3,0.1 0.35,-0.05 1.2,-0.35 1.4,-0.5 0.3,0.05 m -4.8,5.85 q -0.35,0.4 -0.5,1.4 l 0.05,0.2 Q 26.4,30.4 25.9,30 L 25.55,29.05 26.1,28.25 26.4,28 h 0.45 l 0.75,-0.7 0.3,0.05 0.4,0.05 0.8,0.15 h 0.1 l 0.2,-0.05 h 0.1 l 0.6,-0.1 0.2,-0.05 h 0.2 0.1 l 0.2,-0.05 h 0.05 l 0.8,0.7 h 0.45 l 0.3,0.25 0.6,0.8 L 32.65,30 31,30.7 31.05,30.5 30.75,29.4 Q 31.1,29.3 31.1,29 L 30.35,28.25 29.95,28 H 29.8 l -0.15,0.05 V 28 H 28 l -0.1,0.25 q -0.1,0.15 0.15,0.35 l -0.2,0.45 v 0.05 m 0.9,-3.05 h 0.45 0.2 0.25 0.45 0.45 l -0.1,0.2 v 0.2 0.05 L 30.1,26.65 H 30 l -0.3,0.05 -0.3,0.05 H 29.2 L 28.45,26.65 28,26.5 v -0.1 -0.1 l -0.15,-0.25 h 0.75 0.15"
         fill="#a8a8a8"
         fill-rule="evenodd"
         stroke="none"
         id="path6" />
      <path
         d="m 53.8,5 h -2.35 l 2.6,-0.05 V 5 H 53.8"
         fill="#d4d4d4"
         fill-rule="evenodd"
         stroke="none"
         id="path7" />
      <path
         d="m -16.3,29.6 v 0.6 l -0.55,0.35 -0.2,0.05 -0.75,-0.4 0.05,-0.6 h 0.5 0.95 m 46.25,-0.1 0.05,0.7 -0.6,0.35 -0.2,0.05 -0.75,-0.4 q -0.1,-0.35 0.1,-0.8 h 0.1 l 1.15,0.1 h 0.15"
         fill="#bfbfbf"
         fill-rule="evenodd"
         stroke="none"
         id="path8" />
      <path
         d="m -56.45,0.7 0.15,-0.15 1.4,-0.85 0.35,-0.2 3.45,-0.35 q -1.6,-0.05 -0.4,-0.05 l 101.25,0.05 2.1,-0.05 2.85,0.5 q 1.5,0.2 2,0.8 l 0.1,0.15 h 0.05 L 56.75,0.7 Q 56.2,1.35 55.2,1.3 L -51.2,1.25 q -3.85,0.2 -5.15,-0.5 L -56.45,0.7 M -16,14.65 -16.2,14.6 -16.85,14.55 h -0.2 q -2.3,0.1 -4.05,1.05 l -0.6,0.35 -0.25,0.1 q -4.35,1.45 -7.35,1.45 -6.05,0 -10.7,-2.4 l -0.25,-0.2 q -1.4,-1.15 -4.6,-6.2 l -2.25,-3.35 -0.15,-0.2 v -0.1 h 0.2 L -46.9,4.95 51.45,5 H 53.8 V 5.05 L 53.75,5.3 53.45,5.35 H 53.4 v 0.1 q 0,2.85 -2.6,6.7 -3.8,5.75 -10.6,5.75 -1.85,0 -5,-1 -0.65,-0.8 -1.75,-1.3 -1.55,-0.8 -3.35,-1 l -0.7,-0.05 h -0.2 q -2.15,0.1 -3.8,0.9 l -5.85,1.2 -7.65,1.6 H 3 l -9.4,-2 q -7.15,-1.7 -8.3,-1.7 l -1.3,0.1"
         fill="#8c8c8c"
         fill-rule="evenodd"
         stroke="none"
         id="path9" />
      <path
         d="m -56.45,0.7 0.1,0.05 q 1.3,0.7 5.15,0.5 L 55.2,1.3 q 1,0.05 1.55,-0.6 L 56.85,0.55 56.9,1 Q 56.95,1.6 56.55,2 56.2,2.35 55.6,2.5 H 55.45 L 54.35,2.65 -54.8,2.6 -55.1,2.55 Q -57,2.25 -57,1.75 -57,1.2 -56.45,0.7 m 40.45,13.95 1.3,-0.1 q 1.15,0 8.3,1.7 l 9.4,2 h 8.9 l 7.65,-1.6 5.85,-1.2 -0.25,0.15 q -2.35,1.3 -2.45,3.6 v 0.9 l -18.25,-0.05 -6.7,-0.1 -0.4,-0.05 -7.45,-0.05 -0.05,-0.65 q -0.15,-2.3 -2.65,-3.6 -1.45,-0.75 -3.2,-0.95 m 51.2,2.25 q 3.15,1 5,1 6.8,0 10.6,-5.75 2.6,-3.85 2.6,-6.7 v -0.1 h 0.05 L 53.75,5.3 V 5.35 L 53.5,7.8 q -0.15,2.55 -2.1,6.7 -1.9,4.05 -6.65,5.2 l -8.6,0.1 -0.05,-0.6 Q 36,17.9 35.2,16.9 M -40,15.1 q 4.65,2.4 10.7,2.4 3,0 7.35,-1.45 l 0.25,-0.1 q -1.75,1.25 -1.85,3.25 v 0.6 L -27.8,19.75 Q -35.8,18.7 -40,15.1"
         fill="#777777"
         fill-rule="evenodd"
         stroke="none"
         id="path10" />
      <path
         d="m -59,0.4 q 0.65,-1.85 2.65,-2.85 1.25,-0.65 4.75,-0.7 l 4.95,0.1 89.95,-0.05 0.95,-0.05 h 1.8 l 0.1,-0.1 q 1.95,-1.9 2.55,-3.3 l 0.35,-1.5 -0.1,-1.1 -0.6,0.05 -4.65,-0.1 -0.35,-0.25 -0.1,-0.3 q -0.3,-0.5 -0.2,-1.9 l -0.1,0.05 q -1.15,0.65 -2.65,0.65 -2.4,0 -4.95,-1.95 -2.15,-1.6 -2.15,-2.1 l 1.75,-1.2 q 7,-4.85 9.6,-5.3 2.55,-0.45 4.55,0 2.05,0.45 3.6,1.8 l 0.3,0.3 q 1.6,1.6 1.9,3.2 l 0.05,0.45 0.9,-0.1 q 1.35,-0.05 1.85,0.35 0.6,0.25 0.6,1.9 l -0.1,4.45 q 0.35,0.15 0.35,0.95 l -0.15,0.9 -0.25,0.35 -0.2,5.55 q 0.75,0.65 1.1,1.8 m 0.05,0 0.05,0.2 0.2,1.4 q 0.05,1.8 -1.3,2.45 l -0.6,0.2 V 4.85 4.9 M 57.4,5.05 V 8.1 L 57.45,8.25 57.5,20.4 V 22 l -0.05,0.45 h 0.1 v 0.2 H 59 l 0.4,0.45 q 0.65,0.95 0.65,2.4 v 0.45 L 60,26.7 q -0.25,0.9 -1.25,0.9 L 58.3,27.55 57.95,27.65 34.1,27.6 34.45,28 m 0.3,0 q 0.75,0.85 0.85,1.6 0.05,0.8 -1,1.55 l -0.45,0.3 Q 24.2,32.2 23.7,31.35 23.1,30.4 23.15,29.6 23.25,28.85 23.9,28 m 0.3,0 0.5,-0.6 0.05,-0.05 q -2.65,-0.05 -4.3,-1.4 l -1,-0.9 Q 18.25,23.6 18.25,22.2 V 22.15 H -10.4 l -0.1,0.25 q -0.55,1 -3,2.85 0,0.35 -0.4,0.5 l 0.2,0.2 1.35,1.45 0.6,0.6 m 0.25,0 q 0.75,0.85 0.85,1.6 0.05,0.8 -1,1.55 l -0.45,0.3 -10,-0.35 q -0.9,-0.7 -0.85,-1.6 0,-0.7 0.6,-1.5 m 0.3,0 0.5,-0.6 1.3,-1.45 0.15,-0.2 q -0.35,-0.15 -0.35,-0.5 -2.3,-1.85 -2.8,-2.85 l -0.1,-0.25 h -5.85 q -8.85,-1.35 -12.9,-4.75 -2.4,-2.05 -4.85,-6.2 l -1.8,-2.9 -1.7,-2.95 -0.1,-0.15 -0.1,-0.15 m -0.15,0 L -54.85,5 -56.9,4.8 Q -58.35,4.55 -58.95,3.7 L -59.3,2.45 Q -59.35,1.3 -59.05,0.4"
         ffdec:has-small-stroke="true"
         ffdec:original-stroke-width="0.75"
         fill="none"
         stroke="#6b6b6b"
         stroke-linecap="round"
         stroke-linejoin="round"
         stroke-width="1"
         id="path11" />
    </g>
    <g
       id="sprite0"
       transform="translate(9.7,4.1)">
      <use
         ffdec:characterId="1917"
         height="8.1999998"
         transform="translate(-6.5,-4.1)"
         width="13"
         xlink:href="#shape1"
         id="use11" />
    </g>
    <g
       id="shape1"
       transform="translate(6.5,4.1)">
      <path
         d="m 2.75,-4.1 q 1.5,-0.15 2.55,0.75 1.15,1 1.15,2.85 0.25,1 -0.7,1 Q 5.35,0.5 4.9,-0.45 4.45,-1.4 2.75,-1.4 1.1,-1.4 1,1.35 l -0.35,2.1 -0.2,0.6 0.1,0.05 H 0.25 0 -0.25 -0.55 L -0.45,4.05 -0.6,3.45 Q -0.95,2.75 -1,1.35 -1.1,-1.4 -2.75,-1.4 q -1.7,0 -2.15,0.95 -0.45,0.95 -0.85,0.95 -0.95,0 -0.7,-1 0,-1.85 1.15,-2.85 1.05,-0.9 2.55,-0.75 1.85,0.25 2.75,1.5 0.9,-1.25 2.75,-1.5"
         fill="#ffffff"
         fill-rule="evenodd"
         stroke="none"
         id="path12" />
    </g>
    <g
       id="sprite1"
       transform="translate(5.4,4)">
      <use
         ffdec:characterId="43"
         height="8"
         transform="translate(-5.4,-4)"
         width="10.8"
         xlink:href="#shape2"
         id="use12" />
    </g>
    <g
       id="shape2"
       transform="translate(5.4,4)">
      <path
         d="m 2.9,-0.35 q 0,-1.25 1.25,-1.25 1.25,0 1.25,1.2 0,1.3 -1.25,1.3 Q 3.6,0.9 3.25,0.5 2.9,0.15 2.9,-0.35 m 0.35,-2.3 q 0,0.55 -0.35,0.9 -0.4,0.45 -1,0.45 -1.35,0 -1.35,-1.4 0,-1.3 1.35,-1.3 1.35,0 1.35,1.35 m -3.1,1.9 h 0.2 q 2.6,0.1 2.6,2.8 l -0.3,1 Q 2.05,4 0.45,4 H 0.35 0.15 0.1 -0.45 q -1.6,0 -2.2,-0.95 l -0.3,-1 q 0,-2.8 2.8,-2.8 h 0.3 M -1.55,-4 q 1.35,0 1.35,1.35 0,0.55 -0.4,0.9 -0.4,0.45 -0.95,0.45 -1.4,0 -1.4,-1.4 0,-1.3 1.4,-1.3 m -2.6,2.4 q 1.25,0 1.25,1.25 0,0.5 -0.35,0.85 -0.35,0.4 -0.9,0.4 -1.25,0 -1.25,-1.3 0,-1.2 1.25,-1.2"
         fill="#6b6b6b"
         fill-rule="evenodd"
         stroke="none"
         id="path13" />
    </g>
  </defs>
</svg>
