<?xml version="1.0" encoding="UTF-8" standalone="no"?>
<svg
   ffdec:objectType="frame"
   height="94.085228"
   width="90.165894"
   version="1.1"
   id="svg37"
   sodipodi:docname="2.svg"
   xmlns:inkscape="http://www.inkscape.org/namespaces/inkscape"
   xmlns:sodipodi="http://sodipodi.sourceforge.net/DTD/sodipodi-0.dtd"
   xmlns:xlink="http://www.w3.org/1999/xlink"
   xmlns="http://www.w3.org/2000/svg"
   xmlns:svg="http://www.w3.org/2000/svg"
   xmlns:ffdec="https://www.free-decompiler.com/flash">
  <sodipodi:namedview
     id="namedview37"
     pagecolor="#ffffff"
     bordercolor="#000000"
     borderopacity="0.25"
     inkscape:showpageshadow="2"
     inkscape:pageopacity="0.0"
     inkscape:pagecheckerboard="0"
     inkscape:deskcolor="#d1d1d1"
     fit-margin-top="5"
     fit-margin-left="5"
     fit-margin-right="5"
     fit-margin-bottom="5" />
  <g
     transform="translate(45.165894,51.585229)"
     id="g9">
    <use
       ffdec:characterId="810"
       height="0.25"
       transform="translate(-25.6,-41.6)"
       width="0.15000001"
       xlink:href="#shape0"
       id="use1" />
    <use
       ffdec:characterId="754"
       height="52.650002"
       transform="matrix(-1,-0.0108,0,1,33.45,-42.4419)"
       width="18.450001"
       xlink:href="#sprite0"
       id="use2" />
    <use
       ffdec:characterId="768"
       height="17.1"
       transform="matrix(-0.2588,0.9631,0.9659,0.2693,-16.2804,-28.6743)"
       width="14.65"
       xlink:href="#sprite1"
       id="use3" />
    <use
       ffdec:characterId="754"
       height="52.650002"
       transform="matrix(-1,-0.0108,0,1,33.25,-42.2419)"
       width="18.450001"
       xlink:href="#sprite2"
       id="use4" />
    <use
       ffdec:characterId="229"
       ffdec:characterName="furniture_fla.fulltvshotcopy2_39"
       height="29.9"
       transform="matrix(1.2077,0,0,1.2077,-17.7523,-6.4727)"
       width="41.549999"
       xlink:href="#sprite3"
       id="use5" />
    <use
       ffdec:characterId="771"
       height="42.549999"
       transform="translate(-15,-54.35)"
       width="38.5"
       xlink:href="#sprite5"
       id="use6" />
    <use
       ffdec:characterId="44"
       height="8"
       transform="matrix(0.9659,-0.2588,0.2588,0.9659,19.3488,33.8838)"
       width="10.8"
       xlink:href="#sprite7"
       id="use7" />
    <use
       ffdec:characterId="44"
       height="8"
       transform="matrix(0.7827,-0.6223,0.6223,0.7827,13.5841,19.6296)"
       width="10.8"
       xlink:href="#sprite8"
       id="use8" />
    <use
       ffdec:characterId="811"
       height="86.199997"
       transform="translate(-45.15,-43.7)"
       width="90.150002"
       xlink:href="#shape8"
       id="use9" />
  </g>
  <defs
     id="defs37">
    <g
       id="shape0"
       transform="translate(25.6,41.6)">
      <path
         d="m -25.6,-41.35 0.1,-0.25 0.05,0.2 -0.15,0.05"
         fill="#6b6b6b"
         fill-rule="evenodd"
         stroke="none"
         id="path9" />
    </g>
    <g
       id="sprite0"
       transform="translate(0.75,0.75)">
      <use
         ffdec:characterId="753"
         height="52.650002"
         transform="translate(-0.75,-0.75)"
         width="18.450001"
         xlink:href="#shape1"
         id="use10" />
    </g>
    <g
       id="shape1"
       transform="translate(0.75,0.75)">
      <path
         d="m 14.25,2.75 1.85,3.9 q 0.3,0.7 0.6,4.15 l 0.25,3.95 q 0,3.7 -4.1,7.15 -4.15,3.4 -4.15,6.25 l 3.05,4.45 q 3.05,4.4 3.05,6.4 0,3.4 -0.6,5.7 -0.8,3 -2.4,4.2 l -0.45,0.6 Q 10.1,51.15 7.6,51.15 4.35,51.15 3.1,49.25 2.45,48.3 2.45,47.15 2.45,45.3 3.35,44.3 4.8,42.75 5.6,40.6 L 5.85,39.6 5.7,39.45 4.65,38.6 2.55,36.45 2.05,35.55 0.35,32.15 Q 0,31.2 0,28.85 0,25.45 2.05,21.55 3,19.7 4.4,17.75 L 6.35,15 8.75,11.35 Q 8.75,9.15 7.45,7.6 6.1,6.1 6.1,4.7 q 0,-3.25 3.85,-4.35 3.8,-1.1 3.8,1.15 v 0.05 l 0.5,1.2 m -1.8,1.5 q 0,0.35 -0.6,0.95 -0.65,0.65 -1.25,0.65 -1.5,0 -1.25,-1.2 0,-1.25 1.55,-1.3 1.55,-0.05 1.55,0.9 m -1.5,-1.7 Q 8.1,2.45 8.1,4.7 l 1.3,2.4 q 1.3,2.15 1.3,4.1 0,1.2 -2.85,5.55 L 6.4,18.9 q -4.3,6.15 -4.3,9.95 0,4.2 2.95,7 l 1.6,1.7 0.15,0.15 0.05,0.15 0.95,1.6 0.2,0.95 q 0,2.1 -0.55,3.7 -0.6,-0.3 -0.6,-1.6 V 42.2 L 5.8,44.45 q -1.25,1.95 -1.25,2.4 0,0.45 0.8,1.3 L 6.3,49 8.15,48.95 Q 9.8,47.2 10.9,45.1 q 1.2,-2.35 1.2,-4.35 0,-2.05 -3,-6.4 L 7.85,32.5 Q 6.05,29.55 6.05,28.15 L 6.1,27.35 5.75,26.1 q 0,-2.7 0.3,-3.65 0.35,-1.1 1.8,-2.9 l 0.5,-0.6 0.75,0.25 q -0.35,0.25 -0.8,1.05 l -0.45,0.85 -0.5,1.7 -0.3,1.15 0.35,-0.6 0.45,-0.5 2.6,-2.3 Q 14.8,16.85 14.8,9.1 14.8,7.2 13.4,5.05 12.3,3.45 12.05,2.55 h -1.1"
         fill="#9a9a9a"
         fill-rule="evenodd"
         stroke="none"
         id="path10" />
      <path
         d="m 11.25,10.45 q 0,-1.55 0.7,-1.5 l 0.65,1.45 0.35,1.1 -0.45,1.1 -1.15,1.1 H 11.2 l 0.45,-1.4 0.1,-0.7 -0.25,-0.55 -0.25,-0.6 m -6.3,19.1 0.4,0.9 -0.25,0.8 -0.6,0.5 q -1.55,0 -2.15,-1.8 0,-1.7 0.35,-2.8 L 3.95,24.2 q 1.3,1.3 1.1,2.05 L 4.5,28 q 0,0.8 0.45,1.55 m 0,3.6 1.25,-0.05 0.1,0.2 0.05,0.45 -0.1,0.7 -0.7,0.2 -0.95,-0.9 q 0,-0.3 0.35,-0.6"
         fill="#d2d2d2"
         fill-rule="evenodd"
         stroke="none"
         id="path11" />
      <path
         d="m 10.95,2.55 h 1.1 q 0.25,0.9 1.35,2.5 1.4,2.15 1.4,4.05 0,7.75 -4.35,11.45 l -2.6,2.3 -0.45,0.5 -0.35,0.6 0.3,-1.15 0.5,-1.7 0.45,-0.85 q 0.45,-0.8 0.8,-1.05 l -0.75,-0.25 -0.5,0.6 q -1.45,1.8 -1.8,2.9 -0.3,0.95 -0.3,3.65 l 0.35,1.25 -0.05,0.8 q 0,1.4 1.8,4.35 l 1.25,1.85 q 3,4.35 3,6.4 0,2 -1.2,4.35 -1.1,2.1 -2.75,3.85 L 6.3,49 5.35,48.15 q -0.8,-0.85 -0.8,-1.3 0,-0.45 1.25,-2.4 L 6.85,42.2 v 0.3 q 0,1.3 0.6,1.6 Q 8,42.5 8,40.4 L 7.8,39.45 6.85,37.85 6.8,37.7 6.65,37.55 5.05,35.85 q -2.95,-2.8 -2.95,-7 0,-3.8 4.3,-9.95 L 7.85,16.75 Q 10.7,12.4 10.7,11.2 10.7,9.25 9.4,7.1 L 8.1,4.7 q 0,-2.25 2.85,-2.15 m 1.5,1.7 q 0,-0.95 -1.55,-0.9 -1.55,0.05 -1.55,1.3 -0.25,1.2 1.25,1.2 0.6,0 1.25,-0.65 0.6,-0.6 0.6,-0.95 m -7.5,28.9 q -0.35,0.3 -0.35,0.6 l 0.95,0.9 0.7,-0.2 0.1,-0.7 L 6.3,33.3 6.2,33.1 4.95,33.15 m 0,-3.6 Q 4.5,28.8 4.5,28 L 5.05,26.25 Q 5.25,25.5 3.95,24.2 L 2.7,27.15 q -0.35,1.1 -0.35,2.8 0.6,1.8 2.15,1.8 l 0.6,-0.5 0.25,-0.8 -0.4,-0.9 m 6.3,-19.1 0.25,0.6 0.25,0.55 -0.1,0.7 -0.45,1.4 h 0.15 L 12.5,12.6 12.95,11.5 12.6,10.4 11.95,8.95 q -0.7,-0.05 -0.7,1.5"
         fill="#bfbaba"
         fill-rule="evenodd"
         stroke="none"
         id="path12" />
      <path
         d="m 14.25,2.75 1.85,3.9 q 0.3,0.7 0.6,4.15 l 0.25,3.95 q 0,3.7 -4.1,7.15 -4.15,3.4 -4.15,6.25 l 3.05,4.45 q 3.05,4.4 3.05,6.4 0,3.4 -0.6,5.7 -0.8,3 -2.4,4.2 l -0.45,0.6 Q 10.1,51.15 7.6,51.15 4.35,51.15 3.1,49.25 2.45,48.3 2.45,47.15 2.45,45.3 3.35,44.3 4.8,42.75 5.6,40.6 L 5.85,39.6 5.7,39.45 4.65,38.6 2.55,36.45 2.05,35.55 0.35,32.15 Q 0,31.2 0,28.85 0,25.45 2.05,21.55 3,19.7 4.4,17.75 L 6.35,15 8.75,11.35 Q 8.75,9.15 7.45,7.6 6.1,6.1 6.1,4.7 q 0,-3.25 3.85,-4.35 3.8,-1.1 3.8,1.15 v 0.05 z"
         fill="none"
         stroke="#9a9a9a"
         stroke-linecap="round"
         stroke-linejoin="round"
         stroke-width="1.5"
         id="path13" />
    </g>
    <g
       id="sprite1"
       transform="translate(0.75,0.75)">
      <use
         ffdec:characterId="767"
         height="17.1"
         transform="translate(-0.75,-0.75)"
         width="14.65"
         xlink:href="#shape2"
         id="use13" />
    </g>
    <g
       id="shape2"
       transform="translate(0.75,0.75)">
      <path
         d="M 12.25,10.2 Q 11.5,12.05 10.3,13 L 9.35,14.1 Q 7.65,15.6 5.2,15.6 2.05,15.6 0.75,13.95 0,13 0,11.8 0,10.05 0.4,9.3 0.95,8.15 2.4,7.8 L 2.3,7.6 Q 2.15,7.15 2.15,5.4 2.15,2.65 3.85,1.15 5.4,-0.15 7.65,0 q 2.2,0.1 3.8,1.5 1.7,1.55 1.7,3.9 0,2.55 -0.9,4.8 M 2.75,9 Q 2.3,9.15 2,9.6 q -0.35,0.55 -0.35,1.35 0,0.65 0.75,1.35 1.05,0.95 2.85,0.95 h 0.5 l 2.05,-1.05 2.55,-1.6 0.9,-1.8 0.55,-2 Q 11.8,5.9 10.95,4.05 9.95,2 8.7,1.8 L 8.4,1.75 q -2.35,0 -3.5,1.2 L 4.35,3.7 Q 3.8,4.65 3.85,5.65 3.85,6.35 4.3,6.7 L 6.35,8.65 5.8,9.2 4.95,9.35 H 4.85 Q 3.8,9.3 3.15,8.85 L 3,8.9 2.75,9"
         fill="#9a9a9a"
         fill-rule="evenodd"
         stroke="none"
         id="path14" />
      <path
         d="M 8.7,1.8 Q 9.4,2.3 9.4,3.6 9.4,4.15 8.8,4.7 8.05,5.4 7,5.4 5.6,5.4 5.05,4.7 4.75,4.35 4.75,3.95 q 0,-0.6 0.15,-1 1.15,-1.2 3.5,-1.2 L 8.7,1.8 M 4.85,9.35 4.55,9.85 Q 4.25,10.2 3.8,10.2 L 3.25,10.15 2.85,9.9 2.75,9.1 V 9 L 3,8.9 3.15,8.85 q 0.65,0.45 1.7,0.5"
         fill="#d2d2d2"
         fill-rule="evenodd"
         stroke="none"
         id="path15" />
      <path
         d="M 8.7,1.8 Q 9.95,2 10.95,4.05 11.8,5.9 11.8,6.8 l -0.55,2 -0.9,1.8 -2.55,1.6 -2.05,1.05 H 5.25 Q 3.45,13.25 2.4,12.3 1.65,11.6 1.65,10.95 1.65,10.15 2,9.6 2.3,9.15 2.75,9 v 0.1 l 0.1,0.8 0.4,0.25 0.55,0.05 q 0.45,0 0.75,-0.35 l 0.3,-0.5 h 0.1 L 5.8,9.2 6.35,8.65 4.3,6.7 Q 3.85,6.35 3.85,5.65 3.8,4.65 4.35,3.7 L 4.9,2.95 q -0.15,0.4 -0.15,1 0,0.4 0.3,0.75 Q 5.6,5.4 7,5.4 8.05,5.4 8.8,4.7 9.4,4.15 9.4,3.6 9.4,2.3 8.7,1.8"
         fill="#bbb3b3"
         fill-rule="evenodd"
         stroke="none"
         id="path16" />
      <path
         d="M 12.25,10.2 Q 11.5,12.05 10.3,13 L 9.35,14.1 Q 7.65,15.6 5.2,15.6 2.05,15.6 0.75,13.95 0,13 0,11.8 0,10.05 0.4,9.3 0.95,8.15 2.4,7.8 L 2.3,7.6 Q 2.15,7.15 2.15,5.4 2.15,2.65 3.85,1.15 5.4,-0.15 7.65,0 q 2.2,0.1 3.8,1.5 1.7,1.55 1.7,3.9 0,2.55 -0.9,4.8 z"
         fill="none"
         stroke="#9a9a9a"
         stroke-linecap="round"
         stroke-linejoin="round"
         stroke-width="1.5"
         id="path17" />
    </g>
    <g
       id="sprite2"
       transform="translate(0.75,0.75)">
      <use
         ffdec:characterId="753"
         height="52.650002"
         transform="translate(-0.75,-0.75)"
         width="18.450001"
         xlink:href="#shape1"
         id="use17" />
    </g>
    <g
       id="sprite3"
       transform="translate(20.95,14.55)">
      <use
         ffdec:characterId="84"
         height="25.700001"
         transform="translate(-20.2,-12.55)"
         width="40.200001"
         xlink:href="#sprite4"
         id="use18" />
    </g>
    <g
       id="sprite4"
       transform="translate(20.15,12.85)">
      <use
         ffdec:characterId="80"
         height="25.700001"
         transform="translate(-20,-12.85)"
         width="39.950001"
         xlink:href="#shape3"
         id="use19" />
      <use
         ffdec:characterId="81"
         height="21.799999"
         transform="translate(-17.85,-10.85)"
         width="35.799999"
         xlink:href="#shape4"
         id="use20" />
    </g>
    <g
       id="shape3">
      <path
         d="M 39.95,25.7 H 0 V 0 h 39.95 v 25.7"
         fill="#808080"
         fill-rule="evenodd"
         stroke="none"
         id="path20" />
    </g>
    <g
       id="shape4"
       transform="translate(17.85,10.85)">
      <path
         d="M 6.25,-6.25 6.15,-6.5 v -0.85 l 0.1,-0.75 -0.05,-0.2 0.05,-0.25 0.2,-0.65 0.65,-1.1 0.45,-0.3 0.3,-0.05 0.8,0.3 0.45,0.8 0.4,1.8 0.05,1.5 L 9.4,-5.4 Q 9.1,-5 8.6,-5.05 8.05,-5.15 7.95,-5.7 L 7.9,-5.95 7.85,-6.4 H 7.7 l -0.3,0.05 v 0.4 l 0.05,0.45 q -0.1,0.45 -0.55,0.4 -0.35,0 -0.5,-0.45 l -0.15,-0.7 m 5,-0.1 q 0,0.8 -0.35,0.95 l -0.45,0.05 -0.4,-0.35 -0.2,-1 L 9.7,-8 9.55,-8.85 Q 9.5,-9.4 9.6,-9.8 9.55,-10.2 9.85,-10.5 l 1.2,0.05 0.85,0.9 0.2,-0.45 0.6,-0.65 0.55,0.1 0.25,0.15 0.65,0.65 v 0.7 q -0.1,0.5 -0.05,1.3 l 0.1,1.35 -0.2,0.7 q -0.3,0.45 -0.65,0.3 -0.25,-0.05 -0.45,-0.45 -0.35,-0.7 -0.35,-2.05 l -0.25,0.3 q -0.35,0.15 -0.6,0 l -0.15,-0.1 -0.35,-0.05 0.05,1.4 M 7.7,-9 q -0.3,0 -0.45,0.25 l -0.1,0.15 v 0.95 l 0.2,0.45 q 0.2,0.2 0.55,0.1 l 0.4,-0.45 v -1 L 8.2,-8.75 7.7,-9 m -3.15,3.95 q -0.5,0.45 -1.3,0.3 -0.4,-0.1 -1,-0.55 L 1.85,-5.6 1.65,-6 1.55,-6.4 V -6.75 L 1.45,-7 1.4,-8.25 1.85,-9.35 2.3,-10.1 q 0.35,-0.4 0.9,-0.5 h 0.3 l 0.2,-0.05 1.2,0.2 q 0.6,0.35 0.65,0.9 0.15,0.7 -0.45,1 l -0.55,0.1 Q 4.2,-8.55 4.1,-8.8 l -0.2,-0.3 -0.3,0.05 -0.25,0.2 -0.1,0.15 -0.1,0.5 q -0.1,0.7 0.05,1 l -0.05,0.35 0.05,0.2 0.6,0.35 0.05,-0.05 -0.3,-0.1 Q 3.2,-6.75 3.25,-7.1 l 0.35,-0.6 0.5,-0.2 1,-0.05 q 0.7,0.25 0.6,0.75 l -0.1,0.35 0.05,0.05 0.2,0.3 0.25,0.55 Q 6.2,-5.6 5.95,-5.4 5.8,-5.1 5.45,-5.1 l -0.5,-0.3 -0.4,0.35 m -20.85,1.2 h 0.1 0.6 0.25 0.1 0.4 0.2 0.65 0.1 0.2 2.55 8.25 3.05 2.15 0.3 l 1.1,0.05 h 0.8 l 1.2,0.05 h 0.7 0.25 2.1 0.5 0.55 1.6 l 0.65,0.05 h 1.7 0.4 0.2 0.95 0.85 0.35 0.25 l 0.15,-0.05 h 0.3 l 0.2,0.05 h 0.1 l 0.1,0.1 0.1,0.05 0.05,0.05 0.05,0.05 0.05,0.05 v 0.1 l 0.05,0.05 0.05,0.05 v 0.1 0.1 0.2 l -0.05,0.05 -0.05,0.1 v 0.05 l -0.05,0.05 -0.05,0.05 -0.05,0.05 -0.05,0.1 -0.1,0.05 -0.1,0.05 H 17.4 17.2 16.9 16.75 16.5 L 16.15,-2.3 H 15.3 l -0.95,0.05 h -0.2 -0.4 -1.7 H 11.4 9.8 9.25 8.75 6.65 L 6.4,-2.2 H 5.7 L 4.5,-2.15 H 3.7 2.6 L 2.3,-2.1 H 0.65 l 0.05,0.05 v 0.1 l 0.05,0.05 v 0.1 0.15 L 0.7,-1.6 v 0.1 0.15 l 0.05,0.05 v 0.1 0.25 0.1 0.2 0.1 0.2 0.1 0.25 0.1 0.2 0.1 0.2 0.1 0.25 0.1 0.2 0.1 0.2 0.1 0.25 0.1 0.2 0.1 0.2 0.1 0.25 0.1 0.2 0.1 0.2 0.1 0.25 0.1 l 0.6,0.25 q 1.1,0.45 1.65,0.9 0.85,0.7 1.05,1.5 l 0.05,0.9 q 0,1.1 -0.35,1.85 -0.4,0.95 -1.25,1.4 l -1.75,0.2 -1.7,-0.5 Q -3.45,9.4 -5.5,8 L -6.4,7.2 Q -7.05,6.25 -6.6,4.95 -6.4,4.3 -5.3,3 l 0.8,-0.6 1.75,0.15 q 1,0.3 1.95,0.7 V 3.05 2.95 2.75 2.65 2.4 2.3 2.1 2 1.75 1.65 1.45 1.35 1.15 1.05 0.8 0.7 0.5 0.4 0.2 0.1 v -0.25 -0.1 -0.2 -0.1 -0.2 -0.1 V -1.1 -1.2 -1.4 -1.5 -1.7 -1.8 -2 l 0.05,-0.05 V -2.1 L -2.9,-2.15 h -8.25 l -2.55,0.05 h -0.2 -0.1 -0.65 l -0.2,-0.05 h -0.4 -0.1 -0.25 l -0.6,0.05 h -0.1 l -0.35,-0.05 h -0.25 l -0.15,-0.1 -0.1,-0.05 -0.05,-0.05 -0.1,-0.05 -0.05,-0.05 -0.05,-0.1 V -2.6 l -0.05,-0.05 V -2.7 L -17.5,-2.75 V -2.8 -2.9 -3.1 -3.2 -3.25 l 0.05,-0.05 v -0.05 l 0.05,-0.05 0.05,-0.1 0.05,-0.05 0.05,-0.05 0.05,-0.05 0.1,-0.05 0.15,-0.05 0.1,-0.05 0.2,-0.05 h 0.35 M 1.75,1.3 V 0.9 l -0.1,-1.05 q 0,-0.65 0.5,-0.8 l 0.5,0.1 0.3,0.1 0.6,0.35 0.05,-0.2 q 0.25,-0.5 0.75,-0.5 0.55,0 0.7,0.5 L 5.15,-0.4 5.2,-0.15 5.25,1.1 5.1,1.6 4.75,1.8 Q 4.5,1.8 4.4,1.65 L 4.25,1.2 4.2,0.7 3.7,0.95 3.4,0.9 3.3,0.85 3.1,0.75 V 0.9 L 2.8,1.8 2.5,2 2.15,1.85 1.75,1.3 m 5.6,0.1 Q 7.15,2.2 6.45,2.1 6.05,2.1 5.8,1.75 L 5.3,1.1 5.35,0.3 q 0.1,-0.5 0.35,-0.85 l 0.5,-0.3 0.6,-0.1 0.5,0.45 0.1,0.3 V -0.3 L 7.7,-0.9 8,-1.05 q 0.5,0.1 0.6,0.65 l 0.1,0.3 0.15,0.25 V 0.2 L 9.2,-0.65 9.4,-1 10,-1.1 q 0.35,0.1 0.35,0.5 L 9.8,1.15 9.3,1.9 H 8.7 L 8.5,1.7 8.4,1.65 Q 8.05,1.6 7.75,1 L 7.45,0.25 7.35,1.4 m 7.15,-11.95 0.55,-0.3 0.7,0.1 h 0.6 q 0.45,0.1 0.55,0.35 l 0.05,0.25 v 0.3 l -0.45,0.45 -0.6,0.05 h -0.05 v 0.1 0.3 l 0.5,0.05 q 0.45,0.2 0.5,0.6 0.1,0.5 -0.4,0.7 l -0.55,0.2 0.05,0.35 1.05,0.2 q 0.6,0.45 0.3,0.95 -0.15,0.4 -0.75,0.55 l -0.95,0.1 q -0.7,0 -0.95,-0.25 -0.15,-0.15 -0.2,-0.8 l -0.05,-3.2 0.05,-0.7 0.05,-0.35 M 10.15,1.5 10.2,0.85 V 0.3 l 0.1,-0.5 0.25,-0.5 0.65,0.05 0.15,0.3 0.15,0.75 V 1.1 L 11.4,1.6 Q 11.25,2 10.75,2 10.3,1.9 10.15,1.5 m 2.4,0.7 -0.5,-0.05 Q 11.8,2 11.8,1.4 l 0.1,-1.7 0.05,-0.15 v -0.1 l 0.2,-0.4 0.8,-0.25 0.65,-0.1 0.15,-0.05 0.55,0.4 q 0.15,0.35 -0.15,0.65 l -0.45,0.25 0.15,0.25 v 0.15 l -0.15,0.3 -0.25,0.1 -0.1,0.05 0.25,-0.05 q 0.45,0 0.6,0.25 0.3,0.5 -0.2,0.9 L 13,2.15 12.55,2.2 M -0.85,8.4 -0.4,8.8 H 0.05 L 0.55,8.45 0.7,8.05 0.5,7.45 -0.1,7.2 -0.7,7.45 -0.95,8 -0.85,8.4 M 1.5,7 1.35,7.6 q 0,0.35 0.3,0.5 L 2,8.25 2.3,8.3 2.55,8.2 2.85,7.95 3,7.35 2.8,6.9 2.5,6.7 Q 1.95,6.45 1.5,7 M 6.2,0.45 6.15,0.5 V 0.8 L 6.35,0.95 6.5,1 6.75,0.8 6.8,0.75 V 0.55 L 6.75,0.5 V 0.4 L 6.5,0.15 V 0.2 L 6.35,0.25 6.2,0.35 v 0.1 M -12.55,-5.7 q -0.15,0.4 -0.45,0.4 l -0.35,-0.4 q -0.45,-1 -0.3,-2.15 l 0.1,-0.8 -0.05,-0.6 0.1,-0.5 0.25,-0.35 0.6,-0.1 0.55,0.95 0.75,1.45 -0.05,-1.55 0.15,-0.65 0.45,-0.3 0.55,0.25 q 0.2,0.2 0.2,0.95 v 2.9 q 0,0.75 -0.35,0.9 l -0.5,-0.1 h -0.5 l -0.6,-0.55 -0.3,-0.85 -0.1,-0.1 q 0,0.8 -0.15,1.2 M -17,-8.6 q -0.3,-0.05 -0.45,-0.25 L -17.5,-8.9 q -0.35,-0.2 -0.35,-0.65 l 0.35,-0.65 0.8,-0.15 2.25,0.1 0.5,0.15 0.2,0.2 0.1,0.35 -0.15,0.3 -0.1,0.05 -0.7,0.2 h -0.2 l -0.1,2.05 v 0.25 l 0.5,0.3 0.25,0.25 q 0.15,0.35 0,0.75 h -0.05 v 0.1 q -0.25,0.35 -0.65,0.35 l -0.4,0.1 -1.1,0.1 -0.6,-0.05 -0.55,-0.65 q -0.1,-0.45 0.2,-0.75 l 0.15,-0.1 v -0.1 l 0.55,-0.2 v -0.05 l 0.05,-0.65 0.15,-1.2 -0.05,-0.15 V -8.7 L -17,-8.6 m 6.05,9.9 q -0.15,0.5 -0.7,0.4 -0.5,-0.1 -0.5,-0.6 l -0.05,-1 h -0.2 l -0.3,-0.2 q -0.25,-0.35 -0.1,-0.7 l 0.55,-0.4 0.6,0.1 H -11 q 0.5,0 0.6,0.25 l 0.15,0.3 0.35,-0.15 0.05,-0.05 q 0.45,0 0.55,0.4 l 0.05,0.4 h 0.3 V 0 q -0.1,-0.6 0.2,-0.9 L -8.1,-1 -7.7,-0.55 -7.85,0.15 -8.05,1.2 -8.1,1.55 -8.4,1.75 -8.75,1.6 -8.8,1.15 H -9.25 L -9.4,1.45 -9.55,1.7 h -0.5 l -0.3,-0.4 -0.05,-1.25 0.05,-0.4 -0.05,0.05 q -0.1,0.15 -0.45,0.25 l -0.05,1 -0.05,0.35 m 9.05,-7.9 0.7,0.05 0.7,0.2 0.15,0.6 -0.2,0.55 q -0.2,0.15 -0.75,0.25 h -0.9 l -0.25,0.1 -0.25,0.05 q -0.5,-0.1 -0.75,-0.6 l -0.05,-1.45 -0.1,-0.2 0.05,-3 q 0.2,-0.6 0.8,-0.5 l 0.15,0.05 0.9,-0.1 0.75,0.1 0.5,0.5 q 0.05,0.35 -0.2,0.75 -0.2,0.2 -0.7,0.3 L -2,-8.9 v 0.4 h 0.25 l 0.45,0.05 0.4,0.3 0.05,0.5 q -0.1,0.35 -0.45,0.45 l -0.6,0.1 v 0.5 m -2.5,-2.4 0.2,2.15 0.05,0.45 0.25,0.3 q 0.3,0.45 -0.05,0.85 -0.25,0.25 -0.8,0.35 -0.75,0.2 -1.1,0 -0.45,-0.2 -0.45,-0.65 0,-0.5 0.4,-0.75 l 0.25,-0.1 v -0.3 l -0.1,-1.5 -0.05,-1.1 -0.45,-0.2 -0.2,-0.55 0.2,-0.55 0.7,-0.25 0.75,0.05 0.6,0.1 q 0.3,0.2 0.3,0.6 0,0.4 -0.3,0.6 l -0.2,0.1 V -9 m -5.05,3.45 -0.15,-0.8 -0.05,-1.85 0.15,-1.5 0.3,-0.45 0.55,-0.35 q 0.9,-0.2 1.65,0.5 0.6,0.5 0.8,1.6 0.15,0.45 0.05,1.05 l -0.55,1.1 q -0.9,1.2 -2,1.05 l -0.25,-0.05 -0.5,-0.3 m 1.2,-3.25 0.05,1 0.05,1.25 0.5,-0.5 q 0.35,-0.55 0.3,-1 -0.1,-0.65 -0.6,-0.8 l -0.3,-0.05 v 0.1 M -7.5,-0.4 -7.55,-0.55 -7.5,-0.7 -7.35,-0.95 -6.7,-1.1 H -6 l 0.05,-0.05 q 0.45,0.1 0.45,0.55 L -5.7,-0.15 -6,-0.05 -6.2,0 v 0.3 0.1 h 0.35 l 0.1,0.1 0.1,0.2 v 0.15 l -0.1,0.2 h 0.15 q 0.4,0.1 0.4,0.5 L -5.45,2 -5.75,2.1 -6.05,2.15 -6.4,2.1 -6.75,2.15 -7.15,1.8 -7.2,1.65 -7.15,1.55 -7.35,1.15 -7.45,0.2 -7.35,-0.15 -7.5,-0.4 M -3.9,4.4 -4,4.55 -4.3,4.35 -4.95,4.3 q -0.45,0.1 -0.55,0.65 0,0.5 0.5,0.75 l 0.2,0.05 -0.25,0.55 q -0.1,0.55 0.45,0.8 0.55,0.2 0.9,-0.25 l 0.25,-0.45 0.6,0.1 Q -2.4,6.4 -2.4,5.95 L -2.5,5.65 Q -2.65,5.4 -3.05,5.25 L -3,5.05 -2.9,4.4 Q -3.1,3.9 -3.4,4 -3.75,4.05 -3.9,4.4"
         fill="#ffffff"
         fill-rule="evenodd"
         stroke="none"
         id="path21" />
      <path
         d="m 7.7,-9 0.5,0.25 0.1,0.2 v 1 L 7.9,-7.1 Q 7.55,-7 7.35,-7.2 L 7.15,-7.65 V -8.6 l 0.1,-0.15 Q 7.4,-9 7.7,-9 M 6.2,0.45 V 0.35 L 6.35,0.25 6.5,0.2 V 0.15 L 6.75,0.4 V 0.5 L 6.8,0.55 v 0.2 L 6.75,0.8 6.5,1 6.35,0.95 6.15,0.8 V 0.5 L 6.2,0.45 M 1.5,7 Q 1.95,6.45 2.5,6.7 L 2.8,6.9 3,7.35 2.85,7.95 2.55,8.2 2.3,8.3 2,8.25 1.65,8.1 Q 1.35,7.95 1.35,7.6 L 1.5,7 M -0.85,8.4 -0.95,8 -0.7,7.45 -0.1,7.2 0.5,7.45 0.7,8.05 0.55,8.45 0.05,8.8 H -0.4 L -0.85,8.4 M -3.9,4.4 Q -3.75,4.05 -3.4,4 -3.1,3.9 -2.9,4.4 L -3,5.05 -3.05,5.25 q 0.4,0.15 0.55,0.4 l 0.1,0.3 q 0,0.45 -0.45,0.55 L -3.45,6.4 -3.7,6.85 Q -4.05,7.3 -4.6,7.1 -5.15,6.85 -5.05,6.3 L -4.8,5.75 -5,5.7 Q -5.5,5.45 -5.5,4.95 -5.4,4.4 -4.95,4.3 L -4.3,4.35 -4,4.55 -3.9,4.4"
         fill="#808080"
         fill-rule="evenodd"
         stroke="none"
         id="path22" />
    </g>
    <g
       id="sprite5"
       transform="translate(19.15,19.75)">
      <use
         ffdec:characterId="766"
         height="39.450001"
         transform="matrix(0.815,-0.2184,0.2184,0.815,-17.975,-12.4475)"
         width="33.5"
         xlink:href="#sprite6"
         id="use22" />
    </g>
    <g
       id="sprite6"
       transform="translate(0.75,0.75)">
      <use
         ffdec:characterId="765"
         height="39.450001"
         transform="translate(-0.75,-0.75)"
         width="33.5"
         xlink:href="#shape5"
         id="use23" />
    </g>
    <g
       id="shape5"
       transform="translate(0.75,0.75)">
      <path
         d="m 22.4,3.05 -0.1,3.1 q 0.85,-1.45 1.55,-1.55 2.4,-0.4 4.95,1.2 2.35,1.5 2.35,2.85 0,0.45 -1.2,1.8 l -1.5,1.7 q 1.15,0.85 2,2.55 1.55,3.1 1.55,7.05 0,3.6 -4,8.9 -5.5,7.3 -14.15,7.3 -2.95,0 -3.6,-1.1 l -0.1,-0.65 -2.9,0.4 Q 3.8,36.6 1.55,30.85 0,26.85 0,24.75 0,20.15 2.85,14.9 6.45,8.3 12.15,8.1 12.25,6.2 12.5,5.25 11.65,1.45 13.85,0.45 L 19.65,0 q 2.05,0.25 2.6,1.3 l 0.15,1.75 m -2,-0.6 Q 20.15,2 19.25,2 q -3.4,0 -4.6,1.05 -0.85,0.75 -0.8,2.6 0,2.55 -0.2,3.25 -0.45,1.7 -2.1,2.8 L 10.4,13 8.1,15.65 7.65,15.5 Q 7.5,15.3 7.5,14.85 q 0,-1 1.85,-3.05 l 0.7,-0.7 0.2,-0.75 -0.55,0.1 -0.2,0.05 -1.9,1.6 Q 5.7,14 4.95,16 L 3.9,19.3 q -0.95,3.2 -0.95,4.1 0,5.5 2.3,7.8 1.6,1.6 4.75,1.85 V 32.7 q 0,-4.3 1.55,-7.15 l 0.6,-5 -0.85,1.1 Q 10.75,22.7 9.95,24.7 l -0.3,-0.4 -0.2,-0.7 q 0,-3.85 3.35,-5.7 5,-2.7 7.4,-6.3 0.5,0.5 0.5,1.3 0,1.55 -2.05,3.4 -1.8,1.6 -3.95,2.55 -1.05,0.45 -1.85,1.05 L 13,23.45 q 0.95,-1.1 2.25,-1.85 -1.4,1.65 -2.25,3.2 l -0.05,0.8 -0.9,1.5 q -0.3,1 -0.35,1.95 l 0.3,4.3 0.25,0.75 -0.05,0.45 q 0.5,0.45 1.2,0.45 7.35,0 12.25,-5.95 3.6,-4.45 3.6,-7.35 0,-2.9 -1,-5.3 -1.45,-3.65 -4.8,-4.9 2.1,-0.65 3.75,0 0.05,-0.55 0.45,-1.1 L 29,8.75 Q 28.6,8 27.1,7.25 25.55,6.5 24.4,6.5 L 23.3,8.15 22.1,9.7 v 0.1 q 0,1.05 -0.85,1.05 -1.05,0 -1.25,-1.6 V 7.55 L 20.5,3.1 20.4,2.45 m 4.5,12 q 0.6,0.8 0.8,2.55 l 0.05,2.65 q 0,3.7 -0.2,4.4 -0.4,1.3 -3.05,5.05 l -0.3,-0.15 -0.1,-0.5 q 0,-0.55 1.2,-3 1.25,-2.5 1.3,-4.2 L 24.55,17.6 q 0,-2.4 0.35,-3.15 m -3.8,6.2 q -0.15,-2.2 -0.9,-3.8 1.55,-1.35 2,1.75 l 0.25,-0.3 0.05,1.65 q 0,2.8 -0.35,3.65 l -0.6,1.7 q -0.55,1.1 -1.3,1.15 l 0.9,-4.85 -0.05,-0.95 m -2.3,-15 Q 17.95,6.25 17,6.25 L 15.6,6 15.1,5.95 14.95,5.55 14.65,5 q 0,-1.55 2.5,-2.25 2.5,-0.7 2.5,1.55 0,0.75 -0.85,1.35"
         fill="#9a9a9a"
         fill-rule="evenodd"
         stroke="none"
         id="path23" />
      <path
         d="m 9.25,15.9 q 0,-1.55 2.95,-3.05 2.9,-1.45 2.9,0.55 0,0.7 -1.7,2.25 -1.7,1.6 -2.45,1.6 -1.2,0 -1.6,-0.65 L 9.25,15.9 M 7.85,20.85 7.6,21 7,21.1 6.55,21.05 6.2,20.85 6.1,20.2 Q 6.1,19.65 6.5,19.35 7.1,19 7.95,20.2 l -0.1,0.65 m 10.5,3.4 q 0,0.95 -0.75,2.45 -0.95,1.9 -2.15,1.9 -1.1,0 -1.05,-0.7 0,-2.65 2,-4.45 1.95,-1.85 1.95,0.8"
         fill="#d2d2d2"
         fill-rule="evenodd"
         stroke="none"
         id="path24" />
      <path
         d="m 18.8,5.65 q 0.85,-0.6 0.85,-1.35 0,-2.25 -2.5,-1.55 -2.5,0.7 -2.5,2.25 l 0.3,0.55 0.15,0.4 L 15.6,6 17,6.25 q 0.95,0 1.8,-0.6 m 2.3,15 0.05,0.95 -0.9,4.85 Q 21,26.4 21.55,25.3 l 0.6,-1.7 Q 22.5,22.75 22.5,19.95 L 22.45,18.3 22.2,18.6 q -0.45,-3.1 -2,-1.75 0.75,1.6 0.9,3.8 m 3.8,-6.2 q -0.35,0.75 -0.35,3.15 l 0.05,3.65 q -0.05,1.7 -1.3,4.2 -1.2,2.45 -1.2,3 l 0.1,0.5 0.3,0.15 q 2.65,-3.75 3.05,-5.05 0.2,-0.7 0.2,-4.4 L 25.7,17 Q 25.5,15.25 24.9,14.45 M 20.4,2.45 20.5,3.1 20,7.55 v 1.7 q 0.2,1.6 1.25,1.6 0.85,0 0.85,-1.05 V 9.7 L 23.3,8.15 24.4,6.5 q 1.15,0 2.7,0.75 1.5,0.75 1.9,1.5 l -1.35,1.65 q -0.4,0.55 -0.45,1.1 -1.65,-0.65 -3.75,0 3.35,1.25 4.8,4.9 1,2.4 1,5.3 0,2.9 -3.6,7.35 Q 20.75,35 13.4,35 12.7,35 12.2,34.55 L 12.25,34.1 12,33.35 11.7,29.05 q 0.05,-0.95 0.35,-1.95 l 0.9,-1.5 0.05,-0.8 q 0.85,-1.55 2.25,-3.2 -1.3,0.75 -2.25,1.85 L 12.85,19.9 q 0.8,-0.6 1.85,-1.05 2.15,-0.95 3.95,-2.55 2.05,-1.85 2.05,-3.4 0,-0.8 -0.5,-1.3 -2.4,3.6 -7.4,6.3 -3.35,1.85 -3.35,5.7 l 0.2,0.7 0.3,0.4 q 0.8,-2 1.35,-3.05 l 0.85,-1.1 -0.6,5 Q 10,28.4 10,32.7 v 0.35 Q 6.85,32.8 5.25,31.2 2.95,28.9 2.95,23.4 2.95,22.5 3.9,19.3 L 4.95,16 Q 5.7,14 7.6,12.1 l 1.9,-1.6 0.2,-0.05 0.55,-0.1 -0.2,0.75 -0.7,0.7 Q 7.5,13.85 7.5,14.85 7.5,15.3 7.65,15.5 L 8.1,15.65 10.4,13 11.55,11.7 q 1.65,-1.1 2.1,-2.8 0.2,-0.7 0.2,-3.25 Q 13.8,3.8 14.65,3.05 15.85,2 19.25,2 q 0.9,0 1.15,0.45 m -2.05,21.8 q 0,-2.65 -1.95,-0.8 -2,1.8 -2,4.45 -0.05,0.7 1.05,0.7 1.2,0 2.15,-1.9 0.75,-1.5 0.75,-2.45 M 7.85,20.85 7.95,20.2 Q 7.1,19 6.5,19.35 6.1,19.65 6.1,20.2 l 0.1,0.65 0.35,0.2 L 7,21.1 7.6,21 7.85,20.85 m 1.4,-4.95 0.1,0.7 q 0.4,0.65 1.6,0.65 0.75,0 2.45,-1.6 1.7,-1.55 1.7,-2.25 0,-2 -2.9,-0.55 -2.95,1.5 -2.95,3.05"
         fill="#b2aaaa"
         fill-rule="evenodd"
         stroke="none"
         id="path25" />
      <path
         d="m 22.4,3.05 -0.1,3.1 q 0.85,-1.45 1.55,-1.55 2.4,-0.4 4.95,1.2 2.35,1.5 2.35,2.85 0,0.45 -1.2,1.8 l -1.5,1.7 q 1.15,0.85 2,2.55 1.55,3.1 1.55,7.05 0,3.6 -4,8.9 -5.5,7.3 -14.15,7.3 -2.95,0 -3.6,-1.1 l -0.1,-0.65 -2.9,0.4 Q 3.8,36.6 1.55,30.85 0,26.85 0,24.75 0,20.15 2.85,14.9 6.45,8.3 12.15,8.1 12.25,6.2 12.5,5.25 11.65,1.45 13.85,0.45 L 19.65,0 q 2.05,0.25 2.6,1.3 z"
         fill="none"
         stroke="#9a9a9a"
         stroke-linecap="round"
         stroke-linejoin="round"
         stroke-width="1.5"
         id="path26" />
    </g>
    <g
       id="sprite7"
       transform="translate(5.4,4)">
      <use
         ffdec:characterId="43"
         height="8"
         transform="translate(-5.4,-4)"
         width="10.8"
         xlink:href="#shape6"
         id="use26" />
    </g>
    <g
       id="shape6"
       transform="translate(5.4,4)">
      <path
         d="m 2.9,-0.35 q 0,-1.25 1.25,-1.25 1.25,0 1.25,1.2 0,1.3 -1.25,1.3 Q 3.6,0.9 3.25,0.5 2.9,0.15 2.9,-0.35 m 0.35,-2.3 q 0,0.55 -0.35,0.9 -0.4,0.45 -1,0.45 -1.35,0 -1.35,-1.4 0,-1.3 1.35,-1.3 1.35,0 1.35,1.35 m -3.1,1.9 h 0.2 q 2.6,0.1 2.6,2.8 l -0.3,1 Q 2.05,4 0.45,4 H 0.35 0.15 0.1 -0.45 q -1.6,0 -2.2,-0.95 l -0.3,-1 q 0,-2.8 2.8,-2.8 h 0.3 M -1.55,-4 q 1.35,0 1.35,1.35 0,0.55 -0.4,0.9 -0.4,0.45 -0.95,0.45 -1.4,0 -1.4,-1.4 0,-1.3 1.4,-1.3 m -2.6,2.4 q 1.25,0 1.25,1.25 0,0.5 -0.35,0.85 -0.35,0.4 -0.9,0.4 -1.25,0 -1.25,-1.3 0,-1.2 1.25,-1.2"
         fill="#6b6b6b"
         fill-rule="evenodd"
         stroke="none"
         id="path27" />
    </g>
    <g
       id="sprite8"
       transform="translate(5.4,4)">
      <use
         ffdec:characterId="43"
         height="8"
         transform="translate(-5.4,-4)"
         width="10.8"
         xlink:href="#shape7"
         id="use27" />
    </g>
    <g
       id="shape7"
       transform="translate(5.4,4)">
      <path
         d="m 2.9,-0.35 q 0,-1.25 1.25,-1.25 1.25,0 1.25,1.2 0,1.3 -1.25,1.3 Q 3.6,0.9 3.25,0.5 2.9,0.15 2.9,-0.35 m 0.35,-2.3 q 0,0.55 -0.35,0.9 -0.4,0.45 -1,0.45 -1.35,0 -1.35,-1.4 0,-1.3 1.35,-1.3 1.35,0 1.35,1.35 m -3.1,1.9 h 0.2 q 2.6,0.1 2.6,2.8 l -0.3,1 Q 2.05,4 0.45,4 H 0.35 0.15 0.1 -0.45 q -1.6,0 -2.2,-0.95 l -0.3,-1 q 0,-2.8 2.8,-2.8 h 0.3 M -1.55,-4 q 1.35,0 1.35,1.35 0,0.55 -0.4,0.9 -0.4,0.45 -0.95,0.45 -1.4,0 -1.4,-1.4 0,-1.3 1.4,-1.3 m -2.6,2.4 q 1.25,0 1.25,1.25 0,0.5 -0.35,0.85 -0.35,0.4 -0.9,0.4 -1.25,0 -1.25,-1.3 0,-1.2 1.25,-1.2"
         fill="#6b6b6b"
         fill-rule="evenodd"
         stroke="none"
         id="path28" />
    </g>
    <g
       id="shape8"
       transform="translate(45.15,43.7)">
      <path
         d="m -12.8,-13.75 3.1,-0.05 11.8,-1.95 0.6,-0.1 3.5,-0.75 q 6.75,-1.5 9.1,-2.6 l -0.3,-0.15 -0.1,-0.1 -1,0.15 -11.8,1.45 -12.1,1.45 -7.2,0.2 -2.45,-0.25 0.65,-0.25 1.75,-0.05 0.5,0.1 5.65,-0.15 q 5.45,-0.65 9.45,-1.6 l 2.65,-0.7 1.1,-0.4 5.95,-2.05 q 4.9,-2.4 8.7,-0.55 1.85,0.95 2.6,2.05 l 0.45,1.45 -0.2,1.35 q -0.7,1.75 -3.2,2.65 l -2.45,0.7 -2.6,0.55 -0.45,0.05 -6.9,-0.05 -4,0.45 -2.6,-0.2 -7.65,-0.2 -2.55,-0.4 v -0.05 m 33.5,-0.85 0.85,-1.15 3.9,0.65 3.75,0.15 0.65,-0.25 0.3,-0.4 q -0.7,-1.25 -4.55,-1.45 l -3.8,0.35 v -0.3 -0.35 l 6.85,-0.5 0.5,-0.05 q 1,0.65 1.8,1.9 l 1.2,2.65 -1.75,0.45 -1,-0.25 -0.05,-0.5 q -0.1,-0.9 -1.15,-1 l -6.4,-0.05 -1.1,0.1 m -41.25,4.4 -3.3,0.15 -1.55,0.1 q -1.4,-0.1 -2.3,-0.75 -0.9,-0.55 -0.9,-1.15 l 0.15,-0.45 0.35,-0.55 q 0.6,-0.65 1.35,-0.7 l 2.4,-0.1 -0.05,0.4 q 0,0.65 0.85,0.7 l 3.55,0.1 -0.05,0.15 q -0.5,0.95 -0.5,2.1 m 21.4,0.65 1.2,-0.15 0.1,-0.4 q -3.3,-1 -3.3,-0.05 l 0.1,0.45 0.35,0.1 1.55,0.05 m 0.4,-5.15 -0.1,-0.4 -0.1,-0.05 -3.05,0.35 -2.7,1 q 0.9,0.45 1.7,0.45 l 2.45,-0.5 q 1.8,-0.55 1.8,-0.85 m 2.8,-0.35 0.55,0.1 0.95,-0.3 0.6,-0.45 q -0.6,-0.45 -1.45,-0.3 -0.75,0.1 -0.75,0.5 v 0.35 l 0.1,0.1 m 8.65,-7.05 -0.05,-0.25 q -0.7,-0.2 -3.55,0.75 -2.8,1 -2.8,1.5 0,0.6 0.1,0.55 l 0.6,0.1 q 4.8,-1.2 5.7,-2.65 m -22.4,15.75 2.8,-0.5 8.35,0.1 q 6.4,0.4 9.55,1.8 l 0.55,0.25 -0.65,0.2 -0.45,0.1 -4.25,0.7 -6,0.75 -1.2,0.15 -1.9,0.2 -0.85,0.1 -3.35,0.2 -1.7,0.05 h -0.3 l -0.15,-1.4 q 1,-0.15 1.65,-0.9 L -7.7,-4.7 -9.25,-5 H -9.5 l -0.2,-1.2 v -0.15 m 35.3,-5.1 h 0.85 1.3 q 1.45,0.1 1.95,0.7 l 0.25,1.25 -0.05,0.4 Q 29.65,-8 28,-6.6 l -0.1,0.1 q -2.15,1.85 -4.75,2.1 H 17.4 q -2.55,-0.4 -6.25,-2.15 -3.1,-1.5 -9.3,-2 H 1.7 l -8.75,-0.1 -2.6,0.15 -0.5,0.05 -0.1,-0.4 q 2.9,-0.45 4.15,-1.05 -1.05,-0.8 -4.65,-0.5 L -11,-10.8 h 1.5 l 4.6,-0.15 4.75,-0.15 6.05,0.95 1.65,0.25 2.6,0.45 3.65,0.5 -0.7,0.3 0.95,0.7 q 1,0.45 3.2,0.45 l 0.85,-0.2 0.9,-0.35 1,0.1 3.15,-0.15 0.65,-0.25 -2.7,-0.5 -0.15,-0.05 -7.7,-2 -1.55,-0.35 -0.2,-0.05 h 3 l 4.1,-0.2 h 4.05 q -1.1,0.1 -1.1,0.6 0,0.5 0.1,0.25 l 1.5,0.2 1.15,0.15 h 0.55 1.75 l 1.55,-0.05 0.25,-0.55 -0.05,-0.3 -0.15,-0.1 -0.6,-0.05 -2,-0.1 m -31.55,7.15 0.4,0.25 0.5,-0.35 v -0.15 l -0.1,-0.3 -0.1,-0.2 -0.5,0.25 -0.35,0.3 0.15,0.2"
         fill="#d0bebe"
         fill-rule="evenodd"
         stroke="none"
         id="path29" />
      <path
         d="m 10.9,-13.3 0.45,-0.05 2.6,-0.55 2.45,-0.7 q 2.5,-0.9 3.2,-2.65 l 0.2,-1.35 -0.45,-1.45 q -0.75,-1.1 -2.6,-2.05 -3.8,-1.85 -8.7,0.55 l -5.95,2.05 -1.1,0.4 -2.65,0.7 q -4,0.95 -9.45,1.6 l -5.65,0.15 -0.5,-0.1 -1.75,0.05 -0.65,0.25 2.45,0.25 7.2,-0.2 12.1,-1.45 11.8,-1.45 1,-0.15 0.1,0.1 0.3,0.15 q -2.35,1.1 -9.1,2.6 l -3.5,0.75 -0.6,0.1 -11.8,1.95 -3.1,0.05 h -0.1 l -0.55,-1.05 v -0.05 q -0.2,-2.25 -3.8,-0.2 l -1.75,1.35 1.75,-1.35 q 3.6,-2.05 3.8,0.2 v 0.05 l 0.55,1.05 v 0.05 h 0.1 l 2.55,0.4 7.65,0.2 2.6,0.2 4,-0.45 6.9,0.05 7.65,0.1 q 1.35,-0.65 2.15,-1.4 -0.8,0.75 -2.15,1.4 l -7.65,-0.1 m 10.65,-2.45 -0.85,1.15 1.1,-0.1 6.4,0.05 q 1.05,0.1 1.15,1 l 0.05,0.5 1,0.25 0.8,0.6 0.15,0.25 q 0.5,0.7 0.5,1.65 v 0.35 -0.35 q 0,-0.95 -0.5,-1.65 l -0.15,-0.25 -0.8,-0.6 1.75,-0.45 -1.2,-2.65 q -0.8,-1.25 -1.8,-1.9 l -0.5,0.05 -6.85,0.5 v 0.35 0.3 l -0.25,0.95 m -0.15,-4.5 0.4,2.9 -0.4,-2.9 2.8,-0.35 q 5,-2.4 8.25,2.55 1.45,2.25 2.05,4.5 h 0.35 q 2.2,0.05 4,1.25 1.45,1 2.65,2.8 2,2.95 2,4.9 0,3.55 -0.3,4.55 l -0.8,1.8 0.95,1.85 q 0.9,2.45 0.9,4.1 l -0.1,1.9 q -0.1,0.9 -0.85,2.2 l -0.5,0.6 h 0.15 l -0.3,0.15 -0.35,0.45 0.35,0.4 0.3,0.15 H 42.8 l 0.5,0.55 q 0.75,1.35 0.85,2.25 l 0.1,1.9 q 0,1.65 -0.9,4.1 L 42.4,24.2 q 0.5,0.75 0.8,1.8 0.3,1 0.3,4.55 0,1.95 -2,4.9 -2.65,3.9 -6.65,3.85 l -2.3,-0.15 Q 31.5,40.3 29.8,41.3 L 29,41.75 H 11.3 q 1.8,-0.3 3.95,-1.7 l 0.5,-0.3 0.1,-0.2 Q 16.2,39 16.9,38.95 L 18,38.2 q 1.1,0.05 1.1,0.8 l -0.1,0.85 2.8,0.65 q 1.95,0.05 4.65,-0.95 1.7,-0.65 2.8,-1.5 1.35,-1.15 1.6,-2.7 v -0.6 q 0,-4.7 -3.3,-6.7 H 27.5 Q 26.4,27.4 25.05,27.1 L 22.8,26.8 q -1.4,0 -3.35,1.45 l -0.9,0.65 0.05,0.75 q 0,1.55 -1.05,1.5 L 15.15,29.1 Q 12.9,26.95 10.5,26.95 8.5,26.9 6,28.5 L 5.05,29.05 V 31.1 L 4.55,30.75 4.4,30.55 4.35,30.5 Q 3.95,30 3.95,29.25 v -0.1 L 3.7,29 Q 3.35,28.75 2.8,28.45 L 1.9,27.9 q -2,-1.05 -3.65,-1.1 -2.4,0 -4.65,2.05 L -8.75,30.9 -9.3,30.75 q 0.3,-0.95 0.45,-2.1 0.35,-2.15 0.15,-5.15 0.2,3 -0.15,5.15 -0.15,1.15 -0.45,2.1 -0.5,1.7 -1.4,2.75 l -0.4,0.75 -0.25,0.45 0.05,0.2 v 0.15 l -0.4,0.05 q -1.05,1.25 -2.85,1.7 -3.15,0.8 -4.55,-0.75 -0.75,-0.8 -0.85,-1.95 -0.15,-1.9 0.65,-3.15 1.15,-1.75 1.7,-3.9 l -0.7,0.3 -0.4,0.2 q -3.35,1.95 -3.35,6.65 v 0.25 q 0.15,3 4.35,4.65 l 2.85,0.85 1.85,0.2 2.8,-0.65 -0.1,-0.7 v -0.15 q 0,-0.75 1.05,-0.7 l 0.65,0.4 0.5,0.35 q 0.7,0.05 1,0.6 l 0.1,0.2 0.5,0.3 1.4,0.85 q 1.95,1.05 3.65,1.05 L 1.6,41.3 3.7,39.8 4.2,39.4 4.4,38.5 Q 4.5,38.15 4.75,38 l 0.3,-0.05 v 1.9 l 2.1,1.5 1.6,0.4 h -40.8 q -2.6,-1.7 -3.45,-4.85 -0.7,-2.7 0.8,-6.65 l 0.8,-1.65 -0.85,-0.55 q -7.4,-5 -8.5,-8.6 -1.3,-4.55 -1.15,-7.25 l 1.05,-6.35 q 0.4,-2.1 2.35,-5.45 1.75,-3.05 3.55,-5.1 l 2.15,-2.35 q 1.75,-1.5 4.9,-2.3 l 0.4,-0.1 -0.25,-0.3 q -0.5,-0.7 -0.6,-1.95 l -0.05,-0.95 0.05,-0.2 q 0.25,-1.15 1.25,-2.1 1.55,-1.4 4.2,-1.5 h 0.6 l 1.7,0.1 0.05,-0.2 -1.55,-0.1 0.05,-0.05 0.35,-0.4 q 2.35,-2.75 2.6,-3.4 l 0.8,-2.85 0.55,-1.4 -0.55,-1.35 -0.45,-0.35 q -2.75,-2.4 -3.45,-2.6 l -2.75,-0.85 q -1.3,-0.35 -2.7,-1.3 l -0.5,-0.4 q -2.25,-1.85 -2.5,-4.05 -0.2,-1.8 0.75,-2.7 l 1.5,-1.75 q 0.65,-0.9 0.1,-2.1 -0.55,-1.05 -0.2,-1.25 l 0.55,-0.05 0.6,0.35 q 1.7,2.95 0.15,4.95 l -1.15,1.3 q -0.4,0.75 0,1.45 l 0.75,1.05 q 0.15,-0.8 0.8,-1.15 0.8,-0.45 2,-0.55 1.25,-0.15 2,-0.55 0.8,-0.45 0.95,-2.05 0.15,-1.6 -0.55,-2.85 l -0.3,-0.4 h -0.1 l -0.2,0.2 0.1,-0.35 0.05,-0.15 -1.05,-0.95 v -0.25 l 0.3,-0.15 1.15,0.15 1.3,1.55 0.5,1.15 q 1,1.8 0.05,3.55 l 0.3,0.1 1.35,0.1 q 0.5,-0.3 0.9,-1 l 0.7,-1.25 0.4,-0.05 q -0.35,1.75 -0.75,2.4 l -1.4,1 -1.35,0.1 -1.65,0.25 -0.95,0.7 -1.05,0.25 -1.2,0.45 q -0.45,0.25 -0.2,1.05 l 0.05,0.4 q 0.95,0.6 2.2,1.1 l 0.85,0.35 q 4.35,1.5 6.15,4.3 1.65,-1.8 3.6,-2 1.85,-0.15 2.7,0.85 l 1.75,1.45 2.15,0.1 1.25,-0.1 q 0.1,0.2 0.05,0.55 l -0.35,0.5 q -2.95,1.7 -4.95,0.1 l -1.35,-1.1 -1.4,-0.05 -1.1,0.8 q 0.8,0.1 1.2,0.75 0.45,0.8 0.55,2.05 0.15,1.25 0.6,2 0.45,0.8 2.05,0.95 1.6,0.2 2.85,-0.5 l 0.4,-0.35 V -21 l -0.2,-0.2 0.35,0.1 0.15,0.05 0.9,-1.05 h 0.3 l 0.15,0.3 q 0.25,0.4 -0.2,1.1 -0.45,0.75 -1.35,1.3 H -9.25 -15 l -0.2,-0.95 -0.7,-0.95 -0.25,-1.05 -0.4,-1.25 q -0.25,-0.4 -1.05,-0.25 l -0.45,0.15 -1.4,3 q -0.25,0.85 -0.6,1.55 -1.5,0.25 -2.15,0.8 l -0.1,0.15 q 0.65,-0.5 2.05,-0.75 l 3.75,-0.25 h 7.05 0.6 q 2.8,-0.25 8.4,-2.05 l 2.55,-0.85 1.85,-0.6 5.9,-1.7 q 7.1,-1.65 10,1.3 1.05,1.05 1.55,2.85 m -41.95,10.05 v 0.5 q 0.1,0.8 0.6,1.5 l -3.9,0.15 -1.55,0.15 q -3.25,0.1 -4.6,-1.55 1.35,1.65 4.6,1.55 l 1.55,-0.15 3.9,-0.15 q -0.5,-0.7 -0.6,-1.5 v -0.5 q 0,-1.15 0.5,-2.1 l 0.05,-0.15 1,-1.25 h -2.05 l -3.3,0.05 -2.4,0.1 q -0.75,0.05 -1.35,0.7 l -0.35,0.55 -0.15,0.45 q 0,0.6 0.9,1.15 0.9,0.65 2.3,0.75 l 1.55,-0.1 3.3,-0.15 m 11.45,7.95 h 0.3 l 1.7,-0.05 3.35,-0.2 0.85,-0.1 1.9,-0.2 1.2,-0.15 6,-0.75 4.25,-0.7 0.45,-0.1 0.65,-0.2 L 11,-4.95 q -3.15,-1.4 -9.55,-1.8 l -8.35,-0.1 -2.8,0.5 -0.45,-2.1 0.45,2.1 v 0.15 l 0.2,1.2 0.25,1.35 0.15,1.4 Q -9,-1.1 -9.25,0.1 l 3.4,-0.05 -3.4,0.05 Q -9,-1.1 -9.1,-2.25 m 5.6,2.2 -2.35,0.1 2.05,0.3 0.3,-0.4 1.95,-0.1 -1.95,0.1 M 24.7,-3 23.2,-2.6 17.05,-2.65 14.6,-3.35 q -1.3,0.8 -6.7,1.9 l -9.45,1.3 -0.5,1.25 q -1.8,2.05 -6.4,0.75 L -10.2,2.7 Q -9.55,1.45 -9.25,0.25 V 0.1 0.25 q -0.3,1.2 -0.95,2.45 -0.8,1.6 -2.15,3.25 -3.7,4.5 -3.4,7.4 l 1.8,2 1.15,-1.8 q 2.25,-2.7 6.25,-1.95 1.65,0.35 2.9,1.8 l 1.95,2.3 q 1.25,1.15 3.25,4.5 1.9,3.2 2.3,4.8 l 0.45,1.9 0.1,0.05 0.35,-0.15 0.3,-0.45 v 0.2 q 3.05,-2.05 5.8,-2 l 3.95,0.75 q 1.25,0.45 2.15,1.05 0.9,-1.1 3.1,-1.7 2.3,-0.7 4.2,-0.65 l 2.3,0.3 0.4,-0.4 Q 26.3,23.1 25.9,21.95 L 25.2,18.5 q 0,-2.45 2.05,-5.1 H 27 l 0.45,-0.25 0.2,-0.3 -0.2,-0.3 -0.45,-0.3 h 0.25 Q 25.2,9.5 25.2,7.05 L 25.9,3.6 q 0.4,-1.15 1.05,-1.85 -1.1,-0.9 -1.75,-2.8 L 24.7,-3 27.35,-3.95 24.7,-3 m 7.15,-7.05 q -0.1,2.4 -1.5,3.95 -1.05,1.2 -3,2.15 l -0.05,0.5 q 0,1.25 1.45,2.95 l 0.65,0.8 0.75,-0.05 q 1.5,0.05 1.5,1 L 29.6,3.3 q -2,2 -2,4.1 0,1.8 1.55,4 l 0.55,0.85 0.15,0.2 h 0.1 q 0.7,0 1.25,0.35 l 0.05,0.05 0.45,0.6 -2,-0.05 -0.55,0.85 q -1.55,2.2 -1.55,4 0,2.1 2,4.1 l 2.05,2.15 q 0,0.95 -1.5,0.9 l -0.75,-0.05 -0.05,0.1 0.35,0.2 1.5,1.1 q 0.55,0 0.75,0.75 2.35,2.65 2.35,7.05 l -0.2,1.65 1,0.05 q 3.1,0.05 4.75,-3.8 1,-2.35 1,-4.1 0,-1.05 -0.65,-2.5 l -0.8,0.1 q -0.8,0 -0.8,-1 l 0.8,-1 q 0.05,-0.6 0.55,-0.9 l 0.25,-0.1 0.3,-0.4 q 1.8,-2.45 1.8,-4.45 0,-1.85 -0.45,-2.65 L 40.35,13.5 H 38.5 l 0.05,-0.25 q 0.15,-0.2 0.55,-0.3 l 0.85,-0.2 0.4,-0.4 1.5,-1.85 q 0.45,-0.8 0.45,-2.65 0,-2 -1.8,-4.55 L 40.2,2.85 39.95,2.8 Q 39.45,2.5 39.4,1.85 l -0.8,-1 q 0,-0.95 0.8,-0.95 L 40.2,0 q 0.65,-1.35 0.65,-2.4 0,-1.75 -1,-4.2 -1.65,-3.85 -4.75,-3.9 h -0.25 l -2.55,0.3 -0.45,0.15 m -13.3,-3.15 10.7,0.05 h 0.15 -0.15 l -10.7,-0.05 m -28.7,4.75 0.5,-0.05 2.6,-0.15 8.75,0.1 h 0.15 q 6.2,0.5 9.3,2 3.7,1.75 6.25,2.15 h 5.75 q 2.6,-0.25 4.75,-2.1 L 28,-6.6 q 1.65,-1.4 1.9,-2.5 l 0.05,-0.4 -0.25,-1.25 q -0.5,-0.6 -1.95,-0.7 H 26.45 25.6 L 22.65,-11.5 H 18.6 l -4.1,0.2 h -3 l 0.2,0.05 1.55,0.35 7.7,2 0.15,0.05 2.7,0.5 -0.65,0.25 -3.15,0.15 -1,-0.1 -5.2,-0.9 -3.65,-0.5 -2.6,-0.45 -1.65,-0.25 -6.05,-0.95 -4.75,0.15 -4.6,0.15 H -11 l 0.25,0.4 0.05,0.15 0.45,1.4 0.1,0.4 m -2.2,25.55 -1.6,-1.75 1.6,1.75 1.05,1.15 q 2.25,0.45 3.95,2.1 1.7,1.75 2.35,4.25 l 0.05,0.3 0.85,-0.15 q 0.9,-0.5 0.7,-1 -0.65,-1.75 -0.3,-2.5 1.25,0.35 1.85,3.15 1.6,0.05 3.35,0.85 -1,-3.6 -2.85,-6.05 -2,-2.65 -6.2,-5.7 l -2.6,0.65 q -0.7,0.1 -1.55,1.6 l -0.65,1.35 m 3.6,5.8 -0.05,-0.15 q -0.15,-1.7 -2.5,-4.5 2.35,2.8 2.5,4.5 l 0.05,0.15 0.05,0.6 0.55,0.2 L -8.2,23.45 -8.75,22.9 M 34.6,-5.95 q 0.4,0.75 0.4,2.15 0,0.9 0.45,1.6 L 35.9,-1.4 35.8,-1 H 35.65 Q 34.9,-1.15 34.55,-1.75 L 34.5,-1.7 q -0.6,1 -1.65,0.5 l 1.35,-2.1 v -0.5 q 0,-1.6 0.4,-2.15 M 37,0.9 36.95,1 l 0.2,0.7 -0.7,1.9 q -0.75,1.9 -0.75,3.15 0,1.35 0.85,3.35 L 36.5,10.55 Q 35.55,10.1 35.15,9.35 l -0.9,2.15 Q 33.65,11.05 33.7,10.6 L 34.15,9.05 Q 34.55,7.7 34.55,6.4 L 34.25,3.65 33.95,1.7 34.05,1 h 0.55 l 0.65,1.7 Q 35.7,0.8 36.65,0.85 L 37,0.9 m -0.45,14.8 q -0.85,1.95 -0.85,3.3 0,1.25 0.75,3.25 l 0.7,1.9 -0.2,0.7 0.05,0.1 -0.35,0.05 q -0.95,-0.05 -1.4,-1.95 l -0.65,1.7 h -0.55 l -0.1,-0.7 0.3,-1.95 0.3,-2.75 q 0,-1.3 -0.4,-2.7 l -0.45,-1.5 q -0.05,-0.5 0.55,-0.9 l 0.9,2.15 q 0.4,-0.75 1.35,-1.1 l 0.05,0.4 M 20.1,35.4 v -0.15 q 0.2,-0.8 0.8,-1.15 l -0.05,-0.05 q -1.1,-0.6 -0.5,-1.65 l 2.35,1.35 0.5,0.05 2.25,0.3 0.25,0.15 -0.15,0.05 -2.35,0.35 Q 22.25,34.6 21.45,35 L 20.5,35.45 20.1,35.4 M 14.9,36 q -2.2,-0.8 -3.55,-0.8 -1.6,0 -3.8,0.8 l -0.5,-0.05 q 0.45,-1 1.35,-1.4 L 5.95,33.7 q 0.5,-0.65 1,-0.6 l 1.75,0.45 3.05,0.5 3.1,-0.25 2.2,-0.3 0.75,0.05 v 0.6 l -1.9,0.65 q 2.15,0.45 2.15,1.4 L 17.95,36.55 17.85,36.5 17.1,36.7 14.9,36 M 0.4,34.5 q 0.85,0.4 1.3,1.4 l -0.5,0.05 q -2,-0.8 -3.4,-0.9 h -0.35 q -1.4,0 -3.6,0.7 l -2.15,0.7 -0.8,-0.2 -0.1,0.05 -0.1,-0.35 q 0,-0.95 2.15,-1.4 l -1.9,-0.65 v -0.6 l 0.8,-0.05 2.2,0.3 3.1,0.35 1.9,-0.15 L 0.1,33.5 1.8,33.05 Q 2.35,33 2.85,33.65 1.3,34.1 0.4,34.5 m -20.05,-10.2 1.05,0.6 1.05,0.6 0.15,0.1 -0.15,1.05 -0.05,0.4 0.05,-0.4 0.15,-1.05 -0.15,-0.1 -1.05,-0.6 -1.05,-0.6 -1.25,-1.1 -0.5,-0.75 -0.75,-1 -0.15,0.6 -0.7,1.45 -0.2,-1.25 -0.65,-3.4 -1.55,-0.2 -1.35,0.5 -1.3,-0.05 -1.6,0.1 q -0.55,0.15 -0.55,1.15 v 0.55 q 1.25,1.35 3.15,2.6 2.35,1.65 3.8,3.5 0.95,-1.1 2.3,-1.9 l 1.3,-0.65 V 24.3 M -24.8,13.5 -24,12.95 q -0.25,1.7 -0.1,3.25 0.25,2.35 0.7,3.25 l 1.25,2 -1.25,-2 q -0.45,-0.9 -0.7,-3.25 -0.15,-1.55 0.1,-3.25 l -0.8,0.55 -1.7,0.65 -4.25,-0.15 q -1.15,0.65 -1.55,1.05 -0.8,0.7 -0.5,1.65 l 0.6,1.5 q 0.4,-0.85 1.25,-1.05 l 2.5,-0.05 2.55,0.05 q 0.85,-0.25 1.45,-1.5 l -0.2,-1.05 -0.15,-1.1 M -32.45,12 q 0.3,1 1.2,1.65 l 0.5,0.35 -0.5,-0.35 Q -32.15,13 -32.45,12 l -0.05,-0.2 q -0.45,-1.7 -0.25,-2.55 0.2,-1.25 1.5,-1.95 L -31.4,7.15 -32.05,5.05 -32.3,3.4 q -0.05,-1.65 0.75,-2.9 1.15,-1.65 3.4,-2.05 l 0.95,-0.1 q 1.6,-0.15 3.1,0.6 1.7,0.9 2.4,2.65 h 0.05 q 1.35,-0.25 2.3,-0.85 l 0.05,-0.15 1.1,-2.2 -0.9,-0.75 q -1.25,-1.2 -1.35,-2.8 l -1.6,-1.05 q -2.4,-0.3 -4.55,-0.05 l -2.8,0.4 q -3.8,1.1 -5.1,2.8 l -0.95,0.9 Q -39.4,1.9 -40.8,9.3 q -0.35,1.85 0.1,5.65 0.5,4.05 1.35,5.35 0.7,1 3.95,2.9 2.9,1.75 3.9,2.45 l 0.4,0.3 2.8,2 3.4,2 0.1,-0.3 q -2.05,-3.05 -2.7,-3.45 l -3.05,-1.9 q -1.4,-0.8 -2.7,-2.35 -2.6,-3.15 -2.15,-6.15 0.35,-2.2 1.75,-2.95 l 1.2,-0.85 m 12.5,-20.2 0.05,0.05 q -0.55,1.4 -0.55,2.75 v 0.25 -0.25 q 0,-1.35 0.55,-2.75 l -0.05,-0.05 m 55.85,35.35 -0.45,0.8 Q 35,28.65 35,29.5 q 0,1.45 -0.4,2.2 -0.4,-0.55 -0.4,-2.2 v -0.45 l -1.35,-2.1 q 1.05,-0.5 1.65,0.5 l 0.05,0.05 q 0.35,-0.6 1.1,-0.75 h 0.15 l 0.1,0.4 m -61.55,-68.35 -0.15,0.05 0.1,-0.25 0.05,0.2 M -26.7,-0.05 H -27 Q -28.35,0.3 -29.15,1 L -29.7,1.55 -30.05,2 -30.4,2.85 q -0.3,1.05 0,2 0.2,0.7 0.75,0.95 l 2.05,1.1 0.45,0.25 -0.4,0.65 -0.2,0.15 -0.6,0.2 -0.1,0.05 -0.75,0.1 -1,-0.2 -0.15,0.1 -0.2,0.15 -0.2,0.15 -0.35,0.65 q -0.2,0.65 0,1.4 l 0.1,0.25 0.95,0.85 0.85,0.35 2.15,-0.1 0.5,-0.15 1.25,-1.1 0.45,-0.45 2.05,-2.15 0.35,-1.4 0.05,-0.6 L -22.35,4.2 -22.4,4 Q -22.55,3.25 -23.45,2.1 L -23.9,1.55 q -1.55,-1.7 -2.8,-1.6 m 17.1,-21.05 0.3,0.1 -0.25,0.05 -0.05,-0.15 m -9.05,10.5 v 0.4 l 1.45,1.9 0.1,0.15 q 1.45,1.9 1.65,3.85 0.05,0.4 -0.2,1.25 l -0.8,2.3 -1.15,2.65 -0.05,0.1 -1.2,2.55 -1.8,4.2 -1.05,3.4 -0.3,1.75 -0.05,1.25 v 0.55 l 0.5,2.25 0.4,1.05 q 0.65,1.3 1.7,2.25 l 0.95,0.75 0.65,0.45 1,0.9 0.2,0.1 0.05,0.15 q 0.8,0.7 1.1,1.35 l 0.3,0.9 0.05,0.6 q 0.1,1.8 -0.25,3.3 Q -16,29.6 -16.15,28.3 V 28 q -0.15,1.15 -0.8,2.5 l -0.95,2.7 q 0.05,0.5 0.85,1.15 L -16,35 l 1.75,-0.5 0.2,-0.25 0.6,-1.05 1,-2 0.5,-1.3 0.2,-0.6 0.45,-1.85 q 0.2,-1.2 0.1,-2.25 -0.1,-1.2 -1.25,-2.9 l -2.3,-2.8 -1.35,-1.55 q -1.3,-1.6 -1.8,-2.75 L -18.3,14 v -0.7 -0.1 l -0.1,-0.2 -0.4,-1 v -0.05 l -0.05,-3.7 Q -18.6,7 -17.4,4.85 l 0.4,-0.7 0.8,0.05 -0.7,1.25 -0.35,0.95 -0.3,1.85 -0.2,1.25 0.3,-0.7 0.4,-0.6 2.25,-3 q 1.2,-1.5 1.95,-3.3 l 0.65,-1.85 q 0.3,-1.15 0.45,-2.35 l 0.15,-1.4 0.05,-1.5 -0.05,-1 -0.1,-1.25 -0.15,-0.9 -0.1,-0.25 -0.7,-1.55 -0.45,-0.65 -0.35,-0.4 -0.9,-1.1 -0.65,-1.05 -1.05,0.3 -1.4,0.5 -0.4,0.25 q -0.75,0.6 -0.8,1.65 v 0.05 m 5.75,-3.1 0.95,1.4 0.95,1.5 -0.95,-1.5 -0.95,-1.4 m -1.85,1.4 0.3,0.55 q 0.05,0.3 -0.4,0.95 l -0.1,0.15 q -0.6,0.8 -1.15,0.95 l -0.3,0.1 q -1.15,0.15 -1,-0.95 -0.1,-1.25 1.4,-1.7 l 0.2,-0.05 q 0.7,-0.2 1.05,0 m -3.15,6.55 -1.05,-1.35 -0.95,-1.05 0.95,1.05 1.05,1.35 -0.05,0.5 q 0,0.55 0.55,1.1 l -0.5,-1.6 m -0.3,4.15 q 0.9,-1.9 0.85,-2.05 l -0.05,-0.5 0.05,0.5 q 0.05,0.15 -0.85,2.05 m 8.5,16.65 q 1.85,-0.8 2.15,0.4 0.45,1.6 -1.9,2.2 -1.4,0.35 -1.7,-0.7 -0.3,-1.05 1.45,-1.9 m -11.45,-11.4 -0.3,-1.3 -0.25,-0.75 0.25,0.75 0.3,1.3 0.1,0.65 0.15,-0.4 0.2,-0.4 -0.45,0.15 m 1.8,-2.9 -1.35,2.75 1.35,-2.75 M -24,12.95 q 0.3,-2.15 1.2,-4.65 l 1.75,-4 -1.75,4 q -0.9,2.5 -1.2,4.65 m -6.7,17.6 -0.25,0.4 q -1.9,3.2 -1.25,5.6 0.6,2.25 4.6,3.5 l 6.55,0.7 Q -25.5,38 -25.5,33.9 l 0.05,-1.05 q -2.15,-0.55 -5.25,-2.3 l -3.2,-1.95 3.2,1.95 m 19.35,4.15 -0.35,0.4 0.35,-0.4"
         fill="#6b6b6b"
         fill-rule="evenodd"
         stroke="none"
         id="path30" />
      <path
         d="m -12.8,-13.75 v 0.05 h -0.1 v -0.05 h 0.1 m 34.35,-2 0.25,-0.95 3.8,-0.35 q 3.85,0.2 4.55,1.45 l -0.3,0.4 -0.65,0.25 -3.75,-0.15 -3.9,-0.65 m -45.9,2.1 3.3,-0.05 H -19 l -1,1.25 -3.55,-0.1 q -0.85,-0.05 -0.85,-0.7 l 0.05,-0.4 M 12.7,-22.1 q -0.9,1.45 -5.7,2.65 l -0.6,-0.1 q -0.1,0.05 -0.1,-0.55 0,-0.5 2.8,-1.5 2.85,-0.95 3.55,-0.75 l 0.05,0.25 m -8.65,7.05 -0.1,-0.1 v -0.35 q 0,-0.4 0.75,-0.5 0.85,-0.15 1.45,0.3 l -0.6,0.45 -0.95,0.3 -0.55,-0.1 m -2.8,0.35 q 0,0.3 -1.8,0.85 l -2.45,0.5 q -0.8,0 -1.7,-0.45 l 2.7,-1 3.05,-0.35 0.1,0.05 0.1,0.4 m -0.4,5.15 -1.55,-0.05 -0.35,-0.1 -0.1,-0.45 q 0,-0.95 3.3,0.05 l -0.1,0.4 -1.2,0.15 M -9.5,-5 h 0.25 l 1.55,0.3 0.1,0.15 q -0.65,0.75 -1.65,0.9 L -9.5,-5 m 23.3,-3.95 5.2,0.9 -0.9,0.35 -0.85,0.2 q -2.2,0 -3.2,-0.45 l -0.95,-0.7 0.7,-0.3 m 8.85,-2.55 2.95,0.05 2,0.1 0.6,0.05 0.15,0.1 0.05,0.3 -0.25,0.55 -1.55,0.05 H 24.85 24.3 l -1.15,-0.15 -1.5,-0.2 q -0.1,0.25 -0.1,-0.25 0,-0.5 1.1,-0.6 m 7.95,7.25 q 1.4,0.05 1.4,1.75 0,2 -1.5,1.25 -1.55,-0.7 -1.55,-1.7 0.4,-1.3 1.65,-1.3 m 1,12.15 q 0,1.05 -1.1,0.95 -1.1,0 -1.1,-1.05 -0.15,-1.05 1.1,-1.05 1.1,0.05 1.1,1.15 m 0,9.95 q 0,1.1 -1.1,1.05 -1.25,0 -1.1,-1.05 0,-1.05 1.1,-1.05 1.1,0 1.1,1.05 m -22.7,12 q 0,-1.1 1.15,-1.05 1.2,-0.15 1.2,1.1 Q 11.25,31 10,31 8.85,30.95 8.9,29.85 M 22.25,28.5 q 1.45,0.4 1.45,1.65 0,1.45 -1.9,1.4 -2.3,0 -1.45,-1.55 0.75,-1.5 1.9,-1.5 M -32.3,3.4 -33.2,3.55 q -1.6,-0.2 -1.5,-1.4 0.7,-3.65 4.35,-5.1 3.65,-1.4 3.15,1.2 v 0.1 l -0.95,0.1 q -2.25,0.4 -3.4,2.05 -0.8,1.25 -0.75,2.9 M -30.05,2 -29.7,1.55 -29.15,1 q 0.8,-0.7 2.15,-1.05 h 0.3 q 0.85,0.3 1.2,1.55 0.1,0.5 -0.35,1.2 -0.5,0.9 -1.55,1.15 l -2.05,-0.2 -0.5,-0.65 -0.1,-1 m -0.5,6.35 0.2,-0.15 0.15,-0.1 1,0.2 0.75,-0.1 -0.15,0.55 -0.45,0.5 -0.2,0.05 -0.5,0.1 -0.5,-0.15 -0.3,-0.8 v -0.1 m 20.3,-17.2 -0.45,-1.4 -0.05,-0.15 q 3.6,-0.3 4.65,0.5 -1.25,0.6 -4.15,1.05 m -4.2,2 0.35,0.7 0.35,0.55 0.4,0.65 0.05,0.4 -0.05,0.65 -0.25,0.6 -0.4,0.75 -0.6,0.65 h -0.15 l 0.2,-0.8 0.1,-0.75 0.05,-0.7 -0.3,-0.5 -0.35,-0.55 q -0.1,-1.1 0.25,-1.45 l 0.35,-0.2 m 8.5,2.55 -0.15,-0.2 0.35,-0.3 0.5,-0.25 0.1,0.2 0.1,0.3 v 0.15 l -0.5,0.35 -0.4,-0.25 M -18.9,17.35 q -0.2,0.55 -0.55,0.65 l -1.45,-0.25 -0.8,-1.05 q -0.2,-1.7 0.05,-2.85 l 0.3,-1 0.6,-2.35 q 1.4,1 1.3,1.8 l -0.35,1.95 q 0.05,0.8 0.6,1.4 l 0.45,0.8 -0.15,0.9 m 1.4,2.95 -0.35,0.2 -0.3,0.15 q -0.95,-0.35 -1,-0.65 l 0.3,-0.7 q 0.35,-0.4 0.95,-0.35 h 0.25 l 0.1,0.2 0.1,0.4 -0.05,0.75 m -18.3,-12.65 0.1,0.7 -0.3,0.7 -0.85,0.15 -0.6,-0.9 0.3,-0.65 q 0.35,-0.35 1.35,0 m 33.35,22.1 q 0,-1.25 1.15,-1.1 1.2,0.05 1.2,1.15 0.05,1.1 -1.15,1.05 -1.2,0 -1.2,-1.1"
         fill="#ffffff"
         fill-rule="evenodd"
         stroke="none"
         id="path31" />
      <path
         d="m 27.35,-3.95 q 1.95,-0.95 3,-2.15 1.4,-1.55 1.5,-3.95 l 0.45,-0.15 2.55,-0.3 h 0.25 q 3.1,0.05 4.75,3.9 1,2.45 1,4.2 0,1.05 -0.65,2.4 l -0.8,-0.1 q -0.8,0 -0.8,0.95 l 0.8,1 q 0.05,0.65 0.55,0.95 l 0.25,0.05 0.3,0.45 q 1.8,2.55 1.8,4.55 0,1.85 -0.45,2.65 l -1.5,1.85 -0.4,0.4 -0.85,0.2 q -0.4,0.1 -0.55,0.3 L 38.5,13.5 h 1.85 l 1.5,1.95 q 0.45,0.8 0.45,2.65 0,2 -1.8,4.45 l -0.3,0.4 -0.25,0.1 q -0.5,0.3 -0.55,0.9 l -0.8,1 q 0,1 0.8,1 l 0.8,-0.1 q 0.65,1.45 0.65,2.5 0,1.75 -1,4.1 -1.65,3.85 -4.75,3.8 l -1,-0.05 0.2,-1.65 q 0,-4.4 -2.35,-7.05 -0.2,-0.75 -0.75,-0.75 l -1.5,-1.1 -0.35,-0.2 0.05,-0.1 0.75,0.05 q 1.5,0.05 1.5,-0.9 L 29.6,22.35 q -2,-2 -2,-4.1 0,-1.8 1.55,-4 l 0.55,-0.85 2,0.05 -0.45,-0.6 -0.05,-0.05 q -0.55,-0.35 -1.25,-0.35 h -0.1 L 29.7,12.25 29.15,11.4 q -1.55,-2.2 -1.55,-4 0,-2.1 2,-4.1 l 2.05,-2.05 q 0,-0.95 -1.5,-1 L 29.4,0.3 28.75,-0.5 Q 27.3,-2.2 27.3,-3.45 l 0.05,-0.5 M 11.3,41.75 H 8.75 l -1.6,-0.4 -2.1,-1.5 v -1.9 L 4.75,38 Q 4.5,38.15 4.4,38.5 l -0.2,0.9 -0.5,0.4 -2.1,1.5 -3.05,0.4 q -1.7,0 -3.65,-1.05 L -6.5,39.8 -7,39.5 -7.1,39.3 q -0.3,-0.55 -1,-0.6 l -0.5,-0.35 -0.65,-0.4 q -1.05,-0.05 -1.05,0.7 v 0.15 l 0.1,0.7 -2.8,0.65 -1.85,-0.2 -2.85,-0.85 q -4.2,-1.65 -4.35,-4.65 V 34.2 q 0,-4.7 3.35,-6.65 l 0.4,-0.2 0.7,-0.3 q -0.55,2.15 -1.7,3.9 -0.8,1.25 -0.65,3.15 0.1,1.15 0.85,1.95 1.4,1.55 4.55,0.75 1.8,-0.45 2.85,-1.7 l 0.4,-0.05 V 34.9 l -0.05,-0.2 0.25,-0.45 0.4,-0.75 q 0.9,-1.05 1.4,-2.75 l 0.55,0.15 2.35,-2.05 q 2.25,-2.05 4.65,-2.05 1.65,0.05 3.65,1.1 l 0.9,0.55 q 0.55,0.3 0.9,0.55 l 0.25,0.15 v 0.1 q 0,0.75 0.4,1.25 l 0.05,0.05 0.15,0.2 0.5,0.35 V 29.05 L 6,28.5 q 2.5,-1.6 4.5,-1.55 2.4,0 4.65,2.15 l 2.4,2.05 q 1.05,0.05 1.05,-1.5 l -0.05,-0.75 0.9,-0.65 Q 21.4,26.8 22.8,26.8 l 2.25,0.3 q 1.35,0.3 2.45,0.95 h 0.05 q 3.3,2 3.3,6.7 v 0.6 q -0.25,1.55 -1.6,2.7 -1.1,0.85 -2.8,1.5 -2.7,1 -4.65,0.95 L 19,39.85 19.1,39 q 0,-0.75 -1.1,-0.8 l -1.1,0.75 q -0.7,0.05 -1.05,0.6 l -0.1,0.2 -0.5,0.3 q -2.15,1.4 -3.95,1.7 m 23.3,-47.7 q -0.4,0.55 -0.4,2.15 v 0.5 l -1.35,2.1 q 1.05,0.5 1.65,-0.5 l 0.05,-0.05 q 0.35,0.6 1.1,0.75 h 0.15 l 0.1,-0.4 -0.45,-0.8 Q 35,-2.9 35,-3.8 35,-5.2 34.6,-5.95 m -4,1.7 q -1.25,0 -1.65,1.3 0,1 1.55,1.7 Q 32,-0.5 32,-2.5 32,-4.2 30.6,-4.25 M 37,0.9 36.65,0.85 Q 35.7,0.8 35.25,2.7 L 34.6,1 h -0.55 l -0.1,0.7 0.3,1.95 0.3,2.75 q 0,1.3 -0.4,2.65 L 33.7,10.6 q -0.05,0.45 0.55,0.9 l 0.9,-2.15 q 0.4,0.75 1.35,1.2 L 36.55,10.1 Q 35.7,8.1 35.7,6.75 35.7,5.5 36.45,3.6 L 37.15,1.7 36.95,1 37,0.9 m -5.4,7 q 0,-1.1 -1.1,-1.15 -1.25,0 -1.1,1.05 0,1.05 1.1,1.05 1.1,0.1 1.1,-0.95 m 4.95,7.8 -0.05,-0.4 q -0.95,0.35 -1.35,1.1 l -0.9,-2.15 q -0.6,0.4 -0.55,0.9 l 0.45,1.5 q 0.4,1.4 0.4,2.7 l -0.3,2.75 -0.3,1.95 0.1,0.7 h 0.55 l 0.65,-1.7 q 0.45,1.9 1.4,1.95 l 0.35,-0.05 -0.05,-0.1 0.2,-0.7 -0.7,-1.9 q -0.75,-2 -0.75,-3.25 0,-1.35 0.85,-3.3 m -4.95,2.15 q 0,-1.05 -1.1,-1.05 -1.1,0 -1.1,1.05 -0.15,1.05 1.1,1.05 1.1,0.05 1.1,-1.05 M 14.9,36 l 2.2,0.7 0.75,-0.2 0.1,0.05 0.1,-0.35 q 0,-0.95 -2.15,-1.4 l 1.9,-0.65 v -0.6 l -0.75,-0.05 -2.2,0.3 -3.1,0.25 L 8.7,33.55 6.95,33.1 q -0.5,-0.05 -1,0.6 l 2.45,0.85 q -0.9,0.4 -1.35,1.4 L 7.55,36 q 2.2,-0.8 3.8,-0.8 1.35,0 3.55,0.8 m 5.2,-0.6 0.4,0.05 0.95,-0.45 q 0.8,-0.4 1.75,-0.35 L 25.55,34.3 25.7,34.25 25.45,34.1 23.2,33.8 22.7,33.75 20.35,32.4 q -0.6,1.05 0.5,1.65 l 0.05,0.05 q -0.6,0.35 -0.8,1.15 V 35.4 M 8.9,29.85 q -0.05,1.1 1.1,1.15 1.25,0 1.25,-1.1 0,-1.25 -1.2,-1.1 Q 8.9,28.75 8.9,29.85 M 0.4,34.5 Q 1.3,34.1 2.85,33.65 2.35,33 1.8,33.05 l -1.7,0.45 -1.15,0.25 -1.9,0.15 -3.1,-0.35 -2.2,-0.3 -0.8,0.05 v 0.6 l 1.9,0.65 Q -9.3,35 -9.3,35.95 l 0.1,0.35 0.1,-0.05 0.8,0.2 2.15,-0.7 q 2.2,-0.7 3.6,-0.7 h 0.35 q 1.4,0.1 3.4,0.9 L 1.7,35.9 Q 1.25,34.9 0.4,34.5 M -19.65,24.3 v 0.15 l -1.3,0.65 q -1.35,0.8 -2.3,1.9 -1.45,-1.85 -3.8,-3.5 -1.9,-1.25 -3.15,-2.6 v -0.55 q 0,-1 0.55,-1.15 l 1.6,-0.1 1.3,0.05 1.35,-0.5 1.55,0.2 0.65,3.4 0.2,1.25 0.7,-1.45 0.15,-0.6 0.75,1 0.5,0.75 1.25,1.1 m -5.15,-10.8 0.15,1.1 0.2,1.05 q -0.6,1.25 -1.45,1.5 l -2.55,-0.05 -2.5,0.05 q -0.85,0.2 -1.25,1.05 l -0.6,-1.5 q -0.3,-0.95 0.5,-1.65 0.4,-0.4 1.55,-1.05 l 4.25,0.15 1.7,-0.65 m 60.7,13.65 -0.1,-0.4 H 35.65 Q 34.9,26.9 34.55,27.5 L 34.5,27.45 q -0.6,-1 -1.65,-0.5 l 1.35,2.1 v 0.45 q 0,1.65 0.4,2.2 0.4,-0.75 0.4,-2.2 0,-0.85 0.45,-1.55 l 0.45,-0.8 M 22.25,28.5 q -1.15,0 -1.9,1.5 -0.85,1.55 1.45,1.55 1.9,0.05 1.9,-1.4 0,-1.25 -1.45,-1.65 m -24.7,1.25 q 0,1.1 1.2,1.1 1.2,0.05 1.15,-1.05 0,-1.1 -1.2,-1.15 -1.15,-0.15 -1.15,1.1"
         fill="#abaa99"
         fill-rule="evenodd"
         stroke="none"
         id="path32" />
      <path
         d="m -12.35,17.1 0.65,-1.35 q 0.85,-1.5 1.55,-1.6 l 2.6,-0.65 q 4.2,3.05 6.2,5.7 1.85,2.45 2.85,6.05 -1.75,-0.8 -3.35,-0.85 -0.6,-2.8 -1.85,-3.15 -0.35,0.75 0.3,2.5 0.2,0.5 -0.7,1 L -4.95,24.9 -5,24.6 q -0.65,-2.5 -2.35,-4.25 -1.7,-1.65 -3.95,-2.1 l -1.05,-1.15 m -20.1,-5.1 -1.2,0.85 q -1.4,0.75 -1.75,2.95 -0.45,3 2.15,6.15 1.3,1.55 2.7,2.35 l 3.05,1.9 q 0.65,0.4 2.7,3.45 l -0.1,0.3 -3.4,-2 -2.8,-2 -0.4,-0.3 q -1,-0.7 -3.9,-2.45 -3.25,-1.9 -3.95,-2.9 -0.85,-1.3 -1.35,-5.35 -0.45,-3.8 -0.1,-5.65 1.4,-7.4 5.35,-11.45 l 0.95,-0.9 q 1.3,-1.7 5.1,-2.8 l 2.8,-0.4 q 2.15,-0.25 4.55,0.05 l 1.6,1.05 q 0.1,1.6 1.35,2.8 l 0.9,0.75 -1.1,2.2 -0.05,0.15 q -0.95,0.6 -2.3,0.85 h -0.05 q -0.7,-1.75 -2.4,-2.65 -1.5,-0.75 -3.1,-0.6 v -0.1 q 0.5,-2.6 -3.15,-1.2 -3.65,1.45 -4.35,5.1 -0.1,1.2 1.5,1.4 l 0.9,-0.15 0.25,1.65 0.65,2.1 0.15,0.15 q -1.3,0.7 -1.5,1.95 -0.2,0.85 0.25,2.55 l 0.05,0.2 m 13.8,-22.65 q 0.05,-1.05 0.8,-1.65 l 0.4,-0.25 1.4,-0.5 1.05,-0.3 0.65,1.05 0.9,1.1 0.35,0.4 0.45,0.65 0.7,1.55 0.1,0.25 0.15,0.9 0.1,1.25 0.05,1 -0.05,1.5 -0.15,1.4 q -0.15,1.2 -0.45,2.35 l -0.65,1.85 q -0.75,1.8 -1.95,3.3 l -2.25,3 -0.4,0.6 -0.3,0.7 0.2,-1.25 0.3,-1.85 0.35,-0.95 0.7,-1.25 -0.8,-0.05 -0.4,0.7 q -1.2,2.15 -1.45,3.4 l 0.05,3.7 V 12 l 0.4,1 0.1,0.2 v 0.1 0.7 l 0.4,1.2 q 0.5,1.15 1.8,2.75 l 1.35,1.55 2.3,2.8 q 1.15,1.7 1.25,2.9 0.1,1.05 -0.1,2.25 l -0.45,1.85 -0.2,0.6 -0.5,1.3 -1,2 -0.6,1.05 -0.2,0.25 -1.75,0.5 -1.05,-0.65 q -0.8,-0.65 -0.85,-1.15 l 0.95,-2.7 q 0.65,-1.35 0.8,-2.5 v 0.3 q 0.15,1.3 0.75,1.45 0.35,-1.5 0.25,-3.3 l -0.05,-0.6 -0.3,-0.9 q -0.3,-0.65 -1.1,-1.35 l -0.05,-0.15 -0.2,-0.1 -1,-0.9 L -18.5,22 -19.45,21.25 Q -20.5,20.3 -21.15,19 l -0.4,-1.05 -0.5,-2.25 v -0.55 l 0.05,-1.25 0.3,-1.75 1.05,-3.4 1.8,-4.2 1.2,-2.55 0.05,-0.1 1.15,-2.65 0.8,-2.3 q 0.25,-0.85 0.2,-1.25 -0.2,-1.95 -1.65,-3.85 l -0.1,-0.15 -1.45,-1.9 v -0.4 -0.05 m 3.9,-1.65 q -0.35,-0.2 -1.05,0 l -0.2,0.05 q -1.5,0.45 -1.4,1.7 -0.15,1.1 1,0.95 l 0.3,-0.1 q 0.55,-0.15 1.15,-0.95 l 0.1,-0.15 q 0.45,-0.65 0.4,-0.95 l -0.3,-0.55 m 0.3,5.45 -0.35,0.2 q -0.35,0.35 -0.25,1.45 l 0.35,0.55 0.3,0.5 -0.05,0.7 -0.1,0.75 -0.2,0.8 h 0.15 l 0.6,-0.65 0.4,-0.75 0.25,-0.6 0.05,-0.65 -0.05,-0.4 -0.4,-0.65 -0.35,-0.55 -0.35,-0.7 m -3.05,27.15 0.05,-0.75 -0.1,-0.4 -0.1,-0.2 h -0.25 q -0.6,-0.05 -0.95,0.35 l -0.3,0.7 q 0.05,0.3 1,0.65 l 0.3,-0.15 0.35,-0.2 m -1.4,-2.95 0.15,-0.9 -0.45,-0.8 q -0.55,-0.6 -0.6,-1.4 l 0.35,-1.95 q 0.1,-0.8 -1.3,-1.8 l -0.6,2.35 -0.3,1 Q -21.9,15 -21.7,16.7 l 0.8,1.05 1.45,0.25 q 0.35,-0.1 0.55,-0.65 m 9.2,-2.3 q -1.75,0.85 -1.45,1.9 0.3,1.05 1.7,0.7 2.35,-0.6 1.9,-2.2 -0.3,-1.2 -2.15,-0.4 m -26.1,-7.4 q -1,-0.35 -1.35,0 l -0.3,0.65 0.6,0.9 0.85,-0.15 0.3,-0.7 -0.1,-0.7 m 10.35,25.2 -0.05,1.05 q 0,4.1 4.45,6.85 l -6.55,-0.7 q -4,-1.25 -4.6,-3.5 -0.65,-2.4 1.25,-5.6 l 0.25,-0.4 q 3.1,1.75 5.25,2.3"
         fill="#c5b1b1"
         fill-rule="evenodd"
         stroke="none"
         id="path33" />
      <path
         d="m -17.9,-5.75 0.5,1.6 q -0.55,-0.55 -0.55,-1.1 l 0.05,-0.5"
         fill="#dedede"
         fill-rule="evenodd"
         stroke="none"
         id="path34" />
      <path
         d="m -5.85,0.05 2.35,-0.1 -0.3,0.4 -2.05,-0.3"
         fill="#c6c6c6"
         fill-rule="evenodd"
         stroke="none"
         id="path35" />
      <path
         d="m -30.05,2 0.1,1 0.5,0.65 2.05,0.2 q 1.05,-0.25 1.55,-1.15 0.45,-0.7 0.35,-1.2 -0.35,-1.25 -1.2,-1.55 1.25,-0.1 2.8,1.6 l 0.45,0.55 q 0.9,1.15 1.05,1.9 l 0.05,0.2 -0.05,1.85 -0.05,0.6 -0.35,1.4 -2.05,2.15 -0.45,0.45 -1.25,1.1 -0.5,0.15 -2.15,0.1 -0.85,-0.35 -0.95,-0.85 -0.1,-0.25 q -0.2,-0.75 0,-1.4 l 0.35,-0.65 0.2,-0.15 v 0.1 l 0.3,0.8 0.5,0.15 0.5,-0.1 0.2,-0.05 0.45,-0.5 0.15,-0.55 0.1,-0.05 0.6,-0.2 0.2,-0.15 0.4,-0.65 -0.45,-0.25 -2.05,-1.1 q -0.55,-0.25 -0.75,-0.95 -0.3,-0.95 0,-2 L -30.05,2"
         fill="#b09f9f"
         fill-rule="evenodd"
         stroke="none"
         id="path36" />
      <path
         d="m -12.8,-13.7 2.55,0.4 7.65,0.2 2.6,0.2 4,-0.45 6.9,0.05 7.65,0.1 q 1.35,-0.65 2.15,-1.4 l 0.85,-1.15 0.25,-0.95 v -0.3 -0.35 l -0.4,-2.9 q -0.5,-1.8 -1.55,-2.85 -2.9,-2.95 -10,-1.3 l -5.9,1.7 -1.85,0.6 -2.55,0.85 q -5.6,1.8 -8.4,2.05 h -0.6 -7.05 l -3.75,0.25 q -1.4,0.25 -2.05,0.75 m -0.75,1.65 -0.05,0.2 -1.7,-0.1 h -0.6 q -2.65,0.1 -4.2,1.5 -1,0.95 -1.25,2.1 l -0.05,0.2 0.05,0.95 q 0.1,1.25 0.6,1.95 l 0.25,0.3 q 1.35,1.65 4.6,1.55 l 1.55,-0.15 3.9,-0.15 q -0.5,-0.7 -0.6,-1.5 v -0.5 q 0,-1.15 0.5,-2.1 l 0.05,-0.15 1,-1.25 1.75,-1.35 q 3.6,-2.05 3.8,0.2 v 0.05 l 0.55,1.05 v 0.05 h 0.1 m 3.7,11.45 Q -9,-1.1 -9.25,0.1 l 3.4,-0.05 2.35,-0.1 1.95,-0.1 9.45,-1.3 q 5.4,-1.1 6.7,-1.9 l 2.45,0.7 6.15,0.05 1.5,-0.4 2.65,-0.95 q 1.95,-0.95 3,-2.15 1.4,-1.55 1.5,-3.95 v -0.35 q 0,-0.95 -0.5,-1.65 l -0.15,-0.25 -0.8,-0.6 -1,-0.25 h -0.15 l -10.7,-0.05 m -28.7,4.75 0.45,2.1 v 0.15 l 0.2,1.2 0.25,1.35 0.15,1.4 m 30.5,-18 2.8,-0.35 q 5,-2.4 8.25,2.55 1.45,2.25 2.05,4.5 m 4.35,1.25 q 1.45,1 2.65,2.8 2,2.95 2,4.9 0,3.55 -0.3,4.55 l -0.8,1.8 0.95,1.85 q 0.9,2.45 0.9,4.1 l -0.1,1.9 q -0.1,0.9 -0.85,2.2 l -0.5,0.6 h 0.15 l -0.3,0.15 -0.35,0.45 0.35,0.4 0.3,0.15 H 42.8 l 0.5,0.55 q 0.75,1.35 0.85,2.25 l 0.1,1.9 q 0,1.65 -0.9,4.1 L 42.4,24.2 q 0.5,0.75 0.8,1.8 0.3,1 0.3,4.55 0,1.95 -2,4.9 -2.65,3.9 -6.65,3.85 l -2.3,-0.15 Q 31.5,40.3 29.8,41.3 L 29,41.75 H 11.3 8.75 -32.05 q -2.6,-1.7 -3.45,-4.85 -0.7,-2.7 0.8,-6.65 l 0.8,-1.65 -0.85,-0.55 q -7.4,-5 -8.5,-8.6 -1.3,-4.55 -1.15,-7.25 l 1.05,-6.35 q 0.4,-2.1 2.35,-5.45 1.75,-3.05 3.55,-5.1 l 2.15,-2.35 q 1.75,-1.5 4.9,-2.3 l 0.4,-0.1 m 16.05,24.8 1.6,1.75 1.05,1.15 q 2.35,2.8 2.5,4.5 l 0.05,0.15 0.05,0.6 q 0.2,3 -0.15,5.15 -0.15,1.15 -0.45,2.1 -0.5,1.7 -1.4,2.75 l -0.4,0.75 -0.25,0.45 -0.35,0.4 q -1.05,1.25 -2.85,1.7 -3.15,0.8 -4.55,-0.75 -0.75,-0.8 -0.85,-1.95 -0.15,-1.9 0.65,-3.15 1.15,-1.75 1.7,-3.9 l 0.05,-0.4 0.15,-1.05 -0.15,-0.1 -1.05,-0.6 -1.05,-0.6 -1.25,-1.1 -0.5,-0.75 -0.75,-1 -1.25,-2 q -0.45,-0.9 -0.7,-3.25 -0.15,-1.55 0.1,-3.25 l -0.8,0.55 -1.7,0.65 -4.25,-0.15 -0.5,-0.35 Q -32.15,13 -32.45,12 l -0.05,-0.2 q -0.45,-1.7 -0.25,-2.55 0.2,-1.25 1.5,-1.95 L -31.4,7.15 -32.05,5.05 -32.3,3.4 q -0.05,-1.65 0.75,-2.9 1.15,-1.65 3.4,-2.05 l 0.95,-0.1 q 1.6,-0.15 3.1,0.6 1.7,0.9 2.4,2.65 l 0.25,0.75 0.3,1.3 0.45,-0.15 1.35,-2.75 0.05,-0.15 1.1,-2.2 -0.9,-0.75 q -1.25,-1.2 -1.35,-2.8 V -5.4 q 0,-1.35 0.55,-2.75 l -0.05,-0.05 m 1.3,-2.4 v -0.05 m 7.9,0.25 0.05,0.15 0.45,1.4 0.1,0.4 m -0.6,-1.95 -0.25,-0.4 -0.95,-1.5 -0.95,-1.4 m -7,5.55 0.95,1.05 1.05,1.35 0.5,1.6 0.05,0.5 q 0.05,0.15 -0.85,2.05 m 8,4.3 1.75,-0.85 q 4.6,1.3 6.4,-0.75 l 0.5,-1.25 M -10.2,2.7 Q -9.55,1.45 -9.25,0.25 V 0.1 m -0.95,2.6 q -0.8,1.6 -2.15,3.25 -3.7,4.5 -3.4,7.4 l 1.8,2 m -7.1,-11.05 -0.1,-0.65 m 0.45,-0.15 -0.2,0.4 -0.15,0.4 -1.75,4 q -0.9,2.5 -1.2,4.65 m -1.45,19.9 q -2.15,-0.55 -5.25,-2.3 l -3.2,-1.95"
         fill="none"
         stroke="#6b6b6b"
         stroke-linecap="round"
         stroke-linejoin="round"
         stroke-width="1.5"
         id="path37" />
    </g>
  </defs>
</svg>
