<?xml version="1.0" encoding="UTF-8" standalone="no"?>
<svg
   ffdec:objectType="frame"
   height="14.5"
   width="25.6"
   version="1.1"
   id="svg13"
   sodipodi:docname="2.svg"
   xmlns:inkscape="http://www.inkscape.org/namespaces/inkscape"
   xmlns:sodipodi="http://sodipodi.sourceforge.net/DTD/sodipodi-0.dtd"
   xmlns:xlink="http://www.w3.org/1999/xlink"
   xmlns="http://www.w3.org/2000/svg"
   xmlns:svg="http://www.w3.org/2000/svg"
   xmlns:ffdec="https://www.free-decompiler.com/flash">
  <sodipodi:namedview
     id="namedview13"
     pagecolor="#ffffff"
     bordercolor="#000000"
     borderopacity="0.25"
     inkscape:showpageshadow="2"
     inkscape:pageopacity="0.0"
     inkscape:pagecheckerboard="0"
     inkscape:deskcolor="#d1d1d1"
     fit-margin-top="5"
     fit-margin-left="5"
     fit-margin-right="5"
     fit-margin-bottom="5" />
  <g
     transform="translate(12.8,7.25)"
     id="g1">
    <use
       ffdec:characterId="4111"
       height="15.8"
       transform="translate(-13.15,-8.45)"
       width="26.299999"
       xlink:href="#sprite0"
       id="use1" />
  </g>
  <defs
     id="defs13">
    <g
       id="sprite0"
       transform="translate(13.15,8.45)">
      <use
         ffdec:characterId="4110"
         height="14.5"
         transform="translate(-12.8,-7.25)"
         width="25.6"
         xlink:href="#sprite1"
         id="use2" />
    </g>
    <g
       id="sprite1"
       transform="translate(12.8,7.25)">
      <use
         ffdec:characterId="4109"
         height="14.5"
         transform="translate(-12.8,-7.25)"
         width="25.6"
         xlink:href="#shape0"
         id="use3" />
      <use
         ffdec:characterId="4108"
         height="2.0999999"
         transform="translate(-8.05,-2)"
         width="8"
         xlink:href="#sprite2"
         id="use4" />
      <use
         ffdec:characterId="3500"
         height="8"
         transform="matrix(0.4827,0.2363,0.2363,-0.4827,3.5983,0.755)"
         width="10.8"
         xlink:href="#sprite3"
         id="use5" />
    </g>
    <g
       id="shape0"
       transform="translate(12.8,7.25)">
      <path
         d="M 1.35,-2.8 1.3,-2.95 1.15,-3.15 0.7,-3.55 h -3.3 -2.8 -0.8 l -2.9,0.1 -0.5,0.35 0.05,0.25 v 0.05 h -1.35 l -0.05,-0.6 V -3.9 L -11,-4.4 v -0.05 l 0.15,-0.05 H 2.7 l 0.05,1.65 -1.4,0.05"
         fill="#9f9f9f"
         fill-rule="evenodd"
         stroke="none"
         id="path5" />
      <path
         d="m -9.55,-2.8 v -0.05 l -0.05,-0.25 0.5,-0.35 2.9,-0.1 h 0.8 2.8 3.3 l 0.45,0.4 0.15,0.2 0.05,0.15 0.1,2.8 V 0.75 L 1.25,1.3 0.7,1.7 H -9.1 L -9.6,1.2 V 1.1 L -9.7,-0.85 -9.55,-2.8 M 2.75,-2.85 2.7,-4.5 H -10.85 L -11,-4.45 v 0.05 l 0.05,0.5 v 0.5 L -10.9,-2.8 -11,0 v 2.9 l -0.1,1.45 H 2.8 l -0.05,-7.2 m 8.2,-0.4 V -3.4 -3.55 -3.6 -3.85 L 11,-4.45 10.85,-4.5 H 3.4 v 1.35 l -0.1,7.5 h 7.8 L 11,2.9 V 0 L 10.95,-3.25 M 0.5,-2.6 h -3.1 -3.6 v -0.05 l -2.65,-0.1 q 0.15,0.6 0.15,1.9 v 1.3 0.2 h 0.85 8.3 V -0.6 Q 0.4,-1.9 0.5,-2.6 M -8.4,-5.9 -6.15,-6 v -0.15 -0.2 h 0.1 q 0.2,-0.4 0.85,-0.4 h 1.9 q 0.45,0.15 0.45,0.5 V -6 H 6 l 3.85,0.15 q 2.45,0 2.45,0.75 V -5 5.45 l -0.55,0.4 H 10.9 V 6.1 q 0,0.65 -1.2,0.65 -1.1,0 -1.1,-0.65 L 8.65,5.85 H -8.8 V 5.9 q 0,0.85 -0.95,0.85 h -0.1 -0.1 L -10.5,6.65 -10.85,6.4 V 5.95 5.85 h -0.9 L -12.3,5.45 V -5 -5.1 q 0,-0.75 2.45,-0.75 l 1,-0.05 h -0.8 1.25 -0.45 0.45 m 6,8.95 q 0,0.6 -0.55,0.6 -0.55,0 -0.55,-0.6 0,-0.5 0.55,-0.5 0.55,0 0.55,0.5 m -3.55,-0.5 q 0.55,0 0.55,0.5 0,0.6 -0.55,0.6 -0.55,0 -0.55,-0.6 0,-0.5 0.55,-0.5 m -3,0 q 0.55,0 0.55,0.5 0,0.6 -0.55,0.6 -0.55,0 -0.55,-0.6 0,-0.5 0.55,-0.5 m 9.55,0.5 q 0,0.6 -0.55,0.6 -0.55,0 -0.55,-0.6 0,-0.5 0.55,-0.5 0.55,0 0.55,0.5"
         fill="#6b6b6b"
         fill-rule="evenodd"
         stroke="none"
         id="path6" />
      <path
         d="m 1.35,-2.8 1.4,-0.05 0.05,7.2 H -11.1 L -11,2.9 V 0 l 0.1,-2.8 h 1.35 l -0.15,1.95 0.1,1.95 v 0.1 l 0.5,0.5 H 0.7 L 1.25,1.3 1.45,0.75 V 0 L 1.35,-2.8 M 0.6,3.05 q 0,-0.5 -0.55,-0.5 -0.55,0 -0.55,0.5 0,0.6 0.55,0.6 0.55,0 0.55,-0.6 m -9.55,-0.5 q -0.55,0 -0.55,0.5 0,0.6 0.55,0.6 0.55,0 0.55,-0.6 0,-0.5 -0.55,-0.5 m 3,0 q -0.55,0 -0.55,0.5 0,0.6 0.55,0.6 0.55,0 0.55,-0.6 0,-0.5 -0.55,-0.5 m 3.55,0.5 q 0,-0.5 -0.55,-0.5 -0.55,0 -0.55,0.5 0,0.6 0.55,0.6 0.55,0 0.55,-0.6"
         fill="#8e8e8e"
         fill-rule="evenodd"
         stroke="none"
         id="path7" />
      <path
         d="M 3.4,-3.15 V -4.5 h 7.45 l 0.15,0.05 -0.05,0.6 v 0.25 0.05 0.15 0.15 L 10.55,-3.2 8.1,-3.1 H 3.6 L 3.4,-3.15"
         fill="#838383"
         fill-rule="evenodd"
         stroke="none"
         id="path8" />
      <path
         d="m 3.4,-3.15 0.2,0.05 h 4.5 l 2.45,-0.1 0.4,-0.05 L 11,0 v 2.9 l 0.1,1.45 H 3.3 l 0.1,-7.5"
         fill="#777777"
         fill-rule="evenodd"
         stroke="none"
         id="path9" />
      <path
         d="m 0.5,-2.6 q -0.1,0.7 -0.05,2 v 1.25 h -8.3 -0.85 v -0.2 -1.3 q 0,-1.3 -0.15,-1.9 l 2.65,0.1 v 0.05 h 3.6 3.1"
         fill="#d4d4d4"
         fill-rule="evenodd"
         stroke="none"
         id="path10" />
      <path
         d="M -8.4,-5.9 -6.15,-6 v -0.15 -0.2 h 0.1 q 0.2,-0.4 0.85,-0.4 h 1.9 q 0.45,0.15 0.45,0.5 V -6 H 6 l 3.85,0.15 q 2.45,0 2.45,0.75 V -5 5.45 l -0.55,0.4 H 10.9 V 6.1 q 0,0.65 -1.2,0.65 -1.1,0 -1.1,-0.65 L 8.65,5.85 H -8.8 V 5.9 q 0,0.85 -0.95,0.85 h -0.1 -0.1 L -10.5,6.65 -10.85,6.4 V 5.95 5.85 h -0.9 L -12.3,5.45 V -5 -5.1 q 0,-0.75 2.45,-0.75 l 1,-0.05 h -0.8 1.25 -0.45"
         fill="none"
         stroke="#6b6b6b"
         stroke-linecap="round"
         stroke-linejoin="round"
         stroke-width="1"
         id="path11" />
    </g>
    <g
       id="sprite2"
       transform="translate(3.8,1.2)">
      <use
         ffdec:characterId="4107"
         height="2.0999999"
         transform="translate(-3.8,-1.2)"
         width="8"
         xlink:href="#shape1"
         id="use11" />
    </g>
    <g
       id="shape1"
       transform="translate(3.8,1.2)">
      <path
         d="m 0,-0.8 h 0.2 l 0.15,0.1 v 0.25 Q 0.25,-0.2 0,-0.2 L -0.25,-0.6 0,-0.8 M 1.45,-1.2 H 1.5 q 0.6,0 0.75,0.9 Q 2.1,0.9 1.45,0.9 H 1.25 Q 0.85,0.9 0.7,0.4 L 0.6,0.15 V -0.1 q 0,-0.85 0.65,-1 l 0.2,-0.1 M 1.1,-0.3 v 0.1 q 0,0.5 0.15,0.5 h 0.1 q 0.4,-0.1 0.4,-0.75 L 1.5,-0.7 q -0.4,0 -0.4,0.4 m 2.25,-0.9 h 0.1 Q 4,-1.2 4.2,-0.3 4,0.9 3.35,0.9 H 3.2 Q 2.75,0.9 2.6,0.4 L 2.5,0.15 V -0.1 q 0,-0.85 0.7,-1 0,-0.1 0.15,-0.1 M 3,-0.3 v 0.1 L 3.2,0.3 H 3.25 Q 3.7,0.2 3.7,-0.45 L 3.45,-0.7 Q 3,-0.7 3,-0.3 M 0,0.15 q 0.25,0 0.35,0.15 V 0.4 L 0,0.65 -0.25,0.3 Q -0.25,0.15 0,0.15 M -3.25,-1.1 h 0.2 L -3,-1.05 v 0.25 q 0,1.2 0.2,1.2 l 0.05,0.15 v 0.1 Q -2.8,0.8 -3.05,0.8 h -0.2 L -3.8,0.55 -3.5,0.3 v -0.35 l 0.1,-0.5 -0.15,0.1 h -0.1 L -3.8,-0.6 v -0.2 q 0.3,-0.3 0.55,-0.3 m 1.95,-0.1 h 0.05 q 0.45,0 0.45,0.6 0,0.3 -0.5,0.9 0.75,0 0.75,0.35 L -0.75,0.9 -1.9,0.7 V 0.45 l 0.5,-0.9 0.1,-0.1 -0.1,-0.15 h -0.15 v 0.25 Q -1.65,-0.3 -1.8,-0.3 -2,-0.3 -2,-0.7 l 0.7,-0.5"
         fill="#8d6b6b"
         fill-rule="evenodd"
         stroke="none"
         id="path12" />
    </g>
    <g
       id="sprite3"
       transform="translate(5.4,4)">
      <use
         ffdec:characterId="43"
         height="8"
         transform="translate(-5.4,-4)"
         width="10.8"
         xlink:href="#shape2"
         id="use12" />
    </g>
    <g
       id="shape2"
       transform="translate(5.4,4)">
      <path
         d="m 2.9,-0.35 q 0,-1.25 1.25,-1.25 1.25,0 1.25,1.2 0,1.3 -1.25,1.3 Q 3.6,0.9 3.25,0.5 2.9,0.15 2.9,-0.35 m 0.35,-2.3 q 0,0.55 -0.35,0.9 -0.4,0.45 -1,0.45 -1.35,0 -1.35,-1.4 0,-1.3 1.35,-1.3 1.35,0 1.35,1.35 m -3.1,1.9 h 0.2 q 2.6,0.1 2.6,2.8 l -0.3,1 Q 2.05,4 0.45,4 H 0.35 0.15 0.1 -0.45 q -1.6,0 -2.2,-0.95 l -0.3,-1 q 0,-2.8 2.8,-2.8 h 0.3 M -1.55,-4 q 1.35,0 1.35,1.35 0,0.55 -0.4,0.9 -0.4,0.45 -0.95,0.45 -1.4,0 -1.4,-1.4 0,-1.3 1.4,-1.3 m -2.6,2.4 q 1.25,0 1.25,1.25 0,0.5 -0.35,0.85 -0.35,0.4 -0.9,0.4 -1.25,0 -1.25,-1.3 0,-1.2 1.25,-1.2"
         fill="#6b6b6b"
         fill-rule="evenodd"
         stroke="none"
         id="path13" />
    </g>
  </defs>
</svg>
