<?xml version="1.0" encoding="UTF-8" standalone="no"?>
<svg
   ffdec:objectType="frame"
   height="39.849998"
   width="32"
   version="1.1"
   id="svg10"
   sodipodi:docname="2.svg"
   xmlns:inkscape="http://www.inkscape.org/namespaces/inkscape"
   xmlns:sodipodi="http://sodipodi.sourceforge.net/DTD/sodipodi-0.dtd"
   xmlns:xlink="http://www.w3.org/1999/xlink"
   xmlns="http://www.w3.org/2000/svg"
   xmlns:svg="http://www.w3.org/2000/svg"
   xmlns:ffdec="https://www.free-decompiler.com/flash">
  <sodipodi:namedview
     id="namedview10"
     pagecolor="#ffffff"
     bordercolor="#000000"
     borderopacity="0.25"
     inkscape:showpageshadow="2"
     inkscape:pageopacity="0.0"
     inkscape:pagecheckerboard="0"
     inkscape:deskcolor="#d1d1d1"
     fit-margin-top="5"
     fit-margin-left="5"
     fit-margin-right="5"
     fit-margin-bottom="5" />
  <g
     transform="translate(16,19.9)"
     id="g3">
    <use
       ffdec:characterId="3973"
       height="39.849998"
       transform="translate(-16,-19.9)"
       width="32"
       xlink:href="#shape0"
       id="use1" />
    <use
       ffdec:characterId="3625"
       height="17.299999"
       transform="matrix(0.4675,0,0,0.4675,-10.1655,2.3129)"
       width="20.15"
       xlink:href="#sprite0"
       id="use2" />
    <use
       ffdec:characterId="3500"
       height="8"
       transform="matrix(-0.7502,0.6611,-0.6611,-0.7502,1.3957,-10.569)"
       width="10.8"
       xlink:href="#sprite1"
       id="use3" />
  </g>
  <defs
     id="defs10">
    <g
       id="shape0"
       transform="translate(16,19.9)">
      <path
         d="m -2.95,-17 h -0.1 l 3.55,-0.3 1.8,0.15 0.85,0.25 q 3.1,1.55 3.65,2.15 l 2.25,2.25 1.7,2.25 q 1.85,3.75 1.85,8.9 0,2.7 -1.1,5.55 l -0.4,1 -0.55,-0.9 Q 8.9,2 8.9,3.6 l 1.15,3.85 q 0,1.7 -3.7,3.65 0.75,0.75 2,0.75 L 9.5,11.75 Q 9.65,14 8.6,15.6 6.85,18.2 2.25,17.4 H 0.8 L 0.85,17.45 -0.6,17.4 h -0.2 -1.45 l -0.1,0.05 -2.15,0.15 q -2.8,-0.1 -4.1,-2 -1.05,-1.6 -0.9,-3.85 l 1.15,0.1 q 1.25,0 2,-0.75 -3.05,-1.6 -3.55,-3 l 0.55,0.05 q 0.55,0 1.2,-0.65 l 0.45,0.85 q 1.15,1.3 3.45,1.3 2.2,0 2.55,-2.8 0,-1.55 -0.8,-2.3 L -1.85,4 Q -1.5,3.55 -1.5,2.95 L -1.55,2.3 -1,2.95 0.05,5.05 0.2,4.95 0.3,5.05 0.25,5.55 0.3,6.3 Q 0.5,6.95 1.35,6.95 L 1.7,6.9 q 0.35,2.75 2.55,2.75 2.3,0 3.45,-1.3 L 8.4,7 Q 8.4,5.3 7.65,4.5 L 7.7,4.35 7.8,3.3 7.9,2.65 7.65,1.95 7.25,1.2 6.8,0.8 Q 6.1,0 3.4,0.3 0.9,0.6 0.2,2.2 -0.55,0.6 -3.05,0.3 -6.6,-0.1 -6.6,1.45 v 0.3 L -8.95,3.1 q -0.3,-0.6 -1.6,1.2 l -0.55,0.9 -0.4,-1 q -1.1,-2.85 -1.1,-5.55 0,-2.3 0.4,-4.35 l 0.15,1.65 q 1.15,2.7 6.1,2.7 5.4,0 8.2,-4.65 1.9,-3.15 1.9,-5.95 0,-1.6 -0.3,-2.15 -0.7,-1.15 -3.1,-2.2 l -3.7,-0.7 m 1.8,28.75 q 1.15,0 1.15,-0.7 0,0.7 1.15,0.7 1.15,0 1.15,-0.8 0,-0.5 -1.25,-2 Q 0.25,8 0,8.55 -0.25,8 -1.05,8.95 q -1.25,1.5 -1.25,2 0,0.8 1.15,0.8 m 7.8,2.25 0.5,-0.05 q 0.4,-0.1 0.4,-0.5 l -0.6,-0.6 -13.4,-0.05 -0.45,0.15 -0.2,0.45 0.65,0.7 H -6 l -0.05,0.3 q 0,0.45 0.4,0.65 l 3.2,0.35 h 8.2 Q 6.7,14.95 6.7,14.4 L 6.65,14"
         fill="#9a9a9a"
         fill-rule="evenodd"
         stroke="none"
         id="path3" />
      <path
         d="m -2.95,-17 3.7,0.7 q 2.4,1.05 3.1,2.2 0.3,0.55 0.3,2.15 0,2.8 -1.9,5.95 -2.8,4.65 -8.2,4.65 -4.95,0 -6.1,-2.7 L -12.2,-5.7 q 0.45,-2.5 1.45,-4.55 l 0.85,-1.25 0.85,-1 2.25,-2.25 2.65,-1.65 1,-0.5 0.2,-0.1 m -6,20.1 2.35,-1.35 V 1.8 l 0.15,0.1 0.3,0.05 L -5.7,1.7 V 1.65 l 0.4,-0.4 h 0.05 l 1.5,0.15 q 0.6,0.05 1.05,0.25 l 0.05,0.05 0.2,0.05 0.25,0.15 0.4,0.25 q 0.1,0.05 0.25,0.15 l 0.05,0.65 q 0,0.6 -0.35,1.05 L -2.5,4.55 -2.8,4.3 Q -3.4,3.85 -4.3,3.7 h -0.3 l -0.45,-0.05 -1,0.05 -0.65,0.2 q -0.45,0.15 -0.75,0.45 -0.6,0.5 -0.8,1.45 L -8.4,7 -8.15,7.5 Q -8.8,8.15 -9.35,8.15 L -9.9,8.1 -10,7.75 -10.05,7.45 -10,7.25 -9.4,5.2 -9.05,4.05 -8.9,3.6 -8.95,3.1 M 6.8,0.8 7.25,1.2 7.65,1.95 7.9,2.65 7.8,3.3 7.7,4.35 7.65,4.5 Q 7.25,4.05 6.65,3.85 L 6.25,3.75 5.05,3.65 Q 3.35,3.7 2.5,4.55 1.95,5.1 1.8,6.05 L 1.7,6.6 V 6.7 6.85 6.9 L 1.35,6.95 Q 0.5,6.95 0.3,6.3 L 0.25,5.55 0.3,5.05 0.85,3.9 1.35,2.95 1.5,2.8 Q 2.6,1.25 5.6,1.25 L 5.8,1.3 6.05,1.65 Q 6.3,2 6.8,1.9 L 6.95,1.8 7,1.55 V 1.45 L 6.8,0.8 M -6,14.1 H 5.55 L 6.65,14 6.7,14.4 q 0,0.55 -0.95,1 h -8.2 l -3.2,-0.35 q -0.4,-0.2 -0.4,-0.65 L -6,14.1"
         fill="#bbbbbb"
         fill-rule="evenodd"
         stroke="none"
         id="path4" />
      <path
         d="m 3.65,-19 q 2.85,0.25 5.45,2.25 2.75,2.1 4.3,5.3 1.8,3.6 2.05,5.5 l 0.05,4.7 -0.45,4.8 q -0.7,3.15 -2.3,4.2 l -0.55,1.4 q -0.85,2.1 -0.75,3.9 l -0.2,3.3 Q 10.2,19.3 5.95,19.3 l -1.5,-0.05 -0.3,0.05 -5.8,0.15 -2.9,-0.2 -1.4,0.05 q -4.25,0 -5.3,-2.95 l -0.2,-3.3 q 0.1,-1.8 -0.75,-3.9 l -0.55,-1.4 q -1.6,-1.05 -2.3,-4.2 l -0.45,-4.8 0.05,-4.7 q 0.25,-1.9 2.05,-5.5 1.55,-3.2 4.3,-5.3 1.4,-1.1 2.9,-1.65 l 0.9,-0.55 3.65,-0.4 2,-0.05 3.3,0.4 M -9.9,8.1 q 0.5,1.4 3.55,3 -0.75,0.75 -2,0.75 l -1.15,-0.1 q -0.15,2.25 0.9,3.85 1.3,1.9 4.1,2 l 2.15,-0.15 0.1,-0.05 h 1.45 0.2 L 0.85,17.45 0.8,17.4 H 2.25 Q 6.85,18.2 8.6,15.6 9.65,14 9.5,11.75 l -1.15,0.1 q -1.25,0 -2,-0.75 3.7,-1.95 3.7,-3.65 L 8.9,3.6 q 0,-1.6 1.65,0.7 l 0.55,0.9 0.4,-1 q 1.1,-2.85 1.1,-5.55 0,-5.15 -1.85,-8.9 L 9.05,-12.5 6.8,-14.75 Q 6.25,-15.35 3.15,-16.9 L 2.3,-17.15 0.5,-17.3 -3.05,-17 h 0.1 l -0.2,0.1 -1,0.5 -2.65,1.65 -2.25,2.25 -0.85,1 -0.85,1.25 q -1,2.05 -1.45,4.55 -0.4,2.05 -0.4,4.35 0,2.7 1.1,5.55 l 0.4,1 0.55,-0.9 q 1.3,-1.8 1.6,-1.2 L -8.9,3.6 -9.05,4.05 -9.4,5.2 -10,7.25 -10.05,7.45 -10,7.75 -9.9,8.1 M -6.6,1.75 V 1.45 Q -6.6,-0.1 -3.05,0.3 -0.55,0.6 0.2,2.2 0.9,0.6 3.4,0.3 6.1,0 6.8,0.8 L 7,1.45 v 0.1 L 6.95,1.8 6.8,1.9 Q 6.3,2 6.05,1.65 L 5.8,1.3 5.6,1.25 q -3,0 -4.1,1.55 L 1.35,2.95 0.85,3.9 0.3,5.05 0.2,4.95 0.05,5.05 -1,2.95 -1.55,2.3 Q -1.7,2.2 -1.8,2.15 L -2.2,1.9 -2.45,1.75 -2.65,1.7 -2.7,1.65 Q -3.15,1.45 -3.75,1.4 L -5.25,1.25 H -5.3 l -0.4,0.4 V 1.7 L -6.15,1.95 -6.45,1.9 -6.6,1.8 V 1.75 M 7.65,4.5 Q 8.4,5.3 8.4,7 L 7.7,8.35 Q 6.55,9.65 4.25,9.65 2.05,9.65 1.7,6.9 V 6.85 6.7 6.6 L 1.8,6.05 Q 1.95,5.1 2.5,4.55 3.35,3.7 5.05,3.65 l 1.2,0.1 0.4,0.1 q 0.6,0.2 1,0.65 M -2.5,4.55 q 0.8,0.75 0.8,2.3 -0.35,2.8 -2.55,2.8 -2.3,0 -3.45,-1.3 L -8.15,7.5 -8.4,7 -8.25,5.8 q 0.2,-0.95 0.8,-1.45 0.3,-0.3 0.75,-0.45 l 0.65,-0.2 1,-0.05 0.45,0.05 h 0.3 q 0.9,0.15 1.5,0.6 l 0.3,0.25 M -6,14.1 h -0.45 l -0.65,-0.7 0.2,-0.45 0.45,-0.15 13.4,0.05 0.6,0.6 q 0,0.4 -0.4,0.5 L 6.65,14 5.55,14.1 H -6 m 4.85,-2.35 q -1.15,0 -1.15,-0.8 0,-0.5 1.25,-2 Q -0.25,8 0,8.55 0.25,8 1.05,8.95 q 1.25,1.5 1.25,2 0,0.8 -1.15,0.8 -1.15,0 -1.15,-0.7 0,0.7 -1.15,0.7"
         fill="#6b6b6b"
         fill-rule="evenodd"
         stroke="none"
         id="path5" />
      <path
         d="m 3.65,-19 q 2.85,0.25 5.45,2.25 2.75,2.1 4.3,5.3 1.8,3.6 2.05,5.5 l 0.05,4.7 -0.45,4.8 q -0.7,3.15 -2.3,4.2 l -0.55,1.4 q -0.85,2.1 -0.75,3.9 l -0.2,3.3 Q 10.2,19.3 5.95,19.3 l -1.5,-0.05 -0.3,0.05 -5.8,0.15 -2.9,-0.2 -1.4,0.05 q -4.25,0 -5.3,-2.95 l -0.2,-3.3 q 0.1,-1.8 -0.75,-3.9 l -0.55,-1.4 q -1.6,-1.05 -2.3,-4.2 l -0.45,-4.8 0.05,-4.7 q 0.25,-1.9 2.05,-5.5 1.55,-3.2 4.3,-5.3 1.4,-1.1 2.9,-1.65 l 0.9,-0.55 3.65,-0.4 2,-0.05 z"
         fill="none"
         stroke="#6b6b6b"
         stroke-linecap="round"
         stroke-linejoin="round"
         stroke-width="1"
         id="path6" />
    </g>
    <g
       id="sprite0"
       transform="translate(11.05,8.85)">
      <use
         ffdec:characterId="3623"
         height="16.9"
         transform="translate(-9.1,-8.45)"
         width="18.200001"
         xlink:href="#shape1"
         id="use6" />
    </g>
    <g
       id="shape1"
       transform="translate(9.1,8.45)">
      <path
         d="M 6.25,-6.6 Q 9.1,-4.2 9.1,0.6 9.1,3 7.25,5.3 4.65,8.45 -0.1,8.45 -5.7,8.45 -7.9,5.3 -9.1,3.55 -9.1,1.05 q 0,-3.9 2.85,-6.6 Q -3.65,-8 0,-8.4 3.75,-8.75 6.25,-6.6 M -5.4,-2.8 q -0.75,0.95 -0.75,2.1 0,2.65 0.3,3.35 1.15,2.7 5.65,2.7 3.15,0 4.85,-1.85 L 5.05,2.9 Q 6.1,1.35 6.1,-0.35 6.1,-5.7 0,-5.3 l -2.45,0.5 -1.8,0.9 -1.15,1.1 m 4.5,0.5 h 0.3 q 1.7,0.1 1.7,1.45 L 0.8,0.2 q -0.5,0.75 -1.45,0.75 -1.2,0 -1.55,-0.8 L -2.25,-0.2 -2.3,-0.7 q 0,-1.55 1.4,-1.6"
         fill="#696969"
         fill-rule="evenodd"
         stroke="none"
         id="path7" />
      <path
         d="M -2.45,-4.8 0,-5.3 q 6.1,-0.4 6.1,4.95 0,1.7 -1.05,3.25 l -0.4,0.6 q -1.7,1.85 -4.85,1.85 -4.5,0 -5.65,-2.7 -0.3,-0.7 -0.3,-3.35 0,-1.15 0.75,-2.1 0.25,3.05 1.95,3.05 0.65,0 1.2,-0.45 l 0.05,0.35 q 0.35,0.8 1.55,0.8 0.95,0 1.45,-0.75 l 0.3,-1.05 q 0,-1.35 -1.7,-1.45 h -0.3 l 0.05,-0.55 q 0,-1.6 -1.6,-1.95 m 4.4,8 q 0.4,0.75 1.35,0.75 0.8,0 1.2,-0.6 L 4.8,2.4 Q 4.8,0.85 3.3,0.85 1.75,0.85 1.75,2.4 l 0.2,0.8"
         fill="#e0e0e0"
         fill-rule="evenodd"
         stroke="none"
         id="path8" />
      <path
         d="m -2.45,-4.8 q 1.6,0.35 1.6,1.95 L -0.9,-2.3 q -1.4,0.05 -1.4,1.6 l 0.05,0.5 q -0.55,0.45 -1.2,0.45 -1.7,0 -1.95,-3.05 l 1.15,-1.1 1.8,-0.9 m 4.4,8 -0.2,-0.8 q 0,-1.55 1.55,-1.55 1.5,0 1.5,1.55 L 4.5,3.35 Q 4.1,3.95 3.3,3.95 2.35,3.95 1.95,3.2"
         fill="#fefefe"
         fill-rule="evenodd"
         stroke="none"
         id="path9" />
    </g>
    <g
       id="sprite1"
       transform="translate(5.4,4)">
      <use
         ffdec:characterId="43"
         height="8"
         transform="translate(-5.4,-4)"
         width="10.8"
         xlink:href="#shape2"
         id="use9" />
    </g>
    <g
       id="shape2"
       transform="translate(5.4,4)">
      <path
         d="m 2.9,-0.35 q 0,-1.25 1.25,-1.25 1.25,0 1.25,1.2 0,1.3 -1.25,1.3 Q 3.6,0.9 3.25,0.5 2.9,0.15 2.9,-0.35 m 0.35,-2.3 q 0,0.55 -0.35,0.9 -0.4,0.45 -1,0.45 -1.35,0 -1.35,-1.4 0,-1.3 1.35,-1.3 1.35,0 1.35,1.35 m -3.1,1.9 h 0.2 q 2.6,0.1 2.6,2.8 l -0.3,1 Q 2.05,4 0.45,4 H 0.35 0.15 0.1 -0.45 q -1.6,0 -2.2,-0.95 l -0.3,-1 q 0,-2.8 2.8,-2.8 h 0.3 M -1.55,-4 q 1.35,0 1.35,1.35 0,0.55 -0.4,0.9 -0.4,0.45 -0.95,0.45 -1.4,0 -1.4,-1.4 0,-1.3 1.4,-1.3 m -2.6,2.4 q 1.25,0 1.25,1.25 0,0.5 -0.35,0.85 -0.35,0.4 -0.9,0.4 -1.25,0 -1.25,-1.3 0,-1.2 1.25,-1.2"
         fill="#6b6b6b"
         fill-rule="evenodd"
         stroke="none"
         id="path10" />
    </g>
  </defs>
</svg>
