<?xml version="1.0" encoding="UTF-8" standalone="no"?>
<svg
   ffdec:objectType="frame"
   height="101.55"
   width="149.15849"
   version="1.1"
   id="svg100"
   sodipodi:docname="2.svg"
   xmlns:inkscape="http://www.inkscape.org/namespaces/inkscape"
   xmlns:sodipodi="http://sodipodi.sourceforge.net/DTD/sodipodi-0.dtd"
   xmlns:xlink="http://www.w3.org/1999/xlink"
   xmlns="http://www.w3.org/2000/svg"
   xmlns:svg="http://www.w3.org/2000/svg"
   xmlns:ffdec="https://www.free-decompiler.com/flash">
  <sodipodi:namedview
     id="namedview100"
     pagecolor="#ffffff"
     bordercolor="#000000"
     borderopacity="0.25"
     inkscape:showpageshadow="2"
     inkscape:pageopacity="0.0"
     inkscape:pagecheckerboard="0"
     inkscape:deskcolor="#d1d1d1"
     fit-margin-top="5"
     fit-margin-left="5"
     fit-margin-right="5"
     fit-margin-bottom="5" />
  <g
     transform="translate(70.7085,58.05)"
     id="g37">
    <use
       ffdec:characterId="298"
       height="16.9"
       transform="matrix(0,-0.9195,0.9195,0,-7.3,-28.35)"
       width="12.05"
       xlink:href="#sprite0"
       id="use1" />
    <use
       ffdec:characterId="280"
       height="25.5"
       transform="matrix(0.8086,-0.4669,-0.4669,-0.8086,-16.8166,-28.7957)"
       width="5.3000002"
       xlink:href="#sprite1"
       id="use2" />
    <use
       ffdec:characterId="320"
       height="29.15"
       transform="matrix(0.6991,0,0,-0.7923,-47.2,-28.7131)"
       width="34.200001"
       xlink:href="#sprite2"
       id="use3" />
    <use
       ffdec:characterId="305"
       height="32.549999"
       transform="matrix(0.7923,0,0,-0.7923,28.55,-25.3)"
       width="45"
       xlink:href="#sprite3"
       id="use4" />
    <use
       ffdec:characterId="307"
       height="37.650002"
       transform="matrix(-0.7923,0,0,0.7923,53.75,-58.05)"
       width="49.049999"
       xlink:href="#sprite4"
       id="use5" />
    <use
       ffdec:characterId="286"
       height="4.9000001"
       transform="matrix(-0.9338,0,0,0.9338,40.55,-52.45)"
       width="11.85"
       xlink:href="#sprite5"
       id="use6" />
    <use
       ffdec:characterId="300"
       height="9.8999996"
       transform="matrix(-1.0692,0,0,1.0692,46.7,-42.05)"
       width="12.95"
       xlink:href="#sprite6"
       id="use7" />
    <use
       ffdec:characterId="320"
       height="29.15"
       transform="matrix(0,0.6991,0.7923,0,5.6131,-52.1)"
       width="34.200001"
       xlink:href="#sprite2"
       id="use8" />
    <use
       ffdec:characterId="272"
       height="15.55"
       transform="matrix(-0.9195,0,0,0.9195,31.35,-43)"
       width="12.4"
       xlink:href="#sprite7"
       id="use9" />
    <use
       ffdec:characterId="303"
       height="27.9"
       transform="matrix(0,-0.9213,-0.9213,0,-40.8,5.1)"
       width="34.549999"
       xlink:href="#sprite8"
       id="use10" />
    <use
       ffdec:characterId="320"
       height="29.15"
       transform="matrix(-0.9213,0,0,0.9213,-8.4,-28.8708)"
       width="34.200001"
       xlink:href="#sprite9"
       id="use11" />
    <use
       ffdec:characterId="303"
       height="27.9"
       transform="matrix(-0.9213,0,0,0.9213,-3.15,-14.8)"
       width="34.549999"
       xlink:href="#sprite10"
       id="use12" />
    <use
       ffdec:characterId="276"
       height="40.849998"
       transform="matrix(0.9213,0,0,-0.9213,-42.45,43.45)"
       width="49.400002"
       xlink:href="#sprite11"
       id="use13" />
    <use
       ffdec:characterId="322"
       height="39.099998"
       transform="matrix(-0.8378,-0.4172,-0.595,0.808,-40,-2.35)"
       width="4.4499998"
       xlink:href="#sprite12"
       id="use14" />
    <use
       ffdec:characterId="322"
       height="39.099998"
       transform="matrix(-0.8378,-0.4172,-0.595,0.808,-17.95,-22.05)"
       width="4.4499998"
       xlink:href="#sprite12"
       id="use15" />
    <use
       ffdec:characterId="307"
       height="37.650002"
       transform="matrix(-0.9213,0,0,0.9213,42,8.5)"
       width="49.049999"
       xlink:href="#sprite13"
       id="use16" />
    <use
       ffdec:characterId="311"
       height="23.65"
       transform="matrix(-0.5429,0.9403,0.9403,0.5429,-7.348,17.0376)"
       width="8"
       xlink:href="#sprite14"
       id="use17" />
    <use
       ffdec:characterId="274"
       height="52.549999"
       transform="matrix(-0.9213,0,0,0.9213,43,-27.55)"
       width="54.5"
       xlink:href="#sprite15"
       id="use18" />
    <use
       ffdec:characterId="322"
       height="39.099998"
       transform="matrix(-0.693,0.7678,0.7624,0.9524,5.3,2.35)"
       width="4.4499998"
       xlink:href="#sprite16"
       id="use19" />
    <use
       ffdec:characterId="280"
       height="25.5"
       transform="matrix(0,-1.0999,-0.9242,0,78.1121,42.95)"
       width="5.3000002"
       xlink:href="#sprite17"
       id="use20" />
    <use
       ffdec:characterId="322"
       height="39.099998"
       transform="matrix(-0.693,0.7678,0.7624,0.9524,-18.65,-27.8)"
       width="4.4499998"
       xlink:href="#sprite16"
       id="use21" />
    <use
       ffdec:characterId="288"
       height="48.799999"
       transform="matrix(0,1.0858,-1.0858,0.0267,28.35,-33.1)"
       width="9.1999998"
       xlink:href="#sprite18"
       id="use22" />
    <use
       ffdec:characterId="288"
       height="48.799999"
       transform="matrix(0,1.0858,-1.0858,0,-17.55,-32.45)"
       width="9.1999998"
       xlink:href="#sprite18"
       id="use23" />
    <use
       ffdec:characterId="288"
       height="48.799999"
       transform="matrix(0,1.0858,-1.0858,0,78.45,-33.1)"
       width="9.1999998"
       xlink:href="#sprite18"
       id="use24" />
    <use
       ffdec:characterId="318"
       height="19.200001"
       transform="matrix(-1.0858,0,0,0.667,-18.8043,-33.1)"
       width="4.5999999"
       xlink:href="#sprite19"
       id="use25" />
    <use
       ffdec:characterId="318"
       height="19.200001"
       transform="matrix(1.0488,0.281,-0.1903,0.7101,-18.3476,-32.9359)"
       width="4.5999999"
       xlink:href="#sprite19"
       id="use26" />
    <use
       ffdec:characterId="280"
       height="25.5"
       transform="matrix(-0.7678,-0.7678,-0.7678,0.7678,50.5339,-8.4339)"
       width="5.3000002"
       xlink:href="#sprite17"
       id="use27" />
    <use
       ffdec:characterId="276"
       height="40.849998"
       transform="matrix(0.9213,0,0,-0.9213,27.25,43.5)"
       width="49.400002"
       xlink:href="#sprite20"
       id="use28" />
    <use
       ffdec:characterId="307"
       height="37.650002"
       transform="matrix(0,-0.9213,-0.9213,0,75.2,18.7)"
       width="49.049999"
       xlink:href="#sprite21"
       id="use29" />
    <use
       ffdec:characterId="320"
       height="29.15"
       transform="matrix(-0.9213,0,0,0.9213,-38.95,-7.9708)"
       width="34.200001"
       xlink:href="#sprite22"
       id="use30" />
    <use
       ffdec:characterId="305"
       height="32.549999"
       transform="matrix(-0.9213,0,0,0.9213,-29.25,13.25)"
       width="45"
       xlink:href="#sprite23"
       id="use31" />
    <use
       ffdec:characterId="311"
       height="23.65"
       transform="matrix(-1.0858,0,0,1.0858,62.2144,4.5856)"
       width="8"
       xlink:href="#sprite24"
       id="use32" />
    <use
       ffdec:characterId="292"
       height="15.45"
       transform="matrix(-0.9404,0.5429,0.5429,0.9404,-56.0019,-16.0624)"
       width="7.3499999"
       xlink:href="#sprite25"
       id="use33" />
    <use
       ffdec:characterId="278"
       height="6.5"
       transform="matrix(0,-1.0858,-1.0858,0,70.05,-5.15)"
       width="13.65"
       xlink:href="#sprite26"
       id="use34" />
    <use
       ffdec:characterId="282"
       height="7.6999998"
       transform="matrix(-1.0858,0,0,1.0858,-56.2,5.5)"
       width="9.0500002"
       xlink:href="#sprite27"
       id="use35" />
    <use
       ffdec:characterId="309"
       height="12.15"
       transform="matrix(0,-1.0858,-1.0858,0,46.7,38.3)"
       width="8.1999998"
       xlink:href="#sprite28"
       id="use36" />
    <use
       ffdec:characterId="44"
       height="8"
       transform="translate(-44.9499,31.2001)"
       width="10.8"
       xlink:href="#sprite29"
       id="use37" />
  </g>
  <defs
     id="defs100">
    <g
       id="sprite0">
      <use
         ffdec:characterId="297"
         height="16.9"
         width="12.05"
         xlink:href="#shape0"
         id="use38" />
    </g>
    <g
       id="shape0">
      <path
         d="m 11.3,9.35 -0.1,0.55 0.15,0.05 -0.15,0.2 0.25,0.25 q 0.6,0.85 0.6,2.3 l -0.2,1.7 -0.05,0.25 0.25,0.7 q 0,0.95 -1.2,1.25 L 5.7,16.9 0.7,16.45 Q 0,16.15 0,15.35 L 0.1,14.9 0,14.6 0.05,4.85 Q 0.25,3 0.65,2.35 L 0.55,2.2 q 0,-1.65 4.55,-0.5 0.15,-2 2.25,-1.65 2.2,0.35 2.2,1.6 L 8.9,2.8 q 2.55,0.9 2.55,1.75 0,0.35 -0.4,0.6 V 5.2 l 0.3,2.55 -0.05,1.6 M 7.95,1.95 8,1.85 7.45,1.55 H 6.4 V 2 L 7.6,2.35 7.95,1.95 M 4.75,5 9.3,6.05 Q 9.25,5.65 9.45,5.35 L 4.85,4.1 4.7,4.05 3.1,3.5 2.05,3.1 2.35,4.5 3,4.6 4.1,4.85 4.75,5 M 3.85,6.2 3.05,5.9 2.4,5.6 2.45,12.55 h 0.3 L 3.45,12.5 4.75,12.65 6,12.5 9.65,12.55 h 0.1 V 12.5 L 9.65,10.85 9,11.05 7,11.65 H 6.65 q -1.1,0 -1.75,-0.5 L 4.5,10.9 4.15,10.6 V 10.2 Q 4.2,10.05 4.7,10.05 l 0.65,0.25 0.05,0.1 q 0.3,0.35 0.5,0.35 L 6.75,10.45 6.65,10.4 6.55,10.35 6.35,10.25 5.6,9.75 5.25,9.5 Q 6.35,8.4 8.7,8.85 L 8.8,8.9 8.9,8.75 Q 9.4,8.15 9.4,7.55 L 9.35,7.05 h -0.1 q -3,0 -5.25,-0.8 L 3.85,6.2 m 1.4,7.65 h 0.6 l 4.1,0.15 -0.1,-0.9 -0.4,0.05 -1.7,0.1 -2.6,-0.05 -1.7,-0.05 -1,-0.05 V 13.55 14 l 0.9,-0.1 1.9,-0.05"
         fill="#9a9a9a"
         fill-rule="evenodd"
         stroke="none"
         id="path38" />
      <path
         d="m 4.85,4.1 4.6,1.25 Q 9.25,5.65 9.3,6.05 L 4.75,5 4.85,4.25 V 4.1 M 3,4.6 2.35,4.5 2.05,3.1 3.1,3.5 3,4.25 V 4.6 m 2.15,8.6 2.6,0.05 1.7,-0.1 0.4,-0.05 0.1,0.9 -4.1,-0.15 H 5.25 L 5.15,13.2 M 3.35,13.9 2.45,14 V 13.55 13.1 l 1,0.05 -0.1,0.75"
         fill="#bcbcbc"
         fill-rule="evenodd"
         stroke="none"
         id="path39" />
      <path
         d="M 4.85,4.1 V 4.25 L 4.75,5 4.1,4.85 3,4.6 V 4.25 L 3.1,3.5 4.7,4.05 4.85,4.1 m 0.3,9.1 0.1,0.65 -1.9,0.05 0.1,-0.75 1.7,0.05"
         fill="#c8c8c8"
         fill-rule="evenodd"
         stroke="none"
         id="path40" />
      <path
         d="M 9.65,12.55 6,12.5 4.75,12.65 3.45,12.5 2.75,12.55 H 2.45 L 2.4,5.6 3.05,5.9 3.85,6.2 V 6.25 H 4 q 2.25,0.8 5.25,0.8 h 0.1 l 0.05,0.5 q 0,0.6 -0.5,1.2 L 8.8,8.9 8.7,8.85 Q 6.35,8.4 5.25,9.5 l 0.35,0.25 0.75,0.5 0.2,0.1 0.1,0.05 0.1,0.05 -0.85,0.3 q -0.2,0 -0.5,-0.35 L 5.35,10.3 4.7,10.05 q -0.5,0 -0.55,0.15 v 0.4 l 0.35,0.3 0.4,0.25 q 0.65,0.5 1.75,0.5 H 7 l 2,-0.6 0.65,-0.2 0.1,1.65 -0.1,0.05"
         fill="#a5a5a5"
         fill-rule="evenodd"
         stroke="none"
         id="path41" />
    </g>
    <g
       id="sprite1"
       transform="translate(0,0.5)">
      <use
         ffdec:characterId="279"
         height="25.5"
         transform="translate(0,-0.5)"
         width="5.3000002"
         xlink:href="#shape1"
         id="use41" />
    </g>
    <g
       id="shape1"
       transform="translate(0,0.5)">
      <path
         d="M 2.7,-0.5 Q 5,-0.55 5,0.5 V 0.65 L 5.3,1.2 V 12.05 L 5.25,18.4 4.8,23.2 5,23.85 Q 5,25 3.45,25 L 0.65,24.65 Q 0.45,24.5 0.4,24.1 0.1,23.5 0,22.3 V 19.75 L 0.2,10.4 0.05,1.1 0.15,0.1 0.7,-0.05 Q 1.25,-0.5 2.7,-0.5 M 2.3,4.7 2.1,9.8 2.25,19.85 v 2.6 0.3 L 3.35,22.7 Q 3.05,21.15 3,18.25 L 3.05,12.05 3.1,5.8 Q 3.2,3.5 3.6,1.7 H 2.75 1.95 q 0.35,1.25 0.35,3"
         fill="#9a9a9a"
         fill-rule="evenodd"
         stroke="none"
         id="path42" />
      <path
         d="m 2.3,4.7 q 0,-1.75 -0.35,-3 H 2.75 3.6 Q 3.2,3.5 3.1,5.8 L 3.05,12.05 3,18.25 q 0.05,2.9 0.35,4.45 l -1.1,0.05 v -0.3 -2.6 L 2.1,9.8 2.3,4.7"
         fill="#b5b0ac"
         fill-rule="evenodd"
         stroke="none"
         id="path43" />
    </g>
    <g
       id="sprite2"
       transform="translate(0,-0.9)">
      <use
         ffdec:characterId="319"
         height="29.15"
         transform="translate(0,0.9)"
         width="34.200001"
         xlink:href="#shape2"
         id="use43" />
    </g>
    <g
       id="shape2"
       transform="translate(0,-0.9)">
      <path
         d="m 31.15,4.3 -0.2,2 -0.1,6.65 0.05,7.9 q 0.15,3.6 0.55,5.6 l -4,-0.15 -24,0.05 V 23.75 18.3 Q 4.35,16.8 5.4,16 4.25,16 3.45,16.6 L 3.4,4.2 6.15,4.45 H 19.4 l -0.7,0.6 -2.2,2.1 q 1.35,-0.5 2.75,-1.75 l 0.9,-0.95 H 22.8 Q 28.2,4.6 31.15,4.3"
         fill="#b6b6b6"
         fill-rule="evenodd"
         stroke="none"
         id="path44" />
      <path
         d="M 31.15,4.3 Q 28.2,4.6 22.8,4.45 h -2.65 l -0.9,0.95 q -1.4,1.25 -2.75,1.75 l 2.2,-2.1 0.7,-0.6 H 6.15 L 3.4,4.2 3.45,16.6 Q 4.25,16 5.4,16 4.35,16.8 3.45,18.3 v 5.45 2.6 l 24,-0.05 4,0.15 q -0.4,-2 -0.55,-5.6 l -0.05,-7.9 0.1,-6.65 0.2,-2 m 2.7,-2.45 v 11.65 9.7 q 0.1,2.3 0.35,4.05 l -0.35,1.15 0.05,0.3 q 0,0.65 -1.2,1.2 L 3,29.95 2.25,30.05 q -1.25,0 -1.5,-0.6 L 0.7,28.85 0.5,28.2 0,26.45 V 23.75 3.35 L 0.15,2.5 V 2.45 Q 0,2.3 0,1.85 0,1.3 0.35,1.1 L 0.85,0.9 H 33.8 l 0.05,0.95"
         fill="#9a9a9a"
         fill-rule="evenodd"
         stroke="none"
         id="path45" />
    </g>
    <g
       id="sprite3">
      <use
         ffdec:characterId="304"
         height="32.549999"
         width="45"
         xlink:href="#shape3"
         id="use45" />
    </g>
    <g
       id="shape3">
      <path
         d="m 43.85,7.5 q -2.25,9.15 -2.25,9.65 l 0.75,6.6 0.75,6.5 -0.3,1.1 -0.45,0.55 -0.05,0.05 q -0.4,0.6 -1.15,0.6 L 2.7,32.4 2.25,32.1 1.55,32.25 Q 0.05,32.25 0,30.6 0,30.1 0.15,29.85 V 13.8 L 0.3,4.65 0.1,2.3 Q 0.05,0.7 0.8,0.15 1.25,-0.15 5.9,0.1 l 6.45,0.7 Q 14.8,1.15 15.5,1.95 H 35.9 L 44.2,2.4 Q 45,2.65 45,3.25 L 44.9,3.65 45,4.5 44.9,5.9 43.85,7.5 M 43.15,4.3 35.9,4.5 H 21.7 q 0.7,1.25 0.55,3.55 l -0.5,5.8 -0.15,6.15 -0.25,4.3 v 5.55 h 18.9 Q 39.75,28.1 39.3,25.1 l -0.85,-7 -0.65,0.3 q -2,0.95 -2.4,1.55 -0.55,-0.15 -0.7,-0.4 L 37,17.8 q 0.95,-0.7 1.65,-1 L 40.3,11.6 Q 41.9,7 43.1,4.75 L 43.15,4.3 m -22.5,0.2 h -4.6 L 16.1,6 15.5,6.3 15.1,4.3 14.4,3.75 12.85,3.45 2.9,2.7 3.05,30 6.6,29.85 h 13.75 l -0.35,-0.5 0.2,-13.6 -0.05,-1.9 q 0,-2.45 0.25,-4.6 L 20.65,4.5"
         fill="#9a9a9a"
         fill-rule="evenodd"
         stroke="none"
         id="path46" />
      <path
         d="M 20.65,4.5 20.4,9.25 q -0.25,2.15 -0.25,4.6 l 0.05,1.9 -0.2,13.6 0.35,0.5 H 6.6 L 3.05,30 2.9,2.7 l 9.95,0.75 1.55,0.3 0.7,0.55 0.4,2 L 16.1,6 16.05,4.5 h 4.6 M 43.15,4.3 43.1,4.75 Q 41.9,7 40.3,11.6 l -1.65,5.2 q -0.7,0.3 -1.65,1 l -2.3,1.75 q 0.15,0.25 0.7,0.4 0.4,-0.6 2.4,-1.55 l 0.65,-0.3 0.85,7 q 0.45,3 0.95,4.75 H 21.35 V 24.3 l 0.25,-4.3 0.15,-6.15 0.5,-5.8 Q 22.4,5.75 21.7,4.5 h 14.2 l 7.25,-0.2"
         fill="#bcbcbc"
         fill-rule="evenodd"
         stroke="none"
         id="path47" />
    </g>
    <g
       id="sprite4">
      <use
         ffdec:characterId="306"
         height="37.650002"
         width="49.049999"
         xlink:href="#shape4"
         id="use47" />
    </g>
    <g
       id="shape4">
      <path
         d="M 44,5.55 44.1,3.3 H 3.85 V 4.9 L 3.2,11.55 v 23.1 h 19.75 l -1.5,-1.45 0.05,-0.6 q 1.05,0.05 2.05,1.05 l 0.5,0.6 q 0.35,-0.35 1,-0.8 1.3,-0.9 1.7,-0.9 L 27,32.7 24.65,34.65 H 44.1 V 19.7 L 43,20.3 q -2.95,1.4 -3.35,1.75 L 39.5,21.9 42.15,19.3 q 1.2,-1.1 1.95,-1.5 V 9 L 44,5.55 m 5,30.25 -0.75,0.5 v 0.05 q 0,0.4 -2.45,0.75 v 0.15 l -0.6,0.3 -33.8,0.1 L 1.9,37.2 1.45,37.05 H 1.1 q -0.8,-0.2 -1,-0.6 L 0,35.8 Q 0.05,35.4 0.65,34.95 0.15,31.6 0.2,22.95 L 0,13.75 Q 0.05,9.4 0.4,6.35 L 0.25,4.95 Q 0,2.15 0.95,1.3 q 0,-0.85 1,-1 L 8.1,0 h 36.5 l 0.6,0.3 0.25,-0.05 0.35,0.05 v 0.05 l 3.25,0.3 V 35 L 49,35.8"
         fill="#9a9a9a"
         fill-rule="evenodd"
         stroke="none"
         id="path48" />
      <path
         d="M 44,5.55 44.1,9 v 8.8 q -0.75,0.4 -1.95,1.5 l -2.65,2.6 0.15,0.15 Q 40.05,21.7 43,20.3 l 1.1,-0.6 V 34.65 H 24.65 L 27,32.7 26.75,32.55 q -0.4,0 -1.7,0.9 -0.65,0.45 -1,0.8 l -0.5,-0.6 q -1,-1 -2.05,-1.05 l -0.05,0.6 1.5,1.45 H 3.2 V 11.55 L 3.85,4.9 V 3.3 H 44.1 L 44,5.55"
         fill="#b6b6b6"
         fill-rule="evenodd"
         stroke="none"
         id="path49" />
    </g>
    <g
       id="sprite5">
      <use
         ffdec:characterId="285"
         height="4.9000001"
         width="11.85"
         xlink:href="#shape5"
         id="use49" />
    </g>
    <g
       id="shape5">
      <path
         d="M 10.55,1.55 H 1.3 l 0.05,0.4 4.5,0.1 2.65,0.05 h 2 L 10.55,1.55 M 11.15,0 q 0.3,0 0.5,0.7 l 0.1,0.1 -0.05,0.05 0.15,2.4 v 0.8 L 11.5,4.55 Q 11.35,5 10.85,4.9 H 2.45 L 0.85,4.75 H 0.7 Q -0.15,4.75 0.05,2.7 0.05,1.65 0.2,1.05 L 0.15,0.85 q 0,-0.5 0.7,-0.7 H 10.9 L 11.15,0 m -0.7,3.25 v -0.6 l -9.1,0.2 v 0.7 l 1.1,0.05 h 7.95 l 0.05,-0.35"
         fill="#9a9a9a"
         fill-rule="evenodd"
         stroke="none"
         id="path50" />
      <path
         d="M 10.55,1.55 10.5,2.1 h -2 L 5.85,2.05 1.35,1.95 1.3,1.55 h 9.25"
         fill="#a5a5a5"
         fill-rule="evenodd"
         stroke="none"
         id="path51" />
      <path
         d="M 10.45,3.25 10.4,3.6 H 2.45 L 1.35,3.55 v -0.7 l 9.1,-0.2 v 0.6"
         fill="#9f9f9f"
         fill-rule="evenodd"
         stroke="none"
         id="path52" />
    </g>
    <g
       id="sprite6">
      <use
         ffdec:characterId="299"
         height="9.8999996"
         width="12.95"
         xlink:href="#shape6"
         id="use52" />
    </g>
    <g
       id="shape6">
      <path
         d="M 12.95,1.25 V 1.4 3.05 L 12.85,5.2 12.5,8.05 v 0.3 L 12.35,9 11.3,9.6 H 3.25 L 1.75,9.65 Q 1.5,9.9 1.1,9.9 0.3,9.9 0.05,8.85 L 0,8 Q 0,5.45 0.45,4.5 V 3.45 L 0.55,1.8 0.45,1.7 0.3,1.1 Q 0.3,-0.1 6.65,0 l 5.2,0.45 0.2,-0.05 q 0.6,0 0.85,0.5 l 0.05,0.2 V 1.25 M 2.7,2.6 3.2,2.55 h 0.45 0.8 L 11.1,2.6 V 2.1 L 6.5,2.25 H 5.35 3.85 3.75 L 2.4,2.2 2.45,2.65 2.7,2.6 M 5.7,4.5 9.4,4.8 9.45,4.95 9.2,5.1 11.15,5.15 11.1,3.6 6.4,3.65 H 5.65 4.25 L 3.45,3.6 2.45,3.5 V 4.15 L 3.4,4.25 4.25,4.35 5.7,4.5 m 5.55,2.65 H 11.3 V 7.1 L 11.25,6.8 10.65,6.95 H 5.65 5.6 L 3.4,6.8 2.1,6.65 2.15,7.1 v 0.05 h 0.1 1 0.2 2.2 5.6 M 6.6,6.1 h 4.05 L 11.2,6.3 11.15,5.8 8.95,5.85 8.5,5.6 8.6,5.3 6.65,5.7 5.7,5.75 3.4,5.8 H 3.35 L 2.05,5.75 2.1,6.35 3.3,6.25 H 3.4 L 5.6,6.15 V 6.1 h 1"
         fill="#9a9a9a"
         fill-rule="evenodd"
         stroke="none"
         id="path53" />
      <path
         d="m 2.4,2.2 1.35,0.05 h 0.1 1.5 1.15 L 11.1,2.1 V 2.6 L 4.45,2.55 H 3.65 3.2 L 2.7,2.6 2.4,2.2 M 5.65,3.65 5.7,4.5 4.25,4.35 3.4,4.25 2.45,4.15 V 3.5 l 1,0.1 0.8,0.05 h 1.4 m 0,3.3 v 0.2 H 3.45 L 3.4,6.85 V 6.8 l 2.2,0.15 h 0.05 m 1,-1.25 V 5.85 L 6.6,6.1 h -1 V 6.15 L 3.4,6.25 H 3.3 V 6.15 L 3.35,5.8 H 3.4 L 5.7,5.75 6.65,5.7"
         fill="#c8c8c8"
         fill-rule="evenodd"
         stroke="none"
         id="path54" />
      <path
         d="M 2.4,2.2 2.7,2.6 2.45,2.65 2.4,2.2 M 5.65,3.65 H 6.4 L 11.1,3.6 11.15,5.15 9.2,5.1 9.45,4.95 9.4,4.8 5.7,4.5 5.65,3.65 M 11.3,7.1 11.25,7.15 h -5.6 v -0.2 h 5 L 11.25,6.8 11.3,7.1 M 6.65,5.7 8.6,5.3 8.5,5.6 8.95,5.85 11.15,5.8 11.2,6.3 10.65,6.1 H 6.6 L 6.65,5.85 V 5.7 M 3.3,6.25 2.1,6.35 2.05,5.75 3.35,5.8 3.3,6.15 v 0.1 M 3.4,6.8 v 0.05 l 0.05,0.3 h -0.2 -1 L 2.15,7.1 2.1,6.65 3.4,6.8"
         fill="#bcbcbc"
         fill-rule="evenodd"
         stroke="none"
         id="path55" />
    </g>
    <g
       id="sprite7">
      <use
         ffdec:characterId="271"
         height="15.55"
         width="12.4"
         xlink:href="#shape7"
         id="use55" />
    </g>
    <g
       id="shape7">
      <path
         d="m 12.35,10.65 -0.35,2.6 0.3,0.9 q 0,0.7 -0.4,0.95 l -3.2,0.45 -7.35,-0.3 -0.2,-0.1 Q 0.45,14.9 0.3,14.05 V 12.7 L 0.1,10.45 0,7.05 Q 0.05,2.65 1.15,1.25 1.2,0.65 1.6,0.4 L 4.2,0 h 1.3 l 5.3,0.35 0.15,-0.05 0.4,0.15 0.2,0.05 q 0.6,0.2 0.6,0.85 l -0.1,0.5 q 0.35,1.5 0.35,4.5 l -0.05,4.3 M 5.45,2.7 H 4.2 3.75 L 2.6,2.6 2.7,3.1 3.75,3.15 4.35,3.2 9.65,3.25 9.7,2.75 V 2.6 H 9.6 L 5.5,2.7 H 5.45 M 5.6,11.35 9.65,11.4 9.55,10.55 V 8.7 l -1.1,0.55 h -0.2 l -0.1,-0.3 q 0,-0.4 1.4,-1 V 7.65 H 6.8 L 6.15,7.4 Q 6.05,7.1 6.3,7.05 L 9.5,6.95 V 6.35 L 9.55,4.15 5.5,4.25 H 3.65 l -0.8,0.05 0.1,1.3 0.25,4.85 v 0.85 h 0.4 l 2,0.05 m -2,0.95 H 3.2 v 0.4 0.1 l 0.4,-0.05 2,-0.1 2.85,0.1 1.35,-0.1 -0.1,-0.5 -4.1,0.1 -2,0.05"
         fill="#9a9a9a"
         fill-rule="evenodd"
         stroke="none"
         id="path56" />
      <path
         d="M 5.45,2.7 H 5.5 L 9.6,2.6 H 9.7 V 2.75 L 9.65,3.25 4.35,3.2 3.75,3.15 2.7,3.1 2.6,2.6 3.75,2.7 H 4.2 5.45 M 5.5,4.25 5.6,11.35 3.6,11.3 3.65,4.25 H 5.5 m -1.9,8.5 v -0.1 -0.35 l 2,-0.05 v 0.4 l -2,0.1"
         fill="#c8c8c8"
         fill-rule="evenodd"
         stroke="none"
         id="path57" />
      <path
         d="M 5.5,4.25 9.55,4.15 9.5,6.35 v 0.6 L 6.3,7.05 Q 6.05,7.1 6.15,7.4 L 6.8,7.65 h 2.75 v 0.3 q -1.4,0.6 -1.4,1 l 0.1,0.3 h 0.2 L 9.55,8.7 v 1.85 L 9.65,11.4 5.6,11.35 5.5,4.25 M 3.6,11.3 H 3.2 V 10.45 L 2.95,5.6 2.85,4.3 3.65,4.25 3.6,11.3 m 0,1.45 -0.4,0.05 v -0.1 -0.4 h 0.4 v 0.35 0.1 m 2,-0.5 4.1,-0.1 0.1,0.5 -1.35,0.1 -2.85,-0.1 v -0.4"
         fill="#bcbcbc"
         fill-rule="evenodd"
         stroke="none"
         id="path58" />
    </g>
    <g
       id="sprite8">
      <use
         ffdec:characterId="302"
         height="27.9"
         width="34.549999"
         xlink:href="#shape8"
         id="use58" />
    </g>
    <g
       id="shape8">
      <path
         d="m 30.7,3.25 -4.45,0.1 H 18.6 l 0.45,8.8 Q 19.3,19.6 20.1,23.7 v 0.55 l 1.15,0.05 H 31.7 Q 31.35,22.6 31.2,19.45 L 31.15,12.8 Q 30.65,7.9 30.6,5.3 L 30.7,3.25 M 32.85,0.6 q 1.05,0 1.65,1 v 11.5 l 0.05,3.8 -0.05,2.9 q -0.2,3.6 -0.65,5.2 0.35,0.4 0.35,1 l -0.45,1.05 q -0.45,0.6 -1.2,0.55 L 4.2,27.9 Q 1.05,27.9 0.25,27.05 0,26.8 0,25.95 0,25.5 0.3,25.15 L 0.15,24.3 v -0.45 l 0.1,-0.1 V 11.9 L 0.2,11.15 Q 0.8,5.4 0.8,0.7 V 0 H 3.3 L 3.35,0.1 3.65,0 H 30.2 q 1.55,0.2 2.25,0.65 L 32.85,0.6 M 17,3.35 H 6.55 L 4,3.3 V 3.95 L 3.45,11.9 V 24.25 Q 7.6,23.9 16.9,24.15 L 16.95,5.85 V 3.8 L 17,3.35 m 1.3,13 v 6.6 l 0.1,1.2 v 0.05 l 0.95,0.05 Q 18.7,21.6 18.3,16.35"
         fill="#6b6b6b"
         fill-rule="evenodd"
         stroke="none"
         id="path59" />
      <path
         d="M 30.7,3.25 30.6,5.3 q 0.05,2.6 0.55,7.5 l 0.05,6.65 q 0.15,3.15 0.5,4.85 H 21.25 L 20.1,24.25 V 23.7 Q 19.3,19.6 19.05,12.15 L 18.6,3.35 h 7.65 L 30.7,3.25 M 17,3.35 16.95,3.8 V 5.85 L 16.9,24.15 Q 7.6,23.9 3.45,24.25 V 11.9 L 4,3.95 V 3.3 L 6.55,3.35 H 17"
         fill="#c4c4c4"
         fill-rule="evenodd"
         stroke="none"
         id="path60" />
      <path
         d="m 18.3,16.35 q 0.4,5.25 1.05,7.9 L 18.4,24.2 v -0.05 l -0.1,-1.2 v -6.6"
         fill="#9e9e9e"
         fill-rule="evenodd"
         stroke="none"
         id="path61" />
    </g>
    <g
       id="sprite9"
       transform="translate(0,-0.9)">
      <use
         ffdec:characterId="319"
         height="29.15"
         transform="translate(0,0.9)"
         width="34.200001"
         xlink:href="#shape2"
         id="use61" />
    </g>
    <g
       id="sprite10">
      <use
         ffdec:characterId="302"
         height="27.9"
         width="34.549999"
         xlink:href="#shape9"
         id="use62" />
    </g>
    <g
       id="shape9">
      <path
         d="m 30.7,3.25 -4.45,0.1 H 18.6 l 0.45,8.8 Q 19.3,19.6 20.1,23.7 v 0.55 l 1.15,0.05 H 31.7 Q 31.35,22.6 31.2,19.45 L 31.15,12.8 Q 30.65,7.9 30.6,5.3 L 30.7,3.25 M 32.85,0.6 q 1.05,0 1.65,1 v 11.5 l 0.05,3.8 -0.05,2.9 q -0.2,3.6 -0.65,5.2 0.35,0.4 0.35,1 l -0.45,1.05 q -0.45,0.6 -1.2,0.55 L 4.2,27.9 Q 1.05,27.9 0.25,27.05 0,26.8 0,25.95 0,25.5 0.3,25.15 L 0.15,24.3 v -0.45 l 0.1,-0.1 V 11.9 L 0.2,11.15 Q 0.8,5.4 0.8,0.7 V 0 H 3.3 L 3.35,0.1 3.65,0 H 30.2 q 1.55,0.2 2.25,0.65 L 32.85,0.6 M 17,3.35 H 6.55 L 4,3.3 V 3.95 L 3.45,11.9 V 24.25 Q 7.6,23.9 16.9,24.15 L 16.95,5.85 V 3.8 L 17,3.35 m 1.3,13 v 6.6 l 0.1,1.2 v 0.05 l 0.95,0.05 Q 18.7,21.6 18.3,16.35"
         fill="#9a9a9a"
         fill-rule="evenodd"
         stroke="none"
         id="path62" />
      <path
         d="M 30.7,3.25 30.6,5.3 q 0.05,2.6 0.55,7.5 l 0.05,6.65 q 0.15,3.15 0.5,4.85 H 21.25 L 20.1,24.25 V 23.7 Q 19.3,19.6 19.05,12.15 L 18.6,3.35 h 7.65 L 30.7,3.25 M 17,3.35 16.95,3.8 V 5.85 L 16.9,24.15 Q 7.6,23.9 3.45,24.25 V 11.9 L 4,3.95 V 3.3 L 6.55,3.35 H 17"
         fill="#bcbcbc"
         fill-rule="evenodd"
         stroke="none"
         id="path63" />
      <path
         d="m 18.3,16.35 q 0.4,5.25 1.05,7.9 L 18.4,24.2 v -0.05 l -0.1,-1.2 v -6.6"
         fill="#adadad"
         fill-rule="evenodd"
         stroke="none"
         id="path64" />
    </g>
    <g
       id="sprite11">
      <use
         ffdec:characterId="275"
         height="40.849998"
         width="49.400002"
         xlink:href="#shape10"
         id="use64" />
    </g>
    <g
       id="shape10">
      <path
         d="M 46.8,2.85 47.4,2.8 Q 46,6 45.8,8.3 L 44.85,7.1 45.5,9.25 45.75,9.8 44.95,16.7 44.3,21.35 43.55,21.3 H 3.95 V 14.4 L 4.1,7.15 3.85,3.3 h 28.6 L 46.8,2.85 m -3.25,20.75 1.1,-0.05 -0.1,1.45 0.15,7.45 q 0.15,3.05 0.45,4.9 l -13.6,-0.6 H 3.15 l 0.4,-4 0.3,-3.85 0.25,-0.3 1,-1.25 L 6,27.1 q 1.85,-0.6 2.75,-1.45 l -3.6,0.25 -1.2,0.35 V 25.7 L 3.7,24.9 3.85,23.55 43.55,23.6"
         fill="#bcbcbc"
         fill-rule="evenodd"
         stroke="none"
         id="path65" />
      <path
         d="M 46.8,2.85 32.45,3.3 H 3.85 L 4.1,7.15 3.95,14.4 v 6.9 h 39.6 L 44.3,21.35 44.95,16.7 45.75,9.8 45.5,9.25 44.85,7.1 45.8,8.3 Q 46,6 47.4,2.8 l -0.6,0.05 m 2,1.8 0.2,0.95 -0.1,0.3 q -0.35,1.6 -0.4,4.75 l -0.45,3.45 v 0.2 l -0.6,3.25 q -0.3,1.9 -0.3,5.25 l 0.65,7.35 -0.05,2.6 q -0.2,4.05 -0.65,5.85 v 0.2 l -0.45,0.95 -0.45,0.3 H 46.15 L 45.1,40.3 31.55,40.8 2.75,40.85 1.7,40.55 Q 0.55,40.5 0,39.95 L 1.5,30.4 1.45,29.3 1.85,27.5 1.5,26.35 1.8,21.45 V 13.05 4.8 L 1.85,0.6 Q 2.35,0.15 3.8,0 h 28.65 l 14.6,0.5 q 2.35,0.25 2.35,1.2 l -0.2,0.5 0.05,0.7 Q 48.8,3.8 48.8,4.65 M 43.55,23.6 3.85,23.55 3.7,24.9 3.95,25.7 v 0.55 l 1.2,-0.35 3.6,-0.25 Q 7.85,26.5 6,27.1 l -0.9,0.25 -1,1.25 -0.25,0.3 -0.3,3.85 -0.4,4 h 28.4 l 13.6,0.6 Q 44.85,35.5 44.7,32.45 L 44.55,25 l 0.1,-1.45 -1.1,0.05"
         fill="#9a9a9a"
         fill-rule="evenodd"
         stroke="none"
         id="path66" />
    </g>
    <g
       id="sprite12">
      <use
         ffdec:characterId="321"
         height="39.099998"
         width="4.4499998"
         xlink:href="#shape11"
         id="use66" />
    </g>
    <g
       id="shape11">
      <path
         d="M 2.9,2.15 2.95,1.6 H 2.8 2.75 2.3 2.15 2 1.8 L 1.85,1.9 1.9,2.1 1.95,2.65 v 0.1 Q 2.4,2.45 2.8,2.5 H 2.85 L 2.9,2.15 M 3.75,1.3 4.4,5.05 4.45,35.5 v 1.85 l -0.2,0.85 -0.2,0.45 Q 3.6,39 2.2,39 L 1.3,38.95 1,39.1 0.7,38.85 0.2,38.6 0.1,38.1 0.3,37.55 0,33.5 V 27.8 L 0.05,5.1 0.1,2.55 Q 0.15,1.55 0.5,0.9 V 0.8 Q 0.5,0.35 0.8,0.2 L 2.15,0 Q 4,0 4,0.8 L 3.75,1.3 m -1.8,2.9 v 1 1.05 L 2.45,6.05 2.65,6 V 5.75 5.55 L 2.75,3.6 Q 2.6,3.65 2.45,3.8 L 1.95,4.2 M 2,11.85 V 14.4 Q 2.25,14.25 2.55,14.2 V 11.65 L 2,11.85 M 2,10.65 2.55,10.35 2.6,7.3 1.95,7.8 2,10.65 M 2.15,15.7 2,15.9 v 3.3 l 0.5,-0.15 0.05,-3.7 -0.4,0.35 m 0.35,6.75 v -0.9 -1.3 L 2,20.6 v 2.2 L 2.5,22.45 M 2,24.15 v 3 l 0.5,-0.3 V 23.7 L 2,24.15 M 2.5,27.9 2.05,28.3 2.1,31.75 2.55,31.25 2.5,30.15 V 27.9 M 2,36.4 1.9,36.45 1.85,37.2 H 2.15 2.9 L 2.75,35.8 2,36.4 M 2.55,32.65 2.1,33 2.05,34.7 2.65,34.3 2.55,32.65"
         fill="#9a9a9a"
         fill-rule="evenodd"
         stroke="none"
         id="path67" />
      <path
         d="M 2.9,2.15 2.85,2.5 H 2.8 Q 2.4,2.45 1.95,2.75 V 2.65 L 1.9,2.1 1.85,1.9 1.8,1.6 H 2 2.15 2.3 2.75 2.8 2.95 L 2.9,2.15 M 2.55,32.65 2.65,34.3 2.05,34.7 2.1,33 2.55,32.65 M 2,36.4 2.75,35.8 2.9,37.2 H 2.15 1.85 L 1.9,36.45 2,36.4 m 0.5,-8.5 v 2.25 L 2.55,31.25 2.1,31.75 2.05,28.3 2.5,27.9 M 2,24.15 2.5,23.7 v 3.15 L 2,27.15 v -3 M 2.5,22.45 2,22.8 v -2.2 l 0.5,-0.35 v 1.3 0.9 M 2.15,15.7 2.55,15.35 2.5,19.05 2,19.2 V 15.9 L 2.15,15.7 M 2,10.65 1.95,7.8 2.6,7.3 2.55,10.35 2,10.65 m 0,1.2 0.55,-0.2 V 14.2 Q 2.25,14.25 2,14.4 V 11.85 M 1.95,4.2 2.45,3.8 Q 2.6,3.65 2.75,3.6 L 2.65,5.55 V 5.75 6 l -0.2,0.05 -0.5,0.2 V 5.2 4.2"
         fill="#a5a29f"
         fill-rule="evenodd"
         stroke="none"
         id="path68" />
    </g>
    <g
       id="sprite13">
      <use
         ffdec:characterId="306"
         height="37.650002"
         width="49.049999"
         xlink:href="#shape4"
         id="use68" />
    </g>
    <g
       id="sprite14"
       transform="translate(0.75,0.75)">
      <use
         ffdec:characterId="310"
         height="23.65"
         transform="translate(-0.75,-0.75)"
         width="8"
         xlink:href="#shape12"
         id="use69" />
    </g>
    <g
       id="shape12"
       transform="translate(0.75,0.75)">
      <path
         d="m 6.4,1.45 v 1.1 L 6.5,2.85 6.35,4.2 v 7.9 Q 6.5,19.9 6.1,21.6 v 0.1 L 6,22.05 5.2,22.15 q -0.75,0 -0.9,-0.45 L 4.2,21.05 q -0.5,0 -0.7,0.3 -0.15,0.3 -0.7,0.3 -0.5,0 -1.1,-0.9 L 0.1,20.25 V 18.45 14 L 0.05,13.95 0,6.35 Q 0,2.4 0.3,0.95 L 0.25,0.9 0.2,0.55 0.45,0.25 q 0.2,-0.45 0.5,-0.1 L 2.2,0.05 q 1.7,0 1.95,0.35 l 0.3,0.15 1.1,-0.2 q 0.7,0 0.85,1.1 M 3.9,1.05 2.5,1.15 1.2,1.1 V 12.6 L 1.15,12.7 1.05,19.1 1,19.4 q 0.05,0.3 0.4,0.4 0.6,0.15 0.85,0.45 l 0.45,0.2 1,-0.2 q 1.15,0 1.3,0.35 v 0.75 L 5.15,21.4 5.2,20.95 5.25,20.3 V 6.55 L 5.05,4.95 5,1.35 q -0.9,0 -1.1,-0.3"
         fill="#9a9a9a"
         fill-rule="evenodd"
         stroke="none"
         id="path69" />
      <path
         d="m 3.9,1.05 q 0.2,0.3 1.1,0.3 l 0.05,3.6 0.2,1.6 V 20.3 L 5.2,20.95 5.15,21.4 5,21.35 V 20.6 Q 4.85,20.25 3.7,20.25 l -1,0.2 -0.45,-0.2 Q 2,19.95 1.4,19.8 1.05,19.7 1,19.4 L 1.05,19.1 1.15,12.7 1.2,12.6 V 1.1 l 1.3,0.05 1.4,-0.1"
         fill="#b4b4b4"
         fill-rule="evenodd"
         stroke="none"
         id="path70" />
      <path
         d="m 6.4,1.45 v 1.1 L 6.5,2.85 6.35,4.2 v 7.9 Q 6.5,19.9 6.1,21.6 v 0.1 L 6,22.05 5.2,22.15 q -0.75,0 -0.9,-0.45 L 4.2,21.05 q -0.5,0 -0.7,0.3 -0.15,0.3 -0.7,0.3 -0.5,0 -1.1,-0.9 L 0.1,20.25 V 18.45 14 L 0.05,13.95 0,6.35 Q 0,2.4 0.3,0.95 L 0.25,0.9 0.2,0.55 0.45,0.25 q 0.2,-0.45 0.5,-0.1 L 2.2,0.05 q 1.7,0 1.95,0.35 l 0.3,0.15 1.1,-0.2 q 0.7,0 0.85,1.1 z"
         fill="none"
         stroke="#9a9a9a"
         stroke-linecap="round"
         stroke-linejoin="round"
         stroke-width="1.5"
         id="path71" />
    </g>
    <g
       id="sprite15">
      <use
         ffdec:characterId="273"
         height="52.549999"
         width="54.5"
         xlink:href="#shape13"
         id="use71" />
    </g>
    <g
       id="shape13">
      <path
         d="m 53.7,1.1 0.45,1.15 v 0.2 L 54.2,2.6 v 21.95 2.6 l 0.3,22.2 q 0,2.5 -1.9,2.5 H 52.2 L 51.25,52.1 39.3,52.55 H 1.75 Q 0.8,52.6 0.3,51.85 0,51.3 0,50.75 L 0.1,49.8 0.8,49.35 0.75,49.3 V 33.9 L 0.6,16.35 Q 0.05,12.9 0.05,9.7 -0.05,3.4 2.3,3.2 H 2.45 Q 3.8,2.35 7.1,1.55 L 8.7,1.25 Q 10.4,-0.3 25.75,0.1 l 8.85,0.35 h 17.7 q 0.85,0 1.4,0.65 M 46.5,7.75 50.35,4 12.55,3.95 11.8,3.8 9.8,4.55 5.3,5.35 4.75,5.5 7.55,7.25 q 1.9,1.15 3,2.3 l 0.3,-0.15 q 0.4,-0.1 0.4,-0.55 h 27.1 l 6.4,0.4 1.75,-1.5 m -3,2.7 -5.15,0.15 h -9.5 v 0.65 L 28.7,12.9 v 0.9 l 0.25,7.8 0.2,11.85 v 5.35 l -0.25,3.25 14.4,0.05 0.55,0.1 q -0.3,-1.3 -0.3,-3 l 0.1,-4.35 q -0.1,-1.75 -0.05,-5 l 0.05,-1.15 -2.7,2.5 -0.15,-0.15 v -0.4 q 0,-0.2 1.1,-1.55 0.9,-1.1 1.75,-1.75 V 27 H 43.2 q -0.8,0 -0.8,-0.35 l 1.1,-0.7 0.15,-0.05 0.05,-8.05 q 0.05,-4.05 0.45,-6.9 L 44.05,11 43.65,10.85 Q 43.5,10.8 43.5,10.45 m 1.25,0.05 q 0.35,1.15 0.35,3.05 L 45,17.9 v 8.65 l 0.05,3.5 -0.05,5.1 0.15,4.3 q 0,2 -0.55,3.4 1,0.35 3.4,3.1 l 2.7,3.3 0.25,-22 v -2.8 -19.8 l -2.5,2.55 -3.7,3.3 M 43.3,43.85 Q 12.05,43.95 11.5,44.1 L 10.8,43.75 7.7,47 5.65,48.95 h 7.9 l 11.8,-0.1 13.95,0.1 q 5.5,-0.1 8.8,0.15 L 47,47.7 44.15,43.75 43.3,43.85 M 27.25,11.3 27.3,10.6 H 11.4 l 0.25,0.4 -0.1,0.3 -0.5,0.15 -0.05,-0.05 0.35,5.95 0.25,9.05 -0.1,15.45 0.55,0.1 15.3,0.1 V 41.9 13.05 L 27.25,11.3 M 4.4,9.3 q 0,3.15 -0.4,7 v 1.45 L 4.1,20 q 0.75,17.2 0.75,24.2 v 2.85 l 0.9,-0.8 Q 8.6,43.7 10.4,42.4 10.05,40.6 9.95,34.9 V 26.5 L 10,18.25 q 0.15,-3.9 0.6,-7.1 L 4.3,6.35 4.4,9.3"
         fill="#9a9a9a"
         fill-rule="evenodd"
         stroke="none"
         id="path72" />
      <path
         d="m 43.5,10.45 q 0,0.35 0.15,0.4 l 0.4,0.15 0.1,-0.05 q -0.4,2.85 -0.45,6.9 l -0.05,8.05 -0.15,0.05 -1.1,0.7 q 0,0.35 0.8,0.35 h 0.45 v 0.35 Q 42.8,28 41.9,29.1 q -1.1,1.35 -1.1,1.55 v 0.4 l 0.15,0.15 2.7,-2.5 -0.05,1.15 q -0.05,3.25 0.05,5 l -0.1,4.35 q 0,1.7 0.3,3 L 43.3,42.1 28.9,42.05 29.15,38.8 V 33.45 L 28.95,21.6 28.7,13.8 v -0.9 l 0.15,-1.65 V 10.6 h 9.5 l 5.15,-0.15 m 3,-2.7 -1.75,1.5 -6.4,-0.4 h -27.1 q 0,0.45 -0.4,0.55 l -0.3,0.15 Q 9.45,8.4 7.55,7.25 L 4.75,5.5 5.3,5.35 9.8,4.55 11.8,3.8 12.55,3.95 50.35,4 46.5,7.75 M 4.4,9.3 4.3,6.35 l 6.3,4.8 q -0.45,3.2 -0.6,7.1 L 9.95,26.5 v 8.4 q 0.1,5.7 0.45,7.5 -1.8,1.3 -4.65,3.85 l -0.9,0.8 V 44.2 Q 4.85,37.2 4.1,20 L 4,17.75 V 16.3 q 0.4,-3.85 0.4,-7 m 22.85,2 0.1,1.75 V 41.9 42.05 L 12.05,41.95 11.5,41.85 11.6,26.4 11.35,17.35 11,11.4 l 0.05,0.05 0.5,-0.15 0.1,-0.3 -0.25,-0.4 h 15.9 l -0.05,0.7"
         fill="#afafaf"
         fill-rule="evenodd"
         stroke="none"
         id="path73" />
      <path
         d="m 43.3,43.85 0.85,-0.1 2.85,3.95 1.1,1.4 q -3.3,-0.25 -8.8,-0.15 l -13.95,-0.1 -11.8,0.1 H 5.65 L 7.7,47 l 3.1,-3.25 0.7,0.35 q 0.55,-0.15 31.8,-0.25 m 1.45,-33.35 3.7,-3.3 2.5,-2.55 v 19.8 2.8 l -0.25,22 -2.7,-3.3 q -2.4,-2.75 -3.4,-3.1 0.55,-1.4 0.55,-3.4 L 45,35.15 45.05,30.05 45,26.55 V 17.9 l 0.1,-4.35 q 0,-1.9 -0.35,-3.05"
         fill="#bcbcbc"
         fill-rule="evenodd"
         stroke="none"
         id="path74" />
    </g>
    <g
       id="sprite16">
      <use
         ffdec:characterId="321"
         height="39.099998"
         width="4.4499998"
         xlink:href="#shape14"
         id="use74" />
    </g>
    <g
       id="shape14">
      <path
         d="M 2.9,2.15 2.95,1.6 H 2.8 2.75 2.3 2.15 2 1.8 L 1.85,1.9 1.9,2.1 1.95,2.65 v 0.1 Q 2.4,2.45 2.8,2.5 H 2.85 L 2.9,2.15 M 3.75,1.3 4.4,5.05 4.45,35.5 v 1.85 l -0.2,0.85 -0.2,0.45 Q 3.6,39 2.2,39 L 1.3,38.95 1,39.1 0.7,38.85 0.2,38.6 0.1,38.1 0.3,37.55 0,33.5 V 27.8 L 0.05,5.1 0.1,2.55 Q 0.15,1.55 0.5,0.9 V 0.8 Q 0.5,0.35 0.8,0.2 L 2.15,0 Q 4,0 4,0.8 L 3.75,1.3 m -1.8,2.9 v 1 1.05 L 2.45,6.05 2.65,6 V 5.75 5.55 L 2.75,3.6 Q 2.6,3.65 2.45,3.8 L 1.95,4.2 M 2,11.85 V 14.4 Q 2.25,14.25 2.55,14.2 V 11.65 L 2,11.85 M 2,10.65 2.55,10.35 2.6,7.3 1.95,7.8 2,10.65 M 2.15,15.7 2,15.9 v 3.3 l 0.5,-0.15 0.05,-3.7 -0.4,0.35 m 0.35,6.75 v -0.9 -1.3 L 2,20.6 v 2.2 L 2.5,22.45 M 2,24.15 v 3 l 0.5,-0.3 V 23.7 L 2,24.15 M 2.5,27.9 2.05,28.3 2.1,31.75 2.55,31.25 2.5,30.15 V 27.9 M 2,36.4 1.9,36.45 1.85,37.2 H 2.15 2.9 L 2.75,35.8 2,36.4 M 2.55,32.65 2.1,33 2.05,34.7 2.65,34.3 2.55,32.65"
         fill="#6b6b6b"
         fill-rule="evenodd"
         stroke="none"
         id="path75" />
      <path
         d="M 2.9,2.15 2.85,2.5 H 2.8 Q 2.4,2.45 1.95,2.75 V 2.65 L 1.9,2.1 1.85,1.9 1.8,1.6 H 2 2.15 2.3 2.75 2.8 2.95 L 2.9,2.15 M 2.55,32.65 2.65,34.3 2.05,34.7 2.1,33 2.55,32.65 M 2,36.4 2.75,35.8 2.9,37.2 H 2.15 1.85 L 1.9,36.45 2,36.4 m 0.5,-8.5 v 2.25 L 2.55,31.25 2.1,31.75 2.05,28.3 2.5,27.9 M 2,24.15 2.5,23.7 v 3.15 L 2,27.15 v -3 M 2.5,22.45 2,22.8 v -2.2 l 0.5,-0.35 v 1.3 0.9 M 2.15,15.7 2.55,15.35 2.5,19.05 2,19.2 V 15.9 L 2.15,15.7 M 2,10.65 1.95,7.8 2.6,7.3 2.55,10.35 2,10.65 m 0,1.2 0.55,-0.2 V 14.2 Q 2.25,14.25 2,14.4 V 11.85 M 1.95,4.2 2.45,3.8 Q 2.6,3.65 2.75,3.6 L 2.65,5.55 V 5.75 6 l -0.2,0.05 -0.5,0.2 V 5.2 4.2"
         fill="#877f77"
         fill-rule="evenodd"
         stroke="none"
         id="path76" />
    </g>
    <g
       id="sprite17"
       transform="translate(0,0.5)">
      <use
         ffdec:characterId="279"
         height="25.5"
         transform="translate(0,-0.5)"
         width="5.3000002"
         xlink:href="#shape1"
         id="use76" />
    </g>
    <g
       id="sprite18">
      <use
         ffdec:characterId="287"
         height="48.799999"
         width="9.1999998"
         xlink:href="#shape15"
         id="use77" />
    </g>
    <g
       id="shape15">
      <path
         d="M 5.65,0.05 Q 8.4,0.2 8.95,1.1 L 9.2,18.55 v 9.4 2.3 L 8.95,47.6 v 0.1 H 8.9 q -0.6,0.9 -3.25,1.05 l -1,0.05 H 4.55 L 3.45,48.75 Q 0.8,48.6 0.25,47.7 L 0.1,38.2 0.05,31.55 0,27.95 0.05,18.55 0.25,1.1 Q 0.8,0.2 3.45,0.05 L 4.55,0 h 0.1 l 1,0.05 m 0.55,27 V 26.7 18.55 L 6.25,11.8 6.4,7 V 6.55 Q 6.35,5.2 6.55,4.2 L 6.7,2.8 H 6.15 L 5.05,2.85 H 4.6 4.35 4.15 3.4 L 2.5,2.8 2.65,4.2 2.8,6.55 V 7 L 2.95,11.8 3,18.55 v 8.15 1.5 2.05 3.55 1.3 2.45 0.65 H 2.95 L 2.8,41.8 v 0.45 L 2.65,44.6 2.5,46 3.4,45.95 h 0.75 0.45 0.15 0.3 0.3 L 6.15,46 H 6.7 L 6.55,44.6 Q 6.35,43.6 6.4,42.25 V 41.8 L 6.3,38.2 H 6.25 L 6.2,37.55 v -2.45 -3.65 -1.2 -3.2"
         fill="#6b6b6b"
         fill-rule="evenodd"
         stroke="none"
         id="path77" />
      <path
         d="m 6.2,27.05 v 3.2 1.2 l -0.25,1.6 q -0.9,5.8 -0.9,8.5 l 0.3,4.4 H 5.05 4.75 L 4.65,45.4 Q 4.5,44.55 4.5,43.05 4.5,39.1 5.25,34.2 L 6.2,27.05 M 3,33.8 V 30.25 28.2 l 0.2,-1.3 1,-6.35 V 7.65 L 4.35,2.85 H 4.6 L 4.75,7.8 V 20.7 L 4.8,21 3.9,27.8 3,33.8"
         fill="#989898"
         fill-rule="evenodd"
         stroke="none"
         id="path78" />
      <path
         d="M 4.6,2.85 H 5.05 L 6.15,2.8 H 6.7 L 6.55,4.2 Q 6.35,5.2 6.4,6.55 V 7 L 6.25,11.8 6.2,18.55 v 8.15 0.35 L 5.25,34.2 q -0.75,4.9 -0.75,8.85 0,1.5 0.15,2.35 l 0.1,0.55 H 4.6 4.15 3.4 L 2.5,46 2.65,44.6 2.8,42.25 V 41.8 L 2.95,38.2 H 3 V 37.55 35.1 33.8 L 3.9,27.8 4.8,21 4.75,20.7 V 7.8 L 4.6,2.85 m 1.6,28.6 v 3.65 2.45 L 6.25,38.2 H 6.3 l 0.1,3.6 v 0.45 Q 6.35,43.6 6.55,44.6 L 6.7,46 H 6.15 l -0.8,-0.05 -0.3,-4.4 q 0,-2.7 0.9,-8.5 L 6.2,31.45 M 3,28.2 V 26.7 18.55 L 2.95,11.8 2.8,7 V 6.55 L 2.65,4.2 2.5,2.8 3.4,2.85 h 0.75 0.2 L 4.2,7.65 v 12.9 L 3.2,26.9 3,28.2"
         fill="#b2a69a"
         fill-rule="evenodd"
         stroke="none"
         id="path79" />
    </g>
    <g
       id="sprite19"
       transform="translate(-0.05)">
      <use
         ffdec:characterId="317"
         height="19.200001"
         transform="translate(0.05)"
         width="4.5999999"
         xlink:href="#shape16"
         id="use79" />
    </g>
    <g
       id="shape16"
       transform="translate(-0.05)">
      <path
         d="M 4.5,1.9 V 9.25 Q 4.65,14.1 4.45,16.6 v 0.1 l 0.15,1.35 0.05,0.35 q 0,0.4 -0.7,0.6 l -0.35,0.2 -0.15,-0.1 -2,0.1 -0.5,-0.15 H 0.9 q -0.85,0 -0.85,-1.1 L 0.2,16.25 V 11.4 L 0.15,11.05 0.2,11 V 5.85 L 0.05,4.55 V 4.35 4 q 0,-2.05 0.3,-3.85 L 0.3,0.3 V 0.2 0.15 H 0.35 L 1.85,0 3.65,0.4 Q 4.5,0 4.5,1.9 M 2.7,2.35 2.85,1.5 H 2.2 2.05 L 2.2,1.55 H 1.65 l 0.1,1.3 0.95,-0.4 V 2.35 M 1.65,5.7 V 6.35 Q 2.15,6.1 2.7,6 V 3.25 L 1.75,3.95 1.65,5.7 m 0,5.4 v 1.8 L 2.7,12.25 V 10.4 L 2.2,10.75 1.65,11.1 M 2.7,9.45 V 7.1 L 1.65,7.6 V 9.95 Q 2.25,9.55 2.7,9.45 M 1.75,16.2 q 0.65,-0.45 1.1,-0.6 l -0.1,-2.15 -1.1,0.6 v 2.25 l 0.1,-0.1 m 0.1,1.45 1.2,0.05 -0.15,-1.25 -1.1,0.75 0.05,0.45"
         fill="#6b6b6b"
         fill-rule="evenodd"
         stroke="none"
         id="path80" />
      <path
         d="M 1.85,17.65 1.8,17.2 2.9,16.45 3.05,17.7 1.85,17.65 m -0.1,-1.45 -0.1,0.1 v -2.25 l 1.1,-0.6 0.1,2.15 Q 2.4,15.75 1.75,16.2 M 2.7,9.45 Q 2.25,9.55 1.65,9.95 V 7.6 L 2.7,7.1 V 9.45 M 1.65,11.1 2.2,10.75 2.7,10.4 v 1.85 L 1.65,12.9 v -1.8 m 0,-5.4 0.1,-1.75 0.95,-0.7 V 6 Q 2.15,6.1 1.65,6.35 V 5.7 M 2.7,2.35 v 0.1 L 1.75,2.85 1.65,1.55 H 2.2 L 2.05,1.5 H 2.2 2.85 L 2.7,2.35"
         fill="#877f77"
         fill-rule="evenodd"
         stroke="none"
         id="path81" />
    </g>
    <g
       id="sprite20">
      <use
         ffdec:characterId="275"
         height="40.849998"
         width="49.400002"
         xlink:href="#shape17"
         id="use81" />
    </g>
    <g
       id="shape17">
      <path
         d="M 46.8,2.85 47.4,2.8 Q 46,6 45.8,8.3 L 44.85,7.1 45.5,9.25 45.75,9.8 44.95,16.7 44.3,21.35 43.55,21.3 H 3.95 V 14.4 L 4.1,7.15 3.85,3.3 h 28.6 L 46.8,2.85 m -3.25,20.75 1.1,-0.05 -0.1,1.45 0.15,7.45 q 0.15,3.05 0.45,4.9 l -13.6,-0.6 H 3.15 l 0.4,-4 0.3,-3.85 0.25,-0.3 1,-1.25 L 6,27.1 q 1.85,-0.6 2.75,-1.45 l -3.6,0.25 -1.2,0.35 V 25.7 L 3.7,24.9 3.85,23.55 43.55,23.6"
         fill="#c4c4c4"
         fill-rule="evenodd"
         stroke="none"
         id="path82" />
      <path
         d="M 46.8,2.85 32.45,3.3 H 3.85 L 4.1,7.15 3.95,14.4 v 6.9 h 39.6 L 44.3,21.35 44.95,16.7 45.75,9.8 45.5,9.25 44.85,7.1 45.8,8.3 Q 46,6 47.4,2.8 l -0.6,0.05 m 2,1.8 0.2,0.95 -0.1,0.3 q -0.35,1.6 -0.4,4.75 l -0.45,3.45 v 0.2 l -0.6,3.25 q -0.3,1.9 -0.3,5.25 l 0.65,7.35 -0.05,2.6 q -0.2,4.05 -0.65,5.85 v 0.2 l -0.45,0.95 -0.45,0.3 H 46.15 L 45.1,40.3 31.55,40.8 2.75,40.85 1.7,40.55 Q 0.55,40.5 0,39.95 L 1.5,30.4 1.45,29.3 1.85,27.5 1.5,26.35 1.8,21.45 V 13.05 4.8 L 1.85,0.6 Q 2.35,0.15 3.8,0 h 28.65 l 14.6,0.5 q 2.35,0.25 2.35,1.2 l -0.2,0.5 0.05,0.7 Q 48.8,3.8 48.8,4.65 M 43.55,23.6 3.85,23.55 3.7,24.9 3.95,25.7 v 0.55 l 1.2,-0.35 3.6,-0.25 Q 7.85,26.5 6,27.1 l -0.9,0.25 -1,1.25 -0.25,0.3 -0.3,3.85 -0.4,4 h 28.4 l 13.6,0.6 Q 44.85,35.5 44.7,32.45 L 44.55,25 l 0.1,-1.45 -1.1,0.05"
         fill="#6b6b6b"
         fill-rule="evenodd"
         stroke="none"
         id="path83" />
    </g>
    <g
       id="sprite21">
      <use
         ffdec:characterId="306"
         height="37.650002"
         width="49.049999"
         xlink:href="#shape18"
         id="use83" />
    </g>
    <g
       id="shape18">
      <path
         d="M 44,5.55 44.1,3.3 H 3.85 V 4.9 L 3.2,11.55 v 23.1 h 19.75 l -1.5,-1.45 0.05,-0.6 q 1.05,0.05 2.05,1.05 l 0.5,0.6 q 0.35,-0.35 1,-0.8 1.3,-0.9 1.7,-0.9 L 27,32.7 24.65,34.65 H 44.1 V 19.7 L 43,20.3 q -2.95,1.4 -3.35,1.75 L 39.5,21.9 42.15,19.3 q 1.2,-1.1 1.95,-1.5 V 9 L 44,5.55 m 5,30.25 -0.75,0.5 v 0.05 q 0,0.4 -2.45,0.75 v 0.15 l -0.6,0.3 -33.8,0.1 L 1.9,37.2 1.45,37.05 H 1.1 q -0.8,-0.2 -1,-0.6 L 0,35.8 Q 0.05,35.4 0.65,34.95 0.15,31.6 0.2,22.95 L 0,13.75 Q 0.05,9.4 0.4,6.35 L 0.25,4.95 Q 0,2.15 0.95,1.3 q 0,-0.85 1,-1 L 8.1,0 h 36.5 l 0.6,0.3 0.25,-0.05 0.35,0.05 v 0.05 l 3.25,0.3 V 35 L 49,35.8"
         fill="#6b6b6b"
         fill-rule="evenodd"
         stroke="none"
         id="path84" />
      <path
         d="M 44,5.55 44.1,9 v 8.8 q -0.75,0.4 -1.95,1.5 l -2.65,2.6 0.15,0.15 Q 40.05,21.7 43,20.3 l 1.1,-0.6 V 34.65 H 24.65 L 27,32.7 26.75,32.55 q -0.4,0 -1.7,0.9 -0.65,0.45 -1,0.8 l -0.5,-0.6 q -1,-1 -2.05,-1.05 l -0.05,0.6 1.5,1.45 H 3.2 V 11.55 L 3.85,4.9 V 3.3 H 44.1 L 44,5.55"
         fill="#b6b6b6"
         fill-rule="evenodd"
         stroke="none"
         id="path85" />
    </g>
    <g
       id="sprite22"
       transform="translate(0,-0.9)">
      <use
         ffdec:characterId="319"
         height="29.15"
         transform="translate(0,0.9)"
         width="34.200001"
         xlink:href="#shape19"
         id="use85" />
    </g>
    <g
       id="shape19"
       transform="translate(0,-0.9)">
      <path
         d="m 31.15,4.3 -0.2,2 -0.1,6.65 0.05,7.9 q 0.15,3.6 0.55,5.6 l -4,-0.15 -24,0.05 V 23.75 18.3 Q 4.35,16.8 5.4,16 4.25,16 3.45,16.6 L 3.4,4.2 6.15,4.45 H 19.4 l -0.7,0.6 -2.2,2.1 q 1.35,-0.5 2.75,-1.75 l 0.9,-0.95 H 22.8 Q 28.2,4.6 31.15,4.3"
         fill="#b6b6b6"
         fill-rule="evenodd"
         stroke="none"
         id="path86" />
      <path
         d="M 31.15,4.3 Q 28.2,4.6 22.8,4.45 h -2.65 l -0.9,0.95 q -1.4,1.25 -2.75,1.75 l 2.2,-2.1 0.7,-0.6 H 6.15 L 3.4,4.2 3.45,16.6 Q 4.25,16 5.4,16 4.35,16.8 3.45,18.3 v 5.45 2.6 l 24,-0.05 4,0.15 q -0.4,-2 -0.55,-5.6 l -0.05,-7.9 0.1,-6.65 0.2,-2 m 2.7,-2.45 v 11.65 9.7 q 0.1,2.3 0.35,4.05 l -0.35,1.15 0.05,0.3 q 0,0.65 -1.2,1.2 L 3,29.95 2.25,30.05 q -1.25,0 -1.5,-0.6 L 0.7,28.85 0.5,28.2 0,26.45 V 23.75 3.35 L 0.15,2.5 V 2.45 Q 0,2.3 0,1.85 0,1.3 0.35,1.1 L 0.85,0.9 H 33.8 l 0.05,0.95"
         fill="#6b6b6b"
         fill-rule="evenodd"
         stroke="none"
         id="path87" />
    </g>
    <g
       id="sprite23">
      <use
         ffdec:characterId="304"
         height="32.549999"
         width="45"
         xlink:href="#shape20"
         id="use87" />
    </g>
    <g
       id="shape20">
      <path
         d="m 43.85,7.5 q -2.25,9.15 -2.25,9.65 l 0.75,6.6 0.75,6.5 -0.3,1.1 -0.45,0.55 -0.05,0.05 q -0.4,0.6 -1.15,0.6 L 2.7,32.4 2.25,32.1 1.55,32.25 Q 0.05,32.25 0,30.6 0,30.1 0.15,29.85 V 13.8 L 0.3,4.65 0.1,2.3 Q 0.05,0.7 0.8,0.15 1.25,-0.15 5.9,0.1 l 6.45,0.7 Q 14.8,1.15 15.5,1.95 H 35.9 L 44.2,2.4 Q 45,2.65 45,3.25 L 44.9,3.65 45,4.5 44.9,5.9 43.85,7.5 M 43.15,4.3 35.9,4.5 H 21.7 q 0.7,1.25 0.55,3.55 l -0.5,5.8 -0.15,6.15 -0.25,4.3 v 5.55 h 18.9 Q 39.75,28.1 39.3,25.1 l -0.85,-7 -0.65,0.3 q -2,0.95 -2.4,1.55 -0.55,-0.15 -0.7,-0.4 L 37,17.8 q 0.95,-0.7 1.65,-1 L 40.3,11.6 Q 41.9,7 43.1,4.75 L 43.15,4.3 m -22.5,0.2 h -4.6 L 16.1,6 15.5,6.3 15.1,4.3 14.4,3.75 12.85,3.45 2.9,2.7 3.05,30 6.6,29.85 h 13.75 l -0.35,-0.5 0.2,-13.6 -0.05,-1.9 q 0,-2.45 0.25,-4.6 L 20.65,4.5"
         fill="#6b6b6b"
         fill-rule="evenodd"
         stroke="none"
         id="path88" />
      <path
         d="M 20.65,4.5 20.4,9.25 q -0.25,2.15 -0.25,4.6 l 0.05,1.9 -0.2,13.6 0.35,0.5 H 6.6 L 3.05,30 2.9,2.7 l 9.95,0.75 1.55,0.3 0.7,0.55 0.4,2 L 16.1,6 16.05,4.5 h 4.6 M 43.15,4.3 43.1,4.75 Q 41.9,7 40.3,11.6 l -1.65,5.2 q -0.7,0.3 -1.65,1 l -2.3,1.75 q 0.15,0.25 0.7,0.4 0.4,-0.6 2.4,-1.55 l 0.65,-0.3 0.85,7 q 0.45,3 0.95,4.75 H 21.35 V 24.3 l 0.25,-4.3 0.15,-6.15 0.5,-5.8 Q 22.4,5.75 21.7,4.5 h 14.2 l 7.25,-0.2"
         fill="#c4c4c4"
         fill-rule="evenodd"
         stroke="none"
         id="path89" />
    </g>
    <g
       id="sprite24"
       transform="translate(0.75,0.75)">
      <use
         ffdec:characterId="310"
         height="23.65"
         transform="translate(-0.75,-0.75)"
         width="8"
         xlink:href="#shape21"
         id="use89" />
    </g>
    <g
       id="shape21"
       transform="translate(0.75,0.75)">
      <path
         d="m 6.4,1.45 v 1.1 L 6.5,2.85 6.35,4.2 v 7.9 Q 6.5,19.9 6.1,21.6 v 0.1 L 6,22.05 5.2,22.15 q -0.75,0 -0.9,-0.45 L 4.2,21.05 q -0.5,0 -0.7,0.3 -0.15,0.3 -0.7,0.3 -0.5,0 -1.1,-0.9 L 0.1,20.25 V 18.45 14 L 0.05,13.95 0,6.35 Q 0,2.4 0.3,0.95 L 0.25,0.9 0.2,0.55 0.45,0.25 q 0.2,-0.45 0.5,-0.1 L 2.2,0.05 q 1.7,0 1.95,0.35 l 0.3,0.15 1.1,-0.2 q 0.7,0 0.85,1.1 M 3.9,1.05 2.5,1.15 1.2,1.1 V 12.6 L 1.15,12.7 1.05,19.1 1,19.4 q 0.05,0.3 0.4,0.4 0.6,0.15 0.85,0.45 l 0.45,0.2 1,-0.2 q 1.15,0 1.3,0.35 v 0.75 L 5.15,21.4 5.2,20.95 5.25,20.3 V 6.55 L 5.05,4.95 5,1.35 q -0.9,0 -1.1,-0.3"
         fill="#6b6b6b"
         fill-rule="evenodd"
         stroke="none"
         id="path90" />
      <path
         d="m 3.9,1.05 q 0.2,0.3 1.1,0.3 l 0.05,3.6 0.2,1.6 V 20.3 L 5.2,20.95 5.15,21.4 5,21.35 V 20.6 Q 4.85,20.25 3.7,20.25 l -1,0.2 -0.45,-0.2 Q 2,19.95 1.4,19.8 1.05,19.7 1,19.4 L 1.05,19.1 1.15,12.7 1.2,12.6 V 1.1 l 1.3,0.05 1.4,-0.1"
         fill="#afafaf"
         fill-rule="evenodd"
         stroke="none"
         id="path91" />
      <path
         d="m 6.4,1.45 v 1.1 L 6.5,2.85 6.35,4.2 v 7.9 Q 6.5,19.9 6.1,21.6 v 0.1 L 6,22.05 5.2,22.15 q -0.75,0 -0.9,-0.45 L 4.2,21.05 q -0.5,0 -0.7,0.3 -0.15,0.3 -0.7,0.3 -0.5,0 -1.1,-0.9 L 0.1,20.25 V 18.45 14 L 0.05,13.95 0,6.35 Q 0,2.4 0.3,0.95 L 0.25,0.9 0.2,0.55 0.45,0.25 q 0.2,-0.45 0.5,-0.1 L 2.2,0.05 q 1.7,0 1.95,0.35 l 0.3,0.15 1.1,-0.2 q 0.7,0 0.85,1.1 z"
         fill="none"
         stroke="#6b6b6b"
         stroke-linecap="round"
         stroke-linejoin="round"
         stroke-width="1.5"
         id="path92" />
    </g>
    <g
       id="sprite25"
       transform="translate(0.75,0.75)">
      <use
         ffdec:characterId="291"
         height="15.45"
         transform="translate(-0.75,-0.75)"
         width="7.3499999"
         xlink:href="#shape22"
         id="use92" />
    </g>
    <g
       id="shape22"
       transform="translate(0.75,0.75)">
      <path
         d="m 5.8,9.2 v 2.45 1.2 q 0,0.75 -0.45,0.75 l -0.3,-0.1 -0.5,0.05 -3.2,0.05 -0.25,0.15 -0.35,0.2 q -0.9,0 -0.7,-2.95 L 0.1,3.35 0.2,2.9 0.05,1.55 Q 0.05,0.2 0.45,0.1 L 0.65,0 H 1.8 L 5.15,0.1 5.75,0.45 5.85,0.6 5.8,0.75 V 5.3 L 4.95,0.9 1.8,1.05 H 1.15 L 1.2,2.05 1.05,3.85 1.2,11.6 1.25,12.5 2.6,12.45 3.9,12.4 4.95,12.45 5.8,9.2"
         fill="#6b6b6b"
         fill-rule="evenodd"
         stroke="none"
         id="path93" />
      <path
         d="M 5.8,5.3 V 9.2 L 4.95,12.45 3.9,12.4 2.6,12.45 1.25,12.5 1.2,11.6 1.05,3.85 1.2,2.05 1.15,1.05 H 1.8 L 4.95,0.9 5.8,5.3"
         fill="#ada59f"
         fill-rule="evenodd"
         stroke="none"
         id="path94" />
      <path
         d="m 5.8,9.2 v 2.45 1.2 q 0,0.75 -0.45,0.75 l -0.3,-0.1 -0.5,0.05 -3.2,0.05 -0.25,0.15 -0.35,0.2 q -0.9,0 -0.7,-2.95 L 0.1,3.35 0.2,2.9 0.05,1.55 Q 0.05,0.2 0.45,0.1 L 0.65,0 H 1.8 L 5.15,0.1 5.75,0.45 5.85,0.6 5.8,0.75 V 5.3 Z"
         fill="none"
         stroke="#6b6b6b"
         stroke-linecap="round"
         stroke-linejoin="round"
         stroke-width="1.5"
         id="path95" />
    </g>
    <g
       id="sprite26">
      <use
         ffdec:characterId="277"
         height="6.5"
         width="13.65"
         xlink:href="#shape23"
         id="use95" />
    </g>
    <g
       id="shape23">
      <path
         d="m 13.65,2.5 q 0.1,2.75 -0.2,3.4 l 0.1,0.2 -0.3,0.4 H 0.85 L 0.7,6.4 H 0.65 Q 0,6.4 0.15,3.4 -0.15,1.4 0.1,0.7 V 0.65 l 0.45,-0.5 h 3.3 l 0.5,0.05 h 7.25 l 1.3,0.1 Q 13,-0.1 13.2,0 13.65,0.2 13.65,2.5 M 12.8,1 11.6,1.05 1.15,1.1 1.2,1.8 1.15,3.4 V 4.95 L 1.1,5.65 H 13 Q 12.75,4.75 12.75,1.95 L 12.8,1 M 11,2.05 11.1,2.3 q 0,0.5 -1.05,0.6 L 4.9,3 3.75,2.9 2.45,2.95 2.2,2.75 2.05,2.35 q 0,-0.7 0.7,-0.7 H 7.1 l 3.65,0.2 0.25,0.2 m 0.5,2.5 -0.3,0.35 H 8.75 L 8.35,4.7 8.45,4.4 11.15,4.3 11.5,4.55 M 12.25,3.75 11.9,4.1 6.45,4 6.4,3.75 q 0,-0.2 0.35,-0.25 l 2.4,-0.1 h 2.75 l 0.35,0.35 M 7.65,4.55 7.15,4.9 H 4.55 L 4.3,4.95 2.55,4.9 2.45,4.85 2.2,4.65 2.55,4.3 h 4.6 l 0.5,0.25 M 5.1,4.05 4.95,4.1 H 2.65 L 2.4,3.75 2.65,3.6 h 2.4 l 0.1,0.25 -0.05,0.2"
         fill="#6b6b6b"
         fill-rule="evenodd"
         stroke="none"
         id="path96" />
      <path
         d="M 5.1,4.05 5.15,3.85 5.05,3.6 H 2.65 L 2.4,3.75 2.65,4.1 h 2.3 L 5.1,4.05 M 7.65,4.55 7.15,4.3 H 2.55 L 2.2,4.65 2.45,4.85 2.55,4.9 4.3,4.95 4.55,4.9 h 2.6 L 7.65,4.55 M 12.25,3.75 11.9,3.4 H 9.15 L 6.75,3.5 Q 6.4,3.55 6.4,3.75 L 6.45,4 11.9,4.1 12.25,3.75 M 11.5,4.55 11.15,4.3 8.45,4.4 8.35,4.7 8.75,4.9 H 11.2 L 11.5,4.55 M 11,2.05 10.75,1.85 7.1,1.65 H 2.75 q -0.7,0 -0.7,0.7 L 2.2,2.75 2.45,2.95 3.75,2.9 4.9,3 10.05,2.9 Q 11.1,2.8 11.1,2.3 L 11,2.05 M 12.8,1 12.75,1.95 q 0,2.8 0.25,3.7 H 1.1 L 1.15,4.95 V 3.4 L 1.2,1.8 1.15,1.1 11.6,1.05 12.8,1"
         fill="#c4c1a0"
         fill-rule="evenodd"
         stroke="none"
         id="path97" />
    </g>
    <g
       id="sprite27">
      <use
         ffdec:characterId="281"
         height="7.6999998"
         width="9.0500002"
         xlink:href="#shape24"
         id="use97" />
    </g>
    <g
       id="shape24">
      <path
         d="M 8.9,2.35 V 6.9 L 9.05,7.15 8.55,7.6 6.2,7.7 H 1.6 L 0.1,7.45 0,7.15 Q 0,6.9 0.2,6.8 0,5.8 0.1,3.65 0.1,1.95 0.25,1.05 L 0.15,0.75 Q 0.15,0.3 0.5,0.25 L 0.75,0 1.05,0.2 h 6.5 L 8.3,0.35 q 0.25,-0.3 0.4,0.1 L 8.95,1.85 8.9,2.35 M 5.6,1.7 Q 6.1,1.45 6.25,1.85 H 6.3 l 0.05,0.2 -0.05,0.2 -0.35,1 -1.05,0.7 v 0.4 L 4.8,5.2 4.7,5.25 Q 5.95,5.3 5.95,5.65 L 5.75,6.05 4.4,6.1 3,5.95 2.95,5.65 q 0,-0.35 1.3,-0.4 L 4.15,4.2 V 4 Q 3.3,3.9 2.85,3.25 L 2.5,2.4 V 2.25 L 2.4,2 2.45,1.85 2.65,1.8 h 2.8 L 5.6,1.7 M 7.85,1.35 7.05,1.4 H 1.3 L 1.4,3.65 1.35,5.7 1.25,6.6 H 1.6 6.2 7.9 Q 7.75,5.75 7.85,4.2 V 1.35"
         fill="#6b6b6b"
         fill-rule="evenodd"
         stroke="none"
         id="path98" />
    </g>
    <g
       id="sprite28">
      <use
         ffdec:characterId="308"
         height="12.15"
         width="8.1999998"
         xlink:href="#shape25"
         id="use98" />
    </g>
    <g
       id="shape25">
      <path
         d="M 8,5.6 H 6.1 v 6.55 h -4 V 5.6 H 0.2 L 0,5.1 1.65,2.7 Q 3.05,0.85 3.9,0.2 L 4.05,0.1 V 0 L 4.1,0.05 4.15,0 V 0.1 L 4.3,0.2 6.55,2.7 8.2,5.1 8,5.6"
         fill="#8e7b7b"
         fill-rule="evenodd"
         stroke="none"
         id="path99" />
    </g>
    <g
       id="sprite29"
       transform="translate(5.4,4)">
      <use
         ffdec:characterId="43"
         height="8"
         transform="translate(-5.4,-4)"
         width="10.8"
         xlink:href="#shape26"
         id="use99" />
    </g>
    <g
       id="shape26"
       transform="translate(5.4,4)">
      <path
         d="m 2.9,-0.35 q 0,-1.25 1.25,-1.25 1.25,0 1.25,1.2 0,1.3 -1.25,1.3 Q 3.6,0.9 3.25,0.5 2.9,0.15 2.9,-0.35 m 0.35,-2.3 q 0,0.55 -0.35,0.9 -0.4,0.45 -1,0.45 -1.35,0 -1.35,-1.4 0,-1.3 1.35,-1.3 1.35,0 1.35,1.35 m -3.1,1.9 h 0.2 q 2.6,0.1 2.6,2.8 l -0.3,1 Q 2.05,4 0.45,4 H 0.35 0.15 0.1 -0.45 q -1.6,0 -2.2,-0.95 l -0.3,-1 q 0,-2.8 2.8,-2.8 h 0.3 M -1.55,-4 q 1.35,0 1.35,1.35 0,0.55 -0.4,0.9 -0.4,0.45 -0.95,0.45 -1.4,0 -1.4,-1.4 0,-1.3 1.4,-1.3 m -2.6,2.4 q 1.25,0 1.25,1.25 0,0.5 -0.35,0.85 -0.35,0.4 -0.9,0.4 -1.25,0 -1.25,-1.3 0,-1.2 1.25,-1.2"
         fill="#6b6b6b"
         fill-rule="evenodd"
         stroke="none"
         id="path100" />
    </g>
  </defs>
</svg>
