<?xml version="1.0" encoding="UTF-8" standalone="no"?>
<svg
   ffdec:objectType="frame"
   height="27.9"
   width="36.5"
   version="1.1"
   id="svg7"
   sodipodi:docname="2.svg"
   xmlns:inkscape="http://www.inkscape.org/namespaces/inkscape"
   xmlns:sodipodi="http://sodipodi.sourceforge.net/DTD/sodipodi-0.dtd"
   xmlns:xlink="http://www.w3.org/1999/xlink"
   xmlns="http://www.w3.org/2000/svg"
   xmlns:svg="http://www.w3.org/2000/svg"
   xmlns:ffdec="https://www.free-decompiler.com/flash">
  <sodipodi:namedview
     id="namedview7"
     pagecolor="#ffffff"
     bordercolor="#000000"
     borderopacity="0.25"
     inkscape:showpageshadow="2"
     inkscape:pageopacity="0.0"
     inkscape:pagecheckerboard="0"
     inkscape:deskcolor="#d1d1d1"
     fit-margin-top="5"
     fit-margin-left="5"
     fit-margin-right="5"
     fit-margin-bottom="5" />
  <g
     transform="translate(18.25,13.95)"
     id="g1">
    <use
       ffdec:characterId="4343"
       height="27.9"
       transform="translate(-19.3,-13.95)"
       width="38.599998"
       xlink:href="#sprite0"
       id="use1" />
  </g>
  <defs
     id="defs7">
    <g
       id="sprite0"
       transform="translate(19.3,13.95)">
      <use
         ffdec:characterId="4342"
         height="27.9"
         transform="translate(-18.25,-13.95)"
         width="36.5"
         xlink:href="#sprite1"
         id="use2" />
    </g>
    <g
       id="sprite1"
       transform="translate(18.25,13.95)">
      <use
         ffdec:characterId="4341"
         height="27.9"
         transform="translate(-18.25,-13.95)"
         width="36.5"
         xlink:href="#shape0"
         id="use3" />
      <use
         ffdec:characterId="3500"
         height="8"
         transform="matrix(-0.8916,0.0229,-0.0365,-0.8214,12.1108,-2.6383)"
         width="10.8"
         xlink:href="#sprite2"
         id="use4" />
    </g>
    <g
       id="shape0"
       transform="translate(18.25,13.95)">
      <path
         d="m 14.25,-7.15 -1.7,-0.3 H 12.4 l -11.2,0.2 v 0.1 L -0.25,-7.2 v -1.6 l 14.6,-0.1 -0.1,1.75 M 15.9,-7.2 15.65,-7.15 H 14.6 L 14.5,-8.9 h 1.35 l 0.05,1.7 m -27.55,-0.45 -1,-0.1 V -8.8 -9.05 l 1,0.15 v 1.25 m 4.3,2.1 Q -8.85,-5.7 -9.4,-6.15 L -9.7,-6.6 -9.75,-7.35 v -0.1 l -0.1,-1.2 -0.1,-0.85 v -0.35 l -0.1,-0.55 0.2,-0.1 q 0.8,-0.55 1.8,-0.7 1.9,-0.35 4.3,0.8 v 0.6 l -0.45,0.15 -3.4,0.3 0.25,3.8 m 5.5,-1.95 -0.05,-1.3 h 0.75 L -1,-8.6 v 1.3 l -0.85,-0.2 m -5.5,8.9 -0.85,0.05 -1.3,0.2 -0.05,-0.55 -0.1,-6.6 q 0.7,0.6 2.35,0.75 L -7.35,1.4 M -7.4,2.9 V 3 L -7.5,3.55 -9.55,3.7 -9.5,2.9 h 2.1"
         fill="#ffffff"
         fill-rule="evenodd"
         stroke="none"
         id="path4" />
      <path
         d="M -0.25,-7.2 V 7.25 L 14,7.3 13.9,6.95 13.85,5.6 q 0,-7.45 0.4,-12.75 l 0.1,-1.75 -14.6,0.1 v 1.6 m 3.15,5.85 q 1.6,0 1.6,0.9 0,0.9 -1.65,0.9 -1.2,0 -1.5,-0.45 l -0.1,-0.45 q 0,-0.9 1.65,-0.9 m 4,0 q 1.6,0 1.6,0.9 0,0.9 -1.65,0.9 -1.2,0 -1.5,-0.45 l -0.1,-0.45 q 0,-0.9 1.65,-0.9 m 7.7,-5.8 0.15,4.55 0.2,8.15 -0.05,1.75 h 1 L 15.95,-6.4 15.9,-7.2 15.85,-8.9 H 14.5 l 0.1,1.75 m 2.65,-4.5 0.35,0.1 0.65,0.1 V 5.5 L 18.2,6.65 V 9.4 9.9 l 0.05,0.1 v 1.2 l -0.9,0.6 h -22.7 l -0.55,0.7 q -1.45,1.45 -5.2,1.45 -4.15,0 -5.85,-2.1 -0.95,-1.2 -0.95,-2.6 l 0.2,-1.35 -0.35,-0.35 -0.2,-0.6 q 0,-0.55 0.35,-0.8 L -18.1,5.9 -18.25,5.4 q 0,-0.7 0.7,-0.9 L -17.7,4.35 -17.75,3.95 -17.55,3.4 -17.8,3.15 -18,2.55 q 0,-0.55 0.4,-0.8 l -0.2,-0.7 0.25,-0.6 -0.35,-0.3 -0.1,-0.5 q 0,-0.65 0.55,-0.9 l -0.05,-0.1 -0.05,-0.45 q 0,-1.05 1.3,-0.9 l 0.15,0.05 0.45,-0.55 0.5,0.1 0.05,-6.8 -0.05,-0.35 q 0,-0.7 0.8,-0.9 l 2.7,-0.4 v -0.35 q 0.6,-2.05 1.05,-1.3 3.6,-1.5 7.8,0 0.6,-0.45 0.8,0.95 l 0.1,0.65 18.75,0.05 0.4,-0.1 m -4.75,11.2 q 0,0.9 -1.65,0.9 -1.2,0 -1.5,-0.45 l -0.1,-0.45 q 0,-0.9 1.65,-0.9 1.6,0 1.6,0.9 m -1.65,6.1 q -1.2,0 -1.5,-0.45 L 9.25,4.75 q 0,-0.9 1.65,-0.9 1.6,0 1.6,0.9 0,0.9 -1.65,0.9 m 1.65,-3.5 q 0,0.9 -1.65,0.9 -1.2,0 -1.5,-0.45 L 9.25,2.15 q 0,-0.9 1.65,-0.9 1.6,0 1.6,0.9 m 1.85,6.1 -19.8,0.2 0.2,0.85 H 15.9 V 8.6 8.2 L 14.7,8.25 14.4,8.3 14.35,8.25 m -9.1,-6.1 q 0,-0.9 1.65,-0.9 1.6,0 1.6,0.9 0,0.9 -1.65,0.9 -1.2,0 -1.5,-0.45 L 5.25,2.15 M 5.35,5.2 5.25,4.75 q 0,-0.9 1.65,-0.9 1.6,0 1.6,0.9 0,0.9 -1.65,0.9 -1.2,0 -1.5,-0.45 M 4.5,2.15 q 0,0.9 -1.65,0.9 -1.2,0 -1.5,-0.45 L 1.25,2.15 q 0,-0.9 1.65,-0.9 1.6,0 1.6,0.9 m -3.25,2.6 q 0,-0.9 1.65,-0.9 1.6,0 1.6,0.9 0,0.9 -1.65,0.9 -1.2,0 -1.5,-0.45 L 1.25,4.75 m -12.9,-12.4 V -8.9 l -1,-0.15 v 0.25 1.05 l 0.05,14.85 1.7,0.05 3.6,0.05 -0.1,-1 -0.45,-0.05 -2.7,-0.35 h -0.1 q -0.8,0 -1,-2.35 l -0.05,-2.4 0.05,-8.7 m 7.9,-2.15 v -0.6 q -2.4,-1.15 -4.3,-0.8 -1,0.15 -1.8,0.7 l -0.2,0.1 0.1,0.55 v 0.35 l 0.1,0.85 0.1,1.2 v 0.1 l 0.05,0.75 0.3,0.45 q 0.55,0.45 2.05,0.6 h 0.85 q 1.8,0 2.35,-0.6 L -3.8,-6.5 -3.75,-9.8 M -1,-7.3 V -8.6 L -1.15,-8.8 H -1.9 l 0.05,1.3 0.15,11.8 q 0,0.4 -0.3,0.8 l -0.05,0.1 v 0.1 q 0,0.9 -1.1,0.9 H -6.2 l 0.35,1 L -1,7.25 V -7.3 m -6.35,8.7 3.45,0.25 0.1,-7.05 q -0.95,0.65 -2.6,0.65 H -7.3 Q -8.95,-4.9 -9.65,-5.5 l 0.1,6.6 0.05,0.55 1.3,-0.2 0.85,-0.05 M -7.5,3.55 h 2.45 L -3.95,3.6 -3.9,2.35 -7.05,2.9 H -7.4 -9.5 L -9.55,3.7 -7.5,3.55 m 0.45,4.9 -5.55,0.05 v 0.8 l 0.1,0.05 q 1.45,-0.2 3.8,-0.05 H -7 V 8.75 l -0.05,-0.3 m -8.1,-3.85 h -0.05 l 0.05,0.05 V 4.6 m 0,-4.2 -0.1,0.05 0.1,0.05 V 0.4 m -0.05,8.35 -0.7,0.4 0.7,1.25 V 8.75"
         fill="#6b6b6b"
         fill-rule="evenodd"
         stroke="none"
         id="path5" />
      <path
         d="m -0.25,-7.2 1.45,0.05 v -0.1 l 11.2,-0.2 h 0.15 l 1.7,0.3 q -0.4,5.3 -0.4,12.75 L 13.9,6.95 14,7.3 -0.25,7.25 V -7.2 m 7.15,5.85 q -1.65,0 -1.65,0.9 L 5.35,0 q 0.3,0.45 1.5,0.45 1.65,0 1.65,-0.9 0,-0.9 -1.6,-0.9 m -4,0 q -1.65,0 -1.65,0.9 L 1.35,0 q 0.3,0.45 1.5,0.45 1.65,0 1.65,-0.9 0,-0.9 -1.6,-0.9 m 11.7,-5.8 h 1.05 L 15.9,-7.2 15.95,-6.4 15.9,7.3 h -1 L 14.95,5.55 14.75,-2.6 14.6,-7.15 M 1.25,4.75 1.35,5.2 q 0.3,0.45 1.5,0.45 1.65,0 1.65,-0.9 0,-0.9 -1.6,-0.9 -1.65,0 -1.65,0.9 M 4.5,2.15 q 0,-0.9 -1.6,-0.9 -1.65,0 -1.65,0.9 l 0.1,0.45 q 0.3,0.45 1.5,0.45 1.65,0 1.65,-0.9 M 5.35,5.2 q 0.3,0.45 1.5,0.45 1.65,0 1.65,-0.9 0,-0.9 -1.6,-0.9 -1.65,0 -1.65,0.9 L 5.35,5.2 M 5.25,2.15 5.35,2.6 q 0.3,0.45 1.5,0.45 1.65,0 1.65,-0.9 0,-0.9 -1.6,-0.9 -1.65,0 -1.65,0.9 m 9.1,6.1 L 14.4,8.3 14.7,8.25 15.9,8.2 V 8.6 9.3 H -5.25 l -0.2,-0.85 19.8,-0.2 M 12.5,2.15 q 0,-0.9 -1.6,-0.9 -1.65,0 -1.65,0.9 l 0.1,0.45 q 0.3,0.45 1.5,0.45 1.65,0 1.65,-0.9 m -1.65,3.5 q 1.65,0 1.65,-0.9 0,-0.9 -1.6,-0.9 -1.65,0 -1.65,0.9 l 0.1,0.45 q 0.3,0.45 1.5,0.45 m 1.65,-6.1 q 0,-0.9 -1.6,-0.9 -1.65,0 -1.65,0.9 L 9.35,0 q 0.3,0.45 1.5,0.45 1.65,0 1.65,-0.9 m -25.15,-7.3 1,0.1 -0.05,8.7 0.05,2.4 q 0.2,2.35 1,2.35 h 0.1 l 2.7,0.35 0.45,0.05 0.1,1 -3.6,-0.05 -1.7,-0.05 -0.05,-14.85 m 5.3,2.2 -0.25,-3.8 3.4,-0.3 0.45,-0.15 -0.05,3.3 -0.35,0.35 q -0.55,0.6 -2.35,0.6 H -7.35 M -1,-7.3 V 7.25 L -5.85,7.2 -6.2,6.2 h 3.05 q 1.1,0 1.1,-0.9 V 5.2 L -2,5.1 Q -1.7,4.7 -1.7,4.3 L -1.85,-7.5 -1,-7.3 m -6.3,2.55 h 0.9 q 1.65,0 2.6,-0.65 L -3.9,1.65 -7.35,1.4 -7.3,-4.75 M -7.4,2.9 h 0.35 L -3.9,2.35 -3.95,3.6 -5.05,3.55 H -7.5 L -7.4,3 V 2.9 M -7.05,8.45 -7,8.75 V 9.3 h -1.7 q -2.35,-0.15 -3.8,0.05 L -12.6,9.3 V 8.5 l 5.55,-0.05"
         fill="#b1b1b1"
         fill-rule="evenodd"
         stroke="none"
         id="path6" />
    </g>
    <g
       id="sprite2"
       transform="translate(5.4,4)">
      <use
         ffdec:characterId="43"
         height="8"
         transform="translate(-5.4,-4)"
         width="10.8"
         xlink:href="#shape1"
         id="use6" />
    </g>
    <g
       id="shape1"
       transform="translate(5.4,4)">
      <path
         d="m 2.9,-0.35 q 0,-1.25 1.25,-1.25 1.25,0 1.25,1.2 0,1.3 -1.25,1.3 Q 3.6,0.9 3.25,0.5 2.9,0.15 2.9,-0.35 m 0.35,-2.3 q 0,0.55 -0.35,0.9 -0.4,0.45 -1,0.45 -1.35,0 -1.35,-1.4 0,-1.3 1.35,-1.3 1.35,0 1.35,1.35 m -3.1,1.9 h 0.2 q 2.6,0.1 2.6,2.8 l -0.3,1 Q 2.05,4 0.45,4 H 0.35 0.15 0.1 -0.45 q -1.6,0 -2.2,-0.95 l -0.3,-1 q 0,-2.8 2.8,-2.8 h 0.3 M -1.55,-4 q 1.35,0 1.35,1.35 0,0.55 -0.4,0.9 -0.4,0.45 -0.95,0.45 -1.4,0 -1.4,-1.4 0,-1.3 1.4,-1.3 m -2.6,2.4 q 1.25,0 1.25,1.25 0,0.5 -0.35,0.85 -0.35,0.4 -0.9,0.4 -1.25,0 -1.25,-1.3 0,-1.2 1.25,-1.2"
         fill="#6b6b6b"
         fill-rule="evenodd"
         stroke="none"
         id="path7" />
    </g>
  </defs>
</svg>
