<?xml version="1.0" encoding="UTF-8" standalone="no"?>
<svg
   ffdec:objectType="frame"
   height="27.548925"
   width="42.299999"
   version="1.1"
   id="svg17"
   sodipodi:docname="2.svg"
   xmlns:inkscape="http://www.inkscape.org/namespaces/inkscape"
   xmlns:sodipodi="http://sodipodi.sourceforge.net/DTD/sodipodi-0.dtd"
   xmlns:xlink="http://www.w3.org/1999/xlink"
   xmlns="http://www.w3.org/2000/svg"
   xmlns:svg="http://www.w3.org/2000/svg"
   xmlns:ffdec="https://www.free-decompiler.com/flash">
  <sodipodi:namedview
     id="namedview17"
     pagecolor="#ffffff"
     bordercolor="#000000"
     borderopacity="0.25"
     inkscape:showpageshadow="2"
     inkscape:pageopacity="0.0"
     inkscape:pagecheckerboard="0"
     inkscape:deskcolor="#d1d1d1"
     fit-margin-top="5"
     fit-margin-left="5"
     fit-margin-right="5"
     fit-margin-bottom="5" />
  <g
     transform="translate(20.7,13.7477)"
     id="g6">
    <use
       ffdec:characterId="2113"
       height="23.700001"
       transform="translate(10.35,-9.9)"
       width="11.25"
       xlink:href="#sprite0"
       id="use1" />
    <use
       ffdec:characterId="2104"
       height="26.35"
       transform="matrix(1,0,0,1.0455,1.65,-13.7477)"
       width="9.3999996"
       xlink:href="#sprite1"
       id="use2" />
    <use
       ffdec:characterId="2106"
       height="26.35"
       transform="translate(-20.7,-12.55)"
       width="12.05"
       xlink:href="#sprite2"
       id="use3" />
    <use
       ffdec:characterId="2097"
       height="26.35"
       transform="matrix(-1,0,0,1,2.25,-12.55)"
       width="11.25"
       xlink:href="#sprite3"
       id="use4" />
    <use
       ffdec:characterId="1691"
       height="8"
       transform="matrix(0,-0.7,0.7,0,14.05,11.93)"
       width="10.8"
       xlink:href="#sprite4"
       id="use5" />
    <use
       ffdec:characterId="2150"
       height="20.950001"
       transform="translate(5.45,-10.2)"
       width="2.3499999"
       xlink:href="#sprite5"
       id="use6" />
  </g>
  <defs
     id="defs17">
    <g
       id="sprite0"
       transform="translate(5.6,11.85)">
      <use
         ffdec:characterId="2112"
         height="23.700001"
         transform="translate(-5.6,-11.85)"
         width="11.25"
         xlink:href="#shape0"
         id="use7" />
    </g>
    <g
       id="shape0"
       transform="translate(5.6,11.85)">
      <path
         d="m 5.25,-8.55 0.2,1.7 0.1,1.6 0.1,7 v 5.1 L 5.45,8.95 5.4,9.3 4.85,10.95 q 0,0.75 -0.6,0.9 H 4.2 2.35 L 0.2,11.8 h -1 V 11.75 L -2.3,11.7 h -3.1 l -0.2,-1.15 v -2.2 l 0.3,-10.7 v -0.8 -6.75 q 0.45,-1.35 1.1,-1.6 v -0.15 l 0.05,0.1 0.25,-0.05 0.25,0.05 1.35,-0.25 1.5,-0.05 h 0.3 0.15 0.55 0.5 l 1.65,0.1 q 2.95,0.3 2.95,1.05 v 0.2 l 0.1,0.95 -0.05,0.6 -0.1,0.4 M 0.2,-10 q -1,0.05 -1.65,0.6 V -9.5 H -1.9 -2.3 -2.45 V 2.1 L -2.4,4.3 -2.45,7.75 -2.7,9.3 -2.8,9.75 v 0.2 h 0.85 l 0.55,0.3 0.25,-0.1 0.2,-0.15 0.9,0.2 0.25,0.1 Q 0.85,10.4 1.7,9.95 H 2.65 V 9.3 L 2.5,1.35 2.6,-5.5 Q 2.65,-7.65 2.95,-8.95 L 3.05,-9.6 H 2.35 L 1.7,-9.55 1.4,-9.95 0.2,-10"
         fill="#6b6b6b"
         fill-rule="evenodd"
         stroke="none"
         id="path7" />
      <path
         d="m 0.2,-10 1.2,0.05 0.3,0.4 0.65,-0.05 h 0.7 l -0.1,0.65 Q 2.65,-7.65 2.6,-5.5 L 2.5,1.35 2.65,9.3 V 9.95 H 1.7 Q 0.85,10.4 0.2,10.3 l -0.25,-0.1 -0.9,-0.2 -0.2,0.15 -0.25,0.1 -0.55,-0.3 H -2.8 V 9.75 L -2.7,9.3 -2.45,7.75 -2.4,4.3 -2.45,2.1 V -9.5 h 0.15 0.4 0.45 v 0.1 Q -0.8,-9.95 0.2,-10"
         fill="#827474"
         fill-rule="evenodd"
         stroke="none"
         id="path8" />
    </g>
    <g
       id="sprite1"
       transform="translate(4.7,13.15)">
      <use
         ffdec:characterId="2103"
         height="26.35"
         transform="translate(-4.7,-13.15)"
         width="9.3999996"
         xlink:href="#shape1"
         id="use8" />
    </g>
    <g
       id="shape1"
       transform="translate(4.7,13.15)">
      <path
         d="m 1.85,-13 q 2.55,0.3 2.55,1.15 v 0.25 l 0.1,1.05 -0.05,0.65 -0.1,0.45 0.2,1.85 0.1,1.8 0.05,7.75 V 7.6 l -0.15,2.35 -0.05,0.4 -0.45,1.8 v 0.05 q 0,0.8 -0.55,0.95 L 3.45,13.2 1.85,13.15 0,13.1 H -0.05 -0.5 V 13.05 L -1.8,13 H -4.5 L -4.7,11.75 V 9.3 l 0.3,-11.9 v -0.85 -7.5 q 0.4,-1.5 0.95,-1.8 v -0.15 l 0.05,0.1 0.2,-0.05 0.2,0.05 1.2,-0.25 1.3,-0.1 h 0.25 0.15 0.5 v 0.05 l 1.45,0.1 m -1.5,1.95 -0.4,0.05 q -0.6,0.15 -1,0.6 v -0.1 H -1.45 -1.8 -1.95 V 2.35 l 0.05,2.45 -0.05,3.85 -0.2,1.7 -0.1,0.5 v 0.2 h 0.75 l 0.5,0.35 0.2,-0.1 0.15,-0.2 0.6,0.25 h 0.2 l 0.2,0.1 0.95,-0.4 h 0.8 v -0.7 L 2,1.55 2.05,-6.1 2.35,-9.9 2.45,-10.65 1.85,-10.6 1.3,-10.55 1,-11 0.35,-11.05"
         fill="#6b6b6b"
         fill-rule="evenodd"
         stroke="none"
         id="path9" />
      <path
         d="M 0.35,-11.05 1,-11 l 0.3,0.45 0.55,-0.05 0.6,-0.05 -0.1,0.75 -0.3,3.8 -0.05,7.65 0.1,8.8 v 0.7 H 1.3 l -0.95,0.4 -0.2,-0.1 h -0.2 L -0.65,11.1 -0.8,11.3 -1,11.4 -1.5,11.05 h -0.75 v -0.2 l 0.1,-0.5 0.2,-1.7 L -1.9,4.8 -1.95,2.35 V -10.5 h 0.15 0.35 0.4 v 0.1 q 0.4,-0.45 1,-0.6 l 0.4,-0.05"
         fill="#b0aca0"
         fill-rule="evenodd"
         stroke="none"
         id="path10" />
    </g>
    <g
       id="sprite2"
       transform="translate(6,13.15)">
      <use
         ffdec:characterId="2105"
         height="26.35"
         transform="translate(-6,-13.15)"
         width="12.05"
         xlink:href="#shape2"
         id="use10" />
    </g>
    <g
       id="shape2"
       transform="translate(6,13.15)">
      <path
         d="M 5.55,13.15 V 13.2 L 1.3,13.1 -2,13.05 -6,13 v -25.35 l 0.45,-0.4 0.05,-0.15 v 0.1 l 0.25,-0.05 0.3,0.05 2.95,-0.35 h 1.25 0.05 2 l 4.75,0.65 v 25.35 l -0.5,0.3 M -3.2,-10.5 H -3.8 V 2.35 L -3.75,4.8 -3.8,8.65 q -0.1,1.35 -0.35,2.2 v 0.2 h 1.4 L -2.9,7.45 -2.8,2.7 v -13.2 h -0.4 m 4.5,0 H -0.7 -2 V 11.05 H 2.05 V 0.5 L 2,-5.7 v -3.4 q 0,-0.8 0.15,-1.4 H 1.3 M 2.85,-10.55 3.1,-5.7 3,0.25 v 10.8 H 4 Q 4,4.35 4.15,1.2 l 0.2,-6.25 0.05,-5.6 -1.55,0.1"
         fill="#6b6b6b"
         fill-rule="evenodd"
         stroke="none"
         id="path11" />
      <path
         d="M 1.3,-10.5 H 2.15 Q 2,-9.9 2,-9.1 v 3.4 L 2.05,0.5 V 11.05 H -2 V -10.5 h 1.3 2"
         fill="#797782"
         fill-rule="evenodd"
         stroke="none"
         id="path12" />
      <path
         d="m -3.2,-10.5 h 0.4 V 2.7 l -0.1,4.75 0.15,3.6 h -1.4 v -0.2 Q -3.9,10 -3.8,8.65 L -3.75,4.8 -3.8,2.35 V -10.5 h 0.6 m 6.05,-0.05 1.55,-0.1 -0.05,5.6 -0.2,6.25 Q 4,4.35 4,11.05 H 3 V 0.25 L 3.1,-5.7 2.85,-10.55"
         fill="#8c8a96"
         fill-rule="evenodd"
         stroke="none"
         id="path13" />
    </g>
    <g
       id="sprite3"
       transform="translate(5.6,13.15)">
      <use
         ffdec:characterId="2096"
         height="26.35"
         transform="translate(-5.6,-13.15)"
         width="11.25"
         xlink:href="#shape3"
         id="use13" />
    </g>
    <g
       id="shape3"
       transform="translate(5.6,13.15)">
      <path
         d="m 2.35,-13 q 2.95,0.3 2.95,1.15 v 0.25 l 0.1,1.05 -0.05,0.65 -0.1,0.45 0.2,1.85 0.1,1.8 0.1,7.75 V 7.6 l -0.2,2.35 -0.05,0.4 q -0.2,1.25 -0.55,1.8 v 0.05 q 0,0.8 -0.6,0.95 L 4.2,13.2 2.35,13.15 0.2,13.1 h -1 V 13.05 L -2.3,13 H -5.4 L -5.6,11.75 V 9.3 l 0.3,-11.9 v -0.85 -7.5 q 0.45,-1.5 1.1,-1.8 v -0.15 l 0.05,0.1 0.25,-0.05 0.25,0.05 1.35,-0.25 1.5,-0.1 h 0.3 0.15 0.55 0.5 v 0.05 l 1.65,0.1 m 0.7,2.35 -0.7,0.05 L 1.7,-10.55 1.4,-11 0.2,-11.05 q -1,0.05 -1.65,0.65 v -0.1 H -1.9 -2.3 -2.45 V 2.35 l 0.05,2.45 -0.05,3.85 -0.25,1.7 -0.1,0.5 v 0.2 h 0.85 l 0.55,0.35 0.25,-0.1 0.2,-0.2 0.9,0.25 0.25,0.1 q 0.65,0.1 1.5,-0.4 h 0.95 v -0.7 L 2.5,1.55 2.6,-6.1 q 0.05,-2.35 0.35,-3.8 l 0.1,-0.75"
         fill="#6b6b6b"
         fill-rule="evenodd"
         stroke="none"
         id="path14" />
      <path
         d="m 3.05,-10.65 -0.1,0.75 q -0.3,1.45 -0.35,3.8 l -0.1,7.65 0.15,8.8 v 0.7 H 1.7 q -0.85,0.5 -1.5,0.4 l -0.25,-0.1 -0.9,-0.25 -0.2,0.2 -0.25,0.1 -0.55,-0.35 H -2.8 v -0.2 l 0.1,-0.5 0.25,-1.7 L -2.4,4.8 -2.45,2.35 V -10.5 h 0.15 0.4 0.45 v 0.1 Q -0.8,-11 0.2,-11.05 l 1.2,0.05 0.3,0.45 0.65,-0.05 0.7,-0.05"
         fill="#bccad3"
         fill-rule="evenodd"
         stroke="none"
         id="path15" />
    </g>
    <g
       id="sprite4"
       transform="translate(5.4,4)">
      <use
         ffdec:characterId="43"
         height="8"
         transform="translate(-5.4,-4)"
         width="10.8"
         xlink:href="#shape4"
         id="use15" />
    </g>
    <g
       id="shape4"
       transform="translate(5.4,4)">
      <path
         d="m 2.9,-0.35 q 0,-1.25 1.25,-1.25 1.25,0 1.25,1.2 0,1.3 -1.25,1.3 Q 3.6,0.9 3.25,0.5 2.9,0.15 2.9,-0.35 m 0.35,-2.3 q 0,0.55 -0.35,0.9 -0.4,0.45 -1,0.45 -1.35,0 -1.35,-1.4 0,-1.3 1.35,-1.3 1.35,0 1.35,1.35 m -3.1,1.9 h 0.2 q 2.6,0.1 2.6,2.8 l -0.3,1 Q 2.05,4 0.45,4 H 0.35 0.15 0.1 -0.45 q -1.6,0 -2.2,-0.95 l -0.3,-1 q 0,-2.8 2.8,-2.8 h 0.3 M -1.55,-4 q 1.35,0 1.35,1.35 0,0.55 -0.4,0.9 -0.4,0.45 -0.95,0.45 -1.4,0 -1.4,-1.4 0,-1.3 1.4,-1.3 m -2.6,2.4 q 1.25,0 1.25,1.25 0,0.5 -0.35,0.85 -0.35,0.4 -0.9,0.4 -1.25,0 -1.25,-1.3 0,-1.2 1.25,-1.2"
         fill="#6b6b6b"
         fill-rule="evenodd"
         stroke="none"
         id="path16" />
    </g>
    <g
       id="sprite5"
       transform="translate(1.15,10.45)">
      <use
         ffdec:characterId="2149"
         height="20.950001"
         transform="translate(-1.15,-10.45)"
         width="2.3499999"
         xlink:href="#shape5"
         id="use16" />
    </g>
    <g
       id="shape5"
       transform="translate(1.15,10.45)">
      <path
         d="M 1.2,-9.65 0.95,-9 0.7,-8.9 H 0.6 Q 0.2,-8.9 0,-9.5 l -0.8,0.7 h -0.05 l -0.2,-0.15 V -9.1 L -0.4,-9.65 -0.1,-10 h -0.05 l -0.7,0.15 -0.2,-0.1 v -0.1 q 0,-0.3 1.9,-0.4 0.25,0 0.35,0.8 M 0.7,-10.1 0.3,-10.05 V -10 q 0,0.45 0.3,0.65 l 0.1,-0.4 v -0.35 m -0.35,2 v 0.15 q -0.2,0.5 -0.55,0.5 l -0.15,0.05 h -0.1 q -0.4,-0.2 -0.4,-0.55 V -8.2 q 0.05,-0.5 0.45,-0.5 h 0.05 q 0.6,0 0.7,0.6 m 0,3.05 v 0.4 L 0.2,-4.35 Q 0.05,-4.4 0,-5.1 l -0.15,0.05 v 0.1 q 0,0.35 -0.2,0.35 L -0.5,-4.95 h -0.05 l -0.05,0.05 0.05,0.4 -0.15,0.25 h -0.05 l -0.3,-0.8 V -5.1 q 0,-0.25 0.6,-0.25 l 0.6,-0.1 0.2,0.4 M 0.25,-6.85 -0.2,-6.4 0.2,-6 v 0.05 l -1.05,0.2 -0.2,-0.2 q 0,-0.2 0.6,-0.2 V -6.2 l -0.2,-0.15 V -6.4 l 0.35,-0.3 v -0.05 h -0.4 q -0.4,0 -0.4,-0.15 l 0.5,-0.15 h 0.35 l 0.5,0.2 m 0.1,3.3 v 0.15 q -0.2,0.5 -0.55,0.5 l -0.15,0.05 h -0.1 q -0.4,-0.2 -0.4,-0.55 v -0.25 q 0.05,-0.5 0.45,-0.5 h 0.05 q 0.6,0 0.7,0.6 m 0.1,2.4 V -1.1 L 0.3,-1.05 q -1.2,-0.2 -1.2,-0.55 l 0.3,-0.3 -0.3,-0.2 -0.05,-0.1 q 0,-0.2 1,-0.4 H 0.2 l 0.15,0.1 -0.55,0.4 v 0.05 l 0.2,0.1 v 0.1 l -0.15,0.15 -0.1,0.1 0.7,0.45 m 0.6,2.1 Q 1.05,1.45 0.4,1.5 -0.1,1.35 -0.1,1.2 L -0.15,1.25 V 1.3 L 0.15,1.55 0,1.65 -0.35,1.55 -0.65,1.9 -0.85,1.6 -0.75,1.35 -1.1,0.85 V 0.8 q 0,-0.65 0.75,-0.65 L 0.15,0.6 0.5,0.5 Q 1,0.5 1.05,0.95 M 0.7,0.9 0.6,0.85 H 0.45 q -0.25,0 -0.25,0.2 l 0.25,0.1 H 0.5 L 0.7,0.9 M 1.15,3.85 V 4.2 L 1,4.45 H 0.9 L 0.7,4.2 -0.3,4.35 H -0.4 L -1.15,3.9 V 3.6 q 0.1,-0.55 0.45,-0.55 h 0.05 Q -0.4,3.1 -0.4,3.25 L -0.7,3.5 v 0.15 q 0,0.25 0.35,0.25 L 0.7,3.7 Q 0.75,3.15 1,3.15 l 0.15,0.7 m -0.85,1 -0.65,0.2 -0.2,0.2 V 5.3 l 0.2,0.1 0.4,-0.05 h 0.1 L 0.3,5.6 -0.05,5.75 h -0.4 Q -1,5.75 -1,5.35 q 0,-0.5 0.5,-0.7 h 0.1 l 0.7,0.2 M 0.15,7.45 V 7.5 L -0.3,7.65 H -0.75 L -1,7.45 V 7.4 l 0.2,-0.1 h 0.2 l 0.25,-0.05 q 0.5,0.05 0.5,0.2 M 0.3,6.35 v 0.1 L 0,6.6 -0.6,6.55 V 6.8 L -0.75,7.1 H -0.8 L -1.05,6.7 V 6.35 l 0.2,-0.25 h 0.7 L 0.3,6.35 M 0.35,8.4 V 8.8 L 0.2,9.1 0,8.35 -0.15,8.4 V 8.5 L -0.35,8.85 -0.5,8.5 H -0.55 L -0.6,8.55 -0.55,8.95 -0.7,9.2 H -0.75 L -1.05,8.4 V 8.35 q 0,-0.25 0.6,-0.25 L 0.15,8 0.35,8.4 m 0,1.3 -0.15,0.8 H 0.15 L -0.05,10 -0.8,10.1 -1,9.95 v -0.1 l 0.25,-0.2 0.7,0.1 v -0.2 l 0.2,-0.3 H 0.2 L 0.35,9.7 m -0.6,-18 h -0.1 L -0.5,-8.15 V -8 l 0.15,0.2 h 0.1 l 0.2,-0.2 v -0.1 l -0.2,-0.2 m 0,4.55 h -0.1 L -0.5,-3.6 v 0.15 l 0.15,0.2 h 0.1 l 0.2,-0.2 v -0.1 l -0.2,-0.2 M -0.45,0.45 -0.7,0.8 -0.5,1.05 -0.2,0.8 Q -0.25,0.45 -0.45,0.45"
         fill="#878787"
         fill-rule="evenodd"
         stroke="none"
         id="path17" />
    </g>
  </defs>
</svg>
