<?xml version="1.0" encoding="UTF-8" standalone="no"?>
<svg
   ffdec:objectType="frame"
   height="45.599251"
   width="33.066448"
   version="1.1"
   id="svg22"
   sodipodi:docname="2.svg"
   xmlns:inkscape="http://www.inkscape.org/namespaces/inkscape"
   xmlns:sodipodi="http://sodipodi.sourceforge.net/DTD/sodipodi-0.dtd"
   xmlns:xlink="http://www.w3.org/1999/xlink"
   xmlns="http://www.w3.org/2000/svg"
   xmlns:svg="http://www.w3.org/2000/svg"
   xmlns:ffdec="https://www.free-decompiler.com/flash">
  <sodipodi:namedview
     id="namedview22"
     pagecolor="#ffffff"
     bordercolor="#000000"
     borderopacity="0.25"
     inkscape:showpageshadow="2"
     inkscape:pageopacity="0.0"
     inkscape:pagecheckerboard="0"
     inkscape:deskcolor="#d1d1d1"
     fit-margin-top="5"
     fit-margin-left="5"
     fit-margin-right="5"
     fit-margin-bottom="5" />
  <g
     transform="translate(16.36095,22.822)"
     id="g6">
    <use
       ffdec:characterId="3752"
       height="26.4"
       transform="matrix(-0.5714,0,0,0.5714,7.2712,-3.3568)"
       width="26.4"
       xlink:href="#sprite0"
       id="use1" />
    <use
       ffdec:characterId="3748"
       height="23.950001"
       transform="matrix(0.5803,0,0,0.5803,-11.8659,-3.1738)"
       width="14.9"
       xlink:href="#sprite2"
       id="use2" />
    <use
       ffdec:characterId="3748"
       height="23.950001"
       transform="matrix(0.5803,0,0,0.5803,0.9341,-5.1738)"
       width="14.9"
       xlink:href="#sprite2"
       id="use3" />
    <use
       ffdec:characterId="3750"
       height="40.75"
       transform="matrix(-1.119,0,0,1.119,16.7055,-22.822)"
       width="29.549999"
       xlink:href="#sprite5"
       id="use4" />
    <use
       ffdec:characterId="3500"
       height="8"
       transform="rotate(180,-1.1,8.4)"
       width="10.8"
       xlink:href="#sprite6"
       id="use5" />
    <use
       ffdec:characterId="3500"
       height="8"
       transform="matrix(-0.9,0,0,0.9,-2.74,8.55)"
       width="10.8"
       xlink:href="#sprite7"
       id="use6" />
  </g>
  <defs
     id="defs22">
    <g
       id="sprite0"
       transform="translate(12.55,21.1)">
      <use
         ffdec:characterId="3751"
         height="9.1000004"
         transform="matrix(0.8268,0,0,0.8268,-5.7047,-3.7618)"
         width="13.5"
         xlink:href="#sprite1"
         id="use7" />
    </g>
    <g
       id="sprite1"
       transform="translate(6.9,4.55)">
      <use
         ffdec:characterId="2729"
         height="8.1999998"
         transform="matrix(0.9407,0,0,1.1098,-6.3411,-4.5445)"
         width="13.5"
         xlink:href="#shape0"
         id="use8" />
    </g>
    <g
       id="shape0"
       transform="translate(6.9,4.05)">
      <path
         d="M 3.55,-1.75 Q 4.75,-1 4.75,-0.4 L 4.6,0.55 Q 4.3,1 3.35,1.45 H 0.95 Q -0.3,1.15 -0.8,0.7 l -0.3,-0.95 0.25,-0.95 0.8,-1 q 2.1,-0.5 3.6,0.45 M 1.7,-0.6 Q 2,-0.15 2.5,-0.15 L 3.05,-0.4 3.35,-0.95 Q 3.35,-1.7 2.5,-1.6 1.6,-1.55 1.6,-0.95 l 0.1,0.35"
         fill="#a6a6a6"
         fill-rule="evenodd"
         stroke="none"
         id="path8" />
      <path
         d="M 1.7,-0.6 1.6,-0.95 q 0,-0.6 0.9,-0.65 0.85,-0.1 0.85,0.65 L 3.05,-0.4 2.5,-0.15 Q 2,-0.15 1.7,-0.6 M 3.55,-1.75 Q 2.05,-2.7 -0.05,-2.2 l -0.8,1 -0.25,0.95 0.3,0.95 q 0.5,0.45 1.75,0.75 h 2.4 Q 4.3,1 4.6,0.55 L 4.75,-0.4 q 0,-0.6 -1.2,-1.35 m -5.4,-1.35 q 1.45,-1 3.45,-0.95 5,0.15 5,4.6 0,1 -0.7,1.65 Q 4.75,3.35 2,3.35 H 1.85 v 0.2 L 1.2,4.15 h -1.6 q -0.7,-0.1 -0.7,-0.7 l 0.45,-0.4 Q -2.2,2.65 -2.9,1.65 V 1.55 Q -3.8,2.9 -5.35,2.9 l -0.7,-0.3 0.2,-1.4 q 0,-1.15 -1.05,-2.7 0.45,-0.8 2.3,-0.4 l 1.45,0.4 q 0.35,-0.9 1.3,-1.6"
         fill="#6b6b6b"
         fill-rule="evenodd"
         stroke="none"
         id="path9" />
    </g>
    <g
       id="sprite2"
       transform="translate(5.8,21.15)">
      <use
         ffdec:characterId="3747"
         height="27.5"
         transform="matrix(0.8718,0,0,0.8718,-5.8013,-21.1577)"
         width="17.1"
         xlink:href="#sprite3"
         id="use9" />
    </g>
    <g
       id="sprite3"
       transform="translate(5.45,22.95)">
      <use
         ffdec:characterId="3746"
         height="5.25"
         transform="scale(0.7692)"
         width="5.0999999"
         xlink:href="#sprite4"
         id="use10" />
    </g>
    <g
       id="sprite4">
      <use
         ffdec:characterId="1852"
         height="5.25"
         width="5.0999999"
         xlink:href="#shape1"
         id="use11" />
    </g>
    <g
       id="shape1">
      <path
         d="M 3.4,1.1 2.1,1.2 1.55,2.05 Q 1.15,2.7 1.3,3.1 1.4,3.45 2.2,4 3,4.55 3.5,4.3 3.95,4.05 4.25,2.6 4.25,1.35 3.4,1.1 M 0.35,4.2 Q 0,3.6 0,2.9 0,0.55 2.55,0.1 5.1,-0.35 5.1,1.55 5.1,5.25 2.6,5.25 1,5.25 0.35,4.2"
         fill="#ffffff"
         fill-opacity="0.32549"
         fill-rule="evenodd"
         stroke="none"
         id="path11" />
    </g>
    <g
       id="sprite5"
       transform="translate(14.75,20.35)">
      <use
         ffdec:characterId="3749"
         height="40.75"
         transform="translate(-14.75,-20.35)"
         width="29.549999"
         xlink:href="#shape2"
         id="use12" />
    </g>
    <g
       id="shape2"
       transform="translate(14.75,20.35)">
      <path
         d="m 0.15,-20.3 0.6,-0.05 q 1.45,0.05 1.45,0.8 l -0.15,0.45 0.1,0.75 -0.1,1.85 0.15,3.6 -0.05,1.55 -0.15,0.7 1.6,0.2 0.25,0.55 0.2,0.95 -0.05,1 q -0.1,0.7 -0.45,0.9 l -0.9,0.3 0.1,1 h 0.3 q 5.95,0.95 8.2,3.1 1.55,1.5 1.55,4 L 12.75,3.2 12.7,3.45 14.15,3.7 14.2,3.65 q 0.35,-0.2 0.55,0.2 H 14.8 V 18.2 l -0.35,0.15 q -0.3,0.4 -0.95,0.4 L 13.05,18.7 v 0.25 0.75 q -0.1,0.7 -0.8,0.7 L 11.9,20.35 h -23.5 l -0.35,0.05 q -0.7,0 -0.8,-0.7 V 18.95 18.7 l -0.45,0.05 q -0.65,0 -0.95,-0.4 l -0.6,-0.45 V 4 l 0.25,-0.15 h 0.05 q 0.2,-0.4 0.55,-0.2 L -13.85,3.7 -12.4,3.45 -12.45,3.2 -12.5,1.35 q 0,-2.5 1.55,-4 1.1,-1.05 3.15,-1.8 l -0.25,-0.7 -1.25,-1 -1.15,-0.95 -1.2,-2.15 -0.05,-1.65 q 0,-3.4 3,-5.05 l 1.75,-0.6 q 0.15,-1.05 0.6,-1.05 0.45,0 0.6,1 h 4 l -0.1,-1.75 0.1,-0.75 -0.15,-0.45 q 0,-0.75 1.45,-0.8 l 0.6,0.05 m 0.5,1.55 h -0.4 -0.1 -0.1 -0.4 v 0.45 l -0.05,1.6 H 0.15 0.7 l -0.05,-1.6 v -0.45 m 0.05,2.6 h -1.05 v 0.6 l 1,0.1 0.05,-0.7 M 0.65,-14.9 H -0.3 v 2.05 1.25 0.25 l -0.1,0.55 -0.05,0.15 0.7,0.1 0.5,-0.1 -0.05,-0.15 -0.1,-0.55 v -0.25 -1.25 l 0.05,-2.05 m 1.85,6.5 v -0.55 -0.2 L 1.35,-9.1 h -1.2 -1.2 L -2.2,-9.15 v 0.2 0.55 l 0.95,-0.05 1.4,0.15 1.4,-0.15 0.95,0.05 m -2.35,1.6 -0.65,0.1 0.05,0.95 h 1.2 L 0.8,-6.7 0.15,-6.8 m -1.95,5.05 0.2,-0.05 1.75,0.05 1.75,-0.05 1.9,0.2 3,0.3 2.5,0.5 0.95,0.25 -1.45,-1.5 Q 6.65,-3.5 2.6,-3.65 h -4.9 q -2.6,0.1 -4.35,0.75 -0.9,0.25 -1.6,0.7 l -0.25,0.15 -1.45,1.5 0.95,-0.25 0.65,-0.15 1.1,-0.2 0.45,0.1 q 0.15,0 0.35,-0.2 h 0.05 l 0.5,-0.1 0.8,-0.1 0.95,0.1 2.05,-0.35 0.25,-0.05 H -1.8 M -6.4,0.1 h 1.3 l 0.25,0.05 h 10 L 5.4,0.1 8.5,0.05 9.45,0 9,-0.15 6.8,-0.65 4.4,-0.95 0.15,-1.45 -4.1,-0.95 -5.9,-0.75 -6.65,-0.6 -8.2,-0.3 -8.7,-0.15 -9.15,0 -8.2,0.05 h 0.15 L -6.4,0.1 m -0.35,3.35 h 17.4 V 3.15 0.6 L 5.4,0.8 5.15,0.95 h -10 L -5.1,0.8 -6.25,0.75 -7.85,0.7 -10.35,0.6 v 2.55 0.3 h 1.55 2.05 M 13.1,5.2 h 0.2 V 5.1 l -0.6,0.1 h -25.1 l -0.6,-0.1 0.05,0.1 h 0.15 L -12.7,6 -0.3,6.05 0.15,6.2 0.6,6.05 13,6 13.1,5.2 M 12.95,6.8 H 0.8 L 0.55,6.85 0.15,6.75 -0.25,6.85 -0.5,6.8 h -12.15 l -0.1,2.5 v 2.95 0.25 0.95 h -0.05 v 0.2 l -0.1,1.85 h 26.1 l -0.1,-1.85 v -0.2 L 13.05,9.3 12.95,6.8 m -7,4.85 q 0,1 1.25,1 0.7,0 0.85,-0.75 L 7.7,11.3 6.35,10.85 l -0.3,0.4 -0.1,0.4 M 5.9,9.4 Q 5.9,8 6.85,8.1 7.8,8.2 7.8,9.75 v 0.3 q 1.3,0.3 1.3,1.85 0,1.95 -1.85,1.95 -1.4,0 -1.95,-0.75 L 5,12.3 Q 5,10.65 6,10.15 L 5.9,9.4 m 7.4,6.9 H -13 l -0.1,0.4 0.45,0.1 h 25.6 L 13.4,16.7 13.3,16.3 M -9.25,-13.5 -10.1,-12 v 1.05 q 0,2.2 1.9,3.65 1.75,1.3 1.9,2.35 l 3.55,-0.8 h 0.3 l 0.1,-1 -0.9,-0.3 q -0.35,-0.2 -0.45,-0.9 l -0.05,-1 0.2,-0.95 0.25,-0.55 1.6,-0.2 -0.15,-0.7 -0.05,-1.55 0.05,-2.05 -1.85,0.05 -1.95,-0.05 q -0.05,0.7 -0.8,0.7 -0.5,0 -0.6,-0.35 v -0.35 l -0.3,0.15 q -1.7,0.9 -1.9,1.3 m 7.35,24.85 -0.1,1.95 0.1,0.3 0.05,0.15 q 0,0.3 -0.55,0.6 h -6.15 l -2,-0.1 -0.45,0.25 q -0.4,0 -0.5,-0.95 V 12.6 l 0.2,-1.95 0.35,-0.3 q 0.4,-0.15 1.35,0 l 7.3,0.05 0.4,0.4 -0.05,0.15 0.05,0.4 m -8.5,2.05 1.85,-0.15 h 0.3 l 0.75,-0.1 4.7,0.05 -0.1,-0.7 -0.05,-1.3 -7.55,0.1 0.05,1.5 0.05,0.6"
         fill="#6b6b6b"
         fill-rule="evenodd"
         stroke="none"
         id="path12" />
      <path
         d="m 0.65,-18.75 v 0.45 l 0.05,1.6 H 0.15 -0.4 l 0.05,-1.6 v -0.45 h 0.4 0.1 0.1 0.4 m 0,3.85 -0.05,2.05 v 1.25 0.25 l 0.1,0.55 0.05,0.15 -0.5,0.1 -0.7,-0.1 0.05,-0.15 0.1,-0.55 v -0.25 -1.25 -2.05 H 0.65 M 2.5,-8.4 1.55,-8.45 0.15,-8.3 -1.25,-8.45 -2.2,-8.4 v -0.55 -0.2 l 1.15,0.05 h 1.2 1.2 L 2.5,-9.15 v 0.2 0.55 m -2.35,1.6 0.65,0.1 -0.05,0.95 h -1.2 L -0.5,-6.7 0.15,-6.8 m -6.8,3.9 q 1.75,-0.65 4.35,-0.75 h 4.9 q 4.05,0.15 6.2,1.6 l 1.45,1.5 L 9.3,-0.8 6.8,-1.3 3.8,-1.6 1.9,-1.8 0.15,-1.75 -1.6,-1.8 -1.8,-1.75 q 0.75,-0.35 0.75,-0.65 0,-0.85 -2.4,-0.75 -2.4,0.05 -2.4,1.05 0,0.5 0.75,0.65 l -0.8,0.1 -0.5,0.1 0.15,-0.4 q 0,-0.45 -0.55,-0.55 l 0.15,-0.7 m -1.7,1.95 -0.65,0.15 -0.95,0.25 1.45,-1.5 0.25,-0.15 -0.1,1.15 v 0.1"
         fill="#e2e2e2"
         fill-opacity="0.301961"
         fill-rule="evenodd"
         stroke="none"
         id="path13" />
      <path
         d="m 0.7,-16.15 -0.05,0.7 -1,-0.1 v -0.6 H 0.7"
         fill="#7b7b7b"
         fill-opacity="0.701961"
         fill-rule="evenodd"
         stroke="none"
         id="path14" />
      <path
         d="m -7.25,-1.15 -1.1,0.2 v -0.1 l 0.1,-1.15 q 0.7,-0.45 1.6,-0.7 L -6.8,-2.2 H -6.85 Q -7.5,-2.35 -7.5,-1.7 l 0.05,0.35 0.2,0.2 m 0.6,0.55 0.1,0.3 0.15,0.4 -1.65,-0.05 -0.15,-0.35 1.55,-0.3 m 0.4,1.35 0.05,0.5 q 0,1.35 -0.55,2.2 H -8.8 l 0.25,-0.2 q 0.85,-0.7 0.85,-1.7 l -0.15,-0.85 1.6,0.05"
         fill="#8e8e8e"
         fill-rule="evenodd"
         stroke="none"
         id="path15" />
      <path
         d="m -1.8,-1.75 h -0.05 l -0.25,0.05 -2.05,0.35 -0.95,-0.1 q -0.75,-0.15 -0.75,-0.65 0,-1 2.4,-1.05 2.4,-0.1 2.4,0.75 0,0.3 -0.75,0.65 m -4.6,0.5 h -0.05 q -0.2,0.2 -0.35,0.2 l -0.45,-0.1 -0.2,-0.2 -0.05,-0.35 q 0,-0.65 0.65,-0.5 h 0.05 q 0.55,0.1 0.55,0.55 l -0.15,0.4"
         fill="#ffffff"
         fill-rule="evenodd"
         stroke="none"
         id="path16" />
      <path
         d="m 12.95,6.8 0.1,2.5 0.05,4.15 v 0.2 l 0.1,1.85 h -26.1 l 0.1,-1.85 v -0.2 h 0.05 V 12.5 12.25 9.3 l 0.1,-2.5 H -0.5 l 0.25,0.05 0.4,-0.1 0.4,0.1 L 0.8,6.8 h 12.15 m 0.35,9.5 0.1,0.4 -0.45,0.1 h -25.6 L -13.1,16.7 -13,16.3 H 13.3 M 5.9,9.4 6,10.15 q -1,0.5 -1,2.15 l 0.3,0.8 q 0.55,0.75 1.95,0.75 1.85,0 1.85,-1.95 0,-1.55 -1.3,-1.85 V 9.75 Q 7.8,8.2 6.85,8.1 5.9,8 5.9,9.4 m -7.8,1.95 -0.05,-0.4 0.05,-0.15 -0.4,-0.4 -7.3,-0.05 q -0.95,-0.15 -1.35,0 l -0.35,0.3 -0.2,1.95 v 0.95 q 0.1,0.95 0.5,0.95 l 0.45,-0.25 2,0.1 h 6.15 q 0.55,-0.3 0.55,-0.6 L -1.9,13.6 -2,13.3 -1.9,11.35"
         fill="#bbbbbb"
         fill-rule="evenodd"
         stroke="none"
         id="path17" />
      <path
         d="M 13.1,5.2 13,6 0.6,6.05 0.15,6.2 -0.3,6.05 -12.7,6 -12.8,5.2 h -0.15 L -13,5.1 l 0.6,0.1 h 25.1 l 0.6,-0.1 v 0.1 h -0.2 m -7.15,6.45 0.1,-0.4 0.3,-0.4 1.35,0.45 0.35,0.6 q -0.15,0.75 -0.85,0.75 -1.25,0 -1.25,-1"
         fill="#d4d4d4"
         fill-rule="evenodd"
         stroke="none"
         id="path18" />
      <path
         d="m -10.4,13.4 -0.05,-0.6 -0.05,-1.5 7.55,-0.1 0.05,1.3 0.1,0.7 -4.7,-0.05 -0.75,0.1 h -0.3 l -1.85,0.15"
         fill="#808080"
         fill-rule="evenodd"
         stroke="none"
         id="path19" />
      <path
         d="m -6.65,-0.6 0.75,-0.15 1.8,-0.2 4.25,-0.5 4.25,0.5 2.4,0.3 L 9,-0.15 9.45,0 8.5,0.05 5.4,0.1 5.15,0.15 h -10 L -5.1,0.1 h -1.3 l -0.15,-0.4 -0.1,-0.3 m -1.4,0.65 H -8.2 L -9.15,0 -8.7,-0.15 -8.2,-0.3 -8.05,0.05 m 1.8,0.7 1.15,0.05 0.25,0.15 h 10 L 5.4,0.8 10.65,0.6 v 2.55 0.3 H -6.75 Q -6.2,2.6 -6.2,1.25 l -0.05,-0.5 m -2.55,2.7 h -1.55 V 3.15 0.6 l 2.5,0.1 0.15,0.85 q 0,1 -0.85,1.7 l -0.25,0.2"
         fill="#aa9292"
         fill-rule="evenodd"
         stroke="none"
         id="path20" />
    </g>
    <g
       id="sprite6"
       transform="translate(5.4,4)">
      <use
         ffdec:characterId="43"
         height="8"
         transform="translate(-5.4,-4)"
         width="10.8"
         xlink:href="#shape3"
         id="use20" />
    </g>
    <g
       id="shape3"
       transform="translate(5.4,4)">
      <path
         d="m 2.9,-0.35 q 0,-1.25 1.25,-1.25 1.25,0 1.25,1.2 0,1.3 -1.25,1.3 Q 3.6,0.9 3.25,0.5 2.9,0.15 2.9,-0.35 m 0.35,-2.3 q 0,0.55 -0.35,0.9 -0.4,0.45 -1,0.45 -1.35,0 -1.35,-1.4 0,-1.3 1.35,-1.3 1.35,0 1.35,1.35 m -3.1,1.9 h 0.2 q 2.6,0.1 2.6,2.8 l -0.3,1 Q 2.05,4 0.45,4 H 0.35 0.15 0.1 -0.45 q -1.6,0 -2.2,-0.95 l -0.3,-1 q 0,-2.8 2.8,-2.8 h 0.3 M -1.55,-4 q 1.35,0 1.35,1.35 0,0.55 -0.4,0.9 -0.4,0.45 -0.95,0.45 -1.4,0 -1.4,-1.4 0,-1.3 1.4,-1.3 m -2.6,2.4 q 1.25,0 1.25,1.25 0,0.5 -0.35,0.85 -0.35,0.4 -0.9,0.4 -1.25,0 -1.25,-1.3 0,-1.2 1.25,-1.2"
         fill="#bbbbbb"
         fill-rule="evenodd"
         stroke="none"
         id="path21" />
    </g>
    <g
       id="sprite7"
       transform="translate(5.4,4)">
      <use
         ffdec:characterId="43"
         height="8"
         transform="translate(-5.4,-4)"
         width="10.8"
         xlink:href="#shape4"
         id="use21" />
    </g>
    <g
       id="shape4"
       transform="translate(5.4,4)">
      <path
         d="m 2.9,-0.35 q 0,-1.25 1.25,-1.25 1.25,0 1.25,1.2 0,1.3 -1.25,1.3 Q 3.6,0.9 3.25,0.5 2.9,0.15 2.9,-0.35 m 0.35,-2.3 q 0,0.55 -0.35,0.9 -0.4,0.45 -1,0.45 -1.35,0 -1.35,-1.4 0,-1.3 1.35,-1.3 1.35,0 1.35,1.35 m -3.1,1.9 h 0.2 q 2.6,0.1 2.6,2.8 l -0.3,1 Q 2.05,4 0.45,4 H 0.35 0.15 0.1 -0.45 q -1.6,0 -2.2,-0.95 l -0.3,-1 q 0,-2.8 2.8,-2.8 h 0.3 M -1.55,-4 q 1.35,0 1.35,1.35 0,0.55 -0.4,0.9 -0.4,0.45 -0.95,0.45 -1.4,0 -1.4,-1.4 0,-1.3 1.4,-1.3 m -2.6,2.4 q 1.25,0 1.25,1.25 0,0.5 -0.35,0.85 -0.35,0.4 -0.9,0.4 -1.25,0 -1.25,-1.3 0,-1.2 1.25,-1.2"
         fill="#6b6b6b"
         fill-rule="evenodd"
         stroke="none"
         id="path22" />
    </g>
  </defs>
</svg>
