<?xml version="1.0" encoding="UTF-8" standalone="no"?>
<svg
   ffdec:objectType="frame"
   height="30.6625"
   width="29.65"
   version="1.1"
   id="svg17"
   sodipodi:docname="2.svg"
   xmlns:inkscape="http://www.inkscape.org/namespaces/inkscape"
   xmlns:sodipodi="http://sodipodi.sourceforge.net/DTD/sodipodi-0.dtd"
   xmlns:xlink="http://www.w3.org/1999/xlink"
   xmlns="http://www.w3.org/2000/svg"
   xmlns:svg="http://www.w3.org/2000/svg"
   xmlns:ffdec="https://www.free-decompiler.com/flash">
  <sodipodi:namedview
     id="namedview17"
     pagecolor="#ffffff"
     bordercolor="#000000"
     borderopacity="0.25"
     inkscape:showpageshadow="2"
     inkscape:pageopacity="0.0"
     inkscape:pagecheckerboard="0"
     inkscape:deskcolor="#d1d1d1"
     fit-margin-top="5"
     fit-margin-left="5"
     fit-margin-right="5"
     fit-margin-bottom="5" />
  <g
     transform="translate(14.8,13.2125)"
     id="g6">
    <use
       ffdec:characterId="2374"
       height="26.450001"
       transform="translate(-13.6,-10.1)"
       width="26.75"
       xlink:href="#shape0"
       id="use1" />
    <use
       ffdec:characterId="2011"
       height="5.6999998"
       transform="matrix(-0.7647,0,0,0.7647,6.9912,1.4206)"
       width="5.5999999"
       xlink:href="#sprite0"
       id="use2" />
    <use
       ffdec:characterId="2011"
       height="5.6999998"
       transform="matrix(-0.7647,0,0,0.7647,-3.8588,-0.3294)"
       width="5.5999999"
       xlink:href="#sprite0"
       id="use3" />
    <use
       ffdec:characterId="44"
       height="8"
       transform="matrix(0.5,0.866,-0.9247,0.5339,-9.1513,4.938)"
       width="10.8"
       xlink:href="#sprite1"
       id="use4" />
    <use
       ffdec:characterId="1855"
       height="27.5"
       transform="matrix(-1,0,0,1,8.9,-11.5)"
       width="17.1"
       xlink:href="#sprite2"
       id="use5" />
    <use
       ffdec:characterId="2370"
       height="30.65"
       transform="translate(-14.8,-13.2)"
       width="29.65"
       xlink:href="#sprite5"
       id="use6" />
  </g>
  <defs
     id="defs17">
    <g
       id="shape0"
       transform="translate(13.6,10.1)">
      <path
         d="m 3.95,-5.1 -0.3,0.15 -0.4,-0.2 -0.05,-0.3 Q 3.2,-5.8 3.65,-5.8 L 4,-5.45 3.95,-5.1 M 3.05,-4 3.35,-4.25 H 3.8 L 3.95,-3.85 3.5,-3.4 3.05,-4 M 1.8,-1.9 Q 3,-2.95 5.15,-2.45 7.05,-2.1 8.5,-0.6 l 0.05,0.05 Q 8.3,-2.4 7.35,-4.05 5.3,-7.65 0.85,-7.3 -1.65,-6.25 -3.5,-5 v 0.7 l 0.3,0.1 1,0.3 0.2,0.05 0.25,0.1 2.05,0.85 1.5,1 M 6.35,-3.45 6,-3.25 5.5,-3.75 Q 5.5,-4.3 6,-4.2 l 0.45,0.5 -0.1,0.25 M -9,13.05 -10.05,11.6 q -1.6,-2.65 -1.6,-5.6 0,-3.7 1.25,-6.75 -1.1,-0.4 -1.65,-1.1 -0.8,-0.9 -0.8,-2.05 0,-4.65 4.7,-4.4 1.6,0.05 2.95,0.8 2.25,-1.7 5.1,-2.35 4.7,-0.95 7.9,1.65 3.65,2.85 3.65,8.85 l -0.3,3.95 q 2,2.65 2,4.45 0,0.85 -0.55,1.9 -0.8,1.5 -2.4,1.5 -0.75,0 -1,-0.4 L 9.15,11.6 q 0,-0.5 1.1,-1.1 l 1,-1 q 0,-0.65 -0.75,-1.95 l -0.55,1.5 q -0.8,2.1 -2,3.65 -1.25,1.55 -2.85,2.4 -2.3,1.25 -5.35,1.25 -3.15,0 -5.5,-1 -1.9,-0.8 -3.25,-2.3 M 7.65,1.25 Q 6.95,0.35 5.3,-0.25 3.15,-0.95 2.65,0.75 2.3,1.1 2.3,1.85 L 2.55,2.8 3.05,3.4 3.1,3.5 Q 3.7,4.15 5,4.25 L 5.5,4.3 H 6 L 7.05,4.15 V 4.2 L 7.35,4.05 8,3.05 V 2.95 2.85 L 8.2,2.15 7.6,1.25 H 7.65 M 5.45,11 q 1.2,-1.4 2,-3.5 L 7.9,6 6.9,6.15 5.85,6.05 3.95,5.85 2.55,5.6 Q 1.8,5.3 1.15,4.6 0.3,3.65 0.3,3 0.3,0.8 0.85,-0.55 L -0.55,-0.95 -0.9,-1.1 -2.55,-1.9 -2.85,-2 -3.45,-2.25 -4,-2.4 -4.1,-2.3 q -0.8,1.8 -2.55,2 H -7.1 -7.75 Q -8.8,1.85 -8.8,4.75 v 0.1 q 0,1.55 0.4,2.95 l 0.6,1.6 0.2,0.35 0.3,0.55 1.85,1.85 0.65,0.4 0.9,0.4 3.7,0.6 2.6,-0.4 1.4,-0.7 L 5.45,11 m -2.95,0.85 -0.7,0.2 q -2.55,0 -5.6,-1 L -4.75,10.8 -5.1,10.65 -5.45,10.55 -6.5,9.85 -6.4,8.95 -6.35,8.75 -5.85,7.4 V 7.35 l 0.4,-0.45 0.4,-0.5 0.2,-0.15 q 1.3,-1.1 3.05,-1.1 3.45,0 4.35,3.2 l 0.3,2.55 q 0,0.65 -0.35,0.95 m -12.1,-14.3 0.8,-1.35 0.8,-1.05 1.15,-1.25 -2.6,-0.1 -0.75,0.95 -0.55,1.05 -0.05,0.3 q 0,0.45 0.5,0.95 l 0.65,0.65 0.05,-0.15"
         fill="#6b6b6b"
         fill-rule="evenodd"
         stroke="none"
         id="path6" />
      <path
         d="m 7.95,12.7 2.6,0.6 q 1.8,0.55 1.8,1.3 L 11.9,15.45 Q 11.35,15.9 10.5,15.9 L 5.65,15.1 H 5.1 q 1.6,-0.85 2.85,-2.4 m -13.7,2.65 -1.55,-0.05 -5,0.1 q -1.3,0 -1.3,-1 0,-0.8 1.55,-1.05 L -9,13.05 q 1.35,1.5 3.25,2.3 m -3.85,-17.8 -0.55,-0.75 -0.6,-1 0.55,-1.05 1.4,1.45 -0.8,1.35"
         fill="#999999"
         fill-rule="evenodd"
         stroke="none"
         id="path7" />
      <path
         d="M 6.35,-3.45 6.45,-3.7 6,-4.2 Q 5.5,-4.3 5.5,-3.75 l 0.5,0.5 0.35,-0.2 M 1.8,-1.9 0.3,-2.9 -1.75,-3.75 -2,-3.85 -2.2,-3.9 -3.2,-4.2 -3.5,-4.3 V -5 q 1.85,-1.25 4.35,-2.3 4.45,-0.35 6.5,3.25 0.95,1.65 1.2,3.5 L 8.5,-0.6 Q 7.05,-2.1 5.15,-2.45 3,-2.95 1.8,-1.9 M 3.05,-4 3.5,-3.4 3.95,-3.85 3.8,-4.25 H 3.35 L 3.05,-4 M 3.95,-5.1 4,-5.45 3.65,-5.8 q -0.45,0 -0.45,0.35 l 0.05,0.3 0.4,0.2 0.3,-0.15 M 5.85,6.05 6.9,6.15 7.9,6 7.45,7.5 q -0.8,2.1 -2,3.5 L 5.8,6.7 5.85,6.05 m 1.8,-4.8 H 7.6 L 8.2,2.15 8,2.85 v 0.1 0.1 l -0.65,1 -0.3,0.15 V 4.15 L 6,4.3 H 5.5 L 5,4.25 Q 3.7,4.15 3.1,3.5 L 3.05,3.4 2.55,2.8 2.3,1.85 q 0,-0.75 0.35,-1.1 0.5,-1.7 2.65,-1 1.65,0.6 2.35,1.5 m -5.25,11.9 -2.6,0.4 -3.7,-0.6 -0.9,-0.4 0.05,-1.75 0.95,0.25 q 3.05,1 5.6,1 l 0.7,-0.2 -0.1,0.75 v 0.55 M -7.8,9.4 -8.4,7.8 Q -8.8,6.4 -8.8,4.85 v -0.1 q 0,-2.9 1.05,-5.05 h 0.65 0.45 q 1.75,-0.2 2.55,-2 l 0.1,-0.1 0.55,0.15 0.6,0.25 0.3,0.1 1.65,0.8 0.35,0.15 1.4,0.4 Q 0.3,0.8 0.3,3 q 0,0.65 0.85,1.6 0.65,0.7 1.4,1 v 2.75 q -0.9,-3.2 -4.35,-3.2 -1.75,0 -3.05,1.1 V 5.85 L -5,4.25 l 0.4,-1 q 0,-1.65 -1.8,-0.2 -0.8,-0.8 -1.2,-0.45 -0.3,0.25 -0.3,1 l 0.1,1.1 v 4.7"
         fill="#d9c8c5"
         fill-rule="evenodd"
         stroke="none"
         id="path8" />
      <path
         d="M 5.85,6.05 5.8,6.7 5.45,11 3.8,12.45 2.4,13.15 V 12.6 L 2.5,11.85 Q 2.85,11.55 2.85,10.9 L 2.55,8.35 V 5.6 l 1.4,0.25 1.9,0.2 M -4.8,12.55 -5.45,12.15 -7.3,10.3 -7.6,9.75 -7.8,9.4 V 4.7 L -7.9,3.6 q 0,-0.75 0.3,-1 0.4,-0.35 1.2,0.45 1.8,-1.45 1.8,0.2 l -0.4,1 0.15,1.6 v 0.4 l -0.2,0.15 -0.4,0.5 -0.4,0.45 V 7.4 l -0.5,1.35 -0.05,0.2 -0.1,0.9 1.05,0.7 0.35,0.1 0.35,0.15 -0.05,1.75"
         fill="#aec5c3"
         fill-rule="evenodd"
         stroke="none"
         id="path9" />
    </g>
    <g
       id="sprite0"
       transform="translate(2.8,2.85)">
      <use
         ffdec:characterId="2007"
         height="5.6999998"
         transform="translate(-2.8,-2.85)"
         width="5.5999999"
         xlink:href="#shape1"
         id="use9" />
    </g>
    <g
       id="shape1"
       transform="translate(2.8,2.85)">
      <path
         d="M 2.8,-0.2 2.35,1.5 Q 1.65,2.85 0.2,2.85 -1.4,2.85 -2.2,1.8 -2.8,1.05 -2.8,0.3 q 0,-2.7 2.8,-3.1 2.8,-0.35 2.8,2.6 m -3.55,-1.7 q -1,0 -1,1.05 -0.15,0.9 0.8,0.9 0.45,0 0.85,-0.35 l 0.35,-0.75 q 0,-0.85 -1,-0.85"
         fill="#6b6b6b"
         fill-rule="evenodd"
         stroke="none"
         id="path10" />
      <path
         d="m -0.75,-1.9 q 1,0 1,0.85 L -0.1,-0.3 q -0.4,0.35 -0.85,0.35 -0.95,0 -0.8,-0.9 0,-1.05 1,-1.05"
         fill="#ffffff"
         fill-rule="evenodd"
         stroke="none"
         id="path11" />
    </g>
    <g
       id="sprite1"
       transform="translate(5.4,4)">
      <use
         ffdec:characterId="43"
         height="8"
         transform="translate(-5.4,-4)"
         width="10.8"
         xlink:href="#shape2"
         id="use11" />
    </g>
    <g
       id="shape2"
       transform="translate(5.4,4)">
      <path
         d="m 2.9,-0.35 q 0,-1.25 1.25,-1.25 1.25,0 1.25,1.2 0,1.3 -1.25,1.3 Q 3.6,0.9 3.25,0.5 2.9,0.15 2.9,-0.35 m 0.35,-2.3 q 0,0.55 -0.35,0.9 -0.4,0.45 -1,0.45 -1.35,0 -1.35,-1.4 0,-1.3 1.35,-1.3 1.35,0 1.35,1.35 m -3.1,1.9 h 0.2 q 2.6,0.1 2.6,2.8 l -0.3,1 Q 2.05,4 0.45,4 H 0.35 0.15 0.1 -0.45 q -1.6,0 -2.2,-0.95 l -0.3,-1 q 0,-2.8 2.8,-2.8 h 0.3 M -1.55,-4 q 1.35,0 1.35,1.35 0,0.55 -0.4,0.9 -0.4,0.45 -0.95,0.45 -1.4,0 -1.4,-1.4 0,-1.3 1.4,-1.3 m -2.6,2.4 q 1.25,0 1.25,1.25 0,0.5 -0.35,0.85 -0.35,0.4 -0.9,0.4 -1.25,0 -1.25,-1.3 0,-1.2 1.25,-1.2"
         fill="#6b6b6b"
         fill-opacity="0.6"
         fill-rule="evenodd"
         stroke="none"
         id="path12" />
    </g>
    <g
       id="sprite2"
       transform="translate(5.45,22.95)">
      <use
         ffdec:characterId="1854"
         height="27.5"
         transform="translate(-5.45,-22.95)"
         width="17.1"
         xlink:href="#sprite3"
         id="use12" />
    </g>
    <g
       id="sprite3"
       transform="translate(5.45,22.95)">
      <use
         ffdec:characterId="1853"
         height="5.25"
         transform="scale(0.7692)"
         width="5.0999999"
         xlink:href="#sprite4"
         id="use13" />
    </g>
    <g
       id="sprite4">
      <use
         ffdec:characterId="1852"
         height="5.25"
         width="5.0999999"
         xlink:href="#shape3"
         id="use14" />
    </g>
    <g
       id="shape3">
      <path
         d="M 3.4,1.1 2.1,1.2 1.55,2.05 Q 1.15,2.7 1.3,3.1 1.4,3.45 2.2,4 3,4.55 3.5,4.3 3.95,4.05 4.25,2.6 4.25,1.35 3.4,1.1 M 0.35,4.2 Q 0,3.6 0,2.9 0,0.55 2.55,0.1 5.1,-0.35 5.1,1.55 5.1,5.25 2.6,5.25 1,5.25 0.35,4.2"
         fill="#999999"
         fill-rule="evenodd"
         stroke="none"
         id="path14" />
    </g>
    <g
       id="sprite5"
       transform="translate(14.8,13.25)">
      <use
         ffdec:characterId="2369"
         height="30.65"
         transform="translate(-14.8,-13.25)"
         width="29.65"
         xlink:href="#shape4"
         id="use15" />
    </g>
    <g
       id="shape4"
       transform="translate(14.8,13.25)">
      <path
         d="m 11.6,-13.15 q 0.05,-0.15 0.15,-0.1 l 0.3,0.35 v 0.1 l 0.2,0.4 v 5 q 1.05,0.4 1.7,1.3 l 0.25,0.4 0.3,0.6 0.15,0.5 0.05,0.1 0.05,0.95 0.05,0.9 V 12.1 l 0.05,0.4 v 0.6 H 14.7 v 0.3 l -0.05,0.95 -0.05,0.1 -0.15,0.5 -0.3,0.6 -0.25,0.4 q -0.8,1.1 -2.15,1.45 H -11.8 q -1.35,-0.35 -2.15,-1.45 l -0.25,-0.4 -0.3,-0.6 -0.15,-0.5 -0.05,-0.1 -0.05,-0.95 -0.05,-2.15 V 11.1 -2.3 l 0.1,-1.25 0.05,-0.95 0.05,-0.1 0.15,-0.5 0.3,-0.6 0.25,-0.4 0.5,-0.55 1.05,-0.7 v -5.05 h 0.05 l 0.2,-0.4 v -0.1 q 0.2,-0.55 0.45,-0.25 l 0.2,-0.1 4.85,0.1 v 0.05 h 2 0.25 1.4 0.1 0.3 0.1 0.55 0.25 0.25 0.15 l 12.65,-0.15 0.2,0.1 m -9,2.25 H 2.45 1.35 v 0.05 h -3.8 v -0.05 h -1.1 -0.15 l -3.95,0.05 v 0.05 h -2.5 v 2 l 6.45,0.1 h 0.15 1.1 v -0.05 h 3.8 v 0.05 h 1.1 0.15 l 7.5,-0.1 v -2 l -7.5,-0.1 m 9.7,8.3 q -0.15,-1.05 -0.85,-1.75 l -0.8,-0.5 -10.3,-0.3 -9.3,-0.2 q -1.85,0.4 -2.45,1 -0.7,0.7 -0.85,1.75 l -0.05,1.2 h -0.05 V 11 l 0.05,0.25 v 1.2 q 0.15,1.05 0.85,1.75 l 0.8,0.5 10.3,0.3 9.3,0.2 q 1.85,-0.4 2.45,-1 0.7,-0.7 0.85,-1.75 l 0.05,-1.2 V 11 -1.4 -2.6"
         fill="#6b6b6b"
         fill-rule="evenodd"
         stroke="none"
         id="path15" />
      <path
         d="m 2.6,-10.9 7.5,0.1 v 2 L 2.6,-8.7 H 2.45 1.35 v -0.05 h -3.8 v 0.05 h -1.1 -0.15 l -6.45,-0.1 v -2 h 2.5 v -0.05 l 3.95,-0.05 h 0.15 1.1 v 0.05 h 3.8 v -0.05 h 1.1 0.15"
         fill="#999999"
         fill-rule="evenodd"
         stroke="none"
         id="path16" />
      <path
         d="m 0.05,-0.7 q -1.4,0 -1.2,-1.4 0,-1.25 1.25,-1.35 1.2,-0.05 1.2,1.35 0,1.4 -1.25,1.4 M -11,-0.75 q 0,-1.2 0.75,-2.1 1.1,-1.4 3.55,-1.2 2.8,0.15 3.7,0.8 0.55,0.35 0.55,1.35 0,1.05 -1.05,1.8 -1.4,1 -4.35,1 -2.2,0 -2.9,-0.8 -0.35,-0.45 -0.25,-0.85"
         fill="#ffffff"
         fill-opacity="0.498039"
         fill-rule="evenodd"
         stroke="none"
         id="path17" />
    </g>
  </defs>
</svg>
