<?xml version="1.0" encoding="UTF-8" standalone="no"?>
<svg
   ffdec:objectType="frame"
   height="24.25"
   width="27.75"
   version="1.1"
   id="svg5"
   sodipodi:docname="2.svg"
   xmlns:inkscape="http://www.inkscape.org/namespaces/inkscape"
   xmlns:sodipodi="http://sodipodi.sourceforge.net/DTD/sodipodi-0.dtd"
   xmlns:xlink="http://www.w3.org/1999/xlink"
   xmlns="http://www.w3.org/2000/svg"
   xmlns:svg="http://www.w3.org/2000/svg"
   xmlns:ffdec="https://www.free-decompiler.com/flash">
  <sodipodi:namedview
     id="namedview5"
     pagecolor="#ffffff"
     bordercolor="#000000"
     borderopacity="0.25"
     inkscape:showpageshadow="2"
     inkscape:pageopacity="0.0"
     inkscape:pagecheckerboard="0"
     inkscape:deskcolor="#d1d1d1"
     fit-margin-top="5"
     fit-margin-left="5"
     fit-margin-right="5"
     fit-margin-bottom="5" />
  <g
     transform="translate(13.8,12.15)"
     id="g2">
    <use
       ffdec:characterId="3573"
       height="24.25"
       transform="translate(-13.8,-12.15)"
       width="27.75"
       xlink:href="#shape0"
       id="use1" />
    <use
       ffdec:characterId="3500"
       height="8"
       transform="matrix(-0.855,-0.1129,-0.1129,0.855,5.0188,1.1895)"
       width="10.8"
       xlink:href="#sprite0"
       id="use2" />
  </g>
  <defs
     id="defs5">
    <g
       id="shape0"
       transform="translate(13.8,12.15)">
      <path
         d="m 10.1,-10.3 q 1.8,0.45 2.9,2.1 0.95,1.45 0.95,2.9 0,2.1 -1,3.2 -1.25,1.45 -4.3,1.65 L 9.2,2.1 9.6,6.3 9.5,9.2 l 0.25,1.55 -0.1,0.4 Q 9.5,12.1 7.4,12.1 L -0.1,11.3 -3.3,11.25 -9.1,10.7 q -1.2,-0.3 -1.2,-1.35 0,-3.8 0.75,-7.6 l 0.1,-0.8 0.1,-0.25 0.5,-2.6 q -1.9,-0.2 -3,-0.8 -1.05,-0.15 -1.6,-1.3 -0.35,-0.75 -0.35,-1.4 0,-2.45 1.75,-4.25 1.3,-1.35 3.15,-1.5 l 0.9,-0.35 2.95,-0.65 H 0 l 7.85,1 2.25,0.85 M 0.9,-9 -0.55,-9.15 h -0.1 l -0.6,-0.1 H -4.3 q -2.35,0.05 -4.6,1.35 -2.2,1.3 -2.2,2.55 0,0.95 2.7,1 2.65,0.1 2.65,1.45 v 0.15 0.15 L -6.4,-0.55 -7.3,2.4 -7.65,7.25 q 0,1.05 4.15,1.35 L 6.65,9.3 H 7.2 L 7.25,6.35 7.05,3.5 6.5,1.65 q -0.75,-2.6 -0.75,-3 L 6.15,-2.3 6.7,-2.4 8.75,-2.85 q 2.85,-0.3 2.85,-2.35 0,-2.3 -3.9,-3.2 L 3.75,-8.7 0.9,-9"
         fill="#6b6b6b"
         fill-rule="evenodd"
         stroke="none"
         id="path2" />
      <path
         d="m 0.9,-9 2.85,0.3 3.95,0.3 q 3.9,0.9 3.9,3.2 0,2.05 -2.85,2.35 L 6.7,-2.4 6.15,-2.3 5.75,-1.35 q 0,0.4 0.75,3 L 7.05,3.5 7.25,6.35 7.2,9.3 H 6.65 L -3.5,8.6 Q -7.65,8.3 -7.65,7.25 L -7.3,2.4 -6.4,-0.55 -5.75,-2.6 V -2.75 -2.9 q 0,-1.35 -2.65,-1.45 -2.7,-0.05 -2.7,-1 0,-1.25 2.2,-2.55 2.25,-1.3 4.6,-1.35 h 3.05 l 0.6,0.1 h 0.1 L 0.9,-9 m 1.9,3.85 q -0.95,0 -0.95,-0.95 0,-1 1,-1 1,0 1,0.95 L 3.6,-5.5 q -0.3,0.35 -0.8,0.35 m 5.1,0.1 q -0.4,0 -0.75,-0.35 0.05,-0.5 0.6,-0.6 0.6,-0.1 0.6,0.5 0,0.45 -0.45,0.45 M 9.95,-5 q 0,-1.65 -2.15,-2.45 l -6.7,-1.1 h -3.95 q -4.1,0.25 -6.55,2.6 3.2,0.85 3.95,1.4 0.7,0.5 0.7,1.85 l -0.8,4.2 -0.95,5.65 9.55,1 L 5.85,8.2 6.3,8.25 6.35,6.6 Q 6.35,4.7 5.85,2.15 5.3,-0.35 5.3,-1.3 5.3,-2.7 7.65,-3.6 9.95,-4.45 9.95,-5 M 2.45,5.5 q -0.6,0 -0.55,-0.55 0,-0.5 0.55,-0.5 0.5,0 0.5,0.5 0,0.55 -0.5,0.55 M 1.55,0.55 Q 2.1,0.5 2.1,1.05 2.1,1.65 1.55,1.65 0.8,1.65 1,1.1 1,0.6 1.55,0.55 m -1.7,-4.8 q 0,0.65 -0.8,0.4 V -4.1 l 0.05,-0.4 0.65,-0.1 0.1,0.35 M -2.2,2.35 -2.65,2.6 q -0.65,0 -0.6,-0.6 0,-0.65 0.6,-0.65 0.6,0 0.6,0.65 L -2.2,2.35 m -1.1,2.9 -0.05,-0.3 0.2,-0.25 h 0.4 L -2.65,5 -2.7,5.2 -2.9,5.3 -3.3,5.25"
         fill="#978879"
         fill-rule="evenodd"
         stroke="none"
         id="path3" />
      <path
         d="M -3.3,5.25 -2.9,5.3 -2.7,5.2 -2.65,5 -2.75,4.7 h -0.4 l -0.2,0.25 0.05,0.3 M -2.2,2.35 -2.05,2 q 0,-0.65 -0.6,-0.65 -0.6,0 -0.6,0.65 -0.05,0.6 0.6,0.6 L -2.2,2.35 m 2.05,-6.6 -0.1,-0.35 -0.65,0.1 -0.05,0.4 v 0.25 q 0.8,0.25 0.8,-0.4 m 1.7,4.8 Q 1,0.6 1,1.1 0.8,1.65 1.55,1.65 2.1,1.65 2.1,1.05 2.1,0.5 1.55,0.55 m 0.9,4.95 q 0.5,0 0.5,-0.55 0,-0.5 -0.5,-0.5 Q 1.9,4.45 1.9,4.95 1.85,5.5 2.45,5.5 M 9.95,-5 q 0,0.55 -2.3,1.4 -2.35,0.9 -2.35,2.3 0,0.95 0.55,3.45 0.5,2.55 0.5,4.45 L 6.3,8.25 5.85,8.2 3.05,8.15 l -9.55,-1 0.95,-5.65 0.8,-4.2 q 0,-1.35 -0.7,-1.85 -0.75,-0.55 -3.95,-1.4 2.45,-2.35 6.55,-2.6 H 1.1 l 6.7,1.1 Q 9.95,-6.65 9.95,-5 M 7.9,-5.05 q 0.45,0 0.45,-0.45 0,-0.6 -0.6,-0.5 -0.55,0.1 -0.6,0.6 0.35,0.35 0.75,0.35 m -5.1,-0.1 q 0.5,0 0.8,-0.35 l 0.25,-0.65 q 0,-0.95 -1,-0.95 -1,0 -1,1 0,0.95 0.95,0.95"
         fill="#d6c9b4"
         fill-rule="evenodd"
         stroke="none"
         id="path4" />
    </g>
    <g
       id="sprite0"
       transform="translate(5.4,4)">
      <use
         ffdec:characterId="43"
         height="8"
         transform="translate(-5.4,-4)"
         width="10.8"
         xlink:href="#shape1"
         id="use4" />
    </g>
    <g
       id="shape1"
       transform="translate(5.4,4)">
      <path
         d="m 2.9,-0.35 q 0,-1.25 1.25,-1.25 1.25,0 1.25,1.2 0,1.3 -1.25,1.3 Q 3.6,0.9 3.25,0.5 2.9,0.15 2.9,-0.35 m 0.35,-2.3 q 0,0.55 -0.35,0.9 -0.4,0.45 -1,0.45 -1.35,0 -1.35,-1.4 0,-1.3 1.35,-1.3 1.35,0 1.35,1.35 m -3.1,1.9 h 0.2 q 2.6,0.1 2.6,2.8 l -0.3,1 Q 2.05,4 0.45,4 H 0.35 0.15 0.1 -0.45 q -1.6,0 -2.2,-0.95 l -0.3,-1 q 0,-2.8 2.8,-2.8 h 0.3 M -1.55,-4 q 1.35,0 1.35,1.35 0,0.55 -0.4,0.9 -0.4,0.45 -0.95,0.45 -1.4,0 -1.4,-1.4 0,-1.3 1.4,-1.3 m -2.6,2.4 q 1.25,0 1.25,1.25 0,0.5 -0.35,0.85 -0.35,0.4 -0.9,0.4 -1.25,0 -1.25,-1.3 0,-1.2 1.25,-1.2"
         fill="#6b6b6b"
         fill-rule="evenodd"
         stroke="none"
         id="path5" />
    </g>
  </defs>
</svg>
