<?xml version="1.0" encoding="UTF-8" standalone="no"?>
<svg
   ffdec:objectType="frame"
   height="29.20225"
   width="41.562527"
   version="1.1"
   id="svg6"
   sodipodi:docname="1.svg"
   xmlns:inkscape="http://www.inkscape.org/namespaces/inkscape"
   xmlns:sodipodi="http://sodipodi.sourceforge.net/DTD/sodipodi-0.dtd"
   xmlns:xlink="http://www.w3.org/1999/xlink"
   xmlns="http://www.w3.org/2000/svg"
   xmlns:svg="http://www.w3.org/2000/svg"
   xmlns:ffdec="https://www.free-decompiler.com/flash">
  <sodipodi:namedview
     id="namedview6"
     pagecolor="#ffffff"
     bordercolor="#000000"
     borderopacity="0.25"
     inkscape:showpageshadow="2"
     inkscape:pageopacity="0.0"
     inkscape:pagecheckerboard="0"
     inkscape:deskcolor="#d1d1d1"
     fit-margin-top="5"
     fit-margin-left="5"
     fit-margin-right="5"
     fit-margin-bottom="5" />
  <g
     transform="translate(20.799998,14.577664)"
     id="g1">
    <use
       ffdec:characterId="4272"
       height="29.200001"
       transform="translate(-20.8,-14.6)"
       width="41.549999"
       xlink:href="#shape0"
       id="use1" />
  </g>
  <defs
     id="defs6">
    <g
       id="shape0"
       transform="translate(20.8,14.6)">
      <path
         d="M 7.85,-9.65 H 7.9 8.2 8.3 l 0.5,-0.15 0.35,-0.25 0.55,-0.6 q 0.9,-1.1 1.5,-1 l 0.25,0.05 0.1,1.05 0.2,0.45 -0.6,0.95 -0.8,0.6 -0.55,0.1 H 9.75 L 9.05,-8.5 8.65,-8.55 8.15,-8.75 8,-8.9 7.8,-9.3 V -9.4 L 7.85,-9.65 M 4.2,-9.05 3.85,-9.55 V -9.6 l -0.1,-0.1 -0.55,-0.55 0.4,-0.8 q 0.6,-1.35 1.15,-1.25 0.3,0 0.55,1.3 l 0.3,0.7 0.1,0.2 -0.05,0.2 -0.2,0.35 -0.75,0.5 H 4.65 4.4 4.2 m -1.95,0 Q 2.05,-8.6 1.4,-8.4 H 1.35 1.2 l -0.55,0.05 h -0.2 l -0.55,0.45 -0.75,0.4 -0.75,0.15 -2.35,0.7 q -2.15,0.85 -3.65,2.6 l -1,1.4 h -0.05 l -0.8,0.95 -1.25,1.75 -1.85,2.4 Q -15.85,6.7 -15.9,7.5 V 7.65 7.8 l -0.45,0.6 -1.1,1.25 -0.15,0.1 h -0.1 l -0.25,-0.2 -0.1,-0.45 0.45,-1.1 0.9,-1.3 1.8,-2.2 1,-2.35 1.3,-2.25 3,-3.15 3.05,-2.55 q 0.8,-0.4 2.25,-1.25 l 0.2,-0.1 2.65,-1.6 0.3,-0.2 V -9 l 0.05,-0.1 v -0.1 l -0.1,-0.4 -0.3,-0.75 -0.05,-0.1 -0.05,-0.15 -0.55,-1.45 1.45,0.15 1.05,1.15 q 0.75,0.85 1.35,1.1 l 0.2,0.05 0.15,0.25 0.1,0.15 0.1,0.15 M 5.65,1 4.7,1.85 3.1,3 Q 1.15,4.15 -1.8,5.5 l -2,0.9 q -5.15,2.2 -8.6,2.7 l -1.75,0.15 h -0.15 q -1.05,0 -1.25,-0.7 L -15.6,8.3 -15.2,8.4 -13.3,7.3 -7,3.7 -4.2,2.15 Q -2.9,1.45 -0.4,0.6 L 3.4,-0.55 4.1,-0.8 q 0.85,-0.35 1.4,-1 L 5.55,-1.85 V -1.9 H 5.6 5.7 l 0.15,1.05 v 0.2 L 5.65,0.2 5.6,0.35 5.65,1 m 5.2,-5.1 H 10.8 L 9.85,-4.2 9.75,-4.25 Q 9.3,-4.45 9.25,-4.75 L 9.2,-5 l 0.15,0.05 0.2,0.05 0.1,-0.05 0.55,-0.35 0.3,-0.2 0.05,-0.05 0.15,0.05 0.4,-0.05 0.25,-0.05 0.65,-0.05 h 0.2 l -0.05,0.25 -0.05,0.1 -0.45,0.5 -0.4,0.35 -0.4,0.35 m -0.4,-3.1 -0.1,-0.15 V -7.4 L 10.3,-7.45 10.25,-8 l 0.25,-0.15 0.35,0.25 0.4,0.05 0.15,0.05 q 0.85,0.05 1.35,-0.7 v -0.05 l 0.8,-0.25 0.15,-0.05 0.25,-0.05 0.4,-0.25 0.6,-0.2 0.3,-0.1 0.35,-0.1 2.2,-0.65 0.45,-0.1 -0.05,0.15 -0.35,0.25 -1.45,0.8 -0.8,0.65 -0.25,0.35 -0.3,0.15 h -0.1 l -0.75,0.05 -0.25,0.15 -0.05,0.2 -1.15,0.35 -0.35,0.05 H 12.2 L 12.05,-7.2 11.1,-7.3 h -0.25 l -0.4,0.1 m 3.85,1.65 0.2,-0.1 0.15,-0.3 0.2,-0.25 0.1,-0.4 v -0.15 l 0.3,0.05 0.15,0.05 0.15,-0.05 0.35,0.5 0.85,0.9 q -0.3,0.4 -1.15,0.4 H 15.55 L 15.1,-4.95 q -0.65,-0.1 -0.8,-0.6"
         fill="#e0e0e0"
         fill-rule="evenodd"
         stroke="none"
         id="path1" />
      <path
         d="m 11.75,-10.1 -0.2,-0.45 -0.1,-1.05 -0.25,-0.05 q -0.6,-0.1 -1.5,1 L 9.15,-10.05 8.8,-9.8 8.3,-9.65 H 8.2 7.9 7.85 l -0.3,-0.05 0.15,0.35 0.05,0.1 0.1,0.3 0.05,0.5 v 0.15 l -0.05,0.35 -0.4,0.1 H 7.35 Q 6.8,-8 6.35,-8.75 L 6.15,-9.15 6.05,-9.4 5.95,-9.65 5.85,-9.95 5.7,-10.1 5.6,-10.3 5.3,-11 Q 5.05,-12.3 4.75,-12.3 4.2,-12.4 3.6,-11.05 l -0.4,0.8 0.55,0.55 0.1,0.1 v 0.05 l 0.35,0.5 v 0.1 0.1 Q 4.15,-8.25 3.5,-8.35 2.75,-8.4 2.25,-9.05 L 2.15,-9.2 2.05,-9.35 1.9,-9.6 1.7,-9.65 Q 1.1,-9.9 0.35,-10.75 l -1.05,-1.15 -1.45,-0.15 0.55,1.45 0.05,0.15 0.05,0.1 0.3,0.75 0.1,0.4 v 0.1 L -1.15,-9 v 0.05 l -0.3,0.2 -2.65,1.6 -0.2,0.1 q -1.45,0.85 -2.25,1.25 l -3.05,2.55 -3,3.15 -1.3,2.25 -1,2.35 -1.8,2.2 -0.9,1.3 -0.45,1.1 0.1,0.45 0.25,0.2 h 0.1 l 6,0.7 0.25,0.05 1.2,0.25 0.1,0.05 0.9,0.35 q 0.35,0.1 0.4,0.15 L -4.6,11.8 0,11.75 3.45,10.9 5.35,9.3 6.15,8.7 7.55,6.4 8.2,3.75 8.15,2.1 8.1,1.9 8.05,1.45 8.1,1.05 8.5,1.2 q 0.75,0.35 1,1.75 L 9.55,3.6 v 0.3 0.2 l -0.2,1.95 v 0.2 L 9,7.35 8.7,7.95 8.6,8.15 q 0.3,0.1 0.6,0.35 l 0.6,0.5 0.15,0.15 1.2,1.35 0.2,-0.05 v -0.3 L 11.3,9.6 10.7,7.8 10.6,7.4 10.55,7.15 10.45,6.8 10.35,5.95 q -0.3,-1.7 -0.2,-2.5 L 10.2,3 q 0.15,-1.35 0.7,0.25 l 0.25,0.8 0.15,0.55 V 4.7 L 11.5,5.5 11.7,5.35 11.9,5.25 12.5,4.5 12.1,3.25 11.95,2.9 11.85,2.6 11.7,1.85 11.9,1.2 11.85,0.95 q 0,-0.3 0.45,-0.45 l 0.35,-0.05 h 0.1 L 13.5,0.3 14.4,0.1 13.8,-0.45 H 13.75 L 13.5,-0.5 13,-1 h -0.05 l -0.1,-0.05 Q 12.3,-1.4 12.35,-1.85 L 12.6,-2.4 v -0.05 l 0.45,-0.05 0.1,-0.25 0.05,-0.1 0.2,-0.35 1,-1.05 -0.05,-0.05 q 0,-0.3 0.55,-0.3 h 0.1 0.05 l 0.5,-0.05 0.2,-0.05 1.05,-0.35 0.15,-0.05 -0.1,-0.1 -0.1,-0.1 -0.85,-0.9 -0.35,-0.5 -0.15,0.05 -0.15,-0.05 -0.3,-0.05 v 0.15 l -0.1,0.4 -0.2,0.25 -0.15,0.3 -0.2,0.1 h -0.05 l -0.2,-0.1 -0.2,-0.25 v 0.3 0.1 l -0.05,0.2 -0.3,0.85 -0.1,0.15 -0.45,0.7 q -0.45,0.45 -1.05,0.45 l -0.4,0.2 H 10.85 Q 10.2,-3 10.2,-3.45 V -3.5 l 0.65,-0.6 0.4,-0.35 0.4,-0.35 0.45,-0.5 0.05,-0.1 0.05,-0.25 H 12 L 11.35,-5.6 11.1,-5.55 10.7,-5.5 10.55,-5.55 10.5,-5.5 10.2,-5.3 9.65,-4.95 9.55,-4.9 9.35,-4.95 9.2,-5 Q 9.05,-5.1 9.05,-5.25 H 9 V -5.3 -5.6 l 0.05,-0.15 0.1,-0.3 0.35,-0.35 0.05,-0.05 0.05,-0.05 0.1,-0.1 0.35,-0.15 0.05,-0.05 0.05,-0.05 0.2,-0.3 0.1,-0.05 0.4,-0.1 h 0.25 l 0.95,0.1 0.15,0.05 h 0.2 l 0.95,0.4 0.2,0.2 0.05,0.05 0.05,0.1 V -6.55 L 13.7,-6.6 v -0.1 l 0.05,-0.1 0.05,-0.2 0.1,-0.55 0.05,-0.2 0.25,-0.15 0.75,-0.05 h 0.1 0.25 l 0.05,-0.15 0.25,-0.35 0.8,-0.65 1.45,-0.8 0.35,-0.25 0.05,-0.15 -0.45,0.1 -2.2,0.65 -0.35,0.1 -0.3,0.1 -0.6,0.2 -0.4,0.25 -0.25,0.05 -0.15,0.05 -0.8,0.25 v 0.05 q -0.5,0.75 -1.35,0.7 l -0.15,-0.05 -0.4,-0.05 -0.35,-0.25 -0.05,-0.05 -0.1,-0.35 0.8,-0.6 0.75,-0.8 -0.15,-0.15 m -12.6,2.6 1.15,-0.1 h 1.5 l 1.8,0.3 0.65,0.25 0.9,0.6 H 5.2 v 0.05 l 0.05,0.05 0.45,0.55 0.1,0.15 0.2,0.6 0.05,0.15 0.25,0.5 0.4,1 0.1,0.35 0.2,1.45 v 0.15 L 6.75,-0.1 6.45,0.7 6,1.25 5.95,1.3 5.75,1.1 5.65,1 5.6,0.35 5.65,0.2 5.85,-0.65 v -0.2 L 5.7,-1.9 5.65,-2.05 5.55,-1.9 v 0.05 L 5.5,-1.8 q -0.55,0.65 -1.4,1 L 3.4,-0.55 -0.4,0.6 Q -2.9,1.45 -4.2,2.15 L -7,3.7 -13.3,7.3 -15.2,8.4 -15.6,8.3 Q -15.95,8.15 -15.9,7.8 V 7.65 7.5 q 0.05,-0.8 3.35,-5.05 l 1.85,-2.4 2.05,-2.7 h 0.05 l 1,-1.4 q 1.5,-1.75 3.65,-2.6 l 2.35,-0.7 0.75,-0.15 M 10.45,12.4 9.3,11.55 7.75,9.85 q -1.2,1.85 -4.3,3.15 -3.7,1.5 -7.8,1 l -4.85,-0.6 -4.9,-0.75 q -3.1,-0.4 -4.9,-1.15 -0.8,-0.3 -1.1,-1.3 l -0.2,-1.35 2.25,-4.15 q 2.35,-4 3.5,-5.4 l 4.2,-4.85 q 1.25,-1.05 2.85,-1.8 l 1.35,-0.9 3,-1.35 q -0.65,-0.9 -0.75,-1.5 v -1.2 l 0.35,-1.1 3.4,-0.25 q 0.65,0.05 1.85,1.5 l 0.45,0.6 q 0.45,-2.8 2.9,-2.5 2.2,0.25 2.4,2.7 l 2.65,-1.8 q 3.6,-1.65 3.35,2.65 7.1,-3.95 6.8,0.25 -0.05,0.6 -1.4,2.05 l -1.2,1.1 -0.15,0.1 0.65,0.6 q 0.65,0.7 0.6,1.5 -0.15,2 -2.45,1.75 l -0.7,-0.15 -0.75,1.2 -0.15,0.25 q 1.65,1 1.6,2.1 L 15.75,1.4 q -0.65,0.75 -2,0.55 l -0.4,-0.05 -0.4,-0.1 0.1,0.2 0.2,0.3 q 0.95,1.4 0.9,2.35 -0.05,0.6 -0.7,1.45 L 12.6,6.85 13,8.3 13.25,10.75 Q 13.5,13 11.9,12.8 L 11,12.6 10.45,12.4 m -21.8,-9 0.15,-0.15 q 1.1,-1.9 4.85,-3.85 l 0.8,-0.6 Q -3.8,-2.55 0.9,-3.7 L 4.2,-4.25 Q 4.05,-5.05 2.85,-5.65 1,-6.6 -2,-5.65 -4.1,-5.15 -6.65,-2.6 -8,-1.4 -9.5,0.75 l -1.85,2.6 -0.1,0.1 0.1,-0.05"
         fill="#6b6b6b"
         fill-rule="evenodd"
         stroke="none"
         id="path2" />
      <path
         d="m 7.8,-9.3 0.2,0.4 0.15,0.15 0.5,0.2 0.4,0.05 0.7,0.05 H 9.8 l 0.55,-0.1 0.1,0.35 0.05,0.05 -0.25,0.15 0.05,0.55 0.05,0.05 v 0.05 l 0.1,0.15 -0.1,0.05 -0.2,0.3 L 10.1,-6.8 10.05,-6.75 9.7,-6.6 9.6,-6.5 9.55,-6.45 9.5,-6.4 9.15,-6.05 9.05,-5.75 9,-5.6 v 0.3 0.05 h 0.05 q 0,0.15 0.15,0.25 l 0.05,0.25 q 0.05,0.3 0.5,0.5 l 0.1,0.05 0.95,0.1 h 0.05 l -0.65,0.6 v 0.05 q 0,0.45 0.65,0.5 l -0.2,0.1 L 9.6,-2.5 Q 9.4,-0.65 8.5,1.2 L 8.1,1.05 8.05,1.45 8.1,1.9 q -1.05,1.75 -2.85,3.45 -5.2,5.05 -14.4,5.8 l -0.9,-0.35 -0.1,-0.05 -1.2,-0.25 -0.25,-0.05 -6,-0.7 0.15,-0.1 1.1,-1.25 0.45,-0.6 q -0.05,0.35 0.3,0.5 l 0.05,0.25 q 0.2,0.7 1.25,0.7 h 0.15 L -12.4,9.1 q 3.45,-0.5 8.6,-2.7 l 2,-0.9 Q 1.15,4.15 3.1,3 L 4.7,1.85 5.65,1 5.75,1.1 5.95,1.3 6,1.25 6.45,0.7 6.75,-0.1 7,-1.45 V -1.6 L 6.8,-3.05 6.7,-3.4 6.3,-4.4 6.05,-4.9 6,-5.05 5.8,-5.65 5.7,-5.8 5.25,-6.35 5.2,-6.4 V -6.45 H 5.15 L 4.25,-7.05 3.6,-7.3 1.8,-7.6 H 0.3 l -1.15,0.1 0.75,-0.4 0.55,-0.45 h 0.2 L 1.2,-8.4 H 1.35 1.4 q 0.65,-0.2 0.85,-0.65 0.5,0.65 1.25,0.7 0.65,0.1 0.7,-0.5 v -0.1 -0.1 H 4.4 4.65 4.7 l 0.75,-0.5 0.2,-0.35 0.05,-0.2 0.15,0.15 0.1,0.3 0.1,0.25 0.1,0.25 0.2,0.4 q 0.45,0.75 1,0.9 h 0.1 L 7.85,-7.95 7.9,-8.3 V -8.45 L 7.85,-8.95 7.75,-9.25 7.8,-9.3 M 11,12.6 h -0.15 q -0.2,0 -0.4,-0.2 L 11,12.6 M 5.55,-1.9 5.65,-2.05 5.7,-1.9 H 5.6 5.55 M 13.9,-7.55 13.8,-7 13.75,-6.8 13.7,-6.7 v 0.1 l -0.05,0.05 V -6.4 L 13.6,-6.5 v -0.05 h -0.05 l -0.2,-0.2 -0.95,-0.4 0.35,-0.05 1.15,-0.35 m 0.4,2 q 0.15,0.5 0.8,0.6 L 15,-4.6 h -0.1 q -0.55,0 -0.55,0.3 l 0.05,0.05 -1,1.05 -0.2,0.35 -0.05,0.1 -0.7,0.1 H 12.2 q -0.5,-0.05 -0.7,-0.3 l 0.4,-0.2 q 0.6,0 1.05,-0.45 l 0.45,-0.7 0.1,-0.15 0.3,-0.85 0.05,-0.2 v -0.1 -0.3 l 0.2,0.25 0.2,0.1 h 0.05 m -1.7,3.15 -0.25,0.55 q -0.05,0.45 0.5,0.8 L 12.95,-1 H 13 l 0.5,0.5 0.25,0.05 h 0.05 l 0.6,0.55 -0.9,0.2 -0.75,0.15 -0.1,-0.1 -0.3,-0.4 -0.5,-1.05 q 0,-1.25 0.75,-1.3 m -0.75,5 0.1,0.3 L 12.1,3.25 12.5,4.5 11.9,5.25 11.35,4.75 11.3,4.7 V 4.6 L 11.15,4.05 10.9,3.25 Q 11.05,2.35 11.85,2.6 M 10.2,3 10.15,3.45 q -0.1,0.8 0.2,2.5 l 0.1,0.85 0.1,0.35 0.05,0.25 0.1,0.4 0.6,1.8 0.05,0.55 v 0.3 L 11.15,10.5 9.95,9.15 9.8,9 9.2,8.5 9.1,8.05 9,7.35 9.35,6.25 V 6.05 L 9.55,4.1 V 3.9 3.6 L 9.5,2.95 9.8,2.9 9.9,2.95 10.2,3"
         fill="#c2c2c2"
         fill-rule="evenodd"
         stroke="none"
         id="path3" />
      <path
         d="M -11.35,3.35 -9.5,0.75 Q -8,-1.4 -6.65,-2.6 -4.1,-5.15 -2,-5.65 q 3,-0.95 4.85,0 1.2,0.6 1.35,1.4 L 0.9,-3.7 q -4.7,1.15 -6.45,2.5 l -0.8,0.6 Q -10.1,1.35 -11.2,3.25 L -11.35,3.4 V 3.35"
         fill="#999999"
         fill-rule="evenodd"
         stroke="none"
         id="path4" />
      <path
         d="M -9.15,11.15 Q 0.05,10.4 5.25,5.35 7.05,3.65 8.1,1.9 L 8.15,2.1 8.2,3.75 7.55,6.4 6.15,8.7 5.35,9.3 3.45,10.9 0,11.75 -4.6,11.8 -8.75,11.3 Q -8.8,11.25 -9.15,11.15 M 8.5,1.2 q 0.9,-1.85 1.1,-3.7 l 1.05,-0.35 0.2,-0.1 h 0.65 q 0.2,0.25 0.7,0.3 h 0.25 l 0.7,-0.1 -0.1,0.25 -0.45,0.05 v 0.05 q -0.75,0.05 -0.75,1.3 l 0.5,1.05 0.3,0.4 0.1,0.1 h -0.1 L 12.3,0.5 Q 11.85,0.65 11.85,0.95 L 11.9,1.2 11.7,1.85 11.85,2.6 Q 11.05,2.35 10.9,3.25 10.35,1.65 10.2,3 L 9.9,2.95 9.8,2.9 9.5,2.95 Q 9.25,1.55 8.5,1.2 m 9.15,-8.3 0.5,0.7 -0.65,-0.6 0.15,-0.1 m -4.3,9 -0.1,0.4 -0.2,-0.3 -0.1,-0.2 0.4,0.1 m 2,-10 -0.05,0.15 h -0.25 l 0.3,-0.15 m -1.75,1.6 -0.05,-0.05 h 0.05 v 0.05 m 1.5,1.55 0.45,0.05 h 0.05 q 0.85,0 1.15,-0.4 l 0.1,0.1 0.1,0.1 -0.15,0.05 -1.05,0.35 -0.2,0.05 -0.5,0.05 H 15 l 0.1,-0.35 m -3.2,10.2 -0.2,0.1 -0.2,0.15 -0.2,-0.8 0.05,0.05 0.55,0.5 M 9.2,8.5 Q 8.9,8.25 8.6,8.15 L 8.7,7.95 9,7.35 9.1,8.05 9.2,8.5"
         fill="#a6a6a6"
         fill-rule="evenodd"
         stroke="none"
         id="path5" />
      <path
         d="M 10.45,12.4 9.3,11.55 7.75,9.85 q -1.2,1.85 -4.3,3.15 -3.7,1.5 -7.8,1 l -4.85,-0.6 -4.9,-0.75 q -3.1,-0.4 -4.9,-1.15 -0.8,-0.3 -1.1,-1.3 l -0.2,-1.35 2.25,-4.15 q 2.35,-4 3.5,-5.4 l 4.2,-4.85 q 1.25,-1.05 2.85,-1.8 l 1.35,-0.9 3,-1.35 q -0.65,-0.9 -0.75,-1.5 v -1.2 l 0.35,-1.1 3.4,-0.25 q 0.65,0.05 1.85,1.5 l 0.45,0.6 q 0.45,-2.8 2.9,-2.5 2.2,0.25 2.4,2.7 l 2.65,-1.8 q 3.6,-1.65 3.35,2.65 7.1,-3.95 6.8,0.25 -0.05,0.6 -1.4,2.05 l -1.2,1.1 -0.15,0.1 0.65,0.6 q 0.65,0.7 0.6,1.5 -0.15,2 -2.45,1.75 l -0.7,-0.15 -0.75,1.2 -0.15,0.25 q 1.65,1 1.6,2.1 L 15.75,1.4 q -0.65,0.75 -2,0.55 l -0.4,-0.05 -0.4,-0.1 0.1,0.2 0.2,0.3 q 0.95,1.4 0.9,2.35 -0.05,0.6 -0.7,1.45 L 12.6,6.85 13,8.3 13.25,10.75 Q 13.5,13 11.9,12.8 L 11,12.6 Z"
         fill="none"
         stroke="#6b6b6b"
         stroke-linecap="round"
         stroke-linejoin="round"
         stroke-width="1"
         id="path6" />
    </g>
  </defs>
</svg>
