<?xml version="1.0" encoding="UTF-8" standalone="no"?>
<svg
   ffdec:objectType="frame"
   height="46.744446"
   width="19.467735"
   version="1.1"
   id="svg10"
   sodipodi:docname="2.svg"
   xmlns:inkscape="http://www.inkscape.org/namespaces/inkscape"
   xmlns:sodipodi="http://sodipodi.sourceforge.net/DTD/sodipodi-0.dtd"
   xmlns:xlink="http://www.w3.org/1999/xlink"
   xmlns="http://www.w3.org/2000/svg"
   xmlns:svg="http://www.w3.org/2000/svg"
   xmlns:ffdec="https://www.free-decompiler.com/flash">
  <sodipodi:namedview
     id="namedview10"
     pagecolor="#ffffff"
     bordercolor="#000000"
     borderopacity="0.25"
     inkscape:showpageshadow="2"
     inkscape:pageopacity="0.0"
     inkscape:pagecheckerboard="0"
     inkscape:deskcolor="#d1d1d1"
     fit-margin-top="5"
     fit-margin-left="5"
     fit-margin-right="5"
     fit-margin-bottom="5" />
  <g
     transform="translate(7.7177359,28.694444)"
     id="g1">
    <use
       ffdec:characterId="3956"
       height="51.650002"
       transform="translate(-7.85,-33.6)"
       width="22.450001"
       xlink:href="#sprite0"
       id="use1" />
  </g>
  <defs
     id="defs10">
    <g
       id="sprite0"
       transform="translate(7.85,33.6)">
      <use
         ffdec:characterId="3952"
         height="36.099998"
         transform="translate(-7.7,-18.05)"
         width="15.45"
         xlink:href="#shape0"
         id="use2" />
      <use
         ffdec:characterId="3953"
         height="13.4"
         transform="translate(-3.8,-28.7)"
         width="15.55"
         xlink:href="#shape1"
         id="use3" />
      <use
         ffdec:characterId="3500"
         height="8"
         transform="matrix(-0.5362,0.0367,0.0367,0.5362,2.6485,12.2569)"
         width="10.8"
         xlink:href="#sprite1"
         id="use4" />
    </g>
    <g
       id="shape0"
       transform="translate(7.7,18.05)">
      <path
         d="M 0.15,-6.95 2.4,-7 2.25,-7.45 V -9.3 q 0,-3.05 0.7,-3.15 l -0.05,-1 -0.05,-1.35 q 0,-2.75 0.8,-2.75 0.75,0 0.75,2.75 l -0.2,2.05 q 0.6,0.9 0.6,3.45 v 1.95 L 4.75,-7 q 2.1,0.1 2.1,1.05 v 0.05 q 0.45,0.5 0.4,1.5 L 6.85,-1 v 5.65 1.1 L 7.1,5.65 7.2,5.8 6.2,7.25 6.1,7.45 v 3.3 l 0.1,2.8 -0.35,2.55 0.2,0.6 q 0,0.6 -0.9,0.85 h -9.9 -0.4 V 17.4 q -0.5,-0.25 -0.5,-0.7 l 0.2,-0.6 -0.35,-2.55 0.1,-2.8 V 7.9 L -5.95,7.7 -6.7,7.1 -7.05,6.15 V 5.4 l 0.2,0.15 V 4.65 Q -7.05,0.9 -6.85,-1 L -7.2,-4.4 q -0.1,-1 0.35,-1.5 v -0.05 q 0,-0.55 0.65,-0.8 V -6.9 l 0.45,-0.05 0.9,-0.05 0.05,-1.7 0.15,-0.9 q 0.65,-0.75 1.3,-0.4 0.55,0.25 0.55,0.6 L -2.9,-7.65 -3.1,-7 h 1.25 L -2.1,-7.85 -2.05,-8.5 Q -1.85,-9 -0.95,-9 0,-9 0.25,-8.6 L 0.3,-8 0.15,-6.95 H 0.1 L -1.85,-7 0.1,-6.95 H 0.15 M 1.9,-2.15 3.5,-3 3.65,-2.85 2.9,-2.15 -0.15,0.1 -2.75,1.75 -3.2,1.4 q 0,-0.35 3.05,-2.3 L 1.9,-2.15 M 5.05,-2.3 v -2.15 h -10.1 v 2.25 6.45 l 0.45,1.15 0.35,0.55 h 0.1 v 0.5 7.45 l -0.1,1.15 -0.1,0.8 h 8.7 L 4.4,5.95 H 4.55 L 4.8,5.35 4.9,5.15 5.05,-2.3 m -8.8,7.45 V 4.9 L -3.85,4.3 -3.95,3.1 -3.65,2.55 -3.6,2.5 q 0.25,-0.15 0.45,0 H 0.8 L 3.05,2.65 3.35,2.75 3.5,2.6 Q 3.8,2.55 3.8,3.75 L 3.75,4.9 3.85,5 3.55,5.35 H -3.1 l -0.3,0.1 -0.2,-0.2 H -3.7 L -3.75,5.15 M -3.55,0.6 -3.7,0.45 v -0.2 l 0.25,-0.5 Q -2.9,-1 -0.95,-2.2 L -0.9,-2.25 Q 1.85,-4 1.85,-3.3 l -1.2,1.1 -3.9,2.85 -0.3,-0.05 m 0.15,-2.25 -0.1,-0.3 0.1,-0.15 0.15,-0.1 0.9,-0.6 1.6,-0.75 0.05,0.2 -1.4,1.15 -0.95,0.65 q -0.25,0 -0.35,-0.1 m 7.2,0.3 q 0,0.3 -4.65,3.25 L -1.2,1.55 q 0,-0.3 1.8,-1.5 2,-1.3 3.15,-1.55 l 0.05,0.15 m -9.55,-5.6 -0.45,0.2 0.45,-0.2 M -3.1,-7 h -0.6 -1.15 1.15 0.6 m -0.15,3.65 0.55,-0.35 0.3,0.35 -0.3,0.4 -0.7,0.25 h -0.1 l -0.05,-0.25 0.1,-0.2 0.2,-0.2 M 3.25,3.25 0.8,3.4 H -2.95 V 3.9 L -2.9,4.75 -2.1,4.7 3.3,4.75 3.2,3.75 3.25,3.25 M -5.7,5.95 V 6.2 6.7 7.7 7.9 7.7 6.7 6.2 5.95 m 4.4,1.65 q 0,0.75 -1.05,0.75 l -0.9,-0.3 -0.1,-0.45 0.1,-0.4 Q -3,6.9 -1.95,6.95 -1.65,7 -1.45,7.3 l 0.15,0.3 m 2.5,0 q 0,0.75 -1.05,0.75 l -0.9,-0.3 -0.1,-0.45 0.1,-0.4 Q -0.5,6.9 0.55,6.95 L 1.05,7.3 1.2,7.6 m -4.55,2 0.1,-0.4 Q -3,8.9 -1.95,8.95 -1.65,9 -1.45,9.3 l 0.15,0.3 q 0,0.75 -1.05,0.75 l -0.9,-0.3 -0.1,-0.45 m 0.1,1.6 q 0.25,-0.3 1.3,-0.25 0.3,0.05 0.5,0.35 l 0.15,0.3 q 0,0.75 -1.05,0.75 l -0.9,-0.3 -0.1,-0.45 0.1,-0.4 M 1.2,9.6 q 0,0.75 -1.05,0.75 l -0.9,-0.3 -0.1,-0.45 0.1,-0.4 Q -0.5,8.9 0.55,8.95 L 1.05,9.3 1.2,9.6 m -6.35,7.8 0.4,0.15 -0.4,-0.15 M 6.1,6.1 6.2,5.95 H 6.1 V 6.1 6.2 6.3 7.35 7.45 7.35 6.3 6.2 6.1 m -2.6,-5.55 -1,1 -0.85,0.35 q -0.2,0 -0.3,-0.15 L 1.3,1.55 2.1,0.85 q 0.8,-0.5 1.15,-0.5 l 0.2,0.1 0.05,0.1 M 3.8,1.4 3.35,1.9 2.6,2.3 2.4,2.2 2.3,2.05 2.8,1.55 Q 3.35,1.15 3.75,1.2 L 3.8,1.4 M 3.6,7.6 q 0,0.75 -1.05,0.75 -0.7,0 -0.9,-0.3 L 1.55,7.6 1.65,7.2 2.95,6.95 3.45,7.3 3.6,7.6 m -2.05,2 0.1,-0.4 1.3,-0.25 0.5,0.35 0.15,0.3 q 0,0.75 -1.05,0.75 -0.7,0 -0.9,-0.3 L 1.55,9.6 m 0,2 0.1,-0.4 1.3,-0.25 0.5,0.35 0.15,0.3 q 0,0.75 -1.05,0.75 -0.7,0 -0.9,-0.3 L 1.55,11.6"
         fill="#6b6b6b"
         fill-rule="evenodd"
         stroke="none"
         id="path4" />
      <path
         d="M 1.9,-2.15 1.45,-2.2 h -0.8 l 1.2,-1.1 q 0,-0.7 -2.75,1.05 L -0.95,-2.2 H -2.1 l 1.4,-1.15 -0.05,-0.2 -1.6,0.75 -0.9,0.6 H -3.4 v 0.1 l -0.1,0.15 0.1,0.3 -0.05,1.4 -0.25,0.5 v 0.2 l 0.15,0.15 -0.1,1 v 0.95 l -0.3,0.55 0.1,1.2 0.1,0.6 V 5.15 Q -3.9,6 -4.15,6.45 v -0.5 h -0.1 L -4.6,5.4 -5.05,4.25 V -2.2 -4.45 H 5.05 V -2.3 L 2.9,-2.15 3.65,-2.85 3.5,-3 1.9,-2.15 m -5.15,-1.2 -0.2,0.2 -0.1,0.2 0.05,0.25 h 0.1 l 0.7,-0.25 0.3,-0.4 -0.3,-0.35 -0.55,0.35"
         fill="#8e8e8e"
         fill-rule="evenodd"
         stroke="none"
         id="path5" />
      <path
         d="m 0.65,-2.2 h 0.8 L 1.9,-2.15 -0.15,-0.9 Q -3.2,1.05 -3.2,1.4 L -2.75,1.75 -0.15,0.1 2.9,-2.15 5.05,-2.3 4.9,5.15 4.8,5.35 4.55,5.95 H 4.4 l -0.05,9.9 h -8.7 l 0.1,-0.8 0.1,-1.15 V 6.45 Q -3.9,6 -3.75,5.15 l 0.05,0.1 h 0.1 l 0.2,0.2 0.3,-0.1 H 3.55 L 3.85,5 3.75,4.9 3.8,3.75 Q 3.8,2.55 3.5,2.6 L 3.35,2.75 3.05,2.65 0.8,2.5 h -3.95 q -0.2,-0.15 -0.45,0 L -3.65,2.55 V 1.6 l 0.1,-1 0.3,0.05 3.9,-2.85 m -4.1,1.95 0.05,-1.4 q 0.1,0.1 0.35,0.1 L -2.1,-2.2 h 1.15 Q -2.9,-1 -3.45,-0.25 M 3.8,-1.35 3.75,-1.5 Q 2.6,-1.25 0.6,0.05 -1.2,1.25 -1.2,1.55 L -0.85,1.9 Q 3.8,-1.05 3.8,-1.35 M 1.2,9.6 1.05,9.3 0.55,8.95 Q -0.5,8.9 -0.75,9.2 l -0.1,0.4 0.1,0.45 0.9,0.3 q 1.05,0 1.05,-0.75 m -4.45,1.6 -0.1,0.4 0.1,0.45 0.9,0.3 q 1.05,0 1.05,-0.75 L -1.45,11.3 Q -1.65,11 -1.95,10.95 -3,10.9 -3.25,11.2 m -0.1,-1.6 0.1,0.45 0.9,0.3 q 1.05,0 1.05,-0.75 L -1.45,9.3 Q -1.65,9 -1.95,8.95 -3,8.9 -3.25,9.2 l -0.1,0.4 M 1.2,7.6 1.05,7.3 0.55,6.95 Q -0.5,6.9 -0.75,7.2 l -0.1,0.4 0.1,0.45 0.9,0.3 Q 1.2,8.35 1.2,7.6 m -2.5,0 -0.15,-0.3 Q -1.65,7 -1.95,6.95 -3,6.9 -3.25,7.2 l -0.1,0.4 0.1,0.45 0.9,0.3 q 1.05,0 1.05,-0.75 m 2.85,4 0.1,0.45 q 0.2,0.3 0.9,0.3 1.05,0 1.05,-0.75 l -0.15,-0.3 -0.5,-0.35 -1.3,0.25 -0.1,0.4 m 0,-2 0.1,0.45 q 0.2,0.3 0.9,0.3 1.05,0 1.05,-0.75 L 3.45,9.3 2.95,8.95 1.65,9.2 1.55,9.6 M 3.6,7.6 3.45,7.3 2.95,6.95 1.65,7.2 1.55,7.6 1.65,8.05 q 0.2,0.3 0.9,0.3 1.05,0 1.05,-0.75 M 3.8,1.4 3.75,1.2 Q 3.35,1.15 2.8,1.55 L 2.3,2.05 2.4,2.2 2.6,2.3 3.35,1.9 3.8,1.4 M 3.5,0.55 3.45,0.45 3.25,0.35 q -0.35,0 -1.15,0.5 l -0.8,0.7 0.05,0.2 q 0.1,0.15 0.3,0.15 l 0.85,-0.35 1,-1"
         fill="#797979"
         fill-rule="evenodd"
         stroke="none"
         id="path6" />
      <path
         d="M 3.25,3.25 3.2,3.75 3.3,4.75 -2.1,4.7 -2.9,4.75 -2.95,3.9 V 3.4 H 0.8 L 3.25,3.25"
         fill="#9c9c9c"
         fill-rule="evenodd"
         stroke="none"
         id="path7" />
      <path
         d="M 0.15,-6.95 2.4,-7 2.25,-7.45 V -9.3 q 0,-3.05 0.7,-3.15 l -0.05,-1 -0.05,-1.35 q 0,-2.75 0.8,-2.75 0.75,0 0.75,2.75 l -0.2,2.05 q 0.6,0.9 0.6,3.45 v 1.95 L 4.75,-7 q 2.1,0.1 2.1,1.05 v 0.05 q 0.45,0.5 0.4,1.5 L 6.85,-1 v 5.65 1.1 M 6.1,7.45 v 3.3 l 0.1,2.8 -0.35,2.55 0.2,0.6 q 0,0.6 -0.9,0.85 h -9.9 -0.4 m 0,-0.15 q -0.5,-0.25 -0.5,-0.7 l 0.2,-0.6 -0.35,-2.55 0.1,-2.8 V 7.9 7.7 6.7 6.2 5.95 M -6.85,5.55 V 4.65 Q -7.05,0.9 -6.85,-1 L -7.2,-4.4 q -0.1,-1 0.35,-1.5 v -0.05 q 0,-0.55 0.65,-0.8 l 0.45,-0.2 0.9,-0.05 h 1.15 0.6 1.25 l 1.95,0.05 h 0.05 m -6.35,0.05 0.45,-0.05 m 1,24.5 -0.4,-0.15 M 6.1,5.95 v 0.15 0.1 0.1 1.05 0.1"
         fill="none"
         stroke="#6b6b6b"
         stroke-linecap="round"
         stroke-linejoin="round"
         stroke-width="1"
         id="path8" />
    </g>
    <g
       id="shape1"
       transform="translate(3.8,28.7)">
      <path
         d="m 4.35,-28.25 -0.4,0.95 0.05,0.25 -0.25,0.75 0.05,0.15 0.25,0.35 0.1,0.1 0.35,0.65 v 0.1 l 0.1,0.65 -0.35,0.65 -0.4,0.6 0.3,1 0.2,0.6 q 0,1.1 -0.75,1.1 -0.6,0 -0.9,-1.2 l -0.2,-1.2 0.1,-0.2 -0.05,-0.15 q 0,-0.7 0.4,-1.15 l 0.4,-0.6 -0.2,-0.7 -0.15,-0.1 v -0.15 l -0.4,-0.9 0.2,-0.8 0.8,-0.5 q 0.75,-1.25 0.75,-0.25 m 6.25,4.65 q 0,0.35 -0.4,0.55 l -1,0.75 -0.1,0.6 -0.2,0.75 Q 8.6,-20.65 7.75,-20.7 7,-20.75 6.65,-20 l -0.4,0.8 q -0.3,0.35 -0.9,0.35 -0.4,0 -0.65,-0.35 l -0.15,-0.45 0.9,-1.6 q 1.1,-1.4 2.4,-0.7 0.35,-1.4 2.7,-1.85 l 0.05,0.2 m 1.15,7.35 q -1.85,0.65 -2.55,0.65 -0.35,0 -0.7,-0.3 L 8,-16.2 7.2,-15.85 q -0.45,0.35 -0.9,0.35 -0.65,0 -0.85,-0.35 l -0.1,-0.4 q 0,-0.5 0.45,-0.7 l 1.5,-0.55 q 0.8,-0.2 1.55,0.35 l 0.65,0.6 0.95,-0.25 q 1.2,0 1.3,0.55 M 2.9,-19.3 q 0,0.75 -0.8,0.75 -0.7,0 -1.05,-0.75 -0.35,-0.75 -1.2,-0.75 -1.3,0 -1.6,-0.75 l -0.05,-0.9 q -0.7,0.25 -1.1,-0.2 l -0.25,-0.65 0.1,-0.4 q 1.75,-0.05 2.2,0.6 0.25,0.3 0.15,1 l 1.4,-0.25 q 1.05,0 2.2,2.3 m -1,3.65 q -0.25,0.35 -0.6,0.35 l -0.55,-0.15 -0.75,-0.2 -0.6,0.2 -0.6,0.15 -0.7,-0.25 -0.7,-0.45 -1,-0.3 -0.2,-0.2 q 0,-0.55 0.95,-0.55 1.1,0 1.5,0.7 1,-1.05 2.25,-0.75 1.15,0.3 1.15,1.05 l -0.15,0.4"
         fill="#cecaa8"
         fill-rule="evenodd"
         stroke="none"
         id="path9" />
    </g>
    <g
       id="sprite1"
       transform="translate(5.4,4)">
      <use
         ffdec:characterId="43"
         height="8"
         transform="translate(-5.4,-4)"
         width="10.8"
         xlink:href="#shape2"
         id="use9" />
    </g>
    <g
       id="shape2"
       transform="translate(5.4,4)">
      <path
         d="m 2.9,-0.35 q 0,-1.25 1.25,-1.25 1.25,0 1.25,1.2 0,1.3 -1.25,1.3 Q 3.6,0.9 3.25,0.5 2.9,0.15 2.9,-0.35 m 0.35,-2.3 q 0,0.55 -0.35,0.9 -0.4,0.45 -1,0.45 -1.35,0 -1.35,-1.4 0,-1.3 1.35,-1.3 1.35,0 1.35,1.35 m -3.1,1.9 h 0.2 q 2.6,0.1 2.6,2.8 l -0.3,1 Q 2.05,4 0.45,4 H 0.35 0.15 0.1 -0.45 q -1.6,0 -2.2,-0.95 l -0.3,-1 q 0,-2.8 2.8,-2.8 h 0.3 M -1.55,-4 q 1.35,0 1.35,1.35 0,0.55 -0.4,0.9 -0.4,0.45 -0.95,0.45 -1.4,0 -1.4,-1.4 0,-1.3 1.4,-1.3 m -2.6,2.4 q 1.25,0 1.25,1.25 0,0.5 -0.35,0.85 -0.35,0.4 -0.9,0.4 -1.25,0 -1.25,-1.3 0,-1.2 1.25,-1.2"
         fill="#6b6b6b"
         fill-rule="evenodd"
         stroke="none"
         id="path10" />
    </g>
  </defs>
</svg>
