<?xml version="1.0" encoding="UTF-8" standalone="no"?>
<svg
   ffdec:objectType="frame"
   height="33.630489"
   width="20.15"
   version="1.1"
   id="svg10"
   sodipodi:docname="1.svg"
   xmlns:inkscape="http://www.inkscape.org/namespaces/inkscape"
   xmlns:sodipodi="http://sodipodi.sourceforge.net/DTD/sodipodi-0.dtd"
   xmlns:xlink="http://www.w3.org/1999/xlink"
   xmlns="http://www.w3.org/2000/svg"
   xmlns:svg="http://www.w3.org/2000/svg"
   xmlns:ffdec="https://www.free-decompiler.com/flash">
  <sodipodi:namedview
     id="namedview10"
     pagecolor="#ffffff"
     bordercolor="#000000"
     borderopacity="0.25"
     inkscape:showpageshadow="2"
     inkscape:pageopacity="0.0"
     inkscape:pagecheckerboard="0"
     inkscape:deskcolor="#d1d1d1"
     fit-margin-top="5"
     fit-margin-left="5"
     fit-margin-right="5"
     fit-margin-bottom="5" />
  <g
     transform="translate(10.05,16.8)"
     id="g2">
    <use
       ffdec:characterId="3988"
       height="20.35"
       transform="translate(-8.25,-5.15)"
       width="16.85"
       xlink:href="#sprite0"
       id="use1" />
    <use
       ffdec:characterId="3989"
       height="33.650002"
       transform="translate(-10.05,-16.8)"
       width="20.15"
       xlink:href="#shape1"
       id="use2" />
  </g>
  <defs
     id="defs10">
    <g
       id="sprite0"
       transform="translate(8.55,10.2)">
      <use
         ffdec:characterId="3986"
         height="20.299999"
         transform="translate(-8.1,-10.15)"
         width="16.25"
         xlink:href="#shape0"
         id="use3" />
    </g>
    <g
       id="shape0"
       transform="translate(8.1,10.15)">
      <path
         d="M 3.3,-5.15 3.7,-5.4 Q 5.25,-6.25 5.25,-7.2 V -7.3 H 5.3 l 0.1,0.25 Q 4.95,-5.95 3.45,-5.2 L 3.3,-5.15 m 1.55,-2.1 h 0.1 Q 4.6,-6.05 0.8,-4.3 L 0.9,-4.45 2.8,-6 4.85,-7.25 M 5.2,6.4 Q 5.25,6.15 5.55,6.05 h 0.2 L 5.4,6.2 5.2,6.4 M -4.85,3.35 -4.8,3.55 -5.2,4 -4.85,3.35 m -1.6,1.5 -0.8,0.35 0.2,-0.35 h 0.6 m 0,-1.1 0.05,-0.1 q 0.45,-0.5 1.15,-0.3 L -5.7,4.1 -6.9,4.5 -6.45,3.75"
         fill="#8a8a8a"
         fill-rule="evenodd"
         stroke="none"
         id="path3" />
      <path
         d="m 5.25,-7.3 v 0.1 q 0,0.95 -1.55,1.8 l -0.4,0.25 -0.2,0.1 -1.7,1.1 H 0.3 V -4.1 q 0,-0.65 2.05,-2.05 2.05,-1.4 2.8,-1.45 l 0.1,0.3 m -0.3,0.05 V -7.3 L 4.85,-7.25 2.8,-6 0.9,-4.45 0.8,-4.3 Q 4.6,-6.05 4.95,-7.25 M 3.2,-3.2 3.8,-2.5 v 0.05 L 5.45,-2.9 5.35,-3.1 5.1,-3.85 l 0.05,-0.2 0.1,-0.05 0.4,0.6 0.15,0.55 h 0.4 0.25 v -0.1 q 0,-0.65 0.35,-1.35 l 0.3,0.8 v 0.5 l -0.1,0.25 0.65,0.5 v 0.6 Q 7.65,-0.7 6.8,0.5 L 7.35,1.4 7.4,1.5 7.1,1.55 Q 6.8,1.55 6.5,1.1 L 6.4,0.95 6.3,1.05 5.55,1.8 5.7,2.75 V 2.9 L 5.55,3.05 5,2.3 4.95,2.2 3.3,2.85 v 0.4 L 3,3.5 2.7,2.95 H 2.25 1.5 L 1.45,3.15 1.2,3.95 H 0.9 V 3.7 L 1.05,2.85 0.4,2.6 0.25,2.3 -0.6,2.6 -0.75,2.45 0.15,2 V 1.75 l 0.1,-0.6 h -0.4 L -0.9,1.1 -1.05,0.95 Q -0.75,0.6 0.65,0.4 L 1.6,-0.85 0.95,-1.25 0.35,-1.85 Q 1.15,-2 2.05,-1.3 L 3.35,-2.2 3,-2.95 3.1,-3.15 3.2,-3.2 M 4.35,-0.8 3.25,-0.9 3.1,-0.85 2.45,-0.4 2.25,0.05 2,0.8 2.75,1 Q 4.7,1 4.5,-0.15 L 4.35,-0.8 M 4.95,-0.1 4.9,0.6 3.95,1.45 H 3 Q 1.65,1.5 1.65,0.65 l 0.2,-0.6 q -0.8,0.65 -0.8,1.2 l 0.1,0.55 1,0.25 L 2.9,2 3.15,1.75 3.2,1.95 5.4,0.55 5.5,0.35 5.85,-0.65 5.6,-1.3 5.2,-1.85 4.5,-1.55 q 0.45,0.5 0.45,1.45 m 1.8,-1.95 v -0.1 l -1.2,0.2 0.55,0.45 0.05,0.75 V -0.2 Q 6.8,-1.05 6.8,-1.7 L 6.75,-2.05 m -1,8.1 1.9,-0.3 L 8,6.05 7.8,6.15 5.95,6.6 5.3,6.75 5.15,6.8 5.1,6.95 5.7,7.05 7.5,7.1 h 0.65 l -0.2,0.3 -0.6,0.15 q -2.5,0 -2.5,-0.65 0,-0.25 0.35,-0.5 L 5.4,6.2 5.75,6.05 M -0.5,5.1 -0.3,5.75 q 0,0.35 -0.25,0.7 H -0.3 L 0.3,6.8 V 6.95 L 0.05,7 -0.65,6.95 -0.7,6.65 -1.45,7.3 -1.1,7.4 -0.75,7.7 V 8 Q -1.35,8 -1.6,7.4 L -3.6,8.5 -3.8,8.6 -6.6,9.65 -6.75,9.7 -6.9,9.75 -7.05,9.8 -7.2,9.65 -7.1,9.6 -6.8,9.45 -6,8 q 0.85,-1.1 1.35,-1.15 l 1,0.1 Q -3.3,7.3 -3.3,7.7 V 7.8 Q -1.4,6.7 -0.9,5.6 L -1.55,5.45 q -1.8,0 -3.95,1.55 -1.65,1.2 -2.05,2.05 l -0.1,0.2 -0.45,-0.4 q 0,-0.55 0.65,-1.15 l -0.4,-0.55 0.05,-0.2 h 0.15 Q -7.4,7 -7.1,7.35 l 0.7,-0.5 -0.05,-0.2 0.3,-0.6 0.1,0.6 1,-0.55 -0.35,-0.65 0.15,-0.15 0.35,0.3 0.25,0.3 0.45,-0.25 0.55,-0.2 q 0,-0.6 -0.15,-0.9 l 0.45,-0.05 0.2,0.35 v 0.4 L -2.1,4.9 -1.8,4.85 -2.15,4.15 q 0.3,-0.05 0.5,0.2 l 0.15,0.3 V 4.8 4.85 q 0.7,-0.1 1,0.25 m -4.25,4.1 h 0.1 q 0.15,0.15 0.15,0.6 v 0.3 l -0.15,0.05 -0.3,-0.8 V 9.3 l 0.1,-0.15 0.1,0.05 m 2.15,-10.75 0.05,0.05 q 0.3,0.2 0.3,0.5 l -0.05,0.3 q -0.05,0.05 -0.25,0.15 L -2.9,-0.95 Q -3.25,-0.4 -3.75,-0.2 H -3.9 v 1.05 l -0.05,0.1 H -4.4 L -4.5,-0.2 h -0.45 l -0.4,-0.25 -0.8,0.5 -0.3,-0.15 0.8,-0.55 -0.9,-1.05 -0.7,0.1 -0.55,-0.25 -0.05,-0.05 1.15,-0.55 -0.05,-1.4 v -0.1 h -0.3 l -0.8,-0.1 -0.25,-0.4 1.4,0.1 0.25,-2.15 0.05,-0.2 -0.6,-0.6 -0.35,-0.9 q 0.45,-0.25 0.9,0.2 L -6.2,-7.7 -5.65,-8.9 -5.7,-9 -6,-9.6 -5.9,-9.9 q 0.6,-0.05 0.85,0.45 l 0.1,0.3 H -3.9 V -9.6 l 0.25,-0.55 0.3,0.55 -0.1,0.5 H -3.7 q 0.75,0.35 1.1,1.45 l 0.95,-0.85 0.2,0.05 0.1,0.25 q 0,0.15 -0.55,0.65 l -0.55,0.45 0.15,0.7 0.05,1.3 0.25,-0.05 h 0.05 l 0.9,-0.35 0.3,0.15 v 0.1 Q -0.9,-5.1 -1.5,-4.9 l -0.45,0.15 -0.3,0.05 v 1 L -2,-3.8 h 0.05 l 0.7,-0.05 q -0.25,0.35 -0.7,0.5 H -2.3 q -0.1,1.05 -0.35,1.8 H -2.6 M -4.2,-8.4 -4.5,-8.45 q -0.85,-0.05 -1.25,1.2 l 0.2,0.25 q 0.25,-1.35 1.25,-1.4 h 0.1 m -0.8,1.2 -0.3,1.5 q 0,2.6 0.75,2.6 1.05,0 1.2,-3 l -0.2,-1.3 Q -3.8,-7.9 -4.3,-7.75 -4.75,-7.65 -5,-7.2 m -1,0.9 -0.15,2.4 q 0,2.95 1.8,3.05 h 0.1 0.2 q 1.05,-0.3 1.2,-3.8 v -0.2 l -0.05,-1.1 -0.4,1.5 Q -3.7,-3.1 -4.05,-2.8 H -5 L -5.65,-4.35 -5.7,-5.7 -5.65,-6.6 H -5.8 -5.85 -5.95 L -6,-6.3 M -7.05,4.85 h -0.2 L -7.35,4.6 -6,3.05 l 1.05,0.1 0.1,0.1 v 0.1 L -5.2,4 -5.35,4.2 -6.45,4.85 h -0.6 M -6.9,4.5 -5.7,4.1 -5.25,3.35 q -0.7,-0.2 -1.15,0.3 l -0.05,0.1 -0.6,0.7 -0.15,0.1 0.3,-0.05 m 0.6,4.75 1.95,-0.95 0.1,-0.15 0.65,-0.7 q -0.3,-0.3 -0.65,-0.3 -0.6,0 -1.35,1.05 L -6.3,9.25 M -3.15,8.35 -2.4,8.8 -2.6,9.2 -3.15,8.35"
         fill="#6b6b6b"
         fill-rule="evenodd"
         stroke="none"
         id="path4" />
      <path
         d="M -3.8,8.6 -4.75,9.2 -4.85,9.15 -4.95,9.3 -6.45,9.85 -6.9,9.75 -6.75,9.7 -6.6,9.65 -3.8,8.6 m 2.3,-3.8 0.3,-0.05 q 0.45,0 0.7,0.35 -0.3,-0.35 -1,-0.25 V 4.8 m -0.8,-11.2 0.2,0.7 0.1,0.55 -0.25,0.05 -0.05,-1.3 m 0.35,1.65 v 0.85 0.1 H -2 l -0.25,0.1 v -1 l 0.3,-0.05 m 0,1.4 q -0.1,1.15 -0.65,1.8 h -0.05 q 0.25,-0.75 0.35,-1.8 h 0.35"
         fill="#999999"
         fill-rule="evenodd"
         stroke="none"
         id="path5" />
      <path
         d="M 7.8,6.15 7.95,6.45 7.5,7.1 5.7,7.05 5.55,6.95 5.3,6.75 5.95,6.6 7.8,6.15 M -5,-7.2 l 1.2,-0.25 0.25,0.05 0.2,1.3 q -0.15,3 -1.2,3 -0.75,0 -0.75,-2.6 L -5,-7.2 m -0.8,0.6 h 0.15 l -0.05,0.9 0.05,1.35 0.65,1.55 h 0.95 q 0.35,-0.3 0.75,-1.65 l 0.4,-1.5 0.05,1.1 v 0.2 q -0.15,3.5 -1.2,3.8 h -0.2 -0.1 q -1.8,-0.1 -1.8,-3.05 L -6,-6.3 -5.8,-6.6"
         fill="#aebf9f"
         fill-rule="evenodd"
         stroke="none"
         id="path6" />
      <path
         d="M -7.1,9.6 -7.55,9.05 Q -7.15,8.2 -5.5,7 -3.35,5.45 -1.55,5.45 L -0.9,5.6 Q -1.4,6.7 -3.3,7.8 V 7.7 q 0,-0.4 -0.35,-0.75 l -1,-0.1 Q -5.15,6.9 -6,8 L -6.8,9.45 -7.1,9.6 M -6.3,9.25 -5.6,8.2 q 0.75,-1.05 1.35,-1.05 0.35,0 0.65,0.3 l -0.65,0.7 -0.1,0.15 -1.95,0.95"
         fill="#dadcc1"
         fill-rule="evenodd"
         stroke="none"
         id="path7" />
      <path
         d="M 6.75,-2.05 6.8,-1.7 q 0,0.65 -0.65,1.5 V -0.75 L 6.1,-1.5 5.55,-1.95 l 1.2,-0.2 v 0.1 m -1.8,1.95 q 0,-0.95 -0.45,-1.45 l 0.7,-0.3 0.4,0.55 0.25,0.65 -0.35,1 L 5.4,0.55 3.2,1.95 3.15,1.75 2.9,2 2.15,2.05 1.15,1.8 1.05,1.25 q 0,-0.55 0.8,-1.2 l -0.2,0.6 Q 1.65,1.5 3,1.45 H 3.95 L 4.9,0.6 4.95,-0.1 M 4.35,-0.8 4.5,-0.15 Q 4.7,1 2.75,1 L 2,0.8 2.25,0.05 2.45,-0.4 3.1,-0.85 3.25,-0.9 l 1.1,0.1"
         fill="#bdb3a4"
         fill-rule="evenodd"
         stroke="none"
         id="path8" />
    </g>
    <g
       id="shape1"
       transform="translate(10.05,16.8)">
      <path
         d="m 0.65,-16.75 q 2.2,0.5 2.2,2.2 l -0.15,1.6 -0.15,0.55 1,0.4 1.15,0.75 1.7,0.35 1.2,0.1 q 1.5,0.1 2.15,1.2 0.35,0.7 0.35,1.6 v 0.05 q 0,1.45 -0.4,1.9 l -0.3,0.25 0.05,0.05 0.6,1.45 v 18.25 l -0.5,1.3 q -1,1.8 -3.35,1.55 H -6.2 q -2.35,0.25 -3.35,-1.55 l -0.5,-1.3 V -4.3 l 0.7,-1.6 -0.15,-0.15 Q -9.9,-6.5 -9.9,-7.95 V -8 q 0,-0.9 0.35,-1.6 0.65,-1.1 2.15,-1.2 l 1.2,-0.1 1.65,-0.35 1.2,-0.75 1,-0.4 -0.2,-0.55 -0.1,-1.6 q 0,-1.7 2.15,-2.2 l 0.65,-0.05 0.5,0.05 m -0.45,1.6 H 0.1 q -0.65,0.1 -1.1,0.55 l -0.3,0.6 0.05,0.45 0.35,0.65 0.4,0.7 -0.1,0.5 -0.45,0.3 -0.4,-0.05 q -0.25,0.2 -0.65,0.45 l -1.8,1.15 q -0.45,0.5 -2.3,0.75 h -0.3 q -1.35,0.15 -1.65,0.7 H 8.35 Q 8.05,-8.95 6.65,-9.1 H 6.4 Q 4.55,-9.35 4.1,-9.85 L 2.3,-11 Q 1.9,-11.25 1.6,-11.45 L 1.2,-11.4 0.8,-11.7 0.65,-12.2 1.05,-12.9 1.5,-14 1.15,-14.6 Q 0.75,-15.05 0.2,-15.15 M 8.4,-7.9 H -8.2 q 0.1,0.45 1.4,0.75 L -6.35,-7 H 6.55 L 7,-7.15 Q 8.25,-7.45 8.4,-7.9 M 5.8,14.75 5.45,14.65 2.9,14.25 h -4.35 l -0.15,0.15 -3.65,0.35 h 3.5 V 14.7 h 2.1 v 0.05 H 5.8 M 0.35,-5.05 V -5 h -1.2 -0.5 v -0.05 h -5.2 l -0.55,0.6 q -0.65,0.55 -0.7,2.05 l -0.05,0.15 -0.05,0.35 v 0.15 0.05 l 0.05,0.8 -0.1,1.2 L -8,0.45 V 5 5.95 6.35 q 0.1,1.35 0.05,3.75 l -0.05,1.1 0.05,0.95 0.2,0.75 0.15,0.3 h -0.05 l 0.3,0.5 0.65,0.7 1.3,-0.4 3.95,-0.5 H 3.1 l 2.75,0.45 0.95,0.4 0.55,-0.65 0.3,-0.5 H 7.6 L 7.75,12.9 7.95,12.15 8,11.2 7.95,10.1 Q 7.9,7.7 8,6.35 V 5.95 5 0.45 L 7.95,0.3 7.85,-0.9 7.9,-1.7 V -1.75 -1.9 L 7.85,-2.25 7.8,-2.4 Q 7.75,-3.9 7.1,-4.45 l -0.55,-0.6 h -6.2"
         fill="#6b6b6b"
         fill-rule="evenodd"
         stroke="none"
         id="path9" />
      <path
         d="M -1.25,-13.55 -1.3,-14 -1,-14.6 q 0.45,-0.45 1.1,-0.55 h 0.1 l 0.1,0.55 -0.2,0.65 q -0.3,0.45 -0.85,0.45 l -0.5,-0.05 M -6.1,-0.85 -6.2,-1.5 q 0,-2.4 2.3,-2.6 2.25,-0.25 2.25,1.6 0,0.8 -1.05,1.5 -1.05,0.7 -2.4,0.7 -0.75,0 -1,-0.55"
         fill="#e2e2e2"
         fill-rule="evenodd"
         stroke="none"
         id="path10" />
    </g>
  </defs>
</svg>
