<?xml version="1.0" encoding="UTF-8" standalone="no"?>
<svg
   ffdec:objectType="frame"
   height="30.450001"
   width="32.799999"
   version="1.1"
   id="svg5"
   sodipodi:docname="1.svg"
   xmlns:inkscape="http://www.inkscape.org/namespaces/inkscape"
   xmlns:sodipodi="http://sodipodi.sourceforge.net/DTD/sodipodi-0.dtd"
   xmlns:xlink="http://www.w3.org/1999/xlink"
   xmlns="http://www.w3.org/2000/svg"
   xmlns:svg="http://www.w3.org/2000/svg"
   xmlns:ffdec="https://www.free-decompiler.com/flash">
  <sodipodi:namedview
     id="namedview5"
     pagecolor="#ffffff"
     bordercolor="#000000"
     borderopacity="0.25"
     inkscape:showpageshadow="2"
     inkscape:pageopacity="0.0"
     inkscape:pagecheckerboard="0"
     inkscape:deskcolor="#d1d1d1"
     fit-margin-top="5"
     fit-margin-left="5"
     fit-margin-right="5"
     fit-margin-bottom="5" />
  <g
     transform="translate(16.4,15.2)"
     id="g1">
    <use
       ffdec:characterId="1734"
       height="30.5"
       transform="translate(-16.4,-15.25)"
       width="32.799999"
       xlink:href="#shape0"
       id="use1" />
  </g>
  <defs
     id="defs5">
    <g
       id="shape0"
       transform="translate(16.4,15.25)">
      <path
         d="M 0,-15.2 H -0.1 1.1 0 l 1.85,0.2 4.4,0.7 1.3,0.45 1.65,0.65 2.1,1.35 q 2.05,1.6 3.1,3.55 l 0.95,2.45 0.25,1.05 q 0.8,4.05 0.8,10.6 0,3.25 -1.1,4.9 -1.55,2.4 -6.4,4.55 H -8.9 q -4.85,-2.15 -6.4,-4.55 -1.1,-1.65 -1.1,-4.9 0,-7.4 1,-11.65 0.8,-3.4 4.05,-6 0.65,-0.7 2.1,-1.35 l 1.7,-0.65 1.3,-0.45 4.4,-0.7 1.85,-0.2 m 1.95,2.9 -0.85,-0.2 v 0.05 l -1,-0.05 -1.25,0.05 v -0.05 l -1.5,0.35 -1.4,0.25 -3.85,0.9 q -2.7,1.65 -4.2,4.35 l -0.45,0.85 -0.15,0.35 -0.55,1.65 -0.4,1.65 -0.25,1.7 -0.1,1.35 -0.05,1.55 V 2.5 l 0.05,2.45 0.45,2.9 q 0.35,1 1.1,1.85 l 0.75,0.75 q 0.95,0.8 2.35,1.45 l 0.85,0.4 0.45,0.15 h 0.8 15.3 q 2.65,-0.95 4.1,-2.4 0.95,-1 1.4,-2.2 0.3,-0.8 0.4,-2.75 L 14,2.5 V 2.3 1.45 L 13.9,-0.2 13.65,-1.9 13.3,-3.5 12.8,-5.15 12.05,-6.65 11.85,-7 q -1.5,-2.45 -4,-4 l -3.8,-0.9 -2.1,-0.4 m -12.9,7.65 q 2.05,-4.75 8.55,-5.6 l 1.65,-0.2 0.55,0.05 0.6,-0.05 1.65,0.2 q 6.5,0.85 8.6,5.6 l 0.55,1.6 0.25,1.25 0.2,1.8 V 0.8 0.95 2.2 2.35 L 11.5,2.9 11.3,3.25 10.95,3.6 10.65,3.75 H 10.2 -7.6 -8.45 -10.65 -11 L -11.6,3.3 -12,2.25 V 2.2 0.95 0.8 l 0.05,-1.25 0.2,-1.6 0.35,-1.45 0.45,-1.15 M 6.7,-6.75 4.65,-7.15 3.35,-6.7 3.05,-6.5 2.2,-5.7 1.85,-5.8 1.75,-6.25 1.8,-6.6 q -0.4,-0.3 -0.4,-1 0,-1.15 1.15,-1.15 0.9,0 1.1,0.75 l 0.8,-0.25 0.2,-0.05 -1.05,-0.45 -3.8,-0.3 -3.75,0.3 -0.85,0.4 1.15,0.25 q 0.2,-0.6 1,-0.6 1.05,0 1.05,0.95 -0.05,0.8 -0.6,1 l 0.3,0.5 -0.1,0.4 q 0.05,0.25 -0.45,0.25 -0.55,0 -0.95,-0.7 -0.45,-0.75 -1.85,-0.75 -1.25,0 -2.5,0.55 -2.35,2 -3,4.95 V 2.1 H 10.4 V -1.55 Q 9.7,-4.4 7.5,-6.4 7.1,-6.5 6.7,-6.75 M 3.4,-8.8 3,-8.95 2.6,-9 3.4,-8.8 m -3.35,7.85 q 0.35,0 0.7,0.6 0.4,0.55 1.75,0.55 l 1.2,-0.3 0.35,-0.55 -0.8,-0.7 0.15,-0.1 q 0.75,-0.3 1.3,0.4 L 5.15,-0.1 4.7,0.85 Q 3.95,1.7 2.55,1.7 1.3,1.7 0.25,0.95 L -0.2,0.6 -0.65,0.95 Q -1.7,1.7 -2.95,1.7 -4.35,1.7 -5.1,0.85 L -5.55,-0.1 -5.1,-1.05 q 0.55,-0.7 1.3,-0.4 l 0.15,0.1 -0.8,0.7 0.35,0.55 1.2,0.3 q 1.35,0 1.75,-0.55 l 0.7,-0.6 0.25,0.05 0.25,-0.05 m 6.9,-0.3 1.55,-0.05 0.3,0.05 0.15,0.35 -0.1,0.4 -0.35,0.05 -1.25,0.05 -0.6,0.1 H 5.8 q -0.15,0.05 -0.15,-0.45 0,-0.45 1.3,-0.5 M 8.2,1.2 7.05,0.95 5.9,0.55 Q 6.2,0.05 6.35,0.1 L 8.5,0.2 8.65,0.75 8.6,1.1 8.2,1.2 m -11.95,-10 0.8,-0.2 -0.5,0.05 -0.3,0.15 m -6.1,7.65 2.75,-0.05 0.3,0.1 0.15,0.35 -0.05,0.5 -0.45,0.1 -2.2,-0.05 -0.65,-0.6 q 0.35,-0.2 0.15,-0.35 m 3.65,-4.8 q 2.4,0.1 2.4,2.3 0,1.05 -0.35,1.5 -0.6,0.75 -2.35,0.75 -1.6,0 -2,-0.95 L -8.6,-3.5 q 0,-2.5 2.4,-2.45 M -6.8,0.2 -6.7,0.55 -6.8,0.95 -7.1,1 -9.65,1.2 -9.75,0.75 -9.7,0.4 q 0.1,-0.3 0.55,-0.25 h 2.05 l 0.3,0.05"
         fill="#6b6b6b"
         fill-rule="evenodd"
         stroke="none"
         id="path1" />
      <path
         d="M 3.75,-2.15 Q 3.4,-2.6 3.4,-3.65 3.4,-5.85 5.8,-5.95 8.2,-6 8.2,-3.5 l -0.1,1.15 q -0.4,0.95 -2,0.95 -1.75,0 -2.35,-0.75"
         fill="#ffffff"
         fill-rule="evenodd"
         stroke="none"
         id="path2" />
      <path
         d="m -2.65,-12.15 1.5,-0.35 v 0.05 l 1.25,-0.05 1,0.05 v -0.05 l 0.85,0.2 -0.2,0.6 q 0,1.05 2.6,1.3 3.35,0.25 4.8,1.5 0.7,0.6 2.7,1.9 l 0.2,0.35 0.75,1.5 -0.5,0.05 -1.65,0.45 q -2.1,-4.75 -8.6,-5.6 l -1.65,-0.2 -0.6,0.05 -0.55,-0.05 -1.65,0.2 q -6.5,0.85 -8.55,5.6 l -1.75,-0.8 0.15,-0.35 0.8,-0.95 1.7,-1.9 q 2.3,-1.75 5.35,-1.95 2.1,-0.1 2.1,-1.05 l -0.05,-0.5 M 13.3,-3.5 13.65,-1.9 12.7,-1.95 11.45,-1.8 11.2,-3.05 q 1.05,-0.05 2.1,-0.45 m 0.6,3.3 0.1,1.65 -2,-0.5 H 11.65 V 0.8 0 L 13.9,-0.2 M 14,2.3 V 2.5 L 13.95,5.1 12.7,3.6 11.5,2.9 11.65,2.35 12.7,2.4 14,2.3 m -1.85,7.75 q -1.45,1.45 -4.1,2.4 h -15.3 q 0.45,-0.2 0.45,-0.7 L -7.2,10.9 Q -7.6,10.25 -7.6,9.45 L -7.65,7 -6.95,5.75 -6.3,4.5 q 0,-0.3 -0.15,-0.35 l -0.3,-0.1 q -1.2,0.9 -1.8,3.6 l -0.45,3.1 0.15,0.95 0.35,0.6 -0.85,-0.4 V 11.75 L -10,9.05 -9.85,6.65 q 0.25,-0.75 1.3,-1.6 l 0.95,-1 v -0.3 h 17.8 l 1.1,0.35 0.85,0.8 q 1.2,1.25 1.2,2.1 0,0.55 -0.6,1.55 l -0.65,1.2 0.05,0.3 M -11.7,10.45 -12.45,9.7 -13,6.75 l 1.25,-1.8 1.1,-1.2 h 2.2 q -2,0.55 -2.75,2.3 -0.5,1.15 -0.5,3.25 v 1.15 M -14,4.95 -14.05,2.5 V 2.45 l 2.05,-0.2 0.4,1.05 q -1.7,0.55 -2.4,1.65 m 0,-4.05 0.1,-1.35 h 1.4 0.55 L -12,0.8 V 0.95 L -12.15,0.85 -14,0.9 m 0.35,-3.05 0.4,-1.65 1.65,0.3 h 0.2 l -0.35,1.45 -1.15,-0.15 -0.75,0.05 m 25.3,11.6 q 0.4,-1.1 0.4,-1.95 0,-3.45 -2.4,-3.45 l -0.05,0.4 0.5,1.4 0.45,1.6 L 9.7,9.2 8.8,10.6 q 0,0.65 0.75,0.65 1.4,0 2.1,-1.8 M 0.5,8.8 2,8.7 1.25,9.2 1.65,9.3 2.75,9.25 V 9.4 9.95 l -3.2,0.1 L -0.25,9.5 0.5,8.8 M 3.75,6.95 Q 4.25,6.95 3.9,7 V 7.1 L 2.95,8 2.85,7.85 0.1,7.95 0.85,7.35 1.55,7.4 3.75,6.95 M 4.8,4.6 q -2,0.7 -3.7,0.7 l -1.15,-0.25 -1,-0.3 q -0.65,0 -0.65,0.75 l 0.55,1 0.45,0.35 -0.7,0.4 L -3,8.4 -5.75,8.3 -5.8,8.7 l 0.2,0.7 0.9,0.2 q -0.85,0.5 -0.85,0.95 l 0.15,0.45 0.35,0.1 1.4,-0.75 0.35,-0.25 -0.1,0.5 0.55,0.7 0.7,-1 0.4,-1.1 V 9.15 L -1,8.7 q -0.7,0.8 -0.7,1.85 0,1 2.5,1 l 2.55,-0.25 0.4,-0.3 0.9,0.1 1,-0.15 0.1,-0.4 L 5.6,10.2 4,10.05 4.1,9.45 4,8.95 4.75,8.55 Q 5.95,7.8 5.95,6.5 5.95,4.4 4.8,4.6 M 8.15,5.2 Q 7,3.05 7,5 L 7.25,6.2 7.5,7.35 6.3,10.7 6.35,11.2 q 0.2,0.5 0.85,0.5 0.75,0 1.45,-1.4 0.6,-1.2 0.6,-1.75 0,-1.15 -1.1,-3.35 m -10.4,0.95 q 0,-1.4 -1.45,-1.4 -1.45,0 -1.45,1.4 l 0.2,0.8 q 0.35,0.7 1.2,0.7 0.65,0 1.1,-0.5 0.4,-0.45 0.4,-1"
         fill="#837171"
         fill-rule="evenodd"
         stroke="none"
         id="path3" />
      <path
         d="m -2.65,-12.15 0.05,0.5 q 0,0.95 -2.1,1.05 -3.05,0.2 -5.35,1.95 l -1.7,1.9 -0.8,0.95 0.45,-0.85 q 1.5,-2.7 4.2,-4.35 l 3.85,-0.9 1.4,-0.25 m -10.05,6.7 1.75,0.8 -0.45,1.15 h -0.2 l -1.65,-0.3 0.55,-1.65 m 23.35,0.8 1.65,-0.45 0.5,-0.05 0.5,1.65 q -1.05,0.4 -2.1,0.45 l -0.55,-1.6 M 11.85,-7 q -2,-1.3 -2.7,-1.9 -1.45,-1.25 -4.8,-1.5 -2.6,-0.25 -2.6,-1.3 l 0.2,-0.6 2.1,0.4 3.8,0.9 q 2.5,1.55 4,4 m 1.8,5.1 0.25,1.7 -2.25,0.2 -0.2,-1.8 1.25,-0.15 0.95,0.05 M 14,1.45 V 2.3 L 12.7,2.4 11.65,2.35 V 2.2 0.95 H 12 l 2,0.5 M 13.95,5.1 q -0.1,1.95 -0.4,2.75 -0.45,1.2 -1.4,2.2 l -0.05,-0.3 0.65,-1.2 q 0.6,-1 0.6,-1.55 0,-0.85 -1.2,-2.1 L 11.3,4.1 10.2,3.75 h 0.45 l 0.3,-0.15 0.35,-0.35 0.2,-0.35 1.2,0.7 1.25,1.5 m -21.2,7.35 h -0.8 L -8.5,12.3 -8.85,11.7 -9,10.75 -8.55,7.65 q 0.6,-2.7 1.8,-3.6 l 0.3,0.1 Q -6.3,4.2 -6.3,4.5 L -6.95,5.75 -7.65,7 -7.6,9.45 q 0,0.8 0.4,1.45 l 0.4,0.85 q 0,0.5 -0.45,0.7 m -2.1,-0.55 q -1.4,-0.65 -2.35,-1.45 V 9.3 q 0,-2.1 0.5,-3.25 0.75,-1.75 2.75,-2.3 h 0.85 v 0.3 l -0.95,1 q -1.05,0.85 -1.3,1.6 l -0.15,2.4 0.65,2.7 v 0.15 m -3.1,-2.2 Q -13.2,8.85 -13.55,7.85 L -14,4.95 q 0.7,-1.1 2.4,-1.65 l 0.6,0.45 h 0.35 l -1.1,1.2 -1.25,1.8 0.55,2.95 M -14.05,2.45 -14,0.9 -12.15,0.85 -12,0.95 V 2.2 2.25 l -2.05,0.2 m 0.15,-2.9 0.25,-1.7 0.75,-0.05 1.15,0.15 -0.2,1.6 h -0.55 -1.4 m 25.55,9.9 q -0.7,1.8 -2.1,1.8 -0.75,0 -0.75,-0.65 L 9.7,9.2 10.55,7.45 10.1,5.85 9.6,4.45 9.65,4.05 q 2.4,0 2.4,3.45 0,0.85 -0.4,1.95 M 8.15,5.2 q 1.1,2.2 1.1,3.35 0,0.55 -0.6,1.75 -0.7,1.4 -1.45,1.4 -0.65,0 -0.85,-0.5 L 6.3,10.7 7.5,7.35 7.25,6.2 7,5 Q 7,3.05 8.15,5.2 M 4.8,4.6 q 1.15,-0.2 1.15,1.9 0,1.3 -1.2,2.05 L 4,8.95 l 0.1,0.5 -0.1,0.6 1.6,0.15 0.15,0.35 -0.1,0.4 -1,0.15 -0.9,-0.1 -0.4,0.3 -2.55,0.25 q -2.5,0 -2.5,-1 Q -1.7,9.5 -1,8.7 L -1.75,9.15 V 9.2 l -0.4,1.1 -0.7,1 -0.55,-0.7 0.1,-0.5 -0.35,0.25 -1.4,0.75 L -5.4,11 -5.55,10.55 q 0,-0.45 0.85,-0.95 L -5.6,9.4 -5.8,8.7 -5.75,8.3 -3,8.4 -1.4,7.25 -0.7,6.85 -1.15,6.5 -1.7,5.5 q 0,-0.75 0.65,-0.75 l 1,0.3 1.15,0.25 q 1.7,0 3.7,-0.7 M 3.75,6.95 1.55,7.4 0.85,7.35 0.1,7.95 2.85,7.85 2.95,8 3.9,7.1 V 7 Q 4.25,6.95 3.75,6.95 M 0.5,8.8 l -0.75,0.7 -0.2,0.55 3.2,-0.1 V 9.4 9.25 L 1.65,9.3 1.25,9.2 2,8.7 0.5,8.8 M -2.25,6.15 q 0,0.55 -0.4,1 -0.45,0.5 -1.1,0.5 -0.85,0 -1.2,-0.7 l -0.2,-0.8 q 0,-1.4 1.45,-1.4 1.45,0 1.45,1.4"
         fill="#b6b59f"
         fill-rule="evenodd"
         stroke="none"
         id="path4" />
      <path
         d="m 6.7,-6.75 q 0.4,0.25 0.8,0.35 2.2,2 2.9,4.85 V 2.1 h -21.15 v -3.65 q 0.65,-2.95 3,-4.95 1.25,-0.55 2.5,-0.55 1.4,0 1.85,0.75 0.4,0.7 0.95,0.7 0.5,0 0.45,-0.25 l 0.1,-0.4 -0.3,-0.5 q 0.55,-0.2 0.6,-1 0,-0.95 -1.05,-0.95 -0.8,0 -1,0.6 l -1.15,-0.25 0.85,-0.4 3.75,-0.3 3.8,0.3 1.05,0.45 -0.2,0.05 -0.8,0.25 q -0.2,-0.75 -1.1,-0.75 -1.15,0 -1.15,1.15 0,0.7 0.4,1 l -0.05,0.35 0.1,0.45 0.35,0.1 0.85,-0.8 0.3,-0.2 1.3,-0.45 2.05,0.4 m -2.95,4.6 q 0.6,0.75 2.35,0.75 1.6,0 2,-0.95 L 8.2,-3.5 q 0,-2.5 -2.4,-2.45 -2.4,0.1 -2.4,2.3 0,1.05 0.35,1.5 m -3.7,1.2 -0.25,0.05 -0.25,-0.05 -0.7,0.6 Q -1.55,0.2 -2.9,0.2 l -1.2,-0.3 -0.35,-0.55 0.8,-0.7 -0.15,-0.1 q -0.75,-0.3 -1.3,0.4 l -0.45,0.95 0.45,0.95 q 0.75,0.85 2.15,0.85 1.25,0 2.3,-0.75 L -0.2,0.6 0.25,0.95 Q 1.3,1.7 2.55,1.7 3.95,1.7 4.7,0.85 L 5.15,-0.1 4.7,-1.05 q -0.55,-0.7 -1.3,-0.4 l -0.15,0.1 0.8,0.7 L 3.7,-0.1 2.5,0.2 q -1.35,0 -1.75,-0.55 -0.35,-0.6 -0.7,-0.6 m 6.9,-0.3 q -1.3,0.05 -1.3,0.5 0,0.5 0.15,0.45 H 6.65 L 7.25,-0.4 8.5,-0.45 8.85,-0.5 8.95,-0.9 8.8,-1.25 8.5,-1.3 6.95,-1.25 M 8.2,1.2 8.6,1.1 8.65,0.75 8.5,0.2 6.35,0.1 Q 6.2,0.05 5.9,0.55 L 7.05,0.95 8.2,1.2 M -6.2,-5.95 Q -8.6,-6 -8.6,-3.5 l 0.1,1.15 q 0.4,0.95 2,0.95 1.75,0 2.35,-0.75 0.35,-0.45 0.35,-1.5 0,-2.2 -2.4,-2.3 m -3.65,4.8 Q -9.65,-1 -10,-0.8 l 0.65,0.6 2.2,0.05 0.45,-0.1 0.05,-0.5 -0.15,-0.35 -0.3,-0.1 -2.75,0.05 M -6.8,0.2 -7.1,0.15 H -9.15 Q -9.6,0.1 -9.7,0.4 L -9.75,0.75 -9.65,1.2 -7.1,1 -6.8,0.95 -6.7,0.55 -6.8,0.2"
         fill="#dacaca"
         fill-rule="evenodd"
         stroke="none"
         id="path5" />
    </g>
  </defs>
</svg>
