<?xml version="1.0" encoding="UTF-8" standalone="no"?>
<svg
   ffdec:objectType="frame"
   height="96.679199"
   width="159.3"
   version="1.1"
   id="svg16"
   sodipodi:docname="1.svg"
   xmlns:inkscape="http://www.inkscape.org/namespaces/inkscape"
   xmlns:sodipodi="http://sodipodi.sourceforge.net/DTD/sodipodi-0.dtd"
   xmlns:xlink="http://www.w3.org/1999/xlink"
   xmlns="http://www.w3.org/2000/svg"
   xmlns:svg="http://www.w3.org/2000/svg"
   xmlns:ffdec="https://www.free-decompiler.com/flash">
  <sodipodi:namedview
     id="namedview16"
     pagecolor="#ffffff"
     bordercolor="#000000"
     borderopacity="0.25"
     inkscape:showpageshadow="2"
     inkscape:pageopacity="0.0"
     inkscape:pagecheckerboard="0"
     inkscape:deskcolor="#d1d1d1"
     fit-margin-top="5"
     fit-margin-left="5"
     fit-margin-right="5"
     fit-margin-bottom="5" />
  <g
     transform="translate(79.65,59.4292)"
     id="g2">
    <use
       ffdec:characterId="1213"
       height="62.25"
       transform="matrix(0.9641,0,0,1.1871,-75.8184,-59.4292)"
       width="157.45"
       xlink:href="#sprite0"
       id="use1" />
    <use
       ffdec:characterId="1214"
       height="49.150002"
       transform="translate(-79.65,-11.9)"
       width="159.3"
       xlink:href="#shape1"
       id="use2" />
  </g>
  <defs
     id="defs16">
    <g
       id="sprite0"
       transform="translate(78.9,31.15)">
      <use
         ffdec:characterId="1212"
         height="62.25"
         transform="translate(-78.9,-31.15)"
         width="157.45"
         xlink:href="#shape0"
         id="use3" />
    </g>
    <g
       id="shape0"
       transform="translate(78.9,31.15)">
      <path
         d="m 19.6,-14.65 q 0.4,-1.75 0.65,-5.45 0.5,-6.8 2.6,-6.1 l 5.8,-0.05 q 5.6,0.05 7.4,-0.15 l 0.35,-0.05 0.15,0.3 0.5,0.95 -0.35,6.6 -0.8,1.65 q -0.4,0.9 -1.6,2 l -0.7,0.7 H 20 l -0.4,-0.4 m 19.4,-0.1 q 0.55,-1.1 0.9,-2.65 l 0.75,-3.9 q 1.05,-4.7 8.9,-5.1 l 5.25,-0.1 0.6,-0.05 0.3,0.6 -0.05,0.6 0.05,4.5 v 2.45 l -0.55,1.3 -0.65,1.5 -1.7,1.35 H 39.4 l -0.4,-0.5 m -38.45,-0.5 0.6,-3.1 q 0.25,-2.25 0.6,-3.25 l 0.15,-1.7 0.1,-0.9 0.55,-1 0.25,-0.2 q 0.8,-0.4 4.7,-1 l 0.7,-0.1 h 2.05 l 5.9,-0.05 q 0.35,0 0.55,-0.15 l 0.3,0.4 v 6.8 l -1.15,2.3 q -0.4,0.7 -1.9,1.65 l -0.8,0.65 -0.8,0.3 -0.6,0.35 H 1.35 l -0.8,-1 M 0.95,0.3 1.4,-3.05 q 0.5,-4.8 2.05,-7.25 l 3.1,-0.6 7,-0.5 2.6,0.2 q 0.6,0 0.8,-0.45 l 0.05,0.1 V -1.4 l -0.25,0.5 -1.7,1.4 -0.85,0.65 H 10.9 L 1.6,1.1 1,0.35 0.95,0.3 M 19.7,1.1 q 0.4,-0.55 0.35,-2.35 l -0.25,-3.6 q 0.15,-4.7 1.35,-5.05 1.15,-0.3 8,-0.05 l 4.55,-0.05 2.5,-0.75 0.3,-0.15 -0.05,6.1 v 3.1 q -0.5,0.05 -1.25,1.1 -0.6,0.85 -1.9,1.35 L 32.7,1.1 h -13 m 36,-12.55 V -2.1 L 54.65,-1.25 53,1.05 39.55,1.1 l 0.3,-2 0.4,-5.15 0.3,-2.25 q 0.2,-1.2 1,-1.95 0.85,-0.75 2.45,-1 1.95,-0.25 7.3,-0.1 h 3.85 l 0.55,-0.1 m 2.7,-3 0.05,-0.25 v -0.55 q 0.6,-1.95 1,-5.5 0.8,-3.8 4.25,-5.75 l 4.75,-0.05 3.6,-0.3 h 0.15 l 2.25,0.5 q 0.45,0 0.75,-0.25 l 0.2,0.2 v 7.9 l -0.5,1.2 q -0.15,0.45 -1.85,1.9 l -1.2,1.15 H 58.6 l -0.2,-0.2 m 15.1,42 H -76 l 0.1,-2.15 -0.05,-5.75 V 16.9 h 0.8 q 3,0 3,-0.95 0,-0.3 -0.25,-0.45 h 6.45 l 5.7,-0.35 0.05,-0.05 -12.9,-0.45 -2.85,0.05 v -2.9 q 0.8,-1.1 1.05,-1.8 l 0.1,-1.65 v -0.1 l 0.1,-0.75 q 0.2,-1.9 0.8,-2.95 l 2,-0.2 10.3,-0.25 3.35,0.05 0.35,0.4 V 8 q -0.8,0.65 -2.35,3.15 l 0.05,0.4 0.4,0.1 q 0.6,-0.1 1.65,-1.25 l 0.25,-0.25 v 0.1 L -58,11.7 q 0.1,6.6 0.8,8.3 l 0.4,-0.05 0.45,-4 0.35,-4.15 q 0.85,0 1,-1.75 l 0.25,-2.55 q 0.3,-0.5 0.3,-1.65 0,-0.75 0.6,-1.05 L -41,4 q 0.55,0 1.15,0.35 l 0.55,0.3 0.5,-0.05 v 2.15 q 0.2,6.55 0.8,11.55 l 0.4,-0.1 q 0.35,-2.95 0.55,-6.4 l 0.4,-1.1 0.2,0.25 q 0.35,-0.35 1,-2.95 l 0.6,-2.55 q 1.4,-0.95 4,-1.5 h 6.15 q 3.9,0.75 5.2,0 l 0.2,0.15 v 4.55 6.75 q 0.2,3.85 0.8,6.8 v -0.55 l 0.4,-2.05 q 0.25,-2 0.35,-4.2 l 0.05,-3.7 q 1.1,-0.1 1.5,-2.35 0.3,-1.6 0.05,-2.6 l 0.9,-1.7 5.85,-0.85 7.55,-0.8 0.7,0.95 -0.05,3 h -0.2 l -0.5,2.25 -0.45,2.05 q 0.65,-0.45 1.15,-1.5 l 0.05,5.25 q 0.05,3.15 0.55,5.75 v 1.05 h 0.15 L -0.4,22 -0.25,21.2 Q 0.3,18.6 0.4,15.4 L 0.45,11.7 Q 1.55,11.6 1.95,9.35 2.25,7.75 2,6.75 L 2.9,5.05 8.75,4.2 16.3,3.4 17,4.35 l -0.05,3 h -0.2 l -0.5,2.25 q -0.4,1.35 -0.45,2.05 0.65,-0.45 1.15,-1.5 L 17,15.4 q 0.1,3.85 0.75,6.8 h 0.35 q 0.6,-2.95 0.8,-6.8 l 0.05,-3.1 q 1,-0.5 1.35,-2.6 l 0.6,-4.65 5.5,-0.4 8.25,-0.1 1.7,-0.1 0.15,0.25 v 1.95 q 0.15,6.55 0.75,11.55 l 0.4,0.1 0.6,-6.55 0.35,0.15 q 1.15,0 1.15,-3.05 L 39.8,7 40.5,6.3 44.3,4.3 47.8,4.2 54.35,4.5 55.2,3.95 55.4,4 55.7,4.35 v 6.1 l -0.1,1.1 0.4,4.4 0.4,4 0.45,0.05 q 0.65,-1.7 0.75,-8.3 v -0.5 l 0.4,0.05 q 1,0 1.3,-1.75 l 0.25,-2.55 q 0.15,-1.2 1.45,-1.8 2.6,-1.3 9.85,-1.3 l 4.45,0.4 h 0.25 v 6.8 l -0.6,1.15 q -0.4,1.1 -1.5,1.6 l -0.8,0.75 -7.1,-0.05 q -1.7,0.1 -2.1,0.45 l 2.1,0.3 6.7,0.05 -2.15,0.4 1.05,0.6 3,0.35 h 1.4 v 3 2.7 H 75.5 l -0.8,2.8 -0.6,1.75 0.05,0.25 -0.65,0.4 M 59.05,1.05 59.1,0.5 l 0.2,-4.9 -0.25,-1.55 1.2,-2.4 1.15,-1.9 q 2.3,-1.1 6.9,-1.1 l 4.25,0.25 1.85,0.25 q 0.5,0 1,-0.3 v 9.45 l -0.45,0.9 Q 74.7,-0.2 72.9,0.8 72.55,0.95 72.35,1.15 L 70.45,1.1 66.4,1.05 h -7.35 m -134.45,-16 q 0.65,-1.15 1.1,-2.9 l 1.2,-4.15 q 1.45,-3.2 7.2,-3.9 l 5.7,-0.85 2.4,0.5 v 0.1 l -0.3,-0.05 v 0.1 h 0.3 l -0.1,5.05 v 0.6 q -0.85,1.15 -1,2.4 -0.1,1.05 -1.85,2.1 -1.5,0.85 -1.7,1.7 h -12.5 l -0.3,-0.45 -0.15,-0.2 v -0.05 m 20.05,-0.15 q 0.35,-1.3 0.55,-3.55 0.15,-2.75 0.9,-4.05 1.35,-2.25 7.65,-3.55 l 2.55,-0.4 3.25,-0.05 1.1,-0.1 0.6,1.3 -0.3,7.4 -1.1,1.85 -1.4,1.45 -0.5,0.55 h -12.9 l -0.4,-0.85 m -2.75,3.45 0.2,0.55 v 7.6 l -0.3,0.8 q -0.6,2.05 -2.55,3.4 l -0.5,0.35 h -5.5 l -4.1,0.05 -3.65,0.1 -0.55,-0.8 -0.05,-0.05 q 0.7,-0.85 0.75,-3.25 0,-3.2 0.55,-4.1 l 1,-2 q 1.05,-1.15 4.15,-1.65 l 4.2,-0.8 h 1.15 l 4.8,-0.05 0.4,-0.15 m 2,11.2 0.3,-1.45 q 0.15,-0.7 0.15,-1.85 l -0.05,-1.55 0.9,-3.2 0.55,-0.45 0.65,-1.15 q 1.65,-1.7 11.1,-1.7 l 2.75,0.45 0.75,-0.15 0.05,0.15 0.1,6.5 v 1.75 l -1.4,1.4 -2.3,2.8 -12.8,-0.05 -0.75,-1.45 v -0.05 m 38.5,-14.8 q 0.35,-1.1 0.6,-3.1 l 0.6,-3.25 q 0.15,-0.4 0.15,-1.7 l 0.1,-0.9 0.55,-1 0.25,-0.2 q 0.8,-0.4 4.7,-1 l 0.7,-0.1 h 2.05 l 5.9,-0.05 q 0.35,0 0.55,-0.15 l 0.3,0.4 v 6.8 l -1.15,2.3 q -0.4,0.7 -1.9,1.65 l -0.8,0.65 -0.75,0.3 -0.65,0.35 h -10.4 l -0.8,-1 m -18.7,0.65 0.05,-0.65 -0.15,-2.1 0.35,-2 0.65,-4.4 q 3.35,-3.05 15.4,-3.05 l 0.8,1.05 v 5.9 l -0.4,0.2 q -0.75,0.85 -0.85,2.35 -0.05,1 -1.35,1.95 l -1.05,1.1 h -13.2 l -0.25,-0.35 m 0.55,15.7 0.05,-0.2 -0.05,-3.15 0.05,-4.8 q 0.05,-0.95 1.05,-1.95 1,-0.95 2,-1.1 l 9.55,-0.8 3.9,-0.65 v 7.9 q -0.5,0.25 -0.8,1.1 -0.25,1.2 -0.45,1.65 -0.3,0.6 -1.65,1.45 l -0.85,0.55 h -12.8 m 18.55,-0.8 0.45,-3.35 q 0.5,-4.8 2.05,-7.25 l 3.1,-0.6 7,-0.5 2.6,0.2 q 0.6,0 0.8,-0.45 l 0.05,0.1 V -1.4 l -0.25,0.5 -1.7,1.4 -0.85,0.65 h -3.3 L -16.55,1.1 -17.15,0.35 -17.2,0.3"
         fill="#9d9d9d"
         fill-rule="evenodd"
         stroke="none"
         id="path3" />
      <path
         d="m 36.4,-26.45 -0.95,-1.6 -15.45,-0.05 -0.3,0.4 -0.55,0.55 -0.2,0.15 -0.15,0.15 v 10.6 l 0.15,0.55 q 0.2,0.6 0.65,1.05 l 0.4,0.4 h 13.6 1.75 l 0.4,-0.4 0.9,-0.55 0.05,-2.15 v -1.25 l 0.35,-6.6 -0.5,-0.95 -0.15,-0.3 m 19,-0.1 -0.2,-0.35 -0.45,-1.1 -15.35,-0.05 -0.2,0.55 -0.85,1.5 0.3,5.75 v 0.2 l 0.05,0.65 v 1.65 l -0.1,2.65 0.4,0.35 0.4,0.5 h 13.4 2.25 l 0.65,-0.95 v -3.2 -2.45 l -0.05,-4.5 0.05,-0.6 -0.3,-0.6 m -38.7,-0.15 -0.05,-0.1 -1.15,-1.15 -0.05,0.05 v -0.2 H 1.95 l -0.15,0.2 -0.35,0.45 -0.25,0.25 -0.65,0.75 -0.2,0.2 v 10.8 l 0.2,0.2 0.8,1 h 10.4 4.4 l 0.15,-0.55 0.45,-0.75 0.25,-0.35 v -3.6 -6.8 l -0.3,-0.4 m 0.25,15.05 -0.9,-1.2 H 1.5 q -0.5,0.7 -0.85,1.6 l -0.3,0.85 v 9.15 H 0.4 L 0.35,-1 v 0.05 q 0,0.45 0.6,1.25 L 1,0.35 1.6,1.1 10.9,1.15 h 3.3 0.5 1.25 L 16.45,0.55 17,0 v -1.4 -10.15 l -0.05,-0.1 m 19.55,0.75 0.05,-0.75 -0.15,-0.15 -0.7,-1 -15.4,-0.05 -0.35,0.3 -0.4,1 -0.75,1.4 v 9.5 l 0.4,0.85 0.5,0.9 h 13 3.15 l 0.5,-0.85 0.1,-0.1 V -1.7 -4.8 l 0.05,-6.1 m 19.2,-0.55 -0.2,-0.35 -0.65,-1 h -15.1 q -0.55,0.45 -0.95,1.45 l -0.25,0.55 v 1.75 l -0.05,2.1 -0.05,2.1 v 4.9 l 0.6,0.55 0.35,0.5 h 0.15 L 53,1.05 h 2.15 L 55.2,0.9 55.7,0.3 v -2.4 -9.35 m 19.5,-15.15 -0.45,-0.5 -0.85,-0.8 v -0.05 L 58.45,-28 l -0.5,1.35 -0.5,1.05 0.05,4.55 v 5.8 l 0.25,0.2 0.5,0.4 0.05,0.1 0.1,0.1 0.2,0.2 h 13.25 2.65 l 0.15,-0.25 0.75,-0.8 v -3.2 -7.9 l -0.2,-0.2 M -76,27.55 q -0.3,2.2 -1.3,3.55 l -1.25,-0.45 -0.15,-30.75 -0.15,-0.3 v -25.95 l -0.05,-0.7 q 0,-3.6 1.55,-3.8 l 2.65,-0.3 H 74.35 l 2.6,0.3 q 1.6,0.2 1.6,3.8 l -0.05,0.7 V -0.4 l -0.15,0.3 -0.2,30.75 -1.25,0.45 Q 76.05,29.85 75.65,28 V 27.55 L 75.5,25.8 v -0.4 -0.5 l 0.05,-2.55 v -2.7 -3 -1.3 l -0.15,0.05 -0.85,-0.05 -2,-0.05 h -0.3 l -6.7,-0.05 -2.1,-0.3 q 0.4,-0.35 2.1,-0.45 l 7.1,0.05 h 2.75 0.15 V 11.05 4.25 3.9 L 74.35,2.65 74.1,2.7 H 73.75 L 70.9,2.75 69.05,2.8 H 66.4 58.3 L 58.25,2.9 57.9,3.55 57.75,3.8 57.5,4.15 v 6.1 l 0.1,0.95 v 0.5 q -0.1,6.6 -0.75,8.3 l -0.45,-0.05 -0.4,-4 -0.4,-4.4 0.1,-1.1 V 4.35 L 55.4,4 55.3,3.9 55.25,3.85 55.2,3.75 55,3.45 54.55,2.8 H 39.6 l 0.05,0.05 V 2.9 l -0.2,0.05 H 39.4 39.3 L 39.2,2.9 39.05,3.1 39,3.15 38.45,3.95 v 0.6 l -0.05,1.4 v 0.8 0.55 l -0.15,4.45 -0.6,6.55 -0.4,-0.1 Q 36.65,13.2 36.5,6.65 V 4.7 L 36.35,4.45 36.2,4.15 35.7,3 V 2.8 H 20.1 l -0.85,1.1 -0.3,0.35 V 5.05 6 8.65 12.3 l -0.05,3.1 q -0.2,3.85 -0.8,6.8 H 17.75 Q 17.1,19.25 17,15.4 L 16.95,10.15 V 8.65 7.35 L 17,4.35 16.3,3.4 15.85,2.8 H 1.6 L 1.55,2.9 1.5,2.95 0.8,3.6 0.75,3.65 0.4,3.95 0.45,5.5 V 8.65 11.7 L 0.4,15.4 q -0.1,3.2 -0.65,5.8 L -0.4,22 -0.45,22.2 H -0.6 V 21.15 Q -1.1,18.55 -1.15,15.4 L -1.2,10.15 v -1.5 -1.3 l 0.05,-3 L -1.85,3.4 -2.3,2.8 h -14.25 l -0.05,0.1 -0.05,0.05 -0.7,0.65 -0.05,0.05 -0.35,0.3 0.05,1.55 v 3.15 3.05 l -0.05,3.7 q -0.1,2.2 -0.35,4.2 l -0.4,2.05 v 0.55 q -0.6,-2.95 -0.8,-6.8 V 8.65 4.1 L -19.5,3.95 -19.7,3.7 -20.5,2.8 h -15.15 l -0.2,0.2 q -0.6,0.45 -1,1.3 L -36.9,6.65 V 7.6 l -0.1,2.25 -0.05,1.95 q -0.2,3.45 -0.55,6.4 l -0.4,0.1 q -0.6,-5 -0.8,-11.55 V 4.6 3.9 L -39.5,3.4 -40.1,3.05 -40.5,2.8 h -14.3 v 0.05 l -0.35,0.3 -0.75,0.95 -0.2,0.3 v 6.05 l 0.1,1.1 v 0.25 l -0.35,4.15 -0.45,4 -0.4,0.05 q -0.7,-1.7 -0.8,-8.3 l 0.1,-1.45 V 10.15 8 4.55 l -0.35,-0.4 -1.4,-1.35 h -7.1 l -7.3,-0.1 -0.3,-0.05 h -0.1 l -0.6,0.5 -0.1,0.15 -0.5,0.65 -0.15,0.2 -0.15,0.15 v 5.3 0.2 2 2.9 l 2.85,-0.05 12.9,0.45 -0.05,0.05 -5.7,0.35 h -6.45 l -3.55,-0.05 v 1.45 2.75 l 0.05,5.75 -0.1,2.15 h -1.15 1.15 m 153.3,0 h -1.65 1.65 m -1.9,-38.7 v -0.25 l -0.65,-0.6 -1.25,-0.45 -0.3,-0.05 0.05,-0.05 -0.3,-0.1 -1.2,-0.15 H 59 l -0.3,0.1 h -0.05 l -0.55,0.95 -0.6,0.9 v 11.9 h 1.55 7.35 l 4.05,0.05 1.9,0.05 1.7,0.05 1.45,-1.25 h 0.05 v -0.1 l -0.15,-0.3 v -1.25 -9.45 m -133.2,-15.1 -0.1,-0.6 -0.05,-0.3 -0.05,-0.15 -0.1,-0.4 -0.1,-0.1 -0.1,-0.2 -16.05,0.05 -0.9,1.25 -0.55,0.65 v 10.65 l 0.1,0.05 0.3,0.4 v 0.05 l 0.15,0.2 0.3,0.45 h 12.5 3.35 l 0.55,-0.65 0.4,-0.4 0.25,-0.3 v -4.85 -0.6 l 0.1,-5.05 h -0.3 v -0.1 l 0.3,0.05 v -0.1 m 18.45,-0.55 v -0.1 l -0.15,-0.5 -0.65,-0.65 -15,0.05 -0.15,0.6 -0.2,0.75 q -0.15,0.75 -0.55,1.3 l -0.05,4.25 v 0.25 4.7 l 0.55,0.7 0.2,0.35 0.4,0.85 h 12.9 2.5 l 0.55,-1.15 -0.05,-2.35 v -0.35 l 0.3,-7.4 -0.6,-1.3 M -75.8,-0.55 v 0.1 l -0.05,0.15 h 0.1 q 0.3,0.05 0.65,0.65 l 0.05,0.05 0.55,0.8 3.65,-0.1 4.1,-0.05 h 5.5 2.85 l 0.5,-0.8 v -3.75 -7.6 l -0.2,-0.55 -0.45,-1.15 h -15.9 l -1.35,1.7 v 10.55 m 36.8,-10.95 -0.35,-0.5 -0.4,-0.8 h -15.4 l -0.15,0.4 -0.05,0.15 -0.55,1.05 -0.05,0.15 -0.15,0.15 v 10.45 0.05 l 0.75,1.45 12.8,0.05 h 3.1 l 0.2,-0.25 0.4,-0.4 V -3.1 -4.85 l -0.1,-6.5 -0.05,-0.15 m 37.55,-15.2 -0.05,-0.1 q -0.75,-1.05 -1.15,-1.15 l -0.05,0.05 v -0.2 h -13.5 l -0.15,0.2 -0.35,0.45 -0.25,0.25 -0.65,0.75 -0.2,0.2 v 10.8 l 0.2,0.2 0.8,1 H -6.4 -2 l 0.15,-0.55 0.45,-0.75 0.25,-0.35 v -3.6 -6.8 l -0.3,-0.4 m -18.55,-0.1 -0.2,-0.45 -0.3,-0.85 -15.75,0.05 -0.45,0.6 -0.2,0.5 -0.15,0.5 -0.05,0.3 v 0.2 l -0.15,0.05 -0.15,0.45 0.05,0.75 0.05,1.25 v 0.4 l 0.05,0.4 0.2,5.3 v 1.1 l 0.15,-0.1 0.2,0.45 0.35,1.25 0.05,0.05 0.25,0.35 h 13.2 3.15 l 0.5,-0.7 v -4.9 -5.9 L -20,-26.8 m 0.8,15.25 v -0.55 l -0.55,-0.5 -0.5,-0.25 -15.2,0.05 v 0.1 l -0.05,0.05 h -0.05 l -0.2,-0.05 -0.1,0.15 -0.8,1.2 -0.2,0.3 -0.05,0.1 v 1.2 0.7 l 0.05,4.25 v 4.9 l 0.6,1 h 0.5 12.8 2.3 l 0.25,-0.45 1.2,-1.55 v -2.75 -7.9 m 2,11.85 0.05,0.05 0.6,0.75 9.3,0.05 h 3.3 0.5 1.25 L -1.7,0.55 -1.15,0 v -1.4 -10.15 l -0.05,-0.1 -0.9,-1.2 h -14.55 l -0.85,1.6 -0.3,0.85 v 9.15 h 0.05 L -17.8,-1 v 0.05 q 0,0.45 0.6,1.25"
         fill="#9a9a9a"
         fill-rule="evenodd"
         stroke="none"
         id="path4" />
      <path
         d="m 19.6,-14.65 q -0.45,-0.45 -0.65,-1.05 l -0.15,-0.55 v -10.6 l 0.15,-0.15 0.2,-0.15 0.55,-0.55 0.3,-0.4 15.45,0.05 0.95,1.6 -0.35,0.05 q -1.8,0.2 -7.4,0.15 l -5.8,0.05 q -2.1,-0.7 -2.6,6.1 -0.25,3.7 -0.65,5.45 m 19.05,-5.4 v -0.2 l -0.3,-5.75 0.85,-1.5 0.2,-0.55 15.35,0.05 0.45,1.1 0.2,0.35 -0.6,0.05 -5.25,0.1 q -7.85,0.4 -8.9,5.1 l -0.75,3.9 q -0.35,1.55 -0.9,2.65 l -0.4,-0.35 0.1,-2.65 v -1.65 -0.5 l -0.05,-0.15 M 16.7,-26.7 q -0.2,0.15 -0.55,0.15 l -5.9,0.05 H 8.2 l -0.7,0.1 q -3.9,0.6 -4.7,1 l -0.25,0.2 -0.55,1 -0.1,0.9 -0.15,1.7 q -0.35,1 -0.6,3.25 l -0.6,3.1 -0.2,-0.2 v -10.8 l 0.2,-0.2 0.65,-0.75 0.25,-0.25 0.35,-0.45 0.15,-0.2 h 13.5 v 0.2 l 0.05,-0.05 1.15,1.15 0.05,0.1 M 0.95,0.3 Q 0.35,-0.5 0.35,-0.95 V -1 L 0.4,-1.25 H 0.35 v -9.15 l 0.3,-0.85 q 0.35,-0.9 0.85,-1.6 h 14.55 l 0.9,1.2 q -0.2,0.45 -0.8,0.45 l -2.6,-0.2 -7,0.5 -3.1,0.6 Q 1.9,-7.85 1.4,-3.05 L 0.95,0.3 m 35.55,-11.2 -0.3,0.15 -2.5,0.75 -4.55,0.05 q -6.85,-0.25 -8,0.05 -1.2,0.35 -1.35,5.05 l 0.25,3.6 Q 20.1,0.55 19.7,1.1 L 19.2,0.2 18.8,-0.65 v -9.5 l 0.75,-1.4 0.4,-1 0.35,-0.3 15.4,0.05 0.7,1 0.15,0.15 -0.05,0.75 m 3.05,12 H 39.4 L 39.05,0.6 38.45,0.05 v -4.9 l 0.05,-2.1 0.05,-2.1 v -1.75 l 0.25,-0.55 q 0.4,-1 0.95,-1.45 h 15.1 l 0.65,1 0.2,0.35 -0.55,0.1 H 51.3 q -5.35,-0.15 -7.3,0.1 -1.6,0.25 -2.45,1 -0.8,0.75 -1,1.95 l -0.3,2.25 -0.4,5.15 -0.3,2 M 75.2,-26.6 q -0.3,0.25 -0.75,0.25 l -2.25,-0.5 h -0.15 l -3.6,0.3 -4.75,0.05 q -3.45,1.95 -4.25,5.75 -0.4,3.55 -1,5.5 v 0.55 l -0.05,0.25 -0.1,-0.1 -0.05,-0.1 -0.5,-0.4 -0.25,-0.2 v -5.8 l -0.05,-4.55 0.5,-1.05 0.5,-1.35 15.45,0.05 v 0.05 l 0.85,0.8 0.45,0.5 M -75.95,16.9 v -1.45 l 3.55,0.05 q 0.25,0.15 0.25,0.45 0,0.95 -3,0.95 h -0.8 m 0,-5.1 v -2 l 0.05,-0.2 h -0.05 V 4.3 l 0.15,-0.15 0.15,-0.2 0.5,-0.65 0.1,-0.15 0.6,-0.5 h 0.1 l 0.3,0.05 7.3,0.1 h 7.1 l 1.4,1.35 -3.35,-0.05 -10.3,0.25 -2,0.2 q -0.6,1.05 -0.8,2.95 l -0.1,0.75 v 0.1 L -74.9,10 q -0.25,0.7 -1.05,1.8 m 19.95,0 v -0.25 l -0.1,-1.1 V 4.4 l 0.2,-0.3 0.75,-0.95 0.35,-0.3 V 2.8 h 14.3 l 0.4,0.25 0.6,0.35 0.7,0.5 v 0.7 l -0.5,0.05 -0.55,-0.3 Q -40.45,4 -41,4 l -12.85,0.8 q -0.6,0.3 -0.6,1.05 0,1.15 -0.3,1.65 L -55,10.05 q -0.15,1.75 -1,1.75 m 18.95,0 L -37,9.85 -36.9,7.6 V 6.65 l 0.05,-2.35 q 0.4,-0.85 1,-1.3 l 0.2,-0.2 h 15.15 l 0.8,0.9 0.2,0.25 q -1.3,0.75 -5.2,0 h -6.15 q -2.6,0.55 -4,1.5 L -35.45,8 q -0.65,2.6 -1,2.95 l -0.2,-0.25 -0.4,1.1 M -17.7,11.7 V 8.65 5.5 l -0.05,-1.55 0.35,-0.3 0.05,-0.05 0.7,-0.65 0.05,-0.05 0.05,-0.1 H -2.3 l 0.45,0.6 -7.55,0.8 -5.85,0.85 -0.9,1.7 q 0.25,1 -0.05,2.6 -0.4,2.25 -1.5,2.35 m 18.15,0 V 8.65 5.5 L 0.4,3.95 0.75,3.65 0.8,3.6 1.5,2.95 1.55,2.9 1.6,2.8 H 15.85 L 16.3,3.4 8.75,4.2 2.9,5.05 2,6.75 q 0.25,1 -0.05,2.6 -0.4,2.25 -1.5,2.35 m 18.5,0.6 V 8.65 6 5.05 4.25 L 19.25,3.9 20.1,2.8 H 35.7 V 3 l 0.5,1.15 0.15,0.3 -1.7,0.1 -8.25,0.1 -5.5,0.4 -0.6,4.65 q -0.35,2.1 -1.35,2.6 M 38.25,11.75 38.4,7.3 V 6.75 5.95 l 0.05,-1.4 V 3.95 L 39,3.15 39.05,3.1 39.2,2.9 39.3,2.95 h 0.1 0.05 L 39.65,2.9 V 2.85 L 39.6,2.8 H 54.55 L 55,3.45 55.2,3.75 55.25,3.85 55.3,3.9 55.4,4 55.2,3.95 54.35,4.5 47.8,4.2 44.3,4.3 40.5,6.3 39.8,7 39.75,8.85 q 0,3.05 -1.15,3.05 L 38.25,11.75 M 57.6,11.2 57.5,10.25 V 4.15 L 57.75,3.8 57.9,3.55 58.25,2.9 58.3,2.8 h 8.1 2.65 L 70.9,2.75 73.75,2.7 h 0.35 l 0.25,-0.05 1.2,1.25 V 4.25 H 75.3 l -4.45,-0.4 q -7.25,0 -9.85,1.3 -1.3,0.6 -1.45,1.8 L 59.3,9.5 Q 59,11.25 58,11.25 L 57.6,11.2 m 14.65,4.1 h 0.3 l 2,0.05 0.85,0.05 0.15,-0.05 v 1.3 h -1.4 l -3,-0.35 -1.05,-0.6 2.15,-0.4 M 59.05,1.05 H 57.5 v -11.9 l 0.6,-0.9 0.55,-0.95 h 0.05 l 0.3,-0.1 h 12.75 l 1.2,0.15 0.3,0.1 -0.05,0.05 0.3,0.05 1.25,0.45 0.65,0.6 v 0.25 q -0.5,0.3 -1,0.3 l -1.85,-0.25 -4.25,-0.25 q -4.6,0 -6.9,1.1 l -1.15,1.9 -1.2,2.4 0.25,1.55 -0.2,4.9 -0.05,0.55 m -134.45,-16 -0.3,-0.4 -0.1,-0.05 v -10.65 l 0.55,-0.65 0.9,-1.25 16.05,-0.05 0.1,0.2 0.1,0.1 0.1,0.4 0.05,0.15 0.05,0.3 0.1,0.6 -2.4,-0.5 -5.7,0.85 q -5.75,0.7 -7.2,3.9 l -1.2,4.15 q -0.45,1.75 -1.1,2.9 m 20.05,-0.15 -0.2,-0.35 -0.55,-0.7 v -4.7 -0.25 l 0.05,-4.25 q 0.4,-0.55 0.55,-1.3 l 0.2,-0.75 0.15,-0.6 15,-0.05 0.65,0.65 0.15,0.5 v 0.1 l -1.1,0.1 -3.25,0.05 -2.55,0.4 q -6.3,1.3 -7.65,3.55 -0.75,1.3 -0.9,4.05 -0.2,2.25 -0.55,3.55 M -75.8,-0.55 V -11.1 l 1.35,-1.7 h 15.9 l 0.45,1.15 -0.4,0.15 -4.8,0.05 h -1.15 l -4.2,0.8 q -3.1,0.5 -4.15,1.65 l -1,2 q -0.55,0.9 -0.55,4.1 -0.05,2.4 -0.75,3.25 -0.35,-0.6 -0.65,-0.65 l -0.05,-0.25 m 19.7,0.1 V -10.9 l 0.15,-0.15 0.05,-0.15 0.55,-1.05 0.05,-0.15 0.15,-0.4 h 15.4 l 0.4,0.8 0.35,0.5 -0.75,0.15 -2.75,-0.45 q -9.45,0 -11.1,1.7 l -0.65,1.15 -0.55,0.45 -0.9,3.2 0.05,1.55 q 0,1.15 -0.15,1.85 l -0.3,1.45 m 38.5,-14.8 -0.2,-0.2 v -10.8 l 0.2,-0.2 0.65,-0.75 0.25,-0.25 0.35,-0.45 0.15,-0.2 h 13.5 v 0.2 l 0.05,-0.05 q 0.4,0.1 1.15,1.15 l 0.05,0.1 q -0.2,0.15 -0.55,0.15 l -5.9,0.05 h -2.05 l -0.7,0.1 q -3.9,0.6 -4.7,1 l -0.25,0.2 -0.55,1 -0.1,0.9 q 0,1.3 -0.15,1.7 l -0.6,3.25 q -0.25,2 -0.6,3.1 m -18.7,0.65 -0.05,-0.05 -0.35,-1.25 -0.2,-0.45 -0.15,0.1 v -1.1 l -0.2,-5.3 -0.05,-0.4 v -0.4 l -0.05,-1.25 -0.05,-0.75 0.15,-0.45 0.15,-0.05 v -0.2 l 0.05,-0.3 0.15,-0.5 0.2,-0.5 0.45,-0.6 15.75,-0.05 0.3,0.85 0.2,0.45 q -12.05,0 -15.4,3.05 l -0.65,4.4 -0.35,2 0.15,2.1 -0.05,0.65 m 0.55,15.7 h -0.5 l -0.6,-1 v -4.9 l -0.05,-4.25 v -0.7 -1.2 l 0.05,-0.1 0.2,-0.3 0.8,-1.2 0.1,-0.15 0.2,0.05 h 0.05 l 0.05,-0.05 v -0.1 l 15.2,-0.05 0.5,0.25 0.55,0.5 v 0.55 l -3.9,0.65 -9.55,0.8 q -1,0.15 -2,1.1 -1,1 -1.05,1.95 l -0.05,4.8 0.05,3.15 -0.05,0.2 M -1.2,-11.65 q -0.2,0.45 -0.8,0.45 l -2.6,-0.2 -7,0.5 -3.1,0.6 q -1.55,2.45 -2.05,7.25 L -17.2,0.3 q -0.6,-0.8 -0.6,-1.25 V -1 l 0.05,-0.25 h -0.05 v -9.15 l 0.3,-0.85 0.85,-1.6 H -2.1 l 0.9,1.2"
         fill="#a2a2a2"
         fill-rule="evenodd"
         stroke="none"
         id="path5" />
      <path
         d="m 36.7,-18.6 v 1.25 l -0.05,2.15 -0.9,0.55 -0.4,0.4 H 33.6 l 0.7,-0.7 q 1.2,-1.1 1.6,-2 l 0.8,-1.65 m 19,0.2 v 3.2 l -0.65,0.95 H 52.8 l 1.7,-1.35 0.65,-1.5 0.55,-1.3 m -43.95,4.15 0.6,-0.35 0.8,-0.3 0.8,-0.65 q 1.5,-0.95 1.9,-1.65 L 17,-19.5 v 3.6 l -0.25,0.35 -0.45,0.75 -0.15,0.55 h -4.4 M 17,-1.4 V 0 l -0.55,0.55 -0.5,0.6 H 14.7 14.2 L 15.05,0.5 16.75,-0.9 17,-1.4 m 15.7,2.5 0.6,-0.35 q 1.3,-0.5 1.9,-1.35 0.75,-1.05 1.25,-1.1 v 1.85 l -0.1,0.1 -0.5,0.85 H 32.7 m 23,-3.2 V 0.3 L 55.2,0.9 55.15,1.05 H 53 l 1.65,-2.3 1.05,-0.85 m 16.15,-12.15 1.2,-1.15 q 1.7,-1.45 1.85,-1.9 l 0.5,-1.2 v 3.2 l -0.75,0.8 -0.15,0.25 H 71.85 M 75.65,28 q -0.75,1.25 -2.55,1.25 -0.9,0 -0.9,-0.7 0,-0.55 0.85,-0.85 l 0.45,-0.15 0.65,-0.4 -0.05,-0.25 0.6,-1.75 0.8,-2.8 h 0.05 L 75.5,24.9 v 0.5 0.4 l 0.15,1.75 H 73.5 75.65 V 28 M -57.9,8 v 2.15 l -0.25,0.25 q -1.05,1.15 -1.65,1.25 l -0.4,-0.1 -0.05,-0.4 Q -58.7,8.65 -57.9,8 M -1.2,7.35 v 1.3 1.5 q -0.5,1.05 -1.15,1.5 L -1.9,9.6 -1.4,7.35 h 0.2 m 18.15,0 v 1.3 1.5 q -0.5,1.05 -1.15,1.5 0.05,-0.7 0.45,-2.05 l 0.5,-2.25 h 0.2 m 58.6,3.7 v 3.5 H 75.4 72.65 l 0.8,-0.75 q 1.1,-0.5 1.5,-1.6 l 0.6,-1.15 M 75.4,-1.7 v 1.25 l 0.15,0.3 v 0.1 H 75.5 L 74.05,1.2 72.35,1.15 q 0.2,-0.2 0.55,-0.35 1.8,-1 2.05,-1.6 L 75.4,-1.7 M -57.9,-20.45 v 4.85 l -0.25,0.3 -0.4,0.4 -0.55,0.65 h -3.35 q 0.2,-0.85 1.7,-1.7 1.75,-1.05 1.85,-2.1 0.15,-1.25 1,-2.4 m 18.85,2.35 v 0.35 l 0.05,2.35 -0.55,1.15 h -2.5 l 0.5,-0.55 1.4,-1.45 1.1,-1.85 M -57.9,-3.5 v 3.75 l -0.5,0.8 h -2.85 l 0.5,-0.35 q 1.95,-1.35 2.55,-3.4 l 0.3,-0.8 m 19.05,0.4 v 3.55 l -0.4,0.4 -0.2,0.25 h -3.1 l 2.3,-2.8 1.4,-1.4 m 37.7,-16.4 v 3.6 l -0.25,0.35 -0.45,0.75 -0.15,0.55 h -4.4 l 0.65,-0.35 0.75,-0.3 0.8,-0.65 q 1.5,-0.95 1.9,-1.65 l 1.15,-2.3 m -18.05,-0.35 v 4.9 l -0.5,0.7 h -3.15 l 1.05,-1.1 q 1.3,-0.95 1.35,-1.95 0.1,-1.5 0.85,-2.35 l 0.4,-0.2 m 0,16.2 v 2.75 l -1.2,1.55 -0.25,0.45 h -2.3 l 0.85,-0.55 q 1.35,-0.85 1.65,-1.45 0.2,-0.45 0.45,-1.65 0.3,-0.85 0.8,-1.1 m 15.25,4.8 0.85,-0.65 1.7,-1.4 0.25,-0.5 V 0 l -0.55,0.55 -0.5,0.6 h -1.25 -0.5"
         fill="#9b9b9b"
         fill-rule="evenodd"
         stroke="none"
         id="path6" />
      <path
         d="M 73.5,27.55 H -76 -77.15 m 152.8,0 h 1.65 m -1.65,0 H 73.5"
         fill="none"
         stroke="#9a9a9a"
         stroke-linecap="round"
         stroke-linejoin="round"
         stroke-width="1"
         id="path7" />
      <path
         d="M 20.2,-1.4 Q 20,-3.45 16,-3.9 l -6.25,0.05 q -2.3,0.1 -4.4,1.25 -2.15,1.4 -3.35,1.85 -9.55,7 -9.55,7.95 0,1.6 0.4,1.95 l 1.35,0.7 0.65,0.15 1,-0.1 Q -1.95,9.5 1,7.6 L 5.45,4.45 Q 7.1,3.35 10.2,2.3 L 10.95,2.05 15.2,1 Q 11.3,2 7.05,4.45 l -1.55,0.9 -5.65,3.6 -2.95,1.4 0.6,0.05 3.5,0.1 q 0.9,0 3.55,-2.45 L 7.2,5.45 7.75,5.05 q 0.6,-0.9 1.8,-1.6 0.55,-0.3 1.2,-0.55 l 0.2,-0.05 2.9,-0.8 1.3,-0.25 4.95,-0.7 V 0.35 h -0.2 0.2 V -0.3 l 0.1,-1.1 m -6.65,-4.45 q 5.7,0.05 7.25,1.95 0.9,1.75 0.95,5.2 h 1.9 l 9.55,0.05 q 9.65,0.8 13.1,4.1 2.05,1.95 2.05,5.4 L 48.2,11.4 q -0.4,0.55 -1.7,0.55 L 40.7,11.7 7.9,11.5 7.4,11.2 H 7.35 q -0.75,0 -0.9,-0.9 V 9.25 H 6.05 L 5.25,9.5 H 5.2 l -2.4,2.05 q -1.1,0.7 -3.55,0.7 L -6.8,11.85 Q -9.35,11 -9.35,7.5 q 0,-1.85 5.2,-5.7 l 7.5,-5 Q 7.4,-5.85 13.55,-5.85 M 41.8,7.55 H 45 L 43.3,6.1 Q 40.3,4.35 33.25,3.6 L 21.2,3.55 l -8.1,1 -2,0.35 Q 10,5.35 9.2,5.85 L 8.65,6.8 8.55,7.1 8.45,7.25 8.35,7.4 30.65,7.25 32.95,7.4 h 0.35 l -2.65,0.3 h -1.2 L 8.25,7.8 V 8 L 8.4,9.75 H 9.15 L 40.7,9.55 44.5,9.6 46.2,9.7 46.15,9.6 45.1,7.7 l -2.95,0.1 -1.2,0.05 -5.6,-0.2 0.35,-0.2 6.1,0.1 m -58.45,1.4 v 1.35 q -0.15,0.9 -0.9,0.9 h -0.05 l -0.5,0.3 -32.8,0.2 -5.8,0.25 q -1.3,0 -1.7,-0.55 l -0.15,-0.55 q 0,-3.45 2.05,-5.4 3.45,-3.3 13.1,-4.1 l 9.55,-0.05 q 10.1,-0.05 14.1,2.15 2,1.15 2.3,2.8 0.8,1.4 0.8,2.7 m -1.9,0.5 0.1,-1.45 V 7.8 L -33.9,7.75 -40.85,7.7 -43.5,7.4 l 2.25,-0.1 0.4,-0.05 7.05,0.05 15.25,0.1 -0.3,-0.6 Q -19.4,5.5 -20.05,5.25 L -23.3,4.55 -24,4.5 -31.4,3.55 -43.45,3.6 q -7.05,0.75 -10.05,2.5 -1,0.6 -1.7,1.45 l 9.3,-0.1 0.35,0.2 -5.6,0.2 -1.65,-0.05 -1.85,-0.1 h -0.65 l -0.65,1 -0.25,0.5 -0.15,0.4 -0.05,0.1 5.5,-0.15 32.3,0.2 0.05,-0.3"
         fill="#9a9a9a"
         fill-rule="evenodd"
         stroke="none"
         id="path8" />
      <path
         d="M -5.8,9.85 -7.15,9.15 Q -7.55,8.8 -7.55,7.2 -7.55,6.25 2,-0.75 3.2,-1.2 5.35,-2.6 7.45,-3.75 9.75,-3.85 L 16,-3.9 q 4,0.45 4.2,2.5 L 19.4,-1.25 18,-1.55 16.2,-1.9 q -7.5,0 -10,1.4 -2,1.95 -4,3 Q -6.25,7 -6.25,7.75 L -6,8.6 -5.75,9.45 -5.8,9.85 m 3.3,0.55 -0.6,-0.05 2.95,-1.4 5.65,-3.6 1.55,-0.9 Q 4.9,5.9 1.85,8.05 -0.65,9.8 -2.5,10.4 M 10.2,2.3 Q 7.1,3.35 5.45,4.45 L 1,7.6 Q -1.95,9.5 -4.15,9.9 L -1.9,8.85 Q 1.65,7.1 3.65,5.55 l 3.7,-3 Q 9.9,0.75 11.45,1.5 L 10.2,2.3 M 32.95,7.4 30.65,7.25 8.35,7.4 8.45,7.25 8.55,7.1 8.65,6.8 9.2,5.85 Q 10,5.35 11.1,4.9 l 2,-0.35 8.1,-1 12.05,0.05 Q 40.3,4.35 43.3,6.1 L 45,7.55 H 41.8 L 40.7,6.7 Q 39.75,6.05 35.6,5.3 L 30.9,4.6 h -6.95 l -5.9,0.7 q -4.65,0.5 -5.6,0.9 -0.8,0.3 -1.4,0.75 l 1.5,-0.05 13.65,-0.7 5.6,0.4 3.05,0.55 -1.9,0.25 m 9.2,0.4 2.95,-0.1 1.05,1.9 0.05,0.1 -1.7,-0.1 -0.25,-0.2 -2.1,-1.6 m -33,1.95 H 8.4 L 8.25,8 V 7.8 L 29.45,7.7 27.35,7.85 13.1,8.1 10.1,8 9.95,8.2 9.15,9.75 m -43.05,-2 15.45,0.05 V 8 l -0.1,1.45 -1.2,-0.85 -0.85,-0.75 -4.55,0.5 -4.3,-0.45 -4.2,-0.1 -0.25,-0.05 m -22.3,1.45 0.25,-0.5 0.65,-1 h 0.65 l 1.85,0.1 1.65,0.05 5.6,-0.2 -0.35,-0.2 -9.3,0.1 q 0.7,-0.85 1.7,-1.45 3,-1.75 10.05,-2.5 l 12.05,-0.05 7.4,0.95 0.7,0.05 3.25,0.7 q 0.65,0.25 1.2,1.55 l 0.3,0.6 -15.25,-0.1 1.55,-0.25 8.3,-0.3 -0.9,-0.3 -2.95,-0.9 -1.75,0.1 h -7.65 q -7.8,0 -12.6,1.25 h 0.9 5.05 l 2.6,0.4 -2.25,0.1 2.65,0.3 -3,0.35 h -5.05 l -4.25,-0.15 -2.6,0.8 h -0.05 l -0.4,0.5"
         fill="#a8a8a8"
         fill-rule="evenodd"
         stroke="none"
         id="path9" />
      <path
         d="M -5.8,9.85 -5.75,9.45 -6,8.6 -6.25,7.75 Q -6.25,7 2.2,2.5 q 2,-1.05 4,-3 2.5,-1.4 10,-1.4 l 1.8,0.35 1.4,0.3 0.8,-0.15 -0.1,1.1 v 0.65 h -0.2 0.2 V 1.1 l -4.95,0.7 -1.3,0.25 -2.9,0.8 -0.2,0.05 q -0.65,0.25 -1.2,0.55 -1.2,0.7 -1.8,1.6 L 7.2,5.45 4.55,8.05 Q 1.9,10.5 1,10.5 L -2.5,10.4 Q -0.65,9.8 1.85,8.05 4.9,5.9 7.05,4.45 11.3,2 15.2,1 L 10.95,2.05 10.2,2.3 11.45,1.5 Q 9.9,0.75 7.35,2.55 l -3.7,3 q -2,1.55 -5.55,3.3 L -4.15,9.9 -5.15,10 -5.8,9.85 M 32.95,7.4 34.85,7.15 31.8,6.6 26.2,6.2 12.55,6.9 11.05,6.95 q 0.6,-0.45 1.4,-0.75 0.95,-0.4 5.6,-0.9 l 5.9,-0.7 h 6.95 l 4.7,0.7 q 4.15,0.75 5.1,1.4 l 1.1,0.85 -6.1,-0.1 -0.35,0.2 5.6,0.2 1.2,-0.05 2.1,1.6 L 44.5,9.6 40.7,9.55 9.15,9.75 9.95,8.2 10.1,8 l 3,0.1 14.25,-0.25 2.1,-0.15 h 1.2 L 33.3,7.4 h -0.35 m -51.5,2.05 -0.05,0.3 -32.3,-0.2 -5.5,0.15 0.05,-0.1 0.15,-0.4 0.4,-0.5 h 0.05 l 2.6,-0.8 4.25,0.15 h 5.05 l 3,-0.35 6.95,0.05 0.25,0.05 4.2,0.1 4.3,0.45 4.55,-0.5 0.85,0.75 1.2,0.85 M -33.8,7.3 l -7.05,-0.05 -0.4,0.05 -2.6,-0.4 h -5.05 -0.9 Q -45,5.65 -37.2,5.65 h 7.65 l 1.75,-0.1 2.95,0.9 0.9,0.3 -8.3,0.3 -1.55,0.25"
         fill="#a2a2a2"
         fill-rule="evenodd"
         stroke="none"
         id="path10" />
    </g>
    <g
       id="shape1"
       transform="translate(79.65,11.9)">
      <path
         d="m -68.55,-5.7 q 0.65,-1.35 2.15,-2.5 l 0.5,-0.35 2.3,0.35 H 63.6 l 1.8,-0.15 0.5,-0.2 0.5,0.35 q 1.75,1.35 2.4,3.05 l 0.15,0.35 0.7,5.15 0.2,1.9 q 0,1.65 -0.7,3.15 Q 68.25,4.65 68.1,3 L 68.05,-0.85 Q 67.9,-2.1 67,-4.2 L 66.55,-4.15 66.7,-2 66.3,-2.1 Q 65.75,3.8 65.75,9.75 v 0.3 H 65.4 Q 65.05,8.95 64.85,7.6 64.5,5.4 64.6,2.45 L 65,-3.95 61.6,-4.25 -63.6,-4.4 q 0.1,0.85 0.05,1.95 -0.15,1.95 -0.7,4.15 l -0.2,0.65 v 7.7 h -0.6 l -0.3,-1.15 -0.4,-2 -0.2,-4.25 -0.35,-4.75 h -0.1 l 0.05,-2.3 h -0.4 L -66.9,-2 H -67 v 1.3 l -0.15,1.3 -0.05,0.75 q -0.3,2.8 -0.1,4.65 -0.1,0.45 -0.8,0.75 L -68.3,6.9 -68.35,6.75 -68.75,6.1 -68.8,6.05 q -1.05,-1.85 -1.05,-3.8 l 0.8,-6.4 v -0.1 l 0.05,-0.1 0.45,-1.35"
         fill="#8a8a8a"
         fill-rule="evenodd"
         stroke="none"
         id="path11" />
      <path
         d="m 69.15,5.4 q 0.7,-1.5 0.7,-3.15 l -0.2,-1.9 -0.7,-5.15 -0.15,-0.35 q -0.65,-1.7 -2.4,-3.05 l -0.5,-0.35 -0.5,0.2 -1.8,0.15 H -63.6 l -2.3,-0.35 -0.5,0.35 q -1.5,1.15 -2.15,2.5 l -0.4,0.9 -0.05,0.45 -0.05,0.1 v 0.1 l -0.8,6.4 q 0,1.95 1.05,3.8 l 0.05,0.05 0.4,0.65 0.05,0.15 1.15,1.7 0.15,-9.3 V -2 h 0.1 l 0.5,-0.1 h 0.1 l 0.35,4.75 0.2,4.25 v 2.15 0.7 0.3 h 0.7 0.6 129.85 0.35 V 9.75 Q 65.75,3.8 66.3,-2.1 L 66.7,-2 H 67 l 0.15,10.6 1.2,-1.85 0.8,-1.35 M 71.4,-6.75 q 1.25,4.6 1.25,11.65 0,1.65 -1.25,4.85 l -0.1,0.2 -0.05,0.1 h 6.3 0.3 Q 78.05,9.9 78.2,9.9 l 0.4,0.15 h 0.05 q 0.7,0.55 0.85,3.25 v 0.65 0.1 0.25 6.5 l -0.05,0.95 0.2,0.5 -0.15,0.9 q -0.25,0.45 -1.25,0.7 H 75.5 l 0.05,0.4 h 0.15 v 1.45 l 0.05,4.1 v 1.1 q 0,2.1 -1.25,2.1 L 74.1,32.95 72.3,33 h -2.65 l 0.05,0.45 h 0.1 v 0.1 0.4 0.5 0.35 0.65 h -0.15 l -0.2,0.6 -0.4,0.7 -0.4,0.5 -0.35,-0.15 h -0.7 -5.85 q -0.6,-0.05 -0.95,-0.55 l -0.2,-0.7 -0.15,-0.4 H 60.2 v -0.8 -0.2 -0.1 -0.15 -0.65 -0.1 h 0.15 L 60.4,33 -17.7,32.85 -20.5,32.8 -60.4,33 l 0.1,0.45 h 0.1 v 0.1 0.55 0.25 0.1 0.2 0.8 h -0.2 l -0.2,0.4 -0.2,0.7 q -0.35,0.5 -0.95,0.55 h -5.85 -0.7 l -0.35,0.15 -0.4,-0.5 -0.4,-0.7 -0.15,-0.6 h -0.2 v -0.65 -0.35 -0.5 -0.4 -0.1 h 0.1 L -69.65,33 h -2.65 l -1.8,-0.05 -0.4,0.05 q -1.25,0 -1.25,-2.1 l 0.05,-1.85 0.05,-3.35 v -1.45 h 0.1 l 0.05,-0.4 h -2.75 l -0.4,-0.1 -0.85,-0.6 -0.15,-0.9 0.2,-0.5 V 20.8 l -0.05,-6.5 v -0.25 -0.1 -0.65 h 0.05 q 0.1,-2.65 0.8,-3.2 l 0.05,-0.05 h 0.05 q 0.2,-0.15 0.35,-0.15 0.15,0 0.35,0.15 h 6.6 l -0.05,-0.1 -0.1,-0.2 q -1.25,-3.2 -1.25,-4.85 0,-7.05 1.25,-11.65 1.1,-4.25 3.1,-5.15 H 68.3 q 2,0.9 3.1,5.15 M 76.95,13.3 77,12.4 H 68.55 L 67.6,12.55 66.8,12.5 66.55,12.45 66.5,12.5 66.45,12.45 66.25,12.4 h -132.5 l -0.2,0.05 -0.05,0.05 -0.05,-0.05 -1.05,0.1 -0.95,-0.15 H -77 l 0.05,0.7 v 0.2 0.25 0.5 0.25 6.5 0.15 l 54.7,0.05 h 10.15 1 10.6 22.8 L 76.95,20.95 V 20.8 14.3 14.05 13.65 13.3 M 72.4,24.25 h 0.05 l 0.05,-0.4 -91.95,-0.05 h -1.4 l -51.65,0.05 0.1,0.4 v 0.6 0.45 0.25 0.15 3.35 0.75 h -0.1 v 0.15 h 0.2 l 89.7,0.15 h 3 l 51.9,-0.15 h 0.2 V 29.8 h -0.05 v -0.45 -0.3 L 72.4,25.7 V 25.2 24.25 M 67.75,33 H 62.4 l 0.1,0.45 h 0.1 v 0.1 0.6 l -0.05,0.3 -0.05,0.25 h 5.1 v -0.35 -0.1 -0.7 -0.1 h 0.1 L 67.75,33 M -62.4,33 h -5.35 l 0.05,0.45 h 0.1 v 0.1 0.7 0.1 0.35 h 5.1 l -0.05,-0.25 -0.05,-0.3 v -0.6 -0.1 h 0.15 L -62.4,33"
         fill="#6b6b6b"
         fill-rule="evenodd"
         stroke="none"
         id="path12" />
      <path
         d="m -68.3,6.9 0.2,-0.15 q 0.7,-0.3 0.8,-0.75 -0.2,-1.85 0.1,-4.65 L -67.15,0.6 -67,-0.7 -67.15,8.6 -68.3,6.9 m 1.4,-8.9 0.15,-2.4 h 0.4 l -0.05,2.3 -0.5,0.1 m 1.15,8.9 0.4,2 0.3,1.15 h -0.7 V 9.75 9.05 6.9 m 1.3,3.15 v -7.7 l 0.2,-0.65 q 0.55,-2.2 0.7,-4.15 0.05,-1.1 -0.05,-1.95 l 125.2,0.15 3.4,0.3 -0.4,6.4 q -0.1,2.95 0.25,5.15 0.2,1.35 0.55,2.45 H -64.45 M 66.7,-2 66.55,-4.15 67,-4.2 q 0.9,2.1 1.05,3.35 L 68.1,3 q 0.15,1.65 1.05,2.4 L 68.35,6.75 67.15,8.6 67,-2 h -0.3 m 1.05,35 -0.05,0.45 h -0.1 v 0.1 0.7 0.1 0.35 h -5.1 l 0.05,-0.25 0.05,-0.3 v -0.6 -0.1 H 62.5 L 62.4,33 h 5.35"
         fill="#7b7b7b"
         fill-rule="evenodd"
         stroke="none"
         id="path13" />
      <path
         d="M -76.95,13.3 V 13.1 L -77,12.4 h 8.45 l 0.95,0.15 1.05,-0.1 0.05,0.05 0.05,-0.05 0.2,-0.05 h 132.5 l 0.2,0.05 0.05,0.05 0.05,-0.05 0.25,0.05 0.8,0.05 0.95,-0.15 H 77 l -0.05,0.9 h -153.9"
         fill="#747474"
         fill-rule="evenodd"
         stroke="none"
         id="path14" />
      <path
         d="m -76.95,13.3 h 153.9 v 0.35 0.4 0.25 6.5 0.15 L 22.3,21 h -22.8 -10.6 -1 -10.15 l -54.7,-0.05 V 20.8 14.3 14.05 13.55 13.3 m 4.55,10.95 H 72.4 v 0.95 0.5 l 0.05,3.35 v 0.3 0.45 h 0.05 v 0.15 H 72.3 L 20.4,30.1 h -3 l -89.7,-0.15 h -0.2 V 29.8 h 0.1 V 29.05 25.7 25.55 25.3 24.85 24.25 m 10,8.75 -0.05,0.45 h -0.15 v 0.1 0.6 l 0.05,0.3 0.05,0.25 h -5.1 v -0.35 -0.1 -0.7 -0.1 h -0.1 L -67.75,33 h 5.35"
         fill="#727272"
         fill-rule="evenodd"
         stroke="none"
         id="path15" />
      <path
         d="m -72.4,24.25 -0.1,-0.4 51.65,-0.05 h 1.4 l 91.95,0.05 -0.05,0.4 H 72.4 -72.4"
         fill="#6d6d6d"
         fill-rule="evenodd"
         stroke="none"
         id="path16" />
    </g>
  </defs>
</svg>
