<?xml version="1.0" encoding="UTF-8" standalone="no"?>
<svg
   ffdec:objectType="frame"
   height="32.349998"
   width="60.099998"
   version="1.1"
   id="svg6"
   sodipodi:docname="1.svg"
   xmlns:inkscape="http://www.inkscape.org/namespaces/inkscape"
   xmlns:sodipodi="http://sodipodi.sourceforge.net/DTD/sodipodi-0.dtd"
   xmlns:xlink="http://www.w3.org/1999/xlink"
   xmlns="http://www.w3.org/2000/svg"
   xmlns:svg="http://www.w3.org/2000/svg"
   xmlns:ffdec="https://www.free-decompiler.com/flash">
  <sodipodi:namedview
     id="namedview6"
     pagecolor="#ffffff"
     bordercolor="#000000"
     borderopacity="0.25"
     inkscape:showpageshadow="2"
     inkscape:pageopacity="0.0"
     inkscape:pagecheckerboard="0"
     inkscape:deskcolor="#d1d1d1"
     fit-margin-top="5"
     fit-margin-left="5"
     fit-margin-right="5"
     fit-margin-bottom="5" />
  <g
     transform="translate(30.05,14.4)"
     id="g1">
    <use
       ffdec:characterId="2262"
       height="32.349998"
       transform="translate(-30.05,-14.4)"
       width="60.099998"
       xlink:href="#shape0"
       id="use1" />
  </g>
  <defs
     id="defs6">
    <g
       id="shape0"
       transform="translate(30.05,14.4)">
      <path
         d="m 6.35,-3.45 -25,0.1 0.2,1.65 0.15,9.4 -0.1,0.65 H 5.85 L 6.25,8.4 6.2,7.35 6.3,5.5 V -3.2 L 6.35,-3.45 M 7.05,-3.9 7,-3.6 6.85,-3.45 7.05,-2.1 V 7.35 L 7,8.85 7.05,8.95 6.9,9.3 6.8,9.4 H 6.6 6.45 -19.3 l 0.1,-7.3 v -4.4 l -0.05,-1.4 -0.05,-0.4 0.2,-0.2 0.15,-0.05 0.1,-0.05 25.3,0.05 0.6,0.45 m 20.2,-6.45 V -11.4 H 16.1 l 0.05,0.55 0.05,0.85 v 0.4 10.95 7.8 1.55 h 0.75 l 10.3,0.05 v -21.1 m -9.85,2.25 0.45,0.15 0.35,-0.2 h 7.6 l 0.05,-0.1 0.1,0.15 0.2,0.1 0.1,0.3 -0.05,0.2 -0.05,0.05 0.15,1 -0.05,1.35 v 1.3 l 0.05,0.15 v 9.3 l 0.1,1.6 -0.1,1.85 -0.1,0.05 0.05,0.1 -0.55,0.6 H 18.5 L 17.95,9.75 17.75,9.9 17.7,9.75 17.55,9.7 Q 17.4,9.6 17.4,9.25 L 17.5,9 Q 17.25,7.7 17.25,5.55 V -7.25 L 17.4,-8.1 M 15.05,-10 v -1.4 h -42.3 v 26.15 0.5 h 0.15 v 0.2 h 7.15 V 15.3 15.25 h 1.5 v 0.1 0.1 h 1.35 l -0.15,-0.2 h 4.3 v 0.2 h 4.8 v -0.2 h 1.05 l 0.1,0.15 -0.1,0.05 h 0.3 l 0.15,-0.2 h 1.8 v 0.05 0.15 h 9.7 V 15.3 15.25 h 1.8 l 0.15,0.2 H 7.1 L 7,15.4 7.1,15.25 h 1.05 v 0.2 h 4.8 v -0.2 h 2.2 l -0.1,-0.5 V 13.4 h -0.1 l -37.3,-0.1 q -0.55,-0.35 -0.55,-0.5 l 0.15,-0.25 -0.15,-1.15 V 10.5 10.15 9.95 L -22.8,6.7 V -8.25 l 0.25,0.05 0.35,-0.1 h 9 l 3.65,-0.1 24.6,0.1 V -10 m 3.7,8.95 q 0,-0.75 0.85,-0.85 0.85,-0.05 0.85,0.8 l -0.2,0.55 Q 20,-0.2 19.65,-0.2 19.1,-0.2 18.9,-0.6 l -0.15,-0.45 m -0.45,-2.7 h 7.1 v -2.8 l 0.1,-0.8 -7.2,0.1 v 3.5 m 10.95,-10.65 0.3,0.1 h 0.1 v 0.05 l 0.4,0.35 v 1.05 1.7 26.4 1.2 0.55 l -0.4,0.6 v 0.3 H 29.1 l -0.35,0.05 H 28.6 28.45 l -0.4,-0.05 h -56.1 l -0.4,0.05 h -0.15 -0.15 L -29.1,17.9 h -0.55 v -0.3 l -0.4,-0.6 v -0.55 -1.2 -26.4 -1.7 -1.05 l 0.4,-0.35 v -0.05 h 0.1 l 0.3,-0.1 0.05,0.05 0.25,0.05 0.2,-0.05 h 0.15 0.15 l 0.4,0.05 h 56.1 l 0.4,-0.05 h 0.15 0.15 l 0.25,0.05 0.2,-0.05 0.05,-0.05 M 22.5,-0.55 q -0.25,0.35 -0.6,0.35 -0.55,0 -0.75,-0.4 L 21,-1.05 q 0,-0.75 0.85,-0.85 0.85,-0.05 0.85,0.8 l -0.2,0.55 m 0.9,-0.05 -0.15,-0.45 q 0,-0.75 0.85,-0.85 0.85,-0.05 0.85,0.8 l -0.2,0.55 -0.6,0.35 q -0.55,0 -0.75,-0.4 M 18.3,-3 V 5.6 L 18.45,7.95 18.4,8.8 h 0.1 6.85 V -2.9 L 18.3,-3 m 5.8,3.5 q 0.85,-0.05 0.85,0.8 l -0.2,0.55 -0.6,0.35 Q 23.6,2.2 23.4,1.8 L 23.25,1.35 Q 23.25,0.6 24.1,0.5 M 22.7,1.3 22.5,1.85 Q 22.25,2.2 21.9,2.2 21.35,2.2 21.15,1.8 L 21,1.35 Q 21,0.6 21.85,0.5 22.7,0.45 22.7,1.3 M 19.6,0.5 q 0.85,-0.05 0.85,0.8 l -0.2,0.55 Q 20,2.2 19.65,2.2 19.1,2.2 18.9,1.8 L 18.75,1.35 Q 18.75,0.6 19.6,0.5 M 21,6.15 Q 21,5.4 21.85,5.3 22.7,5.25 22.7,6.1 L 22.5,6.65 Q 22.25,7 21.9,7 21.35,7 21.15,6.6 L 21,6.15 M 21,3.6 Q 21,2.85 21.85,2.75 22.7,2.7 22.7,3.55 L 22.5,4.1 q -0.25,0.35 -0.6,0.35 -0.55,0 -0.75,-0.4 L 21,3.6 M 20.25,4.1 Q 20,4.45 19.65,4.45 19.1,4.45 18.9,4.05 L 18.75,3.6 q 0,-0.75 0.85,-0.85 0.85,-0.05 0.85,0.8 l -0.2,0.55 m 3.9,0.35 q -0.55,0 -0.75,-0.4 L 23.25,3.6 q 0,-0.75 0.85,-0.85 0.85,-0.05 0.85,0.8 l -0.2,0.55 -0.6,0.35 m 3.1,7.05 V 11.45 H 27.2 l -11,0.15 v 3.2 0.45 h 1.05 l -0.15,0.2 h 1.35 v -0.1 -0.1 h 1.5 v 0.05 0.15 h 7.15 v -0.2 h 0.15 V 12.3 11.5 m -12.2,0.75 V 9.1 6.55 -7.4 H -21.9 v 19.75 h 36 l 0.95,-0.1 m -12.4,3 -0.1,0.05 H 1.15 L 1,15.25 h 1.65 m 11.25,0.2 h 0.05 L 13.9,15.4 v 0.05 m -32.95,-21.5 0.2,-0.4 H -6.2 l 0.2,0.4 -0.25,0.35 -0.95,0.25 -11.4,-0.1 -0.45,-0.5 m 5.15,21.5 0.05,-0.05 -0.1,0.05 h 0.05"
         fill="#6b6b6b"
         fill-rule="evenodd"
         stroke="none"
         id="path1" />
      <path
         d="M 16.95,10.7 H 16.2 V 9.15 1.35 -9.6 -10 l -0.05,-0.85 -0.05,-0.55 h 11.15 v 1.05 l -0.35,0.1 -4.85,0.2 -5.3,0.05 0.05,0.4 v 1.05 h 0.05 v 0.6 9.1 l 0.1,7.45 v 2.1 m -44.2,4.05 V -11.4 h 42.3 v 1.4 l -41.5,0.2 0.05,0.2 0.05,1.05 h 0.05 l 0.05,1.05 0.05,1.05 h 0.05 l 0.1,5.9 -0.05,9.4 v 1.3 l -0.05,0.35 -0.2,3.2 -0.15,1.05 h -0.15 l -0.1,0.5 h -0.3 l -0.05,-0.5 h -0.15 m 54.5,-3.25 v 0.8 l -0.4,0.2 H 18.5 16.9 v 2.25 h -0.05 v 0.15 l -0.5,0.15 -0.15,-0.25 v -3.2 l 11,-0.15 0.05,0.05"
         fill="#cccccc"
         fill-rule="evenodd"
         stroke="none"
         id="path2" />
      <path
         d="m 7.05,-3.9 -0.6,-0.45 -25.3,-0.05 -0.1,0.05 -0.15,0.05 -0.2,0.2 0.05,0.4 0.05,1.4 v 4.4 l -0.1,7.3 H 6.45 6.6 6.8 L 6.9,9.3 7.05,8.95 7,8.85 7.05,7.35 V -2.1 L 6.85,-3.45 7,-3.6 7.05,-3.9 m 11.25,0.15 v -3.5 l 7.2,-0.1 -0.1,0.8 v 2.8 h -7.1 m 0.45,2.7 0.15,0.45 q 0.2,0.4 0.75,0.4 0.35,0 0.6,-0.35 l 0.2,-0.55 q 0,-0.85 -0.85,-0.8 -0.85,0.1 -0.85,0.85 m 5.4,5.5 0.6,-0.35 0.2,-0.55 q 0,-0.85 -0.85,-0.8 -0.85,0.1 -0.85,0.85 l 0.15,0.45 q 0.2,0.4 0.75,0.4 m -3.9,-0.35 0.2,-0.55 q 0,-0.85 -0.85,-0.8 -0.85,0.1 -0.85,0.85 l 0.15,0.45 q 0.2,0.4 0.75,0.4 0.35,0 0.6,-0.35 M 21,3.6 21.15,4.05 q 0.2,0.4 0.75,0.4 0.35,0 0.6,-0.35 L 22.7,3.55 Q 22.7,2.7 21.85,2.75 21,2.85 21,3.6 m 0,2.55 0.15,0.45 Q 21.35,7 21.9,7 22.25,7 22.5,6.65 L 22.7,6.1 Q 22.7,5.25 21.85,5.3 21,5.4 21,6.15 M 19.6,0.5 Q 18.75,0.6 18.75,1.35 L 18.9,1.8 q 0.2,0.4 0.75,0.4 0.35,0 0.6,-0.35 l 0.2,-0.55 q 0,-0.85 -0.85,-0.8 m 3.1,0.8 Q 22.7,0.45 21.85,0.5 21,0.6 21,1.35 l 0.15,0.45 q 0.2,0.4 0.75,0.4 0.35,0 0.6,-0.35 L 22.7,1.3 M 24.1,0.5 Q 23.25,0.6 23.25,1.35 L 23.4,1.8 q 0.2,0.4 0.75,0.4 l 0.6,-0.35 0.2,-0.55 q 0,-0.85 -0.85,-0.8 M 18.3,-3 25.35,-2.9 V 8.8 H 18.5 18.4 L 18.45,7.95 18.3,5.6 V -3 m 5.1,2.4 q 0.2,0.4 0.75,0.4 l 0.6,-0.35 0.2,-0.55 q 0,-0.85 -0.85,-0.8 -0.85,0.1 -0.85,0.85 l 0.15,0.45 m -0.9,0.05 0.2,-0.55 q 0,-0.85 -0.85,-0.8 Q 21,-1.8 21,-1.05 l 0.15,0.45 q 0.2,0.4 0.75,0.4 0.35,0 0.6,-0.35 m -7.45,12.8 -0.95,0.1 h -36 V -7.4 H 15.05 V 6.55 9.1 12.25 m -34.1,-18.3 0.45,0.5 11.4,0.1 0.95,-0.25 0.25,-0.35 -0.2,-0.4 h -12.65 l -0.2,0.4"
         fill="#747474"
         fill-rule="evenodd"
         stroke="none"
         id="path3" />
      <path
         d="m 27.25,-10.35 v 21.1 L 16.95,10.7 V 8.6 l -0.1,-7.45 v -9.1 -0.6 H 16.8 V -9.6 l -0.05,-0.4 5.3,-0.05 4.85,-0.2 0.35,-0.1 m -9.85,2.25 -0.15,0.85 v 12.8 q 0,2.15 0.25,3.45 l -0.1,0.25 q 0,0.35 0.15,0.45 l 0.15,0.05 0.05,0.15 0.2,-0.15 0.55,0.1 h 7.2 L 26.25,9.25 26.2,9.15 26.3,9.1 26.4,7.25 26.3,5.65 v -9.3 L 26.25,-3.8 v -1.3 l 0.05,-1.35 -0.15,-1 0.05,-0.05 0.05,-0.2 -0.1,-0.3 -0.2,-0.1 -0.1,-0.15 -0.05,0.1 h -7.6 l -0.35,0.2 -0.45,-0.15 m -44.15,23.35 0.1,-0.5 h 0.15 l 0.15,-1.05 0.2,-3.2 0.05,-0.35 v -1.3 l 0.05,-9.4 -0.1,-5.9 h -0.05 l -0.05,-1.05 -0.05,-1.05 h -0.05 l -0.05,-1.05 -0.05,-0.2 41.5,-0.2 v 1.7 l -24.6,-0.1 -3.65,0.1 h -9 l -0.35,0.1 -0.25,-0.05 V 6.7 l -0.1,3.25 v 0.2 0.35 0.9 l 0.15,1.15 -0.15,0.25 q 0,0.15 0.55,0.5 l 37.3,0.1 h 0.1 v 1.35 l 0.1,0.5 H 12.95 8.15 7.1 6.65 4.85 2.65 1 h -5.85 -1.8 -0.45 -1.05 -4.8 -4.3 -1.2 -1.5 -6.8 m 54,-2.95 v 2.95 H 27.1 19.95 18.45 17.25 16.2 V 14.8 l 0.15,0.25 0.5,-0.15 V 14.75 H 16.9 V 12.5 h 1.6 8.35 l 0.4,-0.2"
         fill="#b4b4b4"
         fill-rule="evenodd"
         stroke="none"
         id="path4" />
      <path
         d="m -27.05,15.25 h 0.3 6.8 v 0.05 0.15 h -7.15 v -0.2 h 0.05 m 40,0 v 0.2 h -4.8 v -0.2 h 4.8 M 7.1,15.25 7,15.4 7.1,15.45 H 6.8 L 6.65,15.25 H 7.1 m -2.25,0 v 0.05 0.15 h -9.7 V 15.3 15.25 H 1 l 0.15,0.05 h 1.4 l 0.1,-0.05 h 2.2 m -11.5,0 -0.15,0.2 H -7.1 L -7,15.4 -7.1,15.25 h 0.45 m -1.5,0 v 0.2 h -4.8 v -0.2 h 4.8 m -9.1,0 0.15,0.2 h -1.35 v -0.1 -0.1 h 1.2 m 44.35,0 v 0.2 H 19.95 V 15.3 15.25 h 7.15 m -8.65,0 v 0.1 0.1 H 17.1 l 0.15,-0.2 h 1.2 m -4.55,0.2 V 15.4 l 0.05,0.05 H 13.9 m -27.8,0 h -0.05 l 0.1,-0.05 -0.05,0.05"
         fill="#797979"
         fill-rule="evenodd"
         stroke="none"
         id="path5" />
      <path
         d="M 6.35,-3.45 6.3,-3.2 V 5.5 L 6.2,7.35 6.25,8.4 5.85,8.35 H -18.4 l 0.1,-0.65 -0.15,-9.4 -0.2,-1.65 25,-0.1"
         fill="#646464"
         fill-rule="evenodd"
         stroke="none"
         id="path6" />
    </g>
  </defs>
</svg>
