<?xml version="1.0" encoding="UTF-8" standalone="no"?>
<svg
   ffdec:objectType="frame"
   height="63.328125"
   width="138.60001"
   version="1.1"
   id="svg11"
   sodipodi:docname="2.svg"
   xmlns:inkscape="http://www.inkscape.org/namespaces/inkscape"
   xmlns:sodipodi="http://sodipodi.sourceforge.net/DTD/sodipodi-0.dtd"
   xmlns:xlink="http://www.w3.org/1999/xlink"
   xmlns="http://www.w3.org/2000/svg"
   xmlns:svg="http://www.w3.org/2000/svg"
   xmlns:ffdec="https://www.free-decompiler.com/flash">
  <sodipodi:namedview
     id="namedview11"
     pagecolor="#ffffff"
     bordercolor="#000000"
     borderopacity="0.25"
     inkscape:showpageshadow="2"
     inkscape:pageopacity="0.0"
     inkscape:pagecheckerboard="0"
     inkscape:deskcolor="#d1d1d1"
     fit-margin-top="5"
     fit-margin-left="5"
     fit-margin-right="5"
     fit-margin-bottom="5" />
  <g
     transform="translate(69.3,31.628125)"
     id="g3">
    <use
       ffdec:characterId="1249"
       height="20.950001"
       transform="matrix(-1,0,0,1,61.5,-12.6)"
       width="96.5"
       xlink:href="#sprite0"
       id="use1" />
    <use
       ffdec:characterId="1251"
       height="63.349998"
       transform="translate(-69.3,-31.65)"
       width="138.60001"
       xlink:href="#shape1"
       id="use2" />
    <use
       ffdec:characterId="69"
       height="1.5"
       id="subplatform1"
       transform="matrix(-0.102,0,-0.1586,0.86,68.058,-29.58)"
       width="1320.3"
       xlink:href="#sprite1" />
    <use
       ffdec:characterId="44"
       height="8"
       transform="matrix(0.7071,0.7071,-0.7071,0.7071,-58.3399,7.8033)"
       width="10.8"
       xlink:href="#sprite2"
       id="use3" />
  </g>
  <defs
     id="defs11">
    <g
       id="sprite0"
       transform="translate(48.25,11.45)">
      <use
         ffdec:characterId="1248"
         height="20.950001"
         transform="translate(-48.25,-11.45)"
         width="96.5"
         xlink:href="#shape0"
         id="use4" />
    </g>
    <g
       id="shape0"
       transform="translate(48.25,11.45)">
      <path
         d="m 42.5,-7.3 -2.1,0.05 -72.15,-0.2 -13.2,-0.6 q 0.45,1.85 0.8,6.05 H 42.5 v -5.3 m 5.75,-2.1 q 0,1 -0.95,1.4 l -0.25,0.1 V 3.8 l 0.15,2.85 v 0.1 l 0.25,0.3 0.45,0.9 -0.45,1 L 47.2,9.2 V 9.25 L 47.15,9.5 H -47.7 l -0.15,-0.35 -0.15,-1.1 0.2,-7.3 q -0.45,-0.3 -0.45,-1.05 0,-0.6 0.6,-1 v -0.25 q 0.35,-4.95 0.95,-6.8 l -0.85,-0.2 q 0.65,-0.45 0.65,-1.05 -0.05,-0.55 0.45,-0.75 l 14.7,-0.9 72.15,-0.2 3.6,0.25 0.95,-0.15 q 0.75,0.05 1.25,0.5 l 1.25,0.35 q 0.8,0.3 0.8,1.1 M 42.5,1.45 H -43.95 L -43.8,6.5 -28.45,5.95 42.4,6.15 42.5,3.5 V 1.45"
         fill="#9a9a9a"
         fill-rule="evenodd"
         stroke="none"
         id="path4" />
      <path
         d="M 42.5,-7.3 V -2 h -86.65 q -0.35,-4.2 -0.8,-6.05 l 13.2,0.6 72.15,0.2 2.1,-0.05 m 0,8.75 V 3.5 L 42.4,6.15 -28.45,5.95 -43.8,6.5 -43.95,1.45 H 42.5"
         fill="#a1a1a1"
         fill-rule="evenodd"
         stroke="none"
         id="path5" />
    </g>
    <g
       id="shape1"
       transform="translate(69.3,31.65)">
      <path
         d="M 11.8,-21 H 11.35 -0.7 -38.55 l 0.1,0.8 h 0.1 l 0.05,1.9 h 9.15 l 0.15,0.1 0.75,0.4 0.4,0.55 h 0.2 v 1.5 H 27.3 l 0.4,0.15 v -1.65 h 0.15 l 0.4,-0.55 q 0.55,-0.5 1.2,-0.5 h 9.2 v -0.15 l 0.05,-1.75 h 0.1 L 38.9,-21 H 11.8 m 54.1,8.6 v -0.65 -0.65 l 0.05,-0.65 -1.35,-0.1 H 60.05 54 32.35 l -1.85,0.05 -0.05,0.2 -0.3,1.2 v 2.05 h 0.1 V -11.1 H 47.8 v 0.15 h 11.6 l 0.15,0.1 0.75,0.4 0.4,0.55 h 0.2 v 33.6 h 3.7 1.35 L 65.9,22.3 65.95,16.4 66.2,3.6 h 0.05 V -0.25 Q 65.9,-5.1 65.9,-12.4 m -38.2,1.3 -0.4,0.1 h -54.95 v 37.75 l -0.45,0.2 h -2.65 v 4.75 h -35.6 v -4.75 h -2.5 l -0.45,-0.2 v -44 h 0.2 l 0.4,-0.55 1.2,-0.5 h 11.65 l -0.05,-0.5 v -0.5 -0.3 -0.6 l 0.1,-0.8 h -0.5 l -0.35,0.25 -0.3,-0.25 h -10.2 l -0.25,-0.15 -0.05,0.05 -0.15,-0.2 q -1.2,-0.75 -1.2,-1.4 l 0.2,-0.95 -0.05,-0.1 v -0.2 l -0.25,-2.2 v -4.25 l 0.45,-0.85 q 0.5,-0.55 1.45,-0.3 H 67.35 q 0.95,-0.25 1.45,0.3 l 0.45,0.85 v 4.25 l -0.25,2.2 v 0.2 l -0.05,0.1 0.2,0.95 q 0,0.65 -1.2,1.4 L 67.8,-21.1 67.75,-21.15 67.5,-21 H 57.3 L 57,-20.75 56.65,-21 h -0.5 l 0.05,0.8 h 0.05 v 0.6 0.3 0.5 H 56.2 v 0.35 0.15 h 11.6 l 0.15,0.1 0.75,0.4 0.4,0.55 h 0.2 v 44 l -0.45,0.2 h -1.6 V 31.7 H 59.6 v -4.75 h -2.1 l 0.05,-3.2 0.25,-12.8 h 0.05 V 7.1 Q 57.5,2.05 57.5,-5.7 L 57.55,-7 56.2,-7.1 H 51.65 45.6 27.7 v -4 m 37.65,-15.6 0.2,-1.55 H -65.2 l 0.2,2.2 v 0.55 1.25 H 65.35 v -1.25 -1.2 m -12.85,6.5 0.05,-0.8 h -10.7 l 0.1,0.8 h 0.1 l 0.05,1.55 h 10.3 v 0.1 h 0.05 v -0.25 -0.25 -1 -0.15 h 0.05 m -83.55,7.5 v -0.35 l 0.05,-1.3 -1.35,-0.1 h -4.55 -6.05 -21.65 l -1.85,0.05 -0.35,1.45 v 0.65 34.5 q 0.3,0.8 0.35,1.5 h 1.85 21.65 6.15 4.45 1.35 l -0.05,-1.4 0.05,-5.9 0.25,-12.8 h 0.05 v -3.85 q -0.35,-4.95 -0.35,-12.45 m -27.8,0.45 h 1.3 8.6 4.65 l 1.55,-0.05 q 3.85,-0.2 6.05,0.05 l 1.4,0.15 0.5,-0.2 q 0.45,0.05 0.7,0.6 0.45,0.25 0.45,0.75 l -0.1,0.45 q 0.25,1.15 0.25,3 l -0.05,2.15 h -0.05 v 0.9 l -0.05,1 q -0.05,1.3 -0.25,2.15 l 0.05,0.25 q 0,0.45 -0.4,0.85 l -0.55,0.4 h -0.1 l -0.35,0.15 -19.95,0.1 -7.45,-0.2 q -0.2,0.25 -0.5,0.2 l -0.7,-0.6 Q -64.3,-0.4 -64.3,-0.9 l 0.1,-0.45 -0.25,-2.1 V -5 v -1.1 -1 h 0.05 l 0.05,-0.95 0.3,-2.45 -0.05,-0.3 q 0,-0.45 0.4,-0.85 l 0.55,-0.4 h 0.05 l 0.4,-0.15 3.85,-0.05 m 22.8,4.6 V -7.7 L -36,-9.2 v -0.2 h -8.8 l -0.15,-0.2 -0.35,0.2 -16.8,-0.1 0.1,1.05 0.05,1.35 h 0.05 v 0.05 0.15 0.8 0.35 0.4 0.35 1.55 l -0.05,1 26.1,0.1 -0.1,-1.05 V -3.45 L -36,-5 h -0.05 V -5.35 -6.9 -7.1 -7.5 -7.65 m -16.35,0.7 V -7.5 l 0.15,-0.1 -0.05,-0.25 q 0.55,-0.8 1.9,-0.8 l 4.4,0.4 0.15,0.05 v 1.2 2.75 l 0.45,0.2 q -0.3,0.6 -0.65,0.6 h -0.15 q 0,0.15 -0.05,0 l -0.15,0.05 h -0.05 l -4.85,0.2 q -0.4,0 -0.9,-0.75 L -52.4,-4 v -2.95 m 10.65,-11.7 v -1.55 h 0.1 l 0.15,-0.8 h -10.7 l 0.05,0.8 h 0.05 v 0.15 1 0.25 0.15 h 10.35 m -5.4,12 -3.2,-0.2 q -0.05,0.7 -0.25,1.45 l -0.1,0.4 3.35,0.15 0.2,-1.4 v -0.4 M -61.9,7.6 v 0.3 0.7 0.45 4 2.8 2 l -0.05,1.1 26.1,0.1 -0.1,-1.15 v -0.05 l -0.05,-2 -0.05,-6.8 V 8.6 7.9 7.3 7.2 6.95 L -36,5.15 -62,5 h -0.1 v 0.1 l 0.1,1.1 0.05,0.75 h 0.05 V 7.3 7.6 m 26.6,-5.45 q 0.2,-0.25 0.5,-0.2 0.45,0.05 0.7,0.65 0.45,0.3 0.45,0.85 l -0.1,0.45 q 0.25,1.3 0.25,3.3 l -0.05,1.85 h -0.05 v 7.7 l -0.05,1.1 q -0.05,1.4 -0.25,2.35 l 0.05,0.25 q 0,0.5 -0.4,0.95 -0.25,0.45 -0.55,0.45 h -0.1 l -0.35,0.15 -19.95,0.1 -7.45,-0.2 q -0.2,0.3 -0.5,0.2 l -0.7,-0.65 q -0.45,-0.25 -0.45,-0.8 l 0.1,-0.5 -0.25,-2.3 v -2 -2.8 -6.1 h 0.05 l 0.05,-0.35 0.3,-2.7 -0.05,-0.3 q 0,-0.5 0.4,-0.95 l 0.55,-0.45 h 0.05 l 0.4,-0.15 19.95,-0.1 7.45,0.2 m -10.55,5.75 0.25,4.1 -0.45,0.3 h -0.15 -0.05 l -0.15,0.05 h -0.05 l -4.85,0.2 -0.9,-0.75 -0.2,-0.05 v -3.5 l 0.15,-0.1 -0.05,-0.25 q 0.55,-0.8 1.9,-0.8 l 4.4,0.4 0.15,0.05 V 7.9 m -1.5,3 0.2,-1.4 V 9.1 l -3.2,-0.2 -0.25,1.45 -0.1,0.4 3.35,0.15"
         fill="#6b6b6b"
         fill-rule="evenodd"
         stroke="none"
         id="path6" />
      <path
         d="m 30.15,-13 0.3,-1.2 0.05,-0.2 1.85,-0.05 H 54 60.05 64.6 l 1.35,0.1 -0.05,0.65 v 0.65 0.65 H 65.4 41.8 L 30.55,-12.95 30.15,-13 M -65,-26.05 l -0.2,-2.2 H 65.55 l -0.2,1.55 -49.3,0.5 -81.05,0.15 m -1.8,13.75 v -0.65 l 0.35,-1.45 1.85,-0.05 h 21.65 6.05 4.55 l 1.35,0.1 -0.05,1.3 v 0.35 l -0.2,0.05 -5.45,0.4 q -2.2,-0.25 -6.05,-0.05 l -1.55,0.05 h -4.65 -8.6 -1.3 l -7.95,-0.05 m 4.9,5.25 V -7.1 h -0.05 l -0.05,-1.35 -0.1,-1.05 16.8,0.1 0.35,-0.2 0.15,0.2 h 8.8 v 0.2 l -0.05,1.5 v 0.05 h -0.05 l -0.85,0.6 -8.9,0.05 v -1.2 l -0.15,-0.05 -4.4,-0.4 q -1.35,0 -1.9,0.8 l 0.05,0.25 -0.15,0.1 v 0.55 h -9.25 l -0.25,-0.1 m 14.75,0.4 v 0.4 l -0.2,1.4 -3.35,-0.15 0.1,-0.4 q 0.2,-0.75 0.25,-1.45 l 3.2,0.2 M -61.9,7.6 V 7.3 6.95 h -0.05 L -62,6.2 -62.1,5.1 -62,5 l 26,0.15 -0.05,1.8 V 7.2 7.3 l -7.75,0.6 h -2.05 V 7.55 L -46,7.5 -50.4,7.1 q -1.35,0 -1.9,0.8 h -8.25 L -61.9,7.6 m 14.55,3.3 -3.35,-0.15 0.1,-0.4 0.25,-1.45 3.2,0.2 v 0.4 l -0.2,1.4"
         fill="#ffffff"
         fill-rule="evenodd"
         stroke="none"
         id="path7" />
      <path
         d="m 65.9,-12.4 q 0,7.3 0.35,12.15 V 3.6 H 66.2 l -0.25,12.8 -0.05,5.9 0.05,1.4 H 64.6 60.9 V -9.9 h -0.2 l -0.4,-0.55 -0.75,-0.4 -0.15,-0.1 H 47.8 V -11.1 H 30.25 v 0.15 h -0.1 V -13 l 0.4,0.05 11.25,0.55 h 23.6 0.5 m -0.55,-14.3 v 1.2 1.25 H -65 v -1.25 -0.55 l 81.05,-0.15 49.3,-0.5 m -96.4,14 q 0,7.5 0.35,12.45 V 3.6 h -0.05 l -0.25,12.8 -0.05,5.9 0.05,1.4 h -1.35 -4.45 -6.15 -21.65 -1.85 Q -66.5,23 -66.8,22.2 v -34.5 l 7.95,0.05 -3.85,0.05 -0.4,0.15 h -0.05 l -0.55,0.4 q -0.4,0.4 -0.4,0.85 l 0.05,0.3 -0.3,2.45 -0.05,0.95 h -0.05 v 1 1.1 1.55 l 0.25,2.1 -0.1,0.45 q 0,0.5 0.45,0.75 l 0.7,0.6 q 0.3,0.05 0.5,-0.2 l 7.45,0.2 19.95,-0.1 0.35,-0.15 h 0.1 l 0.55,-0.4 q 0.4,-0.4 0.4,-0.85 L -33.9,-1.3 q 0.2,-0.85 0.25,-2.15 l 0.05,-1 v -0.9 h 0.05 l 0.05,-2.15 q 0,-1.85 -0.25,-3 l 0.1,-0.45 q 0,-0.5 -0.45,-0.75 -0.25,-0.55 -0.7,-0.6 l -0.5,0.2 -1.4,-0.15 5.45,-0.4 0.2,-0.05 m -30.85,5.65 0.25,0.1 h 9.25 V -4 l 0.2,0.05 q 0.5,0.75 0.9,0.75 l 4.85,-0.2 h 0.05 l 0.15,-0.05 q 0.05,0.15 0.05,0 h 0.15 q 0.35,0 0.65,-0.6 l -0.45,-0.2 V -7 l 8.9,-0.05 0.85,-0.6 h 0.05 v 0.15 0.4 0.2 1.55 V -5 H -36 l 0.05,1.55 v 0.05 l 0.1,1.05 -26.1,-0.1 0.05,-1 V -5 -5.35 -5.75 -6.1 -6.9 -7.05 m 26.6,9.2 -7.45,-0.2 -19.95,0.1 -0.4,0.15 h -0.05 l -0.55,0.45 q -0.4,0.45 -0.4,0.95 l 0.05,0.3 -0.3,2.7 -0.05,0.35 h -0.05 v 6.1 2.8 2 l 0.25,2.3 -0.1,0.5 q 0,0.55 0.45,0.8 l 0.7,0.65 q 0.3,0.1 0.5,-0.2 l 7.45,0.2 19.95,-0.1 0.35,-0.15 h 0.1 q 0.3,0 0.55,-0.45 0.4,-0.45 0.4,-0.95 L -33.9,20.2 q 0.2,-0.95 0.25,-2.35 l 0.05,-1.1 v -7.7 h 0.05 L -33.5,7.2 q 0,-2 -0.25,-3.3 l 0.1,-0.45 q 0,-0.55 -0.45,-0.85 -0.25,-0.6 -0.7,-0.65 -0.3,-0.05 -0.5,0.2 m -0.75,5.15 v 0.6 0.7 0.45 l 0.05,6.8 0.05,2 v 0.05 l 0.1,1.15 -26.1,-0.1 0.05,-1.1 v -2 -2.8 -4 V 8.6 7.9 7.6 l 1.35,0.3 h 8.25 l 0.05,0.25 -0.15,0.1 v 3.5 l 0.2,0.05 0.9,0.75 4.85,-0.2 h 0.05 l 0.15,-0.05 h 0.05 0.15 L -45.6,12 -45.85,7.9 h 2.05 l 7.75,-0.6"
         fill="#cccccc"
         fill-rule="evenodd"
         stroke="none"
         id="path8" />
      <path
         d="m 52.5,-20.2 h -0.05 v 0.15 1 0.25 0.25 H 52.4 v -0.1 H 42.1 l -0.05,-1.55 h -0.1 l -0.1,-0.8 h 10.7 l -0.05,0.8 m -94.25,1.55 H -52.1 v -0.15 -0.25 -1 -0.15 h -0.05 L -52.2,-21 h 10.7 l -0.15,0.8 h -0.1 v 1.55"
         fill="#999999"
         fill-rule="evenodd"
         stroke="none"
         id="path9" />
    </g>
    <g
       id="sprite1"
       transform="translate(660.25,0.5)">
      <use
         ffdec:characterId="68"
         height="1.5"
         transform="translate(-660.25,-0.5)"
         width="1320.3"
         xlink:href="#shape2"
         id="use9" />
    </g>
    <g
       id="shape2"
       transform="translate(660.25,0.5)">
      <path
         d="m 659.3,-0.5 0.55,0.25 0.2,0.5 -0.2,0.55 L 659.3,1 H -659.5 l -0.5,-0.2 -0.25,-0.55 0.25,-0.5 0.5,-0.25 H 659.3"
         fill="#ffff00"
         fill-opacity="0"
         fill-rule="evenodd"
         stroke="none"
         id="path10" />
    </g>
    <g
       id="sprite2"
       transform="translate(5.4,4)">
      <use
         ffdec:characterId="43"
         height="8"
         transform="translate(-5.4,-4)"
         width="10.8"
         xlink:href="#shape3"
         id="use10" />
    </g>
    <g
       id="shape3"
       transform="translate(5.4,4)">
      <path
         d="m 2.9,-0.35 q 0,-1.25 1.25,-1.25 1.25,0 1.25,1.2 0,1.3 -1.25,1.3 Q 3.6,0.9 3.25,0.5 2.9,0.15 2.9,-0.35 m 0.35,-2.3 q 0,0.55 -0.35,0.9 -0.4,0.45 -1,0.45 -1.35,0 -1.35,-1.4 0,-1.3 1.35,-1.3 1.35,0 1.35,1.35 m -3.1,1.9 h 0.2 q 2.6,0.1 2.6,2.8 l -0.3,1 Q 2.05,4 0.45,4 H 0.35 0.15 0.1 -0.45 q -1.6,0 -2.2,-0.95 l -0.3,-1 q 0,-2.8 2.8,-2.8 h 0.3 M -1.55,-4 q 1.35,0 1.35,1.35 0,0.55 -0.4,0.9 -0.4,0.45 -0.95,0.45 -1.4,0 -1.4,-1.4 0,-1.3 1.4,-1.3 m -2.6,2.4 q 1.25,0 1.25,1.25 0,0.5 -0.35,0.85 -0.35,0.4 -0.9,0.4 -1.25,0 -1.25,-1.3 0,-1.2 1.25,-1.2"
         fill="#6b6b6b"
         fill-rule="evenodd"
         stroke="none"
         id="path11" />
    </g>
  </defs>
</svg>
