<?xml version="1.0" encoding="UTF-8" standalone="no"?>
<svg
   ffdec:objectType="frame"
   height="44.599998"
   width="28.85"
   version="1.1"
   id="svg11"
   sodipodi:docname="2.svg"
   xmlns:inkscape="http://www.inkscape.org/namespaces/inkscape"
   xmlns:sodipodi="http://sodipodi.sourceforge.net/DTD/sodipodi-0.dtd"
   xmlns:xlink="http://www.w3.org/1999/xlink"
   xmlns="http://www.w3.org/2000/svg"
   xmlns:svg="http://www.w3.org/2000/svg"
   xmlns:ffdec="https://www.free-decompiler.com/flash">
  <sodipodi:namedview
     id="namedview11"
     pagecolor="#ffffff"
     bordercolor="#000000"
     borderopacity="0.25"
     inkscape:showpageshadow="2"
     inkscape:pageopacity="0.0"
     inkscape:pagecheckerboard="0"
     inkscape:deskcolor="#d1d1d1"
     fit-margin-top="5"
     fit-margin-left="5"
     fit-margin-right="5"
     fit-margin-bottom="5" />
  <g
     transform="translate(14.4,23.9)"
     id="g3">
    <use
       ffdec:characterId="4140"
       height="41.400002"
       transform="translate(-10.55,-20.7)"
       width="21.1"
       xlink:href="#shape0"
       id="use1" />
    <use
       ffdec:characterId="3500"
       height="8"
       transform="matrix(0.7455,-0.4309,0.4309,0.7455,-2.4992,15.545)"
       width="10.8"
       xlink:href="#sprite0"
       id="use2" />
    <use
       ffdec:characterId="4141"
       height="44.200001"
       transform="translate(-14.4,-23.9)"
       width="28.85"
       xlink:href="#shape2"
       id="use3" />
  </g>
  <defs
     id="defs11">
    <g
       id="shape0"
       transform="translate(10.55,20.7)">
      <path
         d="m 0,-20.2 h 0.4 q 3.35,0 4.8,3 0.85,1.75 0.85,3.65 0,2.5 -1.25,4.15 -1.25,1.65 -1.25,2.55 0,1.6 1.9,4.75 L 8.1,2.15 q 1.95,4.05 1.95,9.1 0,2.55 -1.25,4.7 -1.1,1.9 -3,3.2 l 0.1,0.25 q 0,0.55 -0.8,0.8 H -5.1 q -0.8,-0.25 -0.8,-0.8 l 0.1,-0.25 q -1.9,-1.3 -3,-3.2 -1.25,-2.15 -1.25,-4.7 0,-5.05 1.95,-9.1 l 2.65,-4.25 q 1.9,-3.15 1.9,-4.75 0,-0.9 -1.25,-2.55 -1.25,-1.65 -1.25,-4.15 0,-1.9 0.85,-3.65 1.45,-3 4.8,-3 H 0 m 4.45,6.65 -0.15,-1.6 -0.85,-1.65 Q 2.7,-17.85 1.2,-18.4 L 0,-18.65 -1.2,-18.4 q -1.5,0.55 -2.25,1.6 l -0.85,1.65 -0.15,1.6 q 0,2.1 1.25,3.45 l 0.75,1.05 0.3,0.65 0.2,1 v 0.5 0.1 l -0.5,1.9 -0.05,0.1 -0.4,0.95 -0.3,0.55 -0.1,0.25 -0.4,0.75 -1.2,2.1 0.15,-0.15 1.25,-0.8 0.5,-0.1 -0.05,-0.2 q 0,-1.1 0.6,-2.1 0.8,-1.2 2.2,-1.4 h 1.4 Q 3.25,-4 3.25,-2.1 L 3.2,-1.45 h 0.15 l 0.45,0.05 0.55,0.3 v 0.05 L 4.45,-1 3.7,-2.4 3.25,-3.25 2.95,-3.85 Q 2.65,-4.4 2.5,-4.9 2,-6.1 1.95,-6.8 V -6.9 L 2,-7.4 2.2,-8.45 2.45,-8.95 3.2,-10.1 q 1.25,-1.35 1.25,-3.45 m -3.45,0.1 0.2,-0.4 0.85,-0.1 q 0.9,0 1.4,1.1 0,0.6 -0.5,0.6 -0.3,0 -0.45,-0.25 L 2.2,-12.9 Q 1,-12.75 1,-13.45 m 0.85,1.6 q 0.8,0 0.8,0.95 0,1 -0.9,1 -0.35,0 -0.6,-0.35 l -0.2,-0.5 q 0,-1.1 0.9,-1.1 M 2.6,-0.15 2.55,0 q 1.2,0.25 1.2,1.85 0,1.25 -0.7,4.05 l -0.6,1.9 q -0.8,1.35 -2.5,1.35 -3.75,0 -3.75,-5.85 l 0.1,-1.75 q 0.3,-1.2 1.2,-1.35 l -0.35,-0.65 q -1.2,0.8 -1.35,1.3 l -0.25,2 q 0,2.7 1.1,4.75 1.35,2.5 3.7,2.5 1.8,0 2.55,-1.8 L 3.5,6.1 4.35,1.65 4,0.2 Q 3.8,-0.35 3.15,-0.45 L 2.85,-0.5 2.6,-0.15 M -1,-13.4 l 0.05,0.25 q 0,0.4 -0.4,0.5 l -0.7,0.15 q -0.35,0.75 -0.8,0.75 -0.3,0 -0.45,-0.5 l 0.35,-0.85 0.6,-0.4 0.7,-0.15 0.65,0.25 m 0.35,2.65 q 0,1.05 -0.95,1.05 -1,0 -0.85,-1.05 0,-0.85 1,-0.85 0.8,0 0.8,0.85 m 0.45,6.85 -1.35,0.95 -0.4,0.8 0.65,-0.2 q 1.2,-0.2 1.2,-1.1 L -0.2,-3.9 M -2.4,6 q 0.75,2.15 2.35,2.15 1.35,0 2.2,-2.75 0.6,-2 0.6,-3.5 Q 2.75,1.1 2,1 L 1.45,0.85 0.25,1.1 -1.85,0.7 -2.2,0.95 q -0.45,0.35 -0.5,0.9 l -0.1,1.5 Q -2.8,4.7 -2.4,6 M -5.35,0.55 q -3.1,5.35 -3.1,10.7 0,2 1.05,3.8 1.3,2.1 3.9,3.5 l 1.75,0.05 H 0 1.75 L 3.5,18.55 q 2.6,-1.4 3.9,-3.5 1.05,-1.8 1.05,-3.8 0,-5.4 -3.2,-10.85 L 5.3,1.1 v 0.1 l 0.05,0.4 q 0,1.6 -1,5.15 L 3.65,9 q -1.1,2.1 -3.3,2.1 -3.3,0 -4.85,-3.65 Q -5.3,5.5 -5.4,3.55 L -5.45,3.5 -5.5,2.1 -5.45,1.35 V 1.2 l 0.1,-0.65 M -7.1,12.35 -7.4,12 -6.7,10.9 -5.4,9.3 q 0.45,-0.5 0.7,-0.35 0.25,0.15 0.25,0.45 l -1.3,1.6 -1.35,1.35 m -0.2,-4 -0.3,-0.3 q 0,-0.35 1.05,-0.95 1,-0.6 1,0.2 0,0.3 -1.75,1.05 m 4,2.55 q 0.4,-0.2 0.4,0.3 l -1.2,2.2 -1.2,1.9 -0.3,-0.3 0.55,-1.2 0.55,-1.1 0.65,-1.25 0.55,-0.55 m 2.65,4.3 0.2,-2.25 Q -0.5,11.7 -0.05,11.5 0.4,11.3 0.4,12.25 l -0.25,4.2 q 0,0.4 -0.35,0.4 -0.45,0 -0.45,-1.65 M 6.4,5.7 6.85,6.2 q 0,0.35 -0.4,0.35 -0.5,0 -1,-0.4 L 5,5.65 q 0,-0.4 0.45,-0.4 0.4,0 0.95,0.45 m -2.35,5.1 0.7,1 0.65,0.8 0.45,0.85 -0.35,0.35 q -0.7,0 -2.1,-2.85 0,-0.85 0.65,-0.15 M 6.7,9.6 6.45,9.75 5.4,9.1 4.75,8.45 q 0,-0.8 1.05,-0.1 l 1,1 -0.1,0.25"
         fill="#6b6b6b"
         fill-rule="evenodd"
         stroke="none"
         id="path3" />
      <path
         d="m 4.45,-13.55 q 0,2.1 -1.25,3.45 L 2.45,-8.95 2.2,-8.45 2,-7.4 1.95,-6.9 v 0.1 q 0.05,0.7 0.55,1.9 0.15,0.5 0.45,1.05 l 0.3,0.6 L 3.7,-2.4 4.45,-1 4.35,-1.05 V -1.1 L 3.8,-1.4 3.35,-1.45 H 3.2 L 3.25,-2.1 q 0,-1.9 -2.1,-2.85 h -1.4 q -1.4,0.2 -2.2,1.4 -0.6,1 -0.6,2.1 l 0.05,0.2 -0.5,0.1 -1.25,0.8 -0.15,0.15 1.2,-2.1 0.4,-0.75 0.1,-0.25 0.3,-0.55 0.4,-0.95 0.05,-0.1 0.5,-1.9 v -0.1 -0.5 l -0.2,-1 -0.3,-0.65 -0.75,-1.05 q -1.25,-1.35 -1.25,-3.45 l 0.15,-1.6 0.85,-1.65 q 0.75,-1.05 2.25,-1.6 l 1.2,-0.25 1.2,0.25 q 1.5,0.55 2.25,1.6 l 0.85,1.65 0.15,1.6 m -2.6,1.7 q -0.9,0 -0.9,1.1 l 0.2,0.5 q 0.25,0.35 0.6,0.35 0.9,0 0.9,-1 0,-0.95 -0.8,-0.95 M 1,-13.45 q 0,0.7 1.2,0.55 l 0.3,0.4 q 0.15,0.25 0.45,0.25 0.5,0 0.5,-0.6 -0.5,-1.1 -1.4,-1.1 l -0.85,0.1 -0.2,0.4 m -2,0.05 q 1.55,-0.2 1.65,-2.15 0,-2.55 -2.1,-1.85 -2.1,0.75 -2.1,2.35 l 0.2,0.85 q 0.3,0.5 1,0.7 l -0.6,0.4 -0.35,0.85 q 0.15,0.5 0.45,0.5 0.45,0 0.8,-0.75 l 0.7,-0.15 q 0.4,-0.1 0.4,-0.5 L -1,-13.4 m 0.8,9.5 0.1,0.45 q 0,0.9 -1.2,1.1 l -0.65,0.2 0.4,-0.8 1.35,-0.95 m -0.45,-6.85 q 0,-0.85 -0.8,-0.85 -1,0 -1,0.85 -0.15,1.05 0.85,1.05 0.95,0 0.95,-1.05"
         fill="#dbdbdb"
         fill-rule="evenodd"
         stroke="none"
         id="path4" />
      <path
         d="m -2.35,-13.5 q -0.7,-0.2 -1,-0.7 l -0.2,-0.85 q 0,-1.6 2.1,-2.35 2.1,-0.7 2.1,1.85 -0.1,1.95 -1.65,2.15 l -0.65,-0.25 -0.7,0.15"
         fill="#ffffff"
         fill-rule="evenodd"
         stroke="none"
         id="path5" />
      <path
         d="M -2.4,6 Q -2.8,4.7 -2.8,3.35 l 0.1,-1.5 Q -2.65,1.3 -2.2,0.95 L -1.85,0.7 0.25,1.1 1.45,0.85 2,1 q 0.75,0.1 0.75,0.9 0,1.5 -0.6,3.5 -0.85,2.75 -2.2,2.75 -1.6,0 -2.35,-2.15"
         fill="#7b7b7b"
         fill-rule="evenodd"
         stroke="none"
         id="path6" />
      <path
         d="m 6.7,9.6 0.1,-0.25 -1,-1 Q 4.75,7.65 4.75,8.45 L 5.4,9.1 6.45,9.75 6.7,9.6 M 4.05,10.8 Q 3.4,10.1 3.4,10.95 4.8,13.8 5.5,13.8 L 5.85,13.45 5.4,12.6 4.75,11.8 4.05,10.8 M 6.4,5.7 Q 5.85,5.25 5.45,5.25 5,5.25 5,5.65 l 0.45,0.5 q 0.5,0.4 1,0.4 0.4,0 0.4,-0.35 L 6.4,5.7 m -7.05,9.5 q 0,1.65 0.45,1.65 0.35,0 0.35,-0.4 l 0.25,-4.2 q 0,-0.95 -0.45,-0.75 -0.45,0.2 -0.4,1.45 l -0.2,2.25 m -2.65,-4.3 -0.55,0.55 -0.65,1.25 -0.55,1.1 -0.55,1.2 0.3,0.3 1.2,-1.9 1.2,-2.2 q 0,-0.5 -0.4,-0.3 m -4,-2.55 q 1.75,-0.75 1.75,-1.05 0,-0.8 -1,-0.2 -1.05,0.6 -1.05,0.95 l 0.3,0.3 m 0.2,4 1.35,-1.35 1.3,-1.6 Q -4.45,9.1 -4.7,8.95 -4.95,8.8 -5.4,9.3 l -1.3,1.6 -0.7,1.1 0.3,0.35 M -5.35,0.55 -5.45,1.2 V 1.35 L -5.5,2.1 -5.45,3.5 -5.4,3.55 q 0.1,1.95 0.9,3.9 1.55,3.65 4.85,3.65 2.2,0 3.3,-2.1 l 0.7,-2.25 q 1,-3.55 1,-5.15 L 5.3,1.2 V 1.1 L 5.25,0.4 q 3.2,5.45 3.2,10.85 0,2 -1.05,3.8 -1.3,2.1 -3.9,3.5 L 1.75,18.6 H 0 -1.75 L -3.5,18.55 q -2.6,-1.4 -3.9,-3.5 -1.05,-1.8 -1.05,-3.8 0,-5.35 3.1,-10.7"
         fill="#997f7f"
         fill-rule="evenodd"
         stroke="none"
         id="path7" />
      <path
         d="m 2.6,-0.15 0.25,-0.35 0.3,0.05 Q 3.8,-0.35 4,0.2 L 4.35,1.65 3.5,6.1 2.9,8.3 q -0.75,1.8 -2.55,1.8 -2.35,0 -3.7,-2.5 -1.1,-2.05 -1.1,-4.75 l 0.25,-2 q 0.15,-0.5 1.35,-1.3 L -2.5,0.2 Q -3.4,0.35 -3.7,1.55 L -3.8,3.3 q 0,5.85 3.75,5.85 1.7,0 2.5,-1.35 L 3.05,5.9 Q 3.75,3.1 3.75,1.85 3.75,0.25 2.55,0 L 2.6,-0.15"
         fill="#dab9b9"
         fill-rule="evenodd"
         stroke="none"
         id="path8" />
      <path
         d="m 0,-20.2 h -0.4 q -3.35,0 -4.8,3 -0.85,1.75 -0.85,3.65 0,2.5 1.25,4.15 1.25,1.65 1.25,2.55 0,1.6 -1.9,4.75 L -8.1,2.15 q -1.95,4.05 -1.95,9.1 0,2.55 1.25,4.7 1.1,1.9 3,3.2 l -0.1,0.25 q 0,0.55 0.8,0.8 H 5.1 Q 5.9,19.95 5.9,19.4 L 5.8,19.15 q 1.9,-1.3 3,-3.2 1.25,-2.15 1.25,-4.7 0,-5.05 -1.95,-9.1 L 5.45,-2.1 q -1.9,-3.15 -1.9,-4.75 0,-0.9 1.25,-2.55 1.25,-1.65 1.25,-4.15 0,-1.9 -0.85,-3.65 -1.45,-3 -4.8,-3 z"
         fill="none"
         stroke="#6b6b6b"
         stroke-linecap="round"
         stroke-linejoin="round"
         stroke-width="1"
         id="path9" />
    </g>
    <g
       id="sprite0"
       transform="translate(5.4,4)">
      <use
         ffdec:characterId="43"
         height="8"
         transform="translate(-5.4,-4)"
         width="10.8"
         xlink:href="#shape1"
         id="use9" />
    </g>
    <g
       id="shape1"
       transform="translate(5.4,4)">
      <path
         d="m 2.9,-0.35 q 0,-1.25 1.25,-1.25 1.25,0 1.25,1.2 0,1.3 -1.25,1.3 Q 3.6,0.9 3.25,0.5 2.9,0.15 2.9,-0.35 m 0.35,-2.3 q 0,0.55 -0.35,0.9 -0.4,0.45 -1,0.45 -1.35,0 -1.35,-1.4 0,-1.3 1.35,-1.3 1.35,0 1.35,1.35 m -3.1,1.9 h 0.2 q 2.6,0.1 2.6,2.8 l -0.3,1 Q 2.05,4 0.45,4 H 0.35 0.15 0.1 -0.45 q -1.6,0 -2.2,-0.95 l -0.3,-1 q 0,-2.8 2.8,-2.8 h 0.3 M -1.55,-4 q 1.35,0 1.35,1.35 0,0.55 -0.4,0.9 -0.4,0.45 -0.95,0.45 -1.4,0 -1.4,-1.4 0,-1.3 1.4,-1.3 m -2.6,2.4 q 1.25,0 1.25,1.25 0,0.5 -0.35,0.85 -0.35,0.4 -0.9,0.4 -1.25,0 -1.25,-1.3 0,-1.2 1.25,-1.2"
         fill="#6b6b6b"
         fill-opacity="0.498039"
         fill-rule="evenodd"
         stroke="none"
         id="path10" />
    </g>
    <g
       id="shape2"
       transform="translate(14.4,23.9)">
      <path
         d="m 12.05,14 0.35,0.1 h 0.05 l -0.4,-0.15 V 14 M 5.8,-22.8 q 0.8,-0.6 0.8,0.5 -0.15,0.3 -0.15,0.7 l 0.25,0.15 0.3,-0.1 q 1.2,0 1.2,0.65 L 8,-20.45 q 0.45,0.05 0.45,0.5 L 8.2,-19.5 q 0.6,0.05 0.6,0.5 l 0.1,0.4 0.15,0.3 -0.3,0.25 0.1,0.3 -0.25,0.55 q 1.35,0.1 1.35,0.7 0,0.4 -1.5,0.8 l 0.75,0.15 q 0.95,0.25 0.95,0.6 0,0.35 -0.65,0.55 h 0.05 l 0.3,0.5 q 0,0.5 -0.7,0.5 l -0.5,-0.05 -0.35,0.3 0.45,0.4 0.15,0.4 0.15,0.65 -0.35,0.4 -0.65,0.25 0.45,0.25 0.15,0.3 -0.35,0.55 H 7.6 l 0.1,0.05 q 0.95,0.8 0.95,1.15 0,0.5 -0.65,0.5 L 7.45,-8.3 7.8,-7.8 7.7,-7.5 8.15,-6.8 q 0,0.55 -0.5,0.55 -0.25,0 -0.9,-0.5 v 0.25 l 0.4,0.5 q 0,0.4 -0.45,0.5 L 6.65,-5.35 H 7 q 0.4,0.05 0.4,0.5 l -0.05,0.2 q 0.5,0.25 0.5,1.15 L 7.7,-3.2 q 0.6,0.05 1.15,1.15 L 8.8,-1.85 9.55,-2 q 0.65,0 0.65,0.55 L 9.5,-0.6 q 1.45,-0.25 1.45,0.55 L 10.8,0.2 10.4,0.55 q 0.9,-0.15 0.9,0.5 L 11.25,1.3 q 0.6,0 0.6,0.5 l -0.2,0.4 0.4,0.65 -0.3,0.3 -0.05,0.1 q 0.75,0.1 0.75,0.55 0,0.45 -0.55,0.55 1.35,0.45 1.35,0.95 L 13,5.75 12.45,6.05 11.9,6.35 11.8,6.4 h 0.05 q 0.9,-0.1 1.2,0.3 l 0.5,0.5 -0.45,0.5 0.25,0.55 Q 13.35,8.8 13,9 l -0.25,0.05 0.55,0.3 0.45,0.5 -0.05,0.3 q 0.6,0 0.6,0.45 0,0.55 -0.6,0.55 h -1.2 q 1.4,0.5 1.4,1 0,0.5 -0.45,0.55 l 1,0.95 -0.45,0.5 -0.7,0.3 0.4,0.4 -0.3,0.5 -0.75,0.4 -0.65,-0.05 0.6,0.8 0.4,0.4 q 0.3,0.2 0.3,0.5 0,0.65 -1.2,0.65 L 10.55,17.3 v 0.05 q 1.05,0.65 1.05,1 l -0.4,0.6 0.3,0.4 q 0,0.55 -0.55,0.55 -0.35,0 -0.65,-0.35 l -0.45,-0.4 -0.4,0.25 -1.5,-0.5 0.7,0.8 -0.2,0.35 -0.55,0.25 -1,-0.65 Q 6.2,19 6.2,18.8 6.2,18.4 6.65,18.3 V 18.25 Q 6.65,17.8 7.6,17.8 L 7.75,17.6 7.5,17.1 q 0,-0.65 0.85,-0.45 l 0.15,-0.1 -0.25,-0.5 q 0,-0.5 0.4,-0.55 l 0.1,-0.3 -0.2,-0.45 q 0,-0.5 0.45,-0.5 l 0.55,0.1 Q 9.55,13.9 10,13.8 l -0.65,-1 q 0,-0.65 0.35,-0.55 v -0.1 L 9.9,11.7 9.65,11 q 0,-0.5 0.5,-0.5 V 10.4 L 9.5,9.85 q 0,-0.4 0.55,-0.6 L 9.9,8.85 9.55,8.55 9.3,8.2 Q 9.3,7.6 9.75,7.2 9.2,6.9 9.2,6.25 L 9.4,5.8 Q 8.9,5.65 8.9,5.3 L 9,5 8.85,4.45 V 4.25 L 8.25,3.9 Q 7.95,3.6 7.95,3.3 7.95,2.95 8.3,2.85 L 8.7,2.8 8.25,2.6 7.8,2.1 Q 7.6,1.8 7.7,1.6 7,1.6 7,1.05 L 7.15,0.5 Q 6.75,0.45 6.2,-0.1 L 5.6,-0.9 5.8,-1.4 5.15,-1.3 q -0.5,0 -0.5,-0.5 0,-0.35 0.3,-0.45 -0.4,-0.2 -0.4,-0.65 L 4.6,-3.15 q -0.45,0 -0.45,-0.5 V -3.7 Q 3.75,-3.85 3.75,-4.2 L 4,-4.95 V -5 Q 3.7,-5.1 3.7,-5.45 L 3.8,-5.7 Q 3.4,-5.9 3.4,-6.4 L 3.65,-6.8 3.4,-7.2 3.2,-7.85 3.35,-8.25 q 0.2,-0.4 0.5,-0.4 l 0.6,0.1 q 0,-0.5 0.3,-0.75 L 5.3,-9.4 5.25,-9.95 h -0.2 l -0.65,-0.5 -0.2,-0.4 q 0,-0.55 1.55,-0.7 L 5.4,-12.5 5.6,-13 l -0.2,-0.35 0.2,-0.45 -0.3,-0.45 0.45,-0.6 q -0.2,-0.05 -0.2,-0.4 v -0.1 Q 5.4,-15.55 5.4,-15.95 L 5.75,-16.4 5.4,-16.6 5,-17.3 Q 4.4,-17.4 4.4,-17.8 L 4.5,-18.3 4,-18.4 q -0.25,-0.2 -0.15,-0.4 l -0.4,-0.1 v -0.25 l 0.2,-0.7 -0.55,0.55 -0.5,-0.3 -0.2,-0.5 -0.15,0.25 q -0.1,0.15 -0.4,0.15 L 1.4,-20 H 1.3 l -0.45,0.2 q -0.5,0 -0.8,-0.25 l -0.85,0.25 q -0.3,0 -0.4,-0.2 h -0.15 l -0.45,0.3 q -0.3,0 -0.4,-0.15 l -0.15,-0.25 -0.2,0.5 q -0.1,0.3 -0.5,0.3 l -0.55,-0.55 0.2,0.7 v 0.25 l -0.4,0.1 q 0.1,0.2 -0.15,0.4 l -0.5,0.1 0.1,0.5 q 0,0.4 -0.6,0.5 0,0.35 -0.4,0.7 l -0.35,0.2 q 0.35,0.25 0.35,0.45 0,0.4 -0.15,0.6 v 0.1 q 0,0.35 -0.2,0.4 l 0.45,0.6 q 0,0.15 -0.3,0.45 l 0.2,0.45 -0.2,0.35 0.2,0.5 -0.35,0.95 q 1.55,0.15 1.55,0.7 l -0.2,0.4 -0.65,0.5 h -0.2 l -0.05,0.55 0.55,0.1 q 0.3,0.25 0.3,0.75 l 0.6,-0.1 q 0.3,0 0.5,0.4 l 0.15,0.4 -0.2,0.65 -0.25,0.4 0.25,0.4 q 0,0.5 -0.4,0.7 l 0.1,0.25 q 0,0.35 -0.3,0.45 v 0.05 l 0.25,0.75 q 0,0.35 -0.4,0.5 v 0.05 q 0,0.5 -0.45,0.5 l 0.05,0.25 q 0,0.45 -0.4,0.65 0.3,0.1 0.3,0.45 0,0.5 -0.5,0.5 l -0.65,-0.1 0.2,0.5 q 0,0.25 -0.6,0.8 L -7.1,0.5 q 0.15,0.25 0.15,0.55 0,0.55 -0.7,0.55 0.1,0.2 -0.1,0.5 l -0.45,0.5 -0.45,0.2 0.4,0.05 q 0.35,0.1 0.35,0.45 0,0.3 -0.3,0.6 l -0.6,0.35 v 0.2 L -8.95,5 l 0.1,0.3 q 0,0.35 -0.5,0.5 0.2,0.1 0.2,0.45 0,0.65 -0.55,0.95 0.45,0.4 0.45,1 L -9.5,8.55 -9.85,8.85 -10,9.25 q 0.55,0.2 0.55,0.6 l -0.65,0.55 v 0.1 q 0.5,0 0.5,0.5 l -0.25,0.7 0.2,0.45 v 0.1 q 0.35,-0.1 0.35,0.55 l -0.65,1 q 0.45,0.1 0.45,0.55 l 0.55,-0.1 q 0.45,0 0.45,0.5 l -0.2,0.45 0.1,0.3 q 0.4,0.05 0.4,0.55 l -0.25,0.5 q 0.1,0 0.15,0.1 0.85,-0.2 0.85,0.45 l -0.25,0.5 0.15,0.2 q 0.95,0 0.95,0.45 v 0.05 q 0.45,0.1 0.45,0.5 l -0.7,0.85 -1,0.65 -0.55,-0.25 -0.2,-0.35 0.7,-0.8 -1.5,0.5 -0.4,-0.25 -0.45,0.4 q -0.3,0.35 -0.65,0.35 -0.55,0 -0.55,-0.55 l 0.3,-0.4 -0.4,-0.6 q 0,-0.35 1.05,-1 V 17.3 l -1.55,0.75 q -1.2,0 -1.2,-0.65 l 0.3,-0.5 0.4,-0.4 0.6,-0.8 h 0.05 l -0.7,0.05 q -0.35,0 -0.75,-0.4 l -0.3,-0.5 0.4,-0.4 -0.7,-0.3 -0.45,-0.5 1,-0.95 q -0.45,-0.05 -0.45,-0.55 0,-0.5 1.4,-1 h -1.2 q -0.6,0 -0.6,-0.55 0,-0.45 0.6,-0.45 l -0.05,-0.3 0.45,-0.5 0.55,-0.3 L -12.95,9 Q -13.3,8.8 -13.3,8.25 L -13.05,7.7 -13.5,7.2 -13,6.7 q 0.3,-0.4 1.2,-0.3 h 0.05 l -0.1,-0.05 -0.55,-0.3 -0.55,-0.3 -0.25,-0.45 q 0,-0.5 1.35,-0.95 -0.55,-0.1 -0.55,-0.55 0,-0.45 0.75,-0.55 L -11.7,3.15 -12,2.85 -11.6,2.2 -11.8,1.8 q 0,-0.5 0.6,-0.5 l -0.05,-0.25 q 0,-0.65 0.9,-0.5 l -0.4,-0.35 -0.15,-0.25 q 0,-0.8 1.45,-0.55 -0.7,-0.55 -0.7,-0.85 0,-0.55 0.65,-0.55 l 0.75,0.15 -0.05,-0.2 q 0.55,-1.1 1.15,-1.15 L -7.8,-3.5 q 0,-0.9 0.5,-1.15 l -0.05,-0.2 q 0,-0.45 0.4,-0.5 H -6.6 L -6.65,-5.5 Q -7.1,-5.6 -7.1,-6 l 0.4,-0.5 v -0.25 q -0.65,0.5 -0.9,0.5 -0.5,0 -0.5,-0.55 l 0.45,-0.7 -0.1,-0.3 0.35,-0.5 -0.55,0.05 q -0.65,0 -0.65,-0.5 0,-0.35 0.95,-1.15 l 0.1,-0.05 h -0.7 Q -8.6,-10.2 -8.6,-10.5 l 0.15,-0.3 0.45,-0.25 -0.65,-0.25 -0.35,-0.4 0.15,-0.65 0.15,-0.4 0.45,-0.4 -0.35,-0.3 -0.5,0.05 q -0.7,0 -0.7,-0.5 l 0.3,-0.5 h 0.05 q -0.65,-0.2 -0.65,-0.55 0,-0.35 0.95,-0.6 l 0.75,-0.15 q -1.5,-0.4 -1.5,-0.8 0,-0.6 1.35,-0.7 l -0.25,-0.55 0.1,-0.3 -0.3,-0.25 0.15,-0.3 0.1,-0.4 q 0,-0.45 0.6,-0.5 l -0.25,-0.45 q 0,-0.45 0.45,-0.5 l -0.2,-0.45 q 0,-0.65 1.2,-0.65 l 0.3,0.1 0.25,-0.15 -0.15,-0.7 q 0,-1.1 0.8,-0.5 v -0.05 q 0,-0.9 0.9,-0.25 l 0.2,0.15 0.35,-0.2 0.45,0.35 0.6,-0.3 0.3,0.1 0.6,-0.6 0.35,0.15 0.3,-0.1 0.3,0.15 0.55,-0.35 v -0.15 l 0.9,0.05 0.85,-0.05 0.05,0.15 0.5,0.35 0.3,-0.15 0.3,0.1 0.35,-0.15 0.6,0.6 0.3,-0.1 0.6,0.3 0.45,-0.35 0.35,0.2 0.2,-0.15 q 0.9,-0.65 0.9,0.25 v 0.05 M -12,13.95 -12.5,14.15 -12.35,14.1 -12,14 v -0.05"
         fill="#6b6b6b"
         fill-rule="evenodd"
         stroke="none"
         id="path11" />
    </g>
  </defs>
</svg>
