<?xml version="1.0" encoding="UTF-8" standalone="no"?>
<svg
   ffdec:objectType="frame"
   height="146.24156"
   width="179.59959"
   version="1.1"
   id="svg96"
   sodipodi:docname="1.svg"
   xmlns:inkscape="http://www.inkscape.org/namespaces/inkscape"
   xmlns:sodipodi="http://sodipodi.sourceforge.net/DTD/sodipodi-0.dtd"
   xmlns:xlink="http://www.w3.org/1999/xlink"
   xmlns="http://www.w3.org/2000/svg"
   xmlns:svg="http://www.w3.org/2000/svg"
   xmlns:ffdec="https://www.free-decompiler.com/flash">
  <sodipodi:namedview
     id="namedview96"
     pagecolor="#ffffff"
     bordercolor="#000000"
     borderopacity="0.25"
     inkscape:showpageshadow="2"
     inkscape:pageopacity="0.0"
     inkscape:pagecheckerboard="0"
     inkscape:deskcolor="#d1d1d1"
     fit-margin-top="5"
     fit-margin-left="5"
     fit-margin-right="5"
     fit-margin-bottom="5" />
  <g
     transform="translate(89.9496,72.891463)"
     id="g45">
    <use
       ffdec:characterId="985"
       height="66.199997"
       transform="translate(-78.75,4.55)"
       width="156"
       xlink:href="#sprite0"
       id="use1" />
    <use
       ffdec:characterId="987"
       height="103.55"
       transform="matrix(-0.8331,-0.0098,-0.0158,0.5732,31.6093,-67.0785)"
       width="78.599998"
       xlink:href="#sprite1"
       id="use2" />
    <use
       ffdec:characterId="989"
       height="95.550003"
       transform="matrix(0.8,0,0,0.8,-81.8199,-36.2994)"
       width="16.799999"
       xlink:href="#sprite2"
       id="use3" />
    <use
       ffdec:characterId="987"
       height="103.55"
       transform="matrix(-0.8552,-0.063,-0.0593,0.8048,82.7261,-68.5756)"
       width="78.599998"
       xlink:href="#sprite1"
       id="use4" />
    <use
       ffdec:characterId="991"
       height="48.299999"
       transform="matrix(-0.1611,0.6011,-0.6011,-0.1611,54.6704,-57.1097)"
       width="16.799999"
       xlink:href="#sprite3"
       id="use5" />
    <use
       ffdec:characterId="993"
       height="24.950001"
       transform="matrix(0,0.6224,-0.6224,0,35.4484,-63.7852)"
       width="11.25"
       xlink:href="#sprite4"
       id="use6" />
    <use
       ffdec:characterId="995"
       height="47.200001"
       transform="matrix(-0.6224,0,0,-0.6224,27.8156,-29.7123)"
       width="16.65"
       xlink:href="#sprite5"
       id="use7" />
    <use
       ffdec:characterId="997"
       height="52.900002"
       transform="matrix(-0.3112,0.539,-0.539,-0.3112,51.1461,-41.0005)"
       width="14.4"
       xlink:href="#sprite6"
       id="use8" />
    <use
       ffdec:characterId="995"
       height="47.200001"
       transform="matrix(-0.4422,0.2553,-0.2553,-0.4422,36.2958,-38.5324)"
       width="16.65"
       xlink:href="#sprite5"
       id="use9" />
    <use
       ffdec:characterId="999"
       height="25.049999"
       transform="matrix(-0.6224,0,0,-0.6224,21.4719,-38.5705)"
       width="11.8"
       xlink:href="#sprite7"
       id="use10" />
    <use
       ffdec:characterId="989"
       height="95.550003"
       transform="matrix(0,0.8,-0.8,0,37.2494,52.2301)"
       width="16.799999"
       xlink:href="#sprite8"
       id="use11" />
    <use
       ffdec:characterId="989"
       height="95.550003"
       transform="matrix(0,0.8,0.8,0,-39.1494,57.6301)"
       width="16.799999"
       xlink:href="#sprite8"
       id="use12" />
    <use
       ffdec:characterId="1001"
       height="5.8000002"
       transform="matrix(0.8724,0,0,1,-78.683,65.95)"
       width="65.199997"
       xlink:href="#sprite9"
       id="use13" />
    <use
       ffdec:characterId="987"
       height="103.55"
       transform="matrix(0.8552,-0.063,0.0593,0.8048,-83.3261,-68.5756)"
       width="78.599998"
       xlink:href="#sprite1"
       id="use14" />
    <use
       ffdec:characterId="991"
       height="48.299999"
       transform="matrix(0.1611,0.6011,0.6011,-0.1611,-57.6704,-57.0097)"
       width="16.799999"
       xlink:href="#sprite3"
       id="use15" />
    <use
       ffdec:characterId="993"
       height="24.950001"
       transform="matrix(0,0.6224,0.6224,0,-39.6484,-63.7852)"
       width="11.25"
       xlink:href="#sprite4"
       id="use16" />
    <use
       ffdec:characterId="995"
       height="47.200001"
       transform="matrix(0.6224,0,0,-0.6224,-31.7156,-30.4123)"
       width="16.65"
       xlink:href="#sprite5"
       id="use17" />
    <use
       ffdec:characterId="997"
       height="52.900002"
       transform="matrix(0.3112,0.539,0.539,-0.3112,-55.0461,-43.1005)"
       width="14.4"
       xlink:href="#sprite6"
       id="use18" />
    <use
       ffdec:characterId="1003"
       height="39.900002"
       transform="matrix(0.3611,0.3611,0.3611,-0.3611,-45.328,-49.2713)"
       width="16.200001"
       xlink:href="#sprite10"
       id="use19" />
    <use
       ffdec:characterId="995"
       height="47.200001"
       transform="matrix(0.4422,0.2553,0.2553,-0.4422,-40.4958,-38.5324)"
       width="16.65"
       xlink:href="#sprite5"
       id="use20" />
    <use
       ffdec:characterId="989"
       height="95.550003"
       transform="matrix(0.8,0,0,0.8,67.5801,-36.2994)"
       width="16.799999"
       xlink:href="#sprite2"
       id="use21" />
    <use
       ffdec:characterId="1005"
       height="65.25"
       transform="matrix(0,-0.8687,-0.8687,0,-21.2936,73.1)"
       width="16.049999"
       xlink:href="#sprite11"
       id="use22" />
    <use
       ffdec:characterId="1007"
       height="25.450001"
       transform="matrix(0.918,0,0,-0.918,-78.8798,61.7088)"
       width="62.700001"
       xlink:href="#sprite12"
       id="use23" />
    <use
       ffdec:characterId="1001"
       height="5.8000002"
       transform="matrix(-0.8724,0,0,1,78.483,65.95)"
       width="65.199997"
       xlink:href="#sprite9"
       id="use24" />
    <use
       ffdec:characterId="1001"
       height="5.8000002"
       transform="matrix(0.8724,0,0,1,-29.633,65.95)"
       width="65.199997"
       xlink:href="#sprite9"
       id="use25" />
    <use
       ffdec:characterId="1005"
       height="65.25"
       transform="matrix(0,-0.8687,0.8687,0,21.0936,73.1)"
       width="16.049999"
       xlink:href="#sprite11"
       id="use26" />
    <use
       ffdec:characterId="1007"
       height="25.450001"
       transform="matrix(-0.918,0,0,-0.918,78.6798,61.7088)"
       width="62.700001"
       xlink:href="#sprite12"
       id="use27" />
    <use
       ffdec:characterId="1007"
       height="25.450001"
       transform="matrix(1,0,0,0.8703,-3.65,-67.4032)"
       width="62.700001"
       xlink:href="#sprite12"
       id="use28" />
    <use
       ffdec:characterId="1001"
       height="5.8000002"
       transform="matrix(1,0,0,-1,23.35,-63.55)"
       width="65.199997"
       xlink:href="#sprite9"
       id="use29" />
    <use
       ffdec:characterId="1007"
       height="25.450001"
       transform="matrix(-1,0,0,0.8703,0.75,-67.4032)"
       width="62.700001"
       xlink:href="#sprite12"
       id="use30" />
    <use
       ffdec:characterId="1009"
       height="25.299999"
       transform="matrix(0.44,0.4401,0.4401,-0.44,-36.7811,-52.0479)"
       width="11.25"
       xlink:href="#sprite13"
       id="use31" />
    <use
       ffdec:characterId="1001"
       height="5.8000002"
       transform="matrix(1,0,0,-1,-88.4,-63.55)"
       width="65.199997"
       xlink:href="#sprite9"
       id="use32" />
    <use
       ffdec:characterId="1001"
       height="5.8000002"
       transform="matrix(1,0,0,-1,-34,-63.55)"
       width="65.199997"
       xlink:href="#sprite9"
       id="use33" />
    <use
       ffdec:characterId="1011"
       height="15.45"
       transform="matrix(0.8,0,0,0.8,-7.8899,-67.5599)"
       width="16.1"
       xlink:href="#sprite14"
       id="use34" />
    <use
       ffdec:characterId="1013"
       height="106.6"
       transform="matrix(0.7734,0,0,0.7734,47.6004,-72.8742)"
       width="43.75"
       xlink:href="#sprite15"
       id="use35" />
    <use
       ffdec:characterId="1013"
       height="106.6"
       transform="matrix(0.7734,0,0,0.7974,-89.9496,-72.1995)"
       width="43.75"
       xlink:href="#sprite15"
       id="use36" />
    <use
       ffdec:characterId="1003"
       height="39.900002"
       transform="matrix(-0.3611,0.3611,-0.3611,-0.3611,41.128,-49.2713)"
       width="16.200001"
       xlink:href="#sprite10"
       id="use37" />
    <use
       ffdec:characterId="1009"
       height="25.299999"
       transform="matrix(-0.44,0.4401,-0.4401,-0.44,32.5811,-52.0479)"
       width="11.25"
       xlink:href="#sprite13"
       id="use38" />
    <use
       ffdec:characterId="993"
       height="24.950001"
       transform="matrix(-0.4932,0.1322,-0.1322,-0.4932,23.8076,-45.6495)"
       width="11.25"
       xlink:href="#sprite4"
       id="use39" />
    <use
       ffdec:characterId="999"
       height="25.049999"
       transform="matrix(0.6224,0,0,-0.6224,-25.6719,-40.1705)"
       width="11.8"
       xlink:href="#sprite7"
       id="use40" />
    <use
       ffdec:characterId="993"
       height="24.950001"
       transform="matrix(0.4932,0.1322,0.1322,-0.4932,-29.6076,-46.8495)"
       width="11.25"
       xlink:href="#sprite4"
       id="use41" />
    <use
       ffdec:characterId="69"
       height="1.5"
       id="subplatform1"
       transform="matrix(0.1144,0,0.1461,0.86,-75.6823,-68.28)"
       width="1320.3"
       xlink:href="#sprite16" />
    <use
       ffdec:characterId="69"
       height="1.5"
       id="subplatform2"
       transform="matrix(0.1144,0,0.1461,0.86,-75.7625,57.62)"
       width="1320.3"
       xlink:href="#sprite16" />
    <use
       ffdec:characterId="1005"
       height="65.25"
       transform="matrix(0.9938,0,0,-0.6448,-89.2002,73.3501)"
       width="16.049999"
       xlink:href="#sprite11"
       id="use42" />
    <use
       ffdec:characterId="1011"
       height="15.45"
       transform="translate(-89.85,21.85)"
       width="16.1"
       xlink:href="#sprite14"
       id="use43" />
    <use
       ffdec:characterId="1005"
       height="65.25"
       transform="matrix(-1,0,0,-0.6448,89.05,73.3501)"
       width="16.049999"
       xlink:href="#sprite11"
       id="use44" />
    <use
       ffdec:characterId="1011"
       height="15.45"
       transform="matrix(-1,0,0,1,89.65,21.85)"
       width="16.1"
       xlink:href="#sprite14"
       id="use45" />
  </g>
  <defs
     id="defs96">
    <g
       id="sprite0">
      <use
         ffdec:characterId="984"
         height="66.199997"
         width="156"
         xlink:href="#shape0"
         id="use46" />
    </g>
    <g
       id="shape0">
      <path
         d="m 85.95,11.3 v 0.25 q 0,1.55 3.35,3.95 4.2,3 9.85,3 3.4,0 9.8,-2.65 l 6.75,-3 h 5.9 q 12.55,3.4 20.35,9.5 7.35,5.75 7.3,11.15 l 0.3,-0.25 0.2,-1 0.2,0.35 0.25,-0.1 v 6.45 h -22.9 v -0.3 q 0,-2.9 -1.35,-4.75 -1.8,-2.4 -6.8,-4.9 L 112.5,28.9 Q 100.6,23.7 89,27.3 q -5.15,1.6 -8.15,4.6 -2.05,2 -2.75,4.25 l -0.3,-0.3 q -0.75,-2.1 -2.65,-3.95 -3,-3 -8.15,-4.6 -11.6,-3.6 -23.5,1.6 L 36.85,29 q -5,2.5 -6.8,4.9 -1.35,1.85 -1.35,4.75 V 39 l -27.5,-0.05 2,-4.1 3.7,-7.5 q 9.35,-8.05 14.5,-10.65 8.25,-4.25 19.45,-4.25 2.5,0 6.55,3.05 4.1,3.05 10,3.05 6.95,0 10.2,-3.95 2.05,-2.5 2.05,-5.05 0,-1 -0.35,-1.9 L 68.65,9.1 V 8.65 L 68.55,7.15 68,6.3 q -0.8,-1.1 -2.8,-1 l -0.65,0.05 -0.4,-0.2 Q 65,4.1 66.5,4.1 q 2.85,0 3.6,1.2 0.75,1.15 1.65,1.15 l 0.2,-0.05 0.5,1.15 q 1.15,1.75 4.05,2 l -0.2,1.65 0.4,4.65 v 11.1 q -0.6,4.7 0.65,4.7 L 78,31.4 V 15.7 l 0.4,-4.5 -0.15,-1.6 q 2.55,-0.25 3.6,-2.25 l 0.45,-1.15 1.5,-1 q 1.35,-0.9 3.8,-0.9 1.45,0 2.3,0.9 L 90.15,5.45 88.9,5.3 q -2,-0.1 -2.8,1 l -0.55,0.85 -0.1,1.5 0.1,1.8 0.4,0.85 m 64.25,17.6 q -0.5,-1.7 -1.55,-3.5 h 1.55 v 3.5 M 66.75,7.1 l 0.3,0.25 0.1,0.35 -0.4,-0.6 m 57.8,31.85 -42.3,0.05 1,-1.2 0.1,-0.05 10.4,-2.25 4.55,-0.75 5.9,-1.05 6.2,-0.05 0.35,-0.15 1.05,0.3 q 5.85,2.7 8.1,2.7 l 2.25,-0.45 1.05,0.65 0.6,1.2 0.75,1.05 M 6.7,41.05 h 12.35 q -3.15,0.45 -3.15,1.4 -0.1,0.3 0.05,0.5 0.25,0.4 1,0.5 0,0.7 1.2,0.9 l 12.45,0.45 108.45,0.1 q 1.5,0.1 2.2,-0.55 0.4,-0.4 0.4,-0.85 0,-0.45 -0.4,-0.85 L 141,42.45 q 0.7,-0.35 0.7,-1.15 v -0.25 h 8.5 v 5.7 h -0.9 v 7.1 H 8.45 v -7.1 H 6.7 v -5.7 M 48.9,62.6 h 66 v 3.6 h -66 V 62.6 M 74.55,2.25 q -0.3,0.55 -0.3,1.3 0,0.5 0.45,1.1 0.75,1 2.35,1 1.35,0 2.05,-1.15 L 79.6,2.85 80.1,3 q 0.5,0.65 0.5,1.6 l -0.35,1.5 q -0.75,1.55 -2.8,1.55 -1.8,0 -2.95,-0.95 -0.9,-0.75 -0.9,-1.45 0,-2.15 0.95,-3 M 32.8,39 32.85,38.95 V 39 H 32.8 m 1.5,0 0.65,-1.35 q 0.5,-0.9 1.25,-1.55 l 1.7,0.3 q 2.15,0 4.05,-0.95 l 0.45,-0.25 4.25,-0.3 2.75,-0.15 2.25,0.5 q 3.05,0.8 8.6,0.8 l 5.95,-0.4 0.35,-0.05 0.35,0.1 5.2,1.6 q 0.65,0.3 1.6,1.7 H 54.1 34.3"
         fill="#bbbbbb"
         fill-rule="evenodd"
         stroke="none"
         id="path46" />
      <path
         d="m 136.35,15.9 q 2.6,1.9 6.2,5.45 l 1.3,1.05 q 1.85,1.75 3.15,4.45 l 2.75,5.4 -0.2,1 -0.3,0.25 q 0.05,-5.4 -7.3,-11.15 -7.8,-6.1 -20.35,-9.5 h -5.9 l -6.75,3 q -6.4,2.65 -9.8,2.65 -5.65,0 -9.85,-3 -3.35,-2.4 -3.35,-3.95 V 11.3 l 0.65,0.65 0.65,0.8 q 2,2.15 5.95,3.45 l 1.65,0.5 h 5.05 q 3.2,-0.1 6.75,-2.45 l 0.5,-0.4 0.3,-0.15 v -0.05 q 3.35,-2.3 6.6,-2.75 l 0.75,-0.1 h 5.4 q 7.75,0.8 12.5,2.95 l 0.75,0.4 2.9,1.75 M 6.9,27.35 7.1,26.85 q 1.75,-3.6 4.45,-5.5 l 0.55,-0.5 q 3.45,-3.35 5.95,-5.15 l 1.4,-0.8 q 2.45,-1.25 4.05,-2 4.25,-1.45 10.4,-2.1 h 5.4 q 3.7,0.25 7.65,3.05 3.8,2.75 7.25,2.85 h 5.05 q 5.2,-1.35 7.6,-3.95 l 0.65,-0.8 q 0.8,-0.6 1.05,-1.5 L 68.65,10 V 9.1 L 69.3,7.65 q 0.35,0.9 0.35,1.9 0,2.55 -2.05,5.05 -3.25,3.95 -10.2,3.95 -5.9,0 -10,-3.05 -4.05,-3.05 -6.55,-3.05 -11.2,0 -19.45,4.25 -5.15,2.6 -14.5,10.65 M 63.95,5.45 q -1,0.25 -1.55,0.9 L 62.85,5.05 63.4,4.2 63.6,4 q 1.3,-1.5 3.75,-1.5 1.45,0 2.95,1.4 l 1.55,1.35 V 5.3 5.55 l 0.1,0.85 -0.2,0.05 Q 70.85,6.45 70.1,5.3 69.35,4.1 66.5,4.1 65,4.1 64.15,5.15 l -0.2,0.3 M 82.3,6.2 82.45,4.75 82.75,4.2 82.8,4 q 0.9,-1.1 3.65,-1.1 2.3,0 3.6,0.8 L 90.4,3.95 91.15,4.7 91.65,5.8 91.8,6.45 91.35,6 91.25,5.95 90.55,5.6 90.15,5.45 89.9,5.2 q -0.85,-0.9 -2.3,-0.9 -2.45,0 -3.8,0.9 l -1.5,1 M 82.25,39 H 79.6 l -0.05,-0.9 q 0,-0.75 0.55,-2 l 2.1,-2.45 q 6.05,-5.8 17.55,-5.8 3,0 7.2,1.5 l 3.5,1.25 q 0.7,0.4 1.45,0.95 5.55,3.9 6.35,3.9 l 1.5,-0.3 q -2.25,-0.75 -6.35,-4 l 5.3,0.05 q 2.2,0.9 3.9,2.45 1.6,1.45 2.05,2.75 l 0.2,2.55 h -0.3 l -0.75,-1.05 -0.6,-1.2 -1.05,-0.65 -2.25,0.45 q -2.25,0 -8.1,-2.7 l -1.05,-0.3 -0.35,0.15 -6.2,0.05 -5.9,1.05 -4.55,0.75 -10.4,2.25 -0.1,0.05 -1,1.2 M 78.1,36.15 78,36.5 l -0.2,-0.65 0.3,0.3 m -59.05,4.9 H 141.7 v 0.25 q 0,0.8 -0.7,1.15 l 0.25,0.2 q 0.4,0.4 0.4,0.85 0,0.45 -0.4,0.85 -0.7,0.65 -2.2,0.55 L 30.6,44.8 18.15,44.35 q -1.2,-0.2 -1.2,-0.9 -0.75,-0.1 -1,-0.5 -0.15,-0.2 -0.05,-0.5 0,-0.95 3.15,-1.4 M 79.6,2.55 v 0.2 0.1 L 79.1,4.5 q -0.7,1.15 -2.05,1.15 -1.6,0 -2.35,-1 -0.45,-0.6 -0.45,-1.1 0,-0.75 0.3,-1.3 l 0.15,-0.1 q 0.85,-0.75 2.4,-0.5 1.6,0.25 2.5,0.9 M 32.8,39 h -0.2 -1.45 l 0.2,-2.6 q 0.45,-1.3 2.05,-2.75 1.7,-1.55 3.9,-2.45 l 5.3,-0.05 q -4.1,3.25 -6.35,4 l 1.5,0.3 q 0.8,0 6.35,-3.9 l 1.45,-0.95 3.5,-1.25 q 4.2,-1.5 7.2,-1.5 11.5,0 17.55,5.8 l 2.1,2.45 q 0.55,1.25 0.55,2 -0.1,0.5 -0.05,0.9 H 75 73.7 q -0.95,-1.4 -1.6,-1.7 l -5.2,-1.6 -0.35,-0.1 -0.35,0.05 -5.95,0.4 q -5.55,0 -8.6,-0.8 l -2.25,-0.5 -2.75,0.15 -4.25,0.3 -0.45,0.25 q -1.9,0.95 -4.05,0.95 l -1.7,-0.3 q -0.75,0.65 -1.25,1.55 L 34.3,39 H 32.85 V 38.95 L 32.8,39"
         fill="#c6c6c6"
         fill-rule="evenodd"
         stroke="none"
         id="path47" />
      <path
         d="M 149.75,32.25 147,26.85 q -1.3,-2.7 -3.15,-4.45 l -1.3,-1.05 q -3.6,-3.55 -6.2,-5.45 l -0.8,-0.6 Q 134.3,14.45 132.7,13.75 127.95,11.6 120.2,10.8 h -5.4 l -0.75,0.1 q -3.25,0.45 -6.6,2.75 v 0.05 l -0.3,0.15 -0.5,0.4 Q 103.1,16.6 99.9,16.7 H 94.85 L 93.2,16.2 q -3.95,-1.3 -5.95,-3.45 l -0.65,-0.8 -0.65,-0.65 -0.4,-0.85 -0.1,-1.8 0.1,-1.5 0.55,-0.85 q 0.8,-1.1 2.8,-1 l 1.25,0.15 0.4,0.15 0.7,0.35 L 91.35,6 91.8,6.45 91.65,5.8 91.15,4.7 90.4,3.95 90.05,3.7 Q 88.75,2.9 86.45,2.9 83.7,2.9 82.8,4 L 82.75,4.2 82.45,4.75 82.3,6.2 81.85,7.35 q -1.05,2 -3.6,2.25 l 0.15,1.6 -0.4,4.5 v 15.7 l -0.65,0.25 q -1.25,0 -0.65,-4.7 V 15.85 L 76.3,11.2 76.5,9.55 Q 73.6,9.3 72.45,7.55 L 71.95,6.4 71.85,5.55 V 5.3 5.25 L 70.3,3.9 Q 68.8,2.5 67.35,2.5 64.9,2.5 63.6,4 l -0.2,0.2 -0.55,0.85 -0.45,1.3 q 0.55,-0.65 1.55,-0.9 l 0.6,-0.1 0.65,-0.05 q 2,-0.1 2.8,1 l 0.55,0.85 0.1,1.5 V 9.1 10 l -0.1,0.45 q -0.25,0.9 -1.05,1.5 l -0.65,0.8 q -2.4,2.6 -7.6,3.95 H 54.2 Q 50.75,16.6 46.95,13.85 43,11.05 39.3,10.8 h -5.4 q -6.15,0.65 -10.4,2.1 -2.95,1 -4.95,2.4 l -0.5,0.4 q -2.5,1.8 -5.95,5.15 l -0.55,0.5 q -2.7,1.9 -4.45,5.5 l -0.2,0.5 -3.7,7.5 0.95,-2.25 Q 3.5,32.4 3.5,31.65 3.5,25.85 11,18.7 20.15,9.9 33.9,8.45 h 5.75 q 6.4,1.6 9.45,4.3 2.25,2 5.5,2 6.3,0 9.85,-2.5 2.7,-1.9 2.7,-3.85 V 7.7 L 67.05,7.35 66.75,7.1 66.05,6.9 Q 64.8,7 64.15,7.5 63.5,7.9 63.5,8.4 v 0.05 l 0.4,0.3 0.45,0.5 0.1,0.15 -0.1,0.2 q -0.2,0.45 -0.9,0.45 -1.35,0 -1.65,-0.9 l -0.05,-0.2 q -0.4,-0.45 -0.65,-1.6 -0.15,-0.9 -0.15,-1.8 0,-3.7 5.85,-4.4 4.6,-0.5 5.55,1.8 Q 72.75,2.1 73.5,1.45 75,0.15 77.15,0 79.3,-0.15 80.8,1 81.7,1.65 82.1,2.65 L 82.9,2.1 Q 84.6,1.2 87.05,1.3 93,1.5 93,5.55 L 92.65,7.3 92.3,8.25 V 8.3 9.15 q -0.3,0.9 -1.65,0.9 -0.7,0 -0.9,-0.45 l -0.1,-0.2 0.1,-0.15 0.45,-0.5 0.4,-0.3 V 8.4 Q 90.6,7.9 89.95,7.5 89.3,7 88.05,6.9 q -0.8,0.1 -1,0.45 l -0.1,1.05 q 0,1.95 2.7,3.85 3.55,2.5 9.85,2.5 3.25,0 5.5,-2 3.05,-2.7 9.45,-4.3 h 5.75 q 13.75,1.45 22.9,10.25 3.7,3.5 5.55,6.7 1.05,1.8 1.55,3.5 0.4,1.4 0.4,2.75 0,0.6 -0.4,0.85 l -0.25,0.1 -0.2,-0.35 m -25.2,6.7 h 0.3 l -0.2,-2.55 q -0.45,-1.3 -2.05,-2.75 -1.7,-1.55 -3.9,-2.45 l -5.3,-0.05 q 4.1,3.25 6.35,4 l -1.5,0.3 q -0.8,0 -6.35,-3.9 -0.75,-0.55 -1.45,-0.95 l -3.5,-1.25 q -4.2,-1.5 -7.2,-1.5 -11.5,0 -17.55,5.8 l -2.1,2.45 q -0.55,1.25 -0.55,2 L 79.6,39 h 2.65 l 42.3,-0.05 M 78.1,36.15 q 0.7,-2.25 2.75,-4.25 3,-3 8.15,-4.6 11.6,-3.6 23.5,1.6 l 6.65,0.1 q 5,2.5 6.8,4.9 1.35,1.85 1.35,4.75 v 0.3 h 22.9 4.6 q 0.6,-0.1 0.95,0.4 L 156,40 q 0,1 -1.2,1.05 H 150.2 141.7 19.05 6.7 1.2 Q 0,41 0,40 L 0.25,39.35 Q 0.6,38.85 1.2,38.95 L 28.7,39 v -0.35 q 0,-2.9 1.35,-4.75 1.8,-2.4 6.8,-4.9 l 6.65,-0.1 q 11.9,-5.2 23.5,-1.6 5.15,1.6 8.15,4.6 1.9,1.85 2.65,3.95 L 78,36.5 78.1,36.15 M 79.6,2.55 Q 78.7,1.9 77.1,1.65 75.55,1.4 74.7,2.15 l -0.15,0.1 q -0.95,0.85 -0.95,3 0,0.7 0.9,1.45 1.15,0.95 2.95,0.95 2.05,0 2.8,-1.55 L 80.6,4.6 Q 80.6,3.65 80.1,3 L 79.6,2.55 M 73.7,39 h 1.3 1.4 q -0.05,-0.4 0.05,-0.9 0,-0.75 -0.55,-2 l -2.1,-2.45 q -6.05,-5.8 -17.55,-5.8 -3,0 -7.2,1.5 l -3.5,1.25 -1.45,0.95 q -5.55,3.9 -6.35,3.9 l -1.5,-0.3 q 2.25,-0.75 6.35,-4 l -5.3,0.05 q -2.2,0.9 -3.9,2.45 -1.6,1.45 -2.05,2.75 l -0.2,2.6 h 1.45 0.2 0.05 1.45 19.8 19.6"
         fill="#9a9a9a"
         fill-rule="evenodd"
         stroke="none"
         id="path48" />
      <path
         d="m 124.85,38.95 v -0.1 h 2.45 v 0.1 h 27.5 q 0.6,-0.1 0.95,0.4 L 156,40 q 0,1 -1.2,1.05 H 1.2 Q 0,41 0,40 L 0.25,39.35 Q 0.6,38.85 1.2,38.95 L 28.7,39 v -0.15 h 2.45 V 39 h 1.45 0.2 0.05 1.45 19.8 19.6 1.3 1.4 v -0.15 h 3.25 L 79.6,39 124.85,38.95"
         fill="#6b6b6b"
         fill-rule="evenodd"
         stroke="none"
         id="path49" />
    </g>
    <g
       id="sprite1"
       transform="translate(39.3,51.75)">
      <use
         ffdec:characterId="986"
         height="103.55"
         transform="translate(-39.3,-51.75)"
         width="78.599998"
         xlink:href="#shape1"
         id="use49" />
    </g>
    <g
       id="shape1"
       transform="translate(39.3,51.75)">
      <path
         d="m -22.3,-48.5 1.5,1.8 0.2,0.2 0.05,0.05 1.95,2.2 q 0.5,1.1 2,2.1 l 0.05,0.05 0.15,0.15 0.3,0.3 1.35,2.75 0.05,0.1 0.95,1.95 0.1,0.15 q 3.65,5.65 8.25,5.65 3.4,0 8.35,-1.6 3.1,-1 6.85,-2.65 l 1.35,-0.6 4.85,-2.4 5.45,-3.05 3.4,-1.9 1.55,-0.9 0.75,-0.4 2.05,-0.7 q 1.15,0 1.7,1.3 0.35,0.9 0.35,2 l -1.05,6.85 q -0.75,3.8 -0.95,6.05 -1.35,4.95 -1.85,8.6 l -0.3,3.6 -0.3,2.95 -0.7,3.7 q -1.65,11.3 -1.65,15.6 0,1.3 0.45,4.05 0.25,2.45 -0.75,3.6 l -0.75,0.7 -4.65,0.75 -3.75,0.75 -0.4,0.1 -0.9,0.35 -0.4,0.4 Q 12.1,17.2 10.7,18 L 10.4,18.15 9.55,18.55 8.9,18.8 8.85,18.75 v -0.1 L 8.8,17.7 9.2,16.95 9,16.3 9.25,14.95 9.5,14.8 Q 9.7,12.05 11.25,4.25 l 1.05,-4.9 0.15,-0.55 3.65,-11.85 q 2.2,-7.25 3.9,-11.7 l -2.55,4.7 0.35,-1 2.25,-4.8 q 4.4,-9.1 4.4,-9.8 l -0.25,-0.6 -0.5,-0.15 q -2.2,3.1 -5.75,9.95 l -0.1,-0.3 0.05,-1.1 q -2.35,3.7 -5.25,7.3 -8.95,11.4 -14.3,11.4 -0.95,0 -1.45,-0.55 2.65,-1.15 6.95,-5.5 l 0.8,-0.8 2.7,-3.05 2.85,-3.9 1.45,-2.05 q 1.65,-2.15 4.65,-5.2 l 2.45,-2.5 0.75,-0.75 0.2,-0.2 3.15,-3.7 -2.85,1.4 0.15,-0.4 0.3,-0.55 -5,3.05 -4.95,2.9 -5.8,6.35 q -7.85,8.15 -9.95,8.15 -1.05,0 -2.2,-0.75 l -4.25,-8.9 q -2.6,-5.65 -5.15,-9.7 l -0.65,-0.95 -1.55,-2.2 h -0.45 l -0.05,0.65 v 0.05 l -0.1,0.45 0.75,2 1.85,5.05 0.2,0.5 2.5,6.75 1.75,4 q 2.9,6.2 5.2,8.65 l 0.2,0.7 0.75,1.35 q 1.95,3 4.95,3 4.25,0 6.25,-0.75 l 0.35,-0.1 0.4,0.1 1.25,0.45 -1.8,2.35 L 4.9,-3.7 Q 4.45,-2.5 3.25,-1 0.8,2.1 -2.95,2.1 -5.5,2.1 -7.6,-2.2 l -2.1,-5.75 -0.05,-0.1 q -1.55,-2.9 -2.6,-6.4 l -0.2,-0.45 -0.75,-1.4 -1.35,-4.8 q -1.7,-5.3 -3.95,-9.3 l -0.3,-0.5 -0.3,0.45 0.45,2.6 0.1,0.45 q -0.35,5.35 -2.2,20.65 l 0.4,12.85 q -0.5,7.3 -4.05,8.7 h -0.1 q -3.85,-0.5 -5.75,-2.35 -0.9,-1.45 -1.6,-2.2 l -0.3,-1.15 q 0,-8.65 3.05,-17.55 l 2.05,-5.25 0.1,-0.2 3.6,-8.1 q 1.5,-3.9 1.6,-7.05 0.55,-1.6 0.55,-2.4 l -0.15,-2.35 -0.05,-0.45 -0.25,-1.3 -0.45,-0.75 q 0,1.5 -0.3,3.4 l -0.25,0.15 q -1.1,1 -1.45,3.9 l -0.35,2.8 -0.1,0.15 -4,10.3 h 0.2 l 0.95,-1.7 -1.6,3.35 -3.9,8.55 -0.75,1.85 -0.35,1.3 -0.5,-0.8 -0.7,-1.1 q -1.15,-1.9 -1.15,-2.75 0,-0.65 5.85,-11.7 4.35,-10.3 4.35,-11.65 l 2.55,-11.25 0.45,-2.2 0.35,-2.25 0.1,-1.45 v -0.25 -0.8 l 0.5,-0.05 m 35.95,83.95 q -1.8,2.65 -2.7,2.8 l 1.4,-1.6 1.3,-1.2 m -33.45,12.5 -0.3,1.25 q 0.05,0.2 -0.7,0.2 h -0.1 l 1.1,-1.45 m 23.9,-87.65 1.35,-0.05 1.2,0.2 -2.55,-0.15 m -14.65,2.5 -0.15,-0.15 -1,-1.25 -0.05,-0.05 q 0.45,-0.05 0.5,-0.2 l 0.15,-0.6 q 2.7,0.75 4.8,0.65 l 13.2,0.85 h 0.7 0.35 l -0.5,0.2 -1.15,0.45 -0.55,0.2 q -3.35,1.3 -5.9,2.05 -5.7,-0.35 -9.45,-1.75 l -0.95,-0.4 m 32.9,54.3 2.75,-0.25 1.4,3.2 q 0.9,2.3 1.3,4.5 L 26.95,23.6 q -0.7,-0.55 -1.65,-0.75 l -2.95,-5.3 V 17.1 M 14.4,11.55 v -0.5 l -0.15,0.85 0.05,0.15 0.25,0.15 -0.15,-0.65 m 2,19.5 Q 14.05,32 11.65,34.3 l -0.9,0.95 0.8,-2.8 q 1.3,-2.9 5.3,-5.9 l 3.35,-2.2 h 2.35 L 23.6,25 20.5,27.5 q -2.9,2.15 -4.1,3.55 M -15.25,16.6 q 0.55,0.45 0.55,2.15 0,1.15 -0.45,2.6 -0.55,1.95 -1.5,2.1 l -0.5,1.2 -2.45,-0.3 h -0.05 -0.15 -0.4 l -0.85,-0.05 -0.8,0.05 -3.35,0.5 0.2,-1 V 23.8 l 0.35,-1.45 0.2,-1 0.4,-1.7 0.45,-2.2 0.85,0.05 1.7,0.1 h 0.6 0.25 l 2.4,-0.2 0.7,-0.1 0.05,-0.05 1.25,-0.45 0.55,-0.2 m -3.2,27.45 -2.35,1.5 0.1,-3.8 q 0.65,-4.15 3.4,-7.5 l 1.1,-1.1 1.7,0.85 0.35,0.55 -2.45,5.3 -1.85,4.2"
         fill="#c6c6c6"
         fill-rule="evenodd"
         stroke="none"
         id="path50" />
      <path
         d="m 26.8,-13.9 0.3,-2.95 0.3,-3.6 q 0.5,-3.65 1.85,-8.6 0.2,-2.25 0.95,-6.05 l 1.05,-6.85 q 0,-1.1 -0.35,-2 -0.55,-1.3 -1.7,-1.3 l -2.05,0.7 -0.75,0.4 -1.55,0.9 -3.4,1.9 -5.45,3.05 -4.85,2.4 -1.35,0.6 q -3.75,1.65 -6.85,2.65 -4.95,1.6 -8.35,1.6 -4.6,0 -8.25,-5.65 l -0.1,-0.15 -0.95,-1.95 -0.05,-0.1 -1.35,-2.75 -0.3,-0.3 -0.15,-0.15 -0.05,-0.05 q -1.5,-1 -2,-2.1 l -1.95,-2.2 -0.05,-0.05 -0.2,-0.2 -1.5,-1.8 -0.4,-0.5 -0.1,0.1 v 0.45 0.8 0.25 l -0.1,1.45 -0.35,2.25 -0.45,2.2 -2.55,11.25 q 0,1.35 -4.35,11.65 -5.85,11.05 -5.85,11.7 0,0.85 1.15,2.75 l 0.7,1.1 0.5,0.8 0.35,-1.3 0.75,-1.85 3.9,-8.55 1.6,-3.35 -0.95,1.7 h -0.2 l 4,-10.3 0.1,-0.15 0.35,-2.8 q 0.35,-2.9 1.45,-3.9 l 0.25,-0.15 q 0.3,-1.9 0.3,-3.4 l 0.45,0.75 0.25,1.3 0.05,0.45 0.15,2.35 q 0,0.8 -0.55,2.4 -0.1,3.15 -1.6,7.05 l -3.6,8.1 -0.1,0.2 -2.05,5.25 q -3.05,8.9 -3.05,17.55 l 0.3,1.15 q 0.7,0.75 1.6,2.2 1.9,1.85 5.75,2.35 h 0.1 l 0.7,0.1 2.4,0.1 3.55,-0.5 0.7,-0.2 q 1.15,-2.8 1.2,-6.55 -0.4,-6.25 0.05,-9.35 l -0.15,-0.8 0.2,-1.9 0.1,-6.8 0.2,-3.85 -1.35,-5 -1.75,-7.45 -0.1,-0.45 -0.45,-2.6 0.3,-0.45 0.3,0.5 q 2.25,4 3.95,9.3 l 1.35,4.8 1.3,5.4 q 1.7,7.45 3.6,12.45 l 0.75,1.9 0.15,0.15 -0.05,0.1 q 2.25,5.3 4.3,5.3 4.35,0 12,-16.55 5.35,-11.6 9.2,-18.9 3.55,-6.85 5.75,-9.95 l 0.5,0.15 0.25,0.6 q 0,0.7 -4.4,9.8 l -2.25,4.8 q -3.35,6.95 -4.4,9.5 Q 10.1,-3.7 6.6,2.2 4.2,6.1 2.15,8.4 v 0.65 l -0.05,3.3 q 0,2.15 1.65,3.55 L 6.4,15.6 q 0.55,-8.5 4.05,-19 2.85,-8.55 7,-16.65 l 2.55,-4.7 q -1.7,4.45 -3.9,11.7 L 12.45,-1.2 12.3,-0.65 Q 11.25,2.95 10.05,10.6 L 9.25,14.95 9,16.3 9.2,16.95 8.8,17.7 8.85,18.65 v 0.1 L 8.9,18.8 9.55,18.55 10.4,18.15 10.7,18 q 1.4,-0.8 2.6,-1.9 l 0.4,-0.4 0.9,-0.35 0.4,-0.1 3.75,-0.75 4.65,-0.75 3.9,0.15 2.7,-0.1 Q 28.7,12 27.5,5.35 q -1.1,-6.1 -1.1,-9.7 0,-5.3 0.4,-9.55 m -21.7,7.25 -0.35,0.1 q -2,0.75 -6.25,0.75 -3,0 -4.95,-3 l -0.75,-1.35 -0.2,-0.7 q -2.3,-2.45 -5.2,-8.65 l -1.75,-4 -2.5,-6.75 -0.2,-0.5 -1.85,-5.05 -0.75,-2 0.1,-0.45 v -0.05 l 0.05,-0.65 h 0.45 l 1.55,2.2 0.65,0.95 q 2.55,4.05 5.15,9.7 l 4.25,8.9 2.65,4.75 q 6.2,-3.7 13.4,-13.2 5.2,-6.85 11.4,-10.3 l 2.85,-1.4 -3.15,3.7 -0.2,0.2 -0.75,0.75 -2.45,2.5 q -3,3.05 -4.65,5.2 l -1.45,2.05 -2.85,3.9 -2.7,3.05 -0.8,0.8 q -4.3,4.35 -6.95,5.5 l -0.55,0.2 q 2.95,2.15 6.8,2.15 L 4.1,-7.6 5,-7.9 q 0.75,0 1,0.55 l -0.9,0.7 m 1.55,-32.9 4.85,0.1 2.15,-1 2.1,-1 1.35,-0.95 q 3.75,-2.5 6.9,-3.9 10.05,-4.45 10.05,3.95 0,2.65 -1.1,8 -0.7,3.15 -0.95,5.8 -0.85,1.7 -1.4,3.3 -0.85,3.65 -1.15,5.85 l 0.05,0.25 q -0.4,3.35 -0.4,5.9 0,9.4 0.4,12.75 l 1.3,7.65 0.2,0.6 2.6,6.25 q 0,1.95 -0.7,2.25 l -0.55,0.15 0.05,0.3 -0.2,-0.25 -4.85,0.25 0.45,0.85 0.6,1.75 q 2.1,4.45 2.1,8.65 l -0.15,2.7 q -0.55,2.1 -2.6,2.05 l -3,0.05 L 24,32.9 22.8,32.85 Q 22.6,33.2 22.55,32.8 l -3.65,0.05 q -3.2,0.9 -5.25,2.6 l -1.3,1.2 -1.4,1.6 -1,1.15 L 9.5,41 9.2,41.1 Q 8,40.7 7.65,39.35 l -0.1,-1.8 q 0,-3.6 3.05,-7.85 Q 13.25,26 17,24.3 L 9.05,23.9 Q 8.2,23.75 7.65,23.4 L 7.5,23.45 q -0.75,0 -0.9,-0.55 V 22.2 L 6.7,21.8 6.65,21.2 V 21.15 L 6.5,20.7 V 19.8 L 6.3,18.75 V 18.6 L 5,18.65 q -3.8,0 -4.85,-3.9 l -0.3,-3.7 0.05,-0.6 q -1.65,1.15 -3.1,1.15 l -1,-0.1 0.35,1.25 q 0.4,4.8 0.4,9.55 0,2.2 -0.6,3.7 -1.15,2.8 -4,2.95 0.85,2.05 0.85,3.6 0,1.8 -0.35,3.45 -0.45,1.9 -1.25,2.6 -0.4,1.3 -1.35,2.25 l -3.75,2.55 q -3.7,2.05 -5.9,4.55 l -1.1,1.45 -0.1,0.15 q -0.2,1.25 -0.7,2.1 l -0.3,-0.25 -0.2,0.35 -0.3,0.05 -0.25,-0.7 -0.3,-0.9 v -0.3 l -0.05,-1.2 q 0,-6.25 1.05,-9.6 1.3,-4.15 4.35,-6.65 l -4.85,-2.5 -3.6,-2.1 q -0.5,-0.1 -0.8,-0.55 l -0.3,-0.75 0.05,-0.3 -0.1,-0.55 -0.1,-1.7 0.55,-4.95 q 0.15,-1.2 0.6,-2.15 -2.7,-0.75 -4.65,-2.3 -1.8,-1.45 -2.3,-2.55 -0.9,-0.9 -1.3,-2.1 -0.4,-1.25 -0.4,-4.6 l 0.05,-1.3 -2.4,-4.5 q -2.05,-4.4 -2.05,-5.3 0,-2.2 5,-13.3 l 5.5,-12.15 3.2,-13.7 -0.15,-3.65 q 0,-1.7 1.05,-2.7 1.35,-1.25 3.45,0.5 1.1,0.7 2.15,2.45 l 0.8,0.75 0.15,-0.25 2,2.05 0.1,-0.3 0.25,0.55 q 1.9,1.45 4.8,2.6 6.05,2.5 15.1,3.2 l 2.55,0.15 m -6.8,4.5 q 2.55,-0.75 5.9,-2.05 l 0.55,-0.2 1.15,-0.45 0.5,-0.2 H 7.6 6.9 L -6.3,-38.8 q -2.1,0.1 -4.8,-0.65 l -0.15,0.6 q -0.05,0.15 -0.5,0.2 l 0.05,0.05 1,1.25 0.15,0.15 q 2.75,3.15 4.85,3.15 2.05,0 5.55,-1 m 39.25,29.5 0.2,0.2 v 0.25 l -0.25,-0.3 0.05,-0.15 m -13.8,28.4 q 0.95,0.2 1.65,0.75 l 0.85,0.95 q -0.4,-2.2 -1.3,-4.5 l -1.4,-3.2 -2.75,0.25 -4.45,0.75 q -1.4,0.5 -6,3.1 l -1.05,0.6 0.4,0.1 q 3.8,1.05 7.1,1.15 l 3.45,-0.1 0.45,0.05 0.5,0.05 2.55,0.05 M 23.6,25 22.55,24.35 H 20.2 l -3.35,2.2 q -4,3 -5.3,5.9 l -0.8,2.8 0.9,-0.95 q 2.4,-2.3 4.75,-3.25 1.3,-0.55 2.65,-0.7 l 5.25,-0.1 q 0.9,-1.1 0.9,-2.15 0,-1.5 -1.15,-2.7 L 23.6,25 m -40.75,-0.35 3.5,0.65 5.6,0.95 q 1.85,0 2.35,-5.85 l 0.15,-6 -0.25,-1.95 -0.3,-1.95 q -2.4,-1.9 -4.45,-7 -1.6,-3.9 -3.1,-10.6 l -0.4,1.4 -0.05,0.2 0.05,1.35 q 0.55,15.35 0.55,18.65 0,1 -0.75,1.6 l -1,0.5 -0.55,0.2 -1.25,0.45 -0.05,0.05 -0.7,0.1 -2.4,0.2 h -0.25 -0.6 l -1.7,-0.1 -0.85,-0.05 -0.45,2.2 -0.4,1.7 -0.2,1 -0.35,1.45 v 0.05 l -0.2,1 3.35,-0.5 0.8,-0.05 0.85,0.05 h 0.4 0.15 0.05 l 2.45,0.3 m 3,9.9 -0.35,-0.55 -1.7,-0.85 -1.1,1.1 q -2.75,3.35 -3.4,7.5 l -0.1,3.8 2.35,-1.5 0.55,-0.3 q 4.05,-2.25 6.45,-5.05 l -2.7,-4.15 m 4.05,-6 -4.45,-0.65 -2.9,-0.5 -2,-0.4 -2.8,0.15 q 1.45,0.6 4.55,1.95 1.15,0.5 2.1,1.2 2.15,0.15 4.2,3.25 l 1.1,1.8 0.25,-0.55 q 0.6,-0.9 0.6,-2.15 0,-1.25 -0.45,-3.15 l -0.2,-0.95"
         fill="#9a9a9a"
         fill-rule="evenodd"
         stroke="none"
         id="path51" />
      <path
         d="m -13.3,-16.3 0.75,1.4 0.2,0.45 q 1.05,3.5 2.6,6.4 l 0.05,0.1 2.1,5.75 q 2.1,4.3 4.65,4.3 3.75,0 6.2,-3.1 1.2,-1.5 1.65,-2.7 L 4.95,-3.75 6.75,-6.1 5.5,-6.55 5.1,-6.65 6,-7.35 Q 5.75,-7.9 5,-7.9 l -0.9,0.3 -0.95,0.25 q -3.85,0 -6.8,-2.15 l 0.55,-0.2 q 0.5,0.55 1.45,0.55 5.35,0 14.3,-11.4 2.9,-3.6 5.25,-7.3 l -0.05,1.1 0.1,0.3 q -3.85,7.3 -9.2,18.9 Q 1.1,9 -3.25,9 -5.3,9 -7.55,3.7 L -7.5,3.6 -7.65,3.45 -8.4,1.55 q -1.9,-5 -3.6,-12.45 l -1.3,-5.4 m 5.85,-0.9 q 1.15,0.75 2.2,0.75 2.1,0 9.95,-8.15 l 5.8,-6.35 4.95,-2.9 5,-3.05 -0.3,0.55 -0.15,0.4 q -6.2,3.45 -11.4,10.3 -7.2,9.5 -13.4,13.2 l -2.65,-4.75 m 25.25,-3.85 -0.35,1 q -4.15,8.1 -7,16.65 -3.5,10.5 -4.05,19 L 3.75,15.9 Q 2.1,14.5 2.1,12.35 L 2.15,9.05 V 8.4 Q 4.2,6.1 6.6,2.2 q 3.5,-5.9 6.8,-13.75 1.05,-2.55 4.4,-9.5 m 5.6,34.8 0.75,-0.7 q 1,-1.15 0.75,-3.6 -0.45,-2.75 -0.45,-4.05 0,-4.3 1.65,-15.6 l 0.7,-3.7 q -0.4,4.25 -0.4,9.55 0,3.6 1.1,9.7 1.2,6.65 2.5,8.45 l -2.7,0.1 -3.9,-0.15 m -33.95,-50.95 0.95,0.4 q 3.75,1.4 9.45,1.75 -3.5,1 -5.55,1 -2.1,0 -4.85,-3.15 m 32.9,54.3 v 0.45 l 2.95,5.3 -2.55,-0.05 -0.5,-0.05 -0.45,-0.05 -3.45,0.1 q -3.3,-0.1 -7.1,-1.15 l -0.4,-0.1 1.05,-0.6 q 4.6,-2.6 6,-3.1 l 4.45,-0.75 m 1.25,7.9 0.45,0.4 q 1.15,1.2 1.15,2.7 0,1.05 -0.9,2.15 l -5.25,0.1 q -1.35,0.15 -2.65,0.7 1.2,-1.4 4.1,-3.55 L 23.6,25 m -38.85,-8.4 1,-0.5 q 0.75,-0.6 0.75,-1.6 0,-3.3 -0.55,-18.65 l -0.05,-1.35 0.05,-0.2 0.4,-1.4 q 1.5,6.7 3.1,10.6 2.05,5.1 4.45,7 l 0.3,1.95 0.25,1.95 -0.15,6 q -0.5,5.85 -2.35,5.85 l -5.6,-0.95 -3.5,-0.65 0.5,-1.2 q 0.95,-0.15 1.5,-2.1 0.45,-1.45 0.45,-2.6 0,-1.7 -0.55,-2.15 m -3.2,27.45 1.85,-4.2 2.45,-5.3 2.7,4.15 q -2.4,2.8 -6.45,5.05 l -0.55,0.3 m 8.35,-15.5 0.2,0.95 q 0.45,1.9 0.45,3.15 0,1.25 -0.6,2.15 l -0.25,0.55 -1.1,-1.8 q -2.05,-3.1 -4.2,-3.25 -0.95,-0.7 -2.1,-1.2 -3.1,-1.35 -4.55,-1.95 l 2.8,-0.15 2,0.4 2.9,0.5 4.45,0.65"
         fill="#bbbbbb"
         fill-rule="evenodd"
         stroke="none"
         id="path52" />
      <path
         d="m -24.5,14.8 q 3.55,-1.4 4.05,-8.7 l -0.4,-12.85 q 1.85,-15.3 2.2,-20.65 l 1.75,7.45 1.35,5 -0.2,3.85 -0.1,6.8 -0.2,1.9 0.15,0.8 q -0.45,3.1 -0.05,9.35 -0.05,3.75 -1.2,6.55 l -0.7,0.2 -3.55,0.5 -2.4,-0.1 -0.7,-0.1"
         fill="#c0c0c0"
         fill-rule="evenodd"
         stroke="none"
         id="path53" />
    </g>
    <g
       id="sprite2"
       transform="translate(8.4,47.75)">
      <use
         ffdec:characterId="988"
         height="95.550003"
         transform="translate(-8.4,-47.75)"
         width="16.799999"
         xlink:href="#shape2"
         id="use53" />
    </g>
    <g
       id="shape2"
       transform="translate(8.4,47.75)">
      <path
         d="m 0.35,-45.3 0.4,1.85 0.1,3.65 v 14.7 l 0.2,1.35 0.05,0.4 H 1.05 l -2.25,-0.1 0.15,-1.75 v -14.6 l 0.3,-5.5 h 0.7 0.4 m -1.65,23.5 2.2,-0.1 h 0.3 l 0.05,1.05 h -0.5 l -2.1,-0.05 0.05,-0.9 m -0.15,2.9 2.2,-0.05 0.6,-0.05 v 0.65 0.4 q 2.4,0.8 2.7,3 v 0.5 0.5 q -0.15,1 -0.8,1.75 -0.75,0.85 -1.9,1.1 v 1.85 H 1.3 L 0.75,-9.3 H 0.2 -0.6 -1.55 v -1.85 L -3,-12 l -0.65,-1.1 -0.3,-2.25 q 0,-2.75 2.5,-2.95 v -0.6 M 1.3,12.3 H -1.45 V 11.95 L -1.5,0 V -0.45 -2.3 -2.65 l -0.05,-4.6 h 0.4 l 0.3,-0.05 1.2,-0.05 h 0.4 L 1.2,-7.4 H 1.35 L 1.3,12.3 m 0,6.45 H 0.55 L -0.2,18.7 -1.35,18.75 -1.45,18.5 V 17.85 L -2,17.75 -2.6,17.25 -2.75,17.15 -2.8,17.1 -3.3,16.65 -3.6,15.45 q 0.45,-0.2 0.85,-0.75 l 0.45,-0.8 h 3.6 v 0.05 q 1.05,0.4 1.05,1.3 0,0.5 -1.05,1.25 v 2.25 M 1.25,25.8 V 26 26.35 L 1.2,29.1 1.25,30.8 v 1.25 2.75 L 1.2,42.45 H 0.25 -1.4 V 40.8 40.7 l 0.1,-2.3 0.05,-5.5 0.05,-3.8 v -0.5 l -0.1,-3.95 -0.15,-2.2 V 22.3 20.5 H 1.3 L 1.25,25.8 M 0.8,44.95 -0.1,44.9 h -1.05 l -0.25,-0.65 0.05,-0.2 H 1.1 l -0.3,0.9"
         fill="#c6c6c6"
         fill-rule="evenodd"
         stroke="none"
         id="path54" />
      <path
         d="M 0.35,-45.3 3,-45.45 q -0.35,2.1 -0.35,6.55 l 0.05,9.7 0.05,0.8 q 0.1,2.8 0.35,5.15 l -2,-0.1 -0.05,-0.4 -0.2,-1.35 v -14.7 l -0.1,-3.65 -0.4,-1.85 m -1.55,21.85 -1.85,-0.1 q 0.25,-2.55 0.35,-5.65 l 0.05,-9.7 q 0,-4.3 -0.3,-6.4 h 2.2 l -0.3,5.5 v 14.6 l -0.15,1.75 m -0.1,1.65 -0.05,0.9 h -1.2 -0.3 l -0.5,-0.6 0.05,-0.3 h 1 1 m 2.55,0.95 -0.05,-1.05 2.05,-0.1 0.1,0.5 -0.6,0.7 -1.5,-0.05 m -2.7,1.95 v 0.6 q -2.5,0.2 -2.5,2.95 l 0.3,2.25 0.65,1.1 1.45,0.85 v 1.85 l -1.8,0.05 -0.3,-0.25 q -1.45,-1.15 -1.45,-3.3 0,-2.4 1.45,-4.65 l 0.9,-1.45 h 0.3 1 m 2.8,9.65 v -1.85 q 1.15,-0.25 1.9,-1.1 0.65,-0.75 0.8,-1.75 v -0.5 -0.5 q -0.3,-2.2 -2.7,-3 v -0.4 -0.65 l 1.25,-0.15 1.05,1.7 0.4,0.65 q 1.05,1.95 1.05,4 0,1.85 -1.05,2.95 l -0.4,0.35 -0.3,0.3 -2,-0.05 m 0,1.85 0.5,-0.1 0.45,-0.05 -0.2,0.6 Q 1.8,-6 1.65,-4.7 l -0.1,3.2 0.1,5.15 v 5.8 l 0.2,2.85 H 1.3 L 1.35,-7.4 M -1.6,12.3 h -0.25 l 0.2,-2.85 V 3.65 L -1.6,2.2 -1.5,0 -1.45,11.95 -1.6,12.3 m 0.1,-14.95 -0.15,-2.05 -0.5,-2.55 h 0.6 l 0.05,4.6 M 1.3,13.9 h 1 l 0.45,0.8 q 0.55,0.7 1.1,0.8 L 3.4,16.6 2.6,17.25 2.15,17.65 Q 1.5,18.2 1.4,18.75 H 1.3 V 16.5 q 1.05,-0.75 1.05,-1.25 0,-0.9 -1.05,-1.3 V 13.9 m -2.75,4.6 -0.55,-0.75 0.55,0.1 V 18.5 M -3.3,16.65 q -0.55,-0.6 -0.55,-1.15 l 0.25,-0.05 0.3,1.2 m 4.6,3.85 h 0.15 l 0.2,-0.1 -0.2,2.05 -0.2,3.35 0.05,-5.3 M 1.25,34.8 1.3,38.35 v 0.05 l 0.25,4.05 H 1.2 L 1.25,34.8 m -2.65,7.65 h -0.1 l 0.05,-0.7 v -0.4 L -1.4,40.8 v 1.65 M -1.45,22.3 -1.6,20.7 -1.65,20.5 h 0.2 v 1.8 M 1.85,45 1.8,45.1 0.8,44.95 1.1,44.05 H 1.7 L 1.85,45 m -3,-0.1 -0.65,0.05 0.1,-0.75 v -0.15 h 0.35 l -0.05,0.2 0.25,0.65"
         fill="#bbbbbb"
         fill-rule="evenodd"
         stroke="none"
         id="path55" />
      <path
         d="m 1.1,-23.35 2,0.1 Q 2.85,-25.6 2.75,-28.4 L 2.7,-29.2 2.65,-38.9 q 0,-4.45 0.35,-6.55 l -2.65,0.15 h -0.4 -0.7 -2.2 q 0.3,2.1 0.3,6.4 l -0.05,9.7 q -0.1,3.1 -0.35,5.65 l 1.85,0.1 2.25,0.1 H 1.1 m 4.85,-20.5 0.05,3.2 v 18.7 l 1.5,3.35 q 0.9,1.8 0.9,3.35 0,5.7 -1.75,8.05 Q 4.9,-4.85 4.9,3.25 v 6.2 q 0,2.35 1.15,3.35 1.1,1.05 1.1,2.45 0,1.15 -0.8,2.9 Q 5.5,20 4.2,20.5 q 0.35,1.4 0.5,3.6 l 0.05,5.05 v 9.5 q -0.3,9 -1.75,9 H 2.85 L 0.2,47.8 -2.7,47.55 -3,47.65 -3.55,47.25 -3.75,47.1 -3.95,46.35 V 46.3 L -4.4,43.75 -4.65,43.45 Q -4.9,42.85 -4.6,42.7 h 0.1 l -0.25,-4.05 v -9.5 L -4.7,24.1 q 0.15,-2.2 0.5,-3.6 -1.3,-0.5 -2.15,-2.35 -0.8,-1.75 -0.8,-2.9 0,-1.4 1.1,-2.45 1.15,-1 1.15,-3.35 v -6.2 q 0,-8.1 -1.75,-10.45 -1.75,-2.35 -1.75,-8.05 0,-1.55 0.9,-3.35 l 1.5,-3.35 v -0.15 l -0.5,-0.85 0.5,-0.2 v -17.5 l 0.05,-3.2 q 0.1,-1.65 0.9,-2.5 L -5.1,-46.6 q 0,-0.7 0.45,-0.9 l 2.7,-0.25 6.4,0.4 q 0.45,0.1 0.45,0.8 0.95,0.85 1.05,2.7 M 1.2,-21.9 H 0.9 l -2.2,0.1 h -1 -1 l -0.05,0.3 0.5,0.6 h 0.3 1.2 l 2.1,0.05 h 0.5 l 1.5,0.05 0.6,-0.7 -0.1,-0.5 -2.05,0.1 m 0.15,2.9 -0.6,0.05 -2.2,0.05 h -1 -0.3 l -0.9,1.45 q -1.45,2.25 -1.45,4.65 0,2.15 1.45,3.3 l 0.3,0.25 1.8,-0.05 h 0.95 0.8 0.55 l 0.55,0.05 h 0.05 l 2,0.05 0.3,-0.3 0.4,-0.35 q 1.05,-1.1 1.05,-2.95 0,-2.05 -1.05,-4 L 3.65,-17.45 2.6,-19.15 1.35,-19 M 1.3,12.3 H 1.85 L 1.65,9.45 V 3.65 L 1.55,-1.5 1.65,-4.7 Q 1.8,-6 2.1,-6.95 l 0.2,-0.6 -0.45,0.05 -0.5,0.1 H 1.2 l -0.45,0.05 h -0.4 l -1.2,0.05 -0.3,0.05 h -0.4 -0.6 l 0.5,2.55 0.15,2.05 V -2.3 -0.45 0 l -0.1,2.2 -0.05,1.45 v 5.8 l -0.2,2.85 h 0.25 0.15 2.75 m 0,6.45 H 1.4 Q 1.5,18.2 2.15,17.65 L 2.6,17.25 3.4,16.6 3.85,15.5 Q 3.3,15.4 2.75,14.7 L 2.3,13.9 h -1 -3.6 l -0.45,0.8 q -0.4,0.55 -0.85,0.75 l -0.25,0.05 q 0,0.55 0.55,1.15 l 0.5,0.45 0.05,0.05 0.15,0.1 0.6,0.5 0.55,0.75 0.1,0.25 1.15,-0.05 0.75,0.05 H 1.3 m -0.05,7.05 0.2,-3.35 0.2,-2.05 -0.2,0.1 H 1.3 -1.45 -1.65 l 0.05,0.2 0.15,1.6 v 0.15 l 0.15,2.2 0.1,3.95 v 0.5 l -0.05,3.8 -0.05,5.5 -0.1,2.3 v 0.1 l -0.05,0.55 v 0.4 l -0.05,0.7 H -1.4 0.25 1.2 1.55 L 1.3,38.4 V 38.35 L 1.25,34.8 V 32.05 30.8 L 1.2,29.1 1.25,26.35 V 26 25.8 M 1.8,45.1 H 1.85 V 45 L 1.7,44.05 H 1.1 -1.35 -1.7 v 0.15 l -0.1,0.75 0.65,-0.05 h 1.05 l 0.9,0.05 1,0.15"
         fill="#9a9a9a"
         fill-rule="evenodd"
         stroke="none"
         id="path56" />
    </g>
    <g
       id="sprite3"
       transform="translate(8.4,24.15)">
      <use
         ffdec:characterId="990"
         height="48.299999"
         transform="translate(-8.4,-24.15)"
         width="16.799999"
         xlink:href="#shape3"
         id="use56" />
    </g>
    <g
       id="shape3"
       transform="translate(8.4,24.15)">
      <path
         d="m 1.6,-19.1 0.05,0.15 1.15,3.65 0.25,7.55 -0.15,4.9 v 1.8 L 2.8,0.3 2.75,0.8 Q 2.35,4.5 1.4,6.45 l 0.05,-0.9 0.15,-3 0.35,-8.05 -0.3,-2.25 q -0.6,2.1 -0.8,6.6 l -0.3,4.35 -0.4,2.55 -0.3,1.9 -0.1,0.75 -0.2,1.25 q -0.65,0.9 -1.4,1.15 V 10.7 L -1.95,9.8 -2.05,8.6 -2.1,8.4 -2.15,8 -2.3,7.1 H -2.55 L -2.75,8.4 -2.95,9.45 -3,9.95 -3.15,10.7 -3.95,10 -4.25,9.1 -3.9,7.45 -3.95,7.35 -4.4,6 -4.2,1.25 -2.85,0.7 -2.65,0.5 -3,0.3 -4.1,0.05 -4,-0.7 l 0.6,-0.1 2.3,-0.5 -0.25,-0.3 -0.3,-0.05 -2.05,-0.1 h -0.2 q 0.85,-6.8 3.25,-13.75 l 0.25,-0.7 q 1.1,-2.95 1.9,-2.9 h 0.1"
         fill="#ffffff"
         fill-rule="evenodd"
         stroke="none"
         id="path57" />
      <path
         d="M 2.8,-15.3 1.65,-18.95 1.6,-19.1 1.55,-19.25 0.7,-21.35 H 0.5 l -3.2,9.5 q -2.4,7.3 -2.9,10.3 l 1.35,-0.1 v -0.1 h 0.35 0.2 l 2.05,0.1 0.3,0.05 0.25,0.3 -2.3,0.5 -0.6,0.1 -0.85,0.1 -0.9,0.05 -0.05,0.4 0.05,0.35 H -5.7 L -4.1,0.05 -3,0.3 -2.65,0.5 -2.85,0.7 -4.2,1.25 -5.3,1.4 -5.15,1.7 q 0.7,1 0.7,1.9 0,1 -0.85,1.9 -0.85,0.85 -0.85,1.25 0,2.05 1.9,4.5 l 0.8,1.1 0.3,-1.65 0.15,-0.75 0.05,-0.5 0.2,-1.05 0.2,-1.3 h 0.25 l 0.15,0.9 0.05,0.4 0.05,0.2 0.1,1.2 0.1,0.9 v 0.1 l 0.1,0.75 0.1,1.2 v 0.3 q 0,1.35 -1.05,7.05 l 1.15,0.05 V 19.4 L -0.8,12.6 -0.75,12.1 -0.7,11.65 -0.45,9.7 V 9.65 l 0.2,-1.25 0.1,-0.75 0.3,-1.9 0.4,-2.55 0.3,-4.35 q 0.2,-4.5 0.8,-6.6 l 0.3,2.25 -0.35,8.05 -0.15,3 -0.05,0.9 -0.1,1 -0.3,3.8 0.55,-0.8 Q 3.4,7.95 4.65,5.35 L 5.2,1.95 5.55,-1.8 q 0,-2.95 -1.9,-10.25 L 2.8,-15.3 m 5.6,13.4 q 0,4.3 -1.9,9.4 -2.35,6.05 -5.45,6.05 L 0.7,13.5 0.4,15.3 0.2,16.85 0.6,21.3 0.4,23.2 q -0.45,0.95 -1.95,0.95 -1.8,0 -2.7,-0.75 -0.6,-0.5 -0.6,-1.05 l 1.05,-7.8 Q -6.9,14.4 -7.95,11.55 -8.4,10.25 -8.4,8 q 0,-1.15 0.85,-2.7 l 0.8,-1.55 q 0,-0.25 -0.75,-1.6 L -7.8,1.4 H -7.9 L -7.95,1.25 H -7.9 L -8.25,-0.2 q 0,-4.4 2.6,-12.75 2.7,-8.65 4.9,-10.5 3.7,-3.1 6.75,7.75 2.4,8.55 2.4,13.8 m -9.75,23.65 0.1,-0.05 0.05,-0.2 0.05,-0.05 -0.15,0.05 -0.95,0.15 0.6,0.1 h 0.3"
         fill="#6b6b6b"
         fill-rule="evenodd"
         stroke="none"
         id="path58" />
      <path
         d="m 1.5,-19.1 q -0.8,-0.05 -1.9,2.9 l -0.25,0.7 q -2.4,6.95 -3.25,13.75 h -0.35 v 0.1 l -1.35,0.1 q 0.5,-3 2.9,-10.3 l 3.2,-9.5 h 0.2 l 0.85,2.1 -0.05,0.15 M -4,-0.7 -4.1,0.05 -5.7,0.2 H -5.75 L -5.8,-0.15 -5.75,-0.55 -4.85,-0.6 -4,-0.7 M -4.2,1.25 -4.4,6 l 0.45,1.35 0.05,0.1 -0.35,1.65 0.3,0.9 0.8,0.7 -0.3,1.65 -0.8,-1.1 q -1.9,-2.45 -1.9,-4.5 0,-0.4 0.85,-1.25 0.85,-0.9 0.85,-1.9 0,-0.9 -0.7,-1.9 L -5.3,1.4 -4.2,1.25 m 2.35,9.55 q 0.75,-0.25 1.4,-1.15 V 9.7 l -0.25,1.95 -0.05,0.45 -0.05,0.5 -0.75,6.8 v 0.75 L -2.7,20.1 q 1.05,-5.7 1.05,-7.05 v -0.3 l -0.1,-1.2 -0.1,-0.75 M 1.4,6.45 Q 2.35,4.5 2.75,0.8 L 2.8,0.3 2.9,-1.05 v -1.8 l 0.15,-4.9 -0.25,-7.55 0.85,3.25 q 1.9,7.3 1.9,10.25 L 5.2,1.95 4.65,5.35 q -1.25,2.6 -3.1,5.1 l -0.55,0.8 0.3,-3.8 0.1,-1 m -2.7,15.05 -0.05,0.25 h -0.3 l -0.6,-0.1 0.95,-0.15"
         fill="#e0e0e0"
         fill-rule="evenodd"
         stroke="none"
         id="path59" />
    </g>
    <g
       id="sprite4"
       transform="translate(5.6,12.45)">
      <use
         ffdec:characterId="992"
         height="24.950001"
         transform="translate(-5.6,-12.45)"
         width="11.25"
         xlink:href="#shape4"
         id="use59" />
    </g>
    <g
       id="shape4"
       transform="translate(5.6,12.45)">
      <path
         d="m 1.35,-8.85 0.85,-1.1 0.15,-0.1 0.3,0.35 0.4,1.15 0.95,2.8 0.1,1.2 -1.15,3.8 L 1.6,1.7 0.65,2.65 0.8,1.15 v -0.5 l 0.35,-3 L 0.8,-3.7 0.75,-3.55 -0.2,-1.05 -0.6,0.2 -1.35,2.85 Q -1.8,2.65 -2.05,2.3 L -2.3,1.8 -2.45,0.6 q 0,-1.2 1.6,-5 1.15,-2.85 2.2,-4.45"
         fill="#ffffff"
         fill-rule="evenodd"
         stroke="none"
         id="path60" />
      <path
         d="m 2.2,-9.95 -1.15,1.2 q -1.25,1.45 -2.45,3.7 -1.95,3.65 -1.95,5.8 0,1.35 0.8,3.05 l 0.4,0.75 0.25,0.45 0.05,-0.3 0.5,-1.85 0.75,-2.65 0.4,-1.25 0.95,-2.5 0.05,-0.15 0.35,1.35 -0.35,3 v 0.5 l -0.15,1.5 -0.6,3 -0.1,0.3 L -0.2,6.65 0.65,6 1.15,5.55 V 5.5 Q 3.1,3.75 3.55,2.4 4.1,0.65 4.1,-2.7 V -4.55 L 4,-5.75 3.05,-8.55 2.65,-9.7 2.5,-10.2 2.35,-10.05 2.2,-9.95 m 3.45,7.15 q 0,3.3 -0.6,5.55 -1.2,4.95 -4.7,4.95 l -0.7,-0.1 -0.5,3.3 q 0,0.55 -0.25,1 -0.4,0.6 -1.05,0.6 -0.75,0 -1,-0.5 l -0.1,-0.65 0.7,-3.6 Q -3.75,7.4 -4.7,5.15 l -0.9,-2.8 q 0,-3.15 1.75,-7.25 1.7,-4.05 3.85,-6.2 2.35,-2.3 3.85,-0.7 1.8,1.9 1.8,9"
         fill="#6b6b6b"
         fill-rule="evenodd"
         stroke="none"
         id="path61" />
      <path
         d="m 1.05,-8.75 0.3,-0.1 q -1.05,1.6 -2.2,4.45 -1.6,3.8 -1.6,5 l 0.15,1.2 0.25,0.5 q 0.25,0.35 0.7,0.55 L -1.85,4.7 -1.9,5 -2.15,4.55 -2.55,3.8 q -0.8,-1.7 -0.8,-3.05 0,-2.15 1.95,-5.8 1.2,-2.25 2.45,-3.7 M 0.65,2.65 1.6,1.7 2.95,-0.75 4.1,-4.55 V -2.7 Q 4.1,0.65 3.55,2.4 3.1,3.75 1.15,5.5 V 5.55 H 0.95 L 0.65,6 -0.2,6.65 l 0.15,-0.7 0.1,-0.3 0.6,-3"
         fill="#e0e0e0"
         fill-rule="evenodd"
         stroke="none"
         id="path62" />
    </g>
    <g
       id="sprite5"
       transform="translate(8.3,23.6)">
      <use
         ffdec:characterId="994"
         height="47.200001"
         transform="translate(-8.3,-23.6)"
         width="16.65"
         xlink:href="#shape5"
         id="use62" />
    </g>
    <g
       id="shape5"
       transform="translate(8.3,23.6)">
      <path
         d="m -0.4,-18.45 2.25,3.9 0.8,1.5 0.35,3.6 0.05,1.25 q 0.65,0.9 1,2.55 L 4.5,1.05 4.3,5.15 Q 3.95,6.8 3.25,7.7 L 3.1,5.4 3.05,-0.35 3,-2.35 Q 2.9,-6.3 2.25,-8.95 l -0.3,-1 Q 1.55,-9.7 1.5,-9.2 v 0.75 l 0.05,1.05 0.05,2.85 0.05,0.9 0.15,4.9 0.25,7.3 v 0.6 l -0.7,0.75 -0.2,-1.15 -0.3,1.5 -2.1,0.5 q -2.45,0 -3.1,-3 L -4.5,4.7 q 0,-1.65 1.65,-2.25 1.1,-0.4 1.6,-1.75 L -1.3,0.65 h 0.05 L -0.65,0.5 Q -0.3,0.2 -0.3,-0.2 l -0.05,-0.2 -0.25,-0.35 -0.1,-0.1 -0.2,-0.1 -1,-0.4 -2.7,-0.6 -0.2,-0.35 -0.1,-0.35 q 0,-3.25 1.5,-9.75 1.4,-5.9 3,-6.05"
         fill="#ffffff"
         fill-rule="evenodd"
         stroke="none"
         id="path63" />
      <path
         d="m 2.65,-13.05 -0.8,-1.5 -2.25,-3.9 -1.05,-1.85 q -3.9,9.15 -4.35,15 v 3.15 l 0.85,0.15 0.35,0.05 2.7,0.6 1,0.4 0.2,0.1 0.1,0.1 0.25,0.35 0.05,0.2 q 0,0.4 -0.35,0.7 l -0.6,0.15 H -1.3 -1.5 L -2.65,1.6 -5,3.3 -5.15,5.95 q 0,3.9 3.35,6.4 l 1.6,1 0.65,0.35 0.05,-0.3 v -0.2 l 0.35,-2.95 0.3,-1.5 0.2,1.15 0.15,1.4 0.15,2.1 0.05,1.4 0.15,6.45 H 2.55 2.6 V 21 Q 2.3,19 2.35,17.3 L 2.4,16.65 2.25,13.3 2.1,10.55 2.05,9.15 V 8.55 L 1.8,1.25 1.65,-3.65 1.6,-4.55 1.55,-7.4 1.5,-8.45 V -9.2 q 0.05,-0.5 0.45,-0.75 l 0.3,1 Q 2.9,-6.3 3,-2.35 l 0.05,2 0.05,5.75 0.15,2.3 0.3,4.65 1.25,-2.4 Q 6.75,6 6.75,3.6 q 0,-7.7 -1.1,-10.75 -0.5,-1.4 -3,-5.9 m 5.7,12.15 q 0,4.8 -0.45,8 -0.9,6.3 -3.35,7.1 v 0.1 L 4.4,14.5 4.3,20.9 v 1.05 l 0.1,0.45 -0.3,0.7 q -0.45,0.5 -1.5,0.5 -1.9,0 -2.4,-2.3 l -0.15,-2.55 0.2,-3.1 h -0.8 q -2.55,0 -4.7,-3.35 -1.7,-2.6 -1.7,-3.55 L -6.8,4.6 Q -6.6,3.5 -6.25,2.9 V 2.6 q 0,-0.35 1.35,-1.25 l 0.65,-0.4 0.45,-0.3 0.1,-0.05 q -3.6,-0.25 -4.35,-1.4 -0.3,-0.5 -0.2,-1.35 l 0.2,-1.3 q 0,-4.75 1.9,-10.85 1.1,-4.5 2,-6.75 1.7,-4.1 3.85,-1.55 4.8,6.85 6.6,11.1 2.05,4.9 2.05,10.6"
         fill="#6b6b6b"
         fill-rule="evenodd"
         stroke="none"
         id="path64" />
      <path
         d="m -0.4,-18.45 q -1.6,0.15 -3,6.05 -1.5,6.5 -1.5,9.75 L -4.8,-2.3 -4.95,-2 -5.8,-2.15 V -5.3 q 0.45,-5.85 4.35,-15 l 1.05,1.85 m -0.9,19.1 0.05,0.05 q -0.5,1.35 -1.6,1.75 -1.65,0.6 -1.65,2.25 l 0.15,3.05 q 0.65,3 3.1,3 l 2.1,-0.5 -0.35,2.95 v 0.2 l -0.7,-0.05 -1.6,-1 Q -5.15,9.85 -5.15,5.95 L -5,3.3 -2.65,1.6 -1.5,0.65 h 0.2 M 1.35,9.9 2.05,9.15 2.1,10.55 2.25,13.3 2.4,16.65 2.35,17.3 Q 2.3,19 2.6,21 L 2.55,21.25 H 1.85 L 1.7,14.8 1.65,13.4 1.5,11.3 1.35,9.9 M 3.25,7.7 Q 3.95,6.8 4.3,5.15 L 4.5,1.05 4.05,-5.65 Q 3.7,-7.3 3.05,-8.2 L 3,-9.45 2.65,-13.05 q 2.5,4.5 3,5.9 1.1,3.05 1.1,10.75 0,2.4 -1.95,6.35 L 3.55,12.35 3.25,7.7"
         fill="#e0e0e0"
         fill-rule="evenodd"
         stroke="none"
         id="path65" />
    </g>
    <g
       id="sprite6"
       transform="translate(7.2,26.45)">
      <use
         ffdec:characterId="996"
         height="52.900002"
         transform="translate(-7.2,-26.45)"
         width="14.4"
         xlink:href="#shape6"
         id="use65" />
    </g>
    <g
       id="shape6"
       transform="translate(7.2,26.45)">
      <path
         d="M 1.55,-18.65 1.5,-18.8 0.9,-21.65 0.35,-24.6 -2.1,-19.05 Q -5,-11.85 -5,-9.3 l 0.25,6.45 0.15,5.1 0.55,2.85 0.95,3.35 0.7,2.2 0.35,1.2 0.1,-1 0.3,-5.35 0.3,-9.5 q 0.05,-5.05 1.1,-8.2 l 0.3,-0.85 0.1,0.85 0.05,0.65 -0.15,12.1 1.7,-0.7 L 2,-0.3 2.95,-0.65 4.75,-1.25 Q 4.45,-5.1 2.95,-12.2 l -0.4,-1.75 -1,-4.7 m 3.65,4.85 0.3,1.6 0.4,2.2 0.8,4.15 q 0.5,2.5 0.5,6.55 0,4.75 -1.3,9.15 l -0.1,0.3 q -1.9,6.2 -5.6,6.2 l -0.35,-0.05 -0.05,2.1 -0.3,3.9 q -0.25,1.95 -0.65,2.65 l 0.15,0.3 q 0,1.2 -1.25,1.2 -1.2,0 -2.25,-1.15 L -5.3,24.1 -4.05,18.65 -3.1,14.95 -4.05,14.2 -5.3,11.65 -6.65,6.8 Q -7.2,4 -7.2,-1.35 l 0.15,-6.45 q 0.3,-3.75 1.3,-6.15 l 2.3,-6.45 q 1.4,-3.65 3.7,-5.45 0.1,-2.05 2,2.75 1.75,4.65 2.95,9.3 m -5.3,24.6 v 0.15 3.2 L 0.05,14.05 1.2,12.6 Q 3.5,9.95 3.95,7.9 L 4.45,4.9 4.5,4.45 4.75,2.5 2.75,2.6 H 1.1 0.2 L 0.05,2.55 -0.1,10.8 M 2.8,1.9 h 2 L 4.85,0.8 V -0.35 L 2.9,0.5 1.6,1 0.05,1.5 v 0.4 h 1.3 1.45 m -5.4,20.4 0.15,-3.3 -0.6,3.3 -0.1,1.05 0.45,0.45 0.1,-1.5"
         fill="#6b6b6b"
         fill-rule="evenodd"
         stroke="none"
         id="path66" />
      <path
         d="m 0.9,-21.65 q -1,-1.3 -1.75,1.45 -0.7,2.5 -0.7,4.3 l 0.05,0.5 -1,2.4 -0.3,0.8 -1.25,4.55 L -4.2,-6.9 -4.75,-2.85 -5,-9.3 q 0,-2.55 2.9,-9.75 l 2.45,-5.55 0.55,2.95 m 2.05,21 0.15,-2.9 q 0,-5 -0.6,-8.65 -0.5,-3 -1.4,-5.1 l 0.45,-1.35 1,4.7 0.4,1.75 q 1.5,7.1 1.8,10.95 l -1.8,0.6 M 2.75,2.6 4.75,2.5 4.5,4.45 4.45,4.9 3.95,7.9 Q 3.5,9.95 1.2,12.6 l -1.15,1.45 -0.15,0.1 V 10.95 10.8 Q 1.2,10.15 1.95,7.45 2.4,6 2.65,3.95 L 2.75,2.6 M 2.9,0.5 4.85,-0.35 V 0.8 L 4.8,1.9 h -2 L 2.9,0.5 m -5.5,21.8 -0.1,1.5 -0.45,-0.45 0.1,-1.05 0.6,-3.3 -0.15,3.3"
         fill="#e0e0e0"
         fill-rule="evenodd"
         stroke="none"
         id="path67" />
      <path
         d="m 0.9,-21.65 0.6,2.85 0.05,0.15 -0.45,1.35 q 0.9,2.1 1.4,5.1 0.6,3.65 0.6,8.65 L 2.95,-0.65 2,-0.3 l -0.25,0.15 -1.7,0.7 0.15,-12.1 -0.05,-0.65 -0.1,-0.85 -0.3,0.85 q -1.05,3.15 -1.1,8.2 l -0.3,9.5 -0.3,5.35 -0.45,-0.2 -0.7,-2.2 -0.95,-3.35 -0.55,-2.85 -0.15,-5.1 0.55,-4.05 0.15,-0.75 1.25,-4.55 0.3,-0.8 1,-2.4 -0.05,-0.5 q 0,-1.8 0.7,-4.3 0.75,-2.75 1.75,-1.45 M 2.75,2.6 2.65,3.95 Q 2.4,6 1.95,7.45 1.2,10.15 -0.1,10.8 L 0.05,2.55 0.2,2.6 H 1.1 2.75 M 2.9,0.5 2.8,1.9 H 1.35 0.05 V 1.5 L 1.6,1 2.9,0.5"
         fill="#ffffff"
         fill-rule="evenodd"
         stroke="none"
         id="path68" />
    </g>
    <g
       id="sprite7"
       transform="translate(5.9,12.5)">
      <use
         ffdec:characterId="998"
         height="25.049999"
         transform="translate(-5.9,-12.5)"
         width="11.8"
         xlink:href="#shape7"
         id="use68" />
    </g>
    <g
       id="shape7"
       transform="translate(5.9,12.5)">
      <path
         d="m 1.7,-9.8 0.1,0.3 0.7,1.85 1.1,3.05 0.4,1.25 -1.25,1.3 -0.8,0.2 -0.65,0.25 -0.25,0.35 -0.1,0.1 -0.2,0.3 0.05,-0.5 V -1.6 -1.85 l 0.05,-2.4 v -1.1 q 0,-0.5 -0.4,-1.1 l -0.6,2.55 -0.2,1.35 L -0.4,-2.2 -0.5,-1.75 -0.9,1.7 -1,2.45 -1.35,2.1 -1.45,2.15 q -1.65,0 -2.2,-0.9 L -3.9,0.4 V 0.15 q 0,-1.85 0.9,-4.05 l 1.9,-3.2 0.85,-1.35 0.5,-0.5 Q 1.05,-9.65 1.7,-9.8 M 0.65,2.8 0.7,0.75 0.75,0.05 V -0.6 L 1.1,-0.35 1.4,-0.2 1.5,1 q 0,1.5 -0.85,1.8"
         fill="#ffffff"
         fill-rule="evenodd"
         stroke="none"
         id="path69" />
      <path
         d="M 4,-3.35 3.6,-4.6 2.5,-7.65 1.8,-9.5 1.7,-9.8 1.35,-10.95 -0.25,-8.45 -1.1,-7.1 -3,-3.9 q -1.1,1.95 -1.1,2.6 l 0.2,1.7 0.25,0.85 1.3,2.65 0.1,0.1 0.9,1.55 0.2,-1.55 0.1,-1.15 0.05,-0.4 0.1,-0.75 0.4,-3.45 0.1,-0.45 0.05,-0.35 0.2,-1.35 0.6,-2.55 q 0.4,0.6 0.4,1.1 v 1.1 l -0.05,2.4 v 0.25 0.25 l -0.05,0.5 0.2,-0.3 0.1,-0.1 0.25,-0.35 0.65,-0.25 0.8,-0.2 1.45,-0.5 -0.2,-0.8 m -1.6,-8.95 -0.3,0.35 1.45,2.2 q 2.35,4.1 2.35,7.5 0,1.05 -0.45,1.2 l -2.1,0.3 0.45,0.35 Q 5.2,0.05 5.65,1.05 L 5.8,2.3 5.5,4 4.95,5.25 q -1.2,2.4 -3.4,2.4 L 0.95,7.45 0.85,7.35 0.75,7.25 0.5,7.35 V 7.5 q -0.25,5.05 -1.25,5.05 -0.7,0 -0.9,-0.45 -0.6,-0.05 -0.8,-0.35 l -0.1,-0.4 0.6,-1.4 0.1,-0.1 V 8.45 L -1.8,7.75 Q -3.15,7.65 -4.65,4.65 L -4.95,4 Q -5.9,2 -5.9,1.3 q 0,-4.05 2.85,-8.9 2.25,-3.7 4.25,-4.5 0.05,-0.7 0.6,-0.2 H 2.4 M 1.4,-0.2 1.1,-0.35 0.75,-0.6 V 0.05 L 0.7,0.75 0.65,2.8 0.6,4 0.55,5.85 1.9,5.8 3.4,4.3 3.65,4 Q 4.3,3 4.3,2.1 4.3,1.5 2.7,0.55 L 1.4,-0.2"
         fill="#6b6b6b"
         fill-rule="evenodd"
         stroke="none"
         id="path70" />
      <path
         d="m 1.7,-9.8 q -0.65,0.15 -1.45,0.85 l -0.5,0.5 1.6,-2.5 0.35,1.15 M -3,-3.9 q -0.9,2.2 -0.9,4.05 V 0.4 l -0.2,-1.7 q 0,-0.65 1.1,-2.6 m -0.65,5.15 q 0.55,0.9 2.2,0.9 L -1.35,2.1 -1,2.45 -1.05,2.85 -1.15,4 -1.35,5.55 -2.25,4 -2.35,3.9 -3.65,1.25 m 6.4,-3.3 1.25,-1.3 0.2,0.8 -1.45,0.5 M 0.65,2.8 Q 1.5,2.5 1.5,1 L 1.4,-0.2 2.7,0.55 Q 4.3,1.5 4.3,2.1 4.3,3 3.65,4 L 3.4,4.3 1.9,5.8 0.55,5.85 0.6,4 0.65,2.8"
         fill="#e0e0e0"
         fill-rule="evenodd"
         stroke="none"
         id="path71" />
    </g>
    <g
       id="sprite8"
       transform="translate(8.4,47.75)">
      <use
         ffdec:characterId="988"
         height="95.550003"
         transform="translate(-8.4,-47.75)"
         width="16.799999"
         xlink:href="#shape8"
         id="use71" />
    </g>
    <g
       id="shape8"
       transform="translate(8.4,47.75)">
      <path
         d="m 0.35,-45.3 0.4,1.85 0.1,3.65 v 14.7 l 0.2,1.35 0.05,0.4 H 1.05 l -2.25,-0.1 0.15,-1.75 v -14.6 l 0.3,-5.5 h 0.7 0.4 m -1.65,23.5 2.2,-0.1 h 0.3 l 0.05,1.05 h -0.5 l -2.1,-0.05 0.05,-0.9 m -0.15,2.9 2.2,-0.05 0.6,-0.05 v 0.65 0.4 q 2.4,0.8 2.7,3 v 0.5 0.5 q -0.15,1 -0.8,1.75 -0.75,0.85 -1.9,1.1 v 1.85 H 1.3 L 0.75,-9.3 H 0.2 -0.6 -1.55 v -1.85 L -3,-12 l -0.65,-1.1 -0.3,-2.25 q 0,-2.75 2.5,-2.95 v -0.6 M 1.3,12.3 H -1.45 V 11.95 L -1.5,0 V -0.45 -2.3 -2.65 l -0.05,-4.6 h 0.4 l 0.3,-0.05 1.2,-0.05 h 0.4 L 1.2,-7.4 H 1.35 L 1.3,12.3 m 0,6.45 H 0.55 L -0.2,18.7 -1.35,18.75 -1.45,18.5 V 17.85 L -2,17.75 -2.6,17.25 -2.75,17.15 -2.8,17.1 -3.3,16.65 -3.6,15.45 q 0.45,-0.2 0.85,-0.75 l 0.45,-0.8 h 3.6 v 0.05 q 1.05,0.4 1.05,1.3 0,0.5 -1.05,1.25 v 2.25 M 1.25,25.8 V 26 26.35 L 1.2,29.1 1.25,30.8 v 1.25 2.75 L 1.2,42.45 H 0.25 -1.4 V 40.8 40.7 l 0.1,-2.3 0.05,-5.5 0.05,-3.8 v -0.5 l -0.1,-3.95 -0.15,-2.2 V 22.3 20.5 H 1.3 L 1.25,25.8 M 0.8,44.95 -0.1,44.9 h -1.05 l -0.25,-0.65 0.05,-0.2 H 1.1 l -0.3,0.9"
         fill="#e0e0e0"
         fill-rule="evenodd"
         stroke="none"
         id="path72" />
      <path
         d="M 0.35,-45.3 3,-45.45 q -0.35,2.1 -0.35,6.55 l 0.05,9.7 0.05,0.8 q 0.1,2.8 0.35,5.15 l -2,-0.1 -0.05,-0.4 -0.2,-1.35 v -14.7 l -0.1,-3.65 -0.4,-1.85 m -1.55,21.85 -1.85,-0.1 q 0.25,-2.55 0.35,-5.65 l 0.05,-9.7 q 0,-4.3 -0.3,-6.4 h 2.2 l -0.3,5.5 v 14.6 l -0.15,1.75 m -0.1,1.65 -0.05,0.9 h -1.2 -0.3 l -0.5,-0.6 0.05,-0.3 h 1 1 m 2.55,0.95 -0.05,-1.05 2.05,-0.1 0.1,0.5 -0.6,0.7 -1.5,-0.05 m -2.7,1.95 v 0.6 q -2.5,0.2 -2.5,2.95 l 0.3,2.25 0.65,1.1 1.45,0.85 v 1.85 l -1.8,0.05 -0.3,-0.25 q -1.45,-1.15 -1.45,-3.3 0,-2.4 1.45,-4.65 l 0.9,-1.45 h 0.3 1 m 2.8,9.65 v -1.85 q 1.15,-0.25 1.9,-1.1 0.65,-0.75 0.8,-1.75 v -0.5 -0.5 q -0.3,-2.2 -2.7,-3 v -0.4 -0.65 l 1.25,-0.15 1.05,1.7 0.4,0.65 q 1.05,1.95 1.05,4 0,1.85 -1.05,2.95 l -0.4,0.35 -0.3,0.3 -2,-0.05 m 0,1.85 0.5,-0.1 0.45,-0.05 -0.2,0.6 Q 1.8,-6 1.65,-4.7 l -0.1,3.2 0.1,5.15 v 5.8 l 0.2,2.85 H 1.3 L 1.35,-7.4 M -1.6,12.3 h -0.25 l 0.2,-2.85 V 3.65 L -1.6,2.2 -1.5,0 -1.45,11.95 -1.6,12.3 m 0.1,-14.95 -0.15,-2.05 -0.5,-2.55 h 0.6 l 0.05,4.6 M 1.3,13.9 h 1 l 0.45,0.8 q 0.55,0.7 1.1,0.8 L 3.4,16.6 2.6,17.25 2.15,17.65 Q 1.5,18.2 1.4,18.75 H 1.3 V 16.5 q 1.05,-0.75 1.05,-1.25 0,-0.9 -1.05,-1.3 V 13.9 m -2.75,4.6 -0.55,-0.75 0.55,0.1 V 18.5 M -3.3,16.65 q -0.55,-0.6 -0.55,-1.15 l 0.25,-0.05 0.3,1.2 m 4.6,3.85 h 0.15 l 0.2,-0.1 -0.2,2.05 -0.2,3.35 0.05,-5.3 M 1.25,34.8 1.3,38.35 v 0.05 l 0.25,4.05 H 1.2 L 1.25,34.8 m -2.65,7.65 h -0.1 l 0.05,-0.7 v -0.4 L -1.4,40.8 v 1.65 M -1.45,22.3 -1.6,20.7 -1.65,20.5 h 0.2 v 1.8 M 1.85,45 1.8,45.1 0.8,44.95 1.1,44.05 H 1.7 L 1.85,45 m -3,-0.1 -0.65,0.05 0.1,-0.75 v -0.15 h 0.35 l -0.05,0.2 0.25,0.65"
         fill="#c2c2c2"
         fill-rule="evenodd"
         stroke="none"
         id="path73" />
      <path
         d="m 1.1,-23.35 2,0.1 Q 2.85,-25.6 2.75,-28.4 L 2.7,-29.2 2.65,-38.9 q 0,-4.45 0.35,-6.55 l -2.65,0.15 h -0.4 -0.7 -2.2 q 0.3,2.1 0.3,6.4 l -0.05,9.7 q -0.1,3.1 -0.35,5.65 l 1.85,0.1 2.25,0.1 H 1.1 m 4.85,-20.5 0.05,3.2 v 18.7 l 1.5,3.35 q 0.9,1.8 0.9,3.35 0,5.7 -1.75,8.05 Q 4.9,-4.85 4.9,3.25 v 6.2 q 0,2.35 1.15,3.35 1.1,1.05 1.1,2.45 0,1.15 -0.8,2.9 Q 5.5,20 4.2,20.5 q 0.35,1.4 0.5,3.6 l 0.05,5.05 v 9.5 q -0.3,9 -1.75,9 H 2.85 L 0.2,47.8 -2.7,47.55 -3,47.65 -3.55,47.25 -3.75,47.1 -3.95,46.35 V 46.3 L -4.4,43.75 -4.65,43.45 Q -4.9,42.85 -4.6,42.7 h 0.1 l -0.25,-4.05 v -9.5 L -4.7,24.1 q 0.15,-2.2 0.5,-3.6 -1.3,-0.5 -2.15,-2.35 -0.8,-1.75 -0.8,-2.9 0,-1.4 1.1,-2.45 1.15,-1 1.15,-3.35 v -6.2 q 0,-8.1 -1.75,-10.45 -1.75,-2.35 -1.75,-8.05 0,-1.55 0.9,-3.35 l 1.5,-3.35 v -0.15 l -0.5,-0.85 0.5,-0.2 v -17.5 l 0.05,-3.2 q 0.1,-1.65 0.9,-2.5 L -5.1,-46.6 q 0,-0.7 0.45,-0.9 l 2.7,-0.25 6.4,0.4 q 0.45,0.1 0.45,0.8 0.95,0.85 1.05,2.7 M 1.2,-21.9 H 0.9 l -2.2,0.1 h -1 -1 l -0.05,0.3 0.5,0.6 h 0.3 1.2 l 2.1,0.05 h 0.5 l 1.5,0.05 0.6,-0.7 -0.1,-0.5 -2.05,0.1 m 0.15,2.9 -0.6,0.05 -2.2,0.05 h -1 -0.3 l -0.9,1.45 q -1.45,2.25 -1.45,4.65 0,2.15 1.45,3.3 l 0.3,0.25 1.8,-0.05 h 0.95 0.8 0.55 l 0.55,0.05 h 0.05 l 2,0.05 0.3,-0.3 0.4,-0.35 q 1.05,-1.1 1.05,-2.95 0,-2.05 -1.05,-4 L 3.65,-17.45 2.6,-19.15 1.35,-19 M 1.3,12.3 H 1.85 L 1.65,9.45 V 3.65 L 1.55,-1.5 1.65,-4.7 Q 1.8,-6 2.1,-6.95 l 0.2,-0.6 -0.45,0.05 -0.5,0.1 H 1.2 l -0.45,0.05 h -0.4 l -1.2,0.05 -0.3,0.05 h -0.4 -0.6 l 0.5,2.55 0.15,2.05 V -2.3 -0.45 0 l -0.1,2.2 -0.05,1.45 v 5.8 l -0.2,2.85 h 0.25 0.15 2.75 m 0,6.45 H 1.4 Q 1.5,18.2 2.15,17.65 L 2.6,17.25 3.4,16.6 3.85,15.5 Q 3.3,15.4 2.75,14.7 L 2.3,13.9 h -1 -3.6 l -0.45,0.8 q -0.4,0.55 -0.85,0.75 l -0.25,0.05 q 0,0.55 0.55,1.15 l 0.5,0.45 0.05,0.05 0.15,0.1 0.6,0.5 0.55,0.75 0.1,0.25 1.15,-0.05 0.75,0.05 H 1.3 m -0.05,7.05 0.2,-3.35 0.2,-2.05 -0.2,0.1 H 1.3 -1.45 -1.65 l 0.05,0.2 0.15,1.6 v 0.15 l 0.15,2.2 0.1,3.95 v 0.5 l -0.05,3.8 -0.05,5.5 -0.1,2.3 v 0.1 l -0.05,0.55 v 0.4 l -0.05,0.7 H -1.4 0.25 1.2 1.55 L 1.3,38.4 V 38.35 L 1.25,34.8 V 32.05 30.8 L 1.2,29.1 1.25,26.35 V 26 25.8 M 1.8,45.1 H 1.85 V 45 L 1.7,44.05 H 1.1 -1.35 -1.7 v 0.15 l -0.1,0.75 0.65,-0.05 h 1.05 l 0.9,0.05 1,0.15"
         fill="#6b6b6b"
         fill-rule="evenodd"
         stroke="none"
         id="path74" />
    </g>
    <g
       id="sprite9"
       transform="translate(33.45,3.05)">
      <use
         ffdec:characterId="1000"
         height="5.8000002"
         transform="translate(-33.45,-3.05)"
         width="65.199997"
         xlink:href="#shape9"
         id="use74" />
    </g>
    <g
       id="shape9"
       transform="translate(33.45,3.05)">
      <path
         d="m 13.2,-0.95 0.05,-0.15 h 1.4 l 0.15,0.05 -0.05,0.1 H 13.2 m 1.35,1.2 -0.05,0.6 H 12.85 L 13,0.4 V 0.25 h 1.55 m -3.3,-1.2 h -13.2 -11 V -1.1 l 11,0.05 13.2,-0.05 v 0.15 m -24.1,1.2 h 24 l 0.05,0.6 h -24.1 l 0.05,-0.6 m 29.15,-1.2 v -0.1 L 16.55,-1.1 H 24.2 L 29,-1.25 V -0.9 L 16.3,-0.95 M 29,0.15 v 1.1 l -9.85,-0.4 h -2.8 v -0.6 l 12.5,-0.1 H 29 M -30.7,-0.9 v -0.35 l 4.8,0.15 h 7.65 l 0.25,0.05 v 0.1 l -12.7,0.05 m 12.65,1.15 v 0.6 h -2.8 l -9.85,0.4 v -1.1 h 0.15 l 12.5,0.1 m 1.6,-1.2 -0.05,-0.1 0.15,-0.05 h 1.4 l 0.05,0.15 h -1.55 m 1.75,1.2 V 0.4 l 0.15,0.45 h -1.65 l -0.05,-0.6 h 1.55"
         fill="#c2c2c2"
         fill-rule="evenodd"
         stroke="none"
         id="path75" />
      <path
         d="m 14.75,-0.95 0.05,-0.1 -0.15,-0.05 h -1.4 L 13.2,-0.95 13,0.25 V 0.4 l -0.15,0.45 h 1.65 l 0.05,-0.6 0.2,-1.2 m -3.6,1.2 v -0.3 l 0.1,-0.9 V -1.1 l -13.2,0.05 -11,-0.05 v 0.15 l 0.1,0.9 v 0.3 l -0.05,0.6 H 11.2 L 11.15,0.25 M 29,-0.9 v -0.35 l -4.8,0.15 h -7.65 l -0.25,0.05 v 0.1 l 0.05,1.2 v 0.6 h 2.8 L 29,1.25 v -1.1 -0.5 -0.55 m 2.75,0.55 v 2 l -0.2,1.1 H -33.2 l -0.25,-1.1 v -2 q 0,-1.8 0.4,-2.7 H 31.4 q 0.35,0.9 0.35,2.7 M -30.7,-0.9 v 0.55 0.5 1.1 l 9.85,-0.4 h 2.8 v -0.6 l 0.05,-1.2 v -0.1 l -0.25,-0.05 h -7.65 l -4.8,-0.15 v 0.35 m 15.8,-0.05 -0.05,-0.15 h -1.4 l -0.15,0.05 0.05,0.1 0.2,1.2 0.05,0.6 h 1.65 L -14.7,0.4 V 0.25 l -0.2,-1.2"
         fill="#6b6b6b"
         fill-rule="evenodd"
         stroke="none"
         id="path76" />
      <path
         d="m 14.75,-0.95 -0.2,1.2 H 13 l 0.2,-1.2 h 1.55 m -3.5,0 -0.1,0.9 v 0.3 h -24 v -0.3 l -0.1,-0.9 h 11 13.2 M 29,-0.9 v 0.55 0.5 H 28.85 L 16.35,0.25 16.3,-0.95 29,-0.9 m -59.7,1.05 v -0.5 -0.55 l 12.7,-0.05 -0.05,1.2 -12.5,-0.1 h -0.15 m 14.25,-1.1 h 1.55 l 0.2,1.2 h -1.55 l -0.2,-1.2"
         fill="#e0e0e0"
         fill-rule="evenodd"
         stroke="none"
         id="path77" />
    </g>
    <g
       id="sprite10"
       transform="translate(8.1,19.95)">
      <use
         ffdec:characterId="1002"
         height="39.900002"
         transform="translate(-8.1,-19.95)"
         width="16.200001"
         xlink:href="#shape10"
         id="use77" />
    </g>
    <g
       id="shape10"
       transform="translate(8.1,19.95)">
      <path
         d="M 1.4,11.05 Q 3.9,9.6 3.9,4.55 V 4.4 L 5.65,4.65 Q 5.2,6.8 3.5,9 L 2,10.95 1.4,11.05 M 3.8,2.25 3.5,-0.55 2.95,-4.85 2.25,-7.8 1.7,-10.3 q 3.6,6.45 4.05,12 L 3.9,2.2 3.8,2.25 m -9.05,-1.95 0.4,3.75 0.6,4 1.25,2.7 0.25,0.3 0.45,0.4 -0.05,0.05 -1.55,-0.95 Q -6.3,8.8 -6.3,4.4 l 0.05,-1.75 0.6,-1.6 0.4,-0.75 M -1.1,11.95 -0.6,12 v 0.15 0.3 5.15 l 0.1,0.5 -1.35,-0.15 0.7,-5.35 0.05,-0.65 M 5.8,2.9 V 3.1 3.7 L 4.05,3.4 5.8,2.9"
         fill="#e0e0e0"
         fill-rule="evenodd"
         stroke="none"
         id="path78" />
      <path
         d="M 1,11.35 V 11.25 11.1 9.15 L 0.9,6.1 0.45,-0.3 0.05,-7 -0.05,-8.1 0,-8.6 l -0.65,0.35 -0.3,0.9 v 0.2 l 0.2,1.55 V 4.75 l 0.1,2.25 0.05,0.9 0.05,0.35 0.1,1.2 0.05,0.55 -0.1,0.75 -0.05,0.9 -0.05,0.35 -0.5,-0.05 0.05,-0.3 0.1,-1.55 V 8.9 8.85 L -1.15,7.9 -1.4,7.5 -1.75,8.7 -2.3,11.35 v 0.1 l -0.45,-0.4 -0.25,-0.3 -1.25,-2.7 -0.6,-4 -0.4,-3.75 -0.05,-0.45 0.8,-2.65 q 1.65,-5.7 1.65,-6.95 l 0.85,-5.2 0.5,-0.4 1.05,1.75 2.05,3.1 0.1,0.2 0.55,2.5 0.7,2.95 0.55,4.3 0.3,2.8 Q 3.15,2.4 2.8,2.6 L 2.7,2.65 Q 2.2,2.85 2.2,3.1 v 0.05 q -1,-0.05 -1,0.4 0,0.4 0.15,0.45 L 1.75,4.15 2.05,4.2 2.8,4.25 3.9,4.4 v 0.15 q 0,5.05 -2.5,6.5 L 1.2,11.2 1,11.35"
         fill="#ffffff"
         fill-rule="evenodd"
         stroke="none"
         id="path79" />
      <path
         d="M 7.5,-2.75 Q 8.1,-0.3 8.1,3.1 8.1,6.9 6.75,9.65 5.1,13 2.1,13 H 1.9 l -0.9,0.55 0.2,3.4 -0.3,1 Q 0.55,18.6 0.15,18.6 H 0 L 0.1,19 q 0,0.6 -0.6,0.85 l -1.45,0.1 q -1.15,0 -1.5,-0.5 l -0.1,-0.5 q 0,-1.2 0.8,-5.3 h -0.1 q -2.4,0 -4.05,-2.6 -1.2,-1.85 -1.2,-2.8 0,-2.15 0.6,-5.6 L -7.35,2 V 1.95 L -7.5,1.1 q 0,-1.45 1,-6 l 1.2,-5 0.65,-2.7 0.9,-2.85 q 0,-2.4 1.05,-3.95 0.9,-1.3 1.05,0.35 l 1.75,1.65 q 2.45,3.15 4.95,8.7 1.75,2.9 2.45,5.95 M -0.6,12 -0.55,11.65 -0.5,10.75 -0.4,10 -0.45,9.45 -0.55,8.25 -0.6,7.9 -0.65,7 -0.75,4.75 V -5.6 l -0.2,-1.55 v -0.2 l 0.3,-0.9 L 0,-8.6 -0.05,-8.1 0.05,-7 0.45,-0.3 0.9,6.1 1,9.15 v 1.95 0.15 0.1 0.5 L 1.45,11.65 2,10.95 3.5,9 Q 5.2,6.8 5.65,4.65 L 3.9,4.4 2.8,4.25 2.05,4.2 1.75,4.15 1.35,4 Q 1.2,3.95 1.2,3.55 1.2,3.1 2.2,3.15 V 3.1 Q 2.2,2.85 2.7,2.65 L 2.8,2.6 Q 3.15,2.4 3.8,2.25 L 3.9,2.2 5.75,1.7 Q 5.3,-3.85 1.7,-10.3 l -0.1,-0.2 -2.05,-3.1 -1.05,-1.75 -0.35,-0.55 -0.15,0.95 -0.85,5.2 q 0,1.25 -1.65,6.95 l -0.8,2.65 -0.35,1.2 -0.6,1.6 -0.05,1.75 q 0,4.4 2.4,6.15 l 1.55,0.95 0.05,-0.05 v -0.1 l 0.55,-2.65 0.35,-1.2 0.25,0.4 0.2,0.95 v 0.05 1.2 l -0.1,1.55 -0.05,0.3 -0.05,0.65 -0.7,5.35 1.35,0.15 -0.1,-0.5 V 12.45 12.15 12 M 5.8,2.9 4.05,3.4 5.8,3.7 V 3.1 2.9"
         fill="#6b6b6b"
         fill-rule="evenodd"
         stroke="none"
         id="path80" />
    </g>
    <g
       id="sprite11"
       transform="translate(8,31.95)">
      <use
         ffdec:characterId="1004"
         height="65.25"
         transform="translate(-8,-31.95)"
         width="16.049999"
         xlink:href="#shape11"
         id="use80" />
    </g>
    <g
       id="shape11"
       transform="translate(8,31.95)">
      <path
         d="m 6.8,-31.6 q 1.3,4.05 1.25,20.35 0,10.3 -0.4,24 L 7.7,23.5 q -0.15,6.65 -0.75,9 L 6.75,33.15 -8,33.3 -7.95,28.05 -8,21.8 v -0.9 q 0.6,-6.5 3,-13.1 3.25,-8.8 3.25,-22.5 l 0.3,-12.1 -0.65,-0.7 0.4,-0.1 0.3,-0.25 v -0.05 l 0.35,-3.55 -0.05,-0.05 -0.1,-0.45 h 8.05 l 0.05,0.1 -0.1,0.25 m -6.1,2.55 0.1,0.6 v 0.1 h 4.45 l 0.5,0.35 v -0.2 L 5.9,-29.85 5.55,-29.7 H 0.6 l 0.1,0.65 m 3.4,2.4 H 2.9 0.85 l 0.1,4.4 0.45,13.05 1,-0.4 0.8,-0.05 0.8,0.15 0.1,0.05 h 0.05 l 0.55,0.3 0.4,0.3 v -1.3 -0.2 L 5.7,-26.9 5.25,-26.65 H 4.1 M 1.5,-6.25 V -5.7 L 1.35,-3.95 V -3.9 Q 1.8,-3 2.55,-3 H 2.7 Q 4.35,-3.05 4.8,-4.1 L 4.95,-5.25 Q 4.95,-7 3.55,-7.3 l -0.5,-0.1 h -0.1 q -1,0 -1.5,0.45 l 0.05,0.7 M 1.85,-1.3 1.75,-1.35 Q 1.3,-1.55 0.9,-1.9 l -0.3,1 q -0.9,3.25 -0.9,4.85 0,1.1 -1.95,6.3 L -3.7,14.4 h 4.95 2.8 l 0.2,0.05 0.45,0.1 V 12.7 L 4.9,-1.25 3.8,-1 H 3.4 L 2.55,-1.1 q -0.4,-0.05 -0.7,-0.2 m -1.2,32.5 h 2.1 l 2.5,0.2 Q 4.85,28.75 4.7,23.1 V 18.2 L 1.3,18.45 0.95,18.5 -0.4,18.55 -2.2,18.7 h -0.55 l -1,0.05 H -4.8 V 31.2 h 2.9 2.55 m -0.4,-14 4.45,0.1 v -1.7 l -0.65,0.15 h -8.1 l -0.15,0.9 v 0.4 l 2.85,0.1 1.6,0.05"
         fill="#6b6b6b"
         fill-rule="evenodd"
         stroke="none"
         id="path81" />
      <path
         d="M 0.7,-29.05 0.6,-29.7 h 4.95 l 0.35,-0.15 -0.15,1.65 v 0.2 l -0.5,-0.35 H 0.8 v -0.1 l -0.1,-0.6 m 3.45,19.6 Q 4.8,-9.85 4.8,-11.2 L 4.65,-13.5 V -25.15 L 4.3,-26.3 4.1,-26.65 H 5.25 L 5.7,-26.9 5.1,-10.35 v 0.2 l -0.4,1 -0.55,-0.3 M 2.9,-26.65 2.7,-26.4 2.55,-26.1 2.15,-25.35 2,-11.2 v 1 l 0.4,0.6 -1,0.4 -0.45,-13.05 -0.1,-4.4 H 2.9 m -1.4,20.4 -0.05,-0.7 q 0.5,-0.45 1.5,-0.45 h 0.1 l 0.5,0.1 q 1.4,0.3 1.4,2.05 L 4.8,-4.1 Q 4.35,-3.05 2.7,-3 H 2.55 Q 1.8,-3 1.35,-3.9 V -3.95 L 1.5,-5.7 V -6.25 M 1.85,-1.3 1.8,-1.05 Q 0.9,2.2 0.9,12.7 l 0.05,1.1 0.3,0.6 H -3.7 l 1.45,-4.15 q 1.95,-5.2 1.95,-6.3 0,-1.6 0.9,-4.85 l 0.3,-1 q 0.4,0.35 0.85,0.55 l 0.1,0.05 m 2.4,15.75 q 0.4,-0.6 0.4,-1.7 Q 4.65,2.3 3.8,-1 L 4.9,-1.25 4.7,12.7 v 1.85 L 4.25,14.45 M 0.95,18.5 1.3,18.45 4.7,18.2 v 4.9 q 0.15,5.65 0.55,8.3 L 2.75,31.2 H 0.65 Q 1.4,30.75 1.7,29.6 l 0.1,-2.1 q 0,-6.45 -0.85,-9 M -1.9,31.2 H -4.8 V 18.75 h 1.05 l 1,-0.05 h 0.55 q -0.5,1.6 -0.65,4.6 l -0.15,4.2 0.05,2.1 q 0.25,1.15 1.05,1.6 m 2.15,-14 -0.1,-0.1 q -0.35,-0.3 -0.75,-0.3 -0.4,0 -0.75,0.35 l -2.85,-0.1 v -0.4 l 0.15,-0.9 h 8.1 L 4.7,15.6 v 1.7 L 0.25,17.2"
         fill="#c2c2c2"
         fill-rule="evenodd"
         stroke="none"
         id="path82" />
      <path
         d="m 4.1,-26.65 0.2,0.35 0.35,1.15 v 11.65 l 0.15,2.3 q 0,1.35 -0.65,1.75 H 4.1 L 4,-9.5 3.2,-9.65 2.4,-9.6 2,-10.2 v -1 l 0.15,-14.15 0.4,-0.75 0.15,-0.3 0.2,-0.25 H 4.1 M 1.25,14.4 0.95,13.8 0.9,12.7 Q 0.9,2.2 1.8,-1.05 L 1.85,-1.3 q 0.3,0.15 0.7,0.2 L 3.4,-1 h 0.4 q 0.85,3.3 0.85,13.75 0,1.1 -0.4,1.7 L 4.05,14.4 h -2.8 m -0.3,4.1 q 0.85,2.55 0.85,9 L 1.7,29.6 Q 1.4,30.75 0.65,31.2 H -1.9 Q -2.7,30.75 -2.95,29.6 L -3,27.5 -2.85,23.3 q 0.15,-3 0.65,-4.6 l 1.8,-0.15 1.35,-0.05 m -2.3,-1.35 Q -1,16.8 -0.6,16.8 q 0.4,0 0.75,0.3 l 0.1,0.1 -1.6,-0.05"
         fill="#e0e0e0"
         fill-rule="evenodd"
         stroke="none"
         id="path83" />
    </g>
    <g
       id="sprite12"
       transform="translate(31.35,12.7)">
      <use
         ffdec:characterId="1006"
         height="25.450001"
         transform="translate(-31.35,-12.7)"
         width="62.700001"
         xlink:href="#shape12"
         id="use83" />
    </g>
    <g
       id="shape12"
       transform="translate(31.35,12.7)">
      <path
         d="M -0.75,-7.15 -0.85,-8.2 -1,-8.95 H 1 L 0.95,-8.2 v 0.25 0.8 h -1.7 m 3.4,0 L 2.55,-8.2 2.4,-8.95 8.75,-9 l 19,0.05 0.45,0.15 h 0.3 v 0.1 0.05 0.95 0.05 0.9 h -0.1 q -0.55,0 -0.8,-0.5 l -0.05,-0.1 -24.9,0.2 m -21.85,2.85 0.2,1.35 q 0,2 -0.2,2.5 -0.6,1.5 -3,1.5 -2.45,0 -3.7,-2.3 -0.8,-1.45 -0.8,-2.6 l 0.15,-0.95 q 0.5,-1.65 2.95,-1.75 1.95,0.05 3.25,1.05 l 0.95,0.9 0.2,0.3 M -27.85,-7 -27.9,-8.95 h 17.1 l -0.25,0.5 -0.55,1.35 -7.35,0.05 -1.35,-0.6 Q -23.15,-8.6 -26.4,-7 h -1.45 m 25.9,-0.15 h -1.2 Q -3,-6.8 -3,-6.3 q 0,1.95 -3.05,2.1 h -0.4 q -2.05,0 -2.85,-1.15 -0.4,-0.6 -0.4,-1.3 l 0.05,-0.45 h -0.85 l 1.2,-1.85 h 7.6 l -0.1,0.8 -0.1,0.5 -0.05,0.5 M -12.7,3.15 h -0.35 -0.15 L -14.25,2 V 1.95 q -0.4,-0.5 -0.4,-1.05 0,-2.45 2.25,-1.55 l 0.1,0.05 q 1.15,0.45 1.7,1 v 0.45 q 0,0.75 -0.45,1.4 -0.55,0.8 -1.65,0.9"
         fill="#e0e0e0"
         fill-rule="evenodd"
         stroke="none"
         id="path84" />
      <path
         d="M 0.95,-7.15 V -7.95 -8.2 L 1,-8.95 h -2 l 0.15,0.75 0.1,1.05 v 0.9 1.65 L 1.35,-5.1 1,-6.15 l -0.05,-1 m 26.8,-1.8 -19,-0.05 -6.35,0.05 0.15,0.75 0.1,1.05 0.05,1.6 v 0.15 l 6.75,-1.05 h 19.1 L 28.5,-6.75 V -7.65 -7.7 -8.65 -8.7 -8.8 -8.95 h -0.75 m 1.55,-3.75 h 2.05 v 7.45 q -0.25,0.2 -0.6,0.3 -1.95,1.9 -6.1,1.25 H 12.6 Q 1.45,-2.9 -2,-0.75 q -1.6,0.95 -2.2,3.8 -0.35,1.5 -2.55,4.1 -2.7,3.2 -4.95,3.2 -4.4,0 -5.95,-0.75 -1.45,-0.7 -2.3,-0.75 l -0.2,0.05 -1.95,1.75 q -1.7,1.8 -3.55,1.8 h -0.65 l -2.05,0.3 -0.65,-0.05 -0.4,0.05 q -1.15,0 -1.5,-0.8 l -0.15,-0.9 0.15,-2.65 V -9.35 q -0.45,-0.45 -0.45,-1.3 0,-1.35 1.65,-1.75 h 58.8 l 0.2,-0.3 m -52.9,6.15 h -0.2 l -2.75,0.5 -1.3,0.35 0.1,15.8 0.4,-0.1 q 1.9,-0.3 3.5,-1.9 l 1.5,-1.7 0.35,-0.25 q 0.2,-1.95 1.85,-3.45 1.85,-1.75 1.85,-4.35 0,-1.4 -0.9,-2.65 l -0.2,-0.3 -0.95,-0.9 q -1.3,-1 -3.25,-1.05 m 12,-0.55 0.55,-1.35 0.25,-0.5 h -17.1 l 0.05,1.95 v 0.85 L -26.4,-7 q 3.25,-1.6 6.1,-0.65 l 1.35,0.6 0.35,0.2 q 2.3,1.6 2.3,5.15 0,2.3 -1.05,3.95 -0.85,1.35 -1.5,3.2 1.65,0.15 2.7,0.7 l 1.6,0.75 q 5.55,0 7.05,-3.15 0.65,-3.6 1.05,-4.5 h -0.1 L -8,-0.85 -9.25,-1.15 q 1,1.05 1,2.3 V 1.6 q -0.05,1.45 -0.45,2.15 -0.95,1.5 -3.75,1.5 -2.5,0 -3.45,-1.3 l -0.45,-1.4 q 0,-5.3 4.05,-5.05 l 1.15,0.25 -0.15,-0.2 q -0.85,-0.95 -0.85,-1.85 0,-1.3 0.55,-2.8 m 1.1,0 -0.25,1.25 q 0,1.35 0.5,1.85 1.1,1.05 5.15,1.45 l 2,-1.25 0.3,-0.15 0.8,-0.25 -0.1,-0.75 0.15,-2.2 0.05,-0.5 0.1,-0.5 0.1,-0.8 h -7.6 l -1.2,1.85 m -0.1,7.5 q -0.55,-0.55 -1.7,-1 l -0.1,-0.05 q -2.25,-0.9 -2.25,1.55 0,0.55 0.4,1.05 V 2 l 1.05,1.15 h 0.15 0.35 l 1.8,-0.1 q 0.75,-0.9 0.75,-1.7 0,-0.5 -0.45,-0.95"
         fill="#6b6b6b"
         fill-rule="evenodd"
         stroke="none"
         id="path85" />
      <path
         d="m -0.75,-7.15 h 1.7 l 0.05,1 0.35,1.05 -2.1,0.5 v -1.65 -0.9 m 3.4,0 24.9,-0.2 0.05,0.1 q 0.25,0.5 0.8,0.5 h 0.1 l 0.05,0.3 H 9.45 L 2.7,-5.4 V -5.55 L 2.65,-7.15 M -19.2,-4.3 q 0.9,1.25 0.9,2.65 0,2.6 -1.85,4.35 -1.65,1.5 -1.85,3.45 l -0.35,0.25 -1.5,1.7 q -1.6,1.6 -3.5,1.9 l -0.4,0.1 -0.1,-15.8 1.3,-0.35 2.75,-0.5 h 0.2 q -2.45,0.1 -2.95,1.75 l -0.15,0.95 q 0,1.15 0.8,2.6 1.25,2.3 3.7,2.3 2.4,0 3,-1.5 0.2,-0.5 0.2,-2.5 l -0.2,-1.35 m 7.6,-2.8 q -0.55,1.5 -0.55,2.8 0,0.9 0.85,1.85 l 0.15,0.2 -1.15,-0.25 q -4.05,-0.25 -4.05,5.05 l 0.45,1.4 q 0.95,1.3 3.45,1.3 2.8,0 3.75,-1.5 0.4,-0.7 0.45,-2.15 V 1.15 q 0,-1.25 -1,-2.3 l 1.25,0.3 1.45,0.1 h 0.1 Q -6.85,0.15 -7.5,3.75 -9,6.9 -14.55,6.9 l -1.6,-0.75 q -1.05,-0.55 -2.7,-0.7 0.65,-1.85 1.5,-3.2 1.05,-1.65 1.05,-3.95 0,-3.55 -2.3,-5.15 l -0.35,-0.2 7.35,-0.05 m -14.8,0.1 -1.45,0.85 V -7 h 1.45 m 24.45,-0.15 -0.15,2.2 0.1,0.75 -0.8,0.25 -0.3,0.15 -2,1.25 q -4.05,-0.4 -5.15,-1.45 -0.5,-0.5 -0.5,-1.85 l 0.25,-1.25 h 0.85 l -0.05,0.45 q 0,0.7 0.4,1.3 0.8,1.15 2.85,1.15 h 0.4 Q -3,-4.35 -3,-6.3 -3,-6.8 -3.15,-7.15 h 1.2 M -12.7,3.15 q 1.1,-0.1 1.65,-0.9 0.45,-0.65 0.45,-1.4 V 0.4 q 0.45,0.45 0.45,0.95 0,0.8 -0.75,1.7 l -1.8,0.1"
         fill="#c2c2c2"
         fill-rule="evenodd"
         stroke="none"
         id="path86" />
    </g>
    <g
       id="sprite13"
       transform="translate(5.6,12.65)">
      <use
         ffdec:characterId="1008"
         height="25.299999"
         transform="translate(-5.6,-12.65)"
         width="11.25"
         xlink:href="#shape13"
         id="use86" />
    </g>
    <g
       id="shape13"
       transform="translate(5.6,12.65)">
      <path
         d="m 0.5,-10.05 0.85,1.55 0.55,0.9 0.15,0.3 0.4,4.7 0.3,6.05 L 2.3,4.85 1.65,5.5 1.35,5.6 1.2,5.65 0.5,5.75 H 0.4 v -0.3 l -0.05,-3 0.2,-2.05 0.2,-2.2 V -1.9 L 0.7,-2.3 0.65,-2.45 0.45,-2.35 0.1,-2.2 -0.45,1.1 -0.95,3.55 -1.05,3.65 -1,4.1 -1.15,5.35 Q -2.2,4.7 -2.9,3.2 L -3.6,1.15 -3.4,-1.3 q 0.8,-3.2 2,-5.8 l 0.65,-1.45 1,-1.5 H 0.5"
         fill="#ffffff"
         fill-rule="evenodd"
         stroke="none"
         id="path87" />
      <path
         d="m 5.6,0.4 v 1 l -0.3,3 Q 4.7,7.1 2.75,7.1 L 2.15,6.95 1.9,7.1 2,7.55 2.05,9.2 1.9,11.15 q -0.4,1.5 -2.05,1.5 H -0.5 -0.6 L -1.05,12.5 q -0.8,-0.15 -0.8,-0.85 L -1.5,11.05 -1.4,8.4 -1.35,8.05 H -1.5 q -1.65,0 -3.05,-2.25 L -5.6,3.5 q 0,-3.45 0.75,-6.3 0.3,-2.4 1.25,-5 1.45,-3.85 3.7,-4.65 l 0.4,-0.2 0.35,0.05 0.45,-0.05 0.1,0.1 0.05,0.2 0.5,0.4 q 2.1,2.05 2.75,5.85 l 0.9,4.05 V 0.4 M 2.05,-7.3 1.9,-7.6 1.35,-8.5 0.5,-10.05 0.35,-10.3 l -0.1,0.25 -1,1.5 -0.65,1.45 q -1.2,2.6 -2,5.8 L -3.6,1.15 -3.65,2.4 q 0,1.6 1.95,3.05 l 0.5,0.4 0.05,-0.5 L -1,4.1 -1.05,3.65 l 0.1,-0.1 0.5,-2.45 0.55,-3.3 0.35,-0.15 0.2,-0.1 0.05,0.15 0.05,0.4 v 0.1 l -0.2,2.2 -0.2,2.05 0.05,3 V 5.75 5.9 H 0.8 L 1.2,5.65 1.35,5.6 1.7,5.55 2.3,5.5 2.65,5.1 3.9,3.2 3.95,0.2 q 0,-3.6 -1.9,-7.5 M 0.5,7.7 0.4,7.75 0.35,9.6 0.55,8.8 0.6,8.15 0.5,7.7"
         fill="#6b6b6b"
         fill-rule="evenodd"
         stroke="none"
         id="path88" />
      <path
         d="m 4.7,-6.1 q 0.95,1.9 0.95,5 L 5.6,0.4 V -2.05 L 4.7,-6.1 M 2.05,-7.3 q 1.9,3.9 1.9,7.5 L 3.9,3.2 2.65,5.1 2.3,5.5 1.7,5.55 1.35,5.6 1.65,5.5 2.3,4.85 2.75,3.45 2.45,-2.6 2.05,-7.3 M 1.2,5.65 0.8,5.9 H 0.4 V 5.75 H 0.5 L 1.2,5.65 M -1.15,5.35 -1.2,5.85 -1.7,5.45 Q -3.65,4 -3.65,2.4 L -3.6,1.15 -2.9,3.2 q 0.7,1.5 1.75,2.15 M 0.5,7.7 0.6,8.15 0.55,8.8 0.35,9.6 0.4,7.75 0.5,7.7"
         fill="#e0e0e0"
         fill-rule="evenodd"
         stroke="none"
         id="path89" />
    </g>
    <g
       id="sprite14"
       transform="translate(8.05,7.7)">
      <use
         ffdec:characterId="1010"
         height="15.45"
         transform="translate(-8.05,-7.7)"
         width="16.1"
         xlink:href="#shape14"
         id="use89" />
    </g>
    <g
       id="shape14"
       transform="translate(8.05,7.7)">
      <path
         d="m -3.8,-2.6 q -0.45,0.85 -0.45,2.2 0,0.7 0.75,1.7 1.05,1.45 3,1.45 1.65,0 2.85,-1.75 1,-1.45 1,-2.55 0,-1.25 -0.65,-1.85 -0.95,-0.9 -3.4,-0.9 h -0.1 l 1.1,-0.2 q 2.1,-0.25 3.65,0.7 1.65,1.05 1.65,3.15 l -0.7,3.1 q -1.4,2.9 -4.65,2.9 -1.2,0 -3.2,-1.55 -2.1,-1.6 -2.1,-2.7 0,-2.35 1.25,-3.7"
         fill="#c2c2c2"
         fill-rule="evenodd"
         stroke="none"
         id="path90" />
      <path
         d="m 8.05,-0.75 q 0,2.6 -1,4.75 Q 5.25,7.75 0.9,7.75 -4.9,7.75 -7,4.85 -8.05,3.4 -8.05,1.4 q 0,-4.6 2.5,-7.05 2.2,-2.1 5.55,-2.05 3.2,0.05 5.55,1.9 2.5,2.05 2.5,5.05 M -3.8,-2.6 q -1.25,1.35 -1.25,3.7 0,1.1 2.1,2.7 2,1.55 3.2,1.55 3.25,0 4.65,-2.9 l 0.7,-3.1 Q 5.6,-2.75 3.95,-3.8 2.4,-4.75 0.3,-4.5 l -1.1,0.2 q -1.95,0.5 -3,1.7"
         fill="#6b6b6b"
         fill-rule="evenodd"
         stroke="none"
         id="path91" />
      <path
         d="m -0.8,-4.3 h 0.1 q 2.45,0 3.4,0.9 0.65,0.6 0.65,1.85 0,1.1 -1,2.55 -1.2,1.75 -2.85,1.75 -1.95,0 -3,-1.45 -0.75,-1 -0.75,-1.7 0,-1.35 0.45,-2.2 1.05,-1.2 3,-1.7"
         fill="#e0e0e0"
         fill-rule="evenodd"
         stroke="none"
         id="path92" />
    </g>
    <g
       id="sprite15"
       transform="translate(21.85,53.3)">
      <use
         ffdec:characterId="1012"
         height="106.6"
         transform="translate(-21.85,-53.3)"
         width="43.75"
         xlink:href="#shape15"
         id="use92" />
    </g>
    <g
       id="shape15"
       transform="translate(21.85,53.3)">
      <path
         d="m -6.1,-5 q 2,-4.95 2.7,-8 l 0.7,-3.4 1.85,-9.35 2.05,-10.55 q 2.15,-10.75 3.4,-13.45 0.4,-0.9 0.7,-0.9 3.7,0 6.05,7.15 l 0.05,0.15 0.05,0.45 1.15,7.8 q 1.65,11.1 1.65,15.25 0,7.45 -1.4,14.5 Q 11.6,0.7 9.5,5.5 L 7.8,8.95 8.15,8.65 Q 10.8,6.1 12.6,1 l -1.05,3.7 -2.2,5.75 Q 7.5,13.8 3.9,16.4 1.7,17.95 -2.9,20 q -6.4,0 -10.15,1.9 -3.25,2.25 -5.25,2.9 -0.15,0.55 -0.15,-0.2 0,-3.35 6.4,-16.55 Q -8.9,1.6 -6.85,-3.2 L -6.45,-4 -6.1,-5 M 16.55,8.9 q 0.95,-9.1 1,-19.4 l 0.6,3 0.15,1 0.3,2.2 0.35,5.45 0.15,2.4 0.05,1.65 0.2,6.2 q 0,8.65 -1.55,18.55 l -1.2,7.75 -0.25,0.4 q -1.25,-0.65 -2.9,-1 l -0.1,-0.8 q 0,-1.4 1.65,-10.9 l 1.65,-9.75 -0.1,-6.75 m -17,14.25 -1.5,2.3 q -1.45,2.05 -2.2,2.6 l -1.1,-0.3 -0.25,-0.05 -1.85,-0.5 h -0.6 l -0.15,-0.15 0.2,-0.3 0.1,-0.1 0.75,-0.7 0.15,-0.15 3.1,-3 0.75,0.05 1.55,0.15 1.05,0.15 M -8,39.7 h 1.25 l 0.1,0.1 0.05,0.5 v 0.05 l 0.15,0.05 0.15,0.5 Q -7.65,44 -9.9,46 l -0.05,0.15 -0.85,0.6 -0.1,-0.45 -0.25,0.7 -0.2,0.15 -0.15,0.1 -0.95,0.7 -0.55,0.45 -0.15,-3.6 q 0,-1.95 0.9,-3.7 l 1,-1.15 h 0.05 l 0.55,-0.75 0.15,0.05 2.1,0.45 H -8 m 7,-80.7 -0.35,3.15 -0.55,4.1 -0.6,3.15 -0.05,0.2 q -1.1,5.4 -2.4,10.3 -1.2,4.55 -2.55,8.7 l -2,5.55 -1.1,2.65 -0.05,0.15 -0.05,0.15 0.05,-0.2 0.4,-2.7 1.25,-7.15 0.2,-1.1 1,-5.65 q 1.2,-6.5 2.8,-11.85 1.25,-4.2 2.75,-7.65 L -0.9,-42.15 -1,-41"
         fill="#e0e0e0"
         fill-rule="evenodd"
         stroke="none"
         id="path93" />
      <path
         d="m 11.6,-49.55 q 1.2,2.6 3.3,12.85 2.2,10.6 2.2,14.55 l -0.05,1.1 0.1,0.5 Q 19.2,-15.7 20.1,-8.4 L 21.8,4.55 V 17.8 l 0.1,3.4 -0.85,10.4 q -0.6,4.65 -1.35,7.15 l -0.55,1.4 -0.1,0.25 v 0.15 q 0,0.95 -1,0.95 h -0.2 l -1.15,0.85 q -3.8,2.5 -9.2,2.15 l -8.4,0.15 q -2.5,0.55 -5,2 l -3.2,2.25 -3.6,2.6 v 0.3 q 0,0.5 -0.4,0.95 -0.45,0.55 -1.15,0.55 -1.45,0 -1.8,-1.45 v -1.5 q 0,-5.2 0.55,-7.7 0.65,-2.75 1.9,-4.1 l -0.9,-1.65 -0.9,-2.9 0.25,-3.45 q 0.5,-1.95 2.1,-3.45 l 3.25,-3.55 q -2.05,0.8 -4.6,2.3 -5.1,3.05 -5.7,3.05 -1.3,0 -1.65,-2.2 l -0.1,-2.25 q 0,-5.05 4.5,-14.3 l 4.55,-8.65 -0.35,-4.3 q 0,-12.9 3.55,-22.9 2.75,-8.85 4.5,-13.25 2.3,-5.8 4.7,-7.3 0.6,-2.9 2.3,-5.1 3.7,-4.7 9.7,1.8 m -0.2,6.2 -0.05,-0.15 Q 9,-50.65 5.3,-50.65 q -0.3,0 -0.7,0.9 -1.25,2.7 -3.4,13.45 l -2.05,10.55 -1.85,9.35 -0.7,3.4 q -0.7,3.05 -2.7,8 l -0.75,1.8 q -2.05,4.8 -5.2,11.25 -6.4,13.2 -6.4,16.55 0,0.75 0.15,0.2 2,-0.65 5.25,-2.9 Q -9.3,20 -2.9,20 q 7.5,0 11.15,3.9 1.1,1.2 1.65,2.35 l 1.5,-3.8 q 3.15,-8.2 3.15,-15.45 1,-7.9 1.05,-21.25 -0.35,5.2 -1.55,10.3 Q 13.4,-1.2 12.6,1 10.8,6.1 8.15,8.65 L 7.8,8.95 9.5,5.5 q 2.1,-4.8 3.35,-10.85 1.4,-7.05 1.4,-14.5 0,-4.15 -1.65,-15.25 l -1.15,-7.8 -0.05,-0.4 v -0.05 m 5.2,81.05 1.2,-7.75 q 1.55,-9.9 1.55,-18.55 L 19.15,5.2 19.1,3.55 18.95,1.15 18.6,-4.3 l -0.3,-2.2 -0.15,-1 -0.6,-3 q -0.05,10.3 -1,19.4 l -0.5,3.85 q -2.25,16.6 -7,18.4 l -0.1,-0.1 q -1.6,1.1 -3.6,1.1 -2.05,0 -8.4,-1.65 -4.4,-1.15 -6.95,-1.3 l -0.7,0.6 q -1.85,1.7 -1.85,2.05 0,1.35 1,3 1.45,2.4 4.2,2.4 l 15.9,-0.6 4.9,0.45 q 1.65,0.35 2.9,1 l 0.2,0.05 0.05,-0.45 m -20.75,-9.65 7.9,1.85 q 2.75,0 4.2,-1.2 -2.4,-3.3 -2.9,-3.65 -1.95,-1.35 -5.5,-1.9 L -1.5,23 -3.05,22.85 -3.8,22.8 l -3.1,3 -0.15,0.15 -0.75,0.7 -0.1,0.1 -0.55,0.45 h 0.5 0.6 l 1.85,0.5 0.25,0.05 1.1,0.3 m -5.8,18.1 0.65,-0.5 q 5,-3.35 8.1,-3.3 h 8.7 q 6.05,-0.2 8.55,-1.7 L 15.5,40.3 Q 13.05,39.05 5.05,39.05 L -8,39.7 h -0.4 l -2.1,-0.45 -0.15,-0.05 -0.2,-0.1 -0.45,0.5 -0.05,0.05 -0.2,0.25 -0.7,1.2 q -0.9,1.75 -0.9,3.7 l 0.15,3.6 0.55,-0.45 0.95,-0.7 0.15,-0.1 0.2,-0.15 0.35,-0.25 0.85,-0.6 M -1,-41 l 0.1,-1.15 -1.35,2.95 q -1.5,3.45 -2.75,7.65 -1.6,5.35 -2.8,11.85 l -1,5.65 -0.2,1.1 -1.25,7.15 -0.4,2.7 -0.05,0.2 0.05,-0.15 0.05,-0.15 1.1,-2.65 2,-5.55 q 1.35,-4.15 2.55,-8.7 1.3,-4.9 2.4,-10.3 l 0.05,-0.2 0.6,-3.15 0.55,-4.1 L -1,-41"
         fill="#6b6b6b"
         fill-rule="evenodd"
         stroke="none"
         id="path94" />
      <path
         d="M -2.9,20 Q 1.7,17.95 3.9,16.4 7.5,13.8 9.35,10.45 L 11.55,4.7 12.6,1 q 0.8,-2.2 1.45,-4.95 1.2,-5.1 1.55,-10.3 Q 15.55,-0.9 14.55,7 q 0,7.25 -3.15,15.45 l -1.5,3.8 Q 9.35,25.1 8.25,23.9 4.6,20 -2.9,20 M 16.55,8.9 16.65,15.65 15,25.4 q -1.65,9.5 -1.65,10.9 l 0.1,0.8 -4.9,-0.45 -15.9,0.6 q -2.75,0 -4.2,-2.4 -1,-1.65 -1,-3 0,-0.35 1.85,-2.05 l 0.7,-0.6 q 2.55,0.15 6.95,1.3 6.35,1.65 8.4,1.65 2,0 3.6,-1.1 l 0.1,0.1 q 4.75,-1.8 7,-18.4 l 0.5,-3.85 m -17,14.25 q 3.55,0.55 5.5,1.9 0.5,0.35 2.9,3.65 -1.45,1.2 -4.2,1.2 l -7.9,-1.85 q 0.75,-0.55 2.2,-2.6 l 1.5,-2.3 M -8,39.7 5.05,39.05 q 8,0 10.45,1.25 l 0.55,0.35 q -2.5,1.5 -8.55,1.7 h -8.7 q -3.1,-0.05 -8.1,3.3 L -9.95,46.15 -9.9,46 q 2.25,-2 3.6,-5.1 L -6.45,40.4 -6.6,40.35 V 40.3 l -0.05,-0.5 -0.1,-0.1 H -8"
         fill="#c2c2c2"
         fill-rule="evenodd"
         stroke="none"
         id="path95" />
    </g>
    <g
       id="sprite16"
       transform="translate(660.25,0.5)">
      <use
         ffdec:characterId="68"
         height="1.5"
         transform="translate(-660.25,-0.5)"
         width="1320.3"
         xlink:href="#shape16"
         id="use95" />
    </g>
    <g
       id="shape16"
       transform="translate(660.25,0.5)">
      <path
         d="m 659.3,-0.5 0.55,0.25 0.2,0.5 -0.2,0.55 L 659.3,1 H -659.5 l -0.5,-0.2 -0.25,-0.55 0.25,-0.5 0.5,-0.25 H 659.3"
         fill="#ffff00"
         fill-opacity="0"
         fill-rule="evenodd"
         stroke="none"
         id="path96" />
    </g>
  </defs>
</svg>
