<?xml version="1.0" encoding="UTF-8" standalone="no"?>
<svg
   ffdec:objectType="frame"
   height="30.6625"
   width="29.65"
   version="1.1"
   id="svg29"
   sodipodi:docname="2.svg"
   xmlns:inkscape="http://www.inkscape.org/namespaces/inkscape"
   xmlns:sodipodi="http://sodipodi.sourceforge.net/DTD/sodipodi-0.dtd"
   xmlns:xlink="http://www.w3.org/1999/xlink"
   xmlns="http://www.w3.org/2000/svg"
   xmlns:svg="http://www.w3.org/2000/svg"
   xmlns:ffdec="https://www.free-decompiler.com/flash">
  <sodipodi:namedview
     id="namedview29"
     pagecolor="#ffffff"
     bordercolor="#000000"
     borderopacity="0.25"
     inkscape:showpageshadow="2"
     inkscape:pageopacity="0.0"
     inkscape:pagecheckerboard="0"
     inkscape:deskcolor="#d1d1d1"
     fit-margin-top="5"
     fit-margin-left="5"
     fit-margin-right="5"
     fit-margin-bottom="5" />
  <g
     transform="translate(14.8,13.2125)"
     id="g14">
    <use
       ffdec:characterId="2377"
       height="11.3"
       transform="matrix(-0.585,0.811,0.811,0.585,-3.8402,-5.6226)"
       width="10.4"
       xlink:href="#sprite0"
       id="use1" />
    <use
       ffdec:characterId="2377"
       height="11.3"
       transform="matrix(-0.6745,0.4083,0.4083,0.6745,9.7004,-7.5342)"
       width="10.4"
       xlink:href="#sprite0"
       id="use2" />
    <use
       ffdec:characterId="2377"
       height="11.3"
       transform="matrix(-0.585,0.811,0.811,0.585,4.6098,0.2774)"
       width="10.4"
       xlink:href="#sprite0"
       id="use3" />
    <use
       ffdec:characterId="2377"
       height="11.3"
       transform="matrix(-0.9573,-0.2889,-0.2889,0.9573,-1.2395,-5.1566)"
       width="10.4"
       xlink:href="#sprite0"
       id="use4" />
    <use
       ffdec:characterId="2377"
       height="11.3"
       transform="matrix(-0.585,0.811,0.811,0.585,-2.9902,3.5774)"
       width="10.4"
       xlink:href="#sprite0"
       id="use5" />
    <use
       ffdec:characterId="2377"
       height="11.3"
       transform="matrix(0.9189,0.3946,-0.3946,0.9189,-10.3988,-3.5433)"
       width="10.4"
       xlink:href="#sprite1"
       id="use6" />
    <use
       ffdec:characterId="2377"
       height="11.3"
       transform="matrix(-0.194,0.8501,0.8501,0.194,3.256,6.3833)"
       width="10.4"
       xlink:href="#sprite1"
       id="use7" />
    <use
       ffdec:characterId="2377"
       height="11.3"
       transform="matrix(-0.585,0.811,0.811,0.585,5.6098,-4.2726)"
       width="10.4"
       xlink:href="#sprite1"
       id="use8" />
    <use
       ffdec:characterId="2377"
       height="11.3"
       transform="matrix(-1,0,0,1,5.35,2.95)"
       width="10.4"
       xlink:href="#sprite1"
       id="use9" />
    <use
       ffdec:characterId="2377"
       height="11.3"
       transform="matrix(-0.7608,0.4259,0.4259,0.7608,-6.6003,4.9366)"
       width="10.4"
       xlink:href="#sprite1"
       id="use10" />
    <use
       ffdec:characterId="2379"
       height="16.15"
       transform="matrix(0.9552,0.296,-0.296,0.9552,-3.3182,-7.3079)"
       width="19.4"
       xlink:href="#sprite2"
       id="use11" />
    <use
       ffdec:characterId="44"
       height="8"
       transform="matrix(0,1,-1.0677,0,-5.229,-0.35)"
       width="10.8"
       xlink:href="#sprite3"
       id="use12" />
    <use
       ffdec:characterId="1855"
       height="27.5"
       transform="translate(-7.05,-11.7)"
       width="17.1"
       xlink:href="#sprite4"
       id="use13" />
    <use
       ffdec:characterId="2370"
       height="30.65"
       transform="translate(-14.8,-13.2)"
       width="29.65"
       xlink:href="#sprite7"
       id="use14" />
  </g>
  <defs
     id="defs29">
    <g
       id="sprite0"
       transform="translate(5.2,5.65)">
      <use
         ffdec:characterId="2376"
         height="11.3"
         transform="translate(-5.2,-5.65)"
         width="10.4"
         xlink:href="#shape0"
         id="use15" />
    </g>
    <g
       id="shape0"
       transform="translate(5.2,5.65)">
      <path
         d="m -3,1.25 0.1,0.85 q 0.5,1.15 2.35,1.15 2.05,0 3,-2.55 0.45,-1.3 0.5,-2.7 0,-1.75 -1.7,-1.35 l -1.3,0.45 q -3,1.35 -3,3.4 L -3,1.25 M 3.6,-5.4 q 1.6,0.75 1.6,3.35 0,2.3 -0.75,4.2 -1.45,3.5 -5,3.5 -3.1,0 -4.15,-1.85 -0.5,-0.85 -0.5,-2.15 0,-4.5 5.2,-6.75 2.15,-0.95 3.6,-0.3"
         fill="#7f7f7f"
         fill-rule="evenodd"
         stroke="none"
         id="path15" />
      <path
         d="m -3,1.25 1.1,0.2 q 1.75,0 2.7,-1.6 0.7,-1.15 0.7,-2.1 L 1.25,-3.35 Q 2.95,-3.75 2.95,-2 2.9,-0.6 2.45,0.7 1.5,3.25 -0.55,3.25 -2.4,3.25 -2.9,2.1 L -3,1.25"
         fill="#b6b6b6"
         fill-rule="evenodd"
         stroke="none"
         id="path16" />
      <path
         d="m 1.25,-3.35 0.25,1.1 q 0,0.95 -0.7,2.1 -0.95,1.6 -2.7,1.6 L -3,1.25 -3.05,0.5 q 0,-2.05 3,-3.4 l 1.3,-0.45"
         fill="#d0d0d0"
         fill-rule="evenodd"
         stroke="none"
         id="path17" />
    </g>
    <g
       id="sprite1"
       transform="translate(5.2,5.65)">
      <use
         ffdec:characterId="2376"
         height="11.3"
         transform="translate(-5.2,-5.65)"
         width="10.4"
         xlink:href="#shape1"
         id="use17" />
    </g>
    <g
       id="shape1"
       transform="translate(5.2,5.65)">
      <path
         d="m -3,1.25 0.1,0.85 q 0.5,1.15 2.35,1.15 2.05,0 3,-2.55 0.45,-1.3 0.5,-2.7 0,-1.75 -1.7,-1.35 l -1.3,0.45 q -3,1.35 -3,3.4 L -3,1.25 M 3.6,-5.4 q 1.6,0.75 1.6,3.35 0,2.3 -0.75,4.2 -1.45,3.5 -5,3.5 -3.1,0 -4.15,-1.85 -0.5,-0.85 -0.5,-2.15 0,-4.5 5.2,-6.75 2.15,-0.95 3.6,-0.3"
         fill="#6b6b6b"
         fill-rule="evenodd"
         stroke="none"
         id="path18" />
      <path
         d="m -3,1.25 1.1,0.2 q 1.75,0 2.7,-1.6 0.7,-1.15 0.7,-2.1 L 1.25,-3.35 Q 2.95,-3.75 2.95,-2 2.9,-0.6 2.45,0.7 1.5,3.25 -0.55,3.25 -2.4,3.25 -2.9,2.1 L -3,1.25"
         fill="#d0d0d0"
         fill-rule="evenodd"
         stroke="none"
         id="path19" />
      <path
         d="m 1.25,-3.35 0.25,1.1 q 0,0.95 -0.7,2.1 -0.95,1.6 -2.7,1.6 L -3,1.25 -3.05,0.5 q 0,-2.05 3,-3.4 l 1.3,-0.45"
         fill="#ffffff"
         fill-rule="evenodd"
         stroke="none"
         id="path20" />
    </g>
    <g
       id="sprite2"
       transform="translate(9.7,8.1)">
      <use
         ffdec:characterId="2378"
         height="16.15"
         transform="translate(-9.7,-8.1)"
         width="19.4"
         xlink:href="#shape2"
         id="use20" />
    </g>
    <g
       id="shape2"
       transform="translate(9.7,8.1)">
      <path
         d="m 2.35,-7.8 q 3.9,-0.05 3.9,3.25 0,1.15 -0.55,2.2 -0.55,1.05 -1.5,1.5 L 7,-1.05 7.15,-1.1 Q 8,-1.15 8.3,0.4 9.7,3.05 9.7,3.85 9.7,4.7 8.85,4.7 7.65,4.7 5,3.75 L 3.1,3 Q 2.35,4.4 0.85,4.8 L 0.9,5.6 H 1.05 Q 2.7,5.5 2.7,6.15 q 0,0.3 -0.95,0.6 L 0.8,7 Q 0.75,8.05 0.25,8.05 -0.3,8.05 -0.4,7.35 l -1.15,0.2 q -0.6,0 -0.6,-0.5 0,-0.5 0.8,-1.1 0.4,-0.3 0.8,-0.45 L -0.5,4.9 Q -2.4,4.85 -3.25,3.95 l -0.45,0.3 -1.1,0.7 V 5 q 0.15,0.3 0.15,0.85 l -0.15,0.6 q -0.15,0.4 -0.4,0.4 -0.45,0 -0.85,-1 l -1.15,0.2 q -0.8,0 -0.7,-0.6 L -7,4.65 -6.75,4.5 -7.2,3.3 q 0,-0.8 1.2,0 l 0.55,0.4 1.4,-1.15 -0.1,-0.65 Q -5.95,1.8 -7.75,1 -9.7,0.15 -9.7,-0.7 q 0,-0.9 1.8,-1.6 l 2.85,-0.95 2.35,0.15 0.6,0.65 0.85,-0.25 -0.3,-1.35 H -1.8 q -1.2,0 -1.55,-0.3 -0.2,-0.15 -0.2,-0.55 0,-0.85 1.65,-0.85 l 0.4,0.05 0.1,-0.3 q -0.65,-0.45 -0.9,-1.3 0,-1.2 1.5,-0.6 l 0.85,0.45 2.3,-0.35 m 1,2.6 q 1.05,-0.05 1.05,0.5 0,0.35 -0.95,0.65 L 3.35,-4 3.45,-3.55 Q 3.35,-2.9 2.95,-2.9 H 2.9 q -0.5,0 -0.55,-0.45 V -3.8 l -0.6,0.05 Q 1.1,-3.75 1.1,-4.4 l 0.25,-0.4 0.8,-0.3 -0.1,-0.4 q 0,-0.7 0.45,-0.35 l 0.55,0.65 h 0.3 m -3.25,1 V -4 l 0.1,0.4 0.7,0.7 q 0.55,0.45 1.1,0.6 l 0.5,0.05 q 1.3,0 1.8,-1.15 l 0.25,-1.15 q 0,-1.25 -1.3,-1.5 L 2.35,-6.1 q -1,0.05 -1.55,0.5 l -0.25,0.25 q -0.4,0.4 -0.45,1.15 m -2.5,5.3 -0.05,0.45 q 0,1.6 2.15,1.6 1.3,0 1.95,-1.3 0.4,-0.85 0.4,-1.6 l -0.2,-0.8 -0.6,-0.1 Q 0.6,-0.8 0.1,-1.1 L -0.05,-1.2 -0.8,-0.85 Q -1.75,-0.4 -2.1,0.3 L -2.4,1.1 M 6.85,1.3 6.6,0.55 H 6.15 5.3 5.15 L 3.75,0.5 3.65,1.45 V 1.6 H 3.8 L 4.5,1.8 5.3,2 7.25,2.55 6.85,1.3 m -10.4,-3.4 -0.15,-0.15 -1.1,0.3 -0.65,0.3 q -1.55,0.8 -1.8,0.9 l -0.25,0.1 0.7,0.15 1.05,0.25 0.85,0.2 0.9,0.3 0.3,-1 0.55,-0.9 -0.4,-0.45"
         fill="#6b6b6b"
         fill-rule="evenodd"
         stroke="none"
         id="path21" />
      <path
         d="m 3.35,-5.2 -0.1,-0.85 q 1.3,0.25 1.3,1.5 L 4.3,-3.4 Q 3.8,-2.25 2.5,-2.25 L 2,-2.3 Q 1.45,-2.45 0.9,-2.9 L 0.2,-3.6 0.1,-4 v -0.2 l 0.15,0.15 0.05,0.1 q 0.5,0.6 1.7,0.6 H 2.35 Q 2.4,-2.9 2.9,-2.9 h 0.05 q 0.4,0 0.5,-0.65 L 3.35,-4 3.45,-4.05 Q 4.4,-4.35 4.4,-4.7 4.4,-5.25 3.35,-5.2 m -2.1,4.55 0.6,0.1 0.2,0.8 q 0,0.75 -0.4,1.6 -0.65,1.3 -1.95,1.3 -2.15,0 -2.15,-1.6 L -2.4,1.1 -2.3,1.3 Q -1.9,2 -0.85,2 1.3,2 1.3,-0.05 L 1.25,-0.65 M 5.3,2 Q 6.2,1.95 6.85,1.3 L 7.25,2.55 5.3,2 M -5.75,-0.25 h 0.2 q 1.05,0 1.6,-0.7 0.4,-0.5 0.4,-0.95 v -0.2 l 0.4,0.45 -0.55,0.9 -0.3,1 -0.9,-0.3 -0.85,-0.2"
         fill="#808080"
         fill-rule="evenodd"
         stroke="none"
         id="path22" />
      <path
         d="m 3.25,-6.05 0.1,0.85 H 3.05 L 2.5,-5.85 Q 2.05,-6.2 2.05,-5.5 l 0.1,0.4 -0.8,0.3 -0.25,0.4 q 0,0.65 0.65,0.65 l 0.6,-0.05 v 0.45 H 2 q -1.2,0 -1.7,-0.6 L 0.25,-4.05 0.1,-4.2 Q 0.15,-4.95 0.55,-5.35 L 0.8,-5.6 q 0.55,-0.45 1.55,-0.5 l 0.9,0.05 M -2.4,1.1 -2.1,0.3 q 0.35,-0.7 1.3,-1.15 l 0.75,-0.35 0.15,0.1 q 0.5,0.3 1.15,0.45 l 0.05,0.6 Q 1.3,2 -0.85,2 -1.9,2 -2.3,1.3 L -2.4,1.1 M 3.65,1.45 3.75,0.5 5.15,0.55 H 5.3 6.15 6.6 L 6.85,1.3 Q 6.2,1.95 5.3,2 L 4.5,1.8 3.8,1.6 3.65,1.45 m -9.4,-1.7 -1.05,-0.25 -0.7,-0.15 0.25,-0.1 q 0.25,-0.1 1.8,-0.9 l 0.65,-0.3 1.1,-0.3 0.15,0.15 v 0.2 q 0,0.45 -0.4,0.95 -0.55,0.7 -1.6,0.7 h -0.2"
         fill="#8c8c8c"
         fill-rule="evenodd"
         stroke="none"
         id="path23" />
    </g>
    <g
       id="sprite3"
       transform="translate(5.4,4)">
      <use
         ffdec:characterId="43"
         height="8"
         transform="translate(-5.4,-4)"
         width="10.8"
         xlink:href="#shape3"
         id="use23" />
    </g>
    <g
       id="shape3"
       transform="translate(5.4,4)">
      <path
         d="m 2.9,-0.35 q 0,-1.25 1.25,-1.25 1.25,0 1.25,1.2 0,1.3 -1.25,1.3 Q 3.6,0.9 3.25,0.5 2.9,0.15 2.9,-0.35 m 0.35,-2.3 q 0,0.55 -0.35,0.9 -0.4,0.45 -1,0.45 -1.35,0 -1.35,-1.4 0,-1.3 1.35,-1.3 1.35,0 1.35,1.35 m -3.1,1.9 h 0.2 q 2.6,0.1 2.6,2.8 l -0.3,1 Q 2.05,4 0.45,4 H 0.35 0.15 0.1 -0.45 q -1.6,0 -2.2,-0.95 l -0.3,-1 q 0,-2.8 2.8,-2.8 h 0.3 M -1.55,-4 q 1.35,0 1.35,1.35 0,0.55 -0.4,0.9 -0.4,0.45 -0.95,0.45 -1.4,0 -1.4,-1.4 0,-1.3 1.4,-1.3 m -2.6,2.4 q 1.25,0 1.25,1.25 0,0.5 -0.35,0.85 -0.35,0.4 -0.9,0.4 -1.25,0 -1.25,-1.3 0,-1.2 1.25,-1.2"
         fill="#6b6b6b"
         fill-opacity="0.6"
         fill-rule="evenodd"
         stroke="none"
         id="path24" />
    </g>
    <g
       id="sprite4"
       transform="translate(5.45,22.95)">
      <use
         ffdec:characterId="1854"
         height="27.5"
         transform="translate(-5.45,-22.95)"
         width="17.1"
         xlink:href="#sprite5"
         id="use24" />
    </g>
    <g
       id="sprite5"
       transform="translate(5.45,22.95)">
      <use
         ffdec:characterId="1853"
         height="5.25"
         transform="scale(0.7692)"
         width="5.0999999"
         xlink:href="#sprite6"
         id="use25" />
    </g>
    <g
       id="sprite6">
      <use
         ffdec:characterId="1852"
         height="5.25"
         width="5.0999999"
         xlink:href="#shape4"
         id="use26" />
    </g>
    <g
       id="shape4">
      <path
         d="M 3.4,1.1 2.1,1.2 1.55,2.05 Q 1.15,2.7 1.3,3.1 1.4,3.45 2.2,4 3,4.55 3.5,4.3 3.95,4.05 4.25,2.6 4.25,1.35 3.4,1.1 M 0.35,4.2 Q 0,3.6 0,2.9 0,0.55 2.55,0.1 5.1,-0.35 5.1,1.55 5.1,5.25 2.6,5.25 1,5.25 0.35,4.2"
         fill="#999999"
         fill-opacity="0.439216"
         fill-rule="evenodd"
         stroke="none"
         id="path26" />
    </g>
    <g
       id="sprite7"
       transform="translate(14.8,13.25)">
      <use
         ffdec:characterId="2369"
         height="30.65"
         transform="translate(-14.8,-13.25)"
         width="29.65"
         xlink:href="#shape5"
         id="use27" />
    </g>
    <g
       id="shape5"
       transform="translate(14.8,13.25)">
      <path
         d="m 11.6,-13.15 q 0.05,-0.15 0.15,-0.1 l 0.3,0.35 v 0.1 l 0.2,0.4 v 5 q 1.05,0.4 1.7,1.3 l 0.25,0.4 0.3,0.6 0.15,0.5 0.05,0.1 0.05,0.95 0.05,0.9 V 12.1 l 0.05,0.4 v 0.6 H 14.7 v 0.3 l -0.05,0.95 -0.05,0.1 -0.15,0.5 -0.3,0.6 -0.25,0.4 q -0.8,1.1 -2.15,1.45 H -11.8 q -1.35,-0.35 -2.15,-1.45 l -0.25,-0.4 -0.3,-0.6 -0.15,-0.5 -0.05,-0.1 -0.05,-0.95 -0.05,-2.15 V 11.1 -2.3 l 0.1,-1.25 0.05,-0.95 0.05,-0.1 0.15,-0.5 0.3,-0.6 0.25,-0.4 0.5,-0.55 1.05,-0.7 v -5.05 h 0.05 l 0.2,-0.4 v -0.1 q 0.2,-0.55 0.45,-0.25 l 0.2,-0.1 4.85,0.1 v 0.05 h 2 0.25 1.4 0.1 0.3 0.1 0.55 0.25 0.25 0.15 l 12.65,-0.15 0.2,0.1 m -9,2.25 H 2.45 1.35 v 0.05 h -3.8 v -0.05 h -1.1 -0.15 l -3.95,0.05 v 0.05 h -2.5 v 2 l 6.45,0.1 h 0.15 1.1 v -0.05 h 3.8 v 0.05 h 1.1 0.15 l 7.5,-0.1 v -2 l -7.5,-0.1 m 9.7,8.3 q -0.15,-1.05 -0.85,-1.75 l -0.8,-0.5 -10.3,-0.3 -9.3,-0.2 q -1.85,0.4 -2.45,1 -0.7,0.7 -0.85,1.75 l -0.05,1.2 h -0.05 V 11 l 0.05,0.25 v 1.2 q 0.15,1.05 0.85,1.75 l 0.8,0.5 10.3,0.3 9.3,0.2 q 1.85,-0.4 2.45,-1 0.7,-0.7 0.85,-1.75 l 0.05,-1.2 V 11 -1.4 -2.6"
         fill="#6b6b6b"
         fill-rule="evenodd"
         stroke="none"
         id="path27" />
      <path
         d="m 2.6,-10.9 7.5,0.1 v 2 L 2.6,-8.7 H 2.45 1.35 v -0.05 h -3.8 v 0.05 h -1.1 -0.15 l -6.45,-0.1 v -2 h 2.5 v -0.05 l 3.95,-0.05 h 0.15 1.1 v 0.05 h 3.8 v -0.05 h 1.1 0.15"
         fill="#999999"
         fill-rule="evenodd"
         stroke="none"
         id="path28" />
      <path
         d="m 0.05,-0.7 q -1.4,0 -1.2,-1.4 0,-1.25 1.25,-1.35 1.2,-0.05 1.2,1.35 0,1.4 -1.25,1.4 M -11,-0.75 q 0,-1.2 0.75,-2.1 1.1,-1.4 3.55,-1.2 2.8,0.15 3.7,0.8 0.55,0.35 0.55,1.35 0,1.05 -1.05,1.8 -1.4,1 -4.35,1 -2.2,0 -2.9,-0.8 -0.35,-0.45 -0.25,-0.85"
         fill="#ffffff"
         fill-opacity="0.498039"
         fill-rule="evenodd"
         stroke="none"
         id="path29" />
    </g>
  </defs>
</svg>
