<?xml version="1.0" encoding="UTF-8" standalone="no"?>
<svg
   ffdec:objectType="frame"
   height="8.1499996"
   width="48.849998"
   version="1.1"
   id="svg9"
   sodipodi:docname="2.svg"
   xmlns:inkscape="http://www.inkscape.org/namespaces/inkscape"
   xmlns:sodipodi="http://sodipodi.sourceforge.net/DTD/sodipodi-0.dtd"
   xmlns:xlink="http://www.w3.org/1999/xlink"
   xmlns="http://www.w3.org/2000/svg"
   xmlns:svg="http://www.w3.org/2000/svg"
   xmlns:ffdec="https://www.free-decompiler.com/flash">
  <sodipodi:namedview
     id="namedview9"
     pagecolor="#ffffff"
     bordercolor="#000000"
     borderopacity="0.25"
     inkscape:showpageshadow="2"
     inkscape:pageopacity="0.0"
     inkscape:pagecheckerboard="0"
     inkscape:deskcolor="#d1d1d1"
     fit-margin-top="5"
     fit-margin-left="5"
     fit-margin-right="5"
     fit-margin-bottom="5" />
  <g
     transform="translate(23.75,4.05)"
     id="g4">
    <use
       ffdec:characterId="2091"
       height="8.1499996"
       transform="translate(-23.75,-4.05)"
       width="48.849998"
       xlink:href="#shape0"
       id="use1" />
    <use
       ffdec:characterId="1691"
       height="8"
       transform="matrix(0.7845,0,0,-0.7845,-12.6861,2.5379)"
       width="10.8"
       xlink:href="#sprite0"
       id="use2" />
    <use
       ffdec:characterId="1977"
       height="2.3"
       transform="matrix(0,0.8349,-0.8349,0,-14.3898,-1.1354)"
       width="2.55"
       xlink:href="#sprite1"
       id="use3" />
    <use
       ffdec:characterId="1979"
       height="2.3"
       transform="matrix(0,0.8349,-0.8349,0,-19.4398,-1.1354)"
       width="2.55"
       xlink:href="#sprite2"
       id="use4" />
  </g>
  <defs
     id="defs9">
    <g
       id="shape0"
       transform="translate(23.75,4.05)">
      <path
         d="m 1.65,-0.3 v -0.3 l 15.3,-0.05 h 0.2 L 17.1,-0.3 H 1.65 m 16.55,0 -0.1,-0.65 Q 17.95,-1.5 17.4,-1.7 L 17.35,-1.65 17.3,-1.7 h -5.75 l -5.8,0.15 -0.6,0.05 h -3.6 l -0.4,-0.3 q -0.35,0 -0.45,0.45 l -0.2,0.2 v 0.2 l 0.1,0.15 v 0.25 L 0.65,-0.3 H -5.4 V -0.65 L -6.85,-0.9 q -1.5,0.1 -1.65,0.6 h -0.95 q -0.1,-0.35 -0.7,-0.5 -2.1,-0.05 -2.4,0.5 l -0.05,0.2 h 0.05 0.65 l -0.65,0.05 h -0.05 -4.7 1.05 l 0.1,-0.25 h -0.35 l -0.8,0.25 -2.8,-0.05 h -0.3 l 0.05,0.15 h -1.9 -0.1 v -0.6 L -22.4,-1.6 -22.45,-2.15 V -2.2 h 0.05 l 2,0.2 42.85,-0.1 h 1.05 l -0.1,1.15 v 0.6 l -0.5,0.05 h -4.7"
         fill="#8e8e8e"
         fill-rule="evenodd"
         stroke="none"
         id="path4" />
      <path
         d="m 17.1,-0.3 0.05,-0.35 h -0.2 L 1.65,-0.6 v 0.3 L 1.6,0.45 3.6,0.25 H 17.1 V -0.15 -0.3 M 0.65,-0.3 0.6,-0.55 V -0.8 L 0.5,-0.95 v -0.2 l 0.2,-0.2 Q 0.8,-1.8 1.15,-1.8 l 0.4,0.3 h 3.6 l 0.6,-0.05 5.8,-0.15 h 5.75 l 0.05,0.05 0.05,-0.05 q 0.55,0.2 0.7,0.75 l 0.1,0.65 -0.05,0.2 V 1 L 18,1.15 17.8,1.35 17.4,1.5 H 3.6 L 1.45,1.3 1.1,1.35 0.95,1.15 0.75,1.05 0.8,1 0.85,0.85 0.7,0.4 0.65,-0.3 M 23.4,-0.35 v -0.6 l 0.1,-1.15 h -1.05 l -42.85,0.1 -2,-0.2 h -0.05 v 0.05 l 0.05,0.55 0.05,1.05 v 0.6 0.45 l -0.1,1.1 -0.05,0.15 46,0.15 V 1.8 L 23.45,1 V 0.25 l -0.05,-0.6 m 0.95,3.9 h -0.3 L 23.65,4.05 23.5,4.1 H 17.45 L 16.95,3.85 16.9,3.6 -16.15,3.7 V 3.75 L -16.2,4.1 h -6.4 l -0.1,-0.4 h -0.6 l -0.45,-0.1 v -7.2 l 0.7,-0.2 2.65,-0.25 42.85,0.1 Q 24.6,-4.2 25.1,-3.5 v 6.7 q -0.2,0.35 -0.75,0.35"
         fill="#6b6b6b"
         fill-rule="evenodd"
         stroke="none"
         id="path5" />
      <path
         d="m 17.1,-0.3 v 0.15 0.4 H 3.6 l -2,0.2 0.05,-0.75 H 17.1 m 1.1,0 h 4.7 l 0.5,-0.05 0.05,0.6 V 1 l 0.05,0.8 v 0.1 l -46,-0.15 0.05,-0.15 0.1,-1.1 V 0.05 h 0.1 1.9 L -20.4,-0.1 h 0.3 l 2.8,0.05 0.8,-0.25 h 0.35 l -0.1,0.25 h -1.05 4.7 0.05 l 0.65,-0.05 h -0.65 -0.05 l 0.05,-0.2 q 0.3,-0.55 2.4,-0.5 0.6,0.15 0.7,0.5 h 0.95 q 0.15,-0.5 1.65,-0.6 l 1.45,0.25 V -0.3 H 0.65 L 0.7,0.4 0.85,0.85 0.8,1 0.75,1.05 0.95,1.15 1.1,1.35 1.45,1.3 3.6,1.5 H 17.4 L 17.8,1.35 18,1.15 18.15,1 v -1.1 l 0.05,-0.2"
         fill="#797979"
         fill-rule="evenodd"
         stroke="none"
         id="path6" />
    </g>
    <g
       id="sprite0"
       transform="translate(5.4,4)">
      <use
         ffdec:characterId="43"
         height="8"
         transform="translate(-5.4,-4)"
         width="10.8"
         xlink:href="#shape1"
         id="use6" />
    </g>
    <g
       id="shape1"
       transform="translate(5.4,4)">
      <path
         d="m 2.9,-0.35 q 0,-1.25 1.25,-1.25 1.25,0 1.25,1.2 0,1.3 -1.25,1.3 Q 3.6,0.9 3.25,0.5 2.9,0.15 2.9,-0.35 m 0.35,-2.3 q 0,0.55 -0.35,0.9 -0.4,0.45 -1,0.45 -1.35,0 -1.35,-1.4 0,-1.3 1.35,-1.3 1.35,0 1.35,1.35 m -3.1,1.9 h 0.2 q 2.6,0.1 2.6,2.8 l -0.3,1 Q 2.05,4 0.45,4 H 0.35 0.15 0.1 -0.45 q -1.6,0 -2.2,-0.95 l -0.3,-1 q 0,-2.8 2.8,-2.8 h 0.3 M -1.55,-4 q 1.35,0 1.35,1.35 0,0.55 -0.4,0.9 -0.4,0.45 -0.95,0.45 -1.4,0 -1.4,-1.4 0,-1.3 1.4,-1.3 m -2.6,2.4 q 1.25,0 1.25,1.25 0,0.5 -0.35,0.85 -0.35,0.4 -0.9,0.4 -1.25,0 -1.25,-1.3 0,-1.2 1.25,-1.2"
         fill="#6b6b6b"
         fill-rule="evenodd"
         stroke="none"
         id="path7" />
    </g>
    <g
       id="sprite1"
       transform="translate(1.3,1.15)">
      <use
         ffdec:characterId="695"
         height="2.3"
         transform="translate(-1.3,-1.15)"
         width="2.55"
         xlink:href="#shape2"
         id="use7" />
    </g>
    <g
       id="shape2"
       transform="translate(1.3,1.15)">
      <path
         d="m 1.25,-0.3 v 0.25 q 0,1.2 -1.3,1.2 L -0.45,1.1 Q -1,1 -1.2,0.55 l -0.05,-0.5 -0.05,-0.1 0.05,-0.25 0.2,-0.55 q 0.3,-0.4 1.05,-0.3 l 0.95,0.35 0.3,0.5"
         fill="#ffffff"
         fill-rule="evenodd"
         stroke="none"
         id="path8" />
    </g>
    <g
       id="sprite2"
       transform="translate(1.3,1.15)">
      <use
         ffdec:characterId="696"
         height="2.3"
         transform="translate(-1.3,-1.15)"
         width="2.55"
         xlink:href="#shape3"
         id="use8" />
    </g>
    <g
       id="shape3"
       transform="translate(1.3,1.15)">
      <path
         d="m 1.25,-0.05 q 0,1.2 -1.3,1.2 L -0.45,1.1 Q -1,1 -1.2,0.55 l -0.05,-0.5 -0.05,-0.1 0.05,-0.25 0.2,-0.55 q 0.3,-0.4 1.05,-0.3 l 0.95,0.35 0.3,0.5 v 0.25"
         fill="#6b6b6b"
         fill-rule="evenodd"
         stroke="none"
         id="path9" />
    </g>
  </defs>
</svg>
