<?xml version="1.0" encoding="UTF-8" standalone="no"?>
<svg
   ffdec:objectType="frame"
   height="25.574017"
   width="31.9"
   version="1.1"
   id="svg2"
   sodipodi:docname="1.svg"
   xmlns:inkscape="http://www.inkscape.org/namespaces/inkscape"
   xmlns:sodipodi="http://sodipodi.sourceforge.net/DTD/sodipodi-0.dtd"
   xmlns:xlink="http://www.w3.org/1999/xlink"
   xmlns="http://www.w3.org/2000/svg"
   xmlns:svg="http://www.w3.org/2000/svg"
   xmlns:ffdec="https://www.free-decompiler.com/flash">
  <sodipodi:namedview
     id="namedview2"
     pagecolor="#ffffff"
     bordercolor="#000000"
     borderopacity="0.25"
     inkscape:showpageshadow="2"
     inkscape:pageopacity="0.0"
     inkscape:pagecheckerboard="0"
     inkscape:deskcolor="#d1d1d1"
     fit-margin-top="5"
     fit-margin-left="5"
     fit-margin-right="5"
     fit-margin-bottom="5" />
  <g
     transform="translate(15.95,12.790909)"
     id="g1">
    <use
       ffdec:characterId="3803"
       height="25.6"
       transform="translate(-15.95,-12.8)"
       width="31.9"
       xlink:href="#shape0"
       id="use1" />
  </g>
  <defs
     id="defs2">
    <g
       id="shape0"
       transform="translate(15.95,12.8)">
      <path
         d="m 7.4,-6.05 q -2.2,-3.55 -7,-3.55 -5.15,0 -7.15,5 L -8,-1.2 q -0.5,1.35 -1.3,1.55 l -1.4,0.1 q -2,-0.2 -2,1.4 0,0.5 0.45,0.6 1.4,-0.1 2.2,0.35 l 0.6,0.05 q 1.55,0.3 1.55,1.8 L -8,5.4 -8.05,5.5 -7,7.05 q 1.9,2.55 6.35,2.85 h 4.2 Q 6.7,9.55 8.4,7.4 9.7,5.75 9.7,3.9 l -0.5,-3 q 0,-1.1 0.9,-1.4 l 1.3,-0.3 q 1.7,-0.2 1.7,-1.6 l -0.65,-0.55 -0.7,-0.2 -1.45,0.25 -0.4,0.15 -0.55,0.2 -0.4,-0.3 Q 8.35,-3.15 8.35,-4.1 L 7.4,-6.05 m 8.55,4 q 0,1.4 -0.6,2.5 -0.95,1.7 -3.05,1.95 l 0.05,1.5 q 0,2.75 -1.7,5.1 -2.35,3.2 -7,3.65 l -4.3,0.1 q -4.2,0.35 -7.8,-3 -2.4,-2.2 -2.95,-3.9 H -12 q -2.65,0 -3.55,-1.95 l -0.4,-1.95 q 0,-3.95 3.2,-4.35 l 1.65,0.1 q 0.3,-4.65 3.35,-7.45 2.9,-2.7 7.4,-3 4.25,-0.3 7.45,1.6 3.25,2.05 3.35,5.3 l 2.25,-0.1 q 3.25,0.4 3.25,3.9 M 6.4,5.15 Q 7,5.15 7,5.8 7,6.45 6.35,6.45 5.9,6.45 5.75,6.15 v -0.3 q 0,-0.65 0.65,-0.7 m -8.25,-12.2 q -0.45,0 -0.6,-0.3 L -2.5,-7.7 q 0,-0.8 0.75,-0.7 0.75,0.05 0.75,0.6 0,0.3 -0.3,0.55 l -0.55,0.2 M -4.3,5.1 -4.4,5.45 -4.75,5.6 -5.35,5.15 -5.2,4.75 -4.45,4.65 -4.3,5.1 m 3,2.5 -0.1,-0.4 q 0,-0.75 0.75,-0.75 0.75,0 0.75,0.75 0,0.75 -0.75,0.75 -0.45,0 -0.65,-0.35"
         fill="#6b6b6b"
         fill-rule="evenodd"
         stroke="none"
         id="path1" />
      <path
         d="m 7.4,-6.05 0.95,1.95 q 0,0.95 0.6,1.25 l 0.4,0.3 0.55,-0.2 0.4,-0.15 1.45,-0.25 0.7,0.2 0.65,0.55 q 0,1.4 -1.7,1.6 l -1.3,0.3 Q 9.2,-0.2 9.2,0.9 l 0.5,3 Q 9.7,5.75 8.4,7.4 6.7,9.55 3.55,9.9 h -4.2 Q -5.1,9.6 -7,7.05 L -8.05,5.5 -8,5.4 -7.9,4.65 q 0,-1.5 -1.55,-1.8 l -0.6,-0.05 q -0.8,-0.45 -2.2,-0.35 -0.45,-0.1 -0.45,-0.6 0,-1.6 2,-1.4 l 1.4,-0.1 Q -8.5,0.15 -8,-1.2 l 1.25,-3.4 q 2,-5 7.15,-5 4.8,0 7,3.55 M -1.3,7.6 q 0.2,0.35 0.65,0.35 0.75,0 0.75,-0.75 0,-0.75 -0.75,-0.75 -0.75,0 -0.75,0.75 l 0.1,0.4 m -3,-2.5 -0.15,-0.45 -0.75,0.1 -0.15,0.4 0.6,0.45 0.35,-0.15 0.1,-0.35 m 2.45,-12.15 0.55,-0.2 Q -1,-7.5 -1,-7.8 -1,-8.35 -1.75,-8.4 -2.5,-8.5 -2.5,-7.7 l 0.05,0.35 q 0.15,0.3 0.6,0.3 M 6.4,5.15 Q 5.75,5.2 5.75,5.85 v 0.3 Q 5.9,6.45 6.35,6.45 7,6.45 7,5.8 7,5.15 6.4,5.15"
         fill="#dfdeb5"
         fill-rule="evenodd"
         stroke="none"
         id="path2" />
    </g>
  </defs>
</svg>
