<?xml version="1.0" encoding="UTF-8" standalone="no"?>
<svg
   ffdec:objectType="frame"
   height="29.200001"
   width="29"
   version="1.1"
   id="svg5"
   sodipodi:docname="1.svg"
   xmlns:inkscape="http://www.inkscape.org/namespaces/inkscape"
   xmlns:sodipodi="http://sodipodi.sourceforge.net/DTD/sodipodi-0.dtd"
   xmlns:xlink="http://www.w3.org/1999/xlink"
   xmlns="http://www.w3.org/2000/svg"
   xmlns:svg="http://www.w3.org/2000/svg"
   xmlns:ffdec="https://www.free-decompiler.com/flash">
  <sodipodi:namedview
     id="namedview5"
     pagecolor="#ffffff"
     bordercolor="#000000"
     borderopacity="0.25"
     inkscape:showpageshadow="2"
     inkscape:pageopacity="0.0"
     inkscape:pagecheckerboard="0"
     inkscape:deskcolor="#d1d1d1"
     fit-margin-top="5"
     fit-margin-left="5"
     fit-margin-right="5"
     fit-margin-bottom="5" />
  <g
     transform="translate(14.5,14.65)"
     id="g1">
    <use
       ffdec:characterId="4178"
       height="29.25"
       transform="translate(-14.5,-14.65)"
       width="29"
       xlink:href="#shape0"
       id="use1" />
  </g>
  <defs
     id="defs5">
    <g
       id="shape0"
       transform="translate(14.5,14.65)">
      <path
         d="m 0.55,-14.6 q 4.1,0.35 4.1,5.1 0,0.95 -0.7,1.65 l -0.3,0.25 1.5,0.2 q 0.35,0.25 0.35,1.6 v 1 l -0.15,0.4 h 8.95 v 0.35 L 14.5,-4 v 17 l -0.15,0.3 -0.05,0.4 v 0.45 q -0.3,0.4 -1.1,0.4 h -1.85 -22.7 -1.85 q -0.8,0 -1.1,-0.4 V 13.7 L -14.35,13.3 -14.5,13 V -4 l 0.2,-0.05 V -4.4 h 8.95 L -5.5,-4.8 v -1 q 0,-1.35 0.35,-1.6 l 1.5,-0.2 -0.3,-0.25 q -0.7,-0.7 -0.7,-1.65 0,-4.75 4.1,-5.1 v -0.05 h 0.4 0.3 0.4 v 0.05 m -1.1,1.7 q -2.05,0 -2.05,2.45 l 0.2,1.05 q 0.4,0.55 1.7,0.7 H 0.7 Q 2,-8.85 2.4,-9.4 l 0.2,-1.05 q 0,-2.45 -2.05,-2.45 h -1.1 m 3.9,7.25 -1,0.1 v 0.45 0.7 H 3.3 V -4.9 L 3.35,-5.65 M 1.8,-5.5 0.55,-5.45 H -0.3 -0.55 -1.2 L -1.25,-4.4 H 1.8 v -1.1 m -0.25,4.75 0.05,-1.1 h -2.85 v 0.75 0.25 l 1.1,-0.05 1.7,0.3 v -0.15 m 1.9,0 -0.05,1 Q 3.2,0.9 2.5,0.9 L 1.95,0.8 0.35,1.15 -2.1,0.8 -2.45,0.3 q -0.7,-0.25 -0.5,-1.4 l 0.05,-0.75 h -9.15 V 3.6 8.85 l -0.1,1.65 v 1.45 h 0.8 22.7 0.8 V 10.5 L 12.05,8.85 V 3.6 -1.85 H 3.4 l 0.05,1.1 m -5.7,-4.75 -1.1,-0.15 0.05,0.75 v 0.5 h 1.1 l -0.05,-1.1"
         fill="#6b6b6b"
         fill-rule="evenodd"
         stroke="none"
         id="path1" />
      <path
         d="M 10.75,9.55 10.6,7.7 10.45,4 10.65,3.9 9.5,3.85 -1.15,6.15 -1.55,6.1 3.5,4.5 7.05,3.75 5.95,3.7 1.8,4.2 0,3.9 -1.3,3.6 -4.15,3.9 -6.9,4.2 -8.65,4.05 -9.7,4 -10.3,4.15 h -0.1 V 6.7 l -0.2,2.8 0.15,0.85 H 9.9 10.8 L 10.75,9.55 M -6.8,2.85 -2.25,2.55 q 2.3,-0.2 3.2,0.4 L 3.4,2.5 11,2.85 q 0.45,0.2 0.45,0.65 v 0.15 l 0.1,0.3 -0.15,5.55 -0.05,1.55 -0.1,0.15 -0.45,0.3 H 9.9 -11 l -0.35,-0.15 -0.15,-0.45 0.05,-0.15 -0.05,-0.05 0.2,-1.65 0.05,-0.2 -0.3,-5.2 Q -11.55,3 -11,3 l 0.5,-0.1 0.2,0.05 0.4,-0.25 0.25,0.05 2.85,0.1 M -1.9,6.1 -3.95,6 -6,5.6 -8,5.35 -7.9,5.2 -5.8,5.45 -3.75,5.9 -1.9,6.1"
         fill="#777777"
         fill-rule="evenodd"
         stroke="none"
         id="path2" />
      <path
         d="m 9.9,10.35 q 0.1,-0.7 0.85,-0.8 l 0.05,0.8 H 9.9 M 11.4,9.5 q 0.5,0.25 0.5,0.95 0,0.5 -0.4,0.9 -0.4,0.35 -0.9,0.35 L 9.9,11.5 h 0.9 l 0.45,-0.3 0.1,-0.15 L 11.4,9.5 M -9.65,2.75 -10.05,2.3 -10.4,1.8 -10.95,0.55 q 0,-0.8 0.4,-1.1 0.65,-0.5 2.7,-0.5 2,0 2.65,0.85 0.3,0.35 0.3,0.95 0,1 -0.7,1.55 l -1.2,0.55 -2.85,-0.1 m 15,-2.35 q 0,-0.9 1.75,-1 1.75,-0.1 1.75,0.8 0,0.7 -1.45,0.7 L 6.3,0.75 5.35,0.4"
         fill="#ffffff"
         fill-rule="evenodd"
         stroke="none"
         id="path3" />
      <path
         d="M 9.9,10.35 H -10.45 L -10.6,9.5 -10.4,6.7 V 4.15 h 0.1 L -9.7,4 -8.65,4.05 -6.9,4.2 -4.15,3.9 -1.3,3.6 0,3.9 1.8,4.2 5.95,3.7 7.05,3.75 3.5,4.5 -1.55,6.1 -1.15,6.15 9.5,3.85 10.65,3.9 10.45,4 10.6,7.7 10.75,9.55 Q 10,9.65 9.9,10.35 M -1.9,6.1 -3.75,5.9 -5.8,5.45 -7.9,5.2 -8,5.35 -6,5.6 -3.95,6 -1.9,6.1"
         fill="#cac9b4"
         fill-opacity="0.501961"
         fill-rule="evenodd"
         stroke="none"
         id="path4" />
      <path
         d="m -0.55,-12.9 h 1.1 q 2.05,0 2.05,2.45 L 2.4,-9.4 Q 2,-8.85 0.7,-8.7 H -0.7 Q -2,-8.85 -2.4,-9.4 l -0.2,-1.05 q 0,-2.45 2.05,-2.45 m 2.35,7.4 v 1.1 h -3.05 l 0.05,-1.05 h 0.65 0.25 0.85 L 1.8,-5.5 m -0.25,4.75 v 0.15 l -1.7,-0.3 -1.1,0.05 V -1.1 -1.85 H 1.6 l -0.05,1.1"
         fill="#bbb89e"
         fill-rule="evenodd"
         stroke="none"
         id="path5" />
    </g>
  </defs>
</svg>
