<?xml version="1.0" encoding="UTF-8" standalone="no"?>
<svg
   ffdec:objectType="frame"
   height="74.331749"
   width="27.299999"
   version="1.1"
   id="svg8"
   sodipodi:docname="2.svg"
   xmlns:inkscape="http://www.inkscape.org/namespaces/inkscape"
   xmlns:sodipodi="http://sodipodi.sourceforge.net/DTD/sodipodi-0.dtd"
   xmlns:xlink="http://www.w3.org/1999/xlink"
   xmlns="http://www.w3.org/2000/svg"
   xmlns:svg="http://www.w3.org/2000/svg"
   xmlns:ffdec="https://www.free-decompiler.com/flash">
  <sodipodi:namedview
     id="namedview8"
     pagecolor="#ffffff"
     bordercolor="#000000"
     borderopacity="0.25"
     inkscape:showpageshadow="2"
     inkscape:pageopacity="0.0"
     inkscape:pagecheckerboard="0"
     inkscape:deskcolor="#d1d1d1"
     fit-margin-top="5"
     fit-margin-left="5"
     fit-margin-right="5"
     fit-margin-bottom="5" />
  <g
     transform="translate(14.15,37.131752)"
     id="g3">
    <use
       ffdec:characterId="2198"
       height="37.799999"
       transform="translate(-11.9,-0.6)"
       width="23"
       xlink:href="#shape0"
       id="use1" />
    <use
       ffdec:characterId="1691"
       height="8"
       transform="translate(-5.85,25.15)"
       width="10.8"
       xlink:href="#sprite0"
       id="use2" />
    <use
       ffdec:characterId="2205"
       height="39.150002"
       transform="translate(-14.15,-37.75)"
       width="27.299999"
       xlink:href="#sprite1"
       id="use3" />
  </g>
  <defs
     id="defs8">
    <g
       id="shape0"
       transform="translate(11.9,0.6)">
      <path
         d="m 6.05,-0.1 0.6,0.55 0.05,0.2 0.1,1.45 q 0,1.45 -0.95,3.6 L 4,8.85 q 3.7,1.6 4.6,3.05 0.5,0.7 0.5,2.85 l -0.5,2.9 q -0.5,1.4 -1.4,2.1 l 0.2,0.15 q 3.55,2.7 3.7,7.85 v 0.5 q 0,3.05 -0.8,4.5 Q 9,35.1 4.85,37.2 h -10.5 q -4.15,-2.1 -5.45,-4.45 -0.8,-1.45 -0.8,-4.5 v -0.5 q 0.15,-5.15 3.7,-7.85 L -8,19.75 q -0.9,-0.7 -1.4,-2.1 l -0.5,-2.9 q 0,-2.15 0.5,-2.85 0.9,-1.45 4.6,-3.05 L -6.65,5.7 Q -7.6,3.55 -7.6,2.1 l 0.1,-1.45 0.05,-0.2 0.6,-0.55 1.95,-0.5 h 9.1 l 1.85,0.5 m -4.1,2.15 h -2 L -0.7,2.15 -1.5,2.05 H -5 -5.1 -5.15 V 2.1 l 0.45,0.85 0.8,1.75 2.05,5 -0.05,0.35 q -0.35,0.85 -2.6,1.5 -2.4,0.75 -2.6,2.75 l -0.05,0.4 q 0,1.55 1.5,2.8 1.5,1.2 1.5,1.7 0,0.8 -0.55,1.1 l -0.4,0.55 -1.6,2 -1.35,2 q -0.8,1.45 -0.85,2.9 V 28 q 0,1.7 0.85,3.3 1.05,2.1 3.2,3.05 l 3.5,0.05 h 0.95 1 L 4.05,34.35 Q 6.2,33.4 7.25,31.3 8.1,29.7 8.1,28 V 27.75 Q 8,25.35 5.9,22.85 L 3.9,20.3 Q 3.35,20 3.35,19.2 q 0,-0.5 1.5,-1.7 1.5,-1.25 1.5,-2.8 0,-2.35 -2.65,-3.15 L 2.4,11.1 1.25,10.25 1.05,9.7 Q 2.5,5.8 3.9,2.95 L 4.35,2.05 H 4.2 1.95"
         fill="#6b6b6b"
         fill-rule="evenodd"
         stroke="none"
         id="path3" />
      <path
         d="m 1.95,2.05 0.3,0.3 Q 2,3 0.15,3.9 -1.65,4.8 -2.65,4.8 L -3.9,4.7 -4.7,2.95 -5.15,2.1 -5.1,2.05 h 0.1 3.5 l 0.8,0.1 0.65,-0.1 h 2 m -3.85,8 3.15,0.2 1.15,0.85 q 0.45,0.6 0.45,1.55 0,1.05 -1.15,2.15 -1.6,1.45 -4.4,1.45 -2.95,0 -3.95,-1.05 L -7.1,14.3 q 0.2,-2 2.6,-2.75 2.25,-0.65 2.6,-1.5 m -6.15,14.8 1.35,-2 1.6,-2 1.4,-0.55 q 4.3,-1.35 4.3,1.4 0,1.65 -0.85,3.25 -1.4,2.5 -4.35,2.5 -1.75,0 -2.75,-1.25 l -0.7,-1.35"
         fill="#b8dbde"
         fill-rule="evenodd"
         stroke="none"
         id="path4" />
      <path
         d="m -3.9,4.7 1.25,0.1 q 1,0 2.8,-0.9 Q 2,3 2.25,2.35 L 1.95,2.05 H 4.2 4.35 L 3.9,2.95 Q 2.5,5.8 1.05,9.7 l 0.2,0.55 -3.15,-0.2 0.05,-0.35 -2.05,-5 m 6.3,6.4 1.3,0.45 q 2.65,0.8 2.65,3.15 0,1.55 -1.5,2.8 -1.5,1.2 -1.5,1.7 0,0.8 0.55,1.1 l 2,2.55 q 2.1,2.5 2.2,4.9 V 28 q 0,1.7 -0.85,3.3 -1.05,2.1 -3.2,3.05 L 0.6,34.4 h -1 -0.95 l -3.5,-0.05 Q -7,33.4 -8.05,31.3 -8.9,29.7 -8.9,28 v -0.25 q 0.05,-1.45 0.85,-2.9 l 0.7,1.35 q 1,1.25 2.75,1.25 2.95,0 4.35,-2.5 0.85,-1.6 0.85,-3.25 0,-2.75 -4.3,-1.4 l -1.4,0.55 0.4,-0.55 q 0.55,-0.3 0.55,-1.1 0,-0.5 -1.5,-1.7 -1.5,-1.25 -1.5,-2.8 l 0.05,-0.4 0.45,0.9 q 1,1.05 3.95,1.05 2.8,0 4.4,-1.45 1.15,-1.1 1.15,-2.15 0,-0.95 -0.45,-1.55"
         fill="#a0bfc2"
         fill-rule="evenodd"
         stroke="none"
         id="path5" />
    </g>
    <g
       id="sprite0"
       transform="translate(5.4,4)">
      <use
         ffdec:characterId="43"
         height="8"
         transform="translate(-5.4,-4)"
         width="10.8"
         xlink:href="#shape1"
         id="use5" />
    </g>
    <g
       id="shape1"
       transform="translate(5.4,4)">
      <path
         d="m 2.9,-0.35 q 0,-1.25 1.25,-1.25 1.25,0 1.25,1.2 0,1.3 -1.25,1.3 Q 3.6,0.9 3.25,0.5 2.9,0.15 2.9,-0.35 m 0.35,-2.3 q 0,0.55 -0.35,0.9 -0.4,0.45 -1,0.45 -1.35,0 -1.35,-1.4 0,-1.3 1.35,-1.3 1.35,0 1.35,1.35 m -3.1,1.9 h 0.2 q 2.6,0.1 2.6,2.8 l -0.3,1 Q 2.05,4 0.45,4 H 0.35 0.15 0.1 -0.45 q -1.6,0 -2.2,-0.95 l -0.3,-1 q 0,-2.8 2.8,-2.8 h 0.3 M -1.55,-4 q 1.35,0 1.35,1.35 0,0.55 -0.4,0.9 -0.4,0.45 -0.95,0.45 -1.4,0 -1.4,-1.4 0,-1.3 1.4,-1.3 m -2.6,2.4 q 1.25,0 1.25,1.25 0,0.5 -0.35,0.85 -0.35,0.4 -0.9,0.4 -1.25,0 -1.25,-1.3 0,-1.2 1.25,-1.2"
         fill="#6b6b6b"
         fill-opacity="0.34902"
         fill-rule="evenodd"
         stroke="none"
         id="path6" />
    </g>
    <g
       id="sprite1"
       transform="translate(13.65,19)">
      <use
         ffdec:characterId="2199"
         height="36.75"
         transform="translate(-13.65,-18.4)"
         width="27.299999"
         xlink:href="#shape2"
         id="use6" />
    </g>
    <g
       id="shape2"
       transform="translate(13.65,18.4)">
      <path
         d="m 8,-4 q 1.75,0 1.75,-1.95 0,-1.35 -1.55,-1.35 -2.3,0 -2.3,1.75 l 0.15,0.8 Q 6.5,-4 8,-4 M 4.95,-3.8 4.9,-5.1 q -0.25,-1.25 -1.3,-1.25 -0.5,0 -0.8,0.6 l 0.7,0.8 0.2,0.75 q 0,0.7 -0.35,1.2 L 2.4,-2.95 Q 2.15,-3.1 1.85,-3.8 1.65,-4.35 1.1,-4.35 q -0.3,0 -0.8,0.65 -0.5,0.65 -0.9,0.65 -0.75,0 -1.15,-0.45 l -0.3,-0.7 q 0,-0.65 0.8,-1.5 l 0.8,-0.85 -0.1,-0.3 q -1.5,0.1 -2.25,1.15 -0.5,0.75 -0.5,1.75 -0.05,0.65 0.3,1.2 0.7,1.15 2.65,1.15 1.2,0 1.4,-0.6 0.5,0.5 1.8,0.5 1.25,0 1.8,-0.95 l 0.3,-1.15 m -5.35,22.15 -0.3,-1 q 0,-0.65 1.05,-1.75 1,-1.1 1,-2.85 0,-1.35 -0.4,-2.15 Q 0.2,9.2 -1.75,8.45 -3.85,7.7 -4.2,6.45 -4.7,4.5 -4.95,4.25 q -1.5,-1.7 -4.3,-3.35 -2.05,-1.6 -2.05,-5.2 0,-3.35 2.3,-6.5 2.9,-4.1 8.3,-5.2 6.5,-0.6 9.85,4.35 2.3,3.35 2.3,6.8 0,4.4 -4.4,6.05 -2.45,0.9 -3,1.3 -1.4,1 -1.4,2.85 0,2.4 1.55,3.7 1.5,1.3 1.5,3.05 0,2.8 -1.7,3.4 -1.6,0.6 -4,2.85 h -0.4 m -8.1,-23.5 0.35,0.85 q 0.6,0.7 1.8,0.7 1.1,0 1.6,-0.95 0.3,-0.55 0.3,-1.15 0,-1.85 -2,-1.75 -2.05,0.05 -2.05,2.3"
         fill="#cccccc"
         fill-opacity="0.6"
         fill-rule="evenodd"
         stroke="none"
         id="path7" />
      <path
         d="m 4.95,-3.8 -0.3,1.15 q -0.55,0.95 -1.8,0.95 -1.3,0 -1.8,-0.5 -0.2,0.6 -1.4,0.6 -1.95,0 -2.65,-1.15 -0.35,-0.55 -0.3,-1.2 0,-1 0.5,-1.75 0.75,-1.05 2.25,-1.15 l 0.1,0.3 -0.8,0.85 q -0.8,0.85 -0.8,1.5 l 0.3,0.7 q 0.4,0.45 1.15,0.45 0.4,0 0.9,-0.65 0.5,-0.65 0.8,-0.65 0.55,0 0.75,0.55 0.3,0.7 0.55,0.85 L 3.35,-3 Q 3.7,-3.5 3.7,-4.2 L 3.5,-4.95 2.8,-5.75 q 0.3,-0.6 0.8,-0.6 1.05,0 1.3,1.25 l 0.05,1.3 M 8,-4 Q 6.5,-4 6.05,-4.75 L 5.9,-5.55 q 0,-1.75 2.3,-1.75 1.55,0 1.55,1.35 Q 9.75,-4 8,-4 m -8.4,22.35 h -2.3 l -0.1,-1 q 0,-1.75 1,-2.75 1,-1 1,-1.8 0,-1 -1.65,-1.95 L -5.65,8.7 -6.45,6.6 q -0.35,-1.4 -2.1,-2.15 -3.2,-1.3 -4.35,-4.2 -0.75,-1.75 -0.75,-4.55 0,-4.4 2.4,-8.05 3.35,-5.05 10.2,-5.9 8.1,-0.95 12.05,4.95 2.65,3.9 2.65,8.4 0,5.55 -4.45,7.65 l -3.05,1.2 q -1.4,0.6 -1.4,1.4 0,1.1 1.55,2.85 1.55,1.75 1.55,3.85 L 7.4,14.5 Q 6.85,16.1 5.65,16.95 L 3.35,17.8 2,18.35 H 0 Q 2.4,16.1 4,15.5 5.7,14.9 5.7,12.1 5.7,10.35 4.2,9.05 2.65,7.75 2.65,5.35 q 0,-1.85 1.4,-2.85 0.55,-0.4 3,-1.3 4.4,-1.65 4.4,-6.05 0,-3.45 -2.3,-6.8 Q 5.8,-16.6 -0.7,-16 q -5.4,1.1 -8.3,5.2 -2.3,3.15 -2.3,6.5 0,3.6 2.05,5.2 2.8,1.65 4.3,3.35 0.25,0.25 0.75,2.2 0.35,1.25 2.45,2 1.95,0.75 2.7,2.15 0.4,0.8 0.4,2.15 0,1.75 -1,2.85 -1.05,1.1 -1.05,1.75 l 0.3,1 m -8.1,-23.5 q 0,-2.25 2.05,-2.3 2,-0.1 2,1.75 0,0.6 -0.3,1.15 -0.5,0.95 -1.6,0.95 -1.2,0 -1.8,-0.7 L -8.5,-5.15"
         fill="#6b6b6b"
         fill-rule="evenodd"
         stroke="none"
         id="path8" />
    </g>
  </defs>
</svg>
