<?xml version="1.0" encoding="UTF-8" standalone="no"?>
<svg
   ffdec:objectType="frame"
   height="45.399998"
   width="52.75"
   version="1.1"
   id="svg10"
   sodipodi:docname="1.svg"
   xmlns:inkscape="http://www.inkscape.org/namespaces/inkscape"
   xmlns:sodipodi="http://sodipodi.sourceforge.net/DTD/sodipodi-0.dtd"
   xmlns:xlink="http://www.w3.org/1999/xlink"
   xmlns="http://www.w3.org/2000/svg"
   xmlns:svg="http://www.w3.org/2000/svg"
   xmlns:ffdec="https://www.free-decompiler.com/flash">
  <sodipodi:namedview
     id="namedview10"
     pagecolor="#ffffff"
     bordercolor="#000000"
     borderopacity="0.25"
     inkscape:showpageshadow="2"
     inkscape:pageopacity="0.0"
     inkscape:pagecheckerboard="0"
     inkscape:deskcolor="#d1d1d1"
     fit-margin-top="5"
     fit-margin-left="5"
     fit-margin-right="5"
     fit-margin-bottom="5" />
  <g
     transform="translate(26.35,22.699999)"
     id="g1">
    <use
       ffdec:characterId="1970"
       height="45.400002"
       transform="translate(-26.35,-22.7)"
       width="52.75"
       xlink:href="#shape0"
       id="use1" />
  </g>
  <defs
     id="defs10">
    <g
       id="shape0"
       transform="translate(26.35,22.7)">
      <path
         d="M 17.7,2.35 17.6,1.5 16.95,-3.3 16.25,-6.1 q -1.5,-4.8 -5.1,-8 L 10.85,-14.35 9.3,-15.6 H 9.25 L 9.1,-15.7 5.5,-18 5.1,-18.2 3.75,-18.95 3.2,-19.2 0.15,-20 l -0.2,-0.05 -0.45,0.1 -2.05,0.4 -1.15,0.6 -5.15,3.15 -0.35,0.2 -1.45,1.1 -0.5,0.4 q -3.6,3.2 -5.1,8 -0.7,2.15 -1.15,6.2 l -0.2,1.4 -0.15,2 v 0.05 l -0.05,0.8 h 0.2 q 1.1,0 1.4,0.45 l 0.1,0.35 v 0.1 l -0.35,0.55 -1.4,0.1 h -0.05 l -0.05,1.05 0.35,-0.05 q 1.35,0 1.35,0.7 0,0.7 -1.3,0.7 H -18 l -0.05,0.8 h 0.45 q 1.65,0.05 1.65,0.8 0,0.4 -0.3,0.55 L -17.6,10.6 H -18 l 0.25,3 v 0.05 0.15 H 17.8 v -0.2 l 0.25,-3.45 h -0.3 Q 16.2,10.15 16,9.5 16.5,8.65 17.75,8.75 l 0.3,0.05 V 8.1 Q 16.1,8.05 16.1,7.45 16.1,6.9 17.65,6.75 H 18 L 17.95,6.05 H 17.3 L 15.85,5.8 15.75,5.5 q 0,-0.4 0.35,-0.45 l 1.75,-0.2 -0.15,-2.5 m -24.9,-12 0.15,0.15 0.15,0.2 q 0.8,0.85 0.8,1.65 v 0.3 q -0.1,0.7 -0.55,1 H -6.7 v 0.05 q -0.7,0.45 -0.8,0.95 v 0.15 l -0.05,1.05 q -0.35,0.95 -1.7,0.95 -2.05,0 -3,-1.45 l -0.45,-1 -0.15,-0.8 0.1,-0.55 0.1,-0.3 q 0.3,-0.7 1.1,-0.45 l 0.25,0.05 q 0.25,-0.2 0.55,-1.1 l 0.1,-0.4 0.05,-0.15 q 0.35,-0.9 1.1,-1.1 h 0.1 0.25 q 1.15,0.05 1.95,0.8 m 3,-0.5 v 0.65 0.95 q -0.05,0.5 -0.35,0.75 l -0.05,0.05 -0.35,0.05 q -0.3,0 -0.5,-0.25 H -5.5 L -5.75,-8.8 -5.7,-8.75 V -8.8 l -0.55,-1.35 Q -6.95,-11 -7.75,-11.1 H -7.8 l -0.45,-0.05 -0.45,-0.1 -1.05,-0.5 H -9.8 l 0.1,-0.05 -0.25,-0.65 V -12.6 L -10,-13.35 q 0,-1.55 0.9,-2.05 l 0.35,-0.15 1.55,0.15 0.15,0.05 0.55,0.3 0.6,0.45 0.35,0.4 q 0.45,0.5 0.75,1.2 0.5,1.15 0.6,2.85 m 1.15,-3.8 0.75,-0.4 h 0.7 l 0.7,0.55 q 0.15,0.85 0.15,2.65 v 0.05 0.1 1.55 q -0.05,0.9 -0.4,1.3 h -1.1 l -0.65,-2.1 -0.25,-1.15 -0.2,-1.55 v -0.15 l 0.3,-0.85 m 4.4,-0.3 0.95,-0.1 L 3,-14 q 0.35,0.35 0.35,1.05 l -0.25,1.75 -0.2,0.95 -0.65,2.1 h -1.1 q -0.3,-0.4 -0.35,-1.3 v -1 -0.55 q 0,-1.9 0.15,-2.8 l 0.4,-0.45 m 5.95,-1.2 h 0.1 l 0.05,-0.05 1.65,0.1 q 0.9,0.5 0.9,2.05 v 0.15 l -0.05,0.6 -0.2,0.75 -0.05,0.05 0.15,0.05 -1.15,0.5 -0.9,0.15 -0.35,0.1 q -0.6,0.2 -1.2,0.85 L 5.7,-8.8 v 0.05 L 5.75,-8.8 5.5,-7.95 H 5.45 Q 5.3,-7.7 4.95,-7.7 L 4.6,-7.75 4.55,-7.8 Q 4.3,-8.05 4.25,-8.55 v -0.6 -0.3 -0.05 q 0,-3.7 1.95,-5.25 l 0.9,-0.6 0.2,-0.1 m 3.75,7.35 0.25,0.4 q 1,-0.4 1.4,0.4 l 0.15,0.85 q 0,0.9 -0.6,1.8 -0.95,1.45 -2.95,1.45 -1.4,0 -1.7,-0.95 l -0.1,-1.2 q -0.1,-0.5 -0.8,-1 L 6.45,-6.55 Q 6.1,-6.9 6.1,-7.6 V -7.65 L 6.35,-8.5 6.75,-9.1 6.9,-9.3 7.05,-9.45 q 0.4,-0.5 1,-0.7 l 0.55,-0.2 0.9,-0.1 0.95,0.65 0.2,0.6 0.4,1.1 m -15.45,-12.45 1.6,-0.75 0.25,-0.05 2.5,-0.35 1,0.15 1.4,0.25 H 2.4 l 0.1,0.05 h 0.1 0.05 l 0.55,0.15 3.65,1.7 0.4,0.15 3.7,2.2 2.35,2.05 q 2.2,1.85 3.5,4.15 l 1.8,4.1 q 0.85,2.25 1.35,7.9 l 0.45,8.6 v 2.6 l -0.3,1.3 -0.05,0.25 0.9,0.05 V 14 l 0.4,0.05 0.35,0.1 h 0.15 q 0.8,0.05 0.8,1.3 v 0.6 h 0.1 q 0.45,0.05 0.7,0.4 l 0.15,0.2 0.4,0.3 q 1.4,1.1 1.4,2.8 l -0.1,0.8 -0.3,0.5 -0.1,0.25 q -0.35,0.4 -1,0.4 h -47.8 q -0.65,0 -0.95,-0.4 l -0.15,-0.25 -0.3,-0.5 -0.05,-0.8 q 0,-1.7 1.35,-2.8 l 0.4,-0.3 0.15,-0.2 q 0.25,-0.35 0.7,-0.4 h 0.15 v -0.6 q 0,-1.25 0.75,-1.3 h 0.15 l 0.35,-0.1 0.4,-0.05 v -0.05 l 0.95,-0.05 -0.1,-0.25 -0.3,-1.3 v -2.6 q 0,-3.85 0.5,-8.6 0.4,-4.65 1.05,-6.95 l 0.25,-0.95 0.65,-1.65 1.15,-2.45 q 1.35,-2.3 3.5,-4.15 l 2.4,-2.05 0.9,-0.6 2.75,-1.6 2.85,-1.3 m -0.75,3.6 1,-0.95 2,-0.65 h 0.05 l 0.6,0.1 0.35,0.25 -0.1,0.35 v 0.05 l 0.25,1.9 q 0,0.35 -0.75,0.8 -0.75,0.45 -1.35,0.45 -0.7,0 -1.2,-0.4 l -0.5,-0.55 -0.15,-0.3 -0.2,-0.45 -0.1,-0.25 0.1,-0.35 m 5.85,9.6 h 1.25 l 0.2,0.2 0.7,0.65 0.1,0.15 0.55,0.8 0.05,0.15 0.45,1 -0.15,0.55 q -0.35,0.35 -1.5,0.3 l 0.2,1.3 q -0.05,0.9 0.15,1.2 3.4,0.2 3.4,0.7 L 5.95,0.35 Q 5.8,0.8 6.2,1.25 h 1.05 l 0.6,-0.4 q 0.3,-0.45 1.8,-0.45 1.4,0 3,0.8 Q 14,1.95 14.1,2.45 L 14.4,3.65 14.15,6.2 14,11.25 q 0.35,0.05 0.35,0.5 l -0.1,0.2 L 14,12.1 v 0.05 l -0.1,0.05 -0.1,0.1 H -13.75 L -13.9,12.2 -14,12.15 V 12.1 l -0.25,-0.15 -0.05,-0.2 0.1,-0.4 0.15,-0.05 0.05,-0.05 -0.15,-5.05 -0.2,-2.55 q -0.05,-0.8 0.25,-1.2 0.1,-0.5 1.5,-1.25 1.6,-0.8 2.95,-0.8 1.55,0 1.8,0.45 l 0.6,0.4 h 1.05 q 0.4,-0.45 0.3,-0.9 l -0.2,-0.7 q 0,-0.5 3.4,-0.7 0.25,-0.3 0.2,-1.2 l 0.15,-1.3 q -1.15,0.05 -1.5,-0.3 L -4,-4.4 l 0.45,-1 0.5,-0.8 0.2,-0.3 0.95,-0.85 h 0.45 0.35 1.8 m -9.6,-4.7 -0.05,0.05 h 0.05 v -0.05 m 6.85,6.6 -0.4,0.35 v 0.25 l 0.6,-0.1 q 0.35,0 0.55,0.25 l 0.2,0.3 1.2,-0.1 1,0.1 Q 1.45,-5.15 2.5,-4.85 L 2.45,-5.1 2,-5.55 1.95,-5.6 1.85,-5.65 1.4,-6.1 h -1.55 -1.2 l -0.7,0.65 m 3.2,5 H 1.1 l -0.75,0.05 -1.5,0.1 h -0.2 L -1.4,-0.25 Q -2,0.7 -3.8,0.55 L -4.4,0.45 V 0.9 1.7 Q -4.85,2.55 -7.5,2.55 L -8.45,2.2 -9.1,1.75 l -1.95,-0.1 -1.65,0.9 0.1,0.95 -0.05,1.5 -0.1,1.15 0.2,3.4 q 0,1.05 -0.15,1.7 H 12.7 Q 12.55,10.6 12.55,9.55 l 0.2,-3.4 -0.1,-2.05 V 3.5 L 12.7,2.55 11.05,1.65 9.1,1.75 8.45,2.2 7.5,2.55 Q 4.85,2.55 4.4,1.7 V 1.5 0.95 0.45 Q 2.1,0.85 1.45,-0.25 L 1.35,-0.4 1.3,-0.5 1.15,-0.45 m 2.3,-17.8 q 0.3,0.15 0.7,0.35 l 0.5,0.35 0.4,0.35 0.25,0.6 v 0.05 L 5,-15.9 4.85,-15.6 q -0.65,0.95 -1.7,0.95 -0.6,0 -1.4,-0.45 Q 1,-15.55 1,-15.9 l 0.15,-1.2 v -0.15 l 0.1,-0.6 -0.1,-0.35 0.35,-0.25 0.6,-0.1 h 0.05 l 1.3,0.3 M 8.95,-12 8.9,-12.05 V -12 h 0.05 m 12,27.65 -0.75,0.05 v 0.05 l -1.6,0.05 h -37.2 l -1.6,-0.05 V 15.7 l -0.75,-0.05 -0.15,-0.05 -0.05,0.45 h 42.3 L 21.1,15.6 20.95,15.65 M 22.8,18.4 22.65,17.8 H -22.6 l -0.2,0.65 -0.25,0.85 h 46.1 L 22.8,18.4 M 11.3,5.65 11.1,6.5 11.25,8.3 11,9.55 10.95,9.65 10.75,9.75 10,9.85 h -20 l -0.75,-0.1 -0.15,-0.1 -0.05,-0.1 -0.3,-1.25 0.15,-1.8 -0.2,-0.85 0.15,-0.35 0.25,-0.25 0.85,-0.1 6.9,0.05 h 1.85 l 11.35,-0.05 0.9,0.1 0.2,0.25 0.15,0.35 M 10.4,5.7 -1.8,5.6 h -0.5 l -8.05,0.1 0.05,0.45 V 6.5 8.3 8.95 H 10.3 V 8.3 L 10.35,6.5 V 6.15 L 10.4,5.7 M 9,3.3 Q 9.15,2.1 10.45,2.2 11.9,2.35 11.9,3.4 v 0.3 q -0.2,0.85 -1.35,0.85 -1.6,0 -1.6,-0.9 L 9,3.3 M 3.85,2.85 3.75,3.6 3.7,3.9 3.6,4 3.4,4.25 H 3.25 2.9 2.25 -1.4 -2.9 -3.25 -3.4 L -3.55,4 -3.65,3.9 -3.7,3.6 -3.85,2.75 v -0.1 l -0.1,-0.7 0.1,-0.45 V 1.45 q 0,-0.3 0.75,-0.3 l 0.95,0.05 0.95,0.05 h 1.95 l 1.5,-0.05 0.9,-0.05 0.6,0.1 0.1,0.2 v 0.1 l 0.1,0.4 -0.1,0.9 M -8.85,3 -8.8,3.4 q 0,0.5 -0.3,0.75 l -1.1,0.1 q -0.65,0 -1,-0.45 l -0.25,-0.5 0.05,-0.45 q 0.25,-0.7 1.3,-0.6 1,0.15 1.25,0.75 m 6.1,-1.1 0.05,0.5 -0.05,1.05 H -2.5 V 3.4 h 1.2 0.55 l 3,0.05 h 0.5 L 2.7,2.4 2.8,1.75 H 2.25 l -3,0.05 H -0.9 l -1.6,0.05 v -0.1 h -0.3 l 0.05,0.15 m 12,6.6 H -9.2 L -9.3,8.1 q 0,-0.4 0.5,-0.5 H 9.25 L 9.8,8.1 9.25,8.5"
         fill="#6b6b6b"
         fill-rule="evenodd"
         stroke="none"
         id="path1" />
      <path
         d="m -4.4,-20.55 -2.85,1.3 -2.75,1.6 q 1.35,-1.1 3,-1.9 l 2.6,-1 m -13.55,12.15 -0.65,1.65 -0.25,0.95 -0.1,-0.55 q 0,-0.6 1,-2.05 m 24.8,-11 -3.65,-1.7 1.05,0.35 2.6,1.35 M 2.4,-21.3 H 2.35 l -1.4,-0.25 1.45,0.25 m -11.3,9.25 V -12 h -0.05 l 0.05,-0.05 M 8.95,-12 H 8.9 v -0.05 L 8.95,-12"
         fill="#b1b1b1"
         fill-rule="evenodd"
         stroke="none"
         id="path2" />
      <path
         d="M 1.95,-5.6 2,-5.55 H 1.95 V -5.6"
         fill="#9c9c9c"
         fill-rule="evenodd"
         stroke="none"
         id="path3" />
      <path
         d="M 10.4,5.7 10.35,6.15 V 6.5 L 10.3,8.3 V 8.95 H -10.3 V 8.3 6.5 6.15 L -10.35,5.7 -2.3,5.6 h 0.5 L 10.4,5.7 M -2.5,1.85 -0.9,1.8 h 0.15 l 3,-0.05 H 2.8 L 2.7,2.4 2.75,3.45 h -0.5 l -3,-0.05 H -1.3 -2.5 V 3.45 H -2.75 L -2.7,2.4 -2.75,1.9 -2.5,1.85 M 9.25,8.5 9.8,8.1 9.25,7.6 H -8.8 q -0.5,0.1 -0.5,0.5 l 0.1,0.4 H 9.25"
         fill="#d9d9d9"
         fill-rule="evenodd"
         stroke="none"
         id="path4" />
      <path
         d="M -4.4,0.9 V 0.45 l 0.6,0.1 -0.6,0.35"
         fill="#cccccc"
         fill-rule="evenodd"
         stroke="none"
         id="path5" />
      <path
         d="m 17.7,2.35 0.15,2.5 -1.75,0.2 Q 15.75,5.1 15.75,5.5 l 0.1,0.3 1.45,0.25 h 0.65 L 18,6.75 h -0.35 q -1.55,0.15 -1.55,0.7 0,0.6 1.95,0.65 V 8.8 L 17.75,8.75 Q 16.5,8.65 16,9.5 q 0.2,0.65 1.75,0.65 h 0.3 L 17.8,13.6 v 0.2 H -17.75 V 13.65 13.6 l -0.25,-3 h 0.4 l 1.35,-0.15 q 0.3,-0.15 0.3,-0.55 0,-0.75 -1.65,-0.8 h -0.45 L -18,8.3 h 0.45 q 1.3,0 1.3,-0.7 0,-0.7 -1.35,-0.7 l -0.35,0.05 0.05,-1.05 h 0.05 l 1.4,-0.1 0.35,-0.55 V 5.15 L -16.2,4.8 q -0.3,-0.45 -1.4,-0.45 h -0.2 l 0.05,-0.8 V 3.5 l 1.45,-5.75 0.25,-0.8 0.05,-0.2 q 1.4,-3.9 2.3,-5.4 l 1.6,-1.8 1.15,-1.15 0.1,-0.05 0.05,0.2 0.3,0.35 q 0.45,0.35 1.3,0.45 h 0.05 l 1.6,0.3 0.35,0.7 Q -8,-10.4 -9.15,-10.45 H -9.4 -9.5 q -0.75,0.2 -1.1,1.1 l -0.05,0.15 -0.1,0.4 q -0.3,0.9 -0.55,1.1 l -0.25,-0.05 q -0.8,-0.25 -1.1,0.45 l -0.1,0.3 q -0.75,0.25 -0.75,2.2 l 0.15,0.65 0.55,0.85 q 1.1,1.15 3.2,1.15 1.85,0 2.65,-1.45 0.45,-0.85 0.45,-1.8 v -0.3 l 0.35,-0.35 0.1,-0.2 0.45,-0.9 0.65,0.05 q 0.55,0 1.05,-0.6 l 0.4,-0.9 v -0.05 l -0.15,-0.8 Q -3.8,-10.1 -4.1,-10.2 l -0.1,0.05 q -0.1,-1.7 -0.6,-2.85 -0.3,-0.7 -0.75,-1.2 l -0.35,-0.4 -0.6,-0.45 0.8,-0.45 0.4,0.35 0.35,0.3 0.15,0.15 q 0.95,0.75 1.75,0.75 l -0.3,0.85 v 0.15 l 0.2,1.55 -0.3,1.65 v 0.3 l 0.15,0.75 q 0.35,0.95 1.4,1.25 l 0.5,0.05 -0.05,0.05 H -1.9 l -0.95,0.85 -0.2,0.3 -0.5,0.8 -0.45,1 0.15,0.55 q 0.35,0.35 1.5,0.3 l -0.15,1.3 q 0.05,0.9 -0.2,1.2 -3.4,0.2 -3.4,0.7 l 0.2,0.7 q 0.1,0.45 -0.3,0.9 h -1.05 l -0.6,-0.4 Q -8.1,0.4 -9.65,0.4 q -1.35,0 -2.95,0.8 -1.4,0.75 -1.5,1.25 -0.3,0.4 -0.25,1.2 l 0.2,2.55 0.15,5.05 -0.05,0.05 -0.15,0.05 -0.1,0.4 0.05,0.2 0.25,0.15 v 0.05 l 0.1,0.05 0.15,0.1 H 13.8 L 14,12.15 V 12.1 l 0.25,-0.15 0.1,-0.2 q 0,-0.45 -0.35,-0.5 L 14.15,6.2 14.4,3.65 14.1,2.45 Q 14,1.95 12.65,1.2 q -1.6,-0.8 -3,-0.8 -1.5,0 -1.8,0.45 l -0.6,0.4 H 6.2 Q 5.8,0.8 5.95,0.35 l 0.15,-0.7 q 0,-0.5 -3.4,-0.7 -0.2,-0.3 -0.15,-1.2 l -0.2,-1.3 q 1.15,0.05 1.5,-0.3 L 4,-4.4 3.55,-5.4 3.5,-5.55 2.95,-6.35 2.85,-6.5 2.15,-7.15 Q 2.8,-7.45 3.2,-8.5 l 0.35,-1.7 -0.25,-0.7 -0.2,-0.3 0.25,-1.75 q 0,-0.7 -0.35,-1.05 1.6,-0.05 2.4,-1 l 0.25,-0.35 0.35,-0.85 1.2,0.7 0.1,0.05 -0.2,0.1 -0.9,0.6 Q 4.25,-13.2 4.25,-9.5 v 0.05 0.3 q -0.4,0.1 -0.4,0.7 0,1.2 1.35,1.2 L 5.65,-7.3 5.5,-6.55 5.55,-6.1 5.85,-5.6 6.6,-4.4 6.65,-3 q 0.35,0.85 2.8,0.85 2.75,0 3.7,-1.9 0.45,-0.9 0.45,-2.25 l -0.05,-1.15 q -0.35,-1 -1.6,-1 -0.65,0 -0.9,0.35 l -0.4,-1.1 -0.2,-0.6 -0.95,-0.65 -0.9,0.1 -0.55,0.2 q -0.6,0.2 -1,0.7 L 6.9,-9.3 6.75,-9.1 6.8,-9.45 7,-9.95 7.3,-10.1 7.9,-10.35 h 0.05 l 0.7,-0.25 0.6,-0.25 1.05,-0.55 0.6,-0.8 q 1.8,2.1 2.95,4.6 l 0.5,1.25 3.35,8.7 m -19.3,-16.7 0.7,-0.9 q 0.35,-0.75 0.4,-1.6 v -0.2 -0.3 l 1.35,-0.1 -0.3,0.4 -0.15,0.35 -0.25,1 q 0,0.5 0.4,0.95 l 0.8,0.5 -0.4,0.45 Q 0.8,-12.9 0.8,-11 v 0.55 l -0.25,-0.1 -0.35,0.2 q -0.25,-0.8 -0.85,-0.8 h -0.1 q 0,-1.8 -0.15,-2.65 l -0.7,-0.55 m 0.5,6.95 q 0.5,0 0.95,-0.45 l 0.25,-0.25 0.1,0.25 0.5,0.5 H -1.1 V -7.4 m -21.7,25.85 h 0.2 l 28.95,0.05 0.8,0.1 15.1,0.05 0.55,-0.25 0.25,0.9 h -46.1 l 0.25,-0.85"
         fill="#928079"
         fill-rule="evenodd"
         stroke="none"
         id="path6" />
      <path
         d="m -17.75,3.5 0.15,-2 0.2,-1.4 q 0.45,-4.05 1.15,-6.2 1.5,-4.8 5.1,-8 l 0.5,-0.4 1.45,-1.1 0.35,-0.2 5.15,-3.15 1.15,-0.6 2.05,-0.4 0.45,-0.1 0.2,0.05 3.05,0.8 0.55,0.25 1.35,0.75 0.4,0.2 3.6,2.3 0.15,0.1 H 9.3 l 1.55,1.25 0.3,0.25 q 3.6,3.2 5.1,8 l 0.7,2.8 0.65,4.8 0.1,0.85 -3.35,-8.7 -0.5,-1.25 q -1.15,-2.5 -2.95,-4.6 l -0.6,0.8 -1.05,0.55 -0.6,0.25 -0.7,0.25 H 7.9 L 7.3,-10.1 7,-9.95 6.8,-9.45 6.75,-9.1 6.35,-8.5 6.1,-7.65 v 0.05 q 0,0.7 0.35,1.05 l 0.25,0.2 q 0.7,0.5 0.8,1 l 0.1,1.2 q 0.3,0.95 1.7,0.95 2,0 2.95,-1.45 0.6,-0.9 0.6,-1.8 L 12.7,-7.3 q -0.4,-0.8 -1.4,-0.4 l -0.25,-0.4 q 0.25,-0.35 0.9,-0.35 1.25,0 1.6,1 l 0.05,1.15 q 0,1.35 -0.45,2.25 -0.95,1.9 -3.7,1.9 Q 7,-2.15 6.65,-3 L 6.6,-4.4 5.85,-5.6 5.55,-6.1 5.5,-6.55 5.65,-7.3 5.2,-7.25 q -1.35,0 -1.35,-1.2 0,-0.6 0.4,-0.7 v 0.6 q 0.05,0.5 0.3,0.75 l 0.05,0.05 0.35,0.05 q 0.35,0 0.5,-0.25 H 5.5 L 5.75,-8.8 5.7,-8.75 V -8.8 l 0.55,-1.35 q 0.6,-0.65 1.2,-0.85 l 0.35,-0.1 0.9,-0.15 1.15,-0.5 -0.15,-0.05 0.05,-0.05 0.2,-0.75 0.05,-0.6 v -0.15 Q 10,-14.9 9.1,-15.4 L 7.45,-15.5 7.4,-15.45 H 7.3 L 7.2,-15.5 6,-16.2 5.65,-15.35 5.4,-15 q -0.8,0.95 -2.4,1 l -0.7,-0.35 -0.95,0.1 -0.8,-0.5 q -0.4,-0.45 -0.4,-0.95 l 0.25,-1 0.15,-0.35 0.3,-0.4 -1.35,0.1 v 0.3 0.2 q -0.05,0.85 -0.4,1.6 l -0.7,0.9 h -0.7 l -0.75,0.4 q -0.8,0 -1.75,-0.75 l -0.15,-0.15 -0.35,-0.3 -0.4,-0.35 -0.8,0.45 -0.55,-0.3 -0.15,-0.05 -1.55,-0.15 -0.35,0.15 q -0.9,0.5 -0.9,2.05 l 0.05,0.75 v 0.15 l 0.25,0.65 -0.1,0.05 h 0.05 l 1.05,0.5 0.45,0.1 0.45,0.05 h 0.05 q 0.8,0.1 1.5,0.95 l 0.55,1.35 v 0.05 l -0.05,-0.05 0.25,0.85 h 0.05 q 0.2,0.25 0.5,0.25 l 0.35,-0.05 0.05,-0.05 q 0.3,-0.25 0.35,-0.75 v -0.95 -0.65 l 0.1,-0.05 q 0.3,0.1 0.45,0.75 l 0.15,0.8 v 0.05 l -0.4,0.9 q -0.5,0.6 -1.05,0.6 l -0.65,-0.05 -0.45,0.9 -0.1,0.2 -0.35,0.35 v 0.3 q 0,0.95 -0.45,1.8 -0.8,1.45 -2.65,1.45 -2.1,0 -3.2,-1.15 l -0.55,-0.85 -0.15,-0.65 q 0,-1.95 0.75,-2.2 l -0.1,0.55 0.15,0.8 0.45,1 q 0.95,1.45 3,1.45 1.35,0 1.7,-0.95 L -7.5,-5.2 v -0.15 q 0.1,-0.5 0.8,-0.95 v -0.05 h 0.05 q 0.45,-0.3 0.55,-1 v -0.3 q 0,-0.8 -0.8,-1.65 l -0.15,-0.2 -0.15,-0.15 -0.35,-0.7 -1.6,-0.3 H -9.2 q -0.85,-0.1 -1.3,-0.45 l -0.3,-0.35 -0.05,-0.2 -0.1,0.05 -1.15,1.15 -1.6,1.8 q -0.9,1.5 -2.3,5.4 l -0.05,0.2 -0.25,0.8 -1.45,5.75 m 12.6,-20.45 -0.1,0.35 0.1,0.25 0.2,0.45 0.15,0.3 0.5,0.55 q 0.5,0.4 1.2,0.4 0.6,0 1.35,-0.45 0.75,-0.45 0.75,-0.8 l -0.25,-1.9 v -0.05 l 0.1,-0.35 -0.35,-0.25 -0.6,-0.1 h -0.05 l -2,0.65 -1,0.95 m 2,5.55 0.25,1.15 0.65,2.1 h 1.1 q 0.35,-0.4 0.4,-1.3 v -1.55 -0.1 -0.05 h 0.1 q 0.6,0 0.85,0.8 l 0.35,-0.2 0.25,0.1 v 1 q 0.05,0.9 0.35,1.3 h 1.1 l 0.65,-2.1 0.2,-0.95 0.2,0.3 0.25,0.7 -0.35,1.7 q -0.4,1.05 -1.05,1.35 l -0.2,-0.2 H 0.7 L 0.2,-7.85 0.1,-8.1 -0.15,-7.85 Q -0.6,-7.4 -1.1,-7.4 h -0.3 l -0.5,-0.05 q -1.05,-0.3 -1.4,-1.25 l -0.15,-0.75 v -0.3 l 0.3,-1.65 m 6.6,-6.85 -1.3,-0.3 H 2.1 l -0.6,0.1 -0.35,0.25 0.1,0.35 -0.1,0.6 v 0.15 L 1,-15.9 q 0,0.35 0.75,0.8 0.8,0.45 1.4,0.45 1.05,0 1.7,-0.95 L 5,-15.9 5.3,-16.55 v -0.05 l -0.25,-0.6 -0.4,-0.35 -0.5,-0.35 q -0.4,-0.2 -0.7,-0.35 m -26.25,36.7 0.2,-0.65 H 22.65 L 22.8,18.4 22.25,18.65 7.15,18.6 6.35,18.5 -22.6,18.45 h -0.2 m 43.75,-2.8 0.15,-0.05 0.05,0.45 h -42.3 l 0.05,-0.45 0.15,0.05 0.75,0.05 v 0.05 l 1.6,0.05 h 37.2 l 1.6,-0.05 V 15.7 l 0.75,-0.05"
         fill="#a9958d"
         fill-rule="evenodd"
         stroke="none"
         id="path7" />
      <path
         d="m -2.05,-5.45 0.7,-0.65 h 1.2 1.55 l 0.45,0.45 0.1,0.05 v 0.05 Q 1.85,-5.2 1.35,-5 0.6,-4.65 -0.75,-4.65 L -1.3,-4.7 q -0.2,-0.25 -0.55,-0.25 l -0.1,-0.1 -0.1,-0.4 m -1.75,6 q 1.8,0.15 2.4,-0.8 l 0.05,-0.05 h 0.2 l 1.5,-0.1 0.75,-0.05 h 0.05 l 0.2,0.05 0.1,0.15 Q 2.1,0.85 4.4,0.45 V 0.95 1.5 1.7 Q 4.85,2.55 7.5,2.55 L 8.45,2.2 9.1,1.75 11.05,1.65 12.7,2.55 12.65,3.5 V 4.1 L 11.9,3.7 V 3.4 Q 11.9,2.35 10.45,2.2 9.15,2.1 9,3.3 L 8.5,3.6 6.1,3.8 Q 4.35,3.8 3.85,2.85 l 0.1,-0.9 -0.1,-0.4 V 1.45 L 3.75,1.25 3.15,1.15 2.25,1.2 0.75,1.25 0.55,1.15 Q 0.25,0.7 -0.5,0.7 L -1.05,0.9 -2.15,1.2 -3.1,1.15 q -0.75,0 -0.75,0.3 V 1.5 l -0.1,0.45 0.1,0.7 -0.15,0.1 q -0.55,0.5 -2.2,0.5 L -8.85,3 Q -9.1,2.4 -10.1,2.25 q -1.05,-0.1 -1.3,0.6 L -12,3.5 q -0.2,0.45 -0.05,1 0,0.5 -0.6,0.5 l 0.05,-1.5 -0.1,-0.95 1.65,-0.9 1.95,0.1 0.65,0.45 0.95,0.35 q 2.65,0 3.1,-0.85 V 0.9 l 0.6,-0.35"
         fill="#c5bba7"
         fill-rule="evenodd"
         stroke="none"
         id="path8" />
      <path
         d="m -1.85,-4.95 -0.6,0.1 V -5.1 l 0.4,-0.35 0.1,0.4 0.1,0.1 M 2,-5.55 2.45,-5.1 2.5,-4.85 Q 1.45,-5.15 1.1,-4.4 l -1,-0.1 -1.2,0.1 -0.2,-0.3 0.55,0.05 q 1.35,0 2.1,-0.35 0.5,-0.2 0.6,-0.55 H 2 m 10.65,9.65 0.1,2.05 -0.2,3.4 q 0,1.05 0.15,1.7 h -25.4 q 0.15,-0.65 0.15,-1.7 l -0.2,-3.4 0.1,-1.15 q 0.6,0 0.6,-0.5 -0.15,-0.55 0.05,-1 l 0.6,-0.65 -0.05,0.45 0.25,0.5 q 0.35,0.45 1,0.45 l 1.1,-0.1 Q -8.8,3.9 -8.8,3.4 L -8.85,3 -6.2,3.25 q 1.65,0 2.2,-0.5 h 0.15 L -3.7,3.6 -3.65,3.9 -3.55,4 -3.4,4.25 H -3.25 -2.9 -1.4 2.25 2.9 3.25 3.4 L 3.6,4 3.7,3.9 3.75,3.6 3.85,2.85 Q 4.35,3.8 6.1,3.8 L 8.5,3.6 9,3.3 8.95,3.65 q 0,0.9 1.6,0.9 1.15,0 1.35,-0.85 l 0.75,0.4 M 11.3,5.65 11.15,5.3 10.95,5.05 10.05,4.95 -1.3,5 h -1.85 l -6.9,-0.05 -0.85,0.1 -0.25,0.25 -0.15,0.35 0.2,0.85 -0.15,1.8 0.3,1.25 0.05,0.1 0.15,0.1 0.75,0.1 h 20 l 0.75,-0.1 0.2,-0.1 L 11,9.55 11.25,8.3 11.1,6.5 11.3,5.65 M 0.75,1.25 H -1.2 L -2.15,1.2 -1.05,0.9 -0.5,0.7 q 0.75,0 1.05,0.45 l 0.2,0.1"
         fill="#b8ae9c"
         fill-rule="evenodd"
         stroke="none"
         id="path9" />
      <path
         d="m 0.95,-21.55 -1,-0.15 -2.5,0.35 -0.25,0.05 -1.6,0.75 -2.85,1.3 -2.75,1.6 -0.9,0.6 -2.4,2.05 q -2.15,1.85 -3.5,4.15 l -1.15,2.45 -0.65,1.65 -0.25,0.95 q -0.65,2.3 -1.05,6.95 -0.5,4.75 -0.5,8.6 v 2.6 l 0.3,1.3 0.1,0.25 -0.95,0.05 V 14 l -0.4,0.05 -0.35,0.1 h -0.15 q -0.75,0.05 -0.75,1.3 v 0.6 h -0.15 q -0.45,0.05 -0.7,0.4 l -0.15,0.2 -0.4,0.3 q -1.35,1.1 -1.35,2.8 l 0.05,0.8 0.3,0.5 0.15,0.25 q 0.3,0.4 0.95,0.4 h 47.8 q 0.65,0 1,-0.4 l 0.1,-0.25 0.3,-0.5 0.1,-0.8 q 0,-1.7 -1.4,-2.8 l -0.4,-0.3 -0.15,-0.2 q -0.25,-0.35 -0.7,-0.4 h -0.1 v -0.6 q 0,-1.25 -0.8,-1.3 H 21.7 L 21.35,14.05 20.95,14 v -0.05 l -0.9,-0.05 0.05,-0.25 0.3,-1.3 v -2.6 l -0.45,-8.6 q -0.5,-5.65 -1.35,-7.9 l -1.8,-4.1 q -1.3,-2.3 -3.5,-4.15 l -2.35,-2.05 -3.7,-2.2 -0.4,-0.15 -3.65,-1.7 -0.55,-0.15 H 2.6 2.5 L 2.4,-21.3 H 2.35 Z"
         fill="none"
         stroke="#6b6b6b"
         stroke-linecap="round"
         stroke-linejoin="round"
         stroke-width="2"
         id="path10" />
    </g>
  </defs>
</svg>
