<?xml version="1.0" encoding="UTF-8" standalone="no"?>
<svg
   ffdec:objectType="frame"
   height="30.117708"
   width="56.794041"
   version="1.1"
   id="svg16"
   sodipodi:docname="2.svg"
   xmlns:inkscape="http://www.inkscape.org/namespaces/inkscape"
   xmlns:sodipodi="http://sodipodi.sourceforge.net/DTD/sodipodi-0.dtd"
   xmlns:xlink="http://www.w3.org/1999/xlink"
   xmlns="http://www.w3.org/2000/svg"
   xmlns:svg="http://www.w3.org/2000/svg"
   xmlns:ffdec="https://www.free-decompiler.com/flash">
  <sodipodi:namedview
     id="namedview16"
     pagecolor="#ffffff"
     bordercolor="#000000"
     borderopacity="0.25"
     inkscape:showpageshadow="2"
     inkscape:pageopacity="0.0"
     inkscape:pagecheckerboard="0"
     inkscape:deskcolor="#d1d1d1"
     fit-margin-top="5"
     fit-margin-left="5"
     fit-margin-right="5"
     fit-margin-bottom="5" />
  <g
     transform="translate(32.038956,15.921837)"
     id="g1">
    <use
       ffdec:characterId="4333"
       height="66.199997"
       transform="matrix(0.8697,0,0,0.8697,-34.1074,-32.7896)"
       width="70.300003"
       xlink:href="#sprite0"
       id="use1" />
  </g>
  <defs
     id="defs16">
    <g
       id="sprite0"
       transform="translate(42.15,38.45)">
      <use
         ffdec:characterId="4327"
         height="24.85"
         transform="translate(-9,-9.35)"
         width="17.25"
         xlink:href="#shape0"
         id="use2" />
      <use
         ffdec:characterId="4332"
         height="71.800003"
         transform="matrix(-5e-4,0.9058,-0.9058,-5e-4,25.4054,-18.9056)"
         width="29.299999"
         xlink:href="#sprite1"
         id="use3" />
      <use
         ffdec:characterId="4327"
         height="24.85"
         transform="translate(-12,-9.35)"
         width="17.25"
         xlink:href="#shape2"
         id="use4" />
    </g>
    <g
       id="shape0"
       transform="translate(12,9.35)">
      <path
         d="m -10.85,-6.45 q 1.15,-2.4 4.1,-2.4 2.8,0 3.95,1.9 0.6,1.05 0.6,2.5 0,1.4 -0.6,2.4 -0.8,1.3 -1.2,3.55 l -0.05,3.35 -0.1,1.2 q 0.7,0.05 1.05,0.4 0.35,0.3 0.35,0.7 0,0.35 -0.15,0.55 L -2.65,8.9 0.1,8.7 q 3.05,0 4.15,1.95 0.5,0.9 0.5,2.2 L 4.7,14.1 3.95,14.65 1.1,15 H -8.2 Q -9.15,14.75 -9.3,14.15 V 14 L -9.55,13.3 -9.5,13 -9.7,12.3 -9.85,10.6 q 0,-3.9 0.8,-4.05 l -0.1,-0.7 V 3.9 l 0.2,-2.55 0.2,-1.2 q -1.8,-0.2 -2.45,-1.7 l -0.3,-1.9 q 0,-1.65 0.65,-3 m 4.25,3.3 q -1.05,0 -1.05,-1.1 0,-1.1 1.1,-1.1 1.05,0 1.05,1.1 l -0.25,0.7 q -0.3,0.4 -0.85,0.4 M -9.4,-3.5 q 0,1.1 1.1,1.5 l 0.4,0.2 0.45,0.35 0.25,0.65 -0.05,0.4 q 0.15,1.35 0.05,3.95 l 0.25,2.6 h 1.4 q -0.4,-1.65 -0.4,-5.95 0,-0.75 0.9,-2.35 0.9,-1.65 0.9,-2.4 0,-0.8 -0.65,-1.45 -0.75,-0.8 -1.9,-0.8 -1.6,0 -2.3,1.55 -0.4,0.85 -0.4,1.75 m 2.1,15.75 8.15,0.25 0.45,0.1 H 2.6 L 2.35,11.55 Q 1.65,10.7 -0.7,10.7 q -0.3,0 -1.45,0.35 l -1.4,0.35 q -1.15,0 -0.9,-1.1 V 9.65 L -6,9.75 -7.45,9.7 q 0.15,1.1 0.15,2.55 M -6.05,8.5 -4.5,8.6 V 8.1 l -3.15,0.05 h -0.1 l 0.1,0.5 1.6,-0.15"
         fill="#6b6b6b"
         fill-rule="evenodd"
         stroke="none"
         id="path4" />
      <path
         d="m -6.05,8.5 -1.6,0.15 -0.1,-0.5 h 0.1 L -4.5,8.1 V 8.6 L -6.05,8.5 M -7.3,12.25 Q -7.3,10.8 -7.45,9.7 L -6,9.75 -4.45,9.65 v 0.65 q -0.25,1.1 0.9,1.1 l 1.4,-0.35 Q -1,10.7 -0.7,10.7 q 2.35,0 3.05,0.85 L 2.6,12.6 H 1.3 L 0.85,12.5 -7.3,12.25"
         fill="#999999"
         fill-rule="evenodd"
         stroke="none"
         id="path5" />
      <path
         d="m -9.4,-3.5 q 0,-0.9 0.4,-1.75 0.7,-1.55 2.3,-1.55 1.15,0 1.9,0.8 0.65,0.65 0.65,1.45 0,0.75 -0.9,2.4 -0.9,1.6 -0.9,2.35 0,4.3 0.4,5.95 h -1.4 L -7.2,3.55 Q -7.1,0.95 -7.25,-0.4 L -7.2,-0.8 -7.45,-1.45 -7.9,-1.8 -8.3,-2 q -1.1,-0.4 -1.1,-1.5 m 2.8,0.35 q 0.55,0 0.85,-0.4 l 0.25,-0.7 q 0,-1.1 -1.05,-1.1 -1.1,0 -1.1,1.1 0,1.1 1.05,1.1"
         fill="#ffffff"
         fill-rule="evenodd"
         stroke="none"
         id="path6" />
      <path
         d="m -10.85,-6.45 q 1.15,-2.4 4.1,-2.4 2.8,0 3.95,1.9 0.6,1.05 0.6,2.5 0,1.4 -0.6,2.4 -0.8,1.3 -1.2,3.55 l -0.05,3.35 -0.1,1.2 q 0.7,0.05 1.05,0.4 0.35,0.3 0.35,0.7 0,0.35 -0.15,0.55 L -2.65,8.9 0.1,8.7 q 3.05,0 4.15,1.95 0.5,0.9 0.5,2.2 L 4.7,14.1 3.95,14.65 1.1,15 H -8.2 Q -9.15,14.75 -9.3,14.15 V 14 L -9.55,13.3 -9.5,13 -9.7,12.3 -9.85,10.6 q 0,-3.9 0.8,-4.05 l -0.1,-0.7 V 3.9 l 0.2,-2.55 0.2,-1.2 q -1.8,-0.2 -2.45,-1.7 l -0.3,-1.9 q 0,-1.65 0.65,-3 z"
         ffdec:has-small-stroke="true"
         ffdec:original-stroke-width="1.0"
         fill="none"
         stroke="#6b6b6b"
         stroke-linecap="round"
         stroke-linejoin="round"
         stroke-width="1.14984"
         id="path7" />
    </g>
    <g
       id="sprite1"
       transform="translate(15.7,31.35)">
      <use
         ffdec:characterId="4331"
         height="71.800003"
         transform="translate(-15.7,-31.35)"
         width="29.299999"
         xlink:href="#shape1"
         id="use7" />
    </g>
    <g
       id="shape1"
       transform="translate(15.7,31.35)">
      <path
         d="m 2.35,-28.9 -0.1,2.1 v 3.1 h -5.5 v -5.2 h 5.5 0.1 m 0.1,7.25 -1.95,-0.05 h -3.75 v -1.05 H 2 l 0.3,0.1 0.15,1 M 1.15,32.8 V 38 h -5.5 -0.1 l 0.1,-2.1 v -3.1 h 5.5 m 0,-2 v 1.05 H -4.1 l -0.3,-0.1 -0.15,-1 1.95,0.05 h 3.75"
         fill="#838383"
         fill-rule="evenodd"
         stroke="none"
         id="path8" />
      <path
         d="m 2.35,-28.9 h -0.1 -5.5 v 5.2 h 5.5 v -3.1 l 0.1,-2.1 m 1.9,2.1 v 3.4 l -0.3,2.25 H 7.1 l 0.7,0.5 0.15,0.55 q 0,0.75 -1.05,1.1 H 5.25 l 0.4,0.55 0.85,1.75 1.15,0.05 0.75,0.1 0.65,-0.05 q 4.05,-0.25 4.05,2.1 0,1.15 -0.75,1.65 -1.4,1 -5.85,1 H 6.35 L 6,-11.15 Q 4.7,-8.6 2.3,-8.35 L 1.55,-7.3 1.1,-6.6 1.15,4.45 v 0.2 l -0.05,10.5 1.05,1.8 1,0.65 q 1.8,0.55 2.85,2.65 0.85,1.7 0.85,3.2 0,2.4 -1.2,4.1 L 5.2,28.1 h 0.05 q 1.95,0.1 1.95,1.1 0,0.55 -0.6,0.8 L 5.25,30.25 H 3.2 l -0.05,1 L 3.1,38.6 3.15,39 2.95,39.6 Q 2.65,40.05 2.2,39.95 H -4.35 L -6.1,39.6 -6.35,39 -6.2,38.45 -6.35,35.9 v -3.4 l 0.3,-2.25 H -9.2 q -0.45,-0.05 -0.7,-0.5 l -0.15,-0.55 q 0,-0.75 1.05,-1.1 h 1.65 l -0.4,-0.55 -0.85,-1.75 -1.15,-0.05 -0.75,-0.1 -0.65,0.05 q -4.05,0.25 -4.05,-2.1 0,-1.15 0.75,-1.65 1.4,-1 5.85,-1 h 0.15 l 0.35,-0.7 q 1.3,-2.55 3.7,-2.8 L -3.65,16.4 -3.2,15.7 -3.25,4.65 v -0.2 l 0.05,-10.5 -1.05,-1.8 -1,-0.65 q -1.8,-0.55 -2.85,-2.65 -0.85,-1.7 -0.85,-3.2 0,-2.4 1.2,-4.1 L -7.3,-19 h -0.05 q -1.95,-0.1 -1.95,-1.1 0,-0.55 0.6,-0.8 l 1.35,-0.25 h 2.05 l 0.05,-1 0.05,-7.35 -0.05,-0.4 0.2,-0.6 q 0.3,-0.45 0.75,-0.35 h 6.55 l 1.75,0.35 0.25,0.6 -0.15,0.55 0.15,2.55 m 7.05,12 -4.45,-0.05 v 0.5 l -0.05,0.7 4.5,-0.75 v -0.4 m -8.85,-6.85 -0.15,-1 -0.3,-0.1 h -5.25 v 1.05 H 0.5 l 1.95,0.05 m -1.4,7.1 q -1.15,0 -1.45,-0.5 L -0.55,-16 q 0,-1.7 1.65,-1.6 1.65,0.05 1.65,1.4 0,0.65 -0.4,1.15 -0.5,0.5 -1.3,0.5 m 2.8,-2.6 q -1,-1.4 -3.1,-1.85 h -3.6 q -2.1,0.45 -3.1,1.85 -0.9,1.25 -0.9,3.55 0,1.65 2.5,3.1 l 0.85,0.4 0.95,0.35 h 0.05 l 0.3,0.3 v 0.05 l 0.3,0.25 v 0.1 q 0.3,0.55 0.3,1.25 0,0.4 -0.15,0.85 L -1.7,4.15 -0.4,4.1 -0.35,-6.95 -0.5,-7.8 -0.2,-9.05 v -0.1 L 0.1,-9.4 v -0.05 l 0.3,-0.3 h 0.05 l 0.95,-0.35 0.85,-0.4 q 2.5,-1.45 2.5,-3.1 0,-2.3 -0.9,-3.55 M 0.1,18.5 -0.2,18.25 v -0.1 L -0.5,16.9 -0.35,16.05 -0.4,4.95 -1.7,5 -1.75,16.05 q 0.15,0.45 0.15,0.85 0,0.7 -0.3,1.25 v 0.1 l -0.3,0.25 v 0.05 l -0.3,0.3 h -0.05 l -0.95,0.35 -0.85,0.4 q -2.5,1.45 -2.5,3.1 0,2.3 0.9,3.55 1,1.4 3.1,1.85 h 3.6 q 2.1,-0.45 3.1,-1.85 0.9,-1.25 0.9,-3.55 0,-1.65 -2.5,-3.1 L 1.4,19.2 0.45,18.85 H 0.4 L 0.1,18.55 V 18.5 M 1.15,30.8 H -2.6 l -1.95,-0.05 0.15,1 0.3,0.1 H 1.15 V 30.8 m 0,2 h -5.5 v 3.1 l -0.1,2.1 h 0.1 5.5 v -5.2 m -14.55,-8.9 4.45,0.05 v -0.5 l 0.05,-0.7 -4.5,0.75 v 0.4 m 11.7,0.25 q 0.15,0.25 0.15,0.95 0,1.7 -1.65,1.6 -1.65,-0.05 -1.65,-1.4 0,-0.65 0.4,-1.15 0.5,-0.5 1.3,-0.5 1.15,0 1.45,0.5"
         fill="#6b6b6b"
         fill-rule="evenodd"
         stroke="none"
         id="path9" />
      <path
         d="m 11.3,-14.8 v 0.4 l -4.5,0.75 0.05,-0.7 v -0.5 l 4.45,0.05 m -24.7,38.7 v -0.4 l 4.5,-0.75 -0.05,0.7 v 0.5 L -13.4,23.9"
         fill="#999999"
         fill-rule="evenodd"
         stroke="none"
         id="path10" />
      <path
         d="m 0.1,18.5 v 0.05 l 0.3,0.3 h 0.05 l 0.95,0.35 0.85,0.4 q 2.5,1.45 2.5,3.1 0,2.3 -0.9,3.55 -1,1.4 -3.1,1.85 h -3.6 q -2.1,-0.45 -3.1,-1.85 -0.9,-1.25 -0.9,-3.55 0,-1.65 2.5,-3.1 l 0.85,-0.4 0.95,-0.35 h 0.05 l 0.3,-0.3 V 18.5 l 0.3,-0.25 v -0.1 q 0.3,-0.55 0.3,-1.25 0,-0.4 -0.15,-0.85 L -1.7,5 l 1.3,-0.05 0.05,11.1 -0.15,0.85 0.3,1.25 v 0.1 l 0.3,0.25 m 3.75,-35.65 q 0.9,1.25 0.9,3.55 0,1.65 -2.5,3.1 L 1.4,-10.1 0.45,-9.75 H 0.4 l -0.3,0.3 v 0.05 l -0.3,0.25 v 0.1 L -0.5,-7.8 -0.35,-6.95 -0.4,4.1 -1.7,4.15 -1.75,-6.95 q 0.15,-0.45 0.15,-0.85 0,-0.7 -0.3,-1.25 v -0.1 L -2.2,-9.4 v -0.05 l -0.3,-0.3 h -0.05 l -0.95,-0.35 -0.85,-0.4 q -2.5,-1.45 -2.5,-3.1 0,-2.3 0.9,-3.55 1,-1.4 3.1,-1.85 h 3.6 q 2.1,0.45 3.1,1.85 m -2.8,2.6 q 0.8,0 1.3,-0.5 0.4,-0.5 0.4,-1.15 0,-1.35 -1.65,-1.4 -1.65,-0.1 -1.65,1.6 l 0.15,0.95 q 0.3,0.5 1.45,0.5 m -2.75,38.7 q -0.3,-0.5 -1.45,-0.5 -0.8,0 -1.3,0.5 -0.4,0.5 -0.4,1.15 0,1.35 1.65,1.4 1.65,0.1 1.65,-1.6 0,-0.7 -0.15,-0.95"
         fill="#af9b9b"
         fill-rule="evenodd"
         stroke="none"
         id="path11" />
      <path
         d="m 4.25,-26.8 v 3.4 l -0.3,2.25 H 7.1 l 0.7,0.5 0.15,0.55 q 0,0.75 -1.05,1.1 H 5.25 l 0.4,0.55 0.85,1.75 1.15,0.05 0.75,0.1 0.65,-0.05 q 4.05,-0.25 4.05,2.1 0,1.15 -0.75,1.65 -1.4,1 -5.85,1 H 6.35 L 6,-11.15 Q 4.7,-8.6 2.3,-8.35 L 1.55,-7.3 1.1,-6.6 1.15,4.45 v 0.2 l -0.05,10.5 1.05,1.8 1,0.65 q 1.8,0.55 2.85,2.65 0.85,1.7 0.85,3.2 0,2.4 -1.2,4.1 L 5.2,28.1 h 0.05 q 1.95,0.1 1.95,1.1 0,0.55 -0.6,0.8 L 5.25,30.25 H 3.2 l -0.05,1 L 3.1,38.6 3.15,39 2.95,39.6 Q 2.65,40.05 2.2,39.95 H -4.35 L -6.1,39.6 -6.35,39 -6.2,38.45 -6.35,35.9 v -3.4 l 0.3,-2.25 H -9.2 q -0.45,-0.05 -0.7,-0.5 l -0.15,-0.55 q 0,-0.75 1.05,-1.1 h 1.65 l -0.4,-0.55 -0.85,-1.75 -1.15,-0.05 -0.75,-0.1 -0.65,0.05 q -4.05,0.25 -4.05,-2.1 0,-1.15 0.75,-1.65 1.4,-1 5.85,-1 h 0.15 l 0.35,-0.7 q 1.3,-2.55 3.7,-2.8 L -3.65,16.4 -3.2,15.7 -3.25,4.65 v -0.2 l 0.05,-10.5 -1.05,-1.8 -1,-0.65 q -1.8,-0.55 -2.85,-2.65 -0.85,-1.7 -0.85,-3.2 0,-2.4 1.2,-4.1 L -7.3,-19 h -0.05 q -1.95,-0.1 -1.95,-1.1 0,-0.55 0.6,-0.8 l 1.35,-0.25 h 2.05 l 0.05,-1 0.05,-7.35 -0.05,-0.4 0.2,-0.6 q 0.3,-0.45 0.75,-0.35 h 6.55 l 1.75,0.35 0.25,0.6 -0.15,0.55 z"
         ffdec:has-small-stroke="true"
         ffdec:original-stroke-width="1.0"
         fill="none"
         stroke="#6b6b6b"
         stroke-linecap="round"
         stroke-linejoin="round"
         stroke-width="1.26938"
         id="path12" />
    </g>
    <g
       id="shape2"
       transform="translate(12,9.35)">
      <path
         d="m -10.85,-6.45 q 1.15,-2.4 4.1,-2.4 2.8,0 3.95,1.9 0.6,1.05 0.6,2.5 0,1.4 -0.6,2.4 -0.8,1.3 -1.2,3.55 l -0.05,3.35 -0.1,1.2 q 0.7,0.05 1.05,0.4 0.35,0.3 0.35,0.7 0,0.35 -0.15,0.55 L -2.65,8.9 0.1,8.7 q 3.05,0 4.15,1.95 0.5,0.9 0.5,2.2 L 4.7,14.1 3.95,14.65 1.1,15 H -8.2 Q -9.15,14.75 -9.3,14.15 V 14 L -9.55,13.3 -9.5,13 -9.7,12.3 -9.85,10.6 q 0,-3.9 0.8,-4.05 l -0.1,-0.7 V 3.9 l 0.2,-2.55 0.2,-1.2 q -1.8,-0.2 -2.45,-1.7 l -0.3,-1.9 q 0,-1.65 0.65,-3 m 4.25,3.3 q -1.05,0 -1.05,-1.1 0,-1.1 1.1,-1.1 1.05,0 1.05,1.1 l -0.25,0.7 q -0.3,0.4 -0.85,0.4 M -9.4,-3.5 q 0,1.1 1.1,1.5 l 0.4,0.2 0.45,0.35 0.25,0.65 -0.05,0.4 q 0.15,1.35 0.05,3.95 l 0.25,2.6 h 1.4 q -0.4,-1.65 -0.4,-5.95 0,-0.75 0.9,-2.35 0.9,-1.65 0.9,-2.4 0,-0.8 -0.65,-1.45 -0.75,-0.8 -1.9,-0.8 -1.6,0 -2.3,1.55 -0.4,0.85 -0.4,1.75 m 2.1,15.75 8.15,0.25 0.45,0.1 H 2.6 L 2.35,11.55 Q 1.65,10.7 -0.7,10.7 q -0.3,0 -1.45,0.35 l -1.4,0.35 q -1.15,0 -0.9,-1.1 V 9.65 L -6,9.75 -7.45,9.7 q 0.15,1.1 0.15,2.55 M -6.05,8.5 -4.5,8.6 V 8.1 l -3.15,0.05 h -0.1 l 0.1,0.5 1.6,-0.15"
         fill="#6b6b6b"
         fill-rule="evenodd"
         stroke="none"
         id="path13" />
      <path
         d="m -6.05,8.5 -1.6,0.15 -0.1,-0.5 h 0.1 L -4.5,8.1 V 8.6 L -6.05,8.5 M -7.3,12.25 Q -7.3,10.8 -7.45,9.7 L -6,9.75 -4.45,9.65 v 0.65 q -0.25,1.1 0.9,1.1 l 1.4,-0.35 Q -1,10.7 -0.7,10.7 q 2.35,0 3.05,0.85 L 2.6,12.6 H 1.3 L 0.85,12.5 -7.3,12.25"
         fill="#999999"
         fill-rule="evenodd"
         stroke="none"
         id="path14" />
      <path
         d="m -9.4,-3.5 q 0,-0.9 0.4,-1.75 0.7,-1.55 2.3,-1.55 1.15,0 1.9,0.8 0.65,0.65 0.65,1.45 0,0.75 -0.9,2.4 -0.9,1.6 -0.9,2.35 0,4.3 0.4,5.95 h -1.4 L -7.2,3.55 Q -7.1,0.95 -7.25,-0.4 L -7.2,-0.8 -7.45,-1.45 -7.9,-1.8 -8.3,-2 q -1.1,-0.4 -1.1,-1.5 m 2.8,0.35 q 0.55,0 0.85,-0.4 l 0.25,-0.7 q 0,-1.1 -1.05,-1.1 -1.1,0 -1.1,1.1 0,1.1 1.05,1.1"
         fill="#ffffff"
         fill-rule="evenodd"
         stroke="none"
         id="path15" />
      <path
         d="m -10.85,-6.45 q 1.15,-2.4 4.1,-2.4 2.8,0 3.95,1.9 0.6,1.05 0.6,2.5 0,1.4 -0.6,2.4 -0.8,1.3 -1.2,3.55 l -0.05,3.35 -0.1,1.2 q 0.7,0.05 1.05,0.4 0.35,0.3 0.35,0.7 0,0.35 -0.15,0.55 L -2.65,8.9 0.1,8.7 q 3.05,0 4.15,1.95 0.5,0.9 0.5,2.2 L 4.7,14.1 3.95,14.65 1.1,15 H -8.2 Q -9.15,14.75 -9.3,14.15 V 14 L -9.55,13.3 -9.5,13 -9.7,12.3 -9.85,10.6 q 0,-3.9 0.8,-4.05 l -0.1,-0.7 V 3.9 l 0.2,-2.55 0.2,-1.2 q -1.8,-0.2 -2.45,-1.7 l -0.3,-1.9 q 0,-1.65 0.65,-3 z"
         ffdec:has-small-stroke="true"
         ffdec:original-stroke-width="1.0"
         fill="none"
         stroke="#6b6b6b"
         stroke-linecap="round"
         stroke-linejoin="round"
         stroke-width="1.14984"
         id="path16" />
    </g>
  </defs>
</svg>
