<?xml version="1.0" encoding="UTF-8" standalone="no"?>
<svg
   ffdec:objectType="frame"
   height="83.849998"
   width="248.39999"
   version="1.1"
   id="svg26"
   sodipodi:docname="2.svg"
   xmlns:inkscape="http://www.inkscape.org/namespaces/inkscape"
   xmlns:sodipodi="http://sodipodi.sourceforge.net/DTD/sodipodi-0.dtd"
   xmlns:xlink="http://www.w3.org/1999/xlink"
   xmlns="http://www.w3.org/2000/svg"
   xmlns:svg="http://www.w3.org/2000/svg"
   xmlns:ffdec="https://www.free-decompiler.com/flash">
  <sodipodi:namedview
     id="namedview26"
     pagecolor="#ffffff"
     bordercolor="#000000"
     borderopacity="0.25"
     inkscape:showpageshadow="2"
     inkscape:pageopacity="0.0"
     inkscape:pagecheckerboard="0"
     inkscape:deskcolor="#d1d1d1"
     fit-margin-top="5"
     fit-margin-left="5"
     fit-margin-right="5"
     fit-margin-bottom="5" />
  <g
     transform="translate(124.3,47.55)"
     id="g5">
    <use
       ffdec:characterId="1263"
       height="4.3000002"
       transform="translate(-124.3,-47.55)"
       width="248.39999"
       xlink:href="#shape0"
       id="use1" />
    <use
       ffdec:characterId="1268"
       height="40.25"
       transform="translate(-73.8,-29.45)"
       width="147.85001"
       xlink:href="#sprite0"
       id="use2" />
    <use
       ffdec:characterId="1269"
       height="80.5"
       transform="translate(-123.6,-44.2)"
       width="246.55"
       xlink:href="#shape2"
       id="use3" />
    <use
       ffdec:characterId="44"
       height="8"
       transform="matrix(0.866,0.5,-0.5,0.866,-112.5266,-1.814)"
       width="10.8"
       xlink:href="#sprite1"
       id="use4" />
    <use
       ffdec:characterId="1270"
       height="32.599998"
       transform="translate(-81.2,3.45)"
       width="162.60001"
       xlink:href="#shape4"
       id="use5" />
  </g>
  <defs
     id="defs26">
    <g
       id="shape0"
       transform="translate(124.3,47.55)">
      <path
         d="m 65.4,-43.95 -0.05,-0.1 -0.5,-0.5 q -0.35,-0.55 -0.35,-1.05 0,-1.6 1.55,-1.95 h 56.5 q 1.55,0.35 1.55,1.95 l -0.35,1.05 q -0.3,0.5 -0.8,0.65 v 0.65 h -56.3 q -0.8,0 -1.25,-0.7 m -188.15,-3.6 h 56.5 q 1.55,0.35 1.55,1.95 0,0.5 -0.35,1.05 -0.45,0.7 -1.2,0.7 h -1.55 -0.3 -52.8 -0.3 -1.55 q -0.75,0 -1.2,-0.7 l -0.35,-1.05 q 0,-1.6 1.55,-1.95"
         fill="#6b6b6b"
         fill-rule="evenodd"
         stroke="none"
         id="path5" />
    </g>
    <g
       id="sprite0"
       transform="translate(73.9,20.15)">
      <use
         ffdec:characterId="1267"
         height="40.25"
         transform="translate(-73.9,-20.15)"
         width="147.85001"
         xlink:href="#shape1"
         id="use6" />
    </g>
    <g
       id="shape1"
       transform="translate(73.9,20.15)">
      <path
         d="m 28.8,-0.9 -0.25,-1.9 h -2.9 l -1.35,0.05 -2.4,0.05 -1.65,0.05 -2.15,0.1 -10.7,0.65 -5.3,1.2 -7.35,0.2 -0.8,0.45 V 0.1 l 0.15,0.6 0.2,0.7 0.1,0.35 0.3,1.35 0.3,1.7 0.75,3.9 0.45,2.1 q 1,4.65 2.2,4.65 L 1.5,15.1 5,14.3 H 5.35 L 4.8,12.2 Q 4.45,10.25 4.35,8.15 4.35,6.4 4.6,5.8 4.95,5.05 5.8,4.7 7.15,3.95 11.95,3.15 L 16.35,2.5 18.1,2.3 20.3,2 21.9,1.85 24.3,1.25 25.25,1.1 29,0.45 28.95,0.25 28.85,-0.7 28.8,-0.9 m -40.8,1.6 2.1,0.75 0.75,-0.1 h 0.3 L -8.9,0.7 v -1.95 l 0.2,-1.25 q 0.65,-0.95 3.1,-0.9 L 1.8,-3.5 6.45,-4.15 18.15,-5 v -4.5 l 0.05,-1.6 -36.25,-0.1 v 0.05 h 0.25 l 0.05,1.65 0.05,1.15 v 1.15 1 q 3.1,-0.45 4.6,2.3 0.65,1.2 0.95,2.8 L -12,0.3 v 0.4 m 33.7,-8.7 0.1,-1.4 -0.05,-1.65 -1.55,-0.05 0.05,1.35 v 4.6 L 21.9,-5.2 v -2 H 21.75 L 21.7,-8 m 42,7.2 h 0.1 v -10.15 l -39.8,-0.1 0.1,2.1 0.1,1.75 h 0.1 v 1.15 0.85 l 5.25,0.05 q 0.8,0.6 1.75,4.45 H 47.95 L 63.7,-0.8 m 7.05,-16.65 h -4 l 0.1,0.1 V 19.5 l -0.1,0.3 v 0.3 H 63.8 v -6.05 -8.5 h -5.65 -0.3 L 58,5.75 58.1,6 q 0.4,1.8 0.4,6.7 l -0.05,0.85 -0.65,0.95 -0.15,0.1 -0.4,-0.45 -0.5,-1 Q 56.55,12.3 56.65,11.3 L 56.7,8.9 56.4,8.15 Q 55.45,6.7 48.6,6 L 45.8,5.65 45.45,5.55 h -0.1 l 0.15,0.25 1.8,2.55 q 0.55,1.05 0.55,5.15 0,1.7 -0.4,2.15 -1.3,1.5 -6.35,1.25 L 26.55,17.75 11.8,18.7 q -3.45,0 -5,-2 L 5,17.25 q -3.9,1.05 -8.15,1.05 -1.25,0 -2.4,-3.5 L -6.45,11.6 -7.4,6.8 -7.6,7.75 -8.4,11.6 -8.6,14.5 -9,16.1 q -1.1,3.4 -4.8,3.4 L -31,18.6 -41.45,16.75 -49.5,16.6 -52.45,16 q -1.1,0.6 -2.05,0.6 -1.95,0 -2.9,-0.5 -0.7,-0.05 -1,-0.75 l -0.3,-0.9 V 12.6 q 0,-5 0.4,-6.25 l 0.3,-0.8 h -5.75 l -0.1,-0.1 v 8.35 6.3 h -3 v -0.3 l -0.1,-0.3 v -36.95 h -3.9 V 19.5 l -0.1,0.3 v 0.3 H -73.9 V -20.15 H 73.95 l -0.1,40.25 h -3 v -0.3 l -0.1,-0.3 v -36.95 m -6.95,2.6 v -2.6 H -63.85 v 2.65 1.85 l 0.1,-0.1 127.55,-0.4 v -1.4 m -87.3,3.7 0.05,-0.1 -40.3,-0.15 -0.1,-0.05 v 10.7 h 0.3 l 0.25,-0.05 15.75,0.1 h 3.85 l 19.85,-4.05 v -1.3 -1.15 h 0.1 l 0.1,-1.75 0.1,-2.2 h 0.05 m 3.9,-0.05 -2.2,-0.05 v 0.1 h 0.45 l -0.05,1.8 0.1,1.35 -0.05,0.8 h -0.15 v 2 l 1.4,-0.3 0.25,-0.05 v -4.2 l 0.1,-1.4 h 0.15 v -0.05 m -9.6,9.65 5.3,0.05 2.4,0.25 1.65,0.2 0.25,0.05 1.9,0.3 1.65,0.3 2.65,0.7 -0.45,-1.75 -0.45,-1.8 -0.05,-0.2 -0.05,-0.2 -0.3,0.05 -2.1,0.2 -0.9,0.1 -2.15,0.25 -0.45,0.05 -1.2,0.15 -2.4,0.3 -5.25,0.75 -1.65,0.25 h 1.6 m 19.1,7.9 0.05,-0.4 0.2,-0.9 0.05,-0.25 -2,-0.9 -1.75,-0.8 -0.9,-0.35 -3.25,-0.6 -2.2,-0.45 -1.6,-0.2 -0.8,-0.1 -1.6,-0.15 H -24 L -27.2,1.2 q -8.4,0 -12.15,1.2 l -2.35,0.65 -0.6,0.2 -1.1,0.3 h -0.25 -0.05 -0.25 l -0.45,0.3 -0.95,0.75 -0.2,0.45 -0.2,0.3 -0.1,0.2 -1.25,2.25 -0.35,0.6 -2.95,5.2 1.15,0.2 h 0.6 l 7.2,0.15 11.3,1.6 14.85,1.25 3,-0.05 2.2,-10.4 M -52.35,3.9 q -1.3,0.35 -2.15,1.65 -1.1,1.7 -1.45,5 l -0.4,2.9 0.95,0.45 1.5,-0.5 0.25,-0.05 0.05,-0.1 1.25,-2.4 2.55,-3.7 1.2,-1.6 1.35,-1.7 0.45,-0.55 0.05,-0.25 0.6,-0.85 -3.2,0.85 -2.65,0.8 -0.35,0.05 m -3.3,-0.85 1.2,-0.65 3.35,-1.2 h -12.75 v 3.1 h 0.05 l 0.05,-0.45 h 7.1 l 1,-0.8 M 49.4,3.15 50.25,3.3 52.8,3.85 h 11 V 1.2 H 42.35 L 43.4,2.7 43.75,2.6 49.4,3.15 M 44.85,14 q 0.8,-0.3 0.9,-0.65 l -0.2,-1.9 -0.05,-0.3 -0.05,-0.4 Q 45.2,9.85 44,7.7 l -0.35,-0.65 -0.3,-0.5 -0.55,-1 -1.15,-1.7 -0.55,-0.7 q -0.75,-0.7 -1.25,-0.7 l -7.75,0.1 -3.5,0.6 -3.95,0.7 -0.3,0.05 -3,0.5 -1,0.15 L 18.1,4.95 18,5 12.05,6.2 8.55,6.95 8.2,7.05 7,7.3 8.6,13.55 8.65,13.7 8.9,14.35 q 0.75,1.8 1,2 l 8.75,-0.45 1.2,-0.15 2.9,-0.15 0.8,-0.05 19.7,-1.15 1.6,-0.4"
         fill="#9a9a9a"
         fill-rule="evenodd"
         stroke="none"
         id="path6" />
      <path
         d="m -8.6,14.5 0.2,-2.9 0.8,-3.85 0.2,-0.95 0.95,4.8 0.9,3.2 -1.35,0.35 q -1,0 -1.7,-0.65"
         fill="#a19f9b"
         fill-rule="evenodd"
         stroke="none"
         id="path7" />
      <path
         d="m 70.75,-17.45 -3.9,0.1 -0.1,-0.1 h 4"
         fill="#b8b6b0"
         fill-rule="evenodd"
         stroke="none"
         id="path8" />
      <path
         d="m 21.7,-8 0.05,0.8 h 0.15 v 2 l -1.65,0.05 v -4.6 l -0.05,-1.35 1.55,0.05 0.05,1.65 -0.1,1.4 m 45.15,-9.35 3.9,-0.1 V 19.5 l 0.1,0.3 v 0.3 h -4.1 v -0.3 l 0.1,-0.3 v -36.85 m -130.7,2.55 2.35,0.1 125.3,-0.15 v 1.4 l -127.55,0.4 -0.1,0.1 v -1.85 m -7.1,34.9 v -0.3 l 0.1,-0.3 v -36.95 h 3.9 V 19.5 l 0.1,0.3 v 0.3 h -4.1 m 51.35,-31.3 v 0.05 h -0.15 l -0.1,1.4 v 4.2 l -0.25,0.05 -1.4,0.3 v -2 h 0.15 l 0.05,-0.8 -0.1,-1.35 0.05,-1.8 h -0.45 v -0.1 l 2.2,0.05 m -36.05,14.25 -1,0.8 h -7.1 L -63.8,4.3 h -0.05 V 1.2 h 12.75 l -3.35,1.2 -1.2,0.65 M 49.4,3.15 43.75,2.6 43.4,2.7 42.35,1.2 H 63.8 v 2.65 h -11 L 50.25,3.3 49.4,3.15"
         fill="#afa6a6"
         fill-rule="evenodd"
         stroke="none"
         id="path9" />
      <path
         d="m -63.85,-14.8 v -2.65 H 63.8 v 2.6 l -125.3,0.15 -2.35,-0.1"
         fill="#bab1b1"
         fill-rule="evenodd"
         stroke="none"
         id="path10" />
      <path
         d="M -12,0.7 V 0.3 l -0.15,-1.4 q -0.3,-1.6 -0.95,-2.8 -1.5,-2.75 -4.6,-2.3 v -1 -1.15 l -0.05,-1.15 -0.05,-1.65 h -0.25 v -0.05 l 36.25,0.1 -0.05,1.6 V -5 L 6.45,-4.15 1.8,-3.5 -5.6,-3.4 q -2.45,-0.05 -3.1,0.9 l -0.2,1.25 V 0.7 l 0.05,0.65 h -0.3 L -9.9,1.45 -12,0.7 M 63.7,-0.8 47.95,-0.7 H 31.3 Q 30.35,-4.55 29.55,-5.15 L 24.3,-5.2 V -6.05 -7.2 h -0.1 l -0.1,-1.75 -0.1,-2.1 39.8,0.1 V -0.8 H 63.7 M -63.85,13.8 V 5.45 l 0.1,0.1 H -58 l -0.3,0.8 q -0.4,1.25 -0.4,6.25 v 1.85 l 0.3,0.9 -0.85,0.1 q -2.95,0 -4.6,-1.65 M 57.8,14.5 58.45,13.55 58.5,12.7 Q 58.5,7.8 58.1,6 L 58,5.75 58.15,5.55 h 5.65 v 8.5 q -1.6,0.8 -4.55,0.8 L 57.8,14.5 m -81.3,-25.65 h -0.05 l -0.1,2.2 -0.1,1.75 h -0.1 v 1.15 1.3 L -43.7,-0.7 h -3.85 l -15.75,-0.1 -0.25,0.05 h -0.3 v -10.7 l 0.1,0.05 40.3,0.15 -0.05,0.1"
         fill="#a59d9d"
         fill-rule="evenodd"
         stroke="none"
         id="path11" />
      <path
         d="M -5.6,1.75 -4.8,2.3 -4.3,1.6 -1.7,1.7 8.9,0.8 9.75,0.7 18.1,-0.45 18.3,-0.5 26,-0.65 l 1.8,-0.05 1,-0.2 0.05,0.2 0.1,0.95 L 29,0.45 25.25,1.1 24.3,1.25 21.9,1.85 20.3,2 18.1,2.3 16.35,2.5 11.95,3.15 Q 7.15,3.95 5.8,4.7 4.95,5.05 4.6,5.8 4.35,6.4 4.35,8.15 q 0.1,2.1 0.45,4.05 l 0.55,2.1 H 5 l -3.5,0.8 -3.1,0.35 q -1.2,0 -2.2,-4.65 L -4.25,8.7 -5,4.8 -5.3,3.1 -5.6,1.75 M 47.85,13.5 q 0,-4.1 -0.55,-5.15 L 45.5,5.8 45.8,5.65 48.6,6 q 6.85,0.7 7.8,2.15 l 0.3,0.75 -0.05,2.4 q -0.1,1 0.1,1.85 l 0.5,1 q -0.85,1 -3,1 -3.85,0 -6.4,-1.65 m -96.5,0.3 q 1.05,-0.8 2.9,-3.45 2.25,-3.25 5,-4.8 0.9,-0.5 1.9,-0.85 l 13.7,-0.3 3.75,0.8 1.45,0.15 0.75,0.1 1.5,0.25 6.6,0.9 1,-0.25 -2.2,10.4 -3,0.05 -14.85,-1.25 -11.3,-1.6 -7.2,-0.15"
         fill="#b1a0a0"
         fill-rule="evenodd"
         stroke="none"
         id="path12" />
      <path
         d="m 28.8,-0.9 -1,0.2 L 26,-0.65 18.3,-0.5 18.1,-0.45 9.75,0.7 8.9,0.8 -1.7,1.7 -4.3,1.6 -4.8,2.3 -5.6,1.75 -5.7,1.4 -5.9,0.7 -6.05,0.1 v -0.15 l 0.8,-0.45 7.35,-0.2 5.3,-1.2 10.7,-0.65 2.15,-0.1 1.65,-0.05 2.4,-0.05 1.35,-0.05 h 2.9 l 0.25,1.9 m -77.45,14.7 h -0.6 l -1.15,-0.2 2.95,-5.2 0.35,-0.6 1.25,-2.25 0.1,-0.2 0.2,-0.3 0.2,-0.45 0.95,-0.75 0.45,-0.3 h 0.25 0.05 0.25 l 1.1,-0.3 0.6,-0.2 2.35,-0.65 Q -35.6,1.2 -27.2,1.2 l 3.2,0.05 h 0.1 l 1.6,0.15 0.8,0.1 1.6,0.2 2.2,0.45 3.25,0.6 0.9,0.35 1.75,0.8 2,0.9 -0.05,0.25 -0.2,0.9 -0.05,0.4 -1,0.25 -6.6,-0.9 -1.5,-0.25 -0.75,-0.1 -1.45,-0.15 -3.75,-0.8 -13.7,0.3 q -1,0.35 -1.9,0.85 -2.75,1.55 -5,4.8 -1.85,2.65 -2.9,3.45"
         fill="#c2aeae"
         fill-rule="evenodd"
         stroke="none"
         id="path13" />
      <path
         d="m -29.2,-1.55 0.05,-0.25 5.25,-0.75 2.4,-0.3 1.2,-0.15 0.45,-0.05 2.15,-0.25 0.9,-0.1 2.1,-0.2 0.35,0.15 0.05,0.2 0.45,1.8 0.45,1.75 -2.65,-0.7 -1.65,-0.3 -1.9,-0.3 -0.25,-0.05 -1.65,-0.2 -2.4,-0.25 -5.3,-0.05 M -52.35,3.9 -52,3.85 l 2.65,-0.8 3.2,-0.85 -0.6,0.85 -0.05,0.25 -0.45,0.55 -1.35,1.7 -1.2,1.6 -2.55,3.7 -1.25,2.4 -0.05,0.1 -0.25,0.05 -1.5,0.5 -0.95,-0.45 0.4,-2.9 q 0.35,-3.3 1.45,-5 0.85,-1.3 2.15,-1.65 M 8.9,14.35 q 0.8,0.6 1.6,0.6 0.95,0 1.35,-0.85 l 0.3,-1.3 q 0,-1.3 -0.55,-2.5 l 6.5,-1.4 2.3,-0.5 1.5,-0.35 0.45,-0.1 2,-0.45 8.9,-1.95 3.7,-0.7 H 39 l 0.65,0.7 2.4,2.8 -0.05,0.7 q 0,0.6 1.5,3.05 l 1.35,1.9 -1.6,0.4 -19.7,1.15 -0.8,0.05 -2.9,0.15 -1.2,0.15 -8.75,0.45 q -0.25,-0.2 -1,-2"
         fill="#b4acac"
         fill-rule="evenodd"
         stroke="none"
         id="path14" />
      <path
         d="M 8.9,14.35 8.65,13.7 8.6,13.55 7,7.3 8.2,7.05 8.55,6.95 12.05,6.2 18,5 l 0.1,-0.05 2.25,-0.4 1,-0.15 3,-0.5 0.3,-0.05 3.95,-0.7 3.5,-0.6 7.75,-0.1 q 0.5,0 1.25,0.7 l 0.55,0.7 1.15,1.7 0.55,1 0.3,0.5 L 44,7.7 q 1.2,2.15 1.45,3.05 l 0.05,0.4 0.05,0.3 0.2,1.9 Q 45.65,13.7 44.85,14 L 43.5,12.1 Q 42,9.65 42,9.05 L 42.05,8.35 39.65,5.55 39,4.85 h -2.05 l -3.7,0.7 -8.9,1.95 -2,0.45 -0.45,0.1 -1.5,0.35 -2.3,0.5 -6.5,1.4 q 0.55,1.2 0.55,2.5 l -0.3,1.3 q -0.4,0.85 -1.35,0.85 -0.8,0 -1.6,-0.6"
         fill="#beb5b5"
         fill-rule="evenodd"
         stroke="none"
         id="path15" />
    </g>
    <g
       id="shape2"
       transform="translate(123.6,44.2)">
      <path
         d="m 115.45,-40.5 v -0.6 -0.15 -0.5 -0.1 L 114.8,-42 h -3.1 -33.8 -3.1 l -0.4,0.15 v 1.2 3.8 l 2.75,-0.3 h 35.3 l 2.95,0.35 v -0.5 -0.45 l 0.05,-2.75 m -46.1,-3.7 V 9.35 L 69.3,9.6 69.25,9.65 v 10.7 0.35 l -0.05,2.05 v 0.25 0.65 5.2 l -0.3,3.95 2.75,-0.25 h 1.5 L 73.05,31.05 72.4,30.9 72.35,30.65 V 16.3 l 0.2,-0.75 -0.15,-0.35 0.5,-0.3 V 12.6 L 72.4,12.5 72.35,12.25 V -10.8 l 0.2,-0.75 -0.15,-0.35 0.55,-0.35 v -2.25 l -0.55,-0.1 -0.05,-0.25 V -34.9 l 0.2,-0.75 -0.15,-0.35 0.6,-0.35 0.05,-0.95 v -0.45 -3.35 -0.65 -0.35 l -0.05,-0.05 -0.1,-0.3 -0.15,-0.05 v -1.7 h 44.35 l 0.05,2.45 v 0.6 0.05 l 0.05,3.35 v 0.45 l 0.05,2.35 0.05,3.35 0.05,2.35 v 1.5 l 0.05,51.4 -0.1,8.9 h 0.65 l 2.75,0.25 -0.3,-3.95 0.05,-5.2 V 23 H 120.4 V 22.75 20.7 l -0.05,-0.35 V 9.6 l -0.1,-0.25 V -44.2 h 2.7 v 79.45 q -0.35,0.75 -0.8,0.75 -0.3,0 -0.6,-0.3 l -3.6,0.45 h -0.75 l -0.1,0.15 h -1.6 l -0.2,-0.15 H 71.65 L 68.05,35.7 Q 67.75,36 67.45,36 66,36 65.75,28.55 l 0.05,-5.8 v -0.7 l -0.05,-1.9 V 9.5 L 65.6,9.2 v -53.4 h 3.75 m 45.95,11.75 v -2.05 -0.2 l -0.25,0.05 -2.6,0.15 h -35.3 l -2.75,-0.2 v 2.55 l 0.05,4.6 v 0.55 0.3 1.7 1.7 l 0.05,5.4 v 0.6 0.3 l 0.25,0.5 13.15,-0.05 3.9,0.05 h 0.35 1.3 0.25 0.5 0.15 2.2 v -0.05 h 1.5 1.5 0.55 1.6 l 13.15,0.05 0.25,-0.5 v -0.3 -0.6 l 0.05,-5.4 v -1.7 -1.7 -0.2 -0.65 h 0.05 v -0.5 h 0.05 v -1.2 l 0.05,-2.15 v -1.05 m -40.8,19.7 2.65,-0.3 h 35.3 l 2.8,0.3 V -14.4 H 74.5 v 1.65 m 40.25,2.2 -2.3,0.15 h -35.3 l -2.65,-0.15 v 2.75 18.3 h 0.25 v 0.1 L 87.9,10.55 h 3.9 v 0.05 h 0.35 1.25 0.95 2.2 v -0.05 h 1.5 1.5 0.55 1.6 l 13.15,0.05 0.05,-0.1 h 0.2 V 10.1 9.6 l 0.05,-0.9 0.05,-3.35 h 0.05 v -13.8 -1.6 -0.55 l -0.5,0.05 m -0.55,27.15 -1.75,0.1 h -35.3 -0.2 L 75.7,16.65 h -0.05 l -1,-0.1 v 0.7 2.4 0.05 1 1.05 1 0.25 0.65 L 74.6,28.6 74.75,29 87.9,28.95 h 3.9 V 29 h 0.35 1.35 0.85 2.2 v -0.05 h 1.5 1.5 0.55 1.6 l 13.15,0.05 0.25,-0.5 0.05,-2.3 0.05,-2.55 V 23 h 0.05 V 22.75 20.7 19.35 l 0.05,-2.4 V 16.5 l -1.1,0.1 m 1.1,-2.25 V 12.7 H 74.6 v 1.6 l 2.55,-0.25 h 35.3 l 2.85,0.3 m 0,16.75 H 74.55 v 1.45 H 115.3 V 31.1 M -74.4,-32.45 v -2.05 -0.2 l -0.25,0.05 -2.6,0.15 h -35.3 l -2.75,-0.2 v 2.55 l 0.05,4.6 v 0.55 0.3 1.7 1.7 l 0.05,5.4 v 0.6 0.3 l 0.25,0.5 13.15,-0.05 h 0.45 0.6 1.1 l 1.55,0.05 h 0.2 0.15 0.4 l 7.75,-0.05 h 1.6 l 13.15,0.05 0.25,-0.5 v -0.3 -0.6 l 0.05,-5.4 v -1.7 -1.7 -0.05 -0.8 h 0.05 v -0.5 h 0.05 v -1.2 l 0.05,-2.15 v -1.05 M -120.35,-44.2 V 9.35 l -0.05,0.25 -0.05,0.05 v 10.7 0.35 l -0.05,2.05 v 0.25 0.65 5.2 l -0.3,3.95 2.75,-0.25 h 1.5 l -0.1,-1.5 -0.65,-0.15 -0.05,-0.25 V 16.3 l 0.2,-0.75 -0.15,-0.35 0.5,-0.3 v -2.3 l -0.5,-0.1 -0.05,-0.25 V -10.8 l 0.2,-0.75 -0.15,-0.35 0.55,-0.35 v -2.25 l -0.55,-0.1 -0.05,-0.25 V -34.9 l 0.2,-0.75 -0.15,-0.35 0.6,-0.35 0.05,-0.95 v -0.45 -3.35 -0.65 -0.35 l -0.05,-0.05 -0.1,-0.3 -0.15,-0.05 v -1.7 h 44.35 l 0.05,2.45 v 0.6 0.05 l 0.05,3.35 v 0.45 l 0.05,2.35 0.05,3.35 0.05,2.35 v 1.5 l 0.05,51.4 -0.1,8.9 h 0.65 l 2.75,0.25 -0.3,-3.95 0.05,-5.2 V 23 H -69.3 V 22.75 20.7 l -0.05,-0.35 V 9.6 l -0.1,-0.25 V -44.2 h 3.75 V 9.2 l -0.15,0.3 v 10.65 2.85 0.65 4.9 q -0.25,7.45 -1.7,7.45 -0.3,0 -0.6,-0.3 l -3.6,0.45 h -0.75 l -0.1,0.15 h -1.6 l -0.2,-0.15 h -43.65 l -3.6,-0.45 q -0.3,0.3 -0.6,0.3 -0.9,0 -1.35,-2.95 V -44.2 h 3.25 m 46.1,3.7 v -0.6 -0.15 -0.5 -0.1 L -74.9,-42 h -3.1 -33.8 -3.1 l -0.4,0.15 v 1.2 3.8 l 2.75,-0.3 h 35.3 l 2.95,0.35 v -0.5 -0.45 l 0.05,-2.75 m -38.3,27.45 h 35.3 l 2.8,0.3 v -1.65 h -40.75 v 1.65 l 2.65,-0.3 m -2.65,5.25 v 18.3 h 0.25 v 0.1 l 13.15,-0.05 h 0.45 0.6 1.1 1.75 v 0.05 h 0.15 0.4 l 7.75,-0.05 h 1.6 l 13.15,0.05 0.05,-0.1 h 0.2 V 10.1 9.6 l 0.05,-0.9 0.05,-3.35 h 0.05 v -13.8 -1.6 -0.55 l -0.5,0.05 -2.3,0.15 h -35.3 l -2.65,-0.15 v 2.75 m 40.8,20.5 h -40.7 v 1.6 l 2.55,-0.25 h 35.3 l 2.85,0.3 V 12.7 m -1.1,3.9 -1.75,0.1 h -35.3 -0.2 L -114,16.65 h -0.05 l -1,-0.1 v 0.7 2.4 0.05 1 1.05 1 0.25 0.65 l -0.05,4.95 0.15,0.4 13.15,-0.05 h 0.45 0.6 1.1 1.75 V 29 h 0.15 0.4 l 7.75,-0.05 h 1.6 l 13.15,0.05 0.25,-0.5 0.05,-2.3 0.05,-2.55 V 23 h 0.05 V 22.75 20.7 19.35 l 0.05,-2.4 V 16.5 l -1.1,0.1 m 1.1,14.5 h -40.75 v 1.45 H -74.4 V 31.1"
         fill="#6b6b6b"
         fill-rule="evenodd"
         stroke="none"
         id="path16" />
      <path
         d="m 74.4,-40.65 41.05,0.15 -0.05,2.75 v 0.45 0.5 l -2.95,-0.35 h -35.3 l -2.75,0.3 v -3.8 m -1.65,-3.55 v 1.7 l 0.15,0.05 0.1,0.3 0.05,0.05 v 0.35 0.65 3.35 0.45 l -0.05,0.95 -0.6,0.35 0.15,0.35 -0.2,0.75 v 20.05 l 0.05,0.25 0.55,0.1 v 2.25 l -0.55,0.35 0.15,0.35 -0.2,0.75 v 23.05 l 0.05,0.25 0.5,0.1 v 2.3 l -0.5,0.3 0.15,0.35 -0.2,0.75 v 14.35 l 0.05,0.25 0.65,0.15 0.1,1.5 h -1.5 L 68.9,32.8 69.2,28.85 V 23.65 23 22.75 L 69.25,20.7 V 20.35 9.65 L 69.3,9.6 69.35,9.35 V -44.2 h 3.4 m 47.5,0 V 9.35 l 0.1,0.25 v 10.75 l 0.05,0.35 V 22.75 23 h 0.05 v 0.65 l -0.05,5.2 0.3,3.95 -2.75,-0.25 h -0.65 l 0.1,-8.9 -0.05,-51.4 v -1.5 l -0.05,-2.35 -0.05,-3.35 -0.05,-2.35 v -0.45 l -0.05,-3.35 v -0.05 -0.6 l -0.05,-2.45 h 3.15 M 74.4,-32.15 q 0.4,0.25 0.95,0.25 L 91.8,-31.95 V -32 h 5.9 0.35 1.5 l 15.15,-0.1 0.6,-0.35 v 1.05 l -0.05,2.15 v 1.2 h -0.05 v 0.5 h -0.05 v 0.65 0.2 1.7 1.7 l -0.05,5.4 v 0.6 0.3 l -0.25,0.5 -13.15,-0.05 h -1.6 -0.55 -1.5 -1.5 v 0.05 H 94.35 94.2 93.7 93.45 92.15 91.8 L 87.9,-16.55 74.75,-16.5 74.5,-17 v -0.3 -0.6 l -0.05,-5.4 v -1.7 -1.7 -0.3 -0.55 l -0.05,-4.6 m 0.1,24.35 0.55,0.1 22.65,-0.05 h 0.35 l 16.35,-0.1 0.85,-0.6 v 13.8 h -0.05 l -0.05,3.35 -0.05,0.9 v 0.5 0.4 h -0.2 l -0.05,0.1 -13.15,-0.05 h -1.6 -0.55 -1.5 -1.5 V 10.6 H 94.35 93.4 92.15 91.8 V 10.55 H 87.9 L 74.75,10.6 V 10.5 H 74.5 V -7.8 m 0.15,27.5 h 0.05 q 0.45,0.6 1.3,0.6 0.5,0 0.95,-0.4 l 1.8,-0.3 4,0.15 26.1,-0.05 6.35,-0.35 h 0.05 V 20.7 22.75 23 h -0.05 v 0.65 l -0.05,2.55 -0.05,2.3 -0.25,0.5 -13.15,-0.05 h -1.6 -0.55 -1.5 -1.5 V 29 H 94.35 93.5 92.15 91.8 V 28.95 H 87.9 L 74.75,29 74.6,28.6 74.65,23.65 V 23 v -0.25 -1 -1.05 -1 m -189.95,-51.85 0.95,0.25 16.45,-0.05 V -32 l 22.9,-0.1 0.6,-0.35 v 1.05 l -0.05,2.15 v 1.2 h -0.05 v 0.5 h -0.05 v 0.8 0.05 1.7 1.7 l -0.05,5.4 v 0.6 0.3 l -0.25,0.5 -13.15,-0.05 h -1.6 l -7.75,0.05 h -0.4 -0.15 -0.2 l -1.55,-0.05 h -1.1 -0.6 -0.45 l -13.15,0.05 -0.25,-0.5 v -0.3 -0.6 l -0.05,-5.4 v -1.7 -1.7 -0.3 -0.55 l -0.05,-4.6 m -5.05,-12.05 h 3.4 v 1.7 l 0.15,0.05 0.1,0.3 0.05,0.05 v 0.35 0.65 3.35 0.45 l -0.05,0.95 -0.6,0.35 0.15,0.35 -0.2,0.75 v 20.05 l 0.05,0.25 0.55,0.1 v 2.25 l -0.55,0.35 0.15,0.35 -0.2,0.75 v 23.05 l 0.05,0.25 0.5,0.1 v 2.3 l -0.5,0.3 0.15,0.35 -0.2,0.75 v 14.35 l 0.05,0.25 0.65,0.15 0.1,1.5 h -1.5 l -2.75,0.25 0.3,-3.95 V 23.65 23 22.75 l 0.05,-2.05 V 20.35 9.65 l 0.05,-0.05 0.05,-0.25 V -44.2 m 47.75,0 h 3.15 V 9.35 l 0.1,0.25 v 10.75 l 0.05,0.35 V 22.75 23 h 0.05 v 0.65 l -0.05,5.2 0.3,3.95 -2.75,-0.25 h -0.65 l 0.1,-8.9 -0.05,-51.4 v -1.5 l -0.05,-2.35 -0.05,-3.35 -0.05,-2.35 v -0.45 l -0.05,-3.35 v -0.05 -0.6 l -0.05,-2.45 m -1.65,3.7 -0.05,2.75 v 0.45 0.5 l -2.95,-0.35 h -35.3 l -2.75,0.3 v -3.8 l 41.05,0.15 m -40.95,32.7 0.55,0.1 39.35,-0.15 0.85,-0.6 v 13.8 h -0.05 l -0.05,3.35 -0.05,0.9 v 0.5 0.4 h -0.2 L -74.85,10.6 -88,10.55 h -1.6 l -7.75,0.05 h -0.4 -0.15 v -0.05 h -1.75 -1.1 -0.6 -0.45 l -13.15,0.05 v -0.1 h -0.25 V -7.8 m 0.15,27.5 h 0.05 q 0.45,0.6 1.3,0.6 0.5,0 0.95,-0.4 l 1.8,-0.3 4,0.15 26.1,-0.05 6.35,-0.35 h 0.05 V 20.7 22.75 23 h -0.05 v 0.65 L -74.55,26.2 -74.6,28.5 -74.85,29 -88,28.95 h -1.6 L -97.35,29 h -0.4 -0.15 v -0.05 h -1.75 -1.1 -0.6 -0.45 l -13.15,0.05 -0.15,-0.4 0.05,-4.95 V 23 v -0.25 -1 -1.05 -1"
         fill="#948383"
         fill-rule="evenodd"
         stroke="none"
         id="path17" />
      <path
         d="m 74.5,-12.75 v -1.65 h 40.75 v 1.65 l -2.8,-0.3 h -35.3 l -2.65,0.3 m 40.8,27.1 -2.85,-0.3 H 77.15 L 74.6,14.3 v -1.6 h 40.7 v 1.65 m 0,16.75 v 1.45 H 74.55 V 31.1 h 40.75 m -227.85,-44.15 -2.65,0.3 v -1.65 h 40.75 v 1.65 l -2.8,-0.3 h -35.3 M -74.4,12.7 v 1.65 l -2.85,-0.3 h -35.3 l -2.55,0.25 v -1.6 h 40.7 m 0,18.4 v 1.45 h -40.75 V 31.1 h 40.75"
         fill="#807171"
         fill-rule="evenodd"
         stroke="none"
         id="path18" />
      <path
         d="m 74.4,-40.65 v -1.2 L 74.8,-42 h 3.1 33.8 3.1 l 0.65,0.15 v 0.1 0.5 0.15 0.6 L 74.4,-40.65 m 40.9,8.2 -0.6,0.35 -15.15,0.1 h -1.5 -0.35 -5.9 v 0.05 l -16.45,0.05 q -0.55,0 -0.95,-0.25 v -2.55 l 2.75,0.2 h 35.3 l 2.6,-0.15 0.25,0.15 v 2.05 M 74.5,-7.8 v -2.75 l 2.65,0.15 h 35.3 l 2.3,-0.15 0.5,0.5 v 1.6 l -0.85,0.6 -16.35,0.1 H 97.7 L 75.05,-7.7 74.5,-7.8 m 39.7,24.4 1.1,0.35 -0.05,2.4 h -0.05 l -6.35,0.35 -26.1,0.05 -4,-0.15 -1.8,0.3 q -0.45,0.4 -0.95,0.4 -0.85,0 -1.3,-0.6 h -0.05 v -0.05 -2.4 -0.7 l 1,0.1 h 0.05 l 1.25,0.05 h 0.2 35.3 l 1.75,-0.1 M -74.4,-32.45 -75,-32.1 -97.9,-32 v 0.05 l -16.45,0.05 -0.95,-0.25 v -2.55 l 2.75,0.2 h 35.3 l 2.6,-0.15 0.25,0.15 v 2.05 m -40.9,-8.2 v -1.2 l 0.4,-0.15 h 3.1 33.8 3.1 l 0.65,0.15 v 0.1 0.5 0.15 0.6 l -41.05,-0.15 m 40.85,32.2 -0.85,0.6 -39.35,0.15 -0.55,-0.1 v -2.75 l 2.65,0.15 h 35.3 l 2.3,-0.15 0.5,0.5 v 1.6 m -1.05,25.05 1.1,0.35 -0.05,2.4 h -0.05 l -6.35,0.35 -26.1,0.05 -4,-0.15 -1.8,0.3 q -0.45,0.4 -0.95,0.4 -0.85,0 -1.3,-0.6 h -0.05 v -0.05 -2.4 -0.7 l 1,0.1 h 0.05 l 1.25,0.05 h 0.2 35.3 l 1.75,-0.1"
         fill="#ab9898"
         fill-rule="evenodd"
         stroke="none"
         id="path19" />
    </g>
    <g
       id="sprite1"
       transform="translate(5.4,4)">
      <use
         ffdec:characterId="43"
         height="8"
         transform="translate(-5.4,-4)"
         width="10.8"
         xlink:href="#shape3"
         id="use19" />
    </g>
    <g
       id="shape3"
       transform="translate(5.4,4)">
      <path
         d="m 2.9,-0.35 q 0,-1.25 1.25,-1.25 1.25,0 1.25,1.2 0,1.3 -1.25,1.3 Q 3.6,0.9 3.25,0.5 2.9,0.15 2.9,-0.35 m 0.35,-2.3 q 0,0.55 -0.35,0.9 -0.4,0.45 -1,0.45 -1.35,0 -1.35,-1.4 0,-1.3 1.35,-1.3 1.35,0 1.35,1.35 m -3.1,1.9 h 0.2 q 2.6,0.1 2.6,2.8 l -0.3,1 Q 2.05,4 0.45,4 H 0.35 0.15 0.1 -0.45 q -1.6,0 -2.2,-0.95 l -0.3,-1 q 0,-2.8 2.8,-2.8 h 0.3 M -1.55,-4 q 1.35,0 1.35,1.35 0,0.55 -0.4,0.9 -0.4,0.45 -0.95,0.45 -1.4,0 -1.4,-1.4 0,-1.3 1.4,-1.3 m -2.6,2.4 q 1.25,0 1.25,1.25 0,0.5 -0.35,0.85 -0.35,0.4 -0.9,0.4 -1.25,0 -1.25,-1.3 0,-1.2 1.25,-1.2"
         fill="#6b6b6b"
         fill-rule="evenodd"
         stroke="none"
         id="path20" />
    </g>
    <g
       id="shape4"
       transform="translate(81.2,-3.45)">
      <path
         d="m 74.8,3.55 0.1,-0.1 q 2.6,0.2 4.2,4.05 l 0.75,2.1 h 0.2 l 0.1,0.95 v 0.15 0.85 q 1.1,0.55 1.1,1.45 l -0.05,0.35 0.2,0.55 v 16.15 l -0.8,0.45 -0.65,0.3 q -0.35,0 -0.6,-0.3 h -3.9 l 0.15,1.7 v 1.9 q -0.35,1.7 -1.85,1.8 L 73.3,36.05 H -73.1 l -0.45,-0.15 q -1.5,-0.1 -1.85,-1.8 v -1.9 l 0.15,-1.7 h -3.9 q -0.25,0.3 -0.6,0.3 l -0.35,-0.05 -0.3,-0.25 q -0.55,-0.1 -0.8,-0.45 V 13.9 L -81,13.35 -81.05,13 q 0,-0.85 0.95,-1.4 l 0.15,-0.05 V 10.7 10.55 l 0.1,-0.95 h 0.25 l 0.7,-2.1 q 1.6,-3.85 4.2,-4.05 l 0.1,0.1 54.95,0.25 h 1.75 1.5 L -1.35,3.85 34.55,3.7 h 2.75 0.45 1.2 L 74.8,3.55 M 73.9,9 l 0.3,-0.35 0.75,0.95 0.3,0.5 0.1,0.4 v 0.3 0.1 0.3 h 0.25 1.05 l 0.2,-0.7 H 77 L 76.95,10.15 76.85,9.6 Q 76.5,8.4 75.65,7.25 L 75.6,7.15 74.75,6.1 -22.2,5.85 H -24 L -41.75,5.9 V 5.95 L -73.8,6.1 h -0.75 l -0.9,1.15 -0.35,0.6 -0.2,0.2 -0.1,0.25 -0.1,0.3 -0.2,0.45 v 0.1 l -0.2,0.45 -0.05,0.1 -0.1,0.4 0.1,0.4 0.2,0.7 h 0.25 1.05 v -0.3 -0.4 h 0.05 l 0.05,-0.4 0.35,-0.5 0.7,-0.95 q 0.45,0.3 0.5,0.95 v 0.1 0.35 l -0.05,0.45 h -0.05 l -0.1,0.7 38.7,0.05 h 8.6 0.15 8.35 1.5 14.75 36.2 L 73.9,11.2 73.85,10.5 h -0.1 L 73.7,9.7 V 9.6 L 73.9,9 m 4.1,8.2 0.3,-2.4 -104.7,-0.15 h -3.2 l -8.95,0.05 H -40 v 0.05 l -38.1,0.05 0.3,2.4 q 0.15,1.3 0.15,2.95 v 0.55 l -0.05,2.05 V 23 h -0.1 v 0.15 0.35 0.15 l -0.05,0.45 v 0.55 L -78.1,27.4 H 78.3 L 78.05,24.65 V 24.1 23.65 H 78 V 23.5 23.15 23 H 77.95 V 22.75 L 77.9,20.7 77.85,20.15 Q 77.85,18.5 78,17.2 M -71.2,33.5 H 71.4 v -0.3 l -0.1,-0.4 -0.05,-1.55 0.1,-0.75 h -142.5 l 0.1,0.75 -0.05,1.55 -0.1,0.4 v 0.3"
         fill="#6b6b6b"
         fill-rule="evenodd"
         stroke="none"
         id="path21" />
      <path
         d="M 75.35,10.8 V 10.5 L 75.25,10.1 74.95,9.6 74.2,8.65 73.9,9 73.7,8.65 73.1,8.7 H 34.55 L -16.4,8.55 -69.6,8.45 q -2.85,0 -3.65,1.15 l -0.25,0.45 V 9.7 9.6 Q -73.55,8.95 -74,8.65 l -0.7,0.95 -0.35,0.5 -0.05,0.4 h -0.05 v 0.4 0.3 h -1.05 l -0.35,-0.5 v -0.2 h -0.1 l 0.05,-0.4 -0.05,-0.3 V 9.7 l 0.05,-0.1 h 0.05 l 0.15,-0.45 v -0.1 l 0.2,-0.45 0.1,-0.3 0.1,-0.25 0.2,-0.2 q 0.7,-1.05 2,-1.75 L -41.75,5.95 V 5.9 L -24,5.85 h 1.8 l 96.95,0.25 0.85,1.05 0.05,0.1 q 0.85,1.15 1.2,2.35 l 0.1,0.55 0.05,0.35 h -0.15 l -0.2,0.7 H 75.6 l -0.25,-0.4"
         fill="#e9e9e9"
         fill-rule="evenodd"
         stroke="none"
         id="path22" />
      <path
         d="m 73.9,9 -0.2,0.6 v 0.1 l 0.05,0.8 h 0.1 l 0.05,0.7 -39.35,0.05 h -36.2 -14.75 -1.5 -8.35 -0.15 -8.6 l -38.7,-0.05 0.1,-0.7 h 0.05 l 0.05,-0.45 0.25,-0.45 q 0.8,-1.15 3.65,-1.15 l 53.2,0.1 50.95,0.15 H 73.1 L 73.7,8.65 73.9,9"
         fill="#cccccc"
         fill-rule="evenodd"
         stroke="none"
         id="path23" />
      <path
         d="m -77.8,17.2 q 0.85,0.65 2.65,0.55 L -5.2,17.7 h 0.65 0.7 2.1 l 36.3,0.05 h 40.8 q 1.8,0.1 2.65,-0.55 -0.15,1.3 -0.15,2.95 l 0.05,0.55 0.05,2.05 V 23 H 78 v 0.15 0.35 0.15 h 0.05 v 0.45 0.55 L 78.3,27.4 H -78.1 l 0.25,-2.75 V 24.1 l 0.05,-0.45 V 23.5 23.15 23 h 0.1 v -0.25 l 0.05,-2.05 v -0.55 q 0,-1.65 -0.15,-2.95"
         fill="#948383"
         fill-rule="evenodd"
         stroke="none"
         id="path24" />
      <path
         d="m -71.2,33.5 v -0.3 l 0.1,-0.4 0.05,-1.55 -0.1,-0.75 h 142.5 l -0.1,0.75 0.05,1.55 0.1,0.4 v 0.3 H -71.2"
         fill="#807171"
         fill-rule="evenodd"
         stroke="none"
         id="path25" />
      <path
         d="M -77.8,17.2 -78.1,14.8 -40,14.75 V 14.7 h 1.45 l 8.95,-0.05 h 3.2 L 78.3,14.8 78,17.2 q -0.85,0.65 -2.65,0.55 H 34.55 L -1.75,17.7 h -2.1 -0.7 -0.65 l -69.95,0.05 q -1.8,0.1 -2.65,-0.55"
         fill="#ab9898"
         fill-rule="evenodd"
         stroke="none"
         id="path26" />
    </g>
  </defs>
</svg>
