<?xml version="1.0" encoding="UTF-8" standalone="no"?>
<svg
   ffdec:objectType="frame"
   height="33.200001"
   width="29"
   version="1.1"
   id="svg12"
   sodipodi:docname="2.svg"
   xmlns:inkscape="http://www.inkscape.org/namespaces/inkscape"
   xmlns:sodipodi="http://sodipodi.sourceforge.net/DTD/sodipodi-0.dtd"
   xmlns:xlink="http://www.w3.org/1999/xlink"
   xmlns="http://www.w3.org/2000/svg"
   xmlns:svg="http://www.w3.org/2000/svg"
   xmlns:ffdec="https://www.free-decompiler.com/flash">
  <sodipodi:namedview
     id="namedview12"
     pagecolor="#ffffff"
     bordercolor="#000000"
     borderopacity="0.25"
     inkscape:showpageshadow="2"
     inkscape:pageopacity="0.0"
     inkscape:pagecheckerboard="0"
     inkscape:deskcolor="#d1d1d1"
     fit-margin-top="5"
     fit-margin-left="5"
     fit-margin-right="5"
     fit-margin-bottom="5" />
  <g
     transform="translate(14.5,18.65)"
     id="g3">
    <use
       ffdec:characterId="4181"
       height="9.25"
       transform="translate(-10.7,0.1)"
       width="21.35"
       xlink:href="#sprite0"
       id="use1" />
    <use
       ffdec:characterId="4182"
       height="33.25"
       transform="translate(-14.5,-18.65)"
       width="29"
       xlink:href="#shape1"
       id="use2" />
    <use
       ffdec:characterId="3500"
       height="8"
       transform="matrix(-0.5895,-0.6694,0.6291,-0.5293,10.8168,2.2823)"
       width="10.8"
       xlink:href="#sprite2"
       id="use3" />
  </g>
  <defs
     id="defs12">
    <g
       id="sprite0"
       transform="translate(10.7,4.1)">
      <use
         ffdec:characterId="4180"
         height="8.25"
         transform="translate(-10.7,-4.1)"
         width="21.35"
         xlink:href="#sprite1"
         id="use4" />
    </g>
    <g
       id="sprite1"
       transform="translate(10.7,4.1)">
      <use
         ffdec:characterId="4179"
         height="8.25"
         transform="translate(-10.7,-4.1)"
         width="21.35"
         xlink:href="#shape0"
         id="use5" />
    </g>
    <g
       id="shape0"
       transform="translate(10.7,4.1)">
      <path
         d="m 1.2,-2.75 0.3,0.95 -0.05,0.25 0.3,0.05 0.45,0.05 q 0.15,-0.7 0.95,-0.7 0.75,0 0.75,0.8 v 0.1 l 0.65,0.1 q 0.15,-0.55 0.9,-0.55 0.7,0 0.7,0.85 l 1.3,0.35 0.6,-0.7 q 1.05,-1.15 1.55,-1.15 0.55,0 0.65,0.65 l -0.2,0.5 -0.5,0.65 H 9.5 l 0.9,0.5 0.25,0.5 q 0,0.7 -0.8,0.7 L 9.4,1.05 10,1.75 9.85,2.25 9.4,2.55 7.8,1.75 7.05,1.2 6.95,0.8 6.1,0.65 q -0.1,2.4 -1,2.4 -0.7,0 -0.7,-0.8 L 4.6,0.4 3.85,0.3 3.6,1.5 3.8,1.9 3.35,2.85 3.15,3.15 q -0.4,0.8 -0.9,0.8 -0.7,0 -0.75,-0.85 V 2.6 L 1.55,1.7 1.75,1.3 1.95,0.3 2,0 1.1,-0.15 1.05,1.05 q -0.4,2.35 -1.35,2.8 -0.2,0.3 -0.55,0.3 -0.65,0 -0.75,-0.75 l -0.05,-0.9 0.35,-1.45 0.45,-1.3 0.1,-0.2 -1,-0.15 -0.05,0.25 V 0 q -0.25,3.7 -1.55,3.7 h -0.1 -0.15 q -1.2,-0.1 -1.2,-1 l 0.65,-1.8 0.45,-0.85 0.15,-0.45 0.2,-0.45 -0.35,-0.1 -0.7,-0.2 Q -5.15,2 -5.85,3.05 l -0.1,0.1 V 3.2 l -0.1,0.1 Q -6.3,3.65 -6.6,3.65 L -7.05,3.5 q -1.15,-0.3 -3,-2.35 l -0.65,-2.6 q 0,-0.85 0.75,-1.55 1.05,-0.85 3.25,-1.1 h 0.65 q 1.75,0 1.75,1 l -0.05,0.4 1.45,0.4 0.05,-0.3 q 0.2,-0.55 0.85,-0.55 0.7,0 0.6,0.85 v 0.25 l 1.25,0.2 0.2,-0.4 q 0.7,-0.95 1.15,-0.5 m -9.5,1.45 q -0.1,0.45 0.4,0.45 l 1.15,-0.35 0.1,0.55 q 0.15,0.55 0.5,0.55 l 0.35,-0.2 0.05,-0.2 q 0,-0.35 -0.35,-1 0.8,-0.35 0.8,-0.6 l -1.2,-0.1 -0.1,-0.2 q -0.85,-1.3 -0.85,-0.3 l 0.25,0.7 -1.1,0.7"
         fill="#6b6b6b"
         fill-rule="evenodd"
         stroke="none"
         id="path5" />
      <path
         d="M -8.3,-1.3 -7.2,-2 -7.45,-2.7 q 0,-1 0.85,0.3 l 0.1,0.2 1.2,0.1 q 0,0.25 -0.8,0.6 0.35,0.65 0.35,1 l -0.05,0.2 -0.35,0.2 q -0.35,0 -0.5,-0.55 l -0.1,-0.55 -1.15,0.35 q -0.5,0 -0.4,-0.45"
         fill="#999999"
         fill-rule="evenodd"
         stroke="none"
         id="path6" />
    </g>
    <g
       id="shape1"
       transform="translate(14.5,18.65)">
      <path
         d="m 4.65,-13.5 q 0,0.95 -0.7,1.65 l -0.3,0.25 1.5,0.2 q 0.35,0.25 0.35,1.6 v 1 l -0.15,0.4 h 8.95 v 0.35 L 14.5,-8 v 21 l -0.15,0.3 -0.05,0.4 v 0.45 q -0.3,0.4 -1.1,0.4 h -1.85 -22.7 -1.85 q -0.8,0 -1.1,-0.4 V 13.7 L -14.35,13.3 -14.5,13 V -8 l 0.2,-0.05 V -8.4 h 8.95 L -5.5,-8.8 v -1 q 0,-1.35 0.35,-1.6 l 1.5,-0.2 -0.3,-0.25 q -0.7,-0.7 -0.7,-1.65 0,-4.75 4.1,-5.1 v -0.05 h 0.4 0.3 0.4 v 0.05 q 4.1,0.35 4.1,5.1 m -4.1,-3.4 h -1.1 q -2.05,0 -2.05,2.45 l 0.2,1.05 q 0.4,0.55 1.7,0.7 h 1.4 q 1.3,-0.15 1.7,-0.7 l 0.2,-1.05 q 0,-2.45 -2.05,-2.45 L 0.1,-16.8 0,-16.85 0.55,-16.9 M 1.8,-9.5 0.55,-9.45 H -0.3 -0.55 -1.2 L -1.25,-8.4 H 1.8 v -1.1 m 0.55,1.1 H 3.3 v -0.5 l 0.05,-0.75 -1,0.1 v 0.45 0.7 m -0.8,3.65 0.05,-1.1 h -2.85 v 0.75 0.25 l 1.1,-0.05 1.7,0.3 v -0.15 m 1.9,0 -0.05,1 -0.2,0.4 v -0.1 h -5.55 l -0.1,-0.25 q -0.7,-0.25 -0.5,-1.4 l 0.05,-0.75 h -9.15 V 3.6 8.85 l -0.1,1.65 v 1.45 h 0.8 22.7 0.8 V 10.5 L 12.05,8.85 V 3.6 -5.85 H 3.4 l 0.05,1.1 M -3.3,-8.4 h 1.1 l -0.05,-1.1 -1.1,-0.15 0.05,0.75 v 0.5"
         fill="#6b6b6b"
         fill-rule="evenodd"
         stroke="none"
         id="path7" />
      <path
         d="m 0.55,-16.9 -0.55,0.05 0.1,0.05 0.45,-0.1 q 2.05,0 2.05,2.45 l -0.2,1.05 q -0.4,0.55 -1.7,0.7 h -1.4 q -1.3,-0.15 -1.7,-0.7 l -0.2,-1.05 q 0,-2.45 2.05,-2.45 h 1.1 m 1.25,7.4 v 1.1 h -3.05 l 0.05,-1.05 h 0.65 0.25 0.85 L 1.8,-9.5 m -0.25,4.75 v 0.15 l -1.7,-0.3 -1.1,0.05 V -5.1 -5.85 H 1.6 l -0.05,1.1"
         fill="#999999"
         fill-rule="evenodd"
         stroke="none"
         id="path8" />
      <path
         d="M 10.75,9.55 10.6,7.7 10.45,4 10.65,3.9 9.5,3.85 -1.15,6.15 -1.55,6.1 3.5,4.5 7.05,3.75 5.95,3.7 1.8,4.2 0,3.9 -1.3,3.6 -4.15,3.9 -6.9,4.2 -8.65,4.05 -9.7,4 -10.3,4.15 h -0.1 V 6.7 l -0.2,2.8 0.15,0.85 H 9.9 10.8 L 10.75,9.55 M 9.9,11.5 H -11 l -0.35,-0.15 -0.15,-0.45 0.05,-0.15 -0.05,-0.05 0.2,-1.65 0.05,-0.2 -0.3,-5.2 Q -11.55,3 -11,3 l 0.5,-0.1 0.2,0.05 0.4,-0.25 0.25,0.05 2.85,0.1 4.55,-0.3 q 2.3,-0.2 3.2,0.4 L 3.4,2.5 11,2.85 q 0.45,0.2 0.45,0.65 v 0.15 l 0.1,0.3 -0.15,5.55 -0.05,1.55 -0.1,0.15 -0.45,0.3 H 9.9 M -1.9,6.1 -3.95,6 -6,5.6 -8,5.35 -7.9,5.2 -5.8,5.45 -3.75,5.9 -1.9,6.1"
         fill="#777777"
         fill-rule="evenodd"
         stroke="none"
         id="path9" />
      <path
         d="m 7.1,-4.6 q 1.75,-0.1 1.75,0.8 0,0.7 -1.45,0.7 L 6.3,-3.25 Q 5.55,-3.4 5.35,-3.6 q 0,-0.9 1.75,-1 m 2.8,14.95 q 0.1,-0.7 0.85,-0.8 l 0.05,0.8 H 9.9 M 11.4,9.5 q 0.5,0.25 0.5,0.95 0,0.5 -0.4,0.9 -0.4,0.35 -0.9,0.35 L 9.9,11.5 h 0.9 l 0.45,-0.3 0.1,-0.15 L 11.4,9.5 M -10.55,-5.05 q 0.65,-0.5 2.7,-0.5 2,0 2.65,0.85 0.3,0.35 0.3,0.95 0,0.5 -0.15,0.85 -0.2,0.4 -0.55,0.7 -0.45,0.35 -1.2,0.55 l -2.85,-0.1 -0.4,-0.45 -0.35,-0.5 -0.1,-0.2 -0.45,-1.05 q 0,-0.8 0.4,-1.1"
         fill="#ffffff"
         fill-rule="evenodd"
         stroke="none"
         id="path10" />
      <path
         d="M 9.9,10.35 H -10.45 L -10.6,9.5 -10.4,6.7 V 4.15 h 0.1 L -9.7,4 -8.65,4.05 -6.9,4.2 -4.15,3.9 -1.3,3.6 0,3.9 1.8,4.2 5.95,3.7 7.05,3.75 3.5,4.5 -1.55,6.1 -1.15,6.15 9.5,3.85 10.65,3.9 10.45,4 10.6,7.7 10.75,9.55 Q 10,9.65 9.9,10.35 M -1.9,6.1 -3.75,5.9 -5.8,5.45 -7.9,5.2 -8,5.35 -6,5.6 -3.95,6 -1.9,6.1"
         fill="#cccccc"
         fill-opacity="0.501961"
         fill-rule="evenodd"
         stroke="none"
         id="path11" />
    </g>
    <g
       id="sprite2"
       transform="translate(5.4,4)">
      <use
         ffdec:characterId="43"
         height="8"
         transform="translate(-5.4,-4)"
         width="10.8"
         xlink:href="#shape2"
         id="use11" />
    </g>
    <g
       id="shape2"
       transform="translate(5.4,4)">
      <path
         d="m 2.9,-0.35 q 0,-1.25 1.25,-1.25 1.25,0 1.25,1.2 0,1.3 -1.25,1.3 Q 3.6,0.9 3.25,0.5 2.9,0.15 2.9,-0.35 m 0.35,-2.3 q 0,0.55 -0.35,0.9 -0.4,0.45 -1,0.45 -1.35,0 -1.35,-1.4 0,-1.3 1.35,-1.3 1.35,0 1.35,1.35 m -3.1,1.9 h 0.2 q 2.6,0.1 2.6,2.8 l -0.3,1 Q 2.05,4 0.45,4 H 0.35 0.15 0.1 -0.45 q -1.6,0 -2.2,-0.95 l -0.3,-1 q 0,-2.8 2.8,-2.8 h 0.3 M -1.55,-4 q 1.35,0 1.35,1.35 0,0.55 -0.4,0.9 -0.4,0.45 -0.95,0.45 -1.4,0 -1.4,-1.4 0,-1.3 1.4,-1.3 m -2.6,2.4 q 1.25,0 1.25,1.25 0,0.5 -0.35,0.85 -0.35,0.4 -0.9,0.4 -1.25,0 -1.25,-1.3 0,-1.2 1.25,-1.2"
         fill="#6b6b6b"
         fill-rule="evenodd"
         stroke="none"
         id="path12" />
    </g>
  </defs>
</svg>
