<?xml version="1.0" encoding="UTF-8" standalone="no"?>
<svg
   ffdec:objectType="frame"
   height="24.0375"
   width="25.443396"
   version="1.1"
   id="svg5"
   sodipodi:docname="2.svg"
   xmlns:inkscape="http://www.inkscape.org/namespaces/inkscape"
   xmlns:sodipodi="http://sodipodi.sourceforge.net/DTD/sodipodi-0.dtd"
   xmlns:xlink="http://www.w3.org/1999/xlink"
   xmlns="http://www.w3.org/2000/svg"
   xmlns:svg="http://www.w3.org/2000/svg"
   xmlns:ffdec="https://www.free-decompiler.com/flash">
  <sodipodi:namedview
     id="namedview5"
     pagecolor="#ffffff"
     bordercolor="#000000"
     borderopacity="0.25"
     inkscape:showpageshadow="2"
     inkscape:pageopacity="0.0"
     inkscape:pagecheckerboard="0"
     inkscape:deskcolor="#d1d1d1"
     fit-margin-top="5"
     fit-margin-left="5"
     fit-margin-right="5"
     fit-margin-bottom="5" />
  <g
     transform="translate(7.1933962,10.1875)"
     id="g2">
    <use
       ffdec:characterId="3825"
       height="24.1"
       transform="translate(-7.2,-10.2)"
       width="25.450001"
       xlink:href="#shape0"
       id="use1" />
    <use
       ffdec:characterId="3500"
       height="8"
       transform="matrix(-0.6585,0.2257,0.2257,0.6585,11.2531,5.7971)"
       width="10.8"
       xlink:href="#sprite0"
       id="use2" />
  </g>
  <defs
     id="defs5">
    <g
       id="shape0"
       transform="translate(7.2,10.2)">
      <path
         d="M -2.55,-2.1 -2.9,-2.4 q -3.5,-1.1 -3.75,-1.3 -1.2,-1 0.25,-2.45 1.45,-1.35 3.35,-0.05 l 2,1.55 0.9,-1.8 Q 1.3,-8.85 2.6,-9.1 l 1,-1.05 q 0.25,-0.15 0.75,0.3 L 4.75,-9 q 0.1,0.85 0.35,1.15 l 1.4,1.6 2.15,0.8 0.75,-0.05 0.55,0.05 0.5,1.05 0.05,0.25 0.55,0.5 q 0.65,0.55 1.45,0.65 1.3,0.05 2.4,-1.25 0.7,-0.8 1.3,-0.3 l 0.3,1.4 q 0.2,1.25 -0.1,1.85 l 0.7,4.15 q 2.3,1.95 0,4.7 Q 16.2,8.6 14.75,8.5 H 13.8 l -0.2,1.65 q -0.25,1.8 -0.8,2.4 -0.75,0.9 -2.3,0.75 L 8.95,12.85 6.6,13.1 4.05,13.5 -0.65,13.85 Q -1.95,13.7 -3.4,12.45 -5.15,10.95 -6.05,6.8 -7,2.2 -5,-0.15 l 2.45,-1.95 m 1.7,2.45 q -1,0.2 -2.2,1.65 -1.1,1.3 -0.15,4.7 0.8,3 1.5,3.6 1.55,1.3 5.15,0.65 L 10.6,10.35 11,8.8 q 0.2,-1.15 0.65,-1.65 1,-1.15 2,-1.3 L 14.95,5.45 15.3,4.9 Q 14.7,4.25 14.4,3.05 L 13.8,0.4 11.05,0.35 9.2,-0.9 Q 8.6,-1.45 8.6,-2.4 6.55,-0.7 4.3,-2.6 3,-3.7 2.75,-6.25 l -1.2,1.2 Q 0.7,-4.05 1,-3 q 0.45,0.7 0.2,1.3 0.05,0.55 -0.25,0.85 l -0.25,0.2 -0.2,0.4 q -0.35,0.4 -1.35,0.6 m 8.2,-4.15 -0.8,-0.5 -0.6,-0.4 -1.6,-1 -0.15,-0.15 q 0.3,1.55 1,2.15 L 7.35,-3.8 M 6.85,6.2 6,6.1 Q 3.95,4.35 5.75,2.3 7.55,0.35 9.6,2.05 l 0.2,0.4 Q 9.85,3.05 8.85,4.2 l -2,2 M 0.4,5.35 Q 0.3,2.4 1.65,3.55 L 1.9,5.35 3.95,5.1 3.9,5.85 2.1,6.45 Q 2.2,8.2 1.9,8.55 1.5,9.05 0.8,8.4 L 0.5,6.8 -0.8,6.85 -0.9,6.65 -0.95,6.45 Q -0.7,6.2 0.4,5.85 v -0.5"
         fill="#6b6b6b"
         fill-rule="evenodd"
         stroke="none"
         id="path2" />
      <path
         d="M 7.35,-3.8 5.2,-3.7 q -0.7,-0.6 -1,-2.15 l 0.15,0.15 1.6,1 0.6,0.4 0.8,0.5"
         fill="#cdcdcd"
         fill-rule="evenodd"
         stroke="none"
         id="path3" />
      <path
         d="m -0.85,0.35 q 1,-0.2 1.35,-0.6 l 0.2,-0.4 0.25,-0.2 Q 1.25,-1.15 1.2,-1.7 1.45,-2.3 1,-3 0.7,-4.05 1.55,-5.05 l 1.2,-1.2 Q 3,-3.7 4.3,-2.6 q 2.25,1.9 4.3,0.2 0,0.95 0.6,1.5 l 1.85,1.25 2.75,0.05 0.6,2.65 q 0.3,1.2 0.9,1.85 l -0.35,0.55 -1.3,0.4 q -1,0.15 -2,1.3 Q 11.2,7.65 11,8.8 l -0.4,1.55 -7.15,0.6 Q -0.15,11.6 -1.7,10.3 -2.4,9.7 -3.2,6.7 -4.15,3.3 -3.05,2 q 1.2,-1.45 2.2,-1.65 m 1.25,5 v 0.5 q -1.1,0.35 -1.35,0.6 l 0.05,0.2 0.1,0.2 L 0.5,6.8 0.8,8.4 Q 1.5,9.05 1.9,8.55 2.2,8.2 2.1,6.45 L 3.9,5.85 3.95,5.1 1.9,5.35 1.65,3.55 Q 0.3,2.4 0.4,5.35 m 6.45,0.85 2,-2 Q 9.85,3.05 9.8,2.45 L 9.6,2.05 Q 7.55,0.35 5.75,2.3 3.95,4.35 6,6.1 l 0.85,0.1"
         fill="#a68686"
         fill-rule="evenodd"
         stroke="none"
         id="path4" />
    </g>
    <g
       id="sprite0"
       transform="translate(5.4,4)">
      <use
         ffdec:characterId="43"
         height="8"
         transform="translate(-5.4,-4)"
         width="10.8"
         xlink:href="#shape1"
         id="use4" />
    </g>
    <g
       id="shape1"
       transform="translate(5.4,4)">
      <path
         d="m 2.9,-0.35 q 0,-1.25 1.25,-1.25 1.25,0 1.25,1.2 0,1.3 -1.25,1.3 Q 3.6,0.9 3.25,0.5 2.9,0.15 2.9,-0.35 m 0.35,-2.3 q 0,0.55 -0.35,0.9 -0.4,0.45 -1,0.45 -1.35,0 -1.35,-1.4 0,-1.3 1.35,-1.3 1.35,0 1.35,1.35 m -3.1,1.9 h 0.2 q 2.6,0.1 2.6,2.8 l -0.3,1 Q 2.05,4 0.45,4 H 0.35 0.15 0.1 -0.45 q -1.6,0 -2.2,-0.95 l -0.3,-1 q 0,-2.8 2.8,-2.8 h 0.3 M -1.55,-4 q 1.35,0 1.35,1.35 0,0.55 -0.4,0.9 -0.4,0.45 -0.95,0.45 -1.4,0 -1.4,-1.4 0,-1.3 1.4,-1.3 m -2.6,2.4 q 1.25,0 1.25,1.25 0,0.5 -0.35,0.85 -0.35,0.4 -0.9,0.4 -1.25,0 -1.25,-1.3 0,-1.2 1.25,-1.2"
         fill="#6b6b6b"
         fill-rule="evenodd"
         stroke="none"
         id="path5" />
    </g>
  </defs>
</svg>
