<?xml version="1.0" encoding="UTF-8" standalone="no"?>
<svg
   ffdec:objectType="frame"
   height="66.900002"
   width="144.19708"
   version="1.1"
   id="svg60"
   sodipodi:docname="2.svg"
   xmlns:inkscape="http://www.inkscape.org/namespaces/inkscape"
   xmlns:sodipodi="http://sodipodi.sourceforge.net/DTD/sodipodi-0.dtd"
   xmlns:xlink="http://www.w3.org/1999/xlink"
   xmlns="http://www.w3.org/2000/svg"
   xmlns:svg="http://www.w3.org/2000/svg"
   xmlns:ffdec="https://www.free-decompiler.com/flash">
  <sodipodi:namedview
     id="namedview60"
     pagecolor="#ffffff"
     bordercolor="#000000"
     borderopacity="0.25"
     inkscape:showpageshadow="2"
     inkscape:pageopacity="0.0"
     inkscape:pagecheckerboard="0"
     inkscape:deskcolor="#d1d1d1"
     fit-margin-top="5"
     fit-margin-left="5"
     fit-margin-right="5"
     fit-margin-bottom="5" />
  <g
     transform="translate(70.55,29.9)"
     id="g13">
    <use
       ffdec:characterId="397"
       height="40.849998"
       transform="translate(-56.7,-29.9)"
       width="109"
       xlink:href="#sprite0"
       id="use1" />
    <use
       ffdec:characterId="391"
       height="38.25"
       transform="matrix(-0.9178,0,0,0.8833,15.7,-20.45)"
       width="38"
       xlink:href="#sprite1"
       id="use2" />
    <use
       ffdec:characterId="288"
       height="48.799999"
       transform="matrix(0.9121,0.5068,-0.4752,0.7923,61.95,-22.7)"
       width="9.1999998"
       xlink:href="#sprite2"
       id="use3" />
    <use
       ffdec:characterId="359"
       height="16.5"
       transform="matrix(1.0826,0,0,1.042,63.2,-16)"
       width="9.6499996"
       xlink:href="#sprite3"
       id="use4" />
    <use
       ffdec:characterId="382"
       height="30.4"
       transform="matrix(-0.5312,-0.137,-0.1423,0.5113,65.2,-21.9)"
       width="33.049999"
       xlink:href="#sprite4"
       id="use5" />
    <use
       ffdec:characterId="288"
       height="48.799999"
       transform="matrix(1.0532,0,0,0.9148,-59.15,-27.05)"
       width="9.1999998"
       xlink:href="#sprite2"
       id="use6" />
    <use
       ffdec:characterId="393"
       height="34.599998"
       transform="matrix(-0.993,0,0,0.9557,27.4884,-27.599)"
       width="36.799999"
       xlink:href="#sprite5"
       id="use7" />
    <use
       ffdec:characterId="393"
       height="34.599998"
       transform="matrix(-0.993,0,0,0.9557,4.0384,-27.599)"
       width="36.799999"
       xlink:href="#sprite5"
       id="use8" />
    <use
       ffdec:characterId="366"
       height="33.400002"
       transform="matrix(-1.2597,0,0,1.2124,19.75,-29.1)"
       width="35.400002"
       xlink:href="#sprite6"
       id="use9" />
    <use
       ffdec:characterId="353"
       height="9.5500002"
       transform="matrix(-0.8694,0,0,0.8368,-33.25,-20.45)"
       width="9.5"
       xlink:href="#sprite8"
       id="use10" />
    <use
       ffdec:characterId="355"
       height="10.8"
       transform="matrix(-0.8694,0,0,0.8368,39.5,-21.25)"
       width="11.25"
       xlink:href="#sprite9"
       id="use11" />
    <use
       ffdec:characterId="398"
       height="48.650002"
       transform="translate(-70.55,-11.65)"
       width="140.25"
       xlink:href="#shape11"
       id="use12" />
    <use
       ffdec:characterId="44"
       height="8"
       transform="matrix(0.5916,-0.8062,-0.8062,-0.5916,-59.6697,5.5199)"
       width="10.8"
       xlink:href="#sprite10"
       id="use13" />
  </g>
  <defs
     id="defs60">
    <g
       id="sprite0">
      <use
         ffdec:characterId="396"
         height="40.849998"
         width="109"
         xlink:href="#shape0"
         id="use14" />
    </g>
    <g
       id="shape0">
      <path
         d="m 97.05,9.7 q -0.7,0.9 -0.9,1.55 l 1.25,0.25 v 0.45 l -0.2,0.25 -0.55,0.1 h -0.7 l -0.4,2.1 -0.15,0.95 v 0.15 h 3.15 l 0.35,-0.2 v -0.05 l 0.55,-0.1 0.55,0.1 0.1,0.5 0.05,0.55 -0.35,0.3 v 3.8 l 0.6,-0.25 3.8,-2.15 V 8.6 L 100.55,6.55 Q 100.2,6.65 100,6.85 L 99.65,7.2 99.45,7.15 98.3,8.2 97.75,8.85 Q 98.9,9.55 98.9,10 l -0.05,0.45 -0.1,0.1 -0.2,0.05 -0.8,-0.5 Q 97.35,9.75 97.25,9.75 L 97.05,9.7 m 0.65,15.85 -0.45,0.2 -0.55,0.7 0.65,0.7 q 0.7,0.6 1.6,0.85 0.35,-0.9 0.8,-1.45 l 0.3,0.1 -0.15,1.6 0.85,0.05 0.6,-0.1 -0.25,-1 0.2,-0.9 0.4,-0.4 q 0.5,0.7 0.65,2.1 l 1.65,-0.4 1.1,-0.25 V 22.7 l -0.35,-0.2 -1.55,0.85 -5.5,2.2 M 6.6,3.2 12.1,1 Q 14.2,0.2 17.3,0.05 L 22.3,0 h 1.6 9.95 2.4 0.8 l 5.4,0.05 q 3.1,0.15 5.2,0.95 l 5.5,2.2 1.8,1.1 q 0.8,-0.6 1.7,-1.05 l 5.5,-2.2 q 2.1,-0.8 5.2,-0.95 l 5,-0.05 h 1.6 9.95 2.4 0.8 l 5.4,0.05 q 3.1,0.15 5.2,0.95 l 5.5,2.2 q 3.15,1.55 4.9,4.45 v 11.2 l -0.6,0.95 1.5,1.95 V 33 q -1.75,2.9 -4.9,4.45 l -5.5,2.2 q -2.1,0.8 -5.2,0.95 l -5,0.05 h -1.6 -9.95 -2.4 -0.8 l -5.4,-0.05 q -3.1,-0.15 -5.2,-0.95 l -5.5,-2.2 q -1.65,-0.8 -2.95,-2 -1.35,1.3 -3.15,2.2 l -5.5,2.2 q -2.1,0.8 -5.2,0.95 l -5,0.05 H 34.15 24.2 21.8 21 L 15.6,40.8 Q 12.5,40.65 10.4,39.85 L 4.9,37.65 Q 1.75,36.1 0,33.2 V 22 Q 0.85,20.55 2.1,19.45 L 1.7,18.85 V 7.65 Q 3.45,4.75 6.6,3.2 m 61.6,15.4 v 4.05 L 70.05,22.8 69.95,18 70,16.35 V 16.2 15.95 q 0.1,-0.8 0.7,-0.8 l 0.6,0.6 1.4,-0.25 h 2.65 q 0.25,-0.65 0.95,-1.25 l 0.35,0.85 0.1,0.4 h 1.95 l 0.05,-0.35 q 0.15,-0.45 0.65,-1 l 0.2,-0.25 0.2,0.25 0.4,1.25 v 0.1 h 5.75 l 0.1,-1.35 q 0.1,-0.45 0.45,-0.45 l 0.55,0.45 0.1,0.1 v 1.25 h 3.25 q 0.05,-0.75 0.4,-1.35 l 0.5,-0.65 h 0.35 l 0.25,0.65 V 15.5 H 94 L 93.95,14.25 V 13.8 q 0,-1.05 0.3,-2.05 l -0.8,-0.5 q 0.2,-0.4 1.1,-0.4 0.5,-1.2 1.4,-2.3 L 95.8,7.95 96.35,8.1 97.15,7.25 98.9,5.8 Q 97.15,5.05 95.45,4.6 l -0.4,-0.1 -0.2,3.3 V 7.85 L 94.35,8.2 94.2,8.35 V 8.2 l -1.5,0.25 h -1.15 q -0.1,0.85 -0.4,1.3 l -0.6,0.6 L 90.2,10.3 90.25,10.2 90.1,8.45 H 90.05 L 88.2,8.4 88,11.65 v 0.2 l -0.05,0.1 -0.45,0.45 -0.35,-0.05 -1.2,0.2 H 83.6 L 79.8,12.4 h -0.5 l -0.05,0.8 q -0.15,0.3 -0.65,0.3 -0.65,0 -0.7,-0.85 V 12.4 h -2.5 l -0.15,0.35 -0.75,1.4 -0.05,0.05 -0.35,-0.15 0.2,-1.65 h -3.8 l -0.15,0.15 -0.4,0.1 -0.8,-0.75 v -3 H 68.5 L 67.6,8.85 66.6,8.2 q 0.15,-0.55 0.75,-0.55 l 1.8,0.15 v -2 l -2,-0.25 Q 67.1,5.05 68,4.95 L 69.15,4.9 v -1 L 64.4,4.6 q -3.1,0.8 -6.55,2.7 l -2.2,1.3 v 3.5 q 0.95,-0.45 2.15,-0.6 h 0.25 l 0.3,-0.05 q 0.05,-0.7 0.35,-1.05 l 0.4,1 2,-0.1 q 0.4,-1.75 0.85,-2.25 0.55,0.15 0.55,0.7 l -0.25,1.55 q 1.15,0 3.1,1.8 l 0.95,-0.25 q 0.35,0 0.4,0.15 l 0.05,0.3 -0.55,0.75 0.25,0.3 1,1.4 Q 67.8,15.6 68.2,15.4 l 0.4,0.1 0.1,0.3 -0.85,0.8 0.35,1.6 v 0.4 M 84.9,3.8 85,7.15 86.55,6.95 90.05,6.9 h 0.35 q 0.15,-0.65 0.5,-0.65 l 0.6,0.2 0.05,0.4 2.4,0.2 Q 93.55,5.15 93.5,4.2 L 87.05,3.75 H 86.3 V 3.8 H 84.9 M 74.15,3.75 h -1.8 L 70.8,3.8 v 1.25 l 0.9,0.4 -0.9,0.25 V 8.25 L 71,8.4 70.8,8.5 v 2.35 h 3.8 L 75,9.9 l 0.4,0.6 0.05,0.35 h 2.65 l 0.2,-1.35 0.25,0.05 0.55,0.75 0.15,0.55 4.4,-0.05 h 2.2 l 1.05,0.1 Q 86.8,9.05 86.95,8.3 H 86.9 L 84.85,8.05 84.7,8.15 84.2,8.35 83.5,7.7 V 3.8 L 74.15,3.75 m -2.9,19.1 h 1.1 1.55 0.25 0.35 9.4 0.2 1 0.15 1.05 0.75 l 2.4,-0.05 1.35,-0.05 1.8,-0.2 1.7,-0.3 1.15,-0.25 2.9,-0.95 V 16.9 l -3.45,0.15 -0.3,0.2 -0.4,-0.1 V 17.1 h -2.45 l -0.1,0.3 -0.55,0.4 -0.4,-0.05 -0.1,-0.1 -0.05,-0.55 h -3.5 l -0.2,0.75 -0.35,1.05 -0.25,-1.05 -0.15,-0.8 h -6.05 l -0.3,0.55 -0.5,0.2 -0.35,-0.8 -2.05,-0.05 -0.15,0.9 -0.55,1.05 -0.6,-1.05 -0.35,-0.95 -3.85,-0.2 -0.1,6.15 m 15.85,3.7 h -0.65 l 0.2,0.1 -0.2,1.65 h 3.8 l 0.15,-0.15 0.4,-0.1 0.8,0.75 v 3 h 0.65 l 0.9,0.05 q 0.4,0.1 1,0.65 Q 94,33.05 93.4,33.05 L 91.6,32.9 v 2 l 2,0.25 q 0.05,0.5 -0.85,0.6 L 91.6,35.8 v 1 l 4.75,-0.7 q 4.1,-1.05 8.75,-4 v -3.5 l -2.15,0.6 -0.55,0.05 -0.35,1.05 -0.4,-1 -2,0.1 -0.85,2.25 Q 98.25,31.5 98.25,30.95 L 98.5,29.4 q -1.15,0 -3.1,-1.8 l -0.95,0.25 -0.4,-0.15 -0.05,-0.3 0.55,-0.75 -0.25,-0.3 -1.8,0.15 -5.4,0.05 m -0.5,10.4 h 1.8 l 1.55,-0.05 v -1.25 q -0.55,-0.1 -0.9,-0.4 L 89.95,35 v -2.55 l -0.2,-0.15 0.2,-0.1 v -2.35 h -3.8 l -0.4,0.95 -0.4,-0.6 -0.05,-0.35 H 82.65 L 82.45,31.2 82.2,31.15 Q 81.75,30.75 81.65,30.4 L 81.5,29.85 77.1,29.9 h -2.2 l -1.05,-0.1 -0.05,2.6 h 0.05 l 2.05,0.25 0.15,-0.1 0.5,-0.2 0.7,0.65 v 3.9 l 9.35,0.05 M 67.35,26.5 H 66.8 v 0.4 l -0.3,2.05 0.8,0.5 q -0.2,0.4 -1.1,0.4 l -1.4,2.3 0.15,0.6 -0.55,-0.15 -0.8,0.85 -1.75,1.45 3.45,1.2 0.4,0.1 q 0.05,-2.85 0.2,-3.3 v -0.05 l 0.5,-0.35 0.15,-0.15 v 0.15 l 1.5,-0.25 h 1.15 q 0.1,-0.85 0.4,-1.3 0.25,-0.6 0.6,-0.6 l 0.35,0.05 -0.05,0.1 0.15,1.75 h 0.05 l 1.85,0.05 q 0.05,-2.4 0.2,-3.25 v -0.2 l 0.05,-0.1 q 0.1,-0.45 0.45,-0.45 l 0.35,0.05 1.2,-0.2 h 2.35 l 3.8,0.15 h 0.5 l 0.05,-0.8 q 0.15,-0.3 0.65,-0.3 0.65,0 0.7,0.85 v 0.25 h 2.5 L 85.5,27.95 Q 85.85,27 86.25,26.55 H 83.9 81.4 l -0.25,0.25 -0.2,-0.25 h -6.2 l -0.5,0.45 -0.5,-0.45 h -1.4 -2.4 l -0.5,0.65 H 69.1 L 68.9,26.55 67.35,26.5 m -0.65,-4.05 -0.05,-3.5 -0.2,-0.5 -0.3,-0.7 -0.95,0.4 q -0.65,0 -0.85,-0.5 0.3,-0.45 1.25,-1 l -0.8,-1.45 -0.95,0.6 -0.5,-0.05 -0.15,-0.25 0.35,-0.5 0.5,-0.75 -0.65,-0.7 q -0.7,-0.6 -1.6,-0.85 l -0.8,1.45 -0.3,-0.1 q -0.15,-0.45 0.15,-1.6 L 60,12.4 l -0.6,0.1 0.25,1 -0.2,0.9 -0.4,0.4 q -0.5,-0.7 -0.65,-2.1 l -0.35,0.1 -1.3,0.3 -1.1,0.25 V 18 q 2.45,1.55 4.75,2.6 l 0.55,0.25 1.45,0.55 2,0.6 2.3,0.45 M 51.75,7.7 52.05,7.3 49.75,6.15 v 3.8 l 0.35,0.3 -0.15,1.05 -0.55,0.1 -0.55,-0.1 -0.35,-0.25 h -3.15 v 0.15 l 0.55,3.05 h 0.7 l 0.55,0.1 0.2,0.25 v 0.45 l -1.25,0.25 0.05,0.15 0.85,1.4 0.2,-0.05 0.5,-0.35 0.4,-0.25 0.4,-0.25 0.2,0.05 0.1,0.1 0.05,0.4 v 0.05 q 0,0.45 -1.15,1.15 l 0.55,0.65 1.15,1.05 0.2,-0.05 0.35,0.35 0.55,0.3 1.45,-0.75 -0.2,-0.35 V 7.7 m -30.55,-4 0.1,6.15 3.85,-0.2 q 0.2,-0.95 0.95,-2 0.55,0.65 0.7,1.95 l 2.05,-0.05 0.35,-0.8 0.5,0.2 0.3,0.55 h 6.05 L 36.45,7.65 36.8,8.7 37,9.45 h 3.5 l 0.05,-0.55 0.1,-0.1 0.4,-0.05 q 0.45,0 0.55,0.4 l 0.1,0.3 h 2.45 V 9.4 l 0.4,-0.1 0.3,0.2 3.45,0.15 V 5.5 Q 46.8,4.9 45.4,4.55 42.05,3.7 37,3.7 h -0.75 -1.2 -1.2 -9.75 -1.8 -1.1 m -3.05,4.25 -0.35,2 0.85,0.8 -0.1,0.3 -0.4,0.1 -0.75,-0.35 -1.25,1.7 0.55,0.75 -0.05,0.3 -0.4,0.15 -0.95,-0.25 -1.3,1.1 q -1.05,0.7 -1.8,0.7 l 0.25,1.55 q 0,0.55 -0.55,0.7 Q 11.45,17 11.05,15.25 H 10.7 l -1.65,-0.1 -0.3,0.9 -0.1,0.1 L 8.6,16.1 8.3,15.1 7.75,15.05 5.6,14.45 v 3.5 q 1.9,1.2 3.75,2.1 1.95,0.95 3.85,1.55 l 1.15,0.35 4.75,0.7 v -1 L 17.95,21.6 Q 17.05,21.5 17.1,21 l 0.5,-0.1 1.5,-0.15 v -2 l -1.8,0.15 q -0.6,0 -0.75,-0.55 l 0.15,-0.1 q 0.5,-0.45 0.85,-0.55 l 0.9,-0.05 h 0.65 v -3 l 0.25,-0.3 q 0.4,-0.45 0.55,-0.45 l 0.4,0.1 0.15,0.15 h 3.8 l -0.2,-1.65 0.35,-0.15 0.8,1.45 0.15,0.35 h 2.5 V 13.9 q 0.05,-0.85 0.7,-0.85 0.5,0 0.65,0.3 l 0.05,0.8 h 0.5 L 33.55,14 h 2.35 l 1.2,0.2 0.35,-0.05 0.35,0.2 0.1,0.25 0.05,0.1 v 0.2 l 0.2,3.25 L 40,18.1 h 0.05 l 0.15,-1.75 -0.05,-0.1 0.35,-0.05 0.6,0.6 0.4,1.3 h 1.15 l 1.5,0.25 V 18.2 l 0.15,0.15 0.5,0.35 v 0.05 l 0.1,0.5 0.1,2.8 0.4,-0.1 3.35,-1.15 0.1,-0.05 L 47.1,19.3 46.3,18.45 45.75,18.6 45.9,18 44.5,15.7 q -0.9,0 -1.1,-0.4 0.4,-0.3 0.75,-0.45 L 44.2,14.8 q -0.3,-1 -0.3,-2.05 l 0.05,-1.7 h -2.1 v 1.25 l -0.25,0.75 h -0.35 q -0.8,-0.75 -0.9,-2 H 37.1 v 1.25 l -0.65,0.55 q -0.7,0 -0.55,-1.8 h -5.75 v 0.1 l -0.6,1.5 L 28.7,11.4 28.65,11.05 H 26.7 l -0.1,0.4 -0.35,0.85 q -0.7,-0.6 -0.95,-1.25 h -2.65 l -1.4,-0.25 -0.6,0.6 q -0.6,0 -0.7,-0.8 V 10.35 10.2 L 20,3.75 18.15,3.9 v 4.05 m 16.7,14.8 h 1.4 V 22.8 H 37 37.3 l 4.1,-0.2 2.05,-0.25 Q 43.5,21.4 43.9,19.5 l -2.4,0.2 -0.05,0.4 q -0.05,0.2 -0.6,0.2 l -0.4,-0.35 -0.1,-0.3 H 40 L 36.6,19.6 h -0.1 l -1.55,-0.2 -0.1,3.35 m 21.8,0.6 -0.1,-0.05 v 8.8 l 3.65,2.05 0.55,-0.3 0.35,-0.35 0.2,0.05 1.15,-1.05 0.55,-0.65 q -1.15,-0.7 -1.15,-1.15 l 0.05,-0.45 0.1,-0.1 0.2,-0.05 0.8,0.5 0.5,0.35 0.2,0.05 0.9,-1.55 -1.25,-0.25 v -0.45 l 0.2,-0.25 0.55,-0.1 h 0.7 l 0.4,-2.1 -3.05,-0.75 -0.25,-0.1 h -0.05 l -0.55,0.1 -0.55,-0.1 -0.1,-0.5 -4,-1.6 M 41.4,36.75 43.7,36.3 q 4.1,-1.05 8.75,-4 V 27.65 L 51.35,27.4 49.7,27 q -0.15,1.4 -0.65,2.1 l -0.4,-0.4 q -0.2,-0.25 -0.2,-0.9 l 0.25,-1 -0.6,-0.1 -0.85,0.05 0.15,1.6 -0.3,0.1 L 46.3,27 q -0.9,0.25 -1.6,0.85 l -0.65,0.7 0.85,1.25 -0.15,0.25 -0.5,0.05 q -0.15,0 -0.95,-0.6 l -0.8,1.45 1.25,1 q -0.2,0.5 -0.85,0.5 l -0.95,-0.4 -0.5,1.2 -0.05,3.5 m 6.25,-11.25 -0.25,0.1 1.6,0.1 0.35,-0.85 -1.7,0.65 m 2.1,0.25 0.55,0.05 2.15,0.6 v -2.8 q -1.75,0.65 -3,1.2 l 0.3,0.95 m -7.3,0.7 -3.75,0.05 -0.55,0.45 -0.4,-0.1 L 37.6,26.7 H 33.8 L 34,28.35 33.65,28.5 Q 33.2,28.05 32.85,27.05 L 32.7,26.7 h -2.5 v 0.25 q -0.05,0.85 -0.7,0.85 -0.5,0 -0.65,-0.3 L 28.8,26.7 h -0.5 l -3.8,0.15 h -2.35 l -1.2,-0.2 -0.35,0.05 q -0.25,0 -0.35,-0.2 l -2.95,-0.05 -3.4,-0.4 h -0.05 l 0.3,2.05 -0.05,1.7 h 2.1 v -1.25 l 0.25,-0.75 h 0.35 q 0.8,0.75 0.9,2 h 3.25 V 28.55 L 21.6,28 q 0.7,0 0.55,1.8 h 5.75 v -0.1 q 0.25,-1.2 0.6,-1.5 l 0.85,1.25 0.05,0.35 h 1.95 l 0.1,-0.4 q 0.2,-0.75 0.35,-0.85 l 0.95,1.25 h 2.65 l 1.4,0.25 0.6,-0.6 q 0.6,0 0.7,0.8 v 0.25 0.15 L 38.05,37.1 39.9,36.95 V 32.9 q 0,-0.95 0.35,-2 l -0.85,-0.8 0.1,-0.3 0.4,-0.1 0.75,0.35 1.25,-1.7 -0.55,-0.75 0.05,-0.3 0.4,-0.15 0.95,0.25 1.35,-1.05 -1.65,0.1 m 33.4,10.45 -0.1,-3.35 -1.55,0.2 -3.5,0.05 h -0.35 q -0.15,0.65 -0.5,0.65 -0.55,0 -0.6,-0.2 l -0.05,-0.4 -2.4,-0.2 0.45,2.85 6.45,0.45 h 0.75 V 36.9 h 1.4 M 24.1,22.8 33.45,22.75 v -3.9 l 0.7,-0.65 0.5,0.2 0.15,0.1 2.05,-0.25 H 36.9 V 18.1 q -0.15,-0.8 -0.05,-2.45 l -1.05,0.1 H 33.6 L 29.2,15.7 29.05,16.25 28.5,17 28.25,17.05 28.05,15.7 H 25.4 l -0.05,0.35 -0.4,0.6 -0.4,-0.95 h -3.8 v 2.35 l 0.2,0.1 -0.2,0.15 v 2.55 l 0.9,0.25 -0.2,0.15 -0.7,0.25 v 1.25 l 0.45,0.05 h 1.1 1.8 M 16.65,4.1 14.35,4.55 q -4.1,1.05 -8.75,4 v 4.65 l 1.1,0.25 1.65,0.4 Q 8.5,12.45 9,11.75 l 0.4,0.4 0.2,0.9 -0.25,1 0.6,0.1 0.85,-0.05 q -0.3,-1.15 -0.15,-1.6 l 0.3,-0.1 0.8,1.45 Q 12.65,13.6 13.35,13 L 14,12.3 13.15,11.05 13.3,10.8 l 0.5,-0.05 0.95,0.6 0.8,-1.45 -1.25,-1 Q 14.5,8.4 15.15,8.4 L 16.1,8.8 16.6,7.6 16.65,4.1 M 6.6,23.3 l -1.7,-1 -1,0.6 v 9.4 l 4.4,2.4 V 30.9 L 7.95,30.6 8.1,29.55 8.65,29.45 9.2,29.55 9.55,29.8 H 12.7 V 29.65 L 12.15,26.6 h -0.7 L 10.9,26.5 10.7,26.25 V 25.8 L 11.95,25.55 11.9,25.45 10,24.65 9.55,24.9 9.35,24.85 9.25,24.75 9.2,24.35 6.6,23.3 M 36.85,37.15 36.75,31 32.9,31.2 q -0.2,0.95 -0.95,2 -0.55,-0.65 -0.7,-1.95 l -2.05,0.05 -0.35,0.8 -0.5,-0.2 -0.3,-0.55 H 22 l -0.4,1.85 -0.35,-1.05 -0.2,-0.75 h -3.5 l -0.05,0.55 -0.1,0.1 -0.4,0.05 q -0.45,0 -0.55,-0.4 l -0.1,-0.3 H 13.9 v 0.05 l -0.4,0.1 -0.3,-0.2 -3.45,-0.15 v 4.15 l 2.9,0.95 8.4,0.85 h 0.75 1.2 1.2 9.75 1.8 1.1"
         fill="#9a9a9a"
         fill-rule="evenodd"
         stroke="none"
         id="path14" />
      <path
         d="m 97.7,25.55 5.5,-2.2 1.55,-0.85 0.35,0.2 v 4.65 L 104,27.6 102.35,28 q -0.15,-1.4 -0.65,-2.1 l -0.4,0.4 -0.2,0.9 0.25,1 -0.6,0.1 -0.85,-0.05 0.15,-1.6 -0.3,-0.1 q -0.45,0.55 -0.8,1.45 -0.9,-0.25 -1.6,-0.85 l -0.65,-0.7 0.55,-0.7 0.45,-0.2 M 68.2,18.6 v -0.4 l -0.35,-1.6 0.85,-0.8 -0.1,-0.3 -0.4,-0.1 q -0.4,0.2 -0.75,0.35 l -1,-1.4 L 66.2,14.05 66.75,13.3 66.7,13 Q 66.65,12.85 66.3,12.85 L 65.35,13.1 Q 63.4,11.3 62.25,11.3 L 62.5,9.75 q 0,-0.55 -0.55,-0.7 -0.45,0.5 -0.85,2.25 l -2,0.1 -0.4,-1 q -0.3,0.35 -0.35,1.05 l -0.3,0.05 H 57.8 q -1.2,0.15 -2.15,0.6 V 8.6 l 2.2,-1.3 Q 61.3,5.4 64.4,4.6 l 4.75,-0.7 v 1 L 68,4.95 q -0.9,0.1 -0.85,0.6 l 2,0.25 v 2 l -1.8,-0.15 q -0.6,0 -0.75,0.55 l 1,0.65 0.9,0.05 h 0.65 v 3 l 0.8,0.75 0.4,-0.1 0.15,-0.15 h 3.8 l -0.2,1.65 0.35,0.15 0.05,-0.05 0.75,-1.4 0.15,-0.35 h 2.5 v 0.25 q 0.05,0.85 0.7,0.85 0.5,0 0.65,-0.3 l 0.05,-0.8 h 0.5 l 3.8,0.15 h 2.35 l 1.2,-0.2 0.35,0.05 0.45,-0.45 0.05,-0.1 v -0.2 l 0.2,-3.25 1.85,0.05 h 0.05 l 0.15,1.75 -0.05,0.1 0.35,0.05 0.6,-0.6 q 0.3,-0.45 0.4,-1.3 H 92.7 L 94.2,8.2 V 8.35 L 94.35,8.2 94.85,7.85 V 7.8 l 0.2,-3.3 0.4,0.1 q 1.7,0.45 3.45,1.2 l -1.75,1.45 -0.8,0.85 -0.55,-0.15 0.15,0.6 q -0.9,1.1 -1.4,2.3 -0.9,0 -1.1,0.4 l 0.8,0.5 q -0.3,1 -0.3,2.05 v 0.45 L 94,15.5 H 91.9 V 14.15 L 91.65,13.5 H 91.3 l -0.5,0.65 q -0.35,0.6 -0.4,1.35 h -3.25 v -1.25 l -0.1,-0.1 -0.55,-0.45 q -0.35,0 -0.45,0.45 l -0.1,1.35 H 80.2 v -0.1 l -0.4,-1.25 -0.2,-0.25 -0.2,0.25 q -0.5,0.55 -0.65,1 L 78.7,15.5 h -1.95 l -0.1,-0.4 -0.35,-0.85 q -0.7,0.6 -0.95,1.25 H 72.7 l -1.4,0.25 -0.6,-0.6 q -0.6,0 -0.7,0.8 v 0.25 0.15 L 69.95,18 70.05,22.8 68.2,22.65 V 18.6 m 18.9,7.95 5.4,-0.05 1.8,-0.15 0.25,0.3 -0.55,0.75 0.05,0.3 0.4,0.15 0.95,-0.25 q 1.95,1.8 3.1,1.8 l -0.25,1.55 q 0,0.55 0.55,0.7 l 0.85,-2.25 2,-0.1 0.4,1 0.35,-1.05 0.55,-0.05 2.15,-0.6 v 3.5 q -4.65,2.95 -8.75,4 l -4.75,0.7 v -1 l 1.15,-0.05 q 0.9,-0.1 0.85,-0.6 l -2,-0.25 v -2 l 1.8,0.15 q 0.6,0 0.75,-0.55 -0.6,-0.55 -1,-0.65 L 92.25,31.8 H 91.6 v -3 l -0.8,-0.75 -0.4,0.1 -0.15,0.15 h -3.8 l 0.2,-1.65 -0.2,-0.1 h 0.65 m -19.75,-0.05 1.55,0.05 0.2,0.65 h 0.35 l 0.5,-0.65 h 2.4 1.4 l 0.5,0.45 0.5,-0.45 h 6.2 l 0.2,0.25 0.25,-0.25 h 2.5 2.35 q -0.4,0.45 -0.75,1.4 l -0.15,0.35 h -2.5 v -0.25 q -0.05,-0.85 -0.7,-0.85 -0.5,0 -0.65,0.3 l -0.05,0.8 h -0.5 l -3.8,-0.15 H 74.8 l -1.2,0.2 -0.35,-0.05 q -0.35,0 -0.45,0.45 l -0.05,0.1 v 0.2 Q 72.6,29.9 72.55,32.3 L 70.7,32.25 H 70.65 L 70.5,30.5 70.55,30.4 70.2,30.35 q -0.35,0 -0.6,0.6 -0.3,0.45 -0.4,1.3 h -1.15 l -1.5,0.25 v -0.15 l -0.15,0.15 -0.5,0.35 v 0.05 q -0.15,0.45 -0.2,3.3 l -0.4,-0.1 -3.45,-1.2 1.75,-1.45 0.8,-0.85 0.55,0.15 -0.15,-0.6 1.4,-2.3 q 0.9,0 1.1,-0.4 l -0.8,-0.5 0.3,-2.05 v -0.4 h 0.55 M 18.15,7.95 V 3.9 L 20,3.75 19.95,10.2 v 0.15 0.25 q 0.1,0.8 0.7,0.8 l 0.6,-0.6 1.4,0.25 h 2.65 q 0.25,0.65 0.95,1.25 l 0.35,-0.85 0.1,-0.4 h 1.95 l 0.05,0.35 0.85,1.25 0.6,-1.5 v -0.1 h 5.75 q -0.15,1.8 0.55,1.8 L 37.1,12.3 v -1.25 h 3.25 q 0.1,1.25 0.9,2 h 0.35 l 0.25,-0.75 v -1.25 h 2.1 l -0.05,1.7 q 0,1.05 0.3,2.05 l -0.05,0.05 Q 43.8,15 43.4,15.3 q 0.2,0.4 1.1,0.4 l 1.4,2.3 -0.15,0.6 0.55,-0.15 0.8,0.85 1.75,1.45 -0.1,0.05 -3.35,1.15 -0.4,0.1 -0.1,-2.8 -0.1,-0.5 V 18.7 L 44.3,18.35 44.15,18.2 v 0.15 L 42.65,18.1 H 41.5 l -0.4,-1.3 -0.6,-0.6 -0.35,0.05 0.05,0.1 -0.15,1.75 H 40 l -1.85,0.05 -0.2,-3.25 V 14.7 L 37.9,14.6 37.8,14.35 37.45,14.15 37.1,14.2 35.9,14 h -2.35 l -3.8,0.15 h -0.5 l -0.05,-0.8 q -0.15,-0.3 -0.65,-0.3 -0.65,0 -0.7,0.85 v 0.25 h -2.5 l -0.15,-0.35 -0.8,-1.45 -0.35,0.15 0.2,1.65 h -3.8 L 20.3,14 19.9,13.9 q -0.15,0 -0.55,0.45 l -0.25,0.3 v 3 h -0.65 l -0.9,0.05 q -0.35,0.1 -0.85,0.55 l -0.15,0.1 q 0.15,0.55 0.75,0.55 l 1.8,-0.15 v 2 L 17.6,20.9 17.1,21 q -0.05,0.5 0.85,0.6 l 1.15,0.05 v 1 L 14.35,21.95 13.2,21.6 Q 11.3,21 9.35,20.05 7.5,19.15 5.6,17.95 v -3.5 l 2.15,0.6 0.55,0.05 0.3,1 0.05,0.05 0.1,-0.1 0.3,-0.9 1.65,0.1 h 0.35 q 0.4,1.75 0.85,2.25 0.55,-0.15 0.55,-0.7 L 12.2,15.25 q 0.75,0 1.8,-0.7 l 1.3,-1.1 0.95,0.25 0.4,-0.15 0.05,-0.3 -0.55,-0.75 1.25,-1.7 0.75,0.35 0.4,-0.1 0.1,-0.3 -0.85,-0.8 0.35,-2 m 24.3,18.5 1.65,-0.1 -1.35,1.05 -0.95,-0.25 -0.4,0.15 -0.05,0.3 0.55,0.75 -1.25,1.7 -0.75,-0.35 -0.4,0.1 -0.1,0.3 0.85,0.8 q -0.35,1.05 -0.35,2 v 4.05 L 38.05,37.1 38.1,30.65 V 30.5 30.25 q -0.1,-0.8 -0.7,-0.8 l -0.6,0.6 -1.4,-0.25 H 32.75 L 31.8,28.55 q -0.15,0.1 -0.35,0.85 l -0.1,0.4 H 29.4 L 29.35,29.45 28.5,28.2 q -0.35,0.3 -0.6,1.5 v 0.1 H 22.15 Q 22.3,28 21.6,28 l -0.65,0.55 V 29.8 H 17.7 q -0.1,-1.25 -0.9,-2 h -0.35 l -0.25,0.75 v 1.25 h -2.1 l 0.05,-1.7 -0.3,-2.05 h 0.05 l 3.4,0.4 2.95,0.05 q 0.1,0.2 0.35,0.2 l 0.35,-0.05 1.2,0.2 h 2.35 l 3.8,-0.15 h 0.5 l 0.05,0.8 q 0.15,0.3 0.65,0.3 0.65,0 0.7,-0.85 V 26.7 h 2.5 l 0.15,0.35 q 0.35,1 0.8,1.45 L 34,28.35 33.8,26.7 h 3.8 l 0.15,0.15 0.4,0.1 0.55,-0.45 3.75,-0.05 m 7.3,-0.7 -0.3,-0.95 q 1.25,-0.55 3,-1.2 v 2.8 L 50.3,25.8 49.75,25.75 m -2.1,-0.25 1.7,-0.65 -0.35,0.85 -1.6,-0.1 0.25,-0.1"
         fill="#c6c6c6"
         fill-rule="evenodd"
         stroke="none"
         id="path15" />
      <path
         d="m 84.9,3.8 h 1.4 V 3.75 h 0.75 L 93.5,4.2 q 0.05,0.95 0.45,2.85 l -2.4,-0.2 -0.05,-0.4 -0.6,-0.2 q -0.35,0 -0.5,0.65 H 90.05 L 86.55,6.95 85,7.15 84.9,3.8 m -13.65,19.05 0.1,-6.15 3.85,0.2 0.35,0.95 0.6,1.05 0.55,-1.05 0.15,-0.9 2.05,0.05 0.35,0.8 0.5,-0.2 0.3,-0.55 h 6.05 l 0.15,0.8 0.25,1.05 0.35,-1.05 0.2,-0.75 h 3.5 l 0.05,0.55 0.1,0.1 0.4,0.05 0.55,-0.4 0.1,-0.3 h 2.45 v 0.05 l 0.4,0.1 0.3,-0.2 3.45,-0.15 v 4.15 l -2.9,0.95 -1.15,0.25 -1.7,0.3 -1.8,0.2 -1.35,0.05 -2.4,0.05 H 86.3 85.25 85.1 84.1 83.9 74.5 74.15 73.9 72.35 71.25 M 86.6,36.95 77.25,36.9 V 33 l -0.7,-0.65 -0.5,0.2 -0.15,0.1 -2.05,-0.25 H 73.8 l 0.05,-2.6 1.05,0.1 h 2.2 l 4.4,-0.05 0.15,0.55 q 0.1,0.35 0.55,0.75 l 0.25,0.05 0.2,-1.35 h 2.65 l 0.05,0.35 0.4,0.6 0.4,-0.95 h 3.8 v 2.35 l -0.2,0.1 0.2,0.15 V 35 l -0.9,0.25 q 0.35,0.3 0.9,0.4 V 36.9 L 88.4,36.95 H 86.6 M 51.75,7.7 v 11.2 l 0.2,0.35 L 50.5,20 49.95,19.7 49.6,19.35 49.4,19.4 48.25,18.35 47.7,17.7 Q 48.85,17 48.85,16.55 V 16.5 L 48.8,16.1 48.7,16 48.5,15.95 48.1,16.2 47.7,16.45 47.2,16.8 47,16.85 46.15,15.45 46.1,15.3 47.35,15.05 V 14.6 l -0.2,-0.25 -0.55,-0.1 H 45.9 L 45.35,11.2 v -0.15 h 3.15 l 0.35,0.25 0.55,0.1 0.55,-0.1 0.15,-1.05 -0.35,-0.3 v -3.8 l 2.3,1.15 -0.3,0.4 m 4.9,15.65 4,1.6 0.1,0.5 0.55,0.1 0.55,-0.1 h 0.05 l 0.25,0.1 3.05,0.75 -0.4,2.1 h -0.7 l -0.55,0.1 -0.2,0.25 V 29.2 L 64.6,29.45 63.7,31 63.5,30.95 63,30.6 62.2,30.1 62,30.15 l -0.1,0.1 -0.05,0.45 q 0,0.45 1.15,1.15 l -0.55,0.65 -1.15,1.05 -0.2,-0.05 -0.35,0.35 -0.55,0.3 -3.65,-2.05 v -8.8 l 0.1,0.05 M 24.1,22.8 H 22.3 21.2 L 20.75,22.75 V 21.5 l 0.7,-0.25 0.2,-0.15 -0.9,-0.25 V 18.3 l 0.2,-0.15 -0.2,-0.1 V 15.7 h 3.8 l 0.4,0.95 0.4,-0.6 0.05,-0.35 h 2.65 l 0.2,1.35 0.25,-0.05 0.55,-0.75 0.15,-0.55 4.4,0.05 h 2.2 l 1.05,-0.1 q -0.1,1.65 0.05,2.45 v 0.15 h -0.05 l -2.05,0.25 -0.15,-0.1 -0.5,-0.2 -0.7,0.65 v 3.9 L 24.1,22.8 M 36.85,37.15 H 35.75 33.95 24.2 23 21.8 21.05 L 12.65,36.3 9.75,35.35 V 31.2 l 3.45,0.15 0.3,0.2 0.4,-0.1 V 31.4 h 2.45 l 0.1,0.3 q 0.1,0.4 0.55,0.4 l 0.4,-0.05 0.1,-0.1 0.05,-0.55 h 3.5 l 0.2,0.75 0.35,1.05 0.4,-1.85 h 6.05 l 0.3,0.55 0.5,0.2 0.35,-0.8 2.05,-0.05 q 0.15,1.3 0.7,1.95 0.75,-1.05 0.95,-2 l 3.85,-0.2 0.1,6.15"
         fill="#a0a0a0"
         fill-rule="evenodd"
         stroke="none"
         id="path16" />
      <path
         d="m 97.05,9.7 0.2,0.05 q 0.1,0 0.5,0.35 l 0.8,0.5 0.2,-0.05 0.1,-0.1 L 98.9,10 q 0,-0.45 -1.15,-1.15 L 98.3,8.2 99.45,7.15 99.65,7.2 100,6.85 q 0.2,-0.2 0.55,-0.3 L 104.2,8.6 V 18 l -3.8,2.15 -0.6,0.25 v -3.8 l 0.35,-0.3 -0.05,-0.55 -0.1,-0.5 -0.55,-0.1 -0.55,0.1 v 0.05 l -0.35,0.2 H 95.4 v -0.15 l 0.15,-0.95 0.4,-2.1 h 0.7 l 0.55,-0.1 0.2,-0.25 V 11.5 l -1.25,-0.25 q 0.2,-0.65 0.9,-1.55 M 74.15,3.75 83.5,3.8 v 3.9 l 0.7,0.65 0.5,-0.2 0.15,-0.1 2.05,0.25 h 0.05 Q 86.8,9.05 86.9,10.9 l -1.05,-0.1 h -2.2 L 79.25,10.85 79.1,10.3 78.55,9.55 78.3,9.5 78.1,10.85 H 75.45 L 75.4,10.5 75,9.9 74.6,10.85 H 70.8 V 8.5 L 71,8.4 70.8,8.25 V 5.7 L 71.7,5.45 70.8,5.05 V 3.8 l 1.55,-0.05 h 1.8 M 66.7,22.45 64.4,22 62.4,21.4 60.95,20.85 60.4,20.6 Q 58.1,19.55 55.65,18 v -4.65 l 1.1,-0.25 1.3,-0.3 0.35,-0.1 q 0.15,1.4 0.65,2.1 l 0.4,-0.4 0.2,-0.9 -0.25,-1 0.6,-0.1 0.85,0.05 q -0.3,1.15 -0.15,1.6 l 0.3,0.1 0.8,-1.45 q 0.9,0.25 1.6,0.85 l 0.65,0.7 -0.5,0.75 -0.35,0.5 0.15,0.25 0.5,0.05 0.95,-0.6 0.8,1.45 q -0.95,0.55 -1.25,1 0.2,0.5 0.85,0.5 l 0.95,-0.4 0.3,0.7 0.2,0.5 0.05,3.5 M 21.2,3.7 h 1.1 1.8 9.75 1.2 1.2 0.75 q 5.05,0 8.4,0.85 1.4,0.35 2.9,0.95 V 9.65 L 44.85,9.5 44.55,9.3 44.15,9.4 V 9.45 H 41.7 L 41.6,9.15 Q 41.5,8.75 41.05,8.75 L 40.65,8.8 40.55,8.9 40.5,9.45 H 37 L 36.8,8.7 36.45,7.65 36.05,9.5 H 30 L 29.7,8.95 29.2,8.75 28.85,9.55 26.8,9.6 Q 26.65,8.3 26.1,7.65 25.35,8.7 25.15,9.65 L 21.3,9.85 21.2,3.7 m 13.65,19.05 0.1,-3.35 1.55,0.2 h 0.1 l 3.4,0.05 h 0.35 l 0.1,0.3 0.4,0.35 q 0.55,0 0.6,-0.2 l 0.05,-0.4 2.4,-0.2 q -0.4,1.9 -0.45,2.85 L 41.4,22.6 37.3,22.8 H 37 36.25 v -0.05 h -1.4 m 6.55,14 0.05,-3.5 0.5,-1.2 0.95,0.4 q 0.65,0 0.85,-0.5 l -1.25,-1 0.8,-1.45 q 0.8,0.6 0.95,0.6 l 0.5,-0.05 0.15,-0.25 -0.85,-1.25 0.65,-0.7 q 0.7,-0.6 1.6,-0.85 l 0.8,1.45 0.3,-0.1 -0.15,-1.6 0.85,-0.05 0.6,0.1 -0.25,1 q 0,0.65 0.2,0.9 l 0.4,0.4 q 0.5,-0.7 0.65,-2.1 l 1.65,0.4 1.1,0.25 v 4.65 q -4.65,2.95 -8.75,4 l -2.3,0.45 m 34.45,0.15 h -1.4 v 0.05 H 73.7 l -6.45,-0.45 -0.45,-2.85 2.4,0.2 0.05,0.4 q 0.05,0.2 0.6,0.2 0.35,0 0.5,-0.65 h 0.35 l 3.5,-0.05 1.55,-0.2 0.1,3.35 M 6.6,23.3 l 2.6,1.05 0.05,0.4 0.1,0.1 0.2,0.05 0.45,-0.25 1.9,0.8 0.05,0.1 -1.25,0.25 v 0.45 l 0.2,0.25 0.55,0.1 h 0.7 l 0.55,3.05 V 29.8 H 9.55 L 9.2,29.55 8.65,29.45 8.1,29.55 7.95,30.6 8.3,30.9 v 3.8 L 3.9,32.3 v -9.4 l 1,-0.6 1.7,1 M 16.65,4.1 16.6,7.6 16.1,8.8 15.15,8.4 q -0.65,0 -0.85,0.5 l 1.25,1 -0.8,1.45 -0.95,-0.6 -0.5,0.05 -0.15,0.25 L 14,12.3 13.35,13 q -0.7,0.6 -1.6,0.85 l -0.8,-1.45 -0.3,0.1 q -0.15,0.45 0.15,1.6 l -0.85,0.05 -0.6,-0.1 0.25,-1 -0.2,-0.9 -0.4,-0.4 q -0.5,0.7 -0.65,2.1 L 6.7,13.45 5.6,13.2 V 8.55 q 4.65,-2.95 8.75,-4 l 2.3,-0.45"
         fill="#b6b6b6"
         fill-rule="evenodd"
         stroke="none"
         id="path17" />
    </g>
    <g
       id="sprite1">
      <use
         ffdec:characterId="390"
         height="38.25"
         width="38"
         xlink:href="#shape1"
         id="use17" />
    </g>
    <g
       id="shape1">
      <path
         d="m 21.15,11.85 -0.45,0.1 -1.3,0.1 0.2,4.6 -0.8,0.75 -8.15,0.05 L 10.3,18.6 10,18.65 Q 9.75,18.15 9.65,17.45 H 7.85 L 7.75,19.15 7.3,19.4 Q 6.85,19.05 6.7,17.9 V 17.45 H 4 l -0.25,1.7 q 0.3,3.3 2.1,6.9 2.65,5.4 7.55,7.05 L 13.25,32.05 11.95,31.7 Q 12.55,31 13.2,30.65 V 30.6 L 10.9,30.4 10.6,30.65 9.45,30.6 9.25,29.95 v -5.2 Q 9.4,22.7 9.9,21.15 L 9.8,21 v -0.65 l 0.05,-0.4 q 0.1,-0.35 0.75,-0.6 l 4,0.05 q 0.1,-0.95 0.5,-1.3 l 0.55,1.3 h 0.95 q 0.05,-1.15 0.6,-1.55 l 0.55,1.55 h 2.95 l 0.05,0.05 0.35,-0.35 0.7,0.5 v 3.9 l 2.4,-1.7 q -0.5,-1 -0.6,-1.8 0.9,-0.45 1.7,1.05 l 0.95,-0.6 -0.5,-0.85 q 0,-0.85 0.55,-0.85 -0.05,0.6 0.65,1.25 l 2.8,-1.65 0.05,-1.4 h 0.4 l 0.2,1 1.1,-0.65 -0.15,-0.55 0.05,-0.4 0.4,0.05 0.3,0.6 1.55,-0.9 -1.55,-3.9 Q 28.3,4.45 19.75,4.45 h -0.5 l 0.2,1.6 -0.05,1.8 0.95,0.1 0.1,0.05 0.05,0.4 q 0,0.55 -0.4,0.7 l -0.75,0.05 v 0.5 l 0.05,1.1 h 1.3 l 0.4,0.1 q 0.2,0.1 0.2,0.5 l -0.15,0.5 M 21.8,24.4 v 4.85 l 0.1,0.1 0.05,0.4 -0.85,0.85 h -5.95 l 1.4,0.9 q -0.15,0.75 -1.45,0.75 l -0.75,-0.05 -0.05,1.15 3.85,0.45 h 0.65 0.95 q 8.55,0 12.35,-7.75 1.8,-3.6 2.1,-6.9 l -0.2,-1.6 -1.3,0.95 0.1,0.45 -0.1,0.4 -0.45,-0.6 -1.7,1.05 v 1.45 l -0.05,0.2 -0.4,0.05 -0.5,-0.1 0.05,-1.1 -1.35,0.75 1.8,1.4 -0.1,0.3 -0.45,0.1 q -1.3,0 -2.4,-1.15 L 25.85,22.35 26.35,24 26,24.4 24.85,22.85 21.8,24.4 M 38,18.75 v 0.2 0.55 h -0.05 q -0.25,2.85 -1.1,5.5 -0.65,2.05 -1.7,3.95 -4.85,8.9 -16.05,9.3 H 18.8 Q 7.6,37.85 2.75,28.95 0.35,24.5 0,19.5 v -0.15 -0.6 h 0.05 q 0.3,-5 2.7,-9.45 4.5,-8.25 14.5,-9.2 L 18.8,0 h 0.3 l 1.6,0.1 q 9.95,0.95 14.45,9.2 1.05,1.9 1.7,3.95 0.85,2.65 1.1,5.5 H 38 M 18.15,4.45 q -8.5,0 -12.3,7.75 -0.9,1.8 -1.4,3.55 h 2.3 Q 6.85,14.8 7.3,14.5 l 0.5,1.25 h 1.8 q 0.05,-0.9 0.5,-1.25 l 0.55,1.25 7.45,-0.05 0.05,-3.55 -0.55,0.05 -0.75,-0.05 q -0.15,0.1 -0.15,-0.55 0,-0.6 1.5,-0.8 V 9.15 L 16.75,9 15.85,8.5 q 0.35,-0.3 1.7,-0.55 l 0.65,-0.1 0.05,-3.4 h -0.1 m -7.05,16.7 0.2,3.9 -0.05,2.9 -0.05,1.2 L 13.25,29 20.5,28.9 20,23.45 q -0.2,-1.7 0.15,-2.85 l -2.2,0.05 0.05,0.85 -0.05,0.4 -0.4,0.35 q -0.75,-0.4 -0.9,-1.2 V 20.7 H 15.7 q -0.05,1.6 -0.6,2.2 -0.55,-0.65 -0.6,-2.15 l -3.4,0.4"
         fill="#9a9a9a"
         fill-rule="evenodd"
         stroke="none"
         id="path18" />
      <path
         d="m 18.15,4.45 h 0.1 l -0.05,3.4 -0.65,0.1 Q 16.2,8.2 15.85,8.5 l 0.9,0.5 1.45,0.15 v 1.65 q -1.5,0.2 -1.5,0.8 0,0.65 0.15,0.55 L 17.6,12.2 18.15,12.15 18.1,15.7 10.65,15.75 10.1,14.5 Q 9.65,14.85 9.6,15.75 H 7.8 L 7.3,14.5 Q 6.85,14.8 6.75,15.75 H 4.45 Q 4.95,14 5.85,12.2 9.65,4.45 18.15,4.45"
         fill="#b8b0bb"
         fill-rule="evenodd"
         stroke="none"
         id="path19" />
      <path
         d="m 21.15,11.85 0.15,-0.5 q 0,-0.4 -0.2,-0.5 l -0.4,-0.1 H 19.4 L 19.35,9.65 V 9.15 L 20.1,9.1 Q 20.5,8.95 20.5,8.4 L 20.45,8 20.35,7.95 19.4,7.85 l 0.05,-1.8 -0.2,-1.6 h 0.5 q 8.55,0 12.35,7.75 l 1.55,3.9 -1.55,0.9 -0.3,-0.6 -0.4,-0.05 -0.05,0.4 0.15,0.55 -1.1,0.65 -0.2,-1 h -0.4 l -0.05,1.4 -2.8,1.65 q -0.7,-0.65 -0.65,-1.25 -0.55,0 -0.55,0.85 l 0.5,0.85 -0.95,0.6 q -0.8,-1.5 -1.7,-1.05 0.1,0.8 0.6,1.8 l -2.4,1.7 V 19.6 L 21.1,19.1 20.75,19.45 20.7,19.4 H 17.75 L 17.2,17.85 q -0.55,0.4 -0.6,1.55 H 15.65 L 15.1,18.1 q -0.4,0.35 -0.5,1.3 l -4,-0.05 Q 9.95,19.6 9.85,19.95 L 9.8,20.35 V 21 l 0.1,0.15 q -0.5,1.55 -0.65,3.6 v 5.2 l 0.2,0.65 1.15,0.05 0.3,-0.25 2.3,0.2 v 0.05 Q 12.55,31 11.95,31.7 l 1.3,0.35 0.15,1.05 Q 8.5,31.45 5.85,26.05 4.05,22.45 3.75,19.15 L 4,17.45 h 2.7 v 0.45 q 0.15,1.15 0.6,1.5 l 0.45,-0.25 0.1,-1.7 h 1.8 q 0.1,0.7 0.35,1.2 l 0.3,-0.05 0.35,-1.15 8.15,-0.05 0.8,-0.75 -0.2,-4.6 1.3,-0.1 0.45,-0.1"
         fill="#b7aeae"
         fill-rule="evenodd"
         stroke="none"
         id="path20" />
      <path
         d="m 11.1,21.15 3.4,-0.4 q 0.05,1.5 0.6,2.15 0.55,-0.6 0.6,-2.2 h 0.95 v 0.35 q 0.15,0.8 0.9,1.2 L 17.95,21.9 18,21.5 17.95,20.65 20.15,20.6 Q 19.8,21.75 20,23.45 l 0.5,5.45 -7.25,0.1 -2.05,0.15 0.05,-1.2 0.05,-2.9 -0.2,-3.9"
         fill="#b2a7ab"
         fill-rule="evenodd"
         stroke="none"
         id="path21" />
      <path
         d="m 21.8,24.4 3.05,-1.55 1.15,1.55 0.35,-0.4 -0.5,-1.65 1.3,-0.65 q 1.1,1.15 2.4,1.15 l 0.45,-0.1 0.1,-0.3 -1.8,-1.4 1.35,-0.75 -0.05,1.1 0.5,0.1 0.4,-0.05 0.05,-0.2 V 19.8 l 1.7,-1.05 0.45,0.6 0.1,-0.4 -0.1,-0.45 1.3,-0.95 0.2,1.6 q -0.3,3.3 -2.1,6.9 -3.8,7.75 -12.35,7.75 H 18.8 18.15 l -3.85,-0.45 0.05,-1.15 0.75,0.05 q 1.3,0 1.45,-0.75 l -1.4,-0.9 h 5.95 l 0.85,-0.85 -0.05,-0.4 -0.1,-0.1 V 24.4"
         fill="#bdb7b2"
         fill-rule="evenodd"
         stroke="none"
         id="path22" />
    </g>
    <g
       id="sprite2">
      <use
         ffdec:characterId="287"
         height="48.799999"
         width="9.1999998"
         xlink:href="#shape2"
         id="use22" />
    </g>
    <g
       id="shape2">
      <path
         d="M 5.65,0.05 Q 8.4,0.2 8.95,1.1 L 9.2,18.55 v 9.4 2.3 L 8.95,47.6 v 0.1 H 8.9 q -0.6,0.9 -3.25,1.05 l -1,0.05 H 4.55 L 3.45,48.75 Q 0.8,48.6 0.25,47.7 L 0.1,38.2 0.05,31.55 0,27.95 0.05,18.55 0.25,1.1 Q 0.8,0.2 3.45,0.05 L 4.55,0 h 0.1 l 1,0.05 m 0.55,27 V 26.7 18.55 L 6.25,11.8 6.4,7 V 6.55 Q 6.35,5.2 6.55,4.2 L 6.7,2.8 H 6.15 L 5.05,2.85 H 4.6 4.35 4.15 3.4 L 2.5,2.8 2.65,4.2 2.8,6.55 V 7 L 2.95,11.8 3,18.55 v 8.15 1.5 2.05 3.55 1.3 2.45 0.65 H 2.95 L 2.8,41.8 v 0.45 L 2.65,44.6 2.5,46 3.4,45.95 h 0.75 0.45 0.15 0.3 0.3 L 6.15,46 H 6.7 L 6.55,44.6 Q 6.35,43.6 6.4,42.25 V 41.8 L 6.3,38.2 H 6.25 L 6.2,37.55 v -2.45 -3.65 -1.2 -3.2"
         fill="#9a9a9a"
         fill-rule="evenodd"
         stroke="none"
         id="path23" />
      <path
         d="m 6.2,27.05 v 3.2 1.2 l -0.25,1.6 q -0.9,5.8 -0.9,8.5 l 0.3,4.4 H 5.05 4.75 L 4.65,45.4 Q 4.5,44.55 4.5,43.05 4.5,39.1 5.25,34.2 L 6.2,27.05 M 3,33.8 V 30.25 28.2 l 0.2,-1.3 1,-6.35 V 7.65 L 4.35,2.85 H 4.6 L 4.75,7.8 V 20.7 L 4.8,21 3.9,27.8 3,33.8"
         fill="#ababab"
         fill-rule="evenodd"
         stroke="none"
         id="path24" />
      <path
         d="M 4.6,2.85 H 5.05 L 6.15,2.8 H 6.7 L 6.55,4.2 Q 6.35,5.2 6.4,6.55 V 7 L 6.25,11.8 6.2,18.55 v 8.15 0.35 L 5.25,34.2 q -0.75,4.9 -0.75,8.85 0,1.5 0.15,2.35 l 0.1,0.55 H 4.6 4.15 3.4 L 2.5,46 2.65,44.6 2.8,42.25 V 41.8 L 2.95,38.2 H 3 V 37.55 35.1 33.8 L 3.9,27.8 4.8,21 4.75,20.7 V 7.8 L 4.6,2.85 m 1.6,28.6 v 3.65 2.45 L 6.25,38.2 H 6.3 l 0.1,3.6 v 0.45 Q 6.35,43.6 6.55,44.6 L 6.7,46 H 6.15 l -0.8,-0.05 -0.3,-4.4 q 0,-2.7 0.9,-8.5 L 6.2,31.45 M 3,28.2 V 26.7 18.55 L 2.95,11.8 2.8,7 V 6.55 L 2.65,4.2 2.5,2.8 3.4,2.85 h 0.75 0.2 L 4.2,7.65 v 12.9 L 3.2,26.9 3,28.2"
         fill="#b5b0ac"
         fill-rule="evenodd"
         stroke="none"
         id="path25" />
    </g>
    <g
       id="sprite3">
      <use
         ffdec:characterId="358"
         height="16.5"
         width="9.6499996"
         xlink:href="#shape3"
         id="use25" />
    </g>
    <g
       id="shape3">
      <path
         d="M 1.4,3.05 Q 1.95,2.7 2.95,2.3 L 5.3,1 3.3,0.8 q -1.45,0 -2.1,1 L 0.35,3.15 H 0.05 L 0,2.8 Q 0,0.85 3.2,0.2 6.35,-0.45 6.35,0.8 6.35,1.7 4.8,2.75 L 3.65,3.4 q 3.7,0.45 5.1,1.85 0.9,0.9 0.9,2.75 0,1.65 -1.3,3.7 L 8,12.3 H 7.8 L 7.6,12.35 7.3,11.95 7.55,11.5 Q 8.8,9.15 8.8,7.95 8.8,6.45 7.95,5.65 6.65,4.4 3.5,4.15 L 4.75,5.3 q 1.8,1.95 2.4,3.65 l -0.1,0.5 -0.4,0.1 q -1.6,0 -2.3,-1.15 L 3.75,6.8 h -0.1 l 1.4,3.9 0.15,3.15 V 15.4 Q 5.1,16.5 4.55,16.5 2,16.5 0.75,12 L 0.05,7.4 0.1,5.8 Q 0.2,5.15 0.5,4.65 V 4.45 L 0.7,4.1 0.4,4.05 0.3,3.65 q 0,-0.3 0.25,-0.4 L 0.75,3.2 H 1.1 L 1.7,1.95 1.4,3.05 M 1.35,4.1 1.85,4.9 1.6,4.1 H 1.35 M 1.05,4.9 V 7.2 Q 1,8.75 1.7,9.45 L 2.1,9.4 2.3,8.2 1.8,6.4 1.15,4.85 1.05,4.9 M 3.7,5.75 4.3,6.35 3.7,5.7 V 5.75 M 4.35,6.5 4.8,7.65 q 0.35,0.7 0.95,0.9 -0.6,-1.8 -1.4,-2.1 V 6.5 M 3.25,8.2 3,9.3 q -0.3,0.9 -0.8,0.9 -0.9,0 -1.35,-0.75 0.45,4.4 3.1,6.25 l 0.4,-0.05 0.05,-1.9 Q 4.4,10.6 3.25,7.9 v 0.3"
         fill="#9a9a9a"
         fill-rule="evenodd"
         stroke="none"
         id="path26" />
    </g>
    <g
       id="sprite4">
      <use
         ffdec:characterId="381"
         height="30.4"
         width="33.049999"
         xlink:href="#shape4"
         id="use26" />
    </g>
    <g
       id="shape4">
      <path
         d="m 21.5,3.05 q 1.45,-1 3.5,-0.9 5.05,0.25 5.05,4.8 l -0.3,1.85 0.3,0.1 q 1.7,0.75 2.45,1.85 0.55,0.8 0.55,1.8 0,1.1 -1.1,3.45 l -1.1,1.8 q 1.05,1.15 1.05,2.5 0,1.3 -0.9,2.65 l -1.25,1.65 q -2.3,2.45 -6,2.45 l -1,-0.05 -0.85,1.25 q -1.85,2.15 -5.5,2.15 -4.25,0 -6.25,-2.9 L 9.4,25.7 8.5,25.8 Q 4.7,25.8 3,23.1 2,21.55 2,20.05 2,18.4 2.8,17 1,16.5 0.35,14.7 L 0.05,12.3 0,12.15 Q 0,5.4 6.15,4.35 L 10.1,4.5 q 0.1,-1.65 0.75,-2.7 1.3,-2.15 5.1,-1.7 2.3,0.3 4,1.65 L 20,1.8 l 1.3,1.45 0.2,-0.2 m 0.35,21.2 h 0.05 l 0.85,0.2 2.75,-0.75 q 3.05,-0.8 3.95,-2.2 l 0.3,-1.65 -0.65,-0.9 -0.5,0.05 q -0.9,0 -1.1,-0.4 l -0.05,-0.5 q 0,-0.35 0.55,-1.25 0.05,-0.3 0.25,-0.45 l 0.55,-0.85 q 1.35,-1.95 1.35,-2.8 L 29.95,12.3 Q 29.55,11.9 28.6,11.45 L 28,11.15 H 27.95 L 27.05,10.8 27,10.1 27.05,9.95 27.45,8.7 27.95,6.95 q 0,-0.65 -1,-1.4 -1,-0.8 -1.9,-0.8 -1.7,0 -2.4,1.25 -0.75,1.25 -1.5,1.25 -0.95,0 -1.2,-0.75 L 19.9,5.9 19.95,5.5 19.4,4.8 Q 18.05,3 15.3,3 13.3,3 12.9,5.15 12.5,7.3 11.4,7.3 10.75,7.3 10.45,7 L 8.65,6.65 q -3.5,0 -5,2.65 -0.8,1.35 -0.85,2.75 L 2.85,12.3 Q 3,13.15 4.3,13.95 l 0.75,0.55 q 0.9,-0.5 0.9,1.15 l -0.7,1.65 q -0.75,1.45 -0.75,2.4 0,2.35 3.25,2.85 l 1.6,0.35 q 0.5,-0.85 1.85,0.6 l 3.5,4.1 h 3.45 q 1.05,-0.05 1.9,-1.7 0.65,-1.35 1.5,-1.6 h 0.2 l 0.1,-0.05"
         fill="#9a9a9a"
         fill-rule="evenodd"
         stroke="none"
         id="path27" />
      <path
         d="m 21.55,24.3 q -0.85,0.25 -1.5,1.6 -0.85,1.65 -1.9,1.7 H 14.7 L 11.2,23.5 Q 9.85,22.05 9.35,22.9 L 7.75,22.55 Q 4.5,22.05 4.5,19.7 q 0,-0.95 0.75,-2.4 l 0.7,-1.65 Q 5.95,14 5.05,14.5 L 4.3,13.95 Q 3,13.15 2.85,12.3 L 2.8,12.05 q 0.05,-1.4 0.85,-2.75 1.5,-2.65 5,-2.65 L 10.45,7 q 0.3,0.3 0.95,0.3 1.1,0 1.5,-2.15 Q 13.3,3 15.3,3 q 2.75,0 4.1,1.8 l 0.55,0.7 -0.05,0.4 0.05,0.6 q 0.25,0.75 1.2,0.75 0.75,0 1.5,-1.25 0.7,-1.25 2.4,-1.25 0.9,0 1.9,0.8 1,0.75 1,1.4 l -0.5,1.75 -0.4,1.25 -0.05,0.15 0.05,0.7 0.9,0.35 H 28 l 0.6,0.3 q 0.95,0.45 1.35,0.85 l 0.2,0.45 q 0,0.85 -1.35,2.8 l -0.55,0.85 q -0.2,0.15 -0.25,0.45 -0.55,0.9 -0.55,1.25 l 0.05,0.5 q 0.2,0.4 1.1,0.4 l 0.5,-0.05 0.65,0.9 -0.3,1.65 q -0.9,1.4 -3.95,2.2 l -2.75,0.75 -0.85,-0.2 H 21.85 L 24,23 q 0.75,-0.5 0.75,-1.15 L 24.6,21.3 24.15,21.15 q -0.35,0.15 -1.45,1 -1.2,0.75 -2.5,0.75 l -0.4,-0.1 -0.9,0.25 0.3,0.7 q 0.35,0.5 0.75,0.55 h 1.6 m -4.05,2.25 -0.1,-0.4 -0.9,-0.55 -0.25,0.1 q -0.3,0.15 -0.3,0.55 l 0.8,0.8 0.75,-0.5 M 14.15,22.05 14,21.65 12.1,20.9 q -0.7,-0.2 -0.7,-1.1 l 0.15,-0.8 0.1,-0.7 q -0.4,0.25 -0.85,1.25 -0.45,0.9 -0.45,1.4 0,0.45 0.55,1 0.8,0.75 2.05,0.75 l 1.2,-0.65 m 2.7,-4.7 L 17,17 q 0.05,-0.1 0.7,-0.45 l 0.15,0.25 h 0.1 l 0.05,0.45 -0.5,0.65 -1.3,0.75 0.3,0.65 0.95,0.15 1.1,-0.85 0.7,-1.15 Q 19.25,16 17.65,15.6 16,15.2 16,16.65 l 0.5,0.8 0.35,-0.1 M 9.6,12 9.5,12.05 Q 7.6,11.9 7.1,12.8 6.9,13.15 6.9,14.5 L 7,16.55 q 0.6,1.6 2.95,1.6 l 0.8,-0.3 0.6,-0.5 L 9,15.85 Q 8.25,15.45 8.25,14.2 8.25,13.95 9,13.15 L 9.7,12.4 9.6,12 M 7.75,7.8 Q 6.4,7.85 6,9.7 L 6.75,10.85 7.7,9.65 7.95,8.35 7.85,7.9 7.75,7.8 m 5.45,3.5 -0.3,-0.95 q 0,-0.55 1.05,-0.75 l 0.95,0.9 q 0.05,0.3 0.6,0.45 0.7,-0.3 0.7,-1.1 0,-1.35 -2.2,-1.55 -2.25,-0.2 -2.25,1.9 0,0.4 0.15,0.6 l 0.95,0.75 0.35,-0.25 m 9.3,3.25 0.15,-0.75 Q 22.25,13.2 21,13.2 l -0.15,0.25 v 0.35 q 0,0.35 0.9,0.9 L 22.5,14.55 M 26.2,14.3 26,14.85 v 1.55 l -0.25,1.4 q 1.1,-0.25 1.35,-0.65 l 0.15,-1.3 -0.05,-1.1 Q 27,14 26.2,14.3 m -2.45,-4.1 q 0,-1.55 -1.9,-2.4 -1.9,-0.9 -1.9,0.6 l 0.1,0.45 h 0.4 Q 21.6,9 21.9,9.95 l 0.55,1.5 0.65,0.15 0.65,-0.3 v -1.1"
         fill="#d1d1d1"
         fill-rule="evenodd"
         stroke="none"
         id="path28" />
      <path
         d="m 21.55,24.3 h -1.6 q -0.4,-0.05 -0.75,-0.55 l -0.3,-0.7 0.9,-0.25 0.4,0.1 q 1.3,0 2.5,-0.75 1.1,-0.85 1.45,-1 l 0.45,0.15 0.15,0.55 Q 24.75,22.5 24,23 l -2.15,1.25 -0.1,0.05 h -0.2 m 2.2,-14.1 v 1.1 L 23.1,11.6 22.45,11.45 21.9,9.95 Q 21.6,9 20.45,8.85 h -0.4 L 19.95,8.4 q 0,-1.5 1.9,-0.6 1.9,0.85 1.9,2.4 m 2.45,4.1 q 0.8,-0.3 1,0.45 l 0.05,1.1 -0.15,1.3 q -0.25,0.4 -1.35,0.65 L 26,16.4 v -1.55 l 0.2,-0.55 m -3.7,0.25 -0.75,0.15 q -0.9,-0.55 -0.9,-0.9 V 13.45 L 21,13.2 q 1.25,0 1.65,0.6 L 22.5,14.55 M 13.2,11.3 12.85,11.55 11.9,10.8 q -0.15,-0.2 -0.15,-0.6 0,-2.1 2.25,-1.9 2.2,0.2 2.2,1.55 0,0.8 -0.7,1.1 Q 14.95,10.8 14.9,10.5 L 13.95,9.6 Q 12.9,9.8 12.9,10.35 l 0.3,0.95 M 7.75,7.8 7.85,7.9 7.95,8.35 7.7,9.65 6.75,10.85 6,9.7 Q 6.4,7.85 7.75,7.8 M 9.6,12 9.7,12.4 9,13.15 q -0.75,0.8 -0.75,1.05 0,1.25 0.75,1.65 l 2.35,1.5 -0.6,0.5 -0.8,0.3 Q 7.6,18.15 7,16.55 L 6.9,14.5 q 0,-1.35 0.2,-1.7 0.5,-0.9 2.4,-0.75 L 9.6,12 m 7.25,5.35 -0.35,0.1 -0.5,-0.8 q 0,-1.45 1.65,-1.05 1.6,0.4 1.6,1.85 l -0.7,1.15 -1.1,0.85 L 16.5,19.3 16.2,18.65 17.5,17.9 18,17.25 17.95,16.8 h -0.1 L 17.7,16.55 Q 17.05,16.9 17,17 l -0.15,0.35 m -2.7,4.7 -1.2,0.65 q -1.25,0 -2.05,-0.75 -0.55,-0.55 -0.55,-1 0,-0.5 0.45,-1.4 0.45,-1 0.85,-1.25 l -0.1,0.7 -0.15,0.8 q 0,0.9 0.7,1.1 l 1.9,0.75 0.15,0.4 m 3.35,4.5 -0.75,0.5 -0.8,-0.8 q 0,-0.4 0.3,-0.55 l 0.25,-0.1 0.9,0.55 0.1,0.4"
         fill="#c9c9c9"
         fill-rule="evenodd"
         stroke="none"
         id="path29" />
    </g>
    <g
       id="sprite5"
       transform="translate(1.65,1.15)">
      <use
         ffdec:characterId="392"
         height="34.599998"
         transform="translate(-1.65,-1.15)"
         width="36.799999"
         xlink:href="#shape5"
         id="use29" />
    </g>
    <g
       id="shape5"
       transform="translate(1.65,1.15)">
      <path
         d="M 0,28.25 1.1,29.15 1.95,28.3 1,27.45 0,28.25 V 7.1 L 0.1,7 0,6.9 V 3.8 L 0.35,3.45 0,3.15 V 1.7 L 1.1,2.75 1.75,2.15 0,0.45 V 0 H 2.85 L 3.35,0.5 3.95,0 h 8.95 l -0.3,0.3 0.25,0.25 0.2,0.15 0.7,-0.65 L 13.7,0 h 3.1 L 16.6,0.2 17.15,0.85 17.65,0.2 17.45,0 H 20.6 L 20.55,0.05 21.25,0.7 21.35,0.55 21.65,0.3 21.35,0 H 30.2 L 30.9,0.7 31.65,0 h 1.95 v 1.25 l -1.1,1.1 0.6,0.55 0.5,-0.45 v 2.3 l -0.5,-0.4 -1.05,1 0.6,0.5 0.95,-0.9 v 3.2 L 33.35,7.85 32.4,8.8 32.9,9.25 33.6,8.6 v 3.3 l -0.5,-0.5 -0.45,0.4 0.75,0.7 0.2,-0.25 v 7.1 l -0.55,-0.5 -0.75,0.75 0.9,0.8 0.4,-0.35 v 8.05 l -0.6,-0.6 -0.9,0.95 0.8,0.85 q 0.35,-0.35 0.7,-0.55 V 32.1 H 29.8 L 29,31.4 28.4,31.85 28.65,32.1 H 5.2 L 5.5,31.8 4.95,31.3 4.25,32.05 4.3,32.1 H 0 v -3.85 m 31.9,-25.1 -0.15,-0.1 -1.1,1 0.65,0.55 1.05,-0.95 -0.45,-0.5 m -0.95,7 0.5,0.5 0.45,-0.4 -0.55,-0.55 -0.4,0.45 M 31,7.45 32,6.5 31.4,5.95 30.4,6.9 31,7.45 m -2.9,-6 0.95,0.95 1.1,-1.05 -1,-0.95 -1.05,1.05 M 26.45,3 27.4,3.9 28.4,3 27.45,2.05 26.45,3 M 25.4,3.95 25,4.35 25.95,5.3 26.35,4.9 25.4,3.95 m 3.7,1.65 0.25,0.2 0.35,0.4 0.95,-1 -0.5,-0.6 -1.05,1 M 22.95,2.35 23.3,2.7 V 2.65 L 23.7,2.3 23.35,1.95 23,2.25 22.95,2.35 M 24.8,1.3 25.65,0.45 25.3,0.1 24.4,0.95 24.8,1.3 M 21.65,4.1 21.3,3.8 20.7,4.4 21,4.7 21.65,4.1 m 2.1,3.35 0.65,-0.65 -0.55,-0.5 -0.4,-0.35 -0.6,0.6 0.9,0.9 m -3.1,1.15 0.9,0.95 1,-1.05 -0.9,-0.8 -1,0.9 m 2.6,2.65 0.6,0.55 0.95,-1 -0.2,-0.15 -0.35,-0.4 -1,1 M 28.2,7.6 28.65,7.15 28.1,6.55 27.65,7.05 27.85,7.3 28.2,7.6 M 29,8.3 29.55,8.85 30,8.4 29.45,7.9 29,8.3 M 26.4,8.85 26.1,8.55 26,8.6 25.4,9.15 25.95,9.7 26.65,9.1 26.4,8.85 m 1.1,0.95 -0.7,0.65 0.75,0.75 0.6,-0.75 L 27.5,9.8 m 1.85,1.85 -0.65,0.6 0.7,0.65 0.55,-0.7 -0.6,-0.55 m -2.95,2.6 0.9,0.7 0.9,-0.85 -0.8,-0.75 -1,0.9 m -0.9,2.45 0.45,-0.45 -0.85,-0.85 -0.5,0.5 0.9,0.8 m 1.45,0.6 -0.4,0.4 0.45,0.45 0.4,-0.4 -0.45,-0.45 m -1.5,-3.95 1,-0.95 -0.85,-0.8 -1.05,0.9 0.9,0.85 m 3.35,3.05 0.85,-0.9 -0.45,-0.4 -0.85,0.9 0.45,0.4 m -5.95,-2.25 0.9,0.9 0.55,-0.5 -0.85,-0.85 -0.6,0.45 m -0.3,-1.3 -0.5,-0.5 -0.55,0.5 0.1,0.1 0.4,0.45 0.1,0.05 0.5,-0.5 -0.05,-0.1 m 0.2,4.7 -0.4,0.35 -0.45,0.5 0.7,0.85 0.15,0.2 0.95,-0.95 -0.95,-0.95 m -1.65,-1.65 -0.8,0.75 0.95,1 0.8,-0.8 -0.95,-0.95 m 2.6,4.5 0.5,0.4 0.95,-0.9 -0.45,-0.4 -1,0.9 m -2.65,0.65 0.05,-0.05 -1,-1.05 -0.45,0.4 -0.2,0.2 1.05,1.05 0.15,-0.2 0.4,-0.35 m 1.5,1.4 -0.45,-0.5 -0.6,0.6 0.45,0.5 0.55,-0.5 0.05,-0.1 m -1.35,1.3 -0.5,-0.45 -1,0.9 0.5,0.45 1,-0.9 m 2.9,0.2 -0.2,0.15 -0.45,0.45 0.7,0.65 0.6,-0.55 -0.65,-0.7 m 4.45,-4.3 0.55,0.6 0.35,-0.35 -0.55,-0.6 -0.35,0.35 m -2.15,3.3 0.95,-0.95 -0.65,-0.6 -0.9,0.95 0.6,0.6 m 2.8,0.9 -0.7,-0.65 -0.85,0.85 1,0.95 0.8,-0.9 -0.25,-0.25 m 2.35,-10.05 -0.5,-0.45 -0.6,0.55 0.5,0.5 0.6,-0.6 m 0.25,3.8 -0.55,-0.55 -0.9,0.85 0.6,0.5 0.85,-0.8 m 1.75,-1.95 -0.5,-0.4 -0.6,0.5 0.55,0.55 0.55,-0.65 m -1.95,6.3 -0.9,-0.85 -0.35,0.3 0.65,0.65 0.3,0.25 0.3,-0.35 m 1.35,1.4 -0.4,0.4 0.4,0.4 0.4,-0.35 -0.4,-0.45 M 19,1.55 l -0.6,0.6 0.85,0.7 0.5,-0.5 L 19,1.55 m -3.75,-0.05 -0.8,0.8 0.6,0.55 0.8,-0.8 -0.6,-0.55 m 1.9,3.55 0.85,-0.9 -0.9,-0.85 -0.85,0.85 0.9,0.9 M 19.4,5.55 18.5,6.45 18.9,6.8 19.75,5.9 19.4,5.55 M 11.2,2.2 10.9,1.9 10.55,2.25 10.85,2.55 11,2.6 11.3,2.3 11.2,2.2 M 12.9,3.8 12.6,4.05 13.25,4.7 13.6,4.4 12.9,3.8 M 14.4,5.9 15.3,6.8 15.7,6.4 14.75,5.55 14.4,5.9 m -2.75,2.65 1,0.95 0.9,-0.95 L 12.6,7.6 11.65,8.55 m -0.2,-2 L 10.75,5.9 10.3,6.3 9.8,6.75 10.5,7.4 11.45,6.55 m -0.55,4.7 0.05,-0.05 -1.05,-1 -0.45,0.4 -0.1,0.15 1,1 0.55,-0.5 m 3.4,-0.05 1,-0.9 -0.5,-0.5 -0.6,0.55 -0.4,0.4 0.5,0.45 M 16.7,8.1 17.1,8.5 17.55,8.1 17.1,7.75 16.7,8.1 m 3.15,3.1 0.45,-0.45 -0.45,-0.4 -0.55,-0.5 -0.4,0.4 0.95,0.95 M 6.8,1.95 l -1,0.95 1,1 1,-0.95 -1,-1 M 9.45,1.25 9.85,0.95 8.95,0.05 8.6,0.4 9.45,1.25 M 6.1,1.3 5.2,0.4 4.15,1.35 5.2,2.3 6.1,1.3 M 8.25,5.25 V 5.3 L 9.2,4.35 9.15,4.3 8.7,3.95 7.85,4.85 8.25,5.25 M 4.05,4.5 3.45,5.1 4.5,6.05 4.8,5.75 5.1,5.5 4.05,4.5 m -2.5,1.2 0.6,-0.45 -1,-1 -0.6,0.55 1,0.9 M 2.5,2.9 2.3,3.05 1.9,3.5 2.9,4.55 3.55,3.95 2.5,2.9 m 1.25,3.85 -1,-0.9 -0.5,0.5 L 3.1,7.3 3.75,6.75 M 4.15,8.3 4.6,8.8 5.25,8.2 4.75,7.75 4.15,8.3 M 3.2,10.05 2.75,9.65 2.3,10.1 2.75,10.55 3.2,10.05 m -2.35,2.3 0.65,-0.65 -0.45,-0.45 -0.65,0.7 0.45,0.4 m 0,-4.6 L 0.4,8.2 1.3,9.1 1.75,8.65 0.85,7.75 m 3.3,4.4 0.6,0.6 L 5.5,12.1 4.8,11.55 4.15,12.15 M 7.7,8.75 7.55,8.95 8.15,9.6 8.8,9.1 8.1,8.45 8.05,8.4 7.7,8.75 M 5.5,7 6,7.5 6.25,7.2 6.6,6.9 6.1,6.45 5.5,7 M 6,10.4 6.65,11.15 7.45,10.4 6.75,9.7 6,10.4 m 1.7,1.9 0.95,0.95 0.9,-0.85 -1,-0.9 -0.85,0.8 M 6,14 6.95,14.9 7.7,14.15 6.75,13.2 6,14 M 5.35,16.3 5.8,15.9 4.9,15.05 4.45,15.5 5.35,16.3 M 7.15,17.2 6.7,17.6 7.1,18.05 7.6,17.6 7.15,17.2 M 9.5,15.8 9,15.4 8.2,16.2 8.65,16.65 9.5,15.8 M 3.2,14.25 Q 3.45,14 3.65,13.85 l -0.6,-0.65 -0.5,0.45 0.65,0.6 M 1.15,16.2 1.65,15.7 1.1,15.1 0.65,15.55 1.15,16.2 m 2,2.1 0.65,-0.55 -0.85,-0.8 Q 2.6,17.15 2.3,17.5 l 0.85,0.8 M 3.4,21 2.5,21.95 2.8,22.25 3,21.95 3.7,21.3 3.4,21 M 4.95,20.15 5.6,19.5 5.25,19.15 4.6,19.75 4.95,20.15 M 0.2,19.55 0.9,20.3 1.8,19.5 1,18.75 0.2,19.55 m 0.85,4.4 0.45,-0.4 -0.4,-0.3 -0.4,0.35 0.35,0.35 M 4.6,24 l 0.85,0.9 1,-1 L 5.55,23 4.85,23.75 4.6,24 m 5.5,-0.15 -0.75,0.7 0.45,0.5 0.05,0.1 0.75,-0.75 -0.4,-0.5 -0.1,-0.05 M 8.95,19.8 9.9,20.75 10.35,20.3 9.4,19.35 8.95,19.8 m -0.6,2.4 -0.95,-0.9 -0.65,0.65 0.9,0.95 0.7,-0.7 m 10.8,-6.75 0.45,0.35 0.7,-0.7 -0.4,-0.4 -0.2,-0.2 -0.75,0.65 0.2,0.3 M 17.1,13.6 18.05,12.85 17.15,12 l -0.95,0.9 0.9,0.7 m 0.3,3.7 -0.3,-0.3 -0.4,0.3 -0.3,0.3 0.65,0.65 0.65,-0.6 -0.3,-0.35 m -3.6,-2.15 0.75,0.7 0.35,-0.4 0.3,-0.25 -0.75,-0.7 -0.25,0.2 -0.4,0.45 m -1.75,-1.75 0.1,-0.1 0.4,-0.4 0.15,-0.1 -0.55,-0.45 -0.55,0.45 -0.05,0.1 0.5,0.5 M 11.3,14.1 10.75,13.6 9.9,14.55 10.35,15 11.3,14.1 m 0.45,3.75 -0.4,-0.3 -0.9,0.85 0.95,0.95 0.15,-0.15 0.65,-0.9 -0.45,-0.45 m 1.3,-2 -0.95,0.95 0.75,0.85 1,-1.05 -0.8,-0.75 m 1.6,4.75 -0.25,-0.3 -0.35,-0.35 -1,1.05 0.35,0.4 0.2,0.15 1.05,-0.95 m 0.25,-0.85 0.3,0.3 1.1,-1.1 -0.6,-0.55 -1.15,1 0.35,0.35 m 0.65,6.5 L 16,25.8 15.15,25 l -0.5,0.4 0.9,0.85 m 1.9,1 -0.5,-0.45 -0.4,0.4 0.45,0.5 0.45,-0.45 m 1.45,-2.3 -0.85,0.85 0.45,0.45 0.9,-0.85 -0.5,-0.45 m -0.15,-1.65 0.95,-0.95 -1,-1 -0.95,1 1,0.95 m -3.4,0 1,-0.95 -0.95,-1 -1.05,1 1,0.95 M 17,23.05 16.15,24 17,24.8 17.9,24 17.05,23.05 H 17 m 0.05,-3.3 -1.05,1 1.05,0.95 1,-0.95 -1,-1 m 1.8,0.3 0.25,-0.25 0.4,-0.4 -1.05,-1 -0.6,0.6 1,1.05 m -5,4.55 0.5,-0.45 -0.95,-0.85 -0.5,0.45 0.95,0.85 M 11.55,22.4 12.1,23 12.55,22.55 12,21.95 11.55,22.4 m 7.65,7.4 0.45,-0.4 -0.65,-0.65 -0.4,0.4 0.6,0.65 m -6.95,1.55 0.5,0.5 0.55,-0.65 0.3,-0.25 -0.45,-0.5 -0.9,0.9 m 2.8,-2.65 -0.65,0.65 0.45,0.35 0.65,-0.55 -0.45,-0.45 m -4.6,1 0.65,0.6 1,-0.9 -0.75,-0.65 -0.9,0.95 m 1.1,-3 0.75,-0.7 -0.9,-0.8 -0.7,0.65 0.85,0.85 m 2.45,0.95 -0.8,-0.75 -0.7,0.7 0.8,0.75 0.7,-0.7 M 17,31.8 17.65,31.25 17,30.65 16.4,31.2 17,31.8 M 8.75,26.2 8.35,25.75 8.2,25.6 7.5,26.3 7.15,26.65 7.7,27.25 8.75,26.2 M 5.7,28.5 5.95,28.85 6.55,28.35 6.2,28 6,27.8 5.45,28.3 5.7,28.5 m 2.8,-0.55 0.75,0.65 1.15,-0.85 -0.9,-0.8 -1,1 M 7.3,29.05 6.75,29.6 7.3,30.15 7.85,29.65 7.9,29.6 7.3,29.05 M 3.75,26.6 4.25,26.15 3.3,25.25 2.85,25.7 l 0.9,0.9 m 5.55,4.35 -0.15,0.1 -0.4,0.4 0.5,0.5 0.4,-0.4 L 9.75,31.5 9.3,30.95 M 4.05,30.25 3.7,29.95 2.9,30.7 3.25,31 3.3,30.95 l 0.25,0.3 0.7,-0.75 -0.2,-0.25 m 26.35,-0.15 -0.45,0.35 -0.2,0.2 0.75,0.7 0.2,-0.2 0.05,0.05 0.4,-0.35 -0.75,-0.75 m 0.35,-4.75 -0.95,0.9 0.45,0.5 1,-0.9 -0.5,-0.5 m -4.4,1.9 0.55,-0.55 -0.45,-0.45 -0.55,-0.6 -0.25,0.25 -0.35,0.35 1.05,1 m 1.1,1.15 0.55,0.5 q 0.1,-0.1 0.3,-0.25 l 0.25,-0.25 -0.5,-0.55 -0.3,0.25 -0.3,0.3 m -0.2,1.3 -0.5,-0.55 -0.6,0.6 0.55,0.45 0.55,-0.5 m -3.55,-1.95 1.1,0.9 0.7,-0.7 -0.95,-1 -0.85,0.8 m -2.15,-0.1 -0.6,-0.7 -0.85,0.8 0.65,0.65 0.8,-0.75 m 1.15,-2.45 -0.85,0.9 0.65,0.6 0.9,-0.8 -0.7,-0.7 m -0.8,4.3 1,0.85 q 0.3,-0.3 0.65,-0.55 l -0.9,-1 -0.75,0.7 m 2.95,1.6 -0.05,-0.1 -0.5,0.5 0.05,0.1 0.4,0.4 0.55,-0.5 -0.45,-0.4 m -3.6,0.75 q 0.2,-0.25 0.5,-0.4 l -0.9,-0.9 -0.4,0.4 0.2,0.2 0.6,0.7"
         fill="#9a9a9a"
         fill-rule="evenodd"
         stroke="none"
         id="path30" />
      <path
         d="m 33.95,-0.85 0.55,0.25 q 0.35,0.15 0.35,0.55 L 35.05,1.5 35,21.15 v 7.2 l -0.2,2.8 q 0.35,0.25 0.35,0.8 0,0.75 -1.1,1.1 H 0.1 l -0.55,0.4 q -0.85,0 -1.05,-3.2 V 27 L -1.45,5.7 -1.65,1.85 -1.4,0.2 -1.45,-0.1 q 0,-0.6 1,-1.05 l 23.25,0.05 10.85,0.25 h 0.1 0.2 M 32.9,0.7 Q 27.2,0.65 22.8,0.85 L 0.7,0.9 V 1.85 L 0.6,5.8 0.65,26.95 v 3.3 L 0.6,30.9 H 33.4 Q 33,28.3 32.9,21.65 L 32.85,10.7 V 1.5 L 32.9,0.7"
         fill="#9a9a9a"
         fill-rule="evenodd"
         stroke="none"
         id="path31" />
    </g>
    <g
       id="sprite6">
      <use
         ffdec:characterId="362"
         height="27.1"
         transform="translate(0.65,1.2)"
         width="33.400002"
         xlink:href="#shape6"
         id="use31" />
      <use
         ffdec:characterId="364"
         height="12.45"
         transform="matrix(0.7006,0,0,0.7006,3.35,1.05)"
         width="13.05"
         xlink:href="#sprite7"
         id="use32" />
      <use
         ffdec:characterId="364"
         height="12.45"
         transform="matrix(-0.7006,0,0,0.7006,22.25,1.05)"
         width="13.05"
         xlink:href="#sprite7"
         id="use33" />
      <use
         ffdec:characterId="364"
         height="12.45"
         transform="matrix(0.7006,0,0,0.7006,23.55,1.05)"
         width="13.05"
         xlink:href="#sprite7"
         id="use34" />
      <use
         ffdec:characterId="364"
         height="12.45"
         transform="matrix(-0.7006,0,0,0.7006,17.05,9.85)"
         width="13.05"
         xlink:href="#sprite7"
         id="use35" />
      <use
         ffdec:characterId="364"
         height="12.45"
         transform="matrix(0.7006,0,0,0.7006,18.35,9.85)"
         width="13.05"
         xlink:href="#sprite7"
         id="use36" />
      <use
         ffdec:characterId="364"
         height="12.45"
         transform="matrix(0.7006,0,0,0.7006,3.35,18.85)"
         width="13.05"
         xlink:href="#sprite7"
         id="use37" />
      <use
         ffdec:characterId="364"
         height="12.45"
         transform="matrix(-0.7006,0,0,0.7006,22.25,18.85)"
         width="13.05"
         xlink:href="#sprite7"
         id="use38" />
      <use
         ffdec:characterId="364"
         height="12.45"
         transform="matrix(0.7006,0,0,0.7006,23.55,18.85)"
         width="13.05"
         xlink:href="#sprite7"
         id="use39" />
      <use
         ffdec:characterId="365"
         height="33.400002"
         width="35.400002"
         xlink:href="#shape8"
         id="use40" />
    </g>
    <g
       id="shape6"
       transform="translate(-0.65,-1.2)">
      <path
         d="M 33.45,1.2 V 28.3 H 1 V 1.2 h 32.45"
         fill="#a89f9f"
         fill-rule="evenodd"
         stroke="none"
         id="path40" />
      <path
         d="M 34.05,16.55 V 17.5 L 33.7,17.4 q -0.3,-0.25 -0.6,-0.25 l -0.6,0.7 q -0.65,0.7 -2.85,0.7 -1.35,0 -1.5,-2 0,-0.9 0.3,-1.65 l 0.3,-1.85 q 0,-0.9 0.15,-1.15 0.4,-0.9 2,-0.4 0.2,-0.75 0.55,-1.1 0.55,-0.6 2.6,-0.5 v 0.75 L 33.35,10.5 Q 31.7,10.45 31.7,12.95 l 1,-0.25 q 0.85,0 1.35,0.65 v 2.85 l -0.35,0.15 0.35,0.2 M 29.5,12.3 v 1.25 l 1,0.3 0.35,0.05 0.15,-0.35 0.4,-0.45 h -0.05 l -0.5,-0.45 -0.55,-0.45 -0.8,0.1 m 0.45,5.35 Q 31.9,17.4 32.4,16.7 l 0.05,-0.35 Q 31,16.2 30.65,14.9 v -0.1 l -0.95,0.35 q -0.65,0.15 -0.65,0.7 l 0.1,0.85 0.8,0.95 m 1.5,-3 q 0,0.4 0.45,0.65 l 1,0.3 0.1,-0.05 0.1,0.05 q 0.85,-0.1 0.85,-1 0,-0.95 -1.25,-1.05 -1,-0.15 -1.2,0.6 l 0.05,0.1 -0.05,0.1 -0.05,0.3 M 0.65,12.4 V 11.45 L 0.9,11.5 q 0.2,-0.75 0.55,-1.1 0.6,-0.65 2.8,-0.5 1.25,0.5 1.55,1.2 l 0.1,1.15 -0.3,1.25 1.1,1 0.6,1.1 q 0,0.5 -0.55,1.1 Q 6,17.55 4.85,17.55 L 3.7,17.4 Q 3.4,17.15 3.1,17.15 l -0.6,0.7 Q 2,18.4 0.65,18.5 V 17.55 Q 2,17.25 2.4,16.7 L 2.45,16.35 Q 1,16.2 0.65,14.9 v -1 h 0.2 L 1,13.55 1.4,13.1 H 1.35 L 0.85,12.65 0.65,12.4 m 2.7,-1.9 Q 1.7,10.45 1.7,12.95 l 1,-0.25 q 0.95,0 1.45,0.75 l 0.3,-0.2 q 0.6,-0.5 0.6,-1.05 0,-1.6 -1.7,-1.7 m 3.05,4.95 q 0,-1.2 -1.3,-1.1 H 4.6 L 4.7,15 4.4,15.85 3.7,16.35 q 0.2,0.2 0.7,0.2 1.1,0 1.65,-0.45 L 6.4,15.45 m -3.7,-1.9 q -1,-0.15 -1.2,0.6 l 0.05,0.1 -0.05,0.1 -0.05,0.3 q 0,0.4 0.45,0.65 l 1,0.3 0.1,-0.05 0.1,0.05 q 0.85,-0.1 0.85,-1 0,-0.95 -1.25,-1.05"
         fill="#ababab"
         fill-rule="evenodd"
         stroke="none"
         id="path41" />
      <path
         d="m 34.05,16.55 -0.35,-0.2 0.35,-0.15 v 0.35 m 0,-3.2 Q 33.55,12.7 32.7,12.7 l -1,0.25 q 0,-2.5 1.65,-2.45 l 0.7,0.15 v 2.7 m -4.1,4.3 -0.8,-0.95 -0.1,-0.85 q 0,-0.55 0.65,-0.7 l 0.95,-0.35 v 0.1 q 0.35,1.3 1.8,1.45 L 32.4,16.7 q -0.5,0.7 -2.45,0.95 m -0.45,-5.35 0.8,-0.1 0.55,0.45 0.5,0.45 h 0.05 l -0.4,0.45 -0.15,0.35 -0.35,-0.05 -1,-0.3 V 12.3 M 0.65,17.55 V 14.9 Q 1,16.2 2.45,16.35 L 2.4,16.7 Q 2,17.25 0.65,17.55 m 0,-3.65 v -1.5 l 0.2,0.25 0.5,0.45 H 1.4 L 1,13.55 0.85,13.9 H 0.65 M 6.4,15.45 6.05,16.1 q -0.55,0.45 -1.65,0.45 -0.5,0 -0.7,-0.2 L 4.4,15.85 4.7,15 4.6,14.35 h 0.5 q 1.3,-0.1 1.3,1.1 M 3.35,10.5 q 1.7,0.1 1.7,1.7 0,0.55 -0.6,1.05 l -0.3,0.2 Q 3.65,12.7 2.7,12.7 l -1,0.25 q 0,-2.5 1.65,-2.45"
         fill="#c3c3c3"
         fill-rule="evenodd"
         stroke="none"
         id="path42" />
      <path
         d="m 31.45,14.65 0.05,-0.3 0.05,-0.1 -0.05,-0.1 q 0.2,-0.75 1.2,-0.6 1.25,0.1 1.25,1.05 0,0.9 -0.85,1 L 33,15.55 32.9,15.6 31.9,15.3 Q 31.45,15.05 31.45,14.65 M 2.7,13.55 q 1.25,0.1 1.25,1.05 0,0.9 -0.85,1 L 3,15.55 2.9,15.6 1.9,15.3 Q 1.45,15.05 1.45,14.65 l 0.05,-0.3 0.05,-0.1 -0.05,-0.1 q 0.2,-0.75 1.2,-0.6"
         fill="#c9c9c9"
         fill-rule="evenodd"
         stroke="none"
         id="path43" />
    </g>
    <g
       id="sprite7">
      <use
         ffdec:characterId="363"
         height="12.45"
         width="13.05"
         xlink:href="#shape7"
         id="use43" />
    </g>
    <g
       id="shape7">
      <path
         d="M 1.95,5.3 V 3.5 L 3.1,3.35 q 0.4,0 0.75,0.65 0.3,0.65 0.7,0.65 h 0.1 L 4.1,5.3 3.85,5.8 3.35,5.7 1.95,5.3 m 5.5,-4.35 q 2.4,0.1 2.4,2.4 0,0.8 -0.85,1.5 L 8.6,5.15 Q 7.85,4.05 6.5,4.05 5.65,4.05 5.05,4.4 5.05,0.85 7.45,0.95 M 11.75,8 11.25,8.9 Q 10.5,9.55 8.9,9.55 l -1,-0.3 1,-0.65 Q 9.35,8.05 9.35,7.35 L 9.2,6.4 h 0.75 q 1.8,-0.1 1.8,1.6 M 2.6,11.1 1.4,9.8 Q 1.25,9.45 1.25,8.55 1.25,7.8 2.2,7.55 L 3.6,7.05 V 7.2 q 0.45,1.85 2.55,2.1 l -0.1,0.5 q -0.7,1 -3.45,1.3"
         fill="#c3c3c3"
         fill-rule="evenodd"
         stroke="none"
         id="path44" />
      <path
         d="m 11.05,3.4 q 0,1.15 -0.4,1.8 0.65,0.3 1.55,1.45 0.85,1.1 0.85,1.55 0,0.7 -0.8,1.6 Q 11.2,11 9.55,11 L 7.9,10.75 q -0.4,-0.3 -0.8,-0.3 l -0.9,1 q -0.95,1 -4.05,1 Q 0.2,12.45 0,9.55 0,8.25 0.45,7.2 0.85,6.2 0.85,4.55 L 1.05,2.9 Q 1.65,1.65 3.9,2.35 4.2,1.3 4.7,0.8 q 0.9,-0.95 4,-0.75 1.8,0.7 2.2,1.7 l 0.15,1.65 m 0.7,4.6 q 0,-1.7 -1.8,-1.6 H 9.2 l 0.15,0.95 q 0,0.7 -0.45,1.25 l -1,0.65 1,0.3 q 1.6,0 2.35,-0.65 L 11.75,8 M 7.45,0.95 Q 5.05,0.85 5.05,4.4 5.65,4.05 6.5,4.05 q 1.35,0 2.1,1.1 L 9,4.85 q 0.85,-0.7 0.85,-1.5 0,-2.3 -2.4,-2.4 M 1.95,5.3 3.35,5.7 3.85,5.8 4.1,5.3 4.65,4.65 H 4.55 Q 4.15,4.65 3.85,4 3.5,3.35 3.1,3.35 L 1.95,3.5 V 5.3 M 4.7,6.85 Q 4.7,7.4 5.35,7.8 6,8.2 6.75,8.2 L 6.95,8.15 7.05,8.2 Q 8.3,8.05 8.3,6.75 8.3,5.45 6.5,5.25 5.1,5.1 4.8,6.15 L 4.85,6.3 4.75,6.4 4.7,6.85 M 2.6,11.1 Q 5.35,10.8 6.05,9.8 L 6.15,9.3 Q 4.05,9.05 3.6,7.2 V 7.05 l -1.4,0.5 q -0.95,0.25 -0.95,1 0,0.9 0.15,1.25 l 1.2,1.3"
         fill="#ababab"
         fill-rule="evenodd"
         stroke="none"
         id="path45" />
      <path
         d="M 4.7,6.85 4.75,6.4 4.85,6.3 4.8,6.15 q 0.3,-1.05 1.7,-0.9 1.8,0.2 1.8,1.5 0,1.3 -1.25,1.45 L 6.95,8.15 6.75,8.2 Q 6,8.2 5.35,7.8 4.7,7.4 4.7,6.85"
         fill="#bdb7b2"
         fill-rule="evenodd"
         stroke="none"
         id="path46" />
    </g>
    <g
       id="shape8">
      <path
         d="M 32.95,2.75 H 2.45 l 0.1,2.05 -0.05,14.1 0.05,6.4 -0.1,2 2.25,0.05 h 26 l 2.25,-0.05 -0.1,-2 0.05,-6.4 -0.05,-14.1 0.1,-2.05 M 3.9,29.8 H 3.75 L 3.8,30.05 3.9,29.8 m 3.75,0 0.05,0.7 0.05,-0.4 0.05,-0.3 H 7.65 m 11.1,0.75 0.05,-0.75 h -0.45 l 0.1,1.4 -0.15,2 -0.3,0.1 -0.3,0.1 -0.3,-0.1 -0.3,-0.1 -0.15,-2 0.1,-1.4 H 16.6 l 0.05,0.75 q 0.1,2.6 -0.7,2.6 L 15.5,33.05 15.4,32.9 15.25,30.65 V 29.8 h -0.2 l 0.05,0.6 q 0,2.15 -0.65,2.6 l -0.4,-0.15 -0.2,-2.2 V 29.8 H 13.3 l 0.05,0.95 -0.1,1.4 L 13,32.3 12.65,32.35 Q 12,32.35 12,30.8 l 0.05,-1 h -0.3 l 0.05,1.1 q 0.25,1.9 -0.65,1.9 -0.55,0 -0.65,-0.75 v -1.2 -1.05 h -0.2 l 0.1,1.85 q 0.1,1.65 -0.7,1.65 -0.65,0 -0.65,-1.65 L 9.1,29.8 H 8.7 L 8.8,31.45 8.75,32.3 8,32.9 7.6,32 Q 7.5,32.95 6.9,32.9 6.5,32.2 6.5,31 l 0.05,-1.2 h -0.4 l 0.15,1.4 q 0,1.45 -0.7,1.95 Q 4.95,32.65 4.95,31.2 L 4.9,30 V 29.8 H 4.45 L 4.6,30.15 4.65,31.05 4.6,32 Q 4.55,32.6 4.15,32.9 L 3.75,32.25 Q 3.7,33.2 3.05,33.2 2.5,33.2 2.35,32.25 v -1.2 L 2.5,29.8 H 2.15 l 0.05,0.9 q 0,1.9 -0.65,2.2 Q 0.9,32.6 0.9,30.75 L 0.95,29.8 H 0.9 v 0.15 q 0,1.6 -0.55,1.75 Q 0,31.05 0,29.95 l 0.1,-1.1 V 0 h 35.2 v 28.85 l 0.1,1.1 q 0,1.1 -0.35,1.75 Q 34.5,31.55 34.5,29.95 V 29.8 h -0.05 l 0.05,0.95 q 0,1.85 -0.65,2.15 -0.65,-0.3 -0.65,-2.2 l 0.05,-0.9 H 32.9 l 0.15,1.25 v 1.2 q -0.15,0.95 -0.7,0.95 -0.65,0 -0.7,-0.95 l -0.4,0.65 Q 30.85,32.6 30.8,32 l -0.05,-0.95 0.05,-0.9 0.15,-0.35 H 30.5 V 30 l -0.05,1.2 q 0,1.45 -0.65,1.95 -0.7,-0.5 -0.7,-1.95 l 0.15,-1.4 h -0.4 L 28.9,31 q 0,1.2 -0.4,1.9 -0.6,0.05 -0.7,-0.9 l -0.4,0.9 Q 26.8,32.75 26.65,32.3 L 26.6,31.45 26.7,29.8 h -0.4 l 0.05,1.85 q 0,1.65 -0.65,1.65 -0.8,0 -0.7,-1.65 l 0.1,-1.85 h -0.2 v 1.05 1.2 q -0.1,0.75 -0.65,0.75 -0.9,0 -0.65,-1.9 l 0.05,-1.1 h -0.3 l 0.05,1 q 0,1.55 -0.65,1.55 L 22.4,32.3 22.15,32.15 22.05,30.75 22.1,29.8 h -0.55 v 0.85 l -0.2,2.2 -0.4,0.15 Q 20.3,32.55 20.3,30.4 l 0.05,-0.6 h -0.2 v 0.85 L 20,32.9 l -0.1,0.15 -0.45,0.1 q -0.8,0 -0.7,-2.6 M 31.65,29.8 H 31.5 l 0.1,0.25 0.05,-0.25 m -3.9,0 H 27.6 l 0.05,0.3 0.05,0.4 0.05,-0.7"
         fill="#9a9a9a"
         fill-rule="evenodd"
         stroke="none"
         id="path47" />
    </g>
    <g
       id="sprite8">
      <use
         ffdec:characterId="352"
         height="9.5500002"
         width="9.5"
         xlink:href="#shape9"
         id="use47" />
    </g>
    <g
       id="shape9">
      <path
         d="M 5.7,2.45 5.75,2.95 5.7,3.2 H 5.45 Q 4.9,3.3 4.9,3.9 V 4.15 L 4.7,4.3 4.45,4.5 3.85,4.35 Q 3,4.35 3,5.15 2.3,5.15 2.1,4.75 V 4.5 Q 2.1,4.1 2.5,3.45 L 2.7,3.15 3.85,2.4 5.7,2.45"
         fill="#c9c9c9"
         fill-rule="evenodd"
         stroke="none"
         id="path48" />
      <path
         d="M 5.7,3.2 5.75,2.95 5.7,2.45 Q 6.65,2.65 7.1,3.2 7.4,3.6 7.4,4.55 L 7.15,6 5.85,7.35 4,7.4 Q 2.6,7.4 2.2,6.05 L 2.1,4.75 Q 2.3,5.15 3,5.15 L 3.05,5.5 Q 3.25,6 3.85,6 4.7,6 4.7,5.2 L 4.45,4.5 4.7,4.3 4.9,4.15 Q 5,4.7 5.9,4.7 L 6.45,4.6 6.55,3.95 Q 6.15,3.2 5.7,3.2 M 3.85,2.4 2.7,3.15 3.7,2.4 h 0.15"
         fill="#ababab"
         fill-rule="evenodd"
         stroke="none"
         id="path49" />
      <path
         d="M 5.7,2.45 3.85,2.4 H 3.7 l -1,0.75 -0.2,0.3 Q 2.1,4.1 2.1,4.5 v 0.25 l 0.1,1.3 Q 2.6,7.4 4,7.4 L 5.85,7.35 7.15,6 7.4,4.55 Q 7.4,3.6 7.1,3.2 6.65,2.65 5.7,2.45 M 3,5.15 Q 3,4.35 3.85,4.35 L 4.45,4.5 4.7,5.2 Q 4.7,6 3.85,6 3.25,6 3.05,5.5 L 3,5.15 m 1.9,-1 V 3.9 Q 4.9,3.3 5.45,3.2 H 5.7 q 0.45,0 0.85,0.75 L 6.45,4.6 5.9,4.7 Q 5,4.7 4.9,4.15 m 4.6,1.5 Q 9.5,6.5 8.55,7.75 7.2,9.55 4.95,9.55 1.65,9.55 0.5,7.6 L 0,5.65 Q 0,3.5 1.05,2.05 L 1.5,1.5 2.4,0.75 Q 3.45,0.05 4.75,0 6.7,-0.05 8,1.35 9.5,2.9 9.5,5.65"
         fill="#9a9a9a"
         fill-rule="evenodd"
         stroke="none"
         id="path50" />
    </g>
    <g
       id="sprite9">
      <use
         ffdec:characterId="354"
         height="10.8"
         width="11.25"
         xlink:href="#shape10"
         id="use50" />
    </g>
    <g
       id="shape10">
      <path
         d="M 10.45,8.4 Q 9.1,10.8 5.85,10.8 2.8,10.8 1.1,9 0,7.8 0,7 0,3.5 1.75,1.6 3.3,-0.05 5.65,0 q 2.2,0.05 3.85,1.55 1.75,1.6 1.75,4 0,1.5 -0.8,2.85 M 6.35,2.2 5.5,2 4.95,1.95 3.4,2.05 2.6,2.55 Q 2,3.15 1.9,4.2 V 4.4 L 1.85,4.9 q 0,1.4 0.3,1.9 0.6,1.05 2.9,1.7 H 6.6 Q 7.55,8.15 8.35,7.15 9.1,6.25 9.1,5.65 9.1,3.05 6.35,2.2 M 3.5,4.6 3.45,4.35 q 0,-0.8 0.85,-0.75 0.5,0.05 0.75,0.3 l 0.1,0.4 q 0,0.85 -0.9,0.85 -0.7,0 -0.75,-0.55 M 5.8,4.35 q 0,-0.8 0.9,-0.8 0.85,0 0.85,0.8 0,0.4 -0.4,0.65 L 6.65,5.2 5.85,4.7 5.8,4.35 M 4.05,6.5 4.15,6.1 5.1,6.05 l 0.15,0.5 -0.1,0.5 -0.1,0.1 -0.4,0.05 q -0.6,0 -0.6,-0.7 m 2.15,0 Q 6.2,5.85 7.25,6.05 L 7.4,6.55 7.3,7.05 7.2,7.15 6.8,7.2 Q 6.2,7.2 6.2,6.5"
         fill="#9a9a9a"
         fill-rule="evenodd"
         stroke="none"
         id="path51" />
      <path
         d="M 1.9,4.4 V 4.2 Q 2,3.15 2.6,2.55 L 3.4,2.05 4.95,1.95 5.5,2 6.35,2.2 V 2.35 Q 6.35,3 5.15,3.8 L 5.05,3.9 Q 4.8,3.65 4.3,3.6 3.45,3.55 3.45,4.35 L 3.5,4.6 2.8,4.65 1.9,4.4"
         fill="#c9c9c9"
         fill-rule="evenodd"
         stroke="none"
         id="path52" />
      <path
         d="M 1.9,4.4 2.8,4.65 3.5,4.6 q 0.05,0.55 0.75,0.55 0.9,0 0.9,-0.85 L 5.05,3.9 5.15,3.8 Q 6.35,3 6.35,2.35 V 2.2 q 2.75,0.85 2.75,3.45 0,0.6 -0.75,1.5 -0.8,1 -1.75,1.35 H 5.05 Q 2.75,7.85 2.15,6.8 1.85,6.3 1.85,4.9 L 1.9,4.4 m 4.3,2.1 q 0,0.7 0.6,0.7 L 7.2,7.15 7.3,7.05 7.4,6.55 7.25,6.05 Q 6.2,5.85 6.2,6.5 m -2.15,0 q 0,0.7 0.6,0.7 L 5.05,7.15 5.15,7.05 5.25,6.55 5.1,6.05 4.15,6.1 4.05,6.5 M 5.8,4.35 5.85,4.7 6.65,5.2 7.15,5 q 0.4,-0.25 0.4,-0.65 0,-0.8 -0.85,-0.8 -0.9,0 -0.9,0.8"
         fill="#b6b6b6"
         fill-rule="evenodd"
         stroke="none"
         id="path53" />
    </g>
    <g
       id="shape11"
       transform="translate(70.55,11.65)">
      <path
         d="m -35.7,36.35 0.15,0.35 -11.85,0.25 V 37 h -1.3 -2.75 -2.7 -1.95 -11.1 -1.4 v -0.25 l -0.65,-0.05 0.15,-0.35 q -1.2,-0.25 -1.4,-3.3 l -0.05,-1.1 v -0.1 l 0.05,-1.25 q 0.2,-2.9 1.4,-3.15 l -0.15,-0.35 h 0.65 v -0.25 h 0.05 l 0.2,-3.3 V 10.8 l 0.05,-0.15 V 0.45 l 1.45,-3.25 q 1,-2.2 2.1,-3.6 3.4,-4.15 10.3,-5.25 h 5.55 q 6.9,1.1 10.3,5.25 1.1,1.4 2.1,3.6 l 1.45,3.25 v 3.7 l 2.95,-0.55 4,-0.05 h 1.3 2.75 0.75 L -24,1.9 q 0,-1.45 1.05,-1.95 1.3,-0.75 3.55,1.15 0.3,0.35 0.7,2.25 l 0.05,0.2 h 1.75 0.65 0.7 l -0.05,-0.3 q 0.25,0.1 0.4,0.3 l 3.3,0.05 q 2.5,0.15 4.15,1.05 l 2.5,1.4 h 8.5 L 5.9,4.65 Q 7.55,3.75 10.05,3.6 l 4,-0.05 h 1.3 8 1.9 0.65 l 4.35,0.05 q 2.5,0.15 4.15,1.05 L 34.45,4.7 V 0.45 L 35.9,-2.8 q 1,-2.2 2.1,-3.6 3.4,-4.15 10.3,-5.25 h 5.55 q 6.9,1.1 10.3,5.25 1.1,1.4 2.1,3.6 l 1.45,3.25 v 10.2 l 0.05,0.15 v 12.75 l 0.15,3.55 h 0.5 l -0.15,0.35 q 1.2,0.25 1.4,3.15 l 0.05,1.25 v 0.1 l -0.05,1.1 q -0.2,3.05 -1.4,3.3 L 68.4,36.7 56.55,36.95 V 37 h -1.3 -2.75 -2.7 -1.95 -11.1 -1.4 V 36.75 L 34.7,36.7 34.85,36.35 q -0.6,-0.1 -0.95,-0.9 -0.55,-0.05 -0.65,-0.8 l -0.5,0.8 q -0.75,-0.1 -0.9,-0.5 l -0.05,-0.8 v -0.8 h -0.35 l 0.05,1 q 0,1.45 -0.8,1.45 -0.95,0 -0.85,-1.45 V 33.3 h -0.1 v 0.35 1.05 q -0.15,0.65 -0.8,0.65 -1.1,0 -0.8,-1.65 V 33.3 H 27.9 v 0.3 q 0,1.35 -0.75,1.35 H 26.7 L 26.4,34.8 26.3,33.55 V 33.3 h -0.6 v 0.15 l -0.25,1.95 -0.5,0.15 Q 24.2,35.15 24.2,33.3 H 24 v 0.15 l -0.2,2 -0.1,0.15 -0.55,0.1 q -0.95,0 -0.85,-2.35 V 33.3 h -0.4 l 0.05,0.65 -0.2,1.8 -0.35,0.05 -0.35,0.1 -0.35,-0.1 -0.4,-0.05 -0.15,-1.8 V 33.3 h -0.4 v 0.05 q 0.15,2.35 -0.8,2.35 l -0.55,-0.1 -0.15,-0.15 -0.15,-2 V 33.3 h -0.2 q 0,1.85 -0.8,2.25 L 16.65,35.4 16.4,33.45 V 33.3 h -0.6 v 0.25 l -0.15,1.25 -0.3,0.15 h -0.4 q -0.8,0 -0.8,-1.35 V 33.3 H 13.9 v 0.4 q 0.3,1.65 -0.75,1.65 -0.7,0 -0.8,-0.65 V 33.65 33.3 H 12.2 l 0.05,1.05 q 0.1,1.45 -0.85,1.45 -0.8,0 -0.8,-1.45 V 33.3 h -0.35 l 0.05,0.85 -0.05,0.8 -0.9,0.5 Q 8.95,35.1 8.85,34.65 8.75,35.5 8,35.45 7.5,34.85 7.5,33.75 V 33.3 H 7.2 l 0.1,0.65 q 0,1.3 -0.85,1.75 -0.8,-0.45 -0.8,-1.75 L 5.5,33.3 H 5.3 v 0.5 L 5.25,34.65 Q 5.15,35.2 4.7,35.45 L 4.2,34.9 Q 4.15,35.75 3.35,35.75 2.7,35.75 2.5,34.9 V 33.8 L 2.6,33.3 H 2.35 v 0.2 q 0,1.7 -0.8,1.95 -0.8,-0.25 -0.8,-1.9 V 33.3 H 0.7 q -0.05,1 -0.6,1.1 l -0.4,-1.1 -0.2,-0.05 -0.15,0.05 -0.4,1.1 q -0.6,-0.1 -0.7,-1.1 v 0.25 q 0,1.65 -0.75,1.9 -0.8,-0.25 -0.8,-1.95 v -0.2 h -0.3 l 0.1,0.5 v 1.1 q -0.15,0.85 -0.85,0.85 -0.75,0 -0.85,-0.85 l -0.45,0.55 Q -6.15,35.2 -6.2,34.65 L -6.25,33.8 V 33.3 H -6.5 l -0.1,0.65 q 0,1.3 -0.8,1.75 -0.85,-0.45 -0.85,-1.75 l 0.1,-0.65 H -8.5 v 0.45 q 0,1.1 -0.5,1.7 -0.7,0.05 -0.8,-0.8 l -0.5,0.8 -0.9,-0.5 -0.05,-0.8 V 33.3 h -0.35 l 0.05,1.05 q 0,1.45 -0.8,1.45 -0.95,0 -0.85,-1.45 V 33.3 h -0.1 v 0.35 1.05 q -0.15,0.65 -0.8,0.65 -1.1,0 -0.8,-1.65 v -0.4 h -0.25 v 0.3 q 0,1.35 -0.75,1.35 h -0.45 l -0.3,-0.15 -0.1,-1.25 V 33.3 h -0.6 v 0.15 q 0,0.95 -0.25,1.95 l -0.5,0.15 q -0.75,-0.4 -0.75,-2.25 h -0.2 v 0.15 l -0.2,2 -0.1,0.15 -0.55,0.1 q -0.95,0 -0.85,-2.35 V 33.3 h -0.4 l 0.05,0.65 -0.2,1.8 -0.35,0.05 -0.35,0.1 -0.35,-0.1 -0.4,-0.05 -0.15,-1.8 V 33.3 h -0.4 v 0.05 q 0.15,2.3 -0.75,2.35 h -0.05 l -0.55,-0.1 -0.15,-0.15 -0.15,-2 V 33.3 h -0.2 q 0,1.85 -0.8,2.25 L -26.4,35.4 -26.65,33.45 V 33.3 h -0.6 v 0.25 l -0.15,1.25 -0.3,0.15 h -0.4 q -0.8,0 -0.8,-1.35 v -0.3 h -0.25 v 0.4 q 0.3,1.65 -0.75,1.65 -0.7,0 -0.8,-0.65 V 33.65 33.3 h -0.15 l 0.05,1.05 q 0.1,1.45 -0.85,1.45 -0.8,0 -0.8,-1.45 V 33.3 h -0.35 l 0.05,0.85 -0.05,0.8 -0.9,0.5 -0.5,-0.8 q -0.1,0.65 -0.6,0.8 -0.3,0.8 -0.9,0.9 M -51.15,-8.1 v 0.05 L -51.5,-8.1 h -0.15 l -0.55,0.05 V -8.1 q -6.35,0.1 -9.8,4.3 -1.8,2.25 -2.85,5.05 v 7.3 l 1.85,-0.2 1.7,-0.15 -0.25,-1.7 0.1,-0.45 q 1.25,0.15 1.6,1.75 L -59.8,8 -57.55,7.45 -58.7,6.7 V 6.1 q 1.45,-0.45 2.45,0.55 l 0.3,0.25 0.45,-0.2 2.5,-1.85 -0.2,-0.5 -0.25,-0.8 -0.05,-0.65 0.1,-0.6 0.05,-0.05 0.75,1.1 0.4,0.6 0.45,-0.65 0.05,-0.1 0.75,-1.15 -1.45,-0.55 q 0.5,-0.6 2.05,-0.6 l 0.45,-1.05 h -0.15 -1.85 l -0.05,-0.4 0.05,-0.4 2.2,-0.05 0.2,-2.6 -1.7,0.2 q -0.2,0 -0.2,-0.6 0,-0.55 1.9,-0.7 L -49.7,-6 -50,-7.8 v -0.25 l -1.15,-0.05 m 3.1,7.55 -0.45,1.6 q 0.95,0.2 1.3,0.65 l -0.45,0.45 -1.15,0.15 h -0.4 l -0.5,0.75 -0.95,1.35 -0.75,0.9 0.65,1.9 -0.2,0.2 Q -51.7,7.05 -52.3,6.25 l -2.35,2 0.5,0.55 -0.2,0.45 -1.15,-0.45 q -1.9,1.1 -3.95,1.3 l 0.05,0.4 -0.3,0.45 -0.75,-0.8 h -0.3 -4.1 v 0.6 l 0.05,0.2 v 4.55 h 2.25 v -0.15 q 0,-1.4 0.5,-1.85 0.5,0.5 0.65,1.8 v 0.2 l 1.95,0.1 q 0.05,-2 0.65,-2.35 l 0.4,2.35 2.9,0.05 q 0.1,-1 0.4,-1.55 0.65,0.4 0.9,1.55 l 4.4,0.05 -0.05,-2.4 0.05,-1.15 h -1.05 l -0.35,-0.3 q 0.45,-0.35 1.45,-0.6 l 0.05,-1.05 0.25,-1.25 -0.25,-0.3 0.4,-0.2 0.5,-1.05 0.45,0.9 2.95,-0.25 -0.2,-1.4 L -45.4,6 -45,5.7 q 0.4,0.35 0.6,1.1 l 0.1,0.3 0.2,0.85 0.65,-0.05 1.1,-0.05 V 7.3 q 0.1,-0.6 0.55,-0.75 0.2,0.4 0.25,1.25 l 3,0.05 v -6.6 q -1.05,-2.8 -2.8,-5.05 -2.7,-3.3 -7.2,-4.05 l 0.2,2.4 0.1,0.7 1.3,-0.05 0.15,0.45 q -0.45,0.3 -1.4,0.55 l 0.15,2.75 h 1.95 l -1.95,0.5 m 98.6,-7.55 -1.15,0.05 v 0.25 l -0.3,1.8 -0.2,1.3 q 1.9,0.15 1.9,0.7 0,0.6 -0.2,0.6 l -1.7,-0.2 0.2,2.6 2.2,0.05 0.05,0.4 -0.05,0.4 H 49.45 49.3 l 0.45,1.05 q 1.55,0 2.05,0.6 l -1.45,0.55 0.8,1.25 0.45,0.65 1.15,-1.7 0.05,0.05 0.1,0.6 -0.5,1.95 q 1.15,1.2 2.5,1.85 l 0.45,0.2 0.3,-0.25 q 1,-1 2.45,-0.55 V 6.7 Q 57.75,6.9 56.95,7.45 L 59.2,8 59.25,7.8 q 0.35,-1.6 1.6,-1.75 l 0.1,0.45 -0.25,1.7 1.7,0.15 1.85,0.2 V 1.25 Q 63.2,-1.55 61.4,-3.8 57.95,-8 51.6,-8.1 v 0.05 L 51.05,-8.1 H 50.9 l -0.35,0.05 V -8.1 m -3.1,7.55 -1.95,-0.5 h 1.95 L 47.6,-3.8 q -0.95,-0.25 -1.4,-0.55 l 0.15,-0.45 1.3,0.05 0.1,-0.7 0.2,-2.4 q -4.5,0.75 -7.2,4.05 -1.75,2.25 -2.8,5.05 v 6.6 l 3,-0.05 Q 41,6.95 41.2,6.55 41.65,6.7 41.75,7.3 v 0.55 h 0.55 l 1.2,0.1 0.2,-0.85 q 0.25,-1 0.7,-1.4 0.6,0.2 0.6,0.95 l -0.2,1.4 2.95,0.25 0.45,-0.9 0.5,1.05 0.4,0.2 -0.25,0.3 0.25,1.5 0.05,0.8 q 0.7,0.15 1.1,0.4 l 0.35,0.2 -0.25,0.3 h -0.1 -1.05 l 0.05,1.15 -0.05,2.4 4.4,-0.05 q 0.25,-1.15 0.9,-1.55 l 0.4,1.55 2.9,-0.05 0.4,-2.35 q 0.6,0.35 0.65,2.35 l 1.95,-0.1 v -0.2 q 0.15,-1.3 0.65,-1.8 0.5,0.45 0.5,1.85 v 0.15 h 2.25 v -4.55 l 0.05,-0.2 v -0.6 h -4.1 -0.3 l -0.75,0.8 -0.3,-0.45 0.05,-0.4 Q 56.8,9.9 54.9,8.8 l -1.15,0.45 -0.2,-0.45 0.5,-0.55 -2.35,-2 Q 51.1,7.05 50.35,7.4 L 50.15,7.2 50.8,5.3 48.6,2.3 H 48.2 L 47.05,2.15 46.6,1.7 q 0.35,-0.45 1.3,-0.65 l -0.45,-1.6 m 9.1,27.45 7.15,0.05 0.5,-3.25 v -6.9 h -2.25 q -0.1,0.8 -0.5,1 L 60.85,17.55 60.8,16.8 H 58.85 L 58.8,18.3 58.1,18.25 57.9,18.05 57.8,16.8 54.95,16.75 54.8,17.6 Q 54.65,18.5 54.3,18.85 53.85,18.5 53.7,18.5 L 53.55,16.75 49.2,16.7 v 0.8 l -0.05,0.35 0.8,0.35 0.6,0.3 -0.3,0.55 H 49.2 49.05 l -0.05,0.8 0.2,0.5 -0.35,0.35 q -0.25,0.95 -0.65,0.95 -0.35,0 -0.6,-0.7 l -1.5,0.2 -1.6,0.15 q -0.05,1 -0.55,1 l -0.5,-0.1 v -0.1 l -0.05,-0.75 -1.45,0.1 h -0.4 v 0.75 q -0.1,0.8 -0.6,0.95 -0.35,-0.6 -0.4,-1.65 L 40,21.55 H 39.3 38 v 2.15 l 0.2,1.6 0.2,1.5 9.45,0.05 h 1.2 1.2 2.35 1.15 2.8 V 26.9 M 44.05,10.3 43.8,9.9 43.6,9.45 h -1.95 l -0.2,1.3 L 41.2,10.6 41,9.45 h -3.05 v 1.3 l 0.05,0.2 v 8.4 L 39.35,19.3 H 40 40.25 q 0,-1.45 1.15,-1.6 l 0.05,1.6 h 0.7 l 1.2,0.05 q 0.05,-1.3 0.5,-1.6 0.5,0.35 0.6,1.15 v 0.45 l 1.75,0.05 h 1.15 l -0.1,-0.85 -0.9,-0.5 0.85,-0.3 v -0.1 L 47.1,13.25 47.15,11.7 45.9,11.45 45.05,11.2 q 0.7,-0.4 2.15,-0.3 l 0.15,-1 0.1,-0.45 H 44.4 l -0.15,0.45 -0.2,0.4 m 22.3,23 v -0.9 -0.5 -0.5 -0.75 -0.1 l 0.05,-1 -1.65,0.2 L 62,29.9 h -0.55 l -4.9,0.15 v 0.05 h -1.3 -1.45 -4.25 -1.7 -1.2 -0.75 -7.65 -1.55 l 0.05,0.45 v 0.85 0.5 0.5 0.15 l -0.05,0.5 v 0.3 0.25 0.05 h 0.1 1.45 1.25 0.25 1.55 0.05 0.95 4.25 1.3 1.7 5.7 1.3 v 0.15 l 4.9,0.1 H 62 l 2.75,0.15 1.65,0.15 V 33.6 L 66.35,33.3 M 13.2,7.6 V 9.9 H 34.45 V 9.3 L 32.6,8.5 Q 29.9,7.6 25.85,7.6 H 25.25 24.3 23.35 15.5 14.05 13.2 m 11.45,7 h 1.05 q 0.25,0.05 0.85,0.45 L 26,15.6 25.95,15.65 25.9,15.7 24.95,15.85 h -0.3 v 1.2 l 0.35,0.05 0.7,0.05 0.5,0.05 -0.7,0.25 -0.35,0.05 -0.5,0.05 V 22 h 4.5 V 21.9 L 29.1,21.25 q 0,-0.35 0.15,-0.45 l 0.35,-0.2 q 0.65,0.2 0.8,0.95 V 22 h 3.25 l 0.05,-0.25 0.45,-0.95 0.25,0.35 v -8.3 h -9.9 l 0.15,1.75 m -11.4,-1.75 0.45,1.4 0.1,0.2 0.8,0.4 -0.55,0.3 0.15,0.45 q 0.55,1 1.25,1.75 L 16.2,18 q 0.9,0.65 1.95,1 l 0.15,0.05 0.05,-0.05 0.2,-0.25 0.6,-0.8 h 0.6 l 0.1,0.7 -0.15,0.35 -0.1,0.3 1.2,0.05 h 1.9 v -0.5 -0.3 l -0.05,-0.75 -0.3,0.05 -0.5,-0.1 -0.1,-0.15 -0.05,-0.35 0.05,-0.35 0.1,0.05 h 0.8 V 15.9 l -0.9,-0.2 -0.15,-0.1 -0.25,-0.35 q 0.2,-0.35 1,-0.45 h 0.35 l 0.05,-0.9 0.2,-1.05 h -9.7 M 17.7,20.1 Q 16.55,19.7 15.6,19 l 0.3,1.7 0.05,0.8 0.05,3.7 v 0.75 l 5.6,-0.2 q 0.2,-0.95 0.75,-1.55 0.4,0.3 0.6,1.55 H 23 l 1.2,-0.05 3.6,0.05 0.3,-0.75 0.2,-0.25 0.2,0.25 0.05,0.15 0.15,0.4 0.05,0.2 H 33 l 0.3,-0.7 q 0.5,-0.1 0.6,0.7 h 0.35 l 0.05,-1.2 -0.35,-0.05 -0.3,-0.85 H 30.4 v 0.2 L 29.85,24.75 29.3,24.6 29.25,23.65 H 23.7 l -0.2,-0.2 q -0.55,-0.9 -0.75,-2.3 l -0.05,-0.4 v -0.3 l -1.85,0.15 -2,-0.2 -0.55,0.3 -0.2,0.1 -0.4,-0.2 V 20.1 M 12.25,7.65 10.75,7.8 V 9.9 H 12.2 V 8.5 L 12.25,7.65 M 4.7,17.05 Q 4.8,15.65 5.2,15.4 H 5.6 L 5.75,17.05 8.2,17 q 0.2,-0.55 0.7,-0.25 l 0.35,0.3 h 0.2 L 9.7,17.5 v 0.35 L 9.55,17.9 v 0.2 l 0.15,1.7 0.05,4.15 0.85,0.1 0.3,0.1 0.6,0.3 Q 10.7,25 10.1,25 H 9.75 l 0.05,1.85 h 0.15 l 0.5,-0.05 q 0.7,0.05 0.8,0.4 v 0.1 L 11.1,27.75 10.6,27.8 H 9.8 l 0.05,2.5 h 4.7 L 14.5,25.25 14.1,21.3 V 20.7 L 14.2,19.8 14.1,19 v -0.3 l 0.25,-0.75 -0.15,-0.2 -1.4,-1.85 v -0.05 l -0.35,0.1 H 12 q -0.55,0 -0.85,-0.5 l 1.05,-0.8 0.05,-0.05 -0.1,-0.3 -0.05,-0.95 v -0.5 H 1.25 v 4.2 h 1 q 0.1,-0.8 0.35,-1.35 0.5,0.3 0.65,0.9 l 0.1,0.35 v 0.1 H 4.7 M 4.85,9.9 H 9.5 L 9.55,8 Q 8.55,8.2 7.7,8.5 6.25,9 4.75,9.9 h 0.1 m -3.6,14.95 0.45,4.9 V 30.3 H 8.1 V 30 L 8.2,27.8 H 7.95 L 6.45,27.4 6.5,27.25 6.8,27.2 8.2,27 8.25,25.85 V 25 H 7.6 L 6.9,24.4 7.1,23.95 7.6,23.9 8.2,23.95 8.15,18.6 V 18.1 H 5.75 L 5.7,18.65 5.6,19.55 4.95,19.5 4.8,19.3 4.75,18.95 4.7,18.1 H 3.3 v 0.6 L 2.75,19.35 2.35,19.25 2.2,18.5 V 18.1 H 1.25 v 6.75 m 27.45,2.3 -0.4,0.75 -0.55,-0.7 v -0.05 h -4.6 L 23,27.4 22.45,27.8 21.8,27.15 h -3 l -2.75,-0.2 v 1.5 l -0.1,1.85 h 17.5 q 0.2,-1.75 0.75,-2.45 V 27.1 H 33.8 L 33.45,27.5 33.05,27.25 33,27.1 28.7,27.15 M -7.25,9.85 H -6.8 Q -8.2,9 -9.55,8.5 L -9.85,8.45 V 8.5 L -9.9,9.85 h 2.65 M -26.65,7.6 h -1.45 l -1.25,0.05 V 9 q 0.45,0.15 0.75,0.45 l -0.75,0.3 V 9.9 h 10.2 V 7.65 l -4.9,-0.05 h -2.6 m 8.6,0.05 0.1,2.2 h 7 L -11.1,8.5 V 8.1 l -5.2,-0.5 h -0.6 v 0.05 h -1.15 m -1.95,8.4 4.3,0.05 0.05,-0.15 0.4,-0.25 0.35,0.4 h 4.2 l 0.05,-0.3 0.25,-0.45 0.2,-0.1 0.4,-0.2 0.35,0.15 q 0.15,0.1 0.15,0.5 l -0.05,0.4 h 2.8 l 0.4,-1.45 q 0.5,0.35 0.6,1.1 v 0.35 h 2.95 v -0.95 l 0.25,-2.35 -0.35,0.05 -4.55,0.05 h -25.5 l 0.1,3.35 2,-0.15 0.75,-0.05 h 3 l 0.65,-0.65 q 0.7,0.5 0.7,0.65 h 4.6 V 16 l 0.5,-0.65 0.05,-0.05 v 0.05 l 0.4,0.7 m -11,7.05 v -0.5 l 0.4,-0.2 0.6,0.3 0.15,0.1 0.95,-0.15 1.05,-0.05 1.85,0.15 0.05,-0.7 V 22 q 0.2,-1.55 0.95,-2.45 h 5.55 l 0.05,-0.95 0.55,-0.15 q 0.45,0.4 0.55,0.9 v 0.2 h 3.25 l 0.3,-0.85 0.45,-0.05 0.35,0.9 h 6.3 l 0.55,0.9 q 0.35,0.85 0.5,2.25 l 0.05,2.8 0.5,0.05 0.3,0.05 h 0.1 l 1.3,0.25 q -1.45,1 -2.2,0.75 l -0.05,0.8 1.2,0.15 q -0.35,0.35 -1.2,0.6 l -0.3,2.2 h 4.3 L -2.55,29.9 -2.3,26.65 V 26.6 l -0.3,-6 v -3.2 h -3 q -0.05,0.75 -0.5,1.05 l -0.45,-1.05 -3,0.05 -0.4,0.9 q -0.55,-0.05 -0.7,-0.9 h -4.15 q -0.1,0.8 -0.6,0.7 l -0.3,-0.7 h -4.25 q -0.1,0.7 -0.45,1 l -0.5,-1 -3.6,0.05 -1.25,-0.05 q -0.2,1.25 -0.6,1.55 h -0.05 l -0.3,-0.45 -0.4,-1.1 -5.6,-0.2 v 0.35 0.4 0.35 1 l -0.05,2.35 -0.15,1.65 -0.2,0.85 0.35,-0.25 1.3,-0.7 0.45,-0.15 m 6.95,5.5 -0.15,1.75 h 16 L -8.7,29 v -0.5 l -1.9,-0.35 0.25,-0.35 0.05,-0.1 1.15,-0.3 0.45,-0.05 v -1.2 q -0.5,0.1 -1.1,0.35 -0.6,-0.15 -0.7,-0.45 l 0.55,-0.5 1.25,-0.1 V 21.2 h -5.25 v 0.1 q -0.05,0.4 -0.45,0.9 l -0.15,0.2 -0.1,-0.2 -0.4,-1 h -3.25 v 0.45 l -0.2,0.5 -0.6,0.45 -0.35,-0.2 -0.15,-0.25 v -0.2 l 0.05,-0.75 h -4.5 v 4.45 q 1.2,0.1 1.55,0.35 l -1.55,0.15 v 1.2 l 1.3,0.2 0.6,0.6 -0.5,0.3 -0.35,0.15 h -1.05 m 1.45,-26.9 1.05,1.85 h 2.15 q -0.7,-2.5 -2.6,-2.5 -0.45,0 -0.55,0.35 l -0.05,0.3 m -11.85,6.8 -0.6,0.25 V 9.9 h 4.4 V 9.85 l -1.6,-0.3 q 0,-0.55 0.7,-0.65 l 0.9,-0.05 v -1.1 l -3.8,0.75 m -10.2,1.8 -0.2,-0.4 L -45,9.45 h -3.05 l 0.1,0.45 0.15,1 2.15,0.3 -0.85,0.25 -1.25,0.25 0.05,1.2 v 0.35 l -0.1,4.4 v 0.1 l 0.85,0.3 -0.9,0.5 -0.1,0.85 2.9,-0.05 V 18.9 q 0.1,-0.8 0.6,-1.15 0.45,0.3 0.5,1.6 l 1.9,-0.05 0.05,-1.6 q 0.6,0.1 0.85,0.5 0.3,0.4 0.3,1.1 h 0.35 0.55 l 1,0.05 h 0.35 v -8.4 l 0.05,-0.2 v -1.3 h -3.05 l -0.2,1.15 -0.25,0.15 -0.2,-1.3 h -1.95 l -0.2,0.45 -0.25,0.4 m 10.15,15.15 0.15,-0.2 -0.25,-0.75 0.1,-1.1 -0.1,-1.5 0.1,-1.4 0.3,-2.55 0.05,-5.05 H -35 v 10.65 l 0.15,2.3 0.35,-0.4 m -12.9,1.45 8.35,0.1 0.45,-3.3 v -2.15 h -0.4 -0.9 -0.65 l -0.6,-0.05 q -0.05,1.05 -0.4,1.65 -0.5,-0.15 -0.6,-0.95 v -0.75 l -1.85,-0.1 -0.05,0.75 v 0.1 l -0.5,0.1 q -0.5,0 -0.55,-1 L -48,21 -48.2,20.95 q -0.25,0.7 -0.6,0.7 -0.4,0 -0.65,-0.95 l -0.35,-0.35 0.2,-0.5 -0.05,-0.8 h -0.15 -1.05 l -0.3,-0.55 1.4,-0.65 -0.05,-0.35 v -0.8 l -4.35,0.05 -0.15,1.75 q -0.15,0 -0.6,0.35 -0.35,-0.35 -0.5,-1.25 l -0.15,-0.85 -2.85,0.05 -0.1,1.25 -0.2,0.2 -0.7,0.05 -0.05,-1.5 h -1.95 l -0.05,0.75 -0.6,0.25 q -0.4,-0.2 -0.5,-1 h -2.25 v 6.9 l 0.45,3.1 8.25,0.05 h 1.2 1.2 2.35 1.15 2.8 v 0.05 m 21.65,3.45 -0.25,-1.9 V 28.4 h -0.35 q -0.8,-0.1 -1,-0.45 l 0.4,-0.45 0.9,-0.2 v -1.05 h -0.8 l -0.1,0.05 -0.05,-0.35 0.05,-0.35 0.1,-0.15 0.5,-0.1 0.3,0.05 0.05,-0.75 v -0.8 h -1.9 l -1.05,0.05 h -0.15 l 0.15,0.45 0.1,0.2 -0.1,0.7 h -0.6 l -0.45,-0.5 -0.35,-0.55 -0.05,-0.05 -1,0.4 -1.25,0.8 q -1.05,0.85 -1.85,2.2 v 0.05 l -0.15,0.45 0.55,0.3 -0.55,0.35 0.3,1.65 h 8.6 M -37.6,33.3 v -0.9 -0.5 -0.5 -0.85 l 0.05,-1 -1.65,0.2 -2.75,0.15 h -0.55 l -4.9,0.15 v 0.05 h -1.3 -1.45 -4.25 -1.7 -1.2 -0.75 -7.65 -1.55 l 0.05,0.45 v 0.1 0.75 0.5 0.5 0.15 l -0.05,0.5 v 0.55 0.05 h 1.55 8.3 1.3 1.7 5.7 1.3 v 0.15 l 4.2,0.1 h 0.7 0.05 0.15 0.35 1.25 0.15 l 1.35,0.15 1.45,0.15 h 0.2 v -0.6 l -0.05,-0.3"
         fill="#6b6b6b"
         fill-rule="evenodd"
         stroke="none"
         id="path54" />
      <path
         d="m 66.35,33.3 0.05,0.3 H 64.65 L 59.1,33 l -7.2,-0.6 -2.1,0.05 -11.9,0.65 -1.2,-0.05 0.05,-0.5 13.15,-0.6 2.05,-0.05 4.2,0.05 q 2.25,0.15 3.95,0.85 l 4.05,0.45 2.2,0.05 m -103.95,0 0.05,0.3 h -1.75 -1.2 l -0.2,-0.05 -1.6,-0.15 h -0.05 l -2.5,-0.4 -6,-0.55 -1.2,-0.05 -14,0.7 -1.2,-0.05 0.05,-0.5 15.2,-0.65 h 0.65 l 3.55,0.05 q 2.25,0.15 3.95,0.85 l 4.05,0.45 2.2,0.05"
         fill="#989898"
         fill-rule="evenodd"
         stroke="none"
         id="path55" />
      <path
         d="M 36.75,32.55 V 32.4 31.9 31.4 30.55 L 36.7,30.1 h 1.55 7.65 0.75 1.2 1.7 4.25 1.45 1.3 v -0.05 l 4.9,-0.15 H 62 l 2.75,-0.15 1.65,-0.2 -0.05,1 v 0.1 0.75 0.5 0.5 0.9 L 64.15,33.25 60.1,32.8 q -1.7,-0.7 -3.95,-0.85 l -4.2,-0.05 -2.05,0.05 -13.15,0.6 M 66.4,33.6 v 0.6 L 64.75,34.05 62,33.9 h -0.55 l -4.9,-0.1 v -0.15 h -1.3 -5.7 -1.7 -1.3 H 42.3 41.35 41.3 39.75 39.5 38.25 36.8 36.7 v -0.05 -0.25 -0.3 l 1.2,0.05 11.9,-0.65 2.1,-0.05 7.2,0.6 5.55,0.6 H 66.4 M -67.2,32.55 v -0.15 -0.5 -0.5 -0.75 -0.1 l -0.05,-0.45 h 1.55 7.65 0.75 1.2 1.7 4.25 1.45 1.3 v -0.05 l 4.9,-0.15 h 0.55 l 2.75,-0.15 1.65,-0.2 -0.05,1 v 0.85 0.5 0.5 0.9 l -2.2,-0.05 -4.05,-0.45 q -1.7,-0.7 -3.95,-0.85 L -51.35,31.9 H -52 l -15.2,0.65 m 29.65,1.05 v 0.6 h -0.2 l -1.45,-0.15 -1.35,-0.15 h -0.15 -1.25 -0.35 -0.15 -0.05 -0.7 l -4.2,-0.1 v -0.15 h -1.3 -5.7 -1.7 -1.3 -8.3 -1.55 V 33.6 33.05 l 1.2,0.05 14,-0.7 1.2,0.05 6,0.55 2.5,0.4 h 0.05 l 1.6,0.15 0.2,0.05 h 1.2 1.75"
         fill="#b2a69a"
         fill-rule="evenodd"
         stroke="none"
         id="path56" />
      <path
         d="m -51.15,-8.1 1.15,0.05 v 0.25 l 0.3,1.8 0.2,1.3 q -1.9,0.15 -1.9,0.7 0,0.6 0.2,0.6 l 1.7,-0.2 -0.2,2.6 -2.2,0.05 -0.05,0.4 0.05,0.4 h 1.85 0.15 l -0.45,1.05 q -1.55,0 -2.05,0.6 l 1.45,0.55 -0.75,1.15 -0.05,0.1 -0.45,0.65 -0.4,-0.6 -0.75,-1.1 -0.05,0.05 -0.1,0.6 0.05,0.65 0.25,0.8 0.2,0.5 -2.5,1.85 -0.45,0.2 -0.3,-0.25 q -1,-1 -2.45,-0.55 V 6.7 L -57.55,7.45 -59.8,8 -59.85,7.8 q -0.35,-1.6 -1.6,-1.75 l -0.1,0.45 0.25,1.7 -1.7,0.15 -1.85,0.2 v -7.3 q 1.05,-2.8 2.85,-5.05 3.45,-4.2 9.8,-4.3 v 0.05 l 0.55,-0.05 h 0.15 l 0.35,0.05 V -8.1 m 101.7,0 v 0.05 L 50.9,-8.1 h 0.15 l 0.55,0.05 V -8.1 q 6.35,0.1 9.8,4.3 1.8,2.25 2.85,5.05 v 7.3 L 62.4,8.35 60.7,8.2 60.95,6.5 60.85,6.05 Q 59.6,6.2 59.25,7.8 L 59.2,8 56.95,7.45 Q 57.75,6.9 58.1,6.7 V 6.1 Q 56.65,5.65 55.65,6.65 L 55.35,6.9 54.9,6.7 Q 53.55,6.05 52.4,4.85 L 52.9,2.9 52.8,2.3 52.75,2.25 51.6,3.95 51.15,3.3 50.35,2.05 51.8,1.5 Q 51.3,0.9 49.75,0.9 L 49.3,-0.15 h 0.15 1.85 l 0.05,-0.4 -0.05,-0.4 -2.2,-0.05 -0.2,-2.6 1.7,0.2 q 0.2,0 0.2,-0.6 0,-0.55 -1.9,-0.7 l 0.2,-1.3 0.3,-1.8 v -0.25 l 1.15,-0.05 m 6,35 v -0.05 h -2.8 -1.15 -2.35 -1.2 -1.2 L 38.4,26.8 38.2,25.3 38,23.7 v -2.15 h 1.3 0.7 l 0.55,-0.05 q 0.05,1.05 0.4,1.65 0.5,-0.15 0.6,-0.95 v -0.75 h 0.4 l 1.45,-0.1 0.05,0.75 v 0.1 l 0.5,0.1 q 0.5,0 0.55,-1 l 1.6,-0.15 1.5,-0.2 q 0.25,0.7 0.6,0.7 0.4,0 0.65,-0.95 l 0.35,-0.35 -0.2,-0.5 0.05,-0.8 h 0.15 1.05 l 0.3,-0.55 -0.6,-0.3 -0.8,-0.35 0.05,-0.35 v -0.8 l 4.35,0.05 0.15,1.75 q 0.15,0 0.6,0.35 0.35,-0.35 0.5,-1.25 l 0.15,-0.85 2.85,0.05 0.1,1.25 0.2,0.2 0.7,0.05 0.05,-1.5 h 1.95 l 0.05,0.75 0.6,0.25 q 0.4,-0.2 0.5,-1 h 2.25 v 6.9 L 63.7,26.95 56.55,26.9 M 13.25,12.85 h 9.7 l -0.2,1.05 -0.05,0.9 h -0.35 q -0.8,0.1 -1,0.45 l 0.25,0.35 0.15,0.1 0.9,0.2 v 1.05 h -0.8 l -0.1,-0.05 -0.05,0.35 0.05,0.35 0.1,0.15 0.5,0.1 0.3,-0.05 0.05,0.75 v 0.3 0.5 h -1.9 l -1.2,-0.05 0.1,-0.3 0.15,-0.35 -0.1,-0.7 h -0.6 l -0.6,0.8 L 18.35,19 18.3,19.05 18.15,19 Q 17.1,18.65 16.2,18 L 15.45,17.35 Q 14.75,16.6 14.2,15.6 l -0.15,-0.45 0.55,-0.3 -0.8,-0.4 -0.1,-0.2 -0.45,-1.4 M 4.85,9.9 H 4.75 Q 6.25,9 7.7,8.5 8.55,8.2 9.55,8 L 9.5,9.9 H 4.85 M 4.7,17.05 H 3.35 v -0.1 L 3.25,16.6 Q 3.1,16 2.6,15.7 2.35,16.25 2.25,17.05 h -1 v -4.2 H 12.1 v 0.5 l 0.05,0.95 0.1,0.3 -0.05,0.05 -1.05,0.8 q 0.3,0.5 0.85,0.5 h 0.45 l 0.35,-0.1 v 0.05 l 1.4,1.85 0.15,0.2 -0.25,0.75 V 19 l 0.1,0.8 -0.1,0.9 v 0.6 l 0.4,3.95 0.05,5.05 H 9.85 L 9.8,27.8 h 0.8 l 0.5,-0.05 0.15,-0.45 v -0.1 q -0.1,-0.35 -0.8,-0.4 l -0.5,0.05 H 9.8 L 9.75,25 h 0.35 q 0.6,0 1.4,-0.55 L 10.9,24.15 10.6,24.05 9.75,23.95 9.7,19.8 9.55,18.1 V 17.9 L 9.7,17.85 V 17.5 L 9.45,17.05 H 9.25 L 8.9,16.75 Q 8.4,16.45 8.2,17 L 5.75,17.05 5.6,15.4 H 5.2 Q 4.8,15.65 4.7,17.05 M -7.25,9.85 H -9.9 L -9.85,8.5 V 8.45 l 0.3,0.05 Q -8.2,9 -6.8,9.85 H -7.25 M -31,23.1 l -0.45,0.15 -1.3,0.7 -0.35,0.25 0.2,-0.85 0.15,-1.65 0.05,-2.35 v -1 V 18 17.6 17.25 l 5.6,0.2 0.4,1.1 0.3,0.45 h 0.05 q 0.4,-0.3 0.6,-1.55 l 1.25,0.05 3.6,-0.05 0.5,1 q 0.35,-0.3 0.45,-1 h 4.25 l 0.3,0.7 q 0.5,0.1 0.6,-0.7 h 4.15 q 0.15,0.85 0.7,0.9 l 0.4,-0.9 3,-0.05 0.45,1.05 q 0.45,-0.3 0.5,-1.05 h 3 v 3.2 l 0.3,6 v 0.05 l -0.25,3.25 -0.05,0.45 h -4.3 l 0.3,-2.2 q 0.85,-0.25 1.2,-0.6 l -1.2,-0.15 0.05,-0.8 q 0.75,0.25 2.2,-0.75 l -1.3,-0.25 h -0.1 l -0.3,-0.05 -0.5,-0.05 -0.05,-2.8 q -0.15,-1.4 -0.5,-2.25 l -0.55,-0.9 h -6.3 l -0.35,-0.9 -0.45,0.05 -0.3,0.85 h -3.25 v -0.2 q -0.1,-0.5 -0.55,-0.9 l -0.55,0.15 -0.05,0.95 H -25 q -0.75,0.9 -0.95,2.45 v 0.05 l -0.05,0.7 -1.85,-0.15 -1.05,0.05 -0.95,0.15 -0.15,-0.1 -0.6,-0.3 -0.4,0.2 v 0.5 m -13.65,-12.8 0.25,-0.4 0.2,-0.45 h 1.95 l 0.2,1.3 0.25,-0.15 0.2,-1.15 h 3.05 v 1.3 l -0.05,0.2 v 8.4 h -0.35 l -1,-0.05 h -0.55 -0.35 q 0,-0.7 -0.3,-1.1 -0.25,-0.4 -0.85,-0.5 l -0.05,1.6 -1.9,0.05 q -0.05,-1.3 -0.5,-1.6 -0.5,0.35 -0.6,1.15 v 0.45 l -2.9,0.05 0.1,-0.85 0.9,-0.5 -0.85,-0.3 v -0.1 l 0.1,-4.4 V 12.9 l -0.05,-1.2 1.25,-0.25 0.85,-0.25 -2.15,-0.3 -0.15,-1 -0.1,-0.45 H -45 l 0.15,0.45 0.2,0.4 m 10.2,-1.8 3.8,-0.75 v 1.1 l -0.9,0.05 q -0.7,0.1 -0.7,0.65 l 1.6,0.3 V 9.9 h -4.4 V 8.75 l 0.6,-0.25 m -0.05,16.95 -0.35,0.4 -0.15,-2.3 V 12.9 h 0.85 l -0.05,5.05 -0.3,2.55 -0.1,1.4 0.1,1.5 -0.1,1.1 0.25,0.75 -0.15,0.2 m 8.75,4.9 h -8.6 l -0.3,-1.65 0.55,-0.35 -0.55,-0.3 0.15,-0.45 v -0.05 q 0.8,-1.35 1.85,-2.2 l 1.25,-0.8 1,-0.4 0.05,0.05 0.35,0.55 0.45,0.5 h 0.6 l 0.1,-0.7 -0.1,-0.2 -0.15,-0.45 h 0.15 l 1.05,-0.05 h 1.9 v 0.8 l -0.05,0.75 -0.3,-0.05 -0.5,0.1 -0.1,0.15 -0.05,0.35 0.05,0.35 0.1,-0.05 h 0.8 v 1.05 l -0.9,0.2 -0.4,0.45 q 0.2,0.35 1,0.45 H -26 v 0.05 l 0.25,1.9"
         fill="#afafaf"
         fill-rule="evenodd"
         stroke="none"
         id="path57" />
      <path
         d="m -48.05,-0.55 1.95,-0.5 h -1.95 L -48.2,-3.8 q 0.95,-0.25 1.4,-0.55 l -0.15,-0.45 -1.3,0.05 -0.1,-0.7 -0.2,-2.4 q 4.5,0.75 7.2,4.05 1.75,2.25 2.8,5.05 v 6.6 l -3,-0.05 Q -41.6,6.95 -41.8,6.55 -42.25,6.7 -42.35,7.3 V 7.85 L -43.45,7.9 -44.1,7.95 -44.3,7.1 -44.4,6.8 Q -44.6,6.05 -45,5.7 l -0.4,0.3 -0.2,0.65 0.2,1.4 -2.95,0.25 -0.45,-0.9 -0.5,1.05 -0.4,0.2 0.25,0.3 -0.25,1.25 -0.05,1.05 q -1,0.25 -1.45,0.6 l 0.35,0.3 h 1.05 l -0.05,1.15 0.05,2.4 -4.4,-0.05 q -0.25,-1.15 -0.9,-1.55 -0.3,0.55 -0.4,1.55 l -2.9,-0.05 -0.4,-2.35 q -0.6,0.35 -0.65,2.35 l -1.95,-0.1 v -0.2 q -0.15,-1.3 -0.65,-1.8 -0.5,0.45 -0.5,1.85 v 0.15 h -2.25 v -4.55 l -0.05,-0.2 v -0.6 h 4.1 0.3 l 0.75,0.8 0.3,-0.45 -0.05,-0.4 q 2.05,-0.2 3.95,-1.3 l 1.15,0.45 0.2,-0.45 -0.5,-0.55 2.35,-2 q 0.6,0.8 1.35,1.15 l 0.2,-0.2 -0.65,-1.9 0.75,-0.9 0.95,-1.35 0.5,-0.75 h 0.4 l 1.15,-0.15 0.45,-0.45 q -0.35,-0.45 -1.3,-0.65 l 0.45,-1.6 m 95.5,0 0.45,1.6 q -0.95,0.2 -1.3,0.65 l 0.45,0.45 1.15,0.15 h 0.4 l 2.2,3 -0.65,1.9 0.2,0.2 Q 51.1,7.05 51.7,6.25 l 2.35,2 -0.5,0.55 0.2,0.45 1.15,-0.45 q 1.9,1.1 3.95,1.3 l -0.05,0.4 0.3,0.45 0.75,-0.8 h 0.3 4.1 v 0.6 l -0.05,0.2 v 4.55 h -2.25 v -0.15 q 0,-1.4 -0.5,-1.85 -0.5,0.5 -0.65,1.8 v 0.2 l -1.95,0.1 q -0.05,-2 -0.65,-2.35 l -0.4,2.35 -2.9,0.05 -0.4,-1.55 q -0.65,0.4 -0.9,1.55 l -4.4,0.05 0.05,-2.4 -0.05,-1.15 h 1.05 0.1 l 0.25,-0.3 -0.35,-0.2 q -0.4,-0.25 -1.1,-0.4 L 49.1,10.45 48.85,8.95 49.1,8.65 48.7,8.45 48.2,7.4 47.75,8.3 44.8,8.05 45,6.65 Q 45,5.9 44.4,5.7 43.95,6.1 43.7,7.1 L 43.5,7.95 42.3,7.85 H 41.75 V 7.3 Q 41.65,6.7 41.2,6.55 41,6.95 40.95,7.8 l -3,0.05 v -6.6 q 1.05,-2.8 2.8,-5.05 2.7,-3.3 7.2,-4.05 l -0.2,2.4 -0.1,0.7 -1.3,-0.05 -0.15,0.45 q 0.45,0.3 1.4,0.55 l -0.15,2.75 H 45.5 l 1.95,0.5 M 24.65,14.6 24.5,12.85 h 9.9 v 8.3 L 34.15,20.8 33.7,21.75 33.65,22 H 30.4 V 21.55 Q 30.25,20.8 29.6,20.6 l -0.35,0.2 q -0.15,0.1 -0.15,0.45 l 0.05,0.65 V 22 h -4.5 V 17.55 L 25.15,17.5 25.5,17.45 26.2,17.2 25.7,17.15 25,17.1 24.65,17.05 v -1.2 h 0.3 L 25.9,15.7 25.95,15.65 26,15.6 26.55,15.05 q -0.6,-0.4 -0.85,-0.45 h -1.05 m -6.95,5.5 v 0.5 l 0.4,0.2 0.2,-0.1 0.55,-0.3 2,0.2 1.85,-0.15 v 0.3 l 0.05,0.4 q 0.2,1.4 0.75,2.3 l 0.2,0.2 h 5.55 l 0.05,0.95 0.55,0.15 0.55,-0.9 v -0.2 h 3.25 l 0.3,0.85 0.35,0.05 -0.05,1.2 H 33.9 q -0.1,-0.8 -0.6,-0.7 L 33,25.75 H 28.75 L 28.7,25.55 28.55,25.15 28.5,25 28.3,24.75 28.1,25 27.8,25.75 24.2,25.7 23,25.75 H 22.95 Q 22.75,24.5 22.35,24.2 21.8,24.8 21.6,25.75 L 16,25.95 V 25.2 L 15.95,21.5 15.9,20.7 15.6,19 q 0.95,0.7 2.1,1.1 M 12.25,7.65 12.2,8.5 V 9.9 H 10.75 V 7.8 l 1.5,-0.15 m -11,17.2 V 18.1 H 2.2 v 0.4 l 0.15,0.75 0.4,0.1 0.55,-0.65 v -0.6 h 1.4 l 0.05,0.85 0.05,0.35 0.15,0.2 0.65,0.05 0.1,-0.9 0.05,-0.55 h 2.4 v 0.5 L 8.2,23.95 7.6,23.9 7.1,23.95 6.9,24.4 7.6,25 h 0.65 v 0.85 L 8.2,27 6.8,27.2 6.5,27.25 6.45,27.4 7.95,27.8 H 8.2 L 8.1,30 v 0.3 H 1.7 v -0.55 l -0.45,-4.9 m -19.3,-17.2 h 1.15 V 7.6 h 0.6 l 5.2,0.5 v 0.4 l 0.15,1.35 h -7 l -0.1,-2.2 m -8.6,-0.05 h 2.6 l 4.9,0.05 V 9.9 h -10.2 V 9.75 l 0.75,-0.3 Q -28.9,9.15 -29.35,9 V 7.65 L -28.1,7.6 h 1.45"
         fill="#e0e0e0"
         fill-rule="evenodd"
         stroke="none"
         id="path58" />
      <path
         d="m 44.05,10.3 0.2,-0.4 0.15,-0.45 h 3.05 l -0.1,0.45 -0.15,1 q -1.45,-0.1 -2.15,0.3 l 0.85,0.25 1.25,0.25 -0.05,1.55 0.1,4.4 v 0.1 l -0.85,0.3 0.9,0.5 0.1,0.85 H 46.2 L 44.45,19.35 V 18.9 q -0.1,-0.8 -0.6,-1.15 -0.45,0.3 -0.5,1.6 l -1.2,-0.05 h -0.7 L 41.4,17.7 q -1.15,0.15 -1.15,1.6 H 40 39.35 L 38,19.35 v -8.4 l -0.05,-0.2 V 9.45 H 41 l 0.2,1.15 0.25,0.15 0.2,-1.3 h 1.95 l 0.2,0.45 0.25,0.4 M 13.2,7.6 h 0.85 1.45 7.85 0.95 0.95 0.6 q 4.05,0 6.75,0.9 l 1.85,0.8 V 9.9 H 13.2 V 7.6 m 15.5,19.55 4.3,-0.05 0.05,0.15 0.4,0.25 0.35,-0.4 h 0.4 v 0.75 q -0.55,0.7 -0.75,2.45 h -17.5 l 0.1,-1.85 v -1.5 l 2.75,0.2 h 3 l 0.65,0.65 0.55,-0.4 0.15,-0.25 h 4.6 v 0.05 l 0.55,0.7 0.4,-0.75 M -20,16.05 -20.4,15.35 V 15.3 l -0.05,0.05 -0.5,0.65 v 0.05 h -4.6 q 0,-0.15 -0.7,-0.65 l -0.65,0.65 h -3 l -0.75,0.05 -2,0.15 -0.1,-3.35 h 25.5 l 4.55,-0.05 0.35,-0.05 -0.25,2.35 v 0.95 h -2.95 v -0.35 q -0.1,-0.75 -0.6,-1.1 l -0.4,1.45 h -2.8 l 0.05,-0.4 q 0,-0.4 -0.15,-0.5 l -0.35,-0.15 -0.4,0.2 -0.2,0.1 -0.25,0.45 -0.05,0.3 h -4.2 l -0.35,-0.4 -0.4,0.25 -0.05,0.15 -4.3,-0.05 M -24.05,28.6 H -23 l 0.35,-0.15 0.5,-0.3 -0.6,-0.6 -1.3,-0.2 v -1.2 L -22.5,26 q -0.35,-0.25 -1.55,-0.35 V 21.2 h 4.5 l -0.05,0.75 v 0.2 l 0.15,0.25 0.35,0.2 0.6,-0.45 0.2,-0.5 V 21.2 h 3.25 l 0.4,1 0.1,0.2 0.15,-0.2 q 0.4,-0.5 0.45,-0.9 v -0.1 h 5.25 v 4.25 l -1.25,0.1 -0.55,0.5 q 0.1,0.3 0.7,0.45 0.6,-0.25 1.1,-0.35 v 1.2 l -0.45,0.05 -1.15,0.3 -0.05,0.1 -0.25,0.35 1.9,0.35 V 29 l 0.5,1.35 h -16 l 0.15,-1.75 M -47.4,26.9 v -0.05 h -2.8 -1.15 -2.35 -1.2 -1.2 l -8.25,-0.05 -0.45,-3.1 v -6.9 h 2.25 q 0.1,0.8 0.5,1 l 0.6,-0.25 0.05,-0.75 h 1.95 l 0.05,1.5 0.7,-0.05 0.2,-0.2 0.1,-1.25 2.85,-0.05 0.15,0.85 q 0.15,0.9 0.5,1.25 0.45,-0.35 0.6,-0.35 l 0.15,-1.75 4.35,-0.05 v 0.8 l 0.05,0.35 -1.4,0.65 0.3,0.55 h 1.05 0.15 l 0.05,0.8 -0.2,0.5 0.35,0.35 q 0.25,0.95 0.65,0.95 0.35,0 0.6,-0.7 l 0.2,0.05 2.9,0.3 q 0.05,1 0.55,1 l 0.5,-0.1 v -0.1 l 0.05,-0.75 1.85,0.1 v 0.75 q 0.1,0.8 0.6,0.95 0.35,-0.6 0.4,-1.65 l 0.6,0.05 h 0.65 0.9 0.4 v 2.15 l -0.45,3.3 -8.35,-0.1"
         fill="#7b7b7b"
         fill-rule="evenodd"
         stroke="none"
         id="path59" />
    </g>
    <g
       id="sprite10"
       transform="translate(5.4,4)">
      <use
         ffdec:characterId="43"
         height="8"
         transform="translate(-5.4,-4)"
         width="10.8"
         xlink:href="#shape12"
         id="use59" />
    </g>
    <g
       id="shape12"
       transform="translate(5.4,4)">
      <path
         d="m 2.9,-0.35 q 0,-1.25 1.25,-1.25 1.25,0 1.25,1.2 0,1.3 -1.25,1.3 Q 3.6,0.9 3.25,0.5 2.9,0.15 2.9,-0.35 m 0.35,-2.3 q 0,0.55 -0.35,0.9 -0.4,0.45 -1,0.45 -1.35,0 -1.35,-1.4 0,-1.3 1.35,-1.3 1.35,0 1.35,1.35 m -3.1,1.9 h 0.2 q 2.6,0.1 2.6,2.8 l -0.3,1 Q 2.05,4 0.45,4 H 0.35 0.15 0.1 -0.45 q -1.6,0 -2.2,-0.95 l -0.3,-1 q 0,-2.8 2.8,-2.8 h 0.3 M -1.55,-4 q 1.35,0 1.35,1.35 0,0.55 -0.4,0.9 -0.4,0.45 -0.95,0.45 -1.4,0 -1.4,-1.4 0,-1.3 1.4,-1.3 m -2.6,2.4 q 1.25,0 1.25,1.25 0,0.5 -0.35,0.85 -0.35,0.4 -0.9,0.4 -1.25,0 -1.25,-1.3 0,-1.2 1.25,-1.2"
         fill="#6b6b6b"
         fill-rule="evenodd"
         stroke="none"
         id="path60" />
    </g>
  </defs>
</svg>
