<?xml version="1.0" encoding="UTF-8" standalone="no"?>
<svg
   ffdec:objectType="frame"
   height="69.908073"
   width="41.329189"
   version="1.1"
   id="svg14"
   sodipodi:docname="2.svg"
   xmlns:inkscape="http://www.inkscape.org/namespaces/inkscape"
   xmlns:sodipodi="http://sodipodi.sourceforge.net/DTD/sodipodi-0.dtd"
   xmlns:xlink="http://www.w3.org/1999/xlink"
   xmlns="http://www.w3.org/2000/svg"
   xmlns:svg="http://www.w3.org/2000/svg"
   xmlns:ffdec="https://www.free-decompiler.com/flash">
  <sodipodi:namedview
     id="namedview14"
     pagecolor="#ffffff"
     bordercolor="#000000"
     borderopacity="0.25"
     inkscape:showpageshadow="2"
     inkscape:pageopacity="0.0"
     inkscape:pagecheckerboard="0"
     inkscape:deskcolor="#d1d1d1"
     fit-margin-top="5"
     fit-margin-left="5"
     fit-margin-right="5"
     fit-margin-bottom="5" />
  <g
     transform="translate(20.68597,34.985967)"
     id="g1">
    <use
       ffdec:characterId="1838"
       height="118.4"
       transform="matrix(-0.9014,0,0,0.9014,36.598,-70.2262)"
       width="80.050003"
       xlink:href="#sprite0"
       id="use1" />
  </g>
  <defs
     id="defs14">
    <g
       id="sprite0"
       transform="translate(40.6,77.85)">
      <use
         ffdec:characterId="1835"
         height="77.550003"
         transform="translate(-22.9,-38.75)"
         width="45.849998"
         xlink:href="#sprite1"
         id="use2" />
    </g>
    <g
       id="sprite1"
       transform="translate(22.9,38.75)">
      <use
         ffdec:characterId="1834"
         height="77.550003"
         transform="translate(-22.9,-38.75)"
         width="45.849998"
         xlink:href="#shape0"
         id="use3" />
      <use
         ffdec:characterId="1691"
         height="8"
         transform="translate(0.35,29.05)"
         width="10.8"
         xlink:href="#sprite2"
         id="use4" />
    </g>
    <g
       id="shape0"
       transform="translate(22.9,38.75)">
      <path
         d="m 6.55,-35.75 q 0.95,0 2.15,1.15 3.05,2.9 3.05,7.95 l -0.2,2.2 q -0.35,2.6 -1.2,4.75 -2.8,6.8 -9.8,6.8 -3.2,0 -5.6,-0.95 -3.3,-1.35 -5.1,-4.5 l -0.45,-0.9 q -1.4,-3.05 -1.4,-7.55 0,-3.15 0.2,-3.85 0.3,-1.3 1.65,-3.1 l 0.85,-1.1 3,-0.15 0.45,2.5 -1,8.45 0.95,3.4 0.85,1.25 q 1.8,2 5.3,2 4.1,0 5.5,-4 0.55,-1.7 0.55,-4.5 l -0.7,-8.6 q 0,-1.25 0.95,-1.25 M 10.7,-10 q 0,-0.8 0.9,-1.55 1.2,-1 3.3,-0.95 0.35,0.5 0.8,0.6 -0.55,1.8 -1.5,3.6 l -1.7,2.55 -0.85,-1 Q 10.7,-7.8 10.7,-10 m -8.2,0.15 2,-0.35 q 2.25,0.7 2.25,2.8 0,1.25 -0.6,2.4 -1.2,2.25 -4.2,2.25 -1.55,0 -2.4,-1.65 -0.6,-1.15 -0.6,-2.15 0,-0.8 1.45,-1.8 l 2.1,-1.5 m -13.15,2.9 0.5,0.05 q 1.25,0.15 2.35,1.1 1.1,0.95 1.1,1.55 0,1.25 -1.2,2 l -0.15,0.1 -0.55,0.35 -1.55,-0.75 -1.25,-0.75 -1.5,-1.05 0.3,-1.3 q 0.1,-1.3 1.95,-1.3 m -8.05,-7.2 q -0.2,-0.55 -0.2,-2.15 -0.15,-0.95 0.2,-1.7 0.7,-1.55 3.35,-1.55 l 1.45,0.15 q 0.7,2.2 1.9,3.95 l 1,1.25 -0.6,0.5 q -1.3,1.2 -4.3,1.2 -2.2,0 -2.8,-1.65"
         fill="#e0e0e0"
         fill-rule="evenodd"
         stroke="none"
         id="path4" />
      <path
         d="m 6.55,-35.75 q -0.95,0 -0.95,1.25 l 0.7,8.6 q 0,2.8 -0.55,4.5 -1.4,4 -5.5,4 -3.5,0 -5.3,-2 l -0.85,-1.25 -0.95,-3.4 1,-8.45 -0.45,-2.5 -3,0.15 -0.85,1.1 q -1.35,1.8 -1.65,3.1 -0.2,0.7 -0.2,3.85 0,4.5 1.4,7.55 l 0.45,0.9 q 1.8,3.15 5.1,4.5 2.4,0.95 5.6,0.95 7,0 9.8,-6.8 0.85,-2.15 1.2,-4.75 l 0.2,-2.2 q 0,-5.05 -3.05,-7.95 -1.2,-1.15 -2.15,-1.15 m -3.95,1.2 q 0,-4.35 4.55,-4.2 4.5,0.1 5.6,3.45 1.9,3.4 2.1,7.85 2.7,0.6 4,4.9 0.75,2.55 0.8,5.25 0,5.8 -2.95,11.2 -1.75,3.15 -4.25,5.25 2.4,-1.05 3.95,-2.05 l 3.65,-3.05 q 1.3,-0.9 2,-0.85 0.9,0 0.9,1.55 l -0.9,2.4 q -0.9,2.15 -0.9,3.55 L 21,6.55 q -0.05,2.9 -2.15,5.65 -1.2,1.6 -2.9,2.6 l 0.2,-0.05 q 1.4,-0.05 1.4,4.4 l -0.05,1.4 -0.15,0.55 0.05,0.3 q 0,1.05 -1.3,1.35 l -1.95,0.1 v 0.05 0.25 0.4 l -0.9,6.85 -0.7,5.45 v 0.1 H 12.5 l -0.05,0.2 -0.1,0.6 0.1,1.1 q -0.2,0.6 -1.55,0.95 h -20 q -1.35,-0.35 -1.55,-0.95 l 0.1,-1.1 -0.05,-0.6 -0.05,-0.2 -0.05,-0.1 -0.75,-5.45 -0.9,-6.85 0.05,-0.65 v -0.05 l -1.95,-0.1 q -1.35,-0.3 -1.35,-1.35 l 0.05,-0.3 -0.15,-0.55 -0.05,-1.4 0.15,-2.45 q -1.95,-0.65 -3.2,-2.35 l -0.2,-0.2 -0.15,-0.25 q -1.4,-2.05 -1.4,-3.6 0,-4.1 0.45,-7.95 0,-0.75 0.35,-1.1 0.25,-0.3 0.75,-0.35 l 0.2,-0.05 1.4,0.4 q 0.6,0.35 1.2,0.95 1.15,0.65 4.7,0.55 1.7,-0.05 2.9,0.6 L -8.2,3.2 -7.9,2.6 -7.8,2.3 -7.9,2.25 q -1.45,-0.4 -2.75,-1 -3.65,-1.6 -6.4,-4.55 L -18.8,-5.4 -19,-5.65 q -3.9,-5.45 -3.9,-9.4 0,-4.45 1.8,-8.45 0.9,-2 2.1,-3.3 1.7,-1.95 4.1,-2.55 0.1,-2.3 0.5,-3.5 1.15,-3.65 4.25,-4.8 l 3.2,-0.5 1.9,0.25 q 1.4,0.4 1.95,1.5 0.4,0.85 0.25,1.8 l -0.05,1.4 0.4,0.2 1.1,0.75 q 1.1,-1 4.1,-1.05 l -0.1,-1.25 m -1.55,2.7 q -1.1,0.2 -1.4,0.85 0.25,0.55 0.25,1.1 v 0.05 q 0.6,0.45 2.35,0.5 l 0.9,0.1 -0.3,-3 -1.8,0.4 m 0.75,5.25 q -0.85,0 -1.15,0.65 l -0.05,0.15 0.45,1.15 v 0.05 l 1.75,0.35 0.35,0.05 v -0.05 L 3.3,-26.6 H 1.8 m 11.1,9.2 q -2.35,5.05 -6.95,6.75 2.3,1.6 2.3,3.35 0,1.95 -1.15,3.7 -1.6,2.5 -4.75,2.5 -2.4,0 -3.8,-1.8 -0.9,-1.2 -0.9,-1.95 0,-3.5 2.1,-4.9 -2.65,-0.1 -4.8,-0.75 -2.95,-0.9 -5.05,-2.8 h -0.05 q -0.45,0.5 -1.25,0.95 -1.95,1.1 -4.8,1.1 -1.75,0 -2.75,-0.9 0.9,2.1 2.95,4.65 l 1.9,2.1 v -0.3 q 0,-3.5 3.95,-3 l 0.55,0.05 q 4.5,0.8 4.5,4.55 0,1.3 -0.45,2.1 l -0.8,0.95 1.3,0.3 4.6,0.4 q 6.65,0 10.8,-3.25 -0.6,-0.55 -0.85,-1.55 l -0.2,-2.4 q 0,-2.9 0.7,-4.05 1.5,-2.4 5.95,-1.2 0.55,-2.15 0.55,-4.3 0,-2.05 -2,-5.15 -0.5,2.5 -1.6,4.85 m -10.4,7.55 -2.1,1.5 q -1.45,1 -1.45,1.8 0,1 0.6,2.15 0.85,1.65 2.4,1.65 3,0 4.2,-2.25 0.6,-1.15 0.6,-2.4 0,-2.1 -2.25,-2.8 l -2,0.35 M 10.7,-10 q 0,2.2 0.95,3.25 l 0.85,1 1.7,-2.55 q 0.95,-1.8 1.5,-3.6 -0.45,-0.1 -0.8,-0.6 -2.1,-0.05 -3.3,0.95 -0.9,0.75 -0.9,1.55 m 8.35,13.1 -0.1,-4.5 Q 6.9,3.4 5.3,6.65 4.35,8.75 5.55,13.55 6.1,11.5 9.15,7.6 q 4,-5.2 6.3,-4.35 -3.7,2.5 -6.6,7.55 v 0.05 l 1.1,-0.3 q 3,-0.5 3,1.85 v 0.2 l 2.35,-0.5 q 1.6,-1 2.25,-2.25 L 18.3,7.6 Q 19,5.75 19.05,3.1 m -16.1,-0.05 -3.4,0.2 -3.7,-0.2 -0.9,1.1 -0.75,0.9 q -1.8,2.15 -2.1,3.9 l -0.05,0.6 0.05,0.4 q 0.2,0.95 1.45,2.1 l 1.4,-0.2 h 0.5 Q -2.65,11.9 -2,13 l 0.45,-0.5 q 0.6,-0.5 1.5,-0.4 L -0.4,10.95 -0.9,9.3 -0.8,7.05 q 0.35,-1 2,-2.3 L 2.95,3.05 M 2.55,11.2 Q 2.55,8.4 3.4,5.95 L 3,6.2 2.75,6.35 Q 1.65,8 1.65,9.2 q 0,1.15 0.9,2.3 v -0.3 m 6.05,2 0.1,0.35 H 8.75 L 9.05,14 q 0.65,0.65 1.6,0.65 2.1,0 2.1,-1.4 0,-1.9 -2.05,-1.7 -2.1,0.2 -2.1,1.55 v 0.1 M 8.75,17.85 8.2,17.75 H -6.4 l -0.55,0.1 H -13 v 1.3 1.05 h 1.35 l 0.5,0.05 h 24.1 l 0.5,-0.05 h 1.35 v -1.05 -1.3 H 8.75 m 2.3,5.05 h 0.05 l 0.05,-0.15 V 22.7 H -9.3 v 0.05 l 0.05,0.15 h 0.05 l 0.05,0.25 v 0.15 l 0.5,5.75 0.5,6.15 0.1,0.6 v 0.15 l 1.4,0.1 h 3.6 V 36 L 9.85,35.95 9.9,35.85 V 35.8 l 0.05,-0.6 0.5,-6.15 0.5,-5.75 L 11,23.15 11.05,22.9 M -15,-27.5 q -1.8,1.7 -3.1,5 l -0.9,2.5 -0.2,0.7 0.2,-0.2 q 1.05,-1.05 3.1,-1.5 l 1.5,-0.25 q -0.6,-2.55 -0.6,-5.6 v -0.65 m 12.85,-2.75 q -0.25,-0.55 -1.15,-0.9 l -0.3,0.9 -0.55,2.65 0.25,-0.15 q 1.4,-0.6 1.7,-1.55 v -0.15 l 0.05,-0.8 m -2.2,5.15 v 0.3 l 0.75,2.15 0.35,0.65 0.85,-0.4 q 1.4,-0.55 1.55,-1.2 -0.6,-0.65 -0.6,-1.3 l -2.05,-0.25 -0.85,0.05 m 3.2,4.5 -0.05,-0.05 h -0.05 l 0.1,0.05 m -17.55,6.45 q 0.6,1.65 2.8,1.65 3,0 4.3,-1.2 l 0.6,-0.5 -1,-1.25 q -1.2,-1.75 -1.9,-3.95 l -1.45,-0.15 q -2.65,0 -3.35,1.55 -0.35,0.75 -0.2,1.7 0,1.6 0.2,2.15 m 8.05,7.2 q -1.85,0 -1.95,1.3 l -0.3,1.3 1.5,1.05 1.25,0.75 1.55,0.75 0.55,-0.35 0.15,-0.1 q 1.2,-0.75 1.2,-2 0,-0.6 -1.1,-1.55 -1.1,-0.95 -2.35,-1.1 l -0.5,-0.05 M -9.95,5.1 Q -16,4.85 -18,3.4 l -0.25,2.45 q 0,3.7 0.75,5.2 0.9,2 3.3,3.3 l 1.1,0.55 h 4.35 L -9.15,14.35 -9.35,14 -10.5,11.4 -12.9,9.8 q -2.7,-1.95 -2.7,-2.85 l 0.05,-0.45 v 0.1 q 1.25,0.2 3.6,1.9 l 1.2,0.95 q 0.2,-2.2 1.2,-3.55 L -9.15,5.4 -9.6,5.25 H -9.75 L -9.7,5.2 -9.75,5.15 -9.95,5.1 m 7.45,9.8 0.15,-0.05 0.25,-0.6 -0.75,-0.35 -0.6,-0.45 -0.6,-0.05 -0.95,-0.1 0.05,0.05 h -0.3 V 13.3 h -0.9 l 0.05,0.4 -0.25,0.25 H -6.4 l -0.15,0.6 q 0,0.75 0.25,0.4 h 1.1 l 0.15,0.15 0.25,0.2 1.35,-0.3 h 0.95 v -0.1 m 2.3,-1.75 q -1.25,0 -1.25,1.2 l 0.15,0.8 0.45,0.3 0.6,0.1 q 1,0 1.3,-1.2 0,-1.2 -1.25,-1.2"
         fill="#6b6b6b"
         fill-rule="evenodd"
         stroke="none"
         id="path5" />
      <path
         d="m 1.8,-26.6 h 1.5 l -0.15,2.35 v 0.05 L 2.8,-24.25 1.05,-24.6 v -0.05 L 0.6,-25.8 0.65,-25.95 q 0.3,-0.65 1.15,-0.65 m -0.75,-5.25 1.8,-0.4 0.3,3 -0.9,-0.1 Q 0.5,-29.4 -0.1,-29.85 v -0.05 q 0,-0.55 -0.25,-1.1 0.3,-0.65 1.4,-0.85 m -5.4,6.75 0.85,-0.05 2.05,0.25 q 0,0.65 0.6,1.3 -0.15,0.65 -1.55,1.2 l -0.85,0.4 -0.35,-0.65 -0.75,-2.15 v -0.3 m 2.2,-5.15 -0.05,0.8 v 0.15 q -0.3,0.95 -1.7,1.55 l -0.25,0.15 0.55,-2.65 0.3,-0.9 q 0.9,0.35 1.15,0.9"
         fill="#ffffff"
         fill-rule="evenodd"
         stroke="none"
         id="path6" />
      <path
         d="M 8.75,13.55 H 8.7 L 8.6,13.2 8.75,13.55 M -2.5,14.9 V 15 h -0.95 l 0.1,-0.05 0.85,-0.05 M -4.95,13.35 -5,13.3 l 0.95,0.1 -0.9,-0.05"
         fill="#a6a6a6"
         fill-rule="evenodd"
         stroke="none"
         id="path7" />
      <path
         d="M 8.75,13.55 8.6,13.2 v -0.1 q 0,-1.35 2.1,-1.55 2.05,-0.2 2.05,1.7 0,1.4 -2.1,1.4 -0.95,0 -1.6,-0.65 l -0.3,-0.45 m -12.8,-0.15 0.6,0.05 0.6,0.45 0.75,0.35 -0.25,0.6 -0.15,0.05 -0.85,0.05 -0.1,0.05 -1.35,0.3 -0.25,-0.2 -0.15,-0.15 h -1.1 q -0.25,0.35 -0.25,-0.4 l 0.15,-0.6 h 0.05 L -6.1,13.7 -6.15,13.3 h 0.9 v 0.05 h 0.3 l 0.9,0.05 m 3.85,-0.25 q 1.25,0 1.25,1.2 -0.3,1.2 -1.3,1.2 l -0.6,-0.1 -0.45,-0.3 -0.15,-0.8 q 0,-1.2 1.25,-1.2"
         fill="#7b7b7b"
         fill-rule="evenodd"
         stroke="none"
         id="path8" />
      <path
         d="m 12.9,-17.4 q 1.1,-2.35 1.6,-4.85 2,3.1 2,5.15 0,2.15 -0.55,4.3 -4.45,-1.2 -5.95,1.2 -0.7,1.15 -0.7,4.05 l 0.2,2.4 q 0.25,1 0.85,1.55 -4.15,3.25 -10.8,3.25 l -4.6,-0.4 -1.3,-0.3 0.8,-0.95 q 0.45,-0.8 0.45,-2.1 0,-3.75 -4.5,-4.55 l -0.55,-0.05 q -3.95,-0.5 -3.95,3 v 0.3 L -16,-7.5 q -2.05,-2.55 -2.95,-4.65 1,0.9 2.75,0.9 2.85,0 4.8,-1.1 0.8,-0.45 1.25,-0.95 h 0.05 q 2.1,1.9 5.05,2.8 2.15,0.65 4.8,0.75 -2.1,1.4 -2.1,4.9 0,0.75 0.9,1.95 1.4,1.8 3.8,1.8 3.15,0 4.75,-2.5 1.15,-1.75 1.15,-3.7 0,-1.75 -2.3,-3.35 4.6,-1.7 6.95,-6.75 M -15,-27.5 v 0.65 q 0,3.05 0.6,5.6 l -1.5,0.25 q -2.05,0.45 -3.1,1.5 l -0.2,0.2 0.2,-0.7 0.9,-2.5 q 1.3,-3.3 3.1,-5"
         fill="#977c9a"
         fill-rule="evenodd"
         stroke="none"
         id="path9" />
      <path
         d="M 2.95,3.05 1.2,4.75 q -1.65,1.3 -2,2.3 l -0.1,2.25 0.5,1.65 0.35,1.15 q -0.9,-0.1 -1.5,0.4 L -2,13 q -0.65,-1.1 -2.55,-1.15 h -0.5 l -1.4,0.2 Q -7.7,10.9 -7.9,9.95 l -0.05,-0.4 0.05,-0.6 q 0.3,-1.75 2.1,-3.9 l 0.75,-0.9 0.9,-1.1 3.7,0.2 3.4,-0.2"
         fill="#7c9a7c"
         fill-rule="evenodd"
         stroke="none"
         id="path10" />
      <path
         d="M 19.05,3.1 Q 19,5.75 18.3,7.6 L 17.55,9.85 Q 16.9,11.1 15.3,12.1 l -2.35,0.5 v -0.2 q 0,-2.35 -3,-1.85 l -1.1,0.3 V 10.8 Q 11.75,5.75 15.45,3.25 13.15,2.4 9.15,7.6 6.1,11.5 5.55,13.55 4.35,8.75 5.3,6.65 6.9,3.4 18.95,-1.4 l 0.1,4.5 m -29,2 0.2,0.05 0.05,0.05 -0.05,0.05 h 0.15 l 0.45,0.15 -0.4,0.5 q -1,1.35 -1.2,3.55 L -11.95,8.5 Q -14.3,6.8 -15.55,6.6 V 6.5 l -0.05,0.45 q 0,0.9 2.7,2.85 l 2.4,1.6 1.15,2.6 0.2,0.35 0.4,0.55 h -4.35 l -1.1,-0.55 q -2.4,-1.3 -3.3,-3.3 -0.75,-1.5 -0.75,-5.2 L -18,3.4 q 2,1.45 8.05,1.7"
         fill="#8d9e8d"
         fill-rule="evenodd"
         stroke="none"
         id="path11" />
      <path
         d="m 8.75,17.85 h 6.05 v 1.3 1.05 h -1.35 l -0.5,0.05 h -24.1 l -0.5,-0.05 H -13 v -1.05 -1.3 h 6.05 l 0.55,-0.1 H 8.2 l 0.55,0.1"
         fill="#9e988d"
         fill-rule="evenodd"
         stroke="none"
         id="path12" />
      <path
         d="M 11.05,22.9 11,23.15 10.95,23.3 10.45,29.05 9.95,35.2 9.9,35.8 v 0.05 L 9.85,35.95 -3.05,36 v 0.05 h -3.6 l -1.4,-0.1 V 35.8 l -0.1,-0.6 -0.5,-6.15 -0.5,-5.75 V 23.15 L -9.2,22.9 H -9.25 L -9.3,22.75 V 22.7 h 20.45 v 0.05 L 11.1,22.9 h -0.05"
         fill="#888379"
         fill-rule="evenodd"
         stroke="none"
         id="path13" />
    </g>
    <g
       id="sprite2"
       transform="translate(5.4,4)">
      <use
         ffdec:characterId="43"
         height="8"
         transform="translate(-5.4,-4)"
         width="10.8"
         xlink:href="#shape1"
         id="use13" />
    </g>
    <g
       id="shape1"
       transform="translate(5.4,4)">
      <path
         d="m 2.9,-0.35 q 0,-1.25 1.25,-1.25 1.25,0 1.25,1.2 0,1.3 -1.25,1.3 Q 3.6,0.9 3.25,0.5 2.9,0.15 2.9,-0.35 m 0.35,-2.3 q 0,0.55 -0.35,0.9 -0.4,0.45 -1,0.45 -1.35,0 -1.35,-1.4 0,-1.3 1.35,-1.3 1.35,0 1.35,1.35 m -3.1,1.9 h 0.2 q 2.6,0.1 2.6,2.8 l -0.3,1 Q 2.05,4 0.45,4 H 0.35 0.15 0.1 -0.45 q -1.6,0 -2.2,-0.95 l -0.3,-1 q 0,-2.8 2.8,-2.8 h 0.3 M -1.55,-4 q 1.35,0 1.35,1.35 0,0.55 -0.4,0.9 -0.4,0.45 -0.95,0.45 -1.4,0 -1.4,-1.4 0,-1.3 1.4,-1.3 m -2.6,2.4 q 1.25,0 1.25,1.25 0,0.5 -0.35,0.85 -0.35,0.4 -0.9,0.4 -1.25,0 -1.25,-1.3 0,-1.2 1.25,-1.2"
         fill="#6b6b6b"
         fill-rule="evenodd"
         stroke="none"
         id="path14" />
    </g>
  </defs>
</svg>
