<?xml version="1.0" encoding="UTF-8" standalone="no"?>
<svg
   ffdec:objectType="frame"
   height="117.16364"
   width="50.849998"
   version="1.1"
   id="svg11"
   sodipodi:docname="2.svg"
   xmlns:inkscape="http://www.inkscape.org/namespaces/inkscape"
   xmlns:sodipodi="http://sodipodi.sourceforge.net/DTD/sodipodi-0.dtd"
   xmlns:xlink="http://www.w3.org/1999/xlink"
   xmlns="http://www.w3.org/2000/svg"
   xmlns:svg="http://www.w3.org/2000/svg"
   xmlns:ffdec="https://www.free-decompiler.com/flash">
  <sodipodi:namedview
     id="namedview11"
     pagecolor="#ffffff"
     bordercolor="#000000"
     borderopacity="0.25"
     inkscape:showpageshadow="2"
     inkscape:pageopacity="0.0"
     inkscape:pagecheckerboard="0"
     inkscape:deskcolor="#d1d1d1"
     fit-margin-top="5"
     fit-margin-left="5"
     fit-margin-right="5"
     fit-margin-bottom="5" />
  <g
     transform="translate(37.1,37.213636)"
     id="g2">
    <use
       ffdec:characterId="1094"
       height="117.15"
       transform="translate(-37.1,-37.2)"
       width="50.849998"
       xlink:href="#shape0"
       id="use1" />
    <use
       ffdec:characterId="1091"
       height="8"
       transform="matrix(0.7441,-0.4296,0.4437,0.7686,0.3069,68.7953)"
       width="10.8"
       xlink:href="#sprite0"
       id="use2" />
  </g>
  <defs
     id="defs11">
    <g
       id="shape0"
       transform="translate(37.1,37.2)">
      <path
         d="m 8.85,-37.05 q 2.7,-0.3 4.1,-0.05 v 0.1 l 0.55,0.15 h 0.25 v 21 l -0.2,0.45 -0.1,0.15 -0.1,31.15 0.05,3.5 v 32.95 h -0.15 l -0.3,0.95 v 0.8 l 0.05,0.05 0.3,0.5 h 0.1 v 0.4 l 0.05,0.45 -0.05,0.3 v 21.1 l 0.05,0.9 -0.05,0.25 v 0.1 q 0,0.85 -0.45,1.25 v 0.3 l -1.45,0.25 -19.95,-0.1 -2.3,0.05 h -0.8 -0.75 -0.8 l -2.3,-0.05 -19.95,0.1 -1.1,-0.15 -0.35,-0.2 v -0.2 l -0.25,-0.2 v -0.6 -0.45 -0.1 l -0.05,-0.2 V 77.8 l 0.05,-0.9 V 55.3 l -0.05,-0.75 0.05,-0.3 v -0.3 l 0.25,-0.25 v -0.15 l 0.05,-0.05 -0.05,-0.05 V 53.2 l -0.05,-0.05 -0.2,-0.3 V 19.4 17.8 l -0.05,-54.65 h 0.05 v -0.05 l 0.25,-0.1 0.35,-0.1 v -0.05 l 3.75,0.1 H 8.85 m 2.55,6.25 -0.05,-3.4 H -35.2 v 3.4 l -0.05,14.75 1.45,0.2 2.85,0.95 2.2,0.95 6.2,1.9 q 6.9,2.25 9.1,3.6 l 0.6,0.1 0.3,0.15 v -0.1 l 0.05,0.15 0.2,0.05 v 42.65 h 0.75 V -8.1 l 0.2,-0.05 0.05,-0.15 v 0.1 l 0.3,-0.15 0.6,-0.1 q 2.2,-1.35 9.1,-3.6 l 5.15,-1.55 1.05,-0.35 1.75,-0.75 0.45,-0.2 2.85,-0.95 1.45,-0.2 V -30.8 m -0.45,17.5 v -0.5 l -1.6,0.7 -1.95,0.65 -5.45,2.05 -2,0.75 0.45,-0.15 q -11.05,4 -11.2,4.65 l -0.1,0.6 -0.05,0.2 -0.05,0.2 0.25,7.05 v 11.2 l -0.05,20.75 0.05,0.05 -0.05,0.1 v 0.3 l -0.5,0.35 -0.1,-0.25 h -0.95 l -0.05,-0.05 -0.15,0.3 -0.5,-0.35 -0.05,-21.2 V 2.9 l 0.25,-7.05 -0.05,-0.2 -0.15,-0.75 v -0.05 q -0.15,-0.6 -9.8,-4.1 l -1.3,-0.5 -0.05,-0.05 -1.6,-0.6 -3.05,-1.15 -2.4,-0.9 -1.95,-0.65 -1.6,-0.7 v 0.8 l -0.1,28.9 0.1,0.3 v 36.15 l 0.9,0.15 44.85,-0.15 V 16.2 l 0.1,-0.3 -0.1,-29.2 M -5.7,-27.7 h 0.1 q 0.8,-0.1 0.8,2.3 l -0.05,2.3 q 0.05,1.05 -0.4,1.4 l -0.65,0.8 -2.55,2.2 -3.4,2.45 v 0.1 l -0.05,-0.05 -0.1,0.05 v -0.1 q -1.25,-0.7 -3.45,-2.45 l -2.55,-2.2 -0.6,-0.8 -0.4,-0.9 -0.15,-0.1 0.1,-0.4 v -2.3 q 0,-2.4 0.75,-2.3 h 0.1 l 0.35,-0.2 h 11.8 l 0.35,0.2 m -0.7,1.75 h -11.1 v 0.5 2.25 l 4.4,0.05 -0.15,-0.15 -1.55,-1.85 q 0.35,-0.1 1.75,0.95 l 0.85,0.65 0.5,-0.05 q 0.6,0.1 0.9,0.45 h 4.4 v -2.3 -0.5 m 0.05,3.4 -4.2,0.05 v 0.15 l -0.25,0.85 q -0.3,0.5 -0.9,0.5 -0.75,0 -1,-0.7 l -0.15,-0.65 v -0.15 h -4.6 l 0.65,0.35 2.5,2.05 2.35,1.8 2.35,-1.8 2.55,-2.05 0.7,-0.4 M -33.2,19.9 q -0.5,0 -0.7,-1.7 l -0.05,-1.7 q 0,-1.75 0.75,-1.7 l 0.05,0.05 0.25,-0.2 h 5 l 0.3,0.1 10.2,0.05 0.5,0.1 0.2,0.15 q 0.45,0.2 0.45,1.35 0,0.7 -0.15,1.1 l 0.05,0.1 q 0,0.4 -0.5,0.65 h -9.6 v 0.1 l -0.05,0.35 -0.05,0.2 V 19 l 0.05,0.15 q 0,0.5 -0.4,0.6 h -0.05 l -4.4,0.1 -1.55,-0.15 -0.3,0.2 m 15.65,-3.5 0.05,-0.55 H -27.6 L -27.9,16 h -4.6 v 0.55 0.8 h 5.25 l 0.1,-0.15 9.6,-0.15 V 16.4 m -10.4,2.25 h 0.3 0.15 v -0.1 -0.25 -0.05 h -5.05 v 0.2 l -0.05,0.3 0.35,-0.05 2.3,-0.15 h 0.65 0.05 l 1.3,0.1 m 38.9,37.95 v -1.8 h -0.3 l -0.2,0.05 0.25,-0.2 h -45.5 v 1.95 18.05 l 0.65,0.05 45.1,0.05 V 56.6 m 0,18.85 -45.1,0.05 -0.55,0.05 h -0.1 v 1.55 l -0.05,0.4 q 2.3,-0.15 7.25,-0.05 h 12.2 2.3 2.35 2.3 12.2 Q 8.7,77.35 11,77.5 l -0.05,-0.4 v -1.65"
         fill="#6b6b6b"
         fill-rule="evenodd"
         stroke="none"
         id="path2" />
      <path
         d="m -35.2,-30.8 v -3.4 h 46.55 l 0.05,3.4 h -46.6"
         fill="#eeeeee"
         fill-rule="evenodd"
         stroke="none"
         id="path3" />
      <path
         d="m 11.4,-30.8 v 14.75 l -1.45,0.2 -2.85,0.95 -0.45,0.2 -1.75,0.75 -1.05,0.35 -5.15,1.55 q -6.9,2.25 -9.1,3.6 l -0.6,0.1 -0.3,0.15 v -0.1 l -0.05,0.15 -0.2,0.05 V 34.55 H -12.3 V -8.1 l -0.2,-0.05 -0.05,-0.15 v 0.1 l -0.3,-0.15 -0.6,-0.1 q -2.2,-1.35 -9.1,-3.6 l -6.2,-1.9 -2.2,-0.95 -2.85,-0.95 -1.45,-0.2 0.05,-14.75 h 46.6 m -17.1,3.1 -0.35,-0.2 h -11.8 l -0.35,0.2 h -0.1 q -0.75,-0.1 -0.75,2.3 v 2.3 l -0.1,0.4 0.15,0.1 0.4,0.9 0.6,0.8 2.55,2.2 q 2.2,1.75 3.45,2.45 v 0.1 l 0.1,-0.05 0.05,0.05 v -0.1 l 3.4,-2.45 2.55,-2.2 0.65,-0.8 q 0.45,-0.35 0.4,-1.4 l 0.05,-2.3 q 0,-2.4 -0.8,-2.3 h -0.1"
         fill="#e2e2e2"
         fill-rule="evenodd"
         stroke="none"
         id="path4" />
      <path
         d="m -6.4,-25.95 v 0.5 2.3 h -4.4 q -0.3,-0.35 -0.9,-0.45 l -0.5,0.05 -0.85,-0.65 q -1.4,-1.05 -1.75,-0.95 l 1.55,1.85 0.15,0.15 -4.4,-0.05 v -2.25 -0.5 h 11.1"
         fill="#e9e9e9"
         fill-rule="evenodd"
         stroke="none"
         id="path5" />
      <path
         d="m -6.35,-22.55 -0.7,0.4 -2.55,2.05 -2.35,1.8 -2.35,-1.8 -2.5,-2.05 -0.65,-0.35 h 4.6 v 0.15 l 0.15,0.65 q 0.25,0.7 1,0.7 0.6,0 0.9,-0.5 l 0.25,-0.85 v -0.15 l 4.2,-0.05 m -11.2,38.95 v 0.65 l -9.6,0.15 -0.1,0.15 H -32.5 V 16.55 16 h 4.6 l 0.3,-0.15 h 10.1 l -0.05,0.55"
         fill="#bfbfbf"
         fill-rule="evenodd"
         stroke="none"
         id="path6" />
      <path
         d="m -27.95,18.65 -1.3,-0.1 h -0.05 -0.65 l -2.3,0.15 -0.35,0.05 0.05,-0.3 v -0.2 h 5.05 v 0.05 0.25 0.1 h -0.15 -0.3"
         fill="#878787"
         fill-rule="evenodd"
         stroke="none"
         id="path7" />
      <path
         d="m -10.95,-4.35 0.05,-0.2 0.1,-0.6 Q -10.65,-5.8 0.4,-9.8 l -0.45,0.15 2,-0.75 5.45,-2.05 1.95,-0.65 1.6,-0.7 v 0.5 l -1.15,0.5 q -1.2,0.7 -3.25,1.5 l -2.85,0.95 -3.3,1.25 -5.75,2.5 -4.2,1.8 -1.35,0.45 h -0.05 M -34.8,-13 v -0.8 l 1.6,0.7 1.95,0.65 2.4,0.9 3.05,1.15 1.6,0.6 0.05,0.05 1.3,0.5 q 9.65,3.5 9.8,4.1 v 0.05 l 0.15,0.75 h -0.55 q -1,0 -5,-2.1 l -3.65,-1.9 -3.3,-1.2 -1.3,-0.55 -3.7,-1.15 q -3.25,-1.1 -4.4,-1.75 m 17.95,31.25 v 0.05 l -0.1,0.25 q -0.05,0.6 -0.25,0.75 l -6.15,0.65 -1.2,-0.15 h -0.55 q -0.05,1.45 -4.4,1.45 -3.7,0 -3.7,-1.15 v -0.2 l 0.3,-0.2 1.55,0.15 4.4,-0.1 h 0.05 q 0.4,-0.1 0.4,-0.6 L -26.55,19 v -0.1 l 0.05,-0.2 0.05,-0.35 v -0.1 h 9.6 m 27.8,57.2 V 77.1 L 11,77.5 Q 8.7,77.35 3.75,77.45 h -12.2 -2.3 -2.35 -2.3 -12.2 q -4.95,-0.1 -7.25,0.05 l 0.05,-0.4 v -1.55 h 0.1 l 0.55,-0.05 45.1,-0.05"
         fill="#a2c3c3"
         fill-rule="evenodd"
         stroke="none"
         id="path8" />
      <path
         d="m 10.95,-13.3 0.1,29.2 -0.1,0.3 V 52.35 L -33.9,52.5 -34.8,52.35 V 16.2 l -0.1,-0.3 0.1,-28.9 q 1.15,0.65 4.4,1.75 l 3.7,1.15 1.3,0.55 3.3,1.2 3.65,1.9 q 4,2.1 5,2.1 h 0.55 l 0.05,0.2 -0.25,7.05 v 11.2 l 0.05,21.2 0.5,0.35 0.15,-0.3 0.05,0.05 h 0.95 l 0.1,0.25 0.5,-0.35 V 35 l 0.05,-0.1 -0.05,-0.05 0.05,-20.75 V 2.9 l -0.25,-7.05 0.05,-0.2 h 0.05 l 1.35,-0.45 4.2,-1.8 5.75,-2.5 3.3,-1.25 2.85,-0.95 q 2.05,-0.8 3.25,-1.5 l 1.15,-0.5 m -27.8,31.55 q 0.5,-0.25 0.5,-0.65 l -0.05,-0.1 q 0.15,-0.4 0.15,-1.1 0,-1.15 -0.45,-1.35 l -0.2,-0.15 -0.5,-0.1 -10.2,-0.05 -0.3,-0.1 h -5 l -0.25,0.2 -0.05,-0.05 q -0.75,-0.05 -0.75,1.7 l 0.05,1.7 q 0.2,1.7 0.7,1.7 v 0.2 q 0,1.15 3.7,1.15 4.35,0 4.4,-1.45 h 0.55 l 1.2,0.15 6.15,-0.65 q 0.2,-0.15 0.25,-0.75 l 0.1,-0.25 V 18.25 M 10.95,56.6 V 74.75 L -34.15,74.7 -34.8,74.65 V 56.6 h 45.75"
         fill="#b2d7d7"
         fill-rule="evenodd"
         stroke="none"
         id="path9" />
      <path
         d="m -34.8,56.6 v -1.95 h 45.5 l -0.25,0.2 0.2,-0.05 h 0.3 v 1.8 H -34.8"
         fill="#bce3e3"
         fill-rule="evenodd"
         stroke="none"
         id="path10" />
    </g>
    <g
       id="sprite0"
       transform="translate(5.4,4)">
      <use
         ffdec:characterId="43"
         height="8"
         transform="translate(-5.4,-4)"
         width="10.8"
         xlink:href="#shape1"
         id="use10" />
    </g>
    <g
       id="shape1"
       transform="translate(5.4,4)">
      <path
         d="m 2.9,-0.35 q 0,-1.25 1.25,-1.25 1.25,0 1.25,1.2 0,1.3 -1.25,1.3 Q 3.6,0.9 3.25,0.5 2.9,0.15 2.9,-0.35 m 0.35,-2.3 q 0,0.55 -0.35,0.9 -0.4,0.45 -1,0.45 -1.35,0 -1.35,-1.4 0,-1.3 1.35,-1.3 1.35,0 1.35,1.35 m -3.1,1.9 h 0.2 q 2.6,0.1 2.6,2.8 l -0.3,1 Q 2.05,4 0.45,4 H 0.35 0.15 0.1 -0.45 q -1.6,0 -2.2,-0.95 l -0.3,-1 q 0,-2.8 2.8,-2.8 h 0.3 M -1.55,-4 q 1.35,0 1.35,1.35 0,0.55 -0.4,0.9 -0.4,0.45 -0.95,0.45 -1.4,0 -1.4,-1.4 0,-1.3 1.4,-1.3 m -2.6,2.4 q 1.25,0 1.25,1.25 0,0.5 -0.35,0.85 -0.35,0.4 -0.9,0.4 -1.25,0 -1.25,-1.3 0,-1.2 1.25,-1.2"
         fill="#6b6b6b"
         fill-rule="evenodd"
         stroke="none"
         id="path11" />
    </g>
  </defs>
</svg>
