<?xml version="1.0" encoding="UTF-8" standalone="no"?>
<svg
   ffdec:objectType="frame"
   height="109.7375"
   width="74"
   version="1.1"
   id="svg20"
   sodipodi:docname="2.svg"
   xmlns:inkscape="http://www.inkscape.org/namespaces/inkscape"
   xmlns:sodipodi="http://sodipodi.sourceforge.net/DTD/sodipodi-0.dtd"
   xmlns:xlink="http://www.w3.org/1999/xlink"
   xmlns="http://www.w3.org/2000/svg"
   xmlns:svg="http://www.w3.org/2000/svg"
   xmlns:ffdec="https://www.free-decompiler.com/flash">
  <sodipodi:namedview
     id="namedview20"
     pagecolor="#ffffff"
     bordercolor="#000000"
     borderopacity="0.25"
     inkscape:showpageshadow="2"
     inkscape:pageopacity="0.0"
     inkscape:pagecheckerboard="0"
     inkscape:deskcolor="#d1d1d1"
     fit-margin-top="5"
     fit-margin-left="5"
     fit-margin-right="5"
     fit-margin-bottom="5" />
  <g
     transform="translate(36.95,62.1875)"
     id="g3">
    <use
       ffdec:characterId="357"
       height="19.299999"
       transform="matrix(-0.7038,0,0,0.7038,-1.2,-59.05)"
       width="19.450001"
       xlink:href="#sprite0"
       id="use1" />
    <use
       ffdec:characterId="359"
       height="16.5"
       transform="matrix(0,-1.0244,-1.0244,0,9.6,-45.1)"
       width="9.6499996"
       xlink:href="#sprite1"
       id="use2" />
    <use
       ffdec:characterId="360"
       height="109.75"
       transform="translate(-36.95,-62.2)"
       width="74"
       xlink:href="#shape2"
       id="use3" />
  </g>
  <defs
     id="defs20">
    <g
       id="sprite0">
      <use
         ffdec:characterId="356"
         height="19.299999"
         width="19.450001"
         xlink:href="#shape0"
         id="use4" />
    </g>
    <g
       id="shape0">
      <path
         d="M 16.35,6.8 V 6.45 q 0.5,1.15 0.5,3.05 l -0.1,1.15 V 10.7 H 15.7 l 0.05,-0.4 0.45,-1.4 0.1,-0.15 0.1,-0.95 -0.05,-1 m -4.35,5 h 2.6 l 2,-0.55 -0.6,1.4 -0.3,-0.2 H 14.95 L 14.8,12.3 14.65,12.45 13.7,12.55 13.45,12.6 11.55,12.75 12,11.8 M 13.95,10.4 14,10.75 H 13.85 L 12.4,10.9 13.25,9 14.55,6.1 14.3,8.15 q -0.35,1.5 -0.35,2.25 M 11.05,6.35 11,6.55 10.85,7.45 10.2,9 9.95,9.65 l 0.1,-1.15 0.2,-2 0.8,-0.15 m 3.35,-2 -0.3,0.75 -1.2,3.2 -1.15,2.8 -0.25,0.25 V 11.6 L 9.7,15.25 9.1,16.3 7.55,16.1 7.8,15.75 9.35,13.25 9.45,13.2 9.5,12.95 11.4,9.2 12.3,7.3 13.5,4.45 13.65,4 14.4,4.35 m -3.45,0.5 H 11.3 L 11.7,4.7 12.1,4.45 11.6,5.6 H 11.5 L 10.7,5.75 10.3,5.9 10.4,4.85 h 0.55 m 0,-1.05 0.15,0.5 H 10.95 L 10.45,4.5 10.5,3.3 V 3 l 0.65,0.15 -0.2,0.65 m 1.6,-0.25 V 3.6 L 12.15,4.4 12.1,4.25 h -0.55 l 0.2,-0.9 V 3.3 l 0.15,0.05 0.5,0.15 0.15,0.05 M 15.3,5.5 15.25,5.2 15,5.15 14.9,5.25 15.1,4.85 15.9,5.7 15.45,7.05 15.4,7.2 q -0.35,1.45 -0.35,2.5 l 0.05,1 H 14.5 L 15.25,6.65 15.3,5.5 m -3.2,8 0.5,-0.1 -0.05,0.1 v 0.25 q 0,1.2 0.3,2 L 12.15,16 12.25,14.75 12.2,13.8 12.1,13.5 m -0.9,1 0.05,0.3 0.3,1.35 -1.65,0.15 0.75,-1.5 0.45,-1 0.1,0.7 m 3.95,-0.95 V 13.2 H 15.7 L 15.15,14 v -0.45 m -0.65,-0.35 -0.05,0.5 0.05,1 -0.75,0.55 V 15.1 L 13.7,14.05 13.3,13.3 14.5,13.2 M 4.15,14.1 3.95,13.8 3.9,13.7 H 4.3 4.5 L 4.15,14.1 M 6,14.65 5.45,15.25 4.85,14.8 6.05,13.65 6.7,13.6 6,14.65 M 5.25,11.9 5.6,11.85 5.65,11.7 l 0.4,-0.05 1.2,-0.3 -0.2,1.4 -0.45,0.1 -1.3,0.1 -1.75,0.1 -0.4,-1.15 2.05,-0.15 0.05,0.15 m 1.9,-1.15 -0.05,-0.4 0.5,-1.2 -0.25,1.6 H 7.15 M 6.65,7.4 7.15,7.25 Q 6.85,7.8 6.8,9.05 L 6.35,7.55 6.65,7.4 M 7.75,6.85 V 7.1 l -0.2,-0.15 0.2,-0.1 m -4.8,3.5 Q 2.95,8.95 3.6,7.5 L 4.85,10.85 3,10.95 2.95,10.35 M 4.85,5.55 4.95,6 5,6.05 6.55,10.8 H 5.75 V 10.5 L 4.9,8 4.2,6.45 4.35,6.2 4.85,5.55 M 5.9,5 5.55,5.2 5.45,4.9 Q 6.5,3.85 7.95,3.25 l -0.2,1.4 Q 6.75,4.6 5.9,5 M 5.8,5.9 7.1,5.65 7.75,5.45 V 6.2 L 6.55,6.5 6.1,6.7 5.8,5.9 M 9.3,2.8 9.9,2.9 9.4,6.45 Q 9.05,9.4 9,11.45 L 8.2,12.9 7.55,14.2 V 14.1 L 8.2,10 8.55,6.1 8.6,4.45 8.45,3.05 9.3,2.8"
         fill="#b6b6b6"
         fill-rule="evenodd"
         stroke="none"
         id="path4" />
      <path
         d="M 15.3,5.5 15.25,6.65 14.5,10.7 h 0.6 l -0.05,-1 q 0,-1.05 0.35,-2.5 L 15.45,7.05 15.9,5.7 15.1,4.85 14.9,5.25 15,5.15 15.25,5.2 15.3,5.5 M 12.55,3.55 12.4,3.5 11.9,3.35 11.75,3.3 v 0.05 l -0.2,0.9 h 0.55 l 0.05,0.15 0.4,-0.8 V 3.55 M 10.95,3.8 11.15,3.15 10.5,3 v 0.3 l -0.05,1.2 0.5,-0.2 H 11.1 L 10.95,3.8 m 0,1.05 H 10.4 L 10.3,5.9 10.7,5.75 11.5,5.6 h 0.1 L 12.1,4.45 11.7,4.7 11.3,4.85 H 10.95 M 14.4,4.35 13.65,4 13.5,4.45 12.3,7.3 11.4,9.2 9.5,12.95 9.45,13.2 9.35,13.25 7.8,15.75 7.55,16.1 9.1,16.3 9.7,15.25 11.5,11.6 V 11.35 L 11.75,11.1 12.9,8.3 14.1,5.1 14.4,4.35 m -3.35,2 -0.8,0.15 -0.2,2 L 9.95,9.65 10.2,9 10.85,7.45 11,6.55 11.05,6.35 m 2.9,4.05 q 0,-0.75 0.35,-2.25 L 14.55,6.1 13.25,9 12.4,10.9 13.85,10.75 H 14 L 13.95,10.4 m -1.95,1.4 -0.45,0.95 1.9,-0.15 0.25,-0.05 0.95,-0.1 0.15,-0.15 0.15,0.15 h 0.75 l 0.3,0.2 0.6,-1.4 -2,0.55 H 12 m 4.35,-5 0.05,1 -0.1,0.95 -0.1,0.15 -0.45,1.4 -0.05,0.4 h 1.05 v -0.05 l 0.1,-1.15 q 0,-1.9 -0.5,-3.05 V 6.8 m 3.1,2.1 q 0,10.4 -11.1,10.4 -4.1,0 -6.6,-3 Q 0,14.2 0,12.8 0,6.9 3.05,3.4 5.7,0.35 9.75,0.05 q 3.85,-0.35 6.65,2 3.05,2.5 3.05,6.85 M 9.3,2.8 8.45,3.05 8.6,4.45 8.55,6.1 8.2,10 7.55,14.1 v 0.1 L 8.2,12.9 9,11.45 Q 9.05,9.4 9.4,6.45 L 9.9,2.9 9.3,2.8 M 5.8,5.9 6.1,6.7 6.55,6.5 7.75,6.2 V 5.45 L 7.1,5.65 5.8,5.9 M 5.9,5 Q 6.75,4.6 7.75,4.65 l 0.2,-1.4 Q 6.5,3.85 5.45,4.9 L 5.55,5.2 5.9,5 M 4.85,5.55 4.35,6.2 4.2,6.45 4.9,8 5.75,10.5 v 0.3 h 0.8 L 5,6.05 4.95,6 4.85,5.55 M 2.95,10.35 3,10.95 4.85,10.85 3.6,7.5 Q 2.95,8.95 2.95,10.35 m 4.8,-3.5 -0.2,0.1 0.2,0.15 V 6.85 M 6.65,7.4 6.35,7.55 6.8,9.05 Q 6.85,7.8 7.15,7.25 L 6.65,7.4 m 0.5,3.35 h 0.2 l 0.25,-1.6 -0.5,1.2 0.05,0.4 M 5.25,11.9 5.2,11.75 3.15,11.9 l 0.4,1.15 1.75,-0.1 1.3,-0.1 0.45,-0.1 0.2,-1.4 -1.2,0.3 L 5.65,11.7 5.6,11.85 5.25,11.9 M 6,14.65 6.7,13.6 6.05,13.65 4.85,14.8 5.45,15.25 6,14.65 M 4.15,14.1 4.5,13.7 H 4.3 3.9 l 0.05,0.1 0.2,0.3 m 10.35,-0.9 -1.2,0.1 0.4,0.75 0.05,1.05 v 0.15 l 0.75,-0.55 -0.05,-1 0.05,-0.5 m 0.65,0.35 V 14 l 0.55,-0.8 h -0.55 v 0.35 m -3.95,0.95 -0.1,-0.7 -0.45,1 -0.75,1.5 1.65,-0.15 -0.3,-1.35 -0.05,-0.3 m 0.9,-1 0.1,0.3 0.05,0.95 -0.1,1.25 0.7,-0.25 q -0.3,-0.8 -0.3,-2 V 13.5 l 0.05,-0.1 -0.5,0.1"
         fill="#9a9a9a"
         fill-rule="evenodd"
         stroke="none"
         id="path5" />
    </g>
    <g
       id="sprite1">
      <use
         ffdec:characterId="358"
         height="16.5"
         width="9.6499996"
         xlink:href="#shape1"
         id="use5" />
    </g>
    <g
       id="shape1">
      <path
         d="M 1.4,3.05 Q 1.95,2.7 2.95,2.3 L 5.3,1 3.3,0.8 q -1.45,0 -2.1,1 L 0.35,3.15 H 0.05 L 0,2.8 Q 0,0.85 3.2,0.2 6.35,-0.45 6.35,0.8 6.35,1.7 4.8,2.75 L 3.65,3.4 q 3.7,0.45 5.1,1.85 0.9,0.9 0.9,2.75 0,1.65 -1.3,3.7 L 8,12.3 H 7.8 L 7.6,12.35 7.3,11.95 7.55,11.5 Q 8.8,9.15 8.8,7.95 8.8,6.45 7.95,5.65 6.65,4.4 3.5,4.15 L 4.75,5.3 q 1.8,1.95 2.4,3.65 l -0.1,0.5 -0.4,0.1 q -1.6,0 -2.3,-1.15 L 3.75,6.8 h -0.1 l 1.4,3.9 0.15,3.15 V 15.4 Q 5.1,16.5 4.55,16.5 2,16.5 0.75,12 L 0.05,7.4 0.1,5.8 Q 0.2,5.15 0.5,4.65 V 4.45 L 0.7,4.1 0.4,4.05 0.3,3.65 q 0,-0.3 0.25,-0.4 L 0.75,3.2 H 1.1 L 1.7,1.95 1.4,3.05 M 1.35,4.1 1.85,4.9 1.6,4.1 H 1.35 M 1.05,4.9 V 7.2 Q 1,8.75 1.7,9.45 L 2.1,9.4 2.3,8.2 1.8,6.4 1.15,4.85 1.05,4.9 M 3.7,5.75 4.3,6.35 3.7,5.7 V 5.75 M 4.35,6.5 4.8,7.65 q 0.35,0.7 0.95,0.9 -0.6,-1.8 -1.4,-2.1 V 6.5 M 3.25,8.2 3,9.3 q -0.3,0.9 -0.8,0.9 -0.9,0 -1.35,-0.75 0.45,4.4 3.1,6.25 l 0.4,-0.05 0.05,-1.9 Q 4.4,10.6 3.25,7.9 v 0.3"
         fill="#9a9a9a"
         fill-rule="evenodd"
         stroke="none"
         id="path6" />
    </g>
    <g
       id="shape2"
       transform="translate(36.95,62.2)">
      <path
         d="m 37,-36.95 q -0.15,3.05 -1.05,3.65 l -3.8,0.15 0.2,14.9 v 9.4 2.3 L 32.2,5.35 32.35,17.3 v 9.4 2.3 l -0.3,17.35 v 0.1 H 32 q -0.65,0.9 -3.6,1.05 l -1.1,0.05 H 27.2 L 25.95,47.5 q -2.55,-0.15 -3.3,-0.85 l -1.2,-0.05 q -2.9,-0.15 -3.5,-1.05 l -0.1,-3.5 -11.4,0.1 H -3.8 -6.35 l -11,-0.1 -0.1,3.45 q -0.6,0.9 -3.65,1.05 l -1,0.05 q -0.8,0.7 -3.5,0.85 l -1.1,0.05 h -0.1 l -1.25,-0.05 q -2.9,-0.15 -3.5,-1.05 l -0.25,-17.45 -0.05,-9.4 0.05,-3.6 0.05,-6.65 0.05,-3.8 -0.1,-12.1 -0.05,-9.4 0.05,-3.6 0.05,-6.65 0.15,-6.9 -4.15,-0.15 h -0.1 v -0.05 q -0.9,-0.65 -1.05,-3.6 l -0.05,-1.1 v -0.1 l 0.05,-1.25 q 0.15,-2.9 1.05,-3.5 l 2.15,-0.05 -0.05,-2.4 q 0,-1.6 0.65,-2.15 l 0.55,-0.35 h 5.65 l -0.05,-0.15 0.35,-0.75 q 0.35,-0.45 0.95,-0.35 v -0.1 l -0.25,-3.85 0.25,-1.8 -0.25,-0.15 v -0.2 h -0.15 q -1.3,-0.25 -1.3,-1.25 l 0.25,-0.65 0.8,-0.6 h 4.15 v -0.1 l 0.5,0.05 0.5,-0.05 v 0.1 h 4.1 q 0.55,0.15 0.8,0.6 l 0.25,0.65 q 0,1 -1.3,1.25 h -0.5 q 0.35,0.8 0.35,2.15 l -0.05,1.8 2.2,-0.2 h 0.35 l 1.45,-5.35 0.05,-0.35 0.2,-0.35 q -0.85,-0.65 -0.3,-2.85 0.6,-2.1 1.85,-1.8 1.35,0.3 0.75,2.6 l -0.45,1.3 q -0.35,0.7 -0.85,0.85 l -0.1,0.6 -0.2,0.35 -1.35,5.1 q 2.3,0.45 3.65,2.3 l 1.25,1.2 h 6.15 l 0.15,-0.45 q 0.45,-1.9 0.95,-2.3 1.45,0.1 4.45,1.45 2.9,1.3 3.25,1.3 H 6 q 0.45,0 0.8,-0.55 l 0.3,-0.85 -0.8,-1.5 q -0.75,-1.3 -0.75,-1.65 0,-1.2 0.85,-1.6 1.05,-0.6 2.85,0.95 0.3,0.3 0.6,1.8 0.55,1.45 2,1.45 l 0.6,-0.1 -0.1,-1.45 q 0.7,0.4 0.7,1.4 l -0.15,0.5 q -0.4,0.45 -1.6,0.45 -1.45,0 -2,-2 -0.55,-2.1 -2.1,-2.1 -0.4,0 -0.5,0.3 l -0.05,0.2 1.15,1.9 q 0.4,0.65 0.4,1.5 0,0.8 -0.35,1.25 l -0.05,0.1 H 31 l 0.55,0.35 q 0.65,0.55 0.65,2.15 l -0.05,2.35 3.8,0.1 q 0.9,0.6 1.05,3.5 l 0.05,1.25 v 0.1 l -0.05,1.1 m -2.8,-1.45 v -0.2 -0.85 l 0.05,-1 -1.4,0.2 -0.9,0.15 H 30.5 30.05 l -0.55,0.05 -4.25,0.1 -2.45,0.05 H 20.9 18.5 15.75 14.65 11.8 10.35 9.05 8.85 6.8 3.25 1.95 -0.5 -1.15 v -0.05 l -3.6,-0.15 H -5.2 l -2.35,-0.15 -1.4,-0.2 0.05,0.55 v 0.45 0.85 0.05 0.45 0.15 0.05 0.3 0.35 l -0.05,0.85 v 0.05 0.55 l 1.4,-0.15 2.35,-0.15 h 0.45 l 3.6,-0.1 v -0.05 L -1,-36.3 -0.5,-36.35 H 1.95 5.6 6.8 9.05 10 h 0.35 1.4 6.75 l 4.85,0.05 1.9,0.05 4.8,0.15 h 0.45 1.1 l 1.25,0.15 1.4,0.15 v -0.6 l -0.05,-1.2 v -0.5 -0.3 m -4.9,-6.45 h -8.2 l 0.05,1.4 v 0.3 l 8.2,0.1 -0.05,-1.8 m -2,11.8 h -0.2 v 0.15 l -0.15,0.05 v 13.7 l 0.45,4.3 0.05,1 q 0.15,2 -0.65,2.85 l -0.2,0.15 0.05,0.05 0.1,0.05 0.75,0.8 V 0.65 1 L 27.45,1.35 27.4,1.25 V 1.6 9.15 h 0.35 0.35 l 0.85,0.05 h 0.2 0.4 L 29.4,7.8 29.25,5.95 V 5.75 5.45 5.3 5 4.85 l -0.1,-3.3 V 1.4 H 29.1 L 29,0.75 v -1.9 -0.55 -3.65 -1.2 -3.2 -0.35 -8.15 l 0.1,-6.75 0.15,-4.8 v -0.45 Q 29.2,-31.6 29.4,-32.6 l 0.05,-0.5 -2.15,0.05 m -22.1,4.4 4.4,0.05 0.05,-0.2 0.45,-0.2 0.35,0.4 h 4.3 l 0.05,-0.3 q 0.2,-0.65 0.85,-0.85 l 0.35,0.2 0.15,0.5 -0.05,0.45 H 19 l 0.4,-1.55 q 0.55,0.35 0.65,1.2 v 0.35 h 3 v -1.05 l 0.25,-2.5 -0.95,0.05 H 18.3 -7.85 l 0.1,3.7 2.8,-0.25 h 3.05 l 0.7,-0.75 0.75,0.75 h 4.7 v -0.05 q 0.1,-0.45 0.55,-0.75 l 0.4,0.8 m 13.3,-14.5 h 1.7 v -0.4 l 0.05,-1.3 h -4.5 l 0.1,1.25 h 0.45 l 0.8,0.35 v 0.1 h 1.4 M 9.1,-43.2 h 4.25 l -0.05,-0.05 1.05,-0.25 v -0.05 q 0,-0.8 0.15,-1.3 H 8.1 l 0.1,1.65 h 0.9 m -10.4,-6.2 -0.2,1.55 h 4.8 l -0.6,-0.4 Q 1.1,-49.3 -0.1,-49.4 h -1.2 m 4.05,4.55 h -9.3 l -0.05,0.25 v 0.35 l 0.85,0.25 -0.4,0.45 H -6.6 v 0.4 h 3.3 v -0.2 l 0.6,-0.45 0.45,0.65 1.65,0.05 0.3,-0.45 0.35,0.45 H 0.2 l 2.65,-0.05 -0.1,-1.45 v -0.25 m 2.8,1.7 0.1,-1.7 H 3.8 v 0.2 l -0.05,1.5 h 1.8 m 5.95,16.8 0.6,-0.6 0.25,-0.2 h -1.8 q -0.1,0.9 -0.65,0.8 l -0.3,-0.8 H 5.25 q -0.1,0.8 -0.45,1.05 -0.35,-0.35 -0.5,-1.05 l -3.7,0.05 -1.25,-0.05 q -0.25,1.35 -0.65,1.65 -0.6,-0.65 -0.75,-1.65 l -5.75,-0.2 v 0.8 l -0.05,4 q -0.05,1.6 -0.4,2.7 1,-0.75 2.2,-1.2 v -0.5 l 0.4,-0.25 0.75,0.4 2.05,-0.15 1.9,0.15 0.05,-0.75 q 0.25,-1.75 1,-2.75 h 5.7 l 0.05,-1 0.55,-0.2 0.55,1 v 0.2 h 3.35 l 0.3,-0.9 0.45,-0.05 0.1,0.1 0.35,-0.6 m 3.05,1.55 -0.55,0.5 -0.45,-0.1 -0.1,-0.45 0.05,-0.05 0.1,-0.3 0.65,-0.05 0.3,0.35 v 0.1 m -0.4,-1.15 q -1.2,0.1 -1.45,1.05 l -0.1,0.6 0.15,1.45 q 0.5,1.4 2.05,1.4 1.2,0 2,-0.65 l 0.35,-0.4 0.55,-1 v -0.1 h 0.05 l 0.05,-0.4 -0.25,-0.9 -0.5,-0.5 q -0.65,-0.45 -1.85,-0.55 h -1.05 m 1.55,1.8 -0.4,-0.1 -0.05,-0.1 -0.05,-0.35 0.15,-0.2 q 0.4,-0.5 0.6,-0.3 l 0.25,0.3 v 0.2 0.3 q -0.1,0.25 -0.5,0.25 m 3.7,0.8 -0.55,1.35 0.05,0.55 0.1,3 0.95,0.1 1.3,0.25 q -1.5,1.1 -2.25,0.85 l -0.1,0.85 1.3,0.2 q -0.4,0.35 -1.3,0.65 l -0.25,2.35 h 4.4 l 0.05,-0.5 0.25,-3.5 v -0.05 q -0.3,-3.5 -0.3,-6.5 V -27.2 H 20 q -0.05,0.85 -0.55,1.15 L 19,-27.2 l -1.1,0.05 0.75,0.8 q 0.75,1.1 0.75,3 m -5,0.6 -0.45,-0.1 -0.05,-0.25 -0.05,-0.15 v -0.15 l 0.1,-0.25 0.1,0.05 q 0.85,-0.2 0.85,0.45 v 0.05 l -0.1,0.3 -0.4,0.05 m 1.8,-1 0.15,0.35 -0.05,0.3 -0.05,0.05 -0.4,0.1 -0.2,-0.15 -0.25,-0.3 0.45,-0.45 0.35,0.1 m -5.1,2 -0.1,-0.3 -0.25,0.25 -0.45,-1.3 H 6.95 v 0.5 Q 6.8,-21.8 6.1,-21.55 L 5.8,-21.8 q -0.15,-0.1 -0.15,-0.5 l 0.05,-0.8 -4.6,0.05 v 4.8 l 1.55,0.35 -1.55,0.15 v 1.3 l 1.3,0.25 0.6,0.65 -0.85,0.45 H 1.1 l -0.2,1.9 h 16.4 l -0.5,-1.45 v -0.55 l -1.95,-0.35 0.3,-0.5 1.65,-0.4 v -1.25 l -1.15,0.35 q -0.6,-0.2 -0.7,-0.5 l 0.6,-0.55 1.25,-0.1 V -20 l -2.1,0.35 q -2.7,0 -3.6,-2.1 m 0,13.35 H 1.15 l 0.3,2.1 H 1.8 q 0.8,0.15 1,0.5 L 2.45,-5.3 1.5,-5.1 v 1.15 H 2.35 L 2.45,-4 2.5,-3.65 2.45,-3.3 2.35,-3.1 1.8,-3 1.5,-3.05 1.45,-2.25 v 0.9 H 3.4 L 4.6,-1.4 4.35,-2.15 4.45,-2.9 H 5.1 l 0.8,1.1 0.05,0.1 q 2.75,-0.85 4.2,-3.75 L 10.3,-5.9 9.75,-6.2 q 0.35,-0.35 0.8,-0.45 L 11.1,-8.4 m -30.05,9.45 q -0.6,-1.05 -0.6,-2.2 0,-1.15 0.55,-2.05 l -0.45,-0.05 -1.3,-0.25 q 1.5,-1.1 2.25,-0.85 l 0.1,-0.85 -1.3,-0.2 1.3,-0.65 0.25,-2.35 h -4.4 l -0.05,0.5 -0.25,3.5 v 0.05 q 0.3,3.5 0.3,6.5 V 5.6 h 3.05 q 0.05,-0.85 0.55,-1.15 l 0.45,1.15 3.1,-0.05 0.35,-0.95 q 0.6,0 0.75,0.95 h 4.25 q 0.1,-0.9 0.65,-0.8 l 0.3,0.8 h 4.35 q 0.1,-0.8 0.45,-1.05 0.35,0.35 0.5,1.05 L -0.1,5.5 1.15,5.55 Q 1.4,4.2 1.8,3.9 2.4,4.55 2.55,5.55 l 5.75,0.2 v -0.8 l 0.05,-4 q 0.05,-1.6 0.4,-2.7 -1,0.75 -2.2,1.2 v 0.5 L 6.15,0.2 Q 5.7,0.05 5.4,-0.2 L 3.35,-0.05 1.45,-0.2 1.4,0.55 Q 1.15,2.3 0.4,3.3 h -5.7 l -0.05,1 -0.55,0.2 -0.55,-1 V 3.3 H -9.8 l -0.3,0.9 -0.45,0.05 -0.35,-0.95 h -6.45 L -18,2.15 -18.95,1.05 m 30.6,-0.5 q 0,-2.4 1.35,-3.75 1.2,-1.2 3,-1.15 l 1.7,0.45 h 1.1 l 0.15,-1.7 h 0.45 q 0.4,0.2 0.5,1.7 h 1.4 v -0.05 q 0.1,-1 0.7,-1.35 l 0.2,0.5 0.2,0.9 H 24 L 24.1,-5.05 23.75,-8.4 H 12.3 v 0.55 l -0.2,1.35 1.2,0.9 q -0.35,0.55 -0.9,0.55 l -0.8,-0.1 -1.45,2.05 -0.15,0.2 0.25,0.85 -0.1,1.15 0.1,1.65 L 9.85,5 9.8,10.5 h 4.8 L 14.65,7.8 H 13.8 L 13.35,7.7 Q 13.2,7.6 13.2,7.25 13.2,6.75 14,6.7 L 14.65,6.75 14.7,4.7 H 14.35 Q 13.7,4.7 12.9,4.1 13.4,3.8 13.8,3.7 L 14.15,3.65 12.5,2.4 Q 11.65,1.3 11.65,0.55 m 3.45,-2.75 -0.3,0.1 -0.95,0.55 q -0.3,0.35 -0.3,1.15 0,0.8 0.25,1.25 l 0.95,1.05 0.2,0.15 1.7,0.05 q 1.3,0 1.65,-1.2 l 0.1,-1.1 V -0.45 L 18,-1.35 17.85,-1.6 q -0.4,-0.55 -0.9,-0.65 H 16.8 16.35 L 15.1,-2.2 m 2.45,2.35 -0.05,0.3 q -0.15,0.4 -0.7,0.4 L 16.35,0.75 Q 16,0.6 16,0.15 q 0,-0.4 0.25,-0.6 h 0.1 l 0.45,-0.1 q 0.75,0 0.75,0.7 m -1.7,-0.9 q -0.1,0.5 -0.9,0.5 l -0.2,-0.05 -0.3,-0.05 -0.1,-0.55 0.4,-0.5 0.35,-0.15 h 0.25 q 0.5,0.05 0.5,0.6 v 0.2 m 4,3 q -0.7,1.15 -2.25,1.5 l 0.05,0.3 -0.75,0.65 h -0.65 v 1 l 0.05,1.2 1.45,0.25 0.3,0.05 0.05,0.1 -0.35,0.2 -1.2,0.3 H 16.3 l 0.1,2.3 v 0.4 h 7.95 Q 24.1,9.15 24,7.05 V 1.35 L 23.95,-1.3 24,-2.8 22.45,-2.75 22.3,-1.5 21.85,-1.35 q -0.4,-0.25 -0.5,-0.7 V -2.1 -2.75 H 19.9 l -0.05,0.85 v 0.15 q 0.45,1 0.45,2.3 l -0.45,1.7 M 27.4,12 h -0.05 l -0.25,0.6 -0.25,0.4 0.55,0.45 q 0.65,0.85 0.5,2.65 l -0.5,5.3 v 13.7 l 0.15,0.05 v 0.35 l -0.25,0.9 v 0.05 q -0.15,1 -1.55,1.15 H 25.4 l -0.15,2.95 V 41 l -0.15,2.35 -0.05,0.4 v 0.1 l -0.15,0.9 1,-0.05 h 0.85 0.5 0.15 0.2 0.15 0.35 l 0.85,0.05 h 0.6 l -0.15,-1.4 q -0.2,-1 -0.15,-2.35 v -0.45 l -0.1,-3.6 H 29.1 L 29,36.3 V 33.85 30.2 29 25.8 25.45 17.3 l 0.05,-5.4 -0.65,0.05 -1,0.05 m -7.5,16.15 q -0.9,0.95 -2.3,1.3 h 1.85 L 19.9,28.3 q 0.5,0.3 0.55,1.15 H 23.5 V 26 q 0,-3 0.3,-6.5 v -0.05 l -0.25,-3.5 -0.05,-0.5 h -4.4 l 0.25,2.35 1.3,0.65 -1.3,0.2 0.1,0.85 q 0.55,-0.2 1.5,0.35 l 0.75,0.5 -0.75,0.2 -0.55,0.05 -0.95,0.1 v 1.85 q 1.3,1.45 1.3,4.1 0,0.6 -0.85,1.5 M -4.7,7.05 -9.1,7 -9.15,7.2 -9.6,7.4 -9.95,7 h -4.3 l -0.05,0.3 q -0.2,0.65 -0.85,0.85 L -15.5,7.95 -15.65,7.45 -15.6,7 h -2.9 l -0.4,1.55 Q -19.45,8.2 -19.55,7.35 V 7 h -3 v 1.05 l -0.25,2.5 1.1,-0.05 h 0.5 0.7 2.7 26.15 L 8.25,6.8 5.45,7.05 H 2.4 L 1.7,7.8 0.95,7.05 h -4.7 V 7.1 q -0.1,0.45 -0.55,0.75 l -0.4,-0.8 m 21.1,14.2 0.85,0.05 V 20.75 L 16,20.65 15.4,20.1 q 0.1,-0.3 0.7,-0.5 l 1.15,0.35 V 18.7 q -1.2,-0.1 -1.65,-0.4 l -0.3,-0.5 q 0.95,-0.4 1.95,-0.35 V 16.9 l 0.45,-1.3 0.05,-0.15 H 1.35 l 0.2,1.9 H 2.6 l 0.85,0.45 -0.6,0.65 -1.3,0.25 V 20 L 3.1,20.15 1.55,20.5 v 4.8 l 4.6,0.05 -0.05,-0.8 q 0,-0.4 0.15,-0.5 l 0.3,-0.25 q 0.7,0.25 0.85,1.05 v 0.5 h 3.35 l 0.45,-1.3 q 0.6,0.65 0.65,1.2 v 0.1 h 0.25 q 0.05,-1.75 1.35,-2.9 1.25,-1.15 2.95,-1.2 m 2.9,3.4 V 24.5 24.4 l -0.55,-1.2 -0.6,-0.35 -0.9,-0.1 h -0.3 l -0.45,0.05 -0.65,0.15 q -1.95,0.6 -2.1,2.4 v 0.25 q 0,0.45 0.6,1.15 l 0.35,0.4 0.95,0.65 h 1.2 q 1.8,-0.5 2.25,-1.3 L 19.35,25 19.3,24.65 m -2.45,-0.4 0.4,-0.2 0.2,-0.05 q 0.65,0 0.65,0.6 l -0.05,0.2 -0.55,0.4 H 17.25 Q 16.8,25.05 16.8,24.55 l 0.05,-0.3 m -0.85,2 q 0,0.55 -0.5,0.55 l -0.3,-0.05 -0.05,-0.1 -0.1,-0.35 0.1,-0.4 Q 16,25.75 16,26.25 m 1.65,0 q 0,0.55 -0.5,0.55 l -0.3,-0.05 -0.05,-0.1 -0.1,-0.35 0.15,-0.4 0.7,0.05 0.1,0.3 m -1.35,-1.65 -0.05,0.25 -0.6,0.4 -0.4,-0.15 -0.3,-0.5 q 0,-0.6 0.65,-0.6 0.7,0 0.7,0.6 M 5.65,30.9 5.25,31.7 Q 4.8,31.4 4.7,30.95 V 30.9 H 0 l -0.75,0.75 -0.7,-0.75 H -4.5 L -7.3,30.65 V 32 l -0.1,2.35 h 26.15 q 3.15,-0.1 5,0.05 L 23.5,31.9 v -1.05 h -3 v 0.35 q -0.1,0.85 -0.65,1.2 l -0.4,-1.55 h -2.9 L 16.6,31.3 16.45,31.8 16.1,32 q -0.65,-0.2 -0.85,-0.85 l -0.05,-0.3 h -4.3 l -0.35,0.4 -0.45,-0.2 -0.05,-0.2 -4.4,0.05 m 7.05,-3.2 -0.25,-0.55 h -0.6 l -0.35,0.95 -0.45,-0.05 -0.3,-0.9 H 7.4 v 0.2 l -0.55,1 -0.55,-0.2 -0.05,-1 h -5.7 q -0.75,-1 -1,-2.75 L -0.5,23.65 -2.4,23.8 -4.45,23.65 -5.2,24.05 -5.6,23.8 v -0.5 l -2.2,-1.2 q 0.35,1.1 0.4,2.7 l 0.05,4 v 0.8 l 5.75,-0.2 q 0.15,-1 0.75,-1.65 0.4,0.3 0.65,1.65 l 1.25,-0.05 3.7,0.05 Q 4.9,28.7 5.25,28.35 5.6,28.6 5.7,29.4 h 4.35 l 0.3,-0.8 Q 10.9,28.5 11,29.4 h 3.95 Q 13.45,29 12.7,27.7 M -2.85,38.8 h 0.4 8.9 l 7.35,0.1 4,0.1 1.2,0.05 h 0.5 1.3 l 1.25,0.15 0.25,0.05 -0.05,-1.6 -3.5,-0.05 H 7.6 v -0.05 h -19.65 -6.25 -0.55 -2.85 v 0.2 l -0.05,1.45 1.5,-0.15 h 0.85 0.5 L -17.25,39 -15,38.95 V 38.9 l 0.7,-0.1 h 2.7 3.95 1.3 3.5 m 25.1,5 H 22.4 L 22.35,41.95 20.7,42 l -0.1,0.45 -0.2,1.4 1,-0.05 h 0.85 m -41.5,-94.55 -0.75,0.05 -2.15,0.15 -1.65,-0.1 h -0.35 l 0.05,0.6 3.3,-0.3 h 0.7 l 0.85,0.05 v -0.45 m 0.05,-0.55 0.05,-0.85 -5,0.7 v 0.35 l 4.95,-0.2 m -5.3,-3.3 0.2,1.2 h 5.3 v -0.05 l -3.15,-0.65 -2.35,-0.5 m 3.7,1.85 h -3.45 l 0.05,0.65 2.5,-0.55 0.9,-0.1 m 8.8,-8.45 -0.7,1.15 v 1.4 q 0.6,0.15 0.9,-0.9 0.25,-1.05 -0.2,-1.65 m -6.7,6 h -5.4 l 5.15,0.9 0.25,-0.9 m 1.15,4.75 -0.15,1.25 v 0.1 q 0.6,-0.1 0.95,0.35 0.35,0.35 0.35,0.75 v 0.15 h 0.5 l 0.65,-2.45 -2.3,-0.15 m 2.7,7.2 v 0.05 l 6.95,0.05 v -0.45 q -0.65,-0.1 -0.8,-0.35 l 0.45,-0.35 h 0.35 v -0.3 -0.25 h -7.75 l -0.25,0.95 v 0.35 0.05 l 1.05,0.25 m 4.3,-4.7 q -1.25,-1.55 -3.7,-2.15 l -0.6,2.25 h 4.4 l -0.1,-0.1 m -8.7,-1.25 h -0.3 l -3.45,-0.3 -1.1,-0.2 v 0.45 l -0.05,0.15 h 4.95 l -0.05,-0.1 m -0.45,6.05 h 1.1 l -0.05,-0.1 q 0.25,-0.35 0.8,-0.35 h 0.45 l 0.1,-1.25 h -4.5 l 0.05,1.3 v 0.45 l 2.05,-0.05 m 3.35,3.25 h -0.95 -1.1 -3.55 -1.3 -1.1 -1.35 -0.65 v -0.05 l -3.6,-0.15 h -0.45 -0.65 l -1.7,-0.15 -0.75,-0.1 -0.65,-0.1 0.05,1 v 0.85 0.5 0.15 0.35 0.35 l -0.05,0.85 v 0.6 l 1.4,-0.15 1.6,-0.15 h 0.75 0.45 l 3.6,-0.1 v -0.05 l 0.65,-0.1 h 2.45 3.65 1.2 3.2 0.35 3.2 l -0.05,-0.6 -0.05,-1.1 v -0.1 -0.05 l 0.05,-0.8 v -0.4 l 0.05,-0.5 h -3.2 -1.3 -0.2 m -2.45,13.35 0.6,-0.6 q 0.7,-0.6 1.5,-0.85 l 0.75,-0.15 h 0.2 l -0.05,-0.35 -1.75,-0.3 -0.05,-0.1 1.55,-0.5 h 0.25 l -0.1,-2.3 v -0.4 h -7.95 q 0.25,1.35 0.35,3.45 v 5.7 l 0.05,2.65 -0.05,1.5 1.55,-0.05 0.15,-1.25 0.45,-0.15 q 0.4,0.25 0.5,0.7 v 0.7 h 1.45 l 0.1,-1.35 0.15,-0.15 0.7,-0.05 0.15,1.55 h 2.45 v -1 q -2.5,-0.1 -3.35,-2.1 -0.35,-0.85 -0.35,-2.3 0,-1.35 0.75,-2.3 m 3.05,1.55 -0.05,0.1 -0.5,0.4 -0.45,-0.1 -0.1,-0.45 0.1,-0.1 0.05,-0.25 0.65,-0.05 q 0.3,0.05 0.3,0.4 V -25 m -0.4,-1.15 -0.75,0.2 q -0.8,0.4 -0.8,1.45 l 0.15,1.45 q 0.45,1.25 1.75,1.4 h 0.3 l 1.25,-0.2 q 0.65,-0.3 1.1,-0.85 0.45,-0.5 0.55,-1 l 0.05,-0.1 0.05,-0.4 q 0,-0.75 -0.5,-1.2 l -0.25,-0.2 q -0.65,-0.45 -1.85,-0.55 h -1.05 m 4.45,4.5 q -0.9,1.3 -2.55,1.7 l -0.2,1.25 0.2,0.1 v 0.4 q 0,0.35 -0.3,0.45 l -0.2,0.05 -0.3,0.3 q -0.55,0.3 -0.75,-0.25 l -2.5,-0.05 -0.15,1.7 h -0.45 q -0.4,-0.2 -0.5,-1.7 h -1.4 v 0.05 q -0.1,1 -0.7,1.35 l -0.15,-0.35 -0.25,-1.05 h -1.6 l -0.1,1.15 0.35,3.35 h 11.45 v -0.55 l 0.2,-1.35 -1.2,-0.9 q 0.35,-0.55 0.9,-0.55 l 0.8,0.1 1.45,-2.05 0.15,-0.2 -0.25,-0.85 0.1,-1.15 -0.1,-1.65 0.4,-4.25 0.05,-5.5 h -4.8 l -0.05,2.7 h 0.85 l 0.45,0.1 q 0.15,0.1 0.15,0.45 0,0.5 -0.8,0.55 l -0.65,-0.05 v 0.25 q 1.7,0.3 2.5,1.55 0.75,1.1 0.75,3 l -0.8,1.9 m -2.9,-2.7 -0.4,-0.1 -0.05,-0.1 -0.05,-0.35 q 0.5,-0.75 0.75,-0.5 l 0.2,0.2 0.05,0.3 v 0.3 l -0.1,0.15 -0.4,0.1 M -26.35,-43.1 h 3.65 v -0.35 l 0.05,-1.4 h -8.2 l -0.05,1.8 4.55,-0.05 M -27,-12.5 v -10.1 l 0.1,-0.25 v -10.2 l -2.05,-0.05 0.05,0.45 q 0.2,1 0.15,2.35 v 0.45 l 0.15,3.6 h 0.05 v 0.65 2.45 1.3 3.55 2.05 1.5 8.15 5.4 l 0.5,-0.05 0.85,-0.05 h 0.4 0.1 0.1 0.15 v -1.15 l -0.15,-1.5 -0.35,-3.8 q -0.15,-1.5 0.3,-2.35 l 0.55,-0.65 -0.05,-0.05 -0.65,-0.6 -0.2,-0.25 v -0.85 m 16.4,-0.7 h 9.95 l -0.3,-2.1 H -1.3 q -0.8,-0.15 -1,-0.5 l 0.35,-0.5 0.95,-0.2 v -1.15 h -0.85 l -0.1,0.05 -0.05,-0.35 0.05,-0.35 0.1,-0.2 0.55,-0.1 0.3,0.05 0.05,-0.8 v -0.9 H -2.9 l -1.2,0.05 0.25,0.75 -0.1,0.75 H -4.6 l -0.8,-1.1 -0.05,-0.1 q -2.75,0.85 -4.2,3.75 l -0.15,0.45 0.55,0.3 q -0.35,0.35 -0.8,0.45 l -0.55,1.75 m -5.3,-9.75 -0.45,-0.1 -0.1,-0.4 v -0.15 l 0.1,-0.25 0.1,0.05 0.45,-0.05 q 0.4,0.05 0.4,0.5 l -0.1,0.35 -0.3,0.05 h -0.1 m 1.8,-1 q 0.15,0.05 0.15,0.35 0,0.3 -0.1,0.35 l -0.15,0.05 -0.25,0.05 -0.45,-0.45 0.45,-0.45 0.25,0.1 h 0.1 m 8.5,23.9 0.3,0.25 q 0.15,0.1 0.15,0.5 L -5.2,1.5 -0.6,1.45 v -4.8 l -1.25,-0.2 Q -2.15,-3 -3,-3 q -0.55,0 -0.9,-0.4 -0.35,-0.35 -0.35,-0.85 0,-1.25 1.25,-1.25 1.25,0 1.25,1.2 l -0.05,0.6 1.2,-0.15 v -1.3 L -1.9,-5.4 -2.5,-6.05 -1.65,-6.5 h 1.05 l 0.2,-1.9 h -16.4 l 0.5,1.45 v 0.55 l 1.95,0.35 -0.3,0.5 q -0.1,0.1 -0.3,0.15 1.4,0.05 2.4,0.95 0.1,-1.05 1.25,-1.05 1.25,0 1.25,1.25 0,0.5 -0.35,0.85 -0.35,0.4 -0.9,0.4 h -0.15 q 0.55,1.25 0.55,3 0,0.6 -0.85,1.5 h 0.85 V 1.4 q 0.05,-0.55 0.65,-1.2 l 0.45,1.3 h 3.35 V 1 Q -6.3,0.2 -5.6,-0.05 L -6.7,0.1 H -7.25 -7.3 -7.5 -7.6 q -1.6,0 -2.2,-0.95 l -0.3,-1 q 0,-2.7 2.6,-2.8 h 0.2 0.3 q 2.8,0 2.8,2.8 0,0.5 -0.3,1 l -1.1,0.8 M -15.8,-3.7 q -2.1,0.65 -2.1,2.65 0,0.45 0.6,1.15 l 1,0.9 0.3,0.15 h 1.2 q 1.8,-0.5 2.25,-1.3 0.25,-0.4 0.25,-1.5 L -12.35,-2 v -0.15 q -0.1,-0.85 -0.55,-1.3 l -0.6,-0.35 -1.05,-0.1 h -0.15 l -0.45,0.05 -0.65,0.15 m 2.2,1.85 q -0.05,0.4 -0.55,0.4 -0.7,0 -0.7,-0.65 l 0.05,-0.3 q 0.2,-0.2 0.6,-0.25 0.65,0 0.65,0.6 l -0.05,0.2 m -2.05,1.45 q 0,0.55 -0.5,0.55 H -16.3 L -16.45,0.1 -16.5,0 l -0.1,-0.35 0.1,-0.4 h 0.2 q 0.65,-0.1 0.65,0.35 m 0.3,-1.65 -0.05,0.25 -0.6,0.4 -0.3,-0.1 -0.1,-0.05 -0.3,-0.5 q 0,-0.45 0.4,-0.55 l 0.25,-0.05 q 0.7,0 0.7,0.6 M -14,-0.4 q 0,0.55 -0.5,0.55 L -14.8,0.1 -14.85,0 l -0.1,-0.35 0.15,-0.4 0.7,0.05 0.1,0.3 m 3.6,-6.15 q 0,-1.35 1.35,-1.35 1.35,0 1.35,1.3 0,1.4 -1.35,1.4 -0.6,0 -1,-0.45 -0.35,-0.35 -0.35,-0.9 m 4.8,-1.35 q 1.4,0 1.4,1.3 0,1.4 -1.4,1.4 -0.55,0 -0.95,-0.45 -0.4,-0.35 -0.4,-0.9 0,-1.35 1.35,-1.35 m -5.75,35.5 q -0.75,1.2 -2.35,1.55 v 1.45 l 0.65,-0.05 q 0.8,0.05 0.8,0.55 0,0.35 -0.15,0.45 l -0.45,0.1 h -0.85 l 0.05,2.7 h 4.8 l -0.05,-5.5 -0.4,-4.25 0.1,-1.65 -0.1,-1.15 0.25,-0.85 -0.15,-0.2 -1.45,-2.05 -0.8,0.1 q -0.55,0 -0.9,-0.55 l 1.2,-0.9 -0.2,-1.35 V 15.45 H -22.8 l -0.35,3.35 0.1,1.15 h 1.6 l 0.4,-1.4 0.5,0.6 0.05,0.1 0.15,0.65 v 0.05 h 1.4 q 0.1,-1.5 0.5,-1.7 H -18 l 0.15,1.7 2.5,-0.05 q 0.2,-0.55 0.75,-0.25 l 0.3,0.3 0.2,0.05 q 0.3,0.1 0.3,0.45 v 0.4 l -0.2,0.1 0.1,0.3 0.8,0.4 0.85,0.65 0.4,0.5 q 0.95,1.25 0.95,3.1 l -0.45,1.7 m -8.2,-1.7 q 0,-2 0.95,-3.3 h -0.1 l -0.15,-0.15 -0.1,-1.35 h -1.45 v 0.7 l -0.1,0.3 -0.4,0.4 -0.45,-0.15 -0.15,-1.25 h -0.15 l -1.4,-0.05 0.05,1.5 -0.05,2.65 v 5.7 q -0.1,2.1 -0.35,3.45 h 7.95 v -0.4 l 0.1,-1.9 v -0.4 h -0.25 l -1.55,-0.5 0.05,-0.1 1.75,-0.3 0.05,-1.2 V 29.3 h -0.1 q -2.05,0 -3.3,-1.55 -0.85,-1.1 -0.85,-1.85 m 5.15,-2.8 h -0.95 l -0.75,0.05 q -0.85,0.15 -1.25,0.65 l -0.3,1.15 0.25,1.25 1.15,1.2 1.7,0.05 0.8,-0.15 q 0.6,-0.25 0.85,-1.05 l 0.1,-1.1 V 24.9 L -13.2,24 -13.35,23.75 -13.8,23.3 q -0.2,-0.15 -0.45,-0.2 h -0.15 m -1.7,0.7 h 0.25 l 0.5,0.35 v 0.25 0.2 0.1 q -0.15,0.4 -0.9,0.4 l -0.5,-0.1 -0.1,-0.55 q 0.35,-0.65 0.75,-0.65 m 1.15,1.1 0.55,-0.1 q 0.45,0 0.65,0.25 l 0.1,0.45 -0.05,0.3 -0.05,0.15 -0.65,0.25 q -0.8,0 -0.8,-0.7 l 0.25,-0.6 m -2.9,-3.8 -0.05,0.8 q 0.7,-0.6 1.6,-0.8 h -1.55 m 7.7,-5.65 0.55,1.75 q 0.45,0.1 0.8,0.45 l -0.55,0.3 0.15,0.45 q 1.45,2.9 4.2,3.75 l 0.05,-0.1 0.8,-1.1 h 0.65 l 0.1,0.75 -0.25,0.75 1.2,0.05 h 1.95 v -0.9 l -0.05,-0.8 -0.3,0.05 -0.55,-0.1 -0.1,-0.2 -0.05,-0.35 0.05,-0.35 0.1,0.05 h 0.85 v -1.15 l -0.95,-0.2 -0.35,-0.5 q 0.2,-0.35 1,-0.5 h 0.35 l 0.3,-2.1 h -9.95 M -26.45,10.5 V 1.55 h -0.15 -0.15 -0.45 -0.05 -0.85 L -28.6,1.5 h -0.5 l 0.2,1.4 q 0.15,0.8 0.15,1.85 V 4.8 4.95 5.25 5.4 5.7 5.9 l 0.15,3.25 V 9.3 h 0.05 v 0.65 1.95 0.5 1.3 3.55 2.05 1.5 8.15 l -0.05,6.75 -0.15,4.8 v 0.45 q 0.05,1.35 -0.15,2.35 l -0.2,1.4 1,-0.05 h 0.85 0.2 0.3 0.5 l 1.2,0.05 h 0.6 l -0.1,-0.9 v -0.2 l -0.05,-0.3 -0.15,-2.35 V 40.5 l -0.1,-3.3 h -0.1 q -0.8,0 -1.2,-0.75 l -0.3,-1.1 V 25.1 q -0.1,0.35 -0.1,-0.25 V 13.9 l 0.5,-0.6 H -26 l -0.05,-0.05 -0.3,-0.65 v -0.05 l -0.25,-0.9 V 11.3 l 0.15,-0.05 V 10.5 m 4.7,33.25 1.2,0.05 h 0.6 l -0.15,-1.4 -0.05,-0.4 -1.65,-0.05 -0.05,1.8 h 0.1"
         fill="#6b6b6b"
         fill-rule="evenodd"
         stroke="none"
         id="path7" />
      <path
         d="m 8.85,-39.9 h 0.2 1.3 1.45 2.85 1.1 2.75 2.4 1.9 l 2.45,-0.05 4.25,-0.1 0.55,-0.05 h 0.45 1.45 l 0.9,-0.15 1.4,-0.2 -0.05,1 v 0.85 0.2 l -2,-0.05 -2.8,-0.1 H 16.5 l -6.35,-1.1 -1.1,-0.2 -0.2,-0.05 m 25.35,1.8 v 0.5 l 0.05,1.2 v 0.6 l -1.4,-0.15 -1.25,-0.15 h -1.1 -0.45 l -4.8,-0.15 -1.9,-0.05 -4.85,-0.05 H 11.75 10.35 10 l -0.95,-0.1 -6.2,-0.95 -4.1,-0.55 -4.75,-0.25 -2.35,0.15 -0.55,0.1 v -0.15 -0.45 -0.05 -0.85 -0.45 l -0.05,-0.55 1.4,0.2 2.35,0.15 h 0.45 l 3.6,0.15 v 0.05 h 0.65 2.45 1.3 l 5.75,1 h 0.25 l 6.8,1 0.3,-0.05 h 12.9 l 2.95,-0.1 2,-0.05 M 5.6,-36.35 H 1.95 -0.5 l -0.5,0.05 -0.15,0.05 v 0.05 l -3.6,0.1 H -5.2 l -2.35,0.15 -1.4,0.15 v -0.55 -0.05 l 0.05,-0.85 4.4,-0.35 8.5,1 1.6,0.25 m 21.8,21.5 0.05,-0.95 -0.05,-0.3 V -29 l -0.1,-4.05 2.15,-0.05 -0.05,0.5 q -0.2,1 -0.15,2.35 v 0.45 L 29.1,-25 29,-18.25 v 8.15 0.35 l -1.05,7.15 -0.2,1.4 -0.25,1.85 v -10.6 l -0.75,-0.8 0.05,-0.25 q 0.8,-0.85 0.65,-2.85 l -0.05,-1 m 1.6,9.5 v 3.65 0.55 1.9 l 0.1,0.65 h 0.05 v 0.15 l 0.1,3.3 V 5 v 0.3 0.15 0.3 0.2 l 0.15,1.85 0.15,1.4 h -0.4 -0.2 L 28.1,9.15 Q 27.75,5.8 27.75,4.75 l 0.2,-3.15 0.4,-2.8 0.4,-2.55 0.25,-1.6 M 27.4,1.6 V 1.25 l 0.05,0.1 -0.05,0.25 m 0,11.85 V 12 l 1,-0.05 0.65,-0.05 -0.05,5.4 v 8.15 0.35 l -1.05,7.15 -0.15,0.95 q -0.65,4.3 -0.65,7.9 0,1.5 0.15,2.35 l 0.1,0.55 h -0.15 -0.5 -0.85 l -1,0.05 0.15,-0.9 v -0.1 L 25.1,43.35 25.25,41 V 40.55 L 25.4,37.6 h 0.35 q 1.4,-0.15 1.55,-1.15 V 36.4 l 0.25,-0.9 V 35.15 L 27.4,35.1 V 21.4 l 0.5,-5.3 q 0.15,-1.8 -0.5,-2.65 M 29,30.2 v 3.65 2.45 l 0.1,0.65 h 0.05 l 0.1,3.6 V 41 q -0.05,1.35 0.15,2.35 l 0.15,1.4 h -0.6 L 28.1,44.7 q -0.35,-3.35 -0.35,-4.4 0,-2.7 1,-8.5 L 29,30.2 m -41.05,7.35 H 7.6 v 0.05 h 11.15 l 3.5,0.05 0.05,1.6 L 22.05,39.2 20.8,39.05 H 19.5 19 L 17.8,39 13.8,38.9 6.45,38.8 h -8.9 -0.4 l -7.8,-1.05 -1.4,-0.2 m 4.4,1.25 h -3.95 -2.7 l -0.7,0.1 v 0.05 l -2.25,0.05 -1.65,0.05 h -0.5 -0.85 l -1.5,0.15 0.05,-1.45 1.4,-0.1 1.45,-0.1 h 0.55 l 1.05,0.05 7.85,0.95 1.75,0.25 m 29.9,5 H 21.4 l -1,0.05 0.2,-1.4 0.1,-0.45 1.65,-0.05 0.05,1.85 h -0.15 m -38.6,-83.7 h 0.2 1.3 3.2 l -0.05,0.5 v 0.4 l -3.35,-0.65 -0.8,-0.15 -0.3,-0.05 -0.2,-0.05 m 4.6,1.7 v 0.05 0.1 l 0.05,1.1 0.05,0.6 h -3.2 -0.35 l -2.1,-0.25 -5.05,-0.8 -8.85,-0.8 -2.35,0.15 -0.2,0.05 -0.35,0.05 v -0.15 -0.5 -0.85 l -0.05,-1 0.65,0.1 0.75,0.1 1.7,0.15 h 0.65 0.45 l 3.6,0.15 v 0.05 h 0.65 1.35 1.1 1.3 l 0.75,0.15 5.25,0.85 4.2,0.7 m -7.85,1.85 h -3.65 -2.45 l -0.65,0.1 v 0.05 l -3.6,0.1 h -0.45 -0.75 l -1.6,0.15 -1.4,0.15 v -0.6 l 0.05,-0.85 0.6,-0.05 3.8,-0.3 8.4,1 h 0.1 l 1.6,0.25 m -8.95,14.5 v -1.3 -2.45 -0.65 h -0.05 l -0.15,-3.6 v -0.45 q 0.05,-1.35 -0.15,-2.35 l -0.05,-0.45 2.05,0.05 v 10.2 l -0.1,0.25 v 10.1 l -0.55,-3.35 -1,-6 m 1.75,10.45 0.65,0.6 0.05,0.05 -0.55,0.65 -0.15,-1.3 m 0.2,7.45 0.15,1.5 v 1.15 h -0.15 v -2.65 m -0.6,2.65 -0.85,0.05 -0.5,0.05 v -5.4 -8.15 -1.5 l 0.25,1.3 1.1,6.35 v 7.3 m 0.6,2.85 -0.1,0.55 -0.15,2.35 0.15,3.4 0.1,1.25 0.15,1.4 v 0.75 l -0.15,0.05 v 0.35 l 0.25,0.9 v 0.05 l 0.3,0.65 v 0.05 l -0.5,0.6 v 10.95 q 0,0.6 0.1,0.25 v 10.25 l 0.3,1.1 q 0.4,0.75 1.2,0.75 h 0.1 l 0.1,3.3 v 0.45 l 0.15,2.35 0.05,0.3 v 0.2 l 0.1,0.9 h -0.6 l -1.2,-0.05 h -0.5 L -26.6,39.7 V 26.8 l 0.05,-0.3 -0.8,-5.55 -0.2,-1.25 -1,-6 V 12.4 11.9 9.95 9.3 H -28.6 V 9.15 L -28.75,5.9 V 5.7 5.4 5.25 4.95 4.8 4.75 q 0,-1.05 -0.15,-1.85 l -0.2,-1.4 h 0.5 l 0.5,0.05 h 0.85 0.05 0.45 0.15 m -0.45,43.1 h -0.2 -0.85 l -1,0.05 0.2,-1.4 q 0.2,-1 0.15,-2.35 V 40.5 l 0.15,-4.8 0.05,-6.75 V 20.8 19.3 l 0.25,1.3 1,5.45 0.1,0.9 0.1,15.45 0.05,2.25 m 5.3,-0.9 h -0.1 l 0.05,-1.8 1.65,0.05 0.05,0.4 0.15,1.4 h -0.6 l -1.2,-0.05"
         fill="#b2a69a"
         fill-rule="evenodd"
         stroke="none"
         id="path8" />
      <path
         d="m 34.2,-38.4 v 0.3 l -2,0.05 -2.95,0.1 h -12.9 l -0.3,0.05 -6.8,-1 H 9 l -5.75,-1 H 6.8 8.85 l 0.2,0.05 1.1,0.2 6.35,1.1 h 12.9 l 2.8,0.1 2,0.05 M 10,-36.35 H 9.05 6.8 5.6 L 4,-36.6 l -8.5,-1 -4.4,0.35 v -0.35 -0.3 -0.05 l 0.55,-0.1 2.35,-0.15 4.75,0.25 4.1,0.55 6.2,0.95 0.95,0.1 m 17.4,21.5 -0.45,-4.3 v -13.7 l 0.15,-0.05 v -0.15 h 0.2 l 0.1,4.05 v 12.9 l 0.05,0.3 -0.05,0.95 m 1.6,5.1 v 3.2 1.2 l -0.25,1.6 -0.4,2.55 -0.4,2.8 -0.2,3.15 q 0,1.05 0.35,4.4 H 27.75 27.4 V 1.6 L 27.45,1.35 27.5,1 V 0.65 l 0.25,-1.85 0.2,-1.4 1.05,-7.15 m -2.25,-1 -0.1,-0.05 -0.05,-0.05 0.2,-0.15 -0.05,0.25 m -9.95,8.5 h 0.15 q 0.5,0.1 0.9,0.65 L 16.8,-2.25 M 27.4,13.45 26.85,13 27.1,12.6 27.35,12 h 0.05 v 1.45 M 29,25.8 v 3.2 1.2 l -0.25,1.6 q -1,5.8 -1,8.5 0,1.05 0.35,4.4 H 27.75 27.6 27.4 l -0.1,-0.55 q -0.15,-0.85 -0.15,-2.35 0,-3.6 0.65,-7.9 L 27.95,32.95 29,25.8 m -31.85,13 h -3.5 -1.3 L -9.4,38.55 -17.25,37.6 -18.3,37.55 h 6.25 l 1.4,0.2 7.8,1.05 M -21.7,37.75 v -0.2 h 2.85 l -1.45,0.1 -1.4,0.1 m -0.25,-77.65 h 3.55 1.1 0.95 l 0.2,0.05 0.3,0.05 0.8,0.15 3.35,0.65 -0.05,0.8 -4.2,-0.7 -5.25,-0.85 -0.75,-0.15 m 6.75,3.55 h -3.2 -1.2 l -1.6,-0.25 h -0.1 l -8.4,-1 -3.8,0.3 -0.6,0.05 v -0.35 -0.35 l 0.35,-0.05 0.2,-0.05 2.35,-0.15 8.85,0.8 5.05,0.8 2.1,0.25 m -13.35,14.5 1,6 0.55,3.35 v 0.85 l 0.2,0.25 0.15,1.3 q -0.45,0.85 -0.3,2.35 l 0.35,3.8 v 2.65 h -0.1 -0.1 -0.4 v -7.3 l -1.1,-6.35 -0.25,-1.3 v -2.05 -3.55 M -14.4,23.1 h 0.15 q 0.25,0.05 0.45,0.2 l 0.45,0.45 -0.45,-0.3 -0.6,-0.35 M -26.6,1.55 h 0.15 v 8.95 l -0.15,-1.4 -0.1,-1.25 -0.15,-3.4 0.15,-2.35 0.1,-0.55 m 0.55,11.7 0.05,0.05 h -0.05 v -0.05 m -0.7,31.4 h -0.3 l -0.05,-2.25 -0.1,-15.45 -0.1,-0.9 -1,-5.45 -0.25,-1.3 V 17.25 13.7 l 1,6 0.2,1.25 0.8,5.55 -0.05,0.3 v 12.9 l -0.15,4.95"
         fill="#989898"
         fill-rule="evenodd"
         stroke="none"
         id="path9" />
      <path
         d="m -17.85,21.1 h 1.55 q -0.9,0.2 -1.6,0.8 l 0.05,-0.8"
         fill="#c6b8aa"
         fill-rule="evenodd"
         stroke="none"
         id="path10" />
      <path
         d="m -20.8,-52.75 -0.9,0.1 -2.5,0.55 -0.05,-0.65 h 3.45 m -3.7,-1.85 2.35,0.5 3.15,0.65 v 0.05 h -5.3 l -0.2,-1.2 m 5.3,3.3 -4.95,0.2 v -0.35 l 5,-0.7 -0.05,0.85 m -0.05,0.55 v 0.45 l -0.85,-0.05 h -0.7 l -3.3,0.3 -0.05,-0.6 h 0.35 l 1.65,0.1 2.15,-0.15 0.75,-0.05 m 0.55,-4.45 -0.25,0.9 -5.15,-0.9 h 5.4 m -0.55,6 0.05,0.1 h -4.95 l 0.05,-0.15 v -0.45 l 1.1,0.2 3.45,0.3 h 0.3"
         fill="#b6b6b6"
         fill-rule="evenodd"
         stroke="none"
         id="path11" />
      <path
         d="m -12.6,-23.7 v -0.1 h 0.05 l -0.05,0.1"
         fill="#a98e99"
         fill-rule="evenodd"
         stroke="none"
         id="path12" />
      <path
         d="m 14.55,-24.8 v -0.1 l -0.3,-0.35 -0.1,-0.5 v -0.2 h 1.05 q 1.2,0.1 1.85,0.55 l 0.5,0.5 0.25,0.9 -0.05,0.4 H 17.7 q -1.65,0 -2.7,-0.8 l -0.45,-0.4 m 1.15,0.65 q 0.4,0 0.5,-0.25 v -0.3 -0.2 l -0.25,-0.3 q -0.2,-0.2 -0.6,0.3 l -0.15,0.2 0.05,0.35 0.05,0.1 0.4,0.1 m -0.6,22.6 -0.05,-0.25 0.05,-0.4 1.25,-0.05 h 0.45 l 1.05,0.65 0.15,0.25 0.4,0.9 v 0.25 l -0.85,0.35 q 0,-0.7 -0.75,-0.7 l -0.45,0.1 h -0.1 L 16,-0.6 15.85,-0.75 v -0.2 q 0,-0.55 -0.5,-0.6 H 15.1 m 0.75,24.5 0.65,-0.15 0.45,-0.05 h 0.3 l 0.9,0.1 0.6,0.35 0.55,1.2 v 0.1 0.15 L 19.25,24.7 18.6,24.85 18.05,24.8 18.1,24.6 Q 18.1,24 17.45,24 l -0.2,0.05 -0.4,0.2 -0.05,-0.1 q -0.95,-0.6 -0.95,-1.1 v -0.1 M -15.75,-25 v -0.05 q 0,-0.35 -0.3,-0.4 l -0.1,-0.5 v -0.2 h 1.05 q 1.2,0.1 1.85,0.55 l 0.25,0.2 q 0.5,0.45 0.5,1.2 l -0.05,0.4 h -0.05 l -1.6,-0.25 q -0.6,-0.2 -1.1,-0.55 l -0.45,-0.4 m 1.15,0.65 0.4,-0.1 0.1,-0.15 v -0.3 l -0.05,-0.3 -0.2,-0.2 q -0.25,-0.25 -0.75,0.5 l 0.05,0.35 0.05,0.1 0.4,0.1 m -0.2,21.95 -0.05,-0.1 -0.75,-0.6 -0.2,-0.5 v -0.1 l 0.65,-0.15 0.45,-0.05 h 0.15 l 1.05,0.1 0.6,0.35 q 0.45,0.45 0.55,1.3 V -2 q -0.25,0.2 -0.7,0.2 l -0.55,-0.05 0.05,-0.2 q 0,-0.6 -0.65,-0.6 -0.4,0.05 -0.6,0.25 m -1.3,25.55 0.75,-0.05 h 0.95 l 0.6,0.35 0.45,0.3 0.15,0.25 0.4,0.9 v 0.25 q -0.2,0.35 -0.85,0.35 l -0.1,-0.45 q -0.2,-0.25 -0.65,-0.25 l -0.55,0.1 -0.25,-0.15 -0.15,-0.15 v -0.2 -0.25 l -0.5,-0.35 h -0.25 l -0.05,-0.25 0.05,-0.4"
         fill="#e7e7e7"
         fill-rule="evenodd"
         stroke="none"
         id="path13" />
      <path
         d="m 19.85,2.25 0.45,-1.7 q 0,-1.3 -0.45,-2.3 V -1.9 l 0.05,-0.85 h 1.45 v 0.65 0.05 q 0.1,0.45 0.5,0.7 L 22.3,-1.5 22.45,-2.75 24,-2.8 23.95,-1.3 24,1.35 v 5.7 q 0.1,2.1 0.35,3.45 H 16.4 V 10.1 L 16.3,7.8 h 0.25 L 17.75,7.5 18.1,7.3 18.05,7.2 17.75,7.15 16.3,6.9 16.25,5.7 v -1 H 16.9 L 17.65,4.05 17.6,3.75 q 1.55,-0.35 2.25,-1.5 m -38.65,-28.8 q -0.75,0.95 -0.75,2.3 0,1.45 0.35,2.3 0.85,2 3.35,2.1 v 1 h -2.45 l -0.15,-1.55 -0.7,0.05 -0.15,0.15 -0.1,1.35 h -1.45 v -0.7 q -0.1,-0.45 -0.5,-0.7 l -0.45,0.15 -0.15,1.25 -1.55,0.05 0.05,-1.5 -0.05,-2.65 v -5.7 q -0.1,-2.1 -0.35,-3.45 h 7.95 v 0.4 l 0.1,2.3 h -0.25 l -1.55,0.5 0.05,0.1 1.75,0.3 0.05,0.35 h -0.2 L -16.7,-28 q -0.8,0.25 -1.5,0.85 l -0.6,0.6 m -0.75,52.45 q 0,0.75 0.85,1.85 1.25,1.55 3.3,1.55 h 0.1 v 0.25 l -0.05,1.2 -1.75,0.3 -0.05,0.1 1.55,0.5 h 0.25 v 0.4 l -0.1,1.9 v 0.4 h -7.95 q 0.25,-1.35 0.35,-3.45 v -5.7 l 0.05,-2.65 -0.05,-1.5 1.4,0.05 h 0.15 l 0.15,1.25 0.45,0.15 0.4,-0.4 0.1,-0.3 v -0.7 h 1.45 l 0.1,1.35 0.15,0.15 h 0.1 q -0.95,1.3 -0.95,3.3"
         fill="#eaeaea"
         fill-rule="evenodd"
         stroke="none"
         id="path14" />
      <path
         d="M 9.1,-43.2 H 8.2 l -0.1,-1.65 h 6.4 q -0.15,0.5 -0.15,1.3 v 0.05 l -1.05,0.25 0.05,0.05 H 9.1 m -6.35,-1.65 v 0.25 l 0.1,1.45 -2.65,0.05 H 0.05 l -0.35,-0.45 -0.3,0.45 -1.65,-0.05 -0.45,-0.65 -0.6,0.45 v 0.2 h -3.3 v -0.4 h 0.45 l 0.4,-0.45 -0.85,-0.25 v -0.35 l 0.05,-0.25 h 9.3 m 8.75,18.5 -0.35,0.6 -0.1,-0.1 -0.45,0.05 -0.3,0.9 H 6.95 v -0.2 l -0.55,-1 -0.55,0.2 -0.05,1 H 0.1 q -0.75,1 -1,2.75 l -0.05,0.75 -1.9,-0.15 -2.05,0.15 -0.75,-0.4 -0.4,0.25 v 0.5 q -1.2,0.45 -2.2,1.2 0.35,-1.1 0.4,-2.7 l 0.05,-4 v -0.8 l 5.75,0.2 q 0.15,1 0.75,1.65 0.4,-0.3 0.65,-1.65 l 1.25,0.05 3.7,-0.05 q 0.15,0.7 0.5,1.05 0.35,-0.25 0.45,-1.05 H 9.6 l 0.3,0.8 q 0.55,0.1 0.65,-0.8 h 1.8 l -0.25,0.2 -0.6,0.6 m 7.9,3 q 0,-1.9 -0.75,-3 l -0.75,-0.8 1.1,-0.05 0.45,1.15 q 0.5,-0.3 0.55,-1.15 h 3.05 v 3.45 q 0,3 0.3,6.5 v 0.05 l -0.25,3.5 -0.05,0.5 h -4.4 l 0.25,-2.35 q 0.9,-0.3 1.3,-0.65 l -1.3,-0.2 0.1,-0.85 q 0.75,0.25 2.25,-0.85 l -1.3,-0.25 -0.95,-0.1 -0.1,-3 -0.05,-0.55 0.55,-1.35 m -8.3,14.95 -0.55,1.75 q -0.45,0.1 -0.8,0.45 l 0.55,0.3 -0.15,0.45 Q 8.7,-2.55 5.95,-1.7 L 5.9,-1.8 5.1,-2.9 H 4.45 L 4.35,-2.15 4.6,-1.4 3.4,-1.35 H 1.45 v -0.9 L 1.5,-3.05 1.8,-3 2.35,-3.1 2.45,-3.3 2.5,-3.65 2.45,-4 2.35,-3.95 H 1.5 V -5.1 L 2.45,-5.3 2.8,-5.8 Q 2.6,-6.15 1.8,-6.3 H 1.45 l -0.3,-2.1 h 9.95 m -30.05,9.45 0.95,1.1 0.65,1.15 h 6.45 l 0.35,0.95 0.45,-0.05 0.3,-0.9 h 3.35 v 0.2 l 0.55,1 0.55,-0.2 0.05,-1 h 5.7 q 0.75,-1 1,-2.75 L 1.45,-0.2 3.35,-0.05 5.4,-0.2 q 0.3,0.25 0.75,0.4 l 0.4,-0.25 v -0.5 q 1.2,-0.45 2.2,-1.2 -0.35,1.1 -0.4,2.7 l -0.05,4 v 0.8 L 2.55,5.55 Q 2.4,4.55 1.8,3.9 1.4,4.2 1.15,5.55 L -0.1,5.5 -3.8,5.55 Q -3.95,4.85 -4.3,4.5 -4.65,4.75 -4.75,5.55 H -9.1 l -0.3,-0.8 q -0.55,-0.1 -0.65,0.8 H -14.3 Q -14.45,4.6 -15.05,4.6 l -0.35,0.95 -3.1,0.05 -0.45,-1.15 q -0.5,0.3 -0.55,1.15 h -3.05 V 2.15 q 0,-3 -0.3,-6.5 V -4.4 l 0.25,-3.5 0.05,-0.5 h 4.4 l -0.25,2.35 -1.3,0.65 1.3,0.2 -0.1,0.85 q -0.75,-0.25 -2.25,0.85 l 1.3,0.25 0.45,0.05 q -0.55,0.9 -0.55,2.05 0,1.15 0.6,2.2 m 38.85,27.1 q 0.85,-0.9 0.85,-1.5 0,-2.65 -1.3,-4.1 V 20.7 l 0.95,-0.1 0.55,-0.05 0.75,-0.2 -0.75,-0.5 Q 20,19.3 19.45,19.5 l -0.1,-0.85 1.3,-0.2 -1.3,-0.65 -0.25,-2.35 h 4.4 l 0.05,0.5 0.25,3.5 V 19.5 Q 23.5,23 23.5,26 v 3.45 H 20.45 Q 20.4,28.6 19.9,28.3 l -0.45,1.15 H 17.6 Q 19,29.1 19.9,28.15 M 12.7,27.7 q 0.75,1.3 2.25,1.7 H 11 q -0.1,-0.9 -0.65,-0.8 l -0.3,0.8 H 5.7 Q 5.6,28.6 5.25,28.35 4.9,28.7 4.75,29.4 L 1.05,29.35 -0.2,29.4 q -0.25,-1.35 -0.65,-1.65 -0.6,0.65 -0.75,1.65 l -5.75,0.2 v -0.8 l -0.05,-4 q -0.05,-1.6 -0.4,-2.7 l 2.2,1.2 v 0.5 l 0.4,0.25 0.75,-0.4 2.05,0.15 1.9,-0.15 0.05,0.75 q 0.25,1.75 1,2.75 h 5.7 l 0.05,1 0.55,0.2 0.55,-1 v -0.2 h 3.35 l 0.3,0.9 0.45,0.05 0.35,-0.95 h 0.6 l 0.25,0.55 m -27.55,-70.95 -1.05,-0.25 v -0.05 -0.35 l 0.25,-0.95 h 7.75 v 0.25 0.3 h -0.35 l -0.45,0.35 q 0.15,0.25 0.8,0.35 v 0.45 l -6.95,-0.05 v -0.05"
         fill="#afafaf"
         fill-rule="evenodd"
         stroke="none"
         id="path15" />
      <path
         d="m 11.65,0.55 q 0,0.75 0.85,1.85 L 14.15,3.65 13.8,3.7 q -0.4,0.1 -0.9,0.4 0.8,0.6 1.45,0.6 H 14.7 L 14.65,6.75 14,6.7 q -0.8,0.05 -0.8,0.55 0,0.35 0.15,0.45 l 0.45,0.1 h 0.85 L 14.6,10.5 H 9.8 L 9.85,5 10.25,0.75 10.15,-0.9 10.25,-2.05 10,-2.9 l 0.15,-0.2 1.45,-2.05 0.8,0.1 q 0.55,0 0.9,-0.55 l -1.2,-0.9 0.2,-1.35 V -8.4 H 23.75 L 24.1,-5.05 24,-3.9 H 22.4 L 22.2,-4.8 22,-5.3 q -0.6,0.35 -0.7,1.35 V -3.9 H 19.9 Q 19.8,-5.4 19.4,-5.6 H 18.95 L 18.8,-3.9 H 17.7 L 16,-4.35 q -1.8,-0.05 -3,1.15 -1.35,1.35 -1.35,3.75 m -23.35,-22.2 0.8,-1.9 q 0,-1.9 -0.75,-3 -0.8,-1.25 -2.5,-1.55 v -0.25 l 0.65,0.05 q 0.8,-0.05 0.8,-0.55 0,-0.35 -0.15,-0.45 l -0.45,-0.1 h -0.85 l 0.05,-2.7 h 4.8 l -0.05,5.5 -0.4,4.25 0.1,1.65 -0.1,1.15 0.25,0.85 -0.15,0.2 -1.45,2.05 -0.8,-0.1 q -0.55,0 -0.9,0.55 l 1.2,0.9 -0.2,1.35 v 0.55 h -11.45 l -0.35,-3.35 0.1,-1.15 h 1.6 l 0.25,1.05 0.15,0.35 q 0.6,-0.35 0.7,-1.35 v -0.05 h 1.4 q 0.1,1.5 0.5,1.7 h 0.45 l 0.15,-1.7 2.5,0.05 q 0.2,0.55 0.75,0.25 l 0.3,-0.3 0.2,-0.05 q 0.3,-0.1 0.3,-0.45 v -0.4 l -0.2,-0.1 0.2,-1.25 q 1.65,-0.4 2.55,-1.7 m 0.35,49.25 0.45,-1.7 q 0,-1.85 -0.95,-3.1 l -0.4,-0.5 -0.85,-0.65 -0.8,-0.4 -0.1,-0.3 0.2,-0.1 v -0.4 q 0,-0.35 -0.3,-0.45 l -0.2,-0.05 -0.3,-0.3 q -0.55,-0.3 -0.75,0.25 l -2.5,0.05 -0.15,-1.7 h -0.45 q -0.4,0.2 -0.5,1.7 h -1.4 V 19.9 l -0.15,-0.65 -0.05,-0.1 -0.5,-0.6 -0.4,1.4 h -1.6 l -0.1,-1.15 0.35,-3.35 h 11.45 V 16 l 0.2,1.35 -1.2,0.9 q 0.35,0.55 0.9,0.55 l 0.8,-0.1 1.45,2.05 0.15,0.2 -0.25,0.85 0.1,1.15 -0.1,1.65 0.4,4.25 0.05,5.5 h -4.8 l -0.05,-2.7 h 0.85 l 0.45,-0.1 q 0.15,-0.1 0.15,-0.45 0,-0.5 -0.8,-0.55 l -0.65,0.05 v -1.45 q 1.6,-0.35 2.35,-1.55"
         fill="#7b7b7b"
         fill-rule="evenodd"
         stroke="none"
         id="path16" />
      <path
         d="m 5.2,-28.65 -0.4,-0.8 q -0.45,0.3 -0.55,0.75 v 0.05 h -4.7 l -0.75,-0.75 -0.7,0.75 h -3.05 l -2.8,0.25 -0.1,-3.7 h 26.15 4.05 l 0.95,-0.05 -0.25,2.5 v 1.05 h -3 v -0.35 q -0.1,-0.85 -0.65,-1.2 L 19,-28.6 h -2.9 l 0.05,-0.45 -0.15,-0.5 -0.35,-0.2 q -0.65,0.2 -0.85,0.85 l -0.05,0.3 h -4.3 L 10.1,-29 9.65,-28.8 9.6,-28.6 5.2,-28.65 m 13.3,-14.5 h -1.4 v -0.1 l -0.8,-0.35 h -0.45 l -0.1,-1.25 h 4.5 l -0.05,1.3 v 0.4 h -1.7 m -7.4,21.4 q 0.9,2.1 3.6,2.1 L 16.8,-20 v 1.5 l -1.25,0.1 -0.6,0.55 q 0.1,0.3 0.7,0.5 l 1.15,-0.35 v 1.25 l -1.65,0.4 -0.3,0.5 1.95,0.35 v 0.55 l 0.5,1.45 H 0.9 l 0.2,-1.9 H 2.15 L 3,-15.55 2.4,-16.2 1.1,-16.45 v -1.3 L 2.65,-17.9 1.1,-18.25 v -4.8 l 4.6,-0.05 -0.05,0.8 q 0,0.4 0.15,0.5 l 0.3,0.25 q 0.7,-0.25 0.85,-1.05 v -0.5 h 3.35 l 0.45,1.3 0.25,-0.25 0.1,0.3 m -15.8,28.8 0.4,0.8 Q -3.85,7.55 -3.75,7.1 V 7.05 h 4.7 L 1.7,7.8 2.4,7.05 h 3.05 l 2.8,-0.25 0.1,3.7 h -26.15 -2.7 -0.7 -0.5 l -1.1,0.05 0.25,-2.5 V 7 h 3 v 0.35 q 0.1,0.85 0.65,1.2 L -18.5,7 h 2.9 l -0.05,0.45 0.15,0.5 0.35,0.2 Q -14.5,7.95 -14.3,7.3 L -14.25,7 h 4.3 L -9.6,7.4 -9.15,7.2 -9.1,7 -4.7,7.05 m 21.1,14.2 q -1.7,0.05 -2.95,1.2 -1.3,1.15 -1.35,2.9 h -0.25 v -0.1 Q 11.8,24.7 11.2,24.05 l -0.45,1.3 H 7.4 v -0.5 Q 7.25,24.05 6.55,23.8 l -0.3,0.25 q -0.15,0.1 -0.15,0.5 l 0.05,0.8 -4.6,-0.05 V 20.5 L 3.1,20.15 1.55,20 V 18.7 L 2.85,18.45 3.45,17.8 2.6,17.35 H 1.55 l -0.2,-1.9 h 16.4 l -0.05,0.15 -0.45,1.3 v 0.55 q -1,-0.05 -1.95,0.35 l 0.3,0.5 q 0.45,0.3 1.65,0.4 v 1.25 L 16.1,19.6 q -0.6,0.2 -0.7,0.5 l 0.6,0.55 1.25,0.1 V 21.3 L 16.4,21.25 m -10.75,9.65 4.4,-0.05 0.05,0.2 0.45,0.2 0.35,-0.4 h 4.3 l 0.05,0.3 q 0.2,0.65 0.85,0.85 l 0.35,-0.2 0.15,-0.5 -0.05,-0.45 h 2.9 l 0.4,1.55 q 0.55,-0.35 0.65,-1.2 v -0.35 h 3 v 1.05 l 0.25,2.5 q -1.85,-0.15 -5,-0.05 H -7.4 L -7.3,32 v -1.35 l 2.8,0.25 h 3.05 l 0.7,0.75 L 0,30.9 h 4.7 v 0.05 q 0.1,0.45 0.55,0.75 l 0.4,-0.8 m -25.35,-74.05 -2.05,0.05 v -0.45 l -0.05,-1.3 h 4.5 l -0.1,1.25 h -0.45 q -0.55,0 -0.8,0.35 l 0.05,0.1 h -1.1 m 14.1,43.1 1.1,-0.8 q 0.3,-0.5 0.3,-1 0,-2.8 -2.8,-2.8 h -0.3 -0.2 q -2.6,0.1 -2.6,2.8 l 0.3,1 q 0.6,0.95 2.2,0.95 h 0.1 0.2 0.05 0.55 l 1.1,-0.15 Q -6.3,0.2 -6.45,1 V 1.5 H -9.8 l -0.45,-1.3 q -0.6,0.65 -0.65,1.2 v 0.1 h -0.85 q 0.85,-0.9 0.85,-1.5 0,-1.75 -0.55,-3 h 0.15 q 0.55,0 0.9,-0.4 0.35,-0.35 0.35,-0.85 0,-1.25 -1.25,-1.25 -1.15,0 -1.25,1.05 -1,-0.9 -2.4,-0.95 0.2,-0.05 0.3,-0.15 l 0.3,-0.5 -1.95,-0.35 v -0.55 l -0.5,-1.45 h 16.4 l -0.2,1.9 h -1.05 l -0.85,0.45 0.6,0.65 1.3,0.25 v 1.3 l -1.2,0.15 0.05,-0.6 q 0,-1.2 -1.25,-1.2 -1.25,0 -1.25,1.25 0,0.5 0.35,0.85 0.35,0.4 0.9,0.4 0.85,0 1.15,-0.55 l 1.25,0.2 v 4.8 L -5.2,1.5 -5.15,0.7 q 0,-0.4 -0.15,-0.5 l -0.3,-0.25 m 0,-7.85 q -1.35,0 -1.35,1.35 0,0.55 0.4,0.9 0.4,0.45 0.95,0.45 1.4,0 1.4,-1.4 0,-1.3 -1.4,-1.3 m -4.8,1.35 q 0,0.55 0.35,0.9 0.4,0.45 1,0.45 1.35,0 1.35,-1.4 0,-1.3 -1.35,-1.3 -1.35,0 -1.35,1.35"
         fill="#959595"
         fill-rule="evenodd"
         stroke="none"
         id="path17" />
      <path
         d="m 29.3,-44.85 0.05,1.8 -8.2,-0.1 v -0.3 l -0.05,-1.4 h 8.2 m -23.75,1.7 h -1.8 l 0.05,-1.5 v -0.2 h 1.85 l -0.1,1.7 m -31.9,0.05 -4.55,0.05 0.05,-1.8 h 8.2 l -0.05,1.4 v 0.35 h -3.65 m 15.75,29.9 0.55,-1.75 q 0.45,-0.1 0.8,-0.45 l -0.55,-0.3 0.15,-0.45 q 1.45,-2.9 4.2,-3.75 l 0.05,0.1 0.8,1.1 h 0.65 l 0.1,-0.75 -0.25,-0.75 1.2,-0.05 h 1.95 v 0.9 l -0.05,0.8 -0.3,-0.05 -0.55,0.1 -0.1,0.2 -0.05,0.35 0.05,0.35 0.1,-0.05 H -1 v 1.15 l -0.95,0.2 -0.35,0.5 q 0.2,0.35 1,0.5 h 0.35 l 0.3,2.1 h -9.95 m 0.45,28.65 h 9.95 l -0.3,2.1 h -0.35 q -0.8,0.15 -1,0.5 l 0.35,0.5 0.95,0.2 V 19.9 H -1.4 l -0.1,-0.05 -0.05,0.35 0.05,0.35 0.1,0.2 0.55,0.1 0.3,-0.05 0.05,0.8 v 0.9 h -1.95 l -1.2,-0.05 0.25,-0.75 -0.1,-0.75 h -0.65 l -0.8,1.1 -0.05,0.1 Q -7.75,21.3 -9.2,18.4 l -0.15,-0.45 0.55,-0.3 Q -9.15,17.3 -9.6,17.2 l -0.55,-1.75"
         fill="#e0e0e0"
         fill-rule="evenodd"
         stroke="none"
         id="path18" />
      <path
         d="m 14.25,-25.25 -0.65,0.05 -0.1,0.3 -0.05,0.05 0.1,0.45 0.45,0.1 0.55,-0.5 0.45,0.4 q 1.05,0.8 2.7,0.8 v 0.1 l -0.55,1 -0.35,0.4 q -0.8,0.65 -2,0.65 -1.55,0 -2.05,-1.4 l -0.15,-1.45 0.1,-0.6 q 0.25,-0.95 1.45,-1.05 v 0.2 l 0.1,0.5 m 1.95,1.5 -0.35,-0.1 -0.45,0.45 0.25,0.3 0.2,0.15 0.4,-0.1 0.05,-0.05 0.05,-0.3 -0.15,-0.35 m -1.8,1 0.4,-0.05 0.1,-0.3 v -0.05 q 0,-0.65 -0.85,-0.45 l -0.1,-0.05 -0.1,0.25 v 0.15 l 0.05,0.15 0.05,0.25 0.45,0.1 m 4.9,47.4 0.05,0.35 -0.25,1.5 q -0.45,0.8 -2.25,1.3 h -1.2 l -0.95,-0.65 -0.35,-0.4 q -0.6,-0.7 -0.6,-1.15 v -0.25 q 0.15,-1.8 2.1,-2.4 v 0.1 q 0,0.5 0.95,1.1 l 0.05,0.1 -0.05,0.3 q 0,0.5 0.45,0.65 h 0.25 l 0.55,-0.4 0.55,0.05 0.65,-0.15 0.05,-0.05 m -3,-0.05 q 0,-0.6 -0.7,-0.6 -0.65,0 -0.65,0.6 l 0.3,0.5 0.4,0.15 0.6,-0.4 0.05,-0.25 m 1.35,1.65 -0.1,-0.3 -0.7,-0.05 -0.15,0.4 0.1,0.35 0.05,0.1 0.3,0.05 q 0.5,0 0.5,-0.55 m -1.65,0 q 0,-0.5 -0.85,-0.35 l -0.1,0.4 0.1,0.35 0.05,0.1 0.3,0.05 q 0.5,0 0.5,-0.55 M -15.8,-3.7 v 0.1 l 0.2,0.5 0.75,0.6 0.05,0.1 -0.05,0.3 q 0,0.65 0.7,0.65 0.5,0 0.55,-0.4 l 0.55,0.05 q 0.45,0 0.7,-0.2 l 0.05,0.35 q 0,1.1 -0.25,1.5 -0.45,0.8 -2.25,1.3 H -16 L -16.3,1 l -1,-0.9 q -0.6,-0.7 -0.6,-1.15 0,-2 2.1,-2.65 m 0.45,1.65 q 0,-0.6 -0.7,-0.6 l -0.25,0.05 q -0.4,0.1 -0.4,0.55 l 0.3,0.5 0.1,0.05 0.3,0.1 0.6,-0.4 0.05,-0.25 m -0.3,1.65 q 0,-0.45 -0.65,-0.35 h -0.2 l -0.1,0.4 0.1,0.35 0.05,0.1 0.15,0.05 h 0.15 q 0.5,0 0.5,-0.55 m 1.65,0 -0.1,-0.3 -0.7,-0.05 -0.15,0.4 0.1,0.35 0.05,0.1 0.3,0.05 q 0.5,0 0.5,-0.55"
         fill="#bb9d9d"
         fill-rule="evenodd"
         stroke="none"
         id="path19" />
      <path
         d="m 15.1,-2.2 -0.05,0.4 0.05,0.25 -0.35,0.15 -0.4,0.5 0.1,0.55 0.3,0.05 0.2,0.05 q 0.8,0 0.9,-0.5 L 16,-0.6 16.25,-0.45 Q 16,-0.25 16,0.15 q 0,0.45 0.35,0.6 l 0.45,0.1 q 0.55,0 0.7,-0.4 L 17.55,0.15 18.4,-0.2 18.3,0.9 Q 17.95,2.1 16.65,2.1 L 14.95,2.05 14.75,1.9 13.8,0.85 Q 13.55,0.4 13.55,-0.4 q 0,-0.8 0.3,-1.15 l 0.95,-0.55 0.3,-0.1 m -31.15,-23.25 -0.65,0.05 -0.05,0.25 -0.1,0.1 0.1,0.45 0.45,0.1 0.5,-0.4 0.05,-0.1 0.45,0.4 q 0.5,0.35 1.1,0.55 l 1.6,0.25 v 0.1 q -0.1,0.5 -0.55,1 -0.45,0.55 -1.1,0.85 l -1.25,0.2 h -0.3 q -1.3,-0.15 -1.75,-1.4 l -0.15,-1.45 q 0,-1.05 0.8,-1.45 l 0.75,-0.2 v 0.2 l 0.1,0.5 m 1.95,1.5 h -0.1 l -0.25,-0.1 -0.45,0.45 0.45,0.45 0.25,-0.05 0.15,-0.05 q 0.1,-0.05 0.1,-0.35 0,-0.3 -0.15,-0.35 m -1.8,1 h 0.1 l 0.3,-0.05 0.1,-0.35 q 0,-0.45 -0.4,-0.5 l -0.45,0.05 -0.1,-0.05 -0.1,0.25 v 0.15 l 0.1,0.4 0.45,0.1 m 3.1,48.1 -0.1,1.1 q -0.25,0.8 -0.85,1.05 l -0.8,0.15 -1.7,-0.05 -1.15,-1.2 -0.25,-1.25 0.3,-1.15 q 0.4,-0.5 1.25,-0.65 l -0.05,0.4 0.05,0.25 q -0.4,0 -0.75,0.65 l 0.1,0.55 0.5,0.1 q 0.75,0 0.9,-0.4 v -0.1 l 0.15,0.15 0.25,0.15 -0.25,0.6 q 0,0.7 0.8,0.7 l 0.65,-0.25 0.05,-0.15 0.05,-0.3 q 0.65,0 0.85,-0.35"
         fill="#a2a185"
         fill-rule="evenodd"
         stroke="none"
         id="path20" />
    </g>
  </defs>
</svg>
