<?xml version="1.0" encoding="UTF-8" standalone="no"?>
<svg
   ffdec:objectType="frame"
   height="67.589798"
   width="164.53146"
   version="1.1"
   id="svg12"
   sodipodi:docname="2.svg"
   xmlns:inkscape="http://www.inkscape.org/namespaces/inkscape"
   xmlns:sodipodi="http://sodipodi.sourceforge.net/DTD/sodipodi-0.dtd"
   xmlns:xlink="http://www.w3.org/1999/xlink"
   xmlns="http://www.w3.org/2000/svg"
   xmlns:svg="http://www.w3.org/2000/svg"
   xmlns:ffdec="https://www.free-decompiler.com/flash">
  <sodipodi:namedview
     id="namedview12"
     pagecolor="#ffffff"
     bordercolor="#000000"
     borderopacity="0.25"
     inkscape:showpageshadow="2"
     inkscape:pageopacity="0.0"
     inkscape:pagecheckerboard="0"
     inkscape:deskcolor="#d1d1d1"
     fit-margin-top="5"
     fit-margin-left="5"
     fit-margin-right="5"
     fit-margin-bottom="5" />
  <g
     transform="translate(82.278125,28.5898)"
     id="g3">
    <use
       ffdec:characterId="1229"
       height="69.150002"
       transform="matrix(1,0,0,0.9769,-71.1,-28.5898)"
       width="142"
       xlink:href="#sprite0"
       id="use1" />
    <use
       ffdec:characterId="44"
       height="8"
       transform="matrix(0.866,0.4884,-0.5,0.846,-55.0266,-19.4214)"
       width="10.8"
       xlink:href="#sprite1"
       id="use2" />
    <use
       ffdec:characterId="1230"
       height="40.75"
       transform="translate(-82.3,-1.75)"
       width="164.55"
       xlink:href="#shape2"
       id="use3" />
  </g>
  <defs
     id="defs12">
    <g
       id="sprite0"
       transform="translate(71,30.7)">
      <use
         ffdec:characterId="1228"
         height="69.150002"
         transform="translate(-71,-30.7)"
         width="142"
         xlink:href="#shape0"
         id="use4" />
    </g>
    <g
       id="shape0"
       transform="translate(71,30.7)">
      <path
         d="m 57.65,-6.6 -0.5,0.4 -0.3,-0.1 q -0.3,-0.1 -0.4,-0.3 l 0.95,-1.4 2.25,-2.8 1.15,-1.25 0.2,-0.2 0.25,-1.4 0.25,-1.45 0.1,-0.8 0.3,-3.35 v -0.7 q 0,-3.05 -0.8,-4.05 -2.6,-3.25 -12.2,-2.7 h -7.95 l 1.5,2.55 -0.1,0.3 q -1.5,-0.5 -3.1,-2.9 H 38.2 l 0.4,1.3 q 0.4,1.4 1.15,2.35 0.45,0.6 1.05,1.05 l -0.35,0.45 -1.6,-1.5 -1.55,-1.55 q -0.4,-0.5 -0.45,-2.1 l -31.9,-0.1 -1,0.6 Q 3,-25.7 2.4,-25 l -0.15,0.35 -0.1,0.25 -0.25,0.65 -0.25,2.7 V -8.7 L 1.8,-4.3 2,5.05 V 6.6 L 33.75,6.45 33.7,6.05 Q 33.7,4.9 34.35,3.6 L 34.6,3.05 34.95,1.3 q 0,-1.6 -0.95,-4.6 l -0.95,-2.9 0.1,-1.05 h 0.05 0.5 l 1.45,4.05 Q 36.5,0.6 36.5,1.75 L 36.35,2.7 35.5,4.7 35.3,5.2 34.65,6.45 49.25,6.4 q 3,-0.45 5.3,-2.5 l 2.75,-3.1 1.15,-1.7 1.6,-6.95 0.45,-1.9 -0.3,0.35 -2.55,2.8 m 7.2,-10.85 q 2.2,0.1 4,1.55 2.15,1.75 2.15,3.65 0,3.2 -1.4,9 l -1,4.4 Q 68.4,3.4 65.25,4.2 L 59.1,4.75 58.1,4.6 57.85,4.9 Q 53.7,10 50,9.85 H 1.75 Q 1.4,11.6 0.55,12.3 L 0,10.55 -0.55,12.3 Q -1.4,11.6 -1.75,9.85 H -50 Q -53.7,10 -57.85,4.9 l -0.25,-0.3 -1,0.15 -6.15,-0.55 Q -68.4,3.4 -68.6,1.15 l -1,-4.4 q -1.4,-5.8 -1.4,-9 0,-1.9 2.15,-3.65 1.8,-1.45 4.05,-1.55 l -0.25,-6.35 q 0,-2.15 2.75,-4.05 4.35,-3 13.4,-2.5 l 40.05,0.1 q 0.9,-0.6 3.35,-0.4 3.15,0.3 4.3,1.95 l 1.15,0.4 -0.1,0.15 L 0,-28 0.15,-28.15 0.05,-28.3 1.2,-28.7 q 1.15,-1.65 4.3,-1.95 2.45,-0.2 3.35,0.4 l 40.05,-0.1 q 9.05,-0.5 13.4,2.5 2.75,1.9 2.75,4.05 l -0.2,5.85 -0.05,0.5 h 0.05 m 3.25,7.15 0.1,-1.1 0.05,-1.45 -0.1,-0.4 q -0.5,-0.7 -2.45,-1.6 l -0.95,-0.4 -0.15,-0.1 -0.05,0.5 -0.05,0.35 -0.05,0.75 -0.4,2.3 -0.1,0.5 -0.3,1.4 -0.4,1.55 -1.75,5.3 0.05,0.8 q 0,1.25 -1.1,3.15 l 0.3,-0.05 q 4.15,-0.3 4.8,-1.55 0.65,-1.3 1.2,-4.1 1,-3.3 1.35,-5.85 M 50.75,33.5 q 2.45,2.05 2.45,3.25 0,0.65 -0.55,1.4 H 52.6 L 52.55,38.3 51,38.45 h -5.75 q -0.75,-0.65 -0.75,-0.9 0,-0.25 0.4,-0.75 v -0.25 l 0.25,-2.3 -1.05,-1.2 Q 42.05,30.7 40.8,29.7 L 36.9,27.35 35,26.15 H 26.7 V 25.5 h 19.25 l -0.5,0.15 1.05,2.1 q 1.2,2.55 1.3,3.45 l 0.35,0.8 q 0.9,0.05 2.6,1.5 m -2.55,0.3 -0.1,0.1 -0.45,0.25 H 47.5 l -0.75,0.25 -0.05,0.4 -0.15,0.15 v 0.1 1.6 l 4.7,0.2 -1.85,-1.8 -1.2,-1.25 m -4.95,-4.3 -2.4,-3.35 h -2.7 l 2.55,1.55 2.55,1.8 m -1.75,-3.3 2.3,2.7 q 2.75,3.3 2.9,4.35 l 0.25,-0.05 q -1.3,-4 -3.45,-7.2 l -2,0.2 M 38.65,1.5 38.7,2.95 38.6,4.2 38.25,4.4 Q 37.6,3.95 37.65,2.55 37.7,0.85 37.35,0.2 h 0.25 q 0.85,0.25 1.05,1.3 m -40.3,-11.65 v -10.9 l -0.15,-1.9 -0.05,-0.35 -0.05,-0.45 -0.05,-0.2 -0.45,-1.05 -1.05,-0.95 -0.75,-0.5 -0.45,-0.25 -0.3,-0.15 -43.95,0.15 -0.75,-0.05 v 0.65 l -0.2,2.3 h -0.35 l -0.15,-2.2 -0.05,-0.75 h -1.2 l -0.65,1.05 -1.4,2.2 -0.65,-0.05 q -0.2,-0.05 -0.2,-0.55 l 0.45,-1.2 1,-1.45 q -6.05,0.25 -8.05,2.75 -0.8,1 -0.8,4.05 l 0.05,0.95 0.4,4.1 0.4,2.3 0.7,1.05 0.35,0.55 0.05,0.1 2.2,2.95 -0.25,0.25 q -1.25,-0.5 -2.15,-1.3 l -0.2,-0.2 0.05,0.25 0.25,1.1 0.05,0.2 1.55,6.75 1.15,1.7 2.75,3.1 q 2.3,2.05 5.3,2.5 L -2,6.6 V 5.05 L -1.65,-8.7 v -1.45 M -64,-11.2 l -0.25,-1.5 -0.05,-0.5 -0.3,-2.15 -1.1,0.5 q -2.55,1.15 -2.55,2 l 0.05,1.2 0.1,1 0.1,0.8 0.3,1.6 0.1,0.55 0.85,3.25 q 0.55,2.8 1.2,4.1 0.65,1.25 4.8,1.55 l 0.3,0.05 q -1.1,-1.9 -1.1,-3.15 l 0.05,-0.8 q -1.25,-3.3 -2,-6.35 l -0.45,-1.85 v -0.05 L -64,-11.2 m 37.3,-8 -0.05,-0.1 1.05,-0.95 0.85,-0.35 0.65,-0.2 -0.8,0.95 q -0.9,0.95 -1.55,1.05 l -0.15,-0.4 m -1.75,6.35 -0.2,-0.2 q 6.25,-7.3 9.15,-7.35 l -4.1,3.9 q -2.55,2.25 -4.85,3.65 m 15.2,11.25 2.35,-1.25 0.15,0.25 -3.6,3.3 q -2.2,2.25 -3.3,3.15 L -18.2,3.7 -17.9,3.35 q 1.1,-1.65 3.1,-3.6 l 1.55,-1.35 m -24.25,28.95 -3.9,2.35 q -1.25,1 -3.3,3.35 l -1.05,1.2 0.25,2.3 v 0.25 l 0.4,0.75 -0.75,0.9 h -5.75 l -1.55,-0.15 -0.05,-0.15 h -0.05 q -0.55,-0.75 -0.55,-1.4 0,-1.2 2.45,-3.25 1.7,-1.45 2.6,-1.5 l 0.35,-0.8 q 0.1,-0.9 1.3,-3.45 l 1.05,-2.1 -0.5,-0.15 h 19.25 v 0.65 h -8.3 l -1.9,1.2 m -4.6,-1.15 -2,-0.2 q -2.15,3.2 -3.45,7.2 l 0.25,0.05 q 0.15,-1.05 2.9,-4.35 l 2.3,-2.7 m -1.75,3.3 2.55,-1.8 2.55,-1.55 h -2.7 l -2.4,3.35 m -4.95,4.3 -1.2,1.25 -1.85,1.8 4.7,-0.2 v -1.6 -0.1 l -0.15,-0.15 -0.05,-0.4 -0.75,-0.25 h -0.15 l -0.45,-0.25 -0.1,-0.1"
         fill="#9a9a9a"
         fill-rule="evenodd"
         stroke="none"
         id="path4" />
      <path
         d="m 35.3,5.2 0.2,-0.5 0.85,-2 V 3.25 L 36.2,4.3 35.9,5.15 q 0.3,0.2 -0.55,0.2 L 35.3,5.2 m 29.55,-23.15 v 0.5 H 64.8 l 0.05,-0.5 M 41.5,26.2 43.5,26 q 2.15,3.2 3.45,7.2 L 46.7,33.25 Q 46.55,32.2 43.8,28.9 l -2.3,-2.7 m 1.75,3.3 -2.55,-1.8 -2.55,-1.55 h 2.7 l 2.4,3.35 m 4.95,4.3 1.2,1.25 1.85,1.8 -4.7,-0.2 v -1.6 -0.1 l 0.15,-0.15 0.05,-0.4 0.75,-0.25 h 0.15 l 0.45,-0.25 0.1,-0.1 m -112.15,-44.7 0.45,1.85 h -0.15 l -0.15,-0.4 -0.15,-0.85 v -0.6 m 15.15,44.7 0.1,0.1 0.45,0.25 h 0.15 l 0.75,0.25 0.05,0.4 0.15,0.15 v 0.1 1.6 l -4.7,0.2 1.85,-1.8 1.2,-1.25 m 4.95,-4.3 2.4,-3.35 h 2.7 l -2.55,1.55 -2.55,1.8 m 1.75,-3.3 -2.3,2.7 q -2.75,3.3 -2.9,4.35 l -0.25,-0.05 q 1.3,-4 3.45,-7.2 l 2,0.2"
         fill="#a2a2a2"
         fill-rule="evenodd"
         stroke="none"
         id="path5" />
      <path
         d="m 57.65,-6.6 2.55,-2.8 0.3,-0.35 -0.45,1.9 -1.6,6.95 -1.15,1.7 -2.75,3.1 q -2.3,2.05 -5.3,2.5 L 34.65,6.45 35.3,5.2 35.35,5.35 q 0.85,0 0.55,-0.2 L 36.2,4.3 36.35,3.25 V 2.7 L 36.5,1.75 Q 36.5,0.6 35.15,-3.2 L 33.7,-7.25 H 33.2 L 32.45,-8.4 q -0.85,0.2 -0.85,1.15 l 1.8,6.35 1.2,3.95 -0.25,0.55 Q 33.7,4.9 33.7,6.05 L 33.75,6.45 2,6.6 V 5.05 L 1.8,-4.3 h 0.1 q 0.9,0 0.55,-0.3 0.35,-0.75 0.35,-1.4 0,-7.95 1,-10.6 2.45,-6.7 10.25,-6.15 l 0.15,0.1 -5.5,4.15 0.5,0.3 0.35,0.1 q 3.1,-1.4 7.1,-4.3 l 0.6,0.1 11.55,-0.1 4,-0.35 3.7,-0.3 2.35,-0.05 1.6,1.5 0.35,-0.45 q -0.6,-0.45 -1.05,-1.05 l 11.95,-0.3 q 4.5,0 6.1,1.4 1.1,0.95 2.55,3.65 l -0.25,2 q -0.45,1.85 -1.4,3.8 l -0.1,0.2 -1.75,1.9 q -3.2,3.6 -3.2,4.3 0,0.6 0.15,0.75 l 0.45,0.15 2.7,-2.8 0.05,0.1 -1.5,3.65 h 0.3 l 1.85,-2.3 m 10.45,-3.7 q -0.35,2.55 -1.35,5.85 -0.55,2.8 -1.2,4.1 -0.65,1.25 -4.8,1.55 l -0.3,0.05 q 1.1,-1.9 1.1,-3.15 L 61.5,-2.7 63.25,-8 65.05,-9.95 65.2,-11 q 2.05,0.7 2.85,0.7 H 68.1 M 38.65,1.5 Q 38.45,0.45 37.6,0.2 h -0.25 q 0.35,0.65 0.3,2.35 -0.05,1.4 0.6,1.85 L 38.6,4.2 38.7,2.95 38.65,1.5 M -60,-7.65 q 1.5,1.45 3.05,1.45 0.55,0 0.7,-0.25 l 0.15,-0.45 -3.65,-3.85 -0.2,-0.2 0.35,-7.7 1.65,-2.35 0.75,-0.85 11.55,-0.65 8.2,-0.85 3.4,-0.4 2.95,-0.05 27.15,3.15 0.9,3.3 1.4,7.2 V -8.7 L -2,5.05 V 6.6 L -49.25,6.4 q -3,-0.45 -5.3,-2.5 L -57.3,0.8 -58.45,-0.9 -60,-7.65 m -4,-3.55 0.05,0.25 v 0.05 0.6 l 0.15,0.85 0.15,0.4 h 0.15 q 0.75,3.05 2,6.35 l -0.05,0.8 q 0,1.25 1.1,3.15 l -0.3,-0.05 q -4.15,-0.3 -4.8,-1.55 -0.65,-1.3 -1.2,-4.1 l -0.85,-3.25 1.15,-2.85 1.05,-0.15 1.4,-0.5 m 37.3,-8 -0.4,0.45 -3.65,4.15 q 2.95,-0.45 4.8,-2.2 l 3.85,-3.9 -0.2,-0.55 q -1.35,-0.05 -2.55,0.65 l -0.85,0.35 -1.05,0.95 0.05,0.1 m -1.75,6.35 q 2.3,-1.4 4.85,-3.65 l 4.1,-3.9 q -2.9,0.05 -9.15,7.35 l 0.2,0.2 m 15.2,11.25 0.5,-0.75 1.1,-1.25 q -0.3,-0.55 -0.9,-0.7 l -0.6,0.55 -0.15,-0.05 -3.15,2.75 Q -21,2.8 -21,3.55 l 0.25,0.8 0.55,0.3 0.4,-0.35 0.3,0.35 1.6,-1.3 -0.3,0.35 0.55,0.15 q 1.1,-0.9 3.3,-3.15 l 3.6,-3.3 -0.15,-0.25 -2.35,1.25"
         fill="#cbcbcb"
         fill-rule="evenodd"
         stroke="none"
         id="path6" />
      <path
         d="M 39.75,-23.1 Q 39,-24.05 38.6,-25.45 l -0.4,-1.3 h 1.05 q 1.6,2.4 3.1,2.9 l 0.1,-0.3 -1.5,-2.55 h 7.95 q 9.6,-0.55 12.2,2.7 0.8,1 0.8,4.05 v 0.7 l -0.3,3.35 -0.1,0.8 -0.25,1.45 -0.25,1.4 -0.2,0.2 -1.15,1.25 -2.25,2.8 -0.95,1.4 q 0.1,0.2 0.4,0.3 l 0.3,0.1 0.5,-0.4 -1.85,2.3 h -0.3 l 1.5,-3.65 -0.05,-0.1 -2.7,2.8 -0.45,-0.15 q -0.15,-0.15 -0.15,-0.75 0,-0.7 3.2,-4.3 l 1.75,-1.9 0.1,-0.2 q 0.95,-1.95 1.4,-3.8 l 0.25,-2 q -1.45,-2.7 -2.55,-3.65 -1.6,-1.4 -6.1,-1.4 l -11.95,0.3 M 33.2,-7.25 h -0.05 l -0.1,1.05 0.95,2.9 q 0.95,3 0.95,4.6 L 34.6,3.05 33.4,-0.9 31.6,-7.25 q 0,-0.95 0.85,-1.15 l 0.75,1.15 M 1.8,-4.3 1.65,-8.7 v -12.35 l 0.25,-2.7 0.25,-0.65 0.1,-0.25 L 2.4,-25 q 0.6,-0.7 1.55,-1.25 l 1,-0.6 31.9,0.1 q 0.05,1.6 0.45,2.1 l 1.55,1.55 -2.35,0.05 -3.7,0.3 -4,0.35 -11.55,0.1 -0.6,-0.1 q -4,2.9 -7.1,4.3 l -0.35,-0.1 -0.5,-0.3 5.5,-4.15 -0.15,-0.1 q -7.8,-0.55 -10.25,6.15 -1,2.65 -1,10.6 0,0.65 -0.35,1.4 0.35,0.3 -0.55,0.3 H 1.8 m 61.45,-3.7 0.4,-1.55 0.3,-1.4 0.1,-0.5 0.4,-2.3 0.05,-0.75 0.05,-0.35 0.05,-0.5 0.15,0.1 0.95,0.4 q 1.95,0.9 2.45,1.6 l 0.1,0.4 -0.05,1.45 -0.1,1.1 h -0.05 q -0.8,0 -2.85,-0.7 L 65.05,-9.95 63.25,-8 M -60,-7.65 l -0.05,-0.2 -0.25,-1.1 -0.05,-0.25 0.2,0.2 q 0.9,0.8 2.15,1.3 l 0.25,-0.25 -2.2,-2.95 -0.05,-0.1 -0.35,-0.55 -0.7,-1.05 -0.4,-2.3 -0.4,-4.1 -0.05,-0.95 q 0,-3.05 0.8,-4.05 2,-2.5 8.05,-2.75 l -1,1.45 -0.45,1.2 q 0,0.5 0.2,0.55 l 0.65,0.05 1.4,-2.2 0.65,-1.05 h 1.2 l 0.05,0.75 0.15,2.2 h 0.35 l 0.2,-2.3 v -0.65 l 0.75,0.05 43.95,-0.15 0.3,0.15 0.45,0.25 0.75,0.5 1.05,0.95 0.45,1.05 0.05,0.2 0.05,0.45 0.05,0.35 0.15,1.9 v 10.9 l -1.4,-7.2 -0.9,-3.3 -27.15,-3.15 -2.95,0.05 -3.4,0.4 -8.2,0.85 -11.55,0.65 -0.75,0.85 -1.65,2.35 -0.35,7.7 0.2,0.2 3.65,3.85 -0.15,0.45 q -0.15,0.25 -0.7,0.25 -1.55,0 -3.05,-1.45 m -7.6,-0.05 -0.1,-0.55 -0.3,-1.6 -0.1,-0.8 -0.1,-1 -0.05,-1.2 q 0,-0.85 2.55,-2 l 1.1,-0.5 0.3,2.15 0.05,0.5 0.25,1.5 -1.4,0.5 -1.05,0.15 -1.15,2.85 m 42.75,-12.9 q 1.2,-0.7 2.55,-0.65 l 0.2,0.55 -3.85,3.9 q -1.85,1.75 -4.8,2.2 l 3.65,-4.15 0.4,-0.45 0.15,0.4 q 0.65,-0.1 1.55,-1.05 l 0.8,-0.95 -0.65,0.2 m 6.95,23.95 -1.6,1.3 -0.3,-0.35 -0.4,0.35 -0.55,-0.3 -0.25,-0.8 q 0,-0.75 4.55,-4.6 l 3.15,-2.75 0.15,0.05 0.6,-0.55 q 0.6,0.15 0.9,0.7 l -1.1,1.25 -0.5,0.75 -1.55,1.35 q -2,1.95 -3.1,3.6"
         fill="#e5e5e5"
         fill-rule="evenodd"
         stroke="none"
         id="path7" />
    </g>
    <g
       id="sprite1"
       transform="translate(5.4,4)">
      <use
         ffdec:characterId="43"
         height="8"
         transform="translate(-5.4,-4)"
         width="10.8"
         xlink:href="#shape1"
         id="use7" />
    </g>
    <g
       id="shape1"
       transform="translate(5.4,4)">
      <path
         d="m 2.9,-0.35 q 0,-1.25 1.25,-1.25 1.25,0 1.25,1.2 0,1.3 -1.25,1.3 Q 3.6,0.9 3.25,0.5 2.9,0.15 2.9,-0.35 m 0.35,-2.3 q 0,0.55 -0.35,0.9 -0.4,0.45 -1,0.45 -1.35,0 -1.35,-1.4 0,-1.3 1.35,-1.3 1.35,0 1.35,1.35 m -3.1,1.9 h 0.2 q 2.6,0.1 2.6,2.8 l -0.3,1 Q 2.05,4 0.45,4 H 0.35 0.15 0.1 -0.45 q -1.6,0 -2.2,-0.95 l -0.3,-1 q 0,-2.8 2.8,-2.8 h 0.3 M -1.55,-4 q 1.35,0 1.35,1.35 0,0.55 -0.4,0.9 -0.4,0.45 -0.95,0.45 -1.4,0 -1.4,-1.4 0,-1.3 1.4,-1.3 m -2.6,2.4 q 1.25,0 1.25,1.25 0,0.5 -0.35,0.85 -0.35,0.4 -0.9,0.4 -1.25,0 -1.25,-1.3 0,-1.2 1.25,-1.2"
         fill="#9a9a9a"
         fill-rule="evenodd"
         stroke="none"
         id="path8" />
    </g>
    <g
       id="shape2"
       transform="translate(82.3,1.75)">
      <path
         d="m 82.2,10.4 q 0.2,1.05 -0.35,2 -0.85,1.45 -3.35,1.8 0.55,1.5 0.55,3.8 0,5.3 -8.1,11.2 -3.65,2.65 -7.1,4.1 1,0.35 2.45,1.1 3.4,1.95 3.4,3.05 0,0.6 -0.75,1.25 H 68.9 L 68.8,38.85 58.6,39 q -1.05,-0.55 -1.05,-0.8 0,-0.25 0.55,-0.75 v -0.2 q 0,-0.95 0.35,-2.1 L 58.1,34.85 H -58.1 l -0.4,0.3 q 0.35,1.15 0.35,2.1 v 0.2 q 0.55,0.5 0.55,0.75 l -1.05,0.8 -10.2,-0.15 -0.1,-0.15 H -69 q -0.75,-0.65 -0.75,-1.25 0,-1.1 3.4,-3.05 l 2.45,-1.1 q -3.5,-1.45 -7.1,-4.1 -8.15,-5.9 -8.15,-11.2 0,-2.3 0.6,-3.8 -2.5,-0.35 -3.35,-1.8 -0.55,-1 -0.3,-2.05 l 0.05,-0.3 0.4,-1.3 q 0.85,-1.95 3.5,-4.85 4.3,-4.7 7.8,-5.15 8.9,-1.1 14.7,0.3 l 5.45,2.2 q 1.35,0.65 2.75,2.55 l 0.7,0.4 1.3,0.8 1.3,-0.35 1.25,-0.3 2.05,-0.7 h 34.5 L -6.3,3.8 Q -4.6,3.5 -3,4.25 -2,4.9 -1.15,5.95 -0.2,7 -0.05,7.75 0.15,7 1.05,5.95 1.95,4.9 2.95,4.25 4.5,3.5 6.2,3.8 L 6.4,3.65 h 34.5 l 2.05,0.7 1.25,0.3 1.3,0.35 1.3,-0.8 0.65,-0.4 q 1.45,-1.9 2.8,-2.55 l 5.45,-2.2 q 5.8,-1.4 14.7,-0.3 3.5,0.45 7.8,5.15 l 1.7,2 0.3,0.35 1.6,2.6 0.35,1.5 0.05,0.05 M 49.1,8.7 q 0.85,1.2 1.15,2.65 l 0.15,1.7 -0.05,0.6 -0.05,0.95 -0.05,0.65 Q 50.95,14.8 51.8,14.35 53.75,13.2 58.25,11 65.15,7.9 72.6,7.25 74.7,7.05 76.3,7.2 L 78.15,7.5 77.9,7.05 77.4,6.25 76.6,5.15 q -1.45,-1.6 -3.35,-2.6 -3.1,-1.6 -7.45,-1.6 -12.3,0 -16.35,3.5 -1,0.85 -1.8,2.35 l -0.1,0.15 0.35,0.35 0.55,0.55 0.65,0.85 m 30.15,2.55 0.45,-0.3 -0.4,-1.05 -0.1,-0.15 -0.4,-0.3 -0.95,-0.4 -4.5,-0.5 q -7.8,0 -17.35,5.25 l -5.05,3.35 h 1.15 1.85 l 0.3,0.15 q 14.65,-6.6 20.15,-6.2 1.5,0.15 2.5,0.95 1.3,-0.1 2.35,-0.8 m -13.2,7.35 q 1.95,-1.5 4.8,-2 3.55,-0.65 3.55,1.45 l -0.05,1 -0.65,0.05 -0.05,-0.4 q -0.25,2.2 -7.35,6.6 -3.55,2.2 -6.25,3.35 l -2.1,0.8 -1.75,0.45 H 56.1 V 30 l -0.75,0.3 h -0.3 -0.15 l -26.6,0.05 v 0.05 h -56.65 v -0.05 l -26.6,-0.05 h -0.15 -0.25 l -0.8,-0.3 v -0.1 h -0.05 l -1.8,-0.45 -2.1,-0.8 q -2.75,-1.15 -6.25,-3.35 -7.15,-4.4 -7.35,-6.6 l -0.05,0.4 -0.65,-0.05 -0.05,-1 q 0,-2.1 3.55,-1.45 2,0.35 3.55,1.2 l 1.25,0.8 0.5,0.45 3.25,1.65 0.7,0.25 4.2,0.95 8.15,0.55 21,0.05 h 5.25 46.7 4.6 l 21,-0.05 q 8.2,-0.1 12.1,-1.4 l 0.2,-0.1 q 2.1,-0.75 3.95,-1.9 l 0.55,-0.45 m 6.7,-0.75 0.2,-0.3 -1,-0.1 q -2.95,0 -4.6,1.4 -1.65,1.7 -3,2.45 -2.35,1.2 -6.05,1.95 l -0.95,0.2 h -0.1 l -8,0.75 H -49.3 q -10.3,-0.45 -15.15,-2.9 l -1.65,-1.25 -1.3,-1.2 q -1.65,-1.4 -4.6,-1.4 l -0.55,0.05 h -0.05 l -0.4,0.05 0.1,0.15 0.15,0.15 0.5,0.65 0.35,0.45 0.7,0.8 1.2,1.3 2.8,2.6 q 2.95,2.25 7.95,3.9 l 2.35,0.65 2.1,0.55 0.9,0.2 1.2,0.25 H 52.65 l 1.2,-0.25 0.9,-0.2 2.15,-0.55 2.3,-0.65 q 5,-1.65 7.95,-3.9 2.55,-2 5.6,-5.8 m 1.9,-3.4 -2.85,0.2 -4.75,1.8 q -3.25,1.4 -6.35,2.25 l -0.25,0.15 q -1.05,0.7 -3.55,0.95 l -4.3,0.6 -1.4,-0.1 -22.9,0.05 v 0.05 l -8.55,0.05 H 19.5 19.15 17.9 17.25 4.4 L 4.45,20.5 4,20.45 h -8.05 l -0.45,0.05 0.05,-0.05 h -13.35 -0.4 -4.85 l -5.3,-0.05 v -0.05 l -22.9,-0.05 -1.4,0.1 -4.3,-0.6 q -2.5,-0.25 -3.6,-0.95 l -0.2,-0.15 -6.35,-2.25 q -2.75,-1.2 -4.75,-1.8 l -2.85,-0.2 q -1.35,0 -1.65,1.65 v 1.8 q 0,4.45 7.8,9.05 3.3,1.95 7.25,3.5 l 1.85,0.7 0.15,0.05 0.9,0.3 0.15,0.05 2.9,0.35 h 0.35 0.05 l 1.05,-0.05 0.7,-0.05 h 0.55 105.25 0.5 l 0.8,0.05 1,0.05 h 0.05 0.35 l 2.95,-0.35 0.1,-0.05 0.9,-0.3 0.15,-0.05 1.9,-0.7 q 3.9,-1.55 7.2,-3.5 7.75,-4.6 7.75,-9.05 V 16.1 Q 76,14.45 74.65,14.45 M 46.15,5.85 H 46.1 L 46.15,5.9 V 5.85 M 4.7,6.05 Q 3.75,6.7 3,7.9 L 2.5,8.85 Q 1.95,9.9 1.7,11 l -0.3,1.25 46.4,-0.05 -0.5,-1.15 -0.35,-0.6 q -1.15,-1.95 -3,-3 L 43.1,7 40.3,6.3 17.25,6.25 V 6.15 L 6.4,6.1 6.15,6.05 H 5.05 4.7 M 1.2,14.2 v 0.05 q 0,1.6 1.1,2.65 l 0.15,0.15 25.85,0.05 v 0.05 h 19.45 q 0.6,-1 0.6,-1.55 l -0.1,-1.5 -0.2,-0.9 H 1.25 l -0.05,1 m 59.4,21.45 -0.2,0.15 v 0.1 1.45 Q 64.9,37.3 67,37.5 L 64.35,35.9 62.75,34.7 62.6,34.75 61.95,35 h -0.1 -0.1 l -1.05,0.25 -0.1,0.4 M -45.8,12.2 -1.45,12.25 -1.5,11.9 -1.75,11 -2.55,8.85 Q -3.45,6.9 -4.75,6.05 H -5.15 -6.2 L -6.45,6.1 -14.3,6.15 V 6.2 l -26.05,0.1 q -4.6,0.6 -6.65,4.15 l -0.85,1.75 h 2.05 m -2,1 h -0.3 l -0.3,2.4 q 0,0.55 0.6,1.55 h 19.45 V 17.1 L -2.5,17.05 -2.35,16.9 q 1.1,-1.05 1.1,-2.65 V 14.2 l -0.05,-1 h -46.5 m 1.6,-7.3 0.05,-0.05 H -46.2 V 5.9 m -2.45,2.2 1.05,-1.15 -0.1,-0.15 q -0.8,-1.5 -1.8,-2.35 -4.05,-3.5 -16.35,-3.5 -7.05,0 -10.8,4.2 l -1.25,1.8 -0.3,0.55 0.2,-0.05 5.35,-0.2 q 7.45,0.65 14.35,3.75 4.5,2.2 6.45,3.35 l 1.5,0.9 -0.05,-1.05 -0.05,-1.15 q 0,-2.85 1.8,-4.95 m -31,2.6 -0.1,0.25 q 1.2,1 2.8,1.1 1,-0.8 2.5,-0.95 5.45,-0.4 20.15,6.2 l 0.3,-0.15 h 3 l -0.15,-0.1 q -1.9,-1.3 -4.9,-3.25 -9.55,-5.25 -17.35,-5.25 -3.7,0 -5.45,0.9 l -0.4,0.3 -0.4,0.95 m 16.85,24 -1.65,1.2 -2.6,1.6 q 2.1,-0.2 6.6,-0.15 V 35.9 35.8 l -0.2,-0.15 -0.1,-0.4 L -61.8,35 h -0.1 -0.1 l -0.65,-0.25 -0.15,-0.05"
         fill="#6b6b6b"
         fill-rule="evenodd"
         stroke="none"
         id="path9" />
      <path
         d="M 82.2,10.4 82.15,10.35 81.8,8.85 q 0.4,0.5 0.4,1.25 v 0.3 M 80.2,6.25 79.9,5.9 80.45,6.1 80.2,6.25 m -18.85,14.8 2.95,-1.6 Q 65.2,19 66.05,18.6 l -0.55,0.45 q -1.85,1.15 -3.95,1.9 l -0.2,0.1 m -0.75,14.6 0.1,-0.4 1.05,-0.25 h 0.1 0.1 l 0.65,-0.25 0.15,-0.05 1.6,1.2 2.65,1.6 Q 64.9,37.3 60.4,37.35 V 35.9 35.8 l 0.2,-0.15 M -62.8,34.7 -62.65,34.75 -62,35 h 0.1 0.1 l 1.05,0.25 0.1,0.4 0.2,0.15 v 0.1 1.45 q -4.5,-0.05 -6.6,0.15 l 2.6,-1.6 1.65,-1.2"
         fill="#7b7b7b"
         fill-rule="evenodd"
         stroke="none"
         id="path10" />
      <path
         d="M 50.3,14.6 Q 51.5,12.75 54.7,11 59.2,8.7 65.9,7.5 L 75.95,6.8 75.3,6.15 74.6,5.5 Q 73,4.85 69.95,4.35 H 58.05 Q 53.35,4.4 51.2,6.55 L 49.1,8.7 48.45,7.85 47.9,7.3 47.55,6.95 47.65,6.8 q 0.8,-1.5 1.8,-2.35 4.05,-3.5 16.35,-3.5 4.35,0 7.45,1.6 1.9,1 3.35,2.6 l 0.8,1.1 0.5,0.8 L 78.15,7.5 76.3,7.2 Q 74.7,7.05 72.6,7.25 65.15,7.9 58.25,11 q -4.5,2.2 -6.45,3.35 -0.85,0.45 -1.55,0.9 L 50.3,14.6 m 1.8,2.55 H 50.95 L 56,13.8 Q 65.55,8.55 73.35,8.55 l 4.5,0.5 0.95,0.4 0.4,0.3 0.1,0.15 0.4,1.05 -0.45,0.3 -0.6,-0.35 -1,-0.8 -13.75,1.55 -6.3,1.5 -3.6,2.55 -1.9,1.45 M -72.6,17.5 h 0.05 L -72,17.45 q 2.95,0 4.6,1.4 l 1.3,1.2 1.65,1.25 q 4.85,2.45 15.15,2.9 h 98.55 l 8,-0.75 h 0.1 l 0.95,-0.2 q 3.7,-0.75 6.05,-1.95 1.35,-0.75 3,-2.45 1.65,-1.4 4.6,-1.4 l 1,0.1 -0.2,0.3 Q 66.65,22.6 58.3,24.8 l -0.4,0.25 h -0.3 l -0.35,0.15 -0.8,0.25 h -101.6 l -0.05,0.05 -5.85,0.25 q -6.25,0 -12.8,-2.4 l -6.15,-2.3 -1.2,-1.3 -0.7,-0.8 -0.35,-0.45 -0.5,-0.65 -0.15,-0.15 q 0.15,-0.15 0.3,-0.15 V 17.5 M 4.7,6.05 h 0.35 1.1 L 6.4,6.1 17.25,6.15 v 0.1 L 40.3,6.3 43.1,7 43.95,7.45 q 1.85,1.05 3,3 l 0.35,0.6 0.5,1.15 L 1.4,12.25 1.7,11 Q 1.95,9.9 2.5,8.85 L 3,7.9 Q 3.75,6.7 4.7,6.05 m 29.75,2.05 -15,0.05 Q 9.45,8.85 4.65,11 L 43.9,11.05 43.75,11 41.05,8.95 40.4,8.9 34.45,8.1 m 13.8,6 -47.05,0.1 0.05,-1 h 46.8 l 0.2,0.9 M -45.8,12.2 h -2.05 L -47,10.45 Q -44.95,6.9 -40.35,6.3 L -14.3,6.2 V 6.15 L -6.45,6.1 -6.2,6.05 h 1.05 0.4 q 1.3,0.85 2.2,2.8 l 0.8,2.15 0.25,0.9 0.05,0.35 L -45.8,12.2 -31.95,10.9 -2.85,11 -3.9,10 Q -6,8.05 -9.6,8.05 l -3.05,0.25 -9.8,0.1 q -2.95,0.3 -16.8,0 -0.65,0 -4.05,2.2 l -2.5,1.6 m -2,1 h 46.5 l 0.05,1 -30.7,0.05 -14.5,-0.8 -1.35,-0.25 m -2.6,1 0.05,1.05 -1.5,-0.9 Q -53.8,13.2 -58.3,11 -65.2,7.9 -72.65,7.25 l -5.35,0.2 -0.2,0.05 0.3,-0.55 1.25,-1.8 q 3.75,-4.2 10.8,-4.2 12.3,0 16.35,3.5 1,0.85 1.8,2.35 l 0.1,0.15 -1.05,1.15 -1.15,-0.85 q -0.9,-1.55 -1.45,-2 -3.45,-2.85 -17.4,-2.85 -3.1,0 -6.8,2.85 l -1.85,1.55 3.2,-0.35 q 13.4,2.45 18.45,4.3 4.1,1.5 5.25,3.45 m -0.75,2.85 -0.65,0.05 -1.55,-1 q -2.05,-1.2 -4.75,-2.2 -8.75,-3.2 -21.3,-3.2 h -0.25 l 0.4,-0.95 0.4,-0.3 q 1.75,-0.9 5.45,-0.9 7.8,0 17.35,5.25 3,1.95 4.9,3.25"
         fill="#ffffff"
         fill-rule="evenodd"
         stroke="none"
         id="path11" />
      <path
         d="m 49.1,8.7 2.1,-2.15 q 2.15,-2.15 6.85,-2.2 h 11.9 Q 73,4.85 74.6,5.5 L 75.3,6.15 75.95,6.8 65.9,7.5 q -6.7,1.2 -11.2,3.5 -3.2,1.75 -4.4,3.6 l 0.05,-0.95 0.05,-0.6 -0.15,-1.7 Q 49.95,9.9 49.1,8.7 m 30.15,2.55 q -1.05,0.7 -2.35,0.8 -1,-0.8 -2.5,-0.95 -5.5,-0.4 -20.15,6.2 l -0.3,-0.15 H 52.1 l 1.9,-1.45 3.6,-2.55 6.3,-1.5 13.75,-1.55 1,0.8 0.6,0.35 m -17.9,9.8 q -3.9,1.3 -12.1,1.4 l -21,0.05 h -4.6 -46.7 -5.25 l -21,-0.05 -8.15,-0.55 -4.2,-0.95 -0.7,-0.25 -3.25,-1.65 -0.5,-0.45 -1.25,-0.8 q -1.55,-0.85 -3.55,-1.2 -3.55,-0.65 -3.55,1.45 l 0.05,1 0.65,0.05 0.05,-0.4 q 0.2,2.2 7.35,6.6 3.5,2.2 6.25,3.35 l 2.1,0.8 1.8,0.45 h 0.05 V 30 l 0.8,0.3 h 0.25 0.15 l 26.6,0.05 V 30.4 H 28.3 V 30.35 L 54.9,30.3 h 0.15 0.3 L 56.1,30 v -0.1 h 0.1 l 1.75,-0.45 2.1,-0.8 q 2.7,-1.15 6.25,-3.35 7.1,-4.4 7.35,-6.6 l 0.05,0.4 0.65,-0.05 0.05,-1 q 0,-2.1 -3.55,-1.45 -2.85,0.5 -4.8,2 -0.85,0.4 -1.75,0.85 l -2.95,1.6 m -131.35,0 6.15,2.3 q 6.55,2.4 12.8,2.4 l 5.85,-0.25 0.05,-0.05 h 101.6 l 0.8,-0.25 0.35,-0.15 h 0.3 l 0.4,-0.25 q 8.35,-2.2 14.45,-6.95 -3.05,3.8 -5.6,5.8 -2.95,2.25 -7.95,3.9 l -2.3,0.65 -2.15,0.55 -0.9,0.2 -1.2,0.25 H -52.7 l -1.2,-0.25 -0.9,-0.2 -2.1,-0.55 -2.35,-0.65 q -5,-1.65 -7.95,-3.9 l -2.8,-2.6 m 144.65,-6.6 q 1.35,0 1.6,1.65 v 1.8 q 0,4.45 -7.75,9.05 -3.3,1.95 -7.2,3.5 l -1.9,0.7 -0.15,0.05 -0.9,0.3 -0.1,0.05 -2.95,0.35 H 54.95 54.9 l -1,-0.05 -0.8,-0.05 H 52.6 -52.65 -53.2 l -0.7,0.05 -1.05,0.05 H -55 -55.35 l -2.9,-0.35 -0.15,-0.05 -0.9,-0.3 -0.15,-0.05 -1.85,-0.7 q -3.95,-1.55 -7.25,-3.5 -7.8,-4.6 -7.8,-9.05 v -1.8 q 0.3,-1.65 1.65,-1.65 l 2.85,0.2 q 2,0.6 4.75,1.8 l 6.35,2.25 0.2,0.15 q 1.1,0.7 3.6,0.95 l 4.3,0.6 1.4,-0.1 22.9,0.05 v 0.05 l 5.3,0.05 h 4.85 0.4 13.35 L -4.5,20.5 -4.05,20.45 H 4 L 4.45,20.5 4.4,20.45 h 12.85 0.65 1.25 0.35 0.25 L 28.3,20.4 v -0.05 l 22.9,-0.05 1.4,0.1 4.3,-0.6 q 2.5,-0.25 3.55,-0.95 L 60.7,18.7 q 3.1,-0.85 6.35,-2.25 l 4.75,-1.8 2.85,-0.2 M 34.45,8.1 40.4,8.9 41.05,8.95 43.75,11 43.9,11.05 4.65,11 q 4.8,-2.15 14.8,-2.85 l 15,-0.05 m 13.8,6 0.1,1.5 q 0,0.55 -0.6,1.55 H 28.3 V 17.1 L 2.45,17.05 2.3,16.9 Q 1.2,15.85 1.2,14.25 V 14.2 l 47.05,-0.1 m -94.05,-1.9 2.5,-1.6 q 3.4,-2.2 4.05,-2.2 13.85,0.3 16.8,0 l 9.8,-0.1 3.05,-0.25 q 3.6,0 5.7,1.95 l 1.05,1 -29.1,-0.1 -13.85,1.3 m 44.55,2 v 0.05 q 0,1.6 -1.1,2.65 l -0.15,0.15 -25.85,0.05 v 0.05 H -47.8 q -0.6,-1 -0.6,-1.55 l 0.3,-2.4 h 0.3 l 1.35,0.25 14.5,0.8 30.7,-0.05 m -49.15,0 Q -51.55,12.25 -55.65,10.75 -60.7,8.9 -74.1,6.45 l -3.2,0.35 1.85,-1.55 q 3.7,-2.85 6.8,-2.85 13.95,0 17.4,2.85 0.55,0.45 1.45,2 l 1.15,0.85 q -1.8,2.1 -1.8,4.95 l 0.05,1.15 m -0.75,2.85 0.15,0.1 h -3 l -0.3,0.15 q -14.7,-6.6 -20.15,-6.2 -1.5,0.15 -2.5,0.95 -1.6,-0.1 -2.8,-1.1 l 0.1,-0.25 h 0.25 q 12.55,0 21.3,3.2 2.7,1 4.75,2.2 l 1.55,1 0.65,-0.05"
         fill="#cccccc"
         fill-rule="evenodd"
         stroke="none"
         id="path12" />
    </g>
  </defs>
</svg>
