<?xml version="1.0" encoding="UTF-8" standalone="no"?>
<svg
   ffdec:objectType="frame"
   height="26.771128"
   width="23.657806"
   version="1.1"
   id="svg12"
   sodipodi:docname="2.svg"
   xmlns:inkscape="http://www.inkscape.org/namespaces/inkscape"
   xmlns:sodipodi="http://sodipodi.sourceforge.net/DTD/sodipodi-0.dtd"
   xmlns:xlink="http://www.w3.org/1999/xlink"
   xmlns="http://www.w3.org/2000/svg"
   xmlns:svg="http://www.w3.org/2000/svg"
   xmlns:ffdec="https://www.free-decompiler.com/flash">
  <sodipodi:namedview
     id="namedview12"
     pagecolor="#ffffff"
     bordercolor="#000000"
     borderopacity="0.25"
     inkscape:showpageshadow="2"
     inkscape:pageopacity="0.0"
     inkscape:pagecheckerboard="0"
     inkscape:deskcolor="#d1d1d1"
     fit-margin-top="5"
     fit-margin-left="5"
     fit-margin-right="5"
     fit-margin-bottom="5" />
  <g
     transform="translate(12.082473,11.971128)"
     id="g1">
    <use
       ffdec:characterId="3659"
       height="35.799999"
       transform="translate(-13.35,-20.8)"
       width="27.15"
       xlink:href="#sprite0"
       id="use1" />
  </g>
  <defs
     id="defs12">
    <g
       id="sprite0"
       transform="translate(13.35,20.8)">
      <use
         ffdec:characterId="3654"
         height="13.5"
         transform="matrix(0.7071,-0.7071,0.7071,0.7071,-13.3606,5.45)"
         width="6.25"
         xlink:href="#sprite1"
         id="use2" />
      <use
         ffdec:characterId="3656"
         height="16.6"
         transform="translate(-6.8,-1.8)"
         width="15"
         xlink:href="#sprite2"
         id="use3" />
      <use
         ffdec:characterId="3658"
         height="22.1"
         transform="matrix(0.772,0.2068,-0.2068,0.772,-6.05,-13.9)"
         width="23.85"
         xlink:href="#sprite3"
         id="use4" />
    </g>
    <g
       id="sprite1"
       transform="translate(0.75,0.75)">
      <use
         ffdec:characterId="3653"
         height="13.5"
         transform="translate(-0.75,-0.75)"
         width="6.25"
         xlink:href="#shape0"
         id="use5" />
    </g>
    <g
       id="shape0"
       transform="translate(0.75,0.75)">
      <path
         d="m 2.35,0 q 1.85,0 2.3,2.35 l 0.1,3.4 -0.15,3.3 Q 4.2,12 2.7,12 1,12 0.55,10.55 0.25,9.8 0.25,8.15 l -0.2,-4 Q -0.1,2.95 0.1,1.95 0.55,0 2.35,0 m -0.2,1.35 q -0.5,0.3 -0.7,1.3 v 1.5 l 0.1,3.2 Q 1.8,10 2.7,10.55 3.45,9 3.45,5.65 V 3.6 L 2.8,1.4 2.15,1.35"
         fill="#6b6b6b"
         fill-rule="evenodd"
         stroke="none"
         id="path5" />
      <path
         d="M 2.15,1.35 2.8,1.4 3.45,3.6 V 5.65 Q 3.45,9 2.7,10.55 1.8,10 1.55,7.35 l -0.1,-3.2 v -1.5 q 0.2,-1 0.7,-1.3"
         fill="#999999"
         fill-rule="evenodd"
         stroke="none"
         id="path6" />
      <path
         d="m 2.35,0 q 1.85,0 2.3,2.35 l 0.1,3.4 -0.15,3.3 Q 4.2,12 2.7,12 1,12 0.55,10.55 0.25,9.8 0.25,8.15 l -0.2,-4 Q -0.1,2.95 0.1,1.95 0.55,0 2.35,0 Z"
         fill="none"
         stroke="#6b6b6b"
         stroke-linecap="round"
         stroke-linejoin="round"
         stroke-width="1.5"
         id="path7" />
    </g>
    <g
       id="sprite2"
       transform="translate(1)">
      <use
         ffdec:characterId="3655"
         height="16.6"
         transform="translate(-1)"
         width="15"
         xlink:href="#shape1"
         id="use7" />
    </g>
    <g
       id="shape1"
       transform="translate(1)">
      <path
         d="M 7.45,3.45 7.9,3.4 l 1.5,0.3 0.25,0.15 0.9,0.7 0.4,0.7 q 0.75,1.2 0.9,2.8 0.35,1.4 0.15,2.9 -0.1,1.1 0.4,1.5 0.6,0.4 0.6,1.3 0,1.65 -2.25,1.65 L 9.4,15.2 q -0.35,0.4 -1,0.4 -0.65,0 -1.1,-0.4 L 7.4,15.4 7.2,15.6 6.75,15.1 6.55,15.05 H 6.45 L 5.75,15.2 Q 5.3,15.6 4.6,15.6 L 4.1,15.5 q -0.35,0 -0.55,-0.3 l -1.3,0.2 Q 0,15.4 0,13.75 L 0.2,13 0.95,12.05 q 0.2,-0.35 0.2,-2.1 V 8.1 8.05 q 0.2,-1.6 0.9,-2.8 L 2.5,4.55 3.35,3.85 3.55,3.7 5.15,3.4 5.5,3.45 5.35,2.85 V 1.7 L 5.4,0.75 Q 5.65,0 6.55,0 7.6,0 7.55,2.2 L 7.45,3.45 H 7.3 L 6.5,3.65 6.15,3.55 5.5,3.45 6.15,3.55 6.5,3.65 7.3,3.45 h 0.15 m 2.9,3.35 Q 9.9,5.25 8.55,4.65 L 7.9,4.35 7.55,4.3 6.55,4.35 H 6.45 L 5.5,4.3 5.15,4.35 q -0.4,0.1 -0.7,0.3 -1.35,0.6 -1.8,2.15 -0.3,0.95 -0.5,3.1 v 2.55 l 0.7,-0.1 V 12.2 l 0.1,-0.9 v -0.45 l 0.2,-1.3 Q 3.35,8.65 3.8,8.35 L 4.1,8.6 4,8.95 V 9.1 l -0.05,1.4 v 1.15 q 0,2.8 1,2.8 0.4,0 0.6,-0.35 L 5.7,13.15 5.85,12 5.75,10.1 6.55,10.25 7.2,10.1 v 0.15 l -0.1,0.6 -0.05,0.2 0.05,0.6 0.05,1.2 q 0.1,1.6 0.9,1.6 0.5,0 0.7,-0.6 L 8.9,11.85 8.55,9.2 Q 8.55,8.15 9,8.7 L 9.1,8.8 Q 9.4,8.75 9.6,9.7 L 9.8,11 v 0.15 0.1 l 0.05,0.6 V 12 l 0.05,0.4 q 0.25,-0.15 0.75,0 l 0.2,0.05 V 9.9 l -0.5,-3.1 m -0.4,6.65 -0.05,0.7 1.45,0.05 q 0.5,-0.05 0.5,-0.55 l -0.3,-0.4 -0.6,-0.45 -1,0.1 v 0.55 M 2.75,12.8 2,12.9 1.45,13.25 q -0.3,0.15 -0.3,0.4 0,0.5 0.5,0.55 L 3.1,14.15 2.9,12.8 H 2.75"
         fill="#6b6b6b"
         fill-rule="evenodd"
         stroke="none"
         id="path8" />
      <path
         d="m 10.35,6.8 0.5,3.1 v 2.55 l -0.2,-0.05 q -0.5,-0.15 -0.75,0 L 9.85,12 V 11.85 L 9.8,11.25 V 11.15 11 L 9.6,9.7 Q 9.4,8.75 9.1,8.8 L 9,8.7 Q 8.55,8.15 8.55,9.2 l 0.35,2.65 -0.15,2 q -0.2,0.6 -0.7,0.6 -0.8,0 -0.9,-1.6 L 7.1,11.65 7.05,11.05 7.1,10.85 7.2,10.25 V 10.1 L 6.55,10.25 5.75,10.1 5.85,12 5.7,13.15 5.55,14.1 q -0.2,0.35 -0.6,0.35 -1,0 -1,-2.8 V 10.5 L 4,9.1 V 8.95 L 4.1,8.6 3.8,8.35 q -0.45,0.3 -0.65,1.2 l -0.2,1.3 v 0.45 l -0.1,0.9 v 0.15 l -0.7,0.1 V 9.9 Q 2.35,7.75 2.65,6.8 3.1,5.25 4.45,4.65 4.75,4.45 5.15,4.35 L 5.5,4.3 6.45,4.35 h 0.1 l 1,-0.05 0.35,0.05 0.65,0.3 q 1.35,0.6 1.8,2.15 m -0.4,6.65 V 12.9 l 1,-0.1 0.6,0.45 0.3,0.4 q 0,0.5 -0.5,0.55 L 9.9,14.15 9.95,13.45 M 2.75,12.8 H 2.9 l 0.2,1.35 -1.45,0.05 q -0.5,-0.05 -0.5,-0.55 0,-0.25 0.3,-0.4 L 2,12.9 2.75,12.8"
         fill="#999999"
         fill-rule="evenodd"
         stroke="none"
         id="path9" />
      <path
         d="M 7.45,3.45 7.9,3.4 l 1.5,0.3 0.25,0.15 0.9,0.7 0.4,0.7 q 0.75,1.2 0.9,2.8 0.35,1.4 0.15,2.9 -0.1,1.1 0.4,1.5 0.6,0.4 0.6,1.3 0,1.65 -2.25,1.65 L 9.4,15.2 q -0.35,0.4 -1,0.4 -0.65,0 -1.1,-0.4 M 6.75,15.1 6.55,15.05 H 6.45 L 5.75,15.2 Q 5.3,15.6 4.6,15.6 L 4.1,15.5 M 3.55,15.2 2.25,15.4 Q 0,15.4 0,13.75 L 0.2,13 0.95,12.05 q 0.2,-0.35 0.2,-2.1 V 8.1 8.05 q 0.2,-1.6 0.9,-2.8 L 2.5,4.55 3.35,3.85 3.55,3.7 5.15,3.4 5.5,3.45 6.15,3.55 6.5,3.65 7.3,3.45 h 0.15"
         fill="none"
         stroke="#6b6b6b"
         stroke-linecap="round"
         stroke-linejoin="round"
         stroke-width="2"
         id="path10" />
    </g>
    <g
       id="sprite3">
      <use
         ffdec:characterId="3657"
         height="22.1"
         width="23.85"
         xlink:href="#shape2"
         id="use10" />
    </g>
    <g
       id="shape2">
      <path
         d="m 22.5,5.8 q 1.35,2.45 1.35,5.75 0,3.3 -1.7,6.05 -2.8,4.5 -9.3,4.5 H 11.75 11 Q 4.55,22.1 1.7,17.6 0,14.85 0,11.55 0,8.05 1.6,5.4 L 1.35,4.85 0.75,3 q 0,-1.05 2.5,-1.2 l 1.8,0.1 Q 7.75,0.15 11.25,0 h 0.9 0.5 q 3.85,0.15 6.75,2.3 l 2,0.05 q 2.45,0.6 2.45,1.55 L 22.5,5.8 M 11.75,2.8 10.35,3 Q 6.15,3.7 4.75,6.15 3.3,8.6 3.3,11.25 3.3,13.8 4.5,15.55 6.65,19 11.4,19 h 0.35 0.4 0.3 q 4.75,0 6.95,-3.45 1.15,-1.75 1.15,-4.3 0,-2.65 -1.45,-5.1 Q 17.7,3.7 13.5,3 L 11.75,2.8 m 2.45,8.4 q -0.55,-0.35 -0.55,-0.65 0,-0.45 0.6,-0.45 1.05,0 1.4,0.9 l 0.1,0.9 q 0,2.15 -2,2.15 -0.5,0 -1,-0.4 l -0.6,-0.4 -1.4,0.35 Q 9.5,13.6 9.15,12.8 9,12.55 9,11.9 L 9.1,10.95 Q 9.3,10.6 10.5,10.1 l 0.3,0.3 -0.5,0.75 q -0.35,0.45 -0.35,0.7 0,0.8 0.85,0.8 l 0.9,-0.3 q 0.4,-0.55 0.75,-0.75 l 0.5,0.9 q 0.25,0.45 1.2,0.45 0.3,0 0.55,-1.05 l -0.5,-0.7 m 5.9,0.75 -0.3,1.1 q -0.45,0.7 -1.35,0.7 -0.9,0 -1.45,-0.9 -0.35,-0.6 -0.35,-1 0,-1.6 1.75,-1.65 1.7,-0.05 1.7,1.75 M 7.85,11.85 q 0,0.6 -0.35,1.1 -0.45,0.65 -1.3,0.65 -0.85,0 -1.4,-0.75 l -0.4,-1 q 0,-1.6 1.75,-1.65 1.7,0 1.7,1.65"
         fill="#6b6b6b"
         fill-rule="evenodd"
         stroke="none"
         id="path11" />
      <path
         d="M 7.85,11.85 Q 7.85,10.2 6.15,10.2 4.4,10.25 4.4,11.85 l 0.4,1 q 0.55,0.75 1.4,0.75 0.85,0 1.3,-0.65 0.35,-0.5 0.35,-1.1 m 12.25,0.1 q 0,-1.8 -1.7,-1.75 -1.75,0.05 -1.75,1.65 0,0.4 0.35,1 0.55,0.9 1.45,0.9 0.9,0 1.35,-0.7 l 0.3,-1.1 m -5.9,-0.75 0.5,0.7 q -0.25,1.05 -0.55,1.05 -0.95,0 -1.2,-0.45 l -0.5,-0.9 q -0.35,0.2 -0.75,0.75 l -0.9,0.3 q -0.85,0 -0.85,-0.8 0,-0.25 0.35,-0.7 L 10.8,10.4 10.5,10.1 Q 9.3,10.6 9.1,10.95 L 9,11.9 q 0,0.65 0.15,0.9 0.35,0.8 1.6,0.8 l 1.4,-0.35 0.6,0.4 q 0.5,0.4 1,0.4 2,0 2,-2.15 L 15.65,11 q -0.35,-0.9 -1.4,-0.9 -0.6,0 -0.6,0.45 0,0.3 0.55,0.65 M 11.75,2.8 13.5,3 q 4.2,0.7 5.6,3.15 1.45,2.45 1.45,5.1 0,2.55 -1.15,4.3 Q 17.2,19 12.45,19 h -0.3 -0.4 -0.35 Q 6.65,19 4.5,15.55 3.3,13.8 3.3,11.25 3.3,8.6 4.75,6.15 6.15,3.7 10.35,3 l 1.4,-0.2"
         fill="#999999"
         fill-rule="evenodd"
         stroke="none"
         id="path12" />
    </g>
  </defs>
</svg>
