<?xml version="1.0" encoding="UTF-8" standalone="no"?>
<svg
   ffdec:objectType="frame"
   height="31.099997"
   width="34.200001"
   version="1.1"
   id="svg11"
   sodipodi:docname="2.svg"
   xmlns:inkscape="http://www.inkscape.org/namespaces/inkscape"
   xmlns:sodipodi="http://sodipodi.sourceforge.net/DTD/sodipodi-0.dtd"
   xmlns:xlink="http://www.w3.org/1999/xlink"
   xmlns="http://www.w3.org/2000/svg"
   xmlns:svg="http://www.w3.org/2000/svg"
   xmlns:ffdec="https://www.free-decompiler.com/flash">
  <sodipodi:namedview
     id="namedview11"
     pagecolor="#ffffff"
     bordercolor="#000000"
     borderopacity="0.25"
     inkscape:showpageshadow="2"
     inkscape:pageopacity="0.0"
     inkscape:pagecheckerboard="0"
     inkscape:deskcolor="#d1d1d1"
     fit-margin-top="5"
     fit-margin-left="5"
     fit-margin-right="5"
     fit-margin-bottom="5" />
  <g
     transform="translate(17.45,15.4)"
     id="g4">
    <use
       ffdec:characterId="2288"
       height="31.1"
       transform="translate(-17.45,-15.4)"
       width="34.200001"
       xlink:href="#shape0"
       id="use1" />
    <use
       ffdec:characterId="2225"
       height="6.1999998"
       transform="matrix(-1,0,0,1,10.4,-0.75)"
       width="5.9000001"
       xlink:href="#sprite0"
       id="use2" />
    <use
       ffdec:characterId="2225"
       height="6.1999998"
       transform="matrix(-1,0,0,1,-0.6,-0.75)"
       width="5.9000001"
       xlink:href="#sprite0"
       id="use3" />
    <use
       ffdec:characterId="1691"
       height="8"
       transform="matrix(0.3333,-0.5773,-0.5773,-0.3333,-7.9406,0.1508)"
       width="10.8"
       xlink:href="#sprite2"
       id="use4" />
  </g>
  <defs
     id="defs11">
    <g
       id="shape0"
       transform="translate(17.45,15.4)">
      <path
         d="m -7.8,-14.9 h 3 v 0.05 l 7.6,1.3 0.55,0.1 q 3,1.25 4.5,1.8 l 0.85,0.35 0.15,0.2 1.55,1.65 3.55,4.65 -0.05,0.05 0.85,1.1 0.7,2.8 0.8,5.75 L 16.2,5.65 15.65,6.3 Q 12.6,12.75 11.1,14.5 L 10.85,14.75 10.2,15.2 9.65,15.05 -7.4,15 Q -9.05,15.1 -9.15,14.1 -11.1,12 -16.8,2.4 V 1.95 L -16.95,1.4 q 0,-2 3.9,-9.2 3.8,-6.9 4.45,-7.1 H -8 -7.8 M 1.6,-2.85 1.4,-2.9 0.55,-3.15 1,-3.2 h 0.2 l 3.85,-0.25 1.1,-0.1 1.4,-0.1 L 9.1,-3.7 H 11 l 1.15,0.05 0.35,0.05 V -3.8 H 12.4 L 10.9,-5.3 9.2,-7.35 7.8,-9.15 7,-9.95 Q 5.75,-10 1,-11.15 l -5.85,-1.4 -3,-0.05 0.4,0.5 0.55,0.65 0.95,1.4 0.2,0.3 1.25,1.95 -0.15,0.05 -0.2,-0.15 -2,-2.35 -1.35,-1.75 -4.35,8.55 -2.3,3.9 1.6,-0.15 4.45,0.4 -0.4,0.1 -0.15,0.05 H -9.5 -9.6 l -0.15,0.05 -0.2,0.05 -5.35,0.75 1.3,1.55 2.25,3.5 2.55,3.9 v 0.05 l 0.75,1.2 0.25,0.35 0.15,0.35 0.1,0.15 0.1,0.15 h 0.45 l 16.1,-0.1 0.95,-0.1 0.6,-1.15 0.4,-0.8 0.65,-1.1 0.2,-0.35 0.3,-0.5 1.6,-2.65 0.4,-0.5 v -1 -0.6 L 13.6,1.2 12.95,-1.95 12.85,-2.25 H 12.5 L 5.55,-2.7 1.65,-2.85 H 1.6"
         fill="#6b6b6b"
         fill-rule="evenodd"
         stroke="none"
         id="path4" />
      <path
         d="M -7.8,-14.9 H -8 v -0.25 l 0.2,0.25 m 2.95,7 0.2,0.15 0.15,-0.05 -1.25,-1.95 -0.2,-0.3 -0.95,-1.4 -0.55,-0.65 -0.4,-0.5 3,0.05 5.85,1.4 q 4.75,1.15 6,1.2 l 0.8,0.8 1.4,1.8 1.7,2.05 1.5,1.5 h 0.1 v 0.2 L 12.15,-3.65 11,-3.7 H 9.1 l -1.55,0.05 -1.4,0.1 -1.1,0.1 L 1.2,-3.2 H 1 L 0.55,-3.15 1.4,-2.9 1.6,-2.85 H 1.4 q -2.45,0 -3.45,-0.85 -1,-0.85 -2.8,-4.2"
         fill="#c4c4c4"
         fill-rule="evenodd"
         stroke="none"
         id="path5" />
      <path
         d="m 1.6,-2.85 h 0.05 l 3.9,0.15 6.95,0.45 h 0.35 l 0.1,0.3 0.65,3.15 0.2,2.85 v 0.6 1 L 13.4,6.15 11.8,8.8 11.5,9.3 8.7,9.4 H 8.5 3.7 L 3.15,9.6 h -5.3 L -7.35,9.45 -8.1,4.75 -8.55,2.25 Q -8.6,1.8 -8.9,1.25 l -0.3,-0.45 0.4,-0.1 -4.45,-0.4 -1.6,0.15 2.3,-3.9 4.35,-8.55 1.35,1.75 2,2.35 q 1.8,3.35 2.8,4.2 1,0.85 3.45,0.85 h 0.2"
         fill="#9c9c9c"
         fill-rule="evenodd"
         stroke="none"
         id="path6" />
      <path
         d="m 11.5,9.3 -0.2,0.35 -0.65,1.1 -0.4,0.8 -0.6,1.15 -0.95,0.1 -16.1,0.1 H -7.85 L -7.95,12.75 -8.05,12.6 -8.2,12.25 -8.45,11.9 -9.2,10.7 V 10.65 L -11.75,6.75 -14,3.25 -15.3,1.7 -9.95,0.95 -9.75,0.9 -9.6,0.85 h 0.1 0.15 L -9.2,0.8 -8.9,1.25 q 0.3,0.55 0.35,1 l 0.45,2.5 0.75,4.7 5.2,0.15 h 5.3 L 3.7,9.4 h 4.8 0.2 l 2.8,-0.1"
         fill="#858585"
         fill-rule="evenodd"
         stroke="none"
         id="path7" />
      <path
         d="m -8,-14.9 h -0.6 q -0.65,0.2 -4.45,7.1 -3.9,7.2 -3.9,9.2 l 0.15,0.55 V 2.4 q 5.7,9.6 7.65,11.7 0.1,1 1.75,0.9 l 17.05,0.05 0.55,0.15 0.65,-0.45 0.25,-0.25 q 1.5,-1.75 4.55,-8.2 L 16.2,5.65 16.25,4.9 15.45,-0.85 14.75,-3.65 13.9,-4.75 13.95,-4.8 10.4,-9.45 8.85,-11.1 8.7,-11.3 7.85,-11.65 q -1.5,-0.55 -4.5,-1.8 l -0.55,-0.1 -7.6,-1.3 v -0.05 h -3"
         fill="none"
         stroke="#6b6b6b"
         stroke-linecap="round"
         stroke-linejoin="round"
         stroke-width="1"
         id="path8" />
    </g>
    <g
       id="sprite0"
       transform="translate(2.4,2.85)">
      <use
         ffdec:characterId="2022"
         height="5.6999998"
         transform="matrix(0.8214,0,0,0.8214,-2.3,-2.341)"
         width="5.5999999"
         xlink:href="#sprite1"
         id="use8" />
    </g>
    <g
       id="sprite1"
       transform="translate(2.8,2.85)">
      <use
         ffdec:characterId="2007"
         height="5.6999998"
         transform="translate(-2.8,-2.85)"
         width="5.5999999"
         xlink:href="#shape1"
         id="use9" />
    </g>
    <g
       id="shape1"
       transform="translate(2.8,2.85)">
      <path
         d="M 2.8,-0.2 2.35,1.5 Q 1.65,2.85 0.2,2.85 -1.4,2.85 -2.2,1.8 -2.8,1.05 -2.8,0.3 q 0,-2.7 2.8,-3.1 2.8,-0.35 2.8,2.6 m -3.55,-1.7 q -1,0 -1,1.05 -0.15,0.9 0.8,0.9 0.45,0 0.85,-0.35 l 0.35,-0.75 q 0,-0.85 -1,-0.85"
         fill="#6b6b6b"
         fill-rule="evenodd"
         stroke="none"
         id="path9" />
      <path
         d="m -0.75,-1.9 q 1,0 1,0.85 L -0.1,-0.3 q -0.4,0.35 -0.85,0.35 -0.95,0 -0.8,-0.9 0,-1.05 1,-1.05"
         fill="#ffffff"
         fill-rule="evenodd"
         stroke="none"
         id="path10" />
    </g>
    <g
       id="sprite2"
       transform="translate(5.4,4)">
      <use
         ffdec:characterId="43"
         height="8"
         transform="translate(-5.4,-4)"
         width="10.8"
         xlink:href="#shape2"
         id="use10" />
    </g>
    <g
       id="shape2"
       transform="translate(5.4,4)">
      <path
         d="m 2.9,-0.35 q 0,-1.25 1.25,-1.25 1.25,0 1.25,1.2 0,1.3 -1.25,1.3 Q 3.6,0.9 3.25,0.5 2.9,0.15 2.9,-0.35 m 0.35,-2.3 q 0,0.55 -0.35,0.9 -0.4,0.45 -1,0.45 -1.35,0 -1.35,-1.4 0,-1.3 1.35,-1.3 1.35,0 1.35,1.35 m -3.1,1.9 h 0.2 q 2.6,0.1 2.6,2.8 l -0.3,1 Q 2.05,4 0.45,4 H 0.35 0.15 0.1 -0.45 q -1.6,0 -2.2,-0.95 l -0.3,-1 q 0,-2.8 2.8,-2.8 h 0.3 M -1.55,-4 q 1.35,0 1.35,1.35 0,0.55 -0.4,0.9 -0.4,0.45 -0.95,0.45 -1.4,0 -1.4,-1.4 0,-1.3 1.4,-1.3 m -2.6,2.4 q 1.25,0 1.25,1.25 0,0.5 -0.35,0.85 -0.35,0.4 -0.9,0.4 -1.25,0 -1.25,-1.3 0,-1.2 1.25,-1.2"
         fill="#6b6b6b"
         fill-rule="evenodd"
         stroke="none"
         id="path11" />
    </g>
  </defs>
</svg>
