<?xml version="1.0" encoding="UTF-8" standalone="no"?>
<svg
   ffdec:objectType="frame"
   height="128.45"
   width="66.400002"
   version="1.1"
   id="svg11"
   sodipodi:docname="1.svg"
   xmlns:inkscape="http://www.inkscape.org/namespaces/inkscape"
   xmlns:sodipodi="http://sodipodi.sourceforge.net/DTD/sodipodi-0.dtd"
   xmlns:xlink="http://www.w3.org/1999/xlink"
   xmlns="http://www.w3.org/2000/svg"
   xmlns:svg="http://www.w3.org/2000/svg"
   xmlns:ffdec="https://www.free-decompiler.com/flash">
  <sodipodi:namedview
     id="namedview11"
     pagecolor="#ffffff"
     bordercolor="#000000"
     borderopacity="0.25"
     inkscape:showpageshadow="2"
     inkscape:pageopacity="0.0"
     inkscape:pagecheckerboard="0"
     inkscape:deskcolor="#d1d1d1"
     fit-margin-top="5"
     fit-margin-left="5"
     fit-margin-right="5"
     fit-margin-bottom="5" />
  <g
     transform="translate(35.75,65.1)"
     id="g1">
    <use
       ffdec:characterId="1392"
       height="128.45"
       transform="translate(-35.75,-65.1)"
       width="66.400002"
       xlink:href="#shape0"
       id="use1" />
  </g>
  <defs
     id="defs11">
    <g
       id="shape0"
       transform="translate(35.75,65.1)">
      <path
         d="m -29.9,-53.35 -0.05,-4.25 0.15,0.1 -0.1,4.15 M 26.4,60.05 25.65,60 24.85,59.95 H 20.7 L 20.85,58.4 V 57.8 L 20.7,55.9 H 25 l 2.15,-0.1 v 1.95 l -0.05,2.2 h -0.55 -0.1 l -0.05,0.1 m -52.7,-0.7 0.1,0.6 h -4 l -1.5,0.1 v -0.1 h -0.5 l -0.05,-2.5 V 56.8 56.2 56 h 6.1 l -0.15,1.65 v 1.7"
         fill="#919191"
         fill-rule="evenodd"
         stroke="none"
         id="path1" />
      <path
         d="m 14.65,-52.65 q 1.35,0.7 3.85,0.7 2.95,0 3.85,-1.15 0.45,-0.55 0.3,-1 0,-2.4 -4.55,-2.4 -4.55,0 -4.55,2.45 0,0.85 1.1,1.4 m -1.1,-4.75 q 1.8,-1.15 4.5,-1.05 2.6,0.05 4.45,1.25 2,1.25 2,3.25 0,1.6 -0.7,2.45 -1.3,1.55 -5.25,1.55 -7,0 -7,-3.85 0,-2.35 2,-3.6 M 6.75,63.05 H -24.1 l -1.2,0.05 h -8.95 l -0.6,-0.5 -0.45,-0.55 -0.1,-0.45 h -0.35 L -35.7,54 V 50.5 47.7 47.55 46.35 45.75 28.8 28.35 28 21.65 l 0.05,-28.45 0.1,-13.9 v -2 h -0.15 v -0.7 -0.6 -6.55 -0.5 -1.65 -3.3 -0.5 h 0.15 v -23.6 l -0.05,-2 -0.05,-1.25 q -0.05,-1.2 0.5,-1.75 h 65.2 q 0.5,0.55 0.45,1.75 l -0.05,1.25 v 0.7 0.2 0.2 l -0.05,0.9 v 23.6 h 0.15 v 0.5 3.3 1.65 0.5 1.3 2.9 1.05 0.7 0.6 0.6 0.7 H 30.4 v 2 l 0.15,13.9 V 21.65 28 28.35 28.8 l 0.05,14.8 v 2.75 1.2 2.95 0.25 0.45 l 0.05,10.4 h -0.4 l -0.1,0.45 -0.45,0.55 -0.6,0.5 h -4.1 -0.85 -4 l -1.2,-0.05 H 9.2 7.8 7.75 h -1 m 20.6,-123.5 -0.05,-1.65 -0.05,-0.3 -3.3,0.25 v -0.1 H -20.4 v 0.15 h -4.05 -3.5 l -1.5,-0.05 h -0.45 l -0.4,-0.05 -1.15,-0.1 h -0.15 l -0.35,-0.05 -0.45,-0.05 v 0.3 0.25 l -0.05,1.3 v 0.2 0.4 9.9 1.3 4.75 2.85 l 0.05,4.65 h 0.05 v 5.45 h 2.5 57.1 v -1.65 h 0.05 v -8.45 -2.85 -0.05 l 0.05,-1.3 v -1.35 -0.5 -1.55 l -0.05,-1.3 v -9.9 l 0.05,-0.5 m -57.2,27.5 -0.15,-0.3 v -18.5 h 0.05 l 0.05,-1.6 0.1,-4.15 -0.15,-0.1 -0.05,-0.05 v -0.75 l 0.05,-0.05 0.2,-0.2 v -0.4 h 0.85 l 0.05,0.1 0.35,-0.1 h 3.55 l 1,0.25 0.3,-0.3 0.75,1.05 v 20.55 h -0.05 l -0.15,3.7 0.2,0.15 v 0.75 l -0.25,0.25 v 0.4 H -24 l -0.05,-0.1 -0.35,0.1 h -3.55 l -0.95,-0.2 -0.35,0.25 -0.6,-0.75 m 57.1,4.6 v -1.25 h -59.6 v 1.45 l 0.4,-0.05 0.65,-0.05 0.6,-0.05 0.5,-0.05 h 10.15 v 0.05 h 22.1 v -0.05 h 25.2 M -29.8,54 27.15,54.15 V 54 h 0.1 l 0.05,-76.7 h -0.1 v -0.55 -0.15 -0.6 -0.45 -0.15 l 0.05,-1.8 -59.6,0.05 v 1.25 0.5 0.6 0.6 0.7 h -0.1 l 0.1,51.05 V 28.8 54 h 2.55 m 0.15,-74.55 h 0.75 l 0.05,0.1 0.35,-0.1 h 3.55 l 1,0.25 0.3,-0.3 0.75,1.05 v 57.5 l -0.2,6.65 0.2,0.15 v 0.75 l -0.25,0.25 v 0.4 H -24 l -0.05,-0.1 -0.35,0.1 h -3.55 l -0.95,-0.2 -0.35,0.25 -0.5,-0.55 -0.25,-0.5 v -57.5 l 0.2,-6.65 -0.2,-0.15 v -0.75 l 0.25,-0.25 v -0.4 h 0.1 m -2.7,-5.8 0.3,-0.1 -0.1,-0.05 h -0.2 v 0.15 m 58.9,86.3 h 0.55 l 0.05,-2.2 V 55.8 L 25,55.9 h -4.3 l 0.15,1.9 v 0.6 l -0.15,1.55 h 4.15 l 0.8,0.05 0.75,0.05 h 0.15 v -0.1 m -10.5,-3.25 0.55,0.45 -0.15,0.6 -8.5,0.05 h -8.5 -8.75 -1.25 l -9.1,0.05 -0.15,-0.05 -0.25,-0.1 -0.15,-0.4 V 57.15 56.8 l 0.15,-0.15 0.4,-0.05 19.1,0.05 H 16 l 0.05,0.05 m 2.7,1.6 V 57.8 L 18.9,55.9 7.95,55.95 -24,56 l 0.1,1.65 v 0.1 l -0.05,1.85 -0.05,0.35 h 42.8 q -0.15,-0.6 -0.05,-1.65 m -46.4,-115.4 -0.65,-0.05 h -0.1 l 0.25,1.85 0.5,-0.05 h 1 l 0.7,-0.05 h 0.2 l 1.05,-0.05 -0.05,-1.1 V -57 l -1.2,-0.05 -0.7,-0.05 h -0.15 -0.2 -0.65 m -0.25,5.35 h 0.15 l -0.1,3.7 0.1,-2.3 v 0.25 1.35 h -0.05 l -0.05,2.05 v 0.45 l -0.05,1 -0.25,7.75 v 0.1 h 3.3 v -0.1 L -25,-40.1 -25.15,-45 v -1.75 l 0.05,0.5 -0.1,-2.5 0.35,-3.55 -0.05,0.55 h 0.15 l 0.05,-2.15 h -3.35 l 0.15,2.15 m 2.75,15.8 v 0.05 h -0.8 l -0.7,0.05 h -0.35 -0.65 -0.5 v 1.1 0.45 l 0.5,0.05 h 0.65 0.35 l 1.5,0.05 0.55,0.05 h 0.1 l -0.25,-1.85 -0.4,0.05 m -2.5,17.35 -0.65,-0.05 h -0.1 l 0.25,1.85 0.5,-0.05 h 1 l 0.7,-0.05 h 0.2 l 1.05,-0.05 -0.05,-1.1 v -0.45 l -1.2,-0.05 -0.7,-0.05 h -0.15 -0.2 -0.65 m -0.4,3.2 0.15,2.7 0.2,13.65 -0.05,23.85 -0.4,16.2 h 3.3 L -25,38.3 -25.2,24.65 -25.15,0.8 -24.7,-15.4 h -3.35 m 0.4,57.95 h -0.5 v 1.1 0.45 l 0.5,0.05 h 0.65 0.35 l 1.5,0.05 0.55,0.05 h 0.1 l -0.25,-1.85 -0.4,0.05 v 0.05 h -0.8 l -0.7,0.05 H -27 -27.65 m 1.35,16.8 v -1.7 L -26.15,56 h -6.1 v 0.2 0.6 0.65 l 0.05,2.5 h 0.5 v 0.1 l 1.5,-0.1 h 4 l -0.1,-0.6"
         fill="#6b6b6b"
         fill-rule="evenodd"
         stroke="none"
         id="path2" />
      <path
         d="m -27.65,-57.1 h 0.65 0.2 0.15 l 0.7,0.05 1.2,0.05 v 0.45 l 0.05,1.1 -1.05,0.05 h -0.2 l -0.7,0.05 h -1 l -0.5,0.05 -0.25,-1.85 h 0.1 l 0.65,0.05 m 2.5,21.15 0.4,-0.05 0.25,1.85 h -0.1 l -0.55,-0.05 -1.5,-0.05 H -27 -27.65 l -0.5,-0.05 v -0.45 -1.1 h 0.5 0.65 0.35 l 0.7,-0.05 h 0.8 v -0.05 m -2.5,17.35 h 0.65 0.2 0.15 l 0.7,0.05 1.2,0.05 v 0.45 l 0.05,1.1 -1.05,0.05 h -0.2 l -0.7,0.05 h -1 l -0.5,0.05 -0.25,-1.85 h 0.1 l 0.65,0.05 m 0,61.15 h 0.65 0.35 l 0.7,-0.05 h 0.8 v -0.05 l 0.4,-0.05 0.25,1.85 h -0.1 l -0.55,-0.05 -1.5,-0.05 H -27 -27.65 l -0.5,-0.05 v -0.45 -1.1 h 0.5"
         fill="#b9b9b9"
         fill-rule="evenodd"
         stroke="none"
         id="path3" />
      <path
         d="m -32.35,-26.35 v -0.15 h 0.2 l 0.1,0.05 -0.3,0.1"
         fill="#e9e9e9"
         fill-rule="evenodd"
         stroke="none"
         id="path4" />
      <path
         d="m 18.75,58.3 q -0.1,1.05 0.05,1.65 H -24 l 0.05,-0.35 0.05,-1.85 v -0.1 L -24,56 7.95,55.95 18.9,55.9 18.75,57.8 v 0.5 M 16.05,56.7 16,56.65 H -0.55 l -19.1,-0.05 -0.4,0.05 -0.15,0.15 v 0.35 0.15 l 0.15,0.4 0.25,0.1 0.15,0.05 9.1,-0.05 h 1.25 8.75 8.5 l 8.5,-0.05 0.15,-0.6 -0.55,-0.45"
         fill="#707070"
         fill-rule="evenodd"
         stroke="none"
         id="path5" />
      <path
         d="m 26.4,60.05 0.05,-0.1 h 0.1 v 0.1 H 26.4"
         fill="#727272"
         fill-rule="evenodd"
         stroke="none"
         id="path6" />
      <path
         d="m 25,63.1 -0.45,0.1 -0.4,-0.1 H 25 M 9.2,63.05 8.75,63.25 v 0.1 H 8.5 8.1 7.95 v -0.2 L 7.8,63.05 h 1.4 m -1.45,0 -0.5,0.15 -0.5,-0.15 h 1"
         fill="#7b7b7b"
         fill-rule="evenodd"
         stroke="none"
         id="path7" />
      <path
         d="m 13.55,-57.4 q -2,1.25 -2,3.6 0,3.85 7,3.85 3.95,0 5.25,-1.55 0.7,-0.85 0.7,-2.45 0,-2 -2,-3.25 -1.85,-1.2 -4.45,-1.25 -2.7,-0.1 -4.5,1.05 m 13.8,-3.05 -0.05,0.5 v 9.9 l 0.05,1.3 v 1.55 0.5 1.35 l -0.05,1.3 v 0.05 2.85 8.45 h -0.05 v 1.65 h -57.1 v -0.15 l 0.05,-1.5 h -0.05 v -0.25 l 0.6,0.75 0.35,-0.25 0.95,0.2 h 3.55 l 0.35,-0.1 0.05,0.1 h 0.85 v -0.4 l 0.25,-0.25 v -0.75 l -0.2,-0.15 0.15,-3.7 h 0.05 v -20.55 l -0.75,-1.05 -0.3,0.3 -1,-0.25 h -3.55 l -0.35,0.1 -0.05,-0.1 h -0.85 v 0.4 l -0.2,0.2 v -1.5 l 51.95,-0.1 5.3,-0.4 h 0.05 m -0.15,37.2 v 0.55 h 0.1 L 27.25,54 h -0.1 v 0.15 L -29.8,54 v -0.1 l 0.05,-2.7 v -0.45 -3.2 -1.2 -0.6 -0.1 l 0.5,0.55 0.35,-0.25 0.95,0.2 h 3.55 l 0.35,-0.1 0.05,0.1 h 0.85 v -0.4 l 0.25,-0.25 v -0.75 l -0.2,-0.15 0.2,-6.65 v -57.5 l -0.75,-1.05 -0.3,0.3 -1,-0.25 h -3.55 l -0.35,0.1 -0.05,-0.1 h -0.75 v -2.15 h 0.5 v -0.55 l 3.35,0.25 h 50.4 l 2.6,-0.25"
         fill="#818892"
         fill-rule="evenodd"
         stroke="none"
         id="path8" />
      <path
         d="m 14.65,-52.65 q -1.1,-0.55 -1.1,-1.4 0,-2.45 4.55,-2.45 4.55,0 4.55,2.4 0.15,0.45 -0.3,1 -0.9,1.15 -3.85,1.15 -2.5,0 -3.85,-0.7 m 12.6,24.3 H 2.05 v 0.05 h -22.1 v -0.05 H -30.2 l -0.5,0.05 -0.6,0.05 -0.65,0.05 -0.4,0.05 v -1.45 h 59.6 v 1.25"
         fill="#767c85"
         fill-rule="evenodd"
         stroke="none"
         id="path9" />
      <path
         d="m -29.85,-31.05 h -2.5 v -5.45 h -0.05 l -0.05,-4.65 v -2.85 -4.75 -1.3 -9.9 -0.4 -0.2 l 0.05,-1.3 v -0.25 -0.3 l 0.45,0.05 0.35,0.05 h 0.15 l 1.15,0.1 0.4,0.05 h 0.45 l 1.5,0.05 h 3.5 4.05 v -0.15 h 44.35 v 0.1 l 3.3,-0.25 0.05,0.3 0.05,1.65 H 27.3 l -5.3,0.4 -51.95,0.1 v 1.5 L -30,-58.4 v 0.75 l 0.05,0.05 0.05,4.25 -0.05,1.6 H -30 v 18.5 l 0.15,0.3 v 0.25 h 0.05 l -0.05,1.5 v 0.15 m 57.05,7.8 -2.6,0.25 h -50.4 l -3.35,-0.25 v 0.55 h -0.5 v 2.15 h -0.1 v 0.4 L -30,-19.9 v 0.75 l 0.2,0.15 -0.2,6.65 v 57.5 l 0.25,0.5 v 0.1 0.6 1.2 3.2 0.45 l -0.05,2.7 V 54 h -2.55 V 28.8 28.35 l -0.1,-51.05 h 0.1 v -0.7 -0.6 -0.6 -0.5 -1.25 l 59.6,-0.05 -0.05,1.8 v 0.15 0.45 0.6 0.15"
         fill="#8b939e"
         fill-rule="evenodd"
         stroke="none"
         id="path10" />
      <path
         d="m -27.9,-51.75 -0.15,-2.15 h 3.35 l -0.05,2.15 h -0.15 l 0.05,-0.55 -0.35,3.55 0.1,2.5 -0.05,-0.5 V -45 l 0.15,4.9 0.15,2.6 v 0.1 h -3.3 v -0.1 l 0.25,-7.75 0.05,-1 v -0.45 l 0.05,-2.05 h 0.05 v -1.35 -0.25 l -0.1,2.3 0.1,-3.7 h -0.15 m -0.15,36.35 h 3.35 l -0.45,16.2 -0.05,23.85 0.2,13.65 0.15,2.7 h -3.3 l 0.4,-16.2 0.05,-23.85 -0.2,-13.65 -0.15,-2.7"
         fill="#cccccc"
         fill-rule="evenodd"
         stroke="none"
         id="path11" />
    </g>
  </defs>
</svg>
