<?xml version="1.0" encoding="UTF-8" standalone="no"?>
<svg
   ffdec:objectType="frame"
   height="75.349998"
   width="88.150002"
   version="1.1"
   id="svg13"
   sodipodi:docname="2.svg"
   xmlns:inkscape="http://www.inkscape.org/namespaces/inkscape"
   xmlns:sodipodi="http://sodipodi.sourceforge.net/DTD/sodipodi-0.dtd"
   xmlns:xlink="http://www.w3.org/1999/xlink"
   xmlns="http://www.w3.org/2000/svg"
   xmlns:svg="http://www.w3.org/2000/svg"
   xmlns:ffdec="https://www.free-decompiler.com/flash">
  <sodipodi:namedview
     id="namedview13"
     pagecolor="#ffffff"
     bordercolor="#000000"
     borderopacity="0.25"
     inkscape:showpageshadow="2"
     inkscape:pageopacity="0.0"
     inkscape:pagecheckerboard="0"
     inkscape:deskcolor="#d1d1d1"
     fit-margin-top="5"
     fit-margin-left="5"
     fit-margin-right="5"
     fit-margin-bottom="5" />
  <g
     transform="translate(44.2,37.55)"
     id="g3">
    <use
       ffdec:characterId="1279"
       height="51.299999"
       transform="translate(-33.4,-37.75)"
       width="65.599998"
       xlink:href="#sprite0"
       id="use1" />
    <use
       ffdec:characterId="1280"
       height="47.150002"
       transform="translate(-44.2,-9.35)"
       width="88.150002"
       xlink:href="#shape1"
       id="use2" />
    <use
       ffdec:characterId="44"
       height="8"
       transform="translate(-33.95,28.35)"
       width="10.8"
       xlink:href="#sprite1"
       id="use3" />
  </g>
  <defs
     id="defs13">
    <g
       id="sprite0"
       transform="translate(32.8,25.65)">
      <use
         ffdec:characterId="1278"
         height="51.299999"
         transform="translate(-32.8,-25.65)"
         width="65.599998"
         xlink:href="#shape0"
         id="use4" />
    </g>
    <g
       id="shape0"
       transform="translate(32.8,25.65)">
      <path
         d="m 0.45,-25.4 4.35,-0.05 11.85,0.65 q 11.15,1.3 13.5,11.1 l 1.55,7.4 q 1.1,6 1.1,8.5 0,1.55 -0.5,2.8 l -1.85,2.95 -3,2.7 q -2.2,1.75 -3.2,3.3 -0.75,1.1 -0.8,2.9 L 23.4,19.9 q -0.5,3.65 -6.3,5.3 H 9.45 7.95 l -0.6,0.25 -1.5,0.2 L 0,25.4 l -5.85,0.25 -1.5,-0.2 -0.6,-0.25 h -1.5 -7.65 q -5.8,-1.65 -6.3,-5.3 l -0.05,-3.05 q -0.05,-1.8 -0.8,-2.9 -1,-1.55 -3.2,-3.3 l -3,-2.7 L -32.3,5 q -0.5,-1.25 -0.5,-2.8 0,-2.5 1.1,-8.5 l 1.55,-7.4 q 2.35,-9.8 13.5,-11.1 l 11.85,-0.65 4.35,0.05 H 0 0.45 m 13.4,12.25 -0.6,0.55 -1.3,1.45 -0.1,0.05 -1.9,2.15 -0.1,0.1 -0.3,0.25 -0.05,-0.05 -0.4,-0.55 0.15,-0.7 0.45,-0.75 -0.9,0.3 -0.5,0.1 -2.5,0.55 -0.15,-0.15 1.05,-0.9 1.05,-0.45 0.4,-0.15 -0.25,-0.25 -0.2,-0.2 -0.05,-0.75 q 0,-1.65 1.8,-1.85 1.1,-0.15 1.5,0.7 l 0.25,1.4 0.15,-0.15 1.4,-1.05 q 1.3,-0.9 2.05,-0.6 l -0.95,0.95 m -13.45,2.8 h -1.65 l -0.6,-0.05 -1.2,-0.05 -0.6,-0.1 -0.05,-0.1 -0.05,-0.05 v -0.35 -0.3 l 4.85,0.1 0.2,0.3 -0.15,0.5 -0.75,0.1 m -6.75,-1.1 -0.4,0.4 H -8.3 L -8.95,-11.3 -9,-11.35 v 0.1 l -0.45,0.35 -0.5,0.35 -0.55,0.3 -1.05,0.4 h -0.3 -0.25 -0.3 -0.3 l -1.85,-0.2 -0.5,-0.25 -0.15,-0.15 -0.1,-0.3 q 1.25,0 3.25,-0.55 l 2.6,-0.7 -0.1,-0.35 q 0,-1.6 1.05,-2.05 h 1.6 q 1.1,-1.8 2.05,-2.05 l 0.25,0.15 0.1,0.4 q 0,0.25 -0.9,1.25 l -0.6,0.6 0.2,0.3 0.05,0.7 q 0,0.85 -0.6,1.6 m 14.75,-1.35 0.1,0.5 0.4,0.15 h 1.3 l -0.45,-0.8 -1.25,-0.3 -0.1,0.45 m 17.1,-4.95 -0.25,-0.6 -0.05,-0.1 q -0.75,-1.2 -2.15,-2 l -0.15,-0.1 -4.85,-1.3 Q 12.9,-23 9.75,-23 l -2.35,0.1 -1,0.05 H -6.4 l -1,-0.05 -1.3,-0.1 h -1.05 q -3.15,0 -8.3,1.15 l -4.85,1.3 -2,1.7 -0.35,0.5 -1.15,2.35 -0.2,0.35 -0.3,0.45 q -0.55,0.85 -1.7,6 l -0.05,0.35 -0.8,3.9 -0.2,1.7 -0.4,2.45 -0.35,2.85 q 0,1.95 3.15,5.15 4.15,4.2 5,5.65 0.65,1.05 0.7,2.7 l 0.05,2.7 q 0.35,3.15 4.55,4.65 L -11.75,23 0,23.1 11.75,23 l 5.2,-0.1 q 4.2,-1.5 4.55,-4.65 l 0.05,-2.7 q 0.05,-1.65 0.7,-2.7 0.85,-1.45 5,-5.65 Q 30.4,4 30.4,2.05 L 30.05,-0.8 29.65,-3.25 28.6,-9.2 q -1.15,-5.15 -1.7,-6 -0.65,-0.9 -1.4,-2.55 m -47.9,18.35 -0.8,-0.25 -0.1,-0.3 3.4,-0.9 2.95,-0.55 -0.1,-0.2 -0.35,-1.1 v -0.9 q 0.9,-0.35 1.25,0.7 l 0.5,1.35 0.05,-0.15 0.05,0.05 0.65,-1.35 1.35,-1.35 0.25,0.2 0.05,0.45 -0.7,1.35 -0.75,1.15 1.15,0.5 q 2.6,1.05 8.2,1.05 l 3.65,-0.5 h 0.1 l 0.1,-0.2 0.1,-0.1 1.35,-0.15 h 0.1 l 1.35,0.15 0.1,0.1 0.1,0.2 h 0.1 l 3.65,0.5 7.05,-0.65 q 0.3,-1.3 1.85,-1.1 L 15.5,-1 15.4,-1.75 q 0,-1.15 0.6,-2.3 l 1.25,-1.7 0.35,0.25 0.05,0.15 -0.8,1.5 H 16.8 l -0.5,1.25 v 0.05 l 0.25,1.25 q 0.3,0.75 1,1.55 l 1.05,0.9 2.25,1.7 V 2.9 l -0.2,0.45 -0.55,0.2 q -2.15,0 -3.5,-2.2 l -0.7,1.35 -1,1.6 H 14.7 L 14.6,4 q 0,-0.5 0.7,-1.7 L 14.05,2.55 Q 12.9,2.55 12.5,1.5 L 12.35,0.95 q -2.7,0.8 -7.1,0.8 L 0.9,1 0,0.75 -0.9,1 -5.25,1.75 -11.15,1.25 -13.9,0.35 -14,0.25 h -0.1 q -0.1,0.45 -0.5,0.75 -0.2,0.95 -1.2,2.6 -0.95,1.6 -1.9,2.1 l -1.15,0.35 -0.35,-0.1 -0.15,-0.15 q 0.5,-0.4 2.05,-2.7 l 1.05,-1.55 0.15,-0.2 Q -17.3,1.3 -17.7,0.7 L -17.8,0.35 -20.75,0.8 -22,0.7 -22.4,0.6 m 36,-0.85 -0.25,0.75 q 0.1,0.8 1.2,0.8 l 0.5,-0.4 0.1,-0.55 -0.8,-0.55 -0.75,-0.05 m -1.3,11.6 -0.75,0.45 q 0.45,0.4 0.5,1.2 v 0.2 0.25 l 3.35,0.4 q 2.95,0 4.3,-1.2 1.1,-0.95 2.65,-0.55 l -1.7,1.6 q -1.3,1.05 -2.2,1.05 h -4.7 l -1.9,-0.45 -0.1,0.3 q -0.5,0.95 -1.55,0.95 -0.75,0 -1.5,-0.65 L 8.35,14.55 8.05,14.2 6.6,14.45 4.85,14.1 4.35,13.7 4.2,13.45 4.25,13.1 4.55,12.95 4.6,12.9 5.2,13.15 H 6.4 Q 7.55,12.95 8.5,12 l 0.4,-0.4 0.65,-0.95 0.6,-1 0.25,-0.6 0.6,-0.9 0.15,-0.2 0.2,-0.15 V 8.1 L 11.1,9 l -0.15,0.5 -0.65,1.55 -0.1,0.1 0.2,-0.05 0.35,-0.15 1.35,-0.65 1.35,-1.3 0.7,-0.75 0.1,-0.1 0.2,0.2 0.15,0.4 q 0,0.75 -1.2,1.8 l -0.15,0.1 -0.6,0.4 -0.35,0.3 M 4.45,12 2.35,12.65 1.5,12.1 1.55,12.05 0,11.6 q -1.2,0.6 -4.2,0.6 l -1.7,-0.4 0.1,0.6 q 0,0.5 -0.3,0.85 l -1.05,1.1 H -8.5 L -8.75,14.3 q -2.25,3 -6.45,3.3 l -0.5,-0.15 3.5,-1.55 q 1.9,-0.75 2.85,-2 L -9.6,13.45 -9.65,12.5 v -0.15 l -0.95,0.3 q -2.3,0 -4.05,-0.6 l -1.6,-0.7 v -0.3 l 0.55,-0.15 3,0.7 h 0.15 q 2.15,-0.05 3.3,-0.9 l 0.5,-0.2 v 0.05 l 0.75,-1 0.9,-0.8 0.6,-0.3 0.65,-0.25 0.3,-0.1 q 0.1,-0.3 0.1,0.25 0,0.5 -1.3,1.65 l -0.65,0.55 0.2,0.1 V 10.5 l 0.5,-0.2 q 0.4,0 1.4,0.45 l 3.1,0.4 1.4,-0.2 -1.1,-1.15 0.1,-0.2 1.4,0.8 0.4,0.2 0.4,-0.2 1.4,-0.8 0.1,0.2 -1.05,1.15 1.35,0.2 h 1.2 l 0.45,-0.2 2.1,-0.85 0.3,0.05 0.1,0.2 v 0.15 q 0,0.45 -1.2,1.15 L 4.45,12 M 16.25,0.8 16.2,0.75 V 0.8 h 0.05 M 9.1,12.75 v 0.35 l 0.1,0.6 q 0.2,0.55 0.75,0.55 0.55,0 0.8,-0.5 l 0.15,-0.6 q 0,-0.4 -0.6,-0.75 L 9.2,12.75 H 9.1 m -17.7,-26.2 -0.1,0.5 0.2,0.6 0.85,0.2 q 0.7,0 0.85,-0.25 l 0.05,-0.65 -1.85,-0.4 m -8.35,13.4 0.6,0.45 1.2,-0.3 0.4,-0.3 -0.75,-0.8 q -0.3,0.3 -0.65,0.3 l -0.2,-0.05 -0.6,0.6 -0.1,0.05 0.1,0.05 m 8.55,11.95 -0.1,0.9 0.2,0.25 q 1,0.05 1.2,-0.3 l 0.15,-0.65 q -1.1,-0.75 -1.45,-0.2 m -7,1.95 3.85,-0.45 0.7,0.15 q -0.75,1.05 -2.9,1.2 h -4.7 q -0.9,0 -2.2,-1.05 l -1.7,-1.6 q 1.55,-0.4 2.65,0.55 1.35,1.2 4.3,1.2"
         fill="#9a9a9a"
         fill-rule="evenodd"
         stroke="none"
         id="path4" />
      <path
         d="m 9.25,-9.9 -0.45,-0.45 0.9,-0.3 -0.45,0.75 m 1.5,20.85 -0.35,0.15 0.25,-0.45 0.1,0.3"
         fill="#a0a0a0"
         fill-rule="evenodd"
         stroke="none"
         id="path5" />
      <path
         d="m 13.25,10.65 -0.95,0.7 0.35,-0.3 0.6,-0.4"
         fill="#a9a9a9"
         fill-rule="evenodd"
         stroke="none"
         id="path6" />
      <path
         d="m -15.05,-10.3 q -0.75,0.35 -0.75,1.6 0,1.75 2.3,3.45 3,2.25 8.35,2.25 1.55,0 4.75,-1.75 1.35,-0.75 2.15,-1.45 l 1.25,0.3 0.7,0.3 1.2,0.45 1.05,0.45 q 2.3,1 3.05,1 1.5,0 1.85,-1 2.2,-0.35 4.15,-2.2 2,-1.9 2.15,-3.45 1.8,-1 1.8,-1.8 0,-1.45 -1.5,-1.7 Q 16,-14.1 14.1,-13.3 l -0.25,0.15 0.95,-0.95 q -0.75,-0.3 -2.05,0.6 l -1.4,1.05 -0.15,0.15 -0.25,-1.4 q -0.4,-0.85 -1.5,-0.7 -1.8,0.2 -1.8,1.85 l 0.05,0.75 0.2,0.2 0.25,0.25 -0.4,0.15 -1.05,0.45 H 2.9 l -2.1,1.05 -0.4,-0.65 0.75,-0.1 0.15,-0.5 -0.2,-0.3 -4.85,-0.1 v 0.3 l -2.6,-0.4 q 0.6,-0.75 0.6,-1.6 l -0.05,-0.7 -0.2,-0.3 0.6,-0.6 q 0.9,-1 0.9,-1.25 l -0.1,-0.4 -0.25,-0.15 q -0.95,0.25 -2.05,2.05 h -1.6 q -1.05,0.45 -1.05,2.05 l 0.1,0.35 -2.6,0.7 q -2,0.55 -3.25,0.55 l 0.1,0.3 0.15,0.15 m -11.55,-5.35 0.45,1.25 q 0.95,1.95 3.35,1.95 h 0.05 l 1.35,0.25 q 3.85,0 6.85,-2.5 1.95,-1.6 2.3,-2.6 2,-0.75 3.35,-1.5 l 1.95,-0.6 q 1.05,-0.35 1.65,-0.65 l 3.75,-0.35 h 4.8 l 3.6,1.4 q 7.1,2.6 10.55,2.6 6.15,0 8.1,-1.35 0.75,1.65 1.4,2.55 0.55,0.85 1.7,6 l 1.05,5.95 0.4,2.45 0.35,2.85 q 0,1.95 -3.15,5.15 -4.15,4.2 -5,5.65 -0.65,1.05 -0.7,2.7 l -0.05,2.7 Q 21.15,21.4 16.95,22.9 L 11.75,23 0,23.1 -11.75,23 l -5.2,-0.1 q -4.2,-1.5 -4.55,-4.65 l -0.05,-2.7 q -0.05,-1.65 -0.7,-2.7 -0.85,-1.45 -5,-5.65 Q -30.4,4 -30.4,2.05 l 0.35,-2.85 0.4,-2.45 0.2,-1.7 0.25,0.5 q 0.55,0.8 1.5,1.1 l 0.2,0.1 q 0.95,0.55 3.15,0.55 3.15,0 4.75,-2.95 0.6,-1.05 0.85,-2 V -7.7 q 1.35,-1.35 1.35,-1.8 0,-1.65 -4.6,-1.65 h -0.35 l -1.05,-0.2 q -1.8,-0.15 -2.95,0.7 l -0.75,0.3 -0.55,0.35 -0.75,0.85 -0.25,0.3 0.05,-0.35 q 1.15,-5.15 1.7,-6 l 0.3,-0.45 M 17.6,-5.5 17.25,-5.75 16,-4.05 q -0.6,1.15 -0.6,2.3 L 15.5,-1 14.25,-1.4 Q 12.7,-1.6 12.4,-0.3 L 5.35,0.35 1.7,-0.15 H 1.6 L 1.5,-0.35 1.4,-0.45 0.05,-0.6 h -0.1 l -1.35,0.15 -0.1,0.1 -0.1,0.2 h -0.1 l -3.65,0.5 q -5.6,0 -8.2,-1.05 l -1.15,-0.5 0.75,-1.15 0.7,-1.35 -0.05,-0.45 -0.25,-0.2 -1.35,1.35 -0.65,1.35 -0.05,-0.05 -0.05,0.15 -0.5,-1.35 q -0.35,-1.05 -1.25,-0.7 v 0.9 l 0.35,1.1 0.1,0.2 -2.95,0.55 -3.4,0.9 0.1,0.3 0.8,0.25 q -1.2,0.5 -1.2,1.35 l 0.25,0.7 q 0.8,0.55 3.85,0.55 l 2.2,-0.1 q -1.55,2.3 -2.05,2.7 l 0.15,0.15 0.35,0.1 1.15,-0.35 v 0.2 q 0.25,0.75 1.15,0.75 1.95,0 3.85,-2.05 1.65,-1.75 1.65,-2.8 l -0.1,-0.55 5.9,0.5 L -0.9,1 0,0.75 0.9,1 5.25,1.75 q 4.4,0 7.1,-0.8 L 12.5,1.5 q 0.4,1.05 1.55,1.05 L 15.3,2.3 Q 14.6,3.5 14.6,4 l 0.1,0.3 h 0.2 l 1,-1.6 0.7,-1.35 q 1.35,2.2 3.5,2.2 l 0.55,-0.2 0.2,-0.45 V 2.85 l 0.1,-0.2 0.2,-0.8 q 0,-0.5 -1.2,-2.2 -1.2,-1.7 -1.2,-2.3 l 0.45,-1.15 0.4,-1 q 0,-1.65 -1.55,-0.3 -0.15,-0.55 -0.45,-0.4 m 10.1,-0.75 q 0,-2.25 -1.25,-3.8 -1.15,-1.45 -2.7,-1.6 -1.65,-0.2 -2.75,1.1 -1.25,1.45 -1.25,4.3 0,1.5 0.55,2.85 1,2.6 3.6,2.6 0.9,0 1.35,-0.7 l 0.3,-0.95 1.05,-1.35 q 1.1,-1.35 1.1,-2.45 m -23.15,19.2 -0.3,0.15 -0.05,0.35 0.15,0.25 0.5,0.4 1.75,0.35 1.45,-0.25 0.3,0.35 0.35,0.35 q 0.75,0.65 1.5,0.65 1.05,0 1.55,-0.95 l 0.1,-0.3 1.9,0.45 h 4.7 q 0.9,0 2.2,-1.05 l 1.7,-1.6 q -1.55,-0.4 -2.65,0.55 -1.35,1.2 -4.3,1.2 l -3.35,-0.4 V 13.2 13 Q 12,12.2 11.55,11.8 l 0.75,-0.45 0.95,-0.7 0.15,-0.1 q 1.2,-1.05 1.2,-1.8 l -0.15,-0.4 -0.2,-0.2 -0.1,0.1 L 14.1,8.1 13.5,8.25 q -0.6,0.2 -1.45,0.9 L 10.85,10.2 11.1,9.4 Q 11.5,9.15 11.5,8.45 L 11.35,8.1 V 7.8 L 11.15,7.95 9.5,7.1 7.5,6.45 q -4,-1.15 -4,-0.25 0,0.65 1.25,1.85 1.1,1 2.6,1.45 L 7.1,9.75 6.35,10.35 6.25,10.15 5.95,10.1 3.85,10.95 3.4,11.15 H 2.2 L 0.85,10.95 1.9,9.8 1.8,9.6 0.4,10.4 0,10.6 -0.4,10.4 -1.8,9.6 l -0.1,0.2 1.1,1.15 -1.4,0.2 -3.1,-0.4 q -1,-0.45 -1.4,-0.45 l -0.5,0.2 v 0.15 L -7.4,10.55 -6.75,10 q 1.3,-1.15 1.3,-1.65 0,-0.55 -0.1,-0.25 l -0.3,0.1 0.3,-0.4 0.5,-0.35 L -5,7.5 q 0.25,0.2 0.5,0.2 l 3,-0.5 Q 1.6,6.55 2.3,5.9 0.45,4.85 -2.2,5.6 l -0.6,0.2 q 0.75,-0.7 0.75,-1.1 0,-1.9 -10.6,4.45 l -0.9,-0.3 -1.1,-0.4 -0.45,0.15 -0.2,0.25 0.4,1.8 q 0.6,0.7 2.35,0.95 h -0.15 l -3,-0.7 -0.55,0.15 v 0.3 l 1.6,0.7 q 1.75,0.6 4.05,0.6 l 0.95,-0.3 v 0.15 l 0.05,0.95 0.25,0.45 q -0.95,1.25 -2.85,2 l -3.5,1.55 0.5,0.15 q 4.2,-0.3 6.45,-3.3 l 0.25,0.05 h 1.35 l 1.05,-1.1 q 0.3,-0.35 0.3,-0.85 l -0.1,-0.6 1.7,0.4 q 3,0 4.2,-0.6 L 1.55,12.05 1.5,12.1 2.35,12.65 4.45,12 v 0.25 q -0.1,0.35 0.1,0.65 v 0.05 m -19.95,0.9 q -2.95,0 -4.3,-1.2 -1.1,-0.95 -2.65,-0.55 l 1.7,1.6 q 1.3,1.05 2.2,1.05 h 4.7 q 2.15,-0.15 2.9,-1.2 l -0.7,-0.15 -3.85,0.45"
         fill="#b1a8a8"
         fill-rule="evenodd"
         stroke="none"
         id="path7" />
      <path
         d="m 13.85,-13.15 0.25,-0.15 q 1.9,-0.8 3.35,-0.55 1.5,0.25 1.5,1.7 0,0.8 -1.8,1.8 Q 17,-8.8 15,-6.9 q -1.95,1.85 -4.15,2.2 -0.35,1 -1.85,1 -0.75,0 -3.05,-1 L 4.9,-5.15 3.7,-5.6 3,-5.9 1.75,-6.2 Q 0.95,-5.5 -0.4,-4.75 -3.6,-3 -5.15,-3 q -5.35,0 -8.35,-2.25 -2.3,-1.7 -2.3,-3.45 0,-1.25 0.75,-1.6 l 0.5,0.25 1.85,0.2 h 0.3 0.3 0.25 0.3 l 1.05,-0.4 0.55,-0.3 0.5,-0.35 0.45,-0.35 0.05,-0.05 0.65,0.25 h 1.55 l 0.4,-0.4 2.6,0.4 v 0.35 l 0.05,0.05 0.05,0.1 0.6,0.1 1.2,0.05 0.6,0.05 H 0.4 l 0.4,0.65 2.1,-1.05 h 3.8 l -1.05,0.9 0.15,0.15 2.5,-0.55 0.5,-0.1 0.45,0.45 -0.15,0.7 0.4,0.55 0.05,0.05 0.3,-0.25 0.1,-0.1 1.9,-2.15 0.1,-0.05 1.3,-1.45 0.6,-0.55 m -40.45,-2.5 0.2,-0.35 1.15,-2.35 0.35,-0.5 2,-1.7 4.85,-1.3 Q -12.9,-23 -9.75,-23 h 1.05 l 1.3,0.1 1,0.05 H 6.4 l 1,-0.05 2.35,-0.1 q 3.15,0 8.3,1.15 l 4.85,1.3 0.15,0.1 q 1.4,0.8 2.15,2 l 0.05,0.1 0.25,0.6 q -1.95,1.35 -8.1,1.35 -3.45,0 -10.55,-2.6 l -3.6,-1.4 h -4.8 l -3.75,0.35 q -0.6,0.3 -1.65,0.65 l -1.95,0.6 q -1.35,0.75 -3.35,1.5 -0.35,1 -2.3,2.6 -3,2.5 -6.85,2.5 l -1.35,-0.25 h -0.05 q -2.4,0 -3.35,-1.95 l -0.45,-1.25 m 35,2.85 0.1,-0.45 1.25,0.3 0.45,0.8 H 8.9 L 8.5,-12.3 8.4,-12.8 m -37.85,7.85 0.8,-3.9 0.25,-0.3 0.75,-0.85 0.55,-0.35 0.75,-0.3 q 1.15,-0.85 2.95,-0.7 l 1.05,0.2 H -22 q 4.6,0 4.6,1.65 0,0.45 -1.35,1.8 v 0.05 q -0.25,0.95 -0.85,2 -1.6,2.95 -4.75,2.95 -2.2,0 -3.15,-0.55 l -0.2,-0.1 q -0.95,-0.3 -1.5,-1.1 l -0.25,-0.5 M 17.6,-5.5 q 0.3,-0.15 0.45,0.4 1.55,-1.35 1.55,0.3 l -0.4,1 -0.45,1.15 q 0,0.6 1.2,2.3 1.2,1.7 1.2,2.2 l -0.2,0.8 -0.1,0.2 -2.25,-1.7 -1.05,-0.9 q -0.7,-0.8 -1,-1.55 L 16.3,-2.55 V -2.6 l 0.5,-1.25 h 0.05 l 0.8,-1.5 -0.05,-0.15 m -28.75,6.75 0.1,0.55 q 0,1.05 -1.65,2.8 -1.9,2.05 -3.85,2.05 -0.9,0 -1.15,-0.75 V 5.7 q 0.95,-0.5 1.9,-2.1 1,-1.65 1.2,-2.6 0.4,-0.3 0.5,-0.75 h 0.1 l 0.1,0.1 2.75,0.9 m -6.15,1.85 -2.2,0.1 q -3.05,0 -3.85,-0.55 l -0.25,-0.7 q 0,-0.85 1.2,-1.35 l 0.4,0.1 1.25,0.1 2.95,-0.45 0.1,0.35 q 0.4,0.6 1.6,0.65 l -0.15,0.2 -1.05,1.55 m 30.9,-3.35 0.75,0.05 0.8,0.55 -0.1,0.55 -0.5,0.4 q -1.1,0 -1.2,-0.8 l 0.25,-0.75 m 14.1,-6 q 0,1.1 -1.1,2.45 l -1.05,1.35 -0.3,0.95 q -0.45,0.7 -1.35,0.7 -2.6,0 -3.6,-2.6 -0.55,-1.35 -0.55,-2.85 0,-2.85 1.25,-4.3 1.1,-1.3 2.75,-1.1 1.55,0.15 2.7,1.6 1.25,1.55 1.25,3.8 M 4.55,12.95 V 12.9 Q 4.35,12.6 4.45,12.25 V 12 l 0.7,-0.35 q 1.2,-0.7 1.2,-1.15 V 10.35 L 7.1,9.75 7.35,9.5 Q 5.85,9.05 4.75,8.05 3.5,6.85 3.5,6.2 q 0,-0.9 4,0.25 l 2,0.65 1.65,0.85 -0.15,0.2 -0.6,0.9 -0.25,0.6 -0.6,1 L 8.9,11.6 8.5,12 Q 7.55,12.95 6.4,13.15 H 5.2 L 4.6,12.9 4.55,12.95 m -17.1,-1.35 q -1.75,-0.25 -2.35,-0.95 l -0.4,-1.8 0.2,-0.25 0.45,-0.15 1.1,0.4 0.9,0.3 q 10.6,-6.35 10.6,-4.45 0,0.4 -0.75,1.1 L -2.2,5.6 Q 0.45,4.85 2.3,5.9 1.6,6.55 -1.5,7.2 l -3,0.5 Q -4.75,7.7 -5,7.5 l -0.05,-0.05 -0.5,0.35 -0.3,0.4 -0.65,0.25 -0.6,0.3 -0.9,0.8 -0.75,1 V 10.5 l -0.5,0.2 q -1.15,0.85 -3.3,0.9 m 23.9,-3.5 0.15,0.35 q 0,0.7 -0.4,0.95 l -0.25,0.8 1.2,-1.05 q 0.85,-0.7 1.45,-0.9 l 0.6,-0.15 0.05,0.15 -0.7,0.75 -1.35,1.3 -1.35,0.65 -0.1,-0.3 -0.25,0.45 -0.2,0.05 0.1,-0.1 L 10.95,9.5 11.1,9 11.35,8.1 M 9.1,12.75 h 0.1 l 1.1,-0.35 q 0.6,0.35 0.6,0.75 l -0.15,0.6 q -0.25,0.5 -0.8,0.5 -0.55,0 -0.75,-0.55 L 9.1,13.1 v -0.35 m -26.05,-12.8 -0.1,-0.05 0.1,-0.05 0.6,-0.6 0.2,0.05 q 0.35,0 0.65,-0.3 l 0.75,0.8 -0.4,0.3 -1.2,0.3 -0.6,-0.45 m 8.35,-13.4 1.85,0.4 -0.05,0.65 q -0.15,0.25 -0.85,0.25 l -0.85,-0.2 -0.2,-0.6 0.1,-0.5 m 0.2,25.35 q 0.35,-0.55 1.45,0.2 l -0.15,0.65 q -0.2,0.35 -1.2,0.3 l -0.2,-0.25 0.1,-0.9"
         fill="#bbb1b1"
         fill-rule="evenodd"
         stroke="none"
         id="path8" />
    </g>
    <g
       id="shape1"
       transform="translate(44.2,9.35)">
      <path
         d="m -24.1,-0.85 -0.85,-1.75 q -2.45,-4.35 -9,-4.35 -4.2,0 -6.25,4.15 -1.35,2.55 -1.35,4.6 0,1.1 0.45,1.9 l 0.75,0.95 2.7,1.25 q 1.8,0.7 2.6,1.5 h 0.1 l 2.05,-0.35 1.15,-0.7 0.4,-0.45 h -0.05 l -2.7,-0.5 q -1.2,-0.5 -1.85,-1.6 l -0.1,-0.1 q -0.7,-1.05 -0.7,-2.1 0,-4.4 4.4,-4.6 1.8,-0.1 3.65,0.8 1.85,0.85 2.25,2.05 l 0.2,0.5 q 1.15,2.3 1.35,7.8 V 8.5 8.7 8.9 9.65 l -0.05,0.75 1.7,-0.05 q 0.5,-7.15 -0.85,-11.2 m -9.45,-0.75 q -1.2,0.85 -1.6,1.7 l -0.15,1.45 q 0,1.2 0.55,1.75 1.15,1.05 4.8,1.3 l 0.1,0.1 0.1,0.2 0.2,0.15 0.1,0.8 0.05,1.3 0.15,2 -0.1,1.05 -0.05,0.2 h 3.2 0.35 l -0.2,-1.9 V 8.35 L -26.1,7.9 q -0.2,-3.05 -0.7,-6 l -0.05,-0.4 q -0.75,-2.6 -4.3,-3.1 h -2.4 M 22.3,-3.1 q 0.85,-1.7 2.2,-3 3.3,-3.1 7.95,-3.25 4.7,-0.15 7.9,2.9 3.6,3.35 3.6,9.4 0,1.1 -1.45,2.8 -1.5,1.75 -3,2.4 L 36.95,9.1 q -0.9,0.35 -1,1.1 v 1.3 l -0.1,0.6 q 1.1,1 1.5,2.65 0.35,1.2 0.35,5.15 l -0.9,2.9 q -0.8,1.5 -2,2.25 2.8,3.2 2.8,8.35 v 2.25 q -0.25,2.15 -1.55,2.15 h -72.4 q -1.3,0 -1.5,-2.15 V 33.4 q 0,-5.15 2.75,-8.35 -1.2,-0.75 -1.95,-2.25 l -0.9,-2.9 q 0,-3.95 0.3,-5.15 0.45,-1.65 1.55,-2.65 l -0.15,-0.6 v -1.3 q -0.1,-0.75 -0.95,-1.1 l -2.5,-0.95 q -1.55,-0.65 -3.1,-2.4 l -1.15,-1.8 -0.25,-1 0.25,-2.85 q 0.6,-4.05 3.3,-6.55 3.25,-3.05 7.95,-2.9 4.65,0.15 7.95,3.25 l 1.3,1.55 q 0.95,1.2 1.45,2.7 0.8,2.1 0.8,4.75 l -0.1,1.65 q 0.3,0.7 0.3,2.05 v 1.7 l 1.1,-0.55 Q -15.35,5.6 -8.4,6.45 H 8.15 q 6.95,-0.85 11.5,1.3 l 1.1,0.55 V 6.6 q 0,-1.35 0.3,-2.05 L 20.95,2.9 V 1.8 Q 21.2,-1 22.3,-3.1 m 1,4.75 q -0.7,3.5 -0.35,8.7 L 24.7,10.4 24.65,9.65 V 8.9 8.7 8.5 8.15 Q 24.8,2.65 26,0.35 l 0.15,-0.5 q 0.45,-1.2 2.3,-2.05 1.9,-0.9 3.65,-0.8 l 0.8,0.1 0.15,-2.1 v -0.25 h 0.3 V -5 l 0.35,2.2 v 0.1 l 0.75,0.25 1.35,-0.9 0.3,0.05 0.1,0.4 q 0,0.65 -1.05,0.9 1.35,1.15 1.35,3.6 L 36.4,2.3 35.75,3.8 Q 34.3,5.9 31.1,5.9 h -0.05 l 0.4,0.4 0.05,0.05 1.3,0.7 1.95,0.35 0.9,-0.7 q 0.7,-0.4 1.7,-0.8 2.1,-0.7 2.7,-1.25 1.1,-0.85 1.2,-2.55 V 1.8 q 0,-2.05 -1.3,-4.6 -2.05,-4.15 -6.3,-4.15 -6.5,0 -8.95,4.35 -1,1.7 -1.4,4.25 m 10,-3.25 h -2.4 q -3.6,0.5 -4.3,3.1 v 0.4 q -0.55,2.95 -0.75,6 L 25.8,8.35 V 8.5 l -0.25,1.9 h 0.4 3 0.2 Q 29,9.85 29,9.15 L 29.1,8 29.2,5.85 29.3,5.05 29.5,4.9 29.6,4.7 29.7,4.6 Q 33.35,4.35 34.5,3.3 35.1,2.75 35.1,1.55 L 34.85,0.1 Q 34.55,-0.75 33.3,-1.6 M -34.8,20 q 0.4,1.1 1.35,2.2 l 1.45,1.95 1.95,-0.05 h 6.35 l -0.15,-0.2 -0.7,-1.6 0.05,-0.45 0.1,-0.35 h 0.25 q 0,0.55 1.2,1.75 l 0.75,0.9 6.7,0.05 0.45,-1.55 0.8,-1.6 q 0.4,0.1 0.4,0.6 l -0.65,1.75 -0.35,0.8 h 0.15 l 0.4,-0.45 q 0.55,-0.6 1.4,-0.75 l 0.1,0.05 v 0.3 l -0.45,0.85 h 26.2 L 12.6,23.35 v -0.3 L 12.65,23 q 0.8,0.15 1.45,0.75 l 0.3,0.45 h 0.2 l -0.4,-0.8 -0.6,-1.75 q 0,-0.5 0.4,-0.6 l 0.75,1.6 0.55,1.55 6.6,-0.05 0.85,-0.9 q 1.15,-1.2 1.15,-1.75 h 0.2 l 0.1,0.35 0.05,0.45 -0.7,1.6 -0.1,0.2 h 6.35 l 1.9,0.05 1.5,-1.95 q 1.9,-2.25 1.9,-4.25 L 35.05,17.1 34.7,15.1 34.2,14 34.1,13.7 33.85,13.4 33.3,12.85 33.05,12.75 H 30 7.35 L 7.6,13.2 8.1,14.85 V 15.1 L 8.05,15.15 7.65,15.35 7.55,15.1 7,13.65 6.7,12.85 6.3,15.1 H 6.1 L 6,14.55 6.1,12.75 h -36.4 l -1.5,0.1 h -0.6 -0.2 -0.25 l -0.35,-0.1 h -0.1 l -0.25,0.1 v 0.05 l -0.55,0.5 -0.2,0.3 -0.4,0.75 -0.05,0.35 -0.4,1.1 -0.1,0.5 -0.05,1.55 v 0.9 L -34.8,20 M 31.45,8.45 30.5,7.6 l 0.1,2.15 -0.05,0.6 3.05,0.2 0.05,-0.95 q -1.1,-0.15 -2.2,-1.15 m 2.5,0.4 0.2,-0.65 q -1.35,-0.15 -2.7,-1 l -0.2,-0.05 0.2,0.25 q 1.1,1.25 2.5,1.45 m -18,1.45 h 4.6 L 19.1,9.25 Q 15.95,7.65 7.9,8.15 h -9.75 -0.9 -5.45 q -8,-0.5 -11.2,1.1 -0.6,0.3 -1.4,1.05 h 3.25 l 15.25,0.05 h 2.15 0.55 1.65 0.3 l 13.6,-0.05 m 2.1,19.85 Q 17.1,30.05 17.1,30.9 l 0.1,0.65 0.7,0.1 q 1.15,-0.25 1.15,-0.65 0,-0.8 -1,-0.85 m -16.1,-0.7 0.1,1.1 q 0,2.15 -1.65,2.2 L 0.05,32.7 -0.9,32.45 q -0.05,0.4 -0.55,0.7 L -1.6,31.75 -2,30.25 Q -2.35,29.55 -3.1,29.1 L -3,29.05 -1.7,29 l 0.3,0.4 0.3,-0.15 0.8,-0.25 0.7,-0.1 0.3,-0.05 0.45,0.1 0.3,-0.5 Q 2,27.7 2.65,27.95 L 2.8,28.25 2.2,29 2.1,29.25 1.95,29.45 m 14.75,-0.3 q 0.5,-0.4 1.3,-0.3 l 1.05,0.35 q 1,0.6 1,2.4 0,0.35 -0.95,0.75 l -1.75,0.35 q -1,0 -1.25,-0.6 -0.15,-0.25 -0.15,-1.1 0,-1.35 0.75,-1.85 M 0.95,30.7 0.85,30 0.15,29.9 q -1.05,0.25 -1.1,0.55 l 0.05,0.6 q 0.25,0.35 0.85,0.4 H 0.4 Q 0.95,31.35 0.95,30.7 M -33.3,27.2 q -1.1,1.8 -1.65,3.9 v 4.1 l 35.7,0.25 h 1.3 L 34.7,35.2 V 31.1 Q 34.1,28.9 33.05,27.05 L 32.95,27 32.1,25.5 V 25.45 L 32,25.5 29.8,25.6 h -3.75 l 0.2,1.2 v 0.5 L 26.2,27.8 H 25.9 L 25.7,27.3 25.15,25.6 -8,25.55 l -0.45,0.6 q -0.4,0.6 -0.15,0.9 v 0.15 l -0.6,0.1 -0.15,-0.55 q 0,-0.6 0.4,-1.2 l -21.1,0.05 -2.3,-0.15 -0.85,1.55 -0.1,0.2 m 1.65,-18.75 q -1.2,1 -2.3,1.15 l 0.1,0.95 3,-0.2 -0.05,-0.6 0.1,-2.15 -0.85,0.85 m 0.1,-1.3 -0.1,0.05 q -1.4,0.85 -2.8,1 l 0.25,0.65 q 1.35,-0.2 2.55,-1.45 l 0.1,-0.25 m 15.9,23.2 0.3,-0.15 -0.2,0.5 -0.7,1.4 -0.15,0.3 -0.85,1.3 -0.3,-0.65 V 32.7 h -0.05 l -0.85,-0.1 -0.95,-0.25 q -0.9,-0.4 -0.9,-0.75 0,-1.9 1.1,-2.5 l 0.9,-0.25 q 1.05,-0.1 1.55,0.45 0.4,0.45 0.5,1.4 l 0.6,-0.35 m -2.7,-0.2 q -1,0.05 -1,0.85 0,0.4 1.2,0.65 l 0.7,-0.1 0.1,-0.65 q 0,-0.85 -1,-0.75"
         fill="#6b6b6b"
         fill-rule="evenodd"
         stroke="none"
         id="path9" />
      <path
         d="M 22.3,-3.1 Q 21.2,-1 20.95,1.8 V 1.65 q 0,-2.65 1.35,-4.75"
         fill="#939393"
         fill-rule="evenodd"
         stroke="none"
         id="path10" />
      <path
         d="m -41.1,3.7 q 0.65,-0.1 0.95,-1.2 l 0.85,-2.75 q 1.55,-3.95 7.2,-3.95 4.35,0 6.15,1.65 l 1.5,1.5 0.35,0.2 q 1.35,4.05 0.85,11.2 l -1.7,0.05 0.05,-0.75 V 8.9 8.7 8.5 8.15 q -0.2,-5.5 -1.35,-7.8 l -0.2,-0.5 q -0.4,-1.2 -2.25,-2.05 -1.85,-0.9 -3.65,-0.8 -4.4,0.2 -4.4,4.6 0,1.05 0.7,2.1 l -0.25,0.4 q 0,0.55 1.15,1.65 l 0.55,0.5 q 0.8,0.6 1.7,0.8 l -2.05,0.35 h -0.1 q -0.8,-0.8 -2.6,-1.5 L -40.35,4.65 -41.1,3.7 m 7.55,-5.3 h 2.4 q 3.55,0.5 4.3,3.1 l 0.05,0.4 q 0.5,2.95 0.7,6 l 0.05,0.45 V 8.5 l 0.2,1.9 h -0.35 -3.2 l 0.05,-0.2 0.1,-1.05 -0.15,-2 -0.05,-1.3 -0.1,-0.8 -0.2,-0.15 -0.1,-0.2 -0.1,-0.1 Q -33.6,4.35 -34.75,3.3 -35.3,2.75 -35.3,1.55 l 0.15,-1.45 q 0.4,-0.85 1.6,-1.7 M 33.05,-5 32.9,-2.9 32.1,-3 q -1.75,-0.1 -3.65,0.8 -1.85,0.85 -2.3,2.05 L 26,0.35 q -1.2,2.3 -1.35,7.8 V 8.5 8.7 8.9 9.65 L 24.7,10.4 22.95,10.35 Q 22.6,5.15 23.3,1.65 l 0.55,-0.8 2.1,-2.85 q 2.55,-2.9 7.1,-3 m 8.2,7.1 q -0.1,1.7 -1.2,2.55 -0.6,0.55 -2.7,1.25 -1,0.4 -1.7,0.8 L 34.75,7.4 32.8,7.05 h 0.1 q 1.35,0 2.3,-1 L 35.85,4.95 36.6,2.2 36.4,2.3 36.5,1.6 q 0,-2.45 -1.35,-3.6 1.05,-0.25 1.05,-0.9 L 36.1,-3.3 35.8,-3.35 34.45,-2.45 33.7,-2.7 V -2.8 L 33.35,-5 h 0.15 q 4.65,0 6,3.55 l 0.7,2.4 q 0.35,1.15 0.95,1.15 h 0.1 M 33.3,-1.6 q 1.25,0.85 1.55,1.7 l 0.25,1.45 q 0,1.2 -0.6,1.75 -1.15,1.05 -4.8,1.3 L 29.6,4.7 29.5,4.9 29.3,5.05 29.2,5.85 29.1,8 29,9.15 q 0,0.7 0.15,1.25 h -0.2 -3 -0.4 L 25.8,8.5 V 8.35 L 25.85,7.9 q 0.2,-3.05 0.75,-6 V 1.5 q 0.7,-2.6 4.3,-3.1 h 2.4 m 0.65,10.45 q -1.4,-0.2 -2.5,-1.45 l -0.2,-0.25 0.2,0.05 q 1.35,0.85 2.7,1 l -0.2,0.65 m -2.5,-0.4 q 1.1,1 2.2,1.15 l -0.05,0.95 -3.05,-0.2 0.05,-0.6 -0.1,-2.15 0.95,0.85 m 3.6,8.65 0.05,0.85 q 0,2 -1.9,4.25 l -1.5,1.95 -1.9,-0.05 h -6.35 l 0.1,-0.2 0.7,-1.6 -0.05,-0.45 -0.1,-0.35 h -0.2 q 0,0.55 -1.15,1.75 L 21.9,24.15 15.3,24.2 14.75,22.65 14,21.05 q -0.4,0.1 -0.4,0.6 l 0.6,1.75 0.4,0.8 H 14.4 L 14.1,23.75 Q 13.45,23.15 12.65,23 l -0.05,0.05 v 0.3 l 0.35,0.85 h -26.2 l 0.45,-0.85 v -0.3 L -12.9,23 q -0.85,0.15 -1.4,0.75 l -0.4,0.45 h -0.15 l 0.35,-0.8 0.65,-1.75 q 0,-0.5 -0.4,-0.6 l -0.8,1.6 -0.45,1.55 -6.7,-0.05 -0.75,-0.9 q -1.2,-1.2 -1.2,-1.75 h -0.25 l -0.1,0.35 -0.05,0.45 0.7,1.6 0.15,0.2 h -6.35 L -32,24.15 -33.45,22.2 Q -34.4,21.1 -34.8,20 l 0.15,-1.3 0.15,-1.1 1.15,-1.65 0.75,-1.1 4.95,0.25 H 6.1 6.3 7.55 l 0.1,0.25 0.4,-0.2 0.05,-0.05 h 25.15 l 0.95,1 0.85,1 m -52.6,-6.8 0.3,-0.05 L -15.2,9.8 -3.6,9.9 0.4,9.8 7,9.5 h 6 l 2.95,0.8 -13.6,0.05 H 2.05 0.4 -0.15 -2.3 L -17.55,10.3 M 16.7,29.15 q -0.75,0.5 -0.75,1.85 0,0.85 0.15,1.1 0.25,0.6 1.25,0.6 l 1.75,-0.35 q 0.95,-0.4 0.95,-0.75 0,-1.8 -1,-2.4 L 18,28.85 q -0.8,-0.1 -1.3,0.3 M 1.95,29.45 2.1,29.25 2.2,29 2.8,28.25 2.65,27.95 Q 2,27.7 1.45,28.45 L 1.15,28.95 0.7,28.85 0.4,28.9 -0.3,29 -1.1,29.25 -1.4,29.4 -1.7,29 -3,29.05 -3.1,29.1 q 0.75,0.45 1.1,1.15 l 0.4,1.5 0.15,1.4 q 0.5,-0.3 0.55,-0.7 l 0.95,0.25 0.35,0.05 q 1.65,-0.05 1.65,-2.2 l -0.1,-1.1 m 31.1,-2.4 q 1.05,1.85 1.65,4.05 v 4.1 L 2.05,35.45 h -1.3 l -35.7,-0.25 v -4.1 q 0.55,-2.1 1.65,-3.9 l 0.7,0.3 h 46.4 l 11.9,-0.2 0.2,0.5 h 0.3 l 0.05,-0.5 5.75,-0.15 1.05,-0.1 m -64.6,-19.9 -0.1,0.25 q -1.2,1.25 -2.55,1.45 L -34.45,8.2 q 1.4,-0.15 2.8,-1 l 0.1,-0.05 m -0.1,1.3 0.85,-0.85 -0.1,2.15 0.05,0.6 -3,0.2 -0.1,-0.95 q 1.1,-0.15 2.3,-1.15 m 16,21.9 -0.6,0.35 q -0.1,-0.95 -0.5,-1.4 -0.5,-0.55 -1.55,-0.45 l -0.9,0.25 q -1.1,0.6 -1.1,2.5 0,0.35 0.9,0.75 l 0.95,0.25 0.85,0.1 h 0.05 v 0.35 l 0.3,0.65 0.85,-1.3 0.15,-0.3 0.7,-1.4 0.2,-0.5 -0.3,0.15"
         fill="#a78f8f"
         fill-rule="evenodd"
         stroke="none"
         id="path11" />
      <path
         d="m -24.1,-0.85 -0.35,-0.2 -1.5,-1.5 q -1.8,-1.65 -6.15,-1.65 -5.65,0 -7.2,3.95 l -0.85,2.75 q -0.3,1.1 -0.95,1.2 -0.45,-0.8 -0.45,-1.9 0,-2.05 1.35,-4.6 2.05,-4.15 6.25,-4.15 6.55,0 9,4.35 l 0.85,1.75 m -8.8,7.9 q -0.9,-0.2 -1.7,-0.8 l -0.55,-0.5 Q -36.3,4.65 -36.3,4.1 l 0.25,-0.4 0.1,0.1 q 0.65,1.1 1.85,1.6 l 2.7,0.5 h 0.05 l -0.4,0.45 -1.15,0.7 m 56.2,-5.4 q 0.4,-2.55 1.4,-4.25 2.45,-4.35 8.95,-4.35 4.25,0 6.3,4.15 1.3,2.55 1.3,4.6 v 0.3 h -0.1 q -0.6,0 -0.95,-1.15 l -0.7,-2.4 Q 38.15,-5 33.5,-5 h -0.15 v -0.25 h -0.3 V -5 q -4.55,0.1 -7.1,3 l -2.1,2.85 -0.55,0.8 m 9.5,5.4 -1.3,-0.7 -0.05,-0.05 -0.4,-0.4 h 0.05 q 3.2,0 4.65,-2.1 L 36.4,2.3 36.6,2.2 35.85,4.95 35.2,6.05 q -0.95,1 -2.3,1 H 32.8 M -34.8,20 -35.3,18.85 v -0.9 l 0.05,-1.55 0.1,-0.5 0.4,-1.1 0.05,-0.35 0.4,-0.75 0.2,-0.3 0.55,-0.5 v -0.05 l 0.25,-0.1 h 0.1 l 0.35,0.1 h 0.25 0.2 0.6 l 1.5,-0.1 H 6.1 L 6,14.55 6.1,15.1 h -33.75 l -4.95,-0.25 -0.75,1.1 -1.15,1.65 -0.15,1.1 -0.15,1.3 M 6.3,15.1 6.7,12.85 7,13.65 7.55,15.1 H 6.3 m 1.8,0 V 14.85 L 7.6,13.2 7.35,12.75 H 30 33.05 l 0.25,0.1 0.55,0.55 0.25,0.3 0.1,0.3 0.5,1.1 0.35,2 -0.85,-1 -0.95,-1 H 8.1 M 15.95,10.3 13,9.5 H 7 l -6.6,0.3 -4,0.1 -11.6,-0.1 -2.05,0.45 -0.3,0.05 h -3.25 q 0.8,-0.75 1.4,-1.05 3.2,-1.6 11.2,-1.1 h 5.45 0.9 9.75 q 8.05,-0.5 11.2,1.1 l 1.45,1.05 h -4.6 m 2.1,19.85 q 1,0.05 1,0.85 0,0.4 -1.15,0.65 l -0.7,-0.1 -0.1,-0.65 q 0,-0.85 0.95,-0.75 M 0.95,30.7 q 0,0.65 -0.55,0.75 h -0.45 q -0.6,-0.05 -0.85,-0.4 l -0.05,-0.6 q 0.05,-0.3 1.1,-0.55 l 0.7,0.1 0.1,0.7 m 32.1,-3.65 -1.05,0.1 -5.75,0.15 v -0.5 l -0.2,-1.2 H 29.8 L 32,25.5 h 0.1 l 0.85,1.5 0.1,0.05 M 25.7,27.3 13.8,27.5 h -46.4 l -0.7,-0.3 0.1,-0.2 0.85,-1.55 2.3,0.15 21.1,-0.05 q -0.4,0.6 -0.4,1.2 l 0.15,0.55 0.6,-0.1 v -0.15 q -0.25,-0.3 0.15,-0.9 l 0.45,-0.6 33.15,0.05 0.55,1.7 m -44.05,2.85 q 1,-0.1 1,0.75 l -0.1,0.65 -0.7,0.1 q -1.2,-0.25 -1.2,-0.65 0,-0.8 1,-0.85"
         fill="#c3a7a7"
         fill-rule="evenodd"
         stroke="none"
         id="path12" />
    </g>
    <g
       id="sprite1"
       transform="translate(5.4,4)">
      <use
         ffdec:characterId="43"
         height="8"
         transform="translate(-5.4,-4)"
         width="10.8"
         xlink:href="#shape2"
         id="use12" />
    </g>
    <g
       id="shape2"
       transform="translate(5.4,4)">
      <path
         d="m 2.9,-0.35 q 0,-1.25 1.25,-1.25 1.25,0 1.25,1.2 0,1.3 -1.25,1.3 Q 3.6,0.9 3.25,0.5 2.9,0.15 2.9,-0.35 m 0.35,-2.3 q 0,0.55 -0.35,0.9 -0.4,0.45 -1,0.45 -1.35,0 -1.35,-1.4 0,-1.3 1.35,-1.3 1.35,0 1.35,1.35 m -3.1,1.9 h 0.2 q 2.6,0.1 2.6,2.8 l -0.3,1 Q 2.05,4 0.45,4 H 0.35 0.15 0.1 -0.45 q -1.6,0 -2.2,-0.95 l -0.3,-1 q 0,-2.8 2.8,-2.8 h 0.3 M -1.55,-4 q 1.35,0 1.35,1.35 0,0.55 -0.4,0.9 -0.4,0.45 -0.95,0.45 -1.4,0 -1.4,-1.4 0,-1.3 1.4,-1.3 m -2.6,2.4 q 1.25,0 1.25,1.25 0,0.5 -0.35,0.85 -0.35,0.4 -0.9,0.4 -1.25,0 -1.25,-1.3 0,-1.2 1.25,-1.2"
         fill="#6b6b6b"
         fill-rule="evenodd"
         stroke="none"
         id="path13" />
    </g>
  </defs>
</svg>
