<?xml version="1.0" encoding="UTF-8" standalone="no"?>
<svg
   ffdec:objectType="frame"
   height="41.150326"
   width="28.950222"
   version="1.1"
   id="svg12"
   sodipodi:docname="2.svg"
   xmlns:inkscape="http://www.inkscape.org/namespaces/inkscape"
   xmlns:sodipodi="http://sodipodi.sourceforge.net/DTD/sodipodi-0.dtd"
   xmlns:xlink="http://www.w3.org/1999/xlink"
   xmlns="http://www.w3.org/2000/svg"
   xmlns:svg="http://www.w3.org/2000/svg"
   xmlns:ffdec="https://www.free-decompiler.com/flash">
  <sodipodi:namedview
     id="namedview12"
     pagecolor="#ffffff"
     bordercolor="#000000"
     borderopacity="0.25"
     inkscape:showpageshadow="2"
     inkscape:pageopacity="0.0"
     inkscape:pagecheckerboard="0"
     inkscape:deskcolor="#d1d1d1"
     fit-margin-top="5"
     fit-margin-left="5"
     fit-margin-right="5"
     fit-margin-bottom="5" />
  <g
     transform="translate(15.7,25.150326)"
     id="g4">
    <use
       ffdec:characterId="2056"
       height="32.049999"
       transform="translate(-15.7,-16.05)"
       width="27"
       xlink:href="#shape0"
       id="use1" />
    <use
       ffdec:characterId="1691"
       height="8"
       transform="matrix(-0.6945,0.1387,0.1229,0.6946,2.4588,-2.3272)"
       width="10.8"
       xlink:href="#sprite0"
       id="use2" />
    <use
       ffdec:characterId="2022"
       height="5.6999998"
       transform="matrix(-1,0,0,1,-1.1,-13.45)"
       width="5.5999999"
       xlink:href="#sprite1"
       id="use3" />
    <use
       ffdec:characterId="2028"
       height="21.299999"
       transform="matrix(-0.9175,0,0,-0.9175,13.4319,-6.335)"
       width="46.349998"
       xlink:href="#sprite2"
       id="use4" />
  </g>
  <defs
     id="defs12">
    <g
       id="shape0"
       transform="translate(15.7,16.05)">
      <path
         d="m -4.6,-5.1 q -1,-0.5 -1.6,-1.4 -0.75,-1.1 -0.75,-2.35 0,-2.3 1.5,-3.65 1.3,-1.2 3.2,-1.15 1.95,0 3.25,1.2 1.5,1.35 1.5,3.6 0,1.3 -0.8,2.5 -1.15,1.8 -3.5,1.8 H -2.45 V -5.6 l -0.25,-4.5 q -0.1,-0.7 -0.8,-1.2 -0.75,-0.6 -1.15,0.3 l -0.2,2.3 0.25,3.6 M 5.8,-6.05 q 0.1,0.45 1.65,2.15 l 0.7,0.85 -3.9,0.6 q -0.45,-0.9 -1.2,-1.4 1,-0.85 1.5,-2.1 l 1.25,-0.1 m -10.65,4.5 0.35,-0.7 1.45,0.1 q 2.7,0 4.5,-0.75 l 0.25,0.2 q 1.1,0.9 1.1,1.65 0,4.3 -4.5,4.3 -1.9,0 -2.85,-1.75 -0.6,-1.1 -0.6,-1.9 l 0.3,-1.15 m -2.35,-0.2 -0.15,1.5 -5.25,1.85 q 1.05,-2.35 2.2,-5.85 2.1,1.4 3.3,2.05 l -0.1,0.45"
         fill="#7b7b7b"
         fill-rule="evenodd"
         stroke="none"
         id="path4" />
      <path
         d="m -8.4,-5.3 q -0.85,-1.7 -0.85,-3.55 0,-3.5 2.25,-5.45 2,-1.8 4.9,-1.75 2.9,0.05 4.9,1.85 l 0.9,1 1.15,-0.55 q 2.8,-1.15 2.8,0.3 l -1.45,1.6 -1.35,1.2 0.15,1.25 0.7,0.15 q 2.85,0.75 2.85,1.65 0,0.5 -0.95,1 l -0.15,0.1 2,1.9 1.85,2.6 q 0,0.5 -2,1 L 4.8,-0.5 4.9,0.8 4.65,2.3 5.7,2.65 Q 6.15,2.85 6.45,3 6.8,2.65 7.5,2.3 8.95,1.55 9.7,2.55 L 8.75,3.9 8.6,4.05 8.9,4.2 10.4,5.4 10.35,5.7 10.25,5.75 9.9,5.85 Q 8.15,5.15 7.25,4.65 L 7.35,5.6 7.3,6.2 Q 7.25,6.4 6.9,6.4 6.4,6.4 6.6,6.25 L 6.2,4.5 Q 5.6,4.35 4.7,3.85 l -0.65,-0.4 -0.1,0.1 q -1.7,2.2 -5.65,2.2 L -2.6,5.7 -3.3,6.6 -3.5,6.8 h 3.2 V 6.65 q 0,-1.2 2.55,-1.1 2.5,0.1 2.55,1.3 H 7.7 L 7.9,7 8.15,7.1 Q 8.7,7.3 8.9,7.6 L 9.1,8.3 9,8.9 9.15,11.05 H 9.2 V 13.3 L 8.9,14.8 8.75,15.25 7.45,16 H -0.7 -2.95 -4.9 v -0.05 l -5.8,-0.3 q -1.85,-0.35 -1.85,-1.2 v -0.1 L -12.7,13.4 v -0.75 -0.55 -0.85 -0.2 q 0.15,-3.5 0.8,-3.85 0.8,-0.7 1.2,-0.2 L -9.05,6.8 H -7.9 V 6.75 l -0.45,-0.8 q -0.6,0.55 -1.15,0.55 -0.7,0 -1.1,-0.4 l -0.35,-0.75 q 0,-0.7 2.05,-2.05 2.1,-1.35 2.1,0.45 l -0.65,1 0.4,0.4 0.7,0.8 L -5.3,4.5 -5.25,4.4 -6.15,3.3 -6.95,1.85 -9.5,2.6 -14.65,4.4 q -0.45,0 -0.75,-0.3 l -0.3,-0.75 q 0,-0.55 1.35,-4 l 1.35,-3.5 0.65,-2.1 q 0.6,-1.1 2.3,0 l 1.65,0.95 m 5.95,0.75 h 0.65 q 2.35,0 3.5,-1.8 0.8,-1.2 0.8,-2.5 0,-2.25 -1.5,-3.6 -1.3,-1.2 -3.25,-1.2 -1.9,-0.05 -3.2,1.15 -1.5,1.35 -1.5,3.65 0,1.25 0.75,2.35 0.6,0.9 1.6,1.4 l 2.15,0.55 m -4.75,2.8 0.1,-0.45 q -1.2,-0.65 -3.3,-2.05 -1.15,3.5 -2.2,5.85 l 5.25,-1.85 0.15,-1.5 m 2.35,0.2 -0.3,1.15 q 0,0.8 0.6,1.9 0.95,1.75 2.85,1.75 4.5,0 4.5,-4.3 0,-0.75 -1.1,-1.65 L 1.45,-2.9 q -1.8,0.75 -4.5,0.75 l -1.45,-0.1 -0.35,0.7 m 10.65,-4.5 -1.25,0.1 q -0.5,1.25 -1.5,2.1 0.75,0.5 1.2,1.4 l 3.9,-0.6 -0.7,-0.85 Q 5.9,-5.6 5.8,-6.05 m -15.75,15.9 0.1,1.2 v 1.35 0.25 0.4 l -0.1,0.3 5.05,-0.25 V 13.05 H 6.25 v -0.4 L 6.3,11.05 6.45,9.7 1.1,9.75 V 9.8 L -9.95,9.85"
         fill="#6b6b6b"
         fill-rule="evenodd"
         stroke="none"
         id="path5" />
      <path
         d="M -9.95,9.85 1.1,9.8 V 9.75 L 6.45,9.7 6.3,11.05 6.25,12.65 v 0.4 H -4.9 v 0.05 l -5.05,0.25 0.1,-0.3 v -0.4 -0.25 -1.35 l -0.1,-1.2"
         fill="#bcb09e"
         fill-rule="evenodd"
         stroke="none"
         id="path6" />
      <path
         d="M -2.45,-4.55 -4.6,-5.1 -4.85,-8.7 -4.65,-11 q 0.4,-0.9 1.15,-0.3 0.7,0.5 0.8,1.2 l 0.25,4.5 v 1.05"
         fill="#b5cbcc"
         fill-rule="evenodd"
         stroke="none"
         id="path7" />
    </g>
    <g
       id="sprite0"
       transform="translate(5.4,4)">
      <use
         ffdec:characterId="43"
         height="8"
         transform="translate(-5.4,-4)"
         width="10.8"
         xlink:href="#shape1"
         id="use7" />
    </g>
    <g
       id="shape1"
       transform="translate(5.4,4)">
      <path
         d="m 2.9,-0.35 q 0,-1.25 1.25,-1.25 1.25,0 1.25,1.2 0,1.3 -1.25,1.3 Q 3.6,0.9 3.25,0.5 2.9,0.15 2.9,-0.35 m 0.35,-2.3 q 0,0.55 -0.35,0.9 -0.4,0.45 -1,0.45 -1.35,0 -1.35,-1.4 0,-1.3 1.35,-1.3 1.35,0 1.35,1.35 m -3.1,1.9 h 0.2 q 2.6,0.1 2.6,2.8 l -0.3,1 Q 2.05,4 0.45,4 H 0.35 0.15 0.1 -0.45 q -1.6,0 -2.2,-0.95 l -0.3,-1 q 0,-2.8 2.8,-2.8 h 0.3 M -1.55,-4 q 1.35,0 1.35,1.35 0,0.55 -0.4,0.9 -0.4,0.45 -0.95,0.45 -1.4,0 -1.4,-1.4 0,-1.3 1.4,-1.3 m -2.6,2.4 q 1.25,0 1.25,1.25 0,0.5 -0.35,0.85 -0.35,0.4 -0.9,0.4 -1.25,0 -1.25,-1.3 0,-1.2 1.25,-1.2"
         fill="#6b6b6b"
         fill-rule="evenodd"
         stroke="none"
         id="path8" />
    </g>
    <g
       id="sprite1"
       transform="translate(2.8,2.85)">
      <use
         ffdec:characterId="2007"
         height="5.6999998"
         transform="translate(-2.8,-2.85)"
         width="5.5999999"
         xlink:href="#shape2"
         id="use8" />
    </g>
    <g
       id="shape2"
       transform="translate(2.8,2.85)">
      <path
         d="M 2.8,-0.2 2.35,1.5 Q 1.65,2.85 0.2,2.85 -1.4,2.85 -2.2,1.8 -2.8,1.05 -2.8,0.3 q 0,-2.7 2.8,-3.1 2.8,-0.35 2.8,2.6 m -3.55,-1.7 q -1,0 -1,1.05 -0.15,0.9 0.8,0.9 0.45,0 0.85,-0.35 l 0.35,-0.75 q 0,-0.85 -1,-0.85"
         fill="#6b6b6b"
         fill-rule="evenodd"
         stroke="none"
         id="path9" />
      <path
         d="m -0.75,-1.9 q 1,0 1,0.85 L -0.1,-0.3 q -0.4,0.35 -0.85,0.35 -0.95,0 -0.8,-0.9 0,-1.05 1,-1.05"
         fill="#ffffff"
         fill-rule="evenodd"
         stroke="none"
         id="path10" />
    </g>
    <g
       id="sprite2"
       transform="translate(8.7,8.3)">
      <use
         ffdec:characterId="1814"
         height="2.9000001"
         transform="matrix(0.8135,-0.218,0.1662,0.6203,-8.7,10.65)"
         width="3"
         xlink:href="#sprite3"
         id="use10" />
      <use
         ffdec:characterId="1814"
         height="2.9000001"
         transform="matrix(0.4161,0.5478,-0.4881,0.3707,21.55,-6.7)"
         width="3"
         xlink:href="#sprite3"
         id="use11" />
    </g>
    <g
       id="sprite3">
      <use
         ffdec:characterId="1134"
         height="6.1500001"
         transform="matrix(0.4615,0,0,0.4715,0,0.0118)"
         width="6.5"
         xlink:href="#shape3"
         id="use12" />
    </g>
    <g
       id="shape3"
       transform="translate(3.25,3.05)">
      <path
         d="m 0.05,-3.05 q 3.2,-0.2 3.2,3.2 0,2.95 -3.1,2.95 -2.35,0 -3.1,-1.5 l -0.3,-1.75 q 0,-2.7 3.3,-2.9"
         fill="#6b6b6b"
         fill-rule="evenodd"
         stroke="none"
         id="path12" />
    </g>
  </defs>
</svg>
