<?xml version="1.0" encoding="UTF-8" standalone="no"?>
<svg
   ffdec:objectType="frame"
   height="15.049999"
   width="18.64995"
   version="1.1"
   id="svg3"
   sodipodi:docname="1.svg"
   xmlns:inkscape="http://www.inkscape.org/namespaces/inkscape"
   xmlns:sodipodi="http://sodipodi.sourceforge.net/DTD/sodipodi-0.dtd"
   xmlns:xlink="http://www.w3.org/1999/xlink"
   xmlns="http://www.w3.org/2000/svg"
   xmlns:svg="http://www.w3.org/2000/svg"
   xmlns:ffdec="https://www.free-decompiler.com/flash">
  <sodipodi:namedview
     id="namedview3"
     pagecolor="#ffffff"
     bordercolor="#000000"
     borderopacity="0.25"
     inkscape:showpageshadow="2"
     inkscape:pageopacity="0.0"
     inkscape:pagecheckerboard="0"
     inkscape:deskcolor="#d1d1d1"
     fit-margin-top="5"
     fit-margin-left="5"
     fit-margin-right="5"
     fit-margin-bottom="5" />
  <g
     transform="translate(9.2999575,7.5499997)"
     id="g1">
    <use
       ffdec:characterId="4065"
       height="15.05"
       transform="translate(-9.3,-7.55)"
       width="18.65"
       xlink:href="#shape0"
       id="use1" />
  </g>
  <defs
     id="defs3">
    <g
       id="shape0"
       transform="translate(9.3,7.55)">
      <path
         d="m 0.75,-6.85 3,0.2 5.1,8.6 -0.05,0.1 V 2.1 L 8.7,2.2 8.75,2.25 8.6,2.6 7.4,5.3 6.4,6.9 H 6.35 6.2 L 6.1,6.95 -7.95,7 -8.35,6.85 -8.45,6.9 -8.5,6.75 -8.6,6.6 -8.7,6.4 -8.8,6.3 -8.65,6.25 -8.4,5.1 l 0.45,-1.15 0.1,-0.25 0.8,-1.95 1.9,-3.35 1.4,-2.65 q 1.05,-2 1.8,-2.55 l 0.1,-0.1 0.05,-0.05 1.2,-0.1 1.35,0.2 M 6.85,0.8 6.6,0.3 6.05,-0.7 3.8,-4.4 3.7,-4.5 3.45,-4.95 3.35,-5.1 3.15,-5.5 2.9,-4.85 l -0.25,0.6 -0.1,0.3 -0.2,0.4 -0.7,1.8 0.5,0.8 L 3.5,1.35 5.35,1.5 7.5,1.75 7.05,1.1 6.85,0.8 m -6.9,-5.45 1.05,1.8 0.7,-1.5 0.15,-0.25 0.8,-1.25 -3.4,0.05 0.25,0.45 0.45,0.7 m 1.5,4.5 L 0.6,-1.6 0.2,-1.15 -0.2,-0.8 -3.4,2.25 -4.95,3.7 -5.05,3.8 H -5.1 l -1.1,0.9 -1,1 -0.1,0.1 h 0.1 l 1,-0.35 0.35,-0.2 Q -4.6,4.6 2.8,2.2 L 1.45,-0.15 m -3.1,-5.15 -0.05,-0.05 -0.05,0.15 -1.9,3.8 -2.4,4.8 1.7,-1.6 2.5,-2.3 L -0.3,-1.65 0.2,-2.2 -1.05,-4.3 -1.6,-5.2 -1.65,-5.3 M -3.1,5.8 0.7,5.9 5.05,6 5,5.85 3.45,3.25 3.4,3.2 3.25,2.9 3.15,2.8 2.8,2.9 2.45,3 2.3,3.1 0.7,3.85 -4.65,5.75 -3.1,5.8 M 7.25,2.8 7.5,2.4 V 2.35 H 7.45 L 5.75,2.45 5,2.5 4.15,2.4 4.3,2.65 4.7,3.35 5.65,4.9 5.9,5.35 7.25,2.8"
         fill="#6b6b6b"
         fill-rule="evenodd"
         stroke="none"
         id="path1" />
      <path
         d="m 2.15,-0.95 -0.5,-0.8 0.7,-1.8 0.2,-0.4 0.1,-0.3 0.25,-0.6 0.25,-0.65 0.2,0.4 0.1,0.15 0.25,0.45 0.1,0.1 2.25,3.7 0.55,1 0.25,0.5 -2.1,-1.95 -1.45,-1.6 -0.4,0.5 -0.2,0.3 -0.55,1 M 1.85,-4.6 H 1.1 L -0.05,-4.65 -0.5,-5.35 -0.75,-5.8 2.65,-5.85 1.85,-4.6 M -6.2,5.45 -7.2,5.8 h -0.1 l 0.1,-0.1 1,-1 1.1,-0.9 h 0.05 l 0.1,-0.1 1.55,-1.45 3.2,-3.05 0.4,-0.35 0.4,-0.45 0.85,1.45 -1.5,1.1 -0.95,0.6 -1.2,1 q -1.95,1.65 -4,2.9 m 4.55,-10.75 0.05,0.1 0.55,0.9 -2.2,4 -1.1,2.1 -1.7,1.6 2.4,-4.8 1.9,-3.8 0.1,-0.1 M 3.4,3.2 Q 2.45,3.9 -0.8,5 L -3.1,5.8 -4.65,5.75 0.7,3.85 2.3,3.1 2.8,2.9 3.15,2.8 3.25,2.9 3.4,3.2 M 7.5,2.4 7.25,2.8 Q 6.45,3.25 4.7,3.35 L 4.3,2.65 5,2.5 5.75,2.45 7.45,2.35 7.5,2.4"
         fill="#ffffff"
         fill-rule="evenodd"
         stroke="none"
         id="path2" />
      <path
         d="m 0.75,-6.85 -1.35,-0.2 -1.2,0.1 -0.05,0.05 -0.1,0.1 q -0.75,0.55 -1.8,2.55 l -1.4,2.65 -1.9,3.35 -0.8,1.95 -0.1,0.25 L -8.4,5.1 -8.65,6.25 -8.8,6.3 -8.7,6.4 -8.6,6.6 -8.5,6.75 -8.45,6.9 -8.35,6.85 -7.95,7 6.1,6.95 6.2,6.9 H 6.35 6.4 L 7.4,5.3 8.6,2.6 8.75,2.25 8.7,2.2 8.8,2.1 V 2.05 l 0.05,-0.1 -5.1,-8.6 z"
         fill="none"
         stroke="#6b6b6b"
         stroke-linecap="round"
         stroke-linejoin="round"
         stroke-width="1"
         id="path3" />
    </g>
  </defs>
</svg>
