<?xml version="1.0" encoding="UTF-8" standalone="no"?>
<svg
   ffdec:objectType="frame"
   height="130.70158"
   width="205.20674"
   version="1.1"
   id="svg132"
   sodipodi:docname="2.svg"
   xmlns:inkscape="http://www.inkscape.org/namespaces/inkscape"
   xmlns:sodipodi="http://sodipodi.sourceforge.net/DTD/sodipodi-0.dtd"
   xmlns:xlink="http://www.w3.org/1999/xlink"
   xmlns="http://www.w3.org/2000/svg"
   xmlns:svg="http://www.w3.org/2000/svg"
   xmlns:ffdec="https://www.free-decompiler.com/flash">
  <sodipodi:namedview
     id="namedview132"
     pagecolor="#ffffff"
     bordercolor="#000000"
     borderopacity="0.25"
     inkscape:showpageshadow="2"
     inkscape:pageopacity="0.0"
     inkscape:pagecheckerboard="0"
     inkscape:deskcolor="#d1d1d1"
     fit-margin-top="5"
     fit-margin-left="5"
     fit-margin-right="5"
     fit-margin-bottom="5" />
  <g
     transform="translate(102.52074,56.121197)"
     id="g33">
    <use
       ffdec:characterId="246"
       height="74.699997"
       transform="translate(-85.85,-38.4)"
       width="143.5"
       xlink:href="#shape0"
       id="use1" />
    <use
       ffdec:characterId="61"
       height="8.9499998"
       transform="matrix(0.6395,0,0,0.6395,-90.45,-16.4)"
       width="15.2"
       xlink:href="#sprite0"
       id="use2" />
    <use
       ffdec:characterId="248"
       height="72.150002"
       transform="matrix(1.0883,0,0,1.1556,24.9,-30.4839)"
       width="31.9"
       xlink:href="#sprite1"
       id="use3" />
    <use
       ffdec:characterId="248"
       height="72.150002"
       transform="matrix(-1.0883,0,0,1.1556,-24.2,-30.4839)"
       width="31.9"
       xlink:href="#sprite1"
       id="use4" />
    <use
       ffdec:characterId="248"
       height="72.150002"
       transform="matrix(1.0883,0,0,1.1556,-0.4,-35.6839)"
       width="31.9"
       xlink:href="#sprite1"
       id="use5" />
    <use
       ffdec:characterId="248"
       height="72.150002"
       transform="matrix(-1.0883,0,0,1.1556,0.85,-35.9339)"
       width="31.9"
       xlink:href="#sprite1"
       id="use6" />
    <use
       ffdec:characterId="4"
       height="23.950001"
       transform="matrix(0.4486,1.2195,-0.8674,0.3191,-20.95,-16.7)"
       width="22.200001"
       xlink:href="#sprite2"
       id="use7" />
    <use
       ffdec:characterId="4"
       height="23.950001"
       transform="matrix(-0.4487,-1.2195,-0.8674,0.3192,-19.8,-14.25)"
       width="22.200001"
       xlink:href="#sprite2"
       id="use8" />
    <use
       ffdec:characterId="4"
       height="23.950001"
       transform="matrix(0.4487,1.2195,0.8674,-0.3191,-22.6,-16.1)"
       width="22.200001"
       xlink:href="#sprite2"
       id="use9" />
    <use
       ffdec:characterId="4"
       height="23.950001"
       transform="matrix(-0.4486,-1.2195,0.8674,-0.319,-21.9,-13.45)"
       width="22.200001"
       xlink:href="#sprite2"
       id="use10" />
    <use
       ffdec:characterId="250"
       height="49.200001"
       transform="matrix(1.0883,0,0,1.0883,-60.2,-5.3)"
       width="111"
       xlink:href="#sprite3"
       id="use11" />
    <use
       ffdec:characterId="248"
       height="72.150002"
       transform="matrix(-1.0883,0,0,1.1556,74.6,-35.9339)"
       width="31.9"
       xlink:href="#sprite4"
       id="use12" />
    <use
       ffdec:characterId="248"
       height="72.150002"
       transform="matrix(1.0883,0,0,1.1556,-74.7,-35.9339)"
       width="31.9"
       xlink:href="#sprite4"
       id="use13" />
    <use
       ffdec:characterId="67"
       height="10.7"
       transform="matrix(0,-1.0883,1.0883,0,-74.65,39.75)"
       width="27.1"
       xlink:href="#sprite5"
       id="use14" />
    <use
       ffdec:characterId="18"
       height="10.95"
       transform="matrix(1.0883,0,0,1.0883,-80,-33.4)"
       width="17.6"
       xlink:href="#sprite6"
       id="use15" />
    <use
       ffdec:characterId="67"
       height="10.7"
       transform="matrix(0,-1.0883,-1.0883,0,-69.1,9.85)"
       width="27.1"
       xlink:href="#sprite5"
       id="use16" />
    <use
       ffdec:characterId="18"
       height="10.95"
       transform="matrix(1.0883,0,0,1.0883,-80,-25.25)"
       width="17.6"
       xlink:href="#sprite6"
       id="use17" />
    <use
       ffdec:characterId="67"
       height="10.7"
       transform="matrix(0,-1.0883,-1.0883,0,74.8,39.75)"
       width="27.1"
       xlink:href="#sprite5"
       id="use18" />
    <use
       ffdec:characterId="18"
       height="10.95"
       transform="matrix(-1.0883,0,0,1.0883,80.2,-33.4)"
       width="17.6"
       xlink:href="#sprite6"
       id="use19" />
    <use
       ffdec:characterId="67"
       height="10.7"
       transform="matrix(0,-1.0883,1.0883,0,69,9.85)"
       width="27.1"
       xlink:href="#sprite5"
       id="use20" />
    <use
       ffdec:characterId="18"
       height="10.95"
       transform="matrix(-1.0883,0,0,1.0883,80.2,-25.25)"
       width="17.6"
       xlink:href="#sprite6"
       id="use21" />
    <use
       ffdec:characterId="252"
       height="19.5"
       transform="matrix(-1.2029,0,0,0.7729,50.95,32.8)"
       width="43.299999"
       xlink:href="#sprite7"
       id="use22" />
    <use
       ffdec:characterId="252"
       height="19.5"
       transform="matrix(1.2029,0,0,0.7729,-52.65,32.8)"
       width="43.299999"
       xlink:href="#sprite7"
       id="use23" />
    <use
       ffdec:characterId="22"
       height="52.75"
       transform="translate(-74.25,-15.2)"
       width="7.5999999"
       xlink:href="#sprite8"
       id="use24" />
    <use
       ffdec:characterId="38"
       height="28.200001"
       transform="matrix(0.7327,0,0,0.7327,-74.1,14.3708)"
       width="10.1"
       xlink:href="#sprite9"
       id="use25" />
    <use
       ffdec:characterId="22"
       height="52.75"
       transform="translate(66.75,-15.2)"
       width="7.5999999"
       xlink:href="#sprite8"
       id="use26" />
    <use
       ffdec:characterId="38"
       height="28.200001"
       transform="matrix(-0.7327,0,0,0.7327,61.75,19.8208)"
       width="10.1"
       xlink:href="#sprite9"
       id="use27" />
    <use
       ffdec:characterId="257"
       height="60.599998"
       transform="matrix(1.0883,0,0,1.0883,-99.4312,8.6294)"
       width="178.35001"
       xlink:href="#sprite11"
       id="use28" />
    <use
       ffdec:characterId="259"
       height="59"
       transform="matrix(1.0883,0,0,1.0883,-106.3259,-57.3842)"
       width="195.55"
       xlink:href="#sprite17"
       id="use29" />
    <use
       ffdec:characterId="2"
       height="39"
       transform="matrix(0.7481,-0.4319,0.4319,0.7481,-9.2,17.3)"
       width="38.299999"
       xlink:href="#sprite24"
       id="use30" />
    <use
       ffdec:characterId="69"
       height="1.5"
       id="subplatform1"
       transform="matrix(0.0913,0,0,0.86,-62.9066,45.52)"
       width="1320.3"
       xlink:href="#sprite25" />
    <use
       ffdec:characterId="69"
       height="1.5"
       id="subplatform4"
       transform="matrix(0.0217,0,0,0.86,-89.3761,38.02)"
       width="1320.3"
       xlink:href="#sprite25" />
    <use
       ffdec:characterId="69"
       height="1.5"
       id="subplatform3"
       transform="matrix(0.0217,0,0,0.86,56.1239,38.02)"
       width="1320.3"
       xlink:href="#sprite25" />
    <use
       ffdec:characterId="38"
       height="28.200001"
       transform="matrix(0.7327,0,0,0.7327,63.4,11.8708)"
       width="10.1"
       xlink:href="#sprite9"
       id="use31" />
    <use
       ffdec:characterId="44"
       height="8"
       transform="matrix(1.4875,0,0,1.4875,-67.9324,-25.1)"
       width="10.8"
       xlink:href="#sprite26"
       id="use32" />
    <use
       ffdec:characterId="243"
       height="20.25"
       transform="matrix(1.383,0,0,1.383,-70.4085,-17.9245)"
       width="23"
       xlink:href="#sprite27"
       id="use33" />
  </g>
  <defs
     id="defs132">
    <g
       id="shape0"
       transform="translate(85.85,38.4)">
      <path
         d="m -85.6,-27.7 h 0.25 q 0.3,3.85 0.3,11.8 v 2.75 l -0.4,0.3 q -0.4,-0.45 -0.4,-1.75 l 0.25,-13.1"
         fill="#8a8a8a"
         fill-rule="evenodd"
         stroke="none"
         id="path33" />
      <path
         d="M 57.65,-38.4 V 36.3 H -58.9 V -38.4 H 57.65"
         fill="#9a9a9a"
         fill-rule="evenodd"
         stroke="none"
         id="path34" />
    </g>
    <g
       id="sprite0">
      <use
         ffdec:characterId="60"
         height="8.9499998"
         width="15.2"
         xlink:href="#shape1"
         id="use34" />
    </g>
    <g
       id="shape1">
      <path
         d="M 13.2,2.05 H 13 L 12.5,2.2 q -0.4,0 -0.75,-0.35 -0.4,-0.4 -0.75,-0.4 -0.6,0 -1.15,0.4 0.5,0.45 0.7,1.25 l 2.3,0.15 q 2.35,0.9 2.35,2.4 L 15.05,6.35 14.6,6.75 13.5,5.6 q -0.75,-0.85 -2.05,-0.85 -0.35,0 -0.65,0.3 l -0.1,0.6 0.25,0.1 q 1.45,0.6 1.45,1.2 v 1.1 q -0.2,0.9 -0.9,0.9 L 11.05,8.9 11.15,8.8 11,8.5 Q 11.6,7 10.2,6.65 H 10.15 Q 9.45,7.25 8.05,7.3 H 7.8 7.6 7.4 7.15 Q 6,7.15 5.3,6.6 L 5,6.65 Q 3.6,7 4.2,8.5 L 4.05,8.8 4.15,8.9 3.7,8.95 Q 3,8.95 2.8,8.05 v -1.1 q 0,-0.6 1.45,-1.2 L 4.7,5.6 4.65,5.2 4.55,5.15 Q 4.15,4.75 3.75,4.75 2.45,4.75 1.7,5.6 L 0.6,6.75 0.15,6.35 Q 0,6.15 0,5.65 0,4.15 2.35,3.25 L 4.65,3.1 Q 4.85,2.3 5.35,1.85 4.8,1.45 4.2,1.45 3.85,1.45 3.45,1.85 L 2.7,2.2 Q 1.95,2.2 2.2,2.05 H 2 L 1.95,1.55 q 0,-1.9 2.65,-1.45 1.5,0.3 2.35,1.15 h 0.6 0.1 0.6 Q 9.1,0.4 10.6,0.1 q 2.65,-0.45 2.65,1.45 l -0.05,0.5"
         fill="#898989"
         fill-rule="evenodd"
         stroke="none"
         id="path35" />
    </g>
    <g
       id="sprite1"
       transform="translate(0,-6.85)">
      <use
         ffdec:characterId="247"
         height="72.150002"
         transform="translate(0,6.85)"
         width="31.9"
         xlink:href="#shape2"
         id="use35" />
    </g>
    <g
       id="shape2"
       transform="translate(0,-6.85)">
      <path
         d="m 31.8,7.7 0.1,5.1 q 0,6.75 -5.9,18.4 -5.9,11.65 -7.85,16 l 0.2,0.05 0.15,0.5 -0.05,0.4 0.1,0.2 0.5,0.45 0.1,1.5 -0.3,1.45 3.45,8.1 q 2.1,5.45 2.1,10.3 l -0.1,5.6 -0.15,1.4 0.1,0.1 0.4,0.8 -0.4,0.9 L 24.2,79 H 3 L 2.65,77.95 2.4,75.8 q 0,-9.15 4.15,-18.25 1.35,-3 2.5,-4.5 L 9,53 Q 8.55,52.45 8.55,51.15 L 8.6,50.3 8.55,50 8.75,49.1 8.9,48.2 Q 7.2,45.3 3.7,36.55 L 1.15,29.8 Q 0.3,27.1 0.3,23.8 L 0.45,18.2 0.1,16.45 0,14.45 Q 0,11.3 2.1,8.15 L 2.2,8.05 2,7.25 2.05,6.85 h 29.8 L 31.9,7.2 31.8,7.7 m -8.75,22.55 0.2,-0.4 0.75,-1.4 0.8,-1.6 0.1,-0.25 1.85,-3.85 0.1,-0.3 0.05,-0.1 q 1.5,-3.7 1.9,-11.2 L 29,9 V 8.9 8.5 L 28.6,8.55 26.9,8.6 26.5,8.65 h -0.2 -0.75 -0.3 -0.1 -1.5 V 9.3 9.35 l 0.55,1.35 v 1.4 q 0,4.75 -4.1,13.3 l -1.55,3.35 Q 16.4,35.3 16.3,40.7 l 0.4,2.15 q 1.1,-2.5 3.85,-7.8 l 2.5,-4.8 M 9.8,43.85 q 1.35,3 1.35,4.7 v 0.2 L 16.1,48.55 15.85,47.85 14.8,45 14.7,42.9 q -0.3,-2.15 -0.3,-4.1 0,-4.15 1.05,-6.85 l 2.45,-5.05 1.4,-3.75 2.5,-7 1.25,-5.1 0.25,-2.4 H 22.95 L 21,8.7 h -6.65 l -1.45,4.2 q -2.4,8.05 -2.4,15.2 l 0.2,4.6 0.15,2.15 0.1,1.2 0.1,1.05 -0.5,-1.3 -0.2,-0.65 -0.1,-0.4 L 9.55,30.8 9.3,29.35 q -0.8,-5.8 -0.8,-7.85 0,-3.35 1.95,-9.3 l 1.3,-3.5 h -1.1 L 4,8.75 3.15,12.3 l -1,3.55 -0.1,1.2 q 0,5.9 1.5,11.7 L 3.9,29.9 q 1.05,3.7 2.7,7.35 l 3.15,6.45 0.05,0.15 m 7.65,7.85 -3,0.35 q -3.3,0 -4.75,-0.65 l -0.05,0.25 0.3,0.55 q 0.6,-0.45 0.7,0.45 L 13.6,53 q 2.5,0 3.7,-1.15 l 0.15,-0.15 m -0.2,1.85 q -1.35,0.8 -3.55,0.8 L 10.3,53.9 7.65,60.3 q -3,7.35 -3,13.1 0,1 0.55,4.05 l 10,-0.95 6.75,0.05 L 22,75.9 q 0,-6 -2.35,-14.4 l -2.4,-7.85 v -0.1 m -0.65,-4 -3.5,0.5 -3.15,-0.4 q 0.45,0.65 2.35,0.7 h 4.35 l 0.3,-0.3 -0.35,-0.5"
         fill="#9a9a9a"
         fill-rule="evenodd"
         stroke="none"
         id="path36" />
      <path
         d="m 25.15,8.65 0.15,0.65 0.45,6.35 -0.05,1.75 -0.8,3.55 -1.3,4.8 0.1,0.6 -0.4,2.65 -0.25,1.25 -2.5,4.8 q -2.75,5.3 -3.85,7.8 L 16.3,40.7 q 0.1,-5.4 2.25,-11.95 L 20.1,25.4 q 4.1,-8.55 4.1,-13.3 V 10.7 L 23.65,9.35 V 9.3 8.65 h 1.5 M 21,8.7 22.95,8.65 h 0.35 l -0.25,2.4 -1.25,5.1 -2.5,7 -1.4,3.75 -2.45,5.05 q -1.05,2.7 -1.05,6.85 0,1.95 0.3,4.1 l 0.1,2.1 1.05,2.85 0.25,0.7 -4.95,0.2 v -0.2 q 0,-1.7 -1.35,-4.7 L 9.9,43.2 8.35,37.95 6.45,32.05 6.05,26.95 5.8,20.9 q 0,-2.6 2.6,-7.95 L 10.65,8.7 h 1.1 l -1.3,3.5 q -1.95,5.95 -1.95,9.3 0,2.05 0.8,7.85 l 0.25,1.45 0.7,3.95 0.1,0.4 0.2,0.65 0.5,1.3 -0.1,-1.05 0.4,0.05 q 0.8,0 2.75,-4.6 1.6,-3.6 3.2,-8.3 3.75,-10.85 3.75,-12.95 L 21,8.8 V 8.7 m -4.4,40.85 0.35,0.5 -0.3,0.3 H 12.3 Q 10.4,50.3 9.95,49.65 l 3.15,0.4 3.5,-0.5 m 0.65,4 v 0.1 l 2.4,7.85 Q 22,69.9 22,75.9 L 21.95,76.55 15.2,76.5 5.2,77.45 Q 4.65,74.4 4.65,73.4 q 0,-5.75 3,-13.1 l 2.65,-6.4 3.4,0.45 q 2.2,0 3.55,-0.8 m 0.2,-1.85 -0.15,0.15 Q 16.1,53 13.6,53 l -2.95,-0.35 q -0.1,-0.9 -0.7,-0.45 L 9.65,51.65 9.7,51.4 q 1.45,0.65 4.75,0.65 l 3,-0.35"
         fill="#9d9d9d"
         fill-rule="evenodd"
         stroke="none"
         id="path37" />
      <path
         d="m 25.15,8.65 h 0.1 0.3 0.75 0.2 L 26.9,8.6 28.6,8.55 29,8.5 V 8.9 9 l -0.2,2.15 q -0.4,7.5 -1.9,11.2 l -0.05,0.1 -0.1,0.3 -1.85,3.85 -0.1,0.25 -0.8,1.6 -0.75,1.4 -0.2,0.4 0.25,-1.25 0.4,-2.65 -0.1,-0.6 1.3,-4.8 0.8,-3.55 0.05,-1.75 L 25.3,9.3 25.15,8.65 M 21,8.7 v 0.1 l 0.05,1.45 q 0,2.1 -3.75,12.95 -1.6,4.7 -3.2,8.3 -1.95,4.6 -2.75,4.6 l -0.4,-0.05 -0.1,-1.2 -0.15,-2.15 -0.2,-4.6 q 0,-7.15 2.4,-15.2 L 14.35,8.7 H 21 M 10.65,8.7 8.4,12.95 Q 5.8,18.3 5.8,20.9 l 0.25,6.05 0.4,5.1 1.9,5.9 L 9.9,43.2 9.8,43.85 9.75,43.7 6.6,37.25 Q 4.95,33.6 3.9,29.9 L 3.55,28.75 q -1.5,-5.8 -1.5,-11.7 l 0.1,-1.2 1,-3.55 L 4,8.75 10.65,8.7"
         fill="#a0a0a0"
         fill-rule="evenodd"
         stroke="none"
         id="path38" />
    </g>
    <g
       id="sprite2">
      <use
         ffdec:characterId="3"
         height="23.950001"
         width="22.200001"
         xlink:href="#shape3"
         id="use38" />
    </g>
    <g
       id="shape3">
      <path
         d="M 22.2,1 Q 21.95,1.3 22.05,1.75 L 20.1,2.05 Q 18.7,4.2 18.7,7.45 L 18.55,8.4 21.8,9.8 V 10 l -0.45,0.15 q -2.1,0 -6.6,-1.75 -2.05,1.4 -3,3.05 -0.95,1.65 -0.95,3.85 l -0.05,0.45 1.7,2.9 L 12,19.1 10.25,16.6 10,16.7 9.55,16.2 V 16 q -4.85,0.3 -6.4,1.3 -0.3,0.15 -0.65,0.4 l -0.85,1.4 v 4.05 L 1.5,23.65 Q 1.35,23.9 0.95,23.95 L 0.3,23.3 0.25,6.15 0.3,2.85 0.4,1.75 0.15,1.5 V 1.45 L 0,0.95 Q 0,0.5 0.95,0 H 18.4 l 3.5,0.4 q -0.25,0.35 0.2,0.55 L 22.2,1 M 19.15,2.15 Q 16,3.8 13.25,5.95 L 17.65,8 17.6,7.6 q 0,-1.95 0.85,-4.05 l 0.7,-1.4 M 12,5.35 Q 14.9,3 17.2,2 h -6.35 l -1,2.2 0.35,-0.05 0.25,0.35 -0.15,0.05 1.7,0.8 m 2,2.7 -2.25,-0.9 -3.45,3.25 -0.45,0.45 2,3.35 Q 10.3,12.8 11.45,10.95 12.7,9 14,8.05 M 9.45,2 h -5.9 q 2.6,0.75 5.6,2.05 L 9.25,2.65 9.45,2 M 7.7,5.3 3.1,3 4.35,5.05 6,7.85 q 0.3,-1 1.3,-2.1 L 7.7,5.3 M 1.7,8.5 2,8.35 4.7,8.05 1.7,3.1 V 6.2 8.5 M 1.9,10 1.65,10.15 v 6 Q 3.05,13.9 6.3,10.6 L 5.4,9.15 2.85,9.35 1.9,10 M 6.6,8.75 7.15,9.75 8.1,8.8 10.5,6.6 8.5,5.7 7.7,6.75 6.6,8.75 M 3.9,15.9 Q 6.95,14.8 9.15,15 l -2.1,-3.25 q -1.9,2 -3.45,4.3 L 3.9,15.9"
         fill="#a1a1a1"
         fill-rule="evenodd"
         stroke="none"
         id="path39" />
    </g>
    <g
       id="sprite3">
      <use
         ffdec:characterId="249"
         height="49.200001"
         width="111"
         xlink:href="#shape4"
         id="use39" />
    </g>
    <g
       id="shape4">
      <path
         d="m 90.3,16.8 q 1.35,0 2.2,1 0.6,0.7 0.6,1.15 0,2.7 2.5,4.15 0.85,0.55 5.45,2.15 2.1,0.7 3.65,1.75 1.5,0.2 3.2,1 3.1,1.4 3.1,2.8 l -0.15,0.55 -0.4,0.2 q -0.4,0.35 -1.8,0.6 0.4,1.35 0.4,2.95 L 109,36.35 q -0.2,0.7 -0.95,1.1 l -2,-4.75 -1.75,0.35 h -1.2 q 1.5,0.7 1.5,1.3 l -1.05,3.9 q -1.35,3.8 -2.9,3.8 l -4.5,-1.85 q -0.8,0 -1.4,0.45 l -1.2,0.4 q -1.2,0 -3.15,-2.1 l -1.75,-2.1 q -1.1,0 -2.2,-1.05 -0.5,0.65 -1.55,0.65 l -1.3,-0.1 q -0.65,0.7 -2.1,0.7 -1.15,0 -1.7,-0.4 l -1,-1 -0.35,1.35 q -0.6,1.05 -1.9,1.05 l -2.95,0.3 q -0.55,0 -1.2,-0.55 -0.65,-0.6 -0.85,-0.6 -0.6,0 -5.1,2.8 l -4.45,2.8 -1.65,0.4 -1.7,0.35 -1.25,-0.5 -0.1,0.25 -0.2,2.5 -0.2,1.6 0.25,0.95 q 0.05,0.85 -0.9,0.85 L 55.5,48.75 54.75,49.2 q -0.95,0 -0.9,-0.85 L 54.1,47.4 53.9,45.8 53.7,43.3 53.6,43.05 52.35,43.55 50.65,43.2 49,42.8 44.55,40 q -4.5,-2.8 -5.1,-2.8 l -0.85,0.6 q -0.65,0.55 -1.2,0.55 l -2.95,-0.3 q -1.3,0 -1.9,-1.05 -0.35,-0.65 -0.35,-1.35 l -1,1 q -0.55,0.4 -1.7,0.4 -1.45,0 -2.1,-0.7 l -1.3,0.1 q -1.05,0 -1.55,-0.65 -1.1,1.05 -2.2,1.05 l -1.75,2.1 q -1.95,2.1 -3.15,2.1 -0.65,0 -1.2,-0.4 -0.6,-0.45 -1.4,-0.45 l -4.5,1.85 q -1.55,0 -2.9,-3.8 L 6.4,34.35 q 0,-0.6 1.5,-1.3 H 6.7 l -1.75,-0.35 -2,4.75 Q 2.2,37.05 2,36.35 L 1.95,35.1 q 0,-1.6 0.4,-2.95 -1.4,-0.25 -1.8,-0.6 l -0.4,-0.2 Q 0,31.25 0,30.8 0,29.4 3.1,28 q 1.7,-0.8 3.2,-1 1.55,-1.05 3.65,-1.75 4.6,-1.6 5.45,-2.15 2.5,-1.45 2.5,-4.15 0,-0.45 0.6,-1.15 0.85,-1 2.2,-1 1.6,0 2.2,0.45 l 1.15,0.4 q 2.05,0 3.85,-2.05 L 31,11.1 q 4.4,-6.55 10.55,-6.55 4.55,0 7.05,1 L 48.7,5.6 Q 49.15,3.45 50.55,2 52.5,-0.05 55.35,0 h 0.15 0.15 q 2.85,-0.05 4.8,2 1.4,1.45 1.85,3.6 l 0.1,-0.05 q 2.5,-1 7.05,-1 6.15,0 10.55,6.55 l 3.1,4.5 q 1.8,2.05 3.85,2.05 0.55,0 1.15,-0.4 0.6,-0.45 2.2,-0.45 m -0.65,4.3 0.25,-0.5 0.1,-0.35 0.6,-1.35 -0.55,-0.1 -1.4,0.8 q -1.2,0.75 -3.15,0.75 -2.8,0 -4.5,-2.05 -0.5,-0.65 -1.85,-3.1 L 78.4,13.75 Q 76,9.05 71.65,7.7 l -6.4,-0.1 q -0.9,0.05 -2.6,0.9 L 62.55,8.55 62.5,8.8 q 1.15,0.1 2.45,0.7 l 0.4,0.2 0.15,0.05 q 2.95,1.4 4,3.4 l 0.45,1.15 0.9,0.95 q 0.85,1.05 2.3,4.35 l 0.15,0.35 2.1,2.2 -0.5,0.35 0.9,0.85 q 0.8,0.6 1.9,1 l 2.5,0.5 1.95,0.1 1.55,-0.1 q 1.8,-0.25 3.2,-1 l 2.05,-1.7 0.6,-0.75 0.1,-0.3 m 13.3,7.55 -1.3,-0.85 -0.8,-0.2 -6.35,-2.15 q -2.55,-1.1 -3.3,-3.3 l -0.05,-0.1 -0.25,0.45 -0.65,0.9 -0.25,0.3 -1.3,1.25 -0.9,0.55 v 0.05 l 0.05,0.05 0.75,0.75 0.75,0.75 0.75,0.65 q 2.95,2.2 7.5,3.15 h 6.55 l 0.8,-0.2 q -0.85,-1.2 -2,-2.05 M 84.6,33.1 H 84.55 L 84,33.05 82.65,33.3 v 0.4 l 0.4,0.75 1,0.45 H 84.1 L 84.75,34.8 85.3,34.55 85.25,34.25 85.1,33.7 84.95,33.35 84.6,33.1 m -3.3,-0.65 q 0.3,-0.8 1.55,-0.9 h 0.2 l -0.2,-0.15 -0.15,-0.15 -0.8,0.45 -2.25,0.95 v 0.05 0.15 l -0.05,0.05 0.05,0.1 0.6,1.5 q 0.6,1.3 1.1,1.3 l 0.7,-0.15 -0.4,-0.5 -0.2,-0.4 -0.2,-1.3 v -0.5 l 0.05,-0.5 m 5.5,0.9 -0.6,-0.9 h -0.05 -0.1 q 0.55,0.5 0.7,1.25 l 0.05,-0.35 m 20.25,-4.2 0.6,0.8 0.65,-0.05 -1.25,-0.75 M 68.65,17.55 V 17.3 q 0,-1.65 -1.15,-2.95 -1.1,-1.25 -3.25,-2.1 l -3,-1.15 -0.9,0.8 -1.75,0.85 -1.45,0.3 -0.1,0.05 -1.4,0.05 H 55.5 55.35 l -1.4,-0.05 -0.1,-0.05 -1.45,-0.3 q -1,-0.3 -1.75,-0.85 l -0.9,-0.8 -3,1.15 q -2.15,0.85 -3.25,2.1 -1.15,1.3 -1.15,2.95 v 0.25 q 0.05,1.6 0.45,2 l 0.95,0.85 Q 44,18.2 45.95,16.7 49,14.4 55.5,14.55 62,14.4 65.05,16.7 q 1.95,1.5 2.2,3.7 l 0.95,-0.85 q 0.4,-0.4 0.45,-2 m -7.6,3.6 h -0.4 l 0.6,0.2 -0.2,-0.2 m 9,3.5 -0.35,0.05 -0.1,0.1 -0.05,0.4 v 0.1 l 0.15,0.6 0.1,0.25 0.45,0.55 1.05,0.25 0.75,-0.15 0.25,-0.2 0.1,-0.2 0.1,-0.85 V 25.4 l -0.65,-0.8 h -0.2 l -1.6,0.05 M 62.6,22.55 63,24 v 0.3 0.1 l -0.2,0.8 0.8,-0.75 1,-0.7 V 23.7 l -0.4,-0.4 q -0.75,-0.2 -1.6,-0.75 m -0.85,1.65 -0.1,-0.55 q -0.25,-0.9 -1.45,-1.1 -1.55,-0.3 -1.55,1 0.65,1.65 2.15,1.65 l 0.45,-0.1 0.3,-0.2 0.2,-0.7 m -1.9,-17 0.05,-0.75 q 0,-3 -2.95,-3.4 L 55.7,2.95 h -0.2 -0.2 l -1.25,0.1 q -2.95,0.4 -2.95,3.4 l 0.05,0.75 q 0.25,1.4 1.4,2.15 l 0.55,0.3 0.1,0.05 1.45,0.4 0.55,0.05 0.3,0.05 0.3,-0.05 0.55,-0.05 1.45,-0.4 0.1,-0.05 0.55,-0.3 Q 59.6,8.6 59.85,7.2 m -38.5,13.9 0.1,0.3 0.6,0.75 2.05,1.7 q 1.4,0.75 3.2,1 l 1.55,0.1 1.95,-0.1 2.5,-0.5 q 1.1,-0.4 1.9,-1 1.45,-1.1 2.65,-3.75 1.45,-3.3 2.3,-4.35 l 0.9,-0.95 q 0.1,-0.65 0.45,-1.15 1.05,-2 4,-3.4 L 45.65,9.7 46.05,9.5 Q 47.35,8.9 48.5,8.8 L 48.45,8.55 48.35,8.5 q -1.7,-0.85 -2.6,-0.9 l -6.4,0.1 Q 35,9.05 32.6,13.75 L 31.85,15.2 30,18.3 q -1.7,2.05 -4.5,2.05 -1.95,0 -3.15,-0.75 -1.2,-0.8 -1.4,-0.8 l -0.55,0.1 0.6,1.35 0.1,0.35 0.25,0.5 m 19.6,3.55 -1.6,-0.05 h -0.2 l -0.65,0.8 v 0.15 l 0.1,0.85 0.1,0.2 0.25,0.2 0.75,0.15 1.05,-0.25 0.45,-0.55 0.1,-0.25 0.15,-0.6 V 25.2 L 41.4,24.8 41.3,24.7 40.95,24.65 m 7.45,-2.1 -1.6,0.75 -0.4,0.4 v 0.05 l 1,0.7 0.8,0.75 L 48,24.4 V 24.3 24 q 0.05,-0.85 0.4,-1.45 m 0.85,1.65 0.2,0.7 0.3,0.2 0.45,0.1 q 1.5,0 2.15,-1.65 0,-1.3 -1.55,-1 -1.2,0.2 -1.45,1.1 l -0.1,0.55 m 4.4,-1.25 v 0.4 0.15 q 0,0.75 -0.5,1.55 h 1.1 L 55.1,23.9 q -0.9,-0.35 -1.5,-1.15 l 0.05,0.2 m 3.7,0.4 v -0.4 l 0.05,-0.2 -1.5,1.15 0.85,1.1 0.85,0.05 0.3,0.05 -0.05,-0.05 q -0.5,-0.8 -0.5,-1.55 v -0.15 m -5.15,4.45 0.4,-0.5 -0.85,0.4 v 0.05 l 0.45,0.05 m 2.75,5.4 -0.8,-0.2 -0.05,0.6 -0.05,0.35 0.4,-0.2 0.1,-0.15 q 0.6,-0.05 0.8,-0.4 h -0.4 M 51.3,31.75 51.1,31.7 H 51 q -1.1,-0.25 -1.1,0.9 l 0.05,1.3 h 0.2 l 1.15,0.15 h 0.5 q 0.85,-0.15 0.9,-0.75 l -0.05,-0.45 q 0,-0.65 -1.35,-1.1 m -0.6,3.85 0.15,0.6 0.6,0.15 q 0.3,0.7 1.2,0.7 h 0.1 l -0.1,-0.6 q 0,-0.5 0.25,-1.05 l -1.5,0.25 H 51.35 L 50.7,35.6 m 7.65,0.85 -0.1,0.6 h 0.1 q 0.9,0 1.2,-0.7 l 0.6,-0.15 0.15,-0.6 -0.65,0.05 H 59.6 l -1.5,-0.25 0.25,1.05 M 56,33.5 56.1,33.2 h -0.05 -0.4 L 56,33.5 m 3.7,-1.75 q -1.35,0.45 -1.35,1.1 L 58.3,33.3 q 0.05,0.6 0.9,0.75 h 0.5 l 1.15,-0.15 h 0.2 l 0.05,-1.3 q 0,-1.15 -1.1,-0.9 h -0.1 l -0.2,0.05 m -10.55,-5.45 0.15,0.3 0.25,-0.1 -0.4,-0.2 M 43.7,26.15 43,25.95 42.9,26.3 42.5,27.1 42.1,27.7 41,28.55 H 39.35 L 38.05,28 q -0.7,-0.45 -0.7,-0.95 L 37.4,26.2 v -0.3 l -1.15,0.85 1.65,1.65 -0.05,0.15 0.1,0.5 q 0.15,0.5 0.8,0.5 l 2,-0.5 H 41 l 0.15,-0.15 q 1.2,-0.4 1.2,-0.7 l -0.15,-0.4 1.35,-1.55 0.15,-0.1 m -3.1,5 v -0.2 q 0,-0.65 0.25,-1.15 L 40.4,29.75 40.25,29.65 37.5,31 q -1.55,0.8 -1.55,1.85 l 0.9,1.5 0.05,0.05 -0.05,-0.65 0.05,-0.6 0.15,-0.55 q 0.4,-1.3 1.95,-1.5 l 0.6,-0.05 h 0.3 l 0.65,0.1 h 0.05 m 2.35,3.4 q 0.6,0 0.85,-0.3 l -1.45,-0.9 -0.25,1.05 q -0.35,1.25 -1.1,1.7 l 0.6,0.2 q 0.7,0 1.3,-1.75 h 0.05 m 5.45,-0.4 0.25,0.1 V 34.2 l 0.05,-0.8 -0.75,0.65 0.45,0.1 M 72.6,33.6 q 0,-0.8 -1.1,-0.8 -1.1,0.05 -1.1,0.85 l 0.25,0.55 0.5,0.45 0.8,-0.05 0.45,-0.2 0.2,-0.8 m 1.5,-0.45 0.05,0.6 -0.05,0.65 0.05,-0.05 0.9,-1.5 Q 75.05,31.8 73.5,31 l -2.75,-1.35 -0.15,0.1 -0.45,0.05 0.25,1.15 v 0.2 h 0.05 l 0.65,-0.1 h 0.3 L 72,31.1 q 1.55,0.2 1.95,1.5 l 0.15,0.55 M 73.6,25.9 v 0.3 l 0.05,0.85 q 0,0.5 -0.7,0.95 l -1.3,0.55 H 70 q -0.6,-0.3 -1.1,-0.85 l -0.4,-0.6 -0.4,-0.8 -0.1,-0.35 -0.7,0.2 0.15,0.1 1.35,1.55 q -0.15,0.15 -0.15,0.4 0,0.3 1.2,0.7 L 70,29.05 h 0.25 l 2,0.5 q 0.65,0 0.8,-0.5 l 0.1,-0.5 L 73.1,28.4 74.75,26.75 73.6,25.9 m -12.65,4.85 -0.1,-0.15 -0.1,0.05 0.2,0.1 m 7.1,3.8 h 0.05 q 0.6,1.75 1.3,1.75 L 70,36.1 q -0.75,-0.45 -1.1,-1.7 l -0.25,-1.05 -1.45,0.9 0.85,0.3 m -6.2,-2.9 -0.05,-0.05 v 0.05 l 0.25,0.55 0.2,0.75 0.1,1.25 v 0.05 L 62.6,34.15 63.15,34 63.6,32.9 61.85,31.65 M 61.7,27.7 h 0.1 V 27.65 L 61.7,27.7 M 21,23.7 20.75,23.4 20.1,22.5 19.85,22.05 19.8,22.15 q -0.75,2.2 -3.3,3.3 l -6.35,2.15 -0.8,0.2 -1.3,0.85 q -1.15,0.85 -2,2.05 l 0.8,0.2 h 6.55 q 4.55,-0.95 7.5,-3.15 L 21.65,27.1 22.4,26.35 23.15,25.6 23.2,25.55 V 25.5 L 22.3,24.95 21,23.7 M 3.95,29.15 Q 3.3,29.45 2.7,29.9 l 0.65,0.05 0.6,-0.8 m 26.8,5.35 0.05,-0.05 -0.3,-0.5 -0.05,-0.9 0.1,-0.7 -1.35,-0.6 -0.05,0.05 0.55,0.65 0.05,0.5 v 0.5 l -0.2,1.3 -0.2,0.4 -0.4,0.5 0.7,0.15 q 0.5,0 1.1,-1.3 m 7.65,-0.9 0.2,0.8 0.45,0.2 0.8,0.05 0.5,-0.45 0.25,-0.55 q 0,-0.8 -1.1,-0.85 -1.1,0 -1.1,0.8 M 24.2,33.35 24.25,33.7 Q 24.5,32.55 25.6,32 h 0.05 L 26,31.85 25.6,31.65 25.45,31.8 25.25,32 24.2,33.35 M 28.35,33.3 27,33.05 26.45,33.1 H 26.4 l -0.35,0.25 -0.15,0.35 -0.15,0.55 -0.05,0.3 0.55,0.25 0.65,0.1 h 0.05 l 1,-0.45 q 0.4,-0.35 0.4,-0.75 v -0.4"
         fill="#919191"
         fill-rule="evenodd"
         stroke="none"
         id="path40" />
      <path
         d="M 65.35,9.7 64.95,9.5 Q 63.65,8.9 62.5,8.8 l 0.05,-0.25 0.1,-0.05 q 1.7,-0.85 2.6,-0.9 l 6.4,0.1 Q 76,9.05 78.4,13.75 l 0.75,1.45 q 1.35,2.45 1.85,3.1 1.7,2.05 4.5,2.05 1.95,0 3.15,-0.75 l 1.4,-0.8 0.55,0.1 -0.6,1.35 -0.1,0.35 -0.25,0.5 0.1,-0.45 q -1.05,0.55 -3.15,0.55 -3.25,0 -5.6,-1.85 -1.35,-1.1 -3.45,-4 Q 75.45,12.4 74.05,11.3 71.7,9.45 68.4,9.45 l -2.9,0.2 -0.15,0.05 m 24.65,14 0.25,-0.3 0.65,-0.9 0.25,-0.45 0.05,0.1 q 0.75,2.2 3.3,3.3 l 6.35,2.15 0.8,0.2 1.3,0.85 -1.35,0.3 q -6.6,0 -9.7,-2.6 Q 90.55,25.2 90,23.7 m -29.65,-11.8 0.9,-0.8 3,1.15 q 2.15,0.85 3.25,2.1 1.15,1.3 1.15,2.95 v 0.25 q -0.6,-1.25 -1.8,-2.3 -1.5,-1.35 -3.95,-2.45 l -2.55,-0.9 m -18,5.65 V 17.3 q 0,-1.65 1.15,-2.95 1.1,-1.25 3.25,-2.1 l 3,-1.15 0.9,0.8 -2.55,0.9 q -2.45,1.1 -3.95,2.45 -1.2,1.05 -1.8,2.3 M 59.85,7.2 58.75,6.55 58.15,6.2 58,6.1 56.95,5.45 55.85,4.75 55.5,4.55 55.15,4.75 54.05,5.45 53,6.1 52.85,6.2 52.25,6.55 Q 51.7,6.85 51.15,7.2 L 51.1,6.45 q 0,-3 2.95,-3.4 l 1.25,-0.1 h 0.2 0.2 l 1.25,0.1 q 2.95,0.4 2.95,3.4 L 59.85,7.2 M 45.5,9.65 42.6,9.45 q -3.3,0 -5.65,1.85 -1.4,1.1 -3.5,4.05 -2.1,2.9 -3.45,4 -2.35,1.85 -5.6,1.85 -2.1,0 -3.15,-0.55 L 21.35,21.1 21.1,20.6 21,20.25 20.4,18.9 20.95,18.8 q 0.2,0 1.4,0.8 1.2,0.75 3.15,0.75 2.8,0 4.5,-2.05 l 1.85,-3.1 0.75,-1.45 Q 35,9.05 39.35,7.7 l 6.4,-0.1 q 0.9,0.05 2.6,0.9 l 0.1,0.05 0.05,0.25 Q 47.35,8.9 46.05,9.5 L 45.65,9.7 45.5,9.65 m -37.45,19 1.3,-0.85 0.8,-0.2 6.35,-2.15 q 2.55,-1.1 3.3,-3.3 l 0.05,-0.1 0.25,0.45 0.65,0.9 0.25,0.3 q -0.55,1.5 -1.9,2.65 -3.1,2.6 -9.7,2.6 -0.95,0 -1.35,-0.3"
         fill="#9f9f9f"
         fill-rule="evenodd"
         stroke="none"
         id="path41" />
      <path
         d="m 89.65,21.1 -0.1,0.3 -0.6,0.75 -2.05,1.7 q -1.4,0.75 -3.2,1 l -1.55,0.1 -1.95,-0.1 -2.5,-0.5 q -1.1,-0.4 -1.9,-1 L 74.9,22.5 75.4,22.15 73.3,19.95 73.15,19.6 Q 71.7,16.3 70.85,15.25 L 69.95,14.3 69.5,13.15 q -1.05,-2 -4,-3.4 v -0.1 l 2.9,-0.2 q 3.3,0 5.65,1.85 1.4,1.1 3.5,4.05 2.1,2.9 3.45,4 2.35,1.85 5.6,1.85 2.1,0 3.15,-0.55 l -0.1,0.45 m 13.3,7.55 q 1.15,0.85 2,2.05 l -0.8,0.2 H 97.6 Q 93.05,29.95 90.1,27.75 L 89.35,27.1 88.6,26.35 87.85,25.6 87.8,25.55 V 25.5 L 88.7,24.95 90,23.7 q 0.55,1.5 1.9,2.65 3.1,2.6 9.7,2.6 l 1.35,-0.3 m -18.35,4.45 0.35,0.25 0.15,0.35 0.15,0.55 0.05,0.3 -0.55,0.25 -0.65,0.1 h -0.05 l -1,-0.45 -0.4,-0.75 V 33.3 L 84,33.05 84.55,33.1 h 0.05 m 2.2,0.25 -0.05,0.35 q -0.15,-0.75 -0.7,-1.25 h 0.1 0.05 l 0.6,0.9 m -5.5,-0.9 -0.05,0.5 v 0.5 l 0.2,1.3 0.2,0.4 0.4,0.5 -0.7,0.15 q -0.5,0 -1.1,-1.3 L 79.65,33 79.6,32.9 79.65,32.85 V 32.7 32.65 l 2.25,-0.95 0.8,-0.45 0.15,0.15 0.2,0.15 h -0.2 q -1.25,0.1 -1.55,0.9 M 68.65,17.55 q -0.05,1.6 -0.45,2 L 67.25,20.4 Q 67,18.2 65.05,16.7 62,14.4 55.5,14.55 49,14.4 45.95,16.7 44,18.2 43.75,20.4 L 42.8,19.55 q -0.4,-0.4 -0.45,-2 0.6,-1.25 1.8,-2.3 1.5,-1.35 3.95,-2.45 l 2.55,-0.9 q 0.75,0.55 1.75,0.85 l 1.45,0.3 0.1,0.05 1.4,0.05 h 0.15 0.15 l 1.4,-0.05 0.1,-0.05 1.45,-0.3 1.75,-0.85 2.55,0.9 q 2.45,1.1 3.95,2.45 1.2,1.05 1.8,2.3 m -7.6,3.6 0.2,0.2 -0.6,-0.2 h 0.4 m 0.7,3.05 -0.2,0.7 -0.3,0.2 -0.45,0.1 q -1.5,0 -2.15,-1.65 0,-1.3 1.55,-1 1.2,0.2 1.45,1.1 l 0.1,0.55 m 0.85,-1.65 q 0.85,0.55 1.6,0.75 l 0.4,0.4 v 0.05 l -1,0.7 -0.8,0.75 0.2,-0.8 V 24.3 24 l -0.4,-1.45 m 7.45,2.1 1.6,-0.05 h 0.2 l 0.65,0.8 v 0.15 L 72.4,26.4 72.3,26.6 72.05,26.8 71.3,26.95 70.25,26.7 69.8,26.15 69.7,25.9 69.55,25.3 v -0.1 l 0.05,-0.4 0.1,-0.1 0.35,-0.05 M 51.15,7.2 Q 51.7,6.85 52.25,6.55 L 52.85,6.2 53,6.1 l 1.05,-0.65 1.1,-0.7 0.35,-0.2 0.35,0.2 1.1,0.7 1.05,0.65 0.15,0.1 0.6,0.35 1.1,0.65 Q 59.6,8.6 58.45,9.35 L 57.9,9.65 57.8,9.7 56.35,10.1 55.8,10.15 55.5,10.2 55.2,10.15 54.65,10.1 53.2,9.7 53.1,9.65 52.55,9.35 Q 51.4,8.6 51.15,7.2 M 45.5,9.65 v 0.1 q -2.95,1.4 -4,3.4 -0.35,0.5 -0.45,1.15 l -0.9,0.95 q -0.85,1.05 -2.3,4.35 -1.2,2.65 -2.65,3.75 -0.8,0.6 -1.9,1 l -2.5,0.5 -1.95,0.1 -1.55,-0.1 q -1.8,-0.25 -3.2,-1 l -2.05,-1.7 -0.6,-0.75 -0.1,-0.3 -0.1,-0.45 q 1.05,0.55 3.15,0.55 3.25,0 5.6,-1.85 1.35,-1.1 3.45,-4 2.1,-2.95 3.5,-4.05 2.35,-1.85 5.65,-1.85 l 2.9,0.2 m 8.15,13.3 -0.05,-0.2 q 0.6,0.8 1.5,1.15 l -0.85,1.15 h -1.1 q 0.5,-0.8 0.5,-1.55 v -0.15 -0.4 m -4.4,1.25 0.1,-0.55 q 0.25,-0.9 1.45,-1.1 1.55,-0.3 1.55,1 -0.65,1.65 -2.15,1.65 l -0.45,-0.1 -0.3,-0.2 -0.2,-0.7 M 48.4,22.55 Q 48.05,23.15 48,24 v 0.3 0.1 l 0.2,0.8 -0.8,-0.75 -1,-0.7 V 23.7 l 0.4,-0.4 1.6,-0.75 m -7.45,2.1 0.35,0.05 0.1,0.1 0.05,0.4 v 0.1 L 41.3,25.9 41.2,26.15 40.75,26.7 39.7,26.95 38.95,26.8 38.7,26.6 38.6,26.4 38.5,25.55 V 25.4 l 0.65,-0.8 h 0.2 l 1.6,0.05 m 16.4,-1.3 v 0.15 q 0,0.75 0.5,1.55 L 57.9,25.1 57.6,25.05 56.75,25 55.9,23.9 l 1.5,-1.15 -0.05,0.2 v 0.4 m -6.65,12.25 0.65,0.05 h 0.05 l 1.5,-0.25 q -0.25,0.55 -0.25,1.05 l 0.1,0.6 h -0.1 q -0.9,0 -1.2,-0.7 L 50.85,36.2 50.7,35.6 m 0.6,-3.85 q 1.35,0.45 1.35,1.1 l 0.05,0.45 q -0.05,0.6 -0.9,0.75 H 51.3 L 50.15,33.9 h -0.2 L 49.9,32.6 q 0,-1.15 1.1,-0.9 h 0.1 l 0.2,0.05 m 3.65,1.45 h 0.4 q -0.2,0.35 -0.8,0.4 l -0.1,0.15 -0.4,0.2 0.05,-0.35 0.05,-0.6 0.8,0.2 M 52.2,27.8 51.75,27.75 V 27.7 l 0.85,-0.4 -0.4,0.5 m 7.5,3.95 0.2,-0.05 H 60 q 1.1,-0.25 1.1,0.9 l -0.05,1.3 h -0.2 L 59.7,34.05 H 59.2 Q 58.35,33.9 58.3,33.3 l 0.05,-0.45 q 0,-0.65 1.35,-1.1 M 56,33.5 55.65,33.2 h 0.4 0.05 L 56,33.5 m 2.35,2.95 -0.25,-1.05 1.5,0.25 h 0.05 l 0.65,-0.05 -0.15,0.6 -0.6,0.15 q -0.3,0.7 -1.2,0.7 h -0.1 l 0.1,-0.6 m -9.95,-2.3 -0.45,-0.1 0.75,-0.65 -0.05,0.8 v 0.05 l -0.25,-0.1 m -5.45,0.4 H 42.9 Q 42.3,36.3 41.6,36.3 L 41,36.1 q 0.75,-0.45 1.1,-1.7 l 0.25,-1.05 1.45,0.9 q -0.25,0.3 -0.85,0.3 M 40.6,31.15 H 40.55 L 39.9,31.05 H 39.6 L 39,31.1 q -1.55,0.2 -1.95,1.5 l -0.15,0.55 -0.05,0.6 0.05,0.65 -0.05,-0.05 -0.9,-1.5 q 0,-1.05 1.55,-1.85 l 2.75,-1.35 0.15,0.1 0.45,0.05 q -0.25,0.5 -0.25,1.15 v 0.2 m 3.1,-5 -0.15,0.1 -1.35,1.55 0.15,0.4 q 0,0.3 -1.2,0.7 L 41,29.05 h -0.25 l -2,0.5 q -0.65,0 -0.8,-0.5 l -0.1,-0.5 0.05,-0.15 -1.65,-1.65 1.15,-0.85 v 0.3 l -0.05,0.85 q 0,0.5 0.7,0.95 l 1.3,0.55 H 41 l 1.1,-0.85 0.4,-0.6 0.4,-0.8 0.1,-0.35 0.7,0.2 m 5.45,0.15 0.4,0.2 -0.25,0.1 -0.15,-0.3 m 24.45,-0.4 1.15,0.85 -1.65,1.65 0.05,0.15 -0.1,0.5 q -0.15,0.5 -0.8,0.5 l -2,-0.5 H 70 L 69.85,28.9 q -1.2,-0.4 -1.2,-0.7 0,-0.25 0.15,-0.4 l -1.35,-1.55 -0.15,-0.1 0.7,-0.2 0.1,0.35 0.4,0.8 0.4,0.6 q 0.5,0.55 1.1,0.85 h 1.65 L 72.95,28 q 0.7,-0.45 0.7,-0.95 L 73.6,26.2 v -0.3 m 0.5,7.25 -0.15,-0.55 Q 73.55,31.3 72,31.1 l -0.6,-0.05 h -0.3 l -0.65,0.1 H 70.4 v -0.2 L 70.15,29.8 70.6,29.75 70.75,29.65 73.5,31 q 1.55,0.8 1.55,1.85 l -0.9,1.5 -0.05,0.05 0.05,-0.65 -0.05,-0.6 m -1.5,0.45 -0.2,0.8 -0.45,0.2 -0.8,0.05 -0.5,-0.45 -0.25,-0.55 q 0,-0.8 1.1,-0.85 1.1,0 1.1,0.8 m -11.65,-2.85 -0.2,-0.1 0.1,-0.05 0.1,0.15 m 0.75,-3.05 0.1,-0.05 v 0.05 h -0.1 m 0.15,3.95 1.75,1.25 -0.45,1.1 -0.55,0.15 -0.25,0.1 V 34.2 L 62.25,32.95 62.05,32.2 61.8,31.65 V 31.6 l 0.05,0.05 m 6.2,2.9 -0.85,-0.3 1.45,-0.9 0.25,1.05 q 0.35,1.25 1.1,1.7 l -0.6,0.2 q -0.7,0 -1.3,-1.75 h -0.05 m -60,-5.9 q 0.4,0.3 1.35,0.3 6.6,0 9.7,-2.6 1.35,-1.15 1.9,-2.65 l 1.3,1.25 0.9,0.55 v 0.05 l -0.05,0.05 -0.75,0.75 -0.75,0.75 -0.75,0.65 q -2.95,2.2 -7.5,3.15 H 6.85 l -0.8,-0.2 q 0.85,-1.2 2,-2.05 m 22.7,5.85 q -0.6,1.3 -1.1,1.3 l -0.7,-0.15 0.4,-0.5 0.2,-0.4 0.2,-1.3 v -0.5 l -0.05,-0.5 -0.55,-0.65 0.05,-0.05 1.35,0.6 -0.1,0.7 0.05,0.9 0.3,0.5 -0.05,0.05 m 7.65,-0.9 q 0,-0.8 1.1,-0.8 1.1,0.05 1.1,0.85 l -0.25,0.55 -0.5,0.45 -0.8,-0.05 -0.45,-0.2 -0.2,-0.8 M 24.2,33.35 25.25,32 25.45,31.8 25.6,31.65 26,31.85 25.65,32 H 25.6 q -1.1,0.55 -1.35,1.7 L 24.2,33.35 m 4.15,-0.05 v 0.4 q 0,0.4 -0.4,0.75 l -1,0.45 H 26.9 l -0.65,-0.1 -0.55,-0.25 0.05,-0.3 0.15,-0.55 0.15,-0.35 0.35,-0.25 h 0.05 L 27,33.05 28.35,33.3"
         fill="#959595"
         fill-rule="evenodd"
         stroke="none"
         id="path42" />
    </g>
    <g
       id="sprite4"
       transform="translate(0,-6.85)">
      <use
         ffdec:characterId="247"
         height="72.150002"
         transform="translate(0,6.85)"
         width="31.9"
         xlink:href="#shape5"
         id="use42" />
    </g>
    <g
       id="shape5"
       transform="translate(0,-6.85)">
      <path
         d="m 31.8,7.7 0.1,5.1 q 0,6.75 -5.9,18.4 -5.9,11.65 -7.85,16 l 0.2,0.05 0.15,0.5 -0.05,0.4 0.1,0.2 0.5,0.45 0.1,1.5 -0.3,1.45 3.45,8.1 q 2.1,5.45 2.1,10.3 l -0.1,5.6 -0.15,1.4 0.1,0.1 0.4,0.8 -0.4,0.9 L 24.2,79 H 3 L 2.65,77.95 2.4,75.8 q 0,-9.15 4.15,-18.25 1.35,-3 2.5,-4.5 L 9,53 Q 8.55,52.45 8.55,51.15 L 8.6,50.3 8.55,50 8.75,49.1 8.9,48.2 Q 7.2,45.3 3.7,36.55 L 1.15,29.8 Q 0.3,27.1 0.3,23.8 L 0.45,18.2 0.1,16.45 0,14.45 Q 0,11.3 2.1,8.15 L 2.2,8.05 2,7.25 2.05,6.85 h 29.8 L 31.9,7.2 31.8,7.7 m -8.75,22.55 0.2,-0.4 0.75,-1.4 0.8,-1.6 0.1,-0.25 1.85,-3.85 0.1,-0.3 0.05,-0.1 q 1.5,-3.7 1.9,-11.2 L 29,9 V 8.9 8.5 L 28.6,8.55 26.9,8.6 26.5,8.65 h -0.2 -0.75 -0.3 -0.1 -1.5 V 9.3 9.35 l 0.55,1.35 v 1.4 q 0,4.75 -4.1,13.3 l -1.55,3.35 Q 16.4,35.3 16.3,40.7 l 0.4,2.15 q 1.1,-2.5 3.85,-7.8 l 2.5,-4.8 M 9.8,43.85 q 1.35,3 1.35,4.7 v 0.2 L 16.1,48.55 15.85,47.85 14.8,45 14.7,42.9 q -0.3,-2.15 -0.3,-4.1 0,-4.15 1.05,-6.85 l 2.45,-5.05 1.4,-3.75 2.5,-7 1.25,-5.1 0.25,-2.4 H 22.95 L 21,8.7 h -6.65 l -1.45,4.2 q -2.4,8.05 -2.4,15.2 l 0.2,4.6 0.15,2.15 0.1,1.2 0.1,1.05 -0.5,-1.3 -0.2,-0.65 -0.1,-0.4 L 9.55,30.8 9.3,29.35 q -0.8,-5.8 -0.8,-7.85 0,-3.35 1.95,-9.3 l 1.3,-3.5 h -1.1 L 4,8.75 3.15,12.3 l -1,3.55 -0.1,1.2 q 0,5.9 1.5,11.7 L 3.9,29.9 q 1.05,3.7 2.7,7.35 l 3.15,6.45 0.05,0.15 m 7.65,7.85 -3,0.35 q -3.3,0 -4.75,-0.65 l -0.05,0.25 0.3,0.55 q 0.6,-0.45 0.7,0.45 L 13.6,53 q 2.5,0 3.7,-1.15 l 0.15,-0.15 m -0.2,1.85 q -1.35,0.8 -3.55,0.8 L 10.3,53.9 7.65,60.3 q -3,7.35 -3,13.1 0,1 0.55,4.05 l 10,-0.95 6.75,0.05 L 22,75.9 q 0,-6 -2.35,-14.4 l -2.4,-7.85 v -0.1 m -0.65,-4 -3.5,0.5 -3.15,-0.4 q 0.45,0.65 2.35,0.7 h 4.35 l 0.3,-0.3 -0.35,-0.5"
         fill="#919191"
         fill-rule="evenodd"
         stroke="none"
         id="path43" />
      <path
         d="m 25.15,8.65 0.15,0.65 0.45,6.35 -0.05,1.75 -0.8,3.55 -1.3,4.8 0.1,0.6 -0.4,2.65 -0.25,1.25 -2.5,4.8 q -2.75,5.3 -3.85,7.8 L 16.3,40.7 q 0.1,-5.4 2.25,-11.95 L 20.1,25.4 q 4.1,-8.55 4.1,-13.3 V 10.7 L 23.65,9.35 V 9.3 8.65 h 1.5 M 21,8.7 22.95,8.65 h 0.35 l -0.25,2.4 -1.25,5.1 -2.5,7 -1.4,3.75 -2.45,5.05 q -1.05,2.7 -1.05,6.85 0,1.95 0.3,4.1 l 0.1,2.1 1.05,2.85 0.25,0.7 -4.95,0.2 v -0.2 q 0,-1.7 -1.35,-4.7 L 9.9,43.2 8.35,37.95 6.45,32.05 6.05,26.95 5.8,20.9 q 0,-2.6 2.6,-7.95 L 10.65,8.7 h 1.1 l -1.3,3.5 q -1.95,5.95 -1.95,9.3 0,2.05 0.8,7.85 l 0.25,1.45 0.7,3.95 0.1,0.4 0.2,0.65 0.5,1.3 -0.1,-1.05 0.4,0.05 q 0.8,0 2.75,-4.6 1.6,-3.6 3.2,-8.3 3.75,-10.85 3.75,-12.95 L 21,8.8 V 8.7 m -4.4,40.85 0.35,0.5 -0.3,0.3 H 12.3 Q 10.4,50.3 9.95,49.65 l 3.15,0.4 3.5,-0.5 m 0.65,4 v 0.1 l 2.4,7.85 Q 22,69.9 22,75.9 L 21.95,76.55 15.2,76.5 5.2,77.45 Q 4.65,74.4 4.65,73.4 q 0,-5.75 3,-13.1 l 2.65,-6.4 3.4,0.45 q 2.2,0 3.55,-0.8 m 0.2,-1.85 -0.15,0.15 Q 16.1,53 13.6,53 l -2.95,-0.35 q -0.1,-0.9 -0.7,-0.45 L 9.65,51.65 9.7,51.4 q 1.45,0.65 4.75,0.65 l 3,-0.35"
         fill="#959595"
         fill-rule="evenodd"
         stroke="none"
         id="path44" />
      <path
         d="m 25.15,8.65 h 0.1 0.3 0.75 0.2 L 26.9,8.6 28.6,8.55 29,8.5 V 8.9 9 l -0.2,2.15 q -0.4,7.5 -1.9,11.2 l -0.05,0.1 -0.1,0.3 -1.85,3.85 -0.1,0.25 -0.8,1.6 -0.75,1.4 -0.2,0.4 0.25,-1.25 0.4,-2.65 -0.1,-0.6 1.3,-4.8 0.8,-3.55 0.05,-1.75 L 25.3,9.3 25.15,8.65 M 21,8.7 v 0.1 l 0.05,1.45 q 0,2.1 -3.75,12.95 -1.6,4.7 -3.2,8.3 -1.95,4.6 -2.75,4.6 l -0.4,-0.05 -0.1,-1.2 -0.15,-2.15 -0.2,-4.6 q 0,-7.15 2.4,-15.2 L 14.35,8.7 H 21 M 10.65,8.7 8.4,12.95 Q 5.8,18.3 5.8,20.9 l 0.25,6.05 0.4,5.1 1.9,5.9 L 9.9,43.2 9.8,43.85 9.75,43.7 6.6,37.25 Q 4.95,33.6 3.9,29.9 L 3.55,28.75 q -1.5,-5.8 -1.5,-11.7 l 0.1,-1.2 1,-3.55 L 4,8.75 10.65,8.7"
         fill="#999999"
         fill-rule="evenodd"
         stroke="none"
         id="path45" />
    </g>
    <g
       id="sprite5">
      <use
         ffdec:characterId="66"
         height="10.7"
         width="27.1"
         xlink:href="#shape6"
         id="use45" />
    </g>
    <g
       id="shape6">
      <path
         d="m 26.4,3.55 q 0.7,0.75 0.7,1.8 l -0.45,2 q -0.9,2 -3.45,2 -0.95,0 -1.65,-0.6 L 20.7,8.1 q -0.25,0 -2.65,1.3 -2.45,1.3 -5.5,1.3 -3.6,0 -5.85,-1.5 L 4.2,6.75 Q 2.8,5.3 0.85,4.15 0,3.65 0,2.2 0,0.85 0.9,0.3 1.45,-0.05 2.35,0 3.65,0 5.65,0.9 L 5.7,0.95 7.55,2.7 q 2.2,1.55 5.75,1.55 3,0 4.75,-1.05 1.75,-1.1 3.7,-1.1 3.35,0 4.65,1.45 m -1.35,1.8 q 0,-0.2 -0.9,-0.65 -1,-0.5 -1.95,-0.5 -1.1,0 -3.7,1.3 l -3.05,1.4 h -4.2 Q 8.4,6.6 6.2,4.2 4.3,2.1 1.75,2.55 2.8,3.1 5.8,5.95 q 3.25,2.6 6.8,2.6 2.4,0 4.95,-1.35 2.6,-1.35 3.4,-1.35 0.4,0 1.2,0.7 L 23.5,7.2 q 0.7,0 1.15,-0.75 0.4,-0.6 0.4,-1.1"
         fill="#898989"
         fill-rule="evenodd"
         stroke="none"
         id="path46" />
      <path
         d="m 25.05,5.35 q 0,0.5 -0.4,1.1 Q 24.2,7.2 23.5,7.2 L 22.15,6.55 q -0.8,-0.7 -1.2,-0.7 -0.8,0 -3.4,1.35 Q 15,8.55 12.6,8.55 9.05,8.55 5.8,5.95 2.8,3.1 1.75,2.55 4.3,2.1 6.2,4.2 8.4,6.6 11.25,6.9 h 4.2 L 18.5,5.5 q 2.6,-1.3 3.7,-1.3 0.95,0 1.95,0.5 0.9,0.45 0.9,0.65"
         fill="#939393"
         fill-rule="evenodd"
         stroke="none"
         id="path47" />
    </g>
    <g
       id="sprite6">
      <use
         ffdec:characterId="17"
         height="10.95"
         width="17.6"
         xlink:href="#shape7"
         id="use47" />
    </g>
    <g
       id="shape7">
      <path
         d="m 17.6,5.4 v 0.8 q 0,2.35 -2.65,2.35 L 14.1,8.4 14.3,9.3 q 0,1.65 -4.4,1.65 H 8.7 7.7 Q 3.3,10.95 3.3,9.3 L 3.5,8.4 2.65,8.55 Q 0,8.55 0,6.2 L 0.05,5.4 0.25,3.85 Q 1,2.1 3.45,2.55 3.55,1.4 3.95,1 4.7,0.2 7.05,0 L 8.75,0.05 10.55,0 q 2.35,0.2 3.1,1 0.4,0.4 0.5,1.55 2.45,-0.45 3.2,1.3 L 17.6,5.4 M 16.1,5.2 Q 16.25,3.9 14.95,3.9 L 14.2,4.3 Q 13.7,4.7 13.05,4.7 12.3,4.7 12.3,4.2 L 12.55,3.05 Q 12.8,1.5 10.15,1.4 V 1.5 L 8.9,1.4 7.45,1.5 V 1.4 Q 4.8,1.5 5.05,3.05 L 5.3,4.2 Q 5.3,4.7 4.55,4.7 3.9,4.7 3.4,4.3 L 2.65,3.9 Q 1.35,3.9 1.5,5.2 V 5.4 L 1.55,6.2 1.95,6.65 3.15,6.9 4,6.7 4.55,6.4 H 4.6 l 0.35,-0.15 0.1,0.2 1.4,-0.1 h 2.6 1.1 1 l 1.4,0.1 0.1,-0.2 L 13,6.4 h 0.05 l 0.55,0.3 0.85,0.2 1.2,-0.25 0.4,-0.45 0.05,-0.8 V 5.2 M 12.45,7.8 12.4,7.35 8.6,7.15 5.2,7.35 5.15,7.8 Q 5.2,8.55 6,8.7 L 7.45,8.8 V 8.7 L 8.8,8.8 10.15,8.7 V 8.8 L 11.6,8.7 q 0.8,-0.15 0.85,-0.9"
         fill="#898989"
         fill-rule="evenodd"
         stroke="none"
         id="path48" />
      <path
         d="M 12.45,7.8 Q 12.4,8.55 11.6,8.7 L 10.15,8.8 V 8.7 L 8.8,8.8 7.45,8.7 V 8.8 L 6,8.7 Q 5.2,8.55 5.15,7.8 L 5.2,7.35 8.6,7.15 12.4,7.35 12.45,7.8 M 16.1,5.2 V 5.4 L 16.05,6.2 15.65,6.65 14.45,6.9 13.6,6.7 13.05,6.4 H 13 l -0.35,-0.15 -0.1,0.2 -1.4,-0.1 h -1 -1.1 -2.6 L 5.05,6.45 4.95,6.25 4.6,6.4 H 4.55 L 4,6.7 3.15,6.9 1.95,6.65 1.55,6.2 1.5,5.4 V 5.2 Q 1.35,3.9 2.65,3.9 L 3.4,4.3 Q 3.9,4.7 4.55,4.7 5.3,4.7 5.3,4.2 L 5.05,3.05 Q 4.8,1.5 7.45,1.4 V 1.5 L 8.9,1.4 10.15,1.5 V 1.4 q 2.65,0.1 2.4,1.65 L 12.3,4.2 q 0,0.5 0.75,0.5 0.65,0 1.15,-0.4 l 0.75,-0.4 q 1.3,0 1.15,1.3"
         fill="#939393"
         fill-rule="evenodd"
         stroke="none"
         id="path49" />
    </g>
    <g
       id="sprite7">
      <use
         ffdec:characterId="251"
         height="19.5"
         width="43.299999"
         xlink:href="#shape8"
         id="use49" />
      <use
         ffdec:characterId="61"
         height="8.9499998"
         transform="matrix(0.8477,0,0,0.8477,16.05,4.85)"
         width="15.2"
         xlink:href="#sprite0"
         id="use50" />
    </g>
    <g
       id="shape8">
      <path
         d="M 3.85,16.5 H 3.25 L 3.05,16.25 Q 3.5,12.1 7.9,8 13.1,3.05 20.15,3 h 7 q 5.85,0.55 9.8,4.6 3,3.05 3.85,6.55 v 1.5 L 39.55,15.7 Q 38.3,13.1 37.3,11.65 33.2,5.5 24.3,5.5 q -10,0 -16.1,5.8 -1.5,1.4 -3.35,3.95 l -1,1.25"
         fill="#9a9a9a"
         fill-rule="evenodd"
         stroke="none"
         id="path50" />
      <path
         d="m 39.55,15.7 1.25,-0.05 v -1.5 Q 39.95,10.65 36.95,7.6 33,3.55 27.15,3 h -7 Q 13.1,3.05 7.9,8 3.5,12.1 3.05,16.25 l 0.2,0.25 h 0.6 l 7.05,-0.1 9.8,-0.55 13.2,-0.1 5.65,-0.05 m 3.75,-0.2 v 0.1 l -0.05,0.6 -0.15,0.65 Q 42.75,18 42,18.35 H 33.9 L 31.4,18.4 29,18.6 23.8,19.1 11.4,19.5 H 4.55 Q 1.2,19.35 0.35,18.35 0,17.95 0,16.5 0,11.45 5.2,6.25 11.2,0.25 19.5,0 h 8.15 q 15.6,3.75 15.65,15.4 v 0.1"
         fill="#898989"
         fill-rule="evenodd"
         stroke="none"
         id="path51" />
      <path
         d="m 3.85,16.5 1,-1.25 Q 6.7,12.7 8.2,11.3 14.3,5.5 24.3,5.5 q 8.9,0 13,6.15 1,1.45 2.25,4.05 l -5.65,0.05 -13.2,0.1 -9.8,0.55 -7.05,0.1"
         fill="#8e8e8e"
         fill-rule="evenodd"
         stroke="none"
         id="path52" />
    </g>
    <g
       id="sprite8">
      <use
         ffdec:characterId="21"
         height="52.75"
         width="7.5999999"
         xlink:href="#shape9"
         id="use52" />
    </g>
    <g
       id="shape9">
      <path
         d="M 7.6,1.45 7.55,2.95 V 20.3 H 7.6 q 0.05,1.05 -0.3,2.1 L 7.1,22.85 Q 6.6,24.5 6.7,26.3 v 0.15 q -0.1,1.8 0.4,3.45 l 0.2,0.45 q 0.35,1.05 0.3,2.1 H 7.55 V 49.8 L 7.6,51.3 Q 7.4,52.55 6.35,52.55 H 6.3 l -1.6,0.2 -4.15,-0.5 Q 0.25,52.1 0.2,51.55 L 0,50.75 0.05,50.25 v -17.8 q 1.15,-3.05 1,-6.15 0.1,-3 -1,-6 V 2.5 L 0,2 0.2,1.2 Q 0.25,0.65 0.55,0.5 L 4.7,0 6.3,0.2 H 6.35 Q 7.4,0.2 7.6,1.45 M 4.8,10.5 2.6,10.45 V 11.5 H 4.1 L 4.8,11.45 V 10.5 M 3.6,2.75 2.6,2.65 V 9 H 4.8 V 8.75 Q 4.9,5.2 5.15,3.2 L 4.5,2.75 H 3.6 M 4.8,17 V 12.7 L 2.6,12.65 v 7.65 q 0.4,3 0.35,6 v 0.15 q 0.05,3 -0.35,6 v 7.65 l 2.2,-0.05 v -4.3 -3.3 Q 4.45,29.05 4.6,26.3 4.45,23.6 4.8,20.3 V 17 M 2.6,43.75 V 50.1 L 3.6,50 H 4.5 Q 4.7,49.65 5.15,49.55 4.9,47.55 4.8,44 V 43.75 H 2.6 m 2.2,-1.5 V 41.3 L 4.1,41.25 H 2.6 v 1.05 l 2.2,-0.05"
         fill="#898989"
         fill-rule="evenodd"
         stroke="none"
         id="path53" />
      <path
         d="M 3.6,2.75 H 4.5 L 5.15,3.2 Q 4.9,5.2 4.8,8.75 V 9 H 2.6 V 2.65 l 1,0.1 m 1.2,7.75 v 0.95 L 4.1,11.5 H 2.6 v -1.05 l 2.2,0.05 m 0,31.75 -2.2,0.05 v -1.05 h 1.5 l 0.7,0.05 v 0.95 m -2.2,1.5 H 4.8 V 44 Q 4.9,47.55 5.15,49.55 4.7,49.65 4.5,50 H 3.6 l -1,0.1 V 43.75 M 4.8,17 v 3.3 q -0.35,3.3 -0.2,6 -0.15,2.75 0.2,6.15 v 3.3 4.3 L 2.6,40.1 v -7.65 q 0.4,-3 0.35,-6 V 26.3 Q 3,23.3 2.6,20.3 V 12.65 L 4.8,12.7 V 17"
         fill="#8e8e8e"
         fill-rule="evenodd"
         stroke="none"
         id="path54" />
    </g>
    <g
       id="sprite9"
       transform="translate(0,1.2)">
      <use
         ffdec:characterId="37"
         height="21.700001"
         transform="translate(0,5.3)"
         width="10.1"
         xlink:href="#shape10"
         id="use54" />
      <use
         ffdec:characterId="9"
         height="8.3000002"
         transform="translate(3.45,-1.2)"
         width="3.45"
         xlink:href="#sprite10"
         id="use55" />
    </g>
    <g
       id="shape10"
       transform="translate(5.05,8.2)">
      <path
         d="M 1,-7.2 0.85,-5.45 2,-5.15 2.55,-5.4 Q 4.1,-6.1 4.9,-6.05 l 0.1,0.1 0.05,0.35 q 0,0.3 -0.4,0.65 V 13 L 4.5,13.1 2.25,13.5 -4,12.95 Q -4.4,12.8 -4.4,12 l 0.15,-0.55 -0.1,-1.05 V 7.95 L -4.6,2 -5.05,1.2 V -0.05 L -4.7,-2.8 -4.9,-2.9 -4.95,-3.35 q 0,-1.3 1.4,-1.3 H -3.5 Q -3.1,-5 -2.6,-5 l 1.45,0.3 0.95,-0.65 0.35,-0.1 -0.2,-0.9 L 0,-7.2 q 0.1,-0.45 0.55,-1 0.45,0.25 0.45,1 m -0.65,3.85 -2.2,0.4 V -1 q 0,3.95 -0.3,9 l 0.05,2.8 4.15,-0.2 h 0.7 Q 2.45,8.7 2.35,5.35 v -1.5 h -0.1 q -1.75,0 -2.2,-1.3 L -0.1,1.1 0.25,-1.55 0.55,-3.3 0.35,-3.35 m 1.5,-0.4 -0.1,0.5 -0.25,0.05 q 0.4,1.1 0.25,1.75 L 1.25,1 1.3,1.75 q 0.2,0.5 0.95,0.5 h 0.1 L 2.3,-2.35 2.35,-3.9 1.85,-3.75"
         fill="#6b6b6b"
         fill-rule="evenodd"
         stroke="none"
         id="path55" />
      <path
         d="M 1.85,-3.75 2.35,-3.9 2.3,-2.35 2.35,2.25 H 2.25 Q 1.5,2.25 1.3,1.75 L 1.25,1 1.75,-1.45 Q 1.9,-2.1 1.5,-3.2 l 0.25,-0.05 0.1,-0.5 m -1.5,0.4 0.2,0.05 -0.3,1.75 -0.35,2.65 0.15,1.45 q 0.45,1.3 2.2,1.3 h 0.1 v 1.5 q 0.1,3.35 0.4,5.25 H 2.05 L -2.1,10.8 -2.15,8 q 0.3,-5.05 0.3,-9 v -1.95 l 2.2,-0.4"
         fill="#747474"
         fill-rule="evenodd"
         stroke="none"
         id="path56" />
    </g>
    <g
       id="sprite10"
       transform="translate(0.7,1.2)">
      <use
         ffdec:characterId="6"
         height="6.3499999"
         width="2.6500001"
         xlink:href="#shape11"
         id="use56" />
    </g>
    <g
       id="shape11">
      <path
         d="m 1.7,2.65 0.15,0.1 V 2.65 H 1.7 M 2,0 2.6,2.3 2.65,3.9 2.55,5.35 q -0.25,1 -1.2,1 -0.85,0 -1.2,-0.95 L 0,4.45 Q 0,3.4 0.7,1.75 1.45,0.05 2,0 M 1.15,4.25 V 4.1 L 1.05,4.45 1.2,4.85 1.15,4.25"
         fill="#ffffff"
         fill-opacity="0.74902"
         fill-rule="evenodd"
         stroke="none"
         id="path57" />
    </g>
    <g
       id="sprite11"
       transform="translate(5.45,21.75)">
      <use
         ffdec:characterId="253"
         height="19.75"
         transform="translate(-3.8,19.1)"
         width="64.25"
         xlink:href="#shape12"
         id="use57" />
      <use
         ffdec:characterId="14"
         height="10.25"
         transform="matrix(0.3393,-0.5877,0.5877,0.3393,-5.45,28.7)"
         width="25.700001"
         xlink:href="#sprite12"
         id="use58" />
      <use
         ffdec:characterId="254"
         height="38.849998"
         transform="translate(2.4)"
         width="168.85001"
         xlink:href="#shape14"
         id="use59" />
      <use
         ffdec:characterId="59"
         height="12.8"
         transform="translate(30.95,19.6)"
         width="54.549999"
         xlink:href="#sprite13"
         id="use60" />
      <use
         ffdec:characterId="256"
         height="29.049999"
         transform="matrix(0.8069,0,0,0.8069,5.3,-21.75)"
         width="13.25"
         xlink:href="#sprite14"
         id="use61" />
      <use
         ffdec:characterId="57"
         height="43.349998"
         transform="rotate(90,23.975,21.425)"
         width="26.85"
         xlink:href="#sprite15"
         id="use62" />
      <use
         ffdec:characterId="61"
         height="8.9499998"
         transform="matrix(0.6358,0,0,0.6358,78.4,13.85)"
         width="15.2"
         xlink:href="#sprite16"
         id="use63" />
      <use
         ffdec:characterId="14"
         height="10.25"
         transform="matrix(-0.3393,-0.5877,-0.5877,0.3393,172.9,28.7)"
         width="25.700001"
         xlink:href="#sprite12"
         id="use64" />
      <use
         ffdec:characterId="59"
         height="12.8"
         transform="matrix(-1,0,0,1,136.5,19.6)"
         width="54.549999"
         xlink:href="#sprite13"
         id="use65" />
      <use
         ffdec:characterId="256"
         height="29.049999"
         transform="matrix(-0.8069,0,0,0.8069,162.15,-21.75)"
         width="13.25"
         xlink:href="#sprite14"
         id="use66" />
      <use
         ffdec:characterId="57"
         height="43.349998"
         transform="matrix(0,1,1,0,122.05,-2.55)"
         width="26.85"
         xlink:href="#sprite15"
         id="use67" />
    </g>
    <g
       id="shape12"
       transform="translate(3.8,-19.1)">
      <path
         d="m 8.85,21.1 -0.4,1.75 -0.15,0.45 -0.1,0.4 -0.9,2.7 -1.15,2.4 -0.55,1 -1.15,1.85 -0.4,0.65 0.9,-0.5 0.85,-0.4 1,-0.95 0.9,-1.2 2.2,-3.85 0.5,-1.85 0.05,-1.15 q -0.1,-0.85 -0.8,-1.25 L 8.85,21.1 m 0.6,-2 q 0.7,0.15 1.25,0.55 1.25,0.7 1.65,1.85 l 0.15,1.4 1.05,1.9 1.5,5.55 q 0.15,2.55 -0.15,4.25 1.8,-0.65 4.85,-0.8 L 21,33.75 q 1.9,-0.05 3.3,0.05 3.05,0.2 3.75,0.9 0.5,0.5 0.15,0.85 L 24.85,35.5 q -3.85,0.1 -6.6,1 l -2.6,1 1.3,1.35 h -2 l -1,-0.6 q -2,0.95 -2.1,-0.15 -0.4,0 -0.55,-0.2 L 10.9,36.8 Q 9.2,36.1 7.6,35.8 L 3.4,35.15 Q 1.3,35.05 1.3,34.3 0.85,34.05 0.95,33.75 l 1.35,-2.6 -4,-0.65 q -2.7,-0.1 -1.95,-1.35 0.6,-1.05 1.8,-1.35 1.9,-0.5 5.45,1.05 l 2,-4.65 0.45,-1 0.1,-0.35 0.3,-0.65 0.15,-0.4 0.35,-1.05 Q 7.4,19.65 8,19.4 8.55,19 9.45,19.1 m 2.3,6.95 -1.15,2.1 0.95,2.55 0.95,4.05 0.6,-1.9 -0.15,-2.9 -1.1,-4.15 -0.1,0.25 m -4.6,6.85 1,0.35 -0.9,-0.45 -0.1,0.1 M 9.55,32.1 9.1,30.85 8.95,31.05 8.6,31.5 9.55,32.1"
         fill="#6b6b6b"
         fill-rule="evenodd"
         stroke="none"
         id="path67" />
      <path
         d="m 44.8,31.7 -1.1,4 1.95,-1.9 1.1,-0.85 -0.2,-1.2 -0.1,0.1 -0.15,-0.2 0.05,-0.25 -1.55,0.3 m -1.3,5.25 1,-0.2 2.7,0.15 0.3,0.1 -0.55,-3.15 q -1.85,1.4 -3.45,3.1 m 1.55,-6.15 0.5,-0.05 0.85,0.2 -0.35,-3.9 -1,3.75 m 4.8,-0.65 -1.45,0.35 -0.85,0.3 0.25,1.4 1.8,-1.1 q 0.35,-0.3 0.8,-0.45 l -0.55,-0.5 m -2.4,0.1 0.35,-0.15 q 0.9,-0.5 1.6,-0.5 l -1.55,-1.55 -1.1,-1.15 0.7,3.35 m 2.9,-3.15 0.15,-0.1 -1.45,-0.4 -2,-0.5 2.65,2.7 q 0.15,-0.95 0.65,-1.7 m 2.35,6 -1.75,-1.8 -0.35,0.15 q -1.4,0.75 -2.65,1.65 l 0.1,0.7 0.05,0.9 q 0.65,-0.5 1.65,-0.9 l 0.65,-0.25 2.3,-0.45 m -1.6,-2.85 q 2.6,-1.5 4.25,-2 l -3.8,-1 -0.1,0.1 -0.6,0.5 -0.55,1.6 0.8,0.8 M 54.85,29.65 55,29.5 q -1.75,0.55 -3.35,1.45 l 1.7,1.85 q 0.25,-1.45 1.5,-3.15 m 1.35,-0.6 -0.35,0.35 q -0.9,0.8 -1.9,3.8 l 0.15,0.05 0.2,0.4 -0.1,0.1 0.05,0.05 1.2,1.5 -0.3,0.2 -1.6,-1.55 -0.3,-0.05 -0.45,-0.1 q -1.05,-0.2 -1.9,0 l -0.25,0.05 q -1.2,0.3 -2.4,1.4 l 0.15,3.3 H 47.7 L 47.6,37.7 46.95,37.55 q -2.1,-0.55 -3.65,0 l -0.35,1 h -0.7 l -0.3,-0.15 q -0.2,-0.15 0.3,-2.25 l 3,-11.1 q 0.45,-0.5 0.75,-0.45 0.2,0.05 0.25,0.2 h 0.05 l 0.15,0.2 0.7,0.15 2.1,0.5 10.9,2.95 0.3,0.5 -0.3,0.3 -0.35,0.05 -2.6,-0.7 -1,0.3"
         fill="#9a9a9a"
         fill-rule="evenodd"
         stroke="none"
         id="path68" />
      <path
         d="m 8.85,21.1 0.8,0.05 q 0.7,0.4 0.8,1.25 l -0.05,1.15 -0.5,1.85 -2.2,3.85 -0.9,1.2 -1,0.95 -0.85,0.4 -0.9,0.5 0.4,-0.65 1.15,-1.85 0.55,-1 1.15,-2.4 0.9,-2.7 0.1,-0.4 0.15,-0.45 0.4,-1.75 m 2.9,4.95 0.1,-0.25 1.1,4.15 0.15,2.9 -0.6,1.9 -0.95,-4.05 -0.95,-2.55 1.15,-2.1"
         fill="#727272"
         fill-rule="evenodd"
         stroke="none"
         id="path69" />
    </g>
    <g
       id="sprite12">
      <use
         ffdec:characterId="13"
         height="10.25"
         width="25.700001"
         xlink:href="#shape13"
         id="use69" />
    </g>
    <g
       id="shape13">
      <path
         d="m 22.5,2.75 q 0.5,0.4 0.5,1.1 0,1.2 -1.05,1.95 -1.25,0.95 -4.2,1.5 H 11.2 Q 8.45,7.1 7.05,6.45 L 4.6,4.9 10.65,5 q 3.45,0 8.6,-1.3 L 22.5,2.75"
         fill="#727272"
         fill-rule="evenodd"
         stroke="none"
         id="path70" />
      <path
         d="m 23.95,0.4 q 0.95,0.45 1.45,1.7 0.35,0.95 0.3,2 0,2.15 -1.2,3.45 -1.75,1.9 -6.2,2.6 l -8.45,0.1 Q 0,8.25 0,3.3 0,2.15 0.5,2 L 7.8,1.75 16.05,0.95 19.9,0.45 21.55,0.1 q 1.7,-0.3 2.4,0.3 M 22.5,2.75 19.25,3.7 Q 14.1,5 10.65,5 L 4.6,4.9 7.05,6.45 Q 8.45,7.1 11.2,7.3 h 6.55 Q 20.7,6.75 21.95,5.8 23,5.05 23,3.85 23,3.15 22.5,2.75"
         fill="#6b6b6b"
         fill-rule="evenodd"
         stroke="none"
         id="path71" />
    </g>
    <g
       id="shape14"
       transform="translate(-2.4)">
      <path
         d="m 154.95,22.9 q -0.05,-0.75 0.15,-1.4 0.4,-1.15 1.65,-1.85 0.55,-0.4 1.25,-0.55 0.9,-0.1 1.45,0.3 0.6,0.25 1.05,1.35 l 0.35,1.05 0.15,0.4 0.3,0.65 0.05,0.05 h 3.7 q -1.05,1 -2.65,1.9 l -0.25,0.15 1.7,3.9 q 3.55,-1.55 5.45,-1.05 1.2,0.3 1.8,1.35 0.75,1.25 -1.95,1.35 l -4,0.65 1.35,2.6 -0.3,0.55 q -0.05,0.75 -2.15,0.85 l -4.2,0.65 q -1.6,0.3 -3.3,1 l -0.4,1.1 -0.55,0.2 q -0.1,1.1 -2.05,0.15 l -1.05,0.6 h -2 q 0.3,-0.6 1.3,-1.35 l -0.7,-0.3 h -1.3 -1.1 -0.95 -0.05 l -0.15,0.45 -0.3,0.35 -0.45,0.55 -0.6,0.3 h -19 l -0.4,-0.3 -0.1,-0.1 q -0.45,-0.5 -0.45,-1.15 V 37 h -3.3 l -0.05,-1 v -1.6 l -0.8,-0.6 -2.9,-2.3 -0.25,-0.2 H 48.5 l -0.25,0.2 -2.85,2.3 -0.85,0.6 V 36 l -0.05,1 h -3.3 v 0.3 l -0.45,1.15 -0.1,0.1 H 40.5 v 0.15 l -0.25,0.15 h -19 L 20.7,38.55 20.2,38 19.9,37.65 19.75,37.2 H 19.7 18.75 17.65 16.3 L 15,36.9 Q 13.4,36.55 11,33.15 L 10.85,30.55 10.1,29.85 7.85,27.2 Q 6.5,25.65 5.05,24.8 L 2.4,22.9 h 7 l 0.95,0.7 1.4,1.9 L 12,25 q 0.65,-1.25 1.7,-2.1 0.7,-0.65 1.6,-1.05 0.15,-0.35 0.7,-0.4 l 0.6,-0.1 0.5,-0.1 0.2,0.05 0.05,0.05 6.05,-0.3 h 18.55 3.85 2.6 V 21 H 45.75 41.95 22.2 v -0.2 h 13.75 v -1.15 h 95.55 v 1.15 h 13.75 V 21 h -19.75 -3.8 -2.65 v 0.05 h 2.6 3.85 18.55 l 6.05,0.3 0.05,-0.05 0.2,-0.05 0.5,0.1 0.6,0.1 q 0.55,0.05 0.7,0.4 0.9,0.4 1.65,1.05 l 0.7,0.75 0.45,-0.75 m 7.55,8.9 0.9,0.5 -0.4,-0.65 -1.1,-1.85 -0.6,-1 -1.05,-2.25 -0.1,-0.15 -0.85,-2.7 -0.15,-0.4 -0.1,-0.4 v -0.05 l -0.45,-1.75 -0.8,0.05 q -0.7,0.4 -0.8,1.25 v 0.5 l 0.05,0.65 0.05,0.1 0.45,1.75 2.2,3.85 0.9,1.2 1,0.95 0.85,0.4 M 154.05,0.25 h -4.45 q 2.35,-0.5 4.45,0 M 131.5,13.6 107.7,13.65 h -0.8 -46.35 -0.8 L 35.95,13.6 v -2.8 l 23.8,-0.05 h 0.8 46.35 0.8 l 23.8,0.05 v 2.8 m -6.35,12.4 0.35,-0.2 q 1.55,-0.9 2.45,-1.2 l 0.8,-0.2 q 1.95,0.1 3.65,1.05 l 0.8,0.5 0.05,0.05 0.15,0.05 3.2,2.55 3,0.05 q 0.65,0 1.15,-0.5 l 0.05,-0.05 0.35,0.1 0.25,-0.15 0.85,-0.75 0.4,-0.3 q 1,-0.7 1.95,-0.95 l 0.2,-0.05 1.3,0.05 0.5,0.15 q 1.4,0.55 1.9,1.7 0.6,0.75 0.6,1.95 V 29.9 L 149,31 q -0.3,0.75 -1.55,0.65 l -0.8,-0.3 v -0.3 l 0.5,-0.35 0.35,-0.3 0.05,-0.05 0.1,-0.1 0.15,-0.5 0.1,-0.35 -0.1,-0.45 q -0.25,-0.65 -1.3,-0.85 h -2.3 l -0.05,0.05 q -0.25,0.05 -0.45,0.25 l -0.3,0.3 -0.2,0.3 -0.05,1.15 q 0,0.55 0.35,1.25 l 0.35,0.65 q 0.65,1 1.65,1.7 l 0.05,0.05 0.15,0.1 3.4,0.05 1.25,-0.05 0.3,-0.05 1.75,-0.65 0.85,-1 q 0.3,-0.55 0.3,-2.25 0,-1.05 -0.5,-2 -0.6,-1.2 -1.9,-2.3 l -1,-0.9 -0.85,-0.8 h -33.2 v 0.5 h 0.2 l 0.9,0.15 0.1,0.05 0.95,0.6 0.05,0.15 0.1,0.25 0.15,0.3 0.1,0.8 -0.3,1.05 -0.05,0.1 -0.7,0.7 h 0.25 0.45 q 2.2,-0.1 4.6,-1.3 l 0.95,-0.5 0.5,-0.3 0.8,-0.5 m 31.15,1.05 0.1,0.65 0.25,1 0.25,-0.55 -0.6,-1.1 m -15.65,5.3 -0.9,-1 H 138 l -0.3,-0.1 -12.1,0.05 0.3,2.5 v 1 l 10.7,-0.3 3.05,0.05 q 0.6,-0.4 1.9,-0.6 l -0.05,-0.15 -0.45,-1.1 -0.4,-0.35 m -5.25,-3.1 -0.2,-0.15 -1.55,-1.25 Q 131.9,26.35 130,26 h -0.05 l -1.2,-0.15 -0.85,0.15 q -1.55,0.35 -3.65,2.1 l -1.5,1 -0.3,0.15 -0.45,0.2 13.45,-0.15 -0.05,-0.05 m 24.9,3.65 -0.1,-0.1 -0.9,0.45 1,-0.35 m -1.4,-1.4 -0.4,-0.45 -0.1,-0.2 -0.5,1.25 1,-0.6 m -48.85,-7.55 -4.3,-1.05 -4.85,-0.05 q -2.6,0.35 -5.2,1.2 l -1.2,0.45 -2.2,0.95 -1.35,0.6 q -3.45,1.45 -6.75,2 l -0.45,0.05 -0.5,0.05 v -0.1 q -3.3,-0.55 -6.75,-2 l -1.35,-0.6 -2.2,-0.95 -1.2,-0.45 q -2.6,-0.85 -5.2,-1.2 l -4.85,0.05 -4.3,1.05 -3.7,1.05 -0.25,0.1 -1.3,0.6 -0.8,0.35 v 3.2 h 64.75 v -3.2 l -0.8,-0.35 -1.3,-0.6 -0.25,-0.1 -3.7,-1.05 m 5.85,-0.6 V 22.9 h -3.55 l 1.4,0.4 0.4,0.15 0.35,0.15 1.55,0.7 -0.15,-0.95 m -26,0.75 2.65,-1.3 -8.35,-0.15 h -0.4 -0.15 -0.4 l -8.35,0.15 2.65,1.3 0.1,0.05 0.75,0.3 4.85,1.15 v 0.2 l 0.5,-0.1 0.45,-0.1 4.85,-1.15 0.75,-0.3 0.1,-0.05 m 26.05,6.4 v 0.25 l 0.05,0.05 0.1,0.05 V 30.5 h -0.15 m -67.05,-4.55 0.15,-0.3 0.1,-0.25 0.05,-0.15 0.95,-0.6 0.1,-0.05 0.9,-0.15 h 0.2 v -0.5 h -33.2 l -0.85,0.8 -1,0.9 q -1.6,1.3 -2.1,2.8 -0.3,0.7 -0.3,1.5 0,1.7 0.3,2.25 l 0.1,0.2 q 0.7,1.1 2.5,1.45 l 0.3,0.05 1.25,0.05 3.4,-0.05 0.15,-0.1 1.7,-1.75 L 24,31.4 24.3,30.15 24.25,29 24.05,28.7 23.75,28.4 23.3,28.15 23.25,28.1 h -2.3 q -1.05,0.2 -1.3,0.85 l -0.1,0.45 0.1,0.35 0.15,0.5 0.1,0.1 0.05,0.05 0.35,0.3 0.5,0.35 v 0.3 L 20,31.65 Q 18.75,31.75 18.45,31 l -0.1,-1.1 v -0.05 q 0,-1.2 0.6,-1.95 0.5,-1.15 1.9,-1.7 l 0.5,-0.15 1.3,-0.05 0.2,0.05 q 0.95,0.25 2,0.95 l 0.35,0.3 0.85,0.75 0.25,0.15 0.35,-0.1 0.05,0.05 q 0.5,0.5 1.15,0.5 l 3,-0.05 q 2.05,-1.75 3.2,-2.55 L 34.2,26 l 0.05,-0.05 0.8,-0.5 q 1.7,-0.95 3.65,-1.05 l 0.85,0.2 2.4,1.2 0.35,0.2 0.8,0.5 0.5,0.3 0.95,0.5 q 2.4,1.2 4.6,1.3 h 0.45 0.25 l -0.7,-0.7 -0.05,-0.1 -0.3,-1.05 0.1,-0.8 m 4.05,-2.35 0.35,-0.15 0.4,-0.15 1.4,-0.4 h -3.55 v 0.45 l -0.15,0.95 1.55,-0.7 m -1.5,7.2 0.05,-0.05 V 30.5 h -0.15 v 0.35 l 0.1,-0.05 M 43.2,28.1 Q 41.1,26.35 39.55,26 L 38.7,25.85 37.5,26 h -0.05 q -1.9,0.35 -3.65,1.85 l -1.55,1.25 -0.15,0.15 -0.1,0.05 13.45,0.15 -0.4,-0.2 -0.35,-0.15 -1.5,-1 m -1.6,5.7 q 0,-1.5 0.25,-2.5 l -12.1,-0.05 -0.3,0.1 H 27.7 l -0.9,1 -0.4,0.35 -0.4,1.1 -0.45,0.75 5.3,-0.05 10.7,0.3 0.05,-1"
         fill="#6b6b6b"
         fill-rule="evenodd"
         stroke="none"
         id="path72" />
      <path
         d="m 154.95,22.9 -0.45,0.75 -0.7,-0.75 h 1.15 M 125.5,21.05 h -3.85 L 121.7,21 h 3.8 v 0.05 m 6,-1.4 H 35.95 V 13.6 l 23.8,0.05 h 0.8 46.35 0.8 l 23.8,-0.05 v 6.05 M 41.95,21 h 3.8 l 0.05,0.05 H 41.95 V 21 M 13.7,22.9 Q 12.65,23.75 12,25 l -0.25,0.5 -1.4,-1.9 -0.95,-0.7 h 4.3 m 148.8,8.9 -0.85,-0.4 -1,-0.95 -0.9,-1.2 -2.2,-3.85 -0.45,-1.75 -0.05,-0.1 L 157,22.9 v -0.5 q 0.1,-0.85 0.8,-1.25 l 0.8,-0.05 0.45,1.75 v 0.05 l 0.1,0.4 0.15,0.4 0.85,2.7 0.1,0.15 1.05,2.25 0.6,1 1.1,1.85 0.4,0.65 -0.9,-0.5 M 133.25,26 144.6,26.05 q -0.95,0.25 -1.95,0.95 l -0.4,0.3 -0.85,0.75 -0.25,0.15 -0.35,-0.1 -0.05,0.05 q -0.5,0.5 -1.15,0.5 l -3,-0.05 -3.2,-2.55 -0.15,-0.05 m 12.85,0.05 h 2.6 q 1.65,1.35 2.25,2.5 l 0.4,0.9 0.15,1.5 -0.55,1.3 -0.3,0.6 -0.2,0.4 0.2,0.6 -0.3,0.05 -1.25,0.05 -3.4,-0.05 -0.15,-0.1 -0.05,-0.05 q -1,-0.7 -1.65,-1.7 L 143.5,31.4 q -0.35,-0.7 -0.35,-1.25 l 0.05,-1.15 0.2,-0.3 0.3,-0.3 q 0,0.75 0.3,1.4 0.6,1.2 1.85,1.2 l 1.3,-0.3 -0.5,0.35 v 0.3 l 0.8,0.3 Q 148.7,31.75 149,31 l 0.1,-1.1 v -0.05 q 0,-1.2 -0.6,-1.95 -0.5,-1.15 -1.9,-1.7 l -0.5,-0.15 m -27.55,-0.1 6.6,0.05 -0.8,0.5 -0.5,0.3 -0.95,0.5 q -2.4,1.2 -4.6,1.3 h -0.45 -0.25 l 0.7,-0.7 0.05,-0.1 0.3,-1.05 -0.1,-0.8 m 16.85,3.3 0.05,0.05 -13.45,0.15 0.45,-0.2 0.3,-0.15 1.5,-1 q 2.1,-1.75 3.65,-2.1 l 0.85,-0.15 1.2,0.15 H 130 q 1.9,0.35 3.65,1.85 l 1.55,1.25 0.2,0.15 m 5.25,3.1 0.4,0.35 0.45,1.1 0.05,0.15 q -1.3,0.2 -1.9,0.6 l -3.05,-0.05 -10.7,0.3 v -1 l -0.3,-2.5 12.1,-0.05 0.3,0.1 h 1.75 l 0.9,1 m 15.65,-5.3 0.6,1.1 -0.25,0.55 -0.25,-1 -0.1,-0.65 m -60.6,-3 9.4,-0.05 4.95,-0.05 3.7,1.05 0.25,0.1 1.3,0.6 0.8,0.35 v 3.2 H 51.35 v -3.2 l 0.8,-0.35 1.3,-0.6 0.25,-0.1 3.7,-1.05 4.95,0.05 9.4,0.05 1.2,0.45 2.2,0.95 1.35,0.6 q 3.45,1.45 6.75,2 v 0.1 l 0.5,-0.05 0.45,-0.05 q 3.3,-0.55 6.75,-2 l 1.35,-0.6 2.2,-0.95 1.2,-0.45 m 20.2,-0.7 0.15,0.95 -1.55,-0.7 1.4,-0.25 M 77.55,24.1 H 89.9 l -0.1,0.05 -0.75,0.3 -4.85,1.15 -0.45,0.1 -0.5,0.1 v -0.2 l -4.85,-1.15 -0.75,-0.3 -0.1,-0.05 m 38.4,6.4 h 0.15 v 0.35 L 116,30.8 115.95,30.75 V 30.5 m -99.15,3.35 0.2,-0.6 -0.2,-0.4 -0.3,-0.6 q -0.55,-0.85 -0.55,-1.3 l 0.2,-1.5 q 0.1,-0.5 0.35,-0.9 0.6,-1.15 2.25,-2.5 h 2.6 l -0.5,0.15 q -1.4,0.55 -1.9,1.7 -0.6,0.75 -0.6,1.95 v 0.05 l 0.1,1.1 q 0.3,0.75 1.55,0.65 l 0.8,-0.3 v -0.3 L 20.3,30.7 21.6,31 q 1.25,0 1.85,-1.2 l 0.3,-1.4 0.3,0.3 0.2,0.3 0.05,1.15 -0.3,1.25 -0.4,0.65 -1.7,1.75 -0.15,0.1 -3.4,0.05 L 17.1,33.9 16.8,33.85 M 22.85,26.05 34.2,26 34.05,26.05 q -1.15,0.8 -3.2,2.55 l -3,0.05 q -0.65,0 -1.15,-0.5 L 26.65,28.1 26.3,28.2 26.05,28.05 25.2,27.3 24.85,27 q -1.05,-0.7 -2,-0.95 M 42.3,26 l 6.6,-0.05 -0.1,0.8 0.3,1.05 0.05,0.1 0.7,0.7 H 49.6 49.15 q -2.2,-0.1 -4.6,-1.3 L 43.6,26.8 43.1,26.5 42.3,26 m 9.25,-2.65 1.4,0.25 -1.55,0.7 0.15,-0.95 m -9.95,10.45 -0.05,1 -10.7,-0.3 -5.3,0.05 0.45,-0.75 0.4,-1.1 0.4,-0.35 0.9,-1 h 1.75 l 0.3,-0.1 12.1,0.05 q -0.25,1 -0.25,2.5 m 1.6,-5.7 1.5,1 0.35,0.15 0.4,0.2 L 32,29.3 32.1,29.25 32.25,29.1 33.8,27.85 q 1.75,-1.5 3.65,-1.85 h 0.05 l 1.2,-0.15 0.85,0.15 q 1.55,0.35 3.65,2.1 m 8.25,2.7 -0.1,0.05 V 30.5 h 0.15 v 0.25 l -0.05,0.05"
         fill="#727272"
         fill-rule="evenodd"
         stroke="none"
         id="path73" />
      <path
         d="m 121.65,21.05 h -2.6 V 21 h 2.65 l -0.05,0.05 M 45.75,21 h 2.65 v 0.05 H 45.8 L 45.75,21 m 49.95,3.05 q 2.6,-0.85 5.2,-1.2 l 4.85,0.05 4.3,1.05 -4.95,0.05 -9.4,0.05 m -38.3,-0.1 4.3,-1.05 4.85,-0.05 q 2.6,0.35 5.2,1.2 L 62.35,24 57.4,23.95 m 57.1,-0.35 -0.35,-0.15 -0.4,-0.15 -1.4,-0.4 h 3.55 v 0.45 l -1.4,0.25 m -36.95,0.5 -2.65,-1.3 8.35,-0.15 h 0.4 0.15 0.4 l 8.35,0.15 -2.65,1.3 H 77.55 m -24.6,-0.5 -1.4,-0.25 V 22.9 h 3.55 l -1.4,0.4 -0.4,0.15 -0.35,0.15"
         fill="#878787"
         fill-rule="evenodd"
         stroke="none"
         id="path74" />
      <path
         d="m 133.25,26 -0.05,-0.05 -0.8,-0.5 q -1.7,-0.95 -3.65,-1.05 l -0.8,0.2 q -0.9,0.3 -2.45,1.2 l -0.35,0.2 -6.6,-0.05 -0.15,-0.3 -0.1,-0.25 -0.05,-0.15 -0.95,-0.6 -0.1,-0.05 -0.9,-0.15 h -0.2 v -0.5 h 33.2 l 0.85,0.8 1,0.9 q 1.3,1.1 1.9,2.3 0.5,0.95 0.5,2 0,1.7 -0.3,2.25 l -0.85,1 -1.75,0.65 -0.2,-0.6 0.2,-0.4 0.3,-0.6 0.55,-1.3 -0.15,-1.5 -0.4,-0.9 q -0.6,-1.15 -2.25,-2.5 h -2.6 L 144.8,26 144.6,26.05 133.25,26 m 10.45,2.4 q 0.2,-0.2 0.45,-0.25 l 0.05,-0.05 h 2.3 q 1.05,0.2 1.3,0.85 l 0.1,0.45 -0.1,0.35 -0.15,0.5 -0.1,0.1 -0.05,0.05 -0.35,0.3 -1.3,0.3 q -1.25,0 -1.85,-1.2 -0.3,-0.65 -0.3,-1.4 M 16.8,33.85 Q 15,33.5 14.3,32.4 l -0.1,-0.2 q -0.3,-0.55 -0.3,-2.25 0,-0.8 0.3,-1.5 0.5,-1.5 2.1,-2.8 l 1,-0.9 0.85,-0.8 h 33.2 v 0.5 h -0.2 l -0.9,0.15 -0.1,0.05 -0.95,0.6 -0.05,0.15 -0.1,0.25 -0.15,0.3 -6.6,0.05 -0.35,-0.2 -2.4,-1.2 -0.85,-0.2 q -1.95,0.1 -3.65,1.05 l -0.8,0.5 L 34.2,26 22.85,26.05 22.65,26 l -1.3,0.05 h -2.6 q -1.65,1.35 -2.25,2.5 -0.25,0.4 -0.35,0.9 l -0.2,1.5 q 0,0.45 0.55,1.3 l 0.3,0.6 0.2,0.4 -0.2,0.6 m 3.5,-3.15 -0.35,-0.3 -0.05,-0.05 -0.1,-0.1 -0.15,-0.5 -0.1,-0.35 0.1,-0.45 q 0.25,-0.65 1.3,-0.85 h 2.3 l 0.05,0.05 0.45,0.25 -0.3,1.4 Q 22.85,31 21.6,31 l -1.3,-0.3"
         fill="#7b7b7b"
         fill-rule="evenodd"
         stroke="none"
         id="path75" />
    </g>
    <g
       id="sprite13">
      <use
         ffdec:characterId="58"
         height="12.8"
         width="54.549999"
         xlink:href="#shape15"
         id="use75" />
    </g>
    <g
       id="shape15">
      <path
         d="m 53.7,0.65 0.2,0.5 q 0.65,1.5 0.65,5.5 V 9.6 l -0.35,2.05 -0.7,1 L 53,12.8 52.65,12.75 H 37.45 27.85 26.7 17.1 1.9 L 1.55,12.8 1.05,12.65 Q 0.6,12.4 0.35,11.65 0.1,10.85 0,9.6 V 6.65 q 0,-4 0.65,-5.5 l 0.2,-0.5 Q 1.15,0.35 2,0 H 17.1 Q 22.2,2.4 27.3,2.55 32.35,2.4 37.45,0 h 15.1 Q 53.4,0.35 53.7,0.65 M 51.45,5.3 51.5,4.75 V 4.2 L 51.55,3.65 51.65,2.8 H 37.45 V 2.75 L 35.8,3.3 Q 32,4.45 28.2,4.7 H 27.85 27.4 27.15 26.7 26.35 Q 22.55,4.45 18.75,3.3 L 17.1,2.75 V 2.8 H 2.9 L 3,3.65 3.05,4.2 V 4.75 L 3.1,5.3 v 1.35 0.4 h 2.45 q 0.9,-0.9 1.9,-1.45 1.35,-0.8 2.85,-1 0.95,-0.15 2,0 h 0.3 l 1,0.2 q 1.25,0.3 2.35,0.85 1.25,0.6 2.3,1.5 L 26.7,8 h 1.15 L 36.3,7.15 38.6,5.65 Q 39.7,5.1 40.95,4.8 l 1,-0.2 q 1.2,-0.15 2.3,0 1.5,0.2 2.85,1 L 49,7.05 h 2.45 V 6.65 5.3 m 0,4.7 V 9.8 8.5 l -14,0.1 V 8.55 l -0.8,0.1 -0.6,0.2 -0.5,-0.05 -7.7,0.6 H 26.7 V 9.35 L 19,8.8 18.5,8.85 17.9,8.65 17.1,8.55 V 8.6 L 3.1,8.5 V 9.8 10 h 14 V 9.95 l 9.6,0.55 h 1.15 l 9.6,-0.55 V 10 h 14 m -5.3,-2.95 q -1.65,-1.3 -3.2,-1.3 -2,0 -3.85,1.25 l 7.05,0.05 M 11.6,5.75 q -1.55,0 -3.2,1.3 L 15.45,7 Q 13.95,5.95 12.3,5.8 L 11.6,5.75"
         fill="#6b6b6b"
         fill-rule="evenodd"
         stroke="none"
         id="path76" />
      <path
         d="M 3.1,5.3 3.05,4.75 V 4.2 L 3,3.65 2.9,2.8 H 17.1 V 2.75 l 1.65,0.55 q 3.8,1.15 7.6,1.4 h 0.35 0.45 0.25 0.45 0.35 Q 32,4.45 35.8,3.3 L 37.45,2.75 V 2.8 h 14.2 L 51.55,3.65 51.5,4.2 v 0.55 l -0.05,0.55 -2,0.25 -2.35,0.05 q -1.35,-0.8 -2.85,-1 -1.1,-0.15 -2.3,0 l -1,0.2 Q 39.7,5.1 38.6,5.65 H 36.7 36.1 L 34.75,6.4 Q 32.4,7.8 28.1,7.8 h -0.25 -0.6 L 26.7,7.7 v 0.1 h -0.25 q -4.3,0 -6.65,-1.4 L 18.45,5.65 h -0.6 -1.9 Q 14.85,5.1 13.6,4.8 l -1,-0.2 h -0.3 q -1.05,-0.15 -2,0 -1.5,0.2 -2.85,1 L 5.1,5.55 3.1,5.3"
         fill="#7b7b7b"
         fill-rule="evenodd"
         stroke="none"
         id="path77" />
      <path
         d="m 51.45,5.3 v 1.35 0.4 H 49 L 47.1,5.6 49.45,5.55 51.45,5.3 M 38.6,5.65 36.3,7.15 27.85,8 H 26.7 L 18.25,7.15 q -1.05,-0.9 -2.3,-1.5 h 1.9 0.6 L 19.8,6.4 q 2.35,1.4 6.65,1.4 H 26.7 V 7.7 l 0.55,0.1 h 0.6 0.25 q 4.3,0 6.65,-1.4 L 36.1,5.65 h 0.6 1.9 M 7.45,5.6 q -1,0.55 -1.9,1.45 H 3.1 V 6.65 5.3 l 2,0.25 2.35,0.05 m 44,4.4 h -14 V 9.95 l -9.6,0.55 H 26.7 L 17.1,9.95 V 10 H 3.1 V 9.8 8.5 l 14,0.1 V 8.55 l 0.8,0.1 0.6,0.2 L 19,8.8 26.7,9.35 V 9.4 h 1.15 l 7.7,-0.6 0.5,0.05 0.6,-0.2 0.8,-0.1 V 8.6 l 14,-0.1 V 9.8 10 M 46.15,7.05 39.1,7 q 1.85,-1.25 3.85,-1.25 1.55,0 3.2,1.3 M 11.6,5.75 12.3,5.8 Q 13.95,5.95 15.45,7 L 8.4,7.05 q 1.65,-1.3 3.2,-1.3"
         fill="#727272"
         fill-rule="evenodd"
         stroke="none"
         id="path78" />
    </g>
    <g
       id="sprite14">
      <use
         ffdec:characterId="255"
         height="29.049999"
         width="13.25"
         xlink:href="#shape16"
         id="use78" />
    </g>
    <g
       id="shape16">
      <path
         d="m 9.2,8.4 1.85,2.55 q 2.15,2.7 2.15,5.6 l -0.25,2.65 q -0.75,2 -2.65,2.4 l -0.25,1.7 -0.05,0.1 1.55,1.7 q 0.7,0.7 0.65,1.8 v 1.15 q -0.15,0.9 -1.1,1 l -0.5,-0.2 -3.65,0.2 H 6.5 6.25 l -3.7,-0.2 -0.6,0.2 Q 1.2,28.95 0.9,28.05 V 26.9 Q 0.95,25.7 1.6,25.05 L 3.25,23.4 V 23.3 Q 2.9,22.65 2.95,21.6 1,21.2 0.3,19.2 L 0,16.6 q 0.3,-3 2.25,-5.65 2.2,-2.7 2.2,-3 Q 4.5,7.05 3.6,6.15 2.85,5.15 2.7,4.3 2.55,2.5 3,1.65 q 0.95,-1.9 3.7,-1.6 2.7,-0.2 3.6,1.6 0.55,0.85 0.35,2.65 -0.05,0.85 -0.9,1.85 L 9.3,6.8 8.9,7.9 9.2,8.4 M 8.05,5.15 8.8,3.85 8.9,3.55 8.5,2.75 7.8,1.75 6.5,1.65 5.45,1.75 4.8,2.75 4.35,3.55 5,4.7 5.1,4.9 5.4,5.35 q 0.95,1.5 0.9,2.55 0.05,1.95 -0.95,3.2 l -0.25,0.3 -0.35,0.3 -0.1,0.05 -0.4,0.3 Q 3.65,12.45 3.3,13 L 3.1,13.35 Q 2.75,13.9 2.55,14.7 2.3,15.6 2.3,16.75 q -0.05,1.7 3.75,2.4 l 0.7,0.05 0.55,-0.05 q 3.85,-0.7 3.75,-2.4 L 10.85,14.45 10,12.75 9.5,12.25 9.1,12 8.95,11.9 8.55,11.55 8.5,11.5 8.25,11.3 8.15,11.2 Q 7.1,9.95 7,7.9 7.05,6.85 7.9,5.35 l 0.15,-0.2 m -1.5,17.3 h 0.2 1.4 L 8.4,21.65 6.55,21.7 h -1.6 l 0.2,0.75 H 5.2 6.55 M 10.7,26.7 9.1,25.05 8.65,24.55 6.75,24.9 H 6.5 l -1.9,-0.35 -0.45,0.5 q -0.25,0.5 -1.7,1.6 L 2.7,27.1 q 1,-0.5 3.05,-0.45 L 6.6,26.7 7.5,26.65 q 2.15,-0.05 2.95,0.5 L 10.7,26.7"
         fill="#6b6b6b"
         fill-rule="evenodd"
         stroke="none"
         id="path79" />
      <path
         d="M 5,4.7 4.35,3.55 4.8,2.75 l 0.65,-1 1.05,-0.1 1.3,0.1 0.7,1 0.4,0.8 L 8.8,3.85 8.05,5.15 7.5,5.2 5.1,4.75 5,4.7 m 3.15,6.5 0.1,0.1 0.25,0.2 0.05,0.05 0.4,0.35 0.15,0.1 0.4,0.25 0.5,0.5 0.85,1.7 -0.6,0.75 q -1.2,1.15 -3.4,1.15 -2.5,0 -3.7,-1 L 2.55,14.7 Q 2.75,13.9 3.1,13.35 L 3.3,13 q 0.35,-0.55 0.95,-0.95 l 0.4,-0.3 0.1,-0.05 0.35,-0.3 0.25,-0.3 0.85,0.4 0.1,0.05 1.15,-0.3 0.65,0.05 0.05,-0.1"
         fill="#7b7b7b"
         fill-rule="evenodd"
         stroke="none"
         id="path80" />
      <path
         d="M 9.3,6.8 9.2,8.4 8.9,7.9 9.3,6.8 M 5.1,4.75 7.5,5.2 8.05,5.15 7.9,5.35 Q 7.05,6.85 7,7.9 7.1,9.95 8.15,11.2 L 8.1,11.3 7.45,11.25 6.3,11.55 6.2,11.5 5.35,11.1 Q 6.35,9.85 6.3,7.9 6.35,6.85 5.4,5.35 L 5.1,4.9 V 4.85 4.75 m 5.75,9.7 0.2,2.3 q 0.1,1.7 -3.75,2.4 L 6.75,19.2 6.05,19.15 q -3.8,-0.7 -3.75,-2.4 0,-1.15 0.25,-2.05 l 0.6,0.65 q 1.2,1 3.7,1 2.2,0 3.4,-1.15 l 0.6,-0.75 M 10.7,26.7 10.45,27.15 Q 9.65,26.6 7.5,26.65 L 6.6,26.7 5.75,26.65 Q 3.7,26.6 2.7,27.1 L 2.45,26.65 q 1.45,-1.1 1.7,-1.6 l 0.45,-0.5 1.9,0.35 h 0.25 l 1.9,-0.35 0.45,0.5 1.6,1.65 M 6.55,22.45 H 5.2 5.15 L 4.95,21.7 h 1.6 l 1.85,-0.05 -0.25,0.8 h -1.4 -0.2"
         fill="#727272"
         fill-rule="evenodd"
         stroke="none"
         id="path81" />
    </g>
    <g
       id="sprite15">
      <use
         ffdec:characterId="56"
         height="43.349998"
         width="26.85"
         xlink:href="#shape17"
         id="use81" />
    </g>
    <g
       id="shape17">
      <path
         d="m 15.3,3.5 0.25,1 h 9.2 L 24.85,3.35 25,2.55 23.35,2.6 15.15,2.5 15.05,2.8 15.3,3.5 m 2.35,9.4 q 0,0.65 0.45,1.05 0.5,0.45 1.45,0.45 1.65,0 2.1,-1 l 0.1,-1.05 v -0.1 q -0.05,-1.75 -2.05,-1.8 -2.05,0 -2.05,2.45 M 7.35,38.1 q 2.85,2.45 7.6,2.05 l 9.9,0.1 V 8.95 L 24.75,6.7 h -7.5 -1.5 v 0.4 q 0,2.65 -1.9,5.15 L 13.1,13.1 q -0.75,1.25 -0.9,2.35 l -0.1,0.7 v 0.25 q 0.05,2.55 1.1,3.75 0.85,0.95 2.35,1.05 L 17.9,21.15 Q 19,21.2 19,22 v 0.05 q -0.05,1.3 -3.9,3.8 -3.9,2.5 -3.9,6 0,2.05 0.55,2.95 l 0.8,0.85 q 1.45,1.2 4.6,1.2 1.8,0 2.5,-1.65 l 0.35,-1.7 -0.25,-1.75 -0.1,-0.2 q -0.7,-1.1 -2.75,-1.1 -1.1,0 -1.85,1.35 l -0.55,1.3 q 0,0.45 0.85,0.85 l 2.15,0.2 0.05,0.35 0.1,0.4 q 0,0.7 -1.65,0.7 -2.15,0 -2.7,-1.25 l -0.2,-1.3 q 0,-1.05 0.8,-2.35 1.05,-1.6 2.6,-1.6 3.6,0 4.65,2.35 0.5,1.2 0.3,2.45 0,1.9 -0.55,2.7 -1.35,2.05 -5.95,2.05 -3.25,0 -4.7,-2.3 -0.9,-1.4 -0.9,-2.9 0,-3.55 0.95,-5.35 1.45,-2.95 5.95,-4.95 l 0.2,-0.2 Q 12.5,22.55 11.15,21 L 10.8,20.55 q -0.45,-0.9 -0.45,-2.25 l 0.1,-2.45 -0.6,0.55 -0.2,0.2 L 8.2,18.15 7,19.6 q -3.5,4.65 -3.5,9.8 0,2.55 1.1,5 l 0.7,1.3 q 0.85,1.45 2.05,2.4 M 16.9,9.75 q 0.9,-1.35 2.9,-1.2 3.6,0.25 3.6,5.2 0,0.75 -1.25,1.6 -1.25,0.85 -2.55,0.85 -3.45,0 -3.45,-3.3 0,-0.95 0.15,-1.7 L 16.9,9.75 M 26.85,0.5 v 42.1 l -0.25,0.1 -0.15,0.15 q -0.5,0.5 -1.1,0.5 H 14.6 Q 5.55,43.3 2,37.5 0,34.2 0,29.45 0,21.1 6.55,14.95 l 4.5,-4.3 Q 12.95,8.35 13.1,5.85 12.25,5.65 12,3.7 L 11.85,1.5 q 0,-1.2 1.85,-1.4 L 14.85,0.2 16.4,0 h 9.25 l 1.2,0.5"
         fill="#6b6b6b"
         fill-rule="evenodd"
         stroke="none"
         id="path82" />
      <path
         d="m 24.85,3.35 -0.1,1.15 h -9.2 l -0.25,-1 2.85,0.2 6.7,-0.35 m -3.1,8.9 v 0.1 l -0.1,1.05 q -0.45,1 -2.1,1 -0.95,0 -1.45,-0.45 -0.45,-0.4 -0.45,-1.05 0.45,0.5 1.55,0.5 1.85,0 2.4,-0.8 l 0.15,-0.35 M 17.25,6.7 h 7.5 l 0.1,2.25 v 31.3 l -9.9,-0.1 q -4.75,0.4 -7.6,-2.05 v -0.6 l -0.55,-2 q -0.55,-1.9 -0.55,-3.45 0,-4 2.8,-8.6 l 1.75,-2.9 0.35,0.45 q 1.35,1.55 5.3,1.95 l -0.2,0.2 q -4.5,2 -5.95,4.95 -0.95,1.8 -0.95,5.35 0,1.5 0.9,2.9 1.45,2.3 4.7,2.3 4.6,0 5.95,-2.05 0.55,-0.8 0.55,-2.7 0.2,-1.25 -0.3,-2.45 -1.05,-2.35 -4.65,-2.35 -1.55,0 -2.6,1.6 -0.8,1.3 -0.8,2.35 l 0.2,1.3 q 0.55,1.25 2.7,1.25 1.65,0 1.65,-0.7 l -0.1,-0.4 q 2.1,-0.4 2.1,-2.5 v -0.45 l 0.1,0.2 0.25,1.75 -0.35,1.7 q -0.7,1.65 -2.5,1.65 -3.15,0 -4.6,-1.2 -0.45,-4.7 2.85,-8.1 L 18,25.1 q 1.2,-1.3 1.2,-2.5 L 19.05,22.05 H 19 V 22 q 0,-0.8 -1.1,-0.85 L 15.55,21.2 Q 14.05,21.1 13.2,20.15 L 12.9,18 q 0,-0.9 0.4,-2 1.2,-0.9 2.5,-3.65 l 0.5,-1.15 q -0.15,0.75 -0.15,1.7 0,3.3 3.45,3.3 1.3,0 2.55,-0.85 1.25,-0.85 1.25,-1.6 0,-4.95 -3.6,-5.2 -2,-0.15 -2.9,1.2 L 17.35,7.9 17.25,6.7"
         fill="#727272"
         fill-rule="evenodd"
         stroke="none"
         id="path83" />
      <path
         d="M 15.3,3.5 15.05,2.8 15.15,2.5 23.35,2.6 25,2.55 24.85,3.35 18.15,3.7 15.3,3.5 m 6.45,8.75 -0.15,0.35 q -0.55,0.8 -2.4,0.8 -1.1,0 -1.55,-0.5 0,-2.45 2.05,-2.45 2,0.05 2.05,1.8 m -4.5,-5.55 0.1,1.2 -0.45,1.85 -0.6,1.45 -0.5,1.15 q -1.3,2.75 -2.5,3.65 -0.4,1.1 -0.4,2 l 0.3,2.15 q -1.05,-1.2 -1.1,-3.75 v -0.25 l 0.1,-0.7 q 0.15,-1.1 0.9,-2.35 l 0.75,-0.85 q 1.9,-2.5 1.9,-5.15 V 6.7 h 1.5 M 19,22.05 h 0.05 l 0.15,0.55 q 0,1.2 -1.2,2.5 l -2.6,2.45 q -3.3,3.4 -2.85,8.1 l -0.8,-0.85 q -0.55,-0.9 -0.55,-2.95 0,-3.5 3.9,-6 3.85,-2.5 3.9,-3.8 m 0.65,9.5 V 32 q 0,2.1 -2.1,2.5 L 17.5,34.15 15.35,33.95 Q 14.5,33.55 14.5,33.1 l 0.55,-1.3 q 0.75,-1.35 1.85,-1.35 2.05,0 2.75,1.1 m -8.85,-11 -1.75,2.9 q -2.8,4.6 -2.8,8.6 0,1.55 0.55,3.45 l 0.55,2 v 0.6 Q 6.15,37.15 5.3,35.7 L 4.6,34.4 q -1.1,-2.45 -1.1,-5 0,-5.15 3.5,-9.8 l 1.2,-1.45 1.45,-1.55 0.2,-0.2 0.6,-0.55 -0.1,2.45 q 0,1.35 0.45,2.25"
         fill="#7b7b7b"
         fill-rule="evenodd"
         stroke="none"
         id="path84" />
    </g>
    <g
       id="sprite16">
      <use
         ffdec:characterId="60"
         height="8.9499998"
         width="15.2"
         xlink:href="#shape18"
         id="use84" />
    </g>
    <g
       id="shape18">
      <path
         d="M 13.2,2.05 H 13 L 12.5,2.2 q -0.4,0 -0.75,-0.35 -0.4,-0.4 -0.75,-0.4 -0.6,0 -1.15,0.4 0.5,0.45 0.7,1.25 l 2.3,0.15 q 2.35,0.9 2.35,2.4 L 15.05,6.35 14.6,6.75 13.5,5.6 q -0.75,-0.85 -2.05,-0.85 -0.35,0 -0.65,0.3 l -0.1,0.6 0.25,0.1 q 1.45,0.6 1.45,1.2 v 1.1 q -0.2,0.9 -0.9,0.9 L 11.05,8.9 11.15,8.8 11,8.5 Q 11.6,7 10.2,6.65 H 10.15 Q 9.45,7.25 8.05,7.3 H 7.8 7.6 7.4 7.15 Q 6,7.15 5.3,6.6 L 5,6.65 Q 3.6,7 4.2,8.5 L 4.05,8.8 4.15,8.9 3.7,8.95 Q 3,8.95 2.8,8.05 v -1.1 q 0,-0.6 1.45,-1.2 L 4.7,5.6 4.65,5.2 4.55,5.15 Q 4.15,4.75 3.75,4.75 2.45,4.75 1.7,5.6 L 0.6,6.75 0.15,6.35 Q 0,6.15 0,5.65 0,4.15 2.35,3.25 L 4.65,3.1 Q 4.85,2.3 5.35,1.85 4.8,1.45 4.2,1.45 3.85,1.45 3.45,1.85 L 2.7,2.2 Q 1.95,2.2 2.2,2.05 H 2 L 1.95,1.55 q 0,-1.9 2.65,-1.45 1.5,0.3 2.35,1.15 h 0.6 0.1 0.6 Q 9.1,0.4 10.6,0.1 q 2.65,-0.45 2.65,1.45 l -0.05,0.5"
         fill="#6b6b6b"
         fill-rule="evenodd"
         stroke="none"
         id="path85" />
    </g>
    <g
       id="sprite17"
       transform="translate(12.75,6.05)">
      <use
         ffdec:characterId="14"
         height="10.25"
         transform="matrix(0.4799,0.4798,-0.4798,0.4799,7.2,-6.05)"
         width="25.700001"
         xlink:href="#sprite12"
         id="use85" />
      <use
         ffdec:characterId="16"
         height="20.65"
         transform="matrix(0.6786,0,0,0.6786,-3.6,-4.7)"
         width="15.85"
         xlink:href="#sprite18"
         id="use86" />
      <use
         ffdec:characterId="14"
         height="10.25"
         transform="matrix(0.6555,-0.1756,0.1756,0.6555,-6.15,13.8)"
         width="25.700001"
         xlink:href="#sprite12"
         id="use87" />
      <use
         ffdec:characterId="16"
         height="20.65"
         transform="matrix(0.3393,-0.5877,0.5877,0.3393,-10.4,23.85)"
         width="15.85"
         xlink:href="#sprite18"
         id="use88" />
      <use
         ffdec:characterId="14"
         height="10.25"
         transform="matrix(0.5877,0.3393,-0.3393,0.5877,-2.65,-1.7)"
         width="25.700001"
         xlink:href="#sprite12"
         id="use89" />
      <use
         ffdec:characterId="16"
         height="20.65"
         transform="matrix(0.6555,-0.1757,0.1757,0.6555,-12.75,2.4)"
         width="15.85"
         xlink:href="#sprite18"
         id="use90" />
      <use
         ffdec:characterId="14"
         height="10.25"
         transform="matrix(-0.4799,0.4798,0.4798,0.4799,162.85,-6.05)"
         width="25.700001"
         xlink:href="#sprite12"
         id="use91" />
      <use
         ffdec:characterId="16"
         height="20.65"
         transform="matrix(-0.6786,0,0,0.6786,173.65,-4.7)"
         width="15.85"
         xlink:href="#sprite18"
         id="use92" />
      <use
         ffdec:characterId="14"
         height="10.25"
         transform="matrix(-0.6555,-0.1756,-0.1756,0.6555,176.2,13.8)"
         width="25.700001"
         xlink:href="#sprite12"
         id="use93" />
      <use
         ffdec:characterId="16"
         height="20.65"
         transform="matrix(-0.3393,-0.5877,-0.5877,0.3393,180.45,23.85)"
         width="15.85"
         xlink:href="#sprite18"
         id="use94" />
      <use
         ffdec:characterId="14"
         height="10.25"
         transform="matrix(-0.5877,0.3393,0.3393,0.5877,172.7,-1.7)"
         width="25.700001"
         xlink:href="#sprite12"
         id="use95" />
      <use
         ffdec:characterId="16"
         height="20.65"
         transform="matrix(-0.6555,-0.1757,-0.1757,0.6555,182.8,2.4)"
         width="15.85"
         xlink:href="#sprite18"
         id="use96" />
      <use
         ffdec:characterId="48"
         height="17.799999"
         transform="translate(25.85,26.6)"
         width="35.75"
         xlink:href="#sprite19"
         id="use97" />
      <use
         ffdec:characterId="4"
         height="23.950001"
         transform="matrix(0.5357,0.7793,-0.7793,0.5357,151.55,22.8)"
         width="22.200001"
         xlink:href="#sprite20"
         id="use98" />
      <use
         ffdec:characterId="258"
         height="39.599998"
         width="170.39999"
         xlink:href="#shape22"
         id="use99" />
      <use
         ffdec:characterId="14"
         height="10.25"
         transform="matrix(-0.5877,-0.3393,-0.3393,0.5877,102.85,26.65)"
         width="25.700001"
         xlink:href="#sprite12"
         id="use100" />
      <use
         ffdec:characterId="14"
         height="10.25"
         transform="matrix(-0.5877,0.3393,0.3393,0.5877,102.75,4.4)"
         width="25.700001"
         xlink:href="#sprite12"
         id="use101" />
      <use
         ffdec:characterId="16"
         height="20.65"
         transform="matrix(-0.4799,0.4799,0.4798,0.4799,108.7,-0.1)"
         width="15.85"
         xlink:href="#sprite18"
         id="use102" />
      <use
         ffdec:characterId="14"
         height="10.25"
         transform="matrix(-0.6786,0,0,0.6786,104.45,15.8)"
         width="25.700001"
         xlink:href="#sprite12"
         id="use103" />
      <use
         ffdec:characterId="16"
         height="20.65"
         transform="matrix(0.3393,-0.5877,-0.5877,-0.3393,98.3,38.35)"
         width="15.85"
         xlink:href="#sprite18"
         id="use104" />
      <use
         ffdec:characterId="14"
         height="10.25"
         transform="matrix(0.5877,-0.3393,0.3393,0.5877,65,26.65)"
         width="25.700001"
         xlink:href="#sprite12"
         id="use105" />
      <use
         ffdec:characterId="14"
         height="10.25"
         transform="matrix(0.5877,0.3393,-0.3393,0.5877,65.1,4.4)"
         width="25.700001"
         xlink:href="#sprite12"
         id="use106" />
      <use
         ffdec:characterId="16"
         height="20.65"
         transform="matrix(0.4799,0.4799,-0.4798,0.4799,57.05,-0.1)"
         width="15.85"
         xlink:href="#sprite18"
         id="use107" />
      <use
         ffdec:characterId="14"
         height="10.25"
         transform="matrix(0.6786,0,0,0.6786,63.4,15.8)"
         width="25.700001"
         xlink:href="#sprite12"
         id="use108" />
      <use
         ffdec:characterId="16"
         height="20.65"
         transform="matrix(0.5877,0.3393,-0.3393,0.5877,56.9,11.95)"
         width="15.85"
         xlink:href="#sprite18"
         id="use109" />
      <use
         ffdec:characterId="24"
         height="24.9"
         transform="matrix(0.8694,0,0,0.8694,71.65,-3.05)"
         width="27.6"
         xlink:href="#sprite21"
         id="use110" />
      <use
         ffdec:characterId="26"
         height="9.4499998"
         transform="matrix(0.8694,0,0,0.8694,80.75,2.35)"
         width="6.5999999"
         xlink:href="#sprite22"
         id="use111" />
      <use
         ffdec:characterId="28"
         height="16.85"
         transform="matrix(0.7064,0,0,0.7064,77.35,10.8)"
         width="17.799999"
         xlink:href="#sprite23"
         id="use112" />
      <use
         ffdec:characterId="28"
         height="16.85"
         transform="matrix(0.9405,0,0,0.9405,75.25,15.2)"
         width="17.799999"
         xlink:href="#sprite23"
         id="use113" />
      <use
         ffdec:characterId="16"
         height="20.65"
         transform="matrix(-0.3393,-0.5877,0.5877,-0.3393,69.55,38.35)"
         width="15.85"
         xlink:href="#sprite18"
         id="use114" />
      <use
         ffdec:characterId="16"
         height="20.65"
         transform="matrix(-0.5877,0.3393,0.3393,0.5877,111.55,11.95)"
         width="15.85"
         xlink:href="#sprite18"
         id="use115" />
    </g>
    <g
       id="sprite18">
      <use
         ffdec:characterId="15"
         height="20.65"
         width="15.85"
         xlink:href="#shape19"
         id="use116" />
    </g>
    <g
       id="shape19">
      <path
         d="M 1.05,20.65 Q 0,20.65 0,19.9 L 3.5,16.45 Q 7.45,12.4 9.35,8.5 L 11.9,2.75 q 1.2,-3.85 2.65,-2.3 1.3,1.3 1.3,3.1 0,3.9 -6.5,10.7 -6.15,6.4 -8.3,6.4"
         fill="#6b6b6b"
         fill-rule="evenodd"
         stroke="none"
         id="path116" />
    </g>
    <g
       id="sprite19">
      <use
         ffdec:characterId="47"
         height="17.799999"
         width="35.75"
         xlink:href="#shape20"
         id="use117" />
    </g>
    <g
       id="shape20">
      <path
         d="M 35.75,1.1 35.4,1.5 35,1.8 H 31.55 Q 30.95,3.4 27.95,5.5 25.8,6.95 23.5,7.75 L 23.2,8.5 v 0.05 l 0.1,1.05 0.05,2.75 -0.05,5.15 -0.55,0.3 Q 22,16.95 22,15.25 l 0.1,-2.9 V 11 q -2.25,4.2 -5.65,4.2 -5,0 -6.7,-5.2 Q 9.25,8.55 9.1,6.85 L 7.25,5.8 Q 3.85,3.65 3.85,2.05 V 1.75 H 0.7 L 0,1.05 0.7,0.4 H 24.1 V 0.35 L 24.9,0.4 35,0.35 35.75,1.1 M 27.8,3.9 29.85,1.8 H 24.9 v 0.05 l 0.9,0.85 q 1.15,0.95 2,1.2 M 24,6.1 26.85,4.6 q -1,-0.35 -1.8,-1.4 L 24.75,2.75 24,6.1 M 23.2,1.8 H 10.25 q 0.3,1.1 0.95,1.7 1.75,1.7 6.35,1.7 1.2,0 3.6,-1.7 L 23.2,1.95 V 1.8 m -1.35,2.85 q -2.15,1.6 -3.8,1.6 -4.75,0 -7,-1.9 L 10,3.2 q 0,1.55 0.25,2.9 3.05,1.05 7.55,1.05 l 4.4,-0.5 0.1,-0.4 0.45,-2.35 -0.9,0.75 M 21.7,8.25 17.85,8.6 H 17.5 L 18,9.8 q 0.9,1.25 2.45,1.4 L 21.7,8.25 m -4.35,2.3 q -0.75,-1.1 -0.8,-2 -3.3,-0.15 -6,-1.1 1.55,5.9 7.45,5.9 0.95,0 1.85,-1.2 -1.5,-0.15 -2.5,-1.6 M 9.05,4.7 V 1.8 L 4.6,1.75 5,2.35 Q 5.8,3.55 6.9,4.4 L 9.05,5.65 V 4.7"
         fill="#6b6b6b"
         fill-rule="evenodd"
         stroke="none"
         id="path117" />
    </g>
    <g
       id="sprite20">
      <use
         ffdec:characterId="3"
         height="23.950001"
         width="22.200001"
         xlink:href="#shape21"
         id="use118" />
    </g>
    <g
       id="shape21">
      <path
         d="M 22.2,1 Q 21.95,1.3 22.05,1.75 L 20.1,2.05 Q 18.7,4.2 18.7,7.45 L 18.55,8.4 21.8,9.8 V 10 l -0.45,0.15 q -2.1,0 -6.6,-1.75 -2.05,1.4 -3,3.05 -0.95,1.65 -0.95,3.85 l -0.05,0.45 1.7,2.9 L 12,19.1 10.25,16.6 10,16.7 9.55,16.2 V 16 q -4.85,0.3 -6.4,1.3 -0.3,0.15 -0.65,0.4 l -0.85,1.4 v 4.05 L 1.5,23.65 Q 1.35,23.9 0.95,23.95 L 0.3,23.3 0.25,6.15 0.3,2.85 0.4,1.75 0.15,1.5 V 1.45 L 0,0.95 Q 0,0.5 0.95,0 H 18.4 l 3.5,0.4 q -0.25,0.35 0.2,0.55 L 22.2,1 M 19.15,2.15 Q 16,3.8 13.25,5.95 L 17.65,8 17.6,7.6 q 0,-1.95 0.85,-4.05 l 0.7,-1.4 M 12,5.35 Q 14.9,3 17.2,2 h -6.35 l -1,2.2 0.35,-0.05 0.25,0.35 -0.15,0.05 1.7,0.8 m 2,2.7 -2.25,-0.9 -3.45,3.25 -0.45,0.45 2,3.35 Q 10.3,12.8 11.45,10.95 12.7,9 14,8.05 M 9.45,2 h -5.9 q 2.6,0.75 5.6,2.05 L 9.25,2.65 9.45,2 M 7.7,5.3 3.1,3 4.35,5.05 6,7.85 q 0.3,-1 1.3,-2.1 L 7.7,5.3 M 1.7,8.5 2,8.35 4.7,8.05 1.7,3.1 V 6.2 8.5 M 1.9,10 1.65,10.15 v 6 Q 3.05,13.9 6.3,10.6 L 5.4,9.15 2.85,9.35 1.9,10 M 6.6,8.75 7.15,9.75 8.1,8.8 10.5,6.6 8.5,5.7 7.7,6.75 6.6,8.75 M 3.9,15.9 Q 6.95,14.8 9.15,15 l -2.1,-3.25 q -1.9,2 -3.45,4.3 L 3.9,15.9"
         fill="#6b6b6b"
         fill-rule="evenodd"
         stroke="none"
         id="path118" />
    </g>
    <g
       id="shape22">
      <path
         d="m 7.4,13.95 0.7,0.8 q 1.5,1.45 4,1.45 0.85,-0.05 3.45,-1.3 l 0.9,-0.4 0.05,-0.1 q 0.95,-1.6 1.9,-1.8 h 133.55 q 0.8,0.2 1.95,1.8 l 0.05,0.1 0.9,0.4 q 2.4,1.25 3.4,1.3 2.5,0 4,-1.45 1.1,-1.15 1.2,-2.55 0.05,-0.9 -0.95,-2.2 l -0.35,-0.6 q -0.65,-1 -0.55,-2 0.05,-1.55 -1.55,-2.75 -1.85,-1.4 -4.15,-1.4 -4.95,-0.15 -8.95,3.05 -2.05,1.4 -4.15,2.15 l 6,0.15 h 0.65 q 4.5,0 5.55,0.8 l -0.15,0.25 H 15.55 L 15.3,9.4 Q 16.4,8.6 20.9,8.6 L 23.95,8.55 27.6,8.45 Q 27.4,8.3 27.2,8.3 L 24.75,7.25 Q 24.05,6.7 23.3,6.3 19.1,3.1 14.45,3.25 11.9,3.25 10.35,4.65 8.75,5.85 8.7,7.4 8.75,8.7 7.75,10 6.8,11.3 6.8,12.2 q 0,0.9 0.6,1.75 m 156.9,-8.7 q -0.05,3.1 1.05,4 1,0.95 0.95,4.3 0,1.1 -1.2,2.95 l -0.75,0.9 1.65,1.8 q 4.4,5.05 4.4,7.9 0,1.2 -2.2,6.4 -0.35,0.75 0.25,3.65 -0.3,2.35 -4.6,2.45 -7.25,-0.3 -10.75,-4.6 -0.55,-0.35 -0.95,-0.9 l -1.4,-1.5 -0.25,-0.05 -1,-0.1 -0.2,0.2 -0.7,0.1 h -0.1 q -0.8,0.45 -1.8,1.45 -2.7,2.15 -6.05,1.9 h -0.15 l -1.45,0.05 -1.75,-0.7 -1.55,-0.95 q -0.65,-0.55 -1.5,-0.95 L 129.5,30.3 q -2.15,-1.35 -2.75,-2.75 l -2.95,2.85 q -4.25,2.85 -8.5,2.65 -1.55,-0.15 -3.35,-0.9 -2.2,-0.95 -4.7,-2.9 l -2.15,-1.65 -2.25,1.8 q -3.55,2.4 -5.9,2.35 -6.3,-0.25 -10.25,-2.7 l -1.5,-1.35 -1.55,1.35 q -4,2.45 -10.2,2.7 Q 70.9,31.8 67.5,29.4 l -2.25,-1.8 -2.15,1.65 q -4.7,3.5 -8.05,3.8 L 53.2,33 q -3.4,-0.35 -6.6,-2.6 -2.1,-1.5 -3,-2.85 -0.75,1.4 -2.7,2.75 L 36,33.55 34.65,34.5 q -1,0.5 -1.6,0.95 L 31.3,36.15 29.85,36.1 H 29.7 q -3.5,0.25 -6.05,-1.9 L 21.8,32.75 h -0.1 l -0.65,-0.1 -0.2,-0.2 -1,0.1 -0.25,0.05 -1.4,1.5 -0.95,0.9 Q 13.6,39.3 6.5,39.6 2.2,39.5 1.9,37.15 2.35,34.25 2.15,33.5 -0.05,28.3 0,27.1 -0.05,24.25 4.35,19.2 L 6,17.4 Q 5.45,16.95 5.25,16.5 4.05,14.65 4,13.55 4,10.2 5,9.25 q 0.9,-0.9 0.95,-4 -0.1,-2.55 4,-4.35 4.65,-1.85 10.3,0.15 l 3,1.75 0.65,0.1 5.5,1.15 27.1,-0.15 q 2.9,-0.05 5.2,0.05 h 23.5 23.45 l 3.3,-0.05 h 1.9 l 27,0.15 5.6,-1.15 0.6,-0.1 q 1.65,-1.05 3.05,-1.75 5.6,-2 10.35,-0.15 3.75,1.8 3.85,4.35 m 0.25,15.8 -2,-2.55 -1.7,0.3 h -0.15 q 1.95,2.85 3.9,7.65 l -0.3,0.25 q -1.95,-2.1 -4.1,-5.8 l -1.35,-2.35 -0.9,-0.2 -1.55,1.95 q -1.75,2.3 -1.7,4.6 -0.15,0.55 0.5,3.7 l -0.15,0.4 -0.35,0.1 -0.3,-0.15 q -0.75,-1.8 -0.7,-6.2 0,-2 2.2,-4.2 l 0.7,-0.65 -1.55,-0.65 q -2.85,0.25 -11.15,0.1 l -1.8,-0.1 0.85,1.05 q 1.15,1.75 1.25,2.45 l -0.05,0.25 -0.25,0.05 q -0.6,-0.55 -1.65,-2.1 L 140.9,17.2 h -0.7 q 0.45,0.5 0.7,1.35 l 0.3,1.8 q -0.05,2.05 -0.5,4.05 l -0.45,-0.1 0.05,-0.1 q 0.7,-4 -1.25,-7.05 L 134.7,17 q -0.35,0.35 -1.35,2.1 -1.4,2.15 -1.4,4.1 -0.2,1.2 0.55,2.4 l 1.45,3.1 h -0.15 l -2.65,-3.3 q -0.45,-0.7 -0.35,-2.4 0,-2.25 0.8,-3.95 0.6,-1.45 1.6,-2.1 h -31.9 l 1.1,1.4 1.05,2.25 q 0.6,-2.5 2.15,-2.4 0.4,0 0.4,0.15 l -0.1,0.05 -0.5,1.8 q -0.5,1.05 -0.45,1.85 -0.15,3.35 2.1,4.25 l 3.35,2.1 1.55,0.9 q 2.1,1.15 2.9,1.2 1.85,0.1 6.05,-2 5,-2.7 5,-5.6 l -0.65,-1.95 -0.6,-1.75 q -0.05,-2.25 1.45,0.5 l 0.95,1.95 2.75,-2.8 q -0.35,0.45 -1,2.65 l -0.8,2.55 q 0,3.15 3.2,4.65 l 4.1,2.75 3.55,2.4 q 0.55,0.05 10.05,-4.5 1.25,-1.6 1.3,-3 -0.05,-2.3 -0.95,-4.8 l -0.9,-2.4 q 0,-2.75 1.8,1.1 1.85,3.9 1.85,7.35 v 0.25 q 0.65,2 1.85,3.6 3.25,4.95 9.45,5.25 l 1.55,-0.1 q -0.7,-1.7 0.95,-5.05 1.7,-4 1.75,-5 0,-1.75 -3,-5.5 M 34.55,8.35 91.05,7.5 v 0.05 h 1.7 L 92.8,7.5 96.05,7.6 h 1.15 l 40.05,0.75 Q 138,7.8 140.9,6.6 L 113.85,6.15 111.95,6.1 108.6,5.95 87.75,5.75 h -6.7 L 61.65,5.95 56.5,6.15 29.45,6.6 31.2,7.4 32.95,8.3 H 33 l 0.1,0.05 h 1.45 m 33.4,10 Q 68.6,17.2 69,16.95 H 37.15 q 0.9,0.65 1.6,2.1 0.8,1.7 0.8,3.95 l -0.35,2.4 -2.65,3.3 H 36.4 l 1.45,-3.1 0.55,-2.4 q 0,-1.95 -1.4,-4.1 L 35.65,17 31.3,17.15 q -2.1,3.05 -1.25,7.05 l 0.05,0.1 -0.45,0.1 q -0.5,-2 -0.45,-4.05 -0.05,-0.9 0.25,-1.8 0.25,-0.85 0.7,-1.35 h -0.7 l -1.3,1.75 -1.7,2.1 L 26.2,21 q -0.1,0.2 -0.05,-0.25 -0.05,-0.7 1.3,-2.45 0.35,-0.7 0.85,-1.05 l -1.85,0.1 q -8.35,0.15 -11.1,-0.1 -0.9,0.25 -1.6,0.65 l 0.7,0.65 q 2.15,2.2 2.25,4.2 -0.05,4.4 -0.7,6.2 L 15.7,29.1 15.35,29 Q 15.1,28.9 15.2,28.55 L 15.7,24.9 Q 15.65,22.6 13.95,20.3 L 12.3,18.35 11.45,18.55 10.2,20.9 Q 7.95,24.6 6.05,26.7 L 5.7,26.45 q 2,-4.8 4,-7.65 H 9.55 L 7.8,18.5 5.75,21.05 q -2.95,3.75 -2.95,5.5 0,1 1.75,5 1.5,3.35 0.95,5.05 l 1.55,0.1 q 6.05,-0.3 9.5,-5.25 1,-1.6 1.8,-3.6 l -0.1,-0.25 q 0,-3.45 1.95,-7.35 1.75,-3.85 1.85,-1.1 l -0.95,2.4 q -1.05,2.5 -0.95,4.8 -0.05,1.4 1.25,3 9.5,4.55 10,4.5 l 3.7,-2.4 3.95,-2.75 q 3.25,-1.5 3.3,-4.65 l -0.75,-2.55 -1.1,-2.8 2.75,2.95 0.9,-1.95 q 1.5,-2.75 1.55,-0.5 l -0.6,1.75 q -0.7,1.4 -0.65,1.95 0,2.9 5,5.6 2.2,1.1 3.75,1.6 l 2.2,0.4 q 1.2,-0.05 4.6,-2.15 l 3.3,-2.05 q 2,-0.9 2.15,-4.25 -0.05,-0.8 -0.5,-1.85 -0.55,-1.3 -0.5,-1.8 l -0.1,-0.05 q 0,-0.15 0.4,-0.15 1.5,-0.1 2.2,2.4 0.3,-1.2 1,-2.25 m 34.95,4.95 q -0.65,-0.9 -1.15,-2.4 l -1,-2.8 q 0,-0.95 0.2,-1.15 h -31.6 l 0.25,1.15 -1,2.8 -1.25,2.4 0.05,1.55 -0.55,1.2 2.05,1.25 q 3.05,1.85 6.3,1.7 3.25,-0.2 7.7,-2.8 h 0.05 q 1.25,-0.5 2.65,-1.4 l 1.3,0.8 0.4,0.25 q -0.15,0 -0.15,0.15 l 0.3,0.2 q 4.45,2.6 7.7,2.8 3.3,0.15 6.2,-1.7 l 2.1,-1.25 q -0.55,-0.8 -0.5,-1.2 L 102.9,23.3"
         fill="#6b6b6b"
         fill-rule="evenodd"
         stroke="none"
         id="path119" />
      <path
         d="m 162.15,9.4 0.35,0.6 q 1,1.3 0.95,2.2 -0.1,1.4 -1.2,2.55 -1.5,1.45 -4,1.45 -1,-0.05 -3.4,-1.3 l -0.9,-0.4 -0.05,-0.1 q -1.15,-1.6 -1.95,-1.8 H 18.4 q -0.95,0.2 -1.9,1.8 l -0.05,0.1 -0.9,0.4 q -2.6,1.25 -3.45,1.3 -2.5,0 -4,-1.45 l -0.7,-0.8 0.2,-0.7 1,-3.15 q 1.8,-4.75 6.2,-4.75 1.15,-0.05 5.65,1.9 1.85,0.85 3.5,1.3 L 20.9,8.6 q -4.5,0 -5.6,0.8 l 0.25,0.25 h 139.3 L 155,9.4 q -1.05,-0.8 -5.55,-0.8 h -0.65 q 0.75,-0.45 1.65,-0.75 3.2,-1.7 5.6,-1.65 1.5,-0.1 4.15,1.95 l 1.95,1.25 m 2.4,11.65 q 3,3.75 3,5.5 -0.05,1 -1.75,5 -1.65,3.35 -0.95,5.05 l -1.55,0.1 q -6.2,-0.3 -9.45,-5.25 -1.2,-1.6 -1.85,-3.6 V 27.6 q 0,-3.45 -1.85,-7.35 -1.8,-3.85 -1.8,-1.1 l 0.9,2.4 q 0.9,2.5 0.95,4.8 -0.05,1.4 -1.3,3 -9.5,4.55 -10.05,4.5 l -3.55,-2.4 -4.1,-2.75 Q 128,27.2 128,24.05 l 0.8,-2.55 q 0.65,-2.2 1,-2.65 l -2.75,2.8 -0.95,-1.95 q -1.5,-2.75 -1.45,-0.5 l 0.6,1.75 0.65,1.95 q 0,2.9 -5,5.6 -4.2,2.1 -6.05,2 -0.8,-0.05 -2.9,-1.2 l -1.55,-0.9 -3.35,-2.1 q -2.25,-0.9 -2.1,-4.25 -0.05,-0.8 0.45,-1.85 l 0.5,-1.8 0.1,-0.05 q 0,-0.15 -0.4,-0.15 -1.55,-0.1 -2.15,2.4 l -1.05,-2.25 -1.1,-1.4 h 31.9 q -1,0.65 -1.6,2.1 -0.8,1.7 -0.8,3.95 -0.1,1.7 0.35,2.4 l 2.65,3.3 h 0.15 l -1.45,-3.1 q -0.75,-1.2 -0.55,-2.4 0,-1.95 1.4,-4.1 1,-1.75 1.35,-2.1 l 4.35,0.15 q 1.95,3.05 1.25,7.05 l -0.05,0.1 0.45,0.1 q 0.45,-2 0.5,-4.05 l -0.3,-1.8 q -0.25,-0.85 -0.7,-1.35 h 0.7 l 1.35,1.75 q 1.05,1.55 1.65,2.1 l 0.25,-0.05 0.05,-0.25 q -0.1,-0.7 -1.25,-2.45 l -0.85,-1.05 1.8,0.1 q 8.3,0.15 11.15,-0.1 l 1.55,0.65 -0.7,0.65 q -2.2,2.2 -2.2,4.2 -0.05,4.4 0.7,6.2 l 0.3,0.15 0.35,-0.1 0.15,-0.4 q -0.65,-3.15 -0.5,-3.7 -0.05,-2.3 1.7,-4.6 l 1.55,-1.95 0.9,0.2 1.35,2.35 q 2.15,3.7 4.1,5.8 l 0.3,-0.25 q -1.95,-4.8 -3.9,-7.65 h 0.15 l 1.7,-0.3 2,2.55 m -61.65,2.25 0.05,1.55 q -0.05,0.4 0.5,1.2 l -2.1,1.25 q -2.9,1.85 -6.2,1.7 -3.25,-0.2 -7.7,-2.8 L 87.15,26 q 0,-0.15 0.15,-0.15 L 86.9,25.6 85.6,24.8 q -1.4,0.9 -2.65,1.4 H 82.9 q -4.45,2.6 -7.7,2.8 -3.25,0.15 -6.3,-1.7 l -2.05,-1.25 0.55,-1.2 -0.05,-1.55 1.25,-2.4 1,-2.8 -0.25,-1.15 h 31.6 q -0.2,0.2 -0.2,1.15 l 1,2.8 q 0.5,1.5 1.15,2.4 M 67.95,18.35 q -0.7,1.05 -1,2.25 -0.7,-2.5 -2.2,-2.4 -0.4,0 -0.4,0.15 l 0.1,0.05 q -0.05,0.5 0.5,1.8 0.45,1.05 0.5,1.85 Q 65.3,25.4 63.3,26.3 L 60,28.35 q -3.4,2.1 -4.6,2.15 l -2.2,-0.4 q -1.55,-0.5 -3.75,-1.6 -5,-2.7 -5,-5.6 -0.05,-0.55 0.65,-1.95 l 0.6,-1.75 q -0.05,-2.25 -1.55,0.5 l -0.9,1.95 -2.75,-2.95 1.1,2.8 0.75,2.55 q -0.05,3.15 -3.3,4.65 l -3.95,2.75 -3.7,2.4 q -0.5,0.05 -10,-4.5 -1.3,-1.6 -1.25,-3 -0.1,-2.3 0.95,-4.8 l 0.95,-2.4 q -0.1,-2.75 -1.85,1.1 -1.95,3.9 -1.95,7.35 l 0.1,0.25 q -0.8,2 -1.8,3.6 -3.45,4.95 -9.5,5.25 L 5.5,36.6 q 0.55,-1.7 -0.95,-5.05 -1.75,-4 -1.75,-5 0,-1.75 2.95,-5.5 L 7.8,18.5 9.55,18.8 H 9.7 q -2,2.85 -4,7.65 l 0.35,0.25 q 1.9,-2.1 4.15,-5.8 l 1.25,-2.35 0.85,-0.2 1.65,1.95 q 1.7,2.3 1.75,4.6 l -0.5,3.65 Q 15.1,28.9 15.35,29 l 0.35,0.1 0.3,-0.15 q 0.65,-1.8 0.7,-6.2 -0.1,-2 -2.25,-4.2 l -0.7,-0.65 q 0.7,-0.4 1.6,-0.65 2.75,0.25 11.1,0.1 l 1.85,-0.1 Q 27.8,17.6 27.45,18.3 26.1,20.05 26.15,20.75 26.1,21.2 26.2,21 l 0.25,0.05 1.7,-2.1 1.3,-1.75 h 0.7 q -0.45,0.5 -0.7,1.35 -0.3,0.9 -0.25,1.8 -0.05,2.05 0.45,4.05 l 0.45,-0.1 -0.05,-0.1 q -0.85,-4 1.25,-7.05 L 35.65,17 37,19.1 q 1.4,2.15 1.4,4.1 l -0.55,2.4 -1.45,3.1 h 0.15 L 39.2,25.4 39.55,23 q 0,-2.25 -0.8,-3.95 -0.7,-1.45 -1.6,-2.1 H 69 q -0.4,0.25 -1.05,1.4"
         fill="#727272"
         fill-rule="evenodd"
         stroke="none"
         id="path120" />
      <path
         d="M 7.4,13.95 Q 6.8,13.1 6.8,12.2 6.8,11.3 7.75,10 8.75,8.7 8.7,7.4 8.75,5.85 10.35,4.65 11.9,3.25 14.45,3.25 19.1,3.1 23.3,6.3 24.05,6.7 24.75,7.25 L 27.2,8.3 q 0.2,0 0.4,0.15 l -3.65,0.1 Q 22.3,8.1 20.45,7.25 15.95,5.3 14.8,5.35 q -4.4,0 -6.2,4.75 l -1,3.15 -0.2,0.7 m 141.4,-5.35 -6,-0.15 q 2.1,-0.75 4.15,-2.15 4,-3.2 8.95,-3.05 2.3,0 4.15,1.4 1.6,1.2 1.55,2.75 -0.1,1 0.55,2 L 160.2,8.15 q -2.65,-2.05 -4.15,-1.95 -2.4,-0.05 -5.6,1.65 -0.9,0.3 -1.65,0.75 M 33,8.3 H 32.95 L 31.2,7.4 29.45,6.6 56.5,6.15 l 5.15,-0.2 19.4,-0.2 h 6.7 l 20.85,0.2 3.35,0.15 1.9,0.05 27.05,0.45 Q 138,7.8 137.25,8.35 L 97.2,7.6 H 96.05 L 92.8,7.5 92.75,7.55 h -1.7 V 7.5 L 34.55,8.35 33,8.3"
         fill="#878787"
         fill-rule="evenodd"
         stroke="none"
         id="path121" />
    </g>
    <g
       id="sprite21">
      <use
         ffdec:characterId="23"
         height="24.9"
         width="27.6"
         xlink:href="#shape23"
         id="use121" />
    </g>
    <g
       id="shape23">
      <path
         d="m 27.6,10.7 q 0,4.6 -1.95,8.05 Q 22.2,24.9 13.5,24.9 4.95,24.9 1.65,20.25 0,17.9 0,15.15 0,7.6 4.3,3.55 8.05,0.05 13.8,0 q 5.45,0 9.5,2.9 4.3,3.15 4.3,7.8 M 21,6.85 q -3,-2.6 -8.55,-2.45 -5.2,1 -7.05,4 -1.05,1.7 -1.05,4.65 0,2.8 1.05,4.25 2.05,2.95 8.1,2.95 6.25,0 8.55,-4.5 1.15,-2.25 1.15,-5 0,-2.05 -2.2,-3.9"
         fill="#6b6b6b"
         fill-rule="evenodd"
         stroke="none"
         id="path122" />
      <path
         d="m 21,6.85 q 2.2,1.85 2.2,3.9 0,2.75 -1.15,5 -2.3,4.5 -8.55,4.5 -6.05,0 -8.1,-2.95 Q 4.35,15.85 4.35,13.05 4.35,10.1 5.4,8.4 7.25,5.4 12.45,4.4 18,4.25 21,6.85"
         fill="#727272"
         fill-rule="evenodd"
         stroke="none"
         id="path123" />
    </g>
    <g
       id="sprite22">
      <use
         ffdec:characterId="25"
         height="9.4499998"
         width="6.5999999"
         xlink:href="#shape24"
         id="use123" />
    </g>
    <g
       id="shape24">
      <path
         d="m 6.6,1.3 -1.65,2.3 -0.9,1.1 2.5,3.7 q 0,1.05 -2.95,1.05 H 2.65 L 0.95,9 Q 0,8.5 0,8.2 0,7.85 1.7,5.8 L 2.55,4.75 0.05,1 Q 0.05,0 3,0 h 0.95 q 0.8,0 1.75,0.45 0.9,0.5 0.9,0.85"
         fill="#9e8a8a"
         fill-rule="evenodd"
         stroke="none"
         id="path124" />
    </g>
    <g
       id="sprite23">
      <use
         ffdec:characterId="27"
         height="16.85"
         width="17.799999"
         xlink:href="#shape25"
         id="use124" />
    </g>
    <g
       id="shape25">
      <path
         d="M 12.8,10.65 Q 13.65,9.45 13.65,8 13.65,4.05 9.1,4 4.5,4 4.5,8.2 q 0,1.35 0.45,2.25 1,1.9 3.95,1.9 2.6,0 3.9,-1.7 m 5,-3.6 q 0,3.25 -1.2,5.45 -2.45,4.35 -9.1,4.35 -4.2,0 -6.2,-3.45 Q 0,11.2 0,9.2 0,4.3 2.8,1.9 5.2,-0.2 8.9,0 q 3.5,0.2 6.1,2.15 2.8,2.1 2.8,4.9"
         fill="#6b6b6b"
         fill-rule="evenodd"
         stroke="none"
         id="path125" />
      <path
         d="m 12.8,10.65 q -1.3,1.7 -3.9,1.7 -2.95,0 -3.95,-1.9 Q 4.5,9.55 4.5,8.2 4.5,4 9.1,4 q 4.55,0.05 4.55,4 0,1.45 -0.85,2.65"
         fill="#727272"
         fill-rule="evenodd"
         stroke="none"
         id="path126" />
    </g>
    <g
       id="sprite24">
      <use
         ffdec:characterId="1"
         height="39"
         width="38.299999"
         xlink:href="#shape26"
         id="use126" />
    </g>
    <g
       id="shape26">
      <path
         d="m 31.4,9.65 -0.35,1 q -0.5,1.85 -0.5,3.2 0,5.1 0.3,7.25 0.5,3.65 1.8,5.7 l 5.65,2.7 -0.3,0.1 -0.55,0.15 q -1.5,0 -4.5,-1.25 L 32.1,28.2 29.85,27.15 q -0.3,0.25 -2.45,0.95 -2.25,0.8 -2.95,1.4 l -1.45,1.55 -0.85,1 1.4,6.3 -0.1,0.65 h -0.2 Q 22.4,37.1 21.1,32.85 L 17.5,31.1 q -4.7,-1.8 -10.4,-2 l -0.15,0.3 -0.3,-0.15 -6.5,4 Q 0,33.45 0,32.9 3.65,30.3 6,28.65 v -0.1 Q 6,28.3 6.5,27.9 l 1.25,-3 q 1.7,-3.95 2,-5.45 l 0.5,-5 Q 10.3,13 10.5,12.05 l -3.95,-6 q 1.55,0.5 3.3,2.85 l 1,1.55 0.05,-0.1 0.3,0.45 0.35,0.15 5.65,-0.45 H 17.1 L 18.65,9.4 19.2,9.05 20.5,0 h 0.25 l 0.2,1.1 -0.5,7.5 0.35,0.2 -0.35,0.35 0.9,0.75 q 1.25,1.3 3.65,1.3 l 2.1,-0.35 0.75,-0.3 q 4.25,-4 7.05,-5.9 l 0.65,0.5 -4.15,4.5 M 20.3,11 l 0.95,1.2 q 0.9,1.35 2.8,2.1 l 2.25,-2.25 h -0.35 q -3.15,0 -5.15,-1.4 L 20.3,10.2 V 11 m 6.6,3.5 0.05,0.4 -0.7,4.3 q 0,1.3 0.5,3 0.45,1.65 1.15,2.65 l 3,1.2 -0.6,-2.3 -0.45,-4.9 q 0,-5.35 0.55,-8.15 l -2.5,2.75 -1,1.05 m -1.5,1.45 -2.1,1.85 -0.1,0.25 q -0.45,0.95 -0.45,1.55 0,0.9 0.25,1.35 l 1,1.45 -0.1,0.1 2.4,1.8 0.45,0.2 Q 26.1,23.1 25.7,20.7 25.35,18.5 25.35,16.4 l 0.05,-0.45 m -3.85,0.95 1.75,-1.85 q -1.85,-0.35 -2.95,-1.8 l -0.25,-0.4 -0.35,4.2 1.6,-0.1 0.2,-0.05 m 0.45,2 -2.15,1.55 q 0.95,-0.15 2.25,0.7 L 22,19.65 V 18.9 m -4.05,-8.25 -0.6,0.35 -0.6,0.2 q -1.85,0.65 -4.95,0.7 l 0.55,0.9 q 0.75,1.4 2.75,3.55 h 0.1 q 1.4,0 2.35,-0.9 0.6,-0.55 0.95,-0.75 l 0.45,-3.75 0.1,-0.5 -1.1,0.2 m -1.75,6.9 1.85,1.75 0.35,-3.55 -0.4,0.4 q -1,0.8 -2.15,1 l 0.35,0.4 m -4.5,-2.7 q -0.1,3.75 -1.05,6.85 -0.7,2.35 -2.2,5.15 l 1.55,-1.2 2.5,-2 0.9,-2.25 q 0,-1.15 -0.95,-4.1 L 11.7,14.85 m 1.55,1.8 q 0.6,2.45 0.6,4.3 L 13.6,22.7 v 0.1 l 0.55,-0.45 q 1.55,-1.15 3,-1.85 -1.55,-1.05 -4.1,-4.6 l 0.2,0.75 m 6.7,6.05 0.65,2.75 0.55,-0.65 1.45,-1.4 -2.75,-1.45 0.1,0.75 m -6.7,1.95 4.5,1 q 0.9,0.5 1.6,1.3 -1.35,-4.6 -1.45,-5.8 l -4.65,3.5 m 6.3,-5.7 1.05,-1.05 h -0.9 l -0.15,1.05 m 0.3,9.6 -0.1,-0.05 H 19.4 q -0.15,0.15 -0.15,-0.45 V 28 l -1.2,-1.2 Q 17.1,26.35 12.1,25.65 h -0.25 l -1.2,0.85 -2.05,1.4 q 7.35,0.8 9.55,1.95 0.5,-0.05 1.55,0.55 l 0.8,0.5 -0.55,-1.85 -0.1,-0.5 M 27.7,26.05 23.75,24 21,27.2 l 0.75,3.1 0.1,0.45 q 0.85,-1.05 2.85,-2.5 2.35,-1.7 3.85,-1.75 L 27.7,26.05"
         fill="#9a9a9a"
         fill-rule="evenodd"
         stroke="none"
         id="path127" />
    </g>
    <g
       id="sprite25"
       transform="translate(660.25,0.5)">
      <use
         ffdec:characterId="68"
         height="1.5"
         transform="translate(-660.25,-0.5)"
         width="1320.3"
         xlink:href="#shape27"
         id="use127" />
    </g>
    <g
       id="shape27"
       transform="translate(660.25,0.5)">
      <path
         d="m 659.3,-0.5 0.55,0.25 0.2,0.5 -0.2,0.55 L 659.3,1 H -659.5 l -0.5,-0.2 -0.25,-0.55 0.25,-0.5 0.5,-0.25 H 659.3"
         fill="#ffff00"
         fill-opacity="0"
         fill-rule="evenodd"
         stroke="none"
         id="path128" />
    </g>
    <g
       id="sprite26"
       transform="translate(5.4,4)">
      <use
         ffdec:characterId="43"
         height="8"
         transform="translate(-5.4,-4)"
         width="10.8"
         xlink:href="#shape28"
         id="use128" />
    </g>
    <g
       id="shape28"
       transform="translate(5.4,4)">
      <path
         d="m 2.9,-0.35 q 0,-1.25 1.25,-1.25 1.25,0 1.25,1.2 0,1.3 -1.25,1.3 Q 3.6,0.9 3.25,0.5 2.9,0.15 2.9,-0.35 m 0.35,-2.3 q 0,0.55 -0.35,0.9 -0.4,0.45 -1,0.45 -1.35,0 -1.35,-1.4 0,-1.3 1.35,-1.3 1.35,0 1.35,1.35 m -3.1,1.9 h 0.2 q 2.6,0.1 2.6,2.8 l -0.3,1 Q 2.05,4 0.45,4 H 0.35 0.15 0.1 -0.45 q -1.6,0 -2.2,-0.95 l -0.3,-1 q 0,-2.8 2.8,-2.8 h 0.3 M -1.55,-4 q 1.35,0 1.35,1.35 0,0.55 -0.4,0.9 -0.4,0.45 -0.95,0.45 -1.4,0 -1.4,-1.4 0,-1.3 1.4,-1.3 m -2.6,2.4 q 1.25,0 1.25,1.25 0,0.5 -0.35,0.85 -0.35,0.4 -0.9,0.4 -1.25,0 -1.25,-1.3 0,-1.2 1.25,-1.2"
         fill="#6b6b6b"
         fill-rule="evenodd"
         stroke="none"
         id="path129" />
    </g>
    <g
       id="sprite27"
       transform="translate(11.25,10.9)">
      <use
         ffdec:characterId="242"
         height="16.85"
         transform="matrix(0.9103,0.4138,-0.4138,0.9103,-4.3011,-10.6098)"
         width="11.15"
         xlink:href="#sprite28"
         id="use129" />
    </g>
    <g
       id="sprite28"
       transform="translate(5.6,8.45)">
      <use
         ffdec:characterId="233"
         height="13"
         transform="translate(-0.45,-8.45)"
         width="0.89999998"
         xlink:href="#shape29"
         id="use130" />
      <use
         ffdec:characterId="61"
         height="8.9499998"
         transform="matrix(0.7341,0,0,0.7341,-5.6,1.85)"
         width="15.2"
         xlink:href="#sprite29"
         id="use131" />
    </g>
    <g
       id="shape29"
       transform="translate(0.45,8.45)">
      <path
         d="M 0.4,-7.9 V 2.3 l 0.05,0.15 q 0,2.1 -0.45,2.1 -0.45,0 -0.45,-2.05 L -0.4,2.25 v -10.2 l 0.45,-0.5 0.35,0.55"
         fill="#707070"
         fill-rule="evenodd"
         stroke="none"
         id="path131" />
    </g>
    <g
       id="sprite29">
      <use
         ffdec:characterId="60"
         height="8.9499998"
         width="15.2"
         xlink:href="#shape30"
         id="use132" />
    </g>
    <g
       id="shape30">
      <path
         d="M 13.2,2.05 H 13 L 12.5,2.2 q -0.4,0 -0.75,-0.35 -0.4,-0.4 -0.75,-0.4 -0.6,0 -1.15,0.4 0.5,0.45 0.7,1.25 l 2.3,0.15 q 2.35,0.9 2.35,2.4 L 15.05,6.35 14.6,6.75 13.5,5.6 q -0.75,-0.85 -2.05,-0.85 -0.35,0 -0.65,0.3 l -0.1,0.6 0.25,0.1 q 1.45,0.6 1.45,1.2 v 1.1 q -0.2,0.9 -0.9,0.9 L 11.05,8.9 11.15,8.8 11,8.5 Q 11.6,7 10.2,6.65 H 10.15 Q 9.45,7.25 8.05,7.3 H 7.8 7.6 7.4 7.15 Q 6,7.15 5.3,6.6 L 5,6.65 Q 3.6,7 4.2,8.5 L 4.05,8.8 4.15,8.9 3.7,8.95 Q 3,8.95 2.8,8.05 v -1.1 q 0,-0.6 1.45,-1.2 L 4.7,5.6 4.65,5.2 4.55,5.15 Q 4.15,4.75 3.75,4.75 2.45,4.75 1.7,5.6 L 0.6,6.75 0.15,6.35 Q 0,6.15 0,5.65 0,4.15 2.35,3.25 L 4.65,3.1 Q 4.85,2.3 5.35,1.85 4.8,1.45 4.2,1.45 3.85,1.45 3.45,1.85 L 2.7,2.2 Q 1.95,2.2 2.2,2.05 H 2 L 1.95,1.55 q 0,-1.9 2.65,-1.45 1.5,0.3 2.35,1.15 h 0.6 0.1 0.6 Q 9.1,0.4 10.6,0.1 q 2.65,-0.45 2.65,1.45 l -0.05,0.5"
         fill="#d4d4d4"
         fill-rule="evenodd"
         stroke="none"
         id="path132" />
    </g>
  </defs>
</svg>
