<?xml version="1.0" encoding="UTF-8" standalone="no"?>
<svg
   ffdec:objectType="frame"
   height="27.9"
   width="36.5"
   version="1.1"
   id="svg7"
   sodipodi:docname="2.svg"
   xmlns:inkscape="http://www.inkscape.org/namespaces/inkscape"
   xmlns:sodipodi="http://sodipodi.sourceforge.net/DTD/sodipodi-0.dtd"
   xmlns:xlink="http://www.w3.org/1999/xlink"
   xmlns="http://www.w3.org/2000/svg"
   xmlns:svg="http://www.w3.org/2000/svg"
   xmlns:ffdec="https://www.free-decompiler.com/flash">
  <sodipodi:namedview
     id="namedview7"
     pagecolor="#ffffff"
     bordercolor="#000000"
     borderopacity="0.25"
     inkscape:showpageshadow="2"
     inkscape:pageopacity="0.0"
     inkscape:pagecheckerboard="0"
     inkscape:deskcolor="#d1d1d1"
     fit-margin-top="5"
     fit-margin-left="5"
     fit-margin-right="5"
     fit-margin-bottom="5" />
  <g
     transform="translate(18.25,13.95)"
     id="g1">
    <use
       ffdec:characterId="4338"
       height="27.9"
       transform="translate(-19.3,-13.95)"
       width="38.599998"
       xlink:href="#sprite0"
       id="use1" />
  </g>
  <defs
     id="defs7">
    <g
       id="sprite0"
       transform="translate(19.3,13.95)">
      <use
         ffdec:characterId="4337"
         height="27.9"
         transform="translate(-18.25,-13.95)"
         width="36.5"
         xlink:href="#sprite1"
         id="use2" />
    </g>
    <g
       id="sprite1"
       transform="translate(18.25,13.95)">
      <use
         ffdec:characterId="4336"
         height="27.9"
         transform="translate(-18.25,-13.95)"
         width="36.5"
         xlink:href="#shape0"
         id="use3" />
      <use
         ffdec:characterId="3500"
         height="8"
         transform="matrix(0.0345,-0.8913,0.8206,0.0502,-8.7688,0.0122)"
         width="10.8"
         xlink:href="#sprite2"
         id="use4" />
    </g>
    <g
       id="shape0"
       transform="translate(18.25,13.95)">
      <path
         d="M 14.3,-6.55 14.05,-7.4 13.65,-7.35 12.8,-7.7 8.85,-7.85 H 5.55 L 1.6,-7.7 0.75,-7.35 0.35,-7.4 q -0.2,0.3 -0.25,0.75 l -1.95,-0.15 -0.05,-2 17.75,-0.1 v 0.3 0.3 l 0.1,1.45 -0.25,0.1 -1.4,0.2 M 9.8,-6.5 9.75,-6.55 13.1,-6.75 13.05,-6.7 13,-6.5 v 0.7 l 0.05,2.3 h -3 V -5.25 Q 10.1,-6.1 9.8,-6.5 M 5.4,-6.55 H 5.55 8.85 9 V -3.5 H 5.4 v -3.05 m -4.1,-0.2 3.35,0.2 q -0.35,0.4 -0.3,1.3 v 1.75 h -3 L 1.4,-5.8 V -6.6 L 1.35,-6.7 1.3,-6.75 M 4.4,-2.6 4.35,0.25 h -3 V -2.7 l 3.05,0.1 m 2.3,0 H 7.7 9 L 8.9,0.25 H 5.45 L 5.4,-2.6 h 1.3 m 6.35,3.8 v 3.5 h -3.2 l 0.2,-2.3 V 1.2 h 3 M 10,-2.6 13.05,-2.7 v 2.95 h -3 L 10,-2.6 M 8.9,1.2 V 2.4 L 9.1,4.7 H 5.3 L 5.45,2.4 V 1.2 H 8.9 M 4.35,2.4 4.55,4.7 H 1.35 V 1.2 h 3 v 1.2 m -16,-9.85 -0.55,0.05 h -0.45 v -1.4 -0.25 l 1,0.15 v 1.45 m 1.65,-2.5 -0.05,-0.4 V -10.4 H -10 l 0.15,-0.1 0.3,-0.2 0.3,-0.15 0.65,-0.25 q 2.1,-0.6 4.85,0.7 v 1.15 L -7.2,-9.1 -8.25,-9.15 Q -7.85,-5.7 -8,1 V 1.45 H -8.2 L -9.5,1.65 -9.55,1.1 q 0,-3.9 -0.15,-7.25 l -0.05,-0.9 -0.1,-1.6 L -9.9,-9 v -0.55 -0.1 L -9.95,-9.7 -10,-9.95"
         fill="#8e8e8e"
         fill-rule="evenodd"
         stroke="none"
         id="path4" />
      <path
         d="m 9.8,-6.5 q 0.3,0.4 0.25,1.25 v 1.75 h 3 L 13,-5.8 v -0.7 l 0.05,-0.2 0.05,-0.05 -3.35,0.2 0.05,0.05 M 0.1,-6.65 Q 0.15,-7.1 0.35,-7.4 l 0.4,0.05 0.85,-0.35 3.95,-0.15 h 3.3 l 3.95,0.15 0.85,0.35 0.4,-0.05 0.25,0.85 0.05,0.75 -0.05,10.4 -0.15,1.35 -0.5,0.2 -0.5,-0.2 V 5.9 L 8.45,6.1 H 5.9 L 1.25,5.9 V 5.95 L 0.75,6.15 0.25,5.95 0.1,4.6 0,-5.8 0.1,-6.65 m 15.85,-0.2 -0.1,-1.45 v -0.3 -0.3 l -17.75,0.1 0.05,2 0.15,11.1 q 0,0.4 -0.3,0.8 l -0.05,0.1 v 0.1 q 0,0.9 -1.1,0.9 H -6.2 l 0.35,1 21.75,0.1 0.05,-13.7 V -6.85 M 5.4,-6.55 V -3.5 H 9 V -6.55 H 8.85 5.55 5.4 m -1,3.95 -3.05,-0.1 v 2.95 h 3 L 4.4,-2.6 M 1.3,-6.75 1.35,-6.7 1.4,-6.6 v 0.8 l -0.05,2.3 h 3 v -1.75 q -0.05,-0.9 0.3,-1.3 L 1.3,-6.75 M 6.7,-2.6 H 5.4 L 5.45,0.25 H 8.9 L 9,-2.6 h -1.3 -1 m 10.55,-9.05 0.35,0.1 0.65,0.1 V 5.5 L 18.2,6.65 V 9.4 9.9 l 0.05,0.1 v 1.2 l -0.9,0.6 h -22.7 l -0.55,0.7 q -1.45,1.45 -5.2,1.45 -4.15,0 -5.85,-2.1 -0.95,-1.2 -0.95,-2.6 l 0.2,-1.35 -0.35,-0.35 -0.2,-0.6 q 0,-0.55 0.35,-0.8 L -18.1,5.9 -18.25,5.4 q 0,-0.7 0.7,-0.9 L -17.7,4.35 -17.75,3.95 -17.55,3.4 -17.8,3.15 -18,2.55 q 0,-0.55 0.4,-0.8 l -0.2,-0.7 0.25,-0.6 -0.35,-0.3 -0.1,-0.5 q 0,-0.65 0.55,-0.9 l -0.05,-0.1 -0.05,-0.45 q 0,-1.05 1.3,-0.9 l 0.15,0.05 0.45,-0.55 0.5,0.1 0.05,-6.8 -0.05,-0.35 q 0,-0.7 0.8,-0.9 l 2.7,-0.4 v -0.35 q 0.6,-2.05 1.05,-1.3 3.6,-1.5 7.8,0 0.6,-0.45 0.8,0.95 l 0.1,0.65 18.75,0.05 0.4,-0.1 M 10,-2.6 10.05,0.25 h 3 V -2.7 L 10,-2.6 m 3.05,3.8 h -3 v 1.2 l -0.2,2.3 h 3.2 V 1.2 M 15.9,8.6 V 8.2 L -5.45,8.45 -5.25,9.3 H 15.9 V 8.6 M 8.9,1.2 H 5.45 V 2.4 L 5.3,4.7 H 9.1 L 8.9,2.4 V 1.2 M 4.35,2.4 V 1.2 h -3 v 3.5 h 3.2 L 4.35,2.4 m -16,-9.85 V -8.9 l -1,-0.15 v 0.25 1.4 l 0.05,14.5 1.7,0.05 3.6,0.05 -0.1,-1 -0.45,-0.05 -2.7,-0.35 h -0.1 q -0.8,0 -1,-2.35 l -0.05,-2.4 0.05,-8.5 m 7.9,-1.8 v -1.15 q -2.75,-1.3 -4.85,-0.7 l -0.65,0.25 -0.3,0.15 -0.3,0.2 -0.15,0.1 h -0.05 v 0.05 l 0.05,0.4 0.1,0.95 0.05,0.35 0.1,1.6 0.05,0.9 q 0.15,3.35 0.15,7.25 l 0.05,0.55 1.3,-0.2 H -8 l 4.1,0.2 0.15,-10.9 M -3.95,3.6 -3.9,2.35 -7.05,2.9 H -9.5 l -0.05,0.8 4.5,-0.15 1.1,0.05 m -3.1,4.85 -5.55,0.05 v 0.8 l 0.1,0.05 q 1.45,-0.2 3.8,-0.05 H -7 V 8.75 l -0.05,-0.3 m -8.1,-3.85 h -0.05 l 0.05,0.05 V 4.6 m 0,-4.2 -0.1,0.05 0.1,0.05 V 0.4 m -0.05,8.35 -0.7,0.4 0.7,1.25 V 8.75"
         fill="#6b6b6b"
         fill-rule="evenodd"
         stroke="none"
         id="path5" />
      <path
         d="m 14.3,-6.55 1.4,-0.2 0.25,-0.1 V -6.4 L 15.9,7.3 -5.85,7.2 -6.2,6.2 h 3.05 q 1.1,0 1.1,-0.9 V 5.2 L -2,5.1 Q -1.7,4.7 -1.7,4.3 L -1.85,-6.8 0.1,-6.65 0,-5.8 0.1,4.6 l 0.15,1.35 0.5,0.2 0.5,-0.2 V 5.9 L 5.9,6.1 h 2.55 l 4.7,-0.2 v 0.05 l 0.5,0.2 0.5,-0.2 L 14.3,4.6 14.35,-5.8 14.3,-6.55 M 15.9,8.6 V 9.3 H -5.25 L -5.45,8.45 15.9,8.2 v 0.4 m -28.55,-16 h 0.45 l 0.55,-0.05 -0.05,8.5 0.05,2.4 q 0.2,2.35 1,2.35 h 0.1 l 2.7,0.35 0.45,0.05 0.1,1 -3.6,-0.05 -1.7,-0.05 -0.05,-14.5 M -8,1.45 V 1 Q -7.85,-5.7 -8.25,-9.15 L -7.2,-9.1 -3.75,-9.25 -3.9,1.65 -8,1.45 m 0.95,7 0.05,0.3 V 9.3 h -1.7 q -2.35,-0.15 -3.8,0.05 L -12.6,9.3 V 8.5 L -7.05,8.45 M -3.95,3.6 -5.05,3.55 -9.55,3.7 -9.5,2.9 h 2.45 L -3.9,2.35 -3.95,3.6"
         fill="#797979"
         fill-rule="evenodd"
         stroke="none"
         id="path6" />
    </g>
    <g
       id="sprite2"
       transform="translate(5.4,4)">
      <use
         ffdec:characterId="43"
         height="8"
         transform="translate(-5.4,-4)"
         width="10.8"
         xlink:href="#shape1"
         id="use6" />
    </g>
    <g
       id="shape1"
       transform="translate(5.4,4)">
      <path
         d="m 2.9,-0.35 q 0,-1.25 1.25,-1.25 1.25,0 1.25,1.2 0,1.3 -1.25,1.3 Q 3.6,0.9 3.25,0.5 2.9,0.15 2.9,-0.35 m 0.35,-2.3 q 0,0.55 -0.35,0.9 -0.4,0.45 -1,0.45 -1.35,0 -1.35,-1.4 0,-1.3 1.35,-1.3 1.35,0 1.35,1.35 m -3.1,1.9 h 0.2 q 2.6,0.1 2.6,2.8 l -0.3,1 Q 2.05,4 0.45,4 H 0.35 0.15 0.1 -0.45 q -1.6,0 -2.2,-0.95 l -0.3,-1 q 0,-2.8 2.8,-2.8 h 0.3 M -1.55,-4 q 1.35,0 1.35,1.35 0,0.55 -0.4,0.9 -0.4,0.45 -0.95,0.45 -1.4,0 -1.4,-1.4 0,-1.3 1.4,-1.3 m -2.6,2.4 q 1.25,0 1.25,1.25 0,0.5 -0.35,0.85 -0.35,0.4 -0.9,0.4 -1.25,0 -1.25,-1.3 0,-1.2 1.25,-1.2"
         fill="#6b6b6b"
         fill-rule="evenodd"
         stroke="none"
         id="path7" />
    </g>
  </defs>
</svg>
