<?xml version="1.0" encoding="UTF-8" standalone="no"?>
<svg
   ffdec:objectType="frame"
   height="49.386169"
   width="25.15"
   version="1.1"
   id="svg3"
   sodipodi:docname="1.svg"
   xmlns:inkscape="http://www.inkscape.org/namespaces/inkscape"
   xmlns:sodipodi="http://sodipodi.sourceforge.net/DTD/sodipodi-0.dtd"
   xmlns:xlink="http://www.w3.org/1999/xlink"
   xmlns="http://www.w3.org/2000/svg"
   xmlns:svg="http://www.w3.org/2000/svg"
   xmlns:ffdec="https://www.free-decompiler.com/flash">
  <sodipodi:namedview
     id="namedview3"
     pagecolor="#ffffff"
     bordercolor="#000000"
     borderopacity="0.25"
     inkscape:showpageshadow="2"
     inkscape:pageopacity="0.0"
     inkscape:pagecheckerboard="0"
     inkscape:deskcolor="#d1d1d1"
     fit-margin-top="5"
     fit-margin-left="5"
     fit-margin-right="5"
     fit-margin-bottom="5" />
  <g
     transform="translate(12.55,24.68617)"
     id="g1">
    <use
       ffdec:characterId="3818"
       height="49.400002"
       transform="translate(-12.55,-24.7)"
       width="25.15"
       xlink:href="#shape0"
       id="use1" />
  </g>
  <defs
     id="defs3">
    <g
       id="shape0"
       transform="translate(12.55,24.7)">
      <path
         d="M 5.4,-22.55 4,-13.8 Q 2.65,-5.15 2.45,-1.3 l 0.45,0.35 q 1.2,1.05 0.85,2.7 5,1.45 7.2,4.95 1.65,2.55 1.65,5.95 0,3.6 -2.25,5.6 -0.65,0.55 -2.1,1.1 L 5.7,20 Q 4.6,20.2 4,20.7 l 0.3,0.5 h 0.8 q 1,-1.5 2.45,-0.9 1.3,0.55 1.3,1.4 v 0.25 L 8.4,22.15 7.7,21.7 7.1,21.2 q -0.3,0 -0.95,0.6 l -0.9,0.6 H 4 L 3.5,22.55 3.1,22.4 H 3.05 l -0.3,0.95 Q 2.2,24.7 1.45,24.7 l -1.1,-0.1 -0.5,-0.35 0.5,-0.45 H 0.9 l 0.75,-0.05 0.05,-1 -0.1,0.05 -1,0.5 q -2.5,0 -2.55,-1.5 L -3.35,22 -3.9,21.95 -4,21.5 Q -4,21 -3.4,20.85 L -1.75,21 -1.5,20.8 q 0.2,0.1 0.35,0.85 0.05,0.6 0.75,0.6 L 0.8,21.6 0,21.15 l -1.2,-0.8 -2.75,0.4 q -5.35,0 -7.45,-3.1 -1.15,-1.75 -1.15,-4.05 0,-3.65 1.5,-6.2 2.3,-4 7.8,-4.75 L -3.4,1.7 Q -3.4,1.05 -2.55,0 L -2,-0.65 -2.5,-2.45 q -1.2,-3.7 -3,-13.4 0,-3.1 2.6,-3.3 l 1.8,0.05 q 0.35,-1.9 0.35,-2.6 -1.05,-2.5 2.55,-2.9 3.65,-0.45 3.65,1.45 L 5.4,-22.7 v 0.15 m -4.4,2.3 q -0.15,0.85 0.05,2.65 l -0.4,2.4 -0.35,2.55 -0.55,5.65 -0.15,4.35 0.15,1.05 1.2,-0.15 q 0.05,-5.5 1.5,-13.1 l 1.45,-7.2 -0.1,-0.5 H 3.15 q -2,0.9 -2.15,2.3 M 2.55,4.6 Q 1.85,4.6 1.7,3.2 V 3.05 Q 0.65,1.9 1.35,0.35 0.4,0.05 -0.45,0.65 l -0.7,0.7 0.4,1.75 L -0.8,4 Q -1,4.9 -1.9,4.9 L -2.35,4.75 q -0.25,-0.2 -0.45,-0.2 -3.85,0 -5.8,4.3 -0.95,2.15 -1.15,4.4 0,1.45 1.4,2.85 l 2.2,1.45 0.55,0.2 2.1,0.3 h 0.2 0.2 l 2,-0.3 q 1.15,0 1.75,0.55 L 1.8,19 Q 2,18.15 4.1,17.5 h 0.1 l 0.3,-0.1 2.9,-0.7 0.85,-0.25 q 0.65,-0.25 1.3,-1.8 l 0.55,-2 Q 10.1,9.1 6.75,6.1 L 3.2,4.1 Q 3.15,4.6 2.55,4.6 m -4.6,-21.65 -0.45,-0.1 -0.8,0.1 -0.1,0.15 1.35,8.75 0.2,1.3 0.05,-1.15 0.55,-5.55 q -0.4,-0.85 -0.5,-2.35 l -0.15,-0.3 -0.15,-0.85"
         fill="#6b6b6b"
         fill-rule="evenodd"
         stroke="none"
         id="path1" />
      <path
         d="m 2.55,4.6 q 0.6,0 0.65,-0.5 l 3.55,2 q 3.35,3 3.35,6.55 l -0.55,2 Q 8.9,16.2 8.25,16.45 L 7.4,16.7 4.5,17.4 4.2,17.5 H 4.1 Q 2,18.15 1.8,19 L 0.65,18.3 Q 0.05,17.75 -1.1,17.75 l -2,0.3 h -0.2 -0.2 l -2.1,-0.3 -0.55,-0.2 -2.2,-1.45 q -1.4,-1.4 -1.4,-2.85 0.2,-2.25 1.15,-4.4 1.95,-4.3 5.8,-4.3 0.2,0 0.45,0.2 L -1.9,4.9 Q -1,4.9 -0.8,4 l 0.05,-0.9 -0.4,-1.75 0.7,-0.7 Q 0.4,0.05 1.35,0.35 0.65,1.9 1.7,3.05 V 3.2 q 0.15,1.4 0.85,1.4"
         fill="#afa58e"
         fill-rule="evenodd"
         stroke="none"
         id="path2" />
      <path
         d="m 1,-20.25 q 0.15,-1.4 2.15,-2.3 H 3.8 l 0.1,0.5 -1.45,7.2 Q 1,-7.25 0.95,-1.75 L -0.25,-1.6 -0.4,-2.65 -0.25,-7 0.3,-12.65 0.65,-15.2 1.05,-17.6 Q 0.85,-19.4 1,-20.25 m -3.05,3.2 0.15,0.85 0.15,0.3 q 0.1,1.5 0.5,2.35 L -1.8,-8 l -0.05,1.15 -0.2,-1.3 -1.35,-8.75 0.1,-0.15 0.8,-0.1 0.45,0.1"
         fill="#96a18a"
         fill-rule="evenodd"
         stroke="none"
         id="path3" />
    </g>
  </defs>
</svg>
