<?xml version="1.0" encoding="UTF-8" standalone="no"?>
<svg
   ffdec:objectType="frame"
   height="15.994643"
   width="17.058065"
   version="1.1"
   id="svg4"
   sodipodi:docname="2.svg"
   xmlns:inkscape="http://www.inkscape.org/namespaces/inkscape"
   xmlns:sodipodi="http://sodipodi.sourceforge.net/DTD/sodipodi-0.dtd"
   xmlns:xlink="http://www.w3.org/1999/xlink"
   xmlns="http://www.w3.org/2000/svg"
   xmlns:svg="http://www.w3.org/2000/svg"
   xmlns:ffdec="https://www.free-decompiler.com/flash">
  <sodipodi:namedview
     id="namedview4"
     pagecolor="#ffffff"
     bordercolor="#000000"
     borderopacity="0.25"
     inkscape:showpageshadow="2"
     inkscape:pageopacity="0.0"
     inkscape:pagecheckerboard="0"
     inkscape:deskcolor="#d1d1d1"
     fit-margin-top="5"
     fit-margin-left="5"
     fit-margin-right="5"
     fit-margin-bottom="5" />
  <g
     transform="translate(8.5,8)"
     id="g2">
    <use
       ffdec:characterId="4297"
       height="16"
       transform="translate(-8.5,-8)"
       width="17.049999"
       xlink:href="#shape0"
       id="use1" />
    <use
       ffdec:characterId="4298"
       height="9.8999996"
       transform="translate(-3.4,-4.7)"
       width="12.65"
       xlink:href="#text0"
       id="use2" />
  </g>
  <defs
     id="defs4">
    <g
       id="shape0"
       transform="translate(8.5,8)">
      <path
         d="M 6.3,-4.5 6.25,-4.6 6.05,-5.2 h -12.1 l -0.1,0.2 -0.2,0.5 v 0.1 l 0.05,0.55 -0.05,2.25 v 1.55 q 0.2,3.2 0,5 L -5.9,5.35 6.1,5.4 6.35,5.05 6.25,3.9 V 0.35 Q 6.15,-1.3 6.2,-2.9 l 0.1,-1.6 m 2.2,3 Q 8.8,7.9 7.55,7.9 L 7.35,7.85 7,7.95 H -5.8 Q -8.15,8.2 -8.3,7.05 L -8.45,6.6 V 3.2 0.65 l -0.05,-6.85 0.25,-0.7 0.05,-0.15 0.1,-0.1 0.7,-0.6 L -6.8,-8 H 6.4 q 2,0.15 2,1.05 l -0.15,0.45 0.25,5"
         fill="#6b6b6b"
         fill-rule="evenodd"
         stroke="none"
         id="path2" />
      <path
         d="M 6.3,-4.5 6.2,-2.9 Q 6.15,-1.3 6.25,0.35 V 3.9 L 6.35,5.05 6.1,5.4 -5.9,5.35 -6.35,4.95 q 0.2,-1.8 0,-5 V -1.6 L -6.3,-3.85 -6.35,-4.4 v -0.1 l 0.2,-0.5 0.1,-0.2 h 12.1 l 0.2,0.6 0.05,0.1"
         fill="#cfacac"
         fill-rule="evenodd"
         stroke="none"
         id="path3" />
    </g>
    <g
       id="text0"
       transform="translate(-68.7,-0.55)">
      <g
         transform="translate(68.1)"
         id="g3">
        <use
           fill="#6b6b6b"
           height="9.8999996"
           transform="matrix(0.0117,0,0,0.0117,0,9)"
           width="12.65"
           xlink:href="#font_Team_Meat_font_H0"
           id="use3" />
      </g>
    </g>
    <g
       id="font_Team_Meat_font_H0">
      <path
         d="m 488.6,-614.5 q -48,0 -64.85,48.35 12.3,109.35 24.3,218.35 v 8.1 q -61,0 -258.55,16.25 h -8.15 q 0,-180.4 -73,-266.7 h -15.9 q -40.55,0 -48.65,371.8 0,223.55 72.7,258.9 h 16.2 q 64.55,0 64.55,-81.1 V -145.7 l -7.75,-56.45 q 131.05,-24.3 153.45,-24.3 h 80.8 q 20.4,-3.9 40.55,-8.1 31.45,242.65 56.45,242.65 38.6,0 48.65,-331.55 0,-69.8 -16.2,-210.25 8.1,-13.95 8.1,-32.45 -16.55,-48.35 -64.55,-48.35 h -8.15"
         fill-rule="evenodd"
         stroke="none"
         id="path4" />
    </g>
  </defs>
</svg>
