<?xml version="1.0" encoding="UTF-8" standalone="no"?>
<svg
   ffdec:objectType="frame"
   height="69.292511"
   width="54.998638"
   version="1.1"
   id="svg42"
   sodipodi:docname="1.svg"
   xmlns:inkscape="http://www.inkscape.org/namespaces/inkscape"
   xmlns:sodipodi="http://sodipodi.sourceforge.net/DTD/sodipodi-0.dtd"
   xmlns:xlink="http://www.w3.org/1999/xlink"
   xmlns="http://www.w3.org/2000/svg"
   xmlns:svg="http://www.w3.org/2000/svg"
   xmlns:ffdec="https://www.free-decompiler.com/flash">
  <sodipodi:namedview
     id="namedview42"
     pagecolor="#ffffff"
     bordercolor="#000000"
     borderopacity="0.25"
     inkscape:showpageshadow="2"
     inkscape:pageopacity="0.0"
     inkscape:pagecheckerboard="0"
     inkscape:deskcolor="#d1d1d1"
     fit-margin-top="5"
     fit-margin-left="5"
     fit-margin-right="5"
     fit-margin-bottom="5" />
  <g
     transform="translate(27.55,38.88315)"
     id="g13">
    <use
       ffdec:characterId="401"
       height="22.15"
       transform="matrix(0.7141,0,0,0.7141,-27.55,-4.95)"
       width="22.9"
       xlink:href="#sprite0"
       id="use1" />
    <use
       ffdec:characterId="290"
       height="30.799999"
       transform="matrix(-1.1081,0,0,1,14.55,-26.25)"
       width="9.1999998"
       xlink:href="#sprite1"
       id="use2" />
    <use
       ffdec:characterId="290"
       height="30.799999"
       transform="matrix(-1.1081,0,0,1,-3,-26.25)"
       width="9.1999998"
       xlink:href="#sprite1"
       id="use3" />
    <use
       ffdec:characterId="288"
       height="48.799999"
       transform="matrix(-1.1081,0,0,0.6047,16.35,0.25)"
       width="9.1999998"
       xlink:href="#sprite2"
       id="use4" />
    <use
       ffdec:characterId="288"
       height="48.799999"
       transform="matrix(-1.1081,0,0,0.6047,-4.35,0.25)"
       width="9.1999998"
       xlink:href="#sprite2"
       id="use5" />
    <use
       ffdec:characterId="288"
       height="48.799999"
       transform="matrix(-1.1081,0,0,0.6047,20.85,0.9)"
       width="9.1999998"
       xlink:href="#sprite3"
       id="use6" />
    <use
       ffdec:characterId="288"
       height="48.799999"
       transform="matrix(-1.1081,0,0,0.6047,-8.85,0.9)"
       width="9.1999998"
       xlink:href="#sprite3"
       id="use7" />
    <use
       ffdec:characterId="374"
       height="61.400002"
       transform="matrix(0,0.7628,-0.7939,0,25.95,-6.3)"
       width="30"
       xlink:href="#sprite4"
       id="use8" />
    <use
       ffdec:characterId="349"
       height="27.950001"
       transform="matrix(0.9147,0,0,0.9147,-22.95,-38.9)"
       width="51.450001"
       xlink:href="#sprite5"
       id="use9" />
    <use
       ffdec:characterId="369"
       height="9.4499998"
       transform="matrix(0,0.9148,-0.9148,0,-17.4,-3.15)"
       width="36.25"
       xlink:href="#sprite6"
       id="use10" />
    <use
       ffdec:characterId="288"
       height="48.799999"
       transform="matrix(0,1.1081,1.0553,0,-24.05,7.4)"
       width="9.1999998"
       xlink:href="#sprite3"
       id="use11" />
    <use
       ffdec:characterId="351"
       height="9.75"
       transform="matrix(0.9147,0,0,0.9147,9,-30.7)"
       width="9.4499998"
       xlink:href="#sprite7"
       id="use12" />
    <use
       ffdec:characterId="353"
       height="9.5500002"
       transform="matrix(0.9147,0,0,0.9147,-15.9,-30.6)"
       width="9.5"
       xlink:href="#sprite8"
       id="use13" />
  </g>
  <defs
     id="defs42">
    <g
       id="sprite0">
      <use
         ffdec:characterId="400"
         height="22.15"
         width="22.9"
         xlink:href="#shape0"
         id="use14" />
    </g>
    <g
       id="shape0">
      <path
         d="m 22.25,12.45 q -0.7,2.15 -2,2.85 0.75,0.85 0.75,1.85 0,5 -4.75,5 -3.4,0 -4.95,-1.05 L 10.65,20.55 10.5,20.6 Q 9.05,21.5 6.75,21.5 3.6,21.5 1.5,19 0,17.25 0,16.35 0,12.8 0.5,11.7 1.1,10.3 2.5,9.9 L 2.35,9.5 2.2,7.5 Q 2.2,0.3 9.35,0 12,-0.15 14.25,0.85 16.5,1.8 16.5,2.95 v 0.2 l 2.4,0.05 q 4,1.05 4,5.6 0,1.8 -0.65,3.65 M 14.1,3.6 Q 12.3,2.15 9.25,2.15 6.65,2.15 5.5,4.9 4.9,6.25 4.85,7.7 4.85,8.6 5.5,8.95 6.1,9.35 6.1,10 v 0.05 q 0,1.3 -1.4,1.3 H 4.3 q -0.85,0.45 -1.05,0.9 -0.5,1 -0.5,2.5 0,1 0.85,2.2 1.25,1.8 3.6,1.8 1.15,0 2.25,-0.55 l 1.2,-0.55 q 0.55,0 0.85,0.5 l 0.1,0.1 q 0.65,0.05 1.25,0.65 0.65,0.65 2,0.65 l 2.55,-0.15 0.65,-0.9 0.45,-1.25 -0.75,-1 L 17,15.2 q 0,-1.2 0.7,-1.25 l 1.15,-1.5 Q 20.4,10.45 20.4,8.9 20.4,7.25 20.1,6.85 19.3,5.8 16.25,5.8 15.15,5.8 14.9,5.1 V 4.6 L 14.95,4.35 14.1,3.6"
         fill="#9a9a9a"
         fill-rule="evenodd"
         stroke="none"
         id="path14" />
      <path
         d="M 11.9,4.65 11.8,4.6 Q 10.95,4.1 9.4,4.85 7.9,5.6 7.9,6.2 q 0,0.4 0.15,0.5 l 0.3,0.1 Q 9.25,6.3 10.9,5.85 11.95,5.55 11.95,5.1 L 11.9,4.65 M 14.1,3.6 14.95,4.35 14.9,4.6 v 0.5 q 0.25,0.7 1.35,0.7 3.05,0 3.85,1.05 0.3,0.4 0.3,2.05 0,1.55 -1.55,3.55 l -1.15,1.5 Q 17,14 17,15.2 l 0.75,1.05 0.75,1 -0.45,1.25 -0.65,0.9 -2.55,0.15 q -1.35,0 -2,-0.65 -0.6,-0.6 -1.25,-0.65 l -0.1,-0.1 q -0.3,-0.5 -0.85,-0.5 l -1.2,0.55 q -1.1,0.55 -2.25,0.55 -2.35,0 -3.6,-1.8 -0.85,-1.2 -0.85,-2.2 0,-1.5 0.5,-2.5 0.2,-0.45 1.05,-0.9 h 0.4 q 1.4,0 1.4,-1.3 V 10 Q 6.1,9.35 5.5,8.95 4.85,8.6 4.85,7.7 4.9,6.25 5.5,4.9 6.65,2.15 9.25,2.15 q 3.05,0 4.85,1.45 m -4,11.6 -0.85,-0.8 -0.9,-0.85 q -0.8,0.6 -0.8,1.45 l 0.85,1.05 q 1.45,1 4.8,1 l 0.9,-0.45 q 0.6,-0.5 0.6,-1 L 14.6,15.15 Q 14.4,14.7 13.7,14.7 L 12.75,14.85 10.1,15.2 M 9.9,11.6 10.05,10.35 10.7,8.9 Q 9,7.75 8.55,8.7 8.35,9.05 8.35,10.45 L 8.45,11.8 9.2,11.95 9.75,11.8 9.9,11.6 M 6.05,12.3 5.95,12.15 Q 5,12.25 4.2,13.25 3.55,14 3.55,14.45 l 0.2,0.8 0.6,1.05 1.1,-0.25 L 5.1,15.9 q -0.15,-0.1 -0.15,-0.5 0,-0.35 0.6,-1.4 l 0.6,-1.3 -0.1,-0.4 m 9.85,-0.45 q 1,0 1.45,-0.7 l 0.3,-1.05 q 0,-1.75 -1.75,-1.75 -1.8,0 -1.8,1.75 0,1.75 1.8,1.75 m -3.05,0.2 -1.2,0.05 q -0.3,0.2 -0.3,0.55 l 0.85,0.9 0.75,-0.35 0.1,-0.5 -0.2,-0.65"
         fill="#d1d1d1"
         fill-rule="evenodd"
         stroke="none"
         id="path15" />
      <path
         d="m 11.9,4.65 0.05,0.45 q 0,0.45 -1.05,0.75 Q 9.25,6.3 8.35,6.8 L 8.05,6.7 Q 7.9,6.6 7.9,6.2 7.9,5.6 9.4,4.85 10.95,4.1 11.8,4.6 l 0.1,0.05 m 0.95,7.4 0.2,0.65 -0.1,0.5 -0.75,0.35 -0.85,-0.9 q 0,-0.35 0.3,-0.55 l 1.2,-0.05 m 3.05,-0.2 q -1.8,0 -1.8,-1.75 0,-1.75 1.8,-1.75 1.75,0 1.75,1.75 l -0.3,1.05 q -0.45,0.7 -1.45,0.7 m -9.85,0.45 0.1,0.4 -0.6,1.3 q -0.6,1.05 -0.6,1.4 0,0.4 0.15,0.5 l 0.35,0.15 -1.1,0.25 -0.6,-1.05 -0.2,-0.8 q 0,-0.45 0.65,-1.2 0.8,-1 1.75,-1.1 l 0.1,0.15 M 9.9,11.6 9.75,11.8 9.2,11.95 8.45,11.8 8.35,10.45 Q 8.35,9.05 8.55,8.7 9,7.75 10.7,8.9 L 10.05,10.35 9.9,11.6 m 0.2,3.6 2.65,-0.35 0.95,-0.15 q 0.7,0 0.9,0.45 l 0.1,0.45 q 0,0.5 -0.6,1 l -0.9,0.45 q -3.35,0 -4.8,-1 L 7.55,15 q 0,-0.85 0.8,-1.45 l 0.9,0.85 0.85,0.8"
         fill="#c9c9c9"
         fill-rule="evenodd"
         stroke="none"
         id="path16" />
    </g>
    <g
       id="sprite1">
      <use
         ffdec:characterId="289"
         height="30.799999"
         width="9.1999998"
         xlink:href="#shape1"
         id="use16" />
    </g>
    <g
       id="shape1">
      <path
         d="M 8.6,1.25 8.95,1.1 9.15,11.15 H 9.2 v 1.1 2.35 2.3 1.65 9.4 1.2 H 9 L 8.95,29.7 8.6,29.55 q -0.2,1.05 -2.95,1.2 l -1,0.05 H 4.55 L 3.45,30.75 Q 0.8,30.6 0.6,29.55 L 0.25,29.7 V 29.15 H 0.05 L 0,27.95 0.05,18.55 v -1.05 -1 -2 -0.95 -2.4 H 0.1 q 0,-6 0.15,-10.05 L 0.6,1.25 Q 0.8,0.2 3.45,0.05 L 4.55,0 h 0.1 l 1,0.05 Q 8.4,0.2 8.6,1.25 M 5.65,28 h 0.5 0.05 v -1.3 -7.05 -1.1 -1.45 -4.85 -1.1 H 6.3 L 6.4,7 V 6.55 Q 6.35,5.2 6.55,4.2 L 6.7,2.8 H 6.15 L 5.85,2.85 H 5.05 4.6 4.15 3.4 L 2.5,2.8 2.65,4.2 2.8,6.55 V 7 l 0.15,4.15 H 3 v 1.1 1.25 3.6 1.45 1 0.65 6.5 1.3 L 3.4,27.95 H 4.15 4.6 5.05 5.2 L 5.65,28"
         fill="#9a9a9a"
         fill-rule="evenodd"
         stroke="none"
         id="path17" />
      <path
         d="M 6.15,2.8 V 4.3 Q 6.15,6.5 5.6,9 5.05,11.5 5.05,15.1 5.05,18.15 5.7,27 L 5.65,28 5.2,27.95 4.6,15.05 4.65,11.5 Q 4.8,9.6 5.4,8.15 5.85,7.1 5.8,4.7 L 5.85,2.85 6.15,2.8"
         fill="#ababab"
         fill-rule="evenodd"
         stroke="none"
         id="path18" />
      <path
         d="M 5.65,28 5.7,27 Q 5.05,18.15 5.05,15.1 5.05,11.5 5.6,9 6.15,6.5 6.15,4.3 V 2.8 H 6.7 L 6.55,4.2 Q 6.35,5.2 6.4,6.55 V 7 L 6.3,11.15 H 6.2 v 1.1 4.85 1.45 1.1 7.05 1.3 H 6.15 5.65 M 5.85,2.85 5.8,4.7 Q 5.85,7.1 5.4,8.15 4.8,9.6 4.65,11.5 L 4.6,15.05 5.2,27.95 H 5.05 4.6 4.15 3.4 L 3,28 v -1.3 -6.5 -0.65 -1 -1.45 -3.6 -1.25 -1.1 H 2.95 L 2.8,7 V 6.55 L 2.65,4.2 2.5,2.8 3.4,2.85 h 0.75 0.45 0.45 0.8"
         fill="#b5b0ac"
         fill-rule="evenodd"
         stroke="none"
         id="path19" />
    </g>
    <g
       id="sprite2">
      <use
         ffdec:characterId="287"
         height="48.799999"
         width="9.1999998"
         xlink:href="#shape2"
         id="use19" />
    </g>
    <g
       id="shape2">
      <path
         d="M 5.65,0.05 Q 8.4,0.2 8.95,1.1 L 9.2,18.55 v 9.4 2.3 L 8.95,47.6 v 0.1 H 8.9 q -0.6,0.9 -3.25,1.05 l -1,0.05 H 4.55 L 3.45,48.75 Q 0.8,48.6 0.25,47.7 L 0.1,38.2 0.05,31.55 0,27.95 0.05,18.55 0.25,1.1 Q 0.8,0.2 3.45,0.05 L 4.55,0 h 0.1 l 1,0.05 m 0.55,27 V 26.7 18.55 L 6.25,11.8 6.4,7 V 6.55 Q 6.35,5.2 6.55,4.2 L 6.7,2.8 H 6.15 L 5.05,2.85 H 4.6 4.35 4.15 3.4 L 2.5,2.8 2.65,4.2 2.8,6.55 V 7 L 2.95,11.8 3,18.55 v 8.15 1.5 2.05 3.55 1.3 2.45 0.65 H 2.95 L 2.8,41.8 v 0.45 L 2.65,44.6 2.5,46 3.4,45.95 h 0.75 0.45 0.15 0.3 0.3 L 6.15,46 H 6.7 L 6.55,44.6 Q 6.35,43.6 6.4,42.25 V 41.8 L 6.3,38.2 H 6.25 L 6.2,37.55 v -2.45 -3.65 -1.2 -3.2"
         fill="#9a9a9a"
         fill-rule="evenodd"
         stroke="none"
         id="path20" />
      <path
         d="m 6.2,27.05 v 3.2 1.2 l -0.25,1.6 q -0.9,5.8 -0.9,8.5 l 0.3,4.4 H 5.05 4.75 L 4.65,45.4 Q 4.5,44.55 4.5,43.05 4.5,39.1 5.25,34.2 L 6.2,27.05 M 3,33.8 V 30.25 28.2 l 0.2,-1.3 1,-6.35 V 7.65 L 4.35,2.85 H 4.6 L 4.75,7.8 V 20.7 L 4.8,21 3.9,27.8 3,33.8"
         fill="#ababab"
         fill-rule="evenodd"
         stroke="none"
         id="path21" />
      <path
         d="M 4.6,2.85 H 5.05 L 6.15,2.8 H 6.7 L 6.55,4.2 Q 6.35,5.2 6.4,6.55 V 7 L 6.25,11.8 6.2,18.55 v 8.15 0.35 L 5.25,34.2 q -0.75,4.9 -0.75,8.85 0,1.5 0.15,2.35 l 0.1,0.55 H 4.6 4.15 3.4 L 2.5,46 2.65,44.6 2.8,42.25 V 41.8 L 2.95,38.2 H 3 V 37.55 35.1 33.8 L 3.9,27.8 4.8,21 4.75,20.7 V 7.8 L 4.6,2.85 m 1.6,28.6 v 3.65 2.45 L 6.25,38.2 H 6.3 l 0.1,3.6 v 0.45 Q 6.35,43.6 6.55,44.6 L 6.7,46 H 6.15 l -0.8,-0.05 -0.3,-4.4 q 0,-2.7 0.9,-8.5 L 6.2,31.45 M 3,28.2 V 26.7 18.55 L 2.95,11.8 2.8,7 V 6.55 L 2.65,4.2 2.5,2.8 3.4,2.85 h 0.75 0.2 L 4.2,7.65 v 12.9 L 3.2,26.9 3,28.2"
         fill="#b5b0ac"
         fill-rule="evenodd"
         stroke="none"
         id="path22" />
    </g>
    <g
       id="sprite3">
      <use
         ffdec:characterId="287"
         height="48.799999"
         width="9.1999998"
         xlink:href="#shape3"
         id="use22" />
    </g>
    <g
       id="shape3">
      <path
         d="M 5.65,0.05 Q 8.4,0.2 8.95,1.1 L 9.2,18.55 v 9.4 2.3 L 8.95,47.6 v 0.1 H 8.9 q -0.6,0.9 -3.25,1.05 l -1,0.05 H 4.55 L 3.45,48.75 Q 0.8,48.6 0.25,47.7 L 0.1,38.2 0.05,31.55 0,27.95 0.05,18.55 0.25,1.1 Q 0.8,0.2 3.45,0.05 L 4.55,0 h 0.1 l 1,0.05 m 0.55,27 V 26.7 18.55 L 6.25,11.8 6.4,7 V 6.55 Q 6.35,5.2 6.55,4.2 L 6.7,2.8 H 6.15 L 5.05,2.85 H 4.6 4.35 4.15 3.4 L 2.5,2.8 2.65,4.2 2.8,6.55 V 7 L 2.95,11.8 3,18.55 v 8.15 1.5 2.05 3.55 1.3 2.45 0.65 H 2.95 L 2.8,41.8 v 0.45 L 2.65,44.6 2.5,46 3.4,45.95 h 0.75 0.45 0.15 0.3 0.3 L 6.15,46 H 6.7 L 6.55,44.6 Q 6.35,43.6 6.4,42.25 V 41.8 L 6.3,38.2 H 6.25 L 6.2,37.55 v -2.45 -3.65 -1.2 -3.2"
         fill="#6b6b6b"
         fill-rule="evenodd"
         stroke="none"
         id="path23" />
      <path
         d="m 6.2,27.05 v 3.2 1.2 l -0.25,1.6 q -0.9,5.8 -0.9,8.5 l 0.3,4.4 H 5.05 4.75 L 4.65,45.4 Q 4.5,44.55 4.5,43.05 4.5,39.1 5.25,34.2 L 6.2,27.05 M 3,33.8 V 30.25 28.2 l 0.2,-1.3 1,-6.35 V 7.65 L 4.35,2.85 H 4.6 L 4.75,7.8 V 20.7 L 4.8,21 3.9,27.8 3,33.8"
         fill="#989898"
         fill-rule="evenodd"
         stroke="none"
         id="path24" />
      <path
         d="M 4.6,2.85 H 5.05 L 6.15,2.8 H 6.7 L 6.55,4.2 Q 6.35,5.2 6.4,6.55 V 7 L 6.25,11.8 6.2,18.55 v 8.15 0.35 L 5.25,34.2 q -0.75,4.9 -0.75,8.85 0,1.5 0.15,2.35 l 0.1,0.55 H 4.6 4.15 3.4 L 2.5,46 2.65,44.6 2.8,42.25 V 41.8 L 2.95,38.2 H 3 V 37.55 35.1 33.8 L 3.9,27.8 4.8,21 4.75,20.7 V 7.8 L 4.6,2.85 m 1.6,28.6 v 3.65 2.45 L 6.25,38.2 H 6.3 l 0.1,3.6 v 0.45 Q 6.35,43.6 6.55,44.6 L 6.7,46 H 6.15 l -0.8,-0.05 -0.3,-4.4 q 0,-2.7 0.9,-8.5 L 6.2,31.45 M 3,28.2 V 26.7 18.55 L 2.95,11.8 2.8,7 V 6.55 L 2.65,4.2 2.5,2.8 3.4,2.85 h 0.75 0.2 L 4.2,7.65 v 12.9 L 3.2,26.9 3,28.2"
         fill="#b2a69a"
         fill-rule="evenodd"
         stroke="none"
         id="path25" />
    </g>
    <g
       id="sprite4">
      <use
         ffdec:characterId="373"
         height="61.400002"
         width="30"
         xlink:href="#shape4"
         id="use25" />
    </g>
    <g
       id="shape4">
      <path
         d="m 26.4,5.35 2.45,6 Q 29.8,13.6 29.95,17 L 30,22.45 v 1.75 10.85 2.6 0.85 l -0.05,5.9 q -0.15,3.4 -1.1,5.65 l -2.45,6 Q 24.6,59.5 21.35,61.4 H 8.65 Q 5.4,59.5 3.6,56.05 l -2.45,-6 Q 0.2,47.8 0.05,44.4 L 0,38.5 V 37.65 35.05 24.2 22.45 L 0.05,17 q 0.15,-3.4 1.1,-5.65 l 2.45,-6 Q 5.4,1.9 8.65,0 h 12.7 Q 24.6,1.9 26.4,5.35 M 25.35,16.3 24.85,13.8 Q 23.65,9.3 20.3,4.25 h -5.25 l -0.3,1.2 -0.45,1.8 q 1.6,0.15 2.4,0.7 L 16.25,8.4 15.25,8.6 14.1,8.35 14,9 l 0.05,0.9 1.8,-0.15 0.1,0.35 -1.65,0.85 q 0.3,1 1,1.75 l 0.75,0.7 1.45,-0.95 0.25,0.2 0.1,0.55 -0.7,1 1.65,0.9 q 0.6,-1.05 1.15,-1.35 0.55,0.2 0.55,0.9 l -0.45,1.05 1.35,0.55 3.95,0.05 m 0.45,4.95 -6.95,0.1 0.25,4.2 q 1.05,0.2 2.25,1.05 -0.75,0.6 -2.2,0.75 l 0.05,2.25 0.9,0.35 -0.25,0.55 -0.6,0.35 v 6.6 l 2.1,0.4 -1.2,0.4 -0.85,0.2 v 3.8 l 0.65,0.1 0.1,0.1 0.05,0.4 q 0,0.5 -0.45,0.65 l -0.35,0.1 v 2.65 h 0.05 l 0.1,0.45 -0.2,0.3 -0.2,3.8 h 4.7 l 1.1,-3.2 q 0.95,-3.65 0.95,-9.15 v -0.8 -1.3 -1.3 -10.65 -1.95 -1.2 m -4.8,-3.3 -2.25,-0.4 -0.9,0.9 -0.35,-0.1 -0.1,-0.4 L 17.8,17.1 15.85,15.75 15,16.35 14.65,16.3 Q 14.5,16.25 14.5,15.85 14.5,15.3 14.8,14.8 12.75,12.7 12.75,11.45 L 11,11.7 q -0.65,0 -0.8,-0.6 0.55,-0.45 2.55,-0.9 L 12.85,8 11.7,7.55 q 0.4,-0.3 1.2,-0.35 l 0.05,-0.6 q 0.2,-1.3 0.7,-2.35 H 9.7 Q 6.35,9.3 5.15,13.8 4.55,16.05 4.35,18.95 H 5.5 L 5.55,17.7 q 0.1,-0.95 0.65,-0.9 l 0.3,2.15 H 8.75 Q 8.6,18.1 8.6,17 q 0,-0.65 0.6,-0.8 l 0.75,1.05 0.05,1 v 0.7 h 3.4 l 0.85,0.9 -0.1,0.4 -0.15,0.2 v 4.1 l 1.85,-0.2 0.15,0.4 q -0.5,0.5 -1.6,0.85 L 14,25.75 v 2.75 h 0.25 q 1,0.05 1,0.75 0,0.55 -0.35,0.7 L 14,30 v 0.55 l 0.15,4.15 v 2.55 l -0.2,1.3 0.05,0.4 -0.55,0.5 -0.1,0.05 h -0.2 l -3.7,0.2 0.05,2.05 v 0.05 l 2,0.15 0.1,-0.05 0.05,0.4 -0.65,0.65 -1.5,0.4 V 44.6 L 9.25,46.25 H 9.4 L 9.2,46.4 8.85,46.95 H 8.8 l -3.75,0.25 0.1,0.4 q 0.5,1.85 1.35,3.8 L 8.15,49.45 9.1,48.6 8.95,48 9.6,48.15 q 1.25,-0.95 2.6,-1.5 0.05,-1 0.5,-1.2 l 0.55,0.85 2.3,-0.3 1.95,0.05 v -2.3 H 16.1 L 15.25,43.45 15.2,43.1 q 0.9,-0.9 2.3,-1 v -3.55 h -1.4 l -0.65,-0.7 q 0,-0.75 2.05,-0.6 V 31 H 17.35 Q 16,30.75 15.7,30.35 q 0.75,-0.7 1.4,-0.95 l 0.4,-0.05 v -2.1 l -0.45,-0.1 Q 16.2,26.9 16.1,26.75 l 1.4,-1.05 v -2.9 l 0.3,-1.5 -0.7,-0.65 Q 17.1,20 18,19.9 h 0.3 0.15 q 1.85,-0.15 7.3,0.05 l -0.15,-2 H 21 M 4.2,24.4 4.25,34.6 h 4.4 l 0.75,0.75 -0.25,0.55 -0.1,0.15 0.3,2.25 v 0.05 L 12.3,38.3 12.15,37.15 v -2.4 L 12.2,29.95 11.6,29.8 10.75,29.2 10.7,28.95 12.2,28.7 v -2.85 l -0.35,-0.1 -0.7,-0.4 Q 11.45,25.1 12.2,24.9 V 20.75 H 9.55 l -0.1,0.2 -0.15,-0.2 H 6.4 l -0.3,1 q -0.3,-0.4 -0.45,-1 h -1.4 l -0.05,1.7 v 1.95 m 0.05,11.7 v 1.55 H 4.2 v 0.8 q 0,4 0.5,7.05 L 7.95,46 Q 7.7,45.05 7.7,43.35 L 7.25,43.3 Q 7,43.25 7,42.65 7,42.3 7.75,42.1 V 41.75 L 7.8,37.9 8.05,36.25 4.25,36.1 m 6.7,13.25 0.05,0.25 0.35,0.5 0.6,0.9 -0.05,0.2 -0.1,0.1 -0.55,0.05 q -0.5,0 -1.3,-1.25 l -0.75,0.6 -1.15,1.25 0.05,0.25 -0.4,0.35 -0.35,0.6 2.35,4 h 10.6 l 2.75,-4.8 h -4.3 l -0.35,0.4 -1.2,-0.2 -0.1,-0.6 0.1,-0.55 0.3,-0.4 v -3.45 h -0.2 l -3.45,0.6 v 0.8 l -0.1,0.55 -0.25,0.25 H 12.95 L 12.7,48.4 q -0.75,0.2 -1.75,0.95"
         fill="#6b6b6b"
         fill-rule="evenodd"
         stroke="none"
         id="path26" />
      <path
         d="m 25.8,21.25 v 1.2 1.95 10.65 1.3 1.3 0.8 q 0,5.5 -0.95,9.15 l -1.1,3.2 h -4.7 l 0.2,-3.8 0.2,-0.3 -0.1,-0.45 H 19.3 V 43.6 l 0.35,-0.1 q 0.45,-0.15 0.45,-0.65 l -0.05,-0.4 -0.1,-0.1 -0.65,-0.1 v -3.8 l 0.85,-0.2 1.2,-0.4 -2.1,-0.4 v -6.6 l 0.6,-0.35 0.25,-0.55 -0.9,-0.35 -0.05,-2.25 q 1.45,-0.15 2.2,-0.75 -1.2,-0.85 -2.25,-1.05 l -0.25,-4.2 6.95,-0.1 M 4.2,24.4 v -1.95 l 0.05,-1.7 h 1.4 q 0.15,0.6 0.45,1 l 0.3,-1 h 2.9 l 0.15,0.2 0.1,-0.2 h 2.65 v 4.15 q -0.75,0.2 -1.05,0.45 l 0.7,0.4 0.35,0.1 v 2.85 l -1.5,0.25 0.05,0.25 0.85,0.6 0.6,0.15 -0.05,4.8 v 2.4 L 12.3,38.3 9.35,38.35 V 38.3 L 9.05,36.05 9.15,35.9 9.4,35.35 8.65,34.6 H 4.25 L 4.2,24.4"
         fill="#bba5c3"
         fill-rule="evenodd"
         stroke="none"
         id="path27" />
      <path
         d="m 21,17.95 h 4.6 l 0.15,2 Q 20.3,19.75 18.45,19.9 H 18.3 18 q -0.9,0.1 -0.9,0.75 l 0.7,0.65 -0.3,1.5 v 2.9 l -1.4,1.05 q 0.1,0.15 0.95,0.4 l 0.45,0.1 v 2.1 l -0.4,0.05 q -0.65,0.25 -1.4,0.95 0.3,0.4 1.65,0.65 h 0.15 v 6.25 q -2.05,-0.15 -2.05,0.6 l 0.65,0.7 h 1.4 v 3.55 q -1.4,0.1 -2.3,1 l 0.05,0.35 0.85,0.3 h 1.4 v 2.3 L 15.55,46 13.25,46.3 12.7,45.45 q -0.45,0.2 -0.5,1.2 -1.35,0.55 -2.6,1.5 L 8.95,48 9.1,48.6 8.15,49.45 6.5,51.4 Q 5.65,49.45 5.15,47.6 L 5.05,47.2 8.8,46.95 H 8.85 L 9.2,46.4 9.4,46.25 H 9.25 L 9.5,44.6 v -1.25 l 1.5,-0.4 0.65,-0.65 -0.05,-0.4 -0.1,0.05 -2,-0.15 v -0.05 l -0.05,-2.05 3.7,-0.2 h 0.2 l 0.1,-0.05 0.55,-0.5 -0.05,-0.4 0.2,-1.3 V 34.7 L 14,30.55 V 30 l 0.9,-0.05 q 0.35,-0.15 0.35,-0.7 0,-0.7 -1,-0.75 H 14 v -2.75 l 0.4,-0.15 q 1.1,-0.35 1.6,-0.85 l -0.15,-0.4 -1.85,0.2 v -4.1 l 0.15,-0.2 0.1,-0.4 -0.85,-0.9 H 10 v -0.7 L 9.95,17.25 9.2,16.2 q -0.6,0.15 -0.6,0.8 0,1.1 0.15,1.95 H 6.5 L 6.2,16.8 Q 5.65,16.75 5.55,17.7 L 5.5,18.95 H 4.35 q 0.2,-2.9 0.8,-5.15 1.2,-4.5 4.55,-9.55 h 3.95 Q 13.15,5.3 12.95,6.6 L 12.9,7.2 q -0.8,0.05 -1.2,0.35 l 1.15,0.45 -0.1,2.2 q -2,0.45 -2.55,0.9 0.15,0.6 0.8,0.6 l 1.75,-0.25 q 0,1.25 2.05,3.35 -0.3,0.5 -0.3,1.05 0,0.4 0.15,0.45 l 0.35,0.05 0.85,-0.6 1.95,1.35 -0.4,0.85 0.1,0.4 0.35,0.1 0.9,-0.9 2.25,0.4"
         fill="#b8a0a0"
         fill-rule="evenodd"
         stroke="none"
         id="path28" />
      <path
         d="M 25.35,16.3 21.4,16.25 20.05,15.7 20.5,14.65 q 0,-0.7 -0.55,-0.9 -0.55,0.3 -1.15,1.35 l -1.65,-0.9 0.7,-1 -0.1,-0.55 -0.25,-0.2 -1.45,0.95 -0.75,-0.7 q -0.7,-0.75 -1,-1.75 L 15.95,10.1 15.85,9.75 14.05,9.9 14,9 14.1,8.35 15.25,8.6 16.25,8.4 16.7,7.95 Q 15.9,7.4 14.3,7.25 l 0.45,-1.8 0.3,-1.2 h 5.25 q 3.35,5.05 4.55,9.55 l 0.5,2.5"
         fill="#a98e99"
         fill-rule="evenodd"
         stroke="none"
         id="path29" />
      <path
         d="m 10.95,49.35 q 1,-0.75 1.75,-0.95 l 0.25,1.35 h 0.55 l 0.25,-0.25 0.1,-0.55 v -0.8 l 3.45,-0.6 h 0.2 V 51 l -0.3,0.4 -0.1,0.55 0.1,0.6 1.2,0.2 0.35,-0.4 h 4.3 l -2.75,4.8 H 9.7 L 7.35,53.15 7.7,52.55 8.1,52.2 8.05,51.95 9.2,50.7 9.95,50.1 q 0.8,1.25 1.3,1.25 L 11.8,51.3 11.9,51.2 11.95,51 11.35,50.1 11,49.6 10.95,49.35 M 4.25,36.1 8.05,36.25 7.8,37.9 7.75,41.75 V 42.1 Q 7,42.3 7,42.65 q 0,0.6 0.25,0.65 l 0.45,0.05 q 0,1.7 0.25,2.65 L 4.7,45.5 Q 4.2,42.45 4.2,38.45 v -0.8 H 4.25 V 36.1"
         fill="#c6b8aa"
         fill-rule="evenodd"
         stroke="none"
         id="path30" />
    </g>
    <g
       id="sprite5">
      <use
         ffdec:characterId="348"
         height="27.950001"
         width="51.450001"
         xlink:href="#shape5"
         id="use30" />
    </g>
    <g
       id="shape5">
      <path
         d="m 51.45,1.95 v 12 L 51.4,14.2 v 11.2 l -0.3,1.2 q -0.4,0.85 -1.15,0.85 h -0.2 l -0.7,0.4 H 19.2 V 27.9 H 8.7 4.75 2.1 Q 0.75,27.7 0.6,26.6 V 26.55 L 0.4,25.6 v -0.4 l 0.1,-0.05 v -15 L 0.05,4.35 Q -0.2,1.1 1.65,0.7 2.15,0.05 2.9,0.2 L 44.15,0.15 q 5.35,-0.5 6.5,0.9 l 0.8,0.9 M 44.3,8.6 h 1.3 V 8.5 q 0.1,-1.05 0.7,-1.45 l 0.35,1.55 h 1.5 l 0.1,-1.3 -0.3,-3.65 H 37.1 v 0.6 l -0.15,1.5 1.1,1 q -0.3,0.6 -0.85,0.6 L 36.45,7.2 35.1,9.45 34.95,9.7 l 0.25,0.9 -0.1,1.25 0.1,1.8 -0.4,4.65 -0.05,6 h 4.55 l 0.05,-2.95 h -0.8 l -0.45,-0.1 q -0.15,-0.1 -0.15,-0.5 0,-0.55 0.75,-0.6 L 39.35,20.2 39.4,18 H 39.05 Q 38.45,18 37.7,17.35 38.15,17 38.55,16.9 l 0.85,-0.1 0.05,-4.95 q 0,-1.35 0.15,-2.2 l -0.15,-0.1 v -0.4 q 0,-0.4 0.25,-0.5 L 39.9,8.6 40.2,8.25 q 0.5,-0.35 0.7,0.3 L 43.25,8.6 43.4,6.7 h 0.4 q 0.4,0.25 0.5,1.9 m -0.1,2.7 -0.15,0.2 -0.65,0.05 -0.15,-1.7 h -2.3 l -0.05,6.9 0.55,-0.05 0.5,0.1 0.2,0.5 -0.7,0.7 h -0.6 v 1.05 l 0.05,1.35 1.65,0.3 0.05,0.15 -1.45,0.5 H 40.9 L 41,23.9 v 0.4 h 7.5 Q 48.25,22.85 48.15,20.55 V 14.3 L 48.1,11.45 48.15,9.8 46.7,9.85 46.55,11.2 46.15,11.35 Q 45.75,11.1 45.65,10.6 V 9.85 H 44.3 L 44.2,11.3 M 36,3.65 h -9.4 l 0.25,2.3 H 27.2 L 28.15,6.5 27.8,7.05 26.9,7.25 V 8.5 h 0.8 l 0.1,-0.05 0.05,0.4 -0.05,0.4 -0.1,0.2 -0.5,0.1 -0.3,-0.05 -0.05,0.9 v 0.95 H 28.7 L 29.85,11.3 29.6,10.5 29.7,9.7 h 0.6 l 0.75,1.2 0.05,0.1 q 2.6,-0.95 4,-4.1 L 35.25,6.4 34.7,6.05 Q 35.05,5.7 35.45,5.55 L 36,3.65 m -4.3,8.6 v 0.55 l -0.4,0.25 -0.7,-0.45 -1.95,0.2 -1.8,-0.15 -0.05,0.8 q -0.2,1.9 -0.9,3 h -5.4 l -0.05,1.1 -0.5,0.2 q -0.45,-0.5 -0.55,-1.1 v -0.2 h -3.15 l -0.3,1 -0.4,0.05 Q 15.3,17.1 15.2,16.45 H 9.1 Q 8.3,15.5 8.1,12.7 L 8.05,9.4 7.15,9.3 5.9,9 Q 7.3,7.8 8.05,8.1 L 8.1,7.15 6.9,6.95 Q 7.25,6.55 8.1,6.25 8.15,4.7 8.35,3.65 H 4.2 L 4.15,4.2 3.9,8.05 V 8.1 l 0.3,7.1 v 3.75 h 2.9 q 0.05,-0.9 0.5,-1.25 l 0.45,1.25 2.9,-0.05 0.35,-1.05 q 0.55,0.05 0.7,1.05 h 4 q 0.1,-0.95 0.6,-0.85 l 0.3,0.85 H 21 q 0.1,-0.85 0.45,-1.15 l 0.45,1.15 3.5,-0.05 1.2,0.05 q 0.2,-1.45 0.6,-1.8 0.55,0.7 0.7,1.8 l 5.45,0.25 v -0.9 L 33.4,13.9 q 0.05,-1.75 0.35,-2.95 -0.95,0.8 -2.05,1.3 M 24.95,5.75 25.1,3.65 H 9.65 l 0.45,1.6 v 0.6 l 1.85,0.4 -0.3,0.55 q -0.4,0.3 -1.55,0.4 v 1.4 l 1.1,-0.4 0.65,0.55 q -0.5,0.35 -0.55,0.6 l -1.2,0.1 v 5.05 h 5.1 v -0.15 q 0.05,-0.55 0.6,-1.3 l 0.45,1.45 h 3.15 v -0.55 q 0.15,-0.9 0.8,-1.15 l 0.3,0.25 0.15,0.55 -0.05,0.9 4.35,-0.05 V 9.2 l -1.5,-0.4 1.5,-0.15 V 7.2 l -1.25,-0.25 -0.55,-0.7 0.8,-0.5 h 1 m -3.9,14.8 -4.15,-0.05 -0.05,0.2 -0.4,0.25 L 16.1,20.5 H 12.05 L 12,20.85 q -0.2,0.7 -0.8,0.9 l -0.35,-0.2 Q 10.7,21.45 10.7,21 l 0.05,-0.5 h -2.7 l -0.4,1.7 Q 7.15,21.8 7.05,20.9 V 20.5 H 4.2 v 1.15 L 3.95,24.4 8.7,24.3 h 24.7 l -0.1,-4 -2.65,0.25 h -2.9 l -0.65,0.8 -0.7,-0.8 h -4.45 v 0.05 l -0.5,0.85 -0.4,-0.9"
         fill="#9a9a9a"
         fill-rule="evenodd"
         stroke="none"
         id="path31" />
      <path
         d="M 44.3,8.6 Q 44.2,6.95 43.8,6.7 H 43.4 L 43.25,8.6 40.9,8.55 Q 40.7,7.9 40.2,8.25 L 39.9,8.6 39.7,8.65 q -0.25,0.1 -0.25,0.5 v 0.4 l 0.15,0.1 q -0.15,0.85 -0.15,2.2 L 39.4,16.8 38.55,16.9 Q 38.15,17 37.7,17.35 38.45,18 39.05,18 h 0.35 l -0.05,2.2 -0.65,-0.05 q -0.75,0.05 -0.75,0.6 0,0.4 0.15,0.5 l 0.45,0.1 h 0.8 L 39.3,24.3 h -4.55 l 0.05,-6 0.4,-4.65 -0.1,-1.8 L 35.2,10.6 34.95,9.7 35.1,9.45 36.45,7.2 37.2,7.35 q 0.55,0 0.85,-0.6 l -1.1,-1 0.15,-1.5 v -0.6 h 10.85 l 0.3,3.65 -0.1,1.3 h -1.5 L 46.3,7.05 q -0.6,0.4 -0.7,1.45 v 0.1 h -1.3"
         fill="#b2a7ab"
         fill-rule="evenodd"
         stroke="none"
         id="path32" />
      <path
         d="m 44.2,11.3 0.1,-1.45 h 1.35 v 0.75 q 0.1,0.5 0.5,0.75 l 0.4,-0.15 0.15,-1.35 1.45,-0.05 -0.05,1.65 0.05,2.85 v 6.25 q 0.1,2.3 0.35,3.75 H 41 v -0.4 l -0.1,-2.55 h 0.25 L 42.6,20.85 42.55,20.7 40.9,20.4 40.85,19.05 V 18 h 0.6 l 0.7,-0.7 -0.2,-0.5 -0.5,-0.1 -0.55,0.05 0.05,-6.9 h 2.3 l 0.15,1.7 0.65,-0.05 0.15,-0.2"
         fill="#bdb7b2"
         fill-rule="evenodd"
         stroke="none"
         id="path33" />
      <path
         d="m 31.7,12.25 q 1.1,-0.5 2.05,-1.3 -0.3,1.2 -0.35,2.95 l -0.05,4.35 v 0.9 L 27.9,18.9 q -0.15,-1.1 -0.7,-1.8 -0.4,0.35 -0.6,1.8 L 25.4,18.85 21.9,18.9 21.45,17.75 Q 21.1,18.05 21,18.9 H 16.9 L 16.6,18.05 Q 16.1,17.95 16,18.9 h -4 q -0.15,-1 -0.7,-1.05 L 10.95,18.9 8.05,18.95 7.6,17.7 Q 7.15,18.05 7.1,18.95 H 4.2 V 15.2 L 3.9,8.1 V 8.05 L 4.15,4.2 4.2,3.65 H 8.35 Q 8.15,4.7 8.1,6.25 7.25,6.55 6.9,6.95 L 8.1,7.15 8.05,8.1 Q 7.3,7.8 5.9,9 l 1.25,0.3 0.9,0.1 0.05,3.3 q 0.2,2.8 1,3.75 h 6.1 q 0.1,0.65 0.35,1.05 l 0.4,-0.05 0.3,-1 h 3.15 v 0.2 q 0.1,0.6 0.55,1.1 l 0.5,-0.2 0.05,-1.1 h 5.4 q 0.7,-1.1 0.9,-3 l 0.05,-0.8 1.8,0.15 1.95,-0.2 0.7,0.45 0.4,-0.25 V 12.25 M 36,3.65 35.45,5.55 Q 35.05,5.7 34.7,6.05 L 35.25,6.4 35.1,6.9 q -1.4,3.15 -4,4.1 L 31.05,10.9 30.3,9.7 h -0.6 l -0.1,0.8 0.25,0.8 -1.15,0.05 H 26.85 V 10.4 l 0.05,-0.9 0.3,0.05 0.5,-0.1 0.1,-0.2 0.05,-0.4 L 27.8,8.45 27.7,8.5 H 26.9 V 7.25 L 27.8,7.05 28.15,6.5 27.2,5.95 H 26.85 L 26.6,3.65 H 36"
         fill="#b7aeae"
         fill-rule="evenodd"
         stroke="none"
         id="path34" />
      <path
         d="m 21.05,20.55 0.4,0.9 0.5,-0.85 v -0.05 h 4.45 l 0.7,0.8 0.65,-0.8 h 2.9 l 2.65,-0.25 0.1,4 H 8.7 L 3.95,24.4 4.2,21.65 V 20.5 h 2.85 v 0.4 q 0.1,0.9 0.6,1.3 l 0.4,-1.7 h 2.7 L 10.7,21 q 0,0.45 0.15,0.55 l 0.35,0.2 q 0.6,-0.2 0.8,-0.9 l 0.05,-0.35 h 4.05 l 0.35,0.45 0.4,-0.25 0.05,-0.2 4.15,0.05 m 3.9,-14.8 h -1 l -0.8,0.5 0.55,0.7 1.25,0.25 v 1.45 l -1.5,0.15 1.5,0.4 v 5.25 L 20.6,14.5 20.65,13.6 20.5,13.05 20.2,12.8 q -0.65,0.25 -0.8,1.15 V 14.5 H 16.25 L 15.8,13.05 q -0.55,0.75 -0.6,1.3 V 14.5 H 10.1 V 9.45 l 1.2,-0.1 Q 11.35,9.1 11.85,8.75 L 11.2,8.2 10.1,8.6 V 7.2 Q 11.25,7.1 11.65,6.8 L 11.95,6.25 10.1,5.85 V 5.25 L 9.65,3.65 H 25.1 l -0.15,2.1"
         fill="#b8b0bb"
         fill-rule="evenodd"
         stroke="none"
         id="path35" />
    </g>
    <g
       id="sprite6">
      <use
         ffdec:characterId="368"
         height="9.4499998"
         width="36.25"
         xlink:href="#shape6"
         id="use35" />
    </g>
    <g
       id="shape6">
      <path
         d="m 30.65,2.95 q 2.2,0 3.9,0.6 l 1.7,0.75 -0.3,0.2 -2.85,-0.45 q -5.4,0 -7.55,2.7 -2.15,2.7 -6.85,2.7 -2.2,0 -2.8,-1.65 L 15.5,5.2 h -1.3 q -1.3,0.1 -3,1.25 L 8.6,8.1 H 7.3 L 5.65,6.75 Q 5.25,6.25 5.25,5.4 5.25,4.5 5.7,3.8 L 6.9,1.75 6.85,1.5 q -0.1,-0.3 -0.5,-0.3 -1.7,0 -2.3,2.25 -0.6,2.2 -2.15,2.2 -1.3,0 -1.75,-0.5 L 0,4.6 Q 0,3.5 0.75,3.1 0.55,3.95 0.65,4.65 L 1.3,4.75 Q 2.85,4.75 3.45,3.2 3.8,1.55 4.1,1.25 6.05,-0.45 7.2,0.2 8.1,0.65 8.1,1.95 l -0.8,1.8 -0.85,1.6 0.3,0.9 q 0.4,0.6 0.95,0.6 0.35,0 3.5,-1.4 Q 14.45,4 16,3.9 q 0.55,0.4 1.05,2.5 0.4,1.75 1.9,1.75 4.3,0 6.25,-2.6 1.9,-2.6 5.45,-2.6"
         fill="#9a9a9a"
         fill-rule="evenodd"
         stroke="none"
         id="path36" />
    </g>
    <g
       id="sprite7">
      <use
         ffdec:characterId="350"
         height="9.75"
         width="9.4499998"
         xlink:href="#shape7"
         id="use36" />
    </g>
    <g
       id="shape7">
      <path
         d="m 8.6,1.9 q 0.85,1.15 0.85,2.7 0,1.7 -0.4,2.7 -0.95,2.45 -3.9,2.45 -2.9,0 -4.3,-2.1 L 0,5.45 Q 0,3.2 0.8,1.9 1.95,0.05 4.75,0 L 5.5,0.05 6.35,0.25 Q 7.2,0.55 7.95,1.2 L 8.6,1.9 M 5.75,2.4 H 4.6 Q 3.25,2.5 2.55,3.05 1.75,3.6 1.75,4.7 l 0.05,0.45 0.05,0.1 q 0.1,0.6 0.6,1.2 Q 3.4,7.65 5,7.65 6.7,7.65 7.25,6 l 0.2,-1.7 q 0,-1.7 -1.7,-1.9 M 5.3,3.75 V 3.7 Q 5.3,3.25 5.65,3.2 L 6.35,3.25 6.5,3.7 6.4,4.2 5.9,4.35 5.3,3.75 M 5.45,6.15 5,6.05 4.9,5.65 Q 4.9,4.9 5.85,5.15 L 5.95,5.1 6.05,5.4 V 5.55 L 5.95,6 5.45,6.15 M 4.05,4.5 Q 3.6,4.5 3.5,4.2 V 3.85 Q 3.5,3.45 3.75,3.25 4.05,3 4.6,3.85 L 4.55,4.25 4.45,4.4 4.05,4.5 M 3.5,4.95 3.85,4.85 Q 4.2,4.95 4.35,5.4 L 3.85,5.9 3.45,5.8 3.35,5.35 q 0,-0.3 0.15,-0.4"
         fill="#9a9a9a"
         fill-rule="evenodd"
         stroke="none"
         id="path37" />
      <path
         d="M 5.75,2.4 V 2.65 L 5.65,3.2 Q 5.3,3.25 5.3,3.7 V 3.75 L 4.8,4.2 Q 3.65,5.15 1.85,5.15 H 1.8 L 1.75,4.7 Q 1.75,3.6 2.55,3.05 3.25,2.5 4.6,2.4 H 5.75 M 4.05,4.5 4.45,4.4 4.55,4.25 4.6,3.85 Q 4.05,3 3.75,3.25 3.5,3.45 3.5,3.85 V 4.2 q 0.1,0.3 0.55,0.3"
         fill="#c9c9c9"
         fill-rule="evenodd"
         stroke="none"
         id="path38" />
      <path
         d="M 5.65,3.2 5.75,2.65 V 2.4 q 1.7,0.2 1.7,1.9 L 7.25,6 Q 6.7,7.65 5,7.65 3.4,7.65 2.45,6.45 1.95,5.85 1.85,5.25 v -0.1 q 1.8,0 2.95,-0.95 L 5.3,3.75 5.9,4.35 6.4,4.2 6.5,3.7 6.35,3.25 5.65,3.2 M 5.45,6.15 5.95,6 6.05,5.55 V 5.4 L 5.95,5.1 5.85,5.15 Q 4.9,4.9 4.9,5.65 L 5,6.05 5.45,6.15 M 3.5,4.95 q -0.15,0.1 -0.15,0.4 l 0.1,0.45 0.4,0.1 0.5,-0.5 Q 4.2,4.95 3.85,4.85 L 3.5,4.95"
         fill="#c3c3c3"
         fill-rule="evenodd"
         stroke="none"
         id="path39" />
    </g>
    <g
       id="sprite8">
      <use
         ffdec:characterId="352"
         height="9.5500002"
         width="9.5"
         xlink:href="#shape8"
         id="use39" />
    </g>
    <g
       id="shape8">
      <path
         d="M 5.7,2.45 5.75,2.95 5.7,3.2 H 5.45 Q 4.9,3.3 4.9,3.9 V 4.15 L 4.7,4.3 4.45,4.5 3.85,4.35 Q 3,4.35 3,5.15 2.3,5.15 2.1,4.75 V 4.5 Q 2.1,4.1 2.5,3.45 L 2.7,3.15 3.85,2.4 5.7,2.45"
         fill="#c9c9c9"
         fill-rule="evenodd"
         stroke="none"
         id="path40" />
      <path
         d="M 5.7,3.2 5.75,2.95 5.7,2.45 Q 6.65,2.65 7.1,3.2 7.4,3.6 7.4,4.55 L 7.15,6 5.85,7.35 4,7.4 Q 2.6,7.4 2.2,6.05 L 2.1,4.75 Q 2.3,5.15 3,5.15 L 3.05,5.5 Q 3.25,6 3.85,6 4.7,6 4.7,5.2 L 4.45,4.5 4.7,4.3 4.9,4.15 Q 5,4.7 5.9,4.7 L 6.45,4.6 6.55,3.95 Q 6.15,3.2 5.7,3.2 M 3.85,2.4 2.7,3.15 3.7,2.4 h 0.15"
         fill="#ababab"
         fill-rule="evenodd"
         stroke="none"
         id="path41" />
      <path
         d="M 5.7,2.45 3.85,2.4 H 3.7 l -1,0.75 -0.2,0.3 Q 2.1,4.1 2.1,4.5 v 0.25 l 0.1,1.3 Q 2.6,7.4 4,7.4 L 5.85,7.35 7.15,6 7.4,4.55 Q 7.4,3.6 7.1,3.2 6.65,2.65 5.7,2.45 M 3,5.15 Q 3,4.35 3.85,4.35 L 4.45,4.5 4.7,5.2 Q 4.7,6 3.85,6 3.25,6 3.05,5.5 L 3,5.15 m 1.9,-1 V 3.9 Q 4.9,3.3 5.45,3.2 H 5.7 q 0.45,0 0.85,0.75 L 6.45,4.6 5.9,4.7 Q 5,4.7 4.9,4.15 m 4.6,1.5 Q 9.5,6.5 8.55,7.75 7.2,9.55 4.95,9.55 1.65,9.55 0.5,7.6 L 0,5.65 Q 0,3.5 1.05,2.05 L 1.5,1.5 2.4,0.75 Q 3.45,0.05 4.75,0 6.7,-0.05 8,1.35 9.5,2.9 9.5,5.65"
         fill="#9a9a9a"
         fill-rule="evenodd"
         stroke="none"
         id="path42" />
    </g>
  </defs>
</svg>
