<?xml version="1.0" encoding="UTF-8" standalone="no"?>
<svg
   ffdec:objectType="frame"
   height="41.587311"
   width="28.427303"
   version="1.1"
   id="svg7"
   sodipodi:docname="2.svg"
   xmlns:inkscape="http://www.inkscape.org/namespaces/inkscape"
   xmlns:sodipodi="http://sodipodi.sourceforge.net/DTD/sodipodi-0.dtd"
   xmlns:xlink="http://www.w3.org/1999/xlink"
   xmlns="http://www.w3.org/2000/svg"
   xmlns:svg="http://www.w3.org/2000/svg"
   xmlns:ffdec="https://www.free-decompiler.com/flash">
  <sodipodi:namedview
     id="namedview7"
     pagecolor="#ffffff"
     bordercolor="#000000"
     borderopacity="0.25"
     inkscape:showpageshadow="2"
     inkscape:pageopacity="0.0"
     inkscape:pagecheckerboard="0"
     inkscape:deskcolor="#d1d1d1"
     fit-margin-top="5"
     fit-margin-left="5"
     fit-margin-right="5"
     fit-margin-bottom="5" />
  <g
     transform="translate(14.656084,20.948813)"
     id="g2">
    <use
       ffdec:characterId="3816"
       height="38.700001"
       transform="matrix(-0.9878,-0.1559,-0.1559,0.9878,19.2589,-15.9715)"
       width="33.900002"
       xlink:href="#sprite0"
       id="use1" />
    <use
       ffdec:characterId="3500"
       height="8"
       transform="matrix(0.6961,-0.0098,0.0098,0.6961,-4.948,12.7186)"
       width="10.8"
       xlink:href="#sprite1"
       id="use2" />
  </g>
  <defs
     id="defs7">
    <g
       id="sprite0"
       transform="translate(16.95,19.35)">
      <use
         ffdec:characterId="3814"
         height="38.700001"
         transform="translate(-16.95,-19.35)"
         width="33.900002"
         xlink:href="#shape0"
         id="use3" />
    </g>
    <g
       id="shape0"
       transform="translate(16.95,19.35)">
      <path
         d="m 14.45,-19.35 q 2.5,-0.1 2.5,2.35 0,1.8 -1.55,5.3 L 14.3,-9.3 12.95,-6.6 11,-2.35 10.5,-1.4 8.3,1.75 7.75,3.5 q 1.7,1.95 1.7,3.8 0,3.25 -1.6,6.5 -2.7,5.55 -8.6,5.55 -2.5,0 -4.25,-1 -1.3,-0.7 -1.6,-1.45 l -1,0.85 q -0.95,0.5 -2.15,0.5 h -0.3 l -1.8,0.15 q -1.8,0 -2.4,-0.5 l -0.55,-0.85 -1.1,-0.55 -1.05,-0.65 q 0.45,-1.2 1.95,-1.2 l 1.35,0.6 1.1,0.6 q 3.1,0 3.25,-1.15 0,-0.85 -1.95,-2.5 -1.95,-1.65 -1.95,-3.85 0,-6.6 6.85,-9.3 2.85,-1.1 5.55,-0.75 L 0.75,-1.35 1,-1.4 0.95,-1.7 1.25,-8.9 1.5,-12.45 q -0.2,-1.6 2.05,-1.8 h 1 l -0.1,-0.5 q -0.5,-2.25 -0.5,-3 0,-1.1 2.55,-0.95 2.6,0.2 3.15,2.15 l 0.45,2.25 0.1,0.4 0.6,-1.7 q 1.05,-3.5 3.5,-3.75 h 0.15 m -1.25,2.65 -1.3,4.4 -1.75,3.7 -0.05,0.05 -0.55,1.15 -0.7,2.75 Q 7.6,0.25 6.3,2.05 L 6.45,2.2 9.6,-3.3 10.1,-4.2 q 2.6,-4.7 4.2,-8.95 l 1.15,-3.4 v -0.7 l -0.6,-0.15 -0.95,0.1 h -0.05 l -0.65,0.6 m -7.1,4.2 0.2,4.25 q -1.15,9 -3.1,9.65 v 0.05 q 0,0.9 1.1,0.8 L 4.4,1.9 4.55,1.6 6.5,-3.2 q 2.25,-5.55 2.25,-9.6 0,-1.1 -0.85,-2.75 -1,-1.85 -1.9,-1.6 l -0.4,0.05 0.5,4.6 m -1.2,0.65 -0.65,-0.3 -0.8,0.1 -0.1,8.4 -0.1,1.3 0.3,-0.8 q 1.4,-3.95 1.4,-7.35 L 4.9,-11.85 M 5.25,12.3 Q 6.3,10.25 6.55,8.5 H 6.45 L 5.5,8.1 4.45,6.8 6.6,7.45 q 0,-0.6 -1.1,-2.3 L 5,4.35 H 4.45 q -1.35,0 -2.2,-1.2 L 1.95,2.55 Q 1.35,2.2 0.9,1.25 L 0.75,0.65 -0.2,0.45 -3.15,0.75 q 0.55,0.9 1,1.95 -0.5,-0.65 -1.6,-1.15 L -3.8,1.5 -4.1,1 -4.7,1.25 -5.65,1.65 -7.8,3.3 -8.3,3.85 -9.2,5.1 q -1,1.55 -1,3 0,0.85 1.55,2.65 l 0.2,0.2 0.75,0.9 0.05,0.05 0.2,0.2 1.3,1.3 q 0.8,0.2 1.7,1.45 1.1,1.45 3.75,1.45 1.85,0 3.3,-0.9 L 2.65,15.35 Q 4,14.45 5,12.8 L 5.25,12.3 M 0,9.65 q 0,-1.9 2.15,-1.95 2.1,0 2.1,1.65 0,2.05 -2.15,2.05 H 1.85 Q 0.75,11.3 0.3,10.55 L 0.15,10.05 0,9.65 M -3.15,4.7 -3.35,5.8 Q -3.7,6.35 -4.6,6.45 h -0.3 q -1.3,0 -1.7,-0.8 L -6.75,4.75 V 4.55 L -6.6,3.7 q 0.4,-0.9 1.85,-0.9 1.05,0 1.45,0.9 l 0.15,1 m 1.2,1.85 q 0,0.25 -0.45,0.55 -0.4,0.25 -0.65,0.6 l -0.1,0.2 0.05,0.2 0.25,0.1 h 0.45 l 0.65,-0.3 0.5,-0.3 h 0.5 l 0.15,0.5 q 0,0.5 -0.55,0.85 L -1.25,9 -2.5,9.3 q -1.2,0 -1.55,-0.7 L -4.2,7.9 -3.95,7 -3.65,6.65 Q -3.1,6.15 -2.1,6.1 l 0.1,0.15 0.05,0.3"
         fill="#6b6b6b"
         fill-rule="evenodd"
         stroke="none"
         id="path3" />
      <path
         d="M -9.2,5.1 -8.3,3.85 -7.8,3.3 -5.65,1.65 -4.7,1.25 -4.1,1 l 0.3,0.5 0.05,0.05 q 1.1,0.5 1.6,1.15 -0.45,-1.05 -1,-1.95 l 2.95,-0.3 0.95,0.2 0.15,0.6 q 0.45,0.95 1.05,1.3 l 0.3,0.6 q 0.85,1.2 2.2,1.2 H 5 l 0.5,0.8 q 1.1,1.7 1.1,2.3 L 4.45,6.8 5.5,8.1 6.45,8.5 h 0.1 Q 6.3,10.25 5.25,12.3 L 4.95,12.45 5,12.8 q -1,1.65 -2.35,2.55 l -3.3,-2.3 -3.4,-2.9 Q -8.6,6.7 -9.2,5.1 m 9.2,4.55 0.15,0.4 0.15,0.5 Q 0.75,11.3 1.85,11.4 H 2.1 Q 4.25,11.4 4.25,9.35 4.25,7.7 2.15,7.7 0,7.75 0,9.65 M -1.95,6.55 -2,6.25 -2.1,6.1 q -1,0.05 -1.55,0.55 L -3.95,7 -4.2,7.9 -4.05,8.6 Q -3.7,9.3 -2.5,9.3 L -1.25,9 -1.15,8.95 Q -0.6,8.6 -0.6,8.1 L -0.75,7.6 h -0.5 L -1.75,7.9 -2.4,8.2 H -2.85 L -3.1,8.1 -3.15,7.9 -3.05,7.7 Q -2.8,7.35 -2.4,7.1 -1.95,6.8 -1.95,6.55 M -3.15,4.7 -3.3,3.7 Q -3.7,2.8 -4.75,2.8 -6.2,2.8 -6.6,3.7 l -0.15,0.85 v 0.2 l 0.15,0.9 q 0.4,0.8 1.7,0.8 h 0.3 q 0.9,-0.1 1.25,-0.65 l 0.2,-1.1"
         fill="#cdcdcd"
         fill-rule="evenodd"
         stroke="none"
         id="path4" />
      <path
         d="M 2.65,15.35 2.6,15.4 q -1.45,0.9 -3.3,0.9 -2.65,0 -3.75,-1.45 -0.9,-1.25 -1.7,-1.45 l -1.3,-1.3 -0.2,-0.2 -0.05,-0.05 -0.75,-0.9 -0.2,-0.2 q -1.55,-1.8 -1.55,-2.65 0,-1.45 1,-3 0.6,1.6 5.15,5.05 l 3.4,2.9 3.3,2.3"
         fill="#b293bb"
         fill-rule="evenodd"
         stroke="none"
         id="path5" />
      <path
         d="m 4.9,-11.85 0.05,1.35 q 0,3.4 -1.4,7.35 l -0.3,0.8 0.1,-1.3 0.1,-8.4 0.8,-0.1 0.65,0.3 M 6.1,-12.5 5.6,-17.1 6,-17.15 q 0.9,-0.25 1.9,1.6 0.85,1.65 0.85,2.75 0,4.05 -2.25,9.6 L 4.55,1.6 4.4,1.9 4.3,2.25 Q 3.2,2.35 3.2,1.45 V 1.4 Q 5.15,0.75 6.3,-8.25 L 6.1,-12.5 m 7.1,-4.2 0.65,-0.6 h 0.05 l 0.95,-0.1 0.6,0.15 v 0.7 l -1.15,3.4 Q 12.7,-8.9 10.1,-4.2 L 9.6,-3.3 6.45,2.2 6.3,2.05 q 1.3,-1.8 2.55,-6.7 l 0.7,-2.75 0.55,-1.15 0.05,-0.05 1.75,-3.7 1.3,-4.4"
         fill="#8eb68a"
         fill-rule="evenodd"
         stroke="none"
         id="path6" />
    </g>
    <g
       id="sprite1"
       transform="translate(5.4,4)">
      <use
         ffdec:characterId="43"
         height="8"
         transform="translate(-5.4,-4)"
         width="10.8"
         xlink:href="#shape1"
         id="use6" />
    </g>
    <g
       id="shape1"
       transform="translate(5.4,4)">
      <path
         d="m 2.9,-0.35 q 0,-1.25 1.25,-1.25 1.25,0 1.25,1.2 0,1.3 -1.25,1.3 Q 3.6,0.9 3.25,0.5 2.9,0.15 2.9,-0.35 m 0.35,-2.3 q 0,0.55 -0.35,0.9 -0.4,0.45 -1,0.45 -1.35,0 -1.35,-1.4 0,-1.3 1.35,-1.3 1.35,0 1.35,1.35 m -3.1,1.9 h 0.2 q 2.6,0.1 2.6,2.8 l -0.3,1 Q 2.05,4 0.45,4 H 0.35 0.15 0.1 -0.45 q -1.6,0 -2.2,-0.95 l -0.3,-1 q 0,-2.8 2.8,-2.8 h 0.3 M -1.55,-4 q 1.35,0 1.35,1.35 0,0.55 -0.4,0.9 -0.4,0.45 -0.95,0.45 -1.4,0 -1.4,-1.4 0,-1.3 1.4,-1.3 m -2.6,2.4 q 1.25,0 1.25,1.25 0,0.5 -0.35,0.85 -0.35,0.4 -0.9,0.4 -1.25,0 -1.25,-1.3 0,-1.2 1.25,-1.2"
         fill="#6b6b6b"
         fill-rule="evenodd"
         stroke="none"
         id="path7" />
    </g>
  </defs>
</svg>
