<?xml version="1.0" encoding="UTF-8" standalone="no"?>
<svg
   ffdec:objectType="frame"
   height="28.421431"
   width="49.576263"
   version="1.1"
   id="svg18"
   sodipodi:docname="1.svg"
   xmlns:inkscape="http://www.inkscape.org/namespaces/inkscape"
   xmlns:sodipodi="http://sodipodi.sourceforge.net/DTD/sodipodi-0.dtd"
   xmlns:xlink="http://www.w3.org/1999/xlink"
   xmlns="http://www.w3.org/2000/svg"
   xmlns:svg="http://www.w3.org/2000/svg"
   xmlns:ffdec="https://www.free-decompiler.com/flash">
  <sodipodi:namedview
     id="namedview18"
     pagecolor="#ffffff"
     bordercolor="#000000"
     borderopacity="0.25"
     inkscape:showpageshadow="2"
     inkscape:pageopacity="0.0"
     inkscape:pagecheckerboard="0"
     inkscape:deskcolor="#d1d1d1"
     fit-margin-top="5"
     fit-margin-left="5"
     fit-margin-right="5"
     fit-margin-bottom="5" />
  <g
     transform="translate(24.821213,14.225585)"
     id="g1">
    <use
       ffdec:characterId="4330"
       height="58.75"
       transform="matrix(0.8697,0,0,0.8697,-26.802,-31.7025)"
       width="61.849998"
       xlink:href="#sprite0"
       id="use1" />
  </g>
  <defs
     id="defs18">
    <g
       id="sprite0"
       transform="translate(33.75,37.2)">
      <use
         ffdec:characterId="4327"
         height="24.85"
         transform="translate(-9,-9.35)"
         width="17.25"
         xlink:href="#shape0"
         id="use2" />
      <use
         ffdec:characterId="4329"
         height="62.650002"
         transform="matrix(-5e-4,0.9058,-0.9058,-5e-4,25.4044,-17.0034)"
         width="27.200001"
         xlink:href="#sprite1"
         id="use3" />
      <use
         ffdec:characterId="4327"
         height="24.85"
         transform="translate(-12,-9.35)"
         width="17.25"
         xlink:href="#shape2"
         id="use4" />
    </g>
    <g
       id="shape0"
       transform="translate(12,9.35)">
      <path
         d="m -10.85,-6.45 q 1.15,-2.4 4.1,-2.4 2.8,0 3.95,1.9 0.6,1.05 0.6,2.5 0,1.4 -0.6,2.4 -0.8,1.3 -1.2,3.55 l -0.05,3.35 -0.1,1.2 q 0.7,0.05 1.05,0.4 0.35,0.3 0.35,0.7 0,0.35 -0.15,0.55 L -2.65,8.9 0.1,8.7 q 3.05,0 4.15,1.95 0.5,0.9 0.5,2.2 L 4.7,14.1 3.95,14.65 1.1,15 H -8.2 Q -9.15,14.75 -9.3,14.15 V 14 L -9.55,13.3 -9.5,13 -9.7,12.3 -9.85,10.6 q 0,-3.9 0.8,-4.05 l -0.1,-0.7 V 3.9 l 0.2,-2.55 0.2,-1.2 q -1.8,-0.2 -2.45,-1.7 l -0.3,-1.9 q 0,-1.65 0.65,-3 m 4.25,3.3 q -1.05,0 -1.05,-1.1 0,-1.1 1.1,-1.1 1.05,0 1.05,1.1 l -0.25,0.7 q -0.3,0.4 -0.85,0.4 M -9.4,-3.5 q 0,1.1 1.1,1.5 l 0.4,0.2 0.45,0.35 0.25,0.65 -0.05,0.4 q 0.15,1.35 0.05,3.95 l 0.25,2.6 h 1.4 q -0.4,-1.65 -0.4,-5.95 0,-0.75 0.9,-2.35 0.9,-1.65 0.9,-2.4 0,-0.8 -0.65,-1.45 -0.75,-0.8 -1.9,-0.8 -1.6,0 -2.3,1.55 -0.4,0.85 -0.4,1.75 m 2.1,15.75 8.15,0.25 0.45,0.1 H 2.6 L 2.35,11.55 Q 1.65,10.7 -0.7,10.7 q -0.3,0 -1.45,0.35 l -1.4,0.35 q -1.15,0 -0.9,-1.1 V 9.65 L -6,9.75 -7.45,9.7 q 0.15,1.1 0.15,2.55 M -6.05,8.5 -4.5,8.6 V 8.1 l -3.15,0.05 h -0.1 l 0.1,0.5 1.6,-0.15"
         fill="#6b6b6b"
         fill-rule="evenodd"
         stroke="none"
         id="path4" />
      <path
         d="m -6.05,8.5 -1.6,0.15 -0.1,-0.5 h 0.1 L -4.5,8.1 V 8.6 L -6.05,8.5 M -7.3,12.25 Q -7.3,10.8 -7.45,9.7 L -6,9.75 -4.45,9.65 v 0.65 q -0.25,1.1 0.9,1.1 l 1.4,-0.35 Q -1,10.7 -0.7,10.7 q 2.35,0 3.05,0.85 L 2.6,12.6 H 1.3 L 0.85,12.5 -7.3,12.25"
         fill="#999999"
         fill-rule="evenodd"
         stroke="none"
         id="path5" />
      <path
         d="m -9.4,-3.5 q 0,-0.9 0.4,-1.75 0.7,-1.55 2.3,-1.55 1.15,0 1.9,0.8 0.65,0.65 0.65,1.45 0,0.75 -0.9,2.4 -0.9,1.6 -0.9,2.35 0,4.3 0.4,5.95 h -1.4 L -7.2,3.55 Q -7.1,0.95 -7.25,-0.4 L -7.2,-0.8 -7.45,-1.45 -7.9,-1.8 -8.3,-2 q -1.1,-0.4 -1.1,-1.5 m 2.8,0.35 q 0.55,0 0.85,-0.4 l 0.25,-0.7 q 0,-1.1 -1.05,-1.1 -1.1,0 -1.1,1.1 0,1.1 1.05,1.1"
         fill="#ffffff"
         fill-rule="evenodd"
         stroke="none"
         id="path6" />
      <path
         d="m -10.85,-6.45 q 1.15,-2.4 4.1,-2.4 2.8,0 3.95,1.9 0.6,1.05 0.6,2.5 0,1.4 -0.6,2.4 -0.8,1.3 -1.2,3.55 l -0.05,3.35 -0.1,1.2 q 0.7,0.05 1.05,0.4 0.35,0.3 0.35,0.7 0,0.35 -0.15,0.55 L -2.65,8.9 0.1,8.7 q 3.05,0 4.15,1.95 0.5,0.9 0.5,2.2 L 4.7,14.1 3.95,14.65 1.1,15 H -8.2 Q -9.15,14.75 -9.3,14.15 V 14 L -9.55,13.3 -9.5,13 -9.7,12.3 -9.85,10.6 q 0,-3.9 0.8,-4.05 l -0.1,-0.7 V 3.9 l 0.2,-2.55 0.2,-1.2 q -1.8,-0.2 -2.45,-1.7 l -0.3,-1.9 q 0,-1.65 0.65,-3 z"
         ffdec:has-small-stroke="true"
         ffdec:original-stroke-width="1.0"
         fill="none"
         stroke="#6b6b6b"
         stroke-linecap="round"
         stroke-linejoin="round"
         stroke-width="1.14984"
         id="path7" />
    </g>
    <g
       id="sprite1"
       transform="translate(13.6,31.35)">
      <use
         ffdec:characterId="4328"
         height="62.650002"
         transform="translate(-13.6,-31.35)"
         width="27.200001"
         xlink:href="#shape1"
         id="use7" />
    </g>
    <g
       id="shape1"
       transform="translate(13.6,31.35)">
      <path
         d="m 2.25,-28.9 h 0.1 l -0.1,2.1 v 3.1 h -5.5 v -5.2 h 5.5 m 0.2,7.25 -1.95,-0.05 h -3.75 v -1.05 H 2 l 0.3,0.1 0.15,1"
         fill="#838383"
         fill-rule="evenodd"
         stroke="none"
         id="path8" />
      <path
         d="m 2.25,-28.9 h -5.5 v 5.2 h 5.5 v -3.1 l 0.1,-2.1 h -0.1 m 2,2.1 v 3.4 l -0.3,2.25 H 7.1 l 0.7,0.5 0.15,0.55 q 0,0.75 -1.05,1.1 H 5.25 l 0.4,0.55 0.85,1.75 1.15,0.05 0.75,0.1 0.65,-0.05 q 4.05,-0.25 4.05,2.1 0,1.15 -0.75,1.65 -1.4,1 -5.85,1 H 6.35 L 6,-11.15 Q 4.7,-8.6 2.3,-8.35 L 1.55,-7.3 1.1,-6.6 1.2,13.3 1.25,12.9 1.2,14.95 v 0.6 q 0.5,0.6 0.95,2.15 2.55,0.2 3.85,2.8 0.85,1.7 0.85,3.2 0,2.4 -1.2,4.1 -1.85,2.75 -6.3,3 H -0.7 -1 -1.4 -1.45 q -4.45,-0.25 -6.3,-3 l -0.4,-0.65 -2.1,-2.25 q -1.65,-2.25 -2.15,-3.85 -0.6,-1.85 -0.65,-3.3 v -3 l 0.25,-3.8 1.15,-4.8 0.1,-2.15 0.1,-1.2 -0.05,-0.3 q 0,-2 1.05,0.15 l 2.1,5.35 1.3,4.2 0.05,3.1 -0.1,3.8 q 1.05,-1.2 2.7,-1.35 V 17.7 l 0.8,-0.75 0.3,-0.8 v -1.2 l -0.05,-2.1 0.05,0.45 0.1,-19.35 -1.05,-1.8 -1,-0.65 q -1.8,-0.55 -2.85,-2.65 -0.85,-1.7 -0.85,-3.2 0,-2.4 1.2,-4.1 L -7.3,-19 h -0.05 q -1.95,-0.1 -1.95,-1.1 0,-0.55 0.6,-0.8 l 1.35,-0.25 h 2.05 l 0.05,-1 0.05,-7.35 -0.05,-0.4 0.2,-0.6 q 0.3,-0.45 0.75,-0.35 h 6.55 l 1.75,0.35 0.25,0.6 -0.15,0.55 0.15,2.55 m 7.05,12 -4.45,-0.05 v 0.5 l -0.05,0.7 4.5,-0.75 v -0.4 m -8.85,-6.85 -0.15,-1 -0.3,-0.1 h -5.25 v 1.05 H 0.5 l 1.95,0.05 m 1.4,4.5 q -1,-1.4 -3.1,-1.85 h -3.6 q -2.1,0.45 -3.1,1.85 -0.9,1.25 -0.9,3.55 0,1.65 2.5,3.1 l 0.85,0.4 0.95,0.35 h 0.05 l 0.3,0.3 v 0.05 l 0.3,0.25 v 0.1 q 0.3,0.55 0.3,1.25 0,0.4 -0.15,0.85 L -1.7,4.15 -0.4,4.1 -0.35,-6.95 -0.5,-7.8 -0.2,-9.05 v -0.1 L 0.1,-9.4 v -0.05 l 0.3,-0.3 h 0.05 l 0.95,-0.35 0.85,-0.4 q 2.5,-1.45 2.5,-3.1 0,-2.3 -0.9,-3.55 m -1.1,0.95 q 0,0.65 -0.4,1.15 -0.5,0.5 -1.3,0.5 -1.15,0 -1.45,-0.5 L -0.55,-16 q 0,-1.7 1.65,-1.6 1.65,0.05 1.65,1.4 M 1.25,12.75 1.3,12.3 v 0.35 l -0.05,0.1 m -1.15,6 -0.3,-0.25 v -0.1 l -0.3,-1.25 0.1,-0.75 v -1.25 l -0.1,-2.45 0.1,0.75 V 5.3 h -1.3 v 8.15 l 0.1,-0.75 -0.1,2.45 v 1.25 l 0.1,0.75 q 0,0.7 -0.3,1.25 v 0.1 l -0.3,0.25 v 0.05 l -0.3,0.3 h -0.05 l -0.95,0.35 -0.85,0.4 q -2.5,1.45 -2.5,3.1 0,2.3 0.9,3.55 1.4,1.95 4.9,2.05 3.5,-0.1 4.9,-2.05 0.9,-1.25 0.9,-3.55 0,-1.65 -2.5,-3.1 L 1.4,19.45 0.45,19.1 H 0.4 L 0.1,18.8 v -0.05 m -11,-9.35 q -0.6,2.05 -0.6,5 0,4.1 1.5,7.25 l -0.3,-1.7 q -0.6,-4.05 -0.6,-7.55 0,-1.35 0.45,-1.6 0.35,1.7 0.95,7.1 l 0.65,4.5 q 0.5,-4.05 0.5,-6.95 0,-3.7 -1.55,-7.8 l -0.4,-1.1 -0.6,2.85 m 7.5,3.25 V 12.2 l 0.05,0.55 -0.05,-0.1"
         fill="#6b6b6b"
         fill-rule="evenodd"
         stroke="none"
         id="path9" />
      <path
         d="m -4.85,22.9 q -0.95,-0.3 -0.95,-1.15 0,-0.6 0.3,-0.85 0.45,-0.45 1.9,-0.45 1.05,0 1.4,0.6 l 0.15,0.6 -2.25,0.95 -0.55,0.3"
         fill="#ffffff"
         fill-rule="evenodd"
         stroke="none"
         id="path10" />
      <path
         d="m -2.05,21.65 1.95,-0.9 q 1.4,-0.85 2.5,0.6 l 0.3,0.4 q 0.8,0.8 0.8,2 L 3.35,24.5 2.8,26.15 q -1.1,1.75 -3.85,1.75 -2.75,0 -4.15,-1.35 -0.9,-0.9 -0.9,-1.8 0,-1.15 1.25,-1.85 l 0.55,-0.3 2.25,-0.95"
         fill="#b29a9a"
         fill-rule="evenodd"
         stroke="none"
         id="path11" />
      <path
         d="m -10.9,9.4 0.6,-2.85 0.4,1.1 q 1.55,4.1 1.55,7.8 0,2.9 -0.5,6.95 L -9.5,17.9 q -0.6,-5.4 -0.95,-7.1 -0.45,0.25 -0.45,1.6 0,3.5 0.6,7.55 l 0.3,1.7 q -1.5,-3.15 -1.5,-7.25 0,-2.95 0.6,-5"
         fill="#d1c8b9"
         fill-rule="evenodd"
         stroke="none"
         id="path12" />
      <path
         d="m 11.3,-14.8 v 0.4 l -4.5,0.75 0.05,-0.7 v -0.5 l 4.45,0.05 m -8.55,-1.4 q 0,-1.35 -1.65,-1.4 -1.65,-0.1 -1.65,1.6 l 0.15,0.95 q 0.3,0.5 1.45,0.5 0.8,0 1.3,-0.5 0.4,-0.5 0.4,-1.15 m 1.1,-0.95 q 0.9,1.25 0.9,3.55 0,1.65 -2.5,3.1 L 1.4,-10.1 0.45,-9.75 H 0.4 l -0.3,0.3 v 0.05 l -0.3,0.25 v 0.1 L -0.5,-7.8 -0.35,-6.95 -0.4,4.1 -1.7,4.15 -1.75,-6.95 q 0.15,-0.45 0.15,-0.85 0,-0.7 -0.3,-1.25 v -0.1 L -2.2,-9.4 v -0.05 l -0.3,-0.3 h -0.05 l -0.95,-0.35 -0.85,-0.4 q -2.5,-1.45 -2.5,-3.1 0,-2.3 0.9,-3.55 1,-1.4 3.1,-1.85 h 3.6 q 2.1,0.45 3.1,1.85"
         fill="#af9b9b"
         fill-rule="evenodd"
         stroke="none"
         id="path13" />
      <path
         d="m 4.25,-26.8 v 3.4 l -0.3,2.25 H 7.1 l 0.7,0.5 0.15,0.55 q 0,0.75 -1.05,1.1 H 5.25 l 0.4,0.55 0.85,1.75 1.15,0.05 0.75,0.1 0.65,-0.05 q 4.05,-0.25 4.05,2.1 0,1.15 -0.75,1.65 -1.4,1 -5.85,1 H 6.35 L 6,-11.15 Q 4.7,-8.6 2.3,-8.35 L 1.55,-7.3 1.1,-6.6 1.2,13.3 1.25,12.9 1.2,14.95 v 0.6 q 0.5,0.6 0.95,2.15 2.55,0.2 3.85,2.8 0.85,1.7 0.85,3.2 0,2.4 -1.2,4.1 -1.85,2.75 -6.3,3 H -0.7 -1 -1.4 -1.45 q -4.45,-0.25 -6.3,-3 l -0.4,-0.65 -2.1,-2.25 q -1.65,-2.25 -2.15,-3.85 -0.6,-1.85 -0.65,-3.3 v -3 l 0.25,-3.8 1.15,-4.8 0.1,-2.15 0.1,-1.2 -0.05,-0.3 q 0,-2 1.05,0.15 l 2.1,5.35 1.3,4.2 0.05,3.1 -0.1,3.8 q 1.05,-1.2 2.7,-1.35 V 17.7 l 0.8,-0.75 0.3,-0.8 v -1.2 l -0.05,-2.1 0.05,0.45 0.1,-19.35 -1.05,-1.8 -1,-0.65 q -1.8,-0.55 -2.85,-2.65 -0.85,-1.7 -0.85,-3.2 0,-2.4 1.2,-4.1 L -7.3,-19 h -0.05 q -1.95,-0.1 -1.95,-1.1 0,-0.55 0.6,-0.8 l 1.35,-0.25 h 2.05 l 0.05,-1 0.05,-7.35 -0.05,-0.4 0.2,-0.6 q 0.3,-0.45 0.75,-0.35 h 6.55 l 1.75,0.35 0.25,0.6 -0.15,0.55 z"
         ffdec:has-small-stroke="true"
         ffdec:original-stroke-width="1.0"
         fill="none"
         stroke="#6b6b6b"
         stroke-linecap="round"
         stroke-linejoin="round"
         stroke-width="1.26938"
         id="path14" />
    </g>
    <g
       id="shape2"
       transform="translate(12,9.35)">
      <path
         d="m -10.85,-6.45 q 1.15,-2.4 4.1,-2.4 2.8,0 3.95,1.9 0.6,1.05 0.6,2.5 0,1.4 -0.6,2.4 -0.8,1.3 -1.2,3.55 l -0.05,3.35 -0.1,1.2 q 0.7,0.05 1.05,0.4 0.35,0.3 0.35,0.7 0,0.35 -0.15,0.55 L -2.65,8.9 0.1,8.7 q 3.05,0 4.15,1.95 0.5,0.9 0.5,2.2 L 4.7,14.1 3.95,14.65 1.1,15 H -8.2 Q -9.15,14.75 -9.3,14.15 V 14 L -9.55,13.3 -9.5,13 -9.7,12.3 -9.85,10.6 q 0,-3.9 0.8,-4.05 l -0.1,-0.7 V 3.9 l 0.2,-2.55 0.2,-1.2 q -1.8,-0.2 -2.45,-1.7 l -0.3,-1.9 q 0,-1.65 0.65,-3 m 4.25,3.3 q -1.05,0 -1.05,-1.1 0,-1.1 1.1,-1.1 1.05,0 1.05,1.1 l -0.25,0.7 q -0.3,0.4 -0.85,0.4 M -9.4,-3.5 q 0,1.1 1.1,1.5 l 0.4,0.2 0.45,0.35 0.25,0.65 -0.05,0.4 q 0.15,1.35 0.05,3.95 l 0.25,2.6 h 1.4 q -0.4,-1.65 -0.4,-5.95 0,-0.75 0.9,-2.35 0.9,-1.65 0.9,-2.4 0,-0.8 -0.65,-1.45 -0.75,-0.8 -1.9,-0.8 -1.6,0 -2.3,1.55 -0.4,0.85 -0.4,1.75 m 2.1,15.75 8.15,0.25 0.45,0.1 H 2.6 L 2.35,11.55 Q 1.65,10.7 -0.7,10.7 q -0.3,0 -1.45,0.35 l -1.4,0.35 q -1.15,0 -0.9,-1.1 V 9.65 L -6,9.75 -7.45,9.7 q 0.15,1.1 0.15,2.55 M -6.05,8.5 -4.5,8.6 V 8.1 l -3.15,0.05 h -0.1 l 0.1,0.5 1.6,-0.15"
         fill="#6b6b6b"
         fill-rule="evenodd"
         stroke="none"
         id="path15" />
      <path
         d="m -6.05,8.5 -1.6,0.15 -0.1,-0.5 h 0.1 L -4.5,8.1 V 8.6 L -6.05,8.5 M -7.3,12.25 Q -7.3,10.8 -7.45,9.7 L -6,9.75 -4.45,9.65 v 0.65 q -0.25,1.1 0.9,1.1 l 1.4,-0.35 Q -1,10.7 -0.7,10.7 q 2.35,0 3.05,0.85 L 2.6,12.6 H 1.3 L 0.85,12.5 -7.3,12.25"
         fill="#999999"
         fill-rule="evenodd"
         stroke="none"
         id="path16" />
      <path
         d="m -9.4,-3.5 q 0,-0.9 0.4,-1.75 0.7,-1.55 2.3,-1.55 1.15,0 1.9,0.8 0.65,0.65 0.65,1.45 0,0.75 -0.9,2.4 -0.9,1.6 -0.9,2.35 0,4.3 0.4,5.95 h -1.4 L -7.2,3.55 Q -7.1,0.95 -7.25,-0.4 L -7.2,-0.8 -7.45,-1.45 -7.9,-1.8 -8.3,-2 q -1.1,-0.4 -1.1,-1.5 m 2.8,0.35 q 0.55,0 0.85,-0.4 l 0.25,-0.7 q 0,-1.1 -1.05,-1.1 -1.1,0 -1.1,1.1 0,1.1 1.05,1.1"
         fill="#ffffff"
         fill-rule="evenodd"
         stroke="none"
         id="path17" />
      <path
         d="m -10.85,-6.45 q 1.15,-2.4 4.1,-2.4 2.8,0 3.95,1.9 0.6,1.05 0.6,2.5 0,1.4 -0.6,2.4 -0.8,1.3 -1.2,3.55 l -0.05,3.35 -0.1,1.2 q 0.7,0.05 1.05,0.4 0.35,0.3 0.35,0.7 0,0.35 -0.15,0.55 L -2.65,8.9 0.1,8.7 q 3.05,0 4.15,1.95 0.5,0.9 0.5,2.2 L 4.7,14.1 3.95,14.65 1.1,15 H -8.2 Q -9.15,14.75 -9.3,14.15 V 14 L -9.55,13.3 -9.5,13 -9.7,12.3 -9.85,10.6 q 0,-3.9 0.8,-4.05 l -0.1,-0.7 V 3.9 l 0.2,-2.55 0.2,-1.2 q -1.8,-0.2 -2.45,-1.7 l -0.3,-1.9 q 0,-1.65 0.65,-3 z"
         ffdec:has-small-stroke="true"
         ffdec:original-stroke-width="1.0"
         fill="none"
         stroke="#6b6b6b"
         stroke-linecap="round"
         stroke-linejoin="round"
         stroke-width="1.14984"
         id="path18" />
    </g>
  </defs>
</svg>
