<?xml version="1.0" encoding="UTF-8" standalone="no"?>
<svg
   ffdec:objectType="frame"
   height="96.699997"
   width="90.650002"
   version="1.1"
   id="svg24"
   sodipodi:docname="2.svg"
   xmlns:inkscape="http://www.inkscape.org/namespaces/inkscape"
   xmlns:sodipodi="http://sodipodi.sourceforge.net/DTD/sodipodi-0.dtd"
   xmlns:xlink="http://www.w3.org/1999/xlink"
   xmlns="http://www.w3.org/2000/svg"
   xmlns:svg="http://www.w3.org/2000/svg"
   xmlns:ffdec="https://www.free-decompiler.com/flash">
  <sodipodi:namedview
     id="namedview24"
     pagecolor="#ffffff"
     bordercolor="#000000"
     borderopacity="0.25"
     inkscape:showpageshadow="2"
     inkscape:pageopacity="0.0"
     inkscape:pagecheckerboard="0"
     inkscape:deskcolor="#d1d1d1"
     fit-margin-top="5"
     fit-margin-left="5"
     fit-margin-right="5"
     fit-margin-bottom="5" />
  <g
     transform="translate(46.5,48.35)"
     id="g7">
    <use
       ffdec:characterId="2636"
       height="38.549999"
       transform="translate(-15,-48.35)"
       width="57.900002"
       xlink:href="#sprite0"
       id="use1" />
    <use
       ffdec:characterId="2643"
       height="17.700001"
       transform="matrix(1,0,0,1.0105,11.6,-30.0992)"
       width="6.3000002"
       xlink:href="#sprite1"
       id="use2" />
    <use
       ffdec:characterId="2646"
       ffdec:characterName="furniture_fla.sausage_1136"
       height="14.3"
       transform="matrix(0.6972,0,0,0.7045,-7.0946,-20.5372)"
       width="56.650002"
       xlink:href="#sprite2"
       id="use3" />
    <use
       ffdec:characterId="2643"
       height="17.700001"
       transform="matrix(-1,0,0,0.8198,10.3,-26.4473)"
       width="6.3000002"
       xlink:href="#sprite1"
       id="use4" />
    <use
       ffdec:characterId="2643"
       height="17.700001"
       transform="matrix(0.8936,0,0,0.629,20.5404,-23.2443)"
       width="6.3000002"
       xlink:href="#sprite1"
       id="use5" />
    <use
       ffdec:characterId="2648"
       height="61.049999"
       transform="translate(-46.55,-12.7)"
       width="90.699997"
       xlink:href="#sprite3"
       id="use6" />
    <use
       ffdec:characterId="44"
       height="8"
       transform="matrix(0.9173,-0.4023,0.3982,0.9269,25.1538,-2.385)"
       width="10.8"
       xlink:href="#sprite4"
       id="use7" />
  </g>
  <defs
     id="defs24">
    <g
       id="sprite0"
       transform="translate(28.95,19.3)">
      <use
         ffdec:characterId="2635"
         height="38.549999"
         transform="translate(-28.95,-19.3)"
         width="57.900002"
         xlink:href="#shape0"
         id="use8" />
    </g>
    <g
       id="shape0"
       transform="translate(28.95,19.3)">
      <path
         d="m 14.35,-15 h 6.45 l -0.3,-0.1 0.4,0.1 h 0.2 l -0.05,0.05 q 3.85,1.1 5.75,3.3 1.1,1.25 1.65,2.7 l 0.3,3.75 h 0.05 l 0.1,4.65 0.05,0.9 V 0.85 1 1.75 L 28.9,2.65 28.8,7.3 h -0.05 l -0.3,3.75 q -0.55,1.45 -1.65,2.7 -1.9,2.2 -5.75,3.3 l 0.05,0.05 h -0.2 l -0.4,0.1 0.3,-0.1 H 16 v 0.35 q 0,1.7 -0.9,1.7 -0.6,0 -0.8,-0.95 L 14.2,17.45 V 17.1 h -0.7 v 0.15 q 0,2 -1,2 -0.75,0 -1,-1.1 l -0.05,-0.9 V 17.1 h -22.3 v 0.3 l -0.1,0.9 q -0.25,0.8 -0.9,0.8 -0.85,0 -1.05,-0.95 V 17.4 17.1 h -0.75 v 0.25 l -0.1,1.05 q -0.2,0.6 -0.9,0.6 -0.85,0 -1.05,-0.8 V 17.35 17.1 h -5.1 l 0.3,0.1 -0.4,-0.1 h -0.2 l 0.05,-0.05 q -3.85,-1.1 -5.75,-3.3 -1.1,-1.25 -1.65,-2.7 l -0.3,-3.75 h -0.05 l -0.1,-4.65 v -0.9 h -0.05 l 0.05,-0.5 V 1.1 l -0.05,-0.75 h 0.05 v -0.9 l 0.1,-4.65 h 0.05 l 0.3,-3.75 q 0.55,-1.45 1.65,-2.7 1.9,-2.2 5.75,-3.3 L -21.1,-15 h 0.2 l 0.4,-0.1 -0.3,0.1 h 8.8 q 0.55,-1 2.7,-2.25 3,-1.65 6.05,-2 V -19.3 H 6.5 q 2.35,0.55 5.05,2.1 2.15,1.25 2.8,2.2 m -10,12.55 0.9,1.75 0.65,1.95 0.05,0.2 -0.05,0.2 Q 5.5,3.6 4.3,4.95 3.05,6.35 1.3,6.7 L 0.35,6.8 H 0.25 0.05 -0.05 -0.3 Q -2.15,6.75 -3.75,5.65 L -3.95,5.5 -4.05,5.35 -5,3.35 -5.55,1.65 -5.6,1.45 -5.55,1.25 q 0.35,-1.95 1.6,-3.3 l 0.15,-0.15 0.05,-0.05 0.15,-0.15 0.1,-0.1 0.75,-0.55 0.65,-0.35 2.7,-0.55 q 1.8,0.15 3.45,1.2 0.05,0.1 0.2,0.1 l 0.1,0.2 M 2.65,-1.95 0.55,-2.2 0.7,-1.15 0.75,0 1.2,-0.45 2.65,-1.95 M 3.6,-1.2 2.1,0.45 1.7,0.85 2.25,0.8 4.45,0.85 4.25,-0.25 3.6,-1.2 m 2.65,-16.1 h -9.3 q -1.4,0.2 -4.95,2.1 L -8.35,-15 H 10.6 l -4.35,-2.3 m 18.2,7.25 q -2.65,-2.3 -8.2,-2.45 h -32.5 q -5.55,0.15 -8.2,2.45 l -1,1.1 q -0.85,4.25 -1,9.3 v 0.2 0.5 0.7 q 0.15,5.05 1,9.3 l 1,1.1 q 2.65,2.3 8.2,2.45 h 32.5 q 5.55,-0.15 8.2,-2.45 l 1,-1.1 q 0.85,-4.25 1,-9.3 V 1.05 0.7 q -0.15,-5.25 -1,-9.65 l -1,-1.1 M 20.8,-4.8 q 0.65,1.9 0.7,5.3 v 0.45 0.1 0.45 q -0.05,3.4 -0.7,5.3 l -0.3,0.85 q -1.55,3.2 -5.05,3.9 h -31.2 Q -19.7,10.75 -21.1,6.8 -21.75,4.9 -21.8,1.5 V 1.05 0.95 0.5 q 0.05,-3.4 0.7,-5.3 1.4,-3.95 5.35,-4.75 h 31.2 q 3.95,0.8 5.35,4.75 M 19.9,1.05 V 0.95 L 19.85,0.5 h 0.05 q -0.15,-7.9 -4.8,-8.35 h -21.05 -0.45 -9 q -4.65,0.45 -4.8,8.35 h 0.05 l -0.05,0.45 v 0.1 l 0.05,0.45 h -0.05 q 0.15,7.9 4.8,8.35 l 9.45,0.05 h 5.8 5.85 0.45 L 15.1,9.85 Q 19.75,9.4 19.9,1.5 H 19.85 L 19.9,1.05 M 1.6,2.1 2.35,2.9 2.95,3.8 4.35,2.1 H 2.25 1.6 m -1.05,3 h 1.1 L 2.45,4.3 1.6,3.65 0.75,2.85 0.7,4.05 0.55,5.1 M -0.2,-2.2 h -1.2 l -0.8,0.8 0.9,0.6 0.9,0.95 0.05,-1.3 0.15,-1.05 M -2.7,-0.9 -4.05,0.85 -1.9,0.8 -1.3,0.85 -2.05,-0.05 -2.7,-0.9 m 0.8,3 L -4.1,2.05 -3.85,3.2 -3.3,4 -1.75,2.45 -1.35,2.1 H -1.9 M -2.4,4.85 -0.2,5.1 -0.35,4.05 -0.4,2.85 -0.85,3.35 -2.4,4.85"
         fill="#9a9a9a"
         fill-rule="evenodd"
         stroke="none"
         id="path8" />
      <path
         d="m 4.35,-2.45 -0.1,-0.2 q -0.15,0 -0.2,-0.1 Q 2.4,-3.8 0.6,-3.95 l -2.7,0.55 -0.65,0.35 -0.75,0.55 -0.1,0.1 -0.15,0.15 -0.05,0.05 -0.15,0.15 q -1.25,1.35 -1.6,3.3 l -0.05,0.2 0.05,0.2 0.55,1.7 0.95,2 0.1,0.15 0.2,0.15 q 1.6,1.1 3.45,1.15 h 0.25 0.1 0.2 0.1 L 1.3,6.7 Q 3.05,6.35 4.3,4.95 5.5,3.6 5.9,1.65 L 5.95,1.45 5.9,1.25 5.25,-0.7 4.35,-2.45 M 19.9,1.05 19.85,1.5 H 19.9 Q 19.75,9.4 15.1,9.85 L 6.15,9.9 H 5.7 -0.15 -5.95 L -15.4,9.85 Q -20.05,9.4 -20.2,1.5 h 0.05 L -20.2,1.05 v -0.1 l 0.05,-0.45 h -0.05 q 0.15,-7.9 4.8,-8.35 h 9 0.45 21.05 q 4.65,0.45 4.8,8.35 h -0.05 l 0.05,0.45 v 0.1"
         fill="#9d9d9d"
         fill-rule="evenodd"
         stroke="none"
         id="path9" />
      <path
         d="m 20.8,-4.8 q -1.4,-3.95 -5.35,-4.75 h -31.2 q -3.95,0.8 -5.35,4.75 -0.65,1.9 -0.7,5.3 v 0.45 0.1 0.45 q 0.05,3.4 0.7,5.3 1.4,3.95 5.35,4.75 h 31.2 q 3.5,-0.7 5.05,-3.9 L 20.8,6.8 Q 21.45,4.9 21.5,1.5 V 1.05 0.95 0.5 q -0.05,-3.4 -0.7,-5.3 m 3.65,-5.25 1,1.1 q 0.85,4.4 1,9.65 v 0.35 0.7 q -0.15,5.05 -1,9.3 l -1,1.1 q -2.65,2.3 -8.2,2.45 h -32.5 q -5.55,-0.15 -8.2,-2.45 l -1,-1.1 q -0.85,-4.25 -1,-9.3 v -0.7 -0.5 -0.2 q 0.15,-5.05 1,-9.3 l 1,-1.1 q 2.65,-2.3 8.2,-2.45 h 32.5 q 5.55,0.15 8.2,2.45"
         fill="#a0a0a0"
         fill-rule="evenodd"
         stroke="none"
         id="path10" />
    </g>
    <g
       id="sprite1"
       transform="translate(3.2,9.45)">
      <use
         ffdec:characterId="2639"
         height="15.9"
         transform="translate(-2.35,-7.95)"
         width="4.6500001"
         xlink:href="#shape1"
         id="use10" />
    </g>
    <g
       id="shape1"
       transform="translate(2.35,7.95)">
      <path
         d="m 1.35,-1.95 q -0.85,1.05 -0.85,1.7 0,0.5 0.9,1.75 0.9,1.3 0.9,2.8 0,0.95 -0.45,1.9 -0.75,1.75 -2.6,1.75 l -1,-0.25 V 7.45 7.4 Q -2.35,7.1 -2.3,6.3 -2.3,5.15 -1.65,3.9 -1.65,3.5 -2,2.55 l -0.35,-1.3 q 0,-0.8 0.4,-1.6 L -1.3,-1.9 -1.25,-2 -1.2,-2.2 -0.6,-3.6 Q 0,-5 0,-6 l -0.3,-1.2 q 0,-0.9 0.35,-0.6 0.25,-0.45 1,0.5 1.1,1.3 1.1,2.65 0,1.65 -0.8,2.7 m -2,4.25 0.2,1.3 0.1,0.65 -0.5,1.6 0.05,0.2 h 0.3 L -0.25,5.7 0.45,4.4 q 0,-1.45 -0.8,-2.5 L -0.75,1.3 -0.8,1.45 -0.65,2.3"
         fill="#ffffff"
         fill-opacity="0.32549"
         fill-rule="evenodd"
         stroke="none"
         id="path11" />
    </g>
    <g
       id="sprite2"
       transform="translate(30.4,7.15)">
      <use
         ffdec:characterId="2644"
         height="14.25"
         transform="translate(-21.55,-7.1)"
         width="43.150002"
         xlink:href="#shape2"
         id="use11" />
    </g>
    <g
       id="shape2"
       transform="translate(21.55,7.1)">
      <path
         d="M 9.85,-1.7 9.8,-2.05 9.85,-2.75 3.1,-1.3 H -2 l -5.8,-0.95 -2.4,-0.4 -0.35,0.9 -0.25,0.45 h -0.05 l -0.05,0.05 -0.5,0.55 q -0.5,0.35 -1.1,0.5 l -0.5,0.05 h -0.3 q -2.2,0 -2.8,-1.05 -0.25,-0.5 -0.15,-1.05 v -0.1 -0.15 l 0.15,-0.85 -0.25,0.1 -0.2,0.15 -0.1,0.05 V -3 l -0.3,0.95 0.2,1 q 0.6,1.75 3.35,3.4 3.5,2.1 8.45,2.65 V 4.3 q 0,-1.7 1.15,-2.5 0.9,-0.7 2.5,-0.85 h 0.1 0.05 0.3 Q 1.6,0.8 2.2,2 L 2.35,2.45 V 2.5 L 2.4,2.95 2.2,4.35 1.95,5.05 H 2.4 3 V 5 q 5.1,-0.3 9.35,-1.9 4.9,-1.9 4.9,-4.3 l -0.3,-1.3 q -0.55,-1.05 -2.3,-1.15 0.55,0.45 0.55,1.3 0,0.9 -0.5,1.6 Q 14.15,0 13.25,0.2 l -1,0.1 Q 10.8,0.3 10.2,-0.75 L 9.85,-1.7 M 3.65,2.6 Q 3.4,2.35 3.4,1.95 q 0,-2.1 1.7,-2 1.7,0.1 1.7,1.25 0,0.95 -0.4,1.4 Q 6,3.1 5.15,3.1 4.05,3.1 3.65,2.6 M 10.5,2.15 10.4,2 10.35,1.65 q 0,-0.6 0.6,-0.6 0.6,-0.05 0.6,0.6 V 1.7 q 0,0.6 -0.5,0.6 L 10.5,2.15 m -2.7,-6.6 q 5.1,-1.2 7.95,-1.2 1.25,0 2.1,0.75 0.45,-0.9 1.8,-0.8 1.95,0.15 1.95,2.9 l -0.15,1.05 Q 21.1,-1.2 19.7,-1.2 h -0.35 v 0.15 Q 19.35,2 14.9,4.25 10.4,6.55 3,7.1 v 0.05 h -0.25 -7.6 q -7.15,-1 -10.85,-3.7 -3.2,-2.4 -3.2,-5.5 -1.35,-0.05 -2.05,-0.6 -0.6,-0.45 -0.6,-1.05 0,-1.6 2.55,-3 2.25,-1.25 2.5,1.25 l 1.75,-0.15 12.85,2.45 h 4.85 l 4.85,-1.3 m 5.7,3.35 0.35,-0.35 0.3,-0.8 -0.2,-0.5 -0.25,-0.7 0.05,-0.15 -2.7,0.6 -0.3,0.3 0.1,0.9 0.05,0.2 q 0.35,0.75 1.55,0.75 L 13.5,-1.1 m 5.45,-2.2 0.2,0.65 0.9,-0.05 0.1,0.05 0.05,-0.2 -0.55,-1.45 -0.65,0.9 -0.05,0.1 m -36.7,-1.55 -0.2,-0.65 -1.65,1.45 -0.05,0.05 0.95,0.6 q 0.25,-0.9 0.95,-1.45 m 3,1.65 -0.4,0.55 -0.05,0.3 q 0,0.95 0.95,1.05 h 2 l 0.25,-0.15 0.15,-0.1 0.35,-0.45 0.3,-0.8 -1,-0.4 -2.05,-0.5 -0.35,0.3 -0.15,0.15 v 0.05 m 8.85,2.15 q 0.6,0 0.6,0.75 v 0.15 L -5.45,0.1 -5.8,0.35 H -5.9 L -6.35,0.25 Q -6.6,0.1 -6.5,-0.3 v -0.05 q 0,-0.7 0.6,-0.7 M 0.25,2.25 -1,2 -1.45,2.05 q -0.9,0.2 -1.6,1.05 L -3.7,4.25 -3.2,4.8 -2.85,5.05 H 0.8 L 1.5,3.7 Q 1.5,3.15 0.95,2.65 L 0.25,2.25 M -9.85,1.9 -10.3,2.15 -10.8,2 -10.9,1.6 q 0,-0.55 0.6,-0.55 0.6,0 0.6,0.55 L -9.85,1.9 M 5.95,1.35 q -1.8,-1.3 -1.8,0.1 0,0.75 1,0.75 l 0.7,-0.5 0.1,-0.35"
         fill="#919191"
         fill-rule="evenodd"
         stroke="none"
         id="path12" />
      <path
         d="M -1.45,2.05 -1,2 0.25,2.25 -1.45,2.05"
         fill="#a5a5a5"
         fill-rule="evenodd"
         stroke="none"
         id="path13" />
      <path
         d="M 9.85,-1.7 3,-0.85 H -1 Q -4.55,-1.2 -6.3,-1.7 L -7.8,-2.25 -2,-1.3 h 5.1 l 6.75,-1.45 -0.05,0.7 0.05,0.35 m -26.6,0.65 q 0.4,0.55 1.4,0.95 1.95,0.9 5.4,0.9 H -9.7 L -9.45,0.85 -3.8,1.8 Q -4.95,2.6 -4.95,4.3 V 5 Q -9.9,4.45 -13.4,2.35 -16.15,0.7 -16.75,-1.05 M 2.35,2.45 3,2.5 V 2.55 L 3.65,2.6 Q 4.05,3.1 5.15,3.1 6,3.1 6.4,2.6 H 7.85 L 10.5,2.15 11.05,2.3 q 0.5,0 0.5,-0.6 L 12,1.4 13.25,0.2 q 0.9,-0.2 1.45,-0.95 0.5,-0.7 0.5,-1.6 0,-0.85 -0.55,-1.3 1.75,0.1 2.3,1.15 l 0.3,1.3 q 0,2.4 -4.9,4.3 Q 8.1,4.7 3,5 V 5.05 H 2.4 1.95 L 2.2,4.35 2.4,2.95 2.35,2.5 V 2.45 m 8.5,-4.25 -0.1,-0.9 0.3,-0.3 2.7,-0.6 -0.05,0.15 0.25,0.7 0.2,0.5 -0.3,0.8 -0.35,0.35 -0.15,-0.25 Q 13,-1.95 11.7,-1.95 l -0.85,0.15 m 8.1,-1.5 0.05,-0.1 0.65,-0.9 0.55,1.45 -0.05,0.2 -0.1,-0.05 -0.9,0.05 -0.2,-0.65 m -36.7,-1.55 q -0.7,0.55 -0.95,1.45 l -0.95,-0.6 0.05,-0.05 1.65,-1.45 0.2,0.65 m 18,7.1 0.7,0.4 Q 1.5,3.15 1.5,3.7 L 0.8,5.05 H -2.85 L -3.2,4.8 -3.7,4.25 -3.05,3.1 q 0.7,-0.85 1.6,-1.05 l 1.7,0.2 M -9.85,1.9 -9.7,1.6 q 0,-0.55 -0.6,-0.55 -0.6,0 -0.6,0.55 l 0.1,0.4 0.5,0.15 0.45,-0.25"
         fill="#a99894"
         fill-rule="evenodd"
         stroke="none"
         id="path14" />
      <path
         d="m -7.8,-2.25 1.5,0.55 q 1.75,0.5 5.3,0.85 h 4 l 6.85,-0.85 0.35,0.95 q 0.6,1.05 2.05,1.05 l 1,-0.1 L 12,1.4 11.55,1.7 V 1.65 q 0,-0.65 -0.6,-0.6 -0.6,0 -0.6,0.6 L 10.4,2 10.5,2.15 7.85,2.6 H 6.4 q 0.4,-0.45 0.4,-1.4 0,-1.15 -1.7,-1.25 -1.7,-0.1 -1.7,2 0,0.4 0.25,0.65 L 3,2.55 V 2.5 L 2.35,2.45 2.2,2 Q 1.6,0.8 -0.85,0.95 H -1.15 -1.2 -1.3 Q -2.9,1.1 -3.8,1.8 L -9.45,0.85 -9.7,0.8 h -0.25 q -3.45,0 -5.4,-0.9 -1,-0.4 -1.4,-0.95 l -0.2,-1 0.3,-0.95 v -0.05 l 0.1,-0.05 0.2,-0.15 0.25,-0.1 -0.15,0.85 v 0.15 0.1 q -0.1,0.55 0.15,1.05 0.6,1.05 2.8,1.05 h 0.3 l 0.5,-0.05 q 0.6,-0.15 1.1,-0.5 l 0.5,-0.55 0.05,-0.05 h 0.05 l 0.25,-0.45 0.35,-0.9 2.4,0.4 m 18.65,0.45 0.85,-0.15 q 1.3,0 1.65,0.6 l 0.15,0.25 -1.05,0.25 q -1.2,0 -1.55,-0.75 L 10.85,-1.8 M -5.9,-1.05 q -0.6,0 -0.6,0.7 v 0.05 q -0.1,0.4 0.15,0.55 l 0.45,0.1 h 0.1 L -5.45,0.1 -5.3,-0.15 V -0.3 q 0,-0.75 -0.6,-0.75 m -8.85,-2.15 v -0.05 l 0.15,-0.15 0.35,-0.3 2.05,0.5 1,0.4 -0.3,0.8 -0.35,0.45 -0.15,0.1 -0.25,0.15 h -2 q -0.95,-0.1 -0.95,-1.05 l 0.05,-0.3 0.4,-0.55 M 5.95,1.35 5.85,1.7 5.15,2.2 q -1,0 -1,-0.75 0,-1.4 1.8,-0.1"
         fill="#b4a19e"
         fill-rule="evenodd"
         stroke="none"
         id="path15" />
    </g>
    <g
       id="sprite3"
       transform="translate(45.35,30.5)">
      <use
         ffdec:characterId="2647"
         height="61.049999"
         transform="translate(-45.35,-30.5)"
         width="90.699997"
         xlink:href="#shape3"
         id="use15" />
    </g>
    <g
       id="shape3"
       transform="translate(45.35,30.5)">
      <path
         d="m 15.35,-27 h 0.2 0.6 0.35 0.75 l 26,-0.15 -0.7,-0.45 h -54.7 l -0.7,0.45 26,0.15 h 0.75 0.35 0.6 0.2 0.1 0.1 0.1 m 8.85,8.8 0.15,-0.6 0.05,-0.85 -0.6,-0.95 -0.35,-0.3 -0.9,-0.35 -0.3,-0.05 H 8.15 q -0.85,0 -1.55,0.7 l -0.15,0.2 H 6.4 l -0.4,0.75 0.2,1.35 0.05,0.2 q 0.45,1.4 1.55,1.8 h 14.8 q 1.15,-0.45 1.6,-1.9 M 8.35,-23.05 h 13.7 q 3.1,0.15 3.9,2.5 l 0.2,0.9 0.1,0.85 -0.05,1 -0.1,0.65 q -0.5,2 -2.55,2.7 H 6.85 q -3.15,-1.05 -2.6,-5.2 0.45,-3.25 4.1,-3.4 m 1.65,12.4 0.05,0.35 0.1,2.1 v 0.1 l 2.7,-0.05 h 4.7 l 2.7,0.05 v -0.1 l 0.1,-2.1 0.05,-0.35 -5.15,0.05 v -0.05 h -0.1 v 0.05 L 10,-10.65 M 8.6,-6.2 Q 8.15,-6.4 8,-7.2 7.6,-7.65 7.8,-8.75 q 0,-1 0.15,-1.55 l 0.1,-0.4 -8.95,-0.2 h -0.15 l 0.05,0.6 v 0.45 1.05 l -0.1,0.5 V -8 l -0.15,3.8 H -1.3 l -0.3,5.75 h 1.25 31.1 1.2 L 31.75,-4.2 H 31.7 L 31.5,-8 v -0.3 l -0.1,-0.5 v -1.05 -0.45 l 0.05,-0.6 H 31.3 l -8.95,0.2 0.15,0.4 0.1,1.55 q 0.2,1.1 -0.2,1.55 -0.15,0.8 -0.6,1 -1.1,0.85 -3.7,0.55 H 12.3 Q 9.7,-5.35 8.6,-6.2 m 33,-14.1 -0.3,-3.15 Q 41,-24.1 41,-25.05 h -51.6 q 0,0.95 -0.3,1.6 l -0.3,3.15 q 0,2.5 2,4.3 2.65,2.3 8.2,2.45 h 32.4 q 5.55,-0.15 8.2,-2.45 2,-1.8 2,-4.3 m -5.35,9.55 0.05,0.45 -0.05,2.05 1.7,26.05 h 3.4 q 0.2,0.05 0.45,0.25 0.5,0.35 0.7,1.1 l 0.1,0.9 0.15,0.65 0.4,4.45 0.25,2.85 q 0,1.95 -0.5,2.55 h -8.75 q -0.25,-0.7 -0.4,-2.2 H -3.5 l -0.5,2.2 h -8.7 q -0.55,-0.6 -0.45,-2.55 l 0.25,-2.85 0.4,-4.45 0.2,-0.7 0.05,-0.85 q 0.15,-0.75 0.75,-1.1 l 0.4,-0.25 h 3.4 l 1.75,-23.25 h 0.05 l 0.05,-2.8 v -2.05 -0.45 l 0.05,-0.5 q -3.7,-0.8 -5.75,-3.15 -1.5,-1.7 -1.95,-3.8 h -6.75 v -0.1 h -0.15 q -1.1,-0.15 -1.1,-0.75 l 0.1,-0.2 -0.15,-0.9 h -0.1 v -3.35 l -11.5,0.1 q -0.95,0 -1.05,-0.8 h -7.35 l -2.3,-0.15 H -44 q -1.05,0 -1.3,-0.95 v -1 l 0.3,-2.95 -0.05,-0.3 0.35,-0.7 0.85,-0.25 19.65,0.05 4.75,0.2 h 0.25 q 1.1,0.15 1.1,0.75 l -0.1,0.2 q 0.15,0.35 0.15,0.9 h 0.1 v 4.5 h 0.15 1.25 v 0.05 h 0.15 l 2.55,0.1 0.5,0.05 0.1,-0.25 0.2,-1.05 -0.8,-0.25 -0.8,-0.45 q -0.3,-0.3 -0.3,-1.05 0,-1.45 1.1,-2.25 l 0.45,-0.3 0.2,-0.25 3.75,-0.3 h 49.3 l 3.75,0.3 0.2,0.25 q 1.55,0.85 1.55,2.55 0,0.75 -0.3,1.05 -0.4,0.35 -1.6,0.7 l 0.2,1.05 -0.25,-0.85 0.7,4.65 -0.05,0.65 -0.1,1.3 H 43.9 q -0.45,2.1 -1.95,3.8 -2.05,2.35 -5.75,3.15 l 0.05,0.5 m -1.8,-0.1 v -0.1 l -1,0.05 -0.1,0.5 -0.05,0.1 -0.1,0.15 0.05,4.7 h 0.05 l 2.1,35 h 0.1 1.55 q -0.3,-1.3 -0.45,-3.5 l -0.4,-5.6 -1.65,-25.9 H 34.5 l -0.05,-2.7 v -2.15 -0.55 m 6.1,33.35 V 22.4 L 40.5,21.3 39.95,21.4 H 39.3 l -0.95,-0.1 v 0.35 l 0.1,1.1 0.05,0.8 h 0.3 0.05 q 0.8,-0.15 1.45,0 h 0.3 l -0.05,-0.8 V 22.5 m -0.35,4.5 0.55,0.05 v -0.3 H 38.7 v 0.3 L 39.15,27 h 1.05 m -1.65,-2.3 0.1,0.65 0.95,-0.3 0.1,-0.05 0.95,0.2 V 25.05 L 40.6,24.7 H 38.55 M 32.3,7.9 32.2,5.85 H -1.85 l -0.1,2.05 -0.35,5.7 h 17.85 v 0.05 l 17,-0.05 Q 32.35,10.85 32.3,7.9 m 0.45,8.6 -0.1,-1.1 H 14.8 V 15.35 L -2.4,15.4 -2.45,16.5 15.5,16.45 V 16.5 H 32.75 M 32.1,4.25 32.05,3.15 14.8,3.2 V 3.15 H -1.7 l -0.1,1.1 h 33.9 m 6.15,15.55 v 0.35 l 1.45,0.05 0.1,0.05 0.6,0.05 V 20 H 39.75 L 38.3,19.75 38.25,19.7 v 0.1 m -4.8,6.7 -0.1,-1.15 -35.75,-0.05 -0.75,0.05 -0.1,1.15 h 36.7 M 33.15,23.25 32.8,18.5 H -2.55 l -0.4,4.85 0.55,-0.05 35.55,-0.05 M -42.8,-27.2 v 0.85 0.2 l 1.25,-0.1 h 8.1 l 2,-0.05 8.2,0.05 h 2.45 v -0.85 l 0.1,-0.45 0.05,-1.1 q -1.4,0.1 -3.55,0.05 l -18.75,0.05 0.15,1.35 m 28.95,5 -2.7,0.1 v 0.05 h -0.35 l -0.05,2.05 h 3.25 v -0.15 l 0.2,-2.05 h -0.35 m -6.25,2.15 2.3,0.05 -0.15,-1.95 V -22 h -0.6 l -1.6,-0.05 v 0.95 l 0.05,1.05 m 17.2,9.75 -0.05,-0.1 -0.1,-0.5 -1,-0.05 v 0.1 l 0.05,0.55 -0.05,2.15 -0.05,2.7 h -0.05 l -1.75,25.9 -0.45,5.6 -0.5,3.45 1.5,0.05 0.1,-0.05 2.35,-34.95 h 0.1 v -4.7 l -0.1,-0.15 m -5.25,32.7 0.1,-1.15 -1.05,0.15 -1.2,-0.1 -0.05,1.1 v 0.2 0.6 l -0.05,0.25 h 0.1 2.05 l 0.1,-1.05 m -2,-2.25 v 0.1 l 0.75,-0.05 1.4,-0.05 0.05,-0.5 -2.1,0.3 h -0.05 l -0.05,0.2 m 0.5,4.85 h 0.15 q 0.5,0 1.1,0.35 l 0.05,-0.65 h -2.1 v 0.45 L -9.65,25 m 1.15,1.75 h -2.05 V 27 l 2.05,0.05 v -0.3"
         fill="#6b6b6b"
         fill-rule="evenodd"
         stroke="none"
         id="path16" />
      <path
         d="m 38.45,22.75 -0.1,-1.1 V 21.3 l 0.95,0.1 h 0.65 l 0.55,-0.1 0.05,1.1 v 0.1 l -0.45,0.15 -0.25,0.1 h -1.4 m -0.15,-3 1.45,0.25 h 0.65 v 0.3 L 39.8,20.25 39.7,20.2 38.25,20.15 V 19.8 l 0.05,-0.05 m -58.4,-39.8 -0.05,-1.05 v -0.95 l 1.6,0.05 h 0.6 v 0.05 l 0.15,1.95 -2.3,-0.05 m 6.25,-2.15 h 0.35 l -0.2,2.05 V -20 h -3.25 l 0.05,-2.05 h 0.35 v -0.05 l 2.7,-0.1 m 3.5,44.8 v -0.2 l 0.05,-1.1 1.2,0.1 1.05,-0.15 -0.1,1.15 -1.2,-0.2 q -0.6,0 -1,0.4 m 0.3,-2.65 2.1,-0.3 -0.05,0.5 -1.4,0.05 -0.75,0.05 v -0.1 l 0.1,-0.2"
         fill="#858585"
         fill-rule="evenodd"
         stroke="none"
         id="path17" />
      <path
         d="m 10,-10.65 5.15,0.05 v -0.05 h 0.1 v 0.05 l 5.15,-0.05 -0.05,0.35 -0.1,2.1 v 0.1 l -2.7,-0.05 h -4.7 l -2.7,0.05 v -0.1 l -0.1,-2.1 -0.05,-0.35 m 24.45,-0.2 v 0.55 2.15 l 0.05,2.7 h 0.05 l 1.65,25.9 0.4,5.6 q 0.15,2.2 0.45,3.5 H 35.5 35.4 l -2.1,-35 h -0.05 l -0.05,-4.7 0.1,-0.15 0.05,-0.1 0.1,-0.5 1,-0.05 v 0.1 m 4,33.6 h 1.4 l 0.25,-0.1 0.45,-0.15 v 0.25 l 0.05,0.8 h -0.3 q -0.65,-0.15 -1.45,0 H 38.8 38.5 l -0.05,-0.8 m 0.1,1.95 h 2.05 l 0.05,0.35 V 25.2 L 39.7,25 l -0.1,0.05 -0.95,0.3 -0.1,-0.65 M 40.2,27 h -1.05 l -0.45,0.05 v -0.3 h 2.05 v 0.3 L 40.2,27 M 32.1,4.25 H -1.8 l 0.1,-1.1 H 14.8 V 3.2 L 32.05,3.15 32.1,4.25 M 32.75,16.5 H 15.5 V 16.45 L -2.45,16.5 -2.4,15.4 14.8,15.35 v 0.05 h 17.85 l 0.1,1.1 m -35.65,-26.8 0.1,0.15 v 4.7 h -0.1 l -2.35,34.95 -0.1,0.05 -1.5,-0.05 0.5,-3.45 0.45,-5.6 1.75,-25.9 h 0.05 l 0.05,-2.7 0.05,-2.15 -0.05,-0.55 v -0.1 l 1,0.05 0.1,0.5 0.05,0.1 m -7.45,32.9 q 0.4,-0.4 1,-0.4 l 1.2,0.2 -0.1,1.05 h -2.05 -0.1 l 0.05,-0.25 v -0.6 m 1.85,4.15 v 0.3 L -10.55,27 V 26.75 H -8.5 M -9.65,25 l -0.8,0.15 V 24.7 h 2.1 L -8.4,25.35 Q -9,25 -9.5,25 h -0.15"
         fill="#747474"
         fill-rule="evenodd"
         stroke="none"
         id="path18" />
      <path
         d="m 37.45,-16.9 0.65,-0.85 q 0.75,-0.65 1.5,-0.65 l 0.1,0.35 q 0,0.65 -0.45,1.2 -0.5,0.65 -1.1,0.65 -0.5,0 -0.65,-0.3 l -0.05,-0.4 m -44.7,-6.25 -0.35,1.3 -0.35,2.2 q 0,2 -0.75,2 -1.05,0 -1.1,-2.9 0,-3 1.3,-3.5 1.25,-0.45 1.25,0.9 m -0.9,6.3 q 0,-0.65 0.7,-0.65 0.7,0 0.7,0.65 0,0.75 -0.7,0.75 -0.8,0 -0.7,-0.75"
         fill="#ffffff"
         fill-rule="evenodd"
         stroke="none"
         id="path19" />
      <path
         d="m 6.25,-18.1 0.45,-0.4 0.55,-0.3 2.05,-0.75 h 8.9 q 4.05,0.05 5.85,1.25 l 0.15,0.1 q -0.45,1.45 -1.6,1.9 H 7.8 q -1.1,-0.4 -1.55,-1.8 m 2.1,-4.95 q -3.65,0.15 -4.1,3.4 -0.55,4.15 2.6,5.2 h 16.7 q 2.05,-0.7 2.55,-2.7 l 0.1,-0.65 0.05,-1 -0.1,-0.85 -0.2,-0.9 q -0.8,-2.35 -3.9,-2.5 H 8.35 m 29.1,6.15 0.05,0.4 q 0.15,0.3 0.65,0.3 0.6,0 1.1,-0.65 0.45,-0.55 0.45,-1.2 l -0.1,-0.35 q -0.75,0 -1.5,0.65 l -0.65,0.85 m 4.15,-3.4 q 0,2.5 -2,4.3 -2.65,2.3 -8.2,2.45 H -1 q -5.55,-0.15 -8.2,-2.45 -2,-1.8 -2,-4.3 l 0.3,-3.15 q 0.3,-0.65 0.3,-1.6 H 41 q 0,0.95 0.3,1.6 l 0.3,3.15 m -49.75,3.45 q -0.1,0.75 0.7,0.75 0.7,0 0.7,-0.75 0,-0.65 -0.7,-0.65 -0.7,0 -0.7,0.65 m 0.9,-6.3 q 0,-1.35 -1.25,-0.9 -1.3,0.5 -1.3,3.5 0.05,2.9 1.1,2.9 0.75,0 0.75,-2 l 0.35,-2.2 0.35,-1.3"
         fill="#977979"
         fill-rule="evenodd"
         stroke="none"
         id="path20" />
      <path
         d="m 15.35,-27 h -0.1 -0.1 -0.1 -0.2 -0.6 -0.35 -0.75 l -26,-0.15 0.7,-0.45 h 54.7 l 0.7,0.45 -26,0.15 h -0.75 -0.35 -0.6 -0.2 M 6.25,-18.1 6.2,-18.3 6,-19.65 6.4,-20.4 h 0.05 l 0.15,-0.2 q 0.7,-0.7 1.55,-0.7 h 14.1 l 0.3,0.05 0.9,0.35 0.35,0.3 0.6,0.95 -0.05,0.85 -0.15,0.6 -0.15,-0.1 q -1.8,-1.2 -5.85,-1.25 H 9.3 l -2.05,0.75 -0.55,0.3 -0.45,0.4"
         fill="#ac8989"
         fill-rule="evenodd"
         stroke="none"
         id="path21" />
      <path
         d="m -20.8,-27.1 -0.5,0.05 -4.6,-0.15 h -16.55 -0.35 l -0.15,-1.35 18.75,-0.05 q 2.15,0.05 3.55,-0.05 l -0.05,1.1 -0.1,0.45"
         fill="#aca089"
         fill-rule="evenodd"
         stroke="none"
         id="path22" />
      <path
         d="m -42.8,-27.2 h 0.35 16.55 l 4.6,0.15 0.5,-0.05 v 0.85 h -2.45 l -8.2,-0.05 -2,0.05 h -8.1 l -1.25,0.1 v -0.2 -0.85"
         fill="#9f937d"
         fill-rule="evenodd"
         stroke="none"
         id="path23" />
    </g>
    <g
       id="sprite4"
       transform="translate(5.4,4)">
      <use
         ffdec:characterId="43"
         height="8"
         transform="translate(-5.4,-4)"
         width="10.8"
         xlink:href="#shape4"
         id="use23" />
    </g>
    <g
       id="shape4"
       transform="translate(5.4,4)">
      <path
         d="m 2.9,-0.35 q 0,-1.25 1.25,-1.25 1.25,0 1.25,1.2 0,1.3 -1.25,1.3 Q 3.6,0.9 3.25,0.5 2.9,0.15 2.9,-0.35 m 0.35,-2.3 q 0,0.55 -0.35,0.9 -0.4,0.45 -1,0.45 -1.35,0 -1.35,-1.4 0,-1.3 1.35,-1.3 1.35,0 1.35,1.35 m -3.1,1.9 h 0.2 q 2.6,0.1 2.6,2.8 l -0.3,1 Q 2.05,4 0.45,4 H 0.35 0.15 0.1 -0.45 q -1.6,0 -2.2,-0.95 l -0.3,-1 q 0,-2.8 2.8,-2.8 h 0.3 M -1.55,-4 q 1.35,0 1.35,1.35 0,0.55 -0.4,0.9 -0.4,0.45 -0.95,0.45 -1.4,0 -1.4,-1.4 0,-1.3 1.4,-1.3 m -2.6,2.4 q 1.25,0 1.25,1.25 0,0.5 -0.35,0.85 -0.35,0.4 -0.9,0.4 -1.25,0 -1.25,-1.3 0,-1.2 1.25,-1.2"
         fill="#6b6b6b"
         fill-rule="evenodd"
         stroke="none"
         id="path24" />
    </g>
  </defs>
</svg>
