<?xml version="1.0" encoding="UTF-8" standalone="no"?>
<svg
   ffdec:objectType="frame"
   height="107"
   width="56.299999"
   version="1.1"
   id="svg18"
   sodipodi:docname="2.svg"
   xmlns:inkscape="http://www.inkscape.org/namespaces/inkscape"
   xmlns:sodipodi="http://sodipodi.sourceforge.net/DTD/sodipodi-0.dtd"
   xmlns:xlink="http://www.w3.org/1999/xlink"
   xmlns="http://www.w3.org/2000/svg"
   xmlns:svg="http://www.w3.org/2000/svg"
   xmlns:ffdec="https://www.free-decompiler.com/flash">
  <sodipodi:namedview
     id="namedview18"
     pagecolor="#ffffff"
     bordercolor="#000000"
     borderopacity="0.25"
     inkscape:showpageshadow="2"
     inkscape:pageopacity="0.0"
     inkscape:pagecheckerboard="0"
     inkscape:deskcolor="#d1d1d1"
     fit-margin-top="5"
     fit-margin-left="5"
     fit-margin-right="5"
     fit-margin-bottom="5" />
  <g
     transform="translate(28.15,56)"
     id="g6">
    <use
       ffdec:characterId="651"
       height="12.45"
       transform="matrix(0.3828,0.742,-0.742,0.3828,-13.3306,31.0065)"
       width="19.1"
       xlink:href="#sprite0"
       id="use1" />
    <use
       ffdec:characterId="651"
       height="12.45"
       transform="matrix(0.3545,0.6872,-0.6872,0.3545,-8.0505,27.6187)"
       width="19.1"
       xlink:href="#sprite0"
       id="use2" />
    <use
       ffdec:characterId="658"
       height="28.299999"
       transform="matrix(-0.2074,0.8704,-0.8704,-0.2074,30.2084,17.5028)"
       width="37.799999"
       xlink:href="#sprite1"
       id="use3" />
    <use
       ffdec:characterId="674"
       height="15.65"
       transform="matrix(0.4102,0.7952,-0.7952,0.4102,-6.2113,18.346)"
       width="33.450001"
       xlink:href="#sprite2"
       id="use4" />
    <use
       ffdec:characterId="2804"
       height="8"
       transform="matrix(-0.866,-0.5,0.5,-0.866,21.9266,5.614)"
       width="10.8"
       xlink:href="#sprite3"
       id="use5" />
    <use
       ffdec:characterId="3488"
       height="107"
       transform="translate(-28.15,-56)"
       width="56.299999"
       xlink:href="#shape4"
       id="use6" />
  </g>
  <defs
     id="defs18">
    <g
       id="sprite0"
       transform="translate(0.75,0.75)">
      <use
         ffdec:characterId="650"
         height="12.45"
         transform="translate(-0.75,-0.75)"
         width="19.1"
         xlink:href="#shape0"
         id="use7" />
    </g>
    <g
       id="shape0"
       transform="translate(0.75,0.75)">
      <path
         d="M 10.15,8.8 V 8.7 L 8.8,8.8 7.45,8.7 V 8.8 L 6,8.7 Q 5.2,8.55 5.15,7.8 L 5.2,7.35 8.6,7.15 12.4,7.35 12.45,7.8 Q 12.4,8.55 11.6,8.7 l -1.45,0.1 m 0,-7.3 V 1.4 q 2.65,0.1 2.4,1.65 L 12.3,4.2 q 0,0.5 0.75,0.5 0.65,0 1.15,-0.4 l 0.75,-0.4 q 1.3,0 1.15,1.3 l -0.05,1 -0.4,0.45 L 14.45,6.9 13.6,6.7 13.05,6.4 H 13 l -0.35,-0.15 -0.1,0.2 -1.4,-0.1 h -1 -1.1 -2.6 L 5.05,6.45 4.95,6.25 4.6,6.4 H 4.55 L 4,6.7 3.15,6.9 1.95,6.65 1.55,6.2 1.5,5.2 Q 1.35,3.9 2.65,3.9 L 3.4,4.3 Q 3.9,4.7 4.55,4.7 5.3,4.7 5.3,4.2 L 5.05,3.05 Q 4.8,1.5 7.45,1.4 V 1.5 L 8.9,1.4 10.15,1.5"
         fill="#e5e5e5"
         fill-rule="evenodd"
         stroke="none"
         id="path7" />
      <path
         d="m 14.15,2.55 q 2.45,-0.45 3.2,1.3 L 17.6,6.2 q 0,2.35 -2.65,2.35 L 14.1,8.4 14.3,9.3 q 0,1.65 -4.4,1.65 H 8.7 7.7 Q 3.3,10.95 3.3,9.3 L 3.5,8.4 2.65,8.55 Q 0,8.55 0,6.2 0,4.5 0.25,3.85 1,2.1 3.45,2.55 3.55,1.4 3.95,1 4.7,0.2 7.05,0 L 8.75,0.05 10.55,0 q 2.35,0.2 3.1,1 0.4,0.4 0.5,1.55 M 10.15,1.5 8.9,1.4 7.45,1.5 V 1.4 Q 4.8,1.5 5.05,3.05 L 5.3,4.2 Q 5.3,4.7 4.55,4.7 3.9,4.7 3.4,4.3 L 2.65,3.9 q -1.3,0 -1.15,1.3 l 0.05,1 0.4,0.45 L 3.15,6.9 4,6.7 4.55,6.4 H 4.6 l 0.35,-0.15 0.1,0.2 1.4,-0.1 h 2.6 1.1 1 l 1.4,0.1 0.1,-0.2 L 13,6.4 h 0.05 l 0.55,0.3 0.85,0.2 1.2,-0.25 0.4,-0.45 0.05,-1 Q 16.25,3.9 14.95,3.9 L 14.2,4.3 Q 13.7,4.7 13.05,4.7 12.3,4.7 12.3,4.2 L 12.55,3.05 Q 12.8,1.5 10.15,1.4 v 0.1 m 0,7.3 1.45,-0.1 Q 12.4,8.55 12.45,7.8 L 12.4,7.35 8.6,7.15 5.2,7.35 5.15,7.8 Q 5.2,8.55 6,8.7 L 7.45,8.8 V 8.7 L 8.8,8.8 10.15,8.7 v 0.1"
         fill="#9a9a9a"
         fill-rule="evenodd"
         stroke="none"
         id="path8" />
      <path
         d="m 14.15,2.55 q 2.45,-0.45 3.2,1.3 L 17.6,6.2 q 0,2.35 -2.65,2.35 L 14.1,8.4 14.3,9.3 q 0,1.65 -4.4,1.65 H 8.7 7.7 Q 3.3,10.95 3.3,9.3 L 3.5,8.4 2.65,8.55 Q 0,8.55 0,6.2 0,4.5 0.25,3.85 1,2.1 3.45,2.55 3.55,1.4 3.95,1 4.7,0.2 7.05,0 L 8.75,0.05 10.55,0 q 2.35,0.2 3.1,1 0.4,0.4 0.5,1.55 z"
         fill="none"
         stroke="#9a9a9a"
         stroke-linecap="round"
         stroke-linejoin="round"
         stroke-width="1.5"
         id="path9" />
    </g>
    <g
       id="sprite1"
       transform="translate(0.75,0.75)">
      <use
         ffdec:characterId="657"
         height="28.299999"
         transform="translate(-0.75,-0.75)"
         width="37.799999"
         xlink:href="#shape1"
         id="use9" />
    </g>
    <g
       id="shape1"
       transform="translate(0.75,0.75)">
      <path
         d="M 34.9,9.75 Q 34.4,10.9 33,10.9 l -1.85,-0.3 -0.25,0.25 q -0.75,0.9 -0.75,1.8 0,0.75 0.6,1.3 0.6,0.6 0.6,1 l 0.35,-0.15 1.6,-0.6 0.25,0.05 0.8,-0.2 Q 36,13.85 36,15.5 l -0.45,1.25 0.35,1.15 q 0.4,1.15 0.4,2.05 0,1.35 -0.9,2.35 -1.45,1.55 -4.7,1.55 -1.1,0 -3.85,-1.1 L 24.9,21.9 q 0.45,1.05 0.45,2.15 l -0.4,1.4 q -0.6,1.35 -1.85,1.35 -0.9,0 -2.15,-1.6 l -0.5,-0.65 q -0.5,0.75 -2,0.75 h -0.3 -0.3 q -1.5,0 -2,-0.75 l -0.5,0.65 q -1.25,1.6 -2.15,1.6 -1.25,0 -1.85,-1.35 l -0.4,-1.4 q 0,-1.1 0.45,-2.15 L 9.45,22.75 Q 6.7,23.85 5.6,23.85 2.35,23.85 0.9,22.3 0,21.3 0,19.95 0,19.05 0.4,17.9 L 0.75,16.75 0.3,15.5 q 0,-1.65 1.65,-1.45 l 0.8,0.2 0.25,-0.05 1.6,0.6 0.35,0.15 q 0,-0.4 0.6,-1 0.6,-0.55 0.6,-1.3 0,-0.9 -0.75,-1.8 L 5.15,10.6 3.3,10.9 Q 1.9,10.9 1.4,9.75 1.15,9.2 1.15,8.45 q 0,-4.5 6.9,-6.6 l 0.4,-0.1 3.05,-0.85 2.6,-0.45 2.7,-0.35 4.6,0.25 3.4,0.55 3.05,0.85 0.4,0.1 q 6.9,2.1 6.9,6.6 L 34.9,9.75 M 30.85,7.95 32.7,8.5 Q 31.8,5.7 29.6,4.75 L 24.7,3.25 21.55,2.3 20.2,2.25 18.15,1.95 16.1,2.25 14.75,2.3 11.6,3.25 6.7,4.75 Q 4.5,5.7 3.6,8.5 L 5.45,7.95 q 1.8,-0.65 3.5,-0.65 2.6,0 3.7,2.65 0.55,1.35 0.55,2.65 0,1.4 -1.35,3 -1.9,2.25 -5.1,2.25 -2.25,0 -3.7,-1.15 L 2.9,16.6 2.85,16.8 2.55,18.15 q -0.3,0.85 -0.3,1.45 0,0.65 0.95,1.3 1.05,0.65 2.4,0.65 1.5,0 3,-0.8 1.5,-0.85 2.2,-0.85 l 1,0.15 q 0.35,-0.7 1.65,-0.7 1.65,0 2.3,1.25 l 0.15,0.35 0.7,-0.3 1.55,-0.1 1.55,0.1 0.7,0.3 0.15,-0.35 q 0.65,-1.25 2.3,-1.25 1.3,0 1.65,0.7 l 1,-0.15 q 0.7,0 2.2,0.85 1.5,0.8 3,0.8 1.35,0 2.4,-0.65 0.95,-0.65 0.95,-1.3 l -0.3,-1.45 q -0.3,-0.85 -0.3,-1.35 l -0.05,-0.2 -0.15,0.1 q -1.45,1.15 -3.7,1.15 -3.2,0 -5.1,-2.25 -1.35,-1.6 -1.35,-3 0,-1.3 0.55,-2.65 1.1,-2.65 3.7,-2.65 1.7,0 3.5,0.65 M 22.8,15.7 q -1.15,3.75 -4.05,3.75 l -0.6,-0.15 -0.6,0.15 q -2.9,0 -4.05,-3.75 0,-1.6 1.2,-2.6 1.5,-1.2 3.45,1.2 1.95,-2.4 3.45,-1.2 1.2,1 1.2,2.6 m 0.6,5.4 V 20.55 L 22.7,20.4 q -1.2,0 -1.65,1.15 l 0.25,0.8 -0.15,0.4 0.75,1 0.9,1.55 0.9,-0.75 0.3,-0.6 -0.3,-1.35 -0.3,-1.5 m -10.5,0 -0.3,1.5 -0.3,1.35 0.3,0.6 0.9,0.75 0.9,-1.55 0.75,-1 L 15,22.35 Q 15,21.9 15.25,21.55 14.8,20.4 13.6,20.4 l -0.7,0.15 v 0.55 m 3.4,1.55 0.1,0.1 0.05,0.35 -0.05,0.3 q 0.25,0.7 1.4,0.7 h 0.15 l -0.1,-0.75 0.1,-2.1 q -1.25,0 -1.65,0.75 l -0.1,0.2 v 0.25 l 0.1,0.2 m 3.7,0 0.1,-0.2 V 22.2 L 20,22 q -0.4,-0.75 -1.65,-0.75 l 0.1,1.25 v 1.6 h 0.05 q 1.15,0 1.4,-0.7 l -0.05,-0.3 0.05,-0.35 0.1,-0.1"
         fill="#9a9a9a"
         fill-rule="evenodd"
         stroke="none"
         id="path10" />
      <path
         d="m 30.85,7.95 q -1.8,-0.65 -3.5,-0.65 -2.6,0 -3.7,2.65 -0.55,1.35 -0.55,2.65 0,1.4 1.35,3 1.9,2.25 5.1,2.25 2.25,0 3.7,-1.15 l 0.15,-0.1 0.05,0.2 q 0,0.5 0.3,1.35 l 0.3,1.45 q 0,0.65 -0.95,1.3 -1.05,0.65 -2.4,0.65 -1.5,0 -3,-0.8 -1.5,-0.85 -2.2,-0.85 l -1,0.15 q -0.35,-0.7 -1.65,-0.7 -1.65,0 -2.3,1.25 l -0.15,0.35 -0.7,-0.3 -1.55,-0.1 -1.55,0.1 -0.7,0.3 -0.15,-0.35 q -0.65,-1.25 -2.3,-1.25 -1.3,0 -1.65,0.7 l -1,-0.15 q -0.7,0 -2.2,0.85 -1.5,0.8 -3,0.8 -1.35,0 -2.4,-0.65 -0.95,-0.65 -0.95,-1.3 0,-0.6 0.3,-1.45 l 0.3,-1.35 0.05,-0.2 0.15,0.1 q 1.45,1.15 3.7,1.15 3.2,0 5.1,-2.25 1.35,-1.6 1.35,-3 0,-1.3 -0.55,-2.65 -1.1,-2.65 -3.7,-2.65 -1.7,0 -3.5,0.65 L 3.6,8.5 Q 4.5,5.7 6.7,4.75 l 4.9,-1.5 3.15,-0.95 1.35,-0.05 2.05,-0.3 2.05,0.3 1.35,0.05 3.15,0.95 4.9,1.5 Q 31.8,5.7 32.7,8.5 L 30.85,7.95 M 22.8,15.7 q 0,-1.6 -1.2,-2.6 -1.5,-1.2 -3.45,1.2 -1.95,-2.4 -3.45,-1.2 -1.2,1 -1.2,2.6 1.15,3.75 4.05,3.75 l 0.6,-0.15 0.6,0.15 q 2.9,0 4.05,-3.75 m 0.6,5.4 0.3,1.5 0.3,1.35 -0.3,0.6 -0.9,0.75 -0.9,-1.55 -0.75,-1 0.15,-0.4 -0.25,-0.8 Q 21.5,20.4 22.7,20.4 l 0.7,0.15 v 0.55 m -7.1,1.55 -0.1,-0.2 V 22.2 L 16.3,22 q 0.4,-0.75 1.65,-0.75 l -0.1,2.1 0.1,0.75 H 17.8 q -1.15,0 -1.4,-0.7 l 0.05,-0.3 -0.05,-0.35 -0.1,-0.1 M 12.9,21.1 v -0.55 l 0.7,-0.15 q 1.2,0 1.65,1.15 Q 15,21.9 15,22.35 l 0.15,0.4 -0.75,1 -0.9,1.55 -0.9,-0.75 -0.3,-0.6 0.3,-1.35 0.3,-1.5 m 7.1,1.55 -0.1,0.1 -0.05,0.35 0.05,0.3 q -0.25,0.7 -1.4,0.7 h -0.05 v -1.6 l -0.1,-1.25 q 1.25,0 1.65,0.75 l 0.1,0.2 v 0.25 l -0.1,0.2"
         fill="#e5e5e5"
         fill-rule="evenodd"
         stroke="none"
         id="path11" />
      <path
         d="m 34.9,9.75 0.25,-1.3 q 0,-4.5 -6.9,-6.6 L 27.85,1.75 24.8,0.9 21.4,0.35 16.8,0.1 14.1,0.45 11.5,0.9 8.45,1.75 8.05,1.85 q -6.9,2.1 -6.9,6.6 0,0.75 0.25,1.3 0.5,1.15 1.9,1.15 l 1.85,-0.3 0.25,0.25 q 0.75,0.9 0.75,1.8 0,0.75 -0.6,1.3 -0.6,0.6 -0.6,1 L 4.6,14.8 3,14.2 2.75,14.25 1.95,14.05 Q 0.3,13.85 0.3,15.5 L 0.75,16.75 0.4,17.9 Q 0,19.05 0,19.95 q 0,1.35 0.9,2.35 1.45,1.55 4.7,1.55 1.1,0 3.85,-1.1 L 11.4,21.9 q -0.45,1.05 -0.45,2.15 l 0.4,1.4 q 0.6,1.35 1.85,1.35 0.9,0 2.15,-1.6 l 0.5,-0.65 q 0.5,0.75 2,0.75 h 0.3 0.3 q 1.5,0 2,-0.75 l 0.5,0.65 q 1.25,1.6 2.15,1.6 1.25,0 1.85,-1.35 l 0.4,-1.4 q 0,-1.1 -0.45,-2.15 l 1.95,0.85 q 2.75,1.1 3.85,1.1 3.25,0 4.7,-1.55 0.9,-1 0.9,-2.35 0,-0.9 -0.4,-2.05 L 35.55,16.75 36,15.5 q 0,-1.65 -1.65,-1.45 l -0.8,0.2 -0.25,-0.05 -1.6,0.6 -0.35,0.15 q 0,-0.4 -0.6,-1 -0.6,-0.55 -0.6,-1.3 0,-0.9 0.75,-1.8 L 31.15,10.6 33,10.9 q 1.4,0 1.9,-1.15 z"
         fill="none"
         stroke="#9a9a9a"
         stroke-linecap="round"
         stroke-linejoin="round"
         stroke-width="1.5"
         id="path12" />
    </g>
    <g
       id="sprite2"
       transform="translate(0.75,0.75)">
      <use
         ffdec:characterId="673"
         height="15.65"
         transform="translate(-0.75,-0.75)"
         width="33.450001"
         xlink:href="#shape2"
         id="use12" />
    </g>
    <g
       id="shape2"
       transform="translate(0.75,0.75)">
      <path
         d="m 31.75,2.1 0.2,1.8 q 0,1.15 -0.8,2 -1.2,1.25 -4.1,1.4 l -2.55,3.15 -0.8,0.95 -0.65,0.5 q -1.35,1.8 -4.5,1.8 H 18.2 L 15.9,14.15 13.05,13.7 Q 10.2,13.6 8.95,11.9 L 8.3,11.4 7.5,10.45 4.95,7.3 Q 2.05,7.15 0.8,5.9 0,5.05 0,3.9 L 0.25,2.1 Q 0.75,0.3 2.2,0.3 l 2.05,0.35 0.5,0.4 Q 5.15,0.1 6.45,0 8.3,-0.15 8.3,1.6 L 8.05,2.95 9.25,4.8 10,5.85 V 5.8 q 0.35,-1.25 1.1,-1.3 l 0.05,0.05 0.9,0.05 1.25,0.7 q 0.45,-0.5 1.4,-0.65 l 1.3,0.2 1.3,-0.2 Q 18.25,4.8 18.7,5.3 19.1,4.8 19.95,4.6 L 20.85,4.55 20.9,4.5 Q 21.65,4.55 22,5.8 V 5.85 L 22.75,4.8 23.95,2.95 23.65,1.6 q 0,-1.75 1.9,-1.6 1.3,0.1 1.7,1.05 l 0.5,-0.4 Q 28.3,0.3 29.8,0.3 q 1.45,0 1.95,1.8 M 20.85,5.5 20.5,5.4 q -0.9,0 -1.15,0.9 v 0.9 l -0.3,0.15 v 0.1 0.2 l 0.05,0.25 0.4,0.75 q 0.25,-0.3 0.8,-0.65 1,-0.6 1,-1.6 L 20.85,5.5 m 9.25,-2.45 -0.35,-0.8 -0.5,-0.1 q -0.85,0 -1.25,0.4 l -0.6,0.4 q -0.15,0.2 -0.5,0.2 -0.45,0 -0.55,-0.9 L 26.1,1.65 q -0.2,-0.3 -0.55,-0.3 -0.3,0 -0.7,0.35 l 0.3,1.25 -0.8,2.1 Q 23.3,7.1 22.2,7.15 v 0.4 l -0.5,1 Q 21,9.5 20.1,9.5 L 19.5,9.35 19.35,9.3 19.2,9.2 18.9,9.95 q -0.6,0.75 -1.95,0.75 -0.6,0 -0.95,-0.45 L 15.05,10.7 Q 13.7,10.7 13.1,9.95 L 12.8,9.2 12.65,9.3 12.5,9.35 11.9,9.5 Q 11,9.5 10.3,8.55 l -0.5,-1 V 7.15 Q 8.7,7.1 7.65,5.05 L 6.85,2.95 Q 6.85,2.3 7.1,1.7 6.75,1.35 6.45,1.35 L 5.9,1.65 Q 5.7,1.85 5.65,2.25 5.55,3.15 5.1,3.15 4.75,3.15 4.6,2.95 4.3,2.85 3.95,2.55 3.6,2.15 2.75,2.15 l -0.5,0.1 -0.35,0.8 -0.15,0.4 v 0.2 q 0,0.95 1.2,1.3 2.8,-0.35 4.8,2.2 1.1,1.35 1.6,2.95 1.5,0.8 4,1 2.1,0.25 2.65,0.8 0.55,-0.55 2.65,-0.8 2.5,-0.2 4,-1 0.5,-1.6 1.6,-2.95 2,-2.55 4.8,-2.2 1.2,-0.35 1.2,-1.3 V 3.45 L 30.1,3.05 M 11.15,5.5 10.7,6.4 q 0,1 1,1.6 L 12.5,8.65 12.9,7.9 12.95,7.65 V 7.45 7.35 L 12.65,7.2 V 6.3 Q 12.4,5.4 11.5,5.4 l -0.35,0.1 m 2.3,1.75 0.05,1 q 0,0.7 0.55,1.15 0.5,0.4 1.05,0.4 0.3,0 0.5,-0.35 L 15.7,9.3 15.75,9.1 15.7,8.95 15.85,7.45 Q 15.4,7.2 15.4,6.35 L 15,5.9 q -0.85,0 -1.15,0.55 l -0.25,0.5 -0.15,0.3 M 18.4,6.95 18.15,6.45 Q 17.85,5.9 17,5.9 L 16.55,6.35 16.4,7.2 16.45,8.35 16.4,8.95 16.3,9.2 v 0.1 l 0.1,0.15 q 0.15,0.35 0.5,0.35 0.55,0 1.05,-0.4 0.55,-0.45 0.55,-1.15 l 0.05,-1 -0.15,-0.3"
         fill="#9a9a9a"
         fill-rule="evenodd"
         stroke="none"
         id="path13" />
      <path
         d="m 30.1,3.05 0.15,0.4 v 0.2 q 0,0.95 -1.2,1.3 -2.8,-0.35 -4.8,2.2 -1.1,1.35 -1.6,2.95 -1.5,0.8 -4,1 -2.1,0.25 -2.65,0.8 -0.55,-0.55 -2.65,-0.8 -2.5,-0.2 -4,-1 Q 8.85,8.5 7.75,7.15 5.75,4.6 2.95,4.95 1.75,4.6 1.75,3.65 v -0.2 l 0.15,-0.4 0.35,-0.8 0.5,-0.1 q 0.85,0 1.2,0.4 0.35,0.3 0.65,0.4 0.15,0.2 0.5,0.2 0.45,0 0.55,-0.9 0.05,-0.4 0.25,-0.6 l 0.55,-0.3 q 0.3,0 0.65,0.35 -0.25,0.6 -0.25,1.25 l 0.8,2.1 Q 8.7,7.1 9.8,7.15 v 0.4 l 0.5,1 Q 11,9.5 11.9,9.5 L 12.5,9.35 12.65,9.3 12.8,9.2 13.1,9.95 q 0.6,0.75 1.95,0.75 L 16,10.25 q 0.35,0.45 0.95,0.45 1.35,0 1.95,-0.75 l 0.3,-0.75 0.15,0.1 0.15,0.05 0.6,0.15 q 0.9,0 1.6,-0.95 l 0.5,-1 v -0.4 q 1.1,-0.05 2.15,-2.1 l 0.8,-2.1 -0.3,-1.25 q 0.4,-0.35 0.7,-0.35 0.35,0 0.55,0.3 l 0.25,0.6 q 0.1,0.9 0.55,0.9 0.35,0 0.5,-0.2 L 28,2.55 q 0.4,-0.4 1.25,-0.4 l 0.5,0.1 0.35,0.8 M 20.85,5.5 21.3,6.4 q 0,1 -1,1.6 -0.55,0.35 -0.8,0.65 L 19.1,7.9 19.05,7.65 V 7.45 7.35 L 19.35,7.2 V 6.3 Q 19.6,5.4 20.5,5.4 l 0.35,0.1 m -7.4,1.75 0.15,-0.3 0.25,-0.5 Q 14.15,5.9 15,5.9 l 0.4,0.45 q 0,0.85 0.45,1.1 L 15.7,8.95 15.75,9.1 15.7,9.3 15.6,9.45 Q 15.4,9.8 15.1,9.8 14.55,9.8 14.05,9.4 13.5,8.95 13.5,8.25 l -0.05,-1 M 11.15,5.5 11.5,5.4 q 0.9,0 1.15,0.9 v 0.9 l 0.3,0.15 v 0.1 0.2 L 12.9,7.9 12.5,8.65 11.7,8 q -1,-0.6 -1,-1.6 l 0.45,-0.9 m 7.25,1.45 0.15,0.3 -0.05,1 q 0,0.7 -0.55,1.15 -0.5,0.4 -1.05,0.4 -0.35,0 -0.5,-0.35 L 16.3,9.3 V 9.2 L 16.4,8.95 16.45,8.35 16.4,7.2 16.55,6.35 17,5.9 q 0.85,0 1.15,0.55 l 0.25,0.5"
         fill="#e5e5e5"
         fill-rule="evenodd"
         stroke="none"
         id="path14" />
      <path
         d="m 31.75,2.1 q -0.5,-1.8 -1.95,-1.8 -1.5,0 -2.05,0.35 l -0.5,0.4 Q 26.85,0.1 25.55,0 23.65,-0.15 23.65,1.6 L 23.95,2.95 22.75,4.8 22,5.85 V 5.8 Q 21.65,4.55 20.9,4.5 L 20.85,4.55 19.95,4.6 Q 19.1,4.8 18.7,5.3 18.25,4.8 17.3,4.65 L 16,4.85 14.7,4.65 Q 13.75,4.8 13.3,5.3 L 12.05,4.6 11.15,4.55 11.1,4.5 Q 10.35,4.55 10,5.8 V 5.85 L 9.25,4.8 8.05,2.95 8.3,1.6 Q 8.3,-0.15 6.45,0 5.15,0.1 4.75,1.05 L 4.25,0.65 2.2,0.3 Q 0.75,0.3 0.25,2.1 L 0,3.9 q 0,1.15 0.8,2 1.25,1.25 4.15,1.4 l 2.55,3.15 0.8,0.95 0.65,0.5 q 1.25,1.7 4.1,1.8 l 2.85,0.45 2.3,-0.45 h 0.35 q 3.15,0 4.5,-1.8 l 0.65,-0.5 0.8,-0.95 2.55,-3.15 q 2.9,-0.15 4.1,-1.4 0.8,-0.85 0.8,-2 z"
         fill="none"
         stroke="#9a9a9a"
         stroke-linecap="round"
         stroke-linejoin="round"
         stroke-width="1.5"
         id="path15" />
    </g>
    <g
       id="sprite3"
       transform="translate(5.4,4)">
      <use
         ffdec:characterId="43"
         height="8"
         transform="translate(-5.4,-4)"
         width="10.8"
         xlink:href="#shape3"
         id="use15" />
    </g>
    <g
       id="shape3"
       transform="translate(5.4,4)">
      <path
         d="m 2.9,-0.35 q 0,-1.25 1.25,-1.25 1.25,0 1.25,1.2 0,1.3 -1.25,1.3 Q 3.6,0.9 3.25,0.5 2.9,0.15 2.9,-0.35 m 0.35,-2.3 q 0,0.55 -0.35,0.9 -0.4,0.45 -1,0.45 -1.35,0 -1.35,-1.4 0,-1.3 1.35,-1.3 1.35,0 1.35,1.35 m -3.1,1.9 h 0.2 q 2.6,0.1 2.6,2.8 l -0.3,1 Q 2.05,4 0.45,4 H 0.35 0.15 0.1 -0.45 q -1.6,0 -2.2,-0.95 l -0.3,-1 q 0,-2.8 2.8,-2.8 h 0.3 M -1.55,-4 q 1.35,0 1.35,1.35 0,0.55 -0.4,0.9 -0.4,0.45 -0.95,0.45 -1.4,0 -1.4,-1.4 0,-1.3 1.4,-1.3 m -2.6,2.4 q 1.25,0 1.25,1.25 0,0.5 -0.35,0.85 -0.35,0.4 -0.9,0.4 -1.25,0 -1.25,-1.3 0,-1.2 1.25,-1.2"
         fill="#9a9a9a"
         fill-rule="evenodd"
         stroke="none"
         id="path16" />
    </g>
    <g
       id="shape4"
       transform="translate(28.15,56)">
      <path
         d="m 1.75,-54.05 h -1.3 l -0.05,0.6 -0.1,0.75 h 0.2 l 1.45,0.2 -0.2,-1.45 v -0.1 M 6.2,-56 v 1.65 L 4.15,-54 Q 4,-51.25 3.4,-50.55 H 3.75 L 3.5,-50.5 H 3.4 l -0.15,0.1 -0.1,0.2 H 2.75 L 2.6,-50.4 q -0.1,0 -0.25,0.2 H 2.3 l 0.05,1.8 v 0.15 0.8 H 2.8 v 0.15 l 0.2,0.1 q 1.15,-0.05 1.15,1.3 0.15,5.9 -0.75,7 H 3.75 L 3.5,-38.85 H 3.4 l -0.15,0.1 -0.1,0.2 h -0.4 l -0.15,-0.2 q -0.1,0 -0.25,0.2 H 2.3 l 0.05,0.6 V -37 H 2.8 v 0.15 l 0.2,0.1 q 1.15,-0.05 1.15,1.3 0.15,5.9 -0.75,7 H 3.75 L 3.5,-28.4 H 3.4 l -0.15,0.1 -0.1,0.2 H 2.75 L 2.6,-28.3 q -0.1,0 -0.25,0.2 H 2.3 l 0.05,2.55 v 1 H 2.6 v 0.1 l 0.2,0.1 q 1.15,-0.05 1.15,1.3 0.15,5.9 -0.75,7 H 3.55 L 3.3,-16 H 3.2 l -0.25,0.15 H 2.55 L 2.4,-15.9 2.15,-15.85 H 2.1 l 0.1,1.5 v 0.5 q 2.25,0.7 2.25,3.2 L 4.4,-9.5 h 3.05 q 0.7,-0.05 1.1,0.65 L 8.8,-8.1 8.75,-7.75 h 13.9 q 0.95,-0.3 1.6,0.45 l 0.35,0.55 q 0.7,0.7 0.7,1.8 v 0.6 0.5 l -0.05,0.15 v 0.3 l -0.05,0.25 -0.25,1.95 h 0.1 L 25,0.35 v 0.4 L 25.05,1.8 H 25 l -0.05,8.25 0.4,0.25 q 0.45,0.45 0.45,1.45 0,0.55 -0.55,0.75 l -0.3,0.1 v 18.95 0.7 q 1.05,0.3 1.05,1.3 0.1,0.45 -0.15,0.8 L 25,34.9 l 0.2,4.85 -0.25,3.45 1.55,0.2 0.3,-0.05 q 1.35,0.05 1.35,4.15 v 1.8 Q 27.95,51 26.8,51 l -0.55,-0.1 q -1,0.2 -2.65,0 h -47.2 q -1.65,0.2 -2.65,0 L -26.8,51 q -1.15,0 -1.35,-1.7 v -1.8 q 0,-4.1 1.35,-4.15 l 0.3,0.05 1.55,-0.2 -0.25,-3.45 0.2,-4.85 -0.85,-0.55 Q -26.1,34 -26,33.55 q 0,-1 1.05,-1.3 V 31.55 12.6 l -0.3,-0.1 q -0.55,-0.2 -0.55,-0.75 0,-1 0.45,-1.45 l 0.4,-0.25 L -25,0.35 V -1.2 h 0.05 l -0.25,-1.95 -0.05,-0.25 v -0.3 l -0.05,-0.15 v -0.5 -0.6 q 0,-1.1 0.7,-1.8 l 0.35,-0.55 q 0.65,-0.75 1.6,-0.45 h 13.5 L -9.3,-8.3 q 0,-0.65 0.45,-1 l 1.65,-0.2 h 3.95 l -0.1,-0.6 q 0,-3.5 2.75,-3.95 v -0.3 l 0.15,-1.5 H -1.3 l -0.4,-0.4 q -0.45,-0.3 -0.6,-1.35 v -1.4 -0.55 l 0.05,-1.6 q 0,-2.65 0.6,-3.4 h 1.3 l 0.05,-1 0.05,-2.55 H -1.1 l -0.05,-0.2 -0.35,-0.35 q -0.45,-0.3 -0.6,-1.35 v -1.4 -0.55 l 0.05,-1.6 q 0,-2.75 0.65,-3.45 h 1.1 v -0.95 h 0.05 v -0.6 H -1.1 l -0.05,-0.2 -0.35,-0.35 q -0.45,-0.3 -0.6,-1.35 v -1.4 -0.55 l 0.05,-1.6 q 0,-2.75 0.65,-3.45 h 1.1 v -0.8 -0.15 l 0.05,-1.8 H -1.1 l -0.05,-0.2 -0.35,-0.35 q -0.45,-0.3 -0.6,-1.35 v -1.4 -0.55 h -0.95 l -1.1,-0.2 q -0.7,-0.9 -0.3,-1.75 H 6.2 m -5.8,10.9 v 1.15 2.15 l -0.1,0.75 h 0.2 l 1.45,0.2 -0.2,-1.45 -0.1,-2.85 -1.25,0.05 m 0,10.45 v 1.15 2.15 l -0.1,0.75 h 0.2 l 1.45,0.2 -0.2,-1.45 -0.1,-2.85 -1.25,0.05 m -0.2,12.4 v 1.15 2.15 l -0.1,0.75 h 0.2 l 1.45,0.2 -0.2,-1.45 -0.1,-2.85 -1.25,0.05 m 0.6,11.85 q -0.8,0 -1.15,-0.8 -0.4,0.25 -0.4,1.1 0,0.35 0.8,0.6 H 1.8 L 1.9,-9.95 1.65,-10.7 q -0.35,0.3 -0.85,0.3 m 1,7 -0.4,3.3 V 3.5 8 9.8 h 9.1 v -3 L 10.55,6.65 V 0.15 L 10.35,-2 v 0.75 l -0.2,-2.1 v -1.5 H 1.75 L 1.8,-3.4 M 10.45,18 10.5,17.85 V 12.8 l -9.1,-0.05 0.05,19.5 h 1.3 0.4 L 10.4,32.2 10.45,18 M 22.25,12.85 21.4,12.8 h -8.6 v 4.95 l 0.05,0.15 0.05,14.3 h 8.85 l 0.5,-0.05 v -0.5 -18.8 m -9.1,-17.7 0.05,1.7 -0.5,4.95 v 4.75 l 0.1,0.15 v 3.1 l 8.6,-0.05 0.85,-0.1 V -1.2 h 0.1 L 22.1,-4.55 v -0.3 h -8.95 m -38.6,52.4 v 0.5 l 1.85,0.05 24.2,0.05 H 6 l 17.6,-0.05 1.85,-0.05 v -0.5 l 0.05,-1.6 -3.05,-0.1 h -44.9 l -3.05,0.1 0.05,1.6 M 12.9,34.9 v 4.7 l -0.35,3.2 0.05,0.45 h 9.65 Q 22,42 22,39.95 l 0.15,-5 -0.4,-0.05 H 12.9 m -2.5,4.75 V 34.9 H 1.45 L 1.5,39.3 Q 1.35,41.95 1,43.25 h 9.75 L 10.7,42.7 10.4,39.65 m -32.5,-44.2 -0.2,3.35 h 0.05 V 9.65 l 0.85,0.1 8.6,0.05 V 6.7 l 0.1,-0.15 V 1.8 l -0.5,-4.95 0.05,-1.7 h -8.95 v 0.3 m 11.55,6.35 v 4.85 l 0.05,0.15 v 3 h 9.1 V 8 3.5 l 0.05,-3.65 -0.45,-3.25 0.05,-1.45 h -8.5 q 0.1,0.7 0.05,1.7 L -10.55,0.1 V 1.8 M -12.8,17.75 V 12.8 h -8.6 l -0.85,0.05 v 18.8 0.5 l 0.5,0.05 h 8.85 l 0.05,-14.3 0.05,-0.15 m 2.35,0.25 0.05,14.2 8.95,0.05 0.05,-19.5 -9.1,0.05 v 5.05 l 0.05,0.15 m -11.7,16.95 0.15,5 q 0,2.05 -0.25,3.3 h 9.65 l 0.05,-0.45 -0.35,-3.2 v -4.7 h -8.85 l -0.4,0.05 m 20.7,-0.05 h -8.95 v 4.75 l -0.3,3.05 -0.05,0.55 H -1 q -0.35,-1.3 -0.5,-3.95 l 0.05,-4.4"
         fill="#6b6b6b"
         fill-rule="evenodd"
         stroke="none"
         id="path17" />
      <path
         d="m -25.45,47.55 -0.05,-1.6 3.05,-0.1 h 44.9 l 3.05,0.1 -0.05,1.6 v 0.5 L 23.6,48.1 6,48.15 H 0.6 l -24.2,-0.05 -1.85,-0.05 v -0.5"
         fill="#777777"
         fill-rule="evenodd"
         stroke="none"
         id="path18" />
    </g>
  </defs>
</svg>
