<?xml version="1.0" encoding="UTF-8" standalone="no"?>
<svg
   ffdec:objectType="frame"
   height="61.099998"
   width="58.139023"
   version="1.1"
   id="svg16"
   sodipodi:docname="2.svg"
   xmlns:inkscape="http://www.inkscape.org/namespaces/inkscape"
   xmlns:sodipodi="http://sodipodi.sourceforge.net/DTD/sodipodi-0.dtd"
   xmlns:xlink="http://www.w3.org/1999/xlink"
   xmlns="http://www.w3.org/2000/svg"
   xmlns:svg="http://www.w3.org/2000/svg"
   xmlns:ffdec="https://www.free-decompiler.com/flash">
  <sodipodi:namedview
     id="namedview16"
     pagecolor="#ffffff"
     bordercolor="#000000"
     borderopacity="0.25"
     inkscape:showpageshadow="2"
     inkscape:pageopacity="0.0"
     inkscape:pagecheckerboard="0"
     inkscape:deskcolor="#d1d1d1"
     fit-margin-top="5"
     fit-margin-left="5"
     fit-margin-right="5"
     fit-margin-bottom="5" />
  <g
     transform="translate(29.369512,30.5)"
     id="g5">
    <use
       ffdec:characterId="2692"
       height="32.349998"
       transform="translate(-23.1,-23.4)"
       width="23.25"
       xlink:href="#shape0"
       id="use1" />
    <use
       ffdec:characterId="851"
       height="31.950001"
       transform="matrix(0.6076,0,0,0.6076,-19.9622,-11.0712)"
       width="48.099998"
       xlink:href="#sprite0"
       id="use2" />
    <use
       ffdec:characterId="1720"
       height="19.299999"
       transform="matrix(0.6076,0,0,0.6076,-18.1227,-14.8367)"
       width="11.85"
       xlink:href="#sprite1"
       id="use3" />
    <use
       ffdec:characterId="2693"
       height="61.150002"
       transform="translate(-29.35,-30.55)"
       width="58.099998"
       xlink:href="#shape4"
       id="use4" />
    <use
       ffdec:characterId="44"
       height="8"
       transform="matrix(-1,0,0,1,12.35,6.8)"
       width="10.8"
       xlink:href="#sprite2"
       id="use5" />
  </g>
  <defs
     id="defs16">
    <g
       id="shape0"
       transform="translate(23.1,23.4)">
      <path
         d="M -22.1,-22.4 H -0.85 V 7.95 H -22.1 V -22.4"
         fill="#7b7b7b"
         fill-rule="evenodd"
         stroke="none"
         id="path5" />
      <path
         d="M -22.1,-22.4 V 7.95 H -0.85 V -22.4 Z"
         fill="none"
         stroke="#6b6b6b"
         stroke-linecap="round"
         stroke-linejoin="round"
         stroke-width="2"
         id="path6" />
    </g>
    <g
       id="sprite0"
       transform="translate(24.05,16)">
      <use
         ffdec:characterId="839"
         height="13.1"
         transform="translate(-19.8,-14)"
         width="9.75"
         xlink:href="#shape1"
         id="use6" />
      <use
         ffdec:characterId="840"
         height="31.950001"
         transform="translate(-24.05,-16)"
         width="48.099998"
         xlink:href="#shape2"
         id="use7" />
    </g>
    <g
       id="shape1"
       transform="translate(19.8,14)">
      <path
         d="m -12.05,-10.1 -2.35,3.2 q -3,6 -4.35,6 -1.05,0 -1.05,-1.35 0,-1.15 4.9,-7.35 4.85,-6.2 4.85,-3.65 0,0.4 -2,3.15"
         fill="#ffffff"
         fill-rule="evenodd"
         stroke="none"
         id="path7" />
    </g>
    <g
       id="shape2"
       transform="translate(24.05,16)">
      <path
         d="m 14.75,-12.9 -0.1,-0.2 -0.7,1.1 -5.05,7.1 h 2.5 9.2 q -1.2,-1.2 -2.95,-3.65 l -2.1,-3.05 -0.8,-1.3 m -13.2,27.7 -1.45,1 v 0.15 L 0,15.9 -0.1,15.95 v -0.1 q -3.1,-2.1 -12.05,-9.6 l -11.35,-9.6 -0.55,-0.6 0.15,-0.65 -0.05,-0.55 q 2.4,-4.05 4.8,-7.1 l 2.45,-2.7 0.4,-0.35 0.15,-0.05 q 0.7,-0.5 1.1,-0.3 l 2.85,-0.25 7.55,-0.1 4.55,0.1 h 0.2 l 4.55,-0.1 7.55,0.1 2.85,0.25 q 0.4,-0.2 1.1,0.3 l 0.15,0.05 0.4,0.35 2.45,2.7 q 2.35,2.95 4.65,6.85 l 0.15,0.25 -0.05,0.55 0.15,0.65 -0.55,0.6 -11.35,9.6 -10.2,8.25 -0.4,0.3 m 11.2,-26.95 0.95,-1.25 h -1.5 l -9.25,0.1 -2.75,-0.15 0.85,0.8 0.4,0.4 0.05,0.05 2.95,3.35 2.75,3.95 h 0.2 l 5.35,-7.25 M -2.95,-4.9 H 6.3 q -1.45,-1.4 -4,-4.4 l -1.45,-1.75 -0.8,-1 L 0,-12.1 -0.05,-12 -2.3,-9.3 -4.25,-7.05 -6.3,-4.9 h 0.75 2.6 M 7.9,-3.4 H 7.6 L 7.4,-2.85 4.5,3.65 0.9,11.6 0.55,12.3 0.6,12.6 1,12.3 4.8,9.15 12.05,3.35 q 5.95,-4.7 9,-6.7 L 21.1,-3.4 H 9.55 7.9 M 0.4,9.75 2.65,4.65 q 2.3,-5.1 3.75,-8.05 h -11 -1.5 -0.3 l 0.2,0.45 3.55,7.6 2.65,6.1 0.4,-1 M -20.25,-3.4 h -0.85 l 0.05,0.05 1.85,1.3 7.15,5.4 q 8,6.3 11.45,9.3 l 0.05,-0.2 v -0.1 L -2.75,7.4 -4.5,3.65 Q -7.25,-2.2 -7.6,-3.4 h -6.05 -0.9 -2.85 -2.85 m 18.8,-8.85 1.25,-1.15 v -0.05 l -1.1,0.1 -1.65,0.05 -9.25,-0.1 -0.55,0.05 -0.95,-0.05 0.9,1.15 0.3,0.4 0.2,0.25 4.9,6.7 h 0.2 l 2.75,-3.95 3,-3.4 m -11.65,1.45 -0.7,-1 -0.3,-0.5 -0.55,-0.8 -0.15,0.3 -2.3,3.5 -0.55,0.75 -1.8,2.35 -0.45,0.6 -0.7,0.7 h 0.6 2.2 3.2 0.85 4.85 l -2.7,-3.65 -0.25,-0.35 -0.35,-0.6 -0.3,-0.4 -0.6,-0.9"
         fill="#6b6b6b"
         fill-rule="evenodd"
         stroke="none"
         id="path8" />
      <path
         d="m 14.75,-12.9 0.8,1.3 -2.25,3.75 -1.9,2.95 H 8.9 l 5.05,-7.1 0.8,-0.9 M 1.95,14.5 1.9,14.6 1.55,14.8 1.95,14.5 m -0.45,-26.7 -0.05,-0.05 -0.4,-0.4 -0.85,-0.8 2.75,0.15 9.25,-0.1 h 1.5 l -0.95,1.25 H 2.2 L 1.5,-12.2 m -4.45,7.3 h -2.6 l 1.3,-2.15 1.95,-2.25 2.25,-2.7 0.1,-0.05 0.8,1 q -2.4,4.4 -3.8,6.15 M 7.9,-3.4 H 9.55 Q 6.75,4.7 4.8,9.15 L 1,12.3 0.6,12.6 0.55,12.3 0.9,11.6 4.5,3.65 7.4,-2.85 7.9,-3.4 m -12.5,0 2.6,6.45 2.4,6.7 -0.4,1 -2.65,-6.1 -3.55,-7.6 0.1,-0.45 h 1.5 m -15.65,0 h 2.85 l 1.05,0.9 6.1,6.2 6.25,4.9 2.1,2 q -2.3,-3 -7.25,-8.3 l -5.4,-5.7 h 0.9 q 3.65,3.1 6.8,6.65 4.05,4.6 5.7,8.2 l 0.3,0.45 -1.9,-4.5 2.2,4.95 v 0.1 l -0.05,0.2 q -3.45,-3 -11.45,-9.3 l -7.15,-5.4 -1.05,-1.35 m 7.45,-8.85 -0.9,-1.15 0.95,0.05 0.55,-0.05 9.25,0.1 1.65,-0.05 1.1,-0.1 v 0.05 l -1.25,1.15 H -12.8 m -7.1,6.65 0.45,-0.6 1.8,-2.35 0.55,-0.75 2.3,-3.5 0.15,-0.3 0.55,0.8 0.3,0.5 0.7,1 -2.05,2.65 -2.65,3.25 H -20 l -0.05,-0.25 0.15,-0.45 m 7.7,-3.9 0.35,0.6 0.25,0.35 -0.7,1.45 q -0.75,1.45 -1.45,2.2 h -0.85 v -0.15 q 0,-0.65 1.25,-2.7 l 1.15,-1.75"
         fill="#ffffff"
         fill-rule="evenodd"
         stroke="none"
         id="path9" />
    </g>
    <g
       id="sprite1"
       transform="translate(3,2.2)">
      <use
         ffdec:characterId="1717"
         height="13"
         width="7.4000001"
         xlink:href="#shape3"
         id="use9" />
    </g>
    <g
       id="shape3">
      <path
         d="M 4.05,5.45 Q 5.75,4.2 6.4,4.25 L 4.5,6.3 7.4,12.3 7.3,12.8 7.35,12.9 7,13 Q 6.05,13 3.2,7.55 L 0.8,9.45 0.5,9.4 0.4,9.1 Q 0.4,8.4 2.65,6.55 L 0,1.05 q 0,-2.7 2.4,1.4 l 1.65,3"
         fill="#ffffff"
         fill-rule="evenodd"
         stroke="none"
         id="path10" />
    </g>
    <g
       id="shape4"
       transform="translate(29.35,30.55)">
      <path
         d="m -24.65,-25.1 0.05,-0.35 H 24 v 0.4 l 0.05,0.4 q -0.25,4.05 -0.2,6.1 V 13.9 l 0.1,3.75 -0.05,0.9 0.1,0.35 -0.35,0.6 Q 23.4,20 22.95,20 L 22.7,19.8 20.15,19.9 H 1.85 -0.3 -2.45 -20.75 l -2.55,-0.1 -0.25,0.2 q -0.45,0 -0.7,-0.5 l -0.35,-0.6 0.1,-0.35 -0.05,-0.9 0.05,-1.95 h -0.45 v -0.45 l -0.05,0.05 -0.3,0.1 -0.2,-0.1 -0.15,-0.2 -0.5,-0.45 -0.05,-0.4 0.2,-0.55 -0.05,-0.3 -0.2,-2.35 -0.05,-4.15 q 0,-4.4 0.8,-4.2 l 0.65,-0.25 0.05,-0.35 h 0.35 V -9.5 h -0.7 v -0.45 l -0.05,0.05 -0.3,0.1 -0.2,-0.1 -0.15,-0.2 -0.5,-0.45 -0.05,-0.4 0.2,-0.55 -0.05,-0.3 -0.2,-2.35 -0.05,-4.15 q 0,-4.4 0.8,-4.2 l 0.65,-0.25 0.05,-0.35 h 0.4 v -0.2 -0.45 l -0.05,-0.9 v -0.45 m 47.25,-1.55 q 0.5,-0.6 0.7,0 h -0.7 m 3.4,1.55 v -0.3 l -0.7,-2 h -51.2 l -0.7,2 v 0.3 l 0.05,44.75 q -0.25,0.95 0.1,1.55 l 0.4,0.5 h 51.5 l 0.4,-0.5 q 0.35,-0.6 0.1,-1.55 L 26,-25.1 m -54.75,-4.15 1.1,-1.05 0.8,-0.2 h 53.1 l 0.8,0.2 1.1,1.05 0.6,0.95 v 49.8 q 0.2,2.5 -1.65,3.05 l 0.25,1.25 v 2.3 l -0.25,1.25 q -0.4,0.45 -1.25,0.75 l -1,0.45 -6.35,0.05 -0.85,-0.25 Q 16.3,30.1 15.6,28.6 l -0.7,-2.05 -1.15,-0.9 -3.8,-0.95 h -20.5 l -3.8,0.95 -1.15,0.9 -0.7,2.05 q -0.7,1.5 -2.05,1.75 l -0.85,0.25 -6.35,-0.05 -1,-0.45 q -0.85,-0.3 -1.25,-0.75 l -0.25,-1.25 v -2.3 l 0.25,-1.25 Q -29.55,24 -29.35,21.5 v -49.8 l 0.6,-0.95 M 12.1,-8.55 12.05,-8.9 11.9,-9.3 q -0.45,-1.35 -1.45,-2.3 -1.6,-1.5 -4.05,-1.55 -1.65,-0.05 -2.95,0.6 l -1.1,0.65 -0.7,0.65 q -1.15,1.2 -1.15,3 0,1.85 0.8,3.3 1.5,2.9 5.5,2.9 3.35,0 4.65,-1.65 l 0.2,-0.25 q 0.65,-1 0.65,-2.9 L 12.25,-7.7 12.1,-8.55 m -7.3,-2.65 0.7,-0.25 0.95,-0.1 2,0.4 q 1.3,0.65 1.7,2.4 l 0.2,1.8 -0.55,1.5 -0.55,0.65 Q 8.3,-4 6.65,-4 4.25,-4 3.2,-5.65 q -0.65,-1 -0.65,-2.25 0,-1.6 1.2,-2.65 L 4.8,-11.2 M 8.75,-7.5 8.8,-8 q 0,-2.25 -2.25,-1.85 -0.85,0.15 -1.4,0.5 -0.8,0.45 -0.8,1.4 0,0.8 1.25,2.05 l 1.95,0.05 q 0.9,-0.5 1.1,-1.35 l 0.1,-0.3 m -9.4,4.35 Q -2,-5.4 -2,-7.9 q 0,-7.25 6.7,-7.4 6.7,-0.25 9,4 1.15,2.05 1.15,5.8 0,1.9 -1.1,3.4 -2.05,2.7 -7.05,2.7 -5.1,0 -7.35,-3.75 m 22.7,-18.9 0.3,-2.15 h -45.3 l 0.05,0.45 0.1,0.45 v 0.2 l 0.05,0.35 0.65,0.25 q 0.3,-0.1 0.45,0.45 0.35,0.95 0.35,3.75 l -0.05,4.15 -0.2,2.35 -0.05,0.3 0.2,0.55 -0.1,0.4 q -0.1,0.3 -0.45,0.45 l -0.15,0.2 -0.2,0.1 -0.3,-0.1 -0.05,-0.05 0.05,9.65 0.05,2.6 v 0.15 l 0.65,0.25 q 0.8,-0.2 0.8,4.2 l -0.05,4.15 -0.2,2.35 -0.05,0.3 q 0.2,0.2 0.2,0.55 l -0.1,0.4 -0.45,0.45 -0.15,0.2 -0.2,0.1 -0.3,-0.1 -0.05,-0.05 v 1.3 h -0.3 l -0.15,1.55 2.15,-0.1 h 18.3 L -0.3,18.1 1.85,18 h 18.3 l 2.15,0.1 Q 21.75,13.75 22,-0.3 l 0.05,-20.4 v -1.35 M 17.85,6.4 18.3,5.95 18.65,5.3 q 0,-0.8 -0.55,-1 L 17.7,4.15 H 17.2 L 16.9,4.2 16,4.45 q -0.85,0.35 -0.85,1 0,0.45 0.55,1.25 h 1.8 l 0.35,-0.3 m 1.2,2 -0.25,0.1 0.15,0.6 0.55,4.85 -0.15,0.6 q -0.4,0.6 -1.7,0.6 -3.2,0 -3.95,-0.85 -0.2,-0.25 -0.2,-1.5 0,-0.85 0.5,-4 L 14.3,8.2 13.6,7.35 Q 13.05,6.4 13.05,5.3 13.05,2.2 16.75,2 20.5,1.85 20.5,6.2 l -0.55,1.4 -0.9,0.8 m -2,1.75 L 17,9.35 16.95,8.9 H 16.7 16.25 l -0.05,0.55 -0.5,3.25 1.55,0.05 -0.2,-2.6 m 7,17.65 0.15,-1.9 0.2,-1.2 h -6.75 q 1.2,1.6 1.5,2.95 l 4.9,0.15 M -17.6,15.7 -18.1,15.5 V 7.6 H 0.3 v 7.9 l -0.5,0.2 h -17.4 m -7,-35 0.1,2.55 q 0.1,2.8 -0.05,4.5 l 0.3,-0.05 h 0.1 0.25 0.15 0.1 l 0.4,0.05 -0.05,-4.5 0.1,-2.6 0.2,-1.55 -0.85,0.05 h -0.1 l -0.85,-0.05 0.2,1.6 m 6.85,0.15 0.15,-0.1 10.2,-0.05 2.7,0.05 q 0.5,0.15 0.5,0.7 0,0.7 -0.4,0.9 0.4,2.2 0.55,6.6 v 7.15 4.05 q -0.2,4 -1.05,4 L -5.65,3.8 -7.4,3.85 h -9.95 q -1.2,-0.05 -1.2,-1.1 v -0.2 q -0.35,-0.5 -0.4,-2 V -2.9 -17.65 l -0.1,-0.4 q 0.2,-1.2 1.3,-1.1 m 1.1,1.45 v 0.05 l -0.15,0.05 v 14.75 l 0.15,3.05 -0.2,1.35 h 9.45 l 1.25,0.15 v -5.5 l 0.05,-8.55 q 0.1,-3.45 0.4,-5.2 L -16.65,-17.7 M -17,12.2 q -0.05,1.2 -0.25,1.95 h 16.7 L -0.8,12.2 V 9.45 L -0.75,8.7 h -0.9 -14.5 -0.9 L -17,9.45 v 2.75 m -6,-6.4 0.2,-1.5 -0.85,0.05 h -0.1 l -0.85,-0.05 0.2,1.55 0.1,2.6 q 0.1,2.8 -0.05,4.5 l 0.3,-0.05 h 0.1 0.25 0.15 0.1 l 0.4,0.05 -0.05,-4.5 0.1,-2.65 m -3.5,-4.35 h 0.1 v 15.1 h -0.1 V 1.45 m 1.85,26.35 4.9,-0.15 q 0.3,-1.35 1.5,-2.95 H -25 l 0.2,1.2 0.15,1.9"
         fill="#6b6b6b"
         fill-rule="evenodd"
         stroke="none"
         id="path11" />
      <path
         d="m 3.45,-12.55 q 1.3,-0.65 2.95,-0.6 2.45,0.05 4.05,1.55 1,0.95 1.45,2.3 l 0.15,0.4 0.05,0.35 -0.15,0.05 -0.35,0.05 -1.45,-0.3 q -0.4,-1.75 -1.7,-2.4 l -2,-0.4 -0.95,0.1 -0.7,0.25 q -0.35,-0.15 -0.55,-0.25 -0.6,-0.3 -0.75,-0.8 l -0.05,-0.3 m 1.7,3.2 Q 5.7,-9.7 6.55,-9.85 8.8,-10.25 8.8,-8 L 8.75,-7.5 Q 8.4,-7.2 7.7,-7.2 6.6,-7.2 5.8,-8.1 5.15,-8.8 5.15,-9.35 M 16,4.45 16.9,4.2 17.2,4.15 h 0.5 l 0.4,0.15 q 0.55,0.2 0.55,1 L 18.3,5.95 17.85,6.4 17.45,6.45 Q 16.7,6.45 16.3,5.85 15.95,5.4 15.95,4.95 L 16,4.45 m 0.2,5 0.05,-0.55 h 0.45 0.25 L 17,9.35 17.05,10.15 16.45,9.8 16.2,9.45"
         fill="#c9c9c9"
         fill-rule="evenodd"
         stroke="none"
         id="path12" />
      <path
         d="m 12.1,-8.55 0.15,0.85 0.05,0.85 q 0,1.9 -0.65,2.9 l -0.2,0.25 q -1.3,1.65 -4.65,1.65 -4,0 -5.5,-2.9 -0.8,-1.45 -0.8,-3.3 0,-1.8 1.15,-3 l 0.7,-0.65 1.1,-0.65 0.05,0.3 q 0.15,0.5 0.75,0.8 0.2,0.1 0.55,0.25 l -1.05,0.65 q -1.2,1.05 -1.2,2.65 0,1.25 0.65,2.25 Q 4.25,-4 6.65,-4 8.3,-4 9.25,-4.8 l 0.55,-0.65 0.55,-1.5 -0.2,-1.8 1.45,0.3 0.35,-0.05 0.15,-0.05 m -3.35,1.05 -0.1,0.3 q -0.2,0.85 -1.1,1.35 L 5.6,-5.9 q -1.25,-1.25 -1.25,-2.05 0,-0.95 0.8,-1.4 0,0.55 0.65,1.25 0.8,0.9 1.9,0.9 0.7,0 1.05,-0.3 m 9.1,13.9 -0.35,0.3 h -1.8 q -0.55,-0.8 -0.55,-1.25 0,-0.65 0.85,-1 l -0.05,0.5 q 0,0.45 0.35,0.9 0.4,0.6 1.15,0.6 l 0.4,-0.05 m -0.8,3.75 0.2,2.6 -1.55,-0.05 0.5,-3.25 0.25,0.35 0.6,0.35"
         fill="#afafaf"
         fill-rule="evenodd"
         stroke="none"
         id="path13" />
      <path
         d="m -24.65,-25.1 v 0.45 l 0.05,0.9 v 0.45 0.2 H -25 l -0.05,0.35 -0.65,0.25 q -0.8,-0.2 -0.8,4.2 l 0.05,4.15 0.2,2.35 0.05,0.3 -0.2,0.55 0.05,0.4 0.5,0.45 0.15,0.2 0.2,0.1 0.3,-0.1 0.05,-0.05 v 0.45 h 0.7 V 2.1 h -0.35 l -0.05,0.35 -0.65,0.25 q -0.8,-0.2 -0.8,4.2 l 0.05,4.15 0.2,2.35 0.05,0.3 -0.2,0.55 0.05,0.4 0.5,0.45 0.15,0.2 0.2,0.1 0.3,-0.1 0.05,-0.05 v 0.45 h 0.45 l -0.05,1.95 0.05,0.9 -0.1,0.35 0.35,0.6 q 0.25,0.5 0.7,0.5 l 0.25,-0.2 2.55,0.1 h 18.3 2.15 2.15 18.3 l 2.55,-0.1 0.25,0.2 q 0.45,0 0.7,-0.5 l 0.35,-0.6 -0.1,-0.35 0.05,-0.9 -0.1,-3.75 v -32.45 q -0.05,-2.05 0.2,-6.1 L 24,-25.05 25.2,-25 26,-25.1 25.95,19.65 q 0.25,0.95 -0.1,1.55 l -0.4,0.5 h -51.5 l -0.4,-0.5 q -0.35,-0.6 -0.1,-1.55 L -26.6,-25.1 h 1.95 m 24,21.95 Q 1.6,0.6 6.7,0.6 q 5,0 7.05,-2.7 1.1,-1.5 1.1,-3.4 0,-3.75 -1.15,-5.8 -2.3,-4.25 -9,-4 -6.7,0.15 -6.7,7.4 0,2.5 1.35,4.75 m 22.7,-18.9 v 1.35 L 22,-0.3 q -0.25,14.05 0.3,18.4 L 20.15,18 H 1.85 L -0.3,18.1 -2.45,18 h -18.3 l -2.15,0.1 0.15,-1.55 h 0.3 v -1.3 l 0.05,0.05 0.3,0.1 0.2,-0.1 0.15,-0.2 0.45,-0.45 0.1,-0.4 q 0,-0.35 -0.2,-0.55 l 0.05,-0.3 0.2,-2.35 0.05,-4.15 q 0,-4.4 -0.8,-4.2 L -22.55,2.45 V 2.3 l -0.05,-2.6 -0.05,-9.65 0.05,0.05 0.3,0.1 0.2,-0.1 0.15,-0.2 q 0.35,-0.15 0.45,-0.45 l 0.1,-0.4 -0.2,-0.55 0.05,-0.3 0.2,-2.35 0.05,-4.15 q 0,-2.8 -0.35,-3.75 l 41.7,-0.05 2,0.05 m -3,30.45 0.9,-0.8 0.55,-1.4 q 0,-4.35 -3.75,-4.2 -3.7,0.2 -3.7,3.3 0,1.1 0.55,2.05 L 14.3,8.2 14,8.8 q -0.5,3.15 -0.5,4 0,1.25 0.2,1.5 0.75,0.85 3.95,0.85 1.3,0 1.7,-0.6 L 19.5,13.95 18.95,9.1 18.8,8.5 19.05,8.4 M -17.6,15.7 H -0.2 L 0.3,15.5 V 7.6 h -18.4 v 7.9 l 0.5,0.2 m 41.65,12.1 -4.9,-0.15 q -0.3,-1.35 -1.5,-2.95 h 6.75 l -0.2,1.2 -0.15,1.9 m -48.65,-47.1 0.8,0.05 0.6,-0.1 -0.1,2.6 0.05,4.5 -0.4,-0.05 h -0.1 -0.15 -0.25 -0.1 l -0.3,0.05 q 0.15,-1.7 0.05,-4.5 l -0.1,-2.55 m 6.85,0.15 q -1.1,-0.1 -1.3,1.1 l 0.1,0.4 V -2.9 0.55 q 0.05,1.5 0.4,2 v 0.2 q 0,1.05 1.2,1.1 H -7.4 L -5.65,3.8 -5.1,4.15 q 0.85,0 1.05,-4 v -4.05 -7.15 q -0.15,-4.4 -0.55,-6.6 0.4,-0.2 0.4,-0.9 0,-0.55 -0.5,-0.7 l -2.7,-0.05 -10.2,0.05 -0.15,0.1 m -6.65,25 0.75,0.05 0.65,-0.1 -0.1,2.65 0.05,4.5 -0.4,-0.05 h -0.1 -0.15 -0.25 -0.1 l -0.3,0.05 q 0.15,-1.7 0.05,-4.5 l -0.1,-2.6 m -2.1,-4.4 v 15.1 h 0.1 V 1.45 h -0.1 m 1.85,26.35 -0.15,-1.9 -0.2,-1.2 h 6.75 q -1.2,1.6 -1.5,2.95 l -4.9,0.15"
         fill="#7b7f87"
         fill-rule="evenodd"
         stroke="none"
         id="path14" />
      <path
         d="m 22.6,-26.65 h 0.7 q -0.2,-0.6 -0.7,0 m 1.4,1.6 v -0.4 h -48.6 l -0.05,0.35 h -1.95 v -0.3 l 0.7,-2 h 51.2 l 0.7,2 v 0.3 L 25.2,-25 24,-25.05 m -45.65,3 q -0.15,-0.55 -0.45,-0.45 l -0.65,-0.25 -0.05,-0.35 v -0.2 l -0.1,-0.45 -0.05,-0.45 h 45.3 l -0.3,2.15 -2,-0.05 -41.7,0.05 m -1.55,2.7 -0.6,0.1 -0.8,-0.05 -0.2,-1.6 0.85,0.05 h 0.1 l 0.85,-0.05 -0.2,1.55 M -17,12.2 V 9.45 L -17.05,8.7 h 0.9 14.5 0.9 L -0.8,9.45 v 2.75 l 0.25,1.95 h -16.7 q 0.2,-0.75 0.25,-1.95 m -6,-6.4 -0.65,0.1 -0.75,-0.05 -0.2,-1.55 0.85,0.05 h 0.1 L -22.8,4.3 -23,5.8"
         fill="#8a8e98"
         fill-rule="evenodd"
         stroke="none"
         id="path15" />
    </g>
    <g
       id="sprite2"
       transform="translate(5.4,4)">
      <use
         ffdec:characterId="43"
         height="8"
         transform="translate(-5.4,-4)"
         width="10.8"
         xlink:href="#shape5"
         id="use15" />
    </g>
    <g
       id="shape5"
       transform="translate(5.4,4)">
      <path
         d="m 2.9,-0.35 q 0,-1.25 1.25,-1.25 1.25,0 1.25,1.2 0,1.3 -1.25,1.3 Q 3.6,0.9 3.25,0.5 2.9,0.15 2.9,-0.35 m 0.35,-2.3 q 0,0.55 -0.35,0.9 -0.4,0.45 -1,0.45 -1.35,0 -1.35,-1.4 0,-1.3 1.35,-1.3 1.35,0 1.35,1.35 m -3.1,1.9 h 0.2 q 2.6,0.1 2.6,2.8 l -0.3,1 Q 2.05,4 0.45,4 H 0.35 0.15 0.1 -0.45 q -1.6,0 -2.2,-0.95 l -0.3,-1 q 0,-2.8 2.8,-2.8 h 0.3 M -1.55,-4 q 1.35,0 1.35,1.35 0,0.55 -0.4,0.9 -0.4,0.45 -0.95,0.45 -1.4,0 -1.4,-1.4 0,-1.3 1.4,-1.3 m -2.6,2.4 q 1.25,0 1.25,1.25 0,0.5 -0.35,0.85 -0.35,0.4 -0.9,0.4 -1.25,0 -1.25,-1.3 0,-1.2 1.25,-1.2"
         fill="#6b6b6b"
         fill-rule="evenodd"
         stroke="none"
         id="path16" />
    </g>
  </defs>
</svg>
