<?xml version="1.0" encoding="UTF-8" standalone="no"?>
<svg
   ffdec:objectType="frame"
   height="62.200001"
   width="80.349998"
   version="1.1"
   id="svg5"
   sodipodi:docname="1.svg"
   xmlns:inkscape="http://www.inkscape.org/namespaces/inkscape"
   xmlns:sodipodi="http://sodipodi.sourceforge.net/DTD/sodipodi-0.dtd"
   xmlns:xlink="http://www.w3.org/1999/xlink"
   xmlns="http://www.w3.org/2000/svg"
   xmlns:svg="http://www.w3.org/2000/svg"
   xmlns:ffdec="https://www.free-decompiler.com/flash">
  <sodipodi:namedview
     id="namedview5"
     pagecolor="#ffffff"
     bordercolor="#000000"
     borderopacity="0.25"
     inkscape:showpageshadow="2"
     inkscape:pageopacity="0.0"
     inkscape:pagecheckerboard="0"
     inkscape:deskcolor="#d1d1d1"
     fit-margin-top="5"
     fit-margin-left="5"
     fit-margin-right="5"
     fit-margin-bottom="5" />
  <g
     transform="translate(40.2,25.85)"
     id="g1">
    <use
       ffdec:characterId="1222"
       height="62.200001"
       transform="translate(-40.2,-25.85)"
       width="80.349998"
       xlink:href="#shape0"
       id="use1" />
  </g>
  <defs
     id="defs5">
    <g
       id="shape0"
       transform="translate(40.2,25.85)">
      <path
         d="m 13.3,-13.35 q -0.45,-0.7 -1.55,-0.9 -1.6,-0.25 -1.8,1.05 l -0.05,0.4 q 0,1.2 1.05,1.5 h 1.85 q 0.8,-0.4 0.8,-1 l -0.3,-1.05 m 0.65,-1.15 q 0.7,1.15 0.7,2.35 L 14.5,-11 q -0.3,0.7 -1.35,1 H 10.6 Q 9.75,-10.15 9.2,-11.1 8.7,-11.95 8.7,-13 l 0.1,-1.2 q 0.3,-0.5 1.55,-1.25 2.4,-0.95 3.6,0.95 m -10.4,-2.1 q 0.6,0.25 0.35,0.6 l -0.05,0.05 0.2,1.1 -0.25,1.95 v 0.75 l -0.05,1.3 -0.2,0.75 -0.05,0.1 -0.4,0.55 -0.3,-0.2 -0.4,0.3 h -4.85 l -0.35,-0.3 -0.35,0.2 -0.35,-0.55 -0.05,-0.1 -0.25,-0.75 -0.05,-1.3 v -0.75 l -0.2,-1.95 0.15,-1.1 -0.05,-0.05 q -0.2,-0.35 0.4,-0.6 l 0.15,-0.05 3,-0.2 h 0.75 l 3.15,0.25 h 0.05 m -15.25,0.85 1.35,0.3 q 1.25,0.75 1.5,1.25 l 0.1,1.2 q 0,1.05 -0.45,1.9 -0.55,0.95 -1.4,1.1 h -0.65 -1.9 q -0.65,-0.2 -1,-0.5 l -0.35,-0.5 -0.15,-1.15 q 0,-1 0.5,-1.95 l 0.2,-0.4 q 0.7,-1.1 1.8,-1.25 h 0.45 m 0.25,7.75 h 26.4 6.5 1.05 1.15 v 0.05 H 36.5 v -1.7 l 0.05,-0.15 v -5.15 l -0.1,-1.6 -0.1,-1.75 H 3.6 L 0.35,-18.4 H 0 -0.4 l -3.2,0.1 h -32.75 l -0.1,1.55 -0.15,1.8 v 5.15 l 0.05,0.15 v 1.7 h 7.95 4.95 V -8 h 1.1 1.05 6.5 3.55 M 6.5,-14.45 q 0,1.1 -1.05,1.1 -0.55,0 -0.9,-0.45 l -0.2,-0.65 q 0,-1.05 1.1,-1.05 1.05,0 1.05,1.05 M 2.25,-14.9 v -0.75 l -2.65,0.05 v -0.05 h -1.9 l 0.05,0.75 -0.2,2.55 0.15,1.4 1.9,-0.05 h 0.75 l 1.9,0.05 0.15,-1.4 -0.15,-2.55 m -5,14.1 h 8.3 2.75 l 2.8,-0.05 3.65,0.1 h 2.95 v -0.3 L 17.65,-1.7 V -2 l 0.05,-1 v -0.05 h -35.3 -0.15 v 0.1 L -17.7,-2 v 0.1 0.85 l -0.05,0.3 h 1.35 1.65 l 3.65,-0.1 2.8,0.05 h 1.8 0.95 2.8 m 8.2,-11.5 q 0.95,0 0.95,1 v 0.35 q -0.2,0.45 -0.95,0.45 l -0.6,-0.2 q -0.35,-0.25 -0.35,-0.6 0,-1 0.95,-1 m 12.4,7.7 0.9,0.7 0.35,0.4 0.15,0.15 0.1,1.25 v 1.5 L 19,0.8 h -38 q -0.35,-0.4 -0.4,-1.4 v -1.5 l 0.1,-1.25 0.15,-0.15 0.4,-0.4 0.85,-0.7 h 35.75 m 18.2,-17.15 0.05,-1.35 q -8,-0.1 -13.6,0.15 h -45.05 q -5.55,-0.25 -13.6,-0.15 l 0.05,1.35 -0.05,0.4 v 0.5 h 72.3 l -0.05,-0.5 -0.05,-0.4 m 4.1,-0.5 v 1.6 q -0.05,1.2 -0.5,1.5 v 54.3 l -0.25,0.3 -0.55,0.9 h -6.4 V 36.3 h -4.8 v 0.05 H -27.7 V 36.3 h -4.8 v 0.05 h -6.4 l -0.55,-0.9 -0.2,-0.3 v -54.3 q -0.5,-0.3 -0.55,-1.5 v -1.6 q 0,-2.9 0.6,-3.6 h 79.2 q 0.55,0.7 0.55,3.6 m -8.5,7.75 h -1 -0.2 -0.15 l -0.15,0.05 q -0.85,0.25 -0.9,1.25 v 0.15 q 0,1.8 1.85,1.45 1.9,-0.3 1.9,-1.9 l -0.15,-0.55 -0.4,-0.3 -0.25,-0.15 h -0.55 m 0.85,-1.3 q 1.1,0.25 1.35,1 l 0.15,1.15 q 0,1.2 -0.7,2.35 -1.15,1.9 -3.6,0.9 -1.25,-0.7 -1.55,-1.25 l -0.05,-1.2 q 0,-1 0.45,-1.85 0.55,-0.95 1.4,-1.1 h 2.55 m -10.6,2.1 -0.1,0.65 q 0,1.8 1.85,1.45 1.85,-0.3 1.85,-1.9 l -0.05,-0.3 -0.75,-0.7 h -1.85 q -0.7,0.15 -0.95,0.8 m 3.15,-2.1 q 1.05,0.25 1.35,1 l 0.15,1.15 q 0,1.2 -0.7,2.35 -1.2,1.9 -3.6,0.9 -1.25,-0.7 -1.55,-1.25 l -0.1,-1.2 q 0,-1 0.5,-1.85 0.55,-0.95 1.4,-1.1 h 2.55 m 3.2,11.05 0.25,-1.6 h -4.85 v 0.05 h -47.3 v -0.05 h -4.85 l 0.05,0.1 0.05,0.3 0.1,0.9 v 0.15 l 0.05,1.5 v 2.35 L -28.3,0.1 v 0.3 0.4 1.15 h 0.05 V 2 2.9 4.15 l -0.1,4.5 v 0.55 0.75 0.6 0.5 h -0.05 v 1.35 l -0.05,6.8 h -0.05 v 1.4 0.2 0.4 0.2 0.4 1 h 57 v -1 -0.4 -0.2 -0.4 -0.2 -1.4 h -0.05 l -0.1,-6.8 v -1.35 -0.5 -0.6 L 28.3,9.2 V 8.65 L 28.25,4.15 V 2.9 2 1.95 H 28.3 V 1.3 1.1 0.4 L 28.25,-1.05 28.2,-3.4 28.25,-4.75 M 36.5,-5.3 v -1.1 l -7.3,0.05 0.1,1.05 0.05,0.4 0.2,3.1 h 0.1 v 0.75 0.25 1.2 H 29.7 V 1.95 2 v 0.9 1.25 4.5 0.5 l 0.05,0.8 v 0.2 0.4 0.5 l -0.1,8.15 H 29.6 l -0.05,1.4 v 0.2 0.4 0.2 0.4 l -0.1,1 h 1.1 5.9 V -1.8 H 36.5 V -5.3 M 1.75,5.5 h 0.1 L 19.75,5.65 20.3,6 20.2,6.35 20.25,6.4 20.3,8.65 v 1.3 0.2 0.4 6.05 1.3 q -0.1,0.8 -0.55,1.25 L 19.25,18.7 V 18.6 L 19,18.65 H -19.05 L -19.3,18.6 v 0.1 l -0.5,0.45 -0.5,-1.25 v -1.3 l 0.05,-6.05 V 6.4 L -20.2,6.35 -20.3,6 -19.8,5.65 -1.9,5.55 V 5.5 h 0.1 0.95 0.25 0.2 1.25 0.9 M 19.3,6.8 h -38.65 v 7.45 l 0.05,0.2 v 2.8 l 0.25,-0.05 H 19 l 0.25,0.05 v -2.8 l 0.05,-0.2 V 6.8 M 36.45,27 v -2.25 h -72.9 v 0.25 1.8 0.75 0.5 h 0.05 v 4.75 q 1.9,-0.25 5.45,-0.1 h 0.7 17.65 43.5 q 3.55,-0.15 5.5,0.1 v -4.75 h 0.05 V 27.55 27 m -65.05,-41.75 0.05,0.05 q 0.45,0.85 0.45,1.85 l -0.1,1.2 -0.4,0.5 -1.15,0.75 q -2.4,1 -3.6,-0.9 -0.7,-1.15 -0.7,-2.35 l 0.15,-1.15 q 0.3,-0.75 1.35,-1 h 2.6 q 0.75,0.15 1.35,1.05 m -0.7,1.2 q -0.2,-0.75 -1.05,-0.95 h -1.85 l -0.7,0.6 -0.1,0.4 q 0,1.6 1.85,1.9 1.9,0.35 1.9,-1.45 l -0.05,-0.5 m 3.9,-0.4 -0.15,0.45 q 0,1.6 1.9,1.9 1.85,0.35 1.85,-1.45 l -0.05,-0.55 q -0.25,-0.7 -1.05,-0.9 h -1.85 l -0.65,0.55 m 0.35,-1.85 h 2.55 q 0.85,0.15 1.4,1.1 0.45,0.85 0.45,1.85 l -0.1,1.2 q -0.25,0.55 -1.5,1.25 -2.45,1 -3.6,-0.9 -0.7,-1.15 -0.7,-2.35 l 0.15,-1.15 q 0.25,-0.75 1.35,-1 m -4.3,10.65 0.05,-0.35 0.1,-0.85 -7.35,-0.05 0.05,4.6 h 0.05 V 2 2.55 22.8 h 1.4 5.6 l -0.1,-1 v -0.4 -0.2 -0.4 -0.2 -1.4 h -0.1 l -0.1,-8.15 V 10.55 9.95 9.15 8.65 4.15 2.9 2 1.95 h 0.05 V 1.7 0.4 h 0.05 V -0.7 -1.05 -1.8 h 0.05 l 0.25,-3.35 M -4.6,-13.8 q -0.3,0.45 -0.85,0.45 -0.85,0 -1.05,-0.65 l -0.05,-0.45 0.05,-0.4 q 0.2,-0.65 1.05,-0.65 1.05,0 1.05,1.05 l -0.2,0.65 m -8.9,0.8 -0.15,0.7 q 0,0.6 0.8,1 H -11 q 1.1,-0.3 1.1,-1.5 l -0.1,-0.75 q -0.3,-0.85 -1.55,-0.7 h -0.2 l -0.4,0.1 q -1.1,0.3 -1.35,1.15 m 8.65,2.3 -0.6,0.2 q -0.75,0 -0.95,-0.45 v -0.35 q 0,-1 0.95,-1 0.9,0 0.9,1 0,0.35 -0.3,0.6"
         fill="#6b6b6b"
         fill-rule="evenodd"
         stroke="none"
         id="path1" />
      <path
         d="m 2.25,-14.9 0.15,2.55 -0.15,1.4 L 0.35,-11 H -0.4 l -1.9,0.05 -0.15,-1.4 0.2,-2.55 -0.05,-0.75 h 1.9 v 0.05 l 2.65,-0.05 v 0.75 m 15.6,10.3 H -17.9 l -0.85,0.7 -0.4,0.4 -0.15,0.15 -0.1,1.25 v 1.5 q 0.05,1 0.4,1.4 h 38 l 0.35,-1.4 V -2.1 L 19.25,-3.35 19.1,-3.5 18.75,-3.9 17.85,-4.6 M -36.1,-21.75 h 72.15 l 0.05,0.4 0.05,0.5 h -72.3 v -0.5 l 0.05,-0.4 m 7.8,16.85 0.1,-0.05 0.55,0.35 L 28,-4.75 h 0.25 L 28.2,-3.4 28.25,-1.05 28.3,0.4 V 1.1 1.3 1.95 H 28.25 V 2 2.9 4.15 l 0.05,4.5 V 9.2 l 0.05,0.75 v 0.6 0.5 1.35 l 0.1,6.8 h 0.05 v 1.4 0.2 0.4 0.2 0.4 1 h -57 v -1 -0.4 -0.2 -0.4 -0.2 -1.4 h 0.05 l 0.05,-6.8 v -1.35 h 0.05 V 10.55 9.95 9.2 8.65 l 0.1,-4.5 V 2.9 2 1.95 H -28.3 V 0.8 0.4 0.1 l 0.05,-1.15 V -3.4 L -28.3,-4.9 M 1.75,5.5 H 0.85 -0.4 -0.6 -0.85 -1.8 -1.9 v 0.05 l -17.9,0.1 -0.5,0.35 0.1,0.35 -0.05,0.05 v 4.15 l -0.05,6.05 v 1.3 l 0.5,1.25 0.5,-0.45 v -0.1 l 0.25,0.05 H 19 l 0.25,-0.05 v 0.1 l 0.5,0.45 Q 20.2,18.7 20.3,17.9 v -1.3 -6.05 -0.4 -0.2 -1.3 L 20.25,6.4 20.2,6.35 20.3,6 19.75,5.65 1.85,5.5 h -0.1"
         fill="#727272"
         fill-rule="evenodd"
         stroke="none"
         id="path2" />
      <path
         d="m 13.3,-13.35 0.3,1.05 q 0,0.6 -0.8,1 H 10.95 Q 9.9,-11.6 9.9,-12.8 l 0.05,-0.4 0.1,0.2 1.25,0.15 q 1.5,0 2,-0.5 m 0.65,-1.15 q -1.2,-1.9 -3.6,-0.95 Q 9.1,-14.7 8.8,-14.2 L 8.7,-13 q 0,1.05 0.5,1.9 0.55,0.95 1.4,1.1 h 2.55 q 1.05,-0.3 1.35,-1 l 0.15,-1.15 q 0,-1.2 -0.7,-2.35 m -17.35,-2.15 -0.15,0.05 q -0.6,0.25 -0.4,0.6 l 0.05,0.05 -0.15,1.1 0.2,1.95 v 0.75 l 0.05,1.3 0.25,0.75 0.05,0.1 0.35,0.55 0.35,-0.2 0.35,0.3 H 2.4 l 0.4,-0.3 0.3,0.2 0.4,-0.55 0.05,-0.1 0.2,-0.75 0.05,-1.3 v -0.75 l 0.25,-1.95 -0.2,-1.1 L 3.9,-16 q 0.25,-0.35 -0.35,-0.6 l 32.9,0.05 0.1,1.6 v 5.15 l -0.05,0.15 v 1.7 H 23.65 V -8 h -1.15 -1.05 -6.5 -26.4 l 0.2,-1.4 V -10 h 0.65 q 0.85,-0.15 1.4,-1.1 0.45,-0.85 0.45,-1.9 l -0.1,-1.2 q -0.25,-0.5 -1.5,-1.25 l -1.35,-0.3 -0.15,-0.9 h 8.45 m 9.9,2.2 q 0,-1.05 -1.05,-1.05 -1.1,0 -1.1,1.05 l 0.2,0.65 q 0.35,0.45 0.9,0.45 1.05,0 1.05,-1.1 m -1.05,2.15 q -0.95,0 -0.95,1 0,0.35 0.35,0.6 l 0.6,0.2 q 0.75,0 0.95,-0.45 v -0.35 q 0,-1 -0.95,-1 m 12.2,10.6 0.05,0.65 v 0.3 H 14.75 L 11.1,-0.85 8.3,-0.8 H 5.55 -2.75 L -2.8,-1.05 -2.85,-1.1 -3,-1.65 17.3,-1.7 h 0.35 m -34.05,0.95 h -1.35 l 0.05,-0.3 V -1.9 l 0.45,0.3 h 0.9 v 0.55 l -0.05,0.25 v 0.05 m -19.7,-21 -0.05,-1.35 q 8.05,-0.1 13.6,0.15 H 22.5 q 5.6,-0.25 13.6,-0.15 l -0.05,1.35 H -36.1 m 65.35,8.55 0.95,0.15 q 0.4,0 1.4,-0.45 l 1.25,-0.55 0.15,0.55 q 0,1.6 -1.9,1.9 -1.85,0.35 -1.85,-1.45 v -0.15 m -3.8,-0.6 0.05,0.3 q 0,1.6 -1.85,1.9 -1.85,0.35 -1.85,-1.45 l 0.1,-0.65 0.9,0.25 H 25 l 0.45,-0.35 m 7.05,-2 h -2.55 q -0.85,0.15 -1.4,1.1 -0.45,0.85 -0.45,1.85 l 0.05,1.2 q 0.3,0.55 1.55,1.25 2.45,1 3.6,-0.9 0.7,-1.15 0.7,-2.35 l -0.15,-1.15 q -0.25,-0.75 -1.35,-1 m -7.45,0 H 22.5 q -0.85,0.15 -1.4,1.1 -0.5,0.85 -0.5,1.85 l 0.1,1.2 q 0.3,0.55 1.55,1.25 2.4,1 3.6,-0.9 0.7,-1.15 0.7,-2.35 L 26.4,-14.8 q -0.3,-0.75 -1.35,-1 M -28.3,-4.9 v -0.15 l -0.1,-0.9 -0.05,-0.3 -0.05,-0.1 h 4.85 v 0.05 h 47.3 v -0.05 h 4.85 l -0.25,1.6 H 28 l -55.65,0.15 -0.55,-0.35 -0.1,0.05 m 64.8,-0.4 v 3.5 h -0.05 v 24.6 h -5.9 l 0.25,-1.4 h 0.05 V 21.2 21 20.8 20.6 17.2 10.55 10.15 9.95 8.65 L 30.8,0.85 v -0.4 -1.5 L 30.75,-5.1 36.5,-5.3 M 36.45,27 v 0.55 0.5 H 36.4 v 4.75 q -1.95,-0.25 -5.5,-0.1 h -43.5 l 0.05,-3 v -1.55 -0.1 L -12.6,27.55 -12.65,27.4 -12.7,27.1 36.45,27 m -66.7,5.7 h -0.7 q -3.55,-0.15 -5.45,0.1 v -4.75 h -0.05 v -0.5 -0.75 l 6.4,0.35 -0.05,0.4 -0.05,0.6 h -0.05 l -0.05,2.6 v 1.95 m 1.65,-43.85 v 1.15 2.05 h -7.95 v -1.7 L -36.6,-9.8 v -5.15 l 0.15,-1.8 0.3,0.05 h 7.8 l -0.25,1.85 v 0.1 q -0.6,-0.9 -1.35,-1.05 h -2.6 q -1.05,0.25 -1.35,1 l -0.15,1.15 q 0,1.2 0.7,2.35 1.2,1.9 3.6,0.9 l 1.15,-0.75 m -4.3,-2.75 0.15,0.65 2.3,0.25 q 0.45,0 1.15,-0.55 l 0.05,0.5 q 0,1.8 -1.9,1.45 -1.85,-0.3 -1.85,-1.9 l 0.1,-0.4 m 11.05,0.3 0.05,0.55 q 0,1.8 -1.85,1.45 -1.9,-0.3 -1.9,-1.9 l 0.15,-0.45 0.5,0.5 3.05,-0.15 m -13.2,36.4 0.05,-0.25 -0.05,-0.4 V 1.95 H -35 v -3 l -0.05,-1.1 q 0,-1.5 -0.25,-2.7 h 3.8 l 2.15,-0.3 -0.25,3.35 h -0.05 v 0.75 0.35 1.1 h -0.05 v 1.3 0.25 h -0.05 V 2 v 0.9 1.25 4.5 0.5 0.8 0.6 0.5 l 0.1,8.15 h 0.1 v 1.4 0.2 0.4 0.2 0.4 l 0.1,1 h -5.6 m 25.05,-36.35 0.1,0.75 q 0,1.2 -1.1,1.5 h -1.85 q -0.8,-0.4 -0.8,-1 l 0.15,-0.7 h 0.45 0.9 l 0.75,-0.05 0.95,-0.2 0.45,-0.3 m 5.4,-0.25 0.2,-0.65 q 0,-1.05 -1.05,-1.05 -0.85,0 -1.05,0.65 l -0.05,0.4 0.05,0.45 q 0.2,0.65 1.05,0.65 0.55,0 0.85,-0.45 m -0.25,3.1 q 0.3,-0.25 0.3,-0.6 0,-1 -0.9,-1 -0.95,0 -0.95,1 v 0.35 q 0.2,0.45 0.95,0.45 l 0.6,-0.2"
         fill="#7b7b7b"
         fill-rule="evenodd"
         stroke="none"
         id="path3" />
      <path
         d="m 9.95,-13.2 q 0.2,-1.3 1.8,-1.05 1.1,0.2 1.55,0.9 -0.5,0.5 -2,0.5 L 10.05,-13 9.95,-13.2 M -3.4,-16.65 h -8.45 l 0.15,0.9 h -0.45 q -1.1,0.15 -1.8,1.25 l -0.2,0.4 q -0.5,0.95 -0.5,1.95 l 0.15,1.15 0.35,0.5 q 0.35,0.3 1,0.5 h 1.9 v 0.6 l -0.2,1.4 h -3.55 -6.5 -1.05 -1.1 v 0.05 H -28.6 V -10 -11.15 l 0.4,-0.5 0.1,-1.2 q 0,-1 -0.45,-1.85 l -0.05,-0.05 v -0.1 l 0.25,-1.85 h -7.8 l -0.3,-0.05 0.1,-1.55 H -3.6 l 3.2,-0.1 H 0 0.35 l 3.25,0.1 h 32.75 l 0.1,1.75 -32.9,-0.05 H 3.5 L 0.35,-16.85 H -0.4 l -3,0.2 m 0.65,15.85 h -2.8 -0.95 -1.8 l -2.8,-0.05 -3.65,0.1 H -16.4 V -0.8 l 0.05,-0.25 V -1.6 h -0.9 L -17.7,-1.9 V -2 l -0.05,-0.95 0.05,-0.05 0.1,-0.05 H 17.7 V -3 l -0.05,1 v 0.3 H 17.3 l -20.3,0.05 0.15,0.55 0.05,0.05 0.05,0.25 m 33.2,-13.7 h 0.2 1 l 0.8,0.15 0.4,0.3 -1.25,0.55 q -1,0.45 -1.4,0.45 l -0.95,-0.15 q 0.05,-1 0.9,-1.25 l 0.3,-0.05 m -5,0.7 -0.45,0.35 h -2.2 l -0.9,-0.25 q 0.25,-0.65 0.95,-0.8 h 1.85 l 0.75,0.7 m 5.1,36.6 h -1.1 l 0.1,-1 v -0.4 -0.2 -0.4 -0.2 l 0.05,-1.4 h 0.05 l 0.1,-8.15 v -0.5 -0.4 -0.2 L 29.7,9.15 V 8.65 4.15 2.9 2 1.95 0.4 H 29.65 V -0.8 -1.05 -1.8 h -0.1 l -0.2,-3.1 -0.05,-0.4 -0.1,-1.05 7.3,-0.05 v 1.1 l -5.75,0.2 0.05,4.05 v 1.5 0.4 l 0.05,7.8 v 1.3 0.2 0.4 6.65 3.4 0.2 0.2 0.2 0.2 H 30.8 l -0.25,1.4 m -67,4 V 25 24.75 h 72.9 V 27 l -49.15,0.1 0.05,0.3 0.05,0.15 0.05,0.5 v 0.1 1.55 l -0.05,3 h -17.65 v -1.95 l 0.05,-2.6 h 0.05 l 0.05,-0.6 0.05,-0.4 -6.4,-0.35 m 3.55,-40.7 0.7,-0.6 h 1.85 q 0.85,0.2 1.05,0.95 -0.7,0.55 -1.15,0.55 l -2.3,-0.25 -0.15,-0.65 m 11.05,0.3 -3.05,0.15 -0.5,-0.5 0.65,-0.55 h 1.85 q 0.8,0.2 1.05,0.9 m -3.2,-2.2 q -1.1,0.25 -1.35,1 l -0.15,1.15 q 0,1.2 0.7,2.35 1.15,1.9 3.6,0.9 1.25,-0.7 1.5,-1.25 l 0.1,-1.2 q 0,-1 -0.45,-1.85 -0.55,-0.95 -1.4,-1.1 h -2.55 m -10,38.6 h -1.4 V 2.55 2 -1.8 h -0.05 l -0.05,-4.6 7.35,0.05 -0.1,0.85 -0.05,0.35 -2.15,0.3 h -3.8 q 0.25,1.2 0.25,2.7 l 0.05,1.1 v 3 h -0.05 v 20.2 l 0.05,0.4 -0.05,0.25 m 25.05,-36.35 -0.45,0.3 -0.95,0.2 -0.75,0.05 h -0.9 -0.45 q 0.25,-0.85 1.35,-1.15 l 0.4,-0.1 h 0.2 q 1.25,-0.15 1.55,0.7"
         fill="#8a8a8a"
         fill-rule="evenodd"
         stroke="none"
         id="path4" />
      <path
         d="m 19.3,6.8 v 7.45 l -0.05,0.2 v 2.8 L 19,17.2 h -38.05 l -0.25,0.05 v -2.8 l -0.05,-0.2 V 6.8 H 19.3"
         fill="#6d6d6d"
         fill-rule="evenodd"
         stroke="none"
         id="path5" />
    </g>
  </defs>
</svg>
