<?xml version="1.0" encoding="UTF-8" standalone="no"?>
<svg
   ffdec:objectType="frame"
   height="71.5"
   width="47.200001"
   version="1.1"
   id="svg9"
   sodipodi:docname="2.svg"
   xmlns:inkscape="http://www.inkscape.org/namespaces/inkscape"
   xmlns:sodipodi="http://sodipodi.sourceforge.net/DTD/sodipodi-0.dtd"
   xmlns:xlink="http://www.w3.org/1999/xlink"
   xmlns="http://www.w3.org/2000/svg"
   xmlns:svg="http://www.w3.org/2000/svg"
   xmlns:ffdec="https://www.free-decompiler.com/flash">
  <sodipodi:namedview
     id="namedview9"
     pagecolor="#ffffff"
     bordercolor="#000000"
     borderopacity="0.25"
     inkscape:showpageshadow="2"
     inkscape:pageopacity="0.0"
     inkscape:pagecheckerboard="0"
     inkscape:deskcolor="#d1d1d1"
     fit-margin-top="5"
     fit-margin-left="5"
     fit-margin-right="5"
     fit-margin-bottom="5" />
  <g
     transform="translate(23.6,31.3)"
     id="g2">
    <use
       ffdec:characterId="1756"
       height="71.550003"
       transform="translate(-23.6,-31.35)"
       width="47.200001"
       xlink:href="#shape0"
       id="use1" />
    <use
       ffdec:characterId="1691"
       height="8"
       transform="matrix(0.725,0,0,0.725,-3.965,-7.7)"
       width="10.8"
       xlink:href="#sprite0"
       id="use2" />
    <use
       ffdec:characterId="1686"
       height="1.5"
       id="subplatform1"
       transform="matrix(0.0234,0,0.0977,0.86,-15.1134,-30.63)"
       width="1320.3"
       xlink:href="#sprite1" />
  </g>
  <defs
     id="defs9">
    <g
       id="shape0"
       transform="translate(23.6,31.35)">
      <path
         d="M 14.85,-25.2 14.7,-26.7 V -27 l -0.05,-0.35 -0.05,-0.55 -0.05,-0.75 q -1.8,0.25 -5.25,0.05 H 1.75 -3.45 -9.3 q -3.45,0.2 -5.25,-0.05 l -0.05,1 -0.05,0.15 v 0.4 0.1 l -0.15,1.4 v 0.35 l -0.3,3.5 0.2,-0.3 q 1.25,-1.7 2.5,-2.1 l 0.3,-0.25 8.65,-0.2 H 1.6 2.4 3.45 l 8.65,0.2 0.3,0.25 q 1.25,0.4 2.5,2.1 l 0.2,0.3 -0.25,-2.95 v -0.5 m -5.55,-6.1 5.65,0.15 0.6,0.15 q 0.85,0.3 0.85,1.1 l 0.25,1.3 v 0.1 l 0.05,0.95 q 0.1,1.45 0.35,2.4 l 0.3,1.25 q 2.85,-7.8 4.7,0.85 1.55,6.95 1.55,13.75 l -0.75,6.65 q -0.95,4.55 -2.7,6 l 2.05,17.7 -0.1,0.8 q -0.25,0.5 -1.25,0.85 H 16.1 l 0.05,1 -0.1,1.3 -0.05,0.25 q 1,0.45 1.85,1 2.9,1.75 2.9,3 l -0.05,0.55 0.15,0.45 v 0.05 l -0.05,0.3 v 7.3 h -0.05 v 0.15 l -0.05,0.55 0.15,0.45 q 0,0.55 -0.4,0.75 l -3.55,0.4 h -33.8 l -3.55,-0.4 q -0.4,-0.2 -0.4,-0.75 l 0.15,-0.45 -0.05,-0.55 V 37.9 h -0.15 v -7.3 h 0.1 l -0.05,-0.3 v -0.05 l 0.15,-0.45 -0.05,-0.55 q 0,-1.25 2.9,-3 0.85,-0.55 1.85,-1 l -0.05,-0.25 -0.1,-1.3 0.05,-1 h -4.75 q -1,-0.35 -1.25,-0.85 l -0.1,-0.8 2.05,-17.7 q -1.75,-1.45 -2.7,-6 L -23.6,-9.3 q 0,-6.8 1.55,-13.75 1.85,-8.65 4.7,-0.85 l 0.3,-1.25 q 0.3,-1.25 0.4,-3.35 l 0.25,-1.4 q 0,-0.8 0.85,-1.1 l 0.6,-0.15 5.65,-0.15 7.6,0.05 H 3.45 L 9.3,-31.3 m 11.7,17 v -0.1 l -0.1,-1.05 v -0.2 l -0.1,-0.85 -0.2,-2.1 -0.8,-5.2 -1.05,1.5 -0.3,0.6 -0.1,0.4 -0.1,0.35 -0.35,1.15 0.1,0.5 0.05,0.7 0.05,0.3 0.05,0.5 0.2,2.05 0.75,10.4 0.45,3.9 q 1.8,-3.8 1.8,-8.05 L 21,-14.3 m -5.4,-1.15 -0.15,-2 -0.5,-0.95 -0.75,-1.5 -0.05,-0.1 -1.45,-1.3 -0.7,-0.55 -0.05,-0.05 -0.15,-0.05 -4.3,-0.2 H 3.45 v 0.05 H 1.6 1.05 -3.45 v -0.05 H -7.5 l -4.3,0.2 -0.15,0.05 -0.05,0.05 -0.7,0.55 -1.45,1.3 -0.05,0.1 -0.85,1.75 -0.4,0.7 -0.05,1.1 -0.5,5.95 -0.05,0.6 -0.4,5.6 -0.6,6.1 0.95,-0.1 h 0.7 l 1.4,0.15 0.1,0.45 q 0,0.65 -1.6,0.8 h -0.8 l -0.9,-0.05 -0.3,2.8 h 1.8 2.65 0.8 0.35 q 1.05,-0.1 1.05,0.7 l -0.25,0.55 -0.8,0.25 h -0.35 -0.8 -2.8 -1.85 l -1.4,12.35 -0.05,0.15 h 2.3 4.2 3 19.25 4 3.05 2.5 L 18.35,12.8 17.75,7.55 16.7,7.65 H 15.25 13.7 L 12.1,7.55 11.25,7.45 10.4,7.3 Q 9.95,7.2 9.95,6.65 9.95,6.1 10.9,6 h 0.35 L 12.1,5.95 13.7,5.85 15.15,5.8 15.9,5.75 h 1.65 L 17.3,3.7 15.05,3.65 13.7,3.6 12.8,3.4 q -0.4,-0.15 -0.4,-0.7 0,-0.4 0.9,-0.45 h 0.4 L 15,2.2 h 2.15 l -0.7,-6.4 -0.1,-1.85 -0.4,-5.35 -0.35,-4.05 m -22.2,1.45 0.3,-0.85 0.4,-1.15 0.6,-1.4 0.25,-0.45 0.1,-0.25 0.1,-0.1 q 0.6,-1.1 0.8,-0.55 L -4,-18.5 v 0.6 l -0.1,0.5 -0.1,0.6 v 0.05 l -0.1,0.55 -1.25,5.85 -1.35,5.95 -0.35,1.3 -0.6,1.85 H -7.25 8.2 Q 6.95,-4.8 5.2,-10.9 l -0.05,-0.2 -1.5,-5.5 -0.05,-0.2 -0.35,-1.6 0.05,-0.45 q 0.05,-0.8 0.55,-0.75 l 0.35,0.15 q 0.75,0.5 1.1,1.5 l 0.1,0.3 0.2,1 0.3,1.15 0.1,0.25 0.3,1.25 0.9,3.7 1.15,4.85 0.6,3.5 0.1,1 L 9.1,-0.9 9.15,-0.85 9.4,-0.3 9.15,0.25 9,0.45 v 0.1 q 0,0.8 -3.5,3.1 L 2.8,5.25 1.5,6.35 1.45,6.5 V 6.9 L 1.4,8.2 1.5,8 1.6,8.1 1.25,8.45 V 8.6 l 8.4,4.85 0.85,0.5 q 0.4,0.3 0.45,0.75 l -0.1,0.6 q -0.35,0.6 -1.2,0.5 L 9.5,15.75 7.3,14.5 1.2,10.95 h -0.05 -1.4 q -4.9,2.8 -7.1,3.85 L -8.2,15.15 -8.7,15.2 Q -9.15,15.3 -9.35,15 L -9.4,14.95 v -0.5 l 0.75,-0.8 q 1.5,-1.15 8,-4.85 L -0.5,8.7 -0.55,8.4 V 8.3 L -0.6,8.4 -0.65,8.35 V 8.3 L -0.7,8.25 h 0.05 L -0.7,6.95 V 6.9 L -1.85,6.3 -2.6,5.75 Q -4.25,5 -6.3,3.45 q -2.6,-2 -3.2,-2.9 l -0.15,-0.3 -0.3,-0.6 V -0.4 L -10,-0.7 -9.5,-2.65 -7.65,-10.3 -6.6,-14 M 4.2,1.85 Q 5.45,1.05 6.4,0.6 H -7 L -5.05,2 -1.4,3.6 q 1.1,0.5 1.7,0.95 l 3.9,-2.7 m 3.4,22.7 H 7.5 L 0,23.65 q -4.85,0.1 -8.9,1.25 l -1.05,0.3 -0.95,0.35 -2.4,1 -1.1,0.55 -2.9,2.05 h 0.4 33.8 0.4 L 14.4,27.1 12.9,26.35 10,25.25 9.5,25.1 8.5,24.8 7.6,24.55 m 6.15,-0.8 0.05,-1.05 H 9.1 l 1.75,0.5 q 1.55,0.45 2.9,1.05 v -0.5 M 18.5,37.9 h 0.05 V 30.6 H 18.5 v 0.75 l -1.15,0.05 h -0.45 -33.8 -0.6 l -1.1,-0.05 V 30.6 h -0.05 v 7.3 h 0.05 1.4 l -0.1,0.05 h 0.4 33.8 0.4 L 17.25,37.9 h 1.25 m -36.85,-53.1 0.3,-3.4 0.15,-1.2 -0.35,-1.15 -0.2,-0.75 -0.3,-0.6 -1.05,-1.5 q -0.45,1.25 -1,7.3 l -0.35,3.6 -0.2,3.4 q 0,4.25 1.8,8.05 l 0.45,-3.9 0.75,-9.85 m 4.95,39.3 2.55,-0.9 1.75,-0.5 h -4.7 v 0.1 l 0.05,0.95 v 0.5 l 0.35,-0.15"
         fill="#6b6b6b"
         fill-rule="evenodd"
         stroke="none"
         id="path2" />
      <path
         d="m -14.8,-25.6 6.65,0.35 23,0.05 v 0.5 l 0.25,2.95 -0.2,-0.3 q -1.25,-1.7 -2.5,-2.1 L 12.1,-24.4 3.45,-24.6 H 2.4 1.6 -3.45 l -8.65,0.2 -0.3,0.25 q -1.25,0.4 -2.5,2.1 l -0.2,0.3 0.3,-3.5 v -0.35 m 35.8,11.3 0.35,4.8 q 0,4.25 -1.8,8.05 l -0.45,-3.9 -0.75,-10.4 q 0.85,1.4 2.25,1.4 h 0.25 L 21,-14.3 m -5.4,-1.15 0.35,4.05 q -0.85,0.1 -0.85,3.1 -0.55,1.95 -0.35,6.3 L 15,2.2 13.7,2.25 v -13.9 l -0.1,-2.15 1.6,-1.2 0.4,-0.45 M 13.7,3.6 15.05,3.65 15.15,5.8 13.7,5.85 V 3.6 m 0,4.05 h 1.55 l 0.1,2.05 q 0.55,7.6 1.3,10.25 H 13.6 q 0.35,-0.85 0.35,-2.5 L 13.7,12.55 V 7.65 M 9.6,19.95 H -9.65 q 0.4,-0.75 0.45,-2.4 L -9.35,15 q 0.2,0.3 0.65,0.2 l 0.5,-0.05 0.85,-0.35 q 0.25,0.4 1.1,0.4 l 4.7,-0.65 h 2.9 l 4.5,0.55 q 1.1,0 1.45,-0.6 l 2.2,1.25 0.15,0.05 -0.2,2.8 q 0,0.8 0.15,1.35 m -22.25,0 h -4.2 q 0.4,-1.3 0.6,-4.15 l 0.35,-8.15 0.05,-0.2 h 2.8 v 5.85 l -0.25,4.25 q 0.05,1.75 0.65,2.4 m -0.4,-14 h -2.65 l 0.2,-2.75 q 1.6,-0.15 1.6,-0.8 L -14,1.95 -15.4,1.8 V 1.4 l 0.4,-7.65 -0.2,-2.05 v -0.2 -0.8 q 0,-1.3 -0.45,-0.95 l -0.2,-0.3 -0.15,0.15 0.5,-5.95 0.7,1.05 q 0.75,0.85 1.8,1.35 -0.65,1.3 -0.55,3.45 0.6,4.15 0.5,5.9 V 5.95 m 3.65,-19.2 q 1.55,0 2.8,-0.75 l -1.05,3.7 -1.85,7.65 -0.05,-7.3 0.15,-2.95 v -0.35 M 6.3,-14 q 1.55,0.85 3.75,0.9 -0.4,0.9 -0.15,1.4 l -0.15,3.95 -0.1,16.1 v 5.1 L 1.25,8.6 V 8.45 L 1.6,8.1 1.5,8 1.4,8.2 1.45,6.9 V 6.5 L 1.5,6.35 2.8,5.25 5.5,3.65 Q 9,1.35 9,0.55 V 0.45 L 9.15,0.25 9.4,-0.3 9.15,-0.85 9.1,-0.9 9.05,-0.95 8.95,-1.95 8.35,-5.45 7.2,-10.3 6.3,-14 m 1.3,38.55 0.9,0.25 1,0.3 0.5,0.15 2.9,1.1 1.5,0.75 2.9,2.05 h -0.4 -33.8 -0.4 l 2.9,-2.05 1.1,-0.55 2.4,-1 0.95,-0.35 1.05,-0.3 Q -4.85,23.75 0,23.65 l 7.5,0.9 h 0.1 m 6.15,-0.8 v 0.5 Q 12.4,23.65 10.85,23.2 L 9.1,22.7 h 4.7 l -0.05,1.05 m 4.75,7.65 v 6.5 h -1.25 -34.45 -1.4 v -6.5 h 1.1 0.6 33.8 0.45 1.15 m -36.85,-46.6 -0.75,9.85 -0.45,3.9 q -1.8,-3.8 -1.8,-8.05 l 0.2,-3.4 q 1.8,-0.25 2.8,-2.3 M -9.5,0.55 q 0.6,0.9 3.2,2.9 2.05,1.55 3.7,2.3 l 0.75,0.55 1.15,0.6 v 0.05 l 0.05,1.3 H -0.7 L -0.65,8.3 V 8.35 L -0.6,8.4 -0.55,8.3 v 0.1 l 0.05,0.3 -0.15,0.1 q -6.5,3.7 -8,4.85 l -0.75,0.8 -0.05,-1.1 -0.05,-12.8 m -3.9,23.55 -0.35,0.15 v -0.5 L -13.8,22.8 v -0.1 h 4.7 l -1.75,0.5 -2.55,0.9"
         fill="#7b7b7b"
         fill-rule="evenodd"
         stroke="none"
         id="path3" />
      <path
         d="m -14.8,-25.6 0.15,-1.4 v -0.1 -0.4 l 0.05,-0.15 0.05,-1 q 1.8,0.25 5.25,0.05 h 5.85 5.2 7.55 q 3.45,0.2 5.25,-0.05 l 0.05,0.75 0.05,0.55 0.05,0.35 v 0.3 l 0.15,1.5 -23,-0.05 -6.65,-0.35 m 33.15,9.85 -0.2,-2.05 -0.05,-0.5 -0.05,-0.3 -0.05,-0.7 -0.1,-0.5 0.35,-1.15 0.1,-0.35 0.1,-0.4 0.3,-0.6 1.05,-1.5 0.8,5.2 0.2,2.1 0.1,0.85 v 0.2 l 0.1,1.05 v 0.1 l -0.15,-0.05 H 20.6 q -1.4,0 -2.25,-1.4 m -2.4,4.35 0.4,5.35 0.1,1.85 0.7,6.4 H 15 L 14.75,-2 q -0.2,-4.35 0.35,-6.3 0,-3 0.85,-3.1 M 15.05,3.65 17.3,3.7 17.55,5.75 H 15.9 L 15.15,5.8 15.05,3.65 m 0.2,4 h 1.45 l 1.05,-0.1 0.6,5.25 0.8,7.15 h -2.5 Q 15.9,17.3 15.35,9.7 l -0.1,-2.05 m -32.1,12.3 h -2.3 l 0.05,-0.15 1.4,-12.35 h 1.85 l -0.05,0.2 -0.35,8.15 q -0.2,2.85 -0.6,4.15 m 1.15,-14 h -1.8 l 0.3,-2.8 0.9,0.05 h 0.8 l -0.2,2.75 m 0.3,-4.15 h -0.7 l -0.95,0.1 0.6,-6.1 0.4,-5.6 0.05,-0.6 0.15,-0.15 0.2,0.3 q 0.45,-0.35 0.45,0.95 v 0.8 0.2 l 0.2,2.05 -0.4,7.65 v 0.4 m 9.85,-12.15 0.2,-0.3 q 3.95,-6.35 7.7,-4.75 0.95,0.65 2.8,4.3 l 0.05,0.2 q 1.75,6.1 3,9.65 h -15.45 -0.6 l 0.6,-1.85 0.35,-1.3 1.35,-5.95 m -1.8,25.15 q 2.2,-1.05 7.1,-3.85 h 1.4 0.05 l 6.1,3.55 q -0.35,0.6 -1.45,0.6 l -4.5,-0.55 h -2.9 l -4.7,0.65 q -0.85,0 -1.1,-0.4 m -13.8,-27.7 0.35,-3.6 q 0.55,-6.05 1,-7.3 l 1.05,1.5 0.3,0.6 0.2,0.75 0.35,1.15 -0.15,1.2 -0.3,3.4 q -1,2.05 -2.8,2.3"
         fill="#858585"
         fill-rule="evenodd"
         stroke="none"
         id="path4" />
      <path
         d="m -15.5,-16.35 0.05,-1.1 0.4,-0.7 0.85,-1.75 0.05,-0.1 1.45,-1.3 0.7,-0.55 0.05,-0.05 0.15,-0.05 4.3,-0.2 h 4.05 v 0.05 h 4.5 0.55 1.85 v -0.05 H 7.5 l 4.3,0.2 0.15,0.05 0.05,0.05 0.7,0.55 1.45,1.3 0.05,0.1 0.75,1.5 0.5,0.95 0.15,2 -0.4,0.45 -1.6,1.2 -1.9,0.6 -0.45,0.05 -1.1,0.05 h -0.1 Q 7.85,-13.15 6.3,-14 L 6,-15.25 5.9,-15.5 l -0.3,-1.15 -0.2,-1 -0.1,-0.3 q -0.35,-1 -1.1,-1.5 L 3.85,-19.6 q -0.5,-0.05 -0.55,0.75 l -0.05,0.45 0.35,1.6 0.05,0.2 1.5,5.5 q -1.85,-3.65 -2.8,-4.3 -3.75,-1.6 -7.7,4.75 l -0.2,0.3 1.25,-5.85 0.1,-0.55 v -0.05 l 0.1,-0.6 0.1,-0.5 v -0.6 l -0.05,-0.25 q -0.2,-0.55 -0.8,0.55 l -0.1,0.1 -0.1,0.25 -0.25,0.45 -0.6,1.4 -0.4,1.15 -0.3,0.85 q -1.25,0.75 -2.8,0.75 h -0.05 l -1.55,-0.1 -0.95,-0.2 -1.05,-0.4 q -1.05,-0.5 -1.8,-1.35 l -0.7,-1.05 M 4.2,1.85 0.3,4.55 Q -0.3,4.1 -1.4,3.6 L -5.05,2 -7,0.6 H 6.4 Q 5.45,1.05 4.2,1.85"
         fill="#727272"
         fill-rule="evenodd"
         stroke="none"
         id="path5" />
      <path
         d="m 13.7,2.25 h -0.4 q -0.9,0.05 -0.9,0.45 0,0.55 0.4,0.7 l 0.9,0.2 V 5.85 L 12.1,5.95 11.25,6 H 10.9 Q 9.95,6.1 9.95,6.65 9.95,7.2 10.4,7.3 l 0.85,0.15 0.85,0.1 1.6,0.1 v 4.9 l 0.25,4.9 q 0,1.65 -0.35,2.5 h -4 Q 9.45,19.4 9.45,18.6 l 0.2,-2.8 q 0.85,0.1 1.2,-0.5 l 0.1,-0.6 Q 10.9,14.25 10.5,13.95 l -0.85,-0.5 v -5.1 l 0.1,-16.1 0.15,-3.95 q -0.25,-0.5 0.15,-1.4 h 0.1 l 1.1,-0.05 0.45,-0.05 1.9,-0.6 0.1,2.15 v 13.9 m -23.35,17.7 h -3 q -0.6,-0.65 -0.65,-2.4 l 0.25,-4.25 V 7.45 h 0.8 0.35 l 0.8,-0.25 0.25,-0.55 q 0,-0.8 -1.05,-0.7 h -0.35 -0.8 V -4.6 q 0.1,-1.75 -0.5,-5.9 -0.1,-2.15 0.55,-3.45 l 1.05,0.4 0.95,0.2 1.55,0.1 h 0.05 v 0.35 l -0.15,2.95 0.05,7.3 -0.5,1.95 0.05,0.3 v 0.05 l 0.3,0.6 0.15,0.3 0.05,12.8 0.05,1.1 v 0.5 l 0.05,0.05 0.15,2.55 q -0.05,1.65 -0.45,2.4"
         fill="#cccccc"
         fill-rule="evenodd"
         stroke="none"
         id="path6" />
      <path
         d="M 18.5,31.35 V 30.6 h 0.05 v 7.3 H 18.5 v -6.5 -0.05 m -1.25,6.55 0.05,0.05 h -0.4 -33.8 -0.4 l 0.1,-0.05 h 34.45 m -35.85,0 h -0.05 v -7.3 h 0.05 v 0.75 0.05 6.5"
         fill="#999999"
         fill-rule="evenodd"
         stroke="none"
         id="path7" />
    </g>
    <g
       id="sprite0"
       transform="translate(5.4,4)">
      <use
         ffdec:characterId="43"
         height="8"
         transform="translate(-5.4,-4)"
         width="10.8"
         xlink:href="#shape1"
         id="use7" />
    </g>
    <g
       id="shape1"
       transform="translate(5.4,4)">
      <path
         d="m 2.9,-0.35 q 0,-1.25 1.25,-1.25 1.25,0 1.25,1.2 0,1.3 -1.25,1.3 Q 3.6,0.9 3.25,0.5 2.9,0.15 2.9,-0.35 m 0.35,-2.3 q 0,0.55 -0.35,0.9 -0.4,0.45 -1,0.45 -1.35,0 -1.35,-1.4 0,-1.3 1.35,-1.3 1.35,0 1.35,1.35 m -3.1,1.9 h 0.2 q 2.6,0.1 2.6,2.8 l -0.3,1 Q 2.05,4 0.45,4 H 0.35 0.15 0.1 -0.45 q -1.6,0 -2.2,-0.95 l -0.3,-1 q 0,-2.8 2.8,-2.8 h 0.3 M -1.55,-4 q 1.35,0 1.35,1.35 0,0.55 -0.4,0.9 -0.4,0.45 -0.95,0.45 -1.4,0 -1.4,-1.4 0,-1.3 1.4,-1.3 m -2.6,2.4 q 1.25,0 1.25,1.25 0,0.5 -0.35,0.85 -0.35,0.4 -0.9,0.4 -1.25,0 -1.25,-1.3 0,-1.2 1.25,-1.2"
         fill="#6b6b6b"
         fill-rule="evenodd"
         stroke="none"
         id="path8" />
    </g>
    <g
       id="sprite1"
       transform="translate(660.25,0.5)">
      <use
         ffdec:characterId="68"
         height="1.5"
         transform="translate(-660.25,-0.5)"
         width="1320.3"
         xlink:href="#shape2"
         id="use8" />
    </g>
    <g
       id="shape2"
       transform="translate(660.25,0.5)">
      <path
         d="m 659.3,-0.5 0.55,0.25 0.2,0.5 -0.2,0.55 L 659.3,1 H -659.5 l -0.5,-0.2 -0.25,-0.55 0.25,-0.5 0.5,-0.25 H 659.3"
         fill="#ffff00"
         fill-opacity="0"
         fill-rule="evenodd"
         stroke="none"
         id="path9" />
    </g>
  </defs>
</svg>
