<?xml version="1.0" encoding="UTF-8" standalone="no"?>
<svg
   ffdec:objectType="frame"
   height="82.194084"
   width="75.699997"
   version="1.1"
   id="svg12"
   sodipodi:docname="1.svg"
   xmlns:inkscape="http://www.inkscape.org/namespaces/inkscape"
   xmlns:sodipodi="http://sodipodi.sourceforge.net/DTD/sodipodi-0.dtd"
   xmlns:xlink="http://www.w3.org/1999/xlink"
   xmlns="http://www.w3.org/2000/svg"
   xmlns:svg="http://www.w3.org/2000/svg"
   xmlns:ffdec="https://www.free-decompiler.com/flash">
  <sodipodi:namedview
     id="namedview12"
     pagecolor="#ffffff"
     bordercolor="#000000"
     borderopacity="0.25"
     inkscape:showpageshadow="2"
     inkscape:pageopacity="0.0"
     inkscape:pagecheckerboard="0"
     inkscape:deskcolor="#d1d1d1"
     fit-margin-top="5"
     fit-margin-left="5"
     fit-margin-right="5"
     fit-margin-bottom="5" />
  <g
     transform="translate(40.15,40.94051)"
     id="g3">
    <use
       ffdec:characterId="1299"
       height="39.5"
       transform="matrix(1,0,0,1.0198,-40.15,-40.9915)"
       width="69.849998"
       xlink:href="#sprite0"
       id="use1" />
    <use
       ffdec:characterId="229"
       ffdec:characterName="furniture_fla.fulltvshotcopy2_39"
       height="29.9"
       transform="matrix(1.2739,0,0,1.0263,-30.9375,6.7175)"
       width="41.549999"
       xlink:href="#sprite1"
       id="use2" />
    <use
       ffdec:characterId="1300"
       height="42.400002"
       transform="translate(-37.45,-1.15)"
       width="73"
       xlink:href="#shape3"
       id="use3" />
  </g>
  <defs
     id="defs12">
    <g
       id="sprite0"
       transform="translate(34.95,19.75)">
      <use
         ffdec:characterId="1298"
         height="39.5"
         transform="translate(-34.95,-19.75)"
         width="69.849998"
         xlink:href="#shape0"
         id="use4" />
    </g>
    <g
       id="shape0"
       transform="translate(34.95,19.75)">
      <path
         d="m 11.6,-17.5 -0.6,0.1 -1.1,-0.1 v 1.7 l -0.55,4.9 -2.5,20 H 6.7 L 5.35,19.6 H 33.6 l 0.4,0.1 0.25,-0.05 0.65,0.1 H -25 l 0.65,-0.1 0.25,0.05 0.4,-0.1 H 0.55 L -24.35,0.8 q -1,-0.6 -3.2,-2.25 l -3.8,-2.95 -1.35,-1.3 q -0.7,0.95 -0.95,1.05 v 0.05 l -1.3,-1 q 0.3,-1.05 2.25,-3.4 l 0.8,-0.15 1,0.75 q 0,0.35 -0.15,0.6 l -0.65,0.9 q 0.75,0.35 1.45,0.85 l 4,3 L 3.45,19.4 5.2,5.2 H 5.4 L 6.9,-7.3 q 0,-1.2 0.35,-3.9 L 7.95,-16 8.35,-17.75 7,-18.05 H 6.95 l 0.2,-1.65 4.1,0.3 0.55,0.65 -0.2,1.25"
         fill="#9a9a9a"
         fill-rule="evenodd"
         stroke="none"
         id="path4" />
    </g>
    <g
       id="sprite1"
       transform="translate(20.95,14.55)">
      <use
         ffdec:characterId="84"
         height="25.700001"
         transform="translate(-20.2,-12.55)"
         width="40.200001"
         xlink:href="#sprite2"
         id="use5" />
    </g>
    <g
       id="sprite2"
       transform="translate(20.15,12.85)">
      <use
         ffdec:characterId="80"
         height="25.700001"
         transform="translate(-20,-12.85)"
         width="39.950001"
         xlink:href="#shape1"
         id="use6" />
      <use
         ffdec:characterId="81"
         height="21.799999"
         transform="translate(-17.85,-10.85)"
         width="35.799999"
         xlink:href="#shape2"
         id="use7" />
    </g>
    <g
       id="shape1">
      <path
         d="M 39.95,25.7 H 0 V 0 h 39.95 v 25.7"
         fill="#808080"
         fill-rule="evenodd"
         stroke="none"
         id="path7" />
    </g>
    <g
       id="shape2"
       transform="translate(17.85,10.85)">
      <path
         d="M 6.25,-6.25 6.15,-6.5 v -0.85 l 0.1,-0.75 -0.05,-0.2 0.05,-0.25 0.2,-0.65 0.65,-1.1 0.45,-0.3 0.3,-0.05 0.8,0.3 0.45,0.8 0.4,1.8 0.05,1.5 L 9.4,-5.4 Q 9.1,-5 8.6,-5.05 8.05,-5.15 7.95,-5.7 L 7.9,-5.95 7.85,-6.4 H 7.7 l -0.3,0.05 v 0.4 l 0.05,0.45 q -0.1,0.45 -0.55,0.4 -0.35,0 -0.5,-0.45 l -0.15,-0.7 m 5,-0.1 q 0,0.8 -0.35,0.95 l -0.45,0.05 -0.4,-0.35 -0.2,-1 L 9.7,-8 9.55,-8.85 Q 9.5,-9.4 9.6,-9.8 9.55,-10.2 9.85,-10.5 l 1.2,0.05 0.85,0.9 0.2,-0.45 0.6,-0.65 0.55,0.1 0.25,0.15 0.65,0.65 v 0.7 q -0.1,0.5 -0.05,1.3 l 0.1,1.35 -0.2,0.7 q -0.3,0.45 -0.65,0.3 -0.25,-0.05 -0.45,-0.45 -0.35,-0.7 -0.35,-2.05 l -0.25,0.3 q -0.35,0.15 -0.6,0 l -0.15,-0.1 -0.35,-0.05 0.05,1.4 M 7.7,-9 q -0.3,0 -0.45,0.25 l -0.1,0.15 v 0.95 l 0.2,0.45 q 0.2,0.2 0.55,0.1 l 0.4,-0.45 v -1 L 8.2,-8.75 7.7,-9 m -3.15,3.95 q -0.5,0.45 -1.3,0.3 -0.4,-0.1 -1,-0.55 L 1.85,-5.6 1.65,-6 1.55,-6.4 V -6.75 L 1.45,-7 1.4,-8.25 1.85,-9.35 2.3,-10.1 q 0.35,-0.4 0.9,-0.5 h 0.3 l 0.2,-0.05 1.2,0.2 q 0.6,0.35 0.65,0.9 0.15,0.7 -0.45,1 l -0.55,0.1 Q 4.2,-8.55 4.1,-8.8 l -0.2,-0.3 -0.3,0.05 -0.25,0.2 -0.1,0.15 -0.1,0.5 q -0.1,0.7 0.05,1 l -0.05,0.35 0.05,0.2 0.6,0.35 0.05,-0.05 -0.3,-0.1 Q 3.2,-6.75 3.25,-7.1 l 0.35,-0.6 0.5,-0.2 1,-0.05 q 0.7,0.25 0.6,0.75 l -0.1,0.35 0.05,0.05 0.2,0.3 0.25,0.55 Q 6.2,-5.6 5.95,-5.4 5.8,-5.1 5.45,-5.1 l -0.5,-0.3 -0.4,0.35 m -20.85,1.2 h 0.1 0.6 0.25 0.1 0.4 0.2 0.65 0.1 0.2 2.55 8.25 3.05 2.15 0.3 l 1.1,0.05 h 0.8 l 1.2,0.05 h 0.7 0.25 2.1 0.5 0.55 1.6 l 0.65,0.05 h 1.7 0.4 0.2 0.95 0.85 0.35 0.25 l 0.15,-0.05 h 0.3 l 0.2,0.05 h 0.1 l 0.1,0.1 0.1,0.05 0.05,0.05 0.05,0.05 0.05,0.05 v 0.1 l 0.05,0.05 0.05,0.05 v 0.1 0.1 0.2 l -0.05,0.05 -0.05,0.1 v 0.05 l -0.05,0.05 -0.05,0.05 -0.05,0.05 -0.05,0.1 -0.1,0.05 -0.1,0.05 H 17.4 17.2 16.9 16.75 16.5 L 16.15,-2.3 H 15.3 l -0.95,0.05 h -0.2 -0.4 -1.7 H 11.4 9.8 9.25 8.75 6.65 L 6.4,-2.2 H 5.7 L 4.5,-2.15 H 3.7 2.6 L 2.3,-2.1 H 0.65 l 0.05,0.05 v 0.1 l 0.05,0.05 v 0.1 0.15 L 0.7,-1.6 v 0.1 0.15 l 0.05,0.05 v 0.1 0.25 0.1 0.2 0.1 0.2 0.1 0.25 0.1 0.2 0.1 0.2 0.1 0.25 0.1 0.2 0.1 0.2 0.1 0.25 0.1 0.2 0.1 0.2 0.1 0.25 0.1 0.2 0.1 0.2 0.1 0.25 0.1 l 0.6,0.25 q 1.1,0.45 1.65,0.9 0.85,0.7 1.05,1.5 l 0.05,0.9 q 0,1.1 -0.35,1.85 -0.4,0.95 -1.25,1.4 l -1.75,0.2 -1.7,-0.5 Q -3.45,9.4 -5.5,8 L -6.4,7.2 Q -7.05,6.25 -6.6,4.95 -6.4,4.3 -5.3,3 l 0.8,-0.6 1.75,0.15 q 1,0.3 1.95,0.7 V 3.05 2.95 2.75 2.65 2.4 2.3 2.1 2 1.75 1.65 1.45 1.35 1.15 1.05 0.8 0.7 0.5 0.4 0.2 0.1 v -0.25 -0.1 -0.2 -0.1 -0.2 -0.1 V -1.1 -1.2 -1.4 -1.5 -1.7 -1.8 -2 l 0.05,-0.05 V -2.1 L -2.9,-2.15 h -8.25 l -2.55,0.05 h -0.2 -0.1 -0.65 l -0.2,-0.05 h -0.4 -0.1 -0.25 l -0.6,0.05 h -0.1 l -0.35,-0.05 h -0.25 l -0.15,-0.1 -0.1,-0.05 -0.05,-0.05 -0.1,-0.05 -0.05,-0.05 -0.05,-0.1 V -2.6 l -0.05,-0.05 V -2.7 L -17.5,-2.75 V -2.8 -2.9 -3.1 -3.2 -3.25 l 0.05,-0.05 v -0.05 l 0.05,-0.05 0.05,-0.1 0.05,-0.05 0.05,-0.05 0.05,-0.05 0.1,-0.05 0.15,-0.05 0.1,-0.05 0.2,-0.05 h 0.35 M 1.75,1.3 V 0.9 l -0.1,-1.05 q 0,-0.65 0.5,-0.8 l 0.5,0.1 0.3,0.1 0.6,0.35 0.05,-0.2 q 0.25,-0.5 0.75,-0.5 0.55,0 0.7,0.5 L 5.15,-0.4 5.2,-0.15 5.25,1.1 5.1,1.6 4.75,1.8 Q 4.5,1.8 4.4,1.65 L 4.25,1.2 4.2,0.7 3.7,0.95 3.4,0.9 3.3,0.85 3.1,0.75 V 0.9 L 2.8,1.8 2.5,2 2.15,1.85 1.75,1.3 m 5.6,0.1 Q 7.15,2.2 6.45,2.1 6.05,2.1 5.8,1.75 L 5.3,1.1 5.35,0.3 q 0.1,-0.5 0.35,-0.85 l 0.5,-0.3 0.6,-0.1 0.5,0.45 0.1,0.3 V -0.3 L 7.7,-0.9 8,-1.05 q 0.5,0.1 0.6,0.65 l 0.1,0.3 0.15,0.25 V 0.2 L 9.2,-0.65 9.4,-1 10,-1.1 q 0.35,0.1 0.35,0.5 L 9.8,1.15 9.3,1.9 H 8.7 L 8.5,1.7 8.4,1.65 Q 8.05,1.6 7.75,1 L 7.45,0.25 7.35,1.4 m 7.15,-11.95 0.55,-0.3 0.7,0.1 h 0.6 q 0.45,0.1 0.55,0.35 l 0.05,0.25 v 0.3 l -0.45,0.45 -0.6,0.05 h -0.05 v 0.1 0.3 l 0.5,0.05 q 0.45,0.2 0.5,0.6 0.1,0.5 -0.4,0.7 l -0.55,0.2 0.05,0.35 1.05,0.2 q 0.6,0.45 0.3,0.95 -0.15,0.4 -0.75,0.55 l -0.95,0.1 q -0.7,0 -0.95,-0.25 -0.15,-0.15 -0.2,-0.8 l -0.05,-3.2 0.05,-0.7 0.05,-0.35 M 10.15,1.5 10.2,0.85 V 0.3 l 0.1,-0.5 0.25,-0.5 0.65,0.05 0.15,0.3 0.15,0.75 V 1.1 L 11.4,1.6 Q 11.25,2 10.75,2 10.3,1.9 10.15,1.5 m 2.4,0.7 -0.5,-0.05 Q 11.8,2 11.8,1.4 l 0.1,-1.7 0.05,-0.15 v -0.1 l 0.2,-0.4 0.8,-0.25 0.65,-0.1 0.15,-0.05 0.55,0.4 q 0.15,0.35 -0.15,0.65 l -0.45,0.25 0.15,0.25 v 0.15 l -0.15,0.3 -0.25,0.1 -0.1,0.05 0.25,-0.05 q 0.45,0 0.6,0.25 0.3,0.5 -0.2,0.9 L 13,2.15 12.55,2.2 M -0.85,8.4 -0.4,8.8 H 0.05 L 0.55,8.45 0.7,8.05 0.5,7.45 -0.1,7.2 -0.7,7.45 -0.95,8 -0.85,8.4 M 1.5,7 1.35,7.6 q 0,0.35 0.3,0.5 L 2,8.25 2.3,8.3 2.55,8.2 2.85,7.95 3,7.35 2.8,6.9 2.5,6.7 Q 1.95,6.45 1.5,7 M 6.2,0.45 6.15,0.5 V 0.8 L 6.35,0.95 6.5,1 6.75,0.8 6.8,0.75 V 0.55 L 6.75,0.5 V 0.4 L 6.5,0.15 V 0.2 L 6.35,0.25 6.2,0.35 v 0.1 M -12.55,-5.7 q -0.15,0.4 -0.45,0.4 l -0.35,-0.4 q -0.45,-1 -0.3,-2.15 l 0.1,-0.8 -0.05,-0.6 0.1,-0.5 0.25,-0.35 0.6,-0.1 0.55,0.95 0.75,1.45 -0.05,-1.55 0.15,-0.65 0.45,-0.3 0.55,0.25 q 0.2,0.2 0.2,0.95 v 2.9 q 0,0.75 -0.35,0.9 l -0.5,-0.1 h -0.5 l -0.6,-0.55 -0.3,-0.85 -0.1,-0.1 q 0,0.8 -0.15,1.2 M -17,-8.6 q -0.3,-0.05 -0.45,-0.25 L -17.5,-8.9 q -0.35,-0.2 -0.35,-0.65 l 0.35,-0.65 0.8,-0.15 2.25,0.1 0.5,0.15 0.2,0.2 0.1,0.35 -0.15,0.3 -0.1,0.05 -0.7,0.2 h -0.2 l -0.1,2.05 v 0.25 l 0.5,0.3 0.25,0.25 q 0.15,0.35 0,0.75 h -0.05 v 0.1 q -0.25,0.35 -0.65,0.35 l -0.4,0.1 -1.1,0.1 -0.6,-0.05 -0.55,-0.65 q -0.1,-0.45 0.2,-0.75 l 0.15,-0.1 v -0.1 l 0.55,-0.2 v -0.05 l 0.05,-0.65 0.15,-1.2 -0.05,-0.15 V -8.7 L -17,-8.6 m 6.05,9.9 q -0.15,0.5 -0.7,0.4 -0.5,-0.1 -0.5,-0.6 l -0.05,-1 h -0.2 l -0.3,-0.2 q -0.25,-0.35 -0.1,-0.7 l 0.55,-0.4 0.6,0.1 H -11 q 0.5,0 0.6,0.25 l 0.15,0.3 0.35,-0.15 0.05,-0.05 q 0.45,0 0.55,0.4 l 0.05,0.4 h 0.3 V 0 q -0.1,-0.6 0.2,-0.9 L -8.1,-1 -7.7,-0.55 -7.85,0.15 -8.05,1.2 -8.1,1.55 -8.4,1.75 -8.75,1.6 -8.8,1.15 H -9.25 L -9.4,1.45 -9.55,1.7 h -0.5 l -0.3,-0.4 -0.05,-1.25 0.05,-0.4 -0.05,0.05 q -0.1,0.15 -0.45,0.25 l -0.05,1 -0.05,0.35 m 9.05,-7.9 0.7,0.05 0.7,0.2 0.15,0.6 -0.2,0.55 q -0.2,0.15 -0.75,0.25 h -0.9 l -0.25,0.1 -0.25,0.05 q -0.5,-0.1 -0.75,-0.6 l -0.05,-1.45 -0.1,-0.2 0.05,-3 q 0.2,-0.6 0.8,-0.5 l 0.15,0.05 0.9,-0.1 0.75,0.1 0.5,0.5 q 0.05,0.35 -0.2,0.75 -0.2,0.2 -0.7,0.3 L -2,-8.9 v 0.4 h 0.25 l 0.45,0.05 0.4,0.3 0.05,0.5 q -0.1,0.35 -0.45,0.45 l -0.6,0.1 v 0.5 m -2.5,-2.4 0.2,2.15 0.05,0.45 0.25,0.3 q 0.3,0.45 -0.05,0.85 -0.25,0.25 -0.8,0.35 -0.75,0.2 -1.1,0 -0.45,-0.2 -0.45,-0.65 0,-0.5 0.4,-0.75 l 0.25,-0.1 v -0.3 l -0.1,-1.5 -0.05,-1.1 -0.45,-0.2 -0.2,-0.55 0.2,-0.55 0.7,-0.25 0.75,0.05 0.6,0.1 q 0.3,0.2 0.3,0.6 0,0.4 -0.3,0.6 l -0.2,0.1 V -9 m -5.05,3.45 -0.15,-0.8 -0.05,-1.85 0.15,-1.5 0.3,-0.45 0.55,-0.35 q 0.9,-0.2 1.65,0.5 0.6,0.5 0.8,1.6 0.15,0.45 0.05,1.05 l -0.55,1.1 q -0.9,1.2 -2,1.05 l -0.25,-0.05 -0.5,-0.3 m 1.2,-3.25 0.05,1 0.05,1.25 0.5,-0.5 q 0.35,-0.55 0.3,-1 -0.1,-0.65 -0.6,-0.8 l -0.3,-0.05 v 0.1 M -7.5,-0.4 -7.55,-0.55 -7.5,-0.7 -7.35,-0.95 -6.7,-1.1 H -6 l 0.05,-0.05 q 0.45,0.1 0.45,0.55 L -5.7,-0.15 -6,-0.05 -6.2,0 v 0.3 0.1 h 0.35 l 0.1,0.1 0.1,0.2 v 0.15 l -0.1,0.2 h 0.15 q 0.4,0.1 0.4,0.5 L -5.45,2 -5.75,2.1 -6.05,2.15 -6.4,2.1 -6.75,2.15 -7.15,1.8 -7.2,1.65 -7.15,1.55 -7.35,1.15 -7.45,0.2 -7.35,-0.15 -7.5,-0.4 M -3.9,4.4 -4,4.55 -4.3,4.35 -4.95,4.3 q -0.45,0.1 -0.55,0.65 0,0.5 0.5,0.75 l 0.2,0.05 -0.25,0.55 q -0.1,0.55 0.45,0.8 0.55,0.2 0.9,-0.25 l 0.25,-0.45 0.6,0.1 Q -2.4,6.4 -2.4,5.95 L -2.5,5.65 Q -2.65,5.4 -3.05,5.25 L -3,5.05 -2.9,4.4 Q -3.1,3.9 -3.4,4 -3.75,4.05 -3.9,4.4"
         fill="#ffffff"
         fill-rule="evenodd"
         stroke="none"
         id="path8" />
      <path
         d="m 7.7,-9 0.5,0.25 0.1,0.2 v 1 L 7.9,-7.1 Q 7.55,-7 7.35,-7.2 L 7.15,-7.65 V -8.6 l 0.1,-0.15 Q 7.4,-9 7.7,-9 M 6.2,0.45 V 0.35 L 6.35,0.25 6.5,0.2 V 0.15 L 6.75,0.4 V 0.5 L 6.8,0.55 v 0.2 L 6.75,0.8 6.5,1 6.35,0.95 6.15,0.8 V 0.5 L 6.2,0.45 M 1.5,7 Q 1.95,6.45 2.5,6.7 L 2.8,6.9 3,7.35 2.85,7.95 2.55,8.2 2.3,8.3 2,8.25 1.65,8.1 Q 1.35,7.95 1.35,7.6 L 1.5,7 M -0.85,8.4 -0.95,8 -0.7,7.45 -0.1,7.2 0.5,7.45 0.7,8.05 0.55,8.45 0.05,8.8 H -0.4 L -0.85,8.4 M -3.9,4.4 Q -3.75,4.05 -3.4,4 -3.1,3.9 -2.9,4.4 L -3,5.05 -3.05,5.25 q 0.4,0.15 0.55,0.4 l 0.1,0.3 q 0,0.45 -0.45,0.55 L -3.45,6.4 -3.7,6.85 Q -4.05,7.3 -4.6,7.1 -5.15,6.85 -5.05,6.3 L -4.8,5.75 -5,5.7 Q -5.5,5.45 -5.5,4.95 -5.4,4.4 -4.95,4.3 L -4.3,4.35 -4,4.55 -3.9,4.4"
         fill="#808080"
         fill-rule="evenodd"
         stroke="none"
         id="path9" />
    </g>
    <g
       id="shape3"
       transform="translate(37.45,1.15)">
      <path
         d="m 32.65,41.25 h -67.2 q -0.8,0.05 -1.3,-0.6 h -0.05 l -1.15,-0.75 -0.25,-0.55 -0.15,-0.7 0.05,-0.55 0.1,0.05 V 0.5 q 0.4,-1.35 1.15,-1.65 h 70.4 Q 35,-0.85 35.4,0.5 v 37.65 l 0.1,-0.05 0.05,0.55 q 0,0.6 -0.4,1.25 L 34,40.65 h -0.05 q -0.5,0.65 -1.3,0.6 m -1,-38.85 h -65.2 v 1.2 h 3.85 8 7.2 13.55 4.5 0.25 0.7 L 28.2,3.4 h 3.45 v -1 M 20.35,7.9 20.5,8.15 20.7,8.9 V 10 l 0.15,1.1 0.1,4 -0.15,6.3 0.15,6.35 -0.1,3.95 -0.15,1.15 v 1.1 l -0.15,0.6 -0.1,0.3 -0.2,0.3 -0.15,0.1 -0.35,0.25 -1.8,0.25 h -45.4 q -1.5,0.1 -2.2,-0.6 L -29.8,35 l -0.25,-0.45 -0.15,-0.6 v -1.1 l -0.15,-1.15 -0.1,-3.95 0.15,-6.35 -0.15,-6.3 0.1,-4 0.15,-1.1 V 8.9 q 0.3,-2 2.75,-1.8 h 45.4 q 1.7,-0.15 2.4,0.8 m 8.95,0.45 q 1.15,1.05 1.15,2.55 0,4.2 -3.8,4.2 -2.2,0 -3.15,-1.2 -0.55,-0.8 -0.55,-1.75 0,-4.75 3.75,-4.75 1.5,0.05 2.6,0.95 m -2.7,1.2 q -1.9,-0.5 -1.9,2.2 0,0.55 0.65,0.9 l 1.1,0.25 q 1.25,0 1.8,-0.8 l 0.25,-0.85 q 0,-1.2 -1.9,-1.7 m 2.7,8 q 1.15,1 1.15,2.55 0,4.2 -3.8,4.2 -2.2,0 -3.15,-1.25 -0.55,-0.75 -0.55,-1.75 0,-4.7 3.75,-4.7 1.5,0.05 2.6,0.95 m -1.05,3.7 0.25,-0.85 q 0,-1.15 -1.9,-1.7 -1.9,-0.5 -1.9,2.2 0,0.6 0.65,0.95 l 1.1,0.25 q 1.25,0 1.8,-0.85 M 31.65,5.4 3.8,5.35 V 5.3 L -33.55,5.25 V 37.9 h 65.2 V 5.4 M 17.8,9.7 h -45.1 l 0.1,1.1 0.05,4.25 -0.1,6.6 0.1,6.15 -0.05,4.25 -0.1,1.1 7.85,0.1 h 1.3 l 35.95,-0.1 -0.1,-1.1 -0.05,-4.25 0.1,-6.15 -0.1,-6.6 0.05,-4.25 0.1,-1.1 m 12.05,17.05 -0.2,0.6 -0.85,0.25 H 24.45 L 23.7,26.75 q 0,-0.55 0.75,-0.6 l 4.35,-0.1 q 0.55,0 1.05,0.7 m 0,3.05 -0.2,0.6 -0.85,0.25 H 24.45 L 23.7,29.8 q 0,-0.5 0.75,-0.55 L 28.8,29.1 q 0.55,0 1.05,0.7 m -6.7,5 -0.1,-0.7 q 0,-1.3 1.45,-1.3 1.4,0 1.4,1.35 0,0.75 -0.55,1.15 l -0.9,0.3 q -1,0 -1.3,-0.8 m 4.4,0 -0.1,-0.7 q 0,-1.3 1.45,-1.3 1.4,0 1.4,1.35 0,0.8 -0.6,1.15 l -0.9,0.3 q -0.9,0 -1.25,-0.8"
         fill="#6b6b6b"
         fill-rule="evenodd"
         stroke="none"
         id="path10" />
      <path
         d="m -29.8,35 0.15,0.15 q 0.7,0.7 2.2,0.6 h 45.4 l 1.8,-0.25 0.35,-0.25 0.15,-0.1 0.2,-0.3 0.1,-0.3 0.15,-0.6 v -1.1 l 0.15,-1.15 0.1,-3.95 -0.15,-6.35 0.15,-6.3 -0.1,-4 L 20.7,10 V 8.9 L 20.5,8.15 20.35,7.9 Q 20.6,7.3 21.05,7.35 22.3,7.5 22.3,12.6 l -0.05,0.55 v 8.15 l 0.05,9.25 q -0.1,5.8 -1.25,5.8 l -2.8,0.4 -47,0.05 q -0.8,0.2 -1.2,-0.3 l -0.25,-0.8 q 0,-0.45 0.4,-0.7 M 31.65,2.4 v 1 H 28.2 L 4.5,3.6 h -0.7 -0.25 -4.5 -13.55 -7.2 -8 -3.85 V 2.4 h 65.2 M 26.6,9.55 q 1.9,0.5 1.9,1.7 l -0.25,0.85 q -0.55,0.8 -1.8,0.8 l -1.1,-0.25 q -0.65,-0.35 -0.65,-0.9 0,-2.7 1.9,-2.2 m 1.65,11.7 q -0.55,0.85 -1.8,0.85 l -1.1,-0.25 Q 24.7,21.5 24.7,20.9 q 0,-2.7 1.9,-2.2 1.9,0.55 1.9,1.7 l -0.25,0.85"
         fill="#939393"
         fill-rule="evenodd"
         stroke="none"
         id="path11" />
      <path
         d="m -29.8,35 q -0.4,0.25 -0.4,0.7 l 0.25,0.8 q 0.4,0.5 1.2,0.3 l 47,-0.05 2.8,-0.4 q 1.15,0 1.25,-5.8 L 22.25,21.3 V 13.15 L 22.3,12.6 Q 22.3,7.5 21.05,7.35 20.6,7.3 20.35,7.9 19.65,6.95 17.95,7.1 h -45.4 Q -29.9,6.9 -30.2,8.9 V 10 l -0.15,1.1 -0.1,4 0.15,6.3 -0.15,6.35 0.1,3.95 0.15,1.15 v 1.1 l 0.15,0.6 0.25,0.45 M 29.3,8.35 q -1.1,-0.9 -2.6,-0.95 -3.75,0 -3.75,4.75 0,0.95 0.55,1.75 0.95,1.2 3.15,1.2 3.8,0 3.8,-4.2 0,-1.5 -1.15,-2.55 m 0,9.2 q -1.1,-0.9 -2.6,-0.95 -3.75,0 -3.75,4.7 0,1 0.55,1.75 0.95,1.25 3.15,1.25 3.8,0 3.8,-4.2 0,-1.55 -1.15,-2.55 M 31.65,5.4 v 32.5 h -65.2 V 5.25 L 3.8,5.3 V 5.35 L 31.65,5.4 m -4.1,29.4 q 0.35,0.8 1.25,0.8 l 0.9,-0.3 q 0.6,-0.35 0.6,-1.15 0,-1.35 -1.4,-1.35 -1.45,0 -1.45,1.3 l 0.1,0.7 m -4.4,0 q 0.3,0.8 1.3,0.8 l 0.9,-0.3 q 0.55,-0.4 0.55,-1.15 0,-1.35 -1.4,-1.35 -1.45,0 -1.45,1.3 l 0.1,0.7 m 6.7,-5 q -0.5,-0.7 -1.05,-0.7 l -4.35,0.15 Q 23.7,29.3 23.7,29.8 l 0.75,0.85 h 4.35 l 0.85,-0.25 0.2,-0.6 m 0,-3.05 q -0.5,-0.7 -1.05,-0.7 l -4.35,0.1 q -0.75,0.05 -0.75,0.6 l 0.75,0.85 h 4.35 l 0.85,-0.25 0.2,-0.6"
         fill="#7b7b7b"
         fill-rule="evenodd"
         stroke="none"
         id="path12" />
    </g>
  </defs>
</svg>
