<?xml version="1.0" encoding="UTF-8" standalone="no"?>
<svg
   ffdec:objectType="frame"
   height="36.099998"
   width="70.150002"
   version="1.1"
   id="svg5"
   sodipodi:docname="1.svg"
   xmlns:inkscape="http://www.inkscape.org/namespaces/inkscape"
   xmlns:sodipodi="http://sodipodi.sourceforge.net/DTD/sodipodi-0.dtd"
   xmlns:xlink="http://www.w3.org/1999/xlink"
   xmlns="http://www.w3.org/2000/svg"
   xmlns:svg="http://www.w3.org/2000/svg"
   xmlns:ffdec="https://www.free-decompiler.com/flash">
  <sodipodi:namedview
     id="namedview5"
     pagecolor="#ffffff"
     bordercolor="#000000"
     borderopacity="0.25"
     inkscape:showpageshadow="2"
     inkscape:pageopacity="0.0"
     inkscape:pagecheckerboard="0"
     inkscape:deskcolor="#d1d1d1"
     fit-margin-top="5"
     fit-margin-left="5"
     fit-margin-right="5"
     fit-margin-bottom="5" />
  <g
     transform="translate(34.8,17.85)"
     id="g2">
    <use
       ffdec:characterId="626"
       height="36.099998"
       transform="translate(-34.8,-17.85)"
       width="70.150002"
       xlink:href="#shape0"
       id="use1" />
    <use
       ffdec:characterId="598"
       height="8.3500004"
       transform="matrix(1.054,0,0,1,6.6771,4.25)"
       width="13.8"
       xlink:href="#sprite0"
       id="use2" />
  </g>
  <defs
     id="defs5">
    <g
       id="shape0"
       transform="translate(34.8,17.85)">
      <path
         d="m -7.05,-6 h 19.5 7.1 1.3 l 9.6,0.35 V -9.9 l 0.1,-3.3 -35.35,-0.05 H -5 -7.05 v 0.05 h -14.65 -3.05 -2.85 -2.95 l 0.1,3.3 v 4.25 l 3.3,-0.2 2.1,-0.1 2.5,-0.05 h 2.5 1.3 2 9.7 m 1.25,20.4 h 28.5 1.15 v -0.2 l 0.1,-1.75 v -13.7 h -3.1 V -1.3 h -1.3 l -7.1,-0.05 h -29.2 -0.1 l -2.55,0.05 -2.6,0.05 h -1.95 v 13.7 l 0.1,1.75 v 0.2 h 1.15 0.85 2.85 1.4 11.8 M -33.1,-1.2 q -1.05,0 -1.7,-0.9 v -15.6 l 0.1,-0.15 h 69.45 l 0.3,0.95 v 0.4 l 0.3,1.1 v 12.2 q -0.7,2 -2.2,2 L 32.2,-1.4 31.25,-1.35 H 29 l 0.05,15.6 -0.05,2.4 q -0.2,1.05 -0.7,1.6 h -56.5 q -0.6,-0.55 -0.8,-1.6 l -0.05,-2.4 0.05,-15.6 h -2.2 l -0.95,-0.05 -0.95,0.2"
         fill="#6b6b6b"
         fill-rule="evenodd"
         stroke="none"
         id="path2" />
      <path
         d="m -7.05,-13.2 v -0.05 H -5 -4.8 l 35.35,0.05 -0.1,3.3 v 4.25 L 20.85,-6 h -1.3 -7.1 -19.5 v -7.2 m -15.5,7.2 -2.5,0.05 0.25,-2.3 0.05,-4.95 h 3.05 q -0.85,1.7 -0.85,4.8 V -6 m -4.6,0.15 -3.3,0.2 V -9.9 l -0.1,-3.3 h 2.95 l 0.1,4.65 0.35,2.7 m 5.3,20.25 h -0.85 -1.15 v -0.2 l -0.1,-1.75 V -1.25 H -22 l 2.6,-0.05 2.55,-0.05 h 0.1 29.2 l 7.1,0.05 h 1.3 v 0.05 h 3.1 v 13.7 l -0.1,1.75 v 0.2 H 22.7 -5.8 q 0.3,-0.65 0.45,-1.65 L -5.3,9.1 Q -4.8,5.4 -4.9,2.25 V 2.2 L -7.05,2.15 h -4.05 l -5.2,0.05 h -0.45 -0.55 l -0.2,3.05 -0.1,9.15 H -19 l 0.2,-2.1 V 7.2 q 0.15,-2.45 0,-4.7 V 2.25 l -3.35,-0.05 0.05,5 V 12 l 0.25,2.4"
         fill="#8d978b"
         fill-rule="evenodd"
         stroke="none"
         id="path3" />
      <path
         d="m -7.05,-6 h -9.7 -2 -1.3 -2.5 v -2.4 q 0,-3.1 0.85,-4.8 H -7.05 V -6 m -18,0.05 -2.1,0.1 -0.35,-2.7 -0.1,-4.65 h 2.85 l -0.05,4.95 -0.25,2.3 M -5.8,14.4 h -11.8 l 0.1,-9.15 0.2,-3.05 h 0.55 0.45 l 5.2,-0.05 h 4.05 L -4.9,2.2 V 2.25 Q -4.8,5.4 -5.3,9.1 l -0.05,3.65 q -0.15,1 -0.45,1.65 m -13.2,0 h -2.85 L -22.1,12 V 7.2 l -0.05,-5 3.35,0.05 V 2.5 q 0.15,2.25 0,4.7 v 5.1 l -0.2,2.1"
         fill="#acbaaa"
         fill-rule="evenodd"
         stroke="none"
         id="path4" />
    </g>
    <g
       id="sprite0"
       transform="translate(6.9,4.2)">
      <use
         ffdec:characterId="597"
         height="8.3500004"
         transform="translate(-6.9,-4.2)"
         width="13.8"
         xlink:href="#shape1"
         id="use4" />
    </g>
    <g
       id="shape1"
       transform="translate(6.9,4.2)">
      <path
         d="m 5.4,-1.1 q -1.35,0 -1.45,-1.35 0,-1.75 1.5,-1.75 1.45,0 1.45,1.75 0,0.55 -0.35,0.9 Q 6.15,-1.1 5.4,-1.1 M 0.05,2.5 Q -1.6,2.5 -2.4,1.3 L -2.55,1 Q -3,1.45 -3.65,1.45 -5.05,1.45 -5.5,0.8 L -5.7,0.15 q 0,-2 1.9,-2.3 1.2,-0.2 1.6,0.55 0.7,-0.7 2.05,-1 2.7,-0.6 2.7,1.9 0,3.2 -2.5,3.2 M -4.9,3.7 q -0.35,0.45 -0.85,0.45 -1.3,0 -1.15,-1.2 0,-1.3 1.15,-1.3 1.1,-0.05 1.1,1.25 L -4.9,3.7"
         fill="#6b6b6b"
         fill-opacity="0.498039"
         fill-rule="evenodd"
         stroke="none"
         id="path5" />
    </g>
  </defs>
</svg>
