<?xml version="1.0" encoding="UTF-8" standalone="no"?>
<svg
   ffdec:objectType="frame"
   height="83.412956"
   width="98.599998"
   version="1.1"
   id="svg36"
   sodipodi:docname="2.svg"
   xmlns:inkscape="http://www.inkscape.org/namespaces/inkscape"
   xmlns:sodipodi="http://sodipodi.sourceforge.net/DTD/sodipodi-0.dtd"
   xmlns:xlink="http://www.w3.org/1999/xlink"
   xmlns="http://www.w3.org/2000/svg"
   xmlns:svg="http://www.w3.org/2000/svg"
   xmlns:ffdec="https://www.free-decompiler.com/flash">
  <sodipodi:namedview
     id="namedview36"
     pagecolor="#ffffff"
     bordercolor="#000000"
     borderopacity="0.25"
     inkscape:showpageshadow="2"
     inkscape:pageopacity="0.0"
     inkscape:pagecheckerboard="0"
     inkscape:deskcolor="#d1d1d1"
     fit-margin-top="5"
     fit-margin-left="5"
     fit-margin-right="5"
     fit-margin-bottom="5" />
  <g
     transform="translate(49.3,41.56296)"
     id="g18">
    <use
       ffdec:characterId="612"
       height="11.25"
       transform="matrix(-1.6391,0,0,0.848,11.55,-6.3)"
       width="29.4"
       xlink:href="#sprite0"
       id="use1" />
    <use
       ffdec:characterId="580"
       height="14.15"
       transform="matrix(0.9496,0,0,0.9496,5.65,-8.1)"
       width="17.6"
       xlink:href="#sprite1"
       id="use2" />
    <use
       ffdec:characterId="582"
       height="15.85"
       transform="matrix(-0.8104,0,0,0.8104,-7.8,-7.9)"
       width="24"
       xlink:href="#sprite2"
       id="use3" />
    <use
       ffdec:characterId="612"
       height="11.25"
       transform="matrix(0,1.0262,0.848,0,31.95,-14.9)"
       width="29.4"
       xlink:href="#sprite0"
       id="use4" />
    <use
       ffdec:characterId="582"
       height="15.85"
       transform="matrix(0,0.8104,0.8104,0,30.4,10.55)"
       width="24"
       xlink:href="#sprite2"
       id="use5" />
    <use
       ffdec:characterId="612"
       height="11.25"
       transform="matrix(0,1.6391,0.848,0,-42.1,-30.75)"
       width="29.4"
       xlink:href="#sprite3"
       id="use6" />
    <use
       ffdec:characterId="582"
       height="15.85"
       transform="matrix(0,0.8104,0.8104,0,-43.7,10.55)"
       width="24"
       xlink:href="#sprite4"
       id="use7" />
    <use
       ffdec:characterId="580"
       height="14.15"
       transform="matrix(0,-0.9496,0.9496,0,-43.9,-24.85)"
       width="17.6"
       xlink:href="#sprite5"
       id="use8" />
    <use
       ffdec:characterId="572"
       height="11.25"
       transform="matrix(-0.893,0,0,0.893,15.2,21)"
       width="64.400002"
       xlink:href="#sprite6"
       id="use9" />
    <use
       ffdec:characterId="576"
       height="14.1"
       transform="matrix(-0.893,0,0,-0.893,-4.6,41.85)"
       width="16.75"
       xlink:href="#sprite7"
       id="use10" />
    <use
       ffdec:characterId="572"
       height="11.25"
       transform="matrix(-0.893,0,0,0.893,36.2,21)"
       width="64.400002"
       xlink:href="#sprite6"
       id="use11" />
    <use
       ffdec:characterId="580"
       height="14.15"
       transform="matrix(-1,0,0,1,-31.7,18.8)"
       width="17.6"
       xlink:href="#sprite8"
       id="use12" />
    <use
       ffdec:characterId="580"
       height="14.15"
       transform="translate(31.7,18.8)"
       width="17.6"
       xlink:href="#sprite8"
       id="use13" />
    <use
       ffdec:characterId="582"
       height="15.85"
       transform="matrix(-0.893,0,0,-0.893,-1.45,33.4)"
       width="24"
       xlink:href="#sprite9"
       id="use14" />
    <use
       ffdec:characterId="580"
       height="14.15"
       transform="matrix(0,-0.9496,0.9496,0,30.2,-10.3)"
       width="17.6"
       xlink:href="#sprite5"
       id="use15" />
    <use
       ffdec:characterId="582"
       height="15.85"
       transform="matrix(0,0.8104,0.8104,0,-43.7,-11.4)"
       width="24"
       xlink:href="#sprite4"
       id="use16" />
    <use
       ffdec:characterId="584"
       height="15.15"
       transform="matrix(-0.848,0,0,0.848,-34.8,-8.1)"
       width="15.9"
       xlink:href="#sprite10"
       id="use17" />
    <use
       ffdec:characterId="69"
       height="1.5"
       id="subplatform1"
       transform="matrix(-0.069,0,-0.0977,0.86,45.9361,21.27)"
       width="1320.3"
       xlink:href="#sprite11" />
    <use
       ffdec:characterId="44"
       height="8"
       transform="matrix(-0.6912,-0.3991,-0.3991,0.6912,-37.7711,25.7401)"
       width="10.8"
       xlink:href="#sprite12"
       id="use18" />
  </g>
  <defs
     id="defs36">
    <g
       id="sprite0">
      <use
         ffdec:characterId="611"
         height="11.25"
         width="29.4"
         xlink:href="#shape0"
         id="use19" />
    </g>
    <g
       id="shape0">
      <path
         d="M 26.7,3.6 H 24 l -2.9,0.05 -8.35,-0.05 -6.8,0.05 -2.9,-0.2 0.2,1.8 h 0.1 L 3.4,7.95 7.75,8 h 3.75 4.8 3.6 1.4 v 0.05 h 4.8 1 l -0.15,-0.8 v -2 l 0.1,-1.8 -0.35,0.05 v 0.1 m 1.1,-3.2 q 0.3,-0.45 0.75,-0.4 0.5,0.05 0.85,0.7 v 9 l -0.25,0.2 q -0.1,0.4 -0.6,0.8 -0.8,0.65 -2.2,0.4 l -13.6,0.05 V 11.2 H 2.2 L 1.7,11.25 1.25,11.2 H 1.15 Q 0.4,11 0,10.65 V 6.1 L 0.05,5.25 H 0.1 L 0.4,2.8 0,2.45 V 1.3 Q 0.3,0.75 1.15,0.55 L 5.95,0.2 7.75,0.15 V 0.1 h 0.35 9.95 6.1 2.55 v 0.15 l 1.1,0.15"
         fill="#9a9a9a"
         fill-rule="evenodd"
         stroke="none"
         id="path19" />
      <path
         d="M 26.7,3.6 V 3.5 l 0.35,-0.05 -0.1,1.8 v 2 l 0.15,0.8 h -1 -4.8 V 8 H 19.9 16.3 11.5 7.75 L 3.4,7.95 3.35,5.25 H 3.25 L 3.05,3.45 5.95,3.65 12.75,3.6 21.1,3.65 24,3.6 h 2.7"
         fill="#bababa"
         fill-rule="evenodd"
         stroke="none"
         id="path20" />
    </g>
    <g
       id="sprite1">
      <use
         ffdec:characterId="579"
         height="14.15"
         width="17.6"
         xlink:href="#shape1"
         id="use20" />
    </g>
    <g
       id="shape1">
      <path
         d="m 15.7,2.95 0.95,1 0.95,2.95 V 7 7.1 l -0.95,2.95 -0.95,1 q -1.35,1.1 -4.05,1.8 L 8.1,13.15 7.6,13.05 7.5,13.2 v 0.3 L 7.35,13.7 7.05,13.9 6.8,13.95 H 6.4 V 14 L 4.15,14.15 H 3.65 3.5 L 0.95,14 0.8,13.7 Q 0.25,13.25 0.1,11.9 L 0.05,11.5 0,9.05 V 7.1 L 0.1,5 0.5,2.35 Q 0.25,2.05 0.3,1.55 0.3,0.55 1.4,0.45 2.1,0 3.8,0.1 L 6.6,0.2 Q 7.1,-0.4 7.35,0.65 V 0.3 L 7.5,0.5 v 0.3 l 0.1,0.15 0.5,-0.1 3.55,0.3 q 2.7,0.7 4.05,1.8 M 11.65,3.6 11.5,3.55 8.55,3.85 8.1,3.95 H 7.75 v 0.2 H 7.7 V 6.9 7.1 9.85 h 0.05 v 0.2 H 8.1 l 0.45,0.1 2.95,0.3 h 0.15 Q 14.5,9.55 15.45,7.1 V 7 L 15.5,6.9 H 15.45 Q 14.5,4.45 11.65,3.6 M 5.1,2.5 4.15,2.55 H 3.9 3.5 L 2.45,2.45 Q 2.3,2.55 2.25,2.6 L 2.55,5.2 2.6,7.1 2.55,8.95 2.45,11.5 2.4,11.85 3.5,11.75 V 11.7 H 3.8 4.1 4.15 L 5.7,11.8 5.55,10.15 V 6.9 L 5.65,3.55 5.75,2.5 H 5.1"
         fill="#9a9a9a"
         fill-rule="evenodd"
         stroke="none"
         id="path21" />
      <path
         d="m 11.65,3.6 q 2.85,0.85 3.8,3.3 H 15.5 L 15.45,7 v 0.1 q -0.95,2.45 -3.8,3.35 H 11.5 L 8.55,10.15 8.1,10.05 H 7.75 V 9.85 H 7.7 V 7.1 6.9 4.15 H 7.75 V 3.95 H 8.1 L 8.55,3.85 11.5,3.55 11.65,3.6 M 5.1,2.5 H 5.75 L 5.65,3.55 5.55,6.9 v 3.25 L 5.7,11.8 4.15,11.7 H 4.1 3.8 3.5 v 0.05 L 2.4,11.85 2.45,11.5 2.55,8.95 2.6,7.1 2.55,5.2 2.25,2.6 Q 2.3,2.55 2.45,2.45 L 3.5,2.55 H 3.9 4.15 L 5.1,2.5"
         fill="#ada5a5"
         fill-rule="evenodd"
         stroke="none"
         id="path22" />
    </g>
    <g
       id="sprite2">
      <use
         ffdec:characterId="581"
         height="15.85"
         width="24"
         xlink:href="#shape2"
         id="use22" />
    </g>
    <g
       id="shape2">
      <path
         d="M 21.5,2.9 21.25,2.75 20.1,2.85 h -0.45 -0.3 L 18.3,2.8 h -0.75 l 0.15,1.15 0.1,3.75 v 3.65 l -0.2,1.85 1.75,-0.1 h 0.05 0.35 0.35 v 0.05 l 1.2,0.1 -0.05,-0.35 -0.1,-2.85 V 5.8 q 0.1,-1.7 0.35,-2.9 m 2.4,2.7 0.1,4.55 -0.05,2.75 -0.05,0.4 q -0.2,1.55 -0.8,2.05 l -0.15,0.3 -2.85,0.2 H 20 19.9 19.35 l -3.25,-0.3 q -0.6,-0.2 -0.6,-1.1 L 15.7,13.9 15.65,13.85 H 15.3 V 13.8 l -0.35,0.1 V 13.75 H 9.05 V 13.9 L 8.7,13.8 v 0.05 H 8.35 L 8.3,13.9 8.5,14.45 q 0,0.9 -0.6,1.1 l -3.25,0.3 H 4.1 4 3.9 L 1.05,15.65 0.9,15.35 Q 0.3,14.85 0.1,13.3 L 0.05,12.9 0,10.15 0.1,5.6 Q 0.25,3.85 0.55,2.65 0.3,2.3 0.35,1.75 0.35,0.6 1.55,0.5 2.35,0 4.25,0.1 L 7.4,0.25 Q 7.95,-0.45 8.25,0.7 L 8.5,1.05 9.05,0.95 V 1.3 l 5.9,-0.15 v -0.2 l 0.55,0.1 0.25,-0.35 q 0.3,-1.15 0.85,-0.45 L 19.75,0.1 q 1.9,-0.1 2.7,0.4 1.2,0.1 1.2,1.25 l -0.2,0.9 0.45,2.95 M 15.3,4.65 V 4.45 L 14.95,4.4 V 4.15 L 9.05,4 V 4.4 L 8.7,4.45 v 0.2 H 8.6 v 3.05 2.95 h 0.1 v 0.15 l 0.35,0.1 V 11 q 0.8,-0.15 1.85,0 h 4.05 v -0.1 l 0.35,-0.1 v -0.15 h 0.1 V 7.7 4.65 H 15.3 M 5.7,2.8 4.65,2.85 H 4.35 3.9 L 2.75,2.75 2.5,2.9 2.85,5.8 v 4.25 L 2.75,12.9 2.7,13.25 3.9,13.15 V 13.1 H 4.25 4.6 4.65 L 6.4,13.2 6.2,11.35 V 7.7 L 6.3,3.95 6.45,2.8 H 5.7"
         fill="#9a9a9a"
         fill-rule="evenodd"
         stroke="none"
         id="path23" />
      <path
         d="m 21.5,2.9 q -0.25,1.2 -0.35,2.9 v 4.25 l 0.1,2.85 0.05,0.35 -1.2,-0.1 V 13.1 H 19.75 19.4 19.35 l -1.75,0.1 0.2,-1.85 V 7.7 L 17.7,3.95 17.55,2.8 h 0.75 l 1.05,0.05 h 0.3 0.45 l 1.15,-0.1 0.25,0.15 m -6.2,1.75 h 0.1 v 3.05 2.95 h -0.1 v 0.15 l -0.35,0.1 V 11 H 10.9 Q 9.85,10.85 9.05,11 V 10.9 L 8.7,10.8 V 10.65 H 8.6 V 7.7 4.65 H 8.7 V 4.45 L 9.05,4.4 V 4 l 5.9,0.15 V 4.4 l 0.35,0.05 v 0.2 M 5.7,2.8 H 6.45 L 6.3,3.95 6.2,7.7 v 3.65 L 6.4,13.2 4.65,13.1 H 4.6 4.25 3.9 v 0.05 l -1.2,0.1 0.05,-0.35 0.1,-2.85 V 5.8 L 2.5,2.9 2.75,2.75 3.9,2.85 h 0.45 0.3 L 5.7,2.8"
         fill="#ada5a5"
         fill-rule="evenodd"
         stroke="none"
         id="path24" />
    </g>
    <g
       id="sprite3">
      <use
         ffdec:characterId="611"
         height="11.25"
         width="29.4"
         xlink:href="#shape0"
         id="use24" />
    </g>
    <g
       id="sprite4">
      <use
         ffdec:characterId="581"
         height="15.85"
         width="24"
         xlink:href="#shape2"
         id="use25" />
    </g>
    <g
       id="sprite5">
      <use
         ffdec:characterId="579"
         height="14.15"
         width="17.6"
         xlink:href="#shape1"
         id="use26" />
    </g>
    <g
       id="sprite6">
      <use
         ffdec:characterId="571"
         height="11.25"
         width="64.400002"
         xlink:href="#shape3"
         id="use27" />
    </g>
    <g
       id="shape3">
      <path
         d="M 62.05,3.45 Q 59.3,3.7 53.05,3.6 H 13.1 Q 6.35,3.8 3.05,3.45 l 0.2,1.8 h 0.1 l 0.05,2.7 57.7,0.1 h 1 l -0.15,-0.8 v -2 l 0.1,-1.8 M 64.4,0.7 v 9 l -0.25,0.2 -0.6,0.8 q -0.9,0.7 -2.45,0.35 L 2.2,11.2 1.7,11.25 1.25,11.2 H 1.15 Q 0.4,11 0,10.65 V 6.1 L 0.05,5.25 H 0.1 L 0.4,2.8 0,2.45 V 1.3 Q 0.3,0.75 1.15,0.55 L 13.1,0.1 h 39.95 l 9.75,0.3 q 0.3,-0.45 0.75,-0.4 0.5,0.05 0.85,0.7"
         fill="#6b6b6b"
         fill-rule="evenodd"
         stroke="none"
         id="path27" />
      <path
         d="m 62.05,3.45 -0.1,1.8 v 2 l 0.15,0.8 h -1 L 3.4,7.95 3.35,5.25 H 3.25 L 3.05,3.45 Q 6.35,3.8 13.1,3.6 h 39.95 q 6.25,0.1 9,-0.15"
         fill="#bfbfbf"
         fill-rule="evenodd"
         stroke="none"
         id="path28" />
    </g>
    <g
       id="sprite7">
      <use
         ffdec:characterId="575"
         height="14.1"
         width="16.75"
         xlink:href="#shape4"
         id="use28" />
    </g>
    <g
       id="shape4">
      <path
         d="m 12.4,11.4 -0.1,1.55 q -0.3,1.15 -1.4,1.15 -0.95,0 -1.25,-1 H 9 L 7.8,13 q -0.4,0.85 -1.25,0.85 -1.25,0 -1.5,-1.3 v -1.5 q 0,-2.95 1.5,-3 H 6.6 L 7.25,7.85 7,6.55 V 6.45 H 2.15 2 Q 0.95,6.5 0.4,5.65 0,5.1 0,4.5 0,3.8 0.55,3.15 L 0.7,3 Q 1.05,2.25 2.2,2.25 L 3.25,2.5 H 7 Q 7.2,0 8.4,0 9.6,0 9.85,2.5 h 4.9 q 0.8,0.1 1.45,0.8 0.55,0.6 0.55,1.25 0,0.5 -0.4,1.05 -0.55,0.7 -1.6,0.85 H 9.8 V 6.5 L 9.55,7.8 10.55,8 11,7.95 q 1.4,0.2 1.4,3.45"
         fill="#6b6b6b"
         fill-rule="evenodd"
         stroke="none"
         id="path29" />
    </g>
    <g
       id="sprite8">
      <use
         ffdec:characterId="579"
         height="14.15"
         width="17.6"
         xlink:href="#shape5"
         id="use29" />
    </g>
    <g
       id="shape5">
      <path
         d="m 15.7,2.95 0.95,1 0.95,2.95 V 7 7.1 l -0.95,2.95 -0.95,1 q -1.35,1.1 -4.05,1.8 L 8.1,13.15 7.6,13.05 7.5,13.2 v 0.3 L 7.35,13.7 7.05,13.9 6.8,13.95 H 6.4 V 14 L 4.15,14.15 H 3.65 3.5 L 0.95,14 0.8,13.7 Q 0.25,13.25 0.1,11.9 L 0.05,11.5 0,9.05 V 7.1 L 0.1,5 0.5,2.35 Q 0.25,2.05 0.3,1.55 0.3,0.55 1.4,0.45 2.1,0 3.8,0.1 L 6.6,0.2 Q 7.1,-0.4 7.35,0.65 V 0.3 L 7.5,0.5 v 0.3 l 0.1,0.15 0.5,-0.1 3.55,0.3 q 2.7,0.7 4.05,1.8 M 11.65,3.6 11.5,3.55 8.55,3.85 8.1,3.95 H 7.75 v 0.2 H 7.7 V 6.9 7.1 9.85 h 0.05 v 0.2 H 8.1 l 0.45,0.1 2.95,0.3 h 0.15 Q 14.5,9.55 15.45,7.1 V 7 L 15.5,6.9 H 15.45 Q 14.5,4.45 11.65,3.6 M 5.1,2.5 4.15,2.55 H 3.9 3.5 L 2.45,2.45 Q 2.3,2.55 2.25,2.6 L 2.55,5.2 2.6,7.1 2.55,8.95 2.45,11.5 2.4,11.85 3.5,11.75 V 11.7 H 3.8 4.1 4.15 L 5.7,11.8 5.55,10.15 V 6.9 L 5.65,3.55 5.75,2.5 H 5.1"
         fill="#6b6b6b"
         fill-rule="evenodd"
         stroke="none"
         id="path30" />
      <path
         d="m 11.65,3.6 q 2.85,0.85 3.8,3.3 H 15.5 L 15.45,7 v 0.1 q -0.95,2.45 -3.8,3.35 H 11.5 L 8.55,10.15 8.1,10.05 H 7.75 V 9.85 H 7.7 V 7.1 6.9 4.15 H 7.75 V 3.95 H 8.1 L 8.55,3.85 11.5,3.55 11.65,3.6 M 5.1,2.5 H 5.75 L 5.65,3.55 5.55,6.9 v 3.25 L 5.7,11.8 4.15,11.7 H 4.1 3.8 3.5 v 0.05 L 2.4,11.85 2.45,11.5 2.55,8.95 2.6,7.1 2.55,5.2 2.25,2.6 Q 2.3,2.55 2.45,2.45 L 3.5,2.55 H 3.9 4.15 L 5.1,2.5"
         fill="#9d8989"
         fill-rule="evenodd"
         stroke="none"
         id="path31" />
    </g>
    <g
       id="sprite9">
      <use
         ffdec:characterId="581"
         height="15.85"
         width="24"
         xlink:href="#shape6"
         id="use31" />
    </g>
    <g
       id="shape6">
      <path
         d="M 21.5,2.9 21.25,2.75 20.1,2.85 h -0.45 -0.3 L 18.3,2.8 h -0.75 l 0.15,1.15 0.1,3.75 v 3.65 l -0.2,1.85 1.75,-0.1 h 0.05 0.35 0.35 v 0.05 l 1.2,0.1 -0.05,-0.35 -0.1,-2.85 V 5.8 q 0.1,-1.7 0.35,-2.9 m 2.4,2.7 0.1,4.55 -0.05,2.75 -0.05,0.4 q -0.2,1.55 -0.8,2.05 l -0.15,0.3 -2.85,0.2 H 20 19.9 19.35 l -3.25,-0.3 q -0.6,-0.2 -0.6,-1.1 L 15.7,13.9 15.65,13.85 H 15.3 V 13.8 l -0.35,0.1 V 13.75 H 9.05 V 13.9 L 8.7,13.8 v 0.05 H 8.35 L 8.3,13.9 8.5,14.45 q 0,0.9 -0.6,1.1 l -3.25,0.3 H 4.1 4 3.9 L 1.05,15.65 0.9,15.35 Q 0.3,14.85 0.1,13.3 L 0.05,12.9 0,10.15 0.1,5.6 Q 0.25,3.85 0.55,2.65 0.3,2.3 0.35,1.75 0.35,0.6 1.55,0.5 2.35,0 4.25,0.1 L 7.4,0.25 Q 7.95,-0.45 8.25,0.7 L 8.5,1.05 9.05,0.95 V 1.3 l 5.9,-0.15 v -0.2 l 0.55,0.1 0.25,-0.35 q 0.3,-1.15 0.85,-0.45 L 19.75,0.1 q 1.9,-0.1 2.7,0.4 1.2,0.1 1.2,1.25 l -0.2,0.9 0.45,2.95 M 15.3,4.65 V 4.45 L 14.95,4.4 V 4.15 L 9.05,4 V 4.4 L 8.7,4.45 v 0.2 H 8.6 v 3.05 2.95 h 0.1 v 0.15 l 0.35,0.1 V 11 q 0.8,-0.15 1.85,0 h 4.05 v -0.1 l 0.35,-0.1 v -0.15 h 0.1 V 7.7 4.65 H 15.3 M 5.7,2.8 4.65,2.85 H 4.35 3.9 L 2.75,2.75 2.5,2.9 2.85,5.8 v 4.25 L 2.75,12.9 2.7,13.25 3.9,13.15 V 13.1 H 4.25 4.6 4.65 L 6.4,13.2 6.2,11.35 V 7.7 L 6.3,3.95 6.45,2.8 H 5.7"
         fill="#6b6b6b"
         fill-rule="evenodd"
         stroke="none"
         id="path32" />
      <path
         d="m 21.5,2.9 q -0.25,1.2 -0.35,2.9 v 4.25 l 0.1,2.85 0.05,0.35 -1.2,-0.1 V 13.1 H 19.75 19.4 19.35 l -1.75,0.1 0.2,-1.85 V 7.7 L 17.7,3.95 17.55,2.8 h 0.75 l 1.05,0.05 h 0.3 0.45 l 1.15,-0.1 0.25,0.15 m -6.2,1.75 h 0.1 v 3.05 2.95 h -0.1 v 0.15 l -0.35,0.1 V 11 H 10.9 Q 9.85,10.85 9.05,11 V 10.9 L 8.7,10.8 V 10.65 H 8.6 V 7.7 4.65 H 8.7 V 4.45 L 9.05,4.4 V 4 l 5.9,0.15 V 4.4 l 0.35,0.05 v 0.2 M 5.7,2.8 H 6.45 L 6.3,3.95 6.2,7.7 v 3.65 L 6.4,13.2 4.65,13.1 H 4.6 4.25 3.9 v 0.05 l -1.2,0.1 0.05,-0.35 0.1,-2.85 V 5.8 L 2.5,2.9 2.75,2.75 3.9,2.85 h 0.45 0.3 L 5.7,2.8"
         fill="#9d8989"
         fill-rule="evenodd"
         stroke="none"
         id="path33" />
    </g>
    <g
       id="sprite10">
      <use
         ffdec:characterId="583"
         height="15.15"
         width="15.9"
         xlink:href="#shape7"
         id="use33" />
    </g>
    <g
       id="shape7">
      <path
         d="m 12.5,6.45 q -0.4,-1.5 -1.7,-2.3 l -0.55,0.9 -0.7,1.1 0.1,0.35 2.7,-0.15 0.15,0.1 M 12.65,8 11.55,8.15 h -1.6 l 0.15,0.35 0.8,2.6 1.2,-1.2 Q 12.6,9.05 12.65,8 M 15.9,7.85 q 0,2.45 -1.05,4.2 -1.9,3.1 -6.75,3.1 -4.8,0 -6.9,-3.1 Q 0,10.3 0,8.55 0,4.6 2.5,2.2 4.7,0.1 7.95,0 q 3.2,-0.1 5.45,1.9 2.5,2.15 2.5,5.95 M 7.55,3.95 8.05,5.2 8.45,5.25 9,4.3 9.55,3.6 8,3.3 7.1,3.25 7.55,3.95 M 5.6,3.5 Q 3.75,4.1 3.45,6.35 L 4.7,6.05 q 0.95,-0.15 1.65,0 L 6.7,5.55 5.6,3.5 M 3.4,7.85 Q 3.45,9 4.05,9.9 L 5.25,11 Q 5.65,9.8 6.6,8.2 L 6.4,7.85 6.35,7.6 4.35,7.85 H 3.4 m 3.5,3.7 1.35,0.1 L 9.7,11.5 8.85,10.15 8.3,8.75 l -0.85,1.8 -0.55,1"
         fill="#9a9a9a"
         fill-rule="evenodd"
         stroke="none"
         id="path34" />
    </g>
    <g
       id="sprite11"
       transform="translate(660.25,0.5)">
      <use
         ffdec:characterId="68"
         height="1.5"
         transform="translate(-660.25,-0.5)"
         width="1320.3"
         xlink:href="#shape8"
         id="use34" />
    </g>
    <g
       id="shape8"
       transform="translate(660.25,0.5)">
      <path
         d="m 659.3,-0.5 0.55,0.25 0.2,0.5 -0.2,0.55 L 659.3,1 H -659.5 l -0.5,-0.2 -0.25,-0.55 0.25,-0.5 0.5,-0.25 H 659.3"
         fill="#ffff00"
         fill-opacity="0"
         fill-rule="evenodd"
         stroke="none"
         id="path35" />
    </g>
    <g
       id="sprite12"
       transform="translate(5.4,4)">
      <use
         ffdec:characterId="43"
         height="8"
         transform="translate(-5.4,-4)"
         width="10.8"
         xlink:href="#shape9"
         id="use35" />
    </g>
    <g
       id="shape9"
       transform="translate(5.4,4)">
      <path
         d="m 2.9,-0.35 q 0,-1.25 1.25,-1.25 1.25,0 1.25,1.2 0,1.3 -1.25,1.3 Q 3.6,0.9 3.25,0.5 2.9,0.15 2.9,-0.35 m 0.35,-2.3 q 0,0.55 -0.35,0.9 -0.4,0.45 -1,0.45 -1.35,0 -1.35,-1.4 0,-1.3 1.35,-1.3 1.35,0 1.35,1.35 m -3.1,1.9 h 0.2 q 2.6,0.1 2.6,2.8 l -0.3,1 Q 2.05,4 0.45,4 H 0.35 0.15 0.1 -0.45 q -1.6,0 -2.2,-0.95 l -0.3,-1 q 0,-2.8 2.8,-2.8 h 0.3 M -1.55,-4 q 1.35,0 1.35,1.35 0,0.55 -0.4,0.9 -0.4,0.45 -0.95,0.45 -1.4,0 -1.4,-1.4 0,-1.3 1.4,-1.3 m -2.6,2.4 q 1.25,0 1.25,1.25 0,0.5 -0.35,0.85 -0.35,0.4 -0.9,0.4 -1.25,0 -1.25,-1.3 0,-1.2 1.25,-1.2"
         fill="#6b6b6b"
         fill-rule="evenodd"
         stroke="none"
         id="path36" />
    </g>
  </defs>
</svg>
