<?xml version="1.0" encoding="UTF-8" standalone="no"?>
<svg
   ffdec:objectType="frame"
   height="39.318657"
   width="45.5"
   version="1.1"
   id="svg17"
   sodipodi:docname="2.svg"
   xmlns:inkscape="http://www.inkscape.org/namespaces/inkscape"
   xmlns:sodipodi="http://sodipodi.sourceforge.net/DTD/sodipodi-0.dtd"
   xmlns:xlink="http://www.w3.org/1999/xlink"
   xmlns="http://www.w3.org/2000/svg"
   xmlns:svg="http://www.w3.org/2000/svg"
   xmlns:ffdec="https://www.free-decompiler.com/flash">
  <sodipodi:namedview
     id="namedview17"
     pagecolor="#ffffff"
     bordercolor="#000000"
     borderopacity="0.25"
     inkscape:showpageshadow="2"
     inkscape:pageopacity="0.0"
     inkscape:pagecheckerboard="0"
     inkscape:deskcolor="#d1d1d1"
     fit-margin-top="5"
     fit-margin-left="5"
     fit-margin-right="5"
     fit-margin-bottom="5" />
  <g
     transform="translate(22.7,21.368657)"
     id="g5">
    <use
       ffdec:characterId="743"
       height="14.8"
       transform="translate(-10.5,-2.35)"
       width="21.1"
       xlink:href="#sprite0"
       id="use1" />
    <use
       ffdec:characterId="69"
       height="1.5"
       id="subplatform1"
       transform="matrix(0.0244,0,0.0977,0.86,-16.1283,-7.03)"
       width="1320.3"
       xlink:href="#sprite3" />
    <use
       ffdec:characterId="44"
       height="8"
       transform="matrix(-0.9999,0,0,-0.9999,5.6497,4.1998)"
       width="10.8"
       xlink:href="#sprite4"
       id="use2" />
    <use
       ffdec:characterId="745"
       height="39.299999"
       transform="translate(-22.7,-21.35)"
       width="45.5"
       xlink:href="#shape5"
       id="use3" />
    <use
       ffdec:characterId="697"
       height="2.3"
       transform="rotate(90,15.175,-4.575)"
       width="2.55"
       xlink:href="#sprite5"
       id="use4" />
    <use
       ffdec:characterId="708"
       height="2.3"
       transform="rotate(90,5.675,-14.075)"
       width="2.55"
       xlink:href="#sprite6"
       id="use5" />
  </g>
  <defs
     id="defs17">
    <g
       id="sprite0"
       transform="translate(-0.6)">
      <use
         ffdec:characterId="742"
         height="12.65"
         transform="translate(1,1.25)"
         width="20.4"
         xlink:href="#shape0"
         id="use6" />
      <use
         ffdec:characterId="721"
         height="13.45"
         transform="translate(0.6,0.85)"
         width="21.1"
         xlink:href="#sprite1"
         id="use7" />
      <use
         ffdec:characterId="721"
         height="13.45"
         transform="matrix(1,0,0,0.0597,0.6,0)"
         width="21.1"
         xlink:href="#sprite2"
         id="use8" />
    </g>
    <g
       id="shape0"
       transform="translate(-1,-1.25)">
      <path
         d="m 20.9,1.3 0.5,0.4 V 13.9 H 1 V 3.15 L 1.05,3 1,2.9 V 1.8 Q 1.15,1.45 1.55,1.3 L 1.7,1.25 h 19.1 l 0.1,0.05 m -3.45,2.6 q -1.8,0.1 -1.8,1.75 0,0.65 0.35,1.1 0.5,0.65 1.5,0.65 1.1,0 1.6,-0.9 l 0.2,-0.85 q 0,-1.9 -1.85,-1.75 M 11.4,9.45 h -0.35 l -0.7,0.5 q -0.7,0.5 -1.15,0.5 L 8.25,10.15 Q 7.75,9.85 7.75,9.35 L 8.15,8.8 8.55,8.25 8.5,7.9 8.45,7.85 q -1.9,-0.75 -1.9,2.1 0,0.6 0.3,0.95 0.6,0.85 2.35,0.85 1,0 1.75,-0.65 l 0.25,-0.25 v -0.1 l 0.05,0.05 0.25,0.3 q 0.75,0.65 1.75,0.65 1.75,0 2.4,-0.85 L 15.9,9.95 q 0,-2.85 -1.85,-2.1 l -0.1,0.05 -0.05,0.35 0.4,0.55 0.45,0.55 q 0,0.5 -0.5,0.8 l -1,0.3 L 12.1,9.95 11.4,9.45 11.25,9.7 11.4,9.45 M 5,3.9 Q 3.15,3.75 3.15,5.65 L 3.4,6.5 q 0.45,0.9 1.55,0.9 1,0 1.5,-0.65 Q 6.85,6.3 6.85,5.65 6.85,4 5,3.9"
         fill="#959595"
         fill-rule="evenodd"
         stroke="none"
         id="path8" />
      <path
         d="M 17.45,3.9 Q 19.3,3.75 19.3,5.65 L 19.1,6.5 Q 18.6,7.4 17.5,7.4 16.5,7.4 16,6.75 15.65,6.3 15.65,5.65 15.65,4 17.45,3.9 m -6.05,5.55 0.7,0.5 1.15,0.5 1,-0.3 q 0.5,-0.3 0.5,-0.8 L 14.3,8.8 13.9,8.25 13.95,7.9 14.05,7.85 Q 15.9,7.1 15.9,9.95 l -0.25,0.95 q -0.65,0.85 -2.4,0.85 -1,0 -1.75,-0.65 L 11.25,10.8 11.2,10.75 v 0.1 l -0.25,0.25 q -0.75,0.65 -1.75,0.65 -1.75,0 -2.35,-0.85 -0.3,-0.35 -0.3,-0.95 0,-2.85 1.9,-2.1 L 8.5,7.9 8.55,8.25 8.15,8.8 7.75,9.35 q 0,0.5 0.5,0.8 l 0.95,0.3 q 0.45,0 1.15,-0.5 l 0.7,-0.5 H 11.4 L 11.25,9.7 11.4,9.45 M 5,3.9 Q 6.85,4 6.85,5.65 6.85,6.3 6.45,6.75 5.95,7.4 4.95,7.4 3.85,7.4 3.4,6.5 L 3.15,5.65 Q 3.15,3.75 5,3.9"
         fill="#c9c9c9"
         fill-rule="evenodd"
         stroke="none"
         id="path9" />
    </g>
    <g
       id="sprite1">
      <use
         ffdec:characterId="55"
         height="13.45"
         width="21.1"
         xlink:href="#shape1"
         id="use9" />
    </g>
    <g
       id="shape1">
      <path
         d="M 21.1,0 V 13.45 H 0 V 0 h 21.1"
         fill="#ffffff"
         fill-opacity="0.0980392"
         fill-rule="evenodd"
         stroke="none"
         id="path10" />
    </g>
    <g
       id="sprite2">
      <use
         ffdec:characterId="55"
         height="13.45"
         width="21.1"
         xlink:href="#shape2"
         id="use10" />
    </g>
    <g
       id="shape2">
      <path
         d="M 21.1,0 V 13.45 H 0 V 0 h 21.1"
         fill="#ffffff"
         fill-opacity="0.247059"
         fill-rule="evenodd"
         stroke="none"
         id="path11" />
    </g>
    <g
       id="sprite3"
       transform="translate(660.25,0.5)">
      <use
         ffdec:characterId="68"
         height="1.5"
         transform="translate(-660.25,-0.5)"
         width="1320.3"
         xlink:href="#shape3"
         id="use11" />
    </g>
    <g
       id="shape3"
       transform="translate(660.25,0.5)">
      <path
         d="m 659.3,-0.5 0.55,0.25 0.2,0.5 -0.2,0.55 L 659.3,1 H -659.5 l -0.5,-0.2 -0.25,-0.55 0.25,-0.5 0.5,-0.25 H 659.3"
         fill="#ffff00"
         fill-opacity="0"
         fill-rule="evenodd"
         stroke="none"
         id="path12" />
    </g>
    <g
       id="sprite4"
       transform="translate(5.4,4)">
      <use
         ffdec:characterId="43"
         height="8"
         transform="translate(-5.4,-4)"
         width="10.8"
         xlink:href="#shape4"
         id="use12" />
    </g>
    <g
       id="shape4"
       transform="translate(5.4,4)">
      <path
         d="m 2.9,-0.35 q 0,-1.25 1.25,-1.25 1.25,0 1.25,1.2 0,1.3 -1.25,1.3 Q 3.6,0.9 3.25,0.5 2.9,0.15 2.9,-0.35 m 0.35,-2.3 q 0,0.55 -0.35,0.9 -0.4,0.45 -1,0.45 -1.35,0 -1.35,-1.4 0,-1.3 1.35,-1.3 1.35,0 1.35,1.35 m -3.1,1.9 h 0.2 q 2.6,0.1 2.6,2.8 l -0.3,1 Q 2.05,4 0.45,4 H 0.35 0.15 0.1 -0.45 q -1.6,0 -2.2,-0.95 l -0.3,-1 q 0,-2.8 2.8,-2.8 h 0.3 M -1.55,-4 q 1.35,0 1.35,1.35 0,0.55 -0.4,0.9 -0.4,0.45 -0.95,0.45 -1.4,0 -1.4,-1.4 0,-1.3 1.4,-1.3 m -2.6,2.4 q 1.25,0 1.25,1.25 0,0.5 -0.35,0.85 -0.35,0.4 -0.9,0.4 -1.25,0 -1.25,-1.3 0,-1.2 1.25,-1.2"
         fill="#6b6b6b"
         fill-opacity="0.32549"
         fill-rule="evenodd"
         stroke="none"
         id="path13" />
    </g>
    <g
       id="shape5"
       transform="translate(22.7,21.35)">
      <path
         d="m 10.5,-13.7 v 3.65 l -0.05,0.4 q 2.2,0.2 2.2,1.3 L 12.5,-8 h 2.1 l 0.8,0.15 q 0.15,-0.25 0.3,-0.15 2,1.15 1.9,4.85 L 17.15,3 17.2,3.95 18.6,3.9 21.65,4.05 q 0.45,0.1 0.45,0.8 l -0.25,0.7 -3.25,0.3 h -1.35 v 1.2 L 18.5,7 q 3.8,-0.05 3.8,0.9 L 22.2,8.4 19,8.85 h -1.75 v 1.5 l 4.1,-0.5 q 0.9,-0.2 1.25,0.35 l 0.2,0.55 -0.15,0.5 q -0.3,0.45 -1.05,0.45 l -4.35,-0.05 v 3 1.4 q -0.15,0.8 -0.7,1.1 -0.35,0.55 -1.5,0.8 L 3.5,17.9 H 0.05 l -15,0.05 q -1.15,-0.25 -1.5,-0.8 -0.55,-0.3 -0.7,-1.1 v -1.4 -3 l -4.35,0.05 q -0.75,0 -1.05,-0.45 l -0.15,-0.5 0.2,-0.55 q 0.35,-0.55 1.25,-0.35 l 4.1,0.5 V 8.85 H -18.9 L -22.1,8.4 -22.2,7.9 q 0,-0.95 3.8,-0.9 l 1.25,0.05 V 5.85 H -18.5 L -21.75,5.55 -22,4.85 q 0,-0.7 0.45,-0.8 L -18.5,3.9 -17.1,3.95 -17.05,3 -17.5,-3.15 q -0.1,-3.7 1.9,-4.85 0.15,-0.1 0.3,0.15 L -14.5,-8 h 2.1 l -0.15,-0.35 q 0,-1.1 2.2,-1.3 l -0.05,-0.4 v -3.65 l 0.05,-2.15 q -2.3,-0.4 -2.3,-2.65 0,-3.1 3.2,-2.85 3.15,0.25 3.15,2.9 0,0.95 -0.65,1.75 -0.6,0.7 -1.55,0.9 v 2.05 l 0.05,4.1 q 2.25,0.15 2.25,1.25 v 0.35 l 2,-0.05 h 8.5 l 2,0.05 V -8.4 q 0,-1.1 2.25,-1.25 l 0.05,-4.1 V -15.8 Q 7.65,-16 7.05,-16.7 6.4,-17.5 6.4,-18.45 q 0,-2.65 3.15,-2.9 3.2,-0.25 3.2,2.85 0,2.25 -2.3,2.65 l 0.05,2.15 m 2.9,12.45 q 0,-1.35 0.15,-2.4 L 13.6,-4.3 3.5,-4.2 v 0.05 L 1.3,-4.2 H 0.1 l -3.5,0.05 V -4.2 l -10.1,-0.1 0.1,1 0.15,2.05 V 0.2 l -0.15,8.9 v 0.45 l -0.2,2.85 -0.05,0.3 -0.2,1.75 0.85,0.05 0.45,0.05 9.15,0.05 H 0.05 3.5 L 12.65,14.55 13.4,14.5 13.95,14.45 13.8,13.25 13.7,12.15 13.5,9.1 13.35,0.2 13.4,-1.25 m -24.3,0 0.05,-0.1 -0.05,-0.15 q 0,-0.5 0.5,-0.65 l 0.05,-0.1 0.05,0.05 h 0.05 0.15 q 1.4,-0.2 5.9,-0.05 h 8.5 q 4.8,-0.15 6.05,0.05 h 0.05 l 0.05,-0.05 0.05,0.1 0.4,0.25 0.1,0.4 -0.05,0.15 0.05,0.1 q 0.35,0.9 0.35,2.2 l -0.1,3.35 0.1,6.7 v 0.85 0.1 l -0.2,0.35 -0.1,0.3 Q 10.8,12.95 10,12.95 h -19.9 -0.2 q -0.85,-0.05 -0.95,-0.6 V 12.3 l -0.2,-0.45 V 11 l 0.1,-6.7 -0.1,-3.35 q 0,-1.25 0.35,-2.2 m 22.4,-2.5 0.4,-0.1 q 0.85,0 0.85,0.85 l -0.05,0.35 q -0.2,0.45 -0.8,0.45 -0.75,0 -0.8,-0.65 V -3 q 0,-0.6 0.4,-0.75 m -1.85,8 -0.1,-3.55 0.1,-1.4 h -19.2 l 0.1,1.4 -0.1,3.55 0.15,6.8 V 11.3 H 9.5 v -0.25 l 0.15,-6.8 m 2.75,9.35 q -0.8,0 -0.8,-0.8 0,-0.8 0.8,-0.8 0.85,0 0.85,0.85 l -0.1,0.4 Q 12.95,13.6 12.4,13.6 M -12.6,-2.65 -12.65,-3 q 0,-0.85 0.85,-0.85 0.8,0 0.8,0.85 0,0.8 -0.8,0.8 -0.6,0 -0.8,-0.45 M -12.15,12 q 0.4,0.05 0.6,0.4 l 0.05,0.4 q 0,0.65 -0.5,0.8 h -0.3 q -0.55,0 -0.75,-0.35 l -0.1,-0.4 0.05,-0.3 Q -13,12 -12.3,12 h 0.15"
         fill="#6b6b6b"
         fill-rule="evenodd"
         stroke="none"
         id="path14" />
      <path
         d="m -13.25,-1.25 -0.15,-2.05 -0.1,-1 10.1,0.1 v 0.05 L 0.1,-4.2 h 1.2 l 2.2,0.05 V -4.2 l 10.1,-0.1 -0.05,0.65 Q 13.4,-2.6 13.4,-1.25 H 11 L 10.95,-1.35 11,-1.5 10.9,-1.9 10.5,-2.15 10.45,-2.25 10.4,-2.2 H 10.35 Q 9.1,-2.4 4.3,-2.25 h -8.5 q -4.5,-0.15 -5.9,0.05 h -0.15 -0.05 l -0.05,-0.05 -0.05,0.1 q -0.5,0.15 -0.5,0.65 l 0.05,0.15 -0.05,0.1 h -2.35 M 11.5,-3.75 Q 11.1,-3.6 11.1,-3 v 0.15 q 0.05,0.65 0.8,0.65 0.6,0 0.8,-0.45 L 12.75,-3 q 0,-0.85 -0.85,-0.85 l -0.4,0.1 m -24.1,1.1 q 0.2,0.45 0.8,0.45 0.8,0 0.8,-0.8 0,-0.85 -0.8,-0.85 -0.85,0 -0.85,0.85 l 0.05,0.35"
         fill="#b8b8b8"
         fill-rule="evenodd"
         stroke="none"
         id="path15" />
      <path
         d="m 13.4,-1.25 -0.05,1.45 0.15,8.9 0.2,3.05 0.1,1.1 0.15,1.2 L 13.4,14.5 12.65,14.55 3.5,14.6 H 0.05 -3.4 l -9.15,-0.05 -0.45,-0.05 -0.85,-0.05 0.2,-1.75 0.05,-0.3 0.2,-2.85 V 9.1 l 0.15,-8.9 v -1.45 h 2.35 q -0.35,0.95 -0.35,2.2 l 0.1,3.35 -0.1,6.7 v 0.85 l 0.2,0.45 v 0.05 q 0.1,0.55 0.95,0.6 H -9.9 10 q 0.8,0 1.05,-0.35 l 0.1,-0.3 0.2,-0.35 V 11.85 11 l -0.1,-6.7 0.1,-3.35 q 0,-1.3 -0.35,-2.2 h 2.4 m -1,14.85 q 0.55,0 0.75,-0.35 l 0.1,-0.4 Q 13.25,12 12.4,12 q -0.8,0 -0.8,0.8 0,0.8 0.8,0.8 M -12.15,12 h -0.15 q -0.7,0 -0.8,0.55 l -0.05,0.3 0.1,0.4 q 0.2,0.35 0.75,0.35 h 0.3 q 0.5,-0.15 0.5,-0.8 l -0.05,-0.4 q -0.2,-0.35 -0.6,-0.4"
         fill="#989898"
         fill-rule="evenodd"
         stroke="none"
         id="path16" />
    </g>
    <g
       id="sprite5"
       transform="translate(1.3,1.15)">
      <use
         ffdec:characterId="695"
         height="2.3"
         transform="translate(-1.3,-1.15)"
         width="2.55"
         xlink:href="#shape6"
         id="use16" />
    </g>
    <g
       id="shape6"
       transform="translate(1.3,1.15)">
      <path
         d="m 1.25,-0.3 v 0.25 q 0,1.2 -1.3,1.2 L -0.45,1.1 Q -1,1 -1.2,0.55 l -0.05,-0.5 -0.05,-0.1 0.05,-0.25 0.2,-0.55 q 0.3,-0.4 1.05,-0.3 l 0.95,0.35 0.3,0.5"
         fill="#ffffff"
         fill-rule="evenodd"
         stroke="none"
         id="path17" />
    </g>
    <g
       id="sprite6"
       transform="translate(1.3,1.15)">
      <use
         ffdec:characterId="695"
         height="2.3"
         transform="translate(-1.3,-1.15)"
         width="2.55"
         xlink:href="#shape6"
         id="use17" />
    </g>
  </defs>
</svg>
