<?xml version="1.0" encoding="UTF-8" standalone="no"?>
<svg
   ffdec:objectType="frame"
   height="27.480488"
   width="20.15"
   version="1.1"
   id="svg5"
   sodipodi:docname="1.svg"
   xmlns:inkscape="http://www.inkscape.org/namespaces/inkscape"
   xmlns:sodipodi="http://sodipodi.sourceforge.net/DTD/sodipodi-0.dtd"
   xmlns:xlink="http://www.w3.org/1999/xlink"
   xmlns="http://www.w3.org/2000/svg"
   xmlns:svg="http://www.w3.org/2000/svg"
   xmlns:ffdec="https://www.free-decompiler.com/flash">
  <sodipodi:namedview
     id="namedview5"
     pagecolor="#ffffff"
     bordercolor="#000000"
     borderopacity="0.25"
     inkscape:showpageshadow="2"
     inkscape:pageopacity="0.0"
     inkscape:pagecheckerboard="0"
     inkscape:deskcolor="#d1d1d1"
     fit-margin-top="5"
     fit-margin-left="5"
     fit-margin-right="5"
     fit-margin-bottom="5" />
  <g
     transform="translate(10.05,13.75)"
     id="g1">
    <use
       ffdec:characterId="3998"
       height="27.5"
       transform="translate(-10.05,-13.75)"
       width="20.15"
       xlink:href="#shape0"
       id="use1" />
  </g>
  <defs
     id="defs5">
    <g
       id="shape0"
       transform="translate(10.05,13.75)">
      <path
         d="M 7.15,2.5 Q 8.7,2.75 9.05,3.2 9.3,3.55 9.2,4.05 9.05,5.05 7.85,5.3 8.85,6.45 8.7,7.45 8.45,9.35 6.75,10.9 3.95,13.5 -1,12.75 l -2.25,-0.3 -2.25,0.05 q -1.6,-0.2 -1.85,-1.85 l -0.1,-1.7 Q -7.15,6.85 -5.85,5.5 -4.4,4 -2.05,4 L -2.4,2.95 Q -2.1,0.7 1.55,1.35 5.2,1.9 3.45,3.6 L 4.9,3.8 Q 4.95,3.35 5.3,3 5.85,2.3 7.15,2.5 m -1.05,1.35 -0.25,0.5 1,0.45 h 0.4 L 8.4,3.85 Q 8.5,3.4 7.45,3.25 6.3,3.1 6.1,3.85 M -0.95,4.75 -0.9,4.6 -1.4,4.5 q -2,0.35 -3.25,1.75 -1.1,1.25 -1.35,2.95 -0.1,0.9 0.35,1.3 0.55,0.65 2.25,0.9 l 0.6,-0.3 Q -0.3,10 0.8,9.05 3.15,6.85 3.7,5.1 l 0.15,0.05 h 0.1 V 5.4 Q 3.75,6.95 0.9,9.35 L -1.75,11.3 -0.6,10.75 0.95,10 2.2,8.9 Q 3.15,7.9 4.7,7.85 L 4.65,8 Q 3.65,8.25 2.5,9.35 L 1.25,10.2 0.3,10.75 -1.15,11.6 0.5,11.55 Q 6.85,11.25 7.4,7.25 7.5,6.85 7,6.1 L 6.75,5.6 6,4.95 4.2,4.5 4.05,4.4 H 3.9 L 2.95,4.15 2.9,4.5 Q 2.8,5.4 1.75,6.6 0.35,8.15 -1.45,7.9 L -2.2,7.65 Q 0,7.25 1.5,5.9 2.65,4.9 2.65,3.95 2.35,3.7 2.45,3.25 2.6,2.35 1.25,2.15 -0.2,1.95 -1.05,3.05 L -0.6,3.7 -0.3,4 -0.1,3.7 0.15,4.2 V 4.3 L -0.05,4.9 -0.5,5.3 -2.15,6.1 -2.5,5.95 Q -1.5,5.65 -1,4.8 L -0.95,4.75 M 1.3,3.6 0.05,3.4 -0.35,3 Q -0.3,2.65 0.75,2.6 1.8,2.55 1.75,3.15 L 1.3,3.6 M 4.9,6 Q 5.3,6.15 6,6.6 L 6.05,6.7 H 5.6 L 4.55,6.35 4.25,6.1 Q 4.4,5.25 5.05,5.3 L 5.2,5.45 4.8,5.9 4.9,6"
         fill="#6b6b6b"
         fill-rule="evenodd"
         stroke="none"
         id="path1" />
      <path
         d="m -0.05,4.9 q 0.4,0.15 0.3,0.7 -0.05,0.45 -1,1.25 Q -1.8,7.7 -2.9,7.55 -4.3,7.35 -4.15,6.5 -4,5.35 -1.75,4.85 L -0.95,4.75 -1,4.8 Q -1.5,5.65 -2.5,5.95 L -2.15,6.1 -0.5,5.3 -0.05,4.9 m -3.7,3.05 Q -2.65,8.2 -2.8,9 L -3.1,9.45 -4.05,9.6 Q -5.1,9.45 -5,8.65 -4.85,7.8 -3.75,7.95"
         fill="#999999"
         fill-rule="evenodd"
         stroke="none"
         id="path2" />
      <path
         d="M -0.05,4.9 0.15,4.3 V 4.2 L -0.1,3.7 -0.3,4 -0.6,3.7 -1.05,3.05 q 0.85,-1.1 2.3,-0.9 1.35,0.2 1.2,1.1 -0.1,0.45 0.2,0.7 Q 2.65,4.9 1.5,5.9 0,7.25 -2.2,7.65 L -1.45,7.9 Q 0.35,8.15 1.75,6.6 2.8,5.4 2.9,4.5 L 2.95,4.15 3.9,4.4 H 4.05 L 4.2,4.5 6,4.95 6.75,5.6 7,6.1 q 0.5,0.75 0.4,1.15 -0.55,4 -6.9,4.3 L -1.15,11.6 0.3,10.75 1.25,10.2 2.5,9.35 Q 3.65,8.25 4.65,8 L 4.7,7.85 Q 3.15,7.9 2.2,8.9 L 0.95,10 -0.6,10.75 -1.75,11.3 0.9,9.35 Q 3.75,6.95 3.95,5.4 V 5.15 H 3.85 L 3.7,5.1 Q 3.15,6.85 0.8,9.05 -0.3,10 -2.8,11.1 l -0.6,0.3 Q -5.1,11.15 -5.65,10.5 -6.1,10.1 -6,9.2 -5.75,7.5 -4.65,6.25 -3.4,4.85 -1.4,4.5 l 0.5,0.1 -0.05,0.15 -0.8,0.1 Q -4,5.35 -4.15,6.5 -4.3,7.35 -2.9,7.55 -1.8,7.7 -0.75,6.85 0.2,6.05 0.25,5.6 0.35,5.05 -0.05,4.9 M 6.1,3.85 Q 6.3,3.1 7.45,3.25 8.5,3.4 8.4,3.85 L 7.25,4.8 H 6.85 L 5.85,4.35 6.1,3.85 M 4.9,6 4.8,5.9 5.2,5.45 5.05,5.3 Q 4.4,5.25 4.25,6.1 L 4.55,6.35 5.6,6.7 H 6.05 L 6,6.6 Q 5.3,6.15 4.9,6 M 1.3,3.6 1.75,3.15 Q 1.8,2.55 0.75,2.6 -0.3,2.65 -0.35,3 L 0.05,3.4 1.3,3.6 M -3.75,7.95 Q -4.85,7.8 -5,8.65 -5.1,9.45 -4.05,9.6 L -3.1,9.45 -2.8,9 Q -2.65,8.2 -3.75,7.95"
         fill="#8d7c7c"
         fill-rule="evenodd"
         stroke="none"
         id="path3" />
      <path
         d="m 0.65,-13.7 q 2.2,0.5 2.2,2.2 l -0.15,1.6 -0.15,0.55 1,0.4 1.15,0.75 1.7,0.35 1.2,0.1 q 1.5,0.1 2.15,1.2 0.35,0.7 0.35,1.6 v 0.05 q 0,1.45 -0.4,1.9 l -0.3,0.25 0.05,0.05 0.6,1.45 v 12.1 l -0.5,1.3 q -1,1.8 -3.35,1.55 H -6.2 q -2.35,0.25 -3.35,-1.55 l -0.5,-1.3 v -12.1 l 0.7,-1.6 L -9.5,-3 q -0.4,-0.45 -0.4,-1.9 v -0.05 q 0,-0.9 0.35,-1.6 0.65,-1.1 2.15,-1.2 l 1.2,-0.1 1.65,-0.35 1.2,-0.75 1,-0.4 -0.2,-0.55 -0.1,-1.6 q 0,-1.7 2.15,-2.2 l 0.65,-0.05 0.5,0.05 M 0.3,-12.05 0.1,-12.1 q -0.65,0.1 -1.1,0.55 l -0.3,0.6 0.05,0.3 0.35,0.8 0.4,0.7 -0.1,0.5 -0.45,0.3 -0.4,-0.05 q -0.25,0.2 -0.65,0.45 l -1.8,1.15 q -0.45,0.5 -2.3,0.75 h -0.3 q -1.35,0.15 -1.65,0.7 H 8.35 Q 8.05,-5.9 6.65,-6.05 H 6.4 Q 4.55,-6.3 4.1,-6.8 L 2.3,-7.95 Q 1.9,-8.2 1.6,-8.4 l -0.4,0.05 -0.4,-0.3 -0.15,-0.5 0.4,-0.7 0.45,-1.1 -0.35,-0.6 -0.85,-0.5 M 0.35,-2 v 0.05 h -1.2 -0.5 V -2 h -5.2 l -0.55,0.6 q -0.65,0.55 -0.7,2.05 L -7.85,0.8 -7.9,1.15 V 1.3 1.35 l 0.05,0.8 -0.1,1.2 L -8,3.45 V 3.5 Q -7.9,4.8 -7.95,7 L -8,8.05 V 8.1 8.75 l 0.05,0.3 0.2,0.75 0.15,0.3 h -0.05 l 0.3,0.5 0.65,0.7 0.2,-0.05 1.3,0.4 h -0.05 0.2 l 1.9,0.15 H 1.3 L 2.45,11.65 H 5.8 L 5.65,11.6 6.8,11.25 Q 6.95,11.2 7.05,11.1 L 7.2,10.85 7.35,10.6 7.65,10.1 H 7.6 L 7.75,9.8 7.95,9.05 8,8.75 V 8.1 8.05 L 7.95,7 Q 7.9,4.8 8,3.5 V 3.45 L 7.95,3.35 7.85,2.15 7.9,1.35 V 1.3 1.15 L 7.85,0.8 7.8,0.65 Q 7.75,-0.85 7.1,-1.4 L 6.55,-2 H 0.35 M 7,-4.1 Q 8.25,-4.4 8.4,-4.85 H -8.2 q 0.1,0.45 1.4,0.75 l 0.45,0.15 H 6.55 L 7,-4.1"
         fill="#6b6b6b"
         fill-rule="evenodd"
         stroke="none"
         id="path4" />
      <path
         d="m -1.25,-10.65 -0.05,-0.3 0.3,-0.6 Q -0.55,-12 0.1,-12.1 l 0.2,0.05 0.1,0.45 q -0.2,1.1 -1.05,1.1 l -0.6,-0.15 M -2.3,-0.1 q 0.2,0.35 0.05,0.8 0,1.15 -1.1,1.45 l -1.3,0.3 q -1.3,0 -1.7,-0.7 L -6.5,0.95 q 0,-2.35 2.05,-1.95 l 0.65,0.2 q 1.2,0.05 1.5,0.7"
         fill="#e2e2e2"
         fill-rule="evenodd"
         stroke="none"
         id="path5" />
    </g>
  </defs>
</svg>
