<?xml version="1.0" encoding="UTF-8" standalone="no"?>
<svg
   ffdec:objectType="frame"
   height="35.414288"
   width="33.099998"
   version="1.1"
   id="svg6"
   sodipodi:docname="1.svg"
   xmlns:inkscape="http://www.inkscape.org/namespaces/inkscape"
   xmlns:sodipodi="http://sodipodi.sourceforge.net/DTD/sodipodi-0.dtd"
   xmlns:xlink="http://www.w3.org/1999/xlink"
   xmlns="http://www.w3.org/2000/svg"
   xmlns:svg="http://www.w3.org/2000/svg"
   xmlns:ffdec="https://www.free-decompiler.com/flash">
  <sodipodi:namedview
     id="namedview6"
     pagecolor="#ffffff"
     bordercolor="#000000"
     borderopacity="0.25"
     inkscape:showpageshadow="2"
     inkscape:pageopacity="0.0"
     inkscape:pagecheckerboard="0"
     inkscape:deskcolor="#d1d1d1"
     fit-margin-top="5"
     fit-margin-left="5"
     fit-margin-right="5"
     fit-margin-bottom="5" />
  <g
     transform="translate(16.55,17.664286)"
     id="g1">
    <use
       ffdec:characterId="2058"
       height="35.400002"
       transform="translate(-16.55,-17.65)"
       width="33.099998"
       xlink:href="#shape0"
       id="use1" />
  </g>
  <defs
     id="defs6">
    <g
       id="shape0"
       transform="translate(16.55,17.65)">
      <path
         d="m 4.7,-5.65 q -2,1.45 -2,3.65 0,1.85 2.95,1.85 2.05,0 2.95,-2.5 l 0.05,-0.05 0.2,-0.15 0.1,-0.5 -0.05,-0.3 0.25,-1.6 q 0,-2.9 -3.2,-1.2 L 4.7,-5.65 M 1.15,-3.2 q 0,-1.65 -0.85,-0.5 -0.6,0.75 -0.8,1.55 L -0.95,-2 -1.05,-2.15 q -1.1,-1.7 -1.1,-3.5 0,-7.7 7.3,-6.35 2.7,0.5 5,2.1 l 0.5,0.35 q -0.7,0.25 -0.7,1.25 l 0.2,0.95 q 0.4,0.85 1.45,0.85 l 0.8,-0.1 Q 12.25,-4.9 10.9,-2.85 8.65,0.5 4.55,0.5 2.65,0.5 1.3,-0.1 h 0.35 q 0.85,0 0.85,-0.8 0,-0.5 -0.7,-0.8 L 2.35,-2.15 Q 2.75,-2.6 2.75,-3 L 2.65,-3.3 2.4,-3.35 Q 1.95,-3.1 1.1,-2.8 L 1.15,-3.2 M 3,-10.4 2.75,-10.45 1.35,-9.6 0.55,-10.65 q -0.5,0.2 -0.5,0.8 l 0.3,0.9 q -1,0.75 -1,1.4 L -0.6,-7.1 -0.35,-6.95 0,-6.9 0.85,-7.7 q 0.65,0.95 1.55,0.95 0.3,0 0.4,-0.15 L 2.9,-7.15 Q 2.4,-7.7 1.85,-8.7 L 3.1,-10.1 3,-10.4"
         fill="#b8b8b8"
         fill-rule="evenodd"
         stroke="none"
         id="path1" />
      <path
         d="m 7.5,-13.8 q 2.3,0.5 4.15,1.85 l 0.5,0.35 0.1,-0.35 q 0,-0.7 -0.65,-1.65 -0.8,-1.15 -1.9,-1.15 -1.05,0 -2.05,0.8 L 7.5,-13.8 m 2.55,-3.1 q 4.75,0.05 4.75,5.05 0,1.75 -0.85,2.3 0.7,1.2 0.7,2.65 0,3.15 -1.75,5.7 L 11.45,0.45 13.2,1.3 13.8,0.9 Q 15.25,0.15 16,0.2 l 0.1,0.1 0.05,0.35 -0.6,0.8 0.75,0.1 0.2,0.1 0.05,0.35 -0.4,0.4 -0.8,0.35 H 15 l 0.7,0.9 -0.55,0.4 q -0.9,0 -1.95,-0.85 L 12.6,2.6 Q 11.4,2.45 10.15,1.85 L 9.75,1.65 7,2.65 7.1,3.05 V 4.1 L 6.95,5.65 h 0.5 L 9.2,5.8 Q 9.35,5.05 9.95,5.45 10.8,4.85 12.5,4.25 l 0.15,0.1 0.1,0.4 q 0,0.2 -1.5,1.45 0.75,0.3 2.25,1.15 -0.45,0.7 -1.05,0.7 L 11.7,7.9 11.9,8.5 11.8,8.85 11.4,8.95 9.85,7.3 9.7,7.4 9.35,7.35 8.55,7.45 6,7.75 5.75,8 Q 4.85,8.9 3.4,9.35 h 4 l 1.65,0.2 q 0.4,-0.5 1.2,0.2 Q 10.8,10 11,12.5 h 0.05 v 0.25 0.25 0.55 0.55 1.05 L 10.9,16.1 v 0.1 q 0,0.85 -1.85,1.2 l -5.8,0.3 v 0.05 H 1.3 -0.95 -9.1 l -1.3,-0.75 -0.15,-0.45 -0.3,-1.5 v -2.3 -0.25 h 0.1 l 0.1,-1.05 -0.1,-0.6 0.2,-0.7 0.1,-0.1 q -1.9,-0.25 -3.05,-2.2 -0.85,-1.5 -0.85,-2.55 0,-1.2 1,-3.1 l 0.4,-1.65 0.55,-2.4 -0.3,-0.85 -0.25,-0.15 q -1,0 -1.4,0.45 -0.25,0.3 -0.15,0.7 l 0.2,0.2 0.6,0.65 q 0,0.3 -0.3,0.55 -0.3,0.25 -0.6,0.25 -1.2,0 -1.7,-0.9 l -0.25,-0.95 q 0,-3.25 3,-3.3 2.95,0 2.95,3.55 0,1.4 -0.55,2.85 -0.55,1.5 -0.55,2.4 0,3.45 3.5,4.25 l -1,-1.1 q -1.1,-1.55 -1.1,-4.45 0,-2.75 1.15,-4.65 0.75,-1.25 2,-2.2 -3.2,0 -4.3,-2.9 -0.5,-1.3 -0.5,-3.2 0,-6 6.15,-6.9 2.4,-0.4 4.2,0.6 1.9,1 1.9,3.05 v 0.45 q 2.05,-0.85 4.8,-0.7 h 0.15 q 0,-1.1 1.5,-1.95 1.45,-0.8 3.3,-0.8 m -7.05,6.5 0.1,0.3 -1.25,1.4 q 0.55,1 1.05,1.55 L 2.8,-6.9 q -0.1,0.15 -0.4,0.15 -0.9,0 -1.55,-0.95 L 0,-6.9 -0.35,-6.95 -0.6,-7.1 -0.65,-7.55 q 0,-0.65 1,-1.4 l -0.3,-0.9 q 0,-0.6 0.5,-0.8 l 0.8,1.05 1.4,-0.85 L 3,-10.4 M 1.15,-3.2 1.1,-2.8 q 0.85,-0.3 1.3,-0.55 l 0.25,0.05 0.1,0.3 q 0,0.4 -0.4,0.85 L 1.8,-1.7 q 0.7,0.3 0.7,0.8 0,0.8 -0.85,0.8 H 1.3 q 1.35,0.6 3.25,0.6 4.1,0 6.35,-3.35 1.35,-2.05 1.5,-3.75 l -0.8,0.1 q -1.05,0 -1.45,-0.85 L 9.95,-8.3 q 0,-1 0.7,-1.25 l -0.5,-0.35 q -2.3,-1.6 -5,-2.1 -7.3,-1.35 -7.3,6.35 0,1.8 1.1,3.5 l 0.1,0.15 0.45,-0.15 q 0.2,-0.8 0.8,-1.55 0.85,-1.15 0.85,0.5 m 3.55,-2.45 1.25,-0.8 q 3.2,-1.7 3.2,1.2 l -0.25,1.6 0.05,0.3 -0.1,0.5 -0.2,0.15 -0.05,0.05 q -0.9,2.5 -2.95,2.5 -2.95,0 -2.95,-1.85 0,-2.2 2,-3.65 m 3.4,1 -0.1,-0.6 -0.4,0.8 -0.2,0.35 0.5,0.05 0.2,-0.6 m -1.3,-0.5 0.3,-0.4 -0.75,0.35 -0.5,0.8 v 0.2 l 0.4,0.05 0.55,-1 M 4.6,3 H 3.45 Q -0.1,3 -2.1,0.8 -4.95,2.4 -5.2,2.4 L -5.9,2.1 -5.95,1.75 -3.15,-0.6 -3.4,-1.05 q -0.9,-1.85 -1.05,-3.8 l -1.25,1.6 q -1.95,2.45 -1.95,4.85 0,4.25 3.45,5.3 L -3.85,7 -4.95,6 q 0,-2.6 2.45,-0.65 l 2,1.85 Q 4.4,7 4.65,4.6 L 4.6,3 m 3.6,10.35 v -0.6 -0.25 h 0.1 v -0.1 l -13.7,-0.1 -2.7,-0.05 0.05,0.25 h 0.1 v 0.25 l 0.05,0.8 v 0.55 0.7 H 3.25 v 0.05 L 8.3,15.1 8.2,14.8 v -0.7 -0.15 -0.2 -0.2 -0.2 m -16.8,-26 q -0.65,1.25 -0.65,2.65 0,0.7 0.6,1.6 0.8,1.2 2.1,1.2 l 1.1,-0.25 1.1,-0.25 h 0.05 q 0.5,-2.9 2.65,-4.6 l -0.4,-1.05 q -0.5,-1.7 -2.2,-1.7 -3.1,0 -4.35,2.4"
         fill="#6b6b6b"
         fill-rule="evenodd"
         stroke="none"
         id="path2" />
      <path
         d="m 6.8,-5.15 -0.55,1 -0.4,-0.05 v -0.2 l 0.5,-0.8 0.75,-0.35 -0.3,0.4 m 1.3,0.5 -0.2,0.6 -0.5,-0.05 0.2,-0.35 0.4,-0.8 0.1,0.6"
         fill="#eeeeee"
         fill-rule="evenodd"
         stroke="none"
         id="path3" />
      <path
         d="M 4.6,3 4.65,4.6 Q 4.4,7 -0.5,7.2 l -2,-1.85 Q -4.95,3.4 -4.95,6 l 1.1,1 -0.35,-0.1 q -3.45,-1.05 -3.45,-5.3 0,-2.4 1.95,-4.85 l 1.25,-1.6 q 0.15,1.95 1.05,3.8 l 0.25,0.45 -2.8,2.35 0.05,0.35 0.7,0.3 q 0.25,0 3.1,-1.6 2,2.2 5.55,2.2 H 4.6"
         fill="#999999"
         fill-rule="evenodd"
         stroke="none"
         id="path4" />
      <path
         d="m 7.5,-13.8 0.15,-0.15 q 1,-0.8 2.05,-0.8 1.1,0 1.9,1.15 0.65,0.95 0.65,1.65 l -0.1,0.35 -0.5,-0.35 Q 9.8,-13.3 7.5,-13.8 m -16.1,1.15 q 1.25,-2.4 4.35,-2.4 1.7,0 2.2,1.7 l 0.4,1.05 q -2.15,1.7 -2.65,4.6 h -0.05 l -1.1,0.25 -1.1,0.25 q -1.3,0 -2.1,-1.2 -0.6,-0.9 -0.6,-1.6 0,-1.4 0.65,-2.65"
         fill="#d4c3c3"
         fill-rule="evenodd"
         stroke="none"
         id="path5" />
      <path
         d="m 8.2,13.35 v 0.2 0.2 0.2 0.15 0.7 L 8.3,15.1 3.25,14.85 V 14.8 H -7.9 v -0.7 -0.55 l -0.05,-0.8 V 12.5 h -0.1 l -0.05,-0.25 2.7,0.05 13.7,0.1 v 0.1 H 8.2 v 0.25 0.6"
         fill="#afa28f"
         fill-rule="evenodd"
         stroke="none"
         id="path6" />
    </g>
  </defs>
</svg>
