<?xml version="1.0" encoding="UTF-8" standalone="no"?>
<svg
   ffdec:objectType="frame"
   height="39.007446"
   width="24"
   version="1.1"
   id="svg14"
   sodipodi:docname="2.svg"
   xmlns:inkscape="http://www.inkscape.org/namespaces/inkscape"
   xmlns:sodipodi="http://sodipodi.sourceforge.net/DTD/sodipodi-0.dtd"
   xmlns:xlink="http://www.w3.org/1999/xlink"
   xmlns="http://www.w3.org/2000/svg"
   xmlns:svg="http://www.w3.org/2000/svg"
   xmlns:ffdec="https://www.free-decompiler.com/flash">
  <sodipodi:namedview
     id="namedview14"
     pagecolor="#ffffff"
     bordercolor="#000000"
     borderopacity="0.25"
     inkscape:showpageshadow="2"
     inkscape:pageopacity="0.0"
     inkscape:pagecheckerboard="0"
     inkscape:deskcolor="#d1d1d1"
     fit-margin-top="5"
     fit-margin-left="5"
     fit-margin-right="5"
     fit-margin-bottom="5" />
  <g
     transform="translate(6.25,19.557447)"
     id="g5">
    <use
       ffdec:characterId="2053"
       height="39"
       transform="translate(-6.25,-19.55)"
       width="24"
       xlink:href="#shape0"
       id="use1" />
    <use
       ffdec:characterId="2011"
       height="5.6999998"
       transform="matrix(-1,0,0,1,14.4,-9.85)"
       width="5.5999999"
       xlink:href="#sprite0"
       id="use2" />
    <use
       ffdec:characterId="2011"
       height="5.6999998"
       transform="matrix(-1,0,0,1,5.5,-10.15)"
       width="5.5999999"
       xlink:href="#sprite0"
       id="use3" />
    <use
       ffdec:characterId="2016"
       height="9.0500002"
       transform="matrix(0.7083,0,0,0.7083,-4.3291,-20.0125)"
       width="38.099998"
       xlink:href="#sprite1"
       id="use4" />
    <use
       ffdec:characterId="1691"
       height="8"
       transform="matrix(-0.6875,0,0,0.6875,14.4624,12.6001)"
       width="10.8"
       xlink:href="#sprite3"
       id="use5" />
  </g>
  <defs
     id="defs14">
    <g
       id="shape0"
       transform="translate(6.25,19.55)">
      <path
         d="m 3.55,-14.1 q 0,-1.5 1.65,-3.15 -2,-1 -2,-1.35 0,-1.5 3.05,-0.65 3.05,0.8 3.05,2.2 l -0.05,0.45 q -0.2,0.4 -1,0.4 -0.45,0 -1.5,-0.35 l -0.65,1.7 -0.3,0.6 q 0.95,0.8 1.05,2 3.65,-0.2 6.1,2.45 0.25,-0.8 1.5,-0.5 1.6,0.35 1.6,2.35 l -0.1,0.5 Q 15.7,-7 14.8,-6.95 16.2,-3.8 16.25,0.9 l 0.05,0.05 q 1.45,1.35 1.45,2.75 l -0.1,0.55 q -0.25,0.5 -1.15,0.5 -0.5,0 -1,-0.35 l -0.6,2.4 -1.25,3.5 h 0.5 l 0.2,0.15 0.25,0.1 q 0.55,0.2 0.75,0.5 l 0.2,0.7 -0.1,0.6 0.1,0.75 h 0.05 l 0.05,1.3 v 2.35 l -0.3,1.5 -0.15,0.45 -1.3,0.75 H 5.75 3.5 1.55 V 19.4 l -5.8,-0.3 Q -6.1,18.75 -6.1,17.9 V 17.8 L -6.25,16.85 V 14.7 13.1 h 0.1 q 0.2,-2.2 0.7,-2.45 0.8,-0.7 1.2,-0.2 l 1.65,-0.2 h 0.3 Q -3.1,8.7 -3.6,4.65 l 0.3,-2 -1.2,0.05 q -0.75,0 -0.75,-1.05 0,-1.35 1.7,-2.45 L -3.1,-1.05 V -1.3 q 0,-4.35 3,-7.55 l 0.3,-0.3 -0.45,-0.55 q -0.4,-0.65 -0.4,-1.15 0,-1.25 1.7,-1.6 1.45,-0.25 1.65,0.55 l 0.5,0.6 1.65,-0.6 -0.55,-1.05 Q 3.55,-13.1 3.55,-14.1 M 9,-7.05 8.35,-6.4 H 6.9 L 6,-6.55 5.35,-7.15 Q 6.3,-7.95 7.7,-7.8 9,-7.7 9,-7.05 M 0,10.25 H 0.1 Q 1,8.95 1.95,8.25 2.35,7.9 2.75,7.7 L 2.6,7.65 1.95,7.4 q -0.6,-0.3 -0.6,-0.6 0,-0.3 0.1,-0.3 l 0.1,-0.05 h 0.4 l 3.2,0.1 Q 8.4,6.85 9.2,7.75 L 8.8,7.9 9.8,8.3 10,8.45 11.35,9.3 12,7.3 q 1.95,-6.25 1.95,-7.75 L 13.8,-2.35 V -2.5 L 13.65,-3.2 13,-5.35 q -1.65,-4.3 -5.5,-4.3 -4.45,0 -6.7,3.65 L 0.35,-5.2 -0.8,-1.8 Q -1.7,2.2 -1.3,7 V 7.1 L -1,7.85 q 0.75,1.95 0.75,2.4 H 0 M 1.95,4 1.55,3.6 q 0,-3.05 0.6,-5.2 L 2.2,-1.75 2.75,-3.1 2.8,-3.2 2.95,-3.5 3.5,-4.4 3.55,-4.55 3.6,-4.5 q 1.25,-1.6 2.9,-1.45 1.45,0.1 2.55,1.4 l 0.6,0.75 0.4,0.7 0.05,0.15 0.1,0.15 q 1.3,2.7 1.3,6.8 L 11.4,4.5 10.65,5 H 9.95 Q 3.4,4.7 1.95,4 M 4.4,-2.4 q 0.8,0.1 0.9,-0.65 L 5.35,-4.1 4.4,-2.4 m 3,-1.95 v 0.2 l -0.05,0.9 v 0.15 0.65 L 7.3,-2.25 H 8.45 L 8.55,-2.7 7.4,-4.35 M 5.5,9.25 h 0.05 q 0.65,0.6 1,0.6 0.35,-0.3 0.7,-0.5 L 5.85,9.2 5.5,9.25 m -8.9,5 v 0.45 1.8 l -0.1,0.3 5.05,-0.25 V 16.5 H 12.7 l 0.05,-1.8 V 14.45 13.15 13.1 H -3.4 v 0.2 0.95"
         fill="#6b6b6b"
         fill-rule="evenodd"
         stroke="none"
         id="path5" />
      <path
         d="M 1.95,8.25 V 7.4 L 2.6,7.65 2.75,7.7 q -0.4,0.2 -0.8,0.55 m 3.55,1 0.35,-0.05 1.4,0.15 q -0.35,0.2 -0.7,0.5 -0.35,0 -1,-0.6 H 5.5"
         fill="#999999"
         fill-rule="evenodd"
         stroke="none"
         id="path6" />
      <path
         d="m 7.4,-4.35 1.15,1.65 -0.1,0.45 H 7.3 l 0.05,-0.2 V -3.1 -3.25 l 0.05,-0.9 v -0.2 M 4.4,-2.4 5.35,-4.1 5.3,-3.05 Q 5.2,-2.3 4.4,-2.4"
         fill="#eeeeee"
         fill-rule="evenodd"
         stroke="none"
         id="path7" />
      <path
         d="M 9,-7.05 Q 9,-7.7 7.7,-7.8 6.3,-7.95 5.35,-7.15 L 6,-6.55 6.9,-6.4 H 8.35 L 9,-7.05 M 3.5,-4.4 3.65,-5.15 4.3,-7.3 Q 4.3,-8.1 3.85,-8 l -0.2,0.05 H 3.6 q -0.65,0.3 -0.95,1 L 2.35,-5.35 1.1,-1.9 Q 0.45,0.75 0,4.85 V 9.1 L -0.05,9.65 0,10.25 H -0.25 Q -0.25,9.8 -1,7.85 L -1.3,7.1 V 7 Q -1.7,2.2 -0.8,-1.8 L 0.35,-5.2 0.8,-6 q 2.25,-3.65 6.7,-3.65 3.85,0 5.5,4.3 l 0.65,2.15 0.15,0.7 v 0.15 l 0.15,1.9 q 0,1.5 -1.95,7.75 V 4.9 l -0.05,-6 q -0.1,-0.95 0.2,-3.4 0.05,-2 -1.15,-2.45 -0.6,-0.2 -0.9,4 L 10.05,-3.1 9.65,-3.8 9.05,-4.55 Q 7.95,-5.85 6.5,-5.95 4.85,-6.1 3.6,-4.5 L 3.55,-4.55 3.5,-4.4 M 1.95,6.45 V 4 q 1.45,0.7 8,1 V 7.6 L 10,8.45 9.8,8.3 8.8,7.9 9.2,7.75 Q 8.4,6.85 5.15,6.55 l -3.2,-0.1"
         fill="#a89292"
         fill-rule="evenodd"
         stroke="none"
         id="path8" />
      <path
         d="M -3.4,14.25 V 13.3 13.1 h 16.15 v 0.05 1.3 0.25 L 12.7,16.5 H 1.55 v 0.05 l -5.05,0.25 0.1,-0.3 v -1.8 -0.45"
         fill="#a89b8b"
         fill-rule="evenodd"
         stroke="none"
         id="path9" />
      <path
         d="M 0,10.25 -0.05,9.65 0,9.1 V 4.85 Q 0.45,0.75 1.1,-1.9 l 1.25,-3.45 0.3,-1.6 q 0.3,-0.7 0.95,-1 H 3.65 L 3.85,-8 Q 4.3,-8.1 4.3,-7.3 L 3.65,-5.15 3.5,-4.4 2.95,-3.5 2.8,-3.2 2.75,-3.1 2.2,-1.75 2.15,-1.6 Q 1.55,0.55 1.55,3.6 L 1.95,4 V 6.45 H 1.55 L 1.45,6.5 q -0.1,0 -0.1,0.3 0,0.3 0.6,0.6 V 8.25 Q 1,8.95 0.1,10.25 H 0 m 10.1,-13.2 q 0.3,-4.2 0.9,-4 1.2,0.45 1.15,2.45 -0.3,2.45 -0.2,3.4 L 12,4.9 V 7.3 L 11.35,9.3 10,8.45 9.95,7.6 V 5 h 0.7 L 11.4,4.5 11.5,4 q 0,-4.1 -1.3,-6.8 l -0.1,-0.15"
         fill="#c2cccd"
         fill-rule="evenodd"
         stroke="none"
         id="path10" />
    </g>
    <g
       id="sprite0"
       transform="translate(2.8,2.85)">
      <use
         ffdec:characterId="2007"
         height="5.6999998"
         transform="translate(-2.8,-2.85)"
         width="5.5999999"
         xlink:href="#shape1"
         id="use10" />
    </g>
    <g
       id="shape1"
       transform="translate(2.8,2.85)">
      <path
         d="M 2.8,-0.2 2.35,1.5 Q 1.65,2.85 0.2,2.85 -1.4,2.85 -2.2,1.8 -2.8,1.05 -2.8,0.3 q 0,-2.7 2.8,-3.1 2.8,-0.35 2.8,2.6 m -3.55,-1.7 q -1,0 -1,1.05 -0.15,0.9 0.8,0.9 0.45,0 0.85,-0.35 l 0.35,-0.75 q 0,-0.85 -1,-0.85"
         fill="#6b6b6b"
         fill-rule="evenodd"
         stroke="none"
         id="path11" />
      <path
         d="m -0.75,-1.9 q 1,0 1,0.85 L -0.1,-0.3 q -0.4,0.35 -0.85,0.35 -0.95,0 -0.8,-0.9 0,-1.05 1,-1.05"
         fill="#ffffff"
         fill-rule="evenodd"
         stroke="none"
         id="path12" />
    </g>
    <g
       id="sprite1"
       transform="translate(2.3,1.5)">
      <use
         ffdec:characterId="2015"
         height="2.9000001"
         transform="matrix(1.2994,0.0307,0.1465,0.7836,-0.7,0.85)"
         width="3"
         xlink:href="#sprite2"
         id="use12" />
    </g>
    <g
       id="sprite2">
      <use
         ffdec:characterId="1134"
         height="6.1500001"
         transform="matrix(0.4615,0,0,0.4715,0,0.0118)"
         width="6.5"
         xlink:href="#shape2"
         id="use13" />
    </g>
    <g
       id="shape2"
       transform="translate(3.25,3.05)">
      <path
         d="m 0.05,-3.05 q 3.2,-0.2 3.2,3.2 0,2.95 -3.1,2.95 -2.35,0 -3.1,-1.5 l -0.3,-1.75 q 0,-2.7 3.3,-2.9"
         fill="#6b6b6b"
         fill-rule="evenodd"
         stroke="none"
         id="path13" />
    </g>
    <g
       id="sprite3"
       transform="translate(5.4,4)">
      <use
         ffdec:characterId="43"
         height="8"
         transform="translate(-5.4,-4)"
         width="10.8"
         xlink:href="#shape3"
         id="use14" />
    </g>
    <g
       id="shape3"
       transform="translate(5.4,4)">
      <path
         d="m 2.9,-0.35 q 0,-1.25 1.25,-1.25 1.25,0 1.25,1.2 0,1.3 -1.25,1.3 Q 3.6,0.9 3.25,0.5 2.9,0.15 2.9,-0.35 m 0.35,-2.3 q 0,0.55 -0.35,0.9 -0.4,0.45 -1,0.45 -1.35,0 -1.35,-1.4 0,-1.3 1.35,-1.3 1.35,0 1.35,1.35 m -3.1,1.9 h 0.2 q 2.6,0.1 2.6,2.8 l -0.3,1 Q 2.05,4 0.45,4 H 0.35 0.15 0.1 -0.45 q -1.6,0 -2.2,-0.95 l -0.3,-1 q 0,-2.8 2.8,-2.8 h 0.3 M -1.55,-4 q 1.35,0 1.35,1.35 0,0.55 -0.4,0.9 -0.4,0.45 -0.95,0.45 -1.4,0 -1.4,-1.4 0,-1.3 1.4,-1.3 m -2.6,2.4 q 1.25,0 1.25,1.25 0,0.5 -0.35,0.85 -0.35,0.4 -0.9,0.4 -1.25,0 -1.25,-1.3 0,-1.2 1.25,-1.2"
         fill="#6b6b6b"
         fill-rule="evenodd"
         stroke="none"
         id="path14" />
    </g>
  </defs>
</svg>
