<?xml version="1.0" encoding="UTF-8" standalone="no"?>
<svg
   ffdec:objectType="frame"
   height="26.200001"
   width="23.35"
   version="1.1"
   id="svg9"
   sodipodi:docname="1.svg"
   xmlns:inkscape="http://www.inkscape.org/namespaces/inkscape"
   xmlns:sodipodi="http://sodipodi.sourceforge.net/DTD/sodipodi-0.dtd"
   xmlns:xlink="http://www.w3.org/1999/xlink"
   xmlns="http://www.w3.org/2000/svg"
   xmlns:svg="http://www.w3.org/2000/svg"
   xmlns:ffdec="https://www.free-decompiler.com/flash">
  <sodipodi:namedview
     id="namedview9"
     pagecolor="#ffffff"
     bordercolor="#000000"
     borderopacity="0.25"
     inkscape:showpageshadow="2"
     inkscape:pageopacity="0.0"
     inkscape:pagecheckerboard="0"
     inkscape:deskcolor="#d1d1d1"
     fit-margin-top="5"
     fit-margin-left="5"
     fit-margin-right="5"
     fit-margin-bottom="5" />
  <g
     transform="translate(12.05,13.3)"
     id="g2">
    <use
       ffdec:characterId="3518"
       height="27.4"
       transform="translate(1.2,-14.5)"
       width="10.1"
       xlink:href="#sprite0"
       id="use1" />
    <use
       ffdec:characterId="3521"
       height="16.799999"
       transform="translate(-12.05,-4.05)"
       width="11.6"
       xlink:href="#sprite3"
       id="use2" />
  </g>
  <defs
     id="defs9">
    <g
       id="sprite0"
       transform="translate(5.05,14.3)">
      <use
         ffdec:characterId="3517"
         height="27.4"
         transform="translate(-5.05,-14.3)"
         width="10.1"
         xlink:href="#sprite1"
         id="use3" />
    </g>
    <g
       id="sprite1"
       transform="translate(0,1.2)">
      <use
         ffdec:characterId="5"
         height="21.700001"
         transform="translate(0,4.5)"
         width="10.1"
         xlink:href="#shape0"
         id="use4" />
      <use
         ffdec:characterId="3494"
         height="8.3000002"
         transform="translate(3.4,-1.2)"
         width="3.45"
         xlink:href="#sprite2"
         id="use5" />
    </g>
    <g
       id="shape0"
       transform="translate(0,-4.5)">
      <path
         d="M 6.05,5.5 5.9,7.25 7.05,7.55 7.6,7.3 Q 9.15,6.6 9.95,6.65 l 0.1,0.1 L 10.1,7.1 9.7,7.75 V 25.7 L 9.55,25.8 7.3,26.2 1.05,25.65 Q 0.65,25.5 0.65,24.7 0.65,24.35 0.8,24.15 L 0.7,23.1 V 20.65 L 0.45,14.7 Q 0.1,14.4 0,13.9 v -1.25 q 0,-1 0.35,-2.75 L 0.15,9.8 0.1,9.35 q 0,-1.3 1.4,-1.3 H 1.55 Q 1.95,7.7 2.45,7.7 L 3.9,8 4.85,7.35 5.2,7.25 5,6.35 5.05,5.5 q 0.1,-0.45 0.55,-1 0.45,0.25 0.45,1 m -2.85,6.2 -0.3,9 0.05,2.8 4.15,-0.2 H 7.8 Q 7.5,21.4 7.4,18.05 v -1.5 H 7.3 q -1.75,0 -2.2,-1.3 L 4.95,13.8 q 0,-0.9 0.35,-2.65 L 5.6,9.4 5.4,9.35 3.2,9.75 V 11.7 M 6.9,8.95 6.8,9.45 6.55,9.5 q 0.4,1.1 0.25,1.75 l -0.5,2.45 0.05,0.75 q 0.2,0.5 0.95,0.5 H 7.4 L 7.35,10.35 7.4,8.8 6.9,8.95"
         fill="#6b6b6b"
         fill-rule="evenodd"
         stroke="none"
         id="path5" />
      <path
         d="M 6.9,8.95 7.4,8.8 7.35,10.35 7.4,14.95 H 7.3 q -0.75,0 -0.95,-0.5 L 6.3,13.7 6.8,11.25 Q 6.95,10.6 6.55,9.5 L 6.8,9.45 6.9,8.95 M 3.2,11.7 V 9.75 L 5.4,9.35 5.6,9.4 5.3,11.15 Q 4.95,12.9 4.95,13.8 l 0.15,1.45 q 0.45,1.3 2.2,1.3 h 0.1 v 1.5 Q 7.5,21.4 7.8,23.3 H 7.1 l -4.15,0.2 -0.05,-2.8 0.3,-9"
         fill="#e2e2e2"
         fill-rule="evenodd"
         stroke="none"
         id="path6" />
    </g>
    <g
       id="sprite2"
       transform="translate(0.7,1.2)">
      <use
         ffdec:characterId="3491"
         height="6.3499999"
         width="2.6500001"
         xlink:href="#shape1"
         id="use6" />
    </g>
    <g
       id="shape1">
      <path
         d="m 1.7,2.65 0.15,0.1 V 2.65 H 1.7 M 2,0 2.6,2.3 2.65,3.9 2.55,5.35 q -0.25,1 -1.2,1 -0.85,0 -1.2,-0.95 L 0,4.45 Q 0,3.4 0.7,1.75 1.45,0.05 2,0 M 1.15,4.25 V 4.1 L 1.05,4.45 1.2,4.85 1.15,4.25"
         fill="#ffffff"
         fill-opacity="0.74902"
         fill-rule="evenodd"
         stroke="none"
         id="path7" />
    </g>
    <g
       id="sprite3"
       transform="translate(5.8,8.4)">
      <use
         ffdec:characterId="3520"
         height="16.799999"
         transform="translate(-5.8,-8.4)"
         width="11.6"
         xlink:href="#sprite4"
         id="use7" />
    </g>
    <g
       id="sprite4">
      <use
         ffdec:characterId="3519"
         height="16.799999"
         width="11.6"
         xlink:href="#shape2"
         id="use8" />
    </g>
    <g
       id="shape2">
      <path
         d="M 11.6,1.55 11.4,1.75 11.15,2.5 V 16.2 L 11,16.3 q -0.6,0.4 -2.25,0.4 L 4.55,16.55 3.55,16.8 3,16.75 2,16.8 q -0.9,0 -1.4,-0.4 L 0.2,15.85 0,14.9 Q 0,14.25 0.6,12.95 L 2.1,10.2 2,7.75 2.2,7.65 V 7.45 Q 2.2,6.5 2.75,6.1 L 2.7,5.9 Q 2.7,4.45 6.35,2.95 V 1.85 Q 6.5,0.1 7.6,0 L 7.7,0.3 Q 7.1,1.1 7.2,1.95 L 7.3,2.55 10.05,1.6 Q 10.5,1.3 10.9,1.2 l 0.25,-0.35 v 0.3 L 11.35,1.1 11.6,1.55 M 7.4,3.9 7,4.1 6.4,4.35 5.15,5.5 6.35,5.45 7.75,3.75 7.45,3.9 H 7.4 m 0.75,2 -0.2,0.6 0.45,3.8 -0.05,1 q -0.2,0.6 -1,1 H 5.95 Q 5.35,12 5.2,11.55 L 5.15,11 5.25,9.8 5.4,9.65 l 0.45,1 Q 6,11.3 6.3,11.3 L 7.35,11.15 6.95,7.45 7.05,6.5 5.8,7.1 5.65,8.05 5.35,8.3 5.05,7.4 4.55,7.6 4.35,11.2 4.4,11.5 4.15,11.2 4.05,11.1 3.15,12.45 q -1.25,1.5 -1.25,2 0,0.35 1.2,0.6 l 1.05,0.35 0.3,-2 Q 5.3,12.1 5.55,12.65 L 5.6,13.9 8.55,13.8 h 0.7 L 8.85,8.55 V 5.45 L 8.15,5.9"
         fill="#6b6b6b"
         fill-rule="evenodd"
         stroke="none"
         id="path8" />
      <path
         d="m 8.15,5.9 0.7,-0.45 v 3.1 l 0.4,5.25 H 8.55 L 5.6,13.9 5.55,12.65 Q 5.3,12.1 4.45,13.4 l -0.3,2 -1.05,-0.35 q -1.2,-0.25 -1.2,-0.6 0,-0.5 1.25,-2 L 4.05,11.1 4.15,11.2 4.4,11.5 4.35,11.2 4.55,7.6 5.05,7.4 5.35,8.3 5.65,8.05 5.8,7.1 7.05,6.5 6.95,7.45 7.35,11.15 6.3,11.3 Q 6,11.3 5.85,10.65 L 5.4,9.65 5.25,9.8 5.15,11 5.2,11.55 Q 5.35,12 5.95,12.3 h 1.4 q 0.8,-0.4 1,-1 L 8.4,10.3 7.95,6.5 8.15,5.9 M 7.4,3.9 H 7.45 L 7.75,3.75 6.35,5.45 5.15,5.5 6.4,4.35 7,4.1 7.4,3.9"
         fill="#e2e2e2"
         fill-rule="evenodd"
         stroke="none"
         id="path9" />
    </g>
  </defs>
</svg>
