<?xml version="1.0" encoding="UTF-8" standalone="no"?>
<svg
   ffdec:objectType="frame"
   height="118.02953"
   width="83.699997"
   version="1.1"
   id="svg62"
   sodipodi:docname="2.svg"
   xmlns:inkscape="http://www.inkscape.org/namespaces/inkscape"
   xmlns:sodipodi="http://sodipodi.sourceforge.net/DTD/sodipodi-0.dtd"
   xmlns:xlink="http://www.w3.org/1999/xlink"
   xmlns="http://www.w3.org/2000/svg"
   xmlns:svg="http://www.w3.org/2000/svg"
   xmlns:ffdec="https://www.free-decompiler.com/flash">
  <sodipodi:namedview
     id="namedview62"
     pagecolor="#ffffff"
     bordercolor="#000000"
     borderopacity="0.25"
     inkscape:showpageshadow="2"
     inkscape:pageopacity="0.0"
     inkscape:pagecheckerboard="0"
     inkscape:deskcolor="#d1d1d1"
     fit-margin-top="5"
     fit-margin-left="5"
     fit-margin-right="5"
     fit-margin-bottom="5" />
  <g
     transform="translate(47.4,64.529527)"
     id="g25">
    <use
       ffdec:characterId="557"
       height="49.599998"
       transform="translate(-13.8,-53.15)"
       width="8.3000002"
       xlink:href="#shape0"
       id="use1" />
    <use
       ffdec:characterId="561"
       height="68.5"
       transform="translate(-47.4,-60.05)"
       width="68.849998"
       xlink:href="#sprite0"
       id="use2" />
    <use
       ffdec:characterId="525"
       height="6.9499998"
       transform="matrix(0.6447,-0.3722,0.3722,0.6447,12.8,20.15)"
       width="7.8000002"
       xlink:href="#sprite3"
       id="use3" />
    <use
       ffdec:characterId="531"
       height="7.4000001"
       transform="matrix(0.5264,0.5264,-0.5264,0.5264,27.1,33.45)"
       width="5.4499998"
       xlink:href="#sprite4"
       id="use4" />
    <use
       ffdec:characterId="523"
       height="6.5500002"
       transform="matrix(0.7445,0,0,0.7445,-11.25,-61.35)"
       width="6.1500001"
       xlink:href="#sprite5"
       id="use5" />
    <use
       ffdec:characterId="527"
       height="8.1000004"
       transform="matrix(0.5264,-0.5264,0.5264,0.5264,16.4,-9.6)"
       width="1.8"
       xlink:href="#sprite6"
       id="use6" />
    <use
       ffdec:characterId="521"
       height="18.700001"
       transform="matrix(-0.4415,0.5971,-0.5972,-0.4415,3.05,-46.95)"
       width="8.6000004"
       xlink:href="#sprite7"
       id="use7" />
    <use
       ffdec:characterId="290"
       height="30.799999"
       transform="matrix(0.7379,0.0839,-0.0838,0.7379,13.25,-30.55)"
       width="9.1999998"
       xlink:href="#sprite8"
       id="use8" />
    <use
       ffdec:characterId="288"
       height="48.799999"
       transform="matrix(0.7345,-0.11,0.137,0.7304,10.6,-10.25)"
       width="9.1999998"
       xlink:href="#sprite9"
       id="use9" />
    <use
       ffdec:characterId="521"
       height="18.700001"
       transform="matrix(-0.3662,0.9305,-0.9305,-0.3661,2.2,-53.8)"
       width="8.6000004"
       xlink:href="#sprite10"
       id="use10" />
    <use
       ffdec:characterId="337"
       height="23.85"
       transform="translate(-21.35,-41.15)"
       width="18.15"
       xlink:href="#sprite11"
       id="use11" />
    <use
       ffdec:characterId="531"
       height="7.4000001"
       transform="matrix(0.9659,-0.2588,0.2588,0.9659,-18.4,-63.6)"
       width="5.4499998"
       xlink:href="#sprite12"
       id="use12" />
    <use
       ffdec:characterId="523"
       height="6.5500002"
       transform="matrix(0.5,0.866,-0.866,0.5,29,-27.9)"
       width="6.1500001"
       xlink:href="#sprite13"
       id="use13" />
    <use
       ffdec:characterId="525"
       height="6.9499998"
       transform="matrix(0.7071,-0.7071,-0.7071,-0.7071,9.6,-20.6)"
       width="7.8000002"
       xlink:href="#sprite14"
       id="use14" />
    <use
       ffdec:characterId="527"
       height="8.1000004"
       transform="matrix(0.866,0.5,-0.5,0.866,-14.45,-53.45)"
       width="1.8"
       xlink:href="#sprite15"
       id="use15" />
    <use
       ffdec:characterId="529"
       height="7.3499999"
       transform="matrix(0.7071,0.7071,-0.7071,0.7071,22.4,-36.85)"
       width="4.8499999"
       xlink:href="#sprite16"
       id="use16" />
    <use
       ffdec:characterId="529"
       height="7.3499999"
       transform="matrix(0.1927,-0.7191,0.7191,0.1927,7.55,-12.3)"
       width="4.8499999"
       xlink:href="#sprite17"
       id="use17" />
    <use
       ffdec:characterId="288"
       height="48.799999"
       transform="matrix(0.9936,0.1129,-0.1129,0.9936,20.9,-2.75)"
       width="9.1999998"
       xlink:href="#sprite18"
       id="use18" />
    <use
       ffdec:characterId="290"
       height="30.799999"
       transform="rotate(-90,29.5,24)"
       width="9.1999998"
       xlink:href="#sprite19"
       id="use19" />
    <use
       ffdec:characterId="521"
       height="18.700001"
       transform="rotate(-90,29,17.7)"
       width="8.6000004"
       xlink:href="#sprite10"
       id="use20" />
    <use
       ffdec:characterId="288"
       height="48.799999"
       transform="matrix(0.7824,-0.6227,0.6228,0.7824,-7.1,-49.95)"
       width="9.1999998"
       xlink:href="#sprite20"
       id="use21" />
    <use
       ffdec:characterId="290"
       height="30.799999"
       transform="matrix(0.989,-0.1481,0.1481,0.989,16.2,-27.05)"
       width="9.1999998"
       xlink:href="#sprite21"
       id="use22" />
    <use
       ffdec:characterId="531"
       height="7.4000001"
       transform="matrix(0.866,-0.5,0.5,0.866,3.2,41.4)"
       width="5.4499998"
       xlink:href="#sprite12"
       id="use23" />
    <use
       ffdec:characterId="44"
       height="8"
       transform="matrix(0.866,-0.5,0.5,0.866,-17.4765,-25.0142)"
       width="10.8"
       xlink:href="#sprite22"
       id="use24" />
    <use
       ffdec:characterId="562"
       height="48.700001"
       transform="translate(-0.95,-49.75)"
       width="26.700001"
       xlink:href="#shape20"
       id="use25" />
  </g>
  <defs
     id="defs62">
    <g
       id="shape0"
       transform="translate(13.8,53.15)">
      <path
         d="m -12.2,-53.15 q 1.45,-0.05 1.6,2.75 l -0.15,3.1 q 0,8.35 -1.6,10.45 -0.6,-1.25 -1,-5.65 l -0.3,-4.8 -0.1,-3 q 0.15,-2.8 1.55,-2.85 m 4.7,19.25 q 0.55,2.9 0.6,7.05 v 7.1 l 0.1,7.15 0.05,3.6 q -0.1,1.4 0.55,1.95 0.7,0.65 0.7,1.45 0,0.75 -0.4,1.3 -0.55,0.75 -1.6,0.75 -1.85,0 -2,-2.05 l 0.65,-1.8 q 0.6,-1.25 0.6,-1.85 L -8.1,-20 l 0.05,-7.2 q 0.05,-4.45 0.55,-6.7"
         fill="#9a9a9a"
         fill-rule="evenodd"
         stroke="none"
         id="path25" />
    </g>
    <g
       id="sprite0"
       transform="translate(34.25,34.3)">
      <use
         ffdec:characterId="560"
         height="68.449997"
         transform="translate(-34.25,-34.25)"
         width="68.849998"
         xlink:href="#sprite1"
         id="use26" />
    </g>
    <g
       id="sprite1"
       transform="translate(34.25,34.25)">
      <use
         ffdec:characterId="559"
         height="68.449997"
         transform="translate(-34.25,-34.25)"
         width="68.5"
         xlink:href="#sprite2"
         id="use27" />
    </g>
    <g
       id="sprite2"
       transform="translate(34.25,34.25)">
      <use
         ffdec:characterId="558"
         height="68.449997"
         transform="translate(-34.25,-34.25)"
         width="68.5"
         xlink:href="#shape1"
         id="use28" />
    </g>
    <g
       id="shape1"
       transform="translate(34.25,34.25)">
      <path
         d="m 34.25,-0.05 q 0,14.2 -10.05,24.2 Q 14.15,34.2 0,34.2 q -14.15,0 -24.2,-10.05 -10.05,-10 -10.05,-24.2 0,-14.15 10.05,-24.2 10.05,-10 24.2,-10 14.15,0 24.2,10 10.05,10.05 10.05,24.2"
         fill="url(#gradient0)"
         fill-rule="evenodd"
         stroke="none"
         id="path28" />
    </g>
    <radialGradient
       cx="0"
       cy="0"
       gradientTransform="scale(0.0454)"
       gradientUnits="userSpaceOnUse"
       id="gradient0"
       r="819.20001"
       spreadMethod="pad">
      <stop
         offset="0.0"
         stop-color="#ffffcc"
         stop-opacity="0.49803922"
         id="stop28" />
      <stop
         offset="1.0"
         stop-color="#ffffff"
         stop-opacity="0.0"
         id="stop29" />
    </radialGradient>
    <g
       id="sprite3">
      <use
         ffdec:characterId="524"
         height="6.9499998"
         width="7.8000002"
         xlink:href="#shape2"
         id="use29" />
    </g>
    <g
       id="shape2">
      <path
         d="M 7.3,0 7.8,1.7 7,2 2.8,3.05 2.2,4.15 1.95,4.65 Q 1,6.6 0.3,6.95 L 0,6.2 0.05,5.95 0,5.65 Q 0,4.45 1.35,2.4 L 1.5,2.2 1.8,1.8 2.55,1.4 Q 3.6,0.9 5.7,0.35 L 7.3,0"
         fill="#9a9a9a"
         fill-rule="evenodd"
         stroke="none"
         id="path29" />
    </g>
    <g
       id="sprite4">
      <use
         ffdec:characterId="530"
         height="7.4000001"
         width="5.4499998"
         xlink:href="#shape3"
         id="use30" />
    </g>
    <g
       id="shape3">
      <path
         d="M 4.1,2.35 H 3.75 v 0.9 l -0.2,2.7 -0.1,0.7 Q 2.8,6.85 1.9,7.4 L 1.7,6.3 V 4.15 Q 1.7,3.1 1.85,2.4 H 0.35 Q 0.05,2.4 0.15,1.9 0,1.7 0,1.35 0,-0.15 2.75,0 5.45,0.1 5.45,1.2 L 4.95,1.9 Q 4.45,2.35 4.1,2.35"
         fill="#9a9a9a"
         fill-rule="evenodd"
         stroke="none"
         id="path30" />
    </g>
    <g
       id="sprite5">
      <use
         ffdec:characterId="522"
         height="6.5500002"
         width="6.1500001"
         xlink:href="#shape4"
         id="use31" />
    </g>
    <g
       id="shape4">
      <path
         d="m 3.05,2.05 -0.5,-0.9 q 0,-1.8 1.8,-0.75 1.8,1.1 1.8,2.7 0,1.15 -1.2,1.15 L 4,3.5 3.35,3.95 l -1.5,0.8 0.2,1.6 v 0.1 L 0.3,6.5 0.1,6.55 0,5.5 Q 0,4.65 0.3,4.3 V 4.15 l 2.25,-1.8 0.5,-0.3"
         fill="#9a9a9a"
         fill-rule="evenodd"
         stroke="none"
         id="path31" />
    </g>
    <g
       id="sprite6">
      <use
         ffdec:characterId="526"
         height="8.1000004"
         width="1.8"
         xlink:href="#shape5"
         id="use32" />
    </g>
    <g
       id="shape5">
      <path
         d="M 1.8,2.5 1.7,4.3 1.55,4.95 1.15,7.6 V 7.75 L 1.1,7.85 1.05,7.9 0.75,8.1 Q 0.15,7.4 0.15,4.8 V 4.7 L 0,4.05 0.15,0.6 1.7,0.65 1.8,2.5"
         fill="#9a9a9a"
         fill-rule="evenodd"
         stroke="none"
         id="path32" />
    </g>
    <g
       id="sprite7">
      <use
         ffdec:characterId="520"
         height="18.700001"
         width="8.6000004"
         xlink:href="#shape6"
         id="use33" />
    </g>
    <g
       id="shape6">
      <path
         d="m 8.6,2.7 v 0.25 2.7 0.45 0.3 0.65 0.45 0.25 0.15 0.75 2.3 0.25 1.1 0.3 0.45 2.7 0.25 1.2 H 8.4 L 8.35,17.75 8,17.6 Q 7.85,18.45 6.1,18.7 H 2.5 Q 0.75,18.45 0.6,17.6 L 0.25,17.75 V 17.2 H 0.05 L 0,16 V 13.35 L 0.05,10.8 V 10.55 9.75 8.55 7.6 L 0,5.2 V 2.7 L 0.05,1.5 h 0.2 V 1.15 0.95 L 0.6,1.1 Q 0.75,0.25 2.5,0 H 6.1 Q 7.85,0.25 8,1.1 L 8.35,0.95 8.4,1.5 H 8.6 V 2.7 M 3.95,16 H 4.3 4.45 l 1.1,0.05 H 5.6 v -0.3 -1 V 13.7 12.3 11.2 7.05 6.4 5 3.95 2.95 2.85 H 5.55 L 4.45,2.9 H 4.3 4.25 4.15 4 3.7 3.4 3 v 0.05 1 0.5 0.65 2.45 0.35 1.85 3.85 0.65 0.5 1 0.3 L 3.4,16 h 0.3 0.15 0.1"
         fill="#9a9a9a"
         fill-rule="evenodd"
         stroke="none"
         id="path33" />
      <path
         d="M 3.95,16 H 3.85 L 3.7,10.85 3.85,6.85 4.15,2.9 h 0.1 L 4.3,3.3 4.15,8.5 Q 4,10.05 4,12.2 L 3.95,16"
         fill="#ababab"
         fill-rule="evenodd"
         stroke="none"
         id="path34" />
      <path
         d="M 4.25,2.9 H 4.3 4.45 L 5.55,2.85 H 5.6 v 0.1 1 1.05 1.4 0.65 4.15 1.1 1.4 1.05 1 0.3 H 5.55 L 4.45,16 H 4.3 3.95 L 4,12.2 Q 4,10.05 4.15,8.5 L 4.3,3.3 4.25,2.9 M 3.85,16 H 3.7 3.4 L 3,16.05 v -0.3 -1 -0.5 V 13.6 9.75 7.9 7.55 5.1 4.45 3.95 2.95 2.9 H 3.4 3.7 4 4.15 l -0.3,3.95 -0.15,4 0.15,5.15"
         fill="#b5b0ac"
         fill-rule="evenodd"
         stroke="none"
         id="path35" />
    </g>
    <g
       id="sprite8">
      <use
         ffdec:characterId="289"
         height="30.799999"
         width="9.1999998"
         xlink:href="#shape7"
         id="use35" />
    </g>
    <g
       id="shape7">
      <path
         d="M 8.6,1.25 8.95,1.1 9.15,11.15 H 9.2 v 1.1 2.35 2.3 1.65 9.4 1.2 H 9 L 8.95,29.7 8.6,29.55 q -0.2,1.05 -2.95,1.2 l -1,0.05 H 4.55 L 3.45,30.75 Q 0.8,30.6 0.6,29.55 L 0.25,29.7 V 29.15 H 0.05 L 0,27.95 0.05,18.55 v -1.05 -1 -2 -0.95 -2.4 H 0.1 q 0,-6 0.15,-10.05 L 0.6,1.25 Q 0.8,0.2 3.45,0.05 L 4.55,0 h 0.1 l 1,0.05 Q 8.4,0.2 8.6,1.25 M 5.65,28 h 0.5 0.05 v -1.3 -7.05 -1.1 -1.45 -4.85 -1.1 H 6.3 L 6.4,7 V 6.55 Q 6.35,5.2 6.55,4.2 L 6.7,2.8 H 6.15 L 5.85,2.85 H 5.05 4.6 4.15 3.4 L 2.5,2.8 2.65,4.2 2.8,6.55 V 7 l 0.15,4.15 H 3 v 1.1 1.25 3.6 1.45 1 0.65 6.5 1.3 L 3.4,27.95 H 4.15 4.6 5.05 5.2 L 5.65,28"
         fill="#9a9a9a"
         fill-rule="evenodd"
         stroke="none"
         id="path36" />
      <path
         d="M 6.15,2.8 V 4.3 Q 6.15,6.5 5.6,9 5.05,11.5 5.05,15.1 5.05,18.15 5.7,27 L 5.65,28 5.2,27.95 4.6,15.05 4.65,11.5 Q 4.8,9.6 5.4,8.15 5.85,7.1 5.8,4.7 L 5.85,2.85 6.15,2.8"
         fill="#ababab"
         fill-rule="evenodd"
         stroke="none"
         id="path37" />
      <path
         d="M 5.65,28 5.7,27 Q 5.05,18.15 5.05,15.1 5.05,11.5 5.6,9 6.15,6.5 6.15,4.3 V 2.8 H 6.7 L 6.55,4.2 Q 6.35,5.2 6.4,6.55 V 7 L 6.3,11.15 H 6.2 v 1.1 4.85 1.45 1.1 7.05 1.3 H 6.15 5.65 M 5.85,2.85 5.8,4.7 Q 5.85,7.1 5.4,8.15 4.8,9.6 4.65,11.5 L 4.6,15.05 5.2,27.95 H 5.05 4.6 4.15 3.4 L 3,28 v -1.3 -6.5 -0.65 -1 -1.45 -3.6 -1.25 -1.1 H 2.95 L 2.8,7 V 6.55 L 2.65,4.2 2.5,2.8 3.4,2.85 h 0.75 0.45 0.45 0.8"
         fill="#b5b0ac"
         fill-rule="evenodd"
         stroke="none"
         id="path38" />
    </g>
    <g
       id="sprite9">
      <use
         ffdec:characterId="287"
         height="48.799999"
         width="9.1999998"
         xlink:href="#shape8"
         id="use38" />
    </g>
    <g
       id="shape8">
      <path
         d="M 5.65,0.05 Q 8.4,0.2 8.95,1.1 L 9.2,18.55 v 9.4 2.3 L 8.95,47.6 v 0.1 H 8.9 q -0.6,0.9 -3.25,1.05 l -1,0.05 H 4.55 L 3.45,48.75 Q 0.8,48.6 0.25,47.7 L 0.1,38.2 0.05,31.55 0,27.95 0.05,18.55 0.25,1.1 Q 0.8,0.2 3.45,0.05 L 4.55,0 h 0.1 l 1,0.05 m 0.55,27 V 26.7 18.55 L 6.25,11.8 6.4,7 V 6.55 Q 6.35,5.2 6.55,4.2 L 6.7,2.8 H 6.15 L 5.05,2.85 H 4.6 4.35 4.15 3.4 L 2.5,2.8 2.65,4.2 2.8,6.55 V 7 L 2.95,11.8 3,18.55 v 8.15 1.5 2.05 3.55 1.3 2.45 0.65 H 2.95 L 2.8,41.8 v 0.45 L 2.65,44.6 2.5,46 3.4,45.95 h 0.75 0.45 0.15 0.3 0.3 L 6.15,46 H 6.7 L 6.55,44.6 Q 6.35,43.6 6.4,42.25 V 41.8 L 6.3,38.2 H 6.25 L 6.2,37.55 v -2.45 -3.65 -1.2 -3.2"
         fill="#9a9a9a"
         fill-rule="evenodd"
         stroke="none"
         id="path39" />
      <path
         d="m 6.2,27.05 v 3.2 1.2 l -0.25,1.6 q -0.9,5.8 -0.9,8.5 l 0.3,4.4 H 5.05 4.75 L 4.65,45.4 Q 4.5,44.55 4.5,43.05 4.5,39.1 5.25,34.2 L 6.2,27.05 M 3,33.8 V 30.25 28.2 l 0.2,-1.3 1,-6.35 V 7.65 L 4.35,2.85 H 4.6 L 4.75,7.8 V 20.7 L 4.8,21 3.9,27.8 3,33.8"
         fill="#ababab"
         fill-rule="evenodd"
         stroke="none"
         id="path40" />
      <path
         d="M 4.6,2.85 H 5.05 L 6.15,2.8 H 6.7 L 6.55,4.2 Q 6.35,5.2 6.4,6.55 V 7 L 6.25,11.8 6.2,18.55 v 8.15 0.35 L 5.25,34.2 q -0.75,4.9 -0.75,8.85 0,1.5 0.15,2.35 l 0.1,0.55 H 4.6 4.15 3.4 L 2.5,46 2.65,44.6 2.8,42.25 V 41.8 L 2.95,38.2 H 3 V 37.55 35.1 33.8 L 3.9,27.8 4.8,21 4.75,20.7 V 7.8 L 4.6,2.85 m 1.6,28.6 v 3.65 2.45 L 6.25,38.2 H 6.3 l 0.1,3.6 v 0.45 Q 6.35,43.6 6.55,44.6 L 6.7,46 H 6.15 l -0.8,-0.05 -0.3,-4.4 q 0,-2.7 0.9,-8.5 L 6.2,31.45 M 3,28.2 V 26.7 18.55 L 2.95,11.8 2.8,7 V 6.55 L 2.65,4.2 2.5,2.8 3.4,2.85 h 0.75 0.2 L 4.2,7.65 v 12.9 L 3.2,26.9 3,28.2"
         fill="#b5b0ac"
         fill-rule="evenodd"
         stroke="none"
         id="path41" />
    </g>
    <g
       id="sprite10">
      <use
         ffdec:characterId="520"
         height="18.700001"
         width="8.6000004"
         xlink:href="#shape9"
         id="use41" />
    </g>
    <g
       id="shape9">
      <path
         d="m 8.6,2.7 v 0.25 2.7 0.45 0.3 0.65 0.45 0.25 0.15 0.75 2.3 0.25 1.1 0.3 0.45 2.7 0.25 1.2 H 8.4 L 8.35,17.75 8,17.6 Q 7.85,18.45 6.1,18.7 H 2.5 Q 0.75,18.45 0.6,17.6 L 0.25,17.75 V 17.2 H 0.05 L 0,16 V 13.35 L 0.05,10.8 V 10.55 9.75 8.55 7.6 L 0,5.2 V 2.7 L 0.05,1.5 h 0.2 V 1.15 0.95 L 0.6,1.1 Q 0.75,0.25 2.5,0 H 6.1 Q 7.85,0.25 8,1.1 L 8.35,0.95 8.4,1.5 H 8.6 V 2.7 M 3.95,16 H 4.3 4.45 l 1.1,0.05 H 5.6 v -0.3 -1 V 13.7 12.3 11.2 7.05 6.4 5 3.95 2.95 2.85 H 5.55 L 4.45,2.9 H 4.3 4.25 4.15 4 3.7 3.4 3 v 0.05 1 0.5 0.65 2.45 0.35 1.85 3.85 0.65 0.5 1 0.3 L 3.4,16 h 0.3 0.15 0.1"
         fill="#6b6b6b"
         fill-rule="evenodd"
         stroke="none"
         id="path42" />
      <path
         d="M 3.95,16 H 3.85 L 3.7,10.85 3.85,6.85 4.15,2.9 h 0.1 L 4.3,3.3 4.15,8.5 Q 4,10.05 4,12.2 L 3.95,16"
         fill="#989898"
         fill-rule="evenodd"
         stroke="none"
         id="path43" />
      <path
         d="M 4.25,2.9 H 4.3 4.45 L 5.55,2.85 H 5.6 v 0.1 1 1.05 1.4 0.65 4.15 1.1 1.4 1.05 1 0.3 H 5.55 L 4.45,16 H 4.3 3.95 L 4,12.2 Q 4,10.05 4.15,8.5 L 4.3,3.3 4.25,2.9 M 3.85,16 H 3.7 3.4 L 3,16.05 v -0.3 -1 -0.5 V 13.6 9.75 7.9 7.55 5.1 4.45 3.95 2.95 2.9 H 3.4 3.7 4 4.15 l -0.3,3.95 -0.15,4 0.15,5.15"
         fill="#b2a69a"
         fill-rule="evenodd"
         stroke="none"
         id="path44" />
    </g>
    <g
       id="sprite11">
      <use
         ffdec:characterId="336"
         height="23.85"
         width="18.15"
         xlink:href="#shape10"
         id="use44" />
    </g>
    <g
       id="shape10">
      <path
         d="M 11.8,4 V 4.05 L 9.05,4 6.35,4.05 V 4 q 0,-1.75 2.7,-1.9 H 9.1 Q 11.8,2.25 11.8,4 M 10.4,5.1 11.75,5.05 11.65,6.35 10.4,6.3 V 6.15 L 8.85,6.2 7.75,6.15 v 0.1 L 6.5,6.35 6.4,5.05 7.75,5.1 h 1.35 1.3 m 1.15,2.6 V 7.8 L 9.1,8.1 6.6,7.8 V 7.7 L 9,7.45 11.55,7.7"
         fill="#a8a8a8"
         fill-rule="evenodd"
         stroke="none"
         id="path45" />
      <path
         d="M 10.4,5.1 H 9.1 7.75 L 6.4,5.05 6.5,6.35 7.75,6.25 V 6.15 L 8.85,6.2 10.4,6.15 V 6.3 l 1.25,0.05 0.1,-1.3 L 10.4,5.1 M 11.8,4 Q 11.8,2.25 9.1,2.1 H 9.05 Q 6.35,2.25 6.35,4 V 4.05 L 9.05,4 11.8,4.05 V 4 m 2.5,0.35 -0.15,2.6 -0.3,1.25 1.8,1.05 q 2.5,2.25 2.5,7.35 0,2 -1.55,4.1 -2.3,3.15 -6.8,3.15 H 9.1 8.35 q -4.5,0 -6.8,-3.15 Q 0,18.6 0,16.6 0,11.5 2.5,9.25 3.3,8.55 4.3,8.2 L 4,6.95 3.85,4.35 q 0,-3.85 4,-4.3 h 1.2 1.25 q 4,0.45 4,4.3 M 11.55,7.7 9,7.45 6.6,7.7 V 7.8 L 9.1,8.1 11.55,7.8 V 7.7 M 10.7,9.7 10.3,9.55 9.15,9.1 H 9.05 L 8.3,9.4 8.6,10.05 10,13.5 q 0.1,-2.4 0.7,-3.8 M 7.8,11.15 7.75,11 7.5,9.7 q -1.9,0.6 -2.5,1.4 -0.7,1 -1.25,2.15 -0.55,1.3 -0.55,2 0,4.85 5.9,5.5 5.85,-0.65 5.85,-5.5 0,-0.7 -0.55,-2 L 13.15,11.1 q -0.5,-0.65 -1.9,-1.2 0.3,1.2 -0.3,3.2 v 0.1 q 2.1,0.2 2.65,0.85 l 0.2,0.95 -0.1,0.85 -0.9,1 h -1.7 q -0.9,-0.4 -1.1,-1 L 9.95,15.5 9.5,15.1 9.05,14.45 H 8.95 L 8.5,16.1 Q 8.2,16.8 7.35,16.95 L 6.7,17 q -0.75,0 -1.35,-1.6 0,-1.25 0.2,-1.55 0.4,-0.6 2.4,-1.4 L 7.8,11.15 m 0.15,2.45 q -1.75,0.5 -1.75,1.3 0,0.7 0.65,1 0.6,-0.3 0.85,-1.05 L 7.95,13.6 m 4.75,0.9 -1.5,-0.1 -0.15,0.05 -0.05,0.4 q 0,0.6 0.1,0.6 v 0.15 l 0.35,0.1 1.15,-0.2 0.15,-0.05 -0.05,-0.95"
         fill="#6b6b6b"
         fill-rule="evenodd"
         stroke="none"
         id="path46" />
      <path
         d="M 7.35,16.95 Q 6.8,17.6 6,17.6 L 3.85,17.4 q -0.3,-1.4 -0.3,-2.25 0,-2.4 2.5,-3.65 1.1,-0.55 1.75,-0.35 l 0.15,1.3 q -2,0.8 -2.4,1.4 -0.2,0.3 -0.2,1.55 Q 5.95,17 6.7,17 L 7.35,16.95 M 7.95,13.6 7.7,14.85 Q 7.45,15.6 6.85,15.9 6.2,15.6 6.2,14.9 q 0,-0.8 1.75,-1.3"
         fill="#ffffff"
         fill-rule="evenodd"
         stroke="none"
         id="path47" />
    </g>
    <g
       id="sprite12">
      <use
         ffdec:characterId="530"
         height="7.4000001"
         width="5.4499998"
         xlink:href="#shape11"
         id="use47" />
    </g>
    <g
       id="shape11">
      <path
         d="M 4.1,2.35 H 3.75 v 0.9 l -0.2,2.7 -0.1,0.7 Q 2.8,6.85 1.9,7.4 L 1.7,6.3 V 4.15 Q 1.7,3.1 1.85,2.4 H 0.35 Q 0.05,2.4 0.15,1.9 0,1.7 0,1.35 0,-0.15 2.75,0 5.45,0.1 5.45,1.2 L 4.95,1.9 Q 4.45,2.35 4.1,2.35"
         fill="#6b6b6b"
         fill-rule="evenodd"
         stroke="none"
         id="path48" />
    </g>
    <g
       id="sprite13">
      <use
         ffdec:characterId="522"
         height="6.5500002"
         width="6.1500001"
         xlink:href="#shape12"
         id="use48" />
    </g>
    <g
       id="shape12">
      <path
         d="m 3.05,2.05 -0.5,-0.9 q 0,-1.8 1.8,-0.75 1.8,1.1 1.8,2.7 0,1.15 -1.2,1.15 L 4,3.5 3.35,3.95 l -1.5,0.8 0.2,1.6 v 0.1 L 0.3,6.5 0.1,6.55 0,5.5 Q 0,4.65 0.3,4.3 V 4.15 l 2.25,-1.8 0.5,-0.3"
         fill="#6b6b6b"
         fill-rule="evenodd"
         stroke="none"
         id="path49" />
    </g>
    <g
       id="sprite14">
      <use
         ffdec:characterId="524"
         height="6.9499998"
         width="7.8000002"
         xlink:href="#shape13"
         id="use49" />
    </g>
    <g
       id="shape13">
      <path
         d="M 7.3,0 7.8,1.7 7,2 2.8,3.05 2.2,4.15 1.95,4.65 Q 1,6.6 0.3,6.95 L 0,6.2 0.05,5.95 0,5.65 Q 0,4.45 1.35,2.4 L 1.5,2.2 1.8,1.8 2.55,1.4 Q 3.6,0.9 5.7,0.35 L 7.3,0"
         fill="#6b6b6b"
         fill-rule="evenodd"
         stroke="none"
         id="path50" />
    </g>
    <g
       id="sprite15">
      <use
         ffdec:characterId="526"
         height="8.1000004"
         width="1.8"
         xlink:href="#shape14"
         id="use50" />
    </g>
    <g
       id="shape14">
      <path
         d="M 1.8,2.5 1.7,4.3 1.55,4.95 1.15,7.6 V 7.75 L 1.1,7.85 1.05,7.9 0.75,8.1 Q 0.15,7.4 0.15,4.8 V 4.7 L 0,4.05 0.15,0.6 1.7,0.65 1.8,2.5"
         fill="#6b6b6b"
         fill-rule="evenodd"
         stroke="none"
         id="path51" />
    </g>
    <g
       id="sprite16">
      <use
         ffdec:characterId="528"
         height="7.3499999"
         width="4.8499999"
         xlink:href="#shape15"
         id="use51" />
    </g>
    <g
       id="shape15">
      <path
         d="M 1.25,2.55 0,1.1 q 0,-2.05 2.45,-0.2 2.4,1.8 2.4,2.4 0,0.85 -0.9,0.85 L 2.9,3.85 2.4,6.45 2.35,6.7 2.4,7.05 v 0.3 L 0.9,7.25 1.1,4.5 Q 1.15,3.5 1.45,2.8 L 1.25,2.55"
         fill="#6b6b6b"
         fill-rule="evenodd"
         stroke="none"
         id="path52" />
    </g>
    <g
       id="sprite17">
      <use
         ffdec:characterId="528"
         height="7.3499999"
         width="4.8499999"
         xlink:href="#shape16"
         id="use52" />
    </g>
    <g
       id="shape16">
      <path
         d="M 1.25,2.55 0,1.1 q 0,-2.05 2.45,-0.2 2.4,1.8 2.4,2.4 0,0.85 -0.9,0.85 L 2.9,3.85 2.4,6.45 2.35,6.7 2.4,7.05 v 0.3 L 0.9,7.25 1.1,4.5 Q 1.15,3.5 1.45,2.8 L 1.25,2.55"
         fill="#9a9a9a"
         fill-rule="evenodd"
         stroke="none"
         id="path53" />
    </g>
    <g
       id="sprite18">
      <use
         ffdec:characterId="287"
         height="48.799999"
         width="9.1999998"
         xlink:href="#shape17"
         id="use53" />
    </g>
    <g
       id="shape17">
      <path
         d="M 5.65,0.05 Q 8.4,0.2 8.95,1.1 L 9.2,18.55 v 9.4 2.3 L 8.95,47.6 v 0.1 H 8.9 q -0.6,0.9 -3.25,1.05 l -1,0.05 H 4.55 L 3.45,48.75 Q 0.8,48.6 0.25,47.7 L 0.1,38.2 0.05,31.55 0,27.95 0.05,18.55 0.25,1.1 Q 0.8,0.2 3.45,0.05 L 4.55,0 h 0.1 l 1,0.05 m 0.55,27 V 26.7 18.55 L 6.25,11.8 6.4,7 V 6.55 Q 6.35,5.2 6.55,4.2 L 6.7,2.8 H 6.15 L 5.05,2.85 H 4.6 4.35 4.15 3.4 L 2.5,2.8 2.65,4.2 2.8,6.55 V 7 L 2.95,11.8 3,18.55 v 8.15 1.5 2.05 3.55 1.3 2.45 0.65 H 2.95 L 2.8,41.8 v 0.45 L 2.65,44.6 2.5,46 3.4,45.95 h 0.75 0.45 0.15 0.3 0.3 L 6.15,46 H 6.7 L 6.55,44.6 Q 6.35,43.6 6.4,42.25 V 41.8 L 6.3,38.2 H 6.25 L 6.2,37.55 v -2.45 -3.65 -1.2 -3.2"
         fill="#6b6b6b"
         fill-rule="evenodd"
         stroke="none"
         id="path54" />
      <path
         d="m 6.2,27.05 v 3.2 1.2 l -0.25,1.6 q -0.9,5.8 -0.9,8.5 l 0.3,4.4 H 5.05 4.75 L 4.65,45.4 Q 4.5,44.55 4.5,43.05 4.5,39.1 5.25,34.2 L 6.2,27.05 M 3,33.8 V 30.25 28.2 l 0.2,-1.3 1,-6.35 V 7.65 L 4.35,2.85 H 4.6 L 4.75,7.8 V 20.7 L 4.8,21 3.9,27.8 3,33.8"
         fill="#989898"
         fill-rule="evenodd"
         stroke="none"
         id="path55" />
      <path
         d="M 4.6,2.85 H 5.05 L 6.15,2.8 H 6.7 L 6.55,4.2 Q 6.35,5.2 6.4,6.55 V 7 L 6.25,11.8 6.2,18.55 v 8.15 0.35 L 5.25,34.2 q -0.75,4.9 -0.75,8.85 0,1.5 0.15,2.35 l 0.1,0.55 H 4.6 4.15 3.4 L 2.5,46 2.65,44.6 2.8,42.25 V 41.8 L 2.95,38.2 H 3 V 37.55 35.1 33.8 L 3.9,27.8 4.8,21 4.75,20.7 V 7.8 L 4.6,2.85 m 1.6,28.6 v 3.65 2.45 L 6.25,38.2 H 6.3 l 0.1,3.6 v 0.45 Q 6.35,43.6 6.55,44.6 L 6.7,46 H 6.15 l -0.8,-0.05 -0.3,-4.4 q 0,-2.7 0.9,-8.5 L 6.2,31.45 M 3,28.2 V 26.7 18.55 L 2.95,11.8 2.8,7 V 6.55 L 2.65,4.2 2.5,2.8 3.4,2.85 h 0.75 0.2 L 4.2,7.65 v 12.9 L 3.2,26.9 3,28.2"
         fill="#b2a69a"
         fill-rule="evenodd"
         stroke="none"
         id="path56" />
    </g>
    <g
       id="sprite19">
      <use
         ffdec:characterId="289"
         height="30.799999"
         width="9.1999998"
         xlink:href="#shape18"
         id="use56" />
    </g>
    <g
       id="shape18">
      <path
         d="M 8.6,1.25 8.95,1.1 9.15,11.15 H 9.2 v 1.1 2.35 2.3 1.65 9.4 1.2 H 9 L 8.95,29.7 8.6,29.55 q -0.2,1.05 -2.95,1.2 l -1,0.05 H 4.55 L 3.45,30.75 Q 0.8,30.6 0.6,29.55 L 0.25,29.7 V 29.15 H 0.05 L 0,27.95 0.05,18.55 v -1.05 -1 -2 -0.95 -2.4 H 0.1 q 0,-6 0.15,-10.05 L 0.6,1.25 Q 0.8,0.2 3.45,0.05 L 4.55,0 h 0.1 l 1,0.05 Q 8.4,0.2 8.6,1.25 M 5.65,28 h 0.5 0.05 v -1.3 -7.05 -1.1 -1.45 -4.85 -1.1 H 6.3 L 6.4,7 V 6.55 Q 6.35,5.2 6.55,4.2 L 6.7,2.8 H 6.15 L 5.85,2.85 H 5.05 4.6 4.15 3.4 L 2.5,2.8 2.65,4.2 2.8,6.55 V 7 l 0.15,4.15 H 3 v 1.1 1.25 3.6 1.45 1 0.65 6.5 1.3 L 3.4,27.95 H 4.15 4.6 5.05 5.2 L 5.65,28"
         fill="#6b6b6b"
         fill-rule="evenodd"
         stroke="none"
         id="path57" />
      <path
         d="M 6.15,2.8 V 4.3 Q 6.15,6.5 5.6,9 5.05,11.5 5.05,15.1 5.05,18.15 5.7,27 L 5.65,28 5.2,27.95 4.6,15.05 4.65,11.5 Q 4.8,9.6 5.4,8.15 5.85,7.1 5.8,4.7 L 5.85,2.85 6.15,2.8"
         fill="#989898"
         fill-rule="evenodd"
         stroke="none"
         id="path58" />
      <path
         d="M 5.65,28 5.7,27 Q 5.05,18.15 5.05,15.1 5.05,11.5 5.6,9 6.15,6.5 6.15,4.3 V 2.8 H 6.7 L 6.55,4.2 Q 6.35,5.2 6.4,6.55 V 7 L 6.3,11.15 H 6.2 v 1.1 4.85 1.45 1.1 7.05 1.3 H 6.15 5.65 M 5.85,2.85 5.8,4.7 Q 5.85,7.1 5.4,8.15 4.8,9.6 4.65,11.5 L 4.6,15.05 5.2,27.95 H 5.05 4.6 4.15 3.4 L 3,28 v -1.3 -6.5 -0.65 -1 -1.45 -3.6 -1.25 -1.1 H 2.95 L 2.8,7 V 6.55 L 2.65,4.2 2.5,2.8 3.4,2.85 h 0.75 0.45 0.45 0.8"
         fill="#b2a69a"
         fill-rule="evenodd"
         stroke="none"
         id="path59" />
    </g>
    <g
       id="sprite20">
      <use
         ffdec:characterId="287"
         height="48.799999"
         width="9.1999998"
         xlink:href="#shape17"
         id="use59" />
    </g>
    <g
       id="sprite21">
      <use
         ffdec:characterId="289"
         height="30.799999"
         width="9.1999998"
         xlink:href="#shape18"
         id="use60" />
    </g>
    <g
       id="sprite22"
       transform="translate(5.4,4)">
      <use
         ffdec:characterId="43"
         height="8"
         transform="translate(-5.4,-4)"
         width="10.8"
         xlink:href="#shape19"
         id="use61" />
    </g>
    <g
       id="shape19"
       transform="translate(5.4,4)">
      <path
         d="m 2.9,-0.35 q 0,-1.25 1.25,-1.25 1.25,0 1.25,1.2 0,1.3 -1.25,1.3 Q 3.6,0.9 3.25,0.5 2.9,0.15 2.9,-0.35 m 0.35,-2.3 q 0,0.55 -0.35,0.9 -0.4,0.45 -1,0.45 -1.35,0 -1.35,-1.4 0,-1.3 1.35,-1.3 1.35,0 1.35,1.35 m -3.1,1.9 h 0.2 q 2.6,0.1 2.6,2.8 l -0.3,1 Q 2.05,4 0.45,4 H 0.35 0.15 0.1 -0.45 q -1.6,0 -2.2,-0.95 l -0.3,-1 q 0,-2.8 2.8,-2.8 h 0.3 M -1.55,-4 q 1.35,0 1.35,1.35 0,0.55 -0.4,0.9 -0.4,0.45 -0.95,0.45 -1.4,0 -1.4,-1.4 0,-1.3 1.4,-1.3 m -2.6,2.4 q 1.25,0 1.25,1.25 0,0.5 -0.35,0.85 -0.35,0.4 -0.9,0.4 -1.25,0 -1.25,-1.3 0,-1.2 1.25,-1.2"
         fill="#6b6b6b"
         fill-opacity="0.498039"
         fill-rule="evenodd"
         stroke="none"
         id="path61" />
    </g>
    <g
       id="shape20"
       transform="translate(0.95,49.75)">
      <path
         d="m 0.6,-48.4 q -0.25,0.35 -0.65,0.35 -0.6,0 -0.8,-0.45 l -0.1,-0.5 q 0,-0.7 0.9,-0.75 0.85,-0.1 0.85,0.75 l -0.2,0.6 m 19.65,26.2 q 0,-1.15 1.2,-1.2 1.15,-0.05 1.15,1.15 l -0.25,0.75 q -0.35,0.45 -0.95,0.45 -0.7,0 -1,-0.55 l -0.15,-0.6 m 5.3,20.7 -0.65,0.45 q -0.4,0 -0.7,-0.45 L 24,-2 q 0,-0.9 0.9,-0.9 0.85,0 0.85,0.8 l -0.2,0.6"
         fill="#6b6b6b"
         fill-rule="evenodd"
         stroke="none"
         id="path62" />
    </g>
  </defs>
</svg>
