<?xml version="1.0" encoding="UTF-8" standalone="no"?>
<svg
   ffdec:objectType="frame"
   height="28.200001"
   width="22.787439"
   version="1.1"
   id="svg18"
   sodipodi:docname="2.svg"
   xmlns:inkscape="http://www.inkscape.org/namespaces/inkscape"
   xmlns:sodipodi="http://sodipodi.sourceforge.net/DTD/sodipodi-0.dtd"
   xmlns:xlink="http://www.w3.org/1999/xlink"
   xmlns="http://www.w3.org/2000/svg"
   xmlns:svg="http://www.w3.org/2000/svg"
   xmlns:ffdec="https://www.free-decompiler.com/flash">
  <sodipodi:namedview
     id="namedview18"
     pagecolor="#ffffff"
     bordercolor="#000000"
     borderopacity="0.25"
     inkscape:showpageshadow="2"
     inkscape:pageopacity="0.0"
     inkscape:pagecheckerboard="0"
     inkscape:deskcolor="#d1d1d1"
     fit-margin-top="5"
     fit-margin-left="5"
     fit-margin-right="5"
     fit-margin-bottom="5" />
  <g
     transform="translate(11.487439,13.6)"
     id="g1">
    <use
       ffdec:characterId="3675"
       height="30.25"
       transform="translate(-12.2,-15.65)"
       width="24.75"
       xlink:href="#sprite0"
       id="use1" />
  </g>
  <defs
     id="defs18">
    <g
       id="sprite0"
       transform="translate(12.2,15.65)">
      <use
         ffdec:characterId="3670"
         height="13.55"
         transform="matrix(0.2589,-0.9659,0.9659,0.2589,-12.2186,10.9303)"
         width="6.25"
         xlink:href="#sprite1"
         id="use2" />
      <use
         ffdec:characterId="3672"
         height="16.6"
         transform="translate(-5.05,-2)"
         width="15"
         xlink:href="#sprite2"
         id="use3" />
      <use
         ffdec:characterId="3674"
         height="19.049999"
         transform="translate(-7.65,-13.6)"
         width="18.950001"
         xlink:href="#sprite3"
         id="use4" />
    </g>
    <g
       id="sprite1"
       transform="translate(0.75,0.75)">
      <use
         ffdec:characterId="3669"
         height="13.55"
         transform="translate(-0.75,-0.75)"
         width="6.25"
         xlink:href="#shape0"
         id="use5" />
    </g>
    <g
       id="shape0"
       transform="translate(0.75,0.75)">
      <path
         d="m 0.45,10.25 -0.4,-0.4 0.25,-0.4 0.15,0.8"
         fill="#b8b8b8"
         fill-rule="evenodd"
         stroke="none"
         id="path5" />
      <path
         d="m 1.45,2.8 h 0.2 Q 2.35,2.8 3,2.3 L 3.1,2.25 3.35,3.1 2.45,3 1.45,3.1 V 2.8 m 0,1.8 L 2.5,4.7 3.45,4.65 V 4.8 L 2.35,4.9 1.45,5.2 V 4.6 M 3.35,8.05 3.3,8.5 1.9,8.7 1.75,8.75 1.65,8.2 H 2.1 L 3.35,8.05 M 3,9.9 2.9,10.15 2.7,10.05 2.85,9.95 3,9.9 M 1.55,7 1.5,6.55 3.1,6.2 3.45,6 V 7.1 L 2.05,6.95 1.55,7"
         fill="#eeeeee"
         fill-rule="evenodd"
         stroke="none"
         id="path6" />
      <path
         d="M 0.3,9.45 0.25,8.2 0.05,4.2 Q -0.1,3 0.1,2 0.55,0.05 2.35,0.05 h 0.2 Q 3.2,-0.15 3.6,0.45 4.4,1 4.65,2.4 L 4.75,5.8 4.6,9.1 Q 4.2,12.05 2.7,12.05 1,12.05 0.55,10.6 L 0.45,10.25 0.3,9.45 M 3.1,2.25 2.8,1.45 2.15,1.4 Q 1.65,1.7 1.45,2.7 V 2.8 3.1 4.2 4.6 5.2 L 1.5,6.55 1.55,7 v 0.4 l 0.1,0.8 0.1,0.55 0.5,1.35 0.1,0.15 L 2.7,10.6 2.9,10.15 3,9.9 3.3,8.5 3.35,8.05 3.45,7.1 V 6 5.7 4.8 4.65 3.65 L 3.35,3.1 3.1,2.25"
         fill="#6b6b6b"
         fill-rule="evenodd"
         stroke="none"
         id="path7" />
      <path
         d="M 3.1,2.25 3,2.3 Q 2.35,2.8 1.65,2.8 H 1.45 V 2.7 q 0.2,-1 0.7,-1.3 l 0.65,0.05 0.3,0.8 m -1.65,0.85 1,-0.1 0.9,0.1 0.1,0.55 v 1 L 2.5,4.7 1.45,4.6 V 4.2 3.1 m 0,2.1 0.9,-0.3 1.1,-0.1 V 5.7 6 L 3.1,6.2 1.5,6.55 1.45,5.2 M 3.3,8.5 3,9.9 2.85,9.95 2.7,10.05 2.9,10.15 2.7,10.6 2.35,10.25 2.25,10.1 1.75,8.75 1.9,8.7 3.3,8.5 M 1.65,8.2 1.55,7.4 V 7 L 2.05,6.95 3.45,7.1 3.35,8.05 2.1,8.2 H 1.65"
         fill="#b2a59b"
         fill-rule="evenodd"
         stroke="none"
         id="path8" />
      <path
         d="M 0.3,9.45 0.25,8.2 0.05,4.2 Q -0.1,3 0.1,2 0.55,0.05 2.35,0.05 h 0.2 Q 3.2,-0.15 3.6,0.45 4.4,1 4.65,2.4 L 4.75,5.8 4.6,9.1 Q 4.2,12.05 2.7,12.05 1,12.05 0.55,10.6 l -0.1,-0.35 z"
         fill="none"
         stroke="#6b6b6b"
         stroke-linecap="round"
         stroke-linejoin="round"
         stroke-width="1.5"
         id="path9" />
    </g>
    <g
       id="sprite2"
       transform="translate(1)">
      <use
         ffdec:characterId="3671"
         height="16.6"
         transform="translate(-1)"
         width="15"
         xlink:href="#shape1"
         id="use9" />
    </g>
    <g
       id="shape1"
       transform="translate(1)">
      <path
         d="M 7.45,3.45 7.9,3.4 l 1.5,0.3 0.25,0.15 0.9,0.7 0.4,0.7 q 0.75,1.2 0.9,2.8 0.3,1.15 0.2,2.4 L 12,10.95 q -0.1,1.1 0.4,1.5 l 0.1,0.05 q 0.5,0.4 0.5,1.25 0,1.65 -2.25,1.65 L 9.4,15.2 q -0.35,0.4 -1,0.4 -0.65,0 -1.1,-0.4 L 7.4,15.4 7.2,15.6 6.75,15.1 6.55,15.05 H 6.45 L 5.75,15.2 Q 5.3,15.6 4.6,15.6 L 4.1,15.5 q -0.35,0 -0.55,-0.3 l -1.3,0.2 Q 0,15.4 0,13.75 L 0.2,13 0.95,12.05 1.05,11.75 1.15,10.4 V 9.95 8.1 8.05 q 0.2,-1.6 0.9,-2.8 L 2.5,4.55 3.35,3.85 3.55,3.7 5.15,3.4 5.5,3.45 5.35,2.85 V 1.7 L 5.4,0.75 Q 5.65,0 6.55,0 7.6,0 7.55,2.2 L 7.45,3.45 H 7.3 L 6.5,3.65 6.15,3.55 5.5,3.45 6.15,3.55 6.5,3.65 7.3,3.45 h 0.15 m 2.8,3 Q 9.75,5.2 8.55,4.65 L 7.9,4.35 7.55,4.3 6.55,4.35 H 6.45 L 5.5,4.3 5.15,4.35 Q 4.75,4.45 4.45,4.65 3.65,5 3.2,5.7 L 3.1,5.85 3.05,5.9 2.65,6.8 2.3,8.65 V 8.8 L 2.25,8.95 2.15,9.9 v 2.5 0.05 l 0.2,-0.05 0.5,-0.05 V 12.2 12.15 L 2.9,11.75 V 11.7 l 0.05,-0.4 v -0.45 l 0.2,-1.3 Q 3.3,8.9 3.55,8.6 L 3.75,8.4 3.8,8.35 4.05,8.55 4.1,8.6 V 8.75 L 4,8.95 V 9.1 9.4 10.15 L 3.95,10.5 v 1.15 q 0,2.8 1,2.8 0.4,0 0.6,-0.35 L 5.7,13.15 5.85,12 5.8,10.95 5.75,10.1 6.55,10.25 7.2,10.1 v 0.15 l -0.05,0.35 -0.05,0.25 -0.05,0.2 0.05,0.6 0.05,1.2 q 0.1,1.6 0.9,1.6 0.5,0 0.7,-0.6 L 8.9,11.85 8.55,9.2 V 9.15 q 0,-0.6 0.15,-0.6 L 8.95,8.65 9,8.7 9.1,8.8 9.45,9.15 9.6,9.7 9.8,11 v 0.25 l 0.05,0.1 v 0.5 0.15 l 0.05,0.15 v 0.15 0.1 L 10,12.35 h 0.05 0.45 l 0.1,0.05 h 0.05 l 0.2,0.05 V 9.9 L 10.75,9.1 10.65,8.35 10.6,8.1 10.35,6.8 10.25,6.5 V 6.45 m 0.3,6.35 -0.6,0.1 v 0.55 l -0.05,0.7 1.45,0.05 q 0.5,-0.05 0.5,-0.55 l -0.3,-0.4 -0.4,-0.25 -0.2,-0.2 h -0.4 m -7.65,0 H 2.75 L 2,12.9 1.45,13.25 q -0.3,0.15 -0.3,0.4 0,0.5 0.5,0.55 L 3.1,14.15 2.9,12.8"
         fill="#6b6b6b"
         fill-rule="evenodd"
         stroke="none"
         id="path10" />
      <path
         d="M 10.25,6.45 10.2,6.55 8.95,8.65 8.7,8.55 q -0.15,0 -0.15,0.6 V 9.2 l 0.35,2.65 -0.15,2 q -0.2,0.6 -0.7,0.6 -0.8,0 -0.9,-1.6 L 7.1,11.65 7.05,11.05 7.1,10.85 7.15,10.6 7.2,10.25 V 10.1 L 6.55,10.25 5.75,10.1 5.8,10.95 5.85,12 5.7,13.15 5.55,14.1 q -0.2,0.35 -0.6,0.35 -1,0 -1,-2.8 V 10.5 L 4,10.15 4.1,9.55 4,9.4 V 9.1 8.95 L 4.1,8.75 V 8.6 L 4.05,8.55 3.8,8.35 3.75,8.4 3.55,8.6 2.9,7.2 Q 2.9,6.45 3.05,5.9 L 3.1,5.85 3.2,5.7 Q 3.65,5 4.45,4.65 4.75,4.45 5.15,4.35 L 5.5,4.3 6.45,4.35 h 0.1 l 1,-0.05 0.35,0.05 0.65,0.3 q 1.2,0.55 1.7,1.8 m 0.9,6.55 0.4,0.25 0.3,0.4 q 0,0.5 -0.5,0.55 L 9.9,14.15 9.95,13.45 V 12.9 l 0.6,-0.1 0.6,0.2 M 2.9,12.8 3.1,14.15 1.65,14.2 q -0.5,-0.05 -0.5,-0.55 0,-0.25 0.3,-0.4 L 2,12.9 2.75,12.8 H 2.9"
         fill="#eeeeee"
         fill-rule="evenodd"
         stroke="none"
         id="path11" />
      <path
         d="m 12.05,10.45 0.6,1.35 -0.15,0.7 -0.1,-0.05 q -0.5,-0.4 -0.4,-1.5 l 0.05,-0.5 m -11,1.3 -0.1,-0.5 0.2,-0.85 -0.1,1.35 M 4,9.4 4.1,9.55 4,10.15 V 9.4 m 7.15,3.6 -0.6,-0.2 h 0.4 l 0.2,0.2"
         fill="#b8b8b8"
         fill-rule="evenodd"
         stroke="none"
         id="path12" />
      <path
         d="M 3.05,5.9 Q 2.9,6.45 2.9,7.2 L 3.55,8.6 Q 3.3,8.9 3.15,9.55 l -0.2,1.3 V 11.3 L 2.9,11.7 v 0.05 l -0.05,0.4 v 0.05 0.15 L 2.35,12.4 H 2.15 V 9.9 L 2.25,8.95 2.3,8.8 V 8.65 L 2.65,6.8 3.05,5.9 m 5.9,2.75 1.25,-2.1 0.05,-0.05 0.1,0.3 0.25,1.3 0.05,0.25 0.1,0.75 0.1,0.8 v 2.55 L 10.65,12.4 H 10.6 L 10.5,12.35 H 10.05 10 L 9.9,12.3 V 12.15 L 9.85,12 v -0.15 -0.5 L 9.8,11.25 V 11 L 9.6,9.7 9.45,9.15 9.1,8.8 9,8.7 8.95,8.65"
         fill="#b2a59b"
         fill-rule="evenodd"
         stroke="none"
         id="path13" />
      <path
         d="M 7.45,3.45 7.9,3.4 l 1.5,0.3 0.25,0.15 0.9,0.7 0.4,0.7 q 0.75,1.2 0.9,2.8 0.3,1.15 0.2,2.4 L 12,10.95 q -0.1,1.1 0.4,1.5 l 0.1,0.05 q 0.5,0.4 0.5,1.25 0,1.65 -2.25,1.65 L 9.4,15.2 q -0.35,0.4 -1,0.4 -0.65,0 -1.1,-0.4 M 6.75,15.1 6.55,15.05 H 6.45 L 5.75,15.2 Q 5.3,15.6 4.6,15.6 L 4.1,15.5 M 3.55,15.2 2.25,15.4 Q 0,15.4 0,13.75 L 0.2,13 0.95,12.05 1.05,11.75 1.15,10.4 V 9.95 8.1 8.05 q 0.2,-1.6 0.9,-2.8 L 2.5,4.55 3.35,3.85 3.55,3.7 5.15,3.4 5.5,3.45 6.15,3.55 6.5,3.65 7.3,3.45 h 0.15"
         fill="none"
         stroke="#6b6b6b"
         stroke-linecap="round"
         stroke-linejoin="round"
         stroke-width="2"
         id="path14" />
    </g>
    <g
       id="sprite3">
      <use
         ffdec:characterId="3673"
         height="19.049999"
         width="18.950001"
         xlink:href="#shape2"
         id="use14" />
    </g>
    <g
       id="shape2">
      <path
         d="M 9.1,18.95 H 8.75 q -5.1,0 -7.4,-3.6 Q 0,13.15 0,10.5 0,7.7 1.3,5.6 L 1.05,5.3 0.85,4.6 Q 0.85,1.75 1.75,0.55 2.2,-0.15 3,0.25 L 3.95,1.05 5.3,2.1 Q 6.95,1.4 8.95,1.3 h 0.7 0.4 q 1.8,0.1 3.4,0.7 l 1.6,-1.3 0.05,-0.25 q 0.35,-0.6 1.05,-0.4 1.25,0.45 1.25,3.15 l -0.15,1.75 q 1.7,2.3 1.7,5.55 0,2.65 -1.35,4.85 -2.25,3.6 -7.4,3.6 H 9.35 9.1 M 16.2,9.1 15.9,7.75 15.15,6.2 14.95,5.9 13.95,4.9 13.85,4.85 13.4,4.6 13.1,4.45 12.95,4.35 12.65,4.25 12.6,4.2 11.8,3.95 H 11.75 L 11.35,3.85 10.7,3.7 10.3,3.65 9.35,3.55 H 9.25 L 8.5,3.65 8.2,3.7 7.95,3.75 7.6,3.85 6.5,4.15 Q 6.05,4.3 5.7,4.5 L 5.5,4.6 Q 4.95,4.9 4.55,5.3 L 4.45,5.4 4.1,5.75 3.8,6.2 3.5,6.75 3.4,7 V 7.05 L 3.1,7.75 2.95,8.25 2.75,9 2.65,10.3 2.8,11.75 q 0.2,1.1 0.8,1.95 l 0.9,1.15 q 1.55,1.55 4.2,1.65 h 0.35 0.3 0.3 0.25 l 1.3,-0.1 1.1,-0.25 q 1.95,-0.6 3.1,-2.45 0.9,-1.4 0.9,-3.4 L 16.2,9.1 M 4.35,9.15 4.55,8.85 H 4.5 L 4.35,8.8 3.95,8.65 3.85,8.6 H 3.75 L 3.65,8.55 Q 3.65,8.1 4.2,7.9 H 4.3 L 4.45,7.85 5,7.8 5.75,7.85 6,7.9 H 6.2 L 6.5,7.95 7.4,8.15 8,8.3 h 0.05 q 0.7,0.25 0.7,0.45 v 0.1 L 8,9.3 7.85,9.35 h -0.3 l 0.15,0.5 v 0.1 0.35 L 7.3,11.2 Q 6.85,11.75 6.2,11.85 H 5.95 5.9 L 5.15,11.75 4.55,11.5 Q 4.1,11.1 4.1,10.4 4.1,9.6 4.35,9.15 m 8.35,-1.2 0.2,-0.1 0.5,-0.15 h 0.05 l 0.5,-0.15 h 0.1 L 14.7,7.6 14.85,7.8 14.9,8 14.6,8.4 14.55,8.45 14.75,8.6 15,8.85 l 0.15,0.3 0.2,0.95 q 0,0.85 -0.45,1.25 -0.45,0.35 -1.25,0.35 H 13.5 l -1.25,-0.4 -0.2,-0.25 q -0.3,-0.4 -0.3,-0.75 L 11.9,9.7 H 11.75 11.5 L 11,9.55 10.9,9.25 q 0,-0.4 0.75,-0.8 l 0.15,-0.1 0.9,-0.4 m -1.9,5.4 0.65,0.45 q -0.1,0.2 -0.5,0.2 l -0.4,-0.15 -0.5,-0.2 -0.95,0.5 -0.4,-0.1 -0.05,-0.25 q 0,-0.25 0.75,-0.7 L 8.8,12.55 8.6,11.8 q 0,-0.65 1.4,-0.75 h 0.2 Q 11.35,11 11.35,11.6 l -0.5,0.95 -0.4,0.5 v 0.1 l 0.35,0.2 m -0.7,-1 0.15,-0.3 0.2,-0.3 H 10.1 L 9.3,11.7 q 0.1,0.5 0.75,0.7 l 0.05,-0.05"
         fill="#6b6b6b"
         fill-rule="evenodd"
         stroke="none"
         id="path15" />
      <path
         d="m 10.1,11.75 h 0.35 l -0.2,0.3 -0.15,0.3 V 11.8 11.75"
         fill="#b8b8b8"
         fill-rule="evenodd"
         stroke="none"
         id="path16" />
      <path
         d="m 10.2,18.95 -0.6,0.1 -0.5,-0.1 h 0.25 0.85 m 6,-9.85 0.1,1.2 q 0,2 -0.9,3.4 -1.15,1.85 -3.1,2.45 L 11.2,16.4 9.9,16.5 H 9.65 9.35 9.05 8.7 Q 6.05,16.4 4.5,14.85 L 3.6,13.7 Q 3,12.85 2.8,11.75 L 2.65,10.3 2.75,9 3.35,9.45 h 0.3 l 0.7,-0.3 Q 4.1,9.6 4.1,10.4 3.55,10.35 3.4,10.95 L 3.35,11.4 q 0,0.4 0.3,0.85 L 3.7,12.3 q 0.45,0.6 1.35,0.6 0.75,0 0.85,-0.7 L 6.2,11.85 Q 6.85,11.75 7.3,11.2 L 7.7,10.3 V 9.95 9.85 L 7.55,9.35 h 0.3 L 8,9.3 8.75,8.85 q 0.9,-0.2 1.3,-1.5 l 0.05,0.1 q 0.35,0.95 0.7,0.95 0.45,0 0.75,-0.35 L 11.9,7 V 6.85 l 0.3,-0.2 -0.1,0.4 V 7.5 l 0.15,0.2 0.45,0.25 -0.9,0.4 -0.15,0.1 q -0.75,0.4 -0.75,0.8 l 0.1,0.3 0.5,0.15 h 0.25 0.15 l -0.15,0.6 H 11.7 L 11.25,10.1 Q 10.4,10 10.2,11.05 H 10 q -1.4,0.1 -1.4,0.75 l 0.2,0.75 0.6,0.55 q -0.75,0.45 -0.75,0.7 l 0.05,0.25 0.4,0.1 0.95,-0.5 0.5,0.2 0.4,0.15 q 0.4,0 0.5,-0.2 l -0.65,-0.45 0.4,0.05 q 0.5,0 0.85,-0.45 l 0.3,-0.65 -0.1,-1 1.25,0.4 h 0.15 q 0.8,0 1.25,-0.35 0.45,-0.4 0.45,-1.25 L 15.15,9.15 15,8.85 15.55,9.3 16.2,9.1 M 6.5,7.95 V 7.6 Q 6.5,6.45 5.8,5.9 L 5.9,5.65 5.95,5.6 6.05,5.85 q 0.6,1.05 1.2,1.3 V 7.6 L 7.4,8.15 6.5,7.95 M 14.6,8.4 14.75,8.6 14.55,8.45 14.6,8.4 m -1.8,-2.85 0.3,-0.3 0.15,0.2 -0.65,0.6 0.2,-0.5 m -2.7,6.2 v 0.05 0.55 L 10.05,12.4 Q 9.4,12.2 9.3,11.7 l 0.8,0.05"
         fill="#eeeeee"
         fill-rule="evenodd"
         stroke="none"
         id="path17" />
      <path
         d="M 2.75,9 2.95,8.25 3.1,7.75 3.4,7.05 V 7 L 3.5,6.75 3.8,6.2 4.1,5.75 4.45,5.4 4.55,5.3 Q 4.95,4.9 5.5,4.6 L 5.7,4.5 Q 6.05,4.3 6.5,4.15 L 7.6,3.85 7.95,3.75 8.2,3.7 8.5,3.65 9.25,3.55 h 0.1 l 0.95,0.1 0.4,0.05 0.65,0.15 0.4,0.1 h 0.05 l 0.8,0.25 0.05,0.05 0.3,0.1 0.15,0.1 0.3,0.15 0.45,0.25 0.1,0.05 1,1 0.2,0.3 L 15.9,7.75 16.2,9.1 15.55,9.3 15,8.85 14.75,8.6 14.6,8.4 14.9,8 14.85,7.8 14.7,7.6 14.05,7.55 h -0.1 L 13.45,7.7 H 13.4 L 12.9,7.85 12.7,7.95 12.25,7.7 12.1,7.5 V 7.05 l 0.1,-0.4 -0.3,0.2 V 7 L 11.55,8.05 Q 11.25,8.4 10.8,8.4 10.45,8.4 10.1,7.45 l -0.05,-0.1 q -0.4,1.3 -1.3,1.5 v -0.1 q 0,-0.2 -0.7,-0.45 H 8 L 7.4,8.15 7.25,7.6 V 7.15 Q 6.65,6.9 6.05,5.85 L 5.95,5.6 5.9,5.65 5.8,5.9 Q 6.5,6.45 6.5,7.6 V 7.95 L 6.2,7.9 H 6 L 5.75,7.85 5,7.8 4.45,7.85 4.3,7.9 H 4.2 Q 3.65,8.1 3.65,8.55 l 0.1,0.05 h 0.1 l 0.1,0.05 0.4,0.15 0.15,0.05 h 0.05 l -0.2,0.3 -0.7,0.3 H 3.35 L 2.75,9 m 10.05,-3.45 -0.2,0.5 0.65,-0.6 -0.15,-0.2 -0.3,0.3 m -1.05,4.75 q 0,0.35 0.3,0.75 l 0.2,0.25 0.1,1 -0.3,0.65 Q 11.7,13.4 11.2,13.4 l -0.4,-0.05 -0.35,-0.2 v -0.1 l 0.4,-0.5 0.5,-0.95 Q 11.35,11 10.2,11.05 10.4,10 11.25,10.1 l 0.45,0.2 h 0.05 M 6.2,11.85 5.9,12.2 q -0.1,0.7 -0.85,0.7 -0.9,0 -1.35,-0.6 L 3.65,12.25 Q 3.35,11.8 3.35,11.4 L 3.4,10.95 q 0.15,-0.6 0.7,-0.55 0,0.7 0.45,1.1 l 0.6,0.25 0.75,0.1 H 5.95 6.2"
         fill="#b2a59b"
         fill-rule="evenodd"
         stroke="none"
         id="path18" />
    </g>
  </defs>
</svg>
