<?xml version="1.0" encoding="UTF-8" standalone="no"?>
<svg
   ffdec:objectType="frame"
   height="24.5"
   width="24.977293"
   version="1.1"
   id="svg12"
   sodipodi:docname="2.svg"
   xmlns:inkscape="http://www.inkscape.org/namespaces/inkscape"
   xmlns:sodipodi="http://sodipodi.sourceforge.net/DTD/sodipodi-0.dtd"
   xmlns:xlink="http://www.w3.org/1999/xlink"
   xmlns="http://www.w3.org/2000/svg"
   xmlns:svg="http://www.w3.org/2000/svg"
   xmlns:ffdec="https://www.free-decompiler.com/flash">
  <sodipodi:namedview
     id="namedview12"
     pagecolor="#ffffff"
     bordercolor="#000000"
     borderopacity="0.25"
     inkscape:showpageshadow="2"
     inkscape:pageopacity="0.0"
     inkscape:pagecheckerboard="0"
     inkscape:deskcolor="#d1d1d1"
     fit-margin-top="5"
     fit-margin-left="5"
     fit-margin-right="5"
     fit-margin-bottom="5" />
  <g
     transform="translate(12.85,10.6)"
     id="g1">
    <use
       ffdec:characterId="3699"
       height="32.549999"
       transform="translate(-12.85,-18.65)"
       width="25.700001"
       xlink:href="#sprite0"
       id="use1" />
  </g>
  <defs
     id="defs12">
    <g
       id="sprite0"
       transform="translate(12.85,18.65)">
      <use
         ffdec:characterId="3694"
         height="13.5"
         transform="matrix(0.2588,0.9659,-0.9659,0.2588,11.2176,3.6086)"
         width="6.25"
         xlink:href="#sprite1"
         id="use2" />
      <use
         ffdec:characterId="3696"
         height="16.6"
         transform="translate(-9.3,-2.7)"
         width="15"
         xlink:href="#sprite2"
         id="use3" />
      <use
         ffdec:characterId="3698"
         height="17.65"
         transform="matrix(1.1,0,0,0.858,-12.85,-10.6)"
         width="18.950001"
         xlink:href="#sprite3"
         id="use4" />
    </g>
    <g
       id="sprite1"
       transform="translate(3.1,6.75)">
      <use
         ffdec:characterId="3693"
         height="13.5"
         transform="translate(-3.1,-6.75)"
         width="6.25"
         xlink:href="#shape0"
         id="use5" />
    </g>
    <g
       id="shape0"
       transform="translate(3.1,6.75)">
      <path
         d="M 1.1,-2.4 0.45,-4.6 -0.2,-4.65 q -0.5,0.3 -0.7,1.3 v 1.5 l 0.1,3.2 Q -0.55,4 0.35,4.55 1.1,3 1.1,-0.35 V -2.4 m 1.3,2.15 -0.15,3.3 Q 1.85,6 0.35,6 -1.35,6 -1.8,4.55 l -0.3,-2.4 -0.2,-4 q -0.15,-1.2 0.05,-2.2 Q -1.8,-6 0,-6 q 1.85,0 2.3,2.35 l 0.1,3.4"
         fill="#6b6b6b"
         fill-rule="evenodd"
         stroke="none"
         id="path5" />
      <path
         d="m 1.1,-2.4 v 2.05 Q 1.1,3 0.35,4.55 -0.55,4 -0.8,1.35 l -0.1,-3.2 v -1.5 q 0.2,-1 0.7,-1.3 l 0.65,0.05 0.65,2.2"
         fill="#eeeeee"
         fill-rule="evenodd"
         stroke="none"
         id="path6" />
      <path
         d="M 2.4,-0.25 2.25,3.05 Q 1.85,6 0.35,6 -1.35,6 -1.8,4.55 l -0.3,-2.4 -0.2,-4 q -0.15,-1.2 0.05,-2.2 Q -1.8,-6 0,-6 q 1.85,0 2.3,2.35 z"
         fill="none"
         stroke="#6b6b6b"
         stroke-linecap="round"
         stroke-linejoin="round"
         stroke-width="1.5"
         id="path7" />
    </g>
    <g
       id="sprite2"
       transform="translate(7.5,7.8)">
      <use
         ffdec:characterId="3695"
         height="16.6"
         transform="translate(-7.5,-7.8)"
         width="15"
         xlink:href="#shape1"
         id="use7" />
    </g>
    <g
       id="shape1"
       transform="translate(7.5,7.8)">
      <path
         d="m -1,-4.35 -0.15,-0.6 V -6.1 l 0.05,-0.95 q 0.25,-0.75 1.15,-0.75 1.05,0 1,2.2 l -0.1,1.25 H 0.8 l -0.8,0.2 -0.35,-0.1 -0.65,-0.1 0.65,0.1 0.35,0.1 0.8,-0.2 h 0.15 l 0.45,-0.05 1.5,0.3 0.25,0.15 0.9,0.7 0.4,0.7 q 0.75,1.2 0.9,2.8 0.35,1.4 0.15,2.9 -0.1,1.1 0.4,1.5 0.6,0.4 0.6,1.3 0,1.65 -2.25,1.65 L 2.9,7.4 Q 2.55,7.8 1.9,7.8 1.25,7.8 0.8,7.4 L 0.9,7.6 0.7,7.8 0.25,7.3 0.05,7.25 h -0.1 L -0.75,7.4 Q -1.2,7.8 -1.9,7.8 L -2.4,7.7 q -0.35,0 -0.55,-0.3 l -1.3,0.2 Q -6.5,7.6 -6.5,5.95 L -6.3,5.2 q 0.55,-0.35 0.75,-0.95 0.2,-0.35 0.2,-2.1 V 0.3 0.25 q 0.2,-1.6 0.9,-2.8 l 0.45,-0.7 0.85,-0.7 0.2,-0.15 1.6,-0.3 0.35,0.05 m 2.4,0.9 -0.35,-0.05 -1,0.05 h -0.1 L -1,-3.5 l -0.35,0.05 -0.7,0.3 q -1.35,0.6 -1.8,2.15 l -0.5,3.1 v 2.55 l 0.7,-0.1 V 4.4 l 0.1,-0.9 V 3.05 l 0.2,-1.3 q 0.2,-0.9 0.65,-1.2 L -2.4,0.8 -2.5,1.15 V 1.3 l -0.05,1.4 v 1.15 q 0,2.8 1,2.8 0.4,0 0.6,-0.35 L -0.8,5.35 -0.65,4.2 -0.75,2.3 0.05,2.45 0.7,2.3 v 0.15 l -0.1,0.6 -0.05,0.2 0.05,0.6 0.05,1.2 q 0.1,1.6 0.9,1.6 0.5,0 0.7,-0.6 L 2.4,4.05 2.05,1.4 Q 2.05,0.35 2.5,0.9 L 2.6,1 Q 2.9,0.95 3.1,1.9 l 0.2,1.3 v 0.15 0.1 l 0.05,0.6 V 4.2 L 3.4,4.6 q 0.25,-0.15 0.75,0 l 0.2,0.05 V 2.1 L 3.85,-1 Q 3.4,-2.55 2.05,-3.15 L 1.4,-3.45 M 3.45,5.1 V 5.65 L 3.4,6.35 4.85,6.4 5.35,5.85 5.05,5.45 Q 4.65,5.3 4.45,5 l -1,0.1 m -8.5,0.35 -0.3,0.4 0.5,0.55 L -3.4,6.35 -3.6,5 H -3.75 L -4.5,5.1 -5.05,5.45"
         fill="#6b6b6b"
         fill-rule="evenodd"
         stroke="none"
         id="path8" />
      <path
         d="m 1.4,-3.45 0.65,0.3 q 1.35,0.6 1.8,2.15 l 0.5,3.1 V 4.65 L 4.15,4.6 Q 3.65,4.45 3.4,4.6 L 3.35,4.2 V 4.05 L 3.3,3.45 V 3.35 3.2 L 3.1,1.9 Q 2.9,0.95 2.6,1 L 2.5,0.9 Q 2.05,0.35 2.05,1.4 l 0.35,2.65 -0.15,2 q -0.2,0.6 -0.7,0.6 -0.8,0 -0.9,-1.6 L 0.6,3.85 0.55,3.25 0.6,3.05 0.7,2.45 V 2.3 L 0.05,2.45 -0.75,2.3 -0.65,4.2 -0.8,5.35 -0.95,6.3 q -0.2,0.35 -0.6,0.35 -1,0 -1,-2.8 V 2.7 L -2.5,1.3 V 1.15 L -2.4,0.8 -2.7,0.55 q -0.45,0.3 -0.65,1.2 l -0.2,1.3 V 3.5 l -0.1,0.9 v 0.15 l -0.7,0.1 V 2.1 l 0.5,-3.1 q 0.45,-1.55 1.8,-2.15 l 0.7,-0.3 0.35,-0.05 0.95,0.05 h 0.1 l 1,-0.05 0.35,0.05 M 3.45,5.1 4.45,5 q 0.2,0.3 0.6,0.45 L 5.35,5.85 4.85,6.4 3.4,6.35 3.45,5.65 V 5.1 M -5.05,5.45 -4.5,5.1 -3.75,5 h 0.15 l 0.2,1.35 -1.45,0.05 -0.5,-0.55 0.3,-0.4"
         fill="#eeeeee"
         fill-rule="evenodd"
         stroke="none"
         id="path9" />
      <path
         d="m -1,-4.35 0.65,0.1 0.35,0.1 0.8,-0.2 h 0.15 l 0.45,-0.05 1.5,0.3 0.25,0.15 0.9,0.7 0.4,0.7 q 0.75,1.2 0.9,2.8 0.35,1.4 0.15,2.9 -0.1,1.1 0.4,1.5 0.6,0.4 0.6,1.3 0,1.65 -2.25,1.65 L 2.9,7.4 Q 2.55,7.8 1.9,7.8 1.25,7.8 0.8,7.4 M 0.25,7.3 0.05,7.25 h -0.1 L -0.75,7.4 Q -1.2,7.8 -1.9,7.8 L -2.4,7.7 M -2.95,7.4 -4.25,7.6 Q -6.5,7.6 -6.5,5.95 L -6.3,5.2 q 0.55,-0.35 0.75,-0.95 0.2,-0.35 0.2,-2.1 V 0.3 0.25 q 0.2,-1.6 0.9,-2.8 l 0.45,-0.7 0.85,-0.7 0.2,-0.15 1.6,-0.3 0.35,0.05"
         fill="none"
         stroke="#6b6b6b"
         stroke-linecap="round"
         stroke-linejoin="round"
         stroke-width="2"
         id="path10" />
    </g>
    <g
       id="sprite3">
      <use
         ffdec:characterId="3697"
         height="17.65"
         width="18.950001"
         xlink:href="#shape2"
         id="use10" />
    </g>
    <g
       id="shape2">
      <path
         d="m 16.15,1.35 q 1.4,-0.1 1.4,0.85 l -0.4,1.25 q 1.8,2.35 1.8,5.75 0,2.65 -1.35,4.85 -2.25,3.6 -7.4,3.6 H 9.35 8.75 q -5.1,0 -7.4,-3.6 Q 0,11.85 0,9.2 0,5.95 1.7,3.7 V 3.55 2.7 Q 1.7,1.5 2,1.1 2.1,0.25 3.15,0.8 L 3.8,1.25 4.2,1.4 Q 6.25,0.1 8.95,0 h 0.7 0.4 q 2.85,0.1 5.1,1.6 0.3,-0.2 1,-0.25 m -1,3.55 Q 14.05,2.95 10.7,2.4 L 9.35,2.25 8.2,2.4 Q 4.9,2.95 3.8,4.9 2.65,6.85 2.65,9 q 0,1.6 0.6,2.8 H 4.3 L 9.15,11.9 9.1,11.8 V 11.65 L 8.5,11.25 8.35,10.8 9.6,10.4 q 0.85,0.05 0.85,0.35 l -0.55,0.75 0.05,0.4 5.7,0.1 q 0.65,-1.3 0.65,-3 0,-2.15 -1.15,-4.1 m -1,4.6 q 0.7,-0.1 0.7,0.7 0,0.75 -0.7,0.75 L 13.5,10.55 13.4,10.2 q 0,-0.6 0.75,-0.7 M 3.85,10.5 3.8,10.2 Q 3.8,9.55 4.4,9.55 5,9.55 5,10.2 5,10.8 4.4,10.8 L 3.85,10.5 m 5.5,4.7 h 0.3 0.25 q 3.7,0 5.45,-2.7 h -7.1 l -0.65,0.1 -3.3,0.05 -0.5,0.1 q 1.7,2.45 5.25,2.45 h 0.3"
         fill="#6b6b6b"
         fill-rule="evenodd"
         stroke="none"
         id="path11" />
      <path
         d="m 15.15,4.9 q 1.15,1.95 1.15,4.1 0,1.7 -0.65,3 L 9.95,11.9 9.9,11.5 10.45,10.75 q 0,-0.3 -0.85,-0.35 l -1.25,0.4 0.15,0.45 0.6,0.4 V 11.8 L 9.15,11.9 4.3,11.8 H 3.25 Q 2.65,10.6 2.65,9 2.65,6.85 3.8,4.9 4.9,2.95 8.2,2.4 L 9.35,2.25 10.7,2.4 q 3.35,0.55 4.45,2.5 M 9.35,15.2 H 9.05 Q 5.5,15.2 3.8,12.75 l 0.5,-0.1 3.3,-0.05 0.65,-0.1 h 7.1 Q 13.6,15.2 9.9,15.2 H 9.65 9.35 M 3.85,10.5 4.4,10.8 Q 5,10.8 5,10.2 5,9.55 4.4,9.55 3.8,9.55 3.8,10.2 l 0.05,0.3 m 10.3,-1 Q 13.4,9.6 13.4,10.2 l 0.1,0.35 0.65,0.4 q 0.7,0 0.7,-0.75 0,-0.8 -0.7,-0.7"
         fill="#eeeeee"
         fill-rule="evenodd"
         stroke="none"
         id="path12" />
    </g>
  </defs>
</svg>
