<?xml version="1.0" encoding="UTF-8" standalone="no"?>
<svg
   ffdec:objectType="frame"
   height="30"
   width="18.401667"
   version="1.1"
   id="svg4"
   sodipodi:docname="1.svg"
   xmlns:inkscape="http://www.inkscape.org/namespaces/inkscape"
   xmlns:sodipodi="http://sodipodi.sourceforge.net/DTD/sodipodi-0.dtd"
   xmlns:xlink="http://www.w3.org/1999/xlink"
   xmlns="http://www.w3.org/2000/svg"
   xmlns:svg="http://www.w3.org/2000/svg"
   xmlns:ffdec="https://www.free-decompiler.com/flash">
  <sodipodi:namedview
     id="namedview4"
     pagecolor="#ffffff"
     bordercolor="#000000"
     borderopacity="0.25"
     inkscape:showpageshadow="2"
     inkscape:pageopacity="0.0"
     inkscape:pagecheckerboard="0"
     inkscape:deskcolor="#d1d1d1"
     fit-margin-top="5"
     fit-margin-left="5"
     fit-margin-right="5"
     fit-margin-bottom="5" />
  <g
     transform="translate(9.2016667,15)"
     id="g2">
    <use
       ffdec:characterId="3524"
       height="25.299999"
       transform="translate(-9.2,-10.3)"
       width="18.4"
       xlink:href="#shape0"
       id="use1" />
    <use
       ffdec:characterId="3494"
       height="8.3000002"
       transform="translate(-5.95,-16.2)"
       width="3.45"
       xlink:href="#sprite0"
       id="use2" />
  </g>
  <defs
     id="defs4">
    <g
       id="shape0"
       transform="translate(9.2,10.3)">
      <path
         d="M 0.1,7.45 0.35,7.4 0.25,7 Q 0.25,6.35 0.95,6.1 1.4,5.55 2.7,5.15 L 4.9,5.1 5.05,4.4 q 0.35,-0.7 1.7,-1 l 0.1,0.05 0.05,0.3 Q 6.9,4.2 6.4,4.65 6.05,4.95 5.95,5.6 6.4,5.65 6.8,6.05 l 0.75,0.8 Q 8.3,8 8.45,8.85 L 9.2,9.25 V 14.5 L 9.05,14.6 6.8,15 1.2,14.65 -0.2,14.85 H -0.55 L -2.3,15 -8.55,14.45 Q -8.95,14.3 -8.95,13.5 L -8.8,12.95 -8.9,11.9 V 9.45 l -0.3,-9 q -0.05,-7.6 1.4,-7.65 l 0.4,0.2 2.95,-0.35 0.35,-2.95 h 0.4 q 0.45,1.3 0.45,2.85 v 0.15 q 2.7,0.05 3.35,0.75 v 14 3.55 l 0.1,-0.05 v -1.5 l -0.1,-2 M -6.65,-4.9 q 0.25,1.9 0.25,5.4 0,3.95 -0.3,9 l 0.05,2.8 4.15,-0.2 h 0.7 Q -2.1,10.2 -2.2,6.85 l -0.05,-7.7 q 0,-2.65 0.35,-4.1 l -3.5,0.1 -1.25,-0.05 M 4.65,6.5 Q 4.2,6.15 4.05,6.15 L 2.95,6.3 3.1,6.9 v 0.15 l 1.75,1.4 0.75,-0.2 0.75,-0.2 h 0.3 L 5.85,6.55 V 6.6 L 5.65,6.8 5.55,7.4 Q 5.35,7.55 5.1,7.65 4.65,7.2 4.65,6.6 V 6.5 M 2.5,8.2 2.4,9.5 2.45,12.3 2.95,12.25 V 12.2 q 0,-1.45 0.4,-2.2 0.85,0.2 0.7,0.9 L 3.75,11.8 3.9,12.15 3.95,12.2 5,12.15 Q 5.3,11.9 5.15,11.3 L 5,10.55 4.6,9.5 2.85,8.45 2.5,8.2 M 7.3,12.1 7.05,9.75 5.85,9.95 5.9,11.3 v 0.85 L 6.6,12.1 h 0.7"
         fill="#6b6b6b"
         fill-rule="evenodd"
         stroke="none"
         id="path2" />
      <path
         d="M 7.3,12.1 H 6.6 L 5.9,12.15 V 11.3 L 5.85,9.95 7.05,9.75 7.3,12.1 M 2.5,8.2 2.85,8.45 4.6,9.5 5,10.55 5.15,11.3 Q 5.3,11.9 5,12.15 L 3.95,12.2 3.9,12.15 3.75,11.8 4.05,10.9 Q 4.2,10.2 3.35,10 q -0.4,0.75 -0.4,2.2 v 0.05 L 2.45,12.3 2.4,9.5 2.5,8.2 M 4.65,6.5 V 6.6 Q 4.65,7.2 5.1,7.65 5.35,7.55 5.55,7.4 L 5.65,6.8 5.85,6.6 V 6.55 l 0.8,1.5 H 6.35 L 5.6,8.25 4.85,8.45 3.1,7.05 V 6.9 L 2.95,6.3 4.05,6.15 q 0.15,0 0.6,0.35 m -11.3,-11.4 1.25,0.05 3.5,-0.1 q -0.35,1.45 -0.35,4.1 l 0.05,7.7 q 0.1,3.35 0.4,5.25 H -2.5 L -6.65,12.3 -6.7,9.5 q 0.3,-5.05 0.3,-9 0,-3.5 -0.25,-5.4"
         fill="#e2e2e2"
         fill-rule="evenodd"
         stroke="none"
         id="path3" />
    </g>
    <g
       id="sprite0"
       transform="translate(0.7,1.2)">
      <use
         ffdec:characterId="3491"
         height="6.3499999"
         width="2.6500001"
         xlink:href="#shape1"
         id="use3" />
    </g>
    <g
       id="shape1">
      <path
         d="m 1.7,2.65 0.15,0.1 V 2.65 H 1.7 M 2,0 2.6,2.3 2.65,3.9 2.55,5.35 q -0.25,1 -1.2,1 -0.85,0 -1.2,-0.95 L 0,4.45 Q 0,3.4 0.7,1.75 1.45,0.05 2,0 M 1.15,4.25 V 4.1 L 1.05,4.45 1.2,4.85 1.15,4.25"
         fill="#ffffff"
         fill-opacity="0.74902"
         fill-rule="evenodd"
         stroke="none"
         id="path4" />
    </g>
  </defs>
</svg>
