<?xml version="1.0" encoding="UTF-8" standalone="no"?>
<svg
   ffdec:objectType="frame"
   height="50.172974"
   width="112.05"
   version="1.1"
   id="svg7"
   sodipodi:docname="2.svg"
   xmlns:inkscape="http://www.inkscape.org/namespaces/inkscape"
   xmlns:sodipodi="http://sodipodi.sourceforge.net/DTD/sodipodi-0.dtd"
   xmlns:xlink="http://www.w3.org/1999/xlink"
   xmlns="http://www.w3.org/2000/svg"
   xmlns:svg="http://www.w3.org/2000/svg"
   xmlns:ffdec="https://www.free-decompiler.com/flash">
  <sodipodi:namedview
     id="namedview7"
     pagecolor="#ffffff"
     bordercolor="#000000"
     borderopacity="0.25"
     inkscape:showpageshadow="2"
     inkscape:pageopacity="0.0"
     inkscape:pagecheckerboard="0"
     inkscape:deskcolor="#d1d1d1"
     fit-margin-top="5"
     fit-margin-left="5"
     fit-margin-right="5"
     fit-margin-bottom="5" />
  <g
     transform="translate(56,25.022973)"
     id="g2">
    <use
       ffdec:characterId="494"
       height="50.150002"
       transform="translate(-56,-25)"
       width="99.849998"
       xlink:href="#sprite0"
       id="use1" />
    <use
       ffdec:characterId="496"
       height="36"
       transform="translate(-33.25,-11.05)"
       width="89.300003"
       xlink:href="#sprite1"
       id="use2" />
  </g>
  <defs
     id="defs7">
    <g
       id="sprite0"
       transform="translate(49.95,25.05)">
      <use
         ffdec:characterId="493"
         height="50.150002"
         transform="translate(-49.95,-25.05)"
         width="99.849998"
         xlink:href="#shape0"
         id="use3" />
    </g>
    <g
       id="shape0"
       transform="translate(49.95,25.05)">
      <path
         d="m -10.45,14.85 q 0.5,0.7 0.85,1.7 h 46.7 q 8.65,1.1 8.65,-9.8 L 45.55,2.7 q -0.2,-4.4 -1.9,-7.9 -2.7,-8.6 -11.15,-13.4 -4.55,-2.6 -8.5,-2.65 l -1.3,0.1 -0.45,-0.15 h -31.9 l -0.45,0.15 -1.3,-0.1 q -3.8,0.05 -8.1,2.45 l -0.4,0.2 q -3.7,2.1 -6.3,4.95 h 0.35 l 1.2,-0.05 q 6.7,0 10.15,6.95 1.6,3.25 2.1,6.45 v 0.05 l 0.15,4.05 V 3.95 4.1 l 0.4,5.15 v 4.1 l 1.4,1.5 M -31.5,-4.25 q 0.6,1.1 -0.5,1.75 l -0.9,0.1 q -0.55,-0.1 -0.8,-0.6 -0.65,-1.1 0.5,-1.75 1.05,-0.6 1.7,0.5 m 1.4,4.2 0.1,0.15 q 1.2,2.3 -1.15,3.65 l -1,0.25 q -1.1,-0.05 -1.9,-1.45 L -34.1,2.45 -34.2,2.3 -34.25,2.25 -34.5,1.75 q -0.8,-1.4 -0.3,-2.35 l 0.7,-0.75 q 2.45,-1.4 3.85,1 l 0.15,0.3 m 2.9,25 -0.45,-0.05 h -5.25 l -3.85,-0.3 h -0.15 -0.05 l -1.6,-0.05 H -39.9 V 24.5 h -0.1 -0.05 q -2.35,-0.35 -4.75,-1.55 -5.15,-2.6 -5.15,-7.55 l 0.05,-0.9 -0.05,-0.95 q 0,-4.95 5.15,-7.55 2.4,-1.15 4.75,-1.55 h 0.05 0.5 V 4.1 3.95 3.8 l 0.15,-4.05 V -0.3 q 0.5,-3.2 2.1,-6.45 2.3,-4.6 6,-6.15 l 2.25,-2.8 q 4.15,-4.6 9.5,-6.9 l 2.7,-1.05 q 5.5,-1.7 12.15,-1.35 h 9.6 L 6.3,-24.95 7.65,-25 h 9.6 q 15.1,-0.9 24.35,9.3 4.1,4.5 6.45,10.65 1.85,4.85 1.85,8.4 0,6.8 -0.65,8.8 -1.65,5.05 -8.15,7.75 h -50 v 0.35 q 0,2.25 -0.65,3.05 v 0.1 q 0,0.6 -0.5,0.9 l -3.3,0.65 h -8.25 l -0.95,0.15 -0.8,-0.15 h -0.75 l -0.4,0.05 -0.85,-0.05 h -1.85 m -4.05,-7.25 q 0.35,-1.75 1.15,-2.85 2.6,-3.7 9.7,-3.85 h 0.25 l 4.7,0.6 -0.1,-3.7 -0.05,-0.1 0.05,-3.1 -0.15,-1.8 q 0,-2.7 -0.75,-5.15 -2,-6.5 -9.2,-6.6 h -0.15 -0.1 -0.25 l -3.7,0.6 q -4.05,1.4 -5.45,6 Q -36,0.2 -36,2.9 l -0.2,1.8 0.05,3.1 -0.05,0.1 -0.1,5.15 -0.1,1.55 -0.2,5.8 -0.05,0.55 2.3,-0.05 2.75,0.2 -0.05,-0.85 q 0,-1.35 0.4,-2.55 m 3.1,-20.9 q 0.65,1.2 -0.5,1.9 l -1,0.1 -0.8,-0.65 q -0.7,-1.2 0.5,-1.9 1.1,-0.65 1.8,0.55 m 1.25,4.85 -1,0.15 -0.85,-0.65 Q -29.4,0 -28.2,-0.7 q 1.1,-0.65 1.75,0.5 0.7,1.15 -0.45,1.85 m -2.2,0.85 q 1.1,-0.65 1.75,0.45 0.6,1.1 -0.45,1.7 -1.15,0.65 -1.75,-0.45 -0.3,-0.5 -0.1,-1 l 0.55,-0.7 m 8.7,11.8 h -0.1 q -4.85,0 -6.85,2.05 -0.8,1 -1.05,2.5 l -0.15,2.35 -0.05,0.5 6.1,-0.3 h 4.45 l 6.1,0.3 -0.2,-2.85 q -0.25,-1.5 -1.05,-2.5 -0.85,-0.85 -2.15,-1.35 -1.85,-0.7 -4.7,-0.7 h -0.1 -0.25 m -19.6,6.3 0.15,-2.45 v -8.9 l 0.15,-2.15 -1.75,0.4 q -4.8,1.5 -4.9,6.8 v 0.35 q 0.1,5.35 4.9,6.85 l 1.65,0.4 -0.2,-1.3"
         fill="#9a9a9a"
         fill-rule="evenodd"
         stroke="none"
         id="path3" />
      <path
         d="m -10.45,14.85 -1.4,-1.5 V 9.25 L -12.25,4.1 V 3.95 3.8 L -12.4,-0.25 V -0.3 q -0.5,-3.2 -2.1,-6.45 -3.45,-6.95 -10.15,-6.95 l -1.2,0.05 h -0.35 q 2.6,-2.85 6.3,-4.95 l 0.4,-0.2 q 4.3,-2.4 8.1,-2.45 l 1.3,0.1 0.45,-0.15 h 31.9 l 0.45,0.15 1.3,-0.1 q 3.95,0.05 8.5,2.65 8.45,4.8 11.15,13.4 1.7,3.5 1.9,7.9 l 0.2,4.05 q 0,10.9 -8.65,9.8 H -9.6 q -0.35,-1 -0.85,-1.7 M -31.5,-4.25 q -0.65,-1.1 -1.7,-0.5 -1.15,0.65 -0.5,1.75 0.25,0.5 0.8,0.6 l 0.9,-0.1 q 1.1,-0.65 0.5,-1.75 m 1.4,4.2 -0.15,-0.3 q -1.4,-2.4 -3.85,-1 l -0.7,0.75 q -0.5,0.95 0.3,2.35 l 0.25,0.5 0.05,0.05 0.1,0.15 0.05,0.1 q 0.8,1.4 1.9,1.45 l 1,-0.25 Q -28.8,2.4 -30,0.1 l -0.1,-0.15 m -1.15,17.75 q -0.4,1.2 -0.4,2.55 l 0.05,0.85 -2.75,-0.2 -2.3,0.05 0.05,-0.55 0.2,-5.8 0.1,-1.55 0.1,-5.15 0.05,-0.1 -0.05,-3.1 0.2,-1.8 q 0,-2.7 0.7,-5.15 1.4,-4.6 5.45,-6 l 3.7,-0.6 h 0.25 0.1 0.15 q 7.2,0.1 9.2,6.6 0.75,2.45 0.75,5.15 l 0.15,1.8 -0.05,3.1 0.05,0.1 0.1,3.7 -4.7,-0.6 h -0.25 q -7.1,0.15 -9.7,3.85 -0.8,1.1 -1.15,2.85 M -26.9,1.65 q 1.15,-0.7 0.45,-1.85 -0.65,-1.15 -1.75,-0.5 -1.2,0.7 -0.55,1.85 l 0.85,0.65 1,-0.15 m -1.25,-4.85 q -0.7,-1.2 -1.8,-0.55 -1.2,0.7 -0.5,1.9 l 0.8,0.65 1,-0.1 q 1.15,-0.7 0.5,-1.9 m 7.75,17.5 h 0.25 0.1 q 2.85,0 4.7,0.7 1.3,0.5 2.15,1.35 0.8,1 1.05,2.5 l 0.2,2.85 -6.1,-0.3 h -4.45 l -6.1,0.3 0.05,-0.5 0.15,-2.35 q 0.25,-1.5 1.05,-2.5 2,-2.05 6.85,-2.05 h 0.1 m -8.7,-11.8 -0.55,0.7 q -0.2,0.5 0.1,1 0.6,1.1 1.75,0.45 1.05,-0.6 0.45,-1.7 Q -28,1.85 -29.1,2.5 m -10.9,18.1 0.2,1.3 -1.65,-0.4 q -4.8,-1.5 -4.9,-6.85 V 14.3 q 0.1,-5.3 4.9,-6.8 l 1.75,-0.4 -0.15,2.15 v 8.9 L -40,20.6"
         fill="#c0b8c2"
         fill-rule="evenodd"
         stroke="none"
         id="path4" />
    </g>
    <g
       id="sprite1"
       transform="translate(44.65,18)">
      <use
         ffdec:characterId="495"
         height="36"
         transform="translate(-44.65,-18)"
         width="89.300003"
         xlink:href="#shape1"
         id="use4" />
    </g>
    <g
       id="shape1"
       transform="translate(44.65,18)">
      <path
         d="m -26.75,-14.8 -4.2,0.25 1.3,2.65 q 2.05,-1.65 4.45,-2.85 l -1.55,-0.05 m -5,15.15 q 2.95,-0.1 2.9,1.35 -0.1,1.6 -3,1.45 l -3.3,-0.25 -0.15,0.85 -0.3,3.15 v 0.8 l 3.45,-0.35 q 2.5,-0.1 2.45,1.35 -0.1,1.6 -2.55,1.45 l -3.2,-0.3 q 1,5.4 7.25,4.7 h 11.8 l -0.05,-1.25 q 0,-1.35 0.4,-2.55 Q -15.7,9 -14.9,7.9 -12.3,4.15 -5.2,4.05 h 0.25 Q 0.25,4.15 3,6.15 3.2,5.65 3.7,5.25 4.45,4.55 5.55,4.5 7.6,4.35 8.1,6.1 q 2.75,-2 7.85,-2.05 h 0.25 q 7.1,0.15 9.7,3.85 0.8,1.1 1.15,2.85 0.4,1.2 0.4,2.55 l -0.05,1.35 q 5.15,0.1 6.5,-4.7 L 34.25,7.65 34.3,6.9 34.2,3.75 V 3 L 33.8,0.5 q -0.35,-1.55 -1.05,-2.9 -1.05,-3.4 -3.4,-6 l -2,-1.85 -3.7,-2.4 -0.3,-0.15 L 23,-13 q -1.95,-1 -3.85,-1.45 l -3.25,-0.45 -1.15,0.1 -0.4,-0.15 h -28.2 l -0.4,0.15 -1.15,-0.1 q -2.6,0.05 -5.6,1.2 l -2.05,0.9 -2.3,1.3 -2.95,2.15 -2,1.95 q -1.95,2.25 -3.05,5 l -1.3,3 2.9,-0.25 M -40.9,2.7 q -3.75,-0.2 -3.75,-1 0,-0.75 3.95,-0.9 h 2.2 l 1.25,-3.1 q 2.05,-4.35 5.45,-7.7 l -2.5,-3.9 q -1.45,-2.7 -0.15,-3.4 l 0.95,-0.1 1.95,-0.35 4.8,0.3 h 3.45 l 2.25,0.45 0.3,0.1 0.3,0.25 q 5.05,-1.45 11.1,-1.15 h 8.5 l 1.2,0.05 1.2,-0.05 h 8.5 l 9.3,0.7 0.1,-0.1 0.9,-0.1 2.35,-0.4 3.25,-0.05 4.8,-0.25 q 3.05,0.1 3.05,1.6 0,0.5 -0.35,0.9 l -0.75,1.85 -1.7,2.75 0.3,0.3 q 3.5,3.55 5.35,8.3 l 1,3.1 h 3.05 q 3.95,0.15 3.95,0.9 0,0.8 -3.75,1 H 38 l 0.05,1.6 -0.2,3.5 h 1.05 q 3.3,0.15 3.3,0.9 0,0.8 -3.15,1 h -1.5 l -0.4,1.4 q -1.6,3.95 -7.45,6.05 H 26.55 L 26.3,17.35 23,18 H 9.15 L 5.85,17.35 5.6,17.15 H 5.4 l -0.25,0.2 Q 4.4,17.75 1.85,18 H -12 l -3.3,-0.65 -0.25,-0.2 H -31.9 q -5.65,-2.1 -6.95,-6.05 L -39.1,9.7 h -0.7 q -3.15,-0.2 -3.15,-1 0,-0.75 3.3,-0.9 h 0.45 l 0.05,-3.5 0.2,-1.6 H -40.9 M -15.6,-3 q 4.35,-0.3 4.35,4.4 0,1.15 -0.6,2.3 -0.9,1.8 -2.85,1.8 -3.2,0 -4.55,-1.9 Q -20,2.45 -20,1.05 q 0,-1.7 1.35,-2.85 1.3,-1.1 3.05,-1.2 m 17.75,1.95 -0.05,-0.1 0.05,-0.2 0.2,-0.1 h 0.2 L 3.7,-1.65 H 5.4 L 7.75,-1.7 q 1.6,0 1.6,0.55 L 9.15,-0.9 8.75,-0.1 7.95,0.85 6.85,2.3 Q 6.05,3.15 5.4,2.9 L 5.1,2.65 4.45,2.1 3.4,0.7 2.55,-0.3 Q 2.15,-0.8 2.15,-1.05 M 26,-15 h -0.8 q 1.85,0.9 3.5,2.15 l 0.9,-1.9 L 26,-15 m -0.8,12 q 4.35,-0.3 4.35,4.4 0,1.15 -0.6,2.3 -0.9,1.8 -2.85,1.8 -3.2,0 -4.55,-1.9 -0.75,-1.15 -0.75,-2.55 0,-1.7 1.35,-2.85 1.3,-1.1 3.05,-1.2 m 0.85,4.7 q 0.5,-0.2 0.5,-0.85 0,-2 -1.75,-2.1 Q 23,-1.4 23,0.7 l 0.05,0.5 q 0.4,0.55 2.1,0.55 L 26.05,1.7 M 15.85,7.35 Q 11,7.35 9,9.4 q -0.8,1 -1.05,2.5 l -0.2,2.65 v 0.2 l 2.1,-0.2 1.3,-0.05 -0.05,-0.05 Q 10.5,13.6 10.5,12.3 l 0.05,-0.8 q 0.1,-0.25 0.5,-0.55 1.2,1.2 2.3,3.5 h 0.5 4.35 l 1.05,-1.4 2.05,-2.1 0.2,0.15 0.05,0.45 q 0,0.9 -1.05,2.6 l -0.2,0.3 2.3,0.1 1.8,0.2 v -0.2 L 24.2,11.9 Q 23.95,10.4 23.15,9.4 21.15,7.35 16.3,7.35 h -0.1 -0.25 -0.1 m -21.15,0 q -4.85,0 -6.85,2.05 -0.8,1 -1.05,2.5 l -0.2,2.65 v 0.2 l 2.1,-0.2 1.3,-0.05 -0.05,-0.05 q -0.6,-0.85 -0.6,-2.15 l 0.05,-0.8 0.5,-0.55 q 1.2,1.2 2.3,3.5 h 0.5 4.35 l 1.05,-1.4 2.05,-2.1 0.2,0.15 0.05,0.45 q 0,0.9 -1.05,2.6 l -0.2,0.3 2.3,0.1 1.8,0.2 v -0.2 L 3.05,11.9 Q 2.8,10.4 2,9.4 0,7.35 -4.85,7.35 H -4.95 -5.2 -5.3 M -14.75,1.7 q 0.5,-0.2 0.5,-0.85 0,-2 -1.75,-2.1 -1.8,-0.15 -1.8,1.95 l 0.05,0.5 q 0.4,0.55 2.1,0.55 l 0.9,-0.05"
         fill="#6b6b6b"
         fill-rule="evenodd"
         stroke="none"
         id="path5" />
      <path
         d="m 26.05,1.7 -0.9,0.05 q -1.7,0 -2.1,-0.55 L 23,0.7 q 0,-2.1 1.8,-1.95 1.75,0.1 1.75,2.1 0,0.65 -0.5,0.85 m -40.8,0 -0.9,0.05 q -1.7,0 -2.1,-0.55 L -17.8,0.7 q 0,-2.1 1.8,-1.95 1.75,0.1 1.75,2.1 0,0.65 -0.5,0.85"
         fill="#ffffff"
         fill-rule="evenodd"
         stroke="none"
         id="path6" />
      <path
         d="m -26.75,-14.8 1.55,0.05 q -2.4,1.2 -4.45,2.85 l -1.3,-2.65 4.2,-0.25 m -5,15.15 -2.9,0.25 1.3,-3 q 1.1,-2.75 3.05,-5 l 2,-1.95 2.95,-2.15 2.3,-1.3 2.05,-0.9 q 3,-1.15 5.6,-1.2 l 1.15,0.1 0.4,-0.15 h 28.2 l 0.4,0.15 1.15,-0.1 3.25,0.45 Q 21.05,-14 23,-13 l 0.35,0.2 0.3,0.15 3.7,2.4 2,1.85 q 2.35,2.6 3.4,6 0.7,1.35 1.05,2.9 L 34.2,3 v 0.75 l 0.1,3.15 -0.05,0.75 -0.35,2.3 q -1.35,4.8 -6.5,4.7 l 0.05,-1.35 q 0,-1.35 -0.4,-2.55 Q 26.7,9 25.9,7.9 23.3,4.2 16.2,4.05 H 15.95 Q 10.85,4.1 8.1,6.1 7.6,4.35 5.55,4.5 4.45,4.55 3.7,5.25 3.2,5.65 3,6.15 0.25,4.15 -4.95,4.05 H -5.2 q -7.1,0.1 -9.7,3.85 -0.8,1.1 -1.15,2.85 -0.4,1.2 -0.4,2.55 l 0.05,1.25 h -11.8 q -6.25,0.7 -7.25,-4.7 l 3.2,0.3 q 2.45,0.15 2.55,-1.45 0.05,-1.45 -2.45,-1.35 L -35.6,7.7 V 6.9 l 0.3,-3.15 0.15,-0.85 3.3,0.25 q 2.9,0.15 3,-1.45 0.05,-1.45 -2.9,-1.35 m 33.9,-1.4 q 0,0.25 0.4,0.75 L 3.4,0.7 4.45,2.1 5.1,2.65 5.4,2.9 Q 6.05,3.15 6.85,2.3 l 1.1,-1.45 0.8,-0.95 0.4,-0.8 0.2,-0.25 q 0,-0.55 -1.6,-0.55 L 5.4,-1.65 H 3.7 l -1.15,0.2 h -0.2 l -0.2,0.1 -0.05,0.2 0.05,0.1 M -15.6,-3 q -1.75,0.1 -3.05,1.2 -1.35,1.15 -1.35,2.85 0,1.4 0.75,2.55 1.35,1.9 4.55,1.9 1.95,0 2.85,-1.8 0.6,-1.15 0.6,-2.3 0,-4.7 -4.35,-4.4 m 41.6,-12 3.6,0.25 -0.9,1.9 Q 27.05,-14.1 25.2,-15 H 26 m -0.8,12 q -1.75,0.1 -3.05,1.2 -1.35,1.15 -1.35,2.85 0,1.4 0.75,2.55 1.35,1.9 4.55,1.9 1.95,0 2.85,-1.8 0.6,-1.15 0.6,-2.3 0,-4.7 -4.35,-4.4 M -5.3,7.35 h 0.1 0.25 0.1 Q 0,7.35 2,9.4 q 0.8,1 1.05,2.5 l 0.2,2.65 v 0.2 l -1.8,-0.2 -2.3,-0.1 0.2,-0.3 q 1.05,-1.7 1.05,-2.6 l -0.05,-0.45 -0.2,-0.15 -2.05,2.1 -1.05,1.4 H -7.3 -7.8 q -1.1,-2.3 -2.3,-3.5 l -0.5,0.55 -0.05,0.8 q 0,1.3 0.6,2.15 l 0.05,0.05 -1.3,0.05 -2.1,0.2 v -0.2 l 0.2,-2.65 q 0.25,-1.5 1.05,-2.5 2,-2.05 6.85,-2.05 m 21.15,0 h 0.1 0.25 0.1 q 4.85,0 6.85,2.05 0.8,1 1.05,2.5 l 0.2,2.65 v 0.2 l -1.8,-0.2 -2.3,-0.1 0.2,-0.3 q 1.05,-1.7 1.05,-2.6 l -0.05,-0.45 -0.2,-0.15 -2.05,2.1 -1.05,1.4 h -4.35 -0.5 q -1.1,-2.3 -2.3,-3.5 -0.4,0.3 -0.5,0.55 l -0.05,0.8 q 0,1.3 0.6,2.15 l 0.05,0.05 -1.3,0.05 -2.1,0.2 v -0.2 L 7.95,11.9 Q 8.2,10.4 9,9.4 11,7.35 15.85,7.35"
         fill="#cfb9d5"
         fill-rule="evenodd"
         stroke="none"
         id="path7" />
    </g>
  </defs>
</svg>
