<?xml version="1.0" encoding="UTF-8" standalone="no"?>
<svg
   ffdec:objectType="frame"
   height="114.9"
   width="67.453125"
   version="1.1"
   id="svg4"
   sodipodi:docname="1.svg"
   xmlns:inkscape="http://www.inkscape.org/namespaces/inkscape"
   xmlns:sodipodi="http://sodipodi.sourceforge.net/DTD/sodipodi-0.dtd"
   xmlns:xlink="http://www.w3.org/1999/xlink"
   xmlns="http://www.w3.org/2000/svg"
   xmlns:svg="http://www.w3.org/2000/svg"
   xmlns:ffdec="https://www.free-decompiler.com/flash">
  <sodipodi:namedview
     id="namedview4"
     pagecolor="#ffffff"
     bordercolor="#000000"
     borderopacity="0.25"
     inkscape:showpageshadow="2"
     inkscape:pageopacity="0.0"
     inkscape:pagecheckerboard="0"
     inkscape:deskcolor="#d1d1d1"
     fit-margin-top="5"
     fit-margin-left="5"
     fit-margin-right="5"
     fit-margin-bottom="5" />
  <g
     transform="translate(33.701563,57.45)"
     id="g1">
    <use
       ffdec:characterId="2216"
       height="114.9"
       transform="translate(-33.7,-57.45)"
       width="67.449997"
       xlink:href="#shape0"
       id="use1" />
    <use
       ffdec:characterId="1686"
       height="1.5"
       id="subplatform1"
       transform="matrix(0.0255,0,0.0977,0.86,-16.8735,-56.08)"
       width="1320.3"
       xlink:href="#sprite0" />
  </g>
  <defs
     id="defs4">
    <g
       id="shape0"
       transform="translate(33.7,57.45)">
      <path
         d="m 4.9,-52.3 v -0.15 l 0.2,-1.7 h -9.5 l 0.15,0.95 v 0.95 0.05 l -0.05,3.25 v 18.85 l 0.05,0.15 v 15.9 4.45 13.75 L -4.2,4.3 v 16.8 2.7 27.3 l 0.1,2.65 V 54.2 H -3 4.6 v 0.05 H 4.75 V 2.45 L 4.8,2.3 v -24 l 0.1,-0.25 v -27.5 -2.85 m -7.7,32.7 q -0.6,-0.1 -0.8,-0.4 l -0.1,-0.65 0.1,-0.6 0.8,-0.4 0.3,-0.05 h 2.05 l -0.3,-1.5 q 0,-1.35 1.2,-1.15 1.15,0.1 1.15,1.1 l -0.05,1.1 0.05,0.45 h 1.5 q 1.2,0.2 1.2,1.1 L 4,-19.9 q -0.35,0.35 -0.9,0.35 H 1.75 v 1.9 2.55 q -0.2,2.25 -1.15,2.25 -0.95,0 -1.2,-2.35 v -2.4 l 0.05,-1.95 H -2.5 l -0.3,-0.05 m 16.25,-32.7 v -0.05 -1.8 h -7.6 l 0.2,1.75 v 0.1 2.85 13.45 l 0.35,-0.1 h 1.5 l 0.85,-0.05 4.35,0.2 0.35,0.2 V -52.3 m 1.75,0.45 -0.4,-0.7 -0.05,0.35 V 23.55 L 14.8,23.8 V 38.05 L 14.65,47.85 14.7,47.6 16.05,41.95 23.9,8.8 23.95,-13.7 24,-13.85 V -28.7 l 0.05,-3 0.1,-1.05 -8.65,-18.55 -0.3,-0.55 m 3.2,-0.85 12.05,25.05 2,4.2 0.85,3 q 0.85,1.15 0.1,3.95 L 32,-10.8 20.2,40.15 18.25,48.7 17.1,52.45 17,52.8 v 0.15 l -0.35,2.3 0.15,0.6 q 0.05,1 -1.45,1.45 l -10.9,0.1 v 0.05 H -4.4 V 57.4 l -10.9,-0.1 q -1.5,-0.45 -1.45,-1.45 l 0.15,-0.6 -0.35,-2.3 V 52.8 l -0.1,-0.35 -1.15,-3.75 -1.95,-8.55 -11.8,-50.95 -1.4,-5.7 q -0.75,-2.8 0.1,-3.95 l 0.85,-3 2,-4.2 12.05,-25.05 1.25,-2.9 q 0.55,-1.4 1.7,-1.35 l 1.25,-0.5 H 14.2 l 1.25,0.5 q 1.15,-0.05 1.7,1.35 l 1.25,2.9 m 8.2,25.25 -1.6,-3.5 0.05,1.2 v 1.15 14.9 l 0.1,0.15 V 3.55 L 26.6,-2.6 28.7,-11.45 30,-18 q 0.25,-1.15 0.65,-1.85 -0.75,-0.85 -1.55,-2.25 l -2.5,-5.35 M 13.45,-33.7 v -1.05 q -0.2,0.15 -0.55,0.15 l -6.5,-0.2 -0.35,-0.35 v 13.45 l 0.1,0.15 v 74.9 0.9 H 6.3 6.8 L 13.5,54.3 13.85,53.25 13.6,48 13.4,38.15 V 23.8 l 0.05,-0.25 V -33.7 m -28.05,-14.85 -0.4,-3.55 -0.45,0.8 -7.4,15.9 v 4.15 l 0.5,-0.05 1,-0.1 2.35,-0.05 4.4,0.3 v -17.15 -0.25 m 9.05,-3.65 v -0.05 l 0.2,-1.9 h -8.25 l 0.05,1.65 v 0.35 0.95 l -0.05,2.65 V -6.7 l 0.05,0.25 v 17.8 l 0.05,0.2 v 2.65 h 1.3 6.6 V 4.15 l 0.05,-0.2 v -13.4 -4.75 -15.75 l 0.05,-0.15 v -18.85 l -0.05,-3.25 m -9.05,23.15 v -0.9 h -0.05 l -6.6,-0.1 h -1.6 V 10.2 l -0.1,2.25 v 0.1 l 0.05,0.1 0.6,2.5 7.45,31.65 0.05,-35.4 0.05,-0.2 V -6.6 l 0.15,-0.2 v -22.25 m -9.5,1.1 v -2.25 l -0.1,-0.45 0.1,-0.2 v -1.85 l -4.95,10.6 q -0.8,1.4 -1.55,2.25 0.4,0.7 0.65,1.85 l 0.2,0.95 1.1,5.6 4.55,19.15 V -27.95 M -5.6,17.7 v -2.15 l -1.25,0.05 h -4.4 -0.95 -0.05 -0.2 -0.45 -0.6 l 0.05,32.75 0.1,3.95 -0.1,1.95 v 0.05 h 1.5 l 6.2,-0.05 v -0.5 L -5.6,51.1 V 23.8 21.3 17.7"
         fill="#6b6b6b"
         fill-rule="evenodd"
         stroke="none"
         id="path1" />
      <path
         d="m -3,54.2 q 0.3,-1.05 0.3,-2.35 l -0.1,-4 0.1,-4.8 -0.1,-3.35 v -59.3 l 0.3,0.05 h 1.95 l -0.05,1.95 v 2.4 q 0.25,2.35 1.2,2.35 0.95,0 1.15,-2.25 v -2.55 -1.9 H 3.1 q 0.55,0 0.9,-0.35 l 0.3,-0.7 q 0,-0.9 -1.2,-1.1 H 1.6 l -0.05,-0.45 0.05,-1.1 q 0,-1 -1.15,-1.1 -1.2,-0.2 -1.2,1.15 l 0.3,1.5 H -2.5 l -0.3,0.05 -0.05,-23.55 v -5.05 l -0.1,-2 7.85,-0.05 v 2.85 27.5 l -0.1,0.25 v 24 L 4.75,2.45 v 51.8 H 4.6 V 54.2 H -3 M 7.9,-36.1 Q 7.8,-47.9 7.25,-52.3 l 3.15,-0.05 3.05,0.05 v 16.55 l -0.35,-0.2 -4.35,-0.2 -0.85,0.05 m 8.15,78.05 v -2.2 l -0.3,-36.05 -0.1,-45.9 -0.05,-5.55 -0.4,-4.1 0.3,0.55 8.65,18.55 -0.1,1.05 -0.05,3 v 14.85 L 23.95,-13.7 23.9,8.8 16.05,41.95 m 10.55,-69.4 2.5,5.35 q 0.8,1.4 1.55,2.25 -0.4,0.7 -0.65,1.85 l -1.3,6.55 -2.1,8.85 -0.05,-1.6 v -19 l 0.05,-4.25 M 6.8,54.25 q 0.95,-4.5 0.95,-10.7 -0.2,-8.1 -0.1,-12.2 L 7.7,16.25 7.65,6.7 7.9,-28.55 v -4.65 l 5.45,-0.5 h 0.1 V 23.55 L 13.4,23.8 V 38.15 L 13.6,48 13.85,53.25 13.5,54.3 6.8,54.25 m -28.15,-85.65 -0.1,-1.7 0.65,-1.3 q 2,-4.15 4.95,-11.25 l 1.25,-2.9 v 0.25 17.15 l -4.4,-0.3 -2.35,0.05 M -12.2,14.2 -12.25,2.95 -12.3,2.8 v -54.95 l 6.75,-0.05 0.05,3.25 v 18.85 l -0.05,0.15 v 15.75 4.75 13.4 L -5.6,4.15 V 14.2 h -6.6 m -10.1,0.95 0.2,0.15 q 0.95,0 1.15,-9.05 v -9.4 -15.6 l -0.25,-9.95 h 2.4 l 4.1,-0.3 0.1,-0.05 V -6.8 l -0.15,0.2 v 17.8 l -0.05,0.2 -0.05,35.4 -7.45,-31.65 m -7.45,-32.2 5.65,-10.9 V 7.7 l -4.55,-19.15 -1.1,-5.6 m 17.8,71.35 v -2.85 q 0,-3.75 -0.15,-7.15 l -0.1,-26.6 4.55,0.15 2.05,-0.15 v 3.6 2.5 27.3 l -0.15,2.65 v 0.5 l -6.2,0.05"
         fill="#827871"
         fill-rule="evenodd"
         stroke="none"
         id="path2" />
      <path
         d="M -3,54.2 H -4.1 V 53.75 L -4.2,51.1 V 23.8 21.1 4.3 L -4.25,4.15 V -9.6 -14.05 -29.95 L -4.3,-30.1 v -18.85 l 0.05,-3.25 v -0.05 -0.95 l -0.15,-0.95 h 9.5 l -0.2,1.7 v 0.15 l -7.85,0.05 0.1,2 v 5.05 l 0.05,23.55 -0.8,0.4 -0.1,0.6 0.1,0.65 q 0.2,0.3 0.8,0.4 v 59.3 l 0.1,3.35 -0.1,4.8 0.1,4 q 0,1.3 -0.3,2.35 M 7.9,-36.1 H 6.4 L 6.05,-36 v -13.45 -2.85 -0.1 l -0.2,-1.75 h 7.6 v 1.8 0.05 l -3.05,-0.05 -3.15,0.05 q 0.55,4.4 0.65,16.2 m 8.15,78.05 -1.35,5.65 -0.05,0.25 0.15,-9.8 V 23.8 L 14.75,23.55 V -52.2 l 0.05,-0.35 0.4,0.7 0.4,4.1 0.05,5.55 0.1,45.9 0.3,36.05 v 2.2 M 26.6,-2.6 25.15,3.55 v -17.1 l -0.1,-0.15 v -14.9 -1.15 l -0.05,-1.2 1.6,3.5 -0.05,4.25 v 19 l 0.05,1.6 M 13.45,-33.7 h -0.1 l -5.45,0.5 v 4.65 L 7.65,6.7 7.7,16.25 7.65,31.35 q -0.1,4.1 0.1,12.2 0,6.2 -0.95,10.7 H 6.3 l -0.15,-0.9 v -74.9 l -0.1,-0.15 v -13.45 l 0.35,0.35 6.5,0.2 q 0.35,0 0.55,-0.15 v 1.05 m -34.8,2.3 -1,0.1 -0.5,0.05 v -4.15 l 7.4,-15.9 0.45,-0.8 0.4,3.55 -1.25,2.9 q -2.95,7.1 -4.95,11.25 l -0.65,1.3 0.1,1.7 m 9.15,45.6 h -1.3 v -2.65 l -0.05,-0.2 V -6.45 L -13.6,-6.7 v -41.85 l 0.05,-2.65 v -0.95 -0.35 l -0.05,-1.65 h 8.25 l -0.2,1.9 v 0.05 l -6.75,0.05 V 2.8 l 0.05,0.15 0.05,11.25 m -2.4,-43.25 -0.1,0.05 -4.1,0.3 h -2.4 l 0.25,9.95 v 15.6 9.4 q -0.2,9.05 -1.15,9.05 l -0.2,-0.15 -0.6,-2.5 -0.05,-0.2 0.1,-2.25 v -40.25 h 1.6 l 6.6,0.1 h 0.05 v 0.9 m -15.15,12 -0.2,-0.95 q -0.25,-1.15 -0.65,-1.85 0.75,-0.85 1.55,-2.25 l 4.95,-10.6 v 1.85 l -0.1,0.2 0.1,0.45 v 2.25 l -5.65,10.9 m 17.8,71.35 h -1.5 v -0.05 l 0.1,-1.95 -0.1,-3.95 -0.05,-32.75 h 0.6 0.45 0.2 0.05 0.95 4.4 l 1.25,-0.05 v 2.15 l -2.05,0.15 -4.55,-0.15 0.1,26.6 q 0.15,3.4 0.15,7.15 v 2.85"
         fill="#92877f"
         fill-rule="evenodd"
         stroke="none"
         id="path3" />
    </g>
    <g
       id="sprite0"
       transform="translate(660.25,0.5)">
      <use
         ffdec:characterId="68"
         height="1.5"
         transform="translate(-660.25,-0.5)"
         width="1320.3"
         xlink:href="#shape1"
         id="use3" />
    </g>
    <g
       id="shape1"
       transform="translate(660.25,0.5)">
      <path
         d="m 659.3,-0.5 0.55,0.25 0.2,0.5 -0.2,0.55 L 659.3,1 H -659.5 l -0.5,-0.2 -0.25,-0.55 0.25,-0.5 0.5,-0.25 H 659.3"
         fill="#ffff00"
         fill-opacity="0"
         fill-rule="evenodd"
         stroke="none"
         id="path4" />
    </g>
  </defs>
</svg>
