<?xml version="1.0" encoding="UTF-8" standalone="no"?>
<svg
   ffdec:objectType="frame"
   height="60.455883"
   width="59.799999"
   version="1.1"
   id="svg13"
   sodipodi:docname="1.svg"
   xmlns:inkscape="http://www.inkscape.org/namespaces/inkscape"
   xmlns:sodipodi="http://sodipodi.sourceforge.net/DTD/sodipodi-0.dtd"
   xmlns:xlink="http://www.w3.org/1999/xlink"
   xmlns="http://www.w3.org/2000/svg"
   xmlns:svg="http://www.w3.org/2000/svg"
   xmlns:ffdec="https://www.free-decompiler.com/flash">
  <sodipodi:namedview
     id="namedview13"
     pagecolor="#ffffff"
     bordercolor="#000000"
     borderopacity="0.25"
     inkscape:showpageshadow="2"
     inkscape:pageopacity="0.0"
     inkscape:pagecheckerboard="0"
     inkscape:deskcolor="#d1d1d1"
     fit-margin-top="5"
     fit-margin-left="5"
     fit-margin-right="5"
     fit-margin-bottom="5" />
  <g
     transform="translate(29.9,38.855882)"
     id="g3">
    <use
       ffdec:characterId="2432"
       height="29.85"
       transform="translate(-29.5,-13.05)"
       width="49.700001"
       xlink:href="#shape0"
       id="use1" />
    <use
       ffdec:characterId="2225"
       height="6.1999998"
       transform="matrix(0.683,0,0,-0.683,-4.4391,-1.3535)"
       width="5.9000001"
       xlink:href="#sprite0"
       id="use2" />
    <use
       ffdec:characterId="2433"
       height="60.450001"
       transform="translate(-29.9,-38.85)"
       width="59.799999"
       xlink:href="#shape2"
       id="use3" />
  </g>
  <defs
     id="defs13">
    <g
       id="shape0"
       transform="translate(29.5,13.05)">
      <path
         d="m 7.45,-7.05 2.8,2.25 5.35,3.55 q 4.1,3.5 4.1,7.2 0,2.7 -2.3,4.65 l -1.4,1 1.45,0.95 0.75,0.7 0.2,0.15 0.35,0.3 Q 19.6,14.5 19.6,15 L 19.45,15.35 19,15.55 18.55,15.4 18.3,15.7 q -0.75,0.75 -2.05,0.55 h -1.5 L 10.8,14.65 Q 7.2,13.25 5.95,13.25 L 4.3,13.55 H 2.95 L 0.3,13.1 -1.35,12.7 -6.7,12.1 v -0.05 l -1.05,0.05 -1,-0.2 h -7.45 v 0.05 l -2.65,0.1 -2.5,0.45 q -1.35,0.35 -2.2,1.05 -0.55,0.45 -2,1.2 -1.6,0.9 -2.15,0.9 h -0.15 -0.2 q -0.85,0 -0.95,-1.7 0,-1.05 1.05,-2.55 l 1,-1.5 -1,-3.6 -0.6,-2 -0.2,-1.6 0.2,-2.6 0.1,-1.3 0.5,-0.7 q 0.25,-1.1 1.9,0.95 l 0.8,-1.85 q 0.15,-1.05 1.8,-0.65 1.65,0.4 1.65,1.15 0,0.65 -0.6,1.95 l -0.65,1.85 q 0,0.8 1.15,2.15 l 1.85,1.85 H -17 l 0.25,-0.1 h 2.05 l 1.85,-0.15 -0.5,-1.05 H -15 l -0.9,-0.8 -0.05,-0.75 q 0,-1.3 1.2,-4.1 l 1.85,-3.6 3.25,-3.9 q 2.35,-2.25 5.8,-3.6 h 1.7 q 2.1,0.35 4.25,1.35 2.15,1.05 3.25,2.25 l 1.35,1.25 0.65,0.55 0.1,0.1 m 9.8,10.1 -0.3,-0.45 q -1,-1.5 -2.4,-2.7 L 13.85,-0.7 9.1,-3.8 7.35,-5.25 6.85,-5.75 6.75,-5.85 4.4,-7.85 1.8,-9.8 q -2.45,-1.25 -4.85,-1.25 -2.05,0 -5.75,3.3 -1.65,1.55 -2.75,3.35 l -1.95,4.05 -0.7,1.9 -0.25,0.75 v 0.35 h 2.2 l 0.1,-0.05 h 3.35 l 0.3,-0.4 q 0.35,-0.15 0.8,0.6 L -7.05,4.2 -7.2,4.45 -7.5,4.6 -8.2,4 -8.75,4.1 h -2.95 l 1.05,1.35 q 0.7,0.65 2.25,1.2 2.25,0.8 5,0.8 1.8,0 3.35,-0.9 L 1.6,5.65 H 1.65 L 2.2,5.35 q 0.75,-1.05 1,-0.7 l 0.1,0.5 -1.45,3.4 0.35,0.4 H 2.3 2.55 L 3.3,7.55 3.4,7.4 Q 3.65,6.9 4.15,6.5 L 5.2,6.55 5,6.9 6.2,7.1 7.05,7.35 7.4,6.25 q 1,-2.1 3.65,-2.1 1.55,0 2.35,1.4 L 13.9,7 v 0.1 q 1,-0.6 1,-1.35 L 14.4,3.9 13.9,2.75 q 0,-0.3 0.4,-0.3 h 0.15 q 1.15,0.15 1.55,3.7 0,0.55 -0.95,1.5 -1.05,1 -1.95,1 h -0.05 q -0.6,0.45 -1.5,0.45 -0.9,0 -1.35,-0.55 L 9.9,7.95 9.95,7.4 10,7.1 Q 10.1,6.8 10.35,6.7 10.6,6.55 11,6.55 q 0.35,0 0.5,0.15 L 11.6,7 Q 11.45,7.6 10.9,7.5 L 10.85,7.6 11,7.8 11.25,8 h 0.25 0.25 Q 12.7,7.65 12.7,7 L 12.25,6.2 11.3,5.4 h -0.5 q -1.2,0.15 -2,1.05 -0.65,0.8 -0.65,1.45 0,1.75 1.2,2.55 1,0.7 2.9,0.7 3.3,0 4.95,-2.45 1,-1.5 1,-2.75 0,-1.3 -0.95,-2.9 m -25.1,-5.15 -0.1,-1.05 0.3,-1.6 q 0.45,-1.05 1.45,-1.95 1.65,-1.4 3.25,-1.3 2.25,0.15 3.6,1.5 L 1.1,-5.95 1.85,-4.45 2,-3.2 Q 2,0.15 -1.6,1.45 H -3.75 Q -7.3,0.6 -7.85,-2.1 M 4.65,8.3 3.95,9.35 q -0.55,1 -1.9,1 -1.25,0 -1.6,-1.55 L 0.65,7.9 0.5,7.95 q -2,1 -3.9,1 -4.8,0 -7.7,-1.8 l -0.65,-0.6 -0.2,0.05 -2.65,0.3 h -5.75 q -2.5,-1.45 -3.15,-2.7 l -0.8,-1.5 -0.15,-1.2 q 0,-0.7 0.4,-1.65 0.65,-1.15 0.65,-1.6 0,-0.25 -0.55,-0.25 l -0.65,1.35 q -0.45,1.15 -0.95,1.35 -0.4,0.5 -0.85,0.5 -0.55,0 -0.55,-0.45 l 0.3,-0.55 h 0.05 l -0.95,-0.95 v 1.7 l 0.05,0.1 -0.15,1.6 q 0,1.3 1.05,3.7 l 0.9,3.1 q 1.25,-0.95 1.25,-0.15 l -1.45,1.5 -0.65,0.85 -0.1,0.15 q -1,1.45 -1,2.15 l 0.05,0.35 1,-0.65 2.25,-1.3 q 1.6,-1.3 5.4,-1.8 h 1.5 l 0.8,-0.1 0.3,-0.05 h 7.8 l 3.45,0.35 v 0.05 q 2.65,-0.1 4.55,0.55 2,0.7 4.15,0.7 L 4.7,11.9 5.95,11.75 q 1.5,0 5.35,1.55 l 4.25,1.5 1.6,-0.1 0.2,-0.25 -0.8,-0.8 -1.55,-1 -0.55,-0.35 -1.55,0.3 H 11.6 Q 9.25,12.45 7.95,11.05 6.9,9.95 6.9,8.7 V 8.6 H 6.75 L 6,8.45 4.95,8.4 4.65,8.3 M -0.8,-5.85 -1.25,-6.1 -1.75,-6.35 -2.2,-6.5 -2.85,-6.65 Q -4.25,-6.8 -5.6,-5.1 l -0.7,0.95 -0.15,1 V -3 q 0.1,2.55 3.05,2.95 h 1.55 q 2.35,-0.85 2.35,-3.2 0,-0.6 -0.75,-2 l -0.55,-0.6"
         fill="#6b6b6b"
         fill-rule="evenodd"
         stroke="none"
         id="path3" />
      <path
         d="M 11.5,8 H 11.25 L 11,7.8 10.85,7.6 10.9,7.5 Q 11.45,7.6 11.6,7 L 11.5,6.7 Q 12,6.8 12,7.05 L 11.75,7.55 11.5,8"
         fill="#959595"
         fill-rule="evenodd"
         stroke="none"
         id="path4" />
      <path
         d="m -14.2,1.55 q 0.25,0 1.45,-0.6 l 1.5,-0.75 q 2,-0.65 2.6,-1.15 l 0.8,-1.15 q 0.55,2.7 4.1,3.55 H -1.6 Q 2,0.15 2,-3.2 l -0.15,-1.25 0.9,1 3.6,2.9 q 0.8,0.55 2.4,0.9 l 3.5,0.6 q 2.55,0.4 3.2,0.8 l 0.85,0.7 0.95,0.6 q 0.95,1.6 0.95,2.9 0,1.25 -1,2.75 -1.65,2.45 -4.95,2.45 -1.9,0 -2.9,-0.7 L 9.1,9.95 Q 8.85,9.55 8.85,9 L 9.15,7.8 Q 9.55,6.85 10.35,6.7 10.1,6.8 10,7.1 L 9.95,7.4 Q 9.7,7.6 9.7,8.2 L 10.15,9 q 0.7,0.8 1.8,0.8 2.8,0 4.05,-1.5 0.75,-0.9 0.75,-2 L 16.5,4.25 q -0.5,-2 -1.6,-2 l -0.45,0.2 H 14.3 q -0.4,0 -0.4,0.3 l 0.5,1.15 0.5,1.85 q 0,0.75 -1,1.35 V 7 L 13.4,5.55 Q 12.6,4.15 11.05,4.15 8.4,4.15 7.4,6.25 L 7.05,7.35 6.2,7.1 5,6.9 5.2,6.55 4.15,6.5 Q 3.65,6.9 3.4,7.4 L 3.3,7.55 2.55,8.95 H 2.3 l 0.55,-0.8 0.5,-1.3 q 1.4,-2 1.4,-2.4 0,-1.55 -1.55,0.2 -0.25,-0.35 -1,0.7 L 1.65,5.65 H 1.6 l -1.65,0.9 q -1.55,0.9 -3.35,0.9 -2.75,0 -5,-0.8 -1.55,-0.55 -2.25,-1.2 L -11.7,4.1 h 2.95 L -8.2,4 -7.5,4.6 -7.2,4.45 -7.05,4.2 -7.7,2.8 Q -8.15,2.05 -8.5,2.2 l -0.3,0.4 h -3.35 l -0.1,0.05 h -2.2 V 2.3 L -14.2,1.55 M -6.45,-3 q 0.75,0.8 1.95,0.8 2.05,0 3.1,-1 0.8,-0.7 0.8,-1.55 l -0.2,-1.1 0.55,0.6 q 0.75,1.4 0.75,2 0,2.35 -2.35,3.2 H -3.4 Q -6.35,-0.45 -6.45,-3"
         fill="#899585"
         fill-rule="evenodd"
         stroke="none"
         id="path5" />
      <path
         d="m -14.2,1.55 0.7,-1.9 1.95,-4.05 q 1.1,-1.8 2.75,-3.35 3.7,-3.3 5.75,-3.3 2.4,0 4.85,1.25 l 2.6,1.95 2.35,2 0.1,0.1 0.5,0.5 1.75,1.45 4.75,3.1 0.7,0.6 q 1.4,1.2 2.4,2.7 l 0.3,0.45 -0.95,-0.6 -0.85,-0.7 Q 14.8,1.35 12.25,0.95 L 8.75,0.35 Q 7.15,0 6.35,-0.55 l -3.6,-2.9 -0.9,-1 L 1.1,-5.95 0.65,-6.5 q -1.35,-1.35 -3.6,-1.5 -1.6,-0.1 -3.25,1.3 -1,0.9 -1.45,1.95 l -0.3,1.6 0.1,1.05 -0.8,1.15 q -0.6,0.5 -2.6,1.15 l -1.5,0.75 q -1.2,0.6 -1.45,0.6 m 23.55,8.9 Q 8.15,9.65 8.15,7.9 8.15,7.25 8.8,6.45 9.6,5.55 10.8,5.4 h 0.5 L 12.25,6.2 12.7,7 q 0,0.65 -0.95,1 H 11.5 L 11.75,7.55 12,7.05 Q 12,6.8 11.5,6.7 11.35,6.55 11,6.55 10.6,6.55 10.35,6.7 9.55,6.85 9.15,7.8 L 8.85,9 q 0,0.55 0.25,0.95 l 0.25,0.5 M 9.95,7.4 9.9,7.95 l 0.3,0.6 q 0.45,0.55 1.35,0.55 0.9,0 1.5,-0.45 h 0.05 q 0.9,0 1.95,-1 Q 16,6.7 16,6.15 15.6,2.6 14.45,2.45 l 0.45,-0.2 q 1.1,0 1.6,2 l 0.25,2.05 q 0,1.1 -0.75,2 -1.25,1.5 -4.05,1.5 -1.1,0 -1.8,-0.8 L 9.7,8.2 Q 9.7,7.6 9.95,7.4 M 2.3,8.95 H 2.2 L 1.85,8.55 3.3,5.15 3.2,4.65 q 1.55,-1.75 1.55,-0.2 0,0.4 -1.4,2.4 L 2.85,8.15 2.3,8.95 M -6.45,-3 v -0.15 l 0.15,-1 0.7,-0.95 q 1.35,-1.7 2.75,-1.55 l 0.65,0.15 0.45,0.15 0.5,0.25 0.45,0.25 0.2,1.1 q 0,0.85 -0.8,1.55 -1.05,1 -3.1,1 -1.2,0 -1.95,-0.8"
         fill="#9eac9a"
         fill-rule="evenodd"
         stroke="none"
         id="path6" />
      <path
         d="M 4.65,8.3 4.95,8.4 6,8.45 6.75,8.6 H 6.9 v 0.1 q 0,1.25 1.05,2.35 1.3,1.4 3.65,1.55 h 1.3 l 1.55,-0.3 0.55,0.35 1.55,1 0.8,0.8 -0.2,0.25 -1.6,0.1 -4.25,-1.5 Q 7.45,11.75 5.95,11.75 L 4.7,11.9 3.6,12.05 q -2.15,0 -4.15,-0.7 Q -2.45,10.7 -5.1,10.8 V 10.75 L -8.55,10.4 h -7.8 l -0.3,0.05 -0.8,0.1 h -1.5 q -3.8,0.5 -5.4,1.8 l -2.25,1.3 -1,0.65 -0.05,-0.35 q 0,-0.7 1,-2.15 l 0.1,-0.15 0.65,-0.85 1.45,-1.5 q 0,-0.8 -1.25,0.15 l -0.9,-3.1 q -1.05,-2.4 -1.05,-3.7 l 0.15,-1.6 -0.05,-0.1 v -1.7 l 0.95,0.95 h -0.05 l -0.3,0.55 q 0,0.45 0.55,0.45 0.45,0 0.85,-0.5 0.5,-0.2 0.95,-1.35 L -23.95,-2 q 0.55,0 0.55,0.25 0,0.45 -0.65,1.6 -0.4,0.95 -0.4,1.65 l 0.15,1.2 0.8,1.5 q 0.65,1.25 3.15,2.7 h 5.75 l 2.65,-0.3 0.2,-0.05 0.65,0.6 q 2.9,1.8 7.7,1.8 1.9,0 3.9,-1 L 0.65,7.9 0.45,8.8 q 0.35,1.55 1.6,1.55 1.35,0 1.9,-1 L 4.65,8.3"
         fill="#8e847d"
         fill-rule="evenodd"
         stroke="none"
         id="path7" />
      <path
         d="m 7.45,-7.05 2.8,2.25 5.35,3.55 q 4.1,3.5 4.1,7.2 0,2.7 -2.3,4.65 l -1.4,1 1.45,0.95 0.75,0.7 0.2,0.15 0.35,0.3 Q 19.6,14.5 19.6,15 L 19.45,15.35 19,15.55 18.55,15.4 18.3,15.7 q -0.75,0.75 -2.05,0.55 h -1.5 L 10.8,14.65 Q 7.2,13.25 5.95,13.25 L 4.3,13.55 H 2.95 L 0.3,13.1 -1.35,12.7 -6.7,12.1 v -0.05 l -1.05,0.05 -1,-0.2 h -7.45 v 0.05 l -2.65,0.1 -2.5,0.45 q -1.35,0.35 -2.2,1.05 -0.55,0.45 -2,1.2 -1.6,0.9 -2.15,0.9 h -0.15 -0.2 q -0.85,0 -0.95,-1.7 0,-1.05 1.05,-2.55 l 1,-1.5 -1,-3.6 -0.6,-2 -0.2,-1.6 0.2,-2.6 0.1,-1.3 0.5,-0.7 q 0.25,-1.1 1.9,0.95 l 0.8,-1.85 q 0.15,-1.05 1.8,-0.65 1.65,0.4 1.65,1.15 0,0.65 -0.6,1.95 l -0.65,1.85 q 0,0.8 1.15,2.15 l 1.85,1.85 H -17 l 0.25,-0.1 h 2.05 l 1.85,-0.15 -0.5,-1.05 H -15 l -0.9,-0.8 -0.05,-0.75 q 0,-1.3 1.2,-4.1 l 1.85,-3.6 3.25,-3.9 q 2.35,-2.25 5.8,-3.6 h 1.7 q 2.1,0.35 4.25,1.35 2.15,1.05 3.25,2.25 l 1.35,1.25 0.65,0.55 z"
         fill="none"
         stroke="#6b6b6b"
         stroke-linecap="round"
         stroke-linejoin="round"
         stroke-width="1"
         id="path8" />
    </g>
    <g
       id="sprite0"
       transform="translate(2.4,2.85)">
      <use
         ffdec:characterId="2022"
         height="5.6999998"
         transform="matrix(0.8214,0,0,0.8214,-2.3,-2.341)"
         width="5.5999999"
         xlink:href="#sprite1"
         id="use8" />
    </g>
    <g
       id="sprite1"
       transform="translate(2.8,2.85)">
      <use
         ffdec:characterId="2007"
         height="5.6999998"
         transform="translate(-2.8,-2.85)"
         width="5.5999999"
         xlink:href="#shape1"
         id="use9" />
    </g>
    <g
       id="shape1"
       transform="translate(2.8,2.85)">
      <path
         d="M 2.8,-0.2 2.35,1.5 Q 1.65,2.85 0.2,2.85 -1.4,2.85 -2.2,1.8 -2.8,1.05 -2.8,0.3 q 0,-2.7 2.8,-3.1 2.8,-0.35 2.8,2.6 m -3.55,-1.7 q -1,0 -1,1.05 -0.15,0.9 0.8,0.9 0.45,0 0.85,-0.35 l 0.35,-0.75 q 0,-0.85 -1,-0.85"
         fill="#6b6b6b"
         fill-rule="evenodd"
         stroke="none"
         id="path9" />
      <path
         d="m -0.75,-1.9 q 1,0 1,0.85 L -0.1,-0.3 q -0.4,0.35 -0.85,0.35 -0.95,0 -0.8,-0.9 0,-1.05 1,-1.05"
         fill="#6b6b6b"
         fill-rule="evenodd"
         stroke="none"
         id="path10" />
    </g>
    <g
       id="shape2"
       transform="translate(29.9,38.85)">
      <path
         d="m 14.8,-38.7 h 1.5 l 12.5,-0.15 0.2,0.1 q 0.3,-0.3 0.5,0.25 v 0.3 l 0.3,0.45 V 7.3 l 0.05,0.15 0.05,10.95 v 1.7 l -0.4,1.1 v 0.35 H 28.95 L 28.6,21.6 28.2,21.55 h -56.4 l -0.4,0.05 -0.35,-0.05 H -29.5 V 21.2 l -0.4,-1.1 V 18.4 L -29.85,7.45 -29.8,7.3 v -45.05 l 0.3,-0.45 v -0.3 q 0.2,-0.55 0.5,-0.25 l 0.2,-0.1 36.25,0.2 H 8.7 l 6.1,-0.05 m 4.3,2.8 h -2 l -44.45,0.1 v 3.75 l 34.8,0.2 H 8.7 l 6.1,-0.05 h 1.5 L 27.35,-32 v -3.8 l -8.25,-0.1 m -2,6.8 -44.45,0.1 V 7.4 l 0.05,0.15 0.05,8.3 0.85,-0.1 1.5,0.2 V 15.9 q -0.25,-1.3 2,-1.45 h 1.4 q 0.3,0.05 0.7,0.6 0.35,0.5 1,0.5 l 0.5,-0.4 q 0.6,-0.45 1.55,-0.45 0.3,0 1,0.55 l 1,0.55 q 1.6,0 2.25,-0.6 0.65,-0.65 1.85,-0.65 1.25,0 1.95,0.8 0.7,0.75 1.4,0.75 L -3,15.95 q 1.2,-1.8 3.55,-1.8 l 3.35,0.5 q 1.95,0.55 2.45,1.05 l 1.55,0.05 2.4,-0.9 q 2.05,-0.9 2.45,-0.9 l 2.4,0.6 0.7,-0.2 q 0.5,-0.25 0.75,-0.25 0.8,0 1.55,0.55 L 19.1,15.2 19,15.05 Q 18.45,14.1 18.45,13.4 l 0.7,-0.6 q 3,0 3.45,0.8 0.65,1.1 1.35,1.3 v -0.1 q -0.2,-1.3 1.25,-1.3 l 1.15,0.15 0.9,-0.05 L 27.3,7.55 27.35,7.4 V -29 l -8.25,-0.1 h -2 m 4.35,44.25 q 0.1,-1.05 -0.7,-1.05 l -0.8,0.05 v 0.05 l 0.4,0.95 -0.05,0.4 0.25,0.15 0.25,0.15 0.4,0.1 0.3,-0.05 v -0.1 l 0.05,-0.2 -0.1,-0.45 M 27.25,15.3 26.7,15 q -1.35,0.75 -1.95,1.05 l 0.2,0.4 0.1,0.35 -0.3,1 -0.2,0.25 -1.55,0.1 q -0.6,0 -1,-0.5 L 21.8,17.2 21.75,17.1 21.65,16.9 H 21.2 l -0.2,-0.05 -0.5,-0.1 -0.35,-0.15 -0.3,-0.15 -0.7,0.25 q -0.4,0 -1.05,-0.55 l -0.2,-0.2 q -0.55,-0.55 -1.3,-0.55 -0.15,0.25 -0.15,0.45 l 0.05,0.3 0.2,0.35 0.15,0.25 q 0.65,0.45 0.65,1.5 v 0.05 l -0.1,0.6 -0.15,0.2 h 10 v -3.8 m -3.1,1 h -0.1 l -1.5,0.1 v 0.05 l -0.15,0.2 0.15,0.2 0.2,0.2 q 0.4,0.3 0.9,0.3 l 0.9,-0.3 -0.15,-0.7 V 16.3 h -0.25 m -12.35,0.95 0.1,0.5 -0.05,0.4 Q 11.7,18.7 11,18.7 q -0.25,0 -0.55,-0.2 -0.35,-0.25 -0.35,-0.7 0,-0.85 0.7,-0.9 L 11,16.85 q 0.6,0 0.8,0.4 m 3.95,1.3 0.15,-0.05 0.8,-0.4 q -0.55,-0.95 -0.85,-0.95 l -1.45,0.15 -0.1,0.4 0.05,0.35 0.2,0.4 v 0.05 l 1.05,0.1 0.15,-0.05 M -3.4,17.6 v -0.2 l -1.75,0.05 q 0.45,0.45 0.45,1.5 v 0.15 h 10 q 0,-0.5 0.5,-0.65 0.6,-0.25 1.15,0.65 h 7.15 l -0.15,-0.05 q -0.55,-0.3 -0.55,-1.3 0,-1.3 1.35,-1.45 L 14.5,16.15 14.25,16 q -0.8,-0.5 -1.55,-0.5 l -1.55,0.65 -0.45,0.2 -0.1,0.05 q -2.15,0.8 -3.45,0.8 h -0.1 l -3.1,-0.75 -0.75,-0.2 -0.05,0.05 0.1,0.15 -0.1,0.6 -0.75,0.25 q -0.8,0 -0.8,-0.85 l 0.05,-0.3 0.2,-0.25 -0.8,-0.2 q -1.3,0 -2.05,0.45 l -0.05,0.05 q 1.4,0.1 1.4,1.45 v 0.05 l -0.1,0.55 q -0.2,0.4 -1.25,0.7 h -1.4 q -1,-0.55 -1,-1.35 m -15.25,-1.45 -0.25,0.15 -0.35,0.2 -0.05,0.15 q 0.1,0.8 1.75,0.8 l 0.25,-0.05 0.15,-0.2 -0.1,-0.7 -0.4,-0.35 -0.4,-0.15 -0.6,0.15 m -0.4,1.5 q -0.7,-0.5 -0.7,-1.05 h -0.2 -0.1 l -0.75,-0.1 q 0.1,0.4 0.05,0.85 L -21,18 l -0.65,0.45 -1.05,0.15 q -1.05,0 -1.8,-0.65 l -0.5,-0.6 -0.55,-0.15 -1.05,-0.25 -0.65,0.25 v 1.9 h 7.45 v -0.15 q 0,-0.75 0.75,-0.75 0.75,0 0.75,0.8 v 0.1 h 2.05 l -0.15,-0.05 -0.15,-1 q 0,-0.45 0.65,-0.9 l 0.05,-0.05 H -15.9 L -16.55,17 v 0.5 q -0.6,0.6 -1.4,0.6 l -1.1,-0.45 m 5.55,0.75 -0.45,-0.35 q -0.6,-0.35 -1.35,-0.35 l -0.35,0.3 -0.3,0.65 v 0.45 h 2.2 l 0.25,-0.7 M -13,16.7 -14.05,17 H -14 l 1.1,0.9 0.1,0.65 V 19.1 H -8 l -0.05,-0.85 0.15,-0.6 h -0.5 q -1.2,0 -1.8,-0.7 -0.55,-0.7 -1.35,-0.7 -0.6,0 -1.45,0.45 M -23.8,15.75 V 16 l 0.1,0.7 -0.2,0.6 q 0.45,0.4 1.2,0.4 1,0 1.25,-0.55 l 0.1,-0.9 v -0.1 L -21.4,16 q -0.35,-0.45 -0.8,-0.45 l -1.6,0.2 M -5.35,18.5 -5.6,18.05 Q -5.9,17.7 -6.2,17.7 l -1.2,0.25 0.05,0.45 0.5,0.65 -0.1,0.05 h 1.2 l 0.15,-0.2 0.25,-0.4 m 3.75,-1.8 -0.2,0.2 -0.5,0.45 -0.2,0.35 0.1,0.35 0.25,0.1 h 1.05 l 0.4,-0.2 0.15,-0.1 0.3,-0.3 -0.15,-0.7 -1.2,-0.15"
         fill="#6b6b6b"
         fill-rule="evenodd"
         stroke="none"
         id="path11" />
      <path
         d="m 19.1,-35.9 8.25,0.1 v 3.8 l -11.05,0.1 h -1.5 l -6.1,0.05 H 7.45 l -34.8,-0.2 v -3.75 l 44.45,-0.1 h 2 m 8.15,51.2 v 3.8 h -10 l 0.15,-0.2 0.1,-0.6 v -0.05 q 0,-1.05 -0.65,-1.5 L 16.7,16.5 16.5,16.15 16.45,15.85 q 0,-0.2 0.15,-0.45 0.75,0 1.3,0.55 l 0.2,0.2 q 0.65,0.55 1.05,0.55 l 0.7,-0.25 0.3,0.15 0.35,0.15 0.5,0.1 0.2,0.05 h 0.45 l 0.1,0.2 0.05,0.1 0.2,0.45 q 0.4,0.5 1,0.5 l 1.55,-0.1 0.2,-0.25 0.3,-1 -0.1,-0.35 -0.2,-0.4 q 0.6,-0.3 1.95,-1.05 l 0.55,0.3 m -5.8,-0.15 0.1,0.45 -0.05,0.2 v 0.1 l -0.3,0.05 -0.4,-0.1 -0.25,-0.15 -0.25,-0.15 0.05,-0.4 -0.4,-0.95 v -0.05 l 0.8,-0.05 q 0.8,0 0.7,1.05 m 2.95,1.2 0.15,0.7 -0.9,0.3 q -0.5,0 -0.9,-0.3 l -0.2,-0.2 -0.15,-0.2 0.15,-0.2 V 16.4 l 1.5,-0.1 h 0.1 l 0.25,0.05 M -3.4,17.6 q 0,0.8 1,1.35 H -1 q 1.05,-0.3 1.25,-0.7 l 0.1,-0.55 v -0.05 q 0,-1.35 -1.4,-1.45 L -1,16.15 Q -0.25,15.7 1.05,15.7 l 0.8,0.2 -0.2,0.25 -0.05,0.3 q 0,0.85 0.8,0.85 l 0.75,-0.25 0.1,-0.6 -0.1,-0.15 0.05,-0.05 0.75,0.2 3.1,0.75 h 0.1 q 1.3,0 3.45,-0.8 l 0.1,-0.05 0.45,-0.2 1.55,-0.65 q 0.75,0 1.55,0.5 l 0.25,0.15 0.25,0.15 q -1.35,0.15 -1.35,1.45 0,1 0.55,1.3 L 14.1,19.1 H 6.95 Q 6.4,18.2 5.8,18.45 5.3,18.6 5.3,19.1 h -10 v -0.15 q 0,-1.05 -0.45,-1.5 L -3.4,17.4 v 0.2 m 19.15,0.95 -0.15,0.05 -1.05,-0.1 v -0.05 l -0.2,-0.4 -0.05,-0.35 0.1,-0.4 1.45,-0.15 q 0.3,0 0.85,0.95 l -0.8,0.4 -0.15,0.05 m -3.95,-1.3 q -0.2,-0.4 -0.8,-0.4 l -0.2,0.05 q -0.7,0.05 -0.7,0.9 0,0.45 0.35,0.7 0.3,0.2 0.55,0.2 0.7,0 0.85,-0.55 l 0.05,-0.4 -0.1,-0.5 M -13,16.7 q 0.85,-0.45 1.45,-0.45 0.8,0 1.35,0.7 0.6,0.7 1.8,0.7 h 0.5 l -0.15,0.6 0.05,0.85 h -4.8 V 18.55 L -12.9,17.9 -14,17 h -0.05 L -13,16.7 m -0.5,1.7 -0.25,0.7 h -2.2 v -0.45 l 0.3,-0.65 0.35,-0.3 q 0.75,0 1.35,0.35 l 0.45,0.35 m -5.55,-0.75 1.1,0.45 q 0.8,0 1.4,-0.6 V 17 l 0.65,0.1 h 0.05 l -0.05,0.05 q -0.65,0.45 -0.65,0.9 l 0.15,1 0.15,0.05 H -18.3 V 19 q 0,-0.8 -0.75,-0.8 -0.75,0 -0.75,0.75 v 0.15 h -7.45 v -1.9 l 0.65,-0.25 1.05,0.25 0.55,0.15 0.5,0.6 q 0.75,0.65 1.8,0.65 L -21.65,18.45 -21,18 -20.75,17.35 Q -20.7,16.9 -20.8,16.5 l 0.75,0.1 h 0.1 0.2 q 0,0.55 0.7,1.05 m 1.4,-1.5 0.4,0.35 0.1,0.7 -0.15,0.2 -0.25,0.05 q -1.65,0 -1.75,-0.8 l 0.05,-0.15 0.35,-0.2 0.25,-0.15 h 1 m 16.05,0.55 1.2,0.15 0.15,0.7 -0.3,0.3 -0.15,0.1 -0.4,0.2 h -1.05 l -0.25,-0.1 -0.1,-0.35 0.2,-0.35 0.5,-0.45 0.2,-0.2 m -3.75,1.8 -0.25,0.4 -0.15,0.2 h -1.2 l 0.1,-0.05 -0.5,-0.65 -0.05,-0.45 1.2,-0.25 q 0.3,0 0.6,0.35 l 0.25,0.45 m -18.45,-2.75 1.6,-0.2 q 0.45,0 0.8,0.45 l 0.05,0.15 v 0.1 l -0.1,0.9 q -0.25,0.55 -1.25,0.55 -0.75,0 -1.2,-0.4 l 0.2,-0.6 -0.1,-0.7 v -0.25"
         fill="#797979"
         fill-rule="evenodd"
         stroke="none"
         id="path12" />
      <path
         d="m -24.9,-22.05 h -0.15 q -0.2,0.2 -0.5,0.2 l -0.4,-0.15 v -2.55 q 0,-1.85 -0.15,-2.85 l 0.2,-0.15 4.35,-0.2 6.9,0.05 1.2,0.05 0.1,-0.1 0.05,0.3 q 0,0.7 -0.65,0.95 -0.6,1.65 -10.95,4.45 m 6.7,-4.3 v 0.05 l -0.05,0.1 0.4,-0.15 h -0.35 m -6.65,0 v 0.05 l 0.1,-0.05 h -0.1"
         fill="#ffffff"
         fill-rule="evenodd"
         stroke="none"
         id="path13" />
    </g>
  </defs>
</svg>
