<?xml version="1.0" encoding="UTF-8" standalone="no"?>
<svg
   ffdec:objectType="frame"
   height="82.771095"
   width="103.2"
   version="1.1"
   id="svg32"
   sodipodi:docname="1.svg"
   xmlns:inkscape="http://www.inkscape.org/namespaces/inkscape"
   xmlns:sodipodi="http://sodipodi.sourceforge.net/DTD/sodipodi-0.dtd"
   xmlns:xlink="http://www.w3.org/1999/xlink"
   xmlns="http://www.w3.org/2000/svg"
   xmlns:svg="http://www.w3.org/2000/svg"
   xmlns:ffdec="https://www.free-decompiler.com/flash">
  <sodipodi:namedview
     id="namedview32"
     pagecolor="#ffffff"
     bordercolor="#000000"
     borderopacity="0.25"
     inkscape:showpageshadow="2"
     inkscape:pageopacity="0.0"
     inkscape:pagecheckerboard="0"
     inkscape:deskcolor="#d1d1d1"
     fit-margin-top="5"
     fit-margin-left="5"
     fit-margin-right="5"
     fit-margin-bottom="5" />
  <g
     transform="translate(51.6,43.1)"
     id="g14">
    <use
       ffdec:characterId="2"
       height="39"
       transform="matrix(0.7667,-0.2054,0.2054,0.7667,5.45,13.25)"
       width="38.299999"
       xlink:href="#sprite0"
       id="use1" />
    <use
       ffdec:characterId="4"
       height="23.950001"
       transform="matrix(0.2447,0.9134,-0.9133,0.2447,-21.45,8.6)"
       width="22.200001"
       xlink:href="#sprite1"
       id="use2" />
    <use
       ffdec:characterId="4"
       height="23.950001"
       transform="matrix(-0.2448,-0.9133,-0.9133,0.2448,-20.75,10.45)"
       width="22.200001"
       xlink:href="#sprite1"
       id="use3" />
    <use
       ffdec:characterId="76"
       height="78.650002"
       transform="translate(-44.85,-40.2)"
       width="90.449997"
       xlink:href="#shape2"
       id="use4" />
    <use
       ffdec:characterId="61"
       height="8.9499998"
       transform="matrix(0.8477,0,0,0.8477,-6.05,-26.45)"
       width="15.2"
       xlink:href="#sprite2"
       id="use5" />
    <use
       ffdec:characterId="61"
       height="8.9499998"
       transform="matrix(0.8477,0,0,0.8477,-6.05,-5.1)"
       width="15.2"
       xlink:href="#sprite2"
       id="use6" />
    <use
       ffdec:characterId="61"
       height="8.9499998"
       transform="matrix(0.8477,0,0,0.8477,-6.05,15.5)"
       width="15.2"
       xlink:href="#sprite2"
       id="use7" />
    <use
       ffdec:characterId="54"
       height="16.15"
       transform="translate(-51.6,-42.85)"
       width="40.75"
       xlink:href="#sprite3"
       id="use8" />
    <use
       ffdec:characterId="22"
       height="52.75"
       transform="rotate(90,10.225,16.875)"
       width="7.5999999"
       xlink:href="#sprite4"
       id="use9" />
    <use
       ffdec:characterId="50"
       height="39.349998"
       transform="matrix(0.9299,0,0,0.7337,-26.4,10.8)"
       width="16.799999"
       xlink:href="#sprite5"
       id="use10" />
    <use
       ffdec:characterId="54"
       height="16.15"
       transform="matrix(-1,0,0,1,51.6,-42.85)"
       width="40.75"
       xlink:href="#sprite3"
       id="use11" />
    <use
       ffdec:characterId="32"
       height="12.8"
       transform="translate(-13.4,-43.1)"
       width="27.049999"
       xlink:href="#sprite6"
       id="use12" />
    <use
       ffdec:characterId="50"
       height="39.349998"
       transform="matrix(-0.9299,0,0,0.7337,27.6,10.8)"
       width="16.799999"
       xlink:href="#sprite5"
       id="use13" />
    <use
       ffdec:characterId="22"
       height="52.75"
       transform="matrix(0,1,-1.332,0,35.85,-17.1)"
       width="7.5999999"
       xlink:href="#sprite4"
       id="use14" />
  </g>
  <defs
     id="defs32">
    <g
       id="sprite0">
      <use
         ffdec:characterId="1"
         height="39"
         width="38.299999"
         xlink:href="#shape0"
         id="use15" />
    </g>
    <g
       id="shape0">
      <path
         d="m 31.4,9.65 -0.35,1 q -0.5,1.85 -0.5,3.2 0,5.1 0.3,7.25 0.5,3.65 1.8,5.7 l 5.65,2.7 -0.3,0.1 -0.55,0.15 q -1.5,0 -4.5,-1.25 L 32.1,28.2 29.85,27.15 q -0.3,0.25 -2.45,0.95 -2.25,0.8 -2.95,1.4 l -1.45,1.55 -0.85,1 1.4,6.3 -0.1,0.65 h -0.2 Q 22.4,37.1 21.1,32.85 L 17.5,31.1 q -4.7,-1.8 -10.4,-2 l -0.15,0.3 -0.3,-0.15 -6.5,4 Q 0,33.45 0,32.9 3.65,30.3 6,28.65 v -0.1 Q 6,28.3 6.5,27.9 l 1.25,-3 q 1.7,-3.95 2,-5.45 l 0.5,-5 Q 10.3,13 10.5,12.05 l -3.95,-6 q 1.55,0.5 3.3,2.85 l 1,1.55 0.05,-0.1 0.3,0.45 0.35,0.15 5.65,-0.45 H 17.1 L 18.65,9.4 19.2,9.05 20.5,0 h 0.25 l 0.2,1.1 -0.5,7.5 0.35,0.2 -0.35,0.35 0.9,0.75 q 1.25,1.3 3.65,1.3 l 2.1,-0.35 0.75,-0.3 q 4.25,-4 7.05,-5.9 l 0.65,0.5 -4.15,4.5 M 20.3,11 l 0.95,1.2 q 0.9,1.35 2.8,2.1 l 2.25,-2.25 h -0.35 q -3.15,0 -5.15,-1.4 L 20.3,10.2 V 11 m 6.6,3.5 0.05,0.4 -0.7,4.3 q 0,1.3 0.5,3 0.45,1.65 1.15,2.65 l 3,1.2 -0.6,-2.3 -0.45,-4.9 q 0,-5.35 0.55,-8.15 l -2.5,2.75 -1,1.05 m -1.5,1.45 -2.1,1.85 -0.1,0.25 q -0.45,0.95 -0.45,1.55 0,0.9 0.25,1.35 l 1,1.45 -0.1,0.1 2.4,1.8 0.45,0.2 Q 26.1,23.1 25.7,20.7 25.35,18.5 25.35,16.4 l 0.05,-0.45 m -3.85,0.95 1.75,-1.85 q -1.85,-0.35 -2.95,-1.8 l -0.25,-0.4 -0.35,4.2 1.6,-0.1 0.2,-0.05 m 0.45,2 -2.15,1.55 q 0.95,-0.15 2.25,0.7 L 22,19.65 V 18.9 m -4.05,-8.25 -0.6,0.35 -0.6,0.2 q -1.85,0.65 -4.95,0.7 l 0.55,0.9 q 0.75,1.4 2.75,3.55 h 0.1 q 1.4,0 2.35,-0.9 0.6,-0.55 0.95,-0.75 l 0.45,-3.75 0.1,-0.5 -1.1,0.2 m -1.75,6.9 1.85,1.75 0.35,-3.55 -0.4,0.4 q -1,0.8 -2.15,1 l 0.35,0.4 m -4.5,-2.7 q -0.1,3.75 -1.05,6.85 -0.7,2.35 -2.2,5.15 l 1.55,-1.2 2.5,-2 0.9,-2.25 q 0,-1.15 -0.95,-4.1 L 11.7,14.85 m 1.55,1.8 q 0.6,2.45 0.6,4.3 L 13.6,22.7 v 0.1 l 0.55,-0.45 q 1.55,-1.15 3,-1.85 -1.55,-1.05 -4.1,-4.6 l 0.2,0.75 m 6.7,6.05 0.65,2.75 0.55,-0.65 1.45,-1.4 -2.75,-1.45 0.1,0.75 m -6.7,1.95 4.5,1 q 0.9,0.5 1.6,1.3 -1.35,-4.6 -1.45,-5.8 l -4.65,3.5 m 6.3,-5.7 1.05,-1.05 h -0.9 l -0.15,1.05 m 0.3,9.6 -0.1,-0.05 H 19.4 q -0.15,0.15 -0.15,-0.45 V 28 l -1.2,-1.2 Q 17.1,26.35 12.1,25.65 h -0.25 l -1.2,0.85 -2.05,1.4 q 7.35,0.8 9.55,1.95 0.5,-0.05 1.55,0.55 l 0.8,0.5 -0.55,-1.85 -0.1,-0.5 M 27.7,26.05 23.75,24 21,27.2 l 0.75,3.1 0.1,0.45 q 0.85,-1.05 2.85,-2.5 2.35,-1.7 3.85,-1.75 L 27.7,26.05"
         fill="#9a9a9a"
         fill-rule="evenodd"
         stroke="none"
         id="path15" />
    </g>
    <g
       id="sprite1">
      <use
         ffdec:characterId="3"
         height="23.950001"
         width="22.200001"
         xlink:href="#shape1"
         id="use16" />
    </g>
    <g
       id="shape1">
      <path
         d="M 22.2,1 Q 21.95,1.3 22.05,1.75 L 20.1,2.05 Q 18.7,4.2 18.7,7.45 L 18.55,8.4 21.8,9.8 V 10 l -0.45,0.15 q -2.1,0 -6.6,-1.75 -2.05,1.4 -3,3.05 -0.95,1.65 -0.95,3.85 l -0.05,0.45 1.7,2.9 L 12,19.1 10.25,16.6 10,16.7 9.55,16.2 V 16 q -4.85,0.3 -6.4,1.3 -0.3,0.15 -0.65,0.4 l -0.85,1.4 v 4.05 L 1.5,23.65 Q 1.35,23.9 0.95,23.95 L 0.3,23.3 0.25,6.15 0.3,2.85 0.4,1.75 0.15,1.5 V 1.45 L 0,0.95 Q 0,0.5 0.95,0 H 18.4 l 3.5,0.4 q -0.25,0.35 0.2,0.55 L 22.2,1 M 19.15,2.15 Q 16,3.8 13.25,5.95 L 17.65,8 17.6,7.6 q 0,-1.95 0.85,-4.05 l 0.7,-1.4 M 12,5.35 Q 14.9,3 17.2,2 h -6.35 l -1,2.2 0.35,-0.05 0.25,0.35 -0.15,0.05 1.7,0.8 m 2,2.7 -2.25,-0.9 -3.45,3.25 -0.45,0.45 2,3.35 Q 10.3,12.8 11.45,10.95 12.7,9 14,8.05 M 9.45,2 h -5.9 q 2.6,0.75 5.6,2.05 L 9.25,2.65 9.45,2 M 7.7,5.3 3.1,3 4.35,5.05 6,7.85 q 0.3,-1 1.3,-2.1 L 7.7,5.3 M 1.7,8.5 2,8.35 4.7,8.05 1.7,3.1 V 6.2 8.5 M 1.9,10 1.65,10.15 v 6 Q 3.05,13.9 6.3,10.6 L 5.4,9.15 2.85,9.35 1.9,10 M 6.6,8.75 7.15,9.75 8.1,8.8 10.5,6.6 8.5,5.7 7.7,6.75 6.6,8.75 M 3.9,15.9 Q 6.95,14.8 9.15,15 l -2.1,-3.25 q -1.9,2 -3.45,4.3 L 3.9,15.9"
         fill="#9a9a9a"
         fill-rule="evenodd"
         stroke="none"
         id="path16" />
    </g>
    <g
       id="shape2"
       transform="translate(44.85,40.2)">
      <path
         d="m -27.6,-28.2 1.35,2.4 4.1,7.55 0.35,-0.05 h 39.1 q 3.65,-0.4 5.65,0.05 l 4.1,-7.55 0.95,-1.8 1.3,-1.85 -27.2,0.35 v 0.05 H 0.4 -1.3 v -0.05 l -27.2,-0.35 0.9,1.25 m 58.85,-1.35 -0.8,1.9 -2,4.7 q -2.15,4.65 -3.5,6.35 l -0.3,0.5 -0.65,0.65 -2.25,0.4 0.25,-0.4 -4.7,-0.05 -38.9,0.1 0.15,0.3 -1.8,-0.35 q -0.5,-0.3 -0.6,-0.75 -1.35,-1.5 -3.85,-6.75 l -2.75,-6.6 q -0.95,-0.45 -1,-1.3 l 0.2,-0.85 q 0.4,-0.55 1.05,-0.45 l 30.6,0.2 30.55,-0.2 q 0.75,-0.1 1.05,0.45 l 0.25,0.85 q -0.05,0.65 -0.55,1.1 l -0.45,0.2 m 8.5,-3.65 0.5,-0.65 0.25,-0.4 0.5,-0.7 0.9,-1.2 -3.05,0.05 -38.05,0.15 H 0.4 -0.05 l -40.8,-0.2 h -0.25 l 0.05,0.15 0.8,1.05 0.15,0.15 1.1,1.55 q 3.15,4.45 5.6,9.4 l 9.15,17.75 q 5.55,10.55 6.65,19.4 0.55,4.15 0.5,13.6 l -0.1,4.65 -0.1,6.2 v 0.7 h -0.2 V 25.6 H -21 l 0.1,-3.55 Q -20.65,15 -23.55,6.2 q -1.8,-6.2 -6.4,-15.35 -5.45,-10.8 -8.8,-16.5 l -5.7,-10.65 -0.4,-1.15 q 0.15,-1.7 0.8,-1.5 0.35,-0.9 1.75,-1 19.05,-0.25 39.9,-0.15 l 2.8,-0.1 2.75,0.1 q 20.85,-0.1 39.9,0.15 1.4,0.1 1.8,1 0.6,-0.2 0.75,1.5 l -0.4,1.15 -5.7,10.65 q -3.35,5.7 -8.75,16.5 Q 26.1,0 24.3,6.2 21.4,15 21.65,22.05 L 21.8,25.1 H 18.15 V 38.45 L 18.1,37.75 18,31.55 Q 17.65,18.4 18.35,13.3 19.5,4.45 25.05,-6.1 l 9.1,-17.75 q 2.45,-4.9 5.6,-9.35 M 17.45,-5.35 17.8,-6.2 18.55,-7.65 18.45,-7.7 17.15,-7.6 17.9,-8 Q 14,-7.55 3.95,-7.9 H -10.1 q -4.75,0.25 -7.1,-0.05 l 0.2,0.3 -0.65,-0.05 -0.1,0.05 0.7,1.45 0.1,0.15 q 2.6,5.95 3.05,8.95 H 4.85 l 9.2,0.35 q 0.15,-0.5 0.7,-0.75 0.5,-2.85 2.7,-7.85 m 1.9,-5.5 0.95,0.25 q 0.7,-0.65 0.7,1.3 -0.1,-0.05 -2.1,7.1 L 16.85,3.7 V 3.85 L 16.7,4.55 16.6,4.9 Q 16.45,5.45 15.65,5.75 L 14.4,6.1 14.55,5.8 4.85,6.15 H -14.1 Q -15.25,5.9 -15.6,5.5 l -0.3,-1 0.05,-0.3 q -0.9,-1.85 -2.3,-6.4 l -2.1,-7.1 q 0,-1.95 0.7,-1.3 l 0.95,-0.25 0.45,0.1 8.05,-0.45 H 3.95 q 11.6,-0.35 15,0.4 H 19 l 0.35,-0.05 m -33.9,25.75 v -2.1 l -0.3,-0.9 q 0.05,-0.75 0.65,-0.95 l 0.9,-0.2 q 1.25,-0.75 4.6,-0.6 H 8.65 q 5.2,-0.3 6.4,0.85 0.5,0.2 0.55,0.9 0.05,0.6 -0.25,0.9 l 0.2,10.85 0.4,3.05 -0.15,1.05 q -0.25,1.05 -1.2,1.05 -0.9,0 -1.15,-0.55 L 11.8,28.4 2.1,28.95 v 0.1 L 0.4,29 -1.3,29.05 v -0.1 l -8,-0.4 -1.75,-0.15 -1.65,-0.15 q -0.25,0.55 -1.15,0.55 -0.95,0 -1.2,-1.05 l -0.1,-0.85 -0.05,-0.2 0.4,-3.05 0.25,-8 V 14.9 M 13,16.1 12.8,13.6 H 12.45 8.65 -8.7 l -1.2,0.1 -1.9,-0.1 H -12 l -0.25,2.5 -0.25,2 0.05,8 h 0.5 L -1.3,26 h 3.4 l 10.6,0.1 h 0.5 l 0.15,-8 -0.35,-2 m -25.3,22.35 -0.05,-0.55 -0.1,-0.15 -0.45,-0.95 q 0.05,-1.35 2.5,-1.2 h 1.1 q 2.7,-0.2 4.4,-1.75 1.05,-1.75 1.9,-2.05 l 1.65,-0.15 V 31.6 L 0.4,31.65 2.1,31.6 v 0.05 l 1.65,0.15 q 0.85,0.3 1.9,2.05 2.1,1.85 5.5,1.75 2.45,-0.15 2.5,1.2 l -0.45,0.95 -0.1,0.15 v 0.55 H 6.65 Q 5.35,38.15 4.45,37.3 3.6,36.75 2.9,35.3 3.15,34.25 2.55,34.35 H 2.1 v 0.2 l -1.7,-0.1 -1.7,0.1 v -0.2 h -0.45 q -0.6,-0.1 -0.4,0.95 -0.7,1.45 -1.5,2 -0.9,0.85 -2.2,1.15 h -6.45"
         fill="#6b6b6b"
         fill-rule="evenodd"
         stroke="none"
         id="path17" />
      <path
         d="m 28,-27.6 -41.9,-0.1 -13.7,-0.5 -0.9,-1.25 27.2,0.35 v 0.05 h 1.7 1.7 v -0.05 l 27.2,-0.35 -1.3,1.85 m -44.95,21.55 -0.1,-0.15 -0.7,-1.45 0.1,-0.05 0.65,0.05 -0.2,-0.3 q 2.35,0.3 7.1,0.05 H 3.95 Q 14,-7.55 17.9,-8 l -0.75,0.4 1.3,-0.1 0.1,0.05 -0.75,1.45 -0.35,0.85 h -27.1 l -7.3,-0.7 m 2.4,21.7 -0.25,-0.35 0.25,-0.4 v 0.75 m 2.3,0.45 0.25,-2.5 h 0.2 l 1.9,0.1 1.2,-0.1 h 17.35 3.8 0.35 l 0.2,2.5 -0.95,0.25 -8.5,0.05 q -11.1,0 -15.3,-0.3 h -0.2 -0.3"
         fill="#7b7b7b"
         fill-rule="evenodd"
         stroke="none"
         id="path18" />
      <path
         d="m 28,-27.6 -0.95,1.8 -4.1,7.55 q -2,-0.45 -5.65,-0.05 h -39.1 l -0.35,0.05 -4.1,-7.55 -1.35,-2.4 13.7,0.5 41.9,0.1 m 3.25,-1.95 0.45,-0.2 q 0.5,-0.45 0.55,-1.1 L 32,-31.7 q -0.3,-0.55 -1.05,-0.45 l -30.55,0.2 -30.6,-0.2 q -0.65,-0.1 -1.05,0.45 l -0.2,0.85 q 0.05,0.85 1,1.3 l 2.75,6.6 q 2.5,5.25 3.85,6.75 0.1,0.45 0.6,0.75 l 1.8,0.35 -0.15,-0.3 38.9,-0.1 4.7,0.05 -0.25,0.4 2.25,-0.4 0.65,-0.65 0.3,-0.5 q 1.35,-1.7 3.5,-6.35 l 2,-4.7 0.8,-1.9 m 8.5,-3.65 q -3.15,4.45 -5.6,9.35 L 25.05,-6.1 Q 19.5,4.45 18.35,13.3 17.65,18.4 18,31.55 l 0.1,6.2 0.05,0.7 H 13.1 V 37.9 l 0.1,-0.15 0.45,-0.95 Q 13.6,35.45 11.15,35.6 7.75,35.7 5.65,33.85 4.6,32.1 3.75,31.8 L 2.1,31.65 V 31.6 L 0.4,31.65 -1.35,31.6 v 0.05 L -3,31.8 q -0.85,0.3 -1.9,2.05 -1.7,1.55 -4.4,1.75 h -1.1 q -2.45,-0.15 -2.5,1.2 l 0.45,0.95 0.1,0.15 0.05,0.55 h -5 v -0.7 l 0.1,-6.2 0.1,-4.65 q 0.05,-9.45 -0.5,-13.6 -1.1,-8.85 -6.65,-19.4 l -9.15,-17.75 q -2.45,-4.95 -5.6,-9.4 l 2.65,-0.1 76.1,0.15 m -56.7,27.15 7.3,0.7 h 27.1 q -2.2,5 -2.7,7.85 -0.55,0.25 -0.7,0.75 L 4.85,2.9 H -13.9 q -0.45,-3 -3.05,-8.95 m 2.4,21.7 -0.25,8 -0.4,3.05 0.05,0.2 0.1,0.85 q 0.25,1.05 1.2,1.05 0.9,0 1.15,-0.55 l 1.65,0.15 1.75,0.15 8,0.4 v 0.1 L 0.4,29 2.1,29.05 v -0.1 l 9.7,-0.55 1.65,-0.15 q 0.25,0.55 1.15,0.55 0.95,0 1.2,-1.05 L 15.95,26.7 15.55,23.65 15.35,12.8 Q 15.65,12.5 15.6,11.9 15.55,11.2 15.05,11 13.85,9.85 8.65,10.15 H -8.7 q -3.35,-0.15 -4.6,0.6 l -0.9,0.2 q -0.6,0.2 -0.65,0.95 l 0.3,0.9 v 2.1 l -0.25,0.4 0.25,0.35 m 33.9,-26.5 -0.35,0.05 h -0.05 q -3.4,-0.75 -15,-0.4 H -10.1 l -8.05,0.45 -0.45,-0.1 -0.95,0.25 q -0.7,-0.65 -0.7,1.3 l 2.1,7.1 q 1.4,4.55 2.3,6.4 l -0.05,0.3 0.3,1 q 0.35,0.4 1.5,0.65 H 4.85 L 14.55,5.8 14.4,6.1 15.65,5.75 q 0.8,-0.3 0.95,-0.85 l 0.1,-0.35 0.15,-0.7 V 3.7 l 2.05,-5.9 q 2,-7.15 2.1,-7.1 0,-1.95 -0.7,-1.3 l -0.95,-0.25 m -31.6,26.95 h 0.3 0.2 q 4.2,0.3 15.3,0.3 l 8.5,-0.05 0.95,-0.25 0.35,2 -0.15,8 H 12.7 L 2.1,26 h -3.4 l -10.65,0.1 h -0.5 l -0.05,-8 0.25,-2"
         fill="#727272"
         fill-rule="evenodd"
         stroke="none"
         id="path19" />
      <path
         d="m -39,-33.25 -1.1,-1.55 -0.15,-0.15 -0.8,-1.05 -0.05,-0.15 h 0.25 l 40.8,0.2 H 0.4 0.8 l 38.05,-0.15 3.05,-0.05 -0.9,1.2 -0.5,0.7 -0.25,0.4 -0.5,0.65 -76.1,-0.15 -2.65,0.1"
         fill="#878787"
         fill-rule="evenodd"
         stroke="none"
         id="path20" />
    </g>
    <g
       id="sprite2">
      <use
         ffdec:characterId="60"
         height="8.9499998"
         width="15.2"
         xlink:href="#shape3"
         id="use20" />
    </g>
    <g
       id="shape3">
      <path
         d="M 13.2,2.05 H 13 L 12.5,2.2 q -0.4,0 -0.75,-0.35 -0.4,-0.4 -0.75,-0.4 -0.6,0 -1.15,0.4 0.5,0.45 0.7,1.25 l 2.3,0.15 q 2.35,0.9 2.35,2.4 L 15.05,6.35 14.6,6.75 13.5,5.6 q -0.75,-0.85 -2.05,-0.85 -0.35,0 -0.65,0.3 l -0.1,0.6 0.25,0.1 q 1.45,0.6 1.45,1.2 v 1.1 q -0.2,0.9 -0.9,0.9 L 11.05,8.9 11.15,8.8 11,8.5 Q 11.6,7 10.2,6.65 H 10.15 Q 9.45,7.25 8.05,7.3 H 7.8 7.6 7.4 7.15 Q 6,7.15 5.3,6.6 L 5,6.65 Q 3.6,7 4.2,8.5 L 4.05,8.8 4.15,8.9 3.7,8.95 Q 3,8.95 2.8,8.05 v -1.1 q 0,-0.6 1.45,-1.2 L 4.7,5.6 4.65,5.2 4.55,5.15 Q 4.15,4.75 3.75,4.75 2.45,4.75 1.7,5.6 L 0.6,6.75 0.15,6.35 Q 0,6.15 0,5.65 0,4.15 2.35,3.25 L 4.65,3.1 Q 4.85,2.3 5.35,1.85 4.8,1.45 4.2,1.45 3.85,1.45 3.45,1.85 L 2.7,2.2 Q 1.95,2.2 2.2,2.05 H 2 L 1.95,1.55 q 0,-1.9 2.65,-1.45 1.5,0.3 2.35,1.15 h 0.6 0.1 0.6 Q 9.1,0.4 10.6,0.1 q 2.65,-0.45 2.65,1.45 l -0.05,0.5"
         fill="#6b6b6b"
         fill-rule="evenodd"
         stroke="none"
         id="path21" />
    </g>
    <g
       id="sprite3">
      <use
         ffdec:characterId="53"
         height="16.15"
         width="40.75"
         xlink:href="#shape4"
         id="use21" />
    </g>
    <g
       id="shape4">
      <path
         d="M 40.6,3.4 H 40.4 L 39.5,3.55 39.4,3.6 Q 38.8,3.75 38.45,4.2 L 38.4,4.35 38.3,4.6 38.15,4.9 31.55,4.95 31.2,4.75 Q 28.75,3.35 27.95,3.35 25.5,3.45 23.5,4.9 L 23.45,4.95 12.1,5 11.9,4.95 10.6,5 H 8 Q 6.35,6.35 5.75,7.5 5.2,8.5 5.2,9.9 q 0,0.45 0.55,1.3 l 0.5,1 -0.2,0.6 Q 4.1,12.45 3.45,11.15 3.15,10.6 3.15,8.9 3.15,6.6 5.55,4.6 L 6.55,3.7 7.4,2.9 H 40.6 V 3.4 M 9.55,9.65 9.2,9.35 9.15,9.3 9.05,9.2 8.8,8.35 8.9,7.9 Q 9.15,7.25 10.2,7.05 h 2.3 l 0.5,0.3 -0.3,1.4 q -0.6,1.2 -1.85,1.2 l -1.3,-0.3"
         fill="#7b7b7b"
         fill-rule="evenodd"
         stroke="none"
         id="path22" />
      <path
         d="m 40.6,9.8 -0.4,0.1 -20.9,0.2 -0.6,0.2 h -1.75 l -0.9,1 -0.4,0.35 q -0.35,1.3 -1.1,2.15 L 14.35,14 14.3,14.15 Q 12.85,15.8 10.1,16.1 L 8.95,16.15 H 8 6.9 5.55 l -1.3,-0.3 Q 2.65,15.5 0.25,12.1 L 0,8.5 Q 0,7.6 0.3,6.65 0.55,5.2 1.25,3.95 2.4,1.8 4.55,0.8 4.7,0.45 5.25,0.4 L 5.85,0.3 6.35,0.2 6.55,0.25 6.6,0.3 12.65,0 H 40.6 V 2.9 H 7.4 l -0.85,0.8 -1,0.9 q -2.4,2 -2.4,4.3 0,1.7 0.3,2.25 0.65,1.3 2.6,1.65 L 7.6,12.9 11,12.85 12.85,11 q 0.7,-1.1 0.7,-1.9 L 13.5,7.95 13.3,7.65 13,7.35 12.5,7.05 H 10.2 Q 9.15,7.25 8.9,7.9 L 8.8,8.35 9.05,9.2 v 0.05 l 0.1,0.05 0.05,0.05 0.35,0.3 0.5,0.35 v 0.3 l -0.8,0.3 Q 8,10.7 7.7,9.95 L 7.6,8.85 q 0,-1.25 0.6,-2 0.5,-1.15 1.9,-1.7 L 10.6,5 11.9,4.95 12.1,5 q 1.15,0.3 2.35,1.25 L 15.3,7 15.55,7.15 15.9,7.05 Q 16.45,7.6 17.1,7.6 L 20.1,7.55 23.3,5 23.45,4.95 23.5,4.9 q 2,-1.45 4.45,-1.55 0.8,0 3.25,1.4 l 0.35,0.2 0.8,0.5 q 3.2,1.95 6.05,2.1 h 0.45 0.25 L 38.4,6.85 38.35,6.75 38.05,5.7 38.15,4.9 38.3,4.6 38.4,4.35 38.45,4.2 Q 38.8,3.75 39.4,3.6 L 39.5,3.55 40.4,3.4 h 0.2 V 9.45 9.8 m -6.65,-1.75 -1.5,-1 Q 30.35,5.3 28.8,4.95 L 27.95,4.8 26.75,4.95 H 26.7 Q 24.8,5.3 23.05,6.8 L 21.5,8.05 21.25,8.25 34.7,8.4 33.95,8.05"
         fill="#6b6b6b"
         fill-rule="evenodd"
         stroke="none"
         id="path23" />
      <path
         d="M 40.6,9.8 V 9.45 h 0.15 V 9.7 L 40.7,9.75 40.6,9.8 m -2.45,-4.9 -0.1,0.8 0.3,1.05 0.05,0.1 0.7,0.7 H 38.85 38.4 Q 35.55,7.4 32.35,5.45 l -0.8,-0.5 6.6,-0.05 M 23.45,4.95 23.3,5 20.1,7.55 17.1,7.6 q -0.65,0 -1.2,-0.55 L 15.55,7.15 15.3,7 14.45,6.25 Q 13.25,5.3 12.1,5 L 23.45,4.95 M 10.6,5 10.1,5.15 Q 8.7,5.7 8.2,6.85 7.6,7.6 7.6,8.85 l 0.1,1.1 Q 8,10.7 9.25,10.6 l 0.8,-0.3 V 10 l -0.5,-0.35 1.3,0.3 q 1.25,0 1.85,-1.2 l 0.3,-1.4 0.3,0.3 0.2,0.3 0.05,1.15 q 0,0.8 -0.7,1.9 L 11,12.85 7.6,12.9 6.05,12.8 l 0.2,-0.6 -0.5,-1 Q 5.2,10.35 5.2,9.9 5.2,8.5 5.75,7.5 6.35,6.35 8,5 h 2.6 M 33.95,8.05 34.7,8.4 21.25,8.25 21.5,8.05 23.05,6.8 Q 24.8,5.3 26.7,4.95 h 0.05 l 1.2,-0.15 0.85,0.15 q 1.55,0.35 3.65,2.1 l 1.5,1"
         fill="#727272"
         fill-rule="evenodd"
         stroke="none"
         id="path24" />
    </g>
    <g
       id="sprite4">
      <use
         ffdec:characterId="21"
         height="52.75"
         width="7.5999999"
         xlink:href="#shape5"
         id="use24" />
    </g>
    <g
       id="shape5">
      <path
         d="M 7.6,1.45 7.55,2.95 V 20.3 H 7.6 q 0.05,1.05 -0.3,2.1 L 7.1,22.85 Q 6.6,24.5 6.7,26.3 v 0.15 q -0.1,1.8 0.4,3.45 l 0.2,0.45 q 0.35,1.05 0.3,2.1 H 7.55 V 49.8 L 7.6,51.3 Q 7.4,52.55 6.35,52.55 H 6.3 l -1.6,0.2 -4.15,-0.5 Q 0.25,52.1 0.2,51.55 L 0,50.75 0.05,50.25 v -17.8 q 1.15,-3.05 1,-6.15 0.1,-3 -1,-6 V 2.5 L 0,2 0.2,1.2 Q 0.25,0.65 0.55,0.5 L 4.7,0 6.3,0.2 H 6.35 Q 7.4,0.2 7.6,1.45 M 4.8,10.5 2.6,10.45 V 11.5 H 4.1 L 4.8,11.45 V 10.5 M 3.6,2.75 2.6,2.65 V 9 H 4.8 V 8.75 Q 4.9,5.2 5.15,3.2 L 4.5,2.75 H 3.6 M 4.8,17 V 12.7 L 2.6,12.65 v 7.65 q 0.4,3 0.35,6 v 0.15 q 0.05,3 -0.35,6 v 7.65 l 2.2,-0.05 v -4.3 -3.3 Q 4.45,29.05 4.6,26.3 4.45,23.6 4.8,20.3 V 17 M 2.6,43.75 V 50.1 L 3.6,50 H 4.5 Q 4.7,49.65 5.15,49.55 4.9,47.55 4.8,44 V 43.75 H 2.6 m 2.2,-1.5 V 41.3 L 4.1,41.25 H 2.6 v 1.05 l 2.2,-0.05"
         fill="#6b6b6b"
         fill-rule="evenodd"
         stroke="none"
         id="path25" />
      <path
         d="M 3.6,2.75 H 4.5 L 5.15,3.2 Q 4.9,5.2 4.8,8.75 V 9 H 2.6 V 2.65 l 1,0.1 m 1.2,7.75 v 0.95 L 4.1,11.5 H 2.6 v -1.05 l 2.2,0.05 m 0,31.75 -2.2,0.05 v -1.05 h 1.5 l 0.7,0.05 v 0.95 m -2.2,1.5 H 4.8 V 44 Q 4.9,47.55 5.15,49.55 4.7,49.65 4.5,50 H 3.6 l -1,0.1 V 43.75 M 4.8,17 v 3.3 q -0.35,3.3 -0.2,6 -0.15,2.75 0.2,6.15 v 3.3 4.3 L 2.6,40.1 v -7.65 q 0.4,-3 0.35,-6 V 26.3 Q 3,23.3 2.6,20.3 V 12.65 L 4.8,12.7 V 17"
         fill="#727272"
         fill-rule="evenodd"
         stroke="none"
         id="path26" />
    </g>
    <g
       id="sprite5">
      <use
         ffdec:characterId="49"
         height="39.349998"
         width="16.799999"
         xlink:href="#shape6"
         id="use26" />
    </g>
    <g
       id="shape6">
      <path
         d="m 15.55,36.25 v 1.1 0.35 0.05 0.3 H 15.5 l -0.2,0.55 -0.2,0.25 q -0.35,0.35 -0.8,0.35 h -0.15 -0.1 -0.3 l -3.45,0.15 q -1.25,0 -1.75,-0.55 L 8.1,38.05 H 7.9 l -0.1,-0.6 v -0.2 -2 -0.2 -0.4 H 7.9 V 33.8 H 7.8 L 7.9,33.7 Q 7.55,32.4 7.5,29.75 7.45,24.1 6.45,22.8 L 1.8,17 1.5,16.65 1.25,16.25 0.75,15.2 0.6,14.65 0.55,14.25 0.4,13.3 0,11.05 Q 0,8.9 1.25,4.95 1.95,2.65 2.65,1.6 2.65,0.85 3.5,0.55 L 4.2,0.35 4.8,0.3 10,0.1 12.75,0 q 2.05,-0.05 3.15,0.65 0.85,0.55 0.85,1 v 0.6 l -0.05,0.6 v 27.2 l -0.35,4.75 -0.25,0.1 -0.4,0.15 h -0.15 v 0.2 1 M 10.9,3.15 10.05,5.8 Q 9,9.5 9,11.4 q 0,3.8 1.4,6.85 1.85,3.9 2.55,8.35 V 33 H 13.5 V 19.4 q -0.55,-4.5 -0.7,-8.65 -0.15,-5 0.65,-7.55 h -0.7 L 10.9,3.15 M 9.2,3.15 4.7,2.9 H 4.55 V 3 L 3.75,4.9 Q 2.4,8.1 2.4,10.75 q 0,2.8 1.7,4.65 4,4.4 5.2,6.3 0.9,1.35 1.05,5.05 l -0.05,5.7 V 33 l 1.95,-0.1 Q 12.05,31.35 12,28.75 11.9,24.8 11.4,22.9 10.2,18.3 8.85,15.9 8.15,14.7 8.15,11.4 8.15,7 8.35,5.65 8.6,4.1 9.2,3.15"
         fill="#6b6b6b"
         fill-rule="evenodd"
         stroke="none"
         id="path27" />
      <path
         d="m 15.7,35.05 v 0.05 l -0.15,1.15 v -1 -0.2 H 15.7 M 10.9,3.15 12.75,3.2 h 0.7 q -0.8,2.55 -0.65,7.55 0.15,4.15 0.7,8.65 V 33 H 12.95 V 26.6 Q 12.25,22.15 10.4,18.25 9,15.2 9,11.4 9,9.5 10.05,5.8 L 10.9,3.15"
         fill="#727272"
         fill-rule="evenodd"
         stroke="none"
         id="path28" />
      <path
         d="M 9.2,3.15 Q 8.6,4.1 8.35,5.65 8.15,7 8.15,11.4 q 0,3.3 0.7,4.5 1.35,2.4 2.55,7 0.5,1.9 0.6,5.85 0.05,2.6 0.25,4.15 L 10.3,33 v -0.55 l 0.05,-5.7 Q 10.2,23.05 9.3,21.7 8.1,19.8 4.1,15.4 2.4,13.55 2.4,10.75 2.4,8.1 3.75,4.9 L 4.55,3 V 2.9 H 4.7 l 4.5,0.25"
         fill="#7b7b7b"
         fill-rule="evenodd"
         stroke="none"
         id="path29" />
    </g>
    <g
       id="sprite6">
      <use
         ffdec:characterId="31"
         height="12.8"
         width="27.049999"
         xlink:href="#shape7"
         id="use29" />
    </g>
    <g
       id="shape7">
      <path
         d="m 26.4,1.15 q 0.65,1.5 0.65,5.5 V 9.6 l -0.35,2.05 -0.7,1 -0.5,0.15 -0.35,-0.05 H 1.9 L 1.55,12.8 1.05,12.65 Q 0.6,12.4 0.35,11.65 0.1,10.85 0,9.6 V 6.65 q 0,-4 0.65,-5.5 l 0.2,-0.5 Q 1.15,0.35 2,0 h 23.05 q 0.85,0.35 1.15,0.65 l 0.2,0.5 M 23.95,5.3 24,4.75 V 4.2 L 24.05,3.65 24.15,2.8 H 2.9 L 3,3.65 3.05,4.2 V 4.75 L 3.1,5.3 v 1.35 0.4 H 5.55 Q 6.45,6.15 7.45,5.6 8.8,4.8 10.3,4.6 h 0.2 l 1.45,-0.05 h 0.35 3.6 l 0.85,0.05 q 1.5,0.2 2.85,1 1,0.55 1.9,1.45 h 2.45 V 6.65 5.3 m 0,3.2 L 12.3,8.6 H 11.85 L 3.1,8.5 V 9.8 10 H 23.95 V 9.8 8.5 M 12.3,5.8 H 12 11.1 10.5 V 5.9 Q 9.45,6.2 8.4,7.05 H 18.65 Q 17.25,5.95 15.9,5.8 L 13.75,5.75 12.3,5.8"
         fill="#6b6b6b"
         fill-rule="evenodd"
         stroke="none"
         id="path30" />
      <path
         d="m 23.95,5.3 -2,0.25 L 19.6,5.6 Q 18.25,4.8 16.75,4.6 L 15.9,4.55 H 12.3 11.95 L 10.5,4.6 H 10.3 Q 8.8,4.8 7.45,5.6 L 5.1,5.55 3.1,5.3 3.05,4.75 V 4.2 L 3,3.65 2.9,2.8 H 24.15 L 24.05,3.65 24,4.2 V 4.75 L 23.95,5.3"
         fill="#7b7b7b"
         fill-rule="evenodd"
         stroke="none"
         id="path31" />
      <path
         d="m 19.6,5.6 2.35,-0.05 2,-0.25 v 1.35 0.4 H 21.5 Q 20.6,6.15 19.6,5.6 M 3.1,5.3 5.1,5.55 7.45,5.6 q -1,0.55 -1.9,1.45 H 3.1 V 6.65 5.3 M 23.95,8.5 V 9.8 10 H 3.1 V 9.8 8.5 l 8.75,0.1 H 12.3 L 23.95,8.5 M 12.3,5.8 13.75,5.75 15.9,5.8 q 1.35,0.15 2.75,1.25 H 8.4 Q 9.45,6.2 10.5,5.9 V 5.8 h 0.6 0.9 0.3"
         fill="#727272"
         fill-rule="evenodd"
         stroke="none"
         id="path32" />
    </g>
  </defs>
</svg>
