<?xml version="1.0" encoding="UTF-8" standalone="no"?>
<svg
   ffdec:objectType="frame"
   height="57.5"
   width="28.5"
   version="1.1"
   id="svg6"
   sodipodi:docname="1.svg"
   xmlns:inkscape="http://www.inkscape.org/namespaces/inkscape"
   xmlns:sodipodi="http://sodipodi.sourceforge.net/DTD/sodipodi-0.dtd"
   xmlns:xlink="http://www.w3.org/1999/xlink"
   xmlns="http://www.w3.org/2000/svg"
   xmlns:svg="http://www.w3.org/2000/svg"
   xmlns:ffdec="https://www.free-decompiler.com/flash">
  <sodipodi:namedview
     id="namedview6"
     pagecolor="#ffffff"
     bordercolor="#000000"
     borderopacity="0.25"
     inkscape:showpageshadow="2"
     inkscape:pageopacity="0.0"
     inkscape:pagecheckerboard="0"
     inkscape:deskcolor="#d1d1d1"
     fit-margin-top="5"
     fit-margin-left="5"
     fit-margin-right="5"
     fit-margin-bottom="5" />
  <g
     transform="translate(14.25,28.75)"
     id="g1">
    <use
       ffdec:characterId="2181"
       height="57.5"
       transform="translate(-14.25,-28.75)"
       width="28.5"
       xlink:href="#shape0"
       id="use1" />
  </g>
  <defs
     id="defs6">
    <g
       id="shape0"
       transform="translate(14.25,28.75)">
      <path
         d="M 4.65,-26.3 H 7.8 q 2.85,1.95 2.85,3.55 0,0.65 -0.5,1.4 L 8.9,-19.7 6.65,-18.4 5.5,-17.8 5.05,-18.65 4.4,-19.35 Q 3.6,-19.95 2.6,-20 v -0.2 l -0.3,-1.15 q -0.35,-0.8 -0.35,-1.2 0,-1.3 0.25,-1.65 0.4,-0.75 2.45,-2.1 m -4.05,16.15 1.15,0.1 0.3,0.6 q 0.4,0.55 0.4,1.15 -0.05,4.05 -2.4,4.05 -1.55,0 -2.85,-1.25 l -0.8,-0.95 0.15,-0.8 -0.1,-0.35 0.05,-0.4 -0.05,-0.1 q 0,-1.95 1.25,-2.4 l 0.15,-0.3 v 0.25 l 1.45,-0.05 1.3,0.45 m 5.25,-5.5 V -16.1 H 6 q 3.85,0 5.35,2 0.95,1.3 0.95,3.7 l -0.1,0.9 q -0.4,0.6 -1.8,0.8 H 6.3 l -1.25,-1.4 -0.3,-0.4 -0.4,-0.5 0.7,-0.95 0.25,-0.6 q 0.55,-1.35 0.55,-3.1 M 0.5,7.2 0.45,7.15 h 0.1 L 0.5,7.2 m -4.65,-28.55 q 1.7,0 2.95,1 l 1.15,0.95 -1.95,1.45 q -1.35,1.55 -1.45,3.5 l -2.15,-0.6 q -3.5,-0.75 -3.5,-2.25 0.05,-1 0.7,-2 1.25,-2.05 4.25,-2.05"
         fill="#e0e0e0"
         fill-rule="evenodd"
         stroke="none"
         id="path1" />
      <path
         d="m 1.5,-27.2 q 1.8,-1.55 4.45,-1.55 2.6,0 4.45,1.5 2.05,1.65 2.05,4.4 0,1.3 -1.65,3.75 l -1.35,1.7 0.25,0.1 q 4.55,2.45 4.55,7.2 0,1.7 -0.6,2.3 -1.15,1.15 -5.4,1.15 -1.8,0 -3.2,-0.7 l -0.35,-0.2 -0.05,0.6 q 0,1.25 -1,2.9 l -0.2,0.4 1.1,0.9 0.5,0.4 Q 6.9,-1 7.55,-0.05 8.9,1.85 8.9,5.2 8.9,7.9 8.25,9.85 l -0.95,2 H 9.2 L 9.65,11.7 q 1.4,-0.05 1.4,4.4 l -0.05,1.4 -0.15,0.55 0.05,0.3 q 0,1.65 -3.3,1.45 l 0.05,0.65 -0.9,2.9 q -0.9,2.6 -0.9,3.35 l 0.1,1.1 q -0.15,0.45 -0.9,0.75 l -0.65,0.2 h -12 Q -8.95,28.4 -9.15,27.8 l 0.1,-1.1 q 0,-0.75 -0.9,-3.35 l -0.9,-2.9 0.05,-0.65 q -3.3,0.2 -3.3,-1.45 l 0.05,-0.3 -0.15,-0.55 -0.05,-1.4 q 0,-4.45 1.4,-4.4 0.25,0 0.45,0.15 h 1.55 l -0.1,-0.15 q -1.3,-2 -1.3,-3.65 0,-4.8 1.5,-6.85 l 2.85,-3.15 q 1.85,-2.25 1.75,-3.65 -0.25,-3.1 2.3,-6.75 -3.9,-0.05 -5.95,-1.9 -1.45,-1.25 -1.45,-2.35 0,-5.7 6.25,-6.55 l 4.25,0.4 0.2,0.1 q 0.1,-2.7 1.85,-4.35 l 0.2,-0.2 m 3.15,0.9 q -2.05,1.35 -2.45,2.1 -0.25,0.35 -0.25,1.65 0,0.4 0.35,1.2 l 0.3,1.15 v 0.2 q 1,0.05 1.8,0.65 l 0.65,0.7 0.45,0.85 1.15,-0.6 2.25,-1.3 1.25,-1.65 q 0.5,-0.75 0.5,-1.4 0,-1.6 -2.85,-3.55 H 4.65 m -3.7,8.6 q -2.55,-0.2 -2.55,1.9 0,1.15 0.85,2.1 0.9,1.05 2.3,1.05 1.9,0 1.9,-2.9 0,-2 -2.5,-2.15 m 4.9,2.05 q 0,1.75 -0.55,3.1 l -0.25,0.6 -0.7,0.95 0.4,0.5 0.3,0.4 1.25,1.4 h 4.1 q 1.4,-0.2 1.8,-0.8 l 0.1,-0.9 q 0,-2.4 -0.95,-3.7 -1.5,-2 -5.35,-2 H 5.85 v 0.45 m -5.25,5.5 -1.3,-0.45 -1.45,0.05 v -0.25 l -0.15,0.3 q -1.25,0.45 -1.25,2.4 l 0.05,0.1 -0.05,0.4 0.1,0.35 -0.15,0.8 0.8,0.95 q 1.3,1.25 2.85,1.25 2.35,0 2.4,-4.05 0,-0.6 -0.4,-1.15 l -0.3,-0.6 -1.15,-0.1 m 1.3,7.95 -0.85,0.35 -0.8,0.05 q -2.6,0 -4.35,-2.05 -0.7,2.1 -2.5,4.65 -2.55,3.5 -2.55,5.7 0,2.7 2.35,4.35 0.8,0.55 1.3,1 h 0.05 l 0.55,0.1 h 6.6 l 0.55,-0.1 H 2.5 l 1.55,-1.75 1,-1.3 Q 6.3,6.9 6.3,5.05 6.3,3.75 5.05,2.1 l -3,-3 -1,-0.9 0.85,-0.4 M 8.3,16.1 V 14.8 H 2.25 L 1.7,14.7 h -6.6 l -0.55,0.1 h -6.05 v 1.3 1.05 h 1.35 l 0.5,0.05 h 16.1 l 0.5,-0.05 H 8.3 V 16.1 M 4.7,19.65 H -7.9 l 0.25,0.7 0.5,2.45 0.5,2.6 0.1,0.35 4.15,0.05 h 0.8 0.85 l 4.1,-0.05 0.1,-0.35 0.5,-2.6 0.5,-2.45 0.25,-0.7 m -8.85,-41 q -3,0 -4.25,2.05 -0.65,1 -0.7,2 0,1.5 3.5,2.25 l 2.15,0.6 q 0.1,-1.95 1.45,-3.5 l 1.95,-1.45 -1.15,-0.95 q -1.25,-1 -2.95,-1"
         fill="#6b6b6b"
         fill-rule="evenodd"
         stroke="none"
         id="path2" />
      <path
         d="m 1.9,-2.2 -0.85,0.4 1,0.9 3,3 Q 6.3,3.75 6.3,5.05 6.3,6.9 5.05,8.8 l -1,1.3 -1.55,1.75 H 2.25 l -0.55,0.1 h -6.6 l -0.55,-0.1 H -5.5 Q -6,11.4 -6.8,10.85 -9.15,9.2 -9.15,6.5 q 0,-2.2 2.55,-5.7 1.8,-2.55 2.5,-4.65 1.75,2.05 4.35,2.05 L 1.05,-1.85 1.9,-2.2 M 0.5,7.2 0.55,7.15 H 0.45 L 0.5,7.2 m -2.25,1.75 h 0.1 L -1.5,8.9 h -0.25 v 0.05"
         fill="#90a78d"
         fill-rule="evenodd"
         stroke="none"
         id="path3" />
      <path
         d="m 0.95,-17.7 q 2.5,0.15 2.5,2.15 0,2.9 -1.9,2.9 -1.4,0 -2.3,-1.05 -0.85,-0.95 -0.85,-2.1 0,-2.1 2.55,-1.9"
         fill="#cecbac"
         fill-rule="evenodd"
         stroke="none"
         id="path4" />
      <path
         d="m 8.3,16.1 v 1.05 H 6.95 l -0.5,0.05 h -16.1 l -0.5,-0.05 H -11.5 V 16.1 14.8 h 6.05 l 0.55,-0.1 h 6.6 l 0.55,0.1 H 8.3 v 1.3"
         fill="#a69c8d"
         fill-rule="evenodd"
         stroke="none"
         id="path5" />
      <path
         d="m 4.7,19.65 -0.25,0.7 -0.5,2.45 -0.5,2.6 -0.1,0.35 -4.1,0.05 H -1.6 -2.4 l -4.15,-0.05 -0.1,-0.35 -0.5,-2.6 -0.5,-2.45 -0.25,-0.7 H 4.7"
         fill="#948a7c"
         fill-rule="evenodd"
         stroke="none"
         id="path6" />
    </g>
  </defs>
</svg>
