<?xml version="1.0" encoding="UTF-8" standalone="no"?>
<svg
   ffdec:objectType="frame"
   height="110.55"
   width="48.849998"
   version="1.1"
   id="svg7"
   sodipodi:docname="1.svg"
   xmlns:inkscape="http://www.inkscape.org/namespaces/inkscape"
   xmlns:sodipodi="http://sodipodi.sourceforge.net/DTD/sodipodi-0.dtd"
   xmlns:xlink="http://www.w3.org/1999/xlink"
   xmlns="http://www.w3.org/2000/svg"
   xmlns:svg="http://www.w3.org/2000/svg"
   xmlns:ffdec="https://www.free-decompiler.com/flash">
  <sodipodi:namedview
     id="namedview7"
     pagecolor="#ffffff"
     bordercolor="#000000"
     borderopacity="0.25"
     inkscape:showpageshadow="2"
     inkscape:pageopacity="0.0"
     inkscape:pagecheckerboard="0"
     inkscape:deskcolor="#d1d1d1"
     fit-margin-top="5"
     fit-margin-left="5"
     fit-margin-right="5"
     fit-margin-bottom="5" />
  <g
     transform="translate(24.45,55.249993)"
     id="g1">
    <use
       ffdec:characterId="2789"
       height="110.55"
       transform="translate(-24.45,-55.25)"
       width="48.849998"
       xlink:href="#shape0"
       id="use1" />
    <use
       ffdec:characterId="69"
       height="1.5"
       id="subplatform1"
       transform="matrix(-0.0296,0,-0.317,0.86,19.3335,30.37)"
       width="1320.3"
       xlink:href="#sprite0" />
  </g>
  <defs
     id="defs7">
    <g
       id="shape0"
       transform="translate(24.45,55.25)">
      <path
         d="m 0.7,-54.7 0.4,-0.05 v 0.1 l 1.15,0.1 1.2,0.3 q 2.35,0.75 3.85,1.8 2.4,1.55 2.7,3.55 l 0.55,3.7 0.05,0.3 0.25,3.35 -0.25,3.3 q -0.45,2.5 -1.55,4.4 l -0.5,0.65 0.1,0.1 -0.8,0.75 v 0.05 l 0.85,1.4 q 0.4,0.95 1.75,2.4 l 0.45,0.5 h 0.15 0.4 0.4 q 1.3,0.1 4.15,1.5 2.85,1.45 3.55,2.3 0.95,1.3 2.75,5.95 1.6,4.3 1.6,5 0,0.8 -3.3,2.4 -3.1,1.5 -5.05,1.6 0.35,1.4 0.35,3.45 0,3.05 -1.2,5.65 l -1,2.6 0.15,0.8 -0.4,0.95 q -0.5,0.45 -0.6,1.15 L 13,7.3 q 0,3.85 -3.45,3.85 L 8.75,11 H 6.6 l 0.2,1.35 -0.15,3.3 0.05,9.05 v 1.95 L 6.4,27.95 6.35,28.5 4.4,29 l 0.05,0.55 1.6,0.25 12.75,-0.05 0.45,0.15 q 1.2,0.1 1.2,1.25 l -0.25,0.8 0.35,4.1 0.1,8.3 v 5.2 q -0.2,5 -1.25,5 l -0.25,-0.05 -2.1,0.3 h -34.4 l -2.1,-0.3 -0.25,0.05 q -1.05,0 -1.25,-5 v -5.2 l 0.1,-8.3 0.35,-4.1 -0.25,-0.8 q 0,-1.15 1.2,-1.25 l 0.45,-0.15 12.75,0.05 1.6,-0.25 L -4.7,29 Q -6.2,28.9 -6.65,28.5 L -6.7,27.95 -7,26.65 V 24.7 L -6.95,15.65 -7.1,12.35 -6.9,11 h -1.9 l -0.8,0.15 q -3.45,0 -3.45,-3.85 L -12.9,5.35 Q -13,4.65 -13.5,4.2 -13.9,3.75 -13.9,3.25 l 0.15,-0.8 -1,-2.6 q -1.2,-2.6 -1.2,-5.65 0,-2.05 0.35,-3.45 -1.95,-0.1 -5.05,-1.6 -3.3,-1.6 -3.3,-2.4 0,-0.7 1.6,-5 1.8,-4.65 2.75,-5.95 0.7,-0.85 3.55,-2.3 2.85,-1.4 4.15,-1.5 h 0.4 0.4 0.15 l 0.45,-0.5 q 1.35,-1.45 1.75,-2.4 l 0.85,-1.4 v -0.05 l -0.8,-0.75 0.1,-0.1 -0.5,-0.65 q -1.1,-1.9 -1.55,-4.4 l -0.25,-3.3 0.25,-3.35 0.05,-0.3 0.55,-3.7 q 0.3,-2 2.7,-3.55 1.5,-1.05 3.85,-1.8 l 1.2,-0.3 1.15,-0.1 v -0.1 l 0.4,0.05 0.15,-0.05 v 0.05 h 0.45 0.25 0.45 v -0.05 l 0.15,0.05 m 7.75,9.4 -0.45,-2.4 -0.45,-1.4 -2,-1.95 q -0.9,-0.6 -3.3,-1.4 l -0.7,-0.1 -0.45,-0.05 v -0.1 l -0.45,0.05 H 0.55 0.1 -0.15 -0.6 -0.7 l -0.45,-0.05 v 0.1 l -0.45,0.05 -0.7,0.1 -3.3,1.4 -2,1.95 -0.45,1.4 -0.45,2.4 -0.1,1.05 0.05,2.6 q 0,3.95 0.75,5.6 1.5,3.1 5.5,3.9 l 1.15,0.1 H -0.6 -0.15 0.1 0.55 1.1 l 1.15,-0.1 q 4,-0.8 5.5,-3.9 0.75,-1.65 0.75,-5.6 l 0.05,-2.6 -0.1,-1.05 m -0.9,2.55 -0.05,0.45 -0.8,0.1 0.05,0.2 -0.2,0.75 q -0.35,0.35 -1.1,0.35 -0.7,0 -1.1,-0.4 L 4.3,-41.35 q -0.35,-0.4 -0.35,-0.8 H 3.5 q -0.65,0 -1.1,-0.45 -0.45,-0.45 -0.45,-0.9 0,-0.6 0.25,-0.65 l 0.5,0.15 0.9,0.7 3.15,-0.05 q 0.8,0 0.8,0.6 m -4.2,-5.2 0.65,0.15 q -0.1,0.15 -1.2,0.55 -0.85,0.3 -0.9,1.2 L 1.7,-46 q -0.3,-0.2 -0.3,-0.55 0,-0.6 0.3,-0.95 l 0.2,-0.2 q 0.5,-0.4 1.45,-0.25 m -2.4,0.35 v 0.25 q 0,0.9 -0.55,1.2 -0.35,-0.35 -0.35,-0.7 l 0.05,-0.45 -0.4,-0.6 -0.4,-0.65 q 0,-0.8 0.8,-0.2 l 0.05,0.05 q 0.65,0.5 0.8,1.1 m -0.6,-1.6 v -0.1 l 0.2,-0.5 1.15,0.8 1.65,0.1 -0.15,0.35 -0.3,0.3 H 1.3 l -0.65,-0.6 -0.3,-0.35 m 0.55,4.65 0.1,0.3 -0.65,0.9 -0.55,0.65 q 0,0.45 -0.95,0.45 -0.75,0 -0.75,-0.35 0.1,-0.6 0.9,-0.65 h 0.35 l 0.45,-0.55 0.9,-0.85 0.2,0.1 m -5,7.45 -0.2,0.1 q -0.55,0 -0.55,-0.5 0,-0.9 2.8,-1.3 l 2.1,-0.1 1.95,0.1 q 2.8,0.4 2.8,1.3 0,0.5 -0.55,0.5 l -0.4,-0.2 -1.3,-0.3 -2.6,-0.25 -2.55,0.25 -1.5,0.4 m 7.1,0.45 v 0.05 q 0,0.35 -0.55,0.35 l -2.5,-0.15 -2.45,0.15 q -0.5,0 -0.55,-0.3 v -0.05 q 0,-0.45 0.55,-0.5 l 2.5,0.2 2.45,-0.2 q 0.5,0.05 0.55,0.45 m 2.7,5.85 q -1.5,0.75 -3.35,1 H -2.4 q -1.85,-0.25 -3.35,-1 l -0.2,-0.1 q -0.35,1 -1.25,2.4 -1.8,2.9 -4.2,2.9 l -0.55,-0.05 -1,0.25 q -2.9,0.7 -4.05,2.05 -0.75,1 -2.4,5.05 l -1.5,4.45 v 0.05 q 0.2,0.2 3.5,1.1 2,0.55 2.85,1.25 0.35,-0.3 0.55,0.3 l 0.3,-0.05 1.25,0.45 2.4,0.4 5.95,-0.15 2.25,-1.35 q 1.6,-0.9 1.6,0.35 0,0.55 -1.25,1.3 -0.8,0.5 -1.7,0.85 l -0.75,0.25 -4.85,0.15 -0.3,0.45 q 0,0.3 -0.5,1.3 l -0.05,0.1 q 0,0.6 0.6,1.15 0.6,0.55 0.6,0.9 0,0.65 -0.8,0.65 -1.2,0 -1.6,-1.3 L -11,-7.05 -10.7,-8 -10.65,-8.15 -10.95,-9 Q -13,-9.2 -13.9,-10.35 l 0.05,1.3 q 0,4.95 1.4,7.9 l 0.2,0.45 v 0.45 q 0.75,0.75 0.75,1.75 0,0.4 -0.35,1.5 l 0.4,0.95 Q -11,4.7 -10.9,6.2 l -0.15,1.65 q 0.25,1.05 2.25,0.9 H 8.75 q 2,0.15 2.25,-0.9 L 10.85,6.2 Q 10.95,4.7 11.4,3.95 L 11.8,3 11.45,1.5 q 0,-1 0.75,-1.75 V -0.7 l 0.2,-0.45 q 1.4,-2.95 1.4,-7.9 l 0.05,-1.3 Q 12.95,-9.2 10.9,-9 l -0.3,0.85 0.05,0.15 0.3,0.95 -0.15,1.35 Q 10.4,-4.4 9.2,-4.4 8.4,-4.4 8.4,-5.05 8.4,-5.4 9,-5.95 9.6,-6.5 9.6,-7.1 9.05,-8.2 9.05,-8.5 L 8.75,-8.95 6.95,-9 4.3,-9.05 3.9,-9.1 Q 2.6,-9.5 1.45,-10.2 0.2,-10.95 0.2,-11.5 q 0,-1.25 1.6,-0.35 l 2.25,1.35 5.95,0.15 2.4,-0.4 1.25,-0.45 0.3,0.05 q 0.2,-0.6 0.55,-0.3 0.85,-0.7 2.85,-1.25 3.3,-0.9 3.5,-1.1 v -0.05 l -1.5,-4.45 q -1.65,-4.05 -2.4,-5.05 -1.15,-1.35 -4.05,-2.05 l -1,-0.25 -0.55,0.05 q -2.4,0 -4.2,-2.9 -0.9,-1.4 -1.25,-2.4 l -0.2,0.1 m -15.2,6.25 3.8,-0.3 q 4.1,-0.1 5.7,0.8 1.55,-0.9 5.65,-0.8 l 3.8,0.3 2.5,0.7 0.4,0.55 -0.1,0.4 q -0.15,0.25 -0.55,0.25 -3.2,-0.9 -7.05,-0.9 -3.3,0 -4,0.75 l -0.25,0.25 -0.3,0.3 v 0.15 L 0,-22.15 -0.15,-22.1 v -0.15 l -0.1,-0.1 -0.45,-0.45 q -0.7,-0.75 -4,-0.75 -3.85,0 -7.05,0.9 -0.55,0 -0.6,-0.4 l -0.05,-0.25 q 0,-0.35 0.4,-0.55 l 2.5,-0.7 m -5,10.6 -0.25,1.05 q -1.05,0 -1.05,-2.3 l 0.2,-1.9 0.2,-0.75 q 0.55,-1.7 1.85,-2.05 l 0.15,0.1 v 0.2 q 0,0.3 -0.5,1.5 l -0.55,1.95 -0.05,1.65 v 0.55 m 28.95,-0.45 v -0.1 l -0.05,-1.65 -0.55,-1.95 q -0.5,-1.2 -0.5,-1.5 v -0.2 l 0.15,-0.1 q 0.5,0.15 0.9,0.5 l 0.95,1.55 q 0.4,1.2 0.4,2.65 0,2.3 -1.05,2.3 -0.2,-0.5 -0.25,-1.5 M 0.1,-7.55 q 0,1.5 -0.5,1.65 -0.55,-0.1 -0.55,-0.8 0.1,-1.9 0.7,-2.25 L 0,-8.3 0.1,-7.55 m 0,7.1 q -0.05,0.8 -0.5,0.8 -0.75,0 -0.55,-1.9 0,-2.1 0.55,-2.1 0.5,0 0.5,2.15 v 1.05 m 8.4,-3.2 V -3.7 l 0.1,-0.15 q 1.9,0.3 1.9,3.65 L 9.9,0.65 Q 9.15,1.3 8.4,1.3 7.65,1.3 7.65,0.65 7.65,0.4 8.4,0 9.2,-0.4 9.2,-0.7 9.2,-1.5 8.8,-2.35 L 8.65,-2.7 8.4,-3.45 8.5,-3.65 m 4.75,-8.15 -0.4,0.3 q -0.6,0 -0.8,-0.4 L 12,-12.3 q 0,-0.75 0.75,-0.65 0.75,0.1 0.75,0.7 l -0.25,0.45 M 3,26.9 h 0.6 l 0.8,0.05 v -0.2 -2.1 L 4.3,12.75 V 12.2 h -8.9 v 0.55 l -0.1,11.9 v 2.1 0.2 l 0.8,-0.05 h 1.1 L -2.5,26.95 0.25,27.1 1.95,27 3,26.9 m 15.1,9 V 35.15 H -8.65 L -13.85,35 h -4.55 v 0.8 1.45 7.1 5.35 0.4 l 3.9,-0.2 h 28.7 l 3.9,0.2 v -0.4 -5.35 -7.1 -1.35 m -36.5,-2.35 v 0.05 0.5 L 7.9,33.95 18.1,33.85 V 33.6 33.4 l 0.1,-1.05 Q 17.85,32.25 17.65,32 H 6.05 l -1.1,-0.25 -1.1,-0.5 Q 2.6,30.55 2.6,29.9 L 2.65,29 2,28.95 H 1.95 L 0.3,28.9 -2.5,28.95 -2.95,29 -2.9,29.9 q 0,0.65 -1.25,1.35 L -5.2,31.75 -6.35,32 h -11.6 l -0.55,0.35 0.1,1.2 m 35.45,19.05 1.35,0.15 -0.15,-0.9 -4.05,0.1 h -28.7 l -4.05,-0.1 -0.15,0.9 1.35,-0.15 h 34.4 m -24.3,-95.85 0.45,-0.1 3.15,0.05 0.9,-0.7 0.7,0.05 0.05,0.45 q 0,0.45 -0.45,0.9 -0.45,0.45 -1.1,0.45 H -4 q 0,0.4 -0.35,0.8 -0.45,0.45 -1.15,0.45 h -0.2 l -0.65,-0.2 Q -6.8,-41.35 -6.8,-42 l 0.05,-0.2 -0.8,-0.1 -0.05,-0.45 q 0,-0.4 0.35,-0.5 m -5.4,29.65 q 0.9,0 0.9,0.9 0,0.3 -0.3,0.6 -0.25,0.3 -0.6,0.3 -0.95,0 -0.9,-0.9 0,-0.85 0.9,-0.9 m 3.6,11.75 -0.2,1.15 q 0,0.3 0.8,0.7 l 0.75,0.65 q 0,0.65 -0.75,0.65 -0.75,0 -1.5,-0.65 l -0.6,-0.85 q 0,-3.35 1.9,-3.65 l 0.1,0.15 0.1,0.15 v 0.1 l -0.4,1.1 -0.2,0.5"
         fill="#6b6b6b"
         fill-rule="evenodd"
         stroke="none"
         id="path1" />
      <path
         d="m -8.5,-45.3 0.45,-2.4 0.45,-1.4 2,-1.95 3.3,-1.4 0.7,-0.1 0.45,-0.05 v -0.1 l 0.45,0.05 h 0.1 0.45 0.25 0.45 0.1 L 1.1,-52.7 v 0.1 l 0.45,0.05 0.7,0.1 q 2.4,0.8 3.3,1.4 l 2,1.95 0.45,1.4 0.45,2.4 -1.3,-1.2 -1.85,-2.1 -2.85,-1.9 -0.2,-0.1 -1.15,-0.35 v -0.2 L 0.65,-51.1 H 0.55 L 0.1,-51 h -0.05 -0.2 v -0.05 L -0.6,-51.1 h -0.1 l -0.45,-0.05 v 0.2 l -1.15,0.35 -0.2,0.1 -2.85,1.9 -1.85,2.1 -1.3,1.2 m 10.7,1.15 q 0.25,-0.5 1.55,-0.5 l 2.95,0.15 q 1.2,0.25 1.2,1.05 l -0.25,0.6 -0.1,0.1 q 0,-0.6 -0.8,-0.6 L 3.6,-43.3 2.7,-44 2.2,-44.15 m 4.35,2.9 0.3,0.35 -0.3,0.55 q -0.3,0.25 -0.7,0.2 H 4.2 q -0.55,-0.2 -0.55,-0.6 0,-0.25 0.55,-0.6 l 0.15,0.05 q 0.4,0.4 1.1,0.4 0.75,0 1.1,-0.35 m -3.2,-6.7 Q 2.4,-48.1 1.9,-47.7 l -0.2,0.2 -0.75,-0.1 Q 0.8,-48.2 0.15,-48.7 L 0.1,-48.75 q 0,-0.35 0.25,-0.45 l 0.3,0.35 0.65,0.6 h 1.6 l 0.3,-0.3 0.05,0.05 0.15,0.25 -0.05,0.3 m -7.45,10.85 1.5,-0.4 2.55,-0.25 2.6,0.25 1.3,0.3 Q 3.7,-36.8 3,-36.65 2.95,-37.05 2.45,-37.1 L 0,-36.9 -2.5,-37.1 q -0.55,0.05 -0.55,0.5 v 0.05 H -3.2 q -0.75,-0.05 -0.9,-0.55 m 13.55,12.55 -0.95,-0.5 q -1.15,-0.7 -2.05,-1.95 -1,-1.35 -1,-2.3 l 0.25,-1.5 0.2,-0.1 q 0.35,1 1.25,2.4 1.8,2.9 4.2,2.9 l 0.55,-0.05 1,0.25 q 2.9,0.7 4.05,2.05 0.75,1 2.4,5.05 l 1.5,4.45 v 0.05 q -1.6,-1.4 -2.5,-4.05 -1.1,-3.4 -1.95,-4.5 -0.6,-0.8 -3.5,-1.35 l -0.95,-0.15 -2.5,-0.7 m -15.2,-6.25 0.25,1.5 q 0,0.95 -1,2.3 -0.9,1.25 -2.05,1.95 l -0.95,0.5 -2.5,0.7 -0.95,0.15 q -2.9,0.55 -3.5,1.35 -0.85,1.1 -1.95,4.5 -0.9,2.65 -2.5,4.05 v -0.05 l 1.5,-4.45 q 1.65,-4.05 2.4,-5.05 1.15,-1.35 4.05,-2.05 l 1,-0.25 0.55,0.05 q 2.4,0 4.2,-2.9 0.9,-1.4 1.25,-2.4 l 0.2,0.1 m -6.6,7.75 q 0.05,0.4 0.6,0.4 3.2,-0.9 7.05,-0.9 3.3,0 4,0.75 l 0.45,0.45 0.1,0.1 v 0.15 L 0,-22.15 0.1,-22.1 v -0.15 l 0.3,-0.3 0.25,-0.25 q 0.7,-0.75 4,-0.75 3.85,0 7.05,0.9 0.4,0 0.55,-0.25 l 0.5,0.75 1.65,2.75 q -0.4,-0.35 -0.9,-0.5 l -0.15,0.1 v 0.2 q 0,0.3 0.5,1.5 l 0.55,1.95 0.05,1.65 v 0.1 q -0.6,-0.05 -1.35,-1.9 l -1,-2.55 -1.45,-2.1 L 10,-21.8 5.2,-22.2 q -1.55,0 -2.8,0.7 l -1.55,0.7 q -0.45,0 -0.7,-0.2 l -0.4,0.05 q -0.65,0 -1.55,-0.5 -0.9,-0.55 -2.35,-0.55 -4.75,0 -6.85,1.15 -1.3,0.7 -1.8,2.1 l -0.9,2.85 q -0.5,1.8 -0.8,1.95 v -0.55 l 0.05,-1.65 0.55,-1.95 q 0.5,-1.2 0.5,-1.5 v -0.2 l -0.15,-0.1 q -1.3,0.35 -1.85,2.05 l -0.2,0.75 q 0.35,-4.3 3.25,-5.95 m 9.15,13.7 q 0.45,0.2 0.45,0.65 0,0.95 -3.65,0.95 l -1.75,0.3 -0.95,0.3 -0.5,-0.05 q 0.5,-1 0.5,-1.3 l 0.3,-0.45 4.85,-0.15 0.75,-0.25 M 6.95,-9 q 1.85,0.25 1.85,1.1 0,0.75 -1.6,1 l -4.55,0.2 q -1.2,0 -1.05,-1.05 0,-0.8 0.45,-1.05 L 4.3,-9.05 6.95,-9 m 0.8,-9.9 -5.7,0.15 q -1.05,0 -0.95,-0.75 0,-0.3 0.45,-0.65 0.6,-0.45 1.55,-0.4 h 5.4 q 1.7,0.15 1.7,0.75 0,0.5 -0.4,0.6 l -2.05,0.3 m 0.9,16.2 -0.95,0.5 -4.75,0.3 q -1,0 -1.05,-1.1 0,-1.15 2.2,-1.15 l 4,0.3 0.4,0.2 -0.1,0.2 0.25,0.75 m -15.9,-40.55 -0.2,-0.6 q 0,-1.15 2.7,-1.15 2.55,0 2.7,1.05 l -0.7,-0.05 -0.9,0.7 -3.15,-0.05 -0.45,0.1 m 1.55,2.35 0.7,0.3 q -0.1,0.45 -0.9,0.45 -0.7,0 -1.2,-0.5 l 0.3,-0.4 0.4,-0.05 h 0.05 l 0.65,0.2 m 4.7,22.45 -9.4,-0.85 -0.05,-0.25 q 0,-1.45 5.3,-1.2 5.25,0.25 5.25,1.55 l -0.4,0.55 -0.7,0.2 m -7.45,14.9 q 0.8,-0.5 2.55,-0.55 4.75,-0.4 4.75,1 0,0.35 -2.15,0.95 -2.5,0.7 -5,0.7 -0.55,0 -0.75,-0.4 l 0.2,-0.5 0.4,-1.1 v -0.1"
         fill="#ffffff"
         fill-rule="evenodd"
         stroke="none"
         id="path2" />
      <path
         d="m -2.8,26.9 q 0.15,-0.45 0.05,-1.15 L -2.8,17.6 -2.9,14.05 h 0.7 l 5.25,-0.1 v 2.9 8.75 L 2.95,26.25 3,26.9 1.95,27 0.25,27.1 -2.5,26.95 -2.8,26.9 m 20.9,9 v 1.35 7.1 5.35 0.4 l -3.9,-0.2 h -28.7 l -3.9,0.2 v -0.4 -5.35 -7.1 -1.45 l 36.5,0.1 m 0,-2.5 v 0.2 0.25 l -10.2,0.1 -26.3,0.15 v -0.5 -0.05 l 0.45,0.15 32,-0.05 4.05,-0.25 m -23.3,-1.65 1.05,-0.5 Q -2.9,30.55 -2.9,29.9 L -2.95,29 -2.5,28.95 0.3,28.9 1.95,28.95 H 2 L 2.65,29 2.6,29.9 q 0,0.65 1.25,1.35 l 1.1,0.5 H -5.2 M 17.05,52.6 h -34.4 l -1.35,0.15 0.15,-0.9 4.05,0.1 h 28.7 l 4.05,-0.1 0.15,0.9 -1.35,-0.15"
         fill="#777777"
         fill-rule="evenodd"
         stroke="none"
         id="path3" />
      <path
         d="M 3,26.9 2.95,26.25 3.05,25.6 v -8.75 -2.9 l -5.25,0.1 h -0.7 l 0.1,3.55 0.05,8.15 q 0.1,0.7 -0.05,1.15 h -1.1 l -0.8,0.05 v -0.2 -2.1 l 0.1,-11.9 V 12.2 h 8.9 v 0.55 l 0.1,11.9 v 2.1 0.2 L 3.6,26.9 H 3 m -21.4,8.9 V 35 h 4.55 l 5.2,0.15 H 18.1 v 0.75 l -36.5,-0.1 m 36.5,-2.4 -4.05,0.25 -32,0.05 -0.45,-0.15 -0.1,-1.2 0.55,-0.35 h 11.6 L -5.2,31.75 H 4.95 L 6.05,32 h 11.6 q 0.2,0.25 0.55,0.35 l -0.1,1.05"
         fill="#858585"
         fill-rule="evenodd"
         stroke="none"
         id="path4" />
      <path
         d="m -8.5,-45.3 1.3,-1.2 1.85,-2.1 2.85,-1.9 0.2,-0.1 1.15,-0.35 v -0.2 l 0.45,0.05 h 0.1 l 0.45,0.05 V -51 h 0.2 0.05 l 0.45,-0.1 h 0.1 l 0.45,-0.05 v 0.2 l 1.15,0.35 0.2,0.1 2.85,1.9 1.85,2.1 1.3,1.2 0.1,1.05 -0.05,2.6 q 0,3.95 -0.75,5.6 -1.5,3.1 -5.5,3.9 l -1.15,0.1 H 0.55 0.1 -0.15 -0.6 -1.15 l -1.15,-0.1 q -4,-0.8 -5.5,-3.9 -0.75,-1.65 -0.75,-5.6 l -0.05,-2.6 0.1,-1.05 m 16.05,2.55 0.1,-0.1 0.25,-0.6 q 0,-0.8 -1.2,-1.05 l -2.95,-0.15 q -1.3,0 -1.55,0.5 -0.25,0.05 -0.25,0.65 0,0.45 0.45,0.9 0.45,0.45 1.1,0.45 h 0.45 q 0,0.4 0.35,0.8 l 0.05,0.05 -0.15,-0.05 q -0.55,0.35 -0.55,0.6 0,0.4 0.55,0.6 h 1.65 q 0.4,0.05 0.7,-0.2 l 0.3,-0.55 -0.3,-0.35 0.2,-0.75 -0.05,-0.2 0.8,-0.1 0.05,-0.45 M 1.7,-47.5 q -0.3,0.35 -0.3,0.95 0,0.35 0.3,0.55 l 0.2,-0.05 q 0.05,-0.9 0.9,-1.2 1.1,-0.4 1.2,-0.55 L 3.35,-47.95 3.4,-48.25 3.25,-48.5 3.2,-48.55 3.35,-48.9 1.7,-49 l -1.15,-0.8 -0.2,0.5 v 0.1 q -0.25,0.1 -0.25,0.45 -0.8,-0.6 -0.8,0.2 l 0.4,0.65 0.4,0.6 -0.05,0.45 q 0,0.35 0.35,0.7 0.55,-0.3 0.55,-1.2 v -0.25 l 0.75,0.1 m -0.8,2.95 -0.2,-0.1 -0.9,0.85 -0.45,0.55 H -1 q -0.8,0.05 -0.9,0.65 0,0.35 0.75,0.35 0.95,0 0.95,-0.45 l 0.55,-0.65 0.65,-0.9 -0.1,-0.3 m 2.95,7.35 0.4,0.2 q 0.55,0 0.55,-0.5 0,-0.9 -2.8,-1.3 l -1.95,-0.1 -2.1,0.1 q -2.8,0.4 -2.8,1.3 0,0.5 0.55,0.5 l 0.2,-0.1 q 0.15,0.5 0.9,0.55 h 0.15 q 0.05,0.3 0.55,0.3 l 2.45,-0.15 2.5,0.15 Q 3,-36.25 3,-36.6 v -0.05 q 0.7,-0.15 0.85,-0.55 m 1.85,6.4 -0.25,1.5 q 0,0.95 1,2.3 0.9,1.25 2.05,1.95 l 0.95,0.5 -3.8,-0.3 q -4.1,-0.1 -5.65,0.8 -1.6,-0.9 -5.7,-0.8 l -3.8,0.3 0.95,-0.5 q 1.15,-0.7 2.05,-1.95 1,-1.35 1,-2.3 l -0.25,-1.5 q 1.5,0.75 3.35,1 h 4.75 q 1.85,-0.25 3.35,-1 m 6.25,6.95 0.95,0.15 q 2.9,0.55 3.5,1.35 0.85,1.1 1.95,4.5 0.9,2.65 2.5,4.05 -0.2,0.2 -3.5,1.1 -2,0.55 -2.85,1.25 -0.35,-0.3 -0.55,0.3 l -0.3,-0.05 -1.25,0.45 -2.4,0.4 -5.95,-0.15 -2.25,-1.35 q -1.6,-0.9 -1.6,0.35 0,0.55 1.25,1.3 1.15,0.7 2.45,1.1 L 4.3,-9.05 2.05,-8.8 Q 1.6,-8.55 1.6,-7.75 1.45,-6.7 2.65,-6.7 L 7.2,-6.9 q 1.6,-0.25 1.6,-1 0,-0.85 -1.85,-1.1 l 1.8,0.05 0.3,0.45 q 0,0.3 0.55,1.4 0,0.6 -0.6,1.15 -0.6,0.55 -0.6,0.9 0,0.65 0.8,0.65 1.2,0 1.6,-1.3 L 10.95,-7.05 10.65,-8 10.6,-8.15 10.9,-9 q 2.05,-0.2 2.95,-1.35 l -0.05,1.3 q 0,4.95 -1.4,7.9 l -0.2,0.45 v 0.45 Q 11.45,0.5 11.45,1.5 L 11.8,3 11.4,3.95 Q 10.95,4.7 10.85,6.2 L 11,7.85 Q 10.75,8.9 8.75,8.75 H -8.8 q -2,0.15 -2.25,-0.9 L -10.9,6.2 Q -11,4.7 -11.45,3.95 L -11.85,3 q 0.35,-1.1 0.35,-1.5 0,-1 -0.75,-1.75 V -0.7 l -0.2,-0.45 q -1.4,-2.95 -1.4,-7.9 l -0.05,-1.3 q 0.9,1.15 2.95,1.35 l 0.3,0.85 -0.05,0.15 -0.3,0.95 0.15,1.35 q 0.4,1.3 1.6,1.3 0.8,0 0.8,-0.65 0,-0.35 -0.6,-0.9 -0.6,-0.55 -0.6,-1.15 l 0.05,-0.1 0.5,0.05 0.95,-0.3 1.75,-0.3 q 3.65,0 3.65,-0.95 0,-0.45 -0.45,-0.65 0.9,-0.35 1.7,-0.85 1.25,-0.75 1.25,-1.3 0,-1.25 -1.6,-0.35 l -2.25,1.35 -5.95,0.15 -2.4,-0.4 -1.25,-0.45 -0.3,0.05 q -0.2,-0.6 -0.55,-0.3 -0.85,-0.7 -2.85,-1.25 -3.3,-0.9 -3.5,-1.1 1.6,-1.4 2.5,-4.05 1.1,-3.4 1.95,-4.5 0.6,-0.8 3.5,-1.35 l 0.95,-0.15 q -0.4,0.2 -0.4,0.55 l 0.05,0.25 q -2.9,1.65 -3.25,5.95 l -0.2,1.9 q 0,2.3 1.05,2.3 l 0.25,-1.05 q 0.3,-0.15 0.8,-1.95 l 0.9,-2.85 q 0.5,-1.4 1.8,-2.1 2.1,-1.15 6.85,-1.15 1.45,0 2.35,0.55 0.9,0.5 1.55,0.5 L 0.15,-21 q 0.25,0.2 0.7,0.2 l 1.55,-0.7 q 1.25,-0.7 2.8,-0.7 l 4.8,0.4 0.65,0.85 1.45,2.1 1,2.55 q 0.75,1.85 1.35,1.9 0.05,1 0.25,1.5 1.05,0 1.05,-2.3 0,-1.45 -0.4,-2.65 l -0.95,-1.55 -1.65,-2.75 -0.5,-0.75 0.1,-0.4 -0.4,-0.55 m -4.2,4.95 2.05,-0.3 q 0.4,-0.1 0.4,-0.6 0,-0.6 -1.7,-0.75 H 3.1 q -0.95,-0.05 -1.55,0.4 -0.45,0.35 -0.45,0.65 -0.1,0.75 0.95,0.75 l 5.7,-0.15 M 0.1,-0.45 V -1.5 q 0,-2.15 -0.5,-2.15 -0.55,0 -0.55,2.1 -0.2,1.9 0.55,1.9 0.45,0 0.5,-0.8 m 0,-7.1 L 0,-8.3 -0.25,-8.95 q -0.6,0.35 -0.7,2.25 0,0.7 0.55,0.8 0.5,-0.15 0.5,-1.65 m 8.4,3.9 -0.4,-0.2 -4,-0.3 q -2.2,0 -2.2,1.15 0.05,1.1 1.05,1.1 L 7.7,-2.2 8.65,-2.7 8.8,-2.35 Q 9.2,-1.5 9.2,-0.7 9.2,-0.4 8.4,0 7.65,0.4 7.65,0.65 7.65,1.3 8.4,1.3 9.15,1.3 9.9,0.65 l 0.6,-0.85 q 0,-3.35 -1.9,-3.65 L 8.5,-3.7 v 0.05 m 4.75,-8.15 0.25,-0.45 q 0,-0.6 -0.75,-0.7 Q 12,-13.05 12,-12.3 l 0.05,0.4 q 0.2,0.4 0.8,0.4 l 0.4,-0.3 M -2.05,-43.95 Q -2.2,-45 -4.75,-45 q -2.7,0 -2.7,1.15 l 0.2,0.6 q -0.35,0.1 -0.35,0.5 l 0.05,0.45 0.8,0.1 -0.05,0.2 q 0,0.65 0.45,0.9 H -6.4 l -0.4,0.05 -0.3,0.4 q 0.5,0.5 1.2,0.5 0.8,0 0.9,-0.45 l -0.7,-0.3 h 0.2 q 0.7,0 1.15,-0.45 0.35,-0.4 0.35,-0.8 h 0.45 q 0.65,0 1.1,-0.45 0.45,-0.45 0.45,-0.9 l -0.05,-0.45 m 1.05,25.5 0.7,-0.2 0.4,-0.55 q 0,-1.3 -5.25,-1.55 -5.3,-0.25 -5.3,1.2 l 0.05,0.25 9.4,0.85 m -11.65,4.85 q -0.9,0.05 -0.9,0.9 -0.05,0.9 0.9,0.9 0.35,0 0.6,-0.3 0.3,-0.3 0.3,-0.6 0,-0.9 -0.9,-0.9 m 4.2,10.05 -0.1,-0.15 -0.1,-0.15 q -1.9,0.3 -1.9,3.65 l 0.6,0.85 q 0.75,0.65 1.5,0.65 0.75,0 0.75,-0.65 L -8.45,0 q -0.8,-0.4 -0.8,-0.7 l 0.2,-1.15 q 0.2,0.4 0.75,0.4 2.5,0 5,-0.7 2.15,-0.6 2.15,-0.95 0,-1.4 -4.75,-1 -1.75,0.05 -2.55,0.55"
         fill="#d5c7c7"
         fill-rule="evenodd"
         stroke="none"
         id="path5" />
      <path
         d="m 0.7,-54.7 -0.15,-0.05 v 0.05 H 0.1 -0.15 -0.6 v -0.05 l -0.15,0.05 -0.4,-0.05 v 0.1 l -1.15,0.1 -1.2,0.3 q -2.35,0.75 -3.85,1.8 -2.4,1.55 -2.7,3.55 l -0.55,3.7 -0.05,0.3 -0.25,3.35 0.25,3.3 q 0.45,2.5 1.55,4.4 l 0.5,0.65 -0.1,0.1 0.8,0.75 v 0.05 l -0.85,1.4 q -0.4,0.95 -1.75,2.4 l -0.45,0.5 h -0.15 -0.4 -0.4 q -1.3,0.1 -4.15,1.5 -2.85,1.45 -3.55,2.3 -0.95,1.3 -2.75,5.95 -1.6,4.3 -1.6,5 0,0.8 3.3,2.4 3.1,1.5 5.05,1.6 -0.35,1.4 -0.35,3.45 0,3.05 1.2,5.65 l 1,2.6 -0.15,0.8 q 0,0.5 0.4,0.95 0.5,0.45 0.6,1.15 l -0.15,1.95 q 0,3.85 3.45,3.85 L -8.8,11 h 1.9 l -0.2,1.35 0.15,3.3 L -7,24.7 v 1.95 l 0.3,1.3 0.05,0.55 q 0.45,0.4 1.95,0.5 l -0.05,0.55 -1.6,0.25 -12.75,-0.05 -0.45,0.15 q -1.2,0.1 -1.2,1.25 l 0.25,0.8 -0.35,4.1 -0.1,8.3 v 5.2 q 0.2,5 1.25,5 l 0.25,-0.05 2.1,0.3 h 34.4 l 2.1,-0.3 0.25,0.05 q 1.05,0 1.25,-5 v -5.2 l -0.1,-8.3 -0.35,-4.1 0.25,-0.8 q 0,-1.15 -1.2,-1.25 L 18.8,29.75 6.05,29.8 4.45,29.55 4.4,29 6.35,28.5 6.4,27.95 6.7,26.65 V 24.7 L 6.65,15.65 6.8,12.35 6.6,11 h 2.15 l 0.8,0.15 Q 13,11.15 13,7.3 L 12.85,5.35 q 0.1,-0.7 0.6,-1.15 l 0.4,-0.95 -0.15,-0.8 1,-2.6 q 1.2,-2.6 1.2,-5.65 0,-2.05 -0.35,-3.45 1.95,-0.1 5.05,-1.6 3.3,-1.6 3.3,-2.4 0,-0.7 -1.6,-5 -1.8,-4.65 -2.75,-5.95 -0.7,-0.85 -3.55,-2.3 -2.85,-1.4 -4.15,-1.5 h -0.4 -0.4 -0.15 l -0.45,-0.5 Q 9.1,-29.95 8.7,-30.9 l -0.85,-1.4 v -0.05 l 0.8,-0.75 -0.1,-0.1 0.5,-0.65 q 1.1,-1.9 1.55,-4.4 l 0.25,-3.3 -0.25,-3.35 -0.05,-0.3 -0.55,-3.7 q -0.3,-2 -2.7,-3.55 -1.5,-1.05 -3.85,-1.8 l -1.2,-0.3 -1.15,-0.1 v -0.1 z"
         fill="none"
         stroke="#6b6b6b"
         stroke-linecap="round"
         stroke-linejoin="round"
         stroke-width="1"
         id="path6" />
    </g>
    <g
       id="sprite0"
       transform="translate(660.25,0.5)">
      <use
         ffdec:characterId="68"
         height="1.5"
         transform="translate(-660.25,-0.5)"
         width="1320.3"
         xlink:href="#shape1"
         id="use6" />
    </g>
    <g
       id="shape1"
       transform="translate(660.25,0.5)">
      <path
         d="m 659.3,-0.5 0.55,0.25 0.2,0.5 -0.2,0.55 L 659.3,1 H -659.5 l -0.5,-0.2 -0.25,-0.55 0.25,-0.5 0.5,-0.25 H 659.3"
         fill="#ffff00"
         fill-opacity="0"
         fill-rule="evenodd"
         stroke="none"
         id="path7" />
    </g>
  </defs>
</svg>
