<?xml version="1.0" encoding="UTF-8" standalone="no"?>
<svg
   ffdec:objectType="frame"
   height="34.344643"
   width="38.299999"
   version="1.1"
   id="svg13"
   sodipodi:docname="2.svg"
   xmlns:inkscape="http://www.inkscape.org/namespaces/inkscape"
   xmlns:sodipodi="http://sodipodi.sourceforge.net/DTD/sodipodi-0.dtd"
   xmlns:xlink="http://www.w3.org/1999/xlink"
   xmlns="http://www.w3.org/2000/svg"
   xmlns:svg="http://www.w3.org/2000/svg"
   xmlns:ffdec="https://www.free-decompiler.com/flash">
  <sodipodi:namedview
     id="namedview13"
     pagecolor="#ffffff"
     bordercolor="#000000"
     borderopacity="0.25"
     inkscape:showpageshadow="2"
     inkscape:pageopacity="0.0"
     inkscape:pagecheckerboard="0"
     inkscape:deskcolor="#d1d1d1"
     fit-margin-top="5"
     fit-margin-left="5"
     fit-margin-right="5"
     fit-margin-bottom="5" />
  <g
     transform="translate(21.15,20.294643)"
     id="g3">
    <use
       ffdec:characterId="3499"
       height="17.700001"
       transform="translate(11.6,-21.8)"
       width="6.3000002"
       xlink:href="#sprite0"
       id="use1" />
    <use
       ffdec:characterId="4133"
       height="20.700001"
       transform="translate(-15.45,-8.2)"
       width="27.9"
       xlink:href="#sprite1"
       id="use2" />
    <use
       ffdec:characterId="4134"
       height="28.049999"
       transform="translate(-21.15,-14)"
       width="38.299999"
       xlink:href="#shape2"
       id="use3" />
  </g>
  <defs
     id="defs13">
    <g
       id="sprite0"
       transform="translate(3.2,9.45)">
      <use
         ffdec:characterId="2639"
         height="15.9"
         transform="translate(-2.35,-7.95)"
         width="4.6500001"
         xlink:href="#shape0"
         id="use4" />
    </g>
    <g
       id="shape0"
       transform="translate(2.35,7.95)">
      <path
         d="m 1.35,-1.95 q -0.85,1.05 -0.85,1.7 0,0.5 0.9,1.75 0.9,1.3 0.9,2.8 0,0.95 -0.45,1.9 -0.75,1.75 -2.6,1.75 l -1,-0.25 V 7.45 7.4 Q -2.35,7.1 -2.3,6.3 -2.3,5.15 -1.65,3.9 -1.65,3.5 -2,2.55 l -0.35,-1.3 q 0,-0.8 0.4,-1.6 L -1.3,-1.9 -1.25,-2 -1.2,-2.2 -0.6,-3.6 Q 0,-5 0,-6 l -0.3,-1.2 q 0,-0.9 0.35,-0.6 0.25,-0.45 1,0.5 1.1,1.3 1.1,2.65 0,1.65 -0.8,2.7 m -2,4.25 0.2,1.3 0.1,0.65 -0.5,1.6 0.05,0.2 h 0.3 L -0.25,5.7 0.45,4.4 q 0,-1.45 -0.8,-2.5 L -0.75,1.3 -0.8,1.45 -0.65,2.3"
         fill="#ffffff"
         fill-opacity="0.498039"
         fill-rule="evenodd"
         stroke="none"
         id="path4" />
    </g>
    <g
       id="sprite1"
       transform="translate(13.95,10.35)">
      <use
         ffdec:characterId="4132"
         height="20.700001"
         transform="translate(-13.95,-10.35)"
         width="27.9"
         xlink:href="#sprite2"
         id="use5" />
    </g>
    <g
       id="sprite2"
       transform="translate(14.45,7.95)">
      <use
         ffdec:characterId="4131"
         height="20.700001"
         transform="translate(-14.45,-7.95)"
         width="27.9"
         xlink:href="#shape1"
         id="use6" />
    </g>
    <g
       id="shape1"
       transform="translate(14.45,7.95)">
      <path
         d="M 5,-4.7 5.05,-4.75 5.4,-4.9 5.7,-5.1 H 5.75 L 5.9,-5.25 6.05,-5.15 6,-5.1 5.9,-5 5.65,-4.85 5.55,-4.75 5.45,-4.65 5.25,-4.5 5.2,-4.45 5,-4.7 M 4.05,-5.8 3.8,-5.7 3.75,-5.65 3.65,-5.7 3.4,-5.9 3.3,-5.95 3.65,-5.9 H 4.3 L 4.05,-5.8 M 2.9,-4.1 H 3.05 L 3.6,-4.25 4.15,-4.4 h 0.1 l 0.1,-0.05 0.2,-0.05 0.25,0.2 -0.3,0.1 -0.2,0.1 -0.1,0.05 -0.35,0.1 H 3.8 L 3,-3.7 2.6,-3.6 2.3,-3.55 2.2,-3.65 2.05,-3.8 1.9,-3.9 2.05,-3.95 H 2.2 L 2.55,-4 2.9,-4.1 m -0.75,-1.8 0.05,0.1 0.15,0.2 0.05,0.1 v 0.1 l -0.05,0.1 v 0.05 L 2.05,-5.2 H 2 1.9 1.6 -1.65 -1.75 l -0.6,-0.05 -0.35,-0.05 -0.9,-0.3 -0.55,-0.2 -0.25,-0.1 -0.3,-0.35 0.3,-0.1 0.2,-0.1 h 0.05 l 0.55,-0.2 0.35,-0.1 0.1,-0.05 0.15,-0.05 0.3,-0.1 0.15,-0.05 0.7,0.1 h 0.05 l 0.35,0.05 0.15,0.05 0.8,0.5 1.5,0.15 1,0.1 -0.05,0.05 0.2,0.1 M 0.2,-3.4 v -0.25 -0.1 -0.05 l 0.75,-0.05 v 0.1 L 0.9,-3.65 V -3.4 H 0.2 m 12.35,14.95 v 0.05 l -0.45,0.6 h -24.3 l -0.5,-0.7 25.25,0.05 M -1.35,10.4 q 0.35,0.05 0.7,0.25 h -6.4 l -0.1,-0.25 h 5.8 m -3.6,-13.65 0.25,0.1 0.25,0.05 0.6,0.15 0.1,0.05 h 0.1 l 0.2,0.05 0.2,0.05 0.6,0.2 h 0.1 l 0.65,0.15 h 0.45 l -0.15,0.3 -0.7,1.2 Q -3.4,0.85 -3.45,1.5 L -3.7,5.9 q 0,1.4 0.8,2.85 l 0.25,0.5 H -6.9 v -0.3 -0.4 q 0,-4.65 1.55,-9.45 l 0.5,-1.45 -0.1,-0.55 v -0.2 -0.05 -0.1"
         fill="#999999"
         fill-rule="evenodd"
         stroke="none"
         id="path6" />
      <path
         d="m 5,-4.7 0.2,0.25 0.05,-0.05 0.2,-0.15 0.1,-0.1 0.1,-0.1 L 5.9,-5 6,-5.1 6.05,-5.15 5.9,-5.25 5.75,-5.1 H 5.7 L 5.4,-4.9 5.05,-4.75 5,-4.7 M 4.05,-5.8 4.3,-5.9 H 3.65 L 3.3,-5.95 3.4,-5.9 3.65,-5.7 3.75,-5.65 3.8,-5.7 4.05,-5.8 M 2.9,-4.1 3.7,-4.35 3.3,-4.25 2.7,-4.1 H 2.85 2.9 L 2.55,-4 2.2,-3.95 H 2.05 L 1.9,-3.9 2.05,-3.8 2.2,-3.65 2.3,-3.55 2.6,-3.6 3,-3.7 3.8,-3.95 H 3.85 L 4.2,-4.05 4.3,-4.1 4.5,-4.2 4.8,-4.3 4.55,-4.5 4.35,-4.45 4.25,-4.4 H 4.15 L 3.6,-4.25 3.05,-4.1 H 2.9 M 2.15,-5.9 1.95,-6 2,-6.05 1,-6.15 -0.5,-6.3 -1.3,-6.8 -1.45,-6.85 -1.8,-6.9 h -0.05 l -0.7,-0.1 -0.15,0.05 -0.3,0.1 -0.15,0.05 -0.1,0.05 -0.35,0.1 -0.55,0.2 H -4.2 l -0.2,0.1 -0.3,0.1 0.3,0.35 0.25,0.1 0.55,0.2 0.9,0.3 0.35,0.05 0.6,0.05 H -1.65 1.6 1.9 2 2.05 l 0.3,-0.05 V -5.3 L 2.4,-5.4 V -5.5 L 2.35,-5.6 2.2,-5.8 2.15,-5.9 M 0.2,-3.8 H 0.1 -0.05 -0.8 l 0.1,0.15 0.05,0.25 h 0.3 0.55 0.7 v -0.25 l 0.05,-0.1 v -0.1 L 0.2,-3.8 m 2.7,2.4 q 0,0.85 0.95,2.25 L 5.9,3.15 7.4,5.4 q 1.5,1.95 2.45,1.95 0.9,0 1.1,-1.05 V 5.2 Q 10.95,3.8 9.8,0.75 8.25,-3.35 6,-3.5 H 5.85 q -1.45,0 -2.3,0.9 L 3.4,-2.45 Q 2.9,-1.9 2.9,-1.4 m 4.7,-3.1 1.45,1.3 q 1.25,1.3 1.7,2.35 l 0.6,1.75 1.05,3.3 q 0.5,1.95 0.5,4.55 0.55,0 0.55,0.5 l -0.3,0.45 0.25,0.65 -0.05,0.35 -0.3,0.35 0.1,0.5 L 13,12 q -0.1,0.3 -1.25,0.45 l -1.3,0.2 h -2 L 8.4,12.7 H 2.75 L 1.7,12.6 0.65,12.55 H -0.9 l -0.2,0.05 h -1.3 l -0.85,0.05 -0.95,0.1 h -2.95 l -1.9,-0.1 h -0.35 -1.65 q -1.05,0.15 -1.75,-0.7 l -0.35,-0.55 h -0.2 q -0.4,0.1 -0.75,-0.3 l -0.35,-0.6 q 0,-0.85 1.7,-1.25 h -0.2 v -0.1 -0.2 q 0,-2.75 0.45,-4.75 l 1.05,-3.3 0.65,-1.75 1.65,-2.35 1.15,-1 0.05,-0.15 -0.05,-0.1 0.35,-0.45 0.45,-0.5 h 0.05 l 0.85,-0.7 q 1.25,-0.85 1.7,-0.5 l 1.2,-0.65 3.05,-0.7 q 1.25,0 3.2,0.7 l 1.95,1.15 1,0.3 0.35,0.15 0.85,0.4 q 0.5,0 0.5,0.5 v 0.2 l 0.1,0.05 m 3.35,13.4 q 0.7,0 0.55,-0.6 0,-0.6 -0.6,-0.6 -0.55,0.05 -0.55,0.6 l 0.3,0.55 0.25,0.05 h 0.05 m 1.6,2.65 -25.25,-0.05 0.5,0.7 h 24.3 l 0.45,-0.6 v -0.05 m -13.9,-1.15 5.5,-0.05 3.4,0.15 3.75,0.05 0.95,0.05 h 0.6 L 12.9,9.8 3.55,9.9 4.35,9.8 H -10 l -2.85,0.15 h -0.1 v 0.45 l 0.5,0.05 0.7,-0.05 h 4.6 l 0.1,0.25 h 6.4 Q -1,10.45 -1.35,10.4 M -2.5,-4 l -0.45,-0.05 -1.2,-0.3 -0.1,0.1 -0.1,0.05 0.1,0.05 0.5,0.15 0.6,0.25 h 0.1 l 0.5,0.15 0.05,-0.25 V -4 m -2.45,0.75 v 0.1 0.05 0.2 l 0.1,0.55 -0.5,1.45 Q -6.9,3.9 -6.9,8.55 v 0.4 0.3 h 4.25 L -2.9,8.75 Q -3.7,7.3 -3.7,5.9 L -3.45,1.5 Q -3.4,0.85 -2.3,-0.95 l 0.7,-1.2 0.15,-0.3 H -1.9 L -2.55,-2.6 h -0.1 l -0.6,-0.2 -0.2,-0.05 -0.2,-0.05 h -0.1 l -0.1,-0.05 -0.6,-0.15 -0.25,-0.05 -0.25,-0.1 m -4.5,8 q 0,-2.1 -1,-1.7 -1,0.4 -1,2.4 -0.05,3 1.05,3 0.55,0 0.8,-1.85 l 0.15,-1.85"
         fill="#cccccc"
         fill-rule="evenodd"
         stroke="none"
         id="path7" />
      <path
         d="m 0.2,-3.4 h -0.55 -0.3 L -0.7,-3.65 -0.8,-3.8 h 0.75 0.15 0.1 v 0.05 0.1 0.25"
         fill="#adadad"
         fill-rule="evenodd"
         stroke="none"
         id="path8" />
      <path
         d="m 2.9,-1.4 q 0,-0.5 0.5,-1.05 L 3.55,-2.6 Q 4.4,-3.5 5.85,-3.5 H 6 q 2.25,0.15 3.8,4.25 1.15,3.05 1.15,4.45 V 6.3 Q 10.75,7.35 9.85,7.35 8.9,7.35 7.4,5.4 L 5.9,3.15 3.85,0.85 Q 2.9,-0.55 2.9,-1.4 M 10.95,8.9 H 10.9 L 10.65,8.85 10.35,8.3 q 0,-0.55 0.55,-0.6 0.6,0 0.6,0.6 0.15,0.6 -0.55,0.6 m -18.1,1.5 h -4.6 l -0.7,0.05 -0.5,-0.05 V 9.95 h 0.1 L -10,9.8 H 4.35 l -0.8,0.1 9.35,-0.1 -0.05,0.8 h -0.6 L 11.3,10.55 7.55,10.5 4.15,10.35 -1.35,10.4 h -5.8 M -2.5,-4 v 0.15 l -0.05,0.25 -0.5,-0.15 h -0.1 l -0.6,-0.25 -0.5,-0.15 -0.1,-0.05 0.1,-0.05 0.1,-0.1 1.2,0.3 L -2.5,-4 M -9.45,4.75 -9.6,6.6 q -0.25,1.85 -0.8,1.85 -1.1,0 -1.05,-3 0,-2 1,-2.4 1,-0.4 1,1.7"
         fill="#ffffff"
         fill-rule="evenodd"
         stroke="none"
         id="path9" />
    </g>
    <g
       id="shape2"
       transform="translate(21.15,14)">
      <path
         d="m 9.9,-6.75 0.15,0.4 V -6.3 L 10.4,-6.6 10.85,-6.9 10.5,-7.45 10.25,-7.9 V -7.95 Q 9.9,-7.4 9.9,-6.75 M 0.1,-9.4 v 0.15 h 0.65 l 0.4,0.1 q 3.05,0.8 5.05,1.9 l 2,1.3 -0.05,-0.8 q 0,-1.85 2.15,-3.85 2.2,-2.05 2.2,-0.15 l -0.5,0.8 q -0.5,0.5 -0.5,0.95 v 0.1 q 0.65,-0.95 2.7,0.5 2.95,2.15 2.95,3.9 l -0.25,0.8 q -0.45,0.75 -1.55,0.75 L 14.8,-3 l -1.15,1 -1.6,1.3 0.5,1.35 0.9,2.9 Q 14,5.7 14,8.75 V 8.9 l -0.05,2.4 q -0.4,2.3 -1.9,2.75 H -14.1 Q -15.65,13.6 -16,11.3 L -16.05,9.1 -16.15,8.9 -16.2,8.8 -17,7.05 -18.25,5.5 -19.5,3.9 -21,0.4 -21.15,-2.45 q 0,-6.5 6,-6.6 2.2,0 4.1,0.9 1.4,0.7 1.7,1.5 l 1.05,-0.6 q 2,-1.1 5.05,-1.9 l 0.4,-0.1 H -2.2 V -9.4 Q -3,-9.65 -3.35,-10.3 l -0.25,-1.2 q 0,-2.6 2.55,-2.5 2.6,-0.1 2.6,2.5 l -0.3,1.2 -1.15,0.9 m 1.6,2.25 -0.55,-0.2 -0.4,-0.15 -1,-0.05 h -0.8 l -1.7,0.05 h -0.1 l -0.1,0.05 -0.1,0.05 -0.2,0.05 -0.3,0.1 -0.15,0.05 -0.3,0.1 -0.15,0.05 -0.1,0.05 -0.35,0.1 -0.55,0.2 H -5.2 l -0.5,0.2 q -0.2,0.1 0.55,0.45 l 0.55,0.2 0.9,0.3 0.35,0.05 0.6,0.05 H -2.65 0.6 0.9 1 1.05 l 0.3,-0.05 0.2,-0.05 H 1.6 L 1.8,-5.6 2.55,-5.85 2.7,-5.9 H 2.75 L 2.8,-5.95 3.05,-6.05 3.3,-6.15 H 3.35 L 3.5,-6.25 3.65,-6.5 3.3,-6.6 3.15,-6.65 3.1,-6.7 2.9,-6.75 2.35,-6.95 2.15,-7 1.7,-7.15 M 4.25,-4.75 4.45,-4.9 4.55,-5 4.65,-5.1 4.9,-5.25 5.05,-5.4 5.35,-5.6 5.3,-5.65 5.15,-5.7 4.9,-5.5 4.75,-5.35 H 4.7 L 4.4,-5.15 4.05,-5 4,-4.95 l -0.25,0.1 -0.2,0.1 -0.2,0.05 -0.1,0.05 H 3.15 L 2.6,-4.5 2.05,-4.35 H 1.9 L 1.55,-4.25 1.2,-4.2 H 1.05 L 0.9,-4.15 -0.05,-4.1 -0.8,-4.05 H -0.9 -1.05 -1.8 L -2,-4.1 H -2.45 L -3.5,-4.25 -3.95,-4.3 -5.15,-4.6 -5.8,-4.85 Q -6.6,-5.2 -7.05,-5.5 l -0.2,-0.2 -0.15,0.05 -0.25,0.15 0.5,0.2 0.35,0.15 1.45,0.7 0.1,0.05 0.5,0.15 0.6,0.25 h 0.1 l 0.5,0.15 0.95,0.15 h 0.05 0.1 l 0.35,0.05 h 0.45 0.3 0.55 0.7 L 1.3,-3.8 1.6,-3.85 2,-3.95 2.8,-4.2 H 2.85 L 3.2,-4.3 3.3,-4.35 3.5,-4.45 3.8,-4.55 4.2,-4.7 4.25,-4.75 M 3.6,-3.7 3.35,-3.65 3.3,-3.6 2.5,-3.35 2,-3.2 H 1.9 L 1.6,-3.1 0.4,-2.8 0.15,-2.7 H -2.9 l -0.65,-0.15 h -0.1 l -0.6,-0.2 -0.2,-0.05 -0.2,-0.05 h -0.1 L -4.85,-3.2 -5.45,-3.35 -5.7,-3.4 -5.95,-3.5 H -6 l -0.1,-0.05 h -0.1 q -1.45,-0.5 -2.1,-0.95 l -0.3,-0.3 -0.1,0.05 -0.05,0.05 -1.4,1.25 -1.65,2.35 -0.65,1.75 -1.05,3.3 q -0.45,2 -0.45,4.75 V 8.9 9 H 11.9 V 8.9 8.7 q 0,-2.75 -0.5,-4.75 L 10.35,0.65 9.75,-1.1 Q 9.3,-2.15 8.05,-3.45 L 6.6,-4.75 6.35,-4.9 6.25,-5 5.9,-4.75 5.85,-4.7 4.7,-4.1 4.35,-4 3.95,-3.85 3.65,-3.75 3.6,-3.7 m 9.05,-3.45 v 0.05 l 2.35,2.7 0.45,-0.4 -1.25,-1.9 -1,-0.9 -0.55,0.45 m -1.6,4.1 0.1,0.15 0.35,0.75 v 0.05 l 1.65,-1.45 0.55,-0.4 -0.5,-0.5 -0.1,-0.1 -0.25,-0.25 -0.3,-0.25 -0.2,-0.2 -0.5,-0.55 -0.6,0.6 q -0.6,0.65 -1.1,0.95 l 0.45,0.5 0.3,0.45 0.15,0.25 m 0.5,14.35 -25.25,-0.05 0.5,0.7 h 24.3 l 0.45,-0.65 m -27.4,-17 q -1.7,0 -2.4,1.4 -0.4,0.8 -0.4,1.65 0,1.35 1.7,4.8 l 1.15,2.55 0.25,-1.15 0.9,-2.9 1.05,-2.8 1.05,-1.8 v -0.1 l -0.25,-1.15 -0.1,-0.05 -2.95,-0.45 m 27.7,16.05 0.05,-0.8 -9.35,0.1 0.8,-0.1 H -11 l -2.95,0.15 v 0.45 l 0.05,0.25 25.75,-0.05 M -1.7,-11.4 l 0.65,0.2 0.7,-0.2 Q 0,-11.55 0,-11.8 q 0,-0.7 -1.05,-0.7 -1.05,0 -1.05,0.7 l 0.4,0.4"
         fill="#6b6b6b"
         fill-rule="evenodd"
         stroke="none"
         id="path10" />
      <path
         d="m 13.1,-4.55 0.1,0.1 0.5,0.5 -0.55,0.4 -1.65,1.45 v -0.05 l -0.35,-0.75 -0.1,-0.15 q 1,-0.2 2.05,-1.5 m -2.5,0.8 -0.45,-0.5 q 0.5,-0.3 1.1,-0.95 l 0.6,-0.6 0.5,0.55 -0.45,0.3 -1.3,1.2"
         fill="#cccccc"
         fill-rule="evenodd"
         stroke="none"
         id="path11" />
      <path
         d="m 12.65,-7.15 0.55,-0.45 1,0.9 1.25,1.9 L 15,-4.4 12.65,-7.1 V -7.15 M -1.7,-11.4 -2.1,-11.8 q 0,-0.7 1.05,-0.7 1.05,0 1.05,0.7 0,0.25 -0.35,0.4 l -0.7,0.2 -0.65,-0.2"
         fill="#999999"
         fill-rule="evenodd"
         stroke="none"
         id="path12" />
      <path
         d="m 13.1,-4.55 q -1.05,1.3 -2.05,1.5 l -0.15,-0.25 -0.3,-0.45 1.3,-1.2 0.45,-0.3 0.2,0.2 0.3,0.25 0.25,0.25"
         fill="#ffffff"
         fill-rule="evenodd"
         stroke="none"
         id="path13" />
    </g>
  </defs>
</svg>
