<?xml version="1.0" encoding="UTF-8" standalone="no"?>
<svg
   ffdec:objectType="frame"
   height="140.60001"
   width="71.849998"
   version="1.1"
   id="svg30"
   sodipodi:docname="2.svg"
   xmlns:inkscape="http://www.inkscape.org/namespaces/inkscape"
   xmlns:sodipodi="http://sodipodi.sourceforge.net/DTD/sodipodi-0.dtd"
   xmlns:xlink="http://www.w3.org/1999/xlink"
   xmlns="http://www.w3.org/2000/svg"
   xmlns:svg="http://www.w3.org/2000/svg"
   xmlns:ffdec="https://www.free-decompiler.com/flash">
  <sodipodi:namedview
     id="namedview30"
     pagecolor="#ffffff"
     bordercolor="#000000"
     borderopacity="0.25"
     inkscape:showpageshadow="2"
     inkscape:pageopacity="0.0"
     inkscape:pagecheckerboard="0"
     inkscape:deskcolor="#d1d1d1"
     fit-margin-top="5"
     fit-margin-left="5"
     fit-margin-right="5"
     fit-margin-bottom="5" />
  <g
     transform="translate(35.8,74.6)"
     id="g6">
    <use
       ffdec:characterId="1388"
       height="43.200001"
       transform="matrix(0.9699,0,0,1.3894,-34.0014,-55.6937)"
       width="69.75"
       xlink:href="#sprite0"
       id="use1" />
    <use
       ffdec:characterId="44"
       height="8"
       transform="matrix(0.866,0.5,-0.5,0.866,-24.7764,-14.064)"
       width="10.8"
       xlink:href="#sprite1"
       id="use2" />
    <use
       ffdec:characterId="1390"
       height="140.60001"
       transform="translate(-35.8,-74.6)"
       width="71.849998"
       xlink:href="#shape2"
       id="use3" />
    <use
       ffdec:characterId="1379"
       height="14.75"
       transform="matrix(0.7702,0,0,0.7702,-28.65,21.7891)"
       width="16.1"
       xlink:href="#sprite2"
       id="use4" />
    <use
       ffdec:characterId="1379"
       height="14.75"
       transform="translate(-18.15,32.5)"
       width="16.1"
       xlink:href="#sprite2"
       id="use5" />
    <use
       ffdec:characterId="1379"
       height="14.75"
       transform="matrix(0.7702,0,0,0.7702,10.8,28.6391)"
       width="16.1"
       xlink:href="#sprite2"
       id="use6" />
  </g>
  <defs
     id="defs30">
    <g
       id="sprite0"
       transform="translate(34.85,15.65)">
      <use
         ffdec:characterId="1387"
         height="43.200001"
         transform="translate(-34.85,-15.65)"
         width="69.75"
         xlink:href="#shape0"
         id="use7" />
    </g>
    <g
       id="shape0"
       transform="translate(34.85,15.65)">
      <path
         d="M 32.65,-14.55 33,-14 q 0,0.55 -0.4,1.1 -0.5,0.7 -1.3,0.65 h -1.25 l -0.05,0.2 v 0.1 h 4.9 l -0.1,9.25 v 26.85 h -0.85 l 0.6,0.65 0.25,0.9 q 0,1.6 -1.75,1.75 l -58.15,0.05 -8.55,-0.6 q -0.95,-0.35 -0.95,-1.2 0,-0.9 0.95,-1.2 l 1.6,-0.35 h -2.7 V -2.7 l -0.1,-9.25 h 4.9 v -0.1 -0.2 h -2.2 q -1.3,0.05 -1.7,-0.65 -0.2,-0.3 -0.2,-1.1 0,-1.3 1.9,-1.6 h 2.9 l 0.25,-0.05 0.25,0.05 H 28.8 l 0.25,-0.05 0.25,0.05 h 2 l 1.35,1.05 m -4.6,2.8 H -28 v 0.2 0.15 0.65 l -0.05,2.65 4.35,-0.15 h 47.45 l 4.35,0.15 -0.05,-2.65 v -0.65 -0.15 -0.2 m 2,0.95 -0.15,2.95 v 31.8 h 1.7 v -35.7 H 30 l 0.05,0.95 m -2,-1.45 H -28 v 0.3 h 56.05 v -0.3 m 0.1,5.8 H -28.1 V 23.9 l 3,-0.05 53.25,0.1 v -30.4 m -58.1,-5.3 h -1.6 V 24.1 l 1.7,-0.15 v -31.8 l -0.15,-2.95 0.05,-0.95"
         fill="#9a9a9a"
         fill-rule="evenodd"
         stroke="none"
         id="path7" />
      <path
         d="m 28.05,-11.75 v 0.2 0.15 0.65 L 28.1,-8.1 23.75,-8.25 H -23.7 l -4.35,0.15 0.05,-2.65 v -0.65 -0.15 -0.2 h 56.05"
         fill="#c1c1c1"
         fill-rule="evenodd"
         stroke="none"
         id="path8" />
      <path
         d="M 30.05,-10.8 30,-11.75 h 1.6 v 35.7 h -1.7 v -31.8 l 0.15,-2.95 m -60,-0.95 -0.05,0.95 0.15,2.95 v 31.8 l -1.7,0.15 v -35.85 h 1.6 m 58.1,5.3 v 30.4 l -53.25,-0.1 -3,0.05 V -6.45 h 56.25"
         fill="#adadad"
         fill-rule="evenodd"
         stroke="none"
         id="path9" />
    </g>
    <g
       id="sprite1"
       transform="translate(5.4,4)">
      <use
         ffdec:characterId="43"
         height="8"
         transform="translate(-5.4,-4)"
         width="10.8"
         xlink:href="#shape1"
         id="use9" />
    </g>
    <g
       id="shape1"
       transform="translate(5.4,4)">
      <path
         d="m 2.9,-0.35 q 0,-1.25 1.25,-1.25 1.25,0 1.25,1.2 0,1.3 -1.25,1.3 Q 3.6,0.9 3.25,0.5 2.9,0.15 2.9,-0.35 m 0.35,-2.3 q 0,0.55 -0.35,0.9 -0.4,0.45 -1,0.45 -1.35,0 -1.35,-1.4 0,-1.3 1.35,-1.3 1.35,0 1.35,1.35 m -3.1,1.9 h 0.2 q 2.6,0.1 2.6,2.8 l -0.3,1 Q 2.05,4 0.45,4 H 0.35 0.15 0.1 -0.45 q -1.6,0 -2.2,-0.95 l -0.3,-1 q 0,-2.8 2.8,-2.8 h 0.3 M -1.55,-4 q 1.35,0 1.35,1.35 0,0.55 -0.4,0.9 -0.4,0.45 -0.95,0.45 -1.4,0 -1.4,-1.4 0,-1.3 1.4,-1.3 m -2.6,2.4 q 1.25,0 1.25,1.25 0,0.5 -0.35,0.85 -0.35,0.4 -0.9,0.4 -1.25,0 -1.25,-1.3 0,-1.2 1.25,-1.2"
         fill="#9a9a9a"
         fill-rule="evenodd"
         stroke="none"
         id="path10" />
    </g>
    <g
       id="shape2"
       transform="translate(35.8,74.6)">
      <path
         d="m 33.65,-74.45 q 1.55,0.5 1.55,1.5 0.15,0.8 -0.3,1.25 l 0.1,0.8 -0.1,1.15 0.05,0.2 0.2,5.95 -0.1,4.65 H 35 v 2.3 0.9 1.3 l -0.05,1.75 v 0.35 1.45 H 34.5 l -0.05,0.3 0.15,0.1 q 0,1.1 -1.15,1.2 l -64.5,0.05 -2.8,-0.35 -0.3,-0.1 -0.4,-0.3 -0.1,-0.9 h -0.15 v -1.45 -0.35 l -0.05,-1.75 v -1.3 -0.9 -2.3 l -0.15,-4.65 0.25,-5.95 v -0.2 l -0.1,-1.15 0.1,-0.8 q -0.45,-0.45 -0.3,-1.25 0,-1 1.55,-1.5 h 0.25 q 0.25,-0.3 0.6,0 H 32.8 q 0.35,-0.3 0.6,0 h 0.25 m -1.95,4.5 v -1.35 h -2.5 -9.9 -0.45 -50.4 v 12.35 h 0.6 1.2 0.55 6.7 l 16.45,-0.1 -1.75,0.1 h 37.25 l -0.1,-0.1 -1.85,-0.05 h 0.95 l 3.25,-0.05 v -10.8 m -60.85,6.1 -0.15,-0.5 0.25,-1.65 q 0.7,-2.15 3.5,-2.35 3.75,-0.2 3.75,3.35 0,1.15 -0.55,2.1 -0.8,1.35 -2.35,1.35 -2.15,0 -3.55,-1.25 l -0.9,-1.05 m 36.75,-5.3 q 0.1,-0.4 0.6,-0.6 h 20.4 l 0.55,0.45 0.05,0.15 0.4,0.85 h 0.15 v 1.3 0.3 1.1 2.4 l -0.05,0.7 q -0.15,1.15 -0.75,1.65 l -0.25,-0.1 h -0.1 l -7.25,0.05 v 0.05 H 20.25 19.9 19.4 15.45 V -60.9 L 8.2,-60.95 H 8.1 l -0.25,0.1 q -0.6,-0.5 -0.75,-1.65 l -0.05,-0.7 v -2.4 -1.1 -0.3 -1.3 H 7.2 l 0.4,-0.85 m 1,6.8 6.85,-0.05 v -0.05 h 5.9 v 0.05 l 6.85,0.05 V -68.3 H 8.6 v 5.95 m 23.1,5 h -2.25 l -3.55,0.05 h -8.4 v 0.1 h -1.4 -21.45 -0.1 -7.85 v -0.1 h 6.6 l -0.75,-0.05 h -24.1 v 1.65 H 31.7 v -1.65 m -0.05,3.85 H 19.3 18.85 -31.5 v 1.25 l 63.15,-0.2 v -1.05 m -2.35,-3.75 -0.05,0.05 -2.5,-0.05 h 2.55 m -9,-1.95 3.65,0.1 -6.5,-0.05 2.85,-0.05 M 32.25,19.3 Q 32.1,18.05 32.1,16.3 L 32.2,6.35 V -3.8 h 3.15 V 6.45 l 0.2,9.7 -0.15,3.15 h -3.15 m 2.45,2.75 -0.9,0.6 q -0.5,0 -0.85,-0.6 h 1.75 m -61.15,-85.65 1.45,0.3 q 1.2,0 1.5,-0.8 0.2,-0.4 0.1,-0.85 0,-1.3 -2.2,-1.6 -2.25,-0.35 -2.25,1.9 0,0.6 1.4,1.05 m 10.1,4.45 -6.15,0.05 v -0.05 l 2.35,-0.05 3.8,0.05 m 0.4,-7.15 q -1.4,0.45 -1.4,1.05 0,2.25 2.25,1.9 2.2,-0.3 2.2,-1.6 0.1,-0.45 -0.1,-0.85 -0.3,-0.8 -1.5,-0.8 l -1.45,0.3 m 1.75,-2.05 q 1.55,0 2.35,1.35 0.55,0.95 0.55,2.1 0,3.55 -3.75,3.35 -3.75,-0.25 -3.75,-4 0,-0.65 1.05,-1.55 1.4,-1.25 3.55,-1.25 m 8.15,9.3 0.7,-0.05 2.85,0.05 h -3.55 m -28.2,78.35 -0.15,-3.15 0.2,-9.7 V -3.8 h 3.2 l -0.05,10.15 0.1,9.95 -0.1,3 h -3.2 m 2.5,2.75 q -0.4,0.6 -0.9,0.6 -0.5,0 -0.85,-0.6 h 1.75"
         fill="#6b6b6b"
         fill-rule="evenodd"
         stroke="none"
         id="path11" />
      <path
         d="m 8.6,-62.35 v -5.95 h 19.6 v 5.95 l -6.85,-0.05 v -0.05 h -5.9 v 0.05 l -6.85,0.05"
         fill="#707070"
         fill-rule="evenodd"
         stroke="none"
         id="path12" />
      <path
         d="m -26.45,-63.6 q -1.4,-0.45 -1.4,-1.05 0,-2.25 2.25,-1.9 2.2,0.3 2.2,1.6 0.1,0.45 -0.1,0.85 -0.3,0.8 -1.5,0.8 l -1.45,-0.3 m 10.5,-2.7 1.45,-0.3 q 1.2,0 1.5,0.8 0.2,0.4 0.1,0.85 0,1.3 -2.2,1.6 -2.25,0.35 -2.25,-1.9 0,-0.6 1.4,-1.05"
         fill="#b9b9b9"
         fill-rule="evenodd"
         stroke="none"
         id="path13" />
      <path
         d="m 32.25,19.3 h 3.15 q -0.25,1.95 -0.7,2.75 h -1.75 q -0.5,-0.8 -0.7,-2.75 m -66.5,0 h 3.2 q -0.25,1.95 -0.7,2.75 h -1.75 q -0.5,-0.8 -0.75,-2.75"
         fill="#e9e9e9"
         fill-rule="evenodd"
         stroke="none"
         id="path14" />
      <path
         d="m 31.7,-69.95 v 10.8 l -3.25,0.05 H 27.5 l 1.85,0.05 0.1,0.1 H -7.8 l 1.75,-0.1 -16.45,0.1 h -6.7 -0.55 l 0.1,-0.15 q 0.3,-0.6 0.3,-1.35 l 0.2,-3.4 0.9,1.05 q 1.4,1.25 3.55,1.25 1.55,0 2.35,-1.35 0.55,-0.95 0.55,-2.1 0,-3.55 -3.75,-3.35 -2.8,0.2 -3.5,2.35 -0.1,-2.1 -0.6,-3.1 L 7.6,-69.15 7.2,-68.3 H 7.05 v 1.3 0.3 1.1 2.4 l 0.05,0.7 q 0.15,1.15 0.75,1.65 l 0.25,-0.1 h 0.1 l 7.25,0.05 v 0.05 h 3.95 0.5 0.35 1.1 v -0.05 l 7.25,-0.05 h 0.1 l 0.25,0.1 q 0.6,-0.5 0.75,-1.65 l 0.05,-0.7 v -2.4 -1.1 -0.3 -1.3 H 29.6 l -0.4,-0.85 -0.05,-0.15 2.55,-0.65 m -11.4,10.75 -2.85,0.05 6.5,0.05 -3.65,-0.1 m -36.65,0.05 -3.8,-0.05 -2.35,0.05 v 0.05 l 6.15,-0.05 m 2.15,-9.2 q -2.15,0 -3.55,1.25 -1.05,0.9 -1.05,1.55 0,3.75 3.75,4 3.75,0.2 3.75,-3.35 0,-1.15 -0.55,-2.1 -0.8,-1.35 -2.35,-1.35 m 8.15,9.3 h 3.55 l -2.85,-0.05 -0.7,0.05"
         fill="#918a7c"
         fill-rule="evenodd"
         stroke="none"
         id="path15" />
      <path
         d="m -29.75,-58.95 h -1.2 -0.6 V -71.3 h 50.4 0.45 9.9 2.5 v 1.35 l -2.55,0.65 -0.55,-0.45 H 8.2 q -0.5,0.2 -0.6,0.6 l -37.25,0.05 q 0.5,1 0.6,3.1 l -0.25,1.65 0.15,0.5 -0.2,3.4 q 0,0.75 -0.3,1.35 l -0.1,0.15"
         fill="#a09887"
         fill-rule="evenodd"
         stroke="none"
         id="path16" />
      <path
         d="m 31.65,-53.5 v 1.05 l -63.15,0.2 v -1.25 h 50.35 0.45 12.35"
         fill="#857e71"
         fill-rule="evenodd"
         stroke="none"
         id="path17" />
      <path
         d="m 31.7,-57.35 v 1.65 h -63.25 v -1.65 h 24.1 l 0.75,0.05 h -6.6 v 0.1 h 7.85 0.1 21.45 1.4 v -0.1 h 8.4 l 3.55,-0.05 h 2.25 m -2.4,0.1 h -2.55 l 2.5,0.05 0.05,-0.05"
         fill="#dac3c3"
         fill-rule="evenodd"
         stroke="none"
         id="path18" />
      <path
         d="m 8.3,-4.6 q 0.25,-0.35 0.85,-0.5 l 16.9,-0.05 q 1.05,0.55 1.05,1 l -0.1,0.2 h 0.7 l 5.45,0.15 1.5,0.2 0.1,0.05 0.3,-0.05 q 1,0.1 1,3.8 V 1.8 Q 36,3 35.5,3.3 V 65.1 L 35.25,65.4 35,66 H -34.7 L -35,65.4 -35.25,65.1 V 3.3 Q -35.75,3 -35.8,1.8 V 0.2 q 0,-3.7 1,-3.8 l 0.3,0.05 0.1,-0.05 1.55,-0.2 5.4,-0.15 h 0.7 l -0.1,-0.2 q 0,-0.45 1.05,-1 l 16.9,0.05 q 0.6,0.15 0.85,0.5 l 0.2,0.4 v 0.25 H 8.1 V -4.2 L 8.3,-4.6 M 31.85,1.15 V 1.1 L 31.8,0.7 31.85,-0.65 Q 23.5,-0.75 17.75,-0.5 H -17.5 q -5.75,-0.25 -14.1,-0.15 l 0.05,1.35 -0.05,0.4 V 1.6 H 31.85 V 1.15 m -62.2,16.8 H 32.2 V 6.35 L 32.15,5.7 V 5.25 l -0.1,-1.1 H -31.8 l -0.05,0.85 -0.05,0.7 -0.05,0.65 0.05,11.6 h 1.55 m 3.45,-5.85 -0.3,-0.1 -0.1,-0.2 -0.45,-0.8 -0.05,-1.05 0.05,-0.8 -0.1,-0.5 v -0.4 l 0.15,-0.1 H -4.6 V 8.1 l 1.4,0.05 h 0.5 3 3.05 0.5 L 5.2,8.1 v 0.05 h 22.75 l 0.15,0.1 v 0.4 l -0.1,0.5 0.05,0.3 v 0.4 0.1 L 28,11 27.55,11.8 27.45,12 27.35,12.05 27,12.1 h -53.75 -0.15 m 53.4,-1.95 v -0.2 -0.1 -0.5 h -52.75 v 0.4 0.1 0.2 l -0.1,0.95 7.7,-0.15 8.3,0.05 H -7.6 L 3.45,10.85 H 7.15 7.5 11 12.95 18.9 L 26.6,11 v -0.05 l -0.05,-0.5 -0.05,-0.3 m 5.7,11.9 V 20.2 H 1.05 v 1.85 L 1.1,36.8 v 12.8 l -0.15,1.5 h 31.2 L 32.2,45.95 V 36.8 22.05 M 32.1,54 h 0.05 V 53.3 53.05 H -31.9 V 53.3 54 h 0.05 v 0.9 l 27.2,0.05 H 0.3 5.25 L 32.1,54.9 V 54 m 0,3.45 V 56.1 L 5.25,56.05 H 0.3 l -32.15,0.05 v 6.65 l 1.35,-0.1 h 4.3 52.65 q 3.7,-0.15 5.65,0.1 v -5.3 M -0.7,22.05 V 20.2 L -31.9,20.15 V 51.1 h 1.65 29.5 l -0.05,-0.15 -0.05,-1.4 0.15,-2.5 v -25"
         fill="#6b6b6b"
         fill-rule="evenodd"
         stroke="none"
         id="path19" />
      <path
         d="m -31.6,1.1 0.05,-0.4 -0.05,-1.35 q 8.35,-0.1 14.1,0.15 h 35.25 q 5.75,-0.25 14.1,-0.15 L 31.8,0.7 31.85,1.1 V 1.15 L -31.45,1.1 H -31.6 M 28.05,9.45 28.1,9.6 28.05,9.85 v -0.4 m -1.5,1 H 26.5 v -0.3 l 0.05,0.3"
         fill="#e9e9e9"
         fill-rule="evenodd"
         stroke="none"
         id="path20" />
      <path
         d="M 27.35,12.05 V 12.1 H 27 l 0.35,-0.05"
         fill="#b9b9b9"
         fill-rule="evenodd"
         stroke="none"
         id="path21" />
      <path
         d="m -31.6,1.1 h 0.15 l 63.3,0.05 V 1.6 H -31.6 V 1.1 m 1.2,4 v 0.3 l -0.05,-0.3 h 0.05 m 0.25,52.45 -0.1,-0.25 h 0.1 v 0.25"
         fill="#cccccc"
         fill-rule="evenodd"
         stroke="none"
         id="path22" />
      <path
         d="m 26.55,10.45 0.05,0.5 V 11 L 18.9,10.85 H 12.95 11 7.5 7.15 3.45 L -7.6,10.9 h -2.75 l -8.3,-0.05 -7.7,0.15 0.1,-0.95 V 9.85 9.75 9.35 H 26.5 v 0.5 0.1 0.2 0.3 h 0.05"
         fill="#707070"
         fill-rule="evenodd"
         stroke="none"
         id="path23" />
      <path
         d="M 14.35,29.15 V 29.2 L 14.1,29.15 h 0.25 m -28.45,0 h 0.25 l -0.25,0.05 v -0.05"
         fill="#7b7b7b"
         fill-rule="evenodd"
         stroke="none"
         id="path24" />
      <path
         d="M 32.15,5.25 V 5.7 l 0.05,0.65 v 11.6 h -62.55 l -0.05,-1 V 5.4 5.1 L 32.15,5.25 M 28.05,9.45 28,9.15 28.1,8.65 V 8.25 L 27.95,8.15 H 5.2 V 8.1 L 3.85,8.15 H 3.35 0.3 -2.7 -3.2 L -4.6,8.1 v 0.05 h -23.1 l -0.15,0.1 v 0.4 l 0.1,0.5 -0.05,0.8 0.05,1.05 0.45,0.8 0.1,0.2 0.3,0.1 v 0.05 l 0.25,0.75 q 0.5,0.55 2.35,0.45 l 49.55,0.4 q 2.1,0 2.1,-1.5 V 12.1 12.05 L 27.45,12 27.55,11.8 28,11 28.05,9.95 V 9.85 L 28.1,9.6 28.05,9.45 m 4.05,48 v 5.3 q -1.95,-0.25 -5.65,-0.1 h -52.65 -4.3 l 0.05,-0.45 v -1.3 h 0.5 v -0.75 q 0.1,-1.65 -0.2,-2.6 V 57.3 l 62.25,0.15"
         fill="#918a7c"
         fill-rule="evenodd"
         stroke="none"
         id="path25" />
      <path
         d="M -30.35,17.95 H -31.9 L -31.95,6.35 -31.9,5.7 -31.85,5 -31.8,4.15 h 63.85 l 0.1,1.1 L -30.4,5.1 h -0.05 l 0.05,0.3 v 11.55 l 0.05,1 m -0.15,44.7 -1.35,0.1 V 56.1 L 0.3,56.05 H 5.25 L 32.1,56.1 v 1.35 L -30.15,57.3 h -0.1 l 0.1,0.25 q 0.3,0.95 0.2,2.6 v 0.75 h -0.5 v 1.3 l -0.05,0.45"
         fill="#a09887"
         fill-rule="evenodd"
         stroke="none"
         id="path26" />
      <path
         d="m 27.35,12.1 v 0.15 q 0,1.5 -2.1,1.5 l -49.55,-0.4 q -1.85,0.1 -2.35,-0.45 L -26.9,12.15 V 12.1 H -26.75 27 27.35 M 32.1,54 v 0.9 L 5.25,54.95 H 0.3 -4.65 L -31.85,54.9 V 54 H -31.9 V 53.3 53.05 H 32.15 V 53.3 54 H 32.1"
         fill="#857e71"
         fill-rule="evenodd"
         stroke="none"
         id="path27" />
      <path
         d="M 1.05,22.05 H 32.2 V 36.8 45.95 L 32.15,51.1 H 0.95 L 1.1,49.6 V 36.8 L 1.05,22.05 m 13.3,7.1 H 14.1 l 0.25,0.05 V 29.15 M -0.7,22.05 v 25 l -0.15,2.5 0.05,1.4 0.05,0.15 h -29.5 v -0.45 -1.3 -3.4 -12.35 l -0.05,-1.4 0.05,-1.35 v -8.8 H -0.7 m -13.4,7.1 v 0.05 l 0.25,-0.05 h -0.25"
         fill="#cbb3b3"
         fill-rule="evenodd"
         stroke="none"
         id="path28" />
      <path
         d="M 1.05,22.05 V 20.2 H 32.2 v 1.85 H 1.05 M -30.25,51.1 H -31.9 V 20.15 l 31.2,0.05 v 1.85 h -29.55 v 8.8 l -0.05,1.35 0.05,1.4 v 12.35 3.4 1.3 0.45"
         fill="#dac3c3"
         fill-rule="evenodd"
         stroke="none"
         id="path29" />
    </g>
    <g
       id="sprite2"
       transform="translate(8.05,7.35)">
      <use
         ffdec:characterId="1378"
         height="14.75"
         transform="translate(-8.05,-7.35)"
         width="16.1"
         xlink:href="#shape3"
         id="use29" />
    </g>
    <g
       id="shape3"
       transform="translate(8.05,7.35)">
      <path
         d="m 3.75,-7.25 q 1.4,0.5 1.4,2.3 l -0.15,0.8 -0.85,1 -1.05,1 -1.15,0.8 0.15,0.3 0.15,0.35 q 1.35,-1 3.2,-1.2 2.6,-0.3 2.6,2.35 l -0.4,0.8 Q 7,2.1 5.85,2.1 L 3.4,1.55 2.3,1.05 2,1.55 1.9,1.75 2.95,2.4 4.15,3.35 4.85,4.25 5,5.15 4.8,6.35 Q 4.45,7.4 3.45,7.4 1.95,7.4 1.25,6.55 L 0.95,5.95 0.9,5.6 Q 0.35,4.1 0.35,3.65 v -0.7 l 0.1,-0.5 -0.4,0.05 h -0.1 l -0.4,-0.05 0.05,0.5 v 0.7 q 0,0.45 -0.55,1.95 L -1,5.95 -1.3,6.55 q -0.65,0.85 -2.15,0.85 -1,0 -1.4,-1.05 l -0.2,-1.2 0.15,-0.9 0.75,-0.9 1.2,-0.95 1.05,-0.65 -0.15,-0.2 -0.25,-0.5 -1.1,0.5 -2.5,0.55 q -1.15,0 -1.75,-0.85 l -0.4,-0.8 q 0,-2.65 2.6,-2.35 1.85,0.2 3.2,1.2 l 0.1,-0.35 0.2,-0.3 -1.15,-0.8 -1.1,-1 -0.8,-1 -0.15,-0.8 q 0,-1.8 1.4,-2.3 1.35,-0.45 2.35,0.95 0.35,0.45 0.65,1.65 0.3,1.2 0.3,1.9 v 0.5 L -0.4,-2.3 0,-2.4 0.4,-2.25 H 0.45 L 0.4,-2.75 0.7,-4.65 1.4,-6.3 q 1,-1.4 2.35,-0.95"
         fill="#6b6b6b"
         fill-rule="evenodd"
         stroke="none"
         id="path30" />
    </g>
  </defs>
</svg>
