<?xml version="1.0" encoding="UTF-8" standalone="no"?>
<svg
   ffdec:objectType="frame"
   height="112.63571"
   width="41.400002"
   version="1.1"
   id="svg22"
   sodipodi:docname="2.svg"
   xmlns:inkscape="http://www.inkscape.org/namespaces/inkscape"
   xmlns:sodipodi="http://sodipodi.sourceforge.net/DTD/sodipodi-0.dtd"
   xmlns:xlink="http://www.w3.org/1999/xlink"
   xmlns="http://www.w3.org/2000/svg"
   xmlns:svg="http://www.w3.org/2000/svg"
   xmlns:ffdec="https://www.free-decompiler.com/flash">
  <sodipodi:namedview
     id="namedview22"
     pagecolor="#ffffff"
     bordercolor="#000000"
     borderopacity="0.25"
     inkscape:showpageshadow="2"
     inkscape:pageopacity="0.0"
     inkscape:pagecheckerboard="0"
     inkscape:deskcolor="#d1d1d1"
     fit-margin-top="5"
     fit-margin-left="5"
     fit-margin-right="5"
     fit-margin-bottom="5" />
  <g
     transform="translate(20.7,58.85)"
     id="g6">
    <use
       ffdec:characterId="2699"
       height="45.549999"
       transform="translate(-18,-52.65)"
       width="35.549999"
       xlink:href="#shape0"
       id="use1" />
    <use
       ffdec:characterId="2582"
       height="13.45"
       transform="translate(-14.65,-40.55)"
       width="29.6"
       xlink:href="#sprite0"
       id="use2" />
    <use
       ffdec:characterId="2702"
       height="23.950001"
       transform="translate(-3.1,-33.25)"
       width="14.9"
       xlink:href="#sprite2"
       id="use3" />
    <use
       ffdec:characterId="2701"
       height="27.5"
       transform="matrix(-1,0,0,1,4.4,-46.05)"
       width="17.1"
       xlink:href="#sprite5"
       id="use4" />
    <use
       ffdec:characterId="2703"
       height="112.65"
       transform="translate(-20.7,-58.85)"
       width="41.400002"
       xlink:href="#shape4"
       id="use5" />
    <use
       ffdec:characterId="44"
       height="8"
       transform="translate(-16.7,42.05)"
       width="10.8"
       xlink:href="#sprite7"
       id="use6" />
  </g>
  <defs
     id="defs22">
    <g
       id="shape0"
       transform="translate(18,52.65)">
      <path
         d="m 17.55,-51.15 q 0,0.65 -1.1,1.4 -1.2,0.75 -1.3,1.9 l -0.2,3.05 1,1.2 q 0.95,1 0.95,1.4 0,1.05 -0.85,2 -0.9,0.9 -0.9,2.45 l 0.2,5.2 q 0,0.95 0.55,2.65 l 0.55,2.4 q 0,0.95 -0.65,1.95 -0.65,1.05 -0.65,2.8 0,1.5 1,2.35 0.95,0.85 0.95,2.7 0,2 -0.45,2.7 l -2.5,3.4 q -0.75,1.15 -4.6,2.55 -5.35,1.95 -12.35,1.95 -8.6,0 -12.7,-4.85 -2.5,-2.95 -2.5,-5.5 l 1.2,-3.55 q 1.15,-3 1.15,-3.95 l -0.4,-1.2 q -0.4,-0.8 -0.4,-1.3 l 0.55,-2 q 0.5,-1.45 0.5,-3.1 l 0.05,-4.95 q 0,-0.85 -0.85,-1.95 -0.85,-1.1 -0.85,-2.35 0,-0.55 0.75,-1.1 0.8,-0.6 1,-2 l 0.1,-3.1 -0.9,-0.8 q -0.95,-0.65 -0.95,-1.1 l 0.25,-1.65 -0.05,-0.15 q 0,-0.55 0.8,-0.9 l 32.05,0.1 1,0.05 q 0.55,0.45 0.55,1.3"
         fill="#6e8585"
         fill-opacity="0.4"
         fill-rule="evenodd"
         stroke="none"
         id="path6" />
    </g>
    <g
       id="sprite0"
       transform="translate(8.2,7.7)">
      <use
         ffdec:characterId="2581"
         ffdec:characterName="furniture_fla.lilfishcopy3_1106"
         height="13.6"
         transform="matrix(0.8268,0,0,0.8268,-7.1515,-6.4901)"
         width="19.049999"
         xlink:href="#sprite1"
         id="use7" />
    </g>
    <g
       id="sprite1"
       transform="translate(8.65,7.85)">
      <use
         ffdec:characterId="2572"
         height="9.1000004"
         transform="translate(-6.35,-4.55)"
         width="12.7"
         xlink:href="#shape1"
         id="use8" />
    </g>
    <g
       id="shape1"
       transform="translate(6.35,4.55)">
      <path
         d="M 2.5,-0.2 Q 2,-0.2 1.75,-0.7 l -0.1,-0.4 q 0,-0.7 0.85,-0.75 0.8,-0.1 0.8,0.75 L 3,-0.5 q -0.25,0.3 -0.5,0.3 m -2.4,-2.3 -0.75,1.1 -0.25,1.05 0.3,1.05 q 0.45,0.5 1.65,0.85 H 3.3 L 4.45,0.55 4.6,-0.5 Q 4.6,-1.15 3.5,-2 2.05,-3.05 0.1,-2.5 m -1.7,-1 q 1.35,-1.1 3.25,-1.05 4.7,0.15 4.7,5.1 0,1.1 -0.65,1.85 Q 4.6,3.65 2,3.65 H 1.9 V 3.9 L 1.25,4.55 h -1.5 Q -0.9,4.45 -0.9,3.8 L -0.45,3.35 Q -1.95,2.9 -2.6,1.8 V 1.65 Q -3.45,3.2 -4.9,3.2 L -5.55,2.85 -5.35,1.3 q 0,-1.3 -1,-3 0.45,-0.9 2.15,-0.45 l 1.4,0.45 q 0.3,-1.05 1.2,-1.8"
         fill="#6b6b6b"
         fill-rule="evenodd"
         stroke="none"
         id="path8" />
      <path
         d="m 0.1,-2.5 q 1.95,-0.55 3.4,0.5 1.1,0.85 1.1,1.5 L 4.45,0.55 3.3,1.55 H 1.05 Q -0.15,1.2 -0.6,0.7 L -0.9,-0.35 -0.65,-1.4 0.1,-2.5 m 2.4,2.3 q 0.25,0 0.5,-0.3 L 3.3,-1.1 Q 3.3,-1.95 2.5,-1.85 1.65,-1.8 1.65,-1.1 l 0.1,0.4 Q 2,-0.2 2.5,-0.2"
         fill="#a79a89"
         fill-rule="evenodd"
         stroke="none"
         id="path9" />
    </g>
    <g
       id="sprite2"
       transform="translate(5.8,21.15)">
      <use
         ffdec:characterId="2701"
         height="27.5"
         transform="matrix(0.8718,0,0,0.8718,-5.8013,-21.1577)"
         width="17.1"
         xlink:href="#sprite3"
         id="use9" />
    </g>
    <g
       id="sprite3"
       transform="translate(5.45,22.95)">
      <use
         ffdec:characterId="2700"
         height="5.25"
         transform="scale(0.7692)"
         width="5.0999999"
         xlink:href="#sprite4"
         id="use10" />
    </g>
    <g
       id="sprite4">
      <use
         ffdec:characterId="1852"
         height="5.25"
         width="5.0999999"
         xlink:href="#shape2"
         id="use11" />
    </g>
    <g
       id="shape2">
      <path
         d="M 3.4,1.1 2.1,1.2 1.55,2.05 Q 1.15,2.7 1.3,3.1 1.4,3.45 2.2,4 3,4.55 3.5,4.3 3.95,4.05 4.25,2.6 4.25,1.35 3.4,1.1 M 0.35,4.2 Q 0,3.6 0,2.9 0,0.55 2.55,0.1 5.1,-0.35 5.1,1.55 5.1,5.25 2.6,5.25 1,5.25 0.35,4.2"
         fill="#999999"
         fill-opacity="0.32549"
         fill-rule="evenodd"
         stroke="none"
         id="path11" />
    </g>
    <g
       id="sprite5"
       transform="translate(5.45,22.95)">
      <use
         ffdec:characterId="2700"
         height="5.25"
         transform="scale(0.7692)"
         width="5.0999999"
         xlink:href="#sprite6"
         id="use12" />
    </g>
    <g
       id="sprite6">
      <use
         ffdec:characterId="1852"
         height="5.25"
         width="5.0999999"
         xlink:href="#shape3"
         id="use13" />
    </g>
    <g
       id="shape3">
      <path
         d="M 3.4,1.1 2.1,1.2 1.55,2.05 Q 1.15,2.7 1.3,3.1 1.4,3.45 2.2,4 3,4.55 3.5,4.3 3.95,4.05 4.25,2.6 4.25,1.35 3.4,1.1 M 0.35,4.2 Q 0,3.6 0,2.9 0,0.55 2.55,0.1 5.1,-0.35 5.1,1.55 5.1,5.25 2.6,5.25 1,5.25 0.35,4.2"
         fill="#999999"
         fill-rule="evenodd"
         stroke="none"
         id="path13" />
    </g>
    <g
       id="shape4"
       transform="translate(20.7,58.85)">
      <path
         d="m -13.25,-56.45 q -1.85,0.3 -2.6,3.4 l -0.15,2.1 h -0.15 v 0.2 L -16.2,-50.1 -5.95,-50 0,-49.75 5.95,-50 16.2,-50.1 16.15,-50.75 v -0.2 H 16 l -0.15,-2.1 q -1.05,-4.4 -4.35,-3.2 H -6.95 -11.5 l -1.75,-0.2 m 31.5,1.5 0.2,0.5 v 4.75 l -0.15,0.7 -0.05,0.1 q -0.75,1.4 -2.25,1.45 v 1.25 l -0.1,1.05 q 1.15,0.2 1.55,1.7 l 0.2,1.8 -0.1,1.35 q -0.3,0.6 -1.55,1.25 H 15.75 L 15.9,-38 h 0.2 l 0.05,2.6 -0.05,2.45 v 0.35 0.5 0.1 H 16 l -0.25,1.95 H 16 q 1.25,0.65 1.55,1.25 l 0.1,1.35 -0.2,1.8 q -0.4,1.5 -1.55,1.7 l 0.1,1.05 v 1.25 q 1.55,0.05 2.3,1.55 l 0.55,2.65 h 0.1 v 0.5 0.1 H 18.9 v 0.2 q 0.15,0.8 -0.1,1.6 -0.55,1.75 -2.9,1.85 -0.1,1.5 -1.7,2.8 -1.15,1 -3,1.75 h 3.2 q 0.9,0.25 1.2,0.6 0.35,0.3 0.35,1 l -0.1,0.45 h 2.95 q 0.7,0.2 1.05,0.7 l 0.3,0.7 -0.15,0.65 0.1,0.2 V 6.6 l 0.05,1.85 0.3,19.5 V 43.4 l 0.25,5.95 -0.25,2.25 0.2,0.7 q 0,0.6 -0.4,0.95 Q 19.3,54 16.7,53.7 h -33.4 q -2.6,0.3 -3.55,-0.45 -0.4,-0.35 -0.4,-0.95 l 0.2,-0.7 -0.25,-2.25 0.25,-5.95 V 27.95 l 0.3,-19.5 0.05,-1.85 V -4.35 l 0.1,-0.2 -0.15,-0.65 0.3,-0.7 q 0.35,-0.5 1.05,-0.7 h 2.95 l -0.1,-0.45 q 0,-0.7 0.35,-1 0.3,-0.35 1.2,-0.6 h 3.25 q -1.9,-0.75 -3.05,-1.75 -1.6,-1.3 -1.7,-2.8 -2.35,-0.1 -2.9,-1.85 -0.25,-0.8 -0.1,-1.6 v -0.2 h -0.05 v -0.1 -0.5 h 0.1 l 0.55,-2.65 q 0.75,-1.5 2.3,-1.55 v -1.25 l 0.1,-1.05 q -1.15,-0.2 -1.55,-1.7 l -0.2,-1.8 0.1,-1.35 q 0.3,-0.6 1.55,-1.25 h 0.25 L -16,-32 h -0.1 v -0.1 -0.5 -0.35 l -0.05,-2.45 0.05,-2.6 h 0.2 l 0.15,-1.05 H -16 q -1.25,-0.65 -1.55,-1.25 l -0.1,-1.35 0.2,-1.8 q 0.4,-1.5 1.55,-1.7 L -16,-46.2 v -1.25 q -1.5,-0.05 -2.25,-1.45 l -0.05,-0.1 -0.15,-0.7 v -4.75 l 0.2,-0.5 0.85,-1.45 q 1.9,-2.6 5.65,-2.35 v -0.1 h 23.5 v 0.1 Q 15.5,-59 17.4,-56.4 l 0.85,1.45 m -5.6,9.75 h 1.3 l -0.05,-0.95 v -1.7 L 13.7,-47.95 5.95,-48 0,-48.25 -5.95,-48 l -3.1,0.05 h -3.5 -1.15 l -0.2,0.1 v 1.7 l -0.05,0.95 h 1.3 0.2 l 10.6,-0.25 1.85,0.05 1.85,-0.05 4.05,0.1 6.6,0.15 h 0.15 m 0.8,1.95 -0.85,-0.05 -3.2,-0.15 H 9.35 8.95 l -7.7,-0.2 H 0 -0.45 -1.25 l -4.25,0.1 -4.1,0.15 -1.4,0.05 -1.55,0.05 -0.6,0.05 h -0.75 l -1,0.65 -0.55,1.15 h 1.1 0.9 l 1.1,0.05 h 0.6 0.65 0.9 0.25 l 7,0.1 h 5.9 l 6.2,-0.1 h 0.55 0.35 1.6 0.5 0.25 1.1 l 1.95,-0.05 -0.55,-1.15 -1,-0.65 h -0.45 m 0.45,13.2 h 0.5 L 14.2,-32 h -0.15 v -0.1 l 0.05,-0.5 H 14.05 V -35.25 -38 h 0.2 l 0.15,-1.05 h -1 -27.05 -0.75 l 0.15,1.05 h 0.2 v 2.75 2.65 h -0.05 l 0.05,0.5 v 0.1 h -0.15 l -0.2,1.95 h 1.25 27.05 m -27.4,4.25 3.15,0.1 9.1,0.25 1.25,0.05 1.25,-0.05 9.55,-0.25 1.5,-0.05 1.6,-0.1 h 0.05 q 0.45,-0.05 0.95,-0.65 l 0.55,-1.15 H 13.9 12.8 12.2 l -1.4,-0.05 h -0.5 l -7.35,-0.1 h -5.9 l -4.85,0.1 -2.55,0.05 h -1.65 -1.3 -1.55 -0.6 l 0.55,1.15 1,0.65 0.4,0.05 m 27.4,3.75 v -0.9 l 0.05,-0.95 H 13 l -2.25,0.05 -8.9,0.2 H 0 -1.85 l -8.5,-0.2 h -0.1 l -3.2,-0.05 h -0.3 l 0.05,0.95 v 1.7 l 0.1,0.05 0.1,0.05 2.9,0.05 h 0.45 4.4 l 5.95,0.25 5.95,-0.25 7.75,-0.05 0.1,-0.05 0.1,-0.05 v -0.8 m -2.1,3 H 10.2 L 5.95,-19.1 0,-19.3 l -5.95,0.2 -3.25,0.05 -6.4,0.05 h -0.6 l 0.05,0.65 -0.1,1.5 h -0.15 v 0.05 l -0.05,0.3 0.05,0.85 3.3,0.05 10.35,0.1 2.75,0.1 2.75,-0.1 10.5,-0.1 3.15,-0.05 0.05,-0.85 -0.05,-0.3 v -0.05 h -0.15 l -0.1,-1.5 0.05,-0.65 h -2.8 l -1.6,-0.05 M -12,-13.2 h -1.55 q 1.45,2.55 5.95,3.2 l 5.95,0.1 H -1.4 1.4 1.7 L 7.6,-10 q 4.5,-0.65 5.95,-3.2 H 12.3 L 2.75,-13.3 0,-13.35 -2.75,-13.3 -9.6,-13.2 H -11.25 -12 m -5.5,11.3 v 1.6 l 0.1,2.7 -0.1,1.85 v 46.6 h 35 V 4.25 L 17.4,2.4 17.5,-0.3 v -1.9 -1.65 h -35 V -1.9 M 3.85,3.3 H -9.8 q 0.45,1.15 0.35,3.1 l -0.1,0.9 0.1,2.8 -0.25,6.3 v 3.8 l -0.15,1.75 H -4.2 V 21.9 h 8.4 v 0.05 H 9.85 L 9.7,20.2 V 16.4 L 9.45,10.1 9.55,7.3 9.45,6.4 Q 9.35,4.45 9.8,3.3 H 6.9 4.25 3.85 M 2.6,8.8 V 8 H -2.5 V 8.8 H 2.6 M 1.2,11.5 H 1.15 0.05 -1.05 -1.1 v 0.4 l -0.25,1.7 h 1.4 1.4 L 1.2,11.9 V 11.5 M 3.15,6.2 q 1.3,0 1.3,1.15 0,2.05 -2.5,2.8 V 10.2 L 2,10.25 2.1,10.2 q 1,0.2 1,2.9 0,1.7 -1.2,2.2 l 0.05,0.9 -0.4,1.2 q -0.5,0.85 -1.5,1.1 -1,-0.25 -1.5,-1.1 l -0.4,-1.2 0.05,-0.9 Q -3,14.8 -3,13.1 q 0,-2.7 1,-2.9 l 0.1,0.05 0.05,-0.05 v -0.05 q -2.5,-0.75 -2.5,-2.8 0,-1.15 1.3,-1.15 h 6.2 M 11.5,1.6 v 21.7 l 0.05,0.9 q 0.15,0.95 -0.05,1.5 l 0.05,0.25 -0.25,0.65 q -0.35,0.5 -1,0.45 h -20.6 q -0.65,0.05 -1,-0.45 l -0.25,-0.65 0.05,-0.25 q -0.2,-0.55 -0.05,-1.5 l 0.05,-0.9 V 1.6 l 0.35,0.1 0.65,-0.4 13.9,0.05 H 5.15 L 10.5,1.3 11.15,1.7 11.5,1.6 M -9.75,25 v 0.15 h 0.3 19.2 v -1.1 H -9.75 V 25 m 9.8,-8.25 q 0.5,-0.4 0.6,-1.25 h -0.6 -0.6 q 0.1,0.85 0.6,1.25"
         fill="#6b6b6b"
         fill-rule="evenodd"
         stroke="none"
         id="path14" />
      <path
         d="m -10.45,-23.85 -0.35,2.75 -2.9,-0.05 -0.1,-0.05 0.15,-2.7 3.2,0.05"
         fill="#cdcdcd"
         fill-opacity="0.329412"
         fill-rule="evenodd"
         stroke="none"
         id="path15" />
      <path
         d="m -6.95,-56.25 q 0.5,0.65 0.5,1.7 0,1.2 -0.85,2.1 -1.25,1.3 -4.1,1.3 -1.9,0 -2.85,-1.4 -0.65,-0.95 -0.65,-1.75 0,-1.45 1.65,-2.15 l 1.75,0.2 h 4.55 m -2.1,8.3 -0.05,0.3 -0.6,0.7 q -0.7,0.6 -1.5,0.6 -0.65,0 -1,-0.35 l -0.25,-0.3 -0.15,-0.65 0.05,-0.3 h 3.5 m 3.55,4.4 -0.15,0.4 q -0.65,0.65 -3.45,1.3 l -0.85,0.2 -0.25,0.05 -0.9,0.2 h -0.65 -0.6 l -1.1,-0.05 h -0.9 q -0.45,-0.35 -0.55,-1.05 v -0.1 l 1,-0.65 h 0.75 l 0.6,-0.05 1.55,-0.05 1.4,-0.05 4.1,-0.15 m 17.15,2.15 -0.2,-0.2 -0.15,-0.45 0.2,-0.1 0.75,0.5 0.15,0.1 v 0.15 h -0.25 -0.5 m 1.15,13.75 0.05,0.4 q 0,0.4 -0.4,0.8 l -0.3,0.25 -0.6,0.2 -0.75,-0.15 -0.4,-0.5 q -0.15,-0.3 -0.15,-0.7 l 0.05,-0.35 h 0.5 l 1.4,0.05 h 0.6 M -7.8,-27.7 q -0.05,1.35 -2.55,1.55 h -0.5 -0.35 l -2.25,-0.15 -1.15,-0.5 q -0.4,-0.35 -0.25,-0.75 v -0.1 h 1.55 1.3 1.65 l 2.55,-0.05 m 18,8.65 h 1.6 l 0.1,0.6 q 0,1 -1,1 -0.7,0 -0.9,-0.45 l -0.05,-0.15 v -0.35 l 0.15,-0.5 0.1,-0.15 m -25.8,0.05 6.4,-0.05 v 0.25 q 0,0.75 -0.95,1.15 l -0.2,0.1 -0.25,0.05 -1.1,0.15 -1.9,-0.1 q -1.25,-0.15 -1.75,-0.55 l -0.3,-0.8 0.05,-0.2 m 4.35,5.8 h 1.65 v 0.15 l -0.2,0.5 -0.6,0.35 -0.75,-0.25 -0.1,-0.65 v -0.1 m -2.1,-22.75 q -0.5,-0.35 -0.5,-1.2 l 0.25,-1.05 q 0.3,-0.55 1.15,-0.4 l 0.3,0.1 0.4,0.2 0.6,0.7 0.05,0.55 q 0,0.35 -0.3,0.75 -0.3,0.45 -0.85,0.55 h -0.3 l -0.8,-0.2"
         fill="#ffffff"
         fill-rule="evenodd"
         stroke="none"
         id="path16" />
      <path
         d="m 1.2,11.5 v 0.4 l 0.25,1.7 h -1.4 -1.4 l 0.25,-1.7 v -0.4 h 0.05 1.1 1.1 0.05 M 2.6,8.8 H -2.5 V 8 h 5.1 v 0.8 m -2.55,7.95 q -0.5,-0.4 -0.6,-1.25 h 0.6 0.6 q -0.1,0.85 -0.6,1.25"
         fill="#cdcdcd"
         fill-rule="evenodd"
         stroke="none"
         id="path17" />
      <path
         d="M 3.85,3.3 H 4.25 6.9 9.8 Q 9.35,4.45 9.45,6.4 l 0.1,0.9 -0.1,2.8 0.25,6.3 v 3.8 l 0.15,1.75 H 4.2 V 21.9 h -8.4 v 0.05 H -9.85 L -9.7,20.2 v -3.8 l 0.25,-6.3 -0.1,-2.8 0.1,-0.9 Q -9.35,4.45 -9.8,3.3 H 3.85 m -0.7,2.9 h -6.2 q -1.3,0 -1.3,1.15 0,2.05 2.5,2.8 V 10.2 L -1.9,10.25 -2,10.2 q -1,0.2 -1,2.9 0,1.7 1.2,2.2 l -0.05,0.9 0.4,1.2 q 0.5,0.85 1.5,1.1 1,-0.25 1.5,-1.1 L 1.95,16.2 1.9,15.3 q 1.2,-0.5 1.2,-2.2 0,-2.7 -1,-2.9 L 2,10.25 1.95,10.2 V 10.15 Q 4.45,9.4 4.45,7.35 4.45,6.2 3.15,6.2"
         fill="#a8a8a8"
         fill-rule="evenodd"
         stroke="none"
         id="path18" />
      <path
         d="m 17.5,-2.2 v 1.9 l -0.1,2.7 0.1,1.85 v 46.6 h -35 V 4.25 l 0.1,-1.85 -0.1,-2.7 V -1.9 L 17,-2 17.5,-2.2 M 11.5,1.6 11.15,1.7 10.5,1.3 5.15,1.35 H 3.4 L -10.5,1.3 -11.15,1.7 -11.5,1.6 v 21.7 l -0.05,0.9 q -0.15,0.95 0.05,1.5 l -0.05,0.25 0.25,0.65 q 0.35,0.5 1,0.45 h 20.6 q 0.65,0.05 1,-0.45 L 11.55,25.95 11.5,25.7 q 0.2,-0.55 0.05,-1.5 L 11.5,23.3 V 1.6"
         fill="#b2c6ca"
         fill-rule="evenodd"
         stroke="none"
         id="path19" />
      <path
         d="M 17.5,-2.2 17,-2 -17.5,-1.9 v -1.95 h 35 V -2.2 M -9.45,25.15 -9.75,25 v -0.95 h 19.5 v 1.1 h -19.2"
         fill="#cee4e8"
         fill-rule="evenodd"
         stroke="none"
         id="path20" />
      <path
         d="m -9.1,-47.65 q 2.9,-0.25 8.35,0.2 h 8.4 q 3.7,-1.05 4.75,0.7 l 0.25,1.55 H 12.5 l -6.6,-0.15 -4.05,-0.1 -1.85,0.05 -1.85,-0.05 -10.6,0.25 h -0.2 v -0.4 q 0,-0.65 0.45,-1.1 0.35,0.35 1,0.35 0.8,0 1.5,-0.6 l 0.6,-0.7 m 22.55,4.4 0.1,0.65 -0.05,1.2 h -1.1 v -0.15 l -0.15,-0.1 -0.75,-0.5 -0.2,0.1 0.15,0.45 0.2,0.2 H 10.05 9.7 9.15 l -6.2,0.1 h -5.9 l -7,-0.1 h -0.25 -0.9 l 0.9,-0.2 0.25,-0.05 0.85,-0.2 q 2.8,-0.65 3.45,-1.3 l 0.15,-0.4 4.25,-0.1 H -0.45 0 1.25 l 7.7,0.2 0.35,0.5 0.05,-0.3 v -0.2 H 9.4 l 3.2,0.15 0.85,0.05 m -0.05,4.2 0.1,1.7 0.35,6 0.05,1.3 h -27.05 l 0.1,-2.6 -0.3,-3.1 v -0.2 l 0.8,0.2 h 0.3 q 0.55,-0.1 0.85,-0.55 0.3,-0.4 0.3,-0.75 l -0.05,-0.55 -0.6,-0.7 -0.4,-0.2 -0.3,-0.1 q -0.85,-0.15 -1.15,0.4 l -0.05,-0.85 H 13.4 m 0.55,13.2 H 13.9 l -1.6,0.1 -1.5,0.05 -9.55,0.25 -1.25,0.05 -1.25,-0.05 -9.1,-0.25 -3.15,-0.1 0.05,-0.5 2.25,0.15 h 0.35 0.5 q 2.5,-0.2 2.55,-1.55 l 4.85,-0.1 h 5.9 l 7.35,0.1 -0.05,0.35 q 0,0.4 0.15,0.7 l 0.4,0.5 0.75,0.15 0.6,-0.2 0.3,-0.25 q 0.4,-0.4 0.4,-0.8 l -0.05,-0.4 h 1.1 v 0.2 l 0.05,1.6 m -3.3,-5.2 0.05,0.05 -0.05,-0.9 v 0.85 m -21,7.2 8.5,0.2 H 0 1.85 l 8.9,-0.2 2.25,-0.05 h 0.95 l -0.05,0.95 v 0.9 l -0.1,0.85 -0.1,0.05 -7.75,0.05 -5.95,0.25 -5.95,-0.25 h -4.4 v -2.75 m 20.55,4.8 -0.1,0.15 -0.15,0.5 v 0.35 L 10,-17.9 q 0.2,0.45 0.9,0.45 1,0 1,-1 l -0.1,-0.6 1.6,0.05 -0.25,0.95 0.1,2.45 -10.5,0.1 -2.75,0.1 -2.75,-0.1 -10.35,-0.1 -0.5,-1.85 1.9,0.1 1.1,-0.15 0.3,0.85 -0.05,-0.15 v -0.75 l 0.2,-0.1 q 0.95,-0.4 0.95,-1.15 v -0.25 l 3.25,-0.05 5.95,-0.2 5.95,0.2 4.25,0.05 m 2.1,5.85 q -2.25,2.7 -12.2,2.75 H -5.3 Q -9.75,-9.3 -12,-13.2 h 0.75 v 0.1 l 0.1,0.65 0.75,0.25 0.6,-0.35 0.2,-0.5 v -0.15 l 6.85,-0.1 2.75,-0.05 2.75,0.05 9.55,0.1"
         fill="#86b1af"
         fill-opacity="0.298039"
         fill-rule="evenodd"
         stroke="none"
         id="path21" />
    </g>
    <g
       id="sprite7"
       transform="translate(5.4,4)">
      <use
         ffdec:characterId="43"
         height="8"
         transform="translate(-5.4,-4)"
         width="10.8"
         xlink:href="#shape5"
         id="use21" />
    </g>
    <g
       id="shape5"
       transform="translate(5.4,4)">
      <path
         d="m 2.9,-0.35 q 0,-1.25 1.25,-1.25 1.25,0 1.25,1.2 0,1.3 -1.25,1.3 Q 3.6,0.9 3.25,0.5 2.9,0.15 2.9,-0.35 m 0.35,-2.3 q 0,0.55 -0.35,0.9 -0.4,0.45 -1,0.45 -1.35,0 -1.35,-1.4 0,-1.3 1.35,-1.3 1.35,0 1.35,1.35 m -3.1,1.9 h 0.2 q 2.6,0.1 2.6,2.8 l -0.3,1 Q 2.05,4 0.45,4 H 0.35 0.15 0.1 -0.45 q -1.6,0 -2.2,-0.95 l -0.3,-1 q 0,-2.8 2.8,-2.8 h 0.3 M -1.55,-4 q 1.35,0 1.35,1.35 0,0.55 -0.4,0.9 -0.4,0.45 -0.95,0.45 -1.4,0 -1.4,-1.4 0,-1.3 1.4,-1.3 m -2.6,2.4 q 1.25,0 1.25,1.25 0,0.5 -0.35,0.85 -0.35,0.4 -0.9,0.4 -1.25,0 -1.25,-1.3 0,-1.2 1.25,-1.2"
         fill="#6b6b6b"
         fill-rule="evenodd"
         stroke="none"
         id="path22" />
    </g>
  </defs>
</svg>
