<?xml version="1.0" encoding="UTF-8" standalone="no"?>
<svg
   ffdec:objectType="frame"
   height="94.569458"
   width="142.98012"
   version="1.1"
   id="svg48"
   sodipodi:docname="2.svg"
   xmlns:inkscape="http://www.inkscape.org/namespaces/inkscape"
   xmlns:sodipodi="http://sodipodi.sourceforge.net/DTD/sodipodi-0.dtd"
   xmlns:xlink="http://www.w3.org/1999/xlink"
   xmlns="http://www.w3.org/2000/svg"
   xmlns:svg="http://www.w3.org/2000/svg"
   xmlns:ffdec="https://www.free-decompiler.com/flash">
  <sodipodi:namedview
     id="namedview48"
     pagecolor="#ffffff"
     bordercolor="#000000"
     borderopacity="0.25"
     inkscape:showpageshadow="2"
     inkscape:pageopacity="0.0"
     inkscape:pagecheckerboard="0"
     inkscape:deskcolor="#d1d1d1"
     fit-margin-top="5"
     fit-margin-left="5"
     fit-margin-right="5"
     fit-margin-bottom="5" />
  <g
     transform="translate(74.06344,35.468627)"
     id="g14">
    <use
       ffdec:characterId="995"
       height="47.200001"
       transform="matrix(-0.8209,0,0,-0.8209,12.864,19.5737)"
       width="16.65"
       xlink:href="#sprite0"
       id="use1" />
    <use
       ffdec:characterId="1061"
       height="46.049999"
       transform="matrix(-0.793,-0.2125,0.2125,-0.793,-23.2482,21.4973)"
       width="17.549999"
       xlink:href="#sprite1"
       id="use2" />
    <use
       ffdec:characterId="1063"
       height="27.450001"
       transform="matrix(-0.711,0.4105,-0.3834,-0.6641,24.5816,-0.5878)"
       width="12.65"
       xlink:href="#sprite2"
       id="use3" />
    <use
       ffdec:characterId="1007"
       height="25.450001"
       transform="matrix(1,0,0,0.8703,-2.5,-32.9032)"
       width="62.700001"
       xlink:href="#sprite3"
       id="use4" />
    <use
       ffdec:characterId="1001"
       height="5.8000002"
       transform="matrix(0.7454,0,0,-1,20.3166,-29.05)"
       width="65.199997"
       xlink:href="#sprite4"
       id="use5" />
    <use
       ffdec:characterId="1033"
       height="50.849998"
       transform="matrix(0.764,-0.2047,0.2047,0.764,-75.046,-26.2071)"
       width="80.150002"
       xlink:href="#sprite5"
       id="use6" />
    <use
       ffdec:characterId="1007"
       height="25.450001"
       transform="matrix(-1,0,0,0.8703,1.9,-32.9032)"
       width="62.700001"
       xlink:href="#sprite3"
       id="use7" />
    <use
       ffdec:characterId="1037"
       height="54.450001"
       transform="matrix(-1.075,0.1699,0.2013,1.2734,-4.0071,-35.4085)"
       width="35.450001"
       xlink:href="#sprite6"
       id="use8" />
    <use
       ffdec:characterId="1001"
       height="5.8000002"
       transform="matrix(0.7454,0,0,-1,-68.8334,-29.05)"
       width="65.199997"
       xlink:href="#sprite4"
       id="use9" />
    <use
       ffdec:characterId="1001"
       height="5.8000002"
       transform="matrix(1,0,0,-1,-32.85,-29.05)"
       width="65.199997"
       xlink:href="#sprite4"
       id="use10" />
    <use
       ffdec:characterId="1044"
       height="15.45"
       transform="translate(-8.35,-33.4)"
       width="16.1"
       xlink:href="#sprite7"
       id="use11" />
    <use
       ffdec:characterId="993"
       height="24.950001"
       transform="matrix(-0.3368,0.5833,-0.5833,-0.3368,31.2482,-10.4737)"
       width="11.25"
       xlink:href="#sprite9"
       id="use12" />
    <use
       ffdec:characterId="44"
       height="8"
       transform="matrix(0.866,0.5,-0.5,0.866,-23.8266,-22.514)"
       width="10.8"
       xlink:href="#sprite10"
       id="use13" />
    <use
       ffdec:characterId="1078"
       height="94.550003"
       transform="translate(4.65,-35.45)"
       width="56.200001"
       xlink:href="#sprite11"
       id="use14" />
  </g>
  <defs
     id="defs48">
    <g
       id="sprite0"
       transform="translate(8.3,23.6)">
      <use
         ffdec:characterId="994"
         height="47.200001"
         transform="translate(-8.3,-23.6)"
         width="16.65"
         xlink:href="#shape0"
         id="use15" />
    </g>
    <g
       id="shape0"
       transform="translate(8.3,23.6)">
      <path
         d="m -0.4,-18.45 2.25,3.9 0.8,1.5 0.35,3.6 0.05,1.25 q 0.65,0.9 1,2.55 L 4.5,1.05 4.3,5.15 Q 3.95,6.8 3.25,7.7 L 3.1,5.4 3.05,-0.35 3,-2.35 Q 2.9,-6.3 2.25,-8.95 l -0.3,-1 Q 1.55,-9.7 1.5,-9.2 v 0.75 l 0.05,1.05 0.05,2.85 0.05,0.9 0.15,4.9 0.25,7.3 v 0.6 l -0.7,0.75 -0.2,-1.15 -0.3,1.5 -2.1,0.5 q -2.45,0 -3.1,-3 L -4.5,4.7 q 0,-1.65 1.65,-2.25 1.1,-0.4 1.6,-1.75 L -1.3,0.65 h 0.05 L -0.65,0.5 Q -0.3,0.2 -0.3,-0.2 l -0.05,-0.2 -0.25,-0.35 -0.1,-0.1 -0.2,-0.1 -1,-0.4 -2.7,-0.6 -0.2,-0.35 -0.1,-0.35 q 0,-3.25 1.5,-9.75 1.4,-5.9 3,-6.05"
         fill="#ffffff"
         fill-rule="evenodd"
         stroke="none"
         id="path15" />
      <path
         d="m 2.65,-13.05 -0.8,-1.5 -2.25,-3.9 -1.05,-1.85 q -3.9,9.15 -4.35,15 v 3.15 l 0.85,0.15 0.35,0.05 2.7,0.6 1,0.4 0.2,0.1 0.1,0.1 0.25,0.35 0.05,0.2 q 0,0.4 -0.35,0.7 l -0.6,0.15 H -1.3 -1.5 L -2.65,1.6 -5,3.3 -5.15,5.95 q 0,3.9 3.35,6.4 l 1.6,1 0.65,0.35 0.05,-0.3 v -0.2 l 0.35,-2.95 0.3,-1.5 0.2,1.15 0.15,1.4 0.15,2.1 0.05,1.4 0.15,6.45 H 2.55 2.6 V 21 Q 2.3,19 2.35,17.3 L 2.4,16.65 2.25,13.3 2.1,10.55 2.05,9.15 V 8.55 L 1.8,1.25 1.65,-3.65 1.6,-4.55 1.55,-7.4 1.5,-8.45 V -9.2 q 0.05,-0.5 0.45,-0.75 l 0.3,1 Q 2.9,-6.3 3,-2.35 l 0.05,2 0.05,5.75 0.15,2.3 0.3,4.65 1.25,-2.4 Q 6.75,6 6.75,3.6 q 0,-7.7 -1.1,-10.75 -0.5,-1.4 -3,-5.9 m 5.7,12.15 q 0,4.8 -0.45,8 -0.9,6.3 -3.35,7.1 v 0.1 L 4.4,14.5 4.3,20.9 v 1.05 l 0.1,0.45 -0.3,0.7 q -0.45,0.5 -1.5,0.5 -1.9,0 -2.4,-2.3 l -0.15,-2.55 0.2,-3.1 h -0.8 q -2.55,0 -4.7,-3.35 -1.7,-2.6 -1.7,-3.55 L -6.8,4.6 Q -6.6,3.5 -6.25,2.9 V 2.6 q 0,-0.35 1.35,-1.25 l 0.65,-0.4 0.45,-0.3 0.1,-0.05 q -3.6,-0.25 -4.35,-1.4 -0.3,-0.5 -0.2,-1.35 l 0.2,-1.3 q 0,-4.75 1.9,-10.85 1.1,-4.5 2,-6.75 1.7,-4.1 3.85,-1.55 4.8,6.85 6.6,11.1 2.05,4.9 2.05,10.6"
         fill="#6b6b6b"
         fill-rule="evenodd"
         stroke="none"
         id="path16" />
      <path
         d="m -0.4,-18.45 q -1.6,0.15 -3,6.05 -1.5,6.5 -1.5,9.75 L -4.8,-2.3 -4.95,-2 -5.8,-2.15 V -5.3 q 0.45,-5.85 4.35,-15 l 1.05,1.85 m -0.9,19.1 0.05,0.05 q -0.5,1.35 -1.6,1.75 -1.65,0.6 -1.65,2.25 l 0.15,3.05 q 0.65,3 3.1,3 l 2.1,-0.5 -0.35,2.95 v 0.2 l -0.7,-0.05 -1.6,-1 Q -5.15,9.85 -5.15,5.95 L -5,3.3 -2.65,1.6 -1.5,0.65 h 0.2 M 1.35,9.9 2.05,9.15 2.1,10.55 2.25,13.3 2.4,16.65 2.35,17.3 Q 2.3,19 2.6,21 L 2.55,21.25 H 1.85 L 1.7,14.8 1.65,13.4 1.5,11.3 1.35,9.9 M 3.25,7.7 Q 3.95,6.8 4.3,5.15 L 4.5,1.05 4.05,-5.65 Q 3.7,-7.3 3.05,-8.2 L 3,-9.45 2.65,-13.05 q 2.5,4.5 3,5.9 1.1,3.05 1.1,10.75 0,2.4 -1.95,6.35 L 3.55,12.35 3.25,7.7"
         fill="#e0e0e0"
         fill-rule="evenodd"
         stroke="none"
         id="path17" />
    </g>
    <g
       id="sprite1"
       transform="translate(8.75,23)">
      <use
         ffdec:characterId="1060"
         height="46.049999"
         transform="translate(-8.75,-23)"
         width="17.549999"
         xlink:href="#shape1"
         id="use17" />
    </g>
    <g
       id="shape1"
       transform="translate(8.75,23)">
      <path
         d="m 0.65,-21.8 0.15,-0.1 v -0.15 l -0.15,0.25 m 2.4,1.95 q 1.75,3.95 3.5,9.35 0.95,3 1.55,7 0.7,4.15 0.7,7.3 0,2.45 -1,5.75 -1.6,5.25 -4.65,5.4 v 0.6 2.7 2.8 q -0.45,2 -2.85,2 -1.65,0 -2.2,-1.05 -0.35,-0.75 -0.35,-2.65 0.1,-4.7 -1.8,-6.35 Q -6.8,10.5 -7.9,8.05 -8.75,6 -8.75,3.05 q 0,-9.35 1,-13.1 1.55,-5.7 5.9,-9.75 l 0.95,-1.25 q 2.1,-2.5 2.25,-1.8 v 0.05 q 0.6,0.4 1.7,2.95 M 2.65,11.05 2.7,12.4 4.05,10.35 Q 6.3,6.85 6.3,3.55 6.3,-3.1 3.6,-12.45 1.5,-18.6 1,-20.7 l -1.75,2.7 q -2.6,4 -3.5,6.6 -1.05,3.05 -1.45,6.1 l -0.05,0.1 v 0.15 l -0.3,3.8 v 0.3 q 0,3.9 0.3,5.5 0.65,3.65 3.05,5.2 l 0.55,0.4 1.2,1.05 0.1,-1.85 L -0.8,7.9 -0.75,6.7 -0.7,4.6 -0.65,0.35 v -0.2 -1.4 l 0.2,-5.8 0.35,-3.65 0.1,-0.7 0.4,-1.45 0.1,0.05 0.05,0.1 0.05,0.45 -0.05,1 -0.4,3.65 q 0,2.85 0.35,9.7 l 0.1,2 0.1,1.85 V 6 l 0.2,3.4 v 0.35 0.1 L 0.75,12.25 0.6,13.9 0.75,15.1 0.6,17.8 q -0.1,1.65 0.2,2.75 H 1.15 L 1.05,17.05 0.9,13.6 Q 1.05,13.15 1.45,13 V 12.1 L 1.4,10.45 1.5,8.4 1.6,6.1 1.65,5.85 1.95,1.9 l 0.4,3.45 0.3,5.7"
         fill="#9a9a9a"
         fill-rule="evenodd"
         stroke="none"
         id="path18" />
      <path
         d="M 2.65,11.05 Q 3.25,10.2 3.55,8.8 L 3.85,4.85 3.7,0.65 3.25,-5.4 q -0.4,-2.25 -1,-3.65 -0.55,-3.2 -1.4,-5 l 0.7,-2.25 q 0,-3 -1.65,-1.85 -1.4,1 -2.25,2.95 l -1.95,4.7 -1.4,5.2 q 0.4,-3.05 1.45,-6.1 0.9,-2.6 3.5,-6.6 L 1,-20.7 q 0.5,2.1 2.6,8.25 2.7,9.35 2.7,16 0,3.3 -2.25,6.8 L 2.7,12.4 2.65,11.05 m -8.7,-12 1.6,3.8 1.65,2.65 0.1,0.6 0.75,1.95 -0.25,1.7 0.05,0.4 -0.55,-0.4 q -2.4,-1.55 -3.05,-5.2 -0.3,-1.6 -0.3,-5.5 m 6.8,13.2 0.7,-0.15 V 13 q -0.4,0.15 -0.55,0.6 l 0.15,3.45 0.1,3.5 H 0.8 Q 0.5,19.45 0.6,17.8 L 0.75,15.1 0.6,13.9 0.75,12.25"
         fill="#c6c6c6"
         fill-rule="evenodd"
         stroke="none"
         id="path19" />
      <path
         d="m -5.7,-5.3 1.4,-5.2 1.95,-4.7 q 0.85,-1.95 2.25,-2.95 1.65,-1.15 1.65,1.85 l -0.7,2.25 q 0.85,1.8 1.4,5 0.6,1.4 1,3.65 L 3.7,0.65 3.85,4.85 3.55,8.8 q -0.3,1.4 -0.9,2.25 L 2.35,5.35 1.95,1.9 1.65,5.85 1.6,6.1 1.5,8.4 1.4,10.45 1.45,12.1 0.75,12.25 0.9,9.85 V 9.75 9.4 L 0.7,6 V 5.95 L 0.6,4.1 0.5,2.1 Q 0.15,-4.75 0.15,-7.6 l 0.4,-3.65 0.05,-1 -0.05,-0.45 -0.05,-0.1 -0.1,-0.05 -0.4,1.45 -0.1,0.7 -0.35,3.65 -0.2,5.8 v 1.4 0.2 L -0.7,4.6 -0.75,6.7 -0.8,7.9 -0.85,9.35 -0.95,11.2 -2.15,10.15 -2.2,9.75 -1.95,8.05 -2.7,6.1 -2.8,5.5 -4.45,2.85 l -1.6,-3.8 v -0.3 l 0.3,-3.8 V -5.2 l 0.05,-0.1"
         fill="#d2d2d2"
         fill-rule="evenodd"
         stroke="none"
         id="path20" />
    </g>
    <g
       id="sprite2"
       transform="translate(6.3,13.7)">
      <use
         ffdec:characterId="1062"
         height="27.450001"
         transform="translate(-6.3,-13.7)"
         width="12.65"
         xlink:href="#shape2"
         id="use20" />
    </g>
    <g
       id="shape2"
       transform="translate(6.3,13.7)">
      <path
         d="m 6.35,-0.75 q 0,2.3 -1.05,5.1 -0.75,1.9 -1.75,2.95 -1,0.95 -2.2,1.15 L 0.75,8.5 H 0.65 L 0.45,8.55 0,10.9 q -0.6,2.85 -1.15,2.85 -1.55,0 -2.55,-0.65 L -4.55,12.05 V 11.7 L -4.45,11.5 -4.3,11.45 -4.45,11 q 0,-0.9 1.35,-3.3 Q -3.45,7.6 -3.8,7.3 -4.8,6.35 -5.45,3.25 L -5.65,2.4 -6.3,-3 q 0,-2.8 2.3,-6.85 2.7,-4.8 5.45,-3.6 1.7,1.7 3.35,6.05 1.55,4.2 1.55,6.65 m -7.7,4.6 0.05,-0.6 0.1,-1.45 0.2,-2.1 q 0.4,-4.9 0.9,-6.1 L 0,-6.6 0.05,-5.7 0.2,-2.6 0.1,0.5 0,3.1 v 0.15 0.5 0.8 L -0.05,6.75 0.6,6.4 0.95,6.25 1.35,5.75 2.15,4.9 q 2.1,-2.3 2.1,-4.45 0,-2.6 -1.2,-5.75 L 2.9,-5.65 1.9,-8 l -1.95,-3.85 -2.05,2.35 -1.25,2.25 -0.15,0.4 -0.65,2.75 -0.45,2.2 0.45,2.6 0.35,1.35 0.25,0.95 0.1,0.25 1.05,3.25 0.45,-0.25 0.5,-0.65 0.1,-1.75 m 0.2,4.8 -0.15,-0.45 -0.5,1.2 -0.85,1.8 0.25,0.45 v 0.25 l 0.6,0.1 0.5,-2.55 0.15,-0.7 v -0.1"
         fill="#6b6b6b"
         fill-rule="evenodd"
         stroke="none"
         id="path21" />
      <path
         d="M 0,3.75 V 3.25 3.1 L 0.1,0.5 0.2,-2.6 0.05,-5.7 0,-6.6 -0.1,-6.4 q -0.5,1.2 -0.9,6.1 l -0.2,2.1 -0.1,1.45 -0.05,0.6 Q -2.25,3.7 -2.85,3.25 L -3.8,2.05 -4.15,0.7 -4.3,-1.75 l 0.15,-2.35 0.65,-2.75 0.15,-0.4 1.25,-2.25 2.05,-2.35 1.95,3.85 1,2.35 0.15,0.35 v 0.95 q 0,3.3 -0.3,4.55 Q 2.25,2.35 1.1,3.25 L 0,3.75"
         fill="#ffffff"
         fill-rule="evenodd"
         stroke="none"
         id="path22" />
      <path
         d="M 0,3.75 1.1,3.25 Q 2.25,2.35 2.75,0.2 3.05,-1.05 3.05,-4.35 V -5.3 q 1.2,3.15 1.2,5.75 0,2.15 -2.1,4.45 L 1.35,5.75 0.95,6.25 0.6,6.4 -0.05,6.75 0,4.55 V 3.75 M -4.15,-4.1 -4.3,-1.75 -4.15,0.7 -4.6,-1.9 -4.15,-4.1 m 0.35,6.15 0.95,1.2 q 0.6,0.45 1.5,0.6 L -1.45,5.6 -1.95,6.25 -2.4,6.5 -3.45,3.25 -3.55,3 -3.8,2.05 m 2.65,6.6 v 0.1 L -1.3,9.45 -1.8,12 -2.4,11.9 V 11.65 L -2.65,11.2 -1.8,9.4 -1.3,8.2 -1.15,8.65"
         fill="#e0e0e0"
         fill-rule="evenodd"
         stroke="none"
         id="path23" />
    </g>
    <g
       id="sprite3"
       transform="translate(31.35,12.7)">
      <use
         ffdec:characterId="1006"
         height="25.450001"
         transform="translate(-31.35,-12.7)"
         width="62.700001"
         xlink:href="#shape3"
         id="use23" />
    </g>
    <g
       id="shape3"
       transform="translate(31.35,12.7)">
      <path
         d="M -0.75,-7.15 -0.85,-8.2 -1,-8.95 H 1 L 0.95,-8.2 v 0.25 0.8 h -1.7 m 3.4,0 L 2.55,-8.2 2.4,-8.95 8.75,-9 l 19,0.05 0.45,0.15 h 0.3 v 0.1 0.05 0.95 0.05 0.9 h -0.1 q -0.55,0 -0.8,-0.5 l -0.05,-0.1 -24.9,0.2 m -21.85,2.85 0.2,1.35 q 0,2 -0.2,2.5 -0.6,1.5 -3,1.5 -2.45,0 -3.7,-2.3 -0.8,-1.45 -0.8,-2.6 l 0.15,-0.95 q 0.5,-1.65 2.95,-1.75 1.95,0.05 3.25,1.05 l 0.95,0.9 0.2,0.3 M -27.85,-7 -27.9,-8.95 h 17.1 l -0.25,0.5 -0.55,1.35 -7.35,0.05 -1.35,-0.6 Q -23.15,-8.6 -26.4,-7 h -1.45 m 25.9,-0.15 h -1.2 Q -3,-6.8 -3,-6.3 q 0,1.95 -3.05,2.1 h -0.4 q -2.05,0 -2.85,-1.15 -0.4,-0.6 -0.4,-1.3 l 0.05,-0.45 h -0.85 l 1.2,-1.85 h 7.6 l -0.1,0.8 -0.1,0.5 -0.05,0.5 M -12.7,3.15 h -0.35 -0.15 L -14.25,2 V 1.95 q -0.4,-0.5 -0.4,-1.05 0,-2.45 2.25,-1.55 l 0.1,0.05 q 1.15,0.45 1.7,1 v 0.45 q 0,0.75 -0.45,1.4 -0.55,0.8 -1.65,0.9"
         fill="#e0e0e0"
         fill-rule="evenodd"
         stroke="none"
         id="path24" />
      <path
         d="M 0.95,-7.15 V -7.95 -8.2 L 1,-8.95 h -2 l 0.15,0.75 0.1,1.05 v 0.9 1.65 L 1.35,-5.1 1,-6.15 l -0.05,-1 m 26.8,-1.8 -19,-0.05 -6.35,0.05 0.15,0.75 0.1,1.05 0.05,1.6 v 0.15 l 6.75,-1.05 h 19.1 L 28.5,-6.75 V -7.65 -7.7 -8.65 -8.7 -8.8 -8.95 h -0.75 m 1.55,-3.75 h 2.05 v 7.45 q -0.25,0.2 -0.6,0.3 -1.95,1.9 -6.1,1.25 H 12.6 Q 1.45,-2.9 -2,-0.75 q -1.6,0.95 -2.2,3.8 -0.35,1.5 -2.55,4.1 -2.7,3.2 -4.95,3.2 -4.4,0 -5.95,-0.75 -1.45,-0.7 -2.3,-0.75 l -0.2,0.05 -1.95,1.75 q -1.7,1.8 -3.55,1.8 h -0.65 l -2.05,0.3 -0.65,-0.05 -0.4,0.05 q -1.15,0 -1.5,-0.8 l -0.15,-0.9 0.15,-2.65 V -9.35 q -0.45,-0.45 -0.45,-1.3 0,-1.35 1.65,-1.75 h 58.8 l 0.2,-0.3 m -52.9,6.15 h -0.2 l -2.75,0.5 -1.3,0.35 0.1,15.8 0.4,-0.1 q 1.9,-0.3 3.5,-1.9 l 1.5,-1.7 0.35,-0.25 q 0.2,-1.95 1.85,-3.45 1.85,-1.75 1.85,-4.35 0,-1.4 -0.9,-2.65 l -0.2,-0.3 -0.95,-0.9 q -1.3,-1 -3.25,-1.05 m 12,-0.55 0.55,-1.35 0.25,-0.5 h -17.1 l 0.05,1.95 v 0.85 L -26.4,-7 q 3.25,-1.6 6.1,-0.65 l 1.35,0.6 0.35,0.2 q 2.3,1.6 2.3,5.15 0,2.3 -1.05,3.95 -0.85,1.35 -1.5,3.2 1.65,0.15 2.7,0.7 l 1.6,0.75 q 5.55,0 7.05,-3.15 0.65,-3.6 1.05,-4.5 h -0.1 L -8,-0.85 -9.25,-1.15 q 1,1.05 1,2.3 V 1.6 q -0.05,1.45 -0.45,2.15 -0.95,1.5 -3.75,1.5 -2.5,0 -3.45,-1.3 l -0.45,-1.4 q 0,-5.3 4.05,-5.05 l 1.15,0.25 -0.15,-0.2 q -0.85,-0.95 -0.85,-1.85 0,-1.3 0.55,-2.8 m 1.1,0 -0.25,1.25 q 0,1.35 0.5,1.85 1.1,1.05 5.15,1.45 l 2,-1.25 0.3,-0.15 0.8,-0.25 -0.1,-0.75 0.15,-2.2 0.05,-0.5 0.1,-0.5 0.1,-0.8 h -7.6 l -1.2,1.85 m -0.1,7.5 q -0.55,-0.55 -1.7,-1 l -0.1,-0.05 q -2.25,-0.9 -2.25,1.55 0,0.55 0.4,1.05 V 2 l 1.05,1.15 h 0.15 0.35 l 1.8,-0.1 q 0.75,-0.9 0.75,-1.7 0,-0.5 -0.45,-0.95"
         fill="#6b6b6b"
         fill-rule="evenodd"
         stroke="none"
         id="path25" />
      <path
         d="m -0.75,-7.15 h 1.7 l 0.05,1 0.35,1.05 -2.1,0.5 v -1.65 -0.9 m 3.4,0 24.9,-0.2 0.05,0.1 q 0.25,0.5 0.8,0.5 h 0.1 l 0.05,0.3 H 9.45 L 2.7,-5.4 V -5.55 L 2.65,-7.15 M -19.2,-4.3 q 0.9,1.25 0.9,2.65 0,2.6 -1.85,4.35 -1.65,1.5 -1.85,3.45 l -0.35,0.25 -1.5,1.7 q -1.6,1.6 -3.5,1.9 l -0.4,0.1 -0.1,-15.8 1.3,-0.35 2.75,-0.5 h 0.2 q -2.45,0.1 -2.95,1.75 l -0.15,0.95 q 0,1.15 0.8,2.6 1.25,2.3 3.7,2.3 2.4,0 3,-1.5 0.2,-0.5 0.2,-2.5 l -0.2,-1.35 m 7.6,-2.8 q -0.55,1.5 -0.55,2.8 0,0.9 0.85,1.85 l 0.15,0.2 -1.15,-0.25 q -4.05,-0.25 -4.05,5.05 l 0.45,1.4 q 0.95,1.3 3.45,1.3 2.8,0 3.75,-1.5 0.4,-0.7 0.45,-2.15 V 1.15 q 0,-1.25 -1,-2.3 l 1.25,0.3 1.45,0.1 h 0.1 Q -6.85,0.15 -7.5,3.75 -9,6.9 -14.55,6.9 l -1.6,-0.75 q -1.05,-0.55 -2.7,-0.7 0.65,-1.85 1.5,-3.2 1.05,-1.65 1.05,-3.95 0,-3.55 -2.3,-5.15 l -0.35,-0.2 7.35,-0.05 m -14.8,0.1 -1.45,0.85 V -7 h 1.45 m 24.45,-0.15 -0.15,2.2 0.1,0.75 -0.8,0.25 -0.3,0.15 -2,1.25 q -4.05,-0.4 -5.15,-1.45 -0.5,-0.5 -0.5,-1.85 l 0.25,-1.25 h 0.85 l -0.05,0.45 q 0,0.7 0.4,1.3 0.8,1.15 2.85,1.15 h 0.4 Q -3,-4.35 -3,-6.3 -3,-6.8 -3.15,-7.15 h 1.2 M -12.7,3.15 q 1.1,-0.1 1.65,-0.9 0.45,-0.65 0.45,-1.4 V 0.4 q 0.45,0.45 0.45,0.95 0,0.8 -0.75,1.7 l -1.8,0.1"
         fill="#c2c2c2"
         fill-rule="evenodd"
         stroke="none"
         id="path26" />
    </g>
    <g
       id="sprite4"
       transform="translate(33.45,3.05)">
      <use
         ffdec:characterId="1000"
         height="5.8000002"
         transform="translate(-33.45,-3.05)"
         width="65.199997"
         xlink:href="#shape4"
         id="use26" />
    </g>
    <g
       id="shape4"
       transform="translate(33.45,3.05)">
      <path
         d="m 13.2,-0.95 0.05,-0.15 h 1.4 l 0.15,0.05 -0.05,0.1 H 13.2 m 1.35,1.2 -0.05,0.6 H 12.85 L 13,0.4 V 0.25 h 1.55 m -3.3,-1.2 h -13.2 -11 V -1.1 l 11,0.05 13.2,-0.05 v 0.15 m -24.1,1.2 h 24 l 0.05,0.6 h -24.1 l 0.05,-0.6 m 29.15,-1.2 v -0.1 L 16.55,-1.1 H 24.2 L 29,-1.25 V -0.9 L 16.3,-0.95 M 29,0.15 v 1.1 l -9.85,-0.4 h -2.8 v -0.6 l 12.5,-0.1 H 29 M -30.7,-0.9 v -0.35 l 4.8,0.15 h 7.65 l 0.25,0.05 v 0.1 l -12.7,0.05 m 12.65,1.15 v 0.6 h -2.8 l -9.85,0.4 v -1.1 h 0.15 l 12.5,0.1 m 1.6,-1.2 -0.05,-0.1 0.15,-0.05 h 1.4 l 0.05,0.15 h -1.55 m 1.75,1.2 V 0.4 l 0.15,0.45 h -1.65 l -0.05,-0.6 h 1.55"
         fill="#c2c2c2"
         fill-rule="evenodd"
         stroke="none"
         id="path27" />
      <path
         d="m 14.75,-0.95 0.05,-0.1 -0.15,-0.05 h -1.4 L 13.2,-0.95 13,0.25 V 0.4 l -0.15,0.45 h 1.65 l 0.05,-0.6 0.2,-1.2 m -3.6,1.2 v -0.3 l 0.1,-0.9 V -1.1 l -13.2,0.05 -11,-0.05 v 0.15 l 0.1,0.9 v 0.3 l -0.05,0.6 H 11.2 L 11.15,0.25 M 29,-0.9 v -0.35 l -4.8,0.15 h -7.65 l -0.25,0.05 v 0.1 l 0.05,1.2 v 0.6 h 2.8 L 29,1.25 v -1.1 -0.5 -0.55 m 2.75,0.55 v 2 l -0.2,1.1 H -33.2 l -0.25,-1.1 v -2 q 0,-1.8 0.4,-2.7 H 31.4 q 0.35,0.9 0.35,2.7 M -30.7,-0.9 v 0.55 0.5 1.1 l 9.85,-0.4 h 2.8 v -0.6 l 0.05,-1.2 v -0.1 l -0.25,-0.05 h -7.65 l -4.8,-0.15 v 0.35 m 15.8,-0.05 -0.05,-0.15 h -1.4 l -0.15,0.05 0.05,0.1 0.2,1.2 0.05,0.6 h 1.65 L -14.7,0.4 V 0.25 l -0.2,-1.2"
         fill="#6b6b6b"
         fill-rule="evenodd"
         stroke="none"
         id="path28" />
      <path
         d="m 14.75,-0.95 -0.2,1.2 H 13 l 0.2,-1.2 h 1.55 m -3.5,0 -0.1,0.9 v 0.3 h -24 v -0.3 l -0.1,-0.9 h 11 13.2 M 29,-0.9 v 0.55 0.5 H 28.85 L 16.35,0.25 16.3,-0.95 29,-0.9 m -59.7,1.05 v -0.5 -0.55 l 12.7,-0.05 -0.05,1.2 -12.5,-0.1 h -0.15 m 14.25,-1.1 h 1.55 l 0.2,1.2 h -1.55 l -0.2,-1.2"
         fill="#e0e0e0"
         fill-rule="evenodd"
         stroke="none"
         id="path29" />
    </g>
    <g
       id="sprite5"
       transform="translate(40.05,25.4)">
      <use
         ffdec:characterId="1032"
         height="50.849998"
         transform="translate(-40.05,-25.4)"
         width="80.150002"
         xlink:href="#shape5"
         id="use29" />
    </g>
    <g
       id="shape5"
       transform="translate(40.05,25.4)">
      <path
         d="m 15.6,-15.3 q 3.1,1.95 3.9,3.9 2.55,-0.25 7.35,1.05 3.2,0.85 5.2,1.95 4.5,2.5 3.6,5.85 l -0.3,0.65 q 2.05,1.05 3.1,1.3 l 0.85,0.55 q 0.45,0.55 0.3,1.2 -0.2,0.7 -0.7,0.8 L 38.2,1.9 Q 37.55,1.7 34.95,0.25 L 34.15,1 Q 35.2,2 35.2,3.5 L 35,4.1 34.9,4.2 34.8,4.3 34.9,4.55 h 0.15 q 5.05,0.25 5.05,1.25 0,0.7 -0.45,0.9 L 39.3,7.5 38.9,7.6 Q 38.5,7.6 37.5,7 L 37.4,6.9 H 36 L 35.3,6.85 Q 35.2,7.9 33.45,9.05 L 33.6,10 v 0.35 0.1 L 33.45,10.9 Q 33.3,11.7 32.6,11.7 L 32,11.35 29.35,11.25 29,11.2 v 0.15 q 0,1.4 -1.65,2.65 l -0.95,1.05 -1.3,0.1 -0.65,0.3 -3.4,-0.2 H 20.8 l -3.8,0.1 q 0,0.5 -0.5,1.05 l -2.15,1.9 Q 12.5,19.65 10,20.85 7.45,22.1 2.3,23.5 L -4,25 l -6.2,0.35 -6.85,-0.5 q -3.9,-0.45 -6.2,-2.2 -2.05,0.4 2.1,-2.6 l 6.75,-4.4 -6.5,-1 q -8.95,-1.6 -11.05,-3.55 -3.1,-2.95 4.7,-6.65 l -0.1,-0.05 q -4.5,-1.1 -6.75,-2 -4.1,-1.7 -1.55,-3.85 4.75,-3.35 8.3,-5.2 l -0.75,-0.5 q -5.1,-3.5 -6.65,-4.9 l -0.8,-0.9 q -4.75,-4.2 -4.5,-7.55 v -0.1 q 1.65,-2.95 7.9,-4 l 1.2,-0.25 8.25,-0.55 7.7,0.7 q 1.75,0.35 6.95,1.9 l 2.2,0.85 q 1.7,0.95 3.05,2.7 l 5.9,0.35 7.25,1.2 q 2.4,0.6 5.25,2.4 m -17.8,9.25 0.1,0.05 0.1,0.05 0.65,0.3 3,1 0.3,0.05 1.9,0.5 0.6,0.15 L 8.55,-4.4 12.1,-6 12.3,-6.1 14.1,-6.7 13.25,-7 11.85,-7.4 10.65,-7.75 9.8,-8 8.65,-8.3 4.6,-9.45 4.4,-9.5 3.05,-9.85 -2.1,-11.4 l -0.4,-0.15 -2.9,-1.05 -0.6,-0.25 -0.6,-0.3 -1.3,-0.8 0.1,-0.05 0.1,-0.05 0.4,0.1 1,0.3 0.45,0.2 2.95,1.15 0.45,0.1 4.55,1.05 4.5,1 1.9,0.4 1.85,0.4 h 0.05 l 3.35,0.75 0.3,0.05 0.1,0.05 2.3,0.75 0.7,0.25 -0.35,-0.85 -0.3,-0.1 -1.65,-0.4 -1.95,-0.65 -2.2,-0.65 -0.2,-0.15 q -3.35,-1.05 -3.75,-1.3 l 3.4,0.55 5.6,1.15 0.95,0.2 0.1,-0.25 -1.35,-1.45 q -2.8,-3.15 -5.95,-4 -4.55,-1.2 -10.75,-1.45 L -5.1,-16.9 h -1.6 l -2.65,0.2 -6,0.2 1.7,1.9 0.45,0.45 1.6,1.7 1.3,1.25 1,0.9 0.4,0.35 1.2,0.9 q 1.35,0.9 2.7,1.65 1.4,0.75 2.8,1.35 m 8.85,6.2 q -0.7,-1 -0.6,-1.9 L 3.85,-1.3 2.6,-0.9 -1.1,0.55 -3.05,1.55 -3.95,2 -4.15,2.1 -4.6,2.45 -6,3.35 -7.25,4.15 -8.65,5 -9,5.2 -9.55,5.55 -8.6,5.7 -8.3,5.75 -3.4,6.55 -2.3,6.7 2,7.75 2.65,7.95 3.55,8.2 6.2,9 6.65,8.95 7.4,9.35 8.5,9.75 8.3,9.35 Q 8.25,9.2 8.35,9 V 8.8 L 8.3,8.55 8.4,8.45 8.6,8.4 9,7.9 Q 10.9,5.95 14.3,5.25 L 13.85,5.1 14.25,4.85 14.6,4.75 13.4,4.35 H 13.35 L 11.7,4.45 H 11.1 4.5 0.95 0.75 L -0.8,4.65 H -1 L -1.9,4.35 -2,4.3 -2.25,3.7 -1.75,3.75 -0.6,3.65 4,3.4 6.05,3.25 10.3,2.95 9.85,2.7 Q 7.55,1.4 6.65,0.15 m 7.75,-4.5 -0.35,0.15 -2.35,1 -2.15,1.1 -0.25,0.15 -1.05,0.5 -0.4,0.2 0.6,0.55 1.75,1.5 0.4,0.25 1.85,1 0.4,0.15 2.15,0.5 0.25,0.1 V 2.65 l 0.2,0.15 0.15,0.05 0.15,0.05 2.05,-1.4 q 1.8,-1.05 3.5,-1.6 L 19.4,-0.3 18.95,-0.35 Q 14.45,-0.7 13.3,-1.2 l -0.2,-0.1 0.9,-0.05 3.1,-0.15 1.05,0.05 2.05,0.05 2.6,0.1 h 0.15 L 22.35,-1.75 19.7,-4.1 18.5,-5.4 q -1.9,0.2 -4.1,1.05 m 5.5,-3.45 v 0.35 l 1.85,2.2 1.1,1.1 q 1.95,1.8 3.5,2.7 0.85,0.5 1.6,0.7 l 0.7,0.15 1.2,-0.15 0.85,0.1 0.4,-0.1 0.85,-0.15 0.15,-0.05 0.35,-0.1 -0.3,-0.15 -1.65,-0.95 -2.35,-1.4 -0.35,-0.2 -0.75,-0.5 q -1.35,-0.9 -2.2,-1.55 l -0.1,-0.1 q 0.7,-0.2 1.4,0 l 0.75,0.3 2.05,0.8 0.45,0.15 1.4,0.5 2.75,1.35 0.3,0.2 0.6,0.3 -0.4,-1 -0.3,-0.55 L 33.7,-3.9 Q 32.5,-6.25 31.3,-7.05 29.8,-8 26.55,-8.85 l -1.8,-0.5 -1.15,-0.2 -2.95,0.2 -0.65,0.05 -0.55,0.05 -0.45,0.2 0.05,0.1 0.85,1.15 M 30.35,4.4 31.55,4.45 33.4,4.5 33.35,3.15 32.75,2.5 31.85,1.65 31.55,1.4 q -1,-0.65 -1.9,-0.65 -0.6,0 -1.45,1.5 l -0.1,0.1 -0.75,1.3 -0.15,0.3 -0.25,0.35 h 0.65 l 0.7,0.05 2.05,0.05 M 28.8,8.7 30.75,7.8 31.45,7.4 31.55,7.3 33.1,6.4 31.55,6.2 30.4,6.1 30,6.05 29.25,5.95 27.65,5.8 25.8,5.55 25.35,5.45 25,5.4 23.65,5.2 21.1,4.6 q 0.6,-0.4 1.1,-0.4 h 1.1 l 1.1,0.05 0.05,-0.05 v 0.05 h 1.25 0.25 0.25 L 26.7,4.3 26.4,4.1 26.3,4 25.95,3.75 25.75,3.3 25.7,3.1 25.5,2.3 25.25,1.45 25,0.85 l -0.8,0.2 -1.15,0.4 h -0.1 l -3.05,1.1 -1.05,0.4 -0.8,0.3 -0.15,0.05 -0.15,0.05 -1.15,0.35 2.5,1.6 1.05,0.65 0.3,0.2 1.65,1.05 1.55,0.85 q 1.95,1.1 2.6,1.1 h 0.45 0.15 L 27.95,8.95 28.8,8.7 M 26.3,11 25.05,10.85 24.6,10.9 24.5,10.8 22.05,10.3 18.75,9.75 18.7,9.6 18.6,9.4 18.5,9.2 18.65,9.15 19.05,9.1 h 0.1 l 2.2,0.2 1.1,0.1 -2.5,-1.3 -1.1,-0.7 -1.35,-1 q -1.9,0.45 -3.85,1.4 l -0.3,0.15 -0.3,0.2 -0.6,0.35 -1.55,0.85 -0.25,0.15 0.25,0.1 0.6,0.4 0.9,0.6 1.45,0.65 q 2.6,1.2 5.8,2 l 2.05,0.2 h 0.4 l 1.05,0.05 h 0.2 l 0.7,-0.1 1.35,-0.7 1,-1.15 0.4,-0.5 L 26.3,11 M 15.45,4.9 14.85,5.15 15.65,4.95 15.45,4.9 M 2.9,13 2.35,11.05 2.1,11.1 l -0.85,0.2 -1.1,0.3 0.45,0.55 0.9,1.1 0.8,1.15 0.05,0.1 0.85,1.25 0.4,-0.1 L 3.25,14.4 3.2,14.2 2.9,13 m 9.35,0.5 0.15,-0.05 0.5,-0.1 Q 10.65,12.45 9.5,11.3 L 9,11.2 8.35,11.05 H 8.3 L 7.45,11.2 4.3,10.8 l -1.4,0.15 0.65,1.95 0.3,1.05 0.1,0.55 0.25,0.85 v 0.15 l 8.05,-2 m 0.5,1.8 -5.25,1.1 -9.25,2.15 Q -6.65,19.8 -10,19.6 L -10.85,19.55 -10.1,19.2 -9.45,19 2.3,16 1.3,14.75 1.15,14.55 0.95,14.35 0.35,13.5 -0.3,12.55 -0.7,11.9 -2.15,12.45 q -2.95,1.2 -7.3,3.4 l -1.35,0.65 -1.55,0.85 -4.3,2.2 -0.15,0.05 -2.6,1.35 -2.7,1.25 6,1 q 7.7,0.9 10.15,0.25 l 6.2,-1.9 4.85,-1.5 2.65,-1.25 2.95,-1.8 1.95,-1.25 1.1,-0.6 -1,0.15 m -35.9,-23.85 q 4.3,-1.55 9.2,-1.55 h 1 l -1.15,-1.5 -3.65,-1.05 q -2.95,-0.85 -4.05,-1.45 l 2.4,-0.05 1.85,0.65 1.85,0.55 0.95,0.3 -0.5,-0.8 -3.25,-1 -1.15,-0.25 -3.55,-1.15 -2.85,-0.95 -0.75,-0.3 q -4.9,-1.7 -5.9,-2.4 l -0.1,-0.05 h 0.25 l 6.65,1.25 6.75,2 2.45,0.75 q -1.25,-1.9 -0.6,-1.85 h 0.05 q 0.5,-0.5 3.3,-0.9 l 1.65,-0.2 5,-0.55 q -2.05,-1.35 -4.55,-2.05 -7.2,-2.15 -16.6,-1.25 l -6.1,0.9 -0.9,0.25 q -2.3,0.8 -3.35,1 l 2.3,2.55 0.55,0.8 4.7,4.1 q 3.45,2.7 6.9,4.65 l 1.2,-0.45 m -8.35,7.2 -1.85,1.05 q 5.2,2.2 9.3,3.3 l 5.7,1.05 h 3.15 L -15.05,3.2 V 3.15 l -0.05,0.05 -0.25,-0.15 0.35,-0.2 0.6,-2.7 0.1,-0.3 0.3,-0.7 0.1,-0.2 0.1,-0.1 0.35,-0.25 0.2,-0.05 q 0.4,0 0.7,0.35 l 0.1,0.2 0.05,0.4 v 0.05 0.2 l 0.95,1.15 1,1.25 0.45,0.7 0.5,-0.35 q 2.85,-1.9 7.15,-3.85 l 1.8,-0.95 -2.25,-0.3 -1.5,-0.3 1.15,-0.2 0.8,-0.1 L -3.7,-3.65 -3.8,-3.7 -4,-3.8 h -0.5 l -7.3,0.25 -4.9,0.15 -0.9,0.05 -2.85,0.05 -0.15,0.05 h -0.9 -0.75 Q -22.75,-3.3 -23,-3.7 l 0.75,-0.2 0.25,-0.1 5.65,-0.7 0.95,-0.05 2,-0.05 5.05,-0.05 h 0.7 l 1.05,-0.05 -0.7,-0.4 -1.3,-0.85 -2.85,-2.3 q -6.1,0.1 -8.75,1.05 l -0.4,0.2 -1.1,0.45 -3.05,1.65 -1.35,0.7 -1.5,0.8 -3.9,2.25 m 14.8,-15.3 0.2,0.15 -0.05,-0.1 -0.15,-0.05 m 8.5,28.2 0.1,-1.1 0.15,-0.35 0.25,0.15 q 0.4,0.45 0.7,1.25 l 0.1,0.35 0.85,-0.4 0.4,-0.2 q 1.7,-0.85 4.4,-1.65 L -3.55,9 -6.25,8.35 -9.1,7.45 l -2.95,-0.5 -4.6,-0.15 1.1,-0.35 -0.95,-0.15 -4.4,-0.35 -1.25,-0.2 -2.15,0.8 -3.45,1.6 -0.15,0.05 -0.15,0.1 -2,1.1 0.05,0.2 9.85,2.05 10.4,1.6 0.15,-0.05 -0.3,-1.3 H -10 l -0.05,-0.35 v -0.2 l -0.15,-2 v -0.3 l 0.3,-0.3 0.75,2.2 0.2,0.6 0.2,0.8 0.1,0.4 0.6,-0.3 -0.15,-0.9 M -12.5,5 -11.25,3.8 -11.7,3.15 -12.1,2.5 -12.2,2.4 -12.5,2.45 q -0.15,1.6 -0.5,2.6 l -0.15,0.4 0.45,-0.1 L -12.5,5 M -13.35,6.15 -13.5,6 -13.65,6.15 h 0.3"
         fill="#9a9a9a"
         fill-rule="evenodd"
         stroke="none"
         id="path30" />
      <path
         d="m -2.2,-6.05 -0.5,-0.3 -4.15,-2.4 -1.6,-1.15 -0.25,-0.2 -1.2,-1 -1,-0.8 -0.6,-0.5 q -1,-0.95 -1.5,-2 l -0.2,-0.4 q -0.65,-1.9 2.25,-1.1 l 2,1.25 1.95,-0.15 3.25,0.1 h 0.1 q 1.35,-0.25 3.4,-0.05 h 0.3 l 5.95,1.15 4.1,0.95 3.7,1.3 q 1.3,0.65 1.95,1.45 l -5.6,-1.15 -3.4,-0.55 q 0.4,0.25 3.75,1.3 l 0.2,0.15 2.2,0.65 1.95,0.65 1.65,0.4 -0.05,0.7 -2.3,-0.75 -0.1,-0.05 -0.3,-0.05 -3.35,-0.75 h -0.05 l -1.85,-0.4 -1.9,-0.4 -4.5,-1 -4.55,-1.05 -0.45,-0.1 -2.95,-1.15 -0.45,-0.2 -1,-0.3 -0.4,-0.1 -0.1,0.05 -0.1,0.05 1.3,0.8 0.6,0.3 0.6,0.25 2.9,1.05 0.4,0.15 5.15,1.55 1.35,0.35 0.2,0.05 4.05,1.15 1.15,0.3 0.85,0.25 1.2,0.35 1.4,0.4 0.85,0.3 -1.8,0.6 L 12.1,-6 11.7,-6.2 9.85,-6 H 9.6 L 9,-6.1 q -1.15,0.6 -3,0.95 l -4.05,0.55 -0.3,-0.05 -3,-1 L -2,-5.95 -2.1,-6 -2.2,-6.05 M -3.95,2 -3.45,1.9 -2.05,1.55 -1.45,1.45 1.5,0.75 2.15,0.65 5.8,0.2 6.65,0.15 Q 7.55,1.4 9.85,2.7 L 10.3,2.95 6.05,3.25 4,3.4 -0.6,3.65 -1.75,3.75 -2.25,3.7 -2,4.3 -1.9,4.35 -1,4.65 h 0.2 l 1.55,-0.2 h 0.2 3.55 6.6 0.6 l 1.65,-0.1 h 0.05 l 1.2,0.4 -0.35,0.1 -0.4,0.25 0.45,0.15 Q 10.9,5.95 9,7.9 L 8.6,8.4 8.4,8.45 8.3,8.55 8.35,8.8 6.65,8.95 6.2,9 3.55,8.2 2.65,7.95 2,7.75 -2.3,6.7 -3.4,6.55 -8.3,5.75 -8.6,5.7 -9.55,5.55 -9,5.2 -8.65,5 -7.25,4.15 -6,3.35 -4.6,2.45 -4.15,2.1 -3.95,2 m 23.65,-6.1 2.65,2.35 0.6,0.45 H 22.8 L 20.2,-1.4 18.15,-1.45 17.1,-1.5 14,-1.35 l -0.9,0.05 0.2,0.1 q 1.15,0.5 5.65,0.85 l 0.45,0.05 1.9,0.2 Q 19.6,0.45 17.8,1.5 L 15.75,2.9 15.6,2.85 15.45,2.8 15.25,2.65 V 2.8 L 15,2.7 12.85,2.2 12.45,2.05 10.6,1.05 10.2,0.8 8.45,-0.7 l -0.6,-0.55 0.4,-0.2 1.05,-0.5 0.25,-0.15 2.15,-1.1 2.35,-1 0.35,-0.15 h 0.95 l 4.35,0.25 m 0.2,-3.7 -0.85,-1.15 -0.05,-0.1 0.45,-0.2 0.55,-0.05 0.65,-0.05 2.95,-0.2 1.15,0.2 q 1.45,0.65 3.4,2.1 l 2,1.95 0.65,1.15 -1.4,-0.5 -0.45,-0.15 -2.05,-0.8 -0.75,-0.3 q -0.7,-0.2 -1.4,0 l 0.1,0.1 q 0.85,0.65 2.2,1.55 l 0.75,0.5 0.35,0.2 2.35,1.4 -0.75,0.55 -0.3,0.1 -0.2,-0.05 -1.2,-0.15 Q 26.85,-2 23.65,-4.55 21.2,-6.4 19.9,-7.8 m 7.45,11.45 1.2,-0.1 q 1.5,0 1.8,0.85 L 28.3,4.35 27.6,4.3 H 26.95 L 27.2,3.95 27.35,3.65 M 30,6.05 29.65,6.4 29.7,6.5 29.5,7.8 28.8,8.7 27.95,8.95 H 27.7 L 26.7,8.9 H 26.65 L 23.65,8.05 22.1,7.2 20.45,6.15 20.15,5.95 19.1,5.3 18.6,4.8 Q 17.9,4 17.75,3.35 l 0.15,-0.05 0.15,-0.05 0.8,-0.3 1.05,-0.4 3.05,-1.1 h 0.1 l 1.15,-0.4 0.6,0.55 0.7,0.7 0.2,0.8 0.05,0.2 0.2,0.45 L 26.3,4 26.4,4.1 26.7,4.3 26.2,4.25 H 25.95 25.7 24.45 V 4.2 L 24.4,4.25 23.3,4.2 h -1.1 q -0.5,0 -1.1,0.4 l 2.55,0.6 1.35,0.2 0.35,0.05 0.45,0.1 1.85,0.25 1.6,0.15 0.75,0.1 m -11.15,1.35 1.1,0.7 2.5,1.3 -1.1,-0.1 -2.2,-0.2 h -0.1 l -0.4,0.05 -0.15,0.05 0.1,0.2 0.1,0.2 0.05,0.15 3.3,0.55 2.45,0.5 0.1,0.1 0.45,-0.05 1.25,0.15 q -0.65,1.05 -2.15,1.75 l -0.7,0.3 -1.35,0.4 h -0.4 l -2.05,-0.2 q -3.2,-0.8 -5.8,-2 L 12.4,10.6 11.5,10 10.9,9.6 V 9.35 l 1.55,-0.85 0.6,-0.35 0.3,-0.2 0.3,-0.15 1.7,-0.15 L 17,7.5 18.35,7.4 h 0.5 M 1.5,13.25 2.9,13 3.2,14.2 3.25,14.4 3.6,15.65 3.2,15.75 2.35,14.5 2.3,14.4 1.5,13.25 M 3.55,12.9 4.85,12.65 5.4,12.6 8.45,12.35 q 2.8,0.05 3.8,1.15 l -8.05,2 V 15.35 L 3.95,14.5 3.85,13.95 3.55,12.9 m -3.2,0.6 0.6,0.85 0.2,0.2 0.15,0.2 1,1.25 -11.75,3 -0.65,0.2 -0.75,0.35 0.85,0.05 q 3.35,0.2 8.25,-1.05 L 7.5,16.4 12.75,15.3 12.65,15.75 10.7,17 7.75,18.8 5.1,20.05 l -4.85,1.5 -4.05,0.5 -0.8,0.05 -4.75,-0.05 -0.8,-0.1 -2.6,-0.3 -0.45,0.15 -4.35,0.45 q -2.8,0 -1.85,-1.3 l 2.6,-1.35 0.15,-0.05 1.4,0.1 q 1.8,-1.45 4.55,-2.7 3.25,-1.5 7.8,-2.7 l 0.4,-0.15 2.85,-0.6 m -23.5,-22.05 -4.55,-2.9 -6.3,-4.3 q -3.4,-2.35 -0.5,-3.95 2.75,-1.45 5.2,-0.85 l 1.55,0.4 2.3,0.15 q 3.4,0.05 6.7,-0.05 2.25,0.1 5.45,1 l 1,0.55 -1.65,0.2 q -2.8,0.4 -3.3,0.9 h -0.05 q -0.65,-0.05 0.6,1.85 l -2.45,-0.75 -6.75,-2 -6.65,-1.25 h -0.25 l 0.1,0.05 q 1,0.7 5.9,2.4 l 0.75,0.3 2.85,0.95 3.55,1.15 1.15,0.25 3.25,1 0.5,0.8 -0.95,-0.3 -1.85,-0.55 -1.85,-0.65 -2.4,0.05 q 1.1,0.6 4.05,1.45 l 3.65,1.05 1.15,1.5 h -1 q -4.9,0 -9.2,1.55 m 7.8,11.6 -0.35,0.1 -6.6,-0.8 -3.15,-0.7 q -5.9,-1.4 -6.05,-3 l 3.9,-2.25 1.5,-0.8 2.3,-0.25 1.3,-0.1 1.25,-0.05 2.05,-0.85 0.5,-0.15 6.7,-0.45 3.4,0.1 1.3,0.85 0.7,0.4 -1.05,0.05 h -0.7 l -5.05,0.05 -2,0.05 -0.95,0.05 -5.65,0.7 -0.25,0.1 -0.75,0.2 q 0.25,0.4 0.75,0.45 h 0.75 0.9 l 0.15,-0.05 2.85,-0.05 0.9,-0.05 4.9,-0.15 7.3,-0.25 H -4 l 0.2,0.1 0.1,0.05 0.55,0.55 -1.15,0.2 1.5,0.3 q 0.3,0.55 0.45,1.25 Q -6.65,0.6 -9.5,2.5 L -9.95,2.15 -10.6,1.1 Q -11,0 -12.35,-0.5 l -0.05,0.05 V -0.5 l -0.05,-0.4 -0.1,-0.2 q -0.3,-0.35 -0.7,-0.35 l -0.2,0.05 -0.35,0.25 -0.1,0.1 -0.1,0.2 -0.3,0.7 -0.1,0.3 -0.6,2.7 -0.35,0.2 m -1.35,-19.7 0.15,0.05 0.05,0.1 -0.2,-0.15 M -7,11.5 q -0.3,-0.8 -0.7,-1.25 l -0.25,-0.15 -0.15,0.35 -0.1,1.1 h -0.75 l -0.2,-0.6 -0.75,-2.2 -0.3,0.3 v 0.3 l 0.15,2 v 0.2 q -6.85,0.05 -14,-1.5 L -24.8,9.85 Q -27.85,9.1 -27.9,8.3 V 8.2 l 0.15,-0.05 3.45,-1.6 3.4,-0.6 4.4,0.35 0.95,0.15 -1.1,0.35 4.6,0.15 2.95,0.5 2.85,0.9 2.7,0.65 2.3,0.6 q -2.7,0.8 -4.4,1.65 l -0.4,0.2 L -7,11.5 m -6,-6.45 0.5,-0.05 -0.2,0.35 -0.45,0.1 0.15,-0.4 m -0.35,1.1 h -0.3 L -13.5,6 l 0.15,0.15"
         fill="#d2d2d2"
         fill-rule="evenodd"
         stroke="none"
         id="path31" />
      <path
         d="M 15.75,-9.9 Q 15.1,-10.7 13.8,-11.35 L 10.1,-12.65 6,-13.6 0.05,-14.75 h -0.3 q -2.05,-0.2 -3.4,0.05 h -0.1 l -3.25,-0.1 -1.95,0.15 -2,-1.25 q -2.9,-0.8 -2.25,1.1 l 0.2,0.4 q 0.5,1.05 1.5,2 l 0.6,0.5 1,0.8 1.2,1 0.25,0.2 1.6,1.15 4.15,2.4 0.5,0.3 Q -3.6,-6.65 -5,-7.4 -6.35,-8.15 -7.7,-9.05 l -1.2,-0.9 -0.4,-0.35 -1,-0.9 -1.3,-1.25 -1.6,-1.7 -0.45,-0.45 -1.7,-1.9 6,-0.2 2.65,-0.2 h 1.6 l 3.85,0.05 q 6.2,0.25 10.75,1.45 3.15,0.85 5.95,4 l 1.35,1.45 -0.1,0.25 -0.95,-0.2 M 1.95,-4.6 6,-5.15 Q 7.85,-5.5 9,-6.1 L 9.6,-6 h 0.25 l 1.85,-0.2 0.4,0.2 -3.55,1.6 -4.1,0.45 -0.6,-0.15 -1.9,-0.5 m 14.5,-3.15 0.05,-0.7 0.3,0.1 0.35,0.85 -0.7,-0.25 M -3.95,2 l 0.9,-0.45 1.95,-1 3.7,-1.45 1.25,-0.4 2.2,-0.45 q -0.1,0.9 0.6,1.9 L 5.8,0.2 2.15,0.65 1.5,0.75 -1.45,1.45 -2.05,1.55 -3.45,1.9 -3.95,2 M 8.35,8.8 V 9 Q 8.25,9.2 8.3,9.35 L 8.5,9.75 7.4,9.35 6.65,8.95 8.35,8.8 M 19.7,-4.1 15.35,-4.35 H 14.4 q 2.2,-0.85 4.1,-1.05 l 1.2,1.3 m 10.8,1.95 1.65,0.95 0.3,0.15 -0.35,0.1 -0.15,0.05 -0.85,0.15 -0.4,0.1 -0.85,-0.1 -1.2,0.15 -0.7,-0.15 q -0.75,-0.2 -1.6,-0.7 -1.55,-0.9 -3.5,-2.7 l -1.1,-1.1 -1.85,-2.2 V -7.8 q 1.3,1.4 3.75,3.25 3.2,2.55 4.4,2.85 l 1.2,0.15 0.2,0.05 0.3,-0.1 0.75,-0.55 m -5.75,-7.2 1.8,0.5 q 3.25,0.85 4.75,1.8 1.2,0.8 2.4,3.15 l 0.05,0.05 -0.05,0.2 0.35,0.35 0.4,1 -0.6,-0.3 -0.3,-0.2 -2.75,-1.35 -0.65,-1.15 -2,-1.95 q -1.95,-1.45 -3.4,-2.1 m 2.6,13 0.75,-1.3 0.1,-0.1 q 0.85,-1.5 1.45,-1.5 0.9,0 1.9,0.65 l 0.3,0.25 0.9,0.85 0.6,0.65 L 33.4,4.5 31.55,4.45 30.35,4.4 q -0.3,-0.85 -1.8,-0.85 l -1.2,0.1 M 30,6.05 30.4,6.1 31.55,6.2 33.1,6.4 31.55,7.3 31.45,7.4 30.75,7.8 28.8,8.7 29.5,7.8 29.7,6.5 29.65,6.4 30,6.05 m -2.05,2.9 -1.1,0.2 H 26.7 26.25 q -0.65,0 -2.6,-1.1 l 3,0.85 h 0.05 l 1,0.05 h 0.25 M 19.1,5.3 16.6,3.7 17.75,3.35 Q 17.9,4 18.6,4.8 l 0.5,0.5 M 24.2,1.05 25,0.85 25.25,1.45 25.5,2.3 24.8,1.6 24.2,1.05 m 2.1,9.95 0.5,0.05 -0.4,0.5 -1,1.15 -1.35,0.7 -0.7,0.1 h -0.2 l -1.05,-0.05 1.35,-0.4 0.7,-0.3 Q 25.65,12.05 26.3,11 M 10.9,9.6 10.65,9.5 10.9,9.35 V 9.6 M 13.65,7.8 Q 15.6,6.85 17.5,6.4 l 1.35,1 h -0.5 L 17,7.5 15.35,7.65 13.65,7.8 m 1.8,-2.9 0.2,0.05 -0.8,0.2 0.6,-0.25 M 1.5,13.25 0.6,12.15 0.15,11.6 1.25,11.3 2.1,11.1 2.35,11.05 2.9,13 1.5,13.25 M 3.55,12.9 2.9,10.95 4.3,10.8 7.45,11.2 8.3,11.05 H 8.35 L 9,11.2 9.5,11.3 q 1.15,1.15 3.4,2.05 l -0.5,0.1 -0.15,0.05 q -1,-1.1 -3.8,-1.15 L 5.4,12.6 4.85,12.65 3.55,12.9 m -3.2,0.6 -2.85,0.6 -0.4,0.15 q -4.55,1.2 -7.8,2.7 -2.75,1.25 -4.55,2.7 l -1.4,-0.1 4.3,-2.2 1.55,-0.85 1.35,-0.65 q 4.35,-2.2 7.3,-3.4 l 1.45,-0.55 0.4,0.65 0.65,0.95 m -19.75,7.45 q -0.95,1.3 1.85,1.3 l 4.35,-0.45 0.45,-0.15 2.6,0.3 0.8,0.1 4.75,0.05 0.8,-0.05 4.05,-0.5 -6.2,1.9 Q -8.4,24.1 -16.1,23.2 l -6,-1 2.7,-1.25 m 7.1,-39.45 -1,-0.55 q -3.2,-0.9 -5.45,-1 -3.3,0.1 -6.7,0.05 l -2.3,-0.15 -1.55,-0.4 q -2.45,-0.6 -5.2,0.85 -2.9,1.6 0.5,3.95 l 6.3,4.3 4.55,2.9 -1.2,0.45 q -3.45,-1.95 -6.9,-4.65 l -4.7,-4.1 -0.55,-0.8 -2.3,-2.55 q 1.05,-0.2 3.35,-1 l 0.9,-0.25 6.1,-0.9 q 9.4,-0.9 16.6,1.25 2.5,0.7 4.55,2.05 l -5,0.55 m -3.05,21.55 0.25,0.15 0.05,-0.05 V 3.2 l -0.15,0.85 h -3.15 L -24.05,3 q -4.1,-1.1 -9.3,-3.3 l 1.85,-1.05 q 0.15,1.6 6.05,3 l 3.15,0.7 6.6,0.8 0.35,-0.1 m -10.75,-7.45 1.35,-0.7 3.05,-1.65 1.1,-0.45 0.4,-0.2 q 2.65,-0.95 8.75,-1.05 l 2.85,2.3 -3.4,-0.1 -6.7,0.45 -0.5,0.15 -2.05,0.85 -1.25,0.05 -1.3,0.1 -2.3,0.25 m 22.4,0.75 1.35,0.45 -0.8,0.1 -0.55,-0.55 m 0.9,1.05 2.25,0.3 -1.8,0.95 Q -2.5,-2.05 -2.8,-2.6 m -6.7,5.1 -0.5,0.35 -0.45,-0.7 -1,-1.25 -0.95,-1.15 v -0.2 l 0.05,-0.05 Q -11,0 -10.6,1.1 l 0.65,1.05 0.45,0.35 m 2.5,9 0.95,-0.05 -0.85,0.4 L -7,11.5 m -13.9,-5.55 -3.4,0.6 2.15,-0.8 1.25,0.2 m -7,2.35 q 0.05,0.8 3.1,1.55 l 0.75,0.2 q 7.15,1.55 14,1.5 L -10,11.9 h 0.1 l 0.3,1.3 -0.15,0.05 -10.4,-1.6 -9.85,-2.05 -0.05,-0.2 2,-1.1 h 0.15 m 18.95,3.25 h 0.75 l 0.15,0.9 -0.6,0.3 -0.1,-0.4 -0.2,-0.8 M -13,5.05 q 0.35,-1 0.5,-2.6 l 0.3,-0.05 0.1,0.1 0.4,0.65 0.45,0.65 L -12.5,5 -13,5.05"
         fill="#c6c6c6"
         fill-rule="evenodd"
         stroke="none"
         id="path32" />
    </g>
    <g
       id="sprite6"
       transform="translate(17.7,27.25)">
      <use
         ffdec:characterId="1036"
         height="54.450001"
         transform="translate(-17.7,-27.25)"
         width="35.450001"
         xlink:href="#shape6"
         id="use32" />
    </g>
    <g
       id="shape6"
       transform="translate(17.7,27.25)">
      <path
         d="m -15.1,-23.25 -0.1,-1 q 0,-0.9 0.65,-2 l -0.1,-0.15 0.15,-0.45 0.4,-0.05 0.45,-0.05 0.15,-0.05 0.25,-0.05 1.45,-0.15 1.95,-0.05 2.15,0.05 q 3.2,0.25 6.25,1.2 l 5.15,2.2 q 3.4,1.8 5.5,4.05 2.05,2.15 2.05,3.75 l -0.15,0.6 0.1,1.05 q 0,0.7 -3.25,3.15 l -0.15,0.1 q 4.15,1.45 7.1,5.45 l 1.2,1.25 q 1.55,1.8 1.6,3.65 l 0.05,0.1 L 17.7,-0.7 16.1,2.15 15.35,3.3 13.25,6.5 12.45,7.75 11.4,8.5 11.35,8.65 V 8.55 L 8.75,9.05 5.7,8.6 3.2,8.25 l 1.85,2.05 3.7,4.9 q 2.05,2.8 2.9,5 0.8,2.15 0.8,4.75 l -0.1,0.85 -0.1,0.3 q -0.1,0.55 -0.75,1.1 L 9.85,24.35 8.9,22.6 7.7,21.15 Q 6.2,19.5 4.2,18.35 -0.9,15.3 -3.1,12.9 -5.55,11 -5.55,9.85 -5.75,8.9 -5,7.95 l 0.05,-0.1 V 7.6 q 0,-1.9 2.6,-4.1 L -2.1,3.3 -1.15,2.6 -1.4,2.1 -1.75,1.3 q -4.15,-1 -6.1,-2.05 -1.45,-0.8 -2,-1.9 -0.45,-0.8 -0.45,-1.7 0,-1.1 0.45,-1.8 l 0.25,-0.4 1.35,-1.3 1.25,-1.4 0.6,-1.15 -2.35,-1.1 -1.1,-0.35 -5.25,-0.85 q -2.35,-0.2 -2.35,-1.25 l -0.25,-0.7 0.9,-3.2 1.35,-4.15 0.35,-1.25 m 24.05,7.8 q -0.7,-1.35 -2,-2.65 -1.95,-2 -5.35,-3.85 l -3.05,-1.45 q -2.4,-1 -5.05,-1.7 l -2.95,-0.2 H -9.6 -9.85 l -1.3,-0.15 -0.75,-0.05 -0.15,0.2 -0.85,0.85 -0.2,0.3 -1.15,4.85 -0.5,3.45 -0.05,0.25 -0.1,0.3 1.2,0.1 3.85,0.75 2.5,1 1.75,1.1 q 1.6,0.7 2.55,1.45 l 0.55,0.5 0.25,0.15 0.8,0.75 q 1.55,1.6 1.8,3.2 1.15,-2.75 3.25,-4.9 L 5.7,-13 q 0.95,-0.75 2,-1.35 l 1.45,-0.75 -0.2,-0.35 M 14.4,0 l 0.1,-0.1 0.95,-1.6 q 0,-0.45 -0.6,-1.2 L 13.35,-4.45 12.1,-5.55 11.6,-5.9 10.75,-6.6 8.2,-8.5 6.3,-10 4.4,-8.6 3.7,-7.35 3.15,-6.25 3,-5.9 2.9,-5.75 h 0.2 0.4 l 0.65,0.05 1.8,0.25 3.15,0.9 1.4,0.8 q 0,0.3 -0.7,0.3 L 9.1,-3.6 7.8,-3.9 7.3,-4 6.3,-4.2 5.3,-4.35 H 3.35 2.7 L 2.05,-4.3 1.8,-3.9 1.6,-3.65 q -0.1,0.45 -1,1 h -2.1 l -4,-0.65 -2.6,-0.45 q 0.4,1.3 3.15,2.15 L 1.95,0 Q 7.5,1.25 10,3.3 L 11.4,4.95 11.45,4.9 12.15,3.3 12.5,2.75 12.85,2.3 13.35,1.5 14.05,0.55 14.2,0.3 14.4,0 M -5.55,-7.85 -6.2,-7 -7.7,-5 -7.65,-5.05 -5,-5.2 q 2.4,0 3.05,0.45 l 0.25,0.15 0.7,-0.3 -0.5,-0.85 -1,-1.7 -0.4,-0.4 -0.8,-0.9 -0.95,-0.6 -0.9,1.5 M 0.2,3.6 -1.4,4.8 -2.2,5.75 -2.35,6.45 -1.1,6.2 0.7,6.1 5.6,6.6 8.7,7.15 q 0.55,0 1.4,-0.6 L 8.75,5.1 6.2,3.3 Q 4.6,2.5 2.8,2.2 L 1.8,2 1.55,2.6 0.6,3.3 0.2,3.6 m 2.7,11.65 2.95,2.4 0.55,0.45 0.7,0.55 2.15,1.95 0.5,0.55 L 9.9,21.3 9.8,21 Q 9,18.55 8.25,17.25 V 17.2 Q 7.65,16.15 4.25,12.6 1.85,10.05 1.7,8.1 H 0.8 0.45 -0.1 l -1.05,0.15 -1.6,0.4 -0.35,0.25 -0.05,1 q 0,1 1.75,2.55 l 3.1,1.95 1.2,0.85"
         fill="#6b6b6b"
         fill-rule="evenodd"
         stroke="none"
         id="path33" />
      <path
         d="m 8.95,-15.45 0.2,0.35 -1.45,0.75 1.25,-1.1"
         fill="#c2c2c2"
         fill-rule="evenodd"
         stroke="none"
         id="path34" />
      <path
         d="m -14.8,-15.6 0.05,-0.25 0.5,-3.45 1.15,-4.85 0.2,-0.3 0.85,-0.85 0.15,-0.2 0.75,0.05 1.3,0.15 h 0.25 0.15 l 2.95,0.2 q 2.65,0.7 5.05,1.7 l 3.05,1.45 q 3.4,1.85 5.35,3.85 1.3,1.3 2,2.65 l -1.25,1.1 q -1.05,0.6 -2,1.35 l -2.1,1.8 q -1.85,1.15 -2.8,1.15 l -2.25,-0.25 -1.6,-0.6 Q -4,-11.65 -5.6,-12.35 l -1.75,-1.1 -2.5,-1 -3.85,-0.75 -0.85,-0.25 -0.25,-0.15 M 3,-5.9 3.15,-6.25 3.7,-7.35 4.4,-8.6 6.3,-10 l 1.9,1.5 2.55,1.9 0.85,0.7 0.5,0.35 1.25,1.1 1.5,1.55 q 0.6,0.75 0.6,1.2 L 14.5,-0.1 14.4,0 14.2,0.15 V 0.3 L 14.05,0.55 13.35,1.5 12.85,2.3 12.5,2.75 6.15,-1.75 5,-2.35 4.05,-2.5 Q 2.45,-2.75 2.45,-3.55 V -3.6 L 1.8,-3.9 2.05,-4.3 2.7,-4.35 H 3.35 5.3 l 1,0.15 1,0.2 0.5,0.1 1.3,0.3 0.7,0.15 q 0.7,0 0.7,-0.3 L 9.1,-4.55 5.95,-5.45 4.15,-5.7 3.5,-5.75 H 3.1 L 3,-5.9 M -1.1,6.2 -2.35,6.45 -2.2,5.75 -1.4,4.8 0.2,3.6 -0.5,5.05 -1.1,6.2 M -1.15,8.25 -0.1,8.1 H 0.45 0.8 1.7 q 0.15,1.95 2.55,4.5 3.4,3.55 4,4.6 v 0.05 Q 9,18.55 9.8,21 L 9.9,21.3 9.75,21.15 9.25,20.6 7.1,18.65 6.4,18.1 5.85,17.65 2.9,15.25 2.3,14.55 2.2,14.65 0.3,13.2 q -1.05,-1.1 -1.05,-1.7 v -0.3 q -0.5,-0.9 -0.5,-1.9 l 0.1,-1.05"
         fill="#cde0e0"
         fill-rule="evenodd"
         stroke="none"
         id="path35" />
      <path
         d="M 3.6,-11.2 Q 1.5,-9.05 0.35,-6.3 0.1,-7.9 -1.45,-9.5 l -0.8,-0.75 -0.25,-0.15 -0.55,-0.5 1.6,0.6 2.25,0.25 q 0.95,0 2.8,-1.15 m -1.8,7.3 0.65,0.3 v 0.05 q 0,0.8 1.6,1.05 L 5,-2.35 6.15,-1.75 12.5,2.75 12.15,3.3 11.45,4.9 11.4,4.95 10,3.3 Q 7.5,1.25 1.95,0 l -6.9,-1.6 Q -7.7,-2.45 -8.1,-3.75 l 2.6,0.45 4,0.65 h 2.1 q 0.9,-0.55 1,-1 L 1.8,-3.9 m -7.35,-3.95 0.9,-1.5 0.95,0.6 0.8,0.9 0.4,0.4 1,1.7 0.5,0.85 -0.7,0.3 -0.25,-0.15 Q -2.6,-5.2 -5,-5.2 L -7.65,-5.05 -7.7,-5 -6.2,-7 -5.55,-7.85 M 0.2,3.6 0.6,3.3 1.55,2.6 1.8,2 2.8,2.2 Q 4.6,2.5 6.2,3.3 L 8.75,5.1 10.1,6.55 Q 9.25,7.15 8.7,7.15 L 5.6,6.6 0.7,6.1 -1.1,6.2 -0.5,5.05 0.2,3.6 m -1.35,4.65 -0.1,1.05 q 0,1 0.5,1.9 v 0.3 q 0,0.6 1.05,1.7 l 1.9,1.45 0.1,-0.1 0.6,0.7 L 1.7,14.4 -1.4,12.45 Q -3.15,10.9 -3.15,9.9 l 0.05,-1 0.35,-0.25 1.6,-0.4"
         fill="#b4c4c4"
         fill-rule="evenodd"
         stroke="none"
         id="path36" />
    </g>
    <g
       id="sprite7"
       transform="translate(8.05,7.7)">
      <use
         ffdec:characterId="1042"
         height="9.8999996"
         transform="matrix(1.0606,0,0,1.0606,-5.3712,-4.85)"
         width="10.65"
         xlink:href="#sprite8"
         id="use36" />
      <use
         ffdec:characterId="1043"
         height="15.45"
         transform="translate(-8.05,-7.7)"
         width="16.1"
         xlink:href="#shape8"
         id="use37" />
    </g>
    <g
       id="sprite8"
       transform="translate(5.3,4.95)">
      <use
         ffdec:characterId="1041"
         height="9.8999996"
         transform="translate(-5.3,-4.95)"
         width="10.65"
         xlink:href="#shape7"
         id="use38" />
    </g>
    <g
       id="shape7"
       transform="translate(5.3,4.95)">
      <path
         d="m -4.05,-3 q -0.45,0.85 -0.45,2.2 0,0.7 0.75,1.7 1.05,1.45 3,1.45 1.65,0 2.85,-1.75 1,-1.45 1,-2.55 0,-1.25 -0.65,-1.85 -0.95,-0.9 -3.4,-0.9 h -0.1 l 1.1,-0.2 q 2.1,-0.25 3.65,0.7 1.65,1.05 1.65,3.15 l -0.7,3.1 Q 3.25,4.95 0,4.95 -1.2,4.95 -3.2,3.4 -5.3,1.8 -5.3,0.7 q 0,-2.35 1.25,-3.7"
         fill="#c2c2c2"
         fill-rule="evenodd"
         stroke="none"
         id="path38" />
      <path
         d="m -1.05,-4.7 h 0.1 q 2.45,0 3.4,0.9 0.65,0.6 0.65,1.85 0,1.1 -1,2.55 -1.2,1.75 -2.85,1.75 -1.95,0 -3,-1.45 -0.75,-1 -0.75,-1.7 0,-1.35 0.45,-2.2 1.05,-1.2 3,-1.7"
         fill="#e0e0e0"
         fill-rule="evenodd"
         stroke="none"
         id="path39" />
    </g>
    <g
       id="shape8"
       transform="translate(8.05,7.7)">
      <path
         d="m 8.05,-0.75 q 0,2.6 -1,4.75 Q 5.25,7.75 0.9,7.75 -4.9,7.75 -7,4.85 -8.05,3.4 -8.05,1.4 q 0,-4.6 2.5,-7.05 2.2,-2.1 5.55,-2.05 3.2,0.05 5.55,1.9 2.5,2.05 2.5,5.05 M 0.3,-4.5 -0.8,-4.3 q -1.95,0.5 -3,1.7 -1.25,1.35 -1.25,3.7 0,1.1 2.1,2.7 2,1.55 3.2,1.55 3.25,0 4.65,-2.9 l 0.7,-3.1 Q 5.6,-2.75 3.95,-3.8 2.4,-4.75 0.3,-4.5"
         fill="#6b6b6b"
         fill-rule="evenodd"
         stroke="none"
         id="path40" />
    </g>
    <g
       id="sprite9"
       transform="translate(5.6,12.45)">
      <use
         ffdec:characterId="992"
         height="24.950001"
         transform="translate(-5.6,-12.45)"
         width="11.25"
         xlink:href="#shape9"
         id="use40" />
    </g>
    <g
       id="shape9"
       transform="translate(5.6,12.45)">
      <path
         d="m 1.35,-8.85 0.85,-1.1 0.15,-0.1 0.3,0.35 0.4,1.15 0.95,2.8 0.1,1.2 -1.15,3.8 L 1.6,1.7 0.65,2.65 0.8,1.15 v -0.5 l 0.35,-3 L 0.8,-3.7 0.75,-3.55 -0.2,-1.05 -0.6,0.2 -1.35,2.85 Q -1.8,2.65 -2.05,2.3 L -2.3,1.8 -2.45,0.6 q 0,-1.2 1.6,-5 1.15,-2.85 2.2,-4.45"
         fill="#ffffff"
         fill-rule="evenodd"
         stroke="none"
         id="path41" />
      <path
         d="m 2.2,-9.95 -1.15,1.2 q -1.25,1.45 -2.45,3.7 -1.95,3.65 -1.95,5.8 0,1.35 0.8,3.05 l 0.4,0.75 0.25,0.45 0.05,-0.3 0.5,-1.85 0.75,-2.65 0.4,-1.25 0.95,-2.5 0.05,-0.15 0.35,1.35 -0.35,3 v 0.5 l -0.15,1.5 -0.6,3 -0.1,0.3 L -0.2,6.65 0.65,6 1.15,5.55 V 5.5 Q 3.1,3.75 3.55,2.4 4.1,0.65 4.1,-2.7 V -4.55 L 4,-5.75 3.05,-8.55 2.65,-9.7 2.5,-10.2 2.35,-10.05 2.2,-9.95 m 3.45,7.15 q 0,3.3 -0.6,5.55 -1.2,4.95 -4.7,4.95 l -0.7,-0.1 -0.5,3.3 q 0,0.55 -0.25,1 -0.4,0.6 -1.05,0.6 -0.75,0 -1,-0.5 l -0.1,-0.65 0.7,-3.6 Q -3.75,7.4 -4.7,5.15 l -0.9,-2.8 q 0,-3.15 1.75,-7.25 1.7,-4.05 3.85,-6.2 2.35,-2.3 3.85,-0.7 1.8,1.9 1.8,9"
         fill="#6b6b6b"
         fill-rule="evenodd"
         stroke="none"
         id="path42" />
      <path
         d="m 1.05,-8.75 0.3,-0.1 q -1.05,1.6 -2.2,4.45 -1.6,3.8 -1.6,5 l 0.15,1.2 0.25,0.5 q 0.25,0.35 0.7,0.55 L -1.85,4.7 -1.9,5 -2.15,4.55 -2.55,3.8 q -0.8,-1.7 -0.8,-3.05 0,-2.15 1.95,-5.8 1.2,-2.25 2.45,-3.7 M 0.65,2.65 1.6,1.7 2.95,-0.75 4.1,-4.55 V -2.7 Q 4.1,0.65 3.55,2.4 3.1,3.75 1.15,5.5 V 5.55 H 0.95 L 0.65,6 -0.2,6.65 l 0.15,-0.7 0.1,-0.3 0.6,-3"
         fill="#e0e0e0"
         fill-rule="evenodd"
         stroke="none"
         id="path43" />
    </g>
    <g
       id="sprite10"
       transform="translate(5.4,4)">
      <use
         ffdec:characterId="43"
         height="8"
         transform="translate(-5.4,-4)"
         width="10.8"
         xlink:href="#shape10"
         id="use43" />
    </g>
    <g
       id="shape10"
       transform="translate(5.4,4)">
      <path
         d="m 2.9,-0.35 q 0,-1.25 1.25,-1.25 1.25,0 1.25,1.2 0,1.3 -1.25,1.3 Q 3.6,0.9 3.25,0.5 2.9,0.15 2.9,-0.35 m 0.35,-2.3 q 0,0.55 -0.35,0.9 -0.4,0.45 -1,0.45 -1.35,0 -1.35,-1.4 0,-1.3 1.35,-1.3 1.35,0 1.35,1.35 m -3.1,1.9 h 0.2 q 2.6,0.1 2.6,2.8 l -0.3,1 Q 2.05,4 0.45,4 H 0.35 0.15 0.1 -0.45 q -1.6,0 -2.2,-0.95 l -0.3,-1 q 0,-2.8 2.8,-2.8 h 0.3 M -1.55,-4 q 1.35,0 1.35,1.35 0,0.55 -0.4,0.9 -0.4,0.45 -0.95,0.45 -1.4,0 -1.4,-1.4 0,-1.3 1.4,-1.3 m -2.6,2.4 q 1.25,0 1.25,1.25 0,0.5 -0.35,0.85 -0.35,0.4 -0.9,0.4 -1.25,0 -1.25,-1.3 0,-1.2 1.25,-1.2"
         fill="#6b6b6b"
         fill-rule="evenodd"
         stroke="none"
         id="path44" />
    </g>
    <g
       id="sprite11"
       transform="translate(28.1,47.25)">
      <use
         ffdec:characterId="1077"
         height="94.550003"
         transform="translate(-28.1,-47.25)"
         width="56.200001"
         xlink:href="#shape11"
         id="use44" />
    </g>
    <g
       id="shape11"
       transform="translate(28.1,47.25)">
      <path
         d="m -24.95,-46.65 0.1,-0.2 2.9,-0.2 1,-0.05 v 0.1 l 10.35,0.95 -0.15,-0.15 5.05,0.15 H 6.25 l 8.8,-0.7 q 3.6,-1.15 5,0.25 l 0.4,0.5 0.25,-0.15 0.05,0.85 0.1,0.75 v 0.2 q 0,1 -0.2,1.45 l -0.35,0.55 v 0.1 q -0.45,2.1 -0.45,3.25 l 0.2,6.75 0.35,1.4 q 1.3,5.4 1.3,10.95 l -0.85,5.05 q -1.35,5 -3.65,5.2 -0.35,0.05 -3.85,-1.65 l -0.7,1.7 q -1,2.7 -1,3.95 0,1.35 0.75,3 L 13.15,-1 q 3.05,1.55 4.5,4.95 1.15,2.7 1.15,8.55 0,4.3 -1.05,7.15 -0.8,2.1 -2.7,4.95 l -0.25,0.55 q -2.45,5.45 -2.45,7.95 0,2.55 0.65,3.85 l 1.5,3.35 q 3.85,3.2 9.95,2.75 l 1.4,-0.4 q 0.65,-0.35 0.95,-0.4 1.3,-0.1 1.3,0.9 0,0.7 -2.45,2.3 Q 23,47.05 21.1,47.2 14.2,47.75 10,45.3 7.7,44.1 6.05,42 3.2,38.15 3.2,33.3 q 0,-3.95 2.8,-9.35 1.75,-3.3 2.5,-6.3 l 0.05,-2.5 Q 8.55,8.95 6.2,4.95 4.55,2.1 0.6,-1.55 q -3.45,-2.1 -6.25,-5.95 -2.2,-3.05 -3.55,-6.75 -1.05,-2.95 -1.05,-4.3 0,-2.8 0.75,-4.3 1.25,-2.6 4.15,-0.95 l 0.1,-0.85 q 0,-2.6 -2.2,-7.8 l -2,-4.35 -6.75,-3.85 -9.1,-4.8 0.35,-1.2 m 36.8,9.95 0.15,-0.25 0.35,-0.65 1,-1.65 q 2.5,-4.15 4.4,-5.2 H 16.8 l -1.45,0.35 -9.15,0.7 H 4.75 4.5 l -0.8,-0.05 -4.85,-0.25 -3.75,-0.45 q 8.3,3.8 13,5 l -0.3,0.3 -0.05,0.1 -2.5,0.55 q -0.95,0.05 -6.35,-2.05 l -6.35,-2.65 q -3.25,-1.15 -7.6,-1.95 l -4.5,-0.7 -1.3,-0.15 -0.45,-0.1 v 0.15 0.1 l 0.3,0.1 0.05,0.05 2.7,1.35 3.85,1.85 q 3.45,1.75 6.85,4.05 l 0.85,0.55 q 6.55,4.5 10.4,9 l 0.4,0.45 1.55,2.05 H 5.7 v 0.05 L 6.65,-24.6 7,-25.7 q 1.35,-3.75 3.05,-7.3 l 1.5,-3.05 0.3,-0.65 m 5.75,2.05 0.1,-2.9 -0.05,-0.5 v -1.6 l -0.1,0.2 -0.55,0.75 -0.2,0.3 -0.95,1.35 V -37 l -0.55,0.7 -0.35,0.55 -0.4,0.6 -0.15,0.2 -1.85,2.85 -2.05,4.95 -0.75,1.9 -0.95,2.1 q -1.15,2.4 -2,2.45 -0.95,0.1 -6.1,-5.85 l -6.05,-7 1.3,3.15 q 1.2,3.9 1.2,8.25 l -0.85,4.55 8.15,1.3 2.5,0.65 1.2,0.15 0.2,0.05 H 8.7 l 0.85,0.15 0.2,0.05 H 9.85 10 l 0.35,0.15 0.45,0.15 0.2,0.1 h 0.2 l 0.75,0.2 0.4,0.1 1.3,0.45 1.7,0.7 0.5,0.3 0.75,0.5 0.65,-0.95 0.45,-0.85 0.2,-0.6 0.05,-0.15 0.8,-3.15 0.15,-0.8 V -20 q -0.05,-3.3 -0.65,-6.55 v -0.05 q -0.5,-3.1 -0.65,-5.4 v -0.8 -0.1 -1.75 M 11.65,-12 11.2,-12.2 10.6,-12.4 10.2,-12.5 9.4,-12.75 H 9.2 Q 8.9,-12.9 8.65,-13 l -0.6,-0.15 -0.35,-0.1 -0.9,-0.3 -0.1,0.05 -5.7,-0.5 -2.65,-0.5 -0.6,-0.05 Q -6.7,-15 -6.7,-16.85 l 0.75,-3.55 0.45,-2.15 H -6 l -1.5,0.1 -0.4,3.95 q 0,1.8 1.5,5.2 1.5,3.4 2.8,4.55 l 2.45,2.35 q 1.6,1.5 3.4,2.35 0.95,0.45 5.85,1.5 L 8.35,-2.5 8.5,-2.45 10,-2.1 9.95,-2.25 9.85,-2.6 Q 9.6,-4.05 9.6,-5.55 v -0.5 q 0.1,-1.65 0.8,-3.35 0.45,-1.15 1.2,-2.3 l 0.05,-0.05 0.15,-0.25 h -0.15 m -39.35,-34.9 -0.4,-0.25 0.4,0.1 v 0.15 m 0,0.55 h -0.05 l 0.05,-0.1 v 0.1 m 42.3,67.05 1.2,-3.3 0.15,-0.65 Q 16.4,14.35 16.4,7.8 16.4,6 15.3,4.55 14.15,2.85 11.6,1.5 L 10.4,0.95 9.95,0.75 5.65,0.4 q 2.45,1.8 4.6,6.1 1.45,2.85 2.25,5.25 l 0.45,1.55 0.5,3 0.05,0.8 -0.05,0.75 L 13,17.9 12.85,17.45 11.8,14.15 10.15,9 q 0.6,2.65 0.6,5.9 0,4.3 -0.8,6.3 l -0.1,0.25 -0.5,1.85 q -0.55,2.3 -0.55,3.4 0,4.05 1.65,7.85 l -0.05,-1.3 q 0,-3.35 2.4,-8.55 l 0.15,-0.2 1.3,-2.95 0.35,-0.85 M 7.5,25.8 H 7.45 v 0.05 l -0.25,0.55 -1.05,2.7 -0.5,2 q -0.4,1.9 -0.4,3.8 0,2.7 2.3,5.6 l 1.3,1.35 0.65,0.65 2.3,1.85 2.8,0.6 0.15,0.05 q 2.55,0.3 6.1,0 l 0.55,-0.2 v -0.05 l 0.05,-0.05 -0.1,0.05 q -2.6,-0.3 -4.8,-1.4 -3.25,-1.6 -5.7,-4.9 Q 7.5,33.8 7.5,29.15 L 7.55,25.7 7.6,25.55 7.55,25.65 7.5,25.8"
         fill="#6b6b6b"
         fill-rule="evenodd"
         stroke="none"
         id="path45" />
      <path
         d="m 10.5,-27.15 2.05,-4.95 1.85,-2.85 v 0.05 l -3.3,6.6 -0.4,0.85 -0.2,0.3 M 7.55,40.5 q -2.3,-2.9 -2.3,-5.6 0,-1.9 0.4,-3.8 0,5.5 1.55,8.65 l 0.35,0.75"
         fill="#c2c2c2"
         fill-rule="evenodd"
         stroke="none"
         id="path46" />
      <path
         d="m -1.15,-43.7 4.85,0.25 0.8,0.05 H 4.75 6.2 l 9.15,-0.7 1.45,-0.35 h 0.95 q -1.9,1.05 -4.4,5.2 l -1,1.65 -0.35,0.65 -0.15,0.25 -0.55,0.25 0.25,0.4 -1.5,3.05 Q 8.35,-29.45 7,-25.7 L 6.65,-24.6 5.7,-26.05 V -26.1 H 5.65 L 4.1,-28.15 v -0.1 L 3.7,-28.6 q -3.85,-4.5 -10.4,-9 l -0.85,-0.55 q -3.4,-2.3 -6.85,-4.05 l -3.85,-1.85 -2.7,-1.35 -0.05,-0.05 0.15,-0.25 1.3,0.15 4.5,0.7 q 4.35,0.8 7.6,1.95 l 6.35,2.65 q 5.4,2.1 6.35,2.05 l 2.5,-0.55 0.05,-0.1 1.6,0.8 0.3,-0.55 -4.3,-2.5 -4.4,-1.75 -2.15,-0.85 m 18.7,4.25 0.1,2.1 -0.1,1.85 0.05,0.85 v 1.75 0.1 0.8 q 0.15,2.3 0.65,5.4 v 0.05 q 0.6,3.25 0.65,6.55 v 0.9 l -0.15,0.8 -0.8,3.15 -0.05,0.15 -0.2,0.6 -0.45,0.85 -0.65,0.95 -0.75,-0.5 -0.5,-0.3 -1.7,-0.7 -1.3,-0.45 -0.4,-0.1 -0.75,-0.2 H 11 L 10.8,-14.95 10.35,-15.1 10,-15.25 H 9.85 9.75 L 9.55,-15.3 8.7,-15.45 H 8.35 L 8.15,-15.5 8.1,-15.6 q -0.15,-0.15 -0.15,-0.95 0,-2.7 0.7,-5.85 l 0.15,-0.75 0.95,-2.1 0.75,-1.9 0.2,-0.3 0.4,-0.85 3.3,-6.6 v -0.05 l 0.15,-0.2 0.4,-0.6 0.35,-0.55 0.55,-0.7 v -0.05 l 0.95,-1.35 0.2,-0.3 0.55,-0.75 M 6.7,-13.5 l 0.1,-0.05 0.9,0.3 0.35,0.1 0.6,0.15 q 0.25,0.1 0.55,0.25 h 0.2 l 0.8,0.25 0.4,0.1 0.6,0.2 0.45,0.2 v 0.25 l -0.05,0.05 q -0.75,1.15 -1.2,2.3 -0.7,1.7 -0.8,3.35 v 0.5 q 0,1.5 0.25,2.95 L 9.95,-2.25 10,-2.1 8.5,-2.45 8.35,-2.5 8.1,-2.55 8.05,-2.75 7.95,-3.05 7.55,-4.25 Q 7.3,-5.3 7.3,-8.85 q 0,-2.2 0.25,-3.8 l -0.85,-0.8 v -0.05 m 5.1,27.65 1.05,3.3 0.15,0.45 0.45,-0.05 0.05,-0.75 -0.05,-0.8 -0.5,-3 -0.45,-1.55 Q 11.7,9.35 10.25,6.5 8.1,2.2 5.65,0.4 l 4.3,0.35 0.45,0.2 1.2,0.55 q 2.55,1.35 3.7,3.05 1.1,1.45 1.1,3.25 0,6.55 -0.45,8.95 l -0.15,0.65 -1.2,3.3 -0.1,-0.05 -0.15,0.3 -0.1,0.55 v 0.05 l -1.3,2.95 -0.1,-0.1 -0.95,2 -0.2,-0.85 0.75,-4.55 0.1,-0.8 V 19.85 19.6 L 12.2,16.25 11.8,14.15 M 5.65,31.1 6.15,29.1 7.2,26.4 7.45,25.85 V 25.8 H 7.5 L 7.55,25.7 7.5,29.15 q 0,4.65 3.35,9.3 2.45,3.3 5.7,4.9 2.2,1.1 4.8,1.4 l 0.1,-0.05 -0.05,0.05 V 44.8 L 20.85,45 q -3.55,0.3 -6.1,0 L 14.6,44.95 11.8,44.35 9.5,42.5 8.85,41.85 7.55,40.5 7.2,39.75 Q 5.65,36.6 5.65,31.1"
         fill="#cde0e0"
         fill-rule="evenodd"
         stroke="none"
         id="path47" />
      <path
         d="m 7.8,-38.85 0.3,-0.3 q -4.7,-1.2 -13,-5 l 3.75,0.45 2.15,0.85 4.4,1.75 4.3,2.5 -0.3,0.55 -1.6,-0.8 m 0.35,23.35 -1.2,-0.15 -2.5,-0.65 -8.15,-1.3 0.85,-4.55 q 0,-4.35 -1.2,-8.25 l -1.3,-3.15 6.05,7 q 5.15,5.95 6.1,5.85 0.85,-0.05 2,-2.45 l -0.15,0.75 q -0.7,3.15 -0.7,5.85 0,0.8 0.15,0.95 l 0.05,0.1 M 8.1,-2.55 Q 3.2,-3.6 2.25,-4.05 0.45,-4.9 -1.15,-6.4 L -3.6,-8.75 q -1.3,-1.15 -2.8,-4.55 -1.5,-3.4 -1.5,-5.2 l 0.4,-3.95 1.5,-0.1 h 0.5 l -0.45,2.15 -0.75,3.55 q 0,1.85 4.45,2.3 l 0.6,0.05 2.65,0.5 5.7,0.5 v 0.05 l 0.85,0.8 q -0.25,1.6 -0.25,3.8 0,3.55 0.25,4.6 l 0.4,1.2 0.1,0.3 0.05,0.2 m 4.85,27.05 -0.15,0.2 q -2.4,5.2 -2.4,8.55 l 0.05,1.3 Q 8.8,30.75 8.8,26.7 q 0,-1.1 0.55,-3.4 l 0.5,-1.85 0.1,-0.25 q 0.8,-2 0.8,-6.3 0,-3.25 -0.6,-5.9 l 1.65,5.15 0.4,2.1 0.35,3.35 v 0.25 0.35 l -0.1,0.8 -0.75,4.55 0.2,0.85 0.95,-2 0.1,0.1"
         fill="#b4c4c4"
         fill-rule="evenodd"
         stroke="none"
         id="path48" />
    </g>
  </defs>
</svg>
