<?xml version="1.0" encoding="UTF-8" standalone="no"?>
<svg
   ffdec:objectType="frame"
   height="44.299999"
   width="84.75"
   version="1.1"
   id="svg7"
   sodipodi:docname="2.svg"
   xmlns:inkscape="http://www.inkscape.org/namespaces/inkscape"
   xmlns:sodipodi="http://sodipodi.sourceforge.net/DTD/sodipodi-0.dtd"
   xmlns:xlink="http://www.w3.org/1999/xlink"
   xmlns="http://www.w3.org/2000/svg"
   xmlns:svg="http://www.w3.org/2000/svg"
   xmlns:ffdec="https://www.free-decompiler.com/flash">
  <sodipodi:namedview
     id="namedview7"
     pagecolor="#ffffff"
     bordercolor="#000000"
     borderopacity="0.25"
     inkscape:showpageshadow="2"
     inkscape:pageopacity="0.0"
     inkscape:pagecheckerboard="0"
     inkscape:deskcolor="#d1d1d1"
     fit-margin-top="5"
     fit-margin-left="5"
     fit-margin-right="5"
     fit-margin-bottom="5" />
  <g
     transform="translate(41.75,27.4)"
     id="g2">
    <use
       ffdec:characterId="508"
       height="44.349998"
       transform="translate(-41.75,-27.45)"
       width="84.75"
       xlink:href="#sprite0"
       id="use1" />
    <use
       ffdec:characterId="510"
       height="11.05"
       transform="translate(-36.3,-18.55)"
       width="73.050003"
       xlink:href="#sprite1"
       id="use2" />
  </g>
  <defs
     id="defs7">
    <g
       id="sprite0"
       transform="translate(42.35,22.2)">
      <use
         ffdec:characterId="507"
         height="44.349998"
         transform="translate(-42.35,-22.2)"
         width="84.75"
         xlink:href="#shape0"
         id="use3" />
    </g>
    <g
       id="shape0"
       transform="translate(42.35,22.2)">
      <path
         d="m -20.35,-11.9 3.7,-1.3 -2.1,-2.1 -2.45,-2.05 -1.15,3.45 -0.55,2 h 2.55 m 59.5,18.3 q 3.25,0.15 3.25,0.85 0,0.7 -3.4,0.8 h -3.5 l -3.8,0.4 -1.75,3.15 3.6,1.3 3.55,0.95 q 3.1,1.05 2.9,1.7 l -3.5,-0.1 -3.35,-0.9 -2.75,-0.45 0.6,1.75 q 0.4,1.05 0.4,2.25 0,1.95 -0.65,2.65 v 0.05 q 0,0.55 -0.5,0.8 l -3.2,0.55 H 13.6 L 12.1,22 H 8.2 0.65 L -0.4,21.95 -1.45,22 h -7.5 l -3.05,0.05 -1.2,0.1 h -13.45 l -3.2,-0.55 q -0.45,-0.25 -0.45,-0.8 v -0.05 q -0.65,-0.7 -0.65,-2.65 0,-1.2 0.4,-2.25 0.25,-1.05 0.7,-1.8 l -3.25,0.5 -3.35,0.9 -3.5,0.1 q -0.2,-0.65 2.9,-1.7 l 3.55,-0.95 2.95,-1.05 -1.95,-3.45 -2.95,-0.35 h -3.5 q -3.4,-0.1 -3.4,-0.8 0,-0.7 3.25,-0.85 h 3.65 l 2.05,-0.2 q -1.15,-3.2 -1.15,-5.6 0,-5.1 0.5,-6.6 1.3,-3.85 6.4,-5.9 h 2.4 l 0.6,-2.6 0.9,-4 0.65,-1.65 0.4,-0.8 0.5,-0.3 q 0.85,-0.15 2.35,1.15 l 2.7,3.2 2.1,2 q 0.85,0.95 1.1,1.7 0.4,0.2 0.5,0.6 l -0.05,0.05 v 0.65 h 29.35 l 0.2,-0.4 0.65,-1.95 1.5,-2.4 1.85,-3.8 q 1.05,-1.65 1.9,-1.7 l 0.6,0.1 0.55,0.7 1.1,1.4 1.85,3.65 1.55,2.6 q 0.55,1.15 0.55,1.95 l 0.1,0.15 -0.05,0.3 q 3.95,2 5.05,5.3 0.5,1.5 0.5,6.6 0,2.35 -1.1,5.5 l 2.85,0.3 h 3.65 M 28.7,7.25 Q 28.75,6.7 29.15,6.4 30.2,4 30.35,1.1 l 0.15,-3.05 q 0,-8.25 -6.75,-7.4 H -24.5 l -1,-0.05 q -5.8,-0.15 -5.8,7.45 l 0.15,3.05 q 0.1,2.7 1.05,4.95 1.4,0.2 1.45,1.2 0,0.65 -0.6,0.95 0.65,1.6 1.65,3.05 0.3,0.05 0.55,0.25 2.6,-1.4 7,-1.45 h 0.25 q 6.9,0.15 9.45,3.35 0.75,0.95 1.1,2.45 0.4,1.05 0.4,2.25 L -8.9,19.2 H 9.4 L 9.3,18.1 q 0,-1.2 0.4,-2.25 0.35,-1.5 1.1,-2.45 2.55,-3.25 9.4,-3.35 h 0.25 q 3.9,0.1 6.45,1.15 Q 28,9.45 28.7,7.5 V 7.25 m -33.35,-6 q -1.25,0 -1.25,-1.2 0,-1.3 1.25,-1.3 0.55,0 0.9,0.4 0.35,0.35 0.35,0.85 0,1.25 -1.25,1.25 m 4.3,-0.85 h -0.3 q -2.8,0 -2.8,-2.8 l 0.3,-1 q 0.6,-0.95 2.2,-0.95 h 0.55 0.05 0.2 0.1 q 1.6,0 2.2,0.95 l 0.3,1 q 0,2.7 -2.6,2.8 h -0.2 M 2.4,0 q 0,-0.5 0.35,-0.85 0.35,-0.4 0.9,-0.4 1.25,0 1.25,1.3 0,1.2 -1.25,1.2 Q 2.4,1.25 2.4,0 m 20.25,-12.7 2.8,0.05 q -1.4,-2.4 -1.35,-2.5 l -2.1,-3.05 -1.8,2.65 -1.5,2.6 3.95,0.25 M 20.1,12.9 q -4.7,0 -6.65,1.8 -0.75,0.85 -1,2.15 l -0.2,2.35 v 0.15 L 13.6,19.2 14.4,19.15 15.5,19.1 15.45,19 q -0.5,-0.75 -0.5,-1.8 L 15,16.5 15.45,16.05 q 1,0.85 1.9,2.4 l 0.35,0.65 h 0.5 4.2 l 0.3,-0.35 0.7,-0.9 2,-1.8 0.2,0.1 0.05,0.4 q 0,0.8 -1,2.25 l -0.2,0.3 3.95,0.25 -0.15,-2.5 Q 28.05,15.7 27.35,14.9 L 27.2,14.7 q -0.85,-0.75 -2.15,-1.2 l -4.5,-0.6 H 20.45 20.2 20.1 M 15.75,5.3 Q 16.2,5.1 16.2,4.55 16.2,2.8 14.65,2.7 13.1,2.6 13.1,4.4 l 0.05,0.45 Q 13.5,5.3 15,5.3 h 0.75 M 15,1.2 Q 18.8,0.95 18.8,5 18.8,6 18.25,7 17.5,8.6 15.8,8.6 13,8.6 11.85,6.95 11.2,5.95 11.2,4.7 11.2,3.25 12.35,2.25 13.5,1.3 15,1.2 M 2.75,2.3 q 0,1.35 -1.35,1.35 -1.35,0 -1.35,-1.3 0,-1.4 1.35,-1.4 0.6,0 1,0.45 0.35,0.35 0.35,0.9 M 8,7.25 Q 8,4.7 8.95,5.3 9.9,5.9 9.9,8.4 9.9,9.7 9.1,10.55 7.55,12.4 2.9,12.4 0.95,12.4 -0.45,10.55 L -0.5,10.4 -0.6,10.55 q -1.35,1.85 -3.3,1.85 -4.65,0 -6.25,-1.85 -0.75,-0.85 -0.75,-2.15 0,-2.5 0.95,-3.1 0.9,-0.6 0.9,1.95 0,1 0.7,1.75 1.1,1.05 3.45,1.05 2.2,0 2.85,-1.4 0.65,-1.45 1.5,-1.45 h 0.1 q 0.85,0 1.5,1.45 0.65,1.4 2.8,1.4 2.4,0 3.5,-1.05 Q 8,8.25 8,7.25 M -2.05,3.65 q -1.4,0 -1.4,-1.3 0,-1.4 1.4,-1.4 0.55,0 0.95,0.45 0.4,0.35 0.4,0.9 0,1.35 -1.35,1.35 M -15.95,1.2 q 3.8,-0.25 3.8,3.8 0,1 -0.55,2 -0.75,1.6 -2.45,1.6 -2.8,0 -3.95,-1.65 -0.65,-1 -0.65,-2.25 0,-1.45 1.15,-2.45 1.15,-0.95 2.65,-1.05 m 0.75,4.1 q 0.45,-0.2 0.45,-0.75 0,-1.75 -1.55,-1.85 -1.55,-0.1 -1.55,1.7 l 0.05,0.45 q 0.35,0.45 1.85,0.45 h 0.75 m -4.95,7.6 q -3.35,0 -5.3,0.95 -0.8,0.35 -1.35,0.85 l -0.6,0.95 -0.4,1.2 -0.2,2.5 3.25,-0.25 q -0.5,-0.65 -0.55,-1.6 v -0.3 l 0.05,-0.7 0.45,-0.45 q 1.2,1.05 2.25,3.05 h 0.5 4.2 l 0.35,-0.45 0.65,-0.8 2,-1.8 0.2,0.1 0.05,0.4 q 0,0.8 -1,2.25 l -0.15,0.25 -0.05,0.05 h 0.3 l 1.9,0.1 1.75,0.15 V 19.2 L -12,16.85 q -0.25,-1.3 -1.05,-2.15 -1.95,-1.8 -6.65,-1.8 h -0.1 -0.25 -0.1"
         fill="#a6a6a6"
         fill-rule="evenodd"
         stroke="none"
         id="path3" />
      <path
         d="M 15.75,5.3 H 15 q -1.5,0 -1.85,-0.45 L 13.1,4.4 q 0,-1.8 1.55,-1.7 1.55,0.1 1.55,1.85 0,0.55 -0.45,0.75 m -30.95,0 h -0.75 q -1.5,0 -1.85,-0.45 L -17.85,4.4 q 0,-1.8 1.55,-1.7 1.55,0.1 1.55,1.85 0,0.55 -0.45,0.75"
         fill="#dedede"
         fill-rule="evenodd"
         stroke="none"
         id="path4" />
      <path
         d="m -20.35,-11.9 h -2.55 l 0.55,-2 1.15,-3.45 2.45,2.05 2.1,2.1 -3.7,1.3 M 28.7,7.25 V 7.5 Q 28,9.45 26.9,11.2 24.35,10.15 20.45,10.05 H 20.2 q -6.85,0.1 -9.4,3.35 -0.75,0.95 -1.1,2.45 -0.4,1.05 -0.4,2.25 l 0.1,1.1 H -8.9 l 0.05,-1.1 q 0,-1.2 -0.4,-2.25 -0.35,-1.5 -1.1,-2.45 -2.55,-3.2 -9.45,-3.35 h -0.25 q -4.4,0.05 -7,1.45 -0.25,-0.2 -0.55,-0.25 -1,-1.45 -1.65,-3.05 0.6,-0.3 0.6,-0.95 -0.05,-1 -1.45,-1.2 -0.95,-2.25 -1.05,-4.95 l -0.15,-3.05 q 0,-7.6 5.8,-7.45 l 1,0.05 h 48.25 q 6.75,-0.85 6.75,7.4 L 30.35,1.1 Q 30.2,4 29.15,6.4 28.75,6.7 28.7,7.25 m -33.35,-6 q 1.25,0 1.25,-1.25 0,-0.5 -0.35,-0.85 -0.35,-0.4 -0.9,-0.4 -1.25,0 -1.25,1.3 0,1.2 1.25,1.2 M 2.4,0 q 0,1.25 1.25,1.25 1.25,0 1.25,-1.2 0,-1.3 -1.25,-1.3 -0.55,0 -0.9,0.4 Q 2.4,-0.5 2.4,0 m -2.75,0.4 h 0.2 q 2.6,-0.1 2.6,-2.8 l -0.3,-1 q -0.6,-0.95 -2.2,-0.95 h -0.1 -0.2 -0.05 -0.55 q -1.6,0 -2.2,0.95 l -0.3,1 q 0,2.8 2.8,2.8 h 0.3 m 23,-13.1 -3.95,-0.25 1.5,-2.6 1.8,-2.65 2.1,3.05 q -0.05,0.1 1.35,2.5 l -2.8,-0.05 M 20.1,12.9 h 0.1 0.25 0.1 l 4.5,0.6 q 1.3,0.45 2.15,1.2 l 0.15,0.2 q 0.7,0.8 0.9,1.95 l 0.15,2.5 -3.95,-0.25 0.2,-0.3 q 1,-1.45 1,-2.25 l -0.05,-0.4 -0.2,-0.1 -2,1.8 -0.7,0.9 -0.3,0.35 h -4.2 -0.5 l -0.35,-0.65 q -0.9,-1.55 -1.9,-2.4 L 15,16.5 14.95,17.2 q 0,1.05 0.5,1.8 l 0.05,0.1 -1.1,0.05 -0.8,0.05 -1.35,0.15 V 19.2 l 0.2,-2.35 q 0.25,-1.3 1,-2.15 1.95,-1.8 6.65,-1.8 M 15,1.2 q -1.5,0.1 -2.65,1.05 -1.15,1 -1.15,2.45 0,1.25 0.65,2.25 Q 13,8.6 15.8,8.6 17.5,8.6 18.25,7 18.8,6 18.8,5 18.8,0.95 15,1.2 M 2.75,2.3 Q 2.75,1.75 2.4,1.4 2,0.95 1.4,0.95 q -1.35,0 -1.35,1.4 0,1.3 1.35,1.3 1.35,0 1.35,-1.35 M 8,7.25 q 0,1 -0.65,1.75 -1.1,1.05 -3.5,1.05 -2.15,0 -2.8,-1.4 Q 0.4,7.2 -0.45,7.2 h -0.1 q -0.85,0 -1.5,1.45 -0.65,1.4 -2.85,1.4 -2.35,0 -3.45,-1.05 -0.7,-0.75 -0.7,-1.75 0,-2.55 -0.9,-1.95 -0.95,0.6 -0.95,3.1 0,1.3 0.75,2.15 1.6,1.85 6.25,1.85 1.95,0 3.3,-1.85 l 0.1,-0.15 0.05,0.15 q 1.4,1.85 3.35,1.85 4.65,0 6.2,-1.85 Q 9.9,9.7 9.9,8.4 9.9,5.9 8.95,5.3 8,4.7 8,7.25 M -2.05,3.65 q 1.35,0 1.35,-1.35 0,-0.55 -0.4,-0.9 -0.4,-0.45 -0.95,-0.45 -1.4,0 -1.4,1.4 0,1.3 1.4,1.3 M -15.95,1.2 q -1.5,0.1 -2.65,1.05 -1.15,1 -1.15,2.45 0,1.25 0.65,2.25 1.15,1.65 3.95,1.65 1.7,0 2.45,-1.6 0.55,-1 0.55,-2 0,-4.05 -3.8,-3.8 m -4.2,11.7 h 0.1 0.25 0.1 q 4.7,0 6.65,1.8 0.8,0.85 1.05,2.15 l 0.15,2.35 v 0.15 l -1.75,-0.15 -1.9,-0.1 h -0.3 l 0.05,-0.05 0.15,-0.25 q 1,-1.45 1,-2.25 l -0.05,-0.4 -0.2,-0.1 -2,1.8 -0.65,0.8 -0.35,0.45 h -4.2 -0.5 q -1.05,-2 -2.25,-3.05 l -0.45,0.45 -0.05,0.7 v 0.3 q 0.05,0.95 0.55,1.6 l -3.25,0.25 0.2,-2.5 0.4,-1.2 0.6,-0.95 q 0.55,-0.5 1.35,-0.85 1.95,-0.95 5.3,-0.95"
         fill="#c1bfc9"
         fill-rule="evenodd"
         stroke="none"
         id="path5" />
    </g>
    <g
       id="sprite1"
       transform="translate(36.5,5.55)">
      <use
         ffdec:characterId="509"
         height="11.05"
         transform="translate(-36.5,-5.55)"
         width="73.050003"
         xlink:href="#shape1"
         id="use5" />
    </g>
    <g
       id="shape1"
       transform="translate(36.5,5.55)">
      <path
         d="m 36.3,-3.8 0.25,3.95 V 2.6 L 36.3,3.85 V 4 l -0.45,0.8 -1,0.6 H -30.2 Q -34.35,5.7 -35.7,4.9 -36.3,4.6 -36.3,4 l 0.05,-0.35 -0.25,-1.5 v -2.7 l 0.15,-3.4 -0.05,-0.55 0.35,-0.85 0.05,-0.2 h 71.85 q 0.7,0.35 0.7,0.95 L 36.3,-3.8 M 23.1,0.15 V 2.6 h 11 V 2.3 0.15 l 0.2,-3.25 -1.85,-0.05 -9.5,0.05 0.15,3.25 m -2.7,0 q 0,-2.05 0.25,-3.25 H 19.1 l -0.5,-0.05 -38.85,0.1 0.1,2.6 V 2.5 2.6 q 1.6,-0.2 3.95,0 h 13.4 q 1.4,-0.2 3.6,0 H 20.45 L 20.4,2.3 V 0.15 m -43.5,2 v -2.7 l 0.1,-2.5 h -10.9 l 0.1,2.6 V 2.5 2.6 q 1.4,-0.2 3.6,0 h 7.15 L -23.1,2.15"
         fill="#6b6b6b"
         fill-rule="evenodd"
         stroke="none"
         id="path6" />
      <path
         d="m -23.1,2.15 0.05,0.45 h -7.15 q -2.2,-0.2 -3.6,0 V 2.5 -0.45 l -0.1,-2.6 H -23 l -0.1,2.5 v 2.7 m 43.5,-2 V 2.3 l 0.05,0.3 H 0.8 q -2.2,-0.2 -3.6,0 h -13.4 q -2.35,-0.2 -3.95,0 V 2.5 -0.45 l -0.1,-2.6 38.85,-0.1 0.5,0.05 h 1.55 Q 20.4,-1.9 20.4,0.15 m 2.7,0 -0.15,-3.25 9.5,-0.05 1.85,0.05 -0.2,3.25 V 2.3 2.6 h -11 V 0.15"
         fill="#b3acc7"
         fill-rule="evenodd"
         stroke="none"
         id="path7" />
    </g>
  </defs>
</svg>
