<?xml version="1.0" encoding="UTF-8" standalone="no"?>
<svg
   ffdec:objectType="frame"
   height="47"
   width="106.6"
   version="1.1"
   id="svg13"
   sodipodi:docname="1.svg"
   xmlns:inkscape="http://www.inkscape.org/namespaces/inkscape"
   xmlns:sodipodi="http://sodipodi.sourceforge.net/DTD/sodipodi-0.dtd"
   xmlns:xlink="http://www.w3.org/1999/xlink"
   xmlns="http://www.w3.org/2000/svg"
   xmlns:svg="http://www.w3.org/2000/svg"
   xmlns:ffdec="https://www.free-decompiler.com/flash">
  <sodipodi:namedview
     id="namedview13"
     pagecolor="#ffffff"
     bordercolor="#000000"
     borderopacity="0.25"
     inkscape:showpageshadow="2"
     inkscape:pageopacity="0.0"
     inkscape:pagecheckerboard="0"
     inkscape:deskcolor="#d1d1d1"
     fit-margin-top="5"
     fit-margin-left="5"
     fit-margin-right="5"
     fit-margin-bottom="5" />
  <g
     transform="translate(53.25,23.3)"
     id="g2">
    <use
       ffdec:characterId="1485"
       height="47"
       transform="translate(-53.25,-23.3)"
       width="106.6"
       xlink:href="#sprite0"
       id="use1" />
    <use
       ffdec:characterId="1486"
       height="24.9"
       transform="translate(-53.25,-15.45)"
       width="106.6"
       xlink:href="#shape1"
       id="use2" />
    <use
       ffdec:characterId="69"
       height="1.5"
       id="subplatform1"
       transform="matrix(0.0714,0,0.317,0.86,-47.6174,-2.83)"
       width="1320.3"
       xlink:href="#sprite1" />
  </g>
  <defs
     id="defs13">
    <g
       id="sprite0"
       transform="translate(53.45,21.25)">
      <use
         ffdec:characterId="1484"
         height="47"
         transform="translate(-53.45,-21.25)"
         width="106.6"
         xlink:href="#shape0"
         id="use3" />
    </g>
    <g
       id="shape0"
       transform="translate(53.45,21.25)">
      <path
         d="m 50.65,-15.8 v -0.15 l 0.1,-2.3 0.05,-0.15 v -0.15 -0.15 l 0.05,-0.25 -0.25,0.05 -0.25,0.05 h -1.3 -0.3 -0.5 l -0.4,-0.05 0.05,0.35 0.3,2.7 0.05,0.5 v 0.25 l 0.05,0.1 v 2.75 h -1.05 -1.1 v -0.15 l 0.05,-1.45 v -0.1 -0.15 h -0.4 v -2 h 0.55 l -0.1,-2.6 q 0,-0.85 0.25,-1.3 l -0.05,-0.05 0.3,-0.05 0.1,-0.25 0.45,-0.2 0.05,-0.05 0.05,-0.15 0.05,0.15 v 0.05 l 0.3,-0.05 2.9,-0.15 0.65,0.15 0.2,0.2 0.15,-0.1 0.9,0.25 0.1,4.3 -0.05,3.7 h -0.85 -1 L 50.7,-13.8 v -0.4 l -0.05,-1.6 M 48.3,9.6 v 1.25 1.95 2.2 l -0.05,0.1 -0.1,1.2 -0.3,2.6 0.9,-0.05 h 0.3 0.55 l 1,0.05 0.25,0.05 L 50.8,18.7 V 18.55 18.5 L 50.75,18.25 50.7,17.55 50.65,16.3 V 15.95 L 50.7,14.2 V 13.8 13.05 L 50.75,11.1 V 8.5 h 1.85 v 1 l 0.05,4.3 v 2.15 0.35 l -0.1,3.95 -0.9,0.25 -0.15,-0.1 -0.2,0.2 -0.65,0.15 -2.9,-0.15 -0.3,-0.05 V 20.6 L 47.4,20.75 47.35,20.6 47.3,20.55 46.85,20.35 46.75,20.1 46.45,20.05 46.5,20 q -0.25,-0.45 -0.25,-1.3 l 0.1,-2.4 v -0.2 h -93 l 0.05,0.2 0.05,2.4 q 0,0.85 -0.25,1.3 l 0.05,0.05 -0.3,0.05 -0.1,0.25 -0.45,0.2 -0.05,0.05 -0.05,0.15 -0.05,-0.15 v -0.05 l -0.3,0.05 -2.9,0.15 -0.65,-0.15 -0.2,-0.2 -0.15,0.1 -0.9,-0.25 -0.1,-3.95 v -0.35 l 0.05,-2.15 0.05,-5.3 h 1.1 0.75 V 11 l 0.05,2.1 v 0.7 2.15 0.35 l -0.2,2.65 1.8,-0.1 h 0.5 l 0.7,0.05 -0.2,-1.65 -0.1,-0.95 -0.1,-1.2 L -48.6,15 V 13.55 11 8.5 h 0.65 1.5 v 0.7 0.2 1 1.7 0.3 1.4 l -0.05,0.15 v 0.15 h 3.6 7.3 7.9 7.1 6.95 31.6 3.05 22.6 2.6 v -0.15 -0.1 -0.05 -0.15 l -0.05,-2.4 V 9.6 9.35 9 8.6 8.5 h 1.15 1 V 9.6 M 30,9.35 30.25,10.5 30.2,11.25 30.1,11.5 Q 29.6,13 27.4,13 25.6,13 24.95,11.6 L 24.8,11.15 q -0.25,-0.7 -0.25,-1.7 V 9.35 Q 24.65,9 25.25,8.5 L 25.4,8.4 q 0.9,-0.65 2.35,-0.65 1,0 1.65,0.7 L 29.7,8.8 30,9.35 m -60.1,0 0.05,-0.15 0.5,-0.7 q 0.7,-0.7 1.95,-0.7 1.75,0 2.45,0.95 l 0.3,0.6 0.05,0.3 0.05,0.5 v 0.15 0.45 L -25.3,12 q -0.7,1.05 -1.95,1.05 -1.55,0 -2.5,-0.75 L -30.1,12 -30.45,11.35 V 11.1 11.05 l 0.1,-0.9 0.25,-0.8 m 17.15,0 0.7,-0.85 0.9,-0.5 1.6,-0.25 q 1.05,0 1.7,0.75 l 0.25,0.3 0.3,0.55 0.05,0.05 0.15,0.5 0.05,0.6 q 0,1.05 -0.5,1.65 -0.7,0.85 -2.35,0.85 -2.65,0 -2.85,-3.1 V 9.45 9.35 m 20.35,0 Q 7.6,8.75 8.05,8.4 L 8.1,8.35 Q 8.75,7.8 9.9,7.8 l 1.15,0.15 0.9,0.4 0.7,1 0.1,0.95 -0.15,1 -0.1,0.15 -0.3,0.55 -0.55,0.6 q -0.55,0.45 -1.4,0.45 L 8.4,12.7 7.9,12.45 7.75,12.3 q -0.7,-0.55 -0.7,-0.95 l 0.2,-1.5 0.15,-0.5 m 40.65,12.4 -0.2,1.65 0.7,-0.05 h 0.5 l 1.8,0.1 -0.2,-2.65 h 2 l -0.1,3.95 -0.9,0.25 -0.15,-0.1 -0.2,0.2 -0.65,0.15 -2.9,-0.15 -0.3,-0.05 V 25.1 L 47.4,25.25 47.35,25.1 47.3,25.05 46.85,24.85 46.75,24.6 46.45,24.55 46.5,24.5 q -0.25,-0.45 -0.25,-1.3 l 0.05,-2.4 h 1.85 l -0.1,0.95 M 25.8,10.95 v 0.25 l 0.15,0.4 q 0.3,0.55 1.35,0.2 L 27.8,11.6 28.4,11.25 28.75,10.5 28.4,9.95 Q 28,9.4 27.7,9.4 q -0.95,0 -1.5,0.6 -0.4,0.45 -0.4,0.95 M 10.6,9.35 9.8,9 Q 8.65,8.6 8.4,9.35 l -0.1,0.5 q 0,0.3 0.15,0.6 L 8.7,10.8 8.75,10.85 Q 9.3,11.4 10.2,11.4 l 0.7,-0.55 0.35,-0.55 q 0,-0.55 -0.65,-0.95 m -59.05,-25.7 0.1,-0.7 0.05,-0.8 0.15,-1 v -0.05 h -0.05 l -1.15,0.05 -1.3,-0.05 -0.5,-0.05 0.05,0.4 0.1,1 v 0.15 l 0.05,1.15 v 0.3 1.1 0.25 0.8 l -0.05,1.55 h -0.25 -1.6 l -0.1,-3.7 0.1,-4.3 0.9,-0.25 0.15,0.1 0.2,-0.2 0.65,-0.15 2.9,0.15 0.3,0.05 v -0.05 l 0.05,-0.15 0.05,0.15 0.05,0.05 0.45,0.2 0.1,0.25 0.3,0.05 -0.05,0.05 0.05,0.1 v 7.65 h -1.4 -0.45 V -15 l 0.05,-0.1 0.05,-0.5 v -0.3 l 0.05,-0.3 v -0.15 M -10,11.75 q 1.25,-0.5 1.25,-1.25 L -9.1,9.95 -9.15,9.9 Q -9.5,9.4 -9.8,9.4 q -0.85,0 -1.35,0.5 l -0.15,0.1 -0.4,0.8 v 0.15 0.1 q 0.05,1.25 1.5,0.75 l 0.2,-0.05 m -19.15,-1.6 0.35,0.65 q 0.55,0.6 1.5,0.6 l 0.7,-0.55 0.35,-0.55 V 10.15 Q -26.35,9.7 -26.9,9.35 L -27.7,9 q -1,-0.35 -1.3,0.15 l -0.1,0.2 -0.1,0.5 0.05,0.3 m -23.8,10.65 h 2 l -0.05,1.25 -0.05,0.7 -0.05,0.25 v 0.05 0.15 l -0.05,0.25 0.25,-0.05 1,-0.05 h 0.55 0.3 l 0.9,0.05 -0.3,-2.6 h 1.8 l 0.1,2.4 q 0,0.85 -0.25,1.3 l 0.05,0.05 -0.3,0.05 -0.1,0.25 -0.45,0.2 -0.05,0.05 -0.05,0.15 -0.05,-0.15 v -0.05 l -0.3,0.05 -2.9,0.15 -0.65,-0.15 -0.2,-0.2 -0.15,0.1 -0.9,-0.25 -0.1,-3.95"
         fill="#9a9a9a"
         fill-rule="evenodd"
         stroke="none"
         id="path3" />
      <path
         d="m 48.2,-15.85 -0.3,-2.7 -0.05,-0.35 0.4,0.05 h 0.5 0.3 1.3 l 0.25,-0.05 0.25,-0.05 -0.05,0.25 v 0.15 0.15 l -0.05,0.15 -0.1,2.3 v 0.15 l -0.4,0.1 H 49.9 l -1.55,-0.1 -0.15,-0.05 m -22.4,26.8 q 0,-0.5 0.4,-0.95 0.55,-0.6 1.5,-0.6 0.3,0 0.7,0.55 l 0.35,0.55 -0.35,0.75 -0.6,0.35 -0.5,0.2 q -1.05,0.35 -1.35,-0.2 L 25.8,11.2 V 10.95 M 10.6,9.35 q 0.65,0.4 0.65,0.95 l -0.35,0.55 -0.7,0.55 q -0.9,0 -1.45,-0.55 L 8.7,10.8 8.45,10.45 Q 8.3,10.15 8.3,9.85 L 8.4,9.35 Q 8.65,8.6 9.8,9 l 0.8,0.35 M -48.15,-18.9 v 0.05 l -0.15,1 -0.05,0.8 -0.1,0.7 -0.05,-0.1 -0.2,-0.05 -0.8,0.3 -0.35,0.25 -0.4,0.35 -0.45,-0.3 -0.25,-0.35 -0.05,-1.15 v -0.15 l -0.1,-1 0.45,-0.35 1.3,0.05 1.15,-0.05 h 0.05 m -0.35,3 v 0.3 l -0.3,0.1 0.3,-0.4 m 38.5,27.65 -0.2,0.05 q -1.45,0.5 -1.5,-0.75 v -0.1 -0.15 l 0.4,-0.8 0.15,-0.1 q 0.5,-0.5 1.35,-0.5 0.3,0 0.65,0.5 l 0.05,0.05 0.35,0.55 q 0,0.75 -1.25,1.25 m -19.15,-1.6 -0.05,-0.3 0.1,-0.5 0.1,-0.2 q 0.3,-0.5 1.3,-0.15 l 0.8,0.35 q 0.55,0.35 0.65,0.8 v 0.15 l -0.35,0.55 -0.7,0.55 q -0.95,0 -1.5,-0.6 l -0.35,-0.65"
         fill="#cfcfcf"
         fill-rule="evenodd"
         stroke="none"
         id="path4" />
      <path
         d="m 48.2,-15.85 0.15,0.05 1.55,0.1 h 0.35 l 0.4,-0.1 0.05,1.6 v 0.4 l 0.05,1.55 h 1 l -0.05,1.3 -0.45,1.7 0.15,1.5 q 0.35,3.8 1.1,8.05 0.45,2.8 0.45,6.55 L 52.6,9.5 v -1 h -1.85 v 2.6 L 49.6,10.8 48.3,10.85 V 9.6 L 48.35,9.5 Q 49.55,7 49.55,2.3 L 48.3,-9.2 q -0.65,-0.9 -1,-2.65 l -0.05,-0.4 H 48.3 V -15 l -0.05,-0.1 v -0.25 l -0.05,-0.5 M 46.15,9.6 q -0.5,0.75 -0.9,2.35 l -0.05,0.15 -0.1,0.6 -1.5,1.4 H 21 l 0.6,-0.7 0.15,-0.5 0.2,-1.3 0.1,-0.5 0.05,-0.25 q 0.2,-0.8 0.75,-1.5 h 1.7 v 0.1 q 0,1 0.25,1.7 l 0.15,0.45 q 0.65,1.4 2.45,1.4 2.2,0 2.7,-1.5 L 30.2,11.25 30.25,10.5 30,9.35 h 15.9 0.25 V 9.6 M -48,7.1 l -0.2,0.75 0.2,0.6 0.05,0.05 H -48.6 V 11 L -49.2,10.9 -49.35,10.85 -51,11 V 8.5 h -0.75 l -0.3,-6.55 q 0,-6.75 0.8,-14.2 H -51 l 0.05,-1.55 1,-0.9 0.75,-0.45 0.4,-0.35 0.3,-0.1 -0.05,0.5 -0.05,0.1 v 2.75 h 0.45 l -0.4,2.1 0.35,10.5 0.2,6.75 m 1.55,2.1 0.35,0.1 1.75,0.1 h 2.05 l 0.5,-0.05 h 0.9 l 0.75,0.4 1,0.3 1.45,-0.45 0.7,-0.25 h 6.9 l -0.25,0.8 -0.1,0.9 v 0.05 0.25 l 0.35,0.65 0.35,0.3 q 0.95,0.75 2.5,0.75 1.25,0 1.95,-1.05 l 0.55,-1.25 V 10.3 10.15 l -0.05,-0.5 -0.05,-0.3 h 11.9 v 0.1 0.45 q 0.2,3.1 2.85,3.1 1.65,0 2.35,-0.85 0.5,-0.6 0.5,-1.65 L -7.3,9.9 -7.45,9.4 -7.5,9.35 H 7.4 l -0.15,0.5 -0.2,1.5 q 0,0.4 0.7,0.95 l 0.15,0.15 0.5,0.25 1.85,0.35 q 0.85,0 1.4,-0.45 l 0.55,-0.6 0.3,-0.55 0.1,-0.15 0.15,-1 -0.1,-0.95 h 9.05 l -0.35,0.5 q -0.4,0.7 -0.45,1.25 -0.05,0.25 0.05,0.5 l 0.1,0.3 Q 21,12.65 20.1,13.25 l -1.45,0.6 -0.7,0.25 h -31.6 l -0.65,-0.3 -2.1,-0.6 q -3.05,-0.5 -5.3,0.65 l 0.35,0.15 0.75,0.1 h -7.1 l -0.35,-0.1 -7.4,0.05 -0.15,0.05 h -7.3 l -2.4,-1.4 q -0.8,-0.5 -1.15,-0.3 v -0.3 -1.7 -1 -0.2 m 94.75,3.6 0.35,0.25 h 1.75 0.3 v 0.75 0.4 l -0.05,1.75 v 0.35 l 0.05,1.25 -0.3,-0.15 -0.8,1.45 h -0.55 -0.3 l -0.9,0.05 0.3,-2.6 0.1,-1.2 0.05,-0.1 v -2.2 m 2.3,6.1 0.2,-0.4 v 0.05 0.15 l 0.05,0.25 -0.25,-0.05 m -2.55,2.85 0.1,-0.95 h 2.5 l 0.2,2.65 -1.8,-0.1 h -0.5 q -0.3,-0.6 -0.5,-1.6 m -99,-36.6 v -1.1 -0.3 l 0.25,0.35 0.45,0.3 -0.35,0.35 -0.3,0.35 -0.05,0.05 m 0,27.95 2.15,0.45 h 0.2 V 15 l 0.05,0.1 0.1,1.2 0.1,0.95 -0.5,1.6 h -0.5 l -1.8,0.1 0.2,-2.65 V 15.95 13.8 13.1 m 2.5,7.7 0.3,2.6 -0.9,-0.05 h -0.3 -0.55 l -0.8,-1.45 -0.3,0.15 0.05,-1.25 h 2.5 m -2.45,2.6 -0.25,0.05 0.05,-0.25 V 23.05 23 l 0.2,0.4"
         fill="#c4c4c4"
         fill-rule="evenodd"
         stroke="none"
         id="path5" />
      <path
         d="m 48.3,10.85 1.3,-0.05 1.15,0.3 -0.05,1.95 H 50.4 48.65 L 48.3,12.8 v -1.95 m -4.7,3.25 1.5,-1.4 0.1,-0.6 0.05,-0.15 q 0.4,-1.6 0.9,-2.35 v 1.65 l 0.05,2.4 v 0.15 0.05 0.1 0.15 H 43.6 M 46.15,9.35 H 45.9 30 L 29.7,8.8 29.4,8.45 q -0.65,-0.7 -1.65,-0.7 -1.45,0 -2.35,0.65 l -0.15,0.1 q -0.6,0.5 -0.7,0.85 h -1.7 q -0.55,0.7 -0.75,1.5 l -0.05,0.25 -0.1,0.5 -0.2,1.3 -0.15,0.5 -0.6,0.7 h -3.05 l 0.7,-0.25 1.45,-0.6 q 0.9,-0.6 0.95,-1.35 l -0.1,-0.3 q -0.1,-0.25 -0.05,-0.5 0.05,-0.55 0.45,-1.25 l 0.35,-0.5 h -9.05 l -0.7,-1 -0.9,-0.4 L 9.9,7.8 Q 8.75,7.8 8.1,8.35 L 8.05,8.4 Q 7.6,8.75 7.4,9.35 H -7.5 L -7.8,8.8 -8.05,8.5 Q -8.7,7.75 -9.75,7.75 l -1.6,0.25 -0.9,0.5 -0.7,0.85 h -11.9 l -0.3,-0.6 q -0.7,-0.95 -2.45,-0.95 -1.25,0 -1.95,0.7 l -0.5,0.7 -0.05,0.15 H -37 l -0.7,0.25 -1.45,0.45 -1,-0.3 -0.75,-0.4 h -0.9 l -0.5,0.05 h -2.05 L -46.1,9.3 -46.45,9.2 V 8.5 h -1.5 L -48,8.45 -48.2,7.85 -48,7.1 -47.6,6.75 Q -46.2,6 -41.8,6.2 h 87.7 q 1.55,0.05 1.55,1.6 L 47.3,8.5 H 46.15 V 8.6 9 9.35 m 3.45,9.5 0.8,-1.45 0.3,0.15 0.05,0.7 0.05,0.25 -0.2,0.4 -1,-0.05 m -1.05,4.5 -0.7,0.05 0.2,-1.65 q 0.2,1 0.5,1.6 m -97,-39.7 v 0.15 l -0.05,0.3 -0.3,0.4 -0.4,0.35 -0.75,0.45 -1,0.9 v -0.8 -0.25 l 0.05,-0.05 0.3,-0.35 0.35,-0.35 0.4,-0.35 0.35,-0.25 0.8,-0.3 0.2,0.05 0.05,0.1 M -20.6,14.1 -21.35,14 -21.7,13.85 q 2.25,-1.15 5.3,-0.65 l 2.1,0.6 0.65,0.3 H -20.6 M -51,11 l 1.65,-0.15 0.15,0.05 0.6,0.1 v 2.55 h -0.2 L -50.95,13.1 -51,11 m 1.1,12.35 -1,0.05 -0.2,-0.4 0.05,-0.25 0.05,-0.7 0.3,-0.15 0.8,1.45 m 3.45,-10.95 q 0.35,-0.2 1.15,0.3 l 2.4,1.4 h -3.6 v -0.15 l 0.05,-0.15 v -1.4 m -1.9,4.85 0.2,1.65 -0.7,-0.05 0.5,-1.6"
         fill="#adadad"
         fill-rule="evenodd"
         stroke="none"
         id="path6" />
      <path
         d="m 50.75,-12.25 h 1 0.85 l 0.05,-3.7 -0.1,-4.3 -0.9,-0.25 -0.15,0.1 -0.2,-0.2 -0.65,-0.15 -2.9,0.15 -0.3,0.05 v -0.05 l -0.05,-0.15 -0.05,0.15 -0.05,0.05 -0.45,0.2 -0.1,0.25 -0.3,0.05 0.05,0.05 q -0.25,0.45 -0.25,1.3 l 0.1,2.6 m -0.15,2 v 0.15 0.1 l -0.05,1.45 v 0.15 h 1.1 1.05 M 52.6,8.5 v 1 l 0.05,4.3 v 2.15 0.35 l -0.1,3.95 -0.9,0.25 -0.15,-0.1 -0.2,0.2 -0.65,0.15 -2.9,-0.15 -0.3,-0.05 V 20.6 L 47.4,20.75 47.35,20.6 47.3,20.55 46.85,20.35 46.75,20.1 46.45,20.05 46.5,20 q -0.25,-0.45 -0.25,-1.3 l 0.1,-2.4 v -0.2 h -93 l 0.05,0.2 0.05,2.4 q 0,0.85 -0.25,1.3 l 0.05,0.05 -0.3,0.05 -0.1,0.25 -0.45,0.2 -0.05,0.05 -0.05,0.15 -0.05,-0.15 v -0.05 l -0.3,0.05 -2.9,0.15 -0.65,-0.15 -0.2,-0.2 -0.15,0.1 -0.9,-0.25 -0.1,-3.95 v -0.35 l 0.05,-2.15 0.05,-5.3 m 99.15,12.3 -0.05,2.4 q 0,0.85 0.25,1.3 l -0.05,0.05 0.3,0.05 0.1,0.25 0.45,0.2 0.05,0.05 0.05,0.15 0.05,-0.15 v -0.05 l 0.3,0.05 2.9,0.15 0.65,-0.15 0.2,-0.2 0.15,0.1 0.9,-0.25 0.1,-3.95 M -48.6,-12.25 h 0.45 1.4 v -7.65 l -0.05,-0.1 0.05,-0.05 -0.3,-0.05 -0.1,-0.25 -0.45,-0.2 -0.05,-0.05 -0.05,-0.15 -0.05,0.15 v 0.05 l -0.3,-0.05 -2.9,-0.15 -0.65,0.15 -0.2,0.2 -0.15,-0.1 -0.9,0.25 -0.1,4.3 0.1,3.7 h 1.6 0.25 m -0.15,-6.7 0.5,0.05 1.3,0.05 1.15,-0.05 h 0.05 m -4.8,39.7 0.1,3.95 0.9,0.25 0.15,-0.1 0.2,0.2 0.65,0.15 2.9,-0.15 0.3,-0.05 v 0.05 l 0.05,0.15 0.05,-0.15 0.05,-0.05 0.45,-0.2 0.1,-0.25 0.3,-0.05 -0.05,-0.05 q 0.25,-0.45 0.25,-1.3 l -0.1,-2.4"
         fill="none"
         stroke="#9a9a9a"
         stroke-linecap="round"
         stroke-linejoin="round"
         stroke-width="1"
         id="path7" />
    </g>
    <g
       id="shape1"
       transform="translate(53.25,15.45)">
      <path
         d="m 34.3,-0.7 h -47.25 -1.65 -13.5 l -17.35,-0.1 -1.1,-0.1 v 0.05 q 0.3,0.35 0.3,0.95 v 0.55 l -0.05,1.5 V 2.3 h 38.65 2.3 2.1 14.85 32.55 2.25 V 2.15 2.05 L 46.35,0.6 V 0.1 l 0.15,-0.75 0.15,-0.2 V -0.9 l -2.15,0.1 -3.2,0.1 h -7 m -87.05,-11.2 v -0.4 q 0,-1.95 0.4,-2.65 h 1.2 l 0.05,0.05 h 0.2 l 0.15,-0.05 h 3.15 l 0.05,0.05 h 0.05 q 1.25,-0.05 1.2,2.8 0,1.55 -0.3,4.6 l 0.05,4.9 2.8,-0.2 h 87.6 l 2.8,0.2 0.05,-4.9 q -0.3,-3.05 -0.3,-4.6 -0.05,-2.85 1.2,-2.8 h 0.05 l 0.05,-0.05 h 3.15 L 51,-14.9 h 0.2 l 0.05,-0.05 h 1.2 q 0.4,0.7 0.4,2.65 l -0.1,9.6 v 2.4 l 0.1,4.45 -0.1,4.3 L 51.85,8.7 51.7,8.6 51.5,8.8 50.85,8.95 47.95,8.8 47.65,8.75 V 8.8 L 47.6,8.95 47.55,8.8 47.5,8.75 47.05,8.55 46.95,8.3 46.65,8.25 46.7,8.2 Q 46.45,7.75 46.45,6.9 l 0.1,-2.6 h -93 l 0.1,2.6 q 0,0.85 -0.25,1.3 l 0.05,0.05 -0.3,0.05 -0.1,0.25 -0.45,0.2 -0.05,0.05 -0.05,0.15 -0.05,-0.15 V 8.75 l -0.3,0.05 -2.9,0.15 -0.65,-0.15 -0.2,-0.2 -0.15,0.1 -0.9,-0.25 -0.1,-4.3 0.1,-4.45 v -2.4 l -0.05,-7.8 -0.05,-1.4 m 103.6,-0.35 v -0.1 -0.7 l -1.1,0.05 h -0.9 l 0.05,0.5 -0.05,0.05 -0.35,0.3 v 1.8 13.55 l -0.05,0.1 -0.4,3.8 0.9,-0.05 h 0.3 L 50.8,7.1 51.05,7.15 51,6.9 V 6.75 l -0.05,-0.3 -0.1,-2.3 0.05,-1.75 0.2,-6.3 -0.2,-6.2 -0.05,-2.15 m -99.25,3.8 v -3.7 l -0.4,-0.35 0.05,-0.5 h -0.9 l -1.1,-0.05 v 0.35 0.35 2.6 l -0.25,5.85 0.25,8.05 -0.2,3 1.8,-0.1 1.2,0.05 -0.4,-3.8 -0.05,-0.1 V -8.45"
         fill="#6b6b6b"
         fill-rule="evenodd"
         stroke="none"
         id="path8" />
      <path
         d="m 34.3,-0.7 0.05,0.05 q 1.3,0.85 2,0.85 L 39,-0.05 q 1.4,-0.25 2.3,-0.65 l 3.2,-0.1 0.65,0.7 L 45.5,0.35 45.35,0.6 -9.8,0.7 -10.2,0.5 -12.95,-0.7 H 34.3 m -87,-9.8 -0.2,-0.65 0.15,-0.75 0.05,1.4 m 103.55,-1.75 0.05,2.15 -0.6,0.05 q -0.95,0 -1.55,-0.45 l 0.45,-1.5 0.15,-0.35 1.45,0.1 h 0.05 m -101.6,-0.45 0.6,1.3 0.9,1.55 -1.15,0.1 h -0.35 v -2.6 -0.35 m 4.5,13.35 V 0.1 q 0,-0.6 -0.3,-0.95 V -0.9 l 1.1,0.1 0.7,0.3 6.65,0.1 1.9,0.8 1.1,0.3 h -10.65 l -0.5,-0.05 M -28.1,-0.7 h 13.5 l 3.05,1.4 H -31.5 l 1.15,-0.25 Q -28.8,0 -28.1,-0.7"
         fill="#d4d4d4"
         fill-rule="evenodd"
         stroke="none"
         id="path9" />
      <path
         d="M 41.3,-0.7 Q 40.4,-0.3 39,-0.05 L 36.35,0.2 q -0.7,0 -2,-0.85 L 34.3,-0.7 h 7 m -54.25,0 2.75,1.2 0.4,0.2 q 2.8,1.2 4.45,1.6 h -2.3 L -10.8,1 -11.55,0.7 -14.6,-0.7 h 1.65 M 45.35,0.6 45.5,0.35 45.15,-0.1 44.5,-0.8 46.65,-0.9 v 0.05 l -0.15,0.2 -0.15,0.75 v 0.5 l 0.05,1.45 v 0.1 0.15 h -2.25 l 1.2,-1.7 m 3.15,-10.95 v -1.8 l 0.35,-0.3 0.05,-0.05 -0.05,-0.5 h 0.9 l 1.1,-0.05 v 0.7 0.1 H 50.8 l -1.45,-0.1 -0.15,0.35 -0.45,1.5 -0.15,0.2 -0.1,-0.05 m 2.4,12.75 -0.05,1.75 0.1,2.3 0.05,0.3 V 6.9 L 50.95,6.85 50.8,7.1 49.25,7.05 h -0.3 Q 49.8,5.65 50.9,2.4 m -54.15,-0.1 2.4,-0.35 9.1,-0.4 q 1.8,0 3.35,0.75 H -3.25 m -47.5,-15 v -0.35 l 1.1,0.05 h 0.9 l -0.05,0.5 0.4,0.35 v 3.7 l -0.85,-1.4 -0.9,-1.55 -0.6,-1.3 m 15.65,13.4 -1.1,-0.3 -1.9,-0.8 -6.65,-0.1 -0.7,-0.3 17.35,0.1 Q -28.8,0 -30.35,0.45 L -31.5,0.7 -33.35,0.85 -35.1,0.7"
         fill="#919191"
         fill-rule="evenodd"
         stroke="none"
         id="path10" />
      <path
         d="M -9.8,0.7 45.35,0.6 44.15,2.3 H 11.6 Q 10.05,1.55 8.25,1.55 l -9.1,0.4 -2.4,0.35 h -2.1 Q -7,1.9 -9.8,0.7 m 60.7,-10.8 0.2,6.2 -0.2,6.3 q -1.1,3.25 -1.95,4.65 l -0.9,0.05 0.4,-3.8 0.05,-0.1 v -13.55 l 0.1,0.05 0.15,-0.2 q 0.6,0.45 1.55,0.45 l 0.6,-0.05 m -100.15,0.25 0.85,1.4 V 3.2 l 0.05,0.1 0.4,3.8 -1.2,-0.05 -1.8,0.1 0.2,-3 -0.25,-8.05 0.25,-5.85 h 0.35 l 1.15,-0.1 m 3,10.5 0.5,0.05 h 10.65 l 1.75,0.15 1.85,-0.15 h 19.95 L -10.8,1 -7.65,2.3 H -46.3 V 2.15 l 0.05,-1.5"
         fill="#bfbfbf"
         fill-rule="evenodd"
         stroke="none"
         id="path11" />
      <path
         d="m -52.75,-11.9 v -0.4 q 0,-1.95 0.4,-2.65 h 1.2 l 0.05,0.05 h 0.2 l 0.15,-0.05 h 3.15 l 0.05,0.05 h 0.05 q 1.25,-0.05 1.2,2.8 0,1.55 -0.3,4.6 l 0.05,4.9 2.8,-0.2 h 87.6 l 2.8,0.2 0.05,-4.9 q -0.3,-3.05 -0.3,-4.6 -0.05,-2.85 1.2,-2.8 h 0.05 l 0.05,-0.05 h 3.15 L 51,-14.9 h 0.2 l 0.05,-0.05 h 1.2 q 0.4,0.7 0.4,2.65 l -0.1,9.6 v 2.4 l 0.1,4.45 -0.1,4.3 L 51.85,8.7 51.7,8.6 51.5,8.8 50.85,8.95 47.95,8.8 47.65,8.75 V 8.8 L 47.6,8.95 47.55,8.8 47.5,8.75 47.05,8.55 46.95,8.3 46.65,8.25 46.7,8.2 Q 46.45,7.75 46.45,6.9 l 0.1,-2.6 h -93 l 0.1,2.6 q 0,0.85 -0.25,1.3 l 0.05,0.05 -0.3,0.05 -0.1,0.25 -0.45,0.2 -0.05,0.05 -0.05,0.15 -0.05,-0.15 V 8.75 l -0.3,0.05 -2.9,0.15 -0.65,-0.15 -0.2,-0.2 -0.15,0.1 -0.9,-0.25 -0.1,-4.3 0.1,-4.45 v -2.4 l -0.05,-7.8 z"
         fill="none"
         stroke="#6b6b6b"
         stroke-linecap="round"
         stroke-linejoin="round"
         stroke-width="1"
         id="path12" />
    </g>
    <g
       id="sprite1"
       transform="translate(660.25,0.5)">
      <use
         ffdec:characterId="68"
         height="1.5"
         transform="translate(-660.25,-0.5)"
         width="1320.3"
         xlink:href="#shape2"
         id="use12" />
    </g>
    <g
       id="shape2"
       transform="translate(660.25,0.5)">
      <path
         d="m 659.3,-0.5 0.55,0.25 0.2,0.5 -0.2,0.55 L 659.3,1 H -659.5 l -0.5,-0.2 -0.25,-0.55 0.25,-0.5 0.5,-0.25 H 659.3"
         fill="#ffff00"
         fill-opacity="0"
         fill-rule="evenodd"
         stroke="none"
         id="path13" />
    </g>
  </defs>
</svg>
