<?xml version="1.0" encoding="UTF-8" standalone="no"?>
<svg
   ffdec:objectType="frame"
   height="30.552799"
   width="59.691406"
   version="1.1"
   id="svg19"
   sodipodi:docname="2.svg"
   xmlns:inkscape="http://www.inkscape.org/namespaces/inkscape"
   xmlns:sodipodi="http://sodipodi.sourceforge.net/DTD/sodipodi-0.dtd"
   xmlns:xlink="http://www.w3.org/1999/xlink"
   xmlns="http://www.w3.org/2000/svg"
   xmlns:svg="http://www.w3.org/2000/svg"
   xmlns:ffdec="https://www.free-decompiler.com/flash">
  <sodipodi:namedview
     id="namedview19"
     pagecolor="#ffffff"
     bordercolor="#000000"
     borderopacity="0.25"
     inkscape:showpageshadow="2"
     inkscape:pageopacity="0.0"
     inkscape:pagecheckerboard="0"
     inkscape:deskcolor="#d1d1d1"
     fit-margin-top="5"
     fit-margin-left="5"
     fit-margin-right="5"
     fit-margin-bottom="5" />
  <g
     transform="translate(29.7,22.0528)"
     id="g10">
    <use
       ffdec:characterId="2086"
       height="17"
       transform="translate(-29.7,-8.5)"
       width="49.650002"
       xlink:href="#shape0"
       id="use1" />
    <use
       ffdec:characterId="2085"
       height="1.8"
       transform="translate(-23.25,-2.65)"
       width="6.9000001"
       xlink:href="#sprite0"
       id="use2" />
    <use
       ffdec:characterId="1977"
       height="2.3"
       transform="rotate(90,7.35,9.05)"
       width="2.55"
       xlink:href="#sprite1"
       id="use3" />
    <use
       ffdec:characterId="1979"
       height="2.3"
       transform="rotate(90,5.5,7.2)"
       width="2.55"
       xlink:href="#sprite2"
       id="use4" />
    <use
       ffdec:characterId="1691"
       height="8"
       transform="matrix(0.7593,0,0,0.7593,-5.85,1.363)"
       width="10.8"
       xlink:href="#sprite3"
       id="use5" />
    <use
       ffdec:characterId="2088"
       height="5.6500001"
       transform="translate(-28.1,-13.45)"
       width="18.6"
       xlink:href="#sprite4"
       id="use6" />
    <use
       ffdec:characterId="2088"
       height="5.6500001"
       transform="translate(-29,-17.95)"
       width="18.6"
       xlink:href="#sprite4"
       id="use7" />
    <use
       ffdec:characterId="2088"
       height="5.6500001"
       transform="matrix(0.7903,0.6127,-0.6085,0.7936,-10.9155,-22.4601)"
       width="18.6"
       xlink:href="#sprite4"
       id="use8" />
    <use
       ffdec:characterId="2088"
       height="5.6500001"
       transform="matrix(0.0047,1,-1,0.0047,24.8561,-10.2632)"
       width="18.6"
       xlink:href="#sprite4"
       id="use9" />
    <use
       ffdec:characterId="2088"
       height="5.6500001"
       transform="matrix(0.0047,1,-1,0.0047,29.9061,-10.4632)"
       width="18.6"
       xlink:href="#sprite4"
       id="use10" />
  </g>
  <defs
     id="defs19">
    <g
       id="shape0"
       transform="translate(29.7,8.5)">
      <path
         d="M 3.7,-0.7 4.45,-0.9 4.5,-1.7 h 0.35 l 0.7,-0.05 Q 5.6,-1 6.05,-0.6 L 6.4,-0.7 6.45,-1.25 6.2,-3.85 H 7.05 Q 6.9,-3.65 6.9,-3.3 6.9,-2.75 7.05,-2.55 7.55,-2.1 9.3,-2 L 9.15,-1.7 7.3,-1.2 7.15,-1 7.3,-0.7 8.95,-0.65 q 1.1,-0.7 1.1,-1.3 L 10,-2.75 8.25,-3 q -0.6,-0.15 -0.6,-0.25 l 0.2,-0.2 0.55,-0.05 0.9,0.1 H 9.8 L 9.75,-3.5 9.2,-3.85 14.3,-4 h 0.2 l 0.05,1.85 Q 14.6,-1 14.8,-0.25 H -4.1 l -2.1,0.15 -0.1,-3.65 12,-0.1 -0.15,0.1 0.05,0.9 -1.15,-0.2 H 4.4 L 4.2,-3.6 q -0.5,0.2 -0.55,1.25 v 0.3 L 3.7,-0.7 m -4.4,-3.05 q 0,0.6 0.7,1.8 0.7,1.2 1.05,1.2 0.4,0 0.5,-0.15 l 0.1,-0.3 V -1.25 L 2.6,-2.3 3.4,-3.5 Q 2.5,-3.75 1.65,-2.9 L 1.1,-2.1 0.7,-2.7 Q 0.05,-3.75 -0.7,-3.75 M 16.05,-4 h 1.65 l 0.2,-0.05 0.05,8.65 0.1,0.25 q -2.6,-0.3 -8.6,-0.1 L -24.6,4.65 h -2.85 l -0.05,-3.8 v -3.75 -1 l 0.45,0.05 q 0.5,0 0.85,-0.35 l 0.75,0.1 -0.1,0.1 -0.3,0.3 H -26 l -0.1,3.2 0.05,1.55 q 0.15,1 0.7,1.6 l 0.3,-0.05 0.2,0.15 h 10.15 l 0.5,-0.15 0.5,0.15 q 0.65,0 0.8,-0.6 V -1.1 q -0.1,-2 -0.3,-2.9 h 5.65 q -0.5,0.6 -0.4,1.85 L -7.5,0.3 -7.15,0.75 -7.1,0.8 -6.85,1.1 -6.45,1 -4.1,1.15 H 15 L 15.7,0.7 V 0.65 L 15.75,0.45 16.05,-4 M 8.75,2.45 8.65,2.25 Q 3.95,1.7 3.95,2.9 l 0.2,0.6 2.25,0.35 2,-0.2 Q 8.8,3.5 8.8,3 L 8.75,2.45 M -20.2,0.75 V 1.1 h -4.45 l 0.05,-0.75 0.25,0.15 4.15,-0.05 v 0.3 M -14.55,0.4 V 1.2 L -14.7,1.05 -19.35,1.1 V 0.45 l 4.8,-0.05"
         fill="#797979"
         fill-rule="evenodd"
         stroke="none"
         id="path10" />
      <path
         d="m -0.7,-3.75 q 0.75,0 1.4,1.05 l 0.4,0.6 0.55,-0.8 Q 2.5,-3.75 3.4,-3.5 l -0.8,1.2 -0.95,1.05 v 0.05 l -0.1,0.3 q -0.1,0.15 -0.5,0.15 -0.35,0 -1.05,-1.2 -0.7,-1.2 -0.7,-1.8 M 3.7,-0.7 3.65,-2.05 v -0.3 Q 3.7,-3.4 4.2,-3.6 l 0.2,0.55 h 0.05 l 1.15,0.2 -0.05,-0.9 0.15,-0.1 -12,0.1 0.1,3.65 2.1,-0.15 H 14.8 Q 14.6,-1 14.55,-2.15 L 14.5,-4 H 14.3 L 9.2,-3.85 9.75,-3.5 9.8,-3.4 H 9.3 l -0.9,-0.1 -0.55,0.05 -0.2,0.2 q 0,0.1 0.6,0.25 l 1.75,0.25 0.05,0.8 q 0,0.6 -1.1,1.3 L 7.3,-0.7 7.15,-1 7.3,-1.2 9.15,-1.7 9.3,-2 Q 7.55,-2.1 7.05,-2.55 6.9,-2.75 6.9,-3.3 6.9,-3.65 7.05,-3.85 H 6.2 L 6.45,-1.25 6.4,-0.7 6.05,-0.6 Q 5.6,-1 5.55,-1.75 L 4.85,-1.7 H 4.5 L 4.45,-0.9 3.7,-0.7 M 19.95,-7.9 V 6.65 L 19.1,7.1 18.65,7.2 Q 18.6,8.2 18.2,8.5 H 13.15 13 11.8 L 11.5,8.1 11.3,7.5 V 7.4 L 9.45,7.35 -20.3,7.5 l 0.2,0.15 -0.65,0.85 h -6.65 l -0.1,-0.2 -0.1,-0.55 0.05,-0.3 -1.15,-0.2 h -0.05 L -28.95,7.2 -29.7,6.9 V -8.35 l 0.45,-0.05 h 35.5 l 10,-0.1 2.85,0.3 h 0.05 l 0.8,0.3 m -3.9,3.9 -0.3,4.45 -0.05,0.2 V 0.7 L 15,1.15 H -4.1 L -6.45,1 -6.85,1.1 -7.1,0.8 -7.15,0.75 -7.5,0.3 -7.95,-2.15 Q -8.05,-3.4 -7.55,-4 l 0.1,-0.15 -0.3,-0.3 0.05,-0.45 q 0.15,-0.35 0.6,-0.2 L 7,-5 l 7.5,0.15 q 0.05,-0.45 0.75,-0.5 0.8,-0.1 0.8,0.65 V -4 m -29.25,0 q 0.2,0.9 0.3,2.9 v 3.25 q -0.15,0.6 -0.8,0.6 l -0.5,-0.15 -0.5,0.15 h -10.15 l -0.2,-0.15 -0.3,0.05 q -0.55,-0.6 -0.7,-1.6 L -26.1,-0.5 -26,-3.7 h 0.15 l 0.3,-0.3 0.1,-0.1 0.1,-0.15 h 10.9 l 0.3,0.1 0.45,-0.6 q 0.3,0.05 0.5,0.75 m -14.3,0.1 v 1 3.75 l 0.05,3.8 h 2.85 l 34.05,0.1 q 6,-0.2 8.6,0.1 L 17.95,4.6 17.9,-4.05 V -5.7 l -45.55,-0.05 0.1,1.05 0.05,0.8 m 3.1,1.6 -0.05,1 -0.15,0.3 0.1,0.1 -0.1,0.35 v 0.25 l 1.05,-0.3 2.05,0.15 h 5.9 l 0.2,-0.05 0.9,0.1 0.15,-2.75 h -0.1 l -10.15,0.05 0.2,0.8 m 9.85,2.7 -4.8,0.05 V 1.1 l 4.65,-0.05 0.15,0.15 V 0.4 M -20.2,0.75 V 0.45 L -24.35,0.5 -24.6,0.35 -24.65,1.1 h 4.45 V 0.75 M 8.75,2.45 8.8,3 q 0,0.5 -0.4,0.65 L 6.4,3.85 4.15,3.5 3.95,2.9 q 0,-1.2 4.7,-0.65 l 0.1,0.2"
         fill="#6b6b6b"
         fill-rule="evenodd"
         stroke="none"
         id="path11" />
      <path
         d="M 17.9,-4.05 17.7,-4 h -1.65 v -0.7 q 0,-0.75 -0.8,-0.65 -0.7,0.05 -0.75,0.5 L 7,-5 -7.1,-5.1 q -0.45,-0.15 -0.6,0.2 l -0.05,0.45 0.3,0.3 -0.1,0.15 h -5.65 q -0.2,-0.7 -0.5,-0.75 l -0.45,0.6 -0.3,-0.1 h -10.9 l -0.1,0.15 -0.75,-0.1 q -0.35,0.35 -0.85,0.35 l -0.45,-0.05 -0.05,-0.8 -0.1,-1.05 45.55,0.05 v 1.65"
         fill="#8e8e8e"
         fill-rule="evenodd"
         stroke="none"
         id="path12" />
      <path
         d="m -24.4,-2.3 -0.2,-0.8 10.15,-0.05 h 0.1 l -0.15,2.75 -0.9,-0.1 -0.2,0.05 h -5.9 l -2.05,-0.15 -1.05,0.3 v -0.25 l 0.1,-0.35 -0.1,-0.1 0.15,-0.3 0.05,-1"
         fill="#aaaaaa"
         fill-rule="evenodd"
         stroke="none"
         id="path13" />
    </g>
    <g
       id="sprite0"
       transform="translate(3.6,1)">
      <use
         ffdec:characterId="2084"
         height="1.8"
         transform="translate(-3.6,-1)"
         width="6.9000001"
         xlink:href="#shape1"
         id="use13" />
    </g>
    <g
       id="shape1"
       transform="translate(3.6,1)">
      <path
         d="m -0.25,-0.65 h 0.1 L 0,-0.6 v 0.25 l -0.25,0.2 -0.25,-0.35 0.25,-0.15 M 0.95,-1 H 1 q 0.55,0 0.65,0.8 -0.1,1 -0.7,1 H 0.8 L 0.3,0.35 0.25,0.15 V -0.1 q 0,-0.7 0.55,-0.85 L 0.95,-1 m -0.3,0.8 v 0.05 Q 0.65,0.3 0.8,0.3 H 0.9 Q 1.25,0.2 1.25,-0.35 L 1,-0.6 q -0.35,0 -0.35,0.4 m 1.65,0 v 0.05 q 0,0.45 0.15,0.45 h 0.1 Q 2.9,0.2 2.9,-0.35 L 2.7,-0.6 q -0.4,0 -0.4,0.4 M 2.6,-1 h 0.1 q 0.5,0 0.6,0.8 -0.1,1 -0.7,1 H 2.45 L 1.95,0.35 1.9,0.15 V -0.1 q 0,-0.7 0.55,-0.85 L 2.6,-1 m -5.65,0.05 h 0.1 l 0.1,0.1 v 0.2 l 0.15,1 0.05,0.15 V 0.55 Q -2.7,0.7 -2.95,0.7 h -0.1 q -0.55,0 -0.55,-0.2 0,-0.2 0.3,-0.2 V 0 l 0.1,-0.45 -0.15,0.1 h -0.1 L -3.6,-0.5 v -0.15 l 0.55,-0.3 M -1.4,-1 h 0.05 Q -1,-1 -1,-0.5 l -0.4,0.8 q 0.65,0 0.65,0.25 L -0.9,0.8 -1.9,0.65 v -0.2 l 0.4,-0.8 0.1,-0.1 -0.1,-0.15 h -0.15 v 0.25 Q -1.7,-0.2 -1.85,-0.2 L -2,-0.6 Q -2,-0.85 -1.4,-1 M -0.25,0.15 0,0.3 V 0.35 L -0.25,0.55 -0.5,0.3 -0.25,0.15"
         fill="#a08585"
         fill-rule="evenodd"
         stroke="none"
         id="path14" />
    </g>
    <g
       id="sprite1"
       transform="translate(1.3,1.15)">
      <use
         ffdec:characterId="695"
         height="2.3"
         transform="translate(-1.3,-1.15)"
         width="2.55"
         xlink:href="#shape2"
         id="use14" />
    </g>
    <g
       id="shape2"
       transform="translate(1.3,1.15)">
      <path
         d="m 1.25,-0.3 v 0.25 q 0,1.2 -1.3,1.2 L -0.45,1.1 Q -1,1 -1.2,0.55 l -0.05,-0.5 -0.05,-0.1 0.05,-0.25 0.2,-0.55 q 0.3,-0.4 1.05,-0.3 l 0.95,0.35 0.3,0.5"
         fill="#ffffff"
         fill-rule="evenodd"
         stroke="none"
         id="path15" />
    </g>
    <g
       id="sprite2"
       transform="translate(1.3,1.15)">
      <use
         ffdec:characterId="696"
         height="2.3"
         transform="translate(-1.3,-1.15)"
         width="2.55"
         xlink:href="#shape3"
         id="use15" />
    </g>
    <g
       id="shape3"
       transform="translate(1.3,1.15)">
      <path
         d="m 1.25,-0.05 q 0,1.2 -1.3,1.2 L -0.45,1.1 Q -1,1 -1.2,0.55 l -0.05,-0.5 -0.05,-0.1 0.05,-0.25 0.2,-0.55 q 0.3,-0.4 1.05,-0.3 l 0.95,0.35 0.3,0.5 v 0.25"
         fill="#6b6b6b"
         fill-rule="evenodd"
         stroke="none"
         id="path16" />
    </g>
    <g
       id="sprite3"
       transform="translate(5.4,4)">
      <use
         ffdec:characterId="43"
         height="8"
         transform="translate(-5.4,-4)"
         width="10.8"
         xlink:href="#shape4"
         id="use16" />
    </g>
    <g
       id="shape4"
       transform="translate(5.4,4)">
      <path
         d="m 2.9,-0.35 q 0,-1.25 1.25,-1.25 1.25,0 1.25,1.2 0,1.3 -1.25,1.3 Q 3.6,0.9 3.25,0.5 2.9,0.15 2.9,-0.35 m 0.35,-2.3 q 0,0.55 -0.35,0.9 -0.4,0.45 -1,0.45 -1.35,0 -1.35,-1.4 0,-1.3 1.35,-1.3 1.35,0 1.35,1.35 m -3.1,1.9 h 0.2 q 2.6,0.1 2.6,2.8 l -0.3,1 Q 2.05,4 0.45,4 H 0.35 0.15 0.1 -0.45 q -1.6,0 -2.2,-0.95 l -0.3,-1 q 0,-2.8 2.8,-2.8 h 0.3 M -1.55,-4 q 1.35,0 1.35,1.35 0,0.55 -0.4,0.9 -0.4,0.45 -0.95,0.45 -1.4,0 -1.4,-1.4 0,-1.3 1.4,-1.3 m -2.6,2.4 q 1.25,0 1.25,1.25 0,0.5 -0.35,0.85 -0.35,0.4 -0.9,0.4 -1.25,0 -1.25,-1.3 0,-1.2 1.25,-1.2"
         fill="#6b6b6b"
         fill-rule="evenodd"
         stroke="none"
         id="path17" />
    </g>
    <g
       id="sprite4"
       transform="translate(9.3,2.85)">
      <use
         ffdec:characterId="2087"
         height="5.6500001"
         transform="translate(-9.3,-2.85)"
         width="18.6"
         xlink:href="#shape5"
         id="use17" />
    </g>
    <g
       id="shape5"
       transform="translate(9.3,2.85)">
      <path
         d="M 3.2,-1.05 7.6,-1.2 7.5,0.45 7.45,0.95 H -5.5 L -7.25,1 -7.3,0 v -0.85 l 10.5,-0.2"
         fill="#797979"
         fill-rule="evenodd"
         stroke="none"
         id="path18" />
      <path
         d="m 3.2,-1.05 -10.5,0.2 V 0 L -7.25,1 -5.5,0.95 H 7.45 L 7.5,0.45 7.6,-1.2 3.2,-1.05 M -8.7,-2.8 8.85,-2.85 Q 9.3,-2.15 9.3,0.4 V 1.55 Q 9.15,2.5 8.4,2.5 H 8.25 Q 7.95,2.8 7.6,2.75 H -5.5 Q -9.25,2.95 -9.25,1.9 l 0.1,-0.4 -0.1,-2.15 q 0,-1.6 0.5,-1.95 l 0.05,-0.2"
         fill="#6b6b6b"
         fill-rule="evenodd"
         stroke="none"
         id="path19" />
    </g>
  </defs>
</svg>
