<?xml version="1.0" encoding="UTF-8" standalone="no"?>
<svg
   ffdec:objectType="frame"
   height="63.950001"
   width="43.049999"
   version="1.1"
   id="svg5"
   sodipodi:docname="1.svg"
   xmlns:inkscape="http://www.inkscape.org/namespaces/inkscape"
   xmlns:sodipodi="http://sodipodi.sourceforge.net/DTD/sodipodi-0.dtd"
   xmlns:xlink="http://www.w3.org/1999/xlink"
   xmlns="http://www.w3.org/2000/svg"
   xmlns:svg="http://www.w3.org/2000/svg"
   xmlns:ffdec="https://www.free-decompiler.com/flash">
  <sodipodi:namedview
     id="namedview5"
     pagecolor="#ffffff"
     bordercolor="#000000"
     borderopacity="0.25"
     inkscape:showpageshadow="2"
     inkscape:pageopacity="0.0"
     inkscape:pagecheckerboard="0"
     inkscape:deskcolor="#d1d1d1"
     fit-margin-top="5"
     fit-margin-left="5"
     fit-margin-right="5"
     fit-margin-bottom="5" />
  <g
     transform="translate(22,29.95)"
     id="g1">
    <use
       ffdec:characterId="2770"
       height="63.950001"
       transform="translate(-22,-29.95)"
       width="43.049999"
       xlink:href="#shape0"
       id="use1" />
  </g>
  <defs
     id="defs5">
    <g
       id="shape0"
       transform="translate(22,29.95)">
      <path
         d="m -19.2,-26.05 v -0.1 -0.15 l -0.05,-1 h 0.3 36.95 0.3 l -0.05,1 v 0.1 l -0.05,0.05 q -0.5,0.3 -1.45,0.3 H -18.5 l -0.7,-0.2 m 3.25,3.3 v -0.7 l -0.1,-0.55 0.95,-0.05 H 14.15 L 15.1,-24 15,-23.45 v 0.8 l -0.3,0.1 h -29.95 l -0.7,-0.2 m 11.85,5.25 0.1,-0.85 h 7.05 l 0.1,0.6 v 0.05 l -0.75,0.1 -5.95,0.15 -0.55,-0.05 M -15.95,1.85 V 0.9 l -0.1,-0.55 H -16 L -15.1,0.3 H 14.15 L 15.1,0.35 15,0.9 v 0.9 l -30.8,0.1 -0.15,-0.05 m 19.1,5 H 2.8 -1.5 -2.55 -3.8 L -4.1,6.8 -4.05,6.6 -4,5.95 h 7.05 l 0.1,0.9"
         fill="#cccccc"
         fill-rule="evenodd"
         stroke="none"
         id="path1" />
      <path
         d="m 20.5,-28.3 0.05,0.25 v 0.15 46.9 0.65 4.35 0.9 3.8 0.5 2.45 0.05 0.45 H 20.4 l -0.35,0.5 q -0.2,0.6 -1,0.85 H -20 q -0.8,-0.25 -1,-0.85 l -0.3,-0.5 h -0.2 v -0.45 -59.6 -0.15 l 0.1,-0.25 h 0.2 l 0.2,-0.3 0.35,-0.5 0.65,-0.35 h 39.05 l 0.7,0.35 0.3,0.5 0.25,0.3 h 0.2 m 0.05,0.4 -0.25,-0.4 0.25,0.4 m -39.75,1.85 -0.05,1.85 v 45.75 1.2 0.6 h 0.05 v 0.65 0.7 0.2 2.1 0.6 1.1 0.5 0.3 l 3.65,-0.1 33.8,0.15 V 29.2 28.7 27.6 27 l 0.05,-2.1 v -0.9 -0.65 -45.3 -2.3 l -0.05,-1.9 v -0.05 -0.1 l 0.05,-1 h -0.3 -36.95 -0.3 l 0.05,1 v 0.15 0.1 m 35.65,1.15 0.2,0.85 -0.1,0.45 v 20 l -0.15,0.35 -0.2,0.15 q -0.15,0.3 -0.6,0.25 H -16.55 Q -17,-2.8 -17.15,-3.1 l -0.2,-0.15 -0.15,-0.35 v -20 l -0.1,-0.45 0.2,-0.85 q 0.25,-0.55 2.3,-0.55 h 29.25 q 2.05,0 2.3,0.55 m -32.4,2.15 v 8.65 5.7 l -0.2,3.9 4.85,-0.15 H 10.35 L 15.2,-4.5 15,-8.4 v -5.7 -8.55 -0.8 L 15.1,-24 14.15,-24.05 H -15.1 l -0.95,0.05 0.1,0.55 v 0.7 m 10.65,7 q -0.25,-0.15 -0.3,-0.4 l 0.05,-0.25 -0.05,-1.6 0.05,-0.55 -0.05,-0.4 0.5,-0.6 h 9.3 l 0.45,0.6 -0.05,0.4 0.05,0.55 -0.05,1.6 0.05,0.25 -0.05,0.2 -0.55,0.45 H 4 l -0.1,0.05 h -8.75 l -0.25,-0.15 -0.05,-0.05 -0.15,-0.1 m 8.45,-1.95 v -0.05 l -0.1,-0.6 H -4 l -0.1,0.85 v 0.05 l -0.05,0.35 -0.05,0.25 H 3.25 L 3.2,-17.1 3.15,-17.7 m 13.5,18 -0.1,0.45 v 21.4 l -0.15,0.35 -0.2,0.15 q -0.15,0.3 -0.6,0.25 h -32.15 q -0.45,0.05 -0.6,-0.25 l -0.2,-0.15 -0.15,-0.35 V 0.75 L -17.6,0.3 V 0.25 0.15 l 0.2,-0.7 q 0.25,-0.55 2.3,-0.55 h 29.25 q 2.05,0 2.3,0.55 l 0.2,0.7 V 0.2 0.3 M 15,1.8 V 0.9 L 15.1,0.35 14.15,0.3 H -15.1 L -16,0.35 h -0.05 l 0.1,0.55 v 0.95 8.4 l 0.05,3.3 h -0.05 v 0.6 0.45 L -16,19.65 h -0.05 v 0.3 l -0.05,1.15 -0.05,0.15 4.85,-0.15 h 21.65 l 4.85,0.15 V 21.1 L 15.1,19.95 15,14.6 V 14.15 13.55 10.25 1.8 M -4.7,8.9 H -4.85 L -5,8.85 -5.6,8.15 V 8.05 L -5.55,7.9 V 7.8 L -5.6,6.95 V 6.8 6.3 6.15 L -5.55,5.75 -5.6,5.5 V 5.4 L -5.1,4.8 H 4.2 L 4.65,5.4 V 5.5 5.75 H 4.6 l 0.05,0.4 V 6.3 L 4.7,6.85 4.65,7.8 4.6,7.9 4.65,8.05 v 0.1 L 4.3,8.65 4.15,8.75 3.9,8.9 H -4.7 M -4.1,6.8 V 6.9 L -4.15,7.2 V 7.3 L -4.2,7.45 H 3.25 L 3.2,7.3 V 7.2 L 3.15,6.9 V 6.85 L 3.05,5.95 H -4 L -4.05,6.6 -4.1,6.8 M 18.3,31.45 18.25,30.5 v -0.05 l -37.45,0.1 -0.05,0.9 h 0.3 36.95 0.3 m -39.8,0.25 0.2,0.45 -0.2,-0.45 m 0.3,-60 -0.3,0.4 0.3,-0.4 m 41.6,60.45 0.15,-0.45 -0.15,0.45"
         fill="#6b6b6b"
         fill-rule="evenodd"
         stroke="none"
         id="path2" />
      <path
         d="m 18.25,-26.2 v 0.05 l 0.05,1.9 v 2.3 45.3 0.65 0.9 L 18.25,27 v 0.6 1.1 0.5 0.35 l -33.8,-0.15 -3.65,0.1 V 29.2 28.7 27.6 27 24.9 24.7 24 23.35 h -0.05 v -0.6 -1.2 -45.75 l 0.05,-1.85 0.7,0.2 h 35.25 q 0.95,0 1.45,-0.3 l 0.05,-0.05 m -1.8,1.3 q -0.25,-0.55 -2.3,-0.55 H -15.1 q -2.05,0 -2.3,0.55 l -0.2,0.85 0.1,0.45 v 20 l 0.15,0.35 0.2,0.15 q 0.15,0.3 0.6,0.25 H 15.6 q 0.45,0.05 0.6,-0.25 l 0.2,-0.15 0.15,-0.35 v -20 l 0.1,-0.45 -0.2,-0.85 M 15,-22.65 v 8.55 5.7 l 0.2,3.9 -4.85,-0.15 H -11.3 l -4.85,0.15 0.2,-3.9 v -5.7 -8.65 l 0.7,0.2 H 14.7 l 0.3,-0.1 M 4.05,-15.5 4.6,-15.95 4.65,-16.15 4.6,-16.4 4.65,-18 4.6,-18.55 l 0.05,-0.4 -0.45,-0.6 h -9.3 l -0.5,0.6 0.05,0.4 -0.05,0.55 0.05,1.6 -0.05,0.25 q 0.05,0.25 0.3,0.4 l 0.1,0.35 q 0.4,0.75 2.6,0.95 l 0.55,0.05 h 1 l 4.35,-0.3 0.5,-0.25 0.25,-0.55 m -0.9,-2.2 0.05,0.6 0.05,0.25 H -4.2 l 0.05,-0.25 0.05,-0.35 v -0.05 l 0.55,0.05 5.95,-0.15 0.75,-0.1 m 13.5,18 V 0.2 0.15 l -0.2,-0.7 Q 16.2,-1.1 14.15,-1.1 H -15.1 q -2.05,0 -2.3,0.55 l -0.2,0.7 v 0.1 0.05 l 0.1,0.45 v 21.4 l 0.15,0.35 0.2,0.15 q 0.15,0.3 0.6,0.25 H 15.6 q 0.45,0.05 0.6,-0.25 l 0.2,-0.15 0.15,-0.35 V 0.75 L 16.65,0.3 M -15.95,1.85 -15.8,1.9 15,1.8 v 8.45 3.3 0.6 0.45 l 0.1,5.35 0.1,1.15 v 0.15 L 10.35,21.1 H -11.3 l -4.85,0.15 0.05,-0.15 0.05,-1.15 v -0.3 H -16 l 0.05,-5.05 v -0.45 -0.6 h 0.05 l -0.05,-3.3 V 1.85 M 4.15,8.75 4.3,8.65 4.65,8.15 V 8.05 L 4.6,7.9 4.65,7.8 4.7,6.85 4.65,6.3 V 6.15 L 4.6,5.75 H 4.65 V 5.5 5.4 L 4.2,4.8 h -9.3 l -0.5,0.6 v 0.1 l 0.05,0.25 -0.05,0.4 V 6.3 6.8 6.95 L -5.55,7.8 V 7.9 L -5.6,8.05 v 0.1 l 0.6,0.7 0.15,0.05 h 0.15 q 0.2,0.4 0.85,0.7 L -1.15,10 3.3,9.7 Q 4.2,9.45 4.2,8.9 L 4.15,8.75 M -4.1,6.8 -3.8,6.85 h 1.25 1.05 4.3 0.35 V 6.9 L 3.2,7.2 V 7.3 L 3.25,7.45 H -4.2 L -4.15,7.3 V 7.2 L -4.1,6.9 V 6.8 m 22.4,24.65 h -0.3 -36.95 -0.3 l 0.05,-0.9 37.45,-0.1 v 0.05 l 0.05,0.95"
         fill="#b6b6b6"
         fill-rule="evenodd"
         stroke="none"
         id="path3" />
      <path
         d="m -5.3,-15.75 0.15,0.1 0.05,0.05 0.25,0.15 H 3.9 L 4,-15.5 h 0.05 l -0.25,0.55 -0.5,0.25 -4.35,0.3 h -1 l -0.55,-0.05 q -2.2,-0.2 -2.6,-0.95 l -0.1,-0.35 M 4.15,8.75 4.2,8.9 q 0,0.55 -0.9,0.8 L -1.15,10 -3.85,9.6 Q -4.5,9.3 -4.7,8.9 H 3.9 L 4.15,8.75"
         fill="#a6a6a6"
         fill-rule="evenodd"
         stroke="none"
         id="path4" />
      <path
         d="m 20.5,-28.3 0.05,0.25 V -27.9 19 m 0,0.65 V 24 m 0,0.9 v 3.8 m 0,0.5 v 2.45 m 0,0.05 v 0.45 m -0.15,0 -0.35,0.5 q -0.2,0.6 -1,0.85 H -20 q -0.8,-0.25 -1,-0.85 l -0.3,-0.5 -0.2,-0.45 v -59.6 -0.15 l 0.1,-0.25 m -0.1,60.45 V 31.7 m 0.3,-60 0.2,-0.3 0.35,-0.5 0.65,-0.35 h 39.05 l 0.7,0.35 0.3,0.5 0.25,0.3 0.25,0.4 m 0,59.6 -0.15,0.45 m -41.9,-60.05 0.3,-0.4"
         fill="none"
         stroke="#6b6b6b"
         stroke-linecap="round"
         stroke-linejoin="round"
         stroke-width="1"
         id="path5" />
    </g>
  </defs>
</svg>
