<?xml version="1.0" encoding="UTF-8" standalone="no"?>
<svg
   ffdec:objectType="frame"
   height="96.131462"
   width="157.38765"
   version="1.1"
   id="svg81"
   sodipodi:docname="2.svg"
   xmlns:inkscape="http://www.inkscape.org/namespaces/inkscape"
   xmlns:sodipodi="http://sodipodi.sourceforge.net/DTD/sodipodi-0.dtd"
   xmlns:xlink="http://www.w3.org/1999/xlink"
   xmlns="http://www.w3.org/2000/svg"
   xmlns:svg="http://www.w3.org/2000/svg"
   xmlns:ffdec="https://www.free-decompiler.com/flash">
  <sodipodi:namedview
     id="namedview81"
     pagecolor="#ffffff"
     bordercolor="#000000"
     borderopacity="0.25"
     inkscape:showpageshadow="2"
     inkscape:pageopacity="0.0"
     inkscape:pagecheckerboard="0"
     inkscape:deskcolor="#d1d1d1"
     fit-margin-top="5"
     fit-margin-left="5"
     fit-margin-right="5"
     fit-margin-bottom="5" />
  <g
     transform="translate(83.95412,61.01825)"
     id="g29">
    <use
       ffdec:characterId="1022"
       height="51.450001"
       transform="matrix(-0.6381,-0.0686,-0.1017,0.5239,66.4612,-60.2465)"
       width="22.4"
       xlink:href="#sprite0"
       id="use1" />
    <use
       ffdec:characterId="991"
       height="48.299999"
       transform="matrix(0.7064,-0.0625,0.0839,0.5257,40.7891,-54.6706)"
       width="16.799999"
       xlink:href="#sprite1"
       id="use2" />
    <use
       ffdec:characterId="1022"
       height="51.450001"
       transform="matrix(-0.5637,-0.18,-0.2805,0.4865,75.2722,-51.0372)"
       width="22.4"
       xlink:href="#sprite0"
       id="use3" />
    <use
       ffdec:characterId="1061"
       height="46.049999"
       transform="matrix(-0.5589,-0.3275,-0.4402,0.4159,75.064,-37.0492)"
       width="17.549999"
       xlink:href="#sprite2"
       id="use4" />
    <use
       ffdec:characterId="1022"
       height="51.450001"
       transform="matrix(-0.6606,0.1964,0.2639,0.4916,42.9164,-51.4838)"
       width="22.4"
       xlink:href="#sprite0"
       id="use5" />
    <use
       ffdec:characterId="991"
       height="48.299999"
       transform="matrix(-0.4402,0.4159,0.5589,0.3275,26.2008,-42.1536)"
       width="16.799999"
       xlink:href="#sprite1"
       id="use6" />
    <use
       ffdec:characterId="997"
       height="52.900002"
       transform="matrix(-0.7041,-0.0757,-0.1018,0.524,61.7615,-48.3635)"
       width="14.4"
       xlink:href="#sprite3"
       id="use7" />
    <use
       ffdec:characterId="1063"
       height="27.450001"
       transform="matrix(-0.7041,-0.0757,-0.1018,0.524,54.1302,-37.1512)"
       width="12.65"
       xlink:href="#sprite4"
       id="use8" />
    <use
       ffdec:characterId="999"
       height="25.049999"
       transform="matrix(-0.5589,-0.3275,-0.4402,0.4159,65.6995,-32.966)"
       width="11.8"
       xlink:href="#sprite5"
       id="use9" />
    <use
       ffdec:characterId="1009"
       height="25.299999"
       transform="matrix(-0.4259,-0.424,-0.5698,0.3169,74.8933,-28.0346)"
       width="11.25"
       xlink:href="#sprite6"
       id="use10" />
    <use
       ffdec:characterId="993"
       height="24.950001"
       transform="matrix(-0.6606,0.1964,0.2639,0.4916,40.3139,-38.3204)"
       width="11.25"
       xlink:href="#sprite7"
       id="use11" />
    <use
       ffdec:characterId="1074"
       height="132.25"
       transform="matrix(-0.1224,0.7228,0.7228,0.1224,-33.8932,-37.9911)"
       width="51.25"
       xlink:href="#sprite8"
       id="use12" />
    <use
       ffdec:characterId="1037"
       height="54.450001"
       transform="matrix(1.0554,0,0,0.8572,36.0196,-22.7581)"
       width="35.450001"
       xlink:href="#sprite9"
       id="use13" />
    <use
       ffdec:characterId="1005"
       height="65.25"
       transform="matrix(0.8687,0,0,-0.8059,-70.4,33.8488)"
       width="16.049999"
       xlink:href="#sprite10"
       id="use14" />
    <use
       ffdec:characterId="1001"
       height="5.8000002"
       transform="matrix(-1,0,0,1,20.85,-16.8)"
       width="65.199997"
       xlink:href="#sprite11"
       id="use15" />
    <use
       ffdec:characterId="1007"
       height="25.450001"
       transform="matrix(0.7177,0,0,0.7177,-58.6998,-17.4648)"
       width="62.700001"
       xlink:href="#sprite12"
       id="use16" />
    <use
       ffdec:characterId="1007"
       height="25.450001"
       transform="matrix(-0.7177,0,0,0.7177,50.9498,-17.4648)"
       width="62.700001"
       xlink:href="#sprite12"
       id="use17" />
    <use
       ffdec:characterId="1005"
       height="65.25"
       transform="matrix(-0.8687,0,0,-0.8059,62.65,33.8488)"
       width="16.049999"
       xlink:href="#sprite10"
       id="use18" />
    <use
       ffdec:characterId="989"
       height="95.550003"
       transform="matrix(0,0.8571,1,0,-24.5,-27.25)"
       width="16.799999"
       xlink:href="#sprite13"
       id="use19" />
    <use
       ffdec:characterId="1011"
       height="15.45"
       transform="matrix(-0.67,0,0,0.67,56.3436,-20.8091)"
       width="16.1"
       xlink:href="#sprite14"
       id="use20" />
    <use
       ffdec:characterId="1001"
       height="5.8000002"
       transform="matrix(-1,0,0,1,72.3,-28.35)"
       width="65.199997"
       xlink:href="#sprite11"
       id="use21" />
    <use
       ffdec:characterId="989"
       height="95.550003"
       transform="matrix(0,0.8571,-1,0,16.35,-27.25)"
       width="16.799999"
       xlink:href="#sprite13"
       id="use22" />
    <use
       ffdec:characterId="1001"
       height="5.8000002"
       transform="matrix(-1,0,0,1,20.85,-28.35)"
       width="65.199997"
       xlink:href="#sprite11"
       id="use23" />
    <use
       ffdec:characterId="1001"
       height="5.8000002"
       transform="matrix(-1,0,0,1,-15.25,-28.35)"
       width="65.199997"
       xlink:href="#sprite11"
       id="use24" />
    <use
       ffdec:characterId="1011"
       height="15.45"
       transform="matrix(-0.67,0,0,0.67,-28.7564,-25.2091)"
       width="16.1"
       xlink:href="#sprite14"
       id="use25" />
    <use
       ffdec:characterId="1011"
       height="15.45"
       transform="matrix(-0.67,0,0,0.67,16.2936,-25.4091)"
       width="16.1"
       xlink:href="#sprite14"
       id="use26" />
    <use
       ffdec:characterId="1011"
       height="15.45"
       transform="matrix(-0.67,0,0,0.67,-51.5564,-20.6591)"
       width="16.1"
       xlink:href="#sprite14"
       id="use27" />
    <use
       ffdec:characterId="1035"
       height="105.9"
       transform="matrix(-1.1057,0.045,-0.0813,0.6219,9.723,-31.8665)"
       width="81.699997"
       xlink:href="#sprite15"
       id="use28" />
    <use
       ffdec:characterId="44"
       height="8"
       transform="matrix(-0.866,0.5,0.5,0.866,-57.7734,-0.964)"
       width="10.8"
       xlink:href="#sprite16"
       id="use29" />
  </g>
  <defs
     id="defs81">
    <g
       id="sprite0"
       transform="translate(11.2,25.7)">
      <use
         ffdec:characterId="1021"
         height="51.450001"
         transform="translate(-11.2,-25.7)"
         width="22.4"
         xlink:href="#shape0"
         id="use30" />
    </g>
    <g
       id="shape0"
       transform="translate(11.2,25.7)">
      <path
         d="m 1.55,10.15 0.05,-2.8 0.15,-6.1 0.05,-2.5 0.05,-3.2 -0.05,-7 q -0.15,-3.6 -0.65,-6.75 l -0.05,-0.25 -0.05,0.1 Q 0.7,-17.2 0.4,-12 l -0.05,0.8 -0.1,3 -0.1,3.7 0.05,1.2 0.05,6.95 V 4.5 L 0.3,8.05 v 0.8 0.25 1.35 H 0.25 l -1,-0.2 0.05,-0.2 V 9.2 L -0.55,5.9 V 5.8 L -0.5,3.25 -0.4,-0.2 v -1.95 l 0.1,-1.9 q -0.05,-1.85 -0.75,-2.3 l -0.25,4.25 0.15,12.2 h -0.2 q -0.95,0 -1.7,-1.6 L -3.6,6.9 -3.5,5.75 -4.7,3.35 -7.35,-2.5 q 0,-1.95 2.1,-8.75 l 2.35,-7.3 q 1.3,-3.9 3.65,-1.55 2.15,2.2 2.25,4.7 l 0.1,1.6 0.5,2.3 1.9,6.4 q 0.6,2.2 0.6,5.5 -1.65,8.3 -4.55,9.75"
         fill="#d2d2d2"
         fill-rule="evenodd"
         stroke="none"
         id="path30" />
      <path
         d="M 0.3,10.45 V 9.1 8.85 8.05 L 0.25,4.5 V 3.65 L 0.2,-3.3 0.15,-4.5 l 0.1,-3.7 0.1,-3 0.05,-0.8 q 0.3,-5.2 0.65,-6.35 l 0.05,-0.1 0.05,0.25 q 0.5,3.15 0.65,6.75 l 0.05,7 -0.05,3.2 -0.05,2.5 -0.15,6.1 -0.05,2.8 -0.1,3.6 L 1.5,13.7 4.35,11.15 Q 6.55,9.05 7.6,6.7 8.5,4.1 8.5,1.2 8.5,-6.3 5,-15.05 L 2.4,-20.7 1.9,-21.5 0,-24.4 q -0.45,0.95 -1.85,2.9 l -0.55,0.8 -2.6,5.65 q -3.5,8.75 -3.5,16.25 0,2.9 0.95,5.5 1.05,2.35 3.2,4.45 l 2.85,2.55 q 1.3,1.3 1.3,2.25 0,3.15 -0.15,5.05 L -0.6,23.45 0.1,23.4 0.65,23.45 0.35,21 Q 0.2,19.1 0.2,15.95 l 0.1,-0.5 v -5 M -1.15,10.1 -1.3,-2.1 -1.05,-6.35 q 0.7,0.45 0.75,2.3 l -0.1,1.9 V -0.2 L -0.5,3.25 -0.55,5.8 V 5.9 L -0.7,9.2 v 0.85 l -0.05,0.2 -0.05,1.35 h -0.35 v -1.5 m 7.25,-29.35 0.55,1.05 2.9,7.8 q 1.2,3.85 1.5,7.6 L 11.2,4.4 11,6.7 q -0.75,3.35 -4.15,6.4 L 3.9,15.85 q -1.35,1.5 -1.35,2.95 l 0.25,3.35 -0.15,1.8 0.3,0.7 q 0,0.65 -0.55,0.9 l -2.6,0.2 q -1.9,0 -2.4,-0.65 l -0.15,-0.5 0.15,-0.45 -0.15,-2 0.2,-3.35 q 0,-1.45 -1.35,-2.95 L -6.85,13.1 Q -10.25,10.05 -11,6.7 l -0.2,-2.3 0.15,-7.2 q 0.3,-3.75 1.55,-7.6 1.95,-5.9 2.85,-7.8 l 0.6,-1.05 q 2.7,-5.7 6,-6.45 h 0.1 q 3.3,0.75 6.05,6.45"
         fill="#9a9a9a"
         fill-rule="evenodd"
         stroke="none"
         id="path31" />
      <path
         d="m 0.3,10.45 v 5 l -0.1,0.5 Q 0.2,19.1 0.35,21 L 0.65,23.45 0.1,23.4 -0.6,23.45 -0.35,21 Q -0.2,19.1 -0.2,15.95 -0.2,15 -1.5,13.7 L -4.35,11.15 Q -6.5,9.05 -7.55,6.7 -8.5,4.1 -8.5,1.2 q 0,-7.5 3.5,-16.25 l 2.6,-5.65 0.55,-0.8 q 1.4,-1.95 1.85,-2.9 l 1.9,2.9 0.5,0.8 2.6,5.65 Q 8.5,-6.3 8.5,1.2 8.5,4.1 7.6,6.7 6.55,9.05 4.35,11.15 L 1.5,13.7 1.45,13.75 1.55,10.15 Q 4.45,8.7 6.1,0.4 6.1,-2.9 5.5,-5.1 L 3.6,-11.5 3.1,-13.8 3,-15.4 q -0.1,-2.5 -2.25,-4.7 -2.35,-2.35 -3.65,1.55 l -2.35,7.3 q -2.1,6.8 -2.1,8.75 l 2.65,5.85 1.2,2.4 -0.1,1.15 0.55,1.6 q 0.75,1.6 1.7,1.6 h 0.2 v 1.5 h 0.35 l 0.05,-1.35 1,0.2 H 0.3"
         fill="#c6c6c6"
         fill-rule="evenodd"
         stroke="none"
         id="path32" />
    </g>
    <g
       id="sprite1"
       transform="translate(8.4,24.15)">
      <use
         ffdec:characterId="990"
         height="48.299999"
         transform="translate(-8.4,-24.15)"
         width="16.799999"
         xlink:href="#shape1"
         id="use32" />
    </g>
    <g
       id="shape1"
       transform="translate(8.4,24.15)">
      <path
         d="m 1.6,-19.1 0.05,0.15 1.15,3.65 0.25,7.55 -0.15,4.9 v 1.8 L 2.8,0.3 2.75,0.8 Q 2.35,4.5 1.4,6.45 l 0.05,-0.9 0.15,-3 0.35,-8.05 -0.3,-2.25 q -0.6,2.1 -0.8,6.6 l -0.3,4.35 -0.4,2.55 -0.3,1.9 -0.1,0.75 -0.2,1.25 q -0.65,0.9 -1.4,1.15 V 10.7 L -1.95,9.8 -2.05,8.6 -2.1,8.4 -2.15,8 -2.3,7.1 H -2.55 L -2.75,8.4 -2.95,9.45 -3,9.95 -3.15,10.7 -3.95,10 -4.25,9.1 -3.9,7.45 -3.95,7.35 -4.4,6 -4.2,1.25 -2.85,0.7 -2.65,0.5 -3,0.3 -4.1,0.05 -4,-0.7 l 0.6,-0.1 2.3,-0.5 -0.25,-0.3 -0.3,-0.05 -2.05,-0.1 h -0.2 q 0.85,-6.8 3.25,-13.75 l 0.25,-0.7 q 1.1,-2.95 1.9,-2.9 h 0.1"
         fill="#d2d2d2"
         fill-rule="evenodd"
         stroke="none"
         id="path33" />
      <path
         d="M 2.8,-15.3 1.65,-18.95 1.6,-19.1 1.55,-19.25 0.7,-21.35 H 0.5 l -3.2,9.5 q -2.4,7.3 -2.9,10.3 l 1.35,-0.1 v -0.1 h 0.35 0.2 l 2.05,0.1 0.3,0.05 0.25,0.3 -2.3,0.5 -0.6,0.1 -0.85,0.1 -0.9,0.05 -0.05,0.4 0.05,0.35 H -5.7 L -4.1,0.05 -3,0.3 -2.65,0.5 -2.85,0.7 -4.2,1.25 -5.3,1.4 -5.15,1.7 q 0.7,1 0.7,1.9 0,1 -0.85,1.9 -0.85,0.85 -0.85,1.25 0,2.05 1.9,4.5 l 0.8,1.1 0.3,-1.65 0.15,-0.75 0.05,-0.5 0.2,-1.05 0.2,-1.3 h 0.25 l 0.15,0.9 0.05,0.4 0.05,0.2 0.1,1.2 0.1,0.9 v 0.1 l 0.1,0.75 0.1,1.2 v 0.3 q 0,1.35 -1.05,7.05 l 1.15,0.05 V 19.4 L -0.8,12.6 -0.75,12.1 -0.7,11.65 -0.45,9.7 V 9.65 l 0.2,-1.25 0.1,-0.75 0.3,-1.9 0.4,-2.55 0.3,-4.35 q 0.2,-4.5 0.8,-6.6 l 0.3,2.25 -0.35,8.05 -0.15,3 -0.05,0.9 -0.1,1 -0.3,3.8 0.55,-0.8 Q 3.4,7.95 4.65,5.35 L 5.2,1.95 5.55,-1.8 q 0,-2.95 -1.9,-10.25 L 2.8,-15.3 m 5.6,13.4 q 0,4.3 -1.9,9.4 -2.35,6.05 -5.45,6.05 L 0.7,13.5 0.4,15.3 0.2,16.85 0.6,21.3 0.4,23.2 q -0.45,0.95 -1.95,0.95 -1.8,0 -2.7,-0.75 -0.6,-0.5 -0.6,-1.05 l 1.05,-7.8 Q -6.9,14.4 -7.95,11.55 -8.4,10.25 -8.4,8 q 0,-1.15 0.85,-2.7 l 0.8,-1.55 q 0,-0.25 -0.75,-1.6 L -7.8,1.4 H -7.9 L -7.95,1.25 H -7.9 L -8.25,-0.2 q 0,-4.4 2.6,-12.75 2.7,-8.65 4.9,-10.5 3.7,-3.1 6.75,7.75 2.4,8.55 2.4,13.8 m -9.75,23.65 0.1,-0.05 0.05,-0.2 0.05,-0.05 -0.15,0.05 -0.95,0.15 0.6,0.1 h 0.3"
         fill="#9a9a9a"
         fill-rule="evenodd"
         stroke="none"
         id="path34" />
      <path
         d="m 1.5,-19.1 q -0.8,-0.05 -1.9,2.9 l -0.25,0.7 q -2.4,6.95 -3.25,13.75 h -0.35 v 0.1 l -1.35,0.1 q 0.5,-3 2.9,-10.3 l 3.2,-9.5 h 0.2 l 0.85,2.1 -0.05,0.15 M -4,-0.7 -4.1,0.05 -5.7,0.2 H -5.75 L -5.8,-0.15 -5.75,-0.55 -4.85,-0.6 -4,-0.7 M -4.2,1.25 -4.4,6 l 0.45,1.35 0.05,0.1 -0.35,1.65 0.3,0.9 0.8,0.7 -0.3,1.65 -0.8,-1.1 q -1.9,-2.45 -1.9,-4.5 0,-0.4 0.85,-1.25 0.85,-0.9 0.85,-1.9 0,-0.9 -0.7,-1.9 L -5.3,1.4 -4.2,1.25 m 2.35,9.55 q 0.75,-0.25 1.4,-1.15 V 9.7 l -0.25,1.95 -0.05,0.45 -0.05,0.5 -0.75,6.8 v 0.75 L -2.7,20.1 q 1.05,-5.7 1.05,-7.05 v -0.3 l -0.1,-1.2 -0.1,-0.75 M 1.4,6.45 Q 2.35,4.5 2.75,0.8 L 2.8,0.3 2.9,-1.05 v -1.8 l 0.15,-4.9 -0.25,-7.55 0.85,3.25 q 1.9,7.3 1.9,10.25 L 5.2,1.95 4.65,5.35 q -1.25,2.6 -3.1,5.1 l -0.55,0.8 0.3,-3.8 0.1,-1 m -2.7,15.05 -0.05,0.25 h -0.3 l -0.6,-0.1 0.95,-0.15"
         fill="#c6c6c6"
         fill-rule="evenodd"
         stroke="none"
         id="path35" />
    </g>
    <g
       id="sprite2"
       transform="translate(8.75,23)">
      <use
         ffdec:characterId="1060"
         height="46.049999"
         transform="translate(-8.75,-23)"
         width="17.549999"
         xlink:href="#shape2"
         id="use35" />
    </g>
    <g
       id="shape2"
       transform="translate(8.75,23)">
      <path
         d="m 0.65,-21.8 0.15,-0.1 v -0.15 l -0.15,0.25 m 2.4,1.95 q 1.75,3.95 3.5,9.35 0.95,3 1.55,7 0.7,4.15 0.7,7.3 0,2.45 -1,5.75 -1.6,5.25 -4.65,5.4 v 0.6 2.7 2.8 q -0.45,2 -2.85,2 -1.65,0 -2.2,-1.05 -0.35,-0.75 -0.35,-2.65 0.1,-4.7 -1.8,-6.35 Q -6.8,10.5 -7.9,8.05 -8.75,6 -8.75,3.05 q 0,-9.35 1,-13.1 1.55,-5.7 5.9,-9.75 l 0.95,-1.25 q 2.1,-2.5 2.25,-1.8 v 0.05 q 0.6,0.4 1.7,2.95 M 2.65,11.05 2.7,12.4 4.05,10.35 Q 6.3,6.85 6.3,3.55 6.3,-3.1 3.6,-12.45 1.5,-18.6 1,-20.7 l -1.75,2.7 q -2.6,4 -3.5,6.6 -1.05,3.05 -1.45,6.1 l -0.05,0.1 v 0.15 l -0.3,3.8 v 0.3 q 0,3.9 0.3,5.5 0.65,3.65 3.05,5.2 l 0.55,0.4 1.2,1.05 0.1,-1.85 L -0.8,7.9 -0.75,6.7 -0.7,4.6 -0.65,0.35 v -0.2 -1.4 l 0.2,-5.8 0.35,-3.65 0.1,-0.7 0.4,-1.45 0.1,0.05 0.05,0.1 0.05,0.45 -0.05,1 -0.4,3.65 q 0,2.85 0.35,9.7 l 0.1,2 0.1,1.85 V 6 l 0.2,3.4 v 0.35 0.1 L 0.75,12.25 0.6,13.9 0.75,15.1 0.6,17.8 q -0.1,1.65 0.2,2.75 H 1.15 L 1.05,17.05 0.9,13.6 Q 1.05,13.15 1.45,13 V 12.1 L 1.4,10.45 1.5,8.4 1.6,6.1 1.65,5.85 1.95,1.9 l 0.4,3.45 0.3,5.7"
         fill="#9a9a9a"
         fill-rule="evenodd"
         stroke="none"
         id="path36" />
      <path
         d="M 2.65,11.05 Q 3.25,10.2 3.55,8.8 L 3.85,4.85 3.7,0.65 3.25,-5.4 q -0.4,-2.25 -1,-3.65 -0.55,-3.2 -1.4,-5 l 0.7,-2.25 q 0,-3 -1.65,-1.85 -1.4,1 -2.25,2.95 l -1.95,4.7 -1.4,5.2 q 0.4,-3.05 1.45,-6.1 0.9,-2.6 3.5,-6.6 L 1,-20.7 q 0.5,2.1 2.6,8.25 2.7,9.35 2.7,16 0,3.3 -2.25,6.8 L 2.7,12.4 2.65,11.05 m -8.7,-12 1.6,3.8 1.65,2.65 0.1,0.6 0.75,1.95 -0.25,1.7 0.05,0.4 -0.55,-0.4 q -2.4,-1.55 -3.05,-5.2 -0.3,-1.6 -0.3,-5.5 m 6.8,13.2 0.7,-0.15 V 13 q -0.4,0.15 -0.55,0.6 l 0.15,3.45 0.1,3.5 H 0.8 Q 0.5,19.45 0.6,17.8 L 0.75,15.1 0.6,13.9 0.75,12.25"
         fill="#c6c6c6"
         fill-rule="evenodd"
         stroke="none"
         id="path37" />
      <path
         d="m -5.7,-5.3 1.4,-5.2 1.95,-4.7 q 0.85,-1.95 2.25,-2.95 1.65,-1.15 1.65,1.85 l -0.7,2.25 q 0.85,1.8 1.4,5 0.6,1.4 1,3.65 L 3.7,0.65 3.85,4.85 3.55,8.8 q -0.3,1.4 -0.9,2.25 L 2.35,5.35 1.95,1.9 1.65,5.85 1.6,6.1 1.5,8.4 1.4,10.45 1.45,12.1 0.75,12.25 0.9,9.85 V 9.75 9.4 L 0.7,6 V 5.95 L 0.6,4.1 0.5,2.1 Q 0.15,-4.75 0.15,-7.6 l 0.4,-3.65 0.05,-1 -0.05,-0.45 -0.05,-0.1 -0.1,-0.05 -0.4,1.45 -0.1,0.7 -0.35,3.65 -0.2,5.8 v 1.4 0.2 L -0.7,4.6 -0.75,6.7 -0.8,7.9 -0.85,9.35 -0.95,11.2 -2.15,10.15 -2.2,9.75 -1.95,8.05 -2.7,6.1 -2.8,5.5 -4.45,2.85 l -1.6,-3.8 v -0.3 l 0.3,-3.8 V -5.2 l 0.05,-0.1"
         fill="#d2d2d2"
         fill-rule="evenodd"
         stroke="none"
         id="path38" />
    </g>
    <g
       id="sprite3"
       transform="translate(7.2,26.45)">
      <use
         ffdec:characterId="996"
         height="52.900002"
         transform="translate(-7.2,-26.45)"
         width="14.4"
         xlink:href="#shape3"
         id="use38" />
    </g>
    <g
       id="shape3"
       transform="translate(7.2,26.45)">
      <path
         d="M 1.55,-18.65 1.5,-18.8 0.9,-21.65 0.35,-24.6 -2.1,-19.05 Q -5,-11.85 -5,-9.3 l 0.25,6.45 0.15,5.1 0.55,2.85 0.95,3.35 0.7,2.2 0.35,1.2 0.1,-1 0.3,-5.35 0.3,-9.5 q 0.05,-5.05 1.1,-8.2 l 0.3,-0.85 0.1,0.85 0.05,0.65 -0.15,12.1 1.7,-0.7 L 2,-0.3 2.95,-0.65 4.75,-1.25 Q 4.45,-5.1 2.95,-12.2 l -0.4,-1.75 -1,-4.7 m 3.65,4.85 0.3,1.6 0.4,2.2 0.8,4.15 q 0.5,2.5 0.5,6.55 0,4.75 -1.3,9.15 l -0.1,0.3 q -1.9,6.2 -5.6,6.2 l -0.35,-0.05 -0.05,2.1 -0.3,3.9 q -0.25,1.95 -0.65,2.65 l 0.15,0.3 q 0,1.2 -1.25,1.2 -1.2,0 -2.25,-1.15 L -5.3,24.1 -4.05,18.65 -3.1,14.95 -4.05,14.2 -5.3,11.65 -6.65,6.8 Q -7.2,4 -7.2,-1.35 l 0.15,-6.45 q 0.3,-3.75 1.3,-6.15 l 2.3,-6.45 q 1.4,-3.65 3.7,-5.45 0.1,-2.05 2,2.75 1.75,4.65 2.95,9.3 m -5.3,24.6 v 0.15 3.2 L 0.05,14.05 1.2,12.6 Q 3.5,9.95 3.95,7.9 L 4.45,4.9 4.5,4.45 4.75,2.5 2.75,2.6 H 1.1 0.2 L 0.05,2.55 -0.1,10.8 M 2.8,1.9 h 2 L 4.85,0.8 V -0.35 L 2.9,0.5 1.6,1 0.05,1.5 v 0.4 h 1.3 1.45 m -5.4,20.4 0.15,-3.3 -0.6,3.3 -0.1,1.05 0.45,0.45 0.1,-1.5"
         fill="#9a9a9a"
         fill-rule="evenodd"
         stroke="none"
         id="path39" />
      <path
         d="m 0.9,-21.65 q -1,-1.3 -1.75,1.45 -0.7,2.5 -0.7,4.3 l 0.05,0.5 -1,2.4 -0.3,0.8 -1.25,4.55 L -4.2,-6.9 -4.75,-2.85 -5,-9.3 q 0,-2.55 2.9,-9.75 l 2.45,-5.55 0.55,2.95 m 2.05,21 0.15,-2.9 q 0,-5 -0.6,-8.65 -0.5,-3 -1.4,-5.1 l 0.45,-1.35 1,4.7 0.4,1.75 q 1.5,7.1 1.8,10.95 l -1.8,0.6 M 2.75,2.6 4.75,2.5 4.5,4.45 4.45,4.9 3.95,7.9 Q 3.5,9.95 1.2,12.6 l -1.15,1.45 -0.15,0.1 V 10.95 10.8 Q 1.2,10.15 1.95,7.45 2.4,6 2.65,3.95 L 2.75,2.6 M 2.9,0.5 4.85,-0.35 V 0.8 L 4.8,1.9 h -2 L 2.9,0.5 m -5.5,21.8 -0.1,1.5 -0.45,-0.45 0.1,-1.05 0.6,-3.3 -0.15,3.3"
         fill="#c6c6c6"
         fill-rule="evenodd"
         stroke="none"
         id="path40" />
      <path
         d="m 0.9,-21.65 0.6,2.85 0.05,0.15 -0.45,1.35 q 0.9,2.1 1.4,5.1 0.6,3.65 0.6,8.65 L 2.95,-0.65 2,-0.3 l -0.25,0.15 -1.7,0.7 0.15,-12.1 -0.05,-0.65 -0.1,-0.85 -0.3,0.85 q -1.05,3.15 -1.1,8.2 l -0.3,9.5 -0.3,5.35 -0.45,-0.2 -0.7,-2.2 -0.95,-3.35 -0.55,-2.85 -0.15,-5.1 0.55,-4.05 0.15,-0.75 1.25,-4.55 0.3,-0.8 1,-2.4 -0.05,-0.5 q 0,-1.8 0.7,-4.3 0.75,-2.75 1.75,-1.45 M 2.75,2.6 2.65,3.95 Q 2.4,6 1.95,7.45 1.2,10.15 -0.1,10.8 L 0.05,2.55 0.2,2.6 H 1.1 2.75 M 2.9,0.5 2.8,1.9 H 1.35 0.05 V 1.5 L 1.6,1 2.9,0.5"
         fill="#d2d2d2"
         fill-rule="evenodd"
         stroke="none"
         id="path41" />
    </g>
    <g
       id="sprite4"
       transform="translate(6.3,13.7)">
      <use
         ffdec:characterId="1062"
         height="27.450001"
         transform="translate(-6.3,-13.7)"
         width="12.65"
         xlink:href="#shape4"
         id="use41" />
    </g>
    <g
       id="shape4"
       transform="translate(6.3,13.7)">
      <path
         d="m 6.35,-0.75 q 0,2.3 -1.05,5.1 -0.75,1.9 -1.75,2.95 -1,0.95 -2.2,1.15 L 0.75,8.5 H 0.65 L 0.45,8.55 0,10.9 q -0.6,2.85 -1.15,2.85 -1.55,0 -2.55,-0.65 L -4.55,12.05 V 11.7 L -4.45,11.5 -4.3,11.45 -4.45,11 q 0,-0.9 1.35,-3.3 Q -3.45,7.6 -3.8,7.3 -4.8,6.35 -5.45,3.25 L -5.65,2.4 -6.3,-3 q 0,-2.8 2.3,-6.85 2.7,-4.8 5.45,-3.6 1.7,1.7 3.35,6.05 1.55,4.2 1.55,6.65 m -7.7,4.6 0.05,-0.6 0.1,-1.45 0.2,-2.1 q 0.4,-4.9 0.9,-6.1 L 0,-6.6 0.05,-5.7 0.2,-2.6 0.1,0.5 0,3.1 v 0.15 0.5 0.8 L -0.05,6.75 0.6,6.4 0.95,6.25 1.35,5.75 2.15,4.9 q 2.1,-2.3 2.1,-4.45 0,-2.6 -1.2,-5.75 L 2.9,-5.65 1.9,-8 l -1.95,-3.85 -2.05,2.35 -1.25,2.25 -0.15,0.4 -0.65,2.75 -0.45,2.2 0.45,2.6 0.35,1.35 0.25,0.95 0.1,0.25 1.05,3.25 0.45,-0.25 0.5,-0.65 0.1,-1.75 m 0.2,4.8 -0.15,-0.45 -0.5,1.2 -0.85,1.8 0.25,0.45 v 0.25 l 0.6,0.1 0.5,-2.55 0.15,-0.7 v -0.1"
         fill="#9a9a9a"
         fill-rule="evenodd"
         stroke="none"
         id="path42" />
      <path
         d="M 0,3.75 V 3.25 3.1 L 0.1,0.5 0.2,-2.6 0.05,-5.7 0,-6.6 -0.1,-6.4 q -0.5,1.2 -0.9,6.1 l -0.2,2.1 -0.1,1.45 -0.05,0.6 Q -2.25,3.7 -2.85,3.25 L -3.8,2.05 -4.15,0.7 -4.3,-1.75 l 0.15,-2.35 0.65,-2.75 0.15,-0.4 1.25,-2.25 2.05,-2.35 1.95,3.85 1,2.35 0.15,0.35 v 0.95 q 0,3.3 -0.3,4.55 Q 2.25,2.35 1.1,3.25 L 0,3.75"
         fill="#d2d2d2"
         fill-rule="evenodd"
         stroke="none"
         id="path43" />
      <path
         d="M 0,3.75 1.1,3.25 Q 2.25,2.35 2.75,0.2 3.05,-1.05 3.05,-4.35 V -5.3 q 1.2,3.15 1.2,5.75 0,2.15 -2.1,4.45 L 1.35,5.75 0.95,6.25 0.6,6.4 -0.05,6.75 0,4.55 V 3.75 M -4.15,-4.1 -4.3,-1.75 -4.15,0.7 -4.6,-1.9 -4.15,-4.1 m 0.35,6.15 0.95,1.2 q 0.6,0.45 1.5,0.6 L -1.45,5.6 -1.95,6.25 -2.4,6.5 -3.45,3.25 -3.55,3 -3.8,2.05 m 2.65,6.6 v 0.1 L -1.3,9.45 -1.8,12 -2.4,11.9 V 11.65 L -2.65,11.2 -1.8,9.4 -1.3,8.2 -1.15,8.65"
         fill="#c6c6c6"
         fill-rule="evenodd"
         stroke="none"
         id="path44" />
    </g>
    <g
       id="sprite5"
       transform="translate(5.9,12.5)">
      <use
         ffdec:characterId="998"
         height="25.049999"
         transform="translate(-5.9,-12.5)"
         width="11.8"
         xlink:href="#shape5"
         id="use44" />
    </g>
    <g
       id="shape5"
       transform="translate(5.9,12.5)">
      <path
         d="m 1.7,-9.8 0.1,0.3 0.7,1.85 1.1,3.05 0.4,1.25 -1.25,1.3 -0.8,0.2 -0.65,0.25 -0.25,0.35 -0.1,0.1 -0.2,0.3 0.05,-0.5 V -1.6 -1.85 l 0.05,-2.4 v -1.1 q 0,-0.5 -0.4,-1.1 l -0.6,2.55 -0.2,1.35 L -0.4,-2.2 -0.5,-1.75 -0.9,1.7 -1,2.45 -1.35,2.1 -1.45,2.15 q -1.65,0 -2.2,-0.9 L -3.9,0.4 V 0.15 q 0,-1.85 0.9,-4.05 l 1.9,-3.2 0.85,-1.35 0.5,-0.5 Q 1.05,-9.65 1.7,-9.8 M 0.65,2.8 0.7,0.75 0.75,0.05 V -0.6 L 1.1,-0.35 1.4,-0.2 1.5,1 q 0,1.5 -0.85,1.8"
         fill="#d2d2d2"
         fill-rule="evenodd"
         stroke="none"
         id="path45" />
      <path
         d="M 4,-3.35 3.6,-4.6 2.5,-7.65 1.8,-9.5 1.7,-9.8 1.35,-10.95 -0.25,-8.45 -1.1,-7.1 -3,-3.9 q -1.1,1.95 -1.1,2.6 l 0.2,1.7 0.25,0.85 1.3,2.65 0.1,0.1 0.9,1.55 0.2,-1.55 0.1,-1.15 0.05,-0.4 0.1,-0.75 0.4,-3.45 0.1,-0.45 0.05,-0.35 0.2,-1.35 0.6,-2.55 q 0.4,0.6 0.4,1.1 v 1.1 l -0.05,2.4 v 0.25 0.25 l -0.05,0.5 0.2,-0.3 0.1,-0.1 0.25,-0.35 0.65,-0.25 0.8,-0.2 1.45,-0.5 -0.2,-0.8 m -1.6,-8.95 -0.3,0.35 1.45,2.2 q 2.35,4.1 2.35,7.5 0,1.05 -0.45,1.2 l -2.1,0.3 0.45,0.35 Q 5.2,0.05 5.65,1.05 L 5.8,2.3 5.5,4 4.95,5.25 q -1.2,2.4 -3.4,2.4 L 0.95,7.45 0.85,7.35 0.75,7.25 0.5,7.35 V 7.5 q -0.25,5.05 -1.25,5.05 -0.7,0 -0.9,-0.45 -0.6,-0.05 -0.8,-0.35 l -0.1,-0.4 0.6,-1.4 0.1,-0.1 V 8.45 L -1.8,7.75 Q -3.15,7.65 -4.65,4.65 L -4.95,4 Q -5.9,2 -5.9,1.3 q 0,-4.05 2.85,-8.9 2.25,-3.7 4.25,-4.5 0.05,-0.7 0.6,-0.2 H 2.4 M 1.4,-0.2 1.1,-0.35 0.75,-0.6 V 0.05 L 0.7,0.75 0.65,2.8 0.6,4 0.55,5.85 1.9,5.8 3.4,4.3 3.65,4 Q 4.3,3 4.3,2.1 4.3,1.5 2.7,0.55 L 1.4,-0.2"
         fill="#9a9a9a"
         fill-rule="evenodd"
         stroke="none"
         id="path46" />
      <path
         d="m 1.7,-9.8 q -0.65,0.15 -1.45,0.85 l -0.5,0.5 1.6,-2.5 0.35,1.15 M -3,-3.9 q -0.9,2.2 -0.9,4.05 V 0.4 l -0.2,-1.7 q 0,-0.65 1.1,-2.6 m -0.65,5.15 q 0.55,0.9 2.2,0.9 L -1.35,2.1 -1,2.45 -1.05,2.85 -1.15,4 -1.35,5.55 -2.25,4 -2.35,3.9 -3.65,1.25 m 6.4,-3.3 1.25,-1.3 0.2,0.8 -1.45,0.5 M 0.65,2.8 Q 1.5,2.5 1.5,1 L 1.4,-0.2 2.7,0.55 Q 4.3,1.5 4.3,2.1 4.3,3 3.65,4 L 3.4,4.3 1.9,5.8 0.55,5.85 0.6,4 0.65,2.8"
         fill="#c6c6c6"
         fill-rule="evenodd"
         stroke="none"
         id="path47" />
    </g>
    <g
       id="sprite6"
       transform="translate(5.6,12.65)">
      <use
         ffdec:characterId="1008"
         height="25.299999"
         transform="translate(-5.6,-12.65)"
         width="11.25"
         xlink:href="#shape6"
         id="use47" />
    </g>
    <g
       id="shape6"
       transform="translate(5.6,12.65)">
      <path
         d="m 0.5,-10.05 0.85,1.55 0.55,0.9 0.15,0.3 0.4,4.7 0.3,6.05 L 2.3,4.85 1.65,5.5 1.35,5.6 1.2,5.65 0.5,5.75 H 0.4 v -0.3 l -0.05,-3 0.2,-2.05 0.2,-2.2 V -1.9 L 0.7,-2.3 0.65,-2.45 0.45,-2.35 0.1,-2.2 -0.45,1.1 -0.95,3.55 -1.05,3.65 -1,4.1 -1.15,5.35 Q -2.2,4.7 -2.9,3.2 L -3.6,1.15 -3.4,-1.3 q 0.8,-3.2 2,-5.8 l 0.65,-1.45 1,-1.5 H 0.5"
         fill="#d2d2d2"
         fill-rule="evenodd"
         stroke="none"
         id="path48" />
      <path
         d="m 5.6,0.4 v 1 l -0.3,3 Q 4.7,7.1 2.75,7.1 L 2.15,6.95 1.9,7.1 2,7.55 2.05,9.2 1.9,11.15 q -0.4,1.5 -2.05,1.5 H -0.5 -0.6 L -1.05,12.5 q -0.8,-0.15 -0.8,-0.85 L -1.5,11.05 -1.4,8.4 -1.35,8.05 H -1.5 q -1.65,0 -3.05,-2.25 L -5.6,3.5 q 0,-3.45 0.75,-6.3 0.3,-2.4 1.25,-5 1.45,-3.85 3.7,-4.65 l 0.4,-0.2 0.35,0.05 0.45,-0.05 0.1,0.1 0.05,0.2 0.5,0.4 q 2.1,2.05 2.75,5.85 l 0.9,4.05 V 0.4 M 2.05,-7.3 1.9,-7.6 1.35,-8.5 0.5,-10.05 0.35,-10.3 l -0.1,0.25 -1,1.5 -0.65,1.45 q -1.2,2.6 -2,5.8 L -3.6,1.15 -3.65,2.4 q 0,1.6 1.95,3.05 l 0.5,0.4 0.05,-0.5 L -1,4.1 -1.05,3.65 l 0.1,-0.1 0.5,-2.45 0.55,-3.3 0.35,-0.15 0.2,-0.1 0.05,0.15 0.05,0.4 v 0.1 l -0.2,2.2 -0.2,2.05 0.05,3 V 5.75 5.9 H 0.8 L 1.2,5.65 1.35,5.6 1.7,5.55 2.3,5.5 2.65,5.1 3.9,3.2 3.95,0.2 q 0,-3.6 -1.9,-7.5 M 0.5,7.7 0.4,7.75 0.35,9.6 0.55,8.8 0.6,8.15 0.5,7.7"
         fill="#9a9a9a"
         fill-rule="evenodd"
         stroke="none"
         id="path49" />
      <path
         d="m 4.7,-6.1 q 0.95,1.9 0.95,5 L 5.6,0.4 V -2.05 L 4.7,-6.1 M 2.05,-7.3 q 1.9,3.9 1.9,7.5 L 3.9,3.2 2.65,5.1 2.3,5.5 1.7,5.55 1.35,5.6 1.65,5.5 2.3,4.85 2.75,3.45 2.45,-2.6 2.05,-7.3 M 1.2,5.65 0.8,5.9 H 0.4 V 5.75 H 0.5 L 1.2,5.65 M -1.15,5.35 -1.2,5.85 -1.7,5.45 Q -3.65,4 -3.65,2.4 L -3.6,1.15 -2.9,3.2 q 0.7,1.5 1.75,2.15 M 0.5,7.7 0.6,8.15 0.55,8.8 0.35,9.6 0.4,7.75 0.5,7.7"
         fill="#c6c6c6"
         fill-rule="evenodd"
         stroke="none"
         id="path50" />
    </g>
    <g
       id="sprite7"
       transform="translate(5.6,12.45)">
      <use
         ffdec:characterId="992"
         height="24.950001"
         transform="translate(-5.6,-12.45)"
         width="11.25"
         xlink:href="#shape7"
         id="use50" />
    </g>
    <g
       id="shape7"
       transform="translate(5.6,12.45)">
      <path
         d="m 1.35,-8.85 0.85,-1.1 0.15,-0.1 0.3,0.35 0.4,1.15 0.95,2.8 0.1,1.2 -1.15,3.8 L 1.6,1.7 0.65,2.65 0.8,1.15 v -0.5 l 0.35,-3 L 0.8,-3.7 0.75,-3.55 -0.2,-1.05 -0.6,0.2 -1.35,2.85 Q -1.8,2.65 -2.05,2.3 L -2.3,1.8 -2.45,0.6 q 0,-1.2 1.6,-5 1.15,-2.85 2.2,-4.45"
         fill="#d2d2d2"
         fill-rule="evenodd"
         stroke="none"
         id="path51" />
      <path
         d="m 2.2,-9.95 -1.15,1.2 q -1.25,1.45 -2.45,3.7 -1.95,3.65 -1.95,5.8 0,1.35 0.8,3.05 l 0.4,0.75 0.25,0.45 0.05,-0.3 0.5,-1.85 0.75,-2.65 0.4,-1.25 0.95,-2.5 0.05,-0.15 0.35,1.35 -0.35,3 v 0.5 l -0.15,1.5 -0.6,3 -0.1,0.3 L -0.2,6.65 0.65,6 1.15,5.55 V 5.5 Q 3.1,3.75 3.55,2.4 4.1,0.65 4.1,-2.7 V -4.55 L 4,-5.75 3.05,-8.55 2.65,-9.7 2.5,-10.2 2.35,-10.05 2.2,-9.95 m 3.45,7.15 q 0,3.3 -0.6,5.55 -1.2,4.95 -4.7,4.95 l -0.7,-0.1 -0.5,3.3 q 0,0.55 -0.25,1 -0.4,0.6 -1.05,0.6 -0.75,0 -1,-0.5 l -0.1,-0.65 0.7,-3.6 Q -3.75,7.4 -4.7,5.15 l -0.9,-2.8 q 0,-3.15 1.75,-7.25 1.7,-4.05 3.85,-6.2 2.35,-2.3 3.85,-0.7 1.8,1.9 1.8,9"
         fill="#9a9a9a"
         fill-rule="evenodd"
         stroke="none"
         id="path52" />
      <path
         d="m 1.05,-8.75 0.3,-0.1 q -1.05,1.6 -2.2,4.45 -1.6,3.8 -1.6,5 l 0.15,1.2 0.25,0.5 q 0.25,0.35 0.7,0.55 L -1.85,4.7 -1.9,5 -2.15,4.55 -2.55,3.8 q -0.8,-1.7 -0.8,-3.05 0,-2.15 1.95,-5.8 1.2,-2.25 2.45,-3.7 M 0.65,2.65 1.6,1.7 2.95,-0.75 4.1,-4.55 V -2.7 Q 4.1,0.65 3.55,2.4 3.1,3.75 1.15,5.5 V 5.55 H 0.95 L 0.65,6 -0.2,6.65 l 0.15,-0.7 0.1,-0.3 0.6,-3"
         fill="#c6c6c6"
         fill-rule="evenodd"
         stroke="none"
         id="path53" />
    </g>
    <g
       id="sprite8"
       transform="translate(25.6,66.1)">
      <use
         ffdec:characterId="1073"
         height="132.25"
         transform="translate(-25.6,-66.1)"
         width="51.25"
         xlink:href="#shape8"
         id="use53" />
    </g>
    <g
       id="shape8"
       transform="translate(25.6,66.1)">
      <path
         d="m -1.85,-0.3 h -0.1 l -0.1,0.3 -0.4,1.1 q -1.3,3.45 -2.35,9.15 l -0.05,0.45 q -1.05,5.55 -1.2,9.65 l -0.25,1.55 0.2,0.95 -0.45,5.25 -0.15,2.15 v 0.35 q -0.2,1.85 -0.65,3.1 l -0.1,-1.1 Q -7.2,32.3 -7.2,31.8 V 31.45 Q -7.35,30.4 -8.2,29.4 L -8.55,29 q -0.8,-0.85 -1.85,-1.3 -0.5,-0.25 -0.95,-0.35 l -1.6,-0.3 -1,-0.05 -5.75,0.3 -2.5,0.25 -0.45,0.05 -0.15,-0.15 0.2,-0.35 1.2,-1.9 7.4,-10.95 1.05,-1.55 4.35,-6.9 1.95,-4.05 1.1,-1.65 0.6,-0.85 q 2.25,-3.55 3.5,-6.3 L -0.5,-9.6 q 1.25,-4 1.25,-15 L 0.4,-33.2 0.3,-34.5 0.25,-35.65 Q 0,-39.5 0,-43.45 v -0.3 -0.45 l 0.15,-6.3 0.15,-2.45 0.1,-0.8 0.4,-3.2 0.45,-2.15 0.5,-1.65 0.6,-1 v -0.05 l 0.45,-0.4 0.65,-0.2 q 0.9,0 1.8,0.6 l 0.5,0.4 0.2,0.4 0.75,1.1 0.6,0.5 1.9,4.2 0.25,0.75 1.15,3.95 2,9.65 1.05,6.9 q -0.1,3.7 -1.7,11.9 Q 10.1,-12.6 7.8,-10.7 L 6.5,-7.95 4.05,-4.9 4.3,-5.85 4.55,-6.9 l 0.8,-3.75 0.15,-0.3 1.15,-2.7 Q 7.8,-16.55 7.8,-17.35 9.6,-27 9.6,-30.2 v -0.95 l 0.3,-3.3 -0.55,-1.45 -0.2,-1.85 H 8.85 L 8.9,-37.05 4.8,-48.1 Q 4.75,-39 3.9,-33.9 l 0.15,7.35 q 0,8.15 -1.1,13.25 -1.2,5.45 -4.7,12.7 l -0.1,0.3 m 6,0.75 L 4.75,-1.2 6.3,-3 6.65,-3.15 Q 5.95,-0.25 5.6,4.4 5.25,9.15 5.25,20.65 L 5.3,22.35 5.05,21.9 4.65,20.9 4.2,19.3 Q 3.95,17.3 3.65,12.2 L 3.35,6.1 Q 3.35,5 3.9,1.9 L 4.15,0.45 m -7.5,26.6 0.6,1.7 1.25,3.35 q 1.7,4.15 3.3,7.15 l 1.1,1.95 0.35,0.55 0.8,1.15 0.15,0.2 1.8,2.85 0.1,0.1 2.1,2.7 -1.15,-1.65 1,1.4 0.5,0.75 0.3,0.4 3.2,4.4 1.1,1.35 5.1,5.5 1.05,1.05 L 17.1,61.6 15.5,61.35 14.3,61.2 9.6,60.35 6.45,59.65 6.3,59.6 q -4.4,-3.9 -7,-13.1 l -0.35,-1.25 -0.4,-3.5 -0.7,-5.25 -0.6,-4.65 -0.35,-2.6 -0.3,-2.1 0.05,-0.1 m 0.9,-49.6 0.2,5 -0.2,0.75 0.2,-0.25 V -17 q 0,2.45 -0.95,5.85 -1.05,3.6 -3.15,8.25 l -2.55,5.6 -0.7,0.85 0.2,-0.85 0.1,-0.55 1.15,-4.2 0.6,-2.2 1.7,-6.4 0.35,-1.15 0.15,-0.65 2.5,-9.55 0.3,-0.45 0.1,-0.1 M -2,1.95 -1.95,2.65 -2.45,4.25 -2,1.95 M -13.2,24.3 h 0.05 v -0.05 l -0.05,0.05 m -4.1,0.25 -0.1,0.1 h 0.1 v -0.1"
         fill="#c6c6c6"
         fill-rule="evenodd"
         stroke="none"
         id="path54" />
      <path
         d="m 5.75,-61.4 -0.5,-0.4 q -0.9,-0.6 -1.8,-0.6 l -0.65,0.2 -0.45,0.4 v 0.05 l -0.6,1 -0.5,1.65 -0.45,2.15 -0.4,3.2 -0.1,0.8 -0.15,2.45 -0.15,6.3 v 0.45 0.3 q 0,3.95 0.25,7.8 l 0.05,1.15 0.1,1.3 0.35,8.6 q 0,11 -1.25,15 l -0.95,2.55 q -1.25,2.75 -3.5,6.3 l -0.6,0.85 -1.1,1.65 -1.95,4.05 -4.35,6.9 -1.05,1.55 -7.4,10.95 -1.2,1.9 -0.2,0.35 0.15,0.15 0.45,-0.05 2.5,-0.25 5.75,-0.3 1,0.05 1.6,0.3 q 0.45,0.1 0.95,0.35 1.05,0.45 1.85,1.3 l 0.35,0.4 q 0.85,1 1,2.05 v 0.35 q 0,0.5 -0.25,0.8 l 0.1,1.1 q 0.45,-1.25 0.65,-3.1 v -0.35 l 0.15,-2.15 0.45,-5.25 -0.2,-0.95 0.25,-1.55 q 0.15,-4.1 1.2,-9.65 l 0.05,-0.45 q 1.05,-5.7 2.35,-9.15 l 0.4,-1.1 0.1,-0.3 h 0.1 l 0.05,-0.05 q 0.15,0.05 0.15,0.5 l -0.35,1.8 -0.45,2.3 -0.2,0.8 -1.25,6.8 -0.05,0.7 2.5,-8.1 0.9,-2.75 h -0.2 l 2.15,-6.25 2.85,-9.2 V -27.3 Q 4.65,-38.85 5,-44.85 H 5.45 Q 6,-41.9 6,-40.35 L 5.85,-35 v 8.05 8.95 q 3.6,-11.3 3.05,-19.05 l -0.05,-0.7 h 0.3 l 0.2,1.85 0.25,4.75 v 0.95 q 0,3.2 -1.8,12.85 0,0.8 -1.15,3.7 l -1.15,2.7 -0.15,0.3 -0.8,3.75 -0.25,1.05 -0.25,0.95 2.45,-3.05 2.75,-3.2 q 3.95,-4.55 5.35,-7.15 l 0.6,-1.25 q -0.6,-7.35 -1.55,-14.4 l -1.05,-6.9 -2,-9.65 -1.15,-3.95 -0.25,-0.75 -1.9,-4.2 -1.55,-2 m 8.05,10.9 0.6,2.85 q 2.1,10.7 2.1,20.35 l -0.15,3.2 0.45,3.4 q 0,4.8 -5.65,11.85 L 9.25,-6.5 Q 8.45,-3.5 7.9,0.85 7.2,6 7.2,10.05 l 0.4,9.3 0.35,8.95 1.65,3.9 q 0,1.2 -1.35,2.8 l -0.3,0.45 -0.5,0.85 -0.25,0.55 q -0.3,0.75 -0.3,1.5 0,1 0.45,2.3 l 0.3,1.1 0.15,1.75 -0.05,0.1 4.8,6.5 q 3.15,3.95 8.25,9.45 l 3.05,3.5 q 1.8,0.65 1.8,1.35 0,1 -0.7,1.35 l -3.5,0.4 q -15.4,0 -24.6,-7.65 -7.95,-6.65 -8.65,-16.75 l -0.05,-1.35 -1.1,0.25 -1.75,0.15 -5,-0.6 q -0.85,-0.05 -1.1,-0.7 l -0.35,-0.9 q 0,-1.35 1.15,-1.35 l 0.65,-0.7 q 1.5,-1.55 1.5,-3.25 0,-1 -0.8,-2.65 l -0.3,-0.6 -4.45,0.3 q -1.55,0 -2.05,-1.25 l -0.15,-1.5 q 0,-3.95 8.8,-15.35 l 2.7,-3.3 1.15,-4.95 1.45,-5.95 q 2.35,-9.25 4.95,-16.05 1.35,-3.45 2.3,-8.05 l 1.15,-6.4 -0.5,-10.95 0.05,-7.1 0.15,-6.95 q 1.1,-8.65 6.25,-8.65 7.3,0 10.95,15.6 M 4.75,-1.2 4.3,-0.65 4.15,0.45 3.9,1.9 Q 3.35,5 3.35,6.1 l 0.3,6.1 q 0.3,5.1 0.55,7.1 l 0.05,0.4 0.4,1.2 0.4,1 0.25,0.5 V 22.35 L 5.25,20.65 Q 5.25,9.15 5.6,4.4 5.95,-0.25 6.65,-3.15 L 6.75,-3.5 6.3,-3 4.75,-1.2 M 0.2,9.4 q -2,6.75 -3.35,10.25 v 0.1 0.8 q 2.4,8.75 7.4,17.4 0.7,-2.45 2.5,-3.85 l -2,-3.45 Q 3,27.1 2.1,24.15 L 1.65,22.7 1.1,27.8 H 0.5 L 0.45,22.65 0.9,13.95 V 13.8 Q 0.9,8.9 1.05,6.5 L 0.2,9.4 m 6.1,50.2 0.15,0.05 3.15,0.7 4.7,0.85 1.2,0.15 1.6,0.25 2.2,0.35 -1.05,-1.05 -5.1,-5.5 -1.1,-1.35 -3.2,-4.4 -0.3,-0.4 -0.5,-0.75 -1,-1.4 L 8.2,48.75 6.1,46.05 6,45.95 4.2,43.1 4.05,42.9 3.25,41.75 2.9,41.2 1.8,39.25 q -1.6,-3 -3.3,-7.15 l -1.25,-3.35 -0.6,-1.7 -0.1,-0.35 0.05,0.45 0.3,2.1 0.35,2.6 0.6,4.65 0.7,5.25 0.4,3.5 0.6,5.7 v 0.5 l -0.3,0.2 q -0.5,-1.3 -1.9,-9.9 l -0.6,-3.55 -1.1,-7.3 q -1.8,6.45 -5.6,8.7 l 0.8,2.15 1.05,3.3 q 1.4,4.75 3,7.35 0.9,1.55 4.55,3.7 l 5.95,3.15 0.9,0.35 m -8.8,-83.1 v -0.05 l -0.05,0.15 -0.2,0.85 -0.1,0.55 -2.5,9.55 -0.15,0.65 -0.35,1.15 -1.7,6.4 -0.6,2.2 -1.15,4.2 -0.1,0.55 -0.2,0.85 0.7,-0.85 2.55,-5.6 q 2.1,-4.65 3.15,-8.25 0.95,-3.4 0.95,-5.85 v -0.05 -0.05 -0.45 l -0.2,-5 -0.05,-0.95 m -6.8,56.7 -0.15,-1.1 -0.7,-0.75 q -0.9,-1.05 -2.8,-1.4 l -2.35,-0.2 -0.9,0.1 q 1.2,1.7 1.2,3.45 -0.45,2.5 -1.15,4.15 l 1.4,0.05 1.8,-0.05 1.85,-0.35 1.45,-1.25 Q -9.3,35.4 -9.3,33.2"
         fill="#9a9a9a"
         fill-rule="evenodd"
         stroke="none"
         id="path55" />
      <path
         d="m -1.85,-0.3 0.1,-0.3 q 3.5,-7.25 4.7,-12.7 1.1,-5.1 1.1,-13.25 L 3.9,-33.9 Q 4.75,-39 4.8,-48.1 l 4.1,11.05 Q 9.45,-29.3 5.85,-18 V -26.95 -35 L 6,-40.35 q 0,-1.55 -0.55,-4.5 H 5 q -0.35,6 -0.75,17.55 v 13.55 L 1.4,-4.55 -0.75,1.7 h 0.2 l -0.9,2.75 -2.5,8.1 0.05,-0.7 1.25,-6.8 0.2,-0.8 0.5,-1.6 -0.05,-0.7 0.35,-1.8 q 0,-0.45 -0.15,-0.5 L -1.85,-0.3 M 0.2,9.4 1.05,6.5 Q 0.9,8.9 0.9,13.8 v 0.15 l -0.45,8.7 0.05,5.15 h 0.6 l 0.55,-5.1 0.45,1.45 q 0.9,2.95 2.65,6.5 l 2,3.45 q -1.8,1.4 -2.5,3.85 -5,-8.65 -7.4,-17.4 v -0.8 -0.1 Q -1.8,16.15 0.2,9.4 m -1.25,35.85 0.35,1.25 q 2.6,9.2 7,13.1 L 5.4,59.25 -0.55,56.1 q -3.65,-2.15 -4.55,-3.7 -1.6,-2.6 -3,-7.35 l -1.05,-3.3 -0.8,-2.15 q 3.8,-2.25 5.6,-8.7 l 1.1,7.3 0.6,3.55 q 1.4,8.6 1.9,9.9 l 0.3,-0.2 v -0.5 l -0.6,-5.7 m -1.45,-68.75 0.05,0.95 -0.1,0.1 -0.3,0.45 0.1,-0.55 0.2,-0.85 0.05,-0.1 m 0.25,5.95 v 0.45 0.05 l -0.2,0.25 0.2,-0.75 M -9.3,33.2 q 0,2.2 -0.35,2.65 l -1.45,1.25 -1.85,0.35 -1.8,0.05 -1.4,-0.05 q 0.7,-1.65 1.15,-4.15 0,-1.75 -1.2,-3.45 l 0.9,-0.1 2.35,0.2 q 1.9,0.35 2.8,1.4 l 0.7,0.75 0.15,1.1"
         fill="#bbbbbb"
         fill-rule="evenodd"
         stroke="none"
         id="path56" />
      <path
         d="m 6.5,-7.95 1.3,-2.75 q 2.3,-1.9 4.15,-11.35 1.6,-8.2 1.7,-11.9 0.95,7.05 1.55,14.4 l -0.6,1.25 q -1.4,2.6 -5.35,7.15 l -2.75,3.2"
         fill="#c0c0c0"
         fill-rule="evenodd"
         stroke="none"
         id="path57" />
    </g>
    <g
       id="sprite9"
       transform="translate(17.7,27.25)">
      <use
         ffdec:characterId="1036"
         height="54.450001"
         transform="translate(-17.7,-27.25)"
         width="35.450001"
         xlink:href="#shape9"
         id="use57" />
    </g>
    <g
       id="shape9"
       transform="translate(17.7,27.25)">
      <path
         d="m -15.1,-23.25 -0.1,-1 q 0,-0.9 0.65,-2 l -0.1,-0.15 0.15,-0.45 0.4,-0.05 0.45,-0.05 0.15,-0.05 0.25,-0.05 1.45,-0.15 1.95,-0.05 2.15,0.05 q 3.2,0.25 6.25,1.2 l 5.15,2.2 q 3.4,1.8 5.5,4.05 2.05,2.15 2.05,3.75 l -0.15,0.6 0.1,1.05 q 0,0.7 -3.25,3.15 l -0.15,0.1 q 4.15,1.45 7.1,5.45 l 1.2,1.25 q 1.55,1.8 1.6,3.65 l 0.05,0.1 L 17.7,-0.7 16.1,2.15 15.35,3.3 13.25,6.5 12.45,7.75 11.4,8.5 11.35,8.65 V 8.55 L 8.75,9.05 5.7,8.6 3.2,8.25 l 1.85,2.05 3.7,4.9 q 2.05,2.8 2.9,5 0.8,2.15 0.8,4.75 l -0.1,0.85 -0.1,0.3 q -0.1,0.55 -0.75,1.1 L 9.85,24.35 8.9,22.6 7.7,21.15 Q 6.2,19.5 4.2,18.35 -0.9,15.3 -3.1,12.9 -5.55,11 -5.55,9.85 -5.75,8.9 -5,7.95 l 0.05,-0.1 V 7.6 q 0,-1.9 2.6,-4.1 L -2.1,3.3 -1.15,2.6 -1.4,2.1 -1.75,1.3 q -4.15,-1 -6.1,-2.05 -1.45,-0.8 -2,-1.9 -0.45,-0.8 -0.45,-1.7 0,-1.1 0.45,-1.8 l 0.25,-0.4 1.35,-1.3 1.25,-1.4 0.6,-1.15 -2.35,-1.1 -1.1,-0.35 -5.25,-0.85 q -2.35,-0.2 -2.35,-1.25 l -0.25,-0.7 0.9,-3.2 1.35,-4.15 0.35,-1.25 m 24.05,7.8 q -0.7,-1.35 -2,-2.65 -1.95,-2 -5.35,-3.85 l -3.05,-1.45 q -2.4,-1 -5.05,-1.7 l -2.95,-0.2 H -9.6 -9.85 l -1.3,-0.15 -0.75,-0.05 -0.15,0.2 -0.85,0.85 -0.2,0.3 -1.15,4.85 -0.5,3.45 -0.05,0.25 -0.1,0.3 1.2,0.1 3.85,0.75 2.5,1 1.75,1.1 q 1.6,0.7 2.55,1.45 l 0.55,0.5 0.25,0.15 0.8,0.75 q 1.55,1.6 1.8,3.2 1.15,-2.75 3.25,-4.9 L 5.7,-13 q 0.95,-0.75 2,-1.35 l 1.45,-0.75 -0.2,-0.35 M 14.4,0 l 0.1,-0.1 0.95,-1.6 q 0,-0.45 -0.6,-1.2 L 13.35,-4.45 12.1,-5.55 11.6,-5.9 10.75,-6.6 8.2,-8.5 6.3,-10 4.4,-8.6 3.7,-7.35 3.15,-6.25 3,-5.9 2.9,-5.75 h 0.2 0.4 l 0.65,0.05 1.8,0.25 3.15,0.9 1.4,0.8 q 0,0.3 -0.7,0.3 L 9.1,-3.6 7.8,-3.9 7.3,-4 6.3,-4.2 5.3,-4.35 H 3.35 2.7 L 2.05,-4.3 1.8,-3.9 1.6,-3.65 q -0.1,0.45 -1,1 h -2.1 l -4,-0.65 -2.6,-0.45 q 0.4,1.3 3.15,2.15 L 1.95,0 Q 7.5,1.25 10,3.3 L 11.4,4.95 11.45,4.9 12.15,3.3 12.5,2.75 12.85,2.3 13.35,1.5 14.05,0.55 14.2,0.3 14.4,0 M -5.55,-7.85 -6.2,-7 -7.7,-5 -7.65,-5.05 -5,-5.2 q 2.4,0 3.05,0.45 l 0.25,0.15 0.7,-0.3 -0.5,-0.85 -1,-1.7 -0.4,-0.4 -0.8,-0.9 -0.95,-0.6 -0.9,1.5 M 0.2,3.6 -1.4,4.8 -2.2,5.75 -2.35,6.45 -1.1,6.2 0.7,6.1 5.6,6.6 8.7,7.15 q 0.55,0 1.4,-0.6 L 8.75,5.1 6.2,3.3 Q 4.6,2.5 2.8,2.2 L 1.8,2 1.55,2.6 0.6,3.3 0.2,3.6 m 2.7,11.65 2.95,2.4 0.55,0.45 0.7,0.55 2.15,1.95 0.5,0.55 L 9.9,21.3 9.8,21 Q 9,18.55 8.25,17.25 V 17.2 Q 7.65,16.15 4.25,12.6 1.85,10.05 1.7,8.1 H 0.8 0.45 -0.1 l -1.05,0.15 -1.6,0.4 -0.35,0.25 -0.05,1 q 0,1 1.75,2.55 l 3.1,1.95 1.2,0.85"
         fill="#9a9a9a"
         fill-rule="evenodd"
         stroke="none"
         id="path58" />
      <path
         d="m 8.95,-15.45 0.2,0.35 -1.45,0.75 1.25,-1.1"
         fill="#bbbbbb"
         fill-rule="evenodd"
         stroke="none"
         id="path59" />
      <path
         d="m -14.8,-15.6 0.05,-0.25 0.5,-3.45 1.15,-4.85 0.2,-0.3 0.85,-0.85 0.15,-0.2 0.75,0.05 1.3,0.15 h 0.25 0.15 l 2.95,0.2 q 2.65,0.7 5.05,1.7 l 3.05,1.45 q 3.4,1.85 5.35,3.85 1.3,1.3 2,2.65 l -1.25,1.1 q -1.05,0.6 -2,1.35 l -2.1,1.8 q -1.85,1.15 -2.8,1.15 l -2.25,-0.25 -1.6,-0.6 Q -4,-11.65 -5.6,-12.35 l -1.75,-1.1 -2.5,-1 -3.85,-0.75 -0.85,-0.25 -0.25,-0.15 M 3,-5.9 3.15,-6.25 3.7,-7.35 4.4,-8.6 6.3,-10 l 1.9,1.5 2.55,1.9 0.85,0.7 0.5,0.35 1.25,1.1 1.5,1.55 q 0.6,0.75 0.6,1.2 L 14.5,-0.1 14.4,0 14.2,0.15 V 0.3 L 14.05,0.55 13.35,1.5 12.85,2.3 12.5,2.75 6.15,-1.75 5,-2.35 4.05,-2.5 Q 2.45,-2.75 2.45,-3.55 V -3.6 L 1.8,-3.9 2.05,-4.3 2.7,-4.35 H 3.35 5.3 l 1,0.15 1,0.2 0.5,0.1 1.3,0.3 0.7,0.15 q 0.7,0 0.7,-0.3 L 9.1,-4.55 5.95,-5.45 4.15,-5.7 3.5,-5.75 H 3.1 L 3,-5.9 M -1.1,6.2 -2.35,6.45 -2.2,5.75 -1.4,4.8 0.2,3.6 -0.5,5.05 -1.1,6.2 M -1.15,8.25 -0.1,8.1 H 0.45 0.8 1.7 q 0.15,1.95 2.55,4.5 3.4,3.55 4,4.6 v 0.05 Q 9,18.55 9.8,21 L 9.9,21.3 9.75,21.15 9.25,20.6 7.1,18.65 6.4,18.1 5.85,17.65 2.9,15.25 2.3,14.55 2.2,14.65 0.3,13.2 q -1.05,-1.1 -1.05,-1.7 v -0.3 q -0.5,-0.9 -0.5,-1.9 l 0.1,-1.05"
         fill="#bfc6c6"
         fill-rule="evenodd"
         stroke="none"
         id="path60" />
      <path
         d="M 3.6,-11.2 Q 1.5,-9.05 0.35,-6.3 0.1,-7.9 -1.45,-9.5 l -0.8,-0.75 -0.25,-0.15 -0.55,-0.5 1.6,0.6 2.25,0.25 q 0.95,0 2.8,-1.15 m -1.8,7.3 0.65,0.3 v 0.05 q 0,0.8 1.6,1.05 L 5,-2.35 6.15,-1.75 12.5,2.75 12.15,3.3 11.45,4.9 11.4,4.95 10,3.3 Q 7.5,1.25 1.95,0 l -6.9,-1.6 Q -7.7,-2.45 -8.1,-3.75 l 2.6,0.45 4,0.65 h 2.1 q 0.9,-0.55 1,-1 L 1.8,-3.9 m -7.35,-3.95 0.9,-1.5 0.95,0.6 0.8,0.9 0.4,0.4 1,1.7 0.5,0.85 -0.7,0.3 -0.25,-0.15 Q -2.6,-5.2 -5,-5.2 L -7.65,-5.05 -7.7,-5 -6.2,-7 -5.55,-7.85 M 0.2,3.6 0.6,3.3 1.55,2.6 1.8,2 2.8,2.2 Q 4.6,2.5 6.2,3.3 L 8.75,5.1 10.1,6.55 Q 9.25,7.15 8.7,7.15 L 5.6,6.6 0.7,6.1 -1.1,6.2 -0.5,5.05 0.2,3.6 m -1.35,4.65 -0.1,1.05 q 0,1 0.5,1.9 v 0.3 q 0,0.6 1.05,1.7 l 1.9,1.45 0.1,-0.1 0.6,0.7 L 1.7,14.4 -1.4,12.45 Q -3.15,10.9 -3.15,9.9 l 0.05,-1 0.35,-0.25 1.6,-0.4"
         fill="#b6bcbc"
         fill-rule="evenodd"
         stroke="none"
         id="path61" />
    </g>
    <g
       id="sprite10"
       transform="translate(8,31.95)">
      <use
         ffdec:characterId="1004"
         height="65.25"
         transform="translate(-8,-31.95)"
         width="16.049999"
         xlink:href="#shape10"
         id="use61" />
    </g>
    <g
       id="shape10"
       transform="translate(8,31.95)">
      <path
         d="m 6.8,-31.6 q 1.3,4.05 1.25,20.35 0,10.3 -0.4,24 L 7.7,23.5 q -0.15,6.65 -0.75,9 L 6.75,33.15 -8,33.3 -7.95,28.05 -8,21.8 v -0.9 q 0.6,-6.5 3,-13.1 3.25,-8.8 3.25,-22.5 l 0.3,-12.1 -0.65,-0.7 0.4,-0.1 0.3,-0.25 v -0.05 l 0.35,-3.55 -0.05,-0.05 -0.1,-0.45 h 8.05 l 0.05,0.1 -0.1,0.25 m -6.1,2.55 0.1,0.6 v 0.1 h 4.45 l 0.5,0.35 v -0.2 L 5.9,-29.85 5.55,-29.7 H 0.6 l 0.1,0.65 m 3.4,2.4 H 2.9 0.85 l 0.1,4.4 0.45,13.05 1,-0.4 0.8,-0.05 0.8,0.15 0.1,0.05 h 0.05 l 0.55,0.3 0.4,0.3 v -1.3 -0.2 L 5.7,-26.9 5.25,-26.65 H 4.1 M 1.5,-6.25 V -5.7 L 1.35,-3.95 V -3.9 Q 1.8,-3 2.55,-3 H 2.7 Q 4.35,-3.05 4.8,-4.1 L 4.95,-5.25 Q 4.95,-7 3.55,-7.3 l -0.5,-0.1 h -0.1 q -1,0 -1.5,0.45 l 0.05,0.7 M 1.85,-1.3 1.75,-1.35 Q 1.3,-1.55 0.9,-1.9 l -0.3,1 q -0.9,3.25 -0.9,4.85 0,1.1 -1.95,6.3 L -3.7,14.4 h 4.95 2.8 l 0.2,0.05 0.45,0.1 V 12.7 L 4.9,-1.25 3.8,-1 H 3.4 L 2.55,-1.1 q -0.4,-0.05 -0.7,-0.2 m -1.2,32.5 h 2.1 l 2.5,0.2 Q 4.85,28.75 4.7,23.1 V 18.2 L 1.3,18.45 0.95,18.5 -0.4,18.55 -2.2,18.7 h -0.55 l -1,0.05 H -4.8 V 31.2 h 2.9 2.55 m -0.4,-14 4.45,0.1 v -1.7 l -0.65,0.15 h -8.1 l -0.15,0.9 v 0.4 l 2.85,0.1 1.6,0.05"
         fill="#6b6b6b"
         fill-rule="evenodd"
         stroke="none"
         id="path62" />
      <path
         d="M 0.7,-29.05 0.6,-29.7 h 4.95 l 0.35,-0.15 -0.15,1.65 v 0.2 l -0.5,-0.35 H 0.8 v -0.1 l -0.1,-0.6 m 3.45,19.6 Q 4.8,-9.85 4.8,-11.2 L 4.65,-13.5 V -25.15 L 4.3,-26.3 4.1,-26.65 H 5.25 L 5.7,-26.9 5.1,-10.35 v 0.2 l -0.4,1 -0.55,-0.3 M 2.9,-26.65 2.7,-26.4 2.55,-26.1 2.15,-25.35 2,-11.2 v 1 l 0.4,0.6 -1,0.4 -0.45,-13.05 -0.1,-4.4 H 2.9 m -1.4,20.4 -0.05,-0.7 q 0.5,-0.45 1.5,-0.45 h 0.1 l 0.5,0.1 q 1.4,0.3 1.4,2.05 L 4.8,-4.1 Q 4.35,-3.05 2.7,-3 H 2.55 Q 1.8,-3 1.35,-3.9 V -3.95 L 1.5,-5.7 V -6.25 M 1.85,-1.3 1.8,-1.05 Q 0.9,2.2 0.9,12.7 l 0.05,1.1 0.3,0.6 H -3.7 l 1.45,-4.15 q 1.95,-5.2 1.95,-6.3 0,-1.6 0.9,-4.85 l 0.3,-1 q 0.4,0.35 0.85,0.55 l 0.1,0.05 m 2.4,15.75 q 0.4,-0.6 0.4,-1.7 Q 4.65,2.3 3.8,-1 L 4.9,-1.25 4.7,12.7 v 1.85 L 4.25,14.45 M 0.95,18.5 1.3,18.45 4.7,18.2 v 4.9 q 0.15,5.65 0.55,8.3 L 2.75,31.2 H 0.65 Q 1.4,30.75 1.7,29.6 l 0.1,-2.1 q 0,-6.45 -0.85,-9 M -1.9,31.2 H -4.8 V 18.75 h 1.05 l 1,-0.05 h 0.55 q -0.5,1.6 -0.65,4.6 l -0.15,4.2 0.05,2.1 q 0.25,1.15 1.05,1.6 m 2.15,-14 -0.1,-0.1 q -0.35,-0.3 -0.75,-0.3 -0.4,0 -0.75,0.35 l -2.85,-0.1 v -0.4 l 0.15,-0.9 h 8.1 L 4.7,15.6 v 1.7 L 0.25,17.2"
         fill="#c2c2c2"
         fill-rule="evenodd"
         stroke="none"
         id="path63" />
      <path
         d="m 4.1,-26.65 0.2,0.35 0.35,1.15 v 11.65 l 0.15,2.3 q 0,1.35 -0.65,1.75 H 4.1 L 4,-9.5 3.2,-9.65 2.4,-9.6 2,-10.2 v -1 l 0.15,-14.15 0.4,-0.75 0.15,-0.3 0.2,-0.25 H 4.1 M 1.25,14.4 0.95,13.8 0.9,12.7 Q 0.9,2.2 1.8,-1.05 L 1.85,-1.3 q 0.3,0.15 0.7,0.2 L 3.4,-1 h 0.4 q 0.85,3.3 0.85,13.75 0,1.1 -0.4,1.7 L 4.05,14.4 h -2.8 m -0.3,4.1 q 0.85,2.55 0.85,9 L 1.7,29.6 Q 1.4,30.75 0.65,31.2 H -1.9 Q -2.7,30.75 -2.95,29.6 L -3,27.5 -2.85,23.3 q 0.15,-3 0.65,-4.6 l 1.8,-0.15 1.35,-0.05 m -2.3,-1.35 Q -1,16.8 -0.6,16.8 q 0.4,0 0.75,0.3 l 0.1,0.1 -1.6,-0.05"
         fill="#e0e0e0"
         fill-rule="evenodd"
         stroke="none"
         id="path64" />
    </g>
    <g
       id="sprite11"
       transform="translate(33.45,3.05)">
      <use
         ffdec:characterId="1000"
         height="5.8000002"
         transform="translate(-33.45,-3.05)"
         width="65.199997"
         xlink:href="#shape11"
         id="use64" />
    </g>
    <g
       id="shape11"
       transform="translate(33.45,3.05)">
      <path
         d="m 13.2,-0.95 0.05,-0.15 h 1.4 l 0.15,0.05 -0.05,0.1 H 13.2 m 1.35,1.2 -0.05,0.6 H 12.85 L 13,0.4 V 0.25 h 1.55 m -3.3,-1.2 h -13.2 -11 V -1.1 l 11,0.05 13.2,-0.05 v 0.15 m -24.1,1.2 h 24 l 0.05,0.6 h -24.1 l 0.05,-0.6 m 29.15,-1.2 v -0.1 L 16.55,-1.1 H 24.2 L 29,-1.25 V -0.9 L 16.3,-0.95 M 29,0.15 v 1.1 l -9.85,-0.4 h -2.8 v -0.6 l 12.5,-0.1 H 29 M -30.7,-0.9 v -0.35 l 4.8,0.15 h 7.65 l 0.25,0.05 v 0.1 l -12.7,0.05 m 12.65,1.15 v 0.6 h -2.8 l -9.85,0.4 v -1.1 h 0.15 l 12.5,0.1 m 1.6,-1.2 -0.05,-0.1 0.15,-0.05 h 1.4 l 0.05,0.15 h -1.55 m 1.75,1.2 V 0.4 l 0.15,0.45 h -1.65 l -0.05,-0.6 h 1.55"
         fill="#c2c2c2"
         fill-rule="evenodd"
         stroke="none"
         id="path65" />
      <path
         d="m 14.75,-0.95 0.05,-0.1 -0.15,-0.05 h -1.4 L 13.2,-0.95 13,0.25 V 0.4 l -0.15,0.45 h 1.65 l 0.05,-0.6 0.2,-1.2 m -3.6,1.2 v -0.3 l 0.1,-0.9 V -1.1 l -13.2,0.05 -11,-0.05 v 0.15 l 0.1,0.9 v 0.3 l -0.05,0.6 H 11.2 L 11.15,0.25 M 29,-0.9 v -0.35 l -4.8,0.15 h -7.65 l -0.25,0.05 v 0.1 l 0.05,1.2 v 0.6 h 2.8 L 29,1.25 v -1.1 -0.5 -0.55 m 2.75,0.55 v 2 l -0.2,1.1 H -33.2 l -0.25,-1.1 v -2 q 0,-1.8 0.4,-2.7 H 31.4 q 0.35,0.9 0.35,2.7 M -30.7,-0.9 v 0.55 0.5 1.1 l 9.85,-0.4 h 2.8 v -0.6 l 0.05,-1.2 v -0.1 l -0.25,-0.05 h -7.65 l -4.8,-0.15 v 0.35 m 15.8,-0.05 -0.05,-0.15 h -1.4 l -0.15,0.05 0.05,0.1 0.2,1.2 0.05,0.6 h 1.65 L -14.7,0.4 V 0.25 l -0.2,-1.2"
         fill="#6b6b6b"
         fill-rule="evenodd"
         stroke="none"
         id="path66" />
      <path
         d="m 14.75,-0.95 -0.2,1.2 H 13 l 0.2,-1.2 h 1.55 m -3.5,0 -0.1,0.9 v 0.3 h -24 v -0.3 l -0.1,-0.9 h 11 13.2 M 29,-0.9 v 0.55 0.5 H 28.85 L 16.35,0.25 16.3,-0.95 29,-0.9 m -59.7,1.05 v -0.5 -0.55 l 12.7,-0.05 -0.05,1.2 -12.5,-0.1 h -0.15 m 14.25,-1.1 h 1.55 l 0.2,1.2 h -1.55 l -0.2,-1.2"
         fill="#e0e0e0"
         fill-rule="evenodd"
         stroke="none"
         id="path67" />
    </g>
    <g
       id="sprite12"
       transform="translate(31.35,12.7)">
      <use
         ffdec:characterId="1006"
         height="25.450001"
         transform="translate(-31.35,-12.7)"
         width="62.700001"
         xlink:href="#shape12"
         id="use67" />
    </g>
    <g
       id="shape12"
       transform="translate(31.35,12.7)">
      <path
         d="M -0.75,-7.15 -0.85,-8.2 -1,-8.95 H 1 L 0.95,-8.2 v 0.25 0.8 h -1.7 m 3.4,0 L 2.55,-8.2 2.4,-8.95 8.75,-9 l 19,0.05 0.45,0.15 h 0.3 v 0.1 0.05 0.95 0.05 0.9 h -0.1 q -0.55,0 -0.8,-0.5 l -0.05,-0.1 -24.9,0.2 m -21.85,2.85 0.2,1.35 q 0,2 -0.2,2.5 -0.6,1.5 -3,1.5 -2.45,0 -3.7,-2.3 -0.8,-1.45 -0.8,-2.6 l 0.15,-0.95 q 0.5,-1.65 2.95,-1.75 1.95,0.05 3.25,1.05 l 0.95,0.9 0.2,0.3 M -27.85,-7 -27.9,-8.95 h 17.1 l -0.25,0.5 -0.55,1.35 -7.35,0.05 -1.35,-0.6 Q -23.15,-8.6 -26.4,-7 h -1.45 m 25.9,-0.15 h -1.2 Q -3,-6.8 -3,-6.3 q 0,1.95 -3.05,2.1 h -0.4 q -2.05,0 -2.85,-1.15 -0.4,-0.6 -0.4,-1.3 l 0.05,-0.45 h -0.85 l 1.2,-1.85 h 7.6 l -0.1,0.8 -0.1,0.5 -0.05,0.5 M -12.7,3.15 h -0.35 -0.15 L -14.25,2 V 1.95 q -0.4,-0.5 -0.4,-1.05 0,-2.45 2.25,-1.55 l 0.1,0.05 q 1.15,0.45 1.7,1 v 0.45 q 0,0.75 -0.45,1.4 -0.55,0.8 -1.65,0.9"
         fill="#e0e0e0"
         fill-rule="evenodd"
         stroke="none"
         id="path68" />
      <path
         d="M 0.95,-7.15 V -7.95 -8.2 L 1,-8.95 h -2 l 0.15,0.75 0.1,1.05 v 0.9 1.65 L 1.35,-5.1 1,-6.15 l -0.05,-1 m 26.8,-1.8 -19,-0.05 -6.35,0.05 0.15,0.75 0.1,1.05 0.05,1.6 v 0.15 l 6.75,-1.05 h 19.1 L 28.5,-6.75 V -7.65 -7.7 -8.65 -8.7 -8.8 -8.95 h -0.75 m 1.55,-3.75 h 2.05 v 7.45 q -0.25,0.2 -0.6,0.3 -1.95,1.9 -6.1,1.25 H 12.6 Q 1.45,-2.9 -2,-0.75 q -1.6,0.95 -2.2,3.8 -0.35,1.5 -2.55,4.1 -2.7,3.2 -4.95,3.2 -4.4,0 -5.95,-0.75 -1.45,-0.7 -2.3,-0.75 l -0.2,0.05 -1.95,1.75 q -1.7,1.8 -3.55,1.8 h -0.65 l -2.05,0.3 -0.65,-0.05 -0.4,0.05 q -1.15,0 -1.5,-0.8 l -0.15,-0.9 0.15,-2.65 V -9.35 q -0.45,-0.45 -0.45,-1.3 0,-1.35 1.65,-1.75 h 58.8 l 0.2,-0.3 m -52.9,6.15 h -0.2 l -2.75,0.5 -1.3,0.35 0.1,15.8 0.4,-0.1 q 1.9,-0.3 3.5,-1.9 l 1.5,-1.7 0.35,-0.25 q 0.2,-1.95 1.85,-3.45 1.85,-1.75 1.85,-4.35 0,-1.4 -0.9,-2.65 l -0.2,-0.3 -0.95,-0.9 q -1.3,-1 -3.25,-1.05 m 12,-0.55 0.55,-1.35 0.25,-0.5 h -17.1 l 0.05,1.95 v 0.85 L -26.4,-7 q 3.25,-1.6 6.1,-0.65 l 1.35,0.6 0.35,0.2 q 2.3,1.6 2.3,5.15 0,2.3 -1.05,3.95 -0.85,1.35 -1.5,3.2 1.65,0.15 2.7,0.7 l 1.6,0.75 q 5.55,0 7.05,-3.15 0.65,-3.6 1.05,-4.5 h -0.1 L -8,-0.85 -9.25,-1.15 q 1,1.05 1,2.3 V 1.6 q -0.05,1.45 -0.45,2.15 -0.95,1.5 -3.75,1.5 -2.5,0 -3.45,-1.3 l -0.45,-1.4 q 0,-5.3 4.05,-5.05 l 1.15,0.25 -0.15,-0.2 q -0.85,-0.95 -0.85,-1.85 0,-1.3 0.55,-2.8 m 1.1,0 -0.25,1.25 q 0,1.35 0.5,1.85 1.1,1.05 5.15,1.45 l 2,-1.25 0.3,-0.15 0.8,-0.25 -0.1,-0.75 0.15,-2.2 0.05,-0.5 0.1,-0.5 0.1,-0.8 h -7.6 l -1.2,1.85 m -0.1,7.5 q -0.55,-0.55 -1.7,-1 l -0.1,-0.05 q -2.25,-0.9 -2.25,1.55 0,0.55 0.4,1.05 V 2 l 1.05,1.15 h 0.15 0.35 l 1.8,-0.1 q 0.75,-0.9 0.75,-1.7 0,-0.5 -0.45,-0.95"
         fill="#6b6b6b"
         fill-rule="evenodd"
         stroke="none"
         id="path69" />
      <path
         d="m -0.75,-7.15 h 1.7 l 0.05,1 0.35,1.05 -2.1,0.5 v -1.65 -0.9 m 3.4,0 24.9,-0.2 0.05,0.1 q 0.25,0.5 0.8,0.5 h 0.1 l 0.05,0.3 H 9.45 L 2.7,-5.4 V -5.55 L 2.65,-7.15 M -19.2,-4.3 q 0.9,1.25 0.9,2.65 0,2.6 -1.85,4.35 -1.65,1.5 -1.85,3.45 l -0.35,0.25 -1.5,1.7 q -1.6,1.6 -3.5,1.9 l -0.4,0.1 -0.1,-15.8 1.3,-0.35 2.75,-0.5 h 0.2 q -2.45,0.1 -2.95,1.75 l -0.15,0.95 q 0,1.15 0.8,2.6 1.25,2.3 3.7,2.3 2.4,0 3,-1.5 0.2,-0.5 0.2,-2.5 l -0.2,-1.35 m 7.6,-2.8 q -0.55,1.5 -0.55,2.8 0,0.9 0.85,1.85 l 0.15,0.2 -1.15,-0.25 q -4.05,-0.25 -4.05,5.05 l 0.45,1.4 q 0.95,1.3 3.45,1.3 2.8,0 3.75,-1.5 0.4,-0.7 0.45,-2.15 V 1.15 q 0,-1.25 -1,-2.3 l 1.25,0.3 1.45,0.1 h 0.1 Q -6.85,0.15 -7.5,3.75 -9,6.9 -14.55,6.9 l -1.6,-0.75 q -1.05,-0.55 -2.7,-0.7 0.65,-1.85 1.5,-3.2 1.05,-1.65 1.05,-3.95 0,-3.55 -2.3,-5.15 l -0.35,-0.2 7.35,-0.05 m -14.8,0.1 -1.45,0.85 V -7 h 1.45 m 24.45,-0.15 -0.15,2.2 0.1,0.75 -0.8,0.25 -0.3,0.15 -2,1.25 q -4.05,-0.4 -5.15,-1.45 -0.5,-0.5 -0.5,-1.85 l 0.25,-1.25 h 0.85 l -0.05,0.45 q 0,0.7 0.4,1.3 0.8,1.15 2.85,1.15 h 0.4 Q -3,-4.35 -3,-6.3 -3,-6.8 -3.15,-7.15 h 1.2 M -12.7,3.15 q 1.1,-0.1 1.65,-0.9 0.45,-0.65 0.45,-1.4 V 0.4 q 0.45,0.45 0.45,0.95 0,0.8 -0.75,1.7 l -1.8,0.1"
         fill="#c2c2c2"
         fill-rule="evenodd"
         stroke="none"
         id="path70" />
    </g>
    <g
       id="sprite13"
       transform="translate(8.4,47.75)">
      <use
         ffdec:characterId="988"
         height="95.550003"
         transform="translate(-8.4,-47.75)"
         width="16.799999"
         xlink:href="#shape13"
         id="use70" />
    </g>
    <g
       id="shape13"
       transform="translate(8.4,47.75)">
      <path
         d="m 0.35,-45.3 0.4,1.85 0.1,3.65 v 14.7 l 0.2,1.35 0.05,0.4 H 1.05 l -2.25,-0.1 0.15,-1.75 v -14.6 l 0.3,-5.5 h 0.7 0.4 m -1.65,23.5 2.2,-0.1 h 0.3 l 0.05,1.05 h -0.5 l -2.1,-0.05 0.05,-0.9 m -0.15,2.9 2.2,-0.05 0.6,-0.05 v 0.65 0.4 q 2.4,0.8 2.7,3 v 0.5 0.5 q -0.15,1 -0.8,1.75 -0.75,0.85 -1.9,1.1 v 1.85 H 1.3 L 0.75,-9.3 H 0.2 -0.6 -1.55 v -1.85 L -3,-12 l -0.65,-1.1 -0.3,-2.25 q 0,-2.75 2.5,-2.95 v -0.6 M 1.3,12.3 H -1.45 V 11.95 L -1.5,0 V -0.45 -2.3 -2.65 l -0.05,-4.6 h 0.4 l 0.3,-0.05 1.2,-0.05 h 0.4 L 1.2,-7.4 H 1.35 L 1.3,12.3 m 0,6.45 H 0.55 L -0.2,18.7 -1.35,18.75 -1.45,18.5 V 17.85 L -2,17.75 -2.6,17.25 -2.75,17.15 -2.8,17.1 -3.3,16.65 -3.6,15.45 q 0.45,-0.2 0.85,-0.75 l 0.45,-0.8 h 3.6 v 0.05 q 1.05,0.4 1.05,1.3 0,0.5 -1.05,1.25 v 2.25 M 1.25,25.8 V 26 26.35 L 1.2,29.1 1.25,30.8 v 1.25 2.75 L 1.2,42.45 H 0.25 -1.4 V 40.8 40.7 l 0.1,-2.3 0.05,-5.5 0.05,-3.8 v -0.5 l -0.1,-3.95 -0.15,-2.2 V 22.3 20.5 H 1.3 L 1.25,25.8 M 0.8,44.95 -0.1,44.9 h -1.05 l -0.25,-0.65 0.05,-0.2 H 1.1 l -0.3,0.9"
         fill="#e0e0e0"
         fill-rule="evenodd"
         stroke="none"
         id="path71" />
      <path
         d="M 0.35,-45.3 3,-45.45 q -0.35,2.1 -0.35,6.55 l 0.05,9.7 0.05,0.8 q 0.1,2.8 0.35,5.15 l -2,-0.1 -0.05,-0.4 -0.2,-1.35 v -14.7 l -0.1,-3.65 -0.4,-1.85 m -1.55,21.85 -1.85,-0.1 q 0.25,-2.55 0.35,-5.65 l 0.05,-9.7 q 0,-4.3 -0.3,-6.4 h 2.2 l -0.3,5.5 v 14.6 l -0.15,1.75 m -0.1,1.65 -0.05,0.9 h -1.2 -0.3 l -0.5,-0.6 0.05,-0.3 h 1 1 m 2.55,0.95 -0.05,-1.05 2.05,-0.1 0.1,0.5 -0.6,0.7 -1.5,-0.05 m -2.7,1.95 v 0.6 q -2.5,0.2 -2.5,2.95 l 0.3,2.25 0.65,1.1 1.45,0.85 v 1.85 l -1.8,0.05 -0.3,-0.25 q -1.45,-1.15 -1.45,-3.3 0,-2.4 1.45,-4.65 l 0.9,-1.45 h 0.3 1 m 2.8,9.65 v -1.85 q 1.15,-0.25 1.9,-1.1 0.65,-0.75 0.8,-1.75 v -0.5 -0.5 q -0.3,-2.2 -2.7,-3 v -0.4 -0.65 l 1.25,-0.15 1.05,1.7 0.4,0.65 q 1.05,1.95 1.05,4 0,1.85 -1.05,2.95 l -0.4,0.35 -0.3,0.3 -2,-0.05 m 0,1.85 0.5,-0.1 0.45,-0.05 -0.2,0.6 Q 1.8,-6 1.65,-4.7 l -0.1,3.2 0.1,5.15 v 5.8 l 0.2,2.85 H 1.3 L 1.35,-7.4 M -1.6,12.3 h -0.25 l 0.2,-2.85 V 3.65 L -1.6,2.2 -1.5,0 -1.45,11.95 -1.6,12.3 m 0.1,-14.95 -0.15,-2.05 -0.5,-2.55 h 0.6 l 0.05,4.6 M 1.3,13.9 h 1 l 0.45,0.8 q 0.55,0.7 1.1,0.8 L 3.4,16.6 2.6,17.25 2.15,17.65 Q 1.5,18.2 1.4,18.75 H 1.3 V 16.5 q 1.05,-0.75 1.05,-1.25 0,-0.9 -1.05,-1.3 V 13.9 m -2.75,4.6 -0.55,-0.75 0.55,0.1 V 18.5 M -3.3,16.65 q -0.55,-0.6 -0.55,-1.15 l 0.25,-0.05 0.3,1.2 m 4.6,3.85 h 0.15 l 0.2,-0.1 -0.2,2.05 -0.2,3.35 0.05,-5.3 M 1.25,34.8 1.3,38.35 v 0.05 l 0.25,4.05 H 1.2 L 1.25,34.8 m -2.65,7.65 h -0.1 l 0.05,-0.7 v -0.4 L -1.4,40.8 v 1.65 M -1.45,22.3 -1.6,20.7 -1.65,20.5 h 0.2 v 1.8 M 1.85,45 1.8,45.1 0.8,44.95 1.1,44.05 H 1.7 L 1.85,45 m -3,-0.1 -0.65,0.05 0.1,-0.75 v -0.15 h 0.35 l -0.05,0.2 0.25,0.65"
         fill="#c2c2c2"
         fill-rule="evenodd"
         stroke="none"
         id="path72" />
      <path
         d="m 1.1,-23.35 2,0.1 Q 2.85,-25.6 2.75,-28.4 L 2.7,-29.2 2.65,-38.9 q 0,-4.45 0.35,-6.55 l -2.65,0.15 h -0.4 -0.7 -2.2 q 0.3,2.1 0.3,6.4 l -0.05,9.7 q -0.1,3.1 -0.35,5.65 l 1.85,0.1 2.25,0.1 H 1.1 m 4.85,-20.5 0.05,3.2 v 18.7 l 1.5,3.35 q 0.9,1.8 0.9,3.35 0,5.7 -1.75,8.05 Q 4.9,-4.85 4.9,3.25 v 6.2 q 0,2.35 1.15,3.35 1.1,1.05 1.1,2.45 0,1.15 -0.8,2.9 Q 5.5,20 4.2,20.5 q 0.35,1.4 0.5,3.6 l 0.05,5.05 v 9.5 q -0.3,9 -1.75,9 H 2.85 L 0.2,47.8 -2.7,47.55 -3,47.65 -3.55,47.25 -3.75,47.1 -3.95,46.35 V 46.3 L -4.4,43.75 -4.65,43.45 Q -4.9,42.85 -4.6,42.7 h 0.1 l -0.25,-4.05 v -9.5 L -4.7,24.1 q 0.15,-2.2 0.5,-3.6 -1.3,-0.5 -2.15,-2.35 -0.8,-1.75 -0.8,-2.9 0,-1.4 1.1,-2.45 1.15,-1 1.15,-3.35 v -6.2 q 0,-8.1 -1.75,-10.45 -1.75,-2.35 -1.75,-8.05 0,-1.55 0.9,-3.35 l 1.5,-3.35 v -0.15 l -0.5,-0.85 0.5,-0.2 v -17.5 l 0.05,-3.2 q 0.1,-1.65 0.9,-2.5 L -5.1,-46.6 q 0,-0.7 0.45,-0.9 l 2.7,-0.25 6.4,0.4 q 0.45,0.1 0.45,0.8 0.95,0.85 1.05,2.7 M 1.2,-21.9 H 0.9 l -2.2,0.1 h -1 -1 l -0.05,0.3 0.5,0.6 h 0.3 1.2 l 2.1,0.05 h 0.5 l 1.5,0.05 0.6,-0.7 -0.1,-0.5 -2.05,0.1 m 0.15,2.9 -0.6,0.05 -2.2,0.05 h -1 -0.3 l -0.9,1.45 q -1.45,2.25 -1.45,4.65 0,2.15 1.45,3.3 l 0.3,0.25 1.8,-0.05 h 0.95 0.8 0.55 l 0.55,0.05 h 0.05 l 2,0.05 0.3,-0.3 0.4,-0.35 q 1.05,-1.1 1.05,-2.95 0,-2.05 -1.05,-4 L 3.65,-17.45 2.6,-19.15 1.35,-19 M 1.3,12.3 H 1.85 L 1.65,9.45 V 3.65 L 1.55,-1.5 1.65,-4.7 Q 1.8,-6 2.1,-6.95 l 0.2,-0.6 -0.45,0.05 -0.5,0.1 H 1.2 l -0.45,0.05 h -0.4 l -1.2,0.05 -0.3,0.05 h -0.4 -0.6 l 0.5,2.55 0.15,2.05 V -2.3 -0.45 0 l -0.1,2.2 -0.05,1.45 v 5.8 l -0.2,2.85 h 0.25 0.15 2.75 m 0,6.45 H 1.4 Q 1.5,18.2 2.15,17.65 L 2.6,17.25 3.4,16.6 3.85,15.5 Q 3.3,15.4 2.75,14.7 L 2.3,13.9 h -1 -3.6 l -0.45,0.8 q -0.4,0.55 -0.85,0.75 l -0.25,0.05 q 0,0.55 0.55,1.15 l 0.5,0.45 0.05,0.05 0.15,0.1 0.6,0.5 0.55,0.75 0.1,0.25 1.15,-0.05 0.75,0.05 H 1.3 m -0.05,7.05 0.2,-3.35 0.2,-2.05 -0.2,0.1 H 1.3 -1.45 -1.65 l 0.05,0.2 0.15,1.6 v 0.15 l 0.15,2.2 0.1,3.95 v 0.5 l -0.05,3.8 -0.05,5.5 -0.1,2.3 v 0.1 l -0.05,0.55 v 0.4 l -0.05,0.7 H -1.4 0.25 1.2 1.55 L 1.3,38.4 V 38.35 L 1.25,34.8 V 32.05 30.8 L 1.2,29.1 1.25,26.35 V 26 25.8 M 1.8,45.1 H 1.85 V 45 L 1.7,44.05 H 1.1 -1.35 -1.7 v 0.15 l -0.1,0.75 0.65,-0.05 h 1.05 l 0.9,0.05 1,0.15"
         fill="#6b6b6b"
         fill-rule="evenodd"
         stroke="none"
         id="path73" />
    </g>
    <g
       id="sprite14"
       transform="translate(8.05,7.7)">
      <use
         ffdec:characterId="1010"
         height="15.45"
         transform="translate(-8.05,-7.7)"
         width="16.1"
         xlink:href="#shape14"
         id="use73" />
    </g>
    <g
       id="shape14"
       transform="translate(8.05,7.7)">
      <path
         d="m -3.8,-2.6 q -0.45,0.85 -0.45,2.2 0,0.7 0.75,1.7 1.05,1.45 3,1.45 1.65,0 2.85,-1.75 1,-1.45 1,-2.55 0,-1.25 -0.65,-1.85 -0.95,-0.9 -3.4,-0.9 h -0.1 l 1.1,-0.2 q 2.1,-0.25 3.65,0.7 1.65,1.05 1.65,3.15 l -0.7,3.1 q -1.4,2.9 -4.65,2.9 -1.2,0 -3.2,-1.55 -2.1,-1.6 -2.1,-2.7 0,-2.35 1.25,-3.7"
         fill="#c2c2c2"
         fill-rule="evenodd"
         stroke="none"
         id="path74" />
      <path
         d="m 8.05,-0.75 q 0,2.6 -1,4.75 Q 5.25,7.75 0.9,7.75 -4.9,7.75 -7,4.85 -8.05,3.4 -8.05,1.4 q 0,-4.6 2.5,-7.05 2.2,-2.1 5.55,-2.05 3.2,0.05 5.55,1.9 2.5,2.05 2.5,5.05 M -3.8,-2.6 q -1.25,1.35 -1.25,3.7 0,1.1 2.1,2.7 2,1.55 3.2,1.55 3.25,0 4.65,-2.9 l 0.7,-3.1 Q 5.6,-2.75 3.95,-3.8 2.4,-4.75 0.3,-4.5 l -1.1,0.2 q -1.95,0.5 -3,1.7"
         fill="#6b6b6b"
         fill-rule="evenodd"
         stroke="none"
         id="path75" />
      <path
         d="m -0.8,-4.3 h 0.1 q 2.45,0 3.4,0.9 0.65,0.6 0.65,1.85 0,1.1 -1,2.55 -1.2,1.75 -2.85,1.75 -1.95,0 -3,-1.45 -0.75,-1 -0.75,-1.7 0,-1.35 0.45,-2.2 1.05,-1.2 3,-1.7"
         fill="#e0e0e0"
         fill-rule="evenodd"
         stroke="none"
         id="path76" />
    </g>
    <g
       id="sprite15"
       transform="translate(40.85,52.95)">
      <use
         ffdec:characterId="1034"
         height="105.9"
         transform="translate(-40.85,-52.95)"
         width="81.699997"
         xlink:href="#shape15"
         id="use76" />
    </g>
    <g
       id="shape15"
       transform="translate(40.85,52.95)">
      <path
         d="m 2.45,-41.55 5.1,-0.55 2.05,-1.3 2.1,-1.3 1.25,-1.1 q 3.6,-3 6.65,-4.8 9.85,-5.75 10.95,2.55 0.35,2.65 -0.1,8.1 -0.3,3.15 -0.25,5.85 -0.65,1.8 -1,3.45 l -0.4,5.95 0.05,0.25 q 0,3.4 0.35,5.9 1.2,9.35 2.1,12.6 l 2.35,7.4 0.25,0.6 3.5,5.85 q 0.25,1.9 -0.45,2.3 l -0.5,0.2 0.05,0.3 -0.2,-0.2 -5.05,0.9 0.55,0.8 0.9,1.65 q 2.75,4.1 3.25,8.25 0.3,2.05 0.2,2.75 -0.25,2.1 -2.4,2.35 l -3.1,0.45 -0.8,0.25 -1.25,0.1 q -0.15,0.4 -0.25,0 l -3.8,0.55 q -3.2,1.3 -5.1,3.3 L 18.25,33.2 17,35 16.15,36.25 15.85,37.9 15.6,38.05 Q 14.3,37.8 13.75,36.5 L 13.4,34.8 q -0.45,-3.6 2.15,-8.25 2.25,-4 5.95,-6.2 L 13.2,21 11.7,20.7 11.55,20.8 q -0.8,0.1 -1.05,-0.45 l -0.05,-0.7 0.05,-0.4 -0.15,-0.6 V 18.6 L 10.15,18.2 10,17.3 9.7,16.3 9.65,16.15 8.3,16.35 Q 4.35,16.9 2.75,13.2 L 2,9.5 1.95,8.9 Q 0.4,10.3 -1.1,10.5 h -1.05 l 0.5,1.2 q 1,4.7 1.65,9.4 0.3,2.2 -0.15,3.8 -0.8,2.9 -3.75,3.45 1.1,1.95 1.3,3.5 0.25,1.75 0.1,3.4 -0.2,2 -0.95,2.75 -0.25,1.35 -1.1,2.45 -0.85,1.1 -3.55,3.05 -3.55,2.5 -5.55,5.3 l -0.95,1.6 -0.1,0.15 q 0,1.25 -0.45,2.15 l -0.35,-0.2 -0.15,0.35 -0.3,0.1 L -16.3,52.3 -16.75,51.5 -16.8,51.2 -17,50 q -0.8,-6.2 -0.15,-9.7 0.85,-4.3 3.65,-7.15 l -5.3,-1.85 -4.05,-1.6 q -0.5,-0.05 -0.9,-0.45 l -0.4,-0.65 v -0.3 l -0.15,-0.55 -0.35,-1.7 -0.1,-4.95 0.4,-2.25 q -2.9,-0.35 -5.15,-1.6 -2.05,-1.2 -2.7,-2.25 -1.05,-0.75 -1.6,-1.9 -0.6,-1.15 -1.05,-4.5 L -35,7.3 -38,3.15 q -2.75,-4.05 -2.85,-4.95 -0.3,-2.2 3.5,-13.9 l 4.1,-12.8 1.55,-14 -0.65,-3.6 q -0.2,-1.7 0.75,-2.8 1.25,-1.45 3.65,0.05 1.25,0.5 2.55,2.1 l 0.95,0.65 0.1,-0.3 2.35,1.8 0.1,-0.3 0.3,0.5 q 2.15,1.15 5.35,1.9 6.55,1.65 16.05,1.15 l 2.65,-0.2 m 24.25,22.65 -0.05,-2.95 -0.15,-3.6 q 0.05,-3.7 0.8,-8.75 -0.05,-2.3 0.2,-6.15 l 0.2,-6.95 -0.6,-1.95 q -0.75,-1.15 -1.95,-1 l -2,0.95 -0.75,0.45 -1.5,1.15 -3.3,2.35 -5.25,3.75 -4.7,3.05 -1.4,0.75 q -3.6,2.2 -6.75,3.6 -4.9,2.2 -8.4,2.7 -4.8,0.6 -9.3,-4.5 l -0.2,-0.15 -1.2,-1.75 -0.05,-0.1 -1.75,-2.55 -0.4,-0.25 -0.15,-0.15 L -22,-41 q -1.7,-0.8 -2.35,-1.85 l -2.3,-1.85 -0.1,-0.05 -0.2,-0.2 -1.8,-1.55 -0.45,-0.45 -0.1,0.1 0.05,0.45 0.1,0.8 0.05,0.25 0.1,1.45 -0.1,2.25 -0.2,2.25 -1.15,11.5 q 0.15,1.35 -3,12.15 -4.7,11.75 -4.6,12.4 0.1,0.85 1.55,2.6 l 0.9,1 0.6,0.7 0.2,-1.3 0.55,-1.95 2.95,-9.05 1.2,-3.5 -0.75,1.8 -0.2,0.05 2.8,-10.8 0.05,-0.15 0.05,-2.8 q 0,-2.95 1,-4.05 l 0.25,-0.2 q 0.05,-1.95 -0.15,-3.45 l 0.55,0.7 0.45,1.25 0.1,0.45 0.45,2.3 q 0.15,0.8 -0.25,2.45 0.3,3.15 -0.75,7.25 l -2.7,8.45 -0.1,0.25 -1.4,5.45 q -2.05,9.3 -0.9,17.85 l 0.5,1.1 1.9,1.95 q 2.2,1.6 6.25,1.6 h 0.1 l 0.8,-0.05 2.5,-0.25 q 2.15,-0.3 3.6,-0.95 l 0.7,-0.25 q 0.85,-3 0.4,-6.7 -1.2,-6.15 -1.15,-9.3 l -0.25,-0.75 -0.05,-1.9 -0.8,-6.75 -0.3,-3.85 -2.05,-4.8 -2.75,-7.1 -0.15,-0.45 -0.85,-2.55 q -0.05,-0.25 0.3,-0.5 l 0.35,0.45 q 2.9,3.65 5.3,8.75 l 2.05,4.55 2.05,5.2 q 2.7,7.15 5.35,11.85 l 1,1.75 0.15,0.1 v 0.1 q 3,4.95 5.15,4.7 4.5,-0.6 10.3,-18.05 4.05,-12.2 7.1,-20 2.8,-7.2 4.7,-10.6 l 0.5,0.05 0.4,0.6 q 0.05,0.7 -3.35,10.3 l -1.7,5.1 v 0.1 l -0.05,0.05 -3.3,9.85 q -2.4,8.25 -5.25,14.55 -2,4.2 -3.8,6.75 L 4.1,7.2 q 0.35,0.95 0.4,3.3 0.3,2.15 2.15,3.3 l 2.7,-0.65 Q 8.8,4.65 11.1,-6.2 q 1.85,-8.9 5.1,-17.5 l 2.05,-5 q -1.2,4.6 -2.55,12.1 l -2.2,12.25 -0.15,0.6 Q 12.8,-0.05 12.5,7.7 v 0.4 l -0.05,1.35 v 0.4 l -0.2,2.25 -0.1,1.4 0.3,0.6 q 0.05,0.4 -0.3,0.8 l 0.15,0.95 0.05,0.1 0.05,0.05 0.6,-0.35 0.85,-0.5 Q 14,15 14.15,14.95 l 2.45,-2.25 0.35,-0.45 0.9,-0.5 0.4,-0.15 3.8,-1.2 Q 24.4,9.45 26.8,9 L 30.85,8.65 33.65,8.2 Q 32.05,6.55 29.95,0.1 28,-5.8 27.55,-9.35 26.85,-14.6 26.7,-18.9 M 5.15,-8.75 4.8,-8.6 q -2,1.05 -6.4,1.6 -3.1,0.4 -5.55,-2.3 l -0.95,-1.2 -0.3,-0.7 q -2.65,-2.15 -6.55,-7.9 l -2.3,-3.7 -3.45,-6.35 -0.3,-0.5 -2.55,-4.75 -1.05,-1.9 0.05,-0.45 v -0.05 l -0.05,-0.6 0.45,-0.05 1.95,1.95 0.75,0.85 q 3.2,3.65 6.6,8.9 l 5.55,8.25 3.4,4.35 q 5.95,-4.5 12.25,-14.9 4.5,-7.5 10.45,-11.75 l 2.75,-1.8 -2.75,4.15 -0.2,0.2 -0.7,0.85 -2.2,2.8 -4.15,5.75 -1.2,2.25 q -0.75,1.75 -2.45,4.25 l -2.4,3.4 -0.75,0.95 q -3.9,4.85 -6.5,6.35 l -0.6,0.3 Q -1,-8.65 3,-9.2 3.45,-9.25 3.95,-9.55 L 4.9,-10 q 0.75,-0.1 1.1,0.45 l -0.85,0.8 M -4,-36.2 q 2.55,-1.1 5.85,-2.85 l 0.55,-0.25 1.15,-0.6 0.5,-0.3 -0.35,0.05 -0.75,0.1 -13.85,1 q -2.1,0.4 -5,0 l -0.15,0.65 -0.45,0.25 0.05,0.05 1.2,1.05 0.2,0.15 q 3.25,2.75 5.45,2.45 2.1,-0.25 5.6,-1.75 m 44.6,23.95 0.2,0.15 0.05,0.25 -0.3,-0.25 0.05,-0.15 m -10.7,30 q 1.05,0.1 1.85,0.55 l 1,0.85 Q 32.05,17 30.8,14.85 l -1.85,-3 -2.85,0.6 q -3.1,0.75 -4.5,1.35 -1.35,0.7 -5.85,3.9 l -1,0.75 h 0.45 l 7.5,0.2 3.6,-0.55 h 0.45 l 0.5,-0.05 2.65,-0.3 m -1.45,2.4 -1.2,-0.5 -2.45,0.3 -3.15,2.65 q -3.75,3.5 -4.75,6.6 l -0.5,2.85 0.85,-1.1 q 2.2,-2.55 4.5,-3.85 1.3,-0.7 2.7,-1.05 l 5.4,-0.8 q 0.8,-1.2 0.65,-2.25 -0.2,-1.45 -1.55,-2.5 l -0.5,-0.35 m -42.35,5.2 3.75,0.15 5.9,0.2 q 1.9,-0.25 1.7,-6.15 L -3.2,13.6 -3.7,11.7 -4.3,9.8 Q -7,8.25 -9.8,3.45 -11.95,-0.2 -14.35,-6.65 l -0.3,1.45 V -5 l 0.2,1.35 q 2.6,15.15 3.05,18.45 0.1,0.95 -0.6,1.65 l -1,0.6 -0.5,0.3 -1.25,0.6 -0.05,0.05 -0.75,0.2 -2.4,0.55 -0.3,0.05 -0.6,0.05 -1.8,0.15 -0.9,0.05 -0.15,2.25 -0.25,1.7 -0.05,1.05 -0.15,1.5 v 0.05 l -0.1,1 q 1.4,-0.6 3.4,-0.95 l 0.85,-0.15 0.9,-0.05 0.4,-0.05 0.15,-0.05 h 0.05 2.6 m 7.8,2.85 -4.7,-0.05 -3.05,-0.1 -2.15,-0.1 -2.9,0.5 4.95,1.35 2.4,0.9 q 2.25,-0.1 4.75,2.65 L -5.4,35 -5.25,34.4 Q -4.7,33.45 -4.85,32.2 -5.05,31 -5.8,29.15 L -6.1,28.2 m -3.4,6.5 -0.45,-0.5 -1.85,-0.6 -1,1.25 q -2.45,3.7 -2.6,7.9 l 0.4,3.75 2.25,-1.75 0.5,-0.35 Q -8.3,41.6 -6.2,38.45 L -9.5,34.7"
         fill="#6b6b6b"
         fill-rule="evenodd"
         stroke="none"
         id="path77" />
      <path
         d="M 19.45,31.85 Q 17.95,34.75 17,35 l 1.25,-1.8 1.2,-1.35 m -33.1,16.95 -0.1,1.3 -0.75,0.25 -0.1,0.05 0.95,-1.6 m 13.45,-90.15 1.4,-0.25 1.25,0.05 -2.65,0.2"
         fill="#e0e0e0"
         fill-rule="evenodd"
         stroke="none"
         id="path78" />
      <path
         d="m -28.75,-46.5 1.8,1.55 0.2,0.2 0.1,0.05 2.3,1.85 q 0.65,1.05 2.35,1.85 l 0.05,0.05 0.15,0.15 0.4,0.25 1.75,2.55 0.05,0.1 1.2,1.75 0.2,0.15 q 4.5,5.1 9.3,4.5 3.5,-0.5 8.4,-2.7 3.15,-1.4 6.75,-3.6 l 1.4,-0.75 4.7,-3.05 5.25,-3.75 3.3,-2.35 1.5,-1.15 0.75,-0.45 2,-0.95 q 1.2,-0.15 1.95,1 l 0.6,1.95 -0.2,6.95 q -0.25,3.85 -0.2,6.15 -0.75,5.05 -0.8,8.75 l 0.15,3.6 0.05,2.95 -0.2,3.8 q -0.25,11.45 0.3,15.7 0.15,1.3 0.95,3.9 0.6,2.45 -0.3,3.7 L 26.8,9 q -2.4,0.45 -4.75,1.4 l -3.8,1.2 -0.4,0.15 -0.9,0.5 -0.35,0.45 -2.45,2.25 Q 14,15 13.85,15.15 L 13,15.65 12.4,16 12.35,15.95 12.3,15.85 12.15,14.9 q 0.35,-0.4 0.3,-0.8 l -0.3,-0.6 0.1,-1.4 0.2,-0.15 v -2.1 -0.4 l 0.05,-1.35 0.45,-6.9 0.4,-4.95 0.15,-0.6 2.2,-12.25 q 1.35,-7.5 2.55,-12.1 l -2.05,5 0.2,-0.85 0.05,-0.05 v -0.1 l 1.7,-5.1 q 3.4,-9.6 3.35,-10.3 l -0.4,-0.6 -0.5,-0.05 q -1.9,3.4 -4.7,10.6 l -0.1,-0.2 -0.1,-1.15 q -2,4 -4.5,7.95 -7.85,12.55 -13.4,13.25 -1,0.15 -1.55,-0.35 2.6,-1.5 6.5,-6.35 l 0.75,-0.95 2.4,-3.4 q 1.7,-2.5 2.45,-4.25 l 1.2,-2.25 4.15,-5.75 2.2,-2.8 0.7,-0.85 0.2,-0.2 2.75,-4.15 -2.75,1.8 0.1,-0.45 0.25,-0.6 -4.8,3.75 -4.75,3.5 -5.2,7.1 q -7.1,9.2 -9.3,9.45 -1.1,0.15 -2.4,-0.45 l -5.55,-8.25 q -3.4,-5.25 -6.6,-8.9 l -0.75,-0.85 -1.95,-1.95 -0.45,0.05 0.05,0.6 v 0.05 l -0.05,0.45 1.05,1.9 2.55,4.75 0.3,0.5 3.45,6.35 2.3,3.7 q 3.9,5.75 6.55,7.9 l 0.3,0.7 0.95,1.2 Q -4.7,-6.6 -1.6,-7 2.8,-7.55 4.8,-8.6 L 5.15,-8.75 5.55,-8.7 6.9,-8.4 5.35,-5.8 5.3,-5.75 Q 5,-4.55 3.9,-2.9 1.8,0.55 -2.1,1.05 -4.75,1.4 -7.5,-2.6 l -2.9,-5.45 -0.05,-0.1 q -2,-2.6 -3.5,-5.95 l -0.35,-0.4 -0.9,-1.3 -2.05,-4.55 q -2.4,-5.1 -5.3,-8.75 l -0.35,-0.45 q -0.35,0.25 -0.3,0.5 l 0.85,2.55 0.15,0.45 q 0.3,5.35 0.4,20.75 l 2.05,12.7 q 0.45,7.3 -3.1,9.2 h -0.1 Q -27,16.6 -29.2,15 l -1.9,-1.95 -0.5,-1.1 Q -32.75,3.4 -30.7,-5.9 l 1.4,-5.45 0.1,-0.25 2.7,-8.45 q 1.05,-4.1 0.75,-7.25 0.4,-1.65 0.25,-2.45 l -0.45,-2.3 -0.1,-0.45 -0.45,-1.25 -0.55,-0.7 q 0.2,1.5 0.15,3.45 l -0.25,0.2 q -1,1.1 -1,4.05 l -0.05,2.8 -0.05,0.15 -2.8,10.8 0.2,-0.05 0.75,-1.8 -1.2,3.5 -2.95,9.05 -0.55,1.95 -0.2,1.3 -0.6,-0.7 -0.9,-1 q -1.45,-1.75 -1.55,-2.6 -0.1,-0.65 4.6,-12.4 3.15,-10.8 3,-12.15 l 1.15,-11.5 0.2,-2.25 0.1,-2.25 -0.1,-1.45 -0.05,-0.25 -0.1,-0.8 0.5,-0.1 m 13.7,9.6 -0.2,-0.15 -1.2,-1.05 -0.05,-0.05 0.45,-0.25 0.15,-0.65 q 2.9,0.4 5,0 l 13.85,-1 0.75,-0.1 0.35,-0.05 -0.5,0.3 -1.15,0.6 -0.55,0.25 q -3.3,1.75 -5.85,2.85 l -10,-0.45 -1.05,-0.25 M 29.9,17.75 26.15,12.9 26.1,12.45 l 2.85,-0.6 1.85,3 q 1.25,2.15 1.95,4.3 l -1,-0.85 q -0.8,-0.45 -1.85,-0.55 m -8.15,9.35 q -2.3,1.3 -4.5,3.85 l -0.85,1.1 0.5,-2.85 q 1,-3.1 4.75,-6.6 l 3.15,-2.65 2.45,-0.3 1.2,0.5 -2.9,2.85 q -2.75,2.55 -3.8,4.1 M 17.15,8.05 17.1,7.65 17.05,8.4 17.1,8.55 17.4,8.7 17.15,8.05 m -30.15,9 q 0.65,0.4 0.9,2.1 0.15,1.15 -0.2,2.6 -0.3,2.05 -1.25,2.3 -0.05,0.8 -0.35,1.3 h -2.6 -0.05 l -0.15,0.05 -0.4,0.05 -0.9,0.05 -0.85,0.15 q -2,0.35 -3.4,0.95 l 0.1,-1 v -0.05 l 0.15,-1.5 0.05,-1.05 0.25,-1.7 0.15,-2.25 0.9,-0.05 1.8,-0.15 0.6,-0.05 0.3,-0.05 2.4,-0.55 0.75,-0.2 0.05,-0.05 1.25,-0.6 0.5,-0.3 m 0.25,27.7 -2.25,1.75 -0.4,-3.75 q 0.15,-4.2 2.6,-7.9 l 1,-1.25 1.85,0.6 0.45,0.5 -1.9,5.6 -1.35,4.45"
         fill="#cde0e0"
         fill-rule="evenodd"
         stroke="none"
         id="path79" />
      <path
         d="m -22.85,16.6 q 3.55,-1.9 3.1,-9.2 L -21.8,-5.3 q -0.1,-15.4 -0.4,-20.75 l 2.75,7.1 2.05,4.8 0.3,3.85 0.8,6.75 0.05,1.9 0.25,0.75 q -0.05,3.15 1.15,9.3 0.45,3.7 -0.4,6.7 l -0.7,0.25 q -1.45,0.65 -3.6,0.95 l -2.5,0.25 -0.8,0.05 m 7.65,-32.4 0.9,1.3 0.35,0.4 q 1.5,3.35 3.5,5.95 l 0.05,0.1 2.9,5.45 q 2.75,4 5.4,3.65 3.9,-0.5 6,-3.95 Q 5,-4.55 5.3,-5.75 L 5.35,-5.8 6.9,-8.4 5.55,-8.7 5.15,-8.75 6,-9.55 Q 5.65,-10.1 4.9,-10 l -0.95,0.45 q -0.5,0.3 -0.95,0.35 -4,0.55 -7.35,-1.15 l 0.6,-0.3 q 0.55,0.5 1.55,0.35 5.55,-0.7 13.4,-13.25 2.5,-3.95 4.5,-7.95 l 0.1,1.15 0.1,0.2 q -3.05,7.8 -7.1,20 Q 3,7.3 -1.5,7.9 -3.65,8.15 -6.65,3.2 V 3.1 L -6.8,3 -7.8,1.25 q -2.65,-4.7 -5.35,-11.85 l -2.05,-5.2 m 5.9,-1.7 q 1.3,0.6 2.4,0.45 2.2,-0.25 9.3,-9.45 l 5.2,-7.1 4.75,-3.5 4.8,-3.75 -0.25,0.6 -0.1,0.45 q -5.95,4.25 -10.45,11.75 -6.3,10.4 -12.25,14.9 l -3.4,-4.35 m 25.7,-7.05 -0.2,0.85 Q 12.95,-15.1 11.1,-6.2 8.8,4.65 9.35,13.15 L 6.65,13.8 Q 4.8,12.65 4.5,10.5 4.45,8.15 4.1,7.2 L 4.05,6.6 q 1.8,-2.55 3.8,-6.75 2.85,-6.3 5.25,-14.55 l 3.3,-9.85 M 26.8,9 27.45,8.2 q 0.9,-1.25 0.3,-3.7 -0.8,-2.6 -0.95,-3.9 -0.55,-4.25 -0.3,-15.7 l 0.2,-3.8 q 0.15,4.3 0.85,9.55 0.45,3.55 2.4,9.45 2.1,6.45 3.7,8.1 L 30.85,8.65 26.8,9 m -41.85,-45.9 1.05,0.25 10,0.45 q -3.5,1.5 -5.6,1.75 -2.2,0.3 -5.45,-2.45 m 41.15,49.35 0.05,0.45 3.75,4.85 -2.65,0.3 -0.5,0.05 H 26.3 l -3.6,0.55 -7.5,-0.2 h -0.45 l 1,-0.75 q 4.5,-3.2 5.85,-3.9 1.4,-0.6 4.5,-1.35 m 2.35,7.7 0.5,0.35 q 1.35,1.05 1.55,2.5 0.15,1.05 -0.65,2.25 l -5.4,0.8 q -1.4,0.35 -2.7,1.05 1.05,-1.55 3.8,-4.1 l 2.9,-2.85 m -41.45,-3.1 1,-0.6 q 0.7,-0.7 0.6,-1.65 -0.45,-3.3 -3.05,-18.45 L -14.65,-5 v -0.2 l 0.3,-1.45 q 2.4,6.45 4.55,10.1 2.8,4.8 5.5,6.35 l 0.6,1.9 0.5,1.9 0.65,5.95 q 0.2,5.9 -1.7,6.15 l -5.9,-0.2 -3.75,-0.15 q 0.3,-0.5 0.35,-1.3 0.95,-0.25 1.25,-2.3 0.35,-1.45 0.2,-2.6 -0.25,-1.7 -0.9,-2.1 m 6.9,11.15 0.3,0.95 q 0.75,1.85 0.95,3.05 0.15,1.25 -0.4,2.2 L -5.4,35 -6.8,33.35 Q -9.3,30.6 -11.55,30.7 l -2.4,-0.9 -4.95,-1.35 2.9,-0.5 2.15,0.1 3.05,0.1 4.7,0.05 m -6.65,16.55 1.35,-4.45 1.9,-5.6 3.3,3.75 q -2.1,3.15 -6.05,5.95 l -0.5,0.35"
         fill="#b4c4c4"
         fill-rule="evenodd"
         stroke="none"
         id="path80" />
    </g>
    <g
       id="sprite16"
       transform="translate(5.4,4)">
      <use
         ffdec:characterId="43"
         height="8"
         transform="translate(-5.4,-4)"
         width="10.8"
         xlink:href="#shape16"
         id="use80" />
    </g>
    <g
       id="shape16"
       transform="translate(5.4,4)">
      <path
         d="m 2.9,-0.35 q 0,-1.25 1.25,-1.25 1.25,0 1.25,1.2 0,1.3 -1.25,1.3 Q 3.6,0.9 3.25,0.5 2.9,0.15 2.9,-0.35 m 0.35,-2.3 q 0,0.55 -0.35,0.9 -0.4,0.45 -1,0.45 -1.35,0 -1.35,-1.4 0,-1.3 1.35,-1.3 1.35,0 1.35,1.35 m -3.1,1.9 h 0.2 q 2.6,0.1 2.6,2.8 l -0.3,1 Q 2.05,4 0.45,4 H 0.35 0.15 0.1 -0.45 q -1.6,0 -2.2,-0.95 l -0.3,-1 q 0,-2.8 2.8,-2.8 h 0.3 M -1.55,-4 q 1.35,0 1.35,1.35 0,0.55 -0.4,0.9 -0.4,0.45 -0.95,0.45 -1.4,0 -1.4,-1.4 0,-1.3 1.4,-1.3 m -2.6,2.4 q 1.25,0 1.25,1.25 0,0.5 -0.35,0.85 -0.35,0.4 -0.9,0.4 -1.25,0 -1.25,-1.3 0,-1.2 1.25,-1.2"
         fill="#6b6b6b"
         fill-rule="evenodd"
         stroke="none"
         id="path81" />
    </g>
  </defs>
</svg>
