<?xml version="1.0" encoding="UTF-8" standalone="no"?>
<svg
   ffdec:objectType="frame"
   height="17"
   width="49.650002"
   version="1.1"
   id="svg6"
   sodipodi:docname="1.svg"
   xmlns:inkscape="http://www.inkscape.org/namespaces/inkscape"
   xmlns:sodipodi="http://sodipodi.sourceforge.net/DTD/sodipodi-0.dtd"
   xmlns:xlink="http://www.w3.org/1999/xlink"
   xmlns="http://www.w3.org/2000/svg"
   xmlns:svg="http://www.w3.org/2000/svg"
   xmlns:ffdec="https://www.free-decompiler.com/flash">
  <sodipodi:namedview
     id="namedview6"
     pagecolor="#ffffff"
     bordercolor="#000000"
     borderopacity="0.25"
     inkscape:showpageshadow="2"
     inkscape:pageopacity="0.0"
     inkscape:pagecheckerboard="0"
     inkscape:deskcolor="#d1d1d1"
     fit-margin-top="5"
     fit-margin-left="5"
     fit-margin-right="5"
     fit-margin-bottom="5" />
  <g
     transform="translate(24.95,8.5)"
     id="g2">
    <use
       ffdec:characterId="2083"
       height="17"
       transform="translate(-24.95,-8.5)"
       width="49.650002"
       xlink:href="#shape0"
       id="use1" />
    <use
       ffdec:characterId="2085"
       height="1.8"
       transform="translate(-18.5,-2.65)"
       width="6.9000001"
       xlink:href="#sprite0"
       id="use2" />
  </g>
  <defs
     id="defs6">
    <g
       id="shape0"
       transform="translate(24.95,8.5)">
      <path
         d="M 8.45,-0.7 9.2,-0.9 9.25,-1.7 H 9.6 l 0.7,-0.05 q 0.05,0.75 0.5,1.15 l 0.35,-0.1 0.05,-0.55 -0.25,-2.6 h 0.85 q -0.15,0.2 -0.15,0.55 0,0.55 0.15,0.75 0.5,0.45 2.25,0.55 l -0.15,0.3 -1.85,0.5 -0.15,0.2 0.15,0.3 1.65,0.05 q 1.1,-0.7 1.1,-1.3 L 14.75,-2.75 13,-3 l -0.6,-0.25 0.2,-0.2 0.55,-0.05 0.9,0.1 h 0.5 L 14.5,-3.5 13.95,-3.85 19.05,-4 h 0.2 l 0.05,1.85 q 0.05,1.15 0.25,1.9 H 0.65 l -2.1,0.15 -0.1,-3.65 12,-0.1 -0.15,0.1 0.05,0.9 -1.15,-0.2 H 9.15 L 8.95,-3.6 q -0.5,0.2 -0.55,1.25 v 0.3 l 0.05,1.35 m -4.4,-3.05 q 0,0.6 0.7,1.8 0.7,1.2 1.05,1.2 L 6.3,-0.9 6.4,-1.2 V -1.25 L 7.35,-2.3 Q 8.1,-3.15 8.15,-3.5 7.25,-3.75 6.4,-2.9 L 5.85,-2.1 5.45,-2.7 Q 4.8,-3.75 4.05,-3.75 M 20.8,-4 h 1.65 l 0.2,-0.05 0.05,8.65 0.1,0.25 q -2.6,-0.3 -8.6,-0.1 l -34.05,-0.1 h -2.85 l -0.05,-3.8 v -3.75 -1 l 0.45,0.05 q 0.5,0 0.85,-0.35 l 0.75,0.1 -0.1,0.1 -0.3,0.3 h -0.15 l -0.1,3.2 0.05,1.55 q 0.15,1 0.7,1.6 l 0.3,-0.05 0.2,0.15 h 10.15 l 0.5,-0.15 0.5,0.15 q 0.65,0 0.8,-0.6 V -1.1 q -0.1,-2 -0.3,-2.9 h 5.65 q -0.5,0.6 -0.4,1.85 0.05,1.2 0.45,2.45 L -2.4,0.75 -2.35,0.8 -2.1,1.1 -1.7,1 0.65,1.15 h 19.1 L 20.45,0.7 V 0.65 L 20.5,0.45 20.8,-4 M 5.6,1.6 Q 3.15,1.65 3.15,2.65 3.15,3.1 3.3,3.2 3.8,3.6 5.55,3.6 L 7.55,3.35 8,2.65 Q 8,1.6 5.6,1.6 M 0.4,3.9 Q 1.9,3.9 1.9,3 1.9,1.95 -0.4,2 -2.7,2.05 -2.7,2.9 l 0.2,0.6 2.9,0.4 m 10.75,-0.05 2,-0.2 Q 13.55,3.5 13.55,3 L 13.5,2.45 13.4,2.25 Q 8.7,1.7 8.7,2.9 l 0.2,0.6 2.25,0.35 M 19.2,3.55 20.15,2.9 Q 17.3,1.8 15.7,1.9 14.25,2 14.25,3 l 0.9,0.85 2.3,0.05 1.75,-0.35 M -15.45,0.75 V 1.1 h -4.45 l 0.05,-0.75 0.25,0.15 4.15,-0.05 v 0.3 M -9.8,0.4 V 1.2 L -9.95,1.05 -14.6,1.1 V 0.45 L -9.8,0.4"
         fill="#797979"
         fill-rule="evenodd"
         stroke="none"
         id="path2" />
      <path
         d="m 4.05,-3.75 q 0.75,0 1.4,1.05 l 0.4,0.6 0.55,-0.8 Q 7.25,-3.75 8.15,-3.5 8.1,-3.15 7.35,-2.3 L 6.4,-1.25 v 0.05 l -0.1,0.3 -0.5,0.15 q -0.35,0 -1.05,-1.2 -0.7,-1.2 -0.7,-1.8 M 8.45,-0.7 8.4,-2.05 v -0.3 Q 8.45,-3.4 8.95,-3.6 l 0.2,0.55 H 9.2 l 1.15,0.2 -0.05,-0.9 0.15,-0.1 -12,0.1 0.1,3.65 2.1,-0.15 h 18.9 Q 19.35,-1 19.3,-2.15 L 19.25,-4 h -0.2 l -5.1,0.15 0.55,0.35 0.05,0.1 h -0.5 l -0.9,-0.1 -0.55,0.05 -0.2,0.2 0.6,0.25 1.75,0.25 0.05,0.8 q 0,0.6 -1.1,1.3 L 12.05,-0.7 11.9,-1 12.05,-1.2 13.9,-1.7 14.05,-2 q -1.75,-0.1 -2.25,-0.55 -0.15,-0.2 -0.15,-0.75 0,-0.35 0.15,-0.55 h -0.85 l 0.25,2.6 -0.05,0.55 -0.35,0.1 Q 10.35,-1 10.3,-1.75 L 9.6,-1.7 H 9.25 L 9.2,-0.9 8.45,-0.7 M -2.8,-4 -2.7,-4.15 -3,-4.45 -2.95,-4.9 q 0.15,-0.35 0.6,-0.2 l 14.1,0.1 7.5,0.15 q 0.05,-0.45 0.75,-0.5 0.8,-0.1 0.8,0.65 V -4 l -0.3,4.45 -0.05,0.2 V 0.7 l -0.7,0.45 H 0.65 L -1.7,1 -2.1,1.1 -2.35,0.8 -2.4,0.75 -2.75,0.3 Q -3.15,-0.95 -3.2,-2.15 -3.3,-3.4 -2.8,-4 M 22.65,-4.05 V -5.7 l -45.55,-0.05 0.1,1.05 0.05,0.8 v 1 3.75 l 0.05,3.8 h 2.85 l 34.05,0.1 q 6,-0.2 8.6,0.1 L 22.7,4.6 22.65,-4.05 m -43.35,-0.05 0.1,-0.15 h 10.9 l 0.3,0.1 0.45,-0.6 0.5,0.75 q 0.2,0.9 0.3,2.9 v 3.25 q -0.15,0.6 -0.8,0.6 L -9.45,2.6 -9.95,2.75 H -20.1 l -0.2,-0.15 -0.3,0.05 q -0.55,-0.6 -0.7,-1.6 l -0.05,-1.55 0.1,-3.2 h 0.15 l 0.3,-0.3 0.1,-0.1 M 24.7,-7.9 V 6.65 L 23.85,7.1 23.4,7.2 q -0.05,1 -0.45,1.3 H 17.9 17.75 16.55 L 16.25,8.1 16.05,7.5 V 7.4 L 14.2,7.35 -15.55,7.5 -15.35,7.65 -16,8.5 h -6.65 l -0.1,-0.2 -0.1,-0.55 0.05,-0.3 -1.15,-0.2 H -24 L -24.2,7.2 -24.95,6.9 V -8.35 L -24.5,-8.4 H 11 l 10,-0.1 2.85,0.3 h 0.05 l 0.8,0.3 M 19.2,3.55 17.45,3.9 15.15,3.85 14.25,3 q 0,-1 1.45,-1.1 1.6,-0.1 4.45,1 L 19.2,3.55 M 11.15,3.85 8.9,3.5 8.7,2.9 q 0,-1.2 4.7,-0.65 l 0.1,0.2 0.05,0.55 q 0,0.5 -0.4,0.65 l -2,0.2 M 0.4,3.9 -2.5,3.5 -2.7,2.9 Q -2.7,2.05 -0.4,2 1.9,1.95 1.9,3 1.9,3.9 0.4,3.9 M 5.6,1.6 Q 8,1.6 8,2.65 l -0.45,0.7 -2,0.25 Q 3.8,3.6 3.3,3.2 3.15,3.1 3.15,2.65 q 0,-1 2.45,-1.05 m -25.25,-3.9 q 0.05,0.45 -0.05,1 l -0.15,0.3 0.1,0.1 -0.1,0.35 v 0.25 l 1.05,-0.3 2.05,0.15 h 5.9 l 0.2,-0.05 0.9,0.1 0.15,-2.75 h -0.1 l -10.15,0.05 0.2,0.8 m 9.85,2.7 -4.8,0.05 V 1.1 L -9.95,1.05 -9.8,1.2 V 0.4 m -5.65,0.35 V 0.45 L -19.6,0.5 -19.85,0.35 -19.9,1.1 h 4.45 V 0.75"
         fill="#6b6b6b"
         fill-rule="evenodd"
         stroke="none"
         id="path3" />
      <path
         d="m 20.8,-4 v -0.7 q 0,-0.75 -0.8,-0.65 -0.7,0.05 -0.75,0.5 L 11.75,-5 -2.35,-5.1 q -0.45,-0.15 -0.6,0.2 L -3,-4.45 -2.7,-4.15 -2.8,-4 h -5.65 l -0.5,-0.75 -0.45,0.6 -0.3,-0.1 h -10.9 l -0.1,0.15 -0.75,-0.1 q -0.35,0.35 -0.85,0.35 l -0.45,-0.05 -0.05,-0.8 -0.1,-1.05 45.55,0.05 v 1.65 L 22.45,-4 H 20.8"
         fill="#8e8e8e"
         fill-rule="evenodd"
         stroke="none"
         id="path4" />
      <path
         d="m -19.65,-2.3 -0.2,-0.8 10.15,-0.05 h 0.1 l -0.15,2.75 -0.9,-0.1 -0.2,0.05 h -5.9 l -2.05,-0.15 -1.05,0.3 v -0.25 l 0.1,-0.35 -0.1,-0.1 0.15,-0.3 q 0.1,-0.55 0.05,-1"
         fill="#aaaaaa"
         fill-rule="evenodd"
         stroke="none"
         id="path5" />
    </g>
    <g
       id="sprite0"
       transform="translate(3.6,1)">
      <use
         ffdec:characterId="2084"
         height="1.8"
         transform="translate(-3.6,-1)"
         width="6.9000001"
         xlink:href="#shape1"
         id="use5" />
    </g>
    <g
       id="shape1"
       transform="translate(3.6,1)">
      <path
         d="m -0.25,-0.65 h 0.1 L 0,-0.6 v 0.25 l -0.25,0.2 -0.25,-0.35 0.25,-0.15 M 0.95,-1 H 1 q 0.55,0 0.65,0.8 -0.1,1 -0.7,1 H 0.8 L 0.3,0.35 0.25,0.15 V -0.1 q 0,-0.7 0.55,-0.85 L 0.95,-1 m -0.3,0.8 v 0.05 Q 0.65,0.3 0.8,0.3 H 0.9 Q 1.25,0.2 1.25,-0.35 L 1,-0.6 q -0.35,0 -0.35,0.4 m 1.65,0 v 0.05 q 0,0.45 0.15,0.45 h 0.1 Q 2.9,0.2 2.9,-0.35 L 2.7,-0.6 q -0.4,0 -0.4,0.4 M 2.6,-1 h 0.1 q 0.5,0 0.6,0.8 -0.1,1 -0.7,1 H 2.45 L 1.95,0.35 1.9,0.15 V -0.1 q 0,-0.7 0.55,-0.85 L 2.6,-1 m -5.65,0.05 h 0.1 l 0.1,0.1 v 0.2 l 0.15,1 0.05,0.15 V 0.55 Q -2.7,0.7 -2.95,0.7 h -0.1 q -0.55,0 -0.55,-0.2 0,-0.2 0.3,-0.2 V 0 l 0.1,-0.45 -0.15,0.1 h -0.1 L -3.6,-0.5 v -0.15 l 0.55,-0.3 M -1.4,-1 h 0.05 Q -1,-1 -1,-0.5 l -0.4,0.8 q 0.65,0 0.65,0.25 L -0.9,0.8 -1.9,0.65 v -0.2 l 0.4,-0.8 0.1,-0.1 -0.1,-0.15 h -0.15 v 0.25 Q -1.7,-0.2 -1.85,-0.2 L -2,-0.6 Q -2,-0.85 -1.4,-1 M -0.25,0.15 0,0.3 V 0.35 L -0.25,0.55 -0.5,0.3 -0.25,0.15"
         fill="#a08585"
         fill-rule="evenodd"
         stroke="none"
         id="path6" />
    </g>
  </defs>
</svg>
