<?xml version="1.0" encoding="UTF-8" standalone="no"?>
<svg
   ffdec:objectType="frame"
   height="84.368263"
   width="84.849998"
   version="1.1"
   id="svg18"
   sodipodi:docname="2.svg"
   xmlns:inkscape="http://www.inkscape.org/namespaces/inkscape"
   xmlns:sodipodi="http://sodipodi.sourceforge.net/DTD/sodipodi-0.dtd"
   xmlns:xlink="http://www.w3.org/1999/xlink"
   xmlns="http://www.w3.org/2000/svg"
   xmlns:svg="http://www.w3.org/2000/svg"
   xmlns:ffdec="https://www.free-decompiler.com/flash">
  <sodipodi:namedview
     id="namedview18"
     pagecolor="#ffffff"
     bordercolor="#000000"
     borderopacity="0.25"
     inkscape:showpageshadow="2"
     inkscape:pageopacity="0.0"
     inkscape:pagecheckerboard="0"
     inkscape:deskcolor="#d1d1d1"
     fit-margin-top="5"
     fit-margin-left="5"
     fit-margin-right="5"
     fit-margin-bottom="5" />
  <g
     transform="translate(42.15,43.278191)"
     id="g3">
    <use
       ffdec:characterId="1769"
       height="68.550003"
       transform="matrix(-1,0,0,1,42.7,-43.3)"
       width="84.849998"
       xlink:href="#sprite0"
       id="use1" />
    <use
       ffdec:characterId="1770"
       height="81.400002"
       transform="translate(-36.3,-40.3)"
       width="78.949997"
       xlink:href="#shape1"
       id="use2" />
    <use
       ffdec:characterId="1691"
       height="8"
       transform="matrix(-0.8692,-0.5449,-0.509,0.8312,0.9798,33.3676)"
       width="10.8"
       xlink:href="#sprite1"
       id="use3" />
  </g>
  <defs
     id="defs18">
    <g
       id="sprite0"
       transform="translate(42.4,34.3)">
      <use
         ffdec:characterId="1768"
         height="68.550003"
         transform="translate(-42.4,-34.3)"
         width="84.849998"
         xlink:href="#shape0"
         id="use4" />
    </g>
    <g
       id="shape0"
       transform="translate(42.4,34.3)">
      <path
         d="m 0.3,-9.8 0.25,0.75 0.7,4.2 0.3,-1.4 0.6,-2.1 0.35,-2.3 q 0.5,-2.15 0.5,-4.9 0,-4.8 -2.65,-11.4 l -0.5,-1.2 -1,-2.1 -0.4,-0.95 -0.05,0.2 -0.25,0.8 -0.35,1.35 -0.8,2.7 -1.7,5.95 -0.4,2.2 -0.35,7.55 0.05,3.35 0.55,1.4 0.65,-3.35 0.95,-3.3 0.3,-0.7 0.6,-1.65 0.05,-0.1 0.1,-0.35 0.1,0.05 0.3,0.15 0.25,0.05 0.2,0.1 0.9,2.55 0.1,0.3 0.65,2.15 m 11.85,-2.1 q 2,-3.3 4.35,-5.65 -7.8,2.8 -12.2,11.4 L 3.6,-4.7 Q 2.75,-2.8 2,-0.5 L 1.7,0.35 1.75,2.45 1.9,7.1 1.7,14.95 1.05,20.3 h -5.8 L -5.4,14.95 -5.55,7.1 V 4.75 L -5.4,0.35 -5.65,-0.5 q -4.4,-13.45 -14.5,-17.05 l 2.75,3.25 q 3.9,5.4 6.65,14.05 3.2,10.2 3.2,18.75 v 1.8 h -1.7 l -0.25,-2.85 -0.65,-5.8 -0.25,-0.75 q -0.45,-1.7 -1.15,-2.8 l -1.3,-2 -1.1,-1.65 -1.65,-2.3 -1.05,-1.2 q -1.6,-1.5 -3.45,-2.6 l -2.75,-1.3 q -1.9,-0.75 -4,-1.1 l -4.2,-0.35 -2.95,0.2 -0.55,0.2 -0.4,0.1 -0.75,0.15 h -0.15 l -0.45,0.05 0.4,0.05 3.4,0.65 q 3,0.75 5.65,1.95 6.3,2.8 10.75,8.35 5.4,6.7 5.9,13 h -5 l -0.05,-0.1 q -1.75,-2.75 -2.3,-3.2 -1.85,-1.85 -3.25,-2.55 -1.4,-0.8 -3.85,-1.05 -2.15,-1.95 0,-3.85 4.8,0.25 8.1,1.5 l 0.25,0.1 -1.7,-2.5 q -3.65,-4.55 -7.95,-6.9 l -0.9,-0.45 q -2.2,-1.1 -5.3,-1.75 l -7.9,-1.05 q -2.35,-0.15 -2.35,-1.15 0,-1.25 3.85,-2.4 l 1.45,-0.35 0.75,-0.25 3.45,-0.55 6.05,0.75 q 4.85,1 8.5,3.35 -2.15,-2.4 -5.2,-4.75 l -6.9,-4.1 q -5.85,-3.5 -5.85,-4.3 l 0.05,-0.75 q 0.15,-0.5 0.9,-0.7 8.45,0.8 16.8,8.15 l 3.9,3.95 q -1.9,-4.05 -5.1,-8.45 -5.15,-6.4 -5.15,-6.95 0,-2.5 5.05,-0.25 l 2.6,1.3 q 3.75,1.35 7.6,5.7 l 2.65,3.35 -0.05,-4.45 0.6,-5.55 0.65,-4.9 q 0.7,-4.5 2.7,-7.75 1.7,-2.85 1.85,-1 l 0.15,0.15 q 1.2,1.25 2.65,4.2 3.95,8.05 3.95,15.95 l -0.25,1.6 2.05,-2.95 q 4.25,-3.6 8.9,-5.65 5.05,-2.25 5.05,0.25 0,0.55 -5.2,6.95 -5.55,7.75 -7.4,14.4 L 7.75,5 8.05,4.5 Q 13,-3.3 23.15,-5.45 l 0.25,-0.05 3.7,-0.55 2.15,-0.15 5.65,1.15 q 3.85,1.15 3.85,2.4 0,1 -2.35,1.15 l -7.9,1.05 -1.4,0.3 Q 25,0.4 23.4,1.2 L 23.15,1.3 22.3,1.75 Q 18,4.1 14.35,8.65 l -1.7,2.5 0.25,-0.1 Q 16.35,9.75 21.55,9.5 L 22.8,9.35 23.4,9.3 23.75,9.25 27.1,9.35 q 8.15,1 12.3,9.55 l 0.6,1.35 v 0.05 q 2.45,5.75 2.45,11.85 v 1.1 q -0.1,0.95 -0.75,1 -0.55,0 -2.95,-3.55 L 33.3,22.9 31.5,20.7 31.15,20.3 27.1,16.1 q -1.95,-1.75 -3.7,-2.75 l -0.35,-0.2 -0.25,0.05 -1.25,0.15 q -2.85,0.2 -4.4,1.1 -1.4,0.7 -3.3,2.55 -0.5,0.45 -2.25,3.2 l -0.1,0.1 H 6.05 v -0.25 h 0.5 Q 7.1,13.85 12.4,7.3 16.9,1.75 23.15,-1.05 l 0.25,-0.1 3.7,-1.3 L 29,-3 32.5,-3.7 32.2,-3.75 30.3,-4.2 27.35,-4.4 H 27.1 l -3.7,0.35 h -0.25 q -3.5,0.55 -6.35,2.2 -2,1.1 -3.8,2.8 L 11.65,2.5 Q 10.1,4.5 7.9,8.1 7.05,9.5 6.5,11.65 L 6.2,14.1 Q 5.95,15.75 5.85,17.45 L 5.55,20.3 H 3.5 V 20.05 H 3.85 V 18.5 Q 3.85,9.95 7.1,-0.25 9.25,-7.1 12.15,-11.9 m -46.55,-3.3 0.35,0.3 6.55,3.85 q 3.7,2.15 5.6,3.75 l 4.25,4.15 q 2.95,3.1 3.55,4.55 l 2.4,3.1 0.3,0.5 -0.7,-2.7 q -5.65,-7.7 -6.4,-8.45 -5.8,-5.9 -15.9,-9.05 M -0.25,1.05 Q -0.4,-3.6 -1.85,-9.65 -3.45,-2.9 -3.45,2.1 l 0.2,9.75 0.5,4.65 0.4,3.55 h 1 l 0.45,-3.55 0.45,-4.65 0.2,-7.55 q -0.3,-0.05 0,-0.1 L -0.2,2.1 -0.25,1.05 m -14.55,12.9 -1.5,-0.85 q -2.5,-1.35 -4.3,-1.35 l -2.1,0.15 2.45,1 q 5,2.45 6.95,5.15 l -1.5,-4.1 M 40.75,30.5 V 30.4 Q 39.8,23.6 38.45,20.35 L 38.4,20.3 37.85,19.1 Q 34.75,13.55 27.1,11.8 l -3.05,-0.6 0.1,0.05 2.95,2.25 q 3.4,2.8 6.45,6.8 l 0.25,0.3 6.95,9.9 m -21.7,-18.6 -2.1,-0.15 q -1.8,0 -4.3,1.35 l -1.5,0.85 q -0.9,1.95 -1.55,4.1 2,-2.7 7,-5.15 1.3,-0.55 2.45,-1"
         fill="#8f8f8f"
         fill-rule="evenodd"
         stroke="none"
         id="path4" />
      <path
         d="M -0.15,-28.15 1,-24.4 q 0.65,2.45 0.65,8.15 l -0.5,1.85 v 0.2 l -0.2,2.4 q 0,1.25 -0.65,2 l -0.65,-2.15 -0.1,-0.3 -0.9,-2.55 -0.2,-0.1 -0.25,-0.05 -0.3,-0.15 -0.1,-0.05 -0.1,0.35 -0.05,0.1 -0.6,1.65 -0.3,0.7 q -0.45,-0.8 -1,-3.35 l -0.55,-3.2 0.1,-0.5 v -0.2 -0.6 l 1.7,-5.95 0.8,-2.7 0.35,-1.35 0.25,-0.8 0.45,0.75 1,2.1 M 1.75,2.45 1.7,0.35 2,-0.5 q 0.75,-2.3 1.6,-4.2 l 0.7,-1.45 q 4.4,-8.6 12.2,-11.4 -2.35,2.35 -4.35,5.65 -3.25,2.85 -4.9,5.1 L 3.5,-0.35 1.75,2.45 M 6.2,14.1 6.5,11.65 Q 7.05,9.5 7.9,8.1 10.1,4.5 11.65,2.5 L 13,0.95 q 1.8,-1.7 3.8,-2.8 2.85,-1.65 6.35,-2.2 h 0.25 l 3.7,-0.35 h 0.25 l 2.95,0.2 1.9,0.45 0.3,0.05 -3.5,0.7 -1.9,0.15 -3.7,0.6 q -6.5,1.45 -10.2,5.4 -1.85,2 -3.8,5.75 L 6.35,14.15 6.2,14.1 M -32.5,-3 l -3.4,-0.65 0.2,-0.1 0.75,-0.15 0.4,-0.1 0.55,-0.2 2.95,-0.2 4.2,0.35 q 2.1,0.35 4,1.1 l 2.75,1.3 q 1.85,1.1 3.45,2.6 l 1.05,1.2 1.65,2.3 1.1,1.65 1.3,2 q 0.7,1.1 1.15,2.8 l -0.2,0.1 q -2.65,-5.45 -8.45,-9.25 -2.9,-1.95 -6.4,-3.25 L -32.5,-3 m 15.1,-11.3 -2.75,-3.25 q 10.1,3.6 14.5,17.05 l 0.25,0.85 -0.15,4.4 q -1.35,-1.7 -2.75,-5.3 -1.5,-3.95 -2.8,-5.8 -2.4,-3.35 -6.3,-7.95 M 40.75,30.5 33.8,20.6 33.55,20.3 q -3.05,-4 -6.45,-6.8 l -2.95,-2.25 -0.1,-0.05 3.05,0.6 q 7.65,1.75 10.75,7.3 l 0.55,1.2 0.05,0.05 q 1.35,3.25 2.3,10.05 v 0.1"
         fill="#acbba9"
         fill-rule="evenodd"
         stroke="none"
         id="path5" />
      <path
         d="m 0.3,-9.8 q 0.65,-0.75 0.65,-2 l 0.2,-2.4 v -0.2 l 0.5,-1.85 q 0,-5.7 -0.65,-8.15 l -1.15,-3.75 0.5,1.2 q 2.65,6.6 2.65,11.4 0,2.75 -0.5,4.9 l -0.35,2.3 -0.6,2.1 -0.3,1.4 -0.7,-4.2 L 0.3,-9.8 m -5,-10.4 v 0.6 0.2 l -0.1,0.5 0.55,3.2 q 0.55,2.55 1,3.35 l -0.95,3.3 -0.65,3.35 -0.55,-1.4 -0.05,-3.35 0.35,-7.55 0.4,-2.2 m 16.85,8.3 Q 9.25,-7.1 7.1,-0.25 3.85,9.95 3.85,18.5 v 1.55 H 3.5 V 20.3 H 1.05 L 1.7,14.95 1.9,7.1 1.75,2.45 3.5,-0.35 7.25,-6.8 q 1.65,-2.25 4.9,-5.1 m -6.6,32.2 0.3,-2.85 Q 5.95,15.75 6.2,14.1 L 6.35,14.15 9.4,8.9 q 1.95,-3.75 3.8,-5.75 3.7,-3.95 10.2,-5.4 l 3.7,-0.6 1.9,-0.15 -1.9,0.55 -3.7,1.3 -0.25,0.1 Q 16.9,1.75 12.4,7.3 7.1,13.85 6.55,20.05 h -0.5 v 0.25 h -0.5 m -15.75,0 Q -10.7,14 -16.1,7.3 -20.55,1.75 -26.85,-1.05 -29.5,-2.25 -32.5,-3 l 7.05,1.5 q 3.5,1.3 6.4,3.25 5.8,3.8 8.45,9.25 l 0.2,-0.1 0.25,0.75 0.65,5.8 0.25,2.85 h -0.95 m 2.65,0 v -1.8 q 0,-8.55 -3.2,-18.75 -2.75,-8.65 -6.65,-14.05 3.9,4.6 6.3,7.95 1.3,1.85 2.8,5.8 1.4,3.6 2.75,5.3 V 7.1 l 0.15,7.85 0.65,5.35 h -2.8 M -34.4,-15.2 q 10.1,3.15 15.9,9.05 0.75,0.75 6.4,8.45 l 0.7,2.7 -0.3,-0.5 -2.4,-3.1 q -0.6,-1.45 -3.55,-4.55 L -21.9,-7.3 q -1.9,-1.6 -5.6,-3.75 l -6.55,-3.85 -0.35,-0.3 M -0.25,1.05 -0.2,2.1 -0.25,4.2 q -0.3,0.05 0,0.1 l -0.2,7.55 -0.45,4.65 -0.45,3.55 h -1 l -0.4,-3.55 -0.5,-4.65 -0.2,-9.75 q 0,-5 1.6,-11.75 1.45,6.05 1.6,10.7 m -14.55,12.9 1.5,4.1 q -1.95,-2.7 -6.95,-5.15 l -2.45,-1 2.1,-0.15 q 1.8,0 4.3,1.35 l 1.5,0.85 M 19.05,11.9 q -1.15,0.45 -2.45,1 -5,2.45 -7,5.15 0.65,-2.15 1.55,-4.1 l 1.5,-0.85 q 2.5,-1.35 4.3,-1.35 l 2.1,0.15"
         fill="#a0ae9e"
         fill-rule="evenodd"
         stroke="none"
         id="path6" />
    </g>
    <g
       id="shape1"
       transform="translate(36.3,40.3)">
      <path
         d="m -10.6,11.05 -0.4,-0.6 -0.05,-0.1 Q -12.65,7.8 -13.15,7.4 -14.9,5.65 -16.2,5 q -1.3,-0.7 -3.55,-0.95 -2,-1.8 0,-3.6 4.45,0.25 7.5,1.4 l 0.25,0.1 -1.6,-2.3 Q -17,-4.6 -21,-6.8 l -0.8,-0.4 q -2.05,-1.05 -4.95,-1.65 L -34.1,-9.8 q -2.2,-0.15 -2.2,-1.1 0,-1.15 3.6,-2.2 l 1.35,-0.35 0.7,-0.2 3.2,-0.55 5.65,0.7 q 4.5,0.95 7.9,3.15 -2,-2.25 -4.85,-4.45 l -6.4,-3.8 q -5.45,-3.25 -5.45,-4 l 0.05,-0.7 0.85,-0.65 q 7.85,0.75 15.6,7.6 l 3.65,3.65 q -1.8,-3.75 -4.75,-7.85 -4.8,-5.95 -4.8,-6.45 0,-2.35 4.7,-0.25 l 2.4,1.2 q 3.5,1.25 7.1,5.3 l 2.45,3.15 -0.05,-4.15 0.55,-5.15 0.6,-4.6 q 0.65,-4.15 2.5,-7.2 1.6,-2.65 1.75,-0.9 l 0.15,0.1 q 1.1,1.2 2.45,3.95 3.65,7.45 3.65,14.8 l -0.2,1.5 1.9,-2.75 q 3.95,-3.35 8.25,-5.25 4.7,-2.1 4.7,0.25 0,0.5 -4.8,6.45 -5.2,7.2 -6.9,13.4 l -0.85,3.4 0.3,-0.5 q 4.6,-7.25 14.05,-9.25 l 0.2,-0.05 3.45,-0.5 2,-0.15 5.25,1.1 q 3.6,1.05 3.6,2.2 0,0.95 -2.2,1.1 l -7.35,0.95 -1.3,0.3 -3.45,1.25 -0.2,0.1 -0.8,0.4 q -4,2.2 -7.4,6.45 l -1.6,2.3 0.25,-0.1 q 3.2,-1.2 8.05,-1.45 l 1.15,-0.1 0.55,-0.05 0.35,-0.05 3.1,0.1 q 7.6,0.9 11.45,8.85 l 0.55,1.25 v 0.05 q 2.3,5.35 2.3,11.05 v 1 q -0.1,0.9 -0.7,0.95 -0.55,0 -2.75,-3.3 L 34.1,12.9 32.45,10.85 32.1,10.45 28.35,6.55 24.9,4 24.6,3.8 24.35,3.85 23.2,4 q -2.65,0.2 -4.1,1 -1.3,0.65 -3.05,2.4 -0.5,0.4 -2.1,2.95 l -0.1,0.1 -0.4,0.6 h 7.25 q 1.7,0.1 2.15,0.65 l 0.25,0.75 v 0.1 l 0.1,0.75 0.05,0.65 -0.1,2.1 v 0.5 q -0.35,2.55 -1.1,2.55 h -0.2 l -1.15,0.05 h -0.2 -0.25 l -0.15,2.3 Q 19.05,30.55 10,38.9 H 8.9 q 0,0.65 -0.45,0.95 -0.9,0.6 -3.8,0.45 h -6.1 q -2.9,0.15 -3.8,-0.45 Q -5.7,39.55 -5.7,38.9 H -6.8 Q -16.95,29.55 -17.05,19.15 h -0.45 l -1.15,-0.05 h -0.2 q -0.75,0 -1.1,-2.55 l -0.15,-2.6 0.2,-1.4 v -0.1 l 0.25,-0.75 q 0.45,-0.55 2.15,-0.65 h 6.9 m 12.7,-47.6 -0.4,-0.9 -0.05,0.2 -0.2,0.75 -0.35,1.25 -0.75,2.5 -1.55,5.55 -0.4,2.05 -0.3,7 0.05,3.15 0.5,1.3 0.6,-3.15 0.9,-3.05 0.25,-0.65 0.55,-1.55 0.05,-0.1 0.1,-0.3 0.1,0.05 0.3,0.15 0.2,0.05 0.2,0.05 0.85,2.4 0.1,0.25 0.6,2 0.2,0.7 0.65,3.9 0.3,-1.3 0.55,-1.95 0.35,-2.1 q 0.45,-2 0.45,-4.6 0,-4.45 -2.45,-10.6 L 3,-34.6 2.1,-36.55 m 12.35,17.05 q 1.85,-3.05 4.05,-5.25 -7.25,2.6 -11.35,10.6 L 6.5,-12.8 5,-8.9 4.75,-8.1 4.8,-6.15 4.9,-1.8 4.75,5.5 q -0.2,3.15 -0.6,4.95 L 4,11.05 h 2.6 l -0.2,-0.6 v -0.2 H 6.75 V 8.8 q 0,-7.95 3,-17.45 2,-6.35 4.7,-10.85 m -11.55,15 0.05,-1.95 -0.05,-1 q -0.1,-4.3 -1.45,-9.95 -1.5,6.3 -1.5,10.95 l 0.2,9.05 0.45,4.35 0.35,3.3 H 1.9 L 2.3,6.95 2.75,2.6 2.9,-4.4 q -0.25,-0.05 0,-0.1 m 27.2,-6.7 3.3,-0.65 -0.3,-0.05 -1.75,-0.4 -2.75,-0.2 h -0.25 l -3.45,0.3 h -0.2 q -3.25,0.55 -5.9,2.05 L 15.25,-7.55 14,-6.1 10.5,-0.9 Q 9.7,0.4 9.2,2.4 L 8.9,4.7 8.6,7.8 8.3,10.45 8.25,11.05 H 9 l -0.2,-0.6 v -0.2 h 0.45 q 0.5,-5.8 5.45,-11.9 4.15,-5.15 10,-7.75 l 0.2,-0.1 q 1.65,-0.7 3.45,-1.2 l 1.75,-0.5 M 25.5,2 l 0.1,0.05 2.75,2.1 q 3.15,2.6 6,6.3 l 0.25,0.3 q 2.4,3.15 6.45,9.2 v -0.1 q -0.9,-6.3 -2.15,-9.35 l -0.05,-0.05 -0.5,-1.1 q -2.9,-5.15 -10,-6.8 L 25.5,2 m -4.6,14.3 -0.05,-2.35 h -0.15 -38.2 -0.15 l -0.1,2.4 -0.05,0.6 0.3,-0.05 H 20.7 L 21,16.95 20.9,16.3 m -6,-12.55 -1.4,0.8 -1.4,3.8 Q 13.95,5.85 18.6,3.6 19.8,3.05 20.85,2.65 L 18.9,2.5 q -1.65,0 -4,1.25 m 2.5,18.1 0.35,-0.8 0.5,-1.9 H -15.1 l 0.55,1.9 0.3,0.8 0.6,1.65 0.95,2.55 q 2.7,6.1 6.25,9.9 h 16.1 q 3.55,-3.8 6.25,-9.9 l 0.95,-2.55 0.55,-1.65 m -20.1,4.9 V 26.2 L -2.95,25.95 -2.2,25.4 H 6.7 L 6.85,25.55 7,25.65 7.25,25.9 7.1,26.4 q -0.1,1.85 -1.55,3.3 -1.6,1.55 -3.95,1.55 -2.15,0 -3.4,-2 -0.9,-1.4 -0.9,-2.5 M 8.9,26.6 q 0,-1.7 1.65,-1.65 1.65,0 1.65,1.65 0,1.6 -1.65,1.6 -1.65,0 -1.65,-1.6 m -8.15,3.15 -0.3,-0.1 0.15,0.1 h 0.15 m -8.5,-34 0.3,0.5 -0.65,-2.55 -5.95,-7.85 q -5.4,-5.45 -14.8,-8.4 l 0.35,0.3 6.1,3.55 q 3.4,2 5.2,3.5 l 3.95,3.85 q 2.75,2.9 3.3,4.25 l 2.2,2.85 M -6.5,1.7 Q -6.95,0.15 -7.6,-0.9 l -1.2,-1.85 -1,-1.55 q -0.8,-1.25 -1.55,-2.1 l -1,-1.15 q -1.45,-1.4 -3.2,-2.4 -1.2,-0.7 -2.55,-1.2 l -3.7,-1.05 -3.9,-0.3 -2.75,0.2 -0.55,0.15 -0.35,0.1 -0.7,0.15 h -0.15 l -0.4,0.05 0.35,0.05 3.2,0.6 5.25,1.8 q 5.85,2.6 10,7.75 5,6.25 5.45,12.1 l 0.05,0.6 h 0.95 L -5.45,10.45 -5.7,7.8 -6.3,2.4 -6.5,1.7 M -2,-4 -1.85,-8.1 -2.1,-8.9 q -4.1,-12.5 -13.5,-15.85 l 2.55,3.05 q 3.65,5 6.2,13.05 3,9.5 3,17.45 v 1.65 0.5 0.1 h 2.75 l -0.15,-0.6 Q -1.65,8.65 -1.85,5.5 L -2,-1.8 V -4 m -14,6.5 -1.95,0.15 q 1.05,0.4 2.25,0.95 4.65,2.25 6.5,4.75 L -10.6,4.55 -12,3.75 Q -14.35,2.5 -16,2.5 m 6.95,23.15 q 0.5,-0.85 1.7,-0.85 2.1,0 2.1,1.55 0,0.6 -0.4,1 -0.65,0.7 -2.05,0.7 -0.8,0 -1.25,-0.5 -0.35,-0.45 -0.35,-1 l 0.25,-0.9"
         fill="#6b6b6b"
         fill-rule="evenodd"
         stroke="none"
         id="path7" />
      <path
         d="M 0.75,29.75 H 0.6 l -0.15,-0.1 0.3,0.1"
         fill="#a6a6a6"
         fill-rule="evenodd"
         stroke="none"
         id="path8" />
      <path
         d="m 20.1,21.45 0.15,-2.3 h 0.25 l 0.3,0.95 -0.25,0.95 -0.45,0.4"
         fill="#8e8e8e"
         fill-rule="evenodd"
         stroke="none"
         id="path9" />
      <path
         d="m 23.15,16.05 0.1,-2.1 -0.05,-0.65 q 0.7,0.4 0.7,1.35 0,0.65 -0.4,1.1 l -0.35,0.3"
         fill="#b8b8b8"
         fill-rule="evenodd"
         stroke="none"
         id="path10" />
      <path
         d="m 2.9,-7.45 0.05,1 L 2.9,-4.5 Q 2.75,-4.55 2.75,-5.3 L 2.9,-7.45"
         fill="#878787"
         fill-rule="evenodd"
         stroke="none"
         id="path11" />
      <path
         d="m 3,-34.6 0.5,1.1 q 2.45,6.15 2.45,10.6 0,2.6 -0.45,4.6 l -0.35,2.1 -0.55,1.95 -0.3,1.3 -0.65,-3.9 -0.2,-0.7 q 0.6,-0.7 0.6,-1.85 l 0.15,-2.2 v -0.2 l 0.5,-1.75 q 0,-5.3 -0.6,-7.55 L 3,-34.6 m -2.85,14.7 -0.9,3.05 -0.6,3.15 -0.5,-1.3 -0.05,-3.15 0.3,-7 0.4,-2.05 v 0.55 0.2 l -0.1,0.45 0.5,3 q 0.5,2.35 0.95,3.1 m 14.3,0.4 q -2.7,4.5 -4.7,10.85 -3,9.5 -3,17.45 v 1.45 H 6.4 v 0.2 l 0.2,0.6 H 4 l 0.15,-0.6 q 0.4,-1.8 0.6,-4.95 l 0.15,-7.3 -0.1,-4.35 1.6,-2.6 3.5,-6 q 1.55,-2.1 4.55,-4.75 M 2.9,-4.5 q -0.25,0.05 0,0.1 L 2.75,2.6 2.3,6.95 1.9,10.25 H 0.95 L 0.6,6.95 0.15,2.6 -0.05,-6.45 q 0,-4.65 1.5,-10.95 1.35,5.65 1.45,9.95 L 2.75,-5.3 q 0,0.75 0.15,0.8 m 6,9.2 0.15,0.05 2.85,-4.9 q 1.8,-3.5 3.55,-5.35 3.4,-3.65 9.45,-5 l 3.45,-0.55 1.75,-0.15 -1.75,0.5 q -1.8,0.5 -3.45,1.2 l -0.2,0.1 q -5.85,2.6 -10,7.75 -4.95,6.1 -5.45,11.9 H 8.8 v 0.2 L 9,11.05 H 8.25 L 8.3,10.45 8.6,7.8 8.9,4.7 m 6,-0.95 q 2.35,-1.25 4,-1.25 l 1.95,0.15 Q 19.8,3.05 18.6,3.6 13.95,5.85 12.1,8.35 l 1.4,-3.8 1.4,-0.8 m -22.65,-8 -2.2,-2.85 q -0.55,-1.35 -3.3,-4.25 l -3.95,-3.85 q -1.8,-1.5 -5.2,-3.5 l -6.1,-3.55 -0.35,-0.3 q 9.4,2.95 14.8,8.4 l 5.95,7.85 0.65,2.55 -0.3,-0.5 m -19.3,-6.95 6.55,1.4 q 3.25,1.2 5.95,3 5.4,3.55 7.85,8.6 l 0.2,-0.1 0.2,0.7 0.6,5.4 0.25,2.65 0.1,0.6 H -6.3 l -0.05,-0.6 Q -6.8,4.6 -11.8,-1.65 -15.95,-6.8 -21.8,-9.4 l -5.25,-1.8 M -2,-4 v 2.2 l 0.15,7.3 q 0.2,3.15 0.6,4.95 l 0.15,0.6 h -2.75 v -0.1 -0.5 -1.65 q 0,-7.95 -3,-17.45 -2.55,-8.05 -6.2,-13.05 l 5.9,7.4 q 1.2,1.7 2.6,5.35 1.3,3.35 2.55,4.95 m -14,6.5 q 1.65,0 4,1.25 l 1.4,0.8 1.4,3.8 Q -11.05,5.85 -15.7,3.6 -16.9,3.05 -17.95,2.65 L -16,2.5"
         fill="#80927d"
         fill-rule="evenodd"
         stroke="none"
         id="path12" />
      <path
         d="m 2.1,-36.55 0.9,1.95 1.1,3.5 q 0.6,2.25 0.6,7.55 l -0.5,1.75 v 0.2 l -0.15,2.2 q 0,1.15 -0.6,1.85 l -0.6,-2 L 2.75,-19.8 1.9,-22.2 1.7,-22.25 1.5,-22.3 1.2,-22.45 1.1,-22.5 1,-22.2 0.95,-22.1 0.4,-20.55 0.15,-19.9 Q -0.3,-20.65 -0.8,-23 l -0.5,-3 0.1,-0.45 v -0.2 -0.55 l 1.55,-5.55 0.75,-2.5 0.35,-1.25 0.2,-0.75 0.45,0.7 M 4.8,-6.15 4.75,-8.1 5,-8.9 l 1.5,-3.9 0.65,-1.35 q 4.1,-8 11.35,-10.6 -2.2,2.2 -4.05,5.25 -3,2.65 -4.55,4.75 l -3.5,6 -1.6,2.6 m 25.3,-5.05 -1.75,0.15 -3.45,0.55 q -6.05,1.35 -9.45,5 -1.75,1.85 -3.55,5.35 L 9.05,4.75 8.9,4.7 9.2,2.4 q 0.5,-2 1.3,-3.3 l 3.5,-5.2 1.25,-1.45 3.55,-2.6 q 2.65,-1.5 5.9,-2.05 h 0.2 l 3.45,-0.3 h 0.25 l 2.75,0.2 1.75,0.4 0.3,0.05 -3.3,0.65 M 25.5,2 28.35,2.55 q 7.1,1.65 10,6.8 l 0.5,1.1 0.05,0.05 q 1.25,3.05 2.15,9.35 v 0.1 Q 37,13.9 34.6,10.75 l -0.25,-0.3 q -2.85,-3.7 -6,-6.3 L 25.6,2.05 25.5,2 m -55.55,-13.9 0.7,-0.15 0.35,-0.1 0.55,-0.15 2.75,-0.2 3.9,0.3 3.7,1.05 q 1.35,0.5 2.55,1.2 1.75,1 3.2,2.4 l 1,1.15 q 0.75,0.85 1.55,2.1 l 1,1.55 1.2,1.85 q 0.65,1.05 1.1,2.6 l -0.2,0.1 q -2.45,-5.05 -7.85,-8.6 -2.7,-1.8 -5.95,-3 l -6.55,-1.4 -3.2,-0.6 0.2,-0.1 m 17,-9.8 -2.55,-3.05 q 9.4,3.35 13.5,15.85 L -1.85,-8.1 -2,-4 q -1.25,-1.6 -2.55,-4.95 -1.4,-3.65 -2.6,-5.35 l -5.9,-7.4"
         fill="#92a68e"
         fill-rule="evenodd"
         stroke="none"
         id="path13" />
      <path
         d="m -17.75,16.35 0.1,-2.4 h 0.15 38.2 0.15 l 0.05,2.35 -38.65,0.05"
         fill="#bbab9e"
         fill-rule="evenodd"
         stroke="none"
         id="path14" />
      <path
         d="M -17.75,16.35 20.9,16.3 21,16.95 20.7,16.9 h -38.2 l -0.3,0.05 0.05,-0.6 m 3.5,5.5 H 17.4 l -0.55,1.65 -0.95,2.55 q -2.7,6.1 -6.25,9.9 h -16.1 q -3.55,-3.8 -6.25,-9.9 l -0.95,-2.55 -0.6,-1.65 M 8.9,26.6 q 0,1.6 1.65,1.6 1.65,0 1.65,-1.6 0,-1.65 -1.65,-1.65 Q 8.9,24.9 8.9,26.6 m -11.6,0.15 q 0,1.1 0.9,2.5 1.25,2 3.4,2 2.35,0 3.95,-1.55 Q 7,28.25 7.1,26.4 L 7.25,25.9 7,25.65 6.85,25.55 6.7,25.4 h -8.9 l -0.75,0.55 0.25,0.25 v 0.55 m -6.35,-1.1 -0.25,0.9 q 0,0.55 0.35,1 0.45,0.5 1.25,0.5 1.4,0 2.05,-0.7 0.4,-0.4 0.4,-1 0,-1.55 -2.1,-1.55 -1.2,0 -1.7,0.85"
         fill="#a2968c"
         fill-rule="evenodd"
         stroke="none"
         id="path15" />
      <path
         d="m -14.25,21.85 -0.3,-0.8 -0.55,-1.9 h 33.35 l -0.5,1.9 -0.35,0.8 h -31.65"
         fill="#897f76"
         fill-rule="evenodd"
         stroke="none"
         id="path16" />
      <path
         d="m -10.6,11.05 h -6.9 q -1.7,0.1 -2.15,0.65 l -0.25,0.75 v 0.1 l -0.2,1.4 0.15,2.6 q 0.35,2.55 1.1,2.55 h 0.2 l 1.15,0.05 h 0.45 q 0.1,10.4 10.25,19.75 h 1.1 q 0,0.65 0.45,0.95 0.9,0.6 3.8,0.45 h 6.1 q 2.9,0.15 3.8,-0.45 Q 8.9,39.55 8.9,38.9 H 10 q 9.05,-8.35 10.1,-17.45 l 0.15,-2.3 h 0.25 0.2 l 1.15,-0.05 h 0.2 q 0.75,0 1.1,-2.55 v -0.5 l 0.1,-2.1 -0.05,-0.65 -0.1,-0.75 v -0.1 L 22.85,11.7 Q 22.4,11.15 20.7,11.05 h -7.25 m -6.85,0 H 4 m 4.25,0 H 9 m -14.35,0 H -6.3 m 5.2,0 h -2.75"
         fill="none"
         stroke="#6b6b6b"
         stroke-linecap="round"
         stroke-linejoin="round"
         stroke-width="1.5"
         id="path17" />
    </g>
    <g
       id="sprite1"
       transform="translate(5.4,4)">
      <use
         ffdec:characterId="43"
         height="8"
         transform="translate(-5.4,-4)"
         width="10.8"
         xlink:href="#shape2"
         id="use17" />
    </g>
    <g
       id="shape2"
       transform="translate(5.4,4)">
      <path
         d="m 2.9,-0.35 q 0,-1.25 1.25,-1.25 1.25,0 1.25,1.2 0,1.3 -1.25,1.3 Q 3.6,0.9 3.25,0.5 2.9,0.15 2.9,-0.35 m 0.35,-2.3 q 0,0.55 -0.35,0.9 -0.4,0.45 -1,0.45 -1.35,0 -1.35,-1.4 0,-1.3 1.35,-1.3 1.35,0 1.35,1.35 m -3.1,1.9 h 0.2 q 2.6,0.1 2.6,2.8 l -0.3,1 Q 2.05,4 0.45,4 H 0.35 0.15 0.1 -0.45 q -1.6,0 -2.2,-0.95 l -0.3,-1 q 0,-2.8 2.8,-2.8 h 0.3 M -1.55,-4 q 1.35,0 1.35,1.35 0,0.55 -0.4,0.9 -0.4,0.45 -0.95,0.45 -1.4,0 -1.4,-1.4 0,-1.3 1.4,-1.3 m -2.6,2.4 q 1.25,0 1.25,1.25 0,0.5 -0.35,0.85 -0.35,0.4 -0.9,0.4 -1.25,0 -1.25,-1.3 0,-1.2 1.25,-1.2"
         fill="#6b6b6b"
         fill-rule="evenodd"
         stroke="none"
         id="path18" />
    </g>
  </defs>
</svg>
