<?xml version="1.0" encoding="UTF-8" standalone="no"?>
<svg
   ffdec:objectType="frame"
   height="43.427315"
   width="27.15"
   version="1.1"
   id="svg7"
   sodipodi:docname="2.svg"
   xmlns:inkscape="http://www.inkscape.org/namespaces/inkscape"
   xmlns:sodipodi="http://sodipodi.sourceforge.net/DTD/sodipodi-0.dtd"
   xmlns:xlink="http://www.w3.org/1999/xlink"
   xmlns="http://www.w3.org/2000/svg"
   xmlns:svg="http://www.w3.org/2000/svg"
   xmlns:ffdec="https://www.free-decompiler.com/flash">
  <sodipodi:namedview
     id="namedview7"
     pagecolor="#ffffff"
     bordercolor="#000000"
     borderopacity="0.25"
     inkscape:showpageshadow="2"
     inkscape:pageopacity="0.0"
     inkscape:pagecheckerboard="0"
     inkscape:deskcolor="#d1d1d1"
     fit-margin-top="5"
     fit-margin-left="5"
     fit-margin-right="5"
     fit-margin-bottom="5" />
  <g
     transform="translate(13.6,21.677315)"
     id="g2">
    <use
       ffdec:characterId="3801"
       height="43.450001"
       transform="matrix(-1,0,0,1,13.55,-21.7)"
       width="27.15"
       xlink:href="#sprite0"
       id="use1" />
    <use
       ffdec:characterId="3500"
       height="8"
       transform="matrix(0.0098,-0.6961,-0.6961,-0.0098,-1.1684,15.0481)"
       width="10.8"
       xlink:href="#sprite1"
       id="use2" />
  </g>
  <defs
     id="defs7">
    <g
       id="sprite0"
       transform="translate(13.55,21.7)">
      <use
         ffdec:characterId="3799"
         height="43.450001"
         transform="translate(-13.55,-21.7)"
         width="27.15"
         xlink:href="#shape0"
         id="use3" />
    </g>
    <g
       id="shape0"
       transform="translate(13.55,21.7)">
      <path
         d="m 2.75,-15.55 q 0,1.45 -0.95,4.95 v 0.15 L 2,-10.8 q 2,-3.5 5.3,-3.5 5.8,0 5.8,1.95 l -1.1,2.4 -1.4,2.05 q -1.4,1.1 -3.35,1.55 l -3.35,0.5 0.25,0.95 v 0.2 l 1.4,0.35 1.4,1.6 0.65,1.65 v 0.05 L 8.85,-0.5 Q 10.7,0.8 10.7,2.2 L 10.3,3.55 Q 9.95,4.45 9.95,5.35 L 9.8,8.3 9.55,11.6 Q 9.2,13.1 8.3,13.7 l -0.35,0.65 0.5,0.7 0.45,0.9 q 0,0.6 -0.6,1.2 -0.55,0.7 -1.2,0.7 H 6.65 L 6.55,17.7 q 0,-0.6 1.3,-1.55 L 7,15.15 6.8,14.45 6.9,14.05 H 6.65 V 14.3 L 6.1,17.85 q -1,3.4 -3,3.4 -1.65,0 -2.85,-3.05 l -0.8,-2.7 -0.35,0.65 -0.3,1.85 -0.5,1.7 q -0.9,1.55 -2.8,1.55 -1.8,0 -2.8,-2.8 l -0.55,-2.6 Q -8.55,16.6 -9,16.6 h -0.05 v 0.05 l 0.2,0.15 0.4,0.65 -0.4,1 -0.95,0.7 H -11 l -0.4,-0.45 v -0.3 l 1.45,0.05 0.65,-0.6 q -0.7,-0.1 -0.95,-0.75 l -0.1,-0.2 -0.1,-1.1 -0.85,-1.2 q -0.5,-1.05 -0.5,-2.25 0,-1.35 0.7,-4 l 0.65,-2.9 -0.1,-1.25 -0.2,-1.55 q 0,-1.55 2.05,-3.45 l 0.75,-0.55 0.05,-0.15 -0.05,-0.3 0.05,-0.7 h -0.15 q -3.05,0 -4.3,-1.8 -0.7,-1.05 -0.7,-2.15 0,-0.85 1.7,-1.6 l 3.75,-1.35 2.75,-0.25 q -1.3,-2.3 -1.3,-3.45 0,-3.1 1.4,-5.3 1.25,-2.05 3.05,-2.6 1.8,-0.6 3.05,0.7 1.4,1.5 1.4,4.75 m 3.1,5.8 -1.8,1.95 -0.45,0.4 q 3.25,-0.3 5.55,-1.8 2.35,-1.55 2.35,-3.25 -5.8,-1.35 -7.5,1.1 -0.75,1.1 -1.15,3.15 L 3.2,-8.45 5.6,-10 5.85,-9.95 v 0.2 m -2.1,7.9 Q 5.2,-1.75 5.2,-0.5 L 4.9,0.25 Q 4.45,0.9 3.7,0.9 2.85,0.9 2.45,0.25 L 2.25,-0.5 q 0,-1.5 1.5,-1.35 M 2.15,-4.4 q -0.5,-0.9 -2.9,-0.9 -3.4,0 -4.9,2.45 L -6.7,-1.1 v 0.2 q 0,0.25 -1.05,1.4 Q -8.9,1.65 -8.9,2.7 L -8.65,4.35 -9,6.95 -9.4,9.3 q 0,0.85 -0.35,3.05 0,1 0.75,1.7 l 0.05,0.05 0.45,-0.75 q 1.4,-2.2 1.6,-3.45 V 7.05 L -6.75,5.9 -6.8,5.5 l 0.8,-1 1.2,0.75 -0.4,0.5 -0.2,0.9 -0.25,1.7 V 8.9 q 0.3,0.85 0.3,1.75 l 1.7,-0.1 0.5,0.4 -0.5,0.4 -1.55,0.3 -0.65,2.8 0.15,2 1.25,2.6 q 0.5,-0.3 1.35,-3 0.75,-2.25 2.45,-2.25 l 0.75,0.1 0.4,-0.05 q 1.9,0 1.9,0.75 0,0.35 -0.8,0.55 L 1.1,15.35 1.65,17 q 0.6,2.45 1.15,2.45 1.55,0 2,-5 L 4.95,9.4 Q 4.95,8.95 5.3,8.45 L 5.65,7.35 Q 5.65,6.4 4.9,5.4 L 4.5,4.75 3.6,5.4 Q 1.45,6.9 0.3,6.9 L -0.6,6.8 -1.2,6.6 0.85,5.5 3,4.4 4.4,2.8 5.1,1.75 q 0.9,-1.3 0.9,-2 0,-2 -1.75,-2.6 L 2.95,-3.4 0.8,-3.1 -2.45,-2.95 -3.4,-3 l -0.15,-0.15 0.3,-0.3 3.9,-0.5 1.7,-0.2 -0.2,-0.25 m -0.7,-11.15 q -0.85,-4.2 -2.5,-4.2 -1.45,0 -2.6,2.75 l -0.9,2.85 q 0,2.45 2.45,5.1 l 1.25,1.35 -0.75,-3.7 q 0,-1.45 0.35,-1.65 0.4,-0.2 0.9,2.15 l 0.7,3.2 1.1,-7.85 M 9.15,1.8 q 0,-0.35 -1.1,-0.95 L 7.7,0.7 6.9,2.45 6,3.7 6.3,4.4 6.65,4.5 q 0.8,0 1.45,-0.85 V 3.4 L 8.6,2.55 9.15,1.8 M 8.2,4.45 6.75,5.15 q 0.6,1.05 0.6,2.25 0,0.85 -0.4,1.4 -0.4,0.55 -0.4,2.15 L 6.6,12.9 h 0.2 q 1,0 1.5,-2.1 L 8.6,8.65 8.35,6 8.2,4.45 M 1.45,0.85 q 0,1.1 -3.5,1.1 L -2.75,1.7 -2.85,1.4 q 0,-0.6 1.4,-0.85 L 1.35,0.4 1.45,0.85 M -3.7,-7.3 -6.1,-8.05 q -0.6,0 -2.65,1 -2.25,1.05 -2.45,1.1 l 1.4,1.7 0.55,0.1 1.75,0.2 0.75,-1.2 H -7.1 l -2,-0.15 -0.3,-0.2 1.85,-0.5 2.1,-0.55 2,-0.45 0.25,-0.05 -0.5,-0.25 M -4,1.75 q -0.4,0.6 -1.15,0.6 -0.95,0 -1.3,-0.75 L -6.6,0.85 q 0,-1.35 1.4,-1.35 1.4,0 1.4,1.45 L -4,1.75"
         fill="#6b6b6b"
         fill-rule="evenodd"
         stroke="none"
         id="path3" />
      <path
         d="m 5.85,-9.75 v -0.2 L 5.6,-10 3.2,-8.45 2.85,-8.2 q 0.4,-2.05 1.15,-3.15 1.7,-2.45 7.5,-1.1 0,1.7 -2.35,3.25 -2.3,1.5 -5.55,1.8 l 0.45,-0.4 1.8,-1.95 m -4.4,-5.8 -1.1,7.85 -0.7,-3.2 q -0.5,-2.35 -0.9,-2.15 -0.35,0.2 -0.35,1.65 l 0.75,3.7 -1.25,-1.35 q -2.45,-2.65 -2.45,-5.1 l 0.9,-2.85 q 1.15,-2.75 2.6,-2.75 1.65,0 2.5,4.2 m -5.15,8.25 0.5,0.25 -0.25,0.05 -2,0.45 -2.1,0.55 -1.85,0.5 0.3,0.2 2,0.15 h 0.35 l -0.75,1.2 -1.75,-0.2 -0.55,-0.1 -1.4,-1.7 q 0.2,-0.05 2.45,-1.1 2.05,-1 2.65,-1 l 2.4,0.75"
         fill="#798673"
         fill-rule="evenodd"
         stroke="none"
         id="path4" />
      <path
         d="m 2.15,-4.4 0.2,0.25 -1.7,0.2 -3.9,0.5 -0.3,0.3 0.15,0.15 0.95,0.05 3.25,-0.15 2.15,-0.3 1.3,0.55 q 1.75,0.6 1.75,2.6 0,0.7 -0.9,2 L 4.4,2.8 3,4.4 0.85,5.5 -1.2,6.6 -0.6,6.8 0.3,6.9 q 1.15,0 3.3,-1.5 L 4.5,4.75 4.9,5.4 q 0.75,1 0.75,1.95 L 5.3,8.45 Q 4.95,8.95 4.95,9.4 L 4.8,14.45 q -0.45,5 -2,5 -0.55,0 -1.15,-2.45 L 1.1,15.35 1.6,15.15 q 0.8,-0.2 0.8,-0.55 0,-0.75 -1.9,-0.75 L 0.1,13.9 -0.65,13.8 q -1.7,0 -2.45,2.25 -0.85,2.7 -1.35,3 l -1.25,-2.6 -0.15,-2 0.65,-2.8 1.55,-0.3 0.5,-0.4 -0.5,-0.4 -1.7,0.1 q 0,-0.9 -0.3,-1.75 V 8.35 L -5.4,6.65 -5.2,5.75 -4.8,5.25 -6,4.5 -6.8,5.5 -6.75,5.9 -6.9,7.05 V 9.9 q -0.2,1.25 -1.6,3.45 L -8.95,14.1 -9,14.05 q -0.75,-0.7 -0.75,-1.7 0.35,-2.2 0.35,-3.05 L -9,6.95 -8.65,4.35 -8.9,2.7 q 0,-1.05 1.15,-2.2 1.05,-1.15 1.05,-1.4 v -0.2 l 1.05,-1.75 q 1.5,-2.45 4.9,-2.45 2.4,0 2.9,0.9 m 1.6,2.55 Q 2.25,-2 2.25,-0.5 l 0.2,0.75 Q 2.85,0.9 3.7,0.9 4.45,0.9 4.9,0.25 L 5.2,-0.5 q 0,-1.25 -1.45,-1.35 m -2.3,2.7 -0.1,-0.45 -2.8,0.15 q -1.4,0.25 -1.4,0.85 l 0.1,0.3 0.7,0.25 q 3.5,0 3.5,-1.1 M 8.2,4.45 8.35,6 8.6,8.65 8.3,10.8 Q 7.8,12.9 6.8,12.9 H 6.6 L 6.55,10.95 q 0,-1.6 0.4,-2.15 0.4,-0.55 0.4,-1.4 0,-1.2 -0.6,-2.25 L 8.2,4.45 M 9.15,1.8 8.6,2.55 8.1,3.4 V 3.65 Q 7.45,4.5 6.65,4.5 L 6.3,4.4 6,3.7 6.9,2.45 7.7,0.7 8.05,0.85 q 1.1,0.6 1.1,0.95 M -4,1.75 -3.8,0.95 q 0,-1.45 -1.4,-1.45 -1.4,0 -1.4,1.35 l 0.15,0.75 q 0.35,0.75 1.3,0.75 0.75,0 1.15,-0.6"
         fill="#c2bda2"
         fill-rule="evenodd"
         stroke="none"
         id="path5" />
      <path
         d="m 2.75,-15.55 q 0,1.45 -0.95,4.95 v 0.15 L 2,-10.8 q 2,-3.5 5.3,-3.5 5.8,0 5.8,1.95 l -1.1,2.4 -1.4,2.05 q -1.4,1.1 -3.35,1.55 l -3.35,0.5 0.25,0.95 v 0.2 l 1.4,0.35 1.4,1.6 0.65,1.65 v 0.05 L 8.85,-0.5 Q 10.7,0.8 10.7,2.2 L 10.3,3.55 Q 9.95,4.45 9.95,5.35 L 9.8,8.3 9.55,11.6 Q 9.2,13.1 8.3,13.7 l -0.35,0.65 0.5,0.7 0.45,0.9 q 0,0.6 -0.6,1.2 -0.55,0.7 -1.2,0.7 H 6.65 L 6.55,17.7 q 0,-0.6 1.3,-1.55 L 7,15.15 6.8,14.45 6.9,14.05 H 6.65 V 14.3 L 6.1,17.85 q -1,3.4 -3,3.4 -1.65,0 -2.85,-3.05 l -0.8,-2.7 -0.35,0.65 -0.3,1.85 -0.5,1.7 q -0.9,1.55 -2.8,1.55 -1.8,0 -2.8,-2.8 l -0.55,-2.6 Q -8.55,16.6 -9,16.6 h -0.05 v 0.05 l 0.2,0.15 0.4,0.65 -0.4,1 -0.95,0.7 H -11 l -0.4,-0.45 v -0.3 l 1.45,0.05 0.65,-0.6 q -0.7,-0.1 -0.95,-0.75 l -0.1,-0.2 -0.1,-1.1 -0.85,-1.2 q -0.5,-1.05 -0.5,-2.25 0,-1.35 0.7,-4 l 0.65,-2.9 -0.1,-1.25 -0.2,-1.55 q 0,-1.55 2.05,-3.45 l 0.75,-0.55 0.05,-0.15 -0.05,-0.3 0.05,-0.7 h -0.15 q -3.05,0 -4.3,-1.8 -0.7,-1.05 -0.7,-2.15 0,-0.85 1.7,-1.6 l 3.75,-1.35 2.75,-0.25 q -1.3,-2.3 -1.3,-3.45 0,-3.1 1.4,-5.3 1.25,-2.05 3.05,-2.6 1.8,-0.6 3.05,0.7 1.4,1.5 1.4,4.75 z"
         fill="none"
         stroke="#6b6b6b"
         stroke-linecap="round"
         stroke-linejoin="round"
         stroke-width="1"
         id="path6" />
    </g>
    <g
       id="sprite1"
       transform="translate(5.4,4)">
      <use
         ffdec:characterId="43"
         height="8"
         transform="translate(-5.4,-4)"
         width="10.8"
         xlink:href="#shape1"
         id="use6" />
    </g>
    <g
       id="shape1"
       transform="translate(5.4,4)">
      <path
         d="m 2.9,-0.35 q 0,-1.25 1.25,-1.25 1.25,0 1.25,1.2 0,1.3 -1.25,1.3 Q 3.6,0.9 3.25,0.5 2.9,0.15 2.9,-0.35 m 0.35,-2.3 q 0,0.55 -0.35,0.9 -0.4,0.45 -1,0.45 -1.35,0 -1.35,-1.4 0,-1.3 1.35,-1.3 1.35,0 1.35,1.35 m -3.1,1.9 h 0.2 q 2.6,0.1 2.6,2.8 l -0.3,1 Q 2.05,4 0.45,4 H 0.35 0.15 0.1 -0.45 q -1.6,0 -2.2,-0.95 l -0.3,-1 q 0,-2.8 2.8,-2.8 h 0.3 M -1.55,-4 q 1.35,0 1.35,1.35 0,0.55 -0.4,0.9 -0.4,0.45 -0.95,0.45 -1.4,0 -1.4,-1.4 0,-1.3 1.4,-1.3 m -2.6,2.4 q 1.25,0 1.25,1.25 0,0.5 -0.35,0.85 -0.35,0.4 -0.9,0.4 -1.25,0 -1.25,-1.3 0,-1.2 1.25,-1.2"
         fill="#6b6b6b"
         fill-rule="evenodd"
         stroke="none"
         id="path7" />
    </g>
  </defs>
</svg>
