<?xml version="1.0" encoding="UTF-8" standalone="no"?>
<svg
   ffdec:objectType="frame"
   height="108.95525"
   width="77.405266"
   version="1.1"
   id="svg63"
   sodipodi:docname="2.svg"
   xmlns:inkscape="http://www.inkscape.org/namespaces/inkscape"
   xmlns:sodipodi="http://sodipodi.sourceforge.net/DTD/sodipodi-0.dtd"
   xmlns:xlink="http://www.w3.org/1999/xlink"
   xmlns="http://www.w3.org/2000/svg"
   xmlns:svg="http://www.w3.org/2000/svg"
   xmlns:ffdec="https://www.free-decompiler.com/flash">
  <sodipodi:namedview
     id="namedview63"
     pagecolor="#ffffff"
     bordercolor="#000000"
     borderopacity="0.25"
     inkscape:showpageshadow="2"
     inkscape:pageopacity="0.0"
     inkscape:pagecheckerboard="0"
     inkscape:deskcolor="#d1d1d1"
     fit-margin-top="5"
     fit-margin-left="5"
     fit-margin-right="5"
     fit-margin-bottom="5" />
  <g
     transform="translate(40.101163,72.684138)"
     id="g19">
    <use
       ffdec:characterId="1059"
       height="35.400002"
       transform="translate(-27.5,-30.4)"
       width="54.75"
       xlink:href="#shape0"
       id="use1" />
    <use
       ffdec:characterId="69"
       height="1.5"
       id="subplatform1"
       transform="matrix(0.0535,0,0.0977,0.86,-34.9305,-33.43)"
       width="1320.3"
       xlink:href="#sprite0" />
    <use
       ffdec:characterId="1003"
       height="39.900002"
       transform="matrix(-0.4983,-0.5743,-0.5743,0.4983,21.0934,-46.1884)"
       width="16.200001"
       xlink:href="#sprite1"
       id="use2" />
    <use
       ffdec:characterId="1061"
       height="46.049999"
       transform="matrix(-0.6772,-0.3456,-0.3456,0.6772,6.3752,-62.4021)"
       width="17.549999"
       xlink:href="#sprite2"
       id="use3" />
    <use
       ffdec:characterId="1003"
       height="39.900002"
       transform="matrix(-0.6772,-0.3456,-0.3456,0.6772,11.6308,-56.1112)"
       width="16.200001"
       xlink:href="#sprite1"
       id="use4" />
    <use
       ffdec:characterId="997"
       height="52.900002"
       transform="matrix(-0.7233,0.2344,0.2344,0.7233,-21.0933,-74.4683)"
       width="14.4"
       xlink:href="#sprite3"
       id="use5" />
    <use
       ffdec:characterId="991"
       height="48.299999"
       transform="matrix(-0.7593,0.0393,0.0393,0.7593,-6.1706,-66.1677)"
       width="16.799999"
       xlink:href="#sprite4"
       id="use6" />
    <use
       ffdec:characterId="999"
       height="25.049999"
       transform="matrix(-0.6772,-0.3456,-0.3456,0.6772,1.216,-44.8762)"
       width="11.8"
       xlink:href="#sprite5"
       id="use7" />
    <use
       ffdec:characterId="1022"
       height="51.450001"
       transform="matrix(-0.6379,0.4137,0.4137,0.6379,-27.0871,-64.0784)"
       width="22.4"
       xlink:href="#sprite6"
       id="use8" />
    <use
       ffdec:characterId="1007"
       height="25.450001"
       transform="matrix(-0.6075,0,0,0.6912,29.1455,1.0717)"
       width="62.700001"
       xlink:href="#sprite7"
       id="use9" />
    <use
       ffdec:characterId="1007"
       height="25.450001"
       transform="matrix(0.6075,0,0,0.6912,-28.7455,1.0717)"
       width="62.700001"
       xlink:href="#sprite7"
       id="use10" />
    <use
       ffdec:characterId="989"
       height="95.550003"
       transform="matrix(0.9262,0,0,0.7076,20.6698,-32.7855)"
       width="16.799999"
       xlink:href="#sprite8"
       id="use11" />
    <use
       ffdec:characterId="1063"
       height="27.450001"
       transform="matrix(-0.7593,0.0393,0.0393,0.7593,-9.9546,-49.6003)"
       width="12.65"
       xlink:href="#sprite9"
       id="use12" />
    <use
       ffdec:characterId="1009"
       height="25.299999"
       transform="matrix(-0.5647,-0.5091,-0.5091,0.5647,10.2529,-41.2422)"
       width="11.25"
       xlink:href="#sprite10"
       id="use13" />
    <use
       ffdec:characterId="989"
       height="95.550003"
       transform="matrix(0.9262,0,0,0.7076,-36.6802,-32.7855)"
       width="16.799999"
       xlink:href="#sprite8"
       id="use14" />
    <use
       ffdec:characterId="1001"
       height="5.8000002"
       transform="matrix(1.145,0,0,0.9262,-37.3499,-34.0249)"
       width="65.199997"
       xlink:href="#sprite11"
       id="use15" />
    <use
       ffdec:characterId="1011"
       height="15.45"
       transform="matrix(0.9221,0,0,0.9221,-36.9226,-16.2998)"
       width="16.1"
       xlink:href="#sprite12"
       id="use16" />
    <use
       ffdec:characterId="1011"
       height="15.45"
       transform="matrix(0.9221,0,0,0.9221,20.9774,-16.2998)"
       width="16.1"
       xlink:href="#sprite12"
       id="use17" />
    <use
       ffdec:characterId="44"
       height="8"
       transform="matrix(0.866,-0.5,0.5,0.866,7.2235,-4.5142)"
       width="10.8"
       xlink:href="#sprite13"
       id="use18" />
    <use
       ffdec:characterId="1065"
       height="71.650002"
       transform="translate(-40.1,-35.4)"
       width="60"
       xlink:href="#sprite14"
       id="use19" />
  </g>
  <defs
     id="defs63">
    <g
       id="shape0"
       transform="translate(27.5,30.4)">
      <path
         d="m -8.5,-24.4 q 1.8,-1.95 4.7,-3.65 3.45,-1.95 6.5,-2.25 3.2,-0.3 4.05,1.45 l 4.05,-0.75 3.75,-0.8 1.4,0.4 q 0.95,0.45 1.2,0.4 l 4.8,-0.45 q 3,0 4.05,5.3 l 0.5,5.4 -0.1,4.4 q -0.2,2.25 -1.2,4.8 v 3.3 l 0.5,0.15 q 1.05,0.65 1.4,3.25 l 0.15,3.75 q 0,2.15 -1.6,4.7 H -27.5 l 0.1,-0.15 q 0.1,-2.8 1.45,-5.7 h -1.2 v -29 h 10 V -5 l 0.8,-0.4 h 0.05 l 0.05,-0.05 q 1.95,-1.25 2.95,-2.6 0.65,-0.9 1.05,-1.95 l 0.2,0.15 0.7,0.6 26.25,-0.05 h 0.65 l 2.85,-0.3 h 0.05 0.3 l 0.05,-0.05 0.2,-0.1 0.15,-0.1 0.3,-0.2 0.15,-2.7 v -0.35 l 0.1,-6.05 q 0,-2.7 -0.3,-4 l 0.05,-0.1 -0.05,-0.05 q -0.4,-1.4 -1.05,-1.35 -0.45,0.05 -0.75,0.7 L 9.85,-24.6 q -8.55,0.3 -11.75,0.2 h -6.6 m -3.45,13.45 q 0.5,-2.1 0.2,-4.7 -0.35,-3.4 1.3,-6.25 H -10 l -0.3,0.9 q 0,0.8 0.2,1.1 0.35,0.6 1.6,0.65 L 8.55,-19.1 17,-19.5 v 0.35 l 0.05,3.8 0.05,0.85 q 0.15,2.35 0.45,3.6 l -26.7,-0.35 -2.8,0.3 m 25.3,-3.8 q 0.55,-0.8 0.55,-1.45 0,-2.35 -2.5,-2.5 -2.55,-0.1 -2.55,2.5 0,0.6 0.5,1.3 0.65,1.2 2.05,1.2 1.2,0 1.95,-1.05 m -27.2,17.95 0.1,-0.8 -0.65,0.8 h 0.55"
         fill="#c2c2c2"
         fill-rule="evenodd"
         stroke="none"
         id="path19" />
      <path
         d="m -10,-21.9 8.1,-0.1 15.3,0.1 3.8,-0.35 -0.2,2.75 -8.45,0.4 -17.05,-0.15 q -1.25,-0.05 -1.6,-0.65 -0.2,-0.3 -0.2,-1.1 l 0.3,-0.9"
         fill="#e0e0e0"
         fill-rule="evenodd"
         stroke="none"
         id="path20" />
      <path
         d="m -12.25,-10 -0.15,-0.35 0.45,-0.6 2.8,-0.3 26.7,0.35 q -0.3,-1.25 -0.45,-3.6 l -0.05,-0.85 -0.05,-3.8 v -0.35 l 0.2,-2.75 -3.8,0.35 -15.3,-0.1 -8.1,0.1 h -0.45 -4.35 q -1.3,-0.5 -1.3,-1.35 l 0.35,-0.5 0.95,-0.7 6.3,0.05 h 6.6 q 3.2,0.1 11.75,-0.2 l 7.75,0.65 q 0.3,-0.65 0.75,-0.7 0.65,-0.05 1.05,1.35 l 0.05,0.05 -0.05,0.1 q 0.3,1.3 0.3,4 l -0.1,6.05 v 0.35 l -0.15,2.7 -0.3,0.2 -0.15,0.1 -0.2,0.1 -0.05,0.05 h -0.3 -0.05 l -2.85,0.3 H 14.9 l -26.25,0.05 -0.7,-0.6 -0.2,-0.15 m 25.6,-4.75 q -0.75,1.05 -1.95,1.05 -1.4,0 -2.05,-1.2 -0.5,-0.7 -0.5,-1.3 0,-2.6 2.55,-2.5 2.5,0.15 2.5,2.5 0,0.65 -0.55,1.45"
         fill="#6b6b6b"
         fill-rule="evenodd"
         stroke="none"
         id="path21" />
    </g>
    <g
       id="sprite0"
       transform="translate(660.25,0.5)">
      <use
         ffdec:characterId="68"
         height="1.5"
         transform="translate(-660.25,-0.5)"
         width="1320.3"
         xlink:href="#shape1"
         id="use21" />
    </g>
    <g
       id="shape1"
       transform="translate(660.25,0.5)">
      <path
         d="m 659.3,-0.5 0.55,0.25 0.2,0.5 -0.2,0.55 L 659.3,1 H -659.5 l -0.5,-0.2 -0.25,-0.55 0.25,-0.5 0.5,-0.25 H 659.3"
         fill="#ffff00"
         fill-opacity="0"
         fill-rule="evenodd"
         stroke="none"
         id="path22" />
    </g>
    <g
       id="sprite1"
       transform="translate(8.1,19.95)">
      <use
         ffdec:characterId="1002"
         height="39.900002"
         transform="translate(-8.1,-19.95)"
         width="16.200001"
         xlink:href="#shape2"
         id="use22" />
    </g>
    <g
       id="shape2"
       transform="translate(8.1,19.95)">
      <path
         d="M 1.4,11.05 Q 3.9,9.6 3.9,4.55 V 4.4 L 5.65,4.65 Q 5.2,6.8 3.5,9 L 2,10.95 1.4,11.05 M 3.8,2.25 3.5,-0.55 2.95,-4.85 2.25,-7.8 1.7,-10.3 q 3.6,6.45 4.05,12 L 3.9,2.2 3.8,2.25 m -9.05,-1.95 0.4,3.75 0.6,4 1.25,2.7 0.25,0.3 0.45,0.4 -0.05,0.05 -1.55,-0.95 Q -6.3,8.8 -6.3,4.4 l 0.05,-1.75 0.6,-1.6 0.4,-0.75 M -1.1,11.95 -0.6,12 v 0.15 0.3 5.15 l 0.1,0.5 -1.35,-0.15 0.7,-5.35 0.05,-0.65 M 5.8,2.9 V 3.1 3.7 L 4.05,3.4 5.8,2.9"
         fill="#c6c6c6"
         fill-rule="evenodd"
         stroke="none"
         id="path23" />
      <path
         d="M 1,11.35 V 11.25 11.1 9.15 L 0.9,6.1 0.45,-0.3 0.05,-7 -0.05,-8.1 0,-8.6 l -0.65,0.35 -0.3,0.9 v 0.2 l 0.2,1.55 V 4.75 l 0.1,2.25 0.05,0.9 0.05,0.35 0.1,1.2 0.05,0.55 -0.1,0.75 -0.05,0.9 -0.05,0.35 -0.5,-0.05 0.05,-0.3 0.1,-1.55 V 8.9 8.85 L -1.15,7.9 -1.4,7.5 -1.75,8.7 -2.3,11.35 v 0.1 l -0.45,-0.4 -0.25,-0.3 -1.25,-2.7 -0.6,-4 -0.4,-3.75 -0.05,-0.45 0.8,-2.65 q 1.65,-5.7 1.65,-6.95 l 0.85,-5.2 0.5,-0.4 1.05,1.75 2.05,3.1 0.1,0.2 0.55,2.5 0.7,2.95 0.55,4.3 0.3,2.8 Q 3.15,2.4 2.8,2.6 L 2.7,2.65 Q 2.2,2.85 2.2,3.1 v 0.05 q -1,-0.05 -1,0.4 0,0.4 0.15,0.45 L 1.75,4.15 2.05,4.2 2.8,4.25 3.9,4.4 v 0.15 q 0,5.05 -2.5,6.5 L 1.2,11.2 1,11.35"
         fill="#d2d2d2"
         fill-rule="evenodd"
         stroke="none"
         id="path24" />
      <path
         d="M 7.5,-2.75 Q 8.1,-0.3 8.1,3.1 8.1,6.9 6.75,9.65 5.1,13 2.1,13 H 1.9 l -0.9,0.55 0.2,3.4 -0.3,1 Q 0.55,18.6 0.15,18.6 H 0 L 0.1,19 q 0,0.6 -0.6,0.85 l -1.45,0.1 q -1.15,0 -1.5,-0.5 l -0.1,-0.5 q 0,-1.2 0.8,-5.3 h -0.1 q -2.4,0 -4.05,-2.6 -1.2,-1.85 -1.2,-2.8 0,-2.15 0.6,-5.6 L -7.35,2 V 1.95 L -7.5,1.1 q 0,-1.45 1,-6 l 1.2,-5 0.65,-2.7 0.9,-2.85 q 0,-2.4 1.05,-3.95 0.9,-1.3 1.05,0.35 l 1.75,1.65 q 2.45,3.15 4.95,8.7 1.75,2.9 2.45,5.95 M -0.6,12 -0.55,11.65 -0.5,10.75 -0.4,10 -0.45,9.45 -0.55,8.25 -0.6,7.9 -0.65,7 -0.75,4.75 V -5.6 l -0.2,-1.55 v -0.2 l 0.3,-0.9 L 0,-8.6 -0.05,-8.1 0.05,-7 0.45,-0.3 0.9,6.1 1,9.15 v 1.95 0.15 0.1 0.5 L 1.45,11.65 2,10.95 3.5,9 Q 5.2,6.8 5.65,4.65 L 3.9,4.4 2.8,4.25 2.05,4.2 1.75,4.15 1.35,4 Q 1.2,3.95 1.2,3.55 1.2,3.1 2.2,3.15 V 3.1 Q 2.2,2.85 2.7,2.65 L 2.8,2.6 Q 3.15,2.4 3.8,2.25 L 3.9,2.2 5.75,1.7 Q 5.3,-3.85 1.7,-10.3 l -0.1,-0.2 -2.05,-3.1 -1.05,-1.75 -0.35,-0.55 -0.15,0.95 -0.85,5.2 q 0,1.25 -1.65,6.95 l -0.8,2.65 -0.35,1.2 -0.6,1.6 -0.05,1.75 q 0,4.4 2.4,6.15 l 1.55,0.95 0.05,-0.05 v -0.1 l 0.55,-2.65 0.35,-1.2 0.25,0.4 0.2,0.95 v 0.05 1.2 l -0.1,1.55 -0.05,0.3 -0.05,0.65 -0.7,5.35 1.35,0.15 -0.1,-0.5 V 12.45 12.15 12 M 5.8,2.9 4.05,3.4 5.8,3.7 V 3.1 2.9"
         fill="#9a9a9a"
         fill-rule="evenodd"
         stroke="none"
         id="path25" />
    </g>
    <g
       id="sprite2"
       transform="translate(8.75,23)">
      <use
         ffdec:characterId="1060"
         height="46.049999"
         transform="translate(-8.75,-23)"
         width="17.549999"
         xlink:href="#shape3"
         id="use25" />
    </g>
    <g
       id="shape3"
       transform="translate(8.75,23)">
      <path
         d="m 0.65,-21.8 0.15,-0.1 v -0.15 l -0.15,0.25 m 2.4,1.95 q 1.75,3.95 3.5,9.35 0.95,3 1.55,7 0.7,4.15 0.7,7.3 0,2.45 -1,5.75 -1.6,5.25 -4.65,5.4 v 0.6 2.7 2.8 q -0.45,2 -2.85,2 -1.65,0 -2.2,-1.05 -0.35,-0.75 -0.35,-2.65 0.1,-4.7 -1.8,-6.35 Q -6.8,10.5 -7.9,8.05 -8.75,6 -8.75,3.05 q 0,-9.35 1,-13.1 1.55,-5.7 5.9,-9.75 l 0.95,-1.25 q 2.1,-2.5 2.25,-1.8 v 0.05 q 0.6,0.4 1.7,2.95 M 2.65,11.05 2.7,12.4 4.05,10.35 Q 6.3,6.85 6.3,3.55 6.3,-3.1 3.6,-12.45 1.5,-18.6 1,-20.7 l -1.75,2.7 q -2.6,4 -3.5,6.6 -1.05,3.05 -1.45,6.1 l -0.05,0.1 v 0.15 l -0.3,3.8 v 0.3 q 0,3.9 0.3,5.5 0.65,3.65 3.05,5.2 l 0.55,0.4 1.2,1.05 0.1,-1.85 L -0.8,7.9 -0.75,6.7 -0.7,4.6 -0.65,0.35 v -0.2 -1.4 l 0.2,-5.8 0.35,-3.65 0.1,-0.7 0.4,-1.45 0.1,0.05 0.05,0.1 0.05,0.45 -0.05,1 -0.4,3.65 q 0,2.85 0.35,9.7 l 0.1,2 0.1,1.85 V 6 l 0.2,3.4 v 0.35 0.1 L 0.75,12.25 0.6,13.9 0.75,15.1 0.6,17.8 q -0.1,1.65 0.2,2.75 H 1.15 L 1.05,17.05 0.9,13.6 Q 1.05,13.15 1.45,13 V 12.1 L 1.4,10.45 1.5,8.4 1.6,6.1 1.65,5.85 1.95,1.9 l 0.4,3.45 0.3,5.7"
         fill="#9a9a9a"
         fill-rule="evenodd"
         stroke="none"
         id="path26" />
      <path
         d="M 2.65,11.05 Q 3.25,10.2 3.55,8.8 L 3.85,4.85 3.7,0.65 3.25,-5.4 q -0.4,-2.25 -1,-3.65 -0.55,-3.2 -1.4,-5 l 0.7,-2.25 q 0,-3 -1.65,-1.85 -1.4,1 -2.25,2.95 l -1.95,4.7 -1.4,5.2 q 0.4,-3.05 1.45,-6.1 0.9,-2.6 3.5,-6.6 L 1,-20.7 q 0.5,2.1 2.6,8.25 2.7,9.35 2.7,16 0,3.3 -2.25,6.8 L 2.7,12.4 2.65,11.05 m -8.7,-12 1.6,3.8 1.65,2.65 0.1,0.6 0.75,1.95 -0.25,1.7 0.05,0.4 -0.55,-0.4 q -2.4,-1.55 -3.05,-5.2 -0.3,-1.6 -0.3,-5.5 m 6.8,13.2 0.7,-0.15 V 13 q -0.4,0.15 -0.55,0.6 l 0.15,3.45 0.1,3.5 H 0.8 Q 0.5,19.45 0.6,17.8 L 0.75,15.1 0.6,13.9 0.75,12.25"
         fill="#c6c6c6"
         fill-rule="evenodd"
         stroke="none"
         id="path27" />
      <path
         d="m -5.7,-5.3 1.4,-5.2 1.95,-4.7 q 0.85,-1.95 2.25,-2.95 1.65,-1.15 1.65,1.85 l -0.7,2.25 q 0.85,1.8 1.4,5 0.6,1.4 1,3.65 L 3.7,0.65 3.85,4.85 3.55,8.8 q -0.3,1.4 -0.9,2.25 L 2.35,5.35 1.95,1.9 1.65,5.85 1.6,6.1 1.5,8.4 1.4,10.45 1.45,12.1 0.75,12.25 0.9,9.85 V 9.75 9.4 L 0.7,6 V 5.95 L 0.6,4.1 0.5,2.1 Q 0.15,-4.75 0.15,-7.6 l 0.4,-3.65 0.05,-1 -0.05,-0.45 -0.05,-0.1 -0.1,-0.05 -0.4,1.45 -0.1,0.7 -0.35,3.65 -0.2,5.8 v 1.4 0.2 L -0.7,4.6 -0.75,6.7 -0.8,7.9 -0.85,9.35 -0.95,11.2 -2.15,10.15 -2.2,9.75 -1.95,8.05 -2.7,6.1 -2.8,5.5 -4.45,2.85 l -1.6,-3.8 v -0.3 l 0.3,-3.8 V -5.2 l 0.05,-0.1"
         fill="#d2d2d2"
         fill-rule="evenodd"
         stroke="none"
         id="path28" />
    </g>
    <g
       id="sprite3"
       transform="translate(7.2,26.45)">
      <use
         ffdec:characterId="996"
         height="52.900002"
         transform="translate(-7.2,-26.45)"
         width="14.4"
         xlink:href="#shape4"
         id="use28" />
    </g>
    <g
       id="shape4"
       transform="translate(7.2,26.45)">
      <path
         d="M 1.55,-18.65 1.5,-18.8 0.9,-21.65 0.35,-24.6 -2.1,-19.05 Q -5,-11.85 -5,-9.3 l 0.25,6.45 0.15,5.1 0.55,2.85 0.95,3.35 0.7,2.2 0.35,1.2 0.1,-1 0.3,-5.35 0.3,-9.5 q 0.05,-5.05 1.1,-8.2 l 0.3,-0.85 0.1,0.85 0.05,0.65 -0.15,12.1 1.7,-0.7 L 2,-0.3 2.95,-0.65 4.75,-1.25 Q 4.45,-5.1 2.95,-12.2 l -0.4,-1.75 -1,-4.7 m 3.65,4.85 0.3,1.6 0.4,2.2 0.8,4.15 q 0.5,2.5 0.5,6.55 0,4.75 -1.3,9.15 l -0.1,0.3 q -1.9,6.2 -5.6,6.2 l -0.35,-0.05 -0.05,2.1 -0.3,3.9 q -0.25,1.95 -0.65,2.65 l 0.15,0.3 q 0,1.2 -1.25,1.2 -1.2,0 -2.25,-1.15 L -5.3,24.1 -4.05,18.65 -3.1,14.95 -4.05,14.2 -5.3,11.65 -6.65,6.8 Q -7.2,4 -7.2,-1.35 l 0.15,-6.45 q 0.3,-3.75 1.3,-6.15 l 2.3,-6.45 q 1.4,-3.65 3.7,-5.45 0.1,-2.05 2,2.75 1.75,4.65 2.95,9.3 m -5.3,24.6 v 0.15 3.2 L 0.05,14.05 1.2,12.6 Q 3.5,9.95 3.95,7.9 L 4.45,4.9 4.5,4.45 4.75,2.5 2.75,2.6 H 1.1 0.2 L 0.05,2.55 -0.1,10.8 M 2.8,1.9 h 2 L 4.85,0.8 V -0.35 L 2.9,0.5 1.6,1 0.05,1.5 v 0.4 h 1.3 1.45 m -5.4,20.4 0.15,-3.3 -0.6,3.3 -0.1,1.05 0.45,0.45 0.1,-1.5"
         fill="#9a9a9a"
         fill-rule="evenodd"
         stroke="none"
         id="path29" />
      <path
         d="m 0.9,-21.65 q -1,-1.3 -1.75,1.45 -0.7,2.5 -0.7,4.3 l 0.05,0.5 -1,2.4 -0.3,0.8 -1.25,4.55 L -4.2,-6.9 -4.75,-2.85 -5,-9.3 q 0,-2.55 2.9,-9.75 l 2.45,-5.55 0.55,2.95 m 2.05,21 0.15,-2.9 q 0,-5 -0.6,-8.65 -0.5,-3 -1.4,-5.1 l 0.45,-1.35 1,4.7 0.4,1.75 q 1.5,7.1 1.8,10.95 l -1.8,0.6 M 2.75,2.6 4.75,2.5 4.5,4.45 4.45,4.9 3.95,7.9 Q 3.5,9.95 1.2,12.6 l -1.15,1.45 -0.15,0.1 V 10.95 10.8 Q 1.2,10.15 1.95,7.45 2.4,6 2.65,3.95 L 2.75,2.6 M 2.9,0.5 4.85,-0.35 V 0.8 L 4.8,1.9 h -2 L 2.9,0.5 m -5.5,21.8 -0.1,1.5 -0.45,-0.45 0.1,-1.05 0.6,-3.3 -0.15,3.3"
         fill="#c6c6c6"
         fill-rule="evenodd"
         stroke="none"
         id="path30" />
      <path
         d="m 0.9,-21.65 0.6,2.85 0.05,0.15 -0.45,1.35 q 0.9,2.1 1.4,5.1 0.6,3.65 0.6,8.65 L 2.95,-0.65 2,-0.3 l -0.25,0.15 -1.7,0.7 0.15,-12.1 -0.05,-0.65 -0.1,-0.85 -0.3,0.85 q -1.05,3.15 -1.1,8.2 l -0.3,9.5 -0.3,5.35 -0.45,-0.2 -0.7,-2.2 -0.95,-3.35 -0.55,-2.85 -0.15,-5.1 0.55,-4.05 0.15,-0.75 1.25,-4.55 0.3,-0.8 1,-2.4 -0.05,-0.5 q 0,-1.8 0.7,-4.3 0.75,-2.75 1.75,-1.45 M 2.75,2.6 2.65,3.95 Q 2.4,6 1.95,7.45 1.2,10.15 -0.1,10.8 L 0.05,2.55 0.2,2.6 H 1.1 2.75 M 2.9,0.5 2.8,1.9 H 1.35 0.05 V 1.5 L 1.6,1 2.9,0.5"
         fill="#d2d2d2"
         fill-rule="evenodd"
         stroke="none"
         id="path31" />
    </g>
    <g
       id="sprite4"
       transform="translate(8.4,24.15)">
      <use
         ffdec:characterId="990"
         height="48.299999"
         transform="translate(-8.4,-24.15)"
         width="16.799999"
         xlink:href="#shape5"
         id="use31" />
    </g>
    <g
       id="shape5"
       transform="translate(8.4,24.15)">
      <path
         d="m 1.6,-19.1 0.05,0.15 1.15,3.65 0.25,7.55 -0.15,4.9 v 1.8 L 2.8,0.3 2.75,0.8 Q 2.35,4.5 1.4,6.45 l 0.05,-0.9 0.15,-3 0.35,-8.05 -0.3,-2.25 q -0.6,2.1 -0.8,6.6 l -0.3,4.35 -0.4,2.55 -0.3,1.9 -0.1,0.75 -0.2,1.25 q -0.65,0.9 -1.4,1.15 V 10.7 L -1.95,9.8 -2.05,8.6 -2.1,8.4 -2.15,8 -2.3,7.1 H -2.55 L -2.75,8.4 -2.95,9.45 -3,9.95 -3.15,10.7 -3.95,10 -4.25,9.1 -3.9,7.45 -3.95,7.35 -4.4,6 -4.2,1.25 -2.85,0.7 -2.65,0.5 -3,0.3 -4.1,0.05 -4,-0.7 l 0.6,-0.1 2.3,-0.5 -0.25,-0.3 -0.3,-0.05 -2.05,-0.1 h -0.2 q 0.85,-6.8 3.25,-13.75 l 0.25,-0.7 q 1.1,-2.95 1.9,-2.9 h 0.1"
         fill="#d2d2d2"
         fill-rule="evenodd"
         stroke="none"
         id="path32" />
      <path
         d="M 2.8,-15.3 1.65,-18.95 1.6,-19.1 1.55,-19.25 0.7,-21.35 H 0.5 l -3.2,9.5 q -2.4,7.3 -2.9,10.3 l 1.35,-0.1 v -0.1 h 0.35 0.2 l 2.05,0.1 0.3,0.05 0.25,0.3 -2.3,0.5 -0.6,0.1 -0.85,0.1 -0.9,0.05 -0.05,0.4 0.05,0.35 H -5.7 L -4.1,0.05 -3,0.3 -2.65,0.5 -2.85,0.7 -4.2,1.25 -5.3,1.4 -5.15,1.7 q 0.7,1 0.7,1.9 0,1 -0.85,1.9 -0.85,0.85 -0.85,1.25 0,2.05 1.9,4.5 l 0.8,1.1 0.3,-1.65 0.15,-0.75 0.05,-0.5 0.2,-1.05 0.2,-1.3 h 0.25 l 0.15,0.9 0.05,0.4 0.05,0.2 0.1,1.2 0.1,0.9 v 0.1 l 0.1,0.75 0.1,1.2 v 0.3 q 0,1.35 -1.05,7.05 l 1.15,0.05 V 19.4 L -0.8,12.6 -0.75,12.1 -0.7,11.65 -0.45,9.7 V 9.65 l 0.2,-1.25 0.1,-0.75 0.3,-1.9 0.4,-2.55 0.3,-4.35 q 0.2,-4.5 0.8,-6.6 l 0.3,2.25 -0.35,8.05 -0.15,3 -0.05,0.9 -0.1,1 -0.3,3.8 0.55,-0.8 Q 3.4,7.95 4.65,5.35 L 5.2,1.95 5.55,-1.8 q 0,-2.95 -1.9,-10.25 L 2.8,-15.3 m 5.6,13.4 q 0,4.3 -1.9,9.4 -2.35,6.05 -5.45,6.05 L 0.7,13.5 0.4,15.3 0.2,16.85 0.6,21.3 0.4,23.2 q -0.45,0.95 -1.95,0.95 -1.8,0 -2.7,-0.75 -0.6,-0.5 -0.6,-1.05 l 1.05,-7.8 Q -6.9,14.4 -7.95,11.55 -8.4,10.25 -8.4,8 q 0,-1.15 0.85,-2.7 l 0.8,-1.55 q 0,-0.25 -0.75,-1.6 L -7.8,1.4 H -7.9 L -7.95,1.25 H -7.9 L -8.25,-0.2 q 0,-4.4 2.6,-12.75 2.7,-8.65 4.9,-10.5 3.7,-3.1 6.75,7.75 2.4,8.55 2.4,13.8 m -9.75,23.65 0.1,-0.05 0.05,-0.2 0.05,-0.05 -0.15,0.05 -0.95,0.15 0.6,0.1 h 0.3"
         fill="#9a9a9a"
         fill-rule="evenodd"
         stroke="none"
         id="path33" />
      <path
         d="m 1.5,-19.1 q -0.8,-0.05 -1.9,2.9 l -0.25,0.7 q -2.4,6.95 -3.25,13.75 h -0.35 v 0.1 l -1.35,0.1 q 0.5,-3 2.9,-10.3 l 3.2,-9.5 h 0.2 l 0.85,2.1 -0.05,0.15 M -4,-0.7 -4.1,0.05 -5.7,0.2 H -5.75 L -5.8,-0.15 -5.75,-0.55 -4.85,-0.6 -4,-0.7 M -4.2,1.25 -4.4,6 l 0.45,1.35 0.05,0.1 -0.35,1.65 0.3,0.9 0.8,0.7 -0.3,1.65 -0.8,-1.1 q -1.9,-2.45 -1.9,-4.5 0,-0.4 0.85,-1.25 0.85,-0.9 0.85,-1.9 0,-0.9 -0.7,-1.9 L -5.3,1.4 -4.2,1.25 m 2.35,9.55 q 0.75,-0.25 1.4,-1.15 V 9.7 l -0.25,1.95 -0.05,0.45 -0.05,0.5 -0.75,6.8 v 0.75 L -2.7,20.1 q 1.05,-5.7 1.05,-7.05 v -0.3 l -0.1,-1.2 -0.1,-0.75 M 1.4,6.45 Q 2.35,4.5 2.75,0.8 L 2.8,0.3 2.9,-1.05 v -1.8 l 0.15,-4.9 -0.25,-7.55 0.85,3.25 q 1.9,7.3 1.9,10.25 L 5.2,1.95 4.65,5.35 q -1.25,2.6 -3.1,5.1 l -0.55,0.8 0.3,-3.8 0.1,-1 m -2.7,15.05 -0.05,0.25 h -0.3 l -0.6,-0.1 0.95,-0.15"
         fill="#c6c6c6"
         fill-rule="evenodd"
         stroke="none"
         id="path34" />
    </g>
    <g
       id="sprite5"
       transform="translate(5.9,12.5)">
      <use
         ffdec:characterId="998"
         height="25.049999"
         transform="translate(-5.9,-12.5)"
         width="11.8"
         xlink:href="#shape6"
         id="use34" />
    </g>
    <g
       id="shape6"
       transform="translate(5.9,12.5)">
      <path
         d="m 1.7,-9.8 0.1,0.3 0.7,1.85 1.1,3.05 0.4,1.25 -1.25,1.3 -0.8,0.2 -0.65,0.25 -0.25,0.35 -0.1,0.1 -0.2,0.3 0.05,-0.5 V -1.6 -1.85 l 0.05,-2.4 v -1.1 q 0,-0.5 -0.4,-1.1 l -0.6,2.55 -0.2,1.35 L -0.4,-2.2 -0.5,-1.75 -0.9,1.7 -1,2.45 -1.35,2.1 -1.45,2.15 q -1.65,0 -2.2,-0.9 L -3.9,0.4 V 0.15 q 0,-1.85 0.9,-4.05 l 1.9,-3.2 0.85,-1.35 0.5,-0.5 Q 1.05,-9.65 1.7,-9.8 M 0.65,2.8 0.7,0.75 0.75,0.05 V -0.6 L 1.1,-0.35 1.4,-0.2 1.5,1 q 0,1.5 -0.85,1.8"
         fill="#d2d2d2"
         fill-rule="evenodd"
         stroke="none"
         id="path35" />
      <path
         d="M 4,-3.35 3.6,-4.6 2.5,-7.65 1.8,-9.5 1.7,-9.8 1.35,-10.95 -0.25,-8.45 -1.1,-7.1 -3,-3.9 q -1.1,1.95 -1.1,2.6 l 0.2,1.7 0.25,0.85 1.3,2.65 0.1,0.1 0.9,1.55 0.2,-1.55 0.1,-1.15 0.05,-0.4 0.1,-0.75 0.4,-3.45 0.1,-0.45 0.05,-0.35 0.2,-1.35 0.6,-2.55 q 0.4,0.6 0.4,1.1 v 1.1 l -0.05,2.4 v 0.25 0.25 l -0.05,0.5 0.2,-0.3 0.1,-0.1 0.25,-0.35 0.65,-0.25 0.8,-0.2 1.45,-0.5 -0.2,-0.8 m -1.6,-8.95 -0.3,0.35 1.45,2.2 q 2.35,4.1 2.35,7.5 0,1.05 -0.45,1.2 l -2.1,0.3 0.45,0.35 Q 5.2,0.05 5.65,1.05 L 5.8,2.3 5.5,4 4.95,5.25 q -1.2,2.4 -3.4,2.4 L 0.95,7.45 0.85,7.35 0.75,7.25 0.5,7.35 V 7.5 q -0.25,5.05 -1.25,5.05 -0.7,0 -0.9,-0.45 -0.6,-0.05 -0.8,-0.35 l -0.1,-0.4 0.6,-1.4 0.1,-0.1 V 8.45 L -1.8,7.75 Q -3.15,7.65 -4.65,4.65 L -4.95,4 Q -5.9,2 -5.9,1.3 q 0,-4.05 2.85,-8.9 2.25,-3.7 4.25,-4.5 0.05,-0.7 0.6,-0.2 H 2.4 M 1.4,-0.2 1.1,-0.35 0.75,-0.6 V 0.05 L 0.7,0.75 0.65,2.8 0.6,4 0.55,5.85 1.9,5.8 3.4,4.3 3.65,4 Q 4.3,3 4.3,2.1 4.3,1.5 2.7,0.55 L 1.4,-0.2"
         fill="#9a9a9a"
         fill-rule="evenodd"
         stroke="none"
         id="path36" />
      <path
         d="m 1.7,-9.8 q -0.65,0.15 -1.45,0.85 l -0.5,0.5 1.6,-2.5 0.35,1.15 M -3,-3.9 q -0.9,2.2 -0.9,4.05 V 0.4 l -0.2,-1.7 q 0,-0.65 1.1,-2.6 m -0.65,5.15 q 0.55,0.9 2.2,0.9 L -1.35,2.1 -1,2.45 -1.05,2.85 -1.15,4 -1.35,5.55 -2.25,4 -2.35,3.9 -3.65,1.25 m 6.4,-3.3 1.25,-1.3 0.2,0.8 -1.45,0.5 M 0.65,2.8 Q 1.5,2.5 1.5,1 L 1.4,-0.2 2.7,0.55 Q 4.3,1.5 4.3,2.1 4.3,3 3.65,4 L 3.4,4.3 1.9,5.8 0.55,5.85 0.6,4 0.65,2.8"
         fill="#c6c6c6"
         fill-rule="evenodd"
         stroke="none"
         id="path37" />
    </g>
    <g
       id="sprite6"
       transform="translate(11.2,25.7)">
      <use
         ffdec:characterId="1021"
         height="51.450001"
         transform="translate(-11.2,-25.7)"
         width="22.4"
         xlink:href="#shape7"
         id="use37" />
    </g>
    <g
       id="shape7"
       transform="translate(11.2,25.7)">
      <path
         d="m 1.55,10.15 0.05,-2.8 0.15,-6.1 0.05,-2.5 0.05,-3.2 -0.05,-7 q -0.15,-3.6 -0.65,-6.75 l -0.05,-0.25 -0.05,0.1 Q 0.7,-17.2 0.4,-12 l -0.05,0.8 -0.1,3 -0.1,3.7 0.05,1.2 0.05,6.95 V 4.5 L 0.3,8.05 v 0.8 0.25 1.35 H 0.25 l -1,-0.2 0.05,-0.2 V 9.2 L -0.55,5.9 V 5.8 L -0.5,3.25 -0.4,-0.2 v -1.95 l 0.1,-1.9 q -0.05,-1.85 -0.75,-2.3 l -0.25,4.25 0.15,12.2 h -0.2 q -0.95,0 -1.7,-1.6 L -3.6,6.9 -3.5,5.75 -4.7,3.35 -7.35,-2.5 q 0,-1.95 2.1,-8.75 l 2.35,-7.3 q 1.3,-3.9 3.65,-1.55 2.15,2.2 2.25,4.7 l 0.1,1.6 0.5,2.3 1.9,6.4 q 0.6,2.2 0.6,5.5 -1.65,8.3 -4.55,9.75"
         fill="#d2d2d2"
         fill-rule="evenodd"
         stroke="none"
         id="path38" />
      <path
         d="M 0.3,10.45 V 9.1 8.85 8.05 L 0.25,4.5 V 3.65 L 0.2,-3.3 0.15,-4.5 l 0.1,-3.7 0.1,-3 0.05,-0.8 q 0.3,-5.2 0.65,-6.35 l 0.05,-0.1 0.05,0.25 q 0.5,3.15 0.65,6.75 l 0.05,7 -0.05,3.2 -0.05,2.5 -0.15,6.1 -0.05,2.8 -0.1,3.6 L 1.5,13.7 4.35,11.15 Q 6.55,9.05 7.6,6.7 8.5,4.1 8.5,1.2 8.5,-6.3 5,-15.05 L 2.4,-20.7 1.9,-21.5 0,-24.4 q -0.45,0.95 -1.85,2.9 l -0.55,0.8 -2.6,5.65 q -3.5,8.75 -3.5,16.25 0,2.9 0.95,5.5 1.05,2.35 3.2,4.45 l 2.85,2.55 q 1.3,1.3 1.3,2.25 0,3.15 -0.15,5.05 L -0.6,23.45 0.1,23.4 0.65,23.45 0.35,21 Q 0.2,19.1 0.2,15.95 l 0.1,-0.5 v -5 M -1.15,10.1 -1.3,-2.1 -1.05,-6.35 q 0.7,0.45 0.75,2.3 l -0.1,1.9 V -0.2 L -0.5,3.25 -0.55,5.8 V 5.9 L -0.7,9.2 v 0.85 l -0.05,0.2 -0.05,1.35 h -0.35 v -1.5 m 7.25,-29.35 0.55,1.05 2.9,7.8 q 1.2,3.85 1.5,7.6 L 11.2,4.4 11,6.7 q -0.75,3.35 -4.15,6.4 L 3.9,15.85 q -1.35,1.5 -1.35,2.95 l 0.25,3.35 -0.15,1.8 0.3,0.7 q 0,0.65 -0.55,0.9 l -2.6,0.2 q -1.9,0 -2.4,-0.65 l -0.15,-0.5 0.15,-0.45 -0.15,-2 0.2,-3.35 q 0,-1.45 -1.35,-2.95 L -6.85,13.1 Q -10.25,10.05 -11,6.7 l -0.2,-2.3 0.15,-7.2 q 0.3,-3.75 1.55,-7.6 1.95,-5.9 2.85,-7.8 l 0.6,-1.05 q 2.7,-5.7 6,-6.45 h 0.1 q 3.3,0.75 6.05,6.45"
         fill="#9a9a9a"
         fill-rule="evenodd"
         stroke="none"
         id="path39" />
      <path
         d="m 0.3,10.45 v 5 l -0.1,0.5 Q 0.2,19.1 0.35,21 L 0.65,23.45 0.1,23.4 -0.6,23.45 -0.35,21 Q -0.2,19.1 -0.2,15.95 -0.2,15 -1.5,13.7 L -4.35,11.15 Q -6.5,9.05 -7.55,6.7 -8.5,4.1 -8.5,1.2 q 0,-7.5 3.5,-16.25 l 2.6,-5.65 0.55,-0.8 q 1.4,-1.95 1.85,-2.9 l 1.9,2.9 0.5,0.8 2.6,5.65 Q 8.5,-6.3 8.5,1.2 8.5,4.1 7.6,6.7 6.55,9.05 4.35,11.15 L 1.5,13.7 1.45,13.75 1.55,10.15 Q 4.45,8.7 6.1,0.4 6.1,-2.9 5.5,-5.1 L 3.6,-11.5 3.1,-13.8 3,-15.4 q -0.1,-2.5 -2.25,-4.7 -2.35,-2.35 -3.65,1.55 l -2.35,7.3 q -2.1,6.8 -2.1,8.75 l 2.65,5.85 1.2,2.4 -0.1,1.15 0.55,1.6 q 0.75,1.6 1.7,1.6 h 0.2 v 1.5 h 0.35 l 0.05,-1.35 1,0.2 H 0.3"
         fill="#c6c6c6"
         fill-rule="evenodd"
         stroke="none"
         id="path40" />
    </g>
    <g
       id="sprite7"
       transform="translate(31.35,12.7)">
      <use
         ffdec:characterId="1006"
         height="25.450001"
         transform="translate(-31.35,-12.7)"
         width="62.700001"
         xlink:href="#shape8"
         id="use40" />
    </g>
    <g
       id="shape8"
       transform="translate(31.35,12.7)">
      <path
         d="M -0.75,-7.15 -0.85,-8.2 -1,-8.95 H 1 L 0.95,-8.2 v 0.25 0.8 h -1.7 m 3.4,0 L 2.55,-8.2 2.4,-8.95 8.75,-9 l 19,0.05 0.45,0.15 h 0.3 v 0.1 0.05 0.95 0.05 0.9 h -0.1 q -0.55,0 -0.8,-0.5 l -0.05,-0.1 -24.9,0.2 m -21.85,2.85 0.2,1.35 q 0,2 -0.2,2.5 -0.6,1.5 -3,1.5 -2.45,0 -3.7,-2.3 -0.8,-1.45 -0.8,-2.6 l 0.15,-0.95 q 0.5,-1.65 2.95,-1.75 1.95,0.05 3.25,1.05 l 0.95,0.9 0.2,0.3 M -27.85,-7 -27.9,-8.95 h 17.1 l -0.25,0.5 -0.55,1.35 -7.35,0.05 -1.35,-0.6 Q -23.15,-8.6 -26.4,-7 h -1.45 m 25.9,-0.15 h -1.2 Q -3,-6.8 -3,-6.3 q 0,1.95 -3.05,2.1 h -0.4 q -2.05,0 -2.85,-1.15 -0.4,-0.6 -0.4,-1.3 l 0.05,-0.45 h -0.85 l 1.2,-1.85 h 7.6 l -0.1,0.8 -0.1,0.5 -0.05,0.5 M -12.7,3.15 h -0.35 -0.15 L -14.25,2 V 1.95 q -0.4,-0.5 -0.4,-1.05 0,-2.45 2.25,-1.55 l 0.1,0.05 q 1.15,0.45 1.7,1 v 0.45 q 0,0.75 -0.45,1.4 -0.55,0.8 -1.65,0.9"
         fill="#e0e0e0"
         fill-rule="evenodd"
         stroke="none"
         id="path41" />
      <path
         d="M 0.95,-7.15 V -7.95 -8.2 L 1,-8.95 h -2 l 0.15,0.75 0.1,1.05 v 0.9 1.65 L 1.35,-5.1 1,-6.15 l -0.05,-1 m 26.8,-1.8 -19,-0.05 -6.35,0.05 0.15,0.75 0.1,1.05 0.05,1.6 v 0.15 l 6.75,-1.05 h 19.1 L 28.5,-6.75 V -7.65 -7.7 -8.65 -8.7 -8.8 -8.95 h -0.75 m 1.55,-3.75 h 2.05 v 7.45 q -0.25,0.2 -0.6,0.3 -1.95,1.9 -6.1,1.25 H 12.6 Q 1.45,-2.9 -2,-0.75 q -1.6,0.95 -2.2,3.8 -0.35,1.5 -2.55,4.1 -2.7,3.2 -4.95,3.2 -4.4,0 -5.95,-0.75 -1.45,-0.7 -2.3,-0.75 l -0.2,0.05 -1.95,1.75 q -1.7,1.8 -3.55,1.8 h -0.65 l -2.05,0.3 -0.65,-0.05 -0.4,0.05 q -1.15,0 -1.5,-0.8 l -0.15,-0.9 0.15,-2.65 V -9.35 q -0.45,-0.45 -0.45,-1.3 0,-1.35 1.65,-1.75 h 58.8 l 0.2,-0.3 m -52.9,6.15 h -0.2 l -2.75,0.5 -1.3,0.35 0.1,15.8 0.4,-0.1 q 1.9,-0.3 3.5,-1.9 l 1.5,-1.7 0.35,-0.25 q 0.2,-1.95 1.85,-3.45 1.85,-1.75 1.85,-4.35 0,-1.4 -0.9,-2.65 l -0.2,-0.3 -0.95,-0.9 q -1.3,-1 -3.25,-1.05 m 12,-0.55 0.55,-1.35 0.25,-0.5 h -17.1 l 0.05,1.95 v 0.85 L -26.4,-7 q 3.25,-1.6 6.1,-0.65 l 1.35,0.6 0.35,0.2 q 2.3,1.6 2.3,5.15 0,2.3 -1.05,3.95 -0.85,1.35 -1.5,3.2 1.65,0.15 2.7,0.7 l 1.6,0.75 q 5.55,0 7.05,-3.15 0.65,-3.6 1.05,-4.5 h -0.1 L -8,-0.85 -9.25,-1.15 q 1,1.05 1,2.3 V 1.6 q -0.05,1.45 -0.45,2.15 -0.95,1.5 -3.75,1.5 -2.5,0 -3.45,-1.3 l -0.45,-1.4 q 0,-5.3 4.05,-5.05 l 1.15,0.25 -0.15,-0.2 q -0.85,-0.95 -0.85,-1.85 0,-1.3 0.55,-2.8 m 1.1,0 -0.25,1.25 q 0,1.35 0.5,1.85 1.1,1.05 5.15,1.45 l 2,-1.25 0.3,-0.15 0.8,-0.25 -0.1,-0.75 0.15,-2.2 0.05,-0.5 0.1,-0.5 0.1,-0.8 h -7.6 l -1.2,1.85 m -0.1,7.5 q -0.55,-0.55 -1.7,-1 l -0.1,-0.05 q -2.25,-0.9 -2.25,1.55 0,0.55 0.4,1.05 V 2 l 1.05,1.15 h 0.15 0.35 l 1.8,-0.1 q 0.75,-0.9 0.75,-1.7 0,-0.5 -0.45,-0.95"
         fill="#6b6b6b"
         fill-rule="evenodd"
         stroke="none"
         id="path42" />
      <path
         d="m -0.75,-7.15 h 1.7 l 0.05,1 0.35,1.05 -2.1,0.5 v -1.65 -0.9 m 3.4,0 24.9,-0.2 0.05,0.1 q 0.25,0.5 0.8,0.5 h 0.1 l 0.05,0.3 H 9.45 L 2.7,-5.4 V -5.55 L 2.65,-7.15 M -19.2,-4.3 q 0.9,1.25 0.9,2.65 0,2.6 -1.85,4.35 -1.65,1.5 -1.85,3.45 l -0.35,0.25 -1.5,1.7 q -1.6,1.6 -3.5,1.9 l -0.4,0.1 -0.1,-15.8 1.3,-0.35 2.75,-0.5 h 0.2 q -2.45,0.1 -2.95,1.75 l -0.15,0.95 q 0,1.15 0.8,2.6 1.25,2.3 3.7,2.3 2.4,0 3,-1.5 0.2,-0.5 0.2,-2.5 l -0.2,-1.35 m 7.6,-2.8 q -0.55,1.5 -0.55,2.8 0,0.9 0.85,1.85 l 0.15,0.2 -1.15,-0.25 q -4.05,-0.25 -4.05,5.05 l 0.45,1.4 q 0.95,1.3 3.45,1.3 2.8,0 3.75,-1.5 0.4,-0.7 0.45,-2.15 V 1.15 q 0,-1.25 -1,-2.3 l 1.25,0.3 1.45,0.1 h 0.1 Q -6.85,0.15 -7.5,3.75 -9,6.9 -14.55,6.9 l -1.6,-0.75 q -1.05,-0.55 -2.7,-0.7 0.65,-1.85 1.5,-3.2 1.05,-1.65 1.05,-3.95 0,-3.55 -2.3,-5.15 l -0.35,-0.2 7.35,-0.05 m -14.8,0.1 -1.45,0.85 V -7 h 1.45 m 24.45,-0.15 -0.15,2.2 0.1,0.75 -0.8,0.25 -0.3,0.15 -2,1.25 q -4.05,-0.4 -5.15,-1.45 -0.5,-0.5 -0.5,-1.85 l 0.25,-1.25 h 0.85 l -0.05,0.45 q 0,0.7 0.4,1.3 0.8,1.15 2.85,1.15 h 0.4 Q -3,-4.35 -3,-6.3 -3,-6.8 -3.15,-7.15 h 1.2 M -12.7,3.15 q 1.1,-0.1 1.65,-0.9 0.45,-0.65 0.45,-1.4 V 0.4 q 0.45,0.45 0.45,0.95 0,0.8 -0.75,1.7 l -1.8,0.1"
         fill="#c2c2c2"
         fill-rule="evenodd"
         stroke="none"
         id="path43" />
    </g>
    <g
       id="sprite8"
       transform="translate(8.4,47.75)">
      <use
         ffdec:characterId="988"
         height="95.550003"
         transform="translate(-8.4,-47.75)"
         width="16.799999"
         xlink:href="#shape9"
         id="use43" />
    </g>
    <g
       id="shape9"
       transform="translate(8.4,47.75)">
      <path
         d="m 0.35,-45.3 0.4,1.85 0.1,3.65 v 14.7 l 0.2,1.35 0.05,0.4 H 1.05 l -2.25,-0.1 0.15,-1.75 v -14.6 l 0.3,-5.5 h 0.7 0.4 m -1.65,23.5 2.2,-0.1 h 0.3 l 0.05,1.05 h -0.5 l -2.1,-0.05 0.05,-0.9 m -0.15,2.9 2.2,-0.05 0.6,-0.05 v 0.65 0.4 q 2.4,0.8 2.7,3 v 0.5 0.5 q -0.15,1 -0.8,1.75 -0.75,0.85 -1.9,1.1 v 1.85 H 1.3 L 0.75,-9.3 H 0.2 -0.6 -1.55 v -1.85 L -3,-12 l -0.65,-1.1 -0.3,-2.25 q 0,-2.75 2.5,-2.95 v -0.6 M 1.3,12.3 H -1.45 V 11.95 L -1.5,0 V -0.45 -2.3 -2.65 l -0.05,-4.6 h 0.4 l 0.3,-0.05 1.2,-0.05 h 0.4 L 1.2,-7.4 H 1.35 L 1.3,12.3 m 0,6.45 H 0.55 L -0.2,18.7 -1.35,18.75 -1.45,18.5 V 17.85 L -2,17.75 -2.6,17.25 -2.75,17.15 -2.8,17.1 -3.3,16.65 -3.6,15.45 q 0.45,-0.2 0.85,-0.75 l 0.45,-0.8 h 3.6 v 0.05 q 1.05,0.4 1.05,1.3 0,0.5 -1.05,1.25 v 2.25 M 1.25,25.8 V 26 26.35 L 1.2,29.1 1.25,30.8 v 1.25 2.75 L 1.2,42.45 H 0.25 -1.4 V 40.8 40.7 l 0.1,-2.3 0.05,-5.5 0.05,-3.8 v -0.5 l -0.1,-3.95 -0.15,-2.2 V 22.3 20.5 H 1.3 L 1.25,25.8 M 0.8,44.95 -0.1,44.9 h -1.05 l -0.25,-0.65 0.05,-0.2 H 1.1 l -0.3,0.9"
         fill="#e0e0e0"
         fill-rule="evenodd"
         stroke="none"
         id="path44" />
      <path
         d="M 0.35,-45.3 3,-45.45 q -0.35,2.1 -0.35,6.55 l 0.05,9.7 0.05,0.8 q 0.1,2.8 0.35,5.15 l -2,-0.1 -0.05,-0.4 -0.2,-1.35 v -14.7 l -0.1,-3.65 -0.4,-1.85 m -1.55,21.85 -1.85,-0.1 q 0.25,-2.55 0.35,-5.65 l 0.05,-9.7 q 0,-4.3 -0.3,-6.4 h 2.2 l -0.3,5.5 v 14.6 l -0.15,1.75 m -0.1,1.65 -0.05,0.9 h -1.2 -0.3 l -0.5,-0.6 0.05,-0.3 h 1 1 m 2.55,0.95 -0.05,-1.05 2.05,-0.1 0.1,0.5 -0.6,0.7 -1.5,-0.05 m -2.7,1.95 v 0.6 q -2.5,0.2 -2.5,2.95 l 0.3,2.25 0.65,1.1 1.45,0.85 v 1.85 l -1.8,0.05 -0.3,-0.25 q -1.45,-1.15 -1.45,-3.3 0,-2.4 1.45,-4.65 l 0.9,-1.45 h 0.3 1 m 2.8,9.65 v -1.85 q 1.15,-0.25 1.9,-1.1 0.65,-0.75 0.8,-1.75 v -0.5 -0.5 q -0.3,-2.2 -2.7,-3 v -0.4 -0.65 l 1.25,-0.15 1.05,1.7 0.4,0.65 q 1.05,1.95 1.05,4 0,1.85 -1.05,2.95 l -0.4,0.35 -0.3,0.3 -2,-0.05 m 0,1.85 0.5,-0.1 0.45,-0.05 -0.2,0.6 Q 1.8,-6 1.65,-4.7 l -0.1,3.2 0.1,5.15 v 5.8 l 0.2,2.85 H 1.3 L 1.35,-7.4 M -1.6,12.3 h -0.25 l 0.2,-2.85 V 3.65 L -1.6,2.2 -1.5,0 -1.45,11.95 -1.6,12.3 m 0.1,-14.95 -0.15,-2.05 -0.5,-2.55 h 0.6 l 0.05,4.6 M 1.3,13.9 h 1 l 0.45,0.8 q 0.55,0.7 1.1,0.8 L 3.4,16.6 2.6,17.25 2.15,17.65 Q 1.5,18.2 1.4,18.75 H 1.3 V 16.5 q 1.05,-0.75 1.05,-1.25 0,-0.9 -1.05,-1.3 V 13.9 m -2.75,4.6 -0.55,-0.75 0.55,0.1 V 18.5 M -3.3,16.65 q -0.55,-0.6 -0.55,-1.15 l 0.25,-0.05 0.3,1.2 m 4.6,3.85 h 0.15 l 0.2,-0.1 -0.2,2.05 -0.2,3.35 0.05,-5.3 M 1.25,34.8 1.3,38.35 v 0.05 l 0.25,4.05 H 1.2 L 1.25,34.8 m -2.65,7.65 h -0.1 l 0.05,-0.7 v -0.4 L -1.4,40.8 v 1.65 M -1.45,22.3 -1.6,20.7 -1.65,20.5 h 0.2 v 1.8 M 1.85,45 1.8,45.1 0.8,44.95 1.1,44.05 H 1.7 L 1.85,45 m -3,-0.1 -0.65,0.05 0.1,-0.75 v -0.15 h 0.35 l -0.05,0.2 0.25,0.65"
         fill="#c2c2c2"
         fill-rule="evenodd"
         stroke="none"
         id="path45" />
      <path
         d="m 1.1,-23.35 2,0.1 Q 2.85,-25.6 2.75,-28.4 L 2.7,-29.2 2.65,-38.9 q 0,-4.45 0.35,-6.55 l -2.65,0.15 h -0.4 -0.7 -2.2 q 0.3,2.1 0.3,6.4 l -0.05,9.7 q -0.1,3.1 -0.35,5.65 l 1.85,0.1 2.25,0.1 H 1.1 m 4.85,-20.5 0.05,3.2 v 18.7 l 1.5,3.35 q 0.9,1.8 0.9,3.35 0,5.7 -1.75,8.05 Q 4.9,-4.85 4.9,3.25 v 6.2 q 0,2.35 1.15,3.35 1.1,1.05 1.1,2.45 0,1.15 -0.8,2.9 Q 5.5,20 4.2,20.5 q 0.35,1.4 0.5,3.6 l 0.05,5.05 v 9.5 q -0.3,9 -1.75,9 H 2.85 L 0.2,47.8 -2.7,47.55 -3,47.65 -3.55,47.25 -3.75,47.1 -3.95,46.35 V 46.3 L -4.4,43.75 -4.65,43.45 Q -4.9,42.85 -4.6,42.7 h 0.1 l -0.25,-4.05 v -9.5 L -4.7,24.1 q 0.15,-2.2 0.5,-3.6 -1.3,-0.5 -2.15,-2.35 -0.8,-1.75 -0.8,-2.9 0,-1.4 1.1,-2.45 1.15,-1 1.15,-3.35 v -6.2 q 0,-8.1 -1.75,-10.45 -1.75,-2.35 -1.75,-8.05 0,-1.55 0.9,-3.35 l 1.5,-3.35 v -0.15 l -0.5,-0.85 0.5,-0.2 v -17.5 l 0.05,-3.2 q 0.1,-1.65 0.9,-2.5 L -5.1,-46.6 q 0,-0.7 0.45,-0.9 l 2.7,-0.25 6.4,0.4 q 0.45,0.1 0.45,0.8 0.95,0.85 1.05,2.7 M 1.2,-21.9 H 0.9 l -2.2,0.1 h -1 -1 l -0.05,0.3 0.5,0.6 h 0.3 1.2 l 2.1,0.05 h 0.5 l 1.5,0.05 0.6,-0.7 -0.1,-0.5 -2.05,0.1 m 0.15,2.9 -0.6,0.05 -2.2,0.05 h -1 -0.3 l -0.9,1.45 q -1.45,2.25 -1.45,4.65 0,2.15 1.45,3.3 l 0.3,0.25 1.8,-0.05 h 0.95 0.8 0.55 l 0.55,0.05 h 0.05 l 2,0.05 0.3,-0.3 0.4,-0.35 q 1.05,-1.1 1.05,-2.95 0,-2.05 -1.05,-4 L 3.65,-17.45 2.6,-19.15 1.35,-19 M 1.3,12.3 H 1.85 L 1.65,9.45 V 3.65 L 1.55,-1.5 1.65,-4.7 Q 1.8,-6 2.1,-6.95 l 0.2,-0.6 -0.45,0.05 -0.5,0.1 H 1.2 l -0.45,0.05 h -0.4 l -1.2,0.05 -0.3,0.05 h -0.4 -0.6 l 0.5,2.55 0.15,2.05 V -2.3 -0.45 0 l -0.1,2.2 -0.05,1.45 v 5.8 l -0.2,2.85 h 0.25 0.15 2.75 m 0,6.45 H 1.4 Q 1.5,18.2 2.15,17.65 L 2.6,17.25 3.4,16.6 3.85,15.5 Q 3.3,15.4 2.75,14.7 L 2.3,13.9 h -1 -3.6 l -0.45,0.8 q -0.4,0.55 -0.85,0.75 l -0.25,0.05 q 0,0.55 0.55,1.15 l 0.5,0.45 0.05,0.05 0.15,0.1 0.6,0.5 0.55,0.75 0.1,0.25 1.15,-0.05 0.75,0.05 H 1.3 m -0.05,7.05 0.2,-3.35 0.2,-2.05 -0.2,0.1 H 1.3 -1.45 -1.65 l 0.05,0.2 0.15,1.6 v 0.15 l 0.15,2.2 0.1,3.95 v 0.5 l -0.05,3.8 -0.05,5.5 -0.1,2.3 v 0.1 l -0.05,0.55 v 0.4 l -0.05,0.7 H -1.4 0.25 1.2 1.55 L 1.3,38.4 V 38.35 L 1.25,34.8 V 32.05 30.8 L 1.2,29.1 1.25,26.35 V 26 25.8 M 1.8,45.1 H 1.85 V 45 L 1.7,44.05 H 1.1 -1.35 -1.7 v 0.15 l -0.1,0.75 0.65,-0.05 h 1.05 l 0.9,0.05 1,0.15"
         fill="#6b6b6b"
         fill-rule="evenodd"
         stroke="none"
         id="path46" />
    </g>
    <g
       id="sprite9"
       transform="translate(6.3,13.7)">
      <use
         ffdec:characterId="1062"
         height="27.450001"
         transform="translate(-6.3,-13.7)"
         width="12.65"
         xlink:href="#shape10"
         id="use46" />
    </g>
    <g
       id="shape10"
       transform="translate(6.3,13.7)">
      <path
         d="m 6.35,-0.75 q 0,2.3 -1.05,5.1 -0.75,1.9 -1.75,2.95 -1,0.95 -2.2,1.15 L 0.75,8.5 H 0.65 L 0.45,8.55 0,10.9 q -0.6,2.85 -1.15,2.85 -1.55,0 -2.55,-0.65 L -4.55,12.05 V 11.7 L -4.45,11.5 -4.3,11.45 -4.45,11 q 0,-0.9 1.35,-3.3 Q -3.45,7.6 -3.8,7.3 -4.8,6.35 -5.45,3.25 L -5.65,2.4 -6.3,-3 q 0,-2.8 2.3,-6.85 2.7,-4.8 5.45,-3.6 1.7,1.7 3.35,6.05 1.55,4.2 1.55,6.65 m -7.7,4.6 0.05,-0.6 0.1,-1.45 0.2,-2.1 q 0.4,-4.9 0.9,-6.1 L 0,-6.6 0.05,-5.7 0.2,-2.6 0.1,0.5 0,3.1 v 0.15 0.5 0.8 L -0.05,6.75 0.6,6.4 0.95,6.25 1.35,5.75 2.15,4.9 q 2.1,-2.3 2.1,-4.45 0,-2.6 -1.2,-5.75 L 2.9,-5.65 1.9,-8 l -1.95,-3.85 -2.05,2.35 -1.25,2.25 -0.15,0.4 -0.65,2.75 -0.45,2.2 0.45,2.6 0.35,1.35 0.25,0.95 0.1,0.25 1.05,3.25 0.45,-0.25 0.5,-0.65 0.1,-1.75 m 0.2,4.8 -0.15,-0.45 -0.5,1.2 -0.85,1.8 0.25,0.45 v 0.25 l 0.6,0.1 0.5,-2.55 0.15,-0.7 v -0.1"
         fill="#9a9a9a"
         fill-rule="evenodd"
         stroke="none"
         id="path47" />
      <path
         d="M 0,3.75 V 3.25 3.1 L 0.1,0.5 0.2,-2.6 0.05,-5.7 0,-6.6 -0.1,-6.4 q -0.5,1.2 -0.9,6.1 l -0.2,2.1 -0.1,1.45 -0.05,0.6 Q -2.25,3.7 -2.85,3.25 L -3.8,2.05 -4.15,0.7 -4.3,-1.75 l 0.15,-2.35 0.65,-2.75 0.15,-0.4 1.25,-2.25 2.05,-2.35 1.95,3.85 1,2.35 0.15,0.35 v 0.95 q 0,3.3 -0.3,4.55 Q 2.25,2.35 1.1,3.25 L 0,3.75"
         fill="#d2d2d2"
         fill-rule="evenodd"
         stroke="none"
         id="path48" />
      <path
         d="M 0,3.75 1.1,3.25 Q 2.25,2.35 2.75,0.2 3.05,-1.05 3.05,-4.35 V -5.3 q 1.2,3.15 1.2,5.75 0,2.15 -2.1,4.45 L 1.35,5.75 0.95,6.25 0.6,6.4 -0.05,6.75 0,4.55 V 3.75 M -4.15,-4.1 -4.3,-1.75 -4.15,0.7 -4.6,-1.9 -4.15,-4.1 m 0.35,6.15 0.95,1.2 q 0.6,0.45 1.5,0.6 L -1.45,5.6 -1.95,6.25 -2.4,6.5 -3.45,3.25 -3.55,3 -3.8,2.05 m 2.65,6.6 v 0.1 L -1.3,9.45 -1.8,12 -2.4,11.9 V 11.65 L -2.65,11.2 -1.8,9.4 -1.3,8.2 -1.15,8.65"
         fill="#c6c6c6"
         fill-rule="evenodd"
         stroke="none"
         id="path49" />
    </g>
    <g
       id="sprite10"
       transform="translate(5.6,12.65)">
      <use
         ffdec:characterId="1008"
         height="25.299999"
         transform="translate(-5.6,-12.65)"
         width="11.25"
         xlink:href="#shape11"
         id="use49" />
    </g>
    <g
       id="shape11"
       transform="translate(5.6,12.65)">
      <path
         d="m 0.5,-10.05 0.85,1.55 0.55,0.9 0.15,0.3 0.4,4.7 0.3,6.05 L 2.3,4.85 1.65,5.5 1.35,5.6 1.2,5.65 0.5,5.75 H 0.4 v -0.3 l -0.05,-3 0.2,-2.05 0.2,-2.2 V -1.9 L 0.7,-2.3 0.65,-2.45 0.45,-2.35 0.1,-2.2 -0.45,1.1 -0.95,3.55 -1.05,3.65 -1,4.1 -1.15,5.35 Q -2.2,4.7 -2.9,3.2 L -3.6,1.15 -3.4,-1.3 q 0.8,-3.2 2,-5.8 l 0.65,-1.45 1,-1.5 H 0.5"
         fill="#d2d2d2"
         fill-rule="evenodd"
         stroke="none"
         id="path50" />
      <path
         d="m 5.6,0.4 v 1 l -0.3,3 Q 4.7,7.1 2.75,7.1 L 2.15,6.95 1.9,7.1 2,7.55 2.05,9.2 1.9,11.15 q -0.4,1.5 -2.05,1.5 H -0.5 -0.6 L -1.05,12.5 q -0.8,-0.15 -0.8,-0.85 L -1.5,11.05 -1.4,8.4 -1.35,8.05 H -1.5 q -1.65,0 -3.05,-2.25 L -5.6,3.5 q 0,-3.45 0.75,-6.3 0.3,-2.4 1.25,-5 1.45,-3.85 3.7,-4.65 l 0.4,-0.2 0.35,0.05 0.45,-0.05 0.1,0.1 0.05,0.2 0.5,0.4 q 2.1,2.05 2.75,5.85 l 0.9,4.05 V 0.4 M 2.05,-7.3 1.9,-7.6 1.35,-8.5 0.5,-10.05 0.35,-10.3 l -0.1,0.25 -1,1.5 -0.65,1.45 q -1.2,2.6 -2,5.8 L -3.6,1.15 -3.65,2.4 q 0,1.6 1.95,3.05 l 0.5,0.4 0.05,-0.5 L -1,4.1 -1.05,3.65 l 0.1,-0.1 0.5,-2.45 0.55,-3.3 0.35,-0.15 0.2,-0.1 0.05,0.15 0.05,0.4 v 0.1 l -0.2,2.2 -0.2,2.05 0.05,3 V 5.75 5.9 H 0.8 L 1.2,5.65 1.35,5.6 1.7,5.55 2.3,5.5 2.65,5.1 3.9,3.2 3.95,0.2 q 0,-3.6 -1.9,-7.5 M 0.5,7.7 0.4,7.75 0.35,9.6 0.55,8.8 0.6,8.15 0.5,7.7"
         fill="#9a9a9a"
         fill-rule="evenodd"
         stroke="none"
         id="path51" />
      <path
         d="m 4.7,-6.1 q 0.95,1.9 0.95,5 L 5.6,0.4 V -2.05 L 4.7,-6.1 M 2.05,-7.3 q 1.9,3.9 1.9,7.5 L 3.9,3.2 2.65,5.1 2.3,5.5 1.7,5.55 1.35,5.6 1.65,5.5 2.3,4.85 2.75,3.45 2.45,-2.6 2.05,-7.3 M 1.2,5.65 0.8,5.9 H 0.4 V 5.75 H 0.5 L 1.2,5.65 M -1.15,5.35 -1.2,5.85 -1.7,5.45 Q -3.65,4 -3.65,2.4 L -3.6,1.15 -2.9,3.2 q 0.7,1.5 1.75,2.15 M 0.5,7.7 0.6,8.15 0.55,8.8 0.35,9.6 0.4,7.75 0.5,7.7"
         fill="#c6c6c6"
         fill-rule="evenodd"
         stroke="none"
         id="path52" />
    </g>
    <g
       id="sprite11"
       transform="translate(33.45,3.05)">
      <use
         ffdec:characterId="1000"
         height="5.8000002"
         transform="translate(-33.45,-3.05)"
         width="65.199997"
         xlink:href="#shape12"
         id="use52" />
    </g>
    <g
       id="shape12"
       transform="translate(33.45,3.05)">
      <path
         d="m 13.2,-0.95 0.05,-0.15 h 1.4 l 0.15,0.05 -0.05,0.1 H 13.2 m 1.35,1.2 -0.05,0.6 H 12.85 L 13,0.4 V 0.25 h 1.55 m -3.3,-1.2 h -13.2 -11 V -1.1 l 11,0.05 13.2,-0.05 v 0.15 m -24.1,1.2 h 24 l 0.05,0.6 h -24.1 l 0.05,-0.6 m 29.15,-1.2 v -0.1 L 16.55,-1.1 H 24.2 L 29,-1.25 V -0.9 L 16.3,-0.95 M 29,0.15 v 1.1 l -9.85,-0.4 h -2.8 v -0.6 l 12.5,-0.1 H 29 M -30.7,-0.9 v -0.35 l 4.8,0.15 h 7.65 l 0.25,0.05 v 0.1 l -12.7,0.05 m 12.65,1.15 v 0.6 h -2.8 l -9.85,0.4 v -1.1 h 0.15 l 12.5,0.1 m 1.6,-1.2 -0.05,-0.1 0.15,-0.05 h 1.4 l 0.05,0.15 h -1.55 m 1.75,1.2 V 0.4 l 0.15,0.45 h -1.65 l -0.05,-0.6 h 1.55"
         fill="#c2c2c2"
         fill-rule="evenodd"
         stroke="none"
         id="path53" />
      <path
         d="m 14.75,-0.95 0.05,-0.1 -0.15,-0.05 h -1.4 L 13.2,-0.95 13,0.25 V 0.4 l -0.15,0.45 h 1.65 l 0.05,-0.6 0.2,-1.2 m -3.6,1.2 v -0.3 l 0.1,-0.9 V -1.1 l -13.2,0.05 -11,-0.05 v 0.15 l 0.1,0.9 v 0.3 l -0.05,0.6 H 11.2 L 11.15,0.25 M 29,-0.9 v -0.35 l -4.8,0.15 h -7.65 l -0.25,0.05 v 0.1 l 0.05,1.2 v 0.6 h 2.8 L 29,1.25 v -1.1 -0.5 -0.55 m 2.75,0.55 v 2 l -0.2,1.1 H -33.2 l -0.25,-1.1 v -2 q 0,-1.8 0.4,-2.7 H 31.4 q 0.35,0.9 0.35,2.7 M -30.7,-0.9 v 0.55 0.5 1.1 l 9.85,-0.4 h 2.8 v -0.6 l 0.05,-1.2 v -0.1 l -0.25,-0.05 h -7.65 l -4.8,-0.15 v 0.35 m 15.8,-0.05 -0.05,-0.15 h -1.4 l -0.15,0.05 0.05,0.1 0.2,1.2 0.05,0.6 h 1.65 L -14.7,0.4 V 0.25 l -0.2,-1.2"
         fill="#6b6b6b"
         fill-rule="evenodd"
         stroke="none"
         id="path54" />
      <path
         d="m 14.75,-0.95 -0.2,1.2 H 13 l 0.2,-1.2 h 1.55 m -3.5,0 -0.1,0.9 v 0.3 h -24 v -0.3 l -0.1,-0.9 h 11 13.2 M 29,-0.9 v 0.55 0.5 H 28.85 L 16.35,0.25 16.3,-0.95 29,-0.9 m -59.7,1.05 v -0.5 -0.55 l 12.7,-0.05 -0.05,1.2 -12.5,-0.1 h -0.15 m 14.25,-1.1 h 1.55 l 0.2,1.2 h -1.55 l -0.2,-1.2"
         fill="#e0e0e0"
         fill-rule="evenodd"
         stroke="none"
         id="path55" />
    </g>
    <g
       id="sprite12"
       transform="translate(8.05,7.7)">
      <use
         ffdec:characterId="1010"
         height="15.45"
         transform="translate(-8.05,-7.7)"
         width="16.1"
         xlink:href="#shape13"
         id="use55" />
    </g>
    <g
       id="shape13"
       transform="translate(8.05,7.7)">
      <path
         d="m -3.8,-2.6 q -0.45,0.85 -0.45,2.2 0,0.7 0.75,1.7 1.05,1.45 3,1.45 1.65,0 2.85,-1.75 1,-1.45 1,-2.55 0,-1.25 -0.65,-1.85 -0.95,-0.9 -3.4,-0.9 h -0.1 l 1.1,-0.2 q 2.1,-0.25 3.65,0.7 1.65,1.05 1.65,3.15 l -0.7,3.1 q -1.4,2.9 -4.65,2.9 -1.2,0 -3.2,-1.55 -2.1,-1.6 -2.1,-2.7 0,-2.35 1.25,-3.7"
         fill="#c2c2c2"
         fill-rule="evenodd"
         stroke="none"
         id="path56" />
      <path
         d="m 8.05,-0.75 q 0,2.6 -1,4.75 Q 5.25,7.75 0.9,7.75 -4.9,7.75 -7,4.85 -8.05,3.4 -8.05,1.4 q 0,-4.6 2.5,-7.05 2.2,-2.1 5.55,-2.05 3.2,0.05 5.55,1.9 2.5,2.05 2.5,5.05 M -3.8,-2.6 q -1.25,1.35 -1.25,3.7 0,1.1 2.1,2.7 2,1.55 3.2,1.55 3.25,0 4.65,-2.9 l 0.7,-3.1 Q 5.6,-2.75 3.95,-3.8 2.4,-4.75 0.3,-4.5 l -1.1,0.2 q -1.95,0.5 -3,1.7"
         fill="#6b6b6b"
         fill-rule="evenodd"
         stroke="none"
         id="path57" />
      <path
         d="m -0.8,-4.3 h 0.1 q 2.45,0 3.4,0.9 0.65,0.6 0.65,1.85 0,1.1 -1,2.55 -1.2,1.75 -2.85,1.75 -1.95,0 -3,-1.45 -0.75,-1 -0.75,-1.7 0,-1.35 0.45,-2.2 1.05,-1.2 3,-1.7"
         fill="#e0e0e0"
         fill-rule="evenodd"
         stroke="none"
         id="path58" />
    </g>
    <g
       id="sprite13"
       transform="translate(5.4,4)">
      <use
         ffdec:characterId="43"
         height="8"
         transform="translate(-5.4,-4)"
         width="10.8"
         xlink:href="#shape14"
         id="use58" />
    </g>
    <g
       id="shape14"
       transform="translate(5.4,4)">
      <path
         d="m 2.9,-0.35 q 0,-1.25 1.25,-1.25 1.25,0 1.25,1.2 0,1.3 -1.25,1.3 Q 3.6,0.9 3.25,0.5 2.9,0.15 2.9,-0.35 m 0.35,-2.3 q 0,0.55 -0.35,0.9 -0.4,0.45 -1,0.45 -1.35,0 -1.35,-1.4 0,-1.3 1.35,-1.3 1.35,0 1.35,1.35 m -3.1,1.9 h 0.2 q 2.6,0.1 2.6,2.8 l -0.3,1 Q 2.05,4 0.45,4 H 0.35 0.15 0.1 -0.45 q -1.6,0 -2.2,-0.95 l -0.3,-1 q 0,-2.8 2.8,-2.8 h 0.3 M -1.55,-4 q 1.35,0 1.35,1.35 0,0.55 -0.4,0.9 -0.4,0.45 -0.95,0.45 -1.4,0 -1.4,-1.4 0,-1.3 1.4,-1.3 m -2.6,2.4 q 1.25,0 1.25,1.25 0,0.5 -0.35,0.85 -0.35,0.4 -0.9,0.4 -1.25,0 -1.25,-1.3 0,-1.2 1.25,-1.2"
         fill="#6b6b6b"
         fill-rule="evenodd"
         stroke="none"
         id="path59" />
    </g>
    <g
       id="sprite14"
       transform="translate(30,35.8)">
      <use
         ffdec:characterId="1064"
         height="71.650002"
         transform="translate(-30,-35.8)"
         width="60"
         xlink:href="#shape15"
         id="use59" />
    </g>
    <g
       id="shape15"
       transform="translate(30,35.8)">
      <path
         d="m 29.6,-35.2 v -0.05 l 0.05,0.1 -0.05,-0.05 m 0.05,-0.4 v -0.1 l 0.35,-0.1 -0.35,0.2 m -2.6,0.2 0.2,0.9 q -3.15,1.4 -8.85,3.65 l -6.65,2.95 -2.2,3.25 q -2.55,4 -2.75,5.95 -0.05,0.3 0.05,0.65 2.85,-1.3 3.8,0.7 0.55,1.15 0.3,3.3 -0.1,1 -1.35,3.2 Q 8,-8 5.75,-5.75 2.8,-2.8 -0.6,-1.2 q -4,2.8 -5.8,4.95 -2.5,3 -3,7.7 l -0.15,1.9 q 0.45,2.3 1.75,4.75 2.15,4.1 1.85,7.1 -0.4,3.65 -3.4,6.6 -1.75,1.6 -3.95,2.55 -4.15,1.85 -10.55,1.45 -1.75,-0.1 -4.1,-1.3 -2.1,-1.25 -2.05,-1.75 0.05,-0.75 1.25,-0.65 l 0.9,0.25 1.2,0.3 Q -21,33 -17.1,30.6 l 1.65,-2.6 q 0.75,-1 0.95,-2.9 0.2,-1.9 -1.6,-6.05 l -0.2,-0.35 q -1.55,-2.15 -2.1,-3.75 -0.7,-2.2 -0.35,-5.45 0.5,-4.45 1.8,-6.45 1.65,-2.6 4.6,-3.75 l 0.8,-1.3 q 0.85,-1.25 1,-2.25 0.1,-0.95 -0.6,-2.95 l -0.5,-1.3 q -3.4,1.25 -3.7,1.2 -2.15,-0.1 -3,-3.9 l -0.4,-3.85 q 0.5,-4.2 2.15,-8.25 l 0.5,-1.1 q 0.45,-2.3 0.75,-5.1 0.1,-0.9 -0.2,-2.45 l 0.05,-0.05 -0.25,-0.45 -0.1,-1.1 v -0.15 l 0.2,-0.6 0.1,-0.6 0.2,0.1 0.45,-0.4 4.65,-0.15 8.15,0.5 11.15,-0.1 4.7,-0.1 -0.1,0.1 9.7,-0.7 v -0.1 l 0.9,0.05 2.7,0.15 0.1,0.15 m -3.9,0.75 -1.25,0.05 -4.2,0.55 -7.3,1.5 -6.15,2.05 q -5.2,1.6 -6.05,1.55 l -2.3,-0.4 -0.05,-0.1 -0.25,-0.15 q 4.45,-1 12.55,-3.85 l -3.55,0.3 -4.5,0.25 -0.8,0.05 H -0.95 -2.3 l -8.45,-0.5 -1.3,-0.3 -0.95,0.05 q 1.75,0.75 3.7,3.9 l 0.8,1.25 0.3,0.45 0.1,0.25 0.2,0.45 1.15,2.35 2.2,5.5 0.25,0.8 1,-1.05 v -0.05 h 0.05 l 1.65,-1.6 0.4,-0.3 q 4,-3.45 10.45,-6.8 l 0.85,-0.45 6.75,-3.15 3.75,-1.35 2.6,-1.05 0.05,-0.05 0.25,-0.05 0.05,-0.1 v -0.1 l -0.4,0.1 m -29.6,22.95 1.1,-0.15 2.45,-0.5 7.65,-1 q -0.45,-2.95 -0.4,-3.45 0.4,-3.3 1.85,-6.2 0.65,-1.35 1.45,-2.4 l -6.25,5.25 q -5.25,4.55 -6.15,4.5 -0.8,-0.05 -1.65,-1.85 l -0.7,-1.6 -0.55,-1.45 -1.5,-3.7 -1.5,-2.15 -0.1,-0.2 -0.35,-0.45 -0.25,-0.4 -0.45,-0.55 -0.8,-1.05 -0.15,-0.2 -0.45,-0.6 -0.1,-0.15 -0.05,1 -0.05,0.25 -0.1,0.35 -0.15,2.2 -0.15,1.35 v 0.05 l -0.1,0.6 q -0.35,1.75 -1.05,4.1 v 0.05 q -0.85,2.5 -1.15,5 l -0.1,0.65 0.1,0.6 0.5,2.4 0.05,0.1 0.1,0.45 0.35,0.6 0.55,0.75 0.75,-0.4 0.45,-0.2 1.65,-0.55 1.25,-0.35 0.4,-0.1 0.7,-0.15 0.15,0.05 0.2,-0.1 0.45,-0.15 0.35,-0.05 0.15,-0.05 h 0.1 l 0.15,-0.05 0.85,-0.1 0.3,0.05 0.2,-0.05 m -1.05,9.8 5.55,-1.2 q 1.8,-0.65 3.4,-1.8 l 2.5,-1.75 q 1.3,-0.85 2.95,-3.45 1.7,-2.55 1.85,-3.95 V -17 l -1.4,-0.1 -0.45,-0.05 0.2,1.7 0.4,2.7 q -0.15,1.4 -4.3,1.7 l -0.6,0.05 -2.55,0.4 -5.3,0.35 h -0.1 l -0.9,0.2 -0.3,0.1 -0.6,0.1 -0.5,0.2 h -0.2 l -0.8,0.2 -0.35,0.1 -0.55,0.15 -0.5,0.15 h -0.1 l 0.1,0.15 0.05,0.05 0.95,1.75 q 0.45,1.3 0.45,2.55 l -0.05,0.35 q -0.15,1.15 -0.45,2.25 l -0.15,0.3 -0.05,0.1 1.45,-0.3 h 0.1 L -7.5,-1.9 m -4.85,12.65 -1.3,2.45 -0.15,0.35 h -0.4 V 13 l 0.1,-0.6 0.7,-2.35 0.6,-1.1 q 0.9,-1.85 2.5,-4.05 2.4,-3.2 4.8,-4.55 l -4,0.25 -0.4,0.1 -1.2,0.45 q -2.5,1.05 -3.7,2.35 -1.2,1.05 -1.35,2.45 -0.55,4.95 -0.3,6.75 l 0.1,0.5 0.85,2.5 0.2,0.65 0.95,2.2 0.15,0.15 0.25,0.55 0.1,0.2 0.05,0.05 0.1,0.2 q 1.3,3.25 1.05,5.5 l -0.15,0.95 q 1.8,-2.85 2.15,-5.9 0.1,-0.85 -0.2,-2.6 l -0.3,-1.4 -0.1,-0.15 q -0.55,-1.55 -0.2,-4.8 0.25,-2.45 1.05,-4.5 l -1.95,3.95 M -8.1,23.6 -8.4,22.05 -9.1,20 -9.3,19.6 v -0.05 l -0.1,-0.15 -0.05,-0.05 0.05,0.1 -0.25,2.6 q -0.4,3.55 -3.9,7.1 -2.55,2.5 -5.7,3.7 -2.15,0.85 -4.6,1.1 H -23.9 V 34 l 0.5,0.1 q 3.3,0.2 5.65,0 l 0.2,-0.05 2.65,-0.45 2.25,-1.4 0.7,-0.5 1.3,-1.05 Q -8.25,28.45 -8,26.4 -7.85,25 -8.1,23.6"
         fill="#6b6b6b"
         fill-rule="evenodd"
         stroke="none"
         id="path60" />
      <path
         d="m -10.65,-26.4 1.5,2.15 1.5,3.7 -0.15,-0.2 -0.3,-0.7 -2.55,-4.9 v -0.05 m -3.7,44.95 0.15,-0.05 0.25,0.75 -0.25,-0.55 -0.15,-0.15 m 3.7,12.1 0.4,-0.55 q 1.7,-2.35 2.15,-6.5 0.25,1.4 0.1,2.8 -0.25,2.05 -2.65,4.25"
         fill="#c2c2c2"
         fill-rule="evenodd"
         stroke="none"
         id="path61" />
      <path
         d="m 23.15,-34.65 0.1,0.15 -0.05,0.05 -2.6,1.05 -3.75,1.35 -6.75,3.15 -0.85,0.45 q -6.45,3.35 -10.45,6.8 l -0.4,0.2 v 0.1 l -1.65,1.6 H -3.3 v 0.05 l -1,1.05 -0.25,-0.8 -2.2,-5.5 -1.15,-2.35 0.3,-0.3 -0.5,-0.15 -0.1,-0.25 -0.3,-0.45 -0.8,-1.25 q -1.95,-3.15 -3.7,-3.9 l 0.95,-0.05 1.3,0.3 8.45,0.5 h 1.35 0.25 l 0.8,-0.05 4.5,-0.25 -2.1,0.7 -4.25,1.3 -4.2,1.9 0.25,0.45 1.55,-0.65 0.05,0.1 2.3,0.4 q 0.85,0.05 6.05,-1.55 l 6.15,-2.05 7.3,-1.5 4.2,-0.55 1.25,-0.05 m -29.55,17.15 0.05,0.55 q 0.4,2.35 0.2,4.4 l -0.25,0.75 -0.05,0.1 -0.2,0.05 -0.3,-0.05 -0.85,0.1 -0.15,0.05 h -0.1 l -0.15,0.05 -0.35,0.05 -0.45,0.15 -0.2,0.1 -0.15,-0.05 -0.7,0.15 -0.4,0.1 -1.25,0.35 -1.65,0.55 -0.45,0.2 -0.75,0.4 -0.55,-0.75 -0.35,-0.6 -0.1,-0.45 -0.05,-0.1 -0.5,-2.4 -0.1,-0.6 0.1,-0.65 q 0.3,-2.5 1.15,-5 v -0.05 q 0.7,-2.35 1.05,-4.1 l 0.1,-0.6 v -0.05 l 0.15,-1.35 0.1,-0.65 0.05,-1.4 v -0.15 l 0.1,-0.35 0.05,-0.25 0.15,-0.85 0.45,0.6 0.15,0.2 0.8,1.05 0.45,0.55 0.25,0.4 0.35,0.45 0.1,0.2 v 0.05 l 2.55,4.9 0.3,0.7 0.15,0.2 0.55,1.45 0.7,1.6 m 1.15,7.25 v 0.05 l -0.9,0.6 -0.05,2.9 q -0.3,2.7 -0.65,3.45 l -0.45,0.95 -0.15,0.25 -0.05,0.15 -0.25,0.05 h -0.1 l -1.45,0.3 0.05,-0.1 0.15,-0.3 q 0.3,-1.1 0.45,-2.25 l 0.05,-0.35 q 0,-1.25 -0.45,-2.55 L -10,-8.85 -10.05,-8.9 v -0.15 l 0.5,-0.15 0.55,-0.15 0.35,-0.1 0.8,-0.2 h 0.2 l 0.5,-0.2 0.6,-0.1 0.3,-0.1 0.9,-0.2 h 0.1 m -10.25,25.95 -0.85,-2.5 -0.1,-0.5 q -0.25,-1.8 0.3,-6.75 0.15,-1.4 1.35,-2.45 1.2,-1.3 3.7,-2.35 l 1.2,-0.45 0.4,-0.1 4,-0.25 q -2.4,1.35 -4.8,4.55 -1.6,2.2 -2.5,4.05 l -0.6,1.1 -0.7,2.35 -0.1,0.6 v 0.55 h 0.4 l 0.15,-0.35 1.3,-2.45 -0.6,1.55 -0.55,2.6 -0.05,0.2 v 0.25 0.55 l 0.3,3.45 -0.25,0.65 -0.2,-0.3 -0.1,-0.2 -0.05,-0.05 -0.1,-0.2 -0.25,-0.75 -0.15,0.05 -0.95,-2.2 V 16.3 l -0.05,-0.4 -0.05,-0.2 h -0.1 m 6.2,3.85 v 0.05 l 0.2,0.4 0.7,2.05 0.3,1.55 q -0.45,4.15 -2.15,6.5 l -0.4,0.55 -1.3,1.05 -0.7,0.5 -2.25,1.4 -2.65,0.45 -0.2,0.05 q -2.35,0.2 -5.65,0 L -23.9,34 v -0.05 h 0.05 q 2.45,-0.25 4.6,-1.1 3.15,-1.2 5.7,-3.7 3.5,-3.55 3.9,-7.1 l 0.25,-2.6 0.1,0.1"
         fill="#cde0e0"
         fill-rule="evenodd"
         stroke="none"
         id="path62" />
      <path
         d="m -4.15,-29.45 -1.55,0.65 -0.25,-0.45 4.2,-1.9 4.25,-1.3 2.1,-0.7 3.55,-0.3 q -8.1,2.85 -12.55,3.85 l 0.25,0.15 M -6.4,-17.5 q 0.85,1.8 1.65,1.85 0.9,0.05 6.15,-4.5 l 6.25,-5.25 q -0.8,1.05 -1.45,2.4 -1.45,2.9 -1.85,6.2 -0.05,0.5 0.4,3.45 l -7.65,1 -2.45,0.5 -1.1,0.15 0.05,-0.1 0.25,-0.75 q 0.2,-2.05 -0.2,-4.4 L -6.4,-17.5 m 1.15,7.25 5.3,-0.35 2.55,-0.4 0.6,-0.05 q 4.15,-0.3 4.3,-1.7 l -0.4,-2.7 -0.2,-1.7 0.45,0.05 1.4,0.1 v 2.95 q -0.15,1.4 -1.85,3.95 -1.65,2.6 -2.95,3.45 l -2.5,1.75 q -1.6,1.15 -3.4,1.8 l -5.55,1.2 0.05,-0.15 0.15,-0.25 0.45,-0.95 Q -6.5,-4 -6.2,-6.7 l 0.05,-2.9 0.9,-0.6 v -0.05 m -8.45,29.95 0.2,0.3 0.25,-0.65 -0.3,-3.45 V 15.35 15.1 l 0.05,-0.2 0.55,-2.6 0.6,-1.55 1.95,-3.95 q -0.8,2.05 -1.05,4.5 -0.35,3.25 0.2,4.8 l 0.1,0.15 0.3,1.4 q 0.3,1.75 0.2,2.6 -0.35,3.05 -2.15,5.9 l 0.15,-0.95 q 0.25,-2.25 -1.05,-5.5"
         fill="#b4c4c4"
         fill-rule="evenodd"
         stroke="none"
         id="path63" />
    </g>
  </defs>
</svg>
