<?xml version="1.0" encoding="UTF-8" standalone="no"?>
<svg
   ffdec:objectType="frame"
   height="43.450001"
   width="29.25"
   version="1.1"
   id="svg14"
   sodipodi:docname="2.svg"
   xmlns:inkscape="http://www.inkscape.org/namespaces/inkscape"
   xmlns:sodipodi="http://sodipodi.sourceforge.net/DTD/sodipodi-0.dtd"
   xmlns:xlink="http://www.w3.org/1999/xlink"
   xmlns="http://www.w3.org/2000/svg"
   xmlns:svg="http://www.w3.org/2000/svg"
   xmlns:ffdec="https://www.free-decompiler.com/flash">
  <sodipodi:namedview
     id="namedview14"
     pagecolor="#ffffff"
     bordercolor="#000000"
     borderopacity="0.25"
     inkscape:showpageshadow="2"
     inkscape:pageopacity="0.0"
     inkscape:pagecheckerboard="0"
     inkscape:deskcolor="#d1d1d1"
     fit-margin-top="5"
     fit-margin-left="5"
     fit-margin-right="5"
     fit-margin-bottom="5" />
  <g
     transform="translate(14.6,21.7)"
     id="g4">
    <use
       ffdec:characterId="3767"
       height="27.5"
       transform="matrix(0.718,0,0,0.718,-0.5129,-0.2271)"
       width="17.1"
       xlink:href="#sprite0"
       id="use1" />
    <use
       ffdec:characterId="3767"
       height="27.5"
       transform="matrix(-0.718,0,0,0.718,4.7129,-7.2271)"
       width="17.1"
       xlink:href="#sprite0"
       id="use2" />
    <use
       ffdec:characterId="3768"
       height="43.5"
       transform="translate(-14.6,-21.75)"
       width="29.25"
       xlink:href="#shape1"
       id="use3" />
    <use
       ffdec:characterId="3500"
       height="8"
       transform="matrix(0.6204,0,0,0.6204,-9.95,5.3186)"
       width="10.8"
       xlink:href="#sprite3"
       id="use4" />
  </g>
  <defs
     id="defs14">
    <g
       id="sprite0"
       transform="translate(5.45,22.95)">
      <use
         ffdec:characterId="3766"
         height="27.5"
         transform="translate(-5.45,-22.95)"
         width="17.1"
         xlink:href="#sprite1"
         id="use5" />
    </g>
    <g
       id="sprite1"
       transform="translate(5.45,22.95)">
      <use
         ffdec:characterId="3765"
         height="5.25"
         transform="scale(0.7692)"
         width="5.0999999"
         xlink:href="#sprite2"
         id="use6" />
    </g>
    <g
       id="sprite2">
      <use
         ffdec:characterId="1852"
         height="5.25"
         width="5.0999999"
         xlink:href="#shape0"
         id="use7" />
    </g>
    <g
       id="shape0">
      <path
         d="M 3.4,1.1 2.1,1.2 1.55,2.05 Q 1.15,2.7 1.3,3.1 1.4,3.45 2.2,4 3,4.55 3.5,4.3 3.95,4.05 4.25,2.6 4.25,1.35 3.4,1.1 M 0.35,4.2 Q 0,3.6 0,2.9 0,0.55 2.55,0.1 5.1,-0.35 5.1,1.55 5.1,5.25 2.6,5.25 1,5.25 0.35,4.2"
         fill="#999999"
         fill-rule="evenodd"
         stroke="none"
         id="path7" />
    </g>
    <g
       id="shape1"
       transform="translate(14.6,21.75)">
      <path
         d="m -0.2,-19.9 -1.15,-0.05 0.05,0.1 h 0.65 L 0.4,-19.8 1,-19.85 h 0.65 l 0.05,-0.1 -0.95,0.05 H 0.55 0 -0.2 M -14.15,11.2 V 11.05 H -14.2 V 2.1 h -0.1 l 0.05,-0.95 q 0.6,-5.35 5.5,-8.5 2,-1.35 3.75,-1.65 l 0.5,-0.05 q 0.65,-0.4 0.85,-1 l 0.1,-0.3 q -0.65,-0.35 -1,-1.15 l -0.35,-1.55 q 0,-1.4 0.75,-2.2 l 0.7,-0.65 H -3 l -0.05,-0.25 -0.05,-1.4 0.05,-1.15 -0.2,-0.15 -0.1,-0.35 0.1,-1.5 q 0.1,-0.75 0.8,-0.75 l 3,-0.25 h 0.2 l 2.05,0.25 q 0.7,0 0.8,0.75 l 0.1,1.5 -0.1,0.35 -0.2,0.15 0.05,1.15 -0.05,1.4 -0.05,0.25 H 3.8 l 0.7,0.65 q 0.65,0.7 0.75,1.8 H 5.5 q 1.95,0 2.8,1.6 l 0.1,0.2 q 0.65,0.75 0.65,1.95 0,0.95 -0.35,1.35 L 8.25,-7.9 9.1,-7.35 q 4.9,3.15 5.5,8.5 l 0.05,0.95 h -0.1 v 8.95 H 14.5 l -0.1,1.9 v 1.3 q 0.05,1 -0.8,3.6 -1.4,2.4 -4.6,2.6 L 8.85,20.5 8.5,21.2 Q 7.75,21.85 5.7,21.65 H 1.05 L 0.75,21.7 H 0.7 l -0.45,0.05 -0.95,-0.1 h -4.65 q -2.05,0.2 -2.8,-0.45 L -8.5,20.5 -8.65,20.45 q -3.2,-0.2 -4.6,-2.6 -0.85,-2.6 -0.8,-3.6 v -1.3 l -0.05,-0.6 -0.05,-1.15 M -1.3,-15.9 H 1.65 Q 1.5,-16.55 1.5,-17.65 V -18.4 L 1.3,-18.45 H 0.75 v 0.15 H 0.55 0.25 0.1 0 -0.2 v -0.15 h -0.75 l -0.2,0.05 v 0.75 q 0,1.1 -0.15,1.75 m -3.9,9 q -0.35,0.2 -0.8,0.45 -3.2,1.9 -4.7,4.6 -0.75,1.4 -0.95,2.65 L 3.65,0.9 3.7,0.95 12.05,0.9 12,0.6 11.05,-1.85 q -1.5,-2.7 -4.7,-4.6 L 5.55,-6.9 H -5.2 m 3.45,-3.25 q 0,0.65 -0.25,1.2 h 2.25 0.3 0.2 1.6 Q 2.1,-9.5 2.1,-10.15 v -0.1 L 1.4,-10.2 H 0 -1.05 l -0.7,-0.05 v 0.1 m 1.55,-4.05 -1.2,-0.05 -0.75,-0.15 q -0.6,0.55 -0.6,1.15 0,0.85 2,1.35 L 0,-11.95 h 0.15 0.4 0.2 v 0.05 H 1.1 q 2,-0.5 2,-1.35 0,-0.6 -0.6,-1.15 l -1.75,0.2 H 0.55 0.25 0 -0.2 m 5.85,2.5 -0.75,0.25 v 0.05 q -0.4,0.7 -1,1.05 l 0.1,0.3 q 0.2,0.6 0.85,1 l 0.5,0.05 0.7,0.15 H 6.8 q 0.5,-0.7 0.5,-1.3 0,-0.55 -0.35,-1 L 6.7,-11.4 5.65,-11.7 m 6.5,21 V 3.45 L 12.1,2.1 V 1.85 l -8,-0.1 V 1.8 L -11.75,1.85 V 2.1 l -0.05,1.35 v 6.1 1.5 0.25 l 0.05,0.2 v 0.05 l 0.1,0.55 0.1,0.85 v 0.1 h 23.5 v -0.1 L 12,12.1 12.1,11.75 V 11.5 l 0.05,-0.25 V 11.05 9.45 9.3 M -10.8,9.4 -10.85,8.9 -11,5.4 l 0.25,-1.7 -0.1,-0.1 -0.05,-0.2 0.2,-0.3 0.4,-0.05 7.05,0.1 0.4,0.05 0.15,-0.05 q 0.5,-0.05 0.5,0.4 l -0.2,5.8 -0.15,1.95 v 0.15 l 0.35,0.35 -0.4,0.4 -8.15,-0.05 -0.1,-0.4 0.05,-0.1 0.15,-0.15 -0.05,-0.2 -0.1,-1.9 M 0.2,9.35 V 8.7 H 0.4 L 0.45,8.75 0.5,8.7 H 7.1 L 7.3,8.55 Q 10.35,8.5 10.7,8.6 L 10.85,8.8 11,8.75 11.2,8.8 11.3,9.05 V 9.3 l -0.05,0.05 0.1,0.7 -0.05,1.4 0.05,0.15 v 0.15 L 11.25,11.9 11,12 H 0.6 l -0.2,0.15 -0.1,-0.2 -0.4,-0.1 0.05,-0.1 0.15,-0.3 V 11.3 L 0.05,10.95 0.2,9.35 M 11.05,6.15 10.55,6.5 H 0.5 L -0.05,6.2 0.5,5.75 10.55,5.85 10.8,5.9 10.95,6 11.05,6.15 M 10.55,4.95 0.3,5 Q -0.95,5 -0.95,4.25 L -0.7,3.65 0.3,3.5 10.55,3.65 Q 11.6,3.5 11.6,4.3 q 0,0.65 -1.05,0.65 M 10.15,7.5 0.25,7.55 -0.2,7.15 0.25,6.75 h 9.9 Q 10.4,6.8 10.7,7.1 l -0.55,0.4 m 0.5,1.95 H 9.85 L 9.5,9.35 H 8.95 l -1.8,0.1 h -6.4 l -0.05,0.8 v 1 h 10 L 10.6,10.1 10.65,9.45 m -1.85,8.75 0.35,-0.05 0.5,-0.3 q 0.9,-0.55 1.4,-1.5 l -7.2,-0.1 -0.35,0.1 h -14.2 q 0.5,0.95 1.4,1.5 l 0.5,0.3 0.35,0.05 H 8.8 M 3.2,14.55 v -0.6 h -14.55 l 0.1,0.5 14.35,0.1 h 0.1 m -13.25,-5.2 -0.05,2.1 1.3,-0.05 h 6.1 V 11.3 L -2.85,9.35 -2.95,8.3 -3.2,3.75 h -7.05 Q -10,4.3 -10,5.35 l -0.05,4"
         fill="#6b6b6b"
         fill-rule="evenodd"
         stroke="none"
         id="path8" />
      <path
         d="M -0.2,-19.9 H 0 0.55 0.75 l 0.95,-0.05 -0.05,0.1 H 1 l -0.6,0.05 -1.05,-0.05 H -1.3 l -0.05,-0.1 1.15,0.05"
         fill="#7b7b7b"
         fill-rule="evenodd"
         stroke="none"
         id="path9" />
      <path
         d="m -0.4,-13.65 q 0,0.6 -0.6,0.6 l -0.6,-0.15 v -0.45 q 0,-0.65 0.6,-0.55 0.6,0.1 0.6,0.55 m -6.15,10.2 q 0,-0.65 0.7,-1.25 0.85,-0.85 2.45,-0.85 2.45,0 2.4,1.65 0,0.55 -0.7,1.2 -0.9,0.8 -2.25,0.8 -1.25,0 -2,-0.6 -0.6,-0.45 -0.6,-0.95 m -2.85,1.9 0.7,-0.8 q 0.65,-0.4 0.65,0.35 0,0.55 -0.9,0.95 l -0.45,-0.5"
         fill="#ffffff"
         fill-rule="evenodd"
         stroke="none"
         id="path10" />
      <path
         d="M -11.8,9.55 V 3.45 L -11.75,2.1 V 1.85 L 4.1,1.8 V 1.75 l 8,0.1 V 2.1 l 0.05,1.35 V 9.3 H 11.9 11.3 V 9.05 L 11.2,8.8 11,8.75 10.85,8.8 10.7,8.6 Q 10.35,8.5 7.3,8.55 L 7.1,8.7 H 0.5 0.4 0.2 v 0.65 h -2.6 l 0.2,-5.8 q 0,-0.45 -0.5,-0.4 l -0.15,0.05 -0.4,-0.05 -7.05,-0.1 -0.4,0.05 -0.2,0.3 0.05,0.2 0.1,0.1 -0.25,1.7 0.15,3.5 0.05,0.5 -1,0.15 M 10.15,7.5 10.7,7.1 Q 10.4,6.8 10.15,6.75 h -9.9 l -0.45,0.4 0.45,0.4 9.9,-0.05 m 0.4,-2.55 q 1.05,0 1.05,-0.65 0,-0.8 -1.05,-0.65 L 0.3,3.5 l -1,0.15 -0.25,0.6 Q -0.95,5 0.3,5 L 10.55,4.95 m 0.5,1.2 L 10.95,6 10.8,5.9 10.55,5.85 0.5,5.75 -0.05,6.2 0.5,6.5 h 10.05 l 0.5,-0.35 m -13.9,3.2 h -4.75 -2.45 l 0.05,-4 q 0,-1.05 -0.25,-1.6 h 7.05 l 0.25,4.55 0.1,1.05"
         fill="#9f9f9f"
         fill-rule="evenodd"
         stroke="none"
         id="path11" />
      <path
         d="m -14.15,11.2 0.05,1.15 -0.5,-0.4 0.45,-0.75 m 2.35,-1.65 1,-0.15 0.1,1.9 0.05,0.2 -0.15,0.15 -0.05,0.1 0.1,0.4 8.15,0.05 0.4,-0.4 -0.35,-0.35 V 11.3 L -2.4,9.35 h 2.6 l -0.15,1.6 0.05,0.35 v 0.15 l -0.15,0.3 -0.05,0.1 0.4,0.1 0.1,0.2 L 0.6,12 H 11 l 0.25,-0.1 0.1,-0.15 V 11.6 l -0.05,-0.15 0.05,-1.4 -0.1,-0.7 0.05,-0.05 h 0.6 l 0.25,0.15 v 1.6 0.2 L 12.1,11.5 v 0.25 L 12,12.1 11.95,12.95 v 0.1 h -23.5 v -0.1 l -0.1,-0.85 -0.1,-0.55 V 11.5 l -0.05,-0.2 v -0.25 -1.5 m 22.45,-0.1 -0.05,0.65 0.1,1.15 h -10 v -1 l 0.05,-0.8 h 6.4 l 1.8,-0.1 H 9.5 l 0.35,0.1 h 0.8 M 3.2,14.55 H 3.1 l -14.35,-0.1 -0.1,-0.5 H 3.2 v 0.6 m -13.25,-5.2 h 2.45 4.75 l 0.15,1.95 v 0.1 h -6.1 l -1.3,0.05 0.05,-2.1"
         fill="#b8b8b8"
         fill-rule="evenodd"
         stroke="none"
         id="path12" />
      <path
         d="m -1.3,-15.9 q 0.15,-0.65 0.15,-1.75 v -0.75 l 0.2,-0.05 h 0.75 v 0.15 h 0.2 0.1 0.15 0.3 0.2 v -0.15 H 1.3 l 0.2,0.05 v 0.75 q 0,1.1 0.15,1.75 H -1.3 m 0.9,2.25 q 0,-0.45 -0.6,-0.55 -0.6,-0.1 -0.6,0.55 v 0.45 l 0.6,0.15 q 0.6,0 0.6,-0.6 m 0.2,-0.55 h 0.2 0.25 0.3 0.2 l 1.75,-0.2 q 0.6,0.55 0.6,1.15 0,0.85 -2,1.35 H 0.75 v -0.05 H 0.55 0.15 0 l -0.75,0.05 q -2,-0.5 -2,-1.35 0,-0.6 0.6,-1.15 l 0.75,0.15 1.2,0.05 m -1.55,4.05 v -0.1 l 0.7,0.05 H 0 1.4 l 0.7,-0.05 v 0.1 q 0,0.65 0.25,1.2 H 0.75 0.55 0.25 -2 q 0.25,-0.55 0.25,-1.2 M -5.2,-6.9 H 5.55 l 0.8,0.45 q 3.2,1.9 4.7,4.6 L 12,0.6 12.05,0.9 3.7,0.95 3.65,0.9 -11.65,0.8 q 0.2,-1.25 0.95,-2.65 1.5,-2.7 4.7,-4.6 0.45,-0.25 0.8,-0.45 m -4.2,5.35 0.45,0.5 q 0.9,-0.4 0.9,-0.95 0,-0.75 -0.65,-0.35 l -0.7,0.8 m 2.85,-1.9 q 0,0.5 0.6,0.95 0.75,0.6 2,0.6 1.35,0 2.25,-0.8 0.7,-0.65 0.7,-1.2 0.05,-1.65 -2.4,-1.65 -1.6,0 -2.45,0.85 -0.7,0.6 -0.7,1.25 M 8.8,18.2 H -8.45 l -0.35,-0.05 -0.5,-0.3 q -0.9,-0.55 -1.4,-1.5 H 3.5 l 0.35,-0.1 7.2,0.1 q -0.5,0.95 -1.4,1.5 l -0.5,0.3 -0.35,0.05"
         fill="#7b7b7b"
         fill-opacity="0.65098"
         fill-rule="evenodd"
         stroke="none"
         id="path13" />
    </g>
    <g
       id="sprite3"
       transform="translate(5.4,4)">
      <use
         ffdec:characterId="43"
         height="8"
         transform="translate(-5.4,-4)"
         width="10.8"
         xlink:href="#shape2"
         id="use13" />
    </g>
    <g
       id="shape2"
       transform="translate(5.4,4)">
      <path
         d="m 2.9,-0.35 q 0,-1.25 1.25,-1.25 1.25,0 1.25,1.2 0,1.3 -1.25,1.3 Q 3.6,0.9 3.25,0.5 2.9,0.15 2.9,-0.35 m 0.35,-2.3 q 0,0.55 -0.35,0.9 -0.4,0.45 -1,0.45 -1.35,0 -1.35,-1.4 0,-1.3 1.35,-1.3 1.35,0 1.35,1.35 m -3.1,1.9 h 0.2 q 2.6,0.1 2.6,2.8 l -0.3,1 Q 2.05,4 0.45,4 H 0.35 0.15 0.1 -0.45 q -1.6,0 -2.2,-0.95 l -0.3,-1 q 0,-2.8 2.8,-2.8 h 0.3 M -1.55,-4 q 1.35,0 1.35,1.35 0,0.55 -0.4,0.9 -0.4,0.45 -0.95,0.45 -1.4,0 -1.4,-1.4 0,-1.3 1.4,-1.3 m -2.6,2.4 q 1.25,0 1.25,1.25 0,0.5 -0.35,0.85 -0.35,0.4 -0.9,0.4 -1.25,0 -1.25,-1.3 0,-1.2 1.25,-1.2"
         fill="#6b6b6b"
         fill-rule="evenodd"
         stroke="none"
         id="path14" />
    </g>
  </defs>
</svg>
