<?xml version="1.0" encoding="UTF-8" standalone="no"?>
<svg
   ffdec:objectType="frame"
   height="12.9"
   width="14.9"
   version="1.1"
   id="svg2"
   sodipodi:docname="1.svg"
   xmlns:inkscape="http://www.inkscape.org/namespaces/inkscape"
   xmlns:sodipodi="http://sodipodi.sourceforge.net/DTD/sodipodi-0.dtd"
   xmlns:xlink="http://www.w3.org/1999/xlink"
   xmlns="http://www.w3.org/2000/svg"
   xmlns:svg="http://www.w3.org/2000/svg"
   xmlns:ffdec="https://www.free-decompiler.com/flash">
  <sodipodi:namedview
     id="namedview2"
     pagecolor="#ffffff"
     bordercolor="#000000"
     borderopacity="0.25"
     inkscape:showpageshadow="2"
     inkscape:pageopacity="0.0"
     inkscape:pagecheckerboard="0"
     inkscape:deskcolor="#d1d1d1"
     fit-margin-top="5"
     fit-margin-left="5"
     fit-margin-right="5"
     fit-margin-bottom="5" />
  <g
     transform="translate(7.45,6.45)"
     id="g1">
    <use
       ffdec:characterId="4203"
       height="12.9"
       transform="translate(-7.45,-6.45)"
       width="14.9"
       xlink:href="#shape0"
       id="use1" />
  </g>
  <defs
     id="defs2">
    <g
       id="shape0"
       transform="translate(7.45,6.45)">
      <path
         d="M 3.2,-1.45 2.8,-1.15 2.75,-1.05 2.6,-0.9 1.65,0 H 4.9 l 0.05,-1.85 -0.8,0.4 H 3.2 m 1.75,-0.7 0.05,-1 -0.8,0.75 0.65,0.3 0.1,0.1 V -2.15 M 3.5,-4.05 h -7.9 l 0.05,0.75 v 0.9 h 5.5 L 3.5,-4.05 m 3.95,-0.6 v 9.9 L 6.9,6.45 H -6.9 l -0.55,-1 V -5.2 -5.35 l 0.35,-0.8 0.15,-0.3 H 7 l 0.45,1.8 M 4.95,3.75 4.9,3.45 4.85,2.4 V 1.25 l -4.7,0.1 -2.3,1.9 L -3,3.85 -3.05,3.9 4.7,3.85 H 4.95 V 3.75 M -4.4,-0.2 v 0.15 h 2.55 l 1.6,-1.3 0.15,-0.1 H -4.35 L -4.4,-0.2 M -4.5,1.35 -4.55,2.1 -3.6,1.35 h -0.9"
         fill="#6b6b6b"
         fill-rule="evenodd"
         stroke="none"
         id="path1" />
      <path
         d="M 3.5,-4.05 1.15,-2.4 h -5.5 V -3.3 L -4.4,-4.05 h 7.9 m 1.45,1.9 V -2 L 4.85,-2.1 4.2,-2.4 5,-3.15 l -0.05,1 M 3.2,-1.45 H 4.15 L 4.95,-1.85 4.9,0 H 1.65 L 2.6,-0.9 2.75,-1.05 2.8,-1.15 3.2,-1.45 M 4.7,3.85 -3.05,3.9 -3,3.85 l 0.85,-0.6 2.3,-1.9 4.7,-0.1 V 2.4 L 4.9,3.45 4.95,3.75 4.7,3.85 m -9.2,-2.5 h 0.9 L -4.55,2.1 -4.5,1.35 m 0.1,-1.55 0.05,-1.25 h 4.25 l -0.15,0.1 -1.6,1.3 H -4.4 V -0.2"
         fill="#cbbaba"
         fill-rule="evenodd"
         stroke="none"
         id="path2" />
    </g>
  </defs>
</svg>
