<?xml version="1.0" encoding="UTF-8" standalone="no"?>
<svg
   ffdec:objectType="frame"
   height="83.985001"
   width="83.349998"
   version="1.1"
   id="svg48"
   sodipodi:docname="1.svg"
   xmlns:inkscape="http://www.inkscape.org/namespaces/inkscape"
   xmlns:sodipodi="http://sodipodi.sourceforge.net/DTD/sodipodi-0.dtd"
   xmlns:xlink="http://www.w3.org/1999/xlink"
   xmlns="http://www.w3.org/2000/svg"
   xmlns:svg="http://www.w3.org/2000/svg"
   xmlns:ffdec="https://www.free-decompiler.com/flash">
  <sodipodi:namedview
     id="namedview48"
     pagecolor="#ffffff"
     bordercolor="#000000"
     borderopacity="0.25"
     inkscape:showpageshadow="2"
     inkscape:pageopacity="0.0"
     inkscape:pagecheckerboard="0"
     inkscape:deskcolor="#d1d1d1"
     fit-margin-top="5"
     fit-margin-left="5"
     fit-margin-right="5"
     fit-margin-bottom="5" />
  <g
     transform="translate(43.4,42.05)"
     id="g22">
    <use
       ffdec:characterId="272"
       height="15.55"
       transform="matrix(0.9847,0,0,0.9847,27.65,25.55)"
       width="12.4"
       xlink:href="#sprite0"
       id="use1" />
    <use
       ffdec:characterId="274"
       height="52.549999"
       transform="matrix(0.8485,0,0,0.9311,-30.1,-39.3)"
       width="54.5"
       xlink:href="#sprite1"
       id="use2" />
    <use
       ffdec:characterId="274"
       height="52.549999"
       transform="matrix(0.8485,0,0,0.816,-31.6,-1.15)"
       width="54.5"
       xlink:href="#sprite1"
       id="use3" />
    <use
       ffdec:characterId="274"
       height="52.549999"
       transform="matrix(0.9017,0,0,0.9311,-21.4,-39.3)"
       width="54.5"
       xlink:href="#sprite1"
       id="use4" />
    <use
       ffdec:characterId="274"
       height="52.549999"
       transform="matrix(0.9017,0,0,0.816,-22.6,-1.15)"
       width="54.5"
       xlink:href="#sprite1"
       id="use5" />
    <use
       ffdec:characterId="276"
       height="40.849998"
       transform="matrix(0.9367,0,0,-0.8485,-25.6,-5.1)"
       width="49.400002"
       xlink:href="#sprite2"
       id="use6" />
    <use
       ffdec:characterId="278"
       height="6.5"
       transform="translate(0.4,-34.9)"
       width="13.65"
       xlink:href="#sprite3"
       id="use7" />
    <use
       ffdec:characterId="280"
       height="25.5"
       transform="matrix(0,1.4296,1.6314,0,-33.7657,34.25)"
       width="5.3000002"
       xlink:href="#sprite4"
       id="use8" />
    <use
       ffdec:characterId="280"
       height="25.5"
       transform="matrix(0,1.4296,1.6314,0,-9.7657,34.25)"
       width="5.3000002"
       xlink:href="#sprite4"
       id="use9" />
    <use
       ffdec:characterId="276"
       height="40.849998"
       transform="matrix(0.9367,0,0,0.8485,-24.6,7.25)"
       width="49.400002"
       xlink:href="#sprite2"
       id="use10" />
    <use
       ffdec:characterId="280"
       height="25.5"
       transform="matrix(1.4296,0,0,1.4296,-35.25,-33.9148)"
       width="5.3000002"
       xlink:href="#sprite4"
       id="use11" />
    <use
       ffdec:characterId="282"
       height="7.6999998"
       transform="translate(-3.3,29.6)"
       width="9.0500002"
       xlink:href="#sprite5"
       id="use12" />
    <use
       ffdec:characterId="284"
       height="7.6999998"
       transform="translate(6.65,29.9)"
       width="9.0500002"
       xlink:href="#sprite6"
       id="use13" />
    <use
       ffdec:characterId="276"
       height="40.849998"
       transform="matrix(-0.9367,0,0,0.8485,21.35,-24.25)"
       width="49.400002"
       xlink:href="#sprite2"
       id="use14" />
    <use
       ffdec:characterId="286"
       height="4.9000001"
       transform="translate(-8.2,-19.4)"
       width="11.85"
       xlink:href="#sprite7"
       id="use15" />
    <use
       ffdec:characterId="286"
       height="4.9000001"
       transform="translate(-8.2,13)"
       width="11.85"
       xlink:href="#sprite7"
       id="use16" />
    <use
       ffdec:characterId="288"
       height="48.799999"
       transform="matrix(0,1.1081,1.1421,0,-43.4,-42.05)"
       width="9.1999998"
       xlink:href="#sprite8"
       id="use17" />
    <use
       ffdec:characterId="290"
       height="30.799999"
       transform="matrix(0,1.1081,1,0,9.15,-42.05)"
       width="9.1999998"
       xlink:href="#sprite9"
       id="use18" />
    <use
       ffdec:characterId="280"
       height="25.5"
       transform="matrix(-1.4296,0,0,1.6314,-28.95,0.3343)"
       width="5.3000002"
       xlink:href="#sprite4"
       id="use19" />
    <use
       ffdec:characterId="280"
       height="25.5"
       transform="matrix(-1.4296,0,0,1.4296,33.75,-33.9148)"
       width="5.3000002"
       xlink:href="#sprite4"
       id="use20" />
    <use
       ffdec:characterId="280"
       height="25.5"
       transform="matrix(1.4296,0,0,1.6314,24.15,0.3343)"
       width="5.3000002"
       xlink:href="#sprite4"
       id="use21" />
    <use
       ffdec:characterId="292"
       height="15.45"
       transform="matrix(0.866,0.5,-0.5,0.866,10.0755,-12.1745)"
       width="7.3499999"
       xlink:href="#sprite10"
       id="use22" />
  </g>
  <defs
     id="defs48">
    <g
       id="sprite0">
      <use
         ffdec:characterId="271"
         height="15.55"
         width="12.4"
         xlink:href="#shape0"
         id="use23" />
    </g>
    <g
       id="shape0">
      <path
         d="m 12.35,10.65 -0.35,2.6 0.3,0.9 q 0,0.7 -0.4,0.95 l -3.2,0.45 -7.35,-0.3 -0.2,-0.1 Q 0.45,14.9 0.3,14.05 V 12.7 L 0.1,10.45 0,7.05 Q 0.05,2.65 1.15,1.25 1.2,0.65 1.6,0.4 L 4.2,0 h 1.3 l 5.3,0.35 0.15,-0.05 0.4,0.15 0.2,0.05 q 0.6,0.2 0.6,0.85 l -0.1,0.5 q 0.35,1.5 0.35,4.5 l -0.05,4.3 M 5.45,2.7 H 4.2 3.75 L 2.6,2.6 2.7,3.1 3.75,3.15 4.35,3.2 9.65,3.25 9.7,2.75 V 2.6 H 9.6 L 5.5,2.7 H 5.45 M 5.6,11.35 9.65,11.4 9.55,10.55 V 8.7 l -1.1,0.55 h -0.2 l -0.1,-0.3 q 0,-0.4 1.4,-1 V 7.65 H 6.8 L 6.15,7.4 Q 6.05,7.1 6.3,7.05 L 9.5,6.95 V 6.35 L 9.55,4.15 5.5,4.25 H 3.65 l -0.8,0.05 0.1,1.3 0.25,4.85 v 0.85 h 0.4 l 2,0.05 m -2,0.95 H 3.2 v 0.4 0.1 l 0.4,-0.05 2,-0.1 2.85,0.1 1.35,-0.1 -0.1,-0.5 -4.1,0.1 -2,0.05"
         fill="#6b6b6b"
         fill-rule="evenodd"
         stroke="none"
         id="path23" />
      <path
         d="M 5.45,2.7 H 5.5 L 9.6,2.6 H 9.7 V 2.75 L 9.65,3.25 4.35,3.2 3.75,3.15 2.7,3.1 2.6,2.6 3.75,2.7 H 4.2 5.45 M 5.5,4.25 5.6,11.35 3.6,11.3 3.65,4.25 H 5.5 m -1.9,8.5 v -0.1 -0.35 l 2,-0.05 v 0.4 l -2,0.1"
         fill="#e5e5e5"
         fill-rule="evenodd"
         stroke="none"
         id="path24" />
      <path
         d="M 5.5,4.25 9.55,4.15 9.5,6.35 v 0.6 L 6.3,7.05 Q 6.05,7.1 6.15,7.4 L 6.8,7.65 h 2.75 v 0.3 q -1.4,0.6 -1.4,1 l 0.1,0.3 h 0.2 L 9.55,8.7 v 1.85 L 9.65,11.4 5.6,11.35 5.5,4.25 M 3.6,11.3 H 3.2 V 10.45 L 2.95,5.6 2.85,4.3 3.65,4.25 3.6,11.3 m 0,1.45 -0.4,0.05 v -0.1 -0.4 h 0.4 v 0.35 0.1 m 2,-0.5 4.1,-0.1 0.1,0.5 -1.35,0.1 -2.85,-0.1 v -0.4"
         fill="#c4c4c4"
         fill-rule="evenodd"
         stroke="none"
         id="path25" />
    </g>
    <g
       id="sprite1">
      <use
         ffdec:characterId="273"
         height="52.549999"
         width="54.5"
         xlink:href="#shape1"
         id="use25" />
    </g>
    <g
       id="shape1">
      <path
         d="m 53.7,1.1 0.45,1.15 v 0.2 L 54.2,2.6 v 21.95 2.6 l 0.3,22.2 q 0,2.5 -1.9,2.5 H 52.2 L 51.25,52.1 39.3,52.55 H 1.75 Q 0.8,52.6 0.3,51.85 0,51.3 0,50.75 L 0.1,49.8 0.8,49.35 0.75,49.3 V 33.9 L 0.6,16.35 Q 0.05,12.9 0.05,9.7 -0.05,3.4 2.3,3.2 H 2.45 Q 3.8,2.35 7.1,1.55 L 8.7,1.25 Q 10.4,-0.3 25.75,0.1 l 8.85,0.35 h 17.7 q 0.85,0 1.4,0.65 M 46.5,7.75 50.35,4 12.55,3.95 11.8,3.8 9.8,4.55 5.3,5.35 4.75,5.5 7.55,7.25 q 1.9,1.15 3,2.3 l 0.3,-0.15 q 0.4,-0.1 0.4,-0.55 h 27.1 l 6.4,0.4 1.75,-1.5 m -3,2.7 -5.15,0.15 h -9.5 v 0.65 L 28.7,12.9 v 0.9 l 0.25,7.8 0.2,11.85 v 5.35 l -0.25,3.25 14.4,0.05 0.55,0.1 q -0.3,-1.3 -0.3,-3 l 0.1,-4.35 q -0.1,-1.75 -0.05,-5 l 0.05,-1.15 -2.7,2.5 -0.15,-0.15 v -0.4 q 0,-0.2 1.1,-1.55 0.9,-1.1 1.75,-1.75 V 27 H 43.2 q -0.8,0 -0.8,-0.35 l 1.1,-0.7 0.15,-0.05 0.05,-8.05 q 0.05,-4.05 0.45,-6.9 L 44.05,11 43.65,10.85 Q 43.5,10.8 43.5,10.45 m 1.25,0.05 q 0.35,1.15 0.35,3.05 L 45,17.9 v 8.65 l 0.05,3.5 -0.05,5.1 0.15,4.3 q 0,2 -0.55,3.4 1,0.35 3.4,3.1 l 2.7,3.3 0.25,-22 v -2.8 -19.8 l -2.5,2.55 -3.7,3.3 M 43.3,43.85 Q 12.05,43.95 11.5,44.1 L 10.8,43.75 7.7,47 5.65,48.95 h 7.9 l 11.8,-0.1 13.95,0.1 q 5.5,-0.1 8.8,0.15 L 47,47.7 44.15,43.75 43.3,43.85 M 27.25,11.3 27.3,10.6 H 11.4 l 0.25,0.4 -0.1,0.3 -0.5,0.15 -0.05,-0.05 0.35,5.95 0.25,9.05 -0.1,15.45 0.55,0.1 15.3,0.1 V 41.9 13.05 L 27.25,11.3 M 4.4,9.3 q 0,3.15 -0.4,7 v 1.45 L 4.1,20 q 0.75,17.2 0.75,24.2 v 2.85 l 0.9,-0.8 Q 8.6,43.7 10.4,42.4 10.05,40.6 9.95,34.9 V 26.5 L 10,18.25 q 0.15,-3.9 0.6,-7.1 L 4.3,6.35 4.4,9.3"
         fill="#9a9a9a"
         fill-rule="evenodd"
         stroke="none"
         id="path26" />
      <path
         d="m 43.5,10.45 q 0,0.35 0.15,0.4 l 0.4,0.15 0.1,-0.05 q -0.4,2.85 -0.45,6.9 l -0.05,8.05 -0.15,0.05 -1.1,0.7 q 0,0.35 0.8,0.35 h 0.45 v 0.35 Q 42.8,28 41.9,29.1 q -1.1,1.35 -1.1,1.55 v 0.4 l 0.15,0.15 2.7,-2.5 -0.05,1.15 q -0.05,3.25 0.05,5 l -0.1,4.35 q 0,1.7 0.3,3 L 43.3,42.1 28.9,42.05 29.15,38.8 V 33.45 L 28.95,21.6 28.7,13.8 v -0.9 l 0.15,-1.65 V 10.6 h 9.5 l 5.15,-0.15 m 3,-2.7 -1.75,1.5 -6.4,-0.4 h -27.1 q 0,0.45 -0.4,0.55 l -0.3,0.15 Q 9.45,8.4 7.55,7.25 L 4.75,5.5 5.3,5.35 9.8,4.55 11.8,3.8 12.55,3.95 50.35,4 46.5,7.75 M 4.4,9.3 4.3,6.35 l 6.3,4.8 q -0.45,3.2 -0.6,7.1 L 9.95,26.5 v 8.4 q 0.1,5.7 0.45,7.5 -1.8,1.3 -4.65,3.85 l -0.9,0.8 V 44.2 Q 4.85,37.2 4.1,20 L 4,17.75 V 16.3 q 0.4,-3.85 0.4,-7 m 22.85,2 0.1,1.75 V 41.9 42.05 L 12.05,41.95 11.5,41.85 11.6,26.4 11.35,17.35 11,11.4 l 0.05,0.05 0.5,-0.15 0.1,-0.3 -0.25,-0.4 h 15.9 l -0.05,0.7"
         fill="#afafaf"
         fill-rule="evenodd"
         stroke="none"
         id="path27" />
      <path
         d="m 43.3,43.85 0.85,-0.1 2.85,3.95 1.1,1.4 q -3.3,-0.25 -8.8,-0.15 l -13.95,-0.1 -11.8,0.1 H 5.65 L 7.7,47 l 3.1,-3.25 0.7,0.35 q 0.55,-0.15 31.8,-0.25 m 1.45,-33.35 3.7,-3.3 2.5,-2.55 v 19.8 2.8 l -0.25,22 -2.7,-3.3 q -2.4,-2.75 -3.4,-3.1 0.55,-1.4 0.55,-3.4 L 45,35.15 45.05,30.05 45,26.55 V 17.9 l 0.1,-4.35 q 0,-1.9 -0.35,-3.05"
         fill="#bcbcbc"
         fill-rule="evenodd"
         stroke="none"
         id="path28" />
    </g>
    <g
       id="sprite2">
      <use
         ffdec:characterId="275"
         height="40.849998"
         width="49.400002"
         xlink:href="#shape2"
         id="use28" />
    </g>
    <g
       id="shape2">
      <path
         d="M 46.8,2.85 47.4,2.8 Q 46,6 45.8,8.3 L 44.85,7.1 45.5,9.25 45.75,9.8 44.95,16.7 44.3,21.35 43.55,21.3 H 3.95 V 14.4 L 4.1,7.15 3.85,3.3 h 28.6 L 46.8,2.85 m -3.25,20.75 1.1,-0.05 -0.1,1.45 0.15,7.45 q 0.15,3.05 0.45,4.9 l -13.6,-0.6 H 3.15 l 0.4,-4 0.3,-3.85 0.25,-0.3 1,-1.25 L 6,27.1 q 1.85,-0.6 2.75,-1.45 l -3.6,0.25 -1.2,0.35 V 25.7 L 3.7,24.9 3.85,23.55 43.55,23.6"
         fill="#c4c4c4"
         fill-rule="evenodd"
         stroke="none"
         id="path29" />
      <path
         d="M 46.8,2.85 32.45,3.3 H 3.85 L 4.1,7.15 3.95,14.4 v 6.9 h 39.6 L 44.3,21.35 44.95,16.7 45.75,9.8 45.5,9.25 44.85,7.1 45.8,8.3 Q 46,6 47.4,2.8 l -0.6,0.05 m 2,1.8 0.2,0.95 -0.1,0.3 q -0.35,1.6 -0.4,4.75 l -0.45,3.45 v 0.2 l -0.6,3.25 q -0.3,1.9 -0.3,5.25 l 0.65,7.35 -0.05,2.6 q -0.2,4.05 -0.65,5.85 v 0.2 l -0.45,0.95 -0.45,0.3 H 46.15 L 45.1,40.3 31.55,40.8 2.75,40.85 1.7,40.55 Q 0.55,40.5 0,39.95 L 1.5,30.4 1.45,29.3 1.85,27.5 1.5,26.35 1.8,21.45 V 13.05 4.8 L 1.85,0.6 Q 2.35,0.15 3.8,0 h 28.65 l 14.6,0.5 q 2.35,0.25 2.35,1.2 l -0.2,0.5 0.05,0.7 Q 48.8,3.8 48.8,4.65 M 43.55,23.6 3.85,23.55 3.7,24.9 3.95,25.7 v 0.55 l 1.2,-0.35 3.6,-0.25 Q 7.85,26.5 6,27.1 l -0.9,0.25 -1,1.25 -0.25,0.3 -0.3,3.85 -0.4,4 h 28.4 l 13.6,0.6 Q 44.85,35.5 44.7,32.45 L 44.55,25 l 0.1,-1.45 -1.1,0.05"
         fill="#6b6b6b"
         fill-rule="evenodd"
         stroke="none"
         id="path30" />
    </g>
    <g
       id="sprite3">
      <use
         ffdec:characterId="277"
         height="6.5"
         width="13.65"
         xlink:href="#shape3"
         id="use30" />
    </g>
    <g
       id="shape3">
      <path
         d="m 13.65,2.5 q 0.1,2.75 -0.2,3.4 l 0.1,0.2 -0.3,0.4 H 0.85 L 0.7,6.4 H 0.65 Q 0,6.4 0.15,3.4 -0.15,1.4 0.1,0.7 V 0.65 l 0.45,-0.5 h 3.3 l 0.5,0.05 h 7.25 l 1.3,0.1 Q 13,-0.1 13.2,0 13.65,0.2 13.65,2.5 M 12.8,1 11.6,1.05 1.15,1.1 1.2,1.8 1.15,3.4 V 4.95 L 1.1,5.65 H 13 Q 12.75,4.75 12.75,1.95 L 12.8,1 M 11,2.05 11.1,2.3 q 0,0.5 -1.05,0.6 L 4.9,3 3.75,2.9 2.45,2.95 2.2,2.75 2.05,2.35 q 0,-0.7 0.7,-0.7 H 7.1 l 3.65,0.2 0.25,0.2 m 0.5,2.5 -0.3,0.35 H 8.75 L 8.35,4.7 8.45,4.4 11.15,4.3 11.5,4.55 M 12.25,3.75 11.9,4.1 6.45,4 6.4,3.75 q 0,-0.2 0.35,-0.25 l 2.4,-0.1 h 2.75 l 0.35,0.35 M 7.65,4.55 7.15,4.9 H 4.55 L 4.3,4.95 2.55,4.9 2.45,4.85 2.2,4.65 2.55,4.3 h 4.6 l 0.5,0.25 M 5.1,4.05 4.95,4.1 H 2.65 L 2.4,3.75 2.65,3.6 h 2.4 l 0.1,0.25 -0.05,0.2"
         fill="#6b6b6b"
         fill-rule="evenodd"
         stroke="none"
         id="path31" />
      <path
         d="M 5.1,4.05 5.15,3.85 5.05,3.6 H 2.65 L 2.4,3.75 2.65,4.1 h 2.3 L 5.1,4.05 M 7.65,4.55 7.15,4.3 H 2.55 L 2.2,4.65 2.45,4.85 2.55,4.9 4.3,4.95 4.55,4.9 h 2.6 L 7.65,4.55 M 12.25,3.75 11.9,3.4 H 9.15 L 6.75,3.5 Q 6.4,3.55 6.4,3.75 L 6.45,4 11.9,4.1 12.25,3.75 M 11.5,4.55 11.15,4.3 8.45,4.4 8.35,4.7 8.75,4.9 H 11.2 L 11.5,4.55 M 11,2.05 10.75,1.85 7.1,1.65 H 2.75 q -0.7,0 -0.7,0.7 L 2.2,2.75 2.45,2.95 3.75,2.9 4.9,3 10.05,2.9 Q 11.1,2.8 11.1,2.3 L 11,2.05 M 12.8,1 12.75,1.95 q 0,2.8 0.25,3.7 H 1.1 L 1.15,4.95 V 3.4 L 1.2,1.8 1.15,1.1 11.6,1.05 12.8,1"
         fill="#c4c1a0"
         fill-rule="evenodd"
         stroke="none"
         id="path32" />
    </g>
    <g
       id="sprite4"
       transform="translate(0,0.5)">
      <use
         ffdec:characterId="279"
         height="25.5"
         transform="translate(0,-0.5)"
         width="5.3000002"
         xlink:href="#shape4"
         id="use32" />
    </g>
    <g
       id="shape4"
       transform="translate(0,0.5)">
      <path
         d="M 2.7,-0.5 Q 5,-0.55 5,0.5 V 0.65 L 5.3,1.2 V 12.05 L 5.25,18.4 4.8,23.2 5,23.85 Q 5,25 3.45,25 L 0.65,24.65 Q 0.45,24.5 0.4,24.1 0.1,23.5 0,22.3 V 19.75 L 0.2,10.4 0.05,1.1 0.15,0.1 0.7,-0.05 Q 1.25,-0.5 2.7,-0.5 M 2.3,4.7 2.1,9.8 2.25,19.85 v 2.6 0.3 L 3.35,22.7 Q 3.05,21.15 3,18.25 L 3.05,12.05 3.1,5.8 Q 3.2,3.5 3.6,1.7 H 2.75 1.95 q 0.35,1.25 0.35,3"
         fill="#6b6b6b"
         fill-rule="evenodd"
         stroke="none"
         id="path33" />
      <path
         d="m 2.3,4.7 q 0,-1.75 -0.35,-3 H 2.75 3.6 Q 3.2,3.5 3.1,5.8 L 3.05,12.05 3,18.25 q 0.05,2.9 0.35,4.45 l -1.1,0.05 v -0.3 -2.6 L 2.1,9.8 2.3,4.7"
         fill="#b2a69a"
         fill-rule="evenodd"
         stroke="none"
         id="path34" />
    </g>
    <g
       id="sprite5">
      <use
         ffdec:characterId="281"
         height="7.6999998"
         width="9.0500002"
         xlink:href="#shape5"
         id="use34" />
    </g>
    <g
       id="shape5">
      <path
         d="M 8.9,2.35 V 6.9 L 9.05,7.15 8.55,7.6 6.2,7.7 H 1.6 L 0.1,7.45 0,7.15 Q 0,6.9 0.2,6.8 0,5.8 0.1,3.65 0.1,1.95 0.25,1.05 L 0.15,0.75 Q 0.15,0.3 0.5,0.25 L 0.75,0 1.05,0.2 h 6.5 L 8.3,0.35 q 0.25,-0.3 0.4,0.1 L 8.95,1.85 8.9,2.35 M 5.6,1.7 Q 6.1,1.45 6.25,1.85 H 6.3 l 0.05,0.2 -0.05,0.2 -0.35,1 -1.05,0.7 v 0.4 L 4.8,5.2 4.7,5.25 Q 5.95,5.3 5.95,5.65 L 5.75,6.05 4.4,6.1 3,5.95 2.95,5.65 q 0,-0.35 1.3,-0.4 L 4.15,4.2 V 4 Q 3.3,3.9 2.85,3.25 L 2.5,2.4 V 2.25 L 2.4,2 2.45,1.85 2.65,1.8 h 2.8 L 5.6,1.7 M 7.85,1.35 7.05,1.4 H 1.3 L 1.4,3.65 1.35,5.7 1.25,6.6 H 1.6 6.2 7.9 Q 7.75,5.75 7.85,4.2 V 1.35"
         fill="#6b6b6b"
         fill-rule="evenodd"
         stroke="none"
         id="path35" />
    </g>
    <g
       id="sprite6">
      <use
         ffdec:characterId="283"
         height="7.6999998"
         width="9.0500002"
         xlink:href="#shape6"
         id="use35" />
    </g>
    <g
       id="shape6">
      <path
         d="M 8.9,2.35 V 6.9 L 9.05,7.15 8.55,7.6 6.2,7.7 H 1.6 L 0.1,7.45 0,7.15 Q 0,6.9 0.2,6.8 0,5.8 0.1,3.65 0.1,1.95 0.25,1.05 L 0.15,0.75 Q 0.15,0.3 0.5,0.25 L 0.75,0 1.05,0.2 h 6.5 L 8.3,0.35 q 0.25,-0.3 0.4,0.1 L 8.95,1.85 8.9,2.35 M 5.7,3.1 6.1,4.05 5.8,4.3 H 5.05 L 5.2,5.25 h 1 Q 7,5.5 7,5.65 7,6.15 6.35,6.1 H 2.55 L 2.15,5.65 2.55,5.25 H 4 Q 4,4.65 4.15,4.3 H 3.4 L 3.1,4.05 3.5,3.1 Q 4,2.35 4.35,2.3 L 4.6,2.4 4.85,2.3 Q 5.2,2.35 5.7,3.1 M 7.85,1.35 7.05,1.4 H 1.3 L 1.4,3.65 1.35,5.7 1.25,6.6 H 1.6 6.2 7.9 Q 7.75,5.75 7.85,4.2 V 1.35"
         fill="#6b6b6b"
         fill-rule="evenodd"
         stroke="none"
         id="path36" />
    </g>
    <g
       id="sprite7">
      <use
         ffdec:characterId="285"
         height="4.9000001"
         width="11.85"
         xlink:href="#shape7"
         id="use36" />
    </g>
    <g
       id="shape7">
      <path
         d="M 10.55,1.55 H 1.3 l 0.05,0.4 4.5,0.1 2.65,0.05 h 2 L 10.55,1.55 M 11.15,0 q 0.3,0 0.5,0.7 l 0.1,0.1 -0.05,0.05 0.15,2.4 v 0.8 L 11.5,4.55 Q 11.35,5 10.85,4.9 H 2.45 L 0.85,4.75 H 0.7 Q -0.15,4.75 0.05,2.7 0.05,1.65 0.2,1.05 L 0.15,0.85 q 0,-0.5 0.7,-0.7 H 10.9 L 11.15,0 m -0.7,3.25 v -0.6 l -9.1,0.2 v 0.7 l 1.1,0.05 h 7.95 l 0.05,-0.35"
         fill="#6b6b6b"
         fill-rule="evenodd"
         stroke="none"
         id="path37" />
      <path
         d="M 10.55,1.55 10.5,2.1 h -2 L 5.85,2.05 1.35,1.95 1.3,1.55 h 9.25"
         fill="#878787"
         fill-rule="evenodd"
         stroke="none"
         id="path38" />
      <path
         d="M 10.45,3.25 10.4,3.6 H 2.45 L 1.35,3.55 v -0.7 l 9.1,-0.2 v 0.6"
         fill="#777777"
         fill-rule="evenodd"
         stroke="none"
         id="path39" />
    </g>
    <g
       id="sprite8">
      <use
         ffdec:characterId="287"
         height="48.799999"
         width="9.1999998"
         xlink:href="#shape8"
         id="use39" />
    </g>
    <g
       id="shape8">
      <path
         d="M 5.65,0.05 Q 8.4,0.2 8.95,1.1 L 9.2,18.55 v 9.4 2.3 L 8.95,47.6 v 0.1 H 8.9 q -0.6,0.9 -3.25,1.05 l -1,0.05 H 4.55 L 3.45,48.75 Q 0.8,48.6 0.25,47.7 L 0.1,38.2 0.05,31.55 0,27.95 0.05,18.55 0.25,1.1 Q 0.8,0.2 3.45,0.05 L 4.55,0 h 0.1 l 1,0.05 m 0.55,27 V 26.7 18.55 L 6.25,11.8 6.4,7 V 6.55 Q 6.35,5.2 6.55,4.2 L 6.7,2.8 H 6.15 L 5.05,2.85 H 4.6 4.35 4.15 3.4 L 2.5,2.8 2.65,4.2 2.8,6.55 V 7 L 2.95,11.8 3,18.55 v 8.15 1.5 2.05 3.55 1.3 2.45 0.65 H 2.95 L 2.8,41.8 v 0.45 L 2.65,44.6 2.5,46 3.4,45.95 h 0.75 0.45 0.15 0.3 0.3 L 6.15,46 H 6.7 L 6.55,44.6 Q 6.35,43.6 6.4,42.25 V 41.8 L 6.3,38.2 H 6.25 L 6.2,37.55 v -2.45 -3.65 -1.2 -3.2"
         fill="#6b6b6b"
         fill-rule="evenodd"
         stroke="none"
         id="path40" />
      <path
         d="m 6.2,27.05 v 3.2 1.2 l -0.25,1.6 q -0.9,5.8 -0.9,8.5 l 0.3,4.4 H 5.05 4.75 L 4.65,45.4 Q 4.5,44.55 4.5,43.05 4.5,39.1 5.25,34.2 L 6.2,27.05 M 3,33.8 V 30.25 28.2 l 0.2,-1.3 1,-6.35 V 7.65 L 4.35,2.85 H 4.6 L 4.75,7.8 V 20.7 L 4.8,21 3.9,27.8 3,33.8"
         fill="#989898"
         fill-rule="evenodd"
         stroke="none"
         id="path41" />
      <path
         d="M 4.6,2.85 H 5.05 L 6.15,2.8 H 6.7 L 6.55,4.2 Q 6.35,5.2 6.4,6.55 V 7 L 6.25,11.8 6.2,18.55 v 8.15 0.35 L 5.25,34.2 q -0.75,4.9 -0.75,8.85 0,1.5 0.15,2.35 l 0.1,0.55 H 4.6 4.15 3.4 L 2.5,46 2.65,44.6 2.8,42.25 V 41.8 L 2.95,38.2 H 3 V 37.55 35.1 33.8 L 3.9,27.8 4.8,21 4.75,20.7 V 7.8 L 4.6,2.85 m 1.6,28.6 v 3.65 2.45 L 6.25,38.2 H 6.3 l 0.1,3.6 v 0.45 Q 6.35,43.6 6.55,44.6 L 6.7,46 H 6.15 l -0.8,-0.05 -0.3,-4.4 q 0,-2.7 0.9,-8.5 L 6.2,31.45 M 3,28.2 V 26.7 18.55 L 2.95,11.8 2.8,7 V 6.55 L 2.65,4.2 2.5,2.8 3.4,2.85 h 0.75 0.2 L 4.2,7.65 v 12.9 L 3.2,26.9 3,28.2"
         fill="#b2a69a"
         fill-rule="evenodd"
         stroke="none"
         id="path42" />
    </g>
    <g
       id="sprite9">
      <use
         ffdec:characterId="289"
         height="30.799999"
         width="9.1999998"
         xlink:href="#shape9"
         id="use42" />
    </g>
    <g
       id="shape9">
      <path
         d="M 8.6,1.25 8.95,1.1 9.15,11.15 H 9.2 v 1.1 2.35 2.3 1.65 9.4 1.2 H 9 L 8.95,29.7 8.6,29.55 q -0.2,1.05 -2.95,1.2 l -1,0.05 H 4.55 L 3.45,30.75 Q 0.8,30.6 0.6,29.55 L 0.25,29.7 V 29.15 H 0.05 L 0,27.95 0.05,18.55 v -1.05 -1 -2 -0.95 -2.4 H 0.1 q 0,-6 0.15,-10.05 L 0.6,1.25 Q 0.8,0.2 3.45,0.05 L 4.55,0 h 0.1 l 1,0.05 Q 8.4,0.2 8.6,1.25 M 5.65,28 h 0.5 0.05 v -1.3 -7.05 -1.1 -1.45 -4.85 -1.1 H 6.3 L 6.4,7 V 6.55 Q 6.35,5.2 6.55,4.2 L 6.7,2.8 H 6.15 L 5.85,2.85 H 5.05 4.6 4.15 3.4 L 2.5,2.8 2.65,4.2 2.8,6.55 V 7 l 0.15,4.15 H 3 v 1.1 1.25 3.6 1.45 1 0.65 6.5 1.3 L 3.4,27.95 H 4.15 4.6 5.05 5.2 L 5.65,28"
         fill="#6b6b6b"
         fill-rule="evenodd"
         stroke="none"
         id="path43" />
      <path
         d="M 6.15,2.8 V 4.3 Q 6.15,6.5 5.6,9 5.05,11.5 5.05,15.1 5.05,18.15 5.7,27 L 5.65,28 5.2,27.95 4.6,15.05 4.65,11.5 Q 4.8,9.6 5.4,8.15 5.85,7.1 5.8,4.7 L 5.85,2.85 6.15,2.8"
         fill="#989898"
         fill-rule="evenodd"
         stroke="none"
         id="path44" />
      <path
         d="M 5.65,28 5.7,27 Q 5.05,18.15 5.05,15.1 5.05,11.5 5.6,9 6.15,6.5 6.15,4.3 V 2.8 H 6.7 L 6.55,4.2 Q 6.35,5.2 6.4,6.55 V 7 L 6.3,11.15 H 6.2 v 1.1 4.85 1.45 1.1 7.05 1.3 H 6.15 5.65 M 5.85,2.85 5.8,4.7 Q 5.85,7.1 5.4,8.15 4.8,9.6 4.65,11.5 L 4.6,15.05 5.2,27.95 H 5.05 4.6 4.15 3.4 L 3,28 v -1.3 -6.5 -0.65 -1 -1.45 -3.6 -1.25 -1.1 H 2.95 L 2.8,7 V 6.55 L 2.65,4.2 2.5,2.8 3.4,2.85 h 0.75 0.45 0.45 0.8"
         fill="#b2a69a"
         fill-rule="evenodd"
         stroke="none"
         id="path45" />
    </g>
    <g
       id="sprite10"
       transform="translate(0.75,0.75)">
      <use
         ffdec:characterId="291"
         height="15.45"
         transform="translate(-0.75,-0.75)"
         width="7.3499999"
         xlink:href="#shape10"
         id="use45" />
    </g>
    <g
       id="shape10"
       transform="translate(0.75,0.75)">
      <path
         d="m 5.8,9.2 v 2.45 1.2 q 0,0.75 -0.45,0.75 l -0.3,-0.1 -0.5,0.05 -3.2,0.05 -0.25,0.15 -0.35,0.2 q -0.9,0 -0.7,-2.95 L 0.1,3.35 0.2,2.9 0.05,1.55 Q 0.05,0.2 0.45,0.1 L 0.65,0 H 1.8 L 5.15,0.1 5.75,0.45 5.85,0.6 5.8,0.75 V 5.3 L 4.95,0.9 1.8,1.05 H 1.15 L 1.2,2.05 1.05,3.85 1.2,11.6 1.25,12.5 2.6,12.45 3.9,12.4 4.95,12.45 5.8,9.2"
         fill="#6b6b6b"
         fill-rule="evenodd"
         stroke="none"
         id="path46" />
      <path
         d="M 5.8,5.3 V 9.2 L 4.95,12.45 3.9,12.4 2.6,12.45 1.25,12.5 1.2,11.6 1.05,3.85 1.2,2.05 1.15,1.05 H 1.8 L 4.95,0.9 5.8,5.3"
         fill="#ada59f"
         fill-rule="evenodd"
         stroke="none"
         id="path47" />
      <path
         d="m 5.8,9.2 v 2.45 1.2 q 0,0.75 -0.45,0.75 l -0.3,-0.1 -0.5,0.05 -3.2,0.05 -0.25,0.15 -0.35,0.2 q -0.9,0 -0.7,-2.95 L 0.1,3.35 0.2,2.9 0.05,1.55 Q 0.05,0.2 0.45,0.1 L 0.65,0 H 1.8 L 5.15,0.1 5.75,0.45 5.85,0.6 5.8,0.75 V 5.3 Z"
         fill="none"
         stroke="#6b6b6b"
         stroke-linecap="round"
         stroke-linejoin="round"
         stroke-width="1.5"
         id="path48" />
    </g>
  </defs>
</svg>
