<?xml version="1.0" encoding="UTF-8" standalone="no"?>
<svg
   ffdec:objectType="frame"
   height="80.049896"
   width="145.12888"
   version="1.1"
   id="svg36"
   sodipodi:docname="2.svg"
   xmlns:inkscape="http://www.inkscape.org/namespaces/inkscape"
   xmlns:sodipodi="http://sodipodi.sourceforge.net/DTD/sodipodi-0.dtd"
   xmlns:xlink="http://www.w3.org/1999/xlink"
   xmlns="http://www.w3.org/2000/svg"
   xmlns:svg="http://www.w3.org/2000/svg"
   xmlns:ffdec="https://www.free-decompiler.com/flash">
  <sodipodi:namedview
     id="namedview36"
     pagecolor="#ffffff"
     bordercolor="#000000"
     borderopacity="0.25"
     inkscape:showpageshadow="2"
     inkscape:pageopacity="0.0"
     inkscape:pagecheckerboard="0"
     inkscape:deskcolor="#d1d1d1"
     fit-margin-top="5"
     fit-margin-left="5"
     fit-margin-right="5"
     fit-margin-bottom="5" />
  <g
     transform="translate(71.8389,33.7999)"
     id="g14">
    <use
       ffdec:characterId="1046"
       height="14.7"
       transform="matrix(0.7211,0,0,0.7211,-18.9815,-33.7999)"
       width="51.450001"
       xlink:href="#sprite0"
       id="use1" />
    <use
       ffdec:characterId="1040"
       height="99.25"
       transform="matrix(-0.4967,-0.4967,-0.4967,0.4967,74.3343,-7.3902)"
       width="78.150002"
       xlink:href="#sprite1"
       id="use2" />
    <use
       ffdec:characterId="1040"
       height="99.25"
       transform="matrix(0.4967,-0.4967,0.4967,0.4967,-74.6843,-7.3902)"
       width="78.150002"
       xlink:href="#sprite1"
       id="use3" />
    <use
       ffdec:characterId="1007"
       height="25.450001"
       transform="matrix(-1.0995,0,0,0.8802,0.8689,-22.928)"
       width="62.700001"
       xlink:href="#sprite2"
       id="use4" />
    <use
       ffdec:characterId="1007"
       height="25.450001"
       transform="matrix(1.0995,0,0,0.8802,-0.8689,-22.928)"
       width="62.700001"
       xlink:href="#sprite2"
       id="use5" />
    <use
       ffdec:characterId="1007"
       height="25.450001"
       transform="matrix(0,-0.815,0.8392,0,-2.2581,46.1998)"
       width="62.700001"
       xlink:href="#sprite2"
       id="use6" />
    <use
       ffdec:characterId="1007"
       height="25.450001"
       transform="matrix(0,-0.815,-0.8392,0,1.9081,46.1998)"
       width="62.700001"
       xlink:href="#sprite2"
       id="use7" />
    <use
       ffdec:characterId="1001"
       height="5.8000002"
       transform="matrix(1.0894,0,0,1,2.2611,-26)"
       width="65.199997"
       xlink:href="#sprite3"
       id="use8" />
    <use
       ffdec:characterId="1001"
       height="5.8000002"
       transform="matrix(1.0894,0,0,1,-71.8389,-26)"
       width="65.199997"
       xlink:href="#sprite3"
       id="use9" />
    <use
       ffdec:characterId="989"
       height="95.550003"
       transform="matrix(1,0,0,-0.7364,-8.5,45.9126)"
       width="16.799999"
       xlink:href="#sprite4"
       id="use10" />
    <use
       ffdec:characterId="1001"
       height="5.8000002"
       transform="matrix(0.8063,0,0,1,-26.5209,40.45)"
       width="65.199997"
       xlink:href="#sprite3"
       id="use11" />
    <use
       ffdec:characterId="1044"
       height="15.45"
       transform="matrix(0.7888,0,0,0.7888,-6.6,-26.8239)"
       width="16.1"
       xlink:href="#sprite5"
       id="use12" />
    <use
       ffdec:characterId="44"
       height="8"
       transform="matrix(0.8889,0,0,0.8889,-5,18.3445)"
       width="10.8"
       xlink:href="#sprite7"
       id="use13" />
    <use
       ffdec:characterId="1018"
       height="29.65"
       transform="matrix(0.8378,0,0,0.8378,-9.2148,-11.8999)"
       width="21.450001"
       xlink:href="#sprite8"
       id="use14" />
  </g>
  <defs
     id="defs36">
    <g
       id="sprite0"
       transform="translate(25.7,7.35)">
      <use
         ffdec:characterId="1045"
         height="14.7"
         transform="translate(-25.7,-7.35)"
         width="51.450001"
         xlink:href="#shape0"
         id="use15" />
    </g>
    <g
       id="shape0"
       transform="translate(25.7,7.35)">
      <path
         d="m 17.95,-5 q 7.8,2.2 7.8,5.15 0,2.95 -7.45,4.95 Q 12,6.8 2.7,7.3 L -0.75,7.35 H -0.9 -1.05 -1.55 Q -11.6,6.9 -18.25,5.1 q -7.45,-2 -7.45,-4.95 0,-2.95 7.8,-5.15 7.35,-2.1 17,-2.35 H -0.75 0.8 1 Q 10.6,-7.1 17.95,-5 m -12.5,1.75 q 3.25,0.25 6.45,1.3 3.15,1.05 3.15,1.85 L 14.4,0.75 10,1.45 0.7,2.1 0.05,2.05 -0.65,2.1 -9.95,1.45 -14.35,0.75 -15,-0.1 q 0,-0.8 3.15,-1.85 3.2,-1.05 6.45,-1.3 l 5.45,0.1 5.4,-0.1 M 7.75,-1.7 0.8,-2.2 H 0 -0.75 l -6.95,0.5 -2.55,0.7 q 3.85,1.2 8.4,1.3 L -0.05,0.35 1.9,0.3 Q 6.45,0.2 10.35,-1 L 7.75,-1.7 M 21.2,0 Q 14.75,-3.4 -0.1,-4.4 -14.8,-3.35 -21.15,0 -18.5,1.5 -1,3.45 h 0.1 L 2.7,3.25 Q 18.7,1.4 21.2,0"
         fill="#9a9a9a"
         fill-rule="evenodd"
         stroke="none"
         id="path15" />
      <path
         d="m 5.45,-3.25 -5.4,0.1 -5.45,-0.1 Q -8.65,-3 -11.85,-1.95 -15,-0.9 -15,-0.1 l 0.65,0.85 4.4,0.7 9.3,0.65 L 0.05,2.05 0.7,2.1 10,1.45 14.4,0.75 15.05,-0.1 q 0,-0.8 -3.15,-1.85 Q 8.7,-3 5.45,-3.25 M 21.2,0 Q 18.7,1.4 2.7,3.25 l -3.6,0.2 H -1 Q -18.5,1.5 -21.15,0 -14.8,-3.35 -0.1,-4.4 14.75,-3.4 21.2,0"
         fill="#c5c0af"
         fill-rule="evenodd"
         stroke="none"
         id="path16" />
    </g>
    <g
       id="sprite1"
       transform="translate(39.05,49.6)">
      <use
         ffdec:characterId="1039"
         height="99.25"
         transform="translate(-39.05,-49.6)"
         width="78.150002"
         xlink:href="#shape1"
         id="use16" />
    </g>
    <g
       id="shape1"
       transform="translate(39.05,49.6)">
      <path
         d="m 5.25,-35.3 q 1.15,1.55 1.7,3.75 2.4,1.05 5.15,2.75 3.65,2.1 6.05,4.15 1.9,1.55 3.75,4.45 2,3 1.9,5.1 2.4,0.85 6.25,4.05 2.55,2.1 3.85,4.05 3,4.1 0.75,6.8 l -0.5,0.45 2.2,2.5 0.6,0.85 q 0.25,0.7 -0.2,1.2 -0.45,0.55 -1,0.4 -0.3,-0.05 -0.6,-0.3 l -2.3,-2.85 -1,0.3 q 0.55,1.4 -0.1,2.7 L 31.3,5.5 31.15,5.55 H 31 v 0.3 l 0.15,0.05 q 4.5,2.35 4.1,3.3 -0.3,0.6 -0.85,0.6 l -0.65,0.55 -0.4,-0.05 -1,-1.15 L 32.3,9.05 31,8.45 30.45,8.1 29.75,8.75 q 3.7,1.6 3.45,4.7 l -0.2,0.7 3.3,0.8 q 0.55,0.05 0.95,0.35 0.55,0.45 0.5,1.1 -0.05,0.75 -0.55,0.95 L 36.5,17.4 33,16.35 32.4,17.2 q 1.25,0.75 1.5,2.2 l -0.1,0.65 -0.1,0.1 -0.1,0.15 0.15,0.2 h 0.15 q 5,-0.65 5.2,0.35 0.1,0.7 -0.3,0.95 l -0.2,0.85 -0.35,0.2 -1.5,-0.4 -0.15,-0.05 -1.4,0.25 -0.65,0.05 q 0.1,1.05 -1.5,2.55 l 0.35,0.9 0.05,0.35 v 0.1 l -0.05,0.5 q -0.05,0.75 -0.75,0.85 l -0.6,-0.15 -2.65,0.35 h -0.3 v 0.15 q 0.25,1.25 -0.95,2.65 l -0.1,0.25 -0.75,1.2 -1.55,0.4 -0.45,0.3 -3.2,0.4 -0.3,0.05 -3.75,0.75 -0.3,1.15 -1.75,2.2 -3.85,3.3 q -2.3,1.65 -7.1,3.9 l -5.9,2.65 Q -4.4,48.8 -7,48.9 l -6.85,0.7 q -3.9,0.2 -6.45,-1.1 -1.95,0.8 1.6,-3 l 5.95,-5.5 -6.7,0.2 q -9.05,-0.1 -11.5,-1.65 -3.5,-2.3 3.45,-7.25 l -0.15,-0.05 -7,-0.8 q -4.25,-1 -2.15,-3.5 5.9,-5.95 9.8,-8.45 l 2.25,-1.25 q -2.6,-1.2 -4.2,-2.55 l -5.5,-4.15 q -3.05,-2.45 -4.1,-5.2 -1.9,-0.7 3.2,-1.05 5,-0.25 9.8,-0.05 l 1.35,0.2 -3.25,-2.35 -0.85,-0.85 q -4.9,-4 -4.85,-7.35 v -0.1 q 1.45,-2.8 6.85,-4.1 -5.15,-3.9 -6.05,-6.1 -1.6,-3.95 7.1,-4.05 l -0.1,-0.05 q -3.65,-2.9 -5.3,-4.7 -3,-3.25 0.2,-4.15 l 9.75,-1.2 -0.45,-0.7 q -3.15,-5.4 -3.95,-7.3 l -0.4,-1.15 q -2.45,-5.8 -0.9,-8.75 l 0.1,-0.1 q 2.75,-1.95 8.85,-0.3 l 1.15,0.3 q 2,0.6 7.75,3 3.7,1.65 6.7,3.9 l 5.5,4.65 1.6,1.7 m 9.6,22 h 0.25 l 1.7,0.2 -0.6,-0.6 -1.05,-1 -0.9,-0.8 -0.7,-0.6 -0.85,-0.75 -3.25,-2.8 -0.15,-0.1 -1.05,-0.9 -4,-3.55 L 3.9,-24.55 1.7,-26.7 1.35,-27.1 0.85,-27.65 0,-28.9 l 0.1,-0.05 0.1,0.05 0.4,0.25 0.75,0.65 0.3,0.3 2.25,2.35 0.35,0.3 3.65,2.9 3.6,2.75 1.65,1.25 1.45,1.05 0.05,0.05 2.75,2.05 0.25,0.2 0.1,0.1 1.75,1.65 0.5,0.55 h 0.05 Q 20,-13.05 20.1,-13.45 l -0.3,-0.25 -1.3,-1 -1.5,-1.4 -1.65,-1.6 -0.2,-0.15 -2.85,-2.8 2.9,1.95 4.55,3.4 0.8,0.6 0.15,-0.2 -0.55,-1.9 q -1.25,-4 -3.8,-6.1 -3.6,-3 -9,-5.8 L 3.8,-30.45 2.35,-31.1 -0.1,-32.05 q -4,-1.6 -5.5,-2.35 l 0.75,2.55 0.15,0.5 0.75,2.2 0.6,1.6 0.55,1.35 0.2,0.5 0.7,1.3 1.85,2.7 1.95,2.3 v 0.1 l 0.15,0.1 q 1.25,1.5 2.7,2.7 l 0.2,0.2 q 0.7,0.6 1.35,1.1 l 0.6,0.45 4.05,1.4 3.9,0.05 m -7.55,3.25 q -0.2,-1.15 0.25,-2 l -2.2,-0.5 -1.3,-0.2 -3.85,-0.2 -2.15,0.05 -1.2,0.05 H -3.3 l -0.7,0.15 -1.55,0.2 -1.5,0.2 -1.65,0.2 h -0.35 l -0.65,0.15 0.8,0.5 0.05,0.05 4.3,2.95 q 0.6,0.25 2.1,1.45 l 3.5,2.95 2.05,1.85 0.15,0.15 -0.05,-0.1 0.35,0.1 0.5,0.65 0.9,0.9 V -0.55 -1 L 5.15,-1.25 5.2,-1.5 5.3,-1.75 h 0.1 l 0.2,0.05 0.55,-0.3 6,-0.15 -0.45,-0.4 h 0.45 l 0.5,0.05 -1,-0.85 L 11.6,-3.4 10.35,-3.9 9.5,-4.25 3.6,-6.95 0.1,-8.6 l -1.5,-0.5 -0.15,-0.1 -0.7,-0.65 -0.05,-0.75 0.45,0.3 1,0.35 0.1,0.05 L 3.5,-8.25 5.45,-7.5 9.4,-6 9.1,-6.35 Q 7.6,-8.5 7.3,-10.05 m 8.95,-0.8 -0.4,-0.05 -2.55,-0.05 -2.5,0.1 H 10.6 L 9.4,-10.8 H 9 l 0.25,0.65 1,2.2 0.25,0.35 q 0.6,1 1.3,1.75 l 0.25,0.25 1.85,1.45 0.1,0.05 v -0.1 l 0.1,0.2 0.2,0.15 0.1,0.05 2.4,-0.3 q 2.1,-0.2 3.9,0 l -1.6,-1 -0.45,-0.25 q -3.9,-2.2 -4.75,-3.1 l -0.15,-0.2 0.85,0.35 2.9,1.15 0.9,0.45 1.85,0.95 2.3,1.2 0.1,0.05 -0.3,-0.6 q -0.9,-1.75 -1.45,-3.3 l -0.5,-1.7 -4.15,-0.75 M 10.45,-0.15 10.1,-0.1 9.75,-0.05 9.05,0 7.3,0.1 7,0.15 7.2,0.3 l 0.35,0.6 0.6,1 1,1.15 0.7,0.8 1.5,0.55 Q 14.7,5.7 15.8,7.5 L 18.95,7.1 17,5.65 16.95,5.6 14.25,3.75 V 3.4 3.15 l 0.15,0.05 0.4,0.1 0.05,0.05 1.95,1.1 0.35,0.2 0.5,0.35 -1.7,-2.25 -0.7,-1.1 -0.8,-1.5 -4,-0.3 m 2.95,-1.8 -0.75,-0.05 0.9,0.15 -0.15,-0.1 m 3,1.85 0.65,1 0.2,0.3 1.1,1.65 1,1.4 q 1.3,1.85 1.85,2.1 l 0.5,0.25 0.2,0.05 0.95,0.25 0.9,0.15 h 2.1 L 26.7,7 26.85,6.95 28.65,6.75 27.3,5.95 26.3,5.35 25.95,5.15 25.3,4.7 24,3.95 22.35,2.9 22,2.6 21.7,2.4 20.55,1.7 Q 19.05,0.65 18.5,0.1 l 1.15,0.1 1,0.45 2.15,1 0.25,0.1 L 23.3,1.9 23.7,2.15 23.5,1.85 23.45,1.7 23.25,1.3 V 0.9 0.65 l 0.2,-0.8 L 23.6,-1 V -1.7 L 22.8,-1.85 21.65,-2 H 21.5 l -3.25,-0.3 -1.05,-0.05 -0.9,-0.1 h -0.1 l -0.25,-0.05 -1.2,-0.1 1.65,2.5 m 11.3,-10.85 -1,-0.7 -2.75,-1.1 -0.8,-0.3 -0.35,-0.15 -0.45,0.05 -0.05,0.15 0.3,1.35 -0.1,0.35 q 0.2,1.2 0.7,2.65 l 0.6,1.55 q 1,2.5 2.05,4 l 1.1,1.25 0.6,0.4 1.15,0.35 0.85,0.55 0.25,0.05 0.85,0.15 0.15,0.05 0.4,0.05 L 30.95,-0.5 29.9,-2 28.3,-4.3 28.15,-4.55 27.6,-5.4 q -0.85,-1.4 -1.25,-2.35 l -0.15,-0.15 1.3,0.6 0.6,0.6 1.45,1.6 0.4,0.35 1.05,1.05 1.95,2.4 0.1,0.25 0.45,0.55 0.05,-1.05 v -0.7 H 33.5 q -0.1,-2.65 -0.8,-3.8 -1,-1.6 -3.55,-3.75 L 27.7,-10.95 M 26.95,3.8 28.05,4.35 29.7,5.15 30.2,3.95 29.95,3.15 29.5,1.9 29.35,1.6 q -0.7,-1.05 -1.5,-1.4 -0.5,-0.25 -1.9,0.7 L 25.8,1 l -1.25,0.85 -0.25,0.2 -0.4,0.2 0.6,0.25 0.65,0.35 1.8,0.95 M 21.3,8.65 h -0.8 -0.4 l -2.65,0.65 -0.2,0.05 -1.15,0.3 -0.4,0.3 0.1,0.15 1,0.95 0.1,0.3 2.05,1.75 1.4,1 q 2.3,1.55 4.05,2.15 l 1.55,0.3 0.7,0.05 v -0.05 l 1.2,-0.35 1.05,-0.05 0.2,-0.1 0.75,-0.35 0.2,-0.1 0.3,-0.1 -0.3,-0.1 -1.8,-0.65 -2.6,-1 -0.25,-0.1 -0.95,-0.4 -2.45,-1.15 -0.15,-0.05 1.4,-0.25 0.9,0.15 2.05,0.45 0.5,0.05 1.5,0.3 2.95,0.85 0.3,0.1 0.65,0.25 L 31.55,13 31.15,12.5 H 31.1 Q 29.5,10.4 28.2,9.8 L 27.85,9.65 Q 26.15,9.05 23.15,8.8 L 21.3,8.65 m 7.95,12.5 1.2,-0.15 1.8,-0.25 -0.3,-1.3 L 31.3,18.9 30.25,18.2 29.9,18 l -2,-0.3 q -0.5,0.1 -1.15,1.7 l -0.05,0.15 -0.55,1.4 -0.1,0.3 -0.2,0.4 0.65,-0.1 0.75,-0.1 2,-0.3 m -17.2,-5.85 -0.3,0.25 -2.2,1.4 -1.95,1.45 -0.15,0.15 -0.95,0.7 -0.35,0.25 0.65,0.45 2,1.15 0.5,0.25 1.95,0.6 0.4,0.1 2.2,0.15 h 0.3 l -0.05,-0.1 0.15,0.1 h 0.2 0.2 l 1.75,-1.7 q 1.6,-1.35 3.15,-2.2 l -1.9,0.15 -0.4,0.05 q -4.5,0.4 -5.75,0.1 l -0.2,-0.05 0.9,-0.2 3,-0.7 1.05,-0.15 2.05,-0.3 2.55,-0.35 -0.6,-0.3 -3.1,-1.9 -1.35,-1.1 q -1.8,0.6 -3.75,1.75 m 12.05,4.65 -0.4,-0.8 -0.35,-0.55 q -0.3,0.1 -0.75,0.35 l -1,0.5 -0.2,0.1 -2.8,1.65 -0.9,0.6 -0.75,0.4 -0.15,0.1 -0.15,0.05 -1.1,0.5 2.8,1.15 1.05,0.5 0.4,0.15 1.85,0.7 1.6,0.6 2.75,0.65 0.45,-0.1 h 0.15 l 1.1,-0.4 0.8,-0.4 1.65,-1.2 0.7,-0.6 0.1,-0.1 1.35,-1.1 -1.55,0.05 -1.15,0.1 H 29.15 L 28.4,22.9 26.8,23 25,23.1 h -0.5 -0.35 l -1.35,0.05 -2.65,-0.2 q 0.55,-0.5 1.05,-0.55 l 1.05,-0.2 2.4,-0.4 h 0.2 l 0.25,-0.05 h 0.15 L 25.6,21.7 25.3,21.55 25.15,21.45 H 25 L 24.75,21.3 24.55,20.95 24.45,20.7 24.1,19.95 M 12.4,9.6 13.3,9.65 13.35,9.4 12.85,8.95 11.8,8.15 11.6,8 Q 8.4,5.6 5.25,5.3 l -1,-0.05 Q -2.1,4.9 -10.95,6.6 l -2.5,0.65 -4.55,1 -1.3,0.25 h -0.05 l 2.5,2 3.35,2.45 1,0.6 0.4,0.25 0.2,0.1 0.45,-0.05 2.5,-0.2 q 6.35,-0.2 7.55,2.1 l 0.1,-0.05 0.25,0.15 6.3,-1.05 1,-0.15 Q 6.5,14.5 6.7,14.45 l 0.5,0.1 0.25,0.1 0.45,0.45 1.55,-1 0.2,-0.15 q 0.85,-0.5 1.6,-0.85 L 10.4,12.95 8.95,12.8 7.75,12.65 5.7,12.4 1.45,12 l -0.2,-0.05 -1.4,-0.1 -0.55,-0.05 -5.2,-0.65 -3.6,-0.7 -0.7,-0.15 -1.4,-0.5 0.05,-0.1 0.1,-0.05 H -11 l 1,0.1 3.6,0.75 7.65,0.45 2.05,0.05 2,0.05 1.85,0.05 H 7.2 l 3.4,0.1 0.35,0.05 h 0.1 l 2.35,0.35 0.7,0.15 -0.5,-0.8 -0.25,-0.05 -1.7,-0.1 -2,-0.25 L 7.4,10.25 7.15,10.15 3.4,9.6 3.2,9.5 3.6,9.45 6.7,9.4 12.4,9.6 M 2.05,1.05 5.5,2.05 5.45,2 5,1.15 4.75,0.95 4.2,0.55 4.15,0.5 3.35,0.3 Q 2.4,-0.15 0.2,-1.7 l -1.9,-1.4 -0.45,-0.35 -3.55,-2.9 -2.15,-1.7 -0.55,-0.45 -3,-0.35 h -0.4 -5.05 l -1.95,0.15 -2.8,0.3 -1.65,0.35 -4.45,0.75 -0.9,0.3 q -2.25,0.95 -3.25,1.15 l 2.35,2.5 0.6,0.75 4.9,3.9 6.15,3.9 1.45,0.7 1.3,-0.4 q 2.9,-0.85 6.35,-1.65 l 7.1,-0.9 -8.9,-2.1 -4.05,-1.3 2.4,-0.15 1.8,0.6 1.9,0.45 3.35,0.95 2.45,0.65 0.05,0.05 2.5,0.75 L 1.9,2.8 H 3.75 L 2,2.35 0.7,2 0.45,1.95 l -0.8,-0.2 -3.45,-0.8 -0.8,-0.2 -6.75,-1.65 -1.15,-0.25 -3.6,-1 -2.85,-0.85 -0.8,-0.2 q -5,-1.6 -6,-2.15 l -0.05,-0.05 0.25,-0.05 6.7,1 2.15,0.55 4.65,1.1 2.45,0.7 0.65,0.15 1.35,0.4 1.05,0.25 5.9,1.65 1.5,0.4 1.2,0.3 m -7.15,18.6 1.4,-0.4 2,-0.5 1.35,-0.25 0.55,-0.1 1.35,-0.65 1.1,-0.45 -0.6,0.1 -0.2,0.05 H 1.4 l -3.3,0.75 -2.65,0.6 -1.4,0.3 -0.6,0.1 -7.1,1.55 -0.3,0.1 -4.55,0.9 -0.9,0.15 -2.75,0.55 -1,0.2 -0.75,0.15 -0.85,-0.25 0.95,-0.5 q 2.5,-1.1 6.4,-1.9 l 0.7,-0.1 1.2,-0.3 5.35,-1 0.3,-0.05 1.2,-0.25 1.1,-0.3 4.5,-1.1 -1.05,-0.35 -1.05,-0.35 -0.5,-0.15 -1.9,-0.45 -4.65,-0.35 -1.95,0.4 -4.45,1 -0.1,0.05 q -2.25,0.65 -3.55,1.35 l -0.4,0.2 -5.25,3.95 -1.35,1.1 -3.45,2.85 -1.65,1.4 9.8,1.6 q 3.2,0.25 5.75,0 l 3.1,-0.55 V 27.9 27.85 l -0.1,0.05 -0.2,-0.05 0.3,-0.25 0.1,-2.8 0.05,-0.35 0.15,-0.7 0.05,-0.2 0.1,-0.1 0.3,-0.35 0.2,-0.05 q 0.4,-0.1 0.75,0.2 0.2,0.2 0.25,0.55 v 0.05 l 0.05,0.05 v 0.2 l 1.15,0.9 1.2,1.1 0.6,0.65 0.45,-0.45 q 2.45,-2.4 6.3,-5 l 0.1,-0.1 1.55,-1.25 -2.3,0.1 H -6.2 l 1.1,-0.4 m 0.2,5.15 -0.2,0.1 -0.45,0.45 -1.05,1.05 -1.15,1.05 -1.3,1.15 -0.25,0.2 -0.5,0.4 h 1 0.2 l 5.05,-0.05 0.7,-0.05 4.9,0.35 0.45,0.05 1.1,0.1 2.7,0.3 0.45,-0.15 0.85,0.25 1,0.2 -0.25,-0.3 V 29.55 L 8.3,29.35 8.2,29.1 8.3,29 q 0.05,-0.1 0.2,-0.1 l 0.3,-0.5 q 1.55,-2.3 4.8,-3.6 l -0.4,-0.05 0.35,-0.3 0.4,-0.25 -1.3,-0.1 h -0.1 l -1.55,0.35 -0.6,0.1 -0.65,0.15 -3.05,0.55 -2.85,0.5 -3.4,0.55 -0.25,0.05 -1.55,0.5 -0.2,0.05 -0.9,-0.15 -0.15,-0.1 -0.3,-0.5 0.45,-0.05 1.1,-0.3 H -1.3 L 3.15,24.75 5.05,24.3 5.15,24.25 9.3,23.2 8.8,23.05 Q 6.3,22.2 5.2,21.1 4.35,20.25 4.25,19.35 0.95,20.55 -2.5,23 l -1.75,1.3 -0.65,0.5 M 14.95,24.2 H 14.7 l -0.6,0.4 0.85,-0.4 m 11.4,4.2 -1.25,0.1 -0.4,0.1 L 24.55,28.55 22.1,28.45 18.75,28.5 18.7,28.4 18.5,28.15 18.4,28 18.55,27.9 18.9,27.8 19,27.75 h 0.1 l 2.1,-0.15 1.2,-0.1 -2.75,-0.9 -1.2,-0.5 -1.5,-0.75 q -1.8,0.8 -3.6,2.1 l -0.3,0.2 -0.35,0.35 -0.4,0.35 -1.4,1.1 -0.2,0.2 0.25,0.05 0.65,0.3 1.05,0.45 1.5,0.4 6.05,0.95 2.15,-0.2 0.35,-0.05 1,-0.1 0.2,-0.05 0.85,-0.3 0.95,-0.8 0.85,-1.4 0.3,-0.5 h -0.5 m -13.3,4.95 0.1,-0.1 0.45,-0.2 Q 11.2,32.55 9.9,31.6 H 9.45 L 8.8,31.55 H 8.75 l -0.8,0.3 -3.1,0.15 -1.4,0.45 0.95,1.75 0.45,0.95 0.25,0.55 0.35,0.8 0.05,0.15 7.55,-3.3 m 0.8,2.1 0.95,-0.8 -0.95,0.3 -4.95,2 -8.75,3.75 q -4.6,2.15 -7.9,2.5 L -8.65,43.25 -7.9,42.8 -7.35,42.5 3.7,37.5 2.45,36.35 2.3,36.25 2.1,36.15 1.35,35.4 0.5,34.55 0.05,34.05 -1.2,34.8 q -2.7,1.6 -6.55,4.5 l -1.35,1 -1.45,1.1 -3.8,2.9 -0.15,0.1 -2.3,1.75 -2.45,1.75 6.1,-0.15 q 7.7,-0.4 10,-1.45 l 5.75,-3 4.6,-2.3 2.3,-1.7 2.65,-2.25 1.7,-1.6 m -10.15,-1 -0.85,-1.8 -0.35,0.15 -0.65,0.25 -1,0.5 0.5,0.45 1.05,0.95 1,1 L 4.55,37.1 4.9,36.95 4.35,35.8 4.25,35.55 3.7,34.45 M -16.05,-30.5 q 4.5,0.45 8.95,2.5 l 0.95,0.45 -0.35,-1.8 -3,-2.55 -3,-3 q 0.75,-0.25 2.2,0.95 l 1.4,1.35 1.45,1.25 0.8,0.8 -0.1,-1 -2.65,-2.3 -0.95,-0.7 -2.7,-2.55 -2.15,-2.05 -0.6,-0.6 q -3.7,-3.65 -4.3,-4.7 l -0.05,-0.1 0.2,0.15 5.5,4 5.25,4.55 1.9,1.7 q -0.3,-2.2 0.25,-1.95 l 0.05,0.05 q 0.7,-0.2 3.35,0.6 l 1.65,0.5 4.7,1.65 q -1.3,-2.1 -3.25,-3.8 -5.65,-4.95 -14.5,-8.1 L -21,-47 l -0.95,-0.15 -3.4,-0.5 0.95,3.35 0.2,0.9 2.55,5.7 q 2,3.95 4.3,7.1 l 1.3,0.1 m 12.1,8.3 -1.55,-3.25 q -5.6,-2.5 -8.4,-2.7 h -0.4 l -1.2,-0.05 -3.45,0.15 -1.6,0.1 -1.65,0.05 -4.5,0.4 -2.1,0.2 q 3.8,4.2 7.1,6.95 2.45,2.05 4.65,3.3 l 2.85,1.35 0.5,-0.7 0.05,-0.05 -0.15,-0.05 -0.15,-0.15 0.45,-0.05 1.7,-2.2 0.2,-0.25 0.55,-0.5 0.2,-0.1 0.1,-0.05 h 0.05 l 0.4,-0.1 h 0.15 l 0.55,0.65 v 0.2 l -0.15,0.4 v 0.05 l -0.1,0.15 0.4,1.5 0.35,1.5 0.15,0.8 0.55,-0.05 8.15,-0.5 2,-0.1 -1.9,-1.15 -1.2,-0.95 1.05,0.35 0.85,0.25 -1.15,-1.15 -0.15,-0.15 -0.45,-0.2 -6.7,-2.85 q -2.2,-0.9 -4.5,-1.95 l -0.8,-0.3 -2.65,-1.15 -0.15,-0.05 -0.8,-0.35 q -0.45,-0.1 -0.7,-0.35 -0.45,-0.25 -0.5,-0.7 l 0.75,0.1 h 0.3 q 2.35,0.5 5.45,1.8 l 0.8,0.35 1.9,0.8 4.55,2.1 0.65,0.3 1,0.35 -0.5,-0.65 -0.85,-1.35 M -6.7,-34.85 V -35 l -0.1,-0.1 0.1,0.25 m -20.9,17.6 -2.3,0.15 -0.05,0.15 7.85,5.85 1.35,-0.15 4.8,-0.45 3.45,-0.05 q -2.8,-1.15 -4.15,-2.05 l 1.15,0.15 q -0.55,-0.45 -0.85,-0.55 -1.9,-0.9 -3.85,-2.15 l -1.05,-0.75 -2.25,-0.15 h -3.8 -0.15 -0.15 m 15.45,3.55 1.65,-0.6 -0.15,-0.75 -0.1,-0.75 v -0.15 l -0.3,-0.05 q -0.85,1.4 -1.6,2.15 l -0.25,0.25 0.45,0.1 0.3,-0.2 m -1.6,0.55 0.35,0.15 -0.05,-0.25 -0.3,0.1 M -21,15.7 l 4.05,-1.05 1.1,-0.15 -0.5,-0.45 -1.8,-0.6 Q -23,11.9 -25.65,9.95 l -0.75,-0.55 0.85,0.15 0.65,0.15 6.45,2.1 -0.3,-0.35 -1.15,-1.1 q -2.3,-2.3 -1.6,-2.4 h 0.05 l 1,-0.6 -4.25,-0.45 -1.8,-0.15 -4.8,-0.5 h -0.15 L -34.35,6 -37.3,5.65 l 4.5,4 q 6.05,4.9 8.5,5.65 l 2.45,0.7 0.85,-0.3 m 0.25,-7.1 0.25,0.15 -0.1,-0.15 h -0.15 m -6.65,26.45 -0.15,0.05 -1.75,1.5 0.05,0.15 10,0.3 q 7.7,0.2 10.7,-0.25 l -0.5,-1.25 H -9.1 l -0.1,-0.3 -0.05,-0.2 -0.55,-1.95 -0.05,-0.35 0.2,-0.3 1.2,2.05 0.25,0.55 0.35,0.8 0.15,0.35 0.55,-0.4 -0.3,-0.9 -0.05,-1.15 0.05,-0.35 0.25,0.15 q 0.5,0.35 0.95,1.1 l 0.2,0.4 0.8,-0.6 0.3,-0.25 4.2,-2.45 -2.55,-0.2 -2.75,-0.1 -2.95,-0.4 q -1.7,0.3 -3,0 l -4.6,0.6 0.95,-0.45 -0.95,0.05 -4.55,0.45 h -1.2 l -1.8,1.05 -3.15,2.2 -0.1,0.1 m 14.6,-5.8 1,-1.4 -0.6,-0.55 -0.5,-0.55 -0.1,-0.1 -0.3,0.1 q 0.1,1.6 -0.05,2.65 l -0.1,0.35 0.55,-0.2 0.1,-0.3 m -0.85,1.1 -0.15,0.25 0.4,-0.1 -0.25,-0.15"
         fill="#9a9a9a"
         fill-rule="evenodd"
         stroke="none"
         id="path17" />
      <path
         d="M 19.5,-13.05 17.75,-14.7 17.65,-14.8 17.4,-15 14.65,-17.05 14.6,-17.1 13.15,-18.15 11.5,-19.4 7.9,-22.15 4.25,-25.05 3.9,-25.35 1.65,-27.7 1.35,-28 0.6,-28.65 0.2,-28.9 0.1,-28.95 0,-28.9 l 0.85,1.25 0.5,0.55 0.35,0.4 2.2,2.15 0.35,0.35 4,3.55 1.05,0.9 0.15,0.1 3.25,2.8 0.85,0.75 0.7,0.6 0.9,0.8 1.05,1 0.6,0.6 -1.7,-0.2 h -0.25 l -0.35,-0.4 q -0.85,-0.15 -1.8,-0.65 L 12.55,-14.4 12,-14.65 8.95,-15.1 l -4,-1.2 -0.2,-0.2 Q 3.3,-17.7 2.05,-19.2 L 1.9,-19.3 v -0.1 l -3.1,-4.4 -1,-1.7 -0.1,-0.25 -0.75,-1.5 -0.5,-1.05 -0.35,-0.75 -0.45,-2.35 v -0.5 q 0.15,-2.05 2.45,-0.1 l 1.3,1.95 1.8,0.7 2.9,1.5 0.1,0.05 q 1.4,0.35 3.15,1.4 l 0.2,0.1 4.95,3.5 3.25,2.6 q 2.1,1.75 2.9,2.8 0.85,1.1 1.1,2.1 l -4.55,-3.4 -2.9,-1.95 2.85,2.8 0.2,0.15 1.65,1.6 1.5,1.4 1.3,1 -0.3,0.65 m -22.65,0.2 0.65,0.1 1.35,0.3 0.55,0.15 2.95,0.65 0.65,0.15 3.5,1.15 0.8,0.3 q 0.3,1.55 1.8,3.7 L 9.4,-6 5.45,-7.5 3.5,-8.25 -0.75,-9.9 l -0.1,-0.05 -1,-0.35 -0.45,-0.3 0.05,0.75 0.7,0.65 0.15,0.1 1.5,0.5 3.5,1.65 5.9,2.7 0.85,0.35 1.25,0.5 0.05,0.05 1,0.85 -0.5,-0.05 H 11.7 l 0.45,0.4 L 6.15,-2 5.6,-1.7 5.4,-1.75 H 5.3 L 5.2,-1.5 3.55,-2.05 3.2,-2.15 3.1,-2.2 1.05,-4.05 -2.45,-7 q -1.5,-1.2 -2.1,-1.45 l -4.3,-2.95 -0.05,-0.05 -0.8,-0.5 0.65,-0.15 h 0.35 l 1.65,-0.2 1.5,-0.2 1.55,-0.2 0.7,-0.15 h 0.15 M 20.9,-8.4 q 0.55,1.55 1.45,3.3 l 0.3,0.6 -0.1,-0.05 -2.3,-1.2 -1.85,-0.95 -0.9,-0.45 -2.9,-1.15 -0.85,-0.35 0.15,0.2 q 0.85,0.9 4.75,3.1 l 0.45,0.25 1.6,1 q -1.8,-0.2 -3.9,0 L 14.4,-3.8 14.3,-3.85 14.1,-4 14,-4.2 v 0.1 L 13.9,-4.15 12.05,-5.6 11.8,-5.85 Q 11.1,-6.6 10.5,-7.6 l -0.25,-0.35 -1,-2.2 L 9,-10.8 h 0.4 l 1.2,-0.05 h 0.2 l 2.5,-0.1 2.55,0.05 0.4,0.05 0.85,0.4 q 2.7,1.25 3.8,2.05 M 7.3,0.1 9.05,0 l 0.7,-0.05 0.35,-0.05 0.35,-0.05 1.6,0.55 1.5,0.6 1.35,0.5 0.35,0.15 0.7,1.1 L 17.65,5 17.15,4.65 16.8,4.45 14.85,3.35 14.8,3.3 14.4,3.2 14.25,3.15 V 3.4 3.75 L 16.95,5.6 17,5.65 18.95,7.1 15.8,7.5 Q 14.7,5.7 11.35,4.4 L 9.85,3.85 9.15,3.05 8.15,1.9 7.55,0.9 7.2,0.3 7.3,0.1 m 9.1,-0.2 -0.25,-0.75 q -0.3,-0.95 -0.2,-1.65 l 0.25,0.05 h 0.1 l 0.9,0.1 1.05,0.05 3.25,0.3 h 0.15 l 1.15,0.15 0.3,0.75 0.35,0.95 -0.2,0.8 V 0.9 1.3 l 0.2,0.4 0.05,0.15 0.2,0.3 L 23.3,1.9 23.05,1.75 22.8,1.65 20.65,0.65 19.65,0.2 18.5,0.1 q 0.55,0.55 2.05,1.6 L 21.7,2.4 22,2.6 22.35,2.9 24,3.95 25.3,4.7 25.95,5.15 25.5,5.3 v 0.1 l -0.75,1.15 q -0.45,0.4 -1,0.5 L 22.85,6.9 22.65,6.8 21.85,6.4 21.8,6.35 Q 20.55,5.6 19.35,4.25 l -1,-1.4 -1.1,-1.65 -0.2,-0.3 -0.65,-1 m 6.2,-11.55 -0.3,-1.35 0.05,-0.15 0.45,-0.05 0.35,0.15 0.8,0.3 2.75,1.1 1,0.7 q 1,1.15 2.2,3.3 l 1,2.6 0.1,1.35 -1.05,-1.05 -0.4,-0.35 -1.45,-1.6 -0.6,-0.6 -1.3,-0.6 0.15,0.15 q 0.4,0.95 1.25,2.35 l 0.55,0.85 0.15,0.25 1.6,2.3 -0.9,0.15 -0.25,-0.05 -0.3,-0.1 -1,-0.6 q -0.9,-0.8 -2.8,-4.5 -1.45,-2.7 -2.05,-4.55 m 1.95,13.5 1.15,0.4 Q 27.05,2.9 26.95,3.8 L 25.15,2.85 24.5,2.5 23.9,2.25 l 0.4,-0.2 0.25,-0.2 m -7.75,9.2 -1,-0.95 -0.1,-0.15 0.4,-0.3 1.15,-0.3 0.2,-0.05 2.65,-0.65 h 0.4 0.8 q 1.55,0.4 3.7,1.5 l 1.9,1.15 0.45,0.4 0.85,1.05 -1.5,-0.3 -0.5,-0.05 -2.05,-0.45 -0.9,-0.15 -1.4,0.25 0.15,0.05 2.45,1.15 0.95,0.4 0.25,0.1 2.6,1 -0.65,0.65 -0.1,0.1 -0.4,0.1 -1.2,0.05 q -1.2,-0.1 -4.85,-2.05 -2.7,-1.4 -4.25,-2.55 m 9.35,9.9 1.2,-0.3 q 1.45,-0.3 1.9,0.5 l -2,0.3 -0.75,0.1 -0.65,0.1 0.2,-0.4 0.1,-0.3 m -9,-6.3 3.1,1.9 0.6,0.3 -2.55,0.35 -2.05,0.3 -1.05,0.15 -3,0.7 -0.9,0.2 0.2,0.05 q 1.25,0.3 5.75,-0.1 l 0.4,-0.05 1.9,-0.15 Q 18,19.15 16.4,20.5 l -1.75,1.7 h -0.2 -0.2 l -0.15,-0.1 0.05,0.1 h -0.3 l -2.2,-0.15 -0.4,-0.1 L 9.3,21.35 8.8,21.1 6.8,19.95 6.15,19.5 6.5,19.25 7.45,18.55 7.6,18.4 l 1.95,-1.45 2.2,-1.4 0.3,-0.25 0.9,-0.15 4.2,-0.5 m 5.45,4.3 0.65,0.45 0.85,0.55 0.35,0.75 0.1,0.25 0.2,0.35 0.25,0.15 h 0.15 l 0.15,0.1 0.3,0.15 -0.35,0.05 H 25.1 l -0.25,0.05 h -0.2 l -2.4,0.4 -1.05,0.2 q -0.5,0.05 -1.05,0.55 l 2.65,0.2 1.35,-0.05 H 24.5 25 l 1.8,-0.1 1.6,-0.1 0.75,-0.05 -0.25,0.45 0.05,0.1 0.05,1.35 -0.5,0.95 -0.8,0.4 h -0.25 l -1.05,0.15 h -0.05 l -3.1,-0.3 -1.6,-0.6 -1.85,-0.7 -0.4,-0.15 -1.05,-0.5 -0.6,-0.4 -1.1,-1.25 0.15,-0.05 0.15,-0.1 0.75,-0.4 0.9,-0.6 2.8,-1.65 0.2,-0.1 1,-0.5 m -34.05,-5.1 -0.6,-0.3 -0.45,-0.25 q -0.45,-0.25 -1,-0.55 l -0.7,-0.4 Q -16.1,11.3 -16.95,9.8 l -0.25,-0.7 0.1,-0.4 q 0.4,-0.5 2.15,-0.35 l 2.15,0.9 Q -11.55,8.8 -9.65,8.5 l 2,-0.25 3.7,-0.65 h 4.5 l 1.55,0.05 3.95,0.2 h 0.3 L 10.2,8.5 q 1.4,0.45 2.2,1.1 L 6.7,9.4 3.6,9.45 3.2,9.5 l 0.2,0.1 3.75,0.55 0.25,0.1 2.25,0.3 2,0.25 1.7,0.1 0.05,0.7 -2.35,-0.35 h -0.1 L 10.6,11.2 7.2,11.1 H 7.15 L 5.3,11.05 3.3,11 1.25,10.95 -6.4,10.5 -10,9.75 -11,9.65 h -0.45 l -0.1,0.05 -0.05,0.1 1.4,0.5 0.7,0.15 3.6,0.7 5.2,0.65 0.55,0.05 1.4,0.1 0.2,0.05 4.25,0.4 2.05,0.25 1.2,0.15 1.45,0.15 0.85,0.15 q -0.75,0.35 -1.6,0.85 L 9.45,14.1 9,13.95 7.2,14.55 6.7,14.45 q -0.2,0.05 -0.45,0.2 l -1,0.15 -6.3,1.05 -0.25,-0.15 -0.1,0.05 q -1.2,-2.3 -7.55,-2.1 l -2.5,0.2 M 0.2,-1.7 l 1.5,1.85 0.35,0.9 -1.2,-0.3 -1.5,-0.4 -5.9,-1.65 -1.05,-0.25 -1.35,-0.4 -0.65,-0.15 -2.45,-0.7 -4.65,-1.1 -2.15,-0.55 -6.7,-1 -0.25,0.05 0.05,0.05 q 1,0.55 6,2.15 l 0.8,0.2 2.85,0.85 3.6,1 1.15,0.25 6.75,1.65 0.8,0.2 3.45,0.8 0.8,0.2 L 0.7,2 2,2.35 V 2.4 L 1.9,2.8 -0.15,2.85 -2.65,2.1 -2.7,2.05 -5.15,1.4 -8.5,0.45 -10.4,0 l -1.8,-0.6 -2.4,0.15 4.05,1.3 8.9,2.1 -7.1,0.9 q -3.45,0.8 -6.35,1.65 l -5.3,-3.05 -6.5,-4.05 q -3.45,-2.2 -0.6,-3.95 2.65,-1.5 5.1,-1 l 1.55,0.3 h 0.3 l 2.1,0.05 3.25,-0.1 2.5,-0.1 0.9,-0.1 h 0.15 l 0.85,0.05 0.9,0.1 3.6,0.65 4.15,2.25 0.45,0.35 1.9,1.4 m -6.15,20.8 0.85,0.55 -1.1,0.4 h 1.55 q 0.4,0.5 0.65,1.25 -3.85,2.6 -6.3,5 L -10.85,26 -11.7,25.05 q -0.6,-1 -2,-1.2 v 0.05 l -0.05,-0.05 V 23.8 q -0.05,-0.35 -0.25,-0.55 -0.35,-0.3 -0.75,-0.2 l -0.2,0.05 -0.3,0.35 -0.1,0.1 -0.05,0.2 -0.15,0.7 -0.05,0.35 -0.1,2.8 -0.3,0.25 -0.35,0.15 -6.65,0.35 -3.2,-0.15 q -6.05,-0.35 -6.5,-1.9 l 3.45,-2.85 1.35,-1.1 3.5,-0.95 1.15,-0.25 q 0.8,-0.85 2.4,-1.45 l 1.75,-0.45 4.7,-1.15 0.05,-0.05 3.4,-0.45 0.65,-0.05 q 1.7,0.05 2.75,0.6 l -1.1,0.3 -1.2,0.25 -0.3,0.05 -5.35,1 -1.2,0.3 -0.7,0.1 q -3.9,0.8 -6.4,1.9 l -0.95,0.5 0.85,0.25 0.75,-0.15 1,-0.2 2.75,-0.55 0.9,-0.15 4.55,-0.9 0.3,-0.1 7.1,-1.55 0.6,-0.1 m 1.05,5.7 0.4,-0.2 1.25,-0.55 0.7,-0.25 2.8,-1.2 L 0.8,22.4 1.55,22.15 3.7,21.55 3.75,21.5 4.4,21.3 5.2,21.1 q 1.1,1.1 3.6,1.95 l 0.5,0.15 -4.15,1.05 -0.1,0.05 -1.9,0.45 -4.45,1.05 h -0.05 l -1.1,0.3 -0.45,0.05 0.3,0.5 0.15,0.1 0.9,0.15 0.2,-0.05 1.55,-0.5 0.25,-0.05 3.4,-0.55 2.85,-0.5 3.05,-0.55 0.65,-0.15 0.6,-0.1 1.55,-0.35 h 0.1 l 1.3,0.1 -0.4,0.25 -0.35,0.3 0.4,0.05 q -3.25,1.3 -4.8,3.6 L 8.5,28.9 Q 8.35,28.9 8.3,29 L 8.2,29.1 8.3,29.35 6.75,29.75 6.3,29.9 3.6,29.6 2.5,29.5 2.05,29.45 -2.85,29.1 -3.55,29.15 -8.6,29.2 h -0.2 -1 l 0.5,-0.4 0.25,-0.2 1.3,-1.15 1.15,-1.05 1.05,-1.05 0.45,-0.45 0.2,-0.1 m 23.35,1.3 1.2,0.5 2.75,0.9 -1.2,0.1 -2.1,0.15 H 19 l -0.1,0.05 -0.35,0.1 -0.15,0.1 0.1,0.15 0.2,0.25 0.05,0.1 3.35,-0.05 2.45,0.1 0.15,0.05 0.4,-0.1 1.25,-0.1 q -0.4,1.15 -1.8,2.1 -0.45,0.3 -0.8,0.55 l -1.05,0.5 -0.35,0.05 -2.15,0.2 -6.05,-0.95 -1.5,-0.4 L 11.6,30 10.95,29.7 10.9,29.45 l 1.4,-1.1 0.4,-0.35 0.35,-0.35 0.3,-0.2 1.8,-0.45 1.55,-0.45 1.2,-0.3 0.55,-0.15 M 4.4,34.2 5.7,33.75 6.05,33.65 q 1.75,-0.55 3.1,-0.75 2.75,-0.5 3.9,0.45 L 5.5,36.65 5.45,36.5 5.1,35.7 4.85,35.15 4.4,34.2 m 9.45,1.25 -1.7,1.6 -2.65,2.25 -2.3,1.7 -4.6,2.3 -3.85,1.2 -0.8,0.2 -4.6,0.8 -0.9,0.05 -2.55,0.1 -0.45,0.25 q -1.65,0.8 -4.2,1.2 -2.8,0.5 -2.05,-0.95 l 2.3,-1.75 0.15,-0.1 1.4,-0.2 q 1.55,-1.65 4.05,-3.4 2.95,-2.05 7.35,-4.05 l 0.25,-0.15 2.65,-1.1 0.75,0.75 0.2,0.1 0.15,0.1 1.25,1.15 -11.05,5 -0.55,0.3 -0.75,0.45 0.9,-0.05 q 3.3,-0.35 7.9,-2.5 l 8.75,-3.75 4.95,-2 v 0.5 m -11.45,-0.5 1.3,-0.5 0.55,1.1 0.1,0.25 0.55,1.15 -0.35,0.15 -1.15,-1.15 -1,-1 m -18.45,-65.45 -2.9,-4.5 -3.9,-6.55 q -2.1,-3.6 1.2,-3.8 3.05,-0.2 5.05,1.4 l 1.25,1 2.05,1.15 6.05,2.8 q 2.05,1 4.55,3.15 l 0.7,0.9 -1.65,-0.5 q -2.65,-0.8 -3.35,-0.6 l -0.05,-0.05 q -0.55,-0.25 -0.25,1.95 l -1.9,-1.7 -5.25,-4.55 -5.5,-4 -0.2,-0.15 0.05,0.1 q 0.6,1.05 4.3,4.7 l 0.6,0.6 2.15,2.05 2.7,2.55 0.95,0.7 2.65,2.3 0.1,1 -0.8,-0.8 -1.45,-1.25 -1.4,-1.35 q -1.45,-1.2 -2.2,-0.95 l 3,3 3,2.55 0.35,1.8 L -7.1,-28 q -4.45,-2.05 -8.95,-2.5 m -4.5,2.55 2.25,0.75 1.2,0.45 1.15,0.5 2.2,0.05 0.55,0.1 6.25,2.4 3,1.5 0.85,1.35 0.5,0.65 -1,-0.35 -0.65,-0.3 -4.55,-2.1 -1.9,-0.8 -0.8,-0.35 q -3.1,-1.3 -5.45,-1.8 h -0.3 L -18,-26 q 0.05,0.45 0.5,0.7 0.25,0.25 0.7,0.35 l 0.8,0.35 0.15,0.05 2.65,1.15 0.8,0.3 q 2.3,1.05 4.5,1.95 l 6.7,2.85 0.45,0.2 0.15,0.15 0.05,0.15 0.25,0.75 -1.05,-0.35 1.2,0.95 -0.1,1.25 -8.15,0.5 -0.3,-0.55 -0.1,-1.15 q 0.1,-1.2 -0.9,-2.2 h -0.05 v -0.05 l 0.15,-0.4 v -0.2 l -0.55,-0.65 h -0.15 l -0.4,0.1 h -0.05 l -0.1,0.05 -0.2,0.1 -0.55,0.5 -0.2,0.25 -1.7,2.2 -0.45,0.05 -0.3,-0.05 q -2.2,-1.05 -5.65,-3.55 l -2.6,-1.95 q -4.75,-3.75 -4.2,-5.3 l 4.5,-0.4 1.65,-0.05 m 13.85,-6.9 -0.1,-0.25 0.1,0.1 v 0.15 m -14.05,23.6 -4,-2.8 -0.55,-0.4 q -2.5,-1.95 -2.2,-2.75 l 0.05,-0.05 h 0.15 3.8 l 3.3,0.9 q 1.95,1.25 3.85,2.15 0.3,0.1 0.85,0.55 l -1.15,-0.15 q 1.35,0.9 4.15,2.05 l -3.45,0.05 -4.8,0.45 m 8.1,-2.6 0.5,0.15 -0.3,0.2 -0.45,-0.1 0.25,-0.25 m -1.1,0.7 0.3,-0.1 0.05,0.25 -0.35,-0.15 m -7.7,21.1 h -0.05 q -0.7,0.1 1.6,2.4 l 1.15,1.1 0.3,0.35 -6.45,-2.1 -0.65,-0.15 -0.85,-0.15 0.75,0.55 q 2.65,1.95 7.5,3.5 l 1.8,0.6 0.5,0.45 -1.1,0.15 -4.05,1.05 -0.8,-0.4 -0.65,-0.4 q -2.1,-1.1 -4,-2.55 l -0.65,-0.5 -2,-1.65 -0.45,-0.1 q -1.75,-0.55 -3.9,-2 -2.45,-1.5 -0.9,-2.1 l 2.9,0.25 h 0.15 l 1.2,0.85 5.25,0.2 3.4,0.65 m 0.7,0.65 h 0.15 l 0.1,0.15 -0.25,-0.15 m -6.65,26.55 v -0.1 l 0.1,-0.1 3.15,-2.2 3,-1.05 4.55,-0.45 0.95,-0.05 -0.95,0.45 4.6,-0.6 q 1.3,0.3 3,0 l 2.95,0.4 2.75,0.1 2.55,0.2 -4.2,2.45 -0.3,0.25 -1,0.2 Q -6.7,33.9 -7.2,33.55 l -0.25,-0.15 -0.05,0.35 0.05,1.15 -0.75,0.15 -0.25,-0.55 -1.2,-2.05 -0.2,0.3 0.05,0.35 0.55,1.95 0.05,0.2 -14.1,0.9 h -0.8 q -3.1,-0.2 -3.3,-1 m 14.05,-5.75 0.55,-0.15 -0.1,0.3 -0.55,0.2 0.1,-0.35 m -0.3,0.95 0.25,0.15 -0.4,0.1 0.15,-0.25"
         fill="#d2d2d2"
         fill-rule="evenodd"
         stroke="none"
         id="path18" />
      <path
         d="m 19.5,-13.05 0.3,-0.65 0.3,0.25 q -0.1,0.4 -0.05,0.95 H 20 l -0.5,-0.55 m 0.25,-2.25 q -0.25,-1 -1.1,-2.1 -0.8,-1.05 -2.9,-2.8 l -3.25,-2.6 -4.95,-3.5 -0.2,-0.1 Q 5.6,-27.45 4.2,-27.8 l -0.1,-0.05 -2.9,-1.5 -1.8,-0.7 -1.3,-1.95 q -2.3,-1.95 -2.45,0.1 v 0.5 l 0.45,2.35 0.35,0.75 0.5,1.05 0.75,1.5 0.1,0.25 1,1.7 3.1,4.4 -1.95,-2.3 -1.85,-2.7 -0.7,-1.3 -0.2,-0.5 -0.55,-1.35 -0.6,-1.6 -0.75,-2.2 -0.15,-0.5 -0.75,-2.55 q 1.5,0.75 5.5,2.35 l 2.45,0.95 1.45,0.65 3.55,1.75 q 5.4,2.8 9,5.8 2.55,2.1 3.8,6.1 l 0.55,1.9 -0.15,0.2 -0.8,-0.6 m -14.8,-1 4,1.2 3.05,0.45 0.55,0.25 0.15,0.05 q 0.95,0.5 1.8,0.65 l 0.35,0.4 -3.9,-0.05 -4.05,-1.4 -0.6,-0.45 q -0.65,-0.5 -1.35,-1.1 m -8.1,3.45 1.2,-0.05 2.15,-0.05 3.85,0.2 1.3,0.2 2.2,0.5 q -0.45,0.85 -0.25,2 L 6.5,-10.35 3,-11.5 2.35,-11.65 -0.6,-12.3 l -0.55,-0.15 -1.35,-0.3 -0.65,-0.1 M 5.2,-1.5 5.15,-1.25 4.95,-1 v 0.45 0.05 L 4.05,-1.4 3.55,-2.05 5.2,-1.5 m -2,-0.65 0.05,0.1 L 3.1,-2.2 3.2,-2.15 M 20.9,-8.4 q -1.1,-0.8 -3.8,-2.05 l -0.85,-0.4 4.15,0.75 0.5,1.7 M 7.3,0.1 7.2,0.3 7,0.15 7.3,0.1 M 15.25,1.65 14.9,1.5 13.55,1 l -1.5,-0.6 -1.6,-0.55 4,0.3 0.8,1.5 m -1.85,-3.6 0.15,0.1 -0.9,-0.15 0.75,0.05 m 2.55,-0.55 q -0.1,0.7 0.2,1.65 l 0.25,0.75 -1.65,-2.5 1.2,0.1 m 3.4,6.75 q 1.2,1.35 2.45,2.1 l 0.05,0.05 0.8,0.4 0.2,0.1 L 21.9,6.65 21.7,6.6 21.2,6.35 Q 20.65,6.1 19.35,4.25 m 4.4,2.8 q 0.55,-0.1 1,-0.5 L 25.5,5.4 V 5.3 l 0.45,-0.15 0.35,0.2 1,0.6 1.35,0.8 -1.8,0.2 L 26.7,7 25.85,7.05 h -2.1 m -0.3,-7.2 -0.35,-0.95 -0.3,-0.75 0.8,0.15 V -1 l -0.15,0.85 m -0.85,-11.5 q 0.6,1.85 2.05,4.55 1.9,3.7 2.8,4.5 l 1,0.6 0.3,0.1 L 29,-1.85 29.9,-2 30.95,-0.5 31.2,-0.25 30.8,-0.3 30.65,-0.35 29.8,-0.5 29.55,-0.55 28.7,-1.1 l -1.15,-0.35 -0.6,-0.4 -1.1,-1.25 q -1.05,-1.5 -2.05,-4 l -0.6,-1.55 q -0.5,-1.45 -0.7,-2.65 l 0.1,-0.35 m 8.4,7.95 -0.1,-1.35 -1,-2.6 q -1.2,-2.15 -2.2,-3.3 l 1.45,1.15 q 2.55,2.15 3.55,3.75 0.7,1.15 0.8,3.8 h 0.05 L 33.4,-2.1 33.55,-1.55 33.5,-0.5 33.05,-1.05 32.95,-1.3 31,-3.7 M 24.55,1.85 25.8,1 25.95,0.9 q 1.4,-0.95 1.9,-0.7 0.8,0.35 1.5,1.4 l 0.15,0.3 0.45,1.25 0.25,0.8 -0.5,1.2 -1.65,-0.8 -1.1,-0.55 Q 27.05,2.9 25.7,2.25 l -1.15,-0.4 m -7.75,9.2 q 1.55,1.15 4.25,2.55 3.65,1.95 4.85,2.05 l 1.2,-0.05 0.4,-0.1 0.1,-0.1 0.65,-0.65 1.8,0.65 0.3,0.1 -0.3,0.1 -0.2,0.1 -0.75,0.35 -0.2,0.1 -1.05,0.05 -1.2,0.35 v 0.05 l -0.7,-0.05 -1.55,-0.3 q -1.75,-0.6 -4.05,-2.15 l -1.4,-1 -2.05,-1.75 -0.1,-0.3 M 28.2,12.75 27.35,11.7 26.9,11.3 25,10.15 q -2.15,-1.1 -3.7,-1.5 l 1.85,0.15 q 3,0.25 4.7,0.85 L 28.2,9.8 q 1.3,0.6 2.9,2.7 h 0.05 v 0.2 l 0.4,0.3 0.55,0.95 -0.65,-0.25 -0.3,-0.1 -2.95,-0.85 m -2.05,8.2 0.55,-1.4 0.05,-0.15 q 0.65,-1.6 1.15,-1.7 l 2,0.3 0.35,0.2 1.05,0.7 0.65,0.55 0.3,1.3 -1.8,0.25 -1.2,0.15 q -0.45,-0.8 -1.9,-0.5 l -1.2,0.3 m -9,-6.3 -4.2,0.5 -0.9,0.15 Q 14,14.15 15.8,13.55 l 1.35,1.1 m 5.45,4.3 q 0.45,-0.25 0.75,-0.35 l 0.35,0.55 0.4,0.8 -0.85,-0.55 -0.65,-0.45 m 6.55,3.9 h 0.45 l 1.15,-0.1 1.55,-0.05 -1.35,1.1 -0.1,0.1 -0.7,0.6 -1.65,1.2 0.5,-0.95 -0.05,-1.35 -0.05,-0.1 0.25,-0.45 m -1.45,3.25 -1.1,0.4 h -0.15 l -0.45,0.1 -2.75,-0.65 3.1,0.3 h 0.05 l 1.05,-0.15 h 0.25 m -9.35,-2.1 -2.8,-1.15 1.1,-0.5 1.1,1.25 0.6,0.4 m -29.8,-10.15 -0.45,0.05 -0.2,-0.1 -0.4,-0.25 -1,-0.6 -3.35,-2.45 -2.5,-2 h 0.05 l 1.3,-0.25 4.55,-1 2.5,-0.65 Q -2.1,4.9 4.25,5.25 l 1,0.05 Q 8.4,5.6 11.6,8 l 0.2,0.15 1.05,0.8 0.5,0.45 L 13.3,9.65 12.4,9.6 Q 11.6,8.95 10.2,8.5 L 6.35,7.85 H 6.05 L 2.1,7.65 0.55,7.6 h -4.5 l -3.7,0.65 -2,0.25 q -1.9,0.3 -3.15,0.75 l -2.15,-0.9 Q -16.7,8.2 -17.1,8.7 l -0.1,0.4 0.25,0.7 q 0.85,1.5 2.75,2.55 l 0.7,0.4 q 0.55,0.3 1,0.55 l 0.45,0.25 0.6,0.3 m 24.8,-2.95 0.25,0.05 0.5,0.8 -0.7,-0.15 -0.05,-0.7 M 9.45,14.1 7.9,15.1 7.45,14.65 7.2,14.55 9,13.95 9.45,14.1 M 0.2,-1.7 q 2.2,1.55 3.15,2 L 4.15,0.5 4.2,0.55 4.75,0.95 5,1.15 5.45,2 5.5,2.05 2.05,1.05 1.7,0.15 0.2,-1.7 M 2,2.35 3.75,2.8 H 1.9 L 2,2.4 V 2.35 M -15.1,5.5 -16.4,5.9 -17.85,5.2 -24,1.3 l -4.9,-3.9 -0.6,-0.75 -2.35,-2.5 q 1,-0.2 3.25,-1.15 l 0.9,-0.3 4.45,-0.75 1.65,-0.35 2.8,-0.3 1.95,-0.15 h 5.05 0.4 l 3,0.35 0.55,0.45 2.15,1.7 3.55,2.9 -4.15,-2.25 -3.6,-0.65 -0.9,-0.1 -0.85,-0.05 h -0.15 l -0.9,0.1 -2.5,0.1 -3.25,0.1 -2.1,-0.05 h -0.3 l -1.55,-0.3 q -2.45,-0.5 -5.1,1 -2.85,1.75 0.6,3.95 l 6.5,4.05 5.3,3.05 m 9.15,13.6 1.4,-0.3 2.65,-0.6 3.3,-0.75 h 0.45 l 0.2,-0.05 0.6,-0.1 -1.1,0.45 -1.35,0.65 -0.55,0.1 -1.35,0.25 -2,0.5 -1.4,0.4 -0.85,-0.55 m 1.3,0.95 2.3,-0.1 -1.55,1.25 -0.1,0.1 q -0.25,-0.75 -0.65,-1.25 m -5.65,6.25 -0.45,0.45 -0.6,-0.65 -1.2,-1.1 -1.15,-0.9 v -0.2 -0.05 q 1.4,0.2 2,1.2 l 0.85,0.95 0.55,0.3 m -5.7,1.55 0.2,0.05 0.1,-0.05 v 0.05 0.85 l -3.1,0.55 q -2.55,0.25 -5.75,0 l -9.8,-1.6 1.65,-1.4 q 0.45,1.55 6.5,1.9 L -23,28.35 -16.35,28 -16,27.85 m -11.9,-5.5 5.25,-3.95 0.4,-0.2 q 1.3,-0.7 3.55,-1.35 l 0.1,-0.05 4.45,-1 1.95,-0.4 4.65,0.35 1.9,0.45 0.5,0.15 1.05,0.35 1.05,0.35 -4.5,1.1 Q -8.6,17.6 -10.3,17.55 l -0.65,0.05 -3.4,0.45 -0.05,0.05 -4.7,1.15 -1.75,0.45 q -1.6,0.6 -2.4,1.45 l -1.15,0.25 -3.5,0.95 M 5.2,21.1 4.4,21.3 3.75,21.5 3.7,21.55 1.55,22.15 0.8,22.4 l -0.55,0.2 -2.8,1.2 -0.7,0.25 -1.25,0.55 -0.4,0.2 0.65,-0.5 1.75,-1.3 q 3.45,-2.45 6.75,-3.65 0.1,0.9 0.95,1.75 m 1.55,8.65 1.55,-0.4 0.05,0.2 V 29.9 L 8.6,30.2 7.6,30 6.75,29.75 m 8.2,-5.55 -0.85,0.4 0.6,-0.4 h 0.25 m 3.5,1.9 -0.55,0.15 -1.2,0.3 -1.55,0.45 -1.8,0.45 q 1.8,-1.3 3.6,-2.1 l 1.5,0.75 m -7.55,3.35 0.05,0.25 -0.25,-0.05 0.2,-0.2 m 11.8,2.1 1.05,-0.5 q 0.35,-0.25 0.8,-0.55 1.4,-0.95 1.8,-2.1 h 0.5 l -0.3,0.5 -0.85,1.4 -0.95,0.8 -0.85,0.3 -0.2,0.05 -1,0.1 M 4.4,34.2 3.45,32.45 4.85,32 l 3.1,-0.15 0.8,-0.3 H 8.8 L 9.45,31.6 H 9.9 q 1.3,0.95 3.7,1.45 l -0.45,0.2 -0.1,0.1 Q 11.9,32.4 9.15,32.9 7.8,33.1 6.05,33.65 L 5.7,33.75 4.4,34.2 m -1.8,9.1 -5.75,3 q -2.3,1.05 -10,1.45 l -6.1,0.15 2.45,-1.75 q -0.75,1.45 2.05,0.95 2.55,-0.4 4.2,-1.2 l 0.45,-0.25 2.55,-0.1 0.9,-0.05 4.6,-0.8 0.8,-0.2 3.85,-1.2 m -16.95,1 3.8,-2.9 1.45,-1.1 1.35,-1 q 3.85,-2.9 6.55,-4.5 l 1.25,-0.75 0.45,0.5 0.85,0.85 -2.65,1.1 -0.25,0.15 q -4.4,2 -7.35,4.05 -2.5,1.75 -4.05,3.4 l -1.4,0.2 M 2.4,34.95 1.35,34 l -0.5,-0.45 1,-0.5 0.65,-0.25 0.35,-0.15 0.85,1.8 -1.3,0.5 m -4.4,-69.9 -0.7,-0.9 Q -5.2,-38 -7.25,-39 l -6.05,-2.8 -2.05,-1.15 -1.25,-1 q -2,-1.6 -5.05,-1.4 -3.3,0.2 -1.2,3.8 l 3.9,6.55 2.9,4.5 -1.3,-0.1 q -2.3,-3.15 -4.3,-7.1 l -2.55,-5.7 -0.2,-0.9 -0.95,-3.35 3.4,0.5 0.95,0.15 5.95,1.8 q 8.85,3.15 14.5,8.1 1.95,1.7 3.25,3.8 L -2,-34.95 m -1.95,12.75 -3,-1.5 -6.25,-2.4 -0.55,-0.1 -2.2,-0.05 -1.15,-0.5 -1.2,-0.45 -2.25,-0.75 1.6,-0.1 3.45,-0.15 1.2,0.05 h 0.4 q 2.8,0.2 8.4,2.7 l 1.55,3.25 m -22.75,-5.3 q -0.55,1.55 4.2,5.3 l 2.6,1.95 q 3.45,2.5 5.65,3.55 l 0.3,0.05 0.15,0.15 0.15,0.05 -0.05,0.05 -0.5,0.7 -2.85,-1.35 q -2.2,-1.25 -4.65,-3.3 -3.3,-2.75 -7.1,-6.95 l 2.1,-0.2 m 16.95,8.9 h 0.05 q 1,1 0.9,2.2 l 0.1,1.15 0.3,0.55 -0.55,0.05 -0.15,-0.8 -0.35,-1.5 -0.4,-1.5 0.1,-0.15 m 9.5,3.4 0.1,-1.25 1.9,1.15 -2,0.1 m -0.05,-1.85 -0.25,-0.75 -0.05,-0.15 1.15,1.15 -0.85,-0.25 m -20.45,5.8 -1.35,0.15 -7.85,-5.85 0.05,-0.15 2.3,-0.15 0.1,0.05 q -0.3,0.8 2.2,2.75 l 0.55,0.4 4,2.8 m -2.75,-6 2.25,0.15 1.05,0.75 -3.3,-0.9 m 10.85,3.4 q 0.75,-0.75 1.6,-2.15 l 0.3,0.05 v 0.15 l 0.1,0.75 0.15,0.75 -1.65,0.6 -0.5,-0.15 m -8.8,21.8 -3.4,-0.65 -5.25,-0.2 -1.2,-0.85 4.8,0.5 1.8,0.15 4.25,0.45 -1,0.6 M -34.35,6 q -1.55,0.6 0.9,2.1 2.15,1.45 3.9,2 l 0.45,0.1 2,1.65 0.65,0.5 q 1.9,1.45 4,2.55 l 0.65,0.4 0.8,0.4 -0.85,0.3 -2.45,-0.7 q -2.45,-0.75 -8.5,-5.65 l -4.5,-4 2.95,0.35 m 6.8,29.1 0.15,0.05 q 0.2,0.8 3.3,1 h 0.8 l 14.1,-0.9 0.1,0.3 h 0.05 l 0.5,1.25 q -3,0.45 -10.7,0.25 l -10,-0.3 -0.05,-0.15 1.75,-1.5 m 3.4,-2.35 1.8,-1.05 h 1.2 l -3,1.05 m 18.9,1.7 -0.8,0.6 -0.2,-0.4 1,-0.2 m -2.2,0.45 0.3,0.9 -0.55,0.4 -0.15,-0.35 -0.35,-0.8 0.75,-0.15 m -5.9,-5.5 q 0.15,-1.05 0.05,-2.65 l 0.3,-0.1 0.1,0.1 0.5,0.55 0.6,0.55 -1,1.4 -0.55,0.15"
         fill="#c6c6c6"
         fill-rule="evenodd"
         stroke="none"
         id="path19" />
    </g>
    <g
       id="sprite2"
       transform="translate(31.35,12.7)">
      <use
         ffdec:characterId="1006"
         height="25.450001"
         transform="translate(-31.35,-12.7)"
         width="62.700001"
         xlink:href="#shape2"
         id="use19" />
    </g>
    <g
       id="shape2"
       transform="translate(31.35,12.7)">
      <path
         d="M -0.75,-7.15 -0.85,-8.2 -1,-8.95 H 1 L 0.95,-8.2 v 0.25 0.8 h -1.7 m 3.4,0 L 2.55,-8.2 2.4,-8.95 8.75,-9 l 19,0.05 0.45,0.15 h 0.3 v 0.1 0.05 0.95 0.05 0.9 h -0.1 q -0.55,0 -0.8,-0.5 l -0.05,-0.1 -24.9,0.2 m -21.85,2.85 0.2,1.35 q 0,2 -0.2,2.5 -0.6,1.5 -3,1.5 -2.45,0 -3.7,-2.3 -0.8,-1.45 -0.8,-2.6 l 0.15,-0.95 q 0.5,-1.65 2.95,-1.75 1.95,0.05 3.25,1.05 l 0.95,0.9 0.2,0.3 M -27.85,-7 -27.9,-8.95 h 17.1 l -0.25,0.5 -0.55,1.35 -7.35,0.05 -1.35,-0.6 Q -23.15,-8.6 -26.4,-7 h -1.45 m 25.9,-0.15 h -1.2 Q -3,-6.8 -3,-6.3 q 0,1.95 -3.05,2.1 h -0.4 q -2.05,0 -2.85,-1.15 -0.4,-0.6 -0.4,-1.3 l 0.05,-0.45 h -0.85 l 1.2,-1.85 h 7.6 l -0.1,0.8 -0.1,0.5 -0.05,0.5 M -12.7,3.15 h -0.35 -0.15 L -14.25,2 V 1.95 q -0.4,-0.5 -0.4,-1.05 0,-2.45 2.25,-1.55 l 0.1,0.05 q 1.15,0.45 1.7,1 v 0.45 q 0,0.75 -0.45,1.4 -0.55,0.8 -1.65,0.9"
         fill="#e0e0e0"
         fill-rule="evenodd"
         stroke="none"
         id="path20" />
      <path
         d="M 0.95,-7.15 V -7.95 -8.2 L 1,-8.95 h -2 l 0.15,0.75 0.1,1.05 v 0.9 1.65 L 1.35,-5.1 1,-6.15 l -0.05,-1 m 26.8,-1.8 -19,-0.05 -6.35,0.05 0.15,0.75 0.1,1.05 0.05,1.6 v 0.15 l 6.75,-1.05 h 19.1 L 28.5,-6.75 V -7.65 -7.7 -8.65 -8.7 -8.8 -8.95 h -0.75 m 1.55,-3.75 h 2.05 v 7.45 q -0.25,0.2 -0.6,0.3 -1.95,1.9 -6.1,1.25 H 12.6 Q 1.45,-2.9 -2,-0.75 q -1.6,0.95 -2.2,3.8 -0.35,1.5 -2.55,4.1 -2.7,3.2 -4.95,3.2 -4.4,0 -5.95,-0.75 -1.45,-0.7 -2.3,-0.75 l -0.2,0.05 -1.95,1.75 q -1.7,1.8 -3.55,1.8 h -0.65 l -2.05,0.3 -0.65,-0.05 -0.4,0.05 q -1.15,0 -1.5,-0.8 l -0.15,-0.9 0.15,-2.65 V -9.35 q -0.45,-0.45 -0.45,-1.3 0,-1.35 1.65,-1.75 h 58.8 l 0.2,-0.3 m -52.9,6.15 h -0.2 l -2.75,0.5 -1.3,0.35 0.1,15.8 0.4,-0.1 q 1.9,-0.3 3.5,-1.9 l 1.5,-1.7 0.35,-0.25 q 0.2,-1.95 1.85,-3.45 1.85,-1.75 1.85,-4.35 0,-1.4 -0.9,-2.65 l -0.2,-0.3 -0.95,-0.9 q -1.3,-1 -3.25,-1.05 m 12,-0.55 0.55,-1.35 0.25,-0.5 h -17.1 l 0.05,1.95 v 0.85 L -26.4,-7 q 3.25,-1.6 6.1,-0.65 l 1.35,0.6 0.35,0.2 q 2.3,1.6 2.3,5.15 0,2.3 -1.05,3.95 -0.85,1.35 -1.5,3.2 1.65,0.15 2.7,0.7 l 1.6,0.75 q 5.55,0 7.05,-3.15 0.65,-3.6 1.05,-4.5 h -0.1 L -8,-0.85 -9.25,-1.15 q 1,1.05 1,2.3 V 1.6 q -0.05,1.45 -0.45,2.15 -0.95,1.5 -3.75,1.5 -2.5,0 -3.45,-1.3 l -0.45,-1.4 q 0,-5.3 4.05,-5.05 l 1.15,0.25 -0.15,-0.2 q -0.85,-0.95 -0.85,-1.85 0,-1.3 0.55,-2.8 m 1.1,0 -0.25,1.25 q 0,1.35 0.5,1.85 1.1,1.05 5.15,1.45 l 2,-1.25 0.3,-0.15 0.8,-0.25 -0.1,-0.75 0.15,-2.2 0.05,-0.5 0.1,-0.5 0.1,-0.8 h -7.6 l -1.2,1.85 m -0.1,7.5 q -0.55,-0.55 -1.7,-1 l -0.1,-0.05 q -2.25,-0.9 -2.25,1.55 0,0.55 0.4,1.05 V 2 l 1.05,1.15 h 0.15 0.35 l 1.8,-0.1 q 0.75,-0.9 0.75,-1.7 0,-0.5 -0.45,-0.95"
         fill="#6b6b6b"
         fill-rule="evenodd"
         stroke="none"
         id="path21" />
      <path
         d="m -0.75,-7.15 h 1.7 l 0.05,1 0.35,1.05 -2.1,0.5 v -1.65 -0.9 m 3.4,0 24.9,-0.2 0.05,0.1 q 0.25,0.5 0.8,0.5 h 0.1 l 0.05,0.3 H 9.45 L 2.7,-5.4 V -5.55 L 2.65,-7.15 M -19.2,-4.3 q 0.9,1.25 0.9,2.65 0,2.6 -1.85,4.35 -1.65,1.5 -1.85,3.45 l -0.35,0.25 -1.5,1.7 q -1.6,1.6 -3.5,1.9 l -0.4,0.1 -0.1,-15.8 1.3,-0.35 2.75,-0.5 h 0.2 q -2.45,0.1 -2.95,1.75 l -0.15,0.95 q 0,1.15 0.8,2.6 1.25,2.3 3.7,2.3 2.4,0 3,-1.5 0.2,-0.5 0.2,-2.5 l -0.2,-1.35 m 7.6,-2.8 q -0.55,1.5 -0.55,2.8 0,0.9 0.85,1.85 l 0.15,0.2 -1.15,-0.25 q -4.05,-0.25 -4.05,5.05 l 0.45,1.4 q 0.95,1.3 3.45,1.3 2.8,0 3.75,-1.5 0.4,-0.7 0.45,-2.15 V 1.15 q 0,-1.25 -1,-2.3 l 1.25,0.3 1.45,0.1 h 0.1 Q -6.85,0.15 -7.5,3.75 -9,6.9 -14.55,6.9 l -1.6,-0.75 q -1.05,-0.55 -2.7,-0.7 0.65,-1.85 1.5,-3.2 1.05,-1.65 1.05,-3.95 0,-3.55 -2.3,-5.15 l -0.35,-0.2 7.35,-0.05 m -14.8,0.1 -1.45,0.85 V -7 h 1.45 m 24.45,-0.15 -0.15,2.2 0.1,0.75 -0.8,0.25 -0.3,0.15 -2,1.25 q -4.05,-0.4 -5.15,-1.45 -0.5,-0.5 -0.5,-1.85 l 0.25,-1.25 h 0.85 l -0.05,0.45 q 0,0.7 0.4,1.3 0.8,1.15 2.85,1.15 h 0.4 Q -3,-4.35 -3,-6.3 -3,-6.8 -3.15,-7.15 h 1.2 M -12.7,3.15 q 1.1,-0.1 1.65,-0.9 0.45,-0.65 0.45,-1.4 V 0.4 q 0.45,0.45 0.45,0.95 0,0.8 -0.75,1.7 l -1.8,0.1"
         fill="#c2c2c2"
         fill-rule="evenodd"
         stroke="none"
         id="path22" />
    </g>
    <g
       id="sprite3"
       transform="translate(33.45,3.05)">
      <use
         ffdec:characterId="1000"
         height="5.8000002"
         transform="translate(-33.45,-3.05)"
         width="65.199997"
         xlink:href="#shape3"
         id="use22" />
    </g>
    <g
       id="shape3"
       transform="translate(33.45,3.05)">
      <path
         d="m 13.2,-0.95 0.05,-0.15 h 1.4 l 0.15,0.05 -0.05,0.1 H 13.2 m 1.35,1.2 -0.05,0.6 H 12.85 L 13,0.4 V 0.25 h 1.55 m -3.3,-1.2 h -13.2 -11 V -1.1 l 11,0.05 13.2,-0.05 v 0.15 m -24.1,1.2 h 24 l 0.05,0.6 h -24.1 l 0.05,-0.6 m 29.15,-1.2 v -0.1 L 16.55,-1.1 H 24.2 L 29,-1.25 V -0.9 L 16.3,-0.95 M 29,0.15 v 1.1 l -9.85,-0.4 h -2.8 v -0.6 l 12.5,-0.1 H 29 M -30.7,-0.9 v -0.35 l 4.8,0.15 h 7.65 l 0.25,0.05 v 0.1 l -12.7,0.05 m 12.65,1.15 v 0.6 h -2.8 l -9.85,0.4 v -1.1 h 0.15 l 12.5,0.1 m 1.6,-1.2 -0.05,-0.1 0.15,-0.05 h 1.4 l 0.05,0.15 h -1.55 m 1.75,1.2 V 0.4 l 0.15,0.45 h -1.65 l -0.05,-0.6 h 1.55"
         fill="#c2c2c2"
         fill-rule="evenodd"
         stroke="none"
         id="path23" />
      <path
         d="m 14.75,-0.95 0.05,-0.1 -0.15,-0.05 h -1.4 L 13.2,-0.95 13,0.25 V 0.4 l -0.15,0.45 h 1.65 l 0.05,-0.6 0.2,-1.2 m -3.6,1.2 v -0.3 l 0.1,-0.9 V -1.1 l -13.2,0.05 -11,-0.05 v 0.15 l 0.1,0.9 v 0.3 l -0.05,0.6 H 11.2 L 11.15,0.25 M 29,-0.9 v -0.35 l -4.8,0.15 h -7.65 l -0.25,0.05 v 0.1 l 0.05,1.2 v 0.6 h 2.8 L 29,1.25 v -1.1 -0.5 -0.55 m 2.75,0.55 v 2 l -0.2,1.1 H -33.2 l -0.25,-1.1 v -2 q 0,-1.8 0.4,-2.7 H 31.4 q 0.35,0.9 0.35,2.7 M -30.7,-0.9 v 0.55 0.5 1.1 l 9.85,-0.4 h 2.8 v -0.6 l 0.05,-1.2 v -0.1 l -0.25,-0.05 h -7.65 l -4.8,-0.15 v 0.35 m 15.8,-0.05 -0.05,-0.15 h -1.4 l -0.15,0.05 0.05,0.1 0.2,1.2 0.05,0.6 h 1.65 L -14.7,0.4 V 0.25 l -0.2,-1.2"
         fill="#6b6b6b"
         fill-rule="evenodd"
         stroke="none"
         id="path24" />
      <path
         d="m 14.75,-0.95 -0.2,1.2 H 13 l 0.2,-1.2 h 1.55 m -3.5,0 -0.1,0.9 v 0.3 h -24 v -0.3 l -0.1,-0.9 h 11 13.2 M 29,-0.9 v 0.55 0.5 H 28.85 L 16.35,0.25 16.3,-0.95 29,-0.9 m -59.7,1.05 v -0.5 -0.55 l 12.7,-0.05 -0.05,1.2 -12.5,-0.1 h -0.15 m 14.25,-1.1 h 1.55 l 0.2,1.2 h -1.55 l -0.2,-1.2"
         fill="#e0e0e0"
         fill-rule="evenodd"
         stroke="none"
         id="path25" />
    </g>
    <g
       id="sprite4"
       transform="translate(8.4,47.75)">
      <use
         ffdec:characterId="988"
         height="95.550003"
         transform="translate(-8.4,-47.75)"
         width="16.799999"
         xlink:href="#shape4"
         id="use25" />
    </g>
    <g
       id="shape4"
       transform="translate(8.4,47.75)">
      <path
         d="m 0.35,-45.3 0.4,1.85 0.1,3.65 v 14.7 l 0.2,1.35 0.05,0.4 H 1.05 l -2.25,-0.1 0.15,-1.75 v -14.6 l 0.3,-5.5 h 0.7 0.4 m -1.65,23.5 2.2,-0.1 h 0.3 l 0.05,1.05 h -0.5 l -2.1,-0.05 0.05,-0.9 m -0.15,2.9 2.2,-0.05 0.6,-0.05 v 0.65 0.4 q 2.4,0.8 2.7,3 v 0.5 0.5 q -0.15,1 -0.8,1.75 -0.75,0.85 -1.9,1.1 v 1.85 H 1.3 L 0.75,-9.3 H 0.2 -0.6 -1.55 v -1.85 L -3,-12 l -0.65,-1.1 -0.3,-2.25 q 0,-2.75 2.5,-2.95 v -0.6 M 1.3,12.3 H -1.45 V 11.95 L -1.5,0 V -0.45 -2.3 -2.65 l -0.05,-4.6 h 0.4 l 0.3,-0.05 1.2,-0.05 h 0.4 L 1.2,-7.4 H 1.35 L 1.3,12.3 m 0,6.45 H 0.55 L -0.2,18.7 -1.35,18.75 -1.45,18.5 V 17.85 L -2,17.75 -2.6,17.25 -2.75,17.15 -2.8,17.1 -3.3,16.65 -3.6,15.45 q 0.45,-0.2 0.85,-0.75 l 0.45,-0.8 h 3.6 v 0.05 q 1.05,0.4 1.05,1.3 0,0.5 -1.05,1.25 v 2.25 M 1.25,25.8 V 26 26.35 L 1.2,29.1 1.25,30.8 v 1.25 2.75 L 1.2,42.45 H 0.25 -1.4 V 40.8 40.7 l 0.1,-2.3 0.05,-5.5 0.05,-3.8 v -0.5 l -0.1,-3.95 -0.15,-2.2 V 22.3 20.5 H 1.3 L 1.25,25.8 M 0.8,44.95 -0.1,44.9 h -1.05 l -0.25,-0.65 0.05,-0.2 H 1.1 l -0.3,0.9"
         fill="#e0e0e0"
         fill-rule="evenodd"
         stroke="none"
         id="path26" />
      <path
         d="M 0.35,-45.3 3,-45.45 q -0.35,2.1 -0.35,6.55 l 0.05,9.7 0.05,0.8 q 0.1,2.8 0.35,5.15 l -2,-0.1 -0.05,-0.4 -0.2,-1.35 v -14.7 l -0.1,-3.65 -0.4,-1.85 m -1.55,21.85 -1.85,-0.1 q 0.25,-2.55 0.35,-5.65 l 0.05,-9.7 q 0,-4.3 -0.3,-6.4 h 2.2 l -0.3,5.5 v 14.6 l -0.15,1.75 m -0.1,1.65 -0.05,0.9 h -1.2 -0.3 l -0.5,-0.6 0.05,-0.3 h 1 1 m 2.55,0.95 -0.05,-1.05 2.05,-0.1 0.1,0.5 -0.6,0.7 -1.5,-0.05 m -2.7,1.95 v 0.6 q -2.5,0.2 -2.5,2.95 l 0.3,2.25 0.65,1.1 1.45,0.85 v 1.85 l -1.8,0.05 -0.3,-0.25 q -1.45,-1.15 -1.45,-3.3 0,-2.4 1.45,-4.65 l 0.9,-1.45 h 0.3 1 m 2.8,9.65 v -1.85 q 1.15,-0.25 1.9,-1.1 0.65,-0.75 0.8,-1.75 v -0.5 -0.5 q -0.3,-2.2 -2.7,-3 v -0.4 -0.65 l 1.25,-0.15 1.05,1.7 0.4,0.65 q 1.05,1.95 1.05,4 0,1.85 -1.05,2.95 l -0.4,0.35 -0.3,0.3 -2,-0.05 m 0,1.85 0.5,-0.1 0.45,-0.05 -0.2,0.6 Q 1.8,-6 1.65,-4.7 l -0.1,3.2 0.1,5.15 v 5.8 l 0.2,2.85 H 1.3 L 1.35,-7.4 M -1.6,12.3 h -0.25 l 0.2,-2.85 V 3.65 L -1.6,2.2 -1.5,0 -1.45,11.95 -1.6,12.3 m 0.1,-14.95 -0.15,-2.05 -0.5,-2.55 h 0.6 l 0.05,4.6 M 1.3,13.9 h 1 l 0.45,0.8 q 0.55,0.7 1.1,0.8 L 3.4,16.6 2.6,17.25 2.15,17.65 Q 1.5,18.2 1.4,18.75 H 1.3 V 16.5 q 1.05,-0.75 1.05,-1.25 0,-0.9 -1.05,-1.3 V 13.9 m -2.75,4.6 -0.55,-0.75 0.55,0.1 V 18.5 M -3.3,16.65 q -0.55,-0.6 -0.55,-1.15 l 0.25,-0.05 0.3,1.2 m 4.6,3.85 h 0.15 l 0.2,-0.1 -0.2,2.05 -0.2,3.35 0.05,-5.3 M 1.25,34.8 1.3,38.35 v 0.05 l 0.25,4.05 H 1.2 L 1.25,34.8 m -2.65,7.65 h -0.1 l 0.05,-0.7 v -0.4 L -1.4,40.8 v 1.65 M -1.45,22.3 -1.6,20.7 -1.65,20.5 h 0.2 v 1.8 M 1.85,45 1.8,45.1 0.8,44.95 1.1,44.05 H 1.7 L 1.85,45 m -3,-0.1 -0.65,0.05 0.1,-0.75 v -0.15 h 0.35 l -0.05,0.2 0.25,0.65"
         fill="#c2c2c2"
         fill-rule="evenodd"
         stroke="none"
         id="path27" />
      <path
         d="m 1.1,-23.35 2,0.1 Q 2.85,-25.6 2.75,-28.4 L 2.7,-29.2 2.65,-38.9 q 0,-4.45 0.35,-6.55 l -2.65,0.15 h -0.4 -0.7 -2.2 q 0.3,2.1 0.3,6.4 l -0.05,9.7 q -0.1,3.1 -0.35,5.65 l 1.85,0.1 2.25,0.1 H 1.1 m 4.85,-20.5 0.05,3.2 v 18.7 l 1.5,3.35 q 0.9,1.8 0.9,3.35 0,5.7 -1.75,8.05 Q 4.9,-4.85 4.9,3.25 v 6.2 q 0,2.35 1.15,3.35 1.1,1.05 1.1,2.45 0,1.15 -0.8,2.9 Q 5.5,20 4.2,20.5 q 0.35,1.4 0.5,3.6 l 0.05,5.05 v 9.5 q -0.3,9 -1.75,9 H 2.85 L 0.2,47.8 -2.7,47.55 -3,47.65 -3.55,47.25 -3.75,47.1 -3.95,46.35 V 46.3 L -4.4,43.75 -4.65,43.45 Q -4.9,42.85 -4.6,42.7 h 0.1 l -0.25,-4.05 v -9.5 L -4.7,24.1 q 0.15,-2.2 0.5,-3.6 -1.3,-0.5 -2.15,-2.35 -0.8,-1.75 -0.8,-2.9 0,-1.4 1.1,-2.45 1.15,-1 1.15,-3.35 v -6.2 q 0,-8.1 -1.75,-10.45 -1.75,-2.35 -1.75,-8.05 0,-1.55 0.9,-3.35 l 1.5,-3.35 v -0.15 l -0.5,-0.85 0.5,-0.2 v -17.5 l 0.05,-3.2 q 0.1,-1.65 0.9,-2.5 L -5.1,-46.6 q 0,-0.7 0.45,-0.9 l 2.7,-0.25 6.4,0.4 q 0.45,0.1 0.45,0.8 0.95,0.85 1.05,2.7 M 1.2,-21.9 H 0.9 l -2.2,0.1 h -1 -1 l -0.05,0.3 0.5,0.6 h 0.3 1.2 l 2.1,0.05 h 0.5 l 1.5,0.05 0.6,-0.7 -0.1,-0.5 -2.05,0.1 m 0.15,2.9 -0.6,0.05 -2.2,0.05 h -1 -0.3 l -0.9,1.45 q -1.45,2.25 -1.45,4.65 0,2.15 1.45,3.3 l 0.3,0.25 1.8,-0.05 h 0.95 0.8 0.55 l 0.55,0.05 h 0.05 l 2,0.05 0.3,-0.3 0.4,-0.35 q 1.05,-1.1 1.05,-2.95 0,-2.05 -1.05,-4 L 3.65,-17.45 2.6,-19.15 1.35,-19 M 1.3,12.3 H 1.85 L 1.65,9.45 V 3.65 L 1.55,-1.5 1.65,-4.7 Q 1.8,-6 2.1,-6.95 l 0.2,-0.6 -0.45,0.05 -0.5,0.1 H 1.2 l -0.45,0.05 h -0.4 l -1.2,0.05 -0.3,0.05 h -0.4 -0.6 l 0.5,2.55 0.15,2.05 V -2.3 -0.45 0 l -0.1,2.2 -0.05,1.45 v 5.8 l -0.2,2.85 h 0.25 0.15 2.75 m 0,6.45 H 1.4 Q 1.5,18.2 2.15,17.65 L 2.6,17.25 3.4,16.6 3.85,15.5 Q 3.3,15.4 2.75,14.7 L 2.3,13.9 h -1 -3.6 l -0.45,0.8 q -0.4,0.55 -0.85,0.75 l -0.25,0.05 q 0,0.55 0.55,1.15 l 0.5,0.45 0.05,0.05 0.15,0.1 0.6,0.5 0.55,0.75 0.1,0.25 1.15,-0.05 0.75,0.05 H 1.3 m -0.05,7.05 0.2,-3.35 0.2,-2.05 -0.2,0.1 H 1.3 -1.45 -1.65 l 0.05,0.2 0.15,1.6 v 0.15 l 0.15,2.2 0.1,3.95 v 0.5 l -0.05,3.8 -0.05,5.5 -0.1,2.3 v 0.1 l -0.05,0.55 v 0.4 l -0.05,0.7 H -1.4 0.25 1.2 1.55 L 1.3,38.4 V 38.35 L 1.25,34.8 V 32.05 30.8 L 1.2,29.1 1.25,26.35 V 26 25.8 M 1.8,45.1 H 1.85 V 45 L 1.7,44.05 H 1.1 -1.35 -1.7 v 0.15 l -0.1,0.75 0.65,-0.05 h 1.05 l 0.9,0.05 1,0.15"
         fill="#6b6b6b"
         fill-rule="evenodd"
         stroke="none"
         id="path28" />
    </g>
    <g
       id="sprite5"
       transform="translate(8.05,7.7)">
      <use
         ffdec:characterId="1042"
         height="9.8999996"
         transform="matrix(1.0606,0,0,1.0606,-5.3712,-4.85)"
         width="10.65"
         xlink:href="#sprite6"
         id="use28" />
      <use
         ffdec:characterId="1043"
         height="15.45"
         transform="translate(-8.05,-7.7)"
         width="16.1"
         xlink:href="#shape6"
         id="use29" />
    </g>
    <g
       id="sprite6"
       transform="translate(5.3,4.95)">
      <use
         ffdec:characterId="1041"
         height="9.8999996"
         transform="translate(-5.3,-4.95)"
         width="10.65"
         xlink:href="#shape5"
         id="use30" />
    </g>
    <g
       id="shape5"
       transform="translate(5.3,4.95)">
      <path
         d="m -4.05,-3 q -0.45,0.85 -0.45,2.2 0,0.7 0.75,1.7 1.05,1.45 3,1.45 1.65,0 2.85,-1.75 1,-1.45 1,-2.55 0,-1.25 -0.65,-1.85 -0.95,-0.9 -3.4,-0.9 h -0.1 l 1.1,-0.2 q 2.1,-0.25 3.65,0.7 1.65,1.05 1.65,3.15 l -0.7,3.1 Q 3.25,4.95 0,4.95 -1.2,4.95 -3.2,3.4 -5.3,1.8 -5.3,0.7 q 0,-2.35 1.25,-3.7"
         fill="#c2c2c2"
         fill-rule="evenodd"
         stroke="none"
         id="path30" />
      <path
         d="m -1.05,-4.7 h 0.1 q 2.45,0 3.4,0.9 0.65,0.6 0.65,1.85 0,1.1 -1,2.55 -1.2,1.75 -2.85,1.75 -1.95,0 -3,-1.45 -0.75,-1 -0.75,-1.7 0,-1.35 0.45,-2.2 1.05,-1.2 3,-1.7"
         fill="#e0e0e0"
         fill-rule="evenodd"
         stroke="none"
         id="path31" />
    </g>
    <g
       id="shape6"
       transform="translate(8.05,7.7)">
      <path
         d="m 8.05,-0.75 q 0,2.6 -1,4.75 Q 5.25,7.75 0.9,7.75 -4.9,7.75 -7,4.85 -8.05,3.4 -8.05,1.4 q 0,-4.6 2.5,-7.05 2.2,-2.1 5.55,-2.05 3.2,0.05 5.55,1.9 2.5,2.05 2.5,5.05 M 0.3,-4.5 -0.8,-4.3 q -1.95,0.5 -3,1.7 -1.25,1.35 -1.25,3.7 0,1.1 2.1,2.7 2,1.55 3.2,1.55 3.25,0 4.65,-2.9 l 0.7,-3.1 Q 5.6,-2.75 3.95,-3.8 2.4,-4.75 0.3,-4.5"
         fill="#6b6b6b"
         fill-rule="evenodd"
         stroke="none"
         id="path32" />
    </g>
    <g
       id="sprite7"
       transform="translate(5.4,4)">
      <use
         ffdec:characterId="43"
         height="8"
         transform="translate(-5.4,-4)"
         width="10.8"
         xlink:href="#shape7"
         id="use32" />
    </g>
    <g
       id="shape7"
       transform="translate(5.4,4)">
      <path
         d="m 2.9,-0.35 q 0,-1.25 1.25,-1.25 1.25,0 1.25,1.2 0,1.3 -1.25,1.3 Q 3.6,0.9 3.25,0.5 2.9,0.15 2.9,-0.35 m 0.35,-2.3 q 0,0.55 -0.35,0.9 -0.4,0.45 -1,0.45 -1.35,0 -1.35,-1.4 0,-1.3 1.35,-1.3 1.35,0 1.35,1.35 m -3.1,1.9 h 0.2 q 2.6,0.1 2.6,2.8 l -0.3,1 Q 2.05,4 0.45,4 H 0.35 0.15 0.1 -0.45 q -1.6,0 -2.2,-0.95 l -0.3,-1 q 0,-2.8 2.8,-2.8 h 0.3 M -1.55,-4 q 1.35,0 1.35,1.35 0,0.55 -0.4,0.9 -0.4,0.45 -0.95,0.45 -1.4,0 -1.4,-1.4 0,-1.3 1.4,-1.3 m -2.6,2.4 q 1.25,0 1.25,1.25 0,0.5 -0.35,0.85 -0.35,0.4 -0.9,0.4 -1.25,0 -1.25,-1.3 0,-1.2 1.25,-1.2"
         fill="#6b6b6b"
         fill-rule="evenodd"
         stroke="none"
         id="path33" />
    </g>
    <g
       id="sprite8"
       transform="translate(10.7,14.8)">
      <use
         ffdec:characterId="1014"
         height="29.65"
         transform="translate(-10.7,-14.8)"
         width="21.450001"
         xlink:href="#shape8"
         id="use33" />
      <use
         ffdec:characterId="1016"
         height="23.799999"
         transform="matrix(1.0585,0,0,1.0504,-8.997,-11.8999)"
         width="17.049999"
         xlink:href="#sprite9"
         id="use34" />
    </g>
    <g
       id="shape8"
       transform="translate(10.7,14.8)">
      <path
         d="m 3.65,-14.8 q 1.25,0.5 1.25,1.45 l -0.1,0.7 0.2,1.95 -0.05,2.15 V -8.5 L 6.6,-8.6 h 0.15 0.4 0.2 v 0.05 q 2.65,0.05 3.4,0.7 V -0.4 H 10.7 Q 10.4,0.1 9.95,0.1 L 9.4,-0.15 8.3,-0.1 H 7.35 6.6 L 4.55,-0.2 4.7,1.2 4.8,6.15 v 4.2 Q 4.6,14.6 3.65,14.6 L 3.35,14.55 0,14.85 h -0.4 l -2.9,-0.3 -0.3,0.05 q -0.95,0 -1.15,-4.25 v -4.2 l 0.1,-4.95 0.15,-1.4 -2.05,0.1 H -7.3 -8.25 L -9.35,-0.15 -9.9,0.1 q -0.45,0 -0.75,-0.5 h -0.05 v -7.45 q 0.75,-0.65 3.4,-0.7 V -8.6 h 0.2 0.4 0.15 l 1.65,0.1 v -0.05 l -0.05,-2.15 0.2,-1.95 -0.1,-0.7 q 0,-0.95 1.25,-1.45 h 7.25 m -1.4,4.15 0.05,-0.95 -1.95,0.05 h -0.4 -0.25 -0.1 l -1.85,-0.05 0.05,0.95 q 0,2.1 -0.3,3.2 v 0.15 q 0,0.35 -0.35,0.6 -0.3,0.45 -0.75,0.45 L -3.85,-6.3 -6.55,-6 H -7.3 l -1.15,-0.05 0.1,1.2 q 0,1.15 -0.15,2.25 h 0.2 l -0.1,-0.1 1.1,-0.05 h 0.75 2.6 l 0.4,-0.05 q 1.25,-0.05 1.35,0.95 l 0.25,-0.05 0.1,3.85 -0.2,3.35 0.05,4.05 v 2.85 h 1.95 2.1 V 9.35 L 2.1,5.3 1.9,1.95 2,-1.9 2.25,-1.85 q 0.1,-1 1.35,-0.95 L 4,-2.75 h 2.6 0.75 l 1.1,0.05 -0.1,0.1 h 0.2 Q 8.4,-3.7 8.4,-4.85 L 8.5,-6.05 7.35,-6 H 6.6 L 3.9,-6.3 3.65,-6.25 Q 3.2,-6.25 2.9,-6.7 2.55,-6.95 2.55,-7.3 v -0.15 q -0.3,-1.1 -0.3,-3.2"
         fill="#6b6b6b"
         fill-rule="evenodd"
         stroke="none"
         id="path34" />
      <path
         d="m 2.25,-10.65 q 0,2.1 0.3,3.2 v 0.15 q 0,0.35 0.35,0.6 0.3,0.45 0.75,0.45 L 3.9,-6.3 6.6,-6 h 0.75 l 1.15,-0.05 -0.1,1.2 q 0,1.15 0.15,2.25 h -0.2 l 0.1,-0.1 -1.1,-0.05 H 6.6 4 L 3.6,-2.8 Q 2.35,-2.85 2.25,-1.85 L 2,-1.9 1.9,1.95 2.1,5.3 2.05,9.35 V 12.2 H -0.05 -2 V 9.35 L -2.05,5.3 -1.85,1.95 -1.95,-1.9 -2.2,-1.85 q -0.1,-1 -1.35,-0.95 l -0.4,0.05 h -2.6 -0.75 l -1.1,0.05 0.1,0.1 h -0.2 q 0.15,-1.1 0.15,-2.25 l -0.1,-1.2 1.15,0.05 h 0.75 l 2.7,-0.3 0.25,0.05 q 0.45,0 0.75,-0.45 0.35,-0.25 0.35,-0.6 v -0.15 q 0.3,-1.1 0.3,-3.2 l -0.05,-0.95 1.85,0.05 h 0.1 0.25 0.4 l 1.95,-0.05 -0.05,0.95"
         fill="#c0e2e2"
         fill-rule="evenodd"
         stroke="none"
         id="path35" />
    </g>
    <g
       id="sprite9"
       transform="translate(8.5,11.9)">
      <use
         ffdec:characterId="1015"
         height="23.799999"
         transform="translate(-8.5,-11.9)"
         width="17.049999"
         xlink:href="#shape9"
         id="use35" />
    </g>
    <g
       id="shape9"
       transform="translate(8.5,11.9)">
      <path
         d="M 7.35,-6.3 8.5,-6.35 8.4,-5.15 Q 8.4,-4 8.55,-2.9 H 8.35 L 8.45,-3 7.35,-3.05 H 6.6 4 L 3.6,-3.1 Q 2.35,-3.15 2.25,-2.15 L 2,-2.2 1.9,1.65 2.1,5 2.05,9.05 V 11.9 H -0.05 -2 V 9.05 L -2.05,5 -1.85,1.65 -1.95,-2.2 -2.2,-2.15 q -0.1,-1 -1.35,-0.95 l -0.4,0.05 h -2.6 -0.75 l -1.1,0.05 0.1,0.1 h -0.2 q 0.15,-1.1 0.15,-2.25 l -0.1,-1.2 1.15,0.05 h 0.75 l 2.7,-0.3 0.25,0.05 q 0.45,0 0.75,-0.45 0.35,-0.25 0.35,-0.6 v -0.15 q 0.3,-1.1 0.3,-3.2 l -0.05,-0.95 1.85,0.05 h 0.1 0.25 0.4 l 1.95,-0.05 -0.05,0.95 q 0,2.1 0.3,3.2 v 0.15 q 0,0.35 0.35,0.6 0.3,0.45 0.75,0.45 L 3.9,-6.6 6.6,-6.3 h 0.75"
         fill="#99b4b4"
         fill-rule="evenodd"
         stroke="none"
         id="path36" />
    </g>
  </defs>
</svg>
