<?xml version="1.0" encoding="UTF-8" standalone="no"?>
<svg
   ffdec:objectType="frame"
   height="160.799"
   width="91.25"
   version="1.1"
   id="svg11"
   sodipodi:docname="2.svg"
   xmlns:inkscape="http://www.inkscape.org/namespaces/inkscape"
   xmlns:sodipodi="http://sodipodi.sourceforge.net/DTD/sodipodi-0.dtd"
   xmlns:xlink="http://www.w3.org/1999/xlink"
   xmlns="http://www.w3.org/2000/svg"
   xmlns:svg="http://www.w3.org/2000/svg"
   xmlns:ffdec="https://www.free-decompiler.com/flash">
  <sodipodi:namedview
     id="namedview11"
     pagecolor="#ffffff"
     bordercolor="#000000"
     borderopacity="0.25"
     inkscape:showpageshadow="2"
     inkscape:pageopacity="0.0"
     inkscape:pagecheckerboard="0"
     inkscape:deskcolor="#d1d1d1"
     fit-margin-top="5"
     fit-margin-left="5"
     fit-margin-right="5"
     fit-margin-bottom="5" />
  <g
     transform="translate(45.6,90.949)"
     id="g2">
    <use
       ffdec:characterId="2567"
       height="160.8"
       transform="translate(-45.6,-90.95)"
       width="91.25"
       xlink:href="#shape0"
       id="use1" />
    <use
       ffdec:characterId="69"
       height="1.5"
       id="subplatform1"
       transform="matrix(0.0489,0,0.317,0.86,-32.6577,-85.38)"
       width="1320.3"
       xlink:href="#sprite0" />
    <use
       ffdec:characterId="44"
       height="8"
       transform="matrix(0.9009,-0.4339,0.4339,0.9009,8.3493,49.9893)"
       width="10.8"
       xlink:href="#sprite1"
       id="use2" />
  </g>
  <defs
     id="defs11">
    <g
       id="shape0"
       transform="translate(45.6,90.95)">
      <path
         d="m 45.65,-73.25 -0.15,2 q -0.3,1.2 -1,1.7 l -0.3,0.2 h -1.75 l -0.2,0.9 q 0.25,1.05 0.15,2.5 -0.6,4 -0.4,5.55 l 0.1,18.7 h 0.05 L 42.2,-21 v 0.65 12.45 4.65 l 0.05,18.65 v 0.1 0.2 q 0,1.4 -0.05,0 v 20.45 4.05 l 0.05,28 -0.25,0.65 -0.5,0.4 -0.25,0.1 -5.05,0.4 H 23.35 l -0.4,0.1 -0.6,-0.1 L 1.25,69.7 H 0.3 -1.2 l -21.1,0.05 -0.6,0.1 -0.45,-0.1 H -36.2 l -5,-0.4 -0.25,-0.1 -0.55,-0.4 -0.2,-0.65 V -3.25 -7.9 -20.35 -21 l 0.2,-39.4 q 0.2,-1.55 -0.35,-5.55 -0.1,-1.45 0.15,-2.5 l -0.2,-0.9 h -1.75 l -0.3,-0.2 q -0.7,-0.5 -1,-1.7 l -0.15,-2 0.3,-1 q 0.05,-1.05 1.15,-1.05 h 1.6 q 0.1,-4.2 5.15,-7.1 1.8,-1.1 3.25,-1.2 l 0.25,-1.05 q 0.9,-2.5 7.55,-4.45 7.15,-2.15 13.55,-1.8 h 25.65 q 6.4,-0.35 13.55,1.8 6.65,1.95 7.55,4.45 l 0.25,1.05 q 1.45,0.1 3.25,1.2 5.05,2.9 5.15,7.1 h 1.6 q 1.1,0 1.15,1.05 l 0.3,1 m -2.7,0.2 h -7.5 q -1.3,-0.1 -1.6,-0.65 l -4.9,-2.75 -3.55,-1.25 -5.35,-1.2 H 0.1 -0.1 -1.25 -20 l -5.35,1.2 -3.6,1.25 -4.85,2.75 q -0.3,0.55 -1.6,0.65 h -7.5 l 0.05,0.95 0.05,0.55 h 7.95 l 4.75,-2.35 3.9,-2.05 q 2.65,-1.05 10.55,-1.3 H 15.7 q 7.9,0.25 10.5,1.3 l 3.95,2.05 4.7,2.35 H 35 42.85 l 0.05,-0.55 0.05,-0.95 m -74.75,-6.65 -0.25,2.1 v 0.2 l 2.1,-1.1 q 6.15,-3 9.5,-2.6 h 40.9 q 3.4,-0.4 9.55,2.6 l 2.1,1.1 -0.05,-0.2 -0.3,-3.55 v -0.5 l 0.05,-0.75 v -0.65 L 30.7,-84 q -2.7,-2.05 -4.85,-2.6 l -4.8,-1.25 -7.85,-0.45 H 0.5 0.3 -13.2 l -7.8,0.45 -4.8,1.25 q -2.15,0.55 -4.85,2.6 l -1.15,0.95 v 0.65 l 0.05,0.75 -0.05,1.95 m 69.9,4.4 h 2.05 l -0.35,-0.65 -1.3,-2.5 q -0.65,-1.15 -3.6,-2.2 l -0.75,-0.2 -0.05,1.3 -0.05,0.65 -0.1,0.9 0.5,1.55 0.2,0.7 0.6,0.5 0.2,-0.05 H 38.1 M 21.65,63.3 21.6,55.5 V 45.1 2.55 l -0.1,0.1 q -0.45,0.6 -1.8,0.6 -1.35,0 -2.1,-0.9 l -0.4,0.1 H 11.35 L 9.7,2.4 9.45,2.45 9.1,2.2 8.85,2 8.6,1.3 8.65,1 8.35,-1.65 8.2,-5.75 Q 8.2,-6.9 9.25,-6.9 H 9.4 q 0.95,-0.55 4.25,-0.5 l 3.25,0.3 q 0.15,-1.35 0.55,-1 0.4,-0.55 1.6,-0.55 1.4,0 1.7,0.75 l 0.85,0.2 -0.05,-34 H 21.5 L 21.45,-58.6 H 21.4 q -0.4,-2.85 -1.1,-4.05 -0.95,-1.7 -1.7,-2.3 -0.75,-0.65 -2.25,-1.15 L 14.3,-66.7 13,-66.75 H 0.45 L 0,-66.8 -0.4,-66.75 H -13 l -1.25,0.05 -2.05,0.6 q -1.5,0.5 -2.25,1.15 l -1.75,2.3 q -0.95,1.7 -1.25,6.55 v 1.4 h 1.15 q 2.65,0 2.65,0.85 0,0.45 -0.2,0.6 0.25,1.25 0.25,3.8 v 2.3 q -0.15,2.1 -0.8,2.1 l -0.4,-0.2 -2.65,0.25 v 30.1 l 1.15,-0.05 q 2.65,0.05 2.65,0.9 0,0.45 -0.2,0.6 0.25,1.25 0.25,3.8 v 2.3 q -0.15,2.1 -0.8,2.1 l -0.4,-0.2 -2.65,0.25 v 50.9 l 1.15,-0.05 q 2.65,0.05 2.65,0.85 l -0.2,0.65 q 0.25,1.2 0.25,3.75 v 2.35 q -0.15,2.05 -0.8,2.05 l -0.4,-0.2 -2.65,0.25 v 4.9 h -0.05 v 3.05 l -0.05,3.8 h 20.4 V 67.05 H 0 1.25 v 0.05 h 20.4 v -3.8 m -38.45,0 -0.5,-0.45 q -0.25,-0.5 0.35,-0.65 h 0.05 L -8.45,62 h 15.8 l 10.2,-0.05 h 0.9 0.2 q 1,0.05 1.1,0.6 v 0.1 l -0.2,0.6 -0.1,0.05 H -16.8 m -0.2,-4.6 -0.3,-0.3 q -0.25,-0.55 0.4,-0.65 l 8.45,-0.2 H 0.1 l 0.6,0.05 h 6.65 q 9.7,-0.2 11.3,-0.1 1.1,0.05 1.1,0.7 v 0.25 l -0.2,0.35 -0.2,0.15 -0.95,0.1 -17.7,-0.2 -0.6,0.05 h -8.55 l -7.45,0.2 h -0.05 q -0.65,0 -1.05,-0.4 m -7.1,4.6 v -3.05 h -0.1 l 0.05,-5.9 -0.1,-8.75 v -0.2 h 0.15 V -0.35 h -0.1 l 0.05,-5.9 -0.1,-8.7 v -0.2 h 0.15 v -7.65 h -0.05 v -18.9 h -0.05 l 0.05,-4.3 -0.1,-8.75 v -0.2 q -0.1,-2.45 0.8,-5.55 0.85,-3.35 2.25,-5 1.4,-1.7 3.7,-2.55 l 1.1,-0.45 3.4,-0.55 H -0.4 0 0.45 13 l 3.45,0.55 1.05,0.45 q 2.35,0.85 3.75,2.55 1.4,1.65 2.25,5 0.95,3.25 0.8,5.75 l -0.1,8.75 0.05,4.3 -0.05,34.6 1.05,0.2 q 1.1,0.4 1.1,1.85 l -0.2,4.25 -0.05,1.05 q -0.25,0.7 -1.55,1 L 24.2,1.45 V 40.2 l -0.05,23.1 v 3.8 l 4.8,-0.05 -0.2,-3.75 -0.05,-0.8 V 55.9 L 28.8,40.2 V 40 l 0.15,-102.7 0.1,-1.25 v -5.25 -2.95 L 28.1,-72.7 q -5.8,-2.95 -12.4,-2.2 h -31.35 q -6.6,-0.75 -12.4,2.2 -0.15,0.05 -1,0.55 v 3.55 4.65 l 0.1,1.25 0.2,102.7 v 0.2 l 0.1,15.7 v 6.6 0.8 l -0.3,3.75 4.85,0.05 v -3.8 m 9.35,-117.7 q -0.7,-0.25 -0.7,-0.8 0,-0.75 0.75,-0.75 L 17.6,-56 q 0.85,0.3 0.85,0.85 0,0.5 -0.85,0.8 h -0.4 l -31.95,-0.05 m 54.7,-12.05 v -0.95 l -0.05,-0.75 -0.05,-1.1 v -0.1 H 37.5 l -0.1,0.7 -0.1,0.15 v 2.05 32.65 l -0.05,0.6 v 44.1 3.65 0.85 0.1 0.2 6 0.6 0.9 1.95 l 0.05,7.65 v 0.5 1.4 0.6 0.85 4.05 h 0.05 L 37.4,43 v 20.3 3.75 h 2.2 V 63.3 L 39.65,16.1 Q 39.6,17.5 39.6,15.7 V 15.5 15.4 15.15 L 39.65,-3.3 v -4.5 -12.6 -0.5 l 0.2,-44.8 0.1,-0.75 m -4.75,-2.9 H 35 l -0.4,-0.15 v 1.8 70.6 l 0.05,0.15 V 40.2 h 0.05 l 0.05,26.85 h 0.6 L 35.1,63.3 35.05,62.45 V 55.6 l 0.15,-89 -0.05,-0.6 v -35.25 l 0.05,-0.1 m -4.75,0.7 v 0.15 l 0.1,5.75 0.2,102.65 v 0.3 l 0.1,15.65 v 6.55 0.9 l -0.35,3.75 h 2.25 V 66.85 63.3 L 32.8,40.2 h 0.05 V 3.15 L 32.9,3 v -8.25 l 0.05,-0.15 v -62.2 -0.25 l -0.1,-2.25 q -0.5,-0.2 -1.05,-0.5 l -1.15,-0.65 -0.2,2.6 m -47.4,49.6 h 0.05 l 8.45,-0.2 h 15.8 l 11.3,-0.05 1,0.35 0.1,0.35 -0.2,0.6 -0.3,0.15 -0.85,0.05 -17.7,-0.15 -0.6,0.05 h -8.55 l -7.45,0.15 q -0.85,0.05 -1.35,-0.55 l -0.05,-0.1 q -0.25,-0.5 0.35,-0.65 m 35.35,12.4 -0.2,-0.05 0.05,0.15 0.05,0.05 0.05,0.25 0.15,0.45 0.2,3.6 0.15,1.85 0.1,1.35 v 0.05 l 0.9,-0.2 0.4,-0.65 0.05,-0.05 -0.4,-3.9 0.2,-2.5 v -0.2 l -0.3,-0.2 H 19 18.4 M 16.75,-2.2 V -2.55 -3.2 -4.1 -4.45 L 16.8,-4.8 v -0.5 l -1.35,0.1 -3.1,0.05 h -0.6 -1.2 v 3 2.3 0.05 h 0.15 l 0.5,0.05 h 0.15 0.8 4.7 l -0.1,-2.45 m 4,-4.05 0.3,2.4 0.05,0.6 0.3,2.8 0.4,-0.1 q 2.1,-0.5 2.2,-1.15 l 0.2,-3.2 q 0,-0.5 -2.6,-1.1 l -0.55,-0.15 -0.3,-0.1 m -34.85,17.4 -0.4,-0.1 q -0.6,-0.2 -0.6,-0.75 0,-0.4 0.9,-0.5 l 3.7,-0.1 h 27.35 q 0.8,0.3 0.8,0.85 v 0.1 l -0.8,0.65 -27.35,0.05 -3.6,-0.2 M -34.05,-79.4 v -0.15 l -0.05,-1.3 -0.8,0.2 q -2.95,1.05 -3.55,2.2 l -1.3,2.5 -0.35,0.65 h 1.6 3.1 l 0.2,0.05 0.55,-0.5 0.25,-0.7 0.5,-1.55 -0.15,-1.4 m -0.9,10.05 h -0.2 l 0.05,0.1 V -34 l -0.05,0.6 0.15,66.7 v 22.3 6.85 0.85 l -0.3,3.75 h 0.55 L -34.7,40.2 h 0.05 V 3.05 L -34.6,2.9 v -8.25 l 0.05,-0.15 v -62.2 l -0.05,-1.8 q -0.2,0.1 -0.35,0.15 m 4.5,1.5 v -0.65 l -0.15,-2.75 q -0.55,0.3 -1.2,0.65 l -1,0.5 -0.1,2.5 v 0.7 61.5 l 0.05,0.15 V 3 l 0.05,0.15 V 40.2 h 0.05 l 0.05,23.1 v 3.55 0.2 h 2.2 l -0.25,-3.75 -0.05,-0.9 v -6.55 l 0.1,-15.65 v -0.3 l 0.15,-102.65 0.1,-5.1 m -6.8,0.95 v -1.6 l -0.2,-0.85 h -2.35 v 0.1 l -0.05,2.15 0.05,1.4 0.1,24 h 0.05 l 0.05,20.8 v 0.5 12.6 4.5 l 0.05,18.7 v 0.1 0.2 q 0,1.8 -0.05,0.4 l 0.05,47.2 v 3.75 h 2.2 V 63.3 43 l 0.05,-2.8 h 0.05 l 0.05,-4.05 V 35.3 34.7 33.3 32.8 25.15 23.2 22.3 21.7 15.7 15.5 15.4 14.55 10.9 -33.2 l -0.05,-0.6 v -33.1 m 18,17.35 0.05,-3.45 -1.2,0.05 -1.15,-0.05 v 6.05 h 1.15 l 1.15,0.15 v -2.75 m 0,39.8 0.05,-3.45 -1.2,0.05 -1.15,-0.05 v 6.05 h 1.15 l 1.15,0.15 v -2.75 m -2.3,57.15 v 6 h 1.15 l 1.15,0.15 V 50.8 l 0.05,-3.4 -1.2,0.05 -1.15,-0.05"
         fill="#747474"
         fill-rule="evenodd"
         stroke="none"
         id="path2" />
      <path
         d="m 42.95,-73.05 -0.05,0.95 -0.05,0.55 H 35 34.85 l -4.7,-2.35 -3.95,-2.05 Q 23.6,-77 15.7,-77.25 h -31.35 q -7.9,0.25 -10.55,1.3 l -3.9,2.05 -4.75,2.35 h -7.95 l -0.05,-0.55 -0.05,-0.95 h 7.5 q 1.3,-0.1 1.6,-0.65 l 4.85,-2.75 3.6,-1.25 5.35,-1.2 h 18.75 1.15 0.2 19.95 l 5.35,1.2 3.55,1.25 4.9,2.75 q 0.3,0.55 1.6,0.65 h 7.5 m -74.75,-6.65 0.05,-1.95 -0.05,-0.75 v -0.65 l 1.15,-0.95 q 2.7,-2.05 4.85,-2.6 l 4.8,-1.25 7.8,-0.45 H 0.3 0.5 13.2 l 7.85,0.45 4.8,1.25 q 2.15,0.55 4.85,2.6 l 1.1,0.95 v 0.65 l -0.05,0.75 v 0.5 L 31.1,-81 q -0.45,0 -2.7,-1.5 l -2.8,-1.7 -3.1,-0.5 -4.35,-0.7 -5,-0.05 -6.8,-0.55 h -15 l -11.2,0.8 -5.45,1.3 -3.25,2.2 -2.95,2 h -0.3 m 65.85,0.8 0.05,-0.65 0.05,-1.3 0.75,0.2 q 2.95,1.05 3.6,2.2 l 1.3,2.5 0.35,0.65 H 38.1 L 37,-77.1 q -0.9,-1.3 -2.55,-1.7 l -0.4,-0.1 m -72.55,3.6 h -1.6 l 0.35,-0.65 1.3,-2.5 q 0.6,-1.15 3.55,-2.2 l 0.8,-0.2 0.05,1.3 v 0.15 l -2.45,2.3 -2,1.8"
         fill="#ffffff"
         fill-rule="evenodd"
         stroke="none"
         id="path3" />
      <path
         d="m 31.75,-81.15 0.3,3.55 0.05,0.2 -2.1,-1.1 q -6.15,-3 -9.55,-2.6 h -40.9 q -3.35,-0.4 -9.5,2.6 l -2.1,1.1 v -0.2 l 0.25,-2.1 h 0.3 l 2.95,-2 3.25,-2.2 5.45,-1.3 11.2,-0.8 h 15 l 6.8,0.55 5,0.05 4.35,0.7 3.1,0.5 2.8,1.7 q 2.25,1.5 2.7,1.5 l 0.65,-0.15 m 6.35,5.85 h -2.65 l -0.2,0.05 -0.6,-0.5 -0.2,-0.7 -0.5,-1.55 0.1,-0.9 0.4,0.1 q 1.65,0.4 2.55,1.7 l 1.1,1.8 m -76.6,0 2,-1.8 2.45,-2.3 0.15,1.4 -0.5,1.55 -0.25,0.7 -0.55,0.5 -0.2,-0.05 h -3.1"
         fill="#e0e0e0"
         fill-rule="evenodd"
         stroke="none"
         id="path4" />
      <path
         d="m 12.15,0.25 0.15,-1.15 0.05,-1.35 2.95,0.15 1.45,-0.1 0.1,2.45 h -4.7"
         fill="#c4c4c4"
         fill-rule="evenodd"
         stroke="none"
         id="path5" />
      <path
         d="m 18.3,-6.5 0.1,-0.15 h 0.6 0.8 l 0.3,0.2 v 0.2 l -0.2,2.5 0.4,3.9 -0.05,0.05 -0.4,0.65 -0.9,0.2 V 1 L 18.85,-0.35 18.7,-2.2 18.5,-5.8 18.35,-6.25 18.3,-6.5 M 12.15,0.25 H 11.35 11.2 L 10.7,0.2 h -0.15 v -0.05 -2.3 -3 h 1.2 0.6 l 3.1,-0.05 1.35,-0.1 v 0.5 l -0.05,0.35 v 0.35 0.9 0.65 0.35 L 15.3,-2.1 12.35,-2.25 12.3,-0.9 12.15,0.25 m 8.6,-6.5 0.3,0.1 0.55,0.15 q 2.6,0.6 2.6,1.1 L 24,-1.7 q -0.1,0.65 -2.2,1.15 l -0.4,0.1 -0.3,-2.8 -0.05,-0.6 -0.3,-2.4"
         fill="#b1b1b1"
         fill-rule="evenodd"
         stroke="none"
         id="path6" />
      <path
         d="m -21.6,63.3 v -3.05 h 0.05 v -4.9 l 2.65,-0.25 0.4,0.2 q 0.65,0 0.8,-2.05 V 50.9 q 0,-2.55 -0.25,-3.75 l 0.2,-0.65 q 0,-0.8 -2.65,-0.85 l -1.15,0.05 V -5.2 l 2.65,-0.25 0.4,0.2 q 0.65,0 0.8,-2.1 v -2.3 q 0,-2.55 -0.25,-3.8 0.2,-0.15 0.2,-0.6 0,-0.85 -2.65,-0.9 l -1.15,0.05 V -45 l 2.65,-0.25 0.4,0.2 q 0.65,0 0.8,-2.1 v -2.3 q 0,-2.55 -0.25,-3.8 0.2,-0.15 0.2,-0.6 0,-0.85 -2.65,-0.85 h -1.15 v -1.4 q 0.3,-4.85 1.25,-6.55 l 1.75,-2.3 q 0.75,-0.65 2.25,-1.15 l 2.05,-0.6 1.25,-0.05 H -0.4 L 0,-66.8 0.45,-66.75 H 13 l 1.3,0.05 2.05,0.6 q 1.5,0.5 2.25,1.15 0.75,0.6 1.7,2.3 0.7,1.2 1.1,4.05 h 0.05 l 0.05,16.9 h 0.05 l 0.05,34 -0.85,-0.2 q -0.3,-0.75 -1.7,-0.75 -1.2,0 -1.6,0.55 -0.4,-0.35 -0.55,1 L 13.65,-7.4 Q 10.35,-7.45 9.4,-6.9 H 9.25 Q 8.2,-6.9 8.2,-5.75 L 8.35,-1.65 8.65,1 8.6,1.3 8.85,2 9.1,2.2 9.45,2.45 9.7,2.4 11.35,2.45 h 5.85 l 0.4,-0.1 q 0.75,0.9 2.1,0.9 1.35,0 1.8,-0.6 l 0.1,-0.1 V 45.1 55.5 l 0.05,7.8 h -2.2 l 0.1,-0.05 0.2,-0.6 v -0.1 L 19.8,62.45 20.1,61.5 20,60.25 20.15,59.5 q 0,-0.7 -0.4,-1.05 V 58.2 q 0,-0.65 -1.1,-0.7 -1.6,-0.1 -11.3,0.1 H 0.7 L 0.1,57.55 h -8.55 l -8.45,0.2 q -0.65,0.1 -0.4,0.65 l 0.3,0.3 q -0.45,0.35 -0.45,0.85 v 0.15 l -0.35,1.05 q 0,1.05 0.85,1.45 -0.6,0.15 -0.35,0.65 l 0.5,0.45 h -4.8 m 45.75,0 0.05,-23.1 V 1.45 l 0.35,-0.2 q 1.3,-0.3 1.55,-1 l 0.05,-1.05 0.2,-4.25 q 0,-1.45 -1.1,-1.85 l -1.05,-0.2 0.05,-34.6 -0.05,-4.3 0.1,-8.75 q 0.15,-2.5 -0.8,-5.75 -0.85,-3.35 -2.25,-5 -1.4,-1.7 -3.75,-2.55 L 16.45,-68.5 13,-69.05 H 0.45 0 -0.4 -13 l -3.4,0.55 -1.1,0.45 q -2.3,0.85 -3.7,2.55 -1.4,1.65 -2.25,5 -0.9,3.1 -0.8,5.55 v 0.2 l 0.1,8.75 -0.05,4.3 h 0.05 v 18.9 h 0.05 v 7.65 h -0.15 v 0.2 l 0.1,8.7 -0.05,5.9 h 0.1 V 45.4 h -0.15 v 0.2 l 0.1,8.75 -0.05,5.9 h 0.1 v 3.05 h -4.55 v -0.8 -6.6 l -0.1,-15.7 V 40 l -0.2,-102.7 -0.1,-1.25 v -4.65 l 2.5,-1.55 q 3.6,-2.3 9.1,-2.1 h 34.4 l 5.7,0.85 q 2,0.25 4.8,1.5 l 1.6,0.7 v 5.25 L 28.95,-62.7 28.8,40 v 0.2 l -0.1,15.7 v 6.6 l 0.05,0.8 h -4.6 m -38.9,-117.7 q -0.55,0.5 -0.55,1.35 0,0.7 0.35,1 0.55,0.5 2.1,0.45 h 7.4 l 4.1,0.25 3.3,0.25 H 9 q 1.15,-0.2 5.55,-0.05 3.9,-0.1 3.9,-1.6 0,-1.1 -1.1,-1.55 l -0.15,-0.05 h 0.4 q 0.85,-0.3 0.85,-0.8 0,-0.55 -0.85,-0.85 l -32.3,0.05 q -0.75,0 -0.75,0.75 0,0.55 0.7,0.8 m 54.7,-12.05 -0.1,0.75 -0.2,44.8 v 0.5 12.6 4.5 L 39.6,15.15 v 0.25 0.1 0.2 q 0,1.8 0.05,0.4 L 39.6,63.3 H 37.4 V 43 L 37.35,40.2 H 37.3 V 36.15 35.3 34.7 33.3 32.8 l -0.05,-7.65 v -1.95 -0.9 -0.6 -6 -0.2 -0.1 -0.85 -3.65 -44.1 l 0.05,-0.6 v -32.65 l 1.2,0.1 1.45,-0.1 M 30.85,63.3 V 62.4 55.85 L 30.75,40.2 v -0.3 l -0.2,-102.65 -0.1,-5.75 v -0.15 l 2.5,0.8 v 0.25 62.2 L 32.9,-5.25 V 3 L 32.85,3.15 V 40.2 H 32.8 l -0.05,23.1 h -1.9 m -11.2,-82.25 0.1,-0.65 q 0,-1.65 -1.7,-1.8 H -15.4 q -1.7,0.5 -1.7,1.75 l 0.15,0.6 q -0.6,0.15 -0.35,0.65 l 0.05,0.1 q -0.55,0.4 -0.55,1.25 0,1.95 4.2,1.9 h 12 l 0.65,-0.15 H 6.8 l 2.8,0.3 6.6,0.05 2.45,0.2 q 0.6,0 1.1,-0.5 l 0.45,-1.05 q 0,-0.7 -0.65,-1.3 l -0.3,-0.25 0.3,-0.15 0.2,-0.6 -0.1,-0.35 m -2,29.6 v -0.1 Q 17.65,10 16.85,9.7 H -10.5 l -3.7,0.1 q -0.9,0.1 -0.9,0.5 0,0.55 0.6,0.75 l 0.4,0.1 q -0.8,0.6 -0.8,1.5 l 0.2,0.7 q 0.45,0.7 1.65,0.7 l 2.1,-0.3 7.65,-0.4 h 5.15 l 0.65,0.15 12.5,0.1 2.05,0.2 q 0.95,0 1.4,-0.5 l 0.35,-0.85 q 0,-1.2 -1.15,-1.8 M -32.9,-66.9 h 0.2 q 0.8,-0.15 2.25,-0.95 l -0.1,5.1 -0.15,102.65 v 0.3 l -0.1,15.65 v 6.55 l 0.05,0.9 H -32.7 L -32.75,40.2 H -32.8 V 3.15 L -32.85,3 V -5.25 L -32.9,-5.4 v -61.5 m -6.95,-0.2 0.65,0.2 h 1.95 v 33.1 l 0.05,0.6 v 44.1 3.65 0.85 0.1 0.2 6 0.6 0.9 1.95 7.65 0.5 1.4 0.6 0.85 l -0.05,4.05 h -0.05 l -0.05,2.8 v 20.3 h -2.2 L -39.6,16.1 q 0.05,1.4 0.05,-0.4 V 15.5 15.4 L -39.6,-3.3 v -4.5 -12.6 -0.5 l -0.05,-20.8 h -0.05 l -0.1,-24 -0.05,-1.4"
         fill="#8ea1a2"
         fill-rule="evenodd"
         stroke="none"
         id="path7" />
      <path
         d="m 17.2,-54.35 0.15,0.05 q 1.1,0.45 1.1,1.55 0,1.5 -3.9,1.6 Q 10.15,-51.3 9,-51.1 H 1.95 l -3.3,-0.25 -4.1,-0.25 h -7.4 q -1.55,0.05 -2.1,-0.45 -0.35,-0.3 -0.35,-1 0,-0.85 0.55,-1.35 l 31.95,0.05 m 2.05,36.5 0.3,0.25 q 0.65,0.6 0.65,1.3 l -0.45,1.05 q -0.5,0.5 -1.1,0.5 L 16.2,-14.95 9.6,-15 6.8,-15.3 h -7.75 l -0.65,0.15 h -12 q -4.2,0.05 -4.2,-1.9 0,-0.85 0.55,-1.25 0.5,0.6 1.35,0.55 l 7.45,-0.15 H 0.1 l 0.6,-0.05 17.7,0.15 0.85,-0.05 m -1.6,28.5 q 1.15,0.6 1.15,1.8 L 18.45,13.3 Q 18,13.8 17.05,13.8 L 15,13.6 2.5,13.5 1.85,13.35 H -3.3 l -7.65,0.4 -2.1,0.3 q -1.2,0 -1.65,-0.7 l -0.2,-0.7 q 0,-0.9 0.8,-1.5 l 3.6,0.2 27.35,-0.05 0.8,-0.65 m -39.2,36.75 1.15,0.05 1.2,-0.05 -0.05,3.4 v 2.75 L -20.4,53.4 h -1.15 v -6 m 2.3,-57.15 V -7 l -1.15,-0.15 h -1.15 v -6.05 l 1.15,0.05 1.2,-0.05 -0.05,3.45 m 0,-39.8 v 2.75 l -1.15,-0.15 h -1.15 V -53 l 1.15,0.05 1.2,-0.05 -0.05,3.45"
         fill="#a2b8b9"
         fill-rule="evenodd"
         stroke="none"
         id="path8" />
      <path
         d="m 21.65,63.3 v 3.8 H 1.25 V 67.05 H 0 -1.25 v 0.05 h -20.4 l 0.05,-3.8 h 4.8 36.25 2.2 m -38.6,-1.1 q -0.85,-0.4 -0.85,-1.45 l 0.35,-1.05 v -0.15 q 0,-0.5 0.45,-0.85 0.4,0.4 1.05,0.4 h 0.05 l 7.45,-0.2 H 0.1 l 0.6,-0.05 17.7,0.2 0.95,-0.1 0.2,-0.15 0.2,-0.35 q 0.4,0.35 0.4,1.05 l -0.15,0.75 0.1,1.25 -0.3,0.95 -0.05,0.1 q -0.1,-0.55 -1.1,-0.6 h -0.2 -0.9 L 7.35,62 h -15.8 l -8.45,0.2 h -0.05 m 41.1,1.1 h 4.6 l 0.2,3.75 -4.8,0.05 v -3.8 m 4.9,-132.5 -1.6,-0.7 q -2.8,-1.25 -4.8,-1.5 l -5.7,-0.85 h -34.4 q -5.5,-0.2 -9.1,2.1 l -2.5,1.55 v -3.55 q 0.85,-0.5 1,-0.55 5.8,-2.95 12.4,-2.2 H 15.7 q 6.6,-0.75 12.4,2.2 l 0.95,0.55 v 2.95 m -57.7,132.5 h 4.55 v 3.8 l -4.85,-0.05 0.3,-3.75 M 37.3,-66.45 v -2.05 l 0.1,-0.15 0.1,-0.7 h 2.35 v 0.1 l 0.05,1.1 0.05,0.75 v 0.95 l -1.45,0.1 -1.2,-0.1 M 39.6,63.3 v 3.75 H 37.4 V 63.3 h 2.2 m -4.4,-132.65 -0.05,0.1 V -34 l 0.05,0.6 -0.15,89 v 6.85 l 0.05,0.85 0.25,3.75 h -0.6 L 34.7,40.2 H 34.65 V 3.05 L 34.6,2.9 v -70.6 -1.8 l 0.4,0.15 h 0.2 m -4.75,0.7 0.2,-2.6 1.15,0.65 q 0.55,0.3 1.05,0.5 l 0.1,2.25 -2.5,-0.8 m 2.3,131.95 v 3.55 0.2 H 30.5 l 0.35,-3.75 h 1.9 m -49.7,-82.35 -0.15,-0.6 q 0,-1.25 1.7,-1.75 h 33.45 q 1.7,0.15 1.7,1.8 l -0.1,0.65 -1,-0.35 -11.3,0.05 h -15.8 l -8.45,0.2 h -0.05 M -32.9,-66.9 v -0.7 l 0.1,-2.5 1,-0.5 q 0.65,-0.35 1.2,-0.65 l 0.15,2.75 v 0.65 q -1.45,0.8 -2.25,0.95 h -0.2 m -2.05,-2.45 q 0.15,-0.05 0.35,-0.15 l 0.05,1.8 v 62.2 l -0.05,0.15 V 2.9 l -0.05,0.15 V 40.2 h -0.05 l -0.05,26.85 H -35.3 L -35,63.3 V 62.45 55.6 33.3 l -0.15,-66.7 0.05,-0.6 v -35.25 l -0.05,-0.1 h 0.2 m 4.2,132.65 0.25,3.75 h -2.2 v -0.2 -3.55 h 1.95 m -9.1,-130.4 0.05,-2.15 v -0.1 h 2.35 l 0.2,0.85 v 1.6 h -1.95 l -0.65,-0.2 m 2.5,130.4 v 3.75 h -2.2 V 63.3 h 2.2"
         fill="#7a8c8d"
         fill-rule="evenodd"
         stroke="none"
         id="path9" />
    </g>
    <g
       id="sprite0"
       transform="translate(660.25,0.5)">
      <use
         ffdec:characterId="68"
         height="1.5"
         transform="translate(-660.25,-0.5)"
         width="1320.3"
         xlink:href="#shape1"
         id="use9" />
    </g>
    <g
       id="shape1"
       transform="translate(660.25,0.5)">
      <path
         d="m 659.3,-0.5 0.55,0.25 0.2,0.5 -0.2,0.55 L 659.3,1 H -659.5 l -0.5,-0.2 -0.25,-0.55 0.25,-0.5 0.5,-0.25 H 659.3"
         fill="#ffff00"
         fill-opacity="0"
         fill-rule="evenodd"
         stroke="none"
         id="path10" />
    </g>
    <g
       id="sprite1"
       transform="translate(5.4,4)">
      <use
         ffdec:characterId="43"
         height="8"
         transform="translate(-5.4,-4)"
         width="10.8"
         xlink:href="#shape2"
         id="use10" />
    </g>
    <g
       id="shape2"
       transform="translate(5.4,4)">
      <path
         d="m 2.9,-0.35 q 0,-1.25 1.25,-1.25 1.25,0 1.25,1.2 0,1.3 -1.25,1.3 Q 3.6,0.9 3.25,0.5 2.9,0.15 2.9,-0.35 m 0.35,-2.3 q 0,0.55 -0.35,0.9 -0.4,0.45 -1,0.45 -1.35,0 -1.35,-1.4 0,-1.3 1.35,-1.3 1.35,0 1.35,1.35 m -3.1,1.9 h 0.2 q 2.6,0.1 2.6,2.8 l -0.3,1 Q 2.05,4 0.45,4 H 0.35 0.15 0.1 -0.45 q -1.6,0 -2.2,-0.95 l -0.3,-1 q 0,-2.8 2.8,-2.8 h 0.3 M -1.55,-4 q 1.35,0 1.35,1.35 0,0.55 -0.4,0.9 -0.4,0.45 -0.95,0.45 -1.4,0 -1.4,-1.4 0,-1.3 1.4,-1.3 m -2.6,2.4 q 1.25,0 1.25,1.25 0,0.5 -0.35,0.85 -0.35,0.4 -0.9,0.4 -1.25,0 -1.25,-1.3 0,-1.2 1.25,-1.2"
         fill="#6b6b6b"
         fill-rule="evenodd"
         stroke="none"
         id="path11" />
    </g>
  </defs>
</svg>
