<?xml version="1.0" encoding="UTF-8" standalone="no"?>
<svg
   ffdec:objectType="frame"
   height="23.65625"
   width="47.25"
   version="1.1"
   id="svg6"
   sodipodi:docname="1.svg"
   xmlns:inkscape="http://www.inkscape.org/namespaces/inkscape"
   xmlns:sodipodi="http://sodipodi.sourceforge.net/DTD/sodipodi-0.dtd"
   xmlns:xlink="http://www.w3.org/1999/xlink"
   xmlns="http://www.w3.org/2000/svg"
   xmlns:svg="http://www.w3.org/2000/svg"
   xmlns:ffdec="https://www.free-decompiler.com/flash">
  <sodipodi:namedview
     id="namedview6"
     pagecolor="#ffffff"
     bordercolor="#000000"
     borderopacity="0.25"
     inkscape:showpageshadow="2"
     inkscape:pageopacity="0.0"
     inkscape:pagecheckerboard="0"
     inkscape:deskcolor="#d1d1d1"
     fit-margin-top="5"
     fit-margin-left="5"
     fit-margin-right="5"
     fit-margin-bottom="5" />
  <g
     transform="translate(23.65,11.8)"
     id="g1">
    <use
       ffdec:characterId="2397"
       height="23.65"
       transform="translate(-23.65,-11.8)"
       width="47.25"
       xlink:href="#shape0"
       id="use1" />
  </g>
  <defs
     id="defs6">
    <g
       id="shape0"
       transform="translate(23.65,11.8)">
      <path
         d="M 9.1,-7.25 V -7.3 H 13 q 0.6,0.35 2.05,2.9 1.5,2.55 1.5,3.25 L 16.3,1.1 V 1.05 l -0.05,0.1 -0.3,0.55 -0.6,1.25 0.25,-0.25 q 2.5,-2.1 2.5,1.8 0,1.1 -0.35,2.05 V 6.6 h 0.15 l 0.3,-0.7 0.45,-1.45 q -0.15,-3.55 -1,-6.8 -1.7,-6.4 -5.25,-6.4 -6.3,0 -10.4,4.45 -3.6,3.9 -3.6,8.5 0,0.8 1.75,2.15 L 0.5,6.6 H 1.75 Q 0.8,5.6 -0.4,3.85 q 0,-3.1 2.1,-5.9 2.5,-3.3 7.4,-5.2 M 2.8,-1.3 Q 0.75,1.2 0.75,3.7 L 2.5,5.25 4,6.65 13.95,6.7 14,6.6 h 1.5 v 0.1 h 0.2 V 6.6 h 0.65 L 16.4,6.55 17.3,5.5 V 3.25 L 17.15,2.95 Q 16.3,3.3 15.35,4.25 L 13.4,5.95 H 13.15 V 5.9 L 13,6 q -0.35,-0.1 -0.35,-0.5 0,-0.25 1.3,-1.9 L 15.25,2.05 15.2,1.8 15.5,0.9 15.8,-0.2 q 0,-1.1 -1.15,-3.25 L 13,-6.35 9.2,-6.2 Q 5,-4.1 2.8,-1.3 m -3.85,-2.5 0.15,-0.25 0.1,-0.15 q 1.15,-1.45 2.6,-2.6 2.85,-2.35 6.95,-3.4 l 0.55,-0.15 -0.6,0.05 q -7.65,0.25 -12,2.35 -1.5,0.75 -4,3.1 v 0.05 l -1.6,1.55 -0.1,0.1 -2.15,1.9 q -1.75,1.8 -1.75,3.45 0,2.15 1.85,3.8 l 0.65,0.6 h 3.95 0.45 0.35 l 1.1,0.05 V 6.6 h 1.9 Q -3.45,5.4 -3.85,4.2 V 4.15 H -5.7 L -6.25,3.75 -6.3,3.4 -3.8,3.25 -3.75,2.8 H -4.5 q -0.8,0 -1,-0.3 0.6,-0.6 1.55,-0.7 l 0.3,-0.15 h 0.1 q 0.55,-2.8 2.5,-5.45 m 9.5,0.75 2.2,-0.15 1.7,0.75 0.85,1.3 0.05,1.15 q 0,3.85 -4.45,3.85 -2.25,0 -2.7,-1.05 L 6.05,1.6 q 0,-1.25 0.5,-2.2 0.5,-1.05 1.9,-2.45 m 3.95,-8.65 q 3.9,1.05 5.85,5.3 1.9,4.15 1.9,7.1 l 0.05,0.85 0.25,2.3 -0.3,2.85 h 2.4 l 0.15,0.05 q 0.9,0.35 0.9,0.9 L 23.35,8.2 v 0.1 q 0,0.5 -0.6,1.35 -0.65,1 -1.35,1 L 21.05,10.9 H 16.1 l -0.3,0.65 q -0.35,0.35 -0.7,0.3 H -9.75 q -0.95,-0.4 -1,-0.95 h -5.15 q -1.9,-0.75 -2.45,-1.3 -0.4,-0.4 -0.4,-1.2 V 8.3 L -19,7.65 q 0,-0.6 0.6,-0.9 L -18,6.6 h 4.3 L -13.8,6.45 Q -14.7,5 -14.7,3.85 l 0.05,-1.9 -1.35,-0.1 q 0,2.65 -2.55,2.65 -1.65,0 -2.6,-1.2 l -0.7,-1.2 q 0,-1.1 0.55,-1.8 -1.3,-0.35 -1.9,-1.4 -0.45,-0.8 -0.45,-1.75 0,-3.1 3.55,-3.75 3.5,-0.65 3.5,1.95 l -0.1,1.05 1.9,-0.1 3.25,0.2 1.8,-1.5 q 2.7,-2.95 4.9,-4.15 3.7,-2.1 13.05,-2.65 l 4.6,0.3 -0.4,-0.2 m -1.35,10.9 -1,0.6 q -1,0.7 -1.15,1.35 l 0.05,0.15 1.2,-0.65 1,-0.8 0.3,0.45 -0.85,1.15 Q 9.7,2.2 9.1,2.2 8.05,2.2 8.05,1.45 8.05,0.35 8.4,0 8.9,-0.45 11,-1.1 l 0.05,0.3 M 9.6,-1.75 Q 7,-1 7,1.6 L 7.1,2.35 8.8,2.7 q 3.4,0 3.4,-2.75 0,-2.5 -2.6,-1.7 M 21.65,8.65 H -16.3 l 0.75,0.6 h 36.6 l 0.1,0.05 0.5,-0.65 m -42.2,-10.4 q 1.15,0.4 1.35,1 0.35,0.05 0.35,0.6 l -0.65,0.9 -0.7,1.05 0.8,0.75 q 0.75,0.4 1.1,0.4 0.75,0 0.8,-1.25 l 0.15,-0.85 0.4,-0.45 1.65,-0.15 0.75,0.05 0.1,-0.65 1.25,-1.55 -4.45,0.05 q -1.05,0 -1.05,-0.8 V -2.7 -2.85 l 0.3,-0.55 0.3,-0.55 q 0,-1.05 -0.65,-1.05 -2.1,0 -2.9,1.05 l -0.35,1.1 q 0,0.65 1.45,1.1"
         fill="#6b6b6b"
         fill-rule="evenodd"
         stroke="none"
         id="path1" />
      <path
         d="m 9.1,-7.25 q -4.9,1.9 -7.4,5.2 -2.1,2.8 -2.1,5.9 Q 0.8,5.6 1.75,6.6 H 0.5 L 0.15,6.35 Q -1.6,5 -1.6,4.2 q 0,-4.6 3.6,-8.5 4.1,-4.45 10.4,-4.45 3.55,0 5.25,6.4 0.85,3.25 1,6.8 L 18.2,5.9 17.9,6.6 H 17.75 V 6.55 Q 18.1,5.6 18.1,4.5 18.1,0.6 15.6,2.7 l -0.25,0.25 0.6,-1.25 0.3,-0.55 0.05,-0.1 V 1.1 l 0.25,-2.25 q 0,-0.7 -1.5,-3.25 Q 13.6,-6.95 13,-7.3 H 9.1 v 0.05 m 0.5,5.5 q 2.6,-0.8 2.6,1.7 0,2.75 -3.4,2.75 L 7.1,2.35 7,1.6 Q 7,-1 9.6,-1.75 M 11.05,-0.8 11,-1.1 Q 8.9,-0.45 8.4,0 8.05,0.35 8.05,1.45 q 0,0.75 1.05,0.75 0.6,0 1.5,-0.75 l 0.85,-1.15 -0.3,-0.45 -1,0.8 L 8.95,1.3 8.9,1.15 Q 9.05,0.5 10.05,-0.2 l 1,-0.6 m -31.6,-0.95 Q -22,-2.2 -22,-2.85 l 0.35,-1.1 q 0.8,-1.05 2.9,-1.05 0.65,0 0.65,1.05 l -0.3,0.55 -0.3,0.55 v 0.15 0.05 q 0,0.8 1.05,0.8 l 4.45,-0.05 -1.25,1.55 -0.1,0.65 -0.75,-0.05 -1.65,0.15 -0.4,0.45 -0.15,0.85 q -0.05,1.25 -0.8,1.25 -0.35,0 -1.1,-0.4 l -0.8,-0.75 0.7,-1.05 0.65,-0.9 q 0,-0.55 -0.35,-0.6 -0.2,-0.6 -1.35,-1"
         fill="#e2e2e2"
         fill-rule="evenodd"
         stroke="none"
         id="path2" />
      <path
         d="m 21.65,8.65 -0.5,0.65 -0.1,-0.05 h -36.6 l -0.75,-0.6 h 37.95"
         fill="#999999"
         fill-rule="evenodd"
         stroke="none"
         id="path3" />
      <path
         d="m -9,-3.15 0.65,0.35 1.75,0.2 q 2.55,0 5.5,-1.2 h 0.05 Q -3,-1.15 -3.55,1.65 h -0.1 l -0.3,0.15 q -0.95,0.1 -1.55,0.7 0.2,0.3 1,0.3 h 0.75 l -0.05,0.45 -2.5,0.15 0.05,0.35 0.55,0.4 h 1.85 V 4.2 q 0.4,1.2 1.2,2.4 h -1.9 V 6.65 L -5.65,6.6 H -6 -6.45 -10.4 L -11.05,6 q -1.85,-1.65 -1.85,-3.8 0,-1.65 1.75,-3.45 L -9,-3.15"
         fill="#bca6a6"
         fill-rule="evenodd"
         stroke="none"
         id="path4" />
      <path
         d="m 8.75,-10.2 q -4.1,1.05 -6.95,3.4 -1.45,1.15 -2.6,2.6 l -0.1,0.15 -0.15,0.25 H -1.1 q -2.95,1.2 -5.5,1.2 L -8.35,-2.8 -9,-3.15 l 0.1,-0.1 1.6,-1.55 v -0.05 q 2.5,-2.35 4,-3.1 4.35,-2.1 12,-2.35 l 0.05,0.1"
         fill="#d0b7b7"
         fill-rule="evenodd"
         stroke="none"
         id="path5" />
      <path
         d="M 2.8,-1.3 Q 5,-4.1 9.2,-6.2 l 3.8,-0.15 1.65,2.9 q 1.15,2.15 1.15,3.25 l -0.3,1.1 -0.3,0.9 0.05,0.25 -1.3,1.55 q -1.3,1.65 -1.3,1.9 0,0.4 0.35,0.5 l 0.15,-0.1 v 0.05 h 0.25 l 1.95,-1.7 q 0.95,-0.95 1.8,-1.3 l 0.15,0.3 V 5.5 L 16.4,6.55 16.35,6.6 H 15.7 V 6.7 H 15.5 V 6.6 H 14 L 13.95,6.7 4,6.65 2.5,5.25 0.75,3.7 q 0,-2.5 2.05,-5 m 5.65,-1.75 q -1.4,1.4 -1.9,2.45 -0.5,0.95 -0.5,2.2 L 6.1,2.8 q 0.45,1.05 2.7,1.05 4.45,0 4.45,-3.85 l -0.05,-1.15 -0.85,-1.3 -1.7,-0.75 -2.2,0.15"
         fill="#a28585"
         fill-rule="evenodd"
         stroke="none"
         id="path6" />
    </g>
  </defs>
</svg>
