<?xml version="1.0" encoding="UTF-8" standalone="no"?>
<svg
   ffdec:objectType="frame"
   height="66.667503"
   width="89.362022"
   version="1.1"
   id="svg16"
   sodipodi:docname="2.svg"
   xmlns:inkscape="http://www.inkscape.org/namespaces/inkscape"
   xmlns:sodipodi="http://sodipodi.sourceforge.net/DTD/sodipodi-0.dtd"
   xmlns:xlink="http://www.w3.org/1999/xlink"
   xmlns="http://www.w3.org/2000/svg"
   xmlns:svg="http://www.w3.org/2000/svg"
   xmlns:ffdec="https://www.free-decompiler.com/flash">
  <sodipodi:namedview
     id="namedview16"
     pagecolor="#ffffff"
     bordercolor="#000000"
     borderopacity="0.25"
     inkscape:showpageshadow="2"
     inkscape:pageopacity="0.0"
     inkscape:pagecheckerboard="0"
     inkscape:deskcolor="#d1d1d1"
     fit-margin-top="5"
     fit-margin-left="5"
     fit-margin-right="5"
     fit-margin-bottom="5" />
  <g
     transform="translate(39.35,33.3)"
     id="g7">
    <use
       ffdec:characterId="612"
       height="11.25"
       transform="matrix(0.0035,-0.809,-0.809,-0.0035,47.35,24.9)"
       width="29.4"
       xlink:href="#sprite0"
       id="use1" />
    <use
       ffdec:characterId="574"
       height="24.200001"
       transform="matrix(0,-0.809,-0.809,0,50,5.7)"
       width="23"
       xlink:href="#sprite1"
       id="use2" />
    <use
       ffdec:characterId="574"
       height="24.200001"
       transform="matrix(0,0.809,0.809,0,-37.55,-22)"
       width="23"
       xlink:href="#sprite1"
       id="use3" />
    <use
       ffdec:characterId="574"
       height="24.200001"
       transform="matrix(-0.809,0,0,0.809,-17.65,-31.75)"
       width="23"
       xlink:href="#sprite1"
       id="use4" />
    <use
       ffdec:characterId="574"
       height="24.200001"
       transform="matrix(0.809,0,0,-0.809,30.45,32.5)"
       width="23"
       xlink:href="#sprite2"
       id="use5" />
    <use
       ffdec:characterId="614"
       height="66.650002"
       transform="translate(-39.35,-33.3)"
       width="82.800003"
       xlink:href="#shape2"
       id="use6" />
    <use
       ffdec:characterId="44"
       height="8"
       transform="matrix(-1,0,0,1,-24,-26.45)"
       width="10.8"
       xlink:href="#sprite3"
       id="use7" />
  </g>
  <defs
     id="defs16">
    <g
       id="sprite0">
      <use
         ffdec:characterId="611"
         height="11.25"
         width="29.4"
         xlink:href="#shape0"
         id="use8" />
    </g>
    <g
       id="shape0">
      <path
         d="M 26.7,3.6 H 24 l -2.9,0.05 -8.35,-0.05 -6.8,0.05 -2.9,-0.2 0.2,1.8 h 0.1 L 3.4,7.95 7.75,8 h 3.75 4.8 3.6 1.4 v 0.05 h 4.8 1 l -0.15,-0.8 v -2 l 0.1,-1.8 -0.35,0.05 v 0.1 m 1.1,-3.2 q 0.3,-0.45 0.75,-0.4 0.5,0.05 0.85,0.7 v 9 l -0.25,0.2 q -0.1,0.4 -0.6,0.8 -0.8,0.65 -2.2,0.4 l -13.6,0.05 V 11.2 H 2.2 L 1.7,11.25 1.25,11.2 H 1.15 Q 0.4,11 0,10.65 V 6.1 L 0.05,5.25 H 0.1 L 0.4,2.8 0,2.45 V 1.3 Q 0.3,0.75 1.15,0.55 L 5.95,0.2 7.75,0.15 V 0.1 h 0.35 9.95 6.1 2.55 v 0.15 l 1.1,0.15"
         fill="#9a9a9a"
         fill-rule="evenodd"
         stroke="none"
         id="path8" />
      <path
         d="M 26.7,3.6 V 3.5 l 0.35,-0.05 -0.1,1.8 v 2 l 0.15,0.8 h -1 -4.8 V 8 H 19.9 16.3 11.5 7.75 L 3.4,7.95 3.35,5.25 H 3.25 L 3.05,3.45 5.95,3.65 12.75,3.6 21.1,3.65 24,3.6 h 2.7"
         fill="#bababa"
         fill-rule="evenodd"
         stroke="none"
         id="path9" />
    </g>
    <g
       id="sprite1">
      <use
         ffdec:characterId="573"
         height="24.200001"
         width="23"
         xlink:href="#shape1"
         id="use9" />
    </g>
    <g
       id="shape1">
      <path
         d="m 21.65,10.25 q -0.15,0.1 -0.15,3.1 v 2.35 h 0.1 0.05 q 0.85,0 1.05,0.6 l 0.3,3.25 v 0.55 0.1 0.1 q 0,2.35 -0.2,2.85 l -0.3,0.15 q -0.55,0.65 -2.45,0.85 L 17.3,24.2 9.8,23.65 8.9,23.85 q -1.15,0 -1.25,-1.2 -0.5,-0.8 -0.4,-2.7 Q 7.05,17.9 7.4,16.8 6.7,16.25 7.85,15.95 L 7.9,15.9 q 0.2,-0.15 0.35,-0.2 h 1.9 l -0.1,-0.75 Q 9.7,14.2 9.05,13.9 L 8.7,13.8 v 0.05 H 8.35 L 8.3,13.9 8.5,14.45 q 0,0.9 -0.6,1.1 l -3.25,0.3 H 4.1 4 3.9 L 1.05,15.65 0.9,15.35 Q 0.3,14.85 0.1,13.3 L 0.05,12.9 0,10.15 0.1,5.6 Q 0.25,3.85 0.55,2.65 0.3,2.3 0.35,1.75 0.35,0.6 1.55,0.5 2.35,0 4.25,0.1 L 7.4,0.25 q 0.55,-0.7 0.85,0.45 l 0.25,0.35 0.55,-0.1 4,0.35 q 3.65,0.75 5.5,2 0.6,0.1 1.2,1.15 0.55,1 1.3,3.35 l 0.6,2.45 m -1.4,9.7 V 19.6 19.55 L 20.35,17.8 18.5,18 H 14.85 L 11.1,17.9 9.95,17.75 V 18.5 L 10,19.55 v 0.3 0.45 l -0.1,1.15 0.15,0.25 2.9,-0.35 h 4.25 l 2.85,0.1 0.35,0.05 -0.1,-1.2 H 20.25 V 19.95 M 12.9,4 9.6,4.3 9.05,4.4 8.7,4.45 v 0.2 H 8.6 v 3.05 2.95 h 0.1 v 0.15 l 0.35,0.1 0.9,0.4 q 3.05,1.45 3.15,4.4 h 5.95 L 19,15 18.95,14.3 18.45,8.65 Q 17.45,5.1 12.9,4 M 5.7,2.8 4.65,2.85 H 4.35 3.9 L 2.75,2.75 2.5,2.9 2.85,5.8 v 4.25 L 2.75,12.9 2.7,13.25 3.9,13.15 V 13.1 H 4.25 4.6 4.65 L 6.4,13.2 6.2,11.35 V 7.7 L 6.3,3.95 6.45,2.8 H 5.7"
         fill="#9a9a9a"
         fill-rule="evenodd"
         stroke="none"
         id="path10" />
      <path
         d="M 5.7,2.8 H 6.45 L 6.3,3.95 6.2,7.7 v 3.65 L 6.4,13.2 4.65,13.1 H 4.6 4.25 3.9 v 0.05 l -1.2,0.1 0.05,-0.35 0.1,-2.85 V 5.8 L 2.5,2.9 2.75,2.75 3.9,2.85 h 0.45 0.3 L 5.7,2.8 M 12.9,4 q 4.55,1.1 5.55,4.65 l 0.5,5.65 0.05,0.7 0.05,0.7 H 13.1 Q 13,12.75 9.95,11.3 L 9.05,10.9 8.7,10.8 V 10.65 H 8.6 V 7.7 4.65 H 8.7 V 4.45 L 9.05,4.4 9.6,4.3 12.9,4 m 7.35,15.95 v 0.35 h 0.05 l 0.1,1.2 -0.35,-0.05 -2.85,-0.1 H 12.95 L 10.05,21.7 9.9,21.45 10,20.3 v -0.45 -0.3 L 9.95,18.5 v -0.75 l 1.15,0.15 3.75,0.1 h 3.65 l 1.85,-0.2 -0.1,1.75 v 0.05 0.35"
         fill="#ada5a5"
         fill-rule="evenodd"
         stroke="none"
         id="path11" />
    </g>
    <g
       id="sprite2">
      <use
         ffdec:characterId="573"
         height="24.200001"
         width="23"
         xlink:href="#shape1"
         id="use11" />
    </g>
    <g
       id="shape2"
       transform="translate(39.35,33.3)">
      <path
         d="m 31,-29.25 h -4.2 -14.75 -47.7 l 0.2,5.1 -0.25,5.55 -0.1,1.2 33.5,0.15 4.25,0.1 4.45,-0.1 h 5.15 L 23.2,-17.3 h 0.15 l 3.9,-0.05 h 4.5 2.65 l 5.5,-0.05 -0.1,-1.2 -0.25,-5.55 0.2,-5.1 H 35.1 31 M 30.45,-9.6 v -0.5 l -0.05,-3.2 v -0.05 H 6.4 4.9 4.7 4.65 l -2.6,-0.05 -4.35,0.05 h -24 v 0.05 l -0.05,3.2 v 0.5 l 0.05,4.2 v 34.5 h 0.3 30.8 14.95 3.6 3.8 2.95 0.3 V -5.4 l 0.05,-4.2 m -69.65,-21.6 0.35,-1.2 q 0.55,-0.85 1.75,-0.9 h 78.3 q 1.2,0.05 1.75,0.9 l 0.35,1.2 -0.25,0.9 q 0.4,2.15 0.4,6.05 l -0.2,5.35 -0.25,2.25 q 0.45,0.5 0.45,1.35 0,0.75 -0.45,1.25 -0.7,0.9 -2.4,0.7 h -5.85 l -0.15,43.65 0.15,0.9 q 0,2.55 -4.65,2.1 L 2.05,33.2 h -3.3 L -26,33.3 q -4.65,0.45 -4.65,-2.1 l 0.15,-0.9 -0.15,-43.65 h -5.85 q -1.7,0.2 -2.4,-0.7 -0.45,-0.5 -0.45,-1.25 0,-0.85 0.45,-1.35 l -0.25,-2.25 -0.2,-5.35 q 0,-3.9 0.4,-6.05 l -0.25,-0.9"
         fill="#6b6b6b"
         fill-rule="evenodd"
         stroke="none"
         id="path12" />
      <path
         d="M 26.8,-29.25 H 31 l -0.1,2.9 q 0,2.95 0.3,5.85 0.2,1.9 0.55,3.15 h -4.5 v -0.05 q 0.25,-4 0.1,-7.3 -0.1,-2.95 -0.55,-4.55 m 8.3,0 h 4.65 l -0.2,5.1 0.25,5.55 0.1,1.2 -5.5,0.05 0.55,-3.35 0.3,-5.55 -0.15,-3 m -23.55,12 H 6.4 l -4.45,0.1 -4.25,-0.1 -33.5,-0.15 0.1,-1.2 0.25,-5.55 -0.2,-5.1 h 47.7 q -0.5,1.75 -0.6,4.8 -0.15,3.25 0.1,6.95 v 0.25 m -37.9,7.65 H 4.85 L 4.6,22.35 v 4.95 l 0.2,1.8 H -26 -26.3 V -5.4 l -0.05,-4.2 m 46.15,0 h 3.15 l 0.45,6 -0.05,30.65 v 2.05 h -3.6 V 9.9 L 19.6,-3.45 Q 19.4,-4 19.8,-9.6 m 7.6,0 h 3.05 l -0.05,4.2 v 34.5 h -0.3 -2.95 l 0.1,-2.1 -0.1,-2.4 V -3.75 L 27.4,-9.6"
         fill="#97908b"
         fill-rule="evenodd"
         stroke="none"
         id="path13" />
      <path
         d="m -26.35,-9.6 v -0.5 l 0.05,-3.2 v -0.05 h 24 l 4.35,-0.05 2.6,0.05 h 0.05 0.2 1.5 24 v 0.05 l 0.05,3.2 v 0.5 H 27.4 22.95 19.8 4.85 -26.35"
         fill="#847d78"
         fill-rule="evenodd"
         stroke="none"
         id="path14" />
      <path
         d="m 31,-29.25 h 4.1 l 0.15,3 -0.3,5.55 -0.55,3.35 h -2.65 q -0.35,-1.25 -0.55,-3.15 -0.3,-2.9 -0.3,-5.85 l 0.1,-2.9 m -3.75,11.9 -3.9,0.05 v -0.2 l -0.05,-0.15 -0.1,0.35 -11.65,0.05 v -0.25 q -0.25,-3.7 -0.1,-6.95 0.1,-3.05 0.6,-4.8 H 26.8 q 0.45,1.6 0.55,4.55 0.15,3.3 -0.1,7.3 v 0.05 M 4.85,-9.6 H 19.8 Q 19.4,-4 19.6,-3.45 L 19.75,9.9 V 29.1 H 4.8 L 4.6,27.3 V 22.35 L 4.85,-9.6 m 18.1,0 h 4.45 l -0.25,5.85 V 24.6 l 0.1,2.4 -0.1,2.1 h -3.8 v -2.05 l 0.05,-30.65 -0.45,-6"
         fill="#aca49e"
         fill-rule="evenodd"
         stroke="none"
         id="path15" />
    </g>
    <g
       id="sprite3"
       transform="translate(5.4,4)">
      <use
         ffdec:characterId="43"
         height="8"
         transform="translate(-5.4,-4)"
         width="10.8"
         xlink:href="#shape3"
         id="use15" />
    </g>
    <g
       id="shape3"
       transform="translate(5.4,4)">
      <path
         d="m 2.9,-0.35 q 0,-1.25 1.25,-1.25 1.25,0 1.25,1.2 0,1.3 -1.25,1.3 Q 3.6,0.9 3.25,0.5 2.9,0.15 2.9,-0.35 m 0.35,-2.3 q 0,0.55 -0.35,0.9 -0.4,0.45 -1,0.45 -1.35,0 -1.35,-1.4 0,-1.3 1.35,-1.3 1.35,0 1.35,1.35 m -3.1,1.9 h 0.2 q 2.6,0.1 2.6,2.8 l -0.3,1 Q 2.05,4 0.45,4 H 0.35 0.15 0.1 -0.45 q -1.6,0 -2.2,-0.95 l -0.3,-1 q 0,-2.8 2.8,-2.8 h 0.3 M -1.55,-4 q 1.35,0 1.35,1.35 0,0.55 -0.4,0.9 -0.4,0.45 -0.95,0.45 -1.4,0 -1.4,-1.4 0,-1.3 1.4,-1.3 m -2.6,2.4 q 1.25,0 1.25,1.25 0,0.5 -0.35,0.85 -0.35,0.4 -0.9,0.4 -1.25,0 -1.25,-1.3 0,-1.2 1.25,-1.2"
         fill="#6b6b6b"
         fill-rule="evenodd"
         stroke="none"
         id="path16" />
    </g>
  </defs>
</svg>
