<?xml version="1.0" encoding="UTF-8" standalone="no"?>
<svg
   ffdec:objectType="frame"
   height="54"
   width="68.849998"
   version="1.1"
   id="svg12"
   sodipodi:docname="2.svg"
   xmlns:inkscape="http://www.inkscape.org/namespaces/inkscape"
   xmlns:sodipodi="http://sodipodi.sourceforge.net/DTD/sodipodi-0.dtd"
   xmlns:xlink="http://www.w3.org/1999/xlink"
   xmlns="http://www.w3.org/2000/svg"
   xmlns:svg="http://www.w3.org/2000/svg"
   xmlns:ffdec="https://www.free-decompiler.com/flash">
  <sodipodi:namedview
     id="namedview12"
     pagecolor="#ffffff"
     bordercolor="#000000"
     borderopacity="0.25"
     inkscape:showpageshadow="2"
     inkscape:pageopacity="0.0"
     inkscape:pagecheckerboard="0"
     inkscape:deskcolor="#d1d1d1"
     fit-margin-top="5"
     fit-margin-left="5"
     fit-margin-right="5"
     fit-margin-bottom="5" />
  <g
     transform="translate(34.4,26.85)"
     id="g1">
    <use
       ffdec:characterId="1831"
       height="94.400002"
       transform="translate(-58.6,-67.15)"
       width="100.55"
       xlink:href="#sprite0"
       id="use1" />
  </g>
  <defs
     id="defs12">
    <g
       id="sprite0"
       transform="translate(58.6,67.3)">
      <use
         ffdec:characterId="1809"
         height="54"
         transform="translate(-34.4,-27)"
         width="68.849998"
         xlink:href="#sprite1"
         id="use2" />
      <use
         ffdec:characterId="1811"
         height="4.4000001"
         transform="translate(-10.95,2.15)"
         width="20.799999"
         xlink:href="#sprite3"
         id="use3" />
    </g>
    <g
       id="sprite1"
       transform="translate(34.4,27)">
      <use
         ffdec:characterId="1808"
         height="54"
         transform="translate(-34.4,-27)"
         width="68.849998"
         xlink:href="#shape0"
         id="use4" />
      <use
         ffdec:characterId="1691"
         height="8"
         transform="translate(-5.15,16.8)"
         width="10.8"
         xlink:href="#sprite2"
         id="use5" />
    </g>
    <g
       id="shape0"
       transform="translate(34.4,27)">
      <path
         d="m 0,-27 9.35,1.2 q 1.2,0.4 1.2,1.55 l -0.1,1.75 q 0.85,-0.55 2.1,-1 4.05,-1.5 8.9,-1.25 5.55,0.3 8.95,2.85 4.05,3.1 4.05,8.85 0,2.4 -1.2,4.2 -2.5,3.65 -9.2,3.65 L 20.3,-5.55 V -5 q -0.2,0.9 -0.9,1.6 l -0.9,0.95 -1.3,0.8 -1.1,0.25 q 1,1.55 1,3.5 0,2 -1.05,4.6 L 15.4,8.1 15.55,8.05 q 1.4,-0.05 1.4,4.4 l -0.05,1.4 -0.15,0.55 0.05,0.3 q 0,1.05 -1.3,1.35 l -1.95,0.1 v 0.05 0.25 0.4 L 13,21.35 h -0.7 l -0.35,2.7 v 0.1 H 11.9 l -0.05,0.2 -0.1,0.6 0.1,1.1 q -0.2,0.6 -1.55,0.95 h -20 q -1.35,-0.35 -1.55,-0.95 l 0.1,-1.1 -0.05,-0.6 -0.05,-0.2 -0.05,-0.1 -0.35,-2.7 h -0.75 l -0.55,-4.5 0.05,-0.65 v -0.05 l -1.95,-0.1 q -1.35,-0.3 -1.35,-1.35 l 0.05,-0.3 -0.15,-0.55 -0.05,-1.4 q 0,-3.75 1,-4.3 l -0.4,-0.6 q -1.3,-2.2 -1.3,-3.95 0,-2.65 0.8,-4.1 l 0.55,-0.8 -1.7,-0.35 q -0.55,-0.1 -1.3,-0.8 l -0.9,-0.95 q -0.7,-0.7 -0.9,-1.6 v -0.55 l -3.75,0.35 q -6.7,0 -9.2,-3.65 l -0.95,-2.1 v -4.8 q 0.75,-3.8 3.8,-6.15 3.4,-2.55 8.95,-2.85 4.85,-0.25 8.9,1.25 l 2.1,1 -0.1,-1.75 q 0,-1.15 1.2,-1.55 L 0,-27 m 16.1,5.45 q 0,1.2 0.9,2.05 1.05,1.05 3.1,1.05 3.5,0 3.55,-1.7 l -0.55,-1.7 -2,-0.15 -5,0.4 v 0.05 m -3.85,1.3 -1.7,1 q 8.65,2.4 9.65,10.45 l 0.9,0.2 4.05,0.35 q 2.55,0 4.5,-1.75 1.65,-1.55 1.65,-2.9 l -0.25,-1.5 q -0.45,-1.7 -1.3,-3.1 -1.95,-3.15 -5.4,-4.1 l -0.05,1.2 q 0,1.2 -1,2.15 -1.2,1.15 -3.25,1.15 -2.95,0 -4.3,-2.1 l -0.7,-2.15 q -1.6,0.4 -2.8,1.1 m 1,6.1 -0.45,-0.35 q -4.15,-3.05 -10,-3.85 l -2.9,-0.2 -2.9,0.2 -1.65,0.3 q 1.65,1.3 1.65,2.8 0,1.45 -0.85,2.7 -1.3,1.8 -3.9,1.8 -3.05,0 -4.5,-1.5 -0.95,-1 -0.95,-2.1 -4.35,3.4 -4.35,7.9 l -0.1,0.95 q 0.1,0.5 1.4,0.75 l 2.25,0.3 -0.05,-0.05 -0.05,-1 q 0,-5.15 4.35,-4.2 1.65,0.35 3,1.45 1.35,1.15 1.35,2.25 l -0.1,1.6 -0.15,0.3 4.25,0.05 h 1.3 1.3 l 14.85,-0.7 q 1.3,-0.25 1.4,-0.75 l -0.1,-0.9 -1.55,0.25 q -2.9,0 -3.95,-1.9 l -0.45,-2 q 0,-1.6 0.45,-2.6 0.45,-1.15 1.4,-1.5 M 8,-21.6 q 0.05,-1.2 -0.9,-1.6 L 2.6,-24 h -5.4 l -4.5,0.8 q -0.95,0.4 -0.9,1.6 l 0.3,1.65 v 0.05 l 7.85,-0.35 7.75,0.35 v -0.05 L 8,-21.6 m -6.05,-1.85 q 3.1,0.3 3.7,1.55 l -0.75,0.45 -3.7,0.15 v 0.1 h -2.6 v -0.1 l -3.7,-0.15 q -0.55,-0.15 -0.75,-0.45 0.6,-1.25 3.7,-1.55 l 3.35,-0.05 0.75,0.05 m -1,10.15 q 0,0.45 0.5,0.95 0.6,0.6 1.55,0.95 h 2.1 q 0.75,-0.45 0.9,-1 l 0.05,-0.9 q 0,-1.9 -2.55,-2.25 -2.55,-0.3 -2.55,2.25 m 6.4,-0.05 q 0,3.45 -3.25,3.45 -2.35,0 -3.6,-1.35 -0.8,-0.85 -0.8,-1.5 0,-3.35 3.85,-3.75 3.8,-0.35 3.8,3.15 m 9.9,5.45 q -0.45,-2.65 -2.55,-4.9 l -1.35,0.65 q -0.75,0.45 -0.75,0.75 0,1.65 0.3,2.3 0.7,1.35 2.85,1.35 l 1.5,-0.15 M 13.75,0.4 13.45,-0.1 12.9,-0.95 2.1,-0.5 h -2.6 -1.8 l -10.9,-0.45 h -0.05 l -0.6,1.45 -0.4,1.7 q 0,2.4 2.8,4.5 l 1.8,1.5 h 2.1 L -7,8.3 H 7.6 L 8.15,8.2 H 11 l 1.35,-1.55 q 2.05,-2.3 2.05,-4.5 0,-0.6 -0.65,-1.75 M 23.9,-16.3 q 0.9,-1.7 3.85,-1.1 1.45,0.55 1.8,1.35 l 0.15,1.25 q 0,1.3 -0.4,1.9 -0.75,1.05 -3,1.05 -2.15,0 -2.65,-0.9 l -0.1,-1.35 q 0,-1.55 0.35,-2.2 m 0.7,0.95 q 0,1.5 0.15,1.7 0.5,0.6 2.8,0.6 1,0 1.1,-1.95 l -0.3,-0.2 Q 28,-15.5 27.6,-16.3 h -2.25 l -0.4,0.25 q -0.35,0.25 -0.35,0.7 m -48.05,-6.45 -0.65,0.5 q -0.9,0.75 -0.9,1.45 0,1.1 1.05,2.3 1.45,1.65 3.95,1.65 4.05,0 4.45,-2.9 l -0.3,-2.7 -5.45,-0.5 -2.15,0.2 m -2.45,0.7 q -2.5,1.1 -4.05,3.6 -0.85,1.4 -1.3,3.1 l -0.25,1.5 q 0,1.35 1.65,2.9 1.95,1.75 4.5,1.75 l 4.05,-0.35 0.9,-0.2 q 0.4,-3.15 2,-5.45 h -0.2 q -4.6,0 -6.45,-2.5 -1.05,-1.4 -1.05,-3.2 l 0.2,-1.15 m -3.3,7.6 q 0,0.7 0.75,1.65 h 2.35 q 0.95,-0.95 0.95,-1.35 0,-1.45 -2,-1.95 -2.05,-0.45 -2.05,1.65 m 1.9,-2.8 q 3,0.4 3,3.1 0,1.1 -0.85,1.8 -0.95,0.8 -2.75,0.8 -2,0 -2.4,-1.4 v -1.2 q 0,-3.5 3,-3.1 m 20.55,-1.25 q -2.85,0.85 -5.2,2.35 l -0.35,0.8 q 0,0.95 1.3,1.65 1.15,0.65 2.3,0.65 2.65,0 3.8,-1.4 0.7,-0.85 0.7,-1.75 0,-0.8 -1.25,-1.6 l -1.3,-0.7 m -7.2,-1.2 -0.05,0.75 3.25,-1.25 -1.7,-1 -1.6,-0.75 0.1,2.25 m 1.25,12 q 0,0.95 0.65,2.45 l 4.45,0.2 0.65,-0.7 q 0.55,-0.6 0.55,-1.15 0,-1 -1.05,-1.8 -1.15,-0.8 -2.9,-0.8 -1.3,0 -1.95,0.85 l -0.4,0.95 m 5.7,17.8 -0.55,0.1 h -6.05 v 1.3 1.05 h 1.35 l 0.5,0.05 h 24.1 l 0.5,-0.05 h 1.35 v -1.05 -1.3 H 8.15 L 7.6,11.05 H -7 m -2.9,5 0.05,0.15 h 0.05 v 0.05 h 0.45 l 0.1,1 0.4,4.1 0.1,2.05 0.1,0.6 v 0.15 l 1.4,0.1 h 3.6 V 24.2 L 9.25,24.15 9.3,24.05 V 24 l 0.05,-0.6 0.15,-2.05 0.35,-4.1 0.1,-1 h 0.5 V 16.2 h 0.05 l 0.05,-0.15 V 16 H -9.9 v 0.05"
         fill="#6b6b6b"
         fill-rule="evenodd"
         stroke="none"
         id="path5" />
      <path
         d="m 16.1,-21.55 v -0.05 l 5,-0.4 2,0.15 0.55,1.7 q -0.05,1.7 -3.55,1.7 -2.05,0 -3.1,-1.05 -0.9,-0.85 -0.9,-2.05 M 0.95,-13.3 q 0,-2.55 2.55,-2.25 2.55,0.35 2.55,2.25 L 6,-12.4 q -0.15,0.55 -0.9,1 H 3 q -0.95,-0.35 -1.55,-0.95 -0.5,-0.5 -0.5,-0.95 m 16.3,5.4 -1.5,0.15 q -2.15,0 -2.85,-1.35 -0.3,-0.65 -0.3,-2.3 0,-0.3 0.75,-0.75 l 1.35,-0.65 q 2.1,2.25 2.55,4.9 m -31.1,8.4 q 0.6,0.65 1.95,1.15 L -8.15,2.6 H 6.7 l 0.1,0.15 6,-1.8 0.4,-0.15 h -0.1 l 0.65,-0.4 q 0.65,1.15 0.65,1.75 0,2.2 -2.05,4.5 L 11,8.2 H 8.15 L 7.6,8.3 H -7 L -7.55,8.2 h -2.1 l -1.8,-1.5 q -2.8,-2.1 -2.8,-4.5 l 0.4,-1.7 m -9.6,-22.3 2.15,-0.2 5.45,0.5 0.3,2.7 q -0.4,2.9 -4.45,2.9 -2.5,0 -3.95,-1.65 -1.05,-1.2 -1.05,-2.3 0,-0.7 0.9,-1.45 l 0.65,-0.5 m 48.05,6.45 q 0,-0.45 0.35,-0.7 l 0.4,-0.25 h 2.25 q 0.4,0.8 0.75,1.1 l 0.3,0.2 q -0.1,1.95 -1.1,1.95 -2.3,0 -2.8,-0.6 -0.15,-0.2 -0.15,-1.7 m -53.8,1.85 q 0,-2.1 2.05,-1.65 2,0.5 2,1.95 0,0.4 -0.95,1.35 h -2.35 q -0.75,-0.95 -0.75,-1.65 m 22.45,-4.05 1.3,0.7 q 1.25,0.8 1.25,1.6 0,0.9 -0.7,1.75 -1.15,1.4 -3.8,1.4 -1.15,0 -2.3,-0.65 -1.3,-0.7 -1.3,-1.65 l 0.35,-0.8 q 2.35,-1.5 5.2,-2.35 m -5.95,10.8 0.4,-0.95 q 0.65,-0.85 1.95,-0.85 1.75,0 2.9,0.8 1.05,0.8 1.05,1.8 0,0.55 -0.55,1.15 l -0.65,0.7 -4.45,-0.2 q -0.65,-1.5 -0.65,-2.45"
         fill="#e0e0e0"
         fill-rule="evenodd"
         stroke="none"
         id="path6" />
      <path
         d="m -13.85,0.5 0.6,-1.45 h 0.05 l 10.9,0.45 h 1.8 2.6 l 10.8,-0.45 0.55,0.85 0.3,0.5 -0.65,0.4 h 0.1 L 12.8,0.95 6.8,2.75 6.7,2.6 H -8.15 L -11.9,1.65 q -1.35,-0.5 -1.95,-1.15"
         fill="#b8b8b8"
         fill-rule="evenodd"
         stroke="none"
         id="path7" />
      <path
         d="M -7,11.05 H 7.6 l 0.55,0.1 h 6.05 v 1.3 1.05 h -1.35 l -0.5,0.05 h -24.1 l -0.5,-0.05 h -1.35 v -1.05 -1.3 h 6.05 L -7,11.05"
         fill="#9b9186"
         fill-rule="evenodd"
         stroke="none"
         id="path8" />
      <path
         d="M -9.9,16.05 V 16 h 20.45 v 0.05 L 10.5,16.2 h -0.05 v 0.05 h -0.5 l -0.1,1 L 9.5,21.35 9.35,23.4 9.3,24 v 0.05 l -0.05,0.1 -12.9,0.05 v 0.05 h -3.6 l -1.4,-0.1 V 24 l -0.1,-0.6 -0.1,-2.05 -0.4,-4.1 -0.1,-1 H -9.8 V 16.2 H -9.85 L -9.9,16.05"
         fill="#857b70"
         fill-rule="evenodd"
         stroke="none"
         id="path9" />
      <path
         d="m 12.25,-20.25 q 1.2,-0.7 2.8,-1.1 l 0.7,2.15 q 1.35,2.1 4.3,2.1 2.05,0 3.25,-1.15 1,-0.95 1,-2.15 l 0.05,-1.2 q 3.45,0.95 5.4,4.1 0.85,1.4 1.3,3.1 l 0.25,1.5 q 0,1.35 -1.65,2.9 -1.95,1.75 -4.5,1.75 L 21.1,-8.6 20.2,-8.8 q -1,-8.05 -9.65,-10.45 l 1.7,-1 m -10.3,-3.2 -0.75,-0.05 -3.35,0.05 q -3.1,0.3 -3.7,1.55 0.2,0.3 0.75,0.45 l 3.7,0.15 v 0.1 h 2.6 v -0.1 l 3.7,-0.15 0.75,-0.45 q -0.6,-1.25 -3.7,-1.55 M 8,-21.6 7.7,-19.95 v 0.05 l -7.75,-0.35 -7.85,0.35 v -0.05 l -0.3,-1.65 q -0.05,-1.2 0.9,-1.6 l 4.5,-0.8 h 5.4 l 4.5,0.8 q 0.95,0.4 0.9,1.6 m 5.25,7.45 q -0.95,0.35 -1.4,1.5 -0.45,1 -0.45,2.6 l 0.45,2 q 1.05,1.9 3.95,1.9 l 1.55,-0.25 0.1,0.9 q -0.1,0.5 -1.4,0.75 L 1.2,-4.05 H -0.1 -1.4 L -5.65,-4.1 -5.5,-4.4 -5.4,-6 q 0,-1.1 -1.35,-2.25 -1.35,-1.1 -3,-1.45 -4.35,-0.95 -4.35,4.2 l 0.05,1 0.05,0.05 -2.25,-0.3 q -1.3,-0.25 -1.4,-0.75 l 0.1,-0.95 q 0,-4.5 4.35,-7.9 0,1.1 0.95,2.1 1.45,1.5 4.5,1.5 2.6,0 3.9,-1.8 0.85,-1.25 0.85,-2.7 0,-1.5 -1.65,-2.8 l 1.65,-0.3 2.9,-0.2 2.9,0.2 q 5.85,0.8 10,3.85 l 0.45,0.35 m -5.9,0.8 q 0,-3.5 -3.8,-3.15 -3.85,0.4 -3.85,3.75 0,0.65 0.8,1.5 1.25,1.35 3.6,1.35 3.25,0 3.25,-3.45 M 23.9,-16.3 q -0.35,0.65 -0.35,2.2 l 0.1,1.35 q 0.5,0.9 2.65,0.9 2.25,0 3,-1.05 0.4,-0.6 0.4,-1.9 l -0.15,-1.25 q -0.35,-0.8 -1.8,-1.35 -2.95,-0.6 -3.85,1.1 m -49.8,-4.8 -0.2,1.15 q 0,1.8 1.05,3.2 1.85,2.5 6.45,2.5 h 0.2 q -1.6,2.3 -2,5.45 l -0.9,0.2 -4.05,0.35 q -2.55,0 -4.5,-1.75 -1.65,-1.55 -1.65,-2.9 l 0.25,-1.5 q 0.45,-1.7 1.3,-3.1 1.55,-2.5 4.05,-3.6 m -1.4,4.8 q -3,-0.4 -3,3.1 v 1.2 q 0.4,1.4 2.4,1.4 1.8,0 2.75,-0.8 0.85,-0.7 0.85,-1.8 0,-2.7 -3,-3.1 m 13.35,-2.45 -0.1,-2.25 1.6,0.75 1.7,1 -3.25,1.25 0.05,-0.75"
         fill="#9384a4"
         fill-rule="evenodd"
         stroke="none"
         id="path10" />
    </g>
    <g
       id="sprite2"
       transform="translate(5.4,4)">
      <use
         ffdec:characterId="43"
         height="8"
         transform="translate(-5.4,-4)"
         width="10.8"
         xlink:href="#shape1"
         id="use10" />
    </g>
    <g
       id="shape1"
       transform="translate(5.4,4)">
      <path
         d="m 2.9,-0.35 q 0,-1.25 1.25,-1.25 1.25,0 1.25,1.2 0,1.3 -1.25,1.3 Q 3.6,0.9 3.25,0.5 2.9,0.15 2.9,-0.35 m 0.35,-2.3 q 0,0.55 -0.35,0.9 -0.4,0.45 -1,0.45 -1.35,0 -1.35,-1.4 0,-1.3 1.35,-1.3 1.35,0 1.35,1.35 m -3.1,1.9 h 0.2 q 2.6,0.1 2.6,2.8 l -0.3,1 Q 2.05,4 0.45,4 H 0.35 0.15 0.1 -0.45 q -1.6,0 -2.2,-0.95 l -0.3,-1 q 0,-2.8 2.8,-2.8 h 0.3 M -1.55,-4 q 1.35,0 1.35,1.35 0,0.55 -0.4,0.9 -0.4,0.45 -0.95,0.45 -1.4,0 -1.4,-1.4 0,-1.3 1.4,-1.3 m -2.6,2.4 q 1.25,0 1.25,1.25 0,0.5 -0.35,0.85 -0.35,0.4 -0.9,0.4 -1.25,0 -1.25,-1.3 0,-1.2 1.25,-1.2"
         fill="#6b6b6b"
         fill-rule="evenodd"
         stroke="none"
         id="path11" />
    </g>
    <g
       id="sprite3"
       transform="translate(10.4,2.2)">
      <use
         ffdec:characterId="1810"
         height="4.4000001"
         transform="translate(-10.4,-2.2)"
         width="20.799999"
         xlink:href="#shape2"
         id="use11" />
    </g>
    <g
       id="shape2"
       transform="translate(10.4,2.2)">
      <path
         d="m 3.1,-1.3 q 0.8,0.55 0.8,1.85 l -0.15,1 Q 3.4,2.2 2.2,2.2 L -2.95,1.85 Q -3.35,1.7 -3.35,1.2 L -3.3,0.9 -3.35,0.65 q 0,-2.35 3.6,-2.7 1.95,-0.2 2.85,0.75 m 4.25,0.7 Q 6.6,-0.75 6.6,-1.3 q 0,-0.7 1.9,-0.9 1.9,-0.15 1.9,0.9 0,0.75 -1.3,0.75 L 7.35,-0.6 m -17.6,-0.4 -0.1,-0.45 q 0,-0.65 0.85,-0.65 l 3.2,0.3 0.2,0.5 -0.2,0.5 -1.8,0.2 q -1.7,0 -2.15,-0.4"
         fill="#6b6b6b"
         fill-rule="evenodd"
         stroke="none"
         id="path12" />
    </g>
  </defs>
</svg>
