<?xml version="1.0" encoding="UTF-8" standalone="no"?>
<svg
   ffdec:objectType="frame"
   height="147.44594"
   width="153.03761"
   version="1.1"
   id="svg71"
   sodipodi:docname="1.svg"
   xmlns:inkscape="http://www.inkscape.org/namespaces/inkscape"
   xmlns:sodipodi="http://sodipodi.sourceforge.net/DTD/sodipodi-0.dtd"
   xmlns:xlink="http://www.w3.org/1999/xlink"
   xmlns="http://www.w3.org/2000/svg"
   xmlns:svg="http://www.w3.org/2000/svg"
   xmlns:ffdec="https://www.free-decompiler.com/flash">
  <sodipodi:namedview
     id="namedview71"
     pagecolor="#ffffff"
     bordercolor="#000000"
     borderopacity="0.25"
     inkscape:showpageshadow="2"
     inkscape:pageopacity="0.0"
     inkscape:pagecheckerboard="0"
     inkscape:deskcolor="#d1d1d1"
     fit-margin-top="5"
     fit-margin-left="5"
     fit-margin-right="5"
     fit-margin-bottom="5" />
  <g
     transform="translate(74.6887,65.395945)"
     id="g40">
    <use
       ffdec:characterId="1026"
       height="128.95"
       transform="translate(-46.65,-58.05)"
       width="106.2"
       xlink:href="#shape0"
       id="use1" />
    <use
       ffdec:characterId="1028"
       height="17.25"
       transform="translate(-45.9,56.25)"
       width="106.2"
       xlink:href="#sprite0"
       id="use2" />
    <use
       ffdec:characterId="1007"
       height="25.450001"
       transform="matrix(-0.7177,0,0,-0.7177,57.0498,52.8648)"
       width="62.700001"
       xlink:href="#sprite1"
       id="use3" />
    <use
       ffdec:characterId="1001"
       height="5.8000002"
       transform="matrix(0,-1.0268,1,0,4.55,54.1463)"
       width="65.199997"
       xlink:href="#sprite2"
       id="use4" />
    <use
       ffdec:characterId="1007"
       height="25.450001"
       transform="matrix(-0.7177,0,0,0.7177,57.0498,-53.8148)"
       width="62.700001"
       xlink:href="#sprite1"
       id="use5" />
    <use
       ffdec:characterId="1007"
       height="25.450001"
       transform="matrix(-0.7177,0,0,-0.7177,57.0498,21.8148)"
       width="62.700001"
       xlink:href="#sprite1"
       id="use6" />
    <use
       ffdec:characterId="1007"
       height="25.450001"
       transform="matrix(-0.7177,0,0,0.7177,57.0498,18.5352)"
       width="62.700001"
       xlink:href="#sprite1"
       id="use7" />
    <use
       ffdec:characterId="1007"
       height="25.450001"
       transform="matrix(0.7177,0,0,0.7177,-43.0998,18.5352)"
       width="62.700001"
       xlink:href="#sprite1"
       id="use8" />
    <use
       ffdec:characterId="1007"
       height="25.450001"
       transform="matrix(0.7177,0,0,0.7177,-43.0998,-15.9148)"
       width="62.700001"
       xlink:href="#sprite1"
       id="use9" />
    <use
       ffdec:characterId="1007"
       height="25.450001"
       transform="matrix(0.7177,0,0,-0.7177,-43.0998,-11.9352)"
       width="62.700001"
       xlink:href="#sprite1"
       id="use10" />
    <use
       ffdec:characterId="1007"
       height="25.450001"
       transform="matrix(-0.7177,0,0,0.7177,57.0498,-23.4148)"
       width="62.700001"
       xlink:href="#sprite1"
       id="use11" />
    <use
       ffdec:characterId="1007"
       height="25.450001"
       transform="matrix(-0.7177,0,0,-0.7177,57.0498,-19.4352)"
       width="62.700001"
       xlink:href="#sprite1"
       id="use12" />
    <use
       ffdec:characterId="1007"
       height="25.450001"
       transform="matrix(0.7177,0,0,0.7177,-43.0998,-53.8148)"
       width="62.700001"
       xlink:href="#sprite1"
       id="use13" />
    <use
       ffdec:characterId="987"
       height="103.55"
       transform="matrix(-1.0382,-0.1357,-0.1296,0.9916,69.5096,-50.5793)"
       width="78.599998"
       xlink:href="#sprite3"
       id="use14" />
    <use
       ffdec:characterId="1001"
       height="5.8000002"
       transform="translate(-2.85,-7.35)"
       width="65.199997"
       xlink:href="#sprite4"
       id="use15" />
    <use
       ffdec:characterId="1007"
       height="25.450001"
       transform="matrix(0.7177,0,0,-0.7177,-43.0998,21.4648)"
       width="62.700001"
       xlink:href="#sprite1"
       id="use16" />
    <use
       ffdec:characterId="989"
       height="95.550003"
       transform="matrix(0.8,0,0,0.8,51.9801,-31.6494)"
       width="16.799999"
       xlink:href="#sprite5"
       id="use17" />
    <use
       ffdec:characterId="1001"
       height="5.8000002"
       transform="translate(-5.65,51)"
       width="65.199997"
       xlink:href="#sprite4"
       id="use18" />
    <use
       ffdec:characterId="1007"
       height="25.450001"
       transform="matrix(0.7177,0,0,-0.7177,-43.0998,52.8648)"
       width="62.700001"
       xlink:href="#sprite1"
       id="use19" />
    <use
       ffdec:characterId="1001"
       height="5.8000002"
       transform="translate(-47.65,51)"
       width="65.199997"
       xlink:href="#sprite4"
       id="use20" />
    <use
       ffdec:characterId="1005"
       height="65.25"
       transform="matrix(-0.8687,0,0,0.8687,68.75,22.2436)"
       width="16.049999"
       xlink:href="#sprite6"
       id="use21" />
    <use
       ffdec:characterId="1001"
       height="5.8000002"
       transform="translate(-44.85,-7.35)"
       width="65.199997"
       xlink:href="#sprite4"
       id="use22" />
    <use
       ffdec:characterId="989"
       height="95.550003"
       transform="matrix(0.8,0,0,0.8,-51.2699,-31.6494)"
       width="16.799999"
       xlink:href="#sprite5"
       id="use23" />
    <use
       ffdec:characterId="1005"
       height="65.25"
       transform="matrix(0.8687,0,0,0.8687,-54.8,22.2436)"
       width="16.049999"
       xlink:href="#sprite6"
       id="use24" />
    <use
       ffdec:characterId="1007"
       height="25.450001"
       transform="matrix(0.8346,0,0,-0.8346,-43.9136,78.149)"
       width="62.700001"
       xlink:href="#sprite7"
       id="use25" />
    <use
       ffdec:characterId="1011"
       height="15.45"
       transform="matrix(0.67,0,0,-0.67,-46.2436,72.2591)"
       width="16.1"
       xlink:href="#sprite8"
       id="use26" />
    <use
       ffdec:characterId="1007"
       height="25.450001"
       transform="matrix(-0.8346,0,0,-0.8346,57.9136,78.149)"
       width="62.700001"
       xlink:href="#sprite7"
       id="use27" />
    <use
       ffdec:characterId="1011"
       height="15.45"
       transform="matrix(0.67,0,0,-0.67,49.5064,71.1591)"
       width="16.1"
       xlink:href="#sprite8"
       id="use28" />
    <use
       ffdec:characterId="1005"
       height="65.25"
       transform="matrix(-0.8687,0,0,-0.8687,68.75,1.3064)"
       width="16.049999"
       xlink:href="#sprite6"
       id="use29" />
    <use
       ffdec:characterId="1030"
       height="74.349998"
       transform="matrix(0.7325,0,0,0.7325,-74.6887,-59.6606)"
       width="48.349998"
       xlink:href="#sprite9"
       id="use30" />
    <use
       ffdec:characterId="1005"
       height="65.25"
       transform="matrix(0.8687,0,0,-0.8687,-54.8,1.3064)"
       width="16.049999"
       xlink:href="#sprite6"
       id="use31" />
    <use
       ffdec:characterId="989"
       height="95.550003"
       transform="matrix(0,0.8571,-1.0608,0,42.405,-63.6)"
       width="16.799999"
       xlink:href="#sprite5"
       id="use32" />
    <use
       ffdec:characterId="1011"
       height="15.45"
       transform="matrix(0.67,0,0,0.67,-48.4936,-57.1591)"
       width="16.1"
       xlink:href="#sprite8"
       id="use33" />
    <use
       ffdec:characterId="989"
       height="95.550003"
       transform="matrix(0,0.8571,1.0608,0,-29.905,-63.6)"
       width="16.799999"
       xlink:href="#sprite5"
       id="use34" />
    <use
       ffdec:characterId="1001"
       height="5.8000002"
       transform="matrix(1.0551,0,0,1,9.5564,-64)"
       width="65.199997"
       xlink:href="#sprite4"
       id="use35" />
    <use
       ffdec:characterId="1001"
       height="5.8000002"
       transform="matrix(1.1046,0,0,1,-64.8993,-64)"
       width="65.199997"
       xlink:href="#sprite4"
       id="use36" />
    <use
       ffdec:characterId="1011"
       height="15.45"
       transform="matrix(0.67,0,0,0.67,49.9064,-57.0091)"
       width="16.1"
       xlink:href="#sprite8"
       id="use37" />
    <use
       ffdec:characterId="1011"
       height="15.45"
       transform="matrix(-0.335,0.5802,0.5802,0.335,4.3789,-67.3505)"
       width="16.1"
       xlink:href="#sprite8"
       id="use38" />
    <use
       ffdec:characterId="1001"
       height="5.8000002"
       transform="translate(5.4,76.25)"
       width="65.199997"
       xlink:href="#sprite4"
       id="use39" />
    <use
       ffdec:characterId="1001"
       height="5.8000002"
       transform="translate(-57.15,76.25)"
       width="65.199997"
       xlink:href="#sprite4"
       id="use40" />
  </g>
  <defs
     id="defs71">
    <g
       id="shape0"
       transform="translate(46.65,58.05)">
      <path
         d="M 59.55,70.9 H -46.65 V -58.05 H 59.55 V 70.9"
         fill="#bbbbbb"
         fill-rule="evenodd"
         stroke="none"
         id="path40" />
    </g>
    <g
       id="sprite0">
      <use
         ffdec:characterId="1027"
         height="17.25"
         width="106.2"
         xlink:href="#shape1"
         id="use41" />
    </g>
    <g
       id="shape1">
      <path
         d="M 106.2,2.9 V 17.25 H 53.8 V 2.9 h 52.4 M 52.3,17.25 H 0 V 2.9 h 52.3 v 14.35"
         fill="#bbbbbb"
         fill-rule="evenodd"
         stroke="none"
         id="path41" />
      <path
         d="m 53.8,0 h 52.4 V 2.9 H 53.8 V 0 M 0,2.9 V 0 H 52.3 V 2.9 H 0"
         fill="#e0e0e0"
         fill-rule="evenodd"
         stroke="none"
         id="path42" />
      <path
         d="M 53.8,17.25 H 52.3 V 2.9 0 h 1.5 v 2.9 14.35"
         fill="#6b6b6b"
         fill-rule="evenodd"
         stroke="none"
         id="path43" />
    </g>
    <g
       id="sprite1"
       transform="translate(31.35,12.7)">
      <use
         ffdec:characterId="1006"
         height="25.450001"
         transform="translate(-31.35,-12.7)"
         width="62.700001"
         xlink:href="#shape2"
         id="use43" />
    </g>
    <g
       id="shape2"
       transform="translate(31.35,12.7)">
      <path
         d="M -0.75,-7.15 -0.85,-8.2 -1,-8.95 H 1 L 0.95,-8.2 v 0.25 0.8 h -1.7 m 3.4,0 L 2.55,-8.2 2.4,-8.95 8.75,-9 l 19,0.05 0.45,0.15 h 0.3 v 0.1 0.05 0.95 0.05 0.9 h -0.1 q -0.55,0 -0.8,-0.5 l -0.05,-0.1 -24.9,0.2 m -21.85,2.85 0.2,1.35 q 0,2 -0.2,2.5 -0.6,1.5 -3,1.5 -2.45,0 -3.7,-2.3 -0.8,-1.45 -0.8,-2.6 l 0.15,-0.95 q 0.5,-1.65 2.95,-1.75 1.95,0.05 3.25,1.05 l 0.95,0.9 0.2,0.3 M -27.85,-7 -27.9,-8.95 h 17.1 l -0.25,0.5 -0.55,1.35 -7.35,0.05 -1.35,-0.6 Q -23.15,-8.6 -26.4,-7 h -1.45 m 25.9,-0.15 h -1.2 Q -3,-6.8 -3,-6.3 q 0,1.95 -3.05,2.1 h -0.4 q -2.05,0 -2.85,-1.15 -0.4,-0.6 -0.4,-1.3 l 0.05,-0.45 h -0.85 l 1.2,-1.85 h 7.6 l -0.1,0.8 -0.1,0.5 -0.05,0.5 M -12.7,3.15 h -0.35 -0.15 L -14.25,2 V 1.95 q -0.4,-0.5 -0.4,-1.05 0,-2.45 2.25,-1.55 l 0.1,0.05 q 1.15,0.45 1.7,1 v 0.45 q 0,0.75 -0.45,1.4 -0.55,0.8 -1.65,0.9"
         fill="#c6c6c6"
         fill-rule="evenodd"
         stroke="none"
         id="path44" />
      <path
         d="M 0.95,-7.15 V -7.95 -8.2 L 1,-8.95 h -2 l 0.15,0.75 0.1,1.05 v 0.9 1.65 L 1.35,-5.1 1,-6.15 l -0.05,-1 m 26.8,-1.8 -19,-0.05 -6.35,0.05 0.15,0.75 0.1,1.05 0.05,1.6 v 0.15 l 6.75,-1.05 h 19.1 L 28.5,-6.75 V -7.65 -7.7 -8.65 -8.7 -8.8 -8.95 h -0.75 m 1.55,-3.75 h 2.05 v 7.45 q -0.25,0.2 -0.6,0.3 -1.95,1.9 -6.1,1.25 H 12.6 Q 1.45,-2.9 -2,-0.75 q -1.6,0.95 -2.2,3.8 -0.35,1.5 -2.55,4.1 -2.7,3.2 -4.95,3.2 -4.4,0 -5.95,-0.75 -1.45,-0.7 -2.3,-0.75 l -0.2,0.05 -1.95,1.75 q -1.7,1.8 -3.55,1.8 h -0.65 l -2.05,0.3 -0.65,-0.05 -0.4,0.05 q -1.15,0 -1.5,-0.8 l -0.15,-0.9 0.15,-2.65 V -9.35 q -0.45,-0.45 -0.45,-1.3 0,-1.35 1.65,-1.75 h 58.8 l 0.2,-0.3 m -52.9,6.15 h -0.2 l -2.75,0.5 -1.3,0.35 0.1,15.8 0.4,-0.1 q 1.9,-0.3 3.5,-1.9 l 1.5,-1.7 0.35,-0.25 q 0.2,-1.95 1.85,-3.45 1.85,-1.75 1.85,-4.35 0,-1.4 -0.9,-2.65 l -0.2,-0.3 -0.95,-0.9 q -1.3,-1 -3.25,-1.05 m 12,-0.55 0.55,-1.35 0.25,-0.5 h -17.1 l 0.05,1.95 v 0.85 L -26.4,-7 q 3.25,-1.6 6.1,-0.65 l 1.35,0.6 0.35,0.2 q 2.3,1.6 2.3,5.15 0,2.3 -1.05,3.95 -0.85,1.35 -1.5,3.2 1.65,0.15 2.7,0.7 l 1.6,0.75 q 5.55,0 7.05,-3.15 0.65,-3.6 1.05,-4.5 h -0.1 L -8,-0.85 -9.25,-1.15 q 1,1.05 1,2.3 V 1.6 q -0.05,1.45 -0.45,2.15 -0.95,1.5 -3.75,1.5 -2.5,0 -3.45,-1.3 l -0.45,-1.4 q 0,-5.3 4.05,-5.05 l 1.15,0.25 -0.15,-0.2 q -0.85,-0.95 -0.85,-1.85 0,-1.3 0.55,-2.8 m 1.1,0 -0.25,1.25 q 0,1.35 0.5,1.85 1.1,1.05 5.15,1.45 l 2,-1.25 0.3,-0.15 0.8,-0.25 -0.1,-0.75 0.15,-2.2 0.05,-0.5 0.1,-0.5 0.1,-0.8 h -7.6 l -1.2,1.85 m -0.1,7.5 q -0.55,-0.55 -1.7,-1 l -0.1,-0.05 q -2.25,-0.9 -2.25,1.55 0,0.55 0.4,1.05 V 2 l 1.05,1.15 h 0.15 0.35 l 1.8,-0.1 q 0.75,-0.9 0.75,-1.7 0,-0.5 -0.45,-0.95"
         fill="#9a9a9a"
         fill-rule="evenodd"
         stroke="none"
         id="path45" />
      <path
         d="m -0.75,-7.15 h 1.7 l 0.05,1 0.35,1.05 -2.1,0.5 v -1.65 -0.9 m 3.4,0 24.9,-0.2 0.05,0.1 q 0.25,0.5 0.8,0.5 h 0.1 l 0.05,0.3 H 9.45 L 2.7,-5.4 V -5.55 L 2.65,-7.15 M -19.2,-4.3 q 0.9,1.25 0.9,2.65 0,2.6 -1.85,4.35 -1.65,1.5 -1.85,3.45 l -0.35,0.25 -1.5,1.7 q -1.6,1.6 -3.5,1.9 l -0.4,0.1 -0.1,-15.8 1.3,-0.35 2.75,-0.5 h 0.2 q -2.45,0.1 -2.95,1.75 l -0.15,0.95 q 0,1.15 0.8,2.6 1.25,2.3 3.7,2.3 2.4,0 3,-1.5 0.2,-0.5 0.2,-2.5 l -0.2,-1.35 m 7.6,-2.8 q -0.55,1.5 -0.55,2.8 0,0.9 0.85,1.85 l 0.15,0.2 -1.15,-0.25 q -4.05,-0.25 -4.05,5.05 l 0.45,1.4 q 0.95,1.3 3.45,1.3 2.8,0 3.75,-1.5 0.4,-0.7 0.45,-2.15 V 1.15 q 0,-1.25 -1,-2.3 l 1.25,0.3 1.45,0.1 h 0.1 Q -6.85,0.15 -7.5,3.75 -9,6.9 -14.55,6.9 l -1.6,-0.75 q -1.05,-0.55 -2.7,-0.7 0.65,-1.85 1.5,-3.2 1.05,-1.65 1.05,-3.95 0,-3.55 -2.3,-5.15 l -0.35,-0.2 7.35,-0.05 m -14.8,0.1 -1.45,0.85 V -7 h 1.45 m 24.45,-0.15 -0.15,2.2 0.1,0.75 -0.8,0.25 -0.3,0.15 -2,1.25 q -4.05,-0.4 -5.15,-1.45 -0.5,-0.5 -0.5,-1.85 l 0.25,-1.25 h 0.85 l -0.05,0.45 q 0,0.7 0.4,1.3 0.8,1.15 2.85,1.15 h 0.4 Q -3,-4.35 -3,-6.3 -3,-6.8 -3.15,-7.15 h 1.2 M -12.7,3.15 q 1.1,-0.1 1.65,-0.9 0.45,-0.65 0.45,-1.4 V 0.4 q 0.45,0.45 0.45,0.95 0,0.8 -0.75,1.7 l -1.8,0.1"
         fill="#bbbbbb"
         fill-rule="evenodd"
         stroke="none"
         id="path46" />
    </g>
    <g
       id="sprite2"
       transform="translate(33.45,3.05)">
      <use
         ffdec:characterId="1000"
         height="5.8000002"
         transform="translate(-33.45,-3.05)"
         width="65.199997"
         xlink:href="#shape3"
         id="use46" />
    </g>
    <g
       id="shape3"
       transform="translate(33.45,3.05)">
      <path
         d="m 13.2,-0.95 0.05,-0.15 h 1.4 l 0.15,0.05 -0.05,0.1 H 13.2 m 1.35,1.2 -0.05,0.6 H 12.85 L 13,0.4 V 0.25 h 1.55 m -3.3,-1.2 h -13.2 -11 V -1.1 l 11,0.05 13.2,-0.05 v 0.15 m -24.1,1.2 h 24 l 0.05,0.6 h -24.1 l 0.05,-0.6 m 29.15,-1.2 v -0.1 L 16.55,-1.1 H 24.2 L 29,-1.25 V -0.9 L 16.3,-0.95 M 29,0.15 v 1.1 l -9.85,-0.4 h -2.8 v -0.6 l 12.5,-0.1 H 29 M -30.7,-0.9 v -0.35 l 4.8,0.15 h 7.65 l 0.25,0.05 v 0.1 l -12.7,0.05 m 12.65,1.15 v 0.6 h -2.8 l -9.85,0.4 v -1.1 h 0.15 l 12.5,0.1 m 1.6,-1.2 -0.05,-0.1 0.15,-0.05 h 1.4 l 0.05,0.15 h -1.55 m 1.75,1.2 V 0.4 l 0.15,0.45 h -1.65 l -0.05,-0.6 h 1.55"
         fill="#bbbbbb"
         fill-rule="evenodd"
         stroke="none"
         id="path47" />
      <path
         d="m 14.75,-0.95 0.05,-0.1 -0.15,-0.05 h -1.4 L 13.2,-0.95 13,0.25 V 0.4 l -0.15,0.45 h 1.65 l 0.05,-0.6 0.2,-1.2 m -3.6,1.2 v -0.3 l 0.1,-0.9 V -1.1 l -13.2,0.05 -11,-0.05 v 0.15 l 0.1,0.9 v 0.3 l -0.05,0.6 H 11.2 L 11.15,0.25 M 29,-0.9 v -0.35 l -4.8,0.15 h -7.65 l -0.25,0.05 v 0.1 l 0.05,1.2 v 0.6 h 2.8 L 29,1.25 v -1.1 -0.5 -0.55 m 2.75,0.55 v 2 l -0.2,1.1 H -33.2 l -0.25,-1.1 v -2 q 0,-1.8 0.4,-2.7 H 31.4 q 0.35,0.9 0.35,2.7 M -30.7,-0.9 v 0.55 0.5 1.1 l 9.85,-0.4 h 2.8 v -0.6 l 0.05,-1.2 v -0.1 l -0.25,-0.05 h -7.65 l -4.8,-0.15 v 0.35 m 15.8,-0.05 -0.05,-0.15 h -1.4 l -0.15,0.05 0.05,0.1 0.2,1.2 0.05,0.6 h 1.65 L -14.7,0.4 V 0.25 l -0.2,-1.2"
         fill="#9a9a9a"
         fill-rule="evenodd"
         stroke="none"
         id="path48" />
      <path
         d="m 14.75,-0.95 -0.2,1.2 H 13 l 0.2,-1.2 h 1.55 m -3.5,0 -0.1,0.9 v 0.3 h -24 v -0.3 l -0.1,-0.9 h 11 13.2 M 29,-0.9 v 0.55 0.5 H 28.85 L 16.35,0.25 16.3,-0.95 29,-0.9 m -59.7,1.05 v -0.5 -0.55 l 12.7,-0.05 -0.05,1.2 -12.5,-0.1 h -0.15 m 14.25,-1.1 h 1.55 l 0.2,1.2 h -1.55 l -0.2,-1.2"
         fill="#c6c6c6"
         fill-rule="evenodd"
         stroke="none"
         id="path49" />
    </g>
    <g
       id="sprite3"
       transform="translate(39.3,51.75)">
      <use
         ffdec:characterId="986"
         height="103.55"
         transform="translate(-39.3,-51.75)"
         width="78.599998"
         xlink:href="#shape4"
         id="use49" />
    </g>
    <g
       id="shape4"
       transform="translate(39.3,51.75)">
      <path
         d="m -22.3,-48.5 1.5,1.8 0.2,0.2 0.05,0.05 1.95,2.2 q 0.5,1.1 2,2.1 l 0.05,0.05 0.15,0.15 0.3,0.3 1.35,2.75 0.05,0.1 0.95,1.95 0.1,0.15 q 3.65,5.65 8.25,5.65 3.4,0 8.35,-1.6 3.1,-1 6.85,-2.65 l 1.35,-0.6 4.85,-2.4 5.45,-3.05 3.4,-1.9 1.55,-0.9 0.75,-0.4 2.05,-0.7 q 1.15,0 1.7,1.3 0.35,0.9 0.35,2 l -1.05,6.85 q -0.75,3.8 -0.95,6.05 -1.35,4.95 -1.85,8.6 l -0.3,3.6 -0.3,2.95 -0.7,3.7 q -1.65,11.3 -1.65,15.6 0,1.3 0.45,4.05 0.25,2.45 -0.75,3.6 l -0.75,0.7 -4.65,0.75 -3.75,0.75 -0.4,0.1 -0.9,0.35 -0.4,0.4 Q 12.1,17.2 10.7,18 L 10.4,18.15 9.55,18.55 8.9,18.8 8.85,18.75 v -0.1 L 8.8,17.7 9.2,16.95 9,16.3 9.25,14.95 9.5,14.8 Q 9.7,12.05 11.25,4.25 l 1.05,-4.9 0.15,-0.55 3.65,-11.85 q 2.2,-7.25 3.9,-11.7 l -2.55,4.7 0.35,-1 2.25,-4.8 q 4.4,-9.1 4.4,-9.8 l -0.25,-0.6 -0.5,-0.15 q -2.2,3.1 -5.75,9.95 l -0.1,-0.3 0.05,-1.1 q -2.35,3.7 -5.25,7.3 -8.95,11.4 -14.3,11.4 -0.95,0 -1.45,-0.55 2.65,-1.15 6.95,-5.5 l 0.8,-0.8 2.7,-3.05 2.85,-3.9 1.45,-2.05 q 1.65,-2.15 4.65,-5.2 l 2.45,-2.5 0.75,-0.75 0.2,-0.2 3.15,-3.7 -2.85,1.4 0.15,-0.4 0.3,-0.55 -5,3.05 -4.95,2.9 -5.8,6.35 q -7.85,8.15 -9.95,8.15 -1.05,0 -2.2,-0.75 l -4.25,-8.9 q -2.6,-5.65 -5.15,-9.7 l -0.65,-0.95 -1.55,-2.2 h -0.45 l -0.05,0.65 v 0.05 l -0.1,0.45 0.75,2 1.85,5.05 0.2,0.5 2.5,6.75 1.75,4 q 2.9,6.2 5.2,8.65 l 0.2,0.7 0.75,1.35 q 1.95,3 4.95,3 4.25,0 6.25,-0.75 l 0.35,-0.1 0.4,0.1 1.25,0.45 -1.8,2.35 L 4.9,-3.7 Q 4.45,-2.5 3.25,-1 0.8,2.1 -2.95,2.1 -5.5,2.1 -7.6,-2.2 l -2.1,-5.75 -0.05,-0.1 q -1.55,-2.9 -2.6,-6.4 l -0.2,-0.45 -0.75,-1.4 -1.35,-4.8 q -1.7,-5.3 -3.95,-9.3 l -0.3,-0.5 -0.3,0.45 0.45,2.6 0.1,0.45 q -0.35,5.35 -2.2,20.65 l 0.4,12.85 q -0.5,7.3 -4.05,8.7 h -0.1 q -3.85,-0.5 -5.75,-2.35 -0.9,-1.45 -1.6,-2.2 l -0.3,-1.15 q 0,-8.65 3.05,-17.55 l 2.05,-5.25 0.1,-0.2 3.6,-8.1 q 1.5,-3.9 1.6,-7.05 0.55,-1.6 0.55,-2.4 l -0.15,-2.35 -0.05,-0.45 -0.25,-1.3 -0.45,-0.75 q 0,1.5 -0.3,3.4 l -0.25,0.15 q -1.1,1 -1.45,3.9 l -0.35,2.8 -0.1,0.15 -4,10.3 h 0.2 l 0.95,-1.7 -1.6,3.35 -3.9,8.55 -0.75,1.85 -0.35,1.3 -0.5,-0.8 -0.7,-1.1 q -1.15,-1.9 -1.15,-2.75 0,-0.65 5.85,-11.7 4.35,-10.3 4.35,-11.65 l 2.55,-11.25 0.45,-2.2 0.35,-2.25 0.1,-1.45 v -0.25 -0.8 l 0.5,-0.05 m 35.95,83.95 q -1.8,2.65 -2.7,2.8 l 1.4,-1.6 1.3,-1.2 m -33.45,12.5 -0.3,1.25 q 0.05,0.2 -0.7,0.2 h -0.1 l 1.1,-1.45 m 23.9,-87.65 1.35,-0.05 1.2,0.2 -2.55,-0.15 m -14.65,2.5 -0.15,-0.15 -1,-1.25 -0.05,-0.05 q 0.45,-0.05 0.5,-0.2 l 0.15,-0.6 q 2.7,0.75 4.8,0.65 l 13.2,0.85 h 0.7 0.35 l -0.5,0.2 -1.15,0.45 -0.55,0.2 q -3.35,1.3 -5.9,2.05 -5.7,-0.35 -9.45,-1.75 l -0.95,-0.4 m 32.9,54.3 2.75,-0.25 1.4,3.2 q 0.9,2.3 1.3,4.5 L 26.95,23.6 q -0.7,-0.55 -1.65,-0.75 l -2.95,-5.3 V 17.1 M 14.4,11.55 v -0.5 l -0.15,0.85 0.05,0.15 0.25,0.15 -0.15,-0.65 m 2,19.5 Q 14.05,32 11.65,34.3 l -0.9,0.95 0.8,-2.8 q 1.3,-2.9 5.3,-5.9 l 3.35,-2.2 h 2.35 L 23.6,25 20.5,27.5 q -2.9,2.15 -4.1,3.55 M -15.25,16.6 q 0.55,0.45 0.55,2.15 0,1.15 -0.45,2.6 -0.55,1.95 -1.5,2.1 l -0.5,1.2 -2.45,-0.3 h -0.05 -0.15 -0.4 l -0.85,-0.05 -0.8,0.05 -3.35,0.5 0.2,-1 V 23.8 l 0.35,-1.45 0.2,-1 0.4,-1.7 0.45,-2.2 0.85,0.05 1.7,0.1 h 0.6 0.25 l 2.4,-0.2 0.7,-0.1 0.05,-0.05 1.25,-0.45 0.55,-0.2 m -3.2,27.45 -2.35,1.5 0.1,-3.8 q 0.65,-4.15 3.4,-7.5 l 1.1,-1.1 1.7,0.85 0.35,0.55 -2.45,5.3 -1.85,4.2"
         fill="#c6c6c6"
         fill-rule="evenodd"
         stroke="none"
         id="path50" />
      <path
         d="m 26.8,-13.9 0.3,-2.95 0.3,-3.6 q 0.5,-3.65 1.85,-8.6 0.2,-2.25 0.95,-6.05 l 1.05,-6.85 q 0,-1.1 -0.35,-2 -0.55,-1.3 -1.7,-1.3 l -2.05,0.7 -0.75,0.4 -1.55,0.9 -3.4,1.9 -5.45,3.05 -4.85,2.4 -1.35,0.6 q -3.75,1.65 -6.85,2.65 -4.95,1.6 -8.35,1.6 -4.6,0 -8.25,-5.65 l -0.1,-0.15 -0.95,-1.95 -0.05,-0.1 -1.35,-2.75 -0.3,-0.3 -0.15,-0.15 -0.05,-0.05 q -1.5,-1 -2,-2.1 l -1.95,-2.2 -0.05,-0.05 -0.2,-0.2 -1.5,-1.8 -0.4,-0.5 -0.1,0.1 v 0.45 0.8 0.25 l -0.1,1.45 -0.35,2.25 -0.45,2.2 -2.55,11.25 q 0,1.35 -4.35,11.65 -5.85,11.05 -5.85,11.7 0,0.85 1.15,2.75 l 0.7,1.1 0.5,0.8 0.35,-1.3 0.75,-1.85 3.9,-8.55 1.6,-3.35 -0.95,1.7 h -0.2 l 4,-10.3 0.1,-0.15 0.35,-2.8 q 0.35,-2.9 1.45,-3.9 l 0.25,-0.15 q 0.3,-1.9 0.3,-3.4 l 0.45,0.75 0.25,1.3 0.05,0.45 0.15,2.35 q 0,0.8 -0.55,2.4 -0.1,3.15 -1.6,7.05 l -3.6,8.1 -0.1,0.2 -2.05,5.25 q -3.05,8.9 -3.05,17.55 l 0.3,1.15 q 0.7,0.75 1.6,2.2 1.9,1.85 5.75,2.35 h 0.1 l 0.7,0.1 2.4,0.1 3.55,-0.5 0.7,-0.2 q 1.15,-2.8 1.2,-6.55 -0.4,-6.25 0.05,-9.35 l -0.15,-0.8 0.2,-1.9 0.1,-6.8 0.2,-3.85 -1.35,-5 -1.75,-7.45 -0.1,-0.45 -0.45,-2.6 0.3,-0.45 0.3,0.5 q 2.25,4 3.95,9.3 l 1.35,4.8 1.3,5.4 q 1.7,7.45 3.6,12.45 l 0.75,1.9 0.15,0.15 -0.05,0.1 q 2.25,5.3 4.3,5.3 4.35,0 12,-16.55 5.35,-11.6 9.2,-18.9 3.55,-6.85 5.75,-9.95 l 0.5,0.15 0.25,0.6 q 0,0.7 -4.4,9.8 l -2.25,4.8 q -3.35,6.95 -4.4,9.5 Q 10.1,-3.7 6.6,2.2 4.2,6.1 2.15,8.4 v 0.65 l -0.05,3.3 q 0,2.15 1.65,3.55 L 6.4,15.6 q 0.55,-8.5 4.05,-19 2.85,-8.55 7,-16.65 l 2.55,-4.7 q -1.7,4.45 -3.9,11.7 L 12.45,-1.2 12.3,-0.65 Q 11.25,2.95 10.05,10.6 L 9.25,14.95 9,16.3 9.2,16.95 8.8,17.7 8.85,18.65 v 0.1 L 8.9,18.8 9.55,18.55 10.4,18.15 10.7,18 q 1.4,-0.8 2.6,-1.9 l 0.4,-0.4 0.9,-0.35 0.4,-0.1 3.75,-0.75 4.65,-0.75 3.9,0.15 2.7,-0.1 Q 28.7,12 27.5,5.35 q -1.1,-6.1 -1.1,-9.7 0,-5.3 0.4,-9.55 m -21.7,7.25 -0.35,0.1 q -2,0.75 -6.25,0.75 -3,0 -4.95,-3 l -0.75,-1.35 -0.2,-0.7 q -2.3,-2.45 -5.2,-8.65 l -1.75,-4 -2.5,-6.75 -0.2,-0.5 -1.85,-5.05 -0.75,-2 0.1,-0.45 v -0.05 l 0.05,-0.65 h 0.45 l 1.55,2.2 0.65,0.95 q 2.55,4.05 5.15,9.7 l 4.25,8.9 2.65,4.75 q 6.2,-3.7 13.4,-13.2 5.2,-6.85 11.4,-10.3 l 2.85,-1.4 -3.15,3.7 -0.2,0.2 -0.75,0.75 -2.45,2.5 q -3,3.05 -4.65,5.2 l -1.45,2.05 -2.85,3.9 -2.7,3.05 -0.8,0.8 q -4.3,4.35 -6.95,5.5 l -0.55,0.2 q 2.95,2.15 6.8,2.15 L 4.1,-7.6 5,-7.9 q 0.75,0 1,0.55 l -0.9,0.7 m 1.55,-32.9 4.85,0.1 2.15,-1 2.1,-1 1.35,-0.95 q 3.75,-2.5 6.9,-3.9 10.05,-4.45 10.05,3.95 0,2.65 -1.1,8 -0.7,3.15 -0.95,5.8 -0.85,1.7 -1.4,3.3 -0.85,3.65 -1.15,5.85 l 0.05,0.25 q -0.4,3.35 -0.4,5.9 0,9.4 0.4,12.75 l 1.3,7.65 0.2,0.6 2.6,6.25 q 0,1.95 -0.7,2.25 l -0.55,0.15 0.05,0.3 -0.2,-0.25 -4.85,0.25 0.45,0.85 0.6,1.75 q 2.1,4.45 2.1,8.65 l -0.15,2.7 q -0.55,2.1 -2.6,2.05 l -3,0.05 L 24,32.9 22.8,32.85 Q 22.6,33.2 22.55,32.8 l -3.65,0.05 q -3.2,0.9 -5.25,2.6 l -1.3,1.2 -1.4,1.6 -1,1.15 L 9.5,41 9.2,41.1 Q 8,40.7 7.65,39.35 l -0.1,-1.8 q 0,-3.6 3.05,-7.85 Q 13.25,26 17,24.3 L 9.05,23.9 Q 8.2,23.75 7.65,23.4 L 7.5,23.45 q -0.75,0 -0.9,-0.55 V 22.2 L 6.7,21.8 6.65,21.2 V 21.15 L 6.5,20.7 V 19.8 L 6.3,18.75 V 18.6 L 5,18.65 q -3.8,0 -4.85,-3.9 l -0.3,-3.7 0.05,-0.6 q -1.65,1.15 -3.1,1.15 l -1,-0.1 0.35,1.25 q 0.4,4.8 0.4,9.55 0,2.2 -0.6,3.7 -1.15,2.8 -4,2.95 0.85,2.05 0.85,3.6 0,1.8 -0.35,3.45 -0.45,1.9 -1.25,2.6 -0.4,1.3 -1.35,2.25 l -3.75,2.55 q -3.7,2.05 -5.9,4.55 l -1.1,1.45 -0.1,0.15 q -0.2,1.25 -0.7,2.1 l -0.3,-0.25 -0.2,0.35 -0.3,0.05 -0.25,-0.7 -0.3,-0.9 v -0.3 l -0.05,-1.2 q 0,-6.25 1.05,-9.6 1.3,-4.15 4.35,-6.65 l -4.85,-2.5 -3.6,-2.1 q -0.5,-0.1 -0.8,-0.55 l -0.3,-0.75 0.05,-0.3 -0.1,-0.55 -0.1,-1.7 0.55,-4.95 q 0.15,-1.2 0.6,-2.15 -2.7,-0.75 -4.65,-2.3 -1.8,-1.45 -2.3,-2.55 -0.9,-0.9 -1.3,-2.1 -0.4,-1.25 -0.4,-4.6 l 0.05,-1.3 -2.4,-4.5 q -2.05,-4.4 -2.05,-5.3 0,-2.2 5,-13.3 l 5.5,-12.15 3.2,-13.7 -0.15,-3.65 q 0,-1.7 1.05,-2.7 1.35,-1.25 3.45,0.5 1.1,0.7 2.15,2.45 l 0.8,0.75 0.15,-0.25 2,2.05 0.1,-0.3 0.25,0.55 q 1.9,1.45 4.8,2.6 6.05,2.5 15.1,3.2 l 2.55,0.15 m -6.8,4.5 q 2.55,-0.75 5.9,-2.05 l 0.55,-0.2 1.15,-0.45 0.5,-0.2 H 7.6 6.9 L -6.3,-38.8 q -2.1,0.1 -4.8,-0.65 l -0.15,0.6 q -0.05,0.15 -0.5,0.2 l 0.05,0.05 1,1.25 0.15,0.15 q 2.75,3.15 4.85,3.15 2.05,0 5.55,-1 m 39.25,29.5 0.2,0.2 v 0.25 l -0.25,-0.3 0.05,-0.15 m -13.8,28.4 q 0.95,0.2 1.65,0.75 l 0.85,0.95 q -0.4,-2.2 -1.3,-4.5 l -1.4,-3.2 -2.75,0.25 -4.45,0.75 q -1.4,0.5 -6,3.1 l -1.05,0.6 0.4,0.1 q 3.8,1.05 7.1,1.15 l 3.45,-0.1 0.45,0.05 0.5,0.05 2.55,0.05 M 23.6,25 22.55,24.35 H 20.2 l -3.35,2.2 q -4,3 -5.3,5.9 l -0.8,2.8 0.9,-0.95 q 2.4,-2.3 4.75,-3.25 1.3,-0.55 2.65,-0.7 l 5.25,-0.1 q 0.9,-1.1 0.9,-2.15 0,-1.5 -1.15,-2.7 L 23.6,25 m -40.75,-0.35 3.5,0.65 5.6,0.95 q 1.85,0 2.35,-5.85 l 0.15,-6 -0.25,-1.95 -0.3,-1.95 q -2.4,-1.9 -4.45,-7 -1.6,-3.9 -3.1,-10.6 l -0.4,1.4 -0.05,0.2 0.05,1.35 q 0.55,15.35 0.55,18.65 0,1 -0.75,1.6 l -1,0.5 -0.55,0.2 -1.25,0.45 -0.05,0.05 -0.7,0.1 -2.4,0.2 h -0.25 -0.6 l -1.7,-0.1 -0.85,-0.05 -0.45,2.2 -0.4,1.7 -0.2,1 -0.35,1.45 v 0.05 l -0.2,1 3.35,-0.5 0.8,-0.05 0.85,0.05 h 0.4 0.15 0.05 l 2.45,0.3 m 3,9.9 -0.35,-0.55 -1.7,-0.85 -1.1,1.1 q -2.75,3.35 -3.4,7.5 l -0.1,3.8 2.35,-1.5 0.55,-0.3 q 4.05,-2.25 6.45,-5.05 l -2.7,-4.15 m 4.05,-6 -4.45,-0.65 -2.9,-0.5 -2,-0.4 -2.8,0.15 q 1.45,0.6 4.55,1.95 1.15,0.5 2.1,1.2 2.15,0.15 4.2,3.25 l 1.1,1.8 0.25,-0.55 q 0.6,-0.9 0.6,-2.15 0,-1.25 -0.45,-3.15 l -0.2,-0.95"
         fill="#9a9a9a"
         fill-rule="evenodd"
         stroke="none"
         id="path51" />
      <path
         d="m -13.3,-16.3 0.75,1.4 0.2,0.45 q 1.05,3.5 2.6,6.4 l 0.05,0.1 2.1,5.75 q 2.1,4.3 4.65,4.3 3.75,0 6.2,-3.1 1.2,-1.5 1.65,-2.7 L 4.95,-3.75 6.75,-6.1 5.5,-6.55 5.1,-6.65 6,-7.35 Q 5.75,-7.9 5,-7.9 l -0.9,0.3 -0.95,0.25 q -3.85,0 -6.8,-2.15 l 0.55,-0.2 q 0.5,0.55 1.45,0.55 5.35,0 14.3,-11.4 2.9,-3.6 5.25,-7.3 l -0.05,1.1 0.1,0.3 q -3.85,7.3 -9.2,18.9 Q 1.1,9 -3.25,9 -5.3,9 -7.55,3.7 L -7.5,3.6 -7.65,3.45 -8.4,1.55 q -1.9,-5 -3.6,-12.45 l -1.3,-5.4 m 5.85,-0.9 q 1.15,0.75 2.2,0.75 2.1,0 9.95,-8.15 l 5.8,-6.35 4.95,-2.9 5,-3.05 -0.3,0.55 -0.15,0.4 q -6.2,3.45 -11.4,10.3 -7.2,9.5 -13.4,13.2 l -2.65,-4.75 m 25.25,-3.85 -0.35,1 q -4.15,8.1 -7,16.65 -3.5,10.5 -4.05,19 L 3.75,15.9 Q 2.1,14.5 2.1,12.35 L 2.15,9.05 V 8.4 Q 4.2,6.1 6.6,2.2 q 3.5,-5.9 6.8,-13.75 1.05,-2.55 4.4,-9.5 m 5.6,34.8 0.75,-0.7 q 1,-1.15 0.75,-3.6 -0.45,-2.75 -0.45,-4.05 0,-4.3 1.65,-15.6 l 0.7,-3.7 q -0.4,4.25 -0.4,9.55 0,3.6 1.1,9.7 1.2,6.65 2.5,8.45 l -2.7,0.1 -3.9,-0.15 m -33.95,-50.95 0.95,0.4 q 3.75,1.4 9.45,1.75 -3.5,1 -5.55,1 -2.1,0 -4.85,-3.15 m 32.9,54.3 v 0.45 l 2.95,5.3 -2.55,-0.05 -0.5,-0.05 -0.45,-0.05 -3.45,0.1 q -3.3,-0.1 -7.1,-1.15 l -0.4,-0.1 1.05,-0.6 q 4.6,-2.6 6,-3.1 l 4.45,-0.75 m 1.25,7.9 0.45,0.4 q 1.15,1.2 1.15,2.7 0,1.05 -0.9,2.15 l -5.25,0.1 q -1.35,0.15 -2.65,0.7 1.2,-1.4 4.1,-3.55 L 23.6,25 m -38.85,-8.4 1,-0.5 q 0.75,-0.6 0.75,-1.6 0,-3.3 -0.55,-18.65 l -0.05,-1.35 0.05,-0.2 0.4,-1.4 q 1.5,6.7 3.1,10.6 2.05,5.1 4.45,7 l 0.3,1.95 0.25,1.95 -0.15,6 q -0.5,5.85 -2.35,5.85 l -5.6,-0.95 -3.5,-0.65 0.5,-1.2 q 0.95,-0.15 1.5,-2.1 0.45,-1.45 0.45,-2.6 0,-1.7 -0.55,-2.15 m -3.2,27.45 1.85,-4.2 2.45,-5.3 2.7,4.15 q -2.4,2.8 -6.45,5.05 l -0.55,0.3 m 8.35,-15.5 0.2,0.95 q 0.45,1.9 0.45,3.15 0,1.25 -0.6,2.15 l -0.25,0.55 -1.1,-1.8 q -2.05,-3.1 -4.2,-3.25 -0.95,-0.7 -2.1,-1.2 -3.1,-1.35 -4.55,-1.95 l 2.8,-0.15 2,0.4 2.9,0.5 4.45,0.65"
         fill="#bbbbbb"
         fill-rule="evenodd"
         stroke="none"
         id="path52" />
      <path
         d="m -24.5,14.8 q 3.55,-1.4 4.05,-8.7 l -0.4,-12.85 q 1.85,-15.3 2.2,-20.65 l 1.75,7.45 1.35,5 -0.2,3.85 -0.1,6.8 -0.2,1.9 0.15,0.8 q -0.45,3.1 -0.05,9.35 -0.05,3.75 -1.2,6.55 l -0.7,0.2 -3.55,0.5 -2.4,-0.1 -0.7,-0.1"
         fill="#c0c0c0"
         fill-rule="evenodd"
         stroke="none"
         id="path53" />
    </g>
    <g
       id="sprite4"
       transform="translate(33.45,3.05)">
      <use
         ffdec:characterId="1000"
         height="5.8000002"
         transform="translate(-33.45,-3.05)"
         width="65.199997"
         xlink:href="#shape5"
         id="use53" />
    </g>
    <g
       id="shape5"
       transform="translate(33.45,3.05)">
      <path
         d="m 13.2,-0.95 0.05,-0.15 h 1.4 l 0.15,0.05 -0.05,0.1 H 13.2 m 1.35,1.2 -0.05,0.6 H 12.85 L 13,0.4 V 0.25 h 1.55 m -3.3,-1.2 h -13.2 -11 V -1.1 l 11,0.05 13.2,-0.05 v 0.15 m -24.1,1.2 h 24 l 0.05,0.6 h -24.1 l 0.05,-0.6 m 29.15,-1.2 v -0.1 L 16.55,-1.1 H 24.2 L 29,-1.25 V -0.9 L 16.3,-0.95 M 29,0.15 v 1.1 l -9.85,-0.4 h -2.8 v -0.6 l 12.5,-0.1 H 29 M -30.7,-0.9 v -0.35 l 4.8,0.15 h 7.65 l 0.25,0.05 v 0.1 l -12.7,0.05 m 12.65,1.15 v 0.6 h -2.8 l -9.85,0.4 v -1.1 h 0.15 l 12.5,0.1 m 1.6,-1.2 -0.05,-0.1 0.15,-0.05 h 1.4 l 0.05,0.15 h -1.55 m 1.75,1.2 V 0.4 l 0.15,0.45 h -1.65 l -0.05,-0.6 h 1.55"
         fill="#c2c2c2"
         fill-rule="evenodd"
         stroke="none"
         id="path54" />
      <path
         d="m 14.75,-0.95 0.05,-0.1 -0.15,-0.05 h -1.4 L 13.2,-0.95 13,0.25 V 0.4 l -0.15,0.45 h 1.65 l 0.05,-0.6 0.2,-1.2 m -3.6,1.2 v -0.3 l 0.1,-0.9 V -1.1 l -13.2,0.05 -11,-0.05 v 0.15 l 0.1,0.9 v 0.3 l -0.05,0.6 H 11.2 L 11.15,0.25 M 29,-0.9 v -0.35 l -4.8,0.15 h -7.65 l -0.25,0.05 v 0.1 l 0.05,1.2 v 0.6 h 2.8 L 29,1.25 v -1.1 -0.5 -0.55 m 2.75,0.55 v 2 l -0.2,1.1 H -33.2 l -0.25,-1.1 v -2 q 0,-1.8 0.4,-2.7 H 31.4 q 0.35,0.9 0.35,2.7 M -30.7,-0.9 v 0.55 0.5 1.1 l 9.85,-0.4 h 2.8 v -0.6 l 0.05,-1.2 v -0.1 l -0.25,-0.05 h -7.65 l -4.8,-0.15 v 0.35 m 15.8,-0.05 -0.05,-0.15 h -1.4 l -0.15,0.05 0.05,0.1 0.2,1.2 0.05,0.6 h 1.65 L -14.7,0.4 V 0.25 l -0.2,-1.2"
         fill="#6b6b6b"
         fill-rule="evenodd"
         stroke="none"
         id="path55" />
      <path
         d="m 14.75,-0.95 -0.2,1.2 H 13 l 0.2,-1.2 h 1.55 m -3.5,0 -0.1,0.9 v 0.3 h -24 v -0.3 l -0.1,-0.9 h 11 13.2 M 29,-0.9 v 0.55 0.5 H 28.85 L 16.35,0.25 16.3,-0.95 29,-0.9 m -59.7,1.05 v -0.5 -0.55 l 12.7,-0.05 -0.05,1.2 -12.5,-0.1 h -0.15 m 14.25,-1.1 h 1.55 l 0.2,1.2 h -1.55 l -0.2,-1.2"
         fill="#e0e0e0"
         fill-rule="evenodd"
         stroke="none"
         id="path56" />
    </g>
    <g
       id="sprite5"
       transform="translate(8.4,47.75)">
      <use
         ffdec:characterId="988"
         height="95.550003"
         transform="translate(-8.4,-47.75)"
         width="16.799999"
         xlink:href="#shape6"
         id="use56" />
    </g>
    <g
       id="shape6"
       transform="translate(8.4,47.75)">
      <path
         d="m 0.35,-45.3 0.4,1.85 0.1,3.65 v 14.7 l 0.2,1.35 0.05,0.4 H 1.05 l -2.25,-0.1 0.15,-1.75 v -14.6 l 0.3,-5.5 h 0.7 0.4 m -1.65,23.5 2.2,-0.1 h 0.3 l 0.05,1.05 h -0.5 l -2.1,-0.05 0.05,-0.9 m -0.15,2.9 2.2,-0.05 0.6,-0.05 v 0.65 0.4 q 2.4,0.8 2.7,3 v 0.5 0.5 q -0.15,1 -0.8,1.75 -0.75,0.85 -1.9,1.1 v 1.85 H 1.3 L 0.75,-9.3 H 0.2 -0.6 -1.55 v -1.85 L -3,-12 l -0.65,-1.1 -0.3,-2.25 q 0,-2.75 2.5,-2.95 v -0.6 M 1.3,12.3 H -1.45 V 11.95 L -1.5,0 V -0.45 -2.3 -2.65 l -0.05,-4.6 h 0.4 l 0.3,-0.05 1.2,-0.05 h 0.4 L 1.2,-7.4 H 1.35 L 1.3,12.3 m 0,6.45 H 0.55 L -0.2,18.7 -1.35,18.75 -1.45,18.5 V 17.85 L -2,17.75 -2.6,17.25 -2.75,17.15 -2.8,17.1 -3.3,16.65 -3.6,15.45 q 0.45,-0.2 0.85,-0.75 l 0.45,-0.8 h 3.6 v 0.05 q 1.05,0.4 1.05,1.3 0,0.5 -1.05,1.25 v 2.25 M 1.25,25.8 V 26 26.35 L 1.2,29.1 1.25,30.8 v 1.25 2.75 L 1.2,42.45 H 0.25 -1.4 V 40.8 40.7 l 0.1,-2.3 0.05,-5.5 0.05,-3.8 v -0.5 l -0.1,-3.95 -0.15,-2.2 V 22.3 20.5 H 1.3 L 1.25,25.8 M 0.8,44.95 -0.1,44.9 h -1.05 l -0.25,-0.65 0.05,-0.2 H 1.1 l -0.3,0.9"
         fill="#e0e0e0"
         fill-rule="evenodd"
         stroke="none"
         id="path57" />
      <path
         d="M 0.35,-45.3 3,-45.45 q -0.35,2.1 -0.35,6.55 l 0.05,9.7 0.05,0.8 q 0.1,2.8 0.35,5.15 l -2,-0.1 -0.05,-0.4 -0.2,-1.35 v -14.7 l -0.1,-3.65 -0.4,-1.85 m -1.55,21.85 -1.85,-0.1 q 0.25,-2.55 0.35,-5.65 l 0.05,-9.7 q 0,-4.3 -0.3,-6.4 h 2.2 l -0.3,5.5 v 14.6 l -0.15,1.75 m -0.1,1.65 -0.05,0.9 h -1.2 -0.3 l -0.5,-0.6 0.05,-0.3 h 1 1 m 2.55,0.95 -0.05,-1.05 2.05,-0.1 0.1,0.5 -0.6,0.7 -1.5,-0.05 m -2.7,1.95 v 0.6 q -2.5,0.2 -2.5,2.95 l 0.3,2.25 0.65,1.1 1.45,0.85 v 1.85 l -1.8,0.05 -0.3,-0.25 q -1.45,-1.15 -1.45,-3.3 0,-2.4 1.45,-4.65 l 0.9,-1.45 h 0.3 1 m 2.8,9.65 v -1.85 q 1.15,-0.25 1.9,-1.1 0.65,-0.75 0.8,-1.75 v -0.5 -0.5 q -0.3,-2.2 -2.7,-3 v -0.4 -0.65 l 1.25,-0.15 1.05,1.7 0.4,0.65 q 1.05,1.95 1.05,4 0,1.85 -1.05,2.95 l -0.4,0.35 -0.3,0.3 -2,-0.05 m 0,1.85 0.5,-0.1 0.45,-0.05 -0.2,0.6 Q 1.8,-6 1.65,-4.7 l -0.1,3.2 0.1,5.15 v 5.8 l 0.2,2.85 H 1.3 L 1.35,-7.4 M -1.6,12.3 h -0.25 l 0.2,-2.85 V 3.65 L -1.6,2.2 -1.5,0 -1.45,11.95 -1.6,12.3 m 0.1,-14.95 -0.15,-2.05 -0.5,-2.55 h 0.6 l 0.05,4.6 M 1.3,13.9 h 1 l 0.45,0.8 q 0.55,0.7 1.1,0.8 L 3.4,16.6 2.6,17.25 2.15,17.65 Q 1.5,18.2 1.4,18.75 H 1.3 V 16.5 q 1.05,-0.75 1.05,-1.25 0,-0.9 -1.05,-1.3 V 13.9 m -2.75,4.6 -0.55,-0.75 0.55,0.1 V 18.5 M -3.3,16.65 q -0.55,-0.6 -0.55,-1.15 l 0.25,-0.05 0.3,1.2 m 4.6,3.85 h 0.15 l 0.2,-0.1 -0.2,2.05 -0.2,3.35 0.05,-5.3 M 1.25,34.8 1.3,38.35 v 0.05 l 0.25,4.05 H 1.2 L 1.25,34.8 m -2.65,7.65 h -0.1 l 0.05,-0.7 v -0.4 L -1.4,40.8 v 1.65 M -1.45,22.3 -1.6,20.7 -1.65,20.5 h 0.2 v 1.8 M 1.85,45 1.8,45.1 0.8,44.95 1.1,44.05 H 1.7 L 1.85,45 m -3,-0.1 -0.65,0.05 0.1,-0.75 v -0.15 h 0.35 l -0.05,0.2 0.25,0.65"
         fill="#c2c2c2"
         fill-rule="evenodd"
         stroke="none"
         id="path58" />
      <path
         d="m 1.1,-23.35 2,0.1 Q 2.85,-25.6 2.75,-28.4 L 2.7,-29.2 2.65,-38.9 q 0,-4.45 0.35,-6.55 l -2.65,0.15 h -0.4 -0.7 -2.2 q 0.3,2.1 0.3,6.4 l -0.05,9.7 q -0.1,3.1 -0.35,5.65 l 1.85,0.1 2.25,0.1 H 1.1 m 4.85,-20.5 0.05,3.2 v 18.7 l 1.5,3.35 q 0.9,1.8 0.9,3.35 0,5.7 -1.75,8.05 Q 4.9,-4.85 4.9,3.25 v 6.2 q 0,2.35 1.15,3.35 1.1,1.05 1.1,2.45 0,1.15 -0.8,2.9 Q 5.5,20 4.2,20.5 q 0.35,1.4 0.5,3.6 l 0.05,5.05 v 9.5 q -0.3,9 -1.75,9 H 2.85 L 0.2,47.8 -2.7,47.55 -3,47.65 -3.55,47.25 -3.75,47.1 -3.95,46.35 V 46.3 L -4.4,43.75 -4.65,43.45 Q -4.9,42.85 -4.6,42.7 h 0.1 l -0.25,-4.05 v -9.5 L -4.7,24.1 q 0.15,-2.2 0.5,-3.6 -1.3,-0.5 -2.15,-2.35 -0.8,-1.75 -0.8,-2.9 0,-1.4 1.1,-2.45 1.15,-1 1.15,-3.35 v -6.2 q 0,-8.1 -1.75,-10.45 -1.75,-2.35 -1.75,-8.05 0,-1.55 0.9,-3.35 l 1.5,-3.35 v -0.15 l -0.5,-0.85 0.5,-0.2 v -17.5 l 0.05,-3.2 q 0.1,-1.65 0.9,-2.5 L -5.1,-46.6 q 0,-0.7 0.45,-0.9 l 2.7,-0.25 6.4,0.4 q 0.45,0.1 0.45,0.8 0.95,0.85 1.05,2.7 M 1.2,-21.9 H 0.9 l -2.2,0.1 h -1 -1 l -0.05,0.3 0.5,0.6 h 0.3 1.2 l 2.1,0.05 h 0.5 l 1.5,0.05 0.6,-0.7 -0.1,-0.5 -2.05,0.1 m 0.15,2.9 -0.6,0.05 -2.2,0.05 h -1 -0.3 l -0.9,1.45 q -1.45,2.25 -1.45,4.65 0,2.15 1.45,3.3 l 0.3,0.25 1.8,-0.05 h 0.95 0.8 0.55 l 0.55,0.05 h 0.05 l 2,0.05 0.3,-0.3 0.4,-0.35 q 1.05,-1.1 1.05,-2.95 0,-2.05 -1.05,-4 L 3.65,-17.45 2.6,-19.15 1.35,-19 M 1.3,12.3 H 1.85 L 1.65,9.45 V 3.65 L 1.55,-1.5 1.65,-4.7 Q 1.8,-6 2.1,-6.95 l 0.2,-0.6 -0.45,0.05 -0.5,0.1 H 1.2 l -0.45,0.05 h -0.4 l -1.2,0.05 -0.3,0.05 h -0.4 -0.6 l 0.5,2.55 0.15,2.05 V -2.3 -0.45 0 l -0.1,2.2 -0.05,1.45 v 5.8 l -0.2,2.85 h 0.25 0.15 2.75 m 0,6.45 H 1.4 Q 1.5,18.2 2.15,17.65 L 2.6,17.25 3.4,16.6 3.85,15.5 Q 3.3,15.4 2.75,14.7 L 2.3,13.9 h -1 -3.6 l -0.45,0.8 q -0.4,0.55 -0.85,0.75 l -0.25,0.05 q 0,0.55 0.55,1.15 l 0.5,0.45 0.05,0.05 0.15,0.1 0.6,0.5 0.55,0.75 0.1,0.25 1.15,-0.05 0.75,0.05 H 1.3 m -0.05,7.05 0.2,-3.35 0.2,-2.05 -0.2,0.1 H 1.3 -1.45 -1.65 l 0.05,0.2 0.15,1.6 v 0.15 l 0.15,2.2 0.1,3.95 v 0.5 l -0.05,3.8 -0.05,5.5 -0.1,2.3 v 0.1 l -0.05,0.55 v 0.4 l -0.05,0.7 H -1.4 0.25 1.2 1.55 L 1.3,38.4 V 38.35 L 1.25,34.8 V 32.05 30.8 L 1.2,29.1 1.25,26.35 V 26 25.8 M 1.8,45.1 H 1.85 V 45 L 1.7,44.05 H 1.1 -1.35 -1.7 v 0.15 l -0.1,0.75 0.65,-0.05 h 1.05 l 0.9,0.05 1,0.15"
         fill="#6b6b6b"
         fill-rule="evenodd"
         stroke="none"
         id="path59" />
    </g>
    <g
       id="sprite6"
       transform="translate(8,31.95)">
      <use
         ffdec:characterId="1004"
         height="65.25"
         transform="translate(-8,-31.95)"
         width="16.049999"
         xlink:href="#shape7"
         id="use59" />
    </g>
    <g
       id="shape7"
       transform="translate(8,31.95)">
      <path
         d="m 6.8,-31.6 q 1.3,4.05 1.25,20.35 0,10.3 -0.4,24 L 7.7,23.5 q -0.15,6.65 -0.75,9 L 6.75,33.15 -8,33.3 -7.95,28.05 -8,21.8 v -0.9 q 0.6,-6.5 3,-13.1 3.25,-8.8 3.25,-22.5 l 0.3,-12.1 -0.65,-0.7 0.4,-0.1 0.3,-0.25 v -0.05 l 0.35,-3.55 -0.05,-0.05 -0.1,-0.45 h 8.05 l 0.05,0.1 -0.1,0.25 m -6.1,2.55 0.1,0.6 v 0.1 h 4.45 l 0.5,0.35 v -0.2 L 5.9,-29.85 5.55,-29.7 H 0.6 l 0.1,0.65 m 3.4,2.4 H 2.9 0.85 l 0.1,4.4 0.45,13.05 1,-0.4 0.8,-0.05 0.8,0.15 0.1,0.05 h 0.05 l 0.55,0.3 0.4,0.3 v -1.3 -0.2 L 5.7,-26.9 5.25,-26.65 H 4.1 M 1.5,-6.25 V -5.7 L 1.35,-3.95 V -3.9 Q 1.8,-3 2.55,-3 H 2.7 Q 4.35,-3.05 4.8,-4.1 L 4.95,-5.25 Q 4.95,-7 3.55,-7.3 l -0.5,-0.1 h -0.1 q -1,0 -1.5,0.45 l 0.05,0.7 M 1.85,-1.3 1.75,-1.35 Q 1.3,-1.55 0.9,-1.9 l -0.3,1 q -0.9,3.25 -0.9,4.85 0,1.1 -1.95,6.3 L -3.7,14.4 h 4.95 2.8 l 0.2,0.05 0.45,0.1 V 12.7 L 4.9,-1.25 3.8,-1 H 3.4 L 2.55,-1.1 q -0.4,-0.05 -0.7,-0.2 m -1.2,32.5 h 2.1 l 2.5,0.2 Q 4.85,28.75 4.7,23.1 V 18.2 L 1.3,18.45 0.95,18.5 -0.4,18.55 -2.2,18.7 h -0.55 l -1,0.05 H -4.8 V 31.2 h 2.9 2.55 m -0.4,-14 4.45,0.1 v -1.7 l -0.65,0.15 h -8.1 l -0.15,0.9 v 0.4 l 2.85,0.1 1.6,0.05"
         fill="#6b6b6b"
         fill-rule="evenodd"
         stroke="none"
         id="path60" />
      <path
         d="M 0.7,-29.05 0.6,-29.7 h 4.95 l 0.35,-0.15 -0.15,1.65 v 0.2 l -0.5,-0.35 H 0.8 v -0.1 l -0.1,-0.6 m 3.45,19.6 Q 4.8,-9.85 4.8,-11.2 L 4.65,-13.5 V -25.15 L 4.3,-26.3 4.1,-26.65 H 5.25 L 5.7,-26.9 5.1,-10.35 v 0.2 l -0.4,1 -0.55,-0.3 M 2.9,-26.65 2.7,-26.4 2.55,-26.1 2.15,-25.35 2,-11.2 v 1 l 0.4,0.6 -1,0.4 -0.45,-13.05 -0.1,-4.4 H 2.9 m -1.4,20.4 -0.05,-0.7 q 0.5,-0.45 1.5,-0.45 h 0.1 l 0.5,0.1 q 1.4,0.3 1.4,2.05 L 4.8,-4.1 Q 4.35,-3.05 2.7,-3 H 2.55 Q 1.8,-3 1.35,-3.9 V -3.95 L 1.5,-5.7 V -6.25 M 1.85,-1.3 1.8,-1.05 Q 0.9,2.2 0.9,12.7 l 0.05,1.1 0.3,0.6 H -3.7 l 1.45,-4.15 q 1.95,-5.2 1.95,-6.3 0,-1.6 0.9,-4.85 l 0.3,-1 q 0.4,0.35 0.85,0.55 l 0.1,0.05 m 2.4,15.75 q 0.4,-0.6 0.4,-1.7 Q 4.65,2.3 3.8,-1 L 4.9,-1.25 4.7,12.7 v 1.85 L 4.25,14.45 M 0.95,18.5 1.3,18.45 4.7,18.2 v 4.9 q 0.15,5.65 0.55,8.3 L 2.75,31.2 H 0.65 Q 1.4,30.75 1.7,29.6 l 0.1,-2.1 q 0,-6.45 -0.85,-9 M -1.9,31.2 H -4.8 V 18.75 h 1.05 l 1,-0.05 h 0.55 q -0.5,1.6 -0.65,4.6 l -0.15,4.2 0.05,2.1 q 0.25,1.15 1.05,1.6 m 2.15,-14 -0.1,-0.1 q -0.35,-0.3 -0.75,-0.3 -0.4,0 -0.75,0.35 l -2.85,-0.1 v -0.4 l 0.15,-0.9 h 8.1 L 4.7,15.6 v 1.7 L 0.25,17.2"
         fill="#c2c2c2"
         fill-rule="evenodd"
         stroke="none"
         id="path61" />
      <path
         d="m 4.1,-26.65 0.2,0.35 0.35,1.15 v 11.65 l 0.15,2.3 q 0,1.35 -0.65,1.75 H 4.1 L 4,-9.5 3.2,-9.65 2.4,-9.6 2,-10.2 v -1 l 0.15,-14.15 0.4,-0.75 0.15,-0.3 0.2,-0.25 H 4.1 M 1.25,14.4 0.95,13.8 0.9,12.7 Q 0.9,2.2 1.8,-1.05 L 1.85,-1.3 q 0.3,0.15 0.7,0.2 L 3.4,-1 h 0.4 q 0.85,3.3 0.85,13.75 0,1.1 -0.4,1.7 L 4.05,14.4 h -2.8 m -0.3,4.1 q 0.85,2.55 0.85,9 L 1.7,29.6 Q 1.4,30.75 0.65,31.2 H -1.9 Q -2.7,30.75 -2.95,29.6 L -3,27.5 -2.85,23.3 q 0.15,-3 0.65,-4.6 l 1.8,-0.15 1.35,-0.05 m -2.3,-1.35 Q -1,16.8 -0.6,16.8 q 0.4,0 0.75,0.3 l 0.1,0.1 -1.6,-0.05"
         fill="#e0e0e0"
         fill-rule="evenodd"
         stroke="none"
         id="path62" />
    </g>
    <g
       id="sprite7"
       transform="translate(31.35,12.7)">
      <use
         ffdec:characterId="1006"
         height="25.450001"
         transform="translate(-31.35,-12.7)"
         width="62.700001"
         xlink:href="#shape8"
         id="use62" />
    </g>
    <g
       id="shape8"
       transform="translate(31.35,12.7)">
      <path
         d="M -0.75,-7.15 -0.85,-8.2 -1,-8.95 H 1 L 0.95,-8.2 v 0.25 0.8 h -1.7 m 3.4,0 L 2.55,-8.2 2.4,-8.95 8.75,-9 l 19,0.05 0.45,0.15 h 0.3 v 0.1 0.05 0.95 0.05 0.9 h -0.1 q -0.55,0 -0.8,-0.5 l -0.05,-0.1 -24.9,0.2 m -21.85,2.85 0.2,1.35 q 0,2 -0.2,2.5 -0.6,1.5 -3,1.5 -2.45,0 -3.7,-2.3 -0.8,-1.45 -0.8,-2.6 l 0.15,-0.95 q 0.5,-1.65 2.95,-1.75 1.95,0.05 3.25,1.05 l 0.95,0.9 0.2,0.3 M -27.85,-7 -27.9,-8.95 h 17.1 l -0.25,0.5 -0.55,1.35 -7.35,0.05 -1.35,-0.6 Q -23.15,-8.6 -26.4,-7 h -1.45 m 25.9,-0.15 h -1.2 Q -3,-6.8 -3,-6.3 q 0,1.95 -3.05,2.1 h -0.4 q -2.05,0 -2.85,-1.15 -0.4,-0.6 -0.4,-1.3 l 0.05,-0.45 h -0.85 l 1.2,-1.85 h 7.6 l -0.1,0.8 -0.1,0.5 -0.05,0.5 M -12.7,3.15 h -0.35 -0.15 L -14.25,2 V 1.95 q -0.4,-0.5 -0.4,-1.05 0,-2.45 2.25,-1.55 l 0.1,0.05 q 1.15,0.45 1.7,1 v 0.45 q 0,0.75 -0.45,1.4 -0.55,0.8 -1.65,0.9"
         fill="#e0e0e0"
         fill-rule="evenodd"
         stroke="none"
         id="path63" />
      <path
         d="M 0.95,-7.15 V -7.95 -8.2 L 1,-8.95 h -2 l 0.15,0.75 0.1,1.05 v 0.9 1.65 L 1.35,-5.1 1,-6.15 l -0.05,-1 m 26.8,-1.8 -19,-0.05 -6.35,0.05 0.15,0.75 0.1,1.05 0.05,1.6 v 0.15 l 6.75,-1.05 h 19.1 L 28.5,-6.75 V -7.65 -7.7 -8.65 -8.7 -8.8 -8.95 h -0.75 m 1.55,-3.75 h 2.05 v 7.45 q -0.25,0.2 -0.6,0.3 -1.95,1.9 -6.1,1.25 H 12.6 Q 1.45,-2.9 -2,-0.75 q -1.6,0.95 -2.2,3.8 -0.35,1.5 -2.55,4.1 -2.7,3.2 -4.95,3.2 -4.4,0 -5.95,-0.75 -1.45,-0.7 -2.3,-0.75 l -0.2,0.05 -1.95,1.75 q -1.7,1.8 -3.55,1.8 h -0.65 l -2.05,0.3 -0.65,-0.05 -0.4,0.05 q -1.15,0 -1.5,-0.8 l -0.15,-0.9 0.15,-2.65 V -9.35 q -0.45,-0.45 -0.45,-1.3 0,-1.35 1.65,-1.75 h 58.8 l 0.2,-0.3 m -52.9,6.15 h -0.2 l -2.75,0.5 -1.3,0.35 0.1,15.8 0.4,-0.1 q 1.9,-0.3 3.5,-1.9 l 1.5,-1.7 0.35,-0.25 q 0.2,-1.95 1.85,-3.45 1.85,-1.75 1.85,-4.35 0,-1.4 -0.9,-2.65 l -0.2,-0.3 -0.95,-0.9 q -1.3,-1 -3.25,-1.05 m 12,-0.55 0.55,-1.35 0.25,-0.5 h -17.1 l 0.05,1.95 v 0.85 L -26.4,-7 q 3.25,-1.6 6.1,-0.65 l 1.35,0.6 0.35,0.2 q 2.3,1.6 2.3,5.15 0,2.3 -1.05,3.95 -0.85,1.35 -1.5,3.2 1.65,0.15 2.7,0.7 l 1.6,0.75 q 5.55,0 7.05,-3.15 0.65,-3.6 1.05,-4.5 h -0.1 L -8,-0.85 -9.25,-1.15 q 1,1.05 1,2.3 V 1.6 q -0.05,1.45 -0.45,2.15 -0.95,1.5 -3.75,1.5 -2.5,0 -3.45,-1.3 l -0.45,-1.4 q 0,-5.3 4.05,-5.05 l 1.15,0.25 -0.15,-0.2 q -0.85,-0.95 -0.85,-1.85 0,-1.3 0.55,-2.8 m 1.1,0 -0.25,1.25 q 0,1.35 0.5,1.85 1.1,1.05 5.15,1.45 l 2,-1.25 0.3,-0.15 0.8,-0.25 -0.1,-0.75 0.15,-2.2 0.05,-0.5 0.1,-0.5 0.1,-0.8 h -7.6 l -1.2,1.85 m -0.1,7.5 q -0.55,-0.55 -1.7,-1 l -0.1,-0.05 q -2.25,-0.9 -2.25,1.55 0,0.55 0.4,1.05 V 2 l 1.05,1.15 h 0.15 0.35 l 1.8,-0.1 q 0.75,-0.9 0.75,-1.7 0,-0.5 -0.45,-0.95"
         fill="#6b6b6b"
         fill-rule="evenodd"
         stroke="none"
         id="path64" />
      <path
         d="m -0.75,-7.15 h 1.7 l 0.05,1 0.35,1.05 -2.1,0.5 v -1.65 -0.9 m 3.4,0 24.9,-0.2 0.05,0.1 q 0.25,0.5 0.8,0.5 h 0.1 l 0.05,0.3 H 9.45 L 2.7,-5.4 V -5.55 L 2.65,-7.15 M -19.2,-4.3 q 0.9,1.25 0.9,2.65 0,2.6 -1.85,4.35 -1.65,1.5 -1.85,3.45 l -0.35,0.25 -1.5,1.7 q -1.6,1.6 -3.5,1.9 l -0.4,0.1 -0.1,-15.8 1.3,-0.35 2.75,-0.5 h 0.2 q -2.45,0.1 -2.95,1.75 l -0.15,0.95 q 0,1.15 0.8,2.6 1.25,2.3 3.7,2.3 2.4,0 3,-1.5 0.2,-0.5 0.2,-2.5 l -0.2,-1.35 m 7.6,-2.8 q -0.55,1.5 -0.55,2.8 0,0.9 0.85,1.85 l 0.15,0.2 -1.15,-0.25 q -4.05,-0.25 -4.05,5.05 l 0.45,1.4 q 0.95,1.3 3.45,1.3 2.8,0 3.75,-1.5 0.4,-0.7 0.45,-2.15 V 1.15 q 0,-1.25 -1,-2.3 l 1.25,0.3 1.45,0.1 h 0.1 Q -6.85,0.15 -7.5,3.75 -9,6.9 -14.55,6.9 l -1.6,-0.75 q -1.05,-0.55 -2.7,-0.7 0.65,-1.85 1.5,-3.2 1.05,-1.65 1.05,-3.95 0,-3.55 -2.3,-5.15 l -0.35,-0.2 7.35,-0.05 m -14.8,0.1 -1.45,0.85 V -7 h 1.45 m 24.45,-0.15 -0.15,2.2 0.1,0.75 -0.8,0.25 -0.3,0.15 -2,1.25 q -4.05,-0.4 -5.15,-1.45 -0.5,-0.5 -0.5,-1.85 l 0.25,-1.25 h 0.85 l -0.05,0.45 q 0,0.7 0.4,1.3 0.8,1.15 2.85,1.15 h 0.4 Q -3,-4.35 -3,-6.3 -3,-6.8 -3.15,-7.15 h 1.2 M -12.7,3.15 q 1.1,-0.1 1.65,-0.9 0.45,-0.65 0.45,-1.4 V 0.4 q 0.45,0.45 0.45,0.95 0,0.8 -0.75,1.7 l -1.8,0.1"
         fill="#c2c2c2"
         fill-rule="evenodd"
         stroke="none"
         id="path65" />
    </g>
    <g
       id="sprite8"
       transform="translate(8.05,7.7)">
      <use
         ffdec:characterId="1010"
         height="15.45"
         transform="translate(-8.05,-7.7)"
         width="16.1"
         xlink:href="#shape9"
         id="use65" />
    </g>
    <g
       id="shape9"
       transform="translate(8.05,7.7)">
      <path
         d="m -3.8,-2.6 q -0.45,0.85 -0.45,2.2 0,0.7 0.75,1.7 1.05,1.45 3,1.45 1.65,0 2.85,-1.75 1,-1.45 1,-2.55 0,-1.25 -0.65,-1.85 -0.95,-0.9 -3.4,-0.9 h -0.1 l 1.1,-0.2 q 2.1,-0.25 3.65,0.7 1.65,1.05 1.65,3.15 l -0.7,3.1 q -1.4,2.9 -4.65,2.9 -1.2,0 -3.2,-1.55 -2.1,-1.6 -2.1,-2.7 0,-2.35 1.25,-3.7"
         fill="#c2c2c2"
         fill-rule="evenodd"
         stroke="none"
         id="path66" />
      <path
         d="m 8.05,-0.75 q 0,2.6 -1,4.75 Q 5.25,7.75 0.9,7.75 -4.9,7.75 -7,4.85 -8.05,3.4 -8.05,1.4 q 0,-4.6 2.5,-7.05 2.2,-2.1 5.55,-2.05 3.2,0.05 5.55,1.9 2.5,2.05 2.5,5.05 M -3.8,-2.6 q -1.25,1.35 -1.25,3.7 0,1.1 2.1,2.7 2,1.55 3.2,1.55 3.25,0 4.65,-2.9 l 0.7,-3.1 Q 5.6,-2.75 3.95,-3.8 2.4,-4.75 0.3,-4.5 l -1.1,0.2 q -1.95,0.5 -3,1.7"
         fill="#6b6b6b"
         fill-rule="evenodd"
         stroke="none"
         id="path67" />
      <path
         d="m -0.8,-4.3 h 0.1 q 2.45,0 3.4,0.9 0.65,0.6 0.65,1.85 0,1.1 -1,2.55 -1.2,1.75 -2.85,1.75 -1.95,0 -3,-1.45 -0.75,-1 -0.75,-1.7 0,-1.35 0.45,-2.2 1.05,-1.2 3,-1.7"
         fill="#e0e0e0"
         fill-rule="evenodd"
         stroke="none"
         id="path68" />
    </g>
    <g
       id="sprite9"
       transform="translate(24.15,37.15)">
      <use
         ffdec:characterId="1029"
         height="74.349998"
         transform="translate(-24.15,-37.15)"
         width="48.349998"
         xlink:href="#shape10"
         id="use68" />
    </g>
    <g
       id="shape10"
       transform="translate(24.15,37.15)">
      <path
         d="m 20.65,-31.65 0.5,1.65 1.85,5.7 1.2,4.4 -0.3,0.9 q 0,1.45 -3.25,1.7 -4.1,0.3 -7.1,1.2 L 12,-15.6 q -1.65,0.65 -3.2,1.5 l 0.8,1.55 1.75,1.9 1.8,1.75 0.4,0.6 q 0.55,0.95 0.55,2.4 0,1.25 -0.55,2.35 -0.8,1.5 -2.75,2.6 Q 8.15,0.5 2.45,1.85 L 2,2.95 1.65,3.65 2.95,4.6 3.3,4.85 q 3.5,3 3.5,5.6 v 0.35 l 0.1,0.15 q 1,1.3 0.75,2.55 0,1.6 -3.35,4.2 -3,3.25 -10,7.4 -2.7,1.6 -4.75,3.85 l -1.6,2 -1.35,2.35 -2.2,3.9 q -0.95,-0.75 -1.05,-1.5 l -0.15,-0.4 -0.15,-1.15 q 0,-3.6 1.1,-6.5 1.15,-3 4,-6.8 l 5.05,-6.7 2.5,-2.85 -3.4,0.5 -4.2,0.65 q -2.05,0 -3.5,-0.7 l -0.05,0.1 -0.05,-0.15 -1.4,-1.05 Q -17.7,9.8 -18,8.95 -19.15,7.55 -20.9,4.6 l -1,-1.6 -2.2,-3.9 -0.05,0.05 0.05,-0.1 q 0.05,-2.5 2.2,-5 l 1.65,-1.7 q 4,-5.45 9.65,-7.45 l -0.2,-0.15 q -4.45,-3.3 -4.45,-4.3 l 0.15,-1.4 -0.2,-0.85 q 0,-2.15 2.8,-5.1 2.9,-3.05 7.55,-5.55 3.45,-1.85 7,-2.95 4.15,-1.35 8.5,-1.65 l 3,-0.1 2.6,0.1 2,0.2 0.35,0.05 0.2,0.05 0.65,0.1 0.5,0.05 0.25,0.6 -0.15,0.2 q 0.9,1.55 0.9,2.75 l -0.2,1.4 m -0.35,10.45 -0.1,-0.35 -0.65,-4.7 q -1.25,-4.7 -1.6,-6.65 l -0.25,-0.4 -1.15,-1.2 -0.25,-0.25 -1,0.1 -1.75,0.15 -0.4,0.05 H 13 l -4.05,0.25 q -3.6,0.95 -6.9,2.3 -2.15,0.9 -4.2,2 -4.6,2.5 -7.3,5.25 -1.75,1.75 -2.7,3.65 l -0.25,0.45 1.95,1.05 q 1.45,0.8 2.75,1.8 l 2.85,2.45 q 2.85,2.95 4.45,6.7 0.35,-2.2 2.45,-4.35 l 1.1,-1.05 0.35,-0.2 0.75,-0.65 q 1.3,-1.05 3.45,-2 l 2.4,-1.5 3.45,-1.35 q 2.6,-0.8 5.2,-1.05 l 1.65,-0.1 -0.1,-0.4 m -12.65,10.55 -1.2,-2.05 -1.3,0.85 -1.1,1.2 -0.55,0.55 -1.4,2.3 -0.7,1.2 1,0.4 0.3,-0.2 q 0.95,-0.65 4.2,-0.65 l 3.6,0.25 0.05,0.05 L 8.5,-9.5 7.65,-10.65 M -17,3.8 l 0.45,0.8 1,2.15 0.05,0.05 q 0.65,-1.15 1.9,-2.2 3.4,-2.85 11,-4.55 L 6.85,-2.1 q 3.7,-1.15 4.25,-2.95 l -3.5,0.6 -5.5,0.9 H -0.75 Q -1.95,-4.3 -2.15,-4.9 L -2.4,-5.25 -2.75,-5.8 -3.65,-5.85 H -4.5 -7.2 l -1.3,0.15 -1.4,0.3 -0.7,0.15 -1.75,0.4 -0.95,0.2 q -0.95,0 -0.95,-0.4 l 1.9,-1.1 q 1.75,-0.8 4.3,-1.2 L -5.6,-7.7 -4.7,-7.75 -4.15,-7.8 H -3.9 L -4,-8 -4.25,-8.45 -5,-9.95 -5.95,-11.65 -8.5,-13.6 q -1.05,0.8 -2.65,2.05 l -3.45,2.6 -1.2,0.95 -0.65,0.5 -1.7,1.5 -2.05,2.1 q -0.8,1 -0.8,1.65 l 1.3,2.2 0.1,0.15 0.25,0.4 0.25,0.3 0.95,1.35 0.7,1.05 0.45,0.6 M 1.65,11.3 0.2,11.15 -0.55,11.1 h -0.5 l -1.2,0.05 q -0.2,2.65 -3.5,6.15 -4.65,4.85 -5.45,6.25 v 0.05 q -1,1.8 -2.1,5.15 l -0.15,0.4 0.2,-0.2 0.7,-0.75 2.9,-2.65 0.95,-0.75 0.8,-0.65 q 1.8,-1.7 4,-3.25 l 1.65,-1.15 4.2,-2.65 Q 4.4,14.95 4.4,13.6 L 4.3,12.2 3.8,11.9 1.65,11.3 M 1.6,8.55 3.25,8.85 3.05,7.95 2,6.6 -0.2,5 -0.75,4.6 -2.05,3.65 -2.4,2.8 -3.75,3.05 Q -6.2,3.45 -8.4,4.6 -10.2,5.55 -11.85,7 l -1.9,2 q 1.2,0.8 1.95,0.8 L -7.55,9.1 -0.9,8.4 1.6,8.55"
         fill="#6b6b6b"
         fill-rule="evenodd"
         stroke="none"
         id="path69" />
      <path
         d="m -12.15,-21 q 0.95,-1.9 2.7,-3.65 2.7,-2.75 7.3,-5.25 2.05,-1.1 4.2,-2 3.3,-1.35 6.9,-2.3 L 13,-34.45 h 0.15 l 0.4,-0.05 1.75,-0.15 1,-0.1 0.25,0.25 1.15,1.2 0.25,0.4 q 0.35,1.95 1.6,6.65 l 0.65,4.7 0.1,0.35 -0.4,0.2 -1.15,0.3 q -2.6,0.25 -5.2,1.05 l -3.45,1.35 -2.4,1.5 q -2.15,0.95 -3.45,2 L 2.05,-14 -1,-13.65 q -1.35,0 -3.85,-1.6 L -7.7,-17.7 q -1.3,-1 -2.75,-1.8 l -1.7,-1.5 m 9.75,15.75 -0.85,0.4 v 0.1 q 0,1.05 -2.2,1.4 l -1.3,0.2 -1.6,0.8 L -17,3.8 -17.45,3.2 -18.15,2.15 -19.1,0.8 -19.35,0.5 -19.3,0.3 -19.6,0.1 -19.7,-0.05 -21,-2.25 q 0,-0.65 0.8,-1.65 l 2.05,-2.1 1.7,-1.5 0.65,-0.5 1.2,-0.95 3.45,-2.6 q 1.6,-1.25 2.65,-2.05 l 2.55,1.95 0.95,1.7 0.75,1.5 0.25,0.45 -0.15,0.2 -0.55,0.05 -0.9,0.05 -2.45,0.35 q -2.55,0.4 -4.3,1.2 l -1.9,1.1 q 0,0.4 0.95,0.4 l 0.95,-0.2 1.75,-0.4 0.7,-0.15 1.4,-0.3 1.3,-0.15 h 2.7 0.85 l 0.9,0.05 0.35,0.55 M -3.9,20.9 q -2.2,1.55 -4,3.25 l -0.8,0.65 -0.95,0.75 -2.9,2.65 -0.7,0.75 -0.2,0.2 0.15,-0.4 q 1.1,-3.35 2.1,-5.15 v -0.05 q 0.8,-1.4 5.45,-6.25 3.3,-3.5 3.5,-6.15 l 1.2,-0.05 h 0.5 l 0.75,0.05 1.45,0.15 0.1,1.45 q 0,1.4 -0.65,2.6 v 0.4 q 0,0.85 -1.45,2.35 -1.4,1.45 -2.6,1.95 -0.15,0.4 -0.15,-0.1 L -3.9,20.9 M 1.6,8.55 0.75,6.95 -0.2,5 2,6.6 3.05,7.95 3.25,8.85 1.6,8.55"
         fill="#e0e0e0"
         fill-rule="evenodd"
         stroke="none"
         id="path70" />
      <path
         d="m -12.15,-21 1.7,1.5 -1.95,-1.05 0.25,-0.45 m 7.3,5.75 q 2.5,1.6 3.85,1.6 l 3.05,-0.35 2.2,-0.8 -0.75,0.65 -0.35,0.2 -1.1,1.05 q -2.1,2.15 -2.45,4.35 -1.6,-3.75 -4.45,-6.7 m 2.45,10 0.25,0.35 q 0.2,0.6 1.4,1.35 H 2.1 l 5.5,-0.9 3.5,-0.6 q -0.55,1.8 -4.25,2.95 L -2.6,0.05 q -7.6,1.7 -11,4.55 -1.25,1.05 -1.9,2.2 l -0.05,-0.05 -1,-2.15 -0.45,-0.8 8.65,-6.15 1.6,-0.8 1.3,-0.2 q 2.2,-0.35 2.2,-1.4 v -0.1 l 0.85,-0.4 M 7.65,-10.65 8.5,-9.5 10.55,-6.75 10.5,-6.8 6.9,-7.05 q -3.25,0 -4.2,0.65 l -0.3,0.2 -1,-0.4 0.7,-1.2 1.4,-2.3 0.55,-0.55 1.1,-1.2 1.3,-0.85 1.2,2.05 m -6,21.95 2.15,0.6 0.5,0.3 0.1,1.4 q 0,1.35 -2.45,3.5 l -4.2,2.65 -1.65,1.15 0.8,-0.95 q 0,0.5 0.15,0.1 1.2,-0.5 2.6,-1.95 1.45,-1.5 1.45,-2.35 v -0.4 q 0.65,-1.2 0.65,-2.6 L 1.65,11.3 M -0.2,5 0.75,6.95 1.6,8.55 -0.9,8.4 -7.55,9.1 -11.8,9.8 q -0.75,0 -1.95,-0.8 l 1.9,-2 Q -10.2,5.55 -8.4,4.6 -6.2,3.45 -3.75,3.05 L -2.4,2.8 -2.05,3.65 -0.75,4.6 -0.2,5"
         fill="#c2c2c2"
         fill-rule="evenodd"
         stroke="none"
         id="path71" />
    </g>
  </defs>
</svg>
