<?xml version="1.0" encoding="UTF-8" standalone="no"?>
<svg
   ffdec:objectType="frame"
   height="58.656933"
   width="48.599998"
   version="1.1"
   id="svg19"
   sodipodi:docname="2.svg"
   xmlns:inkscape="http://www.inkscape.org/namespaces/inkscape"
   xmlns:sodipodi="http://sodipodi.sourceforge.net/DTD/sodipodi-0.dtd"
   xmlns:xlink="http://www.w3.org/1999/xlink"
   xmlns="http://www.w3.org/2000/svg"
   xmlns:svg="http://www.w3.org/2000/svg"
   xmlns:ffdec="https://www.free-decompiler.com/flash">
  <sodipodi:namedview
     id="namedview19"
     pagecolor="#ffffff"
     bordercolor="#000000"
     borderopacity="0.25"
     inkscape:showpageshadow="2"
     inkscape:pageopacity="0.0"
     inkscape:pagecheckerboard="0"
     inkscape:deskcolor="#d1d1d1"
     fit-margin-top="5"
     fit-margin-left="5"
     fit-margin-right="5"
     fit-margin-bottom="5" />
  <g
     transform="translate(24.4,29.3)"
     id="g3">
    <use
       ffdec:characterId="1520"
       height="49"
       transform="translate(-19.4,-21.15)"
       width="38.599998"
       xlink:href="#sprite0"
       id="use1" />
    <use
       ffdec:characterId="1522"
       height="58.650002"
       transform="translate(-24.4,-29.3)"
       width="48.599998"
       xlink:href="#shape1"
       id="use2" />
    <use
       ffdec:characterId="44"
       height="8"
       transform="matrix(0.787,0,0,0.787,11.65,-26.7481)"
       width="10.8"
       xlink:href="#sprite1"
       id="use3" />
  </g>
  <defs
     id="defs19">
    <g
       id="sprite0"
       transform="translate(19.3,24.5)">
      <use
         ffdec:characterId="1519"
         height="49"
         transform="translate(-19.3,-24.5)"
         width="38.599998"
         xlink:href="#shape0"
         id="use4" />
    </g>
    <g
       id="shape0"
       transform="translate(19.3,24.5)">
      <path
         d="m 9.95,-23.8 0.1,0.3 v 0.05 l 0.65,2.25 0.85,2.6 0.1,0.2 0.2,0.8 q 0.3,1.35 0.05,2.9 l -0.4,2 v 0.1 l 0.3,0.4 0.5,0.4 0.15,0.15 0.75,0.6 0.45,0.95 q 0.35,1.4 0.15,2.25 l -0.35,0.7 q -0.2,0.3 -0.25,0.85 l -0.1,0.8 v 1.35 l 0.05,0.35 v 0.25 0.15 0.05 h 0.05 l 0.5,-0.05 0.05,0.45 -0.2,0.05 H 13.3 l 0.5,1.25 0.4,0.65 0.55,0.8 0.15,0.15 0.4,0.35 q 0.5,0.75 0.7,2.15 0.15,0.5 -0.1,1.05 l -0.5,0.8 -0.3,0.55 -0.25,0.6 V 5.5 l 1.1,1.8 0.05,0.05 q 1.05,1.95 1.05,3.8 l 0.15,2.65 0.2,2.35 Q 17.25,17 17.6,18.8 l -0.3,1.15 h 0.65 q 0.6,0.05 0.65,0.4 l 0.05,0.25 -0.2,0.2 0.25,0.6 q 0.2,0.25 0,0.4 l -1.35,0.5 0.3,0.55 q 0.25,0.65 -0.85,0.9 L 14.5,24 q -0.8,0.05 -1.05,-0.3 l -0.1,-0.3 0.05,-0.2 0.1,-0.4 H 13.3 L 12,22.6 11.85,22.25 11.9,21.65 11.7,21.5 11.6,21.25 Q 11.65,20.9 12,20.7 L 12.4,20.55 12.65,20.5 12.6,20.45 11.8,19.5 11.25,17.45 11,16.95 10.4,15.25 10.25,14.7 9.4,12.1 Q 8.9,10.25 9.15,8.15 L 9.65,6.2 V 6.15 l -0.95,-1 -0.85,-1 -0.2,0.1 H 7.2 L 6.75,3.05 6.7,1.85 H 6.75 L 6.65,1.45 6.8,1.7 7.45,1.65 7.7,0.95 7.9,0.65 8.1,0.1 8.25,-0.95 8.05,-2.25 7.95,-3.5 H 8 L 8.4,-1.65 8,-3.75 H 7.9 L 7.55,-4.8 7,-5.85 6.6,-6.3 6.3,-6.6 5.8,-7.2 H 5.6 L 5.3,-7.1 4.1,-7 H 2.35 2.1 1.35 L -0.4,-7.05 -5,-7.35 -5.15,-6.75 V -7.1 L -5.8,-7.2 -6.3,-6.6 -6.6,-6.3 -7,-5.85 -7.55,-4.8 -7.9,-3.75 H -8 l -0.4,2.1 0.4,-1.85 h 0.05 0.05 l -0.15,1.25 -0.2,1.3 0.15,1.05 0.2,0.55 0.2,0.3 0.05,0.1 0.2,0.6 0.35,0.05 0.35,-0.05 0.1,-0.2 v 0.2 H -6.6 L -6.75,1.9 -7.5,3.95 -7.55,4.2 h -0.1 -0.2 l -0.85,0.95 -0.95,1 V 6.2 l 0.5,1.95 q 0.25,2.1 -0.25,3.95 l -0.85,2.6 -0.15,0.55 -0.6,1.7 -0.25,0.5 -0.55,2.05 -0.85,1 0.65,0.2 q 0.35,0.2 0.4,0.55 l -0.1,0.25 -0.2,0.15 0.05,0.6 -0.15,0.35 -1.3,0.2 h -0.2 l 0.1,0.4 0.05,0.2 -0.1,0.3 q -0.25,0.35 -1.05,0.3 l -2.3,-0.25 q -1.1,-0.25 -0.85,-0.9 l 0.3,-0.55 -1.35,-0.5 q -0.2,-0.15 0,-0.4 l 0.25,-0.6 -0.2,-0.2 0.05,-0.25 q 0.05,-0.35 0.65,-0.4 h 0.65 l -0.3,-1.15 q 0.35,-1.8 0.2,-2.65 l 0.2,-2.35 0.15,-2.65 q 0,-1.9 1.1,-3.85 l 1.1,-1.8 V 5.45 q 0,-0.3 -0.55,-1.15 l -0.5,-0.8 q -0.25,-0.55 -0.1,-1.05 0.2,-1.4 0.7,-2.15 l 0.55,-0.5 0.55,-0.8 0.4,-0.65 0.5,-1.25 -0.45,-0.05 0.05,-0.45 0.55,0.05 v -0.2 -0.25 l -0.45,-0.05 0.05,-0.35 0.45,0.05 V -5.5 l -0.1,-0.8 q -0.05,-0.55 -0.25,-0.85 l -0.35,-0.7 q -0.2,-0.85 0.15,-2.25 l 0.45,-0.95 0.75,-0.6 q 0.85,-0.65 0.95,-0.95 v -0.1 l -0.4,-2 q -0.35,-2.1 0.35,-3.9 l 0.85,-2.6 0.65,-2.25 0.05,-0.05 0.1,-0.3 h -1.7 -0.6 v -0.05 L -14,-24 h 4.2 25.35 l -0.4,0.2 h -5.2 m -0.9,10.8 0.2,-0.05 0.65,-0.1 0.15,-0.6 0.05,-1.1 0.1,-0.3 v -0.25 l 0.1,-0.65 v -0.75 l -0.1,-1.05 -0.1,-0.4 -0.05,-0.1 -0.25,-0.95 -0.35,-1.15 -0.55,-1.6 -0.15,-0.35 -0.1,-0.25 -0.25,-0.6 -0.1,-0.25 -0.05,-0.15 -0.2,0.05 -0.4,0.1 -1.4,0.25 -0.95,0.05 -0.05,0.35 v 2 2.05 l 0.1,1.05 0.25,1.15 0.1,0.25 0.25,0.5 0.05,0.05 0.3,0.65 0.15,0.2 v 0.05 l 0.1,0.2 0.2,0.3 0.25,0.45 0.35,0.65 0.15,0.3 0.05,0.15 h 0.1 L 8,-12.9 8.9,-13 H 9.05 M 3.9,-18.3 3.75,-20.35 3.7,-20.9 3.65,-22.65 3.75,-23.2 3.7,-23.5 v -0.3 h -7.4 v 0.3 l -0.05,0.3 0.1,0.55 -0.05,1.75 -0.05,0.55 -0.15,2.7 q -0.2,1.9 -1.2,3.85 l -1.2,1.75 V -12 q -0.1,0.4 0.55,1.2 0.4,0.75 0.5,1.4 l 0.5,0.05 0.15,-0.2 -0.05,0.2 4.25,-0.2 h 2.75 0.9 l 2,0.25 v -0.1 q 0.1,-0.65 0.5,-1.4 0.65,-0.8 0.55,-1.2 v -0.05 L 5.1,-13.8 4.25,-15.95 3.9,-17.65 V -18.3 M 5.3,-7.1 5.25,-9.3 5.3,-7.1 M 8.65,-12 9.9,-12.25 9.85,-12.4 v -0.2 L 9,-12.45 8.25,-12.35 H 7.95 L 8,-12.1 v 0.15 L 8.5,-12 h 0.15 m 2.2,1.3 -0.65,-0.9 H 10.1 L 8.05,-11.3 8,-11.2 q -0.05,0.55 -0.45,1.05 L 7.35,-9.75 7.3,-9.7 7,-8.5 v 0.05 0.2 l 0.1,0.55 v 0.05 l 0.15,0.3 0.2,0.2 0.4,0.35 0.2,0.2 0.05,0.05 0.5,0.8 V -5.7 L 8.75,-5.55 9,-5 v 0.1 l 0.05,0.15 0.1,0.75 0.35,-0.05 0.45,-0.2 1.15,-0.15 0.7,-0.1 -0.05,-0.35 -0.1,-0.4 v -0.1 -0.75 l 0.2,-0.7 0.1,-0.3 0.05,-0.2 0.25,-0.55 0.2,-0.45 -0.15,-0.4 -0.15,-0.5 q -0.4,-0.9 -1.15,-1.4 l -0.1,-0.1 h -0.05 m 0.6,7.1 -0.5,0.05 -1,0.1 L 9.65,-3.4 9.25,-3.45 9.2,-3.3 9.25,-3.1 9.2,-2.85 9.25,-2.9 9.8,-2.95 11,-3.1 12.05,-3.25 h 0.1 L 12.1,-3.45 12,-3.65 11.55,-3.6 h -0.1 m 1.3,2.9 -0.1,-0.1 -0.3,-0.7 V -1.6 L 12.2,-2.35 10.35,-2.15 10.1,-2.2 H 9.5 L 9.65,-1.3 9.7,-1.15 9.65,-0.6 9.6,-0.45 v 0.05 0.15 L 9.4,0.45 9.35,0.5 9.25,0.8 9,1.2 V 1.25 L 8.9,1.65 8.85,1.75 V 1.8 L 8.9,2.15 8.95,2.4 9.05,2.55 V 2.6 L 9.25,2.95 9.8,3.7 10.2,4.05 Q 10.75,4.45 11,5 L 11.05,5.05 11.7,5 11.9,4.95 13.1,4.8 h 0.1 V 4.75 L 13.65,3.6 13.7,3.55 14,2.95 14.2,2.2 V 2 1.5 L 14.15,1.05 13.4,0.25 13.25,0.05 12.75,-0.7 M 11.3,5.85 11.35,6.1 11.8,6.05 13.25,5.85 13.2,5.65 V 5.5 L 11.7,5.7 H 11.25 L 11.3,5.85 M 14.9,8.95 14.6,8.4 14.5,8.2 14.3,7.85 13.95,7.1 13.5,6.35 12.85,6.45 H 12.5 l -0.55,0.1 -0.7,0.1 h -0.1 V 6.75 7.1 L 11,7.8 10.95,8.35 10.85,8.6 V 8.85 8.9 L 10.8,9.25 10.7,9.9 10.65,10.45 v 0.25 l 0.2,1.2 q 0.25,1.2 1,3 l 0.75,1.85 0.15,0.3 0.5,-0.1 0.4,-0.05 h 0.05 l 0.55,-0.05 1.5,-0.1 V 16.4 15.7 15.45 15.2 15.05 13.95 L 15.7,13.4 15.6,11.55 15.55,11.3 15.5,10.7 15.2,9.75 14.9,8.95 M 7.7,3.9 7.85,4.15 7.7,3.9 m 5.7,14.2 h -0.15 l 0.7,1.2 0.4,0.65 0.15,0.25 0.4,-0.05 0.5,-0.1 0.05,-0.2 0.25,-2 -2.3,0.25 m -0.3,3.5 h -0.15 l -0.15,0.1 0.1,0.15 h 0.25 0.3 1.3 0.55 l 0.7,-0.2 1,-0.25 0.55,-0.05 V 21.1 l -0.1,-0.1 -0.4,0.1 -1.2,0.15 -0.5,0.3 H 15.2 l -0.6,-0.15 -1.3,0.15 -0.2,0.05 m 2.35,0.75 -0.5,0.25 q 0.15,0 0.4,0.15 l 0.25,-0.05 0.35,-0.2 -0.5,-0.15 M -5.6,-16.6 l 0.25,-1.15 0.1,-3.1 v -2 l -0.05,-0.35 -0.95,-0.05 -1.4,-0.25 -0.6,-0.15 -0.05,0.15 -0.1,0.25 -0.25,0.6 -0.1,0.25 -0.15,0.35 -0.55,1.6 -0.6,2.1 -0.15,0.5 -0.1,1.05 0.1,1.4 v 0.25 l 0.1,0.3 0.2,1.7 0.65,0.1 0.35,0.05 1.25,0.15 h 0.1 l 0.05,-0.15 0.15,-0.3 0.35,-0.65 0.25,-0.45 0.2,-0.3 0.1,-0.2 v -0.05 l 0.15,-0.2 0.35,-0.7 0.25,-0.5 0.1,-0.25 m -4.2,-7.4 -0.1,0.2 0.1,-0.2 m -0.05,11.4 v 0.2 l -0.05,0.15 1.9,0.3 v -0.15 l 0.05,-0.25 -1.9,-0.25 M -7,-8.45 -7.3,-9.7 -7.55,-10.15 q -0.4,-0.5 -0.45,-1.05 l -0.05,-0.1 -2.05,-0.3 h -0.1 l -0.8,1 q -0.75,0.5 -1.15,1.4 l -0.15,0.5 -0.15,0.4 0.45,1 0.05,0.2 0.3,1 v 0.75 0.1 L -11.8,-4.5 -9.95,-4.25 -9.15,-4 -9,-4.9 V -5 l 0.25,-0.55 0.15,-0.15 v -0.05 l 0.55,-0.85 0.2,-0.2 0.4,-0.35 0.35,-0.5 V -7.7 L -7,-8.25 v -0.2 m -3.95,4.9 -1.05,-0.1 -0.1,0.2 -0.05,0.2 h 0.1 l 1.05,0.15 1.75,0.2 0.05,0.05 -0.05,-0.25 0.05,-0.2 -0.05,-0.15 -1.7,-0.1 m -2.15,-0.6 -0.05,0.35 0.05,-0.35 m 0.45,3.35 -0.6,0.85 -0.15,0.2 -0.75,0.8 -0.05,0.45 V 2 q 0.05,0.95 0.55,1.6 0.35,0.55 0.45,1.2 h 0.1 L -11.05,5.05 -11,5 q 0.25,-0.55 0.8,-0.95 l 0.4,-0.35 0.75,-1.1 0.1,-0.2 0.1,-0.5 V 1.8 1.75 L -9,1.2 -9.25,0.8 -9.35,0.5 -9.6,-0.4 v -0.05 l -0.05,-0.15 -0.05,-0.55 0.05,-0.15 0.15,-0.9 -0.85,0.05 -1.85,-0.2 -0.15,0.75 v 0.1 l -0.3,0.7 m 4.6,-1.45 0.1,-1.25 -0.1,1.25 M -7.85,4.2 -7.5,3.95 -7.85,4.2 m -5.4,1.65 1.9,0.25 0.05,-0.25 0.05,-0.15 -1.95,-0.2 v 0.15 l -0.05,0.2 m -2.25,4.85 -0.05,0.6 -0.15,2.1 -0.05,1.65 v 0.4 0.25 0.7 0.35 l 2.05,0.15 0.95,0.15 0.15,-0.3 0.75,-1.85 q 0.75,-1.8 1,-3 l 0.2,-1.2 V 10.45 L -10.7,9.9 -10.8,9.25 -10.85,8.9 V 8.85 8.6 L -10.95,8.35 -11,7.8 -11.15,7.1 V 6.75 6.65 h -0.1 l -1.25,-0.2 h -0.35 l -0.65,-0.1 -0.8,1.5 -0.2,0.35 -0.1,0.2 -0.6,1.35 -0.3,0.95 m 2.1,7.4 -2.3,-0.25 0.3,2.2 0.5,0.1 0.4,0.05 1.25,-2.1 h -0.15 m -4.15,3 v 0.25 l 1.55,0.3 0.7,0.2 h 0.55 1.6 0.25 l 0.1,-0.15 -0.15,-0.1 h -0.15 l -1.5,-0.2 -0.6,0.15 h -0.15 l -0.5,-0.3 -1.6,-0.25 -0.1,0.1 m 1.95,1.6 0.25,0.05 q 0.25,-0.15 0.4,-0.15 l -0.5,-0.25 -0.5,0.15 0.35,0.2"
         fill="#9a9a9a"
         fill-rule="evenodd"
         stroke="none"
         id="path4" />
      <path
         d="m 3.9,-18.3 v 0.65 l 0.35,1.7 q -0.6,-0.2 -0.9,-0.55 -0.25,-0.4 -0.2,-0.75 0,-0.6 0.75,-1.05 M 8.9,2.15 8.85,1.8 V 1.75 L 8.9,1.65 v 0.5"
         fill="#d3d3d3"
         fill-rule="evenodd"
         stroke="none"
         id="path5" />
      <path
         d="m 13.15,-3.4 0.05,0.05 H 13.15 V -3.4 m 0.4,0.5 q 1.05,1.4 1.35,2.85 L 14.75,-0.2 14.2,-1 13.8,-1.65 13.3,-2.9 h 0.25 M 15.1,4.85 15.9,7 16,7.35 15.95,7.3 14.85,5.5 V 5.45 l 0.25,-0.6 m -2.7,15.7 0.2,-0.1 0.05,0.05 -0.25,0.05 m 3.05,1.8 0.5,0.15 -0.35,0.2 -0.25,0.05 Q 15.1,22.6 14.95,22.6 l 0.5,-0.25"
         fill="#c4c4c4"
         fill-rule="evenodd"
         stroke="none"
         id="path6" />
      <path
         d="M -6.3,-6.6 -7,-5.85 -6.6,-6.3 -6.3,-6.6 M -8.1,0.1 -7.7,0.95 -7.9,0.65 -8.1,0.1 M 9.65,-15.95 9.6,-15.9 q -0.3,0.8 -0.45,1.8 L 9.05,-13 H 8.9 L 8,-12.9 7.85,-13.25 v -0.2 q 0.1,-1.05 0.7,-2.15 l 0.15,-0.3 q 0.55,-1.2 0.55,-2.7 l -0.05,-0.75 -0.45,-1.85 -0.7,-2.4 0.2,-0.05 0.05,0.15 0.1,0.25 0.25,0.6 0.1,0.25 0.15,0.35 0.55,1.6 0.35,1.15 0.25,0.95 0.05,0.1 q -0.05,1.15 -0.45,2.3 M 9,-12.45 v 0.2 L 8.9,-12.15 8.65,-12 H 8.5 L 8.25,-12.35 9,-12.45 m 1.85,1.75 h 0.05 l 0.1,0.1 q 0.75,0.5 1.15,1.4 l 0.15,0.5 0.15,0.4 -0.2,0.45 -0.25,0.55 -0.05,0.2 -0.1,0.3 -0.2,0.7 v 0.75 0.1 l 0.1,0.4 0.05,0.35 -0.7,0.1 L 11,-5.45 V -5.5 l 0.3,-1.35 v -0.1 l 0.05,-0.25 0.2,-1.15 -0.5,-1.85 -0.2,-0.5 m 0.7,7.1 -0.05,0.05 -0.05,-0.05 h 0.1 M 14,2.95 13.7,3.55 13.65,3.6 13.2,4.75 V 4.8 H 13.1 L 11.9,4.95 11.7,5 11.05,5.05 11,5 Q 10.75,4.45 10.2,4.05 L 9.8,3.7 9.25,2.95 9.05,2.6 V 2.55 L 8.95,2.4 8.9,2.15 V 1.65 L 9,1.25 V 1.2 L 9.25,0.8 9.35,0.5 9.4,0.45 10.25,1.35 11.3,2.7 11.45,2.85 12.2,3.6 h 0.05 L 13.4,3.4 13.55,3.3 14,2.95 m -0.75,14 0.4,-0.6 1.3,-1.65 q 0.4,-0.55 0.8,-0.75 v 1.1 0.15 l -0.45,0.5 -0.1,0.1 -0.95,1.05 -0.55,0.05 h -0.05 l -0.4,0.05 m -19.2,-32.8 -0.35,0.7 -0.15,0.2 v 0.05 l -0.95,-1.5 q -0.45,-0.95 -0.5,-1.6 l -0.05,-0.5 q 0.35,-2.6 -0.7,-3.35 l -0.8,1.4 0.55,-1.6 0.15,-0.35 0.1,-0.25 q 0.75,0.8 1.65,3.3 l 0.75,2.15 0.2,0.8 0.1,0.55 m -3.3,2.8 -0.65,-0.1 -0.2,-1.7 -0.1,-0.3 v -0.25 q 0.2,0 0.5,0.35 l 0.2,0.55 q 0.45,0.8 0.4,1.1 l -0.15,0.35 m 1.15,4.4 h 0.6 0.1 l 0.4,0.2 v 0.2 l -0.1,0.55 v 0.05 l -0.35,0.5 -0.4,0.35 -0.2,0.2 -0.55,0.85 v 0.05 l -0.15,0.15 -0.2,-0.2 Q -9.4,-6.3 -9.15,-7.8 -9,-8.55 -8.1,-8.65 m -2.05,11.2 q -0.85,-0.35 -0.7,-1.1 0.3,-1.55 0.9,-1.9 l 0.3,-0.15 0.05,0.15 v 0.05 l 0.25,0.9 0.1,0.3 0.25,0.4 0.15,0.55 V 1.8 1.9 l -0.1,0.5 -0.1,0.2 -0.45,0.1 h -0.1 l -0.55,-0.15 m -4.45,5.85 0.1,-0.2 0.2,-0.35 0.8,-1.5 0.65,0.1 v 0.3 L -13.6,7.7 -14,8.15 -14.6,8.4 m 3.75,0.45 V 8.9 l 0.05,0.35 0.1,0.65 -0.3,0.55 -0.5,0.6 L -13,13 q -1.75,2.15 -2.75,2.7 v -0.25 -0.4 l 0.05,-1.65 q 0.2,0.55 0.25,1.6 1.3,-0.55 1.9,-3.1 l 0.2,-0.5 1.05,-1.3 q 0.95,-1.05 1.45,-1.25 m -4.75,13.85 -0.35,-0.2 0.5,-0.15 0.5,0.25 q -0.15,0 -0.4,0.15 L -15.6,22.7"
         fill="#adadad"
         fill-rule="evenodd"
         stroke="none"
         id="path7" />
      <path
         d="m 10.3,-16.05 -0.65,0.1 q 0.4,-1.15 0.45,-2.3 l 0.1,0.4 0.1,1.05 v 0.75 M 6,-15.8 5.95,-15.85 5.7,-16.35 5.6,-16.6 l -0.25,-1.15 -0.1,-1.05 2.25,-0.45 1.7,-0.1 0.05,0.75 q 0,1.5 -0.55,2.7 L 6,-15.8 m 1.35,6.05 q 0.75,-0.5 2.2,-0.8 l 1.3,-0.15 0.2,0.5 0.5,1.85 -0.2,1.15 q -1.25,0.65 -2.7,0.65 H 8.1 L 8.05,-6.6 7.85,-6.8 7.45,-7.15 7.25,-7.35 7.1,-7.65 V -7.7 L 7,-8.25 v -0.2 -0.05 l 0.3,-1.2 0.05,-0.05 m 2.25,9.5 1.35,-0.3 0.5,-0.1 1.3,-0.05 0.5,0.75 0.15,0.2 0.75,0.8 0.05,0.45 V 2 2.2 Q 13.4,2.8 11.45,2.85 L 11.3,2.7 10.25,1.35 9.4,0.45 9.6,-0.25 M 11.3,5.85 11.25,5.7 H 11.7 L 13.2,5.5 V 5.65 L 13.25,5.85 11.8,6.05 11.35,6.1 11.3,5.85 m 4.3,5.7 h -0.05 l -1.35,0.5 -0.85,0.1 -0.8,0.05 q -1.65,0 -1.75,-1.9 0,-1.2 1.8,-1.4 l 1.15,-0.05 h 0.1 l 1.05,0.1 0.3,0.8 0.3,0.95 0.05,0.6 0.05,0.25 m -21.2,-28.15 -0.1,0.25 -0.25,0.5 -0.1,-0.55 -0.2,-0.8 0.1,0.15 0.2,0.15 0.35,0.3 m -0.85,1.7 -0.1,0.2 -1.65,-0.05 -1.45,-0.15 -0.05,-0.15 q -0.3,-0.35 -0.5,-0.35 l -0.1,-1.4 0.1,-1.05 1.35,-0.35 0.95,0.2 q 0.05,0.65 0.5,1.6 l 0.95,1.5 m -5.7,5.7 0.85,-0.05 3.2,0.6 q -0.9,0.1 -1.05,0.85 -0.25,1.5 0.2,2.05 l -1.15,-0.05 -1.55,-0.3 -0.3,-1 -0.05,-0.2 -0.45,-1 0.15,-0.4 0.15,-0.5 m -0.5,8.4 1.6,0.05 1.1,0.3 q -0.6,0.35 -0.9,1.9 -0.15,0.75 0.7,1.1 L -13.45,2.3 -14.2,2 V 1.5 l 0.05,-0.45 0.75,-0.8 0.15,-0.2 0.6,-0.85 m -2.85,11.5 0.3,-0.95 0.6,-1.35 0.6,-0.25 0.1,-0.05 1.45,0.2 1.6,0.3 v 0.25 q -0.5,0.2 -1.45,1.25 l -1.05,1.3 h -0.95 l -1.2,-0.7 m 4.8,-0.8 0.05,0.55 v 0.25 l -0.45,0.25 -0.25,0.05 -0.15,0.05 0.5,-0.6 0.3,-0.55"
         fill="#aaaaaa"
         fill-rule="evenodd"
         stroke="none"
         id="path8" />
      <path
         d="m 10.3,-16.05 -0.1,0.65 v 0.25 l -0.1,0.3 -0.05,1.1 -0.15,0.6 -0.65,0.1 -0.2,0.05 0.1,-1.1 q 0.15,-1 0.45,-1.8 l 0.05,-0.05 0.65,-0.1 M 8,-12.9 7.65,-12.85 H 7.55 L 7.5,-13 7.35,-13.3 7,-13.95 6.75,-14.4 l -0.2,-0.3 -0.1,-0.2 v -0.05 L 6.3,-15.15 6,-15.8 l 2.7,-0.1 -0.15,0.3 q -0.6,1.1 -0.7,2.15 v 0.2 L 8,-12.9 m -2.75,-5.9 v -2.05 -2 l 0.05,-0.35 0.95,-0.05 1.4,-0.25 0.4,-0.1 0.7,2.4 0.45,1.85 -1.7,0.1 -2.25,0.45 M 9,-12.45 9.85,-12.6 v 0.2 L 9.9,-12.25 8.65,-12 8.9,-12.15 9,-12.25 v -0.2 M 8.5,-12 8,-11.95 v -0.15 l -0.05,-0.25 h 0.3 L 8.5,-12 m -1.15,2.25 0.2,-0.4 q 0.4,-0.5 0.45,-1.05 l 0.05,-0.1 2.05,-0.3 h 0.1 l 0.65,0.9 -1.3,0.15 q -1.45,0.3 -2.2,0.8 M 11.1,-4.4 9.95,-4.25 9.5,-4.05 9.15,-4 9.05,-4.75 9,-4.9 V -5 L 8.75,-5.55 8.6,-5.7 v -0.05 l -0.5,-0.8 h 0.55 q 1.45,0 2.7,-0.65 l -0.05,0.25 v 0.1 L 11,-5.5 v 0.05 l 0.1,1.05 m 0.45,0.8 0.45,-0.05 0.1,0.2 0.05,0.2 h -0.1 L 11,-3.1 9.8,-2.95 9.25,-2.9 9.2,-2.85 9.25,-3.1 9.2,-3.3 l 0.05,-0.15 0.4,0.05 0.3,-0.05 1,-0.1 0.5,-0.05 0.05,0.05 0.05,-0.05 M 9.6,-0.25 V -0.4 -0.45 L 9.65,-0.6 9.7,-1.15 9.65,-1.3 9.5,-2.2 h 0.6 l 0.25,0.05 1.85,-0.2 0.15,0.75 v 0.1 l 0.3,0.7 0.1,0.1 -1.3,0.05 -0.5,0.1 -1.35,0.3 M 14.2,2.2 14,2.95 13.55,3.3 13.4,3.4 12.25,3.6 H 12.2 L 11.45,2.85 Q 13.4,2.8 14.2,2.2 m 0.7,6.75 -1.05,-0.1 h -0.1 L 12.6,8.9 q -1.8,0.2 -1.8,1.4 0.1,1.9 1.75,1.9 l 0.8,-0.05 0.85,-0.1 1.35,-0.5 h 0.05 l 0.1,1.85 0.05,0.55 q -0.4,0.2 -0.8,0.75 l -1.3,1.65 -0.4,0.6 -0.5,0.1 -0.15,-0.3 -0.75,-1.85 q -0.75,-1.8 -1,-3 l -0.2,-1.2 V 10.45 L 10.7,9.9 10.8,9.25 10.85,8.9 V 8.85 8.6 L 10.95,8.35 11,7.8 11.15,7.1 V 6.75 6.65 h 0.1 l 0.7,-0.1 0.55,-0.1 h 0.35 l 0.65,-0.1 0.45,0.75 0.35,0.75 0.2,0.35 0.1,0.2 0.3,0.55 m 0.85,6.25 v 0.25 0.25 0.7 0.35 l -1.5,0.1 0.95,-1.05 0.1,-0.1 0.45,-0.5 m -2.35,2.9 2.3,-0.25 -0.25,2 -0.05,0.2 -0.5,0.1 -0.4,0.05 -0.15,-0.25 -0.4,-0.65 -0.7,-1.2 h 0.15 m -0.3,3.5 0.2,-0.05 1.3,-0.15 0.6,0.15 h 0.15 l 0.5,-0.3 1.2,-0.15 0.4,-0.1 0.1,0.1 v 0.25 L 17,21.4 l -1,0.25 -0.7,0.2 h -0.55 -1.3 -0.3 -0.25 l -0.1,-0.15 0.15,-0.1 h 0.15 m -21.75,-44.25 0.25,-0.6 0.1,-0.25 0.05,-0.15 0.6,0.15 1.4,0.25 0.95,0.05 0.05,0.35 v 2 l -0.1,3.1 -0.25,1.15 -0.35,-0.3 -0.2,-0.15 -0.1,-0.15 -0.75,-2.15 q -0.9,-2.5 -1.65,-3.3 m 2.1,7.95 -0.2,0.3 -0.25,0.45 -0.35,0.65 -0.15,0.3 -0.05,0.15 h -0.1 L -8.9,-13 -9.25,-13.05 -9.1,-13.4 q 0.05,-0.3 -0.4,-1.1 l -0.2,-0.55 0.05,0.15 1.45,0.15 1.65,0.05 m -3.65,-3.15 0.15,-0.5 0.6,-2.1 0.8,-1.4 q 1.05,0.75 0.7,3.35 l 0.05,0.5 -0.95,-0.2 -1.35,0.35 m 0.35,5.25 1.9,0.25 -0.05,0.25 v 0.15 l -1.9,-0.3 0.05,-0.15 v -0.2 m -2.3,3.4 q 0.4,-0.9 1.15,-1.4 l 0.8,-1 h 0.1 l 2.05,0.3 0.05,0.1 q 0.05,0.55 0.45,1.05 l 0.25,0.45 0.3,1.25 -0.4,-0.2 h -0.1 -0.6 l -3.2,-0.6 -0.85,0.05 m 3.4,3.65 L -9,-5 v 0.1 l -0.15,0.9 -0.8,-0.25 -1.85,-0.25 0.15,-0.75 v -0.1 -0.75 l 1.55,0.3 1.15,0.05 0.2,0.2 m -2.2,2 1.7,0.1 0.05,0.15 -0.05,0.2 0.05,0.25 -0.05,-0.05 -1.75,-0.2 -1.05,-0.15 h -0.1 l 0.05,-0.2 0.1,-0.2 1.05,0.1 m 1,3.1 -1.1,-0.3 -1.6,-0.05 0.3,-0.7 v -0.1 l 0.15,-0.75 1.85,0.2 0.85,-0.05 -0.15,0.9 -0.05,0.15 0.05,0.55 -0.3,0.15 M -14.2,2 l 0.75,0.3 3.3,0.25 0.55,0.15 h 0.1 L -9.05,2.6 -9.8,3.7 -10.2,4.05 Q -10.75,4.45 -11,5 L -11.05,5.05 -13.1,4.8 h -0.1 Q -13.3,4.15 -13.65,3.6 -14.15,2.95 -14.2,2 m 0.95,3.85 0.05,-0.2 V 5.5 l 1.95,0.2 -0.05,0.15 -0.05,0.25 -1.9,-0.25 m -2.45,7.55 0.15,-2.1 0.05,-0.6 1.2,0.7 h 0.95 l -0.2,0.5 q -0.6,2.55 -1.9,3.1 -0.05,-1.05 -0.25,-1.6 m 2.85,-6.95 h 0.35 l 1.25,0.2 h 0.1 v 0.1 0.35 l 0.15,0.7 0.05,0.55 0.1,0.25 -1.6,-0.3 -1.45,-0.2 -0.1,0.05 0.4,-0.45 0.75,-0.95 v -0.3 m 2.2,4.25 -0.2,1.2 q -0.25,1.2 -1,3 l -0.75,1.85 -0.15,0.3 -0.95,-0.15 -2.05,-0.15 V 16.4 15.7 q 1,-0.55 2.75,-2.7 l 1.5,-1.95 0.15,-0.05 0.25,-0.05 0.45,-0.25 m -2.75,7.4 h 0.15 l -1.25,2.1 -0.4,-0.05 -0.5,-0.1 -0.3,-2.2 2.3,0.25 m -4.15,3 0.1,-0.1 1.6,0.25 0.5,0.3 h 0.15 l 0.6,-0.15 1.5,0.2 h 0.15 l 0.15,0.1 -0.1,0.15 h -0.25 -1.6 -0.55 l -0.7,-0.2 -1.55,-0.3 V 21.1"
         fill="#a2a2a2"
         fill-rule="evenodd"
         stroke="none"
         id="path9" />
      <path
         d="m 9.95,-23.8 0.1,0.3 v 0.05 l 0.65,2.25 0.85,2.6 0.1,0.2 0.2,0.8 q 0.3,1.35 0.05,2.9 l -0.4,2 v 0.1 l 0.3,0.4 0.5,0.4 0.15,0.15 0.75,0.6 0.45,0.95 q 0.35,1.4 0.15,2.25 l -0.35,0.7 q -0.2,0.3 -0.25,0.85 l -0.1,0.8 v 1.35 l 0.05,0.35 v 0.25 0.15 0.05 m 1.75,3.3 0.4,0.35 q 0.5,0.75 0.7,2.15 0.15,0.5 -0.1,1.05 l -0.5,0.8 -0.3,0.55 -0.25,0.6 V 5.5 l 1.1,1.8 0.05,0.05 q 1.05,1.95 1.05,3.8 l 0.15,2.65 0.2,2.35 Q 17.25,17 17.6,18.8 l -0.3,1.15 h 0.65 q 0.6,0.05 0.65,0.4 l 0.05,0.25 -0.2,0.2 0.25,0.6 q 0.2,0.25 0,0.4 l -1.35,0.5 0.3,0.55 q 0.25,0.65 -0.85,0.9 L 14.5,24 q -0.8,0.05 -1.05,-0.3 l -0.1,-0.3 0.05,-0.2 0.1,-0.4 H 13.3 L 12,22.6 11.85,22.25 11.9,21.65 11.7,21.5 11.6,21.25 Q 11.65,20.9 12,20.7 L 12.4,20.55 12.65,20.5 12.6,20.45 11.8,19.5 11.25,17.45 11,16.95 10.4,15.25 10.25,14.7 9.4,12.1 Q 8.9,10.25 9.15,8.15 L 9.65,6.2 V 6.15 L 8.7,5.15 7.85,4.15 7.7,3.9 M 7.45,1.65 7.7,0.95 7.9,0.65 8.1,0.1 8.25,-0.95 8.05,-2.25 7.95,-3.5 7.9,-3.75 7.55,-4.8 7,-5.85 6.6,-6.3 6.3,-6.6 5.8,-7.2 m -11.6,0 -0.5,0.6 -0.3,0.3 -0.4,0.45 -0.55,1.05 -0.35,1.05 -0.05,0.25 -0.1,1.25 -0.2,1.3 0.15,1.05 0.2,0.55 0.2,0.3 0.05,0.1 0.2,0.6 M -7.9,-3.5 -8.05,-2.25 m 0.2,6.45 -0.85,0.95 -0.95,1 V 6.2 l 0.5,1.95 q 0.25,2.1 -0.25,3.95 l -0.85,2.6 -0.15,0.55 -0.6,1.7 -0.25,0.5 -0.55,2.05 -0.85,1 0.65,0.2 q 0.35,0.2 0.4,0.55 l -0.1,0.25 -0.2,0.15 0.05,0.6 -0.15,0.35 -1.3,0.2 h -0.2 l 0.1,0.4 0.05,0.2 -0.1,0.3 q -0.25,0.35 -1.05,0.3 l -2.3,-0.25 q -1.1,-0.25 -0.85,-0.9 l 0.3,-0.55 -1.35,-0.5 q -0.2,-0.15 0,-0.4 l 0.25,-0.6 -0.2,-0.2 0.05,-0.25 q 0.05,-0.35 0.65,-0.4 h 0.65 l -0.3,-1.15 q 0.35,-1.8 0.2,-2.65 l 0.2,-2.35 0.15,-2.65 q 0,-1.9 1.1,-3.85 l 1.1,-1.8 V 5.45 q 0,-0.3 -0.55,-1.15 l -0.5,-0.8 q -0.25,-0.55 -0.1,-1.05 0.2,-1.4 0.7,-2.15 l 0.55,-0.5 0.55,-0.8 0.4,-0.65 0.5,-1.25 m 0.15,-0.45 v -0.2 -0.25 l 0.05,-0.35 V -5.5 l -0.1,-0.8 q -0.05,-0.55 -0.25,-0.85 l -0.35,-0.7 q -0.2,-0.85 0.15,-2.25 l 0.45,-0.95 0.75,-0.6 q 0.85,-0.65 0.95,-0.95 v -0.1 l -0.4,-2 q -0.35,-2.1 0.35,-3.9 l 0.85,-2.6 0.65,-2.25 0.05,-0.05 0.1,-0.3 0.1,-0.2 m 4.55,14.6 q -0.1,-0.65 -0.5,-1.4 -0.65,-0.8 -0.55,-1.2 v -0.05 l 1.2,-1.75 q 1,-1.95 1.2,-3.85 l 0.15,-2.7 0.05,-0.55 0.05,-1.75 -0.1,-0.55 0.05,-0.3 v -0.3 h 7.4 v 0.3 l 0.05,0.3 -0.1,0.55 0.05,1.75 0.05,0.55 0.15,2.05 v 0.65 l 0.35,1.7 0.85,2.15 1.2,1.75 V -12 q 0.1,0.4 -0.55,1.2 -0.4,0.75 -0.5,1.4 v 0.1 l 0.05,2.2 m 8,4.2 0.5,1.25 0.4,0.65 0.55,0.8 0.15,0.15 m -22.4,4 -0.35,0.25"
         fill="none"
         stroke="#9a9a9a"
         stroke-linecap="round"
         stroke-linejoin="round"
         stroke-width="1"
         id="path10" />
    </g>
    <g
       id="shape1"
       transform="translate(24.4,29.3)">
      <path
         d="m -17.2,-0.3 v -1.35 l -0.1,-0.8 -0.25,-0.85 -0.35,-0.7 q -0.2,-0.85 0.15,-2.25 l 0.45,-0.95 0.75,-0.6 q 0.85,-0.65 0.95,-0.95 v -0.1 l -0.4,-2 q -0.35,-2.1 0.35,-3.9 l 0.85,-2.6 0.65,-2.25 0.05,-0.05 0.1,-0.3 h -1.7 -0.6 V -20 l -1.8,-0.15 v -0.15 l -1,-0.1 -1.15,-0.1 -0.3,0.05 q -0.35,0 -0.55,-0.25 l -0.65,-0.25 0.25,-0.55 -0.05,-0.45 v -0.45 -1.1 l 0.05,-1.65 0.2,-1.35 v -0.15 q 0,-0.75 0.85,-0.8 l 2.35,-0.1 v -0.25 h 38.65 q 1.1,0.45 1.1,1.1 l -0.1,0.45 0.15,1.1 v 1.65 0.35 0.75 0.45 l -0.05,0.45 0.25,0.55 -0.65,0.25 q -0.2,0.25 -0.55,0.25 l -0.3,-0.05 -0.55,0.05 -0.4,0.3 -0.4,0.2 h -5.2 l 0.1,0.3 v 0.05 l 0.65,2.25 0.85,2.6 0.1,0.2 0.2,0.8 q 0.3,1.35 0.05,2.9 l -0.4,2 v 0.1 l 0.3,0.4 0.5,0.4 0.15,0.15 0.75,0.6 0.45,0.95 q 0.35,1.4 0.15,2.25 l -0.35,0.7 q -0.2,0.3 -0.25,0.85 l -0.1,0.8 v 1.35 l 0.05,0.35 V 0.3 0.45 0.5 h 0.05 l 0.5,-0.05 0.05,0.45 -0.2,0.05 H 17.2 l 0.5,1.25 0.4,0.65 0.55,0.8 0.15,0.15 0.4,0.35 q 0.5,0.75 0.7,2.15 0.15,0.5 -0.1,1.05 L 19.3,8.15 19,8.7 18.75,9.3 v 0.05 l 1.1,1.8 0.05,0.05 q 1.05,1.95 1.05,3.8 l 0.15,2.65 0.2,2.35 q -0.15,0.85 0.2,2.65 0.05,0.5 -0.3,1.15 h 0.65 q 0.6,0.05 0.65,0.4 l 0.05,0.25 -0.2,0.2 0.25,0.6 q 0.2,0.25 0,0.4 l -1.35,0.5 0.3,0.55 q 0.25,0.65 -0.85,0.9 l -2.3,0.25 q -0.8,0.05 -1.05,-0.3 l -0.1,-0.3 0.05,-0.2 0.1,-0.4 H 17.2 L 15.9,26.45 15.75,26.1 15.8,25.5 15.6,25.35 15.5,25.1 q 0.05,-0.35 0.4,-0.55 L 16.3,24.4 16.55,24.35 16.5,24.3 15.7,23.35 15.15,21.3 14.9,20.8 14.3,19.1 14.15,18.55 13.3,15.95 Q 12.8,14.1 13.05,12 l 0.5,-1.95 V 10 L 12.6,9 11.75,8 11.55,8.1 h -5.3 q -0.35,0.7 -1.1,0.7 -1,0 -1.2,-0.7 L -3.5,8.05 q -0.2,1.1 -1.25,1.1 -0.75,0 -1.15,-1.1 h -5.85 -0.2 L -12.8,9 l -0.95,1 v 0.05 l 0.5,1.95 q 0.25,2.1 -0.25,3.95 l -0.85,2.6 -0.15,0.55 -0.6,1.7 -0.25,0.5 -0.55,2.05 -0.85,1 0.65,0.2 q 0.35,0.2 0.4,0.55 l -0.1,0.25 -0.2,0.15 0.05,0.6 -0.15,0.35 -1.3,0.2 h -0.2 l 0.1,0.4 0.05,0.2 -0.1,0.3 q -0.25,0.35 -1.05,0.3 l -2.3,-0.25 q -1.1,-0.25 -0.85,-0.9 l 0.3,-0.55 -1.35,-0.5 q -0.2,-0.15 0,-0.4 l 0.25,-0.6 -0.2,-0.2 0.05,-0.25 q 0.05,-0.35 0.65,-0.4 h 0.65 l -0.3,-1.15 q 0.35,-1.8 0.2,-2.65 l 0.2,-2.35 0.15,-2.65 q 0,-1.9 1.1,-3.85 l 1.1,-1.8 V 9.3 q 0,-0.3 -0.55,-1.15 L -20,7.35 q -0.25,-0.55 -0.1,-1.05 0.2,-1.4 0.7,-2.15 l 0.55,-0.5 0.55,-0.8 0.4,-0.65 0.5,-1.25 -0.45,-0.05 0.05,-0.45 0.55,0.05 V 0.3 0.05 L -17.7,0 l 0.05,-0.35 0.45,0.05 -0.05,0.35 0.05,-0.35 m 36.9,-23.4 v -1.45 l 0.05,-0.5 H -16.3 l -0.8,-0.05 h -0.5 l -0.5,-0.05 -1.5,-0.1 0.05,0.7 v 1.3 0.25 0.45 0.75 l -0.05,0.3 1.5,-0.1 h 0.5 v -0.05 l 1.3,-0.05 h 0.7 v -0.1 h 34.65 l 0.45,0.3 h 0.25 v -0.3 H 19.7 v -0.75 -0.45 -0.1 m -5.7,9.3 -0.05,-0.1 -0.25,-0.95 -0.35,-1.15 -0.55,-1.6 -0.15,-0.35 -0.1,-0.25 -0.25,-0.6 -0.1,-0.25 -0.05,-0.15 -0.2,0.05 -0.4,0.1 -1.4,0.25 -0.95,0.05 -0.05,0.35 v 2 2.05 l 0.1,1.05 0.25,1.15 0.1,0.25 0.25,0.5 0.05,0.05 0.3,0.65 0.15,0.2 v 0.05 l 0.1,0.2 0.2,0.3 0.25,0.45 0.35,0.65 0.15,0.3 0.05,0.15 h 0.1 l 0.35,-0.05 0.9,-0.1 h 0.15 l 0.2,-0.05 0.65,-0.1 0.15,-0.6 0.05,-1.1 0.1,-0.3 v -0.25 l 0.1,-0.65 v -0.75 L 14.1,-14 14,-14.4 M 9.15,-3.35 v -2.2 l 0.5,-1.4 q 0.65,-0.8 0.55,-1.2 V -8.2 L 9,-9.95 8.15,-12.1 Q 7.9,-12.95 7.8,-13.8 v -0.65 L 7.65,-16.5 7.6,-17.05 7.55,-18.8 l 0.1,-0.55 -0.05,-0.3 v -0.3 H -7.8 v 0.3 l -0.05,0.3 0.1,0.55 -0.05,1.75 -0.05,0.55 -0.15,2.7 q -0.2,1.9 -1.2,3.85 l -1.2,1.75 v 0.05 q -0.1,0.4 0.55,1.2 0.4,0.75 0.5,1.4 l 0.5,0.05 0.15,-0.2 -0.55,2.8 v -0.35 l -0.65,-0.1 -0.5,0.6 -0.3,0.3 -0.4,0.45 -0.55,1.05 L -12,0.1 h -0.1 l -0.4,2.1 0.4,-1.85 h 0.05 l -0.1,1.25 0.1,-1.25 H -12 l -0.15,1.25 -0.2,1.3 0.15,1.05 0.2,0.55 0.2,0.3 0.05,0.1 0.2,0.6 0.35,0.05 0.35,-0.05 0.1,-0.2 v 0.2 h 0.25 l 1.25,0.3 h 3.05 q 0.1,-1.8 1.35,-1.1 0.65,0.4 1,1.1 L 4.1,5.75 q 0.25,-1.05 1.1,-1.3 1,-0.3 1.2,1.3 L 10.65,5.7 10.55,5.3 10.7,5.55 11.35,5.5 11.6,4.8 11.8,4.5 12,3.95 12.15,2.9 11.95,1.6 11.85,0.35 H 11.9 L 12.3,2.2 11.9,0.1 H 11.8 L 11.45,-0.95 10.9,-2 10.5,-2.45 10.2,-2.75 9.7,-3.35 H 9.15 m 3,-5.15 h -0.3 l 0.05,0.25 v 0.15 l 0.5,-0.05 h 0.15 L 13.8,-8.4 13.75,-8.55 v -0.2 l -0.85,0.15 -0.75,0.1 m 2.6,1.65 -0.65,-0.9 H 14 l -2.05,0.3 -0.05,0.1 -0.45,1.05 -0.2,0.4 -0.05,0.05 -0.3,1.2 v 0.05 0.2 l 0.1,0.55 v 0.05 l 0.15,0.3 0.2,0.2 0.4,0.35 0.2,0.2 0.05,0.05 0.5,0.8 v 0.05 l 0.15,0.15 0.25,0.55 v 0.1 l 0.05,0.15 0.1,0.75 0.35,-0.05 0.45,-0.2 1.15,-0.15 0.7,-0.1 -0.05,-0.35 -0.1,-0.4 v -0.1 -0.75 l 0.2,-0.7 0.1,-0.3 0.05,-0.2 0.25,-0.55 0.2,-0.45 -0.15,-0.4 -0.15,-0.5 q -0.4,-0.9 -1.15,-1.4 l -0.1,-0.1 h -0.05 m -28.1,-2.35 0.35,0.05 1.25,0.15 h 0.1 l 0.05,-0.15 0.15,-0.3 0.35,-0.65 0.25,-0.45 0.2,-0.3 0.1,-0.2 v -0.05 l 0.15,-0.2 0.35,-0.7 0.25,-0.5 0.1,-0.25 0.25,-1.15 0.1,-3.1 v -2 l -0.05,-0.35 -0.95,-0.05 -1.4,-0.25 -0.6,-0.15 -0.05,0.15 -0.1,0.25 -0.25,0.6 -0.1,0.25 -0.15,0.35 -0.55,1.6 -0.6,2.1 -0.15,0.5 -0.1,1.05 0.1,1.4 v 0.25 l 0.1,0.3 0.2,1.7 0.65,0.1 m -0.35,-11.85 -0.2,0.9 -0.1,0.2 0.1,-0.2 0.2,-0.9 m -0.25,12.3 v 0.2 l -0.05,0.15 1.9,0.3 v -0.15 l 0.05,-0.25 -1.9,-0.25 m -1.15,2 q -0.75,0.5 -1.15,1.4 l -0.15,0.5 -0.15,0.4 0.45,1 0.05,0.2 0.3,1 v 0.75 0.1 l -0.15,0.75 1.85,0.25 0.8,0.25 0.15,-0.9 v -0.1 l 0.25,-0.55 0.15,-0.15 V -1.9 l 0.55,-0.85 0.2,-0.2 0.4,-0.35 0.35,-0.5 v -0.05 l 0.1,-0.55 v -0.2 l -0.3,-1.25 -0.25,-0.45 -0.45,-1.05 -0.05,-0.1 -2.05,-0.3 h -0.1 l -0.8,1 m 1.75,7.5 0.05,-0.2 -0.05,-0.15 -1.7,-0.1 -1.05,-0.1 -0.1,0.2 -0.05,0.2 h 0.1 l 1.05,0.15 1.75,0.2 0.05,0.05 -0.05,-0.25 m -0.4,2.5 -0.05,-0.55 0.05,-0.15 0.15,-0.9 -0.85,0.05 -1.85,-0.2 -0.15,0.75 v 0.1 l -0.3,0.7 -0.6,0.85 -0.15,0.2 -0.75,0.8 -0.05,0.45 v 0.5 q 0.05,0.95 0.55,1.6 0.35,0.55 0.45,1.2 h 0.1 l 2.05,0.25 0.05,-0.05 0.8,-0.95 0.4,-0.35 0.75,-1.1 0.1,-0.2 0.1,-0.5 V 5.65 5.6 l -0.15,-0.55 -0.25,-0.4 -0.1,-0.3 -0.25,-0.9 V 3.4 l -0.05,-0.15 m -3.2,7.05 -0.65,-0.1 -0.8,1.5 -0.2,0.35 -0.1,0.2 -0.6,1.35 -0.3,0.95 -0.05,0.6 -0.15,2.1 -0.05,1.65 v 0.4 0.25 0.7 0.35 l 2.05,0.15 0.95,0.15 0.15,-0.3 0.75,-1.85 q 0.75,-1.8 1,-3 l 0.2,-1.2 V 14.3 l -0.05,-0.55 -0.1,-0.65 -0.05,-0.35 V 12.7 12.45 l -0.1,-0.25 -0.05,-0.55 -0.15,-0.7 V 10.6 10.5 h -0.1 l -1.25,-0.2 h -0.35 m 1.55,-0.6 0.05,-0.15 -1.95,-0.2 V 9.5 l -0.05,0.2 1.9,0.25 0.05,-0.25 m 4.25,-2.2 v 0.05 l 0.1,-0.05 h -0.1 m -0.65,0.25 -0.15,0.3 0.15,-0.3 m -7.7,16.15 0.5,0.1 0.4,0.05 1.25,-2.1 h -0.15 l -2.3,-0.25 0.3,2.2 m -2.05,0.95 -0.1,0.1 v 0.25 l 1.55,0.3 0.7,0.2 h 0.55 1.6 0.25 l 0.1,-0.15 -0.15,-0.1 h -0.15 l -1.5,-0.2 -0.6,0.15 h -0.15 l -0.5,-0.3 -1.6,-0.25 m 1.85,1.7 0.25,0.05 0.4,-0.15 -0.5,-0.25 -0.5,0.15 q 0.15,0.05 0.35,0.2 m 35.05,-26.3 -0.5,0.05 -1,0.1 -0.3,0.05 L 13.15,0.4 13.1,0.55 13.15,0.75 13.1,1 13.15,0.95 13.7,0.9 14.9,0.75 15.95,0.6 h 0.1 L 16,0.4 15.9,0.2 15.45,0.25 h -0.1 m 1.3,2.9 -0.1,-0.1 -0.3,-0.7 V 2.25 L 16.1,1.5 14.25,1.7 14,1.65 H 13.4 L 13.55,2.55 13.6,2.7 13.55,3.25 13.5,3.4 V 3.45 3.6 l -0.2,0.7 -0.05,0.05 -0.1,0.3 -0.25,0.4 V 5.1 L 12.8,5.5 12.75,5.6 V 5.65 L 12.8,6 12.85,6.25 12.95,6.4 V 6.45 L 13.15,6.8 13.7,7.55 14.1,7.9 14.9,8.85 14.95,8.9 15.6,8.85 15.8,8.8 17,8.65 h 0.1 V 8.6 L 17.55,7.45 17.6,7.4 17.9,6.8 18.1,6.05 V 5.85 5.35 L 18.05,4.9 17.3,4.1 17.15,3.9 16.65,3.15 M 11.6,7.75 11.75,8 11.6,7.75 M 18.8,12.8 18.5,12.25 18.4,12.05 18.2,11.7 17.85,10.95 17.4,10.2 16.75,10.3 H 16.4 l -0.55,0.1 -0.7,0.1 h -0.1 v 0.1 0.35 l -0.15,0.7 -0.05,0.55 -0.1,0.25 v 0.25 0.05 l -0.05,0.35 -0.1,0.65 -0.05,0.55 v 0.25 l 0.2,1.2 q 0.25,1.2 1,3 l 0.75,1.85 0.15,0.3 0.5,-0.1 0.4,-0.05 h 0.05 l 0.55,-0.05 1.5,-0.1 V 20.25 19.55 19.3 19.05 18.9 17.8 L 19.6,17.25 19.5,15.4 19.45,15.15 19.4,14.55 19.1,13.6 18.8,12.8 M 17.15,9.7 17.1,9.5 V 9.35 l -1.5,0.2 H 15.15 L 15.2,9.7 15.25,9.95 15.7,9.9 17.15,9.7 m 0.15,12.25 h -0.15 l 0.7,1.2 0.4,0.65 0.15,0.25 0.4,-0.05 0.5,-0.1 0.05,-0.2 0.25,-2 -2.3,0.25 m 1.95,3.45 H 19.1 L 18.5,25.25 17.2,25.4 17,25.45 h -0.15 l -0.15,0.1 0.1,0.15 h 0.25 0.3 1.3 0.55 l 0.7,-0.2 1,-0.25 0.55,-0.05 v -0.25 l -0.1,-0.1 -0.4,0.1 -1.2,0.15 -0.5,0.3 m 0.25,1.15 q 0.2,-0.15 0.35,-0.2 l -0.5,-0.15 -0.5,0.25 q 0.15,0 0.4,0.15 l 0.25,-0.05"
         fill="#6b6b6b"
         fill-rule="evenodd"
         stroke="none"
         id="path11" />
      <path
         d="m -19.55,-23.85 v -1.3 l -0.05,-0.7 1.5,0.1 0.5,0.05 h 0.5 l 0.8,0.05 h 36.05 l -0.05,0.5 v 1.45 h -0.15 -36.6 -1.05 l -1.45,-0.15 m 2.8,26.9 1.6,0.05 1.1,0.3 q -0.6,0.35 -0.9,1.9 -0.15,0.75 0.7,1.1 l -3.3,-0.25 -0.75,-0.3 v -0.5 l 0.05,-0.45 0.75,-0.8 0.15,-0.2 0.6,-0.85 m -1.95,9.2 0.6,-0.25 0.1,-0.05 1.45,0.2 1.6,0.3 v 0.25 l -1.45,1.25 -1.05,1.3 h -0.95 q -0.8,-0.1 -1.2,-0.7 l 0.3,-0.95 0.6,-1.35 m 3.9,1.5 0.05,0.55 v 0.25 l -0.45,0.25 -0.25,0.05 -0.15,0.05 0.5,-0.6 0.3,-0.55 M 13.5,3.6 l 1.35,-0.3 0.5,-0.1 1.3,-0.05 0.5,0.75 0.15,0.2 0.75,0.8 0.05,0.45 v 0.5 0.2 Q 17.3,6.65 15.35,6.7 L 15.2,6.55 14.15,5.2 13.3,4.3 13.5,3.6 m 5.3,9.2 0.3,0.8 0.3,0.95 0.05,0.6 0.05,0.25 h -0.05 l -1.35,0.5 -0.85,0.1 -0.8,0.05 q -1.65,0 -1.75,-1.9 0,-1.2 1.8,-1.4 l 1.15,-0.05 h 0.1 l 1.05,0.1 M 17.15,9.7 15.7,9.9 15.25,9.95 15.2,9.7 15.15,9.55 h 0.45 l 1.5,-0.2 V 9.5 l 0.05,0.2"
         fill="#8a8a8a"
         fill-rule="evenodd"
         stroke="none"
         id="path12" />
      <path
         d="m -19.55,-23.85 1.45,0.15 h 1.05 36.6 0.15 v 0.1 0.45 0.75 h 0.05 v 0.3 H 19.5 l -0.45,-0.3 H -15.6 v 0.1 h -0.7 l -1.3,0.05 v 0.05 h -0.5 l -1.5,0.1 0.05,-0.3 v -0.75 -0.45 -0.25 m 33.55,9.45 0.1,0.4 0.1,1.05 v 0.75 l -0.1,0.65 v 0.25 l -0.1,0.3 -0.05,1.1 -0.15,0.6 -0.65,0.1 -0.2,0.05 0.1,-1.1 q 0.15,-1 0.45,-1.8 l 0.05,-0.05 q 0.4,-1.15 0.45,-2.3 M 11.9,-9.05 11.55,-9 h -0.1 l -0.05,-0.15 -0.15,-0.3 -0.35,-0.65 -0.25,-0.45 -0.2,-0.3 -0.1,-0.2 V -11.1 L 10.2,-11.3 9.9,-11.95 9.85,-12 9.6,-12.5 9.5,-12.75 9.25,-13.9 9.15,-14.95 V -17 -19 l 0.05,-0.35 0.95,-0.05 1.4,-0.25 0.4,-0.1 0.7,2.4 0.45,1.85 0.05,0.75 q 0,1.5 -0.55,2.7 l -0.15,0.3 q -0.6,1.1 -0.7,2.15 v 0.2 l 0.15,0.35 m 0.5,0.9 -0.5,0.05 V -8.25 L 11.85,-8.5 h 0.3 l 0.25,0.35 m 0.5,-0.45 0.85,-0.15 v 0.2 l 0.05,0.15 -1.25,0.25 0.25,-0.15 0.1,-0.1 v -0.2 m 2.1,8.05 -1.15,0.15 -0.45,0.2 -0.35,0.05 -0.1,-0.75 -0.05,-0.15 v -0.1 L 12.65,-1.7 12.5,-1.85 V -1.9 L 12,-2.7 11.95,-2.75 11.75,-2.95 11.35,-3.3 11.15,-3.5 11,-3.8 V -3.85 L 10.9,-4.4 v -0.2 -0.05 l 0.3,-1.2 0.05,-0.05 0.2,-0.4 0.45,-1.05 0.05,-0.1 2.05,-0.3 h 0.1 l 0.65,0.9 0.2,0.5 0.5,1.85 -0.2,1.15 -0.05,0.25 V -3 l -0.3,1.35 v 0.05 l 0.1,1.05 m -29.3,-11 -0.1,-1.4 0.1,-1.05 0.15,-0.5 0.6,-2.1 0.55,-1.6 0.15,-0.35 0.1,-0.25 0.25,-0.6 0.1,-0.25 0.05,-0.15 0.6,0.15 1.4,0.25 0.95,0.05 0.05,0.35 v 2 l -0.1,3.1 -0.25,1.15 -0.1,0.25 -0.25,0.5 -0.35,0.7 -0.15,0.2 v 0.05 l -0.1,0.2 -0.2,0.3 -0.25,0.45 -0.35,0.65 -0.15,0.3 -0.05,0.15 h -0.1 L -13,-9.15 -13.35,-9.2 -13.2,-9.55 q 0.05,-0.3 -0.4,-1.1 l -0.2,-0.55 -0.5,-0.35 m 0.35,2.8 1.9,0.25 -0.05,0.25 v 0.15 l -1.9,-0.3 0.05,-0.15 v -0.2 m -1.15,2 0.8,-1 h 0.1 l 2.05,0.3 0.05,0.1 0.45,1.05 0.25,0.45 0.3,1.25 v 0.2 l -0.1,0.55 v 0.05 l -0.35,0.5 -0.4,0.35 -0.2,0.2 -0.55,0.85 v 0.05 l -0.15,0.15 -0.25,0.55 v 0.1 l -0.15,0.9 -0.8,-0.25 -1.85,-0.25 0.15,-0.75 v -0.1 -0.75 l -0.3,-1 -0.05,-0.2 -0.45,-1 0.15,-0.4 0.15,-0.5 q 0.4,-0.9 1.15,-1.4 m 1.75,7.5 L -13.3,1 -13.35,0.95 -15.1,0.75 -16.15,0.6 h -0.1 l 0.05,-0.2 0.1,-0.2 1.05,0.1 1.7,0.1 0.05,0.15 -0.05,0.2 m -3.4,2.3 0.3,-0.7 v -0.1 l 0.15,-0.75 1.85,0.2 0.85,-0.05 -0.15,0.9 -0.05,0.15 0.05,0.55 -0.3,0.15 -1.1,-0.3 -1.6,-0.05 m 3.6,3.4 -0.75,1.1 -0.4,0.35 -0.8,0.95 -0.05,0.05 -2.05,-0.25 h -0.1 Q -17.4,8 -17.75,7.45 -18.25,6.8 -18.3,5.85 l 0.75,0.3 3.3,0.25 0.55,0.15 h 0.1 l 0.45,-0.1 m -4.95,5.55 0.4,-0.45 0.75,-0.95 v -0.3 h 0.35 l 1.25,0.2 h 0.1 v 0.1 0.35 l 0.15,0.7 0.05,0.55 0.1,0.25 -1.6,-0.3 -1.45,-0.2 -0.1,0.05 m 3.35,2.55 -0.2,1.2 q -0.25,1.2 -1,3 l -0.75,1.85 -0.15,0.3 -0.95,-0.15 -2.05,-0.15 v -0.35 -0.7 q 1,-0.55 2.75,-2.7 l 1.5,-1.95 0.15,-0.05 0.25,-0.05 0.45,-0.25 m -5.05,2.7 0.15,-2.1 0.05,-0.6 q 0.4,0.6 1.2,0.7 h 0.95 l -0.2,0.5 q -0.6,2.55 -1.9,3.1 -0.05,-1.05 -0.25,-1.6 m 4.4,-7.55 -0.05,0.25 -1.9,-0.25 0.05,-0.2 V 9.35 l 1.95,0.2 -0.05,0.15 m -4.1,14.2 -0.3,-2.2 2.3,0.25 h 0.15 L -18.6,24.05 -19,24 -19.5,23.9 m -2.05,0.95 1.6,0.25 0.5,0.3 h 0.15 l 0.6,-0.15 1.5,0.2 h 0.15 l 0.15,0.1 -0.1,0.15 h -0.25 -1.6 -0.55 l -0.7,-0.2 -1.55,-0.3 v -0.25 l 0.1,-0.1 m 37,-24.6 0.45,-0.05 0.1,0.2 0.05,0.2 h -0.1 L 14.9,0.75 13.7,0.9 13.15,0.95 13.1,1 13.15,0.75 13.1,0.55 13.15,0.4 l 0.4,0.05 0.3,-0.05 1,-0.1 0.5,-0.05 0.05,0.05 0.05,-0.05 M 13.5,3.6 V 3.45 3.4 L 13.55,3.25 13.6,2.7 13.55,2.55 13.4,1.65 H 14 l 0.25,0.05 1.85,-0.2 0.15,0.75 v 0.1 l 0.3,0.7 0.1,0.1 -1.3,0.05 -0.5,0.1 -1.35,0.3 m 4.6,2.45 -0.2,0.75 -0.45,0.35 -0.15,0.1 -1.15,0.2 H 16.1 L 15.35,6.7 Q 17.3,6.65 18.1,6.05 m -0.95,14.75 -0.5,0.1 -0.15,-0.3 -0.75,-1.85 q -0.75,-1.8 -1,-3 l -0.2,-1.2 V 14.3 l 0.05,-0.55 0.1,-0.65 0.05,-0.35 V 12.7 12.45 l 0.1,-0.25 0.05,-0.55 0.15,-0.7 V 10.6 10.5 h 0.1 l 0.7,-0.1 0.55,-0.1 h 0.35 l 0.65,-0.1 0.45,0.75 0.35,0.75 0.2,0.35 0.1,0.2 0.3,0.55 -1.05,-0.1 h -0.1 l -1.15,0.05 q -1.8,0.2 -1.8,1.4 0.1,1.9 1.75,1.9 l 0.8,-0.05 0.85,-0.1 1.35,-0.5 h 0.05 l 0.1,1.85 0.05,0.55 -0.8,0.75 -1.3,1.65 -0.4,0.6 m 2.5,-1.75 v 0.25 0.25 0.7 0.35 l -1.5,0.1 0.95,-1.05 0.1,-0.1 0.45,-0.5 m -2.35,2.9 2.3,-0.25 -0.25,2 -0.05,0.2 -0.5,0.1 -0.4,0.05 -0.15,-0.25 -0.4,-0.65 -0.7,-1.2 h 0.15 m 1.95,3.45 0.5,-0.3 1.2,-0.15 0.4,-0.1 0.1,0.1 v 0.25 l -0.55,0.05 -1,0.25 -0.7,0.2 h -0.55 -1.3 -0.3 -0.25 l -0.1,-0.15 0.15,-0.1 H 17 l 0.2,-0.05 1.3,-0.15 0.6,0.15 h 0.15"
         fill="#7b7b7b"
         fill-rule="evenodd"
         stroke="none"
         id="path13" />
      <path
         d="m 11.95,-19.75 0.2,-0.05 0.05,0.15 0.1,0.25 0.25,0.6 0.1,0.25 0.15,0.35 0.55,1.6 0.35,1.15 0.25,0.95 0.05,0.1 q -0.05,1.15 -0.45,2.3 l -0.05,0.05 q -0.3,0.8 -0.45,1.8 l -0.1,1.1 H 12.8 l -0.9,0.1 -0.15,-0.35 v -0.2 q 0.1,-1.05 0.7,-2.15 l 0.15,-0.3 q 0.55,-1.2 0.55,-2.7 l -0.05,-0.75 -0.45,-1.85 -0.7,-2.4 M -11.8,4.8 -12,4.5 -12.2,3.95 -11.8,4.8 m 0.7,-6.8 0.4,-0.45 0.3,-0.3 -0.7,0.75 M 12.4,-8.15 12.15,-8.5 12.9,-8.6 v 0.2 l -0.1,0.1 -0.25,0.15 H 12.4 M 15,-0.55 14.9,-1.6 V -1.65 L 15.2,-3 v -0.1 l 0.05,-0.25 0.2,-1.15 -0.5,-1.85 -0.2,-0.5 h 0.05 l 0.1,0.1 q 0.75,0.5 1.15,1.4 l 0.15,0.5 0.15,0.4 -0.2,0.45 -0.25,0.55 -0.05,0.2 -0.1,0.3 -0.2,0.7 v 0.75 0.1 l 0.1,0.4 0.05,0.35 -0.7,0.1 M -13.35,-9.2 -14,-9.3 l -0.2,-1.7 -0.1,-0.3 v -0.25 l 0.5,0.35 0.2,0.55 q 0.45,0.8 0.4,1.1 l -0.15,0.35 m -0.7,12.6 0.3,-0.15 0.05,0.15 v 0.05 l 0.25,0.9 0.1,0.3 0.25,0.4 0.15,0.55 v 0.05 0.1 l -0.1,0.5 -0.1,0.2 -0.45,0.1 h -0.1 L -14.25,6.4 q -0.85,-0.35 -0.7,-1.1 0.3,-1.55 0.9,-1.9 m -4.65,8.85 0.1,-0.2 0.2,-0.35 0.8,-1.5 0.65,0.1 v 0.3 l -0.75,0.95 -0.4,0.45 -0.6,0.25 m 3.75,0.45 v 0.05 l 0.05,0.35 0.1,0.65 -0.3,0.55 -0.5,0.6 -1.5,1.95 q -1.75,2.15 -2.75,2.7 V 19.3 18.9 l 0.05,-1.65 q 0.2,0.55 0.25,1.6 1.3,-0.55 1.9,-3.1 l 0.2,-0.5 1.05,-1.3 1.45,-1.25 m -4.75,13.85 q -0.2,-0.15 -0.35,-0.2 l 0.5,-0.15 0.5,0.25 -0.4,0.15 -0.25,-0.05 M 15.45,0.25 15.4,0.3 15.35,0.25 h 0.1 M 17.9,6.8 17.6,7.4 17.55,7.45 17.1,8.6 V 8.65 H 17 L 15.8,8.8 15.6,8.85 14.95,8.9 14.9,8.85 14.1,7.9 13.7,7.55 13.15,6.8 12.95,6.45 V 6.4 L 12.85,6.25 12.8,6 V 5.5 L 12.9,5.1 V 5.05 l 0.25,-0.4 0.1,-0.3 0.05,-0.05 0.85,0.9 1.05,1.35 0.15,0.15 0.75,0.75 h 0.05 L 17.3,7.25 17.45,7.15 17.9,6.8 m 1.75,11 v 1.1 0.15 l -0.45,0.5 -0.1,0.1 -0.95,1.05 -0.55,0.05 h -0.05 l -0.4,0.05 0.4,-0.6 1.3,-1.65 0.8,-0.75"
         fill="#919191"
         fill-rule="evenodd"
         stroke="none"
         id="path14" />
      <path
         d="M 17.05,0.45 17.1,0.5 H 17.05 V 0.45 m 0.4,0.5 Q 18.5,2.35 18.8,3.8 L 18.65,3.65 18.1,2.85 17.7,2.2 17.2,0.95 h 0.25 M 19,8.7 q 0.5,0.85 0.8,2.15 l 0.1,0.35 -0.05,-0.05 -1.1,-1.8 V 9.3 L 19,8.7 m -2.7,15.7 0.2,-0.1 0.05,0.05 -0.25,0.05 m 3.2,2.15 -0.25,0.05 Q 19,26.45 18.85,26.45 l 0.5,-0.25 0.5,0.15 q -0.15,0.05 -0.35,0.2"
         fill="#bfbfbf"
         fill-rule="evenodd"
         stroke="none"
         id="path15" />
      <path
         d="M 12.8,6 12.75,5.65 V 5.6 L 12.8,5.5 V 6"
         fill="#dbdbdb"
         fill-rule="evenodd"
         stroke="none"
         id="path16" />
      <path
         d="M -17.25,0.5 V 0.3 0.05 l 0.05,-0.35 m 5.4,5.1 -0.2,-0.3 -0.2,-0.55 -0.15,-1.05 0.2,-1.3 0.1,-1.25 0.05,-0.25 0.35,-1.05 0.55,-1.05 0.4,-0.45 0.3,-0.3 0.5,-0.6 m -4.1,-16.6 0.1,-0.2 0.2,-0.9 m 1.7,21.4 -0.15,1.25 m 0.2,6.45 0.15,-0.3 M 17.05,0.45 V 0.5 M 11.8,0.1 11.85,0.35 M 11.75,8 11.6,7.75 M 16.3,24.4 16.55,24.35 16.5,24.3"
         fill="none"
         stroke="#6b6b6b"
         stroke-linecap="round"
         stroke-linejoin="round"
         stroke-width="1"
         id="path17" />
      <path
         d="m -17.2,-0.3 v -1.35 l -0.1,-0.8 -0.25,-0.85 -0.35,-0.7 q -0.2,-0.85 0.15,-2.25 l 0.45,-0.95 0.75,-0.6 q 0.85,-0.65 0.95,-0.95 v -0.1 l -0.4,-2 q -0.35,-2.1 0.35,-3.9 l 0.85,-2.6 0.65,-2.25 0.05,-0.05 0.1,-0.3 h -1.7 -0.6 V -20 l -1.8,-0.15 v -0.15 l -1,-0.1 -1.15,-0.1 -0.3,0.05 q -0.35,0 -0.55,-0.25 l -0.65,-0.25 0.25,-0.55 -0.05,-0.45 v -0.45 -1.1 l 0.05,-1.65 0.2,-1.35 v -0.15 q 0,-0.75 0.85,-0.8 l 2.35,-0.1 v -0.25 h 38.65 q 1.1,0.45 1.1,1.1 l -0.1,0.45 0.15,1.1 v 1.65 0.35 0.75 0.45 l -0.05,0.45 0.25,0.55 -0.65,0.25 q -0.2,0.25 -0.55,0.25 l -0.3,-0.05 -0.55,0.05 -0.4,0.3 -0.4,0.2 h -5.2 l 0.1,0.3 v 0.05 l 0.65,2.25 0.85,2.6 0.1,0.2 0.2,0.8 q 0.3,1.35 0.05,2.9 l -0.4,2 v 0.1 l 0.3,0.4 0.5,0.4 0.15,0.15 0.75,0.6 0.45,0.95 q 0.35,1.4 0.15,2.25 l -0.35,0.7 q -0.2,0.3 -0.25,0.85 l -0.1,0.8 v 1.35 l 0.05,0.35 V 0.3 0.45 m 1.75,3.35 0.4,0.35 q 0.5,0.75 0.7,2.15 0.15,0.5 -0.1,1.05 L 19.3,8.15 19,8.7 18.75,9.3 v 0.05 l 1.1,1.8 0.05,0.05 q 1.05,1.95 1.05,3.8 l 0.15,2.65 0.2,2.35 q -0.15,0.85 0.2,2.65 0.05,0.5 -0.3,1.15 h 0.65 q 0.6,0.05 0.65,0.4 l 0.05,0.25 -0.2,0.2 0.25,0.6 q 0.2,0.25 0,0.4 l -1.35,0.5 0.3,0.55 q 0.25,0.65 -0.85,0.9 l -2.3,0.25 q -0.8,0.05 -1.05,-0.3 l -0.1,-0.3 0.05,-0.2 0.1,-0.4 H 17.2 L 15.9,26.45 15.75,26.1 15.8,25.5 15.6,25.35 15.5,25.1 q 0.05,-0.35 0.4,-0.55 L 16.3,24.4 M 16.5,24.3 15.7,23.35 15.15,21.3 14.9,20.8 14.3,19.1 14.15,18.55 13.3,15.95 Q 12.8,14.1 13.05,12 l 0.5,-1.95 V 10 L 12.6,9 11.75,8 m -23.7,0.05 -0.85,0.95 -0.95,1 v 0.05 l 0.5,1.95 q 0.25,2.1 -0.25,3.95 l -0.85,2.6 -0.15,0.55 -0.6,1.7 -0.25,0.5 -0.55,2.05 -0.85,1 0.65,0.2 q 0.35,0.2 0.4,0.55 l -0.1,0.25 -0.2,0.15 0.05,0.6 -0.15,0.35 -1.3,0.2 h -0.2 l 0.1,0.4 0.05,0.2 -0.1,0.3 q -0.25,0.35 -1.05,0.3 l -2.3,-0.25 q -1.1,-0.25 -0.85,-0.9 l 0.3,-0.55 -1.35,-0.5 q -0.2,-0.15 0,-0.4 l 0.25,-0.6 -0.2,-0.2 0.05,-0.25 q 0.05,-0.35 0.65,-0.4 h 0.65 l -0.3,-1.15 q 0.35,-1.8 0.2,-2.65 l 0.2,-2.35 0.15,-2.65 q 0,-1.9 1.1,-3.85 l 1.1,-1.8 V 9.3 q 0,-0.3 -0.55,-1.15 L -20,7.35 q -0.25,-0.55 -0.1,-1.05 0.2,-1.4 0.7,-2.15 l 0.55,-0.5 0.55,-0.8 0.4,-0.65 0.5,-1.25 m 8.05,-6.5 q -0.1,-0.65 -0.5,-1.4 -0.65,-0.8 -0.55,-1.2 V -8.2 l 1.2,-1.75 q 1,-1.95 1.2,-3.85 l 0.15,-2.7 0.05,-0.55 0.05,-1.75 -0.1,-0.55 0.05,-0.3 v -0.3 H 7.6 v 0.3 l 0.05,0.3 -0.1,0.55 0.05,1.75 0.05,0.55 0.15,2.05 v 0.65 q 0.1,0.85 0.35,1.7 L 9,-9.95 10.2,-8.2 v 0.05 q 0.1,0.4 -0.55,1.2 l -0.5,1.4 v 2.2 m 0.55,0 0.5,0.6 0.3,0.3 0.4,0.45 0.55,1.05 0.35,1.05 m 0.05,0.25 0.1,1.25 0.2,1.3 L 12,3.95 11.8,4.5 11.6,4.8 11.35,5.5 m -22.9,0 -0.2,-0.6 -0.05,-0.1 m 29,-3.85 0.5,1.25 0.4,0.65 0.55,0.8 0.15,0.15"
         fill="none"
         stroke="#6b6b6b"
         stroke-linecap="round"
         stroke-linejoin="round"
         stroke-width="3"
         id="path18" />
    </g>
    <g
       id="sprite1"
       transform="translate(5.4,4)">
      <use
         ffdec:characterId="43"
         height="8"
         transform="translate(-5.4,-4)"
         width="10.8"
         xlink:href="#shape2"
         id="use18" />
    </g>
    <g
       id="shape2"
       transform="translate(5.4,4)">
      <path
         d="m 2.9,-0.35 q 0,-1.25 1.25,-1.25 1.25,0 1.25,1.2 0,1.3 -1.25,1.3 Q 3.6,0.9 3.25,0.5 2.9,0.15 2.9,-0.35 m 0.35,-2.3 q 0,0.55 -0.35,0.9 -0.4,0.45 -1,0.45 -1.35,0 -1.35,-1.4 0,-1.3 1.35,-1.3 1.35,0 1.35,1.35 m -3.1,1.9 h 0.2 q 2.6,0.1 2.6,2.8 l -0.3,1 Q 2.05,4 0.45,4 H 0.35 0.15 0.1 -0.45 q -1.6,0 -2.2,-0.95 l -0.3,-1 q 0,-2.8 2.8,-2.8 h 0.3 M -1.55,-4 q 1.35,0 1.35,1.35 0,0.55 -0.4,0.9 -0.4,0.45 -0.95,0.45 -1.4,0 -1.4,-1.4 0,-1.3 1.4,-1.3 m -2.6,2.4 q 1.25,0 1.25,1.25 0,0.5 -0.35,0.85 -0.35,0.4 -0.9,0.4 -1.25,0 -1.25,-1.3 0,-1.2 1.25,-1.2"
         fill="#6b6b6b"
         fill-rule="evenodd"
         stroke="none"
         id="path19" />
    </g>
  </defs>
</svg>
