<?xml version="1.0" encoding="UTF-8" standalone="no"?>
<svg
   ffdec:objectType="frame"
   height="55.356453"
   width="53.5"
   version="1.1"
   id="svg8"
   sodipodi:docname="1.svg"
   xmlns:inkscape="http://www.inkscape.org/namespaces/inkscape"
   xmlns:sodipodi="http://sodipodi.sourceforge.net/DTD/sodipodi-0.dtd"
   xmlns:xlink="http://www.w3.org/1999/xlink"
   xmlns="http://www.w3.org/2000/svg"
   xmlns:svg="http://www.w3.org/2000/svg"
   xmlns:ffdec="https://www.free-decompiler.com/flash">
  <sodipodi:namedview
     id="namedview8"
     pagecolor="#ffffff"
     bordercolor="#000000"
     borderopacity="0.25"
     inkscape:showpageshadow="2"
     inkscape:pageopacity="0.0"
     inkscape:pagecheckerboard="0"
     inkscape:deskcolor="#d1d1d1"
     fit-margin-top="5"
     fit-margin-left="5"
     fit-margin-right="5"
     fit-margin-bottom="5" />
  <g
     transform="translate(26.75,27.656452)"
     id="g1">
    <use
       ffdec:characterId="2004"
       height="55.349998"
       transform="translate(-26.75,-27.65)"
       width="53.5"
       xlink:href="#shape0"
       id="use1" />
  </g>
  <defs
     id="defs8">
    <g
       id="shape0"
       transform="translate(26.75,27.65)">
      <path
         d="m 23.9,-25.95 -6,7.35 q 1.1,0.9 1.1,2.65 l -0.7,1.8 -1.2,1.45 q 1.8,1.8 2.2,3.35 0.55,0.7 0.65,1.6 l 0.7,0.5 q 2.2,1.8 2.2,4.75 0.05,3.1 -0.6,3.95 0.95,0.95 1.5,2.3 l 0.1,-0.1 Q 24.9,2.95 25.55,2.8 V 2.4 Q 26.4,2 26.7,2.65 l 0.05,0.85 -0.05,0.85 -0.3,0.35 -1.5,1.15 -0.65,0.3 0.05,1 -0.3,2 0.4,2.1 L 25,13 q 0.5,1.65 0.5,3.2 v 0.3 q -0.05,2.9 -0.95,3.3 -0.25,0.35 -0.65,0.35 l -1.6,-0.8 0.05,2.85 v 2.4 l -0.2,1.1 v 0.1 q 0,0.95 -2.1,1.35 l -9.35,0.4 H 4.6 -15.85 l -2.95,0.15 q -2.7,0 -3.4,-1.25 l -0.2,-1.35 q 0,-1.85 1.5,-2.85 l -0.7,0.1 -1.3,0.4 q -0.85,0 -1.05,-0.85 V 21 19.05 l 0.15,-0.45 -1.95,-1.35 -0.55,-0.75 -0.45,-0.6 0.25,-1.1 q 0,-0.7 2.85,-2.6 l 1.35,-0.85 1.9,-2.55 0.6,-1.4 0.1,-0.1 -0.1,-3.65 q 0,-2.75 1.15,-5.9 l 1.45,-3.35 q 2.9,-5.7 7.25,-8.6 9.9,-6.6 20.25,-2.75 l 1.25,0.5 q 0.45,-3.6 3.7,-3.15 l 1.4,0.35 1.2,-1.5 q 1.95,-2.35 2.25,-3.45 0.8,-2.4 2.3,-3.25 1.5,-0.8 1.5,1.5 m -9.7,10.95 1.4,-2.35 0.35,-0.4 -1.65,-0.35 -1,2.5 0.9,0.6 m 2.85,-2.2 -0.8,1.35 -1.05,1.55 0.5,0.35 0.75,-0.5 q 1.2,-0.75 1.2,-1.55 0,-0.75 -0.6,-1.2 M 1.5,-4.55 Q 4,-7.1 7.75,-7.1 l 3.05,0.2 0.4,-0.35 q 1.95,-1.5 4.75,-1.5 l 1,0.1 -0.05,-0.1 -2.35,-2.75 q -4,-4.1 -10.65,-4.1 -13.45,0 -18.75,10.9 -2.75,5.6 -2.75,12.5 0,1.45 1.4,4 0.55,-0.35 1.65,-0.55 l -0.2,-1.55 q 0,-3.25 0.4,-5.95 0.3,-2.2 1.9,-2.8 l -0.45,-1.35 -0.2,-2.05 q 0,-2.95 1.55,-2.7 1.4,0.25 1.5,2.45 l 1.85,-2.65 q 3.1,-3.6 3.1,-0.5 0,1.45 -2.35,4.25 L -9.6,0.85 q 2.15,0.4 2.15,1.6 0,0.4 -0.65,1.8 L -8.35,4.75 -7.7,4.7 Q -6,4.6 -4.6,5.45 L -4,5.95 -2.7,6 Q -2.65,4.6 -2.25,3.15 -5.5,2.95 -6.35,1.65 L -6.5,0 q 0,-4.65 4.4,-5.2 l 2.95,0.3 0.65,0.35 M 2.15,-0.9 0.8,1.75 0.35,2.7 q -0.4,1.15 -0.4,2.2 0,3.8 1.35,5.95 2.4,3.85 8.7,4.55 l 4.8,-0.05 q 2.6,-0.35 3.8,-1.7 l 0.35,-0.35 -1.5,0.15 q -4.55,0 -6.8,-2.55 -1.4,-1.6 -1.4,-3 0,-3.55 2.35,-5.9 2.1,-2.1 5.15,-2.3 2.4,-0.25 4.2,0.8 V 0.45 l -0.4,-2.85 q -0.9,-4.1 -5.05,-4.1 -3.25,0 -4.2,2.4 -0.5,1.15 -0.3,2.45 0,0.35 -0.35,0.6 L 10,-0.8 q -0.7,0 -0.9,-0.9 L 9.05,-2.6 q 0,-1.45 0.55,-2.55 -2.45,0.2 -4.75,1.4 -1.7,0.8 -2.7,2.85 M 6.8,-0.2 6.3,0.95 q 0.95,0.7 1.1,1.5 L 6.8,2.75 5.6,2.05 4.2,3.7 3.6,3.6 3.4,2.95 4.4,1.45 3.35,0.95 Q 3.85,-0.1 5.2,0.4 l 1.1,-1.15 0.35,0.1 0.15,0.45 m 8.35,-3.15 -0.45,0.9 Q 14.25,-1.9 13.95,-1.9 13.3,-1.9 13.1,-2.35 12.7,-2.5 12.7,-3 q 0,-0.45 0.3,-0.6 0.1,-1.05 1.05,-1.35 1.1,-0.25 1.1,1.6 m 3.45,1.1 q -0.45,0 -0.6,-0.6 l -0.1,-0.6 q 0,-1.35 0.9,-1.05 l 0.6,0.35 q 0.45,0.15 0.45,0.9 0,0.85 -0.8,0.85 H 19 q -0.2,0.15 -0.4,0.15 M 20.5,3.5 Q 18.95,2.2 16.7,2 11.15,1.55 11.15,6.95 q 0,1.45 1.05,2.65 1.6,1.7 5.15,1.7 3.05,0 4.25,-2 0.65,-1 0.65,-2.15 l -0.1,-0.7 H 22 L 20,7.1 q -1.1,0 -1.1,-0.8 0,-0.35 2.75,-1.35 L 20.5,3.5 M 23.2,13 22.95,12.35 22.35,13 22,13.2 l -0.35,0.45 -0.05,0.1 q -0.05,0.95 -0.65,1.75 l 0.45,0.3 0.5,0.8 0.1,0.05 q 0.8,0.4 1.35,0.75 V 17.1 L 23.5,14.75 23.2,13 m -4,11.55 -0.15,-0.35 V 21.7 Q 19,20.05 19.2,18.8 L -7.4,18.75 V 18.7 l -8.3,-0.05 q 0.15,1.35 0.15,3.25 l 0.05,2.3 h 20.1 6.1 l 8.5,0.35 m -31.15,-28.45 -0.1,1.45 q 0,0.6 0.6,2.5 h 0.2 l 0.2,-2.45 -0.05,-0.85 q -0.2,-0.5 -0.85,-0.65 m 5.85,-1.95 q -1.6,0.45 -2.3,1.95 -0.35,0.65 -0.7,2.65 v 0.05 l 1.55,-2.2 1.45,-2.25 v -0.2 m 4.3,2.15 q -1.6,0 -2.25,1.8 L -4.45,0 -4.4,0.5 -4,0.85 -1.55,0.8 -1,-0.7 0.25,-2.9 -0.3,-3.15 Q -1.25,-3.7 -1.8,-3.7 m -6.85,6.4 -0.4,-0.25 h -0.2 l -1.4,-0.3 -0.15,0.1 -0.4,-0.1 h -1.15 l -0.55,3.05 -0.35,2.95 q 0,2.4 0.65,5.65 l 0.7,-1.15 0.3,-0.4 -0.3,-0.5 q -0.4,-0.75 -0.4,-2.1 0,-3.8 2.9,-4.7 Q -9.35,3.5 -8.65,2.7 M -4.6,7.3 -4.65,7.2 q -0.75,-0.95 -2.5,-0.95 -2.15,0 -3.1,1.5 -0.55,0.9 -0.55,1.85 0,1 0.45,1.45 0.75,0.9 2.9,1.05 0.6,-2.4 2.95,-3 Q -4.25,8.9 -4,8.85 L -4.45,7.65 -4.6,7.3 M -3.2,7.85 -3.3,8.8 -2.65,9 h 0.2 L -2.7,7.1 -3.25,7.3 -3.2,7.85 m -0.1,3.05 q -2.45,0.95 -2.45,2.65 l 0.65,1.85 h 3 l -0.55,-0.75 q 0,-1.05 2.8,-0.5 L -0.6,13.15 -1.75,11 -2.95,10.75 -3.3,10.9 m -16.45,1.1 -0.5,0.35 -3.45,2.8 0.4,0.1 q 1.7,0.65 2.15,1.25 h 0.05 q 0.25,0.15 0.25,1.05 l -0.65,2.1 q 0,0.55 0.1,0.2 l 1.35,-0.7 1.2,-0.4 0.05,-0.8 -0.1,-0.7 0.2,-0.75 0.1,-0.05 0.1,-0.2 q 0.2,-0.3 0.85,-0.5 l -0.05,-0.05 -0.6,-1.15 -0.75,-3.2 -0.7,0.65 m 7.55,3.4 h 0.85 l 0.05,-0.7 -0.9,0.7 m -2.2,-2.85 h -0.05 l -0.8,0.95 0.75,1.2 0.35,0.3 0.6,0.4 h 0.05 q -0.5,-0.7 -0.9,-2.75 v -0.1 m -4.75,10.55 q -1.45,0.75 -1.45,1.8 0,0.6 1.75,0.7 l -0.2,-1 v -1.55 l -0.1,0.05 M -9,13.55 q -1.25,0.9 -1.25,1.4 l 0.2,0.45 h 2.8 l -0.4,-1.3 V 13.6 H -8.1 L -9,13.55"
         fill="#6b6b6b"
         fill-rule="evenodd"
         stroke="none"
         id="path1" />
      <path
         d="m 16.4,5.9 q -0.8,1 -1.9,1 -1.25,0 -1.7,-0.6 L 12.6,5.65 q 0,-2.3 2.25,-2.8 2.25,-0.5 2.25,1.45 0,0.75 -0.7,1.6"
         fill="#e0e0e0"
         fill-rule="evenodd"
         stroke="none"
         id="path2" />
      <path
         d="m -6.1,-5.85 v 0.2 l -1.45,2.25 -1.55,2.2 v -0.05 q 0.35,-2 0.7,-2.65 0.7,-1.5 2.3,-1.95 m -5.85,1.95 q 0.65,0.15 0.85,0.65 l 0.05,0.85 -0.2,2.45 h -0.2 q -0.6,-1.9 -0.6,-2.5 l 0.1,-1.45 M -3.2,7.85 -3.25,7.3 -2.7,7.1 -2.45,9 h -0.2 L -3.3,8.8 -3.2,7.85 m -11.2,4.7 v 0.1 q 0.4,2.05 0.9,2.75 h -0.05 l -0.6,-0.4 -0.35,-0.3 -0.75,-1.2 0.8,-0.95 h 0.05 m 2.2,2.85 0.9,-0.7 -0.05,0.7 h -0.85"
         fill="#7b7b7b"
         fill-rule="evenodd"
         stroke="none"
         id="path3" />
      <path
         d="M 19.2,24.55 10.7,24.2 H 4.6 -15.5 l -0.05,-2.3 q 0,-1.9 -0.15,-3.25 l 8.3,0.05 v 0.05 l 26.6,0.05 q -0.2,1.25 -0.15,2.9 v 2.5 l 0.15,0.35"
         fill="#c1b8a7"
         fill-rule="evenodd"
         stroke="none"
         id="path4" />
      <path
         d="m 18.6,-2.25 q 0.2,0 0.4,-0.15 h 0.05 q 0.8,0 0.8,-0.85 0,-0.75 -0.45,-0.9 L 18.8,-4.5 q -0.9,-0.3 -0.9,1.05 l 0.1,0.6 q 0.15,0.6 0.6,0.6 m -3.45,-1.1 q 0,-1.85 -1.1,-1.6 -0.95,0.3 -1.05,1.35 -0.3,0.15 -0.3,0.6 0,0.5 0.4,0.65 0.2,0.45 0.85,0.45 0.3,0 0.75,-0.55 l 0.45,-0.9 M 6.8,-0.2 6.65,-0.65 6.3,-0.75 5.2,0.4 Q 3.85,-0.1 3.35,0.95 l 1.05,0.5 -1,1.5 0.2,0.65 0.6,0.1 1.4,-1.65 1.2,0.7 0.6,-0.3 Q 7.25,1.65 6.3,0.95 L 6.8,-0.2 M 2.15,-0.9 q 1,-2.05 2.7,-2.85 2.3,-1.2 4.75,-1.4 -0.55,1.1 -0.55,2.55 l 0.05,0.9 q 0.2,0.9 0.9,0.9 l 0.65,-0.25 Q 11,-1.3 11,-1.65 q -0.2,-1.3 0.3,-2.45 0.95,-2.4 4.2,-2.4 4.15,0 5.05,4.1 l 0.4,2.85 V 0.5 Q 19.15,-0.55 16.75,-0.3 13.7,-0.1 11.6,2 9.25,4.35 9.25,7.9 q 0,1.4 1.4,3 2.25,2.55 6.8,2.55 l 1.5,-0.15 -0.35,0.35 Q 17.4,15 14.8,15.35 L 10,15.4 Q 3.7,14.7 1.3,10.85 -0.05,8.7 -0.05,4.9 q 0,-1.05 0.4,-2.2 L 0.8,1.75 2.15,-0.9 M 1.5,-4.55 0.85,-4.9 -2.1,-5.2 Q -6.5,-4.65 -6.5,0 l 0.15,1.65 q 0.85,1.3 4.1,1.5 Q -2.65,4.6 -2.7,6 L -4,5.95 -4.6,5.45 Q -6,4.6 -7.7,4.7 l -0.65,0.05 0.25,-0.5 q 0.65,-1.4 0.65,-1.8 0,-1.2 -2.15,-1.6 l 2.15,-2.45 q 2.35,-2.8 2.35,-4.25 0,-3.1 -3.1,0.5 l -1.85,2.65 q -0.1,-2.2 -1.5,-2.45 -1.55,-0.25 -1.55,2.7 l 0.2,2.05 0.45,1.35 q -1.6,0.6 -1.9,2.8 -0.4,2.7 -0.4,5.95 l 0.2,1.55 q -1.1,0.2 -1.65,0.55 -1.4,-2.55 -1.4,-4 0,-6.9 2.75,-12.5 5.3,-10.9 18.75,-10.9 6.65,0 10.65,4.1 l 2.35,2.75 0.05,0.1 -1,-0.1 q -2.8,0 -4.75,1.5 L 10.8,-6.9 7.75,-7.1 Q 4,-7.1 1.5,-4.55 M 23.2,13 l 0.3,1.75 -0.15,2.35 v 0.3 Q 22.8,17.05 22,16.65 L 21.9,16.6 21.4,15.8 20.95,15.5 q 0.6,-0.8 0.65,-1.75 L 21.65,13.65 22,13.2 22.35,13 22.95,12.35 23.2,13 m -25,-16.7 q 0.55,0 1.5,0.55 L 0.25,-2.9 -1,-0.7 -1.55,0.8 -4,0.85 -4.4,0.5 -4.45,0 l 0.4,-1.9 q 0.65,-1.8 2.25,-1.8 m -17.95,15.7 0.7,-0.65 0.75,3.2 0.6,1.15 0.05,0.05 q -0.65,0.2 -0.85,0.5 l -0.1,0.2 -0.1,0.05 -0.2,0.75 0.1,0.7 -0.05,0.8 -1.2,0.4 -1.35,0.7 q -0.1,0.35 -0.1,-0.2 l 0.65,-2.1 q 0,-0.9 -0.25,-1.05 h -0.05 q -0.45,-0.6 -2.15,-1.25 l -0.4,-0.1 3.45,-2.8 0.5,-0.35 m 16.45,-1.1 0.35,-0.15 1.2,0.25 1.15,2.15 0.75,1 q -2.8,-0.55 -2.8,0.5 l 0.55,0.75 h -3 l -0.65,-1.85 q 0,-1.7 2.45,-2.65"
         fill="#ddc7c7"
         fill-rule="evenodd"
         stroke="none"
         id="path5" />
      <path
         d="m 20.5,3.5 1.15,1.45 q -2.75,1 -2.75,1.35 0,0.8 1.1,0.8 l 2,-0.65 h 0.15 l 0.1,0.7 q 0,1.15 -0.65,2.15 -1.2,2 -4.25,2 -3.55,0 -5.15,-1.7 -1.05,-1.2 -1.05,-2.65 0,-5.4 5.55,-4.95 2.25,0.2 3.8,1.5 m -4.1,2.4 q 0.7,-0.85 0.7,-1.6 0,-1.95 -2.25,-1.45 -2.25,0.5 -2.25,2.8 l 0.2,0.65 q 0.45,0.6 1.7,0.6 1.1,0 1.9,-1 m -21,1.4 0.15,0.35 0.45,1.2 q -0.25,0.05 -0.5,0.25 -2.35,0.6 -2.95,3 -2.15,-0.15 -2.9,-1.05 -0.45,-0.45 -0.45,-1.45 0,-0.95 0.55,-1.85 0.95,-1.5 3.1,-1.5 1.75,0 2.5,0.95 l 0.05,0.1"
         fill="#be9191"
         fill-rule="evenodd"
         stroke="none"
         id="path6" />
      <path
         d="m -8.65,2.7 q -0.7,0.8 -0.75,2.25 -2.9,0.9 -2.9,4.7 0,1.35 0.4,2.1 l 0.3,0.5 -0.3,0.4 -0.7,1.15 q -0.65,-3.25 -0.65,-5.65 l 0.35,-2.95 0.55,-3.05 h 1.15 l 0.4,0.1 0.15,-0.1 1.4,0.3 h 0.2 l 0.4,0.25"
         fill="#b9a292"
         fill-rule="evenodd"
         stroke="none"
         id="path7" />
      <path
         d="m -9,13.55 0.9,0.05 h 0.45 v 0.5 l 0.4,1.3 h -2.8 l -0.2,-0.45 q 0,-0.5 1.25,-1.4 m -10.15,9.55 0.1,-0.05 v 1.55 l 0.2,1 q -1.75,-0.1 -1.75,-0.7 0,-1.05 1.45,-1.8"
         fill="#aec4a9"
         fill-rule="evenodd"
         stroke="none"
         id="path8" />
    </g>
  </defs>
</svg>
