<?xml version="1.0" encoding="UTF-8" standalone="no"?>
<svg
   ffdec:objectType="frame"
   height="66.5"
   width="65.900002"
   version="1.1"
   id="svg13"
   sodipodi:docname="1.svg"
   xmlns:inkscape="http://www.inkscape.org/namespaces/inkscape"
   xmlns:sodipodi="http://sodipodi.sourceforge.net/DTD/sodipodi-0.dtd"
   xmlns:xlink="http://www.w3.org/1999/xlink"
   xmlns="http://www.w3.org/2000/svg"
   xmlns:svg="http://www.w3.org/2000/svg"
   xmlns:ffdec="https://www.free-decompiler.com/flash">
  <sodipodi:namedview
     id="namedview13"
     pagecolor="#ffffff"
     bordercolor="#000000"
     borderopacity="0.25"
     inkscape:showpageshadow="2"
     inkscape:pageopacity="0.0"
     inkscape:pagecheckerboard="0"
     inkscape:deskcolor="#d1d1d1"
     fit-margin-top="5"
     fit-margin-left="5"
     fit-margin-right="5"
     fit-margin-bottom="5" />
  <g
     transform="translate(33.3,27.95)"
     id="g2">
    <use
       ffdec:characterId="722"
       height="16.35"
       transform="translate(-27.45,-23.05)"
       width="18.65"
       xlink:href="#sprite0"
       id="use1" />
    <use
       ffdec:characterId="723"
       height="66.5"
       transform="translate(-33.3,-27.95)"
       width="65.900002"
       xlink:href="#shape3"
       id="use2" />
  </g>
  <defs
     id="defs13">
    <g
       id="sprite0"
       transform="translate(1.05,0.8)">
      <use
         ffdec:characterId="720"
         height="15.9"
         transform="translate(0.3,-0.8)"
         width="16.85"
         xlink:href="#sprite1"
         id="use3" />
      <use
         ffdec:characterId="721"
         height="13.45"
         transform="matrix(0.8744,0,0,1,-0.9,0.7)"
         width="21.1"
         xlink:href="#sprite2"
         id="use4" />
      <use
         ffdec:characterId="721"
         height="13.45"
         transform="matrix(0.8744,0,0,0.0597,-0.9,-0.15)"
         width="21.1"
         xlink:href="#sprite3"
         id="use5" />
    </g>
    <g
       id="sprite1"
       transform="translate(0.15,0.8)">
      <use
         ffdec:characterId="719"
         height="15.9"
         transform="translate(-0.15,-0.8)"
         width="16.85"
         xlink:href="#shape0"
         id="use6" />
    </g>
    <g
       id="shape0"
       transform="translate(0.15,0.8)">
      <path
         d="m 14.15,-0.75 q 2.35,-0.05 1.95,3.3 -0.65,4.4 0,5.5 0.7,1.2 0.55,2.8 l -0.35,2.5 q 0,0.85 -0.55,1.4 L 15.1,15.1 H 14.8 V 14.95 H 5.85 L 2.55,15.1 Q 0.5,15.15 -0.15,12.6 V 0.85 Q 0.25,-0.6 3.9,-0.8 L 8,-0.75 h 6.15 M 8.4,8.2 q -0.55,0 -1.05,0.6 v 1.5 q 0.35,0.65 1.15,0.65 1.45,0 1.7,-1.35 0.35,-1.4 -1.8,-1.4 m 0.7,3.35 Q 8.2,11.8 8.2,12.1 l 0.3,0.35 q 1.95,-0.25 1.95,-1.1 h -0.4 L 9.1,11.55 M 8.4,8.95 H 8.5 Q 9.4,8.9 9.2,9.5 9,10.15 8.4,10.15 V 8.95 M 9.55,6.3 8.5,6.45 7.45,6.75 7.5,7 8.55,7.2 Q 9.7,7.2 9.8,6.4 L 9.85,6.35 9.55,6.3 m -6,4.15 0.85,0.05 Q 5.2,10.5 5.55,10 5.45,9.6 4.85,9.6 l -1.6,0.55 0.3,0.3 m 0.05,1.4 q 0.45,0.4 1.25,0.4 2,0 1.8,-1 -1.8,0 -3.05,0.6 M 3.4,8.8 h 0.85 q 1.3,0 2.3,-0.6 L 5.85,7.85 5.4,7.75 4.25,7.85 Q 3.2,8.05 3.2,8.35 L 3.4,8.8 M 4.15,4.45 q -1.6,0 -1.6,1.55 0,0.55 0.7,1.05 L 4.2,7.5 Q 5.8,7.5 6.05,6 6.2,4.45 4.15,4.45 M 3.55,6 3.6,5.35 4.15,5.25 q 0.5,0 0.9,0.8 0.35,0.8 -0.3,0.8 L 4.25,6.8 Q 3.55,6.6 3.55,6 m 0.9,-3.65 -0.9,0.1 q -0.8,0.1 -0.8,0.35 0,0.4 0.15,0.3 L 3.85,3.25 4.75,3 5.4,2.65 Q 5.05,2.35 4.45,2.35 M 6.65,5.2 7.1,5.7 8.55,5.55 9.75,4.9 8.7,4.6 Q 7.35,4.6 6.65,5.2 M 5.55,0.85 V 0.8 L 5.25,0.75 Q 3.1,0.75 2.4,1.2 L 2.75,1.65 4.5,1.7 q 1,0 1.05,-0.85 M 9.65,2.5 Q 9.8,1.15 8.1,1.15 L 7.45,1.2 Q 6.8,1.5 6.8,2.7 q 0,1.15 1.4,1.15 1.2,0 1.45,-1.35 M 8.15,2.05 8.4,2.2 8.45,2.55 8.35,3.1 q -0.2,-0.2 -0.5,-0.3 0,-0.6 0.3,-0.75 m 2.7,8.7 v 0.15 l 0.2,0.05 h 1.05 l 0.95,-0.1 q 0.65,-0.1 0.8,-0.4 Q 13.6,10 12.7,10 q -1.55,0 -1.85,0.75 m 1.35,1.35 -1.05,0.15 -0.8,0.3 0.85,0.2 2.3,-0.35 V 12.1 H 12.2 M 10.45,6.6 10.5,6.85 11.8,7 13,6.95 q 0.7,-0.2 0.35,-0.8 l -1.5,0.05 q -0.85,0 -1.4,0.4 m 3.05,1.9 0.15,-0.6 h -2.6 l -0.1,0.05 -0.1,0.3 0.2,0.4 2.45,-0.15 m -3.05,-4 q 0,1.3 1.65,1.3 1,0 1.35,-1.25 Q 13.75,3.3 11.8,3.3 10.45,3.2 10.45,4.5 m 1.4,-0.3 0.6,0.1 V 5.05 H 12.2 q -0.6,0 -0.7,-0.45 l 0.35,-0.4 m -1.4,-1.95 0.05,0.25 2,0.2 q 0.7,0 0.85,-0.5 0.05,-0.55 -0.75,-0.55 -2.15,0 -2.15,0.6"
         fill="#707070"
         fill-rule="evenodd"
         stroke="none"
         id="path6" />
      <path
         d="m 10.45,2.25 q 0,-0.6 2.15,-0.6 0.8,0 0.75,0.55 -0.15,0.5 -0.85,0.5 l -2,-0.2 -0.05,-0.25 m 1.4,1.95 -0.35,0.4 q 0.1,0.45 0.7,0.45 h 0.25 V 4.3 l -0.6,-0.1 m -1.4,0.3 q 0,-1.3 1.35,-1.2 1.95,0 1.65,1.25 Q 13.1,5.8 12.1,5.8 10.45,5.8 10.45,4.5 m 3.05,4 -2.45,0.15 -0.2,-0.4 0.1,-0.3 0.1,-0.05 h 2.6 L 13.5,8.5 M 10.45,6.6 Q 11,6.2 11.85,6.2 l 1.5,-0.05 Q 13.7,6.75 13,6.95 L 11.8,7 10.5,6.85 10.45,6.6 m 1.75,5.5 h 1.3 v 0.3 l -2.3,0.35 -0.85,-0.2 0.8,-0.3 1.05,-0.15 M 10.85,10.75 Q 11.15,10 12.7,10 q 0.9,0 1.15,0.45 -0.15,0.3 -0.8,0.4 l -0.95,0.1 H 11.05 L 10.85,10.9 V 10.75 M 8.15,2.05 Q 7.85,2.2 7.85,2.8 8.15,2.9 8.35,3.1 L 8.45,2.55 8.4,2.2 8.15,2.05 M 9.65,2.5 Q 9.4,3.85 8.2,3.85 6.8,3.85 6.8,2.7 6.8,1.5 7.45,1.2 L 8.1,1.15 q 1.7,0 1.55,1.35 M 5.55,0.85 Q 5.5,1.7 4.5,1.7 L 2.75,1.65 2.4,1.2 Q 3.1,0.75 5.25,0.75 L 5.55,0.8 V 0.85 M 6.65,5.2 Q 7.35,4.6 8.7,4.6 L 9.75,4.9 8.55,5.55 7.1,5.7 6.65,5.2 M 4.45,2.35 q 0.6,0 0.95,0.3 L 4.75,3 3.85,3.25 2.9,3.1 Q 2.75,3.2 2.75,2.8 q 0,-0.25 0.8,-0.35 l 0.9,-0.1 M 3.55,6 q 0,0.6 0.7,0.8 l 0.5,0.05 q 0.65,0 0.3,-0.8 -0.4,-0.8 -0.9,-0.8 L 3.6,5.35 3.55,6 M 4.15,4.45 Q 6.2,4.45 6.05,6 5.8,7.5 4.2,7.5 L 3.25,7.05 Q 2.55,6.55 2.55,6 2.55,4.45 4.15,4.45 M 3.4,8.8 3.2,8.35 q 0,-0.3 1.05,-0.5 l 1.15,-0.1 0.45,0.1 0.7,0.35 q -1,0.6 -2.3,0.6 H 3.4 m 0.2,3.05 q 1.25,-0.6 3.05,-0.6 0.2,1 -1.8,1 -0.8,0 -1.25,-0.4 m -0.05,-1.4 -0.3,-0.3 1.6,-0.55 q 0.6,0 0.7,0.4 Q 5.2,10.5 4.4,10.5 L 3.55,10.45 M 9.55,6.3 9.85,6.35 9.8,6.4 Q 9.7,7.2 8.55,7.2 L 7.5,7 7.45,6.75 8.5,6.45 9.55,6.3 M 8.4,8.95 v 1.2 Q 9,10.15 9.2,9.5 9.4,8.9 8.5,8.95 H 8.4 m 0.7,2.6 0.95,-0.2 h 0.4 q 0,0.85 -1.95,1.1 L 8.2,12.1 q 0,-0.3 0.9,-0.55 M 8.4,8.2 q 2.15,0 1.8,1.4 -0.25,1.35 -1.7,1.35 -0.8,0 -1.15,-0.65 V 8.8 Q 7.85,8.2 8.4,8.2"
         fill="#959595"
         fill-rule="evenodd"
         stroke="none"
         id="path7" />
    </g>
    <g
       id="sprite2">
      <use
         ffdec:characterId="55"
         height="13.45"
         width="21.1"
         xlink:href="#shape1"
         id="use7" />
    </g>
    <g
       id="shape1">
      <path
         d="M 21.1,0 V 13.45 H 0 V 0 h 21.1"
         fill="#e5e5e5"
         fill-opacity="0.0980392"
         fill-rule="evenodd"
         stroke="none"
         id="path8" />
    </g>
    <g
       id="sprite3">
      <use
         ffdec:characterId="55"
         height="13.45"
         width="21.1"
         xlink:href="#shape2"
         id="use8" />
    </g>
    <g
       id="shape2">
      <path
         d="M 21.1,0 V 13.45 H 0 V 0 h 21.1"
         fill="#e5e5e5"
         fill-opacity="0.247059"
         fill-rule="evenodd"
         stroke="none"
         id="path9" />
    </g>
    <g
       id="shape3"
       transform="translate(33.3,27.95)">
      <path
         d="m 32.1,-27.5 0.3,2.25 -0.15,0.15 0.1,0.8 0.1,47.45 -0.1,0.2 v 7.25 l 0.25,1.7 -0.05,0.95 0.05,1.15 -0.9,0.85 h -1.1 l -0.05,1.35 h 0.25 v 0.2 l -0.05,0.4 0.05,0.2 h -0.05 l -0.35,0.7 -0.45,0.45 h -11 L 18.7,37.8 v -0.4 -0.2 -0.6 l 0.05,-1.7 H -9.2 l -8.95,-0.05 v 0.4 0.7 l -0.05,1.45 h -0.2 q -0.4,0.9 -1.15,1.15 h -9.4 l -0.9,-0.2 Q -30.55,38.1 -30.7,37.4 H -31 l -0.15,-0.65 -0.05,-1.5 h -0.05 v -0.1 -0.3 q -1.05,-0.15 -1.55,-1 h -0.4 l -0.1,-0.65 0.25,-3.35 V 9.35 L -33,6 V 3.4 2.2 l 0.05,-5.6 v -0.85 h 0.15 V -4.3 -9.45 h 0.05 l 0.1,-6.2 v -0.25 -0.2 -11.2 l 0.4,-0.65 H 31.3 l 0.1,0.05 0.7,0.4 M 4.05,-18.25 3.75,-18.5 3.7,-18.85 q 0,-0.75 0.95,-0.8 l 2.1,-0.3 1.7,-0.15 3.05,0.3 q 0.2,0.05 0.2,0.5 l -0.05,0.45 0.1,1.8 -0.15,4 0.15,0.45 q 0,0.5 -0.3,0.65 l -0.3,0.1 -0.3,0.15 -1.75,0.3 -2.05,-0.05 -0.8,0.2 H 4.85 L 4.7,-11.35 H 4.65 q -0.25,0 -0.35,-0.3 l -0.2,-0.3 0.05,-0.2 -0.15,-1.1 v -2 l 0.05,-3 M 15.3,-15 q 0,1 -0.95,1 -0.7,0 -0.9,-0.45 l -0.05,-0.5 q 0,-0.85 0.95,-0.9 0.95,-0.05 0.95,0.85 m -0.95,3.1 -0.4,-0.05 -0.25,-0.2 -0.05,-0.45 q 0,-0.4 0.35,-0.6 0.45,-0.3 1.05,0.65 l -0.15,0.4 q -0.1,0.25 -0.55,0.25 m 1.15,-6.2 -0.25,0.75 q -0.35,0.55 -1.1,0.55 -1.35,0 -1.35,-1.3 0,-1.35 1.35,-1.35 1.35,0 1.35,1.35 m 6.35,4.45 -4.65,0.05 q -0.4,0 -0.65,-0.4 l 0.2,-0.6 5.1,-0.05 0.35,0.1 0.15,0.35 q 0,0.45 -0.5,0.55 m -4.2,-5.3 4.9,0.55 -0.1,0.45 -3.35,0.25 h -1.8 l -0.6,-0.55 q 0,-0.65 0.95,-0.7 m -1.15,2.85 q 0,-0.35 0.45,-0.45 l 4.9,-0.2 0.7,0.55 q -0.15,0.65 -0.7,0.65 H 17.1 l -0.6,-0.55 m 9.6,-5.1 q 0.5,1.15 0.15,3.6 0.1,5.8 -0.25,7.95 l 0.05,0.25 -0.2,0.4 -0.45,0.6 q -0.15,0 -0.25,-0.3 l -3.3,0.2 H 4.25 L 2.45,-8.6 2.1,-8.4 q -0.65,0 -0.8,-3.25 v -3.25 -3.45 q 0.1,-1.75 0.35,-2.75 l -0.3,-0.25 v -0.05 q 0,-0.5 0.75,-0.8 l 21.75,0.05 0.85,0.1 0.15,0.05 q 0.2,-0.2 0.55,0 l 0.7,0.8 m -35.7,-0.15 -0.1,1.05 v 4.8 4.05 L -9.5,-9 v 0.2 q 0,0.85 -0.95,0.95 H -17.6 L -23.85,-8 q -1.45,0.05 -1.5,-0.6 l 0.05,-0.3 0.25,-0.2 -0.1,-0.6 0.1,-1.85 0.05,-1 -0.1,-3 v -4.75 l -0.05,-1.1 -0.1,-0.45 h 0.3 q 0.15,-0.55 1.25,-0.55 l 13.25,-0.05 q 0.65,0.2 0.75,0.6 l 0.15,0.25 -0.05,0.25 m -19.25,-0.05 v 5.3 0.2 0.25 l 0.1,6.2 h 0.05 v 3.2 l 57,-0.05 0.15,-9.25 v -5.3 l 0.05,-0.5 q -0.05,-1.45 -0.45,-2.6 -3.25,0.25 -8.6,0 l -46,0.1 -0.2,0.05 -2.1,0.15 v 2.25 m 34.6,4.7 -0.2,1.65 2.6,-2.3 1.65,-0.85 -4.25,0.05 0.2,1.45 m 18.7,-3.55 0.05,-0.7 -0.65,0.15 -21.3,0.05 0.3,5.85 -0.05,4.65 1.45,-0.05 h 17.6 l 3,0.15 -0.25,-2.95 -0.05,-4.55 -0.1,-2.6 m -2.6,8.6 -3.1,0.05 -2.3,-0.1 -0.25,-0.35 q 0.4,-0.2 0.2,-0.55 l 5.45,-0.1 0.4,0.1 0.15,0.4 -0.55,0.55 m -0.2,12.3 -0.1,-0.15 -0.1,-0.45 q 0,-0.55 0.3,-0.75 l 0.7,-0.2 q 0.95,0 1,0.9 v 0.05 l -0.2,0.6 q -0.3,0.4 -0.8,0.4 -0.55,0 -0.8,-0.4 m 2.7,-0.1 v -2.1 l -48.9,0.2 v 0.25 0.75 0.25 l -0.1,0.45 0.15,1.85 0.05,1.2 h 0.05 v 0.55 l 0.15,-0.1 2.5,-0.15 35.3,0.05 0.9,0.05 1.95,0.2 0.1,-0.25 0.15,0.3 0.35,0.1 0.1,0.3 -0.25,0.3 L 17,6 v 0.4 1.3 l -0.05,3.7 h 7.4 V 0.55 M -23.2,0.3 -23.05,0.1 -22.3,-0.15 -21.7,0 q 0.25,0.15 0.35,0.55 v 0.3 l -0.2,0.6 q -0.3,0.4 -0.8,0.4 -0.7,0 -0.9,-0.55 L -23.3,0.85 -23.2,0.3 m 51.5,-3.05 v -1.6 -0.15 l -57,-0.05 v 0.25 0.1 0.8 h 0.05 v 0.3 4.35 0.95 l 0.05,0.75 V 3.4 6 6.4 l 0.05,7.95 v 0.15 h 0.05 v 8.9 0.85 h 0.05 l 0.25,5.5 0.05,0.95 v 0.25 l -0.1,0.85 h 16 2.95 0.1 0.1 3.55 H -0.3 0.4 0.45 1 l 12.55,-0.2 14.75,0.1 0.1,-0.75 h 0.05 V 23.5 L 28.3,23.35 V 14.5 h -0.05 v -0.15 l 0.05,-3.1 v -14 M -26.05,-2.9 -26,-2.95 -25.65,-3 -9.2,-2.9 h 1.85 1.8 l 30.25,0.15 q 0.45,-0.2 0.9,0 l 0.35,0.2 v 0.15 l 0.15,0.15 -0.05,0.35 -0.1,0.15 0.05,13.3 V 11.7 12 l 0.05,0.35 q 0,0.5 -0.6,0.65 l -4.15,0.3 -46.3,0.05 -0.4,0.15 q -0.85,0 -1,-2.15 V 10.45 9.1 8.2 l 0.1,-1.8 V 6 l -0.05,-7.2 0.1,-0.9 -0.05,-0.05 0.25,-0.7 V -2.9 M 22.2,10.5 21.9,10.2 21.8,9.75 21.85,9.45 q 0.1,-0.55 0.8,-0.55 0.55,0 0.75,0.35 l 0.1,0.5 q -0.05,0.55 -0.4,0.75 l -0.45,0.1 -0.45,-0.1 m 3.75,4.95 v 0.15 l 0.15,0.15 -0.15,0.5 0.05,11.3 V 28 l 0.05,0.35 q 0,0.5 -0.6,0.65 l -4.15,0.3 -46.3,0.05 -0.4,0.15 q -0.85,0 -1,-2.15 V 25.1 24.25 h 0.05 l 0.05,-1.1 -0.05,-6.25 0.1,-1 -0.05,-0.05 0.25,-0.7 0.05,-0.1 0.35,-0.05 16.45,0.1 h 1.85 1.8 l 30.25,0.15 q 0.6,-0.25 1.25,0.2 m -4.2,3.3 -0.05,-0.6 q 0,-0.85 0.75,-0.85 0.75,0 0.75,0.85 0,0.6 -0.75,0.85 l -0.7,-0.25 m 2.6,0.4 v -2.7 L 2.4,16.55 2.6,17.5 v 1.65 L 2.5,22.3 2.55,22.4 2.5,22.5 v 0.15 L 2.2,22.8 1.8,22.95 1.35,22.85 H -9.2 V 22.8 l -4.1,-0.05 0.15,1.5 h 0.05 v 0.55 2.5 l 3.9,0.05 33.55,0.05 V 19.15 M 14.4,5.05 H 13.6 L -5.55,5 h -1.8 -1.85 l -7,-0.05 h -0.2 l -8,-0.05 v 1.5 l -0.05,2.1 -0.05,0.6 0.1,2.2 1.1,-0.05 14.1,0.1 h 1.85 1.8 l 21.8,0.05 -0.1,-0.9 Q 16,9.35 16,7.7 L 16.05,6.4 V 6 l 0.1,-1.05 -1.75,0.1 m -13,14.1 v -2.6 l -1,0.05 -24.95,0.05 v 0.25 l -0.1,1.45 0.05,0.15 0.1,1.1 v 0.1 l 0.05,0.3 0.05,0.9 v 1.75 1.6 h -0.05 l -0.05,0.85 0.1,2.2 1.1,-0.05 9.25,0.05 -0.1,-0.65 -0.05,-1.8 v -0.6 h 0.05 l 0.15,-1.5 h -0.05 -0.1 l -0.3,-0.1 -0.1,-0.45 0.1,-0.4 0.4,-0.15 h 0.35 l 0.05,-0.15 0.1,0.15 H 1.7 L 1.55,20.9 H 1.4 L 1.35,20.45 V 20 H 1.4 v -0.3 -0.1 -0.45 m -24.4,-0.1 -0.2,-0.15 -0.05,-0.45 q 0,-0.45 0.35,-0.65 0.45,-0.3 1.05,0.65 l -0.1,0.45 -0.25,0.2 -0.35,0.05 -0.4,-0.05 -0.05,-0.05 m 45.75,7 -0.5,0.2 q -0.55,0 -0.7,-0.3 L 21.5,25.6 q 0,-0.8 0.75,-0.8 0.75,0 0.75,0.75 l -0.25,0.5 m -0.1,9 0.05,0.2 h 0.1 v 0.5 l 2.45,-0.15 1.7,0.05 v -0.4 H 27 V 34.9 H 22.8 L 22.75,35 H 22.7 l -0.05,0.05 m -46.25,-50.7 0.05,5.4 -0.05,0.75 6,-0.3 h 6.1 l -0.05,-0.25 v -1.8 l 0.05,-5.45 -0.15,-3.55 -0.6,0.05 -11.15,0.1 0.05,1.2 -0.25,3.85 m 1.7,25 q -0.15,0.85 -0.85,0.85 l -0.7,-0.25 -0.1,-0.6 0.3,-0.4 q 0.4,-0.45 0.85,-0.35 0.35,0.05 0.45,0.45 l 0.05,0.3 m -1.05,17.3 q -0.6,0 -0.8,-0.55 l -0.05,-0.35 q 0,-0.85 0.95,-0.8 0.95,0.05 0.95,0.8 0,0.9 -1.05,0.9 m -4.45,8.45 v 0.15 l -0.05,0.5 2.5,-0.2 2.6,0.1 V 35.6 35.25 h 0.05 l 0.05,-0.4 h -5.15 v 0.25"
         fill="#6b6b6b"
         fill-rule="evenodd"
         stroke="none"
         id="path10" />
      <path
         d="M 26.1,-21.2 25.4,-22 q -0.35,-0.2 -0.55,0 L 24.7,-22.05 23.85,-22.15 2.1,-22.2 q -0.75,0.3 -0.75,0.8 v 0.05 H -9.6 l 0.05,-0.25 -0.15,-0.25 q -0.1,-0.4 -0.75,-0.6 l -13.25,0.05 q -1.1,0 -1.25,0.55 h -0.3 l 0.1,0.45 h -3.7 v -2.25 l 2.1,-0.15 0.2,-0.05 46,-0.1 q 5.35,0.25 8.6,0 0.4,1.15 0.45,2.6 l -2.4,0.15 m -2.85,21.85 0.2,-0.6 V 0 q -0.05,-0.9 -1,-0.9 l -0.7,0.2 q -0.3,0.2 -0.3,0.75 l 0.1,0.45 0.1,0.15 -36.85,0.05 h -0.8 -1.15 l -4.2,-0.15 Q -21.45,0.15 -21.7,0 l -0.6,-0.15 -0.75,0.25 -0.15,0.2 -0.45,-0.1 Q -24.3,0 -24.55,-0.35 V -1.1 -1.35 l 48.9,-0.2 v 2.1 l -1.1,0.1 m -51.9,-3.75 v -0.3 h -0.05 v -0.8 -0.1 -0.25 l 57,0.05 v 0.15 1.6 h -2.7 q -0.45,-0.2 -0.9,0 L -5.55,-2.9 H -7.35 -9.2 L -25.65,-3 -26,-2.95 -26.05,-2.9 h -0.2 l -2.3,-0.2 h -0.1 m 50.4,21.85 0.7,0.25 q 0.75,-0.25 0.75,-0.85 0,-0.85 -0.75,-0.85 -0.75,0 -0.75,0.85 l 0.05,0.6 m 2.6,0.4 H 24.05 2.6 V 17.5 l -0.2,-0.95 21.95,-0.1 v 2.7 m -48.95,-0.65 -0.05,-0.15 0.1,-1.45 V 16.65 L 0.4,16.6 l 1,-0.05 v 2.6 L -20.95,19.1 h -1.25 l 0.25,-0.2 0.1,-0.45 q -0.6,-0.95 -1.05,-0.65 -0.35,0.2 -0.35,0.65 l 0.05,0.45 0.2,0.15 q -1.1,-0.15 -1.6,-0.55"
         fill="#b8b8b8"
         fill-rule="evenodd"
         stroke="none"
         id="path11" />
      <path
         d="m 16.5,-16.1 0.6,0.55 h 4.75 q 0.55,0 0.7,-0.65 l -0.7,-0.55 -4.9,0.2 q -0.45,0.1 -0.45,0.45 m 1.15,-2.85 q -0.95,0.05 -0.95,0.7 l 0.6,0.55 h 1.8 l 3.35,-0.25 0.1,-0.45 -4.9,-0.55 m 4.2,5.3 q 0.5,-0.1 0.5,-0.55 l -0.15,-0.35 -0.35,-0.1 -5.1,0.05 -0.2,0.6 q 0.25,0.4 0.65,0.4 l 4.65,-0.05 M 15.5,-18.1 q 0,-1.35 -1.35,-1.35 -1.35,0 -1.35,1.35 0,1.3 1.35,1.3 0.75,0 1.1,-0.55 l 0.25,-0.75 m -1.15,6.2 q 0.45,0 0.55,-0.25 l 0.15,-0.4 q -0.6,-0.95 -1.05,-0.65 -0.35,0.2 -0.35,0.6 l 0.05,0.45 0.25,0.2 0.4,0.05 M 15.3,-15 q 0,-0.9 -0.95,-0.85 -0.95,0.05 -0.95,0.9 l 0.05,0.5 q 0.2,0.45 0.9,0.45 0.95,0 0.95,-1 m -11.25,-3.25 -0.05,3 v 2 l 0.15,1.1 -0.05,0.2 0.2,0.3 q 0.1,0.3 0.35,0.3 H 4.7 l 0.15,0.1 h 1.4 l 0.8,-0.2 2.05,0.05 1.75,-0.3 0.3,-0.15 0.3,-0.1 q 0.3,-0.15 0.3,-0.65 l -0.15,-0.45 0.15,-4 -0.1,-1.8 0.05,-0.45 q 0,-0.45 -0.2,-0.5 l -3.05,-0.3 -1.7,0.15 -2.1,0.3 q -0.95,0.05 -0.95,0.8 l 0.05,0.35 0.3,0.25 m -2.7,-3.1 0.3,0.25 q -0.25,1 -0.35,2.75 v 3.45 3.25 q 0.15,3.25 0.8,3.25 l 0.35,-0.2 1.8,0.1 h 17.6 l 3.3,-0.2 q 0.1,0.3 0.25,0.3 L 25.85,-9 26.05,-9.4 26,-9.65 q 0.35,-2.15 0.25,-7.95 0.35,-2.45 -0.15,-3.6 l 2.4,-0.15 -0.05,0.5 v 5.3 l -0.15,9.25 -57,0.05 v -3.2 h -0.05 l -0.1,-6.2 v -0.25 -0.2 -5.3 h 3.7 l 0.05,1.1 v 4.75 l 0.1,3 -0.05,1 -0.1,1.85 0.1,0.6 -0.25,0.2 -0.05,0.3 q 0.05,0.65 1.5,0.6 l 6.25,0.15 h 7.15 Q -9.5,-7.95 -9.5,-8.8 V -9 l -0.2,-2.45 v -4.05 -4.8 l 0.1,-1.05 H 1.35 m 20.5,9.7 0.55,-0.55 -0.15,-0.4 -0.4,-0.1 -5.45,0.1 q 0.2,0.35 -0.2,0.55 l 0.25,0.35 2.3,0.1 3.1,-0.05 m 2.6,-8.6 0.1,2.6 0.05,4.55 0.25,2.95 -3,-0.15 H 4.25 l -1.45,0.05 0.05,-4.65 -0.3,-5.85 21.3,-0.05 0.65,-0.15 -0.05,0.7 m -2.8,20.9 q 0.25,0.4 0.8,0.4 0.5,0 0.8,-0.4 l 1.1,-0.1 V 11.4 h -7.4 L 17,7.7 V 6.4 6 L 16.85,4.75 17.1,4.45 17,4.15 16.65,4.05 16.5,3.75 16.4,4 14.45,3.8 13.55,3.75 -21.75,3.7 l -2.5,0.15 -0.15,0.1 V 3.4 h -0.05 l -0.05,-1.2 -0.15,-1.85 0.1,-0.45 v -0.25 q 0.25,0.35 0.9,0.55 l 0.45,0.1 -0.1,0.55 0.05,0.45 q 0.2,0.55 0.9,0.55 0.5,0 0.8,-0.4 l 0.2,-0.6 v -0.3 l 4.2,0.15 h 1.15 0.8 L 21.65,0.65 m -50.3,-3.75 h 0.1 l 2.3,0.2 h 0.2 v 0.05 l -0.25,0.7 0.05,0.05 -0.1,0.9 0.05,7.2 v 0.4 l -0.1,1.8 v 0.9 1.35 0.9 q 0.15,2.15 1,2.15 L -25,13.35 21.3,13.3 25.45,13 q 0.6,-0.15 0.6,-0.65 L 26,12 v -0.3 -0.15 l -0.05,-13.3 0.1,-0.15 0.05,-0.35 -0.15,-0.15 v -0.15 l -0.35,-0.2 h 2.7 v 14 l -0.05,3.1 v 0.15 h 0.05 v 8.85 l 0.15,0.15 v 7.45 H 28.4 L 28.3,31.7 13.55,31.6 1,31.8 H 0.45 0.4 -0.3 -5.55 -9.1 h -0.1 -0.1 -2.95 -16 l 0.1,-0.85 V 30.7 l -0.05,-0.95 -0.25,-5.5 H -28.5 V 23.4 14.5 h -0.05 V 14.35 L -28.6,6.4 V 6 3.4 2.95 L -28.65,2.2 V 1.25 -3.1 m 50.85,13.6 0.45,0.1 0.45,-0.1 q 0.35,-0.2 0.4,-0.75 L 23.4,9.25 Q 23.2,8.9 22.65,8.9 q -0.7,0 -0.8,0.55 l -0.05,0.3 0.1,0.45 0.3,0.3 m 3.75,4.95 Q 25.3,15 24.7,15.25 L -5.55,15.1 H -7.35 -9.2 L -25.65,15 -26,15.05 l -0.05,0.1 -0.25,0.7 0.05,0.05 -0.1,1 0.05,6.25 -0.05,1.1 h -0.05 v 0.85 2.25 q 0.15,2.15 1,2.15 L -25,29.35 21.3,29.3 25.45,29 q 0.6,-0.15 0.6,-0.65 L 26,28 V 27.55 L 25.95,16.25 26.1,15.75 25.95,15.6 V 15.45 M 2.6,19.15 h 21.45 0.3 V 27.4 L -9.2,27.35 -13.1,27.3 v -2.5 -0.55 h -0.05 l -0.15,-1.5 4.1,0.05 v 0.05 H 1.35 L 1.8,22.95 2.2,22.8 2.5,22.65 V 22.5 L 2.55,22.4 2.5,22.3 2.6,19.15 M 14.4,5.05 16.15,4.95 16.05,6 V 6.4 L 16,7.7 q 0,1.65 0.15,2.8 l 0.1,0.9 -21.8,-0.05 h -1.8 -1.85 l -14.1,-0.1 -1.1,0.05 -0.1,-2.2 0.05,-0.6 0.05,-2.1 V 4.9 l 8,0.05 h 0.2 l 7,0.05 h 1.85 1.8 L 13.6,5.05 h 0.8 m -39,13.45 q 0.5,0.4 1.6,0.55 l 0.05,0.05 0.4,0.05 0.35,-0.05 h 1.25 L 1.4,19.15 V 19.6 19.7 20 H 1.35 v 0.45 L 1.4,20.9 h 0.15 l 0.15,0.75 h -15.25 l -0.1,-0.15 -0.05,0.15 h -0.35 l -0.4,0.15 -0.1,0.4 0.1,0.45 0.3,0.1 h 0.1 0.05 l -0.15,1.5 h -0.05 v 0.6 l 0.05,1.8 0.1,0.65 -9.25,-0.05 -1.1,0.05 -0.1,-2.2 0.05,-0.85 h 0.05 V 22.65 20.9 L -24.45,20 -24.5,19.7 v -0.1 l -0.1,-1.1 m 47.35,7.55 0.25,-0.5 q 0,-0.75 -0.75,-0.75 -0.75,0 -0.75,0.8 l 0.05,0.35 q 0.15,0.3 0.7,0.3 l 0.5,-0.2 m -45.7,0.6 q 1.05,0 1.05,-0.9 0,-0.75 -0.95,-0.8 -0.95,-0.05 -0.95,0.8 l 0.05,0.35 q 0.2,0.55 0.8,0.55 m 1.05,-17.3 -0.05,-0.3 q -0.1,-0.4 -0.45,-0.45 -0.45,-0.1 -0.85,0.35 l -0.3,0.4 0.1,0.6 0.7,0.25 q 0.7,0 0.85,-0.85"
         fill="#a8a8a8"
         fill-rule="evenodd"
         stroke="none"
         id="path12" />
      <path
         d="m 5.75,-16.7 -0.2,-1.45 4.25,-0.05 -1.65,0.85 -2.6,2.3 0.2,-1.65 M 22.65,35.05 22.7,35 h 0.05 L 22.8,34.9 H 27 v 0.35 h -0.05 v 0.4 l -1.7,-0.05 -2.45,0.15 v -0.5 h -0.1 l -0.05,-0.2 M -27.4,35.1 v -0.25 h 5.15 l -0.05,0.4 h -0.05 v 0.35 0.05 l -2.6,-0.1 -2.5,0.2 0.05,-0.5 V 35.1"
         fill="#939393"
         fill-rule="evenodd"
         stroke="none"
         id="path13" />
    </g>
  </defs>
</svg>
