<?xml version="1.0" encoding="UTF-8" standalone="no"?>
<svg
   ffdec:objectType="frame"
   height="84.198647"
   width="80.837502"
   version="1.1"
   id="svg7"
   sodipodi:docname="1.svg"
   xmlns:inkscape="http://www.inkscape.org/namespaces/inkscape"
   xmlns:sodipodi="http://sodipodi.sourceforge.net/DTD/sodipodi-0.dtd"
   xmlns:xlink="http://www.w3.org/1999/xlink"
   xmlns="http://www.w3.org/2000/svg"
   xmlns:svg="http://www.w3.org/2000/svg"
   xmlns:ffdec="https://www.free-decompiler.com/flash">
  <sodipodi:namedview
     id="namedview7"
     pagecolor="#ffffff"
     bordercolor="#000000"
     borderopacity="0.25"
     inkscape:showpageshadow="2"
     inkscape:pageopacity="0.0"
     inkscape:pagecheckerboard="0"
     inkscape:deskcolor="#d1d1d1"
     fit-margin-top="5"
     fit-margin-left="5"
     fit-margin-right="5"
     fit-margin-bottom="5" />
  <g
     transform="translate(40.41875,40.498649)"
     id="g1">
    <use
       ffdec:characterId="1693"
       height="84.199997"
       transform="translate(-40.4,-40.5)"
       width="80.800003"
       xlink:href="#shape0"
       id="use1" />
  </g>
  <defs
     id="defs7">
    <g
       id="shape0"
       transform="translate(40.4,40.5)">
      <path
         d="m 12.35,-37.65 -0.6,-0.95 -1.15,0.3 -1.8,0.35 H 8.2 l 1.1,0.8 0.45,0.4 1.85,2.15 v -0.1 q 0.9,-1 0.8,-2.2 l -0.05,-0.75 M 6.1,-37 Q 3.95,-38.25 1,-38.1 H 0.6 V -38 L 0,-38.05 -0.6,-38 v -0.1 H -1 q -2.95,-0.15 -5.1,1.1 l -0.7,0.5 -0.2,0.15 -0.45,0.4 -0.15,0.15 -0.5,0.45 -0.65,0.7 q -1.85,2.2 -1.95,5.65 v 1.45 q 0.15,1.8 1.25,3.4 2.55,3.7 8.85,3.8 l 0.6,-0.05 0.6,0.05 q 6.3,-0.1 8.85,-3.8 0.65,-0.9 0.95,-1.9 0.45,-1.4 0.3,-2.95 -0.1,-3.1 -1.6,-5.2 l -0.9,-1.05 -0.3,-0.3 -0.1,-0.1 -0.35,-0.3 -0.5,-0.4 L 6.2,-36.95 6.1,-37 m -12.6,4.1 h 0.15 q 0.7,0.1 1.1,0.5 0.4,0.45 0.4,1.25 l -0.15,0.45 -0.25,0.35 q -0.45,0.45 -0.95,0.45 -1.1,0 -1.5,-0.8 v -0.1 l -0.15,-0.5 q 0,-1.7 1.35,-1.6 m 6.1,1.5 h 1.5 l 0.65,0.1 0.35,0.05 h 0.05 l 0.6,0.25 q -0.15,0.8 -1.05,1.6 -0.6,0.6 -1.15,0.75 l 0.05,0.2 v 1.1 0.05 l 1.8,0.35 q 1.1,0.35 1.1,0.8 l -0.1,0.4 -0.3,0.05 q -2.1,-0.5 -2.9,-0.9 -0.75,0.4 -2.9,0.9 l -0.3,-0.05 -0.1,-0.4 q 0,-0.45 1.1,-0.8 l 1.8,-0.35 v -0.05 -1.1 l 0.05,-0.2 -1.15,-0.75 q -0.9,-0.8 -1.05,-1.6 l 0.6,-0.25 1.05,-0.15 h 0.3 m 5.25,-0.05 0.2,-0.7 Q 5.3,-32.6 5.9,-32.7 h 0.6 l 0.85,0.2 q 0.8,0.35 0.8,1.3 l -0.3,0.65 -0.25,0.25 q -0.5,0.4 -1,0.4 -1.05,0 -1.5,-0.6 l -0.05,-0.1 -0.2,-0.7 v -0.15 M 6,-39.2 q 2.05,-0.75 3.7,-1.1 4.75,-1.05 4.9,3.45 l -0.1,2.5 q -0.35,1.8 -1.65,2.2 0.6,1.45 0.6,3.3 0.3,2.8 -1,5.35 l 0.3,-0.05 v -0.05 l 0.1,0.05 q 2.1,-0.3 5.2,-0.1 l 5.2,-0.05 6.85,-0.05 h 1.1 q 4.85,-2.15 7.5,0.65 1.75,1.95 1.7,4.1 0.15,1.5 -0.9,2.6 -1.35,1.8 -4.5,1.75 -1.7,0 -2.55,-0.45 l -0.6,2 q -0.8,2.15 -1.75,3.5 -0.95,1.25 -2,1.7 L 23.25,-7.95 14.6,-7.9 14.2,-7.95 q 0.4,1.25 0.4,3.3 l 0.3,4.8 q 0.15,2.05 -0.1,3.3 h 0.1 l -0.05,0.7 v 0.9 L 14.9,5.3 14,6 q 0.3,0.3 0.25,0.95 l -0.1,3.15 0.95,5.95 q 0.65,4.2 0.7,8.75 l 0.05,0.85 0.6,0.2 q 0.4,0.25 0.4,0.65 l -0.05,0.4 0.15,1.65 v 1.05 l 2.65,0.25 h 0.1 l 0.3,0.2 q 0.4,0.25 0.4,0.7 v 0.15 l 0.25,3.1 0.05,0.85 v 0.35 5.05 0.55 l -0.1,1.3 0.25,0.65 -0.25,0.7 -0.2,0.25 h -41.35 q -0.4,-0.85 -0.55,-2.9 h -0.05 V 40.25 L -21.6,38.3 v -3.1 -0.35 l -0.05,-3.55 0.2,-0.85 0.55,-0.5 0.2,-0.05 0.2,-0.05 0.5,-0.05 2.85,0.05 -0.15,-1.1 q 0,-1.45 0.5,-1.9 l -0.05,-0.35 q 0,-0.4 0.4,-0.65 l 0.6,-0.2 0.05,-0.85 q 0.05,-4.55 0.7,-8.75 l 0.95,-5.95 -0.1,-3.15 Q -14.3,6.3 -14,6 L -15.65,4.55 Q -15.7,3.5 -14.8,3.45 -15.05,2.2 -14.9,0.15 l 0.3,-4.8 q 0,-2.05 0.4,-3.3 l -0.4,0.05 h -13.5 q -2.15,-0.9 -3.75,-5.2 l -0.6,-2 q -0.85,0.45 -2.55,0.45 -3.15,0.05 -4.5,-1.75 -1.05,-1.1 -0.9,-2.6 -0.05,-2.15 1.7,-4.1 2.65,-2.8 7.5,-0.65 l 13.15,0.1 5.6,0.15 q -1.3,-2.55 -1,-5.35 0,-1.85 0.6,-3.3 -1.3,-0.4 -1.65,-2.2 l -0.1,-2.5 q 0.15,-4.5 4.9,-3.45 1.65,0.35 3.7,1.1 2.15,-1.1 4.9,-1.2 l 1.1,-0.05 1.1,0.05 q 2.75,0.1 4.9,1.2 m 6.2,18.65 0.15,-1.15 -1,-0.05 h -0.1 l -1.35,1.3 -0.6,0.45 -0.4,0.25 -0.3,5.6 -0.4,0.15 -0.3,-0.15 -0.05,-0.45 0.2,-4.7 q -1.15,0.55 -2.5,0.95 l 0.05,0.35 0.1,2.3 0.05,1.85 H 5.8 l 0.1,0.1 0.05,0.35 -0.2,0.3 0.15,1.8 V -11.05 -1 L 6,2.5 6.05,7.2 7.6,7.45 7.75,-0.2 q 0.1,-4.95 0.5,-7.6 L 8.6,-2.4 V 0 1 l 0.1,3.25 0.2,3.45 0.55,0.15 0.9,0.3 0.5,0.2 1.5,0.55 0.25,-1.15 0.15,-3.8 V 3.85 L 12.85,3.8 12.5,2.65 Q 12.1,1.05 12,-1.4 l -0.05,-1.5 v -1.15 l 0.2,-5.3 v -0.1 l 0.05,-0.45 -0.25,-0.45 v -0.15 l -0.05,-4.35 q 0,-3.35 0.3,-5.7 M 31.05,-20.1 31,-20.9 v -0.5 H 30.95 30.1 l -6.85,-0.05 -5.05,-0.05 -4.25,-0.1 0.1,1.9 -0.45,4.85 v 3.25 l -0.05,1.3 2.65,-1.6 3,-1.6 4.05,-2.05 3.45,-1.95 0.2,0.4 -3.65,2.6 -4.25,2.55 q -1.9,1.05 -3.7,1.8 l 7.95,-0.05 4.25,-0.05 1.1,-1.3 q 0.95,-1.3 1.5,-2.75 l 0.05,-0.15 1,-4.1 -0.1,-1.55 M 4.35,-15 v -1.3 -1.3 -0.5 L 0.6,-17.75 H 0.3 -0.3 -0.6 l -3.7,-0.3 -0.1,-0.05 -1.25,-0.3 -2.45,-0.95 1.2,2.4 0.35,0.6 1.25,1.7 1.3,0.35 2.15,0.45 0.15,-0.05 3.65,-0.05 2.35,0.05 v -0.05 L 4.35,-15 m -3.3,5.2 h -0.3 q -3.95,0 -8.2,-5.5 -2.65,-3.4 -3.35,-5.35 l -0.25,-0.9 -0.2,-0.2 h -0.1 l -1.05,0.1 -3.05,0.1 0.5,0.85 0.35,0.55 3.3,6.4 q -0.1,0.35 -0.65,0.35 l -1.35,-2 -2.65,-4.6 -0.25,-0.45 -0.6,-1.05 h -0.05 -1.35 -0.5 l 0.25,0.65 0.55,0.9 0.3,0.45 1.05,2.15 3.7,5.45 0.95,1.6 0.8,1.15 0.4,0.1 -0.2,0.1 1.95,2.1 1.75,1.4 0.1,-0.6 0.15,0.8 Q -2.2,-2 4.2,-1.95 v -9.15 l 0.05,-0.45 -0.35,-0.4 q -0.3,-0.5 -1.85,-0.5 l -4.35,0.4 q 1.6,1.15 3.65,2 l 0.05,0.1 -0.35,0.15 m 37.1,-9.1 V -19 l -0.05,-0.15 -0.65,-1.4 -0.6,-0.85 q -0.75,-0.7 -1.75,-0.65 -1.2,-0.1 -1.75,0.35 l -0.25,0.1 -0.1,0.05 v 0.1 0.2 l 0.1,0.55 v 0.4 l 0.05,0.5 -0.05,0.7 q 0.05,1.15 -0.3,2.5 5.15,-0.75 5.35,-2.3 M 11.4,9.85 H 10.6 L 9.15,9.45 8.65,9.25 8.6,9.2 8.45,9.15 8.55,9.65 8.7,12.05 8.8,14 q 0.1,1.6 0.35,2.4 1.55,-1.35 2.7,-1.7 Q 11.8,11.95 11.9,10 L 12,9.75 11.4,9.85 M 0.4,1.2 0.75,2.15 1.6,5.25 1.5,5.65 v 0.1 Q 0.45,4.65 -0.25,2.35 l -0.3,-1.2 -0.4,-1.45 -1.8,-0.45 -1.1,-0.4 0.75,1.8 1.45,3.7 q 1.1,3.15 2.3,5.35 L 1.9,11.8 1.85,12.05 1.45,12.2 Q 0.3,12.2 -2.6,4.95 L -4.3,0.2 -4.7,-0.9 -5,-1.65 -5.7,-2 l -1,-0.6 0.1,1.65 0.15,2.6 q 0.35,6.7 0.25,9 l -0.05,0.8 q 1.65,0.3 3.15,1.45 l 1.1,0.9 q 0.85,0.65 2.2,0.95 l 4,-0.65 q 1.7,-0.45 3.2,0.85 L 7.35,14.35 7.15,10.8 V 10.35 Q 7.2,9.35 7.5,8.75 L 7.15,8.55 6.55,8.65 5.55,8.5 5.15,8.65 H 4.9 Q 4.25,8.55 4.1,8.15 L 4.05,7.55 4.15,1.1 4.2,-0.1 2.4,0 -0.2,-0.2 0.4,1.2 M 7.35,19.05 7.3,17.6 l 0.1,-1.1 -0.15,0.1 -3.8,0.15 0.2,1.15 0.05,0.9 0.05,2.4 -0.05,3 -0.1,1.2 h 0.85 l 2.8,-0.05 0.05,-5.1 0.05,-1.2 M 2.25,25.4 H 2.8 L 2.65,23.75 2.7,21.15 q 0,-2.25 0.15,-3.55 l 0.1,-0.8 -1.8,0.05 q -1.1,0 -3.95,-1.5 l -0.05,-0.05 0.1,1.15 0.1,1.4 0.05,2.7 v 0.85 q 0,2.5 -0.15,4 H -1 -0.6 -0.55 0 0.6 2.25 m 7.05,0 h 2.95 0.15 l -0.05,-0.6 -0.3,-4.4 Q 11.15,20.25 10.1,19.7 L 8.75,18.8 8.45,19 8.15,18.9 8.2,20 v 1.05 4.3 l 1.1,0.05 m 2.65,-7.15 -0.05,-1.75 -1.8,1.3 1.2,0.25 0.65,0.2 m 2.65,9.45 -0.45,0.05 -1.8,0.05 -2.85,0.05 0.05,1.1 v 0.5 h 5.4 v -0.8 l 0.05,-1 -0.4,0.05 m -2.95,4.1 -3.8,0.1 -20.85,0.15 0.2,1.9 v 0.35 l 0.05,0.55 h 0.05 v 0.35 l 0.05,5.05 v 0.55 0.35 0.35 L 11.5,41.55 11.45,40.8 V 40.25 40.1 35.2 34.85 l 0.2,-3.05 m 0.4,-0.05 0.2,3.1 v 0.35 5.05 1.3 h 6.6 L 18.8,40.8 h -0.05 v -6.85 l 0.1,-2.15 -2,0.05 -3.95,-0.1 H 12.05 M 8.65,29 8.7,27.85 h -8.1 -1.2 -6.3 -0.35 -0.5 v 1.6 H 8.65 V 29 M -8.3,-37.9 -8.2,-37.95 H -8.35 -8.8 l -1.8,-0.35 -1.15,-0.3 q -0.65,0.4 -0.65,1.5 v 0.2 q -0.1,1.2 0.8,2.2 v 0.1 l 1.5,-1.8 0.8,-0.75 1,-0.75 m -22.75,18.25 -0.1,1.1 1,4.1 q 0.75,2 2.2,3.7 l 0.45,0.5 6.7,0.05 -1.15,-1 -0.3,-0.3 q -1.45,-1.5 -2.3,-3 l -0.65,-1.25 0.1,-0.3 1.95,1.85 1.95,2.25 0.5,0.45 0.4,0.35 1.55,1 h 2.8 1.5 l 0.7,0.15 -0.35,-0.55 -1.15,-2.05 -2.15,-3.9 -0.05,0.1 -1.6,-2.6 -0.9,-1.1 q -0.85,-0.85 -2.05,-1.35 l -8.35,0.05 h -0.6 -0.05 v 0.5 0.15 l -0.05,1.1 m -2.05,0.2 0.1,-1.8 v -0.3 l -0.35,-0.15 q -0.55,-0.45 -1.75,-0.35 -1.55,-0.05 -2.35,1.5 l -0.3,0.7 -0.4,0.85 q 0,1.6 5.35,2.4 -0.35,-1.35 -0.3,-2.5 v -0.35 m 21.3,12.3 -0.15,-0.2 0.05,0.4 0.05,1.15 -0.1,2.65 Q -12,0.6 -12.5,2.7 l -0.35,1.1 0.35,0.15 0.9,0.4 0.95,0.5 q 1.45,0.8 2.25,1.45 l 0.4,-3.95 0.4,-3.95 0.15,-1.5 -2.25,-1.8 -1.1,-1.15 -1,-1.1 m 2.9,21.65 0.1,-1.8 -0.05,-0.4 0.05,-1.3 0.2,-2.7 -0.8,0.15 -1.25,-0.3 q -0.45,0 -0.75,0.4 l -0.5,0.3 h -0.05 q 0.15,2.15 0.15,5.5 l -0.35,7.5 -0.2,2.95 -0.05,0.6 h 0.15 0.25 1.75 1.35 v -1.8 -9.1 m 5.35,2.95 0.05,-0.15 -0.55,-1.25 -0.15,-0.4 -0.1,-0.35 -0.25,-0.95 -2.1,-1.2 -0.15,0.1 -0.8,0.3 h -0.15 v 0.15 l 0.1,1.85 0.2,8.05 0.05,1.8 h 0.65 0.7 2.6 l -0.25,-1.35 -0.05,-2.65 0.2,-3.8 v -0.15 m -5.05,11.35 0.05,-0.95 -3.8,-0.05 -1.8,-0.05 -0.45,-0.05 -0.65,-0.1 0.1,1.1 v 0.8 l 1.2,-0.05 h 5.4 L -8.6,28.8 m -10.55,5.2 0.05,0.85 v 0.35 5.05 0.55 h -0.05 l -0.05,0.8 2.2,-0.1 h 3.25 l 0.05,-0.7 0.1,-7.65 -0.15,-1.05 v -0.05 l -5.4,0.05 V 34"
         fill="#6b6b6b"
         fill-rule="evenodd"
         stroke="none"
         id="path1" />
      <path
         d="m 9.75,-36.75 -0.45,-0.4 -1.1,-0.8 h 0.6 l 1.8,-0.35 1.15,-0.3 0.6,0.95 q -0.4,0.3 -1.2,0.55 l -1.4,0.35 m -18.5,2.1 0.65,-0.7 0.5,-0.45 0.15,-0.15 0.45,-0.4 0.2,-0.15 0.7,-0.5 q 2.15,-1.25 5.1,-1.1 h 0.4 V -38 L 0,-38.05 0.6,-38 v -0.1 H 1 q 2.95,-0.15 5.1,1.1 v 0.1 l 0.1,-0.05 0.75,0.6 0.5,0.4 0.35,0.3 0.1,0.1 0.3,0.3 0.9,1.05 -1.45,1.45 -0.3,0.25 -0.85,-0.2 H 5.9 q -0.6,0.1 -0.85,0.55 l -0.2,0.7 -1.75,0.2 H 2.15 2.1 L 1.75,-31.3 1.1,-31.4 h -1.5 q -2.8,-0.25 -4.85,-1 -0.4,-0.4 -1.1,-0.5 H -6.5 q -1.85,-0.9 -2.25,-1.75 m 16.6,4.1 0.75,0.15 q 0.45,0.15 0.45,0.75 0,0.85 -0.9,0.85 l -3.3,-0.3 q -0.45,-0.2 -0.45,-0.75 0,-0.45 0.35,-0.6 L 5.1,-30.5 q 0.45,0.6 1.5,0.6 0.5,0 1,-0.4 l 0.25,-0.25 M 2.2,-25 q 0,1.05 -1.5,1.05 -2.1,0 -2.1,-1 0,-0.55 0.4,-0.75 l 1.5,-0.2 q 1.7,0 1.7,0.9 m 6.4,10.85 0.3,-5.6 0.4,-0.25 0.6,-0.45 1.35,-1.3 h 0.1 l 1,0.05 -0.15,1.15 -0.25,0.05 -1.6,0.5 0.35,0.9 0.1,20.35 v 1.9 Q 10.6,5 9.7,5 L 8.85,4.5 8.7,4.25 8.6,1 V 0 -2.4 -14.15 m 2.25,22.5 -0.5,-0.2 0.1,-0.15 0.4,0.35 M 6,2.5 5.9,-1 v -10.05 -0.25 q 0.2,-2.65 0.6,-3.45 1,2.85 0.85,14 L 7.3,1.7 Q 7.15,3.45 6.55,3.95 6.2,3.5 6,2.5 m 8.05,-22.2 -0.1,-1.9 4.25,0.1 5.05,0.05 6.85,0.05 H 30.95 31 v 0.5 l 0.05,0.8 -0.95,0.15 -2.2,0.4 h -1.95 l -1.4,0.95 -1.15,0.75 v 0.2 l -0.15,0.15 q -0.95,0.55 -7.8,3.25 l -0.55,-0.05 -0.1,-0.55 q 0,-1.05 4.3,-2.65 l 0.75,-0.25 1.05,-0.65 0.05,-0.1 0.9,-1.05 H 14.5 l -0.45,-0.15 m -28.65,-0.45 -0.35,-0.55 -0.5,-0.85 3.05,-0.1 1.05,-0.1 h 0.1 l 0.2,0.2 0.25,0.9 q 0.7,1.95 3.35,5.35 4.25,5.5 8.2,5.5 h 0.3 l 0.85,0.3 q -0.95,0.7 -2,0.7 -4.3,0 -8.65,-5.55 -3,-3.8 -3.55,-5.8 l -1.3,0.05 -1,-0.05 m -3,0.65 -0.3,-0.45 -0.55,-0.9 -0.25,-0.65 h 0.5 1.35 0.05 l 0.6,1.05 0.25,0.45 2.65,4.6 h -0.3 q -0.45,0 -4,-4.1 m 55.75,0.6 q -0.2,-0.05 -0.55,-0.25 -0.7,-0.05 -1.1,-0.5 l -1.25,-0.15 h -2.1 l -0.05,-0.5 v -0.4 L 33,-21.25 v -0.2 -0.1 l 0.1,-0.05 0.25,-0.1 q 0.55,-0.45 1.75,-0.35 1,-0.05 1.75,0.65 l 0.6,0.85 0.65,1.4 0.05,0.15 v 0.1 m -15.25,-0.65 -0.1,0.2 0.45,-0.15 0.15,-0.05 h -0.5 m -13.75,29 1.45,0.4 h 0.8 l 0.15,2.9 -0.65,1.15 Q 10.2,14.7 9.75,14.7 8.95,14.7 8.8,14 V 13.25 L 8.85,10.3 Q 8.8,9.85 9.15,9.45 M -1.9,0.95 Q -0.3,4.4 0.85,9.5 l -0.2,0.2 q -1.2,-2.2 -2.3,-5.35 l -1.45,-3.7 -0.75,-1.8 1.1,0.4 0.55,1.05 0.3,0.65 M -4.55,0.1 q 0.55,3.55 1,9.9 l -0.05,0.5 q -0.15,0.25 -0.65,0.25 -0.9,0 -1.45,-4.5 l -0.35,-4.6 0.2,-2.15 0.05,-0.65 0.1,-0.85 0.7,0.35 0.3,0.75 0.15,1 M 3.7,18.8 H 3.8 L 4,18.85 q 0.7,0.4 0.7,3.35 L 4.45,25.4 H 3.6 L 3.7,24.2 3.75,21.2 3.7,18.8 M -1,25.4 h -1.75 q 0.15,-1.5 0.15,-4 v -0.85 q 0.25,-1.9 0.75,-2.8 1,-1.8 1,4.8 L -0.9,24.75 -1,25.4 M 8.2,21.05 8.65,20.7 q 0.75,1 0.75,3 L 9.3,25.4 8.2,25.35 v -4.3 m -16.55,-59 0.05,0.05 -1,0.75 -0.8,0.75 -1.75,-0.5 -0.55,-0.2 q 0,-1.1 0.65,-1.5 l 1.15,0.3 1.8,0.35 h 0.45 M -5,-30.7 q 1.45,0.35 1.45,1.1 0,1.05 -1.3,1.05 -1.6,0 -2.75,-0.65 L -8.5,-30 q 0,-0.6 0.8,-0.8 v 0.1 q 0.4,0.8 1.5,0.8 0.5,0 0.95,-0.45 L -5,-30.7 m -14.95,10.6 v 0.1 q 0,0.85 -1.15,1.05 l -4.8,0.1 -4.85,-0.4 -0.3,-0.4 0.05,-1.1 0.35,-0.45 0.3,-0.2 8.35,-0.05 q 1.2,0.5 2.05,1.35 m -4.6,5.6 q -0.95,-1 -0.95,-1.55 0,-1.8 2.25,0.35 l 3.75,4.25 -0.2,0.3 -0.15,0.05 -0.15,-0.05 -0.7,-0.35 -0.5,-0.45 -1.95,-2.25 -1.95,-1.85 -0.1,0.3 0.65,1.25 m -13.2,-5.35 0.3,-0.7 q 0.8,-1.55 2.35,-1.5 1.2,-0.1 1.75,0.35 l 0.35,0.15 v 0.3 l -0.1,1.8 -1,-0.6 -1.3,-0.7 q -0.85,0 -1.3,0.45 l -0.85,0.45 h -0.2 m 25.85,12.9 0.1,-0.2 1,1.1 0.25,1.85 0.2,6.95 V 4.1 l -0.3,0.75 -0.95,-0.5 -0.9,-0.4 V 3.85 2.7 q 0.5,-2.1 0.55,-5.85 l 0.1,-2.65 -0.05,-1.15 m 1.65,32.35 H -12 l -0.15,-0.95 V 22.3 21.85 l 0.35,-7.5 q 0.2,-2.2 0.6,-2.15 0.95,0.15 0.95,10.05 0.15,2.05 0,3.15 m 2.6,-9.85 q 0.35,-1.35 0.7,-1.1 l 0.05,0.05 0.3,0.9 0.2,1.65 q 0.25,2.2 0.35,5.2 0.15,2 0,3.15 h -0.7 -0.65 l -0.05,-1.8 -0.2,-8.05"
         fill="#e0e0e0"
         fill-rule="evenodd"
         stroke="none"
         id="path2" />
      <path
         d="m 12.35,-37.65 0.05,0.75 q 0.1,1.2 -0.8,2.2 v 0.1 l -1.85,-2.15 1.4,-0.35 q 0.8,-0.25 1.2,-0.55 M 9.1,-34.2 q 1.5,2.1 1.6,5.2 0.15,1.55 -0.3,2.95 -2.3,2.4 -3.2,2.95 -2.2,1.35 -7.25,1.35 -5.4,0 -8.15,-2.95 l -1.55,-2.05 -0.95,-0.8 V -29 q 0.1,-3.45 1.95,-5.65 0.4,0.85 2.25,1.75 -1.35,-0.1 -1.35,1.6 l 0.15,0.5 q -0.8,0.2 -0.8,0.8 l 0.9,0.8 q 1.15,0.65 2.75,0.65 1.3,0 1.3,-1.05 0,-0.75 -1.45,-1.1 l 0.15,-0.45 q 0,-0.8 -0.4,-1.25 2.05,0.75 4.85,1 h -0.3 l -1.05,0.15 -0.6,0.25 q 0.15,0.8 1.05,1.6 l 1.15,0.75 -0.05,0.2 v 1.1 0.05 l -1.8,0.35 q -1.1,0.35 -1.1,0.8 l 0.1,0.4 0.3,0.05 q 2.15,-0.5 2.9,-0.9 0.8,0.4 2.9,0.9 l 0.3,-0.05 0.1,-0.4 q 0,-0.45 -1.1,-0.8 L 0.6,-27.3 v -0.05 -1.1 l -0.05,-0.2 Q 1.1,-28.8 1.7,-29.4 2.6,-30.2 2.75,-31 l -0.6,-0.25 H 3.1 l 1.75,-0.2 v 0.15 l 0.2,0.7 0.05,0.1 -0.35,0.05 q -0.35,0.15 -0.35,0.6 0,0.55 0.45,0.75 l 3.3,0.3 q 0.9,0 0.9,-0.85 0,-0.6 -0.45,-0.75 l -0.75,-0.15 0.3,-0.65 q 0,-0.95 -0.8,-1.3 l 0.3,-0.25 1.45,-1.45 M 2.2,-25 q 0,-0.9 -1.7,-0.9 l -1.5,0.2 q -0.4,0.2 -0.4,0.75 0,1 2.1,1 1.5,0 1.5,-1.05 m 10,4.45 q -0.3,2.35 -0.3,5.7 l 0.05,4.35 v 0.15 l 0.25,0.45 -0.05,0.45 v 0.1 l -0.2,5.3 V -2.9 L 12,-1.4 q 0.1,2.45 0.5,4.05 l 0.35,1.15 -0.1,0.05 v 0.1 L 12.6,7.75 12.35,8.9 10.85,8.35 10.45,8 10.35,8.15 9.45,7.85 8.9,7.7 8.7,4.25 8.85,4.5 9.7,5 q 0.9,0 1.1,-1.85 v -1.9 l -0.1,-20.35 -0.35,-0.9 1.6,-0.5 0.25,-0.05 M 8.6,-2.4 8.25,-7.8 q -0.4,2.65 -0.5,7.6 L 7.6,7.45 6.05,7.2 6,2.5 q 0.2,1 0.55,1.45 0.6,-0.5 0.75,-2.25 l 0.05,-2.45 q 0.15,-11.15 -0.85,-14 -0.4,0.8 -0.6,3.45 l -0.15,-1.8 0.2,-0.3 -0.05,-0.35 -0.1,-0.1 H 5.75 L 5.7,-15.7 5.6,-18 5.55,-18.35 q 1.35,-0.4 2.5,-0.95 l -0.2,4.7 0.05,0.45 0.3,0.15 0.4,-0.15 V -2.4 m 5.45,-17.3 0.45,0.15 h 7.35 l -0.9,1.05 -0.05,0.1 -1.05,0.65 -0.75,0.25 q -4.3,1.6 -4.3,2.65 l 0.1,0.55 0.55,0.05 q 6.85,-2.7 7.8,-3.25 l 0.15,-0.15 v -0.2 l 1.15,-0.75 1.4,-0.95 h 1.95 l 2.2,-0.4 0.95,-0.15 0.1,1.55 -1,4.1 -0.05,0.15 q -0.55,1.45 -1.5,2.75 -0.45,-0.45 -1.55,-0.4 H 19.7 19 l 4.25,-2.55 3.65,-2.6 -0.2,-0.4 -3.45,1.95 -4.05,2.05 -3,1.6 -2.6,0.3 v -3.25 l 0.45,-4.85 m -20.6,3.35 q 2.6,2 5.5,2 l 1.7,-0.15 H 0.9 q 2.3,0 3.45,-0.5 l -0.05,1.05 v 0.05 l -2.35,-0.05 -3.65,0.05 -0.15,0.05 -2.15,-0.45 -1.3,-0.35 -1.25,-1.7 m -8.05,-3.8 1,0.05 1.3,-0.05 q 0.55,2 3.55,5.8 4.35,5.55 8.65,5.55 1.05,0 2,-0.7 L 1.05,-9.8 1.4,-9.95 1.35,-10.05 q -2.05,-0.85 -3.65,-2 l 4.35,-0.4 q 1.55,0 1.85,0.5 l 0.35,0.4 -0.05,0.45 v 9.15 Q -2.2,-2 -6.95,-5.25 l -0.15,-0.8 -0.1,0.6 -1.75,-1.4 -1.95,-2.1 0.2,-0.1 -0.4,-0.1 -0.8,-1.15 -0.95,-1.6 -3.7,-5.45 -1.05,-2.15 q 3.55,4.1 4,4.1 h 0.3 l 1.35,2 q 0.55,0 0.65,-0.35 l -3.3,-6.4 m 47.75,0.35 h 2.1 l 1.25,0.15 q 0.4,0.45 1.1,0.5 0.35,0.2 0.55,0.25 -0.2,1.55 -5.35,2.3 0.35,-1.35 0.3,-2.5 l 0.05,-0.7 M 9.15,9.45 Q 8.8,9.85 8.85,10.3 L 8.8,13.25 V 14 q 0.15,0.7 0.95,0.7 0.45,0 1.15,-0.8 L 11.55,12.75 11.4,9.85 12,9.75 11.9,10 q -0.1,1.95 -0.05,4.7 -1.15,0.35 -2.7,1.7 Q 8.9,15.6 8.8,14 l -0.1,-1.95 -0.15,-2.4 0.1,-0.4 0.5,0.2 m -9.7,-8.3 0.3,1.2 q 0.7,2.3 1.75,3.4 V 5.65 L 1.6,5.25 0.75,2.15 0.4,1.2 H 1 L 4.15,1.1 4.05,7.55 4.1,8.15 q 0.15,0.4 0.8,0.5 l -0.1,0.5 0.15,0.6 q 0.4,0.6 1.85,0.6 h 0.35 v 0.45 l 0.2,3.55 0.05,0.6 Q 5.9,13.65 4.2,14.1 l -4,0.65 Q -1.15,14.45 -2,13.8 l -1.1,-0.9 q -1.5,-1.15 -3.15,-1.45 l 0.05,-0.8 q 0.1,-2.3 -0.25,-9 l -0.15,-2.6 0.75,0.45 -0.2,2.15 0.35,4.6 q 0.55,4.5 1.45,4.5 0.5,0 0.65,-0.25 L -3.55,10 Q -4,3.65 -4.55,0.1 l 0.25,0.1 1.7,4.75 Q 0.3,12.2 1.45,12.2 L 1.85,12.05 1.9,11.8 0.65,9.7 0.85,9.5 Q -0.3,4.4 -1.9,0.95 l 1.35,0.2 M 4,18.85 v -0.8 q 2.3,0.9 3.35,1 L 7.3,20.25 7.25,25.35 4.45,25.4 4.7,22.2 Q 4.7,19.25 4,18.85 m -6.65,-1 q 0.45,-0.1 0.45,-0.65 l -0.05,-0.7 1,0.2 q 3.1,0.8 3.15,4.25 0,2.65 0.35,4.45 H 0.6 0 -0.55 -0.6 -1 l 0.1,-0.65 0.05,-2.2 q 0,-6.6 -1,-4.8 -0.5,0.9 -0.75,2.8 l -0.05,-2.7 M 9.3,25.4 9.4,23.7 q 0,-2 -0.75,-3 L 8.2,21.05 V 20 l -0.05,-1.1 0.3,0.1 0.3,-0.2 1.35,0.9 q 1.05,0.55 1.95,0.7 l 0.3,4.4 0.05,0.6 H 12.25 9.3 m 2.65,-7.15 -0.65,-0.2 -1.2,-0.25 1.8,-1.3 0.05,1.75 m -22.05,-54.65 -1.5,1.8 v -0.1 q -0.9,-1 -0.8,-2.2 v -0.2 l 0.55,0.2 1.75,0.5 m -20.95,16.75 0.3,0.4 4.85,0.4 4.8,-0.1 q 1.15,-0.2 1.15,-1.05 v -0.1 l 0.9,1.1 1.6,2.6 0.05,-0.1 2.15,3.9 -0.05,0.45 0.4,1.3 -0.05,0.1 -4.75,-0.4 0.2,-0.3 -3.75,-4.25 q -2.25,-2.15 -2.25,-0.35 0,0.55 0.95,1.55 0.85,1.5 2.3,3 l 0.3,0.3 -6,0.45 q -1.45,-1.7 -2.2,-3.7 l -1,-4.1 0.1,-1.1 m 0.7,-1.75 -0.3,0.2 -0.35,0.45 v -0.15 -0.5 h 0.05 0.6 m -7.4,1.55 h 0.2 l 0.85,-0.45 q 0.45,-0.45 1.3,-0.45 l 1.3,0.7 1,0.6 v 0.35 q -0.05,1.15 0.3,2.5 -5.35,-0.8 -5.35,-2.4 l 0.4,-0.85 M -12.5,2.7 v 1.15 0.1 L -12.85,3.8 -12.5,2.7 m 1.85,2.15 0.3,-0.75 V 2.75 l -0.2,-6.95 1.75,1.65 1.2,0.95 L -8,2.35 -8.4,6.3 Q -9.2,5.65 -10.65,4.85 m -1.25,4 0.6,0.35 q 1.65,1 2.2,3.8 l 0.2,1.5 v 9.1 1.8 h -1.35 q 0.15,-1.1 0,-3.15 0,-9.9 -0.95,-10.05 -0.4,-0.05 -0.6,2.15 0,-3.35 -0.15,-5.5 h 0.05 m 5.3,6.55 -0.05,-0.65 0.8,0.75 2.3,1.95 v 0.15 l -0.2,3.8 0.05,2.65 0.25,1.35 h -2.6 q 0.15,-1.15 0,-3.15 -0.1,-3 -0.35,-5.2 L -6.6,15.4"
         fill="#cccccc"
         fill-rule="evenodd"
         stroke="none"
         id="path3" />
      <path
         d="m 10.4,-26.05 q -0.3,1 -0.95,1.9 -2.55,3.7 -8.85,3.8 L 0,-20.4 l -0.6,0.05 q -6.3,-0.1 -8.85,-3.8 -1.1,-1.6 -1.25,-3.4 l 0.95,0.8 1.55,2.05 q 2.75,2.95 8.15,2.95 5.05,0 7.25,-1.35 0.9,-0.55 3.2,-2.95 m 18.2,14.5 -1.1,1.3 -4.25,0.05 -7.95,0.05 q 1.8,-0.75 3.7,-1.8 h 0.7 7.35 q 1.1,-0.05 1.55,0.4 m -12.4,-0.35 -2.65,1.6 0.05,-1.3 2.6,-0.3 m -22.75,-4.45 -0.35,-0.6 -1.2,-2.4 2.45,0.95 1.25,0.3 0.1,0.05 3.7,0.3 h 0.3 0.6 0.3 l 3.75,-0.35 v 0.5 1.3 1.3 Q 3.2,-14.5 0.9,-14.5 H 0.65 l -1.7,0.15 q -2.9,0 -5.5,-2 m 15.1,26 -0.1,-0.5 0.15,0.05 0.05,0.05 -0.1,0.4 m -9.1,-8.5 -1.35,-0.2 -0.3,-0.65 -0.55,-1.05 1.8,0.45 0.4,1.45 M -4.3,0.2 -4.55,0.1 l -0.15,-1 0.4,1.1 m -1.55,-0.7 -0.75,-0.45 -0.1,-1.65 1,0.6 -0.1,0.85 -0.05,0.65 m 13,10.85 H 6.8 q -1.45,0 -1.85,-0.6 L 4.8,9.15 4.9,8.65 h 0.25 l 0.4,-0.15 1,0.15 0.6,-0.1 0.35,0.2 q -0.3,0.6 -0.35,1.6 M 4.15,1.1 1,1.2 H 0.4 L -0.2,-0.2 2.4,0 4.2,-0.1 4.15,1.1 M 3.7,18.8 3.65,17.9 3.45,16.75 7.25,16.6 7.4,16.5 7.3,17.6 7.35,19.05 Q 6.3,18.95 4,18.05 v 0.8 L 3.8,18.8 H 3.7 m -6.35,-0.95 -0.1,-1.4 -0.1,-1.15 0.05,0.05 q 2.85,1.5 3.95,1.5 l 1.8,-0.05 -0.1,0.8 Q 2.7,18.9 2.7,21.15 L 2.65,23.75 2.8,25.4 H 2.25 Q 1.9,23.6 1.9,20.95 1.85,17.5 -1.25,16.7 l -1,-0.2 0.05,0.7 q 0,0.55 -0.45,0.65 m -25.3,-28.6 6,-0.45 1.15,1 -6.7,-0.05 -0.45,-0.5 m 8.25,-0.4 4.75,0.4 0.05,-0.1 -0.4,-1.3 0.05,-0.45 1.15,2.05 0.35,0.55 -0.7,-0.15 h -1.5 -2.8 l -1.55,-1 h 0.3 l 0.15,0.05 0.15,-0.05 m 7.9,4 -0.1,0.2 -0.05,-0.4 0.15,0.2 m 1.25,2.95 -0.25,-1.85 1.1,1.15 2.25,1.8 -0.15,1.5 -1.2,-0.95 -1.75,-1.65 m -1.35,13.05 0.5,-0.3 q 0.3,-0.4 0.75,-0.4 l 1.25,0.3 0.8,-0.15 -0.2,2.7 -0.05,1.3 0.05,0.4 -0.1,1.8 -0.2,-1.5 q -0.55,-2.8 -2.2,-3.8 l -0.6,-0.35 m 4.25,6.7 -0.1,-1.85 v -0.15 h 0.15 l 0.8,-0.3 0.15,-0.1 2.1,1.2 0.25,0.95 0.1,0.35 0.15,0.4 0.55,1.25 -0.05,0.15 -2.3,-1.95 -0.8,-0.75 0.05,0.65 -0.3,-0.9 -0.05,-0.05 q -0.35,-0.25 -0.7,1.1"
         fill="#b8b8b8"
         fill-rule="evenodd"
         stroke="none"
         id="path4" />
      <path
         d="m -19.15,34 v -1.9 l 5.4,-0.05 v 0.05 l 0.15,1.05 -0.1,7.65 -0.05,0.7 H -17 l -2.2,0.1 0.05,-0.8 h 0.05 V 40.25 35.2 34.85 L -19.15,34 m 10.55,-5.2 0.05,0.65 h -5.4 l -1.2,0.05 v -0.8 l -0.1,-1.1 0.65,0.1 0.45,0.05 1.8,0.05 3.8,0.05 -0.05,0.95"
         fill="#858585"
         fill-rule="evenodd"
         stroke="none"
         id="path5" />
      <path
         d="m 11.65,31.8 -0.2,3.05 v 0.35 4.9 0.15 0.55 L 11.5,41.55 -12.65,41.5 V 41.15 40.8 40.25 L -12.7,35.2 v -0.35 h -0.05 L -12.8,34.3 v -0.35 l -0.2,-1.9 20.85,-0.15 3.8,-0.1 m -3,-2.8 v 0.45 h -16.4 v -1.6 h 0.5 0.35 6.3 1.2 8.1 L 8.65,29"
         fill="#7b7b7b"
         fill-rule="evenodd"
         stroke="none"
         id="path6" />
      <path
         d="m 14.6,27.7 0.4,-0.05 -0.05,1 v 0.8 h -5.4 v -0.5 l -0.05,-1.1 2.85,-0.05 1.8,-0.05 0.45,-0.05 m -2.55,4.05 h 0.85 l 3.95,0.1 2,-0.05 -0.1,2.15 v 6.85 h 0.05 l 0.05,0.75 h -6.6 v -1.3 -5.05 -0.35 l -0.2,-3.1"
         fill="#727272"
         fill-rule="evenodd"
         stroke="none"
         id="path7" />
    </g>
  </defs>
</svg>
