<?xml version="1.0" encoding="UTF-8" standalone="no"?>
<svg
   ffdec:objectType="frame"
   height="92.799988"
   width="74.099998"
   version="1.1"
   id="svg13"
   sodipodi:docname="1.svg"
   xmlns:inkscape="http://www.inkscape.org/namespaces/inkscape"
   xmlns:sodipodi="http://sodipodi.sourceforge.net/DTD/sodipodi-0.dtd"
   xmlns:xlink="http://www.w3.org/1999/xlink"
   xmlns="http://www.w3.org/2000/svg"
   xmlns:svg="http://www.w3.org/2000/svg"
   xmlns:ffdec="https://www.free-decompiler.com/flash">
  <sodipodi:namedview
     id="namedview13"
     pagecolor="#ffffff"
     bordercolor="#000000"
     borderopacity="0.25"
     inkscape:showpageshadow="2"
     inkscape:pageopacity="0.0"
     inkscape:pagecheckerboard="0"
     inkscape:deskcolor="#d1d1d1"
     fit-margin-top="5"
     fit-margin-left="5"
     fit-margin-right="5"
     fit-margin-bottom="5" />
  <g
     transform="translate(37.05,46.399986)"
     id="g1">
    <use
       ffdec:characterId="1708"
       height="92.800003"
       transform="translate(-37.05,-46.4)"
       width="74.099998"
       xlink:href="#shape0"
       id="use1" />
  </g>
  <defs
     id="defs13">
    <g
       id="shape0"
       transform="translate(37.05,46.4)">
      <path
         d="m 0.2,-45.75 q 2.15,0.9 2.3,2.6 v 3.2 q 1.45,-0.5 2.7,0.85 1,1.1 1,1.75 l -0.05,1.15 -0.25,0.55 1.9,-0.05 0.4,0.2 h 0.1 q 0.85,0.15 0.85,1.55 v 0.85 l -0.05,0.2 0.05,0.3 -1,1.1 -0.5,0.5 0.35,0.6 0.25,0.7 q 0.6,1.3 1.8,0.95 l 1.85,0.1 q 0.45,0.45 0.9,2.8 l 0.4,2.85 q 0,0.7 -0.4,1.45 l -0.05,0.05 0.75,0.45 q 3,2.3 3,6.8 l -0.4,2.45 q -0.85,2.45 -2.95,2.45 l -0.75,-0.05 0.05,0.1 q 1.3,2.05 2.7,2.85 0.7,0.4 0.7,1.7 l -0.4,1 1,0.6 1.7,1.05 0.1,-4.8 q 0.15,-2.85 2.3,-4.75 5.45,-1.5 6.95,2.55 0.45,1.25 0.45,5.25 l 0.05,2 Q 28,0.5 27.45,2.4 25.8,8.5 19.85,8.5 h -0.4 q 0.65,1.15 0.65,2.85 l -0.25,2.1 -0.45,1 q 2.8,1.1 4.4,2.5 1.8,-1.75 3.25,-1.25 1.4,0.4 1.4,2 0,3.6 1.2,5.6 1.2,1.95 1.2,3.7 l -0.45,2.4 -0.35,0.75 q 2.4,0.1 4.3,2.15 2.2,2.3 2.2,4.35 l -0.1,1 q -0.3,0.95 -1.35,0.95 l -3.65,-0.4 q -1.4,0 -2.65,0.8 l -0.75,0.5 1.2,3.7 -0.1,0.35 -0.25,0.1 v 0.1 q -0.2,0.4 -0.8,0.45 l -3.9,0.65 -4.65,0.6 -3.95,-0.5 H 14.35 L 14.3,45 l 0.2,0.15 -0.35,0.2 -0.2,0.25 -0.1,-0.05 -1.55,0.35 H 4.1 Q 1.65,45.75 0,44.95 q -1.65,0.8 -4.1,0.95 h -8.2 l -1.55,-0.35 -0.1,0.05 -0.2,-0.25 -0.35,-0.2 0.2,-0.15 -0.05,-0.05 h -1.25 l -3.95,0.5 -4.65,-0.6 -3.9,-0.65 q -0.6,-0.05 -0.8,-0.45 v -0.1 l -0.15,-0.05 -0.1,-0.05 -0.1,-0.35 0.2,-0.75 1,-2.95 -0.75,-0.5 -0.25,-0.15 q -1.15,-0.65 -2.4,-0.65 l -3.65,0.4 -0.8,-0.2 -0.55,-0.75 -0.1,-1 q 0,-1.1 0.65,-2.3 l 1.55,-2.05 1.15,-1 q 1.45,-1.05 3.15,-1.15 L -30.4,29.4 -30.85,27 q 0,-1.75 1.2,-3.7 1.2,-2 1.2,-5.6 0,-1.6 1.4,-2 1.45,-0.5 3.25,1.25 1.6,-1.4 4.4,-2.5 l -0.45,-1 -0.25,-2.1 q 0,-1.7 0.65,-2.85 h -0.4 q -5.95,0 -7.6,-6.1 Q -28,0.5 -28,-1.85 l 0.05,-2 q 0,-4 0.45,-5.25 1.5,-4.05 6.95,-2.55 2.15,1.9 2.3,4.75 l 0.1,4.8 1.7,-1.05 1,-0.6 -0.4,-1 q 0,-1.3 0.7,-1.7 1.4,-0.8 2.7,-2.85 l 0.05,-0.1 -0.75,0.05 q -2.1,0 -2.95,-2.45 l -0.4,-2.45 q 0,-4.5 3,-6.8 l 0.75,-0.45 -0.05,-0.05 q -0.4,-0.75 -0.4,-1.45 l 0.4,-2.85 q 0.45,-2.35 0.9,-2.8 l 1.85,-0.1 q 1.2,0.35 1.8,-0.95 l 0.25,-0.7 0.35,-0.6 -0.5,-0.5 -1,-1.1 0.05,-0.3 -0.05,-0.2 v -0.85 q 0,-1.4 0.85,-1.55 h 0.1 l 0.4,-0.2 1.9,0.05 -0.25,-0.55 -0.05,-1.15 q 0,-0.65 1,-1.75 1.25,-1.35 2.7,-0.85 v -3.2 q 0.1,-1.7 2.3,-2.6 v -0.15 l 0.2,0.05 0.2,-0.05 v 0.15 m 0.35,3.15 0.15,1.85 v 0.3 q 0,1.6 -0.5,2.45 l 2.35,-0.25 Q 1.35,-38.9 1.05,-40.5 L 1,-41 v -0.4 l -0.15,-1.45 -0.1,-0.35 -0.3,-0.5 0.1,0.7 v 0.4 m 4.1,5.25 h -1 -0.8 L 0.4,-37.5 0.2,-37.55 v 0.1 L 0.05,-37.6 0,-37.65 l -0.2,0.2 v -0.1 l -0.2,0.05 -2.15,0.15 h -0.1 -2.15 l -0.25,0.35 0.1,0.35 0.3,0.4 0.65,0.6 h 0.85 1.1 l 0.3,0.05 0.3,0.05 0.8,0.25 0.65,-0.1 0.65,0.1 0.95,-0.3 0.45,-0.05 H 2.7 3.75 4 l 0.65,-0.6 q 0.4,-0.4 0.4,-0.75 L 4.8,-37.35 H 4.65 m 2.95,3.4 -0.1,-0.35 H 5.1 l -1.65,0.05 -2,-0.05 v 0.3 0.2 0.2 l 3.75,0.05 2.55,0.25 -0.15,-0.65 m -2.15,2.7 q 0,-0.7 0.85,-1.3 h -5 l -0.4,-0.25 -0.1,0.1 1.7,1.4 0.15,0.15 0.45,0.55 1.2,-0.4 0.6,-0.15 0.55,-0.05 v -0.05 m -5.4,-5.1 -0.35,-0.1 -0.15,-0.4 0.15,-0.4 0.35,-0.1 0.55,0.5 q -0.05,0.4 -0.55,0.5 m 1.9,8.15 v -0.15 l 0.25,-0.4 0.65,-0.1 -0.6,-0.6 L 2.2,-29.5 1.55,-30.1 0.6,-31 0.3,-31.35 0,-31.7 l -0.4,0.5 -0.45,0.45 -0.7,0.65 -0.7,0.65 -0.1,0.15 -1.35,1.65 -0.05,0.05 -0.25,0.5 -0.25,1.3 q 0,0.7 1.15,1.9 l 1.45,1.75 q 0.35,0.2 0.35,0.55 l -0.2,0.7 q 0.2,0.1 -0.05,0.1 l -0.15,0.2 0.3,0.35 q 0.35,0.3 1.15,0.45 l 0.3,0.05 0.2,-0.05 0.7,-0.15 0.65,-0.45 0.1,-0.2 -0.05,-0.05 -0.05,-0.1 -0.05,-0.05 q -0.25,0 -0.05,-0.1 l -0.2,-0.7 q 0,-0.35 0.35,-0.55 L 1.9,-22.5 2.15,-22.8 2.3,-23 2.6,-23.3 3,-23.75 3.1,-23.9 3.8,-24.75 h 0.05 l 0.35,-0.6 0.05,-0.45 -0.15,-1.05 -0.35,-0.75 -0.4,-0.6 -0.05,-0.1 -0.2,-0.25 0.05,0.2 -0.1,0.55 -0.4,0.1 -0.6,-0.05 -0.1,-0.45 m -5.65,1.7 0.3,-0.15 0.3,0.25 0.1,0.1 -0.15,0.4 -0.25,0.1 q -0.3,-0.1 -0.4,-0.25 l -0.05,-0.25 0.15,-0.2 m 1.9,-1.35 -0.3,-0.25 -0.05,-0.25 0.4,-0.35 0.4,0.3 0.05,0.05 -0.15,0.4 -0.3,0.1 H -1.8 m 1.65,-2.05 -0.25,-0.35 q 0,-0.65 0.8,-0.45 h 0.05 l 0.1,0.4 -0.05,0.45 -0.3,0.1 -0.15,0.05 -0.2,-0.2 m 6.5,-0.15 -1.7,-0.1 -0.95,0.25 0.3,0.4 0.35,0.65 0.5,0.6 q 0.7,1.05 0.9,2.8 v 0.15 L 6.3,-25.4 Q 6,-25.95 5.95,-26.85 L 5.9,-27.5 q 0,-1.15 0.3,-1.45 l 0.2,-0.15 0.05,-0.3 v -0.5 -0.15 H 6.35 M 1,-27.6 l 0.05,0.1 0.05,0.1 0.1,0.35 0.2,2.05 v 0.4 l -0.05,0.35 -0.05,0.35 q -0.25,0.8 -0.95,0.8 h -0.4 l -0.4,-0.15 q -0.65,-0.3 -0.85,-1.1 v -1.05 l 0.1,-1.1 0.4,-1.35 0.5,-0.35 0.15,-0.05 0.2,-0.05 0.3,0.05 h 0.1 l 0.25,0.15 0.3,0.5 m -0.3,1.65 v -0.65 l -0.05,-0.1 -0.7,-0.9 -0.05,-0.05 -0.05,0.25 -0.05,0.1 -0.35,0.85 -0.1,0.5 -0.05,0.15 v 0.25 l 0.05,0.85 0.1,0.2 0.65,0.55 0.2,0.1 0.4,-1.7 v -0.05 -0.35 m 2.4,-1 0.5,0.55 -0.5,0.5 -0.4,-0.1 v -0.05 l -0.1,-0.4 0.05,-0.2 0.05,-0.2 0.4,-0.1 M 7.65,-27.7 7,-27.9 6.95,-27.85 6.8,-27.2 v 0.35 0.05 q 0.05,0.35 1.05,1.35 H 11.2 L 11,-26.5 v -0.1 l -0.35,-0.85 -1.7,-0.05 -1.3,-0.2 m -2,4.5 -0.45,1 0.35,0.05 1.2,-0.1 3.4,0.05 0.3,-0.5 0.55,-1.35 H 10.2 6.4 l -0.6,-0.05 -0.15,0.9 m 5.85,3.55 0.85,1.8 h 1.2 l -0.9,-1.3 -1.05,-1.3 -0.25,0.1 H 11.3 l -0.2,0.05 0.1,0.2 0.3,0.45 m 1.25,2.8 0.15,0.75 h 0.2 1.4 l -0.35,-0.75 -0.15,-0.2 -1.3,0.1 0.05,0.1 M 14.1,-14 h 0.25 0.1 l 0.25,0.05 0.1,-0.7 -0.05,-0.5 h -1.2 -0.5 l 0.1,1.1 q 0,1.35 -0.55,2.75 l 0.55,0.1 q 0.45,0 0.8,-0.5 l -0.5,-0.4 q -0.3,-0.4 -0.3,-0.7 0,-1.15 0.95,-1.2 m -3.9,-2.7 q -1.85,0 -2.65,-1.75 Q 7.2,-19.2 7.1,-20.1 l -0.25,-0.2 h -0.3 l -3.5,-0.05 -0.15,0.95 q -0.55,1.2 -2.25,1.2 h -0.7 -0.6 q -1.7,0 -2.25,-1.2 l -0.15,-0.95 -3.5,0.05 h -0.3 l -0.25,0.2 q -0.1,0.9 -0.45,1.65 -0.8,1.75 -2.65,1.75 l -0.25,2.65 q 0,1.8 2.05,3.95 2.95,3.1 8.2,3.1 h 0.05 0.35 q 5.25,0 8.2,-3.1 2.05,-2.15 2.05,-3.95 L 10.2,-16.7 m -9.7,-4.25 -0.55,0.25 -0.4,-0.3 -0.25,-0.3 v -0.05 l 0.25,-0.6 0.2,-0.05 h 0.05 l 0.05,0.05 0.75,0.6 -0.1,0.4 m 0.5,4.45 -0.2,0.55 q -0.25,0.4 -0.75,0.4 -0.6,0 -0.8,-0.5 l -0.1,-0.5 q 0,-0.85 0.95,-0.9 Q 1,-17.5 1,-16.5 m -1.9,4.8 -0.05,-0.05 -0.45,-0.65 0.1,-0.35 q 0.2,-0.3 0.5,-0.25 h 2.05 l 0.6,0.4 -0.35,0.45 -0.6,0.65 -0.25,0.2 -0.5,0.2 -0.6,-0.2 -0.1,-0.05 -0.2,-0.2 -0.15,-0.15 m 3.8,0.15 -0.05,-0.3 q 0.95,0.3 1,1.45 v 0.05 q 0,0.5 -0.5,0.9 -0.75,0.6 -2.5,0.6 l -0.65,-0.2 -0.6,0.2 H -0.45 -1 l -1.6,-0.4 -0.35,-0.2 q -0.5,-0.4 -0.5,-0.9 0,-1.2 1,-1.5 v 0.15 l -0.1,0.4 -0.1,0.4 -0.05,0.25 q 0,0.45 0.5,0.7 l 0.05,0.05 1.45,0.2 q 0.4,0 0.55,-0.45 L 0.1,-10.5 v -0.1 l 0.1,0.05 0.1,-0.05 v 0.05 l 0.2,-0.05 0.1,0.05 H 0.3 v 0.05 l 0.25,0.35 0.15,0.25 q 0.15,0.2 0.4,0.2 2,0 2,-0.95 V -10.7 L 3.05,-10.95 2.95,-11.3 2.9,-11.55 m 2.75,-2.8 -0.25,-0.25 q -0.3,-0.4 -0.3,-0.85 0,-1.4 1.5,-1.4 1.5,0 1.5,1.4 l -0.2,0.75 -0.6,0.55 -0.7,0.1 q -0.6,0 -0.95,-0.3 M 4.9,-0.75 3.05,0.4 H 0.75 L 0.2,0.6 H 0 -0.2 L -0.75,0.4 h -2.3 l -1.85,-1.15 0.05,0.05 q 1.3,1.35 4.9,2.25 3.5,-0.9 4.8,-2.25 L 4.9,-0.75 M 1,-1.8 Q 3.85,-1.5 5.6,-3.1 5.15,-3.9 5.15,-4.55 V -4.8 l -4.9,0.6 h -0.4 -0.1 l -4.9,-0.6 v 0.25 q 0,0.65 -0.45,1.45 1.75,1.6 4.6,1.3 L -0.55,-1.5 0,-1.55 0.55,-1.5 1,-1.8 m 0.05,0.85 0.05,0.4 v 0.1 Q 3.95,-0.75 5.2,-1.8 L 5.3,-1.95 5,-1.8 Q 3.5,-1 1.05,-0.95 m 5.3,-1 0.05,0.4 q 0,1 -1.65,2.35 Q 2.8,2.35 0.4,2.35 H -0.2 -0.4 Q -2.8,2.35 -4.75,0.8 -6.4,-0.55 -6.4,-1.55 l 0.05,-0.4 V -2 l -0.4,0.35 -0.05,0.7 q 0,1.4 1.7,2.4 1.7,1 4.1,1 0.75,0 1,0.5 0.25,-0.5 1,-0.5 2.4,0 4.1,-1 1.7,-1 1.7,-2.4 L 6.75,-1.65 6.35,-2 v 0.05 M 10.8,-8.35 10.5,-8 q 1.15,1.3 2.6,2.3 l 0.7,0.75 V -5.1 L 12.15,-6.8 10.8,-8.35 M 8.1,-1 v 0.1 0.15 L 7.6,2.2 Q 7,4.1 5.9,4.75 l 0.3,0.3 0.05,0.1 0.45,0.3 Q 7.9,4.8 8.55,3.25 9.15,1.9 9.15,0.5 L 8.95,-0.85 8.1,-1 m 8.8,2.1 0.25,-0.4 0.15,-0.35 0.2,-0.6 0.05,-0.1 0.05,-0.2 -0.35,-0.2 -1.25,-0.9 -0.65,-0.5 -0.55,-0.4 -0.7,0.6 v 0.1 L 14.2,-1 V 0.25 L 14.05,1.9 13.6,3 14.25,3.45 14.7,3.1 16.9,1.1 M 12.8,-1.3 9.65,-0.85 9.9,0.05 9.85,1.65 9.2,3.9 Q 8.6,5.45 7.7,5.95 L 9,6.3 9.45,6.35 9.75,6.1 11,4.9 11.2,3.65 11.25,2.9 10.9,2.4 12.75,2.6 q 0.8,-1.8 0.8,-2.35 l -0.3,-0.9 -0.45,-0.65 m 13.25,-3.55 -0.2,-1.9 q -0.85,0 -0.85,-0.9 0,-0.6 0.4,-0.75 L 25,-9.05 25.05,-8.75 25,-8.4 q -0.2,0.5 -0.8,0.5 -0.25,0 -0.5,-0.2 -0.35,-0.25 -0.35,-0.65 0,-0.85 0.85,-0.85 l 0.35,0.05 q -0.7,-0.6 -1.7,-0.6 -1.75,0 -2.25,2.5 l 0.4,-0.1 q 0.9,-0.15 0.9,0.7 l -0.05,0.35 q -0.15,0.5 -0.75,0.5 l -0.4,-0.05 -0.25,-0.1 -0.05,1.25 q 0,4.7 -1.55,5 v 0.5 l -0.05,0.9 -0.6,0.65 -0.1,0.2 -0.35,0.7 q -0.85,1.6 -2.1,2.2 l 1.1,0.4 2.6,1 Q 24.1,6.45 25.5,1.7 26,0 26,-3.75 l 0.05,-1.1 M 23.75,-4 q -1.5,0 -1.5,-1.4 0,-1.4 1.5,-1.4 1.5,0 1.5,1.4 L 25.1,-4.65 Q 24.75,-4 23.75,-4 m -2,-5.3 0.4,-0.05 h 0.05 q 0.85,0.05 0.85,0.85 L 23,-8.05 q -0.2,0.45 -0.8,0.45 h -0.05 q -0.4,0 -0.65,-0.3 -0.25,-0.3 -0.25,-0.65 0,-0.65 0.5,-0.75 M 28.5,28.25 28.8,27 q 0,-1.6 -1.05,-3.35 -1,-1.8 -1,-2.45 l 0.4,-3.45 -0.2,-0.45 -0.4,-0.3 -0.75,-0.15 q -0.2,0 -1,0.55 l -0.3,0.2 q 1.6,1.75 1.6,3.9 l -0.3,1.25 -0.35,0.9 q 0.65,1.65 1.9,3.45 l 0.85,1.65 0.3,-0.5 M 14.9,15.9 l -1.75,0.25 -1.9,1.15 -2.35,1.5 9.3,1.05 -1.9,0.4 -1.95,0.25 0.1,0.05 q 0.95,0.65 2.5,2.15 L 16.9,22.85 V 22.9 L 16.85,23 H 16.8 q -0.7,-0.25 -2.45,-1.4 -1.6,-0.85 -3.25,-1 H 10.3 9.85 l -1.5,0.15 0.4,0.8 0.1,1.5 -0.2,1.05 -0.35,0.65 -0.5,0.7 0.25,0.1 q 3.5,1.2 5.9,1.2 5.85,0 8.4,-2.7 l 0.4,-0.4 q 1.1,-1.45 1.1,-2.9 0,-0.95 -2.2,-2.85 -2.25,-1.95 -5.15,-2.45 l -0.8,0.25 -0.8,0.2 M 14,6.65 13.6,6.05 12.3,4.25 v 0.3 l -0.45,1.6 -0.25,0.4 q 1.1,0.15 1.35,0.4 l -2.3,0.6 -2.9,0.4 H 7.45 Q 5.7,7.8 4.55,6.2 L 4.25,5.7 2.45,5.2 Q 1.1,5.2 0.7,6.05 L 0.6,6.3 v 1.35 q 0,2.05 0.5,2.8 1.35,2.1 6.25,2.1 h 0.1 q 5.35,0 6.8,-0.9 0.8,-0.45 0.8,-2.05 0,-1.2 -1.05,-2.95 m 4.05,2.35 0.3,2.75 -1,1.5 0.15,-0.2 q 1.1,-1.25 1.1,-2.4 0,-0.8 -0.55,-1.65 M 6.95,1.8 5.8,2.75 Q 5.25,3.1 4.65,3.4 H 3.95 L 3,3.75 4.9,4.2 q 1.4,-1 2.05,-2.4 m 2.1,12.9 q -1.3,0.25 -1.95,0.7 -0.75,0.45 -1.55,1.45 l -2.2,1.5 -1.55,0.8 -1.6,0.4 H 0 -0.2 l -1.6,-0.4 -1.55,-0.8 -2.2,-1.5 q -0.8,-1 -1.55,-1.45 -0.65,-0.45 -1.95,-0.7 l -3.1,-0.25 q 1.05,0.6 2.5,0.95 2,1.2 4.4,3.45 l 0.8,0.85 2.15,2.05 q 1.1,0.8 2.35,1.25 1.2,-0.45 2.25,-1.25 L 4.8,19.35 5.15,19 5.25,18.85 5.95,18.2 q 2,-1.8 3.7,-2.8 1.45,-0.35 2.5,-0.95 L 9.05,14.7 M 4.1,18.05 4.4,18 4.8,18.4 4.7,18.75 4.4,18.85 4,18.4 4.1,18.05 m -2.8,-0.9 -1.3,-0.1 -1.3,0.1 -2.4,-0.5 Q -1.95,18 0.05,18.7 2,17.95 3.7,16.65 l -2.4,0.5 M 0.65,13.45 0,13.05 -0.95,13.6 v 0.05 l 0.75,0.1 0.85,-0.3 m 1.65,3 3.9,-1.8 -3.7,-0.5 -0.7,1.05 Q 0.95,16 -0.1,16 q -1.2,0 -2.15,-0.6 -0.8,-0.5 -0.8,-0.95 l 0.05,-0.2 -3.2,0.4 3.9,1.8 2.1,-0.1 h 0.4 l 2.1,0.1 M 0.55,21 q 0,0.35 -0.5,0.55 l -0.45,-0.4 q 0,-0.4 0.45,-0.55 l 0.5,0.4 m 1.25,-1.15 0.3,-0.1 q 0.45,0.1 0.45,0.75 l -0.45,0.25 -0.3,-0.1 -0.1,-0.4 0.1,-0.4 m -0.5,4.5 h 0.45 l 2.25,0.2 1.6,0.3 V 24.8 L 5.7,24.65 Q 6.4,23.55 6.4,22.8 V 21.2 L 6.45,20.95 V 20.9 H 6.4 L 6,20.95 5.75,21.2 5,21.8 2.7,23.55 1.3,24.35 m 5.75,-3.5 0.05,0.6 0.05,1.15 q 0,1.4 -0.45,2.35 l -0.05,0.15 0.1,0.05 0.3,0.1 0.3,-0.4 q 0.6,-0.9 0.75,-1.95 l -0.15,-2.1 -0.9,0.05 m 17.1,4.8 q -2.1,2.35 -5.6,2.95 l 0.15,0.2 q 1.35,2.2 1.35,3.6 0,0.75 -0.65,1.6 0.45,0.3 1.05,0.3 l 1.1,-0.1 q 1.4,-0.35 2.95,-1.5 2,-1.45 2,-2.2 0,-1.7 -1.15,-3.75 l -0.85,-1.6 -0.05,0.1 -0.3,0.4 m -8,3.15 H 16 l -7,-1 -0.6,0.8 q -0.85,1 -0.85,2.05 0,2 1.65,3.8 l 0.2,0.25 2.7,0.45 2.15,-0.2 q 1.7,-0.35 2.8,-1.35 1.35,-1.2 1.35,-2.55 l -0.85,-2.3 -1.4,0.05 m -1.5,7.95 -0.95,0.2 h -0.2 l 0.2,0.25 q 0.7,0.8 0.85,1.75 v 0.2 q 0.3,0.65 0.25,1.25 l -0.3,1.9 v 0.8 q 1.6,0.8 2.3,0.8 l 6.7,-0.8 0.8,-0.1 1.95,-0.2 -2.7,-0.7 -4.9,-1.15 Q 17.8,40.7 16.35,39 15.15,37.65 14.9,36.95 l -0.1,-0.25 -0.15,0.05 m 3.4,-0.3 -1.45,0.45 q 1.8,2.3 2.35,2.55 1.7,0.9 5.9,1.6 l 2.25,0.6 -0.65,-1.9 -0.05,-0.05 -0.55,-0.65 q -0.6,-0.5 -1.75,-1.1 L 21.3,36.4 h -0.15 l -2.1,-0.35 -1,0.4 M 7.4,27.5 6.85,27.4 3.55,26.75 3.8,26.95 6.45,29.3 q 0.3,-0.9 0.95,-1.8 m -5.75,8.2 h 2 L 4.6,34.75 5,33.15 5.1,32.6 4.95,31.7 Q 4.3,28.9 0,25.5 q -4.3,3.4 -4.95,6.2 l -0.15,0.9 0.1,0.55 0.4,1.6 0.95,0.95 H -1.5 1.65 M 0.2,37.35 v 0.55 l 0.4,0.6 q 1.15,1.8 2.65,2.6 1.85,1 6.55,1.9 l 2.9,0.75 0.45,-3.25 q 0,-0.9 -0.8,-1.9 L 11.45,37.65 10.55,36.9 9.9,36.75 Q 8.8,36.6 7.95,35.5 L 7.4,35.25 H 7.35 L 7,35.65 6.85,35.85 q -0.5,0.55 -1.2,0.7 L 5.1,36.8 Q 5,37.5 4.1,37.35 H 0.2 -0.2 L 0,37.6 0.2,37.35 m -0.4,0 H -4.1 Q -5,37.5 -5.1,36.8 l -0.55,-0.25 q -0.7,-0.15 -1.2,-0.7 l -0.5,-0.6 H -7.4 l -0.55,0.25 q -0.85,1.1 -1.95,1.25 l -0.65,0.15 -0.9,0.75 q -1.7,1.55 -1.7,2.85 l 0.45,3.25 2.9,-0.75 q 4.7,-0.9 6.55,-1.9 1.5,-0.8 2.65,-2.6 l 0.4,-0.6 v -0.55 m 2.15,6.25 2.35,0.6 1.85,0.05 Q 3.7,43.35 1.8,41.7 L 0.35,40.25 0,39.85 -0.35,40.25 -1.8,41.7 q -1.9,1.65 -4.35,2.55 L -4.3,44.2 h 0.1 q 2.55,-0.55 4,-1.4 V 42.6 L 0,42.7 0.2,42.6 v 0.25 L 1.95,43.6 M 29.1,36.95 q 0.85,-0.35 1.6,-0.35 l 2.5,0.3 0.55,0.1 0.75,0.05 h 0.15 L 34.9,37 34.85,36.9 V 36.85 L 34,36.4 33.5,36.15 33.35,36.1 33.2,36 l -0.9,-0.3 -3.45,-0.5 -1.1,0.05 q -2.6,0.05 -3.2,0.55 H 24.4 l -0.6,0.2 0.25,0.05 q 0.65,0.15 1.25,0.45 l 0.15,0.05 q 1.1,0.55 1.75,1.4 1,-0.7 1.9,-1 m 5.2,-1.8 -0.15,-0.3 -1.05,-1.7 Q 32.7,32.6 30.55,31.5 L 29.5,31 28.35,31.7 q -0.3,1.05 -1.2,2.05 l 0.05,0.1 v 0.1 l 2.6,0.2 3.5,0.65 1,0.35 m -35,-75.7 v -0.15 -0.05 l 0.2,-2.15 v -0.3 l 0.05,-0.5 -0.3,0.5 -0.1,0.6 -0.05,0.3 -0.1,1.3 v 0.15 q -0.2,1.65 -1.2,2.4 l -0.25,0.15 -0.1,0.05 h 0.1 l 0.15,0.05 0.45,0.05 1.65,0.15 q -0.5,-0.9 -0.5,-2.55 m -6.35,12.7 -1.25,0.25 -2.35,0.15 -0.35,0.95 -0.2,1.05 h 0.15 3.2 q 1.05,-1.05 1.05,-1.4 V -27 q 0,-0.65 -0.15,-0.85 L -7,-27.9 l -0.05,0.05 m 5.65,-6.05 -0.05,-0.15 0.05,-0.25 h -3.7 -2.4 l -0.05,0.3 -0.2,0.7 1.25,-0.15 1.15,-0.1 h 0.15 l 3.85,-0.05 -0.05,-0.15 v -0.15 m -2.65,2.95 0.95,0.35 0.45,-0.5 0.15,-0.2 1.75,-1.45 -0.15,-0.05 -0.4,0.25 h -5 l 0.4,0.35 q 0.45,0.45 0.45,0.95 v 0.05 l 0.55,0.05 0.85,0.2 m -2.35,1.55 v 0.25 0.05 l 0.2,0.15 q 0.3,0.3 0.3,1.45 v 0.35 q -0.05,1.1 -0.4,1.75 l 0.55,0.1 q 0.15,-1.85 0.9,-2.95 l 0.5,-0.6 0.45,-0.75 0.2,-0.3 -0.95,-0.25 -1.3,0.1 h -0.5 l 0.05,0.65 M -18.05,2.2 -18.2,1.95 -18.8,1.3 -18.85,0.4 v -0.5 q -1.55,-0.3 -1.55,-5 l -0.05,-1.25 -0.65,0.15 q -0.6,0 -0.75,-0.5 l -0.05,-0.35 q 0,-0.85 0.9,-0.7 l 0.4,0.1 q -0.5,-2.5 -2.25,-2.5 -1,0 -1.7,0.6 l 0.35,-0.05 q 0.85,0 0.85,0.85 0,0.4 -0.35,0.65 -0.25,0.2 -0.5,0.2 -0.6,0 -0.8,-0.5 l -0.05,-0.35 0.05,-0.3 -0.4,0.65 q 0.4,0.15 0.4,0.75 0,0.9 -0.85,0.9 l -0.15,3 0.05,2.05 0.45,3.4 q 1.4,4.75 6.15,4.75 l 2.6,-1 1.1,-0.4 q -1.25,-0.6 -2.1,-2.2 l -0.3,-0.65 m -5,-10.7 q 0,-0.8 0.9,-0.85 0.9,-0.1 0.9,0.8 0,0.35 -0.25,0.65 -0.25,0.3 -0.65,0.3 -0.65,0 -0.85,-0.45 l -0.05,-0.45 m -0.7,4.5 q -1,0 -1.35,-0.65 l -0.15,-0.75 q 0,-1.4 1.5,-1.4 1.5,0 1.5,1.4 0,1.4 -1.5,1.4 m 13.15,-18.95 0.15,0.25 0.3,0.5 3.4,-0.05 1.2,0.1 0.35,-0.05 -0.5,-1.35 -0.1,-0.55 -0.6,0.05 H -11 l 0.4,1.1 m 3.1,8.7 -0.4,-0.45 -0.2,-0.75 q 0,-1.4 1.5,-1.4 1.5,0 1.5,1.4 0,0.45 -0.3,0.85 l -0.3,0.3 -0.9,0.25 -0.9,-0.2 m -4.7,-3.9 v -0.05 l 1.05,-1.95 0.05,-0.15 -0.2,-0.05 h -0.1 l -0.2,-0.1 -0.25,0.35 -0.4,0.5 -0.4,0.45 -0.9,1.3 h 1.1 0.1 l 0.15,-0.3 m -0.8,1.15 -1,-0.05 -0.5,0.95 h 1 0.6 l 0.2,-0.85 L -13,-17 m -0.95,1.85 h -0.8 l -0.05,0.5 0.1,0.7 0.35,-0.05 q 1.2,-0.1 1.2,1.2 0,0.3 -0.3,0.7 l -0.5,0.4 q 0.35,0.5 0.8,0.5 l 0.55,-0.1 q -0.55,-1.4 -0.55,-2.75 l 0.1,-1.1 h -0.9 m 3.95,7.65 -0.8,-0.85 -1.35,1.55 -1.65,1.7 0.05,0.55 0.05,0.05 1.3,-1.4 2.15,-1.55 0.2,0.05 H -9.9 L -10,-7.5 m -3.9,5.65 -0.9,-0.7 -1.2,0.9 q -0.95,0.7 -1.6,1.1 l 0.45,1.25 0.25,0.35 2.2,2.05 0.45,0.35 0.6,-0.4 -0.35,-0.85 -0.05,-1.25 0.2,-1.6 0.8,-0.75 -0.85,-0.45 m 0.4,1.65 -0.1,1.15 0.1,0.95 0.6,0.75 2,-0.25 -0.35,0.5 0.05,0.75 0.2,1.25 1.25,1.2 0.3,0.25 L -9,6.3 -7.7,5.95 Q -8.6,5.45 -9.2,3.9 l -0.65,-2.25 -0.05,-1.6 0.25,-0.9 -3.05,-0.45 -0.8,1.1 m 4.55,-0.65 -0.2,1.35 q 0,1.4 0.6,2.75 0.65,1.55 1.85,2.2 l 0.45,-0.3 0.05,-0.1 0.3,-0.3 Q -7,4.1 -7.6,2.2 L -8.1,-0.75 V -0.9 -1 l -0.85,0.15 M -5.2,-1.8 q 1.25,1.05 4.1,1.35 v -0.1 l 0.05,-0.4 Q -3.5,-1 -5,-1.8 l -0.3,-0.15 0.1,0.15 m 4.6,9.25 V 6.3 Q -0.9,5.2 -2.45,5.2 l -1.8,0.5 -0.3,0.5 q -1.15,1.6 -2.9,1.75 h -0.3 l -2.9,-0.4 -2.3,-0.6 q 0.2,-0.2 0.85,-0.3 l 0.5,-0.1 -0.25,-0.4 -0.05,-0.25 -0.4,-1.35 v -0.3 l -1.3,1.8 -0.9,1.55 q -0.55,1.15 -0.55,2 0,1.6 0.8,2.05 1.45,0.9 6.8,0.9 h 0.1 q 4.9,0 6.25,-2.1 0.5,-0.75 0.5,-2.8 V 7.45 M -3.95,3.4 h -0.7 Q -5.25,3.1 -5.8,2.75 L -6.95,1.8 Q -6.3,3.2 -4.9,4.2 L -3,3.75 -3.95,3.4 m -13.6,5.05 V 8.4 l -0.1,0.1 q -0.95,1.1 -0.95,2.15 l 0.3,1.2 q 0.05,-1.1 0.45,-2 0.4,-0.85 0.95,-1.25 l -0.05,-0.05 -0.4,-0.35 0.05,0.3 -0.25,-0.05 m 0.65,14.35 -0.05,-0.1 1.35,-1.2 1.15,-0.95 0.1,-0.05 h -0.1 l -1.85,-0.25 -1.9,-0.4 7.65,-0.85 1.5,-0.15 0.15,-0.05 -2.35,-1.5 -1.9,-1.15 -1.55,-0.2 -1,-0.25 -0.8,-0.25 q -2.9,0.5 -5.15,2.45 -2.2,1.9 -2.2,2.85 0,1.35 0.95,2.65 l 0.55,0.65 q 2.55,2.7 8.4,2.7 l 4.6,-0.75 1.3,-0.45 0.6,-0.15 -0.35,-0.3 -0.2,-1.2 0.3,-1.9 0.1,-0.25 0.45,-0.8 0.1,-0.1 H -7.25 -7.4 L -9.85,20.6 h -0.55 -0.7 q -1.65,0.15 -3.25,1 l -0.05,0.05 -0.15,0.1 -1,0.6 -1.3,0.65 -0.05,-0.2 m 15.05,-8.9 -0.3,0.1 0.3,0.25 V 14.1 13.9 m -2.75,3.65 q 0.25,0.1 0.4,0.5 l -0.1,0.3 -0.3,0.1 h -0.25 l -0.1,-0.35 q 0,-0.45 0.35,-0.55 m -1.9,3.35 -0.5,1.35 -0.4,1.45 0.2,1 0.45,0.45 0.35,-0.1 -0.15,-0.55 -0.05,-1.05 0.25,-1.65 0.3,-0.85 -0.45,-0.05 m 0.65,2.55 q 0,0.85 0.35,1.4 l 3.75,-0.5 h 0.45 l -1.4,-0.8 -2.7,-2.1 -0.45,2 m 4.1,-3.65 0.2,0.3 Q -1.6,20.4 -2,20.55 l -0.3,-0.05 -0.1,-0.4 0.05,-0.3 h 0.6 m -24.05,-0.05 0.05,-0.15 q 0.4,-1.05 1.25,-2 l -0.3,-0.2 q -0.8,-0.55 -1,-0.55 -0.8,0 -1.15,0.45 l -0.2,0.45 0.05,0.65 0.1,0.65 0.25,2.15 -0.05,0.5 -0.95,1.95 q -1.05,1.75 -1.05,3.35 0,0.95 0.6,1.75 l 0.4,-0.9 0.45,-0.75 q 1.25,-1.8 1.9,-3.45 L -25.8,22.75 -26,22 v -0.05 l -0.1,-0.35 v -0.1 l 0.3,-1.75 m 2,6.25 -0.65,-0.75 -0.05,-0.1 -0.85,1.6 q -1.15,2.05 -1.15,3.75 0,0.75 2,2.2 l 2.35,1.3 1.7,0.3 q 0.6,0 1.05,-0.3 -0.65,-0.85 -0.65,-1.6 0,-1.4 1.35,-3.6 l 0.15,-0.2 Q -21.8,28.05 -23.8,26 m -3.35,7.75 q -0.9,-1 -1.2,-2.05 l -0.7,-0.3 -0.1,-0.1 -0.35,-0.3 -0.6,0.3 -0.45,0.2 q -2.15,1.1 -2.55,1.65 l -1.05,1.7 -0.15,0.3 q 1.45,-0.65 4.5,-1 l 0.75,-0.1 1.85,-0.1 0.05,-0.2 m 0.9,1.6 -2.6,-0.15 h -0.2 q -2.2,0.05 -4.15,0.8 l -0.8,0.45 -0.85,0.4 v 0.05 l -0.05,0.1 0.25,0.05 0.95,-0.05 0.85,-0.1 2.15,-0.3 1.65,0.35 0.5,0.25 1.35,0.75 q 0.6,-0.8 1.6,-1.3 0.5,-0.3 1.15,-0.45 l 0.65,-0.2 -0.6,-0.2 h -0.15 q -0.4,-0.35 -1.7,-0.45 m 4.95,1.05 -2.8,1.55 q -1.15,0.6 -1.75,1.1 l -0.55,0.65 -0.05,0.05 -0.65,1.9 2.25,-0.6 q 4.2,-0.7 5.9,-1.6 0.55,-0.25 2.35,-2.55 l -1.45,-0.45 -1,-0.4 -2.1,0.35 h -0.15 m 6.2,1.05 -0.3,0.45 -0.95,1.1 q -1.45,1.7 -2.3,1.95 l -4.9,1.15 -2.7,0.7 1.95,0.2 1.75,0.25 5.75,0.65 q 0.7,0 2.3,-0.8 v -0.8 l -0.3,-1.9 0.1,-0.9 0.1,-0.2 0.05,-0.15 0.15,-0.7 0.5,-0.95 0.3,-0.45 0.1,-0.1 h -0.1 l -0.25,-0.05 -0.25,-0.05 -0.7,-0.15 -0.3,0.75 m 11.55,-10.7 -3.3,0.65 -0.55,0.1 q 0.65,0.9 0.95,1.8 l 2.65,-2.35 0.25,-0.2 m -10.95,8.15 2.4,0.25 2.7,-0.45 0.2,-0.25 q 1.65,-1.8 1.65,-3.8 0,-1.05 -0.85,-2.05 l -0.6,-0.8 -6.55,1 h -0.45 -0.25 -0.4 l -0.9,-0.05 -0.85,2.3 q 0,0.85 0.55,1.65 l 0.8,0.9 q 1,0.85 2.45,1.25 l 0.1,0.05"
         fill="#6b6b6b"
         fill-rule="evenodd"
         stroke="none"
         id="path1" />
      <path
         d="M 1,-41.4 0.55,-42.6 V -43 l -0.1,-0.7 0.3,0.5 0.1,0.35 0.15,1.45 m -5.95,4.75 -0.1,-0.35 0.25,-0.35 h 2.15 0.1 l 2.15,-0.15 0.2,-0.05 v 0.1 l 0.2,-0.2 0.05,0.05 0.15,0.15 v -0.1 l 0.2,0.05 2.45,0.15 h 0.8 1 L 4.7,-37 q 0,0.2 -0.9,0.4 l -1.4,0.2 0.25,0.05 -1.05,0.05 H -1.45 -1.6 l -1.4,-0.05 -1.95,-0.3 m 6.4,2.85 v -0.2 -0.3 l 2,0.05 1.65,-0.05 h 2.4 l 0.1,0.35 -5.7,0.15 H 1.45 m -1.4,-2.55 q 0.5,-0.1 0.55,-0.5 l -0.55,-0.5 -0.35,0.1 -0.15,0.4 0.15,0.4 0.35,0.1 m -4.05,9.25 0.25,-0.5 0.05,-0.05 1.35,-1.65 0.1,-0.15 0.7,-0.65 0.7,-0.65 0.45,-0.45 0.4,-0.5 0.3,0.35 0.3,0.35 0.95,0.9 0.65,0.6 0.05,0.05 0.6,0.6 -0.65,0.1 -0.25,0.4 v 0.15 l -0.75,-0.65 -1,-0.9 0.3,-0.1 0.05,-0.45 -0.1,-0.4 H 0.4 q -0.8,-0.2 -0.8,0.45 l 0.25,0.35 -0.35,0.4 -0.85,1.1 -0.4,-0.3 -0.4,0.35 0.05,0.25 0.3,0.25 -1.3,1.45 -0.3,-0.25 -0.3,0.15 -0.2,-0.4 -0.1,-0.2 m 6.65,-0.6 0.4,-0.1 0.1,-0.55 -0.05,-0.2 0.2,0.25 0.05,0.1 0.4,0.6 0.35,0.75 -0.25,-0.1 -0.2,-0.1 -1,-0.65 m 1.35,-1.8 -0.3,-0.4 0.95,-0.25 1.7,0.1 0.1,0.15 v 0.5 l -0.05,0.3 -0.2,0.15 q -0.3,0.3 -0.3,1.45 l 0.05,0.65 Q 5.45,-27.2 5.55,-27.8 L 5.75,-28.75 5.6,-29.25 4,-29.5 m -3.3,1.4 0.2,0.2 0.1,0.3 -0.3,-0.5 m 0.4,0.7 0.1,0.25 v 0.1 L 1.1,-27.4 m -1.15,-0.2 0.7,0.9 0.05,0.1 v 0.65 l -0.45,0.25 h -0.3 l -0.6,-0.1 H -0.7 l 0.05,-0.15 0.1,-0.5 0.35,-0.85 0.05,-0.1 0.1,-0.2 m 7.7,-0.1 1.3,0.2 1.7,0.05 0.35,0.85 -0.1,0.05 -1.85,0.15 -1.9,-0.15 -0.35,-0.25 v -0.05 -0.35 q 0.25,-0.35 0.85,-0.5 m -1.35,2.3 -0.55,0.1 v -0.15 l 0.55,0.05 m 3.9,1.35 0.4,0.4 -0.6,0.55 H 8.3 l -2.65,-0.1 0.15,-0.9 0.6,0.05 h 3.8 m 1.1,3.7 h 0.05 l 0.25,-0.1 1.05,1.3 0.9,1.3 h -1.2 l -0.85,-1.8 -0.2,-0.65 v -0.05 m 1.45,3.5 -0.05,-0.1 1.3,-0.1 0.15,0.2 0.35,0.75 h -1.4 l -0.35,-0.75 m 0.8,1.7 h 1.2 l 0.05,0.5 -0.1,0.7 -0.25,-0.05 h -0.1 -0.25 l -0.55,-1.15 M -0.5,-43.2 v 0.3 l -0.2,2.15 v 0.05 0.15 l -0.1,0.2 -1.05,2.2 -0.45,-0.05 -0.15,-0.05 v -0.05 l 0.25,-0.15 q 1,-0.75 1.2,-2.4 V -41 l 0.1,-1.3 0.25,-0.5 0.15,-0.4 m -10.5,16.7 0.35,-0.95 2.35,-0.15 1.25,-0.25 h 0.1 q 0.15,0.2 0.15,0.85 l -0.9,0.3 -2.55,0.4 h -0.3 L -11,-26.5 m 3.45,-7.5 0.05,-0.3 h 2.4 3.7 l -0.05,0.25 0.05,0.15 -6.15,-0.1 m 1.15,4.6 0.2,-0.55 0.25,-0.1 1.3,-0.1 0.95,0.25 -0.2,0.3 h -0.45 q -0.8,0 -0.95,0.95 v 0.7 q -0.05,0.5 -0.6,0.8 v -0.35 q 0,-1.15 -0.3,-1.45 l -0.2,-0.15 v -0.05 -0.25 m 0.7,5.85 q -1.3,0.6 -4.25,0.6 h -0.65 l -0.4,-1.1 h 4.6 l 0.6,-0.05 0.1,0.55 m -5.7,3.2 h 0.1 l 0.2,0.05 -0.05,0.15 -1.05,1.95 v 0.05 l -0.25,0.3 h -1.1 l 0.9,-1.3 0.4,-0.45 0.7,-0.65 0.15,-0.1 m -2.1,4.25 h -1 l 0.5,-0.95 1,0.05 -0.5,0.9 m -0.45,0.95 -0.4,1.15 -0.35,0.05 -0.1,-0.7 0.05,-0.5 h 0.8"
         fill="#ffffff"
         fill-rule="evenodd"
         stroke="none"
         id="path2" />
      <path
         d="M 0.55,-42.6 1,-41.4 v 0.4 l 0.05,0.5 q 0.3,1.6 1.5,2.25 L 0.2,-38 q 0.5,-0.85 0.5,-2.45 v -0.3 L 0.55,-42.6 m 4.1,5.25 H 4.8 L 5.05,-37 q 0,0.35 -0.4,0.75 L 4,-35.65 H 3.75 2.7 2.05 L 1.6,-35.6 0.65,-35.3 0,-35.4 l -0.65,0.1 -0.8,-0.25 -0.3,-0.05 -0.3,-0.05 H -3.15 -4 l -0.65,-0.6 -0.3,-0.4 1.95,0.3 1.4,0.05 h 0.15 3.05 l 1.05,-0.05 -0.25,-0.05 1.4,-0.2 q 0.9,-0.2 0.9,-0.4 l -0.05,-0.35 m -3.2,3.55 H 1.9 l 5.7,-0.15 0.15,0.65 -2.55,-0.25 -3.75,-0.05 v -0.2 m 4,2.55 v 0.05 L 4.9,-31.15 4.3,-31 3.1,-30.6 2.65,-31.15 2.5,-31.3 l -1.7,-1.4 0.1,-0.1 0.4,0.25 h 5 q -0.85,0.6 -0.85,1.3 m -3.5,3.05 0.1,0.45 0.6,0.05 1,0.65 0.2,0.1 0.25,0.1 0.15,1.05 -0.05,0.45 -0.35,0.6 H 3.8 l -0.7,0.85 -0.1,0.15 -0.4,0.45 -0.3,0.3 -0.15,0.2 -0.25,0.3 -0.25,0.35 q -0.35,0.2 -0.35,0.55 l 0.2,0.7 q -0.2,0.1 0.05,0.1 l 0.05,0.05 0.05,0.1 0.05,0.05 -0.1,0.2 -0.65,0.45 -0.7,0.15 -0.2,0.05 -0.3,-0.05 q -0.8,-0.15 -1.15,-0.45 l -0.3,-0.35 0.15,-0.2 q 0.25,0 0.05,-0.1 l 0.2,-0.7 q 0,-0.35 -0.35,-0.55 L -3.1,-23.9 q -1.15,-1.2 -1.15,-1.9 l 0.25,-1.3 0.1,0.2 0.2,0.4 -0.15,0.2 0.05,0.25 q 0.1,0.15 0.4,0.25 l 0.25,-0.1 0.15,-0.4 -0.1,-0.1 1.3,-1.45 h 0.05 l 0.3,-0.1 0.15,-0.4 -0.05,-0.05 0.85,-1.1 0.35,-0.4 0.2,0.2 0.15,-0.05 1,0.9 0.75,0.65 m 2.05,-1.3 1.6,0.25 0.15,0.5 -0.2,0.95 q -0.1,0.6 0.4,0.95 0.05,0.9 0.35,1.45 l -0.55,-0.05 q -0.2,-1.75 -0.9,-2.8 L 4.35,-28.85 4,-29.5 m -3.3,0.95 -0.1,0.1 0.2,0.15 -0.1,-0.25 M 1,-27.6 0.9,-27.9 0.7,-28.1 0.45,-28.25 h -0.1 l -0.3,-0.05 -0.2,0.05 -0.15,0.05 -0.5,0.35 -0.4,1.35 -0.1,1.1 v 1.05 q 0.2,0.8 0.85,1.1 l 0.4,0.15 h 0.4 q 0.7,0 0.95,-0.8 L 1.35,-24.25 1.4,-24.6 V -25 l -0.2,-2.05 v -0.1 L 1.1,-27.4 1.05,-27.5 1,-27.6 m -1.05,0 -0.1,0.2 0.05,-0.25 0.05,0.05 m 3.15,0.65 -0.4,0.1 -0.05,0.2 -0.05,0.2 0.1,0.4 V -26 l 0.4,0.1 0.5,-0.5 -0.5,-0.55 m 3.7,-0.25 0.15,-0.65 0.05,-0.05 0.65,0.2 q -0.6,0.15 -0.85,0.5 m 4.2,0.6 v 0.1 l 0.2,1.05 H 7.85 q -1,-1 -1.05,-1.35 l 0.35,0.25 1.9,0.15 1.85,-0.15 0.1,-0.05 m -5.35,3.4 2.65,0.1 H 10 l 0.6,-0.55 -0.4,-0.4 H 11 l -0.55,1.35 -0.3,0.5 -3.4,-0.05 -1.2,0.1 -0.35,-0.05 0.45,-1 m 5.65,2.9 0.2,0.65 -0.3,-0.45 0.1,-0.2 m 1.8,4.2 h -0.2 l -0.15,-0.75 0.35,0.75 m 1,2.1 q -0.95,0.05 -0.95,1.2 0,0.3 0.3,0.7 l 0.5,0.4 q -0.35,0.5 -0.8,0.5 l -0.55,-0.1 q 0.55,-1.4 0.55,-2.75 l -0.1,-1.1 h 0.5 L 14.1,-14 M 1.5,-12.15 1.85,-12.6 1.25,-13 H -0.8 q -0.3,-0.05 -0.5,0.25 l -0.1,0.35 0.45,0.65 0.05,0.05 -0.85,-0.1 -0.7,0.1 v -0.15 q -1,0.3 -1,1.5 0,0.5 0.5,0.9 l 0.35,0.2 1.6,0.4 h 0.55 0.05 l 0.6,-0.2 0.65,0.2 q 1.75,0 2.5,-0.6 0.5,-0.4 0.5,-0.9 v -0.05 q -0.05,-1.15 -1,-1.45 l 0.05,0.3 -0.5,-0.3 -0.5,-0.2 -0.4,-0.1 M 1,-16.5 q 0,-1 -0.9,-0.95 -0.95,0.05 -0.95,0.9 l 0.1,0.5 q 0.2,0.5 0.8,0.5 0.5,0 0.75,-0.4 L 1,-16.5 m -0.5,-4.45 0.1,-0.4 -0.75,-0.6 L -0.2,-22 h -0.05 l -0.2,0.05 -0.25,0.6 v 0.05 l 0.25,0.3 0.4,0.3 0.55,-0.25 m 9.7,4.25 0.25,2.65 q 0,1.8 -2.05,3.95 Q 5.45,-7 0.2,-7 H -0.15 -0.2 q -5.25,0 -8.2,-3.1 -2.05,-2.15 -2.05,-3.95 l 0.25,-2.65 q 1.85,0 2.65,-1.75 0.35,-0.75 0.45,-1.65 l 0.25,-0.2 h 0.3 l 3.5,-0.05 0.15,0.95 q 0.55,1.2 2.25,1.2 h 0.6 0.7 q 1.7,0 2.25,-1.2 l 0.15,-0.95 3.5,0.05 h 0.3 l 0.25,0.2 q 0.1,0.9 0.45,1.65 0.8,1.75 2.65,1.75 m -10.65,5.4 0.6,0.2 0.5,-0.2 v 0.15 l 0.1,0.4 0.45,0.3 0.75,0.1 q 0.95,0 1.15,-0.35 v 0.05 q 0,0.95 -2,0.95 -0.25,0 -0.4,-0.2 L 0.55,-10.15 0.3,-10.5 v -0.05 h 0.3 l -0.1,-0.05 -0.2,0.05 v -0.05 l -0.1,0.05 -0.1,-0.05 v 0.1 l -0.25,0.35 Q -0.3,-9.7 -0.7,-9.7 l -1.45,-0.2 h 0.35 q 0.7,0 1.1,-0.3 0.35,-0.25 0.35,-0.65 l -0.1,-0.45 m 6.1,-3.05 q -0.9,0.1 -1.2,0.5 -0.15,0.25 -0.15,1.05 l 0.1,0.65 q 0.35,0.6 1.65,0.6 2.4,0 2.4,-1.4 l -0.4,-0.8 -0.75,-0.4 0.6,-0.55 0.2,-0.75 q 0,-1.4 -1.5,-1.4 -1.5,0 -1.5,1.4 0,0.45 0.3,0.85 l 0.25,0.25 m -4.6,13.4 Q 3.5,-1 5,-1.8 L 5.3,-1.95 5.2,-1.8 q -1.25,1.05 -4.1,1.35 v -0.1 l -0.05,-0.4 m 5.3,-1 V -2 l 0.4,0.35 0.05,0.7 q 0,1.4 -1.7,2.4 -1.7,1 -4.1,1 -0.75,0 -1,0.5 -0.25,-0.5 -1,-0.5 -2.4,0 -4.1,-1 -1.7,-1 -1.7,-2.4 l 0.05,-0.7 0.4,-0.35 v 0.05 l -0.05,0.4 q 0,1 1.65,2.35 1.95,1.55 4.35,1.55 h 0.2 0.6 Q 2.8,2.35 4.75,0.8 6.4,-0.55 6.4,-1.55 L 6.35,-1.95 M 8.1,-1 8.95,-0.85 9.15,0.5 q 0,1.4 -0.6,2.75 Q 7.9,4.8 6.7,5.45 L 6.25,5.15 6.2,5.05 5.9,4.75 Q 7,4.1 7.6,2.2 L 8.1,-0.75 V -0.9 -1 m 2.7,-7.35 1.35,1.55 1.65,1.7 v 0.15 L 13.1,-5.7 q -1.45,-1 -2.6,-2.3 l 0.3,-0.35 m 15.25,3.5 -0.05,1.1 Q 26,0 25.5,1.7 24.1,6.45 19.35,6.45 l -2.6,-1 -1.1,-0.4 q 1.25,-0.6 2.1,-2.2 l 0.35,-0.7 1.1,0.3 q 4.2,0 6,-4.35 0.6,-1.45 0.85,-2.95 M 14,6.65 q 1.05,1.75 1.05,2.95 0,1.6 -0.8,2.05 -1.45,0.9 -6.8,0.9 h -0.1 q -4.9,0 -6.25,-2.1 Q 0.6,9.7 0.6,7.65 V 6.3 L 0.7,6.05 q 0.1,1.1 1.8,2.45 2.45,1.9 6.55,1.9 3.4,0 4.5,-2 L 14,6.65 M 18.05,9 q 0.55,0.85 0.55,1.65 0,1.15 -1.1,2.4 l -0.15,0.2 1,-1.5 L 18.05,9 m -17.4,4.45 -0.85,0.3 -0.75,-0.1 V 13.6 L 0,13.05 0.65,13.45 M 1.3,24.35 2.7,23.55 5,21.8 5.75,21.2 6,20.95 6.4,20.9 h 0.05 v 0.05 L 6.4,21.2 v 1.6 q 0,0.75 -0.7,1.85 L 5.6,24.8 v 0.05 L 4,24.55 1.75,24.35 H 1.3 m 5.75,-3.5 0.9,-0.05 0.15,2.1 q -0.15,1.05 -0.75,1.95 l -0.3,0.4 -0.3,-0.1 L 6.65,25.1 6.7,24.95 Q 7.15,24 7.15,22.6 L 7.1,21.45 7.05,20.85 m 17,15.2 L 23.8,36 24.4,35.8 h 0.15 q 0.6,-0.5 3.2,-0.55 L 27.2,35.4 q -1.95,0.1 -3.15,0.65 M -0.5,-43.2 l -0.15,0.4 -0.25,0.5 0.05,-0.3 0.1,-0.6 0.3,-0.5 -0.05,0.5 m -1.35,5.05 1.05,-2.2 0.1,-0.2 q 0,1.65 0.5,2.55 l -1.65,-0.15 m -5.2,10.3 0.05,-0.05 0.05,0.05 h -0.1 M -6.8,-27 v 0.15 q 0,0.35 -1.05,1.4 h -3.2 l 0.05,-0.15 0.45,-0.7 h 0.3 l 2.55,-0.4 0.9,-0.3 m -0.75,-7 6.15,0.1 v 0.15 l 0.05,0.15 -3.85,0.05 h -0.15 l -1.15,0.1 -1.25,0.15 0.2,-0.7 m 3.5,3.05 -0.85,-0.2 -0.55,-0.05 v -0.05 q 0,-0.5 -0.45,-0.95 l -0.4,-0.35 h 5 l 0.4,-0.25 0.15,0.05 -1.75,1.45 -0.15,0.2 -0.45,0.5 -0.95,-0.35 m -1.85,3.8 q 0.55,-0.3 0.6,-0.8 v -0.7 q 0.15,-0.95 0.95,-0.95 h 0.45 l -0.45,0.75 -0.5,0.6 q -0.75,1.1 -0.9,2.95 l -0.55,-0.1 q 0.35,-0.65 0.4,-1.75 m -20.05,25.45 0.25,0.55 q 1.8,3.65 5.6,3.65 l 2.05,-0.3 0.3,0.65 q 0.85,1.6 2.1,2.2 l -1.1,0.4 -2.6,1 q -4.75,0 -6.15,-4.75 l -0.45,-3.4 m 15.35,-21.25 h 0.65 q 2.95,0 4.25,-0.6 l 0.5,1.35 -0.35,0.05 -1.2,-0.1 -3.4,0.05 -0.3,-0.5 -0.15,-0.25 m 4.9,8.65 0.3,-0.3 q 0.3,-0.4 0.3,-0.85 0,-1.4 -1.5,-1.4 -1.5,0 -1.5,1.4 l 0.2,0.75 0.4,0.45 q -0.55,0.15 -0.55,0.6 0,1.55 2,1.55 1.6,0 1.6,-1.65 0,-0.4 -1.25,-0.55 m -5.85,-5.95 -0.7,0.65 0.4,-0.5 0.3,-0.15 m -0.9,2.4 0.25,-0.3 -0.15,0.3 h -0.1 m -1.05,1.75 0.5,-0.9 0.3,0.05 -0.2,0.85 h -0.6 m -0.85,2.1 0.4,-1.15 h 0.9 l -0.1,1.1 q 0,1.35 0.55,2.75 l -0.55,0.1 q -0.45,0 -0.8,-0.5 l 0.5,-0.4 q 0.3,-0.4 0.3,-0.7 0,-1.3 -1.2,-1.2 m 4.3,6.6 -0.2,-0.05 -2.15,1.55 -1.3,1.4 -0.05,-0.05 -0.05,-0.55 1.65,-1.7 1.35,-1.55 0.8,0.85 -0.05,0.1 m 4.85,5.6 -0.1,-0.15 0.3,0.15 q 1.5,0.8 3.95,0.85 l -0.05,0.4 v 0.1 Q -3.95,-0.75 -5.2,-1.8 M -8.95,-0.85 -8.1,-1 v 0.1 0.15 l 0.5,2.95 q 0.6,1.9 1.7,2.55 l -0.3,0.3 -0.05,0.1 -0.45,0.3 Q -7.9,4.8 -8.55,3.25 -9.15,1.9 -9.15,0.5 l 0.2,-1.35 m -5.55,8.45 0.65,1.25 q 1.3,1.35 4.75,1.35 3.8,0 6.35,-1.15 1.65,-0.75 2.15,-1.6 v 0.2 q 0,2.05 -0.5,2.8 -1.35,2.1 -6.25,2.1 h -0.1 q -5.35,0 -6.8,-0.9 -0.8,-0.45 -0.8,-2.05 0,-0.85 0.55,-2 m -3.05,0.85 0.25,0.05 -0.05,-0.3 0.4,0.35 0.05,0.05 q -0.55,0.4 -0.95,1.25 -0.4,0.9 -0.45,2 l -0.3,-1.2 q 0,-1.05 0.95,-2.15 l 0.1,-0.1 v 0.05 m 3.15,13.2 0.05,-0.05 q 1.6,-0.85 3.25,-1 h 0.7 l -1.5,0.3 -2.1,0.6 -0.4,0.15 m 7.15,-0.8 h 0.2 l -0.1,0.1 -0.1,-0.1 m 5.4,-6.95 v 0.2 0.15 l -0.3,-0.25 0.3,-0.1 m -4.65,7 0.45,0.05 -0.3,0.85 -0.25,1.65 0.05,1.05 0.15,0.55 -0.35,0.1 -0.45,-0.45 -0.2,-1 0.4,-1.45 0.5,-1.35 m 0.65,2.55 0.45,-2 2.7,2.1 1.4,0.8 h -0.45 l -3.75,0.5 q -0.35,-0.55 -0.35,-1.4 m -21.15,-4.4 -0.1,-0.65 -0.05,-0.65 0.2,-0.45 q 0.35,-0.45 1.15,-0.45 0.2,0 1,0.55 l 0.3,0.2 q -0.85,0.95 -1.25,2 l -0.05,0.15 q -0.05,-1.4 -0.25,-2.15 l -0.2,-0.45 q -0.3,-0.65 -0.6,0.95 L -27,19.05 m -7,17.4 -0.05,0.15 0.35,0.4 -0.95,0.05 -0.25,-0.05 0.05,-0.1 v -0.05 l 0.85,-0.4 m 9.55,-0.25 -0.15,-0.4 -1.65,-0.45 q 1.3,0.1 1.7,0.45 h 0.15 l 0.6,0.2 -0.65,0.2 m 10.85,0.85 v -0.1 h 0.1 l -0.1,0.1 m -0.5,-0.2 q -0.5,0.15 -1,0.6 l 0.3,-0.75 0.7,0.15"
         fill="#cccccc"
         fill-rule="evenodd"
         stroke="none"
         id="path3" />
      <path
         d="m -0.7,-25.8 h 0.05 l 0.6,0.1 h 0.3 l 0.45,-0.25 v 0.35 0.05 l -0.4,1.7 -0.2,-0.1 -0.65,-0.55 -0.1,-0.2 -0.05,-0.85 v -0.25"
         fill="#999999"
         fill-rule="evenodd"
         stroke="none"
         id="path4" />
      <path
         d="m 1.5,-12.15 0.4,0.1 0.5,0.2 0.5,0.3 0.05,0.25 0.1,0.35 0.05,0.25 q -0.2,0.35 -1.15,0.35 l -0.75,-0.1 -0.45,-0.3 -0.1,-0.4 v -0.15 l 0.25,-0.2 0.6,-0.65 m -3.95,0.45 0.7,-0.1 0.85,0.1 0.15,0.15 0.2,0.2 0.1,0.05 0.1,0.45 q 0,0.4 -0.35,0.65 -0.4,0.3 -1.1,0.3 H -2.15 L -2.2,-9.95 q -0.5,-0.25 -0.5,-0.7 l 0.05,-0.25 0.1,-0.4 0.1,-0.4 m 9.75,-2.45 0.75,0.4 0.4,0.8 q 0,1.4 -2.4,1.4 -1.3,0 -1.65,-0.6 L 4.3,-12.8 q 0,-0.8 0.15,-1.05 0.3,-0.4 1.2,-0.5 0.35,0.3 0.95,0.3 l 0.7,-0.1 m 10.8,16.3 0.1,-0.2 0.6,-0.65 0.05,-0.9 v -0.5 q 1.55,-0.3 1.55,-5 l 0.05,-1.25 0.25,0.1 0.4,0.05 q 0.6,0 0.75,-0.5 l 0.05,-0.35 q 0,-0.85 -0.9,-0.7 l -0.4,0.1 q 0.5,-2.5 2.25,-2.5 1,0 1.7,0.6 L 24.2,-9.6 q -0.85,0 -0.85,0.85 0,0.4 0.35,0.65 0.25,0.2 0.5,0.2 0.6,0 0.8,-0.5 l 0.05,-0.35 -0.05,-0.3 0.4,0.65 q -0.4,0.15 -0.4,0.75 0,0.9 0.85,0.9 l 0.2,1.9 q -0.25,1.5 -0.85,2.95 -1.8,4.35 -6,4.35 L 18.1,2.15 M 21.75,-9.3 q -0.5,0.1 -0.5,0.75 0,0.35 0.25,0.65 0.25,0.3 0.65,0.3 h 0.05 q 0.6,0 0.8,-0.45 l 0.05,-0.45 q 0,-0.8 -0.85,-0.85 h -0.05 l -0.4,0.05 m 2,5.3 q 1,0 1.35,-0.65 l 0.15,-0.75 q 0,-1.4 -1.5,-1.4 -1.5,0 -1.5,1.4 0,1.4 1.5,1.4 M 0.7,6.05 Q 1.1,5.2 2.45,5.2 l 1.8,0.5 0.3,0.5 q 1.15,1.6 2.9,1.75 h 0.3 l 2.9,-0.4 2.3,-0.6 Q 12.7,6.7 11.6,6.55 l 0.25,-0.4 0.45,-1.6 v -0.3 l 1.3,1.8 0.4,0.6 -0.45,1.75 q -1.1,2 -4.5,2 Q 4.95,10.4 2.5,8.5 0.8,7.15 0.7,6.05 M -25.95,-1.7 -26,-3.75 l 0.15,-3 q 0.85,0 0.85,-0.9 0,-0.6 -0.4,-0.75 l 0.4,-0.65 -0.05,0.3 0.05,0.35 q 0.2,0.5 0.8,0.5 0.25,0 0.5,-0.2 0.35,-0.25 0.35,-0.65 0,-0.85 -0.85,-0.85 l -0.35,0.05 q 0.7,-0.6 1.7,-0.6 1.75,0 2.25,2.5 l -0.4,-0.1 q -0.9,-0.15 -0.9,0.7 l 0.05,0.35 q 0.15,0.5 0.75,0.5 l 0.65,-0.15 0.05,1.25 q 0,4.7 1.55,5 v 0.5 l 0.05,0.9 0.6,0.65 0.15,0.25 -2.05,0.3 q -3.8,0 -5.6,-3.65 l -0.25,-0.55 m 2.2,-2.3 q 1.5,0 1.5,-1.4 0,-1.4 -1.5,-1.4 -1.5,0 -1.5,1.4 l 0.15,0.75 q 0.35,0.65 1.35,0.65 m 0.7,-4.5 0.05,0.45 q 0.2,0.45 0.85,0.45 0.4,0 0.65,-0.3 0.25,-0.3 0.25,-0.65 0,-0.9 -0.9,-0.8 -0.9,0.05 -0.9,0.85 m 17.35,-5.8 q 1.25,0.15 1.25,0.55 0,1.65 -1.6,1.65 -2,0 -2,-1.55 0,-0.45 0.55,-0.6 l 0.9,0.2 0.9,-0.25 m -6.4,20.95 q -0.65,0.1 -0.85,0.3 l 2.3,0.6 2.9,0.4 h 0.3 Q -5.7,7.8 -4.55,6.2 l 0.3,-0.5 1.8,-0.5 q 1.55,0 1.85,1.1 v 1.15 q -0.5,0.85 -2.15,1.6 -2.55,1.15 -6.35,1.15 -3.45,0 -4.75,-1.35 l -0.65,-1.25 0.9,-1.55 1.3,-1.8 v 0.3 l 0.4,1.35 -0.2,0.7 v 0.05"
         fill="#e0e0e0"
         fill-rule="evenodd"
         stroke="none"
         id="path5" />
      <path
         d="M 1,-1.8 0.55,-1.5 0,-1.55 -0.55,-1.5 -1,-1.8 q -2.85,0.3 -4.6,-1.3 0.45,-0.8 0.45,-1.45 V -4.8 l 4.9,0.6 h 0.1 0.4 l 4.9,-0.6 v 0.25 q 0,0.65 0.45,1.45 -1.75,1.6 -4.6,1.3 m 8.05,16.5 3.1,-0.25 q -1.05,0.6 -2.5,0.95 -1.7,1 -3.7,2.8 L 5.25,18.85 5.15,19 4.8,19.35 2.3,21.75 Q 1.25,22.55 0.05,23 -1.2,22.55 -2.3,21.75 l -2.15,-2.05 -0.8,-0.85 q -2.4,-2.25 -4.4,-3.45 -1.45,-0.35 -2.5,-0.95 l 3.1,0.25 q 1.3,0.25 1.95,0.7 0.75,0.45 1.55,1.45 l 2.2,1.5 1.55,0.8 1.6,0.4 H 0 0.2 l 1.6,-0.4 1.55,-0.8 2.2,-1.5 q 0.8,-1 1.55,-1.45 0.65,-0.45 1.95,-0.7 M 4.1,18.05 4,18.4 4.4,18.85 4.7,18.75 4.8,18.4 4.4,18 4.1,18.05 m -2.3,1.8 -0.1,0.4 0.1,0.4 0.3,0.1 0.45,-0.25 q 0,-0.65 -0.45,-0.75 l -0.3,0.1 M 0.55,21 0.05,20.6 q -0.45,0.15 -0.45,0.55 l 0.45,0.4 Q 0.55,21.35 0.55,21 M 7.4,27.5 Q 6.75,28.4 6.45,29.3 L 3.8,26.95 3.55,26.75 6.85,27.4 7.4,27.5 m -12,-9.95 q -0.35,0.1 -0.35,0.55 l 0.1,0.35 h 0.25 l 0.3,-0.1 0.1,-0.3 q -0.15,-0.4 -0.4,-0.5 m 2.85,2.25 h -0.6 l -0.05,0.3 0.1,0.4 0.3,0.05 q 0.4,-0.15 0.45,-0.45 l -0.2,-0.3 m -1.8,6.95 -0.25,0.2 -2.65,2.35 q -0.3,-0.9 -0.95,-1.8 l 0.55,-0.1 3.3,-0.65"
         fill="#b8b8b8"
         fill-rule="evenodd"
         stroke="none"
         id="path6" />
      <path
         d="m 16.9,22.85 h 0.05 L 16.9,22.9 v -0.05"
         fill="#afafaf"
         fill-rule="evenodd"
         stroke="none"
         id="path7" />
      <path
         d="m 18.05,36.45 1,-0.4 2.1,0.35 h 0.15 l 2.8,1.55 q 1.15,0.6 1.75,1.1 l 0.55,0.65 0.05,0.05 0.65,1.9 -2.25,-0.6 q -4.2,-0.7 -5.9,-1.6 Q 18.4,39.2 16.6,36.9 l 1.45,-0.45 M 0.2,37.35 H 4.1 Q 5,37.5 5.1,36.8 l 0.55,-0.25 q 0.7,-0.15 1.2,-0.7 L 7,35.65 7.35,35.25 H 7.4 l 0.55,0.25 q 0.85,1.1 1.95,1.25 l 0.65,0.15 0.9,0.75 0.9,0.95 q 0.8,1 0.8,1.9 L 12.7,43.75 9.8,43 Q 5.1,42.1 3.25,41.1 1.75,40.3 0.6,38.5 L 0.2,37.9 v -0.55 m -0.4,0 v 0.55 l -0.4,0.6 q -1.15,1.8 -2.65,2.6 -1.85,1 -6.55,1.9 l -2.9,0.75 -0.45,-3.25 q 0,-1.3 1.7,-2.85 l 0.9,-0.75 0.65,-0.15 q 1.1,-0.15 1.95,-1.25 l 0.55,-0.25 h 0.05 l 0.5,0.6 q 0.5,0.55 1.2,0.7 l 0.55,0.25 q 0.1,0.7 1,0.55 h 3.9 m 34.5,-2.2 -1,-0.35 -3.5,-0.65 -2.6,-0.2 v -0.1 l -0.05,-0.1 q 0.9,-1 1.2,-2.05 l 1.15,-0.7 1.05,0.5 q 2.15,1.1 2.55,1.65 l 1.05,1.7 0.15,0.3 m -61.45,-1.4 -0.05,0.2 -1.85,0.1 -0.75,0.1 q -3.05,0.35 -4.5,1 l 0.15,-0.3 1.05,-1.7 q 0.4,-0.55 2.55,-1.65 l 0.45,-0.2 0.6,-0.3 0.35,0.3 0.1,0.1 0.7,0.3 q 0.3,1.05 1.2,2.05 m 5.85,2.65 h 0.15 l 2.1,-0.35 1,0.4 1.45,0.45 q -1.8,2.3 -2.35,2.55 -1.7,0.9 -5.9,1.6 l -2.25,0.6 0.65,-1.9 0.05,-0.05 0.55,-0.65 q 0.6,-0.5 1.75,-1.1 l 2.8,-1.55"
         fill="#b9a7a7"
         fill-rule="evenodd"
         stroke="none"
         id="path8" />
      <path
         d="m 26.55,17 0.4,0.3 0.2,0.45 -0.4,3.45 q 0,0.65 1,2.45 1.05,1.75 1.05,3.35 l -0.3,1.25 -1.7,-4.75 q -0.75,-2.1 -0.75,-4.45 0,-0.85 0.4,-1.9 L 26.55,17 m -2.4,8.65 0.3,-0.4 0.05,-0.1 0.85,1.6 q 1.15,2.05 1.15,3.75 0,0.75 -2,2.2 -1.55,1.15 -2.95,1.5 v -0.15 q 0,-0.2 1.75,-1.9 1.7,-1.7 1.7,-2.25 l -0.35,-2.25 -0.5,-2 m -8,3.15 1.4,-0.05 0.85,2.3 q 0,1.35 -1.35,2.55 -1.1,1 -2.8,1.35 L 16,33.5 q 1.15,-0.85 1.15,-2.25 0,-0.85 -0.6,-1.75 l -0.4,-0.7 m -2.45,8.15 0.95,-0.2 0.25,0.2 q 0.25,0.7 1.45,2.05 1.45,1.7 2.3,1.95 l 4.9,1.15 2.7,0.7 -1.95,0.2 -0.8,0.1 Q 19.15,42.8 16.2,40.5 L 14.55,38.95 Q 14.4,38 13.7,37.2 V 37.1 36.95 M -1.5,35.7 -2.3,34.75 -3.05,33.3 v -3.2 q 0.35,-1.65 2.4,-2.5 3.7,-1.6 3.7,4.4 0,1.75 -0.5,2.7 l -0.9,1 H -1.5 M 1.95,43.6 1.2,42.75 0,40.85 l -1.4,1.5 q -1.4,1.3 -2.8,1.85 h -0.1 l -1.85,0.05 q 2.45,-0.9 4.35,-2.55 l 1.45,-1.45 0.35,-0.4 0.35,0.4 1.45,1.45 q 1.9,1.65 4.35,2.55 L 4.3,44.2 1.95,43.6 M 34.5,37.05 33.75,37 33.2,36.9 30.7,36.6 q -0.75,0 -1.6,0.35 L 25.45,36.55 25.3,36.5 q -0.6,-0.3 -1.25,-0.45 1.2,-0.55 3.15,-0.65 l 0.55,-0.15 1.1,-0.05 3.45,0.5 0.9,0.3 0.15,0.1 0.15,0.05 0.5,0.25 0.25,0.2 0.25,0.45 m -61.5,-18 0.15,-0.95 q 0.3,-1.6 0.6,-0.95 l 0.2,0.45 q 0.2,0.75 0.25,2.15 l -0.3,1.75 v 0.1 l 0.1,0.35 V 22 l -0.9,2.1 q -1.15,2.05 -1.15,2.9 l 0.25,0.85 -0.4,0.9 q -0.6,-0.8 -0.6,-1.75 0,-1.6 1.05,-3.35 l 0.95,-1.95 0.05,-0.5 -0.25,-2.15 m 3.2,6.95 -0.7,1.75 q -0.75,1.5 -0.75,2.2 0,0.85 1.35,2.25 l 1.75,1.8 -2.35,-1.3 q -2,-1.45 -2,-2.2 0,-1.7 1.15,-3.75 l 0.85,-1.6 0.05,0.1 0.65,0.75 M -34,36.45 -33.2,36 q 1.95,-0.75 4.15,-0.8 h 0.2 l 2.6,0.15 1.65,0.45 0.15,0.4 q -0.65,0.15 -1.15,0.45 h -0.45 l -2.7,-0.4 -3.4,0.3 -0.7,0.35 -0.85,0.1 -0.35,-0.4 0.05,-0.15 m 11.45,6.8 -1.75,-0.25 -1.95,-0.2 2.7,-0.7 4.9,-1.15 q 0.85,-0.25 2.3,-1.95 l 0.95,-1.1 0.3,-0.45 q 0.5,-0.45 1,-0.6 l 0.25,0.05 0.25,0.05 v 0.1 l -0.3,0.45 -0.5,0.95 -0.15,0.7 -0.05,0.15 -0.1,0.2 -1.65,1.45 q -2.5,1.75 -6.2,2.3 m 7,-14.45 -1.15,2 q 0,0.8 0.55,2 0.75,1.5 1.75,1.7 l 0.05,0.15 -0.15,0.25 -0.1,-0.05 q -1.45,-0.4 -2.45,-1.25 l -0.8,-0.9 q -0.55,-0.8 -0.55,-1.65 l 0.85,-2.3 0.9,0.05 h 0.4 0.25 0.45"
         fill="#e9d4d4"
         fill-rule="evenodd"
         stroke="none"
         id="path9" />
      <path
         d="m 28.5,28.25 -0.3,0.5 -0.85,-1.65 q -1.25,-1.8 -1.9,-3.45 l 0.35,-0.9 0.3,-1.25 q 0,-2.15 -1.6,-3.9 l 0.3,-0.2 q 0.8,-0.55 1,-0.55 l 0.75,0.15 -0.1,0.15 q -0.4,1.05 -0.4,1.9 0,2.35 0.75,4.45 l 1.7,4.75 m -6.95,5.95 -1.1,0.1 q -0.6,0 -1.05,-0.3 0.65,-0.85 0.65,-1.6 0,-1.4 -1.35,-3.6 l -0.15,-0.2 q 3.5,-0.6 5.6,-2.95 l 0.5,2 0.35,2.25 q 0,0.55 -1.7,2.25 -1.75,1.7 -1.75,1.9 v 0.15 m -7.3,0.75 -2.15,0.2 L 9.4,34.7 9.2,34.45 q -1.65,-1.8 -1.65,-3.8 0,-1.05 0.85,-2.05 l 0.6,-0.8 7,1 h 0.15 l 0.4,0.7 q 0.6,0.9 0.6,1.75 0,1.4 -1.15,2.25 l -1.75,1.45 m 0.3,4 1.65,1.55 q 2.95,2.3 7.3,2.6 l -6.7,0.8 q -0.7,0 -2.3,-0.8 v -0.8 l 0.3,-1.9 q 0.05,-0.6 -0.25,-1.25 v -0.2 m -12.9,-3.25 0.9,-1 q 0.5,-0.95 0.5,-2.7 0,-6 -3.7,-4.4 -2.05,0.85 -2.4,2.5 v 3.2 l 0.75,1.45 0.8,0.95 H -3.65 L -4.6,34.75 -5,33.15 -5.1,32.6 -4.95,31.7 Q -4.3,28.9 0,25.5 4.3,28.9 4.95,31.7 L 5.1,32.6 5,33.15 4.6,34.75 3.65,35.7 h -2 m -5.85,8.5 q 1.4,-0.55 2.8,-1.85 L 0,40.85 1.2,42.75 1.95,43.6 0.2,42.85 V 42.6 L 0,42.7 -0.2,42.6 v 0.2 q -1.45,0.85 -4,1.4 m 33.3,-7.25 q -0.9,0.3 -1.9,1 -0.65,-0.85 -1.75,-1.4 l 3.65,0.4 M -26,22 l 0.2,0.75 0.35,0.9 q -0.65,1.65 -1.9,3.45 L -27.8,27.85 -28.05,27 q 0,-0.85 1.15,-2.9 L -26,22 m 3.85,12 -1.75,-1.8 q -1.35,-1.4 -1.35,-2.25 0,-0.7 0.75,-2.2 L -23.8,26 q 2,2.05 5.25,2.6 l -0.15,0.2 q -1.35,2.2 -1.35,3.6 0,0.75 0.65,1.6 -0.45,0.3 -1.05,0.3 l -1.7,-0.3 m -10.7,2.9 0.7,-0.35 3.4,-0.3 2.7,0.4 h 0.45 q -1,0.5 -1.6,1.3 l -1.35,-0.75 -0.5,-0.25 -1.65,-0.35 -2.15,0.3 m 10.3,6.35 q 3.7,-0.55 6.2,-2.3 l 1.65,-1.45 -0.1,0.9 0.3,1.9 v 0.8 q -1.6,0.8 -2.3,0.8 l -5.75,-0.65 m 7,-14.45 6.55,-1 0.6,0.8 q 0.85,1 0.85,2.05 0,2 -1.65,3.8 l -0.2,0.25 -2.7,0.45 -2.4,-0.25 0.15,-0.25 -0.05,-0.15 q -1,-0.2 -1.75,-1.7 -0.55,-1.2 -0.55,-2 l 1.15,-2"
         fill="#d5c0c0"
         fill-rule="evenodd"
         stroke="none"
         id="path10" />
      <path
         d="M 4.9,-0.75 4.85,-0.7 q -1.3,1.35 -4.8,2.25 -3.6,-0.9 -4.9,-2.25 L -4.9,-0.75 -3.05,0.4 h 2.3 L -0.2,0.6 H 0 0.2 L 0.75,0.4 h 2.3 L 4.9,-0.75 M 14.2,-1 14.8,-0.3 Q 15.95,1 16.9,1.1 L 14.7,3.1 14.25,3.45 13.6,3 14.05,1.9 14.2,0.25 V -1 m -1.4,-0.3 0.45,0.65 0.3,0.9 q 0,0.55 -0.8,2.35 L 10.9,2.4 11.25,2.9 11.2,3.65 11,4.9 9.75,6.1 9.45,6.35 9,6.3 7.7,5.95 Q 8.6,5.45 9.2,3.9 L 9.85,1.65 9.9,0.05 9.65,-0.85 12.8,-1.3 m 2.1,17.2 1.55,0.7 q 2.8,1.35 4.3,2.85 l 0.95,2.5 q 0.45,1.25 1.05,1.7 l -0.4,0.4 q -2.55,2.7 -8.4,2.7 -2.4,0 -5.9,-1.2 l -0.25,-0.1 0.5,-0.7 0.35,-0.65 0.2,-1.05 -0.1,-1.5 2.05,0.65 4.4,1.2 q 0.95,0 1.6,-0.4 h 0.05 l 0.05,-0.1 0.05,-0.05 H 16.9 l 0.05,-0.15 q -1.55,-1.5 -2.5,-2.15 l -0.1,-0.05 1.95,-0.25 1.9,-0.4 -9.3,-1.05 2.35,-1.5 1.9,-1.15 1.75,-0.25 M 6.95,1.8 Q 6.3,3.2 4.9,4.2 L 3,3.75 3.95,3.4 h 0.7 Q 5.25,3.1 5.8,2.75 L 6.95,1.8 M 2.3,16.45 0.2,16.35 h -0.4 l -2.1,0.1 -3.9,-1.8 3.2,-0.4 -0.05,0.2 q 0,0.45 0.8,0.95 0.95,0.6 2.15,0.6 1.05,0 1.9,-0.8 l 0.7,-1.05 3.7,0.5 -3.9,1.8 m -19.2,-15.4 1.55,-1.4 1.45,-1.5 0.85,0.45 -0.8,0.75 -0.2,1.6 0.05,1.25 0.35,0.85 -0.6,0.4 -0.45,-0.35 -2.2,-2.05 m 3.4,-1.25 0.8,-1.1 3.05,0.45 -0.25,0.9 0.05,1.6 0.65,2.25 q 0.6,1.55 1.5,2.05 L -9,6.3 -9.45,6.35 -9.75,6.1 -11,4.9 -11.2,3.65 -11.25,2.9 l 0.35,-0.5 -2,0.25 -0.6,-0.75 -0.1,-0.95 0.1,-1.15 M -3.95,3.4 -3,3.75 -4.9,4.2 q -1.4,-1 -2.05,-2.4 l 1.15,0.95 q 0.55,0.35 1.15,0.65 h 0.7 m -10.75,12.55 1.55,0.2 1.9,1.15 2.35,1.5 -0.15,0.05 -1.5,0.15 -7.65,0.85 1.9,0.4 1.85,0.25 h 0.1 l -0.1,0.05 -1.15,0.95 -1.35,1.2 0.05,0.1 q -0.5,0.35 -0.5,0.65 l 0.15,0.35 0.45,0.3 q 3,-1.2 6.9,-1.85 l 0.6,-0.1 1.7,-0.4 -0.1,0.25 -0.3,1.9 0.2,1.2 0.35,0.3 -0.6,0.15 -1.3,0.45 -4.6,0.75 q -5.85,0 -8.4,-2.7 l -0.55,-0.65 0.4,-0.9 q 0,-2.15 2.05,-3.25 4.55,-2.55 5.75,-3.3"
         fill="#c0d5cc"
         fill-rule="evenodd"
         stroke="none"
         id="path11" />
      <path
         d="M 16.9,1.1 Q 15.95,1 14.8,-0.3 L 14.2,-1 14.1,-1.85 v -0.1 l 0.7,-0.6 0.55,0.4 0.65,0.5 1.25,0.9 0.1,0.1 0.2,0.3 -0.05,0.1 -0.2,0.6 -0.15,0.35 -0.25,0.4 m 5.85,22.55 q -0.6,-0.45 -1.05,-1.7 l -0.95,-2.5 q -1.5,-1.5 -4.3,-2.85 l -1.55,-0.7 0.8,-0.2 0.8,-0.25 q 2.9,0.5 5.15,2.45 2.2,1.9 2.2,2.85 0,1.45 -1.1,2.9 M 16.8,23 q -0.65,0.4 -1.6,0.4 l -4.4,-1.2 -2.05,-0.65 -0.4,-0.8 1.5,-0.15 h 0.45 0.8 q 1.65,0.15 3.25,1 1.75,1.15 2.45,1.4 M 1.3,17.15 3.7,16.65 Q 2,17.95 0.05,18.7 -1.95,18 -3.7,16.65 l 2.4,0.5 1.3,-0.1 1.3,0.1 M -16.9,1.05 -17.15,0.7 -17.6,-0.55 q 0.65,-0.4 1.6,-1.1 l 1.2,-0.9 0.9,0.7 -1.45,1.5 -1.55,1.4 m 2.2,14.9 q -1.2,0.75 -5.75,3.3 -2.05,1.1 -2.05,3.25 l -0.4,0.9 q -0.95,-1.3 -0.95,-2.65 0,-0.95 2.2,-2.85 2.25,-1.95 5.15,-2.45 l 0.8,0.25 1,0.25 m 7.1,5.8 -1.7,0.4 -0.6,0.1 q -3.9,0.65 -6.9,1.85 l -0.45,-0.3 -0.15,-0.35 q 0,-0.3 0.5,-0.65 l 0.05,0.2 1.3,-0.65 1,-0.6 0.15,-0.1 0.4,-0.15 2.1,-0.6 1.5,-0.3 h 0.55 l 2.45,0.25 h 0.15 l 0.1,0.1 -0.45,0.8"
         fill="#cde5da"
         fill-rule="evenodd"
         stroke="none"
         id="path12" />
      <path
         d="m 0.2,-45.75 q 2.15,0.9 2.3,2.6 v 3.2 q 1.45,-0.5 2.7,0.85 1,1.1 1,1.75 l -0.05,1.15 -0.25,0.55 1.9,-0.05 0.4,0.2 h 0.1 q 0.85,0.15 0.85,1.55 v 0.85 l -0.05,0.2 0.05,0.3 -1,1.1 -0.5,0.5 0.35,0.6 0.25,0.7 q 0.6,1.3 1.8,0.95 l 1.85,0.1 q 0.45,0.45 0.9,2.8 l 0.4,2.85 q 0,0.7 -0.4,1.45 l -0.05,0.05 0.75,0.45 q 3,2.3 3,6.8 l -0.4,2.45 q -0.85,2.45 -2.95,2.45 l -0.75,-0.05 0.05,0.1 q 1.3,2.05 2.7,2.85 0.7,0.4 0.7,1.7 l -0.4,1 1,0.6 1.7,1.05 0.1,-4.8 q 0.15,-2.85 2.3,-4.75 5.45,-1.5 6.95,2.55 0.45,1.25 0.45,5.25 l 0.05,2 Q 28,0.5 27.45,2.4 25.8,8.5 19.85,8.5 h -0.4 q 0.65,1.15 0.65,2.85 l -0.25,2.1 -0.45,1 q 2.8,1.1 4.4,2.5 1.8,-1.75 3.25,-1.25 1.4,0.4 1.4,2 0,3.6 1.2,5.6 1.2,1.95 1.2,3.7 l -0.45,2.4 -0.35,0.75 q 2.4,0.1 4.3,2.15 2.2,2.3 2.2,4.35 l -0.1,1 q -0.3,0.95 -1.35,0.95 l -3.65,-0.4 q -1.4,0 -2.65,0.8 l -0.75,0.5 1.2,3.7 -0.1,0.35 -0.25,0.1 v 0.1 q -0.2,0.4 -0.8,0.45 l -3.9,0.65 -4.65,0.6 -3.95,-0.5 H 14.35 L 14.3,45 l 0.2,0.15 -0.35,0.2 -0.2,0.25 -0.1,-0.05 -1.55,0.35 H 4.1 Q 1.65,45.75 0,44.95 q -1.65,0.8 -4.1,0.95 h -8.2 l -1.55,-0.35 -0.1,0.05 -0.2,-0.25 -0.35,-0.2 0.2,-0.15 -0.05,-0.05 h -1.25 l -3.95,0.5 -4.65,-0.6 -3.9,-0.65 q -0.6,-0.05 -0.8,-0.45 v -0.1 l -0.15,-0.05 -0.1,-0.05 -0.1,-0.35 0.2,-0.75 1,-2.95 -0.75,-0.5 -0.25,-0.15 q -1.15,-0.65 -2.4,-0.65 l -3.65,0.4 -0.8,-0.2 -0.55,-0.75 -0.1,-1 q 0,-1.1 0.65,-2.3 l 1.55,-2.05 1.15,-1 q 1.45,-1.05 3.15,-1.15 L -30.4,29.4 -30.85,27 q 0,-1.75 1.2,-3.7 1.2,-2 1.2,-5.6 0,-1.6 1.4,-2 1.45,-0.5 3.25,1.25 1.6,-1.4 4.4,-2.5 l -0.45,-1 -0.25,-2.1 q 0,-1.7 0.65,-2.85 h -0.4 q -5.95,0 -7.6,-6.1 Q -28,0.5 -28,-1.85 l 0.05,-2 q 0,-4 0.45,-5.25 1.5,-4.05 6.95,-2.55 2.15,1.9 2.3,4.75 l 0.1,4.8 1.7,-1.05 1,-0.6 -0.4,-1 q 0,-1.3 0.7,-1.7 1.4,-0.8 2.7,-2.85 l 0.05,-0.1 -0.75,0.05 q -2.1,0 -2.95,-2.45 l -0.4,-2.45 q 0,-4.5 3,-6.8 l 0.75,-0.45 -0.05,-0.05 q -0.4,-0.75 -0.4,-1.45 l 0.4,-2.85 q 0.45,-2.35 0.9,-2.8 l 1.85,-0.1 q 1.2,0.35 1.8,-0.95 l 0.25,-0.7 0.35,-0.6 -0.5,-0.5 -1,-1.1 0.05,-0.3 -0.05,-0.2 v -0.85 q 0,-1.4 0.85,-1.55 h 0.1 l 0.4,-0.2 1.9,0.05 -0.25,-0.55 -0.05,-1.15 q 0,-0.65 1,-1.75 1.25,-1.35 2.7,-0.85 v -3.2 q 0.1,-1.7 2.3,-2.6 v -0.15 l 0.2,0.05 0.2,-0.05 z"
         fill="none"
         stroke="#6b6b6b"
         stroke-linecap="round"
         stroke-linejoin="round"
         stroke-width="1"
         id="path13" />
    </g>
  </defs>
</svg>
