<?xml version="1.0" encoding="UTF-8" standalone="no"?>
<svg
   ffdec:objectType="frame"
   height="30"
   width="18.401667"
   version="1.1"
   id="svg8"
   sodipodi:docname="2.svg"
   xmlns:inkscape="http://www.inkscape.org/namespaces/inkscape"
   xmlns:sodipodi="http://sodipodi.sourceforge.net/DTD/sodipodi-0.dtd"
   xmlns:xlink="http://www.w3.org/1999/xlink"
   xmlns="http://www.w3.org/2000/svg"
   xmlns:svg="http://www.w3.org/2000/svg"
   xmlns:ffdec="https://www.free-decompiler.com/flash">
  <sodipodi:namedview
     id="namedview8"
     pagecolor="#ffffff"
     bordercolor="#000000"
     borderopacity="0.25"
     inkscape:showpageshadow="2"
     inkscape:pageopacity="0.0"
     inkscape:pagecheckerboard="0"
     inkscape:deskcolor="#d1d1d1"
     fit-margin-top="5"
     fit-margin-left="5"
     fit-margin-right="5"
     fit-margin-bottom="5" />
  <g
     transform="translate(5.1,15)"
     id="g4">
    <use
       ffdec:characterId="3525"
       height="25.299999"
       transform="translate(-5.1,-10.3)"
       width="18.4"
       xlink:href="#shape0"
       id="use1" />
    <use
       ffdec:characterId="3494"
       height="8.3000002"
       transform="matrix(-1,0,0,1,10.05,-16.2)"
       width="3.45"
       xlink:href="#sprite0"
       id="use2" />
    <use
       ffdec:characterId="3499"
       height="17.700001"
       transform="matrix(1,0,0,0.805,-5,-8.4076)"
       width="6.3000002"
       xlink:href="#sprite1"
       id="use3" />
    <use
       ffdec:characterId="3500"
       height="8"
       transform="matrix(0,0.6514,-0.6514,0,10.0556,-3.5173)"
       width="10.8"
       xlink:href="#sprite2"
       id="use4" />
  </g>
  <defs
     id="defs8">
    <g
       id="shape0"
       transform="translate(5.1,10.3)">
      <path
         d="m 4,7.45 -0.1,2 v 1.5 L 4,11 v -3.55 -14 Q 4.65,-7.25 7.35,-7.3 V -7.45 Q 7.35,-9 7.8,-10.3 h 0.4 l 0.35,2.95 2.95,0.35 0.4,-0.2 q 1.45,0.05 1.4,7.65 l -0.3,9 v 2.45 l -0.1,1.05 0.15,0.55 q 0,0.8 -0.4,0.95 L 6.4,15 4.65,14.85 H 4.3 L 2.9,14.65 -2.7,15 -4.95,14.6 -5.1,14.5 V 9.25 l 0.75,-0.4 Q -4.2,8 -3.45,6.85 L -2.7,6.05 Q -2.3,5.65 -1.85,5.6 -1.95,4.95 -2.3,4.65 -2.8,4.2 -2.8,3.75 l 0.05,-0.3 0.1,-0.05 q 1.35,0.3 1.7,1 L -0.8,5.1 1.4,5.15 Q 2.7,5.55 3.15,6.1 3.85,6.35 3.85,7 L 3.75,7.4 4,7.45 m -7.2,4.65 h 0.7 l 0.7,0.05 V 11.3 L -1.75,9.95 -2.95,9.75 -3.2,12.1 M 1.6,8.2 1.25,8.45 -0.5,9.5 -0.9,10.55 -1.05,11.3 q -0.15,0.6 0.15,0.85 L 0.15,12.2 0.2,12.15 0.35,11.8 0.05,10.9 q -0.15,-0.7 0.7,-0.9 0.4,0.75 0.4,2.2 v 0.05 L 1.65,12.3 1.7,9.5 1.6,8.2 M -0.55,6.5 v 0.1 q 0,0.6 -0.45,1.05 L -1.45,7.4 -1.55,6.8 -1.75,6.6 V 6.55 l -0.8,1.5 h 0.3 l 0.75,0.2 0.75,0.2 Q 0.15,7.6 1,7.05 V 6.9 Q 1,6.55 1.15,6.3 L 0.05,6.15 q -0.15,0 -0.6,0.35 M 10.75,-4.9 9.5,-4.85 6,-4.95 q 0.35,1.45 0.35,4.1 L 6.3,6.85 5.9,12.1 h 0.7 l 4.15,0.2 0.05,-2.8 q -0.3,-5.05 -0.3,-9 0,-3.5 0.25,-5.4"
         fill="#6b6b6b"
         fill-rule="evenodd"
         stroke="none"
         id="path4" />
      <path
         d="M 10.75,-4.9 Q 10.5,-3 10.5,0.5 q 0,3.95 0.3,9 L 10.75,12.3 6.6,12.1 H 5.9 L 6.3,6.85 6.35,-0.85 Q 6.35,-3.5 6,-4.95 l 3.5,0.1 1.25,-0.05 M -0.55,6.5 Q -0.1,6.15 0.05,6.15 L 1.15,6.3 Q 1,6.55 1,6.9 V 7.05 Q 0.15,7.6 -0.75,8.45 L -1.5,8.25 -2.25,8.05 h -0.3 l 0.8,-1.5 V 6.6 l 0.2,0.2 0.1,0.6 L -1,7.65 Q -0.55,7.2 -0.55,6.6 V 6.5 M 1.6,8.2 1.7,9.5 1.65,12.3 1.15,12.25 V 12.2 q 0,-1.45 -0.4,-2.2 -0.85,0.2 -0.7,0.9 L 0.35,11.8 0.2,12.15 0.15,12.2 -0.9,12.15 Q -1.2,11.9 -1.05,11.3 L -0.9,10.55 -0.5,9.5 1.25,8.45 1.6,8.2 m -4.8,3.9 0.25,-2.35 1.2,0.2 -0.05,1.35 v 0.85 L -2.5,12.1 h -0.7"
         fill="#7b7b7b"
         fill-rule="evenodd"
         stroke="none"
         id="path5" />
    </g>
    <g
       id="sprite0"
       transform="translate(0.7,1.2)">
      <use
         ffdec:characterId="3491"
         height="6.3499999"
         width="2.6500001"
         xlink:href="#shape1"
         id="use5" />
    </g>
    <g
       id="shape1">
      <path
         d="m 1.7,2.65 0.15,0.1 V 2.65 H 1.7 M 2,0 2.6,2.3 2.65,3.9 2.55,5.35 q -0.25,1 -1.2,1 -0.85,0 -1.2,-0.95 L 0,4.45 Q 0,3.4 0.7,1.75 1.45,0.05 2,0 M 1.15,4.25 V 4.1 L 1.05,4.45 1.2,4.85 1.15,4.25"
         fill="#ffffff"
         fill-opacity="0.74902"
         fill-rule="evenodd"
         stroke="none"
         id="path6" />
    </g>
    <g
       id="sprite1"
       transform="translate(3.2,9.45)">
      <use
         ffdec:characterId="2639"
         height="15.9"
         transform="translate(-2.35,-7.95)"
         width="4.6500001"
         xlink:href="#shape2"
         id="use6" />
    </g>
    <g
       id="shape2"
       transform="translate(2.35,7.95)">
      <path
         d="m 1.35,-1.95 q -0.85,1.05 -0.85,1.7 0,0.5 0.9,1.75 0.9,1.3 0.9,2.8 0,0.95 -0.45,1.9 -0.75,1.75 -2.6,1.75 l -1,-0.25 V 7.45 7.4 Q -2.35,7.1 -2.3,6.3 -2.3,5.15 -1.65,3.9 -1.65,3.5 -2,2.55 l -0.35,-1.3 q 0,-0.8 0.4,-1.6 L -1.3,-1.9 -1.25,-2 -1.2,-2.2 -0.6,-3.6 Q 0,-5 0,-6 l -0.3,-1.2 q 0,-0.9 0.35,-0.6 0.25,-0.45 1,0.5 1.1,1.3 1.1,2.65 0,1.65 -0.8,2.7 m -2,4.25 0.2,1.3 0.1,0.65 -0.5,1.6 0.05,0.2 h 0.3 L -0.25,5.7 0.45,4.4 q 0,-1.45 -0.8,-2.5 L -0.75,1.3 -0.8,1.45 -0.65,2.3"
         fill="#ffffff"
         fill-opacity="0.74902"
         fill-rule="evenodd"
         stroke="none"
         id="path7" />
    </g>
    <g
       id="sprite2"
       transform="translate(5.4,4)">
      <use
         ffdec:characterId="43"
         height="8"
         transform="translate(-5.4,-4)"
         width="10.8"
         xlink:href="#shape3"
         id="use7" />
    </g>
    <g
       id="shape3"
       transform="translate(5.4,4)">
      <path
         d="m 2.9,-0.35 q 0,-1.25 1.25,-1.25 1.25,0 1.25,1.2 0,1.3 -1.25,1.3 Q 3.6,0.9 3.25,0.5 2.9,0.15 2.9,-0.35 m 0.35,-2.3 q 0,0.55 -0.35,0.9 -0.4,0.45 -1,0.45 -1.35,0 -1.35,-1.4 0,-1.3 1.35,-1.3 1.35,0 1.35,1.35 m -3.1,1.9 h 0.2 q 2.6,0.1 2.6,2.8 l -0.3,1 Q 2.05,4 0.45,4 H 0.35 0.15 0.1 -0.45 q -1.6,0 -2.2,-0.95 l -0.3,-1 q 0,-2.8 2.8,-2.8 h 0.3 M -1.55,-4 q 1.35,0 1.35,1.35 0,0.55 -0.4,0.9 -0.4,0.45 -0.95,0.45 -1.4,0 -1.4,-1.4 0,-1.3 1.4,-1.3 m -2.6,2.4 q 1.25,0 1.25,1.25 0,0.5 -0.35,0.85 -0.35,0.4 -0.9,0.4 -1.25,0 -1.25,-1.3 0,-1.2 1.25,-1.2"
         fill="#6b6b6b"
         fill-rule="evenodd"
         stroke="none"
         id="path8" />
    </g>
  </defs>
</svg>
