<?xml version="1.0" encoding="UTF-8" standalone="no"?>
<svg
   ffdec:objectType="frame"
   height="46.4221"
   width="33.906509"
   version="1.1"
   id="svg12"
   sodipodi:docname="2.svg"
   xmlns:inkscape="http://www.inkscape.org/namespaces/inkscape"
   xmlns:sodipodi="http://sodipodi.sourceforge.net/DTD/sodipodi-0.dtd"
   xmlns:xlink="http://www.w3.org/1999/xlink"
   xmlns="http://www.w3.org/2000/svg"
   xmlns:svg="http://www.w3.org/2000/svg"
   xmlns:ffdec="https://www.free-decompiler.com/flash">
  <sodipodi:namedview
     id="namedview12"
     pagecolor="#ffffff"
     bordercolor="#000000"
     borderopacity="0.25"
     inkscape:showpageshadow="2"
     inkscape:pageopacity="0.0"
     inkscape:pagecheckerboard="0"
     inkscape:deskcolor="#d1d1d1"
     fit-margin-top="5"
     fit-margin-left="5"
     fit-margin-right="5"
     fit-margin-bottom="5" />
  <g
     transform="translate(16.953974,23.26208)"
     id="g1">
    <use
       ffdec:characterId="2167"
       height="58.299999"
       transform="matrix(0.9014,0,0,0.9014,-21.8146,-29.3916)"
       width="48.400002"
       xlink:href="#sprite0"
       id="use1" />
  </g>
  <defs
     id="defs12">
    <g
       id="sprite0"
       transform="translate(24.2,36.1)">
      <use
         ffdec:characterId="2165"
         height="37.049999"
         transform="translate(-18.8,-29.4)"
         width="37.599998"
         xlink:href="#sprite1"
         id="use2" />
      <use
         ffdec:characterId="2166"
         height="16.799999"
         transform="translate(-16.85,5.4)"
         width="33.299999"
         xlink:href="#shape1"
         id="use3" />
      <use
         ffdec:characterId="1691"
         height="8"
         transform="matrix(0.7,0,0,0.7,-4.18,14.7)"
         width="10.8"
         xlink:href="#sprite2"
         id="use4" />
    </g>
    <g
       id="sprite1"
       transform="translate(18.8,18.5)">
      <use
         ffdec:characterId="2164"
         height="37.049999"
         transform="translate(-18.8,-18.5)"
         width="37.599998"
         xlink:href="#shape0"
         id="use5" />
    </g>
    <g
       id="shape0"
       transform="translate(18.8,18.5)">
      <path
         d="m -0.05,-14.25 -0.1,0.1 -0.95,-0.15 q -7.1,0.1 -10.75,3.45 -3.6,3.3 -3.6,9.55 l 0.1,1.95 q 0.2,1.45 1.05,1.7 l 12.45,1.3 1.8,0.2 1.9,-0.2 12.45,-1.3 q 0.85,-0.25 1.05,-1.7 l 0.1,-1.95 q 0,-6.15 -3.5,-9.45 l 0.1,1.45 q 0,2.75 -7.5,2.75 -2.3,0 -3.45,-2.5 -0.75,-1.65 -0.75,-3.35 0,-1.15 0.15,-1.7 l -0.55,-0.15 m 3.45,0.1 -0.3,0.15 q -1.45,0.75 -1.45,1.7 0,1.35 0.6,2.35 1.25,2.1 4.75,2.1 4.15,0 4.15,-2.6 L 10.9,-11.6 Q 8.05,-13.7 3.4,-14.15 M 0,-18.3 4.2,-18.4 q 7.6,0.75 10.85,6.35 2.75,4.65 3.15,6 l 0.25,4.7 q 0,0.75 0.35,2.45 0.1,1.5 -1.1,2.45 -1.6,1.25 -5.95,1.9 v 0.6 l -0.5,6.55 q -0.7,4.6 -2.15,5.95 H -9.1 q -1.45,-1.35 -2.15,-5.95 l -0.5,-6.55 V 5.45 Q -16.1,4.8 -17.7,3.55 -18.9,2.6 -18.8,1.1 q 0.35,-1.7 0.35,-2.45 l 0.25,-4.7 q 0.4,-1.35 3.15,-6 3.25,-5.6 10.85,-6.35 l 4.2,0.1 m 9.1,15.5 q 0.5,0.7 0.5,1.9 0,0.6 -0.7,1.3 -1.1,1.15 -3.3,1.15 -1.3,0 -2.1,-1.25 -0.6,-1 -0.6,-2 0,-0.85 0.15,-1.15 0.25,-0.55 1.35,-1 3.5,-0.45 4.7,1.05 M 5.6,-0.05 7.55,-0.2 q 0.9,-0.3 0.9,-1.25 L 8,-2.35 7.4,-3.05 q -0.3,0.45 -3.15,0.85 0,0.55 0.3,1.2 0.35,0.95 1.05,0.95 m -3.65,12.5 -0.25,0.8 -0.1,0.1 -0.7,0.05 -2.5,-0.25 -0.9,-0.95 0.9,-0.9 2.65,0.25 q 0.9,0.3 0.9,0.9 M 7.1,9.25 6.9,10.4 Q 6.4,11.5 5,11.5 3.9,11.5 3.3,10.6 2.9,9.9 2.9,9.2 2.9,6.85 5,6.95 7.1,7 7.1,9.25 M 1.1,6.2 H 0.05 -0.3 -1.1 L -8.55,5.85 q 0.3,1.2 0.1,2.75 0.15,4.05 1.3,6.55 l 0.3,0.65 2.45,-0.15 v -0.1 h 8.8 v 0.1 l 2.45,0.15 0.3,-0.65 Q 8.3,12.65 8.45,8.6 8.25,7.05 8.55,5.85 L 1.1,6.2 m -2.15,-9.95 q 0,0.75 -1.3,1.9 -1.6,1.45 -3.75,1.45 -5.4,0 -5.4,-5.1 0,-1.3 0.35,-1.75 l 2.2,-1.85 q 5.35,-0.1 7,1.85 0.9,1 0.9,3.5 M -3.1,-3.5 q 0.6,-0.95 0.6,-2 0,-2.15 -3.7,-2.15 -3.7,0 -3.7,2.15 0.05,0.95 0.6,1.8 1,1.65 3.35,1.65 1.95,0 2.85,-1.45 m 0.15,12.85 -0.3,1.1 q -0.55,1.05 -1.7,1.05 -1.25,0 -1.9,-0.8 L -7.3,9.45 q 0,-2.1 2.15,-2.15 2.2,0 2.2,2.05"
         fill="#6b6b6b"
         fill-rule="evenodd"
         stroke="none"
         id="path5" />
      <path
         d="m 3.4,-14.15 q 4.65,0.45 7.5,2.55 l 0.25,1.15 q 0,2.6 -4.15,2.6 -3.5,0 -4.75,-2.1 -0.6,-1 -0.6,-2.35 0,-0.95 1.45,-1.7 l 0.3,-0.15 m 2.2,14.1 Q 4.9,-0.05 4.55,-1 4.25,-1.65 4.25,-2.2 7.1,-2.6 7.4,-3.05 l 0.6,0.7 0.45,0.9 q 0,0.95 -0.9,1.25 L 5.6,-0.05 M -3.1,-3.5 q -0.9,1.45 -2.85,1.45 -2.35,0 -3.35,-1.65 -0.55,-0.85 -0.6,-1.8 0,-2.15 3.7,-2.15 3.7,0 3.7,2.15 0,1.05 -0.6,2"
         fill="#e0e0e0"
         fill-rule="evenodd"
         stroke="none"
         id="path6" />
      <path
         d="M 1.1,6.2 8.55,5.85 Q 8.25,7.05 8.45,8.6 8.3,12.65 7.15,15.15 L 6.85,15.8 4.4,15.65 v -0.1 h -8.8 v 0.1 l -2.45,0.15 -0.3,-0.65 Q -8.3,12.65 -8.45,8.6 -8.25,7.05 -8.55,5.85 L -1.1,6.2 h 0.8 0.35 1.05 m 6,3.05 Q 7.1,7 5,6.95 2.9,6.85 2.9,9.2 q 0,0.7 0.4,1.4 0.6,0.9 1.7,0.9 1.4,0 1.9,-1.1 L 7.1,9.25 m -5.15,3.2 q 0,-0.6 -0.9,-0.9 l -2.65,-0.25 -0.9,0.9 0.9,0.95 2.5,0.25 0.7,-0.05 0.1,-0.1 0.25,-0.8 m -4.9,-3.1 Q -2.95,7.3 -5.15,7.3 -7.3,7.35 -7.3,9.45 l 0.45,1.25 q 0.65,0.8 1.9,0.8 1.15,0 1.7,-1.05 l 0.3,-1.1"
         fill="#cccccc"
         fill-rule="evenodd"
         stroke="none"
         id="path7" />
      <path
         d="m -0.05,-14.25 0.55,0.15 q -0.15,0.55 -0.15,1.7 0,1.7 0.75,3.35 1.15,2.5 3.45,2.5 7.5,0 7.5,-2.75 l -0.1,-1.45 q 3.5,3.3 3.5,9.45 l -0.1,1.95 q -0.2,1.45 -1.05,1.7 l -12.45,1.3 -1.9,0.2 -1.8,-0.2 -12.45,-1.3 q -0.85,-0.25 -1.05,-1.7 l -0.1,-1.95 q 0,-6.25 3.6,-9.55 3.65,-3.35 10.75,-3.45 l 0.95,0.15 0.1,-0.1 M 9.1,-2.8 q -1.2,-1.5 -4.7,-1.05 -1.1,0.45 -1.35,1 -0.15,0.3 -0.15,1.15 0,1 0.6,2 0.8,1.25 2.1,1.25 2.2,0 3.3,-1.15 0.7,-0.7 0.7,-1.3 0,-1.2 -0.5,-1.9 M -1.05,-3.75 q 0,-2.5 -0.9,-3.5 -1.65,-1.95 -7,-1.85 l -2.2,1.85 q -0.35,0.45 -0.35,1.75 0,5.1 5.4,5.1 2.15,0 3.75,-1.45 1.3,-1.15 1.3,-1.9"
         fill="#9a8888"
         fill-rule="evenodd"
         stroke="none"
         id="path8" />
    </g>
    <g
       id="shape1"
       transform="translate(16.85,-5.4)">
      <path
         d="M 14.6,5.55 15.05,5.4 q 1.4,-0.05 1.4,4.4 l -0.05,1.4 -0.15,0.55 0.05,0.3 q 0,1.05 -1.3,1.35 l -1.95,0.1 v 0.05 0.25 0.4 L 12.15,21.05 12,22.2 h -24.35 l -0.2,-1.15 -0.9,-6.85 0.05,-0.65 V 13.5 l -1.95,-0.1 q -1.35,-0.3 -1.35,-1.35 l 0.05,-0.3 -0.15,-0.55 -0.05,-1.4 q 0,-4.45 1.4,-4.4 0.25,0 0.45,0.15 h 6.95 l 0.55,0.1 H 7.2 l 0.45,-0.1 h 6.95 m -2.75,5.35 0.5,-0.05 H 13.7 V 9.8 8.5 H 7.65 L 7.1,8.4 H -7.5 l -0.55,0.1 h -6.05 v 1.3 1.05 h 1.35 l 0.5,0.05 h 24.1 m -1.8,2.5 V 13.35 H -10.4 v 0.05 l 0.05,0.15 h 0.05 l 0.8,1.65 0.25,3.45 0.1,0.6 v 0.15 l 1.4,0.1 h 3.6 V 19.45 L 8.75,19.4 8.8,19.3 V 19.25 L 8.85,18.65 9.1,15.2 9.95,13.55 H 10 l 0.05,-0.15"
         fill="#6b6b6b"
         fill-rule="evenodd"
         stroke="none"
         id="path9" />
      <path
         d="m 11.85,10.9 h -24.1 l -0.5,-0.05 H -14.1 V 9.8 8.5 h 6.05 L -7.5,8.4 H 7.1 l 0.55,0.1 h 6.05 v 1.3 1.05 h -1.35 l -0.5,0.05"
         fill="#a69c8d"
         fill-rule="evenodd"
         stroke="none"
         id="path10" />
      <path
         d="M 10.05,13.4 10,13.55 H 9.95 L 9.1,15.2 8.85,18.65 8.8,19.25 v 0.05 l -0.05,0.1 -12.9,0.05 v 0.05 h -3.6 l -1.4,-0.1 v -0.15 l -0.1,-0.6 -0.25,-3.45 -0.8,-1.65 h -0.05 L -10.4,13.4 v -0.05 h 20.45 v 0.05"
         fill="#948a7c"
         fill-rule="evenodd"
         stroke="none"
         id="path11" />
    </g>
    <g
       id="sprite2"
       transform="translate(5.4,4)">
      <use
         ffdec:characterId="43"
         height="8"
         transform="translate(-5.4,-4)"
         width="10.8"
         xlink:href="#shape2"
         id="use11" />
    </g>
    <g
       id="shape2"
       transform="translate(5.4,4)">
      <path
         d="m 2.9,-0.35 q 0,-1.25 1.25,-1.25 1.25,0 1.25,1.2 0,1.3 -1.25,1.3 Q 3.6,0.9 3.25,0.5 2.9,0.15 2.9,-0.35 m 0.35,-2.3 q 0,0.55 -0.35,0.9 -0.4,0.45 -1,0.45 -1.35,0 -1.35,-1.4 0,-1.3 1.35,-1.3 1.35,0 1.35,1.35 m -3.1,1.9 h 0.2 q 2.6,0.1 2.6,2.8 l -0.3,1 Q 2.05,4 0.45,4 H 0.35 0.15 0.1 -0.45 q -1.6,0 -2.2,-0.95 l -0.3,-1 q 0,-2.8 2.8,-2.8 h 0.3 M -1.55,-4 q 1.35,0 1.35,1.35 0,0.55 -0.4,0.9 -0.4,0.45 -0.95,0.45 -1.4,0 -1.4,-1.4 0,-1.3 1.4,-1.3 m -2.6,2.4 q 1.25,0 1.25,1.25 0,0.5 -0.35,0.85 -0.35,0.4 -0.9,0.4 -1.25,0 -1.25,-1.3 0,-1.2 1.25,-1.2"
         fill="#6b6b6b"
         fill-rule="evenodd"
         stroke="none"
         id="path12" />
    </g>
  </defs>
</svg>
