<?xml version="1.0" encoding="UTF-8" standalone="no"?>
<svg
   ffdec:objectType="frame"
   height="27.480488"
   width="20.15"
   version="1.1"
   id="svg10"
   sodipodi:docname="2.svg"
   xmlns:inkscape="http://www.inkscape.org/namespaces/inkscape"
   xmlns:sodipodi="http://sodipodi.sourceforge.net/DTD/sodipodi-0.dtd"
   xmlns:xlink="http://www.w3.org/1999/xlink"
   xmlns="http://www.w3.org/2000/svg"
   xmlns:svg="http://www.w3.org/2000/svg"
   xmlns:ffdec="https://www.free-decompiler.com/flash">
  <sodipodi:namedview
     id="namedview10"
     pagecolor="#ffffff"
     bordercolor="#000000"
     borderopacity="0.25"
     inkscape:showpageshadow="2"
     inkscape:pageopacity="0.0"
     inkscape:pagecheckerboard="0"
     inkscape:deskcolor="#d1d1d1"
     fit-margin-top="5"
     fit-margin-left="5"
     fit-margin-right="5"
     fit-margin-bottom="5" />
  <g
     transform="translate(10.05,13.75)"
     id="g3">
    <use
       ffdec:characterId="4001"
       height="16.15"
       transform="translate(-7.9,-4.3)"
       width="15.8"
       xlink:href="#sprite0"
       id="use1" />
    <use
       ffdec:characterId="3500"
       height="8"
       transform="matrix(0.4811,-0.2394,-0.2394,-0.4811,-4.4406,-3.4828)"
       width="10.8"
       xlink:href="#sprite2"
       id="use2" />
    <use
       ffdec:characterId="4002"
       height="27.5"
       transform="translate(-10.05,-13.75)"
       width="20.15"
       xlink:href="#shape2"
       id="use3" />
  </g>
  <defs
     id="defs10">
    <g
       id="sprite0"
       transform="translate(7.9,9.1)">
      <use
         ffdec:characterId="4000"
         height="14.05"
         transform="matrix(1.1449,0,0,0.8571,-7.8998,-5.4)"
         width="13.8"
         xlink:href="#sprite1"
         id="use4" />
    </g>
    <g
       id="sprite1"
       transform="translate(6.9,7)">
      <use
         ffdec:characterId="3999"
         height="14.05"
         transform="translate(-6.9,-7)"
         width="13.8"
         xlink:href="#shape0"
         id="use5" />
    </g>
    <g
       id="shape0"
       transform="translate(6.9,7)">
      <path
         d="m -1.8,-2.65 0.05,-0.15 -0.5,-0.05 q -1.7,0.75 -2.55,2.55 -0.8,1.6 -0.8,3.6 0,1.05 0.45,1.5 0.55,0.6 2.05,0.6 L -2.6,5 Q -0.55,3.35 0.2,2 1.95,-0.85 2.25,-3 H 2.4 2.5 l 0.05,0.3 q 0,1.8 -2.2,5.1 Q -0.7,4.05 -1.7,5.05 L -0.75,4.2 0.5,3.1 1.4,1.6 Q 2.15,0.3 3.45,0 V 0.15 Q 2.6,0.6 1.75,2.05 L 0.8,3.25 0.05,4.1 -1.1,5.3 0.3,4.95 q 5.4,-1.4 5.4,-6.1 L 5.25,-2.4 4.95,-2.9 4.25,-3.6 2.6,-3.85 2.5,-3.9 H 2.35 L 1.5,-4 v 0.4 q 0,1.1 -0.75,2.65 -1,2 -2.6,2 L -2.55,0.9 q 1.9,-0.85 3,-2.6 Q 1.3,-3.05 1.2,-4.2 0.9,-4.45 0.9,-4.95 0.95,-6 -0.2,-6 q -1.3,0 -1.95,1.4 l 0.55,0.65 0.25,0.25 0.15,-0.35 0.3,0.6 V -3.3 L -1,-2.65 -1.35,-2.1 -2.7,-0.85 -3,-1 q 0.8,-0.5 1.15,-1.55 l 0.05,-0.1 m 4.95,-2.1 0.2,-0.95 q 0.4,-0.9 1.55,-0.9 1.35,0 1.75,0.5 l 0.25,0.9 q 0,1.2 -1.05,1.7 1.05,1.15 1.05,2.35 0,2.2 -1.3,4.35 -2.05,3.4 -6.45,3.4 h -2 l -1.9,0.45 q -1.4,0 -1.9,-1.8 L -6.9,3.35 q 0,-2.55 0.95,-4.3 1.05,-1.95 3.05,-2.4 -0.3,-0.4 -0.4,-1.15 0,-2.6 3.2,-2.5 3.25,0.05 1.95,2.25 l 1.3,0.05 V -4.75 M 4,-4.25 4.95,-3.9 5.3,-3.95 q 0.85,-0.75 0.85,-1.3 0,-0.5 -0.9,-0.5 -1,0 -1.1,0.85 L 4,-4.25 m -4,-0.1 h -1.1 q -0.4,-0.1 -0.4,-0.45 0,-0.4 0.9,-0.65 0.9,-0.2 0.9,0.5 L 0,-4.35 m 4.5,2.75 q -0.15,0.15 -0.4,0.15 -0.55,0 -0.95,-0.25 L 2.9,-1.95 q 0,-0.95 0.55,-1 l 0.15,0.1 q -0.3,0.3 -0.3,0.55 l 0.1,0.15 1,0.5 0.1,0.05"
         fill="#6b6b6b"
         fill-rule="evenodd"
         stroke="none"
         id="path5" />
      <path
         d="M -1,-2.65 -0.9,-3.3 V -3.45 L -1.2,-4.05 -1.35,-3.7 -1.6,-3.95 -2.15,-4.6 Q -1.5,-6 -0.2,-6 q 1.15,0 1.1,1.05 0,0.5 0.3,0.75 0.1,1.15 -0.75,2.5 -1.1,1.75 -3,2.6 l 0.7,0.15 q 1.6,0 2.6,-2 Q 1.5,-2.5 1.5,-3.6 V -4 l 0.85,0.1 H 2.5 l 0.1,0.05 1.65,0.25 0.7,0.7 0.3,0.5 0.45,1.25 q 0,4.7 -5.4,6.1 L -1.1,5.3 0.05,4.1 0.8,3.25 1.75,2.05 Q 2.6,0.6 3.45,0.15 V 0 Q 2.15,0.3 1.4,1.6 L 0.5,3.1 -0.75,4.2 -1.7,5.05 q 1,-1 2.05,-2.65 2.2,-3.3 2.2,-5.1 L 2.5,-3 H 2.4 2.25 Q 1.95,-0.85 0.2,2 -0.55,3.35 -2.6,5 L -3.1,5.4 Q -4.6,5.4 -5.15,4.8 -5.6,4.35 -5.6,3.3 q 0,-2 0.8,-3.6 0.85,-1.8 2.55,-2.55 l 0.5,0.05 -0.05,0.15 -0.7,0.25 q -1.85,0.95 -1.85,2.3 0,1 1.2,1 0.95,0 1.8,-1.2 0.7,-1.05 0.7,-1.55 0,-0.65 -0.35,-0.8 M 4.5,-1.6 4.4,-1.65 3.4,-2.15 3.3,-2.3 q 0,-0.25 0.3,-0.55 l -0.15,-0.1 q -0.55,0.05 -0.55,1 l 0.25,0.25 q 0.4,0.25 0.95,0.25 0.25,0 0.4,-0.15 M 0,-4.35 0.3,-4.95 q 0,-0.7 -0.9,-0.5 -0.9,0.25 -0.9,0.65 0,0.35 0.4,0.45 H 0 m 4,0.1 0.15,-0.65 q 0.1,-0.85 1.1,-0.85 0.9,0 0.9,0.5 0,0.55 -0.85,1.3 L 4.95,-3.9 4,-4.25 M -3.85,1.5 q -0.95,0 -0.95,1.05 0,0.95 0.9,0.95 0.5,0 0.8,-0.35 l 0.2,-0.6 q 0,-1 -0.95,-1.05"
         fill="#917575"
         fill-rule="evenodd"
         stroke="none"
         id="path6" />
      <path
         d="m -1,-2.65 q 0.35,0.15 0.35,0.8 0,0.5 -0.7,1.55 -0.85,1.2 -1.8,1.2 -1.2,0 -1.2,-1 0,-1.35 1.85,-2.3 l 0.7,-0.25 -0.05,0.1 Q -2.2,-1.5 -3,-1 L -2.7,-0.85 -1.35,-2.1 -1,-2.65 M -3.85,1.5 q 0.95,0.05 0.95,1.05 l -0.2,0.6 Q -3.4,3.5 -3.9,3.5 -4.8,3.5 -4.8,2.55 -4.8,1.5 -3.85,1.5"
         fill="#b39393"
         fill-rule="evenodd"
         stroke="none"
         id="path7" />
    </g>
    <g
       id="sprite2"
       transform="translate(5.4,4)">
      <use
         ffdec:characterId="43"
         height="8"
         transform="translate(-5.4,-4)"
         width="10.8"
         xlink:href="#shape1"
         id="use7" />
    </g>
    <g
       id="shape1"
       transform="translate(5.4,4)">
      <path
         d="m 2.9,-0.35 q 0,-1.25 1.25,-1.25 1.25,0 1.25,1.2 0,1.3 -1.25,1.3 Q 3.6,0.9 3.25,0.5 2.9,0.15 2.9,-0.35 m 0.35,-2.3 q 0,0.55 -0.35,0.9 -0.4,0.45 -1,0.45 -1.35,0 -1.35,-1.4 0,-1.3 1.35,-1.3 1.35,0 1.35,1.35 m -3.1,1.9 h 0.2 q 2.6,0.1 2.6,2.8 l -0.3,1 Q 2.05,4 0.45,4 H 0.35 0.15 0.1 -0.45 q -1.6,0 -2.2,-0.95 l -0.3,-1 q 0,-2.8 2.8,-2.8 h 0.3 M -1.55,-4 q 1.35,0 1.35,1.35 0,0.55 -0.4,0.9 -0.4,0.45 -0.95,0.45 -1.4,0 -1.4,-1.4 0,-1.3 1.4,-1.3 m -2.6,2.4 q 1.25,0 1.25,1.25 0,0.5 -0.35,0.85 -0.35,0.4 -0.9,0.4 -1.25,0 -1.25,-1.3 0,-1.2 1.25,-1.2"
         fill="#6b6b6b"
         fill-rule="evenodd"
         stroke="none"
         id="path8" />
    </g>
    <g
       id="shape2"
       transform="translate(10.05,13.75)">
      <path
         d="m 0.65,-13.7 q 2.2,0.5 2.2,2.2 l -0.15,1.6 -0.15,0.55 1,0.4 1.15,0.75 1.7,0.35 1.2,0.1 q 1.5,0.1 2.15,1.2 0.35,0.7 0.35,1.6 v 0.05 q 0,1.45 -0.4,1.9 l -0.3,0.25 0.05,0.05 0.6,1.45 v 12.1 l -0.5,1.3 q -1,1.8 -3.35,1.55 H -6.2 q -2.35,0.25 -3.35,-1.55 l -0.5,-1.3 v -12.1 l 0.7,-1.6 L -9.5,-3 q -0.4,-0.45 -0.4,-1.9 v -0.05 q 0,-0.9 0.35,-1.6 0.65,-1.1 2.15,-1.2 l 1.2,-0.1 1.65,-0.35 1.2,-0.75 1,-0.4 -0.2,-0.55 -0.1,-1.6 q 0,-1.7 2.15,-2.2 l 0.65,-0.05 0.5,0.05 M 0.3,-12.05 0.1,-12.1 q -0.65,0.1 -1.1,0.55 l -0.3,0.6 0.05,0.3 0.35,0.8 0.4,0.7 -0.1,0.5 -0.45,0.3 -0.4,-0.05 q -0.25,0.2 -0.65,0.45 l -1.8,1.15 q -0.45,0.5 -2.3,0.75 h -0.3 q -1.35,0.15 -1.65,0.7 H 8.35 Q 8.05,-5.9 6.65,-6.05 H 6.4 Q 4.55,-6.3 4.1,-6.8 L 2.3,-7.95 Q 1.9,-8.2 1.6,-8.4 l -0.4,0.05 -0.4,-0.3 -0.15,-0.5 0.4,-0.7 0.45,-1.1 -0.35,-0.6 -0.85,-0.5 M 0.35,-2 v 0.05 h -1.2 -0.5 V -2 h -5.2 l -0.55,0.6 q -0.65,0.55 -0.7,2.05 L -7.85,0.8 -7.9,1.15 V 1.3 1.35 l 0.05,0.8 -0.1,1.2 L -8,3.45 V 3.5 Q -7.9,4.8 -7.95,7 L -8,8.05 V 8.1 8.75 l 0.05,0.3 0.2,0.75 0.15,0.3 h -0.05 l 0.3,0.5 0.65,0.7 1.3,-0.4 3.95,-0.5 H 3.1 l 2.75,0.45 0.95,0.4 0.55,-0.65 0.3,-0.5 H 7.6 L 7.75,9.8 7.95,9.05 8,8.75 V 8.1 8.05 L 7.95,7 Q 7.9,4.8 8,3.5 V 3.45 L 7.95,3.35 7.85,2.15 7.9,1.35 V 1.3 1.15 L 7.85,0.8 7.8,0.65 Q 7.75,-0.85 7.1,-1.4 L 6.55,-2 H 0.35 M 7,-4.1 Q 8.25,-4.4 8.4,-4.85 H -8.2 q 0.1,0.45 1.4,0.75 l 0.45,0.15 H 6.55 L 7,-4.1 M 0.35,11.6 v 0.05 H 5.8 L 5.45,11.55 2.9,11.15 h -4.35 l -0.15,0.15 -3.65,0.35 h 3.5 V 11.6 h 2.1"
         fill="#6b6b6b"
         fill-rule="evenodd"
         stroke="none"
         id="path9" />
      <path
         d="m 0.3,-12.05 0.1,0.45 q -0.2,1.1 -1.05,1.1 l -0.6,-0.15 -0.05,-0.3 0.3,-0.6 Q -0.55,-12 0.1,-12.1 l 0.2,0.05 M -3.8,-0.8 q 1.2,0.05 1.5,0.7 0.2,0.35 0.05,0.8 0,1.15 -1.1,1.45 l -1.3,0.3 q -1.3,0 -1.7,-0.7 L -6.5,0.95 q 0,-2.35 2.05,-1.95 l 0.65,0.2"
         fill="#e2e2e2"
         fill-rule="evenodd"
         stroke="none"
         id="path10" />
    </g>
  </defs>
</svg>
