<?xml version="1.0" encoding="UTF-8" standalone="no"?>
<svg
   ffdec:objectType="frame"
   height="73.150002"
   width="149.85001"
   version="1.1"
   id="svg6"
   sodipodi:docname="2.svg"
   xmlns:inkscape="http://www.inkscape.org/namespaces/inkscape"
   xmlns:sodipodi="http://sodipodi.sourceforge.net/DTD/sodipodi-0.dtd"
   xmlns:xlink="http://www.w3.org/1999/xlink"
   xmlns="http://www.w3.org/2000/svg"
   xmlns:svg="http://www.w3.org/2000/svg"
   xmlns:ffdec="https://www.free-decompiler.com/flash">
  <sodipodi:namedview
     id="namedview6"
     pagecolor="#ffffff"
     bordercolor="#000000"
     borderopacity="0.25"
     inkscape:showpageshadow="2"
     inkscape:pageopacity="0.0"
     inkscape:pagecheckerboard="0"
     inkscape:deskcolor="#d1d1d1"
     fit-margin-top="5"
     fit-margin-left="5"
     fit-margin-right="5"
     fit-margin-bottom="5" />
  <g
     transform="translate(75,45.8)"
     id="g2">
    <use
       ffdec:characterId="513"
       height="63.099998"
       transform="translate(-58.7,-35.75)"
       width="117"
       xlink:href="#sprite0"
       id="use1" />
    <use
       ffdec:characterId="514"
       height="73.150002"
       transform="translate(-75,-45.8)"
       width="149.85001"
       xlink:href="#shape1"
       id="use2" />
  </g>
  <defs
     id="defs6">
    <g
       id="sprite0"
       transform="translate(58.1,31.55)">
      <use
         ffdec:characterId="512"
         height="63.099998"
         transform="translate(-58.1,-31.55)"
         width="117"
         xlink:href="#shape0"
         id="use3" />
    </g>
    <g
       id="shape0"
       transform="translate(58.1,31.55)">
      <path
         d="M 4.8,30.9 Q 4.25,30.6 4.25,30 V 29.9 Q 3.5,29.1 3.5,26.85 q 0,-1.35 0.45,-2.55 0.4,-1.75 1.3,-2.85 0.7,-0.9 1.7,-1.55 V -24.15 L 5.4,-24.2 q -0.7,0.05 -1.2,-0.4 L 3.85,-24.95 Q 3.5,-25.25 3.35,-26 L 3.3,-27.8 q 0,-3.25 1.15,-3.35 h 0.1 l 1.25,-0.3 1.6,0.15 h 1.55 18.7 l 0.6,-0.25 0.55,0.4 q 0.55,0.25 0.55,1.15 l -0.05,0.5 0.1,1.75 v 1.7 0.15 l -0.1,0.7 -0.05,0.2 -0.1,0.45 q -0.3,0.75 -1.15,0.75 -0.55,0 -0.9,-0.45 l -2.5,0.15 0.1,3.85 -0.15,10.6 V 19.3 q 1.65,0.85 2.65,2.15 0.9,1.1 1.3,2.85 0.45,1.2 0.45,2.55 0,2.25 -0.75,3.05 V 30 q 0,0.6 -0.55,0.9 l -3.7,0.65 H 8.5 L 4.8,30.9 m 0.9,-58.7 -0.05,0.75 15.45,-0.1 h 3.2 l 2.75,0.15 v -0.7 -1 l -21.4,0.15 0.05,0.75 m 51.7,58.7 -3.7,0.65 H 38.25 L 34.55,30.9 Q 34,30.6 34,30 v -0.1 q -0.75,-0.8 -0.75,-3.05 0,-1.35 0.45,-2.55 0.4,-1.75 1.3,-2.85 1,-1.3 2.65,-2.15 V -9.65 l -0.15,-10.6 0.15,-3.85 -2.55,-0.15 q -0.35,0.45 -0.9,0.45 -0.85,0 -1.15,-0.75 l -0.1,-0.45 -0.05,-0.2 -0.1,-0.7 v -0.15 -1.7 l 0.1,-1.75 -0.05,-0.5 q 0,-0.9 0.55,-1.15 l 0.55,-0.4 q 0.35,-0.05 0.6,0.25 h 18.7 1.55 l 1.6,-0.15 1.25,0.3 h 0.1 q 1.15,0.1 1.15,3.35 l -0.05,1.8 q -0.15,0.75 -0.5,1.05 L 58,-24.6 q -0.5,0.45 -1.2,0.4 l -1.55,0.05 V 19.9 l 1.7,1.55 q 0.9,1.1 1.3,2.85 0.45,1.2 0.45,2.55 0,2.25 -0.75,3.05 V 30 q 0,0.6 -0.55,0.9 m -0.9,-58.7 0.05,-0.75 -21.4,-0.15 v 1 0.7 l 2.75,-0.15 h 3.2 l 15.45,0.1 -0.05,-0.75 m -40.15,45.4 5.6,0.7 V -9.65 q -0.05,-9.5 0.15,-14.4 h -3.6 l -9.4,-0.1 v 42.9 q 2.8,-1.05 7,-1.15 h 0.25 m 29.5,0 h 0.25 q 4.2,0.1 7,1.15 v -42.9 l -9.4,0.1 h -3.6 l 0.15,14.4 V 18.3 l 5.6,-0.7 m -0.15,3.3 q -3.3,0 -5.45,0.8 -1.35,0.45 -2.2,1.25 l -0.4,0.55 q -0.55,0.8 -0.75,1.95 l -0.25,2.85 1.3,-0.1 2.5,-0.15 L 40.4,28 q -0.65,-0.85 -0.65,-2.15 l 0.05,-0.8 q 0.1,-0.25 0.55,-0.55 1.35,1.2 2.55,3.5 h 0.6 4.85 l 1.15,-1.4 q 1.3,-1.4 2.3,-2.1 l 0.25,0.15 0.05,0.45 q 0,0.9 -1.2,2.6 l -0.2,0.3 4.4,0.3 h 0.2 l -0.05,-1.05 -0.2,-1.8 q -0.25,-1.5 -1.15,-2.5 l -0.8,-0.6 Q 50.8,20.9 46.2,20.9 H 46.1 45.85 45.7 m -29.2,0 H 16.35 16.1 16 q -4.6,0 -6.9,1.45 l -0.8,0.6 q -0.9,1 -1.15,2.5 L 7,27.25 6.9,28.3 H 7.15 L 11.5,28 11.3,27.7 Q 10.1,26 10.1,25.1 l 0.05,-0.45 0.25,-0.15 2.3,2.1 1.15,1.4 h 4.85 0.6 q 1.2,-2.3 2.55,-3.5 l 0.55,0.55 0.05,0.8 q 0,1.3 -0.65,2.15 l -0.05,0.05 2.5,0.15 1.3,0.1 -0.25,-2.85 Q 25.1,24.3 24.55,23.5 l -0.4,-0.55 Q 23.3,22.15 21.95,21.7 19.8,20.9 16.5,20.9 m -70.05,-15.35 0.3,-0.5 V 1.2 l -0.3,-0.05 -0.8,-0.65 q -0.7,-1.2 0.5,-1.9 l 0.6,-0.2 v -8.05 l -0.15,-10.6 0.15,-3.85 -2.55,-0.15 q -0.35,0.45 -0.9,0.45 -0.85,0 -1.15,-0.75 l -0.1,-0.45 -0.05,-0.2 -0.1,-0.7 v -0.15 -1.7 l 0.1,-1.75 -0.05,-0.5 q 0,-0.9 0.55,-1.15 l 0.55,-0.4 q 0.35,-0.05 0.6,0.25 h 18.7 1.55 l 1.6,-0.15 1.25,0.3 h 0.1 q 1.15,0.1 1.15,3.35 l -0.05,1.8 q -0.15,0.75 -0.5,1.05 l -0.35,0.35 q -0.5,0.45 -1.2,0.4 l -1.55,0.05 V 19.9 q 1,0.65 1.7,1.55 0.9,1.1 1.3,2.85 0.45,1.2 0.45,2.55 0,2.25 -0.75,3.05 V 30 q 0,0.6 -0.55,0.9 -0.85,0.4 -3.7,0.65 h -15.45 l -3.7,-0.65 Q -56.9,30.6 -56.9,30 v -0.1 q -0.75,-0.8 -0.75,-3.05 0,-1.35 0.45,-2.55 0.4,-1.75 1.3,-2.85 1,-1.3 2.65,-2.15 V 6.85 l -0.2,-0.3 q -0.3,-0.5 -0.1,-1 m 19.15,-33.35 0.05,-0.75 -21.4,-0.15 v 1 0.7 l 2.75,-0.15 h 3.2 l 15.45,0.1 -0.05,-0.75 M -50.35,2.15 q 0.65,1.05 -0.3,1.75 v 14.4 l 5.6,-0.7 h 0.25 q 4.2,0.1 7,1.15 v -42.9 l -9.4,0.1 h -3.6 q 0.2,4.9 0.15,14.4 v 11.4 l 0.3,0.4 M -4.4,30.9 -8.1,31.55 h -15.45 l -3.7,-0.65 Q -27.8,30.6 -27.8,30 v -0.1 q -0.75,-0.8 -0.75,-3.05 0,-1.35 0.45,-2.55 0.4,-1.75 1.3,-2.85 1,-1.3 2.65,-2.15 V -9.65 l -0.15,-10.6 0.15,-3.85 -2.55,-0.15 q -0.35,0.45 -0.9,0.45 -0.85,0 -1.15,-0.75 l -0.1,-0.45 -0.05,-0.2 -0.1,-0.7 v -0.15 -1.7 l 0.1,-1.75 -0.05,-0.5 q 0,-0.9 0.55,-1.15 l 0.55,-0.4 q 0.35,-0.05 0.6,0.25 H -8.55 -7 l 1.6,-0.15 1.25,0.3 h 0.1 q 1.15,0.1 1.15,3.35 l -0.05,1.8 q -0.15,0.75 -0.5,1.05 l -0.35,0.35 q -0.5,0.45 -1.2,0.4 l -1.55,0.05 V 19.9 q 1,0.65 1.7,1.55 0.9,1.1 1.3,2.85 0.45,1.2 0.45,2.55 0,2.25 -0.75,3.05 V 30 q 0,0.6 -0.55,0.9 m -0.9,-58.7 0.05,-0.75 -21.4,-0.15 v 1 0.7 l 2.75,-0.15 h 3.2 l 15.45,0.1 -0.05,-0.75 m -10.65,45.4 h 0.25 q 4.2,0.1 7,1.15 v -42.9 l -9.4,0.1 h -3.6 q 0.2,4.9 0.15,14.4 V 18.3 l 5.6,-0.7 m -0.15,3.3 q -3.3,0 -5.45,0.8 -1.35,0.45 -2.2,1.25 l -0.4,0.55 q -0.55,0.8 -0.75,1.95 l -0.25,2.85 1.3,-0.1 2.5,-0.15 L -21.4,28 q -0.65,-0.85 -0.65,-2.15 l 0.05,-0.8 0.55,-0.55 q 1.35,1.2 2.55,3.5 h 0.6 4.85 l 1.15,-1.4 2.3,-2.1 0.25,0.15 0.05,0.45 q 0,0.9 -1.2,2.6 l -0.2,0.3 4.4,0.3 h 0.2 l -0.05,-1.05 -0.2,-1.8 Q -7,23.95 -7.9,22.95 l -0.8,-0.6 Q -11,20.9 -15.6,20.9 h -0.1 -0.25 -0.15 m -29.1,0 q -3.3,0 -5.45,0.8 -1.35,0.45 -2.2,1.25 l -0.4,0.55 q -0.55,0.8 -0.75,1.95 l -0.25,2.85 1.3,-0.1 2.5,-0.15 L -50.5,28 q -0.65,-0.85 -0.65,-2.15 l 0.05,-0.8 0.55,-0.55 q 1.35,1.2 2.55,3.5 h 0.6 4.85 l 1.15,-1.4 2.3,-2.1 0.25,0.15 0.05,0.45 q 0,0.9 -1.2,2.6 l -0.2,0.3 4.4,0.3 h 0.2 l -0.05,-1.05 -0.2,-1.8 q -0.25,-1.5 -1.15,-2.5 l -0.8,-0.6 q -2.3,-1.45 -6.9,-1.45 h -0.1 -0.25 -0.15"
         fill="#9a9a9a"
         fill-rule="evenodd"
         stroke="none"
         id="path3" />
      <path
         d="m 5.7,-27.8 -0.05,-0.75 21.4,-0.15 v 1 0.7 l -2.75,-0.15 h -3.2 l -15.45,0.1 0.05,-0.75 m 50.8,0 0.05,0.75 -15.45,-0.1 H 37.9 L 35.15,-27 v -0.7 -1 l 21.4,0.15 -0.05,0.75 M 16.35,17.6 H 16.1 q -4.2,0.1 -7,1.15 v -42.9 l 9.4,0.1 h 3.6 q -0.2,4.9 -0.15,14.4 V 18.3 l -5.6,-0.7 m 29.35,3.3 h 0.15 0.25 0.1 q 4.6,0 6.9,1.45 l 0.8,0.6 q 0.9,1 1.15,2.5 l 0.2,1.8 0.05,1.05 H 55.1 L 50.7,28 50.9,27.7 Q 52.1,26 52.1,25.1 L 52.05,24.65 51.8,24.5 q -1,0.7 -2.3,2.1 L 48.35,28 H 43.5 42.9 q -1.2,-2.3 -2.55,-3.5 -0.45,0.3 -0.55,0.55 l -0.05,0.8 q 0,1.3 0.65,2.15 l 0.05,0.05 -2.5,0.15 -1.3,0.1 0.25,-2.85 q 0.2,-1.15 0.75,-1.95 l 0.4,-0.55 q 0.85,-0.8 2.2,-1.25 2.15,-0.8 5.45,-0.8 m 0.15,-3.3 -5.6,0.7 V -9.65 l -0.15,-14.4 h 3.6 l 9.4,-0.1 v 42.9 Q 50.3,17.7 46.1,17.6 H 45.85 M 16.5,20.9 q 3.3,0 5.45,0.8 1.35,0.45 2.2,1.25 l 0.4,0.55 q 0.55,0.8 0.75,1.95 l 0.25,2.85 -1.3,-0.1 -2.5,-0.15 L 21.8,28 q 0.65,-0.85 0.65,-2.15 L 22.4,25.05 21.85,24.5 Q 20.5,25.7 19.3,28 H 18.7 13.85 L 12.7,26.6 10.4,24.5 10.15,24.65 10.1,25.1 q 0,0.9 1.2,2.6 L 11.5,28 7.15,28.3 H 6.9 L 7,27.25 7.15,25.45 q 0.25,-1.5 1.15,-2.5 l 0.8,-0.6 Q 11.4,20.9 16,20.9 h 0.1 0.25 0.15 m -66.85,-18.75 -0.3,-0.4 v -11.4 q 0.05,-9.5 -0.15,-14.4 h 3.6 l 9.4,-0.1 v 42.9 q -2.8,-1.05 -7,-1.15 h -0.25 l -5.6,0.7 V 3.9 q 0.95,-0.7 0.3,-1.75 m 15.95,-29.95 0.05,0.75 -15.45,-0.1 H -53 l -2.75,0.15 v -0.7 -1 l 21.4,0.15 -0.05,0.75 m -10.8,48.7 h 0.15 0.25 0.1 q 4.6,0 6.9,1.45 l 0.8,0.6 q 0.9,1 1.15,2.5 l 0.2,1.8 0.05,1.05 h -0.2 L -40.2,28 -40,27.7 q 1.2,-1.7 1.2,-2.6 l -0.05,-0.45 -0.25,-0.15 -2.3,2.1 -1.15,1.4 H -47.4 -48 q -1.2,-2.3 -2.55,-3.5 l -0.55,0.55 -0.05,0.8 q 0,1.3 0.65,2.15 l 0.05,0.05 -2.5,0.15 -1.3,0.1 0.25,-2.85 q 0.2,-1.15 0.75,-1.95 l 0.4,-0.55 q 0.85,-0.8 2.2,-1.25 2.15,-0.8 5.45,-0.8 m 29.1,0 h 0.15 0.25 0.1 q 4.6,0 6.9,1.45 l 0.8,0.6 q 0.9,1 1.15,2.5 l 0.2,1.8 0.05,1.05 h -0.2 l -4.4,-0.3 0.2,-0.3 Q -9.7,26 -9.7,25.1 L -9.75,24.65 -10,24.5 l -2.3,2.1 -1.15,1.4 h -4.85 -0.6 q -1.2,-2.3 -2.55,-3.5 l -0.55,0.55 -0.05,0.8 q 0,1.3 0.65,2.15 l 0.05,0.05 -2.5,0.15 -1.3,0.1 0.25,-2.85 q 0.2,-1.15 0.75,-1.95 l 0.4,-0.55 q 0.85,-0.8 2.2,-1.25 2.15,-0.8 5.45,-0.8 m 0.15,-3.3 -5.6,0.7 V -9.65 q 0.05,-9.5 -0.15,-14.4 h 3.6 l 9.4,-0.1 v 42.9 q -2.8,-1.05 -7,-1.15 h -0.25 m 10.65,-45.4 0.05,0.75 -15.45,-0.1 h -3.2 l -2.75,0.15 v -0.7 -1 l 21.4,0.15 -0.05,0.75"
         fill="#bdb3b6"
         fill-rule="evenodd"
         stroke="none"
         id="path4" />
    </g>
    <g
       id="shape1"
       transform="translate(75,45.8)">
      <path
         d="m 72,-39.25 q 0,-2.35 0.25,-3.75 l -2.15,-0.05 -40.7,0.1 0.1,3 v 3.4 0.1 l 3.3,-0.05 0.85,0.05 h 38.4 L 72,-36.75 v -2.5 m -98.55,0 v 2.7 l 3.45,0.1 h 49.55 l -0.05,-0.5 v -3.1 l 0.1,-3 h -0.15 l -53.05,0.1 q 0.15,1.4 0.15,3.7 m -16.55,65.95 -3.7,0.65 h -15.45 l -3.7,-0.65 q -0.55,-0.3 -0.55,-0.9 v -0.1 q -0.75,-0.8 -0.75,-3.05 0,-1.35 0.45,-2.55 0.4,-1.75 1.3,-2.85 1,-1.3 2.65,-2.15 v -28.95 l -0.15,-10.6 0.15,-3.85 -2.55,-0.15 q -0.35,0.45 -0.9,0.45 -0.85,0 -1.15,-0.75 l -0.1,-0.45 -0.05,-0.2 -0.1,-0.7 v -0.15 -1.7 l 0.05,-1.25 h -0.1 q -4.75,0.35 -6.35,-0.55 -0.65,-0.35 -0.65,-1.05 l 0.05,-0.4 -0.3,-1.75 v -3.1 l 0.2,-3.95 -0.1,-0.6 q 0,-0.6 0.4,-1 l 0.05,-0.2 h 148.5 q 0.8,0.4 0.8,1.1 l -0.3,0.9 0.3,4.55 v 2.8 l -0.3,1.45 v 0.2 l -0.5,0.9 -1.15,0.7 h -4.1 v 1.4 q 0,3.25 -1.15,3.35 h -0.1 l -1.25,0.3 -1.6,-0.15 h -0.6 v 44 l 1.7,1.55 q 0.9,1.1 1.3,2.85 0.45,1.2 0.45,2.55 0,2.25 -0.75,3.05 v 0.1 q 0,0.6 -0.55,0.9 l -3.7,0.65 H 47.1 L 43.4,26.7 q -0.55,-0.3 -0.55,-0.9 v -0.1 q -0.75,-0.8 -0.75,-3.05 0,-1.35 0.45,-2.55 0.4,-1.75 1.3,-2.85 1,-1.3 2.65,-2.15 v -28.95 l -0.15,-10.6 0.15,-3.85 h -2.05 q -0.25,0.3 -0.6,0.25 -0.35,-0.05 -0.55,-0.4 -0.55,-0.25 -0.55,-1.15 l 0.05,-0.5 -0.1,-1.75 v -1.35 h -9.05 q -2.65,0.2 -4.3,0 H -23.1 q -3.6,0.2 -5.9,0 h -12.65 l 0.05,1.2 -0.05,1.8 q -0.15,0.75 -0.5,1.05 l -0.35,0.35 q -0.5,0.45 -1.2,0.4 l -1.55,0.05 V 15.7 q 1,0.65 1.7,1.55 0.9,1.1 1.3,2.85 0.45,1.2 0.45,2.55 0,2.25 -0.75,3.05 v 0.1 q 0,0.6 -0.55,0.9 m 109.5,-58.5 0.05,-0.75 -15.45,0.1 h -4.05 l -1.9,-0.15 v 0.7 1 l 21.4,-0.15 -0.05,-0.75 M 54.7,13.4 h 0.25 q 4.2,0.1 7,1.15 V -28.3 h -13 l 0.15,14.45 V 14.1 l 5.6,-0.7 m -109.35,0 h 0.25 q 4.2,0.1 7,1.15 v -42.9 l -9.4,0.1 h -3.6 q 0.2,4.9 0.15,14.4 V 14.1 l 5.6,-0.7 M -44,-32 l 0.05,-0.75 -21.4,-0.15 v 1 0.7 l 2.75,-0.15 h 3.2 l 15.45,0.1 L -44,-32 m 14.6,-7.25 0.25,-3.75 -2.15,-0.05 -40.7,0.1 0.1,3 v 3.4 0.1 q 1.65,-0.2 4.15,0 h 38.4 l -0.05,-0.3 v -2.5 m -21.8,47.7 q 0,-1.25 1.25,-1.25 1.25,0 1.25,1.2 0,1.3 -1.25,1.3 -0.55,0 -0.9,-0.4 L -51.2,8.45 m 0.35,-2.3 q 0,0.55 -0.35,0.9 -0.4,0.45 -1,0.45 -1.35,0 -1.35,-1.4 0,-1.3 1.35,-1.3 1.35,0 1.35,1.35 m -4.8,-1.35 q 1.35,0 1.35,1.35 0,0.55 -0.4,0.9 -0.4,0.45 -0.95,0.45 -1.4,0 -1.4,-1.4 0,-1.3 1.4,-1.3 m 1.7,3.25 h 0.2 q 2.6,0.1 2.6,2.8 0,0.5 -0.3,1 -0.6,0.95 -2.2,0.95 h -0.1 -0.2 -0.05 -0.55 q -1.6,0 -2.2,-0.95 l -0.3,-1 q 0,-2.8 2.8,-2.8 h 0.3 m -4.3,-0.85 q 1.25,0 1.25,1.25 0,0.5 -0.35,0.85 -0.35,0.4 -0.9,0.4 -1.25,0 -1.25,-1.3 0,-1.2 1.25,-1.2 m 3.45,9.5 q -3.3,0 -5.45,0.8 -1.35,0.45 -2.2,1.25 l -0.4,0.55 q -0.55,0.8 -0.75,1.95 l -0.25,2.85 1.3,-0.1 2.5,-0.15 -0.05,-0.05 q -0.65,-0.85 -0.65,-2.15 l 0.05,-0.8 0.55,-0.55 q 1.35,1.2 2.55,3.5 h 0.6 4.85 l 1.15,-1.4 2.3,-2.1 0.25,0.15 0.05,0.45 q 0,0.9 -1.2,2.6 l -0.2,0.3 4.4,0.3 h 0.2 l -0.05,-1.05 -0.2,-1.8 q -0.25,-1.5 -1.15,-2.5 l -0.8,-0.6 q -2.3,-1.45 -6.9,-1.45 h -0.1 -0.25 -0.15 m 109.35,0 q -3.3,0 -5.45,0.8 -1.35,0.45 -2.2,1.25 l -0.4,0.55 q -0.55,0.8 -0.75,1.95 L 45.5,24.1 46.8,24 49.3,23.85 49.25,23.8 Q 48.6,22.95 48.6,21.65 l 0.05,-0.8 q 0.1,-0.25 0.55,-0.55 1.35,1.2 2.55,3.5 h 0.6 4.85 l 1.15,-1.4 q 1.3,-1.4 2.3,-2.1 l 0.25,0.15 0.05,0.45 q 0,0.9 -1.2,2.6 l -0.2,0.3 4.4,0.3 h 0.2 l -0.05,-1.05 -0.2,-1.8 q -0.25,-1.5 -1.15,-2.5 l -0.8,-0.6 q -2.3,-1.45 -6.9,-1.45 h -0.1 -0.25 -0.15"
         fill="#6b6b6b"
         fill-rule="evenodd"
         stroke="none"
         id="path5" />
      <path
         d="m -26.55,-39.25 q 0,-2.3 -0.15,-3.7 l 53.05,-0.1 h 0.15 l -0.1,3 v 3.1 l 0.05,0.5 H -23.1 l -3.45,-0.1 v -2.7 m 98.55,0 v 2.5 l 0.05,0.3 h -38.4 l -0.85,-0.05 -3.3,0.05 v -0.1 -3.4 l -0.1,-3 40.7,-0.1 2.15,0.05 Q 72,-41.6 72,-39.25 m -5.6,7.45 0.05,0.75 -21.4,0.15 v -1 -0.7 l 1.9,0.15 H 51 l 15.45,-0.1 -0.05,0.75 m -95.8,-7.45 v 2.5 l 0.05,0.3 h -38.4 q -2.5,-0.2 -4.15,0 v -0.1 -3.4 l -0.1,-3 40.7,-0.1 2.15,0.05 -0.25,3.75 M -44,-32 l 0.05,0.75 -15.45,-0.1 h -3.2 l -2.75,0.15 v -0.7 -1 l 21.4,0.15 L -44,-32 m -10.65,45.4 -5.6,0.7 v -27.95 q 0.05,-9.5 -0.15,-14.4 h 3.6 l 9.4,-0.1 v 42.9 q -2.8,-1.05 -7,-1.15 h -0.25 m 109.35,0 -5.6,0.7 V -13.85 L 48.95,-28.3 h 13 v 42.85 q -2.8,-1.05 -7,-1.15 H 54.7 M -51.2,8.45 -50.85,9.3 q 0.35,0.4 0.9,0.4 1.25,0 1.25,-1.3 0,-1.2 -1.25,-1.2 -1.25,0 -1.25,1.25 M -55.65,4.8 q -1.4,0 -1.4,1.3 0,1.4 1.4,1.4 0.55,0 0.95,-0.45 0.4,-0.35 0.4,-0.9 0,-1.35 -1.35,-1.35 m 4.8,1.35 q 0,-1.35 -1.35,-1.35 -1.35,0 -1.35,1.3 0,1.4 1.35,1.4 0.6,0 1,-0.45 0.35,-0.35 0.35,-0.9 m -3.1,1.9 h -0.3 q -2.8,0 -2.8,2.8 l 0.3,1 q 0.6,0.95 2.2,0.95 h 0.55 0.05 0.2 0.1 q 1.6,0 2.2,-0.95 0.3,-0.5 0.3,-1 0,-2.7 -2.6,-2.8 h -0.2 m 108.5,8.65 h 0.15 0.25 0.1 q 4.6,0 6.9,1.45 l 0.8,0.6 q 0.9,1 1.15,2.5 l 0.2,1.8 0.05,1.05 h -0.2 l -4.4,-0.3 0.2,-0.3 q 1.2,-1.7 1.2,-2.6 L 60.9,20.45 60.65,20.3 q -1,0.7 -2.3,2.1 l -1.15,1.4 h -4.85 -0.6 q -1.2,-2.3 -2.55,-3.5 -0.45,0.3 -0.55,0.55 l -0.05,0.8 q 0,1.3 0.65,2.15 l 0.05,0.05 -2.5,0.15 -1.3,0.1 0.25,-2.85 q 0.2,-1.15 0.75,-1.95 l 0.4,-0.55 q 0.85,-0.8 2.2,-1.25 2.15,-0.8 5.45,-0.8 m -109.35,0 h 0.15 0.25 0.1 q 4.6,0 6.9,1.45 l 0.8,0.6 q 0.9,1 1.15,2.5 l 0.2,1.8 0.05,1.05 h -0.2 l -4.4,-0.3 0.2,-0.3 q 1.2,-1.7 1.2,-2.6 l -0.05,-0.45 -0.25,-0.15 -2.3,2.1 -1.15,1.4 H -57 -57.6 q -1.2,-2.3 -2.55,-3.5 l -0.55,0.55 -0.05,0.8 q 0,1.3 0.65,2.15 l 0.05,0.05 -2.5,0.15 -1.3,0.1 0.25,-2.85 q 0.2,-1.15 0.75,-1.95 l 0.4,-0.55 q 0.85,-0.8 2.2,-1.25 2.15,-0.8 5.45,-0.8 m -3.45,-9.5 q -1.25,0 -1.25,1.2 0,1.3 1.25,1.3 0.55,0 0.9,-0.4 Q -57,8.95 -57,8.45 -57,7.2 -58.25,7.2"
         fill="#c8adb5"
         fill-rule="evenodd"
         stroke="none"
         id="path6" />
    </g>
  </defs>
</svg>
