<?xml version="1.0" encoding="UTF-8" standalone="no"?>
<svg
   ffdec:objectType="frame"
   height="46.590164"
   width="97.669998"
   version="1.1"
   id="svg11"
   sodipodi:docname="2.svg"
   xmlns:inkscape="http://www.inkscape.org/namespaces/inkscape"
   xmlns:sodipodi="http://sodipodi.sourceforge.net/DTD/sodipodi-0.dtd"
   xmlns:xlink="http://www.w3.org/1999/xlink"
   xmlns="http://www.w3.org/2000/svg"
   xmlns:svg="http://www.w3.org/2000/svg"
   xmlns:ffdec="https://www.free-decompiler.com/flash">
  <sodipodi:namedview
     id="namedview11"
     pagecolor="#ffffff"
     bordercolor="#000000"
     borderopacity="0.25"
     inkscape:showpageshadow="2"
     inkscape:pageopacity="0.0"
     inkscape:pagecheckerboard="0"
     inkscape:deskcolor="#d1d1d1"
     fit-margin-top="5"
     fit-margin-left="5"
     fit-margin-right="5"
     fit-margin-bottom="5" />
  <g
     transform="translate(48.86,19.740164)"
     id="g2">
    <use
       ffdec:characterId="229"
       ffdec:characterName="furniture_fla.fulltvshotcopy2_39"
       height="29.9"
       transform="matrix(0.985,0,0,0.985,-21.2864,-5.6322)"
       width="41.549999"
       xlink:href="#sprite0"
       id="use1" />
    <use
       ffdec:characterId="491"
       height="46.599998"
       transform="translate(-48.85,-19.75)"
       width="97.650002"
       xlink:href="#shape2"
       id="use2" />
  </g>
  <defs
     id="defs11">
    <g
       id="sprite0"
       transform="translate(20.95,14.55)">
      <use
         ffdec:characterId="84"
         height="25.700001"
         transform="translate(-20.2,-12.55)"
         width="40.200001"
         xlink:href="#sprite1"
         id="use3" />
    </g>
    <g
       id="sprite1"
       transform="translate(20.15,12.85)">
      <use
         ffdec:characterId="80"
         height="25.700001"
         transform="translate(-20,-12.85)"
         width="39.950001"
         xlink:href="#shape0"
         id="use4" />
      <use
         ffdec:characterId="81"
         height="21.799999"
         transform="translate(-17.85,-10.85)"
         width="35.799999"
         xlink:href="#shape1"
         id="use5" />
    </g>
    <g
       id="shape0">
      <path
         d="M 39.95,25.7 H 0 V 0 h 39.95 v 25.7"
         fill="#808080"
         fill-rule="evenodd"
         stroke="none"
         id="path5" />
    </g>
    <g
       id="shape1"
       transform="translate(17.85,10.85)">
      <path
         d="M 6.25,-6.25 6.15,-6.5 v -0.85 l 0.1,-0.75 -0.05,-0.2 0.05,-0.25 0.2,-0.65 0.65,-1.1 0.45,-0.3 0.3,-0.05 0.8,0.3 0.45,0.8 0.4,1.8 0.05,1.5 L 9.4,-5.4 Q 9.1,-5 8.6,-5.05 8.05,-5.15 7.95,-5.7 L 7.9,-5.95 7.85,-6.4 H 7.7 l -0.3,0.05 v 0.4 l 0.05,0.45 q -0.1,0.45 -0.55,0.4 -0.35,0 -0.5,-0.45 l -0.15,-0.7 m 5,-0.1 q 0,0.8 -0.35,0.95 l -0.45,0.05 -0.4,-0.35 -0.2,-1 L 9.7,-8 9.55,-8.85 Q 9.5,-9.4 9.6,-9.8 9.55,-10.2 9.85,-10.5 l 1.2,0.05 0.85,0.9 0.2,-0.45 0.6,-0.65 0.55,0.1 0.25,0.15 0.65,0.65 v 0.7 q -0.1,0.5 -0.05,1.3 l 0.1,1.35 -0.2,0.7 q -0.3,0.45 -0.65,0.3 -0.25,-0.05 -0.45,-0.45 -0.35,-0.7 -0.35,-2.05 l -0.25,0.3 q -0.35,0.15 -0.6,0 l -0.15,-0.1 -0.35,-0.05 0.05,1.4 M 7.7,-9 q -0.3,0 -0.45,0.25 l -0.1,0.15 v 0.95 l 0.2,0.45 q 0.2,0.2 0.55,0.1 l 0.4,-0.45 v -1 L 8.2,-8.75 7.7,-9 m -3.15,3.95 q -0.5,0.45 -1.3,0.3 -0.4,-0.1 -1,-0.55 L 1.85,-5.6 1.65,-6 1.55,-6.4 V -6.75 L 1.45,-7 1.4,-8.25 1.85,-9.35 2.3,-10.1 q 0.35,-0.4 0.9,-0.5 h 0.3 l 0.2,-0.05 1.2,0.2 q 0.6,0.35 0.65,0.9 0.15,0.7 -0.45,1 l -0.55,0.1 Q 4.2,-8.55 4.1,-8.8 l -0.2,-0.3 -0.3,0.05 -0.25,0.2 -0.1,0.15 -0.1,0.5 q -0.1,0.7 0.05,1 l -0.05,0.35 0.05,0.2 0.6,0.35 0.05,-0.05 -0.3,-0.1 Q 3.2,-6.75 3.25,-7.1 l 0.35,-0.6 0.5,-0.2 1,-0.05 q 0.7,0.25 0.6,0.75 l -0.1,0.35 0.05,0.05 0.2,0.3 0.25,0.55 Q 6.2,-5.6 5.95,-5.4 5.8,-5.1 5.45,-5.1 l -0.5,-0.3 -0.4,0.35 m -20.85,1.2 h 0.1 0.6 0.25 0.1 0.4 0.2 0.65 0.1 0.2 2.55 8.25 3.05 2.15 0.3 l 1.1,0.05 h 0.8 l 1.2,0.05 h 0.7 0.25 2.1 0.5 0.55 1.6 l 0.65,0.05 h 1.7 0.4 0.2 0.95 0.85 0.35 0.25 l 0.15,-0.05 h 0.3 l 0.2,0.05 h 0.1 l 0.1,0.1 0.1,0.05 0.05,0.05 0.05,0.05 0.05,0.05 v 0.1 l 0.05,0.05 0.05,0.05 v 0.1 0.1 0.2 l -0.05,0.05 -0.05,0.1 v 0.05 l -0.05,0.05 -0.05,0.05 -0.05,0.05 -0.05,0.1 -0.1,0.05 -0.1,0.05 H 17.4 17.2 16.9 16.75 16.5 L 16.15,-2.3 H 15.3 l -0.95,0.05 h -0.2 -0.4 -1.7 H 11.4 9.8 9.25 8.75 6.65 L 6.4,-2.2 H 5.7 L 4.5,-2.15 H 3.7 2.6 L 2.3,-2.1 H 0.65 l 0.05,0.05 v 0.1 l 0.05,0.05 v 0.1 0.15 L 0.7,-1.6 v 0.1 0.15 l 0.05,0.05 v 0.1 0.25 0.1 0.2 0.1 0.2 0.1 0.25 0.1 0.2 0.1 0.2 0.1 0.25 0.1 0.2 0.1 0.2 0.1 0.25 0.1 0.2 0.1 0.2 0.1 0.25 0.1 0.2 0.1 0.2 0.1 0.25 0.1 l 0.6,0.25 q 1.1,0.45 1.65,0.9 0.85,0.7 1.05,1.5 l 0.05,0.9 q 0,1.1 -0.35,1.85 -0.4,0.95 -1.25,1.4 l -1.75,0.2 -1.7,-0.5 Q -3.45,9.4 -5.5,8 L -6.4,7.2 Q -7.05,6.25 -6.6,4.95 -6.4,4.3 -5.3,3 l 0.8,-0.6 1.75,0.15 q 1,0.3 1.95,0.7 V 3.05 2.95 2.75 2.65 2.4 2.3 2.1 2 1.75 1.65 1.45 1.35 1.15 1.05 0.8 0.7 0.5 0.4 0.2 0.1 v -0.25 -0.1 -0.2 -0.1 -0.2 -0.1 V -1.1 -1.2 -1.4 -1.5 -1.7 -1.8 -2 l 0.05,-0.05 V -2.1 L -2.9,-2.15 h -8.25 l -2.55,0.05 h -0.2 -0.1 -0.65 l -0.2,-0.05 h -0.4 -0.1 -0.25 l -0.6,0.05 h -0.1 l -0.35,-0.05 h -0.25 l -0.15,-0.1 -0.1,-0.05 -0.05,-0.05 -0.1,-0.05 -0.05,-0.05 -0.05,-0.1 V -2.6 l -0.05,-0.05 V -2.7 L -17.5,-2.75 V -2.8 -2.9 -3.1 -3.2 -3.25 l 0.05,-0.05 v -0.05 l 0.05,-0.05 0.05,-0.1 0.05,-0.05 0.05,-0.05 0.05,-0.05 0.1,-0.05 0.15,-0.05 0.1,-0.05 0.2,-0.05 h 0.35 M 1.75,1.3 V 0.9 l -0.1,-1.05 q 0,-0.65 0.5,-0.8 l 0.5,0.1 0.3,0.1 0.6,0.35 0.05,-0.2 q 0.25,-0.5 0.75,-0.5 0.55,0 0.7,0.5 L 5.15,-0.4 5.2,-0.15 5.25,1.1 5.1,1.6 4.75,1.8 Q 4.5,1.8 4.4,1.65 L 4.25,1.2 4.2,0.7 3.7,0.95 3.4,0.9 3.3,0.85 3.1,0.75 V 0.9 L 2.8,1.8 2.5,2 2.15,1.85 1.75,1.3 m 5.6,0.1 Q 7.15,2.2 6.45,2.1 6.05,2.1 5.8,1.75 L 5.3,1.1 5.35,0.3 q 0.1,-0.5 0.35,-0.85 l 0.5,-0.3 0.6,-0.1 0.5,0.45 0.1,0.3 V -0.3 L 7.7,-0.9 8,-1.05 q 0.5,0.1 0.6,0.65 l 0.1,0.3 0.15,0.25 V 0.2 L 9.2,-0.65 9.4,-1 10,-1.1 q 0.35,0.1 0.35,0.5 L 9.8,1.15 9.3,1.9 H 8.7 L 8.5,1.7 8.4,1.65 Q 8.05,1.6 7.75,1 L 7.45,0.25 7.35,1.4 m 7.15,-11.95 0.55,-0.3 0.7,0.1 h 0.6 q 0.45,0.1 0.55,0.35 l 0.05,0.25 v 0.3 l -0.45,0.45 -0.6,0.05 h -0.05 v 0.1 0.3 l 0.5,0.05 q 0.45,0.2 0.5,0.6 0.1,0.5 -0.4,0.7 l -0.55,0.2 0.05,0.35 1.05,0.2 q 0.6,0.45 0.3,0.95 -0.15,0.4 -0.75,0.55 l -0.95,0.1 q -0.7,0 -0.95,-0.25 -0.15,-0.15 -0.2,-0.8 l -0.05,-3.2 0.05,-0.7 0.05,-0.35 M 10.15,1.5 10.2,0.85 V 0.3 l 0.1,-0.5 0.25,-0.5 0.65,0.05 0.15,0.3 0.15,0.75 V 1.1 L 11.4,1.6 Q 11.25,2 10.75,2 10.3,1.9 10.15,1.5 m 2.4,0.7 -0.5,-0.05 Q 11.8,2 11.8,1.4 l 0.1,-1.7 0.05,-0.15 v -0.1 l 0.2,-0.4 0.8,-0.25 0.65,-0.1 0.15,-0.05 0.55,0.4 q 0.15,0.35 -0.15,0.65 l -0.45,0.25 0.15,0.25 v 0.15 l -0.15,0.3 -0.25,0.1 -0.1,0.05 0.25,-0.05 q 0.45,0 0.6,0.25 0.3,0.5 -0.2,0.9 L 13,2.15 12.55,2.2 M -0.85,8.4 -0.4,8.8 H 0.05 L 0.55,8.45 0.7,8.05 0.5,7.45 -0.1,7.2 -0.7,7.45 -0.95,8 -0.85,8.4 M 1.5,7 1.35,7.6 q 0,0.35 0.3,0.5 L 2,8.25 2.3,8.3 2.55,8.2 2.85,7.95 3,7.35 2.8,6.9 2.5,6.7 Q 1.95,6.45 1.5,7 M 6.2,0.45 6.15,0.5 V 0.8 L 6.35,0.95 6.5,1 6.75,0.8 6.8,0.75 V 0.55 L 6.75,0.5 V 0.4 L 6.5,0.15 V 0.2 L 6.35,0.25 6.2,0.35 v 0.1 M -12.55,-5.7 q -0.15,0.4 -0.45,0.4 l -0.35,-0.4 q -0.45,-1 -0.3,-2.15 l 0.1,-0.8 -0.05,-0.6 0.1,-0.5 0.25,-0.35 0.6,-0.1 0.55,0.95 0.75,1.45 -0.05,-1.55 0.15,-0.65 0.45,-0.3 0.55,0.25 q 0.2,0.2 0.2,0.95 v 2.9 q 0,0.75 -0.35,0.9 l -0.5,-0.1 h -0.5 l -0.6,-0.55 -0.3,-0.85 -0.1,-0.1 q 0,0.8 -0.15,1.2 M -17,-8.6 q -0.3,-0.05 -0.45,-0.25 L -17.5,-8.9 q -0.35,-0.2 -0.35,-0.65 l 0.35,-0.65 0.8,-0.15 2.25,0.1 0.5,0.15 0.2,0.2 0.1,0.35 -0.15,0.3 -0.1,0.05 -0.7,0.2 h -0.2 l -0.1,2.05 v 0.25 l 0.5,0.3 0.25,0.25 q 0.15,0.35 0,0.75 h -0.05 v 0.1 q -0.25,0.35 -0.65,0.35 l -0.4,0.1 -1.1,0.1 -0.6,-0.05 -0.55,-0.65 q -0.1,-0.45 0.2,-0.75 l 0.15,-0.1 v -0.1 l 0.55,-0.2 v -0.05 l 0.05,-0.65 0.15,-1.2 -0.05,-0.15 V -8.7 L -17,-8.6 m 6.05,9.9 q -0.15,0.5 -0.7,0.4 -0.5,-0.1 -0.5,-0.6 l -0.05,-1 h -0.2 l -0.3,-0.2 q -0.25,-0.35 -0.1,-0.7 l 0.55,-0.4 0.6,0.1 H -11 q 0.5,0 0.6,0.25 l 0.15,0.3 0.35,-0.15 0.05,-0.05 q 0.45,0 0.55,0.4 l 0.05,0.4 h 0.3 V 0 q -0.1,-0.6 0.2,-0.9 L -8.1,-1 -7.7,-0.55 -7.85,0.15 -8.05,1.2 -8.1,1.55 -8.4,1.75 -8.75,1.6 -8.8,1.15 H -9.25 L -9.4,1.45 -9.55,1.7 h -0.5 l -0.3,-0.4 -0.05,-1.25 0.05,-0.4 -0.05,0.05 q -0.1,0.15 -0.45,0.25 l -0.05,1 -0.05,0.35 m 9.05,-7.9 0.7,0.05 0.7,0.2 0.15,0.6 -0.2,0.55 q -0.2,0.15 -0.75,0.25 h -0.9 l -0.25,0.1 -0.25,0.05 q -0.5,-0.1 -0.75,-0.6 l -0.05,-1.45 -0.1,-0.2 0.05,-3 q 0.2,-0.6 0.8,-0.5 l 0.15,0.05 0.9,-0.1 0.75,0.1 0.5,0.5 q 0.05,0.35 -0.2,0.75 -0.2,0.2 -0.7,0.3 L -2,-8.9 v 0.4 h 0.25 l 0.45,0.05 0.4,0.3 0.05,0.5 q -0.1,0.35 -0.45,0.45 l -0.6,0.1 v 0.5 m -2.5,-2.4 0.2,2.15 0.05,0.45 0.25,0.3 q 0.3,0.45 -0.05,0.85 -0.25,0.25 -0.8,0.35 -0.75,0.2 -1.1,0 -0.45,-0.2 -0.45,-0.65 0,-0.5 0.4,-0.75 l 0.25,-0.1 v -0.3 l -0.1,-1.5 -0.05,-1.1 -0.45,-0.2 -0.2,-0.55 0.2,-0.55 0.7,-0.25 0.75,0.05 0.6,0.1 q 0.3,0.2 0.3,0.6 0,0.4 -0.3,0.6 l -0.2,0.1 V -9 m -5.05,3.45 -0.15,-0.8 -0.05,-1.85 0.15,-1.5 0.3,-0.45 0.55,-0.35 q 0.9,-0.2 1.65,0.5 0.6,0.5 0.8,1.6 0.15,0.45 0.05,1.05 l -0.55,1.1 q -0.9,1.2 -2,1.05 l -0.25,-0.05 -0.5,-0.3 m 1.2,-3.25 0.05,1 0.05,1.25 0.5,-0.5 q 0.35,-0.55 0.3,-1 -0.1,-0.65 -0.6,-0.8 l -0.3,-0.05 v 0.1 M -7.5,-0.4 -7.55,-0.55 -7.5,-0.7 -7.35,-0.95 -6.7,-1.1 H -6 l 0.05,-0.05 q 0.45,0.1 0.45,0.55 L -5.7,-0.15 -6,-0.05 -6.2,0 v 0.3 0.1 h 0.35 l 0.1,0.1 0.1,0.2 v 0.15 l -0.1,0.2 h 0.15 q 0.4,0.1 0.4,0.5 L -5.45,2 -5.75,2.1 -6.05,2.15 -6.4,2.1 -6.75,2.15 -7.15,1.8 -7.2,1.65 -7.15,1.55 -7.35,1.15 -7.45,0.2 -7.35,-0.15 -7.5,-0.4 M -3.9,4.4 -4,4.55 -4.3,4.35 -4.95,4.3 q -0.45,0.1 -0.55,0.65 0,0.5 0.5,0.75 l 0.2,0.05 -0.25,0.55 q -0.1,0.55 0.45,0.8 0.55,0.2 0.9,-0.25 l 0.25,-0.45 0.6,0.1 Q -2.4,6.4 -2.4,5.95 L -2.5,5.65 Q -2.65,5.4 -3.05,5.25 L -3,5.05 -2.9,4.4 Q -3.1,3.9 -3.4,4 -3.75,4.05 -3.9,4.4"
         fill="#ffffff"
         fill-rule="evenodd"
         stroke="none"
         id="path6" />
      <path
         d="m 7.7,-9 0.5,0.25 0.1,0.2 v 1 L 7.9,-7.1 Q 7.55,-7 7.35,-7.2 L 7.15,-7.65 V -8.6 l 0.1,-0.15 Q 7.4,-9 7.7,-9 M 6.2,0.45 V 0.35 L 6.35,0.25 6.5,0.2 V 0.15 L 6.75,0.4 V 0.5 L 6.8,0.55 v 0.2 L 6.75,0.8 6.5,1 6.35,0.95 6.15,0.8 V 0.5 L 6.2,0.45 M 1.5,7 Q 1.95,6.45 2.5,6.7 L 2.8,6.9 3,7.35 2.85,7.95 2.55,8.2 2.3,8.3 2,8.25 1.65,8.1 Q 1.35,7.95 1.35,7.6 L 1.5,7 M -0.85,8.4 -0.95,8 -0.7,7.45 -0.1,7.2 0.5,7.45 0.7,8.05 0.55,8.45 0.05,8.8 H -0.4 L -0.85,8.4 M -3.9,4.4 Q -3.75,4.05 -3.4,4 -3.1,3.9 -2.9,4.4 L -3,5.05 -3.05,5.25 q 0.4,0.15 0.55,0.4 l 0.1,0.3 q 0,0.45 -0.45,0.55 L -3.45,6.4 -3.7,6.85 Q -4.05,7.3 -4.6,7.1 -5.15,6.85 -5.05,6.3 L -4.8,5.75 -5,5.7 Q -5.5,5.45 -5.5,4.95 -5.4,4.4 -4.95,4.3 L -4.3,4.35 -4,4.55 -3.9,4.4"
         fill="#808080"
         fill-rule="evenodd"
         stroke="none"
         id="path7" />
    </g>
    <g
       id="shape2"
       transform="translate(48.85,19.75)">
      <path
         d="M 9.25,-0.9 9,-1.5 -1.75,-2.05 h -8.6 l -0.5,1.15 -1.05,1.55 -1.35,2.45 q -1,1.45 -1.8,1.05 L -15.4,3.7 -16.2,2.85 -16.55,2.3 -17.05,8 v 6.25 l 0.85,-0.05 h 0.25 q 7.1,0.15 9.7,3.5 l 0.15,0.2 4.5,0.2 h 4.95 l 0.3,-0.4 q 2.6,-3.4 9.7,-3.5 h 0.25 l 1.75,0.1 V 8.1 L 14.9,2.45 14.6,2.85 13.8,3.7 13.45,4.15 q -0.8,0.4 -1.8,-1.05 L 10.3,0.65 9.25,-0.9 m 10.7,-10.35 H 20 l 1.25,-0.45 3.35,-0.85 4.55,-1.35 1.95,-0.15 1,-0.15 q 1.4,0.35 0.75,3.05 l -1.55,4.1 -0.65,2.45 0.2,0.25 Q 34.5,-0.4 36.6,4.9 l 0.3,0.8 3.55,-0.6 4.15,-1 4.2,-0.25 Q 49,4.45 45.2,5.5 L 40.9,6.55 37.55,7.7 q 0.7,2.5 0.7,4.55 v 2.2 l 0.6,0.2 4.15,1 q 3.95,1.1 3.8,1.7 l -4.1,-0.25 -4.3,-1 -0.2,-0.05 q -0.15,2.7 -0.55,3.8 -1.45,4.4 -7.25,6.75 H 22.55 L 20.4,26.85 H 6.55 L 4.4,26.6 H -7 l -2.15,0.25 H -23 l -2.15,-0.25 h -6.65 q -5.8,-2.35 -7.25,-6.75 -0.35,-1 -0.5,-3.45 l -3.2,0.75 -4.1,0.25 q -0.15,-0.6 3.8,-1.75 l 3.45,-0.8 -0.05,-2.6 q 0,-2.25 0.85,-5 l -2.15,-0.75 -4.3,-1.05 q -3.8,-1.05 -3.6,-1.65 l 4.2,0.25 4.15,1 2.3,0.4 0.2,-0.55 q 2.1,-5.3 5.75,-9.25 2.25,-2.4 4.85,-4.1 l 0.2,-1.75 0.9,-2.85 0.95,-4.3 q 0.95,-2.7 2.35,-2.35 l 0.75,0.55 1.6,1.1 q 1.25,1 3.2,3.2 l 2.4,2.25 0.2,0.15 h 4.35 8.6 l 1.2,0.05 1.2,-0.05 h 8.6 q 5.9,-0.3 10.85,1.2 m -6,2.15 h -0.1 l -0.3,-0.1 h -28.5 l -0.3,0.1 h -0.1 -0.3 l -0.85,-0.05 -0.85,0.05 q -3.2,0.25 -6.75,2.25 l -0.85,0.5 q -6.85,4.1 -9.1,11.15 l -0.6,1.35 q 2.3,0.6 1.95,1.6 -0.4,0.95 -2.6,0.55 -0.4,1.55 -0.45,3.35 l -0.15,2.05 1.9,-0.55 q 3.1,-0.85 3.3,0.3 0.25,1.25 -2.75,1.85 l -2.5,0.45 q 0.25,8.85 7.75,7.95 h 0.8 l -0.05,-1.1 q 0,-1.2 0.4,-2.3 0.35,-1.6 1.15,-2.6 1.9,-2.5 6.25,-3.2 V 8.1 l -0.6,-8 q -0.05,-2.2 0.3,-3.35 l 0.05,-0.15 q 0.45,-1.3 1.5,-1.25 0.65,0.05 1.1,0.55 l 6.3,-0.3 h 7.7 v -0.05 l 0.2,-1.3 0.25,-0.75 q 0.45,-0.6 1,-0.6 0.65,-0.1 1,0.4 l 0.35,0.8 0.1,1.45 2.2,-0.15 7.6,-0.35 q 4.75,-0.1 6.15,0.75 0.4,-0.5 1.05,-0.45 2.15,0.2 1.95,4.9 L 17.95,8 v 6.7 q 3.65,0.8 5.35,3 0.8,1 1.15,2.6 0.4,1.1 0.4,2.3 l -0.05,1.1 h 2 q 7.65,0.95 7.75,-8.2 L 33.4,15.25 q -3,-0.6 -2.75,-1.85 0.2,-1.15 3.3,-0.3 l 0.55,0.15 -0.15,-1.6 -0.4,-3.2 Q 32.9,8.4 32.65,7.8 32.4,7.1 33.45,6.6 L 32.65,4.8 Q 31.5,1.25 29.25,-1.55 26.7,-4.7 22.7,-6.85 l -0.35,-0.2 -2.6,-1.15 Q 17.8,-8.95 16,-9.1 l -0.9,-0.05 -0.85,0.05 h -0.3 m 0.8,8.4 0.8,-1.2 H 14.8 14.4 13.45 l -2.8,0.1 0.2,0.3 0.9,1.45 1.3,1.7 1.45,-2 0.25,-0.35 m 9.85,5.4 -3.05,0.45 q -0.4,0.1 -0.7,0.3 L 20.75,5.3 Q 20,4.25 20,3 q 0,-1.55 1.35,-2.6 1.3,-1 3.05,-1.1 4.35,-0.25 4.35,4 0,0.95 -0.5,1.95 Q 27.2,4.65 24.6,4.7 m -0.95,-14.45 0.9,0.45 3.9,2.65 0.25,-1 0.7,-3.3 -4.15,0.8 -1.6,0.4 M 24,0.9 Q 22.2,0.75 22.2,2.65 l 0.05,0.45 q 0.4,0.5 2.1,0.5 l 0.9,-0.05 Q 25.75,3.4 25.75,2.8 25.75,1 24,0.9 m -0.3,10.3 -0.65,0.7 q -1.2,0.65 -1.9,-0.45 -0.65,-1 0.55,-1.6 1.2,-0.6 1.9,0.45 0.25,0.45 0.1,0.9 m 0.85,0.55 0.3,-0.1 0.15,-0.1 q 2.3,-1.1 3.6,1.05 l 0.25,0.9 q 0,1 -1.4,1.7 l -0.1,0.05 -0.15,0.1 h -0.05 l -0.5,0.25 q -1.4,0.7 -2.4,0.25 L 23.5,15.2 Q 22.15,13 24.55,11.75 m 1.5,-1.4 Q 24.9,11 24.2,9.9 23.55,8.9 24.7,8.3 25.85,7.7 26.55,8.75 26.8,9.2 26.7,9.6 l -0.65,0.75 m 1.35,0.35 q -0.65,-1 0.45,-1.55 1.1,-0.6 1.7,0.35 0.65,1.05 -0.45,1.65 l -1,0.1 -0.7,-0.55 m -5,2.6 0.1,0.85 q -0.1,0.5 -0.6,0.7 -1.1,0.6 -1.75,-0.45 -0.6,-0.95 0.5,-1.55 1.1,-0.55 1.75,0.45 m -0.6,10.4 -0.2,-2.35 q -0.25,-1.35 -1.05,-2.3 -1,-0.95 -2.8,-1.4 L 15.5,17.3 13.7,17.2 h -0.1 -0.25 -0.1 q -3.4,0 -5.4,0.9 Q 7,18.55 6.4,19.05 5.85,19.65 5.6,20.5 L 5.35,21.35 5.2,23.7 5.15,23.9 8.55,23.7 8.5,23.65 Q 7.9,22.9 7.9,21.7 L 7.95,21 8.45,20.5 q 1.2,1.05 2.3,3.15 h 0.5 4.35 l 1.05,-1.25 q 1.15,-1.3 2.05,-1.9 l 0.2,0.1 0.05,0.4 q 0,0.85 -1.05,2.4 l -0.2,0.25 1.5,0.05 2.6,0.2 V 23.7 M 2.1,22.6 q 0,-1.1 0.35,-2.1 H -1.7 l -3.25,0.2 0.25,1.9 -0.05,1.1 h 6.9 L 2.1,22.6 m -24.6,-38.2 -1.2,3.1 -0.7,2.45 q 2.9,-1.4 6.25,-1.95 l -1.2,-1.1 -3.15,-2.5 m 6.05,14.75 0.35,0.5 1.45,2 1.3,-1.7 1.1,-1.75 -2.8,-0.1 h -1.45 -0.65 l 0.7,1.05 m -0.75,18.1 -2.3,0.25 q -2.4,0.4 -3.65,1.55 -0.8,0.95 -1.05,2.3 l -0.15,2.35 -0.05,0.2 3.4,-0.2 -0.05,-0.05 q -0.6,-0.75 -0.6,-1.95 l 0.05,-0.7 0.5,-0.5 q 1.2,1.05 2.3,3.15 h 0.5 4.35 l 1.05,-1.25 1.4,-1.4 0.65,-0.5 0.2,0.1 0.05,0.4 q 0,0.85 -1.05,2.4 l -0.2,0.25 1.5,0.05 2.6,0.2 v -0.2 l -0.2,-2.35 -0.1,-0.45 Q -8.35,19.8 -9,19.05 -10.1,18.1 -12,17.6 l -3.85,-0.4 h -0.1 -0.25 -0.1 l -0.9,0.05 M -26.45,0.9 q -1.8,-0.15 -1.8,1.75 l 0.05,0.45 q 0.4,0.5 2.1,0.5 l 0.9,-0.05 q 0.5,-0.15 0.5,-0.75 0,-1.8 -1.75,-1.9 m 0.4,-1.6 q 4.35,-0.25 4.35,4 0,1.05 -0.6,2.1 -0.9,1.6 -2.85,1.6 -3.2,0 -4.55,-1.7 -0.75,-1.05 -0.75,-2.3 0,-1.55 1.35,-2.6 1.3,-1 3.05,-1.1"
         fill="#6b6b6b"
         fill-rule="evenodd"
         stroke="none"
         id="path8" />
      <path
         d="m 14.75,-0.7 -0.25,0.35 -1.45,2 -1.3,-1.7 -0.9,-1.45 -0.2,-0.3 2.8,-0.1 h 0.95 0.4 0.75 l -0.8,1.2 m -31.2,-0.15 -0.7,-1.05 h 0.65 1.45 l 2.8,0.1 -1.1,1.75 -1.3,1.7 -1.45,-2 -0.35,-0.5"
         fill="#e2e2e2"
         fill-rule="evenodd"
         stroke="none"
         id="path9" />
      <path
         d="m 24,0.9 q 1.75,0.1 1.75,1.9 0,0.6 -0.5,0.75 l -0.9,0.05 q -1.7,0 -2.1,-0.5 L 22.2,2.65 q 0,-1.9 1.8,-1.75 m -50.45,0 q 1.75,0.1 1.75,1.9 0,0.6 -0.5,0.75 l -0.9,0.05 q -1.7,0 -2.1,-0.5 l -0.05,-0.45 q 0,-1.9 1.8,-1.75"
         fill="#ffffff"
         fill-rule="evenodd"
         stroke="none"
         id="path10" />
      <path
         d="m 13.95,-9.1 h 0.3 L 15.1,-9.15 16,-9.1 q 1.8,0.15 3.75,0.9 l 2.6,1.15 0.35,0.2 q 4,2.15 6.55,5.3 2.25,2.8 3.4,6.35 l 0.8,1.8 q -1.05,0.5 -0.8,1.2 0.25,0.6 1.3,0.65 l 0.4,3.2 0.15,1.6 -0.55,-0.15 q -3.1,-0.85 -3.3,0.3 -0.25,1.25 2.75,1.85 l 1.15,0.25 q -0.1,9.15 -7.75,8.2 h -2 l 0.05,-1.1 q 0,-1.2 -0.4,-2.3 -0.35,-1.6 -1.15,-2.6 -1.7,-2.2 -5.35,-3 V 8 l 0.6,-7.75 q 0.2,-4.7 -1.95,-4.9 Q 15.95,-4.7 15.55,-4.2 14.15,-5.05 9.4,-4.95 L 1.8,-4.6 -0.4,-4.45 -0.5,-5.9 -0.85,-6.7 q -0.35,-0.5 -1,-0.4 -0.55,0 -1,0.6 l -0.25,0.75 -0.2,1.3 V -4.4 H -11 l -6.3,0.3 q -0.45,-0.5 -1.1,-0.55 -1.05,-0.05 -1.5,1.25 l -0.05,0.15 q -0.35,1.15 -0.3,3.35 l 0.6,8 v 6.4 q -4.35,0.7 -6.25,3.2 -0.8,1 -1.15,2.6 -0.4,1.1 -0.4,2.3 l 0.05,1.1 h -0.8 q -7.5,0.9 -7.75,-7.95 l 2.5,-0.45 q 3,-0.6 2.75,-1.85 -0.2,-1.15 -3.3,-0.3 l -1.9,0.55 0.15,-2.05 q 0.05,-1.8 0.45,-3.35 2.2,0.4 2.6,-0.55 0.35,-1 -1.95,-1.6 l 0.6,-1.35 q 2.25,-7.05 9.1,-11.15 l 0.85,-0.5 q 3.55,-2 6.75,-2.25 l 0.85,-0.05 0.85,0.05 h 0.3 0.1 l 0.3,-0.1 h 28.5 l 0.3,0.1 h 0.1 m 9.7,-0.65 1.6,-0.4 4.15,-0.8 -0.7,3.3 -0.25,1 -3.9,-2.65 -0.9,-0.45 M 24.6,4.7 q 2.6,-0.05 3.65,0.55 0.5,-1 0.5,-1.95 0,-4.25 -4.35,-4 -1.75,0.1 -3.05,1.1 Q 20,1.45 20,3 q 0,1.25 0.75,2.3 l 0.1,0.15 q 0.3,-0.2 0.7,-0.3 L 24.6,4.7 m -0.9,6.5 q 0.15,-0.45 -0.1,-0.9 -0.7,-1.05 -1.9,-0.45 -1.2,0.6 -0.55,1.6 0.7,1.1 1.9,0.45 l 0.65,-0.7 m 0.85,0.55 Q 22.15,13 23.5,15.2 l 0.75,0.65 q 1,0.45 2.4,-0.25 l 0.5,-0.25 h 0.05 l 0.15,-0.1 0.1,-0.05 q 1.4,-0.7 1.4,-1.7 L 28.6,12.6 Q 27.3,10.45 25,11.55 l -0.15,0.1 -0.3,0.1 m 1.5,-1.4 L 26.7,9.6 Q 26.8,9.2 26.55,8.75 25.85,7.7 24.7,8.3 q -1.15,0.6 -0.5,1.6 0.7,1.1 1.85,0.45 m 1.35,0.35 0.7,0.55 1,-0.1 Q 30.2,10.55 29.55,9.5 28.95,8.55 27.85,9.15 26.75,9.7 27.4,10.7 M 2.1,22.6 2.15,23.7 h -6.9 l 0.05,-1.1 -0.25,-1.9 3.25,-0.2 h 4.15 q -0.35,1 -0.35,2.1 m 19.7,1.1 v 0.2 L 19.2,23.7 17.7,23.65 17.9,23.4 Q 18.95,21.85 18.95,21 L 18.9,20.6 18.7,20.5 q -0.9,0.6 -2.05,1.9 l -1.05,1.25 h -4.35 -0.5 Q 9.65,21.55 8.45,20.5 L 7.95,21 7.9,21.7 q 0,1.2 0.6,1.95 L 8.55,23.7 5.15,23.9 5.2,23.7 5.35,21.35 5.6,20.5 q 0.25,-0.85 0.8,-1.45 0.6,-0.5 1.45,-0.95 2,-0.9 5.4,-0.9 h 0.1 0.25 0.1 l 1.8,0.1 2.25,0.35 q 1.8,0.45 2.8,1.4 0.8,0.95 1.05,2.3 l 0.2,2.35 m 0.6,-10.4 q -0.65,-1 -1.75,-0.45 -1.1,0.6 -0.5,1.55 0.65,1.05 1.75,0.45 0.5,-0.2 0.6,-0.7 L 22.4,13.3 m -44.9,-28.9 3.15,2.5 1.2,1.1 q -3.35,0.55 -6.25,1.95 l 0.7,-2.45 1.2,-3.1 m 5.3,32.85 0.9,-0.05 h 0.1 0.25 0.1 l 3.85,0.4 q 1.9,0.5 3,1.45 0.65,0.75 0.95,1.85 l 0.1,0.45 0.2,2.35 v 0.2 l -2.6,-0.2 -1.5,-0.05 0.2,-0.25 q 1.05,-1.55 1.05,-2.4 l -0.05,-0.4 -0.2,-0.1 -0.65,0.5 -1.4,1.4 -1.05,1.25 h -4.35 -0.5 q -1.1,-2.1 -2.3,-3.15 l -0.5,0.5 -0.05,0.7 q 0,1.2 0.6,1.95 l 0.05,0.05 -3.4,0.2 0.05,-0.2 0.15,-2.35 q 0.25,-1.35 1.05,-2.3 1.25,-1.15 3.65,-1.55 l 2.3,-0.25 M -26.05,-0.7 q -1.75,0.1 -3.05,1.1 -1.35,1.05 -1.35,2.6 0,1.25 0.75,2.3 1.35,1.7 4.55,1.7 1.95,0 2.85,-1.6 0.6,-1.05 0.6,-2.1 0,-4.25 -4.35,-4"
         fill="#d9baba"
         fill-rule="evenodd"
         stroke="none"
         id="path11" />
    </g>
  </defs>
</svg>
