<?xml version="1.0" encoding="UTF-8" standalone="no"?>
<svg
   ffdec:objectType="frame"
   height="49.900002"
   width="46.299999"
   version="1.1"
   id="svg5"
   sodipodi:docname="1.svg"
   xmlns:inkscape="http://www.inkscape.org/namespaces/inkscape"
   xmlns:sodipodi="http://sodipodi.sourceforge.net/DTD/sodipodi-0.dtd"
   xmlns:xlink="http://www.w3.org/1999/xlink"
   xmlns="http://www.w3.org/2000/svg"
   xmlns:svg="http://www.w3.org/2000/svg"
   xmlns:ffdec="https://www.free-decompiler.com/flash">
  <sodipodi:namedview
     id="namedview5"
     pagecolor="#ffffff"
     bordercolor="#000000"
     borderopacity="0.25"
     inkscape:showpageshadow="2"
     inkscape:pageopacity="0.0"
     inkscape:pagecheckerboard="0"
     inkscape:deskcolor="#d1d1d1"
     fit-margin-top="5"
     fit-margin-left="5"
     fit-margin-right="5"
     fit-margin-bottom="5" />
  <g
     transform="translate(23.15,25.1)"
     id="g1">
    <use
       ffdec:characterId="1358"
       height="49.900002"
       transform="translate(-23.15,-25.1)"
       width="46.299999"
       xlink:href="#shape0"
       id="use1" />
  </g>
  <defs
     id="defs5">
    <g
       id="shape0"
       transform="translate(23.15,25.1)">
      <path
         d="m 1.65,-25.1 0.05,0.1 0.3,1.45 0.05,0.4 2.05,-0.05 h 0.45 q 1.45,-0.25 2.55,0 0.55,-0.55 1.85,0.6 l 0.75,0.65 1.5,1.65 0.5,0.5 0.85,1.05 2.75,3.35 0.25,0.25 3.65,4.65 q 2.8,3.75 3.05,4.65 l 0.9,1.95 q 0,0.8 -1.2,1.2 H 6.05 v 0.05 h -0.1 v 0.4 H 5.8 v 0.4 H 5.7 L 5.35,1.85 7.9,2.15 Q 8.8,2.4 8.8,3.25 L 9.05,3.5 8.6,4 5.1,4.55 4.95,5.75 6.55,5.9 q 1.35,0.25 1.35,1.2 0,0.8 -0.45,1 l -2.8,0.5 -0.3,2.35 q 2.2,0.4 2.2,1.6 L 6.3,13.4 q -0.6,0.5 -2.4,0.65 l -1.25,6.3 H 4.4 l 2.1,0.1 h 3.2 0.55 q 1.1,0 1.1,1 l -0.3,0.8 h 2.25 l 0.65,0.05 v 2.05 L 13.3,24.8 h -26.6 l -0.65,-0.45 V 22.3 l 0.65,-0.05 h 2.25 l -0.3,-0.8 q 0,-1 1.1,-1 h 2.35 1.55 l 1.95,-0.1 h 1.75 L -3.9,14.05 Q -5.7,13.9 -6.3,13.4 l -0.25,-0.85 q 0,-1.2 2.2,-1.6 L -4.65,8.6 -7.45,8.1 Q -7.9,7.9 -7.9,7.1 -7.9,6.15 -6.55,5.9 L -4.95,5.75 -5.1,4.55 -8.6,4 -9.05,3.5 -8.8,3.25 q 0,-0.85 0.9,-1.1 l 2.55,-0.3 -0.3,-3.7 h -0.1 l -0.05,-0.4 h -0.1 l -0.05,-0.4 h -0.1 V -2.7 h -15.9 q -1.2,-0.4 -1.2,-1.2 l 0.9,-1.95 q 0.25,-0.9 3.05,-4.65 l 3.65,-4.65 0.25,-0.25 2.75,-3.35 0.85,-1.05 0.5,-0.5 1.5,-1.65 0.75,-0.65 q 1.3,-1.15 1.85,-0.6 1.1,-0.25 2.55,0 h 0.45 l 2.05,0.05 0.05,-0.4 0.3,-1.45 0.05,-0.1 h 3.3 m 12.7,12.7 -1.4,-1.7 -2,0.8 1.2,1.7 q 1.15,-0.6 2.2,-0.8 m -1.85,-2.25 -0.45,-0.6 -1.75,-2.1 -2,0.9 1.9,2.2 2.3,-0.4 m -6.7,-6.2 0.9,1.35 0.8,2.15 0.15,0.2 1.8,-1.25 -1.95,-2.55 -1.7,0.1 m -1.65,0 -3.75,-0.05 0.15,4.4 q 1.1,-0.05 2.1,0.8 1.2,0.95 1.3,2.15 l 2.05,-2.2 0.75,-0.7 -1.25,-2.4 -1.25,-2 h -0.1 m -1.1,8.4 -0.1,-0.05 v 0.25 l 0.2,-0.25 -0.1,0.05 m -3,-3.3 -0.25,-0.1 q -1.45,2.5 -2.05,4.65 1.9,3.1 1.9,6.1 h 0.7 q 0,-3 1.9,-6.1 -0.6,-2.15 -2,-4.6 l -0.2,0.05 m 9.25,1.9 -1.35,-2.35 q -3.3,1.85 -4.8,4.75 Q 2,-9.2 0.85,-5.1 h 1.3 v -0.25 q 0,-2.3 4,-6.15 1.65,-1.55 3.15,-2.35 M 3.4,-2.7 H 1.05 v 0.85 3.6 H 2.6 L 3.4,-2.7 M 2.8,-5.1 h 1.75 q 1.6,-2.45 4.75,-4.75 l 1.75,-1.2 -1.1,-1.75 Q 7.65,-11.6 5.9,-9.85 3.5,-7.5 2.8,-5.1 m 6.3,-2.85 -3.4,2.85 8.9,-0.05 q -0.65,-0.8 -1.35,-2 L 11.85,-9.7 9.1,-7.95 m 10.05,2.8 -3.95,-6.1 -2.15,0.9 3,5.2 h 3.1 m -23.3,-15.7 h -0.1 l -1.25,2 -1.25,2.4 0.75,0.7 2.05,2.2 q 0.1,-1.2 1.3,-2.15 1.05,-0.9 2.25,-0.8 l 0.1,-4.4 -3.85,0.05 m -1.65,0 -1.7,-0.1 -1.95,2.55 1.8,1.25 0.15,-0.2 0.8,-2.15 0.9,-1.35 m -3.5,7 q 1.5,0.8 3.15,2.35 4,3.85 4,6.15 v 0.25 h 1.3 q -1.15,-4.1 -2.3,-6.35 -1.5,-2.9 -4.8,-4.75 l -1.35,2.35 m 6.15,1.35 0.2,0.25 v -0.25 l -0.1,0.05 -0.1,-0.05 m 2.8,-3.55 v -0.05 l -0.05,0.05 h 0.05 m -12.15,1.4 2.3,0.4 1.9,-2.2 -2,-0.9 -1.75,2.1 -0.45,0.6 m -1.85,2.25 q 1.05,0.2 2.2,0.8 l 1.2,-1.7 -2,-0.8 -1.4,1.7 m 1.3,2.05 -2.15,-0.9 -3.95,6.1 h 3.1 l 3,-5.2 m -1.55,5.2 8.9,0.05 -3.4,-2.85 -2.75,-1.75 -1.4,2.55 q -0.7,1.2 -1.35,2 m 11.2,2.45 0.8,4.45 h 1.55 L -1,-2.7 h -2.4 m 0.6,-2.4 q -0.7,-2.4 -3.1,-4.75 -1.75,-1.75 -4.05,-2.95 l -1.1,1.75 1.75,1.2 q 3.15,2.3 4.75,4.75 h 1.75 m 1.6,9.8 h -0.95 l 0.2,0.95 H -1.3 L -1.05,5.6 V 4.7 H -1.2 m 0.1,4.05 h -0.25 -0.1 l 0.3,2 0.05,-2 M 2.15,4.7 H 1.05 V 5.6 L 1.5,5.65 H 1.95 L 2.15,4.7 M 1.45,8.75 H 1.35 1.1 l 0.05,2 0.3,-2"
         fill="#6b6b6b"
         fill-rule="evenodd"
         stroke="none"
         id="path1" />
      <path
         d="m 12.5,-14.65 -2.3,0.4 -1.9,-2.2 2,-0.9 1.75,2.1 0.45,0.6 m 1.85,2.25 q -1.05,0.2 -2.2,0.8 l -1.2,-1.7 2,-0.8 1.4,1.7 m -28.7,0 1.4,-1.7 2,0.8 -1.2,1.7 q -1.15,-0.6 -2.2,-0.8 m 1.85,-2.25 0.45,-0.6 1.75,-2.1 2,0.9 -1.9,2.2 -2.3,-0.4"
         fill="#666666"
         fill-opacity="0.6"
         fill-rule="evenodd"
         stroke="none"
         id="path2" />
      <path
         d="m 5.8,-20.85 1.7,-0.1 1.95,2.55 -1.8,1.25 -0.15,-0.2 -0.8,-2.15 -0.9,-1.35 m 13.35,15.7 h -3.1 l -3,-5.2 2.15,-0.9 3.95,6.1 m -24.95,-15.7 -0.9,1.35 -0.8,2.15 -0.15,0.2 -1.8,-1.25 1.95,-2.55 1.7,0.1 m -7.25,10.5 -3,5.2 h -3.1 l 3.95,-6.1 2.15,0.9"
         fill="#d4d4d4"
         fill-opacity="0.6"
         fill-rule="evenodd"
         stroke="none"
         id="path3" />
      <path
         d="m 4.15,-20.85 h 0.1 l 1.25,2 1.25,2.4 -0.75,0.7 -2.05,2.2 q -0.1,-1.2 -1.3,-2.15 -1,-0.85 -2.1,-0.8 l -0.15,-4.4 3.75,0.05 m -4.1,5.1 0.2,-0.05 q 1.4,2.45 2,4.6 -1.9,3.1 -1.9,6.1 h -0.7 q 0,-3 -1.9,-6.1 0.6,-2.15 2.05,-4.65 l 0.25,0.1 m 9.05,7.8 2.75,-1.75 1.4,2.55 q 0.7,1.2 1.35,2 L 5.7,-5.1 9.1,-7.95 m -13.25,-12.9 3.85,-0.05 -0.1,4.4 q -1.2,-0.1 -2.25,0.8 -1.2,0.95 -1.3,2.15 l -2.05,-2.2 -0.75,-0.7 1.25,-2.4 1.25,-2 h 0.1 m -10.45,15.7 q 0.65,-0.8 1.35,-2 l 1.4,-2.55 2.75,1.75 3.4,2.85 -8.9,-0.05"
         fill="#afafaf"
         fill-opacity="0.6"
         fill-rule="evenodd"
         stroke="none"
         id="path4" />
      <path
         d="m 9.3,-13.85 q -1.5,0.8 -3.15,2.35 -4,3.85 -4,6.15 v 0.25 h -1.3 q 1.15,-4.1 2.3,-6.35 1.5,-2.9 4.8,-4.75 l 1.35,2.35 M 2.8,-5.1 q 0.7,-2.4 3.1,-4.75 1.75,-1.75 4.05,-2.95 l 1.1,1.75 -1.75,1.2 Q 6.15,-7.55 4.55,-5.1 H 2.8 m -12.1,-8.75 1.35,-2.35 q 3.3,1.85 4.8,4.75 1.15,2.25 2.3,6.35 h -1.3 v -0.25 q 0,-2.3 -4,-6.15 -1.65,-1.55 -3.15,-2.35 m 6.5,8.75 h -1.75 q -1.6,-2.45 -4.75,-4.75 l -1.75,-1.2 1.1,-1.75 q 2.3,1.2 4.05,2.95 2.4,2.35 3.1,4.75"
         fill="#919191"
         fill-opacity="0.6"
         fill-rule="evenodd"
         stroke="none"
         id="path5" />
    </g>
  </defs>
</svg>
