<?xml version="1.0" encoding="UTF-8" standalone="no"?>
<svg
   ffdec:objectType="frame"
   height="41.599998"
   width="45.700001"
   version="1.1"
   id="svg5"
   sodipodi:docname="1.svg"
   xmlns:inkscape="http://www.inkscape.org/namespaces/inkscape"
   xmlns:sodipodi="http://sodipodi.sourceforge.net/DTD/sodipodi-0.dtd"
   xmlns:xlink="http://www.w3.org/1999/xlink"
   xmlns="http://www.w3.org/2000/svg"
   xmlns:svg="http://www.w3.org/2000/svg"
   xmlns:ffdec="https://www.free-decompiler.com/flash">
  <sodipodi:namedview
     id="namedview5"
     pagecolor="#ffffff"
     bordercolor="#000000"
     borderopacity="0.25"
     inkscape:showpageshadow="2"
     inkscape:pageopacity="0.0"
     inkscape:pagecheckerboard="0"
     inkscape:deskcolor="#d1d1d1"
     fit-margin-top="5"
     fit-margin-left="5"
     fit-margin-right="5"
     fit-margin-bottom="5" />
  <g
     transform="translate(22.85,21.05)"
     id="g1">
    <use
       ffdec:characterId="2210"
       height="41.599998"
       transform="translate(-22.85,-21.05)"
       width="45.700001"
       xlink:href="#shape0"
       id="use1" />
  </g>
  <defs
     id="defs5">
    <g
       id="shape0"
       transform="translate(22.85,21.05)">
      <path
         d="m 19.1,-19.3 0.3,0.5 v 16.25 0.8 4.9 l 0.9,-0.1 q 2.55,-0.1 2.55,1.3 L 22.55,5.2 20.65,5.5 19.4,5.45 V 6.2 l 0.05,0.25 q 0,0.5 -0.05,0.15 v 8.05 0.15 h 0.65 0.85 l 0.3,0.05 0.3,-0.1 q 1.05,0 1.05,3.25 v 1.55 l -0.25,1 h -37.2 l -0.2,-0.6 -2,0.15 q -3.7,0 -5,-2.9 -0.75,-1.7 -0.75,-5.2 l 0.25,-17.65 0.1,-2.7 0.8,-3.75 q 0.4,-2.1 3.55,-3.15 3.25,-1.1 3.25,1.8 l -0.05,0.9 1.55,0.4 q 0.6,0.1 0.75,1.9 l 0.6,0.1 v -8.65 l 0.25,-0.5 -0.1,-0.6 q 0,-1 1.8,-1.1 v -0.05 H 17.4 V -21 q 1.85,0.1 1.85,1.1 l -0.15,0.6 m -1.8,2.5 v -1.9 H 7.9 l 0.05,0.25 v 0.2 h 3.65 v 0.05 l 1.65,0.25 0.15,0.6 -0.65,0.4 v 0.15 0.15 0.35 l 0.65,-0.05 h 0.15 l 1.95,0.15 0.1,0.2 q 0.9,0.35 0.85,2.65 L 16.05,-9 q 0.2,2.55 0.05,7.6 v 0.8 l 0.7,-0.05 0.5,0.05 V -1.85 -2.4 -16.8 m -9.35,0 -0.05,0.45 v 0.2 l 2.95,-0.15 v -0.35 -0.15 -0.05 h -2.9 v 0.05 m 6.05,3.2 v -0.85 L 3.9,-14.7 H 3.85 3.65 3.45 l -10.1,0.25 v 1.1 0.1 l -0.35,4.3 0.05,7.5 q 0.2,4.35 -0.15,6.1 L 1.35,4.45 H 6 l 8.45,0.2 Q 14.1,2.9 14.25,-1.45 l 0.05,-7.5 -0.3,-4.4 v -0.25 m -16.5,0.5 0.9,-0.05 0.7,0.05 h 0.1 l 1.2,0.4 1.1,0.75 q 0.95,0.85 1.25,2 l 0.15,1.3 q 0,1.15 -0.85,2.5 -1.2,1.8 -3.25,1.8 -2.7,0 -4.05,-1.7 Q -6.1,-7.1 -6.1,-8 q 0,-3.95 2.6,-4.85 l 1,-0.25 m 10.55,0.05 0.9,-0.1 1.05,0.1 1,0.25 q 2.05,0.85 2.35,3.75 L 13.4,-8 q 0,0.9 -0.8,1.95 -1.35,1.7 -4.1,1.7 -2,0 -3.2,-1.8 -0.85,-1.35 -0.85,-2.5 0,-2.05 1.4,-3.3 0.95,-0.9 2.2,-1.1 m -4.15,-5.2 h 2.05 v -0.2 L 6,-18.7 H 2.15 v 0.35 0.1 h 1.3 l 0.2,0.05 0.25,-0.05 m -1.7,1.45 v 0.75 L 3.65,-16 6,-16.1 5.9,-16.4 v -0.4 -0.05 H 2.2 v 0.05 m -1.95,0 v -0.05 h -1.4 -0.45 -1.9 v 0.2 0.35 l 3.8,0.15 -0.05,-0.15 v -0.5 m -5.7,-0.05 V -17 l -0.65,-0.35 0.05,-0.2 0.15,-0.4 1.6,-0.25 v -0.05 H 0.25 L 0.3,-18.7 H -9.95 v 1.55 14.75 0.55 8.2 L -9.9,6.2 v 0.25 q 0,0.5 -0.05,0.15 v 8.25 H -9.3 -5 l -0.15,-0.8 -0.05,-1.55 0.25,-1.85 q -0.4,-0.15 -0.4,-0.55 0,-0.7 1.05,-0.7 l 2.15,0.1 Q -1.8,7.55 -0.65,6.45 L -7.6,6.2 Q -8.75,6.05 -8.75,5.45 l 0.3,-0.6 -0.3,-2.65 V -1.4 -9 l -0.35,-4.35 q -0.1,-2.3 0.8,-2.65 l 0.15,-0.2 1,-0.15 h 1.05 l 0.6,0.05 v -0.3 l 0.05,-0.25 m 15.7,5 -1.3,-0.05 -1.1,0.2 q -1.2,0.3 -1.7,1.05 l -0.25,0.4 q -0.25,0.5 -0.25,1.15 0.1,0.8 0.5,1.55 0.8,1.5 2.35,1.5 2.1,0 3.1,-1.1 0.7,-0.8 0.7,-1.85 0,-2.5 -2.05,-2.85 M -4.95,-9 q 0,1.05 0.7,1.85 1,1.1 3.05,1.1 1.6,0 2.4,-1.5 L 1.7,-9.1 q 0,-1.6 -1.4,-2.3 l -1.95,-0.5 -1.65,0.15 q -1,0.25 -1.35,1.2 L -4.95,-9 m 25.5,26.4 V 16.9 H -13.2 v 0.85 0.25 0.5 h 0.9 32 0.8 V 18 l 0.05,-0.6 M 16.1,5.45 q 0,0.6 -1.15,0.75 L 8,6.45 l 1,1.3 0.65,1.5 h 1.9 L 11.9,9.5 12.15,9.4 q 0.6,0.2 0.6,2.3 l -0.2,3.15 h 3.55 0.55 0.2 0.45 V 6.6 Q 17.25,6.95 17.25,6.45 V 6.2 L 17.3,6.35 V 1.7 H 16.85 L 16.1,1.65 V 2.2 l -0.3,2.65 0.3,0.6 m -4.5,5.05 -1.75,0.05 v 0.2 l -0.3,2.2 0.3,0.3 q 0.4,0.5 0.4,0.9 v 0.25 l -0.3,0.4 -0.05,0.05 h 1.85 Q 11.6,14.4 11.6,13.55 L 11.55,11.7 11.6,10.5 M 4.35,7.8 4.05,8.3 3.5,8.6 2.75,8.2 V 7.8 7.75 q 0,-0.9 0.8,-0.8 0.8,0.1 0.8,0.75 V 7.8 M 0.9,7.9 Q 1.4,7.85 1.55,8.25 L 1.65,8.75 1.4,9.35 0.95,9.6 0.55,9.55 Q 0.2,9.45 0.1,9.2 V 8.8 L 0.15,8.4 q -0.85,0.9 -0.85,2.05 0,0.9 0.8,1.95 0.6,0.8 1.55,1.25 L 3.1,14 4,14.05 6.55,13.6 7.1,13.3 6.7,12.9 5.9,12.05 V 12 q 0,-1 0.75,-0.9 L 6.55,10.9 6.5,10.55 q 0,-0.75 0.7,-0.8 h 0.1 q 0.8,0 0.8,0.8 L 7.95,11.1 7.8,11.2 7.45,11.35 8.1,11.75 8.15,11.8 8.25,11.35 V 10.8 Q 8.25,6.35 3.8,6.7 2,6.85 0.7,7.85 L 0.55,7.95 0.9,7.9 m 0.6,4.2 -0.65,0.3 q -0.6,0 -0.75,-0.5 L 0.05,11.45 q 0,-0.5 0.25,-0.75 0.2,-0.25 0.65,-0.15 0.85,0.2 0.85,0.9 L 1.5,12.1 m 2.15,-0.4 q 0.8,0.05 0.9,0.85 v 0.15 l -0.3,0.9 -0.65,0.2 q -0.45,0 -0.65,-0.3 L 2.75,13.15 2.65,12.7 2.7,12.3 Q 2.85,11.65 3.65,11.7 M 5.1,8.4 5.15,7.95 Q 5.35,7.25 6.1,7.35 7.05,7.5 7.05,8.4 L 6.9,9.05 6.75,9.2 6.05,9.5 q -0.7,0 -0.9,-0.65 L 5.1,8.4 m 3.45,6.3 -0.1,0.15 H 8.8 L 8.55,14.7 M -21,-5.65 l 0.4,6.45 1.1,-1.7 0.9,-1.1 -0.15,-0.65 V -3.9 l 0.1,-2.65 -0.15,-0.75 -0.9,-0.15 q -0.3,-0.1 -0.3,-0.7 l 0.25,-0.65 -0.05,-0.35 q 0,-0.45 0.85,-0.7 l 0.25,-1.8 q 0.05,-0.8 2.1,-0.9 -0.2,-1.15 -1.25,-1.15 -1.85,0 -2.7,4 L -21,-5.65 m 5.95,-4.7 h 0.75 l 0.05,-0.35 h -0.3 -0.5 -1.1 -0.85 l 0.15,0.45 0.7,-0.05 0.95,-0.05 h 0.15 m 0,8.25 h 1.2 l -0.4,-3.25 -0.05,-1.85 h -0.15 -0.6 -1.1 -0.45 l -0.25,3.25 v 1.45 l -0.05,0.3 v 0.05 h 0.4 0.35 l 1.1,0.05 m 2.6,-5.15 h -0.2 q -0.05,3 -0.3,4.4 l 0.6,1 0.15,0.3 0.15,0.3 v -0.5 -0.8 -4.75 l -0.4,0.05 m -3.75,5.95 h -1.25 l -0.25,0.35 -0.65,1.3 2.15,0.05 h 1.15 2.25 L -13,0 l -0.55,-1.45 -1.5,0.15 h -1.15 m 13.9,12.05 h -1.5 q 0.15,0.65 0.15,1.8 l -0.1,2.3 H 0 L -0.45,14.55 -1,14.05 q -1.35,-1.35 -1.35,-2.7 l 0.05,-0.6 M -12.75,2.2 h -6.1 -0.15 v 0.3 l 1.75,-0.1 h 4.45 l 0.05,-0.2 m -7.5,0.5 V 1.95 l -0.3,-0.2 -0.45,6.9 q 0,5.3 0.5,6.75 0.95,2.7 4.65,2.7 l 0.65,0.1 V 18 q 0,-3.25 1.05,-3.25 l 0.3,0.1 0.25,-0.05 h 0.95 0.6 V 14.65 6.6 Q -12.1,6.95 -12.1,6.45 L -12.05,6.2 V 4.05 l -3.3,0.2 h -4.3 L -20.3,3.6 -20.25,3.5 -20.3,3.1 -20.2,2.85 -20.25,2.7"
         fill="#6b6b6b"
         fill-rule="evenodd"
         stroke="none"
         id="path1" />
      <path
         d="m 12.75,-16.8 v -0.15 l 0.65,-0.4 -0.15,-0.6 -1.65,-0.25 v -0.05 H 7.95 v -0.2 L 7.9,-18.7 h 9.4 v 1.9 h -0.1 -4.45 m -4.8,0 v -0.05 h 2.9 v 0.05 h -2.9 m -14.6,3.55 v -0.1 -1.1 l 10.1,-0.25 h 0.2 0.2 0.05 l 10.1,0.25 v 0.85 q -1.15,0.45 -4,0.55 l -1.05,-0.1 -0.9,0.1 -1.2,-0.05 H -0.8 -0.9 l -0.7,-0.05 -0.9,0.05 h -3.75 l -0.4,-0.15 m 10.55,-5 -0.25,0.05 -0.2,-0.05 h -1.3 v -0.1 -0.35 H 6 l -0.05,0.25 v 0.2 H 3.9 m -1.7,1.45 v -0.05 h 3.7 v 0.05 H 2.2 m -3.35,-0.05 h 1.4 v 0.05 l -1.4,-0.05 m -8.8,-0.3 V -18.7 H 0.3 l -0.05,0.45 H -4.3 v 0.05 l -1.6,0.25 -0.15,0.4 -0.05,0.2 0.65,0.35 v 0.15 H -9 l -0.95,-0.3 m -3.25,34.9 V 16.9 h 33.75 v 0.5 l -5.1,0.2 -28.45,0.15 h -0.2 m -1.85,-28.45 v 0.35 h -0.15 l -0.95,0.05 v -0.4 h 1.1 m 0,3.5 v 5.1 l -1.1,-0.05 V -7.2 h 1.1 m -1.15,7.6 v -1.7 h 1.15 v 1.7 h -1.15"
         fill="#8e8e8e"
         fill-rule="evenodd"
         stroke="none"
         id="path2" />
      <path
         d="m 12.75,-16.8 h 4.45 0.1 v 14.4 0.55 1.25 L 16.8,-0.65 16.1,-0.6 V -1.4 Q 16.25,-6.45 16.05,-9 l 0.4,-4.35 Q 16.5,-15.65 15.6,-16 l -0.1,-0.2 -1.95,-0.15 H 13.4 l -0.65,0.05 v -0.35 -0.15 m -1.9,0 v 0.15 0.35 l -2.95,0.15 v -0.2 l 0.05,-0.45 h 2.9 m 3.15,3.2 v 0.25 l 0.3,4.4 -0.05,7.5 q -0.15,4.35 0.2,6.1 L 6,4.45 H 1.35 l -8.45,0.2 q 0.35,-1.75 0.15,-6.1 l -0.05,-7.5 0.35,-4.3 0.4,0.15 h 3.75 l -1,0.25 q -2.6,0.9 -2.6,4.85 0,0.9 0.85,1.95 1.35,1.7 4.05,1.7 2.05,0 3.25,-1.8 0.85,-1.35 0.85,-2.5 l -0.15,-1.3 q -0.3,-1.15 -1.25,-2 l -1.1,-0.75 -1.2,-0.4 h 7.65 l 1.2,0.05 q -1.25,0.2 -2.2,1.1 -1.4,1.25 -1.4,3.3 0,1.15 0.85,2.5 1.2,1.8 3.2,1.8 2.75,0 4.1,-1.7 0.8,-1.05 0.8,-1.95 l -0.05,-1.05 q -0.3,-2.9 -2.35,-3.75 l -1,-0.25 q 2.85,-0.1 4,-0.55 m -8.1,-3.2 v 0.4 L 6,-16.1 3.65,-16 2.2,-16.05 v -0.75 h 3.7 m -5.65,0 v 0.5 l 0.05,0.15 -3.8,-0.15 v -0.35 -0.2 h 1.9 0.45 l 1.4,0.05 m -10.2,-0.35 0.95,0.3 h 3.55 l -0.05,0.25 v 0.3 l -0.6,-0.05 h -1.05 l -1,0.15 -0.15,0.2 q -0.9,0.35 -0.8,2.65 L -8.75,-9 v 7.6 3.6 l 0.3,2.65 -0.3,0.6 q 0,0.6 1.15,0.75 l 6.95,0.25 Q -1.8,7.55 -2.15,9.5 L -4.3,9.4 q -1.05,0 -1.05,0.7 0,0.4 0.4,0.55 l -0.25,1.85 0.05,1.55 0.15,0.8 H -9.3 -9.95 V 6.6 Q -9.9,6.95 -9.9,6.45 V 6.2 L -9.95,6.35 V -1.85 -2.4 -17.15 M 20.55,17.4 20.5,18 v 0.5 h -0.8 -32 -0.9 V 18 17.75 h 0.2 l 28.45,-0.15 5.1,-0.2 m -8.95,-6.9 -0.05,1.2 0.05,1.85 q 0,0.85 0.15,1.3 H 9.9 l 0.05,-0.05 0.3,-0.4 v -0.25 q 0,-0.4 -0.4,-0.9 l -0.3,-0.3 0.3,-2.2 v -0.2 L 11.6,10.5 M 16.1,5.45 15.8,4.85 16.1,2.2 V 1.65 L 16.85,1.7 H 17.3 V 6.35 L 17.25,6.2 v 0.25 q 0,0.5 0.05,0.15 v 8.25 h -0.45 -0.2 -0.55 -3.55 l 0.2,-3.15 q 0,-2.1 -0.6,-2.3 L 11.9,9.5 11.55,9.25 H 9.65 L 9,7.75 8,6.45 14.95,6.2 Q 16.1,6.05 16.1,5.45 M -15.05,-10.7 h 0.5 0.3 l -0.05,0.35 h -0.75 v -0.35 m -1.1,0.4 -0.7,0.05 -0.15,-0.45 h 0.85 v 0.4 m 1.1,3.1 h 0.6 0.15 l 0.05,1.85 0.4,3.25 h -1.2 v -5.1 m -1.1,5.05 h -0.35 -0.4 V -2.2 l 0.05,-0.3 v -1.45 l 0.25,-3.25 h 0.45 v 5.05 m 3.95,0.6 -0.15,-0.3 -0.6,-1 q 0.25,-1.4 0.3,-4.4 h 0.2 l -0.2,1.85 0.45,3.85 m -4,1.95 -2.15,-0.05 0.65,-1.3 0.25,-0.35 h 1.25 v 1.7 m 1.15,-1.7 1.5,-0.15 0.55,1.45 0.2,0.4 h -2.25 v -1.7 m 2.3,3.5 -0.05,0.2 h -4.45 L -19,2.5 V 2.2 h 0.15 6.1 m 10.45,8.55 -0.05,0.6 q 0,1.35 1.35,2.7 l 0.55,0.5 0.45,0.3 h -3.75 l 0.1,-2.3 q 0,-1.15 -0.15,-1.8 h 1.5"
         fill="#797979"
         fill-rule="evenodd"
         stroke="none"
         id="path3" />
      <path
         d="m 6.15,-10.65 q 0.5,-0.75 1.7,-1.05 l 1.1,-0.2 1.3,0.05 0.25,1.4 -0.2,1 0.15,0.7 q 0,0.5 -0.4,0.9 -0.4,0.4 -0.9,0.4 -0.9,0 -1.2,-0.8 l -0.1,-0.5 Q 6.9,-8.9 6.45,-9.45 l -0.35,-0.8 v -0.2 l 0.05,-0.2 m -5.85,-0.75 0.1,1.1 q 0,0.8 -0.65,1.5 l -0.15,0.15 q -0.05,0.45 -0.4,0.8 -0.4,0.4 -0.9,0.4 -0.7,0 -1.05,-0.5 Q -4.25,-8 -4.8,-8.75 L -4.95,-9 l 0.3,-1.55 q 0.35,-0.95 1.35,-1.2 l 1.65,-0.15 1.95,0.5"
         fill="#eeeeee"
         fill-rule="evenodd"
         stroke="none"
         id="path4" />
      <path
         d="m 10.25,-11.85 q 2.05,0.35 2.05,2.85 0,1.05 -0.7,1.85 -1,1.1 -3.1,1.1 -1.55,0 -2.35,-1.5 -0.4,-0.75 -0.5,-1.55 0,-0.65 0.25,-1.15 l 0.2,-0.2 v 0.2 l 0.35,0.8 q 0.45,0.55 1.4,0.7 l 0.1,0.5 q 0.3,0.8 1.2,0.8 0.5,0 0.9,-0.4 0.4,-0.4 0.4,-0.9 l -0.15,-0.7 0.2,-1 -0.25,-1.4 M -4.95,-9 -4.8,-8.75 q 0.55,0.75 2.05,0.8 0.35,0.5 1.05,0.5 0.5,0 0.9,-0.4 0.35,-0.35 0.4,-0.8 L -0.25,-8.8 Q 0.4,-9.5 0.4,-10.3 l -0.1,-1.1 q 1.4,0.7 1.4,2.3 l -0.5,1.55 q -0.8,1.5 -2.4,1.5 -2.05,0 -3.05,-1.1 -0.7,-0.8 -0.7,-1.85 M 8.55,14.7 8.8,14.85 H 8.45 L 8.55,14.7 M 5.1,8.4 5.15,8.85 Q 5.35,9.5 6.05,9.5 L 6.75,9.2 6.9,9.05 7.05,8.4 Q 7.05,7.5 6.1,7.35 5.35,7.25 5.15,7.95 L 5.1,8.4 M 3.65,11.7 Q 2.85,11.65 2.7,12.3 l -0.05,0.4 0.1,0.45 0.2,0.35 q 0.2,0.3 0.65,0.3 l 0.65,-0.2 0.3,-0.9 V 12.55 Q 4.45,11.75 3.65,11.7 M 1.5,12.1 1.8,11.45 q 0,-0.7 -0.85,-0.9 Q 0.5,10.45 0.3,10.7 0.05,10.95 0.05,11.45 L 0.1,11.9 q 0.15,0.5 0.75,0.5 L 1.5,12.1 M 0.9,7.9 0.55,7.95 0.7,7.85 Q 2,6.85 3.8,6.7 8.25,6.35 8.25,10.8 v 0.55 L 8.15,11.8 8.1,11.75 7.45,11.35 7.8,11.2 7.95,11.1 8.1,10.55 q 0,-0.8 -0.8,-0.8 H 7.2 Q 6.5,9.8 6.5,10.55 l 0.05,0.35 0.1,0.2 Q 5.9,11 5.9,12 v 0.05 L 6.7,12.9 7.1,13.3 6.55,13.6 4,14.05 3.1,14 1.65,13.65 Q 0.7,13.2 0.1,12.4 -0.7,11.35 -0.7,10.45 -0.7,9.3 0.15,8.4 L 0.1,8.8 V 9.2 Q 0.2,9.45 0.55,9.55 L 0.95,9.6 1.4,9.35 1.65,8.75 1.55,8.25 Q 1.4,7.85 0.9,7.9 M 4.35,7.8 V 7.7 q 0,-0.65 -0.8,-0.75 -0.8,-0.1 -0.8,0.8 V 7.8 8.2 L 3.5,8.6 4.05,8.3 4.35,7.8"
         fill="#d7d7d7"
         fill-rule="evenodd"
         stroke="none"
         id="path5" />
    </g>
  </defs>
</svg>
