<?xml version="1.0" encoding="UTF-8" standalone="no"?>
<svg
   ffdec:objectType="frame"
   height="70.849998"
   width="69.199997"
   version="1.1"
   id="svg26"
   sodipodi:docname="1.svg"
   xmlns:inkscape="http://www.inkscape.org/namespaces/inkscape"
   xmlns:sodipodi="http://sodipodi.sourceforge.net/DTD/sodipodi-0.dtd"
   xmlns:xlink="http://www.w3.org/1999/xlink"
   xmlns="http://www.w3.org/2000/svg"
   xmlns:svg="http://www.w3.org/2000/svg"
   xmlns:ffdec="https://www.free-decompiler.com/flash">
  <sodipodi:namedview
     id="namedview26"
     pagecolor="#ffffff"
     bordercolor="#000000"
     borderopacity="0.25"
     inkscape:showpageshadow="2"
     inkscape:pageopacity="0.0"
     inkscape:pagecheckerboard="0"
     inkscape:deskcolor="#d1d1d1"
     fit-margin-top="5"
     fit-margin-left="5"
     fit-margin-right="5"
     fit-margin-bottom="5" />
  <g
     transform="translate(34.65,34.95)"
     id="g11">
    <use
       ffdec:characterId="669"
       height="51.450001"
       transform="translate(-27,-28.5)"
       width="53.700001"
       xlink:href="#shape0"
       id="use1" />
    <use
       ffdec:characterId="651"
       height="12.45"
       transform="translate(11.9,23.45)"
       width="19.1"
       xlink:href="#sprite0"
       id="use2" />
    <use
       ffdec:characterId="647"
       height="11.25"
       transform="matrix(-0.7092,0,0,-1,31.6319,30.1)"
       width="48.150002"
       xlink:href="#sprite1"
       id="use3" />
    <use
       ffdec:characterId="651"
       height="12.45"
       transform="translate(-29.6,23.45)"
       width="19.1"
       xlink:href="#sprite0"
       id="use4" />
    <use
       ffdec:characterId="647"
       height="11.25"
       transform="matrix(0.7092,0,0,-1,-32.6319,30.1)"
       width="48.150002"
       xlink:href="#sprite1"
       id="use5" />
    <use
       ffdec:characterId="653"
       height="53.900002"
       transform="matrix(1,0,0,1.0573,-34.65,-31.4929)"
       width="16.4"
       xlink:href="#sprite2"
       id="use6" />
    <use
       ffdec:characterId="653"
       height="53.900002"
       transform="matrix(-1,0,0,1.0573,34.55,-31.4929)"
       width="16.4"
       xlink:href="#sprite2"
       id="use7" />
    <use
       ffdec:characterId="653"
       height="53.900002"
       transform="matrix(0,1,1,0,-27.4,11.4)"
       width="16.4"
       xlink:href="#sprite2"
       id="use8" />
    <use
       ffdec:characterId="653"
       height="53.900002"
       transform="matrix(0,1,1,0,-27.4,-34.95)"
       width="16.4"
       xlink:href="#sprite2"
       id="use9" />
    <use
       ffdec:characterId="664"
       height="13.2"
       transform="matrix(0.7949,0,0,0.7949,-8.7461,-17.9461)"
       width="21.75"
       xlink:href="#sprite3"
       id="use10" />
    <use
       ffdec:characterId="664"
       height="13.2"
       transform="matrix(0.7949,0,0,0.7949,-8.7461,1.5539)"
       width="21.75"
       xlink:href="#sprite3"
       id="use11" />
  </g>
  <defs
     id="defs26">
    <g
       id="shape0"
       transform="translate(27,28.5)">
      <path
         d="m 19.65,-22.45 0.7,-0.05 0.45,0.25 q 0.4,0.15 0.4,0.5 v 0.1 q 0.5,0.95 0.4,2.75 v 0.3 l -0.4,4.75 q 0.15,5.8 -0.2,7.75 l 0.25,0.6 q 0,0.5 -0.8,0.85 L -19.4,-4.4 q -1.95,0.05 -1.95,-0.75 l 0.2,-0.15 -0.15,-0.45 -0.25,-2.3 v -0.85 -2.65 -1.85 -1.5 l 0.05,-1.35 v -0.95 l 0.1,-1.1 v -0.3 l 0.1,-1.35 q 0.2,-2.5 0.65,-2 l 0.6,-0.2 1.3,0.2 3.1,-0.3 29.5,-0.05 3.45,-0.2 2.35,0.05 m -39.6,3.85 0.1,1.55 0.25,5.45 q 0.2,4.15 -0.2,5.85 l 2.9,-0.15 16.35,-0.15 10.65,-0.2 9.8,0.05 q -0.25,-1.05 -0.35,-3.25 v -4.3 -4.5 -0.35 l -0.1,-2.25 h -0.6 l -34.5,0.15 h -3.9 -0.6 -0.05 l 0.15,0.65 v 0.75 l 0.1,0.7 m 39.5,19.5 -0.1,-2.3 h -0.6 l -34.5,0.15 h -3.9 -0.6 -0.05 l 0.15,0.6 v 0.8 l 0.1,0.75 0.1,1.5 0.25,5.5 q 0.2,4.1 -0.2,5.8 l 2.9,-0.1 16.35,-0.15 10.65,-0.25 9.8,0.05 Q 19.65,12.2 19.55,10 V 5.65 1.15 0.9 m -2.25,-4 2.35,0.05 0.7,-0.05 0.45,0.3 0.4,0.55 v 0.05 q 0.5,1 0.4,2.85 V 0.9 l -0.4,4.7 q 0.15,5.8 -0.2,7.75 L 21.25,14 q 0,0.5 -0.8,0.75 L -19.4,15.1 q -1.95,0.05 -1.95,-0.75 l 0.2,-0.2 -0.15,-0.45 -0.25,-2.3 V 10.5 7.95 6 4.6 L -21.5,3.2 V 2.3 l 0.1,-1.15 V 0.9 l 0.1,-1.4 q 0.2,-2.5 0.65,-1.95 l 0.6,-0.25 1.3,0.25 3.1,-0.35 29.5,-0.1 3.45,-0.2"
         fill="#6b6b6b"
         fill-rule="evenodd"
         stroke="none"
         id="path11" />
      <path
         d="m -19.95,-18.6 -0.1,-0.7 v -0.75 l -0.15,-0.65 h 0.05 0.6 3.9 l 34.5,-0.15 h 0.6 l 0.1,2.25 h -39.5 m 0,19.5 -0.1,-0.75 v -0.8 l -0.15,-0.6 h 0.05 0.6 3.9 l 34.5,-0.15 h 0.6 l 0.1,2.3 h -39.5"
         fill="#ffffff"
         fill-rule="evenodd"
         stroke="none"
         id="path12" />
      <path
         d="m 19.65,-22.45 -2.35,-0.05 -3.45,0.2 -29.5,0.05 -3.1,0.3 -1.3,-0.2 -0.6,0.2 q -0.45,-0.5 -0.65,2 l -0.1,1.35 v 0.3 l -0.1,1.1 v 0.95 l -0.05,1.35 v 1.5 1.85 2.65 0.85 l 0.25,2.3 0.15,0.45 -0.2,0.15 q 0,0.8 1.95,0.75 L 20.45,-4.65 Q 21.25,-5 21.25,-5.5 L 21,-6.1 q 0.35,-1.95 0.2,-7.75 l 0.4,-4.75 v -0.3 q 0.1,-1.8 -0.4,-2.75 v -0.1 q 0,-0.35 -0.4,-0.5 l -0.45,-0.25 -0.7,0.05 m -0.1,3.85 v 0.35 4.5 4.3 q 0.1,2.2 0.35,3.25 l -9.8,-0.05 -10.65,0.2 -16.35,0.15 -2.9,0.15 q 0.4,-1.7 0.2,-5.85 l -0.25,-5.45 -0.1,-1.55 h 39.5 m -39.5,19.5 h 39.5 V 1.15 5.65 10 q 0.1,2.2 0.35,3.25 l -9.8,-0.05 -10.65,0.25 -16.35,0.15 -2.9,0.1 q 0.4,-1.7 0.2,-5.8 l -0.25,-5.5 -0.1,-1.5 m 37.25,-4 -3.45,0.2 -29.5,0.1 -3.1,0.35 -1.3,-0.25 -0.6,0.25 Q -21.1,-3 -21.3,-0.5 l -0.1,1.4 v 0.25 l -0.1,1.15 v 0.9 l -0.05,1.4 V 6 7.95 10.5 11.4 l 0.25,2.3 0.15,0.45 -0.2,0.2 q 0,0.8 1.95,0.75 L 20.45,14.75 Q 21.25,14.5 21.25,14 L 21,13.35 Q 21.35,11.4 21.2,5.6 L 21.6,0.9 V 0.65 Q 21.7,-1.2 21.2,-2.2 V -2.25 L 20.8,-2.8 20.35,-3.1 19.65,-3.05 17.3,-3.1 M 26.2,-28 V 22.45 H -26.5 V -28 h 52.7"
         fill="#e5e5e5"
         fill-rule="evenodd"
         stroke="none"
         id="path13" />
      <path
         d="M 26.2,-28 V 22.45 H -26.5 V -28"
         fill="none"
         stroke="#6b6b6b"
         stroke-linecap="round"
         stroke-linejoin="round"
         stroke-width="1"
         id="path14" />
    </g>
    <g
       id="sprite0"
       transform="translate(0.75,0.75)">
      <use
         ffdec:characterId="650"
         height="12.45"
         transform="translate(-0.75,-0.75)"
         width="19.1"
         xlink:href="#shape1"
         id="use14" />
    </g>
    <g
       id="shape1"
       transform="translate(0.75,0.75)">
      <path
         d="M 10.15,8.8 V 8.7 L 8.8,8.8 7.45,8.7 V 8.8 L 6,8.7 Q 5.2,8.55 5.15,7.8 L 5.2,7.35 8.6,7.15 12.4,7.35 12.45,7.8 Q 12.4,8.55 11.6,8.7 l -1.45,0.1 m 0,-7.3 V 1.4 q 2.65,0.1 2.4,1.65 L 12.3,4.2 q 0,0.5 0.75,0.5 0.65,0 1.15,-0.4 l 0.75,-0.4 q 1.3,0 1.15,1.3 l -0.05,1 -0.4,0.45 L 14.45,6.9 13.6,6.7 13.05,6.4 H 13 l -0.35,-0.15 -0.1,0.2 -1.4,-0.1 h -1 -1.1 -2.6 L 5.05,6.45 4.95,6.25 4.6,6.4 H 4.55 L 4,6.7 3.15,6.9 1.95,6.65 1.55,6.2 1.5,5.2 Q 1.35,3.9 2.65,3.9 L 3.4,4.3 Q 3.9,4.7 4.55,4.7 5.3,4.7 5.3,4.2 L 5.05,3.05 Q 4.8,1.5 7.45,1.4 V 1.5 L 8.9,1.4 10.15,1.5"
         fill="#ffffff"
         fill-rule="evenodd"
         stroke="none"
         id="path15" />
      <path
         d="m 14.15,2.55 q 2.45,-0.45 3.2,1.3 L 17.6,6.2 q 0,2.35 -2.65,2.35 L 14.1,8.4 14.3,9.3 q 0,1.65 -4.4,1.65 H 8.7 7.7 Q 3.3,10.95 3.3,9.3 L 3.5,8.4 2.65,8.55 Q 0,8.55 0,6.2 0,4.5 0.25,3.85 1,2.1 3.45,2.55 3.55,1.4 3.95,1 4.7,0.2 7.05,0 L 8.75,0.05 10.55,0 q 2.35,0.2 3.1,1 0.4,0.4 0.5,1.55 M 10.15,1.5 8.9,1.4 7.45,1.5 V 1.4 Q 4.8,1.5 5.05,3.05 L 5.3,4.2 Q 5.3,4.7 4.55,4.7 3.9,4.7 3.4,4.3 L 2.65,3.9 q -1.3,0 -1.15,1.3 l 0.05,1 0.4,0.45 L 3.15,6.9 4,6.7 4.55,6.4 H 4.6 l 0.35,-0.15 0.1,0.2 1.4,-0.1 h 2.6 1.1 1 l 1.4,0.1 0.1,-0.2 L 13,6.4 h 0.05 l 0.55,0.3 0.85,0.2 1.2,-0.25 0.4,-0.45 0.05,-1 Q 16.25,3.9 14.95,3.9 L 14.2,4.3 Q 13.7,4.7 13.05,4.7 12.3,4.7 12.3,4.2 L 12.55,3.05 Q 12.8,1.5 10.15,1.4 v 0.1 m 0,7.3 1.45,-0.1 Q 12.4,8.55 12.45,7.8 L 12.4,7.35 8.6,7.15 5.2,7.35 5.15,7.8 Q 5.2,8.55 6,8.7 L 7.45,8.8 V 8.7 L 8.8,8.8 10.15,8.7 v 0.1"
         fill="#6b6b6b"
         fill-rule="evenodd"
         stroke="none"
         id="path16" />
      <path
         d="m 14.15,2.55 q 2.45,-0.45 3.2,1.3 L 17.6,6.2 q 0,2.35 -2.65,2.35 L 14.1,8.4 14.3,9.3 q 0,1.65 -4.4,1.65 H 8.7 7.7 Q 3.3,10.95 3.3,9.3 L 3.5,8.4 2.65,8.55 Q 0,8.55 0,6.2 0,4.5 0.25,3.85 1,2.1 3.45,2.55 3.55,1.4 3.95,1 4.7,0.2 7.05,0 L 8.75,0.05 10.55,0 q 2.35,0.2 3.1,1 0.4,0.4 0.5,1.55 z"
         fill="none"
         stroke="#6b6b6b"
         stroke-linecap="round"
         stroke-linejoin="round"
         stroke-width="1.5"
         id="path17" />
    </g>
    <g
       id="sprite1"
       transform="translate(0.75,0.75)">
      <use
         ffdec:characterId="646"
         height="11.25"
         transform="translate(-0.75,-0.75)"
         width="48.150002"
         xlink:href="#shape2"
         id="use17" />
    </g>
    <g
       id="shape2"
       transform="translate(0.75,0.75)">
      <path
         d="m 46.65,4.75 q 0,1.5 -1.75,2.05 L 39,7.65 29.4,7.75 28.9,7.9 h -5.85 l -10.1,1 -3.2,0.4 -2.7,0.45 H 3.25 L 1.95,9.3 Q 0.6,8.75 0.2,8.15 0,7.85 0,6.55 0,3.55 3.1,2.25 5.7,1.1 12.95,0.2 L 14.55,0 h 4.35 l 9.55,0.75 h 3.3 q 13.75,1.55 14.5,3.4 l 0.4,0.25 V 4.75 M 38.15,3.65 15.8,2.6 12.95,2.75 Q 2.4,3.5 2.4,6.45 q 0,0.6 0.35,0.7 l 2.3,0.2 7.9,-0.7 0.85,-0.1 8.85,-0.9 H 28.5 L 29.05,5.5 38.7,5.4 43.5,4.8 39.1,3.85 38.15,3.65"
         fill="#6b6b6b"
         fill-rule="evenodd"
         stroke="none"
         id="path18" />
      <path
         d="m 38.15,3.65 0.95,0.2 4.4,0.95 -4.8,0.6 -9.65,0.1 -0.55,0.15 h -5.85 l -8.85,0.9 -0.85,0.1 -7.9,0.7 -2.3,-0.2 Q 2.4,7.05 2.4,6.45 2.4,3.5 12.95,2.75 L 15.8,2.6 38.15,3.65"
         fill="#ffffff"
         fill-rule="evenodd"
         stroke="none"
         id="path19" />
      <path
         d="m 46.65,4.75 q 0,1.5 -1.75,2.05 L 39,7.65 29.4,7.75 28.9,7.9 h -5.85 l -10.1,1 -3.2,0.4 -2.7,0.45 H 3.25 L 1.95,9.3 Q 0.6,8.75 0.2,8.15 0,7.85 0,6.55 0,3.55 3.1,2.25 5.7,1.1 12.95,0.2 L 14.55,0 h 4.35 l 9.55,0.75 h 3.3 q 13.75,1.55 14.5,3.4 l 0.4,0.25 z"
         fill="none"
         stroke="#6b6b6b"
         stroke-linecap="round"
         stroke-linejoin="round"
         stroke-width="1.5"
         id="path20" />
    </g>
    <g
       id="sprite2"
       transform="translate(0.75,0.75)">
      <use
         ffdec:characterId="652"
         height="53.900002"
         transform="translate(-0.75,-0.75)"
         width="16.4"
         xlink:href="#shape3"
         id="use20" />
    </g>
    <g
       id="shape3"
       transform="translate(0.75,0.75)">
      <path
         d="m 10.75,9.05 0.2,1.6 H 11 l -0.1,32.7 q 0.4,0.15 0.85,0.45 2.3,1.55 2.3,3.85 0,1 -0.7,2.3 -1.15,2.1 -3.35,2.1 -1.8,0 -2.6,-0.95 H 7.35 Q 6.45,52.4 4.7,52.4 1.85,52.4 0.65,50.55 0,49.5 0,48.2 0,44.3 3.15,43.5 L 4.1,43.35 v -0.2 L 3.95,41.65 3.9,37.65 4,22.4 H 4.05 L 4.1,10.65 V 9.1 L 3.15,8.6 q -2.3,-1.55 -2.3,-3.85 0,-1 0.7,-2.3 1.15,-2.1 3.35,-2.1 1.8,0 2.6,0.95 H 7.55 Q 8.45,0 10.2,0 q 2.85,0 4.05,1.85 0.65,1.05 0.65,2.35 0,3.9 -3.15,4.7 l -1,0.15 M 7.4,4.5 Q 7.15,4.5 6.65,3.45 6.1,2.4 5.15,2.4 3.6,2.4 3,4 L 2.75,5.6 q 0,0.5 0.3,0.9 Q 3.5,7.05 4.4,7.05 H 4.45 Q 4.75,6.8 5.2,6.8 q 0.85,0 1.1,0.8 v 28.55 l -0.15,6.4 q 0,1.35 0.15,2.25 v 0.15 Q 5.7,44.8 4.9,44.95 2.25,45.5 2.25,47.9 l 0.2,1.15 Q 3,50 5.05,50 7.1,50 7.45,47.9 H 7.5 q 0.25,0 0.75,1.05 Q 8.8,50 9.75,50 11.3,50 11.9,48.4 l 0.25,-1.6 -0.3,-0.9 Q 11.4,45.35 10.5,45.35 H 10.45 L 9.7,45.6 Q 8.95,45.6 8.65,44.95 9.25,41.2 9,26.05 V 10.85 L 9.15,7.5 V 7.35 h 0.3 Q 12.4,7.35 12.4,4.8 12.4,2.4 10.05,2.3 7.8,2.25 7.65,4.45 L 7.4,4.5"
         fill="#6b6b6b"
         fill-rule="evenodd"
         stroke="none"
         id="path21" />
      <path
         d="M 7.4,4.5 7.65,4.45 q 0.15,-2.2 2.4,-2.15 2.35,0.1 2.35,2.5 0,2.55 -2.95,2.55 H 9.15 V 7.5 L 9,10.85 v 15.2 Q 9.25,41.2 8.65,44.95 8.95,45.6 9.7,45.6 l 0.75,-0.25 h 0.05 q 0.9,0 1.35,0.55 l 0.3,0.9 -0.25,1.6 Q 11.3,50 9.75,50 8.8,50 8.25,48.95 7.75,47.9 7.5,47.9 H 7.45 Q 7.1,50 5.05,50 3,50 2.45,49.05 L 2.25,47.9 q 0,-2.4 2.65,-2.95 0.8,-0.15 1.4,0 V 44.8 Q 6.15,43.9 6.15,42.55 L 6.3,36.15 V 7.6 Q 6.05,6.8 5.2,6.8 4.75,6.8 4.45,7.05 H 4.4 Q 3.5,7.05 3.05,6.5 2.75,6.1 2.75,5.6 L 3,4 Q 3.6,2.4 5.15,2.4 6.1,2.4 6.65,3.45 7.15,4.5 7.4,4.5"
         fill="#ffffff"
         fill-rule="evenodd"
         stroke="none"
         id="path22" />
      <path
         d="m 10.75,9.05 0.2,1.6 H 11 l -0.1,32.7 q 0.4,0.15 0.85,0.45 2.3,1.55 2.3,3.85 0,1 -0.7,2.3 -1.15,2.1 -3.35,2.1 -1.8,0 -2.6,-0.95 H 7.35 Q 6.45,52.4 4.7,52.4 1.85,52.4 0.65,50.55 0,49.5 0,48.2 0,44.3 3.15,43.5 L 4.1,43.35 v -0.2 L 3.95,41.65 3.9,37.65 4,22.4 H 4.05 L 4.1,10.65 V 9.1 L 3.15,8.6 q -2.3,-1.55 -2.3,-3.85 0,-1 0.7,-2.3 1.15,-2.1 3.35,-2.1 1.8,0 2.6,0.95 H 7.55 Q 8.45,0 10.2,0 q 2.85,0 4.05,1.85 0.65,1.05 0.65,2.35 0,3.9 -3.15,4.7 z"
         fill="none"
         stroke="#6b6b6b"
         stroke-linecap="round"
         stroke-linejoin="round"
         stroke-width="1.5"
         id="path23" />
    </g>
    <g
       id="sprite3"
       transform="translate(0.75,0.75)">
      <use
         ffdec:characterId="663"
         height="13.2"
         transform="translate(-0.75,-0.75)"
         width="21.75"
         xlink:href="#shape4"
         id="use23" />
    </g>
    <g
       id="shape4"
       transform="translate(0.75,0.75)">
      <path
         d="m 16.5,2.25 q 1.35,0 1.6,1.1 L 18.15,3.6 18.1,3.95 q -0.2,0.6 -1.25,0.8 -1.25,0.25 -1.25,0.9 0,0.55 0.3,0.75 l 0.45,0.15 0.25,0.15 q 0.85,0.45 0.85,1.25 0,1.8 -2.15,1.8 -1.7,0 -2,-1.7 Q 13,6.3 12.3,6.3 L 11.85,6.4 10.8,6.2 V 6.15 H 10.2 10.05 9.45 V 6.2 L 8.4,6.4 7.95,6.3 q -0.7,0 -1,1.75 -0.3,1.7 -2,1.7 -2.15,0 -2.15,-1.8 0,-0.8 0.85,-1.25 L 3.9,6.55 4.35,6.4 Q 4.65,6.2 4.65,5.65 4.65,5 3.4,4.75 2.1,4.5 2.1,3.6 2.25,2.25 3.75,2.25 q 1.55,0 2.15,0.9 0.6,0.9 1.15,0.9 l 3.1,-0.2 3.05,0.2 q 0.55,0 1.15,-0.9 0.6,-0.9 2.15,-0.9"
         fill="#ffffff"
         fill-rule="evenodd"
         stroke="none"
         id="path24" />
      <path
         d="m 19.45,1.35 q 0.8,0.9 0.8,1.65 l -0.2,1.8 q -0.35,1.05 -1.3,1.5 0.6,1 0.6,2.75 0,0.65 -0.7,1.4 l -0.55,0.5 Q 17,11.7 15.15,11.7 13.05,11.7 12.05,9.95 11.5,8.95 11.4,7.9 L 10.5,7.95 H 10.1 9.75 9.45 L 8.85,7.9 8.2,9.95 Q 7.2,11.7 5.1,11.7 2.7,11.7 1.6,10.45 0.9,9.7 0.9,9.05 0.9,7.3 1.5,6.3 0.55,5.85 0.2,4.8 L 0,3 Q 0,2.25 0.8,1.35 1.9,0 3.95,0 6,0 7.15,1.05 7.85,1.75 7.95,2.4 L 10.15,2.45 12.3,2.4 Q 12.4,1.75 13.1,1.05 14.25,0 16.3,0 q 1,0 1.8,0.35 0.8,0.3 1.35,1 m -2.95,0.9 q -1.55,0 -2.15,0.9 -0.6,0.9 -1.15,0.9 l -3.05,-0.2 -3.1,0.2 Q 6.5,4.05 5.9,3.15 5.3,2.25 3.75,2.25 2.25,2.25 2.1,3.6 2.1,4.5 3.4,4.75 4.65,5 4.65,5.65 4.65,6.2 4.35,6.4 L 3.9,6.55 3.65,6.7 Q 2.8,7.15 2.8,7.95 q 0,1.8 2.15,1.8 1.7,0 2,-1.7 0.3,-1.75 1,-1.75 L 8.4,6.4 9.45,6.2 V 6.15 h 0.6 0.15 0.6 V 6.2 l 1.05,0.2 0.45,-0.1 q 0.7,0 1,1.75 0.3,1.7 2,1.7 2.15,0 2.15,-1.8 0,-0.8 -0.85,-1.25 L 16.35,6.55 15.9,6.4 Q 15.6,6.2 15.6,5.65 15.6,5 16.85,4.75 17.9,4.55 18.1,3.95 L 18.15,3.6 18.1,3.35 q -0.25,-1.1 -1.6,-1.1"
         fill="#6b6b6b"
         fill-rule="evenodd"
         stroke="none"
         id="path25" />
      <path
         d="m 19.45,1.35 q 0.8,0.9 0.8,1.65 l -0.2,1.8 q -0.35,1.05 -1.3,1.5 0.6,1 0.6,2.75 0,0.65 -0.7,1.4 l -0.55,0.5 Q 17,11.7 15.15,11.7 13.05,11.7 12.05,9.95 11.5,8.95 11.4,7.9 L 10.5,7.95 H 10.1 9.75 9.45 L 8.85,7.9 8.2,9.95 Q 7.2,11.7 5.1,11.7 2.7,11.7 1.6,10.45 0.9,9.7 0.9,9.05 0.9,7.3 1.5,6.3 0.55,5.85 0.2,4.8 L 0,3 Q 0,2.25 0.8,1.35 1.9,0 3.95,0 6,0 7.15,1.05 7.85,1.75 7.95,2.4 L 10.15,2.45 12.3,2.4 Q 12.4,1.75 13.1,1.05 14.25,0 16.3,0 q 1,0 1.8,0.35 0.8,0.3 1.35,1 z"
         fill="none"
         stroke="#6b6b6b"
         stroke-linecap="round"
         stroke-linejoin="round"
         stroke-width="1.5"
         id="path26" />
    </g>
  </defs>
</svg>
