<?xml version="1.0" encoding="UTF-8" standalone="no"?>
<svg
   ffdec:objectType="frame"
   height="64.449997"
   width="36"
   version="1.1"
   id="svg4"
   sodipodi:docname="1.svg"
   xmlns:inkscape="http://www.inkscape.org/namespaces/inkscape"
   xmlns:sodipodi="http://sodipodi.sourceforge.net/DTD/sodipodi-0.dtd"
   xmlns:xlink="http://www.w3.org/1999/xlink"
   xmlns="http://www.w3.org/2000/svg"
   xmlns:svg="http://www.w3.org/2000/svg"
   xmlns:ffdec="https://www.free-decompiler.com/flash">
  <sodipodi:namedview
     id="namedview4"
     pagecolor="#ffffff"
     bordercolor="#000000"
     borderopacity="0.25"
     inkscape:showpageshadow="2"
     inkscape:pageopacity="0.0"
     inkscape:pagecheckerboard="0"
     inkscape:deskcolor="#d1d1d1"
     fit-margin-top="5"
     fit-margin-left="5"
     fit-margin-right="5"
     fit-margin-bottom="5" />
  <g
     transform="translate(18,32.2)"
     id="g1">
    <use
       ffdec:characterId="1149"
       height="64.449997"
       transform="translate(-18,-32.2)"
       width="36"
       xlink:href="#shape0"
       id="use1" />
  </g>
  <defs
     id="defs4">
    <g
       id="shape0"
       transform="translate(18,32.2)">
      <path
         d="m -5.7,-2.85 v -1 h -0.25 -5.1 l -1.7,0.25 -0.9,-0.25 q -0.65,0 -1,-0.7 l -0.2,-0.75 0.1,-1.1 -0.05,-2.2 v -0.15 l -1.95,-0.2 -0.4,-0.1 q -0.7,-0.5 -0.85,-2.9 V -15 q 0,-3.45 0.3,-5.1 v -0.2 l 0.3,-0.8 0.1,-0.25 h 12.85 l 1.75,-10.85 0.35,0.1 0.1,0.4 q 0,1.55 -0.35,3.45 -0.35,1.85 -0.35,4.15 l -0.1,2.75 H 3 L 2.85,-24.1 q 0,-2.3 -0.35,-4.15 -0.35,-1.9 -0.35,-3.45 l 0.1,-0.4 0.35,-0.1 q 1.1,5.3 1.8,10.85 h 13.1 q 0.5,0.55 0.5,1.95 l -0.25,3.75 q 0.25,4 -0.3,5.35 l 0.2,0.6 q 0,0.75 -0.75,0.9 l -1.8,0.05 -0.3,0.6 v 1.05 1.55 q -0.1,0.95 -0.55,1.2 l -0.3,0.15 Q 13,-3.65 10.3,-3.8 H 5.65 v 1 Q 4.7,-3.15 4.1,-2.1 q -0.35,0.55 -0.2,1 l 0.15,0.05 0.15,0.3 -0.8,1.4 0.1,-4.45 -2.6,-0.05 q -0.3,-0.5 -1.05,-0.5 -0.65,0 -0.95,0.5 h -2.45 l 0.1,4.7 -0.95,-1.6 0.15,-0.3 0.15,-0.05 q 0.1,-0.45 -0.2,-1 -0.6,-1 -1.4,-0.75 M 5.65,-0.3 5.45,7.1 H 3.25 V 7.05 L 3.1,7.1 3.35,2.9 4.95,-0.25 h 0.1 l 0.1,0.05 0.3,-0.05 0.2,-0.05 M 5.35,8.2 5,11.85 4.55,14.75 2.6,11.3 3,8.15 5.35,8.2 m -1.4,8.95 -0.55,1.7 q -0.85,2.5 -1.75,3.75 v 0.95 L 1.6,25.45 H 2.75 L 3.4,25.9 3.7,26.35 3.65,26.6 h 6.55 0.2 l 0.25,-0.05 q 0.95,0 0.95,2.65 0.15,1.45 -0.45,1.85 l -0.4,0.35 q -0.2,0.55 -1.1,0.65 l -4.5,0.2 h -12 l -2.4,-0.35 -0.4,0.05 q -0.7,0 -0.95,-0.6 l -0.1,-0.6 0.05,-0.4 -0.05,-0.15 -0.05,-1.25 q 0,-1.3 0.45,-1.7 l 0.05,-0.15 q 0.3,-0.55 1.05,-0.5 h 5.6 l -0.05,-0.15 0.25,-0.65 1.05,-0.35 h 0.8 l -0.2,-2.15 0.05,-0.75 q -1,-1.3 -1.8,-3.7 L -4.05,17 V 16.25 L -4.2,16 -4.35,15.95 v -0.1 l 1.95,-3.05 1.1,4.65 -0.1,0.55 0.15,0.7 0.7,0.7 0.5,1.05 0.55,-1.1 q 0.6,-0.3 0.6,-1.3 V 17.8 L 2.35,12.95 4.2,15.85 4.1,15.95 4,16 3.85,16.25 q -0.15,0.4 0.1,0.9 m -8.6,-2.6 -0.45,-2.7 -0.35,-3.7 h 0.5 1.9 l 0.35,3.05 -1.95,3.35 M -5.5,7.1 -5.75,-0.25 h 0.05 l 0.35,0.05 0.1,-0.05 h 0.1 L -3.4,3 -3.15,7.1 H -5.5 m 10.85,-17.75 10.6,-0.05 q -0.2,-0.7 -0.25,-1.9 v -3.05 L 15.45,-19.1 H 15.05 4.65 3.1 -3.15 -4.75 l -10.9,-0.05 q 0.15,1.6 0.15,4.1 v 3.2 l -0.1,1.15 2,0.05 h 8.15 1.9 7.05 1.85 m 4.7,1.9 L 9,-8.85 8.7,-8.75 H 5.45 3.5 -3.6 -5.55 l -7.3,-0.05 0.05,1.6 0.05,1.45 0.6,0.2 6.2,-0.1 h 0.3 2.05 7.1 2.1 L 10.3,-5.7 13.05,-5.55 13,-5.7 v -1.5 l 0.1,-1.55 H 10.05 M -6.85,30 h 10.8 1.2 l 4.35,0.2 0.15,-0.1 v -0.9 -0.45 h -18.6 v 0.2 1 l 0.25,0.25 1.85,-0.15 V 30"
         fill="#6b6b6b"
         fill-rule="evenodd"
         stroke="none"
         id="path1" />
      <path
         d="m 5.65,-2.8 0.25,0.1 q 0.7,0.4 0.55,1.2 l -0.2,0.65 -0.6,0.55 -0.2,0.05 -0.3,0.05 -0.1,-0.05 h -0.1 l -1.6,3.15 -0.5,0.8 -2,3.4 H 1.35 1.9 V 7.05 L 2.3,7.1 H 3.1 L 3.25,7.05 V 7.1 h 2.2 3.8 L 9.4,6.85 V 6.7 q 0.3,-0.3 1,-0.3 1.4,0 1.4,1.25 0,0.8 -0.75,1.1 l -0.7,0.1 Q 9.7,8.85 9.4,8.5 L 9.25,8.25 V 8.1 L 9.2,8 5.35,8.2 3,8.15 H 2.5 1.9 1.55 0.75 L 1,8.6 1.3,9.05 1.35,9 1.5,9.4 2.05,10.2 2,10.25 l 0.6,1.05 1.95,3.45 0.4,0.7 h 0.3 l 0.15,-0.1 q 0.45,0.15 0.8,0.7 0.7,1.25 -0.4,1.85 L 4.45,17.8 4,17.25 3.95,17.15 Q 3.7,16.65 3.85,16.25 L 4,16 4.1,15.95 4.2,15.85 2.35,12.95 0.75,10.05 0.45,9.55 0.4,9.45 v 0.1 H 0.45 L 0.4,9.95 0.45,10.9 h -0.1 v 6 l 0.3,0.15 H 0.8 l 0.3,0.75 v 0.25 q 0,1 -0.6,1.3 l -0.65,0.1 -0.4,-0.05 -0.7,-0.7 -0.15,-0.7 0.1,-0.55 0.25,-0.4 0.3,-0.15 h 0.15 l 0.05,-0.05 -0.1,-6.7 v -0.6 l -0.25,0.5 -1.5,2.75 -1.95,3.05 v 0.1 L -4.2,16 -4.05,16.25 V 17 l -0.15,0.25 -0.5,0.55 -1.35,0.1 q -1.05,-0.6 -0.35,-1.85 0.35,-0.55 0.75,-0.7 l 0.15,0.1 h 0.3 l 0.55,-0.9 1.95,-3.35 0.55,-0.95 -0.1,-0.05 0.5,-0.8 0.15,-0.4 0.05,0.05 0.3,-0.45 0.3,-0.45 h -2.1 -1.9 -0.5 L -9.45,8 v 0.1 0.15 l -0.2,0.25 q -0.3,0.35 -0.9,0.35 l -0.7,-0.1 q -0.8,-0.3 -0.8,-1.1 0,-1.25 1.45,-1.25 0.65,0 0.95,0.3 v 0.15 l 0.2,0.25 H -5.5 -3.15 -1 L -3,3.7 -3.4,3 -5.15,-0.25 h -0.1 l -0.1,0.05 -0.35,-0.05 h -0.05 l -0.7,-0.6 -0.25,-0.65 q -0.1,-0.8 0.6,-1.2 l 0.4,-0.15 q 0.8,-0.25 1.4,0.75 0.3,0.55 0.2,1 l -0.15,0.05 -0.15,0.3 0.95,1.6 2.75,4.85 v -3 l 0.15,-4.5 h -0.2 l -0.3,-0.15 Q -1.4,-2.3 -1.4,-2.9 l 0.15,-0.7 0.15,-0.25 q 0.3,-0.5 0.95,-0.5 0.75,0 1.05,0.5 l 0.2,0.9 q 0,0.65 -0.3,1 H 0.65 L 0.35,-1.8 V 5.85 L 3.4,0.65 4.2,-0.75 4.05,-1.05 3.9,-1.1 q -0.15,-0.45 0.2,-1 0.6,-1.05 1.55,-0.7"
         fill="#999999"
         fill-rule="evenodd"
         stroke="none"
         id="path2" />
      <path
         d="m 12.4,-17.05 q 0,-0.9 -1.35,-0.8 -1.35,0.05 -1.35,1.45 0,0.5 0.45,1.15 h 1.55 q 0.6,-0.15 0.7,-1.8 m -0.7,0.3 -0.05,0.75 -1.05,0.2 -0.3,-0.05 -0.15,-0.1 0.05,-0.8 h 1.5 M 4.65,-19.1 h 10.4 0.4 l 0.25,3.45 v 3.05 q 0.05,1.2 0.25,1.9 l -10.6,0.05 -0.7,-8.45 m -1.15,8.45 h -7.05 l 0.3,-7 0.1,-1.45 H 3.1 l 0.05,1.45 0.35,7 m -8.95,0 h -8.15 l -2,-0.05 0.1,-1.15 v -3.2 q 0,-2.5 -0.15,-4.1 l 10.9,0.05 -0.7,8.45 M 9.35,-14 q 0,-1.15 -1.4,-0.4 -1.45,0.7 -1.45,1.45 l 0.2,0.45 q 0.3,0.4 0.8,0.4 1.05,0 1.55,-0.8 l 0.3,-1.1 m -0.95,1.05 -0.45,0.1 -0.7,-0.45 q 0.5,-0.65 1.3,-0.45 l -0.15,0.8 m -7.25,0.55 0.05,-1.05 q 0,-1 -1.55,-0.8 -1.6,0.2 -1.6,1.4 0,0.4 0.65,0.85 0.6,0.45 1.05,0.45 1.15,0 1.4,-0.85 m -1,-1.1 0.35,0.65 -0.25,0.35 -0.4,0.35 L -1.2,-13 q 0.85,-0.85 1.35,-0.5 M 0.4,-19 0.3,-18.95 Q -0.5,-19 -0.65,-18.7 l -0.1,0.8 v 0.6 q 0.25,0.5 1.65,0.5 1.25,0 1.25,-0.95 L 2.1,-18.3 q -0.25,-0.55 -1.3,-0.55 l -0.3,0.1 0.1,0.05 v 0.3 l 0.95,0.65 -0.05,0.15 -0.6,0.2 -0.7,-0.15 Q -0.15,-17.7 -0.2,-17.8 L 0.15,-18.35 0.45,-18.7 0.4,-19 m 8.55,11.05 0.85,0.1 Q 9.65,-7.6 9.65,-7.2 H 8.2 v -0.35 q 0.25,-0.3 0.75,-0.4 m 1.1,-0.8 H 13.1 L 13,-7.2 v 1.5 L 13.05,-5.55 10.3,-5.7 5.6,-5.65 5.45,-8.75 H 8.7 q -1.05,0.35 -1.05,1.3 0,0.65 0.15,0.8 l 1.85,0.1 0.4,-0.6 0.3,-0.8 -0.3,-0.8 m -6.55,3.1 h -7.1 v -3.1 h 7.1 v 3.1 m -9.15,0 h -0.3 l -6.2,0.1 -0.6,-0.2 -0.05,-1.45 -0.05,-1.6 7.3,0.05 -0.1,3.1 M -11.1,-7.6 v 0.5 q 0.2,0.45 1.1,0.45 1.15,0 1.15,-0.95 0,-0.85 -1.1,-0.95 -1.15,-0.1 -1.15,0.95 m 0.55,0.05 V -7.9 l 1.15,0.1 v 0.25 l -0.15,0.35 q -0.9,0 -1,-0.35 m -1,-7.7 0.2,-0.65 0.65,-0.1 0.6,0.1 -0.2,0.8 -0.75,0.05 -0.5,-0.05 v -0.15 m 2.65,1 q -0.75,0.6 -0.75,1.3 0,0.8 1.6,0.8 l 0.95,-0.25 q 0.2,-0.2 0.2,-0.85 l -0.05,-0.45 -0.55,-0.5 -1.4,-0.05 m -1.15,-0.2 q 0.65,-0.35 0.65,-0.75 0,-1.75 -1.45,-1.85 -1.45,-0.15 -1.45,1.8 v 0.6 q 0.2,0.55 1.2,0.55 0.45,0 1.05,-0.35 m 1,1.5 0.15,-0.45 1.45,-0.15 q 0,0.5 -0.25,0.75 l -1.35,-0.15"
         fill="#c6b199"
         fill-rule="evenodd"
         stroke="none"
         id="path3" />
      <path
         d="m 11.7,-16.75 h -1.5 l -0.05,0.8 0.15,0.1 0.3,0.05 1.05,-0.2 0.05,-0.75 m 0.7,-0.3 q -0.1,1.65 -0.7,1.8 H 10.15 Q 9.7,-15.9 9.7,-16.4 q 0,-1.4 1.35,-1.45 1.35,-0.1 1.35,0.8 m -7.75,-2.05 0.7,8.45 H 3.5 l -0.35,-7 -0.05,-1.45 h 1.55 m -8.2,8.45 h -1.9 l 0.7,-8.45 h 1.6 l -0.1,1.45 -0.3,7 M 0.4,-19 l 0.05,0.3 -0.3,0.35 -0.35,0.55 q 0.05,0.1 0.4,0.25 l 0.7,0.15 0.6,-0.2 0.05,-0.15 -0.95,-0.65 v -0.3 l -0.1,-0.05 0.3,-0.1 q 1.05,0 1.3,0.55 l 0.05,0.55 q 0,0.95 -1.25,0.95 -1.4,0 -1.65,-0.5 v -0.6 l 0.1,-0.8 Q -0.5,-19 0.3,-18.95 L 0.4,-19 m -0.25,5.5 q -0.5,-0.35 -1.35,0.5 l 1.05,0.85 0.4,-0.35 0.25,-0.35 -0.35,-0.65 m 1,1.1 q -0.25,0.85 -1.4,0.85 -0.45,0 -1.05,-0.45 -0.65,-0.45 -0.65,-0.85 0,-1.2 1.6,-1.4 1.55,-0.2 1.55,0.8 l -0.05,1.05 m 7.25,-0.55 0.15,-0.8 q -0.8,-0.2 -1.3,0.45 l 0.7,0.45 0.45,-0.1 m 0.95,-1.05 -0.3,1.1 q -0.5,0.8 -1.55,0.8 -0.5,0 -0.8,-0.4 l -0.2,-0.45 q 0,-0.75 1.45,-1.45 1.4,-0.75 1.4,0.4 m -0.4,6.05 q -0.5,0.1 -0.75,0.4 v 0.35 h 1.45 q 0,-0.4 0.15,-0.65 l -0.85,-0.1 m -0.25,-0.8 0.3,-0.1 1.05,0.1 0.3,0.8 -0.3,0.8 -0.4,0.6 -1.85,-0.1 q -0.15,-0.15 -0.15,-0.8 0,-0.95 1.05,-1.3 m -3.1,3.1 H 3.5 v -3.1 h 1.95 l 0.15,3.1 m -9.2,0 h -2.05 l 0.1,-3.1 h 1.95 v 3.1 m -5.45,-7.3 1.35,0.15 q 0.25,-0.25 0.25,-0.75 l -1.45,0.15 -0.15,0.45 m -1,-1.5 q -0.6,0.35 -1.05,0.35 -1,0 -1.2,-0.55 v -0.6 q 0,-1.95 1.45,-1.8 1.45,0.1 1.45,1.85 0,0.4 -0.65,0.75 m 1.15,0.2 1.4,0.05 0.55,0.5 0.05,0.45 q 0,0.65 -0.2,0.85 l -0.95,0.25 q -1.6,0 -1.6,-0.8 0,-0.7 0.75,-1.3 m -2.65,-1 v 0.15 l 0.5,0.05 0.75,-0.05 0.2,-0.8 -0.6,-0.1 -0.65,0.1 -0.2,0.65 m 1,7.7 q 0.1,0.35 1,0.35 L -9.4,-7.55 V -7.8 l -1.15,-0.1 v 0.35 M -11.1,-7.6 q 0,-1.05 1.15,-0.95 1.1,0.1 1.1,0.95 0,0.95 -1.15,0.95 -0.9,0 -1.1,-0.45 V -7.6 M -6.85,30 v 0.05 L -8.7,30.2 -8.95,29.95 v -1 -0.2 h 18.6 v 0.45 0.9 L 9.5,30.2 5.15,30 h -1.2 -10.8"
         fill="#a4937f"
         fill-rule="evenodd"
         stroke="none"
         id="path4" />
    </g>
  </defs>
</svg>
