<?xml version="1.0" encoding="UTF-8" standalone="no"?>
<svg
   ffdec:objectType="frame"
   height="36.653027"
   width="42.849998"
   version="1.1"
   id="svg5"
   sodipodi:docname="1.svg"
   xmlns:inkscape="http://www.inkscape.org/namespaces/inkscape"
   xmlns:sodipodi="http://sodipodi.sourceforge.net/DTD/sodipodi-0.dtd"
   xmlns:xlink="http://www.w3.org/1999/xlink"
   xmlns="http://www.w3.org/2000/svg"
   xmlns:svg="http://www.w3.org/2000/svg"
   xmlns:ffdec="https://www.free-decompiler.com/flash">
  <sodipodi:namedview
     id="namedview5"
     pagecolor="#ffffff"
     bordercolor="#000000"
     borderopacity="0.25"
     inkscape:showpageshadow="2"
     inkscape:pageopacity="0.0"
     inkscape:pagecheckerboard="0"
     inkscape:deskcolor="#d1d1d1"
     fit-margin-top="5"
     fit-margin-left="5"
     fit-margin-right="5"
     fit-margin-bottom="5" />
  <g
     transform="translate(21.4,18.303025)"
     id="g1">
    <use
       ffdec:characterId="3909"
       height="36.650002"
       transform="translate(-21.4,-18.3)"
       width="42.849998"
       xlink:href="#shape0"
       id="use1" />
  </g>
  <defs
     id="defs5">
    <g
       id="shape0"
       transform="translate(21.4,18.3)">
      <path
         d="M 12.25,-13.45 H 9.2 8.95 V -13 q -0.1,0.7 -0.55,0.85 l -0.6,0.4 H 6.55 v 0.35 l -0.1,0.3 0.05,0.4 -0.15,1.35 q -0.4,1.25 -2,1.25 l -0.9,-0.15 v 0.5 0.95 H 3.5 q 0.2,-0.55 0.9,0.6 h 0.05 l 0.3,0.55 1,2 v 0.3 H 8.1 q 0.4,0 0.65,0.35 l 0.2,0.55 V -2.3 H 9.6 9.7 l 3.3,0.25 q 0.6,0.2 0.6,0.65 L 13.45,-1.05 13.7,0.4 V 1.35 Q 13.55,2.2 12.9,2.2 L 12.5,2.15 h -1 q 0.4,1.15 0.4,3.5 l -0.1,4 h -0.05 v 1.3 l -0.05,0.25 0.9,0.2 q 0.45,0.2 0.5,0.55 l 0.25,1.15 v 0.15 l 0.9,-0.05 0.6,0.05 0.3,-0.05 q 0.85,0 0.85,2.25 v 0.85 l -0.3,0.55 0.05,0.35 -0.05,0.65 H 12.25 V 16.9 H -9.2 v 0.95 h -3.45 l -0.05,-0.65 0.05,-0.35 -0.3,-0.55 v -0.85 l 0.05,-0.7 -3.05,0.4 q -2.35,0 -3.2,-2 L -19.55,11 q 0,-2.45 1.65,-4.1 1.7,-1.7 1.7,-2.75 0,-3.25 -2.35,-6.35 -2.35,-3.05 -2.35,-5.6 0,-7.5 6.7,-6.95 0.05,-1.4 0.8,-1.5 0.55,0 0.75,0.75 H -11 q 0.15,-1.45 0.9,-1.45 0.7,0.05 0.9,1.45 h 3.15 l 0.3,-0.5 v -0.2 l 0.35,-0.45 4.6,-0.3 h 4.65 l 4.6,0.3 0.4,0.45 -0.05,0.2 0.3,0.5 h 0.1 3.05 q 0.2,-1.4 0.9,-1.45 0.75,0 0.95,1.45 h 1.75 l 0.35,0.1 0.1,-0.85 -0.7,-0.25 -0.1,-0.5 q 0,-0.75 1.55,-0.8 1.45,-0.05 1.45,0.85 l -0.25,0.5 -0.4,0.3 0.1,2 0.05,0.95 1.95,0.4 0.25,-0.1 q 0.75,0 0.75,2.3 l -0.05,1.3 -0.2,0.7 -0.15,0.25 -0.35,0.45 -0.25,-0.25 -3.55,0.05 -2.55,-0.05 -0.55,0.2 q -0.7,0 -0.85,-0.7 V -9.4 q 0,-2.45 0.5,-3.05 -0.6,-0.1 -0.7,-1 m 2.6,0.55 q 0.25,-0.45 1.3,-0.45 v -0.15 l -0.3,0.05 H 14.1 l -0.25,0.7 1,-0.15 M 3.15,-15.45 H -0.1 L 0,-14.2 v 0.85 h 3.05 v -0.85 l 0.1,-1.25 m 4.25,0 H 6.3 l 0.05,0.65 0.25,1.75 h 0.1 l 0.45,0.05 0.1,-0.95 q 0,-0.9 0.15,-1.5 m -3.5,0 0.1,1.15 -0.05,0.95 h 0.9 q 0.1,-0.8 0.35,-1.25 l 0.05,-0.85 H 3.9 m 1.05,4.75 -0.2,-1.1 v -0.05 H -1.7 v 0.05 l -0.2,1.1 -0.05,0.05 q 0.25,0.8 0.75,0.8 L -0.35,-10.1 0,-10.35 Q 0.05,-11.7 0.65,-11.7 L 1,-11.5 1.3,-11.55 H 1.45 1.5 1.75 v 0.05 h 0.3 l 0.35,-0.2 q 0.65,0 0.65,1.35 l 0.4,0.25 q 0.35,0.25 0.8,0.25 0.5,0 0.75,-0.8 L 4.95,-10.7 m -3.6,0.25 v 0.65 0.95 L 1,-8.15 v 0.35 0.7 h 0.15 l 0.9,0.05 V -7.8 -8.15 Q 1.75,-8.35 1.7,-8.85 V -9.8 -10.45 H 1.35 M 3.3,-4.9 0.55,-4.7 -0.65,-4.9 -0.75,-5 -0.9,-4.7 -1.55,-3.35 H 1.1 l 0.5,0.1 0.35,-0.1 h 2.4 L 3.8,-4.05 3.3,-4.9 m 16.15,-5.35 -5.3,-0.1 v 0.7 l 1.35,-0.1 q 2.65,-0.25 3.95,0.05 v -0.55 m -0.2,-1.5 -5.2,0.1 H 14 l 0.1,0.55 h 5.35 l 0.05,-0.1 0.05,-0.55 h -0.3 M 12.1,0.35 12.15,-0.55 9.7,-0.4 H -6.6 l -2.45,-0.15 v 0.2 0.75 0.35 H 12.1 v -0.4 m -1.95,1.8 H 9.3 L 9.5,6.6 9.6,11.2 H 9.65 V 8.8 8.25 H 9.7 L 9.9,4.65 10.15,2.2 V 2.15 M 6,2.5 q 1.95,1.6 1.95,4.25 0,2.2 -0.5,3.1 L 6.2,11.2 H 8.7 L 8.65,9.4 8.55,6.45 q 0,-3.15 0.3,-4.3 L 5.65,2.2 6,2.5 M 0.8,3.9 Q 0.8,2.8 1.75,2.9 2.7,3 2.7,3.95 L 2.45,4.6 Q 2.2,4.95 1.75,4.95 1.1,4.95 0.85,4.4 L 0.8,3.9 M 0.1,4.75 -0.3,4.9 q -0.6,0 -0.6,-0.55 0,-0.6 0.65,-0.6 0.6,0 0.6,0.6 L 0.1,4.75 M 4.6,5.1 q 0.8,0 0.8,0.75 l -0.15,0.5 -0.7,0.3 q -0.5,0 -0.7,-0.4 L 3.8,5.85 Q 3.8,5.1 4.6,5.1 M 3.35,4.35 q 0,-0.45 0.6,-0.5 0.6,-0.05 0.6,0.55 0,0.7 -0.6,0.7 -0.6,0 -0.6,-0.75 M 1.6,2.75 q -1.95,0.05 -3.3,1.1 -1.45,1.2 -1.45,3.15 0,1.45 0.7,2.15 L -1.55,9.7 -1.65,9.5 -1.7,9 q 0,-0.95 0.9,-0.85 0.9,0.1 0.9,0.85 0,0.85 -0.6,1.05 L 3.05,10.4 Q 5.25,10.4 6,8.8 6.3,8.1 6.3,6.65 6.3,4.75 4.85,3.7 3.45,2.7 1.6,2.75 M 4.9,7.1 q 0.8,0 0.8,0.8 0,0.8 -0.8,0.8 -0.5,0 -0.7,-0.45 L 4.15,7.9 Q 4.15,7.1 4.9,7.1 M 4.15,9.15 q 0,1.05 -0.8,1.05 -0.6,0 -0.8,-0.5 L 2.45,9.2 q 0,-0.8 0.9,-0.85 0.8,-0.05 0.8,0.8 M 1.25,10.2 0.5,9.75 0.45,9.35 Q 0.45,8.5 1.25,8.5 2.1,8.45 2.1,9.4 L 1.9,9.9 1.25,10.2 M 14.3,14.7 10.4,14.6 9.9,14.55 H -6.85 l -0.5,0.05 -3.9,0.1 v 0.7 l 3.15,-0.15 h 19.25 l 3.15,0.15 v -0.7 m -3.45,-1.7 1,0.1 V 12.9 H 11 L 10.85,13 m -0.5,-0.1 h -17.6 l -0.1,0.05 h 0.5 16.8 0.45 L 10.35,12.9 M -10.1,-12.45 q -0.8,0 -0.95,-1 h -1.55 l -0.05,0.15 q 1.05,0.3 1.05,1.4 l -0.1,0.45 h 0.8 q 0.45,0.05 0.75,0.4 l 0.2,0.5 q 0,0.65 -0.95,0.95 h -0.05 q 0.4,0.35 1.2,0.55 l 0.2,0.05 h 0.45 l 0.3,-0.2 0.3,0.25 0.35,0.1 0.1,0.25 -0.25,0.15 0.1,0.1 -0.05,0.1 q 0.25,1.2 0.15,4 0,0.35 -0.25,0.5 l -1.9,0.2 q -5.2,0 -5.2,-2.85 l 0.05,-1 -0.2,-1.7 0.15,-0.5 h -0.3 q -0.95,-0.05 -0.95,-0.95 0,-0.8 0.95,-0.9 h 0.55 V -12 q 0,-1.15 1,-1.35 l -0.05,-0.65 -1.55,0.7 q -2.45,1 -2.8,1.85 l -0.75,1.95 -0.05,1.7 q 0,1.55 2.35,4.9 2.35,3.35 2.35,7.1 0,2 -1.65,3.45 -1.6,1.45 -1.6,3.5 l 0.45,1.3 q 0.8,1.1 2.55,1.1 l 2.3,-0.4 0.95,0.1 0.5,-0.05 0.95,0.05 V 13.1 l 0.2,-1.15 Q -10,11.6 -9.55,11.4 l 0.9,-0.2 -0.05,-0.25 v -1.3 l -0.15,-4 Q -8.8,3.3 -8.4,2.15 H -9.45 L -9.8,2.2 q -0.7,0 -0.8,-0.85 V 0.4 l 0.2,-1.45 -0.15,-0.35 0.65,-0.65 3.3,-0.25 h 0.1 0.6 V -2.45 L -5.7,-3 q 0.3,-0.35 0.7,-0.35 h 2.05 l -0.05,-0.4 0.4,-1.1 0.15,-0.55 0.6,-0.8 q 0.15,-0.55 1.2,-0.75 L -0.6,-7 -0.35,-7.05 v -0.7 -0.5 L -1.3,-8.1 q -1.55,0 -2,-1.25 l -0.15,-1.35 0.05,-0.4 -0.1,-0.3 v -0.35 h -1.2 q -0.5,-0.05 -0.65,-0.4 -0.4,-0.15 -0.5,-0.85 v -0.45 H -6.1 -9.15 q -0.15,1 -0.95,1 m 6,-0.55 0.5,-0.05 h 0.05 l 0.25,-1.75 0.1,-0.65 h -1.1 l 0.1,1.5 0.1,0.95 m 2.35,-0.35 h 0.85 l -0.05,-0.95 0.1,-1.15 h -1.3 l 0.05,0.85 0.35,1.25 M -14.2,-6.8 q 0.55,1.8 2.7,1.8 h 0.2 v -2.85 l -0.95,-0.85 -0.35,-0.9 h -1.6 l -0.1,1 0.1,1.55 v 0.25 m 4.75,0.1 V -7.05 -7.7 l -0.65,0.05 h -0.25 l -0.05,0.95 -0.05,1.5 q 0.9,-0.3 1,-1.5 m 7.35,8.85 h -3.3 l 0.1,1 0.05,8.05 H -2.3 Q -4.15,10.4 -4.6,8.95 l -0.15,-1 0.2,-1.85 q 0.4,-2 1.75,-3.35 l 0.7,-0.6 m -0.35,3.4 Q -2.45,4.8 -1.7,4.75 -1,4.7 -1,5.5 q 0,0.8 -0.7,0.8 -0.6,0 -0.75,-0.35 v -0.4 m -3.5,-3.4 H -7.1 l 0.25,2.5 0.25,3.6 h 0.05 V 8.8 11.2 H -6.1 V 3.05 l 0.1,-0.8 0.05,-0.1 m 4.35,5.9 -0.45,0.15 q -0.5,0 -0.65,-0.45 l -0.05,-0.3 q 0,-0.7 0.7,-0.7 0.7,0 0.7,0.75 L -1.6,8.05 m -13.7,5.1 -0.2,0.05 -0.25,-0.05 q 0.05,-0.2 0.45,0 m 7.35,-0.25 h -0.8 v 0.05 0.15 L -7.8,13 -7.95,12.9"
         fill="#6b6b6b"
         fill-rule="evenodd"
         stroke="none"
         id="path1" />
      <path
         d="m 3.15,-15.45 -0.1,1.25 v 0.85 H 0 v -0.85 l -0.1,-1.25 h 3.25 m 0.75,0 H 5.25 L 5.2,-14.6 q -0.25,0.45 -0.35,1.25 H 3.95 L 4,-14.3 3.9,-15.45 m 3.5,0 q -0.15,0.6 -0.15,1.5 L 7.15,-13 6.7,-13.05 H 6.6 L 6.35,-14.8 6.3,-15.45 H 7.4 M 6,2.5 5.65,2.2 8.85,2.15 Q 8.55,3.3 8.55,6.45 L 8.65,9.4 8.7,11.2 H 6.2 L 7.45,9.85 Q 7.95,8.95 7.95,6.75 7.95,4.1 6,2.5 m -20.2,-9.3 v -0.25 l -0.1,-1.55 0.1,-1 h 1.6 l 0.35,0.9 0.95,0.85 V -5 h -0.2 q -2.15,0 -2.7,-1.8 m 12.45,-6.55 -0.35,-1.25 -0.05,-0.85 h 1.3 l -0.1,1.15 0.05,0.95 h -0.85 m -2.35,0.35 -0.1,-0.95 -0.1,-1.5 h 1.1 l -0.1,0.65 -0.25,1.75 H -3.6 L -4.1,-13 m 2,15.15 -0.7,0.6 Q -4.15,4.1 -4.55,6.1 l -0.2,1.85 0.15,1 q 0.45,1.45 2.3,2.25 h -2.95 l -0.05,-8.05 -0.1,-1 h 3.3"
         fill="#797979"
         fill-rule="evenodd"
         stroke="none"
         id="path2" />
      <path
         d="M 19.45,-10.25 V -9.7 Q 18.15,-10 15.5,-9.75 l -1.35,0.1 v -0.7 l 5.3,0.1 M 3.3,-4.9 l 0.5,0.85 0.55,0.7 h -2.4 l -0.35,0.1 -0.5,-0.1 h -2.65 l 0.65,-1.35 0.15,-0.3 0.1,0.1 1.2,0.2 2.75,-0.2 M 1.35,-10.45 H 1.7 v 0.65 0.95 q 0.05,0.5 0.35,0.7 v 0.35 0.75 L 1.15,-7.1 H 1 v -0.7 -0.35 l 0.35,-0.7 v -0.95 -0.65 m -10.4,10.1 10.15,0.9 9.75,-0.1 1.25,-0.1 v 0.4 H -9.05 V 0.4 -0.35 m 19.2,2.5 V 2.2 L 9.9,4.65 9.7,8.25 H 9.65 V 8.8 11.2 H 9.6 L 9.5,6.6 9.3,2.15 h 0.85 M 14.3,14.7 v 0.7 L 11.15,15.25 H -8.1 l -3.15,0.15 v -0.7 l 3.9,-0.1 0.5,-0.05 H 9.9 l 0.5,0.05 3.9,0.1 M 1.25,10.2 1.9,9.9 2.1,9.4 q 0,-0.95 -0.85,-0.9 -0.8,0 -0.8,0.85 L 0.5,9.75 1.25,10.2 M 4.15,9.15 Q 4.15,8.3 3.35,8.35 2.45,8.4 2.45,9.2 l 0.1,0.5 q 0.2,0.5 0.8,0.5 0.8,0 0.8,-1.05 M 4.9,7.1 Q 4.15,7.1 4.15,7.9 L 4.2,8.25 Q 4.4,8.7 4.9,8.7 5.7,8.7 5.7,7.9 5.7,7.1 4.9,7.1 M 1.6,2.75 Q 3.45,2.7 4.85,3.7 6.3,4.75 6.3,6.65 6.3,8.1 6,8.8 5.25,10.4 3.05,10.4 L -0.5,10.05 Q 0.1,9.85 0.1,9 0.1,8.25 -0.8,8.15 -1.7,8.05 -1.7,9 l 0.05,0.5 0.1,0.2 -0.9,-0.55 Q -3.15,8.45 -3.15,7 -3.15,5.05 -1.7,3.85 -0.35,2.8 1.6,2.75 m 1.75,1.6 q 0,0.75 0.6,0.75 0.6,0 0.6,-0.7 0,-0.6 -0.6,-0.55 -0.6,0.05 -0.6,0.5 M 4.6,5.1 q -0.8,0 -0.8,0.75 l 0.05,0.4 q 0.2,0.4 0.7,0.4 L 5.25,6.35 5.4,5.85 Q 5.4,5.1 4.6,5.1 M 0.1,4.75 0.35,4.35 q 0,-0.6 -0.6,-0.6 -0.65,0 -0.65,0.6 0,0.55 0.6,0.55 L 0.1,4.75 M 0.8,3.9 0.85,4.4 q 0.25,0.55 0.9,0.55 0.45,0 0.7,-0.35 L 2.7,3.95 Q 2.7,3 1.75,2.9 0.8,2.8 0.8,3.9 m -11.2,-10.6 0.5,0.05 0.45,-0.05 q -0.1,1.2 -1,1.5 l 0.05,-1.5 M -1.6,8.05 -1.35,7.5 q 0,-0.75 -0.7,-0.75 -0.7,0 -0.7,0.7 l 0.05,0.3 Q -2.55,8.2 -2.05,8.2 L -1.6,8.05 M -5.95,2.15 -6,2.25 -6.1,3.05 V 11.2 H -6.55 V 8.8 8.25 H -6.6 L -6.85,4.65 -7.1,2.15 h 1.15 m 3.5,3.4 v 0.4 Q -2.3,6.3 -1.7,6.3 -1,6.3 -1,5.5 -1,4.7 -1.7,4.75 -2.45,4.8 -2.45,5.55"
         fill="#d9d9d9"
         fill-rule="evenodd"
         stroke="none"
         id="path3" />
      <path
         d="m -9.05,-0.35 v -0.2 L -6.6,-0.4 H 9.7 l 2.45,-0.15 -0.05,0.9 -1.25,0.1 -9.75,0.1 -10.15,-0.9 m 28.3,-11.4 h 0.3 l -0.05,0.55 -0.05,0.1 H 14.1 L 14,-11.65 h 0.05 l 5.2,-0.1 M 10.85,13 11,12.9 h 0.85 v 0.2 l -1,-0.1 m -0.5,-0.1 0.05,0.05 h -0.45 -16.8 -0.5 l 0.1,-0.05 h 17.6 m -20.75,-19.6 0.05,-0.95 h 0.25 l 0.65,-0.05 v 0.65 0.35 l -0.45,0.05 -0.5,-0.05 m 2.45,19.6 0.15,0.1 -0.95,0.1 V 12.95 12.9 h 0.8"
         fill="#ffffff"
         fill-rule="evenodd"
         stroke="none"
         id="path4" />
      <path
         d="M 12.25,-13.45 H 9.2 8.95 V -13 q -0.1,0.7 -0.55,0.85 l -0.6,0.4 H 6.55 v 0.35 l -0.1,0.3 0.05,0.4 -0.15,1.35 q -0.4,1.25 -2,1.25 l -0.9,-0.15 v 0.5 0.95 H 3.5 q 0.2,-0.55 0.9,0.6 h 0.05 l 0.3,0.55 1,2 v 0.3 H 8.1 q 0.4,0 0.65,0.35 l 0.2,0.55 V -2.3 H 9.6 9.7 l 3.3,0.25 q 0.6,0.2 0.6,0.65 L 13.45,-1.05 13.7,0.4 V 1.35 Q 13.55,2.2 12.9,2.2 L 12.5,2.15 h -1 q 0.4,1.15 0.4,3.5 l -0.1,4 h -0.05 v 1.3 l -0.05,0.25 0.9,0.2 q 0.45,0.2 0.5,0.55 l 0.25,1.15 v 0.15 l 0.9,-0.05 0.6,0.05 0.3,-0.05 q 0.85,0 0.85,2.25 v 0.85 l -0.3,0.55 0.05,0.35 -0.05,0.65 H 12.25 V 16.9 H -9.2 v 0.95 h -3.45 l -0.05,-0.65 0.05,-0.35 -0.3,-0.55 v -0.85 l 0.05,-0.7 -3.05,0.4 q -2.35,0 -3.2,-2 L -19.55,11 q 0,-2.45 1.65,-4.1 1.7,-1.7 1.7,-2.75 0,-3.25 -2.35,-6.35 -2.35,-3.05 -2.35,-5.6 0,-7.5 6.7,-6.95 0.05,-1.4 0.8,-1.5 0.55,0 0.75,0.75 H -11 q 0.15,-1.45 0.9,-1.45 0.7,0.05 0.9,1.45 h 3.15 l 0.3,-0.5 v -0.2 l 0.35,-0.45 4.6,-0.3 h 4.65 l 4.6,0.3 0.4,0.45 -0.05,0.2 0.3,0.5 h 0.1 3.05 q 0.2,-1.4 0.9,-1.45 0.75,0 0.95,1.45 h 1.75 l 0.35,0.1 0.1,-0.85 -0.7,-0.25 -0.1,-0.5 q 0,-0.75 1.55,-0.8 1.45,-0.05 1.45,0.85 l -0.25,0.5 -0.4,0.3 0.1,2 0.05,0.95 1.95,0.4 0.25,-0.1 q 0.75,0 0.75,2.3 l -0.05,1.3 -0.2,0.7 -0.15,0.25 -0.35,0.45 -0.25,-0.25 -3.55,0.05 -2.55,-0.05 -0.55,0.2 q -0.7,0 -0.85,-0.7 V -9.4 q 0,-2.45 0.5,-3.05 -0.6,-0.1 -0.7,-1 z"
         fill="none"
         stroke="#6b6b6b"
         stroke-linecap="round"
         stroke-linejoin="round"
         stroke-width="1"
         id="path5" />
    </g>
  </defs>
</svg>
