<?xml version="1.0" encoding="UTF-8" standalone="no"?>
<svg
   ffdec:objectType="frame"
   height="57.931541"
   width="55.440758"
   version="1.1"
   id="svg51"
   sodipodi:docname="1.svg"
   xmlns:inkscape="http://www.inkscape.org/namespaces/inkscape"
   xmlns:sodipodi="http://sodipodi.sourceforge.net/DTD/sodipodi-0.dtd"
   xmlns:xlink="http://www.w3.org/1999/xlink"
   xmlns="http://www.w3.org/2000/svg"
   xmlns:svg="http://www.w3.org/2000/svg"
   xmlns:ffdec="https://www.free-decompiler.com/flash">
  <sodipodi:namedview
     id="namedview51"
     pagecolor="#ffffff"
     bordercolor="#000000"
     borderopacity="0.25"
     inkscape:showpageshadow="2"
     inkscape:pageopacity="0.0"
     inkscape:pagecheckerboard="0"
     inkscape:deskcolor="#d1d1d1"
     fit-margin-top="5"
     fit-margin-left="5"
     fit-margin-right="5"
     fit-margin-bottom="5" />
  <g
     transform="translate(27.85063,27.38865)"
     id="g16">
    <use
       ffdec:characterId="376"
       height="18.35"
       transform="matrix(0.7783,0,0,0.7783,-0.8,16.3)"
       width="30.950001"
       xlink:href="#sprite0"
       id="use1" />
    <use
       ffdec:characterId="380"
       height="21.9"
       transform="matrix(0.4574,0.7922,-0.7922,0.4574,26.75,0.15)"
       width="2.95"
       xlink:href="#sprite1"
       id="use2" />
    <use
       ffdec:characterId="347"
       height="12.45"
       transform="matrix(0.5728,0.3307,-0.3307,0.5728,-23.9153,5.7864)"
       width="46.049999"
       xlink:href="#sprite2"
       id="use3" />
    <use
       ffdec:characterId="386"
       height="38.349998"
       transform="matrix(-0.5241,0.8369,-0.8369,-0.5241,13.05,-4.95)"
       width="11.45"
       xlink:href="#sprite3"
       id="use4" />
    <use
       ffdec:characterId="386"
       height="38.349998"
       transform="matrix(0.8928,0.4218,0.4218,-0.8928,-9.7,3.75)"
       width="11.45"
       xlink:href="#sprite3"
       id="use5" />
    <use
       ffdec:characterId="376"
       height="18.35"
       transform="matrix(0.7783,0,0,0.7783,-18.2,16.3)"
       width="30.950001"
       xlink:href="#sprite0"
       id="use6" />
    <use
       ffdec:characterId="391"
       height="38.25"
       transform="matrix(0.9147,0,0,0.9147,-15.1,-4.65)"
       width="38"
       xlink:href="#sprite4"
       id="use7" />
    <use
       ffdec:characterId="401"
       height="22.15"
       transform="matrix(0.6058,0,0,0.6058,6.8,-2.35)"
       width="22.9"
       xlink:href="#sprite5"
       id="use8" />
    <use
       ffdec:characterId="384"
       height="8"
       transform="matrix(0,0.6743,-0.6743,0,26.45,1.25)"
       width="34.849998"
       xlink:href="#sprite6"
       id="use9" />
    <use
       ffdec:characterId="347"
       height="12.45"
       transform="matrix(0,-0.7963,0.9147,0,-8.9426,30.5)"
       width="46.049999"
       xlink:href="#sprite7"
       id="use10" />
    <use
       ffdec:characterId="347"
       height="12.45"
       transform="matrix(0,0.7963,0.9147,0,3.0574,-6.35)"
       width="46.049999"
       xlink:href="#sprite7"
       id="use11" />
    <use
       ffdec:characterId="427"
       height="22.049999"
       transform="matrix(1.1649,-0.4173,0.4099,1.1441,-15.1,-9.75)"
       width="22"
       xlink:href="#sprite8"
       id="use12" />
    <use
       ffdec:characterId="384"
       height="8"
       transform="matrix(0.1792,0.5002,-0.6348,0.2274,-2.5,-4.25)"
       width="34.849998"
       xlink:href="#sprite6"
       id="use13" />
    <use
       ffdec:characterId="353"
       height="9.5500002"
       transform="matrix(0.9147,0,0,0.9147,-8.45,2.3)"
       width="9.5"
       xlink:href="#sprite9"
       id="use14" />
    <use
       ffdec:characterId="351"
       height="9.75"
       transform="matrix(0.8611,-0.3085,0.3085,0.8611,3.25,-7.7)"
       width="9.4499998"
       xlink:href="#sprite10"
       id="use15" />
    <use
       ffdec:characterId="428"
       height="5.9499998"
       transform="translate(-2.9,-0.55)"
       width="7.75"
       xlink:href="#shape11"
       id="use16" />
  </g>
  <defs
     id="defs51">
    <g
       id="sprite0">
      <use
         ffdec:characterId="375"
         height="18.35"
         width="30.950001"
         xlink:href="#shape0"
         id="use17" />
    </g>
    <g
       id="shape0">
      <path
         d="m 30.95,7.9 v 9.8 l -0.8,0.3 -0.8,0.25 H 29 L 25.2,18.3 H 5.75 L 1.95,18.25 H 1.6 L 0.8,18 0,17.7 V 7.9 L 0.2,7.25 Q 0.55,5.55 3.1,3.3 6.4,0.35 10.25,0 H 20.7 q 3.85,0.35 7.15,3.3 2.55,2.25 2.9,3.95 l 0.2,0.65 m -8.05,1.4 0.45,0.4 h 4.2 L 27.6,9 27.25,8.45 26.3,6.5 Q 25.75,5.75 24.05,4.75 22,3.55 20.1,3.3 h -5 l 0.35,2.55 0.95,0.05 0.3,0.5 Q 16.4,6.75 15.45,6.9 V 7.05 9.7 h 0.6 3.2 L 19.2,9.55 19.35,8.7 q 0.7,-0.15 1,1 h 2.15 q 0.1,-0.35 0.4,-0.4 m -0.3,2.1 h -1.95 l 0.15,1 -0.4,0.65 Q 19.95,12.7 19.6,11.4 H 16.05 L 15.4,11.35 v 0.1 l -0.7,0.35 -0.35,-0.75 -0.15,-0.1 q -0.1,0.25 -0.1,-0.4 L 14.2,10.2 14.1,9.45 14.05,7.05 V 6.95 L 13,6.8 12.15,6.45 Q 12.3,5.9 12.75,5.8 h 1.3 L 14.1,4.5 14.25,3.3 h -3.4 l -2.1,0.55 0.2,1.2 -0.1,1.65 0.05,1.5 q 0.8,0.1 1.25,0.45 l 0.15,0.4 -0.55,0.5 -0.7,0.15 0.1,1.45 v 0.25 l 0.55,0.05 q 0.65,0.25 0.9,0.6 l -0.4,0.5 -1.1,0.25 -0.5,1.55 h 16.6 l 2.25,-0.1 V 11.95 11.4 H 23.7 v 0.5 l -0.25,1.65 -0.3,0.1 q -0.3,-0.55 -0.5,-1.8 L 22.6,11.4 M 6.9,4.75 Q 5.2,5.75 4.65,6.5 4.3,6.95 3.7,8.45 L 3.35,9 3.5,11.95 v 2.3 l 2.25,0.1 h 2.3 L 7.75,12.65 7.35,12.5 6.4,12.05 6.2,11.6 Q 6.75,11.2 7,11.2 L 7.65,11.25 7.6,10.95 7.55,9.7 6.35,9.45 5.15,8.65 Q 5.55,8.2 7.35,8.1 h 0.2 V 6.8 L 7.65,4.35 6.9,4.75"
         fill="#6b6b6b"
         fill-rule="evenodd"
         stroke="none"
         id="path17" />
      <path
         d="m 22.6,11.4 0.05,0.45 q 0.2,1.25 0.5,1.8 l 0.3,-0.1 0.25,-1.65 v -0.5 h 3.75 v 0.55 2.3 l -2.25,0.1 H 8.6 l 0.5,-1.55 1.1,-0.25 0.4,-0.5 Q 10.35,11.7 9.7,11.45 L 9.15,11.4 V 11.15 L 9.05,9.7 9.75,9.55 10.3,9.05 10.15,8.65 Q 9.7,8.3 8.9,8.2 L 8.85,6.7 8.95,5.05 8.75,3.85 10.85,3.3 h 3.4 L 14.1,4.5 14.05,5.8 h -1.3 Q 12.3,5.9 12.15,6.45 L 13,6.8 14.05,6.95 v 0.1 l 0.05,2.4 0.1,0.75 -0.1,0.35 q 0,0.65 0.1,0.4 l 0.15,0.1 0.35,0.75 0.7,-0.35 v -0.1 l 0.65,0.05 h 3.55 q 0.35,1.3 0.8,1.65 l 0.4,-0.65 -0.15,-1 h 1.95"
         fill="#bba5c3"
         fill-rule="evenodd"
         stroke="none"
         id="path18" />
      <path
         d="m 22.9,9.3 q -0.3,0.05 -0.4,0.4 h -2.15 q -0.3,-1.15 -1,-1 L 19.2,9.55 19.25,9.7 h -3.2 -0.6 V 7.05 6.9 Q 16.4,6.75 16.7,6.4 L 16.4,5.9 15.45,5.85 15.1,3.3 h 5 q 1.9,0.25 3.95,1.45 1.7,1 2.25,1.75 L 27.25,8.45 27.6,9 27.55,9.7 h -4.2 L 22.9,9.3"
         fill="#a98e99"
         fill-rule="evenodd"
         stroke="none"
         id="path19" />
      <path
         d="M 6.9,4.75 7.65,4.35 7.55,6.8 v 1.3 h -0.2 q -1.8,0.1 -2.2,0.55 l 1.2,0.8 1.2,0.25 0.05,1.25 0.05,0.3 L 7,11.2 q -0.25,0 -0.8,0.4 l 0.2,0.45 0.95,0.45 0.4,0.15 0.3,1.7 H 5.75 L 3.5,14.25 v -2.3 L 3.35,9 3.7,8.45 Q 4.3,6.95 4.65,6.5 5.2,5.75 6.9,4.75"
         fill="#c6b8aa"
         fill-rule="evenodd"
         stroke="none"
         id="path20" />
    </g>
    <g
       id="sprite1">
      <use
         ffdec:characterId="379"
         height="21.9"
         width="2.95"
         xlink:href="#shape1"
         id="use20" />
    </g>
    <g
       id="shape1">
      <path
         d="M 1.6,1.15 Q 0.9,1.6 0.9,2.75 0.9,3.95 1.6,4 2,3.2 2,2.5 2,1.8 1.6,1.15 M 0.75,5.2 Q 0.3,4.85 0.1,4 L 0,2.55 Q 0,-0.05 1.5,0 q 1.45,0.05 1.45,2.45 0,2.45 -1.1,2.9 L 2,5.8 1.9,6.15 v 15.1 L 1.45,21.9 0.8,21.25 V 6.3 L 0.7,5.85 0.75,5.2"
         fill="#6b6b6b"
         fill-rule="evenodd"
         stroke="none"
         id="path21" />
    </g>
    <g
       id="sprite2"
       transform="translate(0,-0.5)">
      <use
         ffdec:characterId="346"
         height="12.45"
         transform="translate(0,0.5)"
         width="46.049999"
         xlink:href="#shape2"
         id="use21" />
    </g>
    <g
       id="shape2"
       transform="translate(0,-0.5)">
      <path
         d="m 45.3,0.85 q 0.7,0.6 0.7,2.4 l -0.2,5.1 -0.15,1.55 0.15,0.25 0.25,0.95 q 0,1.2 -1.15,1.55 l -0.5,0.3 -0.4,-0.2 -37.7,0.1 -4.05,-0.2 -0.95,0.2 Q 0.45,12.85 0,12.4 V 7.35 L 0.4,1.5 V 0.65 L 0.45,0.5 H 2.3 L 2.35,0.65 2.75,0.5 H 44.7 q 0.35,0.1 0.6,0.35 M 43,8.1 42.85,3.75 H 33.9 l 0.05,1.55 0.05,0.8 0.7,-0.05 0.55,0.2 0.15,0.4 -0.7,0.35 -0.5,0.1 0.3,0.6 1.4,1.65 h 7.2 L 43,8.1 M 32.95,3.75 h -4.9 l 0.1,1.4 h 0.5 q 0.6,0 0.85,0.35 0,0.35 -0.85,0.5 h -0.5 v 0.6 l 0.5,-0.2 0.55,0.75 -0.2,0.5 h -0.9 l -0.05,1.65 5.7,0.05 -0.5,-1.2 -0.2,-1 -1.3,-0.1 -0.4,-0.5 Q 31.6,6.3 32.95,6.2 L 32.9,5.2 32.95,3.75 M 26.25,6 Q 25.55,5.8 25.35,5.5 L 26.5,5.25 V 5.2 q 0,-0.9 0.15,-1.45 h -8.9 v 0.3 0.35 h 0.4 l 0.5,0.35 q -0.2,0.3 -0.9,0.4 V 7.8 q -0.1,0 -0.65,0.35 l -0.35,-0.55 -3,0.05 h -1 v 1.3 L 12.4,9.3 h 14.45 l -0.1,-0.65 -0.1,-1 h -0.4 Q 25.55,7.65 25,7.2 25.85,6.6 26.6,6.75 L 26.55,6 h -0.3 M 16.3,3.75 H 6.1 v 0.3 L 6,6.2 h 2.9 q 0.15,-0.75 0.55,-1 l 0.6,0.95 1.45,-0.05 q 0.1,-0.85 0.6,-1.2 0.45,0.15 0.65,0.5 V 6.1 L 16.4,6.2 V 6.1 L 16.35,5.2 h -0.5 L 15.4,4.7 Q 15.75,4.5 16.35,4.45 V 4.05 L 16.3,3.75 M 10.25,7.9 10.15,9.25 12.3,9.3 Q 11.7,8.7 11.55,7.65 L 10.25,7.6 V 7.9 M 5,3.75 H 2.95 l 0.2,5.7 3.15,-0.2 H 8.8 Q 8.55,8.85 8.7,7.9 V 7.55 L 5.8,7.5 5.6,7.65 5.5,7.5 H 5.25 L 4.6,6.8 Q 4.6,6.4 4.85,6.3 L 5.15,6.25 Q 5,5.35 5,4 V 3.75"
         fill="#9a9a9a"
         fill-rule="evenodd"
         stroke="none"
         id="path22" />
      <path
         d="m 32.95,3.75 -0.05,1.45 0.05,1 q -1.35,0.1 -1.6,0.35 l 0.4,0.5 1.3,0.1 0.2,1 0.5,1.2 L 28.05,9.3 28.1,7.65 H 29 L 29.2,7.15 28.65,6.4 28.15,6.6 V 6 h 0.5 Q 29.5,5.85 29.5,5.5 29.25,5.15 28.65,5.15 h -0.5 l -0.1,-1.4 h 4.9 m -16.65,0 0.05,0.3 v 0.4 Q 15.75,4.5 15.4,4.7 l 0.45,0.5 h 0.5 L 16.4,6.1 V 6.2 L 12.75,6.1 V 5.4 Q 12.55,5.05 12.1,4.9 11.6,5.25 11.5,6.1 L 10.05,6.15 9.45,5.2 Q 9.05,5.45 8.9,6.2 H 6 L 6.1,4.05 v -0.3 h 10.2"
         fill="#b8b0bb"
         fill-rule="evenodd"
         stroke="none"
         id="path23" />
      <path
         d="m 26.25,6 h 0.3 L 26.6,6.75 Q 25.85,6.6 25,7.2 q 0.55,0.45 1.25,0.45 h 0.4 l 0.1,1 0.1,0.65 H 12.4 l 0.35,-0.35 v -1.3 h 1 l 3,-0.05 0.35,0.55 Q 17.65,7.8 17.75,7.8 V 5.15 q 0.7,-0.1 0.9,-0.4 L 18.15,4.4 h -0.4 V 4.05 3.75 h 8.9 Q 26.5,4.3 26.5,5.2 V 5.25 L 25.35,5.5 q 0.2,0.3 0.9,0.5"
         fill="#b7aeae"
         fill-rule="evenodd"
         stroke="none"
         id="path24" />
      <path
         d="m 43,8.1 0.1,1.25 H 35.9 L 34.5,7.7 34.2,7.1 34.7,7 35.4,6.65 35.25,6.25 34.7,6.05 34,6.1 33.95,5.3 33.9,3.75 h 8.95 L 43,8.1 M 5,3.75 V 4 Q 5,5.35 5.15,6.25 L 4.85,6.3 Q 4.6,6.4 4.6,6.8 L 5.25,7.5 H 5.5 L 5.6,7.65 5.8,7.5 8.7,7.55 V 7.9 Q 8.55,8.85 8.8,9.25 H 6.3 L 3.15,9.45 2.95,3.75 H 5 M 10.25,7.9 V 7.6 l 1.3,0.05 Q 11.7,8.7 12.3,9.3 L 10.15,9.25 10.25,7.9"
         fill="#bdb7b2"
         fill-rule="evenodd"
         stroke="none"
         id="path25" />
    </g>
    <g
       id="sprite3">
      <use
         ffdec:characterId="385"
         height="38.349998"
         width="11.45"
         xlink:href="#shape3"
         id="use25" />
    </g>
    <g
       id="shape3">
      <path
         d="m 4.5,9.4 q 0.65,0.4 1.85,0 L 7.45,8.95 Q 8.2,7.6 6.75,4.05 5.2,0.45 3.1,4.1 2.5,5.2 2.5,6.4 q 0.1,1.9 2,3 M 9.7,11.6 9.6,9.85 9.9,12.9 9.7,13.8 q 0.9,2.95 1.75,9.35 0,2.95 -1.55,8.4 -1.45,5.15 -2.55,6.8 l -0.3,-0.3 -0.1,-0.5 V 37.1 L 6.85,36.4 6.7,34.8 6.65,24.15 Q 6.25,21.25 6.2,18.4 6.15,15.25 6.6,13.4 L 6.45,12 5.15,12.05 Q 4.5,12.1 3.15,11.3 -0.1,9.4 0,6.3 0.05,4.65 0.95,3.1 2.3,0.75 5.45,0.1 9.25,-0.8 9.3,5.15 l 0.3,5.15 0.1,1.3 m -0.8,3.2 -0.6,0.15 0.05,0.4 Q 8.55,15.2 8.9,15.2 L 9.2,15.25 9.05,14.7 8.95,14.75 8.9,14.8 m 0.05,2.4 -0.5,-0.1 0.2,7.1 -0.1,6.8 v 0.2 l 0.1,-0.35 q 1.7,-5.4 1.7,-9.9 L 9.55,17 8.95,17.2"
         fill="#6b6b6b"
         fill-rule="evenodd"
         stroke="none"
         id="path26" />
      <path
         d="M 9.2,15.25 8.9,15.2 q -0.35,0 -0.55,0.15 L 8.3,14.95 8.9,14.8 9.2,15.25 m -0.25,1.95 0.6,-0.2 0.8,3.95 q 0,4.5 -1.7,9.9 L 8.55,31.2 V 31 l 0.1,-6.8 -0.2,-7.1 0.5,0.1"
         fill="#d7d7d7"
         fill-rule="evenodd"
         stroke="none"
         id="path27" />
    </g>
    <g
       id="sprite4">
      <use
         ffdec:characterId="390"
         height="38.25"
         width="38"
         xlink:href="#shape4"
         id="use27" />
    </g>
    <g
       id="shape4">
      <path
         d="m 21.15,11.85 -0.45,0.1 -1.3,0.1 0.2,4.6 -0.8,0.75 -8.15,0.05 L 10.3,18.6 10,18.65 Q 9.75,18.15 9.65,17.45 H 7.85 L 7.75,19.15 7.3,19.4 Q 6.85,19.05 6.7,17.9 V 17.45 H 4 l -0.25,1.7 q 0.3,3.3 2.1,6.9 2.65,5.4 7.55,7.05 L 13.25,32.05 11.95,31.7 Q 12.55,31 13.2,30.65 V 30.6 L 10.9,30.4 10.6,30.65 9.45,30.6 9.25,29.95 v -5.2 Q 9.4,22.7 9.9,21.15 L 9.8,21 v -0.65 l 0.05,-0.4 q 0.1,-0.35 0.75,-0.6 l 4,0.05 q 0.1,-0.95 0.5,-1.3 l 0.55,1.3 h 0.95 q 0.05,-1.15 0.6,-1.55 l 0.55,1.55 h 2.95 l 0.05,0.05 0.35,-0.35 0.7,0.5 v 3.9 l 2.4,-1.7 q -0.5,-1 -0.6,-1.8 0.9,-0.45 1.7,1.05 l 0.95,-0.6 -0.5,-0.85 q 0,-0.85 0.55,-0.85 -0.05,0.6 0.65,1.25 l 2.8,-1.65 0.05,-1.4 h 0.4 l 0.2,1 1.1,-0.65 -0.15,-0.55 0.05,-0.4 0.4,0.05 0.3,0.6 1.55,-0.9 -1.55,-3.9 Q 28.3,4.45 19.75,4.45 h -0.5 l 0.2,1.6 -0.05,1.8 0.95,0.1 0.1,0.05 0.05,0.4 q 0,0.55 -0.4,0.7 l -0.75,0.05 v 0.5 l 0.05,1.1 h 1.3 l 0.4,0.1 q 0.2,0.1 0.2,0.5 l -0.15,0.5 M 21.8,24.4 v 4.85 l 0.1,0.1 0.05,0.4 -0.85,0.85 h -5.95 l 1.4,0.9 q -0.15,0.75 -1.45,0.75 l -0.75,-0.05 -0.05,1.15 3.85,0.45 h 0.65 0.95 q 8.55,0 12.35,-7.75 1.8,-3.6 2.1,-6.9 l -0.2,-1.6 -1.3,0.95 0.1,0.45 -0.1,0.4 -0.45,-0.6 -1.7,1.05 v 1.45 l -0.05,0.2 -0.4,0.05 -0.5,-0.1 0.05,-1.1 -1.35,0.75 1.8,1.4 -0.1,0.3 -0.45,0.1 q -1.3,0 -2.4,-1.15 L 25.85,22.35 26.35,24 26,24.4 24.85,22.85 21.8,24.4 M 38,18.75 v 0.2 0.55 h -0.05 q -0.25,2.85 -1.1,5.5 -0.65,2.05 -1.7,3.95 -4.85,8.9 -16.05,9.3 H 18.8 Q 7.6,37.85 2.75,28.95 0.35,24.5 0,19.5 v -0.15 -0.6 h 0.05 q 0.3,-5 2.7,-9.45 4.5,-8.25 14.5,-9.2 L 18.8,0 h 0.3 l 1.6,0.1 q 9.95,0.95 14.45,9.2 1.05,1.9 1.7,3.95 0.85,2.65 1.1,5.5 H 38 M 18.15,4.45 q -8.5,0 -12.3,7.75 -0.9,1.8 -1.4,3.55 h 2.3 Q 6.85,14.8 7.3,14.5 l 0.5,1.25 h 1.8 q 0.05,-0.9 0.5,-1.25 l 0.55,1.25 7.45,-0.05 0.05,-3.55 -0.55,0.05 -0.75,-0.05 q -0.15,0.1 -0.15,-0.55 0,-0.6 1.5,-0.8 V 9.15 L 16.75,9 15.85,8.5 q 0.35,-0.3 1.7,-0.55 l 0.65,-0.1 0.05,-3.4 h -0.1 m -7.05,16.7 0.2,3.9 -0.05,2.9 -0.05,1.2 L 13.25,29 20.5,28.9 20,23.45 q -0.2,-1.7 0.15,-2.85 l -2.2,0.05 0.05,0.85 -0.05,0.4 -0.4,0.35 q -0.75,-0.4 -0.9,-1.2 V 20.7 H 15.7 q -0.05,1.6 -0.6,2.2 -0.55,-0.65 -0.6,-2.15 l -3.4,0.4"
         fill="#6b6b6b"
         fill-rule="evenodd"
         stroke="none"
         id="path28" />
      <path
         d="m 18.15,4.45 h 0.1 l -0.05,3.4 -0.65,0.1 Q 16.2,8.2 15.85,8.5 l 0.9,0.5 1.45,0.15 v 1.65 q -1.5,0.2 -1.5,0.8 0,0.65 0.15,0.55 L 17.6,12.2 18.15,12.15 18.1,15.7 10.65,15.75 10.1,14.5 Q 9.65,14.85 9.6,15.75 H 7.8 L 7.3,14.5 Q 6.85,14.8 6.75,15.75 H 4.45 Q 4.95,14 5.85,12.2 9.65,4.45 18.15,4.45"
         fill="#bba5c3"
         fill-rule="evenodd"
         stroke="none"
         id="path29" />
      <path
         d="m 21.15,11.85 0.15,-0.5 q 0,-0.4 -0.2,-0.5 l -0.4,-0.1 H 19.4 L 19.35,9.65 V 9.15 L 20.1,9.1 Q 20.5,8.95 20.5,8.4 L 20.45,8 20.35,7.95 19.4,7.85 l 0.05,-1.8 -0.2,-1.6 h 0.5 q 8.55,0 12.35,7.75 l 1.55,3.9 -1.55,0.9 -0.3,-0.6 -0.4,-0.05 -0.05,0.4 0.15,0.55 -1.1,0.65 -0.2,-1 h -0.4 l -0.05,1.4 -2.8,1.65 q -0.7,-0.65 -0.65,-1.25 -0.55,0 -0.55,0.85 l 0.5,0.85 -0.95,0.6 q -0.8,-1.5 -1.7,-1.05 0.1,0.8 0.6,1.8 l -2.4,1.7 V 19.6 L 21.1,19.1 20.75,19.45 20.7,19.4 H 17.75 L 17.2,17.85 q -0.55,0.4 -0.6,1.55 H 15.65 L 15.1,18.1 q -0.4,0.35 -0.5,1.3 l -4,-0.05 Q 9.95,19.6 9.85,19.95 L 9.8,20.35 V 21 l 0.1,0.15 q -0.5,1.55 -0.65,3.6 v 5.2 l 0.2,0.65 1.15,0.05 0.3,-0.25 2.3,0.2 v 0.05 Q 12.55,31 11.95,31.7 l 1.3,0.35 0.15,1.05 Q 8.5,31.45 5.85,26.05 4.05,22.45 3.75,19.15 L 4,17.45 h 2.7 v 0.45 q 0.15,1.15 0.6,1.5 l 0.45,-0.25 0.1,-1.7 h 1.8 q 0.1,0.7 0.35,1.2 l 0.3,-0.05 0.35,-1.15 8.15,-0.05 0.8,-0.75 -0.2,-4.6 1.3,-0.1 0.45,-0.1"
         fill="#b8a0a0"
         fill-rule="evenodd"
         stroke="none"
         id="path30" />
      <path
         d="m 11.1,21.15 3.4,-0.4 q 0.05,1.5 0.6,2.15 0.55,-0.6 0.6,-2.2 h 0.95 v 0.35 q 0.15,0.8 0.9,1.2 L 17.95,21.9 18,21.5 17.95,20.65 20.15,20.6 Q 19.8,21.75 20,23.45 l 0.5,5.45 -7.25,0.1 -2.05,0.15 0.05,-1.2 0.05,-2.9 -0.2,-3.9"
         fill="#a98e99"
         fill-rule="evenodd"
         stroke="none"
         id="path31" />
      <path
         d="m 21.8,24.4 3.05,-1.55 1.15,1.55 0.35,-0.4 -0.5,-1.65 1.3,-0.65 q 1.1,1.15 2.4,1.15 l 0.45,-0.1 0.1,-0.3 -1.8,-1.4 1.35,-0.75 -0.05,1.1 0.5,0.1 0.4,-0.05 0.05,-0.2 V 19.8 l 1.7,-1.05 0.45,0.6 0.1,-0.4 -0.1,-0.45 1.3,-0.95 0.2,1.6 q -0.3,3.3 -2.1,6.9 -3.8,7.75 -12.35,7.75 H 18.8 18.15 l -3.85,-0.45 0.05,-1.15 0.75,0.05 q 1.3,0 1.45,-0.75 l -1.4,-0.9 h 5.95 l 0.85,-0.85 -0.05,-0.4 -0.1,-0.1 V 24.4"
         fill="#c6b8aa"
         fill-rule="evenodd"
         stroke="none"
         id="path32" />
    </g>
    <g
       id="sprite5">
      <use
         ffdec:characterId="400"
         height="22.15"
         width="22.9"
         xlink:href="#shape5"
         id="use32" />
    </g>
    <g
       id="shape5">
      <path
         d="m 22.25,12.45 q -0.7,2.15 -2,2.85 0.75,0.85 0.75,1.85 0,5 -4.75,5 -3.4,0 -4.95,-1.05 L 10.65,20.55 10.5,20.6 Q 9.05,21.5 6.75,21.5 3.6,21.5 1.5,19 0,17.25 0,16.35 0,12.8 0.5,11.7 1.1,10.3 2.5,9.9 L 2.35,9.5 2.2,7.5 Q 2.2,0.3 9.35,0 12,-0.15 14.25,0.85 16.5,1.8 16.5,2.95 v 0.2 l 2.4,0.05 q 4,1.05 4,5.6 0,1.8 -0.65,3.65 M 14.1,3.6 Q 12.3,2.15 9.25,2.15 6.65,2.15 5.5,4.9 4.9,6.25 4.85,7.7 4.85,8.6 5.5,8.95 6.1,9.35 6.1,10 v 0.05 q 0,1.3 -1.4,1.3 H 4.3 q -0.85,0.45 -1.05,0.9 -0.5,1 -0.5,2.5 0,1 0.85,2.2 1.25,1.8 3.6,1.8 1.15,0 2.25,-0.55 l 1.2,-0.55 q 0.55,0 0.85,0.5 l 0.1,0.1 q 0.65,0.05 1.25,0.65 0.65,0.65 2,0.65 l 2.55,-0.15 0.65,-0.9 0.45,-1.25 -0.75,-1 L 17,15.2 q 0,-1.2 0.7,-1.25 l 1.15,-1.5 Q 20.4,10.45 20.4,8.9 20.4,7.25 20.1,6.85 19.3,5.8 16.25,5.8 15.15,5.8 14.9,5.1 V 4.6 L 14.95,4.35 14.1,3.6"
         fill="#6b6b6b"
         fill-rule="evenodd"
         stroke="none"
         id="path33" />
      <path
         d="M 11.9,4.65 11.8,4.6 Q 10.95,4.1 9.4,4.85 7.9,5.6 7.9,6.2 q 0,0.4 0.15,0.5 l 0.3,0.1 Q 9.25,6.3 10.9,5.85 11.95,5.55 11.95,5.1 L 11.9,4.65 M 14.1,3.6 14.95,4.35 14.9,4.6 v 0.5 q 0.25,0.7 1.35,0.7 3.05,0 3.85,1.05 0.3,0.4 0.3,2.05 0,1.55 -1.55,3.55 l -1.15,1.5 Q 17,14 17,15.2 l 0.75,1.05 0.75,1 -0.45,1.25 -0.65,0.9 -2.55,0.15 q -1.35,0 -2,-0.65 -0.6,-0.6 -1.25,-0.65 l -0.1,-0.1 q -0.3,-0.5 -0.85,-0.5 l -1.2,0.55 q -1.1,0.55 -2.25,0.55 -2.35,0 -3.6,-1.8 -0.85,-1.2 -0.85,-2.2 0,-1.5 0.5,-2.5 0.2,-0.45 1.05,-0.9 h 0.4 q 1.4,0 1.4,-1.3 V 10 Q 6.1,9.35 5.5,8.95 4.85,8.6 4.85,7.7 4.9,6.25 5.5,4.9 6.65,2.15 9.25,2.15 q 3.05,0 4.85,1.45 m -4,11.6 -0.85,-0.8 -0.9,-0.85 q -0.8,0.6 -0.8,1.45 l 0.85,1.05 q 1.45,1 4.8,1 l 0.9,-0.45 q 0.6,-0.5 0.6,-1 L 14.6,15.15 Q 14.4,14.7 13.7,14.7 L 12.75,14.85 10.1,15.2 M 9.9,11.6 10.05,10.35 10.7,8.9 Q 9,7.75 8.55,8.7 8.35,9.05 8.35,10.45 L 8.45,11.8 9.2,11.95 9.75,11.8 9.9,11.6 M 6.05,12.3 5.95,12.15 Q 5,12.25 4.2,13.25 3.55,14 3.55,14.45 l 0.2,0.8 0.6,1.05 1.1,-0.25 L 5.1,15.9 q -0.15,-0.1 -0.15,-0.5 0,-0.35 0.6,-1.4 l 0.6,-1.3 -0.1,-0.4 m 9.85,-0.45 q 1,0 1.45,-0.7 l 0.3,-1.05 q 0,-1.75 -1.75,-1.75 -1.8,0 -1.8,1.75 0,1.75 1.8,1.75 m -3.05,0.2 -1.2,0.05 q -0.3,0.2 -0.3,0.55 l 0.85,0.9 0.75,-0.35 0.1,-0.5 -0.2,-0.65"
         fill="#fdfdfd"
         fill-rule="evenodd"
         stroke="none"
         id="path34" />
      <path
         d="m 11.9,4.65 0.05,0.45 q 0,0.45 -1.05,0.75 Q 9.25,6.3 8.35,6.8 L 8.05,6.7 Q 7.9,6.6 7.9,6.2 7.9,5.6 9.4,4.85 10.95,4.1 11.8,4.6 l 0.1,0.05 m 0.95,7.4 0.2,0.65 -0.1,0.5 -0.75,0.35 -0.85,-0.9 q 0,-0.35 0.3,-0.55 l 1.2,-0.05 m 3.05,-0.2 q -1.8,0 -1.8,-1.75 0,-1.75 1.8,-1.75 1.75,0 1.75,1.75 l -0.3,1.05 q -0.45,0.7 -1.45,0.7 m -9.85,0.45 0.1,0.4 -0.6,1.3 q -0.6,1.05 -0.6,1.4 0,0.4 0.15,0.5 l 0.35,0.15 -1.1,0.25 -0.6,-1.05 -0.2,-0.8 q 0,-0.45 0.65,-1.2 0.8,-1 1.75,-1.1 l 0.1,0.15 M 9.9,11.6 9.75,11.8 9.2,11.95 8.45,11.8 8.35,10.45 Q 8.35,9.05 8.55,8.7 9,7.75 10.7,8.9 L 10.05,10.35 9.9,11.6 m 0.2,3.6 2.65,-0.35 0.95,-0.15 q 0.7,0 0.9,0.45 l 0.1,0.45 q 0,0.5 -0.6,1 l -0.9,0.45 q -3.35,0 -4.8,-1 L 7.55,15 q 0,-0.85 0.8,-1.45 l 0.9,0.85 0.85,0.8"
         fill="#e7e7e7"
         fill-rule="evenodd"
         stroke="none"
         id="path35" />
    </g>
    <g
       id="sprite6">
      <use
         ffdec:characterId="383"
         height="8"
         width="34.849998"
         xlink:href="#shape6"
         id="use35" />
    </g>
    <g
       id="shape6">
      <path
         d="m 33,1 1.85,-1 -1.3,1.5 Q 32.15,2.85 30.6,2.85 29,2.85 28.2,1.95 27.35,1 24.65,1 22.1,1 19.7,4.5 17.3,8 13.05,8 9.55,8 6.2,5.05 3,2.15 0.1,2.35 0,2.65 0,2.15 0,1.5 0.7,1.3 L 2.9,1.15 q 1,0 3.8,2.75 2.8,2.7 7.65,2.7 1.8,0 4.45,-3.3 2.7,-3.3 7.3,-3.3 1.55,0 2.6,0.9 1,0.9 2.05,0.9 0.7,0 2.25,-0.8"
         fill="#6b6b6b"
         fill-rule="evenodd"
         stroke="none"
         id="path36" />
    </g>
    <g
       id="sprite7"
       transform="translate(0,-0.5)">
      <use
         ffdec:characterId="346"
         height="12.45"
         transform="translate(0,0.5)"
         width="46.049999"
         xlink:href="#shape7"
         id="use36" />
    </g>
    <g
       id="shape7"
       transform="translate(0,-0.5)">
      <path
         d="m 45.3,0.85 q 0.7,0.6 0.7,2.4 l -0.2,5.1 -0.15,1.55 0.15,0.25 0.25,0.95 q 0,1.2 -1.15,1.55 l -0.5,0.3 -0.4,-0.2 -37.7,0.1 -4.05,-0.2 -0.95,0.2 Q 0.45,12.85 0,12.4 V 7.35 L 0.4,1.5 V 0.65 L 0.45,0.5 H 2.3 L 2.35,0.65 2.75,0.5 H 44.7 q 0.35,0.1 0.6,0.35 M 43,8.1 42.85,3.75 H 33.9 l 0.05,1.55 0.05,0.8 0.7,-0.05 0.55,0.2 0.15,0.4 -0.7,0.35 -0.5,0.1 0.3,0.6 1.4,1.65 h 7.2 L 43,8.1 M 32.95,3.75 h -4.9 l 0.1,1.4 h 0.5 q 0.6,0 0.85,0.35 0,0.35 -0.85,0.5 h -0.5 v 0.6 l 0.5,-0.2 0.55,0.75 -0.2,0.5 h -0.9 l -0.05,1.65 5.7,0.05 -0.5,-1.2 -0.2,-1 -1.3,-0.1 -0.4,-0.5 Q 31.6,6.3 32.95,6.2 L 32.9,5.2 32.95,3.75 M 26.25,6 Q 25.55,5.8 25.35,5.5 L 26.5,5.25 V 5.2 q 0,-0.9 0.15,-1.45 h -8.9 v 0.3 0.35 h 0.4 l 0.5,0.35 q -0.2,0.3 -0.9,0.4 V 7.8 q -0.1,0 -0.65,0.35 l -0.35,-0.55 -3,0.05 h -1 v 1.3 L 12.4,9.3 h 14.45 l -0.1,-0.65 -0.1,-1 h -0.4 Q 25.55,7.65 25,7.2 25.85,6.6 26.6,6.75 L 26.55,6 h -0.3 M 16.3,3.75 H 6.1 v 0.3 L 6,6.2 h 2.9 q 0.15,-0.75 0.55,-1 l 0.6,0.95 1.45,-0.05 q 0.1,-0.85 0.6,-1.2 0.45,0.15 0.65,0.5 V 6.1 L 16.4,6.2 V 6.1 L 16.35,5.2 h -0.5 L 15.4,4.7 Q 15.75,4.5 16.35,4.45 V 4.05 L 16.3,3.75 M 10.25,7.9 10.15,9.25 12.3,9.3 Q 11.7,8.7 11.55,7.65 L 10.25,7.6 V 7.9 M 5,3.75 H 2.95 l 0.2,5.7 3.15,-0.2 H 8.8 Q 8.55,8.85 8.7,7.9 V 7.55 L 5.8,7.5 5.6,7.65 5.5,7.5 H 5.25 L 4.6,6.8 Q 4.6,6.4 4.85,6.3 L 5.15,6.25 Q 5,5.35 5,4 V 3.75"
         fill="#6b6b6b"
         fill-rule="evenodd"
         stroke="none"
         id="path37" />
      <path
         d="m 32.95,3.75 -0.05,1.45 0.05,1 q -1.35,0.1 -1.6,0.35 l 0.4,0.5 1.3,0.1 0.2,1 0.5,1.2 L 28.05,9.3 28.1,7.65 H 29 L 29.2,7.15 28.65,6.4 28.15,6.6 V 6 h 0.5 Q 29.5,5.85 29.5,5.5 29.25,5.15 28.65,5.15 h -0.5 l -0.1,-1.4 h 4.9 m -16.65,0 0.05,0.3 v 0.4 Q 15.75,4.5 15.4,4.7 l 0.45,0.5 h 0.5 L 16.4,6.1 V 6.2 L 12.75,6.1 V 5.4 Q 12.55,5.05 12.1,4.9 11.6,5.25 11.5,6.1 L 10.05,6.15 9.45,5.2 Q 9.05,5.45 8.9,6.2 H 6 L 6.1,4.05 v -0.3 h 10.2"
         fill="#bba5c3"
         fill-rule="evenodd"
         stroke="none"
         id="path38" />
      <path
         d="m 26.25,6 h 0.3 L 26.6,6.75 Q 25.85,6.6 25,7.2 q 0.55,0.45 1.25,0.45 h 0.4 l 0.1,1 0.1,0.65 H 12.4 l 0.35,-0.35 v -1.3 h 1 l 3,-0.05 0.35,0.55 Q 17.65,7.8 17.75,7.8 V 5.15 q 0.7,-0.1 0.9,-0.4 L 18.15,4.4 h -0.4 V 4.05 3.75 h 8.9 Q 26.5,4.3 26.5,5.2 V 5.25 L 25.35,5.5 q 0.2,0.3 0.9,0.5"
         fill="#b8a0a0"
         fill-rule="evenodd"
         stroke="none"
         id="path39" />
      <path
         d="m 43,8.1 0.1,1.25 H 35.9 L 34.5,7.7 34.2,7.1 34.7,7 35.4,6.65 35.25,6.25 34.7,6.05 34,6.1 33.95,5.3 33.9,3.75 h 8.95 L 43,8.1 M 5,3.75 V 4 Q 5,5.35 5.15,6.25 L 4.85,6.3 Q 4.6,6.4 4.6,6.8 L 5.25,7.5 H 5.5 L 5.6,7.65 5.8,7.5 8.7,7.55 V 7.9 Q 8.55,8.85 8.8,9.25 H 6.3 L 3.15,9.45 2.95,3.75 H 5 M 10.25,7.9 V 7.6 l 1.3,0.05 Q 11.7,8.7 12.3,9.3 L 10.15,9.25 10.25,7.9"
         fill="#c6b8aa"
         fill-rule="evenodd"
         stroke="none"
         id="path40" />
    </g>
    <g
       id="sprite8">
      <use
         ffdec:characterId="426"
         height="22.049999"
         width="22"
         xlink:href="#shape8"
         id="use40" />
    </g>
    <g
       id="shape8">
      <path
         d="m 22,11 v 0.65 q 0,3.05 -1.55,5.55 -2.6,4.4 -9,4.8 v 0.05 L 11,22 10.55,22.05 V 22 Q 4.15,21.6 1.55,17.2 0,14.7 0,11.65 L 0.05,11.05 0,10.4 q 0,-3.05 1.55,-5.55 2.6,-4.4 9,-4.8 V 0 L 11,0.05 11.45,0 v 0.05 q 6.4,0.4 9,4.8 Q 22,7.35 22,10.4 V 11 M 13.65,5.05 q 0.9,0.35 1.1,0.95 l 0.1,0.6 h 2.3 Q 15.4,4.2 11,4.05 L 8.3,4.45 8.55,7.8 10,8.1 10.2,8.55 q -0.5,0.4 -1.6,0.6 v 2.25 0.25 l 0.35,-0.05 0.4,0.05 0.15,0.45 -0.05,0.5 -0.1,0.1 -0.75,0.05 -0.05,1.75 0.4,0.05 0.4,0.5 Q 9.1,15.4 8.55,15.55 V 17.7 L 11,18 q 3.85,-0.1 5.65,-1.95 H 12.1 V 16.1 L 11.5,16.3 11.25,15.8 10.85,15.05 11,15 10.8,13.65 10.75,11.85 10.2,11.45 10.75,11.2 V 10.85 L 10.85,7.45 10.6,7.2 q 0,-0.4 0.25,-0.5 l 0.4,-0.1 H 13.3 L 13.2,6.05 13.3,5.4 13.65,5.05 M 13.6,7.9 h -1.15 l 0.1,0.8 q 0.05,1 -0.3,2.2 V 11 q 1,0 1.5,0.4 l -0.35,0.55 -1.15,0.2 -0.05,2.5 h 1.45 v -0.2 q 0,-2 0.8,-1.8 0.7,0.2 0.8,2 h 2.35 q 0.45,-1 0.55,-2.3 h -0.1 L 18.15,11 18.05,9.7 h 0.1 L 17.8,7.9 h -2.95 l -0.1,0.9 -0.1,0.15 -0.45,0.1 q -0.3,0 -0.6,-1.15 M 4,12.35 H 3.9 Q 4.2,16.3 7.75,17.5 L 7.6,15.7 H 7.4 L 6,15.65 5.85,15.4 Q 6.2,14.6 6.3,14.55 L 7.55,14.4 7.5,12.8 6.65,12.65 5.4,12.3 5.35,12.1 7.5,11.7 V 11.45 L 7.3,9.3 H 6 L 5.55,9.2 5.45,8.95 Q 5.7,7.8 7.15,7.75 L 7.1,6.9 Q 7.05,5.6 7.25,4.8 4.15,6.05 3.9,9.7 H 4 L 3.85,11.05 4,12.35"
         fill="#6b6b6b"
         fill-rule="evenodd"
         stroke="none"
         id="path41" />
      <path
         d="M 13.65,5.05 13.3,5.4 13.2,6.05 13.3,6.6 h -2.05 l -0.4,0.1 Q 10.6,6.8 10.6,7.2 l 0.25,0.25 -0.1,3.4 v 0.35 l -0.55,0.25 0.55,0.4 0.05,1.8 0.2,1.35 -0.15,0.05 0.4,0.75 0.25,0.5 0.6,-0.2 v -0.05 h 4.55 Q 14.85,17.9 11,18 L 8.55,17.7 V 15.55 Q 9.1,15.4 9.35,15.05 L 8.95,14.55 8.55,14.5 8.6,12.75 9.35,12.7 9.45,12.6 9.5,12.1 9.35,11.65 8.95,11.6 8.6,11.65 V 11.4 9.15 q 1.1,-0.2 1.6,-0.6 L 10,8.1 8.55,7.8 8.3,4.45 11,4.05 q 4.4,0.15 6.15,2.55 h -2.3 L 14.75,6 q -0.2,-0.6 -1.1,-0.95"
         fill="#a98e99"
         fill-rule="evenodd"
         stroke="none"
         id="path42" />
      <path
         d="M 4,12.35 3.85,11.05 4,9.7 H 3.9 Q 4.15,6.05 7.25,4.8 7.05,5.6 7.1,6.9 L 7.15,7.75 Q 5.7,7.8 5.45,8.95 L 5.55,9.2 6,9.3 h 1.3 l 0.2,2.15 V 11.7 L 5.35,12.1 5.4,12.3 6.65,12.65 7.5,12.8 7.55,14.4 6.3,14.55 Q 6.2,14.6 5.85,15.4 L 6,15.65 7.4,15.7 h 0.2 l 0.15,1.8 Q 4.2,16.3 3.9,12.35 H 4"
         fill="#c6b8aa"
         fill-rule="evenodd"
         stroke="none"
         id="path43" />
      <path
         d="m 13.6,7.9 q 0.3,1.15 0.6,1.15 l 0.45,-0.1 0.1,-0.15 0.1,-0.9 h 2.95 l 0.35,1.8 h -0.1 l 0.1,1.3 -0.1,1.35 h 0.1 q -0.1,1.3 -0.55,2.3 h -2.35 q -0.1,-1.8 -0.8,-2 -0.8,-0.2 -0.8,1.8 v 0.2 H 12.2 l 0.05,-2.5 1.15,-0.2 0.35,-0.55 Q 13.25,11 12.25,11 v -0.1 q 0.35,-1.2 0.3,-2.2 l -0.1,-0.8 h 1.15"
         fill="#bba5c3"
         fill-rule="evenodd"
         stroke="none"
         id="path44" />
    </g>
    <g
       id="sprite9">
      <use
         ffdec:characterId="352"
         height="9.5500002"
         width="9.5"
         xlink:href="#shape9"
         id="use44" />
    </g>
    <g
       id="shape9">
      <path
         d="M 5.7,2.45 5.75,2.95 5.7,3.2 H 5.45 Q 4.9,3.3 4.9,3.9 V 4.15 L 4.7,4.3 4.45,4.5 3.85,4.35 Q 3,4.35 3,5.15 2.3,5.15 2.1,4.75 V 4.5 Q 2.1,4.1 2.5,3.45 L 2.7,3.15 3.85,2.4 5.7,2.45"
         fill="#e7e7e7"
         fill-rule="evenodd"
         stroke="none"
         id="path45" />
      <path
         d="M 5.7,3.2 5.75,2.95 5.7,2.45 Q 6.65,2.65 7.1,3.2 7.4,3.6 7.4,4.55 L 7.15,6 5.85,7.35 4,7.4 Q 2.6,7.4 2.2,6.05 L 2.1,4.75 Q 2.3,5.15 3,5.15 L 3.05,5.5 Q 3.25,6 3.85,6 4.7,6 4.7,5.2 L 4.45,4.5 4.7,4.3 4.9,4.15 Q 5,4.7 5.9,4.7 L 6.45,4.6 6.55,3.95 Q 6.15,3.2 5.7,3.2 M 3.85,2.4 2.7,3.15 3.7,2.4 h 0.15"
         fill="#989898"
         fill-rule="evenodd"
         stroke="none"
         id="path46" />
      <path
         d="M 5.7,2.45 3.85,2.4 H 3.7 l -1,0.75 -0.2,0.3 Q 2.1,4.1 2.1,4.5 v 0.25 l 0.1,1.3 Q 2.6,7.4 4,7.4 L 5.85,7.35 7.15,6 7.4,4.55 Q 7.4,3.6 7.1,3.2 6.65,2.65 5.7,2.45 M 3,5.15 Q 3,4.35 3.85,4.35 L 4.45,4.5 4.7,5.2 Q 4.7,6 3.85,6 3.25,6 3.05,5.5 L 3,5.15 m 1.9,-1 V 3.9 Q 4.9,3.3 5.45,3.2 H 5.7 q 0.45,0 0.85,0.75 L 6.45,4.6 5.9,4.7 Q 5,4.7 4.9,4.15 m 4.6,1.5 Q 9.5,6.5 8.55,7.75 7.2,9.55 4.95,9.55 1.65,9.55 0.5,7.6 L 0,5.65 Q 0,3.5 1.05,2.05 L 1.5,1.5 2.4,0.75 Q 3.45,0.05 4.75,0 6.7,-0.05 8,1.35 9.5,2.9 9.5,5.65"
         fill="#6b6b6b"
         fill-rule="evenodd"
         stroke="none"
         id="path47" />
    </g>
    <g
       id="sprite10">
      <use
         ffdec:characterId="350"
         height="9.75"
         width="9.4499998"
         xlink:href="#shape10"
         id="use47" />
    </g>
    <g
       id="shape10">
      <path
         d="m 8.6,1.9 q 0.85,1.15 0.85,2.7 0,1.7 -0.4,2.7 -0.95,2.45 -3.9,2.45 -2.9,0 -4.3,-2.1 L 0,5.45 Q 0,3.2 0.8,1.9 1.95,0.05 4.75,0 L 5.5,0.05 6.35,0.25 Q 7.2,0.55 7.95,1.2 L 8.6,1.9 M 5.75,2.4 H 4.6 Q 3.25,2.5 2.55,3.05 1.75,3.6 1.75,4.7 l 0.05,0.45 0.05,0.1 q 0.1,0.6 0.6,1.2 Q 3.4,7.65 5,7.65 6.7,7.65 7.25,6 l 0.2,-1.7 q 0,-1.7 -1.7,-1.9 M 5.3,3.75 V 3.7 Q 5.3,3.25 5.65,3.2 L 6.35,3.25 6.5,3.7 6.4,4.2 5.9,4.35 5.3,3.75 M 5.45,6.15 5,6.05 4.9,5.65 Q 4.9,4.9 5.85,5.15 L 5.95,5.1 6.05,5.4 V 5.55 L 5.95,6 5.45,6.15 M 4.05,4.5 Q 3.6,4.5 3.5,4.2 V 3.85 Q 3.5,3.45 3.75,3.25 4.05,3 4.6,3.85 L 4.55,4.25 4.45,4.4 4.05,4.5 M 3.5,4.95 3.85,4.85 Q 4.2,4.95 4.35,5.4 L 3.85,5.9 3.45,5.8 3.35,5.35 q 0,-0.3 0.15,-0.4"
         fill="#6b6b6b"
         fill-rule="evenodd"
         stroke="none"
         id="path48" />
      <path
         d="M 5.75,2.4 V 2.65 L 5.65,3.2 Q 5.3,3.25 5.3,3.7 V 3.75 L 4.8,4.2 Q 3.65,5.15 1.85,5.15 H 1.8 L 1.75,4.7 Q 1.75,3.6 2.55,3.05 3.25,2.5 4.6,2.4 H 5.75 M 4.05,4.5 4.45,4.4 4.55,4.25 4.6,3.85 Q 4.05,3 3.75,3.25 3.5,3.45 3.5,3.85 V 4.2 q 0.1,0.3 0.55,0.3"
         fill="#e7e7e7"
         fill-rule="evenodd"
         stroke="none"
         id="path49" />
      <path
         d="M 5.65,3.2 5.75,2.65 V 2.4 q 1.7,0.2 1.7,1.9 L 7.25,6 Q 6.7,7.65 5,7.65 3.4,7.65 2.45,6.45 1.95,5.85 1.85,5.25 v -0.1 q 1.8,0 2.95,-0.95 L 5.3,3.75 5.9,4.35 6.4,4.2 6.5,3.7 6.35,3.25 5.65,3.2 M 5.45,6.15 5.95,6 6.05,5.55 V 5.4 L 5.95,5.1 5.85,5.15 Q 4.9,4.9 4.9,5.65 L 5,6.05 5.45,6.15 M 3.5,4.95 q -0.15,0.1 -0.15,0.4 l 0.1,0.45 0.4,0.1 0.5,-0.5 Q 4.2,4.95 3.85,4.85 L 3.5,4.95"
         fill="#d7d7d7"
         fill-rule="evenodd"
         stroke="none"
         id="path50" />
    </g>
    <g
       id="shape11"
       transform="translate(2.9,0.55)">
      <path
         d="m 2.8,-0.55 q 1.4,0 1.85,0.55 l 0.2,0.55 q 0,0.7 -0.6,1.65 -0.6,0.9 -1.35,1.1 v 0.2 q 0,1.9 -2.85,1.9 -1.6,0 -2.4,-0.65 L -2.9,4 -2.85,3.3 -2.2,3.15 q 0.45,0 0.7,0.4 l 0.55,0.4 H 0.6 L 1.7,3.2 Q 1.15,2.9 0.85,2.1 L 0.55,0.8 q 0,-0.75 0.35,-1 l 1.9,-0.35"
         fill="#6b6b6b"
         fill-rule="evenodd"
         stroke="none"
         id="path51" />
    </g>
  </defs>
</svg>
