<?xml version="1.0" encoding="UTF-8" standalone="no"?>
<svg
   ffdec:objectType="frame"
   height="40.299999"
   width="58.102631"
   version="1.1"
   id="svg12"
   sodipodi:docname="1.svg"
   xmlns:inkscape="http://www.inkscape.org/namespaces/inkscape"
   xmlns:sodipodi="http://sodipodi.sourceforge.net/DTD/sodipodi-0.dtd"
   xmlns:xlink="http://www.w3.org/1999/xlink"
   xmlns="http://www.w3.org/2000/svg"
   xmlns:svg="http://www.w3.org/2000/svg"
   xmlns:ffdec="https://www.free-decompiler.com/flash">
  <sodipodi:namedview
     id="namedview12"
     pagecolor="#ffffff"
     bordercolor="#000000"
     borderopacity="0.25"
     inkscape:showpageshadow="2"
     inkscape:pageopacity="0.0"
     inkscape:pagecheckerboard="0"
     inkscape:deskcolor="#d1d1d1"
     fit-margin-top="5"
     fit-margin-left="5"
     fit-margin-right="5"
     fit-margin-bottom="5" />
  <g
     transform="translate(29.052632,20.1)"
     id="g2">
    <use
       ffdec:characterId="2069"
       height="14.45"
       transform="translate(-27.35,-20.1)"
       width="54.75"
       xlink:href="#sprite0"
       id="use1" />
    <use
       ffdec:characterId="2070"
       height="28.700001"
       transform="translate(-29.05,-8.5)"
       width="58.099998"
       xlink:href="#shape1"
       id="use2" />
  </g>
  <defs
     id="defs12">
    <g
       id="sprite0"
       transform="translate(27.35,7.25)">
      <use
         ffdec:characterId="2068"
         height="14.45"
         transform="translate(-27.35,-7.25)"
         width="54.75"
         xlink:href="#shape0"
         id="use3" />
    </g>
    <g
       id="shape0"
       transform="translate(27.35,7.25)">
      <path
         d="m 8.35,-3.05 h 0.3 v 1.1 1.25 h -17.3 v -1.25 -1.1 h 0.4 0.2 l 4.55,0.15 h 7 l 4.6,-0.15 h 0.25 m 1.9,0.35 v -2.1 l 0.6,0.1 v 0.05 l 1.05,0.1 H 12 l 2.75,0.05 -0.1,1.85 H 10.6 L 10.25,-2.7 M -14,-4.5 h 0.7 l 1.4,-0.05 0.9,-0.05 h 0.15 v -0.1 l 0.6,-0.1 0.05,2.4 -0.65,0.1 v 0.05 h -1.05 -0.2 -2.55 l -0.05,-2.1 0.7,-0.15"
         fill="#bababa"
         fill-rule="evenodd"
         stroke="none"
         id="path3" />
      <path
         d="M 8.35,-3.05 H 8.1 L 3.5,-2.9 h -7 l -4.55,-0.15 h -0.2 l -0.4,-0.05 v 0.05 1.1 1.25 l 0.05,3.25 0.05,1.3 4.5,0.05 2.6,-0.05 0.7,-0.05 V 3.75 L -0.4,3.7 V 3.65 H 0 0.4 V 3.7 l 0.75,0.1 v 0.05 l 0.7,0.05 h 2.2 L 8.55,3.85 8.6,2.55 V 1.9 h 0.05 v -2.6 -1.25 -1.1 -0.05 l -0.3,0.05 M 8.2,-5.1 Q 8.3,-5.6 8.55,-6 v -0.05 q 0,-0.95 2.3,-1.15 v -0.05 h 0.95 0.1 0.1 0.05 q 4.55,0.15 4.55,1.75 l -0.15,0.6 0.2,2.9 -0.05,3.9 H 16.55 Q 16.3,5.35 15.65,5.35 H 15.6 L 15.2,5.7 h -0.1 l 0.05,0.65 V 7 H 25 l 2.4,0.2 H -27.35 L -25,7 h 9.85 V 6.35 L -15.1,5.7 h -0.1 l -0.4,-0.35 h -0.05 q -0.65,0 -0.9,-3.45 h -0.05 l -0.05,-3.9 0.2,-2.9 -0.15,-0.6 q 0,-1.6 4.55,-1.75 h 0.15 0.15 0.9 v 0.05 q 2.3,0.2 2.3,1.15 V -6 q 0.25,0.4 0.35,0.9 H 8.2 m 6.45,2.45 0.1,-1.85 L 12,-4.55 h -0.1 l -1.05,-0.1 V -4.7 l -0.6,-0.1 v 2.1 L 10.2,0.35 V 0.5 L 10.15,1.9 H 10.1 L 9.9,3.85 14.05,3.8 14.9,3.85 14.7,1.9 H 14.65 V 0.5 -1.9 -2.65 M -0.75,7 H 13.1 V 6.9 6.3 L 13.15,5.7 4.05,5.65 1.85,5.7 1.15,5.75 V 5.8 L 0.4,5.85 V 5.9 H 0 -0.4 V 5.85 H -0.75 V 5.75 L -1.45,5.7 -3.85,5.65 h -0.2 l -9.1,0.05 0.05,0.6 V 7 h 12.35 m -9.45,-9.4 -0.05,-2.4 -0.6,0.1 v 0.1 H -11 l -0.9,0.05 -1.4,0.05 h -0.7 -0.75 l 0.05,0.15 0.05,2.1 v 0.35 l 0.05,2.4 -0.05,1.4 h -0.05 l -0.2,1.95 0.85,-0.05 4.15,0.05 -0.15,-1.95 h -0.1 L -10.2,0.5 V 0.35 -2.4"
         fill="#9a9a9a"
         fill-rule="evenodd"
         stroke="none"
         id="path4" />
      <path
         d="M -8.65,-0.7 H 8.65 V 1.9 H 8.6 V 2.55 L 8.55,3.85 4.05,3.9 H 1.85 L 1.15,3.85 V 3.8 L 0.4,3.7 V 3.65 H 0 -0.4 V 3.7 L -0.75,3.75 V 3.8 L -1.45,3.85 -4.05,3.9 -8.55,3.85 -8.6,2.55 -8.65,-0.7 m 18.9,-2 0.35,0.05 h 4.05 V -1.9 0.5 1.9 H 14.7 L 14.9,3.85 14.05,3.8 9.9,3.85 10.1,1.9 h 0.05 L 10.2,0.5 V 0.35 L 10.25,-2.7 M 13.1,6.9 12.8,6.95 H -0.75 V 7 H -13.1 V 6.3 l -0.05,-0.6 9.1,-0.05 h 0.2 l 2.4,0.05 0.7,0.05 v 0.1 H -0.4 V 5.9 H 0 0.4 V 5.85 L 1.15,5.8 V 5.75 L 1.85,5.7 4.05,5.65 13.15,5.7 13.1,6.3 V 6.9 M -10.2,-2.4 V 0.35 0.5 l 0.05,1.4 h 0.1 L -9.9,3.85 -14.05,3.8 -14.9,3.85 -14.7,1.9 h 0.05 l 0.05,-1.4 -0.05,-2.4 v -0.35 h 2.55 0.2 1.05 V -2.3 l 0.65,-0.1"
         fill="#acacac"
         fill-rule="evenodd"
         stroke="none"
         id="path5" />
      <path
         d="M 13.1,6.9 V 7 H -0.75 V 6.95 H 12.8 L 13.1,6.9"
         fill="#a1a1a1"
         fill-rule="evenodd"
         stroke="none"
         id="path6" />
    </g>
    <g
       id="shape1"
       transform="translate(29.05,8.5)">
      <path
         d="m 13.1,-5.95 v -0.6 l 0.05,-0.6 -9.1,-0.05 -2.2,0.05 -0.7,0.05 v 0.05 L 0.4,-7 v 0.05 H 0 -0.4 V -7 h -0.35 v -0.1 l -0.7,-0.05 -2.4,-0.05 h -0.2 l -9.1,0.05 0.05,0.6 v 0.7 H -0.75 13.1 v -0.1 m -28.3,-1.2 V -8.5 h 30.45 v 1.3 l -0.05,0.05 h -0.1 l 0.05,0.65 v 0.65 H 25 q 2.6,-0.05 3.2,0.65 l 0.65,0.85 0.2,1.6 -0.1,1.65 H 28.8 l -0.15,1.65 q 0.2,2.45 0,7.45 v 0.75 1.85 0.1 0.25 0.45 0.95 0.25 l -0.1,2.3 -0.2,2 0.1,0.1 0.2,0.65 -0.05,0.6 -0.4,0.35 -0.05,0.65 Q 27.9,20 26.85,20.1 l -0.6,0.1 q -1.6,0 -1.65,-1.3 h -8.3 q -0.05,1.05 -1.2,1.15 L -8.1,20 h -2.75 -0.3 -0.75 l -3.7,-0.3 q -1,-0.2 -1,-0.8 h -8 q -0.05,1.3 -1.65,1.3 l -0.6,-0.1 q -1.05,-0.1 -1.3,-0.85 l -0.05,-0.65 -0.4,-0.35 -0.05,-0.6 0.2,-0.65 0.1,-0.1 -0.15,-2 h -0.05 l -0.1,-2.3 V 12.35 11.4 10.95 10.85 10.7 10.6 8.75 8 q -0.2,-5 0,-7.45 L -28.8,-1.1 h -0.1 l -0.15,-1.65 q -0.05,-1.95 0.85,-2.45 0.6,-0.7 3.2,-0.65 h 9.85 V -6.5 l 0.05,-0.65 h -0.1 M 20.95,-0.9 V -1.1 H 20.8 L 20.3,-2.15 19.9,-2.7 19.35,-3.45 h -38.7 l -0.3,0.4 -0.25,0.35 -0.35,0.55 -0.5,1.05 h -0.2 l 0.05,0.6 0.05,0.6 q 0.2,0.7 1.15,1.2 h 0.05 0.85 l 2.95,-0.15 q 0.4,0 0.65,0.25 l 0.05,0.05 0.15,0.15 0.15,0.5 v 1.2 2.15 l 2.95,-0.1 H 11.9 12 l 2.85,0.1 V 3.05 2.1 l 0.1,-0.3 0.1,-0.2 0.15,-0.2 q 0.25,-0.25 0.65,-0.25 l 0.55,0.05 3.3,0.1 q 0.95,-0.5 1.15,-1.2 l 0.1,-1 m 5.25,5 -0.1,-5.2 H 26.05 L 26,-2.7 25.95,-3.4 25,-3.45 h -4.05 l 0.8,1.05 0.1,0.25 0.1,0.25 v 0.05 l 0.25,0.75 h 0.1 l 0.05,0.8 V 0.2 L 22,1.15 21.65,2.05 V 2.1 H 21.6 q -1.35,1.55 -4.75,1 V 4 13.6 l 0.1,0.95 v 0.35 l 0.1,1.6 h 9.5 L 26.4,14.9 V 14.55 L 26.3,12.8 V 12.35 11.4 10.95 10.7 10.6 8.75 8.05 L 26.2,4.1 M -17.05,3.15 q -1.5,0.2 -2.6,0 -1.3,-0.25 -2,-1.1 L -21.7,1.85 -21.9,1.4 -22.05,1 l -0.1,-0.3 -0.2,-0.5 0.05,-1.3 h 0.15 l 0.15,-0.65 0.05,-0.15 0.1,-0.2 0.05,-0.05 0.85,-1.3 H -25 l -0.4,0.05 h -0.55 v 0.15 L -26,-2.7 v 1.6 h -0.05 l -0.1,4.4 -0.15,4.75 v 0.7 1.85 0.1 0.15 0.1 0.45 0.95 0.45 1.75 l -0.05,0.35 h -0.05 l -0.15,1.6 h 9.5 l 0.1,-1.6 h 0.05 v -0.35 l 0.05,-0.95 V 3.1 l -0.2,0.05 M -3.3,3.3 q 0,-0.6 0.35,-0.7 l 1.5,-0.2 h 0.7 V 2.35 H 0 1.15 V 2.4 l 0.7,0.05 1.1,0.15 Q 3.3,2.7 3.3,3.25 V 3.3 L 1.85,3.85 1.15,4 v 0.15 l -1,0.15 H 0.1 -0.2 -0.25 L -0.75,4.2 V 4.1 L -1.15,4 -1.45,3.95 Q -3.3,3.5 -3.3,3.3 m -8.95,4.45 0.05,-0.2 -2.65,-0.15 v 0.35 0.5 l 0.05,1.4 h 2.65 l -0.1,-0.9 H -12.3 V 8.7 8.35 7.75 h 0.05 m 23.6,0.5 v -0.5 h 0.05 l 0.05,-0.2 h -22.9 l 0.05,0.2 h 0.05 v 0.35 0.55 0.1 h -0.05 v 0.9 H 11.4 V 8.75 H 11.35 V 8.65 8.25 M 14.8,12.5 V 11.7 H 14.5 L 13.3,11.55 12,11.65 H 11.9 L 10.85,11.6 v -0.05 h -21.7 v 0.05 l -1.05,0.05 -1.4,-0.1 -1.2,0.15 h -0.3 v 0.9 0.7 l 0.9,-0.1 1.9,0.05 0.1,-0.05 0.1,-0.05 0.4,0.25 q 0.35,0.2 0.35,0.55 V 14 14.1 L -9.9,14 h 0.7 0.4 14.6 q 3,-0.05 4.8,0.05 h 0.1 l 0.35,0.05 v -0.05 -0.1 q 0,-0.35 0.35,-0.55 l 0.4,-0.25 0.1,0.05 0.1,0.05 1.9,-0.05 0.9,0.1 v -0.8 m -27.3,2.25 h -0.05 l -2.25,-0.2 v 1.2 0.75 h 2.15 l 0.1,-1.6 h 0.05 V 14.75 M 11,16.5 v -0.95 -0.1 l -0.15,0.05 v 0.05 L 5.8,15.6 H -5.8 l -5.05,-0.05 V 15.5 L -11,15.45 v 0.1 0.95 h 22 m 1.25,-8.75 h 0.05 v 0.6 0.35 0.05 l -0.15,0.9 h 2.65 l 0.05,-2.25 -2.65,0.15 0.05,0.2 m 0.3,7.15 h 0.05 l 0.05,1.6 h 2.15 v -0.75 -1.2 l -2.25,0.2 H 12.5 l 0.05,0.15"
         fill="#6b6b6b"
         fill-rule="evenodd"
         stroke="none"
         id="path7" />
      <path
         d="M -0.75,-5.85 H -13.1 v -0.7 l -0.05,-0.6 9.1,-0.05 h 0.2 l 2.4,0.05 0.7,0.05 V -7 h 0.35 v 0.05 H 0 0.4 V -7 L 1.15,-7.05 V -7.1 l 0.7,-0.05 2.2,-0.05 9.1,0.05 -0.05,0.6 v 0.6 L 12.8,-5.9 H -0.75 v 0.05 m -20.15,5.35 -0.05,-0.6 h 0.2 l 0.5,-1.05 0.35,-0.55 0.25,-0.35 0.3,-0.4 h 38.7 l 0.55,0.75 0.4,0.55 0.5,1.05 h 0.15 v 0.2 H -13 l -6.65,0.25 -1.25,0.15 m 35.75,3.55 v 2.4 L 12,5.35 h -0.1 -23.8 l -2.95,0.1 V 3.3 h 0.15 11.4 q 0,0.2 1.85,0.65 l 0.3,0.05 0.4,0.1 v 0.1 l 0.5,0.1 h 0.05 0.3 0.05 l 1,-0.15 V 4 L 1.85,3.85 3.3,3.3 V 3.25 h 5 L 10.85,3.2 h 0.05 l 1,-0.05 H 12 l 2.85,-0.1 m 2,0.95 V 3.1 q 3.4,0.55 4.75,-1 h 0.05 V 2.05 L 22,1.15 22.35,0.2 V -0.3 L 22.3,-1.1 H 22.2 L 21.95,-1.85 V -1.9 l -0.1,-0.25 -0.1,-0.25 -0.8,-1.05 H 25 l 0.95,0.05 0.05,0.7 0.05,1.6 H 26.1 L 26.2,4.1 25.15,4.25 16.85,4 m -43,-0.7 0.1,-4.4 H -26 v -1.6 l 0.05,-0.55 V -3.4 h 0.55 l 0.4,-0.05 h 4.05 l -0.85,1.3 -0.05,0.05 -0.1,0.2 -0.05,0.15 -0.15,0.65 h -0.15 l -0.05,1.3 0.2,0.5 0.1,0.3 0.15,0.4 0.2,0.45 0.05,0.2 q 0.7,0.85 2,1.1 1.1,0.2 2.6,0 -0.15,0.25 -0.9,0.35 l -1.7,0.15 h -3 l -3.5,-0.35"
         fill="#8e8e8e"
         fill-rule="evenodd"
         stroke="none"
         id="path8" />
      <path
         d="m 20.95,-0.9 -0.1,1 Q 20.65,0.8 19.7,1.3 L 16.4,1.2 15.85,1.15 q -0.4,0 -0.65,0.25 l -0.15,0.2 -0.1,0.2 -0.1,0.3 V 3.05 L 12,3.15 h -0.1 l -1,0.05 H 10.85 L 8.3,3.25 h -5 Q 3.3,2.7 2.95,2.6 L 1.85,2.45 1.15,2.4 V 2.35 H 0 -0.75 V 2.4 h -0.7 l -1.5,0.2 Q -3.3,2.7 -3.3,3.3 h -11.4 -0.15 V 2.1 L -15,1.6 -15.15,1.45 -15.2,1.4 Q -15.45,1.15 -15.85,1.15 L -18.8,1.3 h -0.85 -0.05 q -0.95,-0.5 -1.15,-1.2 l -0.05,-0.6 1.25,-0.15 6.65,-0.25 h 33.95"
         fill="#aaaaaa"
         fill-rule="evenodd"
         stroke="none"
         id="path9" />
      <path
         d="m 13.1,-5.95 v 0.1 H -0.75 V -5.9 H 12.8 l 0.3,-0.05 M 26.2,4.1 26.3,8.05 v 0.7 1.85 0.1 0.25 0.45 0.95 0.45 l 0.1,1.75 v 0.35 l 0.15,1.6 h -9.5 l -0.1,-1.6 V 14.55 L 16.85,13.6 V 4 l 8.3,0.25 1.05,-0.15 m -52.35,-0.8 3.5,0.35 h 3 l 1.7,-0.15 q 0.75,-0.1 0.9,-0.35 l 0.2,-0.05 v 10.5 l -0.05,0.95 v 0.35 h -0.05 l -0.1,1.6 h -9.5 l 0.15,-1.6 h 0.05 l 0.05,-0.35 V 12.8 12.35 11.4 10.95 10.85 10.7 10.6 8.75 8.05 l 0.15,-4.75 m 13.9,4.45 h -0.05 v 0.6 0.35 0.05 h 0.05 l 0.1,0.9 h -2.65 l -0.05,-1.4 V 7.75 7.4 l 2.65,0.15 -0.05,0.2 m 23.6,0.5 v 0.4 0.1 h 0.05 v 0.9 h -22.8 v -0.9 h 0.05 V 8.65 8.1 7.75 h -0.05 l -0.05,-0.2 h 22.9 l -0.05,0.2 h -0.05 v 0.5 m -23.85,6.5 v 0.15 h -0.05 l -0.1,1.6 h -2.15 v -0.75 -1.2 l 2.25,0.2 h 0.05 M 11,16.5 h -22 v -0.95 -0.1 l 0.15,0.05 v 0.05 L -5.8,15.6 H 5.8 l 5.05,-0.05 V 15.5 L 11,15.45 v 0.1 0.95 M 12.25,7.75 12.2,7.55 14.85,7.4 14.8,9.65 H 12.15 L 12.3,8.75 V 8.7 8.35 7.75 h -0.05 m 0.3,7.15 -0.05,-0.15 h 0.05 l 2.25,-0.2 v 1.2 0.75 H 12.65 L 12.6,14.9 h -0.05"
         fill="#797979"
         fill-rule="evenodd"
         stroke="none"
         id="path10" />
      <path
         d="m -14.8,12.6 v -0.9 h 0.3 l 1.2,-0.15 1.4,0.1 1.05,-0.05 v -0.05 h 21.7 v 0.05 l 1.05,0.05 H 12 l 1.3,-0.1 1.2,0.15 h 0.3 v 0.8 L 14.75,12.45 12,12.5 h -0.1 -1.05 -1.4 l -21.35,0.05 -2.9,0.05"
         fill="#e2e2e2"
         fill-rule="evenodd"
         stroke="none"
         id="path11" />
      <path
         d="m 14.8,12.5 v 0.8 L 13.9,13.2 12,13.25 11.9,13.2 11.8,13.15 11.4,13.4 q -0.35,0.2 -0.35,0.55 v 0.1 H 10.7 10.6 Q 8.8,13.95 5.8,14 h -14.6 -0.4 -0.7 -1.15 v -0.05 q 0,-0.35 -0.35,-0.55 l -0.4,-0.25 -0.1,0.05 -0.1,0.05 -1.9,-0.05 -0.9,0.1 v -0.7 l 2.9,-0.05 21.35,-0.05 h 1.4 1.05 0.1 l 2.75,-0.05 0.05,0.05"
         fill="#999999"
         fill-rule="evenodd"
         stroke="none"
         id="path12" />
    </g>
  </defs>
</svg>
