<?xml version="1.0" encoding="UTF-8" standalone="no"?>
<svg
   ffdec:objectType="frame"
   height="28.727587"
   width="51.099998"
   version="1.1"
   id="svg7"
   sodipodi:docname="1.svg"
   xmlns:inkscape="http://www.inkscape.org/namespaces/inkscape"
   xmlns:sodipodi="http://sodipodi.sourceforge.net/DTD/sodipodi-0.dtd"
   xmlns:xlink="http://www.w3.org/1999/xlink"
   xmlns="http://www.w3.org/2000/svg"
   xmlns:svg="http://www.w3.org/2000/svg"
   xmlns:ffdec="https://www.free-decompiler.com/flash">
  <sodipodi:namedview
     id="namedview7"
     pagecolor="#ffffff"
     bordercolor="#000000"
     borderopacity="0.25"
     inkscape:showpageshadow="2"
     inkscape:pageopacity="0.0"
     inkscape:pagecheckerboard="0"
     inkscape:deskcolor="#d1d1d1"
     fit-margin-top="5"
     fit-margin-left="5"
     fit-margin-right="5"
     fit-margin-bottom="5" />
  <g
     transform="translate(25.55,14.327586)"
     id="g1">
    <use
       ffdec:characterId="1983"
       height="28.75"
       transform="translate(-25.55,-14.35)"
       width="51.099998"
       xlink:href="#shape0"
       id="use1" />
  </g>
  <defs
     id="defs7">
    <g
       id="shape0"
       transform="translate(25.55,14.35)">
      <path
         d="m 3.2,-14.2 11.4,-0.1 q 4.1,-0.2 5.85,1.05 l 1.8,2.15 1.65,0.1 q 0.5,-0.35 0.85,0.3 l 0.05,0.05 q 0.45,0.35 0.45,1.05 l -0.05,0.45 0.3,1.65 0.05,8.7 q 0,5.35 -0.3,7.05 -0.9,5.2 -4.2,5.05 v -0.15 h -0.2 q 0,1.25 -4.55,1.25 -0.9,0 -1.15,-0.75 l -0.05,-0.5 h -30.35 q -0.1,0.65 -0.65,0.9 l -1.75,0.25 q -3.1,0 -3.3,-1.15 h -1.25 q -2.3,-0.7 -3.05,-4.9 -0.3,-1.7 -0.3,-7.05 l 0.05,-8.7 0.3,-1.65 -0.05,-0.45 q 0,-0.7 0.45,-1.05 l 0.05,-0.05 q 0.35,-0.65 0.85,-0.3 l 1.65,-0.1 1.8,-2.15 q 1.75,-1.25 5.85,-1.05 l 17.4,0.1 h 0.3 0.1 m 16.2,4.2 v -0.05 Q 18,-12 14.6,-11.4 L 3.2,-11.45 H 2.8 2.65 L 1.55,-11.5 H 1.05 0.05 -1 -1.5 l -1,0.05 h -0.25 l -11.85,0.05 q -3.2,-0.55 -4.65,1.15 l -0.15,0.2 -0.4,0.5 H 19.8 L 19.4,-10 m -27.5,3.4 q 1.2,-0.9 3.35,-0.9 L 1,-7.4 2.85,-7.35 h 0.3 V -7.4 q 3.5,-0.45 5.15,0.95 l 0.9,1.1 Q 10,-3.75 10,1.7 L 9.9,2.95 Q 9.55,3.8 8.2,4.1 H -8.2 Q -9.55,3.8 -9.9,2.95 L -10,1.7 q 0,-5.45 0.8,-7.05 l 1.1,-1.25 m 19.65,0.15 0.1,-0.3 h 2.4 0.55 l 5.35,0.1 0.9,0.05 h 0.5 l 1.05,0.05 0.5,0.05 V -6.65 L 23,-8.05 21.55,-8 20.5,-8.7 20.45,-8.75 h -40.9 l -0.5,0.5 -0.6,0.25 -1.45,-0.05 0.05,0.5 0.05,0.7 v 0.35 l 2.95,-0.15 5.35,-0.1 h 0.25 2.7 l 0.05,0.1 0.1,0.35 -0.05,0.8 v 5.1 4.35 l 0.05,0.45 -2.1,1.65 -2.8,0.7 q -1.75,0.4 -1.8,1.4 V 9.5 l -0.3,0.65 h -2.2 -0.3 l 4.15,0.45 h 33.7 L 21,10.15 H 20.7 18.5 L 18.2,9.5 V 8.15 q -0.05,-1 -1.8,-1.4 L 13.6,6.05 11.5,4.4 11.55,3.95 V -0.4 -5.5 l -0.05,-0.8 0.05,-0.15 m -9,1.05 -7.3,0.1 h -0.4 v -0.1 q -2.35,0.45 -2.55,1.1 -0.4,1 -0.4,3.4 0,2.3 0.4,3 H 7.7 q 0.4,-0.7 0.4,-3 0,-2.4 -0.4,-3.4 -0.2,-0.6 -2.05,-1 H 5.6 5.4 5.2 L 3.15,-5.4 h -0.6 m 1.6,1.6 -0.8,0.9 -0.9,0.85 -1.15,0.9 -0.15,0.75 q -0.4,0.8 -1.6,0.8 -0.95,0 -1.25,-0.5 L -1.75,-0.5 -1.8,-0.6 q 0,-1.2 1.3,-1.6 L -0.25,-2.3 0.5,-2.35 0.75,-2.3 0.9,-2.4 1.45,-2.9 q 1.35,-1 2.4,-1.15 l 0.3,0.25 m 14.6,1.7 -4,-0.25 Q 14,-2.5 14,-3 q 0,-0.85 4.85,-0.95 h 0.2 l 2.2,0.05 h 0.2 0.15 l 1.3,0.15 v -1.6 L 21.75,-5.2 21.3,-5.15 19.95,-5.1 19.1,-5.05 13.15,-5 12.7,0.95 q 0,1.25 0.4,1.8 0.95,1.1 4.35,1.9 l 1.3,0.45 q 1,0.5 1.25,1.35 0.2,0.75 0.05,2.1 L 21.2,8.5 h 0.15 L 22.65,8.55 22.9,7.6 V 7.5 L 21.7,7.6 H 21.55 L 21.2,7.45 20.9,7.2 20.4,6.6 21.2,6.25 21.75,6.05 22.9,5.85 V 5 L 22,5.05 H 21.75 21.2 l -1.55,-0.1 q -0.4,-0.1 -0.4,-0.65 0,-0.85 1.95,-0.8 h 0.35 0.15 l 1.2,0.2 V 2.65 l -1.2,0.1 H 21.35 21.2 18.75 l -3.7,-0.2 Q 14.7,2.4 14.75,1.9 14.8,1.4 15.2,1.25 l 3.55,-0.2 h 0.9 1.55 0.5 l 1.2,0.1 v -0.9 h -1.2 -2.95 -2.1 L 14.9,0 14.25,-0.55 q 0.85,-1.05 2.4,-0.85 h 2.1 2.95 1.2 v -0.7 h -1.2 -0.6 -2.35 m -8.5,10.65 q 0,-2 2.2,-2.15 2.2,-0.15 2.2,1.85 L 14.3,9.3 q -0.65,0.85 -2.15,0.85 -0.85,0 -1.4,-0.55 -0.5,-0.5 -0.5,-1.05 m 5.2,-0.1 0.1,-0.75 Q 15.95,7.05 17.4,7.35 L 17.5,8.3 17.3,9.05 Q 17,9.6 16.4,9.6 15.75,9.6 15.55,9.05 l -0.1,-0.6 M 16.4,8.8 Q 16.8,8.6 16.8,8.1 V 8 H 16 L 15.95,8.6 16.4,8.8 M 7.85,6 q 0,-1.1 1.2,-1.1 1.2,0 1.2,1.1 L 10.1,6.6 Q 9.8,7.15 9.1,7.15 8.1,7.15 7.85,6 M 5.7,5.35 5.75,5.95 5.5,6.3 4.55,6.4 4.35,6.6 Q 4.1,6.6 3.9,6.4 H 3.65 L 2.35,6.3 Q 2.1,6.2 2.1,5.85 L 1.9,6.3 0.8,6.4 H 0.6 L 0.2,6.6 0.05,6.4 -0.75,6.3 -0.95,5.95 -0.9,5.35 1.6,5.15 2.1,5.8 2.7,5.15 l 3,0.2 m 3.6,3.1 q 0,0.5 -0.5,0.75 L 3.75,9.5 h -7.5 L -8.8,9.2 q -0.5,-0.25 -0.5,-0.75 0,-0.5 0.5,-0.75 l 5.05,-0.35 h 7.5 L 8.8,7.7 Q 9.3,7.95 9.3,8.45 M -20.75,-5.1 -21.5,-5.15 -22.8,-5.3 -22.9,-5.35 v 0.25 1.35 l 0.4,-0.05 1.3,-0.1 h 0.05 l 2.1,-0.05 0.95,0.05 h 0.25 q 3.85,0.15 3.85,0.9 0,0.5 -0.75,0.65 l -2.95,0.2 -3.15,0.05 h -0.5 -1.55 v 0.7 h 1.6 3.6 1.05 q 1.55,-0.2 2.4,0.85 L -14.9,0 -16.65,0.25 h -1.15 -3.35 -1.75 v 0.9 l 1.85,-0.1 h 0.45 0.95 1.75 l 2.7,0.2 q 0.4,0.15 0.45,0.65 0.05,0.5 -0.3,0.65 l -3,0.2 h -2.5 -0.4 -0.4 L -22.9,2.65 V 3.7 l 1.35,-0.2 h 0.6 l 0.4,0.05 q 1.3,0.05 1.3,0.75 0,0.55 -0.4,0.65 l -0.95,0.1 H -20.95 -22 L -22.9,5 v 0.85 q 0.85,0 2,0.55 l 0.25,0.1 h 0.05 l 0.2,0.1 -0.2,0.3 -0.2,0.2 -0.1,0.1 -0.65,0.4 h -0.25 l -1.1,-0.1 v 0.1 l 0.25,0.95 1.15,-0.05 0.8,0.05 h 0.25 0.4 Q -20.2,7.2 -20,6.45 l 0.1,-0.2 q 0.4,-0.95 1.85,-1.4 l 0.6,-0.2 q 3.4,-0.8 4.35,-1.9 0.4,-0.55 0.4,-1.8 l -0.4,-5.35 -0.05,-0.6 -5.1,-0.05 -1.7,-0.05 h -0.8 M -1.5,5.8 q 0,0.4 -0.25,0.5 l -1.3,0.1 H -3.3 Q -3.5,6.6 -3.75,6.6 L -3.95,6.4 -4.9,6.3 -5.15,5.95 l 0.05,-0.6 3,-0.2 0.6,0.65 M -7.85,6 q -0.25,1.15 -1.25,1.15 -0.7,0 -1,-0.55 L -10.25,6 q 0,-1.1 1.2,-1.1 1.2,0 1.2,1.1 m -8.15,2.45 0.1,0.35 -0.05,0.25 -0.45,0.3 -0.55,-0.55 0.3,-0.4 0.65,0.05 m 5.25,1.15 q -0.55,0.55 -1.4,0.55 -1.5,0 -2.15,-0.85 l -0.35,-1.05 q 0,-2 2.2,-1.85 2.2,0.15 2.2,2.15 0,0.55 -0.5,1.05"
         fill="#6b6b6b"
         fill-rule="evenodd"
         stroke="none"
         id="path1" />
      <path
         d="m 2.55,-5.4 h 0.6 l 2.05,0.1 h 0.2 0.2 0.05 q 1.85,0.4 2.05,1 0.4,1 0.4,3.4 0,2.3 -0.4,3 H -7.7 q -0.4,-0.7 -0.4,-3 0,-2.4 0.4,-3.4 0.2,-0.65 2.55,-1.1 v 0.1 h 0.4 l 7.3,-0.1 m 3.55,4.95 q 0,-2.35 -0.45,-3.05 -1.2,-1.75 -5.5,-1 -4.95,-1.1 -6.45,1.45 -0.5,0.9 -0.5,3.2 0,0.8 0.4,0.95 l 7.95,0.65 q 2.5,0 3.7,-0.85 Q 6.1,0.3 6.1,-0.45 m 15.2,-4.7 0.45,-0.05 -0.05,0.2 -0.2,0.75 -0.2,-0.9 m -42.45,1.15 -0.35,-1.15 0.75,0.05 -0.4,1.1 m -1.65,-1.3 -0.1,0.2 v -0.25 l 0.1,0.05 m 2.2,13.3 0.15,0.55 H -20.7 L -20.6,8"
         fill="#b1b1b1"
         fill-rule="evenodd"
         stroke="none"
         id="path2" />
      <path
         d="M 4.15,-3.8 3.85,-4.05 Q 2.8,-3.9 1.45,-2.9 L 0.9,-2.4 0.75,-2.3 0.5,-2.35 -0.25,-2.3 -0.5,-2.2 q -1.3,0.4 -1.3,1.6 l 0.05,0.1 0.05,0.4 q 0.3,0.5 1.25,0.5 1.2,0 1.6,-0.8 l 0.15,-0.75 1.15,-0.9 0.9,-0.85 0.8,-0.9 M 6.1,-0.45 Q 6.1,0.3 5.25,0.9 4.05,1.75 1.55,1.75 L -6.4,1.1 q -0.4,-0.15 -0.4,-0.95 0,-2.3 0.5,-3.2 1.5,-2.55 6.45,-1.45 4.3,-0.75 5.5,1 0.45,0.7 0.45,3.05"
         fill="#9c9c9c"
         fill-rule="evenodd"
         stroke="none"
         id="path3" />
      <path
         d="M 18.85,-3.95 Q 14,-3.85 14,-3 q 0,0.5 0.75,0.65 l 4,0.25 v 0.7 h -2.1 q -1.55,-0.2 -2.4,0.85 L 14.9,0 16.65,0.25 h 2.1 v 0.8 L 15.2,1.25 Q 14.8,1.4 14.75,1.9 14.7,2.4 15.05,2.55 l 3.7,0.2 V 5.1 L 17.45,4.65 Q 14.05,3.85 13.1,2.75 12.7,2.2 12.7,0.95 L 13.15,-5 19.1,-5.05 V -5 l -0.25,1.05 m 2.85,1.85 h 1.2 v 0.7 h -1.2 v -0.7 m 0,2.35 h 1.2 v 0.9 l -1.2,-0.1 v -0.8 m 0,2.5 1.2,-0.1 V 3.7 L 21.7,3.5 V 2.75 m 0.05,2.3 H 22 L 22.9,5 v 0.85 l -1.15,0.2 V 5.4 5.05 M 21.7,7.6 22.9,7.5 V 7.6 L 22.65,8.55 21.35,8.5 21.7,7.6 m 0.05,-12.8 1.15,-0.15 v 1.6 L 21.6,-3.9 21.5,-4.25 21.7,-5 21.75,-5.2 m -43.25,0.05 0.35,1.15 -0.05,0.1 -1.3,0.1 -0.4,0.05 V -5.1 l 0.1,-0.2 1.3,0.15 m 0.2,3.75 h -1.6 v -0.7 h 1.55 l 0.05,0.7 m 3.6,-0.75 2.95,-0.2 Q -14,-2.5 -14,-3 q 0,-0.75 -3.85,-0.9 v -0.05 l -0.4,-1.1 5.1,0.05 0.05,0.6 0.4,5.35 q 0,1.25 -0.4,1.8 -0.95,1.1 -4.35,1.9 l -0.6,0.2 v -2.1 l 3,-0.2 Q -14.7,2.4 -14.75,1.9 -14.8,1.4 -15.2,1.25 l -2.7,-0.2 0.1,-0.8 h 1.15 L -14.9,0 l 0.65,-0.55 q -0.85,-1.05 -2.4,-0.85 h -1.05 v -0.65 -0.1 m -3.35,3.2 -1.85,0.1 v -0.9 h 1.75 l 0.1,0.8 m 0.1,4 V 5.7 l 0.05,0.7 q -1.15,-0.55 -2,-0.55 V 5 l 0.9,0.05 h 1.05 M -20.8,7.1 -20.6,8 -20.7,8.55 -21.5,8.5 -22.65,8.55 -22.9,7.6 V 7.5 l 1.1,0.1 h 0.25 l 0.65,-0.4 0.1,-0.1 M -20.95,2.75 V 3.5 h -0.6 L -22.9,3.7 V 2.65 l 1.55,0.1 h 0.4"
         fill="#bdbdbd"
         fill-rule="evenodd"
         stroke="none"
         id="path4" />
      <path
         d="m 18.75,-2.1 h 2.35 0.6 v 0.7 h -2.95 v -0.7 m 0,2.35 h 2.95 v 0.8 h -0.5 -1.55 -0.9 v -0.8 m 0,2.5 h 2.45 0.15 0.35 V 3.5 H 21.55 21.2 q -1.95,-0.05 -1.95,0.8 0,0.55 0.4,0.65 l 1.55,0.1 h 0.55 V 5.4 6.05 l -0.55,0.2 -0.8,0.35 0.5,0.6 0.3,0.25 0.35,0.15 H 21.7 L 21.35,8.5 H 21.2 L 20.05,8.55 Q 20.2,7.2 20,6.45 19.75,5.6 18.75,5.1 V 2.75 m 0.35,-7.8 0.85,-0.05 1.35,-0.05 0.2,0.9 0.1,0.35 h -0.15 -0.2 l -2.2,-0.05 h -0.2 L 19.1,-5 v -0.05 m -40.25,1.05 0.4,-1.1 h 0.8 l 1.7,0.05 0.4,1.1 v 0.05 h -0.25 l -0.95,-0.05 -2.1,0.05 h -0.05 l 0.05,-0.1 m -0.15,2.6 -0.05,-0.7 h 0.5 l 3.15,-0.05 v 0.1 0.65 h -3.6 m 3.5,1.65 -0.1,0.8 h -1.75 -0.95 -0.45 l -0.1,-0.8 h 3.35 m -0.25,2.5 v 2.1 q -1.45,0.45 -1.85,1.4 l -0.1,0.2 q -0.2,0.75 -0.05,2.1 h -0.4 L -20.6,8 l -0.2,-0.9 0.2,-0.2 0.2,-0.3 -0.2,-0.1 h -0.05 L -20.9,6.4 -20.95,5.7 V 5.05 h 0.35 l 0.95,-0.1 q 0.4,-0.1 0.4,-0.65 0,-0.7 -1.3,-0.75 L -20.95,3.5 V 2.75 h 0.4 2.5"
         fill="#ffffff"
         fill-rule="evenodd"
         stroke="none"
         id="path5" />
      <path
         d="m -19.25,-10.25 0.85,0.15 35.15,0.3 2.65,-0.2 0.4,0.45 h -39.6 l 0.4,-0.5 0.15,-0.2 M -8.1,-6.6 -9.2,-5.35 Q -10,-3.75 -10,1.7 l 0.1,1.25 Q -9.55,3.8 -8.2,4.1 H 8.2 Q 9.55,3.8 9.9,2.95 L 10,1.7 q 0,-5.45 -0.8,-7.05 l -0.9,-1.1 h 3.25 l -0.05,0.15 0.05,0.8 v 5.1 4.35 l -0.05,0.45 2.1,1.65 2.8,0.7 q 1.75,0.4 1.8,1.4 V 9.5 l 0.3,0.65 h 2.2 0.3 l -4.15,0.45 h -33.7 L -21,10.15 h 0.3 2.2 L -18.2,9.5 V 8.15 q 0.05,-1 1.8,-1.4 l 2.8,-0.7 2.1,-1.65 -0.05,-0.45 V -0.4 -5.5 l 0.05,-0.8 -0.1,-0.35 3.5,0.05 M 10.25,8.55 q 0,0.55 0.5,1.05 0.55,0.55 1.4,0.55 1.5,0 2.15,-0.85 l 0.35,-1.05 q 0,-2 -2.2,-1.85 -2.2,0.15 -2.2,2.15 M 16.4,8.8 15.95,8.6 16,8 h 0.8 v 0.1 q 0,0.5 -0.4,0.7 m -0.95,-0.35 0.1,0.6 q 0.2,0.55 0.85,0.55 0.6,0 0.9,-0.55 L 17.5,8.3 17.4,7.35 Q 15.95,7.05 15.55,7.7 l -0.1,0.75 M 5.7,5.35 2.7,5.15 2.1,5.8 1.6,5.15 -0.9,5.35 -0.95,5.95 -0.75,6.3 0.05,6.4 0.2,6.6 0.6,6.4 H 0.8 L 1.9,6.3 2.1,5.85 q 0,0.35 0.25,0.45 l 1.3,0.1 H 3.9 Q 4.1,6.6 4.35,6.6 L 4.55,6.4 5.5,6.3 5.75,5.95 5.7,5.35 M 7.85,6 q 0.25,1.15 1.25,1.15 0.7,0 1,-0.55 L 10.25,6 q 0,-1.1 -1.2,-1.1 -1.2,0 -1.2,1.1 M 9.3,8.45 Q 9.3,7.95 8.8,7.7 L 3.75,7.35 h -7.5 L -8.8,7.7 q -0.5,0.25 -0.5,0.75 0,0.5 0.5,0.75 l 5.05,0.3 h 7.5 L 8.8,9.2 Q 9.3,8.95 9.3,8.45 M -7.85,6 q 0,-1.1 -1.2,-1.1 -1.2,0 -1.2,1.1 l 0.15,0.6 q 0.3,0.55 1,0.55 1,0 1.25,-1.15 m 6.35,-0.2 -0.6,-0.65 -3,0.2 -0.05,0.6 0.25,0.35 0.95,0.1 0.2,0.2 q 0.25,0 0.45,-0.2 h 0.25 l 1.3,-0.1 Q -1.5,6.2 -1.5,5.8 m -9.25,3.8 q 0.5,-0.5 0.5,-1.05 0,-2 -2.2,-2.15 -2.2,-0.15 -2.2,1.85 l 0.35,1.05 q 0.65,0.85 2.15,0.85 0.85,0 1.4,-0.55 M -16,8.45 -16.65,8.4 l -0.3,0.4 0.55,0.55 0.45,-0.3 L -15.9,8.8 -16,8.45"
         fill="#9a8383"
         fill-rule="evenodd"
         stroke="none"
         id="path6" />
      <path
         d="m -19.25,-10.25 q 1.45,-1.7 4.65,-1.15 l 11.85,-0.05 h 0.25 l 1,-0.05 h 0.5 1.05 1 0.5 l 1.1,0.05 H 2.8 3.2 l 11.4,0.05 q 3.4,-0.6 4.8,1.35 V -10 l -2.65,0.2 -35.15,-0.3 -0.85,-0.15 M 8.3,-6.45 Q 6.65,-7.85 3.15,-7.4 v 0.05 H 2.85 L 1,-7.4 -4.75,-7.5 q -2.15,0 -3.35,0.9 l -3.5,-0.05 -0.05,-0.1 h -2.7 -0.25 l -5.35,0.1 -2.95,0.15 v -0.35 l -0.05,-0.7 -0.05,-0.5 1.45,0.05 0.6,-0.25 0.5,-0.5 h 40.9 L 20.5,-8.7 21.55,-8 23,-8.05 22.9,-6.65 V -6.5 L 22.4,-6.55 21.35,-6.6 h -0.5 l -0.9,-0.05 -5.35,-0.1 h -0.55 -2.4 l -0.1,0.3 H 8.3"
         fill="#af9595"
         fill-rule="evenodd"
         stroke="none"
         id="path7" />
    </g>
  </defs>
</svg>
