<?xml version="1.0" encoding="UTF-8" standalone="no"?>
<svg
   ffdec:objectType="frame"
   height="39.007446"
   width="24"
   version="1.1"
   id="svg5"
   sodipodi:docname="1.svg"
   xmlns:inkscape="http://www.inkscape.org/namespaces/inkscape"
   xmlns:sodipodi="http://sodipodi.sourceforge.net/DTD/sodipodi-0.dtd"
   xmlns:xlink="http://www.w3.org/1999/xlink"
   xmlns="http://www.w3.org/2000/svg"
   xmlns:svg="http://www.w3.org/2000/svg"
   xmlns:ffdec="https://www.free-decompiler.com/flash">
  <sodipodi:namedview
     id="namedview5"
     pagecolor="#ffffff"
     bordercolor="#000000"
     borderopacity="0.25"
     inkscape:showpageshadow="2"
     inkscape:pageopacity="0.0"
     inkscape:pagecheckerboard="0"
     inkscape:deskcolor="#d1d1d1"
     fit-margin-top="5"
     fit-margin-left="5"
     fit-margin-right="5"
     fit-margin-bottom="5" />
  <g
     transform="translate(12,19.557447)"
     id="g1">
    <use
       ffdec:characterId="2052"
       height="39"
       transform="translate(-12,-19.55)"
       width="24"
       xlink:href="#shape0"
       id="use1" />
  </g>
  <defs
     id="defs5">
    <g
       id="shape0"
       transform="translate(12,19.55)">
      <path
         d="m 0.55,-17.25 q 1.65,1.65 1.65,3.15 0,1 -0.75,1.15 l -0.55,1.05 1.65,0.6 0.5,-0.6 q 0.2,-0.8 1.65,-0.55 1.7,0.35 1.7,1.6 0,0.5 -0.4,1.15 l -0.45,0.55 0.3,0.3 q 3,3.2 3,7.55 v 0.25 L 9.3,-0.8 Q 11,0.3 11,1.65 11,2.7 10.25,2.7 l -1.2,-0.05 0.3,2 q -0.5,4.05 -1.3,5.6 h 0.3 l 1.65,0.2 q 0.4,-0.5 1.2,0.2 0.5,0.25 0.7,2.45 H 12 v 1.6 2.15 l -0.15,0.95 v 0.1 q 0,0.85 -1.85,1.2 l -5.8,0.3 v 0.05 H 2.25 0 -8.15 L -9.45,18.7 -9.6,18.25 -9.9,16.75 V 14.4 l 0.05,-1.3 h 0.05 l 0.1,-0.75 -0.1,-0.6 0.2,-0.7 q 0.2,-0.3 0.75,-0.5 l 0.25,-0.1 0.2,-0.15 h 0.5 l -1.25,-3.5 -0.6,-2.4 -1,0.35 q -0.9,0 -1.15,-0.5 L -12,3.7 q 0,-1.4 1.45,-2.75 L -10.5,0.9 q 0.05,-4.7 1.45,-7.85 -0.9,-0.05 -1.15,-0.5 l -0.1,-0.5 q 0,-2 1.6,-2.35 1.25,-0.3 1.5,0.5 2.45,-2.65 6.1,-2.45 0.1,-1.2 1.05,-2 l -0.3,-0.6 -0.65,-1.7 q -1.05,0.35 -1.5,0.35 -0.8,0 -1,-0.4 l -0.05,-0.45 q 0,-1.4 3.05,-2.2 3.05,-0.85 3.05,0.65 0,0.35 -2,1.35 M 4.4,-6.7 4.5,-6.1 4.05,-5.3 4.8,-3.65 Q 4.85,-3.4 4.35,-3.4 H 4.3 L 3.7,-3.55 3.15,-4.05 2.75,-3.6 3.55,-1.75 3.6,-1.6 Q 4.2,0.55 4.2,3.6 4.2,4.65 -4.9,5 -5.45,5 -5.65,4.5 L -5.75,4 q 0,-4.1 1.3,-6.8 l 0.25,-0.5 -0.3,0.15 -0.3,0.05 -1.05,-0.35 q -0.7,1.3 -0.95,1.3 L -7.3,-2.5 -7.45,-2.95 -7,-4.1 l -0.25,-0.3 0.6,-0.35 0.5,-0.8 q 1.3,-2 1.3,-0.2 l -0.6,1.4 1,0.55 0.4,0.25 0.75,-1 q 1.1,-1.3 2.55,-1.4 1.65,-0.15 2.9,1.45 L 2.6,-5.2 2.4,-6 2.35,-6.1 2.25,-6.45 q 0,-0.35 0.3,-0.65 l 0.9,0.9 Q 3.95,-6.65 4.4,-6.7 M 1.35,-2.4 0.4,-4.1 0.45,-3.05 q 0.1,0.75 0.9,0.65 M 0.25,9.25 -0.1,9.2 l -1.4,0.15 0.7,0.5 1,-0.6 H 0.25 M 4.4,6.8 3.15,7.65 3,7.7 q 1.4,0.75 2.65,2.55 H 6 Q 6,9.8 6.75,7.85 L 7.05,7.1 V 7 q 0.4,-4.8 -0.5,-8.8 -1.75,-7.85 -8.3,-7.85 -3.85,0 -5.5,4.3 -0.95,2.45 -0.95,4.9 0,1.75 2.6,9.75 0.55,-0.5 1.55,-1 l 1,-0.4 -0.4,-0.15 q 0.8,-0.9 4.05,-1.2 L 4.2,6.45 4.3,6.5 4.4,6.8 m 4.75,7.45 V 13.3 13.1 H -7 v 0.05 1.3 0.25 l 0.05,1.8 H 4.2 v 0.05 l 5.05,0.25 -0.1,-0.3 v -1.8 -0.45 m -12.4,-21.3 q 0,-0.65 1.3,-0.75 1.4,-0.15 2.35,0.65 l -0.65,0.6 -0.9,0.15 H -2.6 l -0.65,-0.65 m 1.6,2.7 -1.15,1.65 0.1,0.45 h 1.15 L -1.6,-2.45 V -3.1 -3.25 l -0.05,-0.9 v -0.2"
         fill="#6b6b6b"
         fill-rule="evenodd"
         stroke="none"
         id="path1" />
      <path
         d="M 0.25,9.25 H 0.2 l -1,0.6 -0.7,-0.5 1.4,-0.15 0.35,0.05"
         fill="#999999"
         fill-rule="evenodd"
         stroke="none"
         id="path2" />
      <path
         d="m 1.35,-2.4 q -0.8,0.1 -0.9,-0.65 L 0.4,-4.1 1.35,-2.4 m -3,-1.95 v 0.2 l 0.05,0.9 v 0.15 0.65 l 0.05,0.2 H -2.7 l -0.1,-0.45 1.15,-1.65"
         fill="#eeeeee"
         fill-rule="evenodd"
         stroke="none"
         id="path3" />
      <path
         d="m 9.15,14.25 v 0.45 1.8 L 9.25,16.8 4.2,16.55 V 16.5 H -6.95 L -7,14.7 V 14.45 13.15 13.1 H 9.15 v 0.2 0.95"
         fill="#a89b8b"
         fill-rule="evenodd"
         stroke="none"
         id="path4" />
      <path
         d="m 4.4,-6.7 q -0.45,0.05 -0.95,0.5 l -0.9,-0.9 q -0.3,0.3 -0.3,0.65 l 0.1,0.35 0.05,0.1 0.2,0.8 -0.45,0.7 q -1.25,-1.6 -2.9,-1.45 -1.45,0.1 -2.55,1.4 l -0.75,1 -0.4,-0.25 -1,-0.55 0.6,-1.4 q 0,-1.8 -1.3,0.2 l -0.5,0.8 -0.6,0.35 0.25,0.3 -0.45,1.15 0.15,0.45 0.5,0.35 q 0.25,0 0.95,-1.3 l 1.05,0.35 0.3,-0.05 0.3,-0.15 -0.25,0.5 q -1.3,2.7 -1.3,6.8 l 0.1,0.5 Q -5.45,5 -4.9,5 4.2,4.65 4.2,3.6 4.2,0.55 3.6,-1.6 l -0.05,-0.15 -0.8,-1.85 0.4,-0.45 0.55,0.5 0.6,0.15 h 0.05 q 0.5,0 0.45,-0.25 L 4.05,-5.3 4.5,-6.1 4.4,-6.7 M 4.4,6.8 4.3,6.5 4.2,6.45 0.6,6.55 q -3.25,0.3 -4.05,1.2 l 0.4,0.15 -1,0.4 q -1,0.5 -1.55,1 -2.6,-8 -2.6,-9.75 0,-2.45 0.95,-4.9 1.65,-4.3 5.5,-4.3 6.55,0 8.3,7.85 0.9,4 0.5,8.8 V 7.1 L 6.75,7.85 Q 6,9.8 6,10.25 H 5.65 Q 4.4,8.45 3,7.7 L 3.15,7.65 4.4,6.8 M -3.25,-7.05 -2.6,-6.4 h 1.45 l 0.9,-0.15 0.65,-0.6 q -0.95,-0.8 -2.35,-0.65 -1.3,0.1 -1.3,0.75"
         fill="#a89292"
         fill-rule="evenodd"
         stroke="none"
         id="path5" />
    </g>
  </defs>
</svg>
