<?xml version="1.0" encoding="UTF-8" standalone="no"?>
<svg
   ffdec:objectType="frame"
   height="33"
   width="25.700001"
   version="1.1"
   id="svg5"
   sodipodi:docname="2.svg"
   xmlns:inkscape="http://www.inkscape.org/namespaces/inkscape"
   xmlns:sodipodi="http://sodipodi.sourceforge.net/DTD/sodipodi-0.dtd"
   xmlns:xlink="http://www.w3.org/1999/xlink"
   xmlns="http://www.w3.org/2000/svg"
   xmlns:svg="http://www.w3.org/2000/svg"
   xmlns:ffdec="https://www.free-decompiler.com/flash">
  <sodipodi:namedview
     id="namedview5"
     pagecolor="#ffffff"
     bordercolor="#000000"
     borderopacity="0.25"
     inkscape:showpageshadow="2"
     inkscape:pageopacity="0.0"
     inkscape:pagecheckerboard="0"
     inkscape:deskcolor="#d1d1d1"
     fit-margin-top="5"
     fit-margin-left="5"
     fit-margin-right="5"
     fit-margin-bottom="5" />
  <g
     transform="translate(12.8,19.45)"
     id="g2">
    <use
       ffdec:characterId="3874"
       height="33"
       transform="translate(-12.8,-19.45)"
       width="25.700001"
       xlink:href="#shape0"
       id="use1" />
    <use
       ffdec:characterId="3500"
       height="8"
       transform="matrix(-0.6945,0.0476,0.0476,0.6945,4.7097,2.6652)"
       width="10.8"
       xlink:href="#sprite0"
       id="use2" />
  </g>
  <defs
     id="defs5">
    <g
       id="shape0"
       transform="translate(12.8,19.45)">
      <path
         d="M 4.25,-9.4 Q 3.45,-9.7 3,-10.45 l -0.4,-1.2 q 0,-2.25 2.55,-2.45 H 5.5 q -2.65,-1.9 -6.25,-2.35 -3.85,-0.45 -6.4,1.2 -2.9,1.85 -2.9,5.95 0,2.95 1,4.95 0.95,1.95 2.7,2.95 1.45,0.8 3.4,1 l 1.3,0.05 q 4,0 6.5,-1.45 1.5,-0.95 2.45,-2.4 l 0.1,-0.2 q 1.15,-1.9 1.15,-4.65 0,-1.5 -0.85,-2.8 -0.05,1.55 -0.85,2.2 -0.6,0.4 -1.55,0.4 L 4.25,-9.4 m -11.3,0.5 q -1.15,-0.45 -1.5,-1.8 0,-2.95 2.85,-3.35 2.85,-0.4 2.85,2.85 0,0.65 -0.5,1.4 -0.45,0.7 -1.15,0.95 l -1.15,0.2 -1.4,-0.25 m 10.55,2 q 0,2 -4.25,2 -1.5,0 -1.95,-0.65 l -0.15,-0.8 q 0,-3.35 3.2,-3.3 3.15,0 3.15,2.75 m 6.15,5.95 q 3.25,0.8 3.25,3.5 0,1.3 -0.45,1.8 -0.85,1 -3.55,1 H 8.4 V 5.9 L 8.2,9.5 q -0.65,3.35 -2.9,3.35 -2.65,0 -3.25,-1.55 L 1.9,9.4 Q 1.75,9.25 1.55,9.25 1.2,9.25 0.5,9.95 v 0.65 q 0,2.95 -2.9,2.95 -2.75,0 -3.65,-3.95 L -6.35,6.2 -9.2,6.7 q -1.4,0 -2.1,-1.2 l -0.45,-1.25 q 0,-2.55 3.2,-3.6 l 0.2,-0.05 q -1.55,-1.1 -2.6,-2.65 -1.85,-2.7 -1.85,-5.55 0,-4.95 2.75,-8.4 2.75,-3.45 6.8,-3.45 8,0 11.85,4.2 2.65,2.85 2.65,6.25 0,3.75 -1.75,6.45 l -1.05,1.35 1.2,0.25 m 0.85,3.4 Q 10.5,2.1 8.45,1.35 L 7.4,0.9 7.85,1.7 8.15,2.85 10.4,2.6 10.5,2.45 M 4.35,1.5 Q 2.55,2.15 0.3,2.5 H -3.35 L -4,5.15 -3.7,8.1 q 0.5,2.5 1.5,2.65 0.1,-1.65 0.5,-2.5 0.7,-1.6 4.1,-1.6 1.8,0 2.25,1.5 0.25,0.8 0.15,1.95 l 0.3,0.05 q 0.75,-1.2 0.75,-3.3 0,-1.9 -0.9,-3.95 L 4.35,1.5 M -5.6,2 H -5.7 L -6.95,2.55 Q -8.7,3.05 -9,3.95 l 1.05,0.15 2,-0.95 L -5.85,2.7 -5.6,2"
         fill="#6b6b6b"
         fill-rule="evenodd"
         stroke="none"
         id="path2" />
      <path
         d="m -6.35,-1.4 q -1.75,-1 -2.7,-2.95 -1,-2 -1,-4.95 0,-4.1 2.9,-5.95 2.55,-1.65 6.4,-1.2 3.6,0.45 6.25,2.35 H 5.15 q -2.55,0.2 -2.55,2.45 l 0.4,1.2 q 0.45,0.75 1.25,1.05 l -0.15,3 0.3,3 0.45,1.6 q -2.5,1.45 -6.5,1.45 l -1.3,-0.05 -1.35,-7 -0.2,-1.45 q 0.7,-0.25 1.15,-0.95 0.5,-0.75 0.5,-1.4 0,-3.25 -2.85,-2.85 -2.85,0.4 -2.85,3.35 0.35,1.35 1.5,1.8 l -0.15,1.35 0.6,4.85 0.25,1.3 m 13.2,-8.25 q 0.8,-0.65 0.85,-2.2 0.85,1.3 0.85,2.8 0,2.75 -1.15,4.65 L 7.3,-4.2 6.95,-9.1 6.85,-9.65 M 3.5,-6.9 q 0,-2.75 -3.15,-2.75 -3.2,-0.05 -3.2,3.3 l 0.15,0.8 q 0.45,0.65 1.95,0.65 4.25,0 4.25,-2 m 0.85,8.4 0.6,1.4 q 0.9,2.05 0.9,3.95 0,2.1 -0.75,3.3 L 4.8,10.1 Q 4.9,8.95 4.65,8.15 4.2,6.65 2.4,6.65 -1,6.65 -1.7,8.25 -2.1,9.1 -2.2,10.75 -3.2,10.6 -3.7,8.1 L -4,5.15 -3.35,2.5 H 0.3 Q 2.55,2.15 4.35,1.5 M 10.5,2.45 10.4,2.6 8.15,2.85 7.85,1.7 7.4,0.9 8.45,1.35 Q 10.5,2.1 10.5,2.45 M -5.6,2 -5.85,2.7 -5.95,3.15 -7.95,4.1 -9,3.95 q 0.3,-0.9 2.05,-1.4 L -5.7,2 h 0.1"
         fill="#d6bcbc"
         fill-rule="evenodd"
         stroke="none"
         id="path3" />
      <path
         d="m -6.35,-1.4 -0.25,-1.3 -0.6,-4.85 0.15,-1.35 1.4,0.25 1.15,-0.2 0.2,1.45 1.35,7 q -1.95,-0.2 -3.4,-1 m 11.2,-0.4 -0.45,-1.6 -0.3,-3 0.15,-3 1.05,0.15 q 0.95,0 1.55,-0.4 l 0.1,0.55 0.35,4.9 q -0.95,1.45 -2.45,2.4"
         fill="#a6bfbd"
         fill-rule="evenodd"
         stroke="none"
         id="path4" />
    </g>
    <g
       id="sprite0"
       transform="translate(5.4,4)">
      <use
         ffdec:characterId="43"
         height="8"
         transform="translate(-5.4,-4)"
         width="10.8"
         xlink:href="#shape1"
         id="use4" />
    </g>
    <g
       id="shape1"
       transform="translate(5.4,4)">
      <path
         d="m 2.9,-0.35 q 0,-1.25 1.25,-1.25 1.25,0 1.25,1.2 0,1.3 -1.25,1.3 Q 3.6,0.9 3.25,0.5 2.9,0.15 2.9,-0.35 m 0.35,-2.3 q 0,0.55 -0.35,0.9 -0.4,0.45 -1,0.45 -1.35,0 -1.35,-1.4 0,-1.3 1.35,-1.3 1.35,0 1.35,1.35 m -3.1,1.9 h 0.2 q 2.6,0.1 2.6,2.8 l -0.3,1 Q 2.05,4 0.45,4 H 0.35 0.15 0.1 -0.45 q -1.6,0 -2.2,-0.95 l -0.3,-1 q 0,-2.8 2.8,-2.8 h 0.3 M -1.55,-4 q 1.35,0 1.35,1.35 0,0.55 -0.4,0.9 -0.4,0.45 -0.95,0.45 -1.4,0 -1.4,-1.4 0,-1.3 1.4,-1.3 m -2.6,2.4 q 1.25,0 1.25,1.25 0,0.5 -0.35,0.85 -0.35,0.4 -0.9,0.4 -1.25,0 -1.25,-1.3 0,-1.2 1.25,-1.2"
         fill="#6b6b6b"
         fill-rule="evenodd"
         stroke="none"
         id="path5" />
    </g>
  </defs>
</svg>
