<?xml version="1.0" encoding="UTF-8" standalone="no"?>
<svg
   ffdec:objectType="frame"
   height="28.950001"
   width="60.299999"
   version="1.1"
   id="svg11"
   sodipodi:docname="2.svg"
   xmlns:inkscape="http://www.inkscape.org/namespaces/inkscape"
   xmlns:sodipodi="http://sodipodi.sourceforge.net/DTD/sodipodi-0.dtd"
   xmlns:xlink="http://www.w3.org/1999/xlink"
   xmlns="http://www.w3.org/2000/svg"
   xmlns:svg="http://www.w3.org/2000/svg"
   xmlns:ffdec="https://www.free-decompiler.com/flash">
  <sodipodi:namedview
     id="namedview11"
     pagecolor="#ffffff"
     bordercolor="#000000"
     borderopacity="0.25"
     inkscape:showpageshadow="2"
     inkscape:pageopacity="0.0"
     inkscape:pagecheckerboard="0"
     inkscape:deskcolor="#d1d1d1"
     fit-margin-top="5"
     fit-margin-left="5"
     fit-margin-right="5"
     fit-margin-bottom="5" />
  <g
     transform="translate(30,15.95)"
     id="g5">
    <use
       ffdec:characterId="4"
       height="23.950001"
       transform="matrix(0,0.6122,-0.5428,0,6.6,-8.15)"
       width="22.200001"
       xlink:href="#sprite0"
       id="use1" />
    <use
       ffdec:characterId="4"
       height="23.950001"
       transform="matrix(0,-0.6122,0.5428,0,10.85,5.7)"
       width="22.200001"
       xlink:href="#sprite0"
       id="use2" />
    <use
       ffdec:characterId="2274"
       height="28.950001"
       transform="translate(-30,-15.95)"
       width="60.299999"
       xlink:href="#shape1"
       id="use3" />
    <use
       ffdec:characterId="1691"
       height="8"
       transform="matrix(0.787,0,0,0.787,-26.1997,6.5021)"
       width="10.8"
       xlink:href="#sprite1"
       id="use4" />
    <use
       ffdec:characterId="2279"
       height="29.85"
       transform="matrix(0.3696,0,0,0.5283,-4.6573,-9.1102)"
       width="25.549999"
       xlink:href="#sprite2"
       id="use5" />
  </g>
  <defs
     id="defs11">
    <g
       id="sprite0">
      <use
         ffdec:characterId="3"
         height="23.950001"
         width="22.200001"
         xlink:href="#shape0"
         id="use6" />
    </g>
    <g
       id="shape0">
      <path
         d="M 22.2,1 Q 21.95,1.3 22.05,1.75 L 20.1,2.05 Q 18.7,4.2 18.7,7.45 L 18.55,8.4 21.8,9.8 V 10 l -0.45,0.15 q -2.1,0 -6.6,-1.75 -2.05,1.4 -3,3.05 -0.95,1.65 -0.95,3.85 l -0.05,0.45 1.7,2.9 L 12,19.1 10.25,16.6 10,16.7 9.55,16.2 V 16 q -4.85,0.3 -6.4,1.3 -0.3,0.15 -0.65,0.4 l -0.85,1.4 v 4.05 L 1.5,23.65 Q 1.35,23.9 0.95,23.95 L 0.3,23.3 0.25,6.15 0.3,2.85 0.4,1.75 0.15,1.5 V 1.45 L 0,0.95 Q 0,0.5 0.95,0 H 18.4 l 3.5,0.4 q -0.25,0.35 0.2,0.55 L 22.2,1 M 19.15,2.15 Q 16,3.8 13.25,5.95 L 17.65,8 17.6,7.6 q 0,-1.95 0.85,-4.05 l 0.7,-1.4 M 12,5.35 Q 14.9,3 17.2,2 h -6.35 l -1,2.2 0.35,-0.05 0.25,0.35 -0.15,0.05 1.7,0.8 m 2,2.7 -2.25,-0.9 -3.45,3.25 -0.45,0.45 2,3.35 Q 10.3,12.8 11.45,10.95 12.7,9 14,8.05 M 9.45,2 h -5.9 q 2.6,0.75 5.6,2.05 L 9.25,2.65 9.45,2 M 7.7,5.3 3.1,3 4.35,5.05 6,7.85 q 0.3,-1 1.3,-2.1 L 7.7,5.3 M 1.7,8.5 2,8.35 4.7,8.05 1.7,3.1 V 6.2 8.5 M 1.9,10 1.65,10.15 v 6 Q 3.05,13.9 6.3,10.6 L 5.4,9.15 2.85,9.35 1.9,10 M 6.6,8.75 7.15,9.75 8.1,8.8 10.5,6.6 8.5,5.7 7.7,6.75 6.6,8.75 M 3.9,15.9 Q 6.95,14.8 9.15,15 l -2.1,-3.25 q -1.9,2 -3.45,4.3 L 3.9,15.9"
         fill="#9a9a9a"
         fill-rule="evenodd"
         stroke="none"
         id="path6" />
    </g>
    <g
       id="shape1"
       transform="translate(30,15.95)">
      <path
         d="M -4.75,5.7 -5,3.05 -4.95,-1.8 v -1.95 -0.3 L -5,-6.05 -4.75,-8.75 -4.8,-9 q 0,-0.75 0.75,-1 l 2,-0.2 v -0.05 h 3 L 4.7,-10 q 0.75,0.25 0.75,1 l -0.05,0.25 0.25,2.7 v 2 0.3 L 5.6,-1.8 5.65,3.05 5.45,5.65 5.4,5.75 5.45,6.05 Q 5.45,6.8 4.7,7 L 0.95,7.3 h -3 L -4.05,7 Q -4.8,6.8 -4.8,6.05 l 0.05,-0.3 V 5.7 m 2.25,-13.15 0.05,1.4 v 2 L -2.5,-1.8 -2.45,1.5 V 3.05 L -2.5,4.5 h 0.45 V 4.45 h 3 L 3.15,4.5 3.1,3.05 3.15,1.1 v -2.9 -1.95 l -0.05,-2.3 0.05,-1.4 h -2.2 -3 -0.45 M 10.15,5.7 Q 9.9,4.8 9.9,3.05 L 9.95,-1.8 v -1.95 -0.3 l -0.05,-2 q 0,-1.75 0.25,-2.7 L 10.1,-9 q 0,-0.75 0.75,-1 l 2,-0.2 v -0.05 h 3 L 19.6,-10 q 0.75,0.25 0.75,1 l -0.05,0.25 0.25,2.7 v 2 0.3 l -0.05,1.95 0.05,4.85 -0.2,2.6 -0.05,0.1 0.05,0.3 Q 20.35,6.8 19.6,7 l -3.75,0.3 h -3 L 10.85,7 Q 10.1,6.8 10.1,6.05 l 0.05,-0.3 V 5.7 m 2.25,-13.15 0.05,1.4 v 2 L 12.4,-1.8 12.45,1.5 V 3.05 L 12.4,4.5 h 0.45 V 4.45 h 3 L 18.05,4.5 18,3.05 18.05,1.1 v -2.9 -1.95 l -0.05,-2.3 0.05,-1.4 h -2.2 -3 -0.45 m 17.9,-4.45 -0.1,1.9 -0.1,0.4 0.15,0.55 q 0,0.65 -0.5,0.95 -0.6,0.45 -2.5,0.45 h -0.2 v 0.05 1.8 l 0.05,1.75 -0.05,2.25 0.05,3.3 -0.05,1.35 v 1.8 0.05 h 0.2 q 1.9,0 2.5,0.45 0.5,0.3 0.5,0.95 L 30.1,6.6 30.2,7 30.3,8.95 q 0,2.95 -0.55,4.05 h -59.2 Q -30,11.9 -30,8.95 L -29.9,7 -29.8,6.6 -29.95,6.1 q 0,-0.65 0.45,-0.95 0.65,-0.45 2.55,-0.45 h 0.15 0.05 V 4.65 2.85 1.1 -1.8 -3.75 -5.8 -7.6 -7.65 h -0.05 -0.15 q -1.9,0 -2.55,-0.45 -0.45,-0.3 -0.45,-0.95 l 0.15,-0.55 -0.1,-0.4 -0.1,-1.9 q 0,-2.95 0.55,-4.05 H 29.8 q 0.5,1.1 0.5,4.05 m -5.7,19 -0.1,-0.05 v -0.5 -16 -0.6 l 0.35,-0.1 2.8,-0.25 -0.05,-1.15 v -0.35 l 0.05,-1.7 h -55 l 0.05,1.7 v 0.35 l -0.05,1.15 h 0.55 l 2.25,0.25 0.35,0.1 0.1,2 V 5.1 l -0.1,1.95 -0.05,0.05 -0.3,0.1 -2.25,0.25 h -0.55 l 0.05,1.05 v 0.45 l -0.05,1.65 h 55 L 27.6,8.95 V 8.55 L 27.65,7.45 24.85,7.2 24.6,7.1 M -15.35,-7.45 h -2.25 l 0.05,1.4 v 2 l -0.05,2.25 0.05,3.3 v 1.55 l -0.05,1.45 2.25,-0.05 h 2.95 V 4.5 h 0.5 L -11.95,3.05 -11.9,1.1 v -2.9 -1.95 l -0.05,-2.3 0.05,-1.4 h -0.5 -2.95 m -4.25,14.15 -0.25,-0.65 0.05,-0.3 -0.25,-2.7 v -4.85 -1.95 -0.3 -2 l 0.25,-2.7 -0.05,-0.25 q 0,-0.75 0.7,-1 l 3.8,-0.25 h 2.95 v 0.05 l 2.05,0.2 q 0.7,0.25 0.7,1 l -0.05,0.25 q 0.3,0.95 0.3,2.7 v 2 0.3 l -0.05,1.95 0.05,4.85 q 0,1.75 -0.3,2.7 l 0.05,0.3 q 0,0.6 -0.5,0.9 L -10.35,7 -12.4,7.3 h -2.95 L -19.15,7 -19.6,6.7"
         fill="#6b6b6b"
         fill-rule="evenodd"
         stroke="none"
         id="path7" />
      <path
         d="M 5.45,5.65 5.65,3.05 5.6,-1.8 5.65,-3.75 v -0.3 -2 L 5.4,-8.75 5.45,-9 q 0,-0.75 -0.75,-1 l -3.75,-0.25 h -3 v 0.05 l -2,0.2 q -0.75,0.25 -0.75,1 l 0.05,0.25 -0.25,2.7 0.05,2 v 0.3 1.95 L -5,3.05 -4.75,5.7 -4.9,5.85 -5.15,6.15 V 7.7 l 0.4,0.4 q 1.1,0.65 4.35,0.65 L 4.85,8.35 Q 6,8 6,6.8 6,6 5.45,5.65 m 14.9,0 0.2,-2.6 -0.05,-4.85 0.05,-1.95 v -0.3 -2 L 20.3,-8.75 20.35,-9 q 0,-0.75 -0.75,-1 l -3.75,-0.25 h -3 v 0.05 l -2,0.2 q -0.75,0.25 -0.75,1 l 0.05,0.25 Q 9.9,-7.8 9.9,-6.05 l 0.05,2 v 0.3 1.95 L 9.9,3.05 q 0,1.75 0.25,2.65 L 10,5.85 9.75,6.15 V 7.7 l 0.4,0.4 q 1.1,0.65 4.35,0.65 l 5.25,-0.4 Q 20.9,8 20.9,6.8 20.9,6 20.35,5.65 m 7.25,-17.2 0.05,1.15 -2.8,0.25 -0.35,0.1 v 0.6 16 0.5 l 0.1,0.05 -0.15,0.55 0.15,0.6 Q 24.95,8.8 25.65,8.8 L 27.6,8.55 v 0.4 l 0.05,1.65 h -55 L -27.3,8.95 V 8.5 l 2.2,-0.1 q 0.9,-0.2 0.9,-0.95 L -24.25,7.1 -24.2,7.05 -24.1,5.1 V -8.05 l -0.1,-2 -0.35,-0.1 -2.25,-0.25 h -0.55 l 0.05,-1.15 h 54.9 m -37.75,18.5 q 0.5,-0.3 0.5,-0.9 L -9.7,5.75 Q -9.4,4.8 -9.4,3.05 L -9.45,-1.8 -9.4,-3.75 v -0.3 -2 q 0,-1.75 -0.3,-2.7 L -9.65,-9 q 0,-0.75 -0.7,-1 l -2.05,-0.2 v -0.05 h -2.95 l -3.8,0.25 q -0.7,0.25 -0.7,1 l 0.05,0.25 -0.25,2.7 v 2 0.3 1.95 4.85 l 0.25,2.7 -0.05,0.3 0.25,0.65 -0.15,0.55 q 0,0.85 0.4,1.05 l 7.4,0.45 q 1.85,0 1.85,-1.45 l -0.05,-0.35"
         fill="#9c9c9c"
         fill-rule="evenodd"
         stroke="none"
         id="path8" />
      <path
         d="m -4.75,5.7 v 0.05 l -0.05,0.3 q 0,0.75 0.75,0.95 l 2,0.3 h 3 L 4.7,7 Q 5.45,6.8 5.45,6.05 L 5.4,5.75 5.45,5.65 Q 6,6 6,6.8 6,8 4.85,8.35 l -5.25,0.4 q -3.25,0 -4.35,-0.65 L -5.15,7.7 V 6.15 L -4.9,5.85 -4.75,5.7 m 14.9,0 v 0.05 l -0.05,0.3 q 0,0.75 0.75,0.95 l 2,0.3 h 3 L 19.6,7 Q 20.35,6.8 20.35,6.05 L 20.3,5.75 20.35,5.65 Q 20.9,6 20.9,6.8 20.9,8 19.75,8.35 l -5.25,0.4 q -3.25,0 -4.35,-0.65 L 9.75,7.7 V 6.15 L 10,5.85 10.15,5.7 m 14.45,1.4 0.25,0.1 2.8,0.25 -0.05,1.1 -1.95,0.25 q -0.7,0 -1.05,-0.55 L 24.45,7.65 24.6,7.1 m -51.9,1.4 -0.05,-1.05 h 0.55 l 2.25,-0.25 0.3,-0.1 0.05,0.35 q 0,0.75 -0.9,0.95 l -2.2,0.1 m 0,-20.05 v -0.35 l -0.05,-1.7 h 55 l -0.05,1.7 v 0.35 h -54.9 m 17.15,18.5 0.05,0.35 q 0,1.45 -1.85,1.45 l -7.4,-0.45 q -0.4,-0.2 -0.4,-1.05 l 0.15,-0.55 0.45,0.3 3.8,0.3 h 2.95 l 2.05,-0.3 0.2,-0.05"
         fill="#c4c4c4"
         fill-rule="evenodd"
         stroke="none"
         id="path9" />
    </g>
    <g
       id="sprite1"
       transform="translate(5.4,4)">
      <use
         ffdec:characterId="43"
         height="8"
         transform="translate(-5.4,-4)"
         width="10.8"
         xlink:href="#shape2"
         id="use9" />
    </g>
    <g
       id="shape2"
       transform="translate(5.4,4)">
      <path
         d="m 2.9,-0.35 q 0,-1.25 1.25,-1.25 1.25,0 1.25,1.2 0,1.3 -1.25,1.3 Q 3.6,0.9 3.25,0.5 2.9,0.15 2.9,-0.35 m 0.35,-2.3 q 0,0.55 -0.35,0.9 -0.4,0.45 -1,0.45 -1.35,0 -1.35,-1.4 0,-1.3 1.35,-1.3 1.35,0 1.35,1.35 m -3.1,1.9 h 0.2 q 2.6,0.1 2.6,2.8 l -0.3,1 Q 2.05,4 0.45,4 H 0.35 0.15 0.1 -0.45 q -1.6,0 -2.2,-0.95 l -0.3,-1 q 0,-2.8 2.8,-2.8 h 0.3 M -1.55,-4 q 1.35,0 1.35,1.35 0,0.55 -0.4,0.9 -0.4,0.45 -0.95,0.45 -1.4,0 -1.4,-1.4 0,-1.3 1.4,-1.3 m -2.6,2.4 q 1.25,0 1.25,1.25 0,0.5 -0.35,0.85 -0.35,0.4 -0.9,0.4 -1.25,0 -1.25,-1.3 0,-1.2 1.25,-1.2"
         fill="#6b6b6b"
         fill-rule="evenodd"
         stroke="none"
         id="path10" />
    </g>
    <g
       id="sprite2"
       transform="translate(12.6,14.5)">
      <use
         ffdec:characterId="2275"
         height="8.25"
         transform="matrix(0.6667,0,0,0.6667,-3.4,6.1666)"
         width="11.1"
         xlink:href="#shape3"
         id="use10" />
    </g>
    <g
       id="shape3"
       transform="translate(5.55,4.1)">
      <path
         d="m 5.5,-1.35 0.05,0.8 Q 5.55,3.5 4.4,3.6 L 4.25,3.2 4.8,1.4 4.65,0 Q 4.4,-1.25 3.9,-1.55 H 2.4 l -0.35,0.2 -0.1,0.2 Q 3.2,-0.7 3.2,0.15 3.3,4 1.85,4 L 1.5,3.75 2.15,2.3 2.55,1 2.4,-0.05 q -0.3,-0.3 -1.1,-0.4 l -1.45,0.25 -1.05,-0.25 -0.35,0.2 Q -2.7,0.55 -2.7,1.9 l 0.25,1 0.35,0.8 -0.2,0.3 q -1,-0.6 -1,-3.15 0,-1.3 1.3,-2.05 L -2.1,-1.4 H -2.15 L -3.3,-1.65 q -1.5,0 -1.4,2 l 0.45,1.85 0.6,1.65 -0.05,0.2 q -0.05,0.1 -0.25,0.1 -1.35,0 -1.6,-3.75 0,-1.85 1.9,-2.85 0.85,-0.45 1.3,-0.35 0.3,-1.4 2.2,-1.3 1.95,0.05 2.25,1.5 l 1.35,-0.45 1.4,0.9 0.65,0.8"
         fill="#6b6b6b"
         fill-rule="evenodd"
         stroke="none"
         id="path11" />
    </g>
  </defs>
</svg>
