<?xml version="1.0" encoding="UTF-8" standalone="no"?>
<svg
   ffdec:objectType="frame"
   height="74.300003"
   width="52.937115"
   version="1.1"
   id="svg10"
   sodipodi:docname="2.svg"
   xmlns:inkscape="http://www.inkscape.org/namespaces/inkscape"
   xmlns:sodipodi="http://sodipodi.sourceforge.net/DTD/sodipodi-0.dtd"
   xmlns:xlink="http://www.w3.org/1999/xlink"
   xmlns="http://www.w3.org/2000/svg"
   xmlns:svg="http://www.w3.org/2000/svg"
   xmlns:ffdec="https://www.free-decompiler.com/flash">
  <sodipodi:namedview
     id="namedview10"
     pagecolor="#ffffff"
     bordercolor="#000000"
     borderopacity="0.25"
     inkscape:showpageshadow="2"
     inkscape:pageopacity="0.0"
     inkscape:pagecheckerboard="0"
     inkscape:deskcolor="#d1d1d1"
     fit-margin-top="5"
     fit-margin-left="5"
     fit-margin-right="5"
     fit-margin-bottom="5" />
  <g
     transform="translate(26.643557,33.75)"
     id="g3">
    <use
       ffdec:characterId="1425"
       height="74.349998"
       transform="translate(-26.65,-33.8)"
       width="52.950001"
       xlink:href="#shape0"
       id="use1" />
    <use
       ffdec:characterId="44"
       height="8"
       transform="matrix(0,-1,-1,0,3.05,35.3498)"
       width="10.8"
       xlink:href="#sprite0"
       id="use2" />
    <use
       ffdec:characterId="1426"
       height="2.95"
       transform="translate(-7.75,-16.2)"
       width="16.25"
       xlink:href="#shape2"
       id="use3" />
  </g>
  <defs
     id="defs10">
    <g
       id="shape0"
       transform="translate(26.65,33.8)">
      <path
         d="M 12.15,-27.7 10.3,-28.6 8.75,-29.4 8.65,-29.45 8.4,-29.5 2.65,-30.7 h -3.1 q 0.5,0.65 0.5,1.85 0,1.2 -0.25,1.75 -0.6,1.05 -2.5,1.65 h -3 q -0.75,-0.3 -1.5,-1.4 -0.75,-1.1 -0.75,-1.75 l 0.1,-1.15 -0.9,0.25 -0.25,0.05 -0.1,0.05 -1.55,0.8 -3.75,1.85 -0.65,0.3 -0.95,0.8 q -1.8,1.75 -3.8,5.15 l -1.65,5.3 -0.75,2.9 -0.65,3.4 q -0.2,2.6 0.75,4.3 0.65,1.15 2,2.35 l 2.55,1.8 H 10.7 q -2.3,-1.1 -2.55,-1.35 -0.6,-0.5 -0.6,-2.3 0,-1.95 1.15,-2.95 0.65,-0.55 1.6,-0.8 l 0.25,-0.1 0.25,-0.05 1.3,-0.15 h 0.75 l 0.35,0.05 1.45,0.35 q 0.2,0.05 0.35,0.15 1,0.55 1.35,1.65 l 0.1,0.2 0.2,1.55 q 0,2.5 -1.2,3.75 h 1.75 q 2.35,-1.45 3.6,-2.85 l 0.65,-0.85 0.3,-0.45 0.15,-0.3 0.15,-0.35 0.1,-0.3 0.3,-1.35 0.05,-0.55 v -1.1 -0.35 l -0.55,-2.9 -0.2,0.15 -0.5,0.1 L 21,-11.5 H 20.25 20.2 19.7 19.65 l -0.35,-0.1 q -0.95,-0.25 -1.5,-1 v -0.05 q -0.5,-0.8 -0.5,-2 v -0.25 q 0.05,-1.3 0.45,-1.7 l 0.1,-0.05 0.2,-0.15 0.85,-0.3 H 19 l 0.7,-0.05 h 0.85 l -1.1,-3.35 -0.3,-0.45 -2.45,-3.5 -0.1,-0.1 -1.55,-1.6 -0.35,-0.3 q -1.35,-0.65 -2.55,-1.25 m -22.4,6.35 1.45,-0.6 0.2,-0.05 h 0.1 l 0.8,-0.1 1,0.3 0.35,0.35 0.3,0.55 q 0.3,0.7 0.3,1.9 0,0.4 -0.45,0.65 l -0.1,0.05 -0.15,0.1 -1.65,0.8 -0.35,0.15 h -1.9 q -0.75,-0.2 -1,-1.2 l -0.1,-0.95 q 0,-1.25 1.2,-1.95 M 8.6,-22.95 8.45,-24.2 q 0,-2.2 3.25,-2.05 l 0.5,0.05 q 1.05,0.1 1.7,0.6 0.7,0.55 0.95,1.45 l 0.15,1.2 -0.05,0.6 -0.05,0.45 -0.1,0.4 -0.1,0.1 -1.1,0.6 -0.15,0.05 -1,0.15 H 12.4 12.15 11.7 l -1.1,-0.15 -0.2,-0.05 -0.15,-0.1 q -0.6,-0.25 -1,-0.8 L 9,-22.1 8.6,-22.95 M -0.2,-33.7 v 0.2 h 0.05 v -0.2 l 2.45,-0.05 2.5,0.25 H 5 l 0.7,0.2 2.4,0.6 1.35,0.45 2.6,1.1 q 6.45,2 10.3,8.95 3.25,5.95 3.9,13.7 0.65,8.25 -8.4,10.85 l -0.4,0.1 H 9.35 L 9.8,4.2 q 0.3,1.6 -1.75,4.4 l -2,2.7 q 0.15,0.85 0.65,1.85 0.55,1 0.8,2.3 l 0.2,1.4 q -0.05,0.8 -0.75,1.05 v 0.15 q -0.4,0.8 -1.6,0.95 l 0.45,1 1.45,4.05 1.75,4.65 -0.1,3.35 -0.15,3.3 0.65,0.9 q 0.75,1.45 0.75,2.75 0,0.45 -0.85,1.15 l -0.6,0.4 H -4 q -1.2,-0.7 -1.9,-2.2 -0.7,-1.5 -0.7,-3.3 L -5.85,26.25 -5,18.7 h -0.4 q -1.2,0 -1.8,-0.6 L -7.35,17.9 Q -8,17.65 -8.05,16.95 l -0.2,-0.3 0.3,-0.4 0.1,-0.8 q 0.25,-1.3 0.8,-2.3 0.5,-1 0.65,-1.85 l -2,-2.7 q -2.05,-2.8 -1.75,-4.4 l 0.4,-1.75 h -8.1 l -0.35,-0.1 q -9.05,-2.6 -8.4,-10.85 0.65,-7.75 3.9,-13.7 3.85,-6.95 10.3,-8.95 l 2.6,-1.1 1.35,-0.45 2.4,-0.6 0.7,-0.2 h 0.2 l 2.5,-0.25 2.45,0.05 m 12.05,8.7 -0.95,-0.1 q -1.2,-0.05 -1.2,1 0,0.65 1.15,2 l 0.15,0.15 1.75,0.05 0.2,-0.05 H 13 q 1.05,-0.35 1.05,-0.85 v -0.15 l -0.2,-0.7 q -0.45,-1 -2,-1.35 m -8.4,10.15 0.05,-0.75 0.25,-1 q 0.35,-0.75 1,-1.2 l 0.6,-0.3 0.4,-0.1 1.3,-0.15 0.45,0.05 1.05,0.2 0.3,0.15 0.15,0.05 0.05,0.05 q 0.75,0.4 1.2,1.15 l 0.1,0.2 0.35,1.35 0.1,0.95 q 0,1.15 -0.55,1.95 l -0.35,0.4 -0.3,0.25 -0.65,0.35 -1.45,0.35 H 7.45 L 7.1,-10.85 H 6.45 6.35 q -0.45,0 -0.9,-0.3 -0.55,-0.4 -1.15,-1.3 V -12.5 H 4.25 L 4.1,-12.8 Q 3.45,-14 3.45,-14.85 m 3.9,-1.9 H 7.2 l -0.75,0.1 -0.75,0.25 q -0.55,0.3 -0.75,0.95 l -0.05,0.55 0.05,0.9 0.25,0.4 0.85,0.75 h 2.6 l 0.5,-0.55 0.15,-0.25 0.15,-0.25 0.1,-0.4 q 0,-1 -0.4,-1.55 l -0.1,-0.2 -0.1,-0.1 q -0.55,-0.6 -1.6,-0.6 m 13.4,4.1 h 0.2 l 0.75,-0.05 -0.3,-1.25 -0.05,-0.25 -0.25,-1 -0.25,-0.8 h -0.9 -0.05 l -0.85,0.15 -0.3,0.15 -0.25,0.25 -0.1,0.75 q 0,0.4 0.5,1.05 l 0.05,0.05 0.5,0.5 q 0.6,0.4 1.3,0.45 m -7.6,6.2 -0.2,0.05 -1.65,0.3 -2,0.65 q -0.35,0.2 -0.35,1.2 0,0.5 0.75,1.75 0.95,1.5 1.95,1.5 l 2.55,-0.25 0.9,-0.85 0.2,-1.1 q 0,-0.9 -0.4,-1.7 -0.4,-0.8 -1.1,-1.2 -0.1,-0.1 -0.25,-0.15 l -0.4,-0.2 m -19.45,-23.2 -0.4,0.7 0.55,1.2 0.8,1 h 2.25 q 0.85,0 1.5,-0.8 0.55,-0.75 0.55,-1.3 0,-0.65 -0.4,-1 L -2.7,-30.7 H -3 l -2.85,0.5 -0.45,0.55 M -6.6,-20 q 0,-0.85 -0.6,-1.2 l -0.55,-0.15 -0.1,-0.05 -0.65,0.55 -0.55,0.35 -0.2,0.15 -0.8,0.8 -0.3,0.4 0.3,0.45 0.05,0.05 0.4,0.15 0.35,0.05 h 0.55 0.1 l 0.6,-0.05 1.3,-0.35 0.1,-1.15 m -8.95,15.1 q -2.3,-0.35 -3.35,-2.35 l -0.2,-0.35 q -0.5,-1.3 -0.5,-3 0,-1.15 0.55,-2 l 1,-1.05 1.35,-0.65 0.8,-0.15 1.3,-0.05 0.55,0.05 0.9,0.15 1.75,0.7 0.9,0.8 0.1,0.2 q 0.65,0.85 0.8,2.2 l 0.05,0.8 v 0.25 l -0.2,0.75 -0.8,1.45 -0.15,0.25 -0.1,0.15 -1.65,1.4 q -0.95,0.5 -2.1,0.5 l -1,-0.05 m -0.1,-7.95 -0.55,0.1 h -0.05 q -1.8,0.4 -1.8,2.5 l 0.4,1.9 q 0.7,1.75 2.1,1.9 h 0.2 q 1.5,0 3,-1.45 l 1.2,-1.5 0.05,-0.05 -0.05,-0.05 q -1,-1.8 -2.15,-2.65 -0.65,-0.5 -1.4,-0.65 l -0.95,-0.05 m 8.45,7.65 0.2,-1 q 0.7,-0.9 3.2,-0.9 0.7,0.5 0.85,0.95 l 0.1,0.95 q 0,0.9 -0.25,1.3 -0.5,0.7 -2,0.7 -0.95,0 -1.5,-0.55 -0.6,-0.55 -0.6,-1.45 m 0.85,0 0.65,1.1 q 0.55,0 1.35,-0.5 0.75,-0.45 0.75,-0.75 0,-0.95 -1.4,-0.9 -1.35,0 -1.35,1.05 M 1.8,5.75 2.05,5.4 2.85,4.35 3.15,3.05 3.1,2.45 3.05,1.55 H -7.55 V 2.3 2.45 q -0.1,1.3 0.25,2.4 0.45,1.45 1.65,2.4 2.05,1.7 1.8,3.2 l -0.8,2.65 -0.8,2.2 q -0.15,0.75 0.1,0.95 l 0.55,0.5 h 0.1 l 0.25,0.15 0.8,-0.1 0.85,-0.1 0.1,-0.45 0.6,-2.1 0.75,-2.7 q 0,-0.8 -0.4,-1.7 L -2.1,8.15 V 7.95 L -2.05,7.8 H -2 q 0.9,1.15 1.15,1.95 0.15,0.6 0.15,1.85 l -0.1,1 -0.25,0.8 -0.3,1.3 0.3,1.15 q 0.35,0.75 0.35,1 l -0.05,0.4 -0.1,0.3 -0.5,0.4 -0.3,0.05 h -0.2 l -0.5,-0.1 -0.15,-0.05 h -0.15 l -0.3,0.05 -0.35,0.2 -0.15,0.1 -0.05,0.05 -0.1,0.05 0.1,0.3 v 0.05 0.15 l 0.05,0.1 0.05,0.9 0.05,0.35 v 0.45 0.15 q 0,2.05 -0.45,6.1 l -0.4,6.2 q 0,2.1 0.4,3.45 0.5,1.45 1.5,1.95 L 0.65,38.9 3.3,38.5 Q 4.8,38.1 5.9,37.35 L 6.2,36.15 6.4,35.05 6.65,31 q 0,-2.1 -1.9,-6 Q 3.6,22.65 3.15,20.95 L 2.9,19.6 V 19.1 19 L 2.95,18.5 2.9,18.4 2.95,18.35 3.05,17.95 V 17.9 L 1.65,17.85 0.5,17.65 V 17.6 L 0.95,17.05 1.3,16.5 h 0.15 q 0.8,0.55 1.35,0.55 L 4,16.85 4.05,16.9 H 4.1 l 0.25,-0.15 h 0.1 L 5,16.25 Q 5.25,16.05 5.1,15.3 L 4.3,13.1 3.5,10.45 Q 3.3,9.15 4.75,7.75 L 5.3,7.25 Q 7.35,5.55 7.2,2.45 V 2.3 1.55 h -3 L 4.15,2.45 3.95,3.8 Q 3.5,5.25 2.05,5.85 L 1.9,5.9 1.8,5.8 V 5.75"
         fill="#6b6b6b"
         fill-rule="evenodd"
         stroke="none"
         id="path3" />
      <path
         d="m 11.85,-25 q 1.55,0.35 2,1.35 l 0.2,0.7 v 0.15 q 0,0.5 -1.05,0.85 h -0.05 l -0.2,0.05 -1.75,-0.05 -0.15,-0.15 q -1.15,-1.35 -1.15,-2 0,-1.05 1.2,-1 l 0.95,0.1 m 8.9,12.35 q -0.7,-0.05 -1.3,-0.45 l -0.5,-0.5 -0.05,-0.05 q -0.5,-0.65 -0.5,-1.05 l 0.1,-0.75 0.25,-0.25 0.3,-0.15 0.85,-0.15 h 0.05 0.9 l 0.25,0.8 0.25,1 0.05,0.25 0.3,1.25 -0.75,0.05 h -0.2 m -13.4,-4.1 q 1.05,0 1.6,0.6 l 0.1,0.1 0.1,0.2 q 0.4,0.55 0.4,1.55 l -0.1,0.4 -0.15,0.25 -0.15,0.25 -0.5,0.55 H 6.05 L 5.2,-13.6 4.95,-14 4.9,-14.9 4.95,-15.45 q 0.2,-0.65 0.75,-0.95 l 0.75,-0.25 0.75,-0.1 h 0.15 m 5.8,10.3 0.4,0.2 q 0.15,0.05 0.25,0.15 0.7,0.4 1.1,1.2 0.4,0.8 0.4,1.7 l -0.2,1.1 -0.9,0.85 -2.55,0.25 q -1,0 -1.95,-1.5 -0.75,-1.25 -0.75,-1.75 0,-1 0.35,-1.2 l 2,-0.65 1.65,-0.3 0.2,-0.05 M -6.3,-29.65 -5.85,-30.2 -3,-30.7 h 0.3 l 1.25,0.85 q 0.4,0.35 0.4,1 0,0.55 -0.55,1.3 -0.65,0.8 -1.5,0.8 h -2.25 l -0.8,-1 -0.55,-1.2 0.4,-0.7 m -0.3,9.65 -0.1,1.15 -1.3,0.35 -0.6,0.05 h -0.1 -0.55 l -0.35,-0.05 -0.4,-0.15 -0.05,-0.05 -0.3,-0.45 0.3,-0.4 0.8,-0.8 0.2,-0.15 0.55,-0.35 0.65,-0.55 0.1,0.05 0.55,0.15 q 0.6,0.35 0.6,1.2 m -9.05,7.15 0.95,0.05 q 0.75,0.15 1.4,0.65 1.15,0.85 2.15,2.65 l 0.05,0.05 -0.05,0.05 -1.2,1.5 q -1.5,1.45 -3,1.45 h -0.2 q -1.4,-0.15 -2.1,-1.9 l -0.4,-1.9 q 0,-2.1 1.8,-2.5 h 0.05 l 0.55,-0.1 m 9.3,7.65 q 0,-1.05 1.35,-1.05 1.4,-0.05 1.4,0.9 0,0.3 -0.75,0.75 -0.8,0.5 -1.35,0.5 l -0.65,-1.1"
         fill="#e9e9e9"
         fill-rule="evenodd"
         stroke="none"
         id="path4" />
      <path
         d="M -7.3,4.85 Q -7.65,3.75 -7.55,2.45 V 2.3 1.55 H 3.05 L 3.1,2.45 3.15,3.05 2.85,4.35 2.05,5.4 1.8,5.75 q -1.75,1.4 -4.75,1.4 -2.1,0 -3.7,-1.6 L -7.3,4.85 m 9.35,1 Q 3.5,5.25 3.95,3.8 L 4.15,2.45 4.2,1.55 h 3 V 2.3 2.45 q 0.15,3.1 -1.9,4.8 L 4.75,7.75 4.05,7.8 Q 3.2,7.8 2.6,7.3 2.05,6.75 2.05,5.95 V 5.85 M 0.95,17.05 0.5,17.6 v 0.05 l 1.15,0.2 1.4,0.05 v 0.05 L 2.95,18.35 2.9,18.4 2.95,18.5 2.9,19 v 0.1 0.5 l 0.25,1.35 -0.95,0.2 -2.25,0.4 q -1.45,0 -3.05,-0.8 L -3.35,20.6 V 20.15 L -3.4,19.8 -3.45,18.9 -3.5,18.8 V 18.65 18.6 l -0.1,-0.3 0.1,-0.05 0.05,-0.05 0.15,-0.1 0.35,-0.2 0.3,-0.05 h 0.15 l 0.15,0.05 0.5,0.1 h 0.2 l 0.3,-0.05 0.5,-0.4 0.1,-0.3 0.05,-0.4 q 0,-0.25 -0.35,-1 l -0.3,-1.15 0.3,-1.3 0.25,-0.8 0.05,1.05 q 0,1.5 1.5,3.15 l 0.2,0.25 m 5.25,19.1 -0.3,1.2 Q 4.8,38.1 3.3,38.5 L 0.65,38.9 -2.3,38.45 q -1,-0.5 -1.5,-1.95 l 1.8,0.35 4.45,0.45 q 1.15,0 3.75,-1.15 M -2.1,7.95 v 0.2 l 0.35,1.6 q 0.4,0.9 0.4,1.7 l -0.75,2.7 -0.6,2.1 -0.05,-0.35 Q -2.2,10.5 -2.2,7.85 l 0.1,0.1"
         fill="#a2a2a2"
         fill-rule="evenodd"
         stroke="none"
         id="path5" />
      <path
         d="m -7.3,4.85 0.65,0.7 q 1.6,1.6 3.7,1.6 3,0 4.75,-1.4 V 5.8 L 1.9,5.9 2.05,5.85 v 0.1 q 0,0.8 0.55,1.35 0.6,0.5 1.45,0.5 L 4.75,7.75 Q 3.3,9.15 3.5,10.45 l 0.8,2.65 0.8,2.2 Q 5.25,16.05 5,16.25 l -0.55,0.5 H 4.35 L 4.1,16.9 H 4.05 L 4,16.85 2.8,17.05 q -0.55,0 -1.35,-0.55 H 1.3 L 0.95,17.05 0.75,16.8 q -1.5,-1.65 -1.5,-3.15 l -0.05,-1.05 0.1,-1 Q -0.7,10.35 -0.85,9.75 -1.1,8.95 -2,7.8 H -2.05 L -2.1,7.95 -2.2,7.85 q 0,2.65 -0.55,8.05 l 0.05,0.35 -0.1,0.45 -0.85,0.1 -0.8,0.1 -0.25,-0.15 h -0.1 l -0.55,-0.5 q -0.25,-0.2 -0.1,-0.95 l 0.8,-2.2 0.8,-2.65 Q -3.6,8.95 -5.65,7.25 -6.85,6.3 -7.3,4.85 m 10.45,16.1 q 0.45,1.7 1.6,4.05 1.9,3.9 1.9,6 L 6.4,35.05 6.2,36.15 Q 3.6,37.3 2.45,37.3 L -2,36.85 -3.8,36.5 q -0.4,-1.35 -0.4,-3.45 l 0.4,-6.2 q 0.45,-4.05 0.45,-6.1 V 20.6 l 0.25,0.15 q 1.6,0.8 3.05,0.8 l 2.25,-0.4 0.95,-0.2"
         fill="#c4c4c4"
         fill-rule="evenodd"
         stroke="none"
         id="path6" />
      <path
         d="m -14.4,-26.75 0.8,0.3 -0.95,0.85 h 0.5 q 0.9,0.2 1.2,0.8 1.05,-1.15 2.1,-1.05 l 0.05,0.6 -0.15,0.85 0.8,0.15 -0.1,0.55 0.1,0.5 -0.45,1.05 0.25,0.8 q -1.2,0.7 -1.2,1.95 l 0.1,0.95 q 0.25,1 1,1.2 h 1.9 l 0.35,-0.15 1.65,-0.8 0.15,-0.1 0.1,-0.05 q 0.45,-0.25 0.45,-0.65 0,-1.2 -0.3,-1.9 l -0.3,-0.55 0.6,-0.05 q 0.45,-0.5 1,0.7 0.75,1.55 0.9,2.9 l 0.45,-0.65 q 1.9,-2.7 2.35,0.05 0.45,0.6 0.7,2.1 0,-4.2 2.05,-1.9 l 0.35,0.4 q 0.05,-1.9 1.35,-2.75 0.95,-0.6 1.2,1.05 l 0.5,0.35 -0.2,-1.6 q 0,-3.4 2.65,0.6 L 7.9,-19.7 8.2,-20 8.05,-21.7 q 0,-1.45 0.55,-1.25 l 0.4,0.85 0.25,0.4 q 0.4,0.55 1,0.8 l 0.15,0.1 0.2,0.05 1.1,0.15 h 0.45 0.25 0.05 l 1,-0.15 0.15,-0.05 1.1,-0.6 0.1,-0.1 0.1,-0.4 0.05,-0.45 0.05,-0.6 -0.15,-1.2 q -0.25,-0.9 -0.95,-1.45 -0.65,-0.5 -1.7,-0.6 L 12,-26.6 q 0,-0.7 0.15,-1.1 1.2,0.6 2.55,1.25 l 0.35,0.3 1.55,1.6 0.1,0.1 2.45,3.5 0.3,0.45 1.1,3.35 H 19.7 L 19,-17.1 h -0.1 l -0.85,0.3 -0.2,0.15 -0.1,0.05 q -0.4,0.4 -0.45,1.7 v 0.25 q 0,1.2 0.5,2 v 0.05 q 0.55,0.75 1.5,1 l 0.35,0.1 h 0.05 0.5 0.05 0.75 l 0.25,-0.05 0.5,-0.1 0.2,-0.15 0.55,2.9 v 0.35 1.1 l -0.05,0.55 -0.3,1.35 -0.1,0.3 -0.15,0.35 -0.15,0.3 -0.3,0.45 -0.65,0.85 Q 19.85,-3.7 18.85,-5.25 L 18.6,-5.6 17.9,-5.7 17.85,-5.45 17.4,-5 16.45,-5.75 16.35,-5.95 Q 16,-7.05 15,-7.6 14.85,-7.7 14.65,-7.75 L 13.2,-8.1 12.85,-8.15 H 12.1 L 10.8,-8 10.55,-7.95 10.3,-7.85 Q 9.35,-7.6 8.7,-7.05 L 7.85,-8.65 7.1,-8.5 q -0.35,0.55 -1.05,0.55 -0.55,0 -1,-0.9 L 5,-8.9 Q 4.65,-7.65 4.15,-7.25 2.85,-8.05 2.3,-10.1 L 1.4,-10 q -0.55,0 -1.9,-1.15 l -0.1,-0.05 q -0.4,3.45 -1,4.1 -1,-0.8 -1.1,-3.9 -1.25,3.15 -1.65,3.15 -0.65,0 -1.1,-0.9 -0.3,2.1 -1.35,2.1 L -7.5,-6.9 q -0.4,0.8 -0.95,0.8 -0.55,0 -1,-0.75 l -0.2,-0.35 q -0.15,0.35 -0.35,0.35 -0.3,0 -0.55,-0.3 l 0.8,-1.45 0.2,-0.75 V -9.6 l -0.05,-0.8 q -0.15,-1.35 -0.8,-2.2 l -0.1,-0.2 -0.9,-0.8 -1.75,-0.7 -0.9,-0.15 -0.55,-0.05 -1.3,0.05 -0.8,0.15 -1.35,0.65 -1,1.05 q -0.55,0.85 -0.55,2 0,1.7 0.5,3 l 0.2,0.35 q 1.05,2 3.35,2.35 -0.3,1.15 -1.65,1.15 -0.35,0 -1.15,-0.65 l -0.3,1.1 q -0.45,0.85 -1.45,1.05 -1.35,-1.2 -2,-2.35 -0.95,-1.7 -0.75,-4.3 l 0.65,-3.4 0.75,-2.9 1.65,-5.3 q 2,-3.4 3.8,-5.15 l 0.95,-0.8 0.65,-0.3 m 5.6,4.8 0.35,-0.7 0.5,0.2 0.2,-0.05 q 0.65,0 1.05,0.7 l -1,-0.3 -0.8,0.1 h -0.1 l -0.2,0.05 m 12.25,7.1 q 0,0.85 0.65,2.05 l 0.15,0.3 H 4.3 v 0.05 q 0.6,0.9 1.15,1.3 0.45,0.3 0.9,0.3 H 6.45 7.1 L 7.45,-10.9 H 7.5 l 1.45,-0.35 0.65,-0.35 0.3,-0.25 0.35,-0.4 q 0.55,-0.8 0.55,-1.95 l -0.1,-0.95 -0.35,-1.35 -0.1,-0.2 Q 9.8,-17.45 9.05,-17.85 L 9,-17.9 8.85,-17.95 8.55,-18.1 7.5,-18.3 l -0.45,-0.05 -1.3,0.15 -0.4,0.1 -0.6,0.3 q -0.65,0.45 -1,1.2 l -0.25,1 -0.05,0.75 m -14.25,8.1 q -0.3,1.5 -0.9,1.5 l -0.75,-0.1 1.65,-1.4"
         fill="#ab91b3"
         fill-rule="evenodd"
         stroke="none"
         id="path7" />
      <path
         d="m -14.4,-26.75 3.75,-1.85 1.55,-0.8 0.1,-0.05 0.25,-0.05 0.9,-0.25 -0.1,1.15 q 0,0.65 0.75,1.75 0.75,1.1 1.5,1.4 h 3 q 1.9,-0.6 2.5,-1.65 0.25,-0.55 0.25,-1.75 0,-1.2 -0.5,-1.85 h 3.1 l 5.75,1.2 0.25,0.05 0.1,0.05 1.55,0.8 1.85,0.9 Q 12,-27.3 12,-26.6 l 0.2,0.4 -0.5,-0.05 Q 8.45,-26.4 8.45,-24.2 l 0.15,1.25 q -0.55,-0.2 -0.55,1.25 l 0.15,1.7 -0.3,0.3 -0.35,-0.55 q -2.65,-4 -2.65,-0.6 l 0.2,1.6 -0.5,-0.35 Q 4.35,-21.25 3.4,-20.65 2.1,-19.8 2.05,-17.9 L 1.7,-18.3 q -2.05,-2.3 -2.05,1.9 -0.25,-1.5 -0.7,-2.1 -0.45,-2.75 -2.35,-0.05 l -0.45,0.65 q -0.15,-1.35 -0.9,-2.9 -0.55,-1.2 -1,-0.7 l -0.6,0.05 -0.35,-0.35 q -0.4,-0.7 -1.05,-0.7 l -0.2,0.05 -0.5,-0.2 -0.35,0.7 -1.45,0.6 -0.25,-0.8 0.45,-1.05 -0.1,-0.5 0.1,-0.55 -0.8,-0.15 0.15,-0.85 -0.05,-0.6 q -1.05,-0.1 -2.1,1.05 -0.3,-0.6 -1.2,-0.8 h -0.5 l 0.95,-0.85 -0.8,-0.3 M 20.8,-3.3 q -1.25,1.4 -3.6,2.85 h -1.75 q 1.2,-1.25 1.2,-3.75 l -0.2,-1.55 0.95,0.75 0.45,-0.45 0.05,-0.25 0.7,0.1 0.25,0.35 q 1,1.55 1.95,1.95 M 8.7,-7.05 q -1.15,1 -1.15,2.95 0,1.8 0.6,2.3 0.25,0.25 2.55,1.35 h -28.25 l -2.55,-1.8 q 1,-0.2 1.45,-1.05 l 0.3,-1.1 q 0.8,0.65 1.15,0.65 1.35,0 1.65,-1.15 l 1,0.05 q 1.15,0 2.1,-0.5 l 0.75,0.1 q 0.6,0 0.9,-1.5 l 0.1,-0.15 0.15,-0.25 q 0.25,0.3 0.55,0.3 0.2,0 0.35,-0.35 l 0.2,0.35 q 0.45,0.75 1,0.75 0.55,0 0.95,-0.8 l 0.7,0.25 q 1.05,0 1.35,-2.1 0.45,0.9 1.1,0.9 0.4,0 1.65,-3.15 0.1,3.1 1.1,3.9 0.6,-0.65 1,-4.1 l 0.1,0.05 Q 0.85,-10 1.4,-10 l 0.9,-0.1 q 0.55,2.05 1.85,2.85 0.5,-0.4 0.85,-1.65 l 0.05,0.05 q 0.45,0.9 1,0.9 0.7,0 1.05,-0.55 l 0.75,-0.15 0.85,1.6 M -7.2,-5.2 q 0,0.9 0.6,1.45 0.55,0.55 1.5,0.55 1.5,0 2,-0.7 0.25,-0.4 0.25,-1.3 l -0.1,-0.95 Q -3.1,-6.6 -3.8,-7.1 q -2.5,0 -3.2,0.9 l -0.2,1"
         fill="#967e9e"
         fill-rule="evenodd"
         stroke="none"
         id="path8" />
    </g>
    <g
       id="sprite0"
       transform="translate(5.4,4)">
      <use
         ffdec:characterId="43"
         height="8"
         transform="translate(-5.4,-4)"
         width="10.8"
         xlink:href="#shape1"
         id="use8" />
    </g>
    <g
       id="shape1"
       transform="translate(5.4,4)">
      <path
         d="m 2.9,-0.35 q 0,-1.25 1.25,-1.25 1.25,0 1.25,1.2 0,1.3 -1.25,1.3 Q 3.6,0.9 3.25,0.5 2.9,0.15 2.9,-0.35 m 0.35,-2.3 q 0,0.55 -0.35,0.9 -0.4,0.45 -1,0.45 -1.35,0 -1.35,-1.4 0,-1.3 1.35,-1.3 1.35,0 1.35,1.35 m -3.1,1.9 h 0.2 q 2.6,0.1 2.6,2.8 l -0.3,1 Q 2.05,4 0.45,4 H 0.35 0.15 0.1 -0.45 q -1.6,0 -2.2,-0.95 l -0.3,-1 q 0,-2.8 2.8,-2.8 h 0.3 M -1.55,-4 q 1.35,0 1.35,1.35 0,0.55 -0.4,0.9 -0.4,0.45 -0.95,0.45 -1.4,0 -1.4,-1.4 0,-1.3 1.4,-1.3 m -2.6,2.4 q 1.25,0 1.25,1.25 0,0.5 -0.35,0.85 -0.35,0.4 -0.9,0.4 -1.25,0 -1.25,-1.3 0,-1.2 1.25,-1.2"
         fill="#6b6b6b"
         fill-rule="evenodd"
         stroke="none"
         id="path9" />
    </g>
    <g
       id="shape2"
       transform="translate(7.75,16.2)">
      <path
         d="m -6.25,-13.25 q -0.7,0 -1.15,-0.55 l -0.35,-0.9 q 0,-1.55 1.5,-1.5 1.55,0 1.55,1.5 l -0.2,0.7 q -0.4,0.75 -1.35,0.75 m 3.05,-1.15 0.5,-0.45 0.85,-0.2 3.35,0.25 0.3,0.4 -0.05,0.55 -3.75,0.15 q -0.5,0 -1.2,-0.7 m 9.4,0.45 q -0.25,-0.4 -0.25,-0.8 0,-1.05 1.25,-1.15 1.3,-0.1 1.3,1.15 0,1.25 -1.3,1.25 -0.65,0 -1,-0.45"
         fill="#6b6b6b"
         fill-rule="evenodd"
         stroke="none"
         id="path10" />
    </g>
  </defs>
</svg>
